<svg width="24" height="24" viewBox="0 0 24 24" fill="none" xmlns="http://www.w3.org/2000/svg">
<path d="M2.5 8.18677C2.60406 6.08705 2.91537 4.77792 3.84664 3.84664C4.77792 2.91537 6.08705 2.60406 8.18677 2.5M21.5 8.18677C21.3959 6.08705 21.0846 4.77792 20.1534 3.84664C19.2221 2.91537 17.9129 2.60406 15.8132 2.5M15.8132 21.5C17.9129 21.3959 19.2221 21.0846 20.1534 20.1534C21.0846 19.2221 21.3959 17.9129 21.5 15.8132M8.18676 21.5C6.08705 21.3959 4.77792 21.0846 3.84664 20.1534C2.91537 19.2221 2.60406 17.9129 2.5 15.8132" stroke="#141B34" stroke-width="1.5" stroke-linecap="round" stroke-linejoin="round"/>
<path d="M16.3494 12.199L17.092 12.0945L16.3494 12.199ZM14.4977 10.5534L14.5307 9.80408L14.4977 10.5534ZM14.4977 17.4466L14.5307 18.1959L14.4977 17.4466ZM16.3494 15.801L15.6067 15.6966L16.3494 15.801ZM9.50231 10.5534L9.53528 11.3026L9.50231 10.5534ZM7.65064 12.199L8.39333 12.3034L7.65064 12.199ZM9.50231 17.4466L9.46933 18.1959L9.50231 17.4466ZM7.65064 15.801L8.39333 15.6966L7.65064 15.801ZM8.75 10.5C8.75 10.9142 9.08579 11.25 9.5 11.25C9.91421 11.25 10.25 10.9142 10.25 10.5H8.75ZM13.75 10.5C13.75 10.9142 14.0858 11.25 14.5 11.25C14.9142 11.25 15.25 10.9142 15.25 10.5H13.75ZM12 16.75C11.1193 16.75 10.3208 16.7319 9.53528 16.6974L9.46933 18.1959C10.2775 18.2315 11.0979 18.25 12 18.25V16.75ZM14.4647 16.6974C13.6792 16.7319 12.8807 16.75 12 16.75V18.25C12.9021 18.25 13.7225 18.2315 14.5307 18.1959L14.4647 16.6974ZM17.092 15.9055C17.1761 15.3078 17.25 14.6654 17.25 14H15.75C15.75 14.5598 15.6877 15.1203 15.6067 15.6966L17.092 15.9055ZM17.25 14C17.25 13.3346 17.1761 12.6922 17.092 12.0945L15.6067 12.3034C15.6877 12.8797 15.75 13.4402 15.75 14H17.25ZM12 11.25C12.8807 11.25 13.6792 11.2681 14.4647 11.3026L14.5307 9.80408C13.7225 9.76852 12.9021 9.75 12 9.75V11.25ZM9.53528 11.3026C10.3208 11.2681 11.1193 11.25 12 11.25V9.75C11.0979 9.75 10.2775 9.76852 9.46933 9.80408L9.53528 11.3026ZM6.90795 12.0945C6.82389 12.6922 6.75 13.3346 6.75 14H8.25C8.25 13.4402 8.31229 12.8797 8.39333 12.3034L6.90795 12.0945ZM6.75 14C6.75 14.6654 6.82389 15.3078 6.90795 15.9055L8.39333 15.6966C8.31229 15.1203 8.25 14.5598 8.25 14H6.75ZM17.092 12.0945C16.9137 10.8268 15.828 9.86117 14.5307 9.80408L14.4647 11.3026C15.0614 11.3289 15.532 11.7725 15.6067 12.3034L17.092 12.0945ZM14.5307 18.1959C15.828 18.1388 16.9137 17.1732 17.092 15.9055L15.6067 15.6966C15.532 16.2275 15.0614 16.6711 14.4647 16.6974L14.5307 18.1959ZM9.46933 9.80408C8.17205 9.86117 7.08626 10.8268 6.90795 12.0945L8.39333 12.3034C8.46802 11.7725 8.9386 11.3289 9.53528 11.3026L9.46933 9.80408ZM9.53528 16.6974C8.9386 16.6711 8.46802 16.2275 8.39333 15.6966L6.90795 15.9055C7.08626 17.1732 8.17205 18.1388 9.46933 18.1959L9.53528 16.6974ZM10.25 10.5V9H8.75V10.5H10.25ZM13.75 9V10.5H15.25V9H13.75ZM15.25 9C15.25 7.20507 13.7949 5.75 12 5.75V7.25C12.9665 7.25 13.75 8.0335 13.75 9H15.25ZM10.25 9C10.25 8.0335 11.0335 7.25 12 7.25V5.75C10.2051 5.75 8.75 7.20507 8.75 9H10.25Z" fill="#141B34"/>
</svg>
