<svg width="24" height="24" viewBox="0 0 24 24" fill="none" xmlns="http://www.w3.org/2000/svg">
<path opacity="0.4" d="M12.9492 21.9992C15.5939 21.9992 16.9162 21.9992 17.8656 21.2429C18.8149 20.4866 19.1178 19.1919 19.7235 16.6025L21.6409 8.4062C21.9762 6.97286 22.1438 6.25619 21.8394 5.73714C21.2866 4.79452 19.8778 4.99924 18.9582 4.99924" stroke="#141B34" stroke-width="1.5" stroke-linecap="round" stroke-linejoin="round"/>
<path d="M2 9C2 5.70017 2 4.05025 3.02513 3.02513C4.05025 2 5.70017 2 9 2H12C15.2998 2 16.9497 2 17.9749 3.02513C19 4.05025 19 5.70017 19 9V15C19 18.2998 19 19.9497 17.9749 20.9749C16.9497 22 15.2998 22 12 22H9C5.70017 22 4.05025 22 3.02513 20.9749C2 19.9497 2 18.2998 2 15V9Z" stroke="#141B34" stroke-width="1.5"/>
<path opacity="0.4" d="M10.5 6C12.7091 6 14.5 7.79086 14.5 10C14.5 12.2091 12.7091 14 10.5 14M10.5 6C8.29086 6 6.5 7.79086 6.5 10C6.5 12.2091 8.29086 14 10.5 14M10.5 6C9.67157 6 9 7.79086 9 10C9 12.2091 9.67157 14 10.5 14M10.5 6C11.3284 6 12 7.79086 12 10C12 12.2091 11.3284 14 10.5 14" stroke="#141B34" stroke-width="1.5"/>
<path d="M7 17L14 17" stroke="#141B34" stroke-width="1.5" stroke-linecap="round"/>
</svg>
