<svg width="24" height="24" viewBox="0 0 24 24" fill="none" xmlns="http://www.w3.org/2000/svg">
<path d="M4 4L20 20" stroke="#141B34" stroke-width="1.5" stroke-linecap="round"/>
<path d="M15.6 4.95893L15.1653 5.57011L15.1653 5.57012L15.6 4.95893ZM16.35 5.49234L16.7847 4.88116L16.7847 4.88116L16.35 5.49234ZM14.2216 9.88881C13.884 10.1289 13.805 10.5971 14.0451 10.9347C14.2851 11.2722 14.7534 11.3513 15.0909 11.1112L14.2216 9.88881ZM12.6219 3.578L12.9432 4.25568H12.9432L12.6219 3.578ZM11.25 8C11.25 8.41421 11.5858 8.75 12 8.75C12.4142 8.75 12.75 8.41421 12.75 8H11.25ZM15.1653 5.57012L15.9153 6.10353L16.7847 4.88116L16.0347 4.34774L15.1653 5.57012ZM15.9153 6.10353C16.4849 6.50862 16.8434 6.76589 17.0699 6.98191C17.1769 7.08396 17.2225 7.14789 17.2411 7.18142C17.2492 7.19613 17.2507 7.20233 17.2504 7.20147C17.2501 7.20008 17.25 7.1984 17.25 7.19927H18.75C18.75 6.62992 18.4388 6.21464 18.1051 5.8964C17.7816 5.58789 17.3151 5.25841 16.7847 4.88116L15.9153 6.10353ZM15.0909 11.1112C15.6749 10.6958 16.5378 9.98059 17.256 9.30113C17.6151 8.96148 17.9539 8.61583 18.2086 8.30988C18.335 8.15809 18.4544 7.99977 18.5462 7.84531C18.62 7.72108 18.75 7.48179 18.75 7.19927H17.25C17.25 7.0501 17.3099 6.98952 17.2567 7.079C17.2215 7.13826 17.157 7.22864 17.0558 7.35018C16.8554 7.59088 16.5646 7.89038 16.2252 8.21145C15.5466 8.85341 14.7376 9.52182 14.2216 9.88881L15.0909 11.1112ZM12.75 6.66586C12.75 5.70799 12.7522 5.08017 12.8189 4.64894C12.8511 4.44099 12.891 4.33587 12.9184 4.28651C12.9365 4.25387 12.9413 4.2566 12.9432 4.25568L12.3006 2.90031C11.6451 3.21111 11.4261 3.84105 11.3366 4.41956C11.2478 4.99305 11.25 5.76173 11.25 6.66586H12.75ZM16.0347 4.34774C15.2694 3.80346 14.6284 3.34525 14.0987 3.07226C13.5722 2.80095 12.9399 2.59717 12.3006 2.90031L12.9432 4.25568C12.9467 4.25402 12.9584 4.24495 13.0154 4.25366C13.0884 4.26481 13.2121 4.30287 13.4115 4.40562C13.8227 4.61751 14.3598 4.99721 15.1653 5.57011L16.0347 4.34774ZM11.25 6.66586V8H12.75V6.66586H11.25Z" fill="#141B34"/>
<path d="M12.0004 12H12.7504C12.7504 11.7191 12.5934 11.4617 12.3436 11.3331C12.0938 11.2046 11.7931 11.2264 11.5645 11.3897L12.0004 12ZM15.3886 19.0411L14.9464 18.4352L14.9365 18.4427L15.3886 19.0411ZM17.9422 18.1058C18.2767 17.8616 18.35 17.3924 18.1058 17.0578C17.8616 16.7233 17.3924 16.65 17.0578 16.8942L17.9422 18.1058ZM4.56409 16.3897C4.22702 16.6304 4.14894 17.0988 4.38969 17.4359C4.63044 17.773 5.09885 17.8511 5.43591 17.6103L4.56409 16.3897ZM12.5857 20.422L12.9231 19.7522L12.9231 19.7522L12.5857 20.422ZM11.2504 12V17.3341H12.7504V12H11.2504ZM15.8308 19.6469L17.9422 18.1058L17.0578 16.8942L14.9465 18.4353L15.8308 19.6469ZM11.5645 11.3897L4.56409 16.3897L5.43591 17.6103L12.4363 12.6103L11.5645 11.3897ZM11.2504 17.3341C11.2504 18.2398 11.2485 19.0044 11.3314 19.5738C11.4133 20.1364 11.613 20.7718 12.2483 21.0918L12.9231 19.7522C12.9228 19.752 12.9262 19.7541 12.9289 19.7568C12.9307 19.7587 12.9241 19.7528 12.9123 19.7302C12.885 19.6778 12.8465 19.5687 12.8157 19.3577C12.7523 18.9224 12.7504 18.2905 12.7504 17.3341H11.2504ZM14.9365 18.4427C14.1768 19.0168 13.6747 19.3937 13.292 19.6032C13.1066 19.7047 12.9984 19.7384 12.9425 19.7474C12.9186 19.7513 12.9111 19.7495 12.9147 19.75C12.9193 19.7506 12.9235 19.7524 12.9231 19.7522L12.2483 21.0918C12.886 21.4131 13.5147 21.1915 14.0125 20.9189C14.5153 20.6435 15.122 20.1826 15.8408 19.6394L14.9365 18.4427Z" fill="#141B34"/>
</svg>
