<svg width="24" height="24" viewBox="0 0 24 24" fill="none" xmlns="http://www.w3.org/2000/svg">
<path d="M2 2L22 22" stroke="#141B34" stroke-width="1.5" stroke-linecap="round" stroke-linejoin="round"/>
<path d="M21 14C21 11.7909 19.2091 10 17 10C16.2532 10 15.602 10.4093 15.2585 11.0159M15 15V16C15 17.1046 15.8954 18 17 18C17.309 18 17.6098 17.965 17.8987 17.8987" stroke="#141B34" stroke-width="1.5" stroke-linecap="round" stroke-linejoin="round"/>
<path d="M5.90819 10.1509C4.22974 10.626 3 12.1694 3 14.0001C3 16.2092 4.79086 18.0001 7 18.0001C8.10457 18.0001 9 17.1046 9 16.0001V13.2427" stroke="#141B34" stroke-width="1.5" stroke-linecap="round"/>
<path d="M2.25 14C2.25 14.4142 2.58579 14.75 3 14.75C3.41421 14.75 3.75 14.4142 3.75 14H2.25ZM12 21.25C11.5858 21.25 11.25 21.5858 11.25 22C11.25 22.4142 11.5858 22.75 12 22.75V21.25ZM18.6417 21.6476L18.9495 22.3315H18.9495L18.6417 21.6476ZM5.72572 5.64288C5.99484 5.32801 5.95776 4.85459 5.64288 4.58546C5.32801 4.31634 4.85459 4.35342 4.58546 4.6683L5.72572 5.64288ZM20.8996 20.7121C21.1361 20.3721 21.0522 19.9047 20.7121 19.6682C20.3721 19.4317 19.9047 19.5156 19.6682 19.8557L20.8996 20.7121ZM20.2485 16.7516C20.2462 17.1658 20.5801 17.5035 20.9943 17.5058C21.4085 17.5081 21.7461 17.1742 21.7484 16.76L20.2485 16.7516ZM7.08793 2.57607C6.73028 2.78503 6.60975 3.24436 6.81871 3.602C7.02767 3.95964 7.487 4.08017 7.84464 3.87121L7.08793 2.57607ZM3.75 14V11H2.25V14H3.75ZM20.25 11V15.8462H21.75V11H20.25ZM14.8462 21.25H12V22.75H14.8462V21.25ZM14.8462 22.75C15.8392 22.75 16.6245 22.7505 17.2583 22.7039C17.8996 22.6569 18.4446 22.5587 18.9495 22.3315L18.3338 20.9637C18.0557 21.0889 17.7071 21.1669 17.1485 21.208C16.5824 21.2495 15.8614 21.25 14.8462 21.25V22.75ZM12 2.75C16.5563 2.75 20.25 6.44365 20.25 11H21.75C21.75 5.61522 17.3848 1.25 12 1.25V2.75ZM3.75 11C3.75 8.95456 4.49341 7.08467 5.72572 5.64288L4.58546 4.6683C3.12976 6.37146 2.25 8.58395 2.25 11H3.75ZM19.6682 19.8557C19.3341 20.336 18.8741 20.7205 18.3338 20.9637L18.9495 22.3315C19.7392 21.9761 20.4114 21.4141 20.8996 20.7121L19.6682 19.8557ZM20.25 15.8462C20.25 16.1757 20.25 16.4756 20.2485 16.7516L21.7484 16.76C21.75 16.4789 21.75 16.1747 21.75 15.8462H20.25ZM7.84464 3.87121C9.06432 3.15859 10.4833 2.75 12 2.75V1.25C10.2102 1.25 8.53099 1.73293 7.08793 2.57607L7.84464 3.87121Z" fill="#141B34"/>
</svg>
