<svg width="24" height="24" viewBox="0 0 24 24" fill="none" xmlns="http://www.w3.org/2000/svg">
<path opacity="0.4" d="M5.38821 17.1978L17.1977 5.38831L18.6119 6.80252L6.80243 18.612L5.38821 17.1978Z" fill="#141B34"/>
<path d="M17.4087 2.17324C17.9677 2.10583 18.6876 2.01904 19.3307 2.00286C19.6707 1.99431 20.0317 2.00382 20.361 2.05934C20.6542 2.10878 21.1023 2.22176 21.4403 2.55979C21.7784 2.89783 21.8913 3.34593 21.9408 3.63916C21.9963 3.96846 22.0058 4.32945 21.9973 4.66945C21.9811 5.31256 21.8943 6.03233 21.8269 6.59135L21.8108 6.72517C21.7897 6.90175 21.764 7.11712 21.721 7.29039L21.72 7.29455C21.6896 7.41773 21.5497 7.98421 20.9545 8.18999C20.3609 8.39523 19.9029 8.03939 19.8015 7.96063L19.7995 7.95909C19.6591 7.85002 19.5069 7.69765 19.3837 7.57429L18.6119 6.80247L16.4258 4.61638C16.3025 4.49321 16.1501 4.34107 16.041 4.20061L16.0395 4.19863C15.9607 4.09725 15.6049 3.6392 15.8101 3.0456C16.0159 2.45044 16.5824 2.31053 16.7056 2.28011L16.7097 2.27908C16.883 2.23617 17.0985 2.21042 17.275 2.18931L17.4087 2.17324Z" fill="#141B34"/>
<path d="M2.27998 16.7056C2.31041 16.5824 2.45032 16.0159 3.04548 15.8101C3.63908 15.6049 4.09714 15.9607 4.19851 16.0395L4.20049 16.041C4.34095 16.1501 4.49309 16.3025 4.61626 16.4258L6.80243 18.612L7.57417 19.3837C7.69753 19.5069 7.84989 19.659 7.95897 19.7995L7.9605 19.8015C8.03926 19.9028 8.39511 20.3609 8.18987 20.9545C7.98409 21.5497 7.41761 21.6896 7.29443 21.72L7.29027 21.721C7.11698 21.7639 6.90153 21.7897 6.72494 21.8108L6.59128 21.8269C6.03224 21.8943 5.31246 21.9811 4.66933 21.9972C4.32933 22.0058 3.96834 21.9963 3.63904 21.9408C3.34581 21.8913 2.89771 21.7783 2.55967 21.4403C2.22163 21.1023 2.10866 20.6542 2.05922 20.3609C2.0037 20.0316 1.99419 19.6707 2.00274 19.3307C2.01892 18.6875 2.10571 17.9677 2.17312 17.4087L2.18919 17.275C2.21029 17.0984 2.23603 16.883 2.27896 16.7097L2.27998 16.7056Z" fill="#141B34"/>
</svg>
