<svg width="24" height="24" viewBox="0 0 24 24" fill="none" xmlns="http://www.w3.org/2000/svg">
<path opacity="0.3" fill-rule="evenodd" clip-rule="evenodd" d="M12.0002 8.875C11.448 8.875 11.0002 9.32272 11.0002 9.875L11.0002 19.875C11.0002 20.4273 11.448 20.875 12.0002 20.875C12.5525 20.875 13.0002 20.4273 13.0002 19.875L13.0002 9.875C13.0002 9.32272 12.5525 8.875 12.0002 8.875Z" fill="#141B34"/>
<path d="M10.775 3.68621C11.0816 3.39329 11.4763 3.125 12.001 3.125C12.5257 3.125 12.9184 3.39329 13.225 3.68621C13.5106 3.95899 13.8487 4.38826 14.1927 4.82504L14.9913 5.83884C15.5763 6.58134 16.0659 7.20286 16.3661 7.72013C16.6679 8.24039 16.9132 8.88006 16.6195 9.54328C16.3179 10.2246 15.6658 10.4467 15.079 10.5369C14.5049 10.6251 13.7351 10.6251 12.8265 10.625H11.1735C10.2649 10.6251 9.49509 10.6251 8.92102 10.5369C8.33423 10.4467 7.68211 10.2246 7.38045 9.54328C7.0868 8.88006 7.33207 8.24039 7.63393 7.72013C7.93406 7.20286 8.42372 6.58132 9.0087 5.83881L9.80732 4.82504C10.1513 4.38826 10.4894 3.95899 10.775 3.68621Z" fill="#141B34"/>
</svg>
