<svg width="24" height="24" viewBox="0 0 24 24" fill="none" xmlns="http://www.w3.org/2000/svg">
<path opacity="0.4" d="M22.75 12C22.75 6.06294 17.9371 1.25 12 1.25C6.06294 1.25 1.25 6.06294 1.25 12C1.25 17.9371 6.06294 22.75 12 22.75C17.9371 22.75 22.75 17.9371 22.75 12Z" fill="#141B34"/>
<path d="M8.77277 6.85307C9.13006 6.39631 9.78997 6.31568 10.2467 6.67296C10.5156 6.88326 10.654 7.19868 10.6497 7.51454V8.49545L14.3998 8.49545C15.2985 8.49545 16.1481 8.73926 16.641 9.53673C17.0392 10.1809 17.0498 10.9985 17.0498 11.5909C17.0498 12.1708 16.5797 12.6409 15.9998 12.6409C15.4199 12.6409 14.9498 12.1708 14.9498 11.5909C14.9498 11.2595 14.9369 11.0337 14.9156 10.8784C14.8976 10.7468 14.8756 10.683 14.862 10.6544L14.8536 10.6507C14.8048 10.6304 14.6776 10.5955 14.3998 10.5955L9.10255 10.5955C8.8677 10.5955 8.60071 10.5833 8.35504 10.5229C8.13995 10.47 7.67048 10.314 7.43098 9.81262C7.19359 9.31566 7.36249 8.8547 7.45291 8.65593C7.55717 8.42672 7.71185 8.20937 7.85742 8.02326L8.77277 6.85307Z" fill="#141B34"/>
<path d="M7.99981 11.359C8.57971 11.359 9.04981 11.8291 9.04981 12.409C9.04981 12.7404 9.06273 12.9662 9.08402 13.1215C9.10206 13.2531 9.12405 13.3169 9.13763 13.3455L9.14605 13.3492C9.19481 13.3695 9.32198 13.4045 9.59981 13.4045L14.8971 13.4045C15.1319 13.4045 15.3989 13.4166 15.6446 13.477C15.8597 13.5299 16.3291 13.6859 16.5686 14.1873C16.806 14.6843 16.6371 15.1452 16.5467 15.344C16.4424 15.5732 16.2878 15.7906 16.1422 15.9767L15.2268 17.1469C14.8696 17.6036 14.2096 17.6843 13.7529 17.327C13.484 17.1167 13.3457 16.8012 13.3499 16.4854V15.5045H9.59981C8.70109 15.5045 7.8515 15.2607 7.35858 14.4632C6.96038 13.819 6.94981 13.0014 6.94981 12.409C6.94981 11.8291 7.41991 11.359 7.99981 11.359Z" fill="#141B34"/>
</svg>
