<svg width="24" height="24" viewBox="0 0 24 24" fill="none" xmlns="http://www.w3.org/2000/svg">
<path opacity="0.4" d="M11.9428 1.75C9.75212 1.74999 8.03144 1.74998 6.68802 1.93059C5.31137 2.11568 4.21911 2.50272 3.36091 3.36091C2.50271 4.21911 2.11568 5.31137 1.93059 6.68802C1.74998 8.03144 1.74999 9.7521 1.75 11.9428V11.9428V12.0572V12.0572C1.74999 14.2479 1.74998 15.9686 1.93059 17.312C2.11568 18.6886 2.50271 19.7809 3.36091 20.6391C4.21911 21.4973 5.31137 21.8843 6.68802 22.0694C8.03144 22.25 9.7521 22.25 11.9428 22.25H11.9428H12.0572H12.0572C14.2479 22.25 15.9686 22.25 17.312 22.0694C18.6886 21.8843 19.7809 21.4973 20.6391 20.6391C21.4973 19.7809 21.8843 18.6886 22.0694 17.312C22.25 15.9686 22.25 14.2479 22.25 12.0572V11.9428C22.25 9.75212 22.25 8.03144 22.0694 6.68802C21.8843 5.31137 21.4973 4.21911 20.6391 3.36091C19.7809 2.50272 18.6886 2.11568 17.312 1.93059C15.9686 1.74998 14.2479 1.74999 12.0572 1.75H11.9428Z" fill="#141B34"/>
<path d="M13.1217 16.7384C13.1435 17.152 13.4964 17.4698 13.91 17.448C13.9928 17.4437 14.1527 17.4504 14.4118 17.4644L14.4685 17.4674C14.6954 17.4797 14.9659 17.4944 15.2341 17.4987C15.5213 17.5033 15.8381 17.4969 16.1236 17.4553C16.3651 17.42 16.7675 17.3378 17.0527 17.0526C17.3378 16.7675 17.4201 16.365 17.4553 16.1235C17.497 15.838 17.5034 15.5213 17.4988 15.234C17.4945 14.9658 17.4798 14.6953 17.4675 14.4684L17.4644 14.4118C17.4504 14.1526 17.4438 13.9927 17.4481 13.91C17.4698 13.4963 17.1521 13.1434 16.7385 13.1217C16.5175 13.1101 16.3139 13.1953 16.1688 13.3403L15.4617 14.0474L13.9142 12.5C13.5237 12.1094 12.8906 12.1094 12.5 12.5C12.1095 12.8905 12.1095 13.5237 12.5 13.9142L14.0475 15.4616L13.3401 16.169C13.1953 16.3141 13.1101 16.5176 13.1217 16.7384Z" fill="#141B34"/>
<path d="M10.8783 7.2616C10.8566 6.84796 10.5036 6.53024 10.09 6.55196C10.0072 6.55631 9.84734 6.54962 9.5882 6.53564L9.5315 6.53257C9.30464 6.52026 9.03415 6.50558 8.76595 6.50128C8.47869 6.49667 8.16196 6.50307 7.87647 6.54474C7.63497 6.58 7.23251 6.66221 6.94735 6.94738C6.66218 7.23254 6.57997 7.635 6.54471 7.8765C6.50304 8.16199 6.49664 8.47871 6.50125 8.76598C6.50556 9.0342 6.52023 9.30472 6.53255 9.53159L6.53561 9.58823C6.54959 9.84737 6.55628 10.0073 6.55193 10.09C6.53021 10.5037 6.84793 10.8566 7.26157 10.8783C7.48238 10.8899 7.68588 10.8048 7.83094 10.66L8.53834 9.95258L10.0858 11.5001C10.4763 11.8906 11.1095 11.8906 11.5 11.5001C11.8906 11.1095 11.8906 10.4764 11.5 10.0858L9.95256 8.53836L10.6597 7.83126C10.8046 7.68618 10.8899 7.48255 10.8783 7.2616Z" fill="#141B34"/>
</svg>
