<svg width="24" height="24" viewBox="0 0 24 24" fill="none" xmlns="http://www.w3.org/2000/svg">
<path d="M19.0045 19H4.8005C3.78202 19 3 18.1508 3 17.1527C3 16.427 3.34173 15.7438 3.92239 15.3084C5.16997 14.373 5.08548 12.887 5.15897 11.491C5.24716 9.81588 5.93091 8.14021 7 7" stroke="#141B34" stroke-width="1.5" stroke-linecap="round" stroke-linejoin="round"/>
<path opacity="0.4" d="M18.8461 11.491L19.5951 11.4516V11.4516L18.8461 11.491ZM20.0827 15.3084L19.6328 15.9085L20.0827 15.3084ZM9.21819 4.80496C8.83433 4.9606 8.64932 5.39795 8.80496 5.78181C8.9606 6.16567 9.39795 6.35068 9.78181 6.19504L9.21819 4.80496ZM20.2517 17.0496C20.2791 17.4629 20.6363 17.7758 21.0496 17.7484C21.4629 17.721 21.7758 17.3637 21.7484 16.9504L20.2517 17.0496ZM12.0025 5.75C15.2487 5.75 17.9265 8.29018 18.0971 11.5304L19.5951 11.4516C19.3825 7.41428 16.0461 4.25 12.0025 4.25V5.75ZM18.0971 11.5304C18.1306 12.1668 18.1302 12.9903 18.2912 13.7316C18.462 14.5177 18.8265 15.3039 19.6328 15.9085L20.5326 14.7083C20.0913 14.3774 19.8743 13.953 19.757 13.4132C19.63 12.8287 19.6351 12.2112 19.5951 11.4516L18.0971 11.5304ZM9.78181 6.19504C10.4976 5.90483 11.2 5.75 12.0025 5.75V4.25C10.9874 4.25 10.094 4.44985 9.21819 4.80496L9.78181 6.19504ZM19.6328 15.9085C19.9969 16.1815 20.2218 16.5991 20.2517 17.0496L21.7484 16.9504C21.6897 16.0649 21.2479 15.2447 20.5326 14.7083L19.6328 15.9085ZM9.75002 3.125C9.75002 3.72116 9.98302 4.34375 10.3374 4.82057C10.6863 5.28989 11.2585 5.75 12 5.75V4.25C11.9131 4.25 11.7354 4.18683 11.5413 3.92575C11.3528 3.67217 11.25 3.35726 11.25 3.125H9.75002ZM12 5.75C12.7415 5.75 13.3138 5.28989 13.6626 4.82057C14.017 4.34375 14.25 3.72116 14.25 3.125H12.75C12.75 3.35726 12.6472 3.67217 12.4588 3.92575C12.2647 4.18683 12.0869 4.25 12 4.25V5.75ZM14.25 3.125C14.25 2.47083 13.9653 1.94759 13.4715 1.62434C13.0264 1.33296 12.483 1.25 12 1.25V2.75C12.3454 2.75 12.5521 2.81533 12.6499 2.87934C12.6902 2.90574 12.7077 2.92864 12.7184 2.94888C12.7296 2.97026 12.75 3.02106 12.75 3.125H14.25ZM12 1.25C11.517 1.25 10.9737 1.33296 10.5286 1.62434C10.0348 1.94759 9.75002 2.47083 9.75002 3.125H11.25C11.25 3.02106 11.2704 2.97026 11.2817 2.94888C11.2923 2.92864 11.3098 2.90574 11.3501 2.87934C11.4479 2.81533 11.6546 2.75 12 2.75V1.25Z" fill="#141B34"/>
<path d="M15 19C15 20.6569 13.6569 22 12 22C10.3431 22 9 20.6569 9 19" stroke="#141B34" stroke-width="1.5" stroke-linecap="round" stroke-linejoin="round"/>
<path d="M22 22L2 2" stroke="#141B34" stroke-width="1.5" stroke-linecap="round"/>
</svg>
