<svg width="24" height="24" viewBox="0 0 24 24" fill="none" xmlns="http://www.w3.org/2000/svg">
<path fill-rule="evenodd" clip-rule="evenodd" d="M18.0001 10.0001L5.99999 10L6 8L18.0001 8.00006L18.0001 10.0001Z" fill="#141B34"/>
<path fill-rule="evenodd" clip-rule="evenodd" d="M21 14H3V12H21V14Z" fill="#141B34"/>
<path fill-rule="evenodd" clip-rule="evenodd" d="M12.0001 2L15.2072 5.20711L13.793 6.62132L13.0001 5.82843L13.0002 9.00023H11.0002L11.0001 5.82843L10.2072 6.62132L8.79297 5.20711L12.0001 2Z" fill="#141B34"/>
<path fill-rule="evenodd" clip-rule="evenodd" d="M8.00008 14.5859L11.2072 17.793L9.79297 19.2073L9.00008 18.4144V22.0002H7.00008V18.4144L6.20718 19.2073L4.79297 17.793L8.00008 14.5859Z" fill="#141B34"/>
<path fill-rule="evenodd" clip-rule="evenodd" d="M16.0001 14.5859L19.2072 17.793L17.793 19.2073L17.0001 18.4144V22.0002H15.0001V18.4144L14.2072 19.2073L12.793 17.793L16.0001 14.5859Z" fill="#141B34"/>
</svg>
