<svg width="24" height="24" viewBox="0 0 24 24" fill="none" xmlns="http://www.w3.org/2000/svg">
<path d="M2.5 12C2.5 7.52166 2.5 5.28249 3.89124 3.89124C5.28249 2.5 7.52166 2.5 12 2.5C16.4783 2.5 18.7175 2.5 20.1088 3.89124C21.5 5.28249 21.5 7.52166 21.5 12C21.5 16.4783 21.5 18.7175 20.1088 20.1088C18.7175 21.5 16.4783 21.5 12 21.5C7.52166 21.5 5.28249 21.5 3.89124 20.1088C2.5 18.7175 2.5 16.4783 2.5 12Z" stroke="#141B34" stroke-width="1.5" stroke-linejoin="round"/>
<path opacity="0.4" d="M15 15H15.75H15ZM15.75 8C15.75 7.58579 15.4142 7.25 15 7.25C14.5858 7.25 14.25 7.58579 14.25 8H15.75ZM8.75 8C8.75 7.58579 8.41421 7.25 8 7.25C7.58579 7.25 7.25 7.58579 7.25 8H8.75ZM7.25 16C7.25 16.4142 7.58579 16.75 8 16.75C8.41421 16.75 8.75 16.4142 8.75 16H7.25ZM15.75 15L15.75 11H14.25L14.25 15H15.75ZM15.75 11V8H14.25V11H15.75ZM15 10.25H13.5V11.75H15V10.25ZM10.25 13.5C10.25 15.2949 11.7051 16.75 13.5 16.75V15.25C12.5335 15.25 11.75 14.4665 11.75 13.5H10.25ZM13.5 10.25C11.7051 10.25 10.25 11.7051 10.25 13.5H11.75C11.75 12.5335 12.5335 11.75 13.5 11.75V10.25ZM14.25 15C14.25 15.1101 14.2434 15.1889 14.2349 15.2437C14.2307 15.2706 14.2263 15.2897 14.2228 15.3024C14.2193 15.315 14.217 15.3203 14.2171 15.32C14.2283 15.2945 14.269 15.2481 14.3138 15.2282C14.3216 15.2247 14.2819 15.2428 14.1185 15.2494C13.9513 15.2562 13.7791 15.25 13.5 15.25V16.75C13.7124 16.75 13.9735 16.7566 14.1796 16.7482C14.3897 16.7396 14.6635 16.7144 14.9235 16.5987C15.2204 16.4666 15.4518 16.2391 15.5906 15.9228C15.7148 15.64 15.75 15.3201 15.75 15H14.25ZM7.25 8V16H8.75V8H7.25Z" fill="#141B34"/>
</svg>
