<svg width="24" height="24" viewBox="0 0 24 24" fill="none" xmlns="http://www.w3.org/2000/svg">
<path d="M8.85746 12.5061C6.36901 10.6456 4.59564 8.59915 3.62734 7.44867C3.3276 7.09253 3.22938 6.8319 3.17033 6.3728C2.96811 4.8008 2.86701 4.0148 3.32795 3.5074C3.7889 3 4.60404 3 6.23433 3H17.7657C19.396 3 20.2111 3 20.672 3.5074C21.133 4.0148 21.0319 4.8008 20.8297 6.37281C20.7706 6.83191 20.6724 7.09254 20.3726 7.44867C19.403 8.60062 17.6261 10.6507 15.1326 12.5135C14.907 12.6821 14.7583 12.9567 14.7307 13.2614C14.4837 15.992 14.2559 17.4876 14.1141 18.2442C13.8853 19.4657 12.1532 20.2006 11.226 20.8563C10.6741 21.2466 10.0043 20.782 9.93278 20.1778C9.79643 19.0261 9.53961 16.6864 9.25927 13.2614C9.23409 12.9539 9.08486 12.6761 8.85746 12.5061Z" fill="#D4D7E0"/>
<path d="M17.5458 14C19.4535 14 21 12.433 21 10.5C21 8.567 19.4535 7 17.5458 7C16.7681 7 16.0506 7.26056 15.4732 7.7C14.1674 8.5177 13.729 9.5912 14.1607 11.2C14.4807 12.7976 15.8747 14 17.5458 14Z" fill="white"/>
<path d="M20.9843 5C21.0344 4.28926 20.9732 3.83888 20.672 3.5074C20.2111 3 19.396 3 17.7657 3H6.23433C4.60404 3 3.7889 3 3.32795 3.5074C2.86701 4.0148 2.96811 4.8008 3.17033 6.3728C3.22938 6.8319 3.3276 7.09253 3.62734 7.44867C4.59564 8.59915 6.36901 10.6456 8.85746 12.5061C9.08486 12.6761 9.23409 12.9539 9.25927 13.2614C9.53961 16.6864 9.79643 19.0261 9.93278 20.1778C10.0043 20.782 10.6741 21.2466 11.226 20.8563C12.1532 20.2006 13.8853 19.4657 14.1141 18.2442C14.1986 17.7934 14.3136 17.0803 14.445 16" stroke="#141B34" stroke-width="1.5" stroke-linecap="round" stroke-linejoin="round"/>
<path d="M15.0132 6L14.5139 8.08437L15.3434 7.56607C15.9343 7.11729 16.6687 6.85119 17.4646 6.85119C19.4172 6.85119 21 8.45151 21 10.4256C21 12.3997 19.4172 14 17.4646 14C15.7543 14 14.3276 12.772 14 11.1405" stroke="#141B34" stroke-width="1.5" stroke-linecap="round" stroke-linejoin="round"/>
</svg>
