<svg width="24" height="24" viewBox="0 0 24 24" fill="none" xmlns="http://www.w3.org/2000/svg">
<path d="M15.7054 8.29354C14.0028 6.59097 12.6084 5.8155 11.2231 6.03423C10.5497 6.14055 9.97281 6.47116 9.45583 6.87164C8.95188 7.26203 8.45085 7.76309 7.94282 8.27114L7.92042 8.29354C7.64351 8.57045 7.31809 8.94861 6.96347 9.40166L8.73857 11.1765L7.67797 12.2372L6.06357 10.6231C5.18024 11.886 4.22624 13.4261 3.4276 14.9346C2.70804 16.2938 2.08919 17.6741 1.75964 18.8451C1.59548 19.4284 1.4918 19.9983 1.50106 20.5074C1.51016 21.0081 1.63189 21.5576 2.03663 21.9623C2.44137 22.3671 2.99089 22.4888 3.49155 22.4979C4.00062 22.5071 4.57057 22.4035 5.15387 22.2393C6.32481 21.9098 7.70517 21.2909 9.06433 20.5713C9.26894 20.463 9.47412 20.3518 9.67912 20.2384L7.67791 18.2372L8.73857 17.1765L11.0231 19.461C12.6299 18.4921 14.1155 17.4557 15.083 16.6423L13.1779 14.7372L14.2386 13.6765L16.1716 15.6095C16.521 15.2532 16.8517 14.8989 17.1273 14.5431C17.5278 14.0261 17.8584 13.4492 17.9647 12.7758C18.1834 11.3905 17.408 9.99611 15.7054 8.29354Z" fill="#141B34"/>
<path fill-rule="evenodd" clip-rule="evenodd" d="M14.3203 5.21001C15.1608 3.75812 14.7476 2.86925 14.439 2.56061L15.4997 1.5C16.3761 2.37655 16.7332 4.03577 15.6185 5.9615L14.3203 5.21001ZM16.1063 6.83299L18.3283 4.61077L19.389 5.67138L17.167 7.8936L16.1063 6.83299ZM18.0383 8.38125C19.9639 7.26629 21.6231 7.6234 22.4997 8.5L21.439 9.56061C21.1304 9.25203 20.2417 8.83877 18.7899 9.67936L18.0383 8.38125Z" fill="#141B34"/>
</svg>
