<svg width="24" height="24" viewBox="0 0 24 24" fill="none" xmlns="http://www.w3.org/2000/svg">
<path d="M18.6855 2.80204L18.1644 2.25L16.2241 4.19024L16.5088 4.47494L16.5162 4.48278C17.9549 6.00671 18.838 8.06389 18.838 10.3257C18.838 15.0272 15.0267 18.8385 10.3252 18.8385C8.06335 18.8385 6.00617 17.9555 4.48224 16.5168L4.4744 16.5094L4.1897 16.2247L2.25 18.1644L2.80204 18.6855C4.81368 20.5847 7.52855 21.75 10.514 21.75C16.7195 21.75 21.75 16.7195 21.75 10.514C21.75 7.52855 20.5847 4.81368 18.6855 2.80204Z" fill="#141B34"/>
<path d="M5.25036 15.164L5.51961 15.4333C6.77543 16.6153 8.46502 17.3385 10.3252 17.3385C14.1982 17.3385 17.338 14.1988 17.338 10.3257C17.338 8.46556 16.6148 6.77597 15.4327 5.52014L15.1635 5.2509L13.1106 7.30372L13.2979 7.75848C13.3569 7.90169 13.3898 8.05917 13.3898 8.22618C13.3898 8.70581 13.1153 9.12265 12.7114 9.32569L12.1601 9.60288L12.3356 10.1945C12.3814 10.3491 12.4063 10.5135 12.4063 10.6851C12.4063 11.6357 11.6357 12.4063 10.6851 12.4063C10.225 12.4063 9.80846 12.2268 9.49906 11.9325L8.97777 11.4366L5.25036 15.164Z" fill="#141B34"/>
</svg>
