<svg width="24" height="24" viewBox="0 0 24 24" fill="none" xmlns="http://www.w3.org/2000/svg">
<path fill-rule="evenodd" clip-rule="evenodd" d="M8.00049 3.125C8.00049 2.57272 8.4482 2.125 9.00049 2.125H15.0005C15.5528 2.125 16.0005 2.57272 16.0005 3.125C16.0005 3.67728 15.5528 4.125 15.0005 4.125H9.00049C8.4482 4.125 8.00049 3.67728 8.00049 3.125Z" fill="#141B34"/>
<path opacity="0.4" d="M17.837 13.9796C18.2506 13.5905 18.7901 13.375 19.5005 13.375C20.2108 13.375 20.7503 13.5905 21.1639 13.9796C21.5062 14.3016 21.7257 14.7183 21.8866 15.0237C22.0035 15.2276 22.4695 16.0564 22.5717 16.3181C22.7679 16.8205 22.9287 17.6086 22.3342 18.2715C21.99 18.6552 21.5193 18.7744 21.0985 18.8253C20.6871 18.8751 20.1131 18.875 19.5005 18.875H19.5005H19.5004C18.8878 18.875 18.3138 18.8751 17.9024 18.8253C17.4816 18.7744 17.0109 18.6552 16.6667 18.2715C16.0722 17.6086 16.233 16.8205 16.4292 16.3181C16.5314 16.0564 16.9974 15.2276 17.1143 15.0237C17.2752 14.7183 17.4948 14.3016 17.837 13.9796Z" fill="#141B34"/>
<path opacity="0.4" d="M10.337 16.9796C10.7506 16.5905 11.2901 16.375 12.0005 16.375C12.7108 16.375 13.2503 16.5905 13.6639 16.9796C14.0062 17.3016 14.2257 17.7183 14.3866 18.0237C14.5035 18.2276 14.9695 19.0564 15.0717 19.3181C15.2679 19.8205 15.4287 20.6086 14.8342 21.2715C14.49 21.6552 14.0193 21.7744 13.5985 21.8253C13.1871 21.8751 12.6131 21.875 12.0005 21.875H12.0005H12.0004C11.3878 21.875 10.8138 21.8751 10.4024 21.8253C9.98158 21.7744 9.51088 21.6552 9.16673 21.2715C8.57219 20.6086 8.73301 19.8205 8.9292 19.3181C9.03138 19.0564 9.49737 18.2276 9.61431 18.0237C9.77522 17.7183 9.99476 17.3016 10.337 16.9796Z" fill="#141B34"/>
<path opacity="0.4" d="M2.83628 13.9796C3.24984 13.5905 3.78939 13.375 4.49973 13.375C5.21007 13.375 5.74961 13.5905 6.16318 13.9796C6.50543 14.3016 6.72497 14.7183 6.88588 15.0237C7.00282 15.2276 7.46881 16.0564 7.57099 16.3181C7.76718 16.8205 7.928 17.6086 7.33346 18.2715C6.98931 18.6552 6.51861 18.7744 6.09778 18.8253C5.68641 18.8751 5.1124 18.875 4.49975 18.875H4.49973H4.49971C3.88706 18.875 3.31304 18.8751 2.90168 18.8253C2.48085 18.7744 2.01015 18.6552 1.666 18.2715C1.07146 17.6086 1.23228 16.8205 1.42847 16.3181C1.53065 16.0564 1.99664 15.2276 2.11358 15.0237C2.27449 14.7183 2.49403 14.3016 2.83628 13.9796Z" fill="#141B34"/>
<path fill-rule="evenodd" clip-rule="evenodd" d="M11 16.5537C11.2892 16.4367 11.6205 16.3749 12.0007 16.3749C12.3803 16.3749 12.7111 16.4365 13 16.5531V11.876L13 11.8749C13 10.3562 14.2312 9.12494 15.75 9.12494C17.2688 9.12494 18.5 10.3562 18.5 11.8749V13.5537C18.7892 13.4367 19.1205 13.3749 19.5007 13.3749C19.8803 13.3749 20.2111 13.4365 20.5 13.5531V11.8749C20.5 9.25158 18.3734 7.12494 15.75 7.12494C14.7251 7.12494 13.7761 7.44952 13 8.00149V3.12494C13 2.57265 12.5523 2.12494 12 2.12494C11.4477 2.12494 11 2.57265 11 3.12494L11 8.00149C10.2239 7.44951 9.27487 7.12494 8.25 7.12494C5.62665 7.12494 3.5 9.25158 3.5 11.8749V13.5533C3.78899 13.4365 4.11995 13.3749 4.49973 13.3749C4.87975 13.3749 5.21088 13.4366 5.5 13.5535V11.8749C5.5 10.3562 6.73122 9.12494 8.25 9.12494C9.76835 9.12494 10.9993 10.3555 11 11.8736L11 11.8749L11 16.5537Z" fill="#141B34"/>
</svg>
