<svg width="24" height="24" viewBox="0 0 24 24" fill="none" xmlns="http://www.w3.org/2000/svg">
<path opacity="0.4" d="M4.94922 12.8998C4.94922 8.19842 7.94112 4.0498 11.9992 4.0498C16.0573 4.0498 19.0492 8.19842 19.0492 12.8998C19.0492 17.6012 16.0573 21.7498 11.9992 21.7498C7.94112 21.7498 4.94922 17.6012 4.94922 12.8998Z" fill="#141B34"/>
<path d="M17.5311 7.4082C17.7937 7.82768 18.0262 8.27649 18.2255 8.74872L17.8288 9.01498C16.3367 10.0933 14.6077 10.7749 12.7498 10.9204L12.7498 13.7996C12.7498 14.2138 12.4141 14.5496 11.9998 14.5496C11.5856 14.5496 11.2498 14.2138 11.2498 13.7996L11.2498 10.9204C9.39913 10.7754 7.67623 10.0985 6.18801 9.02734L5.7627 8.77475C5.95966 8.30416 6.18961 7.85663 6.44942 7.438L7.01221 7.77224L7.03989 7.79229C8.50068 8.85069 10.1964 9.44963 11.9998 9.44963C13.8033 9.44963 15.499 8.85069 16.9598 7.79229L16.9707 7.78441L17.5311 7.4082Z" fill="#141B34"/>
<path d="M17.2532 3.65782C17.6165 3.24184 17.5738 2.61012 17.1578 2.24683C16.7418 1.88353 16.1101 1.92624 15.7468 2.34221L13.959 4.38923C14.6005 4.61845 15.1987 4.95748 15.7433 5.38668L17.2532 3.65782Z" fill="#141B34"/>
<path d="M18.9078 11.1395C18.7984 10.4646 18.6272 9.81241 18.4008 9.19503C18.7341 9.16219 19.0946 8.96499 19.4092 8.5456C19.756 8.08324 20 7.39868 20 6.60001C20 6.04773 20.4477 5.60001 21 5.60001C21.5523 5.60001 22 6.04773 22 6.60001C22 7.78957 21.6396 8.90501 21.0092 9.7456C20.4952 10.431 19.7706 10.9653 18.9078 11.1395Z" fill="#141B34"/>
<path d="M18.8843 14.8C18.9926 14.1834 19.0492 13.547 19.0492 12.9C19.0492 12.8667 19.0491 12.8333 19.0488 12.8H21C21.5523 12.8 22 13.2477 22 13.8C22 14.3523 21.5523 14.8 21 14.8H18.8843Z" fill="#141B34"/>
<path d="M17.5209 18.4072C17.8753 17.8438 18.1752 17.2271 18.413 16.5716C19.0982 16.8105 19.6778 17.2793 20.1092 17.8544C20.7396 18.695 21.1 19.8105 21.1 21C21.1 21.5523 20.6523 22 20.1 22C19.5477 22 19.1 21.5523 19.1 21C19.1 20.2013 18.856 19.5168 18.5092 19.0544C18.201 18.6435 17.8486 18.4458 17.5209 18.4072Z" fill="#141B34"/>
<path d="M5.58564 16.5721C5.82342 17.2275 6.12332 17.844 6.47764 18.4073C6.1504 18.4464 5.79858 18.6441 5.49081 19.0544C5.14405 19.5168 4.9 20.2013 4.9 21C4.9 21.5523 4.45228 22 3.9 22C3.34771 22 2.9 21.5523 2.9 21C2.9 19.8105 3.26037 18.695 3.89081 17.8544C4.3219 17.2796 4.90107 16.8111 5.58564 16.5721Z" fill="#141B34"/>
<path d="M4.94967 12.8C4.94937 12.8333 4.94922 12.8667 4.94922 12.9C4.94922 13.547 5.00587 14.1834 5.11415 14.8H3C2.44772 14.8 2 14.3523 2 13.8C2 13.2477 2.44772 12.8 3 12.8H4.94967Z" fill="#141B34"/>
<path d="M5.59771 9.19488C5.37131 9.81221 5.20013 10.4644 5.09065 11.1392C4.22856 10.9647 3.50454 10.4306 2.99081 9.7456C2.36037 8.90501 2 7.78957 2 6.60001C2 6.04773 2.44772 5.60001 3 5.60001C3.55228 5.60001 4 6.04773 4 6.60001C4 7.39868 4.24405 8.08324 4.59081 8.5456C4.90488 8.96435 5.26483 9.1616 5.59771 9.19488Z" fill="#141B34"/>
<path d="M8.25609 5.38595L6.74681 3.65782C6.38352 3.24184 6.42622 2.61012 6.8422 2.24683C7.25817 1.88353 7.88989 1.92624 8.25319 2.34221L10.0406 4.3888C9.39907 4.6179 8.80073 4.95684 8.25609 5.38595Z" fill="#141B34"/>
</svg>
