<svg width="24" height="24" viewBox="0 0 24 24" fill="none" xmlns="http://www.w3.org/2000/svg">
<path d="M6 19C4.59373 18.0625 3.80546 16.9647 3.39377 15.9482C3.10599 15.2376 2.96211 14.8823 3.2594 14.4411C3.55669 14 4.0378 14 5 14L19 14C19.9622 14 20.4433 14 20.7406 14.4411C21.0379 14.8823 20.894 15.2376 20.6062 15.9482C20.1945 16.9647 19.4063 18.0625 18 19" stroke="#141B34" stroke-width="1.5" stroke-linecap="round"/>
<path opacity="0.4" d="M17.0016 6.92522L16.3538 7.30314L17.0016 6.92522ZM15.1049 3.67393L15.7527 3.29601L15.1049 3.67393ZM11.8873 3.31006L12.4355 3.82182V3.82182L11.8873 3.31006ZM8.85247 6.56134L8.3042 6.04957L8.3042 6.04957L8.85247 6.56134ZM10.326 10V10.75V10ZM15.2575 10V9.25V10ZM7.05561 9.38447L7.74499 9.08907L7.74499 9.08907L7.05561 9.38447ZM13.6615 2.00476L13.5772 2.75001H13.5772L13.6615 2.00476ZM17.9047 9.48633L18.5571 9.85637L17.9047 9.48633ZM13.25 14C13.25 14.4142 13.5858 14.75 14 14.75C14.4142 14.75 14.75 14.4142 14.75 14H13.25ZM14.75 3C14.75 2.58579 14.4142 2.25 14 2.25C13.5858 2.25 13.25 2.58579 13.25 3L14.75 3ZM17.6494 6.54729L15.7527 3.29601L14.4571 4.05186L16.3538 7.30314L17.6494 6.54729ZM11.339 2.79829L8.3042 6.04957L9.40074 7.0731L12.4355 3.82182L11.339 2.79829ZM10.326 10.75L15.2575 10.75V9.25L10.326 9.25V10.75ZM8.3042 6.04957C7.63453 6.76701 7.07347 7.36535 6.72494 7.86477C6.38923 8.34581 6.06949 8.98738 6.36624 9.67988L7.74499 9.08907C7.77797 9.16604 7.66979 9.13191 7.95502 8.7232C8.22742 8.33286 8.69667 7.8274 9.40074 7.0731L8.3042 6.04957ZM10.326 9.25C9.29827 9.25 8.61258 9.24809 8.145 9.18072C7.65618 9.1103 7.71072 9.00909 7.74499 9.08907L6.36624 9.67988C6.66427 10.3754 7.35178 10.5819 7.93111 10.6654C8.53166 10.7519 9.34927 10.75 10.326 10.75V9.25ZM15.7527 3.29601C15.4512 2.77923 15.1849 2.31894 14.9233 1.99043C14.6506 1.6479 14.2848 1.32046 13.7458 1.25951L13.5772 2.75001C13.5776 2.75005 13.5755 2.7497 13.5733 2.74888C13.5716 2.74822 13.576 2.74957 13.5875 2.75742C13.6139 2.77547 13.6666 2.82022 13.7498 2.92475C13.9275 3.14788 14.1315 3.49376 14.4571 4.05186L15.7527 3.29601ZM12.4355 3.82182C12.8757 3.35021 13.1504 3.05876 13.3724 2.88108C13.4763 2.79789 13.5372 2.76628 13.5665 2.75475C13.5791 2.74975 13.5835 2.74948 13.5815 2.74976C13.5791 2.75011 13.5768 2.74996 13.5772 2.75001L13.7458 1.25951C13.2063 1.1985 12.7768 1.43643 12.435 1.71001C12.1075 1.97217 11.7464 2.3618 11.339 2.79829L12.4355 3.82182ZM16.3538 7.30314C16.7647 8.00739 17.0279 8.46249 17.165 8.80425C17.2306 8.96779 17.2472 9.05888 17.2497 9.1032C17.2507 9.12214 17.2489 9.1276 17.2496 9.12428C17.2499 9.12293 17.2504 9.12095 17.2513 9.11883C17.2521 9.11673 17.2526 9.1158 17.2523 9.11629L18.5571 9.85637C18.8739 9.29773 18.7476 8.72048 18.5571 8.24576C18.3689 7.77662 18.0349 7.20801 17.6494 6.54729L16.3538 7.30314ZM15.2575 10.75C16.0172 10.75 16.674 10.752 17.1718 10.6775C17.6771 10.6019 18.2389 10.4173 18.5571 9.85637L17.2523 9.11629C17.2521 9.11679 17.2526 9.11572 17.2542 9.11377C17.2557 9.1118 17.2574 9.11005 17.2587 9.10879C17.2619 9.10581 17.2591 9.10954 17.2434 9.11766C17.2064 9.13691 17.122 9.16829 16.9498 9.19405C16.5895 9.24797 16.0684 9.25 15.2575 9.25V10.75ZM14.75 14L14.75 3L13.25 3L13.25 14H14.75Z" fill="#141B34"/>
<path d="M2 21.6083C2.79944 22.106 3.83288 22.106 4.65182 21.6083C5.95823 20.7972 7.6546 20.7972 8.9805 21.6083C8.9805 21.6267 9.00001 21.6267 9.00001 21.6267C9.79945 22.1244 10.8524 22.1244 11.6518 21.6267C12.9777 20.8157 14.6741 20.8157 16 21.6267C16.7994 22.1244 17.8329 22.106 18.6518 21.6083C19.6529 20.9868 20.8831 20.8415 22 21.1726" stroke="#141B34" stroke-width="1.5" stroke-linecap="round"/>
</svg>
