<svg width="24" height="24" viewBox="0 0 24 24" fill="none" xmlns="http://www.w3.org/2000/svg">
<g opacity="0.4">
<path d="M12.9964 2.03169C13.1045 1.50289 13.6207 1.16181 14.1495 1.26985C18.2432 2.10629 21.5129 5.20269 22.6257 9.20315C22.6597 9.32458 22.7206 9.54187 22.7397 9.70971C22.7628 9.91221 22.7718 10.3748 22.376 10.7325C21.971 11.0986 21.5001 11.0307 21.3075 10.9862C21.1425 10.9481 20.9615 10.8749 20.8415 10.8263L18.9245 9.95783C18.4331 9.73456 17.8998 9.20315 18.4391 8.66385L19.721 7.38189C18.4145 5.25175 16.2715 3.69832 13.7583 3.1848C13.2295 3.07675 12.8884 2.56049 12.9964 2.03169Z" fill="#141B34"/>
<path d="M5.07423 14.0419C5.5656 14.2652 6.09898 14.7966 5.55968 15.3359L4.27772 16.6179C5.58428 18.748 7.72725 20.3014 10.2405 20.815C10.7693 20.923 11.1104 21.4393 11.0023 21.9681C10.8943 22.4969 10.378 22.8379 9.84923 22.7299C5.75553 21.8935 2.48588 18.7971 1.37304 14.7966C1.33902 14.6752 1.27816 14.4579 1.25905 14.2901C1.236 14.0876 1.22697 13.625 1.62272 13.2673C2.02778 12.9012 2.49865 12.969 2.69122 13.0135C2.85628 13.0517 3.03724 13.1249 3.15727 13.1735L5.07423 14.0419Z" fill="#141B34"/>
</g>
<path d="M9.95795 5.07411C9.73468 5.56548 9.20327 6.09886 8.66397 5.55956L7.38201 4.2776C5.25187 5.58416 3.69844 7.72713 3.18492 10.2404C3.07688 10.7692 2.56061 11.1103 2.03181 11.0022C1.50302 10.8942 1.16193 10.3779 1.26997 9.84911C2.10641 5.75541 5.20282 2.48576 9.20327 1.37292C9.32471 1.33889 9.54198 1.27804 9.70983 1.25893C9.91233 1.23587 10.3749 1.22685 10.7326 1.6226C11.0987 2.02766 11.0309 2.49852 10.9864 2.6911C10.9482 2.85616 10.875 3.03711 10.8264 3.15715L9.95795 5.07411Z" fill="#141B34"/>
<path d="M21.9682 12.9963C22.497 13.1043 22.8381 13.6206 22.73 14.1494C21.8936 18.2431 18.7972 21.5127 14.7967 22.6256C14.6753 22.6596 14.458 22.7205 14.2902 22.7396C14.0877 22.7626 13.6251 22.7717 13.2674 22.3759C12.9013 21.9708 12.9691 21.5 13.0136 21.3074C13.0518 21.1423 13.125 20.9614 13.1736 20.8414L14.042 18.9244C14.2653 18.433 14.7967 17.8996 15.336 18.4389L16.618 19.7209C18.7481 18.4143 20.3016 16.2714 20.8151 13.7581C20.9231 13.2293 21.4394 12.8882 21.9682 12.9963Z" fill="#141B34"/>
<path opacity="0.4" fill-rule="evenodd" clip-rule="evenodd" d="M12 6.5C12.5523 6.5 13 6.94772 13 7.5V8.12602C13.367 8.22048 13.7137 8.36573 14.032 8.55382L14.4749 8.11092C14.8654 7.7204 15.4986 7.7204 15.8891 8.11092C16.2796 8.50145 16.2796 9.13461 15.8891 9.52513L15.4462 9.96804C15.6343 10.2863 15.7795 10.633 15.874 11H16.5C17.0523 11 17.5 11.4477 17.5 12C17.5 12.5523 17.0523 13 16.5 13H15.874C15.7795 13.367 15.6343 13.7137 15.4462 14.032L15.8891 14.4749C16.2796 14.8654 16.2796 15.4986 15.8891 15.8891C15.4986 16.2796 14.8654 16.2796 14.4749 15.8891L14.032 15.4462C13.7137 15.6343 13.367 15.7795 13 15.874V16.5C13 17.0523 12.5523 17.5 12 17.5C11.4477 17.5 11 17.0523 11 16.5V15.874C10.633 15.7795 10.2863 15.6343 9.96804 15.4462L9.52513 15.8891C9.1346 16.2796 8.50144 16.2796 8.11091 15.8891C7.72039 15.4986 7.72039 14.8654 8.11091 14.4749L8.55382 14.032C8.36573 13.7137 8.22048 13.367 8.12602 13H7.5C6.94771 13 6.5 12.5523 6.5 12C6.5 11.4477 6.94772 11 7.5 11L8.12602 11C8.22048 10.633 8.36573 10.2863 8.55382 9.96804L8.11091 9.52513C7.72039 9.13461 7.72039 8.50145 8.11091 8.11092C8.50144 7.7204 9.1346 7.7204 9.52513 8.11092L9.96803 8.55382C10.2863 8.36573 10.633 8.22048 11 8.12602V7.5C11 6.94772 11.4477 6.5 12 6.5ZM10.5838 10.5878C10.5845 10.5871 10.5851 10.5865 10.5858 10.5858C10.5865 10.5851 10.5871 10.5845 10.5878 10.5838C10.9496 10.223 11.4487 10 12 10C12.5513 10 13.0504 10.223 13.4122 10.5838C13.4129 10.5845 13.4135 10.5851 13.4142 10.5858C13.4149 10.5865 13.4155 10.5871 13.4162 10.5878C13.777 10.9496 14 11.4487 14 12C14 13.1046 13.1046 14 12 14C10.8954 14 10 13.1046 10 12C10 11.4487 10.223 10.9496 10.5838 10.5878Z" fill="#141B34"/>
</svg>
