<svg width="24" height="24" viewBox="0 0 24 24" fill="none" xmlns="http://www.w3.org/2000/svg">
<path d="M12 21.5H12H12C16.4783 21.5 18.7175 21.5 20.1088 20.1088C21.5 18.7175 21.5 16.4783 21.5 12V12C21.5 9.88124 21.5 8.26368 21.3527 7H2.64733C2.5 8.26368 2.5 9.88124 2.5 12C2.5 16.4783 2.5 18.7175 3.89124 20.1088C5.28248 21.5 7.52165 21.5 12 21.5Z" fill="#D4D7E0"/>
<path d="M20.1099 3.89124C18.7186 2.5 16.4794 2.5 12.0011 2.5C7.52276 2.5 5.28359 2.5 3.89235 3.89124C3.15932 4.62427 2.81252 5.59269 2.64844 7H21.3538C21.1897 5.59269 20.8429 4.62427 20.1099 3.89124Z" fill="white"/>
<path d="M7 7H17V7.5C17 8.91421 17 9.62132 16.5607 10.0607C16.1213 10.5 15.4142 10.5 14 10.5H10C8.58579 10.5 7.87868 10.5 7.43934 10.0607C7 9.62132 7 8.91421 7 7.5V7Z" fill="white"/>
<path d="M2.5 12C2.5 7.52166 2.5 5.28249 3.89124 3.89124C5.28249 2.5 7.52166 2.5 12 2.5C16.4783 2.5 18.7175 2.5 20.1088 3.89124C21.5 5.28249 21.5 7.52166 21.5 12C21.5 16.4783 21.5 18.7175 20.1088 20.1088C18.7175 21.5 16.4783 21.5 12 21.5C7.52166 21.5 5.28249 21.5 3.89124 20.1088C2.5 18.7175 2.5 16.4783 2.5 12Z" stroke="#141B34" stroke-width="1.5"/>
<path d="M7 7H17V7.5C17 8.91421 17 9.62132 16.5607 10.0607C16.1213 10.5 15.4142 10.5 14 10.5H10C8.58579 10.5 7.87868 10.5 7.43934 10.0607C7 9.62132 7 8.91421 7 7.5V7Z" stroke="#141B34" stroke-width="1.5"/>
<path d="M2.5 7H7.25M21.5 7H16.75" stroke="#141B34" stroke-width="1.5"/>
<path d="M12 14H12.009" stroke="#141B34" stroke-width="2" stroke-linecap="round" stroke-linejoin="round"/>
</svg>
