<svg width="24" height="24" viewBox="0 0 24 24" fill="none" xmlns="http://www.w3.org/2000/svg">
<path d="M19.6052 14H22V20.0199L15.6048 21.9176C15.0791 22.0736 14.5151 22.0063 14.0371 21.7305L6.52154 17.3942C5.98428 17.0842 5.83414 16.3529 6.2029 15.8423C6.71292 15.136 7.59304 14.8352 8.40723 15.0889L13 16.5L13.1069 16.5449C13.3599 15.8629 14.034 15.3751 14.8259 15.3751H15.8685C16.1627 15.3751 16.4528 15.3089 16.7159 15.1816L18.7578 14.1936C19.0209 14.0663 19.311 14 19.6052 14Z" fill="#D4D7E0"/>
<path d="M14 4.0017L11.5777 2.78023C9.82208 1.92788 8.94427 2.0016 8 2.0016C5.96877 2.0016 4.5 3.5017 2 4.5017V11.0016C4.14773 11.0016 5.80191 10.5641 6.89876 10.1416C8.3786 9.57151 9.11856 9.28645 9.30601 9.23438C9.49345 9.18231 9.73677 9.13918 10.2234 9.05291L12.2693 8.69023C12.7389 8.60698 13.1349 8.23505 13.0414 7.81873C12.8958 7.1696 12.3233 6.66217 11.5909 6.53305C11.4126 6.5016 11.1981 6.5016 10.7692 6.5016H10.0355C10.8895 5.02544 12.3861 4.00215 14 4.0017Z" fill="#D4D7E0"/>
<path d="M22 14H19.6052C19.311 14 19.0209 14.0663 18.7578 14.1936L16.7159 15.1816C16.4528 15.3089 16.1627 15.3751 15.8685 15.3751H14.8259C13.8175 15.3751 13 16.1662 13 17.142C13 17.1814 13.027 17.2161 13.0662 17.2269L15.6071 17.9295C16.0629 18.0555 16.551 18.0116 16.975 17.8064L19.1579 16.7503M13 16.5L8.40723 15.0889C7.59304 14.8352 6.71292 15.136 6.2029 15.8423C5.83414 16.3529 5.98428 17.0842 6.52154 17.3942L14.0371 21.7305C14.5151 22.0063 15.0791 22.0736 15.6048 21.9176L22 20.0199" stroke="#141B34" stroke-width="1.5" stroke-linecap="round" stroke-linejoin="round"/>
<circle cx="13.7344" cy="8.5" r="4.5" fill="white"/>
<path d="M13.4624 4C15.9685 4 18 6.01472 18 8.5C18 10.9853 15.9685 13 13.4624 13C11.2388 13 9.38874 11.4138 9 9.32009" stroke="#141B34" stroke-width="1.5" stroke-linecap="round"/>
<path d="M1.72146 3.80535C1.33687 3.95919 1.14981 4.39566 1.30364 4.78025C1.45748 5.16484 1.89396 5.3519 2.27854 5.19807L1.72146 3.80535ZM11.5777 2.78024L11.9154 2.11049L11.9053 2.10555L11.5777 2.78024ZM14 4.00171L14.0002 4.75171C14.3475 4.75161 14.6493 4.51307 14.7297 4.17517C14.81 3.83726 14.6478 3.48842 14.3377 3.33203L14 4.00171ZM8.28515 5.75161C7.87094 5.75161 7.53515 6.0874 7.53515 6.50161C7.53515 6.91582 7.87094 7.25161 8.28515 7.25161V5.75161ZM12.2693 8.69023L12.1384 7.95175L12.2693 8.69023ZM10.2234 9.05292L10.3543 9.7914H10.3543L10.2234 9.05292ZM6.89876 10.1416L7.16837 10.8415L6.89876 10.1416ZM2 10.2516C1.58579 10.2516 1.25 10.5874 1.25 11.0016C1.25 11.4158 1.58579 11.7516 2 11.7516V10.2516ZM9.30601 9.23438L9.10527 8.51174L9.10527 8.51175L9.30601 9.23438ZM11.5909 6.53305L11.7212 5.79444L11.7212 5.79444L11.5909 6.53305ZM13.0414 7.81873L13.7732 7.65451V7.65451L13.0414 7.81873ZM11.24 3.44991L13.6623 4.67138L14.3377 3.33203L11.9154 2.11056L11.24 3.44991ZM11.9053 2.10555C10.9732 1.65302 10.244 1.43211 9.6018 1.3305C8.97161 1.2308 8.44193 1.25161 8 1.25161V2.75161C8.50235 2.75161 8.8837 2.73555 9.3674 2.81208C9.83905 2.8867 10.4266 3.0551 11.2501 3.45493L11.9053 2.10555ZM12.1384 7.95175L10.0925 8.31443L10.3543 9.7914L12.4002 9.42872L12.1384 7.95175ZM6.62914 9.44174C5.60696 9.83553 4.0441 10.2516 2 10.2516V11.7516C4.25136 11.7516 5.99687 11.2928 7.16837 10.8415L6.62914 9.44174ZM10.0925 8.31443C9.62453 8.39738 9.33627 8.44758 9.10527 8.51174L9.50674 9.95702C9.65063 9.91705 9.849 9.88098 10.3543 9.7914L10.0925 8.31443ZM7.16837 10.8415C7.90923 10.5561 8.46178 10.3432 8.85273 10.1951C9.04832 10.121 9.20041 10.0643 9.31382 10.0233C9.37051 10.0028 9.41534 9.98703 9.44979 9.97538C9.46691 9.96959 9.48036 9.96519 9.4906 9.96195C9.49566 9.96035 9.49955 9.95915 9.50242 9.95829C9.50383 9.95787 9.5049 9.95755 9.50565 9.95733C9.50641 9.95711 9.50676 9.95702 9.50674 9.95702L9.10527 8.51175C8.87149 8.57669 8.07393 8.88516 6.62914 9.44174L7.16837 10.8415ZM10.7692 7.25161C11.2302 7.25161 11.3633 7.25449 11.4607 7.27166L11.7212 5.79444C11.4619 5.74873 11.1661 5.75161 10.7692 5.75161V7.25161ZM11.4607 7.27166C11.9401 7.35617 12.2397 7.67135 12.3097 7.98296L13.7732 7.65451C13.5518 6.66786 12.7065 5.96817 11.7212 5.79444L11.4607 7.27166ZM12.4002 9.42872C12.7783 9.36169 13.1458 9.17743 13.4131 8.8929C13.6866 8.60181 13.8868 8.16056 13.7732 7.65451L12.3097 7.98296C12.3018 7.94797 12.305 7.91115 12.3142 7.88335C12.3221 7.85938 12.3299 7.85524 12.3199 7.86587C12.3099 7.87646 12.2888 7.89455 12.2542 7.9126C12.2201 7.93041 12.1801 7.94435 12.1384 7.95175L12.4002 9.42872ZM8.28515 7.25161H10.0355V5.75161H8.28515V7.25161ZM10.0355 7.25161H10.7692V5.75161H10.0355V7.25161ZM13.9998 3.25171C12.0634 3.25224 10.3444 4.46994 9.3863 6.12604L10.6847 6.87718C11.4346 5.58096 12.7088 4.75206 14.0002 4.75171L13.9998 3.25171ZM2.27854 5.19807C3.58013 4.67743 4.65127 4.00838 5.52989 3.5378C6.43882 3.05099 7.1772 2.75161 8 2.75161V1.25161C6.79156 1.25161 5.77995 1.70228 4.82168 2.21552C3.83311 2.74498 2.91987 3.32599 1.72146 3.80535L2.27854 5.19807Z" fill="#141B34"/>
</svg>
