<svg width="24" height="24" viewBox="0 0 24 24" fill="none" xmlns="http://www.w3.org/2000/svg">
<path d="M8 8C9.14458 9.2634 10.5202 10 12 10V14C9.83829 14 7.82471 13.3014 6.13515 12.0979C6.08987 12.0656 6.04482 12.033 6 12L5.58594 11.6211L8 8Z" fill="white"/>
<path d="M12 10C13.4798 10 14.8554 9.2634 16 8L12 2L8 8C9.14458 9.2634 10.5202 10 12 10Z" fill="#D4D7E0"/>
<path d="M12 22V2M12 2L22 17M12 2L2 17" stroke="#141B34" stroke-width="1.5" stroke-linecap="round" stroke-linejoin="round"/>
<path d="M12 22V2M12 2L22 17M12 2L2 17" stroke="#141B34" stroke-width="1.5" stroke-linecap="round" stroke-linejoin="round"/>
<path d="M16 8C14.8554 9.2634 13.4798 10 12 10C10.5202 10 9.14458 9.2634 8 8" stroke="#141B34" stroke-width="1.5" stroke-linecap="round" stroke-linejoin="round"/>
<path d="M16 8C14.8554 9.2634 13.4798 10 12 10C10.5202 10 9.14458 9.2634 8 8" stroke="#141B34" stroke-width="1.5" stroke-linecap="round" stroke-linejoin="round"/>
<path d="M16 8C14.8554 9.2634 13.4798 10 12 10C10.5202 10 9.14458 9.2634 8 8" stroke="#141B34" stroke-width="1.5" stroke-linecap="round" stroke-linejoin="round"/>
<path d="M12 14C9.83829 14 7.82471 13.3014 6.13515 12.0979C6.08987 12.0656 6.04482 12.033 6 12" stroke="#141B34" stroke-width="1.5" stroke-linecap="round" stroke-linejoin="round"/>
</svg>
