<svg width="24" height="24" viewBox="0 0 24 24" fill="none" xmlns="http://www.w3.org/2000/svg">
<path d="M11.3253 8.60109L7.18195 11.6567C6.94133 11.8342 6.94133 12.1658 7.18195 12.3433L11.3253 15.3989C11.6466 15.6358 12.1289 15.4298 12.1289 15.0557V12V8.94435C12.1289 8.57019 11.6466 8.36416 11.3253 8.60109Z" fill="#D4D7E0"/>
<path d="M4.75 6C4.75 5.58579 4.41421 5.25 4 5.25C3.58579 5.25 3.25 5.58579 3.25 6L4.75 6ZM3.25 18C3.25 18.4142 3.58579 18.75 4 18.75C4.41421 18.75 4.75 18.4142 4.75 18L3.25 18ZM3.25 6L3.25 18L4.75 18L4.75 6L3.25 6Z" fill="#141B34"/>
<path d="M12.1294 12V8.94435C12.1294 8.57019 11.647 8.36416 11.3258 8.60109L7.18241 11.6567C6.9418 11.8342 6.9418 12.1658 7.18241 12.3433L11.3258 15.3989C11.647 15.6358 12.1294 15.4298 12.1294 15.0557V12ZM12.1294 12H20.002" stroke="#141B34" stroke-width="1.5" stroke-linecap="round" stroke-linejoin="round"/>
</svg>
