<svg width="24" height="24" viewBox="0 0 24 24" fill="none" xmlns="http://www.w3.org/2000/svg">
<path d="M5 9C5 6.19108 5 4.78661 5.67412 3.77772C5.96596 3.34096 6.34096 2.96596 6.77772 2.67412C7.78661 2 9.19108 2 12 2C14.8089 2 16.2134 2 17.2223 2.67412C17.659 2.96596 18.034 3.34096 18.3259 3.77772C19 4.78661 19 6.19108 19 9V11C19 13.8089 19 15.2134 18.3259 16.2223C18.034 16.659 17.659 17.034 17.2223 17.3259C16.2134 18 14.8089 18 12 18C9.19108 18 7.78661 18 6.77772 17.3259C6.34096 17.034 5.96596 16.659 5.67412 16.2223C5 15.2134 5 13.8089 5 11V9Z" fill="#D4D7E0"/>
<path d="M17.2225 2.67412C16.2136 2 14.8092 2 12.0003 2C9.19133 2 7.78687 2 6.77797 2.67412C6.34121 2.96596 5.96621 3.34096 5.67437 3.77772C5.15115 4.56078 5.03403 5.58215 5.00781 7.31355C5.00781 7.31355 7.67241 6.00782 9.50025 6C11.7857 5.99022 12.72 7.84568 15.0003 8C16.5689 8.10616 18.9951 7.5 18.9951 7.5C18.9743 5.65471 18.8679 4.58849 18.3261 3.77772C18.0343 3.34096 17.6593 2.96596 17.2225 2.67412Z" fill="white"/>
<path d="M5 9C5 6.19108 5 4.78661 5.67412 3.77772C5.96596 3.34096 6.34096 2.96596 6.77772 2.67412C7.78661 2 9.19108 2 12 2C14.8089 2 16.2134 2 17.2223 2.67412C17.659 2.96596 18.034 3.34096 18.3259 3.77772C19 4.78661 19 6.19108 19 9V11C19 13.8089 19 15.2134 18.3259 16.2223C18.034 16.659 17.659 17.034 17.2223 17.3259C16.2134 18 14.8089 18 12 18C9.19108 18 7.78661 18 6.77772 17.3259C6.34096 17.034 5.96596 16.659 5.67412 16.2223C5 15.2134 5 13.8089 5 11V9Z" stroke="#141B34" stroke-width="1.5" stroke-linejoin="round"/>
<path d="M5 7.37225C13 3.24278 11.5 10.0046 19 7.37228" stroke="#141B34" stroke-width="1.5" stroke-linecap="round"/>
<path d="M12.0142 10L10.5736 11.4876C9.79996 12.3003 9.81331 13.6088 10.587 14.4077C11.3739 15.2066 12.6411 15.1928 13.4148 14.3939C14.2017 13.5812 14.1884 12.2727 13.4148 11.4738L12.0142 10Z" fill="white"/>
<path d="M12.0142 10L10.5736 11.4876C9.79996 12.3003 9.81331 13.6088 10.587 14.4077C11.3739 15.2066 12.6411 15.1928 13.4148 14.3939C14.2017 13.5812 14.1884 12.2727 13.4148 11.4738L12.0142 10Z" stroke="#141B34" stroke-width="1.5" stroke-linejoin="round"/>
<path d="M8 22C10.2091 22 12 20.2091 12 18" stroke="#141B34" stroke-width="1.5" stroke-linecap="round" stroke-linejoin="round"/>
</svg>
