<svg width="24" height="24" viewBox="0 0 24 24" fill="none" xmlns="http://www.w3.org/2000/svg">
<circle cx="12" cy="12" r="10" fill="#D4D7E0"/>
<path d="M11.5938 12V8.61228C11.5938 7.66908 11.5938 7.19748 11.8878 7.0428C12.1819 6.88812 12.5574 7.16224 13.3084 7.71046L14.1537 8.32755C14.7169 8.73866 14.9984 8.94421 14.9984 9.22937C14.9984 9.51453 14.7169 9.72009 14.1537 10.1312L11.5938 12L14.1537 13.8688C14.7169 14.2799 14.9984 14.4855 14.9984 14.7706C14.9984 15.0558 14.7169 15.2613 14.1537 15.6725L13.3084 16.2895C12.5574 16.8378 12.1819 17.1119 11.8878 16.9572C11.5938 16.8025 11.5938 16.3309 11.5938 15.3877V12Z" fill="white"/>
<circle cx="12" cy="12" r="10" stroke="#141B34" stroke-width="1.5"/>
<path d="M11.5953 12V8.61228C11.5953 7.66908 11.5953 7.19748 11.8894 7.0428C12.1835 6.88812 12.559 7.16224 13.31 7.71046L14.1553 8.32755C14.7184 8.73866 15 8.94421 15 9.22937C15 9.51453 14.7184 9.72009 14.1553 10.1312L11.5953 12ZM11.5953 12V15.3877C11.5953 16.3309 11.5953 16.8025 11.8894 16.9572C12.1835 17.1119 12.559 16.8378 13.31 16.2895L14.1553 15.6725C14.7184 15.2613 15 15.0558 15 14.7706C15 14.4855 14.7184 14.2799 14.1553 13.8688L11.5953 12ZM11.5953 12L9 9.77778M11.5953 12L9 14.2222" stroke="#141B34" stroke-width="1.5" stroke-linecap="round" stroke-linejoin="round"/>
</svg>
