<svg width="24" height="24" viewBox="0 0 24 24" fill="none" xmlns="http://www.w3.org/2000/svg">
<path d="M12 12V6.66586C12 4.80386 12 3.87286 12.5853 3.578C13.1706 3.28313 13.9098 3.84173 15.3882 4.95893L16.0941 5.49234C17.1294 6.27468 17.6471 6.66586 17.6471 7.19927C17.6471 7.73268 17.1294 8.12386 16.0941 8.9062L12 12L16.0941 15.0938C17.1294 15.8761 17.6471 16.2673 17.6471 16.8007C17.6471 17.3341 17.1294 17.7253 16.0941 18.5077L15.3882 19.0411C13.9098 20.1583 13.1706 20.7169 12.5853 20.422C12 20.1271 12 19.1961 12 17.3341V12Z" fill="#D4D7E0"/>
<path d="M12.0014 12V6.66586C12.0014 4.80386 12.0014 3.87286 12.5867 3.578C13.172 3.28313 13.9112 3.84173 15.3896 4.95893L16.0955 5.49234C17.1308 6.27468 17.6484 6.66586 17.6484 7.19927C17.6484 7.73268 17.1308 8.12386 16.0955 8.9062L12.0014 12ZM12.0014 12V17.3341C12.0014 19.1961 12.0014 20.1271 12.5867 20.422C13.172 20.7169 13.9112 20.1583 15.3896 19.0411L16.0955 18.5077C17.1308 17.7253 17.6484 17.3341 17.6484 16.8007C17.6484 16.2673 17.1308 15.8761 16.0955 15.0938L12.0014 12ZM12.0014 12L5.64844 7.19927M12.0014 12L5.64844 16.8007" stroke="#141B34" stroke-width="1.5" stroke-linecap="round" stroke-linejoin="round"/>
<path d="M18.9998 12H19.0088" stroke="#141B34" stroke-width="2" stroke-linecap="round" stroke-linejoin="round"/>
<path d="M4.99981 12H5.00879" stroke="#141B34" stroke-width="2" stroke-linecap="round" stroke-linejoin="round"/>
</svg>
