<svg width="24" height="24" viewBox="0 0 24 24" fill="none" xmlns="http://www.w3.org/2000/svg">
<path d="M12 2H6C3.518 2 3 2.518 3 5V22H15V9V5C15 2.518 14.482 2 12 2Z" fill="#D4D7E0"/>
<path d="M18 9H14C11.518 9 11 9.518 11 12V22H21V12C21 9.518 20.482 9 18 9Z" fill="white"/>
<path d="M2 22H22" stroke="#141B34" stroke-width="1.5" stroke-linecap="round"/>
<path d="M18 9H14C11.518 9 11 9.518 11 12V22H21V12C21 9.518 20.482 9 18 9Z" stroke="#141B34" stroke-width="1.5" stroke-linejoin="round"/>
<path d="M15 22H3V5C3 2.518 3.518 2 6 2H12C14.482 2 15 2.518 15 5V9" stroke="#141B34" stroke-width="1.5" stroke-linejoin="round"/>
<path d="M3 6H6M3 10H6M3 14H6" stroke="#141B34" stroke-width="1.5" stroke-linecap="round"/>
<path d="M15 13H17M15 16H17" stroke="#141B34" stroke-width="1.5" stroke-linecap="round"/>
<path d="M16 22L16 19" stroke="#141B34" stroke-width="1.5" stroke-linecap="round" stroke-linejoin="round"/>
</svg>
