<svg width="24" height="24" viewBox="0 0 24 24" fill="none" xmlns="http://www.w3.org/2000/svg">
<path d="M2 19.882V17L6.5 18V19.882C6.5 20.2607 6.25925 20.607 5.87812 20.7764C5.63082 20.8863 5.39461 21 5.10942 21H3.39058C3.10538 21 2.86918 20.8863 2.62188 20.7764C2.24075 20.607 2 20.2607 2 19.882Z" fill="white"/>
<path d="M2 17V19.882C2 20.2607 2.24075 20.607 2.62188 20.7764C2.86918 20.8863 3.10538 21 3.39058 21H5.10942C5.39462 21 5.63082 20.8863 5.87812 20.7764C6.25925 20.607 6.5 20.2607 6.5 19.882V18" stroke="#141B34" stroke-width="1.5" stroke-linecap="round" stroke-linejoin="round"/>
<path d="M17.5 19.882V18L22 17V19.882C22 20.2607 21.7592 20.607 21.3781 20.7764C21.1308 20.8863 20.8946 21 20.6094 21H18.8906C18.6054 21 18.3692 20.8863 18.1219 20.7764C17.7408 20.607 17.5 20.2607 17.5 19.882Z" fill="white"/>
<path d="M17.5 18V19.882C17.5 20.2607 17.7408 20.607 18.1219 20.7764C18.3692 20.8863 18.6054 21 18.8906 21H20.6094C20.8946 21 21.1308 20.8863 21.3781 20.7764C21.7592 20.607 22 20.2607 22 19.882V17" stroke="#141B34" stroke-width="1.5" stroke-linecap="round" stroke-linejoin="round"/>
<path d="M4.5 9H19.5C20.4572 10.0135 22 11.4249 22 12.9996V16.4702C22 17.0407 21.6205 17.5208 21.1168 17.5875L18 18H6L2.88316 17.5875C2.37955 17.5208 2 17.0407 2 16.4702V12.9996C2 11.4249 3.54279 10.0135 4.5 9Z" fill="#D4D7E0"/>
<path d="M8.24567 16.8858L8 17.5H16L15.7543 16.8858C15.389 15.9725 15.2063 15.5158 14.8254 15.2579C14.4445 15 13.9526 15 12.9689 15H11.0311C10.0474 15 9.55553 15 9.17461 15.2579C8.79368 15.5158 8.61101 15.9725 8.24567 16.8858Z" fill="white"/>
<path d="M4.5 9H19.5C20.4572 10.0135 22 11.4249 22 12.9996V16.4702C22 17.0407 21.6205 17.5208 21.1168 17.5875L18 18H6L2.88316 17.5875C2.37955 17.5208 2 17.0407 2 16.4702V12.9996C2 11.4249 3.54279 10.0135 4.5 9Z" stroke="#141B34" stroke-width="1.5" stroke-linejoin="round"/>
<path d="M8 17.5L8.24567 16.8858C8.61101 15.9725 8.79368 15.5158 9.17461 15.2579C9.55553 15 10.0474 15 11.0311 15H12.9689C13.9526 15 14.4445 15 14.8254 15.2579C15.2063 15.5158 15.389 15.9725 15.7543 16.8858L16 17.5" stroke="#141B34" stroke-width="1.5" stroke-linecap="round" stroke-linejoin="round"/>
<path d="M2.5 12L4.5 13" stroke="#141B34" stroke-width="1.5" stroke-linecap="round" stroke-linejoin="round"/>
<path d="M21.5 12.5L19.5 13" stroke="#141B34" stroke-width="1.5" stroke-linecap="round" stroke-linejoin="round"/>
<path d="M20 8.5L21 8" stroke="#141B34" stroke-width="1.5" stroke-linecap="round" stroke-linejoin="round"/>
<path d="M4 8.5L3 8" stroke="#141B34" stroke-width="1.5" stroke-linecap="round" stroke-linejoin="round"/>
<path d="M6.2257 4.49011L5 9H19L17.7743 4.49011C17.6617 4.19009 17.4429 3.93951 17.1346 3.82716C14.1078 2.72428 9.89221 2.72428 6.86544 3.82716C6.55708 3.93951 6.33828 4.19009 6.2257 4.49011Z" fill="white"/>
<path d="M5.5883 5.73509L4.5 9H19.5L18.4117 5.73509C17.9717 4.41505 17.7517 3.75503 17.2279 3.37752C16.7041 3 16.0084 3 14.617 3H9.38304C7.99159 3 7.29587 3 6.7721 3.37752C6.24832 3.75503 6.02832 4.41505 5.5883 5.73509Z" stroke="#141B34" stroke-width="1.5" stroke-linejoin="round"/>
</svg>
