<svg width="24" height="24" viewBox="0 0 24 24" fill="none" xmlns="http://www.w3.org/2000/svg">
<path d="M14 2H10C6.72077 2 5.08116 2 3.91891 2.81382C3.48891 3.1149 3.1149 3.48891 2.81382 3.91891C2 5.08116 2 6.72077 2 10C2 13.2792 2 14.9188 2.81382 16.0811C3.1149 16.5111 3.48891 16.8851 3.91891 17.1862C5.08116 18 6.72077 18 10 18H14C17.2792 18 18.9188 18 20.0811 17.1862C20.5111 16.8851 20.8851 16.5111 21.1862 16.0811C22 14.9188 22 13.2792 22 10C22 6.72077 22 5.08116 21.1862 3.91891C20.8851 3.48891 20.5111 3.1149 20.0811 2.81382C18.9188 2 17.2792 2 14 2Z" fill="#D4D7E0"/>
<path d="M12 5.0625C12 3.61882 12 2.89699 12.5126 2.44849C13.0251 2 13.8501 2 15.5 2H16C17.6499 2 18.4749 2 18.9874 2.44849C19.5 2.89699 19.5 3.61882 19.5 5.0625V5.9375C19.5 7.38118 19.5 8.10301 18.9874 8.55151C18.4749 9 17.6499 9 16 9H15.5C13.8501 9 13.0251 9 12.5126 8.55151C12 8.10301 12 7.38118 12 5.9375V5.0625Z" fill="white"/>
<path d="M19.5 5.9375V5.0625V4.22396C19.5 4.1752 19.5234 4.1294 19.563 4.10086C20.6208 3.3371 21.1498 2.95522 21.5749 3.13961C22 3.324 22 3.9353 22 5.15791V5.84209C22 7.06469 22 7.676 21.5749 7.86039C21.1498 8.04478 20.6208 7.6629 19.563 6.89914L19.5 6.85369V5.9375Z" fill="white"/>
<path d="M11 15H13" stroke="#141B34" stroke-width="1.5" stroke-linecap="round" stroke-linejoin="round"/>
<path d="M12 18V22" stroke="#141B34" stroke-width="1.5"/>
<path d="M8 22H16" stroke="#141B34" stroke-width="1.5" stroke-linecap="round"/>
<path d="M9 2C6.37454 2.00836 4.9565 2.08628 3.91891 2.81281C3.48891 3.1139 3.1149 3.4879 2.81382 3.9179C2 5.08015 2 6.71977 2 9.999C2 13.2782 2 14.9178 2.81382 16.0801C3.1149 16.5101 3.48891 16.8841 3.91891 17.1852C5.08116 17.999 6.72077 17.999 10 17.999H14C17.2792 17.999 18.9188 17.999 20.0811 17.1852C20.5111 16.8841 20.8851 16.5101 21.1862 16.0801C21.9127 15.0425 21.9906 13.6245 21.999 10.999" stroke="#141B34" stroke-width="1.5" stroke-linecap="round"/>
<path d="M19.5 4.14631L19.563 4.10086C20.6208 3.3371 21.1498 2.95522 21.5749 3.13961C22 3.324 22 3.9353 22 5.15791V5.84209C22 7.0647 22 7.676 21.5749 7.86039C21.1498 8.04478 20.6208 7.6629 19.563 6.89914L19.5 6.85369M15.5 9H16C17.6499 9 18.4749 9 18.9874 8.55151C19.5 8.10301 19.5 7.38118 19.5 5.9375V5.0625C19.5 3.61882 19.5 2.89699 18.9874 2.44849C18.4749 2 17.6499 2 16 2H15.5C13.8501 2 13.0251 2 12.5126 2.44849C12 2.89699 12 3.61882 12 5.0625V5.9375C12 7.38118 12 8.10301 12.5126 8.55151C13.0251 9 13.8501 9 15.5 9Z" stroke="#141B34" stroke-width="1.5" stroke-linecap="round"/>
</svg>
