<svg width="24" height="24" viewBox="0 0 24 24" fill="none" xmlns="http://www.w3.org/2000/svg">
<path d="M14 2H10C6.72077 2 5.08116 2 3.91891 2.81382C3.48891 3.1149 3.1149 3.48891 2.81382 3.91891C2 5.08116 2 6.72077 2 10C2 13.2792 2 14.9188 2.81382 16.0811C3.1149 16.5111 3.48891 16.8851 3.91891 17.1862C5.08116 18 6.72077 18 10 18H14C17.2792 18 18.9188 18 20.0811 17.1862C20.5111 16.8851 20.8851 16.5111 21.1862 16.0811C22 14.9188 22 13.2792 22 10C22 6.72077 22 5.08116 21.1862 3.91891C20.8851 3.48891 20.5111 3.1149 20.0811 2.81382C18.9188 2 17.2792 2 14 2Z" fill="#D4D7E0"/>
<path d="M10.014 2C6.23617 2 4.34725 2 3.17362 3.17157C2 4.34315 2 6.22876 2 10C2 13.7712 2 15.6569 3.17362 16.8284C4.34725 18 6.23617 18 10.014 18H14.021C17.7989 18 19.6878 18 20.8614 16.8284C21.671 16.0203 21.9221 14.8723 22 13" stroke="#141B34" stroke-width="1.5" stroke-linecap="round"/>
<path d="M12 18V22" stroke="#141B34" stroke-width="1.5"/>
<path d="M8 22H16" stroke="#141B34" stroke-width="1.5" stroke-linecap="round"/>
<path d="M11 15H13" stroke="#141B34" stroke-width="1.5" stroke-linecap="round" stroke-linejoin="round"/>
<path d="M17.4991 2C16.0744 2 15.1506 2.90855 14.0581 3.23971C13.6138 3.37436 13.3917 3.44168 13.3018 3.53659C13.2119 3.6315 13.1856 3.77019 13.133 4.04756C12.5696 7.0157 13.801 9.75979 16.7375 10.8279C17.053 10.9426 17.2108 11 17.5007 11C17.7906 11 17.9484 10.9426 18.2639 10.8279C21.2002 9.75978 22.4304 7.01569 21.8669 4.04756C21.8142 3.77014 21.7879 3.63143 21.698 3.53652C21.6081 3.44161 21.386 3.37432 20.9418 3.23974C19.8488 2.90862 18.9239 2 17.4991 2Z" fill="white"/>
<path d="M17.4991 2C16.0744 2 15.1506 2.90855 14.0581 3.23971C13.6138 3.37436 13.3917 3.44168 13.3018 3.53659C13.2119 3.6315 13.1856 3.77019 13.133 4.04756C12.5696 7.0157 13.801 9.75979 16.7375 10.8279C17.053 10.9426 17.2108 11 17.5007 11C17.7906 11 17.9484 10.9426 18.2639 10.8279C21.2002 9.75978 22.4304 7.01569 21.8669 4.04756C21.8142 3.77014 21.7879 3.63143 21.698 3.53652C21.6081 3.44161 21.386 3.37432 20.9418 3.23974C19.8488 2.90862 18.9239 2 17.4991 2Z" stroke="#141B34" stroke-width="1.5" stroke-linecap="round" stroke-linejoin="round"/>
</svg>
