<svg width="24" height="24" viewBox="0 0 24 24" fill="none" xmlns="http://www.w3.org/2000/svg">
<path d="M11 21.9981C15.4183 21.9981 19 20.6549 19 18.9981V13.0019C9.8 17.0019 4.5 14.334 3 12.5V18.9981C3 20.6549 6.58172 21.9981 11 21.9981Z" fill="#D4D7E0"/>
<path d="M19 6C12.6 9.56705 5.66667 7.48627 3 6V12.4386C4.5 14.2558 11.5 16.8993 19 12.9359V6Z" fill="white"/>
<path d="M19 4.99619C11.8 -0.203811 5.33333 2.82952 3 4.99619V6C5.66667 7.5 12.6 9.6 19 6V4.99619Z" fill="#D4D7E0"/>
<path d="M17.4723 22C15.5546 22 14 20.433 14 18.5C14 16.567 15.5546 15 17.4723 15C19.7898 15 21.4838 16.9434 20.8752 19.2C20.5534 20.7976 19.1522 22 17.4723 22Z" fill="white"/>
<path d="M3 12C3 13.6569 6.58172 15 11 15C11.3387 15 11.6724 14.9921 12 14.9768" stroke="#141B34" stroke-width="1.5" stroke-linecap="round"/>
<path d="M19 5V11.5M3 5V19C3 20.6569 6.58172 22 11 22C11.3387 22 11.6724 21.9921 12 21.9768" stroke="#141B34" stroke-width="1.5" stroke-linecap="round"/>
<ellipse cx="11" cy="5" rx="8" ry="3" stroke="#141B34" stroke-width="1.5"/>
<path d="M7 8V10" stroke="#141B34" stroke-width="1.5" stroke-linecap="round"/>
<path d="M7 15V17" stroke="#141B34" stroke-width="1.5" stroke-linecap="round"/>
<path d="M19.9868 14L20.4861 16.0844L19.6566 15.5661C19.0657 15.1173 18.3313 14.8512 17.5354 14.8512C15.5828 14.8512 14 16.4515 14 18.4256C14 20.3997 15.5828 22 17.5354 22C19.2457 22 20.6724 20.772 21 19.1405" stroke="#141B34" stroke-width="1.5" stroke-linecap="round" stroke-linejoin="round"/>
</svg>
