<svg width="24" height="24" viewBox="0 0 24 24" fill="none" xmlns="http://www.w3.org/2000/svg">
<ellipse cx="11" cy="5" rx="8" ry="3" fill="white"/>
<path d="M11 8C15.4183 8 19 6.65685 19 5V19C19 20.6569 15.4183 22 11 22C6.58172 22 3 20.6569 3 19V5C3 6.65685 6.58172 8 11 8Z" fill="#D4D7E0"/>
<path d="M19.7732 15.7202C19.1754 14.8574 18.1562 14.2891 16.9993 14.2891C15.8425 14.2891 14.8233 14.8574 14.2255 15.7202C13.8721 16.2305 13.666 16.8437 13.666 17.5033C13.666 18.1631 13.8721 18.7764 14.2257 19.2867C14.8234 20.1494 15.8426 20.7176 16.9993 20.7176C18.1561 20.7176 19.1753 20.1494 19.773 19.2867C20.1266 18.7764 20.3327 18.1631 20.3327 17.5033C20.3327 16.8437 20.1266 16.2305 19.7732 15.7202Z" fill="white"/>
<ellipse cx="11" cy="5" rx="8" ry="3" stroke="#141B34" stroke-width="1.5"/>
<path d="M6 10.8438C6.60158 11.0246 7.27434 11.1735 8 11.2837" stroke="#141B34" stroke-width="1.5" stroke-linecap="round"/>
<path d="M3 12C3 13.5299 6.05369 14.7923 10 14.9768" stroke="#141B34" stroke-width="1.5" stroke-linecap="round"/>
<path d="M6 17.8438C6.60158 18.0246 7.27434 18.1735 8 18.2837" stroke="#141B34" stroke-width="1.5" stroke-linecap="round"/>
<path d="M11 22C6.58172 22 3 20.6569 3 19V5M19 5V11" stroke="#141B34" stroke-width="1.5" stroke-linecap="round" stroke-linejoin="round"/>
<path d="M17 20.7143V22M17 20.7143C15.8432 20.7143 14.8241 20.1461 14.2263 19.2833M17 20.7143C18.1568 20.7143 19.1759 20.1461 19.7737 19.2833M17 14.2857C18.1569 14.2857 19.1761 14.854 19.7738 15.7169M17 14.2857C15.8431 14.2857 14.8239 14.854 14.2262 15.7169M17 14.2857V13M21 14.9286L19.7738 15.7169M13.0004 20.0714L14.2263 19.2833M13 14.9286L14.2262 15.7169M20.9996 20.0714L19.7737 19.2833M19.7738 15.7169C20.1273 16.2271 20.3333 16.8403 20.3333 17.5C20.3333 18.1597 20.1272 18.773 19.7737 19.2833M14.2262 15.7169C13.8727 16.2271 13.6667 16.8403 13.6667 17.5C13.6667 18.1597 13.8728 18.773 14.2263 19.2833" stroke="#141B34" stroke-width="1.5" stroke-linecap="round"/>
</svg>
