<svg width="24" height="24" viewBox="0 0 24 24" fill="none" xmlns="http://www.w3.org/2000/svg">
<path d="M20.2468 15.4084C17.8334 19.6833 13.7384 19.7194 10.3421 17.714C6.94584 15.7086 5.90136 12.8416 8.31471 8.56663C10.728 4.29169 15.7723 0.510679 19.2863 2.58555C22.8003 4.66043 22.6601 11.1334 20.2468 15.4084Z" fill="white"/>
<path d="M15 15.5C15 19.9183 12.0899 22 8.5 22C4.91015 22 2 19.9183 2 15.5C2 11.0817 4.78571 6 8.5 6C12.2143 6 15 11.0817 15 15.5Z" fill="#D4D7E0"/>
<path d="M12 4.31768C14.2461 2.34541 17.0188 1.33526 19.1747 2.48374C22.5319 4.27221 22.7145 10.4012 20.684 14.5638C19.8309 16.3126 18.7032 17.4255 17.4415 18" stroke="#141B34" stroke-width="1.5" stroke-linecap="round"/>
<path d="M15 15.5C15 19.9183 12.0899 22 8.5 22C4.91015 22 2 19.9183 2 15.5C2 11.0817 4.78571 6 8.5 6C12.2143 6 15 11.0817 15 15.5Z" stroke="#141B34" stroke-width="1.5"/>
</svg>
