<svg width="24" height="24" viewBox="0 0 24 24" fill="none" xmlns="http://www.w3.org/2000/svg">
<path d="M12 2.5C16.4783 2.5 18.7175 2.5 20.1088 3.89124C21.5 5.28249 21.5 7.52166 21.5 12C21.5 16.4783 21.5 18.7175 20.1088 20.1088C18.7175 21.5 16.4783 21.5 12 21.5C7.52166 21.5 5.28249 21.5 3.89124 20.1088C2.5 18.7175 2.5 16.4783 2.5 12C2.5 7.52166 2.5 5.28248 3.89124 3.89124C5.28249 2.5 7.52166 2.5 12 2.5Z" fill="#D4D7E0"/>
<path d="M3.89124 3.89235C2.5 5.28359 2.5 7.52276 2.5 12.0011C2.5 16.4794 2.5 18.7186 3.89124 20.1099C4.62427 20.8429 5.59269 21.1897 7 21.3538L7 2.64844C5.59269 2.81252 4.62427 3.15932 3.89124 3.89235Z" fill="white"/>
<path d="M20.1088 20.1099C21.5 18.7186 21.5 16.4794 21.5 12.0011C21.5 7.52276 21.5 5.28359 20.1088 3.89235C19.3757 3.15932 18.4073 2.81252 17 2.64844L17 21.3538C18.4073 21.1897 19.3757 20.8429 20.1088 20.1099Z" fill="white"/>
<path d="M12 21.5C7.52166 21.5 5.28249 21.5 3.89124 20.1088C2.5 18.7175 2.5 16.4783 2.5 12C2.5 7.52166 2.5 5.28249 3.89124 3.89124C5.28248 2.5 7.52166 2.5 12 2.5C16.4783 2.5 18.7175 2.5 20.1088 3.89124C21.5 5.28248 21.5 7.52166 21.5 12C21.5 16.4783 21.5 18.7175 20.1088 20.1088C18.7175 21.5 16.4783 21.5 12 21.5Z" stroke="#141B34" stroke-width="1.5"/>
<path d="M7 21.5L7 2.5" stroke="#141B34" stroke-width="1.5" stroke-linejoin="round"/>
<path d="M17 21.5L17 2.5" stroke="#141B34" stroke-width="1.5" stroke-linejoin="round"/>
<path d="M17 12L7 12" stroke="#141B34" stroke-width="1.5" stroke-linecap="round" stroke-linejoin="round"/>
<path d="M7 16L3 16M7 8L3 8" stroke="#141B34" stroke-width="1.5" stroke-linecap="round" stroke-linejoin="round"/>
<path d="M21 16L17 16M21 8L17 8" stroke="#141B34" stroke-width="1.5" stroke-linecap="round" stroke-linejoin="round"/>
</svg>
