<svg width="24" height="24" viewBox="0 0 24 24" fill="none" xmlns="http://www.w3.org/2000/svg">
<path d="M12 21H13.25C16.7612 21 18.5167 21 19.7779 20.1573C20.3238 19.7926 20.7926 19.3238 21.1573 18.7779C22 17.5167 22 15.7612 22 12.25C22 10.1433 22 9.08996 21.4944 8.33329C21.2755 8.00572 20.9943 7.72447 20.6667 7.50559C19.91 7 18.8567 7 16.75 7H12L11.3666 5.73313C10.8418 4.68358 10.3622 3.62712 9.19926 3.19101C8.6899 3 8.10802 3 6.94427 3C5.1278 3 4.21956 3 3.53806 3.38032C3.05227 3.65142 2.65142 4.05227 2.38032 4.53806C2 5.21956 2 6.1278 2 7.94427V11C2 15.714 2 18.0711 3.46447 19.5355C4.92893 21 7.28595 21 12 21Z" fill="white"/>
<path d="M12 21.0025H13.25H13.25C16.7612 21.0025 18.5167 21.0025 19.7779 20.1598C19.8781 20.0928 19.9758 20.0223 20.0707 19.9485L3.53806 3.38281C3.05227 3.65392 2.65142 4.05476 2.38032 4.54056C2 5.22206 2 6.1303 2 7.94677V11.0025C2 15.7165 2 18.0736 3.46447 19.538C4.92893 21.0025 7.28595 21.0025 12 21.0025Z" fill="#D4D7E0"/>
<path d="M20 20.0001C19.9275 20.0545 19.8534 20.1069 19.7779 20.1574C18.5167 21.0001 16.7612 21.0001 13.25 21.0001H12C7.28595 21.0001 4.92893 21.0001 3.46447 19.5356C2 18.0711 2 15.7141 2 11.0001V7.94433C2 6.12785 2 5.21962 2.38032 4.53812C2.61398 4.11941 2.94402 3.76381 3.34177 3.5" stroke="#141B34" stroke-width="1.5" stroke-linecap="round"/>
<path d="M11 6.999H16.75C18.8567 6.999 19.91 6.999 20.6667 7.50459C20.9943 7.72347 21.2755 8.00472 21.4944 8.33229C22 9.08896 22 10.1423 22 12.249C22 14.3896 22 15.8777 21.8091 16.999M12 6.999L11.3666 5.73213C10.8418 4.68258 10.3622 3.62612 9.19926 3.19001C8.77825 3.03214 8.3077 3.00475 7.5 3H7" stroke="#141B34" stroke-width="1.5" stroke-linecap="round"/>
<path d="M2 2L22 22" stroke="#141B34" stroke-width="1.5" stroke-linecap="round"/>
</svg>
