<svg width="24" height="24" viewBox="0 0 24 24" fill="none" xmlns="http://www.w3.org/2000/svg">
<path d="M22 12C22 17.5228 17.5228 22 12 22C6.47715 22 2 17.5228 2 12C2 6.47715 6.47715 2 12 2C17.5228 2 22 6.47715 22 12Z" fill="#D4D7E0"/>
<path d="M22 12C22 17.5228 17.5228 22 12 22C6.47715 22 2 17.5228 2 12C2 6.47715 6.47715 2 12 2C17.5228 2 22 6.47715 22 12Z" stroke="#141B34" stroke-width="1.5"/>
<path d="M11.7077 9.34893C11.882 9.21702 12.118 9.21702 12.2923 9.34893L14.545 11.054C14.7193 11.1859 14.7922 11.4197 14.7256 11.6332L13.8652 14.3921C13.7986 14.6055 13.6077 14.75 13.3923 14.75H10.6077C10.3923 14.75 10.2014 14.6055 10.1348 14.3921L9.27437 11.6332C9.20781 11.4197 9.28073 11.1859 9.45499 11.054L11.7077 9.34893Z" fill="white"/>
<path d="M11.7077 9.34893C11.882 9.21702 12.118 9.21702 12.2923 9.34893L14.545 11.054C14.7193 11.1859 14.7922 11.4197 14.7256 11.6332L13.8652 14.3921C13.7986 14.6055 13.6077 14.75 13.3923 14.75H10.6077C10.3923 14.75 10.2014 14.6055 10.1348 14.3921L9.27437 11.6332C9.20781 11.4197 9.28073 11.1859 9.45499 11.054L11.7077 9.34893Z" stroke="#141B34" stroke-width="1.5"/>
<path d="M12 9V5M15 11L19 9.5M14 15L16 18M10 14.5L8 17M9 11.5L5 10.5" stroke="#141B34" stroke-width="1.5" stroke-linecap="round" stroke-linejoin="round"/>
<path d="M12.0165 4.62241L9 2.5L8.96505 2.46885C9.92224 2.16433 10.9419 2 12 2C13.0594 2 14.0803 2.16473 15.0385 2.46998L15 2.5L12.0165 4.62241Z" fill="white"/>
<path d="M3.55548 6.72045L5.19655 10.4388L2.0298 12.7778C2.01005 12.5211 2 12.2617 2 12C2 10.0413 2.56313 8.21415 3.53631 6.67158L3.55548 6.72045Z" fill="white"/>
<path d="M18.8035 9.38978L20.0298 6.19586L20.0662 6.08816C21.2357 7.68116 21.9447 9.63331 21.9969 11.7484L22 11.7507L21.9977 11.7811C21.9974 11.7702 21.9972 11.7593 21.9969 11.7484L18.8035 9.38978Z" fill="white"/>
<path d="M4.00331 17.21L8.05142 17.1665L8.0122 21.1732C6.11903 20.3491 4.53059 18.956 3.46275 17.21H4.00331Z" fill="white"/>
<path d="M14.3642 21.7189L15.6158 18.1555L19.3098 18.8241C17.9999 20.2266 16.2911 21.2518 14.3642 21.7189Z" fill="white"/>
<path d="M9 2.5L8.50095 3.05987C8.5224 3.07898 8.54493 3.09685 8.56843 3.11339L9 2.5ZM12.0165 4.62241L11.585 5.2358C11.845 5.41877 12.1922 5.41787 12.4513 5.23355L12.0165 4.62241ZM15 2.5L15.4348 3.11114C15.4437 3.10476 15.4525 3.0982 15.4612 3.09144L15 2.5ZM5.19655 10.4388L5.64213 11.0421C5.92447 10.8336 6.02442 10.4571 5.8827 10.136L5.19655 10.4388ZM3.55548 6.72045L2.85729 6.99436C2.8611 7.00408 2.86512 7.01372 2.86934 7.02327L3.55548 6.72045ZM15.6158 18.1555L15.7494 17.4175C15.3868 17.3518 15.0303 17.5593 14.9082 17.9069L15.6158 18.1555ZM20.0298 6.19586L20.7299 6.46469C20.7336 6.45527 20.737 6.44577 20.7402 6.43621L20.0298 6.19586ZM18.8035 9.38978L18.1033 9.12095C17.9824 9.43583 18.0866 9.79268 18.3579 9.99307L18.8035 9.38978ZM22 11.7507L22.7478 11.8084C22.7677 11.5507 22.6535 11.301 22.4456 11.1474L22 11.7507ZM8.05142 17.1665L8.80138 17.1739C8.80335 16.9723 8.7241 16.7784 8.5815 16.636C8.43889 16.4935 8.24494 16.4144 8.04337 16.4166L8.05142 17.1665ZM4.00331 17.21V17.96L4.01136 17.96L4.00331 17.21ZM20.0662 6.08816L20.6708 5.64432C20.5052 5.41883 20.2279 5.30421 19.9515 5.34699C19.6751 5.38977 19.4454 5.58284 19.3558 5.84782L20.0662 6.08816ZM21.9977 11.7811L21.2478 11.7972L21.9977 11.7811ZM15.0385 2.46998L15.4997 3.06142C15.7191 2.89033 15.8258 2.61184 15.7768 2.33796C15.7278 2.06408 15.5312 1.83981 15.2661 1.75536L15.0385 2.46998ZM8.96505 2.46885L8.73767 1.75415C8.48091 1.83584 8.2877 2.04898 8.23153 2.3125C8.17536 2.57603 8.26487 2.84943 8.466 3.02872L8.96505 2.46885ZM3.53631 6.67158L4.2345 6.39767C4.13122 6.1344 3.88862 5.95161 3.60707 5.92493C3.32552 5.89825 3.0529 6.03221 2.902 6.2714L3.53631 6.67158ZM3.46275 17.21V16.46C3.19141 16.46 2.94123 16.6066 2.80854 16.8432C2.67585 17.0799 2.68135 17.3698 2.82292 17.6013L3.46275 17.21ZM14.3642 21.7189L13.6566 21.4703C13.5655 21.7297 13.6236 22.0182 13.8081 22.2221C13.9925 22.4259 14.2737 22.5125 14.5409 22.4478L14.3642 21.7189ZM19.3098 18.8241L19.8579 19.336C20.0452 19.1354 20.1081 18.8485 20.0217 18.588C19.9353 18.3274 19.7134 18.1349 19.4434 18.0861L19.3098 18.8241ZM8.04144 21.1859L7.74428 21.8745C8.12438 22.0385 8.56549 21.8636 8.72982 21.4836C8.89414 21.1037 8.71954 20.6624 8.33971 20.4978L8.04144 21.1859ZM8.56843 3.11339L11.585 5.2358L12.4481 4.00903L9.43157 1.88661L8.56843 3.11339ZM12.4513 5.23355L15.4348 3.11114L14.5652 1.88886L11.5818 4.01128L12.4513 5.23355ZM5.8827 10.136L4.24163 6.41763L2.86934 7.02327L4.5104 10.7417L5.8827 10.136ZM19.3296 5.92703L18.1033 9.12095L19.5036 9.65861L20.7299 6.46469L19.3296 5.92703ZM18.3579 9.99307L21.5544 12.354L22.4456 11.1474L19.249 8.78649L18.3579 9.99307ZM8.04337 16.4166L3.99526 16.46L4.01136 17.96L8.05947 17.9165L8.04337 16.4166ZM20.7402 6.43621L20.7767 6.32851L19.3558 5.84782L19.3193 5.95552L20.7402 6.43621ZM19.4616 6.53201C20.549 8.01307 21.2056 9.82869 21.2478 11.7972L22.7475 11.765C22.6984 9.47818 21.9345 7.36566 20.6708 5.64432L19.4616 6.53201ZM21.2478 11.7972C21.2493 11.8646 21.25 11.9322 21.25 12H22.75C22.75 11.9215 22.7492 11.8432 22.7475 11.765L21.2478 11.7972ZM21.2522 11.693L21.2499 11.7234L22.7454 11.8389L22.7478 11.8084L21.2522 11.693ZM12 2.75C12.9812 2.75 13.9254 2.90252 14.8109 3.1846L15.2661 1.75536C14.2352 1.42695 13.1375 1.25 12 1.25V2.75ZM15.4612 3.09144L15.4997 3.06142L14.5773 1.87854L14.5388 1.90856L15.4612 3.09144ZM9.19243 3.18355C10.077 2.90214 11.02 2.75 12 2.75V1.25C10.8639 1.25 9.76751 1.42651 8.73767 1.75415L9.19243 3.18355ZM9.49905 1.94013L9.4641 1.90898L8.466 3.02872L8.50095 3.05987L9.49905 1.94013ZM2.75 12C2.75 10.1871 3.27079 8.49806 4.17063 7.07176L2.902 6.2714C1.85546 7.93024 1.25 9.89556 1.25 12H2.75ZM4.25368 6.44654L4.2345 6.39767L2.83812 6.94549L2.85729 6.99436L4.25368 6.44654ZM2.44559 13.4031L2.47539 13.3811L1.58421 12.1745L1.55441 12.1965L2.44559 13.4031ZM2.47538 13.3811L5.64213 11.0421L4.75097 9.83556L1.58422 12.1745L2.47538 13.3811ZM2.77759 12.7202C2.75932 12.4827 2.75 12.2425 2.75 12H1.25C1.25 12.2809 1.26079 12.5595 1.28201 12.8353L2.77759 12.7202ZM4.00331 16.46H3.46275V17.96H4.00331V16.46ZM8.31156 20.4856C6.56082 19.7234 5.09074 18.4345 4.10258 16.8187L2.82292 17.6013C3.97043 19.4776 5.67724 20.9747 7.71284 21.8609L8.31156 20.4856ZM8.76216 21.1806L8.80138 17.1739L7.30145 17.1592L7.26224 21.1659L8.76216 21.1806ZM14.9082 17.9069L13.6566 21.4703L15.0719 21.9674L16.3234 18.404L14.9082 17.9069ZM18.7617 18.3121C17.5491 19.6105 15.9684 20.5583 14.1876 20.99L14.5409 22.4478C16.6139 21.9453 18.4507 20.8427 19.8579 19.336L18.7617 18.3121ZM19.4434 18.0861L15.7494 17.4175L15.4822 18.8935L19.1762 19.5621L19.4434 18.0861ZM8.33859 20.4973C8.3296 20.4934 8.32059 20.4895 8.31156 20.4856L7.71284 21.8609C7.72328 21.8654 7.73376 21.87 7.74428 21.8745L8.33859 20.4973ZM7.71393 21.8614L7.74316 21.874L8.33971 20.4978L8.31047 20.4851L7.71393 21.8614Z" fill="#141B34"/>
</svg>
