<svg width="24" height="24" viewBox="0 0 24 24" fill="none" xmlns="http://www.w3.org/2000/svg">
<path d="M20 14C20 17.7712 20 19.6569 18.7552 20.8284C17.5104 22 15.5069 22 11.5 22L10.7273 22C7.46607 22 5.83546 22 4.70307 21.2022C4.37862 20.9736 4.09058 20.7025 3.8477 20.3971C3 19.3313 3 17.7966 3 14.7273L3 12.1818C3 9.21865 3 7.73706 3.46894 6.55375C4.22282 4.65142 5.81714 3.15088 7.83836 2.44135C9.09563 2 10.6698 2 13.8182 2C15.6173 2 16.5168 2 17.2352 2.2522C18.3902 2.65765 19.3013 3.5151 19.732 4.60214C20 5.27832 20 6.12494 20 7.81818L20 14Z" fill="#D4D7E0"/>
<path d="M6.44734 8.73671C4.6064 8.73671 3.11401 10.2291 3.11401 12.07C2.94734 10.57 2.61401 7.07004 5.11401 4.07004C6.11401 3.07004 8.71401 1.67004 13.114 2.07004C11.2731 2.07004 9.78068 3.56243 9.78068 5.40337C9.78068 6.06916 9.89734 6.85408 9.72389 7.50141C9.56978 8.07656 9.12053 8.52581 8.54538 8.67992C7.89805 8.85337 7.11313 8.73671 6.44734 8.73671Z" fill="white"/>
<path d="M9.84617 13.9141C9.89009 14.3259 10.2596 14.6242 10.6715 14.5803C11.0833 14.5364 11.3816 14.1669 11.3377 13.755L9.84617 13.9141ZM9.16682 15.1731C8.75582 15.2245 8.46436 15.5995 8.51583 16.0105C8.5673 16.4215 8.94221 16.7129 9.35321 16.6615L9.16682 15.1731ZM21.002 13.7514C21.4162 13.7514 21.752 13.4157 21.752 13.0014C21.752 12.5872 21.4162 12.2514 21.002 12.2514V13.7514ZM17.0907 18C17.0907 18.4142 17.4264 18.75 17.8407 18.75C18.2549 18.75 18.5907 18.4142 18.5907 18H17.0907ZM20.0987 16.2507C20.5129 16.2507 20.8487 15.9149 20.8487 15.5007C20.8487 15.0865 20.5129 14.7507 20.0987 14.7507V16.2507ZM18.1052 13.2454L18.6137 13.7967V13.7967L18.1052 13.2454ZM15.502 18.75C15.9162 18.75 16.252 18.4142 16.252 18C16.252 17.5858 15.9162 17.25 15.502 17.25V18.75ZM13.002 17.25C12.5877 17.25 12.252 17.5858 12.252 18C12.252 18.4142 12.5877 18.75 13.002 18.75V17.25ZM13.002 12.2514C12.5877 12.2514 12.252 12.5872 12.252 13.0014C12.252 13.4157 12.5877 13.7514 13.002 13.7514V12.2514ZM15.502 13.7514C15.9162 13.7514 16.252 13.4157 16.252 13.0014C16.252 12.5872 15.9162 12.2514 15.502 12.2514V13.7514ZM7.75195 16.3338V14.6676H6.25195V16.3338H7.75195ZM8.8084 17.25C8.36302 17.25 8.09865 17.2486 7.90962 17.2252C7.73636 17.2037 7.74308 17.1752 7.775 17.2047L6.75801 18.3073C7.05448 18.5807 7.40636 18.6743 7.72502 18.7138C8.02791 18.7514 8.40222 18.75 8.8084 18.75V17.25ZM6.25195 16.3338C6.25195 16.7036 6.25009 17.0627 6.29286 17.3561C6.33975 17.6778 6.45291 18.0259 6.75801 18.3073L7.775 17.2047C7.81554 17.2421 7.79643 17.2718 7.77718 17.1398C7.75382 16.9795 7.75195 16.7495 7.75195 16.3338H6.25195ZM9.86486 16.3338C9.86486 16.7495 9.86299 16.9795 9.83963 17.1398C9.82038 17.2718 9.80127 17.2421 9.84181 17.2047L10.8588 18.3073C11.1639 18.0259 11.2771 17.6778 11.3239 17.3561C11.3667 17.0627 11.3649 16.7036 11.3649 16.3338H9.86486ZM8.8084 18.75C9.21459 18.75 9.5889 18.7514 9.89179 18.7138C10.2105 18.6743 10.5623 18.5807 10.8588 18.3073L9.84181 17.2047C9.87373 17.1752 9.88045 17.2037 9.70719 17.2252C9.51816 17.2486 9.25378 17.25 8.8084 17.25V18.75ZM8.8084 12.2514C8.40222 12.2514 8.02791 12.2501 7.72502 12.2876C7.40636 12.3272 7.05448 12.4207 6.75801 12.6941L7.775 13.7967C7.74308 13.8262 7.73636 13.7977 7.90962 13.7762C8.09865 13.7528 8.36302 13.7514 8.8084 13.7514V12.2514ZM7.75195 14.6676C7.75195 14.252 7.75382 14.0219 7.77718 13.8617C7.79643 13.7296 7.81554 13.7593 7.775 13.7967L6.75801 12.6941C6.45291 12.9755 6.33975 13.3236 6.29286 13.6453C6.25009 13.9388 6.25195 14.2978 6.25195 14.6676H7.75195ZM11.3649 16.3338C11.3649 15.8213 11.0374 15.5069 10.7512 15.357C10.494 15.2223 10.2084 15.1773 10.0055 15.1588C9.78741 15.1389 9.57913 15.1432 9.43193 15.151C9.35665 15.155 9.29339 15.1601 9.2478 15.1644C9.22494 15.1666 9.20632 15.1685 9.19263 15.1701C9.18578 15.1708 9.18016 15.1715 9.17583 15.172C9.17367 15.1722 9.17183 15.1725 9.17032 15.1726C9.16957 15.1727 9.1689 15.1728 9.16832 15.1729C9.16803 15.1729 9.16776 15.173 9.16751 15.173C9.16738 15.173 9.16721 15.173 9.16715 15.173C9.16698 15.1731 9.16682 15.1731 9.26002 15.9173C9.35321 16.6615 9.35306 16.6615 9.35292 16.6615C9.35288 16.6615 9.35274 16.6615 9.35265 16.6615C9.35249 16.6615 9.35234 16.6616 9.35221 16.6616C9.35196 16.6616 9.35178 16.6616 9.35168 16.6616C9.35148 16.6617 9.35158 16.6617 9.35198 16.6616C9.35278 16.6615 9.35476 16.6613 9.35783 16.6609C9.36399 16.6603 9.37448 16.6591 9.38866 16.6578C9.41717 16.6551 9.45976 16.6516 9.51149 16.6489C9.61833 16.6432 9.74876 16.6416 9.86939 16.6526C10.0052 16.665 10.0583 16.6874 10.0552 16.6858C10.047 16.6815 9.99721 16.6542 9.94795 16.5858C9.89203 16.5081 9.86486 16.4159 9.86486 16.3338H11.3649ZM19.6471 13.7514H21.002V12.2514H19.6471V13.7514ZM18.5907 18V15.5007H17.0907V18H18.5907ZM18.5907 15.5007V14.6676H17.0907V15.5007H18.5907ZM20.0987 14.7507H17.8407V16.2507H20.0987V14.7507ZM19.6471 12.2514C19.2409 12.2514 18.8666 12.2501 18.5637 12.2876C18.2451 12.3272 17.8932 12.4207 17.5967 12.6941L18.6137 13.7967C18.5818 13.8262 18.5751 13.7977 18.7483 13.7762C18.9374 13.7528 19.2017 13.7514 19.6471 13.7514V12.2514ZM18.5907 14.6676C18.5907 14.252 18.5925 14.0219 18.6159 13.8617C18.6351 13.7296 18.6543 13.7593 18.6137 13.7967L17.5967 12.6941C17.2916 12.9755 17.1785 13.3236 17.1316 13.6453C17.0888 13.9388 17.0907 14.2978 17.0907 14.6676H18.5907ZM15.502 17.25H14.2278V18.75H15.502V17.25ZM14.2278 17.25H13.002V18.75H14.2278V17.25ZM13.002 13.7514H14.2278V12.2514H13.002V13.7514ZM14.2278 13.7514H15.502V12.2514H14.2278V13.7514ZM13.4778 13.0014V18H14.9778V13.0014H13.4778ZM8.8084 13.7514C9.02505 13.7514 9.19398 13.747 9.37146 13.7536C9.54368 13.76 9.66523 13.776 9.75028 13.7999C9.8311 13.8227 9.84036 13.8418 9.83014 13.8307C9.81384 13.8131 9.836 13.8187 9.84617 13.9141L11.3377 13.755C11.2995 13.397 11.1711 13.0718 10.932 12.8129C10.6989 12.5607 10.4132 12.4282 10.1567 12.356C9.69142 12.2251 9.12571 12.2514 8.8084 12.2514V13.7514Z" fill="#141B34"/>
<path d="M15 22H10.7273C7.46607 22 5.83546 22 4.70307 21.2022C4.37862 20.9736 4.09058 20.7025 3.8477 20.3971C3 19.3313 3 17.7966 3 14.7273V12.1818C3 9.21865 3 7.73706 3.46894 6.55375C4.22281 4.65142 5.81714 3.15088 7.83836 2.44135C9.09563 2 10.6698 2 13.8182 2C15.6173 2 16.5168 2 17.2352 2.2522C18.3902 2.65765 19.3012 3.5151 19.732 4.60214C20 5.27832 20 6.12494 20 7.81818V10" stroke="#141B34" stroke-width="1.5" stroke-linecap="round" stroke-linejoin="round"/>
<path d="M3 12C3 10.1591 4.49238 8.66667 6.33333 8.66667C6.99912 8.66667 7.78404 8.78333 8.43137 8.60988C9.00652 8.45576 9.45576 8.00652 9.60988 7.43136C9.78333 6.78404 9.66667 5.99912 9.66667 5.33333C9.66667 3.49238 11.1591 2 13 2" stroke="#141B34" stroke-width="1.5" stroke-linecap="round" stroke-linejoin="round"/>
</svg>
