<svg width="24" height="24" viewBox="0 0 24 24" fill="none" xmlns="http://www.w3.org/2000/svg">
<g clip-path="url(#clip0_775_8992)">
<path d="M20.5156 12C20.5156 16.6944 16.71 20.5 12.0156 20.5C7.3212 20.5 3.51562 16.6944 3.51562 12C3.51562 7.30558 7.3212 3.5 12.0156 3.5C16.71 3.5 20.5156 7.30558 20.5156 12Z" fill="#D4D7E0"/>
<path d="M20.5156 12C20.5156 16.6944 16.71 20.5 12.0156 20.5C7.3212 20.5 3.51562 16.6944 3.51562 12C3.51562 7.30558 7.3212 3.5 12.0156 3.5C16.71 3.5 20.5156 7.30558 20.5156 12Z" stroke="#141B34" stroke-width="1.5"/>
<path d="M22.5 12H20.5" stroke="#141B34" stroke-width="1.5" stroke-linecap="round" stroke-linejoin="round"/>
<path d="M3.5 12H1.5" stroke="#141B34" stroke-width="1.5" stroke-linecap="round" stroke-linejoin="round"/>
<path d="M12 1.5L12 3.5" stroke="#141B34" stroke-width="1.5" stroke-linecap="round" stroke-linejoin="round"/>
<path d="M12 20.5V22.5" stroke="#141B34" stroke-width="1.5" stroke-linecap="round" stroke-linejoin="round"/>
</g>
<defs>
<clipPath id="clip0_775_8992">
<rect width="24" height="24" fill="white"/>
</clipPath>
</defs>
</svg>
