<svg width="24" height="24" viewBox="0 0 24 24" fill="none" xmlns="http://www.w3.org/2000/svg">
<path d="M12 2C7.71429 4.40741 4 8 2 14C5 12 9 11 12 14C15 11 19 12 22 14C20 8 16.2857 4.40741 12 2Z" fill="#D4D7E0"/>
<path d="M12 2C7.71429 4.40741 4 8 2 14C5 12 9 11 12 14C15 11 19 12 22 14C20 8 16.2857 4.40741 12 2Z" stroke="#141B34" stroke-width="1.5" stroke-linecap="round" stroke-linejoin="round"/>
<path d="M11.9999 14C10.3912 14.7327 7.69631 15.8188 8.02333 18" stroke="#141B34" stroke-width="1.5" stroke-linecap="round" stroke-linejoin="round"/>
<path d="M11.6716 14C13.0709 17.203 9.38762 19.5 11.9053 22" stroke="#141B34" stroke-width="1.5" stroke-linecap="round" stroke-linejoin="round"/>
<path d="M12 14C14 14 13.5 18.5 15 19" stroke="#141B34" stroke-width="1.5" stroke-linecap="round" stroke-linejoin="round"/>
<path d="M12 14V2" stroke="#141B34" stroke-width="1.5" stroke-linecap="round" stroke-linejoin="round"/>
<path d="M10 6.99841C10.2913 6.73362 10.6667 6.52142 11.0134 6.36181C11.379 6.19352 11.5618 6.10938 12 6.10938C12.4382 6.10937 12.621 6.19352 12.9866 6.3618C13.3333 6.52142 13.7087 6.73362 14 6.99841" stroke="#141B34" stroke-width="1.5" stroke-linecap="round" stroke-linejoin="round"/>
</svg>
