<svg width="24" height="24" viewBox="0 0 24 24" fill="none" xmlns="http://www.w3.org/2000/svg">
<path d="M16.6668 3.21989C17.6581 2.26004 19.2653 2.26004 20.2566 3.21989C21.0178 3.95695 21.1944 5.04567 20.7866 5.94597L20.8538 6C21.7346 7.0592 21.7376 8.72688 20.7233 9.76257C20.0968 10.4023 19.2397 10.663 18.4252 10.5448L17 12L16.6815 12.3485C16.4049 12.0458 16.0583 11.7027 15.6415 11.2903L14.8883 10.5448L13.6703 9.33936L13.6703 9.33935C12.9324 8.60902 12.4142 8.09617 11.9531 7.80082L12 7.73864L16.6668 3.21989Z" fill="white"/>
<path d="M15.6415 11.2903L13.6703 9.33936C12.4313 8.11312 11.8118 7.5 11.042 7.5C10.2722 7.5 9.65267 8.11312 8.41368 9.33936L3.58868 14.1147L3.58867 14.1147C3.05152 14.6463 2.78294 14.9122 2.64147 15.2502C2.5 15.5882 2.5 15.9641 2.5 16.716V17.821C2.5 19.5552 2.5 20.4222 3.04434 20.961C3.58867 21.4997 4.4648 21.4997 6.21698 21.4997L12.6887 21.5C14.4565 21.5 15.3403 21.5 15.8895 20.9622C16.4387 20.4244 16.4387 19.5589 16.4387 17.8277V15.6928C17.1462 14.9581 17.5 14.4673 17.5 13.8916C17.5 13.1297 16.8805 12.5165 15.6415 11.2903Z" fill="#D4D7E0"/>
<path d="M15.5 10L18.1025 7.39117C18.8659 7.49623 19.6693 7.26445 20.2565 6.69585C21.2478 5.73599 21.2478 4.17975 20.2565 3.21989C19.2652 2.26004 17.658 2.26004 16.6667 3.21989L12 7.73864" stroke="#141B34" stroke-width="1.5" stroke-linecap="round" stroke-linejoin="round"/>
<path d="M17 12L18.4252 10.5448C19.2397 10.663 20.0968 10.4023 20.7233 9.76257C21.7376 8.72688 21.7345 7.0592 20.8538 6" stroke="#141B34" stroke-width="1.5" stroke-linejoin="round"/>
<path d="M13.6509 18.4629L15.6415 16.4928C16.8805 15.2666 17.5 14.6534 17.5 13.8916C17.5 13.1297 16.8805 12.5165 15.6415 11.2903L13.6703 9.33936C12.4313 8.11312 11.8118 7.5 11.042 7.5C10.2722 7.5 9.65267 8.11312 8.41368 9.33936L3.58868 14.1147C3.05152 14.6463 2.78294 14.9122 2.64147 15.2502C2.5 15.5882 2.5 15.9641 2.5 16.716V17.821C2.5 19.5552 2.5 20.4222 3.04434 20.961C3.58867 21.4997 4.4648 21.4997 6.21698 21.4997L12.6887 21.5C14.4565 21.5 15.3403 21.5 15.8895 20.9622C16.4387 20.4244 16.4387 19.5589 16.4387 17.8277V15.6928" stroke="#141B34" stroke-width="1.5" stroke-linecap="round" stroke-linejoin="round"/>
</svg>
