<svg width="24" height="24" viewBox="0 0 24 24" fill="none" xmlns="http://www.w3.org/2000/svg">
<path d="M19.5988 18.4997L12.2969 12.255L15.6855 8.59375L21.86 13.6721C21.5529 15.4964 20.7517 17.1531 19.5988 18.4997Z" fill="white"/>
<path d="M12 2C6.47715 2 2 6.47715 2 12C2 15.0413 3.35767 17.7655 5.5 19.5996L8.6439 16.2028L12.2976 12.2552L15.6863 8.59404L19.075 4.93284C17.265 3.1209 14.7634 2 12 2Z" fill="#D4D7E0"/>
<path d="M5.5 19.5999C7.24803 21.0964 9.51846 22.0003 12 22.0003C13.0936 22.0003 14.1462 21.8247 15.1312 21.5003L8.6439 16.2031L5.5 19.5999Z" fill="white"/>
<path d="M15.1318 21.5026L8.64453 16.2054L12.2983 12.2578L19.6002 18.5026C18.4256 19.8746 16.886 20.9247 15.1318 21.5026Z" fill="#D4D7E0"/>
<path d="M22.0012 11.9969C22.0012 9.23741 20.8835 6.73902 19.0762 4.92969L15.6875 8.59089L21.862 13.6692C21.9535 13.1254 22.0012 12.5667 22.0012 11.9969Z" fill="#D4D7E0"/>
<path d="M22 12C22 17.5228 17.5228 22 12 22C6.47715 22 2 17.5228 2 12C2 6.47715 6.47715 2 12 2C17.5228 2 22 6.47715 22 12Z" stroke="#141B34" stroke-width="1.5"/>
<path d="M5 20L19 5" stroke="#141B34" stroke-width="1.5" stroke-linejoin="round"/>
<path d="M16 9L22 13.8528M12.4128 12.4059L19.3601 18.3634M8 15.6672L15 21.5" stroke="#141B34" stroke-width="1.5" stroke-linejoin="round"/>
</svg>
