<svg width="24" height="24" viewBox="0 0 24 24" fill="none" xmlns="http://www.w3.org/2000/svg">
<path d="M2 22L2 2" stroke="#141B34" stroke-width="1.5" stroke-linecap="round"/>
<path d="M22 22L22 2" stroke="#141B34" stroke-width="1.5" stroke-linecap="round"/>
<path d="M16.2901 18.242C16.4237 18.634 16.8499 18.8435 17.242 18.7099C17.634 18.5763 17.8435 18.1501 17.7099 17.758L16.2901 18.242ZM14.5891 10.9268L13.8792 11.1687L14.5891 10.9268ZM9.41091 10.9268L8.70101 10.6848L9.41091 10.9268ZM6.2901 17.758C6.15647 18.1501 6.36597 18.5763 6.75803 18.7099C7.1501 18.8435 7.57626 18.634 7.7099 18.242L6.2901 17.758ZM9 12.25C8.58579 12.25 8.25 12.5858 8.25 13C8.25 13.4142 8.58579 13.75 9 13.75V12.25ZM15 13.75C15.4142 13.75 15.75 13.4142 15.75 13C15.75 12.5858 15.4142 12.25 15 12.25V13.75ZM17.7099 17.758L15.299 10.6848L13.8792 11.1687L16.2901 18.242L17.7099 17.758ZM8.70101 10.6848L6.2901 17.758L7.7099 18.242L10.1208 11.1687L8.70101 10.6848ZM15.299 10.6848C14.7463 9.06318 14.3099 7.7789 13.8922 6.9075C13.6834 6.47179 13.4518 6.07879 13.1709 5.78738C12.8753 5.48075 12.4864 5.25 12 5.25V6.75C12.0002 6.75 11.9995 6.75 11.9983 6.74986C11.997 6.74971 11.9957 6.74948 11.9944 6.74918C11.9915 6.74849 11.9918 6.74814 11.9961 6.75026C12.0055 6.75487 12.0378 6.77324 12.091 6.82847C12.2059 6.94762 12.3548 7.17047 12.5396 7.55588C12.9091 8.32674 13.3124 9.50586 13.8792 11.1687L15.299 10.6848ZM10.1208 11.1687C10.6876 9.50586 11.0909 8.32674 11.4604 7.55588C11.6452 7.17047 11.7941 6.94762 11.909 6.82847C11.9622 6.77324 11.9945 6.75487 12.0039 6.75026C12.0082 6.74814 12.0085 6.74849 12.0056 6.74918C12.0043 6.74948 12.003 6.74971 12.0017 6.74986C12.0005 6.75 11.9998 6.75 12 6.75V5.25C11.5136 5.25 11.1247 5.48075 10.8291 5.78738C10.5482 6.07879 10.3166 6.47179 10.1078 6.9075C9.69008 7.7789 9.25374 9.06318 8.70101 10.6848L10.1208 11.1687ZM9 13.75H15V12.25H9V13.75Z" fill="#141B34"/>
</svg>
