<svg width="24" height="24" viewBox="0 0 24 24" fill="none" xmlns="http://www.w3.org/2000/svg">
<path d="M2.03177 16.9037C2.16293 17.7318 2.84714 18.416 4.21556 19.7844C5.58398 21.1529 6.26819 21.8371 7.09632 21.9682C7.36377 22.0106 7.63623 22.0106 7.90368 21.9682C8.73181 21.8371 9.41602 21.1529 10.7844 19.7844C12.1529 18.416 12.8371 17.7318 12.9682 16.9037C13.0106 16.6362 13.0106 16.3638 12.9682 16.0963C12.9156 15.7639 12.7738 15.4546 12.5344 15.115L8.88502 11.4656C8.54538 11.2262 8.23613 11.0844 7.90368 11.0318C7.63623 10.9894 7.36377 10.9894 7.09632 11.0318C6.26819 11.1629 5.58398 11.8471 4.21556 13.2156C2.84714 14.584 2.16293 15.2682 2.03177 16.0963C1.98941 16.3638 1.98941 16.6362 2.03177 16.9037Z" fill="#D4D7E0"/>
<path d="M11.0318 7.09632C11.1629 6.26819 11.8471 5.58398 13.2156 4.21556C14.584 2.84714 15.2682 2.16293 16.0963 2.03177C16.3638 1.98941 16.6362 1.98941 16.9037 2.03177C17.7318 2.16293 18.416 2.84714 19.7844 4.21556C21.1529 5.58398 21.8371 6.26819 21.9682 7.09632C22.0106 7.36377 22.0106 7.63623 21.9682 7.90368C21.8371 8.73181 21.1529 9.41602 19.7844 10.7844C18.416 12.1529 17.7318 12.8371 16.9037 12.9682C16.6362 13.0106 16.3638 13.0106 16.0963 12.9682C15.7639 12.9156 15.4546 12.7738 15.115 12.5344L11.4656 8.88502C11.2262 8.54538 11.0844 8.23613 11.0318 7.90368C10.9894 7.63623 10.9894 7.36377 11.0318 7.09632Z" fill="white"/>
<path d="M9.54297 14.4599L14.456 9.54688" stroke="#141B34" stroke-width="1.5" stroke-linecap="round"/>
<path d="M2.03177 16.9037L1.291 17.021L1.291 17.021L2.03177 16.9037ZM2.03177 16.0963L1.291 15.979L2.03177 16.0963ZM7.90368 21.9682L8.021 22.709H8.02101L7.90368 21.9682ZM7.09632 21.9682L7.21365 21.2275H7.21365L7.09632 21.9682ZM12.9682 16.9037L13.709 17.021V17.021L12.9682 16.9037ZM12.9682 16.0963L13.709 15.979L13.709 15.979L12.9682 16.0963ZM7.09632 11.0318L7.21365 11.7725L7.21365 11.7725L7.09632 11.0318ZM7.90368 11.0318L8.02101 10.291L8.021 10.291L7.90368 11.0318ZM8.45293 12.0786C8.79149 12.3173 9.2594 12.2363 9.49804 11.8977C9.73668 11.5591 9.65568 11.0912 9.31711 10.8526L8.45293 12.0786ZM13.1474 14.6829C12.9088 14.3443 12.4409 14.2633 12.1023 14.502C11.7637 14.7406 11.6827 15.2085 11.9214 15.5471L13.1474 14.6829ZM4.74589 19.2541C4.04987 18.5581 3.57118 18.0779 3.24406 17.6713C2.9258 17.2757 2.80928 17.0183 2.77254 16.7864L1.291 17.021C1.38543 17.6172 1.67659 18.1159 2.07533 18.6116C2.46521 19.0962 3.01284 19.6424 3.68523 20.3148L4.74589 19.2541ZM3.68523 12.6852C3.01284 13.3576 2.46521 13.9038 2.07533 14.3884C1.67659 14.8841 1.38543 15.3828 1.291 15.979L2.77254 16.2136C2.80928 15.9817 2.9258 15.7243 3.24406 15.3287C3.57118 14.9221 4.04987 14.4419 4.74589 13.7459L3.68523 12.6852ZM2.77254 16.7864C2.74249 16.5966 2.74249 16.4034 2.77254 16.2136L1.291 15.979C1.23633 16.3242 1.23633 16.6758 1.291 17.021L2.77254 16.7864ZM10.2541 19.2541C9.55809 19.9501 9.07794 20.4288 8.67133 20.7559C8.27572 21.0742 8.01832 21.1907 7.78635 21.2275L8.02101 22.709C8.61717 22.6146 9.11594 22.3234 9.61157 21.9247C10.0962 21.5348 10.6424 20.9872 11.3148 20.3148L10.2541 19.2541ZM3.68523 20.3148C4.35763 20.9872 4.9038 21.5348 5.38843 21.9247C5.88406 22.3234 6.38283 22.6146 6.979 22.709L7.21365 21.2275C6.98168 21.1907 6.72428 21.0742 6.32867 20.7559C5.92206 20.4288 5.44191 19.9501 4.74589 19.2541L3.68523 20.3148ZM7.78635 21.2275C7.59664 21.2575 7.40337 21.2575 7.21365 21.2275L6.97899 22.709C7.32418 22.7637 7.67582 22.7637 8.021 22.709L7.78635 21.2275ZM11.3148 20.3148C11.9872 19.6424 12.5348 19.0962 12.9247 18.6116C13.3234 18.1159 13.6146 17.6172 13.709 17.021L12.2275 16.7864C12.1907 17.0183 12.0742 17.2757 11.7559 17.6713C11.4288 18.0779 10.9501 18.5581 10.2541 19.2541L11.3148 20.3148ZM12.2275 16.2136C12.2575 16.4034 12.2575 16.5966 12.2275 16.7864L13.709 17.021C13.7637 16.6758 13.7637 16.3242 13.709 15.979L12.2275 16.2136ZM4.74589 13.7459C5.44191 13.0499 5.92206 12.5712 6.32867 12.2441C6.72428 11.9258 6.98168 11.8093 7.21365 11.7725L6.979 10.291C6.38283 10.3854 5.88406 10.6766 5.38843 11.0753C4.9038 11.4652 4.35763 12.0128 3.68523 12.6852L4.74589 13.7459ZM8.021 10.291C7.67582 10.2363 7.32418 10.2363 6.97899 10.291L7.21365 11.7725C7.40337 11.7425 7.59663 11.7425 7.78636 11.7725L8.021 10.291ZM9.31711 10.8526C8.91432 10.5687 8.49872 10.3667 8.02101 10.291L7.78635 11.7725C7.97354 11.8022 8.17645 11.8837 8.45293 12.0786L9.31711 10.8526ZM11.9214 15.5471C12.1163 15.8236 12.1978 16.0265 12.2275 16.2136L13.709 15.979C13.6333 15.5013 13.4313 15.0857 13.1474 14.6829L11.9214 15.5471Z" fill="#141B34"/>
<path d="M11.0318 7.09632L10.291 6.979V6.979L11.0318 7.09632ZM11.0318 7.90368L10.291 8.021L10.291 8.02101L11.0318 7.90368ZM16.9037 12.9682L17.021 13.709H17.021L16.9037 12.9682ZM16.0963 12.9682L16.2136 12.2275H16.2136L16.0963 12.9682ZM21.9682 7.09632L22.709 6.979V6.97899L21.9682 7.09632ZM21.9682 7.90368L22.709 8.02101V8.021L21.9682 7.90368ZM16.9037 2.03177L17.021 1.291L17.021 1.291L16.9037 2.03177ZM16.0963 2.03177L16.2136 2.77254V2.77254L16.0963 2.03177ZM10.8526 9.31711C11.0912 9.65568 11.5591 9.73668 11.8977 9.49804C12.2363 9.2594 12.3173 8.79149 12.0786 8.45293L10.8526 9.31711ZM15.5471 11.9214C15.2085 11.6827 14.7406 11.7637 14.502 12.1023C14.2633 12.4409 14.3443 12.9088 14.6829 13.1474L15.5471 11.9214ZM12.6852 3.68523C12.0128 4.35763 11.4652 4.9038 11.0753 5.38843C10.6766 5.88406 10.3854 6.38283 10.291 6.979L11.7725 7.21365C11.8093 6.98168 11.9258 6.72428 12.2441 6.32867C12.5712 5.92206 13.0499 5.44191 13.7459 4.74589L12.6852 3.68523ZM11.7725 7.78635C11.7425 7.59663 11.7425 7.40337 11.7725 7.21365L10.291 6.979C10.2363 7.32418 10.2363 7.67582 10.291 8.021L11.7725 7.78635ZM19.2541 10.2541C18.5581 10.9501 18.0779 11.4288 17.6713 11.7559C17.2757 12.0742 17.0183 12.1907 16.7864 12.2275L17.021 13.709C17.6172 13.6146 18.1159 13.3234 18.6116 12.9247C19.0962 12.5348 19.6424 11.9872 20.3148 11.3148L19.2541 10.2541ZM16.7864 12.2275C16.5966 12.2575 16.4034 12.2575 16.2136 12.2275L15.979 13.709C16.3242 13.7637 16.6758 13.7637 17.021 13.709L16.7864 12.2275ZM19.2541 4.74589C19.9501 5.44191 20.4288 5.92206 20.7559 6.32867C21.0742 6.72428 21.1907 6.98168 21.2275 7.21365L22.709 6.97899C22.6146 6.38283 22.3234 5.88406 21.9247 5.38843C21.5348 4.9038 20.9872 4.35763 20.3148 3.68523L19.2541 4.74589ZM20.3148 11.3148C20.9872 10.6424 21.5348 10.0962 21.9247 9.61157C22.3234 9.11594 22.6146 8.61717 22.709 8.02101L21.2275 7.78635C21.1907 8.01832 21.0742 8.27572 20.7559 8.67133C20.4288 9.07794 19.9501 9.55809 19.2541 10.2541L20.3148 11.3148ZM21.2275 7.21364C21.2575 7.40337 21.2575 7.59664 21.2275 7.78635L22.709 8.021C22.7637 7.67582 22.7637 7.32418 22.709 6.979L21.2275 7.21364ZM20.3148 3.68523C19.6424 3.01284 19.0962 2.46521 18.6116 2.07533C18.1159 1.67659 17.6172 1.38543 17.021 1.291L16.7864 2.77254C17.0183 2.80928 17.2757 2.9258 17.6713 3.24406C18.0779 3.57118 18.5581 4.04987 19.2541 4.74589L20.3148 3.68523ZM13.7459 4.74589C14.4419 4.04987 14.9221 3.57118 15.3287 3.24406C15.7243 2.9258 15.9817 2.80928 16.2136 2.77254L15.979 1.291C15.3828 1.38543 14.8841 1.67659 14.3884 2.07533C13.9038 2.46521 13.3576 3.01283 12.6852 3.68523L13.7459 4.74589ZM17.021 1.291C16.6758 1.23633 16.3242 1.23633 15.979 1.291L16.2136 2.77254C16.4034 2.74249 16.5966 2.74249 16.7864 2.77254L17.021 1.291ZM12.0786 8.45293C11.8837 8.17645 11.8022 7.97354 11.7725 7.78635L10.291 8.02101C10.3667 8.49872 10.5687 8.91432 10.8526 9.31711L12.0786 8.45293ZM14.6829 13.1474C15.0857 13.4313 15.5013 13.6333 15.979 13.709L16.2136 12.2275C16.0265 12.1978 15.8236 12.1163 15.5471 11.9214L14.6829 13.1474Z" fill="#141B34"/>
</svg>
