<svg width="24" height="24" viewBox="0 0 24 24" fill="none" xmlns="http://www.w3.org/2000/svg">
<path d="M9.09883 19.4647C11.0393 19.5118 12.9607 19.5118 14.9012 19.4647C18.0497 19.3883 19.6239 19.3501 20.755 18.2539C21.8862 17.1576 21.9189 15.6777 21.9842 12.7179C22.0053 11.7662 22.0053 10.8201 21.9842 9.86838C21.9392 7.82941 21.9097 6.49275 21.5259 5.5L12 10.3276L2.47411 5.5C2.09032 6.49275 2.0608 7.82941 2.01576 9.86836C1.99474 10.8201 1.99475 11.7661 2.01577 12.7178C2.08114 15.6777 2.11383 17.1576 3.24496 18.2539C4.37608 19.3501 5.95033 19.3883 9.09883 19.4647Z" fill="#D4D7E0"/>
<path d="M14.9036 2.53657C12.9631 2.48781 11.0418 2.48781 9.10128 2.53656C5.95278 2.61566 4.37854 2.65521 3.24741 3.79065C2.89549 4.14391 2.64989 4.53563 2.47656 5L12.0025 10L21.5283 5C21.355 4.53563 21.1094 4.14392 20.7575 3.79066C19.6264 2.65523 18.0521 2.61568 14.9036 2.53657Z" fill="white"/>
<path d="M20.7712 15.2202C20.1735 14.3574 19.1543 13.7891 17.9974 13.7891C16.8405 13.7891 15.8213 14.3574 15.2236 15.2202C14.8701 15.7305 14.6641 16.3437 14.6641 17.0033C14.6641 17.6631 14.8702 18.2764 15.2237 18.7867C15.8215 19.6494 16.8406 20.2176 17.9974 20.2176C19.1542 20.2176 20.1733 19.6494 20.7711 18.7867C21.1246 18.2764 21.3307 17.6631 21.3307 17.0033C21.3307 16.3437 21.1247 15.7305 20.7712 15.2202Z" fill="white"/>
<path d="M2 5L8.91302 8.92462C11.4387 10.3585 12.5613 10.3585 15.087 8.92462L22 5" stroke="#141B34" stroke-width="1.5" stroke-linejoin="round"/>
<path d="M11.0005 19.4892C11.0005 19.4892 10.0696 19.5136 9.09925 19.4892C5.95057 19.4099 4.37623 19.3703 3.24503 18.2332C2.11384 17.096 2.08115 15.5609 2.01577 12.4907C1.99474 11.5036 1.99474 10.5222 2.01577 9.53502C2.08114 6.46485 2.11383 4.92976 3.24503 3.7926C4.37623 2.65545 5.95057 2.61584 9.09925 2.53662C11.0399 2.48779 12.9614 2.48779 14.902 2.53662C18.0506 2.61585 19.625 2.65547 20.7562 3.79262C21.8874 4.92977 21.9201 6.46486 21.9854 9.53504C21.993 9.89243 21.9979 10.5116 22 11.0129" stroke="#141B34" stroke-width="1.5" stroke-linecap="round" stroke-linejoin="round"/>
<path d="M18 20.2143V21.5M18 20.2143C16.8432 20.2143 15.8241 19.6461 15.2263 18.7833M18 20.2143C19.1568 20.2143 20.1759 19.6461 20.7737 18.7833M18 13.7857C19.1569 13.7857 20.1761 14.354 20.7738 15.2169M18 13.7857C16.8431 13.7857 15.8239 14.354 15.2262 15.2169M18 13.7857V12.5M22 14.4286L20.7738 15.2169M14.0004 19.5714L15.2263 18.7833M14 14.4286L15.2262 15.2169M21.9996 19.5714L20.7737 18.7833M20.7738 15.2169C21.1273 15.7271 21.3333 16.3403 21.3333 17C21.3333 17.6597 21.1272 18.273 20.7737 18.7833M15.2262 15.2169C14.8727 15.7271 14.6667 16.3403 14.6667 17C14.6667 17.6597 14.8728 18.273 15.2263 18.7833" stroke="#141B34" stroke-width="1.5" stroke-linecap="round"/>
</svg>
