<svg width="24" height="24" viewBox="0 0 24 24" fill="none" xmlns="http://www.w3.org/2000/svg">
<path d="M9.09883 19.4647C11.0393 19.5118 12.9607 19.5118 14.9012 19.4647C18.0497 19.3883 19.6239 19.3501 20.755 18.2539C21.8862 17.1576 21.9189 15.6777 21.9842 12.7179V12.7178C22.0053 11.7661 22.0053 10.8201 21.9842 9.86838C21.9392 7.82941 21.9097 6.49275 21.5259 5.5L12 10.3276L2.47411 5.5C2.09032 6.49275 2.0608 7.82941 2.01576 9.86836C1.99474 10.8201 1.99475 11.7661 2.01577 12.7178C2.08114 15.6777 2.11383 17.1576 3.24496 18.2539C4.37608 19.3501 5.95033 19.3883 9.09883 19.4647Z" fill="#D4D7E0"/>
<path d="M14.9036 2.53657C12.9631 2.48781 11.0418 2.48781 9.10128 2.53656C5.95278 2.61566 4.37854 2.65521 3.24741 3.79065C2.89549 4.14391 2.64989 4.53563 2.47656 5L12.0025 10L21.5283 5C21.355 4.53563 21.1094 4.14392 20.7575 3.79066C19.6264 2.65523 18.0521 2.61568 14.9036 2.53657Z" fill="white"/>
<path d="M21.0531 17.0265C21.0531 15.0789 19.4742 13.5 17.5265 13.5C15.5789 13.5 14 15.0789 14 17.0265C14 18.9742 15.5789 20.5531 17.5265 20.5531C19.4742 20.5531 21.0531 18.9742 21.0531 17.0265Z" fill="white"/>
<path d="M11 19.4634C10.2011 19.46 9.90159 19.4836 9.09883 19.4634C5.95033 19.3843 4.37608 19.3448 3.24496 18.2094C2.11383 17.0739 2.08114 15.5412 2.01577 12.4756C1.99475 11.4899 1.99474 10.5101 2.01576 9.52438C2.08114 6.45885 2.11382 4.92608 3.24495 3.79065C4.37608 2.65521 5.95033 2.61566 9.09882 2.53656C11.0393 2.48781 12.9607 2.48781 14.9012 2.53657C18.0497 2.61568 19.6239 2.65523 20.7551 3.79066C21.8862 4.92609 21.9189 6.45886 21.9842 9.52439C21.9983 10.1829 22 10.8414 22 11.5" stroke="#141B34" stroke-width="1.5" stroke-linecap="round" stroke-linejoin="round"/>
<path d="M2 5L8.91302 8.92462C11.4387 10.3585 12.5613 10.3585 15.087 8.92462L22 5" stroke="#141B34" stroke-width="1.5" stroke-linejoin="round"/>
<path d="M20.017 19.5233L22 21.5M21.0531 17.0265C21.0531 15.0789 19.4742 13.5 17.5265 13.5C15.5789 13.5 14 15.0789 14 17.0265C14 18.9742 15.5789 20.5531 17.5265 20.5531C19.4742 20.5531 21.0531 18.9742 21.0531 17.0265Z" stroke="#141B34" stroke-width="1.5" stroke-linecap="round" stroke-linejoin="round"/>
</svg>
