<svg width="24" height="24" viewBox="0 0 24 24" fill="none" xmlns="http://www.w3.org/2000/svg">
<path d="M8 21.9981H16H16C18.8284 21.9981 20.2426 21.9981 21.1213 21.0462C22 20.0943 22 18.5622 22 15.4981C22 12.434 22 10.9019 21.1213 9.95002C20.3529 9.1176 19.175 9.01312 17 9H7C4.82497 9.01312 3.64706 9.1176 2.87868 9.95002C2 10.9019 2 12.434 2 15.4981C2 18.5622 2 20.0943 2.87868 21.0462C3.75736 21.9981 5.17157 21.9981 7.99999 21.9981H8Z" fill="#D4D7E0"/>
<path d="M7 9C4.82497 9.01312 3.64706 9.1176 2.87868 9.95002C2 10.9019 2 12.434 2 15.4981C2 18.5622 2 20.0943 2.87868 21.0462C3.75736 21.9981 5.17157 21.9981 8 21.9981H16C18.8284 21.9981 20.2426 21.9981 21.1213 21.0462C22 20.0943 22 18.5622 22 15.4981C22 12.434 22 10.9019 21.1213 9.95002C20.3529 9.1176 19.175 9.01312 17 9" stroke="#141B34" stroke-width="1.5" stroke-linecap="round" stroke-linejoin="round"/>
<path d="M6 12L10.5 14.625M18 19L13.8 16.55M13.8 16.55L18 13.75M13.8 16.55L10.5 14.625M10.5 14.625L6 17.6" stroke="#141B34" stroke-width="1.5" stroke-linecap="round" stroke-linejoin="round"/>
<path d="M14.5 4.5C14.5 5.88071 13.3807 7 12 7C10.6193 7 9.5 5.88071 9.5 4.5C9.5 3.11929 10.6193 2 12 2C13.3807 2 14.5 3.11929 14.5 4.5Z" fill="white"/>
<path d="M12 7C13.3807 7 14.5 5.88071 14.5 4.5C14.5 3.11929 13.3807 2 12 2C10.6193 2 9.5 3.11929 9.5 4.5C9.5 5.88071 10.6193 7 12 7ZM12 7V11" stroke="#141B34" stroke-width="1.5" stroke-linecap="round"/>
</svg>
