<svg width="24" height="24" viewBox="0 0 24 24" fill="none" xmlns="http://www.w3.org/2000/svg">
<path d="M14.1706 21.3905C18.3536 21.1125 21.6856 17.7332 21.9598 13.4909C22.0134 12.6607 22.0134 11.8009 21.9598 10.9707C21.6856 6.72838 18.3536 3.34913 14.1706 3.07107C12.7435 2.97621 11.2536 2.97641 9.8294 3.07107C5.64639 3.34913 2.31441 6.72838 2.04024 10.9707C1.98659 11.8009 1.98659 12.6607 2.04024 13.4909C2.1401 15.036 2.82343 16.4666 3.62791 17.6746C4.09501 18.5203 3.78674 19.5758 3.30021 20.4978C2.94941 21.1626 2.77401 21.495 2.91484 21.7351C3.05568 21.9752 3.37026 21.9829 3.99943 21.9982C5.24367 22.0285 6.08268 21.6757 6.74868 21.1846C7.1264 20.9061 7.31527 20.7668 7.44544 20.7508C7.5756 20.7348 7.83177 20.8403 8.34401 21.0513C8.8044 21.2409 9.33896 21.3579 9.8294 21.3905C11.2536 21.4852 12.7435 21.4854 14.1706 21.3905Z" fill="#D4D7E0"/>
<path d="M17.9992 2C16.7328 2 15.9117 2.8076 14.9405 3.10196C14.5456 3.22165 14.3482 3.2815 14.2683 3.36586C14.1884 3.45022 14.165 3.5735 14.1182 3.82005C13.6174 6.4584 14.712 8.89759 17.3222 9.84699C17.6027 9.949 17.7429 10 18.0006 10C18.2583 10 18.3986 9.94899 18.679 9.84698C21.2891 8.89758 22.3826 6.45839 21.8817 3.82005C21.8349 3.57346 21.8114 3.45016 21.7315 3.36579C21.6516 3.28143 21.4542 3.22162 21.0593 3.10199C20.0878 2.80766 19.2657 2 17.9992 2Z" fill="white"/>
<path d="M11.5 3C10.9383 3.00836 10.3789 3.03083 9.8294 3.06736C5.64639 3.34541 2.31441 6.72466 2.04024 10.967C1.98659 11.7972 1.98659 12.657 2.04024 13.4872C2.1401 15.0323 2.82343 16.4629 3.62791 17.6709C4.09501 18.5166 3.78674 19.5721 3.30021 20.4941C2.94941 21.1589 2.77401 21.4913 2.91484 21.7314C3.05568 21.9715 3.37026 21.9792 3.99943 21.9945C5.24367 22.0248 6.08268 21.672 6.74868 21.1809C7.1264 20.9024 7.31527 20.7631 7.44544 20.7471C7.5756 20.7311 7.83177 20.8366 8.34401 21.0476C8.8044 21.2372 9.33896 21.3542 9.8294 21.3868C11.2536 21.4815 12.7435 21.4817 14.1706 21.3868C18.3536 21.1087 21.6856 17.7295 21.9598 13.4872C21.9915 12.9965 22.0044 12.4955 21.9987 11.9963" stroke="#141B34" stroke-width="1.5" stroke-linecap="round" stroke-linejoin="round"/>
<path d="M17.9992 2C16.7328 2 15.9117 2.8076 14.9405 3.10196C14.5456 3.22165 14.3482 3.2815 14.2683 3.36586C14.1884 3.45022 14.165 3.5735 14.1182 3.82005C13.6174 6.4584 14.712 8.89759 17.3222 9.84699C17.6027 9.949 17.7429 10 18.0006 10C18.2583 10 18.3986 9.94899 18.679 9.84698C21.2891 8.89758 22.3826 6.45839 21.8817 3.82005C21.8349 3.57346 21.8114 3.45016 21.7315 3.36579C21.6516 3.28143 21.4542 3.22162 21.0593 3.10199C20.0878 2.80766 19.2657 2 17.9992 2Z" stroke="#141B34" stroke-width="1.5" stroke-linecap="round" stroke-linejoin="round"/>
<path d="M8.5 15H15.5M8.5 10H11" stroke="#141B34" stroke-width="1.5" stroke-linecap="round" stroke-linejoin="round"/>
</svg>
