<svg width="24" height="24" viewBox="0 0 24 24" fill="none" xmlns="http://www.w3.org/2000/svg">
<path d="M12 22C17.5228 22 22 17.5228 22 12C22 6.47715 17.5228 2 12 2C11.6518 2.03536 11.5947 2.66202 11.9166 2.7992C15.4929 4.323 18 7.87026 18 12.0031C18 16.1361 15.4926 19.6836 11.9161 21.2072C11.597 21.3431 11.6549 21.966 12 22Z" fill="white"/>
<path d="M18 12.0004C18 7.2031 14.622 3.19482 10.1148 2.22441L9.93397 2.21094C5.40243 3.16282 2 7.1827 2 11.9973C2 16.7933 5.37626 20.8007 9.88165 21.7725H10.1326C10.1861 21.7608 10.2394 21.7488 10.2925 21.7363C14.7105 20.7 18 16.7344 18 12.0004Z" fill="#D4D7E0"/>
<circle cx="12" cy="12" r="10" stroke="#141B34" stroke-width="1.5" stroke-linecap="round" stroke-linejoin="round"/>
<path d="M10 2.20312C14.5645 3.12967 18 7.16517 18 12.0031C18 16.841 14.5645 20.8765 10 21.8031" stroke="#141B34" stroke-width="1.5" stroke-linecap="round" stroke-linejoin="round"/>
</svg>
