<svg width="24" height="24" viewBox="0 0 24 24" fill="none" xmlns="http://www.w3.org/2000/svg">
<path d="M12 11C7.02944 11 3 11.9778 3 13.1839V13C3 6.92487 7.02944 2 12 2C16.9706 2 21 6.92487 21 13V13.1839C21 13.142 20.9951 13.1004 20.9855 13.059C20.7189 11.911 16.7979 11 12 11Z" fill="#D4D7E0"/>
<path d="M17 15C19.412 14.6082 21 13.9411 21 13.1839C21 11.9778 16.9706 11 12 11C7.02944 11 3 11.9778 3 13.1839C3 13.9411 4.58803 14.6082 7 15" stroke="#141B34" stroke-width="1.5" stroke-linecap="round"/>
<path d="M21 13C21 6.92487 16.9706 2 12 2C7.02944 2 3 6.92487 3 13" stroke="#141B34" stroke-width="1.5"/>
<path d="M18 4.76514C17.5348 5.50377 16.671 6 15.6823 6C14.2009 6 13 4.88603 13 3.51187C13 2.94318 13.2057 2.41905 13.5518 2" stroke="#141B34" stroke-width="1.5"/>
<path d="M13 3.51174C13 4.88589 14.2009 5.99986 15.6823 5.99986C16.6616 5.99986 17.5183 5.51307 17.9866 4.78612C16.736 3.42356 15.1722 2.48126 13.4437 2.14062C13.1633 2.53376 13 3.00506 13 3.51174Z" fill="white"/>
<path d="M18 4.76501C17.9956 4.77207 17.9911 4.7791 17.9866 4.78612M17.9866 4.78612C16.736 3.42356 15.1722 2.48126 13.4437 2.14062C13.1633 2.53376 13 3.00506 13 3.51174C13 4.88589 14.2009 5.99986 15.6823 5.99986C16.6616 5.99986 17.5183 5.51307 17.9866 4.78612Z" stroke="#141B34" stroke-width="1.5"/>
<path d="M10 11.5C9.99527 14.9495 9.90043 20.1752 8 22M14 11.5C14.0047 14.9495 14.0996 20.1752 16 22" stroke="#141B34" stroke-width="1.5" stroke-linecap="round" stroke-linejoin="round"/>
<path d="M9.00781 7L8.99883 7" stroke="#141B34" stroke-width="2" stroke-linecap="round" stroke-linejoin="round"/>
</svg>
