<svg width="24" height="24" viewBox="0 0 24 24" fill="none" xmlns="http://www.w3.org/2000/svg">
<path d="M13.5 3H10.5C7.20017 3 5.55025 3 4.52513 4.02513C3.5 5.05025 3.5 6.70017 3.5 10V15C3.5 16.2026 3.5 17.1861 3.54962 18L10.5 22H13.5C16.7998 22 18.4497 22 19.4749 20.9749C20.5 19.9497 20.5 18.2998 20.5 15V10C20.5 6.70017 20.5 5.05025 19.4749 4.02513C18.4497 3 16.7998 3 13.5 3Z" fill="#D4D7E0"/>
<path d="M10.9987 21.997L9.52215 19.6461C8.49239 18.0065 7.9775 17.1867 7.16111 17.0393C5.95614 16.8217 4.71454 17.5455 3.7793 18.2821C3.7858 18.2933 3.79246 18.3044 3.79928 18.3154C4.09798 18.7987 4.63589 19.0677 5.71173 19.6056L9.656 21.5777C10.3374 21.9184 10.4719 21.9842 10.9987 21.997Z" fill="white"/>
<path d="M11 22L9.52157 19.6461C8.49181 18.0065 7.97692 17.1867 7.16053 17.0393C5.83152 16.7993 4.45794 17.7045 3.5 18.509" stroke="#141B34" stroke-width="1.5"/>
<path d="M3.5 9V16.0279C3.5 17.2307 3.5 17.8321 3.7987 18.3154C4.0974 18.7987 4.63531 19.0677 5.71115 19.6056L9.65542 21.5777C10.4962 21.9981 10.5043 22 11.4443 22H14.5C17.3284 22 18.7426 22 19.6213 21.1213C20.5 20.2426 20.5 18.8284 20.5 16V9C20.5 6.17157 20.5 4.75736 19.6213 3.87868C18.7426 3 17.3284 3 14.5 3H9.5C6.67157 3 5.25736 3 4.37868 3.87868C3.5 4.75736 3.5 6.17157 3.5 9Z" stroke="#141B34" stroke-width="1.5"/>
<path d="M12 9H8M16 14H8" stroke="#141B34" stroke-width="1.5" stroke-linecap="round" stroke-linejoin="round"/>
<path d="M17 2V4M12 2V4M7 2V4" stroke="#141B34" stroke-width="1.5" stroke-linecap="round" stroke-linejoin="round"/>
</svg>
