<svg width="24" height="24" viewBox="0 0 24 24" fill="none" xmlns="http://www.w3.org/2000/svg">
<path d="M2 8.5C2 5.68353 2 4.2753 2.76359 3.31779C2.92699 3.11289 3.11289 2.92699 3.31779 2.76359C4.2753 2 5.68353 2 8.5 2C11.3165 2 12.7247 2 13.6822 2.76359C13.8871 2.92699 14.073 3.11289 14.2364 3.31779C15 4.2753 15 5.68353 15 8.5C15 11.3165 15 12.7247 14.2364 13.6822C14.073 13.8871 13.8871 14.073 13.6822 14.2364C12.7247 15 11.3165 15 8.5 15C5.68353 15 4.2753 15 3.31779 14.2364C3.11289 14.073 2.92699 13.8871 2.76359 13.6822C2 12.7247 2 11.3165 2 8.5Z" fill="#D4D7E0"/>
<path d="M9 15.5C9 12.6835 9 11.2753 9.76359 10.3178C9.92699 10.1129 10.1129 9.92699 10.3178 9.76359C11.2753 9 12.6835 9 15.5 9C18.3165 9 19.7247 9 20.6822 9.76359C20.8871 9.92699 21.073 10.1129 21.2364 10.3178C22 11.2753 22 12.6835 22 15.5C22 18.3165 22 19.7247 21.2364 20.6822C21.073 20.8871 20.8871 21.073 20.6822 21.2364C19.7247 22 18.3165 22 15.5 22C12.6835 22 11.2753 22 10.3178 21.2364C10.1129 21.073 9.92699 20.8871 9.76359 20.6822C9 19.7247 9 18.3165 9 15.5Z" fill="#D4D7E0"/>
<path d="M9.76082 10.3157C9.92442 10.1105 10.1105 9.92442 10.3157 9.76082C11.0862 9.14637 12.1482 9.02577 13.9994 9.0021C14.4721 8.99606 14.7084 8.99303 14.8577 9.14231C15.007 9.29159 15.0039 9.52792 14.9979 10.0006C14.9743 11.8517 14.8538 12.9135 14.2393 13.684C14.0757 13.8892 13.8896 14.0753 13.6845 14.2389C12.914 14.8534 11.8519 14.9742 10.0006 14.9979C9.52793 15.004 9.29161 15.007 9.14232 14.8577C8.99303 14.7084 8.99606 14.4721 9.0021 13.9994C9.02577 12.1482 9.14637 11.0862 9.76082 10.3157Z" fill="white"/>
<path d="M9.02795 12.996C9.08961 11.7402 9.26415 10.9321 9.75819 10.3126C9.92166 10.1076 10.1076 9.92166 10.3126 9.75819C10.9321 9.26415 11.7402 9.08961 12.996 9.02795M16.9978 9C18.8494 9.02356 19.9113 9.14388 20.6816 9.75819C20.8866 9.92166 21.0726 10.1076 21.2361 10.3126C22 11.2706 22 12.6794 22 15.4971C22 18.3148 22 19.7237 21.2361 20.6816C21.0726 20.8866 20.8866 21.0726 20.6816 21.2361C19.7237 22 18.3148 22 15.4971 22C12.6794 22 11.2706 22 10.3126 21.2361C10.1076 21.0726 9.92166 20.8866 9.75819 20.6816C9.14388 19.9113 9.02356 18.8494 9 16.9978" stroke="#141B34" stroke-width="1.5" stroke-linecap="round"/>
<path d="M14.9721 11.004C14.9104 12.2598 14.7359 13.0679 14.2418 13.6874C14.0783 13.8924 13.8924 14.0783 13.6874 14.2418C13.0679 14.7359 12.2598 14.9104 11.004 14.9721M7.00221 15C5.15059 14.9764 4.08869 14.8561 3.31837 14.2418C3.11338 14.0783 2.9274 13.8924 2.76393 13.6874C2 12.7294 2 11.3206 2 8.50287C2 5.68516 2 4.2763 2.76393 3.31837C2.9274 3.11338 3.11338 2.9274 3.31837 2.76393C4.2763 2 5.68516 2 8.50287 2C11.3206 2 12.7294 2 13.6874 2.76393C13.8924 2.9274 14.0783 3.11338 14.2418 3.31837C14.8561 4.08869 14.9764 5.15059 15 7.00221" stroke="#141B34" stroke-width="1.5" stroke-linecap="round"/>
</svg>
