<svg width="24" height="24" viewBox="0 0 24 24" fill="none" xmlns="http://www.w3.org/2000/svg">
<path d="M16.2498 16.4334C14.3307 19.4778 13.3712 21 12 21C10.6288 21 9.66926 19.4778 7.75025 16.4334L5.50587 12.8729C2.76382 8.5228 1.3928 6.34777 2.25742 4.67388C3.12205 3 5.61655 3 10.6056 3L13.3944 3C18.3834 3 20.878 3 21.7426 4.67389C22.6072 6.34777 21.2362 8.5228 18.4941 12.8729L16.2498 16.4334Z" fill="#D4D7E0"/>
<path d="M3.36193 9H20.6858H20.8494C20.2609 10.0683 19.4627 11.3346 18.4931 12.8728L18.4931 12.8729L17.1522 15H6.84562L5.5048 12.8729C4.53516 11.3346 3.73696 10.0683 3.14844 9H3.36193Z" fill="white"/>
<path d="M16.2498 16.4334C14.3307 19.4778 13.3712 21 12 21C10.6288 21 9.66926 19.4778 7.75025 16.4334L5.50587 12.8729C2.76382 8.5228 1.3928 6.34777 2.25742 4.67388C3.12205 3 5.61655 3 10.6056 3L13.3944 3C18.3834 3 20.878 3 21.7426 4.67389C22.6072 6.34777 21.2362 8.5228 18.4941 12.8729L16.2498 16.4334Z" stroke="#141B34" stroke-width="1.5" stroke-linejoin="round"/>
<path d="M21 9L3 9M17.1818 15L7 15" stroke="#141B34" stroke-width="1.5" stroke-linejoin="round"/>
</svg>
