<svg width="24" height="24" viewBox="0 0 24 24" fill="none" xmlns="http://www.w3.org/2000/svg">
<path d="M22 12C22 17.5228 17.5228 22 12 22C6.47715 22 2 17.5228 2 12C2 6.47715 6.47715 2 12 2C17.5228 2 22 6.47715 22 12Z" fill="#D4D7E0"/>
<path d="M12 22C17.5228 22 22 17.5228 22 12C22 11.7048 21.9872 11.4125 21.9621 11.1238C15.5 14 9.5 14 2.04938 11C2.01672 11.3289 2 11.6625 2 12C2 17.5228 6.47715 22 12 22Z" fill="white"/>
<path d="M22 12C22 17.5228 17.5228 22 12 22C6.47715 22 2 17.5228 2 12C2 6.47715 6.47715 2 12 2C17.5228 2 22 6.47715 22 12Z" stroke="#141B34" stroke-width="1.5"/>
<path d="M15 13C15 14.6569 13.6569 16 12 16C10.3431 16 9 14.6569 9 13C9 11.3431 10.3431 10 12 10C13.6569 10 15 11.3431 15 13Z" fill="white"/>
<path d="M15 13C15 14.6569 13.6569 16 12 16C10.3431 16 9 14.6569 9 13C9 11.3431 10.3431 10 12 10C13.6569 10 15 11.3431 15 13Z" stroke="#141B34" stroke-width="1.5"/>
<path d="M2 11C4.59628 12.0036 6.85307 12.668 8.99803 12.993M22 11.0031C19.4075 12.0125 17.152 12.6781 15.0021 13" stroke="#141B34" stroke-width="1.5"/>
</svg>
