<svg width="24" height="24" viewBox="0 0 24 24" fill="none" xmlns="http://www.w3.org/2000/svg">
<path d="M7.75025 7.56658C9.66927 4.52219 10.6288 3 12 3C13.3712 3 14.3307 4.52219 16.2498 7.56658L18.4941 11.1271C21.2362 15.4772 22.6072 17.6522 21.7426 19.3261C20.878 21 18.3834 21 13.3944 21L10.6056 21C5.61655 21 3.12205 21 2.25742 19.3261C1.3928 17.6522 2.76382 15.4772 5.50587 11.1271L7.75025 7.56658Z" fill="#D4D7E0"/>
<path d="M20.6381 15L3.31417 15L3.15058 15C3.7391 13.9317 4.5373 12.6654 5.50693 11.1272L5.50694 11.1271L6.84777 9L17.1544 9L18.4952 11.1271C19.4648 12.6654 20.263 13.9317 20.8516 15L20.6381 15Z" fill="white"/>
<path d="M7.75024 7.56659C9.66926 4.5222 10.6288 3 12 3C13.3712 3 14.3307 4.52219 16.2498 7.56658L18.4941 11.1271C21.2362 15.4772 22.6072 17.6522 21.7426 19.3261C20.878 21 18.3834 21 13.3944 21H10.6056C5.61655 21 3.12205 21 2.25742 19.3261C1.3928 17.6522 2.76382 15.4772 5.50587 11.1271L7.75024 7.56659Z" stroke="#141B34" stroke-width="1.5" stroke-linejoin="round"/>
<path d="M3 15H21M6.81818 9H17" stroke="#141B34" stroke-width="1.5" stroke-linejoin="round"/>
</svg>
