<svg width="24" height="24" viewBox="0 0 24 24" fill="none" xmlns="http://www.w3.org/2000/svg">
<path d="M3 10.5C3 15.1944 6.58172 19 11 19C11.778 19 12.5301 18.882 13.2413 18.6619C14.3558 18.4413 16.9265 17.2 18.2925 14C18.747 12.9326 19 11.7477 19 10.5C19 5.80558 15.4183 2 11 2C6.58172 2 3 5.80558 3 10.5Z" fill="#D4D7E0"/>
<path d="M17.1481 21.9966C20.037 21.9966 21 19.6742 21 16.8092C20.037 17.8462 17.3671 20.0161 16.1852 15.7716C14.7407 10.5842 10.5 11.4966 8 13.9966C11.8519 13.9966 12.3827 14.894 13.2963 17.8467C14.2593 20.9591 15.7037 21.9967 17.1481 21.9966Z" fill="white"/>
<path d="M17.1481 21.9966C20.037 21.9966 21 19.6742 21 16.8092C20.037 17.8462 17.3671 20.0161 16.1852 15.7716C14.7407 10.5842 10.5 11.4966 8 13.9966C11.8519 13.9966 12.3827 14.894 13.2963 17.8467C14.2593 20.9591 15.7037 21.9967 17.1481 21.9966Z" stroke="#141B34" stroke-width="1.5" stroke-linejoin="round"/>
<path d="M6.5154 11C6.5052 10.8351 6.5 10.6684 6.5 10.5C6.5 7.18629 8.51472 4.5 11 4.5C13.4853 4.5 15.5 7.18629 15.5 10.5C15.5 11.3922 15.262 12.2389 15 13" stroke="#141B34" stroke-width="1.5" stroke-linecap="round"/>
<path d="M13.2413 18.6619C12.5301 18.882 11.778 19 11 19C6.58172 19 3 15.1944 3 10.5C3 5.80558 6.58172 2 11 2C15.4183 2 19 5.80558 19 10.5C19 11.7477 18.747 12.9326 18.2925 14" stroke="#141B34" stroke-width="1.5" stroke-linecap="round" stroke-linejoin="round"/>
</svg>
