<svg width="24" height="24" viewBox="0 0 24 24" fill="none" xmlns="http://www.w3.org/2000/svg">
<path d="M17.3103 21.5632L19.6458 19.7823C20.6178 19.0411 21.1039 18.6704 20.9808 18.3359V2.33594L16.7148 5.94507V21.9451C16.8834 21.8887 17.0257 21.7802 17.3103 21.5632Z" fill="#D4D7E0"/>
<path d="M7.68924 2.43826L5.3538 4.21913C4.38173 4.96038 3.89569 5.33101 4.01879 5.6655C4.14189 6 4.76432 6 6.00918 6H16C16.3645 6 16.5467 6 16.7153 5.94363C16.8839 5.88726 17.0262 5.77875 17.3108 5.56174L19.6462 3.78087C20.6183 3.03962 21.1043 2.66899 20.9812 2.3345C20.8581 2 20.2357 2 18.9908 2H9C8.63555 2 8.45332 2 8.28472 2.05637C8.11612 2.11274 7.97383 2.22125 7.68924 2.43826Z" fill="white"/>
<path d="M7.68924 2.43826L5.3538 4.21913C4.38173 4.96038 3.89569 5.33101 4.01879 5.6655C4.14189 6 4.76432 6 6.00918 6H16C16.3645 6 16.5467 6 16.7153 5.94363C16.8839 5.88726 17.0262 5.77875 17.3108 5.56174L19.6462 3.78087C20.6183 3.03962 21.1043 2.66899 20.9812 2.3345C20.8581 2 20.2357 2 18.9908 2H9C8.63555 2 8.45332 2 8.28472 2.05637C8.11612 2.11274 7.97383 2.22125 7.68924 2.43826Z" stroke="#141B34" stroke-width="1.5"/>
<path d="M4.01879 21.6669C4.14189 22.0014 4.76432 22.0014 6.00918 22.0014H16C16.3645 22.0014 16.5467 22.0014 16.7153 21.9451M4.01879 21.6669C3.89569 21.3324 4.38173 20.9618 5.3538 20.2206L7.68924 18.4397C7.97383 18.2227 8.11612 18.1142 8.28472 18.0578M4.01879 21.6669V5.66694M8.28472 18.0578C8.45332 18.0014 8.63555 18.0014 9 18.0014H14M8.28472 18.0578V9.00144M16.7153 21.9451C16.8839 21.8887 17.0262 21.7802 17.3108 21.5632L19.6462 19.7823C20.6183 19.0411 21.1043 18.6704 20.9812 18.3359V2.33594M16.7153 21.9451V5.94507" stroke="#141B34" stroke-width="1.5" stroke-linecap="round" stroke-linejoin="round"/>
</svg>
