<svg width="24" height="24" viewBox="0 0 24 24" fill="none" xmlns="http://www.w3.org/2000/svg">
<path d="M20.0649 5.99786L20.4035 5.99812C20.6842 5.99855 20.8246 5.99877 20.9123 6.08661C21 6.17445 21 6.31514 21 6.59653V17.3979C21 17.6807 21 17.8221 20.9121 17.91C20.8243 17.9979 20.6829 17.9979 20.4001 17.9979H20.0649C18.7956 17.9979 17.2771 18.2029 16.1111 17.5246C15.2976 17.0513 14.7629 16.1793 13.6935 14.4355L12.1206 11.8705C11.3975 13.0124 10.7042 14.1914 10.3582 14.9979C9.50904 16.3727 9.00708 17.1051 8.2862 17.5246C7.47269 17.9979 6.50873 17.9979 4.58082 17.9979C3.70776 17.9979 3 17.2901 3 16.417V5.99786H4.58082C6.50873 5.99786 7.47269 5.99786 8.2862 6.47117C9.0997 6.94447 9.63441 7.8164 10.7038 9.56026L12.1206 11.8705C12.8321 10.7469 13.5725 9.65917 14.0392 8.99786C14.8883 7.62303 15.3903 6.89058 16.1111 6.47117C17.2771 5.7928 18.7956 5.99786 20.0649 5.99786Z" fill="#D4D7E0"/>
<path d="M19.5576 4L20.4551 4.97574C20.8561 5.41165 21.0566 5.62961 20.9861 5.81481C20.9155 6 20.632 6 20.0649 6C18.7956 6 17.2771 5.79493 16.1111 6.4733C15.3903 6.89272 14.8883 7.62517 14.0392 9M3 18H4.58082C6.50873 18 7.47269 18 8.2862 17.5267C9.00708 17.1073 9.50904 16.3748 10.3582 15" stroke="#141B34" stroke-width="1.5" stroke-linecap="round" stroke-linejoin="round"/>
<path d="M19.5576 20L20.4551 19.0243C20.8561 18.5883 21.0566 18.3704 20.9861 18.1852C20.9155 18 20.632 18 20.0649 18C18.7956 18 17.2771 18.2051 16.1111 17.5267C15.2976 17.0534 14.7629 16.1815 13.6935 14.4376L10.7038 9.5624C9.63441 7.81853 9.0997 6.9466 8.2862 6.4733C7.47269 6 6.50873 6 4.58082 6H3" stroke="#141B34" stroke-width="1.5" stroke-linecap="round" stroke-linejoin="round"/>
</svg>
