<svg width="24" height="24" viewBox="0 0 24 24" fill="none" xmlns="http://www.w3.org/2000/svg">
<path d="M10 21H14C17.2792 21 18.9188 21 20.0811 20.0845C20.5111 19.7457 20.8851 19.325 21.1862 18.8412C22 17.5337 22 15.6891 22 12C22 11.0523 22 10.2264 21.9862 9.5H2.01379C2 10.2264 2 11.0523 2 12C2 15.6891 2 17.5337 2.81382 18.8412C3.1149 19.325 3.48891 19.7457 3.91891 20.0845C5.08116 21 6.72077 21 10 21Z" fill="#D4D7E0"/>
<path d="M14.0018 3H10.0018C6.7226 3 5.08299 3 3.92074 3.91554C3.49074 4.25427 3.11673 4.67502 2.81565 5.15877C2.21088 6.13042 2.05553 7.39864 2.01562 9.5H21.988C21.9481 7.39864 21.7928 6.13042 21.188 5.15877C20.8869 4.67502 20.5129 4.25427 20.0829 3.91554C18.9207 3 17.2811 3 14.0018 3Z" fill="white"/>
<path d="M2 12C2 8.31087 2 6.4663 2.81382 5.15877C3.1149 4.67502 3.48891 4.25427 3.91891 3.91554C5.08116 3 6.72077 3 10 3H14C17.2792 3 18.9188 3 20.0811 3.91554C20.5111 4.25427 20.8851 4.67502 21.1862 5.15877C22 6.4663 22 8.31087 22 12C22 15.6891 22 17.5337 21.1862 18.8412C20.8851 19.325 20.5111 19.7457 20.0811 20.0845C18.9188 21 17.2792 21 14 21H10C6.72077 21 5.08116 21 3.91891 20.0845C3.48891 19.7457 3.1149 19.325 2.81382 18.8412C2 17.5337 2 15.6891 2 12Z" stroke="#141B34" stroke-width="1.5"/>
<path d="M2 9.5L22 9.5" stroke="#141B34" stroke-width="1.5" stroke-linejoin="round"/>
<path d="M6 6H7M10 6H11" stroke="#141B34" stroke-width="1.5" stroke-linecap="round" stroke-linejoin="round"/>
</svg>
