<svg width="24" height="24" viewBox="0 0 24 24" fill="none" xmlns="http://www.w3.org/2000/svg">
<path d="M14 3H10C6.72077 3 5.08116 3 3.91891 3.91554C3.48891 4.25427 3.1149 4.67502 2.81382 5.15877C2 6.4663 2 8.31087 2 12C2 12.9477 2 13.7736 2.01379 14.5H21.9862C22 13.7736 22 12.9477 22 12C22 8.31087 22 6.4663 21.1862 5.15877C20.8851 4.67502 20.5111 4.25427 20.0811 3.91554C18.9188 3 17.2792 3 14 3Z" fill="#D4D7E0"/>
<path d="M10.0018 21H14.0018C17.2811 21 18.9207 21 20.0829 20.0845C20.5129 19.7457 20.8869 19.325 21.188 18.8412C21.7928 17.8696 21.9481 16.6014 21.988 14.5H2.01562C2.05553 16.6014 2.21088 17.8696 2.81565 18.8412C3.11673 19.325 3.49074 19.7457 3.92074 20.0845C5.08299 21 6.7226 21 10.0018 21Z" fill="white"/>
<path d="M2 12C2 8.31087 2 6.4663 2.81382 5.15877C3.1149 4.67502 3.48891 4.25427 3.91891 3.91554C5.08116 3 6.72077 3 10 3H14C17.2792 3 18.9188 3 20.0811 3.91554C20.5111 4.25427 20.8851 4.67502 21.1862 5.15877C22 6.4663 22 8.31087 22 12C22 15.6891 22 17.5337 21.1862 18.8412C20.8851 19.325 20.5111 19.7457 20.0811 20.0845C18.9188 21 17.2792 21 14 21H10C6.72077 21 5.08116 21 3.91891 20.0845C3.48891 19.7457 3.1149 19.325 2.81382 18.8412C2 17.5337 2 15.6891 2 12Z" stroke="#141B34" stroke-width="1.5"/>
<path d="M2 14.5L22 14.5" stroke="#141B34" stroke-width="1.5" stroke-linejoin="round"/>
<path d="M6 18H7M10 18H11" stroke="#141B34" stroke-width="1.5" stroke-linecap="round" stroke-linejoin="round"/>
</svg>
