<svg width="24" height="24" viewBox="0 0 24 24" fill="none" xmlns="http://www.w3.org/2000/svg">
<path d="M5 17.5554V6.45183C5 5.73516 5 5.37682 5.11946 5.04688H18.8805C19 5.37682 19 5.73516 19 6.45183V17.5554C19 18.2721 19 18.6304 18.8805 18.9604H5.11946C5 18.6304 5 18.2721 5 17.5554Z" fill="#D4D7E0"/>
<circle cx="12" cy="12" r="2.5" fill="white"/>
<path d="M5.9268 3.88746L6.89999 2.71963L6.89999 2.71963C7.19489 2.36576 7.34233 2.18882 7.5439 2.09441C7.74547 2 7.97579 2 8.43643 2H15.5629C16.0236 2 16.2539 2 16.4555 2.09441C16.657 2.18882 16.8045 2.36576 17.0994 2.71963L18.0726 3.88746C18.5137 4.41688 18.1525 5.04325 17.4634 5.04325H6.53602C5.84687 5.04325 5.48562 4.41688 5.9268 3.88746Z" fill="white"/>
<path d="M7.19984 21.6366L5.9268 20.1089C5.48562 19.5795 5.84688 18.9531 6.53602 18.9531H17.4634C18.1525 18.9531 18.5137 19.5795 18.0726 20.1089L16.7995 21.6366C16.6521 21.8135 16.5784 21.902 16.4776 21.9492C16.3768 21.9964 16.2616 21.9964 16.0313 21.9964H7.96806C7.73774 21.9964 7.62258 21.9964 7.52179 21.9492C7.42101 21.902 7.34728 21.8135 7.19984 21.6366Z" fill="white"/>
<path d="M5.92711 3.88746L6.90031 2.71963C7.1952 2.36576 7.34265 2.18882 7.54422 2.09441C7.74579 2 7.97611 2 8.43675 2H15.5633C16.0239 2 16.2542 2 16.4558 2.09441C16.6574 2.18882 16.8048 2.36576 17.0997 2.71963L18.0729 3.88746C18.5317 4.43802 18.7611 4.7133 18.8805 5.04325C19 5.3732 19 5.73153 19 6.4482V17.5518C19 18.2685 19 18.6268 18.8805 18.9568C18.7611 19.2867 18.5317 19.562 18.0729 20.1125L16.7998 21.6402C16.6524 21.8171 16.5787 21.9056 16.4779 21.9528C16.3771 22 16.2619 22 16.0316 22H7.96837C7.73805 22 7.6229 22 7.52211 21.9528C7.42132 21.9056 7.3476 21.8171 7.20015 21.6402L5.92711 20.1125C5.46831 19.562 5.23891 19.2867 5.11946 18.9568C5 18.6268 5 18.2685 5 17.5518V6.4482C5 5.73153 5 5.3732 5.11946 5.04325C5.23891 4.7133 5.46831 4.43802 5.92711 3.88746Z" stroke="#141B34" stroke-width="1.5" stroke-linecap="round"/>
<path d="M5 5L19 5" stroke="#141B34" stroke-width="1.5"/>
<path d="M5 19H19" stroke="#141B34" stroke-width="1.5"/>
<path d="M6 2H18" stroke="#141B34" stroke-width="1.5" stroke-linecap="round"/>
<circle cx="12" cy="12" r="2.5" stroke="#141B34" stroke-width="1.5"/>
</svg>
