<svg width="24" height="24" viewBox="0 0 24 24" fill="none" xmlns="http://www.w3.org/2000/svg">
<path d="M13 3H11C9.12274 3 7.6608 3 6.5 3.11418V20.8858C7.6608 21 9.12274 21 11 21H13C17.2426 21 19.364 21 20.682 19.682C22 18.364 22 16.2426 22 12C22 7.75736 22 5.63604 20.682 4.31802C19.364 3 17.2426 3 13 3Z" fill="#D4D7E0"/>
<path d="M3.31802 19.685C2 18.367 2 16.2456 2 12.003C2 7.76037 2 5.63905 3.31802 4.32103C4.05285 3.5862 5.03737 3.26106 6.5 3.11719V20.8888C5.03737 20.745 4.05285 20.4198 3.31802 19.685Z" fill="white"/>
<path d="M14.7874 9.20339C15.0791 8.91171 15.225 8.76587 15.3767 8.67828C15.7884 8.44057 16.2957 8.44057 16.7074 8.67828C16.8591 8.76587 17.0049 8.91171 17.2966 9.20339C17.5883 9.49507 17.7341 9.64091 17.8217 9.79263C18.0594 10.2043 18.0594 10.7116 17.8217 11.1233C17.7341 11.275 17.5883 11.4209 17.2966 11.7126L14.4022 14.6069C13.824 15.1852 12.9513 15.2087 12.1793 15.3738C11.5756 15.5028 11.2737 15.5674 11.1032 15.3968C10.9326 15.2263 10.9972 14.9244 11.1262 14.3207C11.2913 13.5487 11.3148 12.676 11.8931 12.0978L14.7874 9.20339Z" fill="white"/>
<path d="M2 12C2 7.75736 2 5.63604 3.31802 4.31802C4.63604 3 6.75736 3 11 3H13C17.2426 3 19.364 3 20.682 4.31802C22 5.63604 22 7.75736 22 12C22 16.2426 22 18.364 20.682 19.682C19.364 21 17.2426 21 13 21H11C6.75736 21 4.63604 21 3.31802 19.682C2 18.364 2 16.2426 2 12Z" stroke="#141B34" stroke-width="1.5"/>
<path d="M12.1793 15.3738L12.0224 14.6403H12.0224L12.1793 15.3738ZM11.1262 14.3207L11.8597 14.4776L11.1262 14.3207ZM11.8931 12.0978L11.3628 11.5674H11.3628L11.8931 12.0978ZM17.8217 9.79263L18.4712 9.41763L17.8217 9.79263ZM17.8217 11.1233L18.4712 11.4983L17.8217 11.1233ZM16.7074 8.67828L17.0824 8.02876V8.02876L16.7074 8.67828ZM14.7874 9.20339L15.3178 9.73372L14.7874 9.20339ZM15.3767 8.67828L15.0017 8.02876V8.02876L15.3767 8.67828ZM16.7663 11.1822L13.8719 14.0766L14.9326 15.1372L17.8269 12.2429L16.7663 11.1822ZM12.4234 12.6281L15.3178 9.73372L14.2571 8.67306L11.3628 11.5674L12.4234 12.6281ZM12.0224 14.6403C11.8685 14.6732 11.7472 14.6991 11.6433 14.7184C11.5383 14.738 11.4729 14.7465 11.4312 14.7492C11.388 14.7519 11.4022 14.7459 11.4456 14.7571C11.5015 14.7715 11.5728 14.8058 11.6335 14.8665L10.5728 15.9272C10.8844 16.2388 11.272 16.2623 11.5264 16.2461C11.7673 16.2308 12.0586 16.1665 12.3361 16.1072L12.0224 14.6403ZM10.3928 14.1639C10.3335 14.4414 10.2692 14.7327 10.2539 14.9736C10.2377 15.228 10.2612 15.6156 10.5728 15.9272L11.6335 14.8665C11.6942 14.9272 11.7285 14.9985 11.7429 15.0544C11.7541 15.0978 11.7481 15.112 11.7508 15.0688C11.7535 15.0271 11.762 14.9617 11.7816 14.8567C11.8009 14.7528 11.8268 14.6315 11.8597 14.4776L10.3928 14.1639ZM16.7663 9.73372C17.0921 10.0595 17.1464 10.123 17.1722 10.1676L18.4712 9.41763C18.3218 9.15885 18.0845 8.9306 17.8269 8.67306L16.7663 9.73372ZM17.8269 12.2429C18.0845 11.9853 18.3218 11.7571 18.4712 11.4983L17.1722 10.7483C17.1464 10.793 17.0921 10.8564 16.7663 11.1822L17.8269 12.2429ZM17.1722 10.1676C17.2759 10.3473 17.2759 10.5687 17.1722 10.7483L18.4712 11.4983C18.8429 10.8545 18.8429 10.0614 18.4712 9.41763L17.1722 10.1676ZM17.8269 8.67306C17.5694 8.41553 17.3412 8.17817 17.0824 8.02876L16.3324 9.3278C16.377 9.35358 16.4405 9.4079 16.7663 9.73372L17.8269 8.67306ZM15.3178 9.73372C15.6436 9.4079 15.707 9.35358 15.7517 9.3278L15.0017 8.02876C14.7429 8.17817 14.5147 8.41553 14.2571 8.67306L15.3178 9.73372ZM17.0824 8.02876C16.4386 7.65708 15.6455 7.65708 15.0017 8.02876L15.7517 9.3278C15.9313 9.22407 16.1527 9.22407 16.3324 9.3278L17.0824 8.02876ZM13.8719 14.0766C13.7177 14.2308 13.5023 14.3357 13.1779 14.4186C13.0153 14.4601 12.8409 14.4924 12.6433 14.5266C12.4545 14.5592 12.2342 14.595 12.0224 14.6403L12.3361 16.1072C12.5103 16.0699 12.6886 16.0409 12.8987 16.0047C13.0999 15.9699 13.3246 15.9292 13.549 15.872C13.9985 15.7572 14.5086 15.5613 14.9326 15.1372L13.8719 14.0766ZM11.8597 14.4776C11.905 14.2658 11.9408 14.0455 11.9734 13.8567C12.0076 13.6591 12.0399 13.4847 12.0814 13.3221C12.1643 12.9977 12.2692 12.7823 12.4234 12.6281L11.3628 11.5674C10.9387 11.9914 10.7428 12.5015 10.628 12.951C10.5708 13.1754 10.5301 13.4001 10.4953 13.6013C10.4591 13.8114 10.4301 13.9897 10.3928 14.1639L11.8597 14.4776Z" fill="#141B34"/>
<path d="M6.5 3V21" stroke="#141B34" stroke-width="1.5" stroke-linejoin="round"/>
</svg>
