<svg width="24" height="24" viewBox="0 0 24 24" fill="none" xmlns="http://www.w3.org/2000/svg">
<path d="M5 21.9977V16.9977C7 15.331 12.6 12.9977 19 16.9977V21.9977H5Z" fill="white"/>
<path d="M12 2.98622C13.1608 1.53312 15.0599 1.11988 16.7067 1.00235C16.898 0.988697 17.0883 1.03491 17.2549 1.13018L19.8419 2.61C20.2309 2.83249 20.4253 3.28669 20.2997 3.71716C19.6776 5.84899 18.6981 8.37328 19.6921 10.4128C20.2104 11.4762 21 12.2213 21 13.4966C21 15.4315 19.4331 17 17.5002 17C13.1003 15.4 8.33333 16.3333 6.49985 17C4.56694 17 3 15.4315 3 13.4966C3 12.2213 3.78962 11.4762 4.30792 10.4128C5.30191 8.37328 4.32241 5.84899 3.70035 3.71716C3.57474 3.28669 3.76911 2.83249 4.15808 2.61L6.7451 1.13018C6.91166 1.03491 7.102 0.988697 7.29334 1.00235C8.94011 1.11988 10.8392 1.53312 12 2.98622Z" fill="#D4D7E0"/>
<path d="M16.6262 1.00632C15.0114 1.12379 13.1492 1.53685 12.011 2.9893C10.8728 1.53685 9.70256 1.11936 8.08781 1.00189C7.99063 0.994817 7.20176 1.00823 7.10822 1.03177C7.03188 1.73426 6.99826 2.38514 7.00157 2.98777L7 2.98745C7.01908 6.39838 8.22144 8.2634 9.55803 9.19518C10.4115 9.79013 11.3212 10.0064 12.011 9.99992C12.9728 9.93304 13.7602 9.6403 14.4016 9.19518C16.303 7.87562 16.9208 5.20079 16.9927 2.98932C17.0161 2.26594 16.9813 1.59219 16.9138 1.03177C16.8202 1.00823 16.7233 0.999252 16.6262 1.00632Z" fill="white"/>
<path d="M16.6168 1C16.8637 1.76959 17 2.6141 17 3.5C17 7.08985 14.7614 10 12 10C9.23858 10 7 7.08985 7 3.5C7 2.6141 7.13633 1.76959 7.3832 1" stroke="#141B34" stroke-width="1.5"/>
<path d="M17.5002 17C19.4331 17 21 15.4315 21 13.4966C21 12.2213 20.2104 11.4762 19.6921 10.4128C18.6981 8.37328 19.6776 5.84899 20.2997 3.71716C20.4253 3.28669 20.2309 2.8325 19.8419 2.61L17.2549 1.13018C17.0883 1.03491 16.898 0.988697 16.7067 1.00235C15.0599 1.11988 13.1608 1.53312 12 2.98622C10.8392 1.53312 8.94012 1.11988 7.29334 1.00235C7.102 0.988697 6.91166 1.03491 6.7451 1.13018L4.15808 2.61C3.76911 2.8325 3.57474 3.28669 3.70035 3.71716C4.32241 5.84899 5.30191 8.37328 4.30792 10.4128C3.78962 11.4762 3 12.2213 3 13.4966C3 15.4315 4.56694 17 6.49985 17" stroke="#141B34" stroke-width="1.5" stroke-linecap="round" stroke-linejoin="round"/>
<path d="M14 16.25C12.5235 15.632 11.661 15.5364 10 16.25" stroke="#141B34" stroke-width="1.5" stroke-linecap="round"/>
<path d="M5 17V22" stroke="#141B34" stroke-width="1.5" stroke-linecap="round"/>
<path d="M19 17V22" stroke="#141B34" stroke-width="1.5" stroke-linecap="round"/>
<path d="M17 3C15.2742 3.45112 14 5.03024 14 6.90903C14 7.67442 14.2115 8.39008 14.5788 9M7 3C8.72577 3.45112 10 5.03024 10 6.90903C10 7.67442 9.78852 8.39008 9.4212 9" stroke="#141B34" stroke-width="1.5" stroke-linecap="round"/>
</svg>
