<svg width="24" height="24" viewBox="0 0 24 24" fill="none" xmlns="http://www.w3.org/2000/svg">
<path d="M13.8801 15.9369L20.6738 8.17267C21.4217 7.31791 21.7956 6.89053 21.9252 6.41326C22.0376 5.99901 22.023 5.56052 21.8833 5.15466C21.7223 4.68707 21.3207 4.28551 20.5176 3.4824C19.7145 2.67928 19.3129 2.27773 18.8453 2.11672C18.4395 1.97696 18.001 1.96236 17.5867 2.07481C17.1095 2.20436 16.6821 2.57832 15.8273 3.32623L8.06312 10.1199C7.1074 10.9562 6.62955 11.3743 6.34846 11.9258C6.06738 12.4774 6.00989 13.1098 5.89492 14.3745L5.87152 14.6319C5.81078 15.3 5.78041 15.6341 5.65293 15.9386C5.52546 16.2431 5.30877 16.4992 4.8754 17.0114L2.27543 20.0841C1.88438 20.5462 1.91286 21.231 2.34094 21.6591C2.76903 22.0871 3.45379 22.1156 3.91594 21.7246L6.98863 19.1246C7.5008 18.6912 7.75689 18.4745 8.06139 18.3471C8.36589 18.2196 8.69998 18.1892 9.36814 18.1285L9.62553 18.1051C10.8902 17.9901 11.5226 17.9326 12.0742 17.6515C12.6257 17.3704 13.0438 16.8926 13.8801 15.9369Z" fill="#D4D7E0"/>
<path d="M9.36814 18.1257L9.62553 18.1024H9.62554C10.8902 17.9874 11.5226 17.9299 12.0742 17.6488C12.6257 17.3677 13.0438 16.8899 13.8801 15.9342L12.5 13.9973C9.5 16.5 8.5 13 9.62553 10.9973C8.6893 10.4699 7.46263 10.5333 6.75322 11.3404C6.58224 11.5349 6.452 11.72 6.34846 11.9231C6.06738 12.4747 6.00989 13.107 5.89492 14.3717L5.87152 14.6291L5.87152 14.6291C5.81078 15.2973 5.78041 15.6314 5.65293 15.9359C5.52546 16.2404 5.30877 16.4965 4.8754 17.0086L2.27543 20.0813C1.88438 20.5435 1.91286 21.2282 2.34094 21.6563C2.76903 22.0844 3.45379 22.1129 3.91594 21.7218L6.98863 19.1219C7.5008 18.6885 7.75689 18.4718 8.06139 18.3443C8.36589 18.2169 8.69997 18.1865 9.36813 18.1257H9.36814Z" fill="white"/>
<path d="M13.8801 15.9369L20.6738 8.17267C21.4217 7.31791 21.7956 6.89053 21.9252 6.41326C22.0376 5.99901 22.023 5.56052 21.8833 5.15466C21.7223 4.68707 21.3207 4.28551 20.5176 3.4824C19.7145 2.67928 19.3129 2.27773 18.8453 2.11672C18.4395 1.97696 18.001 1.96236 17.5867 2.07481C17.1095 2.20436 16.6821 2.57832 15.8273 3.32623L8.06312 10.1199C7.10741 10.9562 6.62955 11.3743 6.34846 11.9258C6.06738 12.4774 6.00989 13.1098 5.89492 14.3745L5.87152 14.6319C5.81078 15.3 5.78041 15.6341 5.65293 15.9386C5.52546 16.2431 5.30877 16.4992 4.8754 17.0114L2.27543 20.0841C1.88438 20.5462 1.91286 21.231 2.34094 21.6591C2.76903 22.0871 3.45379 22.1156 3.91594 21.7246L6.98863 19.1246C7.5008 18.6912 7.75689 18.4745 8.06139 18.3471C8.36589 18.2196 8.69998 18.1892 9.36814 18.1285L9.62553 18.1051C10.8902 17.9901 11.5226 17.9326 12.0741 17.6515C12.6257 17.3704 13.0438 16.8926 13.8801 15.9369Z" stroke="#141B34" stroke-width="1.5" stroke-linecap="round" stroke-linejoin="round"/>
<path d="M7.78906 9.89844L9.36983 10.8469C9.74255 11.0705 9.86341 11.554 9.63978 11.9267L9.34781 12.4133C8.96198 13.0564 9.06331 13.8795 9.59357 14.4097C10.1238 14.94 10.9469 15.0413 11.59 14.6555L12.0766 14.3635C12.4493 14.1399 12.9328 14.2607 13.1564 14.6335L14.1049 16.2142" stroke="#141B34" stroke-width="1.5" stroke-linejoin="round"/>
<path d="M17.2634 6.73438L14.1055 9.89227" stroke="#141B34" stroke-width="1.5" stroke-linecap="round" stroke-linejoin="round"/>
</svg>
