<svg width="24" height="24" viewBox="0 0 24 24" fill="none" xmlns="http://www.w3.org/2000/svg">
<path d="M15 5C15 6.65685 13.2418 8.5 12 8.5C10.7582 8.5 9 6.65685 9 5C9 3.34315 10.3431 2 12 2C13.6569 2 15 3.34315 15 5Z" fill="white"/>
<path d="M13.1977 8H10.8023C7.35836 8 5.03641 11.5806 6.39304 14.7994C6.58202 15.2477 7.0156 15.5385 7.49535 15.5385H8.33892C8.62326 15.5385 8.87111 15.7352 8.94007 16.0157L10.0261 20.4328C10.2525 21.3539 11.0663 22 12 22C12.9337 22 13.7475 21.3539 13.9739 20.4328L15.0599 16.0157C15.1289 15.7352 15.3767 15.5385 15.6611 15.5385H16.5047C16.9844 15.5385 17.418 15.2477 17.607 14.7994C18.9636 11.5806 16.6416 8 13.1977 8Z" fill="#D4D7E0"/>
<path d="M15 5C15 6.65685 13.2418 8.5 12 8.5C10.7582 8.5 9 6.65685 9 5C9 3.34315 10.3431 2 12 2C13.6569 2 15 3.34315 15 5Z" stroke="#141B34" stroke-width="1.5"/>
<path d="M16.0415 9C17.5645 10.3353 18.5513 12.5969 17.6651 14.7052C17.4742 15.1594 17.0361 15.4539 16.5514 15.4539C16.0585 15.4539 15.2489 15.296 15.0917 15.9374L13.9944 20.4123C13.7656 21.3454 12.9433 22 12 22C11.0567 22 10.2344 21.3454 10.0056 20.4123L8.90833 15.9374C8.75103 15.296 7.94149 15.4539 7.44862 15.4539C6.9639 15.4539 6.52582 15.1594 6.33488 14.7052C5.44866 12.5969 6.43558 10.3353 7.95857 9" stroke="#141B34" stroke-width="1.5" stroke-linecap="round"/>
</svg>
