<svg width="24" height="24" viewBox="0 0 24 24" fill="none" xmlns="http://www.w3.org/2000/svg">
<path d="M22 12C22 17.5228 17.5228 22 12 22C6.47715 22 2 17.5228 2 12C2 6.47715 6.47715 2 12 2C17.5228 2 22 6.47715 22 12Z" fill="#D4D7E0"/>
<path d="M22 12C22 17.5228 17.5228 22 12 22C6.47715 22 2 17.5228 2 12C2 6.47715 6.47715 2 12 2C17.5228 2 22 6.47715 22 12Z" stroke="#141B34" stroke-width="1.5"/>
<path d="M9 7.9989C11.087 6.11258 16.3261 5.1271 20.5 7.01322L20.7239 7.10711C21.5365 8.55326 22 10.222 22 11.9989C22 12.1142 21.998 12.229 21.9942 12.3434C21.9961 12.3452 21.9981 12.3469 22 12.3487L21.9929 12.3781C21.9934 12.3666 21.9938 12.355 21.9942 12.3434C20.8564 11.3153 19.1241 10.735 16.8359 10.7337L16.8885 10.9989C17.4777 13.8936 15.7144 19.1872 12 21.9989C9.90985 21.9989 7.96947 21.3576 6.36487 20.2611L7 19.9989C7.94457 19.5707 9.27045 18.6065 10.2815 17.1557L10 16.9989C7.37458 15.7385 4.15837 10.9584 4 5.9989L4.09472 5.87388C5.15665 4.50528 6.56615 3.41984 8.19076 2.75L8.12046 2.9989C7.83177 4.04719 7.76738 6.07966 8.8229 8.17341L9 7.9989Z" fill="white"/>
<path d="M12 21.9989V22.7489H12.2519L12.4527 22.5969L12 21.9989ZM8.12046 2.9989L7.39868 2.79504L7.39738 2.79977L8.12046 2.9989ZM22 12.3487L22.7294 12.5234C22.7932 12.257 22.7067 11.977 22.5037 11.793L22 12.3487ZM7 19.9989L7.28623 20.6921C7.2941 20.6889 7.30191 20.6855 7.30967 20.682L7 19.9989ZM9 7.9989L8.49709 7.4425C8.4891 7.44973 8.48126 7.45712 8.47359 7.46468L9 7.9989ZM20.5 7.01322L20.1912 7.69668C20.1974 7.69949 20.2036 7.70222 20.2099 7.70486L20.5 7.01322ZM16.8885 10.9989L16.1528 11.1448L16.1536 11.1485L16.8885 10.9989ZM10 16.9989L10.3649 16.3437C10.3517 16.3363 10.3382 16.3293 10.3246 16.3228L10 16.9989ZM4 5.9989L3.40219 5.546C3.29849 5.68288 3.2449 5.8512 3.25038 6.02284L4 5.9989ZM6.36487 20.2611L6.07864 19.5679C5.824 19.673 5.6475 19.9093 5.61892 20.1833C5.59033 20.4573 5.71426 20.7249 5.94172 20.8804L6.36487 20.2611ZM10.2815 17.1557L10.8968 17.5845L10.2815 17.1557ZM16.8359 10.7337L16.8364 9.98368L16.8359 10.7337ZM20.7239 7.10711L21.3777 6.73969C21.2959 6.59414 21.1679 6.48004 21.0139 6.41547L20.7239 7.10711ZM8.8229 8.17341L8.15319 8.51103L8.8229 8.17341ZM8.19076 2.75L8.91253 2.95386C8.99058 2.6775 8.90399 2.38084 8.68952 2.18987C8.47505 1.9989 8.17037 1.94716 7.90488 2.05662L8.19076 2.75ZM21.9929 12.3781L21.2435 12.3502C21.2291 12.7354 21.5091 13.0688 21.8911 13.1212C22.273 13.1735 22.6325 12.9278 22.7223 12.5529L21.9929 12.3781ZM4.09472 5.87388L3.50213 5.41408L3.49691 5.42098L4.09472 5.87388ZM9.50291 8.5553C10.3901 7.75337 12.0519 7.07214 14.0551 6.83625C16.0394 6.60258 18.2511 6.82001 20.1912 7.69668L20.8088 6.32976C18.575 5.32031 16.0802 5.08741 13.8797 5.34654C11.6981 5.60344 9.69681 6.35812 8.49709 7.4425L9.50291 8.5553ZM16.1536 11.1485C16.4084 12.4004 16.1624 14.2903 15.3638 16.2466C14.5714 18.1874 13.2749 20.0932 11.5473 21.4009L12.4527 22.5969C14.4395 21.0929 15.8819 18.9461 16.7525 16.8135C17.6168 14.6963 17.9578 12.4921 17.6235 10.8493L16.1536 11.1485ZM10.3246 16.3228C9.19945 15.7826 7.83503 14.4127 6.72249 12.5078C5.62082 10.6215 4.82409 8.30718 4.74962 5.97497L3.25038 6.02284C3.33428 8.6501 4.22484 11.2056 5.42722 13.2643C6.61873 15.3044 8.17513 16.9548 9.67542 17.675L10.3246 16.3228ZM12 21.2489C10.0656 21.2489 8.27191 20.6559 6.78802 19.6419L5.94172 20.8804C7.66702 22.0594 9.75412 22.7489 12 22.7489V21.2489ZM6.71377 19.3057L6.07864 19.5679L6.65109 20.9544L7.28623 20.6921L6.71377 19.3057ZM7.30967 20.682C8.37403 20.1995 9.80668 19.1488 10.8968 17.5845L9.66617 16.7269C8.73421 18.0642 7.51512 18.9419 6.69033 19.3158L7.30967 20.682ZM10.8968 17.5845C11.9814 16.0281 12.7377 13.9453 12.4321 11.4092L10.9429 11.5886C11.198 13.7052 10.5734 15.425 9.66617 16.7269L10.8968 17.5845ZM9.63508 17.6541L9.91658 17.8109L10.6464 16.5004L10.3649 16.3437L9.63508 17.6541ZM22.5037 11.793C21.1842 10.5968 19.2451 9.9851 16.8364 9.98368L16.8355 11.4837C19.0109 11.485 20.5404 12.0378 21.4963 12.9043L22.5037 11.793ZM16.8364 9.98368C15.2711 9.98276 13.4846 10.2386 11.4926 10.7747L11.8824 12.2231C13.7771 11.7133 15.43 11.4829 16.8355 11.4837L16.8364 9.98368ZM17.6242 10.8531L17.5716 10.5878L16.1003 10.8795L16.1528 11.1448L17.6242 10.8531ZM20.07 7.47453C20.8213 8.8114 21.25 10.354 21.25 11.9989H22.75C22.75 10.09 22.2518 8.29512 21.3777 6.73969L20.07 7.47453ZM20.2099 7.70486L20.4338 7.79875L21.0139 6.41547L20.7901 6.32158L20.2099 7.70486ZM7.39738 2.79977C7.06241 4.01609 7.00879 6.24097 8.15319 8.51103L9.49261 7.83579C8.52597 5.91834 8.60112 4.0783 8.84354 3.19804L7.39738 2.79977ZM8.15319 8.51103C8.78039 9.75516 9.76322 11.0039 11.2403 12.101L12.1347 10.8968C10.8453 9.93916 10.0148 8.87162 9.49261 7.83579L8.15319 8.51103ZM8.47359 7.46468L8.29649 7.63919L9.34931 8.70764L9.52641 8.53313L8.47359 7.46468ZM8.84223 3.20276L8.91253 2.95386L7.469 2.54614L7.3987 2.79505L8.84223 3.20276ZM21.25 11.9989C21.25 12.1166 21.2478 12.2337 21.2435 12.3502L22.7424 12.4061C22.7475 12.2709 22.75 12.1352 22.75 11.9989H21.25ZM21.2706 12.1739L21.2636 12.2034L22.7223 12.5529L22.7294 12.5234L21.2706 12.1739ZM4.68726 6.33365C5.6702 5.06686 6.97454 4.0627 8.47665 3.44338L7.90488 2.05662C6.15775 2.77698 4.64311 3.9437 3.50217 5.41411L4.68726 6.33365ZM4.59781 6.45181L4.69253 6.32678L3.49691 5.42098L3.40219 5.546L4.59781 6.45181Z" fill="#141B34"/>
</svg>
