<svg width="24" height="24" viewBox="0 0 24 24" fill="none" xmlns="http://www.w3.org/2000/svg">
<path fill-rule="evenodd" clip-rule="evenodd" d="M14.5534 1.90487C16.8585 0.551636 19.7953 1.36414 21.1121 3.68338C22.1669 5.54108 21.8722 7.81199 20.5331 9.32992C20.1782 9.73225 19.5621 9.77252 19.1572 9.41987C18.7523 9.06722 18.7117 8.45519 19.0667 8.05286C19.8726 7.13935 20.0523 5.76005 19.4137 4.63531C18.6227 3.24221 16.8912 2.78276 15.5454 3.57286L11.4282 5.98997L12.351 7.53654C12.6257 7.99674 12.4728 8.59099 12.0096 8.86382C11.5464 9.13666 10.9483 8.98476 10.6737 8.52455L9.74938 6.97556L5.62974 9.3941C4.27021 10.1922 3.7878 11.9797 4.58598 13.3855C5.06201 14.2238 5.87851 14.7228 6.74391 14.8173C7.27917 14.8758 7.66536 15.3543 7.6065 15.8861C7.54764 16.4179 7.06601 16.8016 6.53076 16.7431C5.0553 16.5819 3.67888 15.731 2.88758 14.3374C1.57794 12.0308 2.34641 9.07129 4.63774 7.72611L14.5534 1.90487Z" fill="#141B34"/>
<path fill-rule="evenodd" clip-rule="evenodd" d="M19.8519 12.3315C20.1271 12.1726 20.2647 12.0931 20.2871 11.9518C20.3095 11.8105 20.2094 11.6993 20.0092 11.477C17.922 9.15955 14.4313 8.53248 11.6219 10.1545C8.81253 11.7765 7.61023 15.1131 8.57366 18.0793C8.66607 18.3638 8.71227 18.5061 8.84587 18.5574C8.97946 18.6087 9.11706 18.5292 9.39225 18.3703L19.8519 12.3315ZM20.6018 13.6306C20.877 13.4717 21.0146 13.3922 21.1482 13.4435C21.2818 13.4948 21.328 13.6371 21.4204 13.9216C22.3834 16.8877 21.1811 20.2239 18.3719 21.8458C15.5627 23.4677 12.0723 22.8408 9.98513 20.5238C9.78491 20.3015 9.6848 20.1904 9.70717 20.049C9.72954 19.9077 9.86715 19.8282 10.1424 19.6693L20.6018 13.6306Z" fill="#141B34"/>
</svg>
