<svg width="24" height="24" viewBox="0 0 24 24" fill="none" xmlns="http://www.w3.org/2000/svg">
<path d="M2 2L22 22" stroke="#141B34" stroke-width="1.5" stroke-linecap="round"/>
<path d="M6.26471 21.7479L6.01629 22.4555L6.26471 21.7479ZM3.7679 19.3979L3.07065 19.6742L3.7679 19.3979ZM15.6616 21.5587L15.4132 20.8511L15.6616 21.5587ZM13.8901 16.5687L13.1656 16.3746L13.8901 16.5687ZM15.0686 15.3902L14.8745 14.6658H14.8745L15.0686 15.3902ZM10.4999 21.2501C10.0857 21.2501 9.74994 21.5859 9.74994 22.0001C9.74994 22.4143 10.0857 22.7501 10.4999 22.7501V21.2501ZM4.67536 4.32616C4.85549 3.95317 4.69915 3.50477 4.32616 3.32464C3.95316 3.1445 3.50476 3.30084 3.32463 3.67384L4.67536 4.32616ZM19.5953 19.4562C19.8472 19.1274 19.785 18.6567 19.4562 18.4047C19.1274 18.1528 18.6567 18.215 18.4047 18.5438L19.5953 19.4562ZM15.4476 16.0767C15.8571 16.0146 16.1387 15.6322 16.0766 15.2227C16.0144 14.8131 15.6321 14.5315 15.2225 14.5937L15.4476 16.0767ZM4.24993 16.1819V10.0001H2.74993V16.1819H4.24993ZM9.68175 21.2501C7.81922 21.2501 7.08047 21.2394 6.51313 21.0402L6.01629 22.4555C6.88583 22.7608 7.94615 22.7501 9.68175 22.7501V21.2501ZM2.74993 16.1819C2.74993 17.0186 2.74956 17.6824 2.78506 18.2207C2.821 18.7656 2.89599 19.2335 3.07065 19.6742L4.46514 19.1216C4.37184 18.8862 4.31285 18.5927 4.2818 18.122C4.25031 17.6445 4.24993 17.0384 4.24993 16.1819H2.74993ZM6.51313 21.0402C5.55223 20.7029 4.81169 19.9961 4.46514 19.1216L3.07065 19.6742C3.58568 20.9739 4.66723 21.982 6.01629 22.4555L6.51313 21.0402ZM9.68175 22.7501C12.7667 22.7501 14.5016 22.7608 15.91 22.2664L15.4132 20.8511C14.307 21.2394 12.8936 21.2501 9.68175 21.2501V22.7501ZM14.6145 16.7628C14.6993 16.4465 14.9464 16.1994 15.2627 16.1146L14.8745 14.6658C14.0405 14.8892 13.3891 15.5406 13.1656 16.3746L14.6145 16.7628ZM10.4999 22.7501C12.7551 22.7501 14.5833 20.9219 14.5833 18.6667H13.0833C13.0833 20.0935 11.9267 21.2501 10.4999 21.2501V22.7501ZM14.5833 18.6667C14.5833 18.481 14.5752 18.2914 14.5669 18.1143C14.5585 17.932 14.5499 17.7633 14.5465 17.5952C14.5394 17.2546 14.5558 16.982 14.6145 16.7628L13.1656 16.3746C13.0509 16.8027 13.0389 17.2463 13.0468 17.6264C13.0508 17.8187 13.0606 18.0115 13.0686 18.1838C13.0768 18.3614 13.0833 18.5196 13.0833 18.6667H14.5833ZM4.24993 10.0001C4.24993 8.51564 4.23005 7.35158 4.28104 6.39405C4.33215 5.43401 4.45197 4.78871 4.67536 4.32616L3.32463 3.67384C2.96704 4.41427 2.83683 5.30636 2.78316 6.31429C2.72936 7.32473 2.74993 8.55922 2.74993 10.0001H4.24993ZM18.4047 18.5438C17.6119 19.5783 16.6277 20.4247 15.4132 20.8511L15.91 22.2664C17.4791 21.7156 18.6842 20.645 19.5953 19.4562L18.4047 18.5438ZM15.2225 14.5937C15.1079 14.6111 14.9913 14.6344 14.8745 14.6658L15.2627 16.1146C15.319 16.0996 15.3804 16.0869 15.4476 16.0767L15.2225 14.5937Z" fill="#141B34"/>
<path opacity="0.4" d="M18.7934 2.79113L18.3645 3.40637L18.7934 2.79113ZM19.6505 3.58943L19.066 4.0593L19.6505 3.58943ZM21.25 11.916C21.25 11.5018 20.9142 11.166 20.5 11.166C20.0858 11.166 19.75 11.5018 19.75 11.916H21.25ZM19.6181 15.8967C19.561 16.307 19.8474 16.6858 20.2577 16.7429C20.6679 16.7999 21.0467 16.5135 21.1038 16.1033L19.6181 15.8967ZM18.5995 14.0407C18.254 14.2691 18.159 14.7344 18.3875 15.0799C18.616 15.4255 19.0812 15.5204 19.4268 15.2919L18.5995 14.0407ZM6.33327 1.55281C5.92943 1.64489 5.67669 2.04692 5.76877 2.45077C5.86085 2.85462 6.26288 3.10735 6.66673 3.01527L6.33327 1.55281ZM11.9823 2.75H12.7566V1.25H11.9823V2.75ZM19.75 9.21165V11.7357H21.25V9.21165H19.75ZM12.7566 2.75C14.4066 2.75 15.5866 2.75093 16.498 2.84493C17.3979 2.93774 17.9457 3.11443 18.3645 3.40637L19.2223 2.1759C18.5063 1.67671 17.6697 1.45782 16.6519 1.35285C15.6456 1.24907 14.3747 1.25 12.7566 1.25V2.75ZM21.25 9.21165C21.25 7.7082 21.2512 6.51449 21.1386 5.56695C21.0237 4.60122 20.7823 3.80029 20.2351 3.11956L19.066 4.0593C19.3683 4.43539 19.5515 4.92378 19.6491 5.74406C19.7488 6.58253 19.75 7.67151 19.75 9.21165H21.25ZM18.3645 3.40637C18.6322 3.59307 18.8682 3.81323 19.066 4.0593L20.2351 3.11956C19.9461 2.76002 19.6048 2.44255 19.2223 2.1759L18.3645 3.40637ZM19.75 11.7357C19.75 13.7176 19.7482 14.9603 19.6181 15.8967L21.1038 16.1033C21.2518 15.0388 21.25 13.6701 21.25 11.7357H19.75ZM19.75 11.916C19.75 12.7985 19.2968 13.5796 18.5995 14.0407L19.4268 15.2919C20.5224 14.5675 21.25 13.3275 21.25 11.916H19.75ZM11.9823 1.25C9.51214 1.25 7.68197 1.2453 6.33327 1.55281L6.66673 3.01527C7.80954 2.7547 9.43092 2.75 11.9823 2.75V1.25Z" fill="#141B34"/>
</svg>
