<svg width="24" height="24" viewBox="0 0 24 24" fill="none" xmlns="http://www.w3.org/2000/svg">
<rect width="20" height="18" rx="5" transform="matrix(4.37114e-08 -1 -1 -4.37114e-08 21 22)" stroke="#141B34" stroke-width="1.5"/>
<path opacity="0.4" d="M12.75 5C12.75 4.58579 12.4142 4.25 12 4.25C11.5858 4.25 11.25 4.58579 11.25 5L12.75 5ZM11.25 14C11.25 14.4142 11.5858 14.75 12 14.75C12.4142 14.75 12.75 14.4142 12.75 14H11.25ZM9.329 14.0377L9.15924 14.7683L9.329 14.0377ZM12 14.3321V15.0821V14.3321ZM14.671 14.0377L14.8408 14.7683H14.8408L14.671 14.0377ZM14.7571 16.8181L14.581 16.089H14.581L14.7571 16.8181ZM15.7933 16.5039L16.0547 17.2069L15.7933 16.5039ZM13.3876 17.9182L12.7038 17.61H12.7038L13.3876 17.9182ZM13.2812 18.1543L13.9649 18.4625H13.9649L13.2812 18.1543ZM8.20673 16.5039L7.94531 17.2069H7.94531L8.20673 16.5039ZM9.24287 16.8181L9.06676 17.5471H9.06677L9.24287 16.8181ZM10.7188 18.1543L11.4026 17.8461H11.4026L10.7188 18.1543ZM10.6124 17.9182L9.92867 18.2264H9.92867L10.6124 17.9182ZM12 7L12.636 6.60254C12.499 6.38323 12.2586 6.25 12 6.25C11.7414 6.25 11.501 6.38323 11.364 6.60254L12 7ZM13.5 8V8.75V8ZM15.636 7.39746C15.8555 7.0462 15.7487 6.58349 15.3975 6.36398C15.0462 6.14447 14.5835 6.25127 14.364 6.60254L15.636 7.39746ZM9.63602 6.60254C9.41651 6.25127 8.9538 6.14447 8.60254 6.36398C8.25127 6.58349 8.14447 7.0462 8.36398 7.39746L9.63602 6.60254ZM10.5 8V8.75V8ZM7.51943 9.45899C7.22064 9.17212 6.74587 9.18178 6.45899 9.48057C6.17212 9.77936 6.18178 10.2541 6.48057 10.541L7.51943 9.45899ZM9.5 11V11.75V11ZM12 10L12.5194 9.45899C12.2292 9.18034 11.7708 9.18034 11.4806 9.45899L12 10ZM17.5194 10.541C17.8182 10.2541 17.8279 9.77936 17.541 9.48057C17.2541 9.18178 16.7794 9.17212 16.4806 9.45899L17.5194 10.541ZM11.25 5L11.25 14H12.75L12.75 5L11.25 5ZM9.15924 14.7683C10.0311 14.9709 10.9928 15.0821 12 15.0821V13.5821C11.1013 13.5821 10.2538 13.4827 9.49875 13.3072L9.15924 14.7683ZM12 15.0821C13.0072 15.0821 13.9689 14.9709 14.8408 14.7683L14.5012 13.3072C13.7462 13.4827 12.8987 13.5821 12 13.5821V15.0821ZM14.9332 17.5471C15.3259 17.4522 15.7012 17.3384 16.0547 17.2069L15.5319 15.801C15.2379 15.9103 14.9198 16.0072 14.581 16.089L14.9332 17.5471ZM12.7038 17.61L12.5974 17.8461L13.9649 18.4625L14.0713 18.2264L12.7038 17.61ZM7.94531 17.2069C8.29878 17.3384 8.67411 17.4522 9.06676 17.5471L9.41898 16.089C9.08021 16.0072 8.76212 15.9103 8.46815 15.801L7.94531 17.2069ZM11.4026 17.8461L11.2962 17.61L9.92867 18.2264L10.0351 18.4625L11.4026 17.8461ZM9.06677 17.5471C9.46206 17.6426 9.77798 17.892 9.92867 18.2264L11.2962 17.61C10.9322 16.8024 10.2073 16.2794 9.41898 16.089L9.06677 17.5471ZM12 18.25C11.7574 18.25 11.5188 18.1039 11.4026 17.8461L10.0351 18.4625C10.384 19.2367 11.1444 19.75 12 19.75V18.25ZM12.5974 17.8461C12.4812 18.1039 12.2426 18.25 12 18.25V19.75C12.8556 19.75 13.616 19.2367 13.9649 18.4625L12.5974 17.8461ZM15.75 15.4049C15.75 15.6355 15.6274 15.7654 15.5319 15.801L16.0547 17.2069C16.8403 16.9148 17.25 16.1453 17.25 15.4049H15.75ZM6.75 15.4049C6.75 16.1454 7.15974 16.9148 7.94531 17.2069L8.46815 15.801C8.37256 15.7654 8.25 15.6355 8.25 15.4049H6.75ZM14.8408 14.7683C15.3188 14.6572 15.75 15.0311 15.75 15.4049H17.25C17.25 13.9195 15.7722 13.0118 14.5012 13.3072L14.8408 14.7683ZM14.581 16.089C13.7927 16.2794 13.0678 16.8024 12.7038 17.61L14.0713 18.2264C14.222 17.892 14.5379 17.6426 14.9332 17.5471L14.581 16.089ZM9.49875 13.3072C8.22778 13.0118 6.75 13.9195 6.75 15.4049H8.25C8.25 15.0311 8.68119 14.6572 9.15924 14.7683L9.49875 13.3072ZM11.364 7.39746C11.8276 8.13943 12.5615 8.75 13.5 8.75V7.25C13.2705 7.25 12.9455 7.09775 12.636 6.60254L11.364 7.39746ZM13.5 8.75C14.4385 8.75 15.1723 8.13943 15.636 7.39746L14.364 6.60254C14.0545 7.09775 13.7295 7.25 13.5 7.25V8.75ZM8.36398 7.39746C8.82765 8.13943 9.56154 8.75 10.5 8.75V7.25C10.2705 7.25 9.94549 7.09775 9.63602 6.60254L8.36398 7.39746ZM10.5 8.75C11.4385 8.75 12.1723 8.13943 12.636 7.39746L11.364 6.60254C11.0545 7.09775 10.7295 7.25 10.5 7.25V8.75ZM6.48057 10.541C7.26045 11.2898 8.32748 11.75 9.5 11.75V10.25C8.72589 10.25 8.02812 9.94739 7.51943 9.45899L6.48057 10.541ZM9.5 11.75C10.6725 11.75 11.7395 11.2898 12.5194 10.541L11.4806 9.45899C10.9719 9.94739 10.2741 10.25 9.5 10.25V11.75ZM11.4806 10.541C12.2605 11.2898 13.3275 11.75 14.5 11.75V10.25C13.7259 10.25 13.0281 9.94739 12.5194 9.45899L11.4806 10.541ZM14.5 11.75C15.6725 11.75 16.7395 11.2898 17.5194 10.541L16.4806 9.45899C15.9719 9.94739 15.2741 10.25 14.5 10.25V11.75Z" fill="#141B34"/>
</svg>
