<svg width="24" height="24" viewBox="0 0 24 24" fill="none" xmlns="http://www.w3.org/2000/svg">
<path fill-rule="evenodd" clip-rule="evenodd" d="M3.65516 7.25L20.0949 7.25H20.0949C20.3869 7.24999 20.643 7.24998 20.8535 7.26435C21.0735 7.27936 21.309 7.31297 21.5394 7.41459C21.9272 7.58554 22.2238 7.84738 22.4089 8.19165C22.5871 8.52281 22.6299 8.87028 22.6246 9.16755C22.6192 9.46288 22.5651 9.75164 22.5112 9.99262C22.4808 10.1287 22.3771 10.5616 22.3618 10.6252L22.3603 10.6317L22.3582 10.6412C22.2751 11.0224 22.0166 11.3302 21.6781 11.4908C21.3086 11.6661 21.0678 11.9888 21.0056 12.3431L20.9863 12.4555L20.9863 12.4556C20.9232 12.8216 20.8917 13.0046 20.827 13.0196C20.7623 13.0346 20.6422 12.8685 20.402 12.5364C19.9479 11.9085 19.2092 11.5 18.375 11.5C16.9943 11.5 15.875 12.6193 15.875 14V14.4C15.875 14.6828 15.875 14.8243 15.7871 14.9121C15.6993 15 15.5578 15 15.275 15H14.875C13.4943 15 12.375 16.1193 12.375 17.5C12.375 18.8807 13.4943 20 14.875 20H15.275C15.5578 20 15.6993 20 15.7871 20.0879C15.875 20.1757 15.875 20.3172 15.875 20.6V21C15.875 21.3445 15.875 21.5167 15.8067 21.5997C15.7956 21.6132 15.7882 21.621 15.7752 21.6326C15.6952 21.7044 15.5577 21.7102 15.2829 21.7219C14.6237 21.75 13.8641 21.75 12.9902 21.75L10.7598 21.75C9.42483 21.75 8.35671 21.75 7.50578 21.6499C6.62715 21.5465 5.88909 21.3281 5.25955 20.8271L5.25667 20.8248C4.41862 20.151 4.01701 19.17 3.78458 18.2651C3.62783 17.6549 3.52861 16.9808 3.44396 16.4057L2.74437 12.3431C2.68215 11.9888 2.44139 11.6661 2.07188 11.4908C1.73343 11.3302 1.47487 11.0224 1.39181 10.6412L1.38972 10.6317L1.38818 10.6252C1.37293 10.5616 1.26921 10.1287 1.23876 9.99262C1.18486 9.75163 1.13076 9.46287 1.12543 9.16755C1.12007 8.87028 1.16292 8.52281 1.34105 8.19165C1.52624 7.84738 1.82281 7.58554 2.21055 7.41459C2.44103 7.31297 2.67647 7.27936 2.89649 7.26435C3.10704 7.24998 3.36316 7.24999 3.65514 7.25H3.65516ZM9.875 11.25C9.46079 11.25 9.125 11.5858 9.125 12C9.125 12.4142 9.46079 12.75 9.875 12.75L13.875 12.75C14.2892 12.75 14.625 12.4142 14.625 12C14.625 11.5858 14.2892 11.25 13.875 11.25L9.875 11.25Z" fill="#141B34"/>
<path fill-rule="evenodd" clip-rule="evenodd" d="M10.2761 2.08385C10.7821 2.30522 11.0128 2.89485 10.7914 3.40083L7.29141 11.4008C7.07004 11.9068 6.48041 12.1375 5.97443 11.9162C5.46845 11.6948 5.23773 11.1052 5.4591 10.5992L8.9591 2.59919C9.18046 2.09321 9.77009 1.86249 10.2761 2.08385Z" fill="#141B34"/>
<path fill-rule="evenodd" clip-rule="evenodd" d="M14.428 2.10555C14.922 1.85856 15.5227 2.05878 15.7696 2.55276L18.2696 7.55276C18.5166 8.04674 18.3164 8.64741 17.8224 8.8944C17.3285 9.14139 16.7278 8.94117 16.4808 8.44719L13.9808 3.44719C13.7338 2.95321 13.934 2.35254 14.428 2.10555Z" fill="#141B34"/>
<path fill-rule="evenodd" clip-rule="evenodd" d="M18.375 13C18.9273 13 19.375 13.4477 19.375 14V16.5H21.875C22.4273 16.5 22.875 16.9477 22.875 17.5C22.875 18.0523 22.4273 18.5 21.875 18.5H19.375V21C19.375 21.5523 18.9273 22 18.375 22C17.8227 22 17.375 21.5523 17.375 21L17.375 18.5H14.875C14.3227 18.5 13.875 18.0523 13.875 17.5C13.875 16.9477 14.3227 16.5 14.875 16.5H17.375L17.375 14C17.375 13.4477 17.8227 13 18.375 13Z" fill="#141B34"/>
</svg>
