<svg width="24" height="24" viewBox="0 0 24 24" fill="none" xmlns="http://www.w3.org/2000/svg">
<path fill-rule="evenodd" clip-rule="evenodd" d="M3.78016 7.25L20.2199 7.25H20.2199C20.5119 7.24999 20.768 7.24998 20.9785 7.26435C21.1985 7.27936 21.434 7.31297 21.6644 7.41459C22.0522 7.58554 22.3488 7.84738 22.5339 8.19165C22.7121 8.52281 22.7549 8.87028 22.7496 9.16755C22.7442 9.46288 22.6901 9.75164 22.6362 9.99262C22.6047 10.1336 22.4945 10.5932 22.4855 10.6306L22.485 10.6329L22.4844 10.6358C22.4026 11.0195 22.1432 11.3294 21.8031 11.4908C21.4336 11.6661 21.1928 11.9888 21.1306 12.3431L21.1111 12.4564C21.0489 12.8178 21.0178 12.9985 20.9531 13.0135C20.8884 13.0284 20.77 12.8646 20.5332 12.537L20.5332 12.537C20.079 11.9088 19.3401 11.5 18.5057 11.5C17.1249 11.5 16.0057 12.6193 16.0057 14L16.0057 15.8861C16.0057 15.9655 16.0057 16.0052 15.984 16.0325C15.9623 16.0598 15.9217 16.0693 15.8405 16.0882C15.3675 16.1983 14.4962 16.5264 14.0139 17.5207C13.3799 18.8276 14.0659 19.9523 14.1658 20.1161L14.6144 20.7445L14.6233 20.7558L14.6233 20.7558C14.9631 21.1892 15.133 21.4059 15.0517 21.5743C14.9705 21.7427 14.702 21.7444 14.1652 21.7479H14.1652C13.835 21.75 13.4854 21.75 13.1153 21.75H13.1152L10.8848 21.75C9.54983 21.75 8.48171 21.75 7.63078 21.6499C6.75215 21.5465 6.01409 21.3281 5.38455 20.8271L5.38167 20.8248C4.54362 20.151 4.14201 19.17 3.90958 18.2651C3.75283 17.6549 3.65361 16.9808 3.56896 16.4057L2.86937 12.3431C2.80715 11.9888 2.56639 11.6661 2.19688 11.4908C1.85682 11.3294 1.59741 11.0195 1.51563 10.6358L1.51502 10.6329L1.51448 10.6306C1.50551 10.5932 1.39531 10.1336 1.36376 9.99262C1.30986 9.75163 1.25576 9.46287 1.25043 9.16755C1.24507 8.87028 1.28792 8.52281 1.46605 8.19165C1.65124 7.84738 1.94781 7.58554 2.33555 7.41459C2.56603 7.31297 2.80147 7.27936 3.02149 7.26435C3.23204 7.24998 3.48816 7.24999 3.78014 7.25H3.78016ZM10 11.25C9.58579 11.25 9.25 11.5858 9.25 12C9.25 12.4142 9.58579 12.75 10 12.75L14 12.75C14.4142 12.75 14.75 12.4142 14.75 12C14.75 11.5858 14.4142 11.25 14 11.25L10 11.25Z" fill="#141B34"/>
<path fill-rule="evenodd" clip-rule="evenodd" d="M10.4011 2.08385C10.9071 2.30522 11.1378 2.89485 10.9164 3.40083L7.41641 11.4008C7.19504 11.9068 6.60541 12.1375 6.09943 11.9162C5.59345 11.6948 5.36273 11.1052 5.5841 10.5992L9.0841 2.59919C9.30546 2.09321 9.89509 1.86249 10.4011 2.08385Z" fill="#141B34"/>
<path fill-rule="evenodd" clip-rule="evenodd" d="M14.553 2.10555C15.047 1.85856 15.6477 2.05878 15.8946 2.55276L18.3946 7.55276C18.6416 8.04674 18.4414 8.64741 17.9474 8.8944C17.4535 9.14139 16.8528 8.94117 16.6058 8.44719L14.1058 3.44719C13.8588 2.95321 14.059 2.35254 14.553 2.10555Z" fill="#141B34"/>
<path d="M19.5059 14C19.5059 13.4477 19.0581 13 18.5059 13C17.9536 13 17.5059 13.4477 17.5059 14L17.5059 17.5L16.9116 17.5C16.736 17.4999 16.5203 17.4997 16.3439 17.5218L16.3405 17.5222C16.2141 17.538 15.638 17.6098 15.3637 18.1754C15.0887 18.7423 15.3907 19.2424 15.456 19.3506L15.7951 19.8191C16.0897 20.1949 16.4954 20.7094 16.8759 21.1004C17.0657 21.2955 17.283 21.4967 17.5139 21.6556C17.7191 21.7968 18.0693 22 18.5 22C18.9307 22 19.2809 21.7968 19.4861 21.6556C19.717 21.4967 19.9343 21.2955 20.1241 21.1004C20.5046 20.7094 20.9102 20.1949 21.2049 19.8191L21.544 19.3506C21.6093 19.2424 21.9113 18.7422 21.6363 18.1754C21.362 17.6098 20.7859 17.538 20.6595 17.5222L20.6561 17.5218C20.4797 17.4997 20.264 17.4999 20.0884 17.5L19.5059 17.5L19.5059 14Z" fill="#141B34"/>
</svg>
