<svg width="24" height="24" viewBox="0 0 24 24" fill="none" xmlns="http://www.w3.org/2000/svg">
<path d="M13.4654 7.16581L13.1436 7.84331L13.1492 7.84591L13.4654 7.16581ZM9.20761 9.65482L9.52851 8.9769L9.5217 8.97376L9.20761 9.65482ZM14.793 6.66807C14.6048 6.72211 14.2763 6.71573 13.7815 6.48571L13.1492 7.84591C13.8388 8.1665 14.5529 8.29764 15.207 8.10981L14.793 6.66807ZM13.7871 6.48833C13.4093 6.30889 13.0213 6.21537 12.6331 6.26175C12.2342 6.3094 11.919 6.49463 11.6785 6.72339C11.4488 6.94177 11.2799 7.2061 11.1496 7.44336C11.0196 7.67996 10.901 7.94197 10.7997 8.15823C10.5677 8.6535 10.4093 8.92582 10.2391 9.05443C10.1806 9.09868 10.1266 9.11978 10.05 9.12239C9.96044 9.12543 9.79583 9.10348 9.52849 8.97693L8.88673 10.3327C9.29941 10.5281 9.70473 10.635 10.101 10.6215C10.5103 10.6076 10.8582 10.4667 11.1435 10.2512C11.6609 9.86012 11.9582 9.22132 12.1581 8.79445C12.2728 8.54965 12.3642 8.34784 12.4643 8.16543C12.5641 7.98368 12.6454 7.8738 12.7121 7.81035C12.768 7.75728 12.7953 7.75304 12.811 7.75116C12.8375 7.748 12.9364 7.74486 13.1436 7.84328L13.7871 6.48833ZM9.5217 8.97376C8.97637 8.72227 8.3939 8.61229 7.867 8.88326C7.37382 9.13689 7.1521 9.61934 7.03214 9.94534C6.96661 10.1234 6.91313 10.3093 6.86703 10.4737C6.81839 10.6472 6.77811 10.7961 6.73162 10.9413C6.63385 11.2466 6.54945 11.3927 6.4799 11.4596L7.5201 12.5404C7.87522 12.1986 8.05033 11.7417 8.16015 11.3987C8.21746 11.2198 8.26799 11.0333 8.31134 10.8786C8.35722 10.715 8.39689 10.5801 8.43985 10.4634C8.53686 10.1997 8.5934 10.1964 8.55301 10.2172C8.47891 10.2553 8.52377 10.1654 8.89353 10.3359L9.5217 8.97376Z" fill="#141B34"/>
<path d="M19 11C19.536 10.4176 20.5 9.62219 21.4626 8.37547C22.1108 7.53594 22.1638 6.35006 21.6693 5.40887C20.7595 3.67758 18.4754 3.55286 17.1607 4.97428C16.8434 5.31729 16.5144 5.65585 16.174 5.98918M6.93327 18.419C6.20617 18.6379 5.48603 18.8181 4.77684 18.9598C3.79101 19.1568 2.82972 18.6144 2.33514 17.6732C1.42537 15.9419 2.46911 13.7062 4.24688 13.1659C4.67588 13.0356 5.10725 12.8918 5.5402 12.7345" stroke="#141B34" stroke-width="1.5" stroke-linejoin="round"/>
<path d="M16.413 11.6724C15.3119 12.5131 14.1158 13.3072 12.8354 14.0361C11.555 14.765 10.2596 15.3893 8.97062 15.9093C7.3473 16.5641 6.49306 18.4176 7.32052 19.8308C7.88214 20.79 9.06698 21.2513 10.1886 20.8616C11.9282 20.2572 13.6941 19.4603 15.4321 18.4709C17.1701 17.4814 18.7529 16.3719 20.1536 15.1886C21.0567 14.4257 21.244 13.1833 20.6824 12.2241C19.8549 10.8109 17.7998 10.6136 16.413 11.6724Z" stroke="#141B34" stroke-width="1.5" stroke-linejoin="round"/>
<path d="M16.9882 5.15911C16.9553 4.83552 16.8536 4.51664 16.6824 4.22411C15.8549 2.81092 13.7998 2.6136 12.413 3.6724C11.3119 4.51311 10.1158 5.30715 8.83541 6.03606C7.55504 6.76496 6.25957 7.38934 4.97062 7.90927C3.3473 8.56408 2.49306 10.4176 3.32052 11.8308C3.66685 12.4223 4.25017 12.8245 4.90952 12.9545" stroke="#141B34" stroke-width="1.5" stroke-linejoin="round"/>
</svg>
