<svg width="24" height="24" viewBox="0 0 24 24" fill="none" xmlns="http://www.w3.org/2000/svg">
<path d="M13.5 3.5C13.5 4.32843 12.8284 5 12 5C11.1716 5 10.5 4.32843 10.5 3.5C10.5 2.67157 11.1716 2 12 2C12.8284 2 13.5 2.67157 13.5 3.5Z" stroke="#141B34" stroke-width="1.5"/>
<path d="M20 11H20.75V10.0222L19.8056 10.2756L20 11ZM4 11L4.19436 10.2756L3.25 10.0222V11H4ZM19.8056 10.2756C17.4971 10.895 14.8371 11.25 12 11.25V12.75C14.9586 12.75 17.75 12.3802 20.1944 11.7244L19.8056 10.2756ZM12 11.25C9.16292 11.25 6.50286 10.895 4.19436 10.2756L3.80564 11.7244C6.24996 12.3802 9.04136 12.75 12 12.75V11.25ZM19.25 11C19.25 15.0041 16.0041 18.25 12 18.25V19.75C16.8325 19.75 20.75 15.8325 20.75 11H19.25ZM12 18.25C7.99593 18.25 4.75 15.0041 4.75 11H3.25C3.25 15.8325 7.16751 19.75 12 19.75V18.25Z" fill="#141B34"/>
<path d="M19 9C18.4021 5.99819 16.2382 3.63804 13.4939 3M5 9C5.59787 5.99819 7.76178 3.63804 10.5061 3" stroke="#141B34" stroke-width="1.5"/>
<path d="M12 19V21C12 21.5523 11.5523 22 11 22H9H15" stroke="#141B34" stroke-width="1.5"/>
<path d="M7 5C6.99887 9.0479 11.2375 7.89136 11.2375 7.89136C17 10.5 17.5 5.5 17.5 5.5" stroke="#141B34" stroke-width="1.5"/>
</svg>
