<svg width="24" height="24" viewBox="0 0 24 24" fill="none" xmlns="http://www.w3.org/2000/svg">
<path fill-rule="evenodd" clip-rule="evenodd" d="M1.5 1.5H9.14426V3.5H3.5V9.14426H1.5V1.5ZM20.5 3.5H14.8557V1.5H22.5V9.14426H20.5V3.5ZM22.5 14.8557V22.5H14.8557V20.5H20.5V14.8557H22.5ZM3.5 20.5V14.8557H1.5V22.5H9.14426V20.5H3.5Z" fill="#141B34"/>
<path d="M8.75 9.5C8.75 7.70507 10.2051 6.25 12 6.25C13.7949 6.25 15.25 7.70507 15.25 9.5C15.25 11.2949 13.7949 12.75 12 12.75C10.2051 12.75 8.75 11.2949 8.75 9.5Z" fill="#141B34"/>
<path d="M11.9597 13.5644C13.8231 13.5457 15.6406 14.6063 16.6707 16.6643C16.787 16.8968 16.7747 17.173 16.6381 17.3942C16.5014 17.6154 16.26 17.75 16 17.75H8C7.74076 17.75 7.49991 17.6161 7.36304 17.396C7.22618 17.1758 7.21272 16.9006 7.32744 16.6681C8.31178 14.6735 10.1023 13.5831 11.9597 13.5644Z" fill="#141B34"/>
</svg>
