<svg width="24" height="24" viewBox="0 0 24 24" fill="none" xmlns="http://www.w3.org/2000/svg">
<path fill-rule="evenodd" clip-rule="evenodd" d="M7 1.25C3.82436 1.25 1.25 3.82436 1.25 7C1.25 8.97049 2.24152 10.7086 3.75 11.744V19.8107L6.46967 22.5303C6.76256 22.8232 7.23744 22.8232 7.53033 22.5303L10.25 19.8107V18C10.25 17.8377 10.1974 17.6798 10.1 17.55L8.99028 16.0704L10.0303 15.0303C10.171 14.8897 10.25 14.6989 10.25 14.5V11.744C11.7585 10.7086 12.75 8.97049 12.75 7C12.75 3.82436 10.1756 1.25 7 1.25ZM6.99218 5.25C6.03 5.25 5.25 6.0335 5.25 7C5.25 7.9665 6.03 8.75 6.99218 8.75H7.00782C7.97 8.75 8.75 7.9665 8.75 7C8.75 6.0335 7.97 5.25 7.00782 5.25H6.99218Z" fill="#141B34"/>
<path d="M11.7499 19.25H21.9999C22.4141 19.25 22.7499 18.9142 22.7499 18.5V13.5C22.7499 13.0858 22.4141 12.75 21.9999 12.75H11.7499V14.5C11.7499 15.0967 11.5128 15.669 11.0908 16.091L10.9707 16.2111L11.2999 16.65C11.592 17.0395 11.7499 17.5132 11.7499 18V19.25Z" fill="#141B34"/>
<path d="M12.873 11.25H21.9992C22.4134 11.25 22.7492 10.9142 22.7492 10.5V5.5C22.7492 5.08579 22.4134 4.75 21.9992 4.75H13.8933C14.1243 5.45831 14.2492 6.21457 14.2492 7C14.2492 8.58849 13.7377 10.0569 12.873 11.25Z" fill="#141B34"/>
</svg>
