<svg width="24" height="24" viewBox="0 0 24 24" fill="none" xmlns="http://www.w3.org/2000/svg">
<path fill-rule="evenodd" clip-rule="evenodd" d="M9 1.25C8.7159 1.25 8.45618 1.41053 8.32915 1.66465L6.53643 5.25083H2C1.58579 5.25083 1.25 5.58662 1.25 6.00083V22.0003C1.25 22.4145 1.58579 22.7503 2 22.7503H22.0009C22.4152 22.7503 22.7509 22.4145 22.7509 22.0003V6C22.7509 5.58579 22.4152 5.25 22.0009 5.25H17.4635L15.6708 1.66459C15.5438 1.4105 15.2841 1.25 15 1.25H9ZM8 10H10.009V12H8V10ZM13.991 10H16V12H13.991V10ZM10.3881 15.4413C10.1874 15.2953 10.0325 15.1493 9.9301 15.0425L8.28906 16.2073C8.33623 16.2635 8.40214 16.3387 8.48612 16.4263C8.65328 16.6007 8.89678 16.8297 9.21174 17.0587C9.8378 17.5141 10.79 18 12.003 18C13.2161 18 14.1683 17.5141 14.7943 17.0587C15.1093 16.8297 15.3528 16.6007 15.5199 16.4263C15.6039 16.3387 15.6698 16.2635 15.717 16.2073L14.076 15.0425C13.9736 15.1493 13.8187 15.2953 13.618 15.4413C13.2128 15.736 12.665 16 12.003 16C11.3411 16 10.7933 15.736 10.3881 15.4413Z" fill="#141B34"/>
</svg>
