<svg width="24" height="24" viewBox="0 0 24 24" fill="none" xmlns="http://www.w3.org/2000/svg">
<path fill-rule="evenodd" clip-rule="evenodd" d="M4.07617 21.4808L9.07617 9.36523L10.9223 10.1345L5.92233 22.25L4.07617 21.4808ZM18.0762 22.25L13.0762 10.1345L14.9223 9.36523L19.9223 21.4808L18.0762 22.25Z" fill="#141B34"/>
<path fill-rule="evenodd" clip-rule="evenodd" d="M12.9995 1.75L12.9995 4.75L10.9995 4.75L10.9995 1.75L12.9995 1.75Z" fill="#141B34"/>
<path d="M8.24951 7.75C8.24951 5.67893 9.92844 4 11.9995 4C14.0706 4 15.7495 5.67893 15.7495 7.75C15.7495 9.82107 14.0706 11.5 11.9995 11.5C9.92844 11.5 8.24951 9.82107 8.24951 7.75Z" fill="#141B34"/>
<path fill-rule="evenodd" clip-rule="evenodd" d="M3.69853 12.1992C5.55352 14.9708 8.59258 16.7491 12 16.7491C15.4074 16.7491 18.4465 14.9708 20.3015 12.1992L22 13.2989C19.8068 16.5757 16.1578 18.7491 12 18.7491C7.84217 18.7491 4.19317 16.5757 2 13.2989L3.69853 12.1992Z" fill="#141B34"/>
<path fill-rule="evenodd" clip-rule="evenodd" d="M10.9995 19.75V15.75H12.9995V19.75H10.9995Z" fill="#141B34"/>
</svg>
