<svg width="24" height="24" viewBox="0 0 24 24" fill="none" xmlns="http://www.w3.org/2000/svg">
<path d="M5.25388 3.2502L10.25 3.25C10.4489 3.24999 10.6397 3.32901 10.7803 3.46967L14.7803 7.46967C14.921 7.61032 15 7.80109 15 8V12.9998C15 13.414 14.6642 13.7498 14.25 13.7498L5.25002 13.75C5.05104 13.75 4.86023 13.6709 4.71956 13.5302C4.5789 13.3895 4.49991 13.1986 4.5 12.9997L4.50391 3.99987C4.50409 3.5858 4.8398 3.25022 5.25388 3.2502Z" fill="#141B34"/>
<path fill-rule="evenodd" clip-rule="evenodd" d="M5.25 15.25C3.17893 15.25 1.5 16.9289 1.5 19C1.5 21.0711 3.17893 22.75 5.25 22.75H15.25C17.3211 22.75 19 21.0711 19 19C19 16.9289 17.3211 15.25 15.25 15.25H5.25ZM6.25 17.75C5.55964 17.75 5 18.3096 5 19C5 19.6904 5.55964 20.25 6.25 20.25H6.25897C6.94933 20.25 7.50897 19.6904 7.50897 19C7.50897 18.3096 6.94933 17.75 6.25897 17.75H6.25ZM10.2455 17.75C9.55516 17.75 8.99551 18.3096 8.99551 19C8.99551 19.6904 9.55516 20.25 10.2455 20.25H10.2545C10.9448 20.25 11.5045 19.6904 11.5045 19C11.5045 18.3096 10.9448 17.75 10.2545 17.75H10.2455ZM14.241 17.75C13.5507 17.75 12.991 18.3096 12.991 19C12.991 19.6904 13.5507 20.25 14.241 20.25H14.25C14.9404 20.25 15.5 19.6904 15.5 19C15.5 18.3096 14.9404 17.75 14.25 17.75H14.241Z" fill="#141B34"/>
<path d="M13.2794 7.03034L17.5597 2.75016L19.4991 2.75004V4.01382H20.9991V2C20.9991 1.80108 20.92 1.61031 20.7794 1.46965C20.6387 1.329 20.4479 1.24999 20.249 1.25L17.249 1.25017C17.0501 1.25019 16.8594 1.3292 16.7188 1.46983L12.2188 5.96966L13.2794 7.03034Z" fill="#141B34"/>
<path d="M19.5017 5V6.5H21.0017V5H19.5017Z" fill="#141B34"/>
<path d="M19.5017 7.5V9H21.0017V7.5H19.5017Z" fill="#141B34"/>
<path d="M21.0017 10V11.3795C21.1086 11.4144 21.2221 11.4592 21.3371 11.5167C21.6136 11.6549 21.9129 11.874 22.1413 12.2168C22.373 12.5642 22.5017 12.9938 22.5017 13.5C22.5017 14.7629 21.4541 15.75 20.2078 15.75C19.2213 15.75 18.367 15.1364 18.0469 14.2564L19.4565 13.7436C19.5602 14.0288 19.8497 14.25 20.2078 14.25C20.6668 14.25 21.0017 13.894 21.0017 13.5C21.0017 13.2562 20.9429 13.1233 20.8933 13.0488C20.8405 12.9697 20.7648 12.9076 20.6663 12.8583C20.5648 12.8076 20.4543 12.7785 20.3628 12.7632C20.3188 12.7559 20.2838 12.7525 20.2627 12.751C20.254 12.7504 20.2479 12.7501 20.2449 12.75H19.5017V10H21.0017Z" fill="#141B34"/>
</svg>
