<svg width="24" height="24" viewBox="0 0 24 24" fill="none" xmlns="http://www.w3.org/2000/svg">
<path fill-rule="evenodd" clip-rule="evenodd" d="M17.7546 12.0449L19.0444 15.7303L20.3343 12.0449L21.7501 12.5404L19.7523 18.2483C19.647 18.5492 19.3631 18.7506 19.0444 18.7506C18.7257 18.7506 18.4418 18.5492 18.3365 18.2483L16.3388 12.5404L17.7546 12.0449ZM11.5422 13.0006C11.5422 12.5864 11.878 12.2506 12.2922 12.2506H15.5444V13.7506H13.0422V14.7506H14.7944C15.2086 14.7506 15.5444 15.0864 15.5444 15.5006V18.0006C15.5444 18.4148 15.2086 18.7506 14.7944 18.7506H11.5422V17.2506H14.0444V16.2506H12.2922C11.878 16.2506 11.5422 15.9148 11.5422 15.5006V13.0006ZM6.04443 13.0006C6.04443 12.5864 6.38022 12.2506 6.79443 12.2506H9.79443C10.2086 12.2506 10.5444 12.5864 10.5444 13.0006V14.2506H9.04443V13.7506H7.54443V17.2506H9.04443V16.7506H10.5444V18.0006C10.5444 18.4148 10.2086 18.7506 9.79443 18.7506H6.79443C6.38022 18.7506 6.04443 18.4148 6.04443 18.0006V13.0006Z" fill="#141B34"/>
<path d="M19.7758 1.25C20.3136 1.25 20.7495 1.68754 20.7495 2.22727V10.0682H18.8021V3.20455L11.0127 3.20455L11.0127 10.0455H4.19688L4.19688 20.7955H19.96V22.75H3.2232C2.68545 22.75 2.24951 22.3125 2.24951 21.7727V8.66338L9.63567 1.25H19.7758Z" fill="#141B34"/>
</svg>
