<svg width="24" height="24" viewBox="0 0 24 24" fill="none" xmlns="http://www.w3.org/2000/svg">
<path fill-rule="evenodd" clip-rule="evenodd" d="M2 2.25L22 2.25L22 3.75L2 3.75L2 2.25Z" fill="#141B34"/>
<path d="M6.67163 14.5498C6.75977 14.3418 6.84616 14.1236 6.92909 13.897C7.37539 12.6778 7.75035 11.1406 7.75035 9.52953H6.25035C6.25035 10.9185 5.92456 12.2775 5.52049 13.3814C5.22074 14.2003 4.89304 14.8386 4.65278 15.2243C4.43537 15.2838 4.18517 15.3508 4.18517 15.3508L3.25 15.5891V2.99904L12.75 2.99902C12.75 5.21961 12.1945 7.72762 11.1273 9.88015C10.1316 11.8883 8.64886 13.6661 6.67163 14.5498Z" fill="#141B34"/>
<path d="M19.3478 15.2245C19.1075 14.8388 18.7797 14.2003 18.4799 13.3812C18.0758 12.2773 17.75 10.9182 17.75 9.5293H16.25C16.25 11.1403 16.625 12.6775 17.0713 13.8968C17.1543 14.1235 17.2407 14.3419 17.3289 14.55C15.3514 13.6664 13.8685 11.8885 12.8727 9.88015C11.8055 7.72762 11.25 5.21961 11.25 2.99902L20.75 2.99904V15.5891L19.8148 15.3508C19.8148 15.3508 19.5651 15.284 19.3478 15.2245Z" fill="#141B34"/>
<path d="M16.0548 15.5898C16.4236 15.7945 16.8109 15.9743 17.217 16.125C17.7261 16.314 19.4357 16.8033 19.4357 16.8033L20.75 17.1381V21.0004C20.75 21.4146 20.4142 21.7504 20 21.7504H15.25L15.25 20.913C15.2496 19.523 15.2491 17.4594 16.0548 15.5898Z" fill="#141B34"/>
<path d="M7.94527 15.5898C7.57639 15.7945 7.18911 15.9743 6.78301 16.125C6.27392 16.314 4.56432 16.8033 4.56432 16.8033L3.25 17.1381V21.0004C3.25 21.4146 3.58579 21.7504 4 21.7504H8.75L8.75002 20.913C8.75038 19.523 8.75093 17.4594 7.94527 15.5898Z" fill="#141B34"/>
</svg>
