<svg width="24" height="24" viewBox="0 0 24 24" fill="none" xmlns="http://www.w3.org/2000/svg">
<path fill-rule="evenodd" clip-rule="evenodd" d="M8.9883 1.43056C8.81976 1.2861 8.59587 1.22372 8.37691 1.26021L5.37691 1.76021C5.22316 1.78584 5.08122 1.85872 4.97081 1.96875L1.47256 5.45475C1.21296 5.71345 1.17834 6.12188 1.3907 6.42058L3.88894 9.93458C4.00612 10.0994 4.18488 10.2099 4.38469 10.2411C4.58451 10.2722 4.78843 10.2213 4.95021 10.1L6.20581 9.15831C6.23167 9.39822 6.24419 9.64363 6.24561 9.89359C6.25146 10.9261 6.06957 11.9694 5.89698 12.9594L5.89698 12.9594L5.89697 12.9594L5.86158 13.1628L4.13537 21.134L4.69875 21.3796C6.81468 22.302 9.42171 22.75 11.999 22.75C14.5762 22.75 17.183 22.302 19.2982 21.3796L19.8613 21.1341L18.1382 13.1629L18.1028 12.9594C17.9302 11.9694 17.7483 10.9261 17.7541 9.89359C17.7555 9.64347 17.7681 9.3979 17.794 9.15783L19.0502 10.1C19.212 10.2213 19.4159 10.2722 19.6157 10.2411C19.8155 10.2099 19.9943 10.0994 20.1115 9.93458L22.6097 6.42058C22.8221 6.12188 22.7875 5.71345 22.5278 5.45475L19.0296 1.96875C18.9192 1.85872 18.7773 1.78584 18.6235 1.76021L15.6235 1.26021C15.4045 1.22372 15.1807 1.2861 15.0121 1.43056L12.0002 4.0122L8.9883 1.43056ZM11.6877 11.7967C11.2659 11.5034 10.5638 11.3192 9.75928 11.7762C8.70347 12.3758 8.46456 14.3541 10.8999 16.0232C11.3638 16.3411 11.5957 16.5 11.998 16.5C12.4004 16.5 12.6323 16.3411 13.0962 16.0232C15.5315 14.3541 15.2926 12.3758 14.2368 11.7762C13.4323 11.3192 12.7302 11.5034 12.3084 11.7967L11.998 11.9771L11.6877 11.7967Z" fill="#141B34"/>
</svg>
