<svg width="24" height="24" viewBox="0 0 24 24" fill="none" xmlns="http://www.w3.org/2000/svg">
<path d="M22.7511 8.70246V3.84863L18.25 6.84838L18.2512 11.9998H18.8416C18.8693 12.1539 18.8982 12.3077 18.927 12.4599L18.9413 12.5356C19.0061 12.8782 19.0695 13.2133 19.1224 13.548C19.2369 14.2709 19.2924 14.9336 19.2122 15.5296C19.0864 16.4654 18.3369 17.2569 17.3021 17.4542C17.0812 17.4963 16.7916 17.4997 16 17.4997V18.9997L16.089 18.9997C16.7596 18.9999 17.2039 19 17.583 18.9277C19.2082 18.6178 20.4812 17.348 20.6989 15.7296C20.8083 14.9156 20.7256 14.0815 20.604 13.3135C20.5473 12.9556 20.48 12.5993 20.416 12.2611L20.4009 12.1814C20.3894 12.1202 20.378 12.0597 20.3667 11.9998H20.5068L21.5935 9.31207L22.7511 8.70246Z" fill="#141B34"/>
<path fill-rule="evenodd" clip-rule="evenodd" d="M1.25 20.75H18.25V22.75H1.25V20.75Z" fill="#141B34"/>
<path fill-rule="evenodd" clip-rule="evenodd" d="M2.5 2.22727C2.5 1.68754 2.93279 1.25 3.46667 1.25H16.0333C16.5672 1.25 17 1.68754 17 2.22727V21.7727C17 22.3125 16.5672 22.75 16.0333 22.75H3.46667C2.93279 22.75 2.5 22.3125 2.5 21.7727V2.22727ZM15.0667 3.20455V10.25H4.43333V3.20455H15.0667ZM10.877 12.916L9.62891 12.084L6.85156 16.25H9.85177L8.62895 18.0839L9.87695 18.9161L12.6548 14.75H9.65434L10.877 12.916Z" fill="#141B34"/>
</svg>
