<svg width="24" height="24" viewBox="0 0 24 24" fill="none" xmlns="http://www.w3.org/2000/svg">
<path fill-rule="evenodd" clip-rule="evenodd" d="M22.7498 3.22486C22.7498 2.68646 22.3123 2.25 21.7726 2.25H18.8407V4.19972H20.7953V6.15086H22.7498V3.22486ZM14.9316 4.19972L16.8862 4.19972L16.8862 2.25L14.9316 2.25L14.9316 4.19972ZM22.7498 11.0251V8.10057H20.7953V11.0251H22.7498ZM22.7498 15.8994V12.9749H20.7953V15.8994H22.7498ZM22.7498 20.7751V17.8492H20.7953V19.7949L18.8461 19.7842L18.8353 21.7339L21.7672 21.75C22.0273 21.7514 22.2772 21.6493 22.4617 21.4664C22.6461 21.2834 22.7498 21.0346 22.7498 20.7751ZM14.9316 21.75H16.8862V19.8003H14.9316V21.75Z" fill="#141B34"/>
<path d="M2.22727 2.25195C1.68754 2.25195 1.25 2.68841 1.25 3.22681V20.7673C1.25 21.3055 1.68712 21.7418 2.22658 21.7422L12.9773 21.7498V2.25195H2.22727Z" fill="#141B34"/>
</svg>
