<svg width="24" height="24" viewBox="0 0 24 24" fill="none" xmlns="http://www.w3.org/2000/svg">
<path fill-rule="evenodd" clip-rule="evenodd" d="M20.4573 4.95711L22.7502 2.66421L21.3359 1.25L19.043 3.54289L16.7502 1.25L15.3359 2.66421L17.6288 4.95711L15.3359 7.25L16.7502 8.66421L19.043 6.37132L21.3359 8.66421L22.7502 7.25L20.4573 4.95711Z" fill="#141B34"/>
<path fill-rule="evenodd" clip-rule="evenodd" d="M13.2635 10.7365C12.2815 9.75449 10.6892 9.75449 9.70718 10.7365L8.29297 9.32233C10.0561 7.55922 12.9146 7.55922 14.6777 9.32233C16.4409 11.0854 16.4409 13.944 14.6777 15.7071L13.2635 14.2929C14.2456 13.3108 14.2456 11.7186 13.2635 10.7365Z" fill="#141B34"/>
<path d="M19.0948 19.6276L18.4963 20.1558C16.6669 21.7704 14.2621 22.751 11.6301 22.751C5.89733 22.751 1.25 18.1037 1.25 12.3709C1.25 9.7389 2.23057 7.33409 3.84522 5.50471L4.37343 4.90625L19.0948 19.6276Z" fill="#141B34"/>
</svg>
