<svg width="24" height="24" viewBox="0 0 24 24" fill="none" xmlns="http://www.w3.org/2000/svg">
<path fill-rule="evenodd" clip-rule="evenodd" d="M1.25001 8.74977V11.75H2.00001C2.28957 11.75 2.66206 11.9086 2.94098 12.188C3.21996 12.4675 3.27954 12.7302 3.23962 12.8991L1.27506 20.3078C1.21539 20.5328 1.26361 20.7728 1.40558 20.9573C1.54756 21.1419 1.76718 21.25 2.00001 21.25H10C10.2841 21.25 10.5438 21.0895 10.6708 20.8354C10.7979 20.5813 10.7705 20.2773 10.6 20.05L9.31852 18.3414L10.0096 15.7498C10.8478 15.7499 11.3891 15.7484 11.8776 15.6432C13.2967 15.3373 14.4981 14.3993 15.139 13.0968C15.317 12.7348 15.4378 12.3231 15.5847 11.75H22C22.4142 11.75 22.75 11.4142 22.75 11V8.75L19 8.75V7.25L22.75 7.25V3.5C22.75 3.2298 22.6047 2.98048 22.3695 2.84735C22.1344 2.71422 21.8458 2.71786 21.6141 2.85688L19.2923 4.25H9.96029L6.36047 8.74977H1.25001ZM14.0325 11.75H11.0762L10.4099 14.2487C11.0158 14.2454 11.3074 14.2316 11.5616 14.1768C12.5326 13.9676 13.3545 13.3258 13.793 12.4346C13.8767 12.2646 13.944 12.0701 14.0325 11.75Z" fill="#141B34"/>
<path d="M8.03935 4.25H1.25001V7.24977H5.63953L8.03935 4.25Z" fill="#141B34"/>
</svg>
