<svg width="24" height="24" viewBox="0 0 24 24" fill="none" xmlns="http://www.w3.org/2000/svg">
<path d="M21.3353 22.75L1.24951 2.66421L2.66373 1.25L22.7495 21.3358L21.3353 22.75Z" fill="#141B34"/>
<path d="M12.0005 4.75C15.3142 4.75 18.0005 7.43629 18.0005 10.75V12.0164L16.3683 12.8325L22.0301 18.4943C22.2362 18.2227 22.4009 17.9445 22.5159 17.6437C22.6754 17.2263 22.755 16.7925 22.7503 16.3549C22.755 15.9173 22.6754 15.4836 22.5159 15.0662C22.3081 14.5226 21.938 14.0529 21.4545 13.5623C21.0762 13.1783 20.5918 12.7463 20.0005 12.2305V10.75C20.0005 6.33172 16.4188 2.75 12.0005 2.75C10.3758 2.75 8.86421 3.23432 7.60225 4.06646L9.05649 5.5207C9.92624 5.02999 10.9307 4.75 12.0005 4.75Z" fill="#141B34"/>
<path d="M19.1136 21.25L16.2505 19.8185V16.2502L20.256 20.2557C20.0274 20.4566 19.781 20.6705 19.5167 20.9L19.1136 21.25Z" fill="#141B34"/>
<path d="M4.00049 10.75V12.2306C3.40922 12.7464 2.92482 13.1784 2.54644 13.5624C2.06298 14.053 1.69284 14.5227 1.48511 15.0662C1.32559 15.4837 1.24593 15.9174 1.25069 16.355C1.24593 16.7926 1.32559 17.2264 1.48511 17.6438C1.69284 18.1873 2.06298 18.6571 2.54644 19.1477C3.02337 19.6317 3.66876 20.192 4.48426 20.9001L4.88741 21.2501L7.75049 19.8186V12.8915L6.00049 12.0165V10.75C6.00049 9.41204 6.43842 8.17637 7.17877 7.17851L5.75296 5.7527C4.65635 7.12188 4.00049 8.85935 4.00049 10.75Z" fill="#141B34"/>
</svg>
