<svg width="24" height="24" viewBox="0 0 24 24" fill="none" xmlns="http://www.w3.org/2000/svg">
<path fill-rule="evenodd" clip-rule="evenodd" d="M1.5 1.5H9.14426V3.5H3.5V9.14426H1.5V1.5ZM20.5 3.5H14.8557V1.5H22.5V9.14426H20.5V3.5ZM22.5 14.8557V22.5H14.8557V20.5H20.5V14.8557H22.5ZM3.5 20.5V14.8557H1.5V22.5H9.14426V20.5H3.5Z" fill="#141B34"/>
<path fill-rule="evenodd" clip-rule="evenodd" d="M22.5 13H1.5V11H22.5V13Z" fill="#141B34"/>
<path d="M5.25 12C5.25 8.27208 8.27208 5.25 12 5.25C12.4142 5.25 12.75 5.58579 12.75 6C12.75 7.24264 13.7574 8.25 15 8.25C15.5075 8.25 15.9738 8.08287 16.3499 7.80033C16.5089 7.68083 16.7089 7.62941 16.9059 7.65738C17.1028 7.68536 17.2806 7.79043 17.4001 7.94949C18.2475 9.07771 18.75 10.4813 18.75 12C18.75 12.4142 18.4142 12.75 18 12.75H6C5.58579 12.75 5.25 12.4142 5.25 12Z" fill="#141B34"/>
<path fill-rule="evenodd" clip-rule="evenodd" d="M7.82368 14.4102C8.65878 15.8538 10.2173 16.8216 12.0007 16.8216C13.7841 16.8216 15.3426 15.8538 16.1777 14.4102L17.8471 15.3758C16.6814 17.3909 14.5003 18.7501 12.0007 18.7501C9.50101 18.7501 7.31995 17.3909 6.1543 15.3758L7.82368 14.4102Z" fill="#141B34"/>
</svg>
