<svg width="24" height="24" viewBox="0 0 24 24" fill="none" xmlns="http://www.w3.org/2000/svg">
<path d="M5.14841 19.264C5.10999 19.294 5.08016 19.32 5.05714 19.3419C5.09085 19.374 5.13935 19.4149 5.20842 19.464C5.48893 19.6636 5.95964 19.8844 6.63132 20.0865C7.96201 20.487 9.86037 20.7492 12 20.7492C14.1396 20.7492 16.038 20.487 17.3687 20.0865C18.0404 19.8844 18.5111 19.6636 18.7916 19.464C18.8606 19.4149 18.9091 19.374 18.9429 19.3419C18.9198 19.32 18.89 19.294 18.8516 19.264C18.63 19.0911 18.246 18.8896 17.6773 18.6957L18.3227 16.8027C18.9987 17.0332 19.6148 17.3227 20.082 17.6873C20.5356 18.0413 21 18.5914 21 19.3417C21 20.1575 20.4547 20.7353 19.9511 21.0936C19.4219 21.4701 18.7211 21.7681 17.945 22.0017C16.3803 22.4726 14.2787 22.7492 12 22.7492C9.72135 22.7492 7.61972 22.4726 6.05497 22.0017C5.27894 21.7681 4.57807 21.4701 4.04894 21.0936C3.54526 20.7353 3 20.1575 3 19.3417C3 18.5914 3.46435 18.0413 3.91804 17.6873C4.38525 17.3227 5.00128 17.0332 5.67728 16.8027L6.32272 18.6957C5.754 18.8896 5.37003 19.0911 5.14841 19.264Z" fill="#141B34"/>
<path fill-rule="evenodd" clip-rule="evenodd" d="M12 1.25C7.73326 1.25 4.25 4.6476 4.25 8.86856C4.25 11.2888 5.24678 13.173 7.1357 14.799C8.35082 15.8451 10.5276 18.0646 11.3647 19.3986C11.4997 19.6136 11.7343 19.7458 11.9881 19.7498C12.2419 19.7538 12.4806 19.6292 12.6223 19.4185C13.5158 18.0902 15.6629 15.8332 16.8643 14.799C18.7532 13.173 19.75 11.2888 19.75 8.86856C19.75 4.6476 16.2667 1.25 12 1.25ZM15 9C15 10.6569 13.6569 12 12 12C10.3431 12 9 10.6569 9 9C9 7.34315 10.3431 6 12 6C13.6569 6 15 7.34315 15 9Z" fill="#141B34"/>
</svg>
