<svg width="24" height="24" viewBox="0 0 24 24" fill="none" xmlns="http://www.w3.org/2000/svg">
<path fill-rule="evenodd" clip-rule="evenodd" d="M12 1.24998C6.06296 1.24998 1.25002 6.06292 1.25002 12C1.25002 13.8442 1.71505 15.5819 2.53467 17.1001L1.2755 21.8061C1.20627 22.0649 1.28029 22.3409 1.46969 22.5303C1.65909 22.7197 1.93512 22.7937 2.19387 22.7245L6.8999 21.4653C8.41808 22.285 10.1558 22.75 12 22.75C17.9371 22.75 22.75 17.937 22.75 12C22.75 6.06292 17.9371 1.24998 12 1.24998ZM14.2066 14.2072L17.7066 10.7072L16.2924 9.29295L13.4472 12.1381L10.6503 9.7408C10.231 9.38138 9.59966 9.42994 9.24023 9.84927L6.24023 13.3493L7.75875 14.6508L10.108 11.9101L12.8487 14.2593C13.2454 14.5994 13.8371 14.5767 14.2066 14.2072Z" fill="#141B34"/>
</svg>
