<svg width="24" height="24" viewBox="0 0 24 24" fill="none" xmlns="http://www.w3.org/2000/svg">
<path d="M13.6004 14.0368C14.4698 14.8922 14.4665 16.2955 13.5905 17.1469L13.5764 17.1606L13.5616 17.1735C13.1484 17.5349 12.6433 17.751 12.0434 17.751C11.4464 17.751 10.8423 17.5079 10.4131 17.0909C9.53631 16.2387 9.53602 14.8666 10.3707 14.0127L10.3858 13.9973L12.0775 12.4551L13.6004 14.0368Z" fill="#141B34"/>
<path d="M10.1004 19.5368C10.9698 20.3922 10.9665 21.7955 10.0905 22.6469L10.0764 22.6606L10.0616 22.6735C9.64845 23.0349 9.14333 23.251 8.54344 23.251C7.94636 23.251 7.34229 23.0079 6.91314 22.5909C6.03631 21.7387 6.03602 20.3666 6.87068 19.5127L6.88578 19.4973L8.57753 17.9551L10.1004 19.5368Z" fill="#141B34"/>
<path d="M17.1004 19.5368C17.9698 20.3922 17.9665 21.7955 17.0905 22.6469L17.0764 22.6606L17.0616 22.6735C16.6484 23.0349 16.1433 23.251 15.5434 23.251C14.9464 23.251 14.3423 23.0079 13.9131 22.5909C13.0363 21.7387 13.036 20.3666 13.8707 19.5127L13.8858 19.4973L15.5775 17.9551L17.1004 19.5368Z" fill="#141B34"/>
<path fill-rule="evenodd" clip-rule="evenodd" d="M1.95853 8.57974C2.46175 9.45844 3.17654 10.139 4.00113 10.5931C2.35088 11.6037 1.25 13.4231 1.25 15.5C1.25 17.8801 2.69608 19.9224 4.75756 20.7963C4.81206 19.9472 5.16106 19.1149 5.79801 18.4633L5.8433 18.417L8.30612 16.1719C8.10604 15.0411 8.44197 13.8391 9.29801 12.9633L9.3433 12.917L12.1457 10.3623L14.6686 12.9828C15.4828 13.7937 15.8373 14.8913 15.7319 15.9518L18.1686 18.4828C18.8553 19.1667 19.215 20.0546 19.2475 20.9521C21.2879 20.2321 22.75 18.2868 22.75 16C22.75 13.3541 20.7927 11.1653 18.2469 10.8027C18.1428 7.44224 15.3858 4.75 12 4.75C11.9067 4.75 11.8139 4.75204 11.7216 4.75609C11.6072 4.24066 11.4145 3.73438 11.1397 3.25455C10.4229 2.00293 9.27509 1.152 7.99255 0.78665C7.68421 0.698817 7.35231 0.771121 7.10866 0.9792C6.86501 1.18728 6.74204 1.50343 6.7812 1.82114C6.89893 2.77626 6.45189 3.74549 5.58504 4.25004C4.72017 4.75344 3.67359 4.65753 2.91993 4.08326C2.66429 3.88846 2.32768 3.83502 2.02412 3.94102C1.72056 4.04703 1.49072 4.29828 1.41243 4.60968C1.08672 5.9053 1.242 7.32856 1.95853 8.57974ZM3.185 6.31676C3.23715 6.76732 3.37942 7.21446 3.61864 7.63218C4.14484 8.551 5.02726 9.12892 5.98611 9.29297C6.53241 7.36479 7.98051 5.81594 9.84591 5.13109C9.77166 4.81354 9.65063 4.50083 9.47955 4.20211C9.24355 3.79001 8.93636 3.44692 8.58292 3.17891C8.30957 4.28356 7.60885 5.28195 6.5482 5.8993C5.48709 6.51692 4.27537 6.63082 3.185 6.31676Z" fill="#141B34"/>
</svg>
