<svg width="24" height="24" viewBox="0 0 24 24" fill="none" xmlns="http://www.w3.org/2000/svg">
<path fill-rule="evenodd" clip-rule="evenodd" d="M21.0093 2C21.5616 2 22.0093 2.44772 22.0093 3V21C22.0093 21.5523 21.5616 22 21.0093 22H3.00928C2.45699 22 2.00928 21.5523 2.00928 21L2.00928 3C2.00928 2.73478 2.11463 2.48043 2.30217 2.29289C2.48971 2.10536 2.74406 2 3.00928 2L21.0093 2ZM20.0093 4L4.00928 4L4.00928 20H20.0093V4Z" fill="#141B34"/>
<path fill-rule="evenodd" clip-rule="evenodd" d="M13.2598 10.7427V13.2495H10.7598L10.7598 10.7427H13.2598Z" fill="#141B34"/>
<path fill-rule="evenodd" clip-rule="evenodd" d="M13.2598 15.7432V18.25H10.7598L10.7598 15.7432H13.2598Z" fill="#141B34"/>
<path fill-rule="evenodd" clip-rule="evenodd" d="M13.2598 5.75V8.25684H10.7598L10.7598 5.75L13.2598 5.75Z" fill="#141B34"/>
</svg>
