<svg width="24" height="24" viewBox="0 0 24 24" fill="none" xmlns="http://www.w3.org/2000/svg">
<path d="M12.8748 5.18425L11.5721 7.26865L10.886 6.85691C10.7131 6.75313 10.5056 6.72338 10.3105 6.77436C10.1154 6.82535 9.949 6.95278 9.84893 7.1279L7.84893 10.6279C7.64652 10.9821 7.76437 11.4332 8.11419 11.6431L10.6143 13.1434C10.7872 13.2472 10.9947 13.2769 11.1898 13.2259C11.3849 13.175 11.5513 13.0475 11.6514 12.8724L13.6514 9.37241C13.8538 9.01819 13.7359 8.56714 13.3861 8.35721L12.8585 8.04061L14.1503 5.97361C15.8111 7.18472 16.6218 8.65554 16.736 10.3014C16.8653 12.1661 16.0856 14.1045 15.0153 15.9264C13.944 17.7502 12.6276 19.3784 10.9275 20.197C9.16616 21.0451 7.13189 20.9613 4.81497 19.6466C2.49864 18.3322 1.39841 16.6369 1.26403 14.699C1.13472 12.8343 1.91439 10.8959 2.98468 9.07398C4.05603 7.25023 5.37246 5.62195 7.07253 4.80336C8.7548 3.99335 10.6861 4.03349 12.8748 5.18425Z" fill="#141B34"/>
<path d="M10.7712 8.53734L9.51554 10.7347L10.7291 11.463L11.9848 9.26563L10.7712 8.53734Z" fill="#141B34"/>
<path d="M13.8635 3.60262C14.0783 3.25891 14.5273 3.14804 14.8774 3.35227L20.451 6.51565L21.5502 5.0501L22.7502 5.9501L21.2502 7.9501C21.0217 8.25474 20.6012 8.33981 20.2723 8.14794L14.7499 5.01449L14.1505 5.97361C13.8558 5.75868 13.5343 5.55193 13.1852 5.35383C13.0812 5.29483 12.9778 5.23832 12.875 5.18425L13.8635 3.60262Z" fill="#141B34"/>
</svg>
