<svg width="24" height="24" viewBox="0 0 24 24" fill="none" xmlns="http://www.w3.org/2000/svg">
<path fill-rule="evenodd" clip-rule="evenodd" d="M19.9573 18.293L22.7502 15.5002L21.3359 14.0859L18.543 16.8788L15.7502 14.0859L14.3359 15.5002L17.1288 18.293L14.3359 21.0859L15.7502 22.5002L18.543 19.7073L21.3359 22.5002L22.7502 21.0859L19.9573 18.293Z" fill="#141B34"/>
<path fill-rule="evenodd" clip-rule="evenodd" d="M7 3H10V1.5H12V3H15V1.5H17V3H20C20.4142 3 20.75 3.33579 20.75 3.75V12.551L18.5433 14.7577L15.7504 11.9648L12.2148 15.5004L15.0077 18.2933L12.2148 21.0862L13.6287 22.5L2 22.5C1.58579 22.5 1.25 22.1642 1.25 21.75V3.75C1.25 3.33579 1.58579 3 2 3H5V1.5H7V3ZM7 10.5H15V9H7V10.5ZM7 15.5H11V14H7V15.5Z" fill="#141B34"/>
</svg>
