<svg width="24" height="24" viewBox="0 0 24 24" fill="none" xmlns="http://www.w3.org/2000/svg">
<path d="M3.91425 9.5C3.91425 4.94365 7.53436 1.25 12 1.25C16.4656 1.25 20.0858 4.94365 20.0858 9.5V12.3008L22.25 16.1652L21.7901 16.5687C19.5553 18.5294 15.9707 19.75 12 19.75C8.02928 19.75 4.44472 18.5294 2.20987 16.5687L1.75 16.1652L3.91425 12.3008V9.5Z" fill="#141B34"/>
<path fill-rule="evenodd" clip-rule="evenodd" d="M9.46145 20.4092C10.1227 20.9257 11.0106 21.2502 11.9998 21.2502C12.9889 21.2502 13.8769 20.9257 14.5381 20.4092L15.4614 21.5913C14.5304 22.3185 13.3157 22.7502 11.9998 22.7502C10.6838 22.7502 9.46912 22.3185 8.53809 21.5913L9.46145 20.4092Z" fill="#141B34"/>
</svg>
