<svg width="24" height="24" viewBox="0 0 24 24" fill="none" xmlns="http://www.w3.org/2000/svg">
<path fill-rule="evenodd" clip-rule="evenodd" d="M19.25 3.5344C19.8313 3.13141 20 2.72359 20 2.5H22C22 3.62641 21.2687 4.56859 20.3894 5.1781C19.4837 5.80588 18.2724 6.2 16.9574 6.2L7.68468 6.2C6.59922 6.2 5.64865 6.57323 4.98348 7.10569C4.30509 7.64873 4 8.2855 4 8.8H2C2 7.5145 2.72554 6.35127 3.73363 5.54431C4.75495 4.72677 6.14673 4.2 7.68468 4.2L16.9574 4.2C17.885 4.2 18.695 3.91912 19.25 3.5344Z" fill="#141B34"/>
<path fill-rule="evenodd" clip-rule="evenodd" d="M14.6099 17.7417L15.5047 5.42773L17.4994 5.57268L16.6051 17.8806C16.544 18.91 17.2328 19.5001 17.7655 19.5001C18.1696 19.5001 18.6618 19.1883 18.8571 18.5092L19.1406 17.5237L21.0627 18.0766L20.7792 19.0621C20.3855 20.4307 19.2241 21.5001 17.7655 21.5001C15.7877 21.5001 14.4939 19.623 14.6092 17.7526L14.6099 17.7417L14.6099 17.7417Z" fill="#141B34"/>
<path fill-rule="evenodd" clip-rule="evenodd" d="M8.70216 11.177C8.83471 9.16552 8.93431 6.98761 9.00095 5.45703L10.9991 5.54402C10.9324 7.07595 10.832 9.27304 10.6978 11.3085C10.5661 13.3081 10.3963 15.2547 10.1749 16.2234C9.96409 17.1455 9.625 18.1865 8.99543 19.0128C8.3303 19.8858 7.34969 20.5005 6 20.5005V18.5005C6.65031 18.5005 7.0697 18.2402 7.40457 17.8007C7.775 17.3145 8.03591 16.6056 8.22514 15.7777C8.40373 14.9964 8.56726 13.2242 8.70216 11.177Z" fill="#141B34"/>
</svg>
