<svg width="24" height="24" viewBox="0 0 24 24" fill="none" xmlns="http://www.w3.org/2000/svg">
<path fill-rule="evenodd" clip-rule="evenodd" d="M6.9994 1.25008L8.9994 1.25L8.99948 3.25L7.78022 3.25005L6.96958 6.49254L5.0293 6.00746L6.0293 2.00754C6.14059 1.56239 6.54055 1.2501 6.9994 1.25008ZM16.2187 3.25003L14.9994 3.25L14.9995 1.25L16.9995 1.25005C17.4583 1.25006 17.8583 1.56235 17.9696 2.00751L18.9696 6.00746L17.0293 6.49254L16.2187 3.25003Z" fill="#141B34"/>
<path d="M4.00001 5.25C3.77689 5.25 3.56536 5.34934 3.42287 5.52102C3.28039 5.69271 3.22173 5.91892 3.26285 6.13822L4.76285 14.1382C4.82936 14.4929 5.13909 14.75 5.50001 14.75H8.83238L9.16276 17.7501H8.00546L6.31064 21.7046C6.21133 21.9363 6.23509 22.2025 6.37387 22.4129C6.51265 22.6234 6.7479 22.7501 7 22.7501H17.0016C17.2537 22.7501 17.489 22.6234 17.6278 22.4128C17.7665 22.2023 17.7902 21.9361 17.6908 21.7044L15.9943 17.7501H14.837L15.1674 14.75H18.5C18.8609 14.75 19.1706 14.4929 19.2372 14.1382L20.7372 6.13822C20.7783 5.91892 20.7196 5.69271 20.5771 5.52102C20.4346 5.34934 20.2231 5.25 20 5.25H4.00001Z" fill="#141B34"/>
</svg>
