<svg width="24" height="24" viewBox="0 0 24 24" fill="none" xmlns="http://www.w3.org/2000/svg">
<path d="M20 13.25C20.1989 13.25 20.3897 13.329 20.5303 13.4697L23.0303 15.9697C23.3232 16.2626 23.3232 16.7374 23.0303 17.0303L17.3107 22.75H13.75V19.1893L19.4697 13.4697C19.6103 13.329 19.8011 13.25 20 13.25Z" fill="#141B34"/>
<path d="M1.5 1.25C1.08579 1.25 0.75 1.58579 0.75 2V6.25H20.25V2C20.25 1.58579 19.9142 1.25 19.5 1.25H1.5Z" fill="#141B34"/>
<path fill-rule="evenodd" clip-rule="evenodd" d="M20.25 7.75H0.75V20C0.75 20.4142 1.08579 20.75 1.5 20.75L12.25 20.75V18.568L18.409 12.409C18.831 11.9871 19.4033 11.75 20 11.75C20.0839 11.75 20.1674 11.7547 20.25 11.7639V7.75ZM7.5 13H5.5V11.5H7.5V13ZM15.5 13H9.5V11.5H15.5V13ZM7.5 17H5.5V15.5H7.5V17ZM12.5 17H9.5V15.5H12.5V17Z" fill="#141B34"/>
</svg>
