<svg width="24" height="24" viewBox="0 0 24 24" fill="none" xmlns="http://www.w3.org/2000/svg">
<path fill-rule="evenodd" clip-rule="evenodd" d="M9.2512 3.1878C6.04055 3.1878 3.4378 5.79055 3.4378 9.0012C3.4378 12.0749 5.82215 14.6044 8.83496 14.817L8.69854 16.75C4.67203 16.4658 1.5 13.0932 1.5 9.0012C1.5 4.72033 4.97033 1.25 9.2512 1.25C11.8484 1.25 14.439 2.53511 15.8593 4.5713L14.2699 5.67991C13.239 4.20192 11.2635 3.1878 9.2512 3.1878Z" fill="#141B34"/>
<path fill-rule="evenodd" clip-rule="evenodd" d="M8.25039 9V6H10.2504V10L7.85039 11.8L6.65039 10.2L8.25039 9Z" fill="#141B34"/>
<path fill-rule="evenodd" clip-rule="evenodd" d="M17.248 19.1978V22.7496H21.498V16.4659H22.498V14.4659H21.8813C22.0903 13.8203 22.157 13.1963 22.0864 12.5931C21.9621 11.5302 21.4288 10.6811 20.804 10.0108C20.1864 9.34807 19.4305 8.80833 18.7716 8.36579C18.5913 8.24475 18.4221 8.13313 18.2636 8.02862C17.8012 7.7236 17.4304 7.47909 17.1462 7.23744L16.4983 6.68652L15.8505 7.23757C15.5663 7.47931 15.1954 7.72395 14.7326 8.02922C14.5744 8.13355 14.4055 8.245 14.2256 8.36579C13.5668 8.80831 12.8108 9.34803 12.193 10.0107C11.5682 10.6809 11.0346 11.5299 10.9099 12.5927C10.8391 13.196 10.9055 13.8201 11.1143 14.4659H10.498V16.4659H11.498V22.7496H15.748V19.1978H17.248ZM19.7187 14.4659H13.2766C12.9189 13.77 12.8481 13.2362 12.8962 12.8258C12.9554 12.322 13.2117 11.851 13.6559 11.3745C14.1071 10.8905 14.6993 10.4569 15.3407 10.0261C15.4725 9.93758 15.6102 9.84689 15.7501 9.75472C15.9994 9.59055 16.256 9.42159 16.4985 9.25212C16.7409 9.42142 16.9971 9.59013 17.2462 9.75415C17.3864 9.84652 17.5244 9.9374 17.6565 10.0261C18.2979 10.4569 18.8899 10.8905 19.341 11.3744C19.7849 11.8508 20.041 12.3217 20.1 12.8254C20.148 13.2359 20.0769 13.7698 19.7187 14.4659Z" fill="#141B34"/>
</svg>
