<svg width="24" height="24" viewBox="0 0 24 24" fill="none" xmlns="http://www.w3.org/2000/svg">
<path fill-rule="evenodd" clip-rule="evenodd" d="M3.99805 5.25H8.40146L12.62 10.9992C12.62 12.3755 13.7334 13.4992 15.1168 13.4992H15.1231C15.3391 13.4992 15.5485 13.4719 15.748 13.4204V22C15.748 22.4142 15.4123 22.75 14.998 22.75H3.99805C3.58383 22.75 3.24805 22.4142 3.24805 22V6C3.24805 5.58579 3.58383 5.25 3.99805 5.25ZM10.498 17.999H8.49805V19.999H10.498V17.999Z" fill="#141B34"/>
<path d="M13.9004 4.11502L18.8287 9.04327L17.4145 10.4575L15.1581 8.20111C15.1429 8.20093 15.1278 8.20085 15.1126 8.20085C14.3388 8.20085 13.5987 8.4259 12.9273 8.8422L11.8734 7.14242C12.3527 6.84519 12.8666 6.61051 13.4067 6.44978L11.8367 4.87981C11.4603 5.09217 11.0973 5.3407 10.7504 5.62292L9.48828 4.07147C9.77505 3.83818 10.0728 3.62176 10.3806 3.4237L9.62109 2.66421L11.0353 1.25L12.2751 2.48979C13.1722 2.17213 14.1241 2 15.1126 2C17.217 2 19.1557 2.78016 20.7519 4.08374L19.4868 5.63279C18.2054 4.58627 16.704 4 15.1126 4C14.7018 4 14.2969 4.03906 13.9004 4.11502Z" fill="#141B34"/>
<path d="M14.1211 11C14.1211 10.4477 14.5674 10 15.1179 10H15.1243C15.6748 10 16.1211 10.4477 16.1211 11C16.1211 11.5523 15.6748 12 15.1243 12H15.1179C14.5674 12 14.1211 11.5523 14.1211 11Z" fill="#141B34"/>
</svg>
