<svg width="24" height="24" viewBox="0 0 24 24" fill="none" xmlns="http://www.w3.org/2000/svg">
<path d="M5.82557 7.42444C5.82557 4.01439 8.58996 1.25 12 1.25C15.4101 1.25 18.1745 4.01439 18.1745 7.42444C18.1745 9.08476 18.2075 10.3722 18.4033 11.4249C18.7097 10.274 19.4578 9.12746 20.4899 7.99487L21.5986 9.00519C20.2077 10.5315 19.6693 11.7714 19.7599 12.7798C19.841 13.6816 20.4526 14.6396 21.9934 15.6187C22.0931 15.6651 22.1954 15.7113 22.3007 15.7574C22.5947 15.886 22.7742 16.1874 22.7474 16.5072C22.7205 16.827 22.4932 17.0942 22.1819 17.1721C21.0852 17.4462 20.5691 17.6861 20.2387 18.0164C19.9083 18.3468 19.6685 18.863 19.3943 19.9597L19.2523 20.5278H18.6667C16.8636 20.5278 15.3075 21.0437 14.1944 21.5675C13.6395 21.8286 13.2004 22.089 12.903 22.282C12.7544 22.3784 12.5421 22.5321 12.4685 22.5857C12.1949 22.8043 11.8056 22.8044 11.5319 22.5859C11.4583 22.5324 11.2456 22.3784 11.0971 22.282C10.7996 22.089 10.3605 21.8286 9.80567 21.5675C8.69255 21.0437 7.1364 20.5278 5.33335 20.5278H4.74777L4.60574 19.9597C4.33157 18.863 4.09174 18.3468 3.76135 18.0164C3.43097 17.6861 2.91481 17.4462 1.81811 17.1721C1.5068 17.0942 1.2795 16.827 1.25265 16.5072C1.22579 16.1874 1.40535 15.886 1.69932 15.7574C1.8045 15.7113 1.90682 15.6652 2.00636 15.6188C3.54737 14.6396 4.15894 13.6816 4.24002 12.7798C4.33069 11.7714 3.79227 10.5315 2.40138 9.00519L3.5101 7.99487C4.54222 9.12751 5.29036 10.2741 5.5967 11.425C5.79249 10.3723 5.82557 9.08483 5.82557 7.42444Z" fill="#141B34"/>
</svg>
