<svg width="24" height="24" viewBox="0 0 24 24" fill="none" xmlns="http://www.w3.org/2000/svg">
<path d="M2.25 10C2.25 5.16751 6.16751 1.25 11 1.25C15.8325 1.25 19.75 5.16751 19.75 10C19.75 11.677 19.2774 13.2453 18.4586 14.5771L16.3133 14.253C17.2474 13.0877 17.8056 11.6104 17.8056 10C17.8056 8.47134 17.3016 7.0604 16.4507 5.92428L15.0902 7.28469L13.7153 5.90976L15.0757 4.54935C13.9396 3.69845 12.5287 3.19444 11 3.19444C7.2414 3.19444 4.19444 6.24139 4.19444 10C4.19444 11.6104 4.75255 13.0877 5.68669 14.253L4.16954 15.4692C2.96884 13.9714 2.25 12.0683 2.25 10Z" fill="#141B34"/>
<path d="M9 10C9 11.1046 9.89543 12 11 12C12.1046 12 13 11.1046 13 10C13 8.89543 12.1046 8 11 8C9.89543 8 9 8.89543 9 10Z" fill="#141B34"/>
<path fill-rule="evenodd" clip-rule="evenodd" d="M18.1288 19.543L16.3359 21.3359L17.7502 22.7502L19.543 20.9573L21.3359 22.7502L22.7502 21.3359L20.9573 19.543L22.7502 17.7502L21.3359 16.3359L19.543 18.1288L17.7502 16.3359L16.3359 17.7502L18.1288 19.543Z" fill="#141B34"/>
<path fill-rule="evenodd" clip-rule="evenodd" d="M1.25 15C1.25 14.5858 1.58579 14.25 2 14.25H20C20.4142 14.25 20.75 14.5858 20.75 15V15.1545L19.5432 16.3613L17.7503 14.5684L14.5684 17.7503L16.3613 19.5432L14.5684 21.3361L15.9822 22.75H2C1.58579 22.75 1.25 22.4142 1.25 22V15ZM13 19.5H9V17.5H13V19.5Z" fill="#141B34"/>
<path d="M19.5184 22.75H19.568L19.5432 22.7252L19.5184 22.75Z" fill="#141B34"/>
</svg>
