<svg width="24" height="24" viewBox="0 0 24 24" fill="none" xmlns="http://www.w3.org/2000/svg">
<path fill-rule="evenodd" clip-rule="evenodd" d="M16.6288 18.543L13.8359 15.7502L15.2502 14.3359L18.043 17.1288L20.8359 14.3359L22.2502 15.7502L19.4573 18.543L22.2502 21.3359L20.8359 22.7502L18.043 19.9573L15.2502 22.7502L13.8359 21.3359L16.6288 18.543Z" fill="#141B34"/>
<path fill-rule="evenodd" clip-rule="evenodd" d="M10.5 3.25C8.567 3.25 7 4.817 7 6.75V9.25H5V6.75C5 3.71243 7.46243 1.25 10.5 1.25C13.5376 1.25 16 3.71243 16 6.75V9.25H14V6.75C14 4.817 12.433 3.25 10.5 3.25Z" fill="#141B34"/>
<path d="M19.25 8.25H1.75V22.75H13.1287L11.7148 21.3362L14.5077 18.5433L11.7148 15.7504L15.2504 12.2148L18.0433 15.0077L19.25 13.801V8.25Z" fill="#141B34"/>
</svg>
