<svg width="24" height="24" viewBox="0 0 24 24" fill="none" xmlns="http://www.w3.org/2000/svg">
<path d="M6.99709 3.50545C8.1036 2.24389 9.8249 1.25 12.055 1.25C14.2852 1.25 16.0055 2.244 17.1119 3.50545L17.2862 3.70408C17.288 3.78859 17.305 4.31103 17.3045 4.45986C17.3034 4.75687 17.2936 5.16935 17.2582 5.6321C17.1898 6.52703 17.019 7.72526 16.5569 8.61516C14.8831 11.8381 14.8599 14.0742 14.8599 15V15.75H9.25003V15C9.25003 14.0742 9.22684 11.8381 7.55311 8.61516C7.09102 7.72536 6.91993 6.52722 6.85131 5.6323C6.81582 5.16957 6.80586 4.7571 6.8047 4.4601C6.80412 4.31127 6.82106 3.78869 6.82288 3.70419L6.99709 3.50545Z" fill="#141B34"/>
<path fill-rule="evenodd" clip-rule="evenodd" d="M7.99946 14.25C7.56903 14.25 7.1869 14.5254 7.05078 14.9338L6.16005 17.606H5.00001C4.66224 17.606 4.36614 17.8317 4.27675 18.1575L3.27675 21.8014C3.21483 22.027 3.26175 22.2686 3.40362 22.4546C3.54548 22.6407 3.76604 22.7499 4.00001 22.7499H20C20.234 22.7499 20.4545 22.6407 20.5964 22.4546C20.7383 22.2686 20.7852 22.027 20.7233 21.8014L19.7233 18.1575C19.6339 17.8317 19.3378 17.606 19 17.606H17.8389L16.9481 14.9338C16.812 14.5254 16.4299 14.25 15.9995 14.25H7.99946ZM15.7307 17.606L15.2787 16.25H8.72022L8.26824 17.606H15.7307Z" fill="#141B34"/>
</svg>
