<svg width="24" height="24" viewBox="0 0 24 24" fill="none" xmlns="http://www.w3.org/2000/svg">
<path fill-rule="evenodd" clip-rule="evenodd" d="M5.75 1.25H2C1.58579 1.25 1.25 1.58579 1.25 2V22C1.25 22.4142 1.58579 22.75 2 22.75L14.6287 22.75L13.2148 21.3362L15.5077 19.0433L13.2148 16.7504L16.7504 13.2148L19.0433 15.5077L19.75 14.801V2C19.75 1.58579 19.4142 1.25 19 1.25H15.25V4.75C15.25 5.16421 14.9142 5.5 14.5 5.5H6.5C6.08579 5.5 5.75 5.16421 5.75 4.75V1.25ZM6 10.75H15V9.25H6V10.75ZM6 15.75H11V14.25H6V15.75Z" fill="#141B34"/>
<path d="M13.75 1.25H7.25V4H13.75V1.25Z" fill="#141B34"/>
<path fill-rule="evenodd" clip-rule="evenodd" d="M20.4582 19.043L22.7511 16.7502L21.3369 15.3359L19.044 17.6288L16.7511 15.3359L15.3369 16.7502L17.6298 19.043L15.3369 21.3359L16.7511 22.7502L19.044 20.4573L21.3369 22.7502L22.7511 21.3359L20.4582 19.043Z" fill="#141B34"/>
</svg>
