<svg width="24" height="24" viewBox="0 0 24 24" fill="none" xmlns="http://www.w3.org/2000/svg">
<path fill-rule="evenodd" clip-rule="evenodd" d="M6.25391 2.5C6.25391 2.08579 6.58969 1.75 7.00391 1.75H17.0039C17.4181 1.75 17.7539 2.08579 17.7539 2.5V17.5C17.7539 17.9142 17.4181 18.25 17.0039 18.25H7.00391C6.58969 18.25 6.25391 17.9142 6.25391 17.5V2.5ZM9.75391 7C9.75391 5.75736 10.7613 4.75 12.0039 4.75C13.2465 4.75 14.2539 5.75736 14.2539 7C14.2539 8.24264 13.2465 9.25 12.0039 9.25C10.7613 9.25 9.75391 8.24264 9.75391 7ZM12.0039 10.75C10.7613 10.75 9.75391 11.7574 9.75391 13C9.75391 14.2426 10.7613 15.25 12.0039 15.25C13.2465 15.25 14.2539 14.2426 14.2539 13C14.2539 11.7574 13.2465 10.75 12.0039 10.75Z" fill="#141B34"/>
<path fill-rule="evenodd" clip-rule="evenodd" d="M11.002 22.25V17.25H13.002V22.25H11.002Z" fill="#141B34"/>
<path fill-rule="evenodd" clip-rule="evenodd" d="M19.2533 5.25002L17.0018 5.25L17.0018 3.75L20.0033 3.75003C20.4175 3.75003 20.7533 4.08582 20.7533 4.50003V6.5C20.7533 6.75082 20.6279 6.98504 20.4192 7.12413L17.4177 9.12413L16.5859 7.87587L19.2533 6.09851V5.25002Z" fill="#141B34"/>
<path fill-rule="evenodd" clip-rule="evenodd" d="M19.2533 12.25L17.0018 12.25L17.0018 10.75L20.0033 10.75C20.4175 10.75 20.7533 11.0858 20.7533 11.5V13.5C20.7533 13.7508 20.6279 13.985 20.4192 14.1241L17.4177 16.1241L16.5859 14.8759L19.2533 13.0985V12.25Z" fill="#141B34"/>
<path fill-rule="evenodd" clip-rule="evenodd" d="M3.99804 3.75003L6.99948 3.75L6.9995 5.25L4.74805 5.25002V6.09851L7.41537 7.87587L6.5836 9.12413L3.58216 7.12413C3.37343 6.98504 3.24805 6.75082 3.24805 6.5V4.50003C3.24805 4.08582 3.58383 3.75003 3.99804 3.75003Z" fill="#141B34"/>
<path fill-rule="evenodd" clip-rule="evenodd" d="M3.99999 10.75L7.00143 10.75L7.00145 12.25L4.75 12.25V13.0985L7.41733 14.8759L6.58555 16.1241L3.58411 14.1241C3.37538 13.985 3.25 13.7508 3.25 13.5V11.5C3.25 11.0858 3.58578 10.75 3.99999 10.75Z" fill="#141B34"/>
</svg>
