<svg width="24" height="24" viewBox="0 0 24 24" fill="none" xmlns="http://www.w3.org/2000/svg">
<path fill-rule="evenodd" clip-rule="evenodd" d="M20.2982 16.9841C20.593 16.6893 20.6675 16.2402 20.4831 15.8694L18.945 12.7757L19.9379 12.4415L19.3343 10.6125L18.2744 10.9694L17.8511 9.25224C17.8093 9.08269 17.7222 8.92804 17.5989 8.80481L14.8793 6.08516C14.5038 5.70966 13.8927 5.71194 13.5144 6.09026L12.962 6.64269L11.9013 5.58203L10.4871 6.99624L11.5477 8.05691L5.89089 13.7138L4.83023 12.6531L3.41602 14.0673L4.47668 15.128L3.92425 15.6804C3.54593 16.0587 3.54365 16.6698 3.91915 17.0453L6.63879 19.765C6.76202 19.8882 6.91668 19.9754 7.08622 20.0172L8.80334 20.4404L8.44651 21.5004L10.2755 22.1039L10.6097 21.111L13.7034 22.6492C14.0742 22.8336 14.5233 22.7591 14.8181 22.4642L20.2982 16.9841ZM11.6818 19.4817L17.3161 13.8474L18.445 16.118L13.9524 20.6106L11.6818 19.4817ZM14.0219 9.82398L15.0826 8.76332L16.1432 9.82398L15.0826 10.8846L14.0219 9.82398ZM8.71863 17.2486L7.65797 18.3093L6.59731 17.2486L7.65797 16.1879L8.71863 17.2486ZM9.07218 14.0666L11.9006 11.2382L12.9613 12.2989L10.1328 15.1273L9.07218 14.0666Z" fill="#141B34"/>
<path fill-rule="evenodd" clip-rule="evenodd" d="M21 3.25H3V1.25H21V3.25Z" fill="#141B34"/>
</svg>
