<svg width="24" height="24" viewBox="0 0 24 24" fill="none" xmlns="http://www.w3.org/2000/svg">
<path d="M19.5039 18.25C19.5039 19.6307 18.3846 20.75 17.0039 20.75C15.6232 20.75 14.5039 19.6307 14.5039 18.25C14.5039 16.8693 15.6232 15.75 17.0039 15.75C18.3846 15.75 19.5039 16.8693 19.5039 18.25Z" fill="#141B34"/>
<path d="M9.50391 18.25C9.50391 19.6307 8.38462 20.75 7.00391 20.75C5.62319 20.75 4.50391 19.6307 4.50391 18.25C4.50391 16.8693 5.62319 15.75 7.00391 15.75C8.38462 15.75 9.50391 16.8693 9.50391 18.25Z" fill="#141B34"/>
<path d="M2 3.25C1.80107 3.25 1.61029 3.32903 1.46964 3.4697C1.32898 3.61038 1.24997 3.80117 1.25 4.0001L1.25179 18.0001C1.25184 18.4143 1.58761 18.75 2.00179 18.75H3.28695C3.26516 18.5864 3.25391 18.4195 3.25391 18.25C3.25391 16.1789 4.93284 14.5 7.00391 14.5C9.07497 14.5 10.7539 16.1789 10.7539 18.25C10.7539 18.4195 10.7427 18.5864 10.7209 18.75H13.2869C13.2652 18.5864 13.2539 18.4195 13.2539 18.25C13.2539 16.1789 14.9328 14.5 17.0039 14.5C19.075 14.5 20.7539 16.1789 20.7539 18.25C20.7539 18.4195 20.7427 18.5864 20.7209 18.75H22.0018C22.416 18.75 22.7518 18.4142 22.7518 18V11.75H19V10.25H22.4264L19.6449 5.61415C19.5094 5.38825 19.2652 5.25002 19.0018 5.25002L16.1978 5.25001V11C16.1978 11.4142 15.862 11.75 15.4478 11.75H10.3127L11.5324 12.9697L10.4717 14.0303L7.44141 11L10.4717 7.96967L11.5324 9.03033L10.3127 10.25H14.6978V5.25H14.6958V4C14.6958 3.58579 14.36 3.25 13.9458 3.25H2Z" fill="#141B34"/>
</svg>
