<svg width="24" height="24" viewBox="0 0 24 24" fill="none" xmlns="http://www.w3.org/2000/svg">
<path fill-rule="evenodd" clip-rule="evenodd" d="M9.50195 3C9.50195 2.44772 9.94967 2 10.502 2H17.502C18.0542 2 18.502 2.44772 18.502 3V16C18.502 16.5523 18.0542 17 17.502 17H10.502C9.94967 17 9.50195 16.5523 9.50195 16V10H11.502V15H16.502V4H11.502V6H9.50195V3ZM5.50195 8C5.50195 7.44772 5.94967 7 6.50195 7H13.502C14.0542 7 14.502 7.44772 14.502 8V14H12.502V9H7.50195V20H12.502V18H14.502V21C14.502 21.5523 14.0542 22 13.502 22H6.50195C5.94967 22 5.50195 21.5523 5.50195 21V8Z" fill="#141B34"/>
<path fill-rule="evenodd" clip-rule="evenodd" d="M22.5027 9.8002L20.5027 11.3002L19.3027 9.7002L21.3027 8.2002L22.5027 9.8002ZM21.3027 16.8002L19.3027 15.3002L20.5027 13.7002L22.5027 15.2002L21.3027 16.8002Z" fill="#141B34"/>
<path fill-rule="evenodd" clip-rule="evenodd" d="M1.49727 9.8002L3.49727 11.3002L4.69727 9.7002L2.69727 8.2002L1.49727 9.8002ZM2.69727 16.8002L4.69727 15.3002L3.49727 13.7002L1.49727 15.2002L2.69727 16.8002Z" fill="#141B34"/>
</svg>
