<svg width="24" height="24" viewBox="0 0 24 24" fill="none" xmlns="http://www.w3.org/2000/svg">
<path d="M21.3348 22.75L1.24902 2.66421L2.66324 1.25L22.749 21.3358L21.3348 22.75Z" fill="#141B34"/>
<path d="M14.7454 4C14.7454 3.72564 14.5956 3.47317 14.3548 3.34171C14.1139 3.21024 13.8206 3.22076 13.5898 3.36914L9.51903 5.98631L14.7454 11.2127V4Z" fill="#141B34"/>
<path d="M6.7758 7.75H1.99609C1.58188 7.75 1.24609 8.08579 1.24609 8.5V15.5C1.24609 15.9142 1.58188 16.25 1.99609 16.25H6.7758L13.5898 20.6309C13.8206 20.7792 14.1139 20.7898 14.3548 20.6583C14.5956 20.5268 14.7454 20.2744 14.7454 20V14.7482L7.36705 7.36987L6.7758 7.75Z" fill="#141B34"/>
<path d="M20.7454 12C20.7454 10.379 20.1062 8.87496 19.0078 7.67529L20.4829 6.32471C21.8861 7.85729 22.7454 9.83246 22.7454 12C22.7454 13.9885 22.0222 15.8151 20.8193 17.2866L19.396 15.8633C20.2553 14.7491 20.7454 13.4194 20.7454 12Z" fill="#141B34"/>
<path d="M16.7442 12.0001C16.7442 11.0853 16.4432 10.2542 15.9492 9.60673L17.5393 8.39355C18.2961 9.38548 18.7442 10.6419 18.7442 12.0001C18.7442 12.9385 18.5303 13.8283 18.1485 14.6158L16.6018 13.0691C16.6943 12.7312 16.7442 12.3726 16.7442 12.0001Z" fill="#141B34"/>
</svg>
