<svg width="24" height="24" viewBox="0 0 24 24" fill="none" xmlns="http://www.w3.org/2000/svg">
<path fill-rule="evenodd" clip-rule="evenodd" d="M18.7501 12.0011C18.7501 11.0863 18.4491 10.2551 17.9551 9.6077L19.5451 8.39453C20.3019 9.38646 20.7501 10.6428 20.7501 12.0011C20.7501 13.3594 20.3019 14.6158 19.5451 15.6077L17.9551 14.3945C18.4491 13.7471 18.7501 12.916 18.7501 12.0011Z" fill="#141B34"/>
<path d="M16.3587 3.34171C16.5995 3.47317 16.7493 3.72564 16.7493 4V20C16.7493 20.2744 16.5995 20.5268 16.3587 20.6583C16.1179 20.7898 15.8245 20.7792 15.5937 20.6309L8.77971 16.25H4C3.58579 16.25 3.25 15.9142 3.25 15.5V8.5C3.25 8.08579 3.58579 7.75 4 7.75H8.77971L15.5937 3.36914C15.8245 3.22076 16.1179 3.21024 16.3587 3.34171Z" fill="#141B34"/>
</svg>
