<svg width="24" height="24" viewBox="0 0 24 24" fill="none" xmlns="http://www.w3.org/2000/svg">
<path d="M17.0001 2.25H3C2.58579 2.25 2.25 2.58579 2.25 3V21C2.25 21.4142 2.58579 21.75 3 21.75H21C21.4142 21.75 21.75 21.4142 21.75 21V3C21.75 2.58579 21.4142 2.25 21 2.25H19.0001V8C19.0001 8.26522 18.8947 8.51957 18.7072 8.70711L17.5924 9.82187C17.8556 10.4971 18 11.2317 18 12C18 15.3137 15.3137 18 12 18C8.68629 18 6 15.3137 6 12C6 8.68629 8.68629 6 12 6C13.8059 6 15.4255 6.79788 16.5255 8.06035L17.0001 7.58579V2.25Z" fill="#141B34"/>
<path d="M15.7072 11.7073L14.293 10.2931L16.5255 8.06055C16.9759 8.57745 17.3392 9.17225 17.5925 9.82205L15.7072 11.7073Z" fill="#141B34"/>
<path fill-rule="evenodd" clip-rule="evenodd" d="M10.4428 12.166C10.6715 12.8131 11.1861 13.3277 11.8332 13.5564L11.1667 15.4421C9.94991 15.012 8.98721 14.0493 8.55713 12.8325L10.4428 12.166Z" fill="#141B34"/>
</svg>
