<svg width="24" height="24" viewBox="0 0 24 24" fill="none" xmlns="http://www.w3.org/2000/svg">
<path d="M11.4697 1.46967C11.7626 1.17678 12.2374 1.17678 12.5303 1.46967L16.5303 5.46967C16.8232 5.76256 16.8232 6.23744 16.5303 6.53033L12.5303 10.5303C12.2374 10.8232 11.7626 10.8232 11.4697 10.5303L7.46967 6.53033C7.17678 6.23744 7.17678 5.76256 7.46967 5.46967L11.4697 1.46967Z" fill="#141B34"/>
<path d="M8.75 17C8.75 16.5858 9.08579 16.25 9.5 16.25H14.5C14.9142 16.25 15.25 16.5858 15.25 17V22C15.25 22.4142 14.9142 22.75 14.5 22.75H9.5C9.08579 22.75 8.75 22.4142 8.75 22V17Z" fill="#141B34"/>
<path d="M1.25 13.5C1.25 11.7051 2.70507 10.25 4.5 10.25C6.29493 10.25 7.75 11.7051 7.75 13.5C7.75 15.2949 6.29493 16.75 4.5 16.75C2.70507 16.75 1.25 15.2949 1.25 13.5Z" fill="#141B34"/>
<path d="M16.25 13.5C16.25 15.2949 17.7051 16.75 19.5 16.75C21.2949 16.75 22.75 15.2949 22.75 13.5C22.75 11.7051 21.2949 10.25 19.5 10.25C17.7051 10.25 16.25 11.7051 16.25 13.5Z" fill="#141B34"/>
<path fill-rule="evenodd" clip-rule="evenodd" d="M11 17L11 10L13 10L13 17L11 17Z" fill="#141B34"/>
<path fill-rule="evenodd" clip-rule="evenodd" d="M5.79297 10.793L8.79297 7.79297L10.2072 9.20718L7.20718 12.2072L5.79297 10.793Z" fill="#141B34"/>
<path fill-rule="evenodd" clip-rule="evenodd" d="M16.793 12.2072L13.793 9.20718L15.2072 7.79297L18.2072 10.793L16.793 12.2072Z" fill="#141B34"/>
</svg>
