<svg width="24" height="24" viewBox="0 0 24 24" fill="none" xmlns="http://www.w3.org/2000/svg">
<path d="M2 4.80078H9C10.6569 4.80078 12 6.41256 12 8.40078C12 10.389 10.6569 12.0008 9 12.0008M9 12.0008C10.6569 12.0008 12 13.6126 12 15.6008C12 17.589 10.6569 19.2008 9 19.2008H2M9 12.0008H3M2.83333 4.80078V19.2008" stroke="#141B34" stroke-width="1.5" stroke-linecap="round"/>
<path opacity="0.4" d="M4.5 3V4.8M8.66667 3V4.8M4.5 19.2V21M8.66667 19.2V21" stroke="#141B34" stroke-width="1.5" stroke-linecap="round"/>
<path opacity="0.4" d="M22 12H14.5M22 12C22 12.7002 20.0057 14.0085 19.5 14.5M22 12C22 11.2998 20.0057 9.99153 19.5 9.5" stroke="#141B34" stroke-width="1.5" stroke-linecap="round" stroke-linejoin="round"/>
</svg>
