<svg width="24" height="24" viewBox="0 0 24 24" fill="none" xmlns="http://www.w3.org/2000/svg">
<path d="M16 13.5C16 14.3284 16.6716 15 17.5 15C18.3284 15 19 14.3284 19 13.5C19 12.6716 18.3284 12 17.5 12C16.6716 12 16 12.6716 16 13.5Z" stroke="#141B34" stroke-width="1.5"/>
<path d="M2 11C2 7.22876 2 5.34315 3.17157 4.17157C4.34315 3 6.22876 3 10 3H14C14.93 3 15.395 3 15.7765 3.10222C16.8117 3.37962 17.6204 4.18827 17.8978 5.22354C18 5.60504 18 6.07003 18 7M10 7H16C18.8284 7 20.2426 7 21.1213 7.87868C22 8.75736 22 10.1716 22 13V15C22 17.8284 22 19.2426 21.1213 20.1213C20.2426 21 18.8284 21 16 21H12.4985" stroke="#141B34" stroke-width="1.5" stroke-linecap="round"/>
<path opacity="0.4" d="M10 17H6M6 17H2M6 17V21M6 17L6 13" stroke="#141B34" stroke-width="1.5" stroke-linecap="round"/>
</svg>
