<svg width="24" height="24" viewBox="0 0 24 24" fill="none" xmlns="http://www.w3.org/2000/svg">
<path d="M14.5018 2L14.7581 1.29518L14.1301 1.06672L13.831 1.66442L14.5018 2ZM20 4L20.7463 3.92536C20.7176 3.63863 20.5272 3.39369 20.2564 3.29518L20 4ZM5.995 22L5.24605 21.9604C5.23517 22.1659 5.30922 22.3668 5.45084 22.5161C5.59246 22.6654 5.78921 22.75 5.995 22.75V22ZM9.49854 2L10.1693 1.66442L9.87024 1.06673L9.24218 1.29518L9.49854 2ZM3.00391 14L2.2576 13.9257C2.2366 14.1365 2.30573 14.3463 2.44791 14.5034C2.59009 14.6604 2.79206 14.75 3.00391 14.75V14ZM21.0002 14V14.75C21.2121 14.75 21.4141 14.6604 21.5562 14.5033C21.6984 14.3461 21.7675 14.1362 21.7464 13.9254L21.0002 14ZM18.0053 22V22.75C18.2111 22.75 18.4078 22.6654 18.5495 22.5161C18.6911 22.3668 18.7651 22.1659 18.7543 21.9604L18.0053 22ZM4 4L3.74363 3.29518C3.47272 3.39372 3.28227 3.63881 3.25369 3.92566L4 4ZM12.0002 4.25C13.243 4.25 14.5274 3.6249 15.1725 2.33558L13.831 1.66442C13.4755 2.3751 12.7586 2.75 12.0002 2.75V4.25ZM19.2537 4.07464L20.2539 14.0746L21.7464 13.9254L20.7463 3.92536L19.2537 4.07464ZM21.0002 13.25H18.0002V14.75H21.0002V13.25ZM12.0002 2.75C11.2417 2.75 10.5248 2.3751 10.1693 1.66442L8.82781 2.33558C9.47288 3.6249 10.7573 4.25 12.0002 4.25V2.75ZM3.00391 14.75H6.00015V13.25H3.00391V14.75ZM5.995 22.75H18.0053V21.25H5.995V22.75ZM18.7543 21.9604L17.7491 2.96038L16.2512 3.03962L17.2564 22.0396L18.7543 21.9604ZM6.2512 2.96038L5.24605 21.9604L6.74395 22.0396L7.74911 3.03962L6.2512 2.96038ZM14.2454 2.70482L19.7436 4.70482L20.2564 3.29518L14.7581 1.29518L14.2454 2.70482ZM9.24218 1.29518L3.74363 3.29518L4.25637 4.70482L9.75491 2.70482L9.24218 1.29518ZM3.75021 14.0743L4.74631 4.07434L3.25369 3.92566L2.2576 13.9257L3.75021 14.0743Z" fill="#141B34"/>
<path d="M14 2.5C14 9 14 15 17.5 15M10 2.5C10 9 10 15 6.5 15" stroke="#141B34" stroke-width="1.5" stroke-linejoin="round"/>
</svg>
