<svg width="24" height="24" viewBox="0 0 24 24" fill="none" xmlns="http://www.w3.org/2000/svg">
<path d="M12 21H11.25C11.25 21.4142 11.5858 21.75 12 21.75V21ZM12 15.5L11.4983 14.9425C11.3402 15.0848 11.25 15.2874 11.25 15.5H12ZM15.5896 12.2694L15.0879 11.7119L15.5896 12.2694ZM19 13L19.5303 13.5303C19.671 13.3897 19.75 13.1989 19.75 13H19ZM15.4697 15.4697C15.1768 15.7626 15.1768 16.2374 15.4697 16.5303C15.7626 16.8232 16.2374 16.8232 16.5303 16.5303L15.4697 15.4697ZM16 21V21.75H16.3284L16.5511 21.5087L16 21ZM22 14.5L22.5511 15.0087C22.679 14.8702 22.75 14.6885 22.75 14.5H22ZM22 6H22.75C22.75 5.58579 22.4142 5.25 22 5.25V6ZM12.75 21V15.5H11.25V21H12.75ZM12.5017 16.0575L16.0913 12.8268L15.0879 11.7119L11.4983 14.9425L12.5017 16.0575ZM17.8114 12.8721L18.4697 13.5303L19.5303 12.4697L18.8721 11.8114L17.8114 12.8721ZM18.4697 12.4697L15.4697 15.4697L16.5303 16.5303L19.5303 13.5303L18.4697 12.4697ZM12 21.75H16V20.25H12V21.75ZM16.5511 21.5087L22.5511 15.0087L21.4489 13.9913L15.4489 20.4913L16.5511 21.5087ZM22.75 14.5V6H21.25V14.5H22.75ZM22 5.25H21V6.75H22V5.25ZM18.25 8V13H19.75V8H18.25ZM21 5.25C19.4812 5.25 18.25 6.48122 18.25 8H19.75C19.75 7.30964 20.3096 6.75 21 6.75V5.25ZM16.0913 12.8268C16.5855 12.3821 17.3413 12.402 17.8114 12.8721L18.8721 11.8114C17.8378 10.7772 16.175 10.7335 15.0879 11.7119L16.0913 12.8268Z" fill="#141B34"/>
<path d="M12 21V21.75C12.4142 21.75 12.75 21.4142 12.75 21H12ZM12 15.5H12.75C12.75 15.2874 12.6598 15.0848 12.5017 14.9425L12 15.5ZM8.41041 12.2694L8.91213 11.7119H8.91213L8.41041 12.2694ZM5 13H4.25C4.25 13.1989 4.32902 13.3897 4.46967 13.5303L5 13ZM7.46967 16.5303C7.76256 16.8232 8.23744 16.8232 8.53033 16.5303C8.82322 16.2374 8.82322 15.7626 8.53033 15.4697L7.46967 16.5303ZM8 21L7.4489 21.5087L7.67163 21.75H8V21ZM2 14.5H1.25C1.25 14.6885 1.32101 14.8702 1.4489 15.0087L2 14.5ZM2 6V5.25C1.58579 5.25 1.25 5.58579 1.25 6H2ZM12.75 21V15.5H11.25V21H12.75ZM12.5017 14.9425L8.91213 11.7119L7.90868 12.8268L11.4983 16.0575L12.5017 14.9425ZM5.12793 11.8114L4.46967 12.4697L5.53033 13.5303L6.18859 12.8721L5.12793 11.8114ZM4.46967 13.5303L7.46967 16.5303L8.53033 15.4697L5.53033 12.4697L4.46967 13.5303ZM12 20.25H8V21.75H12V20.25ZM8.5511 20.4913L2.5511 13.9913L1.4489 15.0087L7.4489 21.5087L8.5511 20.4913ZM2.75 14.5V6H1.25V14.5H2.75ZM2 6.75H3V5.25H2V6.75ZM4.25 8V13H5.75V8H4.25ZM3 6.75C3.69036 6.75 4.25 7.30964 4.25 8H5.75C5.75 6.48122 4.51878 5.25 3 5.25V6.75ZM8.91213 11.7119C7.82498 10.7335 6.16216 10.7772 5.12793 11.8114L6.18859 12.8721C6.65869 12.402 7.41452 12.3821 7.90868 12.8268L8.91213 11.7119Z" fill="#141B34"/>
<path d="M15 7.43427C14.4347 8.3725 13.406 9 12.2308 9C10.4465 9 9 7.55354 9 5.76923C9 4.594 9.6275 3.56534 10.5657 3" stroke="#141B34" stroke-width="1.5"/>
<path d="M14 4H14.009" stroke="#141B34" stroke-width="2" stroke-linecap="round" stroke-linejoin="round"/>
</svg>
