<svg width="24" height="24" viewBox="0 0 24 24" fill="none" xmlns="http://www.w3.org/2000/svg">
<path d="M11.0002 7.5C10.5441 6.89278 9.81791 6.5 9 6.5C7.61929 6.5 6.5 7.61929 6.5 9C6.5 10.2095 7.35888 11.2184 8.5 11.45M9 18C6.01443 16.0839 2 13.1309 2 9.14061C2 5.22638 5.18645 2 8.94478 2C10.9113 2 12.7212 2.88329 14 4.28624" stroke="#141B34" stroke-width="1.5" stroke-linejoin="round"/>
<path d="M15.5004 7.00293L15.9832 6.42892L15.5003 6.0229L15.0176 6.42902L15.5004 7.00293ZM19.6138 22.0029V22.7529H20.3638V22.0029H19.6138ZM11.3851 22.0029H10.6351V22.7529H11.3851V22.0029ZM16.2491 22.0027V19.0009H14.7491V22.0027H16.2491ZM15.0176 6.42902C14.5854 6.79263 13.9736 7.16457 13.2272 7.66034C12.5165 8.13245 11.7247 8.69332 11.0829 9.3742C10.4359 10.0605 9.90205 10.9099 9.77731 11.961C9.65193 13.0174 9.95343 14.1616 10.7541 15.4082L12.0162 14.5976C11.3488 13.5585 11.193 12.7599 11.2669 12.1377C11.3413 11.5102 11.6632 10.9454 12.1744 10.4031C12.6906 9.8554 13.3593 9.37341 14.0572 8.9098C14.7195 8.46986 15.4646 8.01323 15.9833 7.57684L15.0176 6.42902ZM15.0177 7.57694C15.5366 8.01325 16.2817 8.46988 16.944 8.90981C17.6419 9.37339 18.3104 9.85536 18.8265 10.403C19.3374 10.9452 19.659 11.51 19.7333 12.1374C19.8068 12.7596 19.6507 13.5583 18.9828 14.5974L20.2447 15.4084C21.0458 14.1619 21.3478 13.0177 21.2229 11.9613C21.0986 10.9102 20.565 10.0607 19.9182 9.37428C19.2765 8.69335 18.4847 8.13247 17.7739 7.66034C17.0276 7.16455 16.4156 6.79261 15.9832 6.42892L15.0177 7.57694ZM19.6138 14.2529H11.3851V15.7529H19.6138V14.2529ZM18.8638 15.0029V22.0029H20.3638V15.0029H18.8638ZM19.6138 21.2529H11.3851V22.7529H19.6138V21.2529ZM12.1351 22.0029V15.0029H10.6351V22.0029H12.1351ZM19.6138 15.7529H22V14.2529H19.6138V15.7529ZM11.3851 14.2529H9V15.7529H11.3851V14.2529Z" fill="#141B34"/>
</svg>
