<svg width="24" height="24" viewBox="0 0 24 24" fill="none" xmlns="http://www.w3.org/2000/svg">
<path fill-rule="evenodd" clip-rule="evenodd" d="M18.0768 15.142C18.7264 15.142 19.3229 15.355 19.8036 15.7144C19.8265 15.7315 19.8502 15.7476 19.8745 15.7626L20.7713 16.3142C21.0632 16.4937 21.4294 16.5013 21.7285 16.3341C22.0276 16.1669 22.2129 15.8511 22.2129 15.5084V13.2901H20.3209V13.8084C19.6517 13.4521 18.8871 13.25 18.0768 13.25C15.4476 13.25 13.3086 15.3724 13.3086 18C13.3086 20.6276 15.4476 22.75 18.0768 22.75C20.3813 22.75 22.3066 21.121 22.7494 18.9499L20.8956 18.5718C20.6301 19.8733 19.4705 20.858 18.0768 20.858C16.484 20.858 15.2006 19.5742 15.2006 18C15.2006 16.4258 16.484 15.142 18.0768 15.142Z" fill="#141B34"/>
<path fill-rule="evenodd" clip-rule="evenodd" d="M18.4967 11.7639C18.3578 11.7547 18.2178 11.75 18.0768 11.75C16.2722 11.75 14.6407 12.5123 13.4948 13.7349C12.4252 13.9045 11.246 14 10 14C7.37871 14 5.05335 13.5774 3.42144 12.9312C2.6029 12.6071 2.00872 12.2463 1.63551 11.8969C1.434 11.7083 1.31585 11.5424 1.25 11.4011V5C1.25 4.24729 1.67534 3.64244 2.18846 3.20375C2.70271 2.7641 3.39138 2.411 4.15891 2.13345C5.70115 1.57577 7.76651 1.25 10 1.25C12.2335 1.25 14.2988 1.57577 15.8411 2.13345C16.6086 2.411 17.2973 2.7641 17.8115 3.20375C18.3247 3.64244 18.75 4.24729 18.75 5V11.4011C18.7001 11.5082 18.6202 11.6294 18.4967 11.7639ZM3.47842 4.60674C3.20438 4.84102 3.19444 4.97606 3.19444 5C3.19444 5.02394 3.20438 5.15898 3.47842 5.39326C3.75132 5.62657 4.20168 5.87951 4.84165 6.11093C6.11441 6.57117 7.93794 6.875 10 6.875C12.0621 6.875 13.8856 6.57117 15.1583 6.11093C15.7983 5.87951 16.2487 5.62657 16.5216 5.39326C16.7956 5.15898 16.8056 5.02394 16.8056 5C16.8056 4.97606 16.7956 4.84102 16.5216 4.60674C16.2487 4.37343 15.7983 4.12049 15.1583 3.88907C13.8856 3.42883 12.0621 3.125 10 3.125C7.93794 3.125 6.11441 3.42883 4.84165 3.88907C4.20168 4.12049 3.75132 4.37343 3.47842 4.60674ZM6.16016 9.5C7.01886 9.68627 7.95773 9.81347 9.00195 9.8623V11.3623C8.00598 11.3157 7.02409 11.2006 6.16016 11.0315V9.5Z" fill="#141B34"/>
<path fill-rule="evenodd" clip-rule="evenodd" d="M13.6572 22.4321C12.5425 22.6373 11.301 22.75 10 22.75C7.72474 22.75 5.63146 22.4054 4.0798 21.8236C3.30674 21.5337 2.62904 21.1704 2.13112 20.7289C1.63408 20.2883 1.25 19.7057 1.25 19V14.1072C1.67361 14.3597 2.14385 14.5848 2.64539 14.7834C4.57929 15.5492 7.18005 16 10 16C10.7403 16 11.4655 15.9689 12.1675 15.9093C11.9352 16.5624 11.8086 17.266 11.8086 18C11.8086 19.7359 12.5165 21.3018 13.6572 22.4321ZM9 18.3623C7.95578 18.3135 7.0169 18.1863 6.1582 18V19.5315C7.02214 19.7006 8.00402 19.8157 9 19.8623V18.3623Z" fill="#141B34"/>
</svg>
