<svg width="24" height="24" viewBox="0 0 24 24" fill="none" xmlns="http://www.w3.org/2000/svg">
<path fill-rule="evenodd" clip-rule="evenodd" d="M5.21972 1.2502L18.7804 1.25C19.0373 1.25 19.2838 1.35299 19.4654 1.53632C19.6471 1.71965 19.7491 1.96829 19.7491 2.22752L19.7476 7.09116L17.8102 7.09066L17.8114 3.20456L6.18841 3.20473L6.18831 7.09093L4.25093 7.09089L4.25104 2.22746C4.25105 1.68774 4.68474 1.25021 5.21972 1.2502ZM17.8122 20.7955L17.8102 16.9095L19.7476 16.9087L19.75 21.7723C19.7501 22.0316 19.6481 22.2803 19.4664 22.4636C19.2847 22.647 19.0383 22.75 18.7813 22.75H5.21869C4.96175 22.75 4.71534 22.647 4.53367 22.4637C4.352 22.2804 4.24996 22.0318 4.25 21.7726L4.25093 16.9089L6.18831 16.9092L6.18754 20.7955H17.8122Z" fill="#141B34"/>
<path fill-rule="evenodd" clip-rule="evenodd" d="M13.5 19H10.5V17H13.5V19Z" fill="#141B34"/>
<path d="M5.00096 7L5.00107 2.00021L19 2L18.9985 7M5.00096 17L5 22H19.001L18.9985 17" stroke="#141B34" stroke-width="1.5" stroke-linejoin="round"/>
<path fill-rule="evenodd" clip-rule="evenodd" d="M17.2929 8.29297L15.8787 9.70718L18.1716 12.0001L15.8787 14.293L17.2929 15.7072L21 12.0001L17.2929 8.29297Z" fill="#141B34"/>
<path fill-rule="evenodd" clip-rule="evenodd" d="M6.70711 8.29297L8.12132 9.70718L5.82843 12.0001L8.12132 14.293L6.70711 15.7072L3 12.0001L6.70711 8.29297Z" fill="#141B34"/>
</svg>
