<svg width="24" height="24" viewBox="0 0 24 24" fill="none" xmlns="http://www.w3.org/2000/svg">
<path d="M11.4575 1.48252C11.6579 1.27222 11.9618 1.19663 12.2375 1.28851C15.4423 2.35677 18.3808 5.06298 19.9237 8.17259C21.5866 11.3185 21.6484 14.8287 20.3211 17.6332C18.984 20.4586 16.2564 22.5196 12.4834 22.7486C12.4683 22.7496 12.4531 22.75 12.4379 22.75C2.70651 22.75 -0.723576 11.167 6.95298 5.83876C7.18228 5.67961 7.48099 5.66096 7.72831 5.79035C7.97562 5.91974 8.13063 6.17577 8.13063 6.45489C8.13063 7.41535 8.23223 8.10264 8.38129 8.57177C8.53203 9.04617 8.70899 9.23139 8.81039 9.29721C8.88758 9.34731 8.99048 9.37558 9.17651 9.31635C9.38216 9.25087 9.65417 9.0837 9.95707 8.77853C10.5602 8.17085 11.1455 7.15613 11.4506 5.96206C11.754 4.77503 11.7655 3.47036 11.3009 2.27092C11.196 1.99999 11.257 1.69282 11.4575 1.48252Z" fill="#141B34"/>
</svg>
