<svg width="24" height="24" viewBox="0 0 24 24" fill="none" xmlns="http://www.w3.org/2000/svg">
<path d="M21.504 7.45715L22.0335 7.98837L22.0335 7.98837L21.504 7.45715ZM21.576 5.25669L22.1054 4.72548L21.576 5.25669ZM19.0657 7.93207L19.3185 7.22599L19.0657 7.93207ZM7.40939 21.5046L6.87996 20.9734L6.87995 20.9734L7.40939 21.5046ZM5.20155 21.5764L5.73099 21.0452L5.20155 21.5764ZM7.8859 19.0745L7.18036 19.3288L7.8859 19.0745ZM21.0466 5.78791C21.3207 6.06114 21.3395 6.56223 20.9746 6.92593L22.0335 7.98837C22.8937 7.13098 23.0565 5.67333 22.1054 4.72548L21.0466 5.78791ZM16.001 3.25C17.718 3.25 19.5247 4.27115 21.0466 5.78791L22.1054 4.72548C20.4505 3.07611 18.284 1.75 16.001 1.75V3.25ZM16.2655 8.26429C17.1615 8.2282 18.0074 8.3497 18.8128 8.63815L19.3185 7.22599C18.3188 6.86794 17.2794 6.72224 16.2051 6.76551L16.2655 8.26429ZM4.67211 22.1076C5.62131 23.0536 7.0795 22.8923 7.93883 22.0359L6.87995 20.9734C6.5141 21.338 6.00697 21.3202 5.73099 21.0452L4.67211 22.1076ZM1.75 16.4995C1.74916 17.8783 2.06086 18.8925 2.61963 19.7813C3.15299 20.6295 3.90517 21.3432 4.67211 22.1076L5.73099 21.0452C4.90955 20.2265 4.3102 19.652 3.88949 18.9828C3.49421 18.3541 3.24932 17.6217 3.25 16.5005L1.75 16.4995ZM6.71141 16.1951C6.66791 17.2681 6.82124 18.3328 7.18036 19.3288L8.59145 18.8201C8.3019 18.017 8.17406 17.1467 8.21018 16.2559L6.71141 16.1951ZM18.8128 8.63815C19.8949 9.02568 21.1427 8.8761 22.0335 7.98837L20.9746 6.92593C20.5614 7.33767 19.9509 7.45244 19.3185 7.22599L18.8128 8.63815ZM7.18036 19.3288C7.40665 19.9565 7.29239 20.5624 6.87996 20.9734L7.93882 22.0359C8.83024 21.1475 8.98119 19.9011 8.59145 18.8201L7.18036 19.3288Z" fill="#141B34"/>
<path d="M7.53535 4.21042L7.89914 4.86629L7.53535 4.21042ZM12.64 8.03294L11.9664 8.36276L12.64 8.03294ZM11.6026 5.91432L12.2762 5.5845L11.6026 5.91432ZM11.9795 12.0713L11.447 11.5431L11.9795 12.0713ZM9.8101 3.65861L9.58348 4.37354L9.58348 4.37355L9.8101 3.65861ZM4.18234 7.59083L3.52399 7.23156V7.23156L4.18234 7.59083ZM10.4475 13.3166L10.6872 14.0272L10.6872 14.0272L10.4475 13.3166ZM9.82139 13.4206L9.81839 12.6706H9.81839L9.82139 13.4206ZM3.635 9.88417L4.35098 9.66087L3.635 9.88417ZM13.0863 2.38632L12.8918 1.66198V1.66198L13.0863 2.38632ZM16.2349 8.53583L16.8189 9.00646L16.8189 9.00645L16.2349 8.53583ZM16.1573 2.39343L16.6228 1.80541L16.6228 1.8054L16.1573 2.39343ZM2.37303 13.1871L1.6479 12.9956H1.6479L2.37303 13.1871ZM5.9566 16.9107L5.90133 16.1627L5.9566 16.9107ZM8.52524 16.3169L9.02017 16.8804L9.02017 16.8804L8.52524 16.3169ZM2.44665 16.3642L1.8798 16.8553L1.87981 16.8553L2.44665 16.3642ZM13.3136 7.70311L12.2762 5.5845L10.9291 6.24414L11.9664 8.36276L13.3136 7.70311ZM7.89914 4.86629C8.41131 4.58221 8.69681 4.4283 8.94632 4.35405C9.14191 4.29584 9.31366 4.28802 9.58348 4.37354L10.0367 2.94367C9.49211 2.77103 9.01326 2.76911 8.51847 2.91636C8.0776 3.04756 7.63294 3.29865 7.17157 3.55455L7.89914 4.86629ZM12.2762 5.5845C11.9614 4.9416 11.686 4.37329 11.3744 3.94361C11.0354 3.47604 10.6264 3.13059 10.0367 2.94366L9.58348 4.37355C9.80821 4.44478 9.96951 4.56134 10.1601 4.82417C10.3782 5.12488 10.5918 5.55534 10.9291 6.24414L12.2762 5.5845ZM11.447 11.5431C11.0762 11.917 10.8304 12.1639 10.6236 12.3398C10.426 12.5077 10.307 12.5724 10.2077 12.6059L10.6872 14.0272C11.0341 13.9102 11.3191 13.7172 11.5951 13.4826C11.8618 13.2559 12.1589 12.9554 12.512 12.5995L11.447 11.5431ZM10.2077 12.6059C10.0821 12.6483 9.95068 12.6701 9.81839 12.6706L9.82438 14.1706C10.1178 14.1695 10.4091 14.121 10.6872 14.0272L10.2077 12.6059ZM3.52399 7.23156C3.26986 7.69724 3.02162 8.14421 2.892 8.58691C2.74694 9.08236 2.74871 9.5614 2.91901 10.1075L4.35098 9.66087C4.26521 9.38584 4.27285 9.20896 4.33157 9.00839C4.40574 8.75506 4.5592 8.46592 4.84069 7.9501L3.52399 7.23156ZM10.1673 4.3181C11.1148 3.80493 12.2646 3.38352 13.2808 3.11066L12.8918 1.66198C11.7922 1.95724 10.5274 2.4172 9.45294 2.99911L10.1673 4.3181ZM13.2808 3.11066C14.0734 2.89783 14.5563 2.77215 14.9378 2.75249C15.2538 2.73621 15.4565 2.79525 15.6917 2.98145L16.6228 1.8054C16.0735 1.37054 15.5029 1.22138 14.8606 1.25448C14.2839 1.2842 13.6235 1.46551 12.8918 1.66198L13.2808 3.11066ZM2.97309 9.53149C2.39639 10.6138 1.94052 11.8879 1.6479 12.9956L3.09815 13.3787C3.36904 12.3533 3.7874 11.1931 4.2969 10.2368L2.97309 9.53149ZM5.90133 16.1627C4.92181 16.2351 4.2882 16.279 3.81384 16.2284C3.39031 16.1832 3.18541 16.0715 3.0135 15.8731L1.87981 16.8553C2.36406 17.4142 2.96286 17.6461 3.65463 17.7199C4.29557 17.7884 5.08886 17.7269 6.01187 17.6587L5.90133 16.1627ZM6.01187 17.6587C6.84936 17.5968 7.54006 17.5501 8.07738 17.3907L7.65077 15.9527C7.30646 16.0548 6.81271 16.0954 5.90133 16.1627L6.01187 17.6587ZM15.6917 2.98144C15.7995 3.06681 15.9587 3.30353 16.0815 3.7766C16.1979 4.22492 16.2552 4.78431 16.2496 5.37306C16.2441 5.95956 16.1764 6.54627 16.0598 7.04324C15.9386 7.55995 15.7826 7.90185 15.651 8.06522L16.8189 9.00645C17.1599 8.58326 17.3802 7.98257 17.5202 7.38571C17.6648 6.76912 17.7431 6.07128 17.7496 5.3873C17.756 4.70557 17.6915 4.00857 17.5334 3.39961C17.3817 2.81541 17.1136 2.194 16.6228 1.80541L15.6917 2.98144ZM15.651 8.06521C15.4994 8.25328 15.102 8.49933 14.5158 8.74011C13.9683 8.96495 13.383 9.13558 12.9991 9.23237L13.3657 10.6869C13.7918 10.5795 14.4505 10.3885 15.0856 10.1277C15.6819 9.88274 16.4058 9.519 16.8189 9.00646L15.651 8.06521ZM9.02017 16.8804C9.3265 16.6114 9.56142 16.2469 9.73926 15.9076C9.92224 15.5585 10.0724 15.1821 10.1901 14.8448C10.3085 14.5054 10.3988 14.1922 10.4594 13.9644C10.4898 13.85 10.5131 13.7561 10.5289 13.6898C10.5368 13.6567 10.5429 13.6304 10.5471 13.6118C10.5493 13.6025 10.5509 13.5952 10.5521 13.5899C10.5527 13.5872 10.5532 13.5851 10.5535 13.5834C10.5537 13.5826 10.5538 13.582 10.554 13.5814C10.554 13.5811 10.5541 13.5809 10.5541 13.5807C10.5541 13.5806 10.5542 13.5805 10.5542 13.5804C10.5542 13.5803 10.5542 13.5802 9.82139 13.4206C9.08855 13.2611 9.08857 13.261 9.08859 13.2609C9.08859 13.2609 9.08861 13.2608 9.08862 13.2608C9.08863 13.2607 9.08864 13.2607 9.08865 13.2607C9.08865 13.2607 9.08863 13.2608 9.08857 13.261C9.08847 13.2615 9.08825 13.2625 9.08792 13.2639C9.08726 13.2669 9.08615 13.2718 9.0846 13.2787C9.0815 13.2923 9.07662 13.3134 9.07 13.3411C9.05676 13.3965 9.03661 13.478 9.00982 13.5787C8.95601 13.7809 8.87655 14.0563 8.77384 14.3506C8.67041 14.6469 8.54793 14.9494 8.41072 15.2112C8.26836 15.4828 8.13551 15.661 8.0303 15.7534L9.02017 16.8804ZM6.01187 17.6587C6.69689 17.608 7.26891 17.5648 7.73043 17.4719C8.21436 17.3745 8.6436 17.2112 9.02017 16.8804L8.03031 15.7534C7.91604 15.8538 7.76181 15.9355 7.43455 16.0014C7.08488 16.0717 6.61801 16.1098 5.90133 16.1627L6.01187 17.6587ZM1.6479 12.9956C1.52558 13.4586 1.31739 14.1211 1.26393 14.7579C1.20753 15.4296 1.30728 16.1945 1.8798 16.8553L3.01351 15.8731C2.79587 15.6219 2.7225 15.3142 2.75867 14.8834C2.79778 14.4176 2.94785 13.9476 3.09815 13.3787L1.6479 12.9956ZM2.91901 10.1075C3.10369 10.6996 3.57659 11.2284 4.07671 11.6592C4.59785 12.1082 5.24445 12.5315 5.91375 12.8948C6.585 13.2592 7.29912 13.5741 7.96505 13.7992C8.61698 14.0196 9.27752 14.1728 9.82438 14.1706L9.81839 12.6706C9.51494 12.6719 9.0374 12.5783 8.44541 12.3782C7.86742 12.1828 7.23179 11.9035 6.62938 11.5765C6.02503 11.2484 5.47408 10.8832 5.05572 10.5228C4.61633 10.1443 4.40778 9.84299 4.35098 9.66087L2.91901 10.1075ZM12.512 12.5995C13.2216 11.8841 13.7494 11.1873 13.8946 10.3385C14.0401 9.48778 13.7745 8.64439 13.3136 7.70311L11.9664 8.36276C12.3906 9.22897 12.4796 9.71428 12.4161 10.0856C12.3522 10.4589 12.1072 10.8776 11.447 11.5431L12.512 12.5995ZM4.84069 7.9501C5.5456 6.65838 6.61958 5.57601 7.89914 4.86629L7.17157 3.55455C5.64223 4.40282 4.36445 5.69143 3.52399 7.23156L4.84069 7.9501Z" fill="#141B34"/>
</svg>
