<svg width="24" height="24" viewBox="0 0 24 24" fill="none" xmlns="http://www.w3.org/2000/svg">
<path d="M3.15224 20.7654L2.45933 21.0524L2.45933 21.0524L3.15224 20.7654ZM4.23463 21.8478L3.94762 22.5407H3.94762L4.23463 21.8478ZM4.23463 16.1522L3.94762 15.4593L3.94762 15.4593L4.23463 16.1522ZM3.15224 17.2346L2.45933 16.9476V16.9476L3.15224 17.2346ZM21 16.75C21.4142 16.75 21.75 16.4142 21.75 16C21.75 15.5858 21.4142 15.25 21 15.25V16.75ZM21 22.75C21.4142 22.75 21.75 22.4142 21.75 22C21.75 21.5858 21.4142 21.25 21 21.25V22.75ZM20 22.75C20.4142 22.75 20.75 22.4142 20.75 22C20.75 21.5858 20.4142 21.25 20 21.25V22.75ZM20 16.75C20.4142 16.75 20.75 16.4142 20.75 16C20.75 15.5858 20.4142 15.25 20 15.25V16.75ZM2.25 19C2.25 19.4557 2.24959 19.835 2.27077 20.1454C2.29241 20.4625 2.33905 20.762 2.45933 21.0524L3.84515 20.4784C3.81319 20.4012 3.78372 20.284 3.76729 20.0433C3.75041 19.7958 3.75 19.4762 3.75 19H2.25ZM6 21.25C5.5238 21.25 5.20421 21.2496 4.95674 21.2327C4.71602 21.2163 4.5988 21.1868 4.52165 21.1548L3.94762 22.5407C4.23801 22.661 4.53754 22.7076 4.85464 22.7292C5.165 22.7504 5.54432 22.75 6 22.75V21.25ZM2.45933 21.0524C2.73844 21.7262 3.27379 22.2616 3.94762 22.5407L4.52165 21.1548C4.21536 21.028 3.97202 20.7846 3.84515 20.4784L2.45933 21.0524ZM6 15.25C5.54432 15.25 5.165 15.2496 4.85464 15.2708C4.53754 15.2924 4.23801 15.339 3.94762 15.4593L4.52165 16.8452C4.5988 16.8132 4.71602 16.7837 4.95674 16.7673C5.20421 16.7504 5.5238 16.75 6 16.75V15.25ZM3.75 19C3.75 18.5238 3.75041 18.2042 3.76729 17.9567C3.78372 17.716 3.81319 17.5988 3.84515 17.5216L2.45933 16.9476C2.33905 17.238 2.29241 17.5375 2.27077 17.8546C2.24959 18.165 2.25 18.5443 2.25 19H3.75ZM3.94762 15.4593C3.27379 15.7384 2.73844 16.2738 2.45933 16.9476L3.84515 17.5216C3.97202 17.2154 4.21536 16.972 4.52165 16.8452L3.94762 15.4593ZM21 15.25H6V16.75H21V15.25ZM6 22.75H21V21.25H6V22.75ZM20 21.25C19.7765 21.25 19.4824 21.1141 19.2098 20.7053C18.9408 20.3017 18.75 19.701 18.75 19H17.25C17.25 19.9558 17.5069 20.8551 17.9617 21.5373C18.4131 22.2143 19.1189 22.75 20 22.75V21.25ZM18.75 19C18.75 18.299 18.9408 17.6983 19.2098 17.2947C19.4824 16.8859 19.7765 16.75 20 16.75V15.25C19.1189 15.25 18.4131 15.7857 17.9617 16.4627C17.5069 17.1449 17.25 18.0442 17.25 19H18.75Z" fill="#141B34"/>
<path d="M12 6.5C12 4 9.27273 3 9.27273 3M12 6.92131C12 6.92131 6 3.85577 6 8.90819C6 13.9606 8.73009 16 9.81818 16C10.6861 16 11.1981 14.9913 12 14.9913C12.8019 14.9913 13.0909 16 14.1818 16C15.2699 16 18 13.9606 18 8.90819C18 3.85578 12 6.92131 12 6.92131ZM12.5455 6C12.5455 2.01035 14.5102 3 15.4926 2C16.475 4.5 15.1601 5.00259 12.5455 6Z" stroke="#141B34" stroke-width="1.5" stroke-linecap="round" stroke-linejoin="round"/>
</svg>
