<svg width="24" height="24" viewBox="0 0 24 24" fill="none" xmlns="http://www.w3.org/2000/svg">
<path d="M2 2.25C1.80109 2.25 1.61032 2.32902 1.46967 2.46967C1.32902 2.61032 1.25 2.80109 1.25 3V21C1.25 21.4142 1.58579 21.75 2 21.75H13.9378C12.5987 20.6037 11.75 18.901 11.75 17C11.75 13.5482 14.5482 10.75 18 10.75C19.901 10.75 21.6037 11.5987 22.75 12.9378V7C22.75 6.58579 22.4142 6.25 22 6.25H12.375L9.375 2.25001L2 2.25Z" fill="#141B34"/>
<path fill-rule="evenodd" clip-rule="evenodd" d="M15.3122 17.95C15.7034 19.0569 16.7591 19.85 18 19.85C18.8996 19.85 19.7015 19.4343 20.2253 18.7808L21.7078 19.9692C20.8388 21.0532 19.5005 21.75 18 21.75C15.3766 21.75 13.25 19.6234 13.25 17V16.05H16.0224V17.95H15.3122ZM19.828 17.95H22.75V17C22.75 14.3766 20.6234 12.25 18 12.25C16.4995 12.25 15.1612 12.9468 14.2922 14.0308L15.7747 15.2192C16.2985 14.5657 17.1004 14.15 18 14.15C19.2409 14.15 20.2966 14.9431 20.6878 16.05H19.828V17.95Z" fill="#141B34"/>
</svg>
