<svg width="24" height="24" viewBox="0 0 24 24" fill="none" xmlns="http://www.w3.org/2000/svg">
<path d="M2.30827 17.6837C4.987 16.476 8.34293 15.75 12 15.75V14.25C8.15279 14.25 4.58372 15.0124 1.69173 16.3163L2.30827 17.6837ZM22.3083 16.3163C19.4163 15.0124 15.8472 14.25 12 14.25V15.75C15.6571 15.75 19.013 16.476 21.6917 17.6837L22.3083 16.3163Z" fill="#141B34"/>
<path d="M2 12.7419V7.62381C2 6.68982 2 6.22283 2.21793 5.78125C2.43586 5.33967 2.75091 5.10333 3.38101 4.63064C3.62534 4.44735 3.87377 4.27162 4.1261 4.10371C5.43372 3.23354 6.08753 2.79846 6.98358 3.09049C7.87962 3.38252 8.22524 4.25903 8.91647 6.01207L10 8.76003M2 12.7419V16.871C2 18.8174 2 19.7906 2.58579 20.3953C3.17157 21 4.11438 21 6 21H17L12.5128 9.88334C12.2587 9.25386 12.1317 8.93912 11.8498 8.76442C11.5679 8.58972 11.2682 8.61908 10.6686 8.67779C10.4445 8.69974 10.2216 8.72719 10 8.76003M2 12.7419C4.28291 10.6169 7.02069 9.20153 10 8.76003" stroke="#141B34" stroke-width="1.5"/>
<path d="M14.945 20.25C14.5308 20.25 14.195 20.5858 14.195 21C14.195 21.4142 14.5308 21.75 14.945 21.75V20.25ZM20.5963 11.9403L21.0323 11.33L20.5963 11.9403ZM16.9607 10L17.2218 9.29689C16.9916 9.21143 16.7341 9.24406 16.5325 9.38426C16.3309 9.52445 16.2107 9.75445 16.2107 10H16.9607ZM16.9607 12V12.75C17.3749 12.75 17.7107 12.4142 17.7107 12H16.9607ZM21.4096 20.4142L20.8814 19.8818L20.8814 19.8818L21.4096 20.4142ZM14.945 21.75H17.9686V20.25H14.945V21.75ZM22.75 17V14.8489H21.25V17H22.75ZM21.0323 11.33C19.8494 10.4851 18.5721 9.79822 17.2218 9.29689L16.6997 10.7031C17.92 11.1562 19.0803 11.7791 20.1604 12.5506L21.0323 11.33ZM16.2107 10V12H17.7107V10H16.2107ZM16.9607 11.25H13V12.75H16.9607V11.25ZM22.75 14.8489C22.75 14.005 22.7682 13.3381 22.4447 12.7115L21.1119 13.3997C21.2318 13.6319 21.25 13.8743 21.25 14.8489H22.75ZM20.1604 12.5506C20.8381 13.0346 20.9889 13.1615 21.1119 13.3997L22.4447 12.7115C22.1243 12.0909 21.635 11.7605 21.0323 11.33L20.1604 12.5506ZM17.9686 21.75C18.8978 21.75 19.6695 21.7516 20.2795 21.6702C20.9105 21.586 21.4799 21.401 21.9379 20.9466L20.8814 19.8818C20.749 20.0132 20.548 20.1211 20.0812 20.1834C19.5934 20.2484 18.9398 20.25 17.9686 20.25V21.75ZM21.25 17C21.25 17.9642 21.2484 18.6113 21.183 19.0938C21.1206 19.5542 21.0129 19.7513 20.8814 19.8818L21.9379 20.9466C22.3967 20.4914 22.5842 19.9241 22.6694 19.2952C22.7516 18.6886 22.75 17.9214 22.75 17H21.25Z" fill="#141B34"/>
<path d="M12 21V19" stroke="#141B34" stroke-width="1.5" stroke-linecap="round" stroke-linejoin="round"/>
<path d="M10 15V13" stroke="#141B34" stroke-width="1.5" stroke-linecap="round" stroke-linejoin="round"/>
<path d="M6 15.5V13.5" stroke="#141B34" stroke-width="1.5" stroke-linecap="round" stroke-linejoin="round"/>
<path d="M8 21V19" stroke="#141B34" stroke-width="1.5" stroke-linecap="round" stroke-linejoin="round"/>
</svg>
