<svg width="24" height="24" viewBox="0 0 24 24" fill="none" xmlns="http://www.w3.org/2000/svg">
<path opacity="0.4" d="M1.25 12C1.25 6.06294 6.06294 1.25 12 1.25C17.9371 1.25 22.75 6.06294 22.75 12C22.75 17.9371 17.9371 22.75 12 22.75C6.06294 22.75 1.25 17.9371 1.25 12Z" fill="#141B34"/>
<path fill-rule="evenodd" clip-rule="evenodd" d="M7.54964 17.5997C7.88084 17.8484 8.35099 17.7816 8.59974 17.4504C9.37631 16.4164 10.6103 15.75 12 15.75C13.3898 15.75 14.6238 16.4164 15.4003 17.4504C15.6491 17.7816 16.1192 17.8484 16.4505 17.5997C16.7817 17.3509 16.8485 16.8808 16.5997 16.5495C15.5521 15.1546 13.8816 14.25 12 14.25C10.1185 14.25 8.44802 15.1546 7.40035 16.5495C7.1516 16.8808 7.21843 17.3509 7.54964 17.5997Z" fill="#141B34"/>
<path d="M17.0672 8.26342C17.4797 8.30067 17.7843 8.66532 17.7471 9.07786C17.7099 9.49015 17.3457 9.79426 16.9334 9.75745C16.9334 9.75745 16.8172 9.75112 16.7563 9.75021C16.6337 9.74837 16.4632 9.75149 16.2737 9.77094C16.0721 9.79163 15.8789 9.82791 15.7082 9.88073L15.7827 10.1169C16.0678 11.0215 15.3059 11.7498 14.5237 11.7498C14.1027 11.7498 13.6994 11.558 13.458 11.2124C13.2018 10.8457 13.1653 10.3455 13.4448 9.92164C13.6506 9.60956 13.9469 9.23085 14.3378 8.92042C14.9016 8.47268 15.6264 8.3295 16.1205 8.27878C16.3817 8.25198 16.8092 8.24013 17.0672 8.26342Z" fill="#141B34"/>
<path d="M6.93298 8.26342C6.52044 8.30067 6.21584 8.66532 6.25308 9.07786C6.29031 9.49015 6.65451 9.79426 7.06674 9.75745C7.06674 9.75745 7.183 9.75112 7.24383 9.75021C7.36647 9.74837 7.53699 9.75149 7.72649 9.77094C7.92804 9.79163 8.12123 9.82791 8.29196 9.88073L8.2175 10.1169C7.93235 11.0215 8.69425 11.7498 9.47644 11.7498C9.89751 11.7498 10.3008 11.558 10.5422 11.2124C10.7983 10.8457 10.8349 10.3455 10.5553 9.92164C10.3496 9.60956 10.0532 9.23085 9.66236 8.92042C9.09859 8.47268 8.37374 8.3295 7.87965 8.27878C7.61848 8.25198 7.19098 8.24013 6.93298 8.26342Z" fill="#141B34"/>
</svg>
