<svg width="24" height="24" viewBox="0 0 24 24" fill="none" xmlns="http://www.w3.org/2000/svg">
<path d="M14.7719 17.0391C15.4247 16.6792 15.9999 16.1963 16.466 15.622C17.2438 15.8624 18.1051 16.1952 18.8423 16.6729C19.4452 17.0634 20.0079 17.5771 20.3656 18.2582C20.7313 18.9546 20.8532 19.7705 20.6564 20.695L20.655 20.7014C20.4207 21.7571 19.6706 22.3966 18.8394 22.6371C18.0395 22.8685 17.1204 22.7461 16.4395 22.2608C15.7615 21.7774 15.3595 21.2467 15.1634 20.6469C14.9772 20.0776 15.004 19.5159 15.0301 19.0674C15.0704 18.393 15.1094 17.738 14.7719 17.0391Z" fill="#141B34"/>
<path opacity="0.4" d="M1.25 12C1.25 6.06294 6.06294 1.25 12 1.25C17.9371 1.25 22.75 6.06294 22.75 12C22.75 17.9371 17.9371 22.75 12 22.75C6.06294 22.75 1.25 17.9371 1.25 12Z" fill="#141B34"/>
<path d="M16.229 14.2856C17.1656 14.5418 18.4374 14.9206 19.5221 15.6233C20.2387 16.0875 20.9836 16.7458 21.4724 17.6766C21.9825 18.6479 22.1327 19.7638 21.8792 20.9548L21.8755 20.9718C21.5299 22.5286 20.4005 23.4862 19.1869 23.8374C18.0559 24.1646 16.7349 24.0059 15.7141 23.2782C14.8637 22.672 14.2703 21.9366 13.9755 21.035C13.7106 20.2252 13.7556 19.454 13.7815 19.0091L13.7886 18.889C13.8157 18.4356 13.8243 18.1916 13.7825 17.9607C13.7596 17.8345 13.717 17.6923 13.6189 17.5189C13.1054 17.6693 12.5622 17.75 12 17.75C10.1185 17.75 8.44802 16.8454 7.40035 15.4505C7.1516 15.1192 7.21843 14.6491 7.54964 14.4003C7.88084 14.1516 8.35099 14.2184 8.59974 14.5496C9.37631 15.5836 10.6103 16.25 12 16.25C13.3898 16.25 14.6238 15.5836 15.4003 14.5496C15.5974 14.2873 15.9333 14.1908 16.229 14.2856Z" fill="#141B34"/>
<path fill-rule="evenodd" clip-rule="evenodd" d="M6.96967 8.46967C7.43047 8.00887 8.05544 7.75 8.70711 7.75H10C10.4142 7.75 10.75 8.08579 10.75 8.5C10.75 8.91421 10.4142 9.25 10 9.25H8.70711C8.45327 9.25 8.20982 9.35084 8.03033 9.53033C7.73744 9.82322 7.26256 9.82322 6.96967 9.53033C6.67678 9.23744 6.67678 8.76256 6.96967 8.46967ZM13.25 8.5C13.25 8.08579 13.5858 7.75 14 7.75H15.2929C15.9446 7.75 16.5695 8.00887 17.0303 8.46967C17.3232 8.76256 17.3232 9.23744 17.0303 9.53033C16.7374 9.82322 16.2626 9.82322 15.9697 9.53033C15.7902 9.35084 15.5467 9.25 15.2929 9.25H14C13.5858 9.25 13.25 8.91421 13.25 8.5Z" fill="#141B34"/>
</svg>
