<svg width="24" height="24" viewBox="0 0 24 24" fill="none" xmlns="http://www.w3.org/2000/svg">
<path d="M3.76113 14H5V20C3.68731 20 2.55711 19.015 2.29967 17.6466L2.03479 16.2386C1.81691 15.0805 2.65015 14 3.76113 14Z" fill="white"/>
<path d="M20.2389 14H19V20C20.3127 20 21.4429 19.015 21.7003 17.6466L21.9652 16.2386C22.1831 15.0805 21.3498 14 20.2389 14Z" fill="white"/>
<path d="M10.6612 12.9995H13.3349C13.8897 12.9995 14.1671 12.9995 14.437 12.9667C14.9031 12.91 15.3559 12.7807 15.777 12.584C16.021 12.4701 16.2518 12.325 16.7133 12.0348C17.2043 11.7261 17.4498 11.5717 17.6546 11.3858C18.0085 11.0646 18.2787 10.6705 18.444 10.2344L18.7022 15.7173C18.8411 18.6665 18.9106 20.1412 18.0241 21.0703C17.1377 21.9995 15.6614 21.9995 12.7089 21.9995H11.2873C8.33475 21.9995 6.85848 21.9995 5.97203 21.0703C5.08559 20.1412 5.15503 18.6665 5.29392 15.7173L5.55212 10.2344C5.71747 10.6705 5.98767 11.0646 6.34153 11.3858C6.54634 11.5717 6.79183 11.7261 7.28281 12.0348C7.74439 12.325 7.97518 12.4701 8.21912 12.584C8.64022 12.7807 9.09305 12.91 9.5591 12.9667C9.82908 12.9995 10.1065 12.9995 10.6612 12.9995Z" fill="#D4D7E0"/>
<path d="M5.2617 8.86971C5.01152 7.45403 4.88643 6.74619 5.13559 6.20431C5.30195 5.84248 5.57803 5.53512 5.9291 5.32087C6.45489 5 7.21577 5 8.73753 5H15.2625C16.7842 5 17.5451 5 18.0709 5.32087C18.422 5.53512 18.698 5.84248 18.8644 6.20431C19.1136 6.74619 18.9885 7.45403 18.7383 8.86971L18.6872 9.15901C18.5902 9.70796 18.5417 9.98243 18.446 10.2349C18.2806 10.671 18.0104 11.0651 17.6565 11.3863C17.4517 11.5722 17.2062 11.7266 16.7153 12.0353C16.2537 12.3255 16.0229 12.4706 15.779 12.5845C15.3579 12.7812 14.905 12.9105 14.439 12.9672C14.169 13 13.8916 13 13.3369 13H10.6631C10.1084 13 9.831 13 9.56102 12.9672C9.09497 12.9105 8.64214 12.7812 8.22104 12.5845C7.9771 12.4706 7.74631 12.3255 7.28474 12.0353C6.79376 11.7266 6.54827 11.5722 6.34346 11.3863C5.98959 11.0651 5.7194 10.671 5.55404 10.2349C5.45833 9.98243 5.40983 9.70796 5.31282 9.15901L5.2617 8.86971Z" fill="white" stroke="#141B34" stroke-width="1.5"/>
<path d="M19 14H20.2389C21.3498 14 22.1831 15.0805 21.9652 16.2386L21.7003 17.6466C21.4429 19.015 20.3127 20 19 20" stroke="#141B34" stroke-width="1.5"/>
<path d="M5 14H3.76113C2.65015 14 1.81691 15.0805 2.03479 16.2386L2.29967 17.6466C2.55711 19.015 3.68731 20 5 20" stroke="#141B34" stroke-width="1.5"/>
<path d="M18.2696 10.5001L18.7911 15.1968C19.071 18.3791 19.211 19.9702 18.2696 20.9851C17.3283 22.0001 15.7125 22.0001 12.481 22.0001H11.519C8.2875 22.0001 6.67174 22.0001 5.73038 20.9851C4.78901 19.9702 4.92899 18.3791 5.20893 15.1968L5.73038 10.5" stroke="#141B34" stroke-width="1.5" stroke-linejoin="round"/>
<path d="M15 5C15 3.34315 13.6569 2 12 2C10.3431 2 9 3.34315 9 5" stroke="#141B34" stroke-width="1.5"/>
<path d="M5.2617 8.86971C5.01152 7.45403 4.88643 6.74619 5.13559 6.20431C5.30195 5.84248 5.57803 5.53512 5.9291 5.32087C6.45489 5 7.21577 5 8.73753 5H15.2625C16.7842 5 17.5451 5 18.0709 5.32087C18.422 5.53512 18.698 5.84248 18.8644 6.20431C19.1136 6.74619 18.9885 7.45403 18.7383 8.86971L18.6872 9.15901C18.5902 9.70796 18.5417 9.98243 18.446 10.2349C18.2806 10.671 18.0104 11.0651 17.6565 11.3863C17.4517 11.5722 17.2062 11.7266 16.7153 12.0353C16.2537 12.3255 16.0229 12.4706 15.779 12.5845C15.3579 12.7812 14.905 12.9105 14.439 12.9672C14.169 13 13.8916 13 13.3369 13H10.6631C10.1084 13 9.831 13 9.56102 12.9672C9.09497 12.9105 8.64214 12.7812 8.22104 12.5845C7.9771 12.4706 7.74632 12.3255 7.28474 12.0353C6.79376 11.7266 6.54827 11.5722 6.34346 11.3863C5.98959 11.0651 5.7194 10.671 5.55404 10.2349C5.45833 9.98243 5.40983 9.70796 5.31282 9.15901L5.2617 8.86971Z" stroke="#141B34" stroke-width="1.5"/>
<path d="M12 10L12.0087 9.99768" stroke="#141B34" stroke-width="2" stroke-linecap="round" stroke-linejoin="round"/>
</svg>
