<svg width="24" height="24" viewBox="0 0 24 24" fill="none" xmlns="http://www.w3.org/2000/svg">
<path d="M20.905 3.09501C22.495 4.68503 22.3317 7.30882 20.5567 8.68934L5.99426 19.5993L4.43164 17.9644L15.3107 3.4433C16.6912 1.66834 19.315 1.50499 20.905 3.09501Z" fill="#D4D7E0"/>
<path d="M4.4003 18.0024C5.22841 18.6772 5.73478 19.4007 5.88445 19.6782L9.75781 16.7763L7.23493 14.2188L4.4003 18.0024Z" fill="white"/>
<path d="M5.45946 20L5.99426 19.5993M4 18.5405L4.43164 17.9644M5.99426 19.5993L20.5567 8.68934C22.3317 7.30882 22.495 4.68503 20.905 3.09501C19.315 1.50499 16.6912 1.66834 15.3107 3.4433L4.43164 17.9644M5.99426 19.5993L4.43164 17.9644" stroke="#141B34" stroke-width="1.5" stroke-linejoin="round"/>
<path d="M5.57835 21.8426C7.08033 19.7713 4.24567 16.9109 2.15723 18.4251C1.96763 18.5625 1.94595 18.8368 2.11159 19.0023L5.00015 21.8884C5.16597 22.0541 5.44077 22.0323 5.57835 21.8426Z" fill="white"/>
<path d="M5.57835 21.8426C7.08033 19.7713 4.24567 16.9109 2.15723 18.4251C1.96763 18.5625 1.94595 18.8368 2.11159 19.0023L5.00015 21.8884C5.16597 22.0541 5.44077 22.0323 5.57835 21.8426Z" stroke="#141B34" stroke-width="1.5" stroke-linejoin="round"/>
<path d="M10 17L7 14" stroke="#141B34" stroke-width="1.5" stroke-linejoin="round"/>
<circle r="2.5" transform="matrix(-1 0 0 1 18.5 18.5)" fill="#D4D7E0"/>
<circle r="2.5" transform="matrix(-1 0 0 1 18.5 18.5)" stroke="#141B34" stroke-width="1.5" stroke-linejoin="round"/>
</svg>
