<svg width="24" height="24" viewBox="0 0 24 24" fill="none" xmlns="http://www.w3.org/2000/svg">
<path d="M20 11.5001V2C19.1272 2.43641 18.3982 2.89176 17.6282 3.18454C17.4492 3.2526 17.3597 3.28663 16.5222 3.43464C15.6846 3.58265 15.235 3.57656 14.3358 3.5644C13.3496 3.55106 12.1605 3.49961 11.1841 3.49961C8.19952 3.49961 6.70721 3.49961 5.65895 4.25623C5.31183 4.50679 5.00717 4.81144 4.75662 5.15857C4 6.20682 4 7.69913 4 10.6837V19.5001C4 18.3956 4.89543 17.5001 6 17.5001H14C15.8638 17.5001 16.7956 17.5001 17.5307 17.1957C17.6929 17.1285 17.8496 17.0511 18 16.9643C18.7584 16.5264 19.3567 15.8488 19.6955 15.0309C20 14.2958 20 13.3639 20 11.5001Z" fill="#D4D7E0"/>
<path d="M8 7.90836V4.83333V4H13V4.83333V7.90836C13 8.52511 13 8.83349 12.7619 8.9531C12.7516 8.95825 12.7412 8.96309 12.7305 8.96762C12.4824 9.07289 12.1588 8.91423 11.5114 8.59691L11.5114 8.59691C11.0275 8.3597 10.7855 8.24109 10.5185 8.23706C10.5062 8.23687 10.4938 8.23687 10.4815 8.23706C10.2145 8.24109 9.97254 8.3597 9.4886 8.59691C8.84124 8.91423 8.51756 9.07289 8.26951 8.96762C8.25884 8.96309 8.24836 8.95824 8.23811 8.9531C8 8.83349 8 8.52511 8 7.90836Z" fill="white"/>
<path d="M6 17.4968H14C15.8638 17.4968 16.7956 17.4968 17.5307 17.1923C17.6929 17.1252 17.8496 17.0478 18 16.9609V21.9968H6.5C5.11929 21.9968 4 20.8775 4 19.4968C4 18.3923 4.89543 17.4968 6 17.4968Z" fill="white"/>
<path d="M20 22.0001H6.5C5.11929 22.0001 4 20.8808 4 19.5001M4 19.5001V10.6837C4 7.69913 4 6.20682 4.75662 5.15857C5.00717 4.81144 5.31183 4.50679 5.65895 4.25623C6.70721 3.49961 8.19952 3.49961 11.1841 3.49961C12.1605 3.49961 13.3496 3.55106 14.3358 3.5644C15.235 3.57656 15.6846 3.58265 16.5222 3.43464C17.3597 3.28663 17.4492 3.2526 17.6282 3.18454C18.3982 2.89176 19.1272 2.43641 20 2V11.5001C20 13.3639 20 14.2958 19.6955 15.0309C19.2895 16.011 18.5108 16.7897 17.5307 17.1957C16.7956 17.5001 15.8638 17.5001 14 17.5001H6C4.89543 17.5001 4 18.3956 4 19.5001Z" stroke="#141B34" stroke-width="1.5" stroke-linecap="round" stroke-linejoin="round"/>
<path d="M18 17L18 22" stroke="#141B34" stroke-width="1.5" stroke-linejoin="round"/>
<path d="M8 4L8 7.69003C8 8.43013 8 8.80019 8.23811 8.94371C8.24836 8.94989 8.25884 8.95571 8.26951 8.96115C8.51756 9.08746 8.84124 8.89707 9.4886 8.51629C9.97254 8.23164 10.2145 8.08931 10.4815 8.08447C10.4938 8.08425 10.5062 8.08425 10.5185 8.08447C10.7855 8.08931 11.0275 8.23164 11.5114 8.51629C12.1588 8.89707 12.4824 9.08747 12.7305 8.96115C12.7412 8.95571 12.7516 8.94989 12.7619 8.94372C13 8.80019 13 8.43013 13 7.69003V4" stroke="#141B34" stroke-width="1.5" stroke-linecap="round" stroke-linejoin="round"/>
</svg>
