<svg width="24" height="24" viewBox="0 0 24 24" fill="none" xmlns="http://www.w3.org/2000/svg">
<path d="M2 9V13C2 15.357 2 16.5355 2.73223 17.2678C3.2191 17.7546 3.90328 17.9178 5 17.9724L9 18H15L19 17.9724C20.0967 17.9178 20.7809 17.7546 21.2678 17.2678C22 16.5355 22 15.357 22 13V11H17.3C16.5555 11 16.1832 11 15.882 10.9021C15.2731 10.7043 14.7957 10.2269 14.5979 9.61803C14.5 9.31677 14.5 8.94451 14.5 8.2C14.5 7.08323 14.5 6.52485 14.3532 6.07295C14.0564 5.15964 13.3404 4.44358 12.4271 4.14683C11.9752 4 11.4168 4 10.3 4H7C4.64298 4 3.46447 4 2.73223 4.73223C2 5.46447 2 6.64298 2 9Z" fill="#D4D7E0"/>
<circle cx="17" cy="18" r="2" fill="white"/>
<circle cx="17" cy="18" r="2" stroke="#141B34" stroke-width="1.5"/>
<circle cx="7" cy="18" r="2" fill="white"/>
<circle cx="7" cy="18" r="2" stroke="#141B34" stroke-width="1.5"/>
<path d="M21.9997 11H17.2997C16.5552 11 16.1829 11 15.8817 10.9021C15.2728 10.7043 14.7954 10.2269 14.5976 9.61803C14.4997 9.31677 14.4997 8.94451 14.4997 8.2C14.4997 7.08323 14.4997 6.52485 14.3529 6.07295C14.3449 6.04849 14.3367 6.02417 14.3281 6H14.4997H16.3209C17.7763 6 18.5039 6 19.0961 6.35371C19.6883 6.70742 20.0333 7.34811 20.7233 8.6295L21.9997 11Z" fill="white"/>
<path d="M5 17.9724C3.90328 17.9178 3.2191 17.7546 2.73223 17.2678C2 16.5355 2 15.357 2 13V9C2 6.64298 2 5.46447 2.73223 4.73223C3.46447 4 4.64298 4 7 4H10.3C11.4168 4 11.9752 4 12.4271 4.14683C13.3404 4.44358 14.0564 5.15964 14.3532 6.07295C14.5 6.52485 14.5 7.08323 14.5 8.2C14.5 8.94451 14.5 9.31677 14.5979 9.61803C14.7957 10.2269 15.2731 10.7043 15.882 10.9021C16.1832 11 16.5555 11 17.3 11H22V13C22 15.357 22 16.5355 21.2678 17.2678C20.7809 17.7546 20.0967 17.9178 19 17.9724M9 18H15" stroke="#141B34" stroke-width="1.5" stroke-linecap="round" stroke-linejoin="round"/>
<path d="M14.5 6H16.3212C17.7766 6 18.5042 6 19.0964 6.35371C19.6886 6.70742 20.0336 7.34811 20.7236 8.6295L22 11" stroke="#141B34" stroke-width="1.5" stroke-linecap="round" stroke-linejoin="round"/>
<path d="M10 9V11" stroke="#141B34" stroke-width="1.5" stroke-linecap="round"/>
<path d="M6 9V11" stroke="#141B34" stroke-width="1.5" stroke-linecap="round"/>
</svg>
