<svg width="24" height="24" viewBox="0 0 24 24" fill="none" xmlns="http://www.w3.org/2000/svg">
<path d="M5 6V22H19V6C19 4.11438 19 3.17157 18.4142 2.58579C17.8284 2 16.8856 2 15 2H9C7.11438 2 6.17157 2 5.58579 2.58579C5 3.17157 5 4.11438 5 6Z" fill="#D4D7E0"/>
<path d="M5 22V6C5 4.11438 5 3.17157 5.58579 2.58579C6.17157 2 7.11438 2 9 2H15C16.8856 2 17.8284 2 18.4142 2.58579C19 3.17157 19 4.11438 19 6V22" stroke="#141B34" stroke-width="1.5" stroke-linecap="round"/>
<path d="M3 22H21" stroke="#141B34" stroke-width="1.5" stroke-linecap="round" stroke-linejoin="round"/>
<path d="M16 13L16 11" stroke="#141B34" stroke-width="1.5" stroke-linecap="round" stroke-linejoin="round"/>
</svg>
