<svg width="24" height="24" viewBox="0 0 24 24" fill="none" xmlns="http://www.w3.org/2000/svg">
<path d="M10.7273 22H15C15.9293 22 16.394 22 16.7804 21.9231C18.3671 21.6075 19.6075 20.3671 19.9231 18.7804C20 18.394 20 17.9293 20 17V7.81818C20 6.12494 20 5.27832 19.732 4.60214C19.3012 3.5151 18.3902 2.65765 17.2352 2.2522C16.5168 2 15.6173 2 13.8182 2C10.6698 2 9.09563 2 7.83836 2.44135C5.81714 3.15088 4.22281 4.65142 3.46894 6.55375C3 7.73706 3 9.21865 3 12.1818V14.7273C3 17.7966 3 19.3313 3.8477 20.3971C4.09058 20.7025 4.37862 20.9736 4.70307 21.2022C5.83546 22 7.46607 22 10.7273 22Z" fill="#D4D7E0"/>
<path d="M3.46716 6.55162C3.06537 7.56549 3.00784 8.79833 2.9996 10.9944C3.33585 10.16 4.90316 8.49787 8.49822 8.49787C8.79963 8.49787 9.5903 8.19462 9.54938 6.55162C9.53257 5.05584 10.0818 2.08608 12.3944 1.99979C10.1623 2.00964 8.88853 2.06995 7.83659 2.43922C5.81536 3.14875 4.22104 4.64929 3.46716 6.55162Z" fill="white"/>
<path d="M14 19.1794C14 18.1665 14 17.6601 14.2066 17.2767C14.3698 16.974 14.6198 16.7261 14.9251 16.5643C15.3116 16.3594 15.8223 16.3594 16.8438 16.3594H18.1562C19.1777 16.3594 19.6884 16.3594 20.0749 16.5643C20.3802 16.7261 20.6302 16.974 20.7934 17.2767C21 17.6601 21 18.1665 21 19.1794C21 20.1923 21 20.6987 20.7934 21.0821C20.6302 21.3848 20.3802 21.6327 20.0749 21.7945C19.6884 21.9994 19.1777 21.9994 18.1562 21.9994H16.8438C15.8223 21.9994 15.3116 21.9994 14.9251 21.7945C14.6198 21.6327 14.3698 21.3848 14.2066 21.0821C14 20.6987 14 20.1923 14 19.1794Z" fill="white"/>
<path d="M11 22H10.7273C7.46607 22 5.83546 22 4.70307 21.2022C4.37862 20.9736 4.09058 20.7025 3.8477 20.3971C3 19.3313 3 17.7966 3 14.7273V12.1818C3 9.21865 3 7.73706 3.46894 6.55375C4.22281 4.65142 5.81714 3.15088 7.83836 2.44135C9.09563 2 10.6698 2 13.8182 2C15.6173 2 16.5168 2 17.2352 2.2522C18.3902 2.65765 19.3012 3.5151 19.732 4.60214C20 5.27832 20 6.12494 20 7.81818V10" stroke="#141B34" stroke-width="1.5" stroke-linecap="round" stroke-linejoin="round"/>
<path d="M3 12C3 10.1591 4.49238 8.66667 6.33333 8.66667C6.99912 8.66667 7.78404 8.78333 8.43137 8.60988C9.00652 8.45576 9.45576 8.00652 9.60988 7.43136C9.78333 6.78404 9.66667 5.99912 9.66667 5.33333C9.66667 3.49238 11.1591 2 13 2" stroke="#141B34" stroke-width="1.5" stroke-linecap="round" stroke-linejoin="round"/>
<path d="M15.5312 16.36V14.9523C15.5312 13.8741 16.4127 13 17.5 13C17.9887 13 18.4359 13.1766 18.7801 13.469M16.8437 22H18.1563C19.1777 22 19.6884 22 20.0749 21.7951C20.3802 21.6333 20.6302 21.3854 20.7934 21.0827C21 20.6993 21 20.1929 21 19.18C21 18.1671 21 17.6607 20.7934 17.2773C20.6302 16.9746 20.3802 16.7267 20.0749 16.5649C19.6884 16.36 19.1777 16.36 18.1563 16.36H16.8437C15.8223 16.36 15.3116 16.36 14.9251 16.5649C14.6198 16.7267 14.3698 16.9746 14.2066 17.2773C14 17.6607 14 18.1671 14 19.18C14 20.1929 14 20.6993 14.2066 21.0827C14.3698 21.3854 14.6198 21.6333 14.9251 21.7951C15.3116 22 15.8223 22 16.8437 22Z" stroke="#141B34" stroke-width="1.5" stroke-linecap="round"/>
</svg>
