<svg width="24" height="24" viewBox="0 0 24 24" fill="none" xmlns="http://www.w3.org/2000/svg">
<path d="M7.07523 3.88403C10.2874 4.8348 13.7126 4.8348 16.9248 3.88403C19.517 3.11677 20.813 2.73313 21.4065 3.20921C22 3.68529 22 4.90772 22 7.35256V16.6474C22 19.0923 22 20.3147 21.4065 20.7908C20.813 21.2669 19.5169 20.8832 16.9248 20.116C13.7126 19.1652 10.2874 19.1652 7.07523 20.116C4.48305 20.8832 3.18696 21.2669 2.59348 20.7908C2 20.3147 2 19.0923 2 16.6474V7.35256C2 4.90772 2 3.68529 2.59348 3.20921C3.18696 2.73313 4.48305 3.11677 7.07523 3.88403Z" fill="#D4D7E0"/>
<path d="M7.07422 20.1177C10.2864 19.1669 13.7116 19.1669 16.9238 20.1177C19.5159 20.8849 20.812 21.2685 21.4055 20.7925C21.999 20.3164 21.999 19.094 21.999 16.6491V14.4704C15.3813 10.3352 11.0211 15.9602 7.07422 20.1177Z" fill="white"/>
<path d="M7.07523 3.88403C10.2874 4.8348 13.7126 4.8348 16.9248 3.88403C19.517 3.11677 20.813 2.73313 21.4065 3.20921C22 3.68529 22 4.90772 22 7.35256V16.6474C22 19.0923 22 20.3147 21.4065 20.7908C20.813 21.2669 19.5169 20.8832 16.9248 20.116C13.7126 19.1652 10.2874 19.1652 7.07523 20.116C4.48305 20.8832 3.18696 21.2669 2.59348 20.7908C2 20.3147 2 19.0923 2 16.6474V7.35256C2 4.90772 2 3.68529 2.59348 3.20921C3.18696 2.73313 4.48305 3.11677 7.07523 3.88403Z" stroke="#141B34" stroke-width="1.5"/>
<path d="M7 20C10.9469 15.8425 15.3824 10.329 22 14.4642" stroke="#141B34" stroke-width="1.5"/>
<path d="M9 8.5C9 9.32843 8.32843 10 7.5 10C6.67157 10 6 9.32843 6 8.5C6 7.67157 6.67157 7 7.5 7C8.32843 7 9 7.67157 9 8.5Z" fill="white" stroke="#141B34" stroke-width="1.5" stroke-linecap="round" stroke-linejoin="round"/>
</svg>
