<svg width="24" height="24" viewBox="0 0 24 24" fill="none" xmlns="http://www.w3.org/2000/svg">
<path d="M20 14C20 17.7712 20 19.6569 18.7552 20.8284C17.5104 22 15.5069 22 11.5 22L10.7273 22C7.46607 22 5.83546 22 4.70307 21.2022C4.37862 20.9736 4.09058 20.7025 3.8477 20.3971C3 19.3313 3 17.7966 3 14.7273L3 12.1818C3 9.21865 3 7.73706 3.46894 6.55375C4.22282 4.65142 5.81714 3.15088 7.83836 2.44135C9.09563 2 10.6698 2 13.8182 2C15.6173 2 16.5168 2 17.2352 2.2522C18.3902 2.65765 19.3013 3.5151 19.732 4.60214C20 5.27832 20 6.12494 20 7.81818L20 14Z" fill="#D4D7E0"/>
<path d="M14.1565 13H13.4829C13.0067 13 12.7686 13 12.6206 13.1464C12.4727 13.2929 12.4727 13.5285 12.4727 13.9999V15.4996H14.1565C14.8539 15.4996 15.4193 14.9401 15.4193 14.2498C15.4193 13.5596 14.8539 13 14.1565 13Z" fill="white"/>
<path d="M6.44734 8.73671C4.6064 8.73671 3.11401 10.2291 3.11401 12.07C2.94734 10.57 2.61401 7.07004 5.11401 4.07004C6.11401 3.07004 8.71401 1.67004 13.114 2.07004C11.2731 2.07004 9.78068 3.56243 9.78068 5.40337C9.78068 6.06916 9.89734 6.85408 9.72389 7.50141C9.56978 8.07656 9.12053 8.52581 8.54538 8.67992C7.89805 8.85337 7.11313 8.73671 6.44734 8.73671Z" fill="white"/>
<path d="M15 22H10.7273C7.46607 22 5.83546 22 4.70307 21.2022C4.37862 20.9736 4.09058 20.7025 3.8477 20.3971C3 19.3313 3 17.7966 3 14.7273V12.1818C3 9.21865 3 7.73706 3.46894 6.55375C4.22281 4.65142 5.81714 3.15088 7.83836 2.44135C9.09563 2 10.6698 2 13.8182 2C15.6173 2 16.5168 2 17.2352 2.2522C18.3902 2.65765 19.3012 3.5151 19.732 4.60214C20 5.27832 20 6.12494 20 7.81818V10" stroke="#141B34" stroke-width="1.5" stroke-linecap="round" stroke-linejoin="round"/>
<path d="M3 12C3 10.1591 4.49238 8.66667 6.33333 8.66667C6.99912 8.66667 7.78404 8.78333 8.43137 8.60988C9.00652 8.45576 9.45576 8.00652 9.60988 7.43136C9.78333 6.78404 9.66667 5.99912 9.66667 5.33333C9.66667 3.49238 11.1591 2 13 2" stroke="#141B34" stroke-width="1.5" stroke-linecap="round" stroke-linejoin="round"/>
<path d="M11.7243 18C11.7243 18.4142 12.0601 18.75 12.4743 18.75C12.8885 18.75 13.2243 18.4142 13.2243 18H11.7243ZM10.6986 13.0007C10.6986 12.5865 10.3628 12.2507 9.94861 12.2507C9.53439 12.2507 9.19861 12.5865 9.19861 13.0007H10.6986ZM7.75195 16.3844C7.75195 15.9702 7.41617 15.6344 7.00195 15.6344C6.58774 15.6344 6.25195 15.9702 6.25195 16.3844H7.75195ZM20.2338 13.9105C20.2761 14.3225 20.6444 14.6223 21.0564 14.58C21.4685 14.5378 21.7683 14.1694 21.726 13.7574L20.2338 13.9105ZM19.6016 15.1732C19.1908 15.2267 18.9012 15.603 18.9546 16.0138C19.0081 16.4245 19.3844 16.7142 19.7952 16.6607L19.6016 15.1732ZM13.4846 13.7507H14.1581V12.2507H13.4846V13.7507ZM13.2243 18V15.5004H11.7243V18H13.2243ZM13.2243 15.5004V14.0006H11.7243V15.5004H13.2243ZM14.1581 14.7504H12.4743V16.2504H14.1581V14.7504ZM14.671 14.2505C14.671 14.5193 14.4487 14.7504 14.1581 14.7504V16.2504C15.2624 16.2504 16.171 15.3623 16.171 14.2505H14.671ZM14.1581 13.7507C14.4487 13.7507 14.671 13.9818 14.671 14.2505H16.171C16.171 13.1388 15.2624 12.2507 14.1581 12.2507V13.7507ZM13.4846 12.2507C13.2675 12.2507 13.0299 12.2492 12.8314 12.2756C12.6121 12.3048 12.3315 12.3797 12.0947 12.6141L13.1498 13.6802C13.111 13.7186 13.0685 13.7436 13.0353 13.7571C13.008 13.7682 12.9996 13.7664 13.0292 13.7625C13.0593 13.7585 13.1078 13.7548 13.1885 13.7528C13.2688 13.7508 13.3628 13.7507 13.4846 13.7507V12.2507ZM13.2243 14.0006C13.2243 13.8799 13.2244 13.7872 13.2264 13.7081C13.2284 13.6286 13.2321 13.5815 13.236 13.553C13.2398 13.525 13.2412 13.5351 13.2293 13.5639C13.2148 13.5987 13.1887 13.6417 13.1498 13.6802L12.0947 12.6141C11.8568 12.8496 11.7796 13.1303 11.7496 13.3511C11.7227 13.5494 11.7243 13.7863 11.7243 14.0006H13.2243ZM9.19861 13.0007V16.3844H10.6986V13.0007H9.19861ZM9.19861 16.3844C9.19861 16.7801 9.07453 16.9833 8.9683 17.0854C8.85478 17.1946 8.69147 17.2565 8.50304 17.2495C8.13391 17.2358 7.75195 16.9681 7.75195 16.3844H6.25195C6.25195 17.8443 7.34333 18.7076 8.44752 18.7484C8.99575 18.7688 9.5691 18.5888 10.0081 18.1666C10.4544 17.7374 10.6986 17.1196 10.6986 16.3844H9.19861ZM18.2757 16.3336V14.6672H16.7757V16.3336H18.2757ZM19.2638 17.25C18.8338 17.25 18.5837 17.2485 18.4061 17.2256C18.247 17.2051 18.263 17.1797 18.2993 17.2146L17.2612 18.2973C17.5521 18.5762 17.9001 18.6728 18.2144 18.7133C18.5101 18.7515 18.8745 18.75 19.2638 18.75V17.25ZM16.7757 16.3336C16.7757 16.7043 16.774 17.0609 16.8148 17.352C16.8591 17.668 16.9659 18.0142 17.2612 18.2973L18.2993 17.2146C18.3401 17.2537 18.3196 17.2815 18.3003 17.1437C18.2774 16.9809 18.2757 16.7484 18.2757 16.3336H16.7757ZM20.252 16.3336C20.252 16.7484 20.2502 16.9809 20.2274 17.1437C20.2081 17.2815 20.1876 17.2537 20.2284 17.2146L21.2665 18.2973C21.5618 18.0142 21.6686 17.668 21.7129 17.352C21.7537 17.0609 21.752 16.7043 21.752 16.3336H20.252ZM19.2638 18.75C19.6532 18.75 20.0175 18.7515 20.3133 18.7133C20.6275 18.6728 20.9756 18.5762 21.2665 18.2973L20.2284 17.2146C20.2647 17.1797 20.2806 17.2051 20.1215 17.2256C19.944 17.2485 19.6939 17.25 19.2638 17.25V18.75ZM19.2638 12.2507C18.8745 12.2507 18.5101 12.2493 18.2144 12.2874C17.9001 12.3279 17.5521 12.4245 17.2612 12.7034L18.2993 13.7862C18.263 13.821 18.247 13.7956 18.4061 13.7751C18.5837 13.7522 18.8338 13.7507 19.2638 13.7507V12.2507ZM18.2757 14.6672C18.2757 14.2523 18.2774 14.0198 18.3003 13.857C18.3196 13.7192 18.3401 13.7471 18.2993 13.7862L17.2612 12.7034C16.9659 12.9865 16.8591 13.3328 16.8148 13.6487C16.774 13.9398 16.7757 14.2965 16.7757 14.6672H18.2757ZM21.752 16.3336C21.752 15.8362 21.4451 15.5194 21.1569 15.3624C20.9019 15.2236 20.6193 15.1775 20.4209 15.1588C20.2073 15.1385 20.0039 15.1429 19.8607 15.1508C19.7874 15.1548 19.7257 15.16 19.6812 15.1644C19.6589 15.1666 19.6406 15.1686 19.6272 15.1701C19.6205 15.1709 19.6149 15.1716 19.6106 15.1721C19.6085 15.1724 19.6066 15.1726 19.6051 15.1728C19.6044 15.1729 19.6037 15.173 19.6031 15.173C19.6028 15.1731 19.6025 15.1731 19.6023 15.1732C19.6021 15.1732 19.602 15.1732 19.6019 15.1732C19.6017 15.1732 19.6016 15.1732 19.6984 15.917C19.7952 16.6607 19.795 16.6607 19.7949 16.6607C19.7948 16.6607 19.7947 16.6608 19.7946 16.6608C19.7944 16.6608 19.7943 16.6608 19.7941 16.6608C19.7938 16.6609 19.7936 16.6609 19.7935 16.6609C19.7932 16.6609 19.7933 16.6609 19.7936 16.6609C19.7942 16.6608 19.796 16.6606 19.7988 16.6603C19.8045 16.6596 19.8142 16.6586 19.8276 16.6572C19.8543 16.6546 19.8945 16.6512 19.9434 16.6485C20.0446 16.6429 20.1671 16.6414 20.2794 16.6521C20.4069 16.6641 20.4502 16.6856 20.4396 16.6798C20.4273 16.6731 20.3772 16.6434 20.3294 16.5743C20.2759 16.4972 20.252 16.4089 20.252 16.3336H21.752ZM19.2638 13.7507C19.4749 13.7507 19.6423 13.7474 19.8096 13.755C19.9739 13.7624 20.0849 13.7791 20.1592 13.8016C20.2278 13.8223 20.2302 13.8373 20.2175 13.8228C20.201 13.804 20.2237 13.8116 20.2338 13.9105L21.726 13.7574C21.6905 13.4112 21.5719 13.0922 21.3452 12.8337C21.1223 12.5795 20.8455 12.4419 20.5926 12.3655C20.1366 12.2279 19.5841 12.2507 19.2638 12.2507V13.7507Z" fill="#141B34"/>
</svg>
