<svg width="24" height="24" viewBox="0 0 24 24" fill="none" xmlns="http://www.w3.org/2000/svg">
<path d="M5.25345 4.20351L4.02558 4.92037C3.03739 5.49729 2.54329 5.78576 2.27164 6.26564C2 6.74553 2 7.32993 2 8.49873V16.7157C2 18.2514 2 19.0193 2.34226 19.4467C2.57001 19.731 2.88916 19.9222 3.242 19.9856C3.77226 20.0808 4.4215 19.7018 5.71986 18.9438C6.60154 18.429 7.45011 17.8944 8.50487 18.0394C9.38869 18.1608 10.21 18.7185 11 19.1138L15 21H20.5C21.3284 21 22 20.3284 22 19.5V10.2175C22 8.27787 22 7.30807 21.4142 6.7055C20.8284 6.10294 19.8856 6.10294 18 6.10294H15.9214C15.004 6.10294 14.9964 6.10116 14.1715 5.68834L10.8399 4.02114C9.44884 3.32504 8.75332 2.97699 8.01238 3.00118C7.27143 3.02537 6.59877 3.41808 5.25345 4.20351Z" fill="#D4D7E0"/>
<path d="M10.8392 4.02114L14.1708 5.68834C14.5759 5.89106 14.7839 5.99467 14.9993 6.04761V21L10.9993 19.1138C10.2093 18.7185 9.38803 18.1608 8.50421 18.0394H8.01172V5.90484C8.01172 4.28609 9.27355 3.23801 10.7213 3.96214L10.8392 4.02114Z" fill="white"/>
<path d="M5.25345 4.19584L4.02558 4.90813C3.03739 5.48137 2.54329 5.768 2.27164 6.24483C2 6.72165 2 7.30233 2 8.46368V16.6283C2 18.1542 2 18.9172 2.34226 19.3418C2.57001 19.6244 2.88916 19.8143 3.242 19.8773C3.77226 19.9719 4.42148 19.5953 5.71987 18.8421C6.60156 18.3306 7.45011 17.7994 8.50487 17.9435C8.98466 18.009 9.44231 18.2366 10.3576 18.6917L14.1715 20.588C14.9964 20.9982 15.004 21 15.9214 21H18C19.8856 21 20.8284 21 21.4142 20.4013C22 19.8026 22 18.8389 22 16.9117V10.1715C22 8.24423 22 7.2806 21.4142 6.68188C20.8284 6.08316 19.8856 6.08316 18 6.08316H15.9214C15.004 6.08316 14.9964 6.08139 14.1715 5.6712L10.8399 4.01463C9.44884 3.32297 8.75332 2.97714 8.01238 3.00117C7.27143 3.02521 6.59877 3.41542 5.25345 4.19584Z" stroke="#141B34" stroke-width="1.5" stroke-linecap="round" stroke-linejoin="round"/>
<path d="M8 3L8 17.5" stroke="#141B34" stroke-width="1.5" stroke-linecap="round" stroke-linejoin="round"/>
<path d="M15 6.5L15 20.5" stroke="#141B34" stroke-width="1.5" stroke-linecap="round" stroke-linejoin="round"/>
</svg>
