<svg width="24" height="24" viewBox="0 0 24 24" fill="none" xmlns="http://www.w3.org/2000/svg">
<path d="M14.1706 21.3905C18.3536 21.1125 21.6856 17.7332 21.9598 13.4909C22.0134 12.6607 22.0134 11.8009 21.9598 10.9707C21.6856 6.72838 18.3536 3.34913 14.1706 3.07107C12.7435 2.97621 11.2536 2.97641 9.8294 3.07107C5.64639 3.34913 2.31441 6.72838 2.04024 10.9707C1.98659 11.8009 1.98659 12.6607 2.04024 13.4909C2.1401 15.036 2.82343 16.4666 3.62791 17.6746C4.09501 18.5203 3.78674 19.5758 3.30021 20.4978C2.94941 21.1626 2.77401 21.495 2.91484 21.7351C3.05568 21.9752 3.37026 21.9829 3.99943 21.9982C5.24367 22.0285 6.08268 21.6757 6.74868 21.1846C7.1264 20.9061 7.31527 20.7668 7.44544 20.7508C7.5756 20.7348 7.83177 20.8403 8.34401 21.0513C8.8044 21.2409 9.33896 21.3579 9.8294 21.3905C11.2536 21.4852 12.7435 21.4854 14.1706 21.3905Z" fill="#D4D7E0"/>
<path d="M19.375 5.375L17.625 5.375C16.8096 5.375 16.4019 5.375 16.0803 5.51773C15.6515 5.70803 15.3108 6.07304 15.1332 6.53247C15 6.87704 15 7.31386 15 8.1875C15 9.06114 15 9.49796 15.1332 9.84253C15.3108 10.302 15.6515 10.667 16.0803 10.8573C16.4019 11 16.8096 11 17.625 11H19.375C20.1904 11 20.5981 11 20.9197 10.8573C21.3485 10.667 21.6892 10.302 21.8668 9.84253C22 9.49796 22 9.06114 22 8.1875C22 7.31386 22 6.87704 21.8668 6.53247C21.6892 6.07304 21.3485 5.70803 20.9197 5.51773C20.5981 5.375 20.1904 5.375 19.375 5.375Z" fill="white"/>
<path d="M22 13.4909C21.7253 17.7332 18.3866 21.1125 14.1951 21.3905C12.7652 21.4854 11.2722 21.4852 9.84518 21.3905C9.35376 21.3579 8.81812 21.2409 8.3568 21.0513C7.84352 20.8403 7.58684 20.7348 7.45641 20.7508C7.32598 20.7668 7.13674 20.9061 6.75825 21.1846C6.09092 21.6757 5.25021 22.0285 4.00346 21.9982C3.37302 21.9829 3.0578 21.9752 2.91669 21.7351C2.77557 21.495 2.95132 21.1626 3.30283 20.4978C3.79035 19.5758 4.09923 18.5203 3.63119 17.6746C2.82509 16.4666 2.14038 15.036 2.04032 13.4909C1.98656 12.6607 1.98656 11.8009 2.04032 10.9707C2.31504 6.72838 5.65374 3.34913 9.84518 3.07107C10.7223 3.01289 11.6242 2.99039 12.5212 3.00372" stroke="#141B34" stroke-width="1.5" stroke-linecap="round" stroke-linejoin="round"/>
<path d="M16.5312 5.35997V3.95232C16.5312 2.87408 17.4127 2 18.5 2C18.9887 2 19.4359 2.1766 19.7801 2.46895M17.8437 11H19.1563C20.1777 11 20.6884 11 21.0749 10.7951C21.3802 10.6333 21.6302 10.3854 21.7934 10.0827C22 9.6993 22 9.19286 22 8.17998C22 7.16711 22 6.66067 21.7934 6.2773C21.6302 5.9746 21.3802 5.72668 21.0749 5.56488C20.6884 5.35997 20.1777 5.35997 19.1563 5.35997H17.8437C16.8223 5.35997 16.3116 5.35997 15.9251 5.56488C15.6198 5.72668 15.3698 5.9746 15.2066 6.2773C15 6.66067 15 7.16711 15 8.17998C15 9.19286 15 9.6993 15.2066 10.0827C15.3698 10.3854 15.6198 10.6333 15.9251 10.7951C16.3116 11 16.8223 11 17.8437 11Z" stroke="#141B34" stroke-width="1.5" stroke-linecap="round"/>
<path d="M11.9955 12.5H12.0045M8 12.5H8.00897" stroke="#141B34" stroke-width="2" stroke-linecap="round" stroke-linejoin="round"/>
</svg>
