<svg width="24" height="24" viewBox="0 0 24 24" fill="none" xmlns="http://www.w3.org/2000/svg">
<path d="M2.12373 4.86493C3.09549 5.5956 4.45114 5.72135 5.5724 5.07735C6.69365 4.43335 7.26201 3.20254 7.11181 2C8.0838 2.27323 8.9538 2.90904 9.49872 3.84796C9.72664 4.24069 9.87996 4.6559 9.96305 5.07735L10 5.29534C8.08242 6.01726 6.68245 7.7708 6.49955 9.86691C4.77108 10.3542 3.47826 9.46371 2.53901 7.84531C1.99409 6.90638 1.87559 5.83894 2.12373 4.86493Z" fill="white"/>
<path d="M17.5 10.5C17.5 7.46243 15.0376 5 12 5C9.12324 5 6.76233 7.20862 6.52042 10.0227C3.98398 10.2641 2 12.4003 2 15C2 17.7614 4.23858 20 7 20H17.5C19.9853 20 22 17.9853 22 15.5C22 13.0147 19.9853 11 17.5 11L17.4776 11.0001C17.4924 10.8354 17.5 10.6686 17.5 10.5Z" fill="#D4D7E0"/>
<path d="M9.0784 15L7.30434 17.6838C7.06684 18.0431 6.94808 18.2227 7.02165 18.3614C7.09522 18.5 7.30931 18.5 7.73747 18.5H9.26253C9.69069 18.5 9.90478 18.5 9.97835 18.6386C10.0519 18.7773 9.93316 18.9569 9.69566 19.3162L7.9216 22" stroke="#141B34" stroke-width="1.5" stroke-linecap="round" stroke-linejoin="round"/>
<path d="M16 20L15 22" stroke="#141B34" stroke-width="1.5" stroke-linecap="round" stroke-linejoin="round"/>
<path d="M13 20L12 22" stroke="#141B34" stroke-width="1.5" stroke-linecap="round" stroke-linejoin="round"/>
<path d="M17.4776 10.9008C17.485 10.9007 17.4925 10.9007 17.5 10.9007C19.9853 10.9007 22 12.8821 22 15.3263C22 17.2532 20.7478 18.8925 19 19.5M17.4776 10.9008C17.4924 10.7388 17.5 10.5748 17.5 10.409C17.5 7.42169 15.0376 5 12 5C9.12324 5 6.76233 7.17208 6.52042 9.9396M17.4776 10.9008C17.3753 12.0165 16.9286 13.0344 16.2428 13.8511M6.52042 9.9396C3.98398 10.177 2 12.2779 2 14.8345C2 16.4433 2.78555 17.8716 4 18.7687M6.52042 9.9396C6.67826 9.92483 6.83823 9.91727 7 9.91727C8.12582 9.91727 9.16474 10.2832 10.0005 10.9007" stroke="#141B34" stroke-width="1.5" stroke-linecap="round" stroke-linejoin="round"/>
<path d="M10 5.14839C9.91652 4.71721 9.76249 4.29241 9.53351 3.89062C8.98606 2.93002 8.11203 2.27953 7.13552 2C7.28642 3.2303 6.71543 4.48952 5.58897 5.14839C4.46251 5.80725 3.10057 5.6786 2.1243 4.93106C1.87501 5.92756 1.99406 7.01964 2.54151 7.98024C3.20804 9.1498 4.35869 9.85965 5.58897 10" stroke="#141B34" stroke-width="1.5" stroke-linejoin="round"/>
</svg>
