<svg width="24" height="24" viewBox="0 0 24 24" fill="none" xmlns="http://www.w3.org/2000/svg">
<path d="M8 19C8.45849 20.7252 10.0755 22 12 22C13.9245 22 15.5415 20.7252 16 19H8Z" fill="white"/>
<path d="M2.52992 14.7696C2.31727 16.1636 3.268 17.1312 4.43205 17.6134C8.54879 19.3188 14.1527 19.4511 18.5 18.0101L5.63352 5.5C4.89977 6.6577 4.47513 8.02942 4.47513 9.5C4.47503 10.5718 4.41272 11.5793 3.78561 12.5029C3.30684 13.1995 2.66061 13.9129 2.52992 14.7696Z" fill="#D4D7E0"/>
<path d="M11.9993 2C16.1552 2 19.5242 5.35786 19.5242 9.5C19.5243 10.5718 19.5866 11.5793 20.2137 12.5029C20.6925 13.1995 21.3387 13.9129 21.4694 14.7696C21.682 16.1636 20.7313 17.1312 19.5672 17.6134C19.2212 17.7568 18.8647 17.889 18.4993 18.0101L5.63281 5.5C6.96579 3.39683 9.31888 2 11.9993 2Z" fill="white"/>
<path d="M18 18.1673C13.7297 19.4388 8.39263 19.2542 4.43205 17.6135C3.268 17.1313 2.31727 16.1637 2.52992 14.7696C2.66061 13.9129 3.30684 13.1995 3.78561 12.5029C4.41272 11.5793 4.47503 10.5719 4.47513 9.50002C4.47513 8.12107 4.84851 6.61016 5.5 5.5" stroke="#141B34" stroke-width="1.5" stroke-linecap="round" stroke-linejoin="round"/>
<path d="M7.5 3.48831C8.75404 2.55352 10.3103 2 11.9962 2C16.1487 2 19.5149 5.35786 19.5149 9.5C19.5149 10.5718 19.5772 11.5793 20.2038 12.5029C20.6822 13.1995 21.3279 13.9129 21.4584 14.7696C21.5788 15.5596 21.4422 15.9946 20.9887 16.5" stroke="#141B34" stroke-width="1.5" stroke-linecap="round" stroke-linejoin="round"/>
<path d="M22 22L2 2" stroke="#141B34" stroke-width="1.5" stroke-linecap="round"/>
<path d="M8 19C8.45849 20.7252 10.0755 22 12 22C13.9245 22 15.5415 20.7252 16 19" stroke="#141B34" stroke-width="1.5" stroke-linecap="round" stroke-linejoin="round"/>
</svg>
