<svg width="24" height="24" viewBox="0 0 24 24" fill="none" xmlns="http://www.w3.org/2000/svg">
<path d="M12 21C16.4183 21 20 19.2091 20 17C20 16.0234 19.1597 15.468 18.9475 14.5886C18.8278 14.0928 19 13.5112 19 13C19 11.8639 18.7293 10.7909 18.2489 9.84218C20.1255 8.21287 22 5.60644 22 3C17.8474 3 15.7434 5.3492 15.0997 6.72194C13.1658 5.76534 10.8342 5.76534 8.90035 6.72194C8.25655 5.3492 6.15258 3 2 3C2 5.60644 3.87445 8.21287 5.75106 9.84218C5.27067 10.7909 5 11.8639 5 13C5 13.5112 5.17216 14.0928 5.05251 14.5886C4.8403 15.468 4 16.0234 4 17C4 19.2091 7.58172 21 12 21Z" fill="#D4D7E0"/>
<path d="M12 21C16.4183 21 20 19.2091 20 17C20 16.0234 19.1597 15.468 18.9475 14.5886C18.8278 14.0928 19 13.5112 19 13C19 11.8639 18.7293 10.7909 18.2489 9.84218C20.1255 8.21287 22 5.60644 22 3C17.8474 3 15.7434 5.3492 15.0997 6.72194C13.1658 5.76534 10.8342 5.76534 8.90035 6.72194C8.25655 5.3492 6.15258 3 2 3C2 5.60644 3.87445 8.21287 5.75106 9.84218C5.27067 10.7909 5 11.8639 5 13C5 13.5112 5.17216 14.0928 5.05251 14.5886C4.8403 15.468 4 16.0234 4 17C4 19.2091 7.58172 21 12 21Z" stroke="#141B34" stroke-width="1.5" stroke-linejoin="round"/>
<path d="M11 16C11.7925 16.6596 12.206 16.6737 13 16" stroke="#141B34" stroke-width="1.5" stroke-linecap="round" stroke-linejoin="round"/>
<path d="M9 12.5L8.99102 12.5" stroke="#141B34" stroke-width="2" stroke-linecap="round" stroke-linejoin="round"/>
<path d="M15.0078 12.5L14.9988 12.5" stroke="#141B34" stroke-width="2" stroke-linecap="round" stroke-linejoin="round"/>
<path d="M20 17C20 16.0234 19.1597 15.468 18.9475 14.5886C18.9049 14.4119 18.8993 14.2244 18.9097 14.033C17.7883 14.4615 17 15.4761 17 16.6594C17 17.6298 17.5301 18.4867 18.3393 19L18.6629 19.2147C19.5077 18.5806 20 17.8191 20 17Z" fill="white"/>
<path d="M5.05251 14.5886C4.8403 15.468 4 16.0234 4 17C4 17.8077 4.47875 18.5594 5.3021 19.1882L5.66066 19C6.46989 18.4867 7 17.6298 7 16.6594C7 15.4761 6.21171 14.4615 5.09025 14.033C5.10073 14.2244 5.09514 14.4119 5.05251 14.5886Z" fill="white"/>
<path d="M5.05251 14.5886L5.78158 14.7645L5.78158 14.7645L5.05251 14.5886ZM18.9475 14.5886L19.6766 14.4127L19.6766 14.4127L18.9475 14.5886ZM18.3393 19L18.7541 18.3751L18.7476 18.3708L18.7411 18.3667L18.3393 19ZM5.66066 19L6.00921 19.6641L6.03643 19.6498L6.06239 19.6333L5.66066 19ZM18.6629 19.2147L18.2481 19.8396L18.6895 20.1325L19.1131 19.8145L18.6629 19.2147ZM5.3021 19.1882L4.8469 19.7843L5.22708 20.0746L5.65065 19.8523L5.3021 19.1882ZM5.09025 14.033L5.35797 13.3324L5.09025 14.033ZM18.2184 14.7645C18.3619 15.359 18.7237 15.852 18.921 16.1613C19.1464 16.5144 19.25 16.7409 19.25 17H20.75C20.75 16.2825 20.4335 15.743 20.1856 15.3545C19.9097 14.9221 19.7453 14.6977 19.6766 14.4127L18.2184 14.7645ZM4.75 17C4.75 16.7409 4.85362 16.5144 5.07895 16.1613C5.27627 15.852 5.63815 15.359 5.78158 14.7645L4.32344 14.4127C4.25466 14.6977 4.09029 14.9221 3.8144 15.3545C3.56653 15.743 3.25 16.2825 3.25 17H4.75ZM18.7411 18.3667C18.1228 17.9745 17.75 17.3437 17.75 16.6594H16.25C16.25 17.9159 16.9375 18.9989 17.9376 19.6333L18.7411 18.3667ZM6.25 16.6594C6.25 17.3437 5.87724 17.9745 5.25893 18.3667L6.06239 19.6333C7.06254 18.9989 7.75 17.9159 7.75 16.6594H6.25ZM17.75 16.6594C17.75 15.8282 18.306 15.0666 19.1775 14.7336L18.642 13.3324C17.2706 13.8564 16.25 15.1239 16.25 16.6594H17.75ZM19.1775 14.7336C19.2004 14.7248 19.2236 14.7163 19.2469 14.7082L18.7531 13.2918C18.7158 13.3048 18.6788 13.3183 18.642 13.3324L19.1775 14.7336ZM18.1609 13.992C18.1484 14.2194 18.1517 14.4883 18.2184 14.7645L19.6766 14.4127C19.658 14.3356 19.6501 14.2293 19.6586 14.074L18.1609 13.992ZM19.25 17C19.25 17.4938 18.9539 18.0585 18.2126 18.6149L19.1131 19.8145C20.0614 19.1027 20.75 18.1443 20.75 17H19.25ZM17.9246 19.6249L18.2481 19.8396L19.0776 18.5898L18.7541 18.3751L17.9246 19.6249ZM5.7573 18.5921C5.03765 18.0426 4.75 17.487 4.75 17H3.25C3.25 18.1283 3.91985 19.0763 4.8469 19.7843L5.7573 18.5921ZM5.31211 18.3359L4.95355 18.5241L5.65065 19.8523L6.00921 19.6641L5.31211 18.3359ZM4.75309 14.7082C4.77642 14.7163 4.79957 14.7248 4.82253 14.7336L5.35797 13.3324C5.32123 13.3183 5.2842 13.3048 5.24691 13.2918L4.75309 14.7082ZM4.82253 14.7336C5.69404 15.0666 6.25 15.8282 6.25 16.6594H7.75C7.75 15.1239 6.72937 13.8564 5.35797 13.3324L4.82253 14.7336ZM5.78158 14.7645C5.84825 14.4883 5.85158 14.2194 5.83913 13.992L4.34137 14.074C4.34987 14.2293 4.34204 14.3356 4.32344 14.4127L5.78158 14.7645Z" fill="#141B34"/>
</svg>
