<svg width="24" height="24" viewBox="0 0 24 24" fill="none" xmlns="http://www.w3.org/2000/svg">
<path d="M20 14C20 17.7712 20 19.6569 18.7552 20.8284C17.5104 22 15.5069 22 11.5 22L10.7273 22C7.46607 22 5.83546 22 4.70307 21.2022C4.37862 20.9736 4.09058 20.7025 3.8477 20.3971C3 19.3313 3 17.7966 3 14.7273L3 12.1818C3 9.21865 3 7.73706 3.46894 6.55375C4.22282 4.65142 5.81714 3.15088 7.83836 2.44135C9.09563 2 10.6698 2 13.8182 2C15.6173 2 16.5168 2 17.2352 2.2522C18.3902 2.65765 19.3013 3.5151 19.732 4.60214C20 5.27832 20 6.12494 20 7.81818L20 14Z" fill="#D4D7E0"/>
<path d="M3.41449 6.54557C3.00674 7.55706 2.94197 8.78954 2.92082 10.9856C3.26197 10.1531 4.83902 8.50023 8.43402 8.52136C8.73543 8.52313 9.52786 8.22454 9.4966 6.58132C9.48859 5.08547 10.0553 2.11899 12.3683 2.0463C10.1362 2.04302 8.8621 2.09584 7.80801 2.45893C5.78265 3.15657 4.17953 4.64771 3.41449 6.54557Z" fill="white"/>
<path d="M6.25195 18C6.25195 18.4142 6.58774 18.75 7.00195 18.75C7.41617 18.75 7.75195 18.4142 7.75195 18H6.25195ZM11.5803 18C11.5803 18.4142 11.9161 18.75 12.3303 18.75C12.7445 18.75 13.0803 18.4142 13.0803 18H11.5803ZM17.6587 12.25C17.2445 12.25 16.9087 12.5858 16.9087 13C16.9087 13.4142 17.2445 13.75 17.6587 13.75V12.25ZM21.002 13.75C21.4162 13.75 21.752 13.4142 21.752 13C21.752 12.5858 21.4162 12.25 21.002 12.25V13.75ZM18.5803 18C18.5803 18.4142 18.9161 18.75 19.3303 18.75C19.7445 18.75 20.0803 18.4142 20.0803 18H18.5803ZM8.02472 13.75H8.70657V12.25H8.02472V13.75ZM7.75195 18V15.5H6.25195V18H7.75195ZM7.75195 15.5V14H6.25195V15.5H7.75195ZM8.70657 14.75H7.00195V16.25H8.70657V14.75ZM9.23502 14.25C9.23502 14.5103 9.01443 14.75 8.70657 14.75V16.25C9.81085 16.25 10.735 15.3704 10.735 14.25H9.23502ZM8.70657 13.75C9.01443 13.75 9.23502 13.9897 9.23502 14.25H10.735C10.735 13.1296 9.81085 12.25 8.70657 12.25V13.75ZM8.02472 12.25C7.80439 12.25 7.56536 12.2485 7.36584 12.2747C7.14645 12.3035 6.86548 12.3774 6.62741 12.6102L7.67606 13.6827C7.63732 13.7206 7.59532 13.7448 7.56342 13.7576C7.53742 13.7681 7.53038 13.766 7.56134 13.7619C7.59269 13.7578 7.64251 13.7541 7.72448 13.7521C7.80607 13.75 7.90146 13.75 8.02472 13.75V12.25ZM7.75195 14C7.75195 13.8793 7.752 13.7867 7.75404 13.7077C7.75609 13.6283 7.75982 13.5816 7.76368 13.5535C7.76747 13.526 7.76881 13.5368 7.75644 13.5662C7.74151 13.6017 7.71499 13.6447 7.67606 13.6827L6.62741 12.6102C6.38698 12.8453 6.30826 13.1267 6.27767 13.3492C6.25029 13.5483 6.25195 13.786 6.25195 14H7.75195ZM13.3531 13.75H14.0349V12.25H13.3531V13.75ZM13.0803 18V15.5H11.5803V18H13.0803ZM13.0803 15.5V14H11.5803V15.5H13.0803ZM14.0349 14.75H12.3303V16.25H14.0349V14.75ZM14.5634 14.25C14.5634 14.5103 14.3428 14.75 14.0349 14.75V16.25C15.1392 16.25 16.0634 15.3704 16.0634 14.25H14.5634ZM14.0349 13.75C14.3428 13.75 14.5634 13.9897 14.5634 14.25H16.0634C16.0634 13.1296 15.1392 12.25 14.0349 12.25V13.75ZM13.3531 12.25C13.1328 12.25 12.8937 12.2485 12.6942 12.2747C12.4748 12.3035 12.1938 12.3774 11.9558 12.6102L13.0044 13.6827C12.9657 13.7206 12.9237 13.7448 12.8918 13.7576C12.8658 13.7681 12.8587 13.766 12.8897 13.7619C12.9211 13.7578 12.9709 13.7541 13.0528 13.7521C13.1344 13.75 13.2298 13.75 13.3531 13.75V12.25ZM13.0803 14C13.0803 13.8793 13.0804 13.7867 13.0824 13.7077C13.0845 13.6283 13.0882 13.5816 13.092 13.5535C13.0958 13.526 13.0972 13.5368 13.0848 13.5662C13.0699 13.6017 13.0433 13.6447 13.0044 13.6827L11.9558 12.6102C11.7153 12.8453 11.6366 13.1267 11.606 13.3492C11.5786 13.5483 11.5803 13.786 11.5803 14H13.0803ZM17.6587 13.75H19.3303V12.25H17.6587V13.75ZM19.3303 13.75H21.002V12.25H19.3303V13.75ZM20.0803 18V13H18.5803V18H20.0803Z" fill="#141B34"/>
<path d="M15 22H10.7273C7.46607 22 5.83546 22 4.70307 21.2022C4.37862 20.9736 4.09058 20.7025 3.8477 20.3971C3 19.3313 3 17.7966 3 14.7273V12.1818C3 9.21865 3 7.73706 3.46894 6.55375C4.22281 4.65142 5.81714 3.15088 7.83836 2.44135C9.09563 2 10.6698 2 13.8182 2C15.6173 2 16.5168 2 17.2352 2.2522C18.3902 2.65765 19.3012 3.5151 19.732 4.60214C20 5.27832 20 6.12494 20 7.81818V10" stroke="#141B34" stroke-width="1.5" stroke-linecap="round" stroke-linejoin="round"/>
<path d="M3 12C3 10.1591 4.49238 8.66667 6.33333 8.66667C6.99912 8.66667 7.78404 8.78333 8.43137 8.60988C9.00652 8.45576 9.45576 8.00652 9.60988 7.43136C9.78333 6.78404 9.66667 5.99912 9.66667 5.33333C9.66667 3.49238 11.1591 2 13 2" stroke="#141B34" stroke-width="1.5" stroke-linecap="round" stroke-linejoin="round"/>
</svg>
