<svg width="24" height="24" viewBox="0 0 24 24" fill="none" xmlns="http://www.w3.org/2000/svg">
<path d="M21 11.8869L18 2.78502C13.4239 -0.299917 8.56286 6.85641 3 4.62523L5.67181 13.9095C10 15.9322 14 7.84169 21 11.8869Z" fill="#D4D7E0"/>
<path d="M10.9999 12.862L8 4.57191C9.72527 4.00097 11.3867 3.0641 12.9999 2.49219L15.9999 10.8131C14.1436 11.0856 12.5165 12.0326 10.9999 12.862Z" fill="white"/>
<path d="M5.67181 13.9095C10 15.9322 14 7.84169 21 11.8869L18 2.78502C13.4239 -0.299918 8.56286 6.85641 3 4.62523L8.00007 22" stroke="#141B34" stroke-width="1.5" stroke-linecap="round" stroke-linejoin="round"/>
<path d="M19 6.99683C13.5 2.99686 9 11.9968 4.5 8.99674" stroke="#141B34" stroke-width="1.5" stroke-linecap="round" stroke-linejoin="round"/>
<path d="M8 4.90476L10.8235 13M13.1765 3L16 10.619" stroke="#141B34" stroke-width="1.5" stroke-linecap="round" stroke-linejoin="round"/>
</svg>
