<svg width="24" height="24" viewBox="0 0 24 24" fill="none" xmlns="http://www.w3.org/2000/svg">
<path d="M22 5H13.6138C12.3798 5 11.965 5.1398 11.659 6.36394L9.33913 15.6416C8.78948 17.8398 8.51466 18.9389 7.78481 18.9976C7.05496 19.0564 6.55032 18.02 5.54104 15.9472L4.97014 14.7748C4.53541 13.882 4.31804 13.4356 3.87855 13.3147C3.21709 13.1327 2.5084 13.6703 2 14" stroke="#141B34" stroke-width="1.5" stroke-linecap="round" stroke-linejoin="round"/>
<path d="M14 16.25C13.5858 16.25 13.25 16.5858 13.25 17C13.25 17.4142 13.5858 17.75 14 17.75V16.25ZM21 11.75C21.4142 11.75 21.75 11.4142 21.75 11C21.75 10.5858 21.4142 10.25 21 10.25V11.75ZM16.8599 12.5077L17.5492 12.2121H17.5492L16.8599 12.5077ZM18.1401 15.4923L18.8293 15.1966V15.1966L18.1401 15.4923ZM18.7579 16.5967L19.2573 16.0372L19.2573 16.0372L18.7579 16.5967ZM20.5882 17.75C21.0024 17.75 21.3382 17.4142 21.3382 17C21.3382 16.5858 21.0024 16.25 20.5882 16.25V17.75ZM19.2169 16.8794L18.9378 17.5755H18.9378L19.2169 16.8794ZM14.4118 10.25C13.9976 10.25 13.6618 10.5858 13.6618 11C13.6618 11.4142 13.9976 11.75 14.4118 11.75V10.25ZM15.7831 11.1206L15.5039 11.8167V11.8167L15.7831 11.1206ZM16.2421 11.4033L15.7427 11.9628L15.7427 11.9628L16.2421 11.4033ZM14 17.75C14.9849 17.75 15.7767 17.2163 16.4044 16.596C17.031 15.9768 17.5974 15.1662 18.1137 14.4311C18.651 13.6662 19.1381 12.9768 19.65 12.471C20.1607 11.9663 20.5921 11.75 21 11.75V10.25C20.0151 10.25 19.2233 10.7837 18.5956 11.404C17.969 12.0232 17.4026 12.8338 16.8863 13.5689C16.349 14.3338 15.8619 15.0232 15.35 15.529C14.8393 16.0337 14.4079 16.25 14 16.25V17.75ZM16.1707 12.8034L17.4508 15.7879L18.8293 15.1966L17.5492 12.2121L16.1707 12.8034ZM17.4508 15.7879C17.6793 16.3207 17.8716 16.8109 18.2584 17.1562L19.2573 16.0372C19.1771 15.9656 19.1132 15.8584 18.8293 15.1966L17.4508 15.7879ZM20.5882 16.25C19.8087 16.25 19.6298 16.2369 19.4961 16.1833L18.9378 17.5755C19.4057 17.7631 19.9404 17.75 20.5882 17.75V16.25ZM18.2584 17.1562C18.4583 17.3346 18.689 17.4758 18.9378 17.5755L19.4961 16.1833C19.4031 16.146 19.3227 16.0955 19.2573 16.0372L18.2584 17.1562ZM14.4118 11.75C15.1913 11.75 15.3702 11.7631 15.5039 11.8167L16.0622 10.4245C15.5943 10.2369 15.0596 10.25 14.4118 10.25V11.75ZM17.5492 12.2121C17.3207 11.6793 17.1284 11.1891 16.7416 10.8438L15.7427 11.9628C15.8229 12.0344 15.8868 12.1416 16.1707 12.8034L17.5492 12.2121ZM15.5039 11.8167C15.5969 11.854 15.6773 11.9045 15.7427 11.9628L16.7416 10.8438C16.5417 10.6654 16.311 10.5242 16.0622 10.4245L15.5039 11.8167Z" fill="#141B34"/>
</svg>
