<svg width="24" height="24" viewBox="0 0 24 24" fill="none" xmlns="http://www.w3.org/2000/svg">
<path d="M8 19H10" stroke="#141B34" stroke-width="1.5" stroke-linecap="round" stroke-linejoin="round"/>
<path d="M2 9C2 5.70017 2 4.05025 3.02513 3.02513C4.05025 2 5.70017 2 9 2C12.2998 2 13.9497 2 14.9749 3.02513C16 4.05025 16 5.70017 16 9V15C16 18.2998 16 19.9497 14.9749 20.9749C13.9497 22 12.2998 22 9 22C5.70017 22 4.05025 22 3.02513 20.9749C2 19.9497 2 18.2998 2 15V9Z" fill="#D4D7E0"/>
<path d="M6.089 2.53402L6 2H12L11.911 2.53402C11.7181 3.69129 11.6217 4.26993 11.2248 4.62204C10.8108 4.98934 10.2239 5 9 5C7.77614 5 7.18918 4.98934 6.77519 4.62204C6.37832 4.26993 6.28188 3.69129 6.089 2.53402Z" fill="white"/>
<path d="M16 6.5C15.9377 4.78752 15.7251 3.75009 14.9988 3.02513C13.9718 2 12.3188 2 9.01289 2C5.70698 2 4.05403 2 3.02701 3.02513C2 4.05025 2 5.70017 2 9V15C2 18.2998 2 19.9497 3.02701 20.9749C4.05403 22 5.70698 22 9.01289 22C12.3188 22 13.9718 22 14.9988 20.9749C15.7251 20.2499 15.9377 19.2125 16 17.5" stroke="#141B34" stroke-width="1.5" stroke-linecap="round"/>
<path d="M16 11.9918L16 12.0008M20.0483 16.4922C21.2541 15.3405 22 13.7495 22 11.9922C22 10.2348 21.2541 8.64384 20.0483 7.49219M18 9.74219C18.6029 10.318 18.9759 11.1135 18.9759 11.9922C18.9759 12.8709 18.6029 13.6664 18 14.2422" stroke="#141B34" stroke-width="1.5" stroke-linecap="round"/>
<path d="M6 2L6.089 2.53402C6.28188 3.69129 6.37832 4.26993 6.77519 4.62204C7.18918 4.98934 7.77614 5 9 5C10.2239 5 10.8108 4.98934 11.2248 4.62204C11.6217 4.26993 11.7181 3.69129 11.911 2.53402L12 2" stroke="#141B34" stroke-width="1.5" stroke-linejoin="round"/>
</svg>
