<svg width="24" height="24" viewBox="0 0 24 24" fill="none" xmlns="http://www.w3.org/2000/svg">
<path d="M18 9C16.2969 9 16 11 16 11C15.7633 11.9468 15.6596 14.1441 14.8346 14.7882C14.5634 15 14.1884 15 13.4384 15H10.5616C9.8116 15 9.43663 15 9.16536 14.7882C8.34039 14.1441 8.23669 11.9468 8 11C8 11 7.70312 9 6 9C4.89543 9 4 9.89543 4 11C4 11.7403 4.4022 12.3866 5 12.7324L5.38226 14.746C5.67777 16.3026 5.82552 17.0809 6.38051 17.5405C6.93549 18 7.72769 18 9.31208 18H14.6879C16.2723 18 17.0645 18 17.6195 17.5405C18.1745 17.0809 18.3222 16.3026 18.6177 14.746L19 12.7324C19.5978 12.3866 20 11.7403 20 11C20 9.89543 19.1046 9 18 9Z" fill="#D4D7E0"/>
<path d="M10.5616 15H13.4384C14.1884 15 14.5634 15 14.8346 14.7882C15.6596 14.1441 15.7633 11.9468 16 11C16 11 16.1599 9.92256 16.9184 9.34931L16.9837 9L17.1678 7.7071L17.1678 7.70708C17.5459 5.0517 17.7349 3.72399 16.9898 2.862C16.2446 2 14.9078 2 12.2342 2H11.7658C9.09221 2 7.7554 2 7.01024 2.862C6.26508 3.72399 6.45413 5.0517 6.83223 7.7071L7.01633 9L7.06367 9.33598C7.83756 9.90567 8 11 8 11C8.23669 11.9468 8.34039 14.1441 9.16536 14.7882C9.43663 15 9.8116 15 10.5616 15Z" fill="#D4D7E0"/>
<path d="M10.5619 15H13.4388C14.1888 15 14.5638 15 14.835 14.7882C15.3101 14.4173 15.546 13.5312 15.7058 12.6655L15.5004 12.5C14.5676 11.8776 13.3423 11.5 12.0004 11.5C10.6584 11.5 9.43316 11.8776 8.50038 12.5L8.29492 12.6655C8.45475 13.5312 8.69064 14.4173 9.16574 14.7882C9.43701 15 9.81198 15 10.5619 15Z" fill="white"/>
<path d="M18 9C16.2969 9 16 11 16 11C15.7633 11.9468 15.6596 14.1441 14.8346 14.7882C14.5634 15 14.1884 15 13.4384 15H10.5616C9.8116 15 9.43663 15 9.16536 14.7882C8.34039 14.1441 8.23669 11.9468 8 11C8 11 7.70312 9 6 9C4.89543 9 4 9.89543 4 11C4 11.7403 4.4022 12.3866 5 12.7324L5.38226 14.746C5.67777 16.3026 5.82552 17.0809 6.38051 17.5405C6.93549 18 7.72769 18 9.31208 18H14.6879C16.2723 18 17.0645 18 17.6195 17.5405C18.1745 17.0809 18.3222 16.3026 18.6177 14.746L19 12.7324C19.5978 12.3866 20 11.7403 20 11C20 9.89543 19.1046 9 18 9Z" stroke="#141B34" stroke-width="1.5" stroke-linecap="round" stroke-linejoin="round"/>
<path d="M8 18L7 22M16 18L17 22" stroke="#141B34" stroke-width="1.5" stroke-linecap="round" stroke-linejoin="round"/>
<path d="M10.5616 15H13.4384C14.1884 15 14.5634 15 14.8346 14.7882C15.6596 14.1441 15.7633 11.9468 16 11C16 11 16.1599 9.92256 16.9184 9.34931L16.9837 9L17.1678 7.7071L17.1678 7.70708C17.5459 5.0517 17.7349 3.72399 16.9898 2.862C16.2446 2 14.9078 2 12.2342 2H11.7658C9.09221 2 7.7554 2 7.01024 2.862C6.26508 3.72399 6.45413 5.0517 6.83223 7.7071L7.01633 9L7.06367 9.33598C7.83756 9.90567 8 11 8 11C8.23669 11.9468 8.34039 14.1441 9.16536 14.7882C9.43663 15 9.8116 15 10.5616 15Z" stroke="#141B34" stroke-width="1.5" stroke-linecap="round" stroke-linejoin="round"/>
<path d="M9.16574 14.7882L8.70418 15.3794L8.70418 15.3794L9.16574 14.7882ZM14.835 14.7882L15.2966 15.3794L15.2966 15.3794L14.835 14.7882ZM8.50038 12.5L8.08412 11.8761L8.05614 11.8948L8.02995 11.9159L8.50038 12.5ZM15.5004 12.5L15.9708 11.9159L15.9446 11.8948L15.9166 11.8761L15.5004 12.5ZM8.29492 12.6655L7.8245 12.0813L7.47619 12.3619L7.55739 12.8016L8.29492 12.6655ZM15.7058 12.6655L16.4434 12.8016L16.5246 12.3619L16.1763 12.0813L15.7058 12.6655ZM13.4388 14.25H10.5619V15.75H13.4388V14.25ZM10.5619 14.25C10.1687 14.25 9.93998 14.2488 9.77338 14.2288C9.69798 14.2198 9.65911 14.2092 9.64084 14.2028C9.63243 14.1999 9.62879 14.198 9.62817 14.1976C9.62772 14.1974 9.62774 14.1974 9.6273 14.1971L8.70418 15.3794C8.98754 15.6006 9.29906 15.6828 9.59528 15.7182C9.87147 15.7512 10.2052 15.75 10.5619 15.75V14.25ZM13.4388 15.75C13.7955 15.75 14.1293 15.7512 14.4055 15.7182C14.7017 15.6828 15.0132 15.6006 15.2966 15.3794L14.3735 14.1971C14.373 14.1974 14.373 14.1974 14.3726 14.1976C14.372 14.198 14.3683 14.1999 14.3599 14.2028C14.3416 14.2092 14.3028 14.2198 14.2274 14.2288C14.0608 14.2488 13.8321 14.25 13.4388 14.25V15.75ZM8.91664 13.1239C9.71719 12.5897 10.7954 12.25 12.0004 12.25V10.75C10.5214 10.75 9.14912 11.1655 8.08412 11.8761L8.91664 13.1239ZM12.0004 12.25C13.2053 12.25 14.2836 12.5897 15.0841 13.1239L15.9166 11.8761C14.8516 11.1655 13.4793 10.75 12.0004 10.75V12.25ZM9.6273 14.1971C9.55569 14.1411 9.4384 13.9862 9.316 13.6535C9.19982 13.3376 9.10997 12.9491 9.03246 12.5293L7.55739 12.8016C7.6397 13.2475 7.74772 13.7349 7.90821 14.1713C8.06248 14.5907 8.30069 15.0643 8.70418 15.3794L9.6273 14.1971ZM8.02995 11.9159L7.8245 12.0813L8.76535 13.2496L8.9708 13.0841L8.02995 11.9159ZM15.2966 15.3794C15.7001 15.0643 15.9383 14.5907 16.0925 14.1713C16.253 13.7349 16.3611 13.2475 16.4434 12.8016L14.9683 12.5293C14.8908 12.9491 14.8009 13.3376 14.6848 13.6535C14.5624 13.9862 14.4451 14.1411 14.3735 14.1971L15.2966 15.3794ZM15.03 13.0841L15.2354 13.2496L16.1763 12.0813L15.9708 11.9159L15.03 13.0841Z" fill="#141B34"/>
</svg>
