<svg width="24" height="24" viewBox="0 0 24 24" fill="none" xmlns="http://www.w3.org/2000/svg">
<path d="M6 8L18.0001 8.00006" stroke="#141B34" stroke-width="1.5" stroke-linecap="round" stroke-linejoin="round"/>
<path d="M3 12H21" stroke="#141B34" stroke-width="1.5" stroke-linecap="round" stroke-linejoin="round"/>
<path d="M9.46967 3.26256C9.17678 3.55546 9.17678 4.03033 9.46967 4.32322C9.76256 4.61612 10.2374 4.61612 10.5303 4.32322L9.46967 3.26256ZM11.2929 2.5L10.7626 1.96967V1.96967L11.2929 2.5ZM12.7071 2.5L12.1768 3.03033L12.1768 3.03033L12.7071 2.5ZM13.4697 4.32322C13.7626 4.61612 14.2374 4.61612 14.5303 4.32322C14.8232 4.03033 14.8232 3.55546 14.5303 3.26256L13.4697 4.32322ZM11.25 8C11.25 8.41421 11.5858 8.75 12 8.75C12.4142 8.75 12.75 8.41421 12.75 8H11.25ZM10.5303 4.32322L11.8232 3.03033L10.7626 1.96967L9.46967 3.26256L10.5303 4.32322ZM12.1768 3.03033L13.4697 4.32322L14.5303 3.26256L13.2374 1.96967L12.1768 3.03033ZM11.8232 3.03033C11.9085 2.94503 11.9742 2.87943 12.0317 2.82479C12.0894 2.76989 12.1255 2.73899 12.1487 2.72127C12.1716 2.70384 12.1659 2.7117 12.1377 2.72347C12.1035 2.73773 12.0549 2.75 12 2.75V1.25C11.6665 1.25 11.4148 1.3945 11.2388 1.52873C11.0802 1.64976 10.9142 1.818 10.7626 1.96967L11.8232 3.03033ZM13.2374 1.96967C13.0858 1.818 12.9198 1.64976 12.7612 1.52873C12.5852 1.3945 12.3335 1.25 12 1.25V2.75C11.9451 2.75 11.8965 2.73773 11.8623 2.72347C11.8341 2.7117 11.8284 2.70384 11.8513 2.72127C11.8745 2.73899 11.9106 2.76989 11.9683 2.82479C12.0258 2.87943 12.0915 2.94503 12.1768 3.03033L13.2374 1.96967ZM11.25 2V8H12.75V2H11.25Z" fill="#141B34"/>
<path d="M5.46967 16.2626C5.17678 16.5555 5.17678 17.0303 5.46967 17.3232C5.76256 17.6161 6.23744 17.6161 6.53033 17.3232L5.46967 16.2626ZM7.29289 15.5L6.76256 14.9697V14.9697L7.29289 15.5ZM8.70711 15.5L8.17678 16.0303L8.17678 16.0303L8.70711 15.5ZM9.46967 17.3232C9.76256 17.6161 10.2374 17.6161 10.5303 17.3232C10.8232 17.0303 10.8232 16.5555 10.5303 16.2626L9.46967 17.3232ZM7.25 21C7.25 21.4142 7.58579 21.75 8 21.75C8.41421 21.75 8.75 21.4142 8.75 21H7.25ZM6.53033 17.3232L7.82322 16.0303L6.76256 14.9697L5.46967 16.2626L6.53033 17.3232ZM8.17678 16.0303L9.46967 17.3232L10.5303 16.2626L9.23744 14.9697L8.17678 16.0303ZM7.82322 16.0303C7.90853 15.945 7.97419 15.8794 8.03166 15.8248C8.0894 15.7699 8.12548 15.739 8.14872 15.7213C8.17156 15.7038 8.16591 15.7117 8.13769 15.7235C8.10349 15.7377 8.05494 15.75 8 15.75V14.25C7.66653 14.25 7.41478 14.3945 7.23885 14.5287C7.08022 14.6498 6.91424 14.818 6.76256 14.9697L7.82322 16.0303ZM9.23744 14.9697C9.08576 14.818 8.91978 14.6498 8.76115 14.5287C8.58522 14.3945 8.33347 14.25 8 14.25V15.75C7.94506 15.75 7.89651 15.7377 7.86231 15.7235C7.83409 15.7117 7.82844 15.7038 7.85128 15.7213C7.87451 15.739 7.9106 15.7699 7.96834 15.8248C8.02581 15.8794 8.09147 15.945 8.17678 16.0303L9.23744 14.9697ZM7.25 15V21H8.75V15H7.25Z" fill="#141B34"/>
<path d="M13.4697 16.2626C13.1768 16.5555 13.1768 17.0303 13.4697 17.3232C13.7626 17.6161 14.2374 17.6161 14.5303 17.3232L13.4697 16.2626ZM15.2929 15.5L14.7626 14.9697V14.9697L15.2929 15.5ZM16.7071 15.5L16.1768 16.0303L16.1768 16.0303L16.7071 15.5ZM17.4697 17.3232C17.7626 17.6161 18.2374 17.6161 18.5303 17.3232C18.8232 17.0303 18.8232 16.5555 18.5303 16.2626L17.4697 17.3232ZM15.25 21C15.25 21.4142 15.5858 21.75 16 21.75C16.4142 21.75 16.75 21.4142 16.75 21H15.25ZM14.5303 17.3232L15.8232 16.0303L14.7626 14.9697L13.4697 16.2626L14.5303 17.3232ZM16.1768 16.0303L17.4697 17.3232L18.5303 16.2626L17.2374 14.9697L16.1768 16.0303ZM15.8232 16.0303C15.9085 15.945 15.9742 15.8794 16.0317 15.8248C16.0894 15.7699 16.1255 15.739 16.1487 15.7213C16.1716 15.7038 16.1659 15.7117 16.1377 15.7235C16.1035 15.7377 16.0549 15.75 16 15.75V14.25C15.6665 14.25 15.4148 14.3945 15.2388 14.5287C15.0802 14.6498 14.9142 14.818 14.7626 14.9697L15.8232 16.0303ZM17.2374 14.9697C17.0858 14.818 16.9198 14.6498 16.7612 14.5287C16.5852 14.3945 16.3335 14.25 16 14.25V15.75C15.9451 15.75 15.8965 15.7377 15.8623 15.7235C15.8341 15.7117 15.8284 15.7038 15.8513 15.7213C15.8745 15.739 15.9106 15.7699 15.9683 15.8248C16.0258 15.8794 16.0915 15.945 16.1768 16.0303L17.2374 14.9697ZM15.25 15V21H16.75V15H15.25Z" fill="#141B34"/>
</svg>
