<svg width="24" height="24" viewBox="0 0 24 24" fill="none" xmlns="http://www.w3.org/2000/svg">
<path d="M8.9994 9.99835C10.4263 9.99835 11.6298 8.96866 13.8958 6.90927C13.9548 6.85566 14.0432 6.92824 14.0008 6.99572C13.9997 6.99747 13.9988 6.99932 13.998 7.00123L12.6969 10.2539C12.3507 11.1193 12.1777 11.552 11.8878 11.9076C11.5979 12.2631 11.209 12.5198 10.431 13.0333L8.96874 13.9984L7.53197 13.0307C6.77135 12.5184 6.39103 12.2623 6.10735 11.911C5.82366 11.5597 5.65337 11.1339 5.31279 10.2825L4.00029 7.00123C3.99952 6.99931 3.99859 6.99747 3.99749 6.99573C3.95501 6.92805 4.04369 6.85535 4.10282 6.90909C6.36892 8.9686 7.57248 9.99835 8.9994 9.99835Z" fill="#D4D7E0"/>
<path d="M21 13C21 14.6569 19.6569 16 18 16C16.3431 16 15 14.6569 15 13C15 11.3431 16.3431 10 18 10C19.6569 10 21 11.3431 21 13Z" fill="#D4D7E0"/>
<path d="M13.0014 2C14.1053 2 15.0003 2.93126 15.0003 4.08003C15.0003 5.02915 15.0362 5.87375 14.2692 6.57196C11.7587 8.85732 10.5034 10 9.00027 10C7.49714 10 6.24187 8.85732 3.73133 6.57196C2.96426 5.87369 3.00027 5.029 3.00027 4.07981C3.00027 2.93116 3.8951 2 4.99893 2" stroke="#141B34" stroke-width="1.5" stroke-linecap="round" stroke-linejoin="round"/>
<path d="M9 14V17.4998C9 19.9852 11.0149 22.0001 13.5003 22.0001C15.9858 22.0001 18.0007 19.9852 18.0007 17.4998V16" stroke="#141B34" stroke-width="1.5" stroke-linecap="round" stroke-linejoin="round"/>
<path d="M14 7L12.6978 10.2556C12.3516 11.121 12.1785 11.5537 11.8887 11.9092C11.5988 12.2648 11.2098 12.5215 10.4319 13.0349L8.9696 14L7.53283 13.0323C6.77221 12.5201 6.39189 12.2639 6.10821 11.9126C5.82452 11.5613 5.65423 11.1356 5.31365 10.2841L4 7" stroke="#141B34" stroke-width="1.5" stroke-linecap="round" stroke-linejoin="round"/>
<path d="M21 13C21 14.6569 19.6569 16 18 16C16.3431 16 15 14.6569 15 13C15 11.3431 16.3431 10 18 10C19.6569 10 21 11.3431 21 13Z" stroke="#141B34" stroke-width="1.5"/>
<path d="M18.008 13L17.999 13" stroke="#141B34" stroke-width="2" stroke-linecap="round" stroke-linejoin="round"/>
</svg>
