<svg width="24" height="24" viewBox="0 0 24 24" fill="none" xmlns="http://www.w3.org/2000/svg">
<path d="M4.22928 16.4988L2.23991 6.72555C2.00972 5.82611 1.89462 5.37639 2.12762 5.03597C2.89276 3.91806 4.76766 4.62402 5.79936 3.95894C7.18469 3.0659 5.99129 2 8 2L10.1552 3.69308C11.0135 4.3674 12 5.03597 12 5.03597C12 5.03597 12.9865 4.3674 13.8448 3.69308L16 2C18.0087 2 16.8153 3.0659 18.2006 3.95894C19.2323 4.62402 21.1072 3.91806 21.8724 5.03597C22.1054 5.37639 21.9903 5.82611 21.7601 6.72555L19.7707 16.4988C19.3208 18.2569 19.0958 19.1359 18.3975 19.6491C18.1116 19.8592 17.8162 19.9575 17.5 20H6.5C6.18381 19.9575 5.88839 19.8592 5.60255 19.6491C4.9042 19.1359 4.67922 18.2569 4.22928 16.4988Z" fill="white"/>
<path d="M12.9929 8.19988L12.6476 8.77545C12.5109 9.00338 12.2646 9.14286 11.9989 9.14286C11.7331 9.14286 11.4868 9.00338 11.3501 8.77545L11.0048 8.1998C10.6683 7.63871 10.5 7.35817 10.5144 7.05571C10.5156 7.03155 10.5176 7.00745 10.5205 6.98344C10.5569 6.68283 10.7697 6.43439 11.1954 5.93753L11.9986 5L12.8021 5.93759C13.2278 6.43438 13.4407 6.68277 13.4771 6.98336C13.48 7.00744 13.482 7.03161 13.4832 7.05584C13.4977 7.35828 13.3294 7.63881 12.9929 8.19988Z" fill="white"/>
<path d="M13.2552 20.888L13.2552 20.888C13.9658 19.9995 14.6976 19.3247 14.4513 17.9389L12.5247 9.55817C12.4685 9.3138 12.251 9.14062 12.0002 9.14062C11.7495 9.14062 11.532 9.31379 11.4758 9.55814L9.54874 17.9389C9.30243 19.3247 10.0342 19.9995 10.7448 20.888L10.7448 20.888C11.3365 21.6279 11.6324 21.9978 12 21.9978C12.3676 21.9978 12.6635 21.6279 13.2552 20.888Z" fill="#D4D7E0"/>
<path d="M16.0004 2C16.5543 2 16.8647 2.08103 17.0528 2.21713C17.7906 2.75077 18.1595 3.01759 18.2227 3.43147C18.2859 3.84534 17.8303 4.45546 16.919 5.6757L15.6922 7.31851C15.3703 7.76806 15.2094 7.99283 14.9818 8.00977C14.7541 8.02672 14.5645 7.82805 14.1851 7.4307L13.631 6.85032C12.8723 6.05563 12.493 5.65828 12.5253 5.18142C12.5577 4.70455 12.9869 4.3674 13.8452 3.69308L13.8452 3.69308L16.0004 2Z" fill="#D4D7E0"/>
<path d="M8.00142 2C7.44758 2 7.13717 2.08103 6.94901 2.21713C6.21126 2.75077 5.84239 3.01759 5.77917 3.43147C5.71595 3.84535 6.17157 4.45546 7.08281 5.6757L8.30962 7.31851C8.6315 7.76806 8.79244 7.99283 9.02007 8.00977C9.24771 8.02672 9.43738 7.82805 9.81672 7.4307L10.3708 6.85032C11.1295 6.05563 11.5089 5.65828 11.4765 5.18142C11.4441 4.70455 11.015 4.3674 10.1566 3.69308L8.00142 2Z" fill="#D4D7E0"/>
<path d="M5.79936 3.95894C4.76766 4.62402 2.89276 3.91806 2.12762 5.03597C1.89462 5.37639 2.00972 5.82611 2.23991 6.72555L4.22928 16.4988C4.67923 18.2569 4.9042 19.1359 5.60255 19.6491C5.88839 19.8592 6.18381 19.9575 6.5 20M5.79936 3.95894C7.18469 3.0659 5.99129 2 8 2L10.1552 3.69308C11.0135 4.3674 11.4427 4.70455 11.4751 5.18142C11.5074 5.65828 11.1281 6.05563 10.3694 6.85032L9.8153 7.4307C9.43596 7.82805 9.24628 8.02672 9.01865 8.00977C8.79102 7.99283 8.63008 7.76806 8.30819 7.31851L5.79936 3.95894ZM18.2006 3.95894C19.2323 4.62402 21.1072 3.91806 21.8724 5.03597C22.1054 5.37639 21.9903 5.82611 21.7601 6.72555L19.7707 16.4988C19.3208 18.2569 19.0958 19.1359 18.3975 19.6491C18.1116 19.8592 17.8162 19.9575 17.5 20M18.2006 3.95894C16.8153 3.0659 18.0087 2 16 2L13.8448 3.69308C12.9865 4.3674 12.5573 4.70455 12.5249 5.18142C12.4926 5.65828 12.8719 6.05563 13.6306 6.85032L14.1847 7.4307C14.564 7.82805 14.7537 8.02672 14.9813 8.00977C15.209 7.99283 15.3699 7.76806 15.6918 7.31851L18.2006 3.95894Z" stroke="#141B34" stroke-width="1.5" stroke-linecap="round" stroke-linejoin="round"/>
<path d="M10.2866 7L11.1572 8.45155C11.3619 8.79287 11.4643 8.96353 11.4946 9.15509C11.525 9.34665 11.4804 9.54059 11.3912 9.92847L9.54874 17.9411C9.30243 19.327 10.0342 20.0017 10.7448 20.8903C11.3365 21.6301 11.6324 22 12 22C12.3676 22 12.6635 21.6301 13.2552 20.8903C13.9658 20.0017 14.6976 19.327 14.4513 17.9411L12.6093 9.92842C12.5201 9.54056 12.4755 9.34663 12.5059 9.15509C12.5362 8.96355 12.6386 8.7929 12.8433 8.45161L13.714 7" stroke="#141B34" stroke-width="1.5" stroke-linecap="round"/>
</svg>
