<svg width="24" height="24" viewBox="0 0 24 24" fill="none" xmlns="http://www.w3.org/2000/svg">
<path d="M20 14C20 17.7712 20 19.6569 18.7552 20.8284C17.5104 22 15.5069 22 11.5 22L10.7273 22C7.46607 22 5.83546 22 4.70307 21.2022C4.37862 20.9736 4.09058 20.7025 3.8477 20.3971C3 19.3313 3 17.7966 3 14.7273L3 12.1818C3 9.21865 3 7.73706 3.46894 6.55375C4.22282 4.65142 5.81714 3.15088 7.83836 2.44135C9.09563 2 10.6698 2 13.8182 2C15.6173 2 16.5168 2 17.2352 2.2522C18.3902 2.65765 19.3013 3.5151 19.732 4.60214C20 5.27832 20 6.12494 20 7.81818L20 14Z" fill="#D4D7E0"/>
<path d="M3.41058 6.54557C3.00284 7.55706 2.93806 8.78954 2.91691 10.9856C3.25806 10.1531 4.83511 8.50023 8.43012 8.52136C8.73152 8.52313 9.52395 8.22454 9.49269 6.58132C9.48468 5.08547 10.0514 2.11899 12.3644 2.0463C10.1323 2.04302 8.8582 2.09584 7.8041 2.45893C5.77874 3.15657 4.17563 4.64771 3.41058 6.54557Z" fill="white"/>
<path d="M12.3549 13L14.002 15.5M14.002 15.5L15.649 18M14.002 15.5L15.649 13M14.002 15.5L12.3549 18M17.7078 13H19.3549M19.3549 13H21.002M19.3549 13V18M7.00195 13H8.64901M8.64901 13H10.2961M8.64901 13V18" stroke="#141B34" stroke-width="1.5" stroke-linecap="round"/>
<path d="M15 22H10.7273C7.46607 22 5.83546 22 4.70307 21.2022C4.37862 20.9736 4.09058 20.7025 3.8477 20.3971C3 19.3313 3 17.7966 3 14.7273V12.1818C3 9.21865 3 7.73706 3.46894 6.55375C4.22281 4.65142 5.81714 3.15088 7.83836 2.44135C9.09563 2 10.6698 2 13.8182 2C15.6173 2 16.5168 2 17.2352 2.2522C18.3902 2.65765 19.3012 3.5151 19.732 4.60214C20 5.27832 20 6.12494 20 7.81818V10" stroke="#141B34" stroke-width="1.5" stroke-linecap="round" stroke-linejoin="round"/>
<path d="M3 12C3 10.1591 4.49238 8.66667 6.33333 8.66667C6.99912 8.66667 7.78404 8.78333 8.43137 8.60988C9.00652 8.45576 9.45576 8.00652 9.60988 7.43136C9.78333 6.78404 9.66667 5.99912 9.66667 5.33333C9.66667 3.49238 11.1591 2 13 2" stroke="#141B34" stroke-width="1.5" stroke-linecap="round" stroke-linejoin="round"/>
</svg>
