<svg width="24" height="24" viewBox="0 0 24 24" fill="none" xmlns="http://www.w3.org/2000/svg">
<path d="M19.7812 21.6718L20 22H4L4.2188 21.6718C5.09073 20.3639 5.5267 19.71 6.18998 19.355C6.85326 19 7.63921 19 9.2111 19H14.7889C16.3608 19 17.1467 19 17.81 19.355C18.4733 19.71 18.9093 20.3639 19.7812 21.6718Z" fill="white"/>
<path d="M9.63467 4.21233L10.588 3.02497L10.588 3.02497C11.2547 2.34166 11.588 2 12.0022 2C12.4164 2 12.7498 2.34166 13.4164 3.02497L14.3698 4.21233C14.4869 4.3582 14.5455 4.43113 14.5986 4.50631C14.8372 4.84391 15.0034 5.22718 15.0868 5.63205C15.1054 5.72221 15.1186 5.8148 15.1451 5.99998L15.1451 6H8.85938C8.88583 5.81481 8.89906 5.72221 8.91764 5.63205C9.00108 5.22718 9.1673 4.84391 9.40586 4.50631C9.45899 4.43113 9.51755 4.3582 9.63467 4.21233Z" fill="white"/>
<path d="M7.32612 16.7172L8.85714 6H15.1429L16.6739 16.7172C16.8256 17.7793 16.9015 18.3104 16.6024 18.6552C16.3034 19 15.7669 19 14.694 19H9.30602C8.23307 19 7.6966 19 7.39756 18.6552C7.09851 18.3104 7.17438 17.7793 7.32612 16.7172Z" fill="#D4D7E0"/>
<path d="M7 19L8.76762 6.62668C8.88311 5.81824 8.94085 5.41402 9.10135 5.04395C9.26184 4.67389 9.51749 4.35549 10.0288 3.71871L10.5858 3.02497C11.2525 2.34166 11.5858 2 12 2C12.4142 2 12.7475 2.34166 13.4142 3.02497L13.9712 3.71871C14.4825 4.35549 14.7382 4.67389 14.8987 5.04395C15.0591 5.41402 15.1169 5.81824 15.2324 6.62668L17 19" stroke="#141B34" stroke-width="1.5" stroke-linecap="round"/>
<path d="M3 22H21" stroke="#141B34" stroke-width="1.5" stroke-linecap="round"/>
<path d="M20 22L19.7812 21.6718C18.9093 20.3639 18.4733 19.71 17.81 19.355C17.1467 19 16.3608 19 14.7889 19H9.2111C7.63921 19 6.85326 19 6.18998 19.355C5.5267 19.71 5.09073 20.3639 4.2188 21.6718L4 22" stroke="#141B34" stroke-width="1.5" stroke-linecap="round"/>
<path d="M9 6H15" stroke="#141B34" stroke-width="1.5" stroke-linecap="round"/>
<path d="M12 19L12 13" stroke="#141B34" stroke-width="1.5" stroke-linecap="round"/>
</svg>
