<svg width="24" height="24" viewBox="0 0 24 24" fill="none" xmlns="http://www.w3.org/2000/svg">
<path d="M2 2L22 22" stroke="#141B34" stroke-width="1.5"/>
<path d="M11.2279 6C11.2279 5.17157 10.536 4.5 9.68254 4.5C9.26381 4.5 8.88397 4.66165 8.60566 4.92417M11.2279 6V4C11.2279 3.17157 11.9198 2.5 12.7732 2.5C13.6267 2.5 14.3186 3.17157 14.3186 4V6M11.2279 6V7.5464M14.3186 6C14.3186 5.17157 15.0105 4.5 15.8639 4.5C16.7174 4.5 17.4093 5.17157 17.4093 6V8M14.3186 6V10.5M17.4093 8C17.4093 7.17157 18.1012 6.5 18.9546 6.5C19.8081 6.5 20.5 7.17157 20.5 8V16.8185M17.4093 8V10.5M19.7716 19.8021C19.0475 20.8291 17.8521 21.5 16.5 21.5H9L3.84758 14.5487C3.37204 13.9314 3.38572 13.0789 3.88083 12.4763C4.52789 11.6888 5.73434 11.6237 6.46676 12.3369L8.13718 13.9634V8.13718" stroke="#141B34" stroke-width="1.5"/>
</svg>
