<svg width="24" height="24" viewBox="0 0 24 24" fill="none" xmlns="http://www.w3.org/2000/svg">
<path d="M2 2L22 22" stroke="#141B34" stroke-width="1.5"/>
<path d="M14.25 5.5C14.25 4.67157 14.9216 4 15.75 4C16.5784 4 17.25 4.67157 17.25 5.5V7.5M14.25 5.5V3.5C14.25 2.67157 13.5784 2 12.75 2C11.9216 2 11.25 2.67157 11.25 3.5L11.2502 5M14.25 5.5V11M11.2502 5C11.2499 4.17187 10.5784 3.50064 9.75021 3.50064C8.92178 3.50064 8.25021 4.17221 8.25021 5.00064L8.25021 5.06823M11.2502 5V8.06823M18.25 22.0002V19.3964L18.772 18.771M8.25 22V19.5L4.08738 14.0489C3.6258 13.4315 3.63907 12.5791 4.11965 11.9765C4.74772 11.1889 5.91877 11.1239 6.6297 11.837L8.25 13.4624L8.25013 8.24915M17.25 12V7.5M17.25 7.5C17.25 6.67157 17.9216 6 18.75 6C19.5784 6 20.25 6.67157 20.25 7.5V15.5501C20.25 15.9961 20.1755 16.4353 20.0327 16.8507" stroke="#141B34" stroke-width="1.5"/>
</svg>
