<svg width="24" height="24" viewBox="0 0 24 24" fill="none" xmlns="http://www.w3.org/2000/svg">
<path d="M6.53345 13.6528L8.5 15.3722V6.50065C8.5 5.67186 9.17186 5 10.0006 5C10.8289 5 11.5006 5.67107 11.5013 6.49935L11.5045 12H15.5C16.8807 12 18 13.1193 18 14.5V19.4999C18 20.8806 16.8807 21.9999 15.5 21.9999H9L4.3436 15.8158C3.88822 15.2474 3.88518 14.4341 4.3363 13.8622C4.87851 13.175 5.87444 13.08 6.53345 13.6528Z" stroke="#141B34" stroke-width="1.5"/>
<path d="M20 6L20.5303 5.46967L21.0607 6L20.5303 6.53033L20 6ZM20 6.75H14V5.25H20V6.75ZM20.5303 6.53033L17.5303 9.53033L16.4697 8.46967L19.4697 5.46967L20.5303 6.53033ZM17.5303 2.46967L20.5303 5.46967L19.4697 6.53033L16.4697 3.53033L17.5303 2.46967Z" fill="#141B34"/>
<path d="M11.938 9.5C13.1677 8.81764 14 7.50601 14 6C14 3.79086 12.2091 2 10 2C7.79086 2 6 3.79086 6 6C6 7.50601 6.83229 8.81764 8.062 9.5" stroke="#141B34" stroke-width="1.5" stroke-linecap="round"/>
</svg>
