<svg width="24" height="24" viewBox="0 0 24 24" fill="none" xmlns="http://www.w3.org/2000/svg">
<path d="M13.5455 13.8579V12.225C13.5455 12.076 13.5189 11.9329 13.4701 11.8M16.2727 14.3276V13.075C16.2727 12.926 16.2462 12.7829 16.1974 12.65M10.8182 10.95V13.0079M10.8182 10.95H12.2219C12.7982 10.95 13.2885 11.3048 13.4701 11.8M10.8182 10.95V6.34211C10.8182 5.60088 10.2077 5 9.45455 5C8.70143 5 8.09091 5.60088 8.09091 6.34211V15.2557L6.61791 13.8014C5.97161 13.1633 4.90702 13.2215 4.33605 13.9262C3.89916 14.4654 3.88709 15.2281 4.30671 15.7805L8.09091 22H16.3529C17.8149 22 19 20.8583 19 19.45V13.925C19 13.2208 18.4074 12.65 17.6765 12.65H16.1974M13.4701 11.8H14.9492C15.5255 11.8 16.0157 12.1548 16.1974 12.65" stroke="#141B34" stroke-width="1.5"/>
<path d="M20 6L20.5303 6.53033L21.0607 6L20.5303 5.46967L20 6ZM13.5 6H12.75V6.75H13.5V6ZM20 5.25H13.5V6.75H20V5.25ZM19.4697 5.46967L16.9697 7.96967L18.0303 9.03033L20.5303 6.53033L19.4697 5.46967ZM16.9697 4.03033L19.4697 6.53033L20.5303 5.46967L18.0303 2.96967L16.9697 4.03033ZM6.25 6C6.25 4.20507 7.70507 2.75 9.5 2.75V1.25C6.87665 1.25 4.75 3.37665 4.75 6H6.25ZM9.5 2.75C11.2949 2.75 12.75 4.20508 12.75 6H14.25C14.25 3.37665 12.1234 1.25 9.5 1.25V2.75ZM4.75 6C4.75 7.99883 5.98437 9.70755 7.72962 10.4089L8.28894 9.01708C7.09253 8.53628 6.25 7.36563 6.25 6H4.75Z" fill="#141B34"/>
</svg>
