<svg width="24" height="24" viewBox="0 0 24 24" fill="none" xmlns="http://www.w3.org/2000/svg">
<path d="M7.0208 7.61785L6.59035 7.00367L6.56508 7.02138L6.54136 7.04111L7.0208 7.61785ZM4 10.129V10.879H4.27103L4.47944 10.7058L4 10.129ZM10.0628 6.00535L10.0169 5.25676L10.0628 6.00535ZM10.8244 6.06095L10.6705 6.79498L10.8244 6.06095ZM6.332 21.6989L6.0705 22.4018H6.0705L6.332 21.6989ZM20.5 9.6129V8.8629V9.6129ZM4 19.8636L4.51568 19.319L4.29875 19.1136H4V19.8636ZM16 12.7097V11.9597V12.7097ZM6.54136 7.04111L3.52056 9.55229L4.47944 10.7058L7.50025 8.19459L6.54136 7.04111ZM7.45125 8.23202C8.20664 7.7026 8.72925 7.33736 9.16283 7.09299C9.58427 6.85546 9.85965 6.76922 10.1087 6.75395L10.0169 5.25676C9.4536 5.29131 8.9512 5.49043 8.42634 5.78625C7.91362 6.07522 7.3214 6.49131 6.59035 7.00367L7.45125 8.23202ZM10.1087 6.75395C10.2967 6.74242 10.4854 6.75617 10.6705 6.79498L10.9784 5.32692C10.6623 5.26061 10.3391 5.237 10.0169 5.25676L10.1087 6.75395ZM10.1653 21.25C9.148 21.25 8.41923 21.2497 7.84276 21.2138C7.27241 21.1783 6.90041 21.1101 6.59351 20.996L6.0705 22.4018C6.573 22.5888 7.10968 22.6711 7.74964 22.7109C8.38347 22.7503 9.16663 22.75 10.1653 22.75V21.25ZM10.5 10.3629L20.5 10.3629V8.8629L10.5 8.86291V10.3629ZM21.25 11.1613C21.25 11.6249 20.8919 11.9597 20.5 11.9597V13.4597C21.7649 13.4597 22.75 12.408 22.75 11.1613H21.25ZM20.5 10.3629C20.8919 10.3629 21.25 10.6977 21.25 11.1613H22.75C22.75 9.91455 21.7649 8.8629 20.5 8.8629V10.3629ZM14.5 15.0565H12V16.5565H14.5V15.0565ZM13 18.1532H11V19.6532H13V18.1532ZM4 9.37903H2V10.879H4V9.37903ZM6.59351 20.996C6.52855 20.9718 6.39768 20.9013 6.20106 20.7636C6.01507 20.6333 5.80663 20.469 5.59361 20.2904C5.16791 19.9334 4.75567 19.5463 4.51568 19.319L3.48432 20.4082C3.72688 20.6379 4.16697 21.0517 4.62981 21.4398C4.86105 21.6337 5.10592 21.8279 5.3406 21.9923C5.56464 22.1492 5.82179 22.3093 6.0705 22.4018L6.59351 20.996ZM4 19.1136H2V20.6136H4V19.1136ZM11.5 21.25H10.1653V22.75H11.5V21.25ZM10.6705 6.79498C11.2984 6.92668 11.9322 7.37518 12.5965 8.0334C12.9211 8.35503 13.2338 8.70689 13.5433 9.06429C13.8459 9.41361 14.1565 9.78165 14.4488 10.0984L15.5512 9.08126C15.2803 8.7876 14.9988 8.45367 14.6772 8.08231C14.3626 7.71904 14.0192 7.33153 13.6523 6.9679C12.9335 6.25563 12.0427 5.55014 10.9784 5.32692L10.6705 6.79498ZM20.5 11.9597H16V13.4597H20.5V11.9597ZM16 11.9597L13 11.9597V13.4597L16 13.4597V11.9597ZM15.25 12.7097V14.3065H16.75V12.7097H15.25ZM14.5 16.5565C15.7426 16.5565 16.75 15.5491 16.75 14.3065H15.25C15.25 14.7207 14.9142 15.0565 14.5 15.0565V16.5565ZM13.75 15.8065V17.4032H15.25V15.8065H13.75ZM13 19.6532C14.2426 19.6532 15.25 18.6459 15.25 17.4032H13.75C13.75 17.8174 13.4142 18.1532 13 18.1532V19.6532ZM13.75 20.5V18.9032H12.25V20.5H13.75ZM11.5 22.75C12.7426 22.75 13.75 21.7426 13.75 20.5H12.25C12.25 20.9142 11.9142 21.25 11.5 21.25V22.75Z" fill="#141B34"/>
<path d="M22 4.5L16 4.5M22 4.5L19.5 2M22 4.5L19.5 7" stroke="#141B34" stroke-width="1.5"/>
</svg>
