<svg width="24" height="24" viewBox="0 0 24 24" fill="none" xmlns="http://www.w3.org/2000/svg">
<path d="M6.6 13.7816V11M6.6 13.7816C6.6 14.7639 5.79411 15.5602 4.8 15.5602C3.80589 15.5602 3 14.7639 3 13.7816V7.99951C3 5.79037 4.79086 3.99951 7 3.99951H17C19.2091 3.99951 21 5.79037 21 7.99951V13.0292C21 14.5556 21 15.3188 20.8431 15.9478C20.3627 17.8735 18.8411 19.3769 16.8923 19.8516C16.4854 19.9507 15.7827 19.9864 14.9252 19.9993C14.0788 19.9993 13.35 20.0754 13.35 18.9993C13.35 17.9834 13.6769 16.8941 14.925 16.8941H15.6M6.6 13.7816V15.1156C6.6 16.0978 7.40589 16.8941 8.4 16.8941C9.39411 16.8941 10.2 16.0978 10.2 15.1156M10.2 15.1156V11M10.2 15.1156V15.9119C10.2 16.8941 11.0059 17.6904 12 17.6904C12.9941 17.6904 13.8 16.8941 13.8 15.9119V15.1156M17.4 11V15.1156C17.4 16.0978 16.5941 16.8941 15.6 16.8941M13.8 15.1156V11M13.8 15.1156C13.8 16.0978 14.6059 16.8941 15.6 16.8941" stroke="#141B34" stroke-width="1.5"/>
</svg>
