<svg width="24" height="24" viewBox="0 0 24 24" fill="none" xmlns="http://www.w3.org/2000/svg">
<path d="M9.5 5V5.75H8.75V5H9.5ZM12 5.75H9.5V4.25H12V5.75ZM8.75 5V2H10.25V5H8.75ZM8.87509 4.58529C10.5265 2.09682 13.087 1.05365 15.5672 1.30966C18.0345 1.56433 20.3834 3.09854 21.6704 5.66362L20.3296 6.33628C19.2682 4.22062 17.3616 3.00285 15.4132 2.80173C13.4778 2.60196 11.4625 3.39918 10.1249 5.41471L8.87509 4.58529Z" fill="#141B34"/>
<path d="M13.1414 8.22996L13.6383 10.8545L5.52313 6.22302C4.71869 5.76391 3.69006 6.03637 3.22561 6.83157C2.76117 7.62677 3.03679 8.64358 3.84123 9.10269L8.21093 11.5966L7.17263 14.2817C6.48662 16.006 6.14362 16.8681 6.15591 17.6202C6.1762 18.8626 6.62576 20.0109 7.85228 20.7109C8.70657 21.1984 9.40161 21.3168 11.2379 21.6883L14 22L19 15.5049L16.346 7.33631C16.0654 6.60996 15.3104 6.1753 14.5328 6.29237C13.5981 6.43309 12.9674 7.31136 13.1414 8.22996Z" stroke="#141B34" stroke-width="1.5" stroke-linecap="round"/>
</svg>
