<svg width="24" height="24" viewBox="0 0 24 24" fill="none" xmlns="http://www.w3.org/2000/svg">
<path d="M4.61785 16.9792L4.00367 17.4096L4.02138 17.4349L4.04111 17.4586L4.61785 16.9792ZM7.12903 20H7.87903V19.729L7.70578 19.5206L7.12903 20ZM3.00535 13.9372L2.25676 13.9831L3.00535 13.9372ZM3.06095 13.1756L3.79498 13.3295L3.06095 13.1756ZM18.6989 17.668L19.4018 17.9295V17.9295L18.6989 17.668ZM16.8636 20L16.319 19.4843L16.1136 19.7012V20H16.8636ZM4.04111 17.4586L6.55229 20.4794L7.70578 19.5206L5.19459 16.4998L4.04111 17.4586ZM5.23202 16.5487C4.7026 15.7934 4.33736 15.2708 4.09299 14.8372C3.85546 14.4157 3.76922 14.1404 3.75395 13.8913L2.25676 13.9831C2.29131 14.5464 2.49043 15.0488 2.78625 15.5737C3.07522 16.0864 3.49131 16.6786 4.00367 17.4096L5.23202 16.5487ZM3.75395 13.8913C3.74242 13.7033 3.75617 13.5146 3.79498 13.3295L2.32692 13.0216C2.26061 13.3377 2.237 13.6609 2.25676 13.9831L3.75395 13.8913ZM18.25 13.8347C18.25 14.852 18.2497 15.5808 18.2138 16.1572C18.1783 16.7276 18.1101 17.0996 17.996 17.4065L19.4018 17.9295C19.5888 17.427 19.6711 16.8903 19.7109 16.2504C19.7503 15.6165 19.75 14.8334 19.75 13.8347H18.25ZM7.36291 13.5V3.5H5.86291V13.5H7.36291ZM8.16129 2.75C8.62485 2.75 8.95968 3.10805 8.95968 3.5H10.4597C10.4597 2.23509 9.40803 1.25 8.16129 1.25V2.75ZM7.36291 3.5C7.36291 3.10805 7.69773 2.75 8.16129 2.75V1.25C6.91455 1.25 5.86291 2.23509 5.86291 3.5H7.36291ZM12.0565 9.5V12H13.5565V9.5H12.0565ZM15.1532 11V13H16.6532V11H15.1532ZM6.37903 20V22H7.87903V20H6.37903ZM17.996 17.4065C17.9718 17.4714 17.9013 17.6023 17.7636 17.7989C17.6333 17.9849 17.469 18.1934 17.2904 18.4064C16.9334 18.8321 16.5463 19.2443 16.319 19.4843L17.4082 20.5157C17.6379 20.2731 18.0517 19.833 18.4398 19.3702C18.6337 19.139 18.8279 18.8941 18.9923 18.6594C19.1492 18.4354 19.3093 18.1782 19.4018 17.9295L17.996 17.4065ZM16.1136 20V22H17.6136V20H16.1136ZM18.25 12.5V13.8347H19.75V12.5H18.25ZM3.79498 13.3295C3.92668 12.7016 4.37518 12.0678 5.0334 11.4035C5.35503 11.0789 5.70689 10.7662 6.06429 10.4567C6.41361 10.1541 6.78165 9.84351 7.09844 9.55121L6.08126 8.44879C5.7876 8.71975 5.45367 9.00116 5.08231 9.32275C4.71904 9.63735 4.33153 9.98076 3.9679 10.3477C3.25563 11.0665 2.55014 11.9573 2.32692 13.0216L3.79498 13.3295ZM8.95968 3.5V8H10.4597V3.5H8.95968ZM8.95968 8V11H10.4597V8H8.95968ZM9.70968 8.75H11.3065V7.25H9.70968V8.75ZM13.5565 9.5C13.5565 8.25736 12.5491 7.25 11.3065 7.25V8.75C11.7207 8.75 12.0565 9.08579 12.0565 9.5H13.5565ZM12.8065 10.25H14.4032V8.75H12.8065V10.25ZM16.6532 11C16.6532 9.75736 15.6459 8.75 14.4032 8.75V10.25C14.8174 10.25 15.1532 10.5858 15.1532 11H16.6532ZM17.5 10.25H15.9032V11.75H17.5V10.25ZM19.75 12.5C19.75 11.2574 18.7426 10.25 17.5 10.25V11.75C17.9142 11.75 18.25 12.0858 18.25 12.5H19.75Z" fill="#141B34"/>
<path d="M21 4.5L15 4.5M21 4.5L18.5 2M21 4.5L18.5 7" stroke="#141B34" stroke-width="1.5"/>
</svg>
