<svg width="24" height="24" viewBox="0 0 24 24" fill="none" xmlns="http://www.w3.org/2000/svg">
<path d="M18.3211 11.9618L17.7891 12.4905L18.3211 11.9618ZM17.9985 17.6892L18.6749 18.0131L18.6749 18.0131L17.9985 17.6892ZM16.8919 19.9973L16.2157 19.6729L16.1419 19.8267V19.9973H16.8919ZM8 14L7.45675 14.5171L8.75 15.8758V14H8ZM5.78341 11.6713L6.32666 11.1542L6.30439 11.1308L6.2802 11.1094L5.78341 11.6713ZM3.3775 14.0886L3.97541 13.6359L3.9711 13.6302L3.96668 13.6246L3.3775 14.0886ZM7.85181 19.9973H8.60181V19.7454L8.44972 19.5446L7.85181 19.9973ZM3.36948 11.9053L2.77682 11.4457L2.77682 11.4457L3.36948 11.9053ZM8 3.75H8.75H8ZM11.5 3.75H12.25H11.5ZM11.5 9.5H10.75V10.2841L11.5333 10.2493L11.5 9.5ZM17.7891 12.4905C18.2053 12.9093 18.3421 13.6569 18.1903 14.671C18.0439 15.6486 17.657 16.6658 17.322 17.3653L18.6749 18.0131C19.0471 17.2359 19.4975 16.0699 19.6737 14.8931C19.8445 13.7529 19.789 12.3751 18.8531 11.4332L17.7891 12.4905ZM17.322 17.3653C17.1309 17.7645 16.8543 18.3413 16.6255 18.8185C16.5111 19.0571 16.4086 19.2707 16.3348 19.4247C16.2978 19.5016 16.2681 19.5637 16.2475 19.6065C16.2372 19.6279 16.2293 19.6445 16.2239 19.6558C16.2212 19.6614 16.2191 19.6657 16.2178 19.6686C16.2171 19.67 16.2165 19.6711 16.2162 19.6718C16.216 19.6722 16.2159 19.6725 16.2158 19.6726C16.2158 19.6727 16.2157 19.6728 16.2157 19.6729C16.2157 19.6729 16.2157 19.6729 16.2157 19.6729C16.2157 19.6729 16.2157 19.6729 16.8919 19.9973C17.5681 20.3217 17.5681 20.3217 17.5681 20.3217C17.5681 20.3217 17.5681 20.3217 17.5681 20.3216C17.5681 20.3216 17.5682 20.3215 17.5682 20.3214C17.5683 20.3213 17.5684 20.321 17.5686 20.3206C17.569 20.3199 17.5695 20.3188 17.5702 20.3174C17.5716 20.3145 17.5736 20.3102 17.5763 20.3046C17.5817 20.2933 17.5897 20.2767 17.6 20.2553C17.6205 20.2125 17.6503 20.1504 17.6872 20.0734C17.7611 19.9194 17.8636 19.7057 17.978 19.4671C18.2068 18.9899 18.4835 18.4127 18.6749 18.0131L17.322 17.3653ZM8.54325 13.4829L6.32666 11.1542L5.24016 12.1883L7.45675 14.5171L8.54325 13.4829ZM2.77958 14.5414L7.25389 20.4501L8.44972 19.5446L3.97541 13.6359L2.77958 14.5414ZM2.77682 11.4457C2.07019 12.3568 2.07482 13.6468 2.78831 14.5527L3.96668 13.6246C3.67956 13.26 3.67752 12.7319 3.96214 12.3649L2.77682 11.4457ZM6.2802 11.1094C5.22827 10.1793 3.63524 10.3388 2.77682 11.4457L3.96214 12.3649C4.29514 11.9355 4.89049 11.8829 5.28661 12.2331L6.2802 11.1094ZM16.1419 19.9973V22H17.6419V19.9973H16.1419ZM7.25 3.75V14H8.75V3.75H7.25ZM10.75 3.75V9.5H12.25V3.75H10.75ZM11.5333 10.2493C13.1369 10.1779 15.8679 10.557 17.7891 12.4905L18.8531 11.4332C16.5111 9.07631 13.2796 8.67013 11.4667 8.75074L11.5333 10.2493ZM8.75 3.75C8.75 3.19772 9.19772 2.75 9.75 2.75V1.25C8.36929 1.25 7.25 2.36929 7.25 3.75H8.75ZM9.75 2.75C10.3023 2.75 10.75 3.19772 10.75 3.75H12.25C12.25 2.36929 11.1307 1.25 9.75 1.25V2.75ZM8.60181 22V19.9973H7.10181V22H8.60181Z" fill="#141B34"/>
<path d="M21 4.5L15 4.5M21 4.5L18.5 2M21 4.5L18.5 7" stroke="#141B34" stroke-width="1.5"/>
</svg>
