<svg width="24" height="24" viewBox="0 0 24 24" fill="none" xmlns="http://www.w3.org/2000/svg">
<path d="M7 13.5L6.47606 14.0366L7.75004 15.2805L7.75 13.5L7 13.5ZM6.99979 3.5H6.24979V3.50002L6.99979 3.5ZM18.6685 17.792L17.9681 17.524L18.6685 17.792ZM16.9996 20L16.4325 19.5091L16.2496 19.7205V20H16.9996ZM7 20H7.75V19.7505L7.60056 19.5507L7 20ZM4.8683 11.4188L5.39224 10.8821L5.37498 10.8653L5.35668 10.8496L4.8683 11.4188ZM2.38901 13.8362L2.98956 13.3869L2.98068 13.375L2.97133 13.3635L2.38901 13.8362ZM2.38075 11.6528L1.79486 11.1846L1.79486 11.1846L2.38075 11.6528ZM18.7282 11.6395L18.1139 12.0698L18.1139 12.0698L18.7282 11.6395ZM18.3601 11.2713L18.7903 10.657L18.7903 10.657L18.3601 11.2713ZM12.5607 8.91878L13.091 8.38845L13.091 8.38845L12.5607 8.91878ZM12.25 11.4794V12.5H13.75V11.4794H12.25ZM15.25 11V13H16.75V11H15.25ZM7.75 13.5L7.74979 3.49998L6.24979 3.50002L6.25 13.5L7.75 13.5ZM8.49979 2.75C8.914 2.75 9.24979 3.08579 9.24979 3.5H10.7498C10.7498 2.25736 9.74243 1.25 8.49979 1.25V2.75ZM7.74979 3.5C7.74979 3.08579 8.08558 2.75 8.49979 2.75V1.25C7.25715 1.25 6.24979 2.25736 6.24979 3.5H7.74979ZM18.2496 13.6668C18.2496 14.763 18.2492 15.5502 18.2097 16.1724C18.1706 16.7885 18.0952 17.1917 17.9681 17.524L19.369 18.06C19.5729 17.5271 19.6631 16.9544 19.7067 16.2675C19.7499 15.5868 19.7496 14.744 19.7496 13.6668H18.2496ZM17.9681 17.524C17.97 17.5189 17.9562 17.5521 17.9044 17.6355C17.8576 17.7109 17.7946 17.8039 17.7174 17.9114C17.5634 18.126 17.3703 18.3744 17.1774 18.6144C16.9856 18.853 16.799 19.0772 16.6599 19.2421C16.5905 19.3245 16.5333 19.3917 16.4936 19.4381C16.4737 19.4613 16.4582 19.4793 16.4478 19.4914C16.4426 19.4974 16.4387 19.502 16.4361 19.505C16.4348 19.5065 16.4339 19.5076 16.4333 19.5083C16.433 19.5086 16.4328 19.5089 16.4326 19.509C16.4326 19.5091 16.4325 19.5091 16.4325 19.5091C16.4325 19.5092 16.4325 19.5092 16.4325 19.5092C16.4325 19.5091 16.4325 19.5091 16.9996 20C17.5666 20.4909 17.5667 20.4908 17.5667 20.4908C17.5667 20.4908 17.5667 20.4907 17.5668 20.4907C17.5669 20.4906 17.5669 20.4905 17.5671 20.4904C17.5673 20.4901 17.5676 20.4897 17.568 20.4893C17.5688 20.4883 17.57 20.487 17.5715 20.4852C17.5745 20.4817 17.5789 20.4766 17.5846 20.4701C17.5959 20.4569 17.6124 20.4378 17.6333 20.4133C17.6751 20.3645 17.7347 20.2945 17.8068 20.209C17.9506 20.0383 18.1452 19.8046 18.3466 19.554C18.547 19.3047 18.7592 19.0324 18.936 18.7861C19.0943 18.5655 19.2811 18.2897 19.369 18.06L17.9681 17.524ZM16.2496 20V22.0002H17.7496V20H16.2496ZM6.25 20V22H7.75V20H6.25ZM7.52394 12.9634L5.39224 10.8821L4.34436 11.9554L6.47606 14.0366L7.52394 12.9634ZM1.78845 14.2854L6.39944 20.4493L7.60056 19.5507L2.98956 13.3869L1.78845 14.2854ZM1.79486 11.1846C1.06397 12.0991 1.06889 13.3998 1.80669 14.3088L2.97133 13.3635C2.678 13.0021 2.67603 12.4847 2.96663 12.1211L1.79486 11.1846ZM5.35668 10.8496C4.28832 9.93291 2.67365 10.085 1.79486 11.1846L2.96663 12.1211C3.3156 11.6844 3.95606 11.6243 4.37992 11.988L5.35668 10.8496ZM9.24979 3.5V8.47944H10.7498V3.5H9.24979ZM9.24979 8.47944V12H10.7498V8.47944H9.24979ZM13 10.25H14.5V8.75H13V10.25ZM16.3327 10.25H16V11.75H16.3327V10.25ZM14.5 10.25C14.9142 10.25 15.25 10.5858 15.25 11H16.75C16.75 9.75736 15.7426 8.75 14.5 8.75V10.25ZM19.7496 13.6668C19.7496 13.1364 19.7506 12.6801 19.7115 12.3099C19.6711 11.9263 19.5811 11.5499 19.3426 11.2093L18.1139 12.0698C18.1467 12.1166 18.1924 12.2072 18.2198 12.4671C18.2486 12.7404 18.2496 13.104 18.2496 13.6668H19.7496ZM16.3327 11.75C16.8956 11.75 17.2591 11.751 17.5324 11.7798C17.7924 11.8072 17.883 11.8529 17.9298 11.8857L18.7903 10.657C18.4497 10.4185 18.0732 10.3285 17.6897 10.2881C17.3195 10.249 16.8631 10.25 16.3327 10.25V11.75ZM19.3426 11.2093C19.1921 10.9944 19.0052 10.8075 18.7903 10.657L17.9298 11.8857C18.0014 11.9358 18.0637 11.9981 18.1139 12.0698L19.3426 11.2093ZM13.75 11.4794C13.75 10.7935 13.7516 10.2037 13.6884 9.73359C13.6223 9.24196 13.4732 8.77069 13.091 8.38845L12.0303 9.44911C12.0874 9.5062 12.158 9.60816 12.2018 9.93347C12.2484 10.2803 12.25 10.7511 12.25 11.4794H13.75ZM9.99979 9.22944C10.7282 9.22944 11.199 9.23103 11.5459 9.27767C11.8713 9.32141 11.9732 9.39203 12.0303 9.44911L13.091 8.38845C12.7087 8.00619 12.2374 7.85714 11.7458 7.79104C11.2757 7.72785 10.6858 7.72944 9.99979 7.72944V9.22944Z" fill="#141B34"/>
<path d="M22 4.5L16 4.5M22 4.5L19.5 2M22 4.5L19.5 7" stroke="#141B34" stroke-width="1.5"/>
</svg>
