<svg width="24" height="24" viewBox="0 0 24 24" fill="none" xmlns="http://www.w3.org/2000/svg">
<path d="M10.4119 14.8499L9.88266 15.3814L11.1619 16.6553L11.1619 14.8499L10.4119 14.8499ZM10.4117 6.34999H9.66169V6.35001L10.4117 6.34999ZM20.7079 18.7127L20.0057 18.4492L20.7079 18.7127ZM19.2353 20.6999L18.6634 20.2146L18.4853 20.4245L18.4853 20.6998L19.2353 20.6999ZM10.4119 20.6999L11.1619 20.7L11.1619 20.4544L11.0166 20.2563L10.4119 20.6999ZM8.53091 12.9768L9.06013 12.4454L9.04302 12.4283L9.02484 12.4124L8.53091 12.9768ZM6.34325 15.1525L6.94803 14.7089L6.9393 14.697L6.93011 14.6855L6.34325 15.1525ZM6.33596 13.1875L5.7456 12.7249L5.7456 12.7249L6.33596 13.1875ZM20.7606 13.1755L20.1423 13.6L20.1423 13.6L20.7606 13.1755ZM20.4357 12.8441L20.8716 12.2339L20.8716 12.2339L20.4357 12.8441ZM15.3185 10.7268L15.854 10.2018L15.3185 10.7268ZM14.9561 13.0314V13.9499H16.4561V13.0314H14.9561ZM17.6032 12.5999V14.3999H19.1032V12.5999H17.6032ZM11.1619 14.8499L11.1617 6.34997L9.66169 6.35001L9.66187 14.8499L11.1619 14.8499ZM11.7353 5.75C12.0381 5.75 12.3088 6.00458 12.3088 6.34999H13.8088C13.8088 5.20424 12.8944 4.25 11.7353 4.25V5.75ZM11.1617 6.34999C11.1617 6.00458 11.4324 5.75 11.7353 5.75V4.25C10.5761 4.25 9.66169 5.20424 9.66169 6.34999H11.1617ZM20.25 15.0001C20.25 15.9874 20.2497 16.6937 20.2149 17.2513C20.1806 17.803 20.1146 18.1588 20.0057 18.4492L21.4101 18.9761C21.5933 18.4879 21.6734 17.9654 21.712 17.3445C21.7503 16.7295 21.75 15.9687 21.75 15.0001H20.25ZM20.0057 18.4492C20.0096 18.4387 20.0002 18.4641 19.9552 18.5379C19.9151 18.6039 19.8605 18.6862 19.793 18.7821C19.6581 18.9737 19.4887 19.196 19.3189 19.4115C19.1502 19.6256 18.9859 19.8269 18.8634 19.9751C18.8023 20.049 18.752 20.1093 18.717 20.151C18.6995 20.1718 18.6859 20.1879 18.6768 20.1987C18.6722 20.2041 18.6688 20.2082 18.6665 20.2109C18.6654 20.2122 18.6646 20.2132 18.6641 20.2138C18.6638 20.2141 18.6636 20.2143 18.6635 20.2145C18.6635 20.2145 18.6634 20.2146 18.6634 20.2146C18.6634 20.2146 18.6634 20.2146 18.6634 20.2146C18.6634 20.2146 18.6634 20.2146 19.2353 20.6999C19.8071 21.1852 19.8071 21.1851 19.8071 21.1851C19.8071 21.1851 19.8072 21.185 19.8072 21.185C19.8073 21.1849 19.8074 21.1848 19.8075 21.1847C19.8077 21.1845 19.808 21.1841 19.8083 21.1837C19.8091 21.1828 19.8101 21.1816 19.8114 21.18C19.8141 21.1768 19.818 21.1722 19.823 21.1663C19.8331 21.1544 19.8477 21.1371 19.8662 21.115C19.9031 21.071 19.9559 21.0078 20.0196 20.9307C20.1468 20.7768 20.3189 20.566 20.4971 20.3398C20.6743 20.115 20.8625 19.8687 21.0196 19.6454C21.1588 19.4476 21.329 19.1923 21.4101 18.9761L20.0057 18.4492ZM18.4853 20.6998L18.4851 22L19.9851 22.0003L19.9853 20.7L18.4853 20.6998ZM9.66187 20.6998L9.66169 21.9999L11.1617 22.0001L11.1619 20.7L9.66187 20.6998ZM10.9411 14.3185L9.06013 12.4454L8.0017 13.5083L9.88266 15.3814L10.9411 14.3185ZM5.73847 15.596L9.8071 21.1434L11.0166 20.2563L6.94803 14.7089L5.73847 15.596ZM5.7456 12.7249C5.08083 13.5733 5.08522 14.776 5.75639 15.6195L6.93011 14.6855C6.69144 14.3855 6.68976 13.952 6.92633 13.65L5.7456 12.7249ZM9.02484 12.4124C8.04052 11.551 6.55077 11.6973 5.7456 12.7249L6.92632 13.65C7.20449 13.295 7.70461 13.2503 8.03699 13.5412L9.02484 12.4124ZM12.3088 6.34999V10.3314H13.8088V6.34999H12.3088ZM12.3088 10.3314V13.4999H13.8088V10.3314H12.3088ZM15.7061 11.9999H17.0297V10.4999H15.7061V11.9999ZM18.6469 11.8499H18.3532V13.3499H18.6469V11.8499ZM17.0297 11.9999C17.3325 11.9999 17.6032 12.2545 17.6032 12.5999H19.1032C19.1032 11.4542 18.1888 10.4999 17.0297 10.4999V11.9999ZM21.75 15.0001C21.75 14.524 21.7509 14.1096 21.7161 13.7725C21.68 13.4228 21.5989 13.0715 21.3789 12.751L20.1423 13.6C20.1617 13.6283 20.2003 13.6972 20.224 13.9267C20.2491 14.1687 20.25 14.4922 20.25 15.0001H21.75ZM18.6469 13.3499C19.1457 13.3499 19.4601 13.3509 19.6946 13.3762C19.9149 13.3998 19.9764 13.4377 19.9998 13.4544L20.8716 12.2339C20.5531 12.0063 20.2025 11.9221 19.855 11.8848C19.5217 11.8489 19.1126 11.8499 18.6469 11.8499V13.3499ZM21.3789 12.751C21.2412 12.5505 21.0697 12.3753 20.8716 12.2339L19.9997 13.4544C20.0545 13.4936 20.1029 13.5427 20.1423 13.6L21.3789 12.751ZM16.4561 13.0314C16.4561 12.4158 16.4577 11.8801 16.4012 11.4521C16.3422 11.004 16.2078 10.5626 15.854 10.2018L14.7829 11.2519C14.8168 11.2865 14.8762 11.361 14.9141 11.6481C14.9546 11.9553 14.9561 12.3742 14.9561 13.0314H16.4561ZM13.0588 11.0814C13.7044 11.0814 14.1117 11.0831 14.4094 11.1239C14.6839 11.1616 14.751 11.2194 14.7829 11.2519L15.854 10.2018C15.4982 9.83889 15.0595 9.69903 14.6131 9.63782C14.1899 9.57979 13.6612 9.58145 13.0588 9.58145V11.0814Z" fill="#141B34"/>
<path d="M7.5 8H3V2H20V8H16" stroke="#141B34" stroke-width="1.5" stroke-linejoin="round"/>
</svg>
