<svg width="24" height="24" viewBox="0 0 24 24" fill="none" xmlns="http://www.w3.org/2000/svg">
<path fill-rule="evenodd" clip-rule="evenodd" d="M2 7C2 6.44772 2.44772 6 3 6H6V8H4V21H20V8H18V6H21C21.5523 6 22 6.44772 22 7V22C22 22.5523 21.5523 23 21 23H3C2.44772 23 2 22.5523 2 22V7Z" fill="#141B34"/>
<path fill-rule="evenodd" clip-rule="evenodd" d="M8.29297 4.70711L12.0001 1L15.7072 4.70711L14.293 6.12132L13.0001 4.82843L13.0001 14.4142L11.0001 14.4142L11.0001 4.82843L9.70718 6.12132L8.29297 4.70711Z" fill="#141B34"/>
</svg>
