<svg width="24" height="24" viewBox="0 0 24 24" fill="none" xmlns="http://www.w3.org/2000/svg">
<path fill-rule="evenodd" clip-rule="evenodd" d="M6.29277 17.707C5.90225 17.3165 5.90225 16.6833 6.29277 16.2928L17.2928 5.29277C17.6833 4.90225 18.3165 4.90225 18.707 5.29277C19.0975 5.6833 19.0975 6.31646 18.707 6.70698L7.70698 17.707C7.31646 18.0975 6.6833 18.0975 6.29277 17.707Z" fill="#141B34"/>
<path d="M6.75546 18.7103C6.47477 18.6284 6.09336 18.4848 5.80425 18.1957C5.51514 17.9066 5.37153 17.5252 5.28961 17.2445C5.19905 16.9341 5.13928 16.5831 5.09806 16.23C5.01532 15.5213 4.99474 14.6894 5.00081 13.9159C5.00692 13.1364 5.04044 12.3879 5.07219 11.8363C5.0881 11.5598 5.10366 11.3314 5.11528 11.1714C5.12105 11.0921 5.13127 10.9625 5.13478 10.9179L5.13488 10.9167C5.18128 10.3664 5.66507 9.95726 6.2154 10.0037C6.7657 10.0501 7.17421 10.5337 7.12786 11.084C7.12475 11.1236 7.11552 11.2407 7.11002 11.3163C7.09902 11.4678 7.08414 11.6861 7.06888 11.9512C7.0383 12.4826 7.00651 13.1959 7.00074 13.9316C6.99493 14.6733 7.01592 15.4101 7.08457 15.9981C7.11904 16.2934 7.18826 16.6032 7.23536 16.7646C7.39675 16.8117 7.70651 16.8809 8.00181 16.9154C8.58983 16.984 9.32664 17.005 10.0684 16.9992C10.8041 16.9934 11.5174 16.9617 12.0488 16.9311C12.3138 16.9158 12.5322 16.901 12.6836 16.89C12.7593 16.8845 12.8759 16.8753 12.9154 16.8722C13.4657 16.8258 13.9499 17.2343 13.9963 17.7846C14.0427 18.3349 13.6342 18.8187 13.0838 18.8651L13.0815 18.8652C13.036 18.8688 12.9072 18.879 12.8286 18.8847C12.6686 18.8963 12.4401 18.9119 12.1637 18.9278C11.612 18.9595 10.8635 18.993 10.084 18.9991C9.31048 19.0052 8.4786 18.9846 7.76988 18.9019C7.41681 18.8606 7.06579 18.8009 6.75546 18.7103Z" fill="#141B34"/>
</svg>
