<svg width="24" height="24" viewBox="0 0 24 24" fill="none" xmlns="http://www.w3.org/2000/svg">
<path fill-rule="evenodd" clip-rule="evenodd" d="M12.0013 20.875C11.4766 20.875 11.082 20.6067 10.7754 20.3138C10.4898 20.041 10.1517 19.6117 9.80769 19.175L9.00906 18.1612C8.42409 17.4187 7.93443 16.7971 7.6343 16.2799C7.33243 15.7596 7.08717 15.1199 7.38082 14.4567C7.68248 13.7754 8.33459 13.5533 8.92138 13.4631C9.45861 13.3806 10.1673 13.3753 11.0006 13.375V4.125C11.0006 3.57272 11.4483 3.125 12.0006 3.125C12.5529 3.125 13.0006 3.57272 13.0006 4.125V13.375C13.8337 13.3753 14.5422 13.3806 15.0793 13.4631C15.6661 13.5533 16.3183 13.7754 16.6199 14.4567C16.9136 15.1199 16.6683 15.7596 16.3664 16.2799C16.0663 16.7971 15.5767 17.4187 14.9917 18.1612L14.193 19.175C13.849 19.6117 13.5109 20.041 13.2254 20.3138C12.9187 20.6067 12.526 20.875 12.0013 20.875Z" fill="#141B34"/>
</svg>
