<svg width="24" height="24" viewBox="0 0 24 24" fill="none" xmlns="http://www.w3.org/2000/svg">
<path fill-rule="evenodd" clip-rule="evenodd" d="M1.24979 12C1.24979 17.9371 6.06273 22.75 11.9998 22.75C17.9368 22.75 22.7498 17.9371 22.7498 12C22.7498 6.06294 17.9368 1.25 11.9998 1.25C6.06272 1.25 1.24979 6.06294 1.24979 12ZM10.2855 6.49903C9.73322 6.49903 9.28551 6.94675 9.28551 7.49903L9.28551 13.4349L7.99979 13.4349C7.75987 13.4348 7.51916 13.5206 7.32755 13.6946C6.91868 14.0658 6.88819 14.6983 7.25947 15.1071L8.60408 16.5879C8.78025 16.7822 8.97886 17.0011 9.16118 17.1522C9.30933 17.2749 9.85221 17.6995 10.5242 17.393C11.1426 17.1109 11.2317 16.4813 11.2553 16.2976C11.2857 16.0607 11.2856 15.7613 11.2855 15.4822L11.2855 7.49903C11.2855 6.94675 10.8378 6.49903 10.2855 6.49903ZM16.672 10.3035C17.0809 9.93224 17.1114 9.29981 16.7401 8.89094L15.3955 7.41012L15.3955 7.41009C15.2193 7.21587 15.0207 6.99692 14.8384 6.84589C14.6903 6.72316 14.1474 6.29859 13.4754 6.60511C12.857 6.88721 12.7679 7.51677 12.7443 7.70044C12.7138 7.9374 12.714 8.2368 12.7141 8.51588L12.7141 16.499C12.7141 17.0513 13.1618 17.499 13.7141 17.499C14.2664 17.499 14.7141 17.0513 14.7141 16.499L14.7141 10.5632L15.9998 10.5632C16.2397 10.5633 16.4804 10.4775 16.672 10.3035Z" fill="#141B34"/>
</svg>
