<svg width="24" height="24" viewBox="0 0 24 24" fill="none" xmlns="http://www.w3.org/2000/svg">
<path fill-rule="evenodd" clip-rule="evenodd" d="M12 1.25C17.9371 1.25 22.75 6.06294 22.75 12C22.75 17.9371 17.9371 22.75 12 22.75C6.06294 22.75 1.25 17.9371 1.25 12C1.25 6.06294 6.06294 1.25 12 1.25ZM10.2653 6.64943C9.79552 6.28193 9.11675 6.36487 8.74926 6.83468L7.83391 8.00487C7.68792 8.1915 7.53148 8.4111 7.42571 8.6436C7.33423 8.84471 7.16075 9.31635 7.40402 9.82564C7.64947 10.3395 8.1303 10.4986 8.34799 10.5521C8.59725 10.6134 8.86714 10.6255 9.10266 10.6255H14.3999C14.6702 10.6255 14.7935 10.6589 14.8394 10.6774C14.8515 10.7067 14.8702 10.7671 14.886 10.8826C14.8912 10.9207 14.8959 10.947 14.9001 10.9701C14.9126 11.04 14.9199 11.0806 14.9199 11.3291C14.9199 11.9256 15.4035 12.4091 15.9999 12.4091C16.5964 12.4091 17.0799 11.9256 17.0799 11.3291C17.0799 10.7379 17.07 10.1736 16.6667 9.52105C16.1658 8.71077 15.3033 8.46555 14.3999 8.46555H10.6799V7.51486C10.6841 7.1901 10.5418 6.86571 10.2653 6.64943ZM9.07992 12.4091C9.07992 11.8126 8.59639 11.3291 7.99992 11.3291C7.40345 11.3291 6.91992 11.8126 6.91992 12.4091C6.91992 13.0003 6.92983 13.8265 7.33317 14.4791C7.83401 15.2893 8.69653 15.5346 9.59992 15.5346H13.32V16.4853C13.3157 16.81 13.458 17.1344 13.7345 17.3507C14.2043 17.7182 14.8831 17.6352 15.2506 17.1654L16.1659 15.9952C16.3119 15.8086 16.4684 15.589 16.5741 15.3565C16.6656 15.1554 16.8391 14.6838 16.5958 14.1745C16.3504 13.6606 15.8695 13.5015 15.6518 13.448C15.4026 13.3867 15.1327 13.3746 14.8972 13.3746L9.59992 13.3746C9.32966 13.3746 9.20636 13.3412 9.16043 13.3227C9.14835 13.2935 9.12969 13.233 9.11385 13.1175C9.09283 12.9642 9.07992 12.7399 9.07992 12.4091Z" fill="#141B34"/>
</svg>
