<svg width="24" height="24" viewBox="0 0 24 24" fill="none" xmlns="http://www.w3.org/2000/svg">
<path d="M13.9597 6C13.3837 6 12.9527 6.45186 12.9527 6.96543V17.0845C12.9527 18.7143 11.6094 20 9.99662 20C8.38387 20 7.04057 18.7143 7.04057 17.0845V15C7.04057 13.7121 6.19829 12.594 4.99997 12.1756L4.99997 12.6604L5.00002 12.6773C5.00028 12.7425 5.00085 12.8881 4.98178 13.0191C4.96083 13.1629 4.86815 13.6413 4.38238 13.8867C3.89916 14.1307 3.47955 13.9156 3.35424 13.8428C3.24239 13.7777 3.13171 13.6875 3.08279 13.6476L3.08278 13.6476L3.07014 13.6374C2.78002 13.403 2.32764 13.0247 1.94033 12.6413C1.74896 12.4518 1.54905 12.2373 1.38966 12.0215C1.31003 11.9137 1.22382 11.7833 1.15383 11.6376C1.08992 11.5045 0.999987 11.2785 0.999985 11C0.999982 10.7215 1.08991 10.4955 1.15383 10.3624C1.22382 10.2167 1.31003 10.0863 1.38966 9.97847C1.54905 9.76266 1.74897 9.54814 1.94034 9.3587C2.32766 8.97529 2.78004 8.59702 3.07017 8.36263L3.0828 8.35236L3.08281 8.35236C3.13173 8.31249 3.24242 8.22229 3.35426 8.15724C3.47958 8.08436 3.89919 7.8693 4.38241 8.11335C4.86817 8.35869 4.96085 8.83714 4.9818 8.98095C5.00087 9.1119 5.00029 9.25755 5.00003 9.32275L4.99998 9.33964L4.99998 10.1059C7.29515 10.578 9.04057 12.5754 9.04057 15V17.0845C9.04057 17.5705 9.44878 18 9.99662 18C10.5445 18 10.9527 17.5705 10.9527 17.0845V6.96543C10.9527 5.30804 12.3188 4 13.9597 4C15.6005 4 16.9667 5.30804 16.9667 6.96543V9C16.9667 10.2853 17.8056 11.4015 19 11.8219L19 11.3396L19 11.3227C18.9997 11.2575 18.9991 11.1119 19.0182 10.981C19.0392 10.8371 19.1318 10.3587 19.6176 10.1133C20.1008 9.8693 20.5204 10.0844 20.6457 10.1572C20.7576 10.2223 20.8683 10.3125 20.9172 10.3524L20.9298 10.3626C21.22 10.597 21.6723 10.9753 22.0597 11.3587C22.251 11.5481 22.451 11.7627 22.6103 11.9785C22.69 12.0863 22.7762 12.2167 22.8462 12.3624C22.9101 12.4955 23 12.7215 23 13C23 13.2785 22.9101 13.5045 22.8462 13.6376C22.7762 13.7833 22.69 13.9137 22.6103 14.0215C22.451 14.2373 22.251 14.4518 22.0597 14.6413C21.6724 15.0247 21.22 15.403 20.9299 15.6374L20.9172 15.6476C20.8683 15.6875 20.7576 15.7777 20.6458 15.8428C20.5205 15.9156 20.1008 16.1307 19.6176 15.8867C19.1319 15.6413 19.0392 15.1629 19.0182 15.0191C18.9992 14.8881 18.9997 14.7425 19 14.6773V14.6773L19 14.6604L19 13.8927C16.7084 13.4178 14.9667 11.4221 14.9667 9V6.96543C14.9667 6.45186 14.5356 6 13.9597 6Z" fill="#141B34"/>
</svg>
