<svg width="24" height="25" viewBox="0 0 24 25" fill="none" xmlns="http://www.w3.org/2000/svg">
<path fill-rule="evenodd" clip-rule="evenodd" d="M7 1.75C3.82436 1.75 1.25 4.32436 1.25 7.5C1.25 9.47049 2.24152 11.2086 3.75 12.244L3.74992 18.464C3.74925 19.1626 3.74872 19.7155 3.95933 20.224C4.16994 20.7324 4.56127 21.123 5.05573 21.6165L6.46967 23.0303C6.76256 23.3232 7.23744 23.3232 7.53033 23.0303L9.63852 20.9221L9.65768 20.903C9.73549 20.8254 9.8185 20.7425 9.8902 20.6487C10.0755 20.4063 10.1943 20.1197 10.2346 19.8172C10.2502 19.7002 10.2501 19.534 10.25 19.4241C10.2501 19.3349 10.2502 19.2396 10.2397 19.1436C10.2126 18.8955 10.1328 18.6561 10.0056 18.4413C9.95635 18.3582 9.89913 18.282 9.84556 18.2107L9.84555 18.2107L8.9375 17L9.35833 16.439C9.69822 15.9865 9.96691 15.6289 10.1089 15.203C10.2508 14.7771 10.2505 14.3297 10.2501 13.7638L10.25 12.244C11.7585 11.2086 12.75 9.47049 12.75 7.5C12.75 4.32436 10.1756 1.75 7 1.75ZM6.99329 6C6.16857 6 5.5 6.67157 5.5 7.5C5.5 8.32843 6.16857 9 6.99329 9H7.00671C7.83143 9 8.5 8.32843 8.5 7.5C8.5 6.67157 7.83143 6 7.00671 6H6.99329Z" fill="#141B34"/>
<path d="M13.7959 11.2269C13.5289 11.7126 13.3955 11.9555 13.4826 12.1027C13.5697 12.25 13.8295 12.25 14.349 12.25L19.0251 12.25C19.4695 12.25 19.8406 12.25 20.1452 12.2292C20.4623 12.2076 20.7618 12.161 21.0522 12.0407C21.726 11.7616 22.2614 11.2262 22.5405 10.5524C22.6608 10.262 22.7074 9.96247 22.729 9.64537C22.7498 9.34076 22.7498 8.96974 22.7498 8.5253V8.47474C22.7498 8.0303 22.7498 7.65924 22.729 7.35464C22.7074 7.03754 22.6608 6.73801 22.5405 6.44762C22.2614 5.7738 21.726 5.23844 21.0522 4.95933C20.7618 4.83905 20.4623 4.79241 20.1452 4.77077C19.8406 4.74999 19.4696 4.74999 19.0251 4.75L15.1172 4.75C14.7308 4.75 14.5377 4.75 14.4476 4.86594C14.3575 4.98188 14.4082 5.1808 14.5097 5.57864C14.6664 6.19304 14.7497 6.83679 14.7497 7.49999C14.7497 8.85157 14.4032 10.1217 13.7959 11.2269Z" fill="#141B34"/>
<path d="M19.0253 13.75C19.4698 13.75 19.8408 13.75 20.1454 13.7708C20.4625 13.7924 20.762 13.8391 21.0524 13.9593C21.7262 14.2384 22.2616 14.7738 22.5407 15.4476C22.661 15.738 22.7076 16.0375 22.7292 16.3546C22.75 16.6592 22.75 17.0304 22.75 17.4747V17.5254C22.75 17.9698 22.75 18.3408 22.7292 18.6454C22.7076 18.9625 22.661 19.262 22.5407 19.5524C22.2616 20.2262 21.7262 20.7616 21.0524 21.0407C20.762 21.161 20.4625 21.2076 20.1454 21.2292C19.8408 21.25 19.4697 21.25 19.0253 21.25L12.85 21.25C12.5672 21.25 12.4257 21.25 12.3379 21.1621C12.25 21.0743 12.25 20.9328 12.25 20.65V14.35C12.25 14.0672 12.25 13.9257 12.3379 13.8379C12.4257 13.75 12.5672 13.75 12.85 13.75L19.0253 13.75Z" fill="#141B34"/>
</svg>
