<svg width="24" height="25" viewBox="0 0 24 25" fill="none" xmlns="http://www.w3.org/2000/svg">
<path fill-rule="evenodd" clip-rule="evenodd" d="M2 22.25C2 21.6977 2.44772 21.25 3 21.25H21C21.5523 21.25 22 21.6977 22 22.25C22 22.8023 21.5523 23.25 21 23.25H3C2.44772 23.25 2 22.8023 2 22.25Z" fill="#141B34"/>
<path fill-rule="evenodd" clip-rule="evenodd" d="M8.57143 1.75C7.6119 1.75 6.79673 1.79303 6.12 1.92311C5.43987 2.05384 4.84449 2.28249 4.37355 2.69457C3.42216 3.52703 3.25 4.86476 3.25 6.5V22.5C3.25 22.9142 3.58579 23.25 4 23.25H20C20.4142 23.25 20.75 22.9142 20.75 22.5V6.5C20.75 4.86477 20.5778 3.52703 19.6264 2.69457C19.1555 2.2825 18.5601 2.05384 17.88 1.92311C17.2033 1.79303 16.3881 1.75 15.4286 1.75H8.57143ZM9.32143 9.89C9.32143 8.41776 10.535 7.25 12 7.25C13.465 7.25 14.6786 8.41776 14.6786 9.89V11.4775C15.3401 12.1408 15.75 13.0503 15.75 14.06C15.75 16.1121 14.0567 17.75 12 17.75C9.94329 17.75 8.25 16.1121 8.25 14.06C8.25 13.0503 8.65995 12.1408 9.32143 11.4775V9.89ZM10.8214 10.5564C11.1927 10.4354 11.5891 10.37 12 10.37C12.4109 10.37 12.8073 10.4354 13.1786 10.5564V9.89C13.1786 9.27461 12.6653 8.75 12 8.75C11.3347 8.75 10.8214 9.27461 10.8214 9.89V10.5564Z" fill="#141B34"/>
</svg>
