<svg width="24" height="25" viewBox="0 0 24 25" fill="none" xmlns="http://www.w3.org/2000/svg">
<path fill-rule="evenodd" clip-rule="evenodd" d="M1.29289 1.79289C1.68342 1.40237 2.31658 1.40237 2.70711 1.79289L22.7071 21.7929C23.0976 22.1834 23.0976 22.8166 22.7071 23.2071C22.3166 23.5976 21.6834 23.5976 21.2929 23.2071L1.29289 3.20711C0.902369 2.81658 0.902369 2.18342 1.29289 1.79289Z" fill="#141B34"/>
<path d="M7.75783 2.93555C8.94996 2.31794 10.3168 1.75 11.9981 1.75C13.6794 1.75 15.0467 2.31795 16.2395 2.93554C16.5998 3.12209 16.9345 3.30664 17.2544 3.48299L17.2546 3.48309C18.0376 3.91479 18.7317 4.29744 19.4937 4.54044C19.9409 4.68307 20.3371 4.80941 20.618 4.91946C20.8825 5.02304 21.1967 5.16499 21.4197 5.41278C21.6201 5.63537 21.723 5.88529 21.7912 6.12434C21.8532 6.34133 21.9061 6.63515 21.9569 6.917C22.5898 10.4259 22.1928 13.8404 20.7709 16.6784C20.614 16.9915 20.5356 17.148 20.3841 17.1725C20.2326 17.197 20.1046 17.0691 19.8487 16.8131L7.1627 4.12717C6.90319 3.86766 6.77343 3.73791 6.79517 3.58892C6.81691 3.43994 6.97738 3.35318 7.29832 3.17967C7.45859 3.09302 7.61727 3.00837 7.75783 2.93555Z" fill="#141B34"/>
<path d="M13.8807 22.8179C13.2309 23.0667 12.7524 23.25 12.0014 23.25C11.2503 23.25 10.7718 23.0667 10.122 22.8179C3.51154 20.287 0.804551 13.7827 2.04249 6.91705C2.09328 6.63523 2.14621 6.34148 2.20814 6.1245C2.27636 5.88547 2.37925 5.63558 2.57954 5.41299C2.8025 5.1652 3.11675 5.02321 3.38117 4.9196C3.50255 4.87203 3.64546 4.82142 3.8047 4.76776C3.97205 4.71137 4.05572 4.68318 4.13895 4.70269C4.22218 4.72219 4.28566 4.78567 4.41262 4.91263L18.5109 19.0109C18.703 19.203 18.7991 19.2991 18.7995 19.4227C18.7999 19.5464 18.7077 19.6399 18.5233 19.8269C17.2841 21.0838 15.7363 22.1074 13.8807 22.8179Z" fill="#141B34"/>
</svg>
