<svg width="24" height="24" viewBox="0 0 24 24" fill="none" xmlns="http://www.w3.org/2000/svg">
<path opacity="0.4" d="M16.502 16.7508C16.858 16.7543 17.5102 16.7602 17.9372 16.6732C18.4904 16.5605 19.0728 16.2801 19.4505 15.6258C19.6279 15.3186 19.6939 14.9926 19.7238 14.6634C19.752 14.3522 19.752 13.9728 19.752 13.533V12.4686C19.752 12.0288 19.752 11.6494 19.7238 11.3381C19.6939 11.009 19.6279 10.683 19.4505 10.3758C19.0728 9.72153 18.4904 9.44104 17.9372 9.32837C17.5102 9.24141 16.858 9.24728 16.502 9.25079C16.1459 9.24728 15.4937 9.24141 15.0667 9.32837C14.5135 9.44104 13.9311 9.72153 13.5534 10.3758C13.376 10.683 13.31 11.009 13.2801 11.3381C13.2519 11.6494 13.2519 12.0288 13.252 12.4685V12.4686V13.533V13.5331C13.2519 13.9728 13.2519 14.3522 13.2801 14.6634C13.31 14.9926 13.376 15.3186 13.5534 15.6258C13.9311 16.2801 14.5135 16.5605 15.0667 16.6732C15.4937 16.7602 16.1459 16.7543 16.502 16.7508Z" fill="#141B34"/>
<path opacity="0.4" d="M7.50196 16.7508C7.85802 16.7543 8.51023 16.7602 8.93719 16.6732C9.49038 16.5605 10.0728 16.2801 10.4505 15.6258C10.6279 15.3186 10.6939 14.9926 10.7238 14.6634C10.752 14.3522 10.752 13.9728 10.752 13.533L10.752 6.46857C10.752 6.02878 10.752 5.64944 10.7238 5.33814C10.6939 5.00896 10.6279 4.68301 10.4505 4.37579C10.0728 3.72153 9.49038 3.44104 8.93718 3.32837C8.51023 3.24141 7.85802 3.24728 7.50195 3.25079C7.14588 3.24728 6.49368 3.24141 6.06672 3.32837C5.51353 3.44104 4.93114 3.72153 4.5534 4.37579C4.37603 4.68301 4.30997 5.00896 4.28014 5.33814C4.25192 5.64943 4.25194 6.02876 4.25195 6.46854V6.46857V13.533V13.5331C4.25194 13.9728 4.25192 14.3522 4.28014 14.6634C4.30997 14.9926 4.37603 15.3186 4.5534 15.6258C4.93114 16.2801 5.51353 16.5605 6.06672 16.6732C6.49368 16.7602 7.14589 16.7543 7.50196 16.7508Z" fill="#141B34"/>
<path fill-rule="evenodd" clip-rule="evenodd" d="M23 19.7507C23 20.303 22.5523 20.7507 22 20.7507L2 20.7507C1.44771 20.7507 1 20.303 1 19.7507C1 19.1984 1.44771 18.7507 2 18.7507L22 18.7507C22.5523 18.7507 23 19.1984 23 19.7507Z" fill="#141B34"/>
</svg>
