<svg width="24" height="24" viewBox="0 0 24 24" fill="none" xmlns="http://www.w3.org/2000/svg">
<path opacity="0.4" d="M11.5146 2.14254C11.0411 1.85839 10.4268 2.01195 10.1427 2.48553C9.85851 2.95911 10.0121 3.57337 10.4857 3.85752C10.8925 4.10164 11.2608 4.50334 11.5466 5.00002L6.90713 4.99992C6.53841 4.99931 6.176 4.9987 5.85316 5.08521C4.99043 5.31638 4.31656 5.99025 4.08539 6.85298C3.99889 7.17582 3.99959 7.6313 4.00021 8.00002C4.00021 8.55231 4.44792 9.00002 5.00021 9.00002C5.55249 9.00002 6.00021 8.55231 6.00021 8.00002C6.00021 7.75847 6.01213 7.48264 6.01724 7.37061C6.06348 7.19807 6.19825 7.06329 6.3708 7.01706C6.3708 7.01706 6.75865 7.00002 7.00021 7.00002H17.0002C17.2418 7.00002 17.5176 7.01195 17.6296 7.01706C17.8022 7.06329 17.9369 7.19807 17.9832 7.37061C17.9832 7.37061 18.0002 7.75847 18.0002 8.00002C18.0002 8.55231 18.4479 9.00002 19.0002 9.00002C19.5525 9.00002 20.0002 8.55231 20.0002 8.00002C20.0008 7.6313 20.0015 7.17582 19.915 6.85298C19.6839 5.99025 19.01 5.31638 18.1473 5.08521C17.8244 4.9987 17.462 4.99931 17.0933 4.99992L13.7433 5.00002C13.3239 3.85421 12.5722 2.77706 11.5146 2.14254Z" fill="#141B34"/>
<path d="M13.7628 9.99995C13.5724 10.2004 12.7723 11.0217 12.5973 11.1952C12.1873 11.667 11.8242 12.0848 11.6308 12.6236C11.5866 12.7466 11.5528 12.8718 11.527 12.9999L7 12.9999C6.44772 12.9999 6 13.4477 6 13.9999C6 14.5522 6.44772 14.9999 7 14.9999L11.4432 14.9999L11.4433 18.075C11.4433 18.7231 11.2577 19.2127 11.0009 19.521C10.7593 19.811 10.4097 20 9.90833 20C9.35604 20 8.90833 20.4477 8.90833 21C8.90833 21.5522 9.35604 22 9.90833 22C10.9895 22 11.9073 21.5578 12.5377 20.801C13.1527 20.0625 13.4433 19.0895 13.4433 18.075V14.9999L18 14.9999C18.5523 14.9999 19 14.5522 19 13.9999C19 13.4477 18.5523 12.9999 18 12.9999L13.6957 12.9999C13.793 12.8744 13.9445 12.6947 14.189 12.4126C14.4116 12.1919 15.1111 11.4904 15.377 11.2021C15.6369 10.9204 15.9141 10.5982 16.1189 10.291C16.22 10.1394 16.3291 9.95372 16.4034 9.75153C16.4678 9.57649 16.5707 9.21826 16.4287 8.82258C16.2102 8.21397 15.655 8.07069 15.4245 8.03307C15.218 7.99938 14.9685 7.99969 14.7794 7.99992L8.5 7.99995C7.94772 7.99995 7.5 8.44767 7.5 8.99995C7.5 9.55224 7.94772 9.99995 8.5 9.99995H13.7628Z" fill="#141B34"/>
</svg>
