<svg width="24" height="24" viewBox="0 0 24 24" fill="none" xmlns="http://www.w3.org/2000/svg">
<path opacity="0.4" fill-rule="evenodd" clip-rule="evenodd" d="M20.7071 3.29289C21.0976 3.68342 21.0976 4.31658 20.7071 4.70711L4.70711 20.7071C4.31658 21.0976 3.68342 21.0976 3.29289 20.7071C2.90237 20.3166 2.90237 19.6834 3.29289 19.2929L19.2929 3.29289C19.6834 2.90237 20.3166 2.90237 20.7071 3.29289Z" fill="#141B34"/>
<path d="M21.5893 2.41177C21.9004 2.72316 21.974 3.09473 21.9931 3.34597C22.009 3.55448 21.9935 3.79621 21.9806 3.99607L21.7856 7.06325C21.7607 7.4555 21.5083 7.79676 21.1406 7.93547C20.7728 8.07418 20.3579 7.9846 20.0802 7.70653L16.2925 3.91466C16.0147 3.63657 15.9256 3.22154 16.0648 2.85393C16.2039 2.48633 16.5455 2.23433 16.9378 2.20988L20.0055 2.01868C20.2054 2.00608 20.4471 1.99084 20.6556 2.00697C20.9068 2.02639 21.2783 2.10041 21.5893 2.41177Z" fill="#141B34"/>
<path d="M2.8445 16.0647C3.21321 15.9252 3.62944 16.0154 3.90738 16.2949L7.70894 20.1182C7.98697 20.3978 8.07472 20.8147 7.93301 21.1827C7.7913 21.5507 7.44659 21.801 7.05284 21.8219L3.97491 21.9853C3.77755 21.9959 3.5382 22.0088 3.33177 21.9911C3.08272 21.9697 2.71593 21.8934 2.40882 21.5847C2.10155 21.2758 2.02735 20.9084 2.00744 20.659C1.99095 20.4524 2.00534 20.2132 2.0172 20.0162L2.20003 16.9407C2.22342 16.5472 2.4758 16.2041 2.8445 16.0647Z" fill="#141B34"/>
</svg>
