<svg width="24" height="24" viewBox="0 0 24 24" fill="none" xmlns="http://www.w3.org/2000/svg">
<path fill-rule="evenodd" clip-rule="evenodd" d="M16.7071 7.29289C16.3166 6.90237 15.6834 6.90237 15.2929 7.29289L7.29292 15.2929C6.9024 15.6834 6.9024 16.3166 7.29292 16.7071C7.68345 17.0976 8.31661 17.0976 8.70714 16.7071L16.7071 8.70711C17.0977 8.31658 17.0977 7.68342 16.7071 7.29289Z" fill="#141B34"/>
<path opacity="0.4" d="M8.29292 9.70713C8.68345 10.0977 9.31661 10.0977 9.70714 9.70713C10.0977 9.3166 10.0977 8.68344 9.70714 8.29291L6.80236 5.38818L5.38814 6.8024L8.29292 9.70713Z" fill="#141B34"/>
<path d="M6.59132 2.17312C6.03229 2.10571 5.31245 2.01892 4.66935 2.00274C4.32935 1.99419 3.96836 2.0037 3.63906 2.05922C3.34583 2.10866 2.89773 2.22163 2.55969 2.55967C2.22166 2.89771 2.10868 3.34581 2.05924 3.63904C2.00372 3.96834 1.99421 4.32933 2.00276 4.66933C2.01894 5.31243 2.10572 6.0322 2.17313 6.59123L2.18923 6.72504C2.21033 6.90163 2.23606 7.11699 2.27898 7.29027L2.28 7.29443C2.31043 7.41761 2.45035 7.98409 3.0455 8.18987C3.63909 8.39511 4.09715 8.03927 4.19853 7.96051L4.20051 7.95897C4.34097 7.8499 4.49312 7.69752 4.61629 7.57417L6.80232 5.38814L7.5742 4.61626C7.69755 4.49309 7.84992 4.34095 7.95899 4.20049L7.96053 4.19851C8.03929 4.09713 8.39513 3.63907 8.18989 3.04548C7.98411 2.45032 7.41763 2.31041 7.29445 2.27998L7.29029 2.27896C7.11705 2.23605 6.90154 2.21029 6.72497 2.18919L6.59132 2.17312Z" fill="#141B34"/>
<path opacity="0.4" d="M15.7071 14.2929C15.3166 13.9023 14.6834 13.9023 14.2929 14.2929C13.9024 14.6834 13.9024 15.3166 14.2929 15.7071L17.1977 18.6118L18.6119 17.1976L15.7071 14.2929Z" fill="#141B34"/>
<path d="M17.4087 21.8269C17.9677 21.8943 18.6876 21.9811 19.3307 21.9973C19.6707 22.0058 20.0316 21.9963 20.3609 21.9408C20.6542 21.8913 21.1023 21.7784 21.4403 21.4403C21.7783 21.1023 21.8913 20.6542 21.9408 20.361C21.9963 20.0317 22.0058 19.6707 21.9972 19.3307C21.9811 18.6876 21.8943 17.9678 21.8269 17.4088L21.8108 17.275C21.7897 17.0984 21.7639 16.883 21.721 16.7097L21.72 16.7056C21.6896 16.5824 21.5497 16.0159 20.9545 15.8101C20.3609 15.6049 19.9028 15.9607 19.8015 16.0395L19.7995 16.041C19.659 16.1501 19.5069 16.3025 19.3837 16.4258L18.6119 17.1976L16.4258 19.3837C16.3024 19.5069 16.1501 19.6591 16.041 19.7995L16.0395 19.8015C15.9607 19.9029 15.6049 20.3609 15.8101 20.9545C16.0159 21.5497 16.5824 21.6896 16.7056 21.72L16.7097 21.721C16.8829 21.7639 17.0985 21.7897 17.275 21.8108L17.4087 21.8269Z" fill="#141B34"/>
</svg>
