<svg width="24" height="24" viewBox="0 0 24 24" fill="none" xmlns="http://www.w3.org/2000/svg">
<path fill-rule="evenodd" clip-rule="evenodd" d="M4 19C4.55228 19 5 18.5523 5 18L5 6C5 5.44771 4.55228 5 4 5C3.44771 5 3 5.44771 3 6L3 18C3 18.5523 3.44772 19 4 19Z" fill="#141B34"/>
<path opacity="0.4" fill-rule="evenodd" clip-rule="evenodd" d="M10.2894 12.9999L12.6881 15.2744C13.0888 15.6544 13.1057 16.2873 12.7256 16.6881C12.3456 17.0888 11.7127 17.1057 11.3119 16.7256L7.80993 13.405C7.66072 13.2637 7.48418 13.0965 7.35272 12.9331C7.19595 12.7383 7 12.4269 7 12C7 11.5732 7.19595 11.2617 7.35272 11.0669C7.48418 10.9035 7.66072 10.7363 7.80993 10.595L11.3119 7.27436C11.7127 6.89435 12.3456 6.91117 12.7256 7.31193C13.1057 7.71269 13.0888 8.34563 12.6881 8.72565L10.2896 10.9999L19.9999 10.9995C20.5522 10.9994 20.9999 11.4471 20.9999 11.9994C20.9999 12.5517 20.5523 12.9994 20 12.9995L10.2894 12.9999Z" fill="#141B34"/>
</svg>
