<svg width="24" height="24" viewBox="0 0 24 24" fill="none" xmlns="http://www.w3.org/2000/svg">
<path opacity="0.4" fill-rule="evenodd" clip-rule="evenodd" d="M17.7071 6.29289C18.0976 6.68342 18.0976 7.31658 17.7071 7.70711L6.70711 18.7071C6.31658 19.0976 5.68342 19.0976 5.29289 18.7071C4.90237 18.3166 4.90237 17.6834 5.29289 17.2929L16.2929 6.29289C16.6834 5.90237 17.3166 5.90237 17.7071 6.29289Z" fill="#141B34"/>
<path d="M17 13V7.00003H11C10.4477 7.00003 10 6.55232 10 6.00003C10 5.44775 10.4477 5.00003 11 5.00003L17.0394 5.00002C17.2393 4.99989 17.4772 4.99974 17.6819 5.02726C17.9289 5.06047 18.2707 5.14938 18.5607 5.43937C18.8507 5.72937 18.9396 6.0711 18.9728 6.31815C19.0003 6.5228 19.0001 6.76076 19 6.96063V6.96065L19 13C19 13.5523 18.5523 14 18 14C17.4477 14 17 13.5523 17 13Z" fill="#141B34"/>
</svg>
