<svg width="24" height="24" viewBox="0 0 24 24" fill="none" xmlns="http://www.w3.org/2000/svg">
<path opacity="0.4" fill-rule="evenodd" clip-rule="evenodd" d="M10.2071 10.2071C10.5976 9.81658 10.5976 9.18342 10.2071 8.79289L3.70711 2.29289C3.31658 1.90237 2.68342 1.90237 2.29289 2.29289C1.90237 2.68342 1.90237 3.31658 2.29289 3.70711L8.79289 10.2071C9.18342 10.5976 9.81658 10.5976 10.2071 10.2071Z" fill="#141B34"/>
<path opacity="0.4" fill-rule="evenodd" clip-rule="evenodd" d="M10.2071 13.7929C10.5976 14.1834 10.5976 14.8166 10.2071 15.2071L3.70711 21.7071C3.31658 22.0976 2.68342 22.0976 2.29289 21.7071C1.90237 21.3166 1.90237 20.6834 2.29289 20.2929L8.79289 13.7929C9.18342 13.4024 9.81658 13.4024 10.2071 13.7929Z" fill="#141B34"/>
<path opacity="0.4" fill-rule="evenodd" clip-rule="evenodd" d="M13.7929 10.2071C13.4024 9.81658 13.4024 9.18342 13.7929 8.79289L20.2929 2.29289C20.6834 1.90237 21.3166 1.90237 21.7071 2.29289C22.0976 2.68342 22.0976 3.31658 21.7071 3.70711L15.2071 10.2071C14.8166 10.5976 14.1834 10.5976 13.7929 10.2071Z" fill="#141B34"/>
<path opacity="0.4" fill-rule="evenodd" clip-rule="evenodd" d="M13.7929 13.7929C13.4024 14.1834 13.4024 14.8166 13.7929 15.2071L20.2929 21.7071C20.6834 22.0976 21.3166 22.0976 21.7071 21.7071C22.0976 21.3166 22.0976 20.6834 21.7071 20.2929L15.2071 13.7929C14.8166 13.4024 14.1834 13.4024 13.7929 13.7929Z" fill="#141B34"/>
<path d="M9.60505 13.0079C9.87267 13.0291 10.2544 13.1075 10.5734 13.4265C10.8924 13.7456 10.9708 14.1273 10.992 14.395C11.0098 14.6196 10.9937 14.8823 10.9799 15.1088L10.8017 18.0601C10.778 18.4529 10.5261 18.7953 10.1581 18.9348C9.7902 19.0744 9.37461 18.9852 9.09637 18.7069L5.29289 14.9031C5.01464 14.6248 4.92547 14.2092 5.06506 13.8413C5.20465 13.4733 5.54705 13.2215 5.93986 13.1978L8.89123 13.0199C9.11773 13.0061 9.38036 12.9901 9.60505 13.0079Z" fill="#141B34"/>
<path d="M15.1072 13.0196L18.0595 13.1962C18.4524 13.2197 18.795 13.4715 18.9347 13.8395C19.0744 14.2075 18.9852 14.6233 18.7069 14.9016L14.901 18.707C14.6226 18.9853 14.2069 19.0744 13.8389 18.9347C13.4709 18.7949 13.2191 18.4523 13.1957 18.0594L13.0195 15.107C13.0059 14.8808 12.9901 14.6184 13.008 14.3939C13.0293 14.1265 13.1079 13.7452 13.4267 13.4265C13.7454 13.1078 14.1267 13.0293 14.3942 13.008C14.6187 12.9901 14.881 13.0059 15.1072 13.0196Z" fill="#141B34"/>
<path d="M13.7844 5.06973C14.1506 4.92533 14.5675 5.00923 14.8493 5.28407L18.698 9.03701C18.9794 9.31143 19.074 9.72528 18.9397 10.0947C18.8053 10.4641 18.467 10.7206 18.0751 10.7501L15.1307 10.9722C14.9048 10.9894 14.6423 11.0094 14.4171 10.9948C14.1484 10.9774 13.7648 10.9039 13.4413 10.5878C13.1187 10.2726 13.0357 9.89163 13.0111 9.62469C12.9904 9.4 13.0029 9.13675 13.0137 8.90908L13.1523 5.95321C13.1707 5.55997 13.4182 5.21413 13.7844 5.06973Z" fill="#141B34"/>
<path d="M10.162 5.06466C10.5309 5.20416 10.7834 5.54748 10.8066 5.94123L10.9809 8.89964C10.9942 9.12335 11.0097 9.38358 10.9918 9.6065C10.9704 9.87254 10.8921 10.2509 10.5768 10.5683C10.2617 10.8855 9.88413 10.9665 9.61861 10.9899C9.39584 11.0095 9.13542 10.9961 8.91123 10.9846L5.94938 10.8344C5.55528 10.8144 5.20978 10.5645 5.0674 10.1965C4.92501 9.8285 5.01236 9.41115 5.29039 9.13112L9.09868 5.29546C9.37658 5.01556 9.79305 4.92516 10.162 5.06466Z" fill="#141B34"/>
</svg>
