<svg width="24" height="24" viewBox="0 0 24 24" fill="none" xmlns="http://www.w3.org/2000/svg">
<path opacity="0.4" fill-rule="evenodd" clip-rule="evenodd" d="M3.92268 3.99904L3.98469 3.99905H4.99998C5.55226 3.99905 5.99998 4.44676 5.99998 4.99905C5.99998 5.55133 5.55226 5.99905 4.99998 5.99905H3.98469C3.46294 5.99905 3.18912 6.00207 3.00321 6.03144C3.0077 6.08464 3.01736 6.15746 3.03546 6.25908C3.06043 6.3992 3.09529 6.56171 3.14108 6.77428C3.44583 8.1891 4.10251 9.41006 4.96739 10.3035C5.35151 10.7004 5.34122 11.3334 4.94439 11.7176C4.54757 12.1017 3.91449 12.0914 3.53037 11.6946C2.38841 10.5148 1.56401 8.95072 1.18592 7.19542L1.17296 7.13536C1.09487 6.77376 1.00993 6.38046 1.00085 6.03094C0.989379 5.58927 1.09213 5.14249 1.42782 4.73435C1.78409 4.3012 2.24163 4.12903 2.6762 4.05834C3.04239 3.99877 3.48372 3.9989 3.92268 3.99904ZM12 11C12.5523 11 13 11.4477 13 12V18C13 18.5523 12.5523 19 12 19C11.4477 19 11 18.5523 11 18V12C11 11.4477 11.4477 11 12 11ZM20.0153 5.99905C20.537 5.99905 20.8109 6.00207 20.9968 6.03144C20.9923 6.08464 20.9826 6.15746 20.9645 6.25908C20.9396 6.3992 20.9047 6.56171 20.8589 6.77428C20.5542 8.1891 19.8975 9.41006 19.0326 10.3035C18.6485 10.7004 18.6588 11.3334 19.0556 11.7176C19.4524 12.1017 20.0855 12.0914 20.4696 11.6946C21.6116 10.5148 22.436 8.95072 22.8141 7.19542L22.827 7.13536L22.827 7.13533C22.9051 6.77374 22.9901 6.38045 22.9991 6.03094C23.0106 5.58927 22.9078 5.14249 22.5722 4.73435C22.2159 4.3012 21.7584 4.12903 21.3238 4.05834C20.9576 3.99877 20.5163 3.9989 20.0773 3.99904L20.0153 3.99905H19C18.4477 3.99905 18 4.44676 18 4.99905C18 5.55133 18.4477 5.99905 19 5.99905H20.0153Z" fill="#141B34"/>
<path d="M11.9991 17.25C10.0073 17.25 8.30996 18.4543 7.44694 20.1675C6.84922 21.3541 7.68639 22.75 8.95787 22.75H15.0403C16.3118 22.75 17.149 21.3541 16.5512 20.1675C15.6882 18.4543 13.9908 17.25 11.9991 17.25Z" fill="#141B34"/>
<path d="M8.50358 1.24915C7.17297 1.24768 6.13672 1.24653 5.24161 2.065C4.8198 2.4507 4.55925 2.84411 4.41908 3.32524C4.29795 3.741 4.27864 4.19667 4.25946 4.64914L4.25711 4.70452C4.25238 4.81497 4.25 4.92597 4.25 5.03748C4.25 9.30045 7.72367 12.7493 12 12.7493C16.2763 12.7493 19.75 9.30045 19.75 5.03748C19.75 4.92597 19.7476 4.81497 19.7429 4.70452L19.7405 4.64915C19.7214 4.19668 19.7021 3.741 19.5809 3.32524C19.4407 2.84412 19.1802 2.4507 18.7584 2.065C17.8633 1.24653 16.827 1.24768 15.4964 1.24915H8.50358Z" fill="#141B34"/>
</svg>
