<svg width="24" height="24" viewBox="0 0 24 24" fill="none" xmlns="http://www.w3.org/2000/svg">
<path opacity="0.4" d="M2.25 11.0564V10H2C1.44772 10 1 9.55229 1 9C1 8.44771 1.44772 8 2 8H9C9.86548 8 10.7076 8.28071 11.4 8.8L13.8 10.6C14.1462 10.8596 14.5673 11 15 11H22C22.5523 11 23 11.4477 23 12C23 12.5523 22.5523 13 22 13H21.7487C21.7447 13.9305 21.7284 14.7085 21.6619 15.3621C21.5716 16.2497 21.3826 16.9907 20.9495 17.639C20.6029 18.1576 20.1576 18.6029 19.639 18.9495C18.9907 19.3826 18.2497 19.5716 17.3621 19.6619C16.4957 19.75 15.4108 19.75 14.0416 19.75H10.9436C9.10583 19.75 7.65019 19.75 6.51098 19.5969C5.33856 19.4392 4.38961 19.1071 3.64124 18.3588C2.89288 17.6104 2.56076 16.6614 2.40314 15.489C2.24997 14.3498 2.24998 12.8942 2.25 11.0564Z" fill="#141B34"/>
<path fill-rule="evenodd" clip-rule="evenodd" d="M9 10C9.43274 10 9.85381 10.1404 10.2 10.4L12.6 12.2C13.2924 12.7193 14.1345 13 15 13H22C22.5523 13 23 12.5523 23 12C23 11.4477 22.5523 11 22 11H15C14.5673 11 14.1462 10.8596 13.8 10.6L11.4 8.8C10.7076 8.28071 9.86548 8 9 8H2C1.44772 8 1 8.44772 1 9C1 9.55228 1.44772 10 2 10H9Z" fill="#141B34"/>
<path d="M17 19.6928C17.1248 19.684 17.2454 19.6737 17.3621 19.6618C17.9713 19.5998 18.5115 19.4914 19 19.2894V20.9999C19 21.5522 18.5523 21.9999 18 21.9999C17.4477 21.9999 17 21.5522 17 20.9999V19.6928Z" fill="#141B34"/>
<path d="M7 19.6518C6.83087 19.6361 6.66792 19.6179 6.51098 19.5968C5.95849 19.5225 5.45563 19.4095 5 19.2324V20.9999C5 21.5522 5.44771 21.9999 6 21.9999C6.55229 21.9999 7 21.5522 7 20.9999V19.6518Z" fill="#141B34"/>
<path d="M4 8H6V4.5C6 4.22386 6.22386 4 6.5 4C6.77614 4 7 4.22386 7 4.5V5C7 5.55228 7.44772 6 8 6C8.55228 6 9 5.55228 9 5V4.5C9 3.11929 7.88071 2 6.5 2C5.11929 2 4 3.11929 4 4.5V8Z" fill="#141B34"/>
</svg>
