<svg width="24" height="24" viewBox="0 0 24 24" fill="none" xmlns="http://www.w3.org/2000/svg">
<path fill-rule="evenodd" clip-rule="evenodd" d="M1.29289 1.29289C1.68342 0.902369 2.31658 0.902369 2.70711 1.29289L22.7071 21.2929C23.0976 21.6834 23.0976 22.3166 22.7071 22.7071C22.3166 23.0976 21.6834 23.0976 21.2929 22.7071L1.29289 2.70711C0.902369 2.31658 0.902369 1.68342 1.29289 1.29289Z" fill="#141B34"/>
<g opacity="0.4">
<path d="M16.4856 1.39731C15.3482 1.24998 13.8395 1.24999 12.0002 1.25C10.1609 1.24999 8.65221 1.24998 7.51478 1.39731C7.06329 1.45579 6.64483 1.53924 6.25804 1.66137C5.92731 1.76578 5.76195 1.81799 5.72185 1.98199C5.68176 2.14599 5.81527 2.27951 6.0823 2.54654L9.61003 6.07427C9.69674 6.16097 9.74009 6.20433 9.79522 6.22717C9.85035 6.25 9.91167 6.25 10.0343 6.25H20.0418C20.3463 6.25 20.4986 6.25 20.5881 6.14951C20.6776 6.04901 20.6605 5.90257 20.6265 5.60969C20.6172 5.53006 20.6073 5.45191 20.5966 5.37525C20.4378 4.23743 20.1022 3.31431 19.349 2.58863C18.5997 1.86672 17.6531 1.54853 16.4856 1.39731Z" fill="#141B34"/>
<path d="M20.7502 9.64945C20.7502 9.18898 20.7502 8.75307 20.7475 8.3407C20.7457 8.06313 20.7448 7.92434 20.657 7.83717C20.5693 7.75 20.4297 7.75 20.1505 7.75H12.7343C12.1178 7.75 11.8096 7.75 11.7329 7.9352C11.6562 8.12039 11.8741 8.33835 12.31 8.77426L19.726 16.1902C20.1619 16.6261 20.3798 16.8441 20.565 16.7674C20.7502 16.6906 20.7502 16.3824 20.7502 15.7659V9.64945Z" fill="#141B34"/>
</g>
<path d="M3.40365 5.37526C3.39295 5.45193 3.383 5.53007 3.37374 5.60971C3.33968 5.90259 3.32265 6.04903 3.41214 6.14952C3.50162 6.25002 3.6539 6.25002 3.95846 6.25002H4.8015C5.41797 6.25002 5.72621 6.25002 5.80292 6.06482C5.87963 5.87963 5.66168 5.66167 5.22576 5.22575L4.43635 4.43634C4.15019 4.15019 4.00712 4.00711 3.83778 4.055C3.66844 4.1029 3.62489 4.28547 3.53779 4.65063C3.48266 4.88176 3.43882 5.12325 3.40365 5.37526Z" fill="#141B34"/>
<path d="M3.25271 8.34071C3.25 8.75308 3.25 9.18898 3.25001 9.64944L3.25 18.0458C3.24997 19.1433 3.24994 20.0553 3.35533 20.7405C3.46438 21.4495 3.71857 22.1395 4.41958 22.5139C5.04476 22.8477 5.73241 22.7798 6.31544 22.6028C6.90514 22.4238 7.50454 22.0989 8.05336 21.7521C8.60739 21.402 9.15066 21.0029 9.623 20.6538C10.0858 20.3117 10.5131 19.9958 10.7969 19.8249C11.1965 19.5843 11.4488 19.4335 11.6533 19.3371C11.842 19.2482 11.9337 19.2341 12 19.2341C12.0663 19.2341 12.158 19.2482 12.3467 19.3371C12.5513 19.4335 12.8035 19.5843 13.2031 19.8249C13.4869 19.9958 13.9142 20.3117 14.377 20.6538C14.8494 21.0029 15.3926 21.402 15.9467 21.7521C16.4955 22.0989 17.0949 22.4238 17.6846 22.6028C18.2676 22.7798 18.9553 22.8477 19.5804 22.5139C20.1828 22.1922 20.4552 21.6375 20.5892 21.038C20.6194 20.9026 20.6345 20.8349 20.6133 20.7612C20.592 20.6874 20.5385 20.6335 20.4315 20.5257L7.92602 7.92733C7.8392 7.83985 7.79578 7.79612 7.74043 7.77307C7.68507 7.75002 7.62344 7.75002 7.50019 7.75002H3.84977C3.57055 7.75002 3.43094 7.75002 3.3432 7.83719C3.25545 7.92436 3.25454 8.06314 3.25271 8.34071Z" fill="#141B34"/>
</svg>
