<svg width="24" height="24" viewBox="0 0 24 24" fill="none" xmlns="http://www.w3.org/2000/svg">
<path opacity="0.4" d="M5.2571 11.6C5.45091 13.2011 6.43762 14.8555 7.70191 16.2016C8.97375 17.5557 10.617 18.6956 12.2634 19.2114C12.3887 19.2558 12.4514 19.278 12.4822 19.3072C12.5439 19.3657 12.5619 19.449 12.5298 19.5278C12.5138 19.5671 12.4652 19.6139 12.3679 19.7074C12.0486 20.0144 11.6415 20.4189 11.4672 20.5934C10.5815 21.4583 9.88676 22.1366 8.84202 22.2377C8.0787 22.3115 7.24075 22.0394 6.47883 21.6462C5.69752 21.243 4.90451 20.665 4.20207 20.0057C3.50018 19.3469 2.86569 18.5853 2.41885 17.8015C1.9793 17.0305 1.67872 16.1624 1.76471 15.3189C1.82115 14.7653 2.04201 14.3229 2.36665 13.9019C2.66387 13.5166 3.07864 13.1126 3.55836 12.6455L4.79444 11.4411C4.88213 11.3556 4.92598 11.3129 4.96235 11.2982C5.05494 11.2607 5.15835 11.2955 5.20938 11.3814C5.22942 11.4151 5.23865 11.4768 5.2571 11.6Z" fill="#141B34"/>
<path d="M16.3274 2.07583C18.3701 2.70497 20.2162 4.17373 21.4868 5.89607C22.3418 7.05518 22.4596 8.51101 21.9349 9.7353C21.8795 9.86459 21.8518 9.92924 21.7895 9.97701C21.7271 10.0248 21.6488 10.036 21.4922 10.0583C19.8245 10.2964 18.9075 10.6089 18.6335 10.7423C17.5187 11.2852 16.8211 12.2897 16.8211 13.6002C16.8211 14.0144 17.1569 14.3502 17.5711 14.3502C17.9854 14.3502 18.3211 14.0144 18.3211 13.6002C18.3211 12.9124 18.6459 12.4141 19.2644 12.1037C19.7543 11.8578 20.3374 11.7795 20.8738 11.6793C21.0523 11.6459 21.1415 11.6293 21.2279 11.6688C21.3144 11.7083 21.3565 11.7804 21.4406 11.9247C22.6238 13.9522 21.6068 16.7788 19.0287 17.4066L15.8074 18.191C15.2645 18.3232 14.993 18.3893 14.7093 18.377C14.05 18.3485 13.3675 18.0113 12.7508 17.7927C12.7417 17.7895 12.7324 17.7864 12.7231 17.7835C11.3743 17.3639 9.93753 16.3909 8.79514 15.1746C7.64469 13.9497 6.88316 12.5756 6.74508 11.4113C6.74416 11.4036 6.74312 11.3958 6.74196 11.3881C6.66379 10.8683 6.54531 9.90209 6.48962 8.98109C6.46505 8.57472 6.54754 8.17034 6.71151 7.7977C7.46501 6.08533 8.59113 4.5898 10.0011 3.37393C11.9758 1.67113 14.2533 1.43702 16.3274 2.07583Z" fill="#141B34"/>
</svg>
