<svg width="24" height="24" viewBox="0 0 24 24" fill="none" xmlns="http://www.w3.org/2000/svg">
<path fill-rule="evenodd" clip-rule="evenodd" d="M2.5 21.75C2.5 21.1977 2.94772 20.75 3.5 20.75H20.5C21.0523 20.75 21.5 21.1977 21.5 21.75C21.5 22.3023 21.0523 22.75 20.5 22.75H3.5C2.94772 22.75 2.5 22.3023 2.5 21.75Z" fill="#141B34"/>
<path opacity="0.4" d="M6.81795 1.42709C7.42823 1.29303 8.15644 1.25 9 1.25H15C15.8436 1.25 16.5718 1.29303 17.182 1.42709C17.8008 1.56303 18.3452 1.80257 18.7713 2.22867C19.1974 2.65477 19.437 3.19918 19.5729 3.81795C19.707 4.42823 19.75 5.15644 19.75 6V22H4.25V6C4.25 5.15644 4.29303 4.42823 4.42709 3.81795C4.56303 3.19918 4.80257 2.65476 5.22867 2.22867C5.65477 1.80257 6.19918 1.56303 6.81795 1.42709Z" fill="#141B34"/>
<path fill-rule="evenodd" clip-rule="evenodd" d="M9.75 6C9.75 5.58579 10.0858 5.25 10.5 5.25H13.5C13.9142 5.25 14.25 5.58579 14.25 6C14.25 6.41421 13.9142 6.75 13.5 6.75H10.5C10.0858 6.75 9.75 6.41421 9.75 6ZM9.75 9.5C9.75 9.08579 10.0858 8.75 10.5 8.75H13.5C13.9142 8.75 14.25 9.08579 14.25 9.5C14.25 9.91421 13.9142 10.25 13.5 10.25H10.5C10.0858 10.25 9.75 9.91421 9.75 9.5ZM9.75 13C9.75 12.5858 10.0858 12.25 10.5 12.25H13.5C13.9142 12.25 14.25 12.5858 14.25 13C14.25 13.4142 13.9142 13.75 13.5 13.75H10.5C10.0858 13.75 9.75 13.4142 9.75 13Z" fill="#141B34"/>
<path fill-rule="evenodd" clip-rule="evenodd" d="M9.24008 16.6494C9.72918 16.0624 10.4908 16 11.1667 16H12.8333C13.5092 16 14.2708 16.0624 14.7599 16.6494C14.9955 16.932 15.11 17.2698 15.1712 17.6044C15.2322 17.9372 15.25 18.3231 15.25 18.75V21.75H13.75V18.75C13.75 18.3496 13.7319 18.0718 13.6957 17.8745C13.6599 17.6789 13.6163 17.6201 13.6076 17.6096C13.604 17.6054 13.5996 17.6007 13.5875 17.5937C13.5733 17.5853 13.5427 17.5704 13.4843 17.555C13.3577 17.5217 13.1581 17.5 12.8333 17.5H11.1667C10.8419 17.5 10.6423 17.5217 10.5157 17.555C10.4573 17.5704 10.4267 17.5853 10.4125 17.5937C10.4004 17.6007 10.396 17.6054 10.3924 17.6096C10.3837 17.6201 10.3401 17.6789 10.3043 17.8745C10.2681 18.0718 10.25 18.3496 10.25 18.75V21.75H8.75V18.75C8.75 18.3231 8.76785 17.9372 8.82877 17.6044C8.89002 17.2698 9.00452 16.932 9.24008 16.6494Z" fill="#141B34"/>
</svg>
