<svg width="24" height="24" viewBox="0 0 24 24" fill="none" xmlns="http://www.w3.org/2000/svg">
<path opacity="0.4" d="M5.31726 1.2862C5.88395 1.40333 6.33524 1.78406 6.61564 2.2871L7.50885 3.88954C7.83786 4.47975 8.11473 4.97643 8.29554 5.4082C8.48735 5.86622 8.60126 6.31788 8.54919 6.81724C8.49711 7.3166 8.29246 7.73504 8.01029 8.14362C7.74428 8.5288 7.37088 8.95768 6.92718 9.4673L5.61417 10.9755C5.37889 11.2458 5.26124 11.3809 5.25049 11.5498C5.23974 11.7187 5.33616 11.8629 5.529 12.1515C7.17259 14.6105 9.38773 16.8265 11.8488 18.4714C12.1374 18.6643 12.2816 18.7607 12.4505 18.75C12.6194 18.7392 12.7546 18.6216 13.0248 18.3863L14.5331 17.0732C15.0427 16.6295 15.4716 16.2561 15.8568 15.9901C16.2653 15.7079 16.6838 15.5033 17.1831 15.4512C17.6825 15.3991 18.1342 15.513 18.5922 15.7048C19.0239 15.8856 19.5206 16.1625 20.1107 16.4915L20.1109 16.4915L21.7133 17.3848C22.2163 17.6651 22.5971 18.1164 22.7142 18.6831C22.8325 19.2557 22.658 19.8313 22.2724 20.3043C20.8735 22.0207 18.6322 23.1135 16.281 22.6392C14.8358 22.3477 13.4098 21.862 11.6851 20.8728C8.2197 18.8855 5.11263 15.7767 3.12755 12.3153C2.13843 10.5906 1.65272 9.16464 1.36118 7.71937C0.88688 5.36815 1.97971 3.12687 3.69608 1.72797C4.16911 1.34243 4.74466 1.16785 5.31726 1.2862Z" fill="#141B34"/>
<path d="M20.9426 4.66618C21.127 5.18678 20.8544 5.75828 20.3338 5.94266C19.8002 6.13165 19.1837 6.53851 18.5307 7.11124C17.888 7.67488 17.2628 8.35181 16.7091 9.01562C16.1572 9.67712 15.6885 10.3109 15.3574 10.7798C15.1922 11.0138 15.0622 11.2055 14.9743 11.3376L14.8441 11.5363C14.6508 11.8403 14.3087 12.0171 13.9489 11.9987C13.5889 11.9803 13.2668 11.7696 13.1056 11.4472C12.6649 10.5659 12.2696 10.2149 12.0703 10.0821C11.986 10.0259 11.929 10.0033 11.9064 9.9957C11.398 9.9485 11 9.52074 11 9.00003C11 8.44774 11.4477 8.00003 12 8.00003C12.0824 8.00083 12.2871 8.0159 12.4466 8.06975C12.6545 8.12915 12.9053 8.23504 13.1797 8.41798C13.454 8.60083 13.7416 8.8536 14.0304 9.19946C14.3456 8.7687 14.734 8.26103 15.1733 7.73444C15.7666 7.02325 16.465 6.26267 17.212 5.60757C17.9486 4.96155 18.788 4.3684 19.6662 4.0574C20.1868 3.87302 20.7582 4.14558 20.9426 4.66618Z" fill="#141B34"/>
</svg>
