<svg width="24" height="24" viewBox="0 0 24 24" fill="none" xmlns="http://www.w3.org/2000/svg">
<path opacity="0.4" d="M16.0585 1.25C17.423 1.24998 18.5286 1.24996 19.3993 1.37603C20.31 1.50789 21.0719 1.79079 21.6709 2.43593C22.2627 3.07319 22.5154 3.87028 22.6344 4.8236C22.75 5.74987 22.75 6.93067 22.75 8.40963V8.40968V9.59033V9.59037C22.75 11.0693 22.75 12.2501 22.6344 13.1764C22.5154 14.1297 22.2627 14.9268 21.6709 15.5641C21.0719 16.2092 20.31 16.4921 19.3993 16.624C18.5286 16.75 17.423 16.75 16.0584 16.75H11.9416C10.577 16.75 9.47144 16.75 8.60071 16.624C7.68997 16.4921 6.92815 16.2092 6.32909 15.5641C5.73735 14.9268 5.48463 14.1297 5.36561 13.1764C5.24997 12.2501 5.24998 11.0693 5.25 9.59033V9.59032V8.40968V8.40967C5.24998 6.93069 5.24997 5.74988 5.36561 4.8236C5.48463 3.87028 5.73735 3.07319 6.32909 2.43593C6.92815 1.79079 7.68997 1.50789 8.60071 1.37603C9.47143 1.24996 10.577 1.24998 11.9415 1.25H11.9416H16.0584H16.0585Z" fill="#141B34"/>
<path d="M5.25214 7.29565C4.10141 7.39243 3.11209 7.65576 2.36375 8.45977C1.73924 9.13074 1.48293 9.96167 1.36427 10.9099C1.24996 11.8234 1.24998 12.9815 1.25 14.4037V15.5781C1.24998 17.0003 1.24996 18.1584 1.36427 19.0719C1.48293 20.0201 1.73924 20.8511 2.36375 21.522C2.9979 22.2034 3.79982 22.4928 4.71599 22.6252C5.58025 22.75 6.67034 22.75 7.98323 22.7499H12.0185C13.3313 22.75 14.4214 22.75 15.2857 22.6252C16.2019 22.4928 17.0038 22.2034 17.6379 21.522C18.1832 20.9362 18.4483 20.2277 18.5856 19.4243C18.714 18.6734 18.742 17.7652 18.7492 16.6933C18.1825 16.736 17.5358 16.7465 16.8043 16.7491C16.7962 17.7887 16.7658 18.5312 16.6688 19.0989C16.5695 19.6795 16.4141 19.9876 16.2123 20.2045C15.9921 20.4411 15.6792 20.6106 15.0067 20.7077C14.2983 20.8101 13.3502 20.8124 11.9455 20.8124H8.05619C6.65154 20.8124 5.7034 20.8101 4.99495 20.7077C4.32245 20.6106 4.00964 20.4411 3.78943 20.2045C3.55958 19.9576 3.38871 19.5908 3.29377 18.8322C3.19623 18.0527 3.19445 17.016 3.19445 15.5132V14.4686C3.19445 12.9657 3.19623 11.9291 3.29377 11.1496C3.38871 10.391 3.55958 10.0242 3.78943 9.77728C4.03985 9.50823 4.40245 9.33228 5.25 9.24333V8.40963C5.25 8.01763 5.24999 7.64657 5.25214 7.29565Z" fill="#141B34"/>
</svg>
