<svg width="24" height="24" viewBox="0 0 24 24" fill="none" xmlns="http://www.w3.org/2000/svg">
<path fill-rule="evenodd" clip-rule="evenodd" d="M3 2C3.55229 2 4 2.44772 4 3V14C4 15.6782 4.00213 16.8362 4.11923 17.7072C4.23246 18.5494 4.43644 18.972 4.73223 19.2678C5.02803 19.5636 5.45059 19.7675 6.2928 19.8808C7.16378 19.9979 8.32182 20 10 20H21C21.5523 20 22 20.4477 22 21C22 21.5523 21.5523 22 21 22H9.928C8.33933 22 7.04616 22.0001 6.0263 21.8629C4.96232 21.7199 4.04735 21.4113 3.31802 20.682C2.58869 19.9526 2.28011 19.0377 2.13706 17.9737C1.99994 16.9538 1.99997 15.6607 2 14.072L2 3C2 2.44772 2.44772 2 3 2Z" fill="#141B34"/>
<path opacity="0.4" fill-rule="evenodd" clip-rule="evenodd" d="M5 12C5 11.4477 5.44772 11 6 11H6.00898C6.56126 11 7.00898 11.4477 7.00898 12C7.00898 12.5523 6.56126 13 6.00898 13H6C5.44772 13 5 12.5523 5 12ZM7.9982 12C7.9982 11.4477 8.44592 11 8.9982 11H9.00718C9.55947 11 10.0072 11.4477 10.0072 12C10.0072 12.5523 9.55947 13 9.00718 13H8.9982C8.44592 13 7.9982 12.5523 7.9982 12ZM10.9964 12C10.9964 11.4477 11.4441 11 11.9964 11H12.0054C12.5577 11 13.0054 11.4477 13.0054 12C13.0054 12.5523 12.5577 13 12.0054 13H11.9964C11.4441 13 10.9964 12.5523 10.9964 12ZM13.9946 12C13.9946 11.4477 14.4423 11 14.9946 11H15.0036C15.5559 11 16.0036 11.4477 16.0036 12C16.0036 12.5523 15.5559 13 15.0036 13H14.9946C14.4423 13 13.9946 12.5523 13.9946 12ZM16.9928 12C16.9928 11.4477 17.4405 11 17.9928 11H18.0018C18.5541 11 19.0018 11.4477 19.0018 12C19.0018 12.5523 18.5541 13 18.0018 13H17.9928C17.4405 13 16.9928 12.5523 16.9928 12ZM19.991 12C19.991 11.4477 20.4387 11 20.991 11H21C21.5523 11 22 11.4477 22 12C22 12.5523 21.5523 13 21 13H20.991C20.4387 13 19.991 12.5523 19.991 12Z" fill="#141B34"/>
<path fill-rule="evenodd" clip-rule="evenodd" d="M8.99297 6C8.10238 6 7.45463 6.52034 6.85745 7.51481C6.57313 7.98829 5.95882 8.14163 5.48534 7.8573C5.01186 7.57298 4.85852 6.95866 5.14285 6.48519C5.89262 5.2366 7.07217 4 8.99297 4C9.91515 4 10.7105 4.23632 11.3801 4.68477C12.0392 5.12624 12.5183 5.7341 12.8817 6.39092C13.5509 7.60053 13.9161 9.15747 14.2435 10.5529C14.2606 10.626 14.2777 10.6987 14.2946 10.7709C14.6562 12.3069 14.9937 13.6433 15.5755 14.6089C15.8546 15.0722 16.1679 15.4092 16.5313 15.6335C16.8881 15.8538 17.3485 16 17.982 16C18.8817 16 19.5261 15.4761 20.1511 14.4717C20.4429 14.0028 21.0596 13.8592 21.5285 14.151C21.9974 14.4427 22.141 15.0594 21.8492 15.5283C21.0856 16.7554 19.9137 18 17.982 18C17.0189 18 16.1867 17.7712 15.4806 17.3353C14.781 16.9033 14.2611 16.3028 13.8624 15.6411C13.0886 14.3567 12.6924 12.6931 12.3478 11.2291C12.3419 11.204 12.3361 11.179 12.3302 11.1541C11.9728 9.63507 11.6634 8.32028 11.1316 7.35908C10.8726 6.8909 10.5878 6.56126 10.2671 6.34648C9.95684 6.13868 9.55656 6 8.99297 6Z" fill="#141B34"/>
</svg>
