<svg width="24" height="24" viewBox="0 0 24 24" fill="none" xmlns="http://www.w3.org/2000/svg">
<path fill-rule="evenodd" clip-rule="evenodd" d="M19.6548 15.3407C19.3596 15.8075 19.4988 16.4252 19.9655 16.7203C20.8157 17.2579 21 17.7048 21 17.946C21 18.1181 20.9152 18.3881 20.5335 18.7427C20.1505 19.0985 19.5416 19.465 18.7054 19.7936C17.039 20.4483 14.6686 20.8751 12 20.8751C9.33138 20.8751 6.96105 20.4483 5.29463 19.7936C4.45839 19.465 3.84949 19.0985 3.46645 18.7427C3.08476 18.3881 3 18.1181 3 17.946C3 17.7048 3.18431 17.2579 4.03445 16.7203C4.50124 16.4252 4.64037 15.8075 4.3452 15.3407C4.05003 14.8739 3.43233 14.7348 2.96555 15.0299C1.91395 15.6949 1 16.6672 1 17.946C1 18.8589 1.47488 19.6224 2.10525 20.208C2.73427 20.7924 3.58983 21.2726 4.56323 21.655C6.51611 22.4224 9.14577 22.8751 12 22.8751C14.8542 22.8751 17.4839 22.4224 19.4368 21.655C20.4102 21.2726 21.2657 20.7924 21.8948 20.208C22.5251 19.6224 23 18.8589 23 17.946C23 16.6672 22.086 15.6949 21.0345 15.0299C20.5677 14.7348 19.95 14.8739 19.6548 15.3407Z" fill="#141B34"/>
<path d="M14.7276 1.69328C14.8281 2.09512 14.5837 2.50232 14.1819 2.60278C13.5431 2.76248 13.1841 3.04554 12.9853 3.30694C14.0174 3.70314 14.75 4.7036 14.75 5.87518C14.75 7.39396 13.5188 8.62518 12 8.62518C10.4812 8.62518 9.25 7.39396 9.25 5.87518C9.25 4.57436 10.1532 3.48449 11.3667 3.19846C11.6247 2.41871 12.3417 1.51666 13.8181 1.14757C14.2199 1.04711 14.6271 1.29143 14.7276 1.69328Z" fill="#141B34"/>
<g opacity="0.4">
<path d="M15.4615 6.6625C15.2411 7.12335 15.4554 7.66679 15.9402 7.8763C16.3224 8.04147 16.568 8.20751 16.7049 8.34291C16.7951 8.43211 16.8165 8.48455 16.8209 8.50133C16.8159 8.52031 16.7895 8.58545 16.6674 8.69555C16.4926 8.85317 16.1881 9.03735 15.732 9.21131C14.8251 9.55722 13.5061 9.79174 12 9.79174C10.4939 9.79174 9.17487 9.55722 8.26798 9.21131C7.8119 9.03735 7.5074 8.85317 7.33262 8.69555C7.21053 8.58545 7.18408 8.52031 7.17906 8.50133C7.18354 8.48455 7.20494 8.43211 7.29514 8.34291C7.43205 8.20751 7.67758 8.04147 8.05979 7.8763C8.5446 7.66679 8.75895 7.12335 8.53854 6.6625C8.31814 6.20165 7.74645 5.9979 7.26164 6.20741C6.74365 6.43126 6.26596 6.71524 5.9047 7.07252C5.54607 7.42721 5.26093 7.89912 5.25 8.46765V11.3885C5.25 11.7202 5.25 11.886 5.31238 12.0543C5.34707 12.1478 5.4164 12.2679 5.48009 12.3448C5.59459 12.4829 5.71385 12.5518 5.95236 12.6895C7.4629 13.5617 9.59943 14.1251 12 14.1251C14.4006 14.1251 16.5371 13.5617 18.0476 12.6895C18.1477 12.6317 18.2445 12.5729 18.338 12.5133C18.5306 12.3904 18.6269 12.3289 18.6885 12.2166C18.75 12.1043 18.75 11.9789 18.75 11.7281V8.50156L18.7497 8.46765C18.7387 7.89912 18.4539 7.42721 18.0953 7.07252C17.734 6.71524 17.2564 6.43126 16.7384 6.20741C16.2536 5.9979 15.6819 6.20165 15.4615 6.6625Z" fill="#141B34"/>
<path d="M18.75 14.704C18.75 14.401 18.75 14.2494 18.6564 14.1906C18.5628 14.1318 18.4221 14.1996 18.1408 14.3351C16.4483 15.1505 14.3061 15.6251 12 15.6251C9.6939 15.6251 7.55168 15.1505 5.85923 14.3351C5.57789 14.1996 5.43721 14.1318 5.34361 14.1906C5.25 14.2494 5.25 14.401 5.25 14.704V16.8752C5.25 17.4796 5.61818 17.9361 6.00728 18.2427C6.40483 18.556 6.93362 18.8054 7.52019 19.0009C8.70117 19.3946 10.285 19.6252 12 19.6252C13.715 19.6252 15.2988 19.3946 16.4798 19.0009C17.0664 18.8054 17.5952 18.556 17.9927 18.2427C18.3818 17.9361 18.75 17.4796 18.75 16.8752V14.704Z" fill="#141B34"/>
</g>
</svg>
