<svg width="24" height="24" viewBox="0 0 24 24" fill="none" xmlns="http://www.w3.org/2000/svg">
<path opacity="0.4" d="M1.25 12C1.25 6.06294 6.06294 1.25 12 1.25C17.9371 1.25 22.75 6.06294 22.75 12C22.75 17.9371 17.9371 22.75 12 22.75C6.06294 22.75 1.25 17.9371 1.25 12Z" fill="#141B34"/>
<path fill-rule="evenodd" clip-rule="evenodd" d="M15.7071 8.29289C16.0976 8.68342 16.0976 9.31658 15.7071 9.70711L12.4142 13L13.7071 14.2929C13.9931 14.5789 14.0787 15.009 13.9239 15.3827C13.7691 15.7564 13.4045 16 13 16H9C8.44772 16 8 15.5523 8 15V11C8 10.5955 8.24364 10.2309 8.61732 10.0761C8.99099 9.92134 9.42111 10.0069 9.70711 10.2929L11 11.5858L14.2929 8.29289C14.6834 7.90237 15.3166 7.90237 15.7071 8.29289Z" fill="#141B34"/>
</svg>
