<svg width="24" height="24" viewBox="0 0 24 24" fill="none" xmlns="http://www.w3.org/2000/svg">
<path opacity="0.4" d="M1.25 12C1.25 6.06294 6.06294 1.25 12 1.25C17.9371 1.25 22.75 6.06294 22.75 12C22.75 17.9371 17.9371 22.75 12 22.75C6.06294 22.75 1.25 17.9371 1.25 12Z" fill="#141B34"/>
<path fill-rule="evenodd" clip-rule="evenodd" d="M12 6.25C12.4142 6.25 12.75 6.58579 12.75 7V10.75H14.5C14.8033 10.75 15.0768 10.9327 15.1929 11.213C15.309 11.4932 15.2448 11.8158 15.0303 12.0303L12.5303 14.5303C12.2374 14.8232 11.7626 14.8232 11.4697 14.5303L8.96967 12.0303C8.75517 11.8158 8.691 11.4932 8.80709 11.213C8.92318 10.9327 9.19665 10.75 9.5 10.75H11.25V7C11.25 6.58579 11.5858 6.25 12 6.25ZM7.25 17C7.25 16.5858 7.58579 16.25 8 16.25H16C16.4142 16.25 16.75 16.5858 16.75 17C16.75 17.4142 16.4142 17.75 16 17.75H8C7.58579 17.75 7.25 17.4142 7.25 17Z" fill="#141B34"/>
</svg>
