<svg width="24" height="24" viewBox="0 0 24 24" fill="none" xmlns="http://www.w3.org/2000/svg">
<path opacity="0.4" d="M1.25 12C1.25 6.06294 6.06294 1.25 12 1.25C17.9371 1.25 22.75 6.06294 22.75 12C22.75 17.9371 17.9371 22.75 12 22.75C6.06294 22.75 1.25 17.9371 1.25 12Z" fill="#141B34"/>
<path fill-rule="evenodd" clip-rule="evenodd" d="M7 7.25C7.41421 7.25 7.75 7.58579 7.75 8V16C7.75 16.4142 7.41421 16.75 7 16.75C6.58579 16.75 6.25 16.4142 6.25 16V8C6.25 7.58579 6.58579 7.25 7 7.25ZM12.787 8.80709C13.0673 8.92318 13.25 9.19665 13.25 9.5V11.25H17C17.4142 11.25 17.75 11.5858 17.75 12C17.75 12.4142 17.4142 12.75 17 12.75H13.25V14.5C13.25 14.8033 13.0673 15.0768 12.787 15.1929C12.5068 15.309 12.1842 15.2448 11.9697 15.0303L9.46967 12.5303C9.17678 12.2374 9.17678 11.7626 9.46967 11.4697L11.9697 8.96967C12.1842 8.75517 12.5068 8.691 12.787 8.80709Z" fill="#141B34"/>
</svg>
