<svg width="24" height="24" viewBox="0 0 24 24" fill="none" xmlns="http://www.w3.org/2000/svg">
<path opacity="0.4" d="M1.25 12C1.25 6.06294 6.06294 1.25 12 1.25C17.9371 1.25 22.75 6.06294 22.75 12C22.75 17.9371 17.9371 22.75 12 22.75C6.06294 22.75 1.25 17.9371 1.25 12Z" fill="#141B34"/>
<path d="M8.65114 8.06287C8.25966 8.2086 8 8.58232 8 9.00005V15C8 15.4178 8.25966 15.7915 8.65114 15.9372C9.04263 16.083 9.48345 15.97 9.7566 15.6539L12.071 12.976C12.5564 12.4144 12.5564 11.5857 12.071 11.0241L9.7566 8.34617C9.48345 8.03011 9.04263 7.91714 8.65114 8.06287Z" fill="#141B34"/>
<path d="M11.9111 8.24345C11.4933 8.60458 11.4473 9.23607 11.8084 9.65393L13.836 12L11.8084 14.3462C11.4473 14.764 11.4933 15.3955 11.9111 15.7566C12.329 16.1178 12.9605 16.0718 13.3216 15.6539L15.636 12.976C16.1213 12.4144 16.1213 11.5857 15.636 11.0241L13.3216 8.34617C12.9605 7.92831 12.329 7.88232 11.9111 8.24345Z" fill="#141B34"/>
</svg>
