<svg width="24" height="24" viewBox="0 0 24 24" fill="none" xmlns="http://www.w3.org/2000/svg">
<path opacity="0.4" fill-rule="evenodd" clip-rule="evenodd" d="M20.7999 2.13914C20.9211 2.01793 20.8672 1.81615 20.6973 1.79331C20.3745 1.74991 19.9776 1.74995 19.5448 1.75L9.45533 1.75C9.02251 1.74995 8.62568 1.74991 8.30287 1.79331C7.94739 1.8411 7.57166 1.95355 7.26264 2.26257L2.26264 7.26257C2.03069 7.49452 1.98243 7.84059 2.11784 8.12003C2.15377 8.19417 2.17174 8.23124 2.24536 8.27707C2.31897 8.32289 2.38374 8.32251 2.51327 8.32173L14.5001 8.25001C14.5495 8.25013 14.5742 8.2502 14.5844 8.24953C14.6619 8.24442 14.7033 8.22736 14.7619 8.17628C14.7696 8.16955 14.7798 8.1593 14.8003 8.1388L20.7999 2.13914ZM15.868 9.19249C15.841 9.21949 15.8275 9.23299 15.8181 9.24446C15.7752 9.29679 15.7582 9.33772 15.7515 9.40506C15.7501 9.41981 15.7501 9.44654 15.7501 9.50001L15.6784 21.4868C15.6776 21.6163 15.6772 21.6811 15.723 21.7547C15.7688 21.8283 15.8059 21.8463 15.8801 21.8822C16.1595 22.0177 16.5056 21.9694 16.7375 21.7374L21.7375 16.7374C22.0465 16.4284 22.159 16.0527 22.2068 15.6972C22.2502 15.3744 22.2501 14.9776 22.2501 14.5448L22.2501 4.45526C22.2501 4.02245 22.2502 3.62561 22.2068 3.3028C22.1839 3.13259 21.9818 3.0786 21.8603 3.20004L15.868 9.19249Z" fill="#141B34"/>
<path fill-rule="evenodd" clip-rule="evenodd" d="M15.6704 7.26868C15.6824 7.25667 15.6524 7.2867 15.66 7.27779C15.7915 7.12402 15.6928 6.83208 15.495 6.78956C15.4836 6.7871 15.5706 6.7988 15.5358 6.79412C15.2065 6.74985 14.8073 6.74993 14.3964 6.75001L14.3437 6.75001L4.65626 6.75001L4.60355 6.75001C4.19273 6.74993 3.79349 6.74985 3.46419 6.79412C3.09297 6.84403 2.66936 6.96563 2.31749 7.31749C1.96563 7.66936 1.84403 8.09297 1.79412 8.4642C1.74985 8.79349 1.74993 9.19273 1.75001 9.60355L1.75001 9.65626L1.75001 19.3437L1.75001 19.3964C1.74993 19.8073 1.74985 20.2065 1.79412 20.5358C1.84403 20.907 1.96563 21.3306 2.31749 21.6825C2.66936 22.0344 3.09297 22.156 3.4642 22.2059C3.79348 22.2502 4.19271 22.2501 4.60351 22.25H4.60355L4.65626 22.25L14.3437 22.25L14.3965 22.25H14.3965C14.8073 22.2501 15.2065 22.2502 15.5358 22.2059C15.907 22.156 16.3306 22.0344 16.6825 21.6825C17.0344 21.3306 17.156 20.907 17.2059 20.5358C17.2502 20.2065 17.2501 19.8073 17.25 19.3965V19.3965L17.25 19.3437L17.25 9.65626L17.25 9.60355V9.60354C17.2501 9.19273 17.2502 8.79348 17.2059 8.46419C17.2012 8.42975 17.2128 8.51586 17.2103 8.50425C17.1676 8.30678 16.8761 8.20826 16.7224 8.33937C16.7134 8.34708 16.7427 8.31776 16.7309 8.32949L15.4882 9.57223C15.4015 9.65894 15.3582 9.70229 15.3353 9.75743C15.3125 9.81256 15.3125 9.87387 15.3125 9.99649L15.3125 19.3437C15.3125 19.8278 15.3104 20.0934 15.2857 20.2776C15.2851 20.2818 15.2818 20.2851 15.2776 20.2857C15.0934 20.3104 14.8278 20.3125 14.3437 20.3125L6.50606 20.3125C5.88958 20.3125 5.58134 20.3125 5.50463 20.1273C5.42792 19.9421 5.64588 19.7241 6.08179 19.2882L8.83958 16.5304C8.90278 16.4672 8.93438 16.4356 8.96752 16.4162C9.00659 16.3933 9.03813 16.3826 9.0831 16.3771C9.12124 16.3725 9.17306 16.3795 9.27668 16.3934C9.60598 16.4377 10.0052 16.4376 10.416 16.4375L10.4687 16.4375L13.8594 16.4375C14.3944 16.4375 14.8281 16.0038 14.8281 15.4687C14.8281 14.9337 14.3944 14.5 13.8594 14.5L10.4687 14.5C9.98469 14.5 9.7191 14.4979 9.53485 14.4732C9.53068 14.4726 9.5274 14.4693 9.52683 14.4651C9.50206 14.2809 9.5 14.0153 9.5 13.5313L9.5 10.625C9.5 10.09 9.06628 9.65626 8.53125 9.65626C7.99623 9.65626 7.5625 10.09 7.5625 10.625L7.5625 13.5313L7.5625 13.584V13.584C7.56242 13.9948 7.56234 14.394 7.60661 14.7233C7.62054 14.8269 7.62751 14.8788 7.62287 14.9169C7.61739 14.9619 7.60674 14.9934 7.58381 15.0325C7.56437 15.0656 7.53276 15.0972 7.46956 15.1604L4.71177 17.9182C4.27586 18.3541 4.0579 18.5721 3.87271 18.4954C3.68751 18.4187 3.68751 18.1104 3.68751 17.4939L3.68751 9.65626C3.68751 9.1722 3.68957 8.90661 3.71434 8.72236C3.71491 8.71819 3.71819 8.71491 3.72236 8.71434C3.90661 8.68957 4.1722 8.68751 4.65626 8.68751L14.0031 8.68751C14.1257 8.68751 14.187 8.68751 14.2422 8.66467C14.2973 8.64184 14.3407 8.59848 14.4274 8.51177L15.6704 7.26868Z" fill="#141B34"/>
</svg>
