<svg width="24" height="24" viewBox="0 0 24 24" fill="none" xmlns="http://www.w3.org/2000/svg">
<path d="M18.3439 2.03822C19.0095 1.65393 19.8296 1.65393 20.4952 2.03822C20.743 2.18129 20.965 2.40371 21.2237 2.663L21.2803 2.71968L21.337 2.77629L21.337 2.7763C21.5963 3.03505 21.8187 3.257 21.9618 3.50482C22.3461 4.17043 22.3461 4.99049 21.9618 5.6561C21.8187 5.90392 21.5963 6.12587 21.337 6.38462L21.337 6.38463L21.2803 6.44124L18.1466 9.575C17.7057 10.0158 17.1734 10.2218 16.6951 10.3439C16.4564 10.4049 16.2165 10.4483 15.9989 10.4859L15.8843 10.5056L15.8842 10.5056C15.7053 10.5362 15.544 10.5639 15.3858 10.5977L15.3438 10.6067L15.3438 10.6067C15.0539 10.6687 14.7639 10.7308 14.5239 10.7461C14.2597 10.7629 13.8765 10.737 13.5697 10.4303C13.263 10.1235 13.2371 9.74035 13.2539 9.47607C13.2692 9.23614 13.3313 8.94609 13.3933 8.6562L13.4023 8.61417C13.4361 8.45604 13.4638 8.29467 13.4944 8.11572L13.5141 8.00109C13.5517 7.78349 13.5951 7.54362 13.6561 7.30485C13.7782 6.82663 13.9842 6.29428 14.425 5.85345L17.5588 2.71969L17.6154 2.663C17.8741 2.40372 18.0961 2.1813 18.3439 2.03822Z" fill="#141B34"/>
<path opacity="0.4" d="M1.25 6C1.25 3.37665 3.37665 1.25 6 1.25C8.62335 1.25 10.75 3.37665 10.75 6C10.75 8.62335 8.62335 10.75 6 10.75C3.37665 10.75 1.25 8.62335 1.25 6Z" fill="#141B34"/>
<path d="M1.25 18C1.25 15.3766 3.37665 13.25 6 13.25C8.62335 13.25 10.75 15.3766 10.75 18C10.75 20.6234 8.62335 22.75 6 22.75C3.37665 22.75 1.25 20.6234 1.25 18Z" fill="#141B34"/>
<path opacity="0.4" d="M13.25 18C13.25 15.3766 15.3766 13.25 18 13.25C20.6234 13.25 22.75 15.3766 22.75 18C22.75 20.6234 20.6234 22.75 18 22.75C15.3766 22.75 13.25 20.6234 13.25 18Z" fill="#141B34"/>
</svg>
