<svg width="24" height="24" viewBox="0 0 24 24" fill="none" xmlns="http://www.w3.org/2000/svg">
<path d="M20.198 3H3.802C3.05147 3 2.6762 3 2.41637 3.17726C2.28768 3.26505 2.18133 3.38109 2.10567 3.51627C1.9529 3.78921 1.99024 4.15793 2.06493 4.89537C2.18958 6.12624 2.2519 6.74168 2.57823 7.18168C2.74084 7.40095 2.94701 7.58519 3.18414 7.72315C3.65999 8 4.28635 8 5.53908 8H18.4609C19.7136 8 20.34 8 20.8159 7.72315C21.053 7.58519 21.2592 7.40095 21.4218 7.18168C21.7481 6.74168 21.8104 6.12624 21.9351 4.89537C22.0098 4.15793 22.0471 3.78921 21.8943 3.51627C21.8187 3.38109 21.7123 3.26505 21.5836 3.17726C21.3238 3 20.9485 3 20.198 3Z" fill="white"/>
<path opacity="0.4" d="M20.2317 2.25C20.578 2.24997 20.8919 2.24995 21.15 2.27593C21.4268 2.3038 21.7283 2.36808 22.0063 2.5577C22.2302 2.71048 22.4162 2.91299 22.5488 3.14997C22.7142 3.44548 22.7495 3.75255 22.75 4.03017C22.7505 4.28782 22.7191 4.59746 22.6847 4.93696V4.93698C22.6254 5.52264 22.5687 6.08311 22.4897 6.48104C22.4067 6.89932 22.2796 7.28401 22.0242 7.62846C21.8006 7.92989 21.5177 8.18253 21.193 8.37142C20.8231 8.58661 20.4263 8.67251 19.9991 8.71218C19.5915 8.75003 19.0924 8.75002 18.4954 8.75H5.50459H5.50457C4.90758 8.75002 4.40847 8.75003 4.00093 8.71218C3.57375 8.67251 3.17685 8.58661 2.80698 8.37142C2.48232 8.18253 2.19938 7.92989 1.97582 7.62846C1.72037 7.28401 1.59326 6.89932 1.51028 6.48104C1.43134 6.0831 1.3746 5.52267 1.3153 4.93699C1.28089 4.59748 1.2495 4.28782 1.25001 4.03017C1.25055 3.75255 1.28581 3.44548 1.45121 3.14997C1.58385 2.91299 1.76976 2.71048 1.9937 2.5577C2.27165 2.36808 2.57318 2.3038 2.85005 2.27593C3.10814 2.24995 3.42197 2.24997 3.76831 2.25H3.76838H20.2316H20.2317Z" fill="#141B34"/>
<path fill-rule="evenodd" clip-rule="evenodd" d="M9 11C9 10.4477 9.44772 10 10 10H14C14.5523 10 15 10.4477 15 11C15 11.5523 14.5523 12 14 12H10C9.44772 12 9 11.5523 9 11Z" fill="#141B34"/>
<path d="M2.28077 7.97485C2.26069 8.05216 2.25 8.13321 2.25 8.21674V13.1605C2.24997 14.9136 2.24995 16.3277 2.40157 17.4401C2.55909 18.5958 2.89625 19.5692 3.67962 20.3419C4.46231 21.114 5.44714 21.4456 6.61638 21.6007C7.74311 21.7501 9.17585 21.7501 10.954 21.7501H17.8504C19.7351 21.7501 21.2629 20.2353 21.2629 18.3667C21.2629 16.4982 19.7351 14.9834 17.8504 14.9834H17.363V14.0232C17.3644 13.8316 17.3086 13.6376 17.1905 13.4679C16.8848 13.0284 16.2768 12.9184 15.8335 13.2215L14.7741 14.0117C14.4746 14.2638 14.1741 14.5169 13.9576 14.7614C13.7083 15.043 13.4629 15.4296 13.4629 15.9501C13.4629 16.4706 13.7083 16.8571 13.9576 17.1388C14.1741 17.3833 14.4746 17.6363 14.7741 17.8884C14.9723 18.0554 15.6387 18.5386 15.8344 18.6792C16.2776 18.9823 16.8848 18.8717 17.1905 18.4322C17.3062 18.2659 17.3622 18.0763 17.363 17.8884V16.9167H17.8504C18.6581 16.9167 19.3129 17.5659 19.3129 18.3667C19.3129 19.1676 18.6581 19.8167 17.8504 19.8167H11.025C9.1591 19.8167 7.85726 19.8147 6.87491 19.6844C5.92009 19.5578 5.41455 19.3261 5.05495 18.9714C4.69604 18.6173 4.46206 18.1207 4.33401 17.1812C4.20209 16.2134 4.2 14.9305 4.2 13.0895V8.72745C4.13137 8.72322 4.06502 8.7182 4.00093 8.71225C3.57375 8.67258 3.17685 8.58668 2.80698 8.37149C2.61593 8.26034 2.43933 8.12711 2.28077 7.97485Z" fill="#141B34"/>
<path d="M19.8 8.72745V13.0895C19.8 13.6234 20.2365 14.0562 20.775 14.0562C21.3135 14.0562 21.75 13.6234 21.75 13.0895V8.21674C21.75 8.13321 21.7393 8.05216 21.7192 7.97486C21.5607 8.12711 21.3841 8.26034 21.193 8.37149C20.8231 8.58668 20.4263 8.67258 19.9991 8.71225C19.935 8.7182 19.8686 8.72322 19.8 8.72745Z" fill="#141B34"/>
</svg>
