<svg width="24" height="24" viewBox="0 0 24 24" fill="none" xmlns="http://www.w3.org/2000/svg">
<path opacity="0.4" d="M22.5294 1.96969C22.7284 2.16871 22.7992 2.46241 22.7128 2.73028L21.0273 7.95536C20.9659 8.14577 20.9305 8.25636 20.909 8.34091C20.9015 8.36674 20.8936 8.43819 20.921 8.51738C20.9546 8.62007 21.0069 8.75543 21.0914 8.97325C21.5163 10.068 21.749 11.2577 21.749 12.5C21.749 17.8848 17.3838 22.25 11.999 22.25C6.61427 22.25 2.24904 17.8848 2.24904 12.5C2.24904 11.2577 2.48176 10.068 2.90665 8.97325C2.9912 8.75543 3.04346 8.62007 3.07704 8.51738C3.10725 8.43064 3.09769 8.36359 3.08913 8.34091C3.06755 8.25636 3.03223 8.14577 2.9708 7.95536L1.28526 2.73028C1.19885 2.46241 1.26969 2.16871 1.46871 1.96969C1.66774 1.77067 1.96143 1.69983 2.2293 1.78624L7.94547 3.6302C9.1807 3.06485 10.554 2.75002 11.999 2.75002C13.4441 2.75002 14.8174 3.06485 16.0526 3.6302L21.7688 1.78624C22.0367 1.69983 22.3304 1.77067 22.5294 1.96969Z" fill="#141B34"/>
<path d="M17.0662 8.76342C17.4788 8.80067 17.7834 9.16532 17.7461 9.57786C17.7089 9.99015 17.3447 10.2943 16.9324 10.2574C16.9324 10.2574 16.8162 10.2511 16.7554 10.2502C16.6327 10.2484 16.4622 10.2515 16.2727 10.2709C16.0712 10.2916 15.878 10.3279 15.7072 10.3807L15.7817 10.6169C16.0668 11.5215 15.3049 12.2498 14.5227 12.2498C14.1017 12.2498 13.6984 12.058 13.457 11.7124C13.2008 11.3457 13.1643 10.8455 13.4438 10.4216C13.6496 10.1096 13.946 9.73085 14.3368 9.42042C14.9006 8.97268 15.6254 8.8295 16.1195 8.77878C16.3807 8.75198 16.8082 8.74013 17.0662 8.76342Z" fill="#141B34"/>
<path d="M6.932 8.76342C6.51946 8.80067 6.21486 9.16532 6.25211 9.57786C6.28933 9.99015 6.65353 10.2943 7.06577 10.2574C7.06577 10.2574 7.18203 10.2511 7.24285 10.2502C7.36549 10.2484 7.53602 10.2515 7.72551 10.2709C7.92706 10.2916 8.12025 10.3279 8.29098 10.3807L8.21652 10.6169C7.93137 11.5215 8.69328 12.2498 9.47546 12.2498C9.89654 12.2498 10.2998 12.058 10.5412 11.7124C10.7974 11.3457 10.8339 10.8455 10.5544 10.4216C10.3486 10.1096 10.0523 9.73085 9.66138 9.42042C9.09761 8.97268 8.37277 8.8295 7.87867 8.77878C7.6175 8.75198 7.19001 8.74013 6.932 8.76342Z" fill="#141B34"/>
<path fill-rule="evenodd" clip-rule="evenodd" d="M8.39944 16.0495C8.64825 15.7184 9.1184 15.6516 9.44957 15.9004C10.1598 16.434 11.0415 16.7499 11.9991 16.7499C12.9567 16.7499 13.8384 16.434 14.5486 15.9004C14.8797 15.6516 15.3499 15.7184 15.5987 16.0495C15.8475 16.3807 15.7807 16.8509 15.4496 17.0997C14.4885 17.8217 13.2927 18.2499 11.9991 18.2499C10.7054 18.2499 9.50962 17.8217 8.54857 17.0997C8.2174 16.8509 8.15064 16.3807 8.39944 16.0495Z" fill="#141B34"/>
</svg>
