<svg width="24" height="25" viewBox="0 0 24 25" fill="none" xmlns="http://www.w3.org/2000/svg">
<path opacity="0.4" d="M22.75 12.5479C22.75 13.5483 22.75 14.3635 22.68 14.9869C22.6101 15.6098 22.4552 16.224 21.9892 16.6584C21.7219 16.9075 21.3999 17.09 21.0477 17.188C20.4207 17.3623 19.8238 17.1455 19.2859 16.8576C18.7502 16.5708 17.2356 15.5075 17.2356 15.5075L17.2356 15.5075C16.589 15.0537 16.0491 14.6747 15.6595 14.3255C15.2552 13.9632 14.9135 13.5487 14.8 12.9943C14.7333 12.6685 14.7333 12.3319 14.8 12.0061C14.9135 11.4517 15.2552 11.0372 15.6595 10.6749C16.0491 10.3257 16.589 9.94668 17.2356 9.49284C17.2356 9.49284 18.7502 8.42961 19.2859 8.1428C19.8238 7.85489 20.4207 7.63807 21.0477 7.81243C21.3999 7.91035 21.7219 8.09286 21.9892 8.34202C22.4552 8.77638 22.6101 9.39061 22.68 10.0135C22.75 10.6368 22.75 11.4521 22.75 12.4525L22.75 12.4525L22.75 12.5479L22.75 12.5479Z" fill="#141B34"/>
<path opacity="0.4" d="M1.25 12.5479C1.24998 13.5483 1.24997 14.3635 1.31995 14.9869C1.38989 15.6098 1.54476 16.224 2.01076 16.6584C2.27806 16.9075 2.60012 17.09 2.9523 17.188C3.57932 17.3623 4.17619 17.1455 4.71405 16.8576C5.24983 16.5708 6.76442 15.5075 6.76442 15.5075L6.76443 15.5075C7.41099 15.0537 7.95093 14.6747 8.34055 14.3255C8.7448 13.9632 9.08646 13.5487 9.19998 12.9943C9.26668 12.6685 9.26668 12.3319 9.19998 12.0061C9.08646 11.4517 8.7448 11.0372 8.34055 10.6749C7.95092 10.3257 7.41098 9.94668 6.76441 9.49284C6.76441 9.49284 5.24984 8.42961 4.71406 8.1428C4.17619 7.85489 3.57933 7.63807 2.95231 7.81243C2.60013 7.91035 2.27806 8.09286 2.01076 8.34202C1.54476 8.77638 1.38989 9.39061 1.31995 10.0135C1.24997 10.6368 1.24998 11.4521 1.25 12.4525L1.25 12.4525L1.25 12.5479L1.25 12.5479Z" fill="#141B34"/>
<path fill-rule="evenodd" clip-rule="evenodd" d="M12 2.50024C12.5523 2.50024 13 2.94796 13 3.50024L13 7.00024C13 7.55253 12.5523 8.00024 12 8.00024C11.4477 8.00024 11 7.55253 11 7.00024L11 3.50024C11 2.94796 11.4477 2.50024 12 2.50024ZM12 9.50024C12.5523 9.50024 13 9.94796 13 10.5002L13 14.5002C13 15.0525 12.5523 15.5002 12 15.5002C11.4477 15.5002 11 15.0525 11 14.5002L11 10.5002C11 9.94796 11.4477 9.50024 12 9.50024ZM12 17.0002C12.5523 17.0002 13 17.448 13 18.0002L13 21.5002C13 22.0525 12.5523 22.5002 12 22.5002C11.4477 22.5002 11 22.0525 11 21.5002L11 18.0002C11 17.448 11.4477 17.0002 12 17.0002Z" fill="#141B34"/>
</svg>
