<svg width="24" height="25" viewBox="0 0 24 25" fill="none" xmlns="http://www.w3.org/2000/svg">
<path fill-rule="evenodd" clip-rule="evenodd" d="M4.2001 15.2532C4.19865 15.7519 4.1996 16.2363 4.21565 16.7159C4.23413 17.2679 3.81292 17.7307 3.27486 17.7497C2.73681 17.7686 2.28566 17.3365 2.26718 16.7846C2.2498 16.265 2.24903 15.7488 2.2505 15.2472C2.25211 14.695 2.68985 14.2486 3.22822 14.2502C3.76659 14.2519 4.20172 14.701 4.2001 15.2532ZM3.31074 18.6123C3.79127 18.3633 4.37762 18.5611 4.62037 19.054C4.99785 19.8206 5.60728 20.4434 6.35624 20.8277C6.83774 21.0748 7.03283 21.6755 6.79199 22.1694C6.55115 22.6634 5.96557 22.8635 5.48408 22.6164C4.36032 22.0398 3.44656 21.1059 2.88019 19.9558C2.63744 19.4629 2.8302 18.8614 3.31074 18.6123ZM8.75072 22.2502C8.75072 21.698 9.18715 21.2502 9.72553 21.2502L14.2746 21.2502C14.813 21.2502 15.2494 21.698 15.2494 22.2502C15.2494 22.8025 14.813 23.2502 14.2746 23.2502L9.72553 23.2502C9.18715 23.2502 8.75072 22.8025 8.75072 22.2502ZM17.1467 22.1861C16.912 21.6891 17.1146 21.091 17.5991 20.8502C18.3685 20.468 18.9947 19.8358 19.3796 19.054C19.6224 18.5611 20.2087 18.3633 20.6893 18.6123C21.1698 18.8614 21.3626 19.4629 21.1198 19.9558C20.5422 21.1287 19.6034 22.0767 18.4489 22.6502C17.9644 22.891 17.3814 22.6832 17.1467 22.1861ZM20.7251 17.7497C20.1871 17.7307 19.7659 17.2679 19.7843 16.7159C19.8004 16.2363 19.8013 15.7519 19.7999 15.2532C19.7983 14.701 20.2334 14.2519 20.7718 14.2502C21.3101 14.2486 21.7479 14.695 21.7495 15.2472C21.751 15.7488 21.7502 16.265 21.7328 16.7846C21.7143 17.3365 21.2632 17.7686 20.7251 17.7497Z" fill="#141B34"/>
<path opacity="0.4" d="M2.45976 5.99403C2.73883 4.62274 3.39376 3.31273 4.88042 2.45374C5.53536 2.07532 6.2686 1.90875 7.15152 1.82867C8.01629 1.75023 9.09505 1.75024 10.4644 1.75024L13.5365 1.75024C14.9058 1.75024 15.9846 1.75023 16.8493 1.82867C17.7323 1.90875 18.4655 2.07532 19.1204 2.45373C20.6071 3.31273 21.262 4.62274 21.5411 5.99403C21.7668 7.10318 21.7563 8.31739 21.747 9.39391L21.747 9.39393L21.747 9.39412C21.7452 9.60187 21.7435 9.80449 21.7435 10.0002C21.7435 10.9533 21.618 11.8501 21.0175 12.4703C20.4113 13.0965 19.5087 13.2502 18.4954 13.2502L5.50545 13.2502C4.49218 13.2502 3.58959 13.0965 2.98332 12.4703C2.38285 11.8501 2.25738 10.9533 2.25738 10.0002C2.25738 9.80444 2.25563 9.60175 2.25383 9.39393C2.24452 8.31741 2.23402 7.10319 2.45976 5.99403Z" fill="#141B34"/>
</svg>
