<svg width="24" height="25" viewBox="0 0 24 25" fill="none" xmlns="http://www.w3.org/2000/svg">
<path opacity="0.4" d="M12.0479 1.75024C13.0483 1.75023 13.8635 1.75021 14.4869 1.8202C15.1098 1.89014 15.724 2.04501 16.1584 2.511C16.4075 2.7783 16.59 3.10037 16.688 3.45255C16.8623 4.07957 16.6455 4.67643 16.3576 5.2143C16.0708 5.75007 15.0075 7.26466 15.0075 7.26466L15.0075 7.26468C14.5537 7.91124 14.1747 8.45117 13.8255 8.84079C13.4632 9.24505 13.0487 9.5867 12.4943 9.70022C12.1685 9.76692 11.8319 9.76692 11.5061 9.70022C10.9517 9.5867 10.5372 9.24505 10.1749 8.84079C9.82567 8.45117 9.44668 7.91123 8.99284 7.26466C8.99284 7.26466 7.92961 5.75008 7.6428 5.2143C7.35489 4.67643 7.13807 4.07957 7.31243 3.45255C7.41035 3.10037 7.59286 2.7783 7.84202 2.511C8.27638 2.04501 8.89061 1.89014 9.51354 1.8202C10.1368 1.75021 10.9521 1.75023 11.9525 1.75024H11.9525H12.0479H12.0479Z" fill="#141B34"/>
<path opacity="0.4" d="M12.0479 23.2502C13.0483 23.2503 13.8635 23.2503 14.4869 23.1803C15.1098 23.1104 15.724 22.9555 16.1584 22.4895C16.4075 22.2222 16.59 21.9001 16.688 21.5479C16.8623 20.9209 16.6455 20.3241 16.3576 19.7862C16.0708 19.2504 15.0075 17.7358 15.0075 17.7358L15.0075 17.7358C14.5537 17.0893 14.1747 16.5493 13.8255 16.1597C13.4632 15.7554 13.0487 15.4138 12.4943 15.3003C12.1685 15.2336 11.8319 15.2336 11.5061 15.3003C10.9517 15.4138 10.5372 15.7554 10.1749 16.1597C9.82567 16.5493 9.44668 17.0893 8.99284 17.7358C8.99284 17.7358 7.92961 19.2504 7.6428 19.7862C7.35489 20.3241 7.13807 20.9209 7.31243 21.5479C7.41035 21.9001 7.59286 22.2222 7.84202 22.4895C8.27638 22.9555 8.89061 23.1104 9.51354 23.1803C10.1368 23.2503 10.9521 23.2503 11.9525 23.2502H11.9525H12.0479H12.0479Z" fill="#141B34"/>
<path fill-rule="evenodd" clip-rule="evenodd" d="M2 12.5002C2 11.948 2.44772 11.5002 3 11.5002H6.5C7.05228 11.5002 7.5 11.948 7.5 12.5002C7.5 13.0525 7.05228 13.5002 6.5 13.5002H3C2.44772 13.5002 2 13.0525 2 12.5002ZM9 12.5002C9 11.948 9.44772 11.5002 10 11.5002H14C14.5523 11.5002 15 11.948 15 12.5002C15 13.0525 14.5523 13.5002 14 13.5002H10C9.44772 13.5002 9 13.0525 9 12.5002ZM16.5 12.5002C16.5 11.948 16.9477 11.5002 17.5 11.5002H21C21.5523 11.5002 22 11.948 22 12.5002C22 13.0525 21.5523 13.5002 21 13.5002H17.5C16.9477 13.5002 16.5 13.0525 16.5 12.5002Z" fill="#141B34"/>
</svg>
