<svg width="24" height="24" viewBox="0 0 24 24" fill="none" xmlns="http://www.w3.org/2000/svg">
<path fill-rule="evenodd" clip-rule="evenodd" d="M12.3748 5.26476C12.169 5.26292 12.0661 5.26199 12.0066 5.32291C11.947 5.38383 11.9503 5.49175 11.9571 5.70759C11.9591 5.77199 11.9601 5.83663 11.9601 5.90152C11.9601 9.26942 9.22988 11.9996 5.86197 11.9996C5.80975 11.9996 5.75768 11.999 5.70577 11.9977C5.4912 11.9923 5.38392 11.9896 5.32344 12.0491C5.26296 12.1086 5.26388 12.2109 5.26571 12.4154L5.3424 20.9565C5.43229 21.5922 5.65156 22.3305 6.39156 22.637C7.13156 22.9435 7.80869 22.5765 8.32177 22.1905C8.84828 21.7945 9.4774 21.1653 10.238 20.4046L20.4052 10.2375C21.1659 9.47683 21.7951 8.8477 22.1912 8.32119C22.5771 7.80811 22.9441 7.13098 22.6376 6.39098C22.3311 5.65098 21.5928 5.43171 20.9571 5.34182L12.3748 5.26476Z" fill="#141B34"/>
<circle opacity="0.4" cx="5.94238" cy="5.99023" r="4.5" fill="#141B34"/>
<path opacity="0.4" fill-rule="evenodd" clip-rule="evenodd" d="M13.033 19.7237C12.7928 19.9641 12.6728 20.0843 12.663 20.2762C12.6532 20.468 12.7355 20.5693 12.9002 20.7718C12.9482 20.8309 12.9999 20.8884 13.0557 20.9442C13.5112 21.3996 14.078 21.5853 14.7058 21.6697C15.3006 21.7497 16.0498 21.7497 16.9482 21.7496H18.0523C18.9507 21.7497 19.7 21.7497 20.2948 21.6697C20.9225 21.5853 21.4893 21.3996 21.9448 20.9442C22.4003 20.4887 22.586 19.9219 22.6704 19.2941C22.7503 18.6993 22.7503 17.9501 22.7503 17.0517V15.9476C22.7503 15.0492 22.7503 14.2999 22.6704 13.7051C22.586 13.0774 22.4003 12.5106 21.9448 12.0551C21.8866 11.9969 21.8265 11.943 21.7648 11.8933C21.5618 11.7298 21.4604 11.648 21.269 11.6584C21.0776 11.6687 20.9578 11.7887 20.7181 12.0287L13.033 19.7237Z" fill="#141B34"/>
</svg>
