<svg width="24" height="24" viewBox="0 0 24 24" fill="none" xmlns="http://www.w3.org/2000/svg">
<path opacity="0.4" d="M14.5604 2.25C14.5604 2.25 15.2831 2.24999 15.4863 2.26253C19.2856 2.49718 22.1069 5.8902 21.7133 9.70168C21.6922 9.90598 21.6522 10.1495 21.584 10.5639L20.7998 15.3333C20.6111 16.4812 20.4611 17.3936 20.2718 18.1197C20.0775 18.8654 19.8265 19.4806 19.3986 20.0092C19.0391 20.4533 18.6028 20.8282 18.1104 21.1152C17.5232 21.4576 16.8799 21.6081 16.1196 21.6801C15.3805 21.75 14.4669 21.75 13.3199 21.75H13.3198L12.0127 21.75C10.2602 21.7507 9.12015 21.7511 8.12495 21.2467C7.13131 20.7431 6.44956 19.8211 5.3983 18.3993L2.81148 14.9032C1.97373 13.771 2.08365 12.1881 3.07293 11.1854C4.28899 9.95279 6.30284 10.0998 7.33216 11.491L7.50569 11.7255V9.39148V9.39147C7.50568 9.02855 7.50568 8.8146 7.51577 8.62906C7.70216 5.20153 10.4049 2.45037 13.8075 2.26026C13.9914 2.24999 14.2032 2.24999 14.5604 2.25H14.5604Z" fill="#141B34"/>
<path fill-rule="evenodd" clip-rule="evenodd" d="M20.3023 18H14C13.4477 18 13 17.5523 13 17C13 16.4477 13.4477 16 14 16H20.6896C20.5585 16.7847 20.44 17.4447 20.3023 18Z" fill="#141B34"/>
</svg>
