<svg width="24" height="25" viewBox="0 0 24 25" fill="none" xmlns="http://www.w3.org/2000/svg">
<g clip-path="url(#clip0_2978_3539)">
<g opacity="0.4">
<path fill-rule="evenodd" clip-rule="evenodd" d="M19.5 12.3818C19.5 11.8296 19.9477 11.3818 20.5 11.3818H22.5C23.0523 11.3818 23.5 11.8296 23.5 12.3818C23.5 12.9341 23.0523 13.3818 22.5 13.3818H20.5C19.9477 13.3818 19.5 12.9341 19.5 12.3818Z" fill="#141B34"/>
<path fill-rule="evenodd" clip-rule="evenodd" d="M0.5 12.3818C0.5 11.8296 0.947715 11.3818 1.5 11.3818H3.5C4.05228 11.3818 4.5 11.8296 4.5 12.3818C4.5 12.9341 4.05228 13.3818 3.5 13.3818H1.5C0.947715 13.3818 0.5 12.9341 0.5 12.3818Z" fill="#141B34"/>
<path fill-rule="evenodd" clip-rule="evenodd" d="M12 4.88184C11.4477 4.88184 11 4.43412 11 3.88184V1.88184C11 1.32955 11.4477 0.881836 12 0.881836C12.5523 0.881836 13 1.32955 13 1.88184V3.88184C13 4.43412 12.5523 4.88184 12 4.88184Z" fill="#141B34"/>
<path fill-rule="evenodd" clip-rule="evenodd" d="M12 23.8818C11.4477 23.8818 11 23.4341 11 22.8818V20.8818C11 20.3296 11.4477 19.8818 12 19.8818C12.5523 19.8818 13 20.3296 13 20.8818V22.8818C13 23.4341 12.5523 23.8818 12 23.8818Z" fill="#141B34"/>
</g>
<path opacity="0.4" fill-rule="evenodd" clip-rule="evenodd" d="M8.29289 8.67473C8.68342 8.2842 9.31658 8.2842 9.70711 8.67473L12 10.9676L14.2929 8.67473C14.6834 8.28421 15.3166 8.28421 15.7071 8.67473C16.0976 9.06525 16.0976 9.69842 15.7071 10.0889L13.4142 12.3818L15.7071 14.6747C16.0976 15.0653 16.0976 15.6984 15.7071 16.0889C15.3166 16.4795 14.6834 16.4795 14.2929 16.0889L12 13.796L9.70711 16.0889C9.31658 16.4795 8.68342 16.4795 8.29289 16.0889C7.90237 15.6984 7.90237 15.0653 8.29289 14.6747L10.5858 12.3818L8.29289 10.0889C7.90237 9.69842 7.90237 9.06525 8.29289 8.67473Z" fill="#141B34"/>
<path fill-rule="evenodd" clip-rule="evenodd" d="M12.0137 4.88184C7.87154 4.88184 4.51367 8.2397 4.51367 12.3818C4.51367 16.524 7.87154 19.8818 12.0137 19.8818C16.1558 19.8818 19.5137 16.524 19.5137 12.3818C19.5137 8.2397 16.1558 4.88184 12.0137 4.88184ZM2.51367 12.3818C2.51367 7.13513 6.76697 2.88184 12.0137 2.88184C17.2604 2.88184 21.5137 7.13513 21.5137 12.3818C21.5137 17.6285 17.2604 21.8818 12.0137 21.8818C6.76697 21.8818 2.51367 17.6285 2.51367 12.3818Z" fill="#141B34"/>
</g>
<defs>
<clipPath id="clip0_2978_3539">
<rect width="24" height="24" fill="white" transform="translate(0 0.381836)"/>
</clipPath>
</defs>
</svg>
