<svg width="24" height="25" viewBox="0 0 24 25" fill="none" xmlns="http://www.w3.org/2000/svg">
<path fill-rule="evenodd" clip-rule="evenodd" d="M19.75 2.75C20.3023 2.75 20.75 3.15726 20.75 3.65963V4.84037C20.75 5.34274 20.3023 5.75 19.75 5.75C19.1977 5.75 18.75 5.34274 18.75 4.84037V3.65963C18.75 3.15726 19.1977 2.75 19.75 2.75Z" fill="#141B34"/>
<path fill-rule="evenodd" clip-rule="evenodd" d="M15 22.75C15 23.3023 14.5523 23.75 14 23.75L10 23.75C9.44772 23.75 9 23.3023 9 22.75C9 22.1977 9.44772 21.75 10 21.75L14 21.75C14.5523 21.75 15 22.1977 15 22.75Z" fill="#141B34"/>
<path fill-rule="evenodd" clip-rule="evenodd" d="M11.0359 3.96458L3.33416 6.69261C2.81357 6.87701 2.24206 6.60448 2.05766 6.08388C1.87326 5.56329 2.1458 4.99179 2.66639 4.80739L10.4015 2.06753C10.4236 2.05968 10.4461 2.05261 10.4687 2.04634C10.4959 2.03882 10.5229 2.03135 10.5496 2.02394C11.091 1.87385 11.5378 1.75 12.0003 1.75C12.4627 1.75 12.9095 1.87385 13.4509 2.02394C13.4777 2.03135 13.5046 2.03882 13.5318 2.04634C13.5545 2.05261 13.5769 2.05968 13.5991 2.06753L21.3342 4.80739C21.8547 4.99179 22.1273 5.56329 21.9429 6.08388C21.7585 6.60448 21.187 6.87701 20.6664 6.69261L12.9647 3.96458C12.3172 3.78581 12.1504 3.75 12.0003 3.75C11.8501 3.75 11.6833 3.78581 11.0359 3.96458Z" fill="#141B34"/>
<path opacity="0.4" d="M13.4649 2.28729L13.4007 2.26953C12.8429 2.11506 12.4275 2 12 2C11.5725 2 11.1571 2.11506 10.5993 2.26953L10.5351 2.28729C10.5181 2.29199 10.5013 2.29729 10.4847 2.30318L3.74959 4.68883C3.45014 4.7949 3.25 5.07811 3.25 5.39579V19.75C3.25 20.1642 3.58579 20.5 4 20.5H20C20.4142 20.5 20.75 20.1642 20.75 19.75V5.39579C20.75 5.07811 20.5499 4.7949 20.2504 4.68883L13.5153 2.30318C13.4987 2.29729 13.4819 2.29199 13.4649 2.28729Z" fill="#141B34"/>
<path fill-rule="evenodd" clip-rule="evenodd" d="M13.7946 12.4865C14.3569 12.866 14.75 13.4796 14.75 14.2872L14.75 20.5034H13.25L13.25 14.2872C13.25 14.023 13.1431 13.8565 12.9554 13.7299C12.7402 13.5846 12.404 13.4914 12.0178 13.5006C11.6329 13.5097 11.2827 13.6188 11.0512 13.7787C10.8366 13.927 10.75 14.0926 10.75 14.2872V20.5034H9.25L9.25 14.2872C9.25 13.505 9.66344 12.9143 10.1988 12.5445C10.7173 12.1863 11.3671 12.0156 11.9822 12.001C12.596 11.9865 13.2598 12.1256 13.7946 12.4865Z" fill="#141B34"/>
<path fill-rule="evenodd" clip-rule="evenodd" d="M10.5 8.75C10.5 7.92157 11.1716 7.25 12 7.25H12.0119C12.8404 7.25 13.5119 7.92157 13.5119 8.75C13.5119 9.57843 12.8404 10.25 12.0119 10.25H12C11.1716 10.25 10.5 9.57843 10.5 8.75Z" fill="#141B34"/>
</svg>
