<svg width="24" height="24" viewBox="0 0 24 24" fill="none" xmlns="http://www.w3.org/2000/svg">
<path opacity="0.4" d="M9.94877 1.77037C10.652 1.44359 11.2956 1.25 12.0002 1.25C12.7048 1.25 13.3483 1.44359 14.0516 1.77037L19.6394 5.07944C20.267 5.54083 20.7484 6.01311 21.0968 6.63212C21.4447 7.25014 21.6018 7.91095 21.6771 8.69506V15.3049C21.6018 16.0891 21.4447 16.7499 21.0968 17.3679C20.7484 17.9869 20.267 18.4592 19.6394 18.9206L14.0516 22.2296C13.3483 22.5564 12.7048 22.75 12.0002 22.75C11.2956 22.75 10.652 22.5564 9.94877 22.2296L4.36095 18.9206C3.73333 18.4592 3.25195 17.9869 2.90353 17.3679C2.55566 16.7499 2.3986 16.0891 2.32324 15.3049V8.69506C2.3986 7.91095 2.55566 7.25014 2.90353 6.63212C3.25196 6.01311 3.73333 5.54083 4.36095 5.07944L9.94877 1.77037Z" fill="#141B34"/>
<path d="M21.0966 6.63184C21.4445 7.24986 21.6016 7.91066 21.6769 8.69478V15.3047C21.6016 16.0888 21.4445 16.7496 21.0966 17.3676C20.7482 17.9866 20.2668 18.4589 19.6392 18.9203L14.0514 22.2294C13.3481 22.5561 12.7046 22.7497 12 22.7497C11.2954 22.7497 10.6518 22.5561 9.94856 22.2293L4.36074 18.9203C3.73312 18.4589 3.25174 17.9866 2.90332 17.3676L21.0966 6.63184Z" fill="#141B34"/>
</svg>
