<svg width="24" height="24" viewBox="0 0 24 24" fill="none" xmlns="http://www.w3.org/2000/svg">
<path opacity="0.4" d="M11.1423 10.7363C11.379 10.7363 11.5708 10.5478 11.5708 10.3151V3.03583C11.5708 2.32569 12.1465 1.75 12.8567 1.75C13.5668 1.75 14.1425 2.32573 14.1425 3.03591L14.1421 10.3151C14.1421 10.5478 14.3339 10.7363 14.5706 10.7363C14.8073 10.7363 14.9992 10.5478 14.9992 10.3151V5.0357C14.9992 4.32567 15.5747 3.75007 16.2848 3.75007C16.9948 3.75007 17.5704 4.32567 17.5704 5.0357V10.3151C17.5704 10.5478 17.7623 10.7363 17.9989 10.7363C18.2356 10.7363 18.4275 10.5478 18.4275 10.3151V7.05907C18.4275 6.34878 19.0033 5.77297 19.7136 5.77297C20.4239 5.77297 20.9997 6.34878 20.9997 7.05907V10.5001C20.9997 10.5138 20.9993 10.5274 20.9986 10.541V14.1925C20.9986 15.2572 20.9986 16.0922 20.9557 16.7674C20.9121 17.4543 20.8219 18.027 20.618 18.56C20.036 20.0809 18.8377 21.2835 17.32 21.8679C16.788 22.0727 16.2163 22.1632 15.5313 22.207C14.8578 22.2501 14.0255 22.2501 12.9643 22.2501C11.9171 22.2502 11.153 22.2503 10.5437 22.1159C9.61532 21.9112 8.75242 21.4783 8.0325 20.8564C7.56001 20.4483 7.1735 19.9312 6.54511 19.0905L3.29896 14.6108C3.23319 14.5243 3.17825 14.4326 3.13412 14.3373C3.05569 14.1117 3.01135 13.8772 3.00098 13.6417C3.0176 13.3414 3.12673 13.0454 3.32767 12.7977C3.88593 12.1097 4.92593 12.053 5.55755 12.6758L7.41045 14.5029C7.5329 14.6236 7.71733 14.6599 7.87763 14.5948C8.03793 14.5296 8.14249 14.376 8.14249 14.2055V5.0357C8.14249 4.32567 8.71808 3.75007 9.42811 3.75007C10.1381 3.75007 10.7137 4.32567 10.7137 5.0357V10.3151C10.7137 10.5478 10.9056 10.7363 11.1423 10.7363Z" fill="#141B34"/>
</svg>
