<svg width="24" height="24" viewBox="0 0 24 24" fill="none" xmlns="http://www.w3.org/2000/svg">
<path opacity="0.4" d="M4.36935 5.25295L19.6307 5.25295C19.8236 5.25283 19.9944 5.25272 20.1611 5.27797C20.9262 5.39383 21.5605 5.89064 21.9747 6.5567C22.0654 6.70257 22.1992 6.97395 22.3125 7.20395C22.475 7.53311 22.6067 7.79991 22.6673 8.02953C22.8068 8.55759 22.7646 9.10908 22.5804 9.57466C22.3995 10.0319 22.0442 10.4874 21.4932 10.6737C21.3326 10.728 21.1733 10.7413 21.0509 10.7471C20.9283 10.753 20.7783 10.753 20.6125 10.753L3.38747 10.753H3.38746C3.22173 10.753 3.07169 10.753 2.9491 10.7471C2.82668 10.7413 2.66742 10.728 2.50685 10.6737C1.95585 10.4874 1.60048 10.0319 1.41959 9.57466C1.23541 9.10908 1.19325 8.55759 1.33271 8.02952C1.39335 7.79989 1.52504 7.53314 1.68756 7.20393L1.68756 7.20393C1.80081 6.97402 1.93461 6.70253 2.0253 6.5567C2.43954 5.89064 3.07377 5.39383 3.83888 5.27797C4.0056 5.25272 4.17643 5.25283 4.36935 5.25295Z" fill="#141B34"/>
<path fill-rule="evenodd" clip-rule="evenodd" d="M5 14.0029C5 13.4506 5.44772 13.0029 6 13.0029L18 13.0029C18.5523 13.0029 19 13.4506 19 14.0029C19 14.5552 18.5523 15.0029 18 15.0029L6 15.0029C5.44772 15.0029 5 14.5552 5 14.0029Z" fill="#141B34"/>
<path d="M7 4.10618C7 4.06029 7.01188 4.03025 7.02258 4.01273L8.96557 4.54853C8.9672 4.55031 8.96938 4.55292 8.97199 4.55661C8.98501 4.57501 9 4.60962 9 4.6577V5.25246H11V4.6577C11 3.76146 10.4423 2.88112 9.50838 2.62357L7.50838 2.07204C6.1159 1.68804 5 2.86328 5 4.10618V5.25246H7V4.10618Z" fill="#141B34"/>
<path opacity="0.4" fill-rule="evenodd" clip-rule="evenodd" d="M5 18.0029C4.44772 18.0029 4 18.4506 4 19.0029C4 19.5552 4.44772 20.0029 5 20.0029C5.55228 20.0029 6 19.5552 6 19.0029C6 18.4506 5.55228 18.0029 5 18.0029ZM2 19.0029C2 17.3461 3.34315 16.0029 5 16.0029C6.65685 16.0029 8 17.3461 8 19.0029C8 20.6598 6.65685 22.0029 5 22.0029C3.34315 22.0029 2 20.6598 2 19.0029Z" fill="#141B34"/>
<path opacity="0.4" fill-rule="evenodd" clip-rule="evenodd" d="M19 18.0029C18.4477 18.0029 18 18.4506 18 19.0029C18 19.5552 18.4477 20.0029 19 20.0029C19.5523 20.0029 20 19.5552 20 19.0029C20 18.4506 19.5523 18.0029 19 18.0029ZM16 19.0029C16 17.3461 17.3431 16.0029 19 16.0029C20.6569 16.0029 22 17.3461 22 19.0029C22 20.6598 20.6569 22.0029 19 22.0029C17.3431 22.0029 16 20.6598 16 19.0029Z" fill="#141B34"/>
<path d="M19.5332 12.2094L20.6826 10.752L18.1355 10.752L17.9628 10.971C17.0636 12.1113 16.7721 13.6114 17.1835 15.0026L17.584 16.3568C18.0057 16.1305 18.4879 16.0022 19 16.0022C19.1989 16.0022 19.3933 16.0216 19.5814 16.0585L19.1014 14.4354C18.875 13.6699 19.034 12.8424 19.5332 12.2094Z" fill="#141B34"/>
<path d="M6.03813 10.971L5.86543 10.752L3.31836 10.752L4.46769 12.2094C4.9669 12.8424 5.12591 13.6699 4.89953 14.4354L4.41961 16.0583C4.60739 16.0215 4.80144 16.0022 5 16.0022C5.51244 16.0022 5.99487 16.1307 6.41684 16.3572L6.81743 15.0026C7.22883 13.6114 6.93736 12.1113 6.03813 10.971Z" fill="#141B34"/>
</svg>
