<svg width="24" height="24" viewBox="0 0 24 24" fill="none" xmlns="http://www.w3.org/2000/svg">
<path opacity="0.4" fill-rule="evenodd" clip-rule="evenodd" d="M4 2.74902C4.55228 2.74902 5 3.19674 5 3.74902V7.84738C5 8.39967 4.55228 8.84738 4 8.84738C3.44772 8.84738 3 8.39967 3 7.84738L3 3.74902C3 3.19674 3.44772 2.74902 4 2.74902Z" fill="#141B34"/>
<path opacity="0.4" d="M2.25 20.5C2.25 20.9142 2.58579 21.25 3 21.25H11C11.4142 21.25 11.75 20.9142 11.75 20.5L11.75 12.1998C11.75 12.0989 11.75 12.0484 11.7297 12.0069C11.7094 11.9653 11.6662 11.9317 11.5798 11.8644C11.365 11.6971 11.1993 11.5296 11.0872 11.4162L7.56912 7.89773C7.42368 7.75228 7.35096 7.67955 7.26257 7.68377C7.17419 7.68798 7.10872 7.7673 6.97778 7.92594L3.85579 11.7083C3.53063 12.1023 3.09644 12.3528 2.63344 12.4518C2.43714 12.4938 2.33898 12.5148 2.29449 12.5698C2.25 12.6248 2.25 12.7117 2.25 12.8856V20.5Z" fill="#141B34"/>
<path d="M8 17.5C8 16.9477 7.55228 16.5 7 16.5C6.44772 16.5 6 16.9477 6 17.5V21.25H8V17.5Z" fill="#141B34"/>
<path d="M7.01228 13.5C7.5621 13.5 8.00781 13.0523 8.00781 12.5C8.00781 11.9477 7.5621 11.5 7.01228 11.5H7.00334C6.45353 11.5 6.00781 11.9477 6.00781 12.5C6.00781 13.0523 6.45353 13.5 7.00334 13.5H7.01228Z" fill="#141B34"/>
<path opacity="0.4" fill-rule="evenodd" clip-rule="evenodd" d="M13.0602 12.5493C13.1206 12.4905 13.2324 12.4933 13.4562 12.4989C13.5511 12.5012 13.635 12.5008 13.7044 12.5004L21.3512 12.5C21.5385 12.5 21.6321 12.5 21.6907 12.5585C21.7492 12.617 21.7494 12.7102 21.7497 12.8967C21.7498 12.9995 21.7498 13.1045 21.7498 13.2117L21.7498 20.5C21.7498 20.9142 21.414 21.25 20.9998 21.25H13.4479C13.1977 21.25 13.0726 21.25 13.0131 21.1852C12.9537 21.1203 12.9666 20.9719 12.9923 20.675C12.9973 20.6174 12.9998 20.559 12.9998 20.5V12.9217C12.9998 12.7127 12.9998 12.6082 13.0602 12.5493ZM18 16.25C18.4142 16.25 18.75 15.9142 18.75 15.5C18.75 15.0858 18.4142 14.75 18 14.75L16 14.75C15.5858 14.75 15.25 15.0858 15.25 15.5C15.25 15.9142 15.5858 16.25 16 16.25L18 16.25Z" fill="#141B34"/>
<path fill-rule="evenodd" clip-rule="evenodd" d="M18 16.2499C18.4142 16.2499 18.75 15.9141 18.75 15.4999C18.75 15.0857 18.4142 14.7499 18 14.7499L16 14.7499C15.5858 14.7499 15.25 15.0857 15.25 15.4999C15.25 15.9141 15.5858 16.2499 16 16.2499L18 16.2499Z" fill="#141B34"/>
<path d="M17.2297 4.00884C16.672 3.74761 16.0493 3.74828 15.2633 3.74912L7.00002 3.74921C6.9932 3.74921 6.9864 3.74931 6.97961 3.74949C6.9338 3.75073 6.9109 3.75135 6.90651 3.75134C6.90213 3.75133 6.88506 3.75079 6.85091 3.74972C6.57514 3.74107 6.29839 3.85604 6.10807 4.08662L1.46524 9.71158C1.13694 10.1093 1.19017 10.7005 1.58414 11.032C1.9781 11.3634 2.56362 11.3097 2.89193 10.9119L6.74932 6.23854C6.94572 6.00059 7.04392 5.88162 7.1765 5.87529C7.30908 5.86897 7.41816 5.97805 7.63633 6.19622L11.9404 10.5005C12.17 10.7314 12.4178 10.9807 12.7445 11.116C13.0712 11.2513 13.4227 11.2503 13.7484 11.2494L22 11.2492C22.291 11.2492 22.5558 11.0809 22.6792 10.8173C22.8026 10.5538 22.7625 10.2426 22.5762 10.0191L18.6881 5.35322C18.1855 4.74881 17.7874 4.27007 17.2297 4.00884Z" fill="#141B34"/>
</svg>
