<svg width="24" height="24" viewBox="0 0 24 24" fill="none" xmlns="http://www.w3.org/2000/svg">
<path opacity="0.4" d="M22.7495 12C22.7495 6.06294 17.9366 1.25 11.9995 1.25C6.06245 1.25 1.24951 6.06294 1.24951 12C1.24951 17.9371 6.06245 22.75 11.9995 22.75C17.9366 22.75 22.7495 17.9371 22.7495 12Z" fill="#141B34"/>
<path fill-rule="evenodd" clip-rule="evenodd" d="M9.24936 6.33875C8.88415 6.75305 8.92395 7.38496 9.33825 7.75017L14.1594 12H7.99951C7.44723 12 6.99951 12.4477 6.99951 13C6.99951 13.5523 7.44723 14 7.99951 14H15.45C16.0848 14 16.6251 13.6377 16.8671 13.105C17.1154 12.5585 17.0226 11.8735 16.5115 11.4075L16.4991 11.3963L10.6608 6.24986C10.2465 5.88465 9.61456 5.92445 9.24936 6.33875ZM16.9995 17C16.9995 16.4477 16.5518 16 15.9995 16H7.99951C7.44723 16 6.99951 16.4477 6.99951 17C6.99951 17.5523 7.44723 18 7.99951 18H15.9995C16.5518 18 16.9995 17.5523 16.9995 17Z" fill="#141B34"/>
</svg>
