<svg width="24" height="25" viewBox="0 0 24 25" fill="none" xmlns="http://www.w3.org/2000/svg">
<path opacity="0.4" fill-rule="evenodd" clip-rule="evenodd" d="M11 6.00024C11 5.44796 11.4477 5.00024 12 5.00024L21 5.00025C21.5523 5.00025 22 5.44796 22 6.00025C22 6.55253 21.5523 7.00025 21 7.00025L12 7.00024C11.4477 7.00024 11 6.55253 11 6.00024Z" fill="#141B34"/>
<path opacity="0.4" fill-rule="evenodd" clip-rule="evenodd" d="M11 12.5002C11 11.948 11.4477 11.5002 12 11.5002L21 11.5002C21.5523 11.5002 22 11.948 22 12.5002C22 13.0525 21.5523 13.5002 21 13.5002L12 13.5002C11.4477 13.5002 11 13.0525 11 12.5002Z" fill="#141B34"/>
<path opacity="0.4" fill-rule="evenodd" clip-rule="evenodd" d="M11 19.0002C11 18.448 11.4477 18.0002 12 18.0002L21 18.0002C21.5523 18.0002 22 18.448 22 19.0002C22 19.5525 21.5523 20.0002 21 20.0002L12 20.0002C11.4477 20.0002 11 19.5525 11 19.0002Z" fill="#141B34"/>
<path fill-rule="evenodd" clip-rule="evenodd" d="M3.5378 2.63638C4.01485 2.3581 4.62717 2.51924 4.90545 2.99629L5.5 4.01553L6.09455 2.99629C6.37283 2.51924 6.98515 2.3581 7.4622 2.63638C7.93926 2.91466 8.10039 3.52698 7.82211 4.00403L7.24104 5.00016H8C8.55228 5.00016 9 5.44788 9 6.00016C9 6.55245 8.55228 7.00016 8 7.00016H7.24104L7.82211 7.99629C8.10039 8.47334 7.93926 9.08566 7.4622 9.36394C6.98515 9.64222 6.37283 9.48109 6.09455 9.00403L5.5 7.9848L4.90545 9.00403C4.62717 9.48109 4.01485 9.64222 3.5378 9.36394C3.06074 9.08566 2.89961 8.47334 3.17789 7.99629L3.75896 7.00016H3C2.44772 7.00016 2 6.55245 2 6.00016C2 5.44788 2.44772 5.00016 3 5.00016H3.75896L3.17789 4.00403C2.89961 3.52698 3.06074 2.91466 3.5378 2.63638Z" fill="#141B34"/>
<path fill-rule="evenodd" clip-rule="evenodd" d="M3.5378 15.6364C4.01485 15.3581 4.62717 15.5192 4.90545 15.9963L5.5 17.0155L6.09455 15.9963C6.37283 15.5192 6.98515 15.3581 7.4622 15.6364C7.93926 15.9147 8.10039 16.527 7.82211 17.004L7.24104 18.0002H8C8.55228 18.0002 9 18.4479 9 19.0002C9 19.5524 8.55228 20.0002 8 20.0002H7.24104L7.82211 20.9963C8.10039 21.4733 7.93926 22.0857 7.4622 22.3639C6.98515 22.6422 6.37283 22.4811 6.09455 22.004L5.5 20.9848L4.90545 22.004C4.62717 22.4811 4.01485 22.6422 3.5378 22.3639C3.06074 22.0857 2.89961 21.4733 3.17789 20.9963L3.75896 20.0002H3C2.44772 20.0002 2 19.5524 2 19.0002C2 18.4479 2.44772 18.0002 3 18.0002H3.75896L3.17789 17.004C2.89961 16.527 3.06074 15.9147 3.5378 15.6364Z" fill="#141B34"/>
</svg>
