<svg width="24" height="25" viewBox="0 0 24 25" fill="none" xmlns="http://www.w3.org/2000/svg">
<path opacity="0.4" fill-rule="evenodd" clip-rule="evenodd" d="M2 6.00024C2 5.44796 2.44772 5.00024 3 5.00024L12 5.00025C12.5523 5.00025 13 5.44796 13 6.00025C13 6.55253 12.5523 7.00025 12 7.00025L3 7.00024C2.44772 7.00024 2 6.55253 2 6.00024Z" fill="#141B34"/>
<path opacity="0.4" fill-rule="evenodd" clip-rule="evenodd" d="M2 12.5002C2 11.948 2.44772 11.5002 3 11.5002L12 11.5002C12.5523 11.5002 13 11.948 13 12.5002C13 13.0525 12.5523 13.5002 12 13.5002L3 13.5002C2.44772 13.5002 2 13.0525 2 12.5002Z" fill="#141B34"/>
<path opacity="0.4" fill-rule="evenodd" clip-rule="evenodd" d="M2 19.0002C2 18.448 2.44772 18.0002 3 18.0002L12 18.0002C12.5523 18.0002 13 18.448 13 19.0002C13 19.5525 12.5523 20.0002 12 20.0002L3 20.0002C2.44772 20.0002 2 19.5525 2 19.0002Z" fill="#141B34"/>
<path fill-rule="evenodd" clip-rule="evenodd" d="M16.5378 2.63638C17.0148 2.3581 17.6272 2.51924 17.9054 2.99629L18.5 4.01553L19.0946 2.99629C19.3728 2.51924 19.9852 2.3581 20.4622 2.63638C20.9393 2.91466 21.1004 3.52698 20.8221 4.00403L20.241 5.00016H21C21.5523 5.00016 22 5.44788 22 6.00016C22 6.55245 21.5523 7.00016 21 7.00016H20.241L20.8221 7.99629C21.1004 8.47334 20.9393 9.08566 20.4622 9.36394C19.9852 9.64222 19.3728 9.48109 19.0946 9.00403L18.5 7.9848L17.9054 9.00403C17.6272 9.48109 17.0148 9.64222 16.5378 9.36394C16.0607 9.08566 15.8996 8.47334 16.1779 7.99629L16.759 7.00016H16C15.4477 7.00016 15 6.55245 15 6.00016C15 5.44788 15.4477 5.00016 16 5.00016H16.759L16.1779 4.00403C15.8996 3.52698 16.0607 2.91466 16.5378 2.63638Z" fill="#141B34"/>
<path fill-rule="evenodd" clip-rule="evenodd" d="M16.5378 15.6364C17.0148 15.3581 17.6272 15.5192 17.9054 15.9963L18.5 17.0155L19.0946 15.9963C19.3728 15.5192 19.9852 15.3581 20.4622 15.6364C20.9393 15.9147 21.1004 16.527 20.8221 17.004L20.241 18.0002H21C21.5523 18.0002 22 18.4479 22 19.0002C22 19.5524 21.5523 20.0002 21 20.0002H20.241L20.8221 20.9963C21.1004 21.4733 20.9393 22.0857 20.4622 22.3639C19.9852 22.6422 19.3728 22.4811 19.0946 22.004L18.5 20.9848L17.9054 22.004C17.6272 22.4811 17.0148 22.6422 16.5378 22.3639C16.0607 22.0857 15.8996 21.4733 16.1779 20.9963L16.759 20.0002H16C15.4477 20.0002 15 19.5524 15 19.0002C15 18.4479 15.4477 18.0002 16 18.0002H16.759L16.1779 17.004C15.8996 16.527 16.0607 15.9147 16.5378 15.6364Z" fill="#141B34"/>
</svg>
