<svg width="24" height="25" viewBox="0 0 24 25" fill="none" xmlns="http://www.w3.org/2000/svg">
<path opacity="0.4" fill-rule="evenodd" clip-rule="evenodd" d="M9.18557 2.95052C9.2129 3.50213 8.7879 3.97146 8.23629 3.9988C6.16432 4.10148 5.19943 4.40811 4.55377 5.05377C3.90811 5.69943 3.60148 6.66432 3.4988 8.73629C3.47146 9.2879 3.00213 9.71291 2.45052 9.68557C1.89892 9.65823 1.47391 9.1889 1.50125 8.6373C1.60669 6.50982 1.92267 4.85645 3.13956 3.63956C4.35645 2.42267 6.00982 2.10669 8.13729 2.00125C8.6889 1.97391 9.15823 2.39892 9.18557 2.95052ZM14.8145 2.95052C14.8418 2.39892 15.3111 1.97391 15.8628 2.00125C17.9902 2.10669 19.6436 2.42267 20.8605 3.63956C22.0774 4.85645 22.3934 6.50982 22.4988 8.6373C22.5261 9.1889 22.1011 9.65823 21.5495 9.68557C20.9979 9.71291 20.5286 9.2879 20.5012 8.73629C20.3986 6.66432 20.0919 5.69943 19.4463 5.05377C18.8006 4.40811 17.8357 4.10148 15.7638 3.9988C15.2121 3.97146 14.7871 3.50213 14.8145 2.95052ZM2.45052 15.3145C3.00213 15.2871 3.47146 15.7121 3.4988 16.2638C3.60148 18.3357 3.90811 19.3006 4.55377 19.9463C5.19943 20.5919 6.16432 20.8986 8.23629 21.0012C8.78789 21.0286 9.2129 21.4979 9.18556 22.0495C9.15822 22.6011 8.68889 23.0261 8.13729 22.9988C6.00982 22.8934 4.35645 22.5774 3.13956 21.3605C1.92267 20.1436 1.60669 18.4902 1.50125 16.3628C1.47391 15.8111 1.89892 15.3418 2.45052 15.3145ZM21.5495 15.3145C22.1011 15.3418 22.5261 15.8111 22.4988 16.3628C22.3934 18.4902 22.0774 20.1436 20.8605 21.3605C19.6436 22.5774 17.9902 22.8934 15.8628 22.9988C15.3111 23.0261 14.8418 22.6011 14.8145 22.0495C14.7871 21.4979 15.2121 21.0286 15.7638 21.0012C17.8357 20.8986 18.8006 20.5919 19.4463 19.9463C20.0919 19.3006 20.3986 18.3357 20.5012 16.2638C20.5286 15.7121 20.9979 15.2871 21.5495 15.3145Z" fill="#141B34"/>
<path fill-rule="evenodd" clip-rule="evenodd" d="M8.5 10.5276V9.75C8.5 7.817 10.067 6.25 12 6.25C13.933 6.25 15.5 7.817 15.5 9.75V10.5276C16.3375 10.8914 16.9608 11.6611 17.092 12.5945C17.1761 13.1922 17.25 13.8346 17.25 14.5C17.25 15.1654 17.1761 15.8078 17.092 16.4055C16.9137 17.6732 15.828 18.6388 14.5307 18.6959C13.7225 18.7315 12.9021 18.75 12 18.75C11.0979 18.75 10.2775 18.7315 9.46933 18.6959C8.17205 18.6388 7.08626 17.6732 6.90795 16.4055C6.82389 15.8078 6.75 15.1654 6.75 14.5C6.75 13.8346 6.82389 13.1922 6.90795 12.5945C7.03924 11.6611 7.66254 10.8914 8.5 10.5276ZM10.5 9.75C10.5 8.92157 11.1716 8.25 12 8.25C12.8284 8.25 13.5 8.92157 13.5 9.75V10.2684C13.0184 10.2562 12.5229 10.25 12 10.25C11.4771 10.25 10.9816 10.2562 10.5 10.2684V9.75Z" fill="#141B34"/>
</svg>
