<svg width="24" height="24" viewBox="0 0 24 24" fill="none" xmlns="http://www.w3.org/2000/svg">
<path opacity="0.4" d="M12.0572 1.75C14.2479 1.74999 15.9686 1.74998 17.312 1.93059C18.6886 2.11568 19.7809 2.50272 20.6391 3.36091C21.4973 4.21911 21.8843 5.31137 22.0694 6.68802C22.25 8.03144 22.25 9.7521 22.25 11.9428V11.9428V12.0572V12.0572C22.25 14.2479 22.25 15.9686 22.0694 17.312C21.8843 18.6886 21.4973 19.7809 20.6391 20.6391C19.7809 21.4973 18.6886 21.8843 17.312 22.0694C15.9686 22.25 14.2479 22.25 12.0572 22.25H12.0572H11.9428H11.9428C9.7521 22.25 8.03144 22.25 6.68802 22.0694C5.31137 21.8843 4.21911 21.4973 3.36091 20.6391C2.50272 19.7809 2.11568 18.6886 1.93059 17.312C1.74998 15.9686 1.74999 14.2479 1.75 12.0572V11.9428C1.74999 9.75212 1.74998 8.03144 1.93059 6.68802C2.11568 5.31137 2.50272 4.21911 3.36091 3.36091C4.21911 2.50272 5.31137 2.11568 6.68802 1.93059C8.03144 1.74998 9.75212 1.74999 11.9428 1.75H12.0572Z" fill="#141B34"/>
<path fill-rule="evenodd" clip-rule="evenodd" d="M14.9999 1.77241C14.3869 1.75657 13.7216 1.75188 12.9999 1.75049V6.99991L12.9999 7.06574C12.9999 7.95222 12.9998 8.71604 13.0821 9.3277C13.1702 9.98322 13.3689 10.6116 13.8786 11.1212C14.3883 11.6309 15.0166 11.8296 15.6721 11.9178C16.2838 12 17.0476 12 17.9341 11.9999L17.9999 11.9999C18.5522 11.9999 18.9999 11.5522 18.9999 10.9999C18.9999 10.4476 18.5522 9.99991 17.9999 9.99991C17.0288 9.99991 16.4011 9.99778 15.9386 9.9356C15.5049 9.87729 15.3689 9.78314 15.2928 9.70701C15.2167 9.63089 15.1225 9.49494 15.0642 9.0612C15.002 8.5987 14.9999 7.97099 14.9999 6.99991V1.77241ZM1.75049 10.9999C1.75188 10.2782 1.75657 9.6129 1.77241 8.99991H4.99991C5.97099 8.99991 6.5987 8.99778 7.0612 8.9356C7.49494 8.87729 7.63089 8.78314 7.70701 8.70701C7.78314 8.63089 7.87729 8.49494 7.9356 8.0612C7.99778 7.5987 7.99991 6.97099 7.99991 5.99991C7.99991 5.44762 8.44762 4.99991 8.99991 4.99991C9.55219 4.99991 9.99991 5.44762 9.99991 5.99991L9.99991 6.06574C9.99996 6.95223 10 7.71604 9.91777 8.3277C9.82963 8.98321 9.63089 9.61157 9.12123 10.1212C8.61157 10.6309 7.98321 10.8296 7.3277 10.9178C6.71606 11 5.95228 11 5.06583 10.9999H5.0658H5.06574L4.99991 10.9999H1.75049ZM1.81192 15.9999C1.77794 15.3946 1.76258 14.7297 1.75563 13.9999H5.99991C6.55219 13.9999 6.99991 14.4476 6.99991 14.9999C6.99991 15.5522 6.55219 15.9999 5.99991 15.9999H1.81192ZM15.9999 22.1879C15.3946 22.2219 14.7297 22.2372 13.9999 22.2442V15.9999H9.99991C9.44762 15.9999 8.99991 15.5522 8.99991 14.9999C8.99991 14.4476 9.44762 13.9999 9.99991 13.9999H22.2442C22.2372 14.7297 22.2219 15.3946 22.1879 15.9999H15.9999V22.1879Z" fill="#141B34"/>
</svg>
