<svg width="24" height="24" viewBox="0 0 24 24" fill="none" xmlns="http://www.w3.org/2000/svg">
<path opacity="0.4" d="M17 0.999756H7V10.9842L9.77497 12.2844L9.92045 12.3528C10.6579 12.6997 11.2958 12.9998 12 12.9998C12.7042 12.9998 13.3421 12.6997 14.0795 12.3528L14.225 12.2844L17 10.9842L17 0.999756Z" fill="#141B34"/>
<path fill-rule="evenodd" clip-rule="evenodd" d="M6.06144 0.999935C6.11499 0.999965 6.16933 0.999995 6.22449 0.999995H17.7759C17.8311 0.999995 17.8854 0.999965 17.9389 0.999935C18.9191 0.999391 19.6326 0.998995 20.2402 1.18643C21.4188 1.55003 22.3775 2.42097 22.7891 3.57326C23.0017 4.16835 23.0011 4.86506 23.0003 5.75811C23.0002 5.81327 23.0002 5.86917 23.0002 5.92585C23.0002 5.95357 23.0002 5.98115 23.0003 6.00859C23.0007 6.37699 23.0011 6.72082 22.9206 7.04739C22.7659 7.67494 22.3966 8.22334 21.887 8.61595C21.6235 8.81896 21.3105 8.96531 20.9518 9.13299C20.9268 9.14468 20.9015 9.15648 20.8761 9.1684L14.2252 12.2847C14.1763 12.3076 14.1278 12.3304 14.0797 12.353C13.3423 12.6999 12.7044 13 12.0002 13C11.296 13 10.6581 12.6999 9.92065 12.353C9.87259 12.3304 9.82411 12.3076 9.77516 12.2847L3.12429 9.1684C3.09884 9.15648 3.07362 9.14468 3.04861 9.13299C2.68991 8.96531 2.37686 8.81896 2.11338 8.61595C1.60381 8.22334 1.2345 7.67494 1.07978 7.04739C0.999267 6.72082 0.999682 6.37698 1.00013 6.00859C1.00016 5.98115 1.00019 5.95357 1.00019 5.92585C1.00019 5.86917 1.00014 5.81327 1.00009 5.75811C0.999303 4.86505 0.998686 4.16835 1.21125 3.57326C1.62285 2.42097 2.58163 1.55003 3.76021 1.18643C4.36774 0.998995 5.08127 0.999391 6.06144 0.999935ZM6.22449 2.99999C5.01045 2.99999 4.62958 3.01123 4.34982 3.09754C3.7311 3.28843 3.27974 3.728 3.0947 4.24603C3.01483 4.46964 3.00019 4.78222 3.00019 5.92585C3.00019 6.42906 3.00712 6.50975 3.02164 6.56865C3.06323 6.73734 3.16695 6.90292 3.33405 7.03166C3.40046 7.08283 3.49571 7.13378 3.97286 7.35734L10.6237 10.4736C11.5905 10.9266 11.799 11 12.0002 11C12.2014 11 12.4099 10.9266 13.3767 10.4736L20.0275 7.35734C20.5047 7.13378 20.5999 7.08283 20.6663 7.03166C20.8334 6.90292 20.9372 6.73734 20.9787 6.56865C20.9933 6.50975 21.0002 6.42906 21.0002 5.92585C21.0002 4.78222 20.9856 4.46964 20.9057 4.24603C20.7206 3.728 20.2693 3.28843 19.6506 3.09754C19.3708 3.01123 18.9899 2.99999 17.7759 2.99999H6.22449Z" fill="#141B34"/>
<path d="M12 12.2498C11.6556 12.2498 11.356 12.3465 11.0707 12.479C10.8078 12.6011 10.5108 12.7769 10.1759 12.975L9.11841 13.6005C8.7702 13.8065 8.46236 13.9886 8.2193 14.1678C7.95498 14.3627 7.72183 14.5858 7.54973 14.8952C7.37872 15.2027 7.31016 15.5199 7.27898 15.8494C7.24997 16.1562 7.24998 16.524 7.25 16.9463V18.0531C7.24998 18.4755 7.24997 18.8433 7.27898 19.1501C7.31016 19.4796 7.37872 19.7968 7.54973 20.1043C7.72183 20.4138 7.95498 20.6368 8.2193 20.8317C8.46236 21.0109 8.77021 21.193 9.11842 21.399L10.1759 22.0245C10.5107 22.2226 10.8078 22.3984 11.0707 22.5205C11.356 22.6531 11.6556 22.7498 12 22.7498C12.3444 22.7498 12.644 22.6531 12.9293 22.5205C13.1922 22.3984 13.4893 22.2226 13.8241 22.0245L14.8816 21.399C15.2298 21.193 15.5376 21.0109 15.7807 20.8317C16.045 20.6368 16.2782 20.4138 16.4503 20.1043C16.6213 19.7968 16.6898 19.4796 16.721 19.1501C16.75 18.8433 16.75 18.4755 16.75 18.0531V16.9464C16.75 16.524 16.75 16.1562 16.721 15.8494C16.6898 15.5199 16.6213 15.2027 16.4503 14.8952C16.2782 14.5858 16.045 14.3627 15.7807 14.1678C15.5376 13.9886 15.2298 13.8065 14.8816 13.6005L13.8241 12.975C13.4893 12.7769 13.1922 12.6011 12.9293 12.479C12.644 12.3465 12.3444 12.2498 12 12.2498Z" fill="#141B34"/>
</svg>
