<svg width="24" height="24" viewBox="0 0 24 24" fill="none" xmlns="http://www.w3.org/2000/svg">
<path opacity="0.4" d="M1.25002 12C1.25002 6.06294 6.06296 1.25 12 1.25C17.9371 1.25 22.75 6.06294 22.75 12C22.75 17.9371 17.9371 22.75 12 22.75C10.5191 22.75 9.10634 22.4501 7.82056 21.9071C7.48326 21.7646 7.25534 21.6686 7.08019 21.6045C6.90154 21.539 6.83692 21.5298 6.82026 21.5287C6.72635 21.5222 6.59867 21.5459 5.99264 21.7081L2.19387 22.7245C1.93512 22.7937 1.65909 22.7197 1.46969 22.5303C1.28029 22.3409 1.20627 22.0649 1.2755 21.8061L2.29192 18.0074C2.45407 17.4013 2.47783 17.2737 2.47134 17.1798C2.47018 17.1631 2.46099 17.0985 2.39557 16.9198C2.33142 16.7447 2.23539 16.5168 2.09293 16.1795C1.54989 14.8937 1.25002 13.4809 1.25002 12Z" fill="#141B34"/>
<path d="M14.6095 14.3766C14.3662 14.5347 14.0649 14.6585 13.7007 14.6585C13.1231 14.6585 12.7038 14.3472 12.423 14.0816C12.1615 13.8343 11.8809 13.4887 11.5886 13.1287L11.5886 13.1287L11.5516 13.0831L10.8807 12.2572C10.5626 11.8656 10.0052 11.8338 9.63426 12.1729L6.65296 14.8981C6.50245 15.0357 6.27478 15.0337 6.12649 14.8936C5.98349 14.7585 5.95857 14.5363 6.06795 14.3714L8.75817 10.3156C8.8967 10.1068 8.96596 10.0024 9.11639 9.85306C9.26682 9.70375 9.30804 9.67698 9.39049 9.62342C9.6338 9.46537 9.93512 9.34157 10.2993 9.34157C10.8769 9.34157 11.2963 9.65286 11.577 9.91841C11.8385 10.1657 12.1192 10.5114 12.4115 10.8713L12.4115 10.8713L12.4485 10.9169L13.1194 11.7428C13.4375 12.1344 13.9948 12.1662 14.3658 11.8271L17.347 9.10193C17.4975 8.96434 17.7252 8.96626 17.8735 9.10638C18.0165 9.24149 18.0414 9.4637 17.9321 9.62858L15.2419 13.6844C15.1034 13.8932 15.0341 13.9977 14.8836 14.147C14.7332 14.2963 14.692 14.3231 14.6095 14.3766Z" fill="#141B34"/>
</svg>
