<svg width="24" height="24" viewBox="0 0 24 24" fill="none" xmlns="http://www.w3.org/2000/svg">
<path opacity="0.4" d="M13.5984 1.25C15.6213 1.24999 17.2169 1.24997 18.4569 1.4181C19.729 1.59057 20.7481 1.95352 21.5291 2.77292C22.3117 3.59401 22.6175 4.62406 22.7132 5.89166C22.8063 7.12422 22.7066 8.69568 22.5805 10.6837V10.6838L22.4387 12.9203C22.3408 14.4711 22.2784 15.4601 21.9101 16.2673C21.3732 17.4439 20.3843 18.3578 19.1656 18.8103C18.3301 19.1205 17.3304 19.1202 15.7497 19.1198C15.337 19.1198 15.1914 19.2109 15.1393 19.2505L10.8704 22.0557C10.5511 22.2656 10.2452 22.4667 9.98278 22.5889C9.70813 22.7167 9.26645 22.8615 8.81009 22.6208C8.34947 22.3778 8.22361 21.9275 8.17848 21.6266C8.13575 21.3417 8.13583 20.9777 8.13591 20.6004L8.13592 19.6601C8.13592 19.1903 7.70097 19.1042 7.4835 19.1198C6.6206 19.1199 6.07644 19.12 5.6016 19.0266C3.77266 18.667 2.3029 17.3112 1.82126 15.5217C1.6963 15.0574 1.66225 14.5191 1.60871 13.6729L1.41919 10.6838C1.29311 8.69571 1.19346 7.12423 1.2865 5.89166C1.38219 4.62406 1.68806 3.59401 2.47065 2.77292C3.25161 1.95352 4.27071 1.59057 5.54283 1.4181C6.78286 1.24997 8.37841 1.24999 10.4013 1.25H13.5984Z" fill="#141B34"/>
<path fill-rule="evenodd" clip-rule="evenodd" d="M15.2425 7.34714C14.882 7.76547 14.9288 8.3969 15.3471 8.75748L16.5737 9.81467L17.2265 9.05721L16.5737 9.81467C16.6552 9.88498 16.7256 9.94562 16.7876 10C16.7256 10.0544 16.6552 10.1151 16.5737 10.1854L15.3471 11.2426C14.9288 11.6031 14.882 12.2346 15.2425 12.6529C15.6031 13.0712 16.2345 13.1181 16.6529 12.7575L17.8794 11.7003C17.8917 11.6897 17.9041 11.679 17.9165 11.6684C18.1415 11.4746 18.3806 11.2686 18.5554 11.0711C18.7531 10.8478 19 10.4934 19 10C19 9.50662 18.7531 9.15222 18.5554 8.92891C18.3806 8.7314 18.1415 8.52548 17.9165 8.33166C17.9041 8.32098 17.8917 8.31034 17.8794 8.29975C17.8794 8.29975 17.8794 8.29975 17.8794 8.29974L16.6529 7.24255C16.2345 6.88198 15.6031 6.9288 15.2425 7.34714Z" fill="#141B34"/>
<path fill-rule="evenodd" clip-rule="evenodd" d="M8.75746 7.34714C9.11804 7.76547 9.07121 8.3969 8.65288 8.75748L7.42634 9.81467L6.77346 9.05721L7.42634 9.81467C7.34477 9.88498 7.27445 9.94562 7.21242 10C7.27445 10.0544 7.34477 10.1151 7.42634 10.1854L8.65288 11.2426C9.07121 11.6031 9.11804 12.2346 8.75746 12.6529C8.39689 13.0712 7.76546 13.1181 7.34712 12.7575L6.12058 11.7003C6.10828 11.6897 6.09593 11.679 6.08353 11.6684C5.8585 11.4746 5.61941 11.2686 5.44458 11.0711C5.24691 10.8478 5 10.4934 5 10C5 9.50662 5.24691 9.15222 5.44458 8.92891C5.61941 8.7314 5.85851 8.52548 6.08354 8.33166C6.09593 8.32098 6.10828 8.31034 6.12058 8.29975C6.12058 8.29975 6.12058 8.29975 6.12058 8.29974L7.34712 7.24255C7.76546 6.88198 8.39689 6.9288 8.75746 7.34714Z" fill="#141B34"/>
<path fill-rule="evenodd" clip-rule="evenodd" d="M13.3165 6.05159C13.8404 6.22624 14.1236 6.79256 13.949 7.3165L11.949 13.3165C11.7743 13.8404 11.208 14.1236 10.684 13.949C10.1601 13.7743 9.87694 13.208 10.0516 12.684L12.0516 6.68404C12.2262 6.1601 12.7926 5.87694 13.3165 6.05159Z" fill="#141B34"/>
</svg>
