<svg width="24" height="24" viewBox="0 0 24 24" fill="none" xmlns="http://www.w3.org/2000/svg">
<path opacity="0.4" fill-rule="evenodd" clip-rule="evenodd" d="M8.99958 9.40934C8.99968 9.21448 8.99973 9.11706 9.05831 9.05852C9.11688 8.99998 9.21308 8.99998 9.40548 8.99998H16.5993C16.7879 8.99998 16.8821 8.99998 16.9407 9.05855C16.9993 9.11713 16.9993 9.21141 16.9993 9.39998V9.99998C16.9993 10.5523 17.447 11 17.9993 11C18.5516 11 18.9993 10.5523 18.9993 9.99998V7.99998C18.9993 7.76583 18.9171 7.5391 18.7671 7.35931L16.6855 4.8645C16.4508 4.58318 16.4709 4.23631 16.4908 3.89476C16.4938 3.84396 16.4967 3.79328 16.4988 3.74296C16.5169 3.30902 16.5251 2.58895 16.0544 1.94719C15.5946 1.32032 14.9398 1.11259 14.4258 1.04119C14.0564 0.989868 13.6347 0.998638 13.3487 1.00459C12.0372 1.03186 10.7255 1.02365 9.41389 1.01544C8.78928 1.01153 8.16469 1.00762 7.54012 1.00755C6.97836 1.00748 6.46104 1.00741 6.03977 1.06398C5.5751 1.12638 5.0806 1.27359 4.6734 1.68028C4.26603 2.08714 4.11839 2.58152 4.05584 3.0462C3.99916 3.46724 3.99923 3.98418 3.9993 4.54516C3.9993 4.57116 3.98897 4.59609 3.97059 4.61448C3.43561 5.14945 2.90135 5.68516 2.36555 6.21931C1.88481 6.69858 1.45814 7.12393 1.22766 7.68035C0.997194 8.23676 0.998119 8.8392 0.999162 9.51801C1.0021 11.428 1.00116 13.338 1.00022 15.2479C0.999762 16.1872 0.999301 17.1265 0.999301 18.0658C0.999251 18.9523 0.999208 19.7161 1.08144 20.3278C1.16958 20.9833 1.36832 21.6116 1.87798 22.1213C2.38765 22.631 3.016 22.8297 3.67151 22.9178C4.28318 23.0001 5.047 23 5.9335 23L10.9993 23C11.5516 23 11.9993 22.5523 11.9993 22C11.9993 21.4477 11.5516 21 10.9993 21H9.3993C9.21074 21 9.11647 21 9.05789 20.9414C8.99931 20.8828 8.9993 20.7885 8.99928 20.6C8.99917 19.4679 8.99861 18.3358 8.99805 17.2038C8.99678 14.6418 8.99551 12.0799 8.99944 9.51801C8.9995 9.48157 8.99956 9.44534 8.99958 9.40934ZM5.28215 6.69703C5.14881 6.5637 5.08215 6.49703 4.9993 6.49703C4.91646 6.49703 4.84979 6.5637 4.71646 6.69703L3.87798 7.53551C3.24223 8.17127 3.13384 8.30468 3.07542 8.44572C3.017 8.58676 2.9993 8.75773 2.9993 9.65683V18C2.9993 18.9711 3.00143 19.5988 3.06361 20.0613C3.12192 20.495 3.21607 20.631 3.2922 20.7071C3.36832 20.7832 3.50427 20.8774 3.93801 20.9357C4.40051 20.9979 5.02822 21 5.9993 21H6.5993C6.78787 21 6.88215 21 6.94072 20.9414C6.9993 20.8828 6.9993 20.7885 6.9993 20.6V9.65683C6.9993 8.75773 6.9816 8.58676 6.92318 8.44572C6.86476 8.30468 6.75638 8.17127 6.12062 7.53551L5.28215 6.69703Z" fill="#141B34"/>
<path fill-rule="evenodd" clip-rule="evenodd" d="M14.2015 14.2015C14.9936 13.4095 15.8777 12.8086 16.693 12.495C17.0996 12.3386 17.523 12.2407 17.928 12.2507C18.2415 12.2585 18.5697 12.3331 18.8571 12.5178C19.2069 12.5562 19.58 12.6613 19.9232 12.8026C20.3629 12.9836 20.826 13.2538 21.1818 13.6096C23.2727 15.7006 23.2727 19.0908 21.1818 21.1818C19.0908 23.2727 15.7006 23.2727 13.6096 21.1818C13.2538 20.8259 12.9836 20.3629 12.8026 19.9232C12.6613 19.58 12.5562 19.2069 12.5178 18.8571C12.3331 18.5697 12.2585 18.2415 12.2507 17.928C12.2407 17.523 12.3386 17.0996 12.495 16.693C12.8086 15.8777 13.4095 14.9936 14.2015 14.2015ZM19.5605 14.2845C19.788 14.3986 19.9843 14.5334 20.1211 14.6702C21.6263 16.1754 21.6263 18.6159 20.1211 20.1211C18.6159 21.6263 16.1754 21.6263 14.6702 20.1211C14.5333 19.9841 14.3983 19.7875 14.2842 19.5597C14.4618 19.5375 14.6347 19.4993 14.796 19.4524C15.2015 19.3346 15.6267 19.1396 16.0507 18.8832C16.0902 18.9672 16.1346 19.0517 16.1846 19.1362C16.482 19.6374 16.9465 20.0815 17.6522 20.4343C18.0227 20.6195 18.4732 20.4694 18.6584 20.0989C18.8437 19.7284 18.6935 19.2779 18.323 19.0927C17.8448 18.8535 17.609 18.5972 17.4748 18.3709C17.3961 18.2383 17.3414 18.0983 17.2998 17.9445C17.411 17.8437 17.5212 17.7388 17.63 17.63C18.422 16.838 19.023 15.9538 19.3365 15.1386C19.4444 14.858 19.5245 14.5695 19.5605 14.2845Z" fill="#141B34"/>
</svg>
