<svg width="24" height="24" viewBox="0 0 24 24" fill="none" xmlns="http://www.w3.org/2000/svg">
<path opacity="0.4" d="M1.25 12C1.25 6.06294 6.06294 1.25 12 1.25C17.9371 1.25 22.75 6.06294 22.75 12C22.75 17.9371 17.9371 22.75 12 22.75C6.06294 22.75 1.25 17.9371 1.25 12Z" fill="#141B34"/>
<path d="M9.17029 7.83825L9.04077 8.00032L16.5003 8.00023C17.0525 8.00022 17.5003 8.44793 17.5003 9.00021C17.5003 9.5525 17.0526 10.0002 16.5003 10.0002L9.12752 10.0004H9.12752C8.66948 10.0005 8.22702 10.0006 7.88659 9.95433C7.5821 9.91298 6.90107 9.78213 6.60723 9.10092C6.45903 8.75734 6.52491 8.43943 6.55582 8.31473C6.59515 8.1561 6.65741 8.01296 6.71068 7.90444C6.81929 7.68318 6.96546 7.4567 7.09264 7.27284C7.22191 7.08595 7.51993 6.70371 7.62459 6.56948L7.6304 6.56203C7.98286 6.13684 8.61328 6.07788 9.03847 6.43035C9.46355 6.78272 9.52246 7.41306 9.17029 7.83825Z" fill="#141B34"/>
<path d="M6.50028 12.0001C6.50028 11.4478 6.94799 11.0001 7.50028 11.0001H16.5003C17.0526 11.0001 17.5003 11.4478 17.5003 12.0001C17.5003 12.5524 17.0526 13.0001 16.5003 13.0001H7.50028C6.94799 13.0001 6.50028 12.5524 6.50028 12.0001Z" fill="#141B34"/>
<path d="M14.9594 16.0001L7.50002 16.0002C6.94773 16.0003 6.50001 15.5525 6.5 15.0003C6.49999 14.448 6.9477 14.0003 7.49998 14.0002L14.8728 14.0001C15.3308 14 15.7733 13.9999 16.1137 14.0461C16.4182 14.0875 17.0992 14.2183 17.393 14.8996C17.5412 15.2431 17.4754 15.561 17.4444 15.6857C17.4051 15.8444 17.3429 15.9875 17.2896 16.096C17.181 16.3173 17.0348 16.5438 16.9076 16.7276C16.7784 16.9145 16.4804 17.2966 16.3757 17.4308L16.3698 17.4384C16.0174 17.8635 15.3869 17.9224 14.9618 17.57C14.5367 17.2176 14.4777 16.5873 14.8299 16.1622L14.9594 16.0001Z" fill="#141B34"/>
</svg>
