<svg width="24" height="24" viewBox="0 0 24 24" fill="none" xmlns="http://www.w3.org/2000/svg">
<path opacity="0.4" d="M9.17331 1.41551C10.0889 1.30271 11.0341 1.22168 12 1.22168C12.9658 1.22168 13.9111 1.30271 14.8266 1.41551C17.626 1.76041 19.7892 4.08173 20.007 6.82349C20.1391 8.48679 20.25 10.2098 20.25 11.9717C20.25 13.7335 20.1391 15.4566 20.007 17.1199C19.7892 19.8616 17.626 22.1829 14.8266 22.5279C13.9112 22.6406 12.9658 22.7217 12 22.7217C11.0341 22.7217 10.0888 22.6406 9.17338 22.5279C6.37413 22.1829 4.21064 19.8616 3.99296 17.1199C3.86089 15.4566 3.75 13.7335 3.75 11.9717C3.75 10.2098 3.86089 8.4868 3.99296 6.8235C4.21063 4.08171 6.37402 1.7604 9.17331 1.41551Z" fill="#141B34"/>
<path fill-rule="evenodd" clip-rule="evenodd" d="M12.75 0.97168C12.75 0.557466 12.4142 0.22168 12 0.22168C11.5858 0.22168 11.25 0.557466 11.25 0.97168L11.25 5.24746C11.1154 5.26461 10.9737 5.29551 10.8303 5.35489C10.4015 5.53251 10.0608 5.87319 9.88321 6.30199C9.80099 6.50049 9.77338 6.69583 9.76126 6.87347C9.74998 7.03879 9.74999 7.23562 9.75 7.44989V7.44992V7.47168V8.49344V8.49348C9.74999 8.70774 9.74998 8.90457 9.76126 9.06989C9.77338 9.24753 9.80099 9.44287 9.88321 9.64138C10.0608 10.0702 10.4015 10.4109 10.8303 10.5885C10.9737 10.6479 11.1154 10.6788 11.25 10.6959L11.25 11.9717C11.25 12.3859 11.5858 12.7217 12 12.7217C12.4142 12.7217 12.75 12.3859 12.75 11.9717V10.6959C12.8846 10.6788 13.0263 10.6479 13.1697 10.5885C13.5985 10.4109 13.9392 10.0702 14.1168 9.64138C14.199 9.44287 14.2266 9.24753 14.2387 9.06989C14.25 8.90457 14.25 8.70772 14.25 8.49344V7.44992C14.25 7.23564 14.25 7.0388 14.2387 6.87347C14.2266 6.69583 14.199 6.50049 14.1168 6.30199C13.9392 5.87319 13.5985 5.53251 13.1697 5.35489C13.0263 5.2955 12.8846 5.26461 12.75 5.24746V0.97168ZM12.0017 9.22168C12.2439 9.22168 12.3884 9.22126 12.4961 9.21391C12.5629 9.20935 12.5913 9.20325 12.5987 9.20138C12.6575 9.1761 12.7044 9.1292 12.7297 9.07037C12.7316 9.06301 12.7377 9.03461 12.7422 8.96778C12.7496 8.85978 12.75 8.71491 12.75 8.47168V7.47168C12.75 7.22845 12.7496 7.08359 12.7422 6.97558C12.7377 6.90875 12.7316 6.88035 12.7297 6.87299C12.7044 6.81416 12.6575 6.76726 12.5987 6.74199C12.5913 6.74012 12.5629 6.73402 12.4961 6.72946C12.3881 6.72209 12.2432 6.72168 12 6.72168C11.7568 6.72168 11.6119 6.72209 11.5039 6.72946C11.4371 6.73402 11.4087 6.74012 11.4013 6.74199C11.3425 6.76726 11.2956 6.81416 11.2703 6.87299C11.2684 6.88035 11.2623 6.90875 11.2578 6.97558C11.2504 7.08359 11.25 7.22845 11.25 7.47168V8.47168C11.25 8.71491 11.2504 8.85978 11.2578 8.96778C11.2623 9.03461 11.2684 9.06302 11.2703 9.07037C11.2956 9.12921 11.3425 9.1761 11.4013 9.20138C11.4087 9.20325 11.4371 9.20935 11.5039 9.21391C11.6119 9.22128 11.7568 9.22168 12 9.22168C12.0006 9.22168 12.0011 9.22168 12.0017 9.22168Z" fill="#141B34"/>
</svg>
