<svg width="24" height="24" viewBox="0 0 24 24" fill="none" xmlns="http://www.w3.org/2000/svg">
<path opacity="0.4" d="M11.0189 1.37595C11.2822 1.20977 11.614 1.03703 12.0014 1.03711C12.3888 1.03719 12.7206 1.21018 12.9839 1.37651C13.2487 1.54384 13.5903 1.8058 13.9552 2.08564C14.9457 2.84515 15.9068 3.31668 16.8388 3.53217C17.2042 3.61665 17.5457 3.69559 17.7913 3.77185C18.0348 3.84745 18.3181 3.95648 18.5454 4.17C18.7507 4.36282 18.8726 4.5874 18.9631 4.80474C19.0458 5.00346 19.1304 5.27478 19.2124 5.53775C20.3737 9.25935 20.6058 12.8038 19.6766 15.7519C18.7368 18.7335 16.6274 21.0382 13.2727 22.249C12.861 22.3979 12.4759 22.5371 12.0019 22.5371C11.5278 22.5371 11.1427 22.3979 10.7309 22.249C7.37611 21.0382 5.26564 18.7337 4.32473 15.7521C3.39436 12.8039 3.62551 9.25933 4.78707 5.53752C4.86911 5.27459 4.95375 5.00331 5.03645 4.80461C5.12691 4.58728 5.24882 4.36274 5.4541 4.16994C5.68142 3.95643 5.96474 3.84742 6.20819 3.77183C6.45376 3.69558 6.79519 3.61665 7.16058 3.53219C8.09312 3.31659 9.05524 2.84466 10.0477 2.0843L10.0477 2.08429C10.4125 1.80478 10.7541 1.54309 11.0189 1.37595Z" fill="#141B34"/>
<path fill-rule="evenodd" clip-rule="evenodd" d="M12.75 1.2408C12.5328 1.12773 12.2817 1.03717 12.0014 1.03711C11.7199 1.03705 11.4678 1.12822 11.25 1.24182V5.06289C11.1154 5.08004 10.9737 5.11093 10.8303 5.17032C10.4015 5.34794 10.0608 5.68862 9.88321 6.11741C9.80099 6.31592 9.77338 6.51126 9.76126 6.6889C9.74998 6.8542 9.74999 7.051 9.75 7.26523V7.26532V7.26535V7.28711V8.30887V8.30891V8.30899C9.74999 8.52322 9.74998 8.72002 9.76126 8.88532C9.77338 9.06296 9.80099 9.2583 9.88321 9.45681C10.0608 9.88561 10.4015 10.2263 10.8303 10.4039C10.9737 10.4633 11.1154 10.4942 11.25 10.5113V11.7871C11.25 12.2013 11.5858 12.5371 12 12.5371C12.4142 12.5371 12.75 12.2013 12.75 11.7871V10.5113C12.8846 10.4942 13.0263 10.4633 13.1697 10.4039C13.5985 10.2263 13.9392 9.88561 14.1168 9.45681C14.199 9.2583 14.2266 9.06296 14.2387 8.88532C14.25 8.72 14.25 8.52315 14.25 8.30887V7.26535C14.25 7.05107 14.25 6.85423 14.2387 6.6889C14.2266 6.51126 14.199 6.31592 14.1168 6.11741C13.9392 5.68862 13.5985 5.34794 13.1697 5.17032C13.0263 5.11093 12.8846 5.08004 12.75 5.06289V1.2408ZM12.4961 9.02934C12.3884 9.03669 12.2439 9.03711 12.0017 9.03711L12 9.03711C11.7568 9.03711 11.6119 9.03671 11.5039 9.02934C11.4371 9.02478 11.4087 9.01868 11.4013 9.01681C11.3425 8.99153 11.2956 8.94464 11.2703 8.8858C11.2684 8.87845 11.2623 8.85004 11.2578 8.78321C11.2504 8.67521 11.25 8.53034 11.25 8.28711V7.28711C11.25 7.04388 11.2504 6.89902 11.2578 6.79101C11.2623 6.72418 11.2684 6.69578 11.2703 6.68842C11.2956 6.62959 11.3425 6.58269 11.4013 6.55742C11.4087 6.55555 11.4371 6.54945 11.5039 6.54489C11.6119 6.53752 11.7568 6.53711 12 6.53711C12.2432 6.53711 12.3881 6.53752 12.4961 6.54489C12.5629 6.54945 12.5913 6.55555 12.5987 6.55742C12.6575 6.58269 12.7044 6.62959 12.7297 6.68842C12.7316 6.69578 12.7377 6.72418 12.7422 6.79101C12.7496 6.89902 12.75 7.04388 12.75 7.28711V8.28711C12.75 8.53034 12.7496 8.67521 12.7422 8.78321C12.7377 8.85004 12.7316 8.87844 12.7297 8.8858C12.7044 8.94463 12.6575 8.99153 12.5987 9.01681C12.5913 9.01868 12.5629 9.02478 12.4961 9.02934Z" fill="#141B34"/>
<path fill-rule="evenodd" clip-rule="evenodd" d="M9.05901 16.1805C9.39404 15.937 9.86309 16.0111 10.1067 16.3461C10.5406 16.9429 11.052 17.4228 11.6495 17.7772C11.7287 17.8242 11.7849 17.8575 11.8343 17.8848C11.8823 17.9112 11.9109 17.9248 11.9296 17.9324C11.9459 17.9391 11.9535 17.9408 11.9575 17.9416C11.9618 17.9425 11.9739 17.9445 12.0001 17.9445C12.0262 17.9445 12.0383 17.9425 12.0426 17.9416C12.0466 17.9408 12.0542 17.9391 12.0705 17.9324C12.0892 17.9248 12.1178 17.9112 12.1658 17.8848C12.2152 17.8575 12.2714 17.8242 12.3506 17.7772C12.9481 17.4228 13.4596 16.9429 13.8934 16.3461C14.137 16.0111 14.6061 15.937 14.9411 16.1805C15.2761 16.4241 15.3502 16.8932 15.1067 17.2282C14.5657 17.9722 13.907 18.598 13.116 19.0673C13.1023 19.0754 13.0886 19.0836 13.0748 19.0918C12.7952 19.2584 12.4827 19.4445 12.0001 19.4445C11.5174 19.4445 11.2049 19.2584 10.9253 19.0918C10.9115 19.0836 10.8978 19.0754 10.8841 19.0673C10.0932 18.598 9.43437 17.9722 8.89344 17.2282C8.64986 16.8932 8.72399 16.4241 9.05901 16.1805Z" fill="#141B34"/>
</svg>
