<svg width="24" height="24" viewBox="0 0 24 24" fill="none" xmlns="http://www.w3.org/2000/svg">
<path d="M3.5 16.9707C3.5 19.7321 5.73858 21.9707 8.5 21.9707C11.2614 21.9707 13.5 19.7321 13.5 16.9707C13.5 14.2093 11.2614 11.9707 8.5 11.9707C5.73858 11.9707 3.5 14.2093 3.5 16.9707Z" fill="#141B34"/>
<path opacity="0.4" d="M14.755 2.29338L14.6951 2.27579C14.358 2.17662 13.9754 2.06411 13.6247 2.0358C13.1687 1.999 12.7212 2.09411 12.3012 2.40862C11.8421 2.75237 11.6462 3.20913 11.5656 3.66166C11.4996 4.0318 11.4998 4.47584 11.5 4.90601L11.5 8.40198C11.4999 8.41032 11.4999 8.41865 11.5 8.42698V12.9703C12.7144 13.8825 13.5 15.3349 13.5 16.9707V8.79405C13.9056 8.45224 14.6015 8.38081 15.6937 8.75891C16.9075 9.17911 18.1412 10.0263 18.7929 10.678C19.0789 10.964 19.509 11.0495 19.8827 10.8948C20.2563 10.74 20.5 10.3753 20.5 9.97088C20.5 6.33436 18.0744 3.26697 14.755 2.29338Z" fill="#141B34"/>
</svg>
