<svg width="24" height="24" viewBox="0 0 24 24" fill="none" xmlns="http://www.w3.org/2000/svg">
<path d="M14.75 5.25049C14.75 3.04135 16.5409 1.25049 18.75 1.25049C20.9591 1.25049 22.75 3.04135 22.75 5.25049C22.75 7.45963 20.9591 9.25049 18.75 9.25049C16.5409 9.25049 14.75 7.45963 14.75 5.25049Z" fill="#141B34"/>
<path opacity="0.4" d="M1.25 12.0005C1.25 6.06343 6.06294 1.25049 12 1.25049C12.5725 1.25049 13.1345 1.29523 13.6827 1.38142C14.0931 1.44593 14.2982 1.47818 14.3655 1.62405C14.4327 1.76991 14.3089 1.97123 14.0613 2.37386C13.5468 3.21078 13.25 4.19598 13.25 5.25049C13.25 8.28805 15.7124 10.7505 18.75 10.7505C19.8045 10.7505 20.7897 10.4537 21.6266 9.93915C22.0293 9.6916 22.2306 9.56782 22.3764 9.63504C22.5223 9.70225 22.5546 9.90743 22.6191 10.3178C22.7053 10.866 22.75 11.428 22.75 12.0005C22.75 17.9375 17.9371 22.7505 12 22.7505C6.06294 22.7505 1.25 17.9375 1.25 12.0005Z" fill="#141B34"/>
<path fill-rule="evenodd" clip-rule="evenodd" d="M7.25 10.0002C7.25 9.58603 7.58579 9.25024 8 9.25024H12C12.4142 9.25024 12.75 9.58603 12.75 10.0002C12.75 10.4145 12.4142 10.7502 12 10.7502H8C7.58579 10.7502 7.25 10.4145 7.25 10.0002Z" fill="#141B34"/>
<path fill-rule="evenodd" clip-rule="evenodd" d="M7.25 15.0002C7.25 14.586 7.58579 14.2502 8 14.2502H16C16.4142 14.2502 16.75 14.586 16.75 15.0002C16.75 15.4145 16.4142 15.7502 16 15.7502H8C7.58579 15.7502 7.25 15.4145 7.25 15.0002Z" fill="#141B34"/>
</svg>
