<svg width="24" height="24" viewBox="0 0 24 24" fill="none" xmlns="http://www.w3.org/2000/svg">
<path opacity="0.4" fill-rule="evenodd" clip-rule="evenodd" d="M7.93014 21.012C8.48739 21.2536 9.08112 21.5044 9.69413 21.7633C11.1132 22.3632 12.028 22.75 13 22.75C13.972 22.75 14.8868 22.3633 16.3058 21.7633C18.1989 20.9637 19.9083 20.2416 20.9267 19.6305C21.9327 19.0268 22.75 18.2817 22.75 17.1613L22.75 6.5C22.75 6.49999 22.75 6.49999 22.75 6.49998C22.75 5.70418 22.1847 5.21595 21.7346 4.91827C21.285 4.62097 20.646 4.31832 19.9213 3.97505L19.9212 3.97502L17.0069 2.59442L16.8091 2.50065C15.2445 1.75848 14.1725 1.24998 13 1.24998C11.8275 1.24998 10.7555 1.75848 9.19088 2.50065L8.99309 2.59443L6.14491 3.94371L6.07878 3.97503C5.35402 4.3183 4.715 4.62097 4.26541 4.91827C3.81527 5.21594 3.25 5.70418 3.25 6.49998C3.25 6.49999 3.25 6.49999 3.25 6.5L3.25 10.2C3.25 10.3657 3.38431 10.5 3.55 10.5H5.25C6.63071 10.5 7.75 11.6193 7.75 13L7.75 20.7373C7.75 20.8566 7.82067 20.9646 7.93014 21.012ZM9.84245 4.3129C11.6847 3.44016 12.3303 3.15907 13 3.15907C13.613 3.15907 14.2059 3.3946 15.7148 4.10385L8.06862 7.84673L6.99428 7.33778C6.18359 6.95372 5.6757 6.71041 5.35735 6.49998C5.6757 6.28955 6.18359 6.04624 6.99428 5.66219L9.84245 4.3129ZM10.2852 8.89612L17.9314 5.15323L19.0057 5.66218C19.8164 6.04624 20.3243 6.28955 20.6427 6.49998C20.3243 6.71041 19.8164 6.95372 19.0057 7.33778L16.1575 8.68707C14.3153 9.55981 13.6697 9.84089 13 9.84089C12.387 9.84089 11.7941 9.60537 10.2852 8.89612Z" fill="#141B34"/>
<path d="M8.06836 7.84677L15.7145 4.10388L17.9311 5.15327L10.2849 8.89615L8.06836 7.84677Z" fill="#141B34"/>
<path fill-rule="evenodd" clip-rule="evenodd" d="M1.25 13C1.25 12.4477 1.69772 12 2.25 12H5.25C5.80228 12 6.25 12.4477 6.25 13C6.25 13.5523 5.80228 14 5.25 14H2.25C1.69772 14 1.25 13.5523 1.25 13ZM1.25 16C1.25 15.4477 1.69772 15 2.25 15H5.25C5.80228 15 6.25 15.4477 6.25 16C6.25 16.5523 5.80228 17 5.25 17H2.25C1.69772 17 1.25 16.5523 1.25 16ZM1.25 19C1.25 18.4477 1.69772 18 2.25 18H5.25C5.80228 18 6.25 18.4477 6.25 19C6.25 19.5523 5.80228 20 5.25 20H2.25C1.69772 20 1.25 19.5523 1.25 19Z" fill="#141B34"/>
</svg>
