<svg width="24" height="24" viewBox="0 0 24 24" fill="none" xmlns="http://www.w3.org/2000/svg">
<path fill-rule="evenodd" clip-rule="evenodd" d="M4.08301 14.8334L7.26408 17.56C7.30131 17.9275 7.41979 18.3053 7.69483 18.623C7.94859 18.9161 8.31002 19.0731 8.56225 19.1636C8.8511 19.2673 9.18669 19.3477 9.53499 19.4104C9.97759 19.4901 10.4792 19.5479 11.0002 19.5829V20.8739C11.0002 21.4262 11.4479 21.8739 12.0002 21.8739C12.5525 21.8739 13.0002 21.4262 13.0002 20.8739V19.6043C13.4751 19.5816 13.9366 19.5376 14.3545 19.4688C14.7193 19.4087 15.0766 19.3257 15.3908 19.2093C15.6843 19.1005 16.0435 18.9257 16.3055 18.623C16.5806 18.3053 16.699 17.9276 16.7363 17.5601L19.9177 14.8332L17.8388 13.9809L16.3231 15.2801C16.2525 15.0811 16.177 14.8839 16.0997 14.6917C15.8517 14.0748 15.5667 13.4636 15.3223 12.9492L12.8152 11.9214C13.0477 12.4863 13.4285 13.3876 13.5771 13.6987C13.8261 14.2221 14.1015 14.8108 14.3354 15.3926C14.5727 15.9831 14.7477 16.5191 14.818 16.9412C14.8607 17.1977 14.8515 17.3322 14.8436 17.3901C14.8177 17.4029 14.7799 17.4198 14.7271 17.4394C14.5666 17.4989 14.3382 17.5569 14.0441 17.6053C13.4581 17.7018 12.713 17.744 11.9505 17.7322C11.1891 17.7203 10.4481 17.6552 9.87343 17.5518C9.5844 17.4998 9.36117 17.4422 9.2076 17.3871C9.18724 17.3798 9.16947 17.373 9.15406 17.3668C9.14741 17.2994 9.14463 17.168 9.18237 16.9412C9.25264 16.5191 9.42763 15.9831 9.665 15.3926C9.89889 14.8108 10.1742 14.2221 10.4233 13.6987C10.5746 13.3818 11.0097 12.4525 11.2624 11.8901L8.67788 12.9497C8.43352 13.4639 8.14862 14.075 7.9007 14.6917C7.82341 14.8839 7.74789 15.0811 7.67727 15.2801L6.16188 13.9811L4.08301 14.8334Z" fill="#141B34"/>
<path opacity="0.4" d="M10.6434 2.56105C11.4622 1.97965 12.5387 1.97965 13.3574 2.56105C16.118 4.52132 20.0213 8.68977 22.1025 11.6414C22.7778 12.5991 22.7615 13.7303 22.7494 14.5716C22.7479 14.6776 22.7464 14.7791 22.7464 14.875C22.7464 15.125 22.6218 15.3586 22.4142 15.4978C22.2066 15.6371 21.9432 15.6638 21.7119 15.5689L12.4746 11.782C12.1708 11.6574 11.8301 11.6574 11.5263 11.782L2.28895 15.5689C2.05763 15.6638 1.79426 15.6371 1.58665 15.4978C1.37903 15.3586 1.25446 15.125 1.25446 14.875C1.25446 14.7791 1.253 14.6776 1.25147 14.5716C1.23936 13.7303 1.22308 12.5991 1.89833 11.6414C3.97955 8.68977 7.88289 4.52132 10.6434 2.56105Z" fill="#141B34"/>
</svg>
