<svg width="24" height="24" viewBox="0 0 24 24" fill="none" xmlns="http://www.w3.org/2000/svg">
<g opacity="0.4">
<path d="M11.1525 1.31924C11.2667 1.25437 11.4052 1.25398 11.6823 1.2532L11.8881 1.25259C12.8696 1.24962 13.8524 1.24666 14.833 1.28381C15.2678 1.30029 15.4853 1.30852 15.5666 1.45945C15.648 1.61039 15.5338 1.7991 15.3055 2.17652L12.9793 6.02187C12.8368 6.25753 12.7655 6.37536 12.6512 6.43981C12.5368 6.50427 12.3991 6.50427 12.1237 6.50427H8.67267C8.35945 6.50427 8.20283 6.50427 8.14539 6.40281C8.08794 6.30135 8.16852 6.16706 8.32967 5.89847L10.825 1.73958C10.9672 1.50262 11.0383 1.38412 11.1525 1.31924Z" fill="#141B34"/>
<path d="M8.5907 1.37505C8.53003 1.27293 8.37165 1.27881 8.0549 1.29058C7.36371 1.31627 6.7436 1.36007 6.18802 1.43477C4.81137 1.61986 3.71911 2.00689 2.86091 2.86509C1.99797 3.72803 1.62446 4.88374 1.44949 6.06149C1.41938 6.26416 1.40433 6.3655 1.46417 6.43489C1.524 6.50427 1.62901 6.50427 1.83901 6.50427H5.09742C5.37539 6.50427 5.51438 6.50427 5.6294 6.4388C5.74441 6.37332 5.81537 6.25381 5.95728 6.01479L8.40681 1.88907C8.56985 1.61447 8.65137 1.47717 8.5907 1.37505Z" fill="#141B34"/>
<path d="M18.6711 1.898C18.3653 1.77215 18.2124 1.70922 18.0375 1.76608C17.8627 1.82293 17.7656 1.98074 17.5714 2.29636L15.357 5.89463C15.191 6.16447 15.108 6.29939 15.1652 6.40183C15.2224 6.50427 15.3809 6.50427 15.6977 6.50427H21.161C21.371 6.50427 21.476 6.50427 21.5358 6.43489C21.5957 6.3655 21.5806 6.26417 21.5505 6.06149C21.3756 4.88375 21.002 3.72803 20.1391 2.86509C19.7103 2.43629 19.2231 2.12512 18.6711 1.898Z" fill="#141B34"/>
<path d="M21.6183 8.6197C21.7352 8.73513 21.7374 8.91798 21.7419 9.28367C21.75 9.94804 21.75 10.6677 21.75 11.4468V11.5614C21.75 11.8093 21.75 12.0511 21.7497 12.2871C21.7493 12.6976 21.7491 12.9029 21.6316 12.9928C21.5142 13.0827 21.2941 13.0236 20.8538 12.9053C19.8055 12.6237 18.816 12.751 18.0002 13.0884C16.8568 12.6155 15.3721 12.5553 13.8626 13.4554C12.2483 14.418 11.5499 16.288 11.8008 18.1068C11.9235 18.9959 12.2597 19.8668 12.7951 20.6896C13.1203 21.1893 13.2829 21.4392 13.1979 21.5961C13.1129 21.753 12.8341 21.7533 12.2766 21.7539C12.0426 21.7542 11.8029 21.7542 11.5572 21.7542H11.4428C9.2521 21.7542 7.53144 21.7542 6.18802 21.5736C4.81137 21.3885 3.71911 21.0015 2.86091 20.1433C2.00272 19.2851 1.61568 18.1928 1.43059 16.8162C1.24998 15.4727 1.24999 13.7521 1.25 11.5614V11.447C1.25 10.6679 1.24999 9.94807 1.25811 9.28367C1.26259 8.91798 1.26482 8.73513 1.38167 8.6197C1.49853 8.50427 1.68305 8.50427 2.0521 8.50427H20.9479C21.3169 8.50427 21.5015 8.50427 21.6183 8.6197Z" fill="#141B34"/>
</g>
<path d="M18 14.7903C18.7729 14.2407 20.02 13.939 21.3694 14.7437C22.3758 15.3438 22.8975 16.568 22.7135 17.9017C22.5281 19.2456 21.6457 20.6879 19.9024 21.9422C19.3484 22.3419 18.7813 22.751 18 22.751C17.2187 22.751 16.6516 22.3419 16.0976 21.9422C14.3543 20.6879 13.4719 19.2456 13.2865 17.9017C13.1025 16.568 13.6242 15.3438 14.6306 14.7437C15.98 13.939 17.2271 14.2407 18 14.7903Z" fill="#141B34"/>
</svg>
