<svg width="24" height="24" viewBox="0 0 24 24" fill="none" xmlns="http://www.w3.org/2000/svg">
<path opacity="0.4" d="M13.277 8.9805C13.7399 9.48068 14.1316 9.95642 14.3657 10.25L20.25 10.25C21.6307 10.25 22.75 11.3693 22.75 12.75C22.75 14.1307 21.6307 15.25 20.25 15.25L15.2525 15.25C15.1894 17.1139 14.6138 19.819 12.5668 21.8531C11.6249 22.789 10.2471 22.8444 9.1069 22.6737C7.93015 22.4975 6.7641 22.0471 5.98688 21.6749C5.76221 21.5673 4.89071 21.0923 4.67654 20.9725C4.24372 20.7561 3.89992 20.6419 3.61802 20.6419L3.61799 20.6419C3.35271 20.6419 3.08205 20.6419 2.87858 20.6248C2.65905 20.6063 2.41913 20.564 2.18353 20.4397C1.87161 20.2752 1.61668 20.0203 1.45214 19.7083C1.32786 19.4727 1.28555 19.2328 1.26708 19.0133C1.24996 18.8098 1.24998 18.5662 1.25 18.3009L1.25 11.9952C1.25 11.0314 2.0313 10.2501 2.99509 10.2501C3.08102 10.2501 3.27813 10.2036 3.60495 10.0378C3.91201 9.8821 4.25757 9.66113 4.61715 9.40946C4.93702 9.18559 5.25121 8.94944 5.54681 8.72727L5.54689 8.72721C5.85865 8.49315 6.57195 7.99831 6.81502 7.85072C7.24527 7.58233 7.75666 7.26332 8.27987 7.04778C8.96136 6.76704 9.76557 6.61239 10.6376 6.91534C11.1262 7.08511 11.6137 7.42741 12.0387 7.78287C12.4761 8.14883 12.9047 8.5781 13.277 8.9805Z" fill="#141B34"/>
<path d="M15.75 5.50586C15.1977 5.50586 14.75 5.05814 14.75 4.50586C14.75 3.95357 15.1977 3.50586 15.75 3.50586L18.25 3.50586L18.25 2.9116C18.2499 2.73596 18.2497 2.52031 18.2718 2.34387L18.2722 2.34053C18.288 2.21408 18.3598 1.63804 18.9254 1.36368C19.4923 1.08872 19.9924 1.39065 20.1006 1.45597L20.5691 1.79511C20.9449 2.08975 21.4594 2.49545 21.8504 2.87588C22.0455 3.06571 22.2467 3.28297 22.4056 3.51388C22.5468 3.71914 22.75 4.06933 22.75 4.5C22.75 4.93067 22.5468 5.28086 22.4056 5.48612C22.2467 5.71703 22.0455 5.93429 21.8504 6.12412C21.4594 6.50455 20.9449 6.91025 20.5691 7.20488L20.1006 7.54403C19.9924 7.60935 19.4922 7.91128 18.9254 7.63632C18.3598 7.36196 18.288 6.78592 18.2722 6.65947L18.2718 6.65613C18.2497 6.47969 18.2499 6.26403 18.25 6.0884L18.25 5.50586L15.75 5.50586Z" fill="#141B34"/>
</svg>
