<svg width="24" height="24" viewBox="0 0 24 24" fill="none" xmlns="http://www.w3.org/2000/svg">
<path opacity="0.4" d="M21.6972 11.7247C21.2658 11.1793 20.7465 10.6718 20.3276 10.2623C20.24 10.1767 20.2342 10.111 20.1913 9.9975L19.1173 7.15745C18.919 6.63293 18.7416 6.1637 18.5444 5.79001C18.3276 5.37921 18.0497 5.00758 17.609 4.72759C17.175 4.45184 16.7072 4.34409 16.2238 4.29544C15.7717 4.24995 15.2221 4.24997 14.5875 4.25H14.5875H9.41244H9.4124C8.77787 4.24997 8.22829 4.24995 7.77624 4.29544C7.29283 4.34409 6.82503 4.45184 6.39101 4.72759C5.95031 5.00758 5.67239 5.37921 5.45558 5.79001C5.25836 6.1637 5.08097 6.63293 4.88267 7.15745L3.8087 9.9975C3.76578 10.111 3.75999 10.1767 3.6724 10.2623C3.25346 10.6718 2.73425 11.1793 2.30284 11.7247C1.76286 12.4072 1.25 13.2788 1.25 14.2774V17.5552C1.25 18.4365 1.87684 19.2404 2.79013 19.3546L5.90697 19.7442C5.93783 19.7481 5.9689 19.75 6 19.75H18C18.0311 19.75 18.0622 19.7481 18.093 19.7442L21.2099 19.3546C22.1232 19.2404 22.75 18.4365 22.75 17.5552V14.2774C22.75 13.2788 22.2371 12.4072 21.6972 11.7247Z" fill="#141B34"/>
<path d="M6.68958 7.84179L6.1729 9.20813C6.07991 9.45404 6.03341 9.57699 6.09305 9.6633C6.15268 9.74961 6.28414 9.74961 6.54704 9.74961H17.4537C17.7166 9.74961 17.8481 9.74961 17.9077 9.6633C17.9673 9.57699 17.9208 9.45404 17.8279 9.20813L17.3112 7.84179C17.0896 7.2559 16.9514 6.89497 16.8138 6.63435C16.69 6.39975 16.607 6.32756 16.5393 6.28458C16.465 6.23735 16.341 6.18361 16.0221 6.15151C15.6831 6.1174 15.2361 6.11621 14.5403 6.11621H9.46046C8.7647 6.11621 8.31765 6.1174 7.97866 6.15151C7.65974 6.18361 7.53575 6.23735 7.46142 6.28458C7.39376 6.32756 7.31074 6.39975 7.18693 6.63435C7.04938 6.89497 6.91114 7.2559 6.68958 7.84179Z" fill="#141B34"/>
<path fill-rule="evenodd" clip-rule="evenodd" d="M21.7278 13.3183C21.8282 13.7201 21.5839 14.1273 21.1821 14.2278L19.6821 14.6028C19.2802 14.7032 18.873 14.4589 18.7726 14.0571C18.6721 13.6552 18.9164 13.248 19.3183 13.1476L20.8183 12.7726C21.2201 12.6721 21.6273 12.9164 21.7278 13.3183ZM2.32934 13.1648C2.51459 12.7943 2.96509 12.6441 3.33557 12.8294L4.83557 13.5794C5.20606 13.7646 5.35623 14.2151 5.17098 14.5856C4.98574 14.9561 4.53524 15.1062 4.16475 14.921L2.66475 14.171C2.29427 13.9858 2.1441 13.5353 2.32934 13.1648Z" fill="#141B34"/>
<path d="M12.9692 16H11.0314C10.0477 16 9.55587 16 9.17494 16.2735C8.87929 16.4858 8.70306 16.8251 8.46817 17.4192C8.36499 17.6802 8.3134 17.8107 8.37275 17.9054C8.4321 18 8.56701 18 8.83682 18H15.1639C15.4337 18 15.5686 18 15.6279 17.9054C15.6873 17.8107 15.6357 17.6802 15.5325 17.4192C15.2976 16.8251 15.1214 16.4858 14.8257 16.2735C14.4448 16 13.9529 16 12.9692 16Z" fill="#141B34"/>
<path d="M20.6094 22.7495H18.8906C18.6054 22.7495 18.3692 22.6358 18.1219 22.5259C17.7408 22.3565 17.5 22.0102 17.5 21.6314V21.1495C17.5 20.9647 17.5 20.8723 17.5582 20.8137C17.6164 20.7552 17.7109 20.7547 17.9 20.7538C18.0063 20.7532 18.1123 20.7491 18.2171 20.736L21.3339 20.3464C21.3676 20.3422 21.4009 20.3374 21.434 20.332C21.7176 20.2862 21.8593 20.2633 21.9297 20.3232C22 20.3831 22 20.5104 22 20.765V21.6314C22 22.0102 21.7592 22.3565 21.3781 22.5259C21.1308 22.6358 20.8946 22.7495 20.6094 22.7495Z" fill="#141B34"/>
<path d="M3.39058 22.7495H5.10942C5.39461 22.7495 5.63082 22.6358 5.87811 22.5259C6.25925 22.3565 6.5 22.0102 6.5 21.6314V21.1495C6.5 20.9647 6.5 20.8723 6.44179 20.8137C6.38358 20.7552 6.28906 20.7547 6.10003 20.7538C5.99374 20.7532 5.88769 20.7491 5.78292 20.736L2.6661 20.3464C2.63245 20.3422 2.59906 20.3374 2.56595 20.332C2.28245 20.2862 2.14069 20.2633 2.07035 20.3232C2 20.3831 2 20.5104 2 20.765V21.6314C2 22.0102 2.24075 22.3565 2.62189 22.5259C2.86918 22.6358 3.10539 22.7495 3.39058 22.7495Z" fill="#141B34"/>
<path fill-rule="evenodd" clip-rule="evenodd" d="M3.54194 10.3895L2.55301 9.89504C2.05903 9.64805 1.8588 9.04737 2.10579 8.5534C2.35278 8.05942 2.95345 7.85919 3.44743 8.10618L4.35259 8.55876L3.8087 9.99706C3.79932 10.0218 3.79172 10.0444 3.78465 10.0653C3.75935 10.1402 3.74086 10.1949 3.6724 10.2618C3.62988 10.3034 3.58633 10.346 3.54194 10.3895ZM9.28998 4.24957C9.26342 4.10289 9.25 3.95216 9.25 3.80039C9.25 3.17592 9.41739 2.57664 9.72743 2.11157C10.034 1.65175 10.5398 1.25039 11.2 1.25039H12.8C13.4602 1.25039 13.966 1.65175 14.2726 2.11157C14.5826 2.57664 14.75 3.17592 14.75 3.80039C14.75 3.95216 14.7366 4.10289 14.71 4.24957C14.6695 4.24956 14.6287 4.24956 14.5875 4.24956H14.5875L9.41244 4.24956H9.4124C9.37124 4.24956 9.33043 4.24956 9.28998 4.24957ZM19.6475 8.55895L20.553 8.10618C21.047 7.85919 21.6477 8.05942 21.8946 8.5534C22.1416 9.04737 21.9414 9.64805 21.4474 9.89504L20.4582 10.3896C20.4138 10.3461 20.3701 10.3034 20.3276 10.2618C20.2591 10.1949 20.2406 10.1402 20.2154 10.0653C20.2083 10.0444 20.2007 10.0219 20.1913 9.99706L19.6475 8.55895Z" fill="#141B34"/>
</svg>
