<svg width="25" height="24" viewBox="0 0 25 24" fill="none" xmlns="http://www.w3.org/2000/svg">
<path d="M17.5892 5.5H7.86001C7.29174 5.49999 6.83338 5.49999 6.46626 5.53126C6.08999 5.5633 5.75634 5.63132 5.45742 5.80043C4.87761 6.12846 4.45921 6.68889 4.28918 7.34265C4.20268 7.67526 4.21215 8.02232 4.26448 8.41269C4.31582 8.79568 4.41582 9.26677 4.54117 9.85725L4.56981 9.99222C4.84798 11.3036 5.01617 12.0965 5.40791 12.716C5.83885 13.3974 6.46045 13.9267 7.19206 14.2268C7.85937 14.5005 8.6398 14.5003 9.89783 14.5H15.5514C16.8094 14.5003 17.5899 14.5005 18.2572 14.2268C18.9888 13.9267 19.6104 13.3974 20.0413 12.716C20.4331 12.0965 20.6012 11.3036 20.8794 9.99222L20.9081 9.85725C21.0334 9.26679 21.1334 8.79566 21.1848 8.41269C21.2371 8.02232 21.2466 7.67526 21.16 7.34266C20.99 6.68889 20.5716 6.12846 19.9918 5.80043C19.6929 5.63132 19.3592 5.5633 18.983 5.53126C18.6158 5.49999 18.1575 5.49999 17.5892 5.5Z" fill="#141B34"/>
<path opacity="0.4" fill-rule="evenodd" clip-rule="evenodd" d="M9.72485 1C8.09056 1 6.666 2.11226 6.26963 3.69775L5.7547 5.75746C5.62075 6.29326 5.94652 6.83619 6.48231 6.97014C7.01811 7.10409 7.56104 6.77833 7.69499 6.24254L8.20992 4.18282C8.38371 3.48767 9.0083 3 9.72485 3C10.2771 3 10.7248 2.55228 10.7248 2C10.7248 1.44772 10.2771 1 9.72485 1ZM15.7246 1C15.1723 1 14.7246 1.44772 14.7246 2C14.7246 2.55228 15.1723 3 15.7246 3C16.4412 3 17.0658 3.48767 17.2395 4.18282L17.7545 6.24254C17.8884 6.77833 18.4314 7.10409 18.9671 6.97014C19.5029 6.83619 19.8287 6.29326 19.6948 5.75746L19.1798 3.69775C18.7835 2.11226 17.3589 1 15.7246 1Z" fill="#141B34"/>
<path d="M9.63118 11.6717C9.72614 11.5626 9.86369 11.5 10.0083 11.5H15.4399C15.5846 11.5 15.7221 11.5626 15.8171 11.6717C15.912 11.7808 15.9551 11.9257 15.9351 12.069L15.159 17.6415C15.1354 17.8111 15.1221 17.9091 15.1179 17.981C15.7265 17.981 16.3596 17.9929 16.7829 18.4844C16.9529 18.6818 17.0521 18.9385 17.1656 19.232C17.3286 19.6541 17.542 20.0571 17.6527 20.4981C17.7732 20.9782 17.7899 21.5912 17.2966 22.0896C17.0515 22.3372 16.739 22.4249 16.4308 22.4634C16.137 22.5 15.7655 22.5 15.3321 22.5H10.1162C9.6827 22.5 9.31122 22.5 9.01744 22.4634C8.7092 22.4249 8.39672 22.3372 8.15166 22.0896C7.65837 21.5912 7.67509 20.9782 7.79559 20.4981C7.90628 20.0571 8.11961 19.6541 8.28268 19.232C8.39611 18.9385 8.4953 18.6818 8.6653 18.4844C9.08864 17.9929 9.72172 17.981 10.3303 17.981C10.3261 17.9091 10.3128 17.8111 10.2892 17.6415L9.51311 12.069C9.49316 11.9257 9.53622 11.7808 9.63118 11.6717Z" fill="#141B34"/>
</svg>
