<svg width="24" height="24" viewBox="0 0 24 24" fill="none" xmlns="http://www.w3.org/2000/svg">
<path opacity="0.4" d="M9.22337 12.2887C9.61829 12.4197 9.83172 12.8444 9.70008 13.2374L8.85376 15.7637L9.8515 16.6307C10.4964 17.1912 10.9276 17.564 11.2881 17.8051C11.6309 18.0344 11.8298 18.0882 12 18.0882C12.1702 18.0882 12.3691 18.0344 12.7119 17.8051C13.0724 17.564 13.5036 17.1912 14.1485 16.6307L15.1462 15.7637L14.2999 13.2374C14.1683 12.8444 14.3817 12.4197 14.7766 12.2887C15.1716 12.1577 15.5984 12.3701 15.7301 12.763L16.6159 15.4073L18.082 15.8936C19.008 16.2006 19.5783 16.3897 20.091 16.6858C20.5921 16.9752 21.0467 17.3381 21.4394 17.7621C21.7491 18.0964 22.1965 18.8163 22.4922 19.8144C22.5947 20.1596 22.7165 20.57 22.7431 20.8941C22.7763 21.2976 22.6931 21.6828 22.4185 22.0482C22.1215 22.4434 21.727 22.6155 21.3148 22.6885C20.9648 22.7504 20.5382 22.7503 20.0946 22.7502H3.90536C3.46175 22.7503 3.0352 22.7504 2.68524 22.6885C2.27304 22.6155 1.87848 22.4434 1.58148 22.0482C1.30693 21.6828 1.22372 21.2976 1.25688 20.8941C1.28351 20.57 1.40532 20.1596 1.50777 19.8144C1.8035 18.8163 2.25094 18.0964 2.56059 17.7621C2.9533 17.3381 3.40787 16.9752 3.90905 16.6858C4.42173 16.3897 4.99196 16.2006 5.91797 15.8936L5.91798 15.8936L7.38413 15.4073L8.26995 12.763C8.40159 12.3701 8.82845 12.1577 9.22337 12.2887Z" fill="#141B34"/>
<path fill-rule="evenodd" clip-rule="evenodd" d="M7 6.25C7.41421 6.25 7.75 6.58579 7.75 7V8.72517C7.75 10.2623 8.53997 11.6795 9.81931 12.4633L10.3338 12.7785C11.3601 13.4072 12.6399 13.4072 13.6662 12.7785L14.1807 12.4633C15.46 11.6795 16.25 10.2623 16.25 8.72517V7C16.25 6.58579 16.5858 6.25 17 6.25C17.4142 6.25 17.75 6.58579 17.75 7V8.72517C17.75 10.7745 16.697 12.6808 14.9643 13.7423L14.4498 14.0575C12.9426 14.9808 11.0574 14.9808 9.55023 14.0575L9.03573 13.7423C7.30301 12.6808 6.25 10.7745 6.25 8.72517V7C6.25 6.58579 6.58579 6.25 7 6.25Z" fill="#141B34"/>
<path d="M14.3711 1.755C12.9056 1.08166 11.0944 1.08167 9.62889 1.755L9.11439 1.9914C7.4177 2.77096 6.25 4.24322 6.25 5.95612V6.1166C6.07532 6.17446 5.90406 6.23493 5.73642 6.29792C5.34867 6.4436 5.15244 6.87604 5.29812 7.26379C5.44381 7.65153 5.87624 7.84777 6.26399 7.70208C6.54633 7.596 6.90111 7.48022 7.20849 7.38979C8.57362 6.99472 10.1671 6.76112 11.8774 6.75039C11.9182 6.75013 11.9592 6.75 12.0002 6.75C14.1734 6.75 16.1601 7.10982 17.7364 7.70208C18.1242 7.84777 18.5566 7.65153 18.7023 7.26379C18.848 6.87604 18.6517 6.4436 18.264 6.29792C18.0962 6.23489 17.9248 6.17437 17.75 6.11647V5.95612C17.75 4.24322 16.5823 2.77096 14.8856 1.9914L14.3711 1.755Z" fill="#141B34"/>
</svg>
