<svg width="24" height="24" viewBox="0 0 24 24" fill="none" xmlns="http://www.w3.org/2000/svg">
<path opacity="0.4" d="M9.23892 13.2887C9.63163 13.4197 9.84386 13.8444 9.71296 14.2374L8.87138 16.7637L9.86353 17.6307C10.5048 18.1912 10.9336 18.564 11.2921 18.8051C11.633 19.0344 11.8308 19.0882 12 19.0882C12.1692 19.0882 12.367 19.0344 12.7079 18.8051C13.0664 18.564 13.4952 18.1912 14.1365 17.6307L15.1286 16.7637L14.287 14.2374C14.1561 13.8444 14.3684 13.4197 14.7611 13.2887C15.1538 13.1577 15.5783 13.3701 15.7092 13.763L16.59 16.4073L18.048 16.8936C18.9688 17.2006 19.5358 17.3897 20.0457 17.6858C20.544 17.9752 20.996 18.3381 21.3866 18.7621C21.5847 18.9772 21.8598 19.3948 22.0809 19.8018C22.2222 20.0612 22.3935 20.3756 22.4631 20.6966C22.5553 21.1215 22.4719 21.5119 22.2444 21.8947C21.9894 22.3239 21.6316 22.5633 21.1916 22.6685C20.8482 22.7507 20.4402 22.7505 20.0554 22.7502H20.0554H3.94462H3.9446C3.55983 22.7505 3.15184 22.7507 2.8084 22.6685C2.36836 22.5633 2.01063 22.3239 1.75557 21.8947C1.52812 21.5119 1.44472 21.1215 1.53687 20.6966C1.60649 20.3756 1.77777 20.0612 1.9191 19.8018C2.14019 19.3948 2.41532 18.9772 2.61344 18.7621C3.00395 18.3381 3.45598 17.9752 3.95435 17.6858C4.46416 17.3897 5.0312 17.2006 5.95203 16.8936L5.95203 16.8936L7.40997 16.4073L8.29083 13.763C8.42174 13.3701 8.84621 13.1577 9.23892 13.2887Z" fill="#141B34"/>
<path d="M18.7161 6.67533L18.7161 6.67535L18.5086 7.21125C18.5884 7.23749 18.6675 7.26421 18.746 7.29141C19.1373 7.42713 19.3445 7.85441 19.2088 8.24575C19.0731 8.6371 18.6458 8.84432 18.2544 8.70859C17.9559 8.60506 17.6435 8.50844 17.3185 8.41947C15.773 7.99647 13.954 7.75 12.0002 7.75C10.1626 7.75 8.4437 7.96804 6.95928 8.34621C6.53382 8.4546 6.12854 8.57591 5.74596 8.70859C5.35461 8.84432 4.92734 8.6371 4.79161 8.24575C4.65588 7.85441 4.86311 7.42713 5.25445 7.29141C5.39628 7.24222 5.54045 7.1946 5.68685 7.14858L5.5748 6.93162C5.30472 6.40873 5.0454 5.90669 4.90634 5.51648C4.75739 5.09853 4.6734 4.6357 4.85139 4.15202C5.03394 3.65595 5.40608 3.36943 5.80181 3.17293C6.15785 2.99613 6.62607 2.84817 7.14274 2.6849L11.219 1.39612C11.4333 1.32777 11.6771 1.25 11.9364 1.25C12.1958 1.25 12.4395 1.32777 12.6538 1.39612L16.9943 2.76843C17.458 2.91495 17.8834 3.04937 18.2116 3.21057C18.579 3.39103 18.9249 3.65147 19.1175 4.09978C19.3053 4.53685 19.268 4.96919 19.1701 5.3679C19.079 5.73862 18.9089 6.17778 18.7161 6.67533Z" fill="#141B34"/>
<path fill-rule="evenodd" clip-rule="evenodd" d="M7 7.25C7.41421 7.25 7.75 7.58579 7.75 8V9.72517C7.75 11.2623 8.53997 12.6795 9.81931 13.4633L10.3338 13.7785C11.3601 14.4072 12.6399 14.4072 13.6662 13.7785L14.1807 13.4633C15.46 12.6795 16.25 11.2623 16.25 9.72517V8C16.25 7.58579 16.5858 7.25 17 7.25C17.4142 7.25 17.75 7.58579 17.75 8V9.72517C17.75 11.7745 16.697 13.6808 14.9643 14.7423L14.4498 15.0575C12.9426 15.9808 11.0574 15.9808 9.55023 15.0575L9.03573 14.7423C7.30301 13.6808 6.25 11.7745 6.25 9.72517V8C6.25 7.58579 6.58579 7.25 7 7.25Z" fill="#141B34"/>
</svg>
