<svg width="24" height="24" viewBox="0 0 24 24" fill="none" xmlns="http://www.w3.org/2000/svg">
<g opacity="0.4">
<path d="M11.9994 2.25C10.984 2.25 10.2113 2.83442 9.51 3.65408C8.82318 4.45686 8.07987 5.63611 7.14976 7.1117C6.91197 7.48894 6.79308 7.67756 6.86097 7.82528C6.8671 7.83862 6.8742 7.85149 6.88222 7.8638C6.97098 8 7.19395 8 7.63988 8H16.3588C16.8048 8 17.0277 8 17.1165 7.86381C17.1245 7.8515 17.1316 7.83862 17.1377 7.82527C17.2056 7.67755 17.0867 7.48894 16.8489 7.11172C15.9188 5.63613 15.1755 4.45686 14.4887 3.65407C13.7874 2.83442 13.0147 2.25 11.9994 2.25Z" fill="#141B34"/>
<path d="M22.3387 16.3628C22.2715 16.1906 22.2378 16.1045 22.1613 16.0523C22.0848 16 21.9884 16 21.7957 16H2.20301C2.01029 16 1.91393 16 1.8374 16.0523C1.76087 16.1045 1.72725 16.1906 1.66001 16.3628C1.19561 17.552 1.06193 18.6472 1.59042 19.6703C2.1894 20.8299 3.33427 21.3104 4.76977 21.532C6.18222 21.75 8.09945 21.75 10.5334 21.75H13.4652C15.8992 21.75 17.8165 21.75 19.2289 21.532C20.6644 21.3104 21.8093 20.8299 22.4083 19.6703C22.9368 18.6472 22.8031 17.552 22.3387 16.3628Z" fill="#141B34"/>
</g>
<path d="M18.8458 10.2801C18.7595 10.1431 18.7163 10.0747 18.6487 10.0373C18.581 10 18.5001 10 18.3382 10H5.6599C5.49804 10 5.41711 10 5.34945 10.0373C5.2818 10.0747 5.23864 10.1431 5.15233 10.2801L4.83474 10.7839C4.30352 11.6266 3.81772 12.3973 3.38746 13.1044C3.14831 13.4975 3.02874 13.694 3.11474 13.847C3.20074 14 3.43261 14 3.89633 14H20.1018C20.5655 14 20.7974 14 20.8834 13.847C20.9694 13.694 20.8498 13.4975 20.6107 13.1044C20.1804 12.3973 19.6946 11.6266 19.1634 10.7839L18.8458 10.2801Z" fill="#141B34"/>
</svg>
