<svg width="24" height="24" viewBox="0 0 24 24" fill="none" xmlns="http://www.w3.org/2000/svg">
<path fill-rule="evenodd" clip-rule="evenodd" d="M7.75505 13.75C7.75223 13.8156 7.75098 13.897 7.75098 14V15.25H8.78119C8.78115 15.25 8.78121 15.25 8.78119 15.25C8.78242 15.25 8.79206 15.2503 8.81394 15.2373C8.83919 15.2223 8.88016 15.1893 8.92554 15.1256C9.01838 14.9952 9.09932 14.7764 9.09932 14.5C9.09932 14.2236 9.01838 14.0048 8.92554 13.8744C8.88016 13.8107 8.83919 13.7777 8.81394 13.7627C8.79206 13.7497 8.78252 13.75 8.78129 13.75C8.78125 13.75 8.78131 13.75 8.78129 13.75L7.75505 13.75ZM7.75098 16.75V18C7.75098 18.4142 7.41519 18.75 7.00098 18.75C6.58676 18.75 6.25098 18.4142 6.25098 18V14C6.25098 13.8157 6.2539 13.622 6.27516 13.4452C6.2961 13.271 6.34138 13.0477 6.4688 12.8371C6.77969 12.3232 7.32383 12.25 7.71306 12.25H8.78119C9.38226 12.25 9.85479 12.5934 10.1474 13.0043C10.4411 13.4168 10.5993 13.948 10.5993 14.5C10.5993 15.052 10.4411 15.5832 10.1474 15.9957C10.034 16.1549 9.89367 16.304 9.72929 16.4268L10.1998 17.7484C10.3388 18.1387 10.1351 18.5676 9.74484 18.7066C9.35462 18.8455 8.92566 18.6418 8.78672 18.2516L8.2521 16.75H7.75098Z" fill="#141B34"/>
<path fill-rule="evenodd" clip-rule="evenodd" d="M13.2663 12.25C12.9858 12.25 12.718 12.3482 12.5109 12.5525C12.3281 12.7328 12.2444 12.9457 12.201 13.0876L10.7687 17.7811C10.6478 18.1773 10.8709 18.5964 11.2671 18.7173C11.6633 18.8382 12.0825 18.6151 12.2034 18.2189L12.5499 17.0833H13.9826L14.3291 18.2189C14.45 18.6151 14.8692 18.8382 15.2654 18.7173C15.6616 18.5964 15.8847 18.1773 15.7638 17.7811L14.3315 13.0876C14.2881 12.9457 14.2044 12.7328 14.0216 12.5525C13.8146 12.3482 13.5467 12.25 13.2663 12.25ZM13.0078 15.5833L13.2664 14.7361L13.5249 15.5833H13.0078Z" fill="#141B34"/>
<path fill-rule="evenodd" clip-rule="evenodd" d="M16.5604 12.2529C16.973 12.2167 17.3369 12.5218 17.3731 12.9344L17.6541 16.1333L17.9676 15.76C17.9716 15.7553 17.9758 15.7503 17.9802 15.745C18.03 15.6854 18.1105 15.5893 18.1948 15.514C18.3039 15.4166 18.5124 15.2671 18.8152 15.2671C19.1181 15.2671 19.3266 15.4166 19.4356 15.514C19.52 15.5893 19.6004 15.6854 19.6503 15.745C19.6547 15.7503 19.6589 15.7553 19.6628 15.76L19.9752 16.1319L20.2539 12.9349C20.2898 12.5223 20.6535 12.2169 21.0661 12.2529C21.4788 12.2888 21.7842 12.6525 21.7482 13.0652L21.3851 17.2309C21.3842 17.2415 21.3833 17.2523 21.3823 17.2634C21.3697 17.4094 21.354 17.5924 21.319 17.7402C21.2866 17.8767 21.1645 18.3105 20.6874 18.449C20.2251 18.5833 19.8908 18.302 19.79 18.2113C19.6772 18.1098 19.5592 17.969 19.4624 17.8537C19.4554 17.8452 19.4484 17.8369 19.4416 17.8288L18.8152 17.0831L18.1884 17.8294C18.1815 17.8375 18.1746 17.8458 18.1675 17.8543C18.0709 17.9695 17.9529 18.1102 17.8402 18.2117C17.7393 18.3025 17.4052 18.5834 16.9431 18.4494C16.4662 18.3111 16.3438 17.8778 16.3114 17.7412C16.2763 17.5935 16.2604 17.4106 16.2477 17.2647C16.2467 17.2537 16.2458 17.2428 16.2449 17.2322L15.8789 13.0657C15.8427 12.653 16.1478 12.2892 16.5604 12.2529Z" fill="#141B34"/>
<path opacity="0.4" d="M7.13744 20.7033C8.00689 20.7942 9.13801 20.7955 10.7466 20.7955H14.9069C15.4447 20.7955 15.8806 21.233 15.8806 21.7727C15.8806 22.3125 15.4447 22.75 14.9069 22.75H10.6917C9.15062 22.75 7.91782 22.75 6.93556 22.6473C5.92614 22.5417 5.06492 22.3186 4.32016 21.7919C3.92979 21.5159 3.58125 21.1871 3.28607 20.8146C2.71624 20.0956 2.47298 19.2577 2.35887 18.2843C2.24899 17.3469 2.249 16.1743 2.24902 14.7262V12.1428V12.1427C2.24902 10.7244 2.24902 9.61179 2.30821 8.71107C2.36846 7.79422 2.493 7.02952 2.77411 6.31755C3.61751 4.1815 5.39124 2.51875 7.61123 1.73658C8.99367 1.2495 10.6803 1.24971 13.5199 1.25007L13.7562 1.25009L13.9596 1.25004L13.9596 1.25004C15.5146 1.2495 16.547 1.24914 17.4058 1.55172C18.7824 2.03673 19.8908 3.071 20.4196 4.41031C20.6029 4.87447 20.6785 5.36014 20.7143 5.90477C20.749 6.43335 20.749 7.08083 20.749 7.87999V7.88006V10.0455C20.749 10.5852 20.3131 11.0228 19.7753 11.0228C19.2376 11.0228 18.8017 10.5852 18.8017 10.0455V7.91329C18.8017 7.07303 18.8012 6.49008 18.7712 6.03341C18.7417 5.58546 18.6869 5.32704 18.6092 5.1304C18.2991 4.34503 17.6334 3.70339 16.7608 3.39593C16.2574 3.21858 15.5903 3.20463 13.7562 3.20463C13.4581 3.20463 13.1013 3.2058 12.7632 3.20732C12.425 3.20885 11.8716 3.21134 11.4095 3.48025C11.1047 3.65756 10.884 3.85945 10.7573 4.08004C10.5399 4.45845 10.4156 4.89711 10.4156 5.3648C10.4156 5.51193 10.4252 5.70446 10.4334 5.88206L10.4334 5.88212C10.4407 6.03696 10.4486 6.20566 10.4521 6.3737C10.46 6.75379 10.448 7.19733 10.3333 7.62548C10.1098 8.45945 9.45843 9.11086 8.62445 9.33432C8.19631 9.44904 7.75277 9.46105 7.37267 9.45315C7.20453 9.44966 7.03595 9.44174 6.88103 9.43446C6.70343 9.42622 6.47944 9.41667 6.33231 9.41667C5.88564 9.41667 5.46545 9.53003 5.09893 9.72955C4.87148 9.85337 4.65007 10.0965 4.47714 10.3875C4.19652 10.8596 4.19634 11.4982 4.19636 11.7652L4.19639 14.6653C4.19639 16.1888 4.19797 17.2461 4.2929 18.0559C4.38513 18.8427 4.55457 19.2754 4.81013 19.5979C4.98793 19.8223 5.20031 20.0234 5.44176 20.1941C5.79959 20.4472 6.28351 20.6139 7.13744 20.7033Z" fill="#141B34"/>
</svg>
