<svg width="24" height="24" viewBox="0 0 24 24" fill="none" xmlns="http://www.w3.org/2000/svg">
<path opacity="0.4" fill-rule="evenodd" clip-rule="evenodd" d="M3.5 15.2499C3.91421 15.2499 4.25 15.5857 4.25 15.9999V21.9999C4.25 22.4141 3.91421 22.7499 3.5 22.7499C3.08579 22.7499 2.75 22.4141 2.75 21.9999V15.9999C2.75 15.5857 3.08579 15.2499 3.5 15.2499Z" fill="#141B34"/>
<path d="M1.83934 12.1357C2.21734 11.6317 2.79679 11.2499 3.5 11.2499C4.20321 11.2499 4.78266 11.6317 5.16066 12.1357C5.53849 12.6394 5.75 13.301 5.75 13.9999C5.75 14.6987 5.53849 15.3603 5.16066 15.8641C4.78266 16.3681 4.20321 16.7499 3.5 16.7499C2.79679 16.7499 2.21734 16.3681 1.83934 15.8641C1.46151 15.3603 1.25 14.6987 1.25 13.9999C1.25 13.301 1.46151 12.6394 1.83934 12.1357Z" fill="#141B34"/>
<path fill-rule="evenodd" clip-rule="evenodd" d="M1.25 21.9999C1.25 21.5857 1.58579 21.2499 2 21.2499H22C22.4142 21.2499 22.75 21.5857 22.75 21.9999C22.75 22.4141 22.4142 22.7499 22 22.7499H2C1.58579 22.7499 1.25 22.4141 1.25 21.9999Z" fill="#141B34"/>
<path d="M12.3332 8.41417C12.25 8.32718 12.25 8.18889 12.25 7.91231L12.25 4.89558C12.2499 4.09586 12.2498 3.39076 12.351 2.85337C12.4642 2.2518 12.7398 1.67882 13.4136 1.39559C14.0322 1.13552 14.6638 1.25989 15.2656 1.48316C15.855 1.70181 16.5743 2.07853 17.4468 2.53546L19.0016 3.34961C19.5586 3.64129 20.0181 3.88192 20.3751 4.10913C20.7458 4.34506 21.0652 4.60212 21.3043 4.95307C21.5501 5.31387 21.6566 5.69329 21.7053 6.10375C21.7252 6.2713 21.7363 6.45326 21.7424 6.64893C21.7511 6.92786 21.7555 7.06733 21.6671 7.15854C21.5787 7.24976 21.4355 7.24976 21.1491 7.24976H20C19.5858 7.24976 19.25 7.58554 19.25 7.99976C19.25 8.41397 19.5858 8.74976 20 8.74976H21.15C21.4329 8.74976 21.5743 8.74976 21.6621 8.83762C21.75 8.92549 21.75 9.06691 21.75 9.34976V9.64976C21.75 9.9326 21.75 10.074 21.6621 10.1619C21.5743 10.2498 21.4329 10.2498 21.15 10.2498H20C19.5858 10.2498 19.25 10.5855 19.25 10.9998C19.25 11.414 19.5858 11.7498 20 11.7498H21.15C21.4329 11.7498 21.5743 11.7498 21.6621 11.8376C21.75 11.9255 21.75 12.0669 21.75 12.3498V12.6498C21.75 12.9326 21.75 13.074 21.6621 13.1619C21.5743 13.2498 21.4329 13.2498 21.15 13.2498H20C19.5858 13.2498 19.25 13.5855 19.25 13.9998C19.25 14.414 19.5858 14.7498 20 14.7498H21.15C21.4329 14.7498 21.5743 14.7498 21.6621 14.8376C21.75 14.9255 21.75 15.0669 21.75 15.3498L21.75 21.9999C21.75 22.4141 21.4142 22.7499 21 22.7499L17.1 22.7498C16.8172 22.7498 16.6757 22.7498 16.5879 22.6619C16.5 22.574 16.5 22.4326 16.5 22.1498L16.5 13.6715C16.5001 12.7959 16.5002 12.0173 16.4156 11.3887C16.3238 10.7054 16.112 10.0155 15.5481 9.45167C14.9843 8.88781 14.2944 8.67599 13.6111 8.58413C13.3748 8.55236 13.1172 8.53254 12.8413 8.52018C12.558 8.50749 12.4164 8.50115 12.3332 8.41417Z" fill="#141B34"/>
<path opacity="0.4" d="M7.25 13.7499C7.25 11.8643 7.25 10.9215 7.83579 10.3357C8.42157 9.74988 9.36438 9.74988 11.25 9.74988C13.1356 9.74988 14.0784 9.74988 14.6642 10.3357C15.25 10.9215 15.25 11.8643 15.25 13.7499V22.7499H7.25V13.7499Z" fill="#141B34"/>
<path fill-rule="evenodd" clip-rule="evenodd" d="M10 12.9999C10 12.5857 10.3358 12.2499 10.75 12.2499H11.75C12.1642 12.2499 12.5 12.5857 12.5 12.9999C12.5 13.4141 12.1642 13.7499 11.75 13.7499H10.75C10.3358 13.7499 10 13.4141 10 12.9999ZM10 15.9999C10 15.5857 10.3358 15.2499 10.75 15.2499H11.75C12.1642 15.2499 12.5 15.5857 12.5 15.9999C12.5 16.4141 12.1642 16.7499 11.75 16.7499H10.75C10.3358 16.7499 10 16.4141 10 15.9999Z" fill="#141B34"/>
</svg>
