<svg width="24" height="24" viewBox="0 0 24 24" fill="none" xmlns="http://www.w3.org/2000/svg">
<path fill-rule="evenodd" clip-rule="evenodd" d="M3.6838 1.05159C4.20774 0.87694 4.77406 1.1601 4.94871 1.68404L8.72079 13.0003L18 13.0003C18.5523 13.0003 19 13.448 19 14.0003C19 14.5526 18.5523 15.0003 18 15.0003H17.3875L18.4793 18.2759C18.7354 18.0052 18.9719 17.7187 19.1868 17.4184C19.5081 16.9692 20.1328 16.8656 20.5819 17.187C21.0311 17.5084 21.1347 18.133 20.8133 18.5822C20.2045 19.4331 19.4617 20.1889 18.6154 20.8241C16.7964 22.1893 14.4946 23.0003 12 23.0003C9.50423 23.0003 7.20132 22.1885 5.38189 20.8221C4.5367 20.1873 3.79493 19.4322 3.18676 18.5822C2.86539 18.133 2.96898 17.5084 3.41814 17.187C3.8673 16.8656 4.49193 16.9692 4.8133 17.4184C5.02818 17.7187 5.26462 18.0052 5.52073 18.2759L6.63545 14.9317C6.26346 14.786 6.00003 14.4239 6.00003 14.0003C6.00003 13.5766 6.26346 13.2145 6.63545 13.0688L3.05134 2.3165C2.8767 1.79256 3.15986 1.22624 3.6838 1.05159ZM8.72079 15.0003L7.17708 19.6314C8.55002 20.4936 10.2081 21.0003 12 21.0003C13.792 21.0003 15.45 20.4936 16.823 19.6314L15.2793 15.0003H8.72079Z" fill="#141B34"/>
<path opacity="0.4" fill-rule="evenodd" clip-rule="evenodd" d="M5.99952 7C5.67808 7 5.37623 7.15452 5.18828 7.41529C5.00033 7.67606 4.94919 8.01128 5.05084 8.31623L6.63494 13.0685C6.26295 13.2142 5.99952 13.5764 5.99952 14C5.99952 14.5523 6.44723 15 6.99952 15H17.9995C18.5518 15 18.9995 14.5523 18.9995 14C18.9995 13.4477 18.5518 13 17.9995 13L15.9995 13L15.9995 9H16.4995C16.7757 9 16.9995 9.22386 16.9995 9.5C16.9995 10.0523 17.4472 10.5 17.9995 10.5C18.5518 10.5 18.9995 10.0523 18.9995 9.5C18.9995 8.11929 17.8802 7 16.4995 7H5.99952ZM13.9995 9V13H11.9995V9H13.9995ZM9.99951 9V13H8.72028L7.38695 9H9.99951Z" fill="#141B34"/>
</svg>
