<svg width="24" height="24" viewBox="0 0 24 24" fill="none" xmlns="http://www.w3.org/2000/svg">
<path d="M21.6439 5.55391C21.8916 6.04755 21.6922 6.6485 21.1986 6.89617C20.7049 7.14384 20.104 6.94444 19.8563 6.4508C18.183 3.11567 14.3356 2.10112 11.62 3.85243L12.4308 4.68341C12.5122 4.78504 12.5683 4.90922 12.5877 5.04754C12.6453 5.45773 12.3595 5.83696 11.9493 5.89459C11.4878 5.95944 11.0282 5.98618 10.6962 5.99442C10.3688 6.00253 9.99698 5.99525 9.65759 5.94549C9.36207 5.90216 8.91495 5.80515 8.60275 5.50324C8.42919 5.33539 8.3255 5.13176 8.26019 4.96566C8.192 4.79224 8.14513 4.60625 8.1114 4.42818C8.04402 4.07242 8.01582 3.67551 8.00531 3.32133C7.99465 2.96256 7.9975 2.43206 8.03322 1.9598C8.06428 1.54675 8.424 1.23708 8.83705 1.26814C9.03157 1.28276 9.20316 1.37047 9.32702 1.50232L10.1953 2.39227C13.9554 -0.373575 19.4241 1.12951 21.6439 5.55391Z" fill="#141B34"/>
<path opacity="0.4" d="M14.0227 22.5216C13.8132 22.4016 13.4977 22.3378 13.0494 22.3167C12.8397 22.3068 12.6255 22.3068 12.3975 22.3067C12.1694 22.3066 11.8983 22.3062 11.665 22.2912C10.8624 22.2396 9.70716 22.0733 8.67225 21.6746C7.67111 21.2889 6.56567 20.5986 6.24973 19.3681C5.54056 16.6061 6.44003 14.0546 7.324 12.5177L3.40461 10.2726C2.23187 9.60077 1.94719 8.06698 2.57486 6.98835C3.24597 5.83506 4.67646 5.56728 5.76724 6.19211L12.1583 9.85304L11.982 8.9189C11.735 7.60944 12.6315 6.36697 13.9447 6.16853C15.0342 6.00389 16.0974 6.6126 16.4972 7.64057L18.3999 12.3089C18.7495 13.1665 18.8708 13.4421 19.0554 13.6618C19.3401 13.9733 19.6452 14.3097 19.8151 14.517C19.9713 14.7076 20.1578 14.9535 20.2366 15.2344C20.323 15.417 20.3611 15.9429 20.1099 16.4771L16.7787 22.2109C16.6788 22.3583 16.5567 22.5131 16.3858 22.6433C16.0201 22.9219 15.5593 23.0453 15.1033 22.987C14.8902 22.9597 14.707 22.8866 14.5468 22.8089C14.3978 22.7365 14.2083 22.628 14.0227 22.5216Z" fill="#141B34"/>
</svg>
