<svg width="24" height="24" viewBox="0 0 24 24" fill="none" xmlns="http://www.w3.org/2000/svg">
<g opacity="0.4">
<path d="M1.93788 15.0505C2.34387 14.9652 2.74211 15.2253 2.82735 15.6313C2.89943 15.9745 3.01335 16.2933 3.18761 16.5946C3.2665 16.731 3.30051 16.8887 3.28483 17.0455L3.16006 18.2929C3.11877 18.7057 2.75067 19.0069 2.33788 18.9656C1.92509 18.9243 1.62393 18.5562 1.66522 18.1434L1.76708 17.125C1.57065 16.7364 1.44094 16.3392 1.35711 15.94C1.27186 15.534 1.53188 15.1357 1.93788 15.0505Z" fill="#141B34"/>
<path d="M21.528 15.1071C21.9112 15.266 22.093 15.7055 21.9341 16.0887C21.5722 16.9615 21.0986 17.7759 20.5313 18.514C20.2785 18.843 19.8069 18.9047 19.478 18.6519C19.1491 18.3991 19.0873 17.9276 19.3401 17.5986C19.8283 16.9634 20.2354 16.2631 20.5464 15.5132C20.7053 15.13 21.1448 14.9482 21.528 15.1071Z" fill="#141B34"/>
<path d="M18.6889 19.441C18.9417 19.77 18.88 20.2415 18.551 20.4943C17.8129 21.0616 16.9985 21.5352 16.1257 21.8971C15.7425 22.056 15.303 21.8742 15.1441 21.491C14.9852 21.1078 15.167 20.6683 15.5502 20.5094C16.3001 20.1984 17.0004 19.7913 17.6356 19.3031C17.9646 19.0503 18.4361 19.1121 18.6889 19.441Z" fill="#141B34"/>
<path d="M2.23785 19.9656C2.65064 20.0069 2.9518 20.375 2.91052 20.7878L2.87712 21.1217L3.21103 21.0883C3.62382 21.0471 3.99191 21.3482 4.03319 21.761C4.07447 22.1738 3.7733 22.5419 3.36051 22.5832L2.11307 22.7079C1.88889 22.7303 1.66648 22.6509 1.50717 22.4916C1.34787 22.3323 1.26848 22.1099 1.2909 21.8857L1.41567 20.6383C1.45696 20.2255 1.82506 19.9243 2.23785 19.9656Z" fill="#141B34"/>
<path d="M6.95337 20.7141C7.11014 20.6984 7.26786 20.7324 7.40423 20.8113C7.70547 20.9856 8.02426 21.0995 8.36755 21.1716C8.77355 21.2568 9.03358 21.655 8.94835 22.061C8.86311 22.467 8.46489 22.727 8.05889 22.6418C7.65962 22.558 7.2624 22.4283 6.87385 22.2318L5.85541 22.3337C5.44262 22.375 5.07452 22.0738 5.03324 21.661C4.99196 21.2482 5.29313 20.8801 5.70592 20.8388L6.95337 20.7141Z" fill="#141B34"/>
<path d="M14.0662 21.779C14.1198 22.1904 13.8299 22.5673 13.4185 22.621C12.9598 22.6808 12.4922 22.7116 12.0179 22.7116C11.6168 22.7116 11.2193 22.7295 10.8099 22.7479L10.7809 22.7492C10.3664 22.7678 10.0154 22.447 9.99677 22.0325C9.97815 21.6181 10.299 21.2671 10.7134 21.2484L10.7547 21.2466C11.1553 21.2286 11.5825 21.2093 12.0179 21.2093C12.4271 21.2093 12.8297 21.1828 13.2242 21.1313C13.6355 21.0776 14.0125 21.3676 14.0662 21.779Z" fill="#141B34"/>
<path d="M10.6175 1.34066C11.0762 1.28082 11.5438 1.25 12.0181 1.25C12.4924 1.25 12.9599 1.28082 13.4187 1.34066C13.83 1.39432 14.12 1.7713 14.0664 2.18266C14.0127 2.59402 13.6357 2.884 13.2244 2.83034C12.8299 2.77889 12.4273 2.7523 12.0181 2.7523C11.6089 2.7523 11.2063 2.77889 10.8118 2.83034C10.4005 2.884 10.0235 2.59402 9.96982 2.18266C9.91616 1.77129 10.2061 1.39432 10.6175 1.34066Z" fill="#141B34"/>
<path d="M15.1443 2.47068C15.3032 2.08747 15.7427 1.90564 16.1259 2.06455C16.9987 2.42648 17.813 2.90009 18.5512 3.46734C18.8801 3.72011 18.9419 4.19169 18.6891 4.52063C18.4363 4.84958 17.9647 4.91132 17.6358 4.65854C17.0005 4.17037 16.3003 3.76321 15.5504 3.45226C15.1672 3.29335 14.9854 2.85388 15.1443 2.47068Z" fill="#141B34"/>
<path d="M8.89188 2.47068C9.05079 2.85388 8.86897 3.29335 8.48576 3.45226C7.73592 3.76321 7.03564 4.17037 6.40037 4.65854C6.07143 4.91132 5.59986 4.84958 5.34708 4.52063C5.0943 4.19169 5.15604 3.72012 5.48498 3.46734C6.22315 2.90009 7.0375 2.42648 7.9103 2.06455C8.2935 1.90564 8.73298 2.08747 8.89188 2.47068Z" fill="#141B34"/>
<path d="M19.4782 5.30972C19.8071 5.05694 20.2787 5.11868 20.5315 5.44763C21.0987 6.18579 21.5723 7.00015 21.9343 7.87294C22.0932 8.25615 21.9114 8.69562 21.5281 8.85453C21.1449 9.01344 20.7055 8.83161 20.5466 8.4484C20.2356 7.69856 19.8285 6.99828 19.3403 6.36302C19.0875 6.03408 19.1492 5.5625 19.4782 5.30972Z" fill="#141B34"/>
<path d="M4.55799 5.30972C4.88693 5.5625 4.94867 6.03408 4.6959 6.36302C4.20772 6.99828 3.80057 7.69856 3.48962 8.4484C3.33071 8.83161 2.89124 9.01344 2.50803 8.85453C2.12483 8.69562 1.943 8.25615 2.10191 7.87294C2.46384 7.00015 2.93744 6.18579 3.50469 5.44763C3.75747 5.11869 4.22905 5.05694 4.55799 5.30972Z" fill="#141B34"/>
<path d="M2.22002 9.93247C2.63138 9.98612 2.92136 10.3631 2.8677 10.7745C2.81624 11.1689 2.78966 11.5715 2.78966 11.9807C2.78966 12.4161 2.77046 12.8432 2.75244 13.2438L2.75058 13.2852C2.73197 13.6996 2.38092 14.0205 1.96649 14.0019C1.55206 13.9833 1.23118 13.6322 1.24979 13.2178L1.25111 13.1885C1.2695 12.7791 1.28736 12.3818 1.28736 11.9807C1.28736 11.5064 1.31818 11.0389 1.37802 10.5801C1.43168 10.1688 1.80865 9.87881 2.22002 9.93247Z" fill="#141B34"/>
<path d="M21.8162 9.93247C22.2275 9.87881 22.6045 10.1688 22.6582 10.5801C22.718 11.0389 22.7488 11.5064 22.7488 11.9807C22.7488 12.4551 22.718 12.9226 22.6582 13.3813C22.6045 13.7927 22.2275 14.0827 21.8162 14.029C21.4048 13.9753 21.1148 13.5984 21.1685 13.187C21.2199 12.7925 21.2465 12.3899 21.2465 11.9807C21.2465 11.5715 21.2199 11.1689 21.1685 10.7745C21.1148 10.3631 21.4048 9.98612 21.8162 9.93247Z" fill="#141B34"/>
</g>
<path d="M4.25002 12C4.25002 7.71979 7.71981 4.25 12 4.25C16.2802 4.25 19.75 7.71979 19.75 12C19.75 16.2802 16.2802 19.75 12 19.75C10.6847 19.75 9.46256 19.3679 8.40762 18.8064L5.20606 19.7211C4.94416 19.796 4.66229 19.7229 4.46969 19.5303C4.27709 19.3377 4.20405 19.0559 4.27888 18.794L5.19361 15.5924C4.63216 14.5375 4.25002 13.3153 4.25002 12Z" fill="#141B34"/>
</svg>
