<svg width="25" height="24" viewBox="0 0 25 24" fill="none" xmlns="http://www.w3.org/2000/svg">
<path opacity="0.4" d="M12.2157 2.68882C10.8821 2.24976 9.4636 2.24985 6.98928 2.25001L2.11328 2.25001C1.69907 2.25001 1.36328 2.5858 1.36328 3.00001V15C1.36328 15.4142 1.69907 15.75 2.11328 15.75H20.0785C20.1104 15.75 20.1351 15.75 20.1573 15.7497C21.6416 15.7259 22.8392 14.5283 22.8629 13.044C22.8633 13.0219 22.8633 12.9973 22.8633 12.9654V12.9554C22.8633 12.909 22.8633 12.8806 22.863 12.8531C22.846 11.0668 21.9998 9.38992 20.5729 8.31511C20.551 8.29858 20.5281 8.28168 20.4907 8.25409L16.6807 5.44057C14.6904 3.97058 13.5494 3.12788 12.2157 2.68882Z" fill="#141B34"/>
<path fill-rule="evenodd" clip-rule="evenodd" d="M17.7768 6.25H11.2266C10.8123 6.25 10.4766 6.58579 10.4766 7C10.4766 7.41421 10.8123 7.75 11.2266 7.75L19.8081 7.75L17.7768 6.25ZM18.2343 15.75L16.0191 13.9315L15.9028 13.8318C13.9946 12.1959 12.8875 11.2468 11.5628 10.7489C10.2344 10.2497 8.80893 10.2498 6.36605 10.25L6.20828 10.25H1.36328V11.75H6.20828C8.8562 11.75 9.99208 11.761 11.0351 12.153C12.0822 12.5466 12.9819 13.3038 15.049 15.0756L15.055 15.0807L15.8703 15.75H18.2343Z" fill="#141B34"/>
<path fill-rule="evenodd" clip-rule="evenodd" d="M1.11328 19C1.11328 18.4477 1.561 18 2.11328 18H22.1133C22.6656 18 23.1133 18.4477 23.1133 19C23.1133 19.5523 22.6656 20 22.1133 20H2.11328C1.561 20 1.11328 19.5523 1.11328 19Z" fill="#141B34"/>
<path opacity="0.4" fill-rule="evenodd" clip-rule="evenodd" d="M6.22656 18C6.77885 18 7.22656 18.4477 7.22656 19V21C7.22656 21.5523 6.77885 22 6.22656 22C5.67428 22 5.22656 21.5523 5.22656 21L5.22656 19C5.22656 18.4477 5.67428 18 6.22656 18ZM12.2266 18C12.7788 18 13.2266 18.4477 13.2266 19V21C13.2266 21.5523 12.7788 22 12.2266 22C11.6743 22 11.2266 21.5523 11.2266 21V19C11.2266 18.4477 11.6743 18 12.2266 18ZM18.2266 18C18.7788 18 19.2266 18.4477 19.2266 19V21.0002C19.2266 21.5525 18.7788 22.0002 18.2266 22.0002C17.6743 22.0002 17.2266 21.5525 17.2266 21.0002V19C17.2266 18.4477 17.6743 18 18.2266 18Z" fill="#141B34"/>
</svg>
