<svg width="24" height="24" viewBox="0 0 24 24" fill="none" xmlns="http://www.w3.org/2000/svg">
<path opacity="0.4" d="M12.0572 1.75C14.2479 1.74999 15.9686 1.74998 17.312 1.93059C18.6886 2.11568 19.7809 2.50272 20.6391 3.36091C21.4973 4.21911 21.8843 5.31137 22.0694 6.68802C22.25 8.03144 22.25 9.7521 22.25 11.9428V11.9428V12.0572V12.0572C22.25 14.2479 22.25 15.9686 22.0694 17.312C21.8843 18.6886 21.4973 19.7809 20.6391 20.6391C19.7809 21.4973 18.6886 21.8843 17.312 22.0694C15.9686 22.25 14.2479 22.25 12.0572 22.25H12.0572H11.9428H11.9428C9.7521 22.25 8.03144 22.25 6.68802 22.0694C5.31137 21.8843 4.21911 21.4973 3.36091 20.6391C2.50272 19.7809 2.11568 18.6886 1.93059 17.312C1.74998 15.9686 1.74999 14.2479 1.75 12.0572V11.9428C1.74999 9.75212 1.74998 8.03144 1.93059 6.68802C2.11568 5.31137 2.50272 4.21911 3.36091 3.36091C4.21911 2.50272 5.31137 2.11568 6.68802 1.93059C8.03144 1.74998 9.75212 1.74999 11.9428 1.75H12.0572Z" fill="#141B34"/>
<path fill-rule="evenodd" clip-rule="evenodd" d="M6.29289 6.29289C6.68342 5.90237 7.31658 5.90237 7.70711 6.29289L9.5 8.08579L10.2929 7.29289C10.5789 7.0069 11.009 6.92134 11.3827 7.07612C11.7564 7.2309 12 7.59554 12 8V11C12 11.5523 11.5523 12 11 12H8C7.59554 12 7.2309 11.7564 7.07612 11.3827C6.92134 11.009 7.0069 10.5789 7.29289 10.2929L8.08579 9.5L6.29289 7.70711C5.90237 7.31658 5.90237 6.68342 6.29289 6.29289ZM12 13C12 12.4477 12.4477 12 13 12H16C16.4045 12 16.7691 12.2436 16.9239 12.6173C17.0787 12.991 16.9931 13.4211 16.7071 13.7071L15.9142 14.5L17.7071 16.2929C18.0976 16.6834 18.0976 17.3166 17.7071 17.7071C17.3166 18.0976 16.6834 18.0976 16.2929 17.7071L14.5 15.9142L13.7071 16.7071C13.4211 16.9931 12.991 17.0787 12.6173 16.9239C12.2436 16.7691 12 16.4045 12 16V13Z" fill="#141B34"/>
</svg>
