<svg width="24" height="25" viewBox="0 0 24 25" fill="none" xmlns="http://www.w3.org/2000/svg">
<path fill-rule="evenodd" clip-rule="evenodd" d="M17 13.75C14.3766 13.75 12.25 15.8766 12.25 18.5C12.25 21.1234 14.3766 23.25 17 23.25C19.6234 23.25 21.75 21.1234 21.75 18.5C21.75 15.8766 19.6234 13.75 17 13.75ZM17.7503 17.166C17.7503 16.7518 17.4145 16.416 17.0003 16.416C16.5861 16.416 16.2503 16.7518 16.2503 17.166V17.7493H15.667C15.2528 17.7493 14.917 18.0851 14.917 18.4993C14.917 18.9136 15.2528 19.2493 15.667 19.2493H16.2503V19.8327C16.2503 20.2469 16.5861 20.5827 17.0003 20.5827C17.4145 20.5827 17.7503 20.2469 17.7503 19.8327V19.2493H18.3337C18.7479 19.2493 19.0837 18.9136 19.0837 18.4993C19.0837 18.0851 18.7479 17.7493 18.3337 17.7493H17.7503V17.166Z" fill="#141B34"/>
<path opacity="0.4" d="M6.52522 8.84988C7.95364 8.78422 9.40416 8.75 11 8.75C12.5958 8.75 14.0464 8.78422 15.4748 8.84989C17.5328 8.9445 19.2039 10.5382 19.4755 12.5552C19.4883 12.6504 19.3918 12.7232 19.3025 12.6878C18.5899 12.4053 17.8131 12.25 17 12.25C13.5482 12.25 10.75 15.0482 10.75 18.5C10.75 19.8277 11.164 21.0588 11.87 22.071C12.2667 22.6399 12.4651 22.9243 12.3813 23.0854C12.2976 23.2464 11.9816 23.2474 11.3495 23.2494C11.2337 23.2498 11.1173 23.25 11 23.25C9.40416 23.25 7.95364 23.2158 6.52522 23.1501C4.46716 23.0555 2.79609 21.4618 2.52452 19.4448C2.37636 18.3444 2.25 17.1882 2.25 16C2.25 14.8118 2.37636 13.6556 2.52452 12.5552C2.79609 10.5382 4.46716 8.9445 6.52522 8.84988Z" fill="#141B34"/>
<path d="M7.5 7.25C7.5 5.317 9.067 3.75 11 3.75C12.933 3.75 14.5 5.317 14.5 7.25V8.81016C14.827 8.82177 15.1515 8.83502 15.4748 8.84988C15.8298 8.8662 16.1732 8.92712 16.5 9.02712V7.25C16.5 4.21243 14.0376 1.75 11 1.75C7.96243 1.75 5.5 4.21243 5.5 7.25V9.02712C5.82676 8.92712 6.17023 8.8662 6.52522 8.84988C6.84854 8.83502 7.17299 8.82177 7.5 8.81016V7.25Z" fill="#141B34"/>
</svg>
