<svg width="24" height="24" viewBox="0 0 24 24" fill="none" xmlns="http://www.w3.org/2000/svg">
<path opacity="0.4" d="M22.25 11.9428C22.25 9.75212 22.25 8.03144 22.0694 6.68802C21.8843 5.31137 21.4973 4.21911 20.6391 3.36091C19.7809 2.50271 18.6886 2.11568 17.312 1.93059C15.9686 1.74998 14.2479 1.74999 12.0572 1.75L11.9428 1.75C9.75211 1.74999 8.03144 1.74998 6.68802 1.93059C5.31137 2.11568 4.21911 2.50271 3.36091 3.36091C2.50271 4.21911 2.11568 5.31137 1.93059 6.68802C1.74998 8.03144 1.74999 9.75214 1.75 11.9428L1.75 12.0572C1.74999 14.2479 1.74998 15.9686 1.93059 17.312C2.11568 18.6886 2.50271 19.7809 3.36091 20.6391C4.21911 21.4973 5.31137 21.8843 6.68802 22.0694C8.03144 22.25 9.75212 22.25 11.9428 22.25H12.0572C14.2479 22.25 15.9686 22.25 17.312 22.0694C18.6886 21.8843 19.7809 21.4973 20.6391 20.6391C21.4973 19.7809 21.8843 18.6886 22.0694 17.312C22.25 15.9686 22.25 14.2479 22.25 12.0572V11.9428Z" fill="#141B34"/>
<path fill-rule="evenodd" clip-rule="evenodd" d="M16.7071 15.7071C17.0976 15.3166 17.0976 14.6834 16.7071 14.2929L14.7071 12.2929C14.4211 12.0069 13.991 11.9214 13.6173 12.0762C13.2436 12.2309 13 12.5956 13 13V14L8 14C7.44771 14 7 14.4477 7 15C7 15.5523 7.44771 16 8 16L13 16V17C13 17.4045 13.2436 17.7691 13.6173 17.9239C13.991 18.0787 14.4211 17.9931 14.7071 17.7071L16.7071 15.7071ZM16 10C16.5523 10 17 9.55231 17 9.00003C17 8.44774 16.5523 8.00003 16 8.00003L11 8.00003V7.00003C11 6.59557 10.7564 6.23093 10.3827 6.07615C10.009 5.92137 9.57889 6.00692 9.29289 6.29292L7.29289 8.29292C6.90237 8.68345 6.90237 9.31661 7.29289 9.70714L9.29289 11.7071C9.57889 11.9931 10.009 12.0787 10.3827 11.9239C10.7564 11.7691 11 11.4045 11 11V10H16Z" fill="#141B34"/>
</svg>
