<svg width="24" height="24" viewBox="0 0 24 24" fill="none" xmlns="http://www.w3.org/2000/svg">
<path opacity="0.4" d="M1.75002 11.9428C1.75001 9.75212 1.75 8.03144 1.93062 6.68802C2.1157 5.31137 2.50274 4.21911 3.36094 3.36091C4.21913 2.50271 5.31139 2.11568 6.68805 1.93059C8.03146 1.74998 9.75213 1.74999 11.9428 1.75L11.9429 1.75L12.0572 1.75L12.0572 1.75C14.2479 1.74999 15.9686 1.74998 17.312 1.93059C18.6887 2.11568 19.7809 2.50271 20.6391 3.36091C21.4973 4.21911 21.8843 5.31136 22.0694 6.68802C22.25 8.03143 22.25 9.7521 22.25 11.9428L22.25 11.9428L22.25 12.0572L22.25 12.0572C22.25 14.2479 22.25 15.9686 22.0694 17.312C21.8843 18.6886 21.4973 19.7809 20.6391 20.6391C19.7809 21.4973 18.6887 21.8843 17.312 22.0694C15.9686 22.25 14.2479 22.25 12.0572 22.25L11.9428 22.25C9.75214 22.25 8.03146 22.25 6.68805 22.0694C5.31139 21.8843 4.21913 21.4973 3.36094 20.6391C2.50274 19.7809 2.1157 18.6886 1.93062 17.312C1.75 15.9686 1.75001 14.2479 1.75002 12.0572L1.75002 11.9428Z" fill="#141B34"/>
<path d="M12.4861 11.9999C12.4798 11.9834 12.4713 11.9627 12.4598 11.9374C12.4078 11.8222 12.3215 11.6696 12.1976 11.4826C11.9503 11.1094 11.6065 10.679 11.2432 10.2583C10.8834 9.8418 10.5213 9.45425 10.2477 9.16959L9.79935 8.71344C9.40538 8.32647 9.39952 7.69327 9.78646 7.29924C10.1734 6.90519 10.8066 6.89944 11.2006 7.2864L11.6897 7.78376C11.9786 8.0844 12.3665 8.49922 12.7567 8.95094C13.1433 9.39853 13.5496 9.90221 13.8648 10.3778C14.0221 10.6152 14.1702 10.8658 14.2822 11.1134C14.3862 11.3435 14.4999 11.6583 14.4999 11.9999C14.4999 12.3416 14.3862 12.6564 14.2822 12.8865C14.1702 13.1341 14.0221 13.3846 13.8648 13.6221C13.5496 14.0977 13.1433 14.6014 12.7567 15.049C12.3665 15.5007 11.9786 15.9155 11.6897 16.2161L11.2006 16.7135C10.8066 17.1005 10.1734 17.0947 9.78646 16.7007C9.39952 16.3066 9.40538 15.6734 9.79935 15.2865L10.2477 14.8303C10.5213 14.5456 10.8834 14.1581 11.2432 13.7416C11.6065 13.3209 11.9503 12.8905 12.1976 12.5173C12.3215 12.3303 12.4078 12.1777 12.4598 12.0625C12.4713 12.0372 12.4798 12.0164 12.4861 11.9999Z" fill="#141B34"/>
</svg>
