<svg width="24" height="24" viewBox="0 0 24 24" fill="none" xmlns="http://www.w3.org/2000/svg">
<path opacity="0.4" d="M11.9428 1.75C9.75212 1.74999 8.03144 1.74998 6.68802 1.93059C5.31137 2.11568 4.21911 2.50272 3.36091 3.36091C2.50271 4.21911 2.11568 5.31137 1.93059 6.68802C1.74998 8.03144 1.74999 9.75214 1.75 11.9428V12.0572C1.74999 14.2479 1.74998 15.9686 1.93059 17.312C2.11568 18.6886 2.50271 19.7809 3.36091 20.6391C4.21911 21.4973 5.31137 21.8843 6.68802 22.0694C8.03144 22.25 9.75214 22.25 11.9428 22.25H12.0572C14.2479 22.25 15.9686 22.25 17.312 22.0694C18.6886 21.8843 19.7809 21.4973 20.6391 20.6391C21.4973 19.7809 21.8843 18.6886 22.0694 17.312C22.25 15.9686 22.25 14.2479 22.25 12.0572V11.9428C22.25 9.75212 22.25 8.03144 22.0694 6.68802C21.8843 5.31137 21.4973 4.21911 20.6391 3.36091C19.7809 2.50272 18.6886 2.11568 17.312 1.93059C15.9686 1.74998 14.2479 1.74999 12.0572 1.75H11.9428Z" fill="#141B34"/>
<path fill-rule="evenodd" clip-rule="evenodd" d="M14.6173 6.07615C14.2437 6.23093 14 6.59557 14 7.00003V8.00003H9.50003C8.6716 8.00003 8.00003 8.6716 8.00003 9.50003V14H7.00003C6.59557 14 6.23093 14.2437 6.07615 14.6173C5.92137 14.991 6.00692 15.4211 6.29292 15.7071L8.29292 17.7071C8.68345 18.0977 9.31661 18.0977 9.70714 17.7071L11.7071 15.7071C11.9931 15.4211 12.0787 14.991 11.9239 14.6173C11.7691 14.2437 11.4045 14 11 14H10V10H14V11C14 11.4045 14.2437 11.7691 14.6173 11.9239C14.991 12.0787 15.4211 11.9931 15.7071 11.7071L17.7071 9.70714C18.0977 9.31661 18.0977 8.68345 17.7071 8.29292L15.7071 6.29292C15.4211 6.00692 14.991 5.92137 14.6173 6.07615Z" fill="#141B34"/>
</svg>
