<svg width="24" height="24" viewBox="0 0 24 24" fill="none" xmlns="http://www.w3.org/2000/svg">
<path opacity="0.4" d="M1.75 11.9428C1.74999 9.75212 1.74998 8.03144 1.93059 6.68802C2.11568 5.31137 2.50271 4.21911 3.36091 3.36091C4.21911 2.50271 5.31137 2.11568 6.68802 1.93059C8.03144 1.74998 9.75214 1.74999 11.9428 1.75L12.0572 1.75C14.2479 1.74999 15.9686 1.74998 17.312 1.93059C18.6886 2.11568 19.7809 2.50271 20.6391 3.36091C21.4973 4.21911 21.8843 5.31137 22.0694 6.68802C22.25 8.03144 22.25 9.75214 22.25 11.9428V12.0572C22.25 14.2479 22.25 15.9686 22.0694 17.312C21.8843 18.6886 21.4973 19.7809 20.6391 20.6391C19.7809 21.4973 18.6886 21.8843 17.312 22.0694C15.9686 22.25 14.2479 22.25 12.0572 22.25H11.9428C9.75212 22.25 8.03144 22.25 6.68802 22.0694C5.31137 21.8843 4.21911 21.4973 3.36091 20.6391C2.50272 19.7809 2.11568 18.6886 1.93059 17.312C1.74998 15.9686 1.74999 14.2479 1.75 12.0572L1.75 11.9428Z" fill="#141B34"/>
<path d="M7.06066 7.65715C7.20468 7.26254 7.57997 7 8.00005 7L16 7C16.4201 7 16.7954 7.26254 16.9394 7.65715C17.0835 8.05177 16.9655 8.49433 16.6442 8.76491L12.9663 11.8621C12.4079 12.3323 11.5922 12.3323 11.0338 11.8621L7.35591 8.76491C7.03459 8.49433 6.91664 8.05177 7.06066 7.65715Z" fill="#141B34"/>
<path d="M7.23514 12.1411C7.59089 11.7186 8.22174 11.6645 8.64419 12.0203L12.0001 14.8463L15.3559 12.0203C15.7784 11.6645 16.4092 11.7186 16.765 12.1411C17.1207 12.5635 17.0666 13.1944 16.6442 13.5501L12.9663 16.6473C12.4079 17.1175 11.5922 17.1175 11.0338 16.6473L7.35591 13.5501C6.93347 13.1944 6.87939 12.5635 7.23514 12.1411Z" fill="#141B34"/>
</svg>
