<svg width="24" height="24" viewBox="0 0 24 24" fill="none" xmlns="http://www.w3.org/2000/svg">
<path opacity="0.4" fill-rule="evenodd" clip-rule="evenodd" d="M15.3355 2.2542C17.3657 1.50438 19.3651 1.1699 20.8012 1.26615L20.834 1.2683C20.9814 1.27783 21.2145 1.29291 21.4387 1.35873C21.7355 1.44586 21.975 1.60178 22.1866 1.81341C22.3982 2.02504 22.5541 2.26452 22.6413 2.56131C22.7071 2.78551 22.7222 3.01863 22.7317 3.16599L22.7338 3.1988C22.8301 4.63488 22.4956 6.6343 21.7458 8.66453C20.9914 10.707 19.7848 12.8683 18.0593 14.5938C14.9838 17.6693 10.3609 20.5616 7.4202 22.2737C7.26376 22.3648 7.09634 22.4623 6.96903 22.5277C6.83778 22.5952 6.65927 22.6781 6.44809 22.7181C5.56261 22.8858 4.67822 22.3774 4.37762 21.5278C4.30545 21.3238 4.28761 21.1255 4.28001 20.978C4.27257 20.8333 4.27258 20.6374 4.27259 20.4522C4.27259 20.2498 4.27237 20.1298 4.26837 20.0397C4.26837 19.7839 4.063 19.7278 3.96032 19.7316C3.87023 19.7276 3.75018 19.7274 3.54784 19.7274C3.36257 19.7274 3.16674 19.7274 3.02205 19.72C2.87448 19.7124 2.67622 19.6946 2.47222 19.6224C1.62261 19.3218 1.11416 18.4374 1.28187 17.5519C1.32187 17.3407 1.40479 17.1622 1.47228 17.031C1.53783 16.9035 1.63511 16.7364 1.72632 16.5798C3.43844 13.6391 6.33069 9.0162 9.40618 5.94071C11.1317 4.21516 13.293 3.00855 15.3355 2.2542ZM16.0131 4.0878C14.1675 4.76943 12.2691 5.8425 10.7887 7.32289C9.88106 8.23056 8.98291 9.29177 8.125 10.4114C9.76096 10.0334 11.4455 10.1394 12.9748 10.2357C13.2485 10.2529 13.5172 10.2698 13.7798 10.2836C15.1832 10.3571 16.4282 10.3551 17.5255 10.0068C18.3051 9.75933 19.0338 9.32873 19.6861 8.56754C19.766 8.37397 19.8415 8.18043 19.9128 7.98747C20.5989 6.12966 20.8568 4.41274 20.7842 3.32961C20.7779 3.20865 20.7061 3.20375 20.671 3.21642C19.5878 3.14383 17.8709 3.40165 16.0131 4.0878Z" fill="#141B34"/>
<path fill-rule="evenodd" clip-rule="evenodd" d="M8.53033 15.4697C8.82322 15.7626 8.82322 16.2374 8.53033 16.5303L7.53033 17.5303C7.23744 17.8232 6.76256 17.8232 6.46967 17.5303C6.17678 17.2374 6.17678 16.7626 6.46967 16.4697L7.46967 15.4697C7.76256 15.1768 8.23744 15.1768 8.53033 15.4697Z" fill="#141B34"/>
</svg>
