<svg width="24" height="24" viewBox="0 0 24 24" fill="none" xmlns="http://www.w3.org/2000/svg">
<path opacity="0.4" d="M10.3918 11.2363C10.6285 11.2363 10.8203 11.0477 10.8203 10.815V7.765C10.8203 7.61034 10.8203 7.53302 10.8797 7.45328C10.9391 7.37354 10.9944 7.35698 11.1051 7.32385C11.2575 7.2782 11.4124 7.25619 11.4985 7.24998C12.1395 7.24998 12.7293 7.46931 13.1969 7.83703C13.2866 7.90755 13.3315 7.94282 13.3616 8.00489C13.3918 8.06697 13.3918 8.13237 13.3918 8.26317V10.815C13.3918 11.0477 13.5836 11.2363 13.8203 11.2363C14.057 11.2363 14.2489 11.0477 14.2489 10.815V8.84998C14.2489 8.5604 14.2489 8.41561 14.3492 8.32614C14.4495 8.23668 14.5823 8.25187 14.8479 8.28226C15.7081 8.38068 16.2681 8.69699 16.6793 9.13252L16.6793 9.13252C16.745 9.20215 16.7779 9.23697 16.7991 9.29034C16.8203 9.34371 16.8203 9.39821 16.8203 9.50719V11.9383C16.8203 12.1709 17.0122 12.3595 17.2489 12.3595C17.4856 12.3595 17.6775 12.1709 17.6775 11.9383V10.0361C17.6775 9.74406 17.6775 9.59802 17.7894 9.50795C17.9014 9.41789 18.0254 9.44508 18.2732 9.49946C19.4709 9.76221 20.2485 10.8088 20.2485 12V14.6927V14.6927C20.2485 15.7574 20.2485 16.5921 20.2056 17.2674C20.1619 17.9542 20.0718 18.5269 19.8679 19.0599C19.2859 20.5808 18.0875 21.7834 16.5699 22.3678C16.0379 22.5726 15.4662 22.6631 14.7811 22.7069C14.1077 22.75 13.2754 22.75 12.2142 22.75C11.1669 22.7501 10.4029 22.7502 9.79354 22.6158C8.86518 22.4111 8.00228 21.9782 7.28236 21.3563C6.80987 20.9482 6.42336 20.4311 5.79496 19.5904L2.52687 15.0806C2.47025 15.0022 2.4223 14.9197 2.383 14.8344C2.30554 14.6106 2.26157 14.3782 2.25098 14.1447C2.267 13.8434 2.37621 13.5462 2.57786 13.2976C3.13617 12.6096 4.17624 12.553 4.8079 13.1757L6.65967 15.0015C6.78214 15.1223 6.96658 15.1586 7.12689 15.0934C7.2872 15.0283 7.39176 14.8746 7.39176 14.7041V3.53571C7.39176 2.82563 7.9674 2.25 8.67748 2.25C9.38756 2.25 9.96319 2.82563 9.96319 3.53571V10.815C9.96319 11.0477 10.1551 11.2363 10.3918 11.2363Z" fill="#141B34"/>
<path d="M14.749 3.49414C14.1967 3.49414 13.749 3.94186 13.749 4.49414C13.749 5.04643 14.1967 5.49414 14.749 5.49414L17.249 5.49414L17.249 6.0884C17.2489 6.26404 17.2487 6.47969 17.2708 6.65613L17.2712 6.65947C17.287 6.78592 17.3588 7.36196 17.9244 7.63632C18.4912 7.91128 18.9914 7.60935 19.0996 7.54403L19.5681 7.20489C19.9439 6.91025 20.4584 6.50455 20.8494 6.12412C21.0445 5.93429 21.2457 5.71703 21.4046 5.48612C21.5458 5.28086 21.749 4.93067 21.749 4.5C21.749 4.06933 21.5458 3.71914 21.4046 3.51388C21.2457 3.28297 21.0445 3.06571 20.8494 2.87588C20.4584 2.49545 19.9439 2.08975 19.5681 1.79512L19.0996 1.45597C18.9914 1.39065 18.4912 1.08872 17.9244 1.36368C17.3588 1.63804 17.287 2.21408 17.2712 2.34053L17.2708 2.34387C17.2487 2.52031 17.2489 2.73597 17.249 2.9116L17.249 3.49414L14.749 3.49414Z" fill="#141B34"/>
</svg>
