<svg width="24" height="24" viewBox="0 0 24 24" fill="none" xmlns="http://www.w3.org/2000/svg">
<path opacity="0.4" d="M10.8099 11.3146C10.8099 11.5496 10.6155 11.74 10.3757 11.74C10.1359 11.74 9.94146 11.5496 9.94146 11.3146V5.17714C9.94146 4.45772 9.35825 3.87451 8.63883 3.87451C7.9194 3.87451 7.33619 4.45772 7.33619 5.17714V14.6223C7.33619 14.8573 7.14179 15.0477 6.90198 15.0477C6.66218 15.0477 6.46777 14.8573 6.46777 14.6223V11.4357C6.46777 11.3368 6.46777 11.2873 6.46199 11.2583C6.42068 11.051 6.18367 10.9503 6.00576 11.0644C5.98085 11.0804 5.94524 11.1147 5.87403 11.1834C5.37152 11.7364 4.90332 12.2516 4.60215 12.6551C4.27592 13.0922 4.03449 13.5242 3.93076 14.0329C3.87174 14.3224 3.85074 14.6181 3.86832 14.9129C3.89923 15.4313 4.07757 15.8925 4.33924 16.37C4.59016 16.828 4.9492 17.3549 5.3873 17.9978L7.24494 20.3227C7.39419 20.5089 7.47521 20.7396 7.47521 20.9771C7.47511 21.0845 7.475 21.2245 7.48696 21.3272C7.58086 22.1333 8.21663 22.7691 9.02273 22.863C9.12544 22.875 9.237 22.8749 9.34443 22.8748L16.8834 22.8748C17.7723 22.8748 18.4929 22.1541 18.4929 21.2652C18.4929 20.9483 18.6591 20.5954 18.9823 20.2443C19.4482 19.7382 19.8154 19.1411 20.0541 18.4811C20.3629 17.6273 20.3627 16.597 20.3623 14.9488L20.3623 12.6248C20.3623 11.3821 19.3549 10.3748 18.1123 10.3748C18.0446 10.3748 18.0107 10.3748 17.9664 10.3888C17.8832 10.4153 17.7978 10.5007 17.7713 10.5839C17.7572 10.6283 17.7572 10.6719 17.7572 10.7591V13.0911C17.7572 13.326 17.5628 13.5165 17.323 13.5165C17.0832 13.5165 16.8888 13.326 16.8888 13.0911V10.4498C16.8888 10.3443 16.8888 10.2915 16.8678 10.2384C16.8469 10.1853 16.8163 10.1526 16.7551 10.0873C16.3445 9.64877 15.7604 9.37476 15.1123 9.37476C14.9623 9.37476 14.8158 9.38943 14.674 9.41742C14.5047 9.45085 14.42 9.46757 14.3518 9.55059C14.2836 9.63361 14.2836 9.7357 14.2836 9.93988V12.524C14.2836 12.7589 14.0892 12.9493 13.8494 12.9493C13.6095 12.9493 13.4151 12.7589 13.4151 12.524V9.09961C13.4151 8.94264 13.4151 8.86416 13.3717 8.79247C13.3282 8.72078 13.2693 8.69004 13.1514 8.62857C12.8406 8.46643 12.4872 8.37476 12.1123 8.37476C11.8867 8.38107 11.4152 8.44441 11.0446 8.6367C10.9463 8.68772 10.8971 8.71323 10.8535 8.78502C10.8099 8.85682 10.8099 8.92824 10.8099 9.07108V11.3146Z" fill="#141B34"/>
<path fill-rule="evenodd" clip-rule="evenodd" d="M8.63867 3.125C6.98182 3.125 5.63867 4.46816 5.63867 6.125C5.63867 6.67728 5.19096 7.125 4.63867 7.125C4.08639 7.125 3.63867 6.67728 3.63867 6.125C3.63867 3.3636 5.87724 1.125 8.63867 1.125C11.4001 1.125 13.6387 3.3636 13.6387 6.125C13.6387 6.67728 13.191 7.125 12.6387 7.125C12.0864 7.125 11.6387 6.67728 11.6387 6.125C11.6387 4.46816 10.2955 3.125 8.63867 3.125Z" fill="#141B34"/>
</svg>
