<svg width="24" height="24" viewBox="0 0 24 24" fill="none" xmlns="http://www.w3.org/2000/svg">
<path opacity="0.4" fill-rule="evenodd" clip-rule="evenodd" d="M8.11815 14.6657C8.3034 15.0362 8.15323 15.4867 7.78274 15.672L4.29901 17.4138C3.65597 17.7353 3.24968 17.9406 2.98351 18.1264C2.86135 18.2116 2.72829 18.2805 2.78463 18.4355C2.85637 18.633 3.05336 18.9669 3.32486 19.314C3.39753 19.4069 3.53492 19.4127 3.618 19.329L4.58735 18.3522C4.87913 18.0582 5.354 18.0564 5.648 18.3482C5.94201 18.64 5.94382 19.1148 5.65205 19.4088L4.67443 20.3939C4.59198 20.477 4.59799 20.6131 4.68997 20.6855C5.02846 20.9519 5.35408 21.1445 5.55021 21.2153C5.7143 21.2746 5.78265 21.1474 5.87384 21.0167C6.05958 20.7505 6.26488 20.3443 6.5864 19.7012L8.32827 16.2175C8.51351 15.847 8.96402 15.6968 9.3345 15.8821C9.70498 16.0673 9.85515 16.5178 9.66991 16.8883L7.92804 20.372C7.62821 20.9717 7.3675 21.4974 7.10395 21.8751C6.83031 22.2672 6.46029 22.6386 5.89088 22.731C5.32811 22.8223 4.76725 22.5461 4.30611 22.2526C3.2982 21.6109 2.38029 20.6832 1.74275 19.6731C1.45552 19.218 1.17928 18.6639 1.26926 18.1093C1.36166 17.5399 1.73298 17.1699 2.12512 16.8963C2.5028 16.6327 3.02852 16.372 3.62819 16.0722L7.11192 14.3303C7.48241 14.1451 7.93291 14.2952 8.11815 14.6657Z" fill="#141B34"/>
<path fill-rule="evenodd" clip-rule="evenodd" d="M13.9977 1.25098C12.6366 1.25098 11.5333 2.35437 11.5333 3.71541C11.5333 3.85978 11.5457 4.00125 11.5695 4.13882C11.4891 4.0246 11.3977 3.91569 11.2956 3.81351C10.3332 2.85108 8.77283 2.85108 7.81044 3.81351C6.84807 4.77593 6.84807 6.3363 7.81044 7.29872C7.91286 7.40114 8.02205 7.49266 8.13657 7.57329C7.99876 7.54938 7.85703 7.53691 7.71239 7.53691C6.35134 7.53691 5.24805 8.64031 5.24805 10.0013C5.24805 11.3624 6.35134 12.4658 7.71239 12.4658C7.85679 12.4658 7.99829 12.4534 8.13588 12.4295C8.02161 12.51 7.91265 12.6014 7.81044 12.7036C6.84807 13.666 6.84807 15.2264 7.81044 16.1888C8.77283 17.1512 10.3332 17.1512 11.2956 16.1888C11.3977 16.0867 11.489 15.9778 11.5695 15.8636C11.5457 16.001 11.5333 16.1423 11.5333 16.2865C11.5333 17.6476 12.6366 18.751 13.9977 18.751C15.3587 18.751 16.462 17.6476 16.462 16.2865C16.462 16.1421 16.4496 16.0006 16.4257 15.8629C16.5063 15.9774 16.5978 16.0865 16.7001 16.1888C17.6625 17.1512 19.2228 17.1512 20.1852 16.1888C21.1476 15.2264 21.1476 13.666 20.1852 12.7036C20.0825 12.6009 19.973 12.5092 19.8582 12.4284C19.9964 12.4524 20.1386 12.465 20.2837 12.465C21.6448 12.465 22.748 11.3616 22.748 10.0006C22.748 8.63952 21.6448 7.53612 20.2837 7.53612C20.1394 7.53612 19.998 7.54853 19.8604 7.57234C19.9745 7.49194 20.0832 7.40074 20.1852 7.29872C21.1476 6.3363 21.1476 4.77593 20.1852 3.81351C19.2228 2.85108 17.6625 2.85108 16.7001 3.81351C16.5977 3.91589 16.5062 4.02504 16.4256 4.13951C16.4495 4.00173 16.462 3.86002 16.462 3.71541C16.462 2.35437 15.3587 1.25098 13.9977 1.25098ZM11.2965 7.29889C11.886 6.70935 12.1144 5.89544 11.9817 5.13204C12.4276 5.76586 13.1647 6.18001 13.9986 6.18001C14.8327 6.18001 15.5701 5.76556 16.0159 5.13135C15.883 5.89495 16.1113 6.70917 16.701 7.29889C17.2905 7.88841 18.1043 8.11683 18.8677 7.98416C18.2342 8.43015 17.8203 9.16711 17.8203 10.0007C17.8203 10.8353 18.2352 11.5731 18.8699 12.0189C18.1059 11.8854 17.2911 12.1137 16.701 12.7038C16.1114 13.2934 15.8831 14.1074 16.0158 14.8708C15.57 14.2367 14.8327 13.8223 13.9986 13.8223C13.1648 13.8223 12.4277 14.2364 11.9818 14.8701C12.1143 14.1069 11.8859 13.2932 11.2965 12.7038C10.7069 12.1142 9.89301 11.8858 9.1296 12.0186C9.76347 11.5726 10.1776 10.8354 10.1776 10.0015C10.1776 9.16731 9.76317 8.42989 9.12891 7.984C9.89252 8.11701 10.7068 7.88864 11.2965 7.29889Z" fill="#141B34"/>
</svg>
