<svg width="24" height="24" viewBox="0 0 24 24" fill="none" xmlns="http://www.w3.org/2000/svg">
<path d="M7.5 3C7.5 2.0335 8.2835 1.25 9.25 1.25H14.75C15.7165 1.25 16.5 2.0335 16.5 3C16.5 3.9665 15.7165 4.75 14.75 4.75H9.25C8.2835 4.75 7.5 3.9665 7.5 3Z" fill="#141B34"/>
<path opacity="0.4" d="M6.08629 2.85192C6.17409 2.83981 6.25 2.91152 6.25 3.00015C6.25 4.65701 7.59315 6.00015 9.25 6.00015H14.75C16.4069 6.00015 17.75 4.65701 17.75 3.00015C17.75 2.91152 17.8259 2.83981 17.9137 2.85192C18.8138 2.97607 19.5615 3.24138 20.1519 3.83234C20.7537 4.4347 21.0125 5.19305 21.1335 6.09379C21.25 6.96148 21.25 8.06476 21.25 9.43371V16.0494C21.25 17.4183 21.25 18.5216 21.1335 19.3893C21.0125 20.29 20.7537 21.0484 20.1519 21.6507C19.55 22.2532 18.7921 22.5124 17.8918 22.6335C17.0248 22.7502 15.9225 22.7502 14.5549 22.7502L9.44506 22.7502C8.07752 22.7502 6.97517 22.7502 6.10816 22.6335C5.20792 22.5124 4.44999 22.2532 3.84811 21.6507C3.24631 21.0484 2.9875 20.29 2.86651 19.3893C2.74997 18.5216 2.74998 17.4184 2.75 16.0495V9.43368C2.74998 8.06476 2.74997 6.96146 2.86651 6.09379C2.9875 5.19305 3.24631 4.4347 3.84811 3.83234C4.43852 3.24138 5.18618 2.97607 6.08629 2.85192Z" fill="#141B34"/>
<path fill-rule="evenodd" clip-rule="evenodd" d="M7.25195 11C7.25195 10.5858 7.58774 10.25 8.00195 10.25H16.002C16.4162 10.25 16.752 10.5858 16.752 11C16.752 11.4142 16.4162 11.75 16.002 11.75H8.00195C7.58774 11.75 7.25195 11.4142 7.25195 11ZM7.25195 16C7.25195 15.5858 7.58774 15.25 8.00195 15.25H12.002C12.4162 15.25 12.752 15.5858 12.752 16C12.752 16.4142 12.4162 16.75 12.002 16.75H8.00195C7.58774 16.75 7.25195 16.4142 7.25195 16Z" fill="#141B34"/>
</svg>
