<svg width="25" height="24" viewBox="0 0 25 24" fill="none" xmlns="http://www.w3.org/2000/svg">
<path d="M14.0776 1.23065C14.1666 1.33181 14.1474 1.48664 14.1092 1.79629L14.0519 2.26053C13.9504 2.86919 13.8837 3.25947 13.7985 3.54553C13.7186 3.81395 13.6472 3.89928 13.5906 3.94726C13.5339 3.99525 13.438 4.05165 13.1601 4.08634C12.8614 4.12364 12.4612 4.125 11.8351 4.125H9.91786C9.29172 4.125 8.89154 4.12364 8.59285 4.08634C8.31493 4.05165 8.21903 3.99525 8.16238 3.94726C8.10574 3.89928 8.03434 3.81395 7.95443 3.54552C7.86938 3.25984 7.80271 2.87018 7.70147 2.26286L7.6464 1.79259C7.61031 1.48443 7.59227 1.33036 7.68116 1.2299C7.77005 1.12944 7.92421 1.12859 8.23253 1.12689C8.57677 1.12499 8.93861 1.125 9.31818 1.125H12.435C12.8156 1.125 13.1786 1.12499 13.5236 1.1269C13.8337 1.12862 13.9887 1.12948 14.0776 1.23065Z" fill="#141B34"/>
<path opacity="0.4" d="M5.98639 1.28271C6.08574 1.35985 6.10187 1.4976 6.13413 1.77311L6.214 2.45523L6.21876 2.48376C6.31069 3.03567 6.4032 3.59099 6.51703 3.97334C6.64179 4.3924 6.83009 4.78412 7.19306 5.0916C7.55604 5.39909 7.97338 5.52043 8.40725 5.5746C8.80994 5.62487 9.30484 5.62485 9.87384 5.62481H11.8796C12.4486 5.62485 12.9435 5.62487 13.3462 5.5746C13.78 5.52043 14.1974 5.39909 14.5604 5.0916C14.9233 4.78412 15.1116 4.3924 15.2364 3.97334C15.3507 3.58947 15.4429 3.03566 15.5352 2.4817L15.5389 2.45993L15.6241 1.76998C15.6579 1.49614 15.6748 1.35921 15.774 1.28272C15.8732 1.20624 16.0046 1.22398 16.2673 1.25946L16.3225 1.2671C17.366 1.41478 18.2223 1.72859 18.8956 2.43733C19.5637 3.14065 19.8549 4.02598 19.9928 5.10563C20.127 6.15642 20.127 7.49836 20.127 9.18969L20.1265 13.2895C20.1265 13.4772 20.1264 13.5711 20.0817 13.6435C20.037 13.716 19.948 13.7606 19.7701 13.8497C18.9489 14.2613 18.2146 14.8172 17.6019 15.3545C16.7766 16.0782 16.0233 16.9015 15.4004 17.6483C15.3459 17.7136 15.3187 17.7462 15.2925 17.7663C15.2155 17.8256 15.1339 17.8431 15.0395 17.8204C15.0073 17.8127 14.9648 17.7919 14.8797 17.7503C14.6576 17.6416 14.4429 17.561 14.2401 17.5029L14.2391 17.5026L14.2353 17.5015C14.2011 17.4916 13.788 17.3748 13.3789 17.3748C11.9982 17.3748 10.8789 18.494 10.8789 19.8748C10.8789 20.9964 11.6167 21.9444 12.6342 22.2616C12.6695 22.2727 12.6878 22.2756 12.7105 22.3048C12.8071 22.4289 12.722 22.6248 12.5647 22.6248H9.31864C7.71824 22.6248 6.43706 22.6248 5.43141 22.4825C4.38789 22.3348 3.53164 22.021 2.85833 21.3123C2.19018 20.609 1.89904 19.7236 1.76114 18.644C1.62693 17.5932 1.62694 16.2513 1.62695 14.5599V9.18966C1.62694 7.49834 1.62693 6.15641 1.76114 5.10563C1.89904 4.02598 2.19018 3.14065 2.85833 2.43733C3.53164 1.72859 4.38789 1.41478 5.43141 1.2671L5.49078 1.2589C5.75495 1.22335 5.88704 1.20557 5.98639 1.28271Z" fill="#141B34"/>
<path fill-rule="evenodd" clip-rule="evenodd" d="M6.12891 10.875C6.12891 10.4608 6.46469 10.125 6.87891 10.125H14.8789C15.2931 10.125 15.6289 10.4608 15.6289 10.875C15.6289 11.2892 15.2931 11.625 14.8789 11.625H6.87891C6.46469 11.625 6.12891 11.2892 6.12891 10.875ZM6.12891 15.875C6.12891 15.4608 6.46469 15.125 6.87891 15.125H10.8789C11.2931 15.125 11.6289 15.4608 11.6289 15.875C11.6289 16.2892 11.2931 16.625 10.8789 16.625H6.87891C6.46469 16.625 6.12891 16.2892 6.12891 15.875Z" fill="#141B34"/>
<path d="M22.3201 15.5414C22.5044 16.062 22.2319 16.6335 21.7113 16.8179C21.1776 17.0069 20.5612 17.4138 19.9081 17.9865C19.2654 18.5501 18.6403 19.2271 18.0865 19.8909C17.5347 20.5524 17.0659 21.1861 16.7349 21.6551C16.5697 21.8891 16.3095 22.2794 16.2215 22.4115C16.0282 22.7156 15.6862 22.8924 15.3263 22.874C14.9664 22.8555 14.6442 22.6448 14.483 22.3225C14.0423 21.4411 13.647 21.0902 13.4477 20.9573C13.3634 20.9011 13.3065 20.8786 13.2838 20.8709C12.7754 20.8237 12.3774 20.396 12.3774 19.8753C12.3774 19.323 12.8252 18.8753 13.3774 18.8753C13.6118 18.8753 13.7208 18.9155 13.824 18.945C14.0319 19.0044 14.2827 19.1103 14.5571 19.2932C14.8314 19.4761 15.1191 19.7288 15.4078 20.0747C15.723 19.6439 16.1114 19.1363 16.5507 18.6097C17.144 17.8985 17.8424 17.1379 18.5894 16.4828C19.3261 15.8368 20.1655 15.2436 21.0436 14.9326C21.5642 14.7483 22.1357 15.0208 22.3201 15.5414Z" fill="#141B34"/>
</svg>
