<svg width="24" height="24" viewBox="0 0 24 24" fill="none" xmlns="http://www.w3.org/2000/svg">
<path opacity="0.4" fill-rule="evenodd" clip-rule="evenodd" d="M19.7816 20.479C19.0102 20.5896 18.0449 20.6165 16.8991 20.6229L7.10214 20.6229C5.95574 20.6165 4.99006 20.5897 4.21831 20.479C3.18014 20.33 2.20784 19.993 1.64438 19.0679C1.07346 18.1306 1.24367 17.1207 1.61884 16.1569C1.98342 15.2202 2.64449 14.0708 3.44972 12.6708L7.19693 6.15508C8.0457 4.67916 8.73885 3.47384 9.39501 2.64734C10.0694 1.79783 10.8778 1.125 12 1.125C13.1221 1.125 13.9305 1.79783 14.6049 2.64734C15.2611 3.47383 15.9542 4.67917 16.803 6.15507L20.5503 12.6709C21.3554 14.0708 22.0165 15.2203 22.3811 16.1569C22.7563 17.1207 22.9265 18.1306 22.3555 19.0679C21.7921 19.993 20.8198 20.33 19.7816 20.479ZM8.94443 7.02759L4.99451 13.8955C6.72209 14.7931 7.91625 16.592 7.99828 18.6749H16.0024C16.0844 16.5924 17.2779 14.7937 19.005 13.8959L15.0554 7.02818C14.1829 7.62488 13.132 7.97465 12.0003 7.97465C10.8683 7.97465 9.81705 7.62464 8.94443 7.02759Z" fill="#141B34"/>
<path fill-rule="evenodd" clip-rule="evenodd" d="M12.0002 18.875C12.5525 18.875 13.0002 19.3227 13.0002 19.875V21.875C13.0002 22.4273 12.5525 22.875 12.0002 22.875C11.448 22.875 11.0002 22.4273 11.0002 21.875V19.875C11.0002 19.3227 11.448 18.875 12.0002 18.875Z" fill="#141B34"/>
<path fill-rule="evenodd" clip-rule="evenodd" d="M20.8948 8.42801C21.1418 8.92198 20.9415 9.52266 20.4476 9.76965L18.4476 10.7696C17.9536 11.0166 17.3529 10.8164 17.1059 10.3224C16.8589 9.82845 17.0591 9.22778 17.5531 8.98079L19.5531 7.98079C20.0471 7.7338 20.6478 7.93403 20.8948 8.42801Z" fill="#141B34"/>
<path fill-rule="evenodd" clip-rule="evenodd" d="M3.10591 8.42801C3.3529 7.93403 3.95358 7.7338 4.44755 7.98079L6.44755 8.98079C6.94153 9.22778 7.14176 9.82845 6.89477 10.3224C6.64778 10.8164 6.04711 11.0166 5.55313 10.7696L3.55313 9.76965C3.05915 9.52266 2.85892 8.92198 3.10591 8.42801Z" fill="#141B34"/>
<path fill-rule="evenodd" clip-rule="evenodd" d="M10.9446 3.85786C10.3891 4.55585 9.76602 5.63148 8.86277 7.19843L5.1915 13.5673C4.33144 15.0594 3.74613 16.0802 3.44103 16.8622C3.14015 17.6334 3.22169 17.8996 3.31447 18.0516C3.41475 18.2158 3.64082 18.4234 4.5027 18.5468C5.36792 18.6706 6.58545 18.673 8.35351 18.673H15.6961C17.4641 18.673 18.6816 18.6706 19.5469 18.5468C20.4087 18.4234 20.6348 18.2158 20.7351 18.0516C20.8279 17.8996 20.9094 17.6334 20.6085 16.8622C20.3034 16.0802 19.7181 15.0594 18.8581 13.5673L15.1868 7.19843C14.2835 5.63148 13.6604 4.55585 13.105 3.85786C12.5571 3.16927 12.2494 3.07305 12.0248 3.07305C11.8002 3.07305 11.4925 3.16927 10.9446 3.85786ZM9.4138 2.64538C10.0898 1.79588 10.9001 1.12305 12.0248 1.12305C13.1495 1.12305 13.9598 1.79587 14.6358 2.64538C15.2934 3.47188 15.9882 4.67722 16.8389 6.15314L20.5948 12.6688C21.4019 14.0689 22.0645 15.2183 22.4299 16.1549C22.806 17.1188 22.9766 18.1286 22.4043 19.066C21.8396 19.991 20.865 20.3281 19.8244 20.477C18.8037 20.6231 17.4444 20.6231 15.7771 20.623H8.27246C6.60514 20.6231 5.24588 20.6231 4.22512 20.477C3.18454 20.3281 2.21 19.991 1.64524 19.066C1.07299 18.1286 1.2436 17.1188 1.61964 16.1549C1.98506 15.2183 2.64766 14.0689 3.45475 12.6688L7.16847 6.22628C7.18257 6.20182 7.19663 6.17744 7.21064 6.15313C8.06136 4.67721 8.75612 3.47188 9.4138 2.64538Z" fill="#141B34"/>
</svg>
