<svg width="24" height="24" viewBox="0 0 24 24" fill="none" xmlns="http://www.w3.org/2000/svg">
<path opacity="0.4" fill-rule="evenodd" clip-rule="evenodd" d="M12.339 3.2492C12.4251 3.2492 12.5119 3.24871 12.5992 3.24821C13.4093 3.24362 14.2625 3.23879 14.9919 3.62171C15.3601 3.815 15.6783 4.12756 15.9289 4.41006C16.416 4.95935 16.8266 5.5746 17.2338 6.18489L17.3278 6.32567C17.4709 6.53965 17.7182 6.90915 17.8972 7.17646L17.8996 7.18015C18.1092 7.49318 18.1101 7.49459 18.4892 7.59643C18.8642 7.69718 19.4283 7.85964 19.742 8.00279C20.1475 8.18779 20.5028 8.41455 20.7868 8.76991C21.0709 9.12527 21.2138 9.52173 21.305 9.95801C21.3906 10.3679 21.4409 10.8709 21.5002 11.464L21.6754 13.2162C21.6863 13.3248 21.7564 13.4172 21.8521 13.4696C22.2789 13.7035 22.5212 14.0644 22.6391 14.4493C22.7506 14.8133 22.7503 15.2055 22.75 15.4656C22.7498 15.829 22.7465 16.1984 22.6391 16.5491C22.5053 16.9858 22.2115 17.3916 21.6697 17.616C21.4712 17.6982 21.2759 17.7258 21.0982 17.738C20.9329 17.7492 20.736 17.7492 20.5218 17.7492H19.1661C19.3787 17.3816 19.5004 16.9548 19.5004 16.4996C19.5004 15.1189 18.3811 13.9996 17.0004 13.9996C15.6197 13.9996 14.5004 15.1189 14.5004 16.4996C14.5004 16.9548 14.622 17.3816 14.8346 17.7492H9.16614C9.37872 17.3816 9.50038 16.9548 9.50038 16.4996C9.50038 15.1189 8.38109 13.9996 7.00038 13.9996C5.61966 13.9996 4.50038 15.1189 4.50038 16.4996C4.50038 16.9548 4.62203 17.3816 4.83461 17.7492H3.47824C3.26397 17.7492 3.06712 17.7492 2.9018 17.738C2.72415 17.7258 2.52881 17.6982 2.33031 17.616C1.7885 17.3916 1.49468 16.9858 1.36091 16.5491C1.25672 16.2089 1.2498 15.8518 1.25 15.4992C1.2498 15.1466 1.25672 14.7895 1.36091 14.4493C1.46601 14.1062 1.66991 13.7822 2.01525 13.5502C2.07455 13.5104 2.11324 13.4451 2.11324 13.3737V9.4992C2.11324 9.23399 2.2186 8.97963 2.40614 8.7921C2.59367 8.60456 2.84803 8.4992 3.11324 8.4992H8.04997C8.16042 8.4992 8.24997 8.40966 8.24997 8.2992L8.24997 5.95446C8.24992 5.52165 8.24987 5.12481 8.29327 4.802C8.34106 4.44652 8.45351 4.0708 8.76253 3.76177C9.07156 3.45275 9.44728 3.3403 9.80276 3.29251C10.4055 3.21147 11.0296 3.22528 11.6461 3.23893C11.8786 3.24408 12.1101 3.2492 12.339 3.2492ZM8.24997 10.4992H4.31324C4.20279 10.4992 4.11324 10.5887 4.11324 10.6992V13.2492H8.24997L8.24997 10.4992ZM13.5712 5.27726C14.3055 5.34468 14.7835 6.07423 15.1992 6.70882C15.3069 6.87323 15.4104 7.03128 15.5132 7.16977C15.6395 7.34008 15.7692 7.51494 15.8921 7.68477C15.9898 7.81969 16.0386 7.88715 16.0107 7.9417C15.9828 7.99625 15.899 7.99611 15.7314 7.99583C14.7576 7.9942 13.4596 7.99333 12.5155 7.99714C12.3258 7.9979 12.231 7.99829 12.1721 7.93966C12.1132 7.88103 12.1132 7.78622 12.1132 7.59661V5.64921C12.1132 5.46037 12.1132 5.36595 12.1714 5.30745C12.2295 5.24895 12.3241 5.24834 12.5132 5.24711C12.8664 5.24481 13.2202 5.24503 13.5712 5.27726Z" fill="#141B34"/>
<path fill-rule="evenodd" clip-rule="evenodd" d="M13.5712 5.27709C14.4958 5.36197 15.014 6.49655 15.5132 7.1696C15.6396 7.33991 15.7693 7.51477 15.8922 7.6846C15.9898 7.81952 16.0387 7.88698 16.0107 7.94153C15.9828 7.99608 15.899 7.99594 15.7314 7.99566C14.7576 7.99403 13.4596 7.99316 12.5156 7.99697C12.3259 7.99773 12.231 7.99812 12.1721 7.93949C12.1133 7.88086 12.1133 7.78605 12.1133 7.59644V5.64904C12.1133 5.4602 12.1133 5.36578 12.1714 5.30728C12.2295 5.24878 12.3241 5.24817 12.5133 5.24694C12.8664 5.24464 13.2203 5.24486 13.5712 5.27709Z" fill="#141B34"/>
<path d="M8.56797 3.99902H8C7.44772 3.99902 7 4.44674 7 4.99902C7 5.55131 7.44772 5.99902 8 5.99902H8.24899V5.95397C8.24894 5.52116 8.24889 5.12433 8.29229 4.80151C8.32838 4.53308 8.40134 4.25311 8.56797 3.99902Z" fill="#141B34"/>
<path fill-rule="evenodd" clip-rule="evenodd" d="M12.1133 10.5C12.1133 10.0858 12.4491 9.75 12.8633 9.75H13.8633C14.2775 9.75 14.6133 10.0858 14.6133 10.5C14.6133 10.9142 14.2775 11.25 13.8633 11.25H12.8633C12.4491 11.25 12.1133 10.9142 12.1133 10.5Z" fill="#141B34"/>
<path fill-rule="evenodd" clip-rule="evenodd" d="M7 14C5.61929 14 4.5 15.1193 4.5 16.5C4.5 17.8807 5.61929 19 7 19C8.38071 19 9.5 17.8807 9.5 16.5C9.5 15.1193 8.38071 14 7 14ZM2.5 16.5C2.5 14.0147 4.51472 12 7 12C9.48528 12 11.5 14.0147 11.5 16.5C11.5 18.9853 9.48528 21 7 21C4.51472 21 2.5 18.9853 2.5 16.5Z" fill="#141B34"/>
<path fill-rule="evenodd" clip-rule="evenodd" d="M17 14C15.6193 14 14.5 15.1193 14.5 16.5C14.5 17.8807 15.6193 19 17 19C18.3807 19 19.5 17.8807 19.5 16.5C19.5 15.1193 18.3807 14 17 14ZM12.5 16.5C12.5 14.0147 14.5147 12 17 12C19.4853 12 21.5 14.0147 21.5 16.5C21.5 18.9853 19.4853 21 17 21C14.5147 21 12.5 18.9853 12.5 16.5Z" fill="#141B34"/>
</svg>
