<svg width="24" height="24" viewBox="0 0 24 24" fill="none" xmlns="http://www.w3.org/2000/svg">
<path fill-rule="evenodd" clip-rule="evenodd" d="M17.7052 7.25131C19.0023 7.52987 20.1299 7.90759 20.98 8.37124C21.8937 8.8696 22.75 9.61816 22.75 10.6599C22.75 11.444 22.2561 12.0614 21.668 12.5085C21.0681 12.9644 20.2475 13.3429 19.3006 13.6473C17.3984 14.2589 14.8174 14.625 12 14.625C9.18262 14.625 6.60156 14.2589 4.69938 13.6473C3.75252 13.3429 2.93185 12.9644 2.33199 12.5085C1.74387 12.0614 1.25 11.444 1.25 10.6599C1.25 9.61816 2.10629 8.8696 3.02 8.37124C3.87007 7.90759 4.99772 7.52987 6.29482 7.25131C6.32734 7.05586 6.37261 6.86862 6.41355 6.69933L6.42752 6.64147C7.01996 4.17932 9.21298 2.125 12 2.125C14.787 2.125 16.98 4.17932 17.5725 6.64147L17.5865 6.69934L17.5865 6.69936C17.6274 6.86864 17.6727 7.05587 17.7052 7.25131ZM8.29249 7.0773C8.71018 5.34138 10.2257 4.01389 12 4.01389C13.7743 4.01389 15.2898 5.34138 15.7075 7.0773C15.8081 7.49543 15.8366 7.6441 15.8332 7.7552L15.8331 7.7571C15.8319 7.79663 15.8299 7.86189 15.7043 8.0343C15.6853 8.06042 15.6045 8.14517 15.3833 8.25034C15.1697 8.35183 14.879 8.44677 14.5153 8.52526C13.7878 8.68224 12.8717 8.75156 11.9346 8.73324C10.9988 8.71494 10.0882 8.61017 9.37594 8.44235C9.01886 8.35822 8.73647 8.264 8.53454 8.17037C8.34875 8.08422 8.29086 8.02764 8.29086 8.02764C8.17006 7.8602 8.1681 7.79612 8.1669 7.7571L8.16685 7.7552C8.16335 7.6441 8.19188 7.49543 8.29249 7.0773Z" fill="#141B34"/>
<path opacity="0.4" fill-rule="evenodd" clip-rule="evenodd" d="M7.27498 12.9128C7.80601 13.0645 8.11351 13.618 7.96178 14.149L5.96178 21.149C5.81006 21.68 5.25657 21.9875 4.72554 21.8358C4.1945 21.6841 3.88701 21.1306 4.03873 20.5996L6.03873 13.5996C6.19046 13.0685 6.74394 12.761 7.27498 12.9128ZM16.7255 12.9128C17.2566 12.761 17.8101 13.0685 17.9618 13.5996L19.9618 20.5996C20.1135 21.1306 19.806 21.6841 19.275 21.8358C18.7439 21.9875 18.1905 21.68 18.0387 21.149L16.0387 14.149C15.887 13.618 16.1945 13.0645 16.7255 12.9128Z" fill="#141B34"/>
<path fill-rule="evenodd" clip-rule="evenodd" d="M10.5 18.875C10.5 18.0466 11.1686 17.375 11.9933 17.375H12.0067C12.8314 17.375 13.5 18.0466 13.5 18.875C13.5 19.7034 12.8314 20.375 12.0067 20.375H11.9933C11.1686 20.375 10.5 19.7034 10.5 18.875Z" fill="#141B34"/>
</svg>
