<svg width="24" height="24" viewBox="0 0 24 24" fill="none" xmlns="http://www.w3.org/2000/svg">
<path opacity="0.4" d="M5.05978 4.65957C5.20311 4.2637 5.57903 4 6.00005 4H18.0001C18.4211 4 18.797 4.2637 18.9403 4.65957C19.0836 5.05545 18.9637 5.49869 18.6402 5.76822L13.2804 10.2347L13.2543 10.2565C13.1252 10.3643 12.967 10.4963 12.8142 10.5946C12.6276 10.7146 12.3546 10.8491 12.0001 10.8491C11.6455 10.8491 11.3725 10.7146 11.1859 10.5946C11.0331 10.4963 10.8749 10.3643 10.7458 10.2565L10.7197 10.2347L5.35987 5.76822C5.03643 5.49869 4.91645 5.05545 5.05978 4.65957Z" fill="#141B34"/>
<path d="M18.9402 19.3404C18.7969 19.7363 18.421 20 17.9999 20H5.99995C5.57893 20 5.203 19.7363 5.05968 19.3404C4.91635 18.9446 5.03633 18.5013 5.35976 18.2318L10.7196 13.7653L10.7457 13.7435C10.8748 13.6357 11.033 13.5037 11.1858 13.4054C11.3724 13.2854 11.6454 13.1509 11.9999 13.1509C12.3545 13.1509 12.6275 13.2854 12.8141 13.4054C12.9669 13.5037 13.1251 13.6357 13.2542 13.7435L13.2803 13.7653L18.6401 18.2318C18.9636 18.5013 19.0835 18.9446 18.9402 19.3404Z" fill="#141B34"/>
</svg>
