<svg width="24" height="24" viewBox="0 0 24 24" fill="none" xmlns="http://www.w3.org/2000/svg">
<path opacity="0.4" fill-rule="evenodd" clip-rule="evenodd" d="M12.0489 1.25H11.9517H11.9516C11.291 1.24998 10.7211 1.24996 10.256 1.29727C9.76273 1.34745 9.27746 1.45898 8.83354 1.7556C8.50597 1.97447 8.22471 2.25573 8.00584 2.5833C7.70922 3.02722 7.59769 3.51249 7.54751 4.00573C7.54208 4.0591 7.53728 4.11385 7.53302 4.16996C7.51325 4.43067 7.50337 4.56103 7.44237 4.63458C7.38138 4.70813 7.23182 4.74819 6.9327 4.82832C5.91239 5.10165 5.17073 6.05738 5.25679 7.1711L5.4406 9.54975C5.58286 11.3907 6.20558 13.1637 7.24763 14.6986L7.84841 15.5835C8.44224 16.4582 9.37329 17.0364 10.4051 17.2015C10.706 17.2496 10.8565 17.2737 10.9283 17.3578C11 17.4419 11 17.5771 11 17.8474V21.75C11 22.3023 11.4477 22.75 12 22.75C12.5523 22.75 13 22.3023 13 21.75V17.8475C13 17.5771 13 17.4419 13.0717 17.3578C13.1435 17.2737 13.294 17.2496 13.595 17.2015C14.6268 17.0365 15.5579 16.4582 16.1518 15.5835L16.7526 14.6986C17.7946 13.1637 18.4173 11.3907 18.5596 9.54975L18.7434 7.1711C18.8295 6.05745 18.0879 5.10178 17.0677 4.82838C16.7686 4.74823 16.6191 4.70815 16.5581 4.63461C16.4971 4.56106 16.4872 4.43072 16.4675 4.17004C16.4632 4.1139 16.4584 4.05912 16.453 4.00573C16.4028 3.51249 16.2913 3.02722 15.9947 2.5833C15.7758 2.25573 15.4945 1.97447 15.167 1.7556C14.723 1.45898 14.2378 1.34745 13.7445 1.29727C13.2794 1.24996 12.7096 1.24998 12.0489 1.25H12.0489ZM10.746 3.26612C11.0597 3.25068 11.458 3.25 12.0003 3.25C12.7233 3.25 13.1903 3.25121 13.5422 3.287C13.8773 3.32109 13.9953 3.37809 14.0559 3.41853C14.1651 3.49149 14.2588 3.58524 14.3318 3.69443C14.3722 3.75496 14.4292 3.87303 14.4633 4.20813V4.20814C14.4843 4.41506 14.4949 4.51852 14.4439 4.60384C14.4246 4.63609 14.3956 4.66823 14.3655 4.69066C14.3421 4.70805 14.316 4.72034 14.2851 4.72904C14.2172 4.74815 14.1263 4.74984 13.991 4.74999C13.9779 4.75 13.9644 4.75 13.9504 4.75H10.0501C9.82657 4.75 9.7148 4.75 9.63507 4.69066C9.60494 4.66824 9.5759 4.63609 9.55664 4.60385C9.50567 4.51852 9.51619 4.41506 9.53724 4.20814C9.57133 3.87303 9.62833 3.75496 9.66878 3.69444C9.74174 3.58525 9.83549 3.4915 9.94468 3.41854C9.98774 3.38976 10.0599 3.35261 10.2187 3.32129C10.2831 3.30858 10.3617 3.29684 10.4584 3.287C10.4584 3.287 10.4584 3.287 10.4584 3.287C10.4584 3.287 10.4584 3.287 10.4584 3.287C10.5464 3.27805 10.6415 3.27127 10.746 3.26612ZM10.0002 8C10.0002 7.44772 10.448 7 11.0002 7H13.0002C13.5525 7 14.0002 7.44772 14.0002 8C14.0002 8.55229 13.5525 9 13.0002 9H11.0002C10.448 9 10.0002 8.55229 10.0002 8Z" fill="#141B34"/>
<path fill-rule="evenodd" clip-rule="evenodd" d="M11 7C10.4477 7 10 7.44772 10 8C10 8.55228 10.4477 9 11 9H13C13.5523 9 14 8.55228 14 8C14 7.44772 13.5523 7 13 7H11Z" fill="#141B34"/>
</svg>
