<svg width="24" height="24" viewBox="0 0 24 24" fill="none" xmlns="http://www.w3.org/2000/svg">
<path d="M17.9943 9.38139C17.9835 8.47537 17.9525 7.69224 17.8629 7.02582C17.8583 6.99171 17.8536 6.95775 17.8486 6.92395C18.3069 6.56368 18.7213 6.26008 19.0953 6.03414C19.7957 5.61106 20.6832 5.25678 21.5939 5.70824C22.4905 6.15267 22.7682 7.06358 22.8839 7.88087C23.0001 8.7025 23 9.80815 23 11.1363V12.8625C23 14.1906 23.0001 15.2963 22.8839 16.1179C22.7682 16.9352 22.4905 17.8461 21.5939 18.2905C20.6832 18.742 19.7957 18.3877 19.0953 17.9646C18.7214 17.7387 18.3069 17.4351 17.8487 17.0748C17.8536 17.0411 17.8583 17.0072 17.8629 16.9732C17.9525 16.3067 17.9836 15.5235 17.9943 14.6174C18.952 15.4065 19.6134 15.9409 20.1295 16.2528C20.4009 16.4167 20.5646 16.4759 20.6541 16.4936C20.6738 16.4975 20.6872 16.4988 20.6952 16.4992L20.7004 16.4994L20.7037 16.4993L20.7056 16.4986C20.71 16.4964 20.7117 16.4946 20.7117 16.4946C20.7146 16.4917 20.7296 16.4755 20.7509 16.4338C20.7987 16.3403 20.8577 16.1622 20.9036 15.8378C20.9975 15.1735 21 14.2116 21 12.7813V11.2175C21 9.7872 20.9975 8.8253 20.9036 8.16099C20.8577 7.83659 20.7987 7.65849 20.7509 7.56495C20.7296 7.52327 20.715 7.50754 20.7121 7.50458C20.7121 7.50458 20.71 7.50232 20.7056 7.50016L20.7041 7.49943C20.7041 7.49943 20.6992 7.49935 20.6952 7.49955C20.6872 7.49996 20.6738 7.50126 20.6541 7.50517C20.5646 7.52287 20.4009 7.58207 20.1295 7.746C19.6134 8.05782 18.952 8.59222 17.9943 9.38139Z" fill="#141B34"/>
<path opacity="0.4" d="M10.072 3H8.92797C7.33933 2.99997 6.04615 2.99995 5.0263 3.13706C3.96232 3.28011 3.04735 3.58869 2.31802 4.31802C1.58869 5.04735 1.28011 5.96232 1.13706 7.0263C0.999946 8.04615 0.999971 9.3393 1 10.9279V13.072C0.999971 14.6607 0.999946 15.9539 1.13706 16.9737C1.28011 18.0377 1.58869 18.9527 2.31802 19.682C3.04735 20.4113 3.96232 20.7199 5.0263 20.8629C6.04616 21.0001 7.33933 21 8.928 21H10.072C11.6607 21 12.9538 21.0001 13.9737 20.8629C15.0377 20.7199 15.9527 20.4113 16.682 19.682C17.4113 18.9527 17.7199 18.0377 17.8629 16.9737C18.0001 15.9538 18 14.6607 18 13.072V10.928C18 9.33933 18.0001 8.04616 17.8629 7.0263C17.7199 5.96232 17.4113 5.04735 16.682 4.31802C15.9527 3.58869 15.0377 3.28011 13.9737 3.13706C12.9539 2.99995 11.6607 2.99997 10.072 3Z" fill="#141B34"/>
<circle cx="11.5" cy="9.5" r="1.5" fill="#141B34"/>
</svg>
