<svg width="24" height="24" viewBox="0 0 24 24" fill="none" xmlns="http://www.w3.org/2000/svg">
<path opacity="0.4" d="M17.0494 8H6.94972C6.05755 7.99998 5.31466 7.99996 4.71047 8.0602C3.31895 8.19893 2.17374 8.93221 1.51606 10.1853C1.22604 10.7378 1.10848 11.3381 1.0532 12.009C0.983846 12.8507 0.99958 13.6992 0.99958 14.543C0.999569 15.5346 0.999561 16.34 1.0532 16.991C1.10848 17.6619 1.22604 18.2622 1.51606 18.8147C1.85651 19.4634 2.3525 20.014 2.96347 20.402C3.49582 20.7401 4.0773 20.8767 4.71047 20.9398C5.87632 21.056 7.20428 21.1292 8.37009 20.94C9.35832 20.7796 10.269 20.3056 10.9935 19.5929C11.2284 19.3619 11.4366 19.1052 11.6368 18.8421C11.8385 18.5772 11.9393 18.4447 12.0811 18.4395C12.2229 18.4343 12.3317 18.5575 12.5494 18.8038C12.8179 19.1077 13.0901 19.4095 13.3845 19.6845C14.1778 20.4256 15.1761 20.8859 16.2422 20.9815C17.2388 21.0708 18.2968 21.0387 19.2887 20.9398C19.9219 20.8767 20.5033 20.7401 21.0357 20.402C21.6467 20.014 22.1426 19.4634 22.4831 18.8147C22.7731 18.2622 22.8907 17.6619 22.946 16.991C22.9996 16.34 22.9996 15.5346 22.9996 14.543C22.9996 13.6992 23.0153 12.8507 22.946 12.009C22.8907 11.3381 22.7731 10.7378 22.4831 10.1853C21.8254 8.93221 20.6802 8.19893 19.2887 8.0602C18.6845 7.99996 17.9416 7.99998 17.0494 8Z" fill="#141B34"/>
<path fill-rule="evenodd" clip-rule="evenodd" d="M15.2889 3.00001C13.0957 3.00157 10.9024 3.00157 8.70916 3.00001C7.0174 2.99882 5.42799 3.07649 4.14321 4.28235C3.40533 4.9749 2.91605 5.97249 2.18013 7.47294C2.12362 7.58818 2.06607 7.70329 2.00844 7.81856C1.72928 8.37694 1.44818 8.9392 1.27292 9.53815C1.19545 9.80289 1.13419 10.0734 1.08943 10.3476C0.998885 10.9022 0.998941 11.4682 0.999029 12.3662C0.999032 12.3946 0.999034 12.4233 0.999034 12.4524V13.3625C1.00288 12.9105 1.01565 12.4587 1.05271 12.0089C1.10799 11.338 1.22555 10.7377 1.51557 10.1852C2.06867 9.13138 2.96658 8.4452 4.06583 8.1711C4.79625 6.69024 5.10741 6.12031 5.51192 5.74064C6.3352 4.96793 7.41795 4.98223 8.48713 4.99634C8.63005 4.99823 8.77273 5.00011 8.91451 5.00011H15.0836C15.2253 5.00011 15.368 4.99823 15.5109 4.99634C16.5801 4.98223 17.6629 4.96793 18.4861 5.74064C18.8907 6.12031 19.2018 6.69023 19.9322 8.17107C21.0315 8.44514 21.9295 9.13134 22.4826 10.1852C22.7726 10.7377 22.8902 11.338 22.9455 12.0089C22.9822 12.4545 22.9951 12.9021 22.999 13.3498L22.999 12.3663C22.9991 11.4683 22.9992 10.9022 22.9086 10.3476C22.8639 10.0734 22.8026 9.8029 22.7252 9.53815C22.5497 8.93865 22.2694 8.37803 21.9904 7.82008C21.9325 7.70436 21.8747 7.58877 21.8179 7.47296C21.082 5.97249 20.5927 4.9749 19.8549 4.28235C18.5701 3.07649 16.9807 2.99882 15.2889 3.00001ZM22.999 14.8433C22.999 14.9027 22.9989 14.9614 22.9989 15.0193C22.999 15.0129 22.999 15.0065 22.999 15.0001V14.8433ZM0.999337 15.025C0.999088 14.8694 0.999089 14.7087 0.999091 14.5429C0.999091 14.5124 0.999071 14.482 0.999034 14.4515V15.0001C0.999034 15.0084 0.999136 15.0167 0.999337 15.025Z" fill="#141B34"/>
<path fill-rule="evenodd" clip-rule="evenodd" d="M15 13C15 12.4477 15.4477 12 16 12H18C18.5523 12 19 12.4477 19 13C19 13.5523 18.5523 14 18 14H16C15.4477 14 15 13.5523 15 13Z" fill="#141B34"/>
</svg>
