<svg width="24" height="24" viewBox="0 0 24 24" fill="none" xmlns="http://www.w3.org/2000/svg">
<path opacity="0.4" d="M12 1.25C6.06294 1.25 1.25 6.06294 1.25 12C1.25 14.7547 2.28612 17.2674 3.9899 19.1696C4.29313 19.5081 4.44474 19.6774 4.58617 19.6715C4.63961 19.6693 4.66625 19.6622 4.71357 19.6372C4.83882 19.5713 4.90627 19.2456 5.04117 18.5943C5.70797 15.3752 8.59169 13 11.9996 13C15.4075 13 18.292 15.3752 18.9588 18.5943C19.0937 19.2456 19.1612 19.5713 19.2864 19.6372C19.3337 19.6622 19.3604 19.6693 19.4138 19.6715C19.5553 19.6774 19.7069 19.5081 20.0101 19.1696C21.7139 17.2674 22.75 14.7547 22.75 12C22.75 6.06294 17.9371 1.25 12 1.25Z" fill="#141B34"/>
<path d="M6.87409 7.58405C7.10385 7.23941 7.56951 7.14628 7.91415 7.37604C7.98812 7.42535 8.07015 7.4749 8.17313 7.5371L8.17316 7.53712C8.21236 7.56079 8.2546 7.5863 8.30058 7.61433C8.45464 7.70823 8.63588 7.82188 8.81036 7.9525C9.13156 8.19296 9.58124 8.59926 9.6877 9.2131C9.69882 9.27725 9.70636 9.34196 9.71027 9.40695C9.73789 9.86565 9.55104 10.2369 9.33404 10.5418C9.13388 10.823 8.84355 11.134 8.52224 11.4782L8.52223 11.4782L8.49086 11.5118C8.20824 11.8146 7.73365 11.831 7.43083 11.5484C7.12802 11.2657 7.11165 10.7912 7.39428 10.4883C7.7571 10.0996 7.97676 9.86195 8.11195 9.67201C8.18796 9.5652 8.20515 9.48754 8.20976 9.46942C8.20671 9.45182 8.16911 9.34621 7.91141 9.15329C7.79644 9.06722 7.66531 8.9838 7.51987 8.89514C7.4078 8.82749 7.18652 8.69373 7.0821 8.62412C6.73745 8.39435 6.64432 7.9287 6.87409 7.58405Z" fill="#141B34"/>
<path d="M17.1222 7.58405C17.3519 7.9287 17.2588 8.39435 16.9142 8.62412C16.8097 8.69373 16.5885 8.82749 16.4764 8.89514C16.3309 8.9838 16.1998 9.06722 16.0848 9.15329C15.8271 9.34621 15.7895 9.45182 15.7865 9.46942C15.7865 9.46942 15.8083 9.5652 15.8843 9.67201C16.0195 9.86195 16.2391 10.0996 16.602 10.4883C16.8846 10.7912 16.8682 11.2657 16.5654 11.5484C16.2626 11.831 15.788 11.8146 15.5054 11.5118L15.474 11.4782C15.1527 11.134 14.8624 10.823 14.6622 10.5418C14.4452 10.2369 14.2584 9.86565 14.286 9.40695C14.2899 9.34197 14.2974 9.27725 14.3086 9.2131C14.415 8.59926 14.8647 8.19296 15.1859 7.9525C15.3604 7.82188 15.5416 7.70823 15.6957 7.61433C15.7417 7.5863 15.7839 7.56078 15.8231 7.53711L15.8231 7.5371C15.9261 7.4749 16.0081 7.42535 16.0821 7.37604C16.4267 7.14628 16.8924 7.23941 17.1222 7.58405Z" fill="#141B34"/>
<path fill-rule="evenodd" clip-rule="evenodd" d="M9.21656 16.7321C9.21935 16.9134 9.22477 17.1044 9.23038 17.3019C9.25143 18.043 9.27506 18.8751 9.17137 19.6232C9.01839 20.7269 8.57892 21.83 7.42191 22.6195C7.07977 22.853 6.61314 22.7649 6.37967 22.4227C6.14619 22.0806 6.23429 21.614 6.57643 21.3805C7.27693 20.9025 7.57019 20.2497 7.68557 19.4173C7.69327 19.3618 7.70012 19.3062 7.70622 19.2504C7.58332 19.5988 7.21884 19.8114 6.84705 19.7344C6.44145 19.6504 6.18075 19.2535 6.26476 18.8479C6.81025 16.2143 9.17844 14.25 11.9992 14.25C14.8199 14.25 17.1881 16.2143 17.7336 18.8479C17.8176 19.2535 17.5569 19.6504 17.1513 19.7344C16.7806 19.8112 16.4171 19.6 16.2932 19.2535C16.2992 19.3074 16.3059 19.3613 16.3133 19.415C16.4292 20.2496 16.723 20.9038 17.4218 21.3804C17.764 21.6138 17.8522 22.0805 17.6188 22.4226C17.3853 22.7648 16.9187 22.853 16.5765 22.6196C15.42 21.8307 14.9809 20.7252 14.8276 19.6213C14.7234 18.8709 14.7468 18.037 14.7677 17.296C14.7732 17.1003 14.7785 16.9111 14.7813 16.7317C14.0285 16.1197 13.0599 15.75 11.9992 15.75C10.9382 15.75 9.96937 16.1199 9.21656 16.7321ZM11.9992 18.25C12.4134 18.25 12.7492 18.5858 12.7492 19V21C12.7492 21.4142 12.4134 21.75 11.9992 21.75C11.585 21.75 11.2492 21.4142 11.2492 21V19C11.2492 18.5858 11.585 18.25 11.9992 18.25Z" fill="#141B34"/>
</svg>
