<svg width="24" height="24" viewBox="0 0 24 24" fill="none" xmlns="http://www.w3.org/2000/svg">
<path opacity="0.4" d="M1.25 12C1.25 6.06294 6.06294 1.25 12 1.25C17.9371 1.25 22.75 6.06294 22.75 12C22.75 17.9371 17.9371 22.75 12 22.75C6.06294 22.75 1.25 17.9371 1.25 12Z" fill="#141B34"/>
<path fill-rule="evenodd" clip-rule="evenodd" d="M9.93127 5.6365C10.1322 6.15094 9.878 6.73085 9.36355 6.93176C8.25215 7.36579 7.3653 8.25264 6.93127 9.36404C6.73036 9.87849 6.15045 10.1327 5.63601 9.93176C5.12156 9.73085 4.86739 9.15094 5.06829 8.63649C5.70558 7.00463 7.00414 5.70607 8.63601 5.06878C9.15045 4.86787 9.73036 5.12205 9.93127 5.6365Z" fill="#141B34"/>
<path d="M9.25 12C9.25 13.5188 10.4812 14.75 12 14.75C13.5188 14.75 14.75 13.5188 14.75 12C14.75 10.4812 13.5188 9.25 12 9.25C10.4812 9.25 9.25 10.4812 9.25 12Z" fill="#141B34"/>
</svg>
