<svg width="24" height="24" viewBox="0 0 24 24" fill="none" xmlns="http://www.w3.org/2000/svg">
<path opacity="0.4" d="M10.6061 8.58265L12.488 3.49986L13.0498 2.08076C13.2941 1.46375 13.9893 1.15811 14.6091 1.39524C15.2327 1.63383 15.5457 2.332 15.3089 2.9563L14.616 4.78332L12.5292 10.4198C12.4483 10.6383 12.5623 10.88 12.7837 10.9598C13.0052 11.0396 13.2503 10.9272 13.3312 10.7087L15.4507 5.07432C15.6837 4.45483 16.3726 4.13908 16.994 4.36695C17.6205 4.59669 17.9412 5.29166 17.7094 5.91741L15.2545 12.5459C15.1736 12.7644 15.2876 13.0062 15.5091 13.086C15.7306 13.1658 15.9757 13.0533 16.0566 12.8349L17.7499 8.26122L17.8533 7.99703C18.1104 7.33981 18.844 7.00669 19.5081 7.24556C20.1906 7.49107 20.5414 8.2466 20.2884 8.9264L19.9902 9.72781L17.943 15.3332C17.5914 16.296 17.3151 17.0524 17.0526 17.6503C16.7854 18.2588 16.5129 18.7504 16.149 19.1685C15.7091 19.6738 14.9221 20.1423 14.4108 20.4223C14.0988 20.5931 13.8717 20.849 13.7661 21.1381L13.3812 22.1921C13.2393 22.5806 12.8097 22.7809 12.421 22.6399L3.79375 19.5105C3.60649 19.4426 3.45395 19.303 3.36977 19.1224C3.28558 18.9419 3.27667 18.7353 3.34501 18.5482C3.67038 17.6573 3.75082 16.4828 3.47967 15.6539L1.68333 9.77746C1.6528 9.67683 1.63422 9.5749 1.62695 9.47332C1.642 9.19761 1.70503 8.92792 1.8114 8.67615C1.92868 8.47316 2.09799 8.29704 2.31126 8.16892C3.04051 7.73085 3.99108 8.01459 4.34979 8.77391L5.41334 11.0253C5.48625 11.1796 5.64619 11.2755 5.81865 11.2682C5.9911 11.2609 6.14212 11.1518 6.20134 10.9919L9.42824 2.42804C9.66403 1.80226 10.3636 1.48738 10.9884 1.72579C11.609 1.96262 11.9217 2.65639 11.6881 3.27826L9.80407 8.29371C9.72318 8.51218 9.83715 8.75397 10.0586 8.83376C10.2801 8.91355 10.5252 8.80112 10.6061 8.58265Z" fill="#141B34"/>
<path fill-rule="evenodd" clip-rule="evenodd" d="M20.8872 11.9864C21.411 11.8114 21.9775 12.0942 22.1525 12.618C22.8591 14.7331 21.8154 17.1009 19.719 17.8732C19.2007 18.0641 18.6259 17.7987 18.435 17.2805C18.2441 16.7623 18.5094 16.1874 19.0277 15.9965C20.046 15.6213 20.6417 14.4075 20.2556 13.2517C20.0806 12.7279 20.3634 12.1614 20.8872 11.9864Z" fill="#141B34"/>
</svg>
