<svg width="24" height="24" viewBox="0 0 24 24" fill="none" xmlns="http://www.w3.org/2000/svg">
<path d="M8.25 5C8.25 2.92893 9.92893 1.25 12 1.25C14.0711 1.25 15.75 2.92893 15.75 5C15.75 7.07107 14.0711 8.75 12 8.75C9.92893 8.75 8.25 7.07107 8.25 5Z" fill="#141B34"/>
<path d="M1.25 19C1.25 16.9289 2.92893 15.25 5 15.25C7.07107 15.25 8.75 16.9289 8.75 19C8.75 21.0711 7.07107 22.75 5 22.75C2.92893 22.75 1.25 21.0711 1.25 19Z" fill="#141B34"/>
<path d="M15.25 19C15.25 16.9289 16.9289 15.25 19 15.25C21.0711 15.25 22.75 16.9289 22.75 19C22.75 21.0711 21.0711 22.75 19 22.75C16.9289 22.75 15.25 21.0711 15.25 19Z" fill="#141B34"/>
<path opacity="0.4" d="M11 8.61524C11.3184 8.7031 11.6537 8.75004 12 8.75004C12.3463 8.75004 12.6816 8.7031 13 8.61523L13 9.03978C13.0001 9.4987 13.0012 9.79134 13.0191 10.015C13.0364 10.2325 13.0648 10.3031 13.078 10.3303C13.1867 10.5553 13.4202 10.7795 13.775 10.9054C13.8621 10.9364 13.9987 10.9662 14.2817 10.9827C14.5711 10.9996 14.9447 11 15.5 11L15.529 11C16.0479 11 16.4803 11 16.8351 11.0208C17.2029 11.0423 17.5525 11.0886 17.8942 11.2099C18.6828 11.4899 19.3579 12.0444 19.7228 12.7996C19.8872 13.1399 19.9476 13.486 19.9746 13.8264C20 14.1454 20 14.5289 20 14.964V15.3849C19.6816 15.297 19.3463 15.25 19 15.25C18.6537 15.25 18.3184 15.297 18 15.3849V15C18 14.5182 17.9993 14.2151 17.981 13.9851C17.9636 13.7676 17.9352 13.697 17.922 13.6698C17.8133 13.4448 17.5798 13.2206 17.225 13.0947C17.1379 13.0637 17.0013 13.0339 16.7183 13.0174C16.4289 13.0004 16.0553 13 15.5 13H15.471C14.9521 13.0001 14.5197 13.0001 14.1649 12.9793C13.7971 12.9578 13.4475 12.9115 13.1058 12.7902C12.6977 12.6453 12.32 12.4269 12 12.1452C11.68 12.4269 11.3023 12.6453 10.8942 12.7902C10.5525 12.9115 10.2029 12.9578 9.83508 12.9793C9.4803 13.0001 9.04796 13.0001 8.52902 13H8.5C7.94467 13 7.57111 13.0004 7.28169 13.0174C6.99874 13.0339 6.86207 13.0637 6.77499 13.0947C6.42018 13.2206 6.18672 13.4448 6.078 13.6698C6.06483 13.697 6.03636 13.7676 6.01905 13.9851C6.00074 14.2151 6 14.5182 6 15V15.3849C5.68164 15.297 5.3463 15.25 5 15.25C4.6537 15.25 4.31836 15.297 4 15.3849L4 14.964C3.99998 14.5289 3.99997 14.1454 4.02536 13.8264C4.05245 13.486 4.11279 13.1399 4.27724 12.7996C4.64215 12.0444 5.31717 11.4899 6.10583 11.2099C6.44755 11.0886 6.79708 11.0423 7.16492 11.0208C7.51971 11 7.95204 11 8.47097 11L8.5 11C9.05534 11 9.4289 10.9996 9.71832 10.9827C10.0013 10.9662 10.1379 10.9364 10.225 10.9054C10.5798 10.7795 10.8133 10.5553 10.922 10.3303C10.9352 10.3031 10.9636 10.2325 10.981 10.015C10.999 9.78849 11 9.49124 11 9.02218L11 8.61524Z" fill="#141B34"/>
</svg>
