<svg width="24" height="24" viewBox="0 0 24 24" fill="none" xmlns="http://www.w3.org/2000/svg">
<path d="M18.5 6.8201C18.4999 8.40394 16.9715 9.86336 14.6755 12.1483C13.1984 13.6183 10.8014 13.6165 9.32349 12.1473C7.02907 9.86393 5.49987 8.40368 5.5 6.81984C5.50013 5.236 5.88383 4.91827 9.40918 1.4099C9.74841 1.0694 10.3319 1.30879 10.3319 1.78823L10.3321 5.40117C10.3321 6.31823 11.0778 7.0629 11.9993 7.06282C12.9208 7.06275 13.6679 6.31933 13.6681 5.40227L13.6689 1.78929C13.669 1.30984 14.2526 1.07035 14.5917 1.41079C18.1165 4.91858 18.5001 5.23626 18.5 6.8201Z" fill="#141B34"/>
<path opacity="0.4" d="M15.75 14.6393C15.75 14.0535 15.75 13.7607 15.6019 13.6737C15.4539 13.5867 15.1695 13.7453 14.6008 14.0625C12.9928 14.9592 11.006 14.9579 9.3986 14.0615C8.8303 13.7445 8.54614 13.5861 8.39807 13.673C8.25 13.76 8.25 14.0527 8.25 14.6382V19.1653C8.25 21.1846 9.96951 22.7501 12 22.7501C14.0305 22.7501 15.75 21.1846 15.75 19.1653L15.75 14.6393Z" fill="#141B34"/>
<path fill-rule="evenodd" clip-rule="evenodd" d="M11.115 19.885C10.6283 19.3984 10.6283 18.6095 11.115 18.1229L11.1229 18.115C11.6095 17.6283 12.3984 17.6283 12.885 18.115C13.3717 18.6016 13.3717 19.3905 12.885 19.8771L12.8771 19.885C12.3905 20.3717 11.6016 20.3717 11.115 19.885Z" fill="#141B34"/>
</svg>
