<svg width="24" height="24" viewBox="0 0 24 24" fill="none" xmlns="http://www.w3.org/2000/svg">
<path d="M16.641 7.74552C13.8975 3.89572 7.69133 2.31359 5 2L4 12C5 13.7264 8.16439 14.5959 12 13.7264C11.4138 14.0677 10.4128 14.6835 9.31529 15.9511C8.75631 16.5968 8.51776 17.4954 8.47884 18.4026C8.42682 19.615 8.24695 20.9338 7.625 22H15.0969L19.4439 13.82C19.7639 13.218 19.9238 12.9169 19.9759 12.5901C20.112 11.7364 19.6838 10.8944 19.4519 10.0961C19.2341 9.36245 18.6342 8.87638 17.9095 8.69637C17.3301 8.54976 16.9767 8.21643 16.641 7.74552Z" fill="#D4D7E0"/>
<path d="M5.00195 2C7.69328 2.31359 13.8995 3.89572 16.6429 7.74552C16.9786 8.21643 17.3321 8.54976 17.9115 8.69637C18.6362 8.87638 19.2361 9.36245 19.4538 10.0961C19.6857 10.8944 20.1139 11.7364 19.9779 12.5901C19.9258 12.9169 19.7658 13.218 19.4459 13.82L15.0989 22" stroke="#141B34" stroke-width="1.5" stroke-linecap="round" stroke-linejoin="round"/>
<path d="M4.00195 12C5.00195 13.7264 8.16635 14.5959 12.002 13.7264C11.4157 14.0677 10.4147 14.6835 9.31724 15.9511C8.75826 16.5968 8.51972 17.4954 8.48079 18.4026C8.42877 19.615 8.24891 20.9338 7.62695 22" stroke="#141B34" stroke-width="1.5" stroke-linecap="round" stroke-linejoin="round"/>
<path d="M5.00195 7C5.00195 7 6.96093 7.28919 8.50195 8.5C9.50195 9.28571 11.4186 9.80952 12.002 10" stroke="#141B34" stroke-width="1.5" stroke-linecap="round" stroke-linejoin="round"/>
</svg>
