<svg width="24" height="24" viewBox="0 0 24 24" fill="none" xmlns="http://www.w3.org/2000/svg">
<path d="M2 16V11.5C2 9.15442 2 7.98164 2.61994 7.17372C2.77954 6.96572 2.96572 6.77954 3.17372 6.61994C3.98164 6 4.65442 6 7 6H7.4L7.88583 4.78543C8.26801 3.82996 8.60061 2.7461 9.58335 2.25955C10.1076 2 10.7384 2 12 2C13.2616 2 13.8924 2 14.4166 2.25955C15.3994 2.7461 15.732 3.82996 16.1142 4.78543L16.6 6H17C19.3456 6 20.0184 6 20.8263 6.61994C21.0343 6.77954 21.2205 6.96572 21.3801 7.17372C22 7.98164 22 9.15442 22 11.5V16C22 18.8284 22 20.2426 21.1213 21.1213C20.2426 22 18.8284 22 16 22H8C5.17157 22 3.75736 22 2.87868 21.1213C2 20.2426 2 18.8284 2 16Z" fill="white"/>
<path d="M2 15.9978V11.4978C2 9.15221 2 7.97942 2.61994 7.1715C2.77954 6.96351 2.96572 6.77733 3.17372 6.61773C3.85817 6.09253 4.44563 6.01227 6.03536 6L21.1213 21.1191C20.2426 21.9978 18.8284 21.9978 16 21.9978H8C5.17157 21.9978 3.75736 21.9978 2.87868 21.1191C2 20.2404 2 18.8262 2 15.9978Z" fill="#D4D7E0"/>
<path d="M8.75 14.2478C8.75 16.1808 10.317 17.7478 12.25 17.7478C13.6865 17.7478 14.9209 16.8824 15.4602 15.6445L10.9048 11.0156C9.63946 11.5429 8.75 12.7914 8.75 14.2478Z" fill="white"/>
<path d="M21 21.1212C20.1269 22 18.7217 22 15.9112 22H7.96193C5.15145 22 3.74621 22 2.8731 21.1212C2 20.2424 2 18.8279 2 15.9991V11.4984C2 9.15242 2 7.97945 2.61601 7.1714C2.7746 6.96337 2.95959 6.77716 3.16627 6.61754C3.84131 6.09617 4.42141 6.0132 5.97462 6" stroke="#141B34" stroke-width="1.5" stroke-linecap="round"/>
<path d="M21.9934 17.5C21.9999 17.0495 21.9999 16.5516 21.9999 16V11.5C21.9999 9.15442 21.9999 7.98164 21.38 7.17372C21.2204 6.96572 21.0342 6.77954 20.8262 6.61994C20.0183 6 19.3455 6 16.9999 6H16.5999M16.9999 7L16.5999 6M8 4.5C8.35233 3.62326 8.6912 2.70121 9.58327 2.25955C10.1075 2 10.7383 2 11.9999 2C13.2615 2 13.8923 2 14.4166 2.25955C15.3993 2.7461 15.7319 3.82996 16.1141 4.78543L16.5999 6" stroke="#141B34" stroke-width="1.5" stroke-linecap="round" stroke-linejoin="round"/>
<path d="M11.0604 11C9.84821 11.5202 9 12.7176 9 14.1116C9 15.9829 10.5286 17.5 12.4143 17.5C13.7763 17.5 14.952 16.7085 15.5 15.5638" stroke="#141B34" stroke-width="1.5"/>
<path d="M11.9998 6H12.0088" stroke="#141B34" stroke-width="2" stroke-linecap="round" stroke-linejoin="round"/>
<path d="M2 2L22 22" stroke="#141B34" stroke-width="1.5" stroke-linecap="round"/>
</svg>
