<svg width="24" height="24" viewBox="0 0 24 24" fill="none" xmlns="http://www.w3.org/2000/svg">
<path d="M12.0005 11C10.4788 11 8.86983 11.2925 7.60854 11.6838C7.38675 11.7526 7.17509 11.8786 6.98242 12.0452L7.00052 12L7.64032 5.60199C7.81151 3.89012 7.8971 3.03419 8.46848 2.51709C9.03987 2 9.90007 2 11.6205 2H12.3806C14.101 2 14.9612 2 15.5326 2.51709C16.1039 3.03419 16.1895 3.89012 16.3607 5.60199L17.0005 12V12.0298C16.8127 11.8708 16.6074 11.7504 16.3925 11.6838C15.1312 11.2925 13.5223 11 12.0005 11Z" fill="#D4D7E0"/>
<path d="M12 11C10.4783 11 8.86931 11.2925 7.60803 11.6838C6.6583 11.9784 5.89434 13.322 6.01199 14.4128C6.05558 14.8169 6.36877 15 6.69807 15H17.3019C17.6312 15 17.9444 14.8169 17.988 14.4128C18.1057 13.322 17.3417 11.9784 16.392 11.6838C15.1307 11.2925 13.5217 11 12 11Z" fill="white"/>
<path d="M8 15L6 22M16 15L18 22" stroke="#141B34" stroke-width="1.5" stroke-linecap="round" stroke-linejoin="round"/>
<path d="M12 11C10.4783 11 8.86931 11.2925 7.60803 11.6838C6.6583 11.9784 5.89434 13.322 6.01199 14.4128C6.05558 14.8169 6.36877 15 6.69807 15H17.3019C17.6312 15 17.9444 14.8169 17.988 14.4128C18.1057 13.322 17.3417 11.9784 16.392 11.6838C15.1307 11.2925 13.5217 11 12 11Z" stroke="#141B34" stroke-width="1.5" stroke-linecap="round"/>
<path d="M16.3925 11.6838C16.6074 11.7504 16.8127 11.8708 17.0005 12.0298V12L16.3607 5.60199C16.1895 3.89012 16.1039 3.03419 15.5326 2.51709C14.9612 2 14.101 2 12.3806 2H11.6205C9.90007 2 9.03987 2 8.46848 2.51709C7.8971 3.03419 7.81151 3.89012 7.64032 5.60199L7.00052 12L6.98242 12.0452" stroke="#141B34" stroke-width="1.5" stroke-linecap="round" stroke-linejoin="round"/>
</svg>
