<svg width="24" height="24" viewBox="0 0 24 24" fill="none" xmlns="http://www.w3.org/2000/svg">
<circle cx="12" cy="12" r="4" fill="white"/>
<path d="M22 12C22 13.3132 21.7413 14.6136 21.2388 15.8268C20.7362 17.0401 19.9997 18.1425 19.0711 19.0711C18.1425 19.9997 17.0401 20.7362 15.8268 21.2388C14.6136 21.7413 13.3132 22 12 22V15.2448C12.4261 15.2448 12.8481 15.1609 13.2417 14.9978C13.6354 14.8347 13.9931 14.5957 14.2944 14.2944C14.5957 13.9931 14.8347 13.6354 14.9978 13.2417C15.1609 12.8481 15.2448 12.4261 15.2448 12H22Z" fill="white"/>
<path d="M12 22C10.3555 22 8.73636 21.5944 7.28604 20.8192C5.83571 20.044 4.59895 18.9231 3.68531 17.5557C2.77167 16.1883 2.20935 14.6168 2.04815 12.9802C1.88696 11.3436 2.13188 9.69251 2.7612 8.17318C3.39052 6.65385 4.38483 5.31317 5.65605 4.26991C6.92728 3.22664 8.43617 2.51298 10.0491 2.19215C11.662 1.87132 13.3291 1.95322 14.9028 2.43059C16.4765 2.90796 17.9082 3.76607 19.0711 4.92891L14.2944 9.70558C13.9171 9.32827 13.4525 9.04983 12.9419 8.89493C12.4313 8.74003 11.8903 8.71346 11.367 8.81756C10.8436 8.92167 10.354 9.15323 9.94153 9.49175C9.52904 9.83027 9.20641 10.2653 9.00221 10.7583C8.798 11.2513 8.71854 11.787 8.77084 12.318C8.82314 12.8491 9.0056 13.359 9.30206 13.8027C9.59852 14.2464 9.99982 14.6101 10.4704 14.8616C10.941 15.1132 11.4664 15.2448 12 15.2448V22Z" fill="#D4D7E0"/>
<path d="M12 22C10.0222 22 8.08879 21.4135 6.4443 20.3147C4.79981 19.2159 3.51808 17.6541 2.7612 15.8268C2.00433 13.9996 1.80629 11.9889 2.19215 10.0491C2.578 8.10929 3.53041 6.32746 4.92893 4.92893C6.32746 3.53041 8.10929 2.578 10.0491 2.19215C11.9889 1.80629 13.9996 2.00433 15.8268 2.76121C17.6541 3.51808 19.2159 4.79981 20.3147 6.4443C21.4135 8.08879 22 10.0222 22 12L15.2448 12C15.2448 11.3582 15.0545 10.7309 14.6979 10.1973C14.3414 9.66369 13.8346 9.2478 13.2417 9.00221C12.6488 8.75662 11.9964 8.69236 11.367 8.81756C10.7375 8.94276 10.1594 9.2518 9.70559 9.70559C9.2518 10.1594 8.94276 10.7375 8.81756 11.367C8.69236 11.9964 8.75662 12.6488 9.00221 13.2417C9.2478 13.8346 9.66369 14.3414 10.1973 14.6979C10.7309 15.0545 11.3582 15.2448 12 15.2448V22Z" fill="#D4D7E0"/>
<path d="M9 9L5 5M16 12H22M12 16V22" stroke="#141B34" stroke-width="1.5" stroke-linecap="round"/>
<circle cx="12" cy="12" r="4" stroke="#141B34" stroke-width="1.5"/>
<circle cx="12" cy="12" r="10" stroke="#141B34" stroke-width="1.5"/>
</svg>
