<svg width="24" height="24" viewBox="0 0 24 24" fill="none" xmlns="http://www.w3.org/2000/svg">
<path d="M2.67222 9.16085L3.24806 4.98046C3.33654 4.33812 3.8282 3.83854 4.44338 3.76589C5.24735 3.67094 5.94938 4.32937 5.94811 5.17718L5.94521 7.11077L10.4678 2.36989C10.9383 1.8767 11.7011 1.8767 12.1716 2.36989C12.6421 2.86309 12.6421 3.66271 12.1716 4.1559L13.3075 2.96523C13.778 2.47204 14.5408 2.47204 15.0113 2.96523C15.4818 3.45842 15.4818 4.25804 15.0113 4.75123L13.8754 5.9419L11.3197 8.62091L4.99713 15.0874C4.79495 14.8786 4.57361 14.6466 4.32771 14.3888C3.68241 13.7124 3.35976 13.3742 3.12569 12.99C2.7686 12.4039 2.55631 11.7335 2.50792 11.0391C2.4762 10.5839 2.54154 10.1096 2.67222 9.16085Z" fill="white"/>
<path d="M7.67222 14.1608L8.24806 9.98046C8.33654 9.33812 8.8282 8.83854 9.44338 8.76589C10.2474 8.67094 10.9494 9.32937 10.9481 10.1772L10.9452 12.1108L15.4678 7.36989C15.9383 6.8767 16.7011 6.8767 17.1716 7.36989C17.6421 7.86309 17.6421 8.66271 17.1716 9.1559L18.3075 7.96523C18.778 7.47204 19.5408 7.47204 20.0113 7.96523C20.4818 8.45842 20.4818 9.25804 20.0113 9.75123L18.8754 10.9419C19.3459 10.4487 20.1087 10.4487 20.5792 10.9419C21.0497 11.4351 21.0497 12.2347 20.5792 12.7279L19.4433 13.9186C19.9138 13.4254 20.6766 13.4254 21.1471 13.9186C21.6176 14.4118 21.6176 15.2114 21.1471 15.7046L20.2946 16.5969L17.6443 19.3752C16.41 20.669 15.7928 21.316 15.1135 21.6339C14.0746 22.1201 12.8892 22.1221 11.8518 21.6393C11.1734 21.3236 10.5581 20.6787 9.32771 19.3888C8.68241 18.7124 8.35976 18.3742 8.12569 17.99C7.7686 17.4039 7.55631 16.7335 7.50792 16.0391C7.4762 15.5839 7.54154 15.1096 7.67222 14.1608Z" fill="#D4D7E0"/>
<path d="M20.2946 16.5969L17.6443 19.3752C16.41 20.669 15.7928 21.316 15.1135 21.6339C14.0746 22.1201 12.8892 22.1221 11.8518 21.6393C11.1734 21.3236 10.5581 20.6787 9.32771 19.3889C8.68241 18.7124 8.35976 18.3742 8.12569 17.99C7.7686 17.4039 7.55631 16.7335 7.50792 16.0391C7.4762 15.5839 7.54154 15.1096 7.67222 14.1608L8.24806 9.98046C8.33654 9.33812 8.8282 8.83854 9.44338 8.76589C10.2474 8.67094 10.9494 9.32937 10.9481 10.1772L10.9452 12.1108L15.4678 7.36989C15.9383 6.8767 16.7011 6.8767 17.1716 7.36989C17.6421 7.86309 17.6421 8.66271 17.1716 9.1559M17.1716 9.1559L18.3075 7.96523C18.778 7.47204 19.5408 7.47204 20.0113 7.96523C20.4818 8.45842 20.4818 9.25804 20.0113 9.75123L18.8754 10.9419M17.1716 9.1559L14.6159 11.8349M18.8754 10.9419C19.3459 10.4487 20.1087 10.4487 20.5792 10.9419C21.0497 11.4351 21.0497 12.2347 20.5792 12.7279L19.4433 13.9186M18.8754 10.9419L16.3197 13.6209M19.7273 17.1929L21.1471 15.7046C21.6176 15.2114 21.6176 14.4118 21.1471 13.9186C20.6766 13.4254 19.9138 13.4254 19.4433 13.9186M19.4433 13.9186L18.0235 15.4069" stroke="#141B34" stroke-width="1.5" stroke-linecap="round" stroke-linejoin="round"/>
<path d="M12.2738 4.19379C12.7492 3.69193 12.7492 2.87825 12.2738 2.37639C11.7983 1.87454 11.0274 1.87454 10.552 2.37639L5.9816 7.20059L5.98452 5.23302C5.9858 4.37031 5.27637 3.7003 4.4639 3.79692C3.84223 3.87085 3.34538 4.37921 3.25596 5.03284L2.67404 9.2867C2.54198 10.2521 2.47595 10.7348 2.508 11.198C2.5569 11.9046 2.77143 12.5868 3.1323 13.1832C3.36884 13.5741 3.69489 13.9183 4.34701 14.6066C4.47803 14.7449 4.60216 14.8759 4.72018 15M12.2738 4.19379L13.4216 2.98219C13.8971 2.48033 14.668 2.48033 15.1434 2.98219C15.6189 3.48405 15.6189 4.29773 15.1434 4.79959M12.2738 4.19379L10.5114 6.054" stroke="#141B34" stroke-width="1.5" stroke-linecap="round" stroke-linejoin="round"/>
</svg>
