<svg width="24" height="24" viewBox="0 0 24 24" fill="none" xmlns="http://www.w3.org/2000/svg">
<path d="M5.22576 11.3294L12.224 2.34651C12.7713 1.64397 13.7972 2.08124 13.7972 3.01707V9.96994C13.7972 10.5305 14.1995 10.985 14.6958 10.985H18.0996C18.8729 10.985 19.2851 12.0149 18.7742 12.6706L11.776 21.6535C11.2287 22.356 10.2028 21.9188 10.2028 20.9829V14.0301C10.2028 13.4695 9.80048 13.015 9.3042 13.015H5.90035C5.12711 13.015 4.71494 11.9851 5.22576 11.3294Z" fill="white"/>
<path d="M9.3042 13.0173H5.90035C5.12711 13.0173 4.71494 11.9874 5.22576 11.3317L7.91872 7.875L16.1355 16.0598L11.776 21.6557C11.2287 22.3583 10.2028 21.921 10.2028 20.9852V14.0323C10.2028 13.4717 9.80048 13.0173 9.3042 13.0173Z" fill="#D4D7E0"/>
<path d="M16 16L11.6667 21.6535C11.1282 22.356 10.1188 21.9188 10.1188 20.9829V14.0301C10.1188 13.4695 9.72302 13.015 9.23474 13.015H5.88582C5.12506 13.015 4.71954 11.9851 5.22212 11.3294L7.7741 8" stroke="#141B34" stroke-width="1.5" stroke-linecap="round" stroke-linejoin="round"/>
<path d="M10 5.72714L12.4969 2.35038C13.0221 1.63999 14.0067 2.08215 14.0067 3.02843V10.059C14.0067 10.6258 14.3928 11.0854 14.8691 11.0854H18.1359C18.878 11.0854 19.2736 12.1268 18.7833 12.7898L17.8885 14" stroke="#141B34" stroke-width="1.5" stroke-linecap="round" stroke-linejoin="round"/>
<path d="M2 2L22 22" stroke="#141B34" stroke-width="1.5" stroke-linecap="round"/>
</svg>
