<svg width="24" height="24" viewBox="0 0 24 24" fill="none" xmlns="http://www.w3.org/2000/svg">
<path d="M2 10.1633V7.58942C2 5.12449 2.51119 4.61005 4.96053 4.61005H18.1677C18.7887 4.61005 19.257 4.46352 19.7632 4.1239C20.3544 3.72724 21.0829 3.00608 21.6191 4.00889C22.1576 5.0161 22.187 9.24315 21.3033 10.1325C20.8698 10.5688 20.172 10.5688 18.7764 10.5688H10.3882L8.79732 17.2511C8.75319 17.4365 8.73112 17.5292 8.71527 17.6205C8.61639 18.1898 8.68403 18.7755 8.91005 19.3073C8.9463 19.3926 8.9889 19.4778 9.07412 19.6482C9.1303 19.7606 9.15839 19.8168 9.17103 19.8601C9.25397 20.1449 9.07232 20.4388 8.78058 20.4919C8.73614 20.5 8.67371 20.5 8.54885 20.5C7.40755 20.5 5.5236 20.5 4.52785 20.5C3.36423 20.5 2.78242 20.5 2.48609 20.1181C2.18976 19.7361 2.33087 19.1681 2.61309 18.032L3.96647 12.5841C4.22077 11.5604 3.45143 10.5688 2.40292 10.5688C2.18039 10.5688 2 10.3872 2 10.1633Z" fill="#D4D7E0"/>
<path d="M10.3882 10.5688L8.79732 17.2511C8.75319 17.4365 8.73112 17.5292 8.71527 17.6205C8.61639 18.1898 8.68403 18.7755 8.91005 19.3073C8.9463 19.3926 8.9889 19.4778 9.07412 19.6482C9.1303 19.7606 9.15839 19.8168 9.17103 19.8601C9.25397 20.1449 9.07232 20.4388 8.78058 20.4919C8.73614 20.5 8.67371 20.5 8.54885 20.5C7.40755 20.5 5.5236 20.5 4.52785 20.5C3.36423 20.5 2.78242 20.5 2.48609 20.1181C2.18976 19.7361 2.33087 19.1681 2.61309 18.032L3.96647 12.5841C4.22077 11.5604 3.45143 10.5688 2.40292 10.5688C2.18039 10.5688 2 10.3872 2 10.1633V7.58942C2 5.12449 2.51119 4.61005 4.96053 4.61005H18.1677C18.7887 4.61005 19.257 4.46352 19.7632 4.1239C20.3544 3.72724 21.0829 3.00608 21.6191 4.00889C22.1576 5.0161 22.187 9.24315 21.3033 10.1325C20.8698 10.5688 20.172 10.5688 18.7764 10.5688H10.3882ZM10.3882 10.5688H8.90791" stroke="#141B34" stroke-width="1.5" stroke-linecap="round" stroke-linejoin="round"/>
<path d="M8.9082 9.81878C8.49399 9.81878 8.1582 10.1546 8.1582 10.5688C8.1582 10.983 8.49399 11.3188 8.9082 11.3188V9.81878ZM11.7199 14.4102L11.8779 15.1434L11.7199 14.4102ZM14.4663 12.2659L13.7933 11.9348L13.7933 11.9348L14.4663 12.2659ZM14.9831 10.5688L15.7107 10.7507V10.7507L14.9831 10.5688ZM9.45257 14.5L8.72296 14.3263L8.50305 15.25H9.45257V14.5ZM10.3885 9.81878H8.9082V11.3188H10.3885V9.81878ZM9.87718 15.25C10.7918 15.25 11.3641 15.2541 11.8779 15.1434L11.5619 13.6771C11.2425 13.7459 10.864 13.75 9.87718 13.75V15.25ZM11.8779 15.1434C13.297 14.8376 14.4984 13.8996 15.1392 12.597L13.7933 11.9348C13.3548 12.826 12.5328 13.4678 11.5619 13.6771L11.8779 15.1434ZM14.2727 10.3181C14.2669 10.3413 14.2612 10.3642 14.2555 10.3868L15.7107 10.7507C15.7164 10.7281 15.7221 10.7051 15.7279 10.6819L14.2727 10.3181ZM14.2555 10.3868C14.0284 11.2948 13.9332 11.6504 13.7933 11.9348L15.1392 12.597C15.3661 12.1359 15.4993 11.5963 15.7107 10.7507L14.2555 10.3868ZM14.9831 9.81878H10.3885V11.3188H14.9831V9.81878ZM9.45257 15.25H9.87718V13.75H9.45257V15.25ZM10.1822 14.6737L11.1181 10.7425L9.65886 10.3951L8.72296 14.3263L10.1822 14.6737Z" fill="#141B34"/>
<path d="M2 7.5H4.02786C5.23068 7.5 5.83209 7.5 6.31539 7.2013C6.7987 6.9026 7.06766 6.36469 7.60557 5.28885L8 4.5" stroke="#141B34" stroke-width="1.5"/>
<path d="M2.00023 7.5H2L2.00055 7.45319C2.01979 5.10543 2.55698 4.61005 4.96053 4.61005H7.94497L7.60557 5.28885C7.06766 6.36469 6.7987 6.9026 6.31539 7.2013C5.83209 7.5 5.23068 7.5 4.02786 7.5H2.00023Z" fill="white"/>
<path d="M2 7.58942C2 7.54333 2.00018 7.49793 2.00055 7.45319M8 4.5L7.94497 4.61005M7.94497 4.61005L7.60557 5.28885C7.06766 6.36469 6.7987 6.9026 6.31539 7.2013C5.83209 7.5 5.23068 7.5 4.02786 7.5H2L2.00055 7.45319M7.94497 4.61005H4.96053C2.55698 4.61005 2.01979 5.10543 2.00055 7.45319" stroke="#141B34" stroke-width="1.5"/>
<path d="M22 7.5L19 7.5" stroke="#141B34" stroke-width="1.5" stroke-linecap="round"/>
</svg>
