<svg width="24" height="24" viewBox="0 0 24 24" fill="none" xmlns="http://www.w3.org/2000/svg">
<path d="M7 7C7 5.36426 7.78565 3.91221 9 3H4L2 7H7Z" fill="white"/>
<path d="M12 2C9.23858 2 7 4.23858 7 7H3V20C3 21.1046 3.89543 22 5 22H19C20.1046 22 21 21.1046 21 20V7H17C17 4.23858 14.7614 2 12 2Z" fill="#D4D7E0"/>
<path d="M12 16C10.8954 16 10 16.8954 10 18V22.0001L14 22.0001L14 18C14 16.8954 13.1046 16 12 16Z" fill="white"/>
<path d="M17 7C17 5.36426 16.2143 3.91221 15 3H20L22 7H17Z" fill="white"/>
<path d="M3 7V18C3 19.8856 3 20.8284 3.58579 21.4142C4.17157 22 5.11438 22 7 22H17C18.8856 22 19.8284 22 20.4142 21.4142C21 20.8284 21 19.8856 21 18V7" stroke="#141B34" stroke-width="1.5" stroke-linecap="round" stroke-linejoin="round"/>
<path d="M17 7C17 4.23858 14.7614 2 12 2C9.23858 2 7 4.23858 7 7" stroke="#141B34" stroke-width="1.5" stroke-linecap="round" stroke-linejoin="round"/>
<path d="M14 22.0001L14 18C14 16.8954 13.1046 16 12 16C10.8954 16 10 16.8954 10 18V22.0001" stroke="#141B34" stroke-width="1.5" stroke-linecap="round" stroke-linejoin="round"/>
<path d="M9 3H4.47214C4.16165 3 3.84734 3.08209 3.59811 3.32898C2.85619 4.06395 2.4281 5.28762 2 7H7M15 3H19.5279C19.8384 3 20.1527 3.08209 20.4019 3.32898C21.1438 4.06395 21.5719 5.28762 22 7H17" stroke="#141B34" stroke-width="1.5" stroke-linecap="round" stroke-linejoin="round"/>
<path d="M6 11H6.5M6 14.5H6.5" stroke="#141B34" stroke-width="1.5" stroke-linecap="round" stroke-linejoin="round"/>
<path d="M17.5 11H18M17.5 14.5H18" stroke="#141B34" stroke-width="1.5" stroke-linecap="round" stroke-linejoin="round"/>
<path d="M10.5 8V9.5M10.5 11V9.5M13.5 8V9.5M13.5 11V9.5M10.5 9.5H13.5" stroke="#141B34" stroke-width="1.5" stroke-linecap="round" stroke-linejoin="round"/>
</svg>
