<svg width="24" height="24" viewBox="0 0 24 24" fill="none" xmlns="http://www.w3.org/2000/svg">
<path d="M2 12.5C2 8.02166 2 5.78249 3.39124 4.39124C4.78249 3 7.02166 3 11.5 3C15.9783 3 18.2175 3 19.6088 4.39124C21 5.78249 21 8.02166 21 12.5C21 16.9783 21 19.2175 19.6088 20.6088C18.2175 22 15.9783 22 11.5 22C7.02166 22 4.78249 22 3.39124 20.6088C2 19.2175 2 16.9783 2 12.5Z" fill="#D4D7E0"/>
<path d="M20.6304 18.7523C20.8083 18.1526 20.4995 17.6032 20.4995 16.8493C19.4039 16.254 18.2708 15.9519 17.1313 15.9532C15.5568 15.9465 13.9969 16.5124 12.5312 17.619C13.5647 18.7457 14.3318 20.0672 14.777 21.4967C15.9137 21.2044 17.7017 21.4776 18.7739 20.9046C19.6817 20.4195 20.1131 20.0257 20.3879 19.363C20.4717 19.161 20.5682 18.962 20.6304 18.7523Z" fill="white"/>
<path d="M3.39286 20.6088C4.7841 22 7.02327 22 11.5016 22C13.0152 22 14.273 22 15.3288 21.9463C14.6357 19.9451 13.2638 18.1609 11.3782 16.8342C9.15922 15.2729 6.37324 14.4466 3.51731 14.5027C3.17819 14.5019 2.83937 14.5127 2.50161 14.5351H2.00781C2.03928 17.6923 2.23054 19.4464 3.39286 20.6088Z" fill="white"/>
<path d="M11.5 3C7.02166 3 4.78249 3 3.39124 4.39124C2 5.78249 2 8.02166 2 12.5C2 16.9783 2 19.2175 3.39124 20.6088C4.78249 22 7.02166 22 11.5 22C15.9783 22 18.2175 22 19.6088 20.6088C21 19.2175 21 16.9783 21 12.5V9" stroke="#141B34" stroke-width="1.5" stroke-linecap="round"/>
<path d="M2 14.1354C2.61902 14.0455 3.24484 14.0011 3.87171 14.0027C6.52365 13.9466 9.11064 14.7729 11.1711 16.3342C13.082 17.7821 14.4247 19.7749 15 22" stroke="#141B34" stroke-width="1.5" stroke-linejoin="round"/>
<path d="M21 16.8962C19.8246 16.3009 18.6088 15.9988 17.3862 16.0001C15.5345 15.9928 13.7015 16.6733 12 18" stroke="#141B34" stroke-width="1.5" stroke-linejoin="round"/>
<path d="M14 6C14 6 15 6 16 8C16 8 19.1765 3 22 2" stroke="#141B34" stroke-width="1.5" stroke-linecap="round" stroke-linejoin="round"/>
</svg>
