<svg width="24" height="24" viewBox="0 0 24 24" fill="none" xmlns="http://www.w3.org/2000/svg">
<path d="M9 2.46094C4.94289 3.7352 2 7.52549 2 12.0031C2 16.2947 4.70333 19.9548 8.5 21.3735C19 17.0031 14.5 5.50314 9 2.46094Z" fill="#D4D7E0"/>
<path d="M12 22C17.5228 22 22 17.5228 22 12C22 6.47715 17.5228 2 12 2C10.9548 2 9.94704 2.16035 9 2.4578C14.5 5.5 19 17 8.5 21.3704C9.58934 21.7775 10.7687 22 12 22Z" fill="white"/>
<path d="M22 12C22 17.5228 17.5228 22 12 22C6.47715 22 2 17.5228 2 12C2 6.47715 6.47715 2 12 2C17.5228 2 22 6.47715 22 12Z" stroke="#141B34" stroke-width="1.5"/>
<path d="M8.5 2.63281C12.2967 4.05155 15 7.71168 15 12.0032C15 16.2947 12.2967 19.9549 8.5 21.3736" stroke="#141B34" stroke-width="1.5"/>
</svg>
