<svg width="24" height="24" viewBox="0 0 24 24" fill="none" xmlns="http://www.w3.org/2000/svg">
<path d="M12.7586 11.213C12.2725 11.0137 11.7275 11.0137 11.2413 11.213L2.00402 15C2.00402 14.0305 1.92087 13.0354 2.51085 12.1986C4.55645 9.29747 8.40267 5.19677 11.0772 3.29756C11.636 2.90081 12.364 2.90081 12.9228 3.29756C15.5973 5.19677 19.4436 9.29747 21.4892 12.1986C22.0791 13.0354 21.996 14.0305 21.996 15L12.7586 11.213Z" fill="#D4D7E0"/>
<path d="M12.7586 11.213C12.2725 11.0137 11.7275 11.0137 11.2413 11.213L2.00402 15C2.00402 14.0305 1.92087 13.0354 2.51085 12.1986C4.55645 9.29747 8.40267 5.19677 11.0772 3.29756C11.636 2.90081 12.364 2.90081 12.9228 3.29756C15.5973 5.19677 19.4436 9.29747 21.4892 12.1986C22.0791 13.0354 21.996 14.0305 21.996 15L12.7586 11.213Z" stroke="#141B34" stroke-width="1.5" stroke-linecap="round" stroke-linejoin="round"/>
<path d="M12.7586 11.212C12.2725 11.0127 11.7275 11.0127 11.2413 11.212L10.1672 11.6523L10.028 11.9989C9.60981 13.1184 7.27437 17.1821 8.22598 18.2878C8.94881 19.1278 14.8699 19.3384 15.774 18.2878C16.7256 17.1821 14.3902 13.1184 13.972 11.9989L13.8328 11.6523L12.7586 11.212Z" fill="white"/>
<path d="M11.2413 11.212L10.9569 10.518L11.2413 11.212ZM12.7586 11.212L13.0431 10.518V10.518L12.7586 11.212ZM8.22598 18.2878L7.65751 18.7771H7.65751L8.22598 18.2878ZM10.028 11.9989L9.33201 11.7194C9.32973 11.7251 9.32752 11.7308 9.32537 11.7365L10.028 11.9989ZM13.972 11.9989L14.6746 11.7365C14.6725 11.7308 14.6703 11.7251 14.668 11.7194L13.972 11.9989ZM15.774 18.2878L16.3425 18.7771L15.774 18.2878ZM13.8328 11.6523L14.5288 11.3728C14.4532 11.1847 14.3048 11.0353 14.1173 10.9584L13.8328 11.6523ZM10.1672 11.6523L9.8827 10.9584C9.6952 11.0353 9.54678 11.1847 9.47125 11.3728L10.1672 11.6523ZM11.5258 11.9059C11.8297 11.7814 12.1703 11.7814 12.4742 11.9059L13.0431 10.518C12.3747 10.244 11.6253 10.244 10.9569 10.518L11.5258 11.9059ZM8.79445 17.7986C8.80188 17.8073 8.77253 17.7799 8.75766 17.6564C8.74269 17.5321 8.74816 17.3546 8.78721 17.1186C8.8656 16.6448 9.0577 16.0575 9.30975 15.4269C9.55905 14.8031 9.85177 14.1737 10.1141 13.6191C10.3658 13.0872 10.6115 12.58 10.7305 12.2614L9.32537 11.7365C9.23532 11.9776 9.03233 12.3982 8.75821 12.9776C8.49482 13.5344 8.18475 14.1999 7.91687 14.8702C7.65174 15.5336 7.41227 16.2395 7.30734 16.8737C7.21147 17.4531 7.18271 18.2254 7.65751 18.7771L8.79445 17.7986ZM13.2695 12.2614C13.3885 12.58 13.6342 13.0872 13.8859 13.6191C14.1482 14.1737 14.441 14.8031 14.6902 15.4269C14.9423 16.0575 15.1344 16.6448 15.2128 17.1186C15.2518 17.3546 15.2573 17.5321 15.2423 17.6564C15.2275 17.7799 15.1981 17.8073 15.2056 17.7986L16.3425 18.7771C16.8173 18.2254 16.7885 17.4531 16.6927 16.8737C16.5877 16.2395 16.3483 15.5336 16.0831 14.8702C15.8153 14.1999 15.5052 13.5344 15.2418 12.9776C14.9677 12.3982 14.7647 11.9776 14.6746 11.7365L13.2695 12.2614ZM7.65751 18.7771C7.88043 19.0361 8.20867 19.1846 8.46601 19.2775C8.75226 19.3809 9.09073 19.463 9.44958 19.5279C10.1699 19.6583 11.0482 19.733 11.9203 19.7467C12.7915 19.7603 13.6864 19.7134 14.4374 19.5891C14.8121 19.527 15.1713 19.4424 15.4817 19.3267C15.7759 19.217 16.1073 19.0503 16.3425 18.7771L15.2056 17.7986C15.2147 17.788 15.1633 17.8445 14.9578 17.9212C14.7686 17.9917 14.5112 18.0564 14.1923 18.1092C13.5563 18.2146 12.7562 18.2596 11.9438 18.2468C11.1322 18.2342 10.3382 18.1644 9.71676 18.0519C9.40472 17.9954 9.15496 17.9315 8.97551 17.8667C8.76715 17.7914 8.75224 17.7496 8.79445 17.7986L7.65751 18.7771ZM12.4742 11.9059L13.5483 12.3463L14.1173 10.9584L13.0431 10.518L12.4742 11.9059ZM14.668 11.7194L14.5288 11.3728L13.1369 11.9319L13.2761 12.2785L14.668 11.7194ZM10.4517 12.3463L11.5258 11.9059L10.9569 10.518L9.8827 10.9584L10.4517 12.3463ZM10.7239 12.2785L10.8631 11.9319L9.47125 11.3728L9.33201 11.7194L10.7239 12.2785Z" fill="#141B34"/>
<path d="M12 19V21" stroke="#141B34" stroke-width="1.5" stroke-linecap="round" stroke-linejoin="round"/>
<path d="M8 17L4.5 14M16 17L19.5 14" stroke="#141B34" stroke-width="1.5" stroke-linecap="round" stroke-linejoin="round"/>
</svg>
