<svg width="24" height="24" viewBox="0 0 24 24" fill="none" xmlns="http://www.w3.org/2000/svg">
<path d="M16.8377 11.0002H7.16228C6.76262 11.0002 6.37245 10.9461 6 10.8438V21.0002H18L18 10.8438C17.6275 10.9461 17.2374 11.0002 16.8377 11.0002Z" fill="#D4D7E0"/>
<path d="M10.0065 17.9614L9.5 21H14.5L13.9935 17.9614C13.8739 17.2437 13.8141 16.8849 13.6537 16.6197C13.2554 15.9607 12.6157 16.0005 12 16.0005C11.3843 16.0005 10.7446 15.9607 10.3463 16.6197C10.1859 16.8849 10.1261 17.2437 10.0065 17.9614Z" fill="white"/>
<path d="M3 8C9 8 11.5 4 12 2C12.5 4 15 8 21 8C20.4028 9.79157 18.7262 11 16.8377 11H7.16228C5.2738 11 3.59719 9.79157 3 8Z" fill="white"/>
<path d="M6 11V21" stroke="#141B34" stroke-width="1.5" stroke-linecap="round" stroke-linejoin="round"/>
<path d="M18 11V21" stroke="#141B34" stroke-width="1.5" stroke-linecap="round" stroke-linejoin="round"/>
<path d="M9.5 21L10.0065 17.9614C10.1261 17.2437 10.1859 16.8849 10.3463 16.6197C10.7446 15.9607 11.3843 16.0005 12 16.0005C12.6157 16.0005 13.2554 15.9607 13.6537 16.6197C13.8141 16.8849 13.8739 17.2437 13.9935 17.9614L14.5 21" stroke="#141B34" stroke-width="1.5" stroke-linecap="round" stroke-linejoin="round"/>
<path d="M3 21H21" stroke="#141B34" stroke-width="1.5" stroke-linecap="round" stroke-linejoin="round"/>
<path d="M12 2L12.7276 1.8181C12.6441 1.48422 12.3442 1.25 12 1.25C11.6558 1.25 11.3559 1.48422 11.2724 1.8181L12 2ZM3 8V7.25C2.75892 7.25 2.53253 7.36589 2.39157 7.56147C2.2506 7.75704 2.21225 8.00846 2.28849 8.23717L3 8ZM21 8L21.7115 8.23717C21.7878 8.00846 21.7494 7.75704 21.6084 7.56147C21.4675 7.36589 21.2411 7.25 21 7.25V8ZM11.2724 1.8181C10.8391 3.55142 8.59112 7.25 3 7.25V8.75C9.40888 8.75 12.1609 4.44858 12.7276 2.1819L11.2724 1.8181ZM11.2724 2.1819C11.8391 4.44858 14.5911 8.75 21 8.75V7.25C15.4089 7.25 13.1609 3.55142 12.7276 1.8181L11.2724 2.1819ZM7.16228 11.75H16.8377V10.25H7.16228V11.75ZM20.2885 7.76283C19.7934 9.24814 18.4034 10.25 16.8377 10.25V11.75C19.049 11.75 21.0122 10.335 21.7115 8.23717L20.2885 7.76283ZM2.28849 8.23717C2.98776 10.335 4.95097 11.75 7.16228 11.75V10.25C5.59662 10.25 4.20662 9.24814 3.71151 7.76283L2.28849 8.23717Z" fill="#141B34"/>
</svg>
