<svg width="24" height="24" viewBox="0 0 24 24" fill="none" xmlns="http://www.w3.org/2000/svg">
<path d="M2 12C2 17.5228 6.47715 22 12 22C13.0116 22 13.9881 21.8498 14.9085 21.5705C14.9694 21.552 15.027 21.5277 15.0829 21.4972C16.6458 20.6451 19.7063 18.7641 20.3157 17.5787C20.3426 17.5265 20.3693 17.4754 20.4012 17.4262C21.4127 15.8633 22 14.0002 22 12C22 6.47715 17.5228 2 12 2C10.9548 2 9.94704 2.16035 9 2.4578C8.21852 2.65924 5.14685 5.26666 3.60684 6.63448C3.53533 6.698 3.47408 6.77064 3.42478 6.8526C2.52023 8.35628 2 10.1174 2 12Z" fill="#D4D7E0"/>
<path d="M3.5 6.72958C2.54913 8.25986 2 10.0658 2 12C2 17.5228 6.47715 22 12 22C13.0452 22 14.053 21.8396 15 21.5422M20.353 17.5C21.394 15.9221 22 14.0318 22 12C22 6.47715 17.5228 2 12 2C10.9548 2 9.94704 2.16035 9 2.4578" stroke="#141B34" stroke-width="1.5" stroke-linecap="round" stroke-linejoin="round"/>
<circle cx="5" cy="5" r="2" fill="white"/>
<circle cx="5" cy="5" r="2" stroke="#141B34" stroke-width="1.5" stroke-linecap="round" stroke-linejoin="round"/>
<circle cx="19" cy="19" r="2" fill="white"/>
<circle cx="19" cy="19" r="2" stroke="#141B34" stroke-width="1.5" stroke-linecap="round" stroke-linejoin="round"/>
<path d="M12 17C14.7614 17 17 14.7614 17 12C17 9.23858 14.7614 7 12 7C9.23858 7 7 9.23858 7 12C7 12.3425 7.03443 12.6769 7.10002 13C7.40001 14.1667 8.8 16.6 12 17Z" fill="white"/>
<circle cx="8" cy="15" r="2" fill="white"/>
<circle cx="8" cy="15" r="2" stroke="#141B34" stroke-width="1.5" stroke-linecap="round" stroke-linejoin="round"/>
<path d="M12 17C14.7614 17 17 14.7614 17 12C17 9.23858 14.7614 7 12 7C9.23858 7 7 9.23858 7 12C7 12.3425 7.03443 12.6769 7.10002 13" stroke="#141B34" stroke-width="1.5" stroke-linecap="round" stroke-linejoin="round"/>
<path d="M12.009 12H12" stroke="#141B34" stroke-width="2" stroke-linecap="round" stroke-linejoin="round"/>
</svg>
