<svg width="24" height="24" viewBox="0 0 24 24" fill="none" xmlns="http://www.w3.org/2000/svg">
<path d="M18.7181 15.9646C15.6755 13.3481 9.30933 13.3451 5.38146 15.9558C5.05697 16.1715 4.97141 16.3269 5.00779 16.7056C5.05255 17.1715 5.12191 17.6578 5.23493 18.1357L5 18C3 17 2 14.2512 2 12C2 6.47715 6.47715 2 12 2C17.5228 2 22 6.47715 22 12C22 14.2512 21 17 19 18L18.7724 18.1091C18.8887 17.6117 18.9567 17.1056 18.9951 16.6236C19.0195 16.3169 18.9566 16.1696 18.7181 15.9646Z" fill="#D4D7E0"/>
<path d="M5.00779 16.7056L5.75435 16.6338V16.6338L5.00779 16.7056ZM18.9951 16.6236L18.2475 16.5641V16.5641L18.9951 16.6236ZM5.38146 15.9558L4.9663 15.3312L5.38146 15.9558ZM18.7181 15.9646L19.2071 15.3959V15.3959L18.7181 15.9646ZM5 18L5.37506 17.3505L5.35556 17.3393L5.33541 17.3292L5 18ZM19 18L19.3242 18.6764L19.3354 18.6708L19 18ZM18.7724 18.1091L18.0421 17.9383L17.6857 19.4618L19.0966 18.7854L18.7724 18.1091ZM5.23493 18.1357L4.85987 18.7851L6.36475 19.6542L5.96479 17.963L5.23493 18.1357ZM5.79661 16.5804C7.6149 15.3719 10.0368 14.7486 12.3813 14.75C14.7373 14.7514 16.8901 15.3817 18.2291 16.5332L19.2071 15.3959C17.5036 13.931 14.952 13.2515 12.3822 13.25C9.80105 13.2485 7.07588 13.929 4.9663 15.3312L5.79661 16.5804ZM5.75435 16.6338C5.75133 16.6024 5.75023 16.5799 5.75003 16.5641C5.74984 16.5485 5.75058 16.5421 5.75053 16.5425C5.75044 16.5433 5.74948 16.5513 5.74578 16.5642C5.74197 16.5776 5.73618 16.593 5.72814 16.6089C5.71107 16.6425 5.69454 16.6574 5.69968 16.6525C5.70303 16.6493 5.71158 16.6415 5.72798 16.6289C5.74443 16.6163 5.76662 16.6004 5.79661 16.5804L4.9663 15.3312C4.77603 15.4576 4.53823 15.6389 4.39045 15.9302C4.23783 16.231 4.23789 16.5344 4.26123 16.7773L5.75435 16.6338ZM19.7427 16.6832C19.7593 16.4755 19.7556 16.224 19.6463 15.9646C19.5382 15.7082 19.3626 15.5296 19.2071 15.3959L18.2291 16.5332C18.2485 16.5499 18.2622 16.5627 18.2718 16.5721C18.2813 16.5815 18.2856 16.5866 18.2864 16.5876C18.2871 16.5884 18.2842 16.585 18.2796 16.5775C18.2748 16.5698 18.2693 16.5596 18.2641 16.5473C18.2589 16.5349 18.2552 16.5233 18.2527 16.5133C18.2504 16.5036 18.2497 16.4977 18.2496 16.4969C18.2495 16.4963 18.25 16.5009 18.25 16.5123C18.2499 16.5237 18.2493 16.5405 18.2475 16.5641L19.7427 16.6832ZM2.75 12C2.75 6.89137 6.89137 2.75 12 2.75V1.25C6.06294 1.25 1.25 6.06294 1.25 12H2.75ZM12 2.75C17.1086 2.75 21.25 6.89137 21.25 12H22.75C22.75 6.06294 17.9371 1.25 12 1.25V2.75ZM5.33541 17.3292C4.53649 16.9297 3.88693 16.1522 3.43209 15.1573C2.97919 14.1668 2.75 13.0238 2.75 12H1.25C1.25 13.2274 1.52081 14.5844 2.06791 15.7811C2.61307 16.9734 3.46351 18.0703 4.66459 18.6708L5.33541 17.3292ZM21.25 12C21.25 13.0238 21.0208 14.1668 20.5679 15.1573C20.1131 16.1522 19.4635 16.9297 18.6646 17.3292L19.3354 18.6708C20.5365 18.0703 21.3869 16.9734 21.9321 15.7811C22.4792 14.5844 22.75 13.2274 22.75 12H21.25ZM18.2475 16.5641C18.2112 17.0189 18.1478 17.4863 18.0421 17.9383L19.5026 18.28C19.6297 17.7371 19.7022 17.1923 19.7427 16.6832L18.2475 16.5641ZM18.6758 17.3237L18.4482 17.4328L19.0966 18.7854L19.3242 18.6763L18.6758 17.3237ZM4.26123 16.7773C4.30817 17.2659 4.38195 17.7877 4.50506 18.3083L5.96479 17.963C5.86187 17.5279 5.79694 17.0771 5.75435 16.6338L4.26123 16.7773ZM4.62494 18.6495L4.85987 18.7851L5.60999 17.4862L5.37506 17.3505L4.62494 18.6495Z" fill="#141B34"/>
<path d="M5.00779 16.7056C4.97141 16.3269 5.05697 16.1715 5.38146 15.9558C9.30933 13.3451 15.6755 13.3481 18.7181 15.9646C18.9566 16.1696 19.0195 16.3169 18.9951 16.6236C18.8758 18.1215 18.471 19.8517 17.2149 20.8332C15.2211 22.3912 8.76892 22.3867 6.78076 20.8332C5.53838 19.8624 5.14963 18.182 5.00779 16.7056Z" fill="white"/>
<path d="M5.00779 16.7056C4.97141 16.3269 5.05697 16.1715 5.38146 15.9558C9.30933 13.3451 15.6755 13.3481 18.7181 15.9646C18.9566 16.1696 19.0195 16.3169 18.9951 16.6236C18.8758 18.1215 18.471 19.8517 17.2149 20.8332C15.2211 22.3912 8.76892 22.3867 6.78076 20.8332C5.53838 19.8624 5.14963 18.182 5.00779 16.7056Z" stroke="#141B34" stroke-width="1.5" stroke-linejoin="round"/>
<path d="M9.00896 18H9M15 18H14.991" stroke="#141B34" stroke-width="1.5" stroke-linecap="round" stroke-linejoin="round"/>
<circle cx="12" cy="7" r="3" fill="white"/>
<circle cx="12" cy="7" r="3" stroke="#141B34" stroke-width="1.5"/>
<path d="M4.83928 10.5417C5.32655 8.8999 4.66856 7.31423 3.36963 7H3.33782C2.48697 8.47087 2 10.1786 2 12C2 12.3252 2.02087 12.6608 2.0626 13C3.22784 13.0017 4.40869 11.9926 4.83928 10.5417Z" fill="white"/>
<path d="M20.6315 7C19.3317 7.31423 18.6732 8.8999 19.1608 10.5417C19.5915 11.9917 20.772 13.0006 21.9374 13C21.9791 12.6608 22 12.3252 22 12C22 10.1786 21.513 8.47087 20.6622 7H20.6315Z" fill="white"/>
<path d="M2 12.9989C2.02086 12.9996 2.04173 13 2.0626 13M22 12.999C21.9791 12.9997 21.9583 13 21.9374 13M2.0626 13C3.22784 13.0017 4.40869 11.9926 4.83928 10.5417C5.32655 8.8999 4.66856 7.31423 3.36963 7H3.33782C2.48697 8.47087 2 10.1786 2 12C2 12.3252 2.02087 12.6608 2.0626 13ZM21.9374 13C20.772 13.0006 19.5915 11.9917 19.1608 10.5417C18.6732 8.8999 19.3317 7.31423 20.6315 7H20.6622C21.513 8.47087 22 10.1786 22 12C22 12.3252 21.9791 12.6608 21.9374 13Z" stroke="#141B34" stroke-width="1.5"/>
</svg>
