<svg width="24" height="24" viewBox="0 0 24 24" fill="none" xmlns="http://www.w3.org/2000/svg">
<path d="M21.998 15V13C21.998 10.1716 21.998 8.75736 21.1194 7.87868C20.0164 6.98162 18.5789 6.91912 17.998 7C17.998 6.07003 17.998 5.60504 17.8958 5.22354C17.6184 4.18827 16.8098 3.37962 15.7745 3.10222C15.393 3 14.928 3 13.998 3H9.99805C6.22681 3 4.34119 3 3.16962 4.17157C1.99805 5.34315 1.99805 7.22876 1.99805 11V13C1.99805 16.7712 1.99805 18.6569 3.16962 19.8284C4.34119 21 6.22681 21 9.99805 21H15.998C18.8265 21 20.2407 21 21.1194 20.1213C21.998 19.2426 21.998 17.8284 21.998 15Z" fill="#D4D7E0"/>
<path d="M16 13.5C16 14.3284 16.6716 15 17.5 15C18.3284 15 19 14.3284 19 13.5C19 12.6716 18.3284 12 17.5 12C16.6716 12 16 12.6716 16 13.5Z" fill="white"/>
<path d="M16 13.5C16 14.3284 16.6716 15 17.5 15C18.3284 15 19 14.3284 19 13.5C19 12.6716 18.3284 12 17.5 12C16.6716 12 16 12.6716 16 13.5Z" stroke="#141B34" stroke-width="1.5"/>
<path d="M10 15L3 22M10 22L3 15" stroke="#141B34" stroke-width="1.5" stroke-linecap="round"/>
<path d="M10 7H16C18.8284 7 20.2426 7 21.1213 7.87868C22 8.75736 22 10.1716 22 13V15C22 17.8284 22 19.2426 21.1213 20.1213C20.2426 21 18.8284 21 16 21H13.499M18 7C18 6.07003 18 5.60504 17.8978 5.22354C17.6204 4.18827 16.8117 3.37962 15.7765 3.10222C15.395 3 14.93 3 14 3H10C6.22876 3 4.34315 3 3.17157 4.17157C2 5.34315 2 7.22876 2 11V12" stroke="#141B34" stroke-width="1.5" stroke-linecap="round"/>
</svg>
