<svg width="24" height="24" viewBox="0 0 24 24" fill="none" xmlns="http://www.w3.org/2000/svg">
<path fill-rule="evenodd" clip-rule="evenodd" d="M12.0017 1.25C10.0593 1.25 8.53859 2.08008 7.19622 2.8128L7.14547 2.8405C5.75302 3.60038 4.5415 4.2476 3.01578 4.2476H2.42155L2.28566 4.82563C0.216077 13.6288 4.3513 21.1096 11.8443 22.7163L12.0017 22.75L12.1591 22.7163C19.6521 21.1096 23.7874 13.6288 21.7178 4.82563L21.5819 4.2476H20.9877C19.4643 4.2476 18.2566 3.60075 16.865 2.84064L16.8195 2.81581C15.4762 2.08191 13.9534 1.25 12.0017 1.25ZM11.9889 8C10.2596 8 8.6694 8.63946 7.36328 9.70203L8.62543 11.2535C9.61698 10.4468 10.7708 10 11.9889 10C13.2108 10 14.3681 10.4496 15.3618 11.2611L16.6269 9.71209C15.3185 8.64352 13.7237 8 11.9889 8ZM11.9889 11.3607C11.009 11.3607 10.0915 11.6484 9.29216 12.144L10.3461 13.8437C10.8541 13.5288 11.41 13.3607 11.9889 13.3607C12.5707 13.3607 13.1294 13.5304 13.6395 13.8485L14.6977 12.1515C13.8957 11.6513 12.9738 11.3607 11.9889 11.3607ZM10.9961 16C10.9961 15.4477 11.4438 15 11.9961 15H12.0024C12.5547 15 13.0024 15.4477 13.0024 16C13.0024 16.5523 12.5547 17 12.0024 17H11.9961C11.4438 17 10.9961 16.5523 10.9961 16Z" fill="#141B34"/>
</svg>
