<svg width="24" height="24" viewBox="0 0 24 24" fill="none" xmlns="http://www.w3.org/2000/svg">
<path d="M12.427 1.38558C12.1707 1.20481 11.8294 1.20481 11.5731 1.38557L1.25 8.66432L3.82312 22.1416C3.89054 22.4948 4.1973 22.75 4.5543 22.75H7.77694C7.37853 22.1002 7.16503 21.4276 7.11649 20.7412C7.02933 19.5086 7.48399 18.3599 8.09712 17.376C8.21565 17.1858 8.34161 16.9994 8.47298 16.8171C7.77628 15.7609 7.71082 14.3434 8.35303 13.1165C9.041 11.7302 10.277 11.2762 11.4515 10.8449C12.4788 10.4675 13.459 10.1075 13.984 9.15586C14.5676 8.20421 13.6641 7.11938 13.6641 7.11938C16.5943 7.88376 17.7574 11.1881 16.8993 13.855C16.1417 16.2098 14.5311 17.6674 12.1799 18.1259C11.3481 18.2882 10.3441 18.159 9.59838 17.8105C9.51468 17.9304 9.43446 18.0514 9.35838 18.1735C8.83387 19.0152 8.54587 19.8426 8.60187 20.6346C8.6476 21.2812 8.92938 21.9954 9.66879 22.75H19.4457C19.8027 22.75 20.1095 22.4948 20.1769 22.1416L22.75 8.66432L12.427 1.38558Z" fill="#141B34"/>
</svg>
