<svg width="24" height="24" viewBox="0 0 24 24" fill="none" xmlns="http://www.w3.org/2000/svg">
<path d="M15.4592 13.6112C17.1342 12.2919 19.6758 11.7793 21.9987 11.7793H22.7487V12.5293C22.7487 14.8312 22.3279 17.4443 21.1139 19.2006C20.4927 20.0992 19.6425 20.8018 18.5214 21.0805C17.6474 21.2978 16.6721 21.2416 15.5991 20.8989C16.3835 19.1929 17.5592 18.0231 18.5535 17.3601L17.4439 15.6961C16.2924 16.4639 14.9945 17.731 14.0506 19.5181C13.6297 18.3452 13.5286 17.2776 13.7262 16.3211C13.9615 15.182 14.6032 14.2854 15.4592 13.6112Z" fill="#141B34"/>
<path d="M13.0234 22.3085C13.2591 21.2676 13.6176 20.3381 14.0506 19.5181C14.1275 19.7323 14.215 19.95 14.3133 20.1712L14.4305 20.4346L14.6939 20.5518C15.0029 20.6892 15.3047 20.8048 15.5991 20.8989C15.342 21.458 15.127 22.0747 14.9741 22.7501L13.0234 22.3085Z" fill="#141B34"/>
<path fill-rule="evenodd" clip-rule="evenodd" d="M7.23334 10.2501C7.5905 10.2442 7.92371 10.4292 8.10749 10.7355L9.60749 13.2355L7.89251 14.2645L7.28331 13.2492L3.94952 19.25H11.25V21.25H2.25C1.89568 21.25 1.56781 21.0625 1.38813 20.7571C1.20844 20.4517 1.20377 20.0741 1.37584 19.7644L6.37584 10.7644C6.54932 10.4521 6.87618 10.2561 7.23334 10.2501Z" fill="#141B34"/>
<path fill-rule="evenodd" clip-rule="evenodd" d="M12.2513 1.25C12.6145 1.24999 12.9491 1.44687 13.1255 1.76433L17.5703 9.76433C17.757 10.1005 17.7345 10.5139 17.5123 10.8278C17.2902 11.1416 16.9077 11.3003 16.5286 11.2359L13.5856 10.7359L13.9206 8.76413L14.8106 8.91534L12.2514 4.30906L9.2366 9.73564L7.48828 8.76436L11.3772 1.76436C11.5535 1.4469 11.8882 1.25001 12.2513 1.25Z" fill="#141B34"/>
</svg>
