<svg width="24" height="24" viewBox="0 0 24 24" fill="none" xmlns="http://www.w3.org/2000/svg">
<path d="M11 21.9981C15.4183 21.9981 19 20.6549 19 18.9981V13.0019C9.8 17.0019 4.5 14.334 3 12.5V18.9981C3 20.6549 6.58172 21.9981 11 21.9981Z" fill="#D4D7E0"/>
<path d="M19 6C12.6 9.6 5.66667 7.5 3 6V12.4981C4.5 14.3321 11.5 17 19 13V6Z" fill="white"/>
<path d="M19 4.99619C11.8 -0.203811 5.33333 2.82952 3 4.99619V6C5.66667 7.5 12.6 9.6 19 6V4.99619Z" fill="#D4D7E0"/>
<path d="M21 18C21 20.2091 19.2091 22 17 22C14.7909 22 13 20.2091 13 18C13 15.7909 14.7909 14 17 14C19.2091 14 21 15.7909 21 18Z" fill="white"/>
<path d="M11 15C6.58172 15 3 13.6569 3 12" stroke="#141B34" stroke-width="1.5" stroke-linecap="round"/>
<path d="M19 5V11.5M3 5V19C3 20.6569 6.58172 22 11 22C11.1679 22 11.3346 21.9981 11.5 21.9942" stroke="#141B34" stroke-width="1.5" stroke-linecap="round"/>
<ellipse cx="11" cy="5" rx="8" ry="3" stroke="#141B34" stroke-width="1.5"/>
<path d="M7 8V10" stroke="#141B34" stroke-width="1.5" stroke-linecap="round"/>
<path d="M7 15V17" stroke="#141B34" stroke-width="1.5" stroke-linecap="round"/>
<path d="M17 16.6667V18M17 18V19.3333M17 18H18.3333M17 18H15.6667M21 18C21 20.2091 19.2091 22 17 22C14.7909 22 13 20.2091 13 18C13 15.7909 14.7909 14 17 14C19.2091 14 21 15.7909 21 18Z" stroke="#141B34" stroke-width="1.5" stroke-linecap="round"/>
</svg>
