<svg width="24" height="24" viewBox="0 0 24 24" fill="none" xmlns="http://www.w3.org/2000/svg">
<path d="M14 2L1 8" stroke="#141B34" stroke-width="1.5" stroke-linejoin="round"/>
<path d="M12 22V22.75C12.4142 22.75 12.75 22.4142 12.75 22H12ZM3 22H2.25V22.75H3V22ZM11.25 3V22H12.75V3H11.25ZM12 21.25H3V22.75H12V21.25ZM3.75 22V7H2.25V22H3.75Z" fill="#141B34"/>
<path d="M12 7L23 12" stroke="#141B34" stroke-width="1.5" stroke-linejoin="round"/>
<path d="M10 21.9997H21V11.5" stroke="#141B34" stroke-width="1.5"/>
<path d="M18 9.5L18 7" stroke="#141B34" stroke-width="1.5" stroke-linejoin="round"/>
<path d="M6 11H9M6 15H9" stroke="#141B34" stroke-width="1.5" stroke-linejoin="round"/>
<path d="M15 14H18" stroke="#141B34" stroke-width="1.5" stroke-linejoin="round"/>
<path d="M16.5 22V18" stroke="#141B34" stroke-width="1.5" stroke-linejoin="round"/>
</svg>
