<svg width="24" height="24" viewBox="0 0 24 24" fill="none" xmlns="http://www.w3.org/2000/svg">
<path d="M6 11V21" stroke="#141B34" stroke-width="1.5" stroke-linejoin="round"/>
<path d="M18 11V21" stroke="#141B34" stroke-width="1.5" stroke-linejoin="round"/>
<path d="M9.5 20.5L10 16L13.9935 16.0005L14.5 20.5" stroke="#141B34" stroke-width="1.5" stroke-linejoin="round"/>
<path d="M3 21H21" stroke="#141B34" stroke-width="1.5" stroke-linejoin="round"/>
<path d="M12 2L12.7276 1.8181C12.6441 1.48422 12.3442 1.25 12 1.25C11.6558 1.25 11.3559 1.48422 11.2724 1.8181L12 2ZM3 8V7.25H1.95943L2.28849 8.23717L3 8ZM21 8L21.7115 8.23717L22.0406 7.25H21V8ZM11.2724 1.8181C10.8391 3.55142 8.59112 7.25 3 7.25V8.75C9.40888 8.75 12.1609 4.44858 12.7276 2.1819L11.2724 1.8181ZM11.2724 2.1819C11.8391 4.44858 14.5911 8.75 21 8.75V7.25C15.4089 7.25 13.1609 3.55142 12.7276 1.8181L11.2724 2.1819ZM7.16228 11.75H16.8377V10.25H7.16228V11.75ZM20.2885 7.76283C19.7934 9.24814 18.4034 10.25 16.8377 10.25V11.75C19.049 11.75 21.0122 10.335 21.7115 8.23717L20.2885 7.76283ZM2.28849 8.23717C2.98776 10.335 4.95097 11.75 7.16228 11.75V10.25C5.59662 10.25 4.20662 9.24814 3.71151 7.76283L2.28849 8.23717Z" fill="#141B34"/>
</svg>
