<svg width="24" height="24" viewBox="0 0 24 24" fill="none" xmlns="http://www.w3.org/2000/svg">
<path d="M9 19L12 15L15 19M9 14H15" stroke="#141B34" stroke-width="1.5" stroke-linejoin="round"/>
<path d="M3 12V8H8V12" stroke="#141B34" stroke-width="1.5" stroke-linejoin="round"/>
<path d="M4 8V4H7V8" stroke="#141B34" stroke-width="1.5" stroke-linejoin="round"/>
<path d="M2 22H1.25V22.75H2V22ZM2 12V11.25C1.58579 11.25 1.25 11.5858 1.25 12H2ZM9 12H9.75C9.75 11.5858 9.41421 11.25 9 11.25V12ZM15 12V11.25C14.5858 11.25 14.25 11.5858 14.25 12H15ZM22 12H22.75C22.75 11.5858 22.4142 11.25 22 11.25V12ZM22 22V22.75H22.75V22H22ZM2.75 22V12H1.25V22H2.75ZM2 12.75H9V11.25H2V12.75ZM8.25 12V22H9.75V12H8.25ZM15.75 22V12H14.25V22H15.75ZM15 12.75H22V11.25H15V12.75ZM21.25 12V22H22.75V12H21.25ZM2 22.75H22V21.25H2V22.75Z" fill="#141B34"/>
<path d="M5.5 4V2" stroke="#141B34" stroke-width="1.5" stroke-linejoin="round"/>
<path d="M16 12V8H21V12" stroke="#141B34" stroke-width="1.5" stroke-linejoin="round"/>
<path d="M17 8V4H20V8" stroke="#141B34" stroke-width="1.5" stroke-linejoin="round"/>
<path d="M18.5 4V2" stroke="#141B34" stroke-width="1.5" stroke-linejoin="round"/>
<path d="M5.5 22V19" stroke="#141B34" stroke-width="1.5" stroke-linejoin="round"/>
<path d="M18.5 22V19" stroke="#141B34" stroke-width="1.5" stroke-linejoin="round"/>
</svg>
