<svg width="24" height="24" viewBox="0 0 24 24" fill="none" xmlns="http://www.w3.org/2000/svg">
<path d="M3 21H21V3.00046L3 3V21Z" stroke="#141B34" stroke-width="1.5" stroke-linejoin="round"/>
<path d="M7.75 7V6.25H6.25V7H7.75ZM7.5 13L8.17082 12.6646C8.063 12.449 7.85811 12.2983 7.62014 12.2597C7.38217 12.2211 7.14014 12.2992 6.96967 12.4697L7.5 13ZM9.5 17L8.82918 17.3354C8.95622 17.5895 9.21592 17.75 9.5 17.75C9.78408 17.75 10.0438 17.5895 10.1708 17.3354L9.5 17ZM13 10V9.25C12.7159 9.25 12.4562 9.4105 12.3292 9.66459L13 10ZM7.75 10.5V8.71429H6.25V10.5H7.75ZM9.25 8.71429V10.5H10.75V8.71429H9.25ZM10.75 8.71429C10.75 7.4505 9.83358 6.25 8.5 6.25V7.75C8.82327 7.75 9.25 8.08452 9.25 8.71429H10.75ZM7.75 8.71429C7.75 8.08452 8.17673 7.75 8.5 7.75V6.25C7.16642 6.25 6.25 7.4505 6.25 8.71429H7.75ZM7.75 8.71429V7H6.25V8.71429H7.75ZM6.82918 13.3354L8.82918 17.3354L10.1708 16.6646L8.17082 12.6646L6.82918 13.3354ZM10.1708 17.3354L13.6708 10.3354L12.3292 9.66459L8.82918 16.6646L10.1708 17.3354ZM13 10.75H18V9.25H13V10.75ZM6.53033 15.0303L8.03033 13.5303L6.96967 12.4697L5.46967 13.9697L6.53033 15.0303Z" fill="#141B34"/>
</svg>
