<svg width="24" height="24" viewBox="0 0 24 24" fill="none" xmlns="http://www.w3.org/2000/svg">
<path fill-rule="evenodd" clip-rule="evenodd" d="M16.5 12C14.0147 12 12 14.0147 12 16.5C12 18.9853 14.0147 21 16.5 21C18.9853 21 21 18.9853 21 16.5C21 14.0147 18.9853 12 16.5 12ZM10 16.5C10 12.9101 12.9101 10 16.5 10C20.0899 10 23 12.9101 23 16.5C23 20.0899 20.0899 23 16.5 23C12.9101 23 10 20.0899 10 16.5Z" fill="#141B34"/>
<path fill-rule="evenodd" clip-rule="evenodd" d="M16.5 1C17.0523 1 17.5 1.44772 17.5 2V11C17.5 11.5523 17.0523 12 16.5 12C15.9477 12 15.5 11.5523 15.5 11L15.5 2C15.5 1.44772 15.9477 1 16.5 1Z" fill="#141B34"/>
<path opacity="0.4" fill-rule="evenodd" clip-rule="evenodd" d="M8.49992 2C8.49992 1.44772 8.05221 1 7.49992 1C6.94764 1 6.49992 1.44772 6.49992 2L6.49992 6.07823C3.3855 6.56393 0.999924 9.25262 0.999924 12.5006C0.999924 16.3469 4.45366 19.3889 8.25282 18.9596C8.80162 18.8976 9.19624 18.4025 9.13423 17.8537C9.07223 17.3049 8.57708 16.9102 8.02828 16.9723C5.40249 17.2689 2.99992 15.1407 2.99992 12.5006C2.99992 10.0172 5.01844 8 7.51329 8C9.02764 8 10.3673 8.74263 11.1873 9.88586C11.5092 10.3346 12.134 10.4375 12.5828 10.1156C13.0315 9.79369 13.1344 9.16893 12.8125 8.72016C11.8134 7.32732 10.2742 6.34341 8.49992 6.07415V2Z" fill="#141B34"/>
</svg>
