<svg width="25" height="24" viewBox="0 0 25 24" fill="none" xmlns="http://www.w3.org/2000/svg">
<path fill-rule="evenodd" clip-rule="evenodd" d="M11.8112 4.54192C11.4064 5.11132 10.9477 5.9956 10.2708 7.30847L8.64684 10.4583C8.39375 10.9491 7.79065 11.1419 7.29976 10.8888C6.80888 10.6357 6.61611 10.0326 6.8692 9.54174L8.49317 6.39195C8.50572 6.36761 8.51822 6.34336 8.53069 6.31918C9.16039 5.09773 9.68335 4.08333 10.181 3.38318C10.6806 2.68041 11.3573 2 12.3694 2C13.3814 2 14.0582 2.68041 14.5577 3.38318C15.0554 4.08333 15.5784 5.09772 16.2081 6.31918L16.8384 7.54174C17.0915 8.03262 16.8987 8.63573 16.4078 8.88882C15.917 9.14191 15.3139 8.94914 15.0608 8.45826L14.468 7.30847C13.7911 5.9956 13.3323 5.11132 12.9276 4.54192C12.7302 4.26415 12.5868 4.1226 12.4901 4.05322C12.4155 3.99973 12.3857 3.99991 12.371 3.99999C12.3704 4 12.3699 4 12.3694 4C12.3689 4 12.3683 4 12.3678 3.99999C12.3531 3.99991 12.3233 3.99973 12.2487 4.05322C12.152 4.1226 12.0086 4.26415 11.8112 4.54192Z" fill="#141B34"/>
<path d="M8.04053 9.30544C7.68095 9.15913 7.26915 9.31139 7.09125 9.65644L4.26542 15.1373C3.6494 16.3321 3.1501 17.3004 2.87499 18.086C2.5938 18.889 2.47816 19.6857 2.87644 20.4287C3.28632 21.1933 4.01934 21.4934 4.8301 21.6248C5.60444 21.7502 6.63251 21.7502 7.87858 21.7501H16.8599C18.1059 21.7502 19.134 21.7502 19.9083 21.6248C20.7191 21.4934 21.4521 21.1933 21.862 20.4287C22.2603 19.6857 22.1446 18.889 21.8635 18.086C21.5883 17.3004 21.089 16.3321 20.473 15.1373L20.0956 14.4053C20.0136 14.2463 19.8774 14.1218 19.7117 14.0543L8.04053 9.30544Z" fill="#141B34"/>
<path fill-rule="evenodd" clip-rule="evenodd" d="M23.3471 6.79068C23.4628 7.3307 23.1189 7.86229 22.5788 7.97801L14.5983 9.68811L21.9416 10.5064C22.4905 10.5675 22.8858 11.0621 22.8247 11.6109C22.7635 12.1598 22.269 12.5552 21.7201 12.4941L14.9725 11.7422L22.7632 15.0811C23.2708 15.2986 23.506 15.8865 23.2884 16.3941C23.0709 16.9018 22.483 17.1369 21.9754 16.9194L8.24468 11.0348L2.5337 11.9866C1.98893 12.0774 1.4737 11.7094 1.3829 11.1646C1.29211 10.6198 1.66013 10.1046 2.2049 10.0138L8.18223 9.01759L22.1598 6.0224C22.6998 5.90668 23.2314 6.25065 23.3471 6.79068Z" fill="#141B34"/>
</svg>
