<svg width="24" height="24" viewBox="0 0 24 24" fill="none" xmlns="http://www.w3.org/2000/svg">
<path d="M12.0002 3L12.6558 2.63577C12.5235 2.39767 12.2725 2.25 12.0002 2.25C11.7278 2.25 11.4768 2.39767 11.3445 2.63576L12.0002 3ZM22.0002 21V21.75C22.2659 21.75 22.5118 21.6094 22.6466 21.3803C22.7813 21.1513 22.7848 20.8681 22.6558 20.6358L22.0002 21ZM2 21L1.34438 20.6358C1.21533 20.8681 1.21883 21.1513 1.3536 21.3803C1.48836 21.6094 1.73426 21.75 2 21.75V21ZM13.5002 21H12.7502V21.75H13.5002V21ZM13.5002 12H14.2502V11.25H13.5002V12ZM10.5002 12V11.25H9.75015V12H10.5002ZM10.5002 21V21.75H11.2502V21H10.5002ZM11.3445 3.36423L21.3445 21.3642L22.6558 20.6358L12.6558 2.63577L11.3445 3.36423ZM2.65562 21.3642L12.6558 3.36424L11.3445 2.63576L1.34438 20.6358L2.65562 21.3642ZM14.2502 21V12H12.7502V21H14.2502ZM9.75015 12V21H11.2502V12H9.75015ZM10.5002 20.25H2V21.75H10.5002V20.25ZM13.5002 21.75H22.0002V20.25H13.5002V21.75ZM10.5002 12.75H13.5002V11.25H10.5002V12.75Z" fill="#141B34"/>
<path d="M13.5 19L16.5 16" stroke="#141B34" stroke-width="1.5" stroke-linejoin="round"/>
<path d="M13.5 15L15.5 13" stroke="#141B34" stroke-width="1.5" stroke-linejoin="round"/>
<path d="M10.5 17L8 14.5" stroke="#141B34" stroke-width="1.5" stroke-linejoin="round"/>
</svg>
