<svg width="24" height="24" viewBox="0 0 24 24" fill="none" xmlns="http://www.w3.org/2000/svg">
<path d="M22 15L22.6708 15.3354C22.784 15.109 22.7754 14.8408 22.6478 14.6221L22 15ZM19 21V21.75H19.4635L19.6708 21.3354L19 21ZM5 21L4.32918 21.3354C4.45622 21.5895 4.71592 21.75 5 21.75V21ZM2 15L1.35217 14.6221L1.14774 14.9725L1.32918 15.3354L2 15ZM15 3.00004L15.6478 2.62214L15.4308 2.25004L15 2.25004L15 3.00004ZM9 3L9.00001 2.25C8.73325 2.25 8.48657 2.39168 8.35217 2.6221L9 3ZM21.3292 14.6646L18.3292 20.6646L19.6708 21.3354L22.6708 15.3354L21.3292 14.6646ZM19 20.25H5V21.75H19V20.25ZM5.67082 20.6646L2.67082 14.6646L1.32918 15.3354L4.32918 21.3354L5.67082 20.6646ZM22.6478 14.6221L15.6478 2.62214L14.3522 3.37795L21.3522 15.3779L22.6478 14.6221ZM15 2.25004L9.00001 2.25L8.99999 3.75L15 3.75004L15 2.25004ZM2.64783 15.3779L9.64783 3.3779L8.35217 2.6221L1.35217 14.6221L2.64783 15.3779Z" fill="#141B34"/>
<path d="M9 4L16 15" stroke="#141B34" stroke-width="1.5" stroke-linecap="round" stroke-linejoin="round"/>
<path d="M5.5 20.5L12 9" stroke="#141B34" stroke-width="1.5" stroke-linecap="round" stroke-linejoin="round"/>
<path d="M21 15H9" stroke="#141B34" stroke-width="1.5" stroke-linecap="round" stroke-linejoin="round"/>
</svg>
