<svg width="24" height="24" viewBox="0 0 24 24" fill="none" xmlns="http://www.w3.org/2000/svg">
<path d="M14 18.83H14.75V17.9395L13.8725 18.0909L14 18.83ZM14 22H13.25C13.25 22.3019 13.431 22.5743 13.7092 22.6913C13.9875 22.8084 14.3088 22.7472 14.5246 22.536L14 22ZM20.2561 15.2974L19.6721 14.8268L19.6697 14.8299L20.2561 15.2974ZM12 18.25C6.77245 18.25 2.75 14.6705 2.75 10.5H1.25C1.25 15.7183 6.18186 19.75 12 19.75V18.25ZM2.75 10.5C2.75 6.32946 6.77245 2.75 12 2.75V1.25C6.18186 1.25 1.25 5.2817 1.25 10.5H2.75ZM12 2.75C17.2276 2.75 21.25 6.32946 21.25 10.5H22.75C22.75 5.2817 17.8181 1.25 12 1.25V2.75ZM13.8725 18.0909C13.2684 18.1951 12.6422 18.25 12 18.25V19.75C12.7277 19.75 13.4392 19.6878 14.1275 19.569L13.8725 18.0909ZM13.25 18.83V22H14.75V18.83H13.25ZM21.25 10.5C21.25 12.0927 20.6754 13.5818 19.6721 14.8269L20.8401 15.768C22.0373 14.2823 22.75 12.4671 22.75 10.5H21.25ZM14.5246 22.536C16.1959 20.9004 19.0548 18.0072 20.8426 15.765L19.6697 14.8299C17.9452 16.9928 15.1456 19.8295 13.4754 21.464L14.5246 22.536Z" fill="#141B34"/>
<path d="M6 8.5V12.5H7M9 8.5V12.5M11.1 12.5V8.5L13.5 12.5V8.5M17.5 8.5H15.6V10.5M17.5 12.5H15.6V10.5M15.6 10.5H17.04" stroke="#141B34" stroke-width="1.5" stroke-linecap="square" stroke-linejoin="round"/>
</svg>
