<svg width="24" height="24" viewBox="0 0 24 24" fill="none" xmlns="http://www.w3.org/2000/svg">
<path d="M21 3V21H3V3H21Z" stroke="#141B34" stroke-width="1.5" stroke-linejoin="round"/>
<path d="M13.5 17L12.8926 17.44C13.0337 17.6347 13.2596 17.75 13.5 17.75V17ZM10.5 7L11.0888 6.53548C10.9466 6.3552 10.7296 6.25 10.5 6.25V7ZM15.5714 17V17.75H16.3214V17H15.5714ZM14.1074 16.56L9.03593 9.55998L7.82122 10.44L12.8926 17.44L14.1074 16.56ZM9.17857 10V7H7.67857V10H9.17857ZM7.67857 10V17H9.17857V10H7.67857ZM8.42857 7.75H10.5V6.25H8.42857V7.75ZM14.8214 7V13.4286H16.3214V7H14.8214ZM14.8214 13.4286V17H16.3214V13.4286H14.8214ZM9.91117 7.46452L14.9826 13.8931L16.1603 12.9641L11.0888 6.53548L9.91117 7.46452ZM14 7.75H15.5714V6.25H14V7.75ZM15.5714 7.75H17V6.25H15.5714V7.75ZM7 17.75H8.42857V16.25H7V17.75ZM8.42857 17.75H10V16.25H8.42857V17.75ZM8.42857 6.25H7V7.75H8.42857V6.25ZM13.5 17.75H15.5714V16.25H13.5V17.75Z" fill="#141B34"/>
</svg>
