<svg width="24" height="24" viewBox="0 0 24 24" fill="none" xmlns="http://www.w3.org/2000/svg">
<path d="M17.9992 21L17.4673 21.5288C17.6605 21.7232 17.9445 21.7967 18.2078 21.7204C18.4711 21.6441 18.6718 21.4303 18.7313 21.1627L17.9992 21ZM21.9992 3L22.7313 3.1627C22.7916 2.89122 22.6968 2.60864 22.4849 2.42853C22.273 2.24843 21.9788 2.20036 21.7206 2.30365L21.9992 3ZM2 11L1.72145 10.3036C1.451 10.4118 1.26765 10.6668 1.2512 10.9576C1.23474 11.2484 1.38816 11.5225 1.64467 11.6605L2 11ZM10.9992 13.9584L10.4711 13.4258L9.93781 13.9546L10.4673 14.4872L10.9992 13.9584ZM8.49917 20L7.75924 20.1225C7.80635 20.4071 8.01253 20.6395 8.28952 20.7201C8.5665 20.8007 8.86519 20.7154 9.05772 20.5005L8.49917 20ZM7.49917 13.9584L8.2391 13.8359L8.17894 13.4725L7.8545 13.2979L7.49917 13.9584ZM15.7678 10.2867C16.062 9.99507 16.064 9.5202 15.7724 9.22605C15.4807 8.9319 15.0059 8.92986 14.7117 9.2215L15.7678 10.2867ZM18.7313 21.1627L22.7313 3.1627L21.267 2.8373L17.267 20.8373L18.7313 21.1627ZM21.7206 2.30365L1.72145 10.3036L2.27855 11.6964L22.2777 3.69635L21.7206 2.30365ZM9.2391 19.8775L8.2391 13.8359L6.75924 14.0809L7.75924 20.1225L9.2391 19.8775ZM11.5272 14.491L15.7678 10.2867L14.7117 9.2215L10.4711 13.4258L11.5272 14.491ZM18.5311 20.4712L13.0635 14.9712L11.9998 16.0288L17.4673 21.5288L18.5311 20.4712ZM13.0635 14.9712L11.5311 13.4297L10.4673 14.4872L11.9998 16.0288L13.0635 14.9712ZM11.9731 14.9995L7.94062 19.4995L9.05772 20.5005L13.0902 16.0005L11.9731 14.9995ZM1.64467 11.6605L7.14384 14.6189L7.8545 13.2979L2.35533 10.3395L1.64467 11.6605Z" fill="#141B34"/>
</svg>
