<svg width="24" height="24" viewBox="0 0 24 24" fill="none" xmlns="http://www.w3.org/2000/svg">
<path d="M7 20.6622L7.37554 20.013L7.10645 19.8573L6.80615 19.9377L7 20.6622ZM2 22L1.27549 21.8061C1.20625 22.0649 1.28027 22.3409 1.46967 22.5303C1.65907 22.7197 1.9351 22.7937 2.19385 22.7245L2 22ZM3.33782 17L4.06234 17.1939L4.14269 16.8935L3.98703 16.6245L3.33782 17ZM21.25 12C21.25 17.1086 17.1086 21.25 12 21.25V22.75C17.9371 22.75 22.75 17.9371 22.75 12H21.25ZM2.75 12C2.75 6.89137 6.89137 2.75 12 2.75V1.25C6.06294 1.25 1.25 6.06294 1.25 12H2.75ZM12 2.75C17.1086 2.75 21.25 6.89137 21.25 12H22.75C22.75 6.06294 17.9371 1.25 12 1.25V2.75ZM12 21.25C10.3139 21.25 8.73533 20.7996 7.37554 20.013L6.62446 21.3114C8.2064 22.2265 10.0432 22.75 12 22.75V21.25ZM6.80615 19.9377L1.80615 21.2755L2.19385 22.7245L7.19385 21.3867L6.80615 19.9377ZM3.98703 16.6245C3.20043 15.2647 2.75 13.6861 2.75 12H1.25C1.25 13.9568 1.77351 15.7936 2.68862 17.3755L3.98703 16.6245ZM2.72451 22.1939L4.06234 17.1939L2.61331 16.8061L1.27549 21.8061L2.72451 22.1939Z" fill="#141B34"/>
<path d="M7 7V6.25C6.80109 6.25 6.61032 6.32902 6.46967 6.46967C6.32902 6.61032 6.25 6.80109 6.25 7H7ZM10.5001 10.5L11.0256 11.0351L11.2962 10.7694L11.2426 10.3939L10.5001 10.5ZM10.0001 7L10.7426 6.89393C10.6898 6.52445 10.3734 6.25 10.0001 6.25V7ZM17.0001 17V17.75C17.199 17.75 17.3898 17.671 17.5305 17.5303C17.6711 17.3897 17.7501 17.1989 17.7501 17H17.0001ZM13.5 13.5L13.6227 12.7601L13.238 12.6963L12.9648 12.9745L13.5 13.5ZM17.0001 14.0805H17.7501C17.7501 13.7137 17.4847 13.4007 17.1228 13.3406L17.0001 14.0805ZM10.4499 13.5502C9.10122 12.2015 7.75 9.76868 7.75 7H6.25C6.25 10.2313 7.80866 13.0302 9.38928 14.6108L10.4499 13.5502ZM9.97465 9.96486L8.0628 11.8422L9.11376 12.9125L11.0256 11.0351L9.97465 9.96486ZM9.25766 7.10607L9.75766 10.6061L11.2426 10.3939L10.7426 6.89393L9.25766 7.10607ZM9.38928 14.6108C10.9699 16.1915 13.7688 17.75 17.0001 17.75V16.25C14.2314 16.25 11.7986 14.8989 10.4499 13.5502L9.38928 14.6108ZM12.9648 12.9745L11.0876 14.8864L12.1579 15.9373L14.0352 14.0255L12.9648 12.9745ZM17.1228 13.3406L13.6227 12.7601L13.3773 14.2399L16.8774 14.8204L17.1228 13.3406ZM16.2501 14.0805V17H17.7501V14.0805H16.2501ZM10.0001 6.25H7V7.75H10.0001V6.25Z" fill="#141B34"/>
</svg>
