<svg width="24" height="24" viewBox="0 0 24 24" fill="none" xmlns="http://www.w3.org/2000/svg">
<path d="M15.6972 15H8C6.89543 15 6 14.0951 6 12.9788C6 11.8625 6.89796 10.9517 8.00141 11.002C12.6902 11.2157 15.2951 12.1485 16.384 12.6526C16.78 12.836 17 13.2432 17 13.6834C17 14.4105 16.4167 15 15.6972 15Z" fill="#D4D7E0"/>
<path d="M16.384 12.6526C16.78 12.836 17 13.2432 17 13.6834C17 13.8049 16.9837 13.9225 16.9533 14.0341L17 14L20.9401 3.48443C21.1497 2.90943 20.7906 2.29091 20.1533 2.12892C18.5192 1.71359 16.8081 2.31124 16.2695 3.78511C15.6441 5.49648 15 8.13095 15 12V12.1208C15.6046 12.3158 16.061 12.5031 16.384 12.6526Z" fill="#D4D7E0"/>
<path d="M15.6972 15H8C6.89543 15 6 14.0951 6 12.9788C6 11.8625 6.89796 10.9517 8.00141 11.002C12.6902 11.2157 15.2951 12.1485 16.384 12.6526C16.78 12.836 17 13.2432 17 13.6834C17 14.4105 16.4167 15 15.6972 15Z" stroke="#141B34" stroke-width="1.5" stroke-linecap="round" stroke-linejoin="round"/>
<path d="M16.384 12.6526L16.6991 11.972L16.384 12.6526ZM17 14L17.4423 14.6057C17.5606 14.5193 17.6509 14.4003 17.7023 14.2632L17 14ZM20.9401 3.48443L21.6425 3.7476L21.6448 3.7412L20.9401 3.48443ZM16.2695 3.78511L16.974 4.04253L16.2695 3.78511ZM20.1533 2.12892L20.3381 1.40203L20.1533 2.12892ZM15 12.1208H14.25C14.25 12.4463 14.46 12.7347 14.7698 12.8346L15 12.1208ZM16.9533 14.0341L16.2297 13.8368C16.1458 14.1442 16.2654 14.471 16.5278 14.6518C16.7903 14.8326 17.1383 14.8277 17.3956 14.6398L16.9533 14.0341ZM17.75 13.6834C17.75 13.0024 17.404 12.2984 16.6991 11.972L16.0689 13.3332C16.156 13.3736 16.25 13.484 16.25 13.6834H17.75ZM17.7023 14.2632L21.6425 3.74759L20.2378 3.22128L16.2977 13.7368L17.7023 14.2632ZM15.5651 3.52769C14.9093 5.3221 14.25 8.04374 14.25 12H15.75C15.75 8.21816 16.3789 5.67086 16.974 4.04253L15.5651 3.52769ZM20.3381 1.40203C18.4727 0.927921 16.2805 1.56988 15.5651 3.52769L16.974 4.04253C17.3357 3.0526 18.5657 2.49925 19.9685 2.85581L20.3381 1.40203ZM21.6448 3.7412C22.0262 2.69445 21.3473 1.65855 20.3381 1.40203L19.9685 2.85581C20.0968 2.8884 20.1762 2.96039 20.2156 3.02832C20.2537 3.09387 20.2598 3.16094 20.2355 3.22766L21.6448 3.7412ZM16.6991 11.972C16.3482 11.8096 15.8635 11.6113 15.2302 11.407L14.7698 12.8346C15.3457 13.0204 15.7738 13.1966 16.0689 13.3332L16.6991 11.972ZM14.25 12V12.1208H15.75V12H14.25ZM17.6768 14.2315C17.7247 14.0561 17.75 13.8721 17.75 13.6834H16.25C16.25 13.7376 16.2428 13.7889 16.2297 13.8368L17.6768 14.2315ZM16.5577 13.3943L16.5109 13.4285L17.3956 14.6398L17.4423 14.6057L16.5577 13.3943Z" fill="#141B34"/>
<path d="M15 7.9594C15 7.9594 11.6187 6.56473 10.3204 7.13847C9.93065 7.3107 9.59819 7.59603 9.36369 7.95954C9 8.5233 9 9.34845 9 10.9988" stroke="#141B34" stroke-width="1.5" stroke-linecap="round" stroke-linejoin="round"/>
<path d="M6 13V16C6 16.9319 6 17.3978 5.84776 17.7654C5.64477 18.2554 5.25542 18.6448 4.76537 18.8478C4.39782 19 3.93188 19 3 19" stroke="#141B34" stroke-width="1.5" stroke-linecap="round" stroke-linejoin="round"/>
<path d="M12 15V21" stroke="#141B34" stroke-width="1.5" stroke-linecap="round" stroke-linejoin="round"/>
<path d="M10 21H14" stroke="#141B34" stroke-width="1.5" stroke-linecap="round" stroke-linejoin="round"/>
</svg>
