<svg width="24" height="24" viewBox="0 0 24 24" fill="none" xmlns="http://www.w3.org/2000/svg">
<path d="M13.1509 15H10.8491C8.79675 15 7.77055 15 7.2641 15.5967C6.75765 16.1934 7.03957 17.0703 7.6034 18.8242L7.69704 19.1154C8.14071 20.4955 8.36255 21.1855 8.95349 21.5878L8.97997 21.6055C9.57752 22 10.385 22 12 22C13.615 22 14.4225 22 15.02 21.6055L15.0465 21.5878C15.6375 21.1855 15.8593 20.4955 16.303 19.1154L16.3966 18.8242C16.9604 17.0703 17.2423 16.1934 16.7359 15.5967C16.2294 15 15.2033 15 13.1509 15Z" fill="#D4D7E0"/>
<path d="M12 9C12 6.01418 11.1195 4.78937 9.94271 4.30317C9.91066 4.28993 9.87839 4.27724 9.84592 4.26507C9.27365 4.05069 8.63683 4 8 4C8 7 9.5 9 12 9Z" fill="white"/>
<path d="M12 9C12 6.01418 12.8805 4.78937 14.0573 4.30317C14.075 4.29588 14.0927 4.28875 14.1105 4.28178C14.6939 4.05331 15.3469 4 16 4C16 7 14.5 9 12 9Z" fill="white"/>
<path d="M10.0065 4C10.0065 4 10.5065 2.5 12.0065 2C13.5065 2.5 14.0065 4 14.0065 4L14.117 4.28178L14.0638 4.30317C12.887 4.78937 12.0065 6.01418 12.0065 9C12.0065 6.01418 11.126 4.78937 9.94922 4.30317L9.88477 4.27739L10.0065 4Z" fill="#D4D7E0"/>
<path d="M12 9C14.5 9 16 7 16 4C15.3469 4 14.6939 4.05331 14.1105 4.28178M12 9C9.5 9 8 7 8 4C8.63683 4 9.27365 4.05069 9.84592 4.26507M12 9C12 6.01418 12.8805 4.78937 14.0573 4.30317M12 9C12 6.01418 11.1195 4.78937 9.94271 4.30317M14.1105 4.28178L14 4C14 4 13.5 2.5 12 2C10.5 2.5 10 4 10 4L9.87826 4.27739M14.1105 4.28178C14.0927 4.28875 14.0749 4.29588 14.0573 4.30317M14.1105 4.28178L14.0573 4.30317M9.84592 4.26507L9.87826 4.27739M9.84592 4.26507C9.87839 4.27724 9.91066 4.28993 9.94271 4.30317M9.87826 4.27739L9.94271 4.30317" stroke="#141B34" stroke-width="1.5" stroke-linecap="round" stroke-linejoin="round"/>
<path d="M14.117 4.28178L14.0065 4C14.0065 4 13.5065 2.5 12.0065 2C10.5065 2.5 10.0065 4 10.0065 4L9.88477 4.27739L9.94922 4.30317C11.126 4.78937 12.0065 6.01418 12.0065 9C12.0065 6.01418 12.887 4.78937 14.0638 4.30317M14.117 4.28178C14.0992 4.28875 14.0815 4.29588 14.0638 4.30317M14.117 4.28178L14.0638 4.30317" stroke="#141B34" stroke-width="1.5" stroke-linecap="round" stroke-linejoin="round"/>
<path d="M12 9V15" stroke="#141B34" stroke-width="1.5" stroke-linecap="round" stroke-linejoin="round"/>
<path d="M12 13C12.25 12.3333 13.2 11 15 11" stroke="#141B34" stroke-width="1.5" stroke-linecap="round" stroke-linejoin="round"/>
<path d="M13.1509 15H10.8491C8.79675 15 7.77055 15 7.2641 15.5967C6.75765 16.1934 7.03957 17.0703 7.6034 18.8242L7.69704 19.1154C8.14071 20.4955 8.36255 21.1855 8.95349 21.5878L8.97997 21.6055C9.57752 22 10.385 22 12 22C13.615 22 14.4225 22 15.02 21.6055L15.0465 21.5878C15.6375 21.1855 15.8593 20.4955 16.303 19.1154L16.3966 18.8242C16.9604 17.0703 17.2423 16.1934 16.7359 15.5967C16.2294 15 15.2033 15 13.1509 15Z" stroke="#141B34" stroke-width="1.5" stroke-linecap="round" stroke-linejoin="round"/>
</svg>
