<svg width="24" height="24" viewBox="0 0 24 24" fill="none" xmlns="http://www.w3.org/2000/svg">
<path d="M12 2C12.7457 2 14.2859 2.3751 15.0209 3.11554C15.5554 3.65396 15.8227 3.92318 15.9149 3.96159C16.0072 4 16.1476 4 16.4286 4H17C17.382 4 17.5731 4 17.6904 4.06906C17.8078 4.13812 17.959 4.41024 18.2614 4.95449C18.4317 5.261 18.6822 5.53862 19.0039 5.73062V6V18V18.2694C18.6822 18.4614 18.4317 18.739 18.2614 19.0455C17.959 19.5898 17.8078 19.8619 17.6904 19.9309C17.5731 20 17.382 20 17 20H16.4286C16.1476 20 16.0072 20 15.9149 20.0384C15.8227 20.0768 15.5554 20.3461 15.021 20.8844L15.0209 20.8845C14.2859 21.6249 12.7457 22 12 22C11.2543 22 9.71412 21.6249 8.97908 20.8845C8.44458 20.346 8.17733 20.0768 8.08508 20.0384C7.99282 20 7.85236 20 7.57143 20H7C6.61796 20 6.42694 20 6.30957 19.9309C6.1922 19.8619 6.041 19.5898 5.73862 19.0455C5.5697 18.7415 5.32188 18.4659 5.00391 18.2741V18V6V5.72593C5.32188 5.53411 5.5697 5.25851 5.73862 4.95449L5.73862 4.95448C6.041 4.41024 6.1922 4.13812 6.30957 4.06906C6.42694 4 6.61796 4 7 4H7.57143C7.85236 4 7.99282 4 8.08508 3.96159C8.17733 3.92318 8.44462 3.65392 8.97909 3.11554C9.71412 2.3751 11.2543 2 12 2Z" fill="#D4D7E0"/>
<path d="M16.0039 10C16.0039 12.2091 14.213 14 12.0039 14C9.79477 14 8.00391 12.2091 8.00391 10C8.00391 7.79086 9.79477 6 12.0039 6C14.213 6 16.0039 7.79086 16.0039 10Z" fill="white"/>
<path d="M15.0209 3.11554L15.5532 2.58715L15.5532 2.58715L15.0209 3.11554ZM8.97909 3.11554L9.51135 3.64392L9.51135 3.64392L8.97909 3.11554ZM4 5.25C3.58579 5.25 3.25 5.58579 3.25 6C3.25 6.41421 3.58579 6.75 4 6.75V5.25ZM5.73862 4.95449L5.08301 4.59023L5.08301 4.59023L5.73862 4.95449ZM20 6.75C20.4142 6.75 20.75 6.41421 20.75 6C20.75 5.58579 20.4142 5.25 20 5.25V6.75ZM18.2614 4.95449L17.6058 5.31875V5.31875L18.2614 4.95449ZM17.6904 4.06906L17.3101 4.71547L17.3101 4.71547L17.6904 4.06906ZM6.30957 4.06906L6.6899 4.71547L6.6899 4.71547L6.30957 4.06906ZM8.08508 3.96159L7.7968 3.2692L7.7968 3.26921L8.08508 3.96159ZM15.9149 3.96159L16.2032 3.26921L16.2032 3.26921L15.9149 3.96159ZM8.97908 20.8845L8.44682 21.4128L8.44682 21.4129L8.97908 20.8845ZM15.0209 20.8845L14.4886 20.3561L14.4886 20.3561L15.0209 20.8845ZM20 18.75C20.4142 18.75 20.75 18.4142 20.75 18C20.75 17.5858 20.4142 17.25 20 17.25V18.75ZM18.2614 19.0455L17.6058 18.6813L18.2614 19.0455ZM4 17.25C3.58579 17.25 3.25 17.5858 3.25 18C3.25 18.4142 3.58579 18.75 4 18.75V17.25ZM5.73862 19.0455L6.39422 18.6813H6.39422L5.73862 19.0455ZM6.30957 19.9309L6.6899 19.2845L6.6899 19.2845L6.30957 19.9309ZM17.6904 19.9309L17.3101 19.2845H17.3101L17.6904 19.9309ZM15.9149 20.0384L16.2032 20.7308L16.2032 20.7308L15.9149 20.0384ZM8.08508 20.0384L7.7968 20.7308H7.7968L8.08508 20.0384ZM19.0039 5.73062L19.3883 5.08659L19.0039 5.73062ZM5.00391 5.72593L4.6165 5.08374L5.00391 5.72593ZM5.00391 18.2741L4.6165 18.9163L5.00391 18.2741ZM15.5532 2.58715C15.0641 2.09443 14.365 1.76904 13.7475 1.56721C13.1219 1.36278 12.4705 1.25 12 1.25V2.75C12.2753 2.75 12.7667 2.82477 13.2815 2.993C13.8042 3.16383 14.2427 3.39621 14.4886 3.64392L15.5532 2.58715ZM12 1.25C11.5295 1.25 10.8781 1.36278 10.2525 1.56721C9.635 1.76904 8.93595 2.09443 8.44682 2.58715L9.51135 3.64392C9.75726 3.39621 10.1958 3.16383 10.7185 2.993C11.2333 2.82477 11.7247 2.75 12 2.75V1.25ZM17 3.25H16.4286V4.75H17V3.25ZM7 4.75H7.57143V3.25H7V4.75ZM18.917 4.59023C18.77 4.32576 18.6457 4.10139 18.5429 3.9366C18.4909 3.85333 18.4329 3.76637 18.3695 3.68805C18.3117 3.61665 18.2135 3.50662 18.0708 3.42265L17.3101 4.71547C17.2261 4.66603 17.1908 4.61591 17.2037 4.63196C17.2111 4.6411 17.2319 4.66914 17.2702 4.73056C17.3479 4.85515 17.4503 5.03897 17.6058 5.31875L18.917 4.59023ZM17 4.75C17.0971 4.75 17.1747 4.75002 17.2415 4.751C17.3087 4.75198 17.3539 4.75384 17.3859 4.75634C17.4185 4.7589 17.423 4.76112 17.4114 4.75834C17.3975 4.75501 17.3587 4.74404 17.3101 4.71547L18.0708 3.42265C17.862 3.29984 17.6457 3.2721 17.503 3.26092C17.3566 3.24945 17.1785 3.25 17 3.25V4.75ZM6.39422 5.31875C6.54967 5.03897 6.65207 4.85515 6.7298 4.73056C6.76812 4.66914 6.78885 4.6411 6.79626 4.63196C6.80925 4.61591 6.77393 4.66603 6.6899 4.71547L5.92924 3.42265C5.78652 3.50662 5.68829 3.61665 5.63048 3.68805C5.56707 3.76637 5.5091 3.85333 5.45715 3.9366C5.35434 4.1014 5.22995 4.32576 5.08301 4.59023L6.39422 5.31875ZM7 3.25C6.82148 3.25 6.64338 3.24945 6.49696 3.26092C6.35432 3.2721 6.13796 3.29984 5.92924 3.42265L6.6899 4.71547C6.64134 4.74404 6.60249 4.75501 6.58861 4.75834C6.57705 4.76112 6.58148 4.7589 6.61412 4.75634C6.6461 4.75384 6.69135 4.75198 6.75847 4.751C6.82529 4.75002 6.90287 4.75 7 4.75V3.25ZM8.44682 2.58715C8.17656 2.8594 7.98383 3.05346 7.84674 3.18512C7.77785 3.25128 7.73298 3.29201 7.70544 3.3152C7.6918 3.32669 7.68972 3.32766 7.69645 3.32292C7.69773 3.32202 7.73492 3.29497 7.7968 3.2692L8.37335 4.65397C8.5154 4.59483 8.6287 4.49873 8.67161 4.4626C8.73684 4.40767 8.80949 4.34024 8.88576 4.26699C9.039 4.11982 9.24716 3.91006 9.51135 3.64392L8.44682 2.58715ZM7.57143 4.75C7.70264 4.75 7.83402 4.75031 7.94297 4.74391C8.04874 4.7377 8.20866 4.72255 8.37336 4.65397L7.7968 3.26921C7.83625 3.25278 7.86548 3.2469 7.87475 3.24526C7.88284 3.24383 7.87907 3.24508 7.85504 3.24649C7.83144 3.24787 7.79819 3.2489 7.74891 3.24945C7.69981 3.24999 7.64288 3.25 7.57143 3.25V4.75ZM14.4886 3.64392C14.7529 3.91008 14.961 4.11984 15.1143 4.267C15.1905 4.34025 15.2632 4.40768 15.3284 4.46261C15.3713 4.49874 15.4846 4.59483 15.6266 4.65397L16.2032 3.26921C16.2651 3.29496 16.3023 3.32201 16.3035 3.32292C16.3103 3.32766 16.3082 3.32669 16.2946 3.3152C16.267 3.29202 16.2222 3.25129 16.1533 3.18513C16.0162 3.05348 15.8235 2.85942 15.5532 2.58715L14.4886 3.64392ZM16.4286 3.25C16.3571 3.25 16.3002 3.24999 16.2511 3.24945C16.2018 3.2489 16.1686 3.24787 16.145 3.24649C16.1209 3.24508 16.1172 3.24383 16.1253 3.24526C16.1345 3.2469 16.1637 3.25278 16.2032 3.26921L15.6266 4.65397C15.7913 4.72255 15.9513 4.7377 16.057 4.74391C16.166 4.75031 16.2974 4.75 16.4286 4.75V3.25ZM8.44682 21.4129C8.93595 21.9056 9.635 22.231 10.2525 22.4328C10.8781 22.6372 11.5295 22.75 12 22.75V21.25C11.7247 21.25 11.2333 21.1752 10.7185 21.007C10.1958 20.8362 9.75726 20.6038 9.51135 20.3561L8.44682 21.4129ZM12 22.75C12.4705 22.75 13.1219 22.6372 13.7474 22.4328C14.365 22.231 15.0641 21.9056 15.5532 21.4128L14.4886 20.3561C14.2427 20.6038 13.8042 20.8362 13.2815 21.007C12.7667 21.1752 12.2753 21.25 12 21.25V22.75ZM7 20.75H7.57143V19.25H7V20.75ZM17 19.25H16.4286V20.75H17V19.25ZM5.08301 19.4098C5.22995 19.6742 5.35434 19.8986 5.45715 20.0634C5.5091 20.1467 5.56707 20.2336 5.63048 20.3119C5.68829 20.3834 5.78652 20.4934 5.92924 20.5774L6.6899 19.2845C6.77393 19.334 6.80925 19.3841 6.79625 19.368C6.78885 19.3589 6.76812 19.3309 6.7298 19.2694C6.65207 19.1448 6.54967 18.961 6.39422 18.6813L5.08301 19.4098ZM7 19.25C6.90287 19.25 6.82529 19.25 6.75847 19.249C6.69135 19.248 6.6461 19.2462 6.61412 19.2437C6.58147 19.2411 6.57705 19.2389 6.58861 19.2417C6.60249 19.245 6.64134 19.256 6.6899 19.2845L5.92924 20.5774C6.13796 20.7002 6.35432 20.7279 6.49695 20.7391C6.64338 20.7505 6.82148 20.75 7 20.75V19.25ZM17.6058 18.6813C17.4503 18.961 17.3479 19.1448 17.2702 19.2694C17.2319 19.3309 17.2111 19.3589 17.2037 19.368C17.1908 19.3841 17.2261 19.334 17.3101 19.2845L18.0708 20.5774C18.2135 20.4934 18.3117 20.3834 18.3695 20.3119C18.4329 20.2336 18.4909 20.1467 18.5429 20.0634C18.6457 19.8986 18.77 19.6742 18.917 19.4098L17.6058 18.6813ZM17 20.75C17.1785 20.75 17.3566 20.7505 17.503 20.7391C17.6457 20.7279 17.862 20.7002 18.0708 20.5774L17.3101 19.2845C17.3587 19.256 17.3975 19.245 17.4114 19.2417C17.4229 19.2389 17.4185 19.2411 17.3859 19.2437C17.3539 19.2462 17.3087 19.248 17.2415 19.249C17.1747 19.25 17.0971 19.25 17 19.25V20.75ZM15.5532 21.4129C15.8234 21.1406 16.0162 20.9466 16.1532 20.8149C16.2221 20.7487 16.267 20.708 16.2946 20.6848C16.3082 20.6733 16.3103 20.6723 16.3036 20.6771C16.3023 20.678 16.2651 20.705 16.2032 20.7308L15.6266 19.346C15.4846 19.4052 15.3713 19.5013 15.3284 19.5374C15.2632 19.5923 15.1905 19.6598 15.1142 19.733C14.961 19.8802 14.7528 20.09 14.4886 20.3561L15.5532 21.4129ZM16.4286 19.25C16.2974 19.25 16.166 19.2497 16.057 19.2561C15.9513 19.2623 15.7913 19.2775 15.6266 19.346L16.2032 20.7308C16.1637 20.7472 16.1345 20.7531 16.1253 20.7547C16.1172 20.7562 16.1209 20.7549 16.145 20.7535C16.1686 20.7521 16.2018 20.7511 16.2511 20.7506C16.3002 20.75 16.3571 20.75 16.4286 20.75V19.25ZM9.51135 20.3561C9.24714 20.0899 9.03898 19.8802 8.88575 19.733C8.80948 19.6597 8.73683 19.5923 8.6716 19.5374C8.62868 19.5013 8.51539 19.4052 8.37336 19.346L7.7968 20.7308C7.73493 20.705 7.69775 20.678 7.69646 20.6771C7.68972 20.6723 7.6918 20.6733 7.70544 20.6848C7.73297 20.708 7.77784 20.7487 7.84673 20.8149C7.98381 20.9465 8.17653 21.1406 8.44682 21.4128L9.51135 20.3561ZM7.57143 20.75C7.64288 20.75 7.69981 20.75 7.74891 20.7506C7.79819 20.7511 7.83144 20.7521 7.85504 20.7535C7.87907 20.7549 7.88284 20.7562 7.87475 20.7547C7.86548 20.7531 7.83626 20.7472 7.7968 20.7308L8.37336 19.346C8.20866 19.2775 8.04873 19.2623 7.94297 19.2561C7.83401 19.2497 7.70264 19.25 7.57143 19.25V20.75ZM18.2539 6V18H19.7539V6H18.2539ZM4.25391 6V18H5.75391V6H4.25391ZM20 17.25C19.4791 17.25 19.0127 17.3907 18.6196 17.6253L19.3883 18.9134C19.5552 18.8138 19.7568 18.75 20 18.75V17.25ZM18.6196 17.6253C18.172 17.8924 17.8329 18.2724 17.6058 18.6813L18.917 19.4098C19.0304 19.2056 19.1923 19.0303 19.3883 18.9134L18.6196 17.6253ZM18.2539 18V18.2694H19.7539V18H18.2539ZM20 5.25C19.7568 5.25 19.5552 5.18619 19.3883 5.08659L18.6196 6.37465C19.0127 6.60929 19.4791 6.75 20 6.75V5.25ZM19.3883 5.08659C19.1923 4.96966 19.0304 4.79441 18.917 4.59023L17.6058 5.31875C17.8329 5.72758 18.172 6.10758 18.6196 6.37465L19.3883 5.08659ZM19.7539 6V5.73062H18.2539V6H19.7539ZM4 6.75C4.52587 6.75 4.99599 6.60661 5.39132 6.36813L4.6165 5.08374C4.44857 5.18504 4.24538 5.25 4 5.25V6.75ZM5.39132 6.36813C5.83345 6.10141 6.16889 5.7243 6.39422 5.31875L5.08301 4.59023C4.9705 4.79273 4.81031 4.96682 4.6165 5.08374L5.39132 6.36813ZM5.75391 6V5.72593H4.25391V6H5.75391ZM4 18.75C4.24538 18.75 4.44857 18.815 4.6165 18.9163L5.39132 17.6319C4.99599 17.3934 4.52587 17.25 4 17.25V18.75ZM4.6165 18.9163C4.81031 19.0332 4.9705 19.2073 5.08301 19.4098L6.39422 18.6813C6.16889 18.2757 5.83345 17.8986 5.39132 17.6319L4.6165 18.9163ZM4.25391 18V18.2741H5.75391V18H4.25391Z" fill="#141B34"/>
<path d="M16.0039 10C16.0039 12.2091 14.213 14 12.0039 14C9.79477 14 8.00391 12.2091 8.00391 10C8.00391 7.79086 9.79477 6 12.0039 6C14.213 6 16.0039 7.79086 16.0039 10Z" stroke="#141B34" stroke-width="1.5"/>
<path d="M12.0039 10L13.0039 9" stroke="#141B34" stroke-width="1.5" stroke-linecap="round" stroke-linejoin="round"/>
<path d="M12.0039 14V18" stroke="#141B34" stroke-width="1.5" stroke-linecap="round" stroke-linejoin="round"/>
<path d="M11.0039 18H13.0039" stroke="#141B34" stroke-width="1.5" stroke-linecap="round" stroke-linejoin="round"/>
</svg>
