<svg width="24" height="24" viewBox="0 0 24 24" fill="none" xmlns="http://www.w3.org/2000/svg">
<path d="M21.1704 5.16367C21.3561 5.5339 21.2066 5.98461 20.8363 6.17036C20.4661 6.35611 20.0154 6.20656 19.8296 5.83633L21.1704 5.16367ZM11.4907 3.90688C11.9009 3.84925 12.2801 4.13505 12.3378 4.54524C12.3954 4.95542 12.1096 5.33466 11.6994 5.39229L11.4907 3.90688ZM7.783 1.45749C7.81406 1.04445 8.17408 0.73478 8.58712 0.765834C9.00017 0.796888 9.30984 1.1569 9.27878 1.56995L7.783 1.45749ZM11.5951 4.64958C11.6994 5.39229 11.6993 5.3923 11.6992 5.39232C11.6991 5.39233 11.699 5.39234 11.6989 5.39236C11.6987 5.39238 11.6985 5.39241 11.6983 5.39245C11.6977 5.39252 11.6971 5.39261 11.6963 5.39272C11.6947 5.39294 11.6926 5.39323 11.69 5.39358C11.6848 5.3943 11.6775 5.39528 11.6683 5.3965C11.6498 5.39894 11.6235 5.40232 11.5903 5.40638C11.5241 5.41448 11.4301 5.4253 11.3162 5.43659C11.0896 5.45903 10.7783 5.48388 10.4462 5.49211C10.1189 5.50023 9.74705 5.49295 9.40767 5.44319C9.11214 5.39986 8.66502 5.30285 8.35282 5.00093L9.39558 3.92267C9.34072 3.86962 9.36238 3.92051 9.62527 3.95906C9.84429 3.99117 10.1205 3.99973 10.409 3.99257C10.6928 3.98554 10.9652 3.96401 11.1684 3.94389C11.2693 3.93389 11.3518 3.92438 11.4082 3.91748C11.4364 3.91403 11.458 3.91125 11.472 3.90939C11.4791 3.90846 11.4842 3.90776 11.4874 3.90733C11.489 3.90712 11.49 3.90697 11.4906 3.90689C11.4909 3.90685 11.491 3.90683 11.491 3.90683C11.4911 3.90683 11.491 3.90683 11.491 3.90684C11.4909 3.90684 11.4909 3.90685 11.4909 3.90686C11.4908 3.90687 11.4907 3.90688 11.5951 4.64958ZM8.35282 5.00093C8.17926 4.83309 8.07558 4.62946 8.01026 4.46336C7.94207 4.28994 7.8952 4.10395 7.86147 3.92587C7.79409 3.57012 7.7659 3.17321 7.75538 2.81903C7.74473 2.46025 7.75165 2.12164 7.76101 1.87435C7.76572 1.75014 7.77109 1.6476 7.77534 1.57542C7.77747 1.53931 7.77932 1.51071 7.78067 1.49071C7.78134 1.48071 7.78189 1.47286 7.78229 1.46728C7.78249 1.46449 7.78265 1.46226 7.78277 1.46063C7.78283 1.45981 7.78288 1.45914 7.78292 1.45862C7.78294 1.45835 7.78296 1.45813 7.78297 1.45794C7.78298 1.45785 7.78299 1.45774 7.78299 1.45769C7.783 1.45759 7.783 1.45749 8.53089 1.51372C9.27878 1.56995 9.27879 1.56988 9.27879 1.56981C9.2788 1.5698 9.2788 1.56975 9.2788 1.56973C9.2788 1.56969 9.2788 1.56968 9.2788 1.56972C9.2788 1.56979 9.27878 1.57 9.27875 1.57036C9.2787 1.57107 9.27861 1.57235 9.27848 1.57419C9.27821 1.57787 9.2778 1.58377 9.27726 1.59176C9.27618 1.60773 9.27461 1.63203 9.27275 1.66359C9.26903 1.72677 9.26419 1.81875 9.25994 1.93112C9.25138 2.15702 9.24538 2.45993 9.25472 2.77451C9.2642 3.09368 9.28891 3.40196 9.33527 3.64672C9.35841 3.7689 9.38363 3.857 9.40621 3.91443C9.43168 3.97919 9.43747 3.96318 9.39558 3.92267L8.35282 5.00093ZM8.24929 4.04709C11.606 -1.01102 18.6045 0.0495813 21.1704 5.16367L19.8296 5.83633C17.6986 1.58894 12.1204 0.926621 9.49911 4.87651L8.24929 4.04709Z" fill="#141B34"/>
<path d="M13.6414 8.72881L14.1383 11.352L6.02313 6.72291C5.21869 6.26404 4.19006 6.53635 3.72561 7.33113C3.26117 8.12592 3.53679 9.14221 4.34123 9.60108L8.71093 12.0937L7.67262 14.7774C6.98662 16.5008 6.64362 17.3624 6.65591 18.1142C6.6762 19.356 7.12576 20.5036 8.35228 21.2032C9.20657 21.6906 9.90161 21.8089 11.7379 22.1801C12.903 22.4157 13.4856 22.5335 14.0257 22.4917C14.9148 22.4229 15.7521 22.0508 16.3941 21.4392C16.784 21.0677 17.0813 20.5589 17.676 19.5413L18.1801 18.6787C18.9706 17.3258 19.3659 16.6494 19.4666 15.9039C19.4846 15.7702 19.4955 15.6356 19.499 15.5008C19.5189 14.7489 19.2368 14.0193 18.6726 12.5599L16.846 7.83562C16.5653 7.10964 15.8104 6.67521 15.0328 6.79222C14.0981 6.93286 13.4674 7.81068 13.6414 8.72881Z" stroke="#141B34" stroke-width="1.5" stroke-linecap="round" stroke-linejoin="round"/>
</svg>
