<svg width="24" height="24" viewBox="0 0 24 24" fill="none" xmlns="http://www.w3.org/2000/svg">
<path d="M19.25 12C19.25 11.5858 18.9142 11.25 18.5 11.25C18.0858 11.25 17.75 11.5858 17.75 12H19.25ZM4.56729 17.9792L5.18779 17.5579L5.18779 17.5579L4.56729 17.9792ZM5.1309 18.8093L4.5104 19.2306H4.5104L5.1309 18.8093ZM5.0343 11.3747L4.51704 10.8316C4.50364 10.8444 4.49071 10.8577 4.47829 10.8714L5.0343 11.3747ZM6.99493 10.5431C7.29487 10.2574 7.30643 9.78268 7.02076 9.48274C6.73508 9.1828 6.26035 9.17124 5.96041 9.45691L6.99493 10.5431ZM3.00519 14.9372L3.75387 14.8927L3.00519 14.9372ZM3.05904 14.1756L2.32406 14.0262L3.05904 14.1756ZM18.2083 18.668L18.9139 18.9223L18.2083 18.668ZM15.1066 21.7136L14.8604 21.0051L15.1066 21.7136ZM8.94702 21.8872L9.10268 21.1535H9.10268L8.94702 21.8872ZM6.47767 20.5896L6.99483 20.0464L6.47767 20.5896ZM5.75 14.5C5.75 14.9142 6.08579 15.25 6.5 15.25C6.91422 15.25 7.25 14.9142 7.25 14.5H5.75ZM8.75 11C8.75 11.4142 9.08579 11.75 9.5 11.75C9.91422 11.75 10.25 11.4142 10.25 11H8.75ZM11.75 11C11.75 11.4142 12.0858 11.75 12.5 11.75C12.9142 11.75 13.25 11.4142 13.25 11H11.75ZM12.5 9V8.25C12.0858 8.25 11.75 8.58579 11.75 9H12.5ZM14.75 12C14.75 12.4142 15.0858 12.75 15.5 12.75C15.9142 12.75 16.25 12.4142 16.25 12H14.75ZM15.5 10L15.6233 9.2602C15.4058 9.22396 15.1834 9.28523 15.0152 9.42773C14.847 9.57024 14.75 9.77954 14.75 10H15.5ZM16.8288 10.2215L16.9521 9.48167L16.8288 10.2215ZM17.75 13C17.75 13.4142 18.0858 13.75 18.5 13.75C18.9142 13.75 19.25 13.4142 19.25 13H17.75ZM17.75 12V14.8347H19.25V12H17.75ZM3.94679 18.4005L4.5104 19.2306L5.7514 18.388L5.18779 17.5579L3.94679 18.4005ZM5.55156 11.9178L6.99493 10.5431L5.96041 9.45691L4.51704 10.8316L5.55156 11.9178ZM5.18779 17.5579C4.67498 16.8026 4.32104 16.2799 4.08415 15.846C3.85404 15.4245 3.76895 15.1465 3.75387 14.8927L2.25651 14.9817C2.28969 15.5402 2.48104 16.04 2.76761 16.5648C3.0474 17.0773 3.45038 17.6693 3.94679 18.4005L5.18779 17.5579ZM4.47829 10.8714C3.88366 11.5282 3.40143 12.0597 3.05239 12.529C2.69502 13.0095 2.43545 13.478 2.32406 14.0262L3.79403 14.3249C3.84477 14.0751 3.96846 13.8108 4.25599 13.4242C4.55186 13.0264 4.97619 12.5564 5.59031 11.8781L4.47829 10.8714ZM3.75387 14.8927C3.74257 14.7026 3.75605 14.5118 3.79403 14.3249L2.32406 14.0262C2.2602 14.3405 2.23749 14.6616 2.25651 14.9817L3.75387 14.8927ZM17.75 14.8347C17.75 16.9151 17.7388 17.7586 17.5027 18.4137L18.9139 18.9223C19.2612 17.9586 19.25 16.7862 19.25 14.8347H17.75ZM11.2027 22.75C13.1932 22.75 14.3787 22.7605 15.3527 22.422L14.8604 21.0051C14.1858 21.2395 13.3182 21.25 11.2027 21.25V22.75ZM17.5027 18.4137C17.068 19.6201 16.0992 20.5747 14.8604 21.0051L15.3527 22.422C17.0121 21.8455 18.3231 20.5616 18.9139 18.9223L17.5027 18.4137ZM11.2027 21.25C10.0205 21.25 9.53912 21.2461 9.10268 21.1535L8.79137 22.6209C9.41811 22.7539 10.0861 22.75 11.2027 22.75V21.25ZM4.5104 19.2306C5.12929 20.1421 5.49816 20.6926 5.96051 21.1328L6.99483 20.0464C6.67629 19.7431 6.4076 19.3545 5.7514 18.388L4.5104 19.2306ZM9.10268 21.1535C8.30688 20.9847 7.57685 20.6005 6.99483 20.0464L5.96051 21.1328C6.74531 21.88 7.72624 22.3949 8.79137 22.6209L9.10268 21.1535ZM7.25 14.5V4.5H5.75V14.5H7.25ZM8.75 4.5V8H10.25V4.5H8.75ZM8 3.75C8.41422 3.75 8.75 4.08579 8.75 4.5H10.25C10.25 3.25736 9.24264 2.25 8 2.25V3.75ZM7.25 4.5C7.25 4.08579 7.58579 3.75 8 3.75V2.25C6.75736 2.25 5.75 3.25736 5.75 4.5H7.25ZM9.5 8.75H10.5V7.25H9.5V8.75ZM11.75 10V11H13.25V10H11.75ZM10.5 8.75C11.1904 8.75 11.75 9.30964 11.75 10H13.25C13.25 8.48122 12.0188 7.25 10.5 7.25V8.75ZM13.25 10V9H11.75V10H13.25ZM12.5 9.75H13.5V8.25H12.5V9.75ZM14.75 11V12H16.25V11H14.75ZM13.5 9.75C14.1904 9.75 14.75 10.3096 14.75 11H16.25C16.25 9.48122 15.0188 8.25 13.5 8.25V9.75ZM16.25 11V10H14.75V11H16.25ZM15.3767 10.7398L16.7055 10.9613L16.9521 9.48167L15.6233 9.2602L15.3767 10.7398ZM17.75 12.1943V13H19.25V12.1943H17.75ZM16.7055 10.9613C17.3082 11.0617 17.75 11.5832 17.75 12.1943H19.25C19.25 10.8499 18.2781 9.70267 16.9521 9.48167L16.7055 10.9613ZM8.75 8V11H10.25V8H8.75Z" fill="#141B34"/>
<path d="M21 4.5L15 4.5M21 4.5C21 3.79977 19.0057 2.49153 18.5 2M21 4.5C21 5.20023 19.0057 6.50847 18.5 7" stroke="#141B34" stroke-width="1.5" stroke-linecap="round" stroke-linejoin="round"/>
</svg>
