<svg width="24" height="24" viewBox="0 0 24 24" fill="none" xmlns="http://www.w3.org/2000/svg">
<path d="M13.4559 12.1C13.4559 12.5143 13.7917 12.85 14.2059 12.85C14.6201 12.85 14.9559 12.5143 14.9559 12.1H13.4559ZM13.5876 9.83155L13.0945 10.3967L13.0945 10.3967L13.5876 9.83155ZM16.1029 13C16.1029 13.4142 16.4387 13.75 16.8529 13.75C17.2672 13.75 17.6029 13.4142 17.6029 13H16.1029ZM17.7233 11.348L17.5976 12.0874L17.5976 12.0874L17.7233 11.348ZM18.0254 11.3994L18.1511 10.66L18.0254 11.3994ZM19.5 13.1749L20.25 13.1751V13.1749H19.5ZM8.1614 14.3162C8.1614 14.7304 8.49718 15.0662 8.9114 15.0662C9.32561 15.0662 9.6614 14.7304 9.6614 14.3162H8.1614ZM11.5585 5.82351L12.3085 5.82349V5.82349L11.5585 5.82351ZM10.8086 11.2001C10.8087 11.6143 11.1444 11.9501 11.5587 11.95C11.9729 11.95 12.3087 11.6142 12.3086 11.2L10.8086 11.2001ZM19.4996 14.5002L18.7496 14.5V14.5002H19.4996ZM19.2075 18.2128L19.9097 18.4762H19.9097L19.2075 18.2128ZM18.2336 19.6567L18.8026 20.1453H18.8026L18.2336 19.6567ZM16.9849 22.0001C16.9849 22.4143 17.3207 22.7501 17.7349 22.7501C18.1491 22.7501 18.4849 22.4143 18.4849 22.0001H16.9849ZM8.02941 18.4L7.45802 18.8858C7.4695 18.8993 7.48145 18.9124 7.49386 18.925L8.02941 18.4ZM8.60294 22C8.60294 22.4142 8.93873 22.75 9.35294 22.75C9.76715 22.75 10.1029 22.4142 10.1029 22H8.60294ZM11.0233 9.775C10.7333 10.0708 10.738 10.5456 11.0338 10.8356C11.3295 11.1256 11.8044 11.1209 12.0944 10.8251L11.0233 9.775ZM8.38254 14.8815C8.67605 15.1737 9.15092 15.1727 9.4432 14.8792C9.73548 14.5857 9.73449 14.1109 9.44099 13.8186L8.38254 14.8815ZM7.03085 12.4769L7.56007 11.9455C7.54867 11.9341 7.5369 11.9232 7.52479 11.9126L7.03085 12.4769ZM4.84324 14.6526L4.25638 15.1196C4.26143 15.1259 4.26659 15.1322 4.27185 15.1384L4.84324 14.6526ZM4.83595 12.6876L4.24558 12.225L4.24558 12.225L4.83595 12.6876ZM13.4559 11.2V12.1H14.9559V11.2H13.4559ZM13.0945 10.3967C13.3145 10.5886 13.4559 10.8752 13.4559 11.2H14.9559C14.9559 10.4294 14.6175 9.73478 14.0806 9.26638L13.0945 10.3967ZM16.1029 12.1V13H17.6029V12.1H16.1029ZM15.0882 11.0501C15.6347 11.0501 16.1029 11.5061 16.1029 12.1H17.6029C17.6029 10.7058 16.491 9.55006 15.0882 9.55006V11.0501ZM17.5976 12.0874L17.8997 12.1388L18.1511 10.66L17.849 10.6086L17.5976 12.0874ZM17.8997 12.1388C18.3797 12.2203 18.75 12.65 18.75 13.1749H20.25C20.25 11.9399 19.373 10.8677 18.1511 10.66L17.8997 12.1388ZM9.6614 14.3162V5.82355H8.1614V14.3162H9.6614ZM10.8085 5.82353L10.8086 11.2001L12.3086 11.2L12.3085 5.82349L10.8085 5.82353ZM18.7496 14.5002C18.7496 15.4875 18.7493 16.1938 18.7146 16.7514C18.6802 17.3031 18.6143 17.659 18.5053 17.9494L19.9097 18.4762C20.0929 17.988 20.173 17.4655 20.2117 16.8446C20.25 16.2296 20.2496 15.4688 20.2496 14.5002H18.7496ZM18.5053 17.9494C18.3886 18.2605 18.0285 18.7444 17.6646 19.1681L18.8026 20.1453C19.1536 19.7366 19.6876 19.0684 19.9097 18.4762L18.5053 17.9494ZM16.9849 20.952V22.0001H18.4849V20.952H16.9849ZM17.6646 19.1681C17.2526 19.6479 16.9849 20.2739 16.9849 20.952H18.4849C18.4849 20.6729 18.5963 20.3856 18.8026 20.1453L17.6646 19.1681ZM7.49386 18.925C7.8254 19.2632 8.10948 19.7943 8.31054 20.3976C8.50991 20.9957 8.60294 21.5903 8.60294 22H10.1029C10.1029 21.4041 9.97539 20.6487 9.73358 19.9232C9.49346 19.2028 9.11578 18.4368 8.56496 17.8749L7.49386 18.925ZM20.2496 14.5004L20.25 13.1751L18.75 13.1747L18.7496 14.5L20.2496 14.5004ZM17.6029 12.1C17.6029 12.0963 17.6033 12.0941 17.6036 12.0928C17.6039 12.0916 17.6042 12.0906 17.6046 12.0899C17.6054 12.0882 17.6065 12.0868 17.6076 12.0858C17.6087 12.0848 17.6083 12.0856 17.6053 12.0865C17.6038 12.087 17.602 12.0873 17.6001 12.0874C17.5982 12.0875 17.5972 12.0873 17.5976 12.0874L17.849 10.6086C16.9182 10.4504 16.1029 11.1822 16.1029 12.1H17.6029ZM14.9559 11.2C14.9559 11.1031 15.0291 11.0501 15.0882 11.0501V9.55006C14.1728 9.55006 13.4559 10.3028 13.4559 11.2H14.9559ZM12.0944 10.8251C12.3196 10.5954 12.5721 10.4314 12.7785 10.3677C12.9619 10.3111 13.0368 10.3464 13.0945 10.3967L14.0806 9.26638C13.5311 8.78705 12.8741 8.76841 12.3362 8.93443C11.8213 9.09333 11.363 9.42847 11.0233 9.775L12.0944 10.8251ZM9.44099 13.8186L7.56007 11.9455L6.50163 13.0084L8.38254 14.8815L9.44099 13.8186ZM4.27185 15.1384L7.45802 18.8858L8.6008 17.9142L5.41463 14.1668L4.27185 15.1384ZM4.24558 12.225C3.58083 13.0734 3.58522 14.2761 4.25638 15.1196L5.43011 14.1856C5.19144 13.8856 5.18976 13.4521 5.42632 13.1501L4.24558 12.225ZM7.52479 11.9126C6.54048 11.0511 5.05074 11.1974 4.24558 12.225L5.42632 13.1501C5.70448 12.7951 6.20456 12.7505 6.53692 13.0413L7.52479 11.9126ZM12.3085 5.82349C12.3085 4.67832 11.3801 3.75 10.2349 3.75V5.25C10.5517 5.25 10.8085 5.50678 10.8085 5.82353L12.3085 5.82349ZM9.6614 5.82355C9.6614 5.50679 9.91818 5.25 10.2349 5.25V3.75C9.08976 3.75 8.1614 4.67836 8.1614 5.82355H9.6614Z" fill="#141B34"/>
<path d="M14 6C14 3.79086 12.2091 2 10 2C7.79086 2 6 3.79086 6 6" stroke="#141B34" stroke-width="1.5" stroke-linecap="round" stroke-linejoin="round"/>
</svg>
