<svg width="24" height="24" viewBox="0 0 24 24" fill="none" xmlns="http://www.w3.org/2000/svg">
<path d="M17.4381 13.4675L16.8991 13.989L17.4381 13.4675ZM17.1711 18.3358L17.8509 18.6527V18.6527L17.1711 18.3358ZM15.5053 22C15.5053 22.4142 15.8411 22.75 16.2553 22.75C16.6695 22.75 17.0053 22.4142 17.0053 22H15.5053ZM8.14646 15.2C8.14646 15.6142 8.48225 15.95 8.89646 15.95C9.31068 15.95 9.64646 15.6142 9.64646 15.2H8.14646ZM11.793 11.375H11.043C11.043 11.5799 11.1268 11.7758 11.275 11.9173C11.4231 12.0588 11.6226 12.1336 11.8273 12.1242L11.793 11.375ZM8.14658 22C8.14658 22.4142 8.48237 22.75 8.89658 22.75C9.31079 22.75 9.64658 22.4142 9.64658 22H8.14658ZM6.97207 17.8277L6.32645 18.2094H6.32645L6.97207 17.8277ZM6.10235 14.8673L6.81281 15.1076H6.81281L6.10235 14.8673ZM9.35588 12.3929C9.68333 12.1393 9.74316 11.6682 9.48949 11.3407C9.23583 11.0132 8.76474 10.9534 8.43728 11.2071L9.35588 12.3929ZM16.8991 13.989C17.2062 14.3064 17.3264 14.9 17.2016 15.7565C17.0823 16.5749 16.766 17.4299 16.4914 18.0189L17.8509 18.6527C18.1615 17.9866 18.5382 16.9857 18.6859 15.9729C18.828 14.9983 18.7891 13.7853 17.9771 12.946L16.8991 13.989ZM16.4914 18.0189C16.4238 18.1639 16.3383 18.3223 16.2358 18.5106C16.1372 18.6917 16.0238 18.8987 15.9202 19.1115C15.7186 19.5257 15.5053 20.055 15.5053 20.6247H17.0053C17.0053 20.4075 17.0917 20.132 17.2688 19.7681C17.3546 19.592 17.4504 19.4167 17.5532 19.2279C17.652 19.0463 17.7602 18.8472 17.8509 18.6527L16.4914 18.0189ZM15.5053 20.6247V22H17.0053V20.6247H15.5053ZM8.14646 6.4875V15.2H9.64646V6.4875H8.14646ZM11.043 6.4875V11.375H12.543V6.4875H11.043ZM11.8273 12.1242C13.1312 12.0647 15.3448 12.3825 16.8991 13.989L17.9771 12.946C16.0033 10.9058 13.2824 10.5562 11.7588 10.6258L11.8273 12.1242ZM9.64646 6.4875C9.64646 6.06118 9.97786 5.75 10.3448 5.75V4.25C9.11191 4.25 8.14646 5.27078 8.14646 6.4875H9.64646ZM10.3448 5.75C10.7116 5.75 11.043 6.06118 11.043 6.4875H12.543C12.543 5.27078 11.5776 4.25 10.3448 4.25V5.75ZM8.14658 21.1542V22H9.64658V21.1542H8.14658ZM6.32645 18.2094C6.45192 18.4216 6.64825 18.6919 6.84093 18.9555C7.04385 19.2331 7.26272 19.5297 7.46889 19.8322C7.67597 20.1361 7.85561 20.425 7.98129 20.6795C8.11635 20.953 8.14658 21.1038 8.14658 21.1542H9.64658C9.64658 20.7484 9.4877 20.3423 9.32622 20.0153C9.15537 19.6693 8.93106 19.3142 8.70845 18.9875C8.48494 18.6595 8.24841 18.3391 8.05189 18.0703C7.84515 17.7874 7.69801 17.5819 7.61768 17.446L6.32645 18.2094ZM6.81281 15.1076C6.87268 14.9306 7.03072 14.6696 7.29468 14.346C7.54863 14.0347 7.86038 13.7137 8.17095 13.4189C8.47985 13.1257 8.77789 12.8677 8.99924 12.6826C9.10961 12.5904 9.20016 12.5168 9.26251 12.4669C9.29367 12.4419 9.31773 12.4229 9.33366 12.4103C9.34162 12.4041 9.34754 12.3994 9.35129 12.3965C9.35316 12.395 9.35449 12.394 9.35526 12.3934C9.35565 12.3931 9.35589 12.3929 9.356 12.3928C9.35605 12.3928 9.35606 12.3928 9.35604 12.3928C9.35603 12.3928 9.35599 12.3928 9.35599 12.3928C9.35594 12.3929 9.35588 12.3929 8.89658 11.8C8.43728 11.2071 8.43721 11.2071 8.43712 11.2072C8.43708 11.2072 8.43698 11.2073 8.4369 11.2074C8.43673 11.2075 8.43653 11.2077 8.4363 11.2079C8.43582 11.2082 8.43521 11.2087 8.43445 11.2093C8.43292 11.2105 8.43083 11.2121 8.42819 11.2142C8.42291 11.2183 8.41541 11.2242 8.40583 11.2317C8.38669 11.2468 8.35921 11.2685 8.32447 11.2964C8.25502 11.352 8.15637 11.4321 8.03711 11.5318C7.79919 11.7308 7.47626 12.0102 7.13834 12.3309C6.80207 12.6501 6.44112 13.0194 6.13237 13.3979C5.83362 13.7641 5.53893 14.1923 5.3919 14.627L6.81281 15.1076ZM7.61768 17.446C7.32352 16.9484 7.06458 16.5613 6.89564 16.1401C6.73934 15.7504 6.70448 15.4279 6.81281 15.1076L5.3919 14.627C5.13133 15.3973 5.26555 16.1054 5.50345 16.6985C5.7287 17.2601 6.08907 17.8079 6.32645 18.2094L7.61768 17.446Z" fill="#141B34"/>
<path d="M5.75 6C5.75 6.41421 6.08579 6.75 6.5 6.75C6.91421 6.75 7.25 6.41421 7.25 6H5.75ZM13.75 6C13.75 6.41421 14.0858 6.75 14.5 6.75C14.9142 6.75 15.25 6.41421 15.25 6H13.75ZM7.25 6C7.25 4.20507 8.70507 2.75 10.5 2.75V1.25C7.87665 1.25 5.75 3.37665 5.75 6H7.25ZM10.5 2.75C12.2949 2.75 13.75 4.20507 13.75 6H15.25C15.25 3.37665 13.1234 1.25 10.5 1.25V2.75Z" fill="#141B34"/>
</svg>
