<svg width="24" height="24" viewBox="0 0 24 24" fill="none" xmlns="http://www.w3.org/2000/svg">
<path d="M19.3635 12.9656L18.8424 13.505H18.8424L19.3635 12.9656ZM19.0611 18.1203L19.7322 18.4551L19.7322 18.4551L19.0611 18.1203ZM9.61538 14.4152L9.12865 14.9858C9.35124 15.1757 9.66393 15.2188 9.92959 15.0963C10.1952 14.9737 10.3654 14.7078 10.3654 14.4152H9.61538ZM7.60945 12.7041L8.09618 12.1335L8.09479 12.1323L7.60945 12.7041ZM5.3539 14.8798L5.94286 14.4154C5.93985 14.4116 5.9368 14.4078 5.93372 14.404L5.3539 14.8798ZM8.42997 18.7813L9.01893 18.3169V18.3169L8.42997 18.7813ZM5.34639 12.9148L4.76297 12.4435L4.76297 12.4435L5.34639 12.9148ZM17.2736 22C17.2736 22.4142 17.6094 22.75 18.0236 22.75C18.4378 22.75 18.7736 22.4142 18.7736 22H17.2736ZM8.79857 22C8.79857 22.4142 9.13435 22.75 9.54857 22.75C9.96278 22.75 10.2986 22.4142 10.2986 22H8.79857ZM9.41809 20.304L10.1315 20.0727L10.1315 20.0727L9.41809 20.304ZM9.38112 20.1976L10.0842 19.9366L10.0842 19.9366L9.38112 20.1976ZM13.0769 10.7271H12.3269C12.3269 10.9316 12.4104 11.1272 12.558 11.2686C12.7057 11.4101 12.9046 11.4851 13.1089 11.4764L13.0769 10.7271ZM18.8424 13.505C19.205 13.8553 19.3355 14.4885 19.1952 15.3883C19.0601 16.2544 18.7018 17.1603 18.3899 17.7855L19.7322 18.4551C20.0833 17.7513 20.51 16.6922 20.6773 15.6194C20.8394 14.5803 20.7897 13.3006 19.8846 12.4262L18.8424 13.505ZM18.3899 17.7855C18.3129 17.9399 18.2157 18.1083 18.0996 18.3076C17.9878 18.4994 17.8597 18.718 17.7427 18.9428C17.5156 19.3788 17.2736 19.939 17.2736 20.5438H18.7736C18.7736 20.3155 18.8711 20.0234 19.073 19.6357C19.1705 19.4486 19.2793 19.2624 19.3957 19.0626C19.5078 18.8703 19.6299 18.6601 19.7322 18.4551L18.3899 17.7855ZM10.1021 13.8446L8.09618 12.1335L7.12271 13.2747L9.12865 14.9858L10.1021 13.8446ZM4.76494 15.3441L7.84101 19.2456L9.01893 18.3169L5.94286 14.4154L4.76494 15.3441ZM4.76297 12.4435C4.07484 13.2953 4.07952 14.5089 4.77408 15.3555L5.93372 14.404C5.69021 14.1073 5.68863 13.6846 5.9298 13.3861L4.76297 12.4435ZM8.09479 12.1323C7.0958 11.2844 5.58707 11.4234 4.76297 12.4435L5.9298 13.3861C6.22266 13.0236 6.76554 12.9716 7.1241 13.2759L8.09479 12.1323ZM17.2736 20.5438V22H18.7736V20.5438H17.2736ZM10.2986 22C10.2986 21.1848 10.307 20.614 10.1315 20.0727L8.70464 20.5352C8.79014 20.799 8.79857 21.0905 8.79857 22H10.2986ZM7.84101 19.2456C8.40614 19.9624 8.58129 20.1981 8.67801 20.4586L10.0842 19.9366C9.88636 19.4036 9.52558 18.9595 9.01893 18.3169L7.84101 19.2456ZM10.1315 20.0727C10.1167 20.027 10.101 19.9816 10.0842 19.9366L8.678 20.4586C8.68742 20.484 8.6963 20.5095 8.70464 20.5352L10.1315 20.0727ZM8.86538 6.73077V14.4152H10.3654V6.73077H8.86538ZM12.3269 6.73077V10.7271H13.8269V6.73077H12.3269ZM13.1089 11.4764C14.599 11.4128 17.0481 11.7715 18.8424 13.505L19.8846 12.4262C17.6822 10.2985 14.7578 9.90466 13.0449 9.97778L13.1089 11.4764ZM10.3654 6.73077C10.3654 6.18911 10.8045 5.75 11.3462 5.75V4.25C9.97606 4.25 8.86538 5.36068 8.86538 6.73077H10.3654ZM11.3462 5.75C11.8878 5.75 12.3269 6.18911 12.3269 6.73077H13.8269C13.8269 5.36068 12.7162 4.25 11.3462 4.25V5.75Z" fill="#141B34"/>
<path d="M7 8H6.17647C4.67907 8 3.93037 8 3.46518 7.56066C3 7.12132 3 6.41421 3 5C3 3.58579 3 2.87868 3.46518 2.43934C3.93037 2 4.67907 2 6.17647 2H17.8235C19.3209 2 20.0696 2 20.5348 2.43934C21 2.87868 21 3.58579 21 5C21 6.41421 21 7.12132 20.5348 7.56066C20.0696 8 19.3209 8 17.8235 8H16.5" stroke="#141B34" stroke-width="1.5" stroke-linecap="round" stroke-linejoin="round"/>
</svg>
