<svg width="24" height="24" viewBox="0 0 24 24" fill="none" xmlns="http://www.w3.org/2000/svg">
<path fill-rule="evenodd" clip-rule="evenodd" d="M23 11.876C23 12.4283 22.5523 12.876 22 12.876L2 12.876C1.44772 12.876 1 12.4283 1 11.876C1 11.3237 1.44772 10.876 2 10.876L22 10.876C22.5523 10.876 23 11.3237 23 11.876Z" fill="#141B34"/>
<path opacity="0.4" d="M3.72368 12.624C4.26144 12.624 4.69737 12.1935 4.69737 11.6625C4.69735 11.3955 4.69754 10.7337 4.97816 10.2615C5.15109 9.9705 5.37251 9.7274 5.59996 9.60357C5.96647 9.40405 6.38666 9.29069 6.83333 9.29069C6.98046 9.29069 7.13864 9.29716 7.31624 9.3054L7.38206 9.30848C7.53697 9.31576 7.70556 9.32368 7.8737 9.32718C8.25379 9.33507 8.69733 9.32307 9.12548 9.20834C9.95945 8.98488 10.6109 8.33347 10.8343 7.4995C10.949 7.07135 10.961 6.62782 10.9532 6.24772C10.9497 6.07966 10.9417 5.91098 10.9345 5.75612L10.9345 5.75608L10.9314 5.69026C10.9231 5.51267 10.9167 5.35449 10.9167 5.20736C10.9167 4.73967 11.0409 4.301 11.2583 3.92259C11.385 3.702 11.6057 3.50012 11.9105 3.3228C12.3726 3.05389 12.926 3.0514 13.2642 3.04988C13.6023 3.04835 13.9591 3.04718 14.2572 3.04718C16.0914 3.04718 16.7582 3.06094 17.2614 3.23561C18.1337 3.53843 18.7997 4.17061 19.11 4.94506C19.1878 5.13913 19.2427 5.39404 19.2721 5.83555C19.3021 6.28562 19.3026 6.86009 19.3026 7.68796V11.6625C19.3026 12.1935 19.7386 12.624 20.2763 12.624C20.8141 12.624 21.25 12.1935 21.25 11.6625V7.65523C21.25 6.86776 21.25 6.22988 21.2153 5.70916C21.1795 5.17269 21.1039 4.69445 20.9208 4.23743C20.3922 2.91845 19.2841 1.89936 17.9072 1.42138C17.0482 1.12318 16.0155 1.12353 14.4607 1.12407L13.5134 1.12414L13.5 1.12402L13.4649 1.12417C10.9565 1.12587 9.40174 1.15571 8.1118 1.60351C5.8915 2.37429 4.11806 4.01262 3.27491 6.11663C2.99393 6.81781 2.86942 7.57098 2.80918 8.47419L2.75 11.6625C2.75 12.1935 3.18593 12.624 3.72368 12.624Z" fill="#141B34"/>
<path fill-rule="evenodd" clip-rule="evenodd" d="M6 13.876C6.55228 13.876 7 14.3237 7 14.876V16.876C7 17.4283 6.55228 17.876 6 17.876C5.44772 17.876 5 17.4283 5 16.876V14.876C5 14.3237 5.44772 13.876 6 13.876ZM10 13.876C10.5523 13.876 11 14.3237 11 14.876V21.876C11 22.4283 10.5523 22.876 10 22.876C9.44772 22.876 9 22.4283 9 21.876V14.876C9 14.3237 9.44772 13.876 10 13.876ZM14 13.876C14.5523 13.876 15 14.3237 15 14.876V17.876C15 18.4283 14.5523 18.876 14 18.876C13.4477 18.876 13 18.4283 13 17.876V14.876C13 14.3237 13.4477 13.876 14 13.876ZM18 13.876C18.5523 13.876 19 14.3237 19 14.876V19.876C19 20.4283 18.5523 20.876 18 20.876C17.4477 20.876 17 20.4283 17 19.876V14.876C17 14.3237 17.4477 13.876 18 13.876Z" fill="#141B34"/>
</svg>
