<svg width="24" height="24" viewBox="0 0 24 24" fill="none" xmlns="http://www.w3.org/2000/svg">
<path opacity="0.4" d="M7.13744 20.7033C8.00689 20.7942 9.13801 20.7955 10.7466 20.7955H14.9069C15.4447 20.7955 15.8806 21.233 15.8806 21.7727C15.8806 22.3125 15.4447 22.75 14.9069 22.75H10.6917C9.15062 22.75 7.91782 22.75 6.93556 22.6473C5.92614 22.5417 5.06492 22.3186 4.32016 21.7919C3.92979 21.5159 3.58125 21.1871 3.28607 20.8146C2.71624 20.0956 2.47298 19.2577 2.35887 18.2843C2.24899 17.3469 2.249 16.1743 2.24902 14.7262V12.1428V12.1427C2.24902 10.7244 2.24902 9.61179 2.30821 8.71107C2.36846 7.79422 2.493 7.02952 2.77411 6.31755C3.61751 4.1815 5.39124 2.51875 7.61123 1.73658C8.99367 1.2495 10.6803 1.24971 13.5199 1.25007L13.7562 1.25009L13.9596 1.25004L13.9596 1.25004C15.5146 1.2495 16.547 1.24914 17.4058 1.55172C18.7824 2.03673 19.8908 3.071 20.4196 4.41031C20.6029 4.87447 20.6785 5.36014 20.7143 5.90477C20.749 6.43335 20.749 7.08083 20.749 7.87999V7.88006V10.0455C20.749 10.5852 20.3131 11.0228 19.7753 11.0228C19.2376 11.0228 18.8017 10.5852 18.8017 10.0455V7.91329C18.8017 7.07303 18.8012 6.49008 18.7712 6.03341C18.7417 5.58546 18.6869 5.32704 18.6092 5.1304C18.2991 4.34503 17.6334 3.70339 16.7608 3.39593C16.2574 3.21858 15.5903 3.20463 13.7562 3.20463C13.4581 3.20463 13.1013 3.2058 12.7632 3.20732C12.425 3.20885 11.8716 3.21134 11.4095 3.48025C11.1047 3.65756 10.884 3.85945 10.7573 4.08004C10.5399 4.45845 10.4156 4.89711 10.4156 5.3648C10.4156 5.51193 10.4252 5.70446 10.4334 5.88206L10.4334 5.88212C10.4407 6.03696 10.4486 6.20566 10.4521 6.3737C10.46 6.75379 10.448 7.19733 10.3333 7.62548C10.1098 8.45945 9.45843 9.11086 8.62445 9.33432C8.19631 9.44904 7.75277 9.46105 7.37267 9.45315C7.20453 9.44966 7.03595 9.44174 6.88103 9.43446C6.70343 9.42622 6.47944 9.41667 6.33231 9.41667C5.88564 9.41667 5.46545 9.53003 5.09893 9.72955C4.87148 9.85337 4.65007 10.0965 4.47714 10.3875C4.19652 10.8596 4.19634 11.4982 4.19636 11.7652L4.19639 14.6653C4.19639 16.1888 4.19797 17.2461 4.2929 18.0559C4.38513 18.8427 4.55457 19.2754 4.81013 19.5979C4.98793 19.8223 5.20031 20.0234 5.44176 20.1941C5.79959 20.4472 6.28351 20.6139 7.13744 20.7033Z" fill="#141B34"/>
<path d="M10.6986 13.0005C10.6986 12.5863 10.3628 12.2505 9.94861 12.2505C9.53439 12.2505 9.19861 12.5863 9.19861 13.0005V16.3841C9.19861 16.7799 9.07453 16.983 8.9683 17.0852C8.85478 17.1944 8.69147 17.2562 8.50304 17.2492C8.13391 17.2356 7.75195 16.9678 7.75195 16.3841C7.75195 15.9699 7.41617 15.6341 7.00195 15.6341C6.58774 15.6341 6.25195 15.9699 6.25195 16.3841C6.25195 17.8441 7.34333 18.7073 8.44752 18.7482C8.99575 18.7685 9.5691 18.5885 10.0081 18.1663C10.4544 17.7371 10.6986 17.1193 10.6986 16.3841V13.0005Z" fill="#141B34"/>
<path fill-rule="evenodd" clip-rule="evenodd" d="M13.4845 12.2505H14.1581C15.2624 12.2505 16.1709 13.1385 16.1709 14.2503C16.1709 15.3621 15.2624 16.2501 14.1581 16.2501H13.2243V17.9998C13.2243 18.414 12.8885 18.7498 12.4743 18.7498C12.06 18.7498 11.7243 18.414 11.7243 17.9998L11.7243 13.9657C11.7242 13.7608 11.7241 13.5386 11.7496 13.3508C11.7796 13.1301 11.8567 12.8493 12.0946 12.6138C12.3315 12.3794 12.612 12.3045 12.8313 12.2754C13.0194 12.2503 13.277 12.2504 13.4845 12.2505ZM14.1579 14.7502H13.2241L13.2252 13.7518L14.1579 13.7505C14.4485 13.7505 14.6707 13.9816 14.6707 14.2504C14.6707 14.5191 14.4485 14.7502 14.1579 14.7502Z" fill="#141B34"/>
<path d="M18.3003 13.8568C18.2775 14.0195 18.2758 14.252 18.2758 14.6669V16.3333C18.2758 16.7482 18.2775 16.9807 18.3003 17.1434C18.3096 17.1679 18.3438 17.2187 18.4062 17.2254C18.5837 17.2482 18.8339 17.2497 19.2639 17.2497C19.6939 17.2497 19.9441 17.2482 20.1216 17.2254C20.1943 17.2178 20.2225 17.1676 20.2275 17.1434C20.2437 17.0276 20.2493 16.8764 20.2511 16.6494C20.1468 16.6414 20.0094 16.6326 19.7952 16.6604C19.3846 16.7137 19.0081 16.4241 18.9547 16.0135C18.9012 15.6027 19.1909 15.2264 19.6016 15.173C19.9179 15.1107 20.1936 15.1369 20.4052 15.157L20.4209 15.1585C20.6194 15.1773 20.902 15.2233 21.157 15.3622C21.4452 15.5191 21.752 15.8359 21.752 16.3333C21.7521 16.6883 21.7521 17.072 21.7129 17.3517C21.6686 17.6677 21.5618 18.0139 21.2665 18.297C20.9756 18.5759 20.6276 18.6725 20.3134 18.7131C20.0282 18.7498 19.6792 18.7498 19.3056 18.7497H19.2222C18.8486 18.7498 18.4996 18.7498 18.2144 18.7131C17.9002 18.6725 17.5521 18.5759 17.2613 18.297C16.9659 18.0139 16.8592 17.6677 16.8149 17.3517C16.7756 17.072 16.7757 16.7318 16.7758 16.3767V14.6234C16.7757 14.2684 16.7756 13.9281 16.8149 13.6485C16.8592 13.3325 16.9659 12.9862 17.2613 12.7031C17.5521 12.4242 17.9002 12.3276 18.2144 12.2871C18.4996 12.2503 19.0112 12.2498 19.3848 12.2498C19.7116 12.2473 20.1897 12.2436 20.5927 12.3653C20.8456 12.4416 21.1223 12.5792 21.3453 12.8334C21.5719 13.0919 21.6905 13.4109 21.726 13.7571C21.7683 14.1692 21.4685 14.5375 21.0565 14.5797C20.6444 14.622 20.2761 14.3222 20.2339 13.9102C20.207 13.6485 18.6705 13.7513 18.4062 13.7748C18.4062 13.7748 18.3082 13.786 18.3003 13.8568Z" fill="#141B34"/>
</svg>
