<svg width="24" height="24" viewBox="0 0 24 24" fill="none" xmlns="http://www.w3.org/2000/svg">
<path fill-rule="evenodd" clip-rule="evenodd" d="M7.97526 12.25C7.98679 12.25 7.99827 12.25 8.0097 12.25H8.68152C9.78594 12.25 10.6912 13.14 10.6912 14.25C10.6912 15.36 9.78594 16.2499 8.68152 16.2499H7.75197V17.9998C7.75197 18.414 7.41619 18.7498 7.00197 18.7498C6.58776 18.7498 6.25197 18.414 6.25197 17.9998V14C6.25197 13.9885 6.25197 13.977 6.25196 13.9654C6.25188 13.7604 6.25179 13.5383 6.27721 13.3507C6.30707 13.1303 6.38389 12.8496 6.62128 12.6141C6.85786 12.3793 7.13832 12.3042 7.35764 12.2749C7.54552 12.2498 7.76829 12.2499 7.97526 12.25ZM7.75197 14.7499H8.68152C8.96848 14.7499 9.19117 14.5206 9.19117 14.25C9.19117 13.9793 8.96848 13.75 8.68152 13.75H8.0097C7.90722 13.75 7.82454 13.7501 7.75313 13.7513C7.75201 13.8206 7.75197 13.9009 7.75197 14V14.7499Z" fill="#141B34"/>
<path fill-rule="evenodd" clip-rule="evenodd" d="M15.5082 12.25C15.9225 12.25 16.2582 12.5858 16.2582 13V16.5182C16.2582 16.5324 16.2582 16.5466 16.2582 16.5607C16.2583 16.9284 16.2583 17.2666 16.2305 17.5187C16.2161 17.6486 16.1886 17.8201 16.1166 17.9842C16.0384 18.1625 15.876 18.3979 15.5681 18.5047C15.2453 18.6166 14.9564 18.521 14.7686 18.3986C14.6076 18.2937 14.4906 18.1532 14.4145 18.0525C14.2655 17.8555 14.0994 17.5699 13.9234 17.2673C13.9158 17.2543 13.9082 17.2413 13.9006 17.2282L12.7671 15.2802V17.9998C12.7671 18.414 12.4313 18.7498 12.0171 18.7498C11.6029 18.7498 11.2671 18.414 11.2671 17.9998V14.4816C11.2671 14.4674 11.2671 14.4532 11.2671 14.4391C11.2671 14.0714 11.267 13.7332 11.2949 13.4811C11.3092 13.3512 11.3367 13.1797 11.4087 13.0156C11.4869 12.8373 11.6493 12.6019 11.9573 12.4951C12.28 12.3832 12.5689 12.4787 12.7568 12.6012C12.9177 12.7061 13.0347 12.8466 13.1108 12.9473C13.2598 13.1443 13.426 13.4299 13.602 13.7324C13.6095 13.7455 13.6171 13.7585 13.6247 13.7716L14.7582 15.7196V13C14.7582 12.5858 15.094 12.25 15.5082 12.25Z" fill="#141B34"/>
<path d="M19.3461 13.7502C18.9344 13.7502 18.7017 13.7519 18.5382 13.774C18.5164 13.7717 18.4712 13.784 18.4639 13.8518C18.4418 14.0175 18.4402 14.253 18.4402 14.6668V16.3334C18.4402 16.7473 18.4418 16.9828 18.4639 17.1485C18.4663 17.1719 18.4844 17.2202 18.5382 17.2263C18.7017 17.2484 18.9344 17.25 19.3461 17.25C19.7577 17.25 19.9905 17.2484 20.154 17.2263C20.2094 17.2201 20.2266 17.1718 20.2282 17.1485C20.2441 17.0301 20.2494 16.8762 20.2511 16.6472C20.1672 16.6421 19.9511 16.6547 19.8682 16.6595L19.8616 16.6599C19.4513 16.7158 19.073 16.4286 19.017 16.0183C18.9609 15.6079 19.2481 15.2298 19.6585 15.1737L19.6601 15.1735C19.8902 15.1211 20.2469 15.1382 20.4552 15.1589C20.6486 15.1781 20.9278 15.2256 21.1801 15.3698C21.4697 15.5354 21.752 15.8547 21.752 16.3334C21.752 16.6898 21.7521 17.0699 21.715 17.3471C21.6737 17.6563 21.5745 17.9998 21.2915 18.2846C21.0079 18.5701 20.6646 18.6709 20.3551 18.7128C20.0787 18.7502 19.742 18.7501 19.3885 18.75C19.0349 18.7501 18.6134 18.7502 18.337 18.7128C18.0275 18.6709 17.6843 18.5701 17.4007 18.2846C17.1177 17.9998 17.0184 17.6563 16.9771 17.3471C16.9401 17.0699 16.9401 16.7319 16.9402 16.3756L16.9402 14.6247C16.9401 14.2684 16.9401 13.9304 16.9771 13.6532C17.0184 13.344 17.1177 13.0005 17.4007 12.7157C17.6843 12.4302 18.0275 12.3294 18.337 12.2875C18.6134 12.2501 19.0905 12.2498 19.444 12.2499C19.7714 12.2482 20.2497 12.2458 20.6529 12.3786C20.9017 12.4606 21.1669 12.605 21.3769 12.8609C21.5879 13.118 21.695 13.4288 21.7274 13.7606C21.7677 14.1728 21.4661 14.5397 21.0539 14.58C20.6416 14.6203 20.2748 14.3187 20.2345 13.9065C20.226 13.8487 20.197 13.8136 20.1835 13.8033C20.1223 13.7831 20.0243 13.7657 19.87 13.7571C19.7388 13.7497 19.3461 13.7502 19.3461 13.7502Z" fill="#141B34"/>
<path opacity="0.4" d="M7.13841 20.7033C8.00786 20.7942 9.13899 20.7955 10.7476 20.7955H14.9079C15.4456 20.7955 15.8816 21.233 15.8816 21.7727C15.8816 22.3125 15.4456 22.75 14.9079 22.75H10.6927C9.15159 22.75 7.91879 22.75 6.93654 22.6473C5.92712 22.5417 5.0659 22.3186 4.32113 21.7919C3.93077 21.5159 3.58222 21.1871 3.28704 20.8146C2.71721 20.0956 2.47396 19.2577 2.35985 18.2843C2.24996 17.3469 2.24998 16.1743 2.25 14.7262V12.1428V12.1427C2.25 10.7244 2.24999 9.61179 2.30919 8.71107C2.36944 7.79422 2.49398 7.02952 2.77509 6.31755C3.61848 4.1815 5.39221 2.51875 7.61221 1.73658C8.99465 1.2495 10.6813 1.24971 13.5209 1.25007L13.7572 1.25009L13.9605 1.25004L13.9606 1.25004C15.5156 1.2495 16.548 1.24914 17.4068 1.55172C18.7834 2.03673 19.8918 3.071 20.4206 4.41031C20.6039 4.87447 20.6795 5.36014 20.7153 5.90477C20.75 6.43335 20.75 7.08083 20.75 7.87999V7.88006V10.0455C20.75 10.5852 20.3141 11.0228 19.7763 11.0228C19.2386 11.0228 18.8026 10.5852 18.8026 10.0455V7.91329C18.8026 7.07303 18.8021 6.49008 18.7721 6.03341C18.7427 5.58546 18.6879 5.32704 18.6102 5.1304C18.3001 4.34503 17.6344 3.70339 16.7618 3.39593C16.2584 3.21858 15.5913 3.20463 13.7572 3.20463C13.4591 3.20463 13.1023 3.2058 12.7641 3.20732C12.426 3.20885 11.8726 3.21134 11.4104 3.48025C11.1057 3.65756 10.8849 3.85945 10.7582 4.08004C10.5409 4.45845 10.4166 4.89711 10.4166 5.3648C10.4166 5.51193 10.4262 5.70446 10.4344 5.88206L10.4344 5.88212C10.4417 6.03696 10.4496 6.20566 10.4531 6.3737C10.461 6.75379 10.449 7.19733 10.3343 7.62548C10.1108 8.45945 9.4594 9.11086 8.62543 9.33432C8.19728 9.44904 7.75374 9.46105 7.37365 9.45315C7.20551 9.44966 7.03693 9.44174 6.88201 9.43446C6.70441 9.42622 6.48041 9.41667 6.33328 9.41667C5.88661 9.41667 5.46642 9.53003 5.09991 9.72955C4.87246 9.85337 4.65104 10.0965 4.47811 10.3875C4.19749 10.8596 4.19732 11.4982 4.19734 11.7652L4.19737 14.6653C4.19737 16.1888 4.19894 17.2461 4.29387 18.0559C4.38611 18.8427 4.55555 19.2754 4.81111 19.5979C4.9889 19.8223 5.20128 20.0234 5.44274 20.1941C5.80057 20.4472 6.28449 20.6139 7.13841 20.7033Z" fill="#141B34"/>
</svg>
