<svg width="24" height="24" viewBox="0 0 24 24" fill="none" xmlns="http://www.w3.org/2000/svg">
<path fill-rule="evenodd" clip-rule="evenodd" d="M7.57688 12.3808C7.9189 12.1471 8.38558 12.235 8.61923 12.577L9.70786 14.1705L10.7965 12.577C11.0301 12.235 11.4968 12.1471 11.8388 12.3808C12.1809 12.6144 12.2687 13.0811 12.0351 13.4231L10.6162 15.5001L12.0351 17.577C12.2687 17.919 12.1809 18.3857 11.8388 18.6194C11.4968 18.853 11.0301 18.7652 10.7965 18.4231L9.70786 16.8296L8.61923 18.4231C8.38558 18.7652 7.9189 18.853 7.57688 18.6194C7.23486 18.3857 7.14701 17.919 7.38067 17.577L8.79955 15.5001L7.38067 13.4231C7.14701 13.0811 7.23486 12.6144 7.57688 12.3808Z" fill="#141B34"/>
<path fill-rule="evenodd" clip-rule="evenodd" d="M14.6919 12.25C14.6988 12.25 14.7057 12.25 14.7126 12.25H15.6617C16.076 12.25 16.4117 12.5858 16.4117 13C16.4117 13.4142 16.076 13.75 15.6617 13.75H14.7126C14.5125 13.75 14.4008 13.7504 14.3195 13.7561C14.2995 13.7575 14.2855 13.759 14.2764 13.7602C14.275 13.764 14.2734 13.7687 14.2717 13.7747C14.262 13.8078 14.2524 13.8612 14.247 13.9469C14.2416 14.0326 14.2416 14.1232 14.2416 14.2419V14.2581C14.2416 14.3768 14.2416 14.4674 14.247 14.5531C14.2524 14.6388 14.262 14.6922 14.2717 14.7253C14.2734 14.7313 14.275 14.7361 14.2764 14.7398C14.2855 14.741 14.2995 14.7425 14.3195 14.7439C14.4008 14.7496 14.5125 14.75 14.7126 14.75C14.7196 14.75 14.7265 14.75 14.7334 14.75C14.9051 14.75 15.0702 14.75 15.2103 14.7598C15.3631 14.7704 15.5409 14.7953 15.724 14.8729C16.2178 15.0824 16.4787 15.4617 16.5933 15.8537C16.6851 16.1674 16.6842 16.5025 16.6837 16.7086C16.6837 16.723 16.6837 16.7369 16.6837 16.75C16.6837 16.7631 16.6837 16.777 16.6837 16.7914C16.6842 16.9975 16.6851 17.3326 16.5933 17.6463C16.4787 18.0383 16.2178 18.4176 15.724 18.6271C15.5409 18.7047 15.3631 18.7296 15.2103 18.7403C15.0702 18.75 14.9051 18.75 14.7334 18.75L13.6789 18.75C13.2647 18.75 12.9289 18.4142 12.9289 18C12.9289 17.5858 13.2647 17.25 13.6789 17.25H14.7126C14.9128 17.25 15.0244 17.2496 15.1058 17.2439C15.1257 17.2425 15.1397 17.241 15.1489 17.2398C15.1503 17.2361 15.1519 17.2313 15.1536 17.2253C15.1633 17.1922 15.1729 17.1388 15.1783 17.0531C15.1837 16.9674 15.1837 16.8768 15.1837 16.7581V16.7419C15.1837 16.6232 15.1837 16.5326 15.1783 16.4469C15.1729 16.3612 15.1633 16.3078 15.1536 16.2747C15.1519 16.2687 15.1503 16.264 15.1489 16.2602C15.1397 16.259 15.1257 16.2575 15.1058 16.2561C15.0244 16.2504 14.9128 16.25 14.7126 16.25C14.7057 16.25 14.6988 16.25 14.6919 16.25C14.5202 16.25 14.3551 16.25 14.215 16.2403C14.0622 16.2296 13.8844 16.2047 13.7013 16.1271C13.2074 15.9176 12.9466 15.5383 12.832 15.1463C12.7402 14.8326 12.741 14.4975 12.7415 14.2914C12.7416 14.277 12.7416 14.2631 12.7416 14.25C12.7416 14.2369 12.7416 14.223 12.7415 14.2086C12.741 14.0025 12.7402 13.6674 12.832 13.3537C12.9466 12.9617 13.2074 12.5824 13.7013 12.3729C13.8844 12.2953 14.0622 12.2704 14.215 12.2598C14.3551 12.25 14.5202 12.25 14.6919 12.25Z" fill="#141B34"/>
<path fill-rule="evenodd" clip-rule="evenodd" d="M18.4381 12.25C18.8523 12.25 19.1881 12.5858 19.1881 13V16.3333C19.1881 16.7479 19.1898 16.9815 19.2124 17.1454C19.2163 17.1739 19.2203 17.1955 19.2238 17.2116C19.2428 17.2159 19.2696 17.221 19.3066 17.2259C19.479 17.2485 19.7228 17.25 20.146 17.25H21C21.4142 17.25 21.75 17.5858 21.75 18C21.75 18.4142 21.4142 18.75 21 18.75H20.146C20.132 18.75 20.118 18.75 20.1041 18.75C19.7378 18.7501 19.3934 18.7501 19.1114 18.7131C18.799 18.6721 18.4527 18.574 18.1644 18.2927C17.8736 18.0089 17.7696 17.6636 17.7264 17.3501C17.688 17.0713 17.6881 16.7319 17.6881 16.3763C17.6881 16.362 17.6881 16.3477 17.6881 16.3333V13C17.6881 12.5858 18.0239 12.25 18.4381 12.25Z" fill="#141B34"/>
<path opacity="0.4" d="M7.13744 20.7033C8.00689 20.7942 9.13801 20.7955 10.7466 20.7955H14.9069C15.4447 20.7955 15.8806 21.233 15.8806 21.7727C15.8806 22.3125 15.4447 22.75 14.9069 22.75H10.6917C9.15062 22.75 7.91782 22.75 6.93556 22.6473C5.92614 22.5417 5.06492 22.3186 4.32016 21.7919C3.92979 21.5159 3.58125 21.1871 3.28607 20.8146C2.71624 20.0956 2.47298 19.2577 2.35887 18.2843C2.24899 17.3469 2.249 16.1743 2.24902 14.7262V12.1428V12.1427C2.24902 10.7244 2.24902 9.61179 2.30821 8.71107C2.36846 7.79422 2.493 7.02952 2.77411 6.31755C3.61751 4.1815 5.39124 2.51875 7.61123 1.73658C8.99367 1.2495 10.6803 1.24971 13.5199 1.25007L13.7562 1.25009L13.9596 1.25004L13.9596 1.25004C15.5146 1.2495 16.547 1.24914 17.4058 1.55172C18.7824 2.03673 19.8908 3.071 20.4196 4.41031C20.6029 4.87447 20.6785 5.36014 20.7143 5.90477C20.749 6.43335 20.749 7.08083 20.749 7.87999V7.88006V10.0455C20.749 10.5852 20.3131 11.0228 19.7753 11.0228C19.2376 11.0228 18.8017 10.5852 18.8017 10.0455V7.91329C18.8017 7.07303 18.8012 6.49008 18.7712 6.03341C18.7417 5.58546 18.6869 5.32704 18.6092 5.1304C18.2991 4.34503 17.6334 3.70339 16.7608 3.39593C16.2574 3.21858 15.5903 3.20463 13.7562 3.20463C13.4581 3.20463 13.1013 3.2058 12.7632 3.20732C12.425 3.20885 11.8716 3.21134 11.4095 3.48025C11.1047 3.65756 10.884 3.85945 10.7573 4.08004C10.5399 4.45845 10.4156 4.89711 10.4156 5.3648C10.4156 5.51193 10.4252 5.70446 10.4334 5.88206L10.4334 5.88212C10.4407 6.03696 10.4486 6.20566 10.4521 6.3737C10.46 6.75379 10.448 7.19733 10.3333 7.62548C10.1098 8.45945 9.45843 9.11086 8.62445 9.33432C8.19631 9.44904 7.75277 9.46105 7.37267 9.45315C7.20453 9.44966 7.03595 9.44174 6.88103 9.43446C6.70343 9.42622 6.47944 9.41667 6.33231 9.41667C5.88564 9.41667 5.46545 9.53003 5.09893 9.72955C4.87148 9.85337 4.65007 10.0965 4.47714 10.3875C4.19652 10.8596 4.19634 11.4982 4.19636 11.7652L4.19639 14.6653C4.19639 16.1888 4.19797 17.2461 4.2929 18.0559C4.38513 18.8427 4.55457 19.2754 4.81013 19.5979C4.98793 19.8223 5.20031 20.0234 5.44176 20.1941C5.79959 20.4472 6.28351 20.6139 7.13744 20.7033Z" fill="#141B34"/>
</svg>
