<svg width="24" height="24" viewBox="0 0 24 24" fill="none" xmlns="http://www.w3.org/2000/svg">
<path fill-rule="evenodd" clip-rule="evenodd" d="M7.96298 7.26485L15.1701 3.75201C16.8246 2.94561 17.6518 2.54241 18.5741 2.85669C19.4964 3.17097 19.8129 3.84532 20.4461 5.19404C22.1846 8.89761 22.1846 13.1021 20.4461 16.8057C19.8129 18.1544 19.4964 18.8288 18.5741 19.1431C17.6518 19.4573 16.8246 19.0541 15.1701 18.2477L14.2865 17.817C14.158 17.7544 14.0937 17.7231 14.0468 17.7521C14 17.781 13.9993 17.8528 13.9978 17.9963C13.9947 18.3049 13.9872 18.5791 13.9691 18.816C13.9385 19.2156 13.8705 19.6696 13.6266 20.0642C13.1288 20.8697 12.2186 21.3248 11.2755 21.2398C10.8134 21.1981 10.4095 20.9801 10.0714 20.7648C9.72908 20.5467 9.31831 20.2386 8.83186 19.8738L7.6 18.9499C7.07877 18.559 6.62386 18.15 6.33902 17.5804C6.05418 17.0107 6 16.4014 6 15.7499V14.8323C6 14.7175 6 14.6601 5.96303 14.6301C5.92606 14.6001 5.86927 14.612 5.75568 14.6359C5.63245 14.6617 5.54075 14.6782 5.45916 14.6876C3.48222 14.9169 2.25 13.3281 2.25 11.5012V10.4986C2.25 8.67164 3.48222 7.0829 5.45916 7.31213C5.61835 7.33059 5.81605 7.37556 6.21137 7.46548C6.81553 7.60291 7.4083 7.5352 7.96298 7.26485ZM8.28763 14.8931C8.15854 14.8302 8.09399 14.7988 8.047 14.8281C8 14.8575 8 14.9293 8 15.0729V15.7499C8 16.3202 8.05709 16.5444 8.12788 16.6859C8.19867 16.8275 8.34376 17.0077 8.8 17.3499L10 18.2499C10.5269 18.645 10.8761 18.9061 11.146 19.078C11.358 19.213 11.4473 19.243 11.4624 19.248L11.4658 19.2487C11.647 19.2612 11.8208 19.1743 11.9196 19.0218L11.9211 19.0187C11.9261 19.0035 11.9557 18.9142 11.9749 18.6636C11.9993 18.3444 12 17.9084 12 17.2499C12 17.0309 12 16.9214 11.9661 16.8341C11.9423 16.773 11.9114 16.7236 11.867 16.6755C11.8033 16.6067 11.7054 16.559 11.5095 16.4635L8.28763 14.8931Z" fill="#141B34"/>
</svg>
