<svg width="24" height="24" viewBox="0 0 24 24" fill="none" xmlns="http://www.w3.org/2000/svg">
<path fill-rule="evenodd" clip-rule="evenodd" d="M16.6154 1.32718C17.1252 1.11477 17.7106 1.35584 17.9231 1.86565C18.1355 2.37545 17.8944 2.96092 17.3846 3.17334L13.3237 4.86538C12.9655 5.01461 12.7865 5.08922 12.8026 5.16961C12.8186 5.25 13.0126 5.25 13.4006 5.25H14.0564C15.8942 5.24999 17.3498 5.24997 18.489 5.40314C19.6614 5.56076 20.6104 5.89288 21.3588 6.64124C22.1071 7.38961 22.4392 8.33856 22.5969 9.51098C22.75 10.6502 22.75 12.1058 22.75 13.9435V14.0564C22.75 15.8942 22.75 17.3498 22.5969 18.489C22.4392 19.6614 22.1071 20.6104 21.3588 21.3588C20.6104 22.1071 19.6614 22.4392 18.489 22.5969C17.3498 22.75 15.8942 22.75 14.0565 22.75H9.94359C8.10585 22.75 6.65018 22.75 5.51098 22.5969C4.33856 22.4392 3.38961 22.1071 2.64124 21.3588C1.89288 20.6104 1.56076 19.6614 1.40314 18.489C1.24997 17.3498 1.24999 15.8942 1.25 14.0564V14.0564V13.9436V13.9436C1.24999 12.1058 1.24997 10.6502 1.40314 9.51098C1.56076 8.33856 1.89288 7.38961 2.64124 6.64124C3.38961 5.89288 4.33856 5.56076 5.51098 5.40314C5.96316 5.34234 6.46518 5.30568 7.02117 5.28357H7.02118C7.07596 5.28139 7.10337 5.2803 7.12943 5.27455C7.15551 5.26879 7.18046 5.2584 7.23036 5.23761L16.6154 1.32718ZM11.2674 9.19727C13.8976 7.6787 17.2609 8.57989 18.7795 11.2101C19.8413 13.0493 19.7201 15.2468 18.6519 16.9214C18.6221 16.9682 18.5915 17.0146 18.5602 17.0605C18.1094 17.7223 17.5063 18.2954 16.7664 18.7226C14.1361 20.2412 10.7729 19.34 9.25428 16.7098C8.19049 14.8672 8.31415 12.665 9.38781 10.9891C9.41582 10.9454 9.44449 10.902 9.47379 10.859C9.92464 10.1974 10.5276 9.62437 11.2674 9.19727ZM4.48304 9.48397C4.48295 9.48935 4.48291 9.49473 4.48291 9.50012C4.48291 9.50552 4.48295 9.5109 4.48304 9.51627C4.49163 10.0611 4.93399 10.5001 5.47844 10.5001H5.48291H5.48738H5.49189C6.04418 10.5001 6.49189 10.0524 6.49189 9.50012C6.49189 8.94784 6.04418 8.50012 5.49189 8.50012H5.48738H5.48291H5.47844C4.93399 8.50012 4.49163 8.93914 4.48304 9.48397ZM15.7783 10.9358C15.1875 10.5923 14.5051 10.4275 13.8206 10.4653C13.2903 10.4947 12.7588 10.6456 12.2674 10.9293C11.1415 11.5793 10.5135 12.7605 10.5172 13.9736C10.5182 14.3107 10.5187 14.4793 10.6686 14.5655C10.7112 14.5901 10.755 14.6 10.8033 14.5972C10.9247 14.5901 11.0748 14.5034 11.3084 14.3686L15.7245 11.8189C16.0515 11.6302 16.215 11.5358 16.2152 11.3629C16.2155 11.19 16.0698 11.1052 15.7783 10.9358ZM17.3649 13.354C17.3222 13.3295 17.2784 13.3196 17.2301 13.3223C17.1088 13.3294 16.9586 13.4161 16.7251 13.551L16.7251 13.551L12.309 16.1006C11.982 16.2894 11.8185 16.3838 11.8182 16.5567C11.8179 16.7296 11.9637 16.8143 12.2551 16.9838C12.846 17.3273 13.5283 17.4921 14.2128 17.4543C14.7431 17.4249 15.2747 17.2739 15.7661 16.9902C16.8919 16.3402 17.5199 15.159 17.5163 13.946C17.5152 13.6088 17.5147 13.4403 17.3649 13.354Z" fill="#141B34"/>
</svg>
