<svg width="24" height="24" viewBox="0 0 24 24" fill="none" xmlns="http://www.w3.org/2000/svg">
<path opacity="0.4" fill-rule="evenodd" clip-rule="evenodd" d="M12 1.25C12.3267 1.25 12.6319 1.4133 12.8131 1.68518L22.5858 16.3443C22.8852 16.7934 22.7639 17.4001 22.3148 17.6995C21.8657 17.9989 21.259 17.8775 20.9596 17.4285L15.6073 9.40011C14.8152 10.0339 13.93 10.4759 12.9773 10.6576V21.7727C12.9773 22.3125 12.5397 22.75 12 22.75C11.4602 22.75 11.0227 22.3125 11.0227 21.7727V14.9565C9.1541 14.7892 7.41107 14.147 5.8954 13.146L3.04039 17.4285C2.741 17.8775 2.13425 17.9989 1.68516 17.6995C1.23608 17.4001 1.11472 16.7934 1.41411 16.3443L11.1868 1.68518C11.3681 1.4133 11.6732 1.25 12 1.25ZM8.39256 9.40021C9.18474 10.034 10.0699 10.476 11.0227 10.6576V12.9466C9.56935 12.7869 8.20682 12.2742 7.0048 11.4818L8.39256 9.40021Z" fill="#141B34"/>
<path fill-rule="evenodd" clip-rule="evenodd" d="M11.9999 1.25C12.3266 1.25 12.6318 1.4133 12.813 1.68518L22.5856 16.3443C22.885 16.7934 22.7637 17.4001 22.3146 17.6995C21.8655 17.9989 21.2588 17.8775 20.9594 17.4285L12.9771 5.45499V21.7727C12.9771 22.3125 12.5396 22.75 11.9999 22.75C11.4601 22.75 11.0226 22.3125 11.0226 21.7727V5.45499L3.04038 17.4285C2.74099 17.8775 2.13424 17.9989 1.68516 17.6995C1.23608 17.4001 1.11473 16.7934 1.41411 16.3443L11.1867 1.68518C11.368 1.4133 11.6731 1.25 11.9999 1.25Z" fill="#141B34"/>
</svg>
