<svg width="24" height="24" viewBox="0 0 24 24" fill="none" xmlns="http://www.w3.org/2000/svg">
<path opacity="0.4" d="M10.6329 1.26223C11.0671 1.02849 11.5019 0.87207 12 0.87207C12.4981 0.87207 12.9328 1.02849 13.3671 1.26223C13.7764 1.48253 14.2403 1.8032 14.7915 2.18425L20.3831 6.04941C20.9802 6.46202 21.5014 6.82227 21.8831 7.19213C22.3058 7.60173 22.5997 8.06071 22.7062 8.67662C22.8058 9.25266 22.7327 9.73934 22.5132 10.2237C22.3225 10.6443 22.0174 11.0645 21.692 11.5126L21.6583 11.5591C19.5428 14.4736 15.9989 16.3721 12 16.3721C8.00107 16.3721 4.45718 14.4737 2.34168 11.5591L2.30796 11.5126C1.98253 11.0645 1.67745 10.6443 1.4868 10.2237C1.26725 9.73934 1.19413 9.25266 1.29372 8.67662C1.40021 8.06071 1.69418 7.60174 2.11687 7.19213C2.49853 6.82228 3.01979 6.46203 3.61679 6.04943L3.66313 6.0174L9.20846 2.18426C9.75969 1.8032 10.2236 1.48253 10.6329 1.26223Z" fill="#141B34"/>
<path fill-rule="evenodd" clip-rule="evenodd" d="M13.4142 17.2079C12.6332 16.4268 11.3668 16.4268 10.5858 17.2079C9.80474 17.9889 9.80474 19.2552 10.5858 20.0363C11.3668 20.8173 12.6332 20.8173 13.4142 20.0363C13.541 19.9095 13.6472 19.7701 13.7329 19.6221H12C11.4477 19.6221 11 19.1744 11 18.6221C11 18.0698 11.4477 17.6221 12 17.6221H13.7329C13.6472 17.4741 13.541 17.3347 13.4142 17.2079ZM9.17157 15.7936C10.7337 14.2315 13.2663 14.2315 14.8284 15.7936C15.6093 16.5745 16 17.5999 16 18.6221C16 19.6442 15.6093 20.6696 14.8284 21.4505C13.2663 23.0126 10.7337 23.0126 9.17157 21.4505C7.60948 19.8884 7.60948 17.3557 9.17157 15.7936Z" fill="#141B34"/>
<path d="M13.0002 1.08555C12.684 0.953052 12.3584 0.87207 12 0.87207C11.6417 0.87207 11.3163 0.952978 11.0002 1.08537L11.0002 5.62207C11.0002 6.17436 11.4479 6.62207 12.0002 6.62207C12.5525 6.62207 13.0002 6.17436 13.0002 5.62207L13.0002 1.08555Z" fill="#141B34"/>
<path d="M11 8.62207C11 8.06979 11.4477 7.62207 12 7.62207H12.009C12.5613 7.62207 13.009 8.06979 13.009 8.62207C13.009 9.17436 12.5613 9.62207 12.009 9.62207H12C11.4477 9.62207 11 9.17436 11 8.62207Z" fill="#141B34"/>
<path d="M12 10.6221C11.4477 10.6221 11 11.0698 11 11.6221C11 12.1744 11.4477 12.6221 12 12.6221H12.009C12.5613 12.6221 13.009 12.1744 13.009 11.6221C13.009 11.0698 12.5613 10.6221 12.009 10.6221H12Z" fill="#141B34"/>
</svg>
