<svg width="24" height="24" viewBox="0 0 24 24" fill="none" xmlns="http://www.w3.org/2000/svg">
<path opacity="0.4" fill-rule="evenodd" clip-rule="evenodd" d="M8 10C8 9.44772 8.44772 9 9 9H17C17.5523 9 18 9.44772 18 10C18 10.5523 17.5523 11 17 11H9C8.44772 11 8 10.5523 8 10Z" fill="#141B34"/>
<path fill-rule="evenodd" clip-rule="evenodd" d="M14.7249 2.60335C15.3584 2.15874 16.064 2 16.8127 2C17.798 2 18.5483 2.38622 19.0744 2.975C19.5657 3.52469 19.8162 4.19882 19.9639 4.7338C20.1109 5.26616 19.7986 5.8169 19.2662 5.96392C18.7338 6.11094 18.1831 5.79856 18.0361 5.2662C17.9197 4.84477 17.7719 4.5189 17.5831 4.30769C17.4293 4.13557 17.218 4 16.8127 4C16.3583 4 16.0863 4.09126 15.8738 4.2404C15.6421 4.40303 15.3779 4.70728 15.078 5.31661C14.458 6.57621 13.883 8.70208 12.9683 12.2497C12.0782 15.7021 11.45 18.0762 10.7165 19.5666C10.3396 20.3323 9.88942 20.9655 9.27515 21.3966C8.64166 21.8413 7.93606 22 7.1873 22C6.20203 22 5.45175 21.6138 4.92559 21.025C4.43436 20.4753 4.18383 19.8012 4.03609 19.2662C3.88907 18.7338 4.20145 18.1831 4.73381 18.0361C5.26617 17.8891 5.81691 18.2014 5.96393 18.7338C6.08031 19.1552 6.22813 19.4811 6.41688 19.6923C6.57069 19.8644 6.78199 20 7.1873 20C7.64172 20 7.9137 19.9087 8.1262 19.7596C8.35791 19.597 8.62213 19.2927 8.92205 18.6834C9.54203 17.4238 10.117 15.2979 11.0317 11.7503C11.9218 8.29792 12.55 5.92379 13.2836 4.43339C13.6604 3.66772 14.1106 3.03447 14.7249 2.60335Z" fill="#141B34"/>
</svg>
