<svg width="24" height="24" viewBox="0 0 24 24" fill="none" xmlns="http://www.w3.org/2000/svg">
<path fill-rule="evenodd" clip-rule="evenodd" d="M3 12C3 11.4477 3.44772 11 4 11H20C20.5523 11 21 11.4477 21 12C21 12.5523 20.5523 13 20 13H4C3.44772 13 3 12.5523 3 12Z" fill="#141B34"/>
<path opacity="0.4" d="M6.93232 2.25162C7.34564 2.61793 7.38375 3.24995 7.01744 3.66327L6.49829 4.24906C5.83316 4.99955 5.4076 5.48325 5.16153 5.85234C5.14049 5.88391 5.12211 5.91268 5.10606 5.93881C5.49201 5.99701 6.07313 6.00001 7.00323 6.00001L20.0001 5.99973C20.5524 5.99972 21.0001 6.44743 21.0001 6.99971C21.0001 7.552 20.5524 7.99972 20.0001 7.99973L7.00327 8.00001L6.92067 8.00002H6.92066C6.08117 8.00011 5.3316 8.0002 4.76853 7.91036C4.18699 7.81757 3.41409 7.56626 3.10611 6.72731C2.81752 5.94118 3.16809 5.23696 3.49743 4.74295C3.82961 4.24467 4.35054 3.65696 4.95248 2.97785L4.95249 2.97785L5.00151 2.92254L5.52067 2.33675C5.88698 1.92343 6.51899 1.88531 6.93232 2.25162Z" fill="#141B34"/>
<path opacity="0.4" d="M17.0679 21.7484C16.6546 21.3821 16.6165 20.7501 16.9828 20.3367L17.502 19.7509C18.1671 19.0005 18.5926 18.5168 18.8387 18.1477C18.8598 18.1161 18.8781 18.0873 18.8942 18.0612C18.5082 18.003 17.9271 18 16.997 18L4.00017 18.0003C3.44789 18.0003 3.00016 17.5526 3.00015 17.0003C3.00014 16.448 3.44784 16.0003 4.00013 16.0003L16.997 16L17.0796 16H17.0796C17.9191 15.9999 18.6686 15.9998 19.2317 16.0896C19.8133 16.1824 20.5862 16.4337 20.8941 17.2727C21.1827 18.0588 20.8322 18.763 20.5028 19.2571C20.1706 19.7553 19.6497 20.343 19.0478 21.0221L19.0478 21.0222L18.9987 21.0775L18.4796 21.6633C18.1133 22.0766 17.4813 22.1147 17.0679 21.7484Z" fill="#141B34"/>
</svg>
