<svg width="24" height="24" viewBox="0 0 24 24" fill="none" xmlns="http://www.w3.org/2000/svg">
<path opacity="0.4" d="M4.22228 6.96582C4.75912 6.96582 5.19432 7.39906 5.19432 7.93349V18.4208C5.60547 18.1163 6.07771 17.7831 6.5991 17.4153L10.4217 14.718C10.6811 14.535 10.9239 14.3636 11.1437 14.2428C11.3882 14.1085 11.6669 13.9998 12.0004 13.9998C12.3339 13.9998 12.6127 14.1085 12.8571 14.2428C13.0769 14.3636 13.3198 14.535 13.5792 14.718L17.4018 17.4153C17.9229 17.7829 18.3949 18.116 18.8059 18.4204V7.93349C18.8059 7.39906 19.2411 6.96582 19.7779 6.96582C20.3148 6.96582 20.75 7.39906 20.75 7.93349V20.7821C20.75 20.7867 20.75 20.7912 20.7499 20.7958C20.7547 20.9434 20.7357 21.096 20.6871 21.2515C20.5579 21.6646 20.2685 21.9408 19.9323 22.1128C19.6201 22.2726 19.2487 22.3541 18.8701 22.4033C18.1266 22.4999 17.0877 22.4998 15.8061 22.4998H8.19482C6.91319 22.4998 5.87422 22.4999 5.13076 22.4033C4.7521 22.3541 4.3807 22.2726 4.06853 22.1128C3.73233 21.9408 3.44293 21.6646 3.31376 21.2515C3.26652 21.1005 3.24732 20.9522 3.2506 20.8087C3.25036 20.7999 3.25024 20.791 3.25024 20.7821V7.93349C3.25024 7.39906 3.68544 6.96582 4.22228 6.96582Z" fill="#141B34"/>
<path d="M11 2.02494C11 1.72846 11 1.58023 10.9004 1.52242C10.895 1.51932 10.8891 1.51621 10.8834 1.51364C10.7788 1.46559 10.6597 1.54965 10.4214 1.71778L6.59886 4.41501C5.54851 5.15611 4.69762 5.75647 4.14384 6.26501C3.86178 6.52402 3.60488 6.80465 3.44083 7.11443C3.26453 7.44733 3.18453 7.83883 3.31352 8.2513C3.44268 8.66433 3.73208 8.94056 4.06829 9.11259C4.38046 9.27233 4.75185 9.35388 5.13052 9.40306C5.87398 9.49961 6.91292 9.49959 8.19455 9.49957H15.8058C17.0874 9.49959 18.1264 9.49961 18.8698 9.40306C19.2485 9.35388 19.6199 9.27233 19.9321 9.11259C20.2683 8.94056 20.5577 8.66433 20.6868 8.2513C20.8158 7.83883 20.7358 7.44733 20.5595 7.11443C20.3955 6.80465 20.1386 6.52402 19.8565 6.26501C19.3027 5.75647 18.4519 5.15612 17.4015 4.41502L13.5789 1.71778C13.3403 1.54941 13.2211 1.46522 13.1163 1.51351C13.1109 1.51601 13.1051 1.51902 13.0999 1.52201C13 1.57977 13 1.72823 13 2.02514V6.24957C13 6.80185 12.5523 7.24957 12 7.24957C11.4477 7.24957 11 6.80185 11 6.24957V2.02494Z" fill="#141B34"/>
<path d="M13 14.3264V11.75C13 11.1977 12.5523 10.75 12 10.75C11.4477 10.75 11 11.1977 11 11.75V14.3266C11.0488 14.2967 11.0967 14.2687 11.1435 14.2429C11.3879 14.1086 11.6667 14 12.0002 14C12.3337 14 12.6124 14.1086 12.8569 14.2429C12.9035 14.2686 12.9513 14.2965 13 14.3264Z" fill="#141B34"/>
</svg>
