<svg width="24" height="24" viewBox="0 0 24 24" fill="none" xmlns="http://www.w3.org/2000/svg">
<path opacity="0.4" fill-rule="evenodd" clip-rule="evenodd" d="M11.5 6C11.9416 6 12.331 6.28967 12.4578 6.71265L15.4578 16.7127C15.6165 17.2416 15.3164 17.7991 14.7874 17.9578C14.2584 18.1165 13.7009 17.8163 13.5422 17.2873L12.556 14H10.444L9.45785 17.2873C9.29915 17.8163 8.74166 18.1165 8.21267 17.9578C7.68368 17.7991 7.3835 17.2416 7.54219 16.7127L10.5422 6.71265C10.6691 6.28967 11.0584 6 11.5 6ZM11.044 12H11.956L11.5 10.4801L11.044 12Z" fill="#141B34"/>
<path opacity="0.4" fill-rule="evenodd" clip-rule="evenodd" d="M16.7702 6.02685C17.2216 5.92029 17.687 6.13807 17.8944 6.55288L21 12.764V7.0001C21 6.44781 21.4477 6.0001 22 6.0001C22.5523 6.0001 23 6.44781 23 7.0001V17.0001C23 17.4639 22.6811 17.8668 22.2298 17.9733C21.7784 18.0799 21.313 17.8621 21.1056 17.4473L18 11.2362V17.0001C18 17.5524 17.5523 18.0001 17 18.0001C16.4477 18.0001 16 17.5524 16 17.0001V7.0001C16 6.53632 16.3189 6.1334 16.7702 6.02685Z" fill="#141B34"/>
<path fill-rule="evenodd" clip-rule="evenodd" d="M1 7C1 6.44772 1.44772 6 2 6H7C7.55228 6 8 6.44772 8 7C8 7.55228 7.55228 8 7 8H5.5V17C5.5 17.5523 5.05228 18 4.5 18C3.94772 18 3.5 17.5523 3.5 17V8H2C1.44772 8 1 7.55228 1 7Z" fill="#141B34"/>
</svg>
