<svg width="24" height="24" viewBox="0 0 24 24" fill="none" xmlns="http://www.w3.org/2000/svg">
<path d="M10.5 19.5H13.5C17.2586 19.5 19.1379 19.5 20.3925 18.5091C20.5932 18.3506 20.7788 18.176 20.9472 17.9871C22 16.8062 22 15.0375 22 11.5C22 10.3169 22 9.3316 21.9606 8.5H2.03939C2 9.3316 2 10.3169 2 11.5C2 15.0375 2 16.8062 3.0528 17.9871C3.22119 18.176 3.40678 18.3506 3.60746 18.5091C4.86213 19.5 6.74142 19.5 10.5 19.5Z" fill="#D4D7E0"/>
<path d="M13.5059 4H10.4941C6.72063 4 4.83391 4 3.57427 4.7927C3.3728 4.91948 3.18647 5.05922 3.01742 5.21032C2.31396 5.83906 2.07869 6.67612 2 8H22C21.9213 6.67612 21.686 5.83906 20.9826 5.21032C20.8135 5.05922 20.6272 4.91948 20.4257 4.7927C19.1661 4 17.2794 4 13.5059 4Z" fill="white"/>
<path d="M22 9.5C21.9635 7.24771 21.7892 5.94656 20.9564 5.0129C20.7879 4.82403 20.6022 4.64935 20.4014 4.49087C19.1461 3.5 17.2659 3.5 13.5056 3.5H10.5041C6.74371 3.5 4.86352 3.5 3.60823 4.49087C3.40746 4.64935 3.22178 4.82403 3.05331 5.0129C2 6.19377 2 7.96252 2 11.5C2 15.0375 2 16.8062 3.05331 17.9871C3.22178 18.176 3.40746 18.3506 3.60823 18.5091C4.86352 19.5 6.74371 19.5 10.5041 19.5H11.5" stroke="#141B34" stroke-width="1.5" stroke-linecap="round" stroke-linejoin="round"/>
<path d="M2 8.5H22" stroke="#141B34" stroke-width="1.5" stroke-linejoin="round"/>
<path d="M15.0161 12.5C11.8458 15.2942 17.3195 17.2518 15.0161 20.5M18.2161 12.5C15.0458 15.2942 20.5195 17.2518 18.2161 20.5M21.4161 12.5C18.2458 15.2942 23.7195 17.2518 21.4161 20.5" stroke="#141B34" stroke-width="1.5" stroke-linecap="round" stroke-linejoin="round"/>
</svg>
