<svg width="24" height="24" viewBox="0 0 24 24" fill="none" xmlns="http://www.w3.org/2000/svg">
<path d="M2 10C2 6.46252 2 4.69377 3.0528 3.5129C3.22119 3.32403 3.40678 3.14935 3.60746 2.99087C4.86213 2 6.74142 2 10.5 2H13.5C17.2586 2 19.1379 2 20.3925 2.99087C20.5932 3.14935 20.7788 3.32403 20.9472 3.5129C22 4.69377 22 6.46252 22 10C22 13.5375 22 15.3062 20.9472 16.4871C20.7788 16.676 20.5932 16.8506 20.3925 17.0091C19.1379 18 17.2586 18 13.5 18H10.5C6.74142 18 4.86213 18 3.60746 17.0091C3.40678 16.8506 3.22119 16.676 3.0528 16.4871C2 15.3062 2 13.5375 2 10Z" fill="#D4D7E0"/>
<path d="M14.5 10C14.5 11.3807 13.3807 12.5 12 12.5C10.6193 12.5 9.5 11.3807 9.5 10C9.5 8.61929 10.6193 7.5 12 7.5C13.3807 7.5 14.5 8.61929 14.5 10Z" fill="white"/>
<path d="M12 22V18M8 20L8 18M16 20V18" stroke="#141B34" stroke-width="1.5" stroke-linecap="round"/>
<path d="M19 17.5C19.7745 17.3341 20.3588 17.0571 20.8284 16.5949C22 15.4418 22 13.5859 22 9.87402C22 6.16217 22 4.30625 20.8284 3.15312C19.6569 2 17.7712 2 14 2H10C6.22876 2 4.34315 2 3.17157 3.15312C2 4.30625 2 6.16217 2 9.87402C2 13.5859 2 15.4418 3.17157 16.5949C3.64118 17.0571 4.2255 17.3341 5 17.5" stroke="#141B34" stroke-width="1.5" stroke-linecap="round"/>
<path d="M18.5 10H18.491" stroke="#141B34" stroke-width="2" stroke-linecap="round" stroke-linejoin="round"/>
<path d="M5.50996 10H5.50098" stroke="#141B34" stroke-width="2" stroke-linecap="round" stroke-linejoin="round"/>
<path d="M14.5 10C14.5 8.61929 13.3807 7.5 12 7.5C10.6193 7.5 9.5 8.61929 9.5 10C9.5 11.3807 10.6193 12.5 12 12.5C13.3807 12.5 14.5 11.3807 14.5 10Z" stroke="#141B34" stroke-width="1.5"/>
</svg>
