<svg width="24" height="24" viewBox="0 0 24 24" fill="none" xmlns="http://www.w3.org/2000/svg">
<path d="M2.5 12C2.5 7.52166 2.5 5.28249 3.89124 3.89124C5.28249 2.5 7.52166 2.5 12 2.5C16.4783 2.5 18.7175 2.5 20.1088 3.89124C21.5 5.28249 21.5 7.52166 21.5 12C21.5 16.4783 21.5 18.7175 20.1088 20.1088C18.7175 21.5 16.4783 21.5 12 21.5C7.52166 21.5 5.28249 21.5 3.89124 20.1088C2.5 18.7175 2.5 16.4783 2.5 12Z" fill="#D4D7E0"/>
<path d="M12.002 9C10.8974 9 10.002 9.67157 10.002 10.5C10.002 11.3284 10.8974 12 12.002 12C13.1065 12 14.002 12.6716 14.002 13.5C14.002 14.3284 13.1065 15 12.002 15M12.002 9C12.8728 9 13.6136 9.4174 13.8881 10M12.002 9V8M12.002 15C11.1311 15 10.3903 14.5826 10.1158 14M12.002 15V16" stroke="#141B34" stroke-width="1.5" stroke-linecap="round"/>
<path d="M13 2.5C13 2.5 12.6839 2.5 12 2.5C7.52166 2.5 5.28249 2.5 3.89124 3.89125C2.5 5.28249 2.5 7.52166 2.5 12C2.5 16.4783 2.5 18.7175 3.89124 20.1088C5.28249 21.5 7.52166 21.5 12 21.5C16.4783 21.5 18.7175 21.5 20.1088 20.1088C21.5 18.7175 21.5 16.4783 21.5 12C21.5 11.3161 21.5 11 21.5 11" stroke="#141B34" stroke-width="1.5" stroke-linecap="round"/>
<path d="M16.4301 6.46359C16.1359 6.75512 16.1337 7.22999 16.4252 7.52424C16.7168 7.81849 17.1916 7.82069 17.4859 7.52916L16.4301 6.46359ZM22.0279 3.02912C22.3221 2.73759 22.3243 2.26272 22.0328 1.96847C21.7413 1.67423 21.2664 1.67202 20.9721 1.96355L22.0279 3.02912ZM17.4717 7.26931L17.6025 6.5308L17.4717 7.26931ZM16.7272 6.52463L15.9887 6.65529V6.65529L16.7272 6.52463ZM20.9899 8.24212C21.4041 8.24779 21.7444 7.91663 21.7501 7.50245C21.7558 7.08828 21.4246 6.74793 21.0104 6.74226L20.9899 8.24212ZM17.2543 2.98606C17.2486 2.57189 16.9082 2.24075 16.4941 2.24645C16.0799 2.25214 15.7488 2.59251 15.7545 3.00669L17.2543 2.98606ZM17.4859 7.52916L22.0279 3.02912L20.9721 1.96355L16.4301 6.46359L17.4859 7.52916ZM17.6025 6.5308C17.552 6.52186 17.5245 6.50295 17.5091 6.48751C17.4936 6.47206 17.4747 6.44455 17.4657 6.39397L15.9887 6.65529C16.1128 7.35666 16.6393 7.88357 17.3409 8.00782L17.6025 6.5308ZM17.3409 8.00782C18.3556 8.18752 20.1531 8.23066 20.9899 8.24212L21.0104 6.74226C20.1429 6.73038 18.4745 6.68524 17.6025 6.5308L17.3409 8.00782ZM15.7545 3.00669C15.766 3.8435 15.8092 5.64073 15.9887 6.65529L17.4657 6.39397C17.3115 5.5219 17.2662 3.85354 17.2543 2.98606L15.7545 3.00669Z" fill="#141B34"/>
</svg>
