<svg width="24" height="24" viewBox="0 0 24 24" fill="none" xmlns="http://www.w3.org/2000/svg">
<path d="M9.71564 2.49656C10.1503 1.88876 10.3676 1.58486 10.2462 1.40924C10.1247 1.23361 9.79684 1.32476 9.14106 1.50704C5.26027 2.58576 2.2557 5.79153 1.44158 9.80073C1.40925 9.95994 1.39308 10.0396 1.4194 10.1172C1.44571 10.1949 1.50907 10.2499 1.6358 10.36L2.64627 11.2377L2.66023 11.2508C3.68743 12.2139 4.90015 12.9578 6.22836 13.4909C6.60353 13.6414 6.79111 13.7167 6.92479 13.6198C7.05847 13.5229 7.04628 13.3079 7.02189 12.8778C7.00147 12.5179 6.99168 12.1582 6.99224 11.8C6.99753 8.41456 7.92723 4.99733 9.71564 2.49656Z" fill="#141B34"/>
<path d="M13.891 22.4577C14.0017 22.5589 14.057 22.6095 14.1281 22.6284C14.1991 22.6472 14.2695 22.6312 14.4102 22.5992C18.8351 21.5924 22.2299 17.8493 22.7494 13.2283C22.7554 13.1752 22.6962 13.1402 22.653 13.1713C19.6829 15.3488 15.7524 16.5325 11.8912 16.5436C11.4597 16.5448 11.0277 16.5314 10.5967 16.5029C10.1692 16.4745 9.9554 16.4604 9.85799 16.5945C9.76057 16.7286 9.83444 16.9181 9.98218 17.2971C10.5924 18.8627 11.4913 20.2633 12.6896 21.3586L13.891 22.4577Z" fill="#141B34"/>
<g opacity="0.4">
<path d="M1.30578 12.745C1.28303 12.7253 1.24796 12.7432 1.25009 12.7733C1.59089 17.6033 5.06342 21.5615 9.6343 22.5999C10.2963 22.7503 10.6273 22.8255 10.7399 22.6423C10.8526 22.4591 10.619 22.1709 10.1518 21.5946C8.92072 20.076 8.07515 18.2739 7.5708 16.3708C7.52471 16.1969 7.50167 16.11 7.44524 16.0528C7.38881 15.9956 7.3026 15.9718 7.13019 15.9242C4.97319 15.329 2.95898 14.2902 1.30578 12.745Z" fill="#141B34"/>
<path d="M22.4434 10.835C22.5866 10.7319 22.6581 10.6803 22.6911 10.6011C22.724 10.5218 22.7106 10.4375 22.684 10.2687C21.9609 5.69262 18.4037 2.06792 13.8811 1.27688C13.7368 1.25164 13.6647 1.23902 13.5938 1.2622C13.523 1.28539 13.4701 1.34022 13.3645 1.4499L12.2692 2.58665L12.262 2.59385C10.2219 4.62717 9.00707 8.12929 9.00133 11.8031C9.00025 12.4983 9.04246 13.1915 9.12864 13.8741C9.15478 14.0812 9.16786 14.1847 9.23971 14.2577C9.31156 14.3306 9.41434 14.3445 9.6199 14.3725C10.363 14.4736 11.1213 14.5225 11.8856 14.5203C15.3754 14.5102 18.8839 13.4332 21.4739 11.5332L21.4811 11.528L22.4434 10.835Z" fill="#141B34"/>
</g>
</svg>
