<svg width="24" height="24" viewBox="0 0 24 24" fill="none" xmlns="http://www.w3.org/2000/svg">
<path d="M16.9659 18.8027H6.45317C5.6585 18.8027 5.26116 18.8027 5.1182 18.5459C4.97524 18.2892 5.18455 17.9514 5.60318 17.2759L12.72 5.79262C12.9639 5.3992 13.0858 5.20249 13.2841 5.15384C13.4824 5.10519 13.6815 5.22314 14.0797 5.45905L14.1456 5.49809C14.3167 5.60973 14.5325 5.65146 14.7457 5.59561C15.1464 5.49065 15.3861 5.08073 15.2812 4.68003C15.2444 4.4314 15.0972 3.52272 15.0429 3.2338C14.9849 2.92475 14.9087 2.58853 14.8015 2.29785C14.7478 2.152 14.6784 1.99571 14.586 1.8522C14.4967 1.71348 14.3573 1.54172 14.1456 1.4238C13.9541 1.31709 13.75 1.27966 13.599 1.2636C13.4369 1.24638 13.2668 1.24728 13.104 1.25653C12.7781 1.27504 12.4125 1.33138 12.068 1.39744C11.3753 1.53024 10.6815 1.7195 10.3942 1.79801C9.99467 1.90721 9.75929 2.31964 9.86849 2.7192C9.92008 2.90797 10.0394 3.0601 10.193 3.15655L10.6826 3.44661C11.0956 3.69125 11.302 3.81357 11.3521 4.01752C11.4022 4.22147 11.2758 4.42549 11.0231 4.83354L3.89311 16.3447C3.51731 16.9512 3.17933 17.4967 2.98096 17.9554C2.77409 18.4337 2.59671 19.0905 2.95621 19.7453C3.31737 20.4031 3.96875 20.6017 4.48388 20.6788C4.97576 20.7524 5.61441 20.7523 6.32223 20.7522L16.7686 20.7522C17.24 20.7522 17.4757 20.7522 17.6222 20.8987C17.7686 21.0451 17.7686 21.2808 17.7686 21.7522V21.9958C17.7675 22.1866 17.8388 22.3779 17.9829 22.5249C18.2728 22.8208 18.7477 22.8256 19.0435 22.5357C19.2352 22.384 19.9296 21.8195 20.1468 21.6339C20.3791 21.4354 20.6258 21.2088 20.8198 20.9792C20.917 20.864 21.0161 20.7306 21.0938 20.5842C21.1684 20.4436 21.2501 20.2415 21.2501 20.0022C21.2501 19.7629 21.1684 19.5608 21.0938 19.4202C21.0161 19.2738 20.917 19.1404 20.8198 19.0252C20.6258 18.7956 20.3791 18.569 20.1468 18.3705C19.9296 18.1849 19.2351 17.6204 19.0435 17.4687C18.7477 17.1788 18.2728 17.1836 17.9829 17.4795C17.841 17.6243 17.7697 17.8121 17.7686 18C17.7686 18.2826 17.7686 18.4239 17.7131 18.5317C17.6655 18.6242 17.5901 18.6996 17.4975 18.7473C17.3898 18.8027 17.2485 18.8027 16.9659 18.8027Z" fill="#141B34"/>
<path opacity="0.4" d="M13.2508 17.9791C13.2508 18.2577 13.2342 18.5326 13.2019 18.8028H6.45313C5.65845 18.8028 5.26111 18.8028 5.11815 18.546C4.97519 18.2892 5.18451 17.9515 5.60313 17.276L8.83677 12.0625C11.3662 12.9086 13.2508 14.9906 13.2508 17.9791Z" fill="#141B34"/>
</svg>
