<svg width="24" height="24" viewBox="0 0 24 24" fill="none" xmlns="http://www.w3.org/2000/svg">
<path d="M9.11569 4.27314C9.29353 4.29608 9.38245 4.30755 9.45108 4.36754C9.52034 4.42808 9.56322 4.54221 9.55098 4.63337C9.53884 4.72372 9.46655 4.80555 9.32196 4.96922L7.76086 6.72709C6.41303 8.24451 6.41305 10.6067 7.76089 12.1241C8.8866 13.3914 10.7599 13.7047 12.2689 12.9072C12.5414 12.7632 12.6777 12.6912 12.7861 12.7159C12.8945 12.7406 12.9756 12.8502 13.1379 13.0694L14.5946 15.0374C14.9855 15.5655 15.3552 16.065 15.7057 16.4649C15.7711 16.5396 15.8388 16.6143 15.9091 16.6884C16.0197 16.8051 16.0204 16.9902 15.9048 17.102C15.1306 17.8504 14.5023 18.4578 13.9379 18.8878C13.3495 19.3361 12.5879 19.6591 11.8946 19.742C11.1987 19.7921 10.5682 19.6028 9.90189 19.2756C9.26195 18.9614 8.48493 18.4606 7.57343 17.8731C6.5745 17.2293 6.19144 16.9902 5.76986 16.8622C5.34439 16.7423 4.82104 16.7168 3.62069 16.7168L3.59354 16.7168C3.32711 16.7168 3.08239 16.7168 2.87807 16.6995C2.65759 16.6809 2.41668 16.6382 2.18031 16.5129C1.87093 16.3489 1.61787 16.0958 1.45385 15.7865C1.32854 15.5501 1.28585 15.3092 1.26723 15.0887C1.24997 14.8844 1.24999 14.6397 1.25001 14.3732L1.25 8.9552C1.24995 8.52239 1.24991 8.12556 1.29331 7.80274C1.3411 7.44726 1.45355 7.07154 1.76257 6.76252C2.07159 6.45349 2.44732 6.34104 2.8028 6.29325C3.12561 6.24985 3.52243 6.2499 3.95524 6.24995L4.86503 6.24995C5.33292 6.24995 5.82524 6.01948 6.21764 5.53056C6.95528 4.61148 8.02847 4.13286 9.11569 4.27314Z" fill="#141B34"/>
<path opacity="0.4" d="M17.1959 15.8539C17.4068 16.0511 17.6304 16.2184 17.886 16.3532C18.6416 16.7516 19.4937 16.751 20.6757 16.7502L21.2166 16.7366C22.0114 16.6375 22.6374 16.0115 22.7365 15.2167C22.7502 15.1069 22.7501 14.9875 22.75 14.8725L22.75 9.1892C22.7501 8.75639 22.7501 8.35955 22.7067 8.03674C22.6589 7.68126 22.5465 7.30554 22.2374 6.99651C21.9284 6.68749 21.5527 6.57504 21.1972 6.52725C20.8744 6.48385 20.4776 6.48389 20.0448 6.48395L19.4832 6.48395C18.7358 6.48395 18.1707 6.09971 17.4333 5.35497C16.8165 4.73208 15.887 4.34325 15.0274 4.29073C14.3468 4.24803 13.4299 4.19049 12.6227 4.40286L12.5853 4.41313C11.5725 4.69136 10.912 5.43679 10.3923 6.02338L8.88236 7.72336C8.03921 8.67257 8.03922 10.1789 8.88236 11.1281C9.64174 11.983 10.8785 12.1359 11.8021 11.4426C11.93 11.3467 12.1075 11.1971 12.2217 11.1003C12.3213 11.0157 12.4132 10.9377 12.5068 10.8629C12.6757 10.702 13.0973 10.4935 13.4326 10.9464L15.7713 14.1059C16.1861 14.6663 16.5245 15.1235 16.8338 15.4765C16.9528 15.6122 17.0722 15.7382 17.1959 15.8539Z" fill="#141B34"/>
</svg>
