<svg width="25" height="24" viewBox="0 0 25 24" fill="none" xmlns="http://www.w3.org/2000/svg">
<path opacity="0.4" d="M22.3389 6.33097C20.3692 3.64319 16.7157 2.74953 13.7213 4.1694C12.4579 4.76845 11.1981 5.37984 9.94072 5.99004C9.31658 6.29294 8.69298 6.59558 8.06991 6.89624C7.51203 7.16544 7.26801 7.21017 7.10115 7.17928C6.93847 7.14917 6.72973 7.02423 6.31762 6.56585C6.11073 6.33574 5.93131 6.08267 5.71986 5.85627C5.4863 5.6062 5.1555 5.31182 4.71967 5.22234C4.51885 5.18111 4.33047 5.19432 4.14369 5.22765C3.64442 5.31672 3.10149 5.44586 2.62947 5.63369C1.92513 5.91397 1.52816 6.51391 1.63694 7.26779C1.67399 7.52455 1.75572 7.83119 1.84994 8.18472L2.15365 9.32451C2.3816 10.18 2.56595 10.8719 2.78567 11.3965C3.01442 11.9426 3.30867 12.377 3.79697 12.6527C4.28365 12.9275 4.81104 12.9589 5.40431 12.8801C5.97665 12.8041 6.67972 12.6147 7.55256 12.3795L9.9893 11.7229C10.0615 11.7035 10.1287 11.7672 10.1131 11.8403L9.79871 13.3131C9.64176 14.0483 10.3245 14.6542 11.027 14.4649L13.2882 13.8557C13.9209 13.6852 14.4635 13.2746 14.7956 12.7118C14.8011 12.7024 14.8063 12.6929 14.8112 12.6832L16.0385 10.2552C16.0992 10.1351 16.2073 10.0475 16.3349 10.0131L21.4942 8.62297C22.4346 8.36766 22.9779 7.21732 22.3413 6.33414L22.3389 6.33097Z" fill="#141B34"/>
<path fill-rule="evenodd" clip-rule="evenodd" d="M1.11328 20C1.11328 19.4477 1.561 19 2.11328 19H18.1133C18.6656 19 19.1133 19.4477 19.1133 20C19.1133 20.5523 18.6656 21 18.1133 21H2.11328C1.561 21 1.11328 20.5523 1.11328 20Z" fill="#141B34"/>
</svg>
