<svg width="24" height="24" viewBox="0 0 24 24" fill="none" xmlns="http://www.w3.org/2000/svg">
<path d="M23 12.002C23 12.5543 22.5523 13.002 22 13.002L2 13.002C1.44772 13.002 1 12.5543 1 12.002C1 11.4497 1.44772 11.002 2 11.002L22 11.002C22.5523 11.002 23 11.4497 23 12.002Z" fill="#141B34"/>
<path opacity="0.4" d="M19.75 13.5336C19.75 13.9731 19.75 14.3522 19.7218 14.6633C19.692 14.9923 19.6259 15.3181 19.4486 15.6251C19.0708 16.279 18.4884 16.5593 17.9352 16.6719C17.5083 16.7588 17.0393 16.7542 16.6832 16.7507C16.618 16.7501 16.5566 16.7494 16.5 16.7494C16.4434 16.7494 16.382 16.7501 16.3168 16.7507C15.9607 16.7542 15.4917 16.7588 15.0648 16.6719C14.5116 16.5593 13.9292 16.279 13.5514 15.6251C13.3741 15.3181 13.308 14.9923 13.2782 14.6633C13.25 14.3522 13.25 13.9731 13.25 13.5335L13.25 10.4709C13.25 10.0313 13.25 9.6522 13.2782 9.34109C13.308 9.0121 13.3741 8.68633 13.5514 8.37929C13.9292 7.72541 14.5116 7.44508 15.0648 7.33247C15.4917 7.24556 15.9607 7.25019 16.3168 7.2537C16.382 7.25434 16.4434 7.25495 16.5 7.25495C16.5566 7.25495 16.618 7.25434 16.6832 7.2537C17.0393 7.25019 17.5083 7.24556 17.9352 7.33247C18.4884 7.44508 19.0708 7.72541 19.4486 8.37929C19.6259 8.68633 19.692 9.0121 19.7218 9.34109C19.75 9.65219 19.75 10.0313 19.75 10.4708L19.75 10.4709L19.75 13.5335L19.75 13.5336Z" fill="#141B34"/>
<path opacity="0.4" d="M10.75 17.5327C10.75 17.9724 10.75 18.3516 10.7218 18.6628C10.692 18.9918 10.6259 19.3177 10.4486 19.6248C10.0708 20.2789 9.48842 20.5593 8.93523 20.6719C8.50827 20.7588 8.03925 20.7542 7.68318 20.7507C7.61802 20.7501 7.55664 20.7494 7.5 20.7494C7.44335 20.7494 7.38198 20.7501 7.31682 20.7507C6.96075 20.7542 6.49173 20.7588 6.06477 20.6719C5.51157 20.5593 4.92918 20.2789 4.55144 19.6248C4.37407 19.3177 4.30801 18.9918 4.27818 18.6628C4.24997 18.3516 4.24998 17.9723 4.25 17.5327L4.25 6.47171C4.24998 6.03206 4.24997 5.65284 4.27818 5.34164C4.30802 5.01256 4.37407 4.68671 4.55144 4.37959C4.92918 3.72553 5.51157 3.44513 6.06477 3.3325C6.49173 3.24556 6.96075 3.25019 7.31682 3.2537C7.38198 3.25434 7.44335 3.25495 7.5 3.25495C7.55664 3.25495 7.61802 3.25434 7.68318 3.2537C8.03925 3.25019 8.50827 3.24556 8.93523 3.3325C9.48842 3.44513 10.0708 3.72553 10.4486 4.37959C10.6259 4.68671 10.692 5.01256 10.7218 5.34164C10.75 5.65283 10.75 6.03204 10.75 6.47168L10.75 6.47171L10.75 17.5327L10.75 17.5327Z" fill="#141B34"/>
</svg>
