<svg width="24" height="24" viewBox="0 0 24 24" fill="none" xmlns="http://www.w3.org/2000/svg">
<path opacity="0.4" d="M16.7503 7.49804C16.7538 7.14198 16.7597 6.48977 16.6727 6.06281C16.5601 5.50962 16.2796 4.92723 15.6253 4.54949C15.3181 4.37212 14.9921 4.30606 14.663 4.27623C14.3517 4.24801 13.9723 4.24803 13.5325 4.24804L12.4681 4.24804C12.0283 4.24803 11.6489 4.24801 11.3377 4.27623C11.0085 4.30606 10.6825 4.37212 10.3753 4.54949C9.72104 4.92723 9.44055 5.50962 9.32788 6.06281C9.24092 6.48977 9.24679 7.14198 9.25031 7.49804C9.24679 7.85411 9.24092 8.50632 9.32788 8.93328C9.44055 9.48647 9.72104 10.0689 10.3753 10.4466C10.6825 10.624 11.0085 10.69 11.3377 10.7199C11.6489 10.7481 12.0283 10.7481 12.468 10.748L12.4681 10.748L13.5325 10.748L13.5326 10.748C13.9723 10.7481 14.3517 10.7481 14.663 10.7199C14.9921 10.69 15.3181 10.624 15.6253 10.4466C16.2796 10.0689 16.5601 9.48647 16.6727 8.93328C16.7597 8.50632 16.7538 7.85411 16.7503 7.49804Z" fill="#141B34"/>
<path opacity="0.4" d="M16.7503 16.498C16.7538 16.142 16.7597 15.4898 16.6727 15.0628C16.5601 14.5096 16.2796 13.9272 15.6253 13.5495C15.3181 13.3721 14.9921 13.3061 14.663 13.2762C14.3517 13.248 13.9723 13.248 13.5325 13.248L6.46808 13.248C6.02829 13.248 5.64895 13.248 5.33766 13.2762C5.00847 13.3061 4.68252 13.3721 4.37531 13.5495C3.72104 13.9272 3.44055 14.5096 3.32788 15.0628C3.24092 15.4898 3.24679 16.142 3.25031 16.498C3.24679 16.8541 3.24092 17.5063 3.32788 17.9333C3.44055 18.4865 3.72104 19.0689 4.37531 19.4466C4.68252 19.624 5.00847 19.69 5.33766 19.7199C5.64894 19.7481 6.02827 19.7481 6.46805 19.748L6.46808 19.748L13.5325 19.748L13.5326 19.748C13.9723 19.7481 14.3517 19.7481 14.663 19.7199C14.9921 19.69 15.3181 19.624 15.6253 19.4466C16.2796 19.0689 16.5601 18.4865 16.6727 17.9333C16.7597 17.5063 16.7538 16.8541 16.7503 16.498Z" fill="#141B34"/>
<path fill-rule="evenodd" clip-rule="evenodd" d="M19.75 1C20.3023 1 20.75 1.44772 20.75 2L20.75 22C20.75 22.5523 20.3023 23 19.75 23C19.1977 23 18.75 22.5523 18.75 22L18.75 2C18.75 1.44772 19.1977 1 19.75 1Z" fill="#141B34"/>
</svg>
