<svg width="24" height="24" viewBox="0 0 24 24" fill="none" xmlns="http://www.w3.org/2000/svg">
<path opacity="0.4" d="M16.502 7.24921C16.858 7.24569 17.5102 7.23982 17.9372 7.32678C18.4904 7.43945 19.0728 7.71994 19.4505 8.37421C19.6279 8.68142 19.6939 9.00737 19.7238 9.33656C19.752 9.64785 19.752 10.0272 19.752 10.467V11.5314C19.752 11.9712 19.752 12.3506 19.7238 12.6619C19.6939 12.991 19.6279 13.317 19.4505 13.6242C19.0728 14.2785 18.4904 14.559 17.9372 14.6716C17.5102 14.7586 16.858 14.7527 16.502 14.7492C16.1459 14.7527 15.4937 14.7586 15.0667 14.6716C14.5135 14.559 13.9311 14.2785 13.5534 13.6242C13.376 13.317 13.31 12.991 13.2801 12.6619C13.2519 12.3506 13.2519 11.9712 13.252 11.5315V11.5314V10.467V10.4669C13.2519 10.0272 13.2519 9.64784 13.2801 9.33656C13.31 9.00737 13.376 8.68142 13.5534 8.37421C13.9311 7.71994 14.5135 7.43945 15.0667 7.32678C15.4937 7.23982 16.1459 7.24569 16.502 7.24921Z" fill="#141B34"/>
<path opacity="0.4" d="M7.50196 7.24921C7.85802 7.24569 8.51023 7.23982 8.93719 7.32678C9.49038 7.43945 10.0728 7.71994 10.4505 8.37421C10.6279 8.68142 10.6939 9.00737 10.7238 9.33656C10.752 9.64785 10.752 10.0272 10.752 10.467L10.752 17.5314C10.752 17.9712 10.752 18.3506 10.7238 18.6619C10.6939 18.991 10.6279 19.317 10.4505 19.6242C10.0728 20.2785 9.49038 20.559 8.93718 20.6716C8.51023 20.7586 7.85802 20.7527 7.50195 20.7492C7.14588 20.7527 6.49368 20.7586 6.06672 20.6716C5.51353 20.559 4.93114 20.2785 4.5534 19.6242C4.37603 19.317 4.30997 18.991 4.28014 18.6619C4.25192 18.3506 4.25194 17.9712 4.25195 17.5315V17.5314V10.467V10.4669C4.25194 10.0272 4.25192 9.64784 4.28014 9.33656C4.30997 9.00737 4.37603 8.68142 4.5534 8.37421C4.93114 7.71994 5.51353 7.43945 6.06672 7.32678C6.49368 7.23982 7.14589 7.24569 7.50196 7.24921Z" fill="#141B34"/>
<path fill-rule="evenodd" clip-rule="evenodd" d="M23 4.24927C23 3.69698 22.5523 3.24927 22 3.24927L2 3.24927C1.44771 3.24927 1 3.69698 1 4.24927C1 4.80155 1.44771 5.24927 2 5.24927L22 5.24927C22.5523 5.24927 23 4.80155 23 4.24927Z" fill="#141B34"/>
</svg>
