<svg width="24" height="24" viewBox="0 0 24 24" fill="none" xmlns="http://www.w3.org/2000/svg">
<path opacity="0.4" fill-rule="evenodd" clip-rule="evenodd" d="M15.8412 9.01336C16.3861 8.9235 16.9007 9.2924 16.9906 9.83732C17.0929 10.4576 17.0476 11.1434 16.8971 11.8449C18.0444 12.4917 18.9531 13.3497 19.4893 14.3815C20.0909 15.5389 20.1857 16.863 19.6444 18.1914C19.1154 19.4894 18.0113 20.7192 16.3488 21.8312C15.8897 22.1383 15.2687 22.0151 14.9616 21.556C14.6545 21.097 14.7778 20.4759 15.2368 20.1688C16.6943 19.1939 17.4627 18.2453 17.7923 17.4366C18.1095 16.6582 18.049 15.947 17.7147 15.3038C17.432 14.7599 16.9313 14.2353 16.2447 13.7884C15.8287 14.7167 15.2621 15.6617 14.5736 16.5463C12.8732 18.731 10.308 20.6928 7.23783 20.953C5.44642 21.1048 4.02426 20.5407 3.36058 19.2423C2.74778 18.0435 2.97905 16.569 3.5828 15.3068C4.8098 12.7418 7.94438 10.2214 12.1128 10.5023C13.1286 10.5707 14.1075 10.7525 15.01 11.0366C15.0564 10.6936 15.0562 10.3991 15.0172 10.1627C14.9274 9.61782 15.2963 9.10322 15.8412 9.01336ZM14.4295 12.9483C13.7035 12.7177 12.8816 12.5586 11.9784 12.4978C8.72598 12.2786 6.30541 14.25 5.387 16.1699C4.91805 17.1502 4.92904 17.9166 5.14142 18.332C5.3029 18.6479 5.75135 19.0718 7.06898 18.9601C9.38629 18.7638 11.4936 17.2473 12.9953 15.3179C13.5974 14.5444 14.0824 13.7281 14.4295 12.9483Z" fill="#141B34"/>
<path fill-rule="evenodd" clip-rule="evenodd" d="M11.3419 2.05739C11.8625 2.24175 12.1351 2.81324 11.9507 3.33385L11.9492 3.33813C11.7698 3.84462 11.5764 4.3908 11.3835 4.97168C14.5623 4.84795 17.9015 4.30603 20.5876 3.08914C21.0906 2.86124 21.6832 3.0843 21.9111 3.58737C22.139 4.09043 21.916 4.68301 21.4129 4.91091C18.3348 6.30538 14.6155 6.866 11.2393 6.97817C11.0832 6.98336 10.9277 6.98759 10.7727 6.9909C9.74872 10.8106 9.29037 15.6386 12.3452 20.4652C12.6406 20.9319 12.5017 21.5496 12.035 21.845C11.5684 22.1404 10.9506 22.0015 10.6552 21.5348C7.32607 16.2747 7.70295 11.0159 8.70683 6.9819C6.33097 6.91072 4.22353 6.63722 2.76934 6.29214C2.23197 6.16462 1.89973 5.62563 2.02725 5.08827C2.15477 4.5509 2.69376 4.21866 3.23112 4.34618C4.632 4.67861 6.80211 4.95312 9.27135 4.99461C9.52779 4.18342 9.78895 3.44643 10.0187 2.79798C10.0344 2.75364 10.05 2.70972 10.0654 2.66621C10.2498 2.14561 10.8213 1.87303 11.3419 2.05739Z" fill="#141B34"/>
</svg>
