<svg width="24" height="24" viewBox="0 0 24 24" fill="none" xmlns="http://www.w3.org/2000/svg">
<path opacity="0.4" d="M10.5513 4.125H4.95259C4.28778 4.12497 3.71483 4.12494 3.25612 4.18661C2.76448 4.25271 2.29322 4.40177 1.91097 4.78402C1.52872 5.16626 1.37967 5.63753 1.31357 6.12916C1.25189 6.58788 1.25192 7.16079 1.25195 7.82559V14.9245C1.25192 15.5893 1.25189 16.1621 1.31357 16.6209C1.37967 17.1125 1.52872 17.5838 1.91097 17.966C2.23851 18.2935 2.62567 18.4493 3.04373 18.5292C3.16167 18.5518 3.22065 18.563 3.25773 18.5287C3.29481 18.4943 3.28752 18.4298 3.27294 18.3009C3.25714 18.1611 3.24902 18.019 3.24902 17.875C3.24902 15.8039 4.92796 14.125 6.99902 14.125C9.07009 14.125 10.749 15.8039 10.749 17.875C10.749 17.882 10.749 17.889 10.749 17.896C10.747 18.2641 10.7459 18.4481 10.8339 18.5366C10.9219 18.625 11.0839 18.625 11.408 18.625H12.59C12.9141 18.625 13.0762 18.625 13.1641 18.5366C13.2521 18.4481 13.2511 18.2641 13.2491 17.896C13.249 17.889 13.249 17.882 13.249 17.875C13.249 15.8039 14.928 14.125 16.999 14.125C19.0701 14.125 20.749 15.8039 20.749 17.875C20.749 18.0274 20.7399 18.1776 20.7223 18.3252C20.7056 18.4642 20.8171 18.5903 20.9557 18.5709C21.4376 18.5035 21.888 18.317 22.2148 17.9473C22.5326 17.5879 22.6507 17.1605 22.7029 16.7295C22.7408 16.4171 22.7494 16.0459 22.7514 15.625H21.752C21.3377 15.625 21.002 15.2892 21.002 14.875C21.002 14.4608 21.3377 14.125 21.752 14.125H22.7328C22.7076 13.7363 22.6491 13.395 22.4802 13.0508C22.1837 12.446 21.6483 12.0794 20.9752 11.6184C20.2792 11.1415 19.719 10.5545 19.2651 9.84274L19.247 9.81441C18.8919 9.25777 18.5988 8.79828 18.3235 8.44176C18.035 8.06837 17.732 7.76131 17.3356 7.53687C16.9366 7.31102 16.5222 7.2135 16.0625 7.16797C15.8941 7.1513 15.752 7.28698 15.752 7.45617V10.875C15.752 11.2892 15.4162 11.625 15.002 11.625C14.5877 11.625 14.252 11.2892 14.252 10.875V7.12501H14.2489C14.2435 6.75156 14.2292 6.41778 14.1904 6.12916C14.1243 5.63753 13.9752 5.16626 13.593 4.78402C13.2107 4.40177 12.7394 4.25271 12.2478 4.18661C11.7891 4.12494 11.2161 4.12497 10.5513 4.125Z" fill="#141B34"/>
<path d="M22.7514 15.625H21.752C21.3377 15.625 21.002 15.2892 21.002 14.875C21.002 14.4608 21.3377 14.125 21.752 14.125H22.7328L22.7514 15.625Z" fill="#141B34"/>
<path fill-rule="evenodd" clip-rule="evenodd" d="M8.00195 7.125C8.41617 7.125 8.75195 7.46079 8.75195 7.875V9.125H10.002C10.4162 9.125 10.752 9.46079 10.752 9.875C10.752 10.2892 10.4162 10.625 10.002 10.625H8.75195V11.875C8.75195 12.2892 8.41617 12.625 8.00195 12.625C7.58774 12.625 7.25195 12.2892 7.25195 11.875V10.625H6.00195C5.58774 10.625 5.25195 10.2892 5.25195 9.875C5.25195 9.46079 5.58774 9.125 6.00195 9.125H7.25195V7.875C7.25195 7.46079 7.58774 7.125 8.00195 7.125Z" fill="#141B34"/>
<circle cx="17" cy="17.875" r="2.5" fill="#141B34"/>
<circle cx="7" cy="17.875" r="2.5" fill="#141B34"/>
</svg>
