<svg width="24" height="24" viewBox="0 0 24 24" fill="none" xmlns="http://www.w3.org/2000/svg">
<path opacity="0.4" d="M5.76871 5.75466C8.98135 2.5473 13.639 1.21132 18.0576 1.94713L18.0705 1.94928C19.0476 2.12953 19.9547 2.61029 20.6661 3.31848L20.6683 3.32065C21.3767 4.03177 21.8575 4.93875 22.0378 5.91563L22.0393 5.92352C22.8066 10.3449 21.4638 15.0195 18.2208 18.2106C15.052 21.4099 10.3234 22.8561 5.9116 22.0141C4.93546 21.8335 4.02916 21.353 3.31841 20.6454L3.31623 20.6432C2.60782 19.9321 2.12697 19.0252 1.94665 18.0483L1.94412 18.0345C1.21335 13.6158 2.55675 8.96136 5.76871 5.75466Z" fill="#141B34"/>
<path fill-rule="evenodd" clip-rule="evenodd" d="M4.12002 21.2944C3.83301 21.1072 3.56416 20.8899 3.31864 20.6454L3.31646 20.6432C3.08511 20.411 2.87802 20.1579 2.69775 19.8883L9.0859 13.5001L8.29289 12.7071C7.90237 12.3166 7.90237 11.6834 8.29289 11.2929C8.68342 10.9024 9.31658 10.9024 9.7071 11.2929L10.5001 12.0859L12.0859 10.5001L11.2929 9.7071C10.9024 9.31658 10.9024 8.68341 11.2929 8.29289C11.6834 7.90237 12.3166 7.90237 12.7071 8.29289L13.5001 9.0859L19.8961 2.68994C20.1714 2.87249 20.4297 3.0829 20.6663 3.31848L20.6685 3.32065C20.9087 3.56177 21.1227 3.82542 21.3078 4.10667L14.9143 10.5001L15.7071 11.2929C16.0976 11.6834 16.0976 12.3166 15.7071 12.7071C15.3166 13.0976 14.6834 13.0976 14.2929 12.7071L13.5001 11.9143L11.9143 13.5001L12.7071 14.2929C13.0976 14.6834 13.0976 15.3166 12.7071 15.7071C12.3166 16.0976 11.6834 16.0976 11.2929 15.7071L10.5001 14.9143L4.12002 21.2944Z" fill="#141B34"/>
</svg>
