<svg width="24" height="24" viewBox="0 0 24 24" fill="none" xmlns="http://www.w3.org/2000/svg">
<path opacity="0.4" fill-rule="evenodd" clip-rule="evenodd" d="M5.01704 4L4 4C3.44771 4 3 4.44772 3 5C3 5.55229 3.44771 6 4 6H4.93333C8.04441 6 10.2664 6.0026 11.9548 6.25417C13.603 6.49974 14.5982 6.96412 15.344 7.79059C16.103 8.63176 16.5402 9.77831 16.7681 11.6566C16.9983 13.5539 17 16.0421 17 19.4808V21C17 21.5523 17.4477 22 18 22C18.5523 22 19 21.5523 19 21L19 19.4107C19 16.0569 19 13.4475 18.7535 11.4157C18.503 9.3506 17.9834 7.73023 16.8289 6.45074C15.661 5.15654 14.1596 4.56059 12.2495 4.276C10.3969 3.99996 8.02587 3.99998 5.01704 4Z" fill="#141B34"/>
<path d="M6.39913 1.08313C6.03424 0.924287 5.60989 0.996931 5.31861 1.2681L2.82589 3.58871L2.82588 3.58872C2.67386 3.73007 2.49446 3.89688 2.36083 4.05993C2.20224 4.25344 2 4.5672 2 5.00002C2 5.43284 2.20224 5.7466 2.36083 5.94011C2.49446 6.10316 2.67386 6.26997 2.82588 6.41132L2.82588 6.41133L5.31861 8.73194C5.60989 9.00311 6.03424 9.07576 6.39913 8.91692C6.76402 8.75808 7 8.39799 7 8.00002V2.00002C7 1.60205 6.76402 1.24197 6.39913 1.08313Z" fill="#141B34"/>
<path d="M21.9169 18.6009C21.758 18.236 21.3979 18 21 18H15C14.602 18 14.2419 18.236 14.0831 18.6009C13.9242 18.9658 13.9969 19.3901 14.2681 19.6814L16.5887 22.1741C16.73 22.3261 16.8968 22.5055 17.0599 22.6392C17.2534 22.7978 17.5672 23 18 23C18.4328 23 18.7466 22.7978 18.9401 22.6392C19.1031 22.5055 19.2699 22.3261 19.4113 22.1741L21.7319 19.6814C22.0031 19.3901 22.0757 18.9658 21.9169 18.6009Z" fill="#141B34"/>
</svg>
