<svg width="24" height="24" viewBox="0 0 24 24" fill="none" xmlns="http://www.w3.org/2000/svg">
<path opacity="0.4" d="M3.70711 2.29259C3.31658 1.90206 2.68342 1.90206 2.29289 2.29259C1.90237 2.68311 1.90237 3.31628 2.29289 3.7068L6.69768 8.11169L8.11189 6.69748L3.70711 2.29259Z" fill="#141B34"/>
<path d="M6.90868 11.3268C7.46771 11.3942 8.18755 11.481 8.83065 11.4971C9.17065 11.5057 9.53164 11.4962 9.86094 11.4407C10.1542 11.3912 10.6023 11.2782 10.9403 10.9402C11.2783 10.6022 11.3913 10.1541 11.4408 9.86084C11.4963 9.53154 11.5058 9.17055 11.4972 8.83055C11.4811 8.18744 11.3943 7.46767 11.3269 6.90865L11.3108 6.77483C11.2897 6.59825 11.2639 6.38288 11.221 6.20961L11.22 6.20545L11.22 6.20545C11.1896 6.08226 11.0497 5.51578 10.4545 5.31001C9.86091 5.10477 9.40285 5.46061 9.30147 5.53937L9.29949 5.54091C9.15903 5.64998 9.00688 5.80235 8.88371 5.92571L8.11189 6.69753L5.9258 8.88362L5.9258 8.88362C5.80245 9.00679 5.65008 9.15893 5.54101 9.29939L5.53947 9.30137C5.46071 9.40275 5.10487 9.8608 5.31011 10.4544C5.51589 11.0496 6.08237 11.1895 6.20555 11.2199L6.20555 11.2199L6.20971 11.2209C6.38295 11.2638 6.59846 11.2896 6.77502 11.3107L6.77503 11.3107L6.90868 11.3268Z" fill="#141B34"/>
<path opacity="0.4" d="M20.2929 21.7072C20.6834 22.0977 21.3166 22.0977 21.7071 21.7072C22.0976 21.3166 22.0976 20.6835 21.7071 20.293L17.3023 15.8881L15.8881 17.3023L20.2929 21.7072Z" fill="#141B34"/>
<path d="M17.0913 12.673C16.5323 12.6056 15.8124 12.5188 15.1693 12.5026C14.8293 12.4941 14.4684 12.5036 14.1391 12.5591C13.8458 12.6085 13.3977 12.7215 13.0597 13.0595C12.7217 13.3976 12.6087 13.8457 12.5592 14.1389C12.5037 14.4682 12.4942 14.8292 12.5028 15.1692C12.5189 15.8123 12.6057 16.5321 12.6731 17.0911L12.6892 17.2249C12.7103 17.4015 12.7361 17.6169 12.779 17.7902L12.78 17.7943L12.78 17.7943C12.8104 17.9175 12.9503 18.484 13.5455 18.6897C14.1391 18.895 14.5972 18.5391 14.6985 18.4604L14.7005 18.4588C14.841 18.3498 14.9931 18.1974 15.1163 18.074L17.3023 15.888L18.0742 15.1161L18.0742 15.1161C18.1976 14.993 18.3499 14.8408 18.459 14.7004L18.4605 14.6984C18.5393 14.597 18.8951 14.139 18.6899 13.5454C18.4841 12.9502 17.9176 12.8103 17.7944 12.7799L17.7944 12.7799L17.7903 12.7788C17.6171 12.7359 17.4015 12.7102 17.225 12.6891L17.225 12.6891L17.0913 12.673Z" fill="#141B34"/>
</svg>
