<svg width="24" height="24" viewBox="0 0 24 24" fill="none" xmlns="http://www.w3.org/2000/svg">
<path opacity="0.4" fill-rule="evenodd" clip-rule="evenodd" d="M7 4C7.55228 4 8 4.44772 8 5V20C8 20.5523 7.55228 21 7 21C6.44772 21 6 20.5523 6 20V5C6 4.44772 6.44772 4 7 4Z" fill="#141B34"/>
<path opacity="0.4" fill-rule="evenodd" clip-rule="evenodd" d="M17 20C16.4477 20 16 19.5523 16 19L16 4C16 3.44772 16.4477 3 17 3C17.5523 3 18 3.44772 18 4L18 19C18 19.5523 17.5523 20 17 20Z" fill="#141B34"/>
<path d="M6.05993 3.36083C6.25344 3.20224 6.5672 3 7.00002 3C7.43284 3 7.7466 3.20224 7.94011 3.36083C8.10316 3.49446 8.26998 3.67386 8.41133 3.82589L10.7319 6.31861C11.0031 6.60989 11.0758 7.03424 10.9169 7.39913C10.7581 7.76402 10.398 8 10 8H4.00002C3.60205 8 3.24197 7.76402 3.08313 7.39913C2.92429 7.03424 2.99693 6.60989 3.2681 6.31861L5.58871 3.82589C5.73007 3.67387 5.89688 3.49446 6.05993 3.36083Z" fill="#141B34"/>
<path d="M13.0831 16.6009C13.242 16.236 13.6021 16 14 16H20C20.398 16 20.7581 16.236 20.9169 16.6009C21.0758 16.9658 21.0031 17.3901 20.7319 17.6814L18.4113 20.1741C18.27 20.3261 18.1032 20.5055 17.9401 20.6392C17.7466 20.7978 17.4328 21 17 21C16.5672 21 16.2534 20.7978 16.0599 20.6392C15.8969 20.5055 15.7301 20.3261 15.5887 20.1741L13.2681 17.6814C12.9969 17.3901 12.9243 16.9658 13.0831 16.6009Z" fill="#141B34"/>
</svg>
