<svg width="24" height="24" viewBox="0 0 24 24" fill="none" xmlns="http://www.w3.org/2000/svg">
<path opacity="0.4" fill-rule="evenodd" clip-rule="evenodd" d="M8.875 11.9998C8.875 12.552 9.32272 12.9998 9.875 12.9998L19.875 12.9998C20.4273 12.9998 20.875 12.552 20.875 11.9998C20.875 11.4475 20.4273 10.9998 19.875 10.9998L9.875 10.9998C9.32272 10.9998 8.875 11.4475 8.875 11.9998Z" fill="#141B34"/>
<path d="M3.68621 13.225C3.39329 12.9184 3.125 12.5237 3.125 11.999C3.125 11.4743 3.39329 11.0816 3.68621 10.775C3.95899 10.4894 4.38826 10.1513 4.82504 9.80732L5.83884 9.00868C6.58134 8.42371 7.20286 7.93406 7.72013 7.63393C8.24039 7.33207 8.88006 7.0868 9.54328 7.38045C10.2246 7.68211 10.4467 8.33423 10.5369 8.92102C10.6251 9.49509 10.6251 10.2649 10.625 11.1735L10.625 12.8265C10.6251 13.7351 10.6251 14.5049 10.5369 15.079C10.4467 15.6658 10.2246 16.3179 9.54328 16.6195C8.88006 16.9132 8.24039 16.6679 7.72013 16.3661C7.20286 16.0659 6.58132 15.5763 5.83881 14.9913L4.82504 14.1927C4.38826 13.8487 3.95899 13.5106 3.68621 13.225Z" fill="#141B34"/>
</svg>
