<svg width="24" height="24" viewBox="0 0 24 24" fill="none" xmlns="http://www.w3.org/2000/svg">
<path opacity="0.4" fill-rule="evenodd" clip-rule="evenodd" d="M3.99998 11.0001L8.99998 11C9.55226 11 9.99999 11.4477 10 12C10 12.5523 9.55231 13 9.00002 13L4.00002 13.0001C3.44774 13.0001 3.00001 12.5524 3 12.0001C2.99999 11.4479 3.44769 11.0001 3.99998 11.0001Z" fill="#141B34"/>
<path opacity="0.4" fill-rule="evenodd" clip-rule="evenodd" d="M12 3C12.5523 3 13 3.44772 13 4L13 9C13 9.55228 12.5523 10 12 10C11.4477 10 11 9.55228 11 9L11 4C11 3.44772 11.4477 3 12 3Z" fill="#141B34"/>
<path opacity="0.4" fill-rule="evenodd" clip-rule="evenodd" d="M14 12C14 11.4477 14.4477 11 15 11H20C20.5523 11 21 11.4477 21 12C21 12.5523 20.5523 13 20 13H15C14.4477 13 14 12.5523 14 12Z" fill="#141B34"/>
<path opacity="0.4" fill-rule="evenodd" clip-rule="evenodd" d="M12 14C12.5523 14 13 14.4477 13 15V20C13 20.5523 12.5523 21 12 21C11.4477 21 11 20.5523 11 20V15C11 14.4477 11.4477 14 12 14Z" fill="#141B34"/>
<path d="M8.08313 17.6009C8.24197 17.236 8.60205 17 9.00002 17H15C15.398 17 15.7581 17.236 15.9169 17.6009C16.0758 17.9658 16.0031 18.3901 15.7319 18.6814L13.4113 21.1741L13.4113 21.1741C13.27 21.3261 13.1032 21.5055 12.9401 21.6392C12.7466 21.7978 12.4328 22 12 22C11.5672 22 11.2534 21.7978 11.0599 21.6392C10.8969 21.5055 10.7301 21.3261 10.5887 21.1741L10.5887 21.1741L8.2681 18.6814C7.99693 18.3901 7.92429 17.9658 8.08313 17.6009Z" fill="#141B34"/>
<path d="M17.6009 8.08313C17.9658 7.92429 18.3901 7.99693 18.6814 8.2681L21.1741 10.5887L21.1741 10.5887C21.3261 10.7301 21.5055 10.8969 21.6392 11.0599C21.7978 11.2534 22 11.5672 22 12C22 12.4328 21.7978 12.7466 21.6392 12.9401C21.5055 13.1032 21.3261 13.27 21.1741 13.4113L21.1741 13.4113L18.6814 15.7319C18.3901 16.0031 17.9658 16.0758 17.6009 15.9169C17.236 15.7581 17 15.398 17 15V9.00002C17 8.60205 17.236 8.24197 17.6009 8.08313Z" fill="#141B34"/>
<path d="M11.0599 2.36083C11.2534 2.20224 11.5672 2 12 2C12.4328 2 12.7466 2.20224 12.9401 2.36083C13.1032 2.49446 13.27 2.67387 13.4113 2.82589L15.7319 5.31861C16.0031 5.60989 16.0758 6.03424 15.9169 6.39913C15.7581 6.76402 15.398 7 15 7H9.00002C8.60205 7 8.24197 6.76402 8.08313 6.39913C7.92429 6.03424 7.99693 5.60989 8.2681 5.31861L10.5887 2.82589C10.7301 2.67386 10.8969 2.49446 11.0599 2.36083Z" fill="#141B34"/>
<path d="M6.39913 8.08313C6.76402 8.24197 7 8.60205 7 9.00002V15C7 15.398 6.76402 15.7581 6.39913 15.9169C6.03424 16.0758 5.60989 16.0031 5.31861 15.7319L2.82589 13.4113C2.67386 13.27 2.49446 13.1032 2.36083 12.9401C2.20224 12.7466 2 12.4328 2 12C2 11.5672 2.20224 11.2534 2.36083 11.0599C2.49446 10.8969 2.67387 10.7301 2.82589 10.5887L5.31861 8.2681C5.60989 7.99693 6.03424 7.92429 6.39913 8.08313Z" fill="#141B34"/>
</svg>
