<svg width="24" height="24" viewBox="0 0 24 24" fill="none" xmlns="http://www.w3.org/2000/svg">
<path d="M5.24155 12.3483C5.60149 11.9294 6.23285 11.8816 6.65173 12.2415L12 16.8371L17.3483 12.2415C17.7672 11.8816 18.3985 11.9294 18.7585 12.3483C19.1184 12.7672 19.0706 13.3985 18.6517 13.7585L13.2658 18.3864L13.2658 18.3864C13.1367 18.4975 12.9787 18.6334 12.8259 18.7348C12.64 18.858 12.3628 19 12 19C11.6372 19 11.36 18.858 11.1742 18.7348C11.0214 18.6334 10.8633 18.4975 10.7343 18.3864L5.3483 13.7585C4.92941 13.3985 4.88162 12.7672 5.24155 12.3483Z" fill="#141B34"/>
<path opacity="0.4" d="M5.06237 5.65248C5.20772 5.2603 5.58179 5 6.00005 5L18 5C18.4183 5 18.7924 5.2603 18.9377 5.65248C19.0831 6.04467 18.969 6.48588 18.6518 6.75846L13.2658 11.3864C13.1367 11.4975 12.9787 11.6334 12.8259 11.7348C12.64 11.858 12.3628 12 12 12C11.6373 12 11.3601 11.858 11.1742 11.7348C11.0214 11.6334 10.8634 11.4975 10.7343 11.3864L5.34833 6.75846C5.0311 6.48588 4.91702 6.04467 5.06237 5.65248Z" fill="#141B34"/>
</svg>
