<svg width="24" height="24" viewBox="0 0 24 24" fill="none" xmlns="http://www.w3.org/2000/svg">
<path opacity="0.4" fill-rule="evenodd" clip-rule="evenodd" d="M21.7071 2.29289C22.0976 2.68342 22.0976 3.31658 21.7071 3.70711L14.2071 11.2071C13.8166 11.5976 13.1834 11.5976 12.7929 11.2071C12.4024 10.8166 12.4024 10.1834 12.7929 9.79289L20.2929 2.29289C20.6834 1.90237 21.3166 1.90237 21.7071 2.29289Z" fill="#141B34"/>
<path opacity="0.4" fill-rule="evenodd" clip-rule="evenodd" d="M11.2071 12.7929C11.5976 13.1834 11.5976 13.8166 11.2071 14.2071L3.70711 21.7071C3.31658 22.0976 2.68342 22.0976 2.29289 21.7071C1.90237 21.3166 1.90237 20.6834 2.29289 20.2929L9.79289 12.7929C10.1834 12.4024 10.8166 12.4024 11.2071 12.7929Z" fill="#141B34"/>
<path d="M10.6614 12.008C10.9129 12.0288 11.2815 12.105 11.5899 12.4156C11.8968 12.7248 11.9713 13.0924 11.9918 13.3416C12.0089 13.5492 11.9953 13.7901 11.984 13.9901L11.8132 17.0555C11.7912 17.449 11.5402 17.793 11.172 17.9338C10.8038 18.0747 10.3873 17.9861 10.1083 17.7076L6.2936 13.9003C6.01463 13.6218 5.92523 13.2055 6.06532 12.8371C6.2054 12.4686 6.54883 12.2169 6.94232 12.1941L10.0152 12.0165C10.2131 12.0049 10.4537 11.9908 10.6614 12.008Z" fill="#141B34"/>
<path d="M12.8653 6.06367C13.2337 5.92557 13.6488 6.01627 13.926 6.29541L17.7094 10.1056C17.9867 10.3848 18.0744 10.8007 17.9336 11.1681C17.7927 11.5355 17.4495 11.7862 17.0566 11.8086L13.9842 11.9835C13.785 11.995 13.5453 12.0088 13.3388 11.9922C13.0917 11.9724 12.7238 11.8995 12.414 11.5931C12.1014 11.2839 12.0262 10.9135 12.0068 10.6619C11.9908 10.4551 12.0064 10.216 12.0192 10.0211L12.2184 6.93558C12.2438 6.54301 12.497 6.20177 12.8653 6.06367Z" fill="#141B34"/>
</svg>
