<svg width="24" height="24" viewBox="0 0 24 24" fill="none" xmlns="http://www.w3.org/2000/svg">
<path fill-rule="evenodd" clip-rule="evenodd" d="M12 3.00049C10.3431 3.00049 9 4.34363 9 6.00049V8.00049C9 8.55277 8.55228 9.00049 8 9.00049C7.44772 9.00049 7 8.55277 7 8.00049V6.00049C7 3.23906 9.23858 1.00049 12 1.00049C14.7614 1.00049 17 3.23906 17 6.00049V18.0005C17 20.7619 14.7614 23.0005 12 23.0005C11.4477 23.0005 11 22.5528 11 22.0005C11 21.4482 11.4477 21.0005 12 21.0005C13.6569 21.0005 15 19.6573 15 18.0005V6.00049C15 4.34363 13.6569 3.00049 12 3.00049Z" fill="#141B34"/>
<path opacity="0.4" fill-rule="evenodd" clip-rule="evenodd" d="M10.5 12.0005C9.67157 12.0005 9 12.6721 9 13.5005V18.0005C9 19.6573 10.3431 21.0005 12 21.0005C12.5523 21.0005 13 21.4482 13 22.0005C13 22.5528 12.5523 23.0005 12 23.0005C9.23858 23.0005 7 20.7619 7 18.0005V13.5005C7 11.5675 8.567 10.0005 10.5 10.0005C12.433 10.0005 14 11.5675 14 13.5005V16.0005C14 16.5528 13.5523 17.0005 13 17.0005C12.4477 17.0005 12 16.5528 12 16.0005V13.5005C12 12.6721 11.3284 12.0005 10.5 12.0005Z" fill="#141B34"/>
</svg>
