<svg width="24" height="24" viewBox="0 0 24 24" fill="none" xmlns="http://www.w3.org/2000/svg">
<path d="M16.6586 17.0444C16.6712 16.8009 16.6775 16.6792 16.6486 16.581C16.5942 16.3959 16.454 16.2483 16.272 16.1843C16.1754 16.1504 16.0535 16.1504 15.8098 16.1504H8.18955C7.94576 16.1504 7.82387 16.1504 7.72728 16.1843C7.54528 16.2483 7.40515 16.3959 7.35068 16.581C7.32177 16.6792 7.32807 16.8009 7.34068 17.0444C7.35605 17.341 7.3668 17.7879 7.38251 18.4468C7.4096 19.5829 7.79175 20.6922 8.59005 21.5243C9.3979 22.3663 10.5612 22.8504 11.9997 22.8504C13.4381 22.8504 14.6014 22.3663 15.4093 21.5243C16.2076 20.6922 16.5897 19.5829 16.6168 18.4468C16.6325 17.7879 16.6433 17.341 16.6586 17.0444Z" fill="#141B34"/>
<path opacity="0.4" fill-rule="evenodd" clip-rule="evenodd" d="M20.4676 3.62733C19.3735 3.05261 17.9084 2.70704 16.3845 3.19712C14.0322 0.468146 9.967 0.468153 7.6147 3.19711C6.20865 2.74491 4.73963 2.99934 3.45192 3.66887C3.01964 3.89363 2.48008 4.17417 2.24037 4.87922C2.00194 5.5805 2.30959 6.22997 2.60877 6.85492L7.01622 16.0618C7.23928 16.5278 7.29327 16.6511 7.31615 16.7431H9.02497C9.01396 16.6019 8.99775 16.4652 8.97029 16.3508C8.89556 16.0396 8.7393 15.7241 8.54958 15.3278L7.84038 13.8463C8.35317 13.8728 8.86307 13.7684 9.33143 13.5518L10.0679 16.7431H11.8126L11.1152 13.7211C11.401 13.806 11.697 13.8504 11.9996 13.8504C12.3022 13.8504 12.5982 13.806 12.884 13.7211L12.1866 16.7431H13.9313L14.6678 13.5518C15.1361 13.7684 15.646 13.8728 16.1588 13.8463L15.4496 15.3278C15.2599 15.724 15.1037 16.0396 15.0289 16.3508C15.0015 16.4652 14.9853 16.6019 14.9742 16.7431L16.6831 16.7431C16.7059 16.6511 16.7599 16.5277 16.983 16.0618L21.3904 6.855C21.6896 6.23001 21.9973 5.58054 21.7588 4.87922C21.5041 4.13015 20.911 3.86025 20.4676 3.62733ZM6.73895 11.5455C7.17731 11.9857 7.61879 12.1504 7.9996 12.1504C8.28551 12.1504 8.60562 12.0576 8.93293 11.825L7.33576 4.90389C6.26686 4.46784 5.19336 4.6746 4.32214 5.13231C3.79366 5.40995 3.89138 5.59709 4.14212 6.12088L6.73895 11.5455ZM15.0648 4.27084C13.3938 2.3769 10.6054 2.37691 8.93435 4.27086L10.5734 11.3733C10.5936 11.3917 10.6129 11.4112 10.6314 11.4318C11.1046 11.9576 11.5876 12.1504 11.9996 12.1504C12.4116 12.1504 12.8946 11.9576 13.3678 11.4318C13.3863 11.4113 13.4056 11.3917 13.4258 11.3733L15.0648 4.27084ZM15.0663 11.825C15.3936 12.0575 15.7137 12.1504 15.9996 12.1504C16.3804 12.1504 16.8219 11.9857 17.2603 11.5454C18.1471 9.69289 19.0192 7.8324 19.9218 5.98751C20.1452 5.53097 20.2046 5.4095 19.677 5.13231C18.8057 4.67463 17.7323 4.46787 16.6634 4.9039L15.0663 11.825Z" fill="#141B34"/>
</svg>
