<svg width="24" height="24" viewBox="0 0 24 24" fill="none" xmlns="http://www.w3.org/2000/svg">
<path fill-rule="evenodd" clip-rule="evenodd" d="M2 2.5C2.55228 2.5 3 2.94772 3 3.5V20.5C3 21.0523 2.55228 21.5 2 21.5C1.44772 21.5 1 21.0523 1 20.5V3.5C1 2.94772 1.44772 2.5 2 2.5ZM22 7.5C22.5523 7.5 23 7.94772 23 8.5V20.5C23 21.0523 22.5523 21.5 22 21.5C21.4477 21.5 21 21.0523 21 20.5V8.5C21 7.94772 21.4477 7.5 22 7.5Z" fill="#141B34"/>
<path opacity="0.4" d="M5 10.25C5 9.83579 5.34737 9.5 5.77586 9.5H19.2241C19.6526 9.5 20 9.83579 20 10.25V16.25C20 16.6799 19.9778 17.0763 19.8994 17.4215C19.819 17.7752 19.6693 18.1213 19.3802 18.4008C19.091 18.6803 18.733 18.825 18.3671 18.9027C18.0099 18.9786 17.5999 19 17.1552 19H7.84483C7.40011 19 6.99007 18.9786 6.63295 18.9027C6.26703 18.825 5.90898 18.6803 5.61983 18.4008C5.33068 18.1213 5.18102 17.7752 5.10063 17.4215C5.02218 17.0763 5 16.6799 5 16.25V10.25Z" fill="#141B34"/>
<path d="M5 14.5H1V15.5C1 16.0523 1.44772 16.5 2 16.5H5.00284C5.00086 16.4181 5 14.5847 5 14.5Z" fill="#141B34"/>
<path d="M22 9.5H19.2254C19.6533 9.50065 20 9.83619 20 10.25V11.5H21V14.5H20V16.25C20 16.3347 19.9991 16.4181 19.9972 16.5H22C22.5523 16.5 23 16.0523 23 15.5V10.5C23 9.94772 22.5523 9.5 22 9.5Z" fill="#141B34"/>
<path d="M5.77586 9.50024C5.34737 9.50024 5 9.83603 5 10.2502V10.8455L2.09308 9.38596C1.50693 9.09167 1.23612 8.40347 1.46451 7.78864C1.54525 7.57129 1.68342 7.37937 1.86481 7.23377L1.89515 7.20941C2.41709 6.79035 2.85974 6.43495 3.42409 6.30555C4.00482 6.1724 4.51574 6.30595 5.10286 6.45942L5.20163 6.48519C5.44572 6.54863 5.69538 6.62034 5.91696 6.6978C6.12178 6.7694 6.36428 6.86645 6.55285 6.99667C7.26241 7.48664 7.69606 8.29082 7.74476 9.15508C7.75119 9.26921 7.74944 9.38518 7.74206 9.50024H5.77586Z" fill="#141B34"/>
</svg>
