<svg width="24" height="24" viewBox="0 0 24 24" fill="none" xmlns="http://www.w3.org/2000/svg">
<path opacity="0.4" d="M3.95525 17.2501C3.52244 17.2502 3.12561 17.2502 2.8028 17.2068C2.44732 17.159 2.07159 17.0466 1.76257 16.7376C1.45355 16.4285 1.3411 16.0528 1.29331 15.6973C1.24991 15.3745 1.24995 14.9777 1.25 14.5449L1.25 9.45538C1.24995 9.02256 1.24991 8.62573 1.29331 8.30292C1.3411 7.94744 1.45355 7.57172 1.76257 7.26269C2.07159 6.95367 2.44732 6.84122 2.8028 6.79343C3.12561 6.75003 3.52244 6.75007 3.95526 6.75013L7.02375 6.75013V17.2501L3.95526 17.2501H3.95525Z" fill="#141B34"/>
<path fill-rule="evenodd" clip-rule="evenodd" d="M3 12.0001C3 11.4478 3.44772 11.0001 4 11.0001H9C9.55228 11.0001 10 11.4478 10 12.0001C10 12.5524 9.55228 13.0001 9 13.0001H4C3.44772 13.0001 3 12.5524 3 12.0001Z" fill="#141B34"/>
<path opacity="0.4" d="M21.1969 6.79343C21.5524 6.84122 21.9281 6.95367 22.2371 7.26269C22.5461 7.57172 22.6586 7.94744 22.7064 8.30292C22.7498 8.62573 22.7497 9.02256 22.7497 9.45537V9.45539V14.5449V14.5449C22.7497 14.9777 22.7498 15.3745 22.7064 15.6973C22.6586 16.0528 22.5461 16.4285 22.2371 16.7376C21.9281 17.0466 21.5524 17.159 21.1969 17.2068C20.8741 17.2502 20.4772 17.2502 20.0444 17.2501H20.0444L12.4512 17.2501L13.4112 16.0351C15.0026 14.0212 15.2601 12.4694 15.0538 11.2515C14.838 9.97759 14.1011 8.93375 13.3891 7.9357L12.5433 6.75013L20.0444 6.75013C20.4772 6.75007 20.8741 6.75003 21.1969 6.79343Z" fill="#141B34"/>
<path fill-rule="evenodd" clip-rule="evenodd" d="M19 12.0001C19 11.4478 19.4457 11.0001 19.9955 11.0001H20.0045C20.5543 11.0001 21 11.4478 21 12.0001C21 12.5524 20.5543 13.0001 20.0045 13.0001H19.9956C19.4457 13.0001 19 12.5524 19 12.0001Z" fill="#141B34"/>
<path d="M6 11.0001H9.00002C9.5523 11.0001 10 11.4478 10 12.0001C10 12.5524 9.5523 13.0001 9.00002 13.0001H6V11.0001Z" fill="#141B34"/>
<path fill-rule="evenodd" clip-rule="evenodd" d="M6.00654 6.48869C6.68515 5.52752 7.78211 5.11204 9.18007 5.2905C10.8872 5.50844 12.7574 5.92412 14.2162 6.9187C15.7445 7.96069 16.75 9.59121 16.75 12.0001C16.75 14.409 15.7445 16.0396 14.2162 17.0815C12.7574 18.0761 10.8872 18.4918 9.18007 18.7097C7.78211 18.8882 6.68515 18.4727 6.00653 17.5116C5.39892 16.651 5.25 15.5131 5.25 14.4963V9.5039C5.25 8.4871 5.39892 7.34928 6.00654 6.48869ZM7.569 7.60577C7.31513 7.96533 7.16667 8.59988 7.16667 9.5039V14.4963C7.16667 15.4004 7.31513 16.0349 7.569 16.3945C7.75185 16.6535 8.08047 16.9059 8.93886 16.7963C10.5732 16.5877 12.0691 16.2157 13.1411 15.4848C14.1435 14.8013 14.8333 13.7687 14.8333 12.0001C14.8333 10.2316 14.1435 9.19891 13.1411 8.51544C12.0691 7.78458 10.5732 7.41253 8.93886 7.2039C8.08047 7.09432 7.75185 7.34678 7.569 7.60577Z" fill="#141B34"/>
</svg>
