<svg width="24" height="24" viewBox="0 0 24 24" fill="none" xmlns="http://www.w3.org/2000/svg">
<path opacity="0.4" d="M3.89696 11.25H7.51646C7.90505 11.25 8.22929 11.5468 8.26354 11.9339C8.43734 13.8979 10.0546 15.4172 11.9996 15.4172C13.9445 15.4172 15.5618 13.8979 15.7356 11.9339C15.7698 11.5468 16.0941 11.25 16.4826 11.25L20.1355 11.25C20.32 11.2499 20.5275 11.2498 20.7039 11.2742C20.9147 11.3034 21.1888 11.3797 21.417 11.6159C21.6418 11.8485 21.711 12.1198 21.735 12.3309C21.755 12.5067 21.7492 12.7451 21.7447 12.9272C21.734 13.3736 21.7081 13.8331 21.6443 14.2993C21.6347 14.3698 21.6174 14.4981 21.5914 14.5955C21.5595 14.7151 21.4831 14.9315 21.2689 15.099C21.0324 15.284 20.7735 15.2895 20.671 15.2887C20.5687 15.2879 20.4319 15.2718 20.3457 15.2616C19.6174 15.1764 18.8879 15.7876 18.8879 16.5839C18.8879 16.9878 19.0613 17.3463 19.3336 17.5902C19.3974 17.6473 19.4989 17.7381 19.5667 17.8134C19.6357 17.8901 19.7983 18.0827 19.8205 18.375C19.8408 18.6428 19.7353 18.8434 19.6694 18.9479C19.6158 19.0327 19.534 19.132 19.489 19.1865C19.0477 19.724 18.5513 20.2134 18.0085 20.6457C17.9615 20.6833 17.8717 20.755 17.7939 20.8032C17.6956 20.864 17.5161 20.9558 17.276 20.9489C17.0145 20.9414 16.8297 20.8176 16.7505 20.7603C16.6763 20.7065 16.5863 20.6259 16.5322 20.5774C16.3029 20.3724 16.0066 20.2509 15.6826 20.2509C15.0054 20.2509 14.4191 20.8322 14.3883 21.5382C14.3852 21.6108 14.38 21.7304 14.367 21.8202C14.3532 21.9154 14.3142 22.1301 14.1433 22.3214C13.9859 22.4976 13.7997 22.5655 13.6882 22.596C13.6005 22.62 13.4879 22.6366 13.4293 22.6453C12.4948 22.7849 11.5043 22.7849 10.5698 22.6453C10.5112 22.6366 10.3986 22.62 10.3109 22.596C10.1994 22.5655 10.0132 22.4976 9.85581 22.3214C9.68493 22.1301 9.64594 21.9154 9.63211 21.8202C9.61907 21.7305 9.61394 21.6108 9.61084 21.5382C9.58001 20.8322 8.99368 20.2509 8.31656 20.2509C7.99252 20.2509 7.69618 20.3724 7.46693 20.5774C7.41284 20.6259 7.32281 20.7065 7.24857 20.7603C7.16943 20.8176 6.98457 20.9414 6.7231 20.9489C6.483 20.9558 6.30352 20.864 6.20519 20.8032C6.1274 20.755 6.03757 20.6833 5.99056 20.6457C5.44777 20.2134 4.9514 19.724 4.51007 19.1865C4.46511 19.132 4.38333 19.0327 4.32975 18.9478C4.26376 18.8434 4.15833 18.6428 4.17865 18.375C4.20081 18.0827 4.36339 17.8901 4.43236 17.8134C4.50019 17.7381 4.60167 17.6473 4.66552 17.5902C4.93783 17.3463 5.11122 16.9878 5.11122 16.5839C5.11122 15.7876 4.38166 15.1764 3.65339 15.2616C3.56721 15.2718 3.43042 15.2879 3.32809 15.2887C3.22563 15.2895 2.96674 15.284 2.73017 15.099C2.51602 14.9315 2.43964 14.7151 2.40773 14.5955C2.38174 14.4981 2.36437 14.3698 2.35481 14.2993C2.29097 13.8331 2.26514 13.3736 2.2544 12.9272C2.24992 12.7451 2.24407 12.5067 2.2641 12.3309C2.28815 12.1198 2.35728 11.8485 2.58207 11.6159C2.81034 11.3797 3.08437 11.3034 3.2952 11.2742C3.47162 11.2498 3.71245 11.2499 3.89696 11.25Z" fill="#141B34"/>
<path fill-rule="evenodd" clip-rule="evenodd" d="M6.00652 1.55243C7.79877 0.912941 9.86886 1.28404 11.2923 2.70748C12.0375 3.4527 12.4943 4.37515 12.6686 5.34218C13.8824 4.25186 15.5691 3.98584 17.0361 4.5093C17.2481 4.58492 17.4148 4.7517 17.4905 4.96363C18.0385 6.49956 17.7212 8.27623 16.4986 9.49884C15.4803 10.5171 14.0777 10.9074 12.75 10.6928V12.0002C12.75 12.4145 12.4142 12.7502 12 12.7502C11.5858 12.7502 11.25 12.4145 11.25 12.0002L11.25 8.65207C9.6506 8.96692 7.93742 8.52273 6.70724 7.29254C5.2838 5.8691 4.9127 3.79901 5.55219 2.00677C5.62781 1.79483 5.79459 1.62805 6.00652 1.55243Z" fill="#141B34"/>
</svg>
