<svg width="24" height="24" viewBox="0 0 24 24" fill="none" xmlns="http://www.w3.org/2000/svg">
<path opacity="0.4" d="M11.4459 1.41374C10.5371 1.16024 9.81487 1.3604 9.22116 1.78048C8.81626 2.06696 8.44707 2.48365 8.13793 2.83256C8.04847 2.93353 7.9586 3.0341 7.86718 3.13331C7.52136 3.50854 7.19719 3.86028 6.98365 4.19684C6.73508 4.58862 6.59176 5.02514 6.68277 5.54702C6.86679 6.60233 7.8116 7.11612 8.55034 7.34589C9.32824 7.58784 10.211 7.63027 10.8178 7.53009C11.1191 7.48034 11.6834 7.41493 11.9106 7.38927C11.9727 7.38224 12.0345 7.40481 12.0767 7.45104C12.3969 7.80212 12.6613 8.18199 12.9493 8.55877C13.0951 8.74869 13.2429 8.93747 13.3828 9.13182C13.4512 9.22687 13.4918 9.33844 13.5087 9.45432C13.5276 9.58383 13.5522 9.75596 13.5657 9.86622C13.6526 10.5729 13.6968 11.2895 13.8098 11.993C13.8215 12.0658 13.7538 12.1271 13.6824 12.1086C12.8171 11.8847 11.815 11.8066 10.7835 12.05C9.51106 11.0213 7.81416 10.5435 6.17081 10.5611C4.38286 10.5802 2.5458 11.1873 1.28277 12.4568C1.14294 12.5974 1.06445 12.7875 1.06445 12.9858V20.3655C1.06445 20.5538 1.13527 20.7352 1.26284 20.8737C2.45151 22.164 4.19135 22.7857 5.89028 22.8015C7.49365 22.8164 9.14392 22.2925 10.3474 21.1783C10.4026 21.1272 10.4816 21.1097 10.553 21.1333C13.006 21.9469 15.1823 21.8011 17.5853 21.0099L17.6513 20.9882C18.8183 20.604 19.7936 20.2829 20.5397 19.8673C21.3484 19.4167 21.9295 18.8352 22.2892 17.9336C22.6492 17.0314 22.6309 16.1806 22.3794 15.2444C22.1427 14.3635 21.6831 13.3537 21.1212 12.1192L21.0952 12.0621C19.6151 8.81019 17.8747 6.25901 15.2438 3.01359C15.0617 2.78839 14.8797 2.55535 14.6358 2.39324C14.3932 2.23197 14.11 2.15659 13.8326 2.07952L11.4459 1.41374Z" fill="#141B34"/>
<path d="M10.7835 12.0499C10.3682 11.7142 9.90766 11.4371 9.41852 11.2168C9.08517 11.5184 8.77161 11.8834 8.50138 12.267C8.02972 12.9366 7.62684 13.7521 7.47672 14.5569C7.40076 14.9641 7.66928 15.3558 8.07647 15.4317C8.48366 15.5077 8.87532 15.2392 8.95128 14.832C9.05082 14.2983 9.33987 13.6814 9.72768 13.1309C10.089 12.6179 10.4762 12.239 10.7835 12.0499Z" fill="#141B34"/>
</svg>
