<svg width="24" height="24" viewBox="0 0 24 24" fill="none" xmlns="http://www.w3.org/2000/svg">
<path fill-rule="evenodd" clip-rule="evenodd" d="M16.672 20.2922C16.752 19.6974 16.752 18.9482 16.752 18.0497C16.752 17.5672 16.752 17.326 16.6232 17.2365L16.6128 17.2296C16.4804 17.1455 16.2358 17.2483 15.7465 17.4538C14.6189 17.9273 13.4419 18.0054 12.7438 18.0023L11.3404 18.0015C10.168 18.0016 9.11605 18.0016 8.25697 17.8986C7.81512 17.8456 7.36462 17.7598 6.92329 17.6082C6.69835 17.5309 6.58588 17.4922 6.51905 17.4996C6.40628 17.512 6.32907 17.5671 6.28065 17.6697C6.25195 17.7305 6.25195 17.8369 6.25195 18.0497V18.0497C6.25195 18.2636 6.25194 18.469 6.25301 18.6659C6.25451 18.9395 6.25525 19.0764 6.34302 19.1637C6.43079 19.251 6.56927 19.251 6.84625 19.251H9.00195C9.41617 19.251 9.75195 19.5868 9.75195 20.001C9.75195 20.4152 9.41617 20.751 9.00195 20.751H7.18162C6.81417 20.751 6.63045 20.751 6.54368 20.9001C6.45691 21.0492 6.53514 21.1869 6.69159 21.4621C6.78866 21.6328 6.90865 21.7935 7.05741 21.9423C7.51288 22.3977 8.07968 22.5834 8.70748 22.6678C9.30226 22.7478 10.0515 22.7477 10.95 22.7477H12.054C12.9524 22.7477 13.7017 22.7478 14.2964 22.6678C14.9242 22.5834 15.491 22.3977 15.9465 21.9423C16.402 21.4868 16.5876 20.92 16.672 20.2922Z" fill="#141B34"/>
<path opacity="0.4" d="M15.0434 2.06473C14.5143 1.7427 13.915 1.51402 13.2689 1.40436C12.0046 1.18975 10.4765 1.21108 9.23202 1.4101C6.43637 1.85719 4.32285 4.1463 4.25262 6.91428C4.21785 8.28497 4.38545 9.6809 4.61452 11.0433L4.62265 11.0917C4.82107 12.2719 4.98139 13.2255 5.20201 13.9689C5.43104 14.7407 5.74988 15.3788 6.32462 15.865C6.90195 16.3534 7.59459 16.5606 8.4058 16.6579C9.19014 16.752 10.1795 16.752 11.4078 16.752L12.6705 16.7524C13.6125 16.7557 14.8028 16.7599 15.8405 16.0223C16.3297 15.6747 16.6945 15.187 17.2246 14.4785L18.2762 13.1381C18.6152 12.6965 18.9588 12.2073 19.2169 11.6679C19.7988 10.4516 19.9091 8.93684 19.5305 7.69615C19.2982 6.93501 18.8554 6.22189 18.1872 5.77688C17.9328 5.60741 17.8056 5.52268 17.6547 5.58992C17.5038 5.65716 17.4776 5.83652 17.4253 6.19525C17.3886 6.44648 17.3465 6.69319 17.3009 6.93255C17.1251 7.85597 17.0459 8.73853 16.3696 10.302C16.2224 10.6892 15.7889 10.8846 15.4017 10.7374C15.0146 10.5903 14.82 10.1573 14.967 9.77016C15.3545 8.74927 15.6649 7.5053 15.8274 6.65201C15.9906 5.79472 16.0949 4.89099 16.0605 4.07142C16.0527 3.88627 16.038 3.70938 16.0163 3.54127C15.9768 3.23554 15.9571 3.08268 15.709 2.70074C15.4608 2.31879 15.3217 2.23411 15.0434 2.06473Z" fill="#141B34"/>
</svg>
