<svg width="24" height="24" viewBox="0 0 24 24" fill="none" xmlns="http://www.w3.org/2000/svg">
<path opacity="0.4" d="M3.46273 9.5C3.07467 9.5 2.75069 9.79603 2.71577 10.1825L2.51425 13.1632C2.34282 15.0606 2.20708 16.563 2.26262 17.7436C2.31972 18.9573 2.58204 19.9564 3.31185 20.7606C4.04238 21.5656 5.00951 21.9199 6.20789 22.0874C7.37219 22.25 8.87218 22.25 10.7646 22.25H13.2352C15.1276 22.25 16.6276 22.25 17.7919 22.0874C18.9903 21.9199 19.9574 21.5656 20.688 20.7606C21.4178 19.9564 21.6801 18.9573 21.7372 17.7436C21.7927 16.563 21.657 15.0606 21.4856 13.1633L21.284 10.1825C21.2491 9.79603 20.9251 9.5 20.5371 9.5H3.46273Z" fill="#141B34"/>
<path d="M12.1574 1.5C12.7143 1.49994 13.2236 1.49989 13.6477 1.55532C14.1203 1.61709 14.584 1.75732 15.0024 2.10256C15.4095 2.43847 15.6498 2.86686 15.8325 3.31648C16.0044 3.73964 16.16 4.27393 16.3395 4.89061L16.5 5.41962L14.6 6L14.4461 5.49451C14.2491 4.8177 14.1214 4.38334 13.9927 4.06664C13.8704 3.76573 13.7875 3.67801 13.7395 3.63835C13.7027 3.60801 13.6365 3.56045 13.3907 3.52833C12.9321 3.46838 12.4617 3.48974 12.0003 3.48974C11.5389 3.48974 11.0679 3.46838 10.6093 3.52833C10.3635 3.56045 10.2973 3.60801 10.2605 3.63835C10.2125 3.67801 10.1296 3.76573 10.0073 4.06664C9.8786 4.38334 9.75092 4.8177 9.55385 5.49451L9.39997 6L7.5 5.41962L7.6605 4.89061C7.84003 4.27393 7.99557 3.73964 8.16753 3.31648C8.35024 2.86686 8.59053 2.43847 8.99763 2.10256C9.41603 1.75732 9.8797 1.61709 10.3523 1.55532C10.7764 1.49989 11.2857 1.49994 11.8426 1.5L12.1574 1.5Z" fill="#141B34"/>
<path d="M3.90285 5.33943C4.27466 5.24958 4.71459 5.24977 5.32608 5.25003H18.6745C19.286 5.24977 19.7259 5.24958 20.0978 5.33943C21.1436 5.59215 22.0059 6.37257 22.213 7.42558C22.2858 7.79615 22.2372 8.21724 22.1783 8.72736L22.1664 8.8304L22.1659 8.83511C22.0734 9.64386 21.8046 10.3464 21.2906 10.9167C20.7838 11.479 20.0947 11.8498 19.2725 12.1034L15.5718 13.2446C15.4437 13.2841 15.3797 13.3039 15.339 13.2735C15.2982 13.2432 15.2989 13.173 15.3003 13.0326C15.3004 13.0218 15.3004 13.011 15.3004 13.0002V12.3335L15.3005 12.3238C15.3014 12.016 15.3023 11.7045 15.2221 11.4049C15.0094 10.6112 14.3894 9.9912 13.5957 9.77852C13.2961 9.69823 12.9846 9.69918 12.6767 9.70012L12.6671 9.70015H11.3338L11.3241 9.70012C11.0163 9.69918 10.7048 9.69823 10.4051 9.77852C9.61143 9.9912 8.99147 10.6112 8.7788 11.4049C8.69851 11.7045 8.69946 12.016 8.7004 12.3238L8.70043 12.3335V13.0002C8.70043 13.011 8.70048 13.0219 8.70058 13.0327C8.70194 13.1731 8.70262 13.2433 8.6619 13.2736C8.62119 13.304 8.55714 13.2842 8.42903 13.2447L4.7281 12.1034C3.90587 11.8498 3.21683 11.479 2.70996 10.9167C2.19599 10.3464 1.92729 9.64385 1.83473 8.8351L1.82233 8.72744C1.7634 8.21726 1.71475 7.79616 1.78762 7.42558C1.99466 6.37257 2.85699 5.59215 3.90285 5.33943Z" fill="#141B34"/>
<path d="M10 12.3333C10 12.0233 10 11.8683 10.0341 11.7412C10.1265 11.3961 10.3961 11.1265 10.7412 11.0341C10.8683 11 11.0233 11 11.3333 11H12.6667C12.9767 11 13.1317 11 13.2588 11.0341C13.6039 11.1265 13.8735 11.3961 13.9659 11.7412C14 11.8683 14 12.0233 14 12.3333V13C14 14.1046 13.1046 15 12 15C10.8954 15 10 14.1046 10 13V12.3333Z" fill="#141B34"/>
</svg>
