<svg width="24" height="24" viewBox="0 0 24 24" fill="none" xmlns="http://www.w3.org/2000/svg">
<path d="M14.1208 1.92078C13.7494 1.53291 13.2879 1.37981 12.8075 1.31236C12.6104 1.28469 12.3918 1.26932 12.1542 1.26078C11.9662 1.25404 11.8723 1.25066 11.8111 1.30964C11.75 1.36863 11.75 1.46451 11.75 1.65629V14.0002C11.75 14.8437 11.707 15.5719 11.5729 16.1822C11.437 16.801 11.1974 17.3454 10.7713 17.7715C10.3452 18.1976 9.80082 18.4371 9.18205 18.5731C8.57176 18.7071 7.84356 18.7502 7 18.7502H2.16621C2.0286 18.7502 1.9598 18.7502 1.90772 18.7873C1.85563 18.8244 1.83314 18.8894 1.78817 19.0194L1.75155 19.1254C1.55546 19.6922 1.3827 20.1917 1.30284 20.6022C1.21796 21.0385 1.20284 21.5382 1.5088 21.9932C1.82063 22.457 2.29424 22.6209 2.73296 22.6883C3.13642 22.7503 3.65063 22.7502 4.22347 22.7502L13.9999 22.7502C14.4141 22.7502 14.7499 22.4144 14.7499 22.0002L14.7499 4.9524C14.7499 4.28612 14.7499 3.71513 14.6911 3.25848C14.6286 2.7726 14.4879 2.30408 14.1208 1.92078Z" fill="#141B34"/>
<g opacity="0.4">
<path d="M2.9611 17.2499C2.70519 17.2499 2.57723 17.2499 2.51742 17.1659C2.45761 17.082 2.49943 16.961 2.58307 16.7192L3.86253 13.0192C3.9075 12.8891 3.92999 12.8241 3.98208 12.787C4.03416 12.7499 4.10296 12.7499 4.24057 12.7499L9.84955 12.7499C10.0381 12.7499 10.1324 12.7499 10.191 12.8085C10.2495 12.867 10.2495 12.9613 10.2495 13.1499V13.9999C10.2495 14.811 10.2062 15.4101 10.1074 15.8601C10.0104 16.3016 9.87046 16.5503 9.71022 16.7106C9.54998 16.8708 9.30122 17.0107 8.85975 17.1077C8.40978 17.2066 7.81065 17.2499 6.99955 17.2499H2.9611Z" fill="#141B34"/>
<path d="M5.03591 11.2499C4.78 11.2499 4.65204 11.2499 4.59223 11.1659C4.53242 11.082 4.57424 10.961 4.65788 10.7192L7.08505 3.70018C7.24004 3.25191 7.37557 2.8599 7.5224 2.54921C7.68035 2.21496 7.88188 1.90522 8.20625 1.6674C8.53322 1.42768 8.88823 1.33184 9.25295 1.28905C9.4326 1.26797 9.63219 1.25823 9.84883 1.25373C10.0359 1.24985 10.1294 1.24791 10.1895 1.30673C10.2495 1.36555 10.2495 1.46061 10.2495 1.65073V10.8499C10.2495 11.0384 10.2495 11.1327 10.191 11.1913C10.1324 11.2499 10.0381 11.2499 9.84955 11.2499L5.03591 11.2499Z" fill="#141B34"/>
</g>
<path opacity="0.4" d="M18.0561 10.4821C19.0346 10.7879 19.8303 11.0365 20.4503 11.3118C21.0971 11.5991 21.6244 11.9448 22.0213 12.4847C22.4182 13.0246 22.5909 13.631 22.6722 14.3341C22.75 15.0079 22.75 15.8416 22.75 16.8667V16.8667L22.75 20.0451C22.75 20.4779 22.7501 20.8748 22.7067 21.1976C22.6589 21.5531 22.5464 21.9288 22.2374 22.2378C21.9284 22.5468 21.5527 22.6593 21.1972 22.7071C20.8744 22.7505 20.4775 22.7504 20.0447 22.7504L16.8865 22.7504C16.597 22.7504 16.4522 22.7504 16.3733 22.6928C16.3426 22.6704 16.3299 22.6577 16.3076 22.6271C16.25 22.5481 16.25 22.3655 16.25 22.0004V10.7338C16.25 10.3606 16.25 10.174 16.3723 10.0841C16.4946 9.99416 16.6727 10.0498 17.029 10.1612L18.0561 10.4821Z" fill="#141B34"/>
<path fill-rule="evenodd" clip-rule="evenodd" d="M18.9355 15.2501C18.5213 15.2501 18.1855 15.5859 18.1855 16.0001C18.1855 16.4143 18.5213 16.7501 18.9355 16.7501H19.9355C20.3498 16.7501 20.6855 16.4143 20.6855 16.0001C20.6855 15.5859 20.3498 15.2501 19.9355 15.2501H18.9355ZM18.9355 18.2501C18.5213 18.2501 18.1855 18.5859 18.1855 19.0001C18.1855 19.4143 18.5213 19.7501 18.9355 19.7501H19.9355C20.3498 19.7501 20.6855 19.4143 20.6855 19.0001C20.6855 18.5859 20.3498 18.2501 19.9355 18.2501H18.9355Z" fill="#141B34"/>
</svg>
