<svg width="24" height="24" viewBox="0 0 24 24" fill="none" xmlns="http://www.w3.org/2000/svg">
<path opacity="0.4" d="M13.329 3.4632C13.9959 3.65676 14.56 3.82049 15.0044 4.00996C15.4783 4.212 15.8878 4.47153 16.1988 4.89696C16.508 5.3199 16.6356 5.7917 16.6944 6.30997C16.75 6.80073 16.75 7.40469 16.75 8.12629V8.12631V21.9999C16.75 22.4142 16.4142 22.7499 16 22.7499H3C2.58579 22.7499 2.25 22.4142 2.25 21.9999V6.65884V6.65882C2.24997 5.45309 2.24995 4.46833 2.35616 3.71062C2.46614 2.92605 2.70907 2.22557 3.32725 1.7389C3.95216 1.24693 4.68445 1.19005 5.45678 1.29344C6.19427 1.39218 7.11274 1.65881 8.22719 1.98233L13.329 3.4632L13.329 3.4632Z" fill="#141B34"/>
<path d="M16.75 9.25598V11.344L17.6123 11.6027C18.3214 11.8155 18.7708 11.9519 19.0978 12.093C19.4007 12.2237 19.498 12.3179 19.5525 12.3912C19.6071 12.4645 19.6694 12.5848 19.7075 12.9125C19.7487 13.2662 19.7502 13.7358 19.7502 14.4762V22.0001H21.7502L21.7502 14.4225C21.7503 13.7516 21.7503 13.1644 21.6941 12.6814C21.6334 12.1594 21.498 11.6555 21.1571 11.1974C20.8162 10.7392 20.3725 10.4647 19.89 10.2566C19.4434 10.0639 18.881 9.89524 18.2384 9.7025L16.75 9.25598Z" fill="#141B34"/>
<path fill-rule="evenodd" clip-rule="evenodd" d="M7.25 8.00012C7.25 7.58591 7.58579 7.25012 8 7.25012L11 7.25012C11.4142 7.25012 11.75 7.58591 11.75 8.00012C11.75 8.41434 11.4142 8.75012 11 8.75012L8 8.75012C7.58579 8.75012 7.25 8.41434 7.25 8.00012ZM7.25 12.0001C7.25 11.5859 7.58579 11.2501 8 11.2501L11 11.2501C11.4142 11.2501 11.75 11.5859 11.75 12.0001C11.75 12.4143 11.4142 12.7501 11 12.7501L8 12.7501C7.58579 12.7501 7.25 12.4143 7.25 12.0001Z" fill="#141B34"/>
<path d="M8.95526 15.2501L9.00001 15.2501H10L10.0448 15.2501C10.4776 15.2501 10.8744 15.25 11.1972 15.2934C11.5527 15.3412 11.9284 15.4537 12.2374 15.7627C12.5465 16.0717 12.6589 16.4474 12.7067 16.8029C12.7501 17.1257 12.7501 17.5226 12.75 17.9554V17.9554L12.75 22.0001H11.25V18.0001C11.25 17.5075 11.2484 17.2135 11.2201 17.0028C11.2071 16.9062 11.1918 16.8579 11.1828 16.8361C11.1611 16.8271 11.0939 16.793 10.9973 16.7801C10.7866 16.7517 10.4926 16.7501 10 16.7501H9.00001C8.5074 16.7501 8.21339 16.7517 8.00267 16.7801C7.90611 16.793 7.85775 16.8083 7.83597 16.8173C7.82701 16.8391 7.79291 16.9062 7.77993 17.0028C7.7516 17.2135 7.75001 17.5075 7.75001 18.0001V22.0001H6.25001L6.25 17.9554C6.24995 17.5226 6.24991 17.1257 6.29331 16.8029C6.3411 16.4474 6.45355 16.0717 6.76257 15.7627C7.07159 15.4537 7.44732 15.3412 7.8028 15.2934C8.12561 15.25 8.52244 15.2501 8.95526 15.2501Z" fill="#141B34"/>
<path fill-rule="evenodd" clip-rule="evenodd" d="M1 21.7501C1 21.1978 1.44772 20.7501 2 20.7501L22 20.7501C22.5523 20.7501 23 21.1978 23 21.7501C23 22.3024 22.5523 22.7501 22 22.7501L2 22.7501C1.44772 22.7501 1 22.3024 1 21.7501Z" fill="#141B34"/>
</svg>
