<svg width="24" height="24" viewBox="0 0 24 24" fill="none" xmlns="http://www.w3.org/2000/svg">
<path opacity="0.4" d="M5.31726 1.2862C5.88395 1.40333 6.33524 1.78406 6.61564 2.2871L7.50885 3.88954C7.83786 4.47975 8.11473 4.97643 8.29554 5.4082C8.48735 5.86622 8.60126 6.31788 8.54919 6.81724C8.49711 7.3166 8.29246 7.73504 8.01029 8.14362C7.74428 8.5288 7.37088 8.95768 6.92718 9.4673L5.61417 10.9755C5.37889 11.2458 5.26124 11.3809 5.25049 11.5498C5.23974 11.7187 5.33616 11.8629 5.529 12.1515C7.17259 14.6105 9.38773 16.8265 11.8488 18.4714C12.1374 18.6643 12.2816 18.7607 12.4505 18.75C12.6194 18.7392 12.7546 18.6216 13.0248 18.3863L14.5331 17.0732C15.0427 16.6295 15.4716 16.2561 15.8568 15.9901C16.2653 15.7079 16.6838 15.5033 17.1831 15.4512C17.6825 15.3991 18.1342 15.513 18.5922 15.7048C19.0239 15.8856 19.5206 16.1625 20.1107 16.4915L20.1109 16.4915L21.7133 17.3848C22.2163 17.6651 22.5971 18.1164 22.7142 18.6831C22.8325 19.2557 22.658 19.8313 22.2724 20.3043C20.8735 22.0207 18.6322 23.1135 16.281 22.6392C14.8358 22.3477 13.4098 21.862 11.6851 20.8728C8.2197 18.8855 5.11263 15.7767 3.12755 12.3153C2.13843 10.5906 1.65272 9.16464 1.36118 7.71937C0.88688 5.36815 1.97971 3.12687 3.69608 1.72797C4.16911 1.34243 4.74466 1.16785 5.31726 1.2862Z" fill="#141B34"/>
<path fill-rule="evenodd" clip-rule="evenodd" d="M20.001 5.74906V4.68738C20.001 3.31571 18.8557 2.24988 17.501 2.24988C16.1462 2.24988 15.001 3.31571 15.001 4.68738V5.74906C14.9258 5.77184 14.8512 5.79917 14.777 5.83208C14.1569 6.10731 13.6799 6.62753 13.4346 7.2619C13.3287 7.53583 13.288 7.81714 13.2691 8.1138C13.251 8.39927 13.251 8.74703 13.251 9.16377V9.21098C13.251 9.62772 13.251 9.97548 13.2691 10.261C13.288 10.5576 13.3287 10.8389 13.4346 11.1129C13.6799 11.7472 14.1569 12.2674 14.777 12.5427C15.0494 12.6635 15.3282 12.7092 15.6138 12.73C15.8854 12.7499 16.2144 12.7499 16.5998 12.7499H18.4021C18.7875 12.7499 19.1166 12.7499 19.3882 12.73C19.6737 12.7092 19.9526 12.6635 20.2249 12.5427C20.8451 12.2674 21.3221 11.7472 21.5673 11.1129C21.6732 10.8389 21.7139 10.5576 21.7328 10.261C21.751 9.97548 21.751 9.62773 21.751 9.21098V9.16379C21.751 8.74705 21.751 8.39927 21.7328 8.1138C21.7139 7.81714 21.6732 7.53583 21.5673 7.2619C21.3221 6.62753 20.8451 6.10731 20.2249 5.83208C20.1507 5.79917 20.0761 5.77184 20.001 5.74906ZM16.501 4.68738C16.501 4.19509 16.9227 3.74988 17.501 3.74988C18.0792 3.74988 18.501 4.19509 18.501 4.68738V5.62489H16.501V4.68738Z" fill="#141B34"/>
</svg>
