<svg width="24" height="24" viewBox="0 0 24 24" fill="none" xmlns="http://www.w3.org/2000/svg">
<path opacity="0.4" d="M5.31726 1.28608C5.88395 1.4032 6.33524 1.78394 6.61564 2.28697L7.50885 3.88942C7.83786 4.47962 8.11473 4.97631 8.29554 5.40808C8.48735 5.8661 8.60126 6.31775 8.54919 6.81712C8.49711 7.31648 8.29246 7.73491 8.01029 8.1435C7.74428 8.52868 7.37088 8.95755 6.92718 9.46718L5.61417 10.9754C5.37889 11.2456 5.26124 11.3808 5.25049 11.5497C5.23974 11.7186 5.33616 11.8628 5.529 12.1513C7.17259 14.6104 9.38773 16.8263 11.8488 18.4713C12.1374 18.6642 12.2816 18.7606 12.4505 18.7498C12.6194 18.7391 12.7546 18.6214 13.0248 18.3862L14.5331 17.0731C15.0427 16.6294 15.4716 16.256 15.8568 15.99C16.2653 15.7078 16.6838 15.5031 17.1831 15.4511C17.6825 15.399 18.1342 15.5129 18.5922 15.7047C19.0239 15.8855 19.5206 16.1624 20.1107 16.4913L20.1109 16.4914L21.7133 17.3846C22.2163 17.665 22.5971 18.1163 22.7142 18.683C22.8325 19.2556 22.658 19.8312 22.2724 20.3042C20.8735 22.0205 18.6322 23.1134 16.281 22.6391C14.8358 22.3475 13.4098 21.8618 11.6851 20.8727C8.2197 18.8853 5.11263 15.7765 3.12755 12.3152C2.13843 10.5905 1.65272 9.16452 1.36118 7.71925C0.88688 5.36803 1.97971 3.12675 3.69608 1.72785C4.16911 1.3423 4.74466 1.16773 5.31726 1.28608Z" fill="#141B34"/>
<path d="M20.7068 4.70686C21.0973 4.31634 21.0973 3.68317 20.7068 3.29265C20.3163 2.90212 19.6831 2.90212 19.2926 3.29265L15.0308 7.5544L14.2687 6.79224L14.2538 6.77736C14.1982 6.72146 14.0989 6.62174 14.0009 6.54613L13.9977 6.54365C13.927 6.48886 13.5065 6.16323 12.9521 6.3579C12.3952 6.55346 12.2716 7.07522 12.2517 7.15946L12.2506 7.16426C12.2217 7.2843 12.2065 7.42436 12.1978 7.50467L12.1955 7.52601C12.1839 7.6311 12.1692 7.75323 12.153 7.88707C12.1012 8.31706 12.0348 8.86797 12.0104 9.36337C11.9942 9.69232 11.9929 10.049 12.0364 10.3744C12.0722 10.6423 12.1617 11.0995 12.4894 11.4486C12.4991 11.4592 12.5092 11.4697 12.5195 11.48C12.5295 11.49 12.5396 11.4997 12.5499 11.5092C12.8992 11.8379 13.3571 11.9275 13.6253 11.9634C13.9507 12.0069 14.3074 12.0056 14.6364 11.9894C15.1318 11.965 15.6827 11.8986 16.1127 11.8467C16.2465 11.8306 16.3687 11.8159 16.4737 11.8043L16.4951 11.8019C16.5754 11.7932 16.7155 11.7781 16.8355 11.7492L16.8403 11.7481C16.9245 11.7281 17.4463 11.6045 17.6419 11.0476C17.8365 10.4933 17.5109 10.0728 17.4561 10.002L17.4536 9.99884C17.378 9.90084 17.2783 9.80157 17.2224 9.74591L17.2075 9.73109L16.445 8.96861L20.7068 4.70686Z" fill="#141B34"/>
</svg>
