<svg width="24" height="24" viewBox="0 0 24 24" fill="none" xmlns="http://www.w3.org/2000/svg">
<path opacity="0.4" d="M5.31726 1.2862C5.88395 1.40333 6.33524 1.78406 6.61564 2.2871L7.50885 3.88954C7.83786 4.47975 8.11473 4.97643 8.29554 5.4082C8.48735 5.86622 8.60126 6.31788 8.54919 6.81724C8.49711 7.3166 8.29246 7.73504 8.01029 8.14362C7.74428 8.5288 7.37088 8.95768 6.92718 9.4673L5.61417 10.9755C5.37889 11.2458 5.26124 11.3809 5.25049 11.5498C5.23974 11.7187 5.33616 11.8629 5.529 12.1515C7.17259 14.6105 9.38773 16.8265 11.8488 18.4714C12.1374 18.6643 12.2816 18.7607 12.4505 18.75C12.6194 18.7392 12.7546 18.6216 13.0248 18.3863L14.5331 17.0732C15.0427 16.6295 15.4716 16.2561 15.8568 15.9901C16.2653 15.7079 16.6838 15.5033 17.1831 15.4512C17.6825 15.3991 18.1342 15.513 18.5922 15.7048C19.0239 15.8856 19.5206 16.1625 20.1107 16.4915L20.1109 16.4915L21.7133 17.3848C22.2163 17.6651 22.5971 18.1164 22.7142 18.6831C22.8325 19.2557 22.658 19.8313 22.2724 20.3043C20.8735 22.0207 18.6322 23.1135 16.281 22.6392C14.8358 22.3477 13.4098 21.862 11.6851 20.8728C8.2197 18.8855 5.11263 15.7767 3.12755 12.3153C2.13843 10.5906 1.65272 9.16464 1.36118 7.71937C0.88688 5.36815 1.97971 3.12687 3.69608 1.72797C4.16911 1.34243 4.74466 1.16785 5.31726 1.2862Z" fill="#141B34"/>
<path d="M14.7813 4.9522C14.7813 3.45383 16.0044 2.24988 17.5 2.24988C18.1725 2.24988 18.7904 2.49359 19.2656 2.89721C19.5813 3.16536 19.6198 3.63867 19.3517 3.95437C19.0835 4.27007 18.6102 4.30861 18.2945 4.04046C18.0813 3.85936 17.8049 3.74988 17.5 3.74988C16.821 3.74988 16.2813 4.29409 16.2813 4.9522V5.6115C16.4472 5.60984 16.6244 5.60984 16.8129 5.60985H18.1871C18.6715 5.60983 19.0813 5.60982 19.4167 5.63811C19.7683 5.66777 20.1063 5.73251 20.4262 5.90209C20.8618 6.13301 21.2197 6.4874 21.4536 6.92133C21.6257 7.24071 21.6914 7.57821 21.7214 7.92836C21.75 8.26178 21.75 8.66881 21.75 9.14865V9.21108C21.75 9.69091 21.75 10.0979 21.7214 10.4314C21.6914 10.7815 21.6257 11.119 21.4536 11.4384C21.2197 11.8723 20.8618 12.2267 20.4262 12.4576C20.1063 12.6272 19.7683 12.692 19.4167 12.7216C19.0813 12.7499 18.6715 12.7499 18.1871 12.7499H18.1871H16.8129H16.8129C16.3285 12.7499 15.9187 12.7499 15.5833 12.7216C15.2317 12.692 14.8937 12.6272 14.5738 12.4576C14.1382 12.2267 13.7803 11.8723 13.5464 11.4384C13.3743 11.119 13.3086 10.7815 13.2786 10.4314C13.25 10.0979 13.25 9.69092 13.25 9.21109V9.21107V9.14866V9.14863C13.25 8.6688 13.25 8.26178 13.2786 7.92836C13.3086 7.57821 13.3743 7.24071 13.5464 6.92133C13.7803 6.4874 14.1382 6.13301 14.5738 5.90209C14.6421 5.86587 14.7113 5.83443 14.7813 5.80709V4.9522Z" fill="#141B34"/>
</svg>
