<svg width="24" height="24" viewBox="0 0 24 24" fill="none" xmlns="http://www.w3.org/2000/svg">
<path fill-rule="evenodd" clip-rule="evenodd" d="M1.29289 1.29289C1.68342 0.902369 2.31658 0.902369 2.70711 1.29289L22.7071 21.2929C23.0976 21.6834 23.0976 22.3166 22.7071 22.7071C22.3166 23.0976 21.6834 23.0976 21.2929 22.7071L1.29289 2.70711C0.902369 2.31658 0.902369 1.68342 1.29289 1.29289Z" fill="#141B34"/>
<path d="M9.46668 17.0731C8.95706 16.6294 8.52819 16.256 8.14301 15.99C7.73443 15.7078 7.31599 15.5032 6.81663 15.4511C6.31727 15.399 5.86561 15.5129 5.40759 15.7047C4.97589 15.8855 4.479 16.1625 3.88892 16.4914L2.28648 17.3846C1.78345 17.665 1.40271 18.1163 1.28559 18.683C1.16724 19.2556 1.34182 19.8312 1.72736 20.3042C3.12626 22.0206 5.36755 23.1134 7.71876 22.6391C9.16403 22.3476 10.59 21.8618 12.3147 20.8727C13.8789 19.9757 15.3701 18.8501 16.7181 17.5668C16.9204 17.3742 17.0216 17.2778 17.0231 17.1514C17.0247 17.025 16.9242 16.9245 16.7232 16.7235L16.0412 16.0415C15.8422 15.8425 15.7428 15.7431 15.6208 15.7415C15.4987 15.74 15.3949 15.8387 15.1873 16.036C14.2391 16.9373 13.2182 17.758 12.151 18.4713C11.8624 18.6642 11.7182 18.7606 11.5493 18.7499C11.3804 18.7391 11.2452 18.6215 10.975 18.3862L9.46668 17.0731Z" fill="#141B34"/>
<path opacity="0.4" d="M18.682 1.28608C18.1154 1.4032 17.6641 1.78394 17.3837 2.28697L16.4905 3.88942C16.1614 4.47962 15.8846 4.97631 15.7038 5.40808C15.512 5.8661 15.398 6.31775 15.4501 6.81712C15.5022 7.31648 15.7068 7.73491 15.989 8.1435C16.255 8.52868 16.6284 8.95755 17.0721 9.46718L18.3851 10.9754C18.6204 11.2456 18.7381 11.3808 18.7488 11.5497C18.7596 11.7186 18.6631 11.8628 18.4703 12.1513C18.2027 12.5517 17.92 12.9456 17.6235 13.3317C17.4653 13.5377 17.3862 13.6407 17.3935 13.7534C17.4009 13.8661 17.491 13.9562 17.6713 14.1365L18.3531 14.8183C18.574 15.0392 18.6845 15.1497 18.8202 15.1407C18.9559 15.1318 19.0492 15.01 19.2358 14.7664C19.8401 13.9775 20.3891 13.1568 20.8718 12.3152C21.8609 10.5905 22.3466 9.16451 22.6381 7.71925C23.1124 5.36803 22.0196 3.12675 20.3032 1.72785C19.8302 1.3423 19.2546 1.16773 18.682 1.28608Z" fill="#141B34"/>
</svg>
