<svg width="24" height="24" viewBox="0 0 24 24" fill="none" xmlns="http://www.w3.org/2000/svg">
<path opacity="0.4" d="M5.31726 1.28608C5.88395 1.4032 6.33524 1.78394 6.61564 2.28697L7.50885 3.88942C7.83786 4.47962 8.11473 4.97631 8.29554 5.40808C8.48735 5.8661 8.60126 6.31775 8.54919 6.81712C8.49711 7.31648 8.29246 7.73491 8.01029 8.1435C7.74428 8.52868 7.37088 8.95755 6.92718 9.46718L5.61417 10.9754C5.37889 11.2456 5.26124 11.3808 5.25049 11.5497C5.23974 11.7186 5.33616 11.8628 5.529 12.1513C7.17259 14.6104 9.38773 16.8263 11.8488 18.4713C12.1374 18.6642 12.2816 18.7606 12.4505 18.7498C12.6194 18.7391 12.7546 18.6214 13.0248 18.3862L14.5331 17.0731C15.0427 16.6294 15.4716 16.256 15.8568 15.99C16.2653 15.7078 16.6838 15.5031 17.1831 15.4511C17.6825 15.399 18.1342 15.5129 18.5922 15.7047C19.0239 15.8855 19.5206 16.1624 20.1107 16.4913L20.1109 16.4914L21.7133 17.3846C22.2163 17.665 22.5971 18.1163 22.7142 18.683C22.8325 19.2556 22.658 19.8312 22.2724 20.3042C20.8735 22.0205 18.6322 23.1134 16.281 22.6391C14.8358 22.3475 13.4098 21.8618 11.6851 20.8727C8.2197 18.8853 5.11263 15.7765 3.12755 12.3152C2.13843 10.5905 1.65272 9.16452 1.36118 7.71925C0.88688 5.36803 1.97971 3.12675 3.69608 1.72785C4.16911 1.3423 4.74466 1.16773 5.31726 1.28608Z" fill="#141B34"/>
<path fill-rule="evenodd" clip-rule="evenodd" d="M13 6.50586C12.4477 6.50586 12 6.05814 12 5.50586C12 4.95357 12.4477 4.50586 13 4.50586L17.5 4.50586L17.5 3.9116C17.4999 3.73596 17.4997 3.52031 17.5218 3.34387L17.5222 3.34053C17.538 3.21408 17.6098 2.63804 18.1754 2.36368C18.7423 2.08872 19.2424 2.39065 19.3506 2.45597L19.3546 2.45841C19.5076 2.55062 19.6785 2.68477 19.8191 2.79511L19.8493 2.81885C20.2252 3.11348 20.7094 3.49545 21.1004 3.87588C21.2955 4.06571 21.4967 4.28297 21.6556 4.51388C21.7968 4.71914 22 5.06933 22 5.5C22 5.93067 21.7968 6.28086 21.6556 6.48612C21.4967 6.71703 21.2955 6.93429 21.1004 7.12412C20.7094 7.50455 20.2252 7.88652 19.8493 8.18115L19.8191 8.20488C19.6785 8.31523 19.5077 8.44938 19.3546 8.54159L19.3506 8.54403C19.2424 8.60935 18.7422 8.91128 18.1754 8.63632C17.6098 8.36196 17.538 7.78592 17.5222 7.65947L17.5218 7.65613C17.4997 7.47969 17.4999 7.26403 17.5 7.0884L17.5 6.50586L13 6.50586Z" fill="#141B34"/>
</svg>
