<svg width="24" height="24" viewBox="0 0 24 24" fill="none" xmlns="http://www.w3.org/2000/svg">
<path opacity="0.4" d="M11.9696 1.25H12.0324C12.6365 1.24999 13.1365 1.24998 13.5495 1.28515C13.9822 1.32201 14.3732 1.40069 14.7504 1.58742C15.4223 1.92009 15.8471 2.44877 16.1453 2.979C16.3765 3.39004 16.556 3.85182 16.7081 4.24318C16.744 4.33553 16.7783 4.42396 16.8115 4.50689L17.1091 5.25086C18.2363 5.25543 19.0446 5.28193 19.7424 5.57479C20.6902 5.97261 21.4595 6.70632 21.9081 7.63547C22.1083 8.05002 22.2102 8.49536 22.2777 9.01254C22.3434 9.51676 22.3818 10.1389 22.4298 10.9174L22.5899 13.5123C22.7097 15.4557 22.8045 16.9915 22.716 18.196C22.6252 19.4329 22.3352 20.4418 21.5872 21.2486C20.8377 22.0571 19.8579 22.4154 18.6404 22.5851C17.4577 22.75 15.9376 22.75 14.018 22.75H9.98371C8.06409 22.75 6.54398 22.75 5.36126 22.5851C4.14379 22.4154 3.16395 22.0571 2.41451 21.2486C1.66653 20.4418 1.37649 19.4329 1.28567 18.196C1.19723 16.9915 1.29196 15.4557 1.41183 13.5123L1.57188 10.9172C1.61988 10.1388 1.65824 9.51672 1.72401 9.01254C1.79147 8.49536 1.89339 8.05002 2.09356 7.63547C2.54221 6.70632 3.3115 5.97261 4.25931 5.57479C4.95711 5.2819 5.76554 5.25543 6.89286 5.25086L7.19045 4.50689C7.22362 4.42397 7.25799 4.33554 7.29388 4.2432C7.44599 3.85184 7.62548 3.39004 7.85665 2.979C8.15485 2.44877 8.57963 1.92009 9.25156 1.58742C9.62873 1.40069 10.0198 1.32201 10.4525 1.28515C10.8654 1.24998 11.3655 1.24999 11.9696 1.25Z" fill="#141B34"/>
<path fill-rule="evenodd" clip-rule="evenodd" d="M7.99902 11.5C7.99902 10.9477 8.44674 10.5 8.99902 10.5H9.00799C9.56028 10.5 10.008 10.9477 10.008 11.5C10.008 12.0523 9.56028 12.5 9.00799 12.5H8.99902C8.44674 12.5 7.99902 12.0523 7.99902 11.5ZM13.9901 11.5C13.9901 10.9477 14.4378 10.5 14.9901 10.5H14.999C15.5513 10.5 15.999 10.9477 15.999 11.5C15.999 12.0523 15.5513 12.5 14.999 12.5H14.9901C14.4378 12.5 13.9901 12.0523 13.9901 11.5Z" fill="#141B34"/>
<path d="M8.87793 14.8318C9.24602 14.422 9.87603 14.3871 10.287 14.7532L10.2892 14.7551C10.2928 14.7582 10.3003 14.7646 10.3114 14.7738C10.3336 14.7923 10.3699 14.8217 10.4185 14.8584C10.5165 14.9325 10.6597 15.0328 10.8337 15.1326C11.1995 15.3425 11.6141 15.5 11.9941 15.5C12.3741 15.5 12.7887 15.3425 13.1544 15.1326C13.3284 15.0328 13.4716 14.9325 13.5697 14.8584C13.6183 14.8217 13.6546 14.7923 13.6768 14.7738C13.6879 14.7646 13.6959 14.7578 13.6995 14.7547L13.7011 14.7532C14.1121 14.3871 14.7421 14.422 15.1102 14.8318C15.4792 15.2428 15.4453 15.875 15.0344 16.244C14.7713 16.5107 14.4141 16.7157 14.1526 16.8657L14.1498 16.8674C13.6441 17.1575 12.8726 17.5 11.9941 17.5C11.1155 17.5 10.344 17.1575 9.83837 16.8674C9.57664 16.7172 9.3628 16.5675 9.21271 16.4541C9.13725 16.397 9.07675 16.3483 9.03316 16.3121C9.01133 16.294 8.99366 16.2789 8.98037 16.2674L8.96373 16.2529L8.95792 16.2477L8.95564 16.2457L8.9538 16.244C8.54288 15.875 8.50892 15.2428 8.87793 14.8318Z" fill="#141B34"/>
</svg>
