<svg width="24" height="24" viewBox="0 0 24 24" fill="none" xmlns="http://www.w3.org/2000/svg">
<path opacity="0.4" d="M9.59333 5.25C11.0697 5.24998 12.2532 5.24997 13.1825 5.37372C14.1441 5.50178 14.9455 5.77447 15.5815 6.4044C16.2185 7.03531 16.4952 7.83196 16.6249 8.78785C16.75 9.70973 16.75 10.8831 16.75 12.3443V15.6557C16.75 17.1169 16.75 18.2903 16.6249 19.2122C16.4952 20.168 16.2185 20.9647 15.5815 21.5956C14.9455 22.2255 14.1441 22.4982 13.1825 22.6263C12.2532 22.75 11.0698 22.75 9.59334 22.75H8.40666C6.93025 22.75 5.74682 22.75 4.81751 22.6263C3.85586 22.4982 3.05447 22.2255 2.41848 21.5956C1.78151 20.9647 1.50485 20.168 1.3751 19.2122C1.24996 18.2903 1.24998 17.1169 1.25 15.6557V15.6557V12.3443V12.3443C1.24998 10.8831 1.24996 9.70973 1.3751 8.78785C1.50485 7.83196 1.78151 7.03531 2.41848 6.4044C3.05447 5.77447 3.85586 5.50178 4.81751 5.37372C5.74683 5.24997 6.93026 5.24998 8.40667 5.25H8.40669H9.59332H9.59333Z" fill="#141B34"/>
<path fill-rule="evenodd" clip-rule="evenodd" d="M5 12C5 11.4477 5.44772 11 6 11H9C9.55228 11 10 11.4477 10 12C10 12.5523 9.55228 13 9 13H6C5.44772 13 5 12.5523 5 12ZM5 17C5 16.4477 5.44772 16 6 16H11C11.5523 16 12 16.4477 12 17C12 17.5523 11.5523 18 11 18H6C5.44772 18 5 17.5523 5 17Z" fill="#141B34"/>
<path d="M19.3845 1.36163C18.5627 1.24993 17.5268 1.24996 16.2812 1.25H15.2172C13.9716 1.24996 12.9357 1.24993 12.1139 1.36163C11.2468 1.47949 10.4706 1.73812 9.84865 2.36687C9.73033 2.48648 9.62279 2.61437 9.52576 2.75108C9.14329 3.29001 8.96275 3.91111 8.86798 4.57713C8.83786 4.78879 8.81542 5.01313 8.79868 5.25H9.59332C11.0697 5.24998 12.2532 5.24997 13.1825 5.37372C13.7154 5.44468 14.199 5.56004 14.6326 5.75599L12.285 3.70185C12.1497 3.58343 12.2051 3.36763 12.3833 3.34341C13.0545 3.25217 13.9534 3.25 15.2876 3.25H16.2108C17.545 3.25 18.4439 3.25217 19.1151 3.34341C19.7564 3.43057 20.0386 3.58198 20.2279 3.77334C20.4186 3.96621 20.5704 4.2559 20.6573 4.90947C20.7479 5.59069 20.75 6.5021 20.75 7.85V10.65C20.75 11.9979 20.7479 12.9093 20.6573 13.5905C20.5704 14.2441 20.4186 14.5338 20.2279 14.7267C20.0386 14.918 19.7564 15.0694 19.1151 15.1566C18.5386 15.235 17.7941 15.2476 16.75 15.2496V15.6557C16.75 16.2309 16.75 16.7616 16.7424 17.2498C17.7847 17.2483 18.6664 17.236 19.3845 17.1384C20.2516 17.0205 21.0278 16.7619 21.6498 16.1331C22.2702 15.5059 22.524 14.7256 22.6399 13.8542C22.7501 13.0256 22.75 11.9802 22.75 10.7193V7.78076C22.75 6.51982 22.7501 5.47443 22.6399 4.64582C22.524 3.77443 22.2702 2.9941 21.6498 2.36687C21.0278 1.73812 20.2516 1.47949 19.3845 1.36163Z" fill="#141B34"/>
</svg>
