<svg width="24" height="24" viewBox="0 0 24 24" fill="none" xmlns="http://www.w3.org/2000/svg">
<path opacity="0.4" d="M14.2049 4.47908C14.7456 4.36617 15.0923 3.83638 14.9794 3.29576C14.8665 2.75514 14.3367 2.40841 13.7961 2.52132C12.4705 2.79816 10.3214 3.61106 8.61436 5.12762C7.39641 6.20968 6.3872 7.67247 6.09165 9.53432C3.31811 10.1731 1.25 12.6575 1.25 15.625C1.25 19.0768 4.04822 21.875 7.5 21.875C8.36593 21.875 9.19073 21.6989 9.94054 21.3806C10.1126 21.3075 10.164 21.0929 10.0598 20.9377C9.2326 19.7048 8.75 18.2213 8.75 16.625C8.75 14.4127 9.67694 12.4169 11.1636 11.0049C11.2991 10.8762 11.2959 10.6558 11.1442 10.5468C10.2861 9.92992 9.26527 9.52516 8.15845 9.40927C8.44625 8.2734 9.11316 7.35977 9.9427 6.62278C11.331 5.38934 13.1364 4.70224 14.2049 4.47908Z" fill="#141B34"/>
<path d="M10.25 16.625C10.25 13.1732 13.0482 10.375 16.5 10.375C19.9518 10.375 22.75 13.1732 22.75 16.625C22.75 20.0768 19.9518 22.875 16.5 22.875C13.0482 22.875 10.25 20.0768 10.25 16.625Z" fill="#141B34"/>
<path fill-rule="evenodd" clip-rule="evenodd" d="M16.8615 1.49267C17.1417 1.96856 16.9832 2.58154 16.5073 2.86182C15.5988 3.39688 15.0044 3.9759 14.6253 4.55076C13.8241 5.76544 13.8526 7.18292 14.3706 8.62789C14.8916 10.0816 15.8691 11.4294 16.7175 12.3038C17.1021 12.7002 17.0925 13.3333 16.6961 13.7179C16.2998 14.1024 15.6667 14.0929 15.2821 13.6965C14.2904 12.6744 13.1287 11.0907 12.4878 9.30272C11.8439 7.50605 11.6878 5.3718 12.9557 3.44955C13.5296 2.57945 14.3666 1.80152 15.4923 1.1385C15.9682 0.858222 16.5812 1.01679 16.8615 1.49267Z" fill="#141B34"/>
</svg>
