<svg width="24" height="24" viewBox="0 0 24 24" fill="none" xmlns="http://www.w3.org/2000/svg">
<path opacity="0.4" d="M1.25 12C1.25 6.06294 6.06294 1.25 12 1.25C17.9371 1.25 22.75 6.06294 22.75 12C22.75 17.9371 17.9371 22.75 12 22.75C6.06294 22.75 1.25 17.9371 1.25 12Z" fill="#141B34"/>
<path fill-rule="evenodd" clip-rule="evenodd" d="M10.0761 8.61732C10.2309 8.24364 10.5955 8 11 8H15C15.5523 8 16 8.44772 16 9V13C16 13.4045 15.7564 13.7691 15.3827 13.9239C15.009 14.0787 14.5789 13.9931 14.2929 13.7071L13 12.4142L9.70711 15.7071C9.31658 16.0976 8.68342 16.0976 8.29289 15.7071C7.90237 15.3166 7.90237 14.6834 8.29289 14.2929L11.5858 11L10.2929 9.70711C10.0069 9.42111 9.92134 8.99099 10.0761 8.61732Z" fill="#141B34"/>
</svg>
