<svg width="24" height="24" viewBox="0 0 24 24" fill="none" xmlns="http://www.w3.org/2000/svg">
<path opacity="0.4" d="M1.25 12C1.25 6.06294 6.06294 1.25 12 1.25C17.9371 1.25 22.75 6.06294 22.75 12C22.75 17.9371 17.9371 22.75 12 22.75C6.06294 22.75 1.25 17.9371 1.25 12Z" fill="#141B34"/>
<path fill-rule="evenodd" clip-rule="evenodd" d="M17 7.25C17.4142 7.25 17.75 7.58579 17.75 8V16C17.75 16.4142 17.4142 16.75 17 16.75C16.5858 16.75 16.25 16.4142 16.25 16V8C16.25 7.58579 16.5858 7.25 17 7.25ZM11.213 8.80709C11.4932 8.691 11.8158 8.75517 12.0303 8.96967L14.5303 11.4697C14.8232 11.7626 14.8232 12.2374 14.5303 12.5303L12.0303 15.0303C11.8158 15.2448 11.4932 15.309 11.213 15.1929C10.9327 15.0768 10.75 14.8033 10.75 14.5V12.75H7C6.58579 12.75 6.25 12.4142 6.25 12C6.25 11.5858 6.58579 11.25 7 11.25H10.75V9.5C10.75 9.19665 10.9327 8.92318 11.213 8.80709Z" fill="#141B34"/>
</svg>
