<svg width="24" height="24" viewBox="0 0 24 24" fill="none" xmlns="http://www.w3.org/2000/svg">
<path opacity="0.4" d="M1.25 12C1.25 6.06294 6.06294 1.25 12 1.25C17.9371 1.25 22.75 6.06294 22.75 12C22.75 17.9371 17.9371 22.75 12 22.75C6.06294 22.75 1.25 17.9371 1.25 12Z" fill="#141B34"/>
<path d="M12.9343 7.27683C13.3337 6.89538 13.9667 6.90994 14.3482 7.30933L15.5282 8.54495C15.8419 8.87338 15.9992 9.29905 16 9.72498L16 9.72821L16 9.73153C15.9992 10.1575 15.842 10.5833 15.5282 10.9118L14.3482 12.1474C13.9667 12.5468 13.3337 12.5614 12.9343 12.1799C12.7399 11.9942 12.6357 11.749 12.625 11.5V10.8962C11.2934 11.3166 10.2732 12.4842 10.0463 13.9509C10.003 14.2307 10 14.5838 10 15.5176V16C10 16.5523 9.55229 17 9 17C8.44772 17 8 16.5523 8 16V15.5176L7.99999 15.4205C7.99989 14.6171 7.99982 14.0973 8.0698 13.645C8.44344 11.2304 10.2603 9.30187 12.625 8.83486V8C12.625 7.7364 12.7287 7.47326 12.9343 7.27683Z" fill="#141B34"/>
</svg>
