<svg width="24" height="24" viewBox="0 0 24 24" fill="none" xmlns="http://www.w3.org/2000/svg">
<path opacity="0.4" d="M1.25 12C1.25 6.06294 6.06294 1.25 12 1.25C17.9371 1.25 22.75 6.06294 22.75 12C22.75 17.9371 17.9371 22.75 12 22.75C6.06294 22.75 1.25 17.9371 1.25 12Z" fill="#141B34"/>
<path fill-rule="evenodd" clip-rule="evenodd" d="M11.2929 6.29289C11.6834 5.90237 12.3166 5.90237 12.7071 6.29289L14.7071 8.29289C14.9931 8.57889 15.0787 9.00901 14.9239 9.38268C14.7691 9.75636 14.4045 10 14 10H13V14H14C14.4045 14 14.7691 14.2436 14.9239 14.6173C15.0787 14.991 14.9931 15.4211 14.7071 15.7071L12.7071 17.7071C12.3166 18.0976 11.6834 18.0976 11.2929 17.7071L9.29292 15.7071C9.00692 15.4211 8.92137 14.991 9.07615 14.6173C9.23093 14.2436 9.59557 14 10 14H11V10H10C9.59557 10 9.23093 9.75636 9.07615 9.38268C8.92137 9.00901 9.00692 8.57889 9.29292 8.29289L11.2929 6.29289Z" fill="#141B34"/>
</svg>
