<svg width="24" height="25" viewBox="0 0 24 25" fill="none" xmlns="http://www.w3.org/2000/svg">
<path fill-rule="evenodd" clip-rule="evenodd" d="M12.6679 14.6679C13.0584 14.2774 13.6916 14.2774 14.0821 14.6679L16.875 17.4608L19.6679 14.6679C20.0584 14.2774 20.6916 14.2774 21.0821 14.6679C21.4726 15.0584 21.4726 15.6916 21.0821 16.0821L18.2892 18.875L21.0821 21.6679C21.4726 22.0584 21.4726 22.6916 21.0821 23.0821C20.6916 23.4726 20.0584 23.4726 19.6679 23.0821L16.875 20.2892L14.0821 23.0821C13.6916 23.4726 13.0584 23.4726 12.6679 23.0821C12.2774 22.6916 12.2774 22.0584 12.6679 21.6679L15.4608 18.875L12.6679 16.0821C12.2774 15.6916 12.2774 15.0584 12.6679 14.6679Z" fill="#141B34"/>
<path opacity="0.4" d="M10.375 7.625C6.09479 7.625 2.625 11.0948 2.625 15.375C2.625 19.6552 6.09479 23.125 10.375 23.125C10.5734 23.125 10.6727 23.125 10.7409 23.0868C10.7993 23.0541 10.8337 23.0179 10.8633 22.9579C10.898 22.8878 10.8914 22.7598 10.8783 22.504C10.8433 21.8219 11.0863 21.1282 11.6072 20.6072L12.9152 19.2993C13.1152 19.0993 13.2152 18.9993 13.2152 18.875C13.2152 18.7507 13.1152 18.6507 12.9152 18.4507L11.6072 17.1428C10.6309 16.1665 10.6309 14.5835 11.6072 13.6072C12.5835 12.6309 14.1665 12.6309 15.1428 13.6072L16.4507 14.9152C16.6507 15.1152 16.7507 15.2152 16.875 15.2152C16.9993 15.2152 17.0993 15.1152 17.2993 14.9152L17.8184 14.3961C17.9253 14.2892 17.9787 14.2357 18.0006 14.1641C18.0224 14.0925 18.0087 14.022 17.9811 13.881C17.2848 10.3156 14.1441 7.625 10.375 7.625Z" fill="#141B34"/>
<path d="M10.375 1.625C7.33743 1.625 4.875 4.08743 4.875 7.125V9.91492C5.45668 9.32901 6.13134 8.83554 6.875 8.45847V7.125C6.875 5.192 8.442 3.625 10.375 3.625C12.308 3.625 13.875 5.192 13.875 7.125V8.45847C14.6187 8.83554 15.2933 9.32901 15.875 9.91492V7.125C15.875 4.08743 13.4126 1.625 10.375 1.625Z" fill="#141B34"/>
</svg>
