<svg width="24" height="24" viewBox="0 0 24 24" fill="none" xmlns="http://www.w3.org/2000/svg">
<path opacity="0.4" d="M1.25 12C1.25 6.06294 6.06294 1.25 12 1.25C17.9371 1.25 22.75 6.06294 22.75 12C22.75 17.9371 17.9371 22.75 12 22.75C6.06294 22.75 1.25 17.9371 1.25 12Z" fill="#141B34"/>
<path fill-rule="evenodd" clip-rule="evenodd" d="M16.7071 11.2929C17.0976 11.6834 17.0976 12.3166 16.7071 12.7071L14.2071 15.2071C13.9211 15.4931 13.491 15.5787 13.1173 15.4239C12.7436 15.2691 12.5 14.9045 12.5 14.5L12.5 13L8 13C7.44771 13 7 12.5523 7 12C7 11.4477 7.44771 11 8 11L12.5 11L12.5 9.50003C12.5 9.09557 12.7436 8.73093 13.1173 8.57615C13.491 8.42137 13.9211 8.50692 14.2071 8.79292L16.7071 11.2929Z" fill="#141B34"/>
</svg>
