<svg width="24" height="24" viewBox="0 0 24 24" fill="none" xmlns="http://www.w3.org/2000/svg">
<path opacity="0.4" d="M1.25 12C1.25 6.06294 6.06294 1.25 12 1.25C17.9371 1.25 22.75 6.06294 22.75 12C22.75 17.9371 17.9371 22.75 12 22.75C6.06294 22.75 1.25 17.9371 1.25 12Z" fill="#141B34"/>
<path d="M8.93326 6.8743C9.20296 6.51021 9.67579 6.36018 10.1061 6.50219C10.5363 6.64419 10.827 7.04619 10.827 7.49929V8.24929H14.9992C16.1314 8.24929 17.0492 9.1671 17.0492 10.2993V10.949C17.0492 11.5289 16.5791 11.999 15.9992 11.999C15.4193 11.999 14.9492 11.5289 14.9492 10.949V10.3493H8.44366C8.04708 10.3493 7.68433 10.1258 7.50592 9.77166C7.3275 9.41747 7.36387 8.99298 7.59993 8.6743L8.93326 6.8743Z" fill="#141B34"/>
<path d="M7.99922 11.499C8.57912 11.499 9.04922 11.9691 9.04922 12.549V13.6493H15.5548C15.9514 13.6493 16.3141 13.8727 16.4925 14.2269C16.6709 14.5811 16.6346 15.0056 16.3985 15.3243L15.0652 17.1243C14.7955 17.4884 14.3226 17.6384 13.8924 17.4964C13.4621 17.3544 13.1714 16.9524 13.1714 16.4993V15.7493H8.99922C7.86703 15.7493 6.94922 14.8315 6.94922 13.6993V12.549C6.94922 11.9691 7.41932 11.499 7.99922 11.499Z" fill="#141B34"/>
</svg>
