<svg width="24" height="24" viewBox="0 0 24 24" fill="none" xmlns="http://www.w3.org/2000/svg">
<path opacity="0.4" d="M1.25 12C1.25 6.06294 6.06294 1.25 12 1.25C17.9371 1.25 22.75 6.06294 22.75 12C22.75 17.9371 17.9371 22.75 12 22.75C6.06294 22.75 1.25 17.9371 1.25 12Z" fill="#141B34"/>
<path fill-rule="evenodd" clip-rule="evenodd" d="M13.669 6.55643C14.0698 6.41585 14.5156 6.54374 14.7809 6.87536L16.7809 9.37536C17.021 9.67553 17.0678 10.0868 16.9013 10.4332C16.7348 10.7797 16.3844 11.0001 16 11.0001H15V16.5001C15 17.0523 14.5523 17.5001 14 17.5001C13.4477 17.5001 13 17.0523 13 16.5001V7.50006C13 7.07537 13.2683 6.697 13.669 6.55643ZM10 6.50006C10.5523 6.50006 11 6.94777 11 7.50006V16.5001C11 16.9247 10.7318 17.3031 10.331 17.4437C9.93027 17.5843 9.48444 17.4564 9.21914 17.1248L7.21914 14.6248C6.979 14.3246 6.93219 13.9133 7.09871 13.5669C7.26523 13.2204 7.6156 13.0001 8.00001 13.0001H9.00001V7.50006C9.00001 6.94777 9.44772 6.50006 10 6.50006Z" fill="#141B34"/>
</svg>
