<svg width="24" height="24" viewBox="0 0 24 24" fill="none" xmlns="http://www.w3.org/2000/svg">
<path opacity="0.4" d="M15.6371 10.1249H8.36276H8.36274C6.98975 10.1249 5.87509 10.1248 5.01587 10.2519C4.12147 10.3841 3.35687 10.6731 2.82109 11.3687C2.28842 12.0603 2.19413 12.8788 2.27578 13.7909C2.35473 14.6726 2.61336 15.78 2.93359 17.1511L2.94707 17.2088C2.9492 17.2179 2.9515 17.227 2.95397 17.236L3.94934 20.8763C3.4206 20.9026 3 21.3397 3 21.875C3 22.4273 3.44772 22.875 4 22.875H7.14444C7.6903 22.875 8.105 22.6043 8.3603 22.2554C8.58061 21.9544 8.67174 21.6153 8.71717 21.3882C8.79371 21.0055 9.05236 20.875 9.2 20.875C9.34764 20.875 9.60629 21.0055 9.68283 21.3882C9.72826 21.6153 9.81939 21.9544 10.0397 22.2554C10.295 22.6043 10.7097 22.875 11.2556 22.875H12.7444C13.2903 22.875 13.705 22.6043 13.9603 22.2554C14.1806 21.9544 14.2717 21.6153 14.3172 21.3882C14.3937 21.0055 14.6524 20.875 14.8 20.875C14.9476 20.875 15.2063 21.0055 15.2828 21.3882C15.3283 21.6153 15.4194 21.9544 15.6397 22.2554C15.895 22.6043 16.3097 22.875 16.8556 22.875H20C20.5523 22.875 21 22.4273 21 21.875C21 21.3397 20.5793 20.9026 20.0505 20.8763L21.0459 17.236C21.0484 17.227 21.0507 17.2179 21.0528 17.2088L21.0663 17.1511C21.3865 15.78 21.6451 14.6726 21.7241 13.7909C21.8057 12.8788 21.7115 12.0603 21.1788 11.3687C20.643 10.6731 19.8784 10.3841 18.984 10.2519C18.1248 10.1248 17.0101 10.1249 15.6371 10.1249H15.6371Z" fill="#141B34"/>
<path fill-rule="evenodd" clip-rule="evenodd" d="M9.46795 3.96588C10.3231 3.35314 11.1782 3.07495 11.9999 3.07499C12.8215 3.07503 13.6767 3.35331 14.5319 3.96604C14.8357 4.18369 14.8556 4.33939 14.8493 4.48985C14.8384 4.75224 14.7047 5.12489 14.4158 5.67187C14.305 5.88184 14.1857 6.09198 14.058 6.31719L13.9617 6.48704C13.8022 6.76923 13.6331 7.07373 13.4852 7.38155C13.2041 7.96628 12.9147 8.72641 13.0189 9.52196C13.1662 10.6472 13.4413 13.1971 13.6811 15.4811C13.8007 16.6197 13.9109 17.6872 13.9912 18.4701C14.0112 18.6647 14.0293 18.8417 14.0453 18.9978C13.21 19.2795 12.5951 20.0147 12.383 20.875H11.617C11.4049 20.0149 10.7903 19.2798 9.9553 18.998C9.97126 18.8418 9.98939 18.6648 10.0094 18.4701C10.0897 17.6872 10.1999 16.6197 10.3195 15.4811C10.5593 13.1971 10.8345 10.6472 10.9818 9.52196C11.0859 8.72635 10.7964 7.96619 10.5153 7.38145C10.3673 7.07362 10.1982 6.76912 10.0387 6.48692L9.94231 6.31694C9.81452 6.09177 9.69528 5.88166 9.58438 5.67172C9.29544 5.12471 9.16163 4.75203 9.15068 4.48961C9.1444 4.33915 9.16421 4.1835 9.46795 3.96588ZM8.02561 19.1869C8.04824 18.9648 8.08045 18.6495 8.11982 18.2659C8.20027 17.4819 8.31067 16.4128 8.43042 15.2722C8.66922 12.9976 8.94731 10.4186 9.09869 9.26229C9.12321 9.07496 9.06106 8.76354 8.81142 8.24429C8.69403 8.00013 8.55298 7.74454 8.39526 7.46557L8.30703 7.30993L8.30701 7.30991C8.17801 7.08267 8.04024 6.83999 7.91404 6.60106C7.61529 6.03548 7.28357 5.31939 7.25242 4.57308C7.21659 3.71481 7.57809 2.94177 8.38034 2.36697C9.5099 1.55766 10.7382 1.12494 12 1.125C13.2617 1.12506 14.49 1.55787 15.6195 2.36709C16.4217 2.94182 16.7833 3.71478 16.7476 4.57301C16.7166 5.31933 16.385 6.03542 16.0863 6.601C15.9601 6.83997 15.8223 7.08269 15.6934 7.30995L15.6052 7.46551C15.4475 7.74448 15.3065 8.00006 15.1891 8.24423C14.9396 8.76347 14.8774 9.07491 14.9019 9.26229C15.0533 10.4186 15.3314 12.9977 15.5702 15.2722C15.6899 16.4128 15.8003 17.4819 15.8808 18.2659C15.9202 18.6497 15.9524 18.9652 15.975 19.1873C16.5943 19.5427 17.0423 20.1664 17.217 20.875H20C20.5523 20.875 21 21.3227 21 21.875C21 22.4273 20.5523 22.875 20 22.875H16.8556C16.3097 22.875 15.895 22.6043 15.6397 22.2554C15.4194 21.9544 15.3283 21.6153 15.2828 21.3882C15.2063 21.0055 14.9476 20.875 14.8 20.875C14.6524 20.875 14.3937 21.0055 14.3172 21.3882C14.2717 21.6153 14.1806 21.9544 13.9603 22.2554C13.705 22.6043 13.2903 22.875 12.7444 22.875H11.2556C10.7097 22.875 10.295 22.6043 10.0397 22.2554C9.81939 21.9544 9.72826 21.6153 9.68283 21.3882C9.60629 21.0055 9.34764 20.875 9.2 20.875C9.05236 20.875 8.79371 21.0055 8.71717 21.3882C8.67174 21.6153 8.58061 21.9544 8.3603 22.2554C8.105 22.6043 7.6903 22.875 7.14444 22.875H4C3.44772 22.875 3 22.4273 3 21.875C3 21.3227 3.44772 20.875 4 20.875H6.783C6.95779 20.1662 7.40597 19.5422 8.02561 19.1869Z" fill="#141B34"/>
</svg>
