<svg width="24" height="24" viewBox="0 0 24 24" fill="none" xmlns="http://www.w3.org/2000/svg">
<path d="M3.20516 11.9999C3.20516 7.14233 7.14297 3.20452 12.0005 3.20452C14.7971 3.20452 17.2725 4.51089 18.8728 6.55125C19.0942 6.8335 19.2049 6.97462 19.1937 7.15968C19.1826 7.34473 19.0461 7.4812 18.7732 7.75414L18.1503 8.37705C17.9734 8.5539 17.864 8.79822 17.864 9.06809C17.864 9.60781 18.3016 10.0453 18.8413 10.0453H21.2845C21.5956 10.0453 21.8881 9.89719 22.0722 9.64639C22.2564 9.39558 22.31 9.07209 22.2168 8.77525C20.8488 4.41956 16.8203 1.25 12.0005 1.25C6.06352 1.25 1.25064 6.06288 1.25064 11.9999C1.25064 17.9369 6.06348 22.7497 12.0005 22.7497C12.5402 22.7497 12.9777 22.3122 12.9777 21.7725C12.9777 21.2327 12.5402 20.7952 12.0005 20.7952C7.14294 20.7952 3.20516 16.8574 3.20516 11.9999Z" fill="#141B34"/>
<path opacity="0.4" fill-rule="evenodd" clip-rule="evenodd" d="M21.7727 11.0226C21.233 11.0226 20.7955 11.4601 20.7955 11.9998C20.7955 12.3001 20.7819 12.5967 20.7555 12.8892C20.707 13.4267 21.1034 13.9018 21.6409 13.9504C22.1784 13.999 22.6536 13.6026 22.7021 13.065C22.7338 12.7142 22.75 12.3588 22.75 11.9998C22.75 11.4601 22.3125 11.0226 21.7727 11.0226ZM21.4381 14.8441C20.933 14.6538 20.3693 14.909 20.179 15.4141C20.0465 15.7659 19.8942 16.107 19.7234 16.436C19.4748 16.915 19.6616 17.5049 20.1407 17.7535C20.6197 18.0022 21.2096 17.8154 21.4582 17.3363C21.6644 16.939 21.8483 16.5273 22.0081 16.1031C22.1984 15.598 21.9431 15.0343 21.4381 14.8441ZM19.6707 18.4239C19.2751 18.0567 18.6568 18.0798 18.2896 18.4754C18.0198 18.7661 17.7322 19.038 17.4287 19.2891C17.0129 19.6332 16.9548 20.2492 17.2989 20.665C17.643 21.0808 18.259 21.1389 18.6748 20.7948C19.0447 20.4887 19.3946 20.158 19.7222 19.805C20.0893 19.4094 20.0663 18.7911 19.6707 18.4239ZM16.7977 20.9823C16.573 20.4916 15.9931 20.2759 15.5023 20.5006C15.2177 20.6309 14.9254 20.7458 14.6264 20.8442C14.1137 21.0129 13.8349 21.5653 14.0036 22.078C14.1724 22.5907 14.7248 22.8695 15.2375 22.7007C15.6061 22.5794 15.966 22.4379 16.316 22.2777C16.8068 22.053 17.0224 21.473 16.7977 20.9823Z" fill="#141B34"/>
<path opacity="0.4" fill-rule="evenodd" clip-rule="evenodd" d="M12 7C12.5523 7 13 7.44772 13 8V11.5858L14.7071 13.2929C15.0976 13.6834 15.0976 14.3166 14.7071 14.7071C14.3166 15.0976 13.6834 15.0976 13.2929 14.7071L11.2929 12.7071C11.1054 12.5196 11 12.2652 11 12V8C11 7.44772 11.4477 7 12 7Z" fill="#141B34"/>
</svg>
