<svg width="24" height="24" viewBox="0 0 24 24" fill="none" xmlns="http://www.w3.org/2000/svg">
<path opacity="0.4" fill-rule="evenodd" clip-rule="evenodd" d="M10.8395 9.81329C10.6313 9.59661 10.3937 9.32942 10.1555 9.01978C9.48901 8.15331 8.75 6.86671 8.75 5.375C8.75 4.02535 9.05076 2.95978 9.6478 2.21745C10.262 1.45379 11.1154 1.125 12 1.125C12.8846 1.125 13.738 1.45379 14.3522 2.21745C14.9492 2.95978 15.25 4.02535 15.25 5.375C15.25 6.86671 14.511 8.15331 13.8445 9.01978C13.6064 9.32929 13.3689 9.59638 13.1607 9.81302L14.288 11.5038C14.456 11.3523 14.6459 11.1915 14.8552 11.0305C15.7217 10.364 17.0083 9.625 18.5 9.625C19.8496 9.625 20.9152 9.92576 21.6575 10.5228C22.4212 11.137 22.75 11.9904 22.75 12.875C22.75 13.7596 22.4212 14.613 21.6575 15.2272C20.9152 15.8242 19.8496 16.125 18.5 16.125C17.0083 16.125 15.7217 15.386 14.8552 14.7195C14.5984 14.5219 14.3709 14.3249 14.1771 14.1446C13.8627 14.4962 13.5488 14.8786 13.2392 15.2801C13.8819 16.2006 14.4745 17.1385 14.9827 17.9855C15.5549 18.9392 16.0314 19.7969 16.3651 20.4165C16.5306 20.7239 16.7996 21.244 16.892 21.4227L16.8921 21.4228L16.8943 21.4272C17.1413 21.9211 16.9414 22.5224 16.4474 22.7694C15.9535 23.0164 15.3529 22.8162 15.1058 22.3223C15.0202 22.1568 14.7653 21.6641 14.6041 21.3647C14.2815 20.7656 13.8205 19.9358 13.2677 19.0145C12.8799 18.3681 12.4522 17.6858 12.0002 17.0114C11.5482 17.6858 11.1205 18.3681 10.7327 19.0145C10.1799 19.9358 9.71892 20.7656 9.39631 21.3647C9.23513 21.6641 8.98045 22.1563 8.89484 22.3218C8.64782 22.8157 8.04695 23.0164 7.55301 22.7694C7.05903 22.5224 6.8588 21.9218 7.10579 21.4278L7.10847 21.4226C7.20124 21.2432 7.47005 20.7235 7.63537 20.4165C7.96902 19.7969 8.44549 18.9392 9.01773 17.9855C9.52593 17.1385 10.1185 16.2006 10.7613 15.2801C10.4516 14.8785 10.1376 14.4961 9.82318 14.1443C9.62933 14.3247 9.40166 14.5219 9.14478 14.7195C8.27831 15.386 6.99171 16.125 5.5 16.125C4.15035 16.125 3.08479 15.8242 2.34245 15.2272C1.57879 14.613 1.25 13.7596 1.25 12.875C1.25 11.9904 1.57879 11.137 2.34245 10.5228C3.08478 9.92576 4.15035 9.625 5.5 9.625C6.99171 9.625 8.27831 10.364 9.14478 11.0305C9.35421 11.1916 9.54422 11.3524 9.71231 11.5041L10.8395 9.81329ZM12.0005 13.6216C12.2395 13.3251 12.482 13.0387 12.7266 12.7668L12.0005 11.6777L11.2744 12.7668C11.519 13.0387 11.7615 13.3251 12.0005 13.6216Z" fill="#141B34"/>
<path d="M10.1555 9.01978C10.3937 9.32942 10.6313 9.59661 10.8395 9.81329L9.71231 11.5041C9.54422 11.3524 9.35421 11.1916 9.14478 11.0305C8.27831 10.364 6.99171 9.625 5.5 9.625C4.15035 9.625 3.08478 9.92576 2.34245 10.5228C1.57879 11.137 1.25 11.9904 1.25 12.875C1.25 13.7596 1.57879 14.613 2.34245 15.2272C3.08479 15.8242 4.15035 16.125 5.5 16.125C6.99171 16.125 8.27831 15.386 9.14478 14.7195C9.40166 14.5219 9.62933 14.3247 9.82318 14.1443C10.1376 14.4961 10.4516 14.8785 10.7613 15.2801C10.1185 16.2006 9.52593 17.1385 9.01773 17.9855C8.44549 18.9392 7.96902 19.7969 7.63537 20.4165C7.47005 20.7235 7.20124 21.2432 7.10847 21.4226L7.10579 21.4278C6.8588 21.9218 7.05903 22.5224 7.55301 22.7694C8.04695 23.0164 8.64782 22.8157 8.89484 22.3218C8.98045 22.1563 9.23513 21.6641 9.39631 21.3647C9.71892 20.7656 10.1799 19.9358 10.7327 19.0145C11.1205 18.3681 11.5482 17.6858 12.0002 17.0114L12.0005 13.6216C11.7615 13.3251 11.519 13.0387 11.2744 12.7668L12.0005 11.6777L12 1.125C11.1154 1.125 10.262 1.45379 9.6478 2.21745C9.05076 2.95978 8.75 4.02535 8.75 5.375C8.75 6.86671 9.48901 8.15331 10.1555 9.01978Z" fill="#141B34"/>
</svg>
