<svg width="24" height="24" viewBox="0 0 24 24" fill="none" xmlns="http://www.w3.org/2000/svg">
<path opacity="0.4" d="M11.25 12.875L11.25 12.927V12.927C11.25 13.8255 11.2499 14.5747 11.3299 15.1695C11.4143 15.7973 11.6 16.3641 12.0555 16.8195C12.5109 17.275 13.0777 17.4607 13.7055 17.5451C14.3003 17.6251 15.0495 17.625 15.948 17.625L19 17.625V12.875H11.25Z" fill="#141B34"/>
<path opacity="0.4" d="M17.0002 12.625C16.586 12.625 16.2502 12.2892 16.2502 11.875V7.875C16.2502 7.65194 16.2609 7.42148 16.3076 7.2088C16.3562 6.98761 16.4534 6.74064 16.6597 6.53442C16.8659 6.3282 17.1129 6.23096 17.334 6.18237C17.5467 6.13565 17.7772 6.125 18.0002 6.125H19.0002C19.2233 6.125 19.4538 6.13565 19.6664 6.18237C19.8876 6.23096 20.1346 6.3282 20.3408 6.53442C20.547 6.74064 20.6443 6.98761 20.6929 7.2088C20.7396 7.42148 20.7502 7.65194 20.7502 7.875V11.875C20.7502 12.2892 20.4145 12.625 20.0002 12.625H17.0002Z" fill="#141B34"/>
<path d="M2 10.875C1.44772 10.875 1 11.3227 1 11.875C1 12.4273 1.44772 12.875 2 12.875H3V21.875C3 22.4273 3.44772 22.875 4 22.875C4.55228 22.875 5 22.4273 5 21.875V12.875H19V21.875C19 22.4273 19.4477 22.875 20 22.875C20.5523 22.875 21 22.4273 21 21.875V12.875H22C22.5523 12.875 23 12.4273 23 11.875C23 11.3227 22.5523 10.875 22 10.875H2Z" fill="#141B34"/>
<path fill-rule="evenodd" clip-rule="evenodd" d="M5.36169 9.6234C4.94286 9.61935 4.57125 9.60621 4.25416 9.56357C3.76253 9.49748 3.29126 9.34842 2.90902 8.96617C2.52677 8.58392 2.37771 8.11266 2.31161 7.62102C2.24994 7.1623 2.24997 6.58947 2.25 5.92465V5.92461V5.92455L2.25001 5.87518V4.87518L2.25 4.82581V4.82575V4.82571C2.24997 4.16088 2.24994 3.58806 2.31161 3.12934C2.37771 2.6377 2.52677 2.16644 2.90902 1.78419C3.29126 1.40194 3.76253 1.25288 4.25416 1.18679C4.7129 1.12511 5.28574 1.12514 5.95058 1.12518H5.95063L6.00001 1.12518L10.0494 1.12518H10.0494C10.7143 1.12514 11.2871 1.12511 11.7459 1.18679C12.2375 1.25288 12.7088 1.40194 13.091 1.78419C13.4732 2.16644 13.6223 2.6377 13.6884 3.12934C13.7501 3.58808 13.75 4.16093 13.75 4.82579V4.8258V4.82581L13.75 5.92455V5.92456V5.92457C13.75 6.58943 13.7501 7.16228 13.6884 7.62102C13.6223 8.11266 13.4732 8.58392 13.091 8.96617C12.7088 9.34842 12.2375 9.49748 11.7459 9.56357C11.4288 9.6062 11.0573 9.61935 10.6386 9.62339L10.9866 11.7109C11.0773 12.2557 10.7093 12.7709 10.1646 12.8617C9.61979 12.9525 9.10456 12.5845 9.01377 12.0397L8.61134 9.62518H7.38898L6.98655 12.0397C6.89576 12.5845 6.38053 12.9525 5.83576 12.8617C5.29099 12.7709 4.92297 12.2557 5.01377 11.7109L5.36169 9.6234Z" fill="#141B34"/>
</svg>
