<svg width="24" height="24" viewBox="0 0 24 24" fill="none" xmlns="http://www.w3.org/2000/svg">
<path opacity="0.4" fill-rule="evenodd" clip-rule="evenodd" d="M9.36169 9.6234C8.94286 9.61935 8.57125 9.60621 8.25416 9.56357C7.76253 9.49748 7.29126 9.34842 6.90902 8.96617C6.52677 8.58392 6.37771 8.11266 6.31161 7.62102C6.24994 7.1623 6.24997 6.58947 6.25 5.92465V5.92461V5.92455L6.25001 5.87518V4.87518L6.25 4.82581V4.82575V4.82571C6.24997 4.16088 6.24994 3.58806 6.31161 3.12934C6.37771 2.6377 6.52677 2.16644 6.90902 1.78419C7.29126 1.40194 7.76253 1.25288 8.25416 1.18679C8.7129 1.12511 9.28574 1.12514 9.95058 1.12518H9.95063L10 1.12518L14.0494 1.12518H14.0494C14.7143 1.12514 15.2871 1.12511 15.7459 1.18679C16.2375 1.25288 16.7088 1.40194 17.091 1.78419C17.4732 2.16644 17.6223 2.6377 17.6884 3.12934C17.7501 3.58808 17.75 4.16093 17.75 4.82579V4.8258V4.82581V5.92455V5.92456V5.92457C17.75 6.58943 17.7501 7.16228 17.6884 7.62102C17.6223 8.11266 17.4732 8.58392 17.091 8.96617C16.7088 9.34842 16.2375 9.49748 15.7459 9.56357C15.4288 9.6062 15.0573 9.61935 14.6386 9.62339L14.9866 11.7109C15.0773 12.2557 14.7093 12.7709 14.1646 12.8617C13.6198 12.9525 13.1046 12.5845 13.0138 12.0397L12.6113 9.62518H11.389L10.9866 12.0397C10.8958 12.5845 10.3805 12.9525 9.83576 12.8617C9.29099 12.7709 8.92297 12.2557 9.01377 11.7109L9.36169 9.6234Z" fill="#141B34"/>
<path opacity="0.4" d="M11.25 12.875L11.25 12.927V12.927C11.25 13.8255 11.2499 14.5747 11.3299 15.1695C11.4143 15.7973 11.6 16.3641 12.0555 16.8195C12.5109 17.275 13.0777 17.4607 13.7055 17.5451C14.3003 17.6251 15.0495 17.625 15.948 17.625L19 17.625V12.875H11.25Z" fill="#141B34"/>
<path d="M2 10.875C1.44772 10.875 1 11.3227 1 11.875C1 12.4273 1.44772 12.875 2 12.875H3V21.875C3 22.4273 3.44772 22.875 4 22.875C4.55228 22.875 5 22.4273 5 21.875V12.875H19V21.875C19 22.4273 19.4477 22.875 20 22.875C20.5523 22.875 21 22.4273 21 21.875V12.875H22C22.5523 12.875 23 12.4273 23 11.875C23 11.3227 22.5523 10.875 22 10.875H2Z" fill="#141B34"/>
</svg>
