<svg width="24" height="25" viewBox="0 0 24 25" fill="none" xmlns="http://www.w3.org/2000/svg">
<path fill-rule="evenodd" clip-rule="evenodd" d="M7.93707 11.4819C7.50512 11.05 6.96007 10.759 6.34472 10.7502C5.72436 10.7413 5.15975 11.021 4.69883 11.4819L3.97297 12.2078C1.91672 14.264 1.70097 17.4638 3.32572 19.7601L1.54289 21.5429C1.15237 21.9334 1.15237 22.5666 1.54289 22.9571C1.93342 23.3476 2.56658 23.3476 2.95711 22.9571L4.73993 21.1743C7.03616 22.799 10.236 22.5833 12.2922 20.527L13.0181 19.8012C13.45 19.3692 13.741 18.8242 13.7498 18.2088C13.7587 17.5885 13.479 17.0239 13.0181 16.5629L7.93707 11.4819Z" fill="#141B34"/>
<path opacity="0.4" fill-rule="evenodd" clip-rule="evenodd" d="M22.4571 3.45711L20.6743 5.23993C22.299 7.53616 22.0833 10.736 20.027 12.7922L19.3012 13.5181C18.8692 13.95 18.3242 14.241 17.7088 14.2498C17.0885 14.2587 16.5239 13.979 16.0629 13.5181L16.0491 13.5042L15.0766 14.4766C14.7121 14.8411 14.1212 14.8411 13.7567 14.4766C13.3922 14.1121 13.3922 13.5212 13.7567 13.1567L14.7291 12.1843L12.3157 9.77087L11.3433 10.7433C10.9788 11.1078 10.3879 11.1078 10.0234 10.7433C9.65888 10.3788 9.65888 9.78786 10.0234 9.42337L10.9958 8.45094L10.9819 8.43707C10.55 8.00512 10.259 7.46007 10.2502 6.84472C10.2413 6.22436 10.521 5.65975 10.9819 5.19883L11.7078 4.47297C13.764 2.41672 16.9638 2.20097 19.2601 3.82572L21.0429 2.04289C21.4334 1.65237 22.0666 1.65237 22.4571 2.04289C22.8476 2.43342 22.8476 3.06658 22.4571 3.45711Z" fill="#141B34"/>
</svg>
