<svg width="24" height="24" viewBox="0 0 24 24" fill="none" xmlns="http://www.w3.org/2000/svg">
<path opacity="0.4" d="M4.88494 20.481C6.42817 21.7519 8.06123 21.7509 9.67577 21.7499C9.67577 21.7499 11.6373 21.7345 11.8793 21.6993C12.6654 21.585 13.5913 21.2579 14.1677 20.3162C14.6196 19.5781 14.7169 18.7966 14.6854 18.0853C14.658 17.4666 14.5271 16.8311 14.4147 16.2855C14.1513 14.9919 14.0433 14.0311 14.5295 13.3851C14.6487 13.2268 14.8297 13.0671 15.2105 12.8538C15.6072 12.6316 16.1394 12.3939 16.9323 12.0416L22.2807 9.66469C22.7854 9.44037 23.0129 8.84903 22.7887 8.34389C22.5646 7.83875 21.9737 7.61111 21.4689 7.83543L21.084 8.0065C19.3756 4.56734 15.7765 2.25 11.6318 2.25C5.84337 2.25 1.125 6.85609 1.125 12.5697C1.125 15.75 2.59016 18.5912 4.88494 20.481Z" fill="#141B34"/>
<path fill-rule="evenodd" clip-rule="evenodd" d="M15.0805 12.929C15.121 12.9046 15.1642 12.8796 15.2104 12.8537C15.6016 12.6346 16.1245 12.4004 16.8992 12.0562C16.9014 12.0704 16.9033 12.0847 16.9049 12.0991L17.2857 15.5341C17.3219 15.5308 17.3582 15.5269 17.3946 15.5222L21.5521 14.9912C22.0738 14.9246 22.5507 15.2945 22.6172 15.8175C22.6837 16.3404 22.3146 16.8184 21.7928 16.885L21.1963 16.9612V19.8408H21.6725C22.1984 19.8408 22.6248 20.2682 22.6248 20.7954C22.6248 21.3225 22.1984 21.7499 21.6725 21.7499L20.2619 21.7499C19.501 21.7499 18.8411 21.75 18.3069 21.6813C17.7321 21.6075 17.1801 21.4417 16.7101 21.02C16.2401 20.5984 16.0147 20.0668 15.878 19.5024C15.751 18.9778 15.6781 18.3204 15.5941 17.5624L15.5877 17.5043L15.556 17.2181C15.1839 17.0958 14.8298 16.9282 14.5024 16.7196C14.4733 16.5702 14.4434 16.4249 14.4147 16.2854C14.1806 15.1359 14.0692 14.2493 14.3884 13.6127C14.4238 13.6704 14.4536 13.7327 14.4767 13.7992C14.6362 14.2576 14.9277 14.6534 15.3047 14.9518L15.0805 12.929ZM17.7289 19.052C17.6395 18.6826 17.5801 18.1863 17.4961 17.4317C17.5425 17.4272 17.5889 17.4219 17.6354 17.416L19.2916 17.2045V19.834C18.9935 19.8273 18.7532 19.814 18.5491 19.7877C18.1773 19.74 18.0528 19.6625 17.9804 19.5975C17.908 19.5326 17.8174 19.4171 17.7289 19.052Z" fill="#141B34"/>
<path fill-rule="evenodd" clip-rule="evenodd" d="M11.1328 17.0108C11.1328 17.7016 10.5752 18.2617 9.88729 18.2617L9.87834 18.2617C9.19045 18.2617 8.63281 17.7016 8.63281 17.0108C8.63281 16.3199 9.19045 15.7598 9.87834 15.7598L9.88729 15.7598C10.5752 15.7598 11.1328 16.3199 11.1328 17.0108Z" fill="#141B34"/>
</svg>
