<svg width="24" height="24" viewBox="0 0 24 24" fill="none" xmlns="http://www.w3.org/2000/svg">
<path opacity="0.4" d="M16.8168 7.25101C16.882 7.25166 16.9434 7.25226 17 7.25226C17.0566 7.25226 17.118 7.25166 17.1832 7.25101C17.5393 7.2475 18.0083 7.24288 18.4352 7.32984C18.9884 7.44251 19.5708 7.723 19.9486 8.37726C20.1259 8.68448 20.192 9.01043 20.2218 9.33961C20.25 9.65091 20.25 10.0302 20.25 10.47V13.5345C20.25 13.9743 20.25 14.3536 20.2218 14.6649C20.192 14.9941 20.1259 15.32 19.9486 15.6273C19.5708 16.2815 18.9884 16.562 18.4352 16.6747C18.0083 16.7616 17.5393 16.757 17.1832 16.7535H17.1831C17.118 16.7529 17.0566 16.7523 17 16.7523C16.9434 16.7523 16.882 16.7529 16.8169 16.7535H16.8168C16.4607 16.757 15.9917 16.7616 15.5648 16.6747C15.0116 16.562 14.4292 16.2815 14.0514 15.6273C13.8741 15.32 13.808 14.9941 13.7782 14.6649C13.75 14.3536 13.75 13.9743 13.75 13.5345V13.5345V10.47V10.47C13.75 10.0302 13.75 9.6509 13.7782 9.33961C13.808 9.01043 13.8741 8.68447 14.0514 8.37726C14.4292 7.723 15.0116 7.44251 15.5648 7.32984C15.9917 7.24288 16.4607 7.2475 16.8168 7.25101Z" fill="#141B34"/>
<path opacity="0.4" d="M6.81682 4.25101C6.88198 4.25166 6.94336 4.25226 7 4.25226C7.05665 4.25226 7.11802 4.25166 7.18318 4.25101C7.53925 4.2475 8.00827 4.24288 8.43523 4.32984C8.98843 4.44251 9.57082 4.723 9.94856 5.37726C10.1259 5.68448 10.192 6.01043 10.2218 6.33961C10.25 6.65091 10.25 7.03025 10.25 7.47004L10.25 16.5345C10.25 16.9743 10.25 17.3536 10.2218 17.6649C10.192 17.9941 10.1259 18.32 9.94856 18.6273C9.57082 19.2815 8.98843 19.562 8.43523 19.6747C8.00827 19.7616 7.53925 19.757 7.18318 19.7535H7.18314C7.118 19.7529 7.05663 19.7523 7 19.7523C6.94337 19.7523 6.88201 19.7529 6.81686 19.7535H6.81682C6.46075 19.757 5.99173 19.7616 5.56477 19.6747C5.01158 19.562 4.42918 19.2815 4.05144 18.6273C3.87408 18.32 3.80802 17.9941 3.77818 17.6649C3.74997 17.3536 3.74998 16.9743 3.75 16.5345V16.5345V7.47004V7.46999C3.74998 7.03022 3.74997 6.65089 3.77818 6.33961C3.80802 6.01043 3.87408 5.68447 4.05145 5.37726C4.42918 4.723 5.01158 4.44251 5.56477 4.32984C5.99173 4.24288 6.46075 4.2475 6.81682 4.25101Z" fill="#141B34"/>
<path d="M18 2C18 1.44772 17.5523 1 17 1C16.4477 1 16 1.44772 16 2V7.27003C16.2919 7.2459 16.5794 7.24873 16.8168 7.25107C16.882 7.25172 16.9434 7.25232 17 7.25232C17.0566 7.25232 17.118 7.25172 17.1832 7.25107C17.4206 7.24873 17.7081 7.2459 18 7.27003V2Z" fill="#141B34"/>
<path d="M16 16.7346C16.2919 16.7587 16.5794 16.7559 16.8168 16.7536C16.8819 16.7529 16.9434 16.7523 17 16.7523C17.0566 16.7523 17.118 16.7529 17.1831 16.7536C17.4205 16.7559 17.7081 16.7587 18 16.7346V22C18 22.5523 17.5523 23 17 23C16.4477 23 16 22.5523 16 22V16.7346Z" fill="#141B34"/>
<path d="M8 2C8 1.44772 7.55229 1 7 1C6.44772 1 6 1.44772 6 2V4.27003C6.29185 4.2459 6.57944 4.24873 6.81682 4.25107C6.88198 4.25172 6.94336 4.25232 7 4.25232C7.05665 4.25232 7.11802 4.25172 7.18318 4.25107C7.42057 4.24873 7.70815 4.2459 8 4.27003L8 2Z" fill="#141B34"/>
<path d="M6 19.7346C6.29185 19.7587 6.57944 19.7559 6.81682 19.7536L6.81786 19.7536C6.88263 19.7529 6.94366 19.7523 7 19.7523C7.05635 19.7523 7.11737 19.7529 7.18215 19.7536L7.18318 19.7536C7.42057 19.7559 7.70815 19.7587 8 19.7346V22C8 22.5523 7.55228 23 7 23C6.44772 23 6 22.5523 6 22V19.7346Z" fill="#141B34"/>
</svg>
