<svg width="25" height="24" viewBox="0 0 25 24" fill="none" xmlns="http://www.w3.org/2000/svg">
<path opacity="0.4" d="M4.89513 6.85035C6.76628 6.47612 9.31788 6.25 12.1133 6.25C14.9087 6.25 17.4603 6.47612 19.3314 6.85035C20.2608 7.03623 21.0616 7.26618 21.648 7.54349C21.9394 7.68124 22.2181 7.8492 22.4343 8.06057C22.6519 8.27316 22.8633 8.58918 22.8633 9C22.8633 9.59561 22.4319 9.98585 22.1015 10.2046C21.7376 10.4455 21.2543 10.643 20.7128 10.8089C19.6193 11.1439 18.1091 11.403 16.3675 11.5638C16.2949 11.5705 16.2072 11.6089 16.1175 11.7184C16.0242 11.8323 15.9545 11.9964 15.9361 12.1691C15.7292 14.1064 14.1597 15.75 12.1133 15.75C10.0668 15.75 8.4974 14.1064 8.29048 12.1691C8.27203 11.9964 8.20232 11.8323 8.10902 11.7184C8.01938 11.6089 7.93171 11.5705 7.85903 11.5638C6.11749 11.403 4.60723 11.1439 3.51372 10.8089C2.97226 10.643 2.48896 10.4455 2.12511 10.2046C1.79464 9.98585 1.36328 9.59561 1.36328 9C1.36328 8.58918 1.57471 8.27316 1.79222 8.06057C2.00848 7.8492 2.2872 7.68124 2.57853 7.54349C3.16499 7.26618 3.96573 7.03623 4.89513 6.85035Z" fill="#141B34"/>
<path fill-rule="evenodd" clip-rule="evenodd" d="M11.1133 12C11.1133 11.4477 11.559 11 12.1088 11H12.1178C12.6676 11 13.1133 11.4477 13.1133 12C13.1133 12.5523 12.6676 13 12.1178 13H12.1088C11.559 13 11.1133 12.5523 11.1133 12Z" fill="#141B34"/>
<path fill-rule="evenodd" clip-rule="evenodd" d="M3.11328 3C3.11328 2.44772 3.561 2 4.11328 2H8.11328C8.66557 2 9.11328 2.44772 9.11328 3C9.11328 3.55228 8.66557 4 8.11328 4H7.11328V6.51268C6.3899 6.5945 5.71869 6.69375 5.11328 6.80797V4H4.11328C3.561 4 3.11328 3.55228 3.11328 3ZM19.1133 6.80797V4H20.1133C20.6656 4 21.1133 3.55228 21.1133 3C21.1133 2.44772 20.6656 2 20.1133 2H16.1133C15.561 2 15.1133 2.44772 15.1133 3C15.1133 3.55228 15.561 4 16.1133 4H17.1133V6.51268C17.8367 6.5945 18.5079 6.69375 19.1133 6.80797Z" fill="#141B34"/>
<g opacity="0.4">
<path d="M7.81273 16.2273C8.21918 15.9411 8.34672 15.3059 8.05415 14.904C7.73736 14.4688 7.15702 14.2499 6.71373 14.5553C5.14297 15.6373 4.11328 17.4484 4.11328 19.4999V20.9999C4.11328 21.5522 4.561 21.9999 5.11328 21.9999C5.66557 21.9999 6.11328 21.5522 6.11328 20.9999V19.4999C6.11328 18.1472 6.78482 16.9512 7.81273 16.2273Z" fill="#141B34"/>
<path d="M17.5133 14.5556C17.07 14.2502 16.4897 14.469 16.1728 14.9042C15.8802 15.3061 16.0077 15.9413 16.4141 16.2275C17.4419 16.9515 18.1133 18.1473 18.1133 19.4999V20.9999C18.1133 21.5522 18.561 21.9999 19.1133 21.9999C19.6656 21.9999 20.1133 21.5522 20.1133 20.9999V19.4999C20.1133 17.4486 19.0838 15.6376 17.5133 14.5556Z" fill="#141B34"/>
</g>
</svg>
