<svg width="24" height="24" viewBox="0 0 24 24" fill="none" xmlns="http://www.w3.org/2000/svg">
<path opacity="0.4" d="M12 16.5C11.4477 16.5 11 16.9477 11 17.5V21H13V17.5C13 16.9477 12.5523 16.5 12 16.5Z" fill="#141B34"/>
<path opacity="0.4" fill-rule="evenodd" clip-rule="evenodd" d="M22 12C22 11.4477 21.5523 11 21 11H18C17.4477 11 17 11.4477 17 12C17 12.5523 17.4477 13 18 13H21C21.5523 13 22 12.5523 22 12ZM7 12C7 11.4477 6.55229 11 6 11H3C2.44772 11 2 11.4477 2 12C2 12.5523 2.44772 13 3 13H6C6.55229 13 7 12.5523 7 12Z" fill="#141B34"/>
<path opacity="0.4" d="M13.2574 7.35036C13.6207 7.41548 14.0546 7.53252 14.3684 7.77431C14.6825 8.01626 14.8412 8.32844 14.9379 8.64189C15.0226 8.9163 15.0767 9.25311 15.1332 9.60525L15.1332 9.60526L15.14 9.64739L15.598 12.4955L15.6063 12.5473C15.6803 13.0066 15.7493 13.4352 15.75 13.7884C15.7508 14.1871 15.6672 14.6206 15.3178 14.9784C15.1126 15.1886 14.8479 15.3198 14.6157 15.4069C14.3721 15.4984 14.0977 15.5656 13.8166 15.6153C13.2538 15.7148 12.596 15.7557 11.9572 15.7494C11.318 15.743 10.6692 15.689 10.123 15.5868C9.85061 15.5358 9.58718 15.4699 9.35626 15.3843C9.14198 15.3048 8.88089 15.182 8.68217 14.9784C8.33282 14.6206 8.2492 14.1871 8.25001 13.7884C8.25072 13.4352 8.31972 13.0066 8.39366 12.5473L8.402 12.4955L8.86 9.64739L8.86677 9.60526C8.92334 9.25312 8.97744 8.91631 9.06211 8.64189C9.15883 8.32844 9.31752 8.01626 9.63156 7.7743C9.93739 7.53867 10.366 7.42327 10.7209 7.35805C11.1097 7.28662 11.5522 7.25178 11.9847 7.25007C12.4172 7.24835 12.8628 7.27965 13.2574 7.35036Z" fill="#141B34"/>
<path fill-rule="evenodd" clip-rule="evenodd" d="M14.4186 16.5H9.58087C9.46073 16.5 9.3578 16.4996 9.25989 16.5055C8.10305 16.5756 7.09004 17.3057 6.65775 18.381C6.62117 18.472 6.58904 18.5698 6.55105 18.6838C6.3764 19.2077 6.65956 19.774 7.1835 19.9487C7.70745 20.1233 8.27377 19.8402 8.44841 19.3162C8.4948 19.1771 8.50486 19.1483 8.51341 19.127C8.65751 18.7686 8.99518 18.5252 9.3808 18.5018C9.40368 18.5005 9.43417 18.5 9.58087 18.5H14.4186C14.5653 18.5 14.5958 18.5005 14.6187 18.5018C15.0043 18.5252 15.3419 18.7686 15.486 19.127C15.4946 19.1483 15.5047 19.1771 15.551 19.3162C15.7257 19.8402 16.292 20.1233 16.816 19.9487C17.3399 19.774 17.6231 19.2077 17.4484 18.6838C17.4104 18.5698 17.3783 18.472 17.3417 18.381C16.9094 17.3057 15.8964 16.5756 14.7396 16.5055C14.6417 16.4996 14.5387 16.5 14.4186 16.5Z" fill="#141B34"/>
<path fill-rule="evenodd" clip-rule="evenodd" d="M5 21C4.44771 21 4 21.4477 4 22C4 22.5523 4.44771 23 5 23H19C19.5523 23 20 22.5523 20 22C20 21.4477 19.5523 21 19 21C12.1001 21 12.2616 21 5 21Z" fill="#141B34"/>
<path fill-rule="evenodd" clip-rule="evenodd" d="M8.7616 3.00018C8.8149 3.00028 8.8686 3.00037 8.9227 3.00037H15.0777C15.1318 3.00037 15.1855 3.00028 15.2388 3.00018C16.0213 2.99881 16.7167 2.99759 17.3385 3.29646C17.9603 3.59533 18.3938 4.13909 18.8816 4.75098C18.9148 4.79265 18.9482 4.83464 18.982 4.8769L20.9045 7.28002C20.9292 7.31086 20.9537 7.34142 20.9781 7.37175C21.3398 7.82269 21.6604 8.22241 21.8311 8.70891C22.0017 9.19542 22.0011 9.70785 22.0003 10.286C22.0003 10.3248 22.0002 10.364 22.0002 10.4035V14.0004C22.0002 14.5527 21.5525 15.0004 21.0002 15.0004C20.4479 15.0004 20.0002 14.5527 20.0002 14.0004V10.4035C20.0002 9.64053 19.9872 9.49451 19.9438 9.37093C19.9005 9.24734 19.8194 9.12519 19.3428 8.52941L17.4203 6.12629C16.7702 5.31364 16.6294 5.17463 16.4721 5.09907C16.3149 5.0235 16.1184 5.00037 15.0777 5.00037H8.9227C7.88201 5.00037 7.68549 5.0235 7.52826 5.09907C7.37104 5.17463 7.23021 5.31364 6.5801 6.12629L4.6576 8.52941C4.18098 9.12518 4.09993 9.24734 4.05658 9.37093C4.01322 9.49451 4.0002 9.64053 4.0002 10.4035V14.0004C4.0002 14.5527 3.55249 15.0004 3.0002 15.0004C2.44792 15.0004 2.0002 14.5527 2.0002 14.0004V10.4035C2.0002 10.364 2.00015 10.3248 2.0001 10.286C1.99934 9.70785 1.99866 9.19542 2.16932 8.70891C2.33998 8.2224 2.66062 7.82268 3.02236 7.37173C3.04668 7.34141 3.0712 7.31085 3.09586 7.28002L5.01836 4.8769C5.05216 4.83464 5.08563 4.79265 5.11885 4.75098C5.60661 4.13909 6.04006 3.59533 6.66189 3.29646C7.28372 2.99759 7.9791 2.99881 8.7616 3.00018Z" fill="#141B34"/>
<path fill-rule="evenodd" clip-rule="evenodd" d="M11 2C11 1.44772 11.4477 1 12 1C12.5523 1 13 1.44772 13 2V7.31062C12.6743 7.26786 12.3255 7.24872 11.9847 7.25007C11.6527 7.25138 11.3149 7.27221 11 7.31412V2Z" fill="#141B34"/>
</svg>
