<svg width="24" height="25" viewBox="0 0 24 25" fill="none" xmlns="http://www.w3.org/2000/svg">
<path opacity="0.4" fill-rule="evenodd" clip-rule="evenodd" d="M7.00919 3.24958C11.3463 0.287503 17.6007 1.87059 19.9031 6.6162C20.1385 7.10133 19.9381 7.68641 19.4555 7.92301C18.9729 8.15961 18.3908 7.95814 18.1555 7.47302C16.3861 3.82613 11.4862 2.55504 8.10192 4.86633C7.65779 5.16966 7.05313 5.05363 6.75138 4.60717C6.44963 4.16072 6.56506 3.5529 7.00919 3.24958ZM5.38107 6.19039C5.86457 6.42513 6.06722 7.00943 5.8337 7.49546C5.42361 8.34898 5.19444 9.3015 5.19444 10.3083V14.66C5.19444 16.9036 6.33599 18.8959 8.10192 20.102C8.54606 20.4053 8.66148 21.0131 8.35973 21.4596C8.05798 21.9061 7.45333 22.0221 7.00919 21.7188C4.74516 20.1725 3.25 17.5921 3.25 14.66V10.3083C3.25 8.99953 3.54863 7.75709 4.08278 6.64538C4.3163 6.15935 4.89757 5.95565 5.38107 6.19039ZM19.7778 9.89374C20.3147 9.89374 20.75 10.3313 20.75 10.871V14.66C20.75 19.8655 15.9012 23.887 10.7547 23.1662C10.2229 23.0917 9.85187 22.598 9.92597 22.0634C10.0001 21.5288 10.4912 21.1558 11.023 21.2303C15.0675 21.7967 18.8056 18.6116 18.8056 14.66V10.871C18.8056 10.3313 19.2408 9.89374 19.7778 9.89374ZM12 10.0566C12.5369 10.0566 12.9722 10.4942 12.9722 11.0339V13.9658C12.9722 14.5056 12.5369 14.9431 12 14.9431C11.4631 14.9431 11.0278 14.5056 11.0278 13.9658V11.0339C11.0278 10.4942 11.4631 10.0566 12 10.0566Z" fill="#141B34"/>
<path fill-rule="evenodd" clip-rule="evenodd" d="M11.0276 6.63648C11.0276 6.09673 11.4628 5.65918 11.9998 5.65918C14.7287 5.65918 16.8609 7.97994 16.8609 10.7411C16.8609 11.2809 16.4256 11.7184 15.8887 11.7184C15.3517 11.7184 14.9164 11.2809 14.9164 10.7411C14.9164 8.96847 13.5665 7.61378 11.9998 7.61378C11.4628 7.61378 11.0276 7.17623 11.0276 6.63648ZM8.88589 8.09159C9.37509 8.31408 9.59225 8.89309 9.37092 9.38485C9.18723 9.79297 9.08312 10.2522 9.08312 10.7411V14.2594C9.08312 16.0321 10.4331 17.3868 11.9998 17.3868C13.5665 17.3868 14.9164 16.0321 14.9164 14.2594C14.9164 13.7197 15.3517 13.2821 15.8887 13.2821C16.4256 13.2821 16.8609 13.7197 16.8609 14.2594C16.8609 17.0206 14.7287 19.3414 11.9998 19.3414C9.27091 19.3414 7.13867 17.0206 7.13867 14.2594V10.7411C7.13867 9.97101 7.3031 9.23738 7.59935 8.57916C7.82068 8.0874 8.39668 7.86911 8.88589 8.09159Z" fill="#141B34"/>
</svg>
