<svg width="24" height="25" viewBox="0 0 24 25" fill="none" xmlns="http://www.w3.org/2000/svg">
<path opacity="0.4" d="M19.0494 13.75C19.7143 13.75 20.2871 13.7499 20.7458 13.8116C21.2375 13.8777 21.7087 14.0268 22.091 14.409C22.4732 14.7913 22.6223 15.2625 22.6884 15.7542C22.7501 16.2129 22.75 16.7858 22.75 17.4506V19.5494C22.75 20.2142 22.7501 20.7871 22.6884 21.2458C22.6223 21.7375 22.4732 22.2087 22.091 22.591C21.7087 22.9732 21.2375 23.1223 20.7458 23.1884C20.2871 23.2501 19.7142 23.25 19.0494 23.25H4.95063H4.95062C4.28576 23.25 3.7129 23.2501 3.25416 23.1884C2.76252 23.1223 2.29126 22.9732 1.90901 22.591C1.52677 22.2087 1.37771 21.7375 1.31161 21.2458C1.24993 20.7871 1.24996 20.2143 1.25 19.5494V19.5494V17.4506V17.4506C1.24996 16.7857 1.24993 16.2129 1.31161 15.7542C1.37771 15.2625 1.52677 14.7913 1.90901 14.409C2.29126 14.0268 2.76252 13.8777 3.25416 13.8116C3.71289 13.7499 4.28574 13.75 4.95058 13.75H4.95063H19.0494H19.0494Z" fill="#141B34"/>
<path d="M11.25 17.75H1.25V19.25H6.25L6.25 23.25H7.75L7.75 19.25H16.25V23.25H17.75V19.25H22.75V17.75H12.75L12.75 13.75H11.25L11.25 17.75Z" fill="#141B34"/>
<path d="M12.2539 1.79428C12.5101 1.88643 12.6961 2.11008 12.7401 2.37842C12.7549 2.44001 12.7972 2.61177 12.8411 2.74314C12.9291 3.00574 13.0871 3.39776 13.3618 3.87718C13.9095 4.8332 14.9296 6.15181 16.8097 7.4888C18.3611 8.59202 19.5912 10.1497 19.5912 12C19.5912 12.4142 19.2554 12.75 18.8412 12.75L5.03516 12.75C4.62094 12.75 4.28516 12.4142 4.28516 12C4.28516 11.1082 4.56077 10.1493 4.93855 9.27405C5.32002 8.3902 5.82853 7.53899 6.34706 6.84931C6.52562 6.61181 6.82756 6.50212 7.11692 6.56963C7.40629 6.63713 7.62852 6.8691 7.68356 7.1611C7.78156 7.68107 8.04596 8.44004 8.48828 9.01039C8.55298 9.09381 8.58532 9.13552 8.64651 9.15396C8.73188 9.17968 8.84526 9.12995 8.88417 9.04972C8.91205 8.99222 8.90031 8.92261 8.87683 8.7834C8.59796 7.1297 9.01801 5.65102 9.58763 4.51406C9.98453 3.72187 10.4576 3.08458 10.8296 2.64606C11.0164 2.42592 11.2609 2.15295 11.5026 1.93874C11.7078 1.75687 11.9959 1.70147 12.2539 1.79428Z" fill="#141B34"/>
</svg>
