<svg width="24" height="24" viewBox="0 0 24 24" fill="none" xmlns="http://www.w3.org/2000/svg">
<g opacity="0.4">
<path d="M18.112 5.49961C18.1251 5.21243 18.125 4.89245 18.125 4.54722V4.45234C18.125 4.10698 18.1251 3.78686 18.112 3.49961H21.8744C22.4266 3.49961 22.8744 3.94732 22.8744 4.49961C22.8744 5.05189 22.4266 5.49961 21.8744 5.49961H18.112Z" fill="#141B34"/>
<path d="M11.6381 3.49952C11.625 3.78679 11.625 4.10691 11.625 4.4523V4.54719C11.625 4.89239 11.625 5.21236 11.638 5.49952H8.875C8.15196 5.49952 7.68495 5.50072 7.33313 5.53651C6.99803 5.5706 6.87996 5.6276 6.81943 5.66805C6.71024 5.741 6.61649 5.83476 6.54353 5.94395C6.50309 6.00447 6.44609 6.12254 6.412 6.45764C6.37621 6.80946 6.375 7.27647 6.375 7.99952V8.25472C6.082 8.24974 5.76356 8.24975 5.41995 8.24976H5.3301C4.98649 8.24975 4.66803 8.24974 4.375 8.25472L4.375 7.95096C4.37497 7.29023 4.37495 6.72039 4.42227 6.25523C4.47245 5.76199 4.58398 5.27673 4.8806 4.83281C5.09947 4.50523 5.38072 4.22398 5.70829 4.00511C6.15221 3.70849 6.63748 3.59696 7.13072 3.54678C7.59588 3.49946 8.16567 3.49949 8.8264 3.49951L11.6381 3.49952Z" fill="#141B34"/>
<path d="M4.375 15.7448L4.375 16.0486C4.37497 16.7093 4.37495 17.2791 4.42227 17.7443C4.47245 18.2375 4.58398 18.7228 4.8806 19.1667C5.09947 19.4943 5.38072 19.7755 5.70829 19.9944C6.15221 20.291 6.63748 20.4026 7.13072 20.4527C7.59589 20.5001 8.16569 20.5 8.82643 20.5H11.6381C11.625 20.2127 11.625 19.8926 11.625 19.5472V19.4523C11.625 19.1071 11.625 18.7872 11.638 18.5H8.875C8.15196 18.5 7.68495 18.4988 7.33313 18.463C6.99803 18.4289 6.87996 18.3719 6.81943 18.3315C6.71024 18.2585 6.61649 18.1648 6.54353 18.0556C6.50309 17.995 6.44609 17.877 6.412 17.5419C6.37621 17.1901 6.375 16.723 6.375 16V15.7448C6.082 15.7498 5.76357 15.7498 5.41997 15.7498H5.3301C4.98651 15.7498 4.66801 15.7498 4.375 15.7448Z" fill="#141B34"/>
<path d="M18.112 20.4999C18.1251 20.2127 18.125 19.8926 18.125 19.5472V19.4523C18.125 19.1071 18.1251 18.7871 18.112 18.4999H21.8744C22.4266 18.4999 22.8744 18.9476 22.8744 19.4999C22.8744 20.0522 22.4266 20.4999 21.8744 20.4999H18.112Z" fill="#141B34"/>
</g>
<path d="M14.8276 1.25L14.875 1.25L14.9224 1.25L14.9224 1.25C15.471 1.24996 15.9558 1.24992 16.3465 1.30246C16.7701 1.3594 17.1936 1.49016 17.5392 1.83579C17.8849 2.18143 18.0156 2.60492 18.0726 3.02848C18.1251 3.41923 18.1251 3.90401 18.125 4.45256V4.45258L18.125 4.50001L18.125 4.54743V4.54745C18.1251 5.096 18.1251 5.58078 18.0726 5.97153C18.0156 6.39509 17.8849 6.81858 17.5392 7.16422C17.1936 7.50985 16.7701 7.64061 16.3465 7.69755C15.9558 7.75009 15.471 7.75005 14.9225 7.75001H14.9224L14.875 7.75L14.8276 7.75001H14.8276C14.279 7.75005 13.7942 7.75009 13.4035 7.69755C12.9799 7.64061 12.5564 7.50985 12.2108 7.16422C11.8652 6.81858 11.7344 6.39509 11.6775 5.97153C11.6249 5.58077 11.625 5.09599 11.625 4.54744L11.625 4.50001L11.625 4.45257L11.625 4.45257C11.625 3.90402 11.6249 3.41924 11.6775 3.02848C11.7344 2.60492 11.8652 2.18143 12.2108 1.83579C12.5564 1.49016 12.9799 1.3594 13.4035 1.30246C13.7942 1.24992 14.279 1.24996 14.8276 1.25Z" fill="#141B34"/>
<path d="M14.8276 16.25L14.875 16.25L14.9224 16.25L14.9224 16.25C15.471 16.25 15.9558 16.2499 16.3465 16.3025C16.7701 16.3594 17.1936 16.4902 17.5392 16.8358C17.8849 17.1814 18.0156 17.6049 18.0726 18.0285C18.1251 18.4192 18.1251 18.904 18.125 19.4526V19.4526L18.125 19.5L18.125 19.5474V19.5475C18.1251 20.096 18.1251 20.5808 18.0726 20.9715C18.0156 21.3951 17.8849 21.8186 17.5392 22.1642C17.1936 22.5099 16.7701 22.6406 16.3465 22.6976C15.9558 22.7501 15.471 22.7501 14.9225 22.75H14.9224L14.875 22.75L14.8276 22.75H14.8276C14.279 22.7501 13.7942 22.7501 13.4035 22.6976C12.9799 22.6406 12.5564 22.5099 12.2108 22.1642C11.8652 21.8186 11.7344 21.3951 11.6775 20.9715C11.6249 20.5808 11.625 20.096 11.625 19.5474L11.625 19.5L11.625 19.4526L11.625 19.4526C11.625 18.904 11.6249 18.4192 11.6775 18.0285C11.7344 17.6049 11.8652 17.1814 12.2108 16.8358C12.5564 16.4902 12.9799 16.3594 13.4035 16.3025C13.7942 16.2499 14.279 16.25 14.8276 16.25Z" fill="#141B34"/>
<path d="M5.41994 8.25C6.20663 8.24998 6.86141 8.24996 7.38109 8.30985C7.92186 8.37217 8.4299 8.50935 8.85054 8.8699C9.28785 9.24474 9.47112 9.72301 9.55188 10.2379C9.62512 10.7048 9.62507 11.285 9.62501 11.9446L9.62501 12L9.62501 12.0554C9.62507 12.715 9.62512 13.2952 9.55188 13.7621C9.47112 14.277 9.28785 14.7553 8.85054 15.1301C8.4299 15.4907 7.92186 15.6278 7.38109 15.6902C6.86141 15.75 6.20661 15.75 5.41991 15.75H5.3301C4.5434 15.75 3.88861 15.75 3.36892 15.6902C2.82815 15.6278 2.32011 15.4907 1.89948 15.1301C1.46216 14.7553 1.27889 14.277 1.19814 13.7621C1.1249 13.2952 1.12495 12.715 1.125 12.0554L1.125 12.0554L1.12501 12L1.125 11.9446L1.125 11.9446C1.12495 11.285 1.1249 10.7048 1.19814 10.2379C1.27889 9.72301 1.46216 9.24474 1.89948 8.8699C2.32011 8.50935 2.82815 8.37217 3.36892 8.30985C3.8886 8.24996 4.54338 8.24998 5.33007 8.25H5.3301H5.41991H5.41994Z" fill="#141B34"/>
</svg>
