<svg width="24" height="24" viewBox="0 0 24 24" fill="none" xmlns="http://www.w3.org/2000/svg">
<path d="M16.8156 11.75C17.3328 11.7498 17.7043 11.7497 18.0633 11.8283C18.4659 11.9164 18.849 12.0771 19.1945 12.3026C19.5023 12.5035 19.7641 12.7687 20.13 13.1394L21.572 14.5994C22.0075 15.0393 22.3658 15.4013 22.5587 15.8728C22.7512 16.3434 22.7506 17.3279 22.7499 17.9506C22.7499 18.756 22.7499 19.4341 22.6783 19.9738C22.6024 20.5455 22.4341 21.0733 22.0128 21.4999C21.5903 21.9277 21.0652 22.0998 20.4962 22.1773C19.9613 22.2501 19.2899 22.2501 18.4958 22.25H17.504C16.7099 22.2501 16.0385 22.2501 15.5036 22.1773C14.9346 22.0998 14.4095 21.9277 13.987 21.4999C13.5657 21.0733 13.3974 20.5455 13.3215 19.9738C13.2498 19.4341 13.2498 18.756 13.2499 17.9507V17.9506L13.2499 15.2489C13.2499 14.8168 13.2499 14.4525 13.2717 14.1533C13.2945 13.8406 13.3441 13.5405 13.474 13.2503C13.7256 12.6884 14.1714 12.2358 14.7307 11.979C15.0204 11.846 15.3201 11.7954 15.6307 11.7722C15.9272 11.75 16.3895 11.75 16.8156 11.75Z" fill="#141B34"/>
<path opacity="0.4" d="M9.46253 1.98884C8.82367 1.74927 8.11198 1.74958 7.08258 1.75004C6.20384 1.75003 5.32199 1.75006 4.74964 1.80052C4.1599 1.8525 3.64382 1.96246 3.17252 2.22548C2.56527 2.56435 2.06422 3.06541 1.72534 3.67266C1.46232 4.14396 1.35236 4.66004 1.30038 5.24978C1.24992 5.82212 1.24993 6.53085 1.24994 7.40958V10.5575C1.24993 12.8658 1.24992 14.6749 1.43969 16.0864C1.63393 17.5311 2.03927 18.6711 2.93408 19.5659C3.82889 20.4608 4.96891 20.8661 6.41364 21.0603C7.66173 21.2281 9.22065 21.2476 11.1608 21.2498C11.4456 21.2501 11.588 21.2503 11.6761 21.1617C11.7642 21.0731 11.7633 20.9305 11.7615 20.6454C11.7547 19.587 11.7499 18.2855 11.7499 17.9507L11.7499 15.2107C11.7499 14.8098 11.7499 14.3987 11.7757 14.0442C11.8046 13.6492 11.874 13.1534 12.105 12.6374C12.5039 11.7466 13.2122 11.0257 14.105 10.6159C14.624 10.3776 15.1234 10.3061 15.5189 10.2765C15.8726 10.25 16.493 10.25 16.888 10.2501C17.344 10.2496 17.8628 10.249 18.384 10.3631C18.9648 10.4901 19.5171 10.722 20.0144 11.0466C20.4599 11.3373 20.8239 11.7066 21.1462 12.0337L21.7333 12.6279C22.1627 13.0626 22.3775 13.2799 22.5635 13.2036C22.7495 13.1272 22.7496 12.8225 22.7499 12.2132L22.7499 11.7923C22.75 10.7733 22.75 9.86889 22.6829 9.20956C22.6137 8.529 22.4668 7.9388 22.118 7.41669C21.8444 7.00723 21.4928 6.65566 21.0833 6.38207C20.5612 6.03321 19.971 5.88636 19.2905 5.81713C18.6311 5.75006 17.8094 5.75007 16.7904 5.75008L13.236 5.75008C12.9199 5.75008 12.7395 5.74915 12.6063 5.73539C12.5043 5.72825 12.4347 5.65263 12.4127 5.61571C12.3408 5.50277 12.0838 4.98916 11.9424 4.70644C11.4704 3.75129 10.858 2.51213 9.46253 1.98884Z" fill="#141B34"/>
</svg>
