<svg width="24" height="24" viewBox="0 0 24 24" fill="none" xmlns="http://www.w3.org/2000/svg">
<g opacity="0.4">
<path d="M15.0469 10.6253C12.6211 10.2977 10.5767 9.41217 9.08623 8.63201C8.81329 8.49177 7.73743 7.89492 7.23362 7.61403C6.45581 7.12613 5.83192 7.1931 5.61719 7.28757C5.22139 7.47863 4.98413 7.80933 4.86409 8.18128C4.7536 8.52362 4.73704 8.91185 4.75549 9.29941C4.78463 9.9116 4.92888 10.7838 5.10697 11.7685C5.16474 12.0879 5.19362 12.2476 5.29441 12.3184C5.3952 12.3892 5.58208 12.3578 5.95583 12.2949C6.13246 12.2652 6.31394 12.2497 6.49902 12.2497C8.29395 12.2497 9.74902 13.7048 9.74902 15.4997C9.74902 17.0505 8.58235 18.3462 7.10738 18.6701C6.74812 18.7489 6.56848 18.7884 6.50142 18.891C6.43436 18.9935 6.46513 19.148 6.52668 19.4568C6.66399 20.1459 6.80414 20.7378 6.98283 21.2045C7.12437 21.5742 7.31193 21.9283 7.59099 22.2069C7.88613 22.5015 8.24884 22.6768 8.66744 22.7318C9.52295 22.8444 10.2245 22.4176 10.8546 21.8395C11.4722 21.2727 12.1717 20.4176 13.0338 19.3638L17.3095 14.1373C17.5421 13.8533 17.7793 13.5635 17.9294 13.2852C18.1144 12.9423 18.2072 12.549 18.0731 12.1007C18.0109 11.8929 17.8954 11.683 17.7613 11.5196C17.4532 11.1442 17.0146 10.9814 16.6038 10.8805C16.1976 10.7807 15.6702 10.7095 15.0469 10.6253Z" fill="#141B34"/>
<path d="M6.03557 16.8174C6.07157 17.013 6.08957 17.1108 6.17299 17.1802C6.25641 17.2497 6.33728 17.2497 6.49902 17.2497C7.46552 17.2497 8.24902 16.4662 8.24902 15.4997C8.24902 14.5332 7.46552 13.7497 6.49902 13.7497C6.27894 13.7497 6.06835 13.7903 5.87433 13.8645C5.72408 13.9219 5.64895 13.9506 5.59583 14.0452C5.5427 14.1398 5.56068 14.2374 5.59664 14.4328L6.03557 16.8174Z" fill="#141B34"/>
</g>
<path d="M6.03561 16.8177C6.07161 17.0133 6.08961 17.1111 6.17302 17.1805C6.25644 17.25 6.33732 17.25 6.49906 17.25C7.46556 17.25 8.24906 16.4665 8.24906 15.5C8.24906 14.5335 7.46556 13.75 6.49906 13.75C6.27898 13.75 6.06838 13.7906 5.87437 13.8648C5.72411 13.9222 5.64899 13.9509 5.59586 14.0455C5.54274 14.1401 5.56072 14.2377 5.59668 14.4331L6.03561 16.8177Z" fill="#141B34"/>
<path fill-rule="evenodd" clip-rule="evenodd" d="M12.1277 1.37733C11.1693 1.00711 10.0084 1.47061 9.68781 2.5036C9.63632 2.66955 9.62354 2.84041 9.61775 2.98014C9.61297 3.09562 9.61204 3.23427 9.61186 3.39259C9.55274 3.36004 9.49063 3.32994 9.42599 3.30497C8.46764 2.93475 7.30669 3.39825 6.98614 4.43124C6.93465 4.59719 6.92187 4.76805 6.91608 4.90778C6.91015 5.05116 6.91015 5.23027 6.91016 5.43839V5.4384V7.43723C7.01433 7.48585 7.1224 7.54426 7.23362 7.61403C7.52366 7.77574 8.00328 8.04215 8.41016 8.26589V5.4539C8.41016 5.22592 8.41031 5.07832 8.4148 4.96982C8.41744 4.90614 8.42116 4.8751 8.42243 4.86499C8.44343 4.80838 8.49234 4.75002 8.57849 4.71156C8.66931 4.671 8.77892 4.66433 8.88141 4.70266C8.88162 4.70278 8.88211 4.70305 8.88289 4.70348C8.89007 4.70738 8.92218 4.72487 8.99417 4.77429C9.0904 4.84035 9.21658 4.93397 9.40745 5.07584C9.50084 5.14525 9.55099 5.19685 9.57811 5.23426C9.59968 5.26401 9.60715 5.28478 9.61035 5.31009C9.6105 5.3122 9.61088 5.31855 9.61118 5.33161C9.61178 5.35741 9.61182 5.39162 9.61182 5.4539V7.08092C9.61182 7.49513 9.94761 7.83092 10.3618 7.83092C10.776 7.83092 11.1118 7.49513 11.1118 7.08092V5.4539L11.1118 5.43015L11.1118 5.38075V3.52626C11.1118 3.29828 11.112 3.15068 11.1165 3.04218C11.1191 2.9785 11.1228 2.94746 11.1241 2.93735C11.1451 2.88074 11.194 2.82238 11.2802 2.78392C11.371 2.74336 11.4806 2.73669 11.5831 2.77502C11.5833 2.77514 11.5838 2.77541 11.5846 2.77584C11.5917 2.77974 11.6238 2.79723 11.6958 2.84665C11.7921 2.91271 11.9183 3.00633 12.1091 3.1482C12.2736 3.27043 12.3135 3.36358 12.3135 3.52626V5.38065L12.3135 5.43014L12.3135 5.4539V10.0016C12.9861 10.2169 13.7054 10.4021 14.4656 10.5352L16.4027 7.3946C16.4545 7.31143 16.4876 7.29277 16.5076 7.28235C16.5461 7.26235 16.6213 7.23624 16.8045 7.21032C17.0457 7.17619 17.2066 7.15353 17.3267 7.1409C17.4216 7.13092 17.4603 7.13098 17.4684 7.13099C17.4696 7.13099 17.4701 7.131 17.4701 7.13097C17.5846 7.14558 17.6631 7.20135 17.7059 7.25963C17.745 7.31287 17.7556 7.36677 17.7446 7.41921C17.7405 7.42813 17.7267 7.45771 17.693 7.51726C17.638 7.61419 17.5581 7.74293 17.4356 7.94008L15.7098 10.7172C16.0508 10.7672 16.3508 10.8183 16.6038 10.8805C16.8141 10.9322 17.0317 11 17.2353 11.1043L18.7176 8.71899C18.8299 8.53825 18.9259 8.38376 18.9976 8.25753C19.0669 8.13538 19.1469 7.9833 19.1914 7.81643C19.4792 6.73754 18.6799 5.76644 17.6475 5.64148C17.4835 5.62163 17.3166 5.63369 17.1698 5.64913C17.0197 5.66492 16.8319 5.69149 16.6081 5.72316L16.5943 5.72511C16.5684 5.72878 16.542 5.7327 16.5152 5.73696V5.43842C16.5152 5.23029 16.5152 5.05117 16.5092 4.90778C16.5034 4.76805 16.4907 4.59719 16.4392 4.43124C16.1186 3.39825 14.9577 2.93475 13.9993 3.30497C13.9333 3.33048 13.8699 3.36133 13.8097 3.39469C13.7738 2.78728 13.4879 2.30401 13.0039 1.94431L12.9923 1.93571L12.9923 1.93569C12.8161 1.80475 12.6671 1.69397 12.5447 1.60996C12.4246 1.52751 12.2835 1.43753 12.1277 1.37733ZM15.0152 6.78689L13.8135 8.73512V5.4539C13.8135 5.39162 13.8135 5.35741 13.8141 5.33161C13.8144 5.31855 13.8148 5.3122 13.815 5.31008C13.8182 5.28477 13.8256 5.26401 13.8472 5.23426C13.8743 5.19685 13.9245 5.14525 14.0179 5.07584C14.2087 4.93397 14.3349 4.84035 14.4311 4.77429C14.5031 4.72487 14.5353 4.70738 14.5424 4.70347C14.5432 4.70305 14.5437 4.70278 14.5439 4.70266C14.6464 4.66433 14.756 4.671 14.8468 4.71156C14.933 4.75002 14.9819 4.80838 15.0029 4.865C15.0042 4.8751 15.0079 4.90614 15.0105 4.96982C15.015 5.07832 15.0152 5.22592 15.0152 5.4539V6.78689Z" fill="#141B34"/>
</svg>
