<svg width="24" height="24" viewBox="0 0 24 24" fill="none" xmlns="http://www.w3.org/2000/svg">
<path opacity="0.4" d="M1.25 12C1.25 6.06294 6.06294 1.25 12 1.25C17.9371 1.25 22.75 6.06294 22.75 12C22.75 17.9371 17.9371 22.75 12 22.75C6.06294 22.75 1.25 17.9371 1.25 12Z" fill="#141B34"/>
<path d="M14.0593 22.553C13.3928 22.6823 12.7043 22.75 12 22.75C11.296 22.75 10.6079 22.6823 9.94166 22.5532V20.5109C9.94166 20.2463 9.94166 20.114 9.86894 20.0296C9.79621 19.9452 9.65383 19.9239 9.36905 19.8813C9.07311 19.8371 8.7844 19.7676 8.50437 19.6718C7.4374 19.3066 6.55702 18.5782 5.91481 17.5272C5.69884 17.1737 5.81029 16.7121 6.16375 16.4961C6.5172 16.2802 6.97881 16.3916 7.19478 16.7451C7.6721 17.5262 8.28444 18.0111 8.99007 18.2526C9.01502 18.2611 9.04252 18.271 9.07197 18.2816C9.30172 18.3642 9.65019 18.4896 9.82829 18.3481C9.9684 18.2367 9.95631 18.0076 9.94634 17.8187C9.94394 17.7732 9.94166 17.7301 9.94166 17.6915C9.94166 17.3325 10.0499 17.0205 10.2243 16.7387C10.3439 16.5453 10.262 16.271 10.0458 16.2104C8.25575 15.7085 7.00049 14.9014 7.00049 12.2244C7.00049 11.5284 7.22405 10.8741 7.61702 10.3046C7.71476 10.163 7.76242 10.0987 7.77545 10.028C7.7885 9.95718 7.76682 9.87999 7.72592 9.71237C7.58215 9.1232 7.57066 8.50252 7.7313 7.92354C7.76293 7.80953 7.77874 7.75253 7.86956 7.69067C7.96037 7.62881 8.00763 7.63376 8.10215 7.64365C8.36789 7.67145 8.82802 7.79571 9.51048 8.23058C9.77862 8.40144 9.91269 8.48688 10.0308 8.50599C10.1488 8.5251 10.3067 8.48507 10.6224 8.40501C11.0542 8.29554 11.4991 8.23676 12.0005 8.23676C12.5019 8.23676 12.9468 8.29553 13.3785 8.40501C13.6943 8.48507 13.8521 8.5251 13.9702 8.50599C14.0883 8.48688 14.2224 8.40144 14.4905 8.23058C15.173 7.79571 15.6331 7.67145 15.8988 7.64365C15.9933 7.63376 16.0406 7.62881 16.1314 7.69067C16.2222 7.75253 16.2381 7.80953 16.2697 7.92354C16.4303 8.50252 16.4188 9.12319 16.2751 9.71235C16.2342 9.87999 16.2125 9.95718 16.2255 10.028C16.2386 10.0987 16.2862 10.163 16.3839 10.3046C16.7769 10.8741 17.0005 11.5284 17.0005 12.2244C17.0005 14.9014 15.7452 15.7085 13.9551 16.2104C13.739 16.271 13.6571 16.5453 13.7767 16.7387C13.9511 17.0205 14.0593 17.3325 14.0593 17.6915V22.553Z" fill="#141B34"/>
</svg>
