<svg width="24" height="25" viewBox="0 0 24 25" fill="none" xmlns="http://www.w3.org/2000/svg">
<path opacity="0.4" fill-rule="evenodd" clip-rule="evenodd" d="M7 1.50024C7.55228 1.50024 8 1.94796 8 2.50024V22.5002C8 23.0525 7.55228 23.5002 7 23.5002C6.44772 23.5002 6 23.0525 6 22.5002V2.50024C6 1.94796 6.44772 1.50024 7 1.50024Z" fill="#141B34"/>
<path opacity="0.4" fill-rule="evenodd" clip-rule="evenodd" d="M17 1.50024C17.5523 1.50024 18 1.94796 18 2.50024V22.5002C18 23.0525 17.5523 23.5002 17 23.5002C16.4477 23.5002 16 23.0525 16 22.5002V2.50024C16 1.94796 16.4477 1.50024 17 1.50024Z" fill="#141B34"/>
<path fill-rule="evenodd" clip-rule="evenodd" d="M23 7.50024C23 8.05253 22.5523 8.50024 22 8.50024L2 8.50024C1.44771 8.50024 1 8.05253 1 7.50024C1 6.94796 1.44771 6.50024 2 6.50024L22 6.50024C22.5523 6.50024 23 6.94796 23 7.50024Z" fill="#141B34"/>
<path fill-rule="evenodd" clip-rule="evenodd" d="M23 17.5002C23 18.0525 22.5523 18.5002 22 18.5002L2 18.5002C1.44771 18.5002 1 18.0525 1 17.5002C1 16.948 1.44771 16.5002 2 16.5002L22 16.5002C22.5523 16.5002 23 16.948 23 17.5002Z" fill="#141B34"/>
</svg>
