<svg width="24" height="24" viewBox="0 0 24 24" fill="none" xmlns="http://www.w3.org/2000/svg">
<path opacity="0.4" d="M20.5012 11.2575C20.0475 11.3189 19.4813 11.3188 18.8258 11.3188L10.9806 11.3188L9.4542 17.7488C9.38005 18.1758 9.43077 18.6151 9.60029 19.0139C9.68577 19.1754 9.86361 19.5288 9.89109 19.6504C10.0985 20.3621 9.64432 21.0969 8.91497 21.2298C8.79905 21.2509 8.66506 21.2504 8.57708 21.2501H8.57705L4.47618 21.25C3.93887 21.2501 3.45614 21.2501 3.07369 21.1944C2.65884 21.134 2.21275 20.9893 1.89352 20.5778C1.57514 20.1674 1.5443 19.6996 1.58644 19.2825C1.62542 18.8966 1.74233 18.4262 1.87285 17.901L3.23859 12.4033C3.37687 11.8467 2.95777 11.3188 2.40292 11.3188C1.7617 11.3188 1.25 10.797 1.25 10.1633V7.58943C1.25 6.95708 1.28181 6.39861 1.3854 5.92406C1.49079 5.44127 1.68046 4.99826 2.02975 4.64675C2.37943 4.29484 2.82099 4.10314 3.30273 3.99664C3.77572 3.89207 4.33185 3.86006 4.96053 3.86006H18.1677C18.6378 3.86006 19.1666 3.65526 19.808 3.17566C19.9827 3.05795 20.2165 2.91357 20.4809 2.82802C20.7586 2.73819 21.1176 2.69871 21.4878 2.86141C21.847 3.0193 22.0994 3.31653 22.2805 3.65526C22.4871 4.04172 22.6005 4.61876 22.6661 5.17825C22.7355 5.77034 22.763 6.45737 22.7443 7.13563C22.7255 7.81184 22.6602 8.50246 22.5351 9.09666C22.4194 9.64608 22.2227 10.2713 21.8353 10.6611C21.4562 11.0427 20.9883 11.1916 20.5012 11.2575Z" fill="#141B34"/>
<path fill-rule="evenodd" clip-rule="evenodd" d="M9.98828 15.4998L9.99251 15.4998C10.8319 15.5 11.4079 15.5002 11.9305 15.3876C13.4243 15.0657 14.6889 14.0783 15.3635 12.7072C15.5553 12.3174 15.6805 11.8839 15.8252 11.3188H13.7532C13.6849 11.5526 13.6308 11.6985 13.569 11.8242C13.1642 12.6469 12.4054 13.2393 11.5091 13.4325C11.2873 13.4803 11.0301 13.4944 10.4634 13.4984L9.98828 15.4998Z" fill="#141B34"/>
<path fill-rule="evenodd" clip-rule="evenodd" d="M9.15873 3.85986H7.48168L6.93475 4.95371C6.65891 5.5054 6.47654 5.86806 6.30724 6.13415C6.14726 6.38557 6.03263 6.49465 5.9211 6.56358C5.80957 6.63251 5.66073 6.68626 5.36431 6.7169C5.0506 6.74934 4.64467 6.75027 4.02786 6.75027H1.27505C1.25698 7.01302 1.25 7.29302 1.25 7.58923V8.25027L4.06473 8.25027C4.63472 8.25029 5.11865 8.2503 5.51858 8.20895C5.94439 8.16492 6.33792 8.06932 6.70969 7.83956C7.08147 7.60979 7.34296 7.30056 7.57277 6.93939C7.78861 6.60018 8.00502 6.16733 8.2599 5.65752L9.15873 3.85986ZM22.75 6.7498C22.7497 6.87819 22.7478 7.00697 22.7443 7.13543C22.7339 7.50871 22.7094 7.88638 22.6685 8.2498L20 8.2498C19.5858 8.2498 19.25 7.91402 19.25 7.4998C19.25 7.08559 19.5858 6.7498 20 6.7498L22.75 6.7498Z" fill="#141B34"/>
</svg>
