<svg width="24" height="24" viewBox="0 0 24 24" fill="none" xmlns="http://www.w3.org/2000/svg">
<path opacity="0.4" d="M19.8546 3.35515C16.8736 1.52662 14.1994 2.25537 12.5839 3.46861C12.3181 3.6682 12.1357 3.8048 11.9999 3.89704C11.8641 3.8048 11.6817 3.6682 11.4159 3.46861C9.80039 2.25537 7.12616 1.52662 4.14519 3.35515C2.08394 4.61952 0.924112 7.2606 1.3311 10.2951C1.74005 13.3443 3.71363 16.7929 7.89323 19.8865C9.34461 20.9614 10.4098 21.7503 11.9999 21.7503C13.59 21.7503 14.6552 20.9614 16.1066 19.8865C20.2862 16.7929 22.2598 13.3443 22.6687 10.2951C23.0757 7.2606 21.9159 4.61952 19.8546 3.35515Z" fill="#141B34"/>
<path fill-rule="evenodd" clip-rule="evenodd" d="M12.0005 8.00098C11.4482 8.00098 11.0005 8.44869 11.0005 9.00098V11.001H9.00049C8.4482 11.001 8.00049 11.4487 8.00049 12.001C8.00049 12.5533 8.4482 13.001 9.00049 13.001H11.0005V15.001C11.0005 15.5533 11.4482 16.001 12.0005 16.001C12.5528 16.001 13.0005 15.5533 13.0005 15.001V13.001H15.0005C15.5528 13.001 16.0005 12.5533 16.0005 12.001C16.0005 11.4487 15.5528 11.001 15.0005 11.001H13.0005V9.00098C13.0005 8.44869 12.5528 8.00098 12.0005 8.00098Z" fill="#141B34"/>
</svg>
