<svg width="24" height="24" viewBox="0 0 24 24" fill="none" xmlns="http://www.w3.org/2000/svg">
<path d="M12.6172 1.96367C13.6005 1.25022 15.2246 0.833417 17.001 1.88616C18.2699 2.63818 18.9411 4.17763 18.704 5.88548C18.4648 7.60882 17.3173 9.51201 14.9639 11.195C14.1924 11.7477 13.4912 12.25 12.5016 12.25C11.512 12.25 10.8107 11.7477 10.0392 11.195C7.68578 9.51201 6.53831 7.60882 6.29908 5.88548C6.062 4.17763 6.7332 2.63818 8.00213 1.88616C9.77849 0.833417 11.4026 1.25022 12.3859 1.96367L12.5016 2.04742L12.6172 1.96367Z" fill="#141B34"/>
<path opacity="0.4" d="M5.95575 13.251C5.52293 13.2509 5.1261 13.2509 4.80329 13.2943C4.44781 13.3421 4.07208 13.4545 3.76306 13.7635C3.45404 14.0726 3.34159 14.4483 3.29379 14.8038C3.25039 15.1266 3.25044 15.5234 3.25049 15.9562L3.25049 18.5645C3.25045 18.8926 3.25041 19.2001 3.28036 19.4571C3.31369 19.7431 3.39087 20.0437 3.59805 20.3213C3.80523 20.5989 4.07151 20.7584 4.33618 20.8717C4.574 20.9735 4.86879 21.061 5.1834 21.1543L10.1823 22.6376C10.9068 22.8526 11.6832 22.759 12.3382 22.3811L19.8538 18.0448C20.787 17.5064 21.0271 16.2648 20.4056 15.4042C19.7127 14.4447 18.5022 14.0219 17.3717 14.3734L17.3702 14.3739L15.2447 15.0269C14.996 15.1033 14.8717 15.1415 14.8327 15.2132C14.7938 15.2849 14.8403 15.4484 14.9333 15.7753C15.0042 16.0245 15.0126 16.2636 15.0005 16.3983C15.0005 17.3796 14.3315 18.1719 13.4672 18.4109L10.9263 19.1134C10.0046 19.3682 9.01736 19.2806 8.15437 18.8631L6.53408 18.0791C6.22336 17.9288 6.09335 17.555 6.24369 17.2443C6.39403 16.9336 6.76779 16.8035 7.07851 16.9539L8.69879 17.7378C9.28741 18.0226 9.96267 18.0829 10.5932 17.9086L13.1341 17.2061C13.4842 17.1093 13.7505 16.7894 13.7505 16.3983C13.7505 14.9852 12.5738 14.6262 11.1746 14.6262L10.132 14.6261C9.95023 14.6261 9.77187 14.5851 9.6113 14.5074L7.56932 13.5194C7.20371 13.3425 6.80185 13.251 6.39531 13.251L5.95575 13.251Z" fill="#141B34"/>
</svg>
