<svg width="24" height="25" viewBox="0 0 24 25" fill="none" xmlns="http://www.w3.org/2000/svg">
<path opacity="0.4" d="M5.25 12.5C5.25 8.77208 8.27208 5.75 12 5.75C12.4142 5.75 12.75 6.08579 12.75 6.5C12.75 7.74264 13.7574 8.75 15 8.75C15.5075 8.75 15.9738 8.58287 16.3499 8.30033C16.5089 8.18083 16.7089 8.12941 16.9059 8.15738C17.1028 8.18536 17.2806 8.29043 17.4001 8.44949C18.2475 9.57771 18.75 10.9813 18.75 12.5C18.75 12.9142 18.4142 13.25 18 13.25H6C5.58579 13.25 5.25 12.9142 5.25 12.5Z" fill="#141B34"/>
<path opacity="0.4" fill-rule="evenodd" clip-rule="evenodd" d="M6.47909 14.8711C6.93768 14.6222 7.52449 14.7692 7.78976 15.1995C8.62052 16.5468 10.1709 17.4501 11.945 17.4501C13.7191 17.4501 15.2695 16.5468 16.1002 15.1995C16.3655 14.7692 16.9523 14.6222 17.4109 14.8711C17.8695 15.12 18.0262 15.6705 17.7609 16.1008C16.6013 17.9814 14.4316 19.25 11.945 19.25C9.45836 19.25 7.28866 17.9814 6.12908 16.1008C5.8638 15.6705 6.02051 15.12 6.47909 14.8711Z" fill="#141B34"/>
<path fill-rule="evenodd" clip-rule="evenodd" d="M9.18557 2.95052C9.2129 3.50213 8.7879 3.97146 8.23629 3.9988C6.16432 4.10148 5.19943 4.40811 4.55377 5.05377C3.90811 5.69943 3.60148 6.66432 3.4988 8.73629C3.47146 9.2879 3.00213 9.71291 2.45052 9.68557C1.89892 9.65823 1.47391 9.1889 1.50125 8.6373C1.60669 6.50982 1.92267 4.85645 3.13956 3.63956C4.35645 2.42267 6.00982 2.10669 8.13729 2.00125C8.6889 1.97391 9.15823 2.39892 9.18557 2.95052ZM14.8145 2.95052C14.8418 2.39892 15.3111 1.97391 15.8628 2.00125C17.9902 2.10669 19.6436 2.42267 20.8605 3.63956C22.0774 4.85645 22.3934 6.50982 22.4988 8.6373C22.5261 9.1889 22.1011 9.65823 21.5495 9.68557C20.9979 9.71291 20.5286 9.2879 20.5012 8.73629C20.3986 6.66432 20.0919 5.69943 19.4463 5.05377C18.8006 4.40811 17.8357 4.10148 15.7638 3.9988C15.2121 3.97146 14.7871 3.50213 14.8145 2.95052ZM2.45052 15.3145C3.00213 15.2871 3.47146 15.7121 3.4988 16.2638C3.60148 18.3357 3.90811 19.3006 4.55377 19.9463C5.19943 20.5919 6.16432 20.8986 8.23629 21.0012C8.78789 21.0286 9.2129 21.4979 9.18556 22.0495C9.15822 22.6011 8.68889 23.0261 8.13729 22.9988C6.00982 22.8934 4.35645 22.5774 3.13956 21.3605C1.92267 20.1436 1.60669 18.4902 1.50125 16.3628C1.47391 15.8111 1.89892 15.3418 2.45052 15.3145ZM21.5495 15.3145C22.1011 15.3418 22.5261 15.8111 22.4988 16.3628C22.3934 18.4902 22.0774 20.1436 20.8605 21.3605C19.6436 22.5774 17.9902 22.8934 15.8628 22.9988C15.3111 23.0261 14.8418 22.6011 14.8145 22.0495C14.7871 21.4979 15.2121 21.0286 15.7638 21.0012C17.8357 20.8986 18.8006 20.5919 19.4463 19.9463C20.0919 19.3006 20.3986 18.3357 20.5012 16.2638C20.5286 15.7121 20.9979 15.2871 21.5495 15.3145Z" fill="#141B34"/>
<path fill-rule="evenodd" clip-rule="evenodd" d="M1.5 12.5C1.5 11.9477 1.94772 11.5 2.5 11.5H21.5C22.0523 11.5 22.5 11.9477 22.5 12.5C22.5 13.0523 22.0523 13.5 21.5 13.5H2.5C1.94772 13.5 1.5 13.0523 1.5 12.5Z" fill="#141B34"/>
</svg>
