<svg width="24" height="25" viewBox="0 0 24 25" fill="none" xmlns="http://www.w3.org/2000/svg">
<path opacity="0.4" d="M9.29448 1.8304C9.92228 1.91481 10.4891 2.10048 10.9445 2.55595C11.4 3.01142 11.5857 3.57822 11.6701 4.20601C11.7501 4.80079 11.75 5.55 11.75 6.44846V6.4485L11.75 9.50049C11.75 10.4645 11.7516 11.1121 11.8165 11.5951C11.8786 12.0566 11.9858 12.2541 12.1161 12.3844C12.2464 12.5147 12.4439 12.6219 12.9054 12.684C13.3884 12.7489 14.036 12.7505 15 12.7505L18.052 12.7505H18.052C18.9505 12.7505 19.6997 12.7504 20.2945 12.8304C20.9223 12.9148 21.4891 13.1005 21.9445 13.5559C22.4 14.0114 22.5857 14.5782 22.6701 15.206C22.7501 15.8008 22.75 16.55 22.75 17.4485V18.5525C22.75 19.451 22.7501 20.2002 22.6701 20.795C22.5857 21.4228 22.4 21.9896 21.9445 22.445C21.4891 22.9005 20.9223 23.0862 20.2945 23.1706C19.6997 23.2505 18.9505 23.2505 18.052 23.2505H15.9415C12.6912 23.2505 10.1752 23.2505 8.21916 22.9875C6.2298 22.7201 4.70763 22.1683 3.51993 20.9806C2.33222 19.7929 1.78044 18.2707 1.51297 16.2813C1.24999 14.3253 1.24999 11.8093 1.25 8.559L1.25 6.44849V6.44846C1.24997 5.54999 1.24995 4.80079 1.32991 4.20601C1.41432 3.57822 1.59999 3.01142 2.05546 2.55595C2.51093 2.10048 3.07773 1.91481 3.70552 1.8304C4.3003 1.75044 5.0495 1.75046 5.94797 1.75049H5.948H7.052H7.05203C7.9505 1.75046 8.69971 1.75044 9.29448 1.8304Z" fill="#141B34"/>
</svg>
