<svg width="24" height="24" viewBox="0 0 24 24" fill="none" xmlns="http://www.w3.org/2000/svg">
<path opacity="0.4" fill-rule="evenodd" clip-rule="evenodd" d="M8.04711 1.75C7.18525 1.74995 6.44265 1.74991 5.84798 1.82921C5.21068 1.9142 4.59978 2.10584 4.10428 2.5973C3.60877 3.08876 3.41555 3.69467 3.32986 4.32678C3.24991 4.91659 3.24995 5.65313 3.25 6.50795L3.25 14.2857C3.25 14.3291 3.24179 14.3723 3.22197 14.4109L2.83421 15.1653C2.11021 16.5014 1.62267 17.5653 1.39719 18.4487C1.16515 19.3577 1.1925 20.1495 1.58675 20.8656C2.02749 21.6661 2.81497 21.9782 3.69825 22.1165C4.5519 22.2501 5.69026 22.25 7.08676 22.25H16.913C18.3095 22.25 19.4479 22.2501 20.3015 22.1165C21.1848 21.9782 21.9723 21.6661 22.413 20.8656C22.8073 20.1495 22.8346 19.3576 22.6025 18.4486C22.3766 17.5637 21.8877 16.4975 21.1615 15.158L20.7937 14.4796C20.7875 14.4681 20.7844 14.4623 20.7826 14.4588C20.758 14.4104 20.7515 14.385 20.7501 14.3307C20.75 14.3268 20.75 14.3131 20.75 14.2857L20.75 6.50798C20.75 5.65314 20.7501 4.9166 20.6701 4.32678C20.5845 3.69467 20.3912 3.08876 19.8957 2.5973C19.4002 2.10584 18.7893 1.9142 18.152 1.82921C17.5573 1.74991 16.8147 1.74995 15.9529 1.75H8.04711ZM18.2056 13.75C18.4884 13.75 18.6298 13.75 18.7177 13.6621C18.8056 13.5743 18.8056 13.4328 18.8056 13.15V6.57143C18.8056 5.63503 18.8035 5.02974 18.743 4.58375C18.6863 4.16551 18.5948 4.03441 18.5208 3.96101C18.4468 3.8876 18.3146 3.79682 17.8929 3.74058C17.4433 3.68062 16.833 3.67858 15.8889 3.67858H8.11111C7.16701 3.67858 6.55674 3.68062 6.10708 3.74058C5.68539 3.79682 5.55322 3.8876 5.47921 3.96101C5.4052 4.03441 5.31366 4.16551 5.25697 4.58375C5.19651 5.02974 5.19445 5.63503 5.19445 6.57143V13.15C5.19445 13.4328 5.19445 13.5743 5.28232 13.6621C5.37018 13.75 5.51161 13.75 5.79445 13.75H18.2056Z" fill="#141B34"/>
<path d="M14.7425 6.56101C14.382 6.97934 14.4288 7.61077 14.8471 7.97135L15.7086 8.71388L14.8471 9.45642C14.4288 9.817 14.382 10.4484 14.7425 10.8668C15.1031 11.2851 15.7345 11.3319 16.1529 10.9713L17.0728 10.1785L17.1047 10.151C17.2692 10.0094 17.4609 9.84433 17.6038 9.68292C17.7692 9.49602 18 9.17276 18 8.71388C18 8.25501 17.7692 7.93175 17.6038 7.74485C17.4609 7.58343 17.2692 7.41839 17.1047 7.2768L17.0728 7.24931L16.1529 6.45642C15.7345 6.09585 15.1031 6.14267 14.7425 6.56101Z" fill="#141B34"/>
<path d="M9.25746 6.56101C9.61804 6.97934 9.57121 7.61077 9.15288 7.97135L8.2914 8.71388L9.15288 9.45642C9.57121 9.817 9.61804 10.4484 9.25746 10.8668C8.89689 11.2851 8.26546 11.3319 7.84712 10.9713L6.92722 10.1785L6.8953 10.151C6.73083 10.0094 6.53912 9.84433 6.39624 9.68292C6.2308 9.49602 6 9.17276 6 8.71388C6 8.25501 6.2308 7.93175 6.39624 7.74485C6.53913 7.58343 6.73083 7.41839 6.8953 7.2768L6.92722 7.24931L7.84712 6.45642C8.26546 6.09585 8.89689 6.14267 9.25746 6.56101Z" fill="#141B34"/>
<path fill-rule="evenodd" clip-rule="evenodd" d="M13.3717 5.28566C13.8844 5.49077 14.1339 6.07274 13.9287 6.58552L11.9287 11.5855C11.7236 12.0983 11.1417 12.3477 10.6289 12.1426C10.1161 11.9375 9.86668 11.3555 10.0718 10.8427L12.0718 5.84274C12.2769 5.32996 12.8589 5.08054 13.3717 5.28566Z" fill="#141B34"/>
</svg>
