<svg width="24" height="25" viewBox="0 0 24 25" fill="none" xmlns="http://www.w3.org/2000/svg">
<path opacity="0.4" d="M5.68253 2.38883L5.75723 2.4201L12.0779 5.06584C12.7856 5.36206 13.1439 5.4299 13.4281 5.41004C13.7139 5.39008 14.0609 5.27211 14.7255 4.88265L18.3592 2.75322C19.0568 2.34435 19.6794 1.97938 20.1953 1.77507C20.7309 1.56295 21.4748 1.39351 22.1622 1.87316C22.8213 2.333 22.9594 3.06958 22.9912 3.6472C23.0227 4.22129 22.9609 4.96677 22.8901 5.82224L22.3299 12.5931C22.2251 13.8601 22.0508 14.9619 21.3977 15.8058C20.7274 16.6718 19.6993 17.0874 18.4229 17.424L18.4105 17.4272L10.2424 19.4699C9.70661 19.6039 9.16365 19.2782 9.02966 18.7424C8.89566 18.2066 9.22138 17.6636 9.75716 17.5297L17.9189 15.4885C19.1324 15.1679 19.5803 14.8862 19.816 14.5817C20.0692 14.2546 20.2305 13.7121 20.3367 12.4282L20.8909 5.72964C20.9695 4.78052 21.0172 4.17569 20.9942 3.75683C20.9911 3.70124 20.987 3.65438 20.9825 3.61513C20.9667 3.62094 20.9498 3.62739 20.9317 3.63457C20.5771 3.77502 20.0895 4.05738 19.3027 4.51847L15.7367 6.60819C15.0062 7.03623 14.3296 7.35196 13.5675 7.40518C12.8039 7.45852 12.09 7.23904 11.3057 6.91073L4.98499 4.265C4.07034 3.88215 3.49483 3.6444 3.08678 3.54296C3.056 3.53531 3.02823 3.52896 3.00326 3.52369C3.00687 3.57377 3.01349 3.63563 3.02478 3.71128C3.09314 4.16942 3.27925 4.81385 3.57051 5.8095L6.45981 15.7199C6.61439 16.2501 6.30988 16.8052 5.77967 16.9598C5.24946 17.1144 4.69432 16.8099 4.53975 16.2797L1.65096 6.37104L1.63014 6.29988C1.36558 5.39569 1.13782 4.61731 1.04668 4.00643C0.956377 3.40121 0.940071 2.60392 1.54004 2.0067C2.16979 1.37983 2.98113 1.45584 3.56924 1.60203C4.14541 1.74525 4.86546 2.04673 5.68253 2.38883Z" fill="#141B34"/>
<path fill-rule="evenodd" clip-rule="evenodd" d="M7.49351 16.4998C6.45155 16.4998 6 17.1421 6 17.4998C6 17.8575 6.45155 18.4998 7.49351 18.4998C8.53548 18.4998 8.98703 17.8575 8.98703 17.4998C8.98703 17.1421 8.53548 16.4998 7.49351 16.4998ZM4 17.4998C4 15.6483 5.78122 14.4998 7.49351 14.4998C9.1929 14.4998 10.9602 15.6311 10.9867 17.458C11.0567 18.4384 10.951 21.6458 7.4493 23.3944C6.9552 23.6411 6.35463 23.4406 6.10789 22.9465C5.86115 22.4524 6.06168 21.8518 6.55578 21.6051C7.21535 21.2757 7.6998 20.8775 8.05467 20.4593C7.8684 20.4861 7.68055 20.4998 7.49351 20.4998C5.78122 20.4998 4 19.3512 4 17.4998Z" fill="#141B34"/>
</svg>
