<svg width="24" height="24" viewBox="0 0 24 24" fill="none" xmlns="http://www.w3.org/2000/svg">
<path opacity="0.4" fill-rule="evenodd" clip-rule="evenodd" d="M1.5 11.9255V12.0745C1.49998 14.2504 1.49996 15.9852 1.68282 17.3453C1.87164 18.7497 2.27175 19.9035 3.18414 20.8159C4.09653 21.7283 5.25033 22.1284 6.65471 22.3172C8.01485 22.5 9.74957 22.5 11.9255 22.5H12.0745C12.7691 22.5 13.4188 22.5 14.0256 22.4941C14.4823 22.4896 14.7106 22.4874 14.8553 22.3412C15 22.1951 15 21.9644 15 21.503L15 11C15 10.5286 15 10.2929 14.8536 10.1464C14.7071 10 14.4714 10 14 10H2.49623C2.02855 10 1.79471 10 1.64832 10.1461C1.50193 10.2922 1.50148 10.525 1.50058 10.9905C1.49999 11.2927 1.5 11.6043 1.5 11.9255ZM22.4994 10.9905C22.4985 10.525 22.4981 10.2922 22.3517 10.1461C22.2053 10 21.9715 10 21.5038 10L18 10C17.5286 10 17.2929 10 17.1464 10.1464C17 10.2929 17 10.5286 17 11L17 22.0111C17 22.1968 17.1612 22.3419 17.3453 22.3172C18.7497 22.1284 19.9035 21.7283 20.8159 20.8159C21.7283 19.9035 22.1284 18.7497 22.3172 17.3453C22.5 15.9851 22.5 14.2504 22.5 12.0744V11.9256C22.5 11.6043 22.5 11.2927 22.4994 10.9905Z" fill="#141B34"/>
<path fill-rule="evenodd" clip-rule="evenodd" d="M1.64615 6.94642C1.59242 7.42656 1.56556 7.66663 1.71463 7.83332C1.8637 8 2.11512 8 2.61797 8L21.3804 8C21.8832 8 22.1346 8 22.2837 7.83332C22.4328 7.66664 22.4059 7.42656 22.3522 6.94642C22.3411 6.84733 22.3292 6.7501 22.3163 6.65471C22.1275 5.25033 21.7274 4.09653 20.815 3.18414C19.9026 2.27175 18.7488 1.87164 17.3444 1.68282C15.9843 1.49996 14.2496 1.49998 12.0736 1.5L11.9247 1.5C9.74875 1.49998 8.01401 1.49996 6.65387 1.68282C5.24949 1.87164 4.09569 2.27175 3.1833 3.18414C2.27091 4.09653 1.8708 5.25033 1.68198 6.65471C1.66916 6.7501 1.65724 6.84733 1.64615 6.94642Z" fill="#141B34"/>
</svg>
