<svg width="24" height="24" viewBox="0 0 24 24" fill="none" xmlns="http://www.w3.org/2000/svg">
<path d="M22.7283 18.081C22.632 18.3054 22.5007 18.4964 22.3178 18.6615C22.1815 18.7845 22.0047 18.8938 21.9121 18.9511C21.2992 19.332 20.5947 19.5717 19.8744 19.685L19.8744 21.875C19.8744 22.4273 19.4267 22.875 18.8744 22.875C18.3221 22.875 17.8744 22.4273 17.8744 21.875L17.8744 19.6851C17.1541 19.5717 16.4496 19.332 15.8367 18.9511C15.7442 18.8939 15.5674 18.7845 15.4311 18.6614C15.248 18.4963 15.1168 18.3052 15.0206 18.0808C14.7031 17.3401 14.9655 16.6179 15.2006 16.1856C15.4524 15.7228 15.8129 15.3234 16.1221 15.0679C16.3973 14.8406 16.574 14.6939 16.694 14.5832L16.3663 13.5849C16.2703 13.2647 16.1007 12.6994 16.3833 12.1079C16.5053 11.8525 16.6721 11.6439 16.9012 11.4768C17.0698 11.3539 17.2883 11.2533 17.4059 11.1993C18.3403 10.7669 19.4085 10.7669 20.343 11.1993C20.4605 11.2533 20.6791 11.3539 20.8477 11.4768C21.0767 11.6439 21.2436 11.8525 21.3656 12.1079C21.6482 12.6994 21.4786 13.2647 21.3825 13.5849L21.0515 14.5936C21.1684 14.6995 21.3399 14.8396 21.607 15.0568C21.9201 15.3114 22.2861 15.7107 22.542 16.175C22.7815 16.6093 23.0484 17.3349 22.7283 18.081Z" fill="#141B34"/>
<path opacity="0.4" d="M16.1458 1.27742C14.9452 1.12498 13.4088 1.12499 11.4579 1.125H10.2914C8.34048 1.12499 6.80404 1.12498 5.60348 1.27742C4.37451 1.43347 3.38428 1.76075 2.60016 2.50131C1.80998 3.24759 1.45524 4.19968 1.28718 5.38021C1.1246 6.52229 1.12462 7.9804 1.12463 9.81567V13.9343C1.12462 15.7696 1.1246 17.2277 1.28718 18.3698C1.45524 19.5503 1.80998 20.5024 2.60016 21.2487C3.38428 21.9892 4.3745 22.3165 5.60348 22.4726C6.80405 22.625 8.3405 22.625 10.2914 22.625H11.458C13.1411 22.625 14.6858 22.6016 15.8491 22.4973C16.0945 22.4753 16.2172 22.4643 16.2958 22.3783C16.3744 22.2924 16.3744 22.1657 16.3744 21.9125V21.2811C16.3744 21.0781 16.3744 20.9766 16.323 20.9006C16.2716 20.8245 16.1722 20.7844 15.9734 20.7044C15.5182 20.5211 14.9307 20.2306 14.426 19.775C14.069 19.4528 13.8162 19.0784 13.6419 18.6718C13.0508 17.2932 13.5724 16.0398 13.8829 15.469C14.1032 15.0639 14.3762 14.7008 14.6561 14.3973C14.7968 14.2448 14.8672 14.1685 14.8853 14.092C14.9034 14.0154 14.8728 13.9095 14.8118 13.6978C14.6463 13.1231 14.6023 12.356 15.0297 11.4613C15.2508 10.9985 15.5725 10.5893 16.0172 10.2649C16.311 10.0507 16.6601 9.89092 16.7759 9.83795C17.7292 9.39686 18.7819 9.27097 19.792 9.46027C20.203 9.5373 20.4085 9.57581 20.517 9.48546C20.6255 9.39512 20.6248 9.20565 20.6236 8.82672C20.619 7.44693 20.5943 6.30905 20.4621 5.38021C20.294 4.19968 19.9393 3.24759 19.1491 2.50131C18.365 1.76075 17.3748 1.43347 16.1458 1.27742Z" fill="#141B34"/>
<path fill-rule="evenodd" clip-rule="evenodd" d="M5.87463 6.875C5.87463 6.32272 6.32235 5.875 6.87463 5.875H14.8746C15.4269 5.875 15.8746 6.32272 15.8746 6.875C15.8746 7.42728 15.4269 7.875 14.8746 7.875H6.87463C6.32235 7.875 5.87463 7.42728 5.87463 6.875ZM5.87463 11.875C5.87463 11.3227 6.32235 10.875 6.87463 10.875H11.8746C12.4269 10.875 12.8746 11.3227 12.8746 11.875C12.8746 12.4273 12.4269 12.875 11.8746 12.875H6.87463C6.32235 12.875 5.87463 12.4273 5.87463 11.875ZM5.87463 16.875C5.87463 16.3227 6.32235 15.875 6.87463 15.875H9.87463C10.4269 15.875 10.8746 16.3227 10.8746 16.875C10.8746 17.4273 10.4269 17.875 9.87463 17.875H6.87463C6.32235 17.875 5.87463 17.4273 5.87463 16.875Z" fill="#141B34"/>
</svg>
