<svg width="24" height="24" viewBox="0 0 24 24" fill="none" xmlns="http://www.w3.org/2000/svg">
<path d="M15.7819 6.72595C15.6861 6.904 15.5782 7.07988 15.4655 7.25H16C16.4142 7.25 16.75 7.58579 16.75 8C16.75 8.41421 16.4142 8.75 16 8.75H13.9883H13.9716H10.0284H10.0117H8C7.58579 8.75 7.25 8.41421 7.25 8C7.25 7.58579 7.58579 7.25 8 7.25H8.53452C8.42182 7.07988 8.31386 6.904 8.21806 6.72595C7.85172 6.04507 7.56216 5.15942 7.89786 4.22317C8.02768 3.86109 8.30286 3.5081 8.57698 3.21562C8.86719 2.90597 9.22336 2.59419 9.59599 2.31621C9.96821 2.03853 10.3735 1.78217 10.7662 1.59176C11.1392 1.41094 11.5802 1.25 12 1.25C12.4198 1.25 12.8608 1.41094 13.2338 1.59176C13.6265 1.78217 14.0318 2.03853 14.404 2.31621C14.7766 2.59419 15.1328 2.90597 15.423 3.21562C15.6971 3.5081 15.9723 3.86109 16.1021 4.22318C16.4378 5.15942 16.1483 6.04507 15.7819 6.72595Z" fill="#141B34"/>
<path fill-rule="evenodd" clip-rule="evenodd" d="M4.25 22C4.25 21.5858 4.58579 21.25 5 21.25H19C19.4142 21.25 19.75 21.5858 19.75 22C19.75 22.4142 19.4142 22.75 19 22.75H5C4.58579 22.75 4.25 22.4142 4.25 22Z" fill="#141B34"/>
<path fill-rule="evenodd" clip-rule="evenodd" d="M21.7278 6.81815C21.8282 7.22 21.5839 7.6272 21.1821 7.72766L19.1821 8.22766C18.7802 8.32812 18.373 8.0838 18.2726 7.68196C18.1721 7.28011 18.4164 6.87291 18.8183 6.77245L20.8183 6.27245C21.2201 6.17199 21.6273 6.41631 21.7278 6.81815ZM18.2726 10.3182C18.373 9.91631 18.7802 9.67199 19.1821 9.77245L21.1821 10.2724C21.5839 10.3729 21.8282 10.7801 21.7278 11.182C21.6273 11.5838 21.2201 11.8281 20.8183 11.7277L18.8183 11.2277C18.4164 11.1272 18.1721 10.72 18.2726 10.3182Z" fill="#141B34"/>
<path fill-rule="evenodd" clip-rule="evenodd" d="M2.27257 6.81815C2.37303 6.41631 2.78023 6.17199 3.18208 6.27245L5.18208 6.77245C5.58393 6.87291 5.82825 7.28011 5.72778 7.68196C5.62732 8.0838 5.22012 8.32812 4.81828 8.22766L2.81828 7.72766C2.41643 7.6272 2.17211 7.22 2.27257 6.81815ZM5.72778 10.3182C5.82825 10.72 5.58393 11.1272 5.18208 11.2277L3.18208 11.7277C2.78023 11.8281 2.37303 11.5838 2.27257 11.182C2.17211 10.7801 2.41643 10.3729 2.81828 10.2724L4.81828 9.77245C5.22012 9.67199 5.62732 9.91631 5.72778 10.3182Z" fill="#141B34"/>
<g opacity="0.4">
<path d="M8.63217 10C8.48683 10 8.36239 10.1042 8.33685 10.2473L7.95424 12.3898C7.93235 12.5124 8.0266 12.625 8.15113 12.625H15.8489C15.9734 12.625 16.0677 12.5124 16.0458 12.3898L15.6632 10.2473C15.6376 10.1042 15.5132 10 15.3678 10H8.63217Z" fill="#141B34"/>
<path d="M16.3851 14.2898C16.368 14.1945 16.2851 14.125 16.1882 14.125H7.81184C7.71495 14.125 7.63199 14.1945 7.61496 14.2898L7.23996 16.3898C7.21807 16.5124 7.31232 16.625 7.43684 16.625H16.5632C16.6877 16.625 16.7819 16.5124 16.7601 16.3898L16.3851 14.2898Z" fill="#141B34"/>
<path d="M17.0993 18.2898C17.0823 18.1945 16.9994 18.125 16.9025 18.125H7.09755C7.00066 18.125 6.9177 18.1945 6.90067 18.2898L6.26169 21.8682C6.22266 22.0867 6.28245 22.3113 6.42495 22.4815C6.56745 22.6517 6.77803 22.75 7.00001 22.75H17C17.222 22.75 17.4326 22.6517 17.5751 22.4815C17.7176 22.3113 17.7773 22.0867 17.7383 21.8682L17.0993 18.2898Z" fill="#141B34"/>
</g>
</svg>
