<svg width="24" height="24" viewBox="0 0 24 24" fill="none" xmlns="http://www.w3.org/2000/svg">
<path opacity="0.4" d="M22.75 12C22.75 6.06294 17.9371 1.25 12 1.25C6.06294 1.25 1.25 6.06294 1.25 12C1.25 17.9371 6.06294 22.75 12 22.75C17.9371 22.75 22.75 17.9371 22.75 12Z" fill="#141B34"/>
<path fill-rule="evenodd" clip-rule="evenodd" d="M9.25 9C9.25 8.30964 8.69236 7.75 8.00447 7.75H7.99553C7.30764 7.75 6.75 8.30964 6.75 9C6.75 9.69036 7.30764 10.25 7.99553 10.25H8.00447C8.69236 10.25 9.25 9.69036 9.25 9Z" fill="#141B34"/>
<path d="M1.36035 13.5443C1.44401 14.1259 1.57424 14.6925 1.74711 15.2401C2.94368 15.5765 4.15086 15.7501 4.99981 15.7501C6.73474 15.7501 8.3453 15.337 9.41577 14.6244C9.76058 14.3949 9.85403 13.9293 9.62451 13.5845C9.39498 13.2397 8.92939 13.1462 8.58459 13.3758C7.83064 13.8776 6.53653 14.2501 4.99981 14.2501C4.11604 14.2501 2.66236 14.0096 1.36035 13.5443Z" fill="#141B34"/>
</svg>
