<svg width="24" height="24" viewBox="0 0 24 24" fill="none" xmlns="http://www.w3.org/2000/svg">
<path d="M12.0002 1.75C11.2363 1.75 10.5465 1.97652 9.79912 2.35789C9.07623 2.72677 8.24391 3.27092 7.20185 3.95217L3.27825 6.5171C2.58112 6.97169 2.02547 7.33403 1.697 7.90757C1.6487 7.99191 1.62455 8.03409 1.6176 8.09576C1.6112 8.15258 1.62737 8.22994 1.65598 8.27945C1.68704 8.33318 1.73486 8.36869 1.83052 8.43972L2.44408 8.89534L6.70585 11.9824C7.17674 12.3235 7.60409 12.633 7.99885 12.9134C8.49236 13.264 8.88191 13.4628 9.27507 13.5809C9.6717 13.7 10.1152 13.7501 10.7367 13.7501H13.2643C13.8859 13.7501 14.3293 13.7 14.726 13.5809C15.1191 13.4628 15.5087 13.264 16.0022 12.9134C16.3969 12.633 16.8243 12.3235 17.2952 11.9824L21.5535 8.89785L22.178 8.42288C22.2633 8.35796 22.306 8.3255 22.3354 8.27763C22.3684 8.22372 22.3857 8.13845 22.3763 8.07591C22.3679 8.02037 22.3464 7.98277 22.3033 7.90757C21.9748 7.33403 21.4192 6.97169 20.7221 6.5171L16.7985 3.95218C15.7564 3.27092 14.9241 2.72678 14.2012 2.35789C13.4538 1.97652 12.764 1.75 12.0002 1.75Z" fill="#141B34"/>
<path opacity="0.4" d="M16.8707 14.1363C17.2716 13.8515 17.7042 13.5381 18.173 13.1986L21.756 10.6033C22.1672 10.3054 22.3728 10.1564 22.5358 10.2384C22.6989 10.3204 22.7019 10.5743 22.7079 11.0821L22.75 14.6265C22.7181 16.0928 22.6923 17.2783 22.5242 18.2336C22.3474 19.2383 22.0036 20.0563 21.2974 20.7564C20.5889 21.4587 19.7511 21.7983 18.7213 21.9753C17.7368 22.1444 16.5082 22.1748 14.9803 22.2124L14.9225 22.2139C12.9684 22.2621 11.0316 22.2621 9.07746 22.2139L9.01972 22.2124C7.49178 22.1748 6.26317 22.1444 5.2787 21.9753C4.24887 21.7983 3.41116 21.4587 2.70265 20.7564C1.99644 20.0563 1.65261 19.2383 1.47581 18.2336C1.3077 17.2783 1.2819 16.0928 1.25 14.6265L1.2921 11.082C1.29813 10.5742 1.30114 10.3204 1.46415 10.2384C1.62715 10.1564 1.83276 10.3053 2.24399 10.6031L5.82769 13.1986C6.29643 13.5381 6.72907 13.8515 7.13001 14.1363C7.7126 14.5502 8.24936 14.839 8.84338 15.0175C9.43394 15.1949 10.0385 15.2502 10.7366 15.2502H13.2641C13.9622 15.2502 14.5668 15.1949 15.1573 15.0175C15.7513 14.839 16.2881 14.5502 16.8707 14.1363Z" fill="#141B34"/>
</svg>
