<svg width="24" height="24" viewBox="0 0 24 24" fill="none" xmlns="http://www.w3.org/2000/svg">
<path opacity="0.4" d="M15.5798 10.287L19.8155 7.88697C20.1765 7.68242 20.3571 7.58014 20.5039 7.66109C20.6507 7.74203 20.6604 7.9448 20.6798 8.3503C20.7058 8.89687 20.72 9.53051 20.736 10.2797C20.7435 10.6321 20.7483 10.8275 20.7503 10.98C20.7579 11.5399 21.1964 12 21.7563 12C22.2996 12 22.7544 11.5659 22.7496 11.0226C22.7481 10.8559 22.7429 10.6538 22.734 10.2371L22.7324 10.1618C22.7012 8.69628 22.6753 7.48537 22.5047 6.50416C22.3229 5.4586 21.9641 4.58311 21.2146 3.83174C20.7913 3.40728 20.3249 3.1077 19.809 2.89389C19.7305 2.85104 19.6464 2.81873 19.5587 2.79811C19.2289 2.68184 18.8796 2.59616 18.5093 2.53176C17.5084 2.35765 16.2665 2.32652 14.7571 2.28868L14.6823 2.28681C12.7265 2.23773 11.2735 2.23774 9.3177 2.28681L9.24285 2.28869C7.73349 2.32652 6.49161 2.35765 5.49064 2.53175C4.42828 2.71654 3.53876 3.07641 2.78536 3.83174C2.0359 4.58311 1.67705 5.4586 1.49526 6.50416C1.32465 7.48538 1.29883 8.69623 1.26758 10.1617L1.26597 10.2371C1.24467 11.2351 1.24468 11.765 1.26599 12.7629L1.2676 12.8383C1.29884 14.3038 1.32466 15.5146 1.49527 16.4959C1.67707 17.5414 2.03592 18.4169 2.78537 19.1683C3.53878 19.9236 4.42829 20.2835 5.49066 20.4683C6.49162 20.6424 7.7335 20.6735 9.24286 20.7113L9.31772 20.7132C9.99929 20.7303 10.1057 20.7414 11.0021 20.7466C11.5532 20.7498 11.9998 20.3032 11.9998 19.752C11.9998 19.2008 11.5532 18.7538 11.002 18.7506C10.1199 18.7454 10.034 18.7345 9.36791 18.7178C7.76497 18.6776 6.67174 18.6476 5.83355 18.5018C5.04027 18.3638 4.5781 18.1374 4.20122 17.7595C3.82038 17.3777 3.59776 16.9218 3.46432 16.1543C3.32261 15.3393 3.29736 14.2803 3.26405 12.7203C3.24334 11.7508 3.24333 11.2492 3.26403 10.2797C3.28003 9.53061 3.29416 8.89704 3.32023 8.35053C3.33957 7.94501 3.34924 7.74225 3.49608 7.6613C3.64292 7.58035 3.82343 7.68263 4.18445 7.88719L8.41985 10.287C9.71946 11.0234 10.8186 11.5 11.9998 11.5C13.181 11.5 14.2801 11.0234 15.5798 10.287Z" fill="#141B34"/>
<path d="M18.0006 13.7891C18.7734 13.2395 20.0205 12.9378 21.3698 13.7425C22.3761 14.3426 22.8978 15.5668 22.7138 16.9006C22.5284 18.2445 21.646 19.6869 19.9029 20.9412C19.3489 21.3409 18.7819 21.75 18.0006 21.75C17.2193 21.75 16.6523 21.3409 16.0984 20.9412C14.3552 19.6869 13.4729 18.2445 13.2875 16.9006C13.1035 15.5668 13.6251 14.3426 14.6314 13.7425C15.9808 12.9378 17.2278 13.2395 18.0006 13.7891Z" fill="#141B34"/>
</svg>
