<svg width="24" height="24" viewBox="0 0 24 24" fill="none" xmlns="http://www.w3.org/2000/svg">
<path opacity="0.4" d="M15.4751 2.52742C15.2091 2.36284 14.9329 2.30142 14.6669 2.27447C14.4249 2.24995 14.1365 2.24997 13.8233 2.25L12 2.25C11.754 2.25 11.5236 2.37065 11.3835 2.57286C11.2434 2.77507 11.2114 3.03313 11.2978 3.26346L14.3197 11.318C14.4595 11.6907 14.8661 11.8892 15.2459 11.7704L16.4642 11.3892C16.9399 11.2404 17.3657 11.1073 17.692 10.9558C18.0427 10.7929 18.4015 10.5554 18.6058 10.1284C18.814 9.69338 18.7652 9.26526 18.6568 8.89381C18.5586 8.55716 18.3791 8.16415 18.1833 7.7355L16.4182 3.87007C16.296 3.60247 16.1802 3.3487 16.0578 3.14455C15.9202 2.91493 15.7442 2.69396 15.4751 2.52742Z" fill="#141B34"/>
<path fill-rule="evenodd" clip-rule="evenodd" d="M9.62783 2.91825C9.55293 2.70343 9.38458 2.53423 9.17015 2.45824C8.95572 2.38225 8.71839 2.4077 8.52495 2.52742C8.25585 2.69396 8.0798 2.91493 7.94217 3.14455C7.8198 3.34871 7.70396 3.60248 7.5818 3.87009L5.81675 7.73548C5.62095 8.16414 5.44143 8.55716 5.34321 8.89381C5.23485 9.26526 5.18603 9.69338 5.39415 10.1284C5.59846 10.5554 5.95727 10.7929 6.30795 10.9558C6.63429 11.1073 7.06007 11.2404 7.53582 11.3892L11.7761 12.7158C12.0466 12.8004 12.3417 12.7253 12.5388 12.5217C12.736 12.3181 12.8015 12.0207 12.7082 11.7531L9.62783 2.91825ZM7.20172 8.31368L8.74333 4.9376L10.8009 10.839L8.02819 9.97157C7.49386 9.8044 7.16503 9.6999 6.93962 9.59524C6.81639 9.53803 6.76712 9.49957 6.74999 9.48277C6.74994 9.46054 6.7551 9.41017 6.78319 9.3139C6.84711 9.09479 6.97856 8.8024 7.20172 8.31368ZM6.74209 9.47315C6.74209 9.47315 6.74411 9.47499 6.74616 9.47881C6.74278 9.47509 6.74209 9.47315 6.74209 9.47315ZM6.75011 9.48796C6.75194 9.49342 6.75173 9.49727 6.75173 9.49727C6.75173 9.49727 6.75044 9.49492 6.75011 9.48796Z" fill="#141B34"/>
<path d="M11.998 11.5C12.7012 11.5 13.1826 12.7774 13.4491 13.3172L14.2379 14.9077L14.2414 14.9119C14.2507 14.9223 14.2657 14.9366 14.2854 14.9513C14.3051 14.9659 14.3234 14.9764 14.3367 14.9826L14.3429 14.9853L15.7674 15.224C16.3586 15.3233 16.9778 15.6358 17.1862 16.2893C17.3942 16.9417 17.0716 17.5552 16.6473 17.9806L16.6463 17.9816L15.5391 19.0979C15.5391 19.0979 15.5366 19.102 15.5348 19.1053C15.5274 19.119 15.5186 19.1396 15.5114 19.1649C15.5042 19.1902 15.5007 19.213 15.4997 19.2299C15.4994 19.2355 15.4994 19.2395 15.4994 19.2419L15.8163 20.6235C15.9564 21.2362 15.9593 22.0446 15.3387 22.5008C14.715 22.9592 13.9439 22.7083 13.405 22.3873L12.0686 21.5897L12.062 21.5879C12.0476 21.5845 12.026 21.5815 12.0002 21.5815C11.9745 21.5815 11.9522 21.5845 11.9364 21.5882C11.9334 21.589 11.9309 21.5896 11.929 21.5902L11.9263 21.591L10.5924 22.3872C10.052 22.7104 9.28271 22.9571 8.65979 22.4989C8.04052 22.0433 8.0399 21.2373 8.18089 20.6229L8.49765 19.2419C8.4977 19.2395 8.4977 19.2355 8.49737 19.2299C8.49636 19.213 8.49285 19.1902 8.48568 19.1649C8.47849 19.1396 8.46967 19.119 8.46225 19.1053C8.46048 19.102 8.45798 19.0979 8.45798 19.0979L7.34899 17.9798C6.92724 17.5545 6.60591 16.9419 6.81216 16.2906C7.01932 15.6365 7.63807 15.3234 8.23003 15.2239L9.65041 14.986L9.65516 14.9838C9.66822 14.9777 9.68653 14.9672 9.70636 14.9523C9.72619 14.9375 9.74138 14.923 9.75086 14.9123L9.75465 14.9078L10.5444 13.3153C10.8131 12.7763 11.2957 11.5 11.998 11.5Z" fill="#141B34"/>
</svg>
