<svg width="24" height="24" viewBox="0 0 24 24" fill="none" xmlns="http://www.w3.org/2000/svg">
<path d="M17.9996 1.79105C18.7725 1.24143 20.0195 0.939771 21.3688 1.74445C22.3751 2.34459 22.8968 3.56877 22.7128 4.90258C22.5274 6.24646 21.645 7.68881 19.9019 8.94317C19.348 9.34288 18.7809 9.75199 17.9996 9.75199C17.2183 9.75199 16.6513 9.34288 16.0974 8.94317C14.3543 7.68881 13.4719 6.24646 13.2865 4.90258C13.1025 3.56877 13.6241 2.34459 14.6305 1.74445C15.9798 0.939771 17.2268 1.24143 17.9996 1.79105Z" fill="#141B34"/>
<path opacity="0.4" d="M9.77965 2.3209C10.2731 2.2881 10.774 2.26639 11.2775 2.25578C11.6843 2.2472 11.8877 2.24292 11.9802 2.35926C12.0728 2.4756 12.0165 2.69742 11.9041 3.14106C11.7441 3.77229 11.7092 4.44338 11.8008 5.10761C12.0564 6.96067 13.2391 8.73383 15.2199 10.1596C15.7402 10.5371 16.7256 11.252 17.9999 11.252C19.2741 11.252 20.1905 10.5871 20.7109 10.2096L20.7789 10.1603C21.0605 9.9576 21.326 9.74788 21.5751 9.5319C21.9406 9.21482 22.1234 9.05628 22.2877 9.11381C22.4519 9.17135 22.4919 9.3881 22.5719 9.8216C22.6383 10.181 22.6841 10.5477 22.7082 10.9205C22.7639 11.7829 22.7639 12.675 22.7082 13.5374C22.4103 18.1472 18.787 21.8335 14.2204 22.1371C12.7601 22.2341 11.2369 22.2339 9.77965 22.1371C9.21472 22.0995 8.59978 21.9659 8.05839 21.7429C7.97233 21.7075 7.89626 21.6762 7.82861 21.6486C7.69203 21.593 7.62373 21.5651 7.54604 21.5748C7.46835 21.5844 7.40859 21.6284 7.28907 21.7163L7.1938 21.7864C6.40136 22.3708 5.40092 22.7807 3.98117 22.7461L3.93544 22.745C3.66155 22.7385 3.36961 22.7315 3.13152 22.6855C2.84475 22.63 2.48996 22.4913 2.26791 22.1127C2.02623 21.7007 2.12313 21.284 2.21688 21.0216C2.30536 20.7739 2.45874 20.4834 2.61542 20.1867L2.6369 20.146C3.10323 19.2623 3.23314 18.5401 2.98381 18.0586C2.15148 16.8022 1.40272 15.2538 1.2918 13.5374C1.23607 12.675 1.23607 11.7829 1.2918 10.9205C1.58972 6.31075 5.213 2.62446 9.77965 2.3209Z" fill="#141B34"/>
<path fill-rule="evenodd" clip-rule="evenodd" d="M7 12.502C7 11.9497 7.44772 11.502 8 11.502H8.00897C8.56126 11.502 9.00897 11.9497 9.00897 12.502C9.00897 13.0542 8.56126 13.502 8.00897 13.502H8C7.44772 13.502 7 13.0542 7 12.502ZM10.9955 12.502C10.9955 11.9497 11.4432 11.502 11.9955 11.502H12.0045C12.5568 11.502 13.0045 11.9497 13.0045 12.502C13.0045 13.0542 12.5568 13.502 12.0045 13.502H11.9955C11.4432 13.502 10.9955 13.0542 10.9955 12.502ZM14.991 12.502C14.991 11.9497 15.4387 11.502 15.991 11.502H16C16.5523 11.502 17 11.9497 17 12.502C17 13.0542 16.5523 13.502 16 13.502H15.991C15.4387 13.502 14.991 13.0542 14.991 12.502Z" fill="#141B34"/>
</svg>
