<svg width="24" height="24" viewBox="0 0 24 24" fill="none" xmlns="http://www.w3.org/2000/svg">
<path fill-rule="evenodd" clip-rule="evenodd" d="M21 4.74918V3.6875C21 2.31583 19.8548 1.25 18.5 1.25C17.1452 1.25 16 2.31583 16 3.6875V4.74918C15.9249 4.77196 15.8502 4.79929 15.7761 4.8322C15.1559 5.10744 14.6789 5.62765 14.4337 6.26203C14.3278 6.53595 14.2871 6.81726 14.2682 7.11392C14.25 7.39939 14.25 7.74715 14.25 8.16389V8.2111C14.25 8.62784 14.25 8.97561 14.2682 9.26108C14.2871 9.55774 14.3278 9.83905 14.4337 10.113C14.6789 10.7474 15.1559 11.2676 15.7761 11.5428C16.0484 11.6637 16.3272 11.7093 16.6128 11.7302C16.8844 11.75 17.2134 11.75 17.5989 11.75H19.4011C19.7866 11.75 20.1156 11.75 20.3872 11.7302C20.6728 11.7093 20.9516 11.6637 21.2239 11.5428C21.8441 11.2676 22.3211 10.7474 22.5663 10.113C22.6722 9.83905 22.7129 9.55774 22.7318 9.26108C22.75 8.97561 22.75 8.62785 22.75 8.2111V8.16392C22.75 7.74717 22.75 7.39939 22.7318 7.11392C22.7129 6.81726 22.6722 6.53595 22.5663 6.26203C22.3211 5.62765 21.8441 5.10744 21.2239 4.8322C21.1498 4.79929 21.0751 4.77196 21 4.74918ZM17.5 3.6875C17.5 3.19521 17.9218 2.75 18.5 2.75C19.0782 2.75 19.5 3.19521 19.5 3.6875V4.62501H17.5V3.6875Z" fill="#141B34"/>
<path opacity="0.4" d="M13.933 2.32568C14.2983 2.34312 14.481 2.35184 14.5654 2.45273C14.6498 2.55363 14.6239 2.75219 14.572 3.14929C14.5527 3.29732 14.5371 3.43976 14.5255 3.55635C14.5117 3.69375 14.5049 3.76245 14.4764 3.81521C14.448 3.86798 14.3899 3.91526 14.2735 4.00981C13.7161 4.46292 13.2913 5.05722 13.0346 5.72124C12.8502 6.19816 12.7946 6.6512 12.7712 7.01869C12.75 7.35238 12.75 7.7409 12.75 8.12919V8.24591C12.75 8.6342 12.75 9.02282 12.7712 9.35651C12.7946 9.724 12.8502 10.177 13.0346 10.654C13.415 11.6379 14.1643 12.4687 15.1676 12.9139C15.6627 13.1337 16.1344 13.1993 16.5034 13.2263C16.8305 13.2502 17.2066 13.2501 17.5625 13.2501H19.4375C19.7934 13.2501 20.1695 13.2502 20.4966 13.2263C20.8656 13.1993 21.3373 13.1337 21.8324 12.9139C22.2244 12.74 22.4204 12.653 22.5261 12.6841C22.5947 12.7043 22.6381 12.7343 22.6812 12.7915C22.7474 12.8796 22.7366 13.0623 22.7151 13.4277C22.7129 13.465 22.7106 13.5022 22.7082 13.5393C22.4103 18.1491 18.787 21.8354 14.2204 22.139C12.7601 22.236 11.2369 22.2358 9.77965 22.139C9.21472 22.1014 8.59978 21.9678 8.05839 21.7449C7.97233 21.7094 7.89626 21.6781 7.82861 21.6505C7.69203 21.5949 7.62373 21.567 7.54604 21.5767C7.46835 21.5863 7.40859 21.6303 7.28907 21.7182C7.25946 21.7399 7.22778 21.7633 7.1938 21.7884C6.40136 22.3727 5.40092 22.7826 3.98117 22.7481L3.93544 22.747C3.66155 22.7404 3.36961 22.7334 3.13152 22.6874C2.84475 22.6319 2.48996 22.4932 2.26791 22.1146C2.02623 21.7026 2.12313 21.2859 2.21688 21.0235C2.30536 20.7758 2.45874 20.4853 2.61542 20.1886L2.6369 20.1479C3.10323 19.2642 3.23314 18.542 2.98381 18.0605C2.15148 16.8041 1.40272 15.2557 1.2918 13.5393C1.23607 12.6769 1.23607 11.7849 1.2918 10.9225C1.58972 6.31267 5.213 2.62638 9.77965 2.32282C10.9877 2.24252 12.5888 2.26153 13.933 2.32568Z" fill="#141B34"/>
<path fill-rule="evenodd" clip-rule="evenodd" d="M7 12.5C7 11.9477 7.44772 11.5 8 11.5H8.00897C8.56126 11.5 9.00897 11.9477 9.00897 12.5C9.00897 13.0523 8.56126 13.5 8.00897 13.5H8C7.44772 13.5 7 13.0523 7 12.5ZM10.9955 12.5C10.9955 11.9477 11.4432 11.5 11.9955 11.5H12.0045C12.5568 11.5 13.0045 11.9477 13.0045 12.5C13.0045 13.0523 12.5568 13.5 12.0045 13.5H11.9955C11.4432 13.5 10.9955 13.0523 10.9955 12.5Z" fill="#141B34"/>
</svg>
