<svg width="24" height="24" viewBox="0 0 24 24" fill="none" xmlns="http://www.w3.org/2000/svg">
<path d="M16.028 1.76963C16.5535 1.51102 17.1975 1.25195 17.9993 1.25195C18.8011 1.25195 19.4453 1.51101 19.971 1.76959C20.1494 1.85736 20.3038 1.93828 20.4442 2.01184C20.7544 2.17444 20.996 2.30107 21.2769 2.38617C21.4566 2.44062 21.6443 2.49745 21.7752 2.54616C21.8874 2.58794 22.106 2.67244 22.2761 2.85195C22.426 3.01026 22.4969 3.18365 22.5373 3.3182C22.5707 3.42913 22.5988 3.57774 22.6186 3.68211C23.1761 6.6187 21.9481 9.45791 18.9354 10.5538C18.6623 10.6532 18.3912 10.7519 18.0007 10.752C17.6102 10.752 17.3391 10.6532 17.0659 10.5538C14.0533 9.45802 12.824 6.619 13.3814 3.68215C13.4012 3.5778 13.4293 3.42921 13.4626 3.31829C13.503 3.18374 13.5739 3.01037 13.7238 2.85207C13.8939 2.67255 14.1124 2.58802 14.2247 2.54624C14.3556 2.49751 14.5432 2.44065 14.723 2.38616C15.0037 2.30108 15.245 2.17452 15.555 2.01196C15.6953 1.93839 15.8496 1.85744 16.028 1.76963Z" fill="#141B34"/>
<path opacity="0.4" d="M12.026 2.88648C12.0853 2.68926 12.1149 2.59066 12.1145 2.54503C12.113 2.39573 12.0435 2.30337 11.9004 2.2606C11.8567 2.24754 11.7741 2.24848 11.609 2.25036C10.994 2.25736 10.3812 2.28087 9.77965 2.32086C5.213 2.62442 1.58972 6.31071 1.2918 10.9205C1.23607 11.7829 1.23607 12.675 1.2918 13.5374C1.40272 15.2537 2.15148 16.8021 2.98381 18.0586C3.23314 18.5401 3.10323 19.2622 2.6369 20.1459L2.61542 20.1866C2.45874 20.4834 2.30536 20.7738 2.21688 21.0215C2.12313 21.2839 2.02623 21.7006 2.26791 22.1127C2.48996 22.4913 2.84475 22.6299 3.13152 22.6854C3.36961 22.7315 3.66155 22.7385 3.93544 22.745L3.98117 22.7461C5.40092 22.7807 6.40136 22.3707 7.1938 21.7864C7.22778 21.7613 7.25946 21.738 7.28907 21.7162C7.40859 21.6283 7.46835 21.5844 7.54604 21.5747C7.62373 21.5651 7.69203 21.5929 7.82861 21.6486C7.89626 21.6762 7.97233 21.7075 8.05839 21.7429C8.59978 21.9659 9.21472 22.0995 9.77965 22.137C11.2369 22.2339 12.7601 22.2341 14.2204 22.137C18.787 21.8334 22.4103 18.1472 22.7082 13.5374C22.7639 12.675 22.7639 11.7829 22.7082 10.9205C22.6838 10.5422 22.6715 10.3531 22.5713 10.2705C22.5251 10.2326 22.4721 10.2102 22.4127 10.2038C22.2835 10.1899 22.121 10.3296 21.796 10.6089C21.1457 11.1678 20.364 11.63 19.4487 11.963L19.4244 11.9719C19.1354 12.0773 18.6574 12.2517 18.0007 12.2517C17.344 12.2517 16.866 12.0773 16.577 11.9719L16.5527 11.963C12.7328 10.5734 11.2381 6.93195 11.9077 3.40224L11.9106 3.38671C11.9283 3.2931 11.9691 3.07602 12.026 2.88648Z" fill="#141B34"/>
<path fill-rule="evenodd" clip-rule="evenodd" d="M7.75 15.002C7.75 15.4162 8.08579 15.752 8.5 15.752H15.5C15.9142 15.752 16.25 15.4162 16.25 15.002C16.25 14.5877 15.9142 14.252 15.5 14.252H8.5C8.08579 14.252 7.75 14.5877 7.75 15.002ZM7.75 10.002C7.75 10.4162 8.08579 10.752 8.5 10.752H11C11.4142 10.752 11.75 10.4162 11.75 10.002C11.75 9.58774 11.4142 9.25195 11 9.25195H8.5C8.08579 9.25195 7.75 9.58774 7.75 10.002Z" fill="#141B34"/>
</svg>
