<svg width="25" height="24" viewBox="0 0 25 24" fill="none" xmlns="http://www.w3.org/2000/svg">
<path fill-rule="evenodd" clip-rule="evenodd" d="M4.926 18.6484L3.40617 20.1683C3.01565 20.5588 3.01565 21.192 3.40617 21.5825C3.7967 21.973 4.42986 21.973 4.82039 21.5825L6.82039 19.5825C6.87442 19.5284 6.92097 19.4698 6.96005 19.4077C6.1918 19.2746 5.50508 19.0496 4.926 18.6484ZM17.2665 19.4077C17.3056 19.4698 17.3521 19.5284 17.4062 19.5825L19.4062 21.5825C19.7967 21.973 20.4299 21.973 20.8204 21.5825C21.2109 21.192 21.2109 20.5588 20.8204 20.1683L19.3006 18.6484C18.7215 19.0496 18.0348 19.2746 17.2665 19.4077Z" fill="#141B34"/>
<path opacity="0.4" d="M6.74596 3.18141C7.92742 2.27561 9.55299 2.125 11.5829 2.125H12.6436C14.6736 2.125 16.2991 2.27561 17.4806 3.18141C18.6834 4.10359 19.2069 5.63128 19.6072 7.66805L20.1608 10.4846C20.5145 12.2842 20.8012 13.7429 20.8543 14.9027C20.9096 16.1114 20.7228 17.1794 19.9558 18.0612C19.1952 18.9356 18.1455 19.2955 16.9063 19.4626C15.7011 19.625 14.1375 19.625 12.1874 19.625H12.0391C10.089 19.625 8.52547 19.625 7.32022 19.4626C6.08109 19.2955 5.03138 18.9356 4.27079 18.0612C3.50371 17.1794 3.31701 16.1114 3.37231 14.9027C3.42536 13.7429 3.71208 12.2842 4.06579 10.4846L4.61934 7.66806C5.01963 5.63128 5.54313 4.10359 6.74596 3.18141Z" fill="#141B34"/>
<path d="M7.93011 4.72442C7.35441 5.16579 6.92647 6.01726 6.52836 8.04292L6.40198 8.68597C6.3665 8.86653 6.43272 9.0531 6.5785 9.16539C9.96801 11.7762 14.6559 11.7587 17.6824 9.22927C17.8174 9.11643 17.8762 8.93752 17.8422 8.76486L17.7003 8.04292C17.3022 6.01726 16.8743 5.16579 16.2986 4.72442C15.7015 4.26667 14.7215 4.06934 12.6447 4.06934H11.584C9.50721 4.06934 8.52717 4.26667 7.93011 4.72442Z" fill="#141B34"/>
<path fill-rule="evenodd" clip-rule="evenodd" d="M8.11328 14.875C8.11328 14.3227 8.561 13.875 9.11328 13.875H9.12224C9.67453 13.875 10.1222 14.3227 10.1222 14.875C10.1222 15.4273 9.67453 15.875 9.12224 15.875H9.11328C8.561 15.875 8.11328 15.4273 8.11328 14.875ZM14.1043 14.875C14.1043 14.3227 14.552 13.875 15.1043 13.875H15.1133C15.6656 13.875 16.1133 14.3227 16.1133 14.875C16.1133 15.4273 15.6656 15.875 15.1133 15.875H15.1043C14.552 15.875 14.1043 15.4273 14.1043 14.875Z" fill="#141B34"/>
</svg>
