<svg width="24" height="25" viewBox="0 0 24 25" fill="none" xmlns="http://www.w3.org/2000/svg">
<path opacity="0.4" d="M10.8252 1.75337C10.9066 1.75601 10.9474 1.75734 10.9648 1.83209C10.9822 1.90684 10.9377 1.93061 10.8487 1.97814C10.6422 2.08845 10.3939 2.25255 10.1693 2.48971C9.79437 2.88554 9.6302 3.30834 9.54961 3.5766C9.49005 3.77483 9.44681 4.00444 9.42683 4.1105L9.42346 4.12835C8.69112 7.98829 10.3235 11.9345 14.4695 13.4427C14.7898 13.5595 15.313 13.7504 16.0018 13.7503C16.6905 13.7503 17.2137 13.5595 17.534 13.4427C17.8041 13.3444 17.9392 13.2953 18.0321 13.3214C18.1007 13.3407 18.1531 13.3774 18.1946 13.4352C18.251 13.5137 18.251 13.6499 18.251 13.9224V15.5557C18.251 17.1583 18.251 18.4373 18.1161 19.4404C17.9768 20.4767 17.6813 21.3301 17.0062 22.0052C16.331 22.6803 15.4776 22.9758 14.4414 23.1152C13.4383 23.25 12.1593 23.25 10.5567 23.25H10.4452C8.84264 23.25 7.56368 23.25 6.56059 23.1152C5.52433 22.9758 4.67092 22.6803 3.99578 22.0052C3.32064 21.3301 3.02513 20.4767 2.88581 19.4404C2.75095 18.4373 2.75096 17.1583 2.75098 15.5558V9.44424C2.75096 7.84166 2.75095 6.56269 2.88581 5.55962C3.02513 4.52335 3.32064 3.66994 3.99577 2.9948C4.67091 2.31966 5.52433 2.02415 6.56059 1.88483C7.56367 1.74997 8.84264 1.74998 10.4452 1.75C10.5957 1.75 10.7212 1.75 10.8252 1.75337Z" fill="#141B34"/>
<path fill-rule="evenodd" clip-rule="evenodd" d="M8.50098 19.5C8.50098 18.9477 8.94869 18.5 9.50098 18.5H11.501C12.0533 18.5 12.501 18.9477 12.501 19.5C12.501 20.0523 12.0533 20.5 11.501 20.5H9.50098C8.94869 20.5 8.50098 20.0523 8.50098 19.5Z" fill="#141B34"/>
<path d="M13.8229 2.32275C14.409 2.03431 15.1182 1.75 15.9992 1.75C16.8802 1.75 17.5897 2.0343 18.176 2.32271C18.3705 2.41841 18.5413 2.50789 18.6981 2.59005C19.0518 2.77543 19.3345 2.92358 19.6593 3.02196C19.8632 3.08373 20.0699 3.14634 20.2144 3.2001C20.3402 3.24694 20.5675 3.33594 20.7425 3.52072C20.8975 3.6843 20.9716 3.86418 21.0147 4.00776C21.0507 4.1276 21.0813 4.28901 21.1038 4.40766C21.7239 7.67405 20.3593 10.8182 17.0203 12.0327C16.7132 12.1445 16.4234 12.25 16.0008 12.25C15.5781 12.25 15.2883 12.1445 14.9812 12.0327C11.6423 10.8183 10.2762 7.67434 10.8962 4.40771C10.9186 4.28907 10.9492 4.12769 10.9852 4.00785C11.0283 3.86428 11.1024 3.68442 11.2574 3.52085C11.4324 3.33606 11.6596 3.24702 11.7855 3.20018C11.9299 3.1464 12.1367 3.08375 12.3406 3.02195C12.6651 2.92359 12.9475 2.7755 13.301 2.59017C13.4577 2.50799 13.6284 2.41849 13.8229 2.32275Z" fill="#141B34"/>
</svg>
