<svg width="24" height="24" viewBox="0 0 24 24" fill="none" xmlns="http://www.w3.org/2000/svg">
<path opacity="0.4" d="M17 2.74951C14.9915 2.74951 13.1298 3.14405 11.6826 3.81997C10.4648 4.38878 8.82565 4.74951 7 4.74951C5.988 4.74951 5.02989 4.63858 4.16745 4.44105C2.841 4.13723 1.25 5.04629 1.25 6.61348V17.3855C1.25 18.2211 1.38242 19.0077 1.81644 19.6483C2.26524 20.3107 2.95689 20.7026 3.83255 20.9032C4.80949 21.1269 5.88016 21.2495 7 21.2495C9.00849 21.2495 10.8702 20.855 12.3174 20.179C13.5352 19.6102 15.1744 19.2495 17 19.2495C18.012 19.2495 18.9701 19.3604 19.8326 19.558C21.159 19.8618 22.75 18.9527 22.75 17.3855V6.61348C22.75 5.81663 22.6428 5.03404 22.2218 4.38696C21.7825 3.71168 21.0845 3.30589 20.1674 3.09584C19.1905 2.87208 18.1198 2.74951 17 2.74951Z" fill="#141B34"/>
<path fill-rule="evenodd" clip-rule="evenodd" d="M12 14.9998C13.6569 14.9998 15 13.6566 15 11.9998C15 10.3429 13.6569 8.99976 12 8.99976C10.3431 8.99976 9 10.3429 9 11.9998C9 13.6566 10.3431 14.9998 12 14.9998ZM5.5 11.9998C6.05228 11.9998 6.5 12.4475 6.5 12.9998V13.0087C6.5 13.561 6.05228 14.0087 5.5 14.0087C4.94772 14.0087 4.5 13.561 4.5 13.0087V12.9998C4.5 12.4475 4.94772 11.9998 5.5 11.9998ZM19.5 10.9919C19.5 10.4397 19.0523 9.99194 18.5 9.99194C17.9477 9.99194 17.5 10.4397 17.5 10.9919V11.0009C17.5 11.5532 17.9477 12.0009 18.5 12.0009C19.0523 12.0009 19.5 11.5532 19.5 11.0009V10.9919Z" fill="#141B34"/>
</svg>
