<svg width="24" height="24" viewBox="0 0 24 24" fill="none" xmlns="http://www.w3.org/2000/svg">
<path d="M9.75542 14.0409C10.2161 14.3454 10.3427 14.9658 10.0382 15.4265L8.75014 17.3751L9.42826 17.3751C9.60405 17.3749 9.83382 17.3746 10.0264 17.4033C10.2373 17.4348 10.7217 17.5446 10.9873 18.045C11.251 18.542 11.0743 19.0029 10.9848 19.1939C10.9023 19.37 10.7755 19.5615 10.6776 19.7093L8.88139 22.4265C8.57684 22.8872 7.95646 23.0139 7.49574 22.7093C7.03501 22.4047 6.90841 21.7844 7.21296 21.3236L8.50102 19.3751L7.82289 19.3751C7.64711 19.3753 7.41734 19.3755 7.22471 19.3468C7.01382 19.3154 6.52941 19.2055 6.2639 18.7052C6.00017 18.2082 6.17687 17.7473 6.26631 17.5563C6.34881 17.3801 6.47568 17.1886 6.57354 17.0409L8.3476 14.3571C8.65215 13.8964 9.2947 13.7363 9.75542 14.0409Z" fill="#141B34"/>
<path d="M13.5728 18.9807C14.0668 19.2276 14.267 19.8283 14.02 20.3223L13.02 22.3223C12.773 22.8163 12.1723 23.0165 11.6784 22.7695C11.1844 22.5225 10.9842 21.9219 11.2312 21.4279L12.2312 19.4279C12.4781 18.9339 13.0788 18.7337 13.5728 18.9807Z" fill="#141B34"/>
<path d="M16.5728 18.9807C17.0668 19.2276 17.267 19.8283 17.02 20.3223L16.02 22.3223C15.773 22.8163 15.1723 23.0165 14.6784 22.7695C14.1844 22.5225 13.9842 21.9219 14.2312 21.4279L15.2312 19.4279C15.4781 18.9339 16.0788 18.7337 16.5728 18.9807Z" fill="#141B34"/>
<path opacity="0.4" d="M6.06431 9.09283C6.01491 9.28884 5.9902 9.38684 5.93372 9.4447C5.87724 9.50255 5.77924 9.52976 5.58325 9.58419C3.15606 10.2582 1.375 12.4833 1.375 15.125C1.375 17.3682 2.65953 19.3114 4.53315 20.2591C4.97766 20.484 5.19992 20.5964 5.27358 20.5768C5.34817 20.557 5.39703 20.5075 5.41603 20.4327C5.43479 20.3589 5.30614 20.1115 5.04885 19.6167C5.01208 19.546 4.97575 19.4762 4.93978 19.4084C4.3326 18.2642 4.76519 17.2268 4.90876 16.9202C5.0396 16.6408 5.21997 16.3691 5.30973 16.234L7.09716 13.53C7.8159 12.4428 9.36885 11.9867 10.5835 12.7896C11.7353 13.551 12.0518 15.1019 11.2904 16.2538C11.284 16.2633 11.2871 16.2763 11.2972 16.282C11.3082 16.2882 11.3193 16.2945 11.3305 16.3008C11.5857 16.4451 11.8874 16.6156 12.1271 16.96C12.3035 17.2134 12.3917 17.3402 12.4628 17.3744C12.5339 17.4086 12.677 17.3991 12.9632 17.3801C13.3915 17.3517 13.8328 17.4332 14.2445 17.6391C14.4517 17.7427 14.5552 17.7945 14.626 17.7945C14.6968 17.7945 14.8005 17.7427 15.008 17.6391C15.6875 17.2999 16.5128 17.2733 17.2445 17.6391C18.088 18.0608 18.5889 18.8951 18.6249 19.7751C18.6469 20.3124 18.6579 20.5811 18.7856 20.6657C18.9133 20.7504 19.0982 20.6811 19.468 20.5424C21.4584 19.7961 22.875 17.876 22.875 15.625C22.875 13.1535 21.1672 11.0809 18.8673 10.5229C18.6239 10.4638 18.5022 10.4343 18.4397 10.3633C18.3772 10.2923 18.3635 10.1696 18.3362 9.92424C17.9878 6.80231 15.3399 4.375 12.125 4.375C9.20171 4.375 6.74772 6.38153 6.06431 9.09283Z" fill="#141B34"/>
<path d="M3.53528 7.61012C3.34843 7.28225 3.22734 6.93425 3.16804 6.58152C4.16662 6.82644 5.25741 6.69891 6.21881 6.13659C7.17879 5.5751 7.82916 4.68613 8.11664 3.69408C8.37847 3.9179 8.60755 4.19124 8.78965 4.51077C8.91124 4.72413 9.0047 4.94534 9.07149 5.17034C9.64819 4.84681 10.2814 4.6121 10.9527 4.48473C10.8462 4.1551 10.7048 3.83196 10.5273 3.5205C9.84659 2.32609 8.75573 1.51288 7.53569 1.16363C7.21321 1.07132 6.86594 1.14683 6.61091 1.36471C6.35589 1.58259 6.22708 1.91382 6.26792 2.24676C6.37255 3.09983 5.9747 3.96238 5.20905 4.41021C4.44617 4.85642 3.52313 4.77201 2.85722 4.2621C2.58984 4.05737 2.23738 4.00096 1.91947 4.11202C1.60155 4.22308 1.36089 4.4867 1.27916 4.81339C0.970065 6.04893 1.11731 7.4066 1.79765 8.60039C2.26835 9.42634 2.93457 10.0694 3.70378 10.5032C4.2614 10.0898 4.89646 9.77488 5.58325 9.58416C5.77924 9.52974 5.87724 9.50253 5.93372 9.44468C5.96588 9.41174 5.98773 9.3658 6.0097 9.29616C5.11436 9.11566 4.00186 8.42882 3.53528 7.61012Z" fill="#141B34"/>
</svg>
