<svg width="24" height="24" viewBox="0 0 24 24" fill="none" xmlns="http://www.w3.org/2000/svg">
<path d="M20.4214 6.15067C20.6988 6.33359 21.1051 6.27589 21.331 5.82889C21.5179 5.45922 21.969 5.31103 22.3387 5.4979C22.7084 5.68476 22.8566 6.13592 22.6697 6.50559C22.0904 7.65164 20.7131 8.13976 19.5957 7.40293L17.4911 6.01514C16.6779 5.47887 16.1356 5.12351 15.7023 4.92011C15.2899 4.72652 15.1014 4.73226 14.9646 4.77412C14.7781 4.83118 14.5463 5.00162 14.1456 5.67772C13.9344 6.03406 13.4743 6.15173 13.118 5.94056C12.7617 5.72938 12.644 5.26932 12.8552 4.91298C13.2821 4.19251 13.762 3.5735 14.5256 3.33979C15.1667 3.1436 15.7639 3.292 16.3397 3.56227C16.8832 3.8174 17.5163 4.23492 18.2696 4.73169L20.4214 6.15067Z" fill="#141B34"/>
<path opacity="0.4" d="M5.57847 5.1775C6.85114 3.35097 9.38732 2.7468 11.5504 3.69576C12.255 4.00489 12.97 4.3479 13.6696 4.75351C14.3691 5.15911 15.0224 5.60945 15.6412 6.06769C17.5396 7.47337 18.285 9.97725 17.3474 11.995C16.811 13.1495 16.2342 14.3398 15.5609 15.5109C14.8877 16.682 14.1496 17.7788 13.4222 18.8227C12.1495 20.6491 9.61351 21.2533 7.45036 20.3044C6.74583 19.9953 6.03071 19.6523 5.33117 19.2467C4.63161 18.841 3.97838 18.3907 3.35955 17.9325C1.46134 16.5268 0.715647 14.0229 1.65329 12.0052C2.18978 10.8507 2.76661 9.66038 3.43986 8.4893C4.11312 7.3182 4.85114 6.22135 5.57847 5.1775Z" fill="#141B34"/>
<path fill-rule="evenodd" clip-rule="evenodd" d="M12.1322 7.03649C12.6105 7.31263 12.7744 7.92422 12.4983 8.40251L11.4983 10.1346C11.2221 10.6129 10.6105 10.7767 10.1322 10.5006C9.65395 10.2244 9.49008 9.61285 9.76622 9.13456L10.7662 7.40251C11.0424 6.92422 11.654 6.76034 12.1322 7.03649Z" fill="#141B34"/>
</svg>
