<svg width="24" height="24" viewBox="0 0 24 24" fill="none" xmlns="http://www.w3.org/2000/svg">
<path opacity="0.4" d="M11.0189 1.37595C11.2822 1.20977 11.614 1.03703 12.0014 1.03711C12.3888 1.03719 12.7206 1.21018 12.9839 1.37651C13.2487 1.54384 13.5903 1.8058 13.9552 2.08564C14.9457 2.84515 15.9068 3.31668 16.8388 3.53217C17.2042 3.61665 17.5457 3.69559 17.7913 3.77185C18.0348 3.84745 18.3181 3.95648 18.5454 4.17C18.7507 4.36282 18.8726 4.5874 18.9631 4.80474C19.0458 5.00346 19.1304 5.27478 19.2124 5.53775C20.3737 9.25935 20.6058 12.8038 19.6766 15.7519C18.7368 18.7335 16.6274 21.0382 13.2727 22.249C12.861 22.3979 12.4759 22.5371 12.0019 22.5371C11.5278 22.5371 11.1427 22.3979 10.7309 22.249C7.37611 21.0382 5.26564 18.7337 4.32473 15.7521C3.39436 12.8039 3.62551 9.25933 4.78707 5.53752C4.86911 5.27459 4.95375 5.00331 5.03645 4.80461C5.12691 4.58728 5.24882 4.36274 5.4541 4.16994C5.68142 3.95643 5.96474 3.84742 6.20819 3.77183C6.45376 3.69558 6.79519 3.61665 7.16058 3.53219C8.09312 3.31659 9.05524 2.84466 10.0477 2.0843L10.0477 2.08429C10.4125 1.80478 10.7541 1.54309 11.0189 1.37595Z" fill="#141B34"/>
<path fill-rule="evenodd" clip-rule="evenodd" d="M12.75 6.06289V1.2408C12.5328 1.12773 12.2817 1.03717 12.0014 1.03711C11.7199 1.03705 11.4678 1.12822 11.25 1.24182V6.06289C11.1154 6.08004 10.9737 6.11093 10.8303 6.17032C10.4015 6.34794 10.0608 6.68862 9.88321 7.11741C9.80099 7.31592 9.77338 7.51126 9.76126 7.6889C9.74998 7.85422 9.74999 8.05105 9.75 8.26532V8.26535V8.28711V9.30887V9.30891C9.74999 9.52317 9.74998 9.72 9.76126 9.88532C9.77338 10.063 9.80099 10.2583 9.88321 10.4568C10.0608 10.8856 10.4015 11.2263 10.8303 11.4039C10.9737 11.4633 11.1154 11.4942 11.25 11.5113V12.7871C11.25 13.2013 11.5858 13.5371 12 13.5371C12.4142 13.5371 12.75 13.2013 12.75 12.7871V11.5113C12.8846 11.4942 13.0263 11.4633 13.1697 11.4039C13.5985 11.2263 13.9392 10.8856 14.1168 10.4568C14.199 10.2583 14.2266 10.063 14.2387 9.88532C14.25 9.72 14.25 9.52315 14.25 9.30887V8.26535C14.25 8.05107 14.25 7.85423 14.2387 7.6889C14.2266 7.51126 14.199 7.31592 14.1168 7.11741C13.9392 6.68862 13.5985 6.34794 13.1697 6.17032C13.0263 6.11093 12.8846 6.08004 12.75 6.06289ZM12.0024 10.0371C12.2442 10.0371 12.3885 10.0367 12.4961 10.0293C12.5629 10.0248 12.5913 10.0187 12.5987 10.0168C12.6575 9.99153 12.7044 9.94463 12.7297 9.8858C12.7316 9.87844 12.7377 9.85004 12.7422 9.78321C12.7496 9.67521 12.75 9.53034 12.75 9.28711V8.28711C12.75 8.04388 12.7496 7.89902 12.7422 7.79101C12.7377 7.72418 12.7316 7.69578 12.7297 7.68842C12.7044 7.62959 12.6575 7.58269 12.5987 7.55742C12.5913 7.55555 12.5629 7.54945 12.4961 7.54489C12.3881 7.53752 12.2432 7.53711 12 7.53711C11.7568 7.53711 11.6119 7.53752 11.5039 7.54489C11.4371 7.54945 11.4087 7.55555 11.4013 7.55742C11.3425 7.58269 11.2956 7.62959 11.2703 7.68842C11.2684 7.69578 11.2623 7.72418 11.2578 7.79101C11.2504 7.89902 11.25 8.04388 11.25 8.28711V9.28711C11.25 9.53034 11.2504 9.67521 11.2578 9.78321C11.2623 9.85004 11.2684 9.87845 11.2703 9.8858C11.2956 9.94464 11.3425 9.99153 11.4013 10.0168C11.4087 10.0187 11.4371 10.0248 11.5039 10.0293C11.6117 10.0367 11.7561 10.0371 11.9983 10.0371C11.9989 10.0371 11.9994 10.0371 12 10.0371C12.0008 10.0371 12.0016 10.0371 12.0024 10.0371Z" fill="#141B34"/>
</svg>
