<svg width="24" height="24" viewBox="0 0 24 24" fill="none" xmlns="http://www.w3.org/2000/svg">
<path opacity="0.4" d="M7.51195 20.7033C8.3814 20.7942 9.51253 20.7955 11.1211 20.7955H15.2814C15.8192 20.7955 16.2551 21.233 16.2551 21.7727C16.2551 22.3125 15.8192 22.75 15.2814 22.75H11.0662C9.52513 22.75 8.29233 22.75 7.31007 22.6473C6.30066 22.5417 5.43943 22.3186 4.69467 21.7919C4.3043 21.5159 3.95576 21.1871 3.66058 20.8146C3.09075 20.0956 2.84749 19.2577 2.73338 18.2843C2.6235 17.3469 2.62351 16.1743 2.62354 14.7262V12.1428V12.1427C2.62353 10.7244 2.62353 9.61179 2.68272 8.71107C2.74297 7.79422 2.86751 7.02952 3.14862 6.31755C3.99202 4.1815 5.76575 2.51875 7.98575 1.73658C9.36818 1.2495 11.0548 1.24971 13.8944 1.25007L14.1307 1.25009L14.3341 1.25004L14.3341 1.25004C15.8891 1.2495 16.9215 1.24914 17.7803 1.55172C19.1569 2.03673 20.2653 3.071 20.7941 4.41031C20.9774 4.87447 21.053 5.36014 21.0888 5.90477C21.1235 6.43335 21.1235 7.08083 21.1235 7.87999V7.88006V10.0455C21.1235 10.5852 20.6876 11.0228 20.1498 11.0228C19.6121 11.0228 19.1762 10.5852 19.1762 10.0455V7.91329C19.1762 7.07303 19.1757 6.49008 19.1457 6.03341C19.1162 5.58546 19.0614 5.32704 18.9837 5.1304C18.6737 4.34503 18.0079 3.70339 17.1353 3.39593C16.632 3.21858 15.9648 3.20463 14.1307 3.20463C13.8327 3.20463 13.4758 3.2058 13.1377 3.20732C12.7995 3.20885 12.2461 3.21134 11.784 3.48025C11.4792 3.65756 11.2585 3.85945 11.1318 4.08004C10.9144 4.45845 10.7902 4.89711 10.7902 5.3648C10.7902 5.51193 10.7997 5.70446 10.8079 5.88206L10.8079 5.88212C10.8152 6.03696 10.8232 6.20566 10.8266 6.3737C10.8345 6.75379 10.8225 7.19733 10.7078 7.62548C10.4843 8.45945 9.83294 9.11086 8.99897 9.33432C8.57082 9.44904 8.12728 9.46105 7.74718 9.45315C7.57904 9.44966 7.41046 9.44174 7.25554 9.43446C7.07795 9.42622 6.85395 9.41667 6.70682 9.41667C6.26015 9.41667 5.83996 9.53003 5.47344 9.72955C5.24599 9.85337 5.02458 10.0965 4.85165 10.3875C4.57103 10.8596 4.57086 11.4982 4.57087 11.7652L4.5709 14.6653C4.5709 16.1888 4.57248 17.2461 4.66741 18.0559C4.75964 18.8427 4.92908 19.2754 5.18465 19.5979C5.36244 19.8223 5.57482 20.0234 5.81627 20.1941C6.1741 20.4472 6.65803 20.6139 7.51195 20.7033Z" fill="#141B34"/>
<path d="M10.0333 15.1608C9.92224 15.2672 9.70222 15.4387 9.37494 15.4387C9.04767 15.4387 8.82764 15.2672 8.71656 15.1609L8.37378 14.7505L8.12437 18.0565C8.09322 18.4696 7.73312 18.7791 7.32008 18.748C6.90704 18.7168 6.59747 18.3567 6.62863 17.9437L6.96296 13.5116C6.97472 13.3545 6.98843 13.1713 7.01835 13.0254L7.01878 13.0232C7.03953 12.9219 7.13494 12.4558 7.6159 12.2945C8.13522 12.1202 8.49455 12.4909 8.56558 12.5648C8.66885 12.6722 8.77636 12.8203 8.86458 12.9418L9.37493 13.5957L9.88576 12.9412L9.88576 12.9412C9.9739 12.8197 10.0814 12.6717 10.1846 12.5644C10.2557 12.4904 10.6148 12.1201 11.1339 12.294C11.6148 12.4552 11.7104 12.921 11.7312 13.0223L11.7317 13.0244C11.7617 13.1703 11.7755 13.3534 11.7873 13.5103V13.5103L12.1243 17.9433C12.1557 18.3563 11.8464 18.7166 11.4334 18.748C11.0203 18.7794 10.6601 18.47 10.6287 18.057L10.3772 14.7492L10.0333 15.1608Z" fill="#141B34"/>
<path d="M13.3765 18V15.5M13.3765 15.5V14C13.3765 13.5286 13.3765 13.2929 13.5171 13.1464C13.6576 13 13.8839 13 14.3365 13H14.9765C15.6392 13 16.1765 13.5596 16.1765 14.25C16.1765 14.9404 15.6392 15.5 14.9765 15.5H13.3765Z" stroke="#141B34" stroke-width="1.5" stroke-linecap="round"/>
<path d="M18.1765 13.9316C18.2622 13.2771 18.8246 13 19.4112 13H20.1219C20.7086 13 21.2709 13.2771 21.3566 13.9316C21.3831 14.134 21.3831 14.366 21.3566 14.5684C21.2859 15.108 20.8125 15.5 20.2996 15.5M18.1765 17.0684C18.2622 17.7229 18.8246 18 19.4112 18L20.1219 18C20.7086 18 21.2709 17.7229 21.3566 17.0684C21.3831 16.866 21.3831 16.634 21.3566 16.4316C21.2859 15.892 20.8125 15.5 20.2996 15.5M20.2996 15.5H20.2362" stroke="#141B34" stroke-width="1.5" stroke-linecap="round"/>
</svg>
