<svg width="24" height="24" viewBox="0 0 24 24" fill="none" xmlns="http://www.w3.org/2000/svg">
<path opacity="0.4" d="M16.0577 2.75005C17.4253 2.75003 18.5276 2.75001 19.3946 2.86657C20.2947 2.98759 21.0525 3.24648 21.6545 3.8484C22.2564 4.45032 22.5153 5.20819 22.6363 6.1083C22.7528 6.97527 22.7528 8.07759 22.7528 9.44518V14.5549C22.7528 15.9225 22.7528 17.0248 22.6363 17.8918C22.5153 18.7919 22.2564 19.5498 21.6545 20.1517C21.0525 20.7536 20.2947 21.0125 19.3946 21.1335C18.5276 21.2501 17.4253 21.2501 16.0577 21.25H4.50281C5.46931 21.25 6.25281 20.4665 6.25281 19.5L6.25278 7.38425C6.25251 6.56629 6.25233 6.00814 6.38059 5.52948C6.72734 4.23538 7.73814 3.22458 9.03224 2.87783C9.5109 2.74957 10.069 2.74975 10.887 2.75002L16.0577 2.75005Z" fill="#141B34"/>
<path d="M6.25362 6.75L5.8288 6.75C5.00564 6.74995 4.29638 6.74991 3.72841 6.82941C3.11972 6.9146 2.53625 7.10672 2.06299 7.59939C1.58973 8.09207 1.40518 8.69947 1.32335 9.33314C1.24699 9.92441 1.24703 10.6628 1.24707 11.5197L1.24707 17.8667C1.24707 19.7352 2.70215 21.25 4.49707 21.25C4.50715 21.25 4.51722 21.25 4.52728 21.2499C5.48165 21.2358 6.25098 20.4578 6.25098 19.5L6.25097 17.8667H6.24707C6.24707 18.6675 5.44489 19.3167 4.67564 19.3167C3.90639 19.3167 3.10422 18.6675 3.10422 17.8667V11.5833C3.10422 10.6446 3.10619 10.0378 3.16393 9.59075C3.21808 9.17147 3.3055 9.04005 3.37619 8.96647C3.44688 8.89288 3.57311 8.80187 3.97587 8.7455C4.40534 8.68539 4.98821 8.68334 5.88993 8.68334H6.25095L6.25095 7.38425C6.25088 7.15351 6.25081 6.94344 6.25362 6.75Z" fill="#141B34"/>
<path fill-rule="evenodd" clip-rule="evenodd" d="M9.75281 8C9.75281 7.58579 10.0886 7.25 10.5028 7.25H18.5028C18.917 7.25 19.2528 7.58579 19.2528 8C19.2528 8.41421 18.917 8.75 18.5028 8.75H10.5028C10.0886 8.75 9.75281 8.41421 9.75281 8ZM9.75281 12C9.75281 11.5858 10.0886 11.25 10.5028 11.25H13.0028C13.417 11.25 13.7528 11.5858 13.7528 12C13.7528 12.4142 13.417 12.75 13.0028 12.75H10.5028C10.0886 12.75 9.75281 12.4142 9.75281 12ZM15.2528 12C15.2528 11.5858 15.5886 11.25 16.0028 11.25H18.5028C18.917 11.25 19.2528 11.5858 19.2528 12C19.2528 12.4142 18.917 12.75 18.5028 12.75H16.0028C15.5886 12.75 15.2528 12.4142 15.2528 12ZM9.75281 16C9.75281 15.5858 10.0886 15.25 10.5028 15.25H13.0028C13.417 15.25 13.7528 15.5858 13.7528 16C13.7528 16.4142 13.417 16.75 13.0028 16.75H10.5028C10.0886 16.75 9.75281 16.4142 9.75281 16ZM15.2528 16C15.2528 15.5858 15.5886 15.25 16.0028 15.25H18.5028C18.917 15.25 19.2528 15.5858 19.2528 16C19.2528 16.4142 18.917 16.75 18.5028 16.75H16.0028C15.5886 16.75 15.2528 16.4142 15.2528 16Z" fill="#141B34"/>
</svg>
