<svg width="24" height="24" viewBox="0 0 24 24" fill="none" xmlns="http://www.w3.org/2000/svg">
<path d="M3.92786 9.27684C3.92789 4.84139 7.54419 1.24988 12 1.24988C16.4558 1.24988 20.0721 4.84142 20.0721 9.27691C20.0722 10.3087 20.1416 11.0873 20.6173 11.7871C20.7984 12.0496 21.1413 12.4935 21.3697 12.8504C21.6255 13.2502 21.8754 13.7323 21.9613 14.2941C22.2416 16.1269 20.9494 17.3135 19.6625 17.8452C15.1298 19.7181 8.87016 19.7181 4.33746 17.8452C3.05056 17.3135 1.75836 16.1269 2.03868 14.2941C2.12459 13.7323 2.37452 13.2502 2.63033 12.8504C2.85873 12.4934 3.20168 12.0495 3.38271 11.7871C3.85838 11.0872 3.92776 10.3085 3.92786 9.27684Z" fill="#141B34"/>
<path opacity="0.4" d="M14.7786 21.9529C13.9752 22.4582 13.0197 22.7496 11.9994 22.7496C10.9792 22.7496 10.0237 22.4582 9.22032 21.9529C8.50727 21.5045 8.15075 21.2803 8.27551 20.9076C8.40028 20.5348 8.89223 20.5766 9.87615 20.66C11.2833 20.7794 12.7155 20.7794 14.1227 20.66C15.1066 20.5766 15.5986 20.5348 15.7234 20.9076C15.8481 21.2803 15.4916 21.5045 14.7786 21.9529Z" fill="#141B34"/>
</svg>
