<svg width="24" height="24" viewBox="0 0 24 24" fill="none" xmlns="http://www.w3.org/2000/svg">
<path fill-rule="evenodd" clip-rule="evenodd" d="M7.0017 18.6915C6.99563 18.7951 7.0057 18.9014 7.03379 19.0071C7.61087 21.1786 9.63084 22.7502 12.0002 22.7502C14.3697 22.7502 16.3896 21.1786 16.9667 19.0071C16.9948 18.9013 17.0049 18.795 16.9988 18.6914C16.2867 18.8578 15.5529 18.9871 14.8072 19.0791C14.3002 20.0592 13.244 20.7502 12.0002 20.7502C10.7565 20.7502 9.7003 20.0592 9.19334 19.0792C8.4476 18.9871 7.71383 18.8579 7.0017 18.6915Z" fill="#141B34"/>
<path opacity="0.4" d="M13.0125 1.44733C13.0932 1.60844 12.9314 1.83562 12.6079 2.28998C11.9102 3.26958 11.5 4.46767 11.5 5.76151C11.5 9.0723 14.1863 11.7562 17.5 11.7562C18.0799 11.7562 18.6405 11.674 19.171 11.5207C19.7329 11.3582 20.0138 11.277 20.1632 11.3281C20.3126 11.3793 20.4902 11.6232 20.8454 12.1111C21.0184 12.3487 21.2184 12.6201 21.3697 12.8563C21.6255 13.2557 21.8754 13.7374 21.9613 14.2987C22.2416 16.1298 20.9494 17.3155 19.6625 17.8467C15.1298 19.7179 8.87016 19.7179 4.33746 17.8467C3.05056 17.3155 1.75836 16.1298 2.03868 14.2987C2.12459 13.7374 2.37452 13.2557 2.63033 12.8563C2.77528 12.6299 2.96636 12.3686 3.13291 12.1409C3.76864 11.2715 3.92776 10.3599 3.92786 9.28586C3.92789 4.85431 7.54419 1.26595 12 1.26595C12.2716 1.26595 12.874 1.17074 13.0125 1.44733Z" fill="#141B34"/>
<path fill-rule="evenodd" clip-rule="evenodd" d="M13 5.75012C13 3.26484 15.0147 1.25012 17.5 1.25012C19.9853 1.25012 22 3.26484 22 5.75012C22 8.2354 19.9853 10.2501 17.5 10.2501C15.0147 10.2501 13 8.2354 13 5.75012ZM15.1722 4.83653C15.061 5.11952 15 5.42769 15 5.75012C15 7.13083 16.1193 8.25012 17.5 8.25012C17.8224 8.25012 18.1306 8.18908 18.4136 8.07793L15.1722 4.83653ZM16.5864 3.42231L19.8278 6.66372C19.939 6.38073 20 6.07255 20 5.75012C20 4.36941 18.8807 3.25012 17.5 3.25012C17.1776 3.25012 16.8694 3.31116 16.5864 3.42231Z" fill="#141B34"/>
</svg>
