<svg width="24" height="24" viewBox="0 0 24 24" fill="none" xmlns="http://www.w3.org/2000/svg">
<path opacity="0.4" d="M6.24544 6.37731C5.40919 6.86017 4.59611 7.44308 3.87507 8.1043C2.47598 9.38732 1.34243 11.0423 1.17247 12.9118C0.994005 14.8747 1.35527 16.3086 1.65044 17.4469C1.95371 18.6166 2.12259 19.3047 1.87272 20.0543C1.78289 20.3238 1.85303 20.6209 2.0539 20.8218C2.25478 21.0227 2.5519 21.0928 2.8214 21.003C3.57107 20.7531 4.25909 20.9219 5.42859 21.2251C6.56688 21.5201 8.00068 21.8813 9.96353 21.7028C11.833 21.5329 13.488 20.3993 14.771 19.0002C15.4393 18.2715 16.0275 17.4488 16.5134 16.6032C16.6695 16.3313 16.7476 16.1954 16.7072 16.0693C16.6668 15.9431 16.5159 15.8741 16.2142 15.7361C15.8653 15.5765 15.4954 15.4008 15.3796 15.3471C13.7933 14.527 12.2595 13.4173 10.8749 12.0442C9.49021 10.6712 8.37015 9.14973 7.54145 7.57373C7.48153 7.4466 7.28978 7.04894 7.11946 6.67863C6.97897 6.37317 6.90873 6.22044 6.78248 6.18027C6.65624 6.1401 6.51931 6.21917 6.24544 6.37731Z" fill="#141B34"/>
<path d="M11.3257 2.26347C13.7611 2.13017 16.2455 2.98617 18.1094 4.83432C19.9736 6.68287 20.8394 9.14991 20.7046 11.5709C20.6759 12.0912 20.6427 12.6931 20.4833 13.1469C20.2903 13.6963 19.9302 14.0949 19.3694 14.4114C18.79 14.7385 18.2425 14.8221 17.6536 14.6903C17.1618 14.5802 16.5898 14.2842 16.068 14.0142C14.6203 13.2657 13.2102 12.2474 11.9308 10.9787C10.6515 9.71009 9.62407 8.31148 8.86874 6.87494C8.59692 6.35844 8.29717 5.78885 8.18568 5.29915C8.05158 4.71013 8.13715 4.16277 8.46832 3.58592C8.78883 3.02765 9.19085 2.67209 9.74111 2.48202C10.1965 2.32472 10.8002 2.29197 11.3257 2.26347Z" fill="#141B34"/>
<path fill-rule="evenodd" clip-rule="evenodd" d="M19.6808 5.44079C19.0677 5.58323 18.5074 5.90867 18.2027 6.15051C17.77 6.49379 17.141 6.42135 16.7977 5.98871C16.4545 5.55607 16.5269 4.92706 16.9595 4.58378C17.4506 4.19418 18.2746 3.71422 19.2282 3.49268C20.1964 3.26772 21.4009 3.29184 22.4716 4.0881C22.9147 4.41768 23.0068 5.04412 22.6772 5.48728C22.3477 5.93045 21.7212 6.02253 21.2781 5.69295C20.8237 5.35504 20.2792 5.30176 19.6808 5.44079Z" fill="#141B34"/>
</svg>
