<svg width="24" height="24" viewBox="0 0 24 24" fill="none" xmlns="http://www.w3.org/2000/svg">
<path fill-rule="evenodd" clip-rule="evenodd" d="M7.24859 5.71198C7.27796 6.26348 6.85469 6.73437 6.30319 6.76375C5.59583 6.80142 5.12972 6.93472 4.81262 7.232C4.60108 7.43032 4.44188 7.71685 4.34971 8.35957C4.25241 9.03803 4.25 9.94776 4.25 11.3037V16.1251C4.25 17.481 4.25241 18.3907 4.34971 19.0692C4.44188 19.7119 4.60108 19.9984 4.81262 20.1968C5.03331 20.4037 5.36592 20.5645 6.08324 20.6549C6.82306 20.7482 7.80924 20.7501 9.25 20.7501C10.6908 20.7501 11.6769 20.7482 12.4168 20.6549C13.1341 20.5645 13.4667 20.4037 13.6874 20.1968C13.8989 19.9984 14.0581 19.7119 14.1503 19.0692C14.2476 18.3907 14.25 17.481 14.25 16.1251V14.7188C14.25 14.1666 14.6977 13.7188 15.25 13.7188C15.8023 13.7188 16.25 14.1666 16.25 14.7188L16.25 16.1987C16.2501 17.4617 16.2501 18.516 16.13 19.3531C16.0025 20.2422 15.7224 21.0304 15.0553 21.6558C14.3973 22.2727 13.5834 22.5237 12.6669 22.6392C11.7872 22.7501 10.6742 22.7501 9.31684 22.7501H9.18317C7.82584 22.7501 6.7128 22.7501 5.83313 22.6392C4.91657 22.5237 4.10274 22.2727 3.44474 21.6558C2.77761 21.0304 2.49746 20.2422 2.36997 19.3531C2.24992 18.516 2.24996 17.4617 2.25 16.1987V11.23C2.24996 9.96702 2.24992 8.91274 2.36997 8.07566C2.49746 7.18661 2.77761 6.39836 3.44474 5.77292C4.2914 4.97918 5.3581 4.81125 6.19682 4.76658C6.74832 4.7372 7.21921 5.16047 7.24859 5.71198Z" fill="#141B34"/>
<path fill-rule="evenodd" clip-rule="evenodd" d="M8.25 18.5C8.25 17.9477 8.69571 17.5 9.24553 17.5H9.25447C9.80429 17.5 10.25 17.9477 10.25 18.5C10.25 19.0523 9.80429 19.5 9.25447 19.5H9.24553C8.69571 19.5 8.25 19.0523 8.25 18.5Z" fill="#141B34"/>
<path opacity="0.4" fill-rule="evenodd" clip-rule="evenodd" d="M15.75 2.46536C15.75 2.35122 15.8144 2.2466 15.918 2.19851C16.5862 1.88809 17.4429 1.60305 18.4815 1.41996L18.5331 1.41085C18.9962 1.32912 19.4314 1.25231 19.8037 1.25005C20.2347 1.24744 20.6505 1.34154 21.0337 1.6456C21.4396 1.96761 21.6117 2.38731 21.6856 2.8269C21.7502 3.21111 21.7501 3.68322 21.75 4.19313L21.75 8.29434C21.75 8.76816 21.7501 9.18782 21.7102 9.52658C21.6676 9.888 21.5694 10.2694 21.2876 10.5924C20.9976 10.9246 20.5933 11.0788 20.2203 11.1815C19.8457 11.2846 19.3583 11.3705 18.7788 11.4726L18.7419 11.4791C17.7202 11.6593 16.9394 11.9434 16.3917 12.2171L16.3748 12.2255L16.1726 12.3264C15.9764 12.424 15.75 12.281 15.75 12.0618L15.75 2.46536ZM11.4669 1.41085L11.5186 1.41996C12.5571 1.60305 13.4138 1.88808 14.082 2.1985C14.1856 2.24658 14.25 2.35121 14.25 2.46535L14.25 12.0618C14.25 12.2809 14.0236 12.424 13.8274 12.3264L13.6254 12.2256L13.6083 12.2171C13.0606 11.9434 12.2798 11.6593 11.2581 11.4791L11.2212 11.4726C10.6416 11.3705 10.1543 11.2846 9.77975 11.1815C9.40669 11.0788 9.00239 10.9246 8.71246 10.5924C8.43065 10.2694 8.33244 9.888 8.28986 9.52658C8.24995 9.18781 8.24998 8.76812 8.25001 8.29429L8.25001 4.19314C8.24992 3.68323 8.24985 3.21111 8.31445 2.8269C8.38837 2.38731 8.56046 1.96761 8.96632 1.6456C9.34956 1.34154 9.7653 1.24744 10.1963 1.25005C10.5686 1.25231 11.0038 1.32912 11.4669 1.41085Z" fill="#141B34"/>
</svg>
