<svg width="24" height="24" viewBox="0 0 24 24" fill="none" xmlns="http://www.w3.org/2000/svg">
<path d="M8.75 13.5556C8.75 12.9993 9.13725 12.25 9.94444 12.25H21.0556C21.8628 12.25 22.25 12.9993 22.25 13.5556C22.25 16.2595 20.4699 18.75 17.9444 18.75H13.0556C10.5301 18.75 8.75 16.2595 8.75 13.5556Z" fill="#141B34"/>
<path opacity="0.4" fill-rule="evenodd" clip-rule="evenodd" d="M7.02955 11.5902C6.29872 11.9009 5.42102 11.7583 4.82501 11.1623L2.33764 8.67491C1.55412 7.89139 1.55412 6.62106 2.33764 5.83755C3.12115 5.05404 4.39148 5.05404 5.17499 5.83755L7.66236 8.32492C8.25839 8.92095 8.40102 9.79869 8.09023 10.5295L10.7748 13.2143C11.0677 13.5072 11.0677 13.9821 10.7748 14.275C10.4819 14.5679 10.007 14.5678 9.7141 14.2749L7.02955 11.5902Z" fill="#141B34"/>
</svg>
