<svg width="24" height="24" viewBox="0 0 24 24" fill="none" xmlns="http://www.w3.org/2000/svg">
<path d="M13 1.25C16.5243 1.25 19.127 4.53682 18.3487 7.97925C17.586 11.3522 14.6011 13.5 11.1532 13.5H9.99113C9.70968 13.5 9.63178 13.5012 9.5718 13.5082C9.06634 13.5668 8.64523 14.1817 8.51463 14.6816C8.49909 14.741 8.48677 14.8192 8.447 15.0989L7.97378 18.4285L7.97378 18.4285C7.92056 18.8033 7.87124 19.1505 7.79454 19.4318C7.70964 19.7431 7.56916 20.0641 7.2747 20.3208C6.97981 20.5779 6.64252 20.6728 6.32232 20.7135C6.06543 20.7461 5.76013 20.7496 5.43071 20.75C5.4513 20.75 5.47198 20.75 5.49275 20.75H5.37774C5.35454 20.75 5.33123 20.75 5.30782 20.75H5.37774C5.39546 20.75 5.41312 20.75 5.43071 20.75C4.98645 20.7496 4.58466 20.745 4.25703 20.6983C3.86056 20.6417 3.43783 20.507 3.11981 20.1297C2.80242 19.7531 2.74032 19.3139 2.74994 18.9135C2.75879 18.5457 2.83343 18.0958 2.91617 17.5971L5.05791 4.68085C5.14502 4.15548 5.21819 3.71411 5.30997 3.35664C5.40643 2.98093 5.53749 2.63654 5.77368 2.3272C6.01159 2.01561 6.31335 1.75857 6.65885 1.5736C7.00224 1.38975 7.36299 1.31619 7.74847 1.28224C8.11486 1.24998 8.56045 1.24999 9.09001 1.25H9.09002H13Z" fill="#141B34"/>
<path d="M5.30782 20.75C5.33123 20.75 5.35454 20.75 5.37774 20.75H5.30782Z" fill="#141B34"/>
<path opacity="0.4" d="M20.1153 9.00432C18.9461 12.5064 15.6577 14.9999 11.9156 14.9999H10.7535C10.5091 14.9999 10.4473 15.1831 10.447 15.2747L9.96785 18.6458C9.91934 18.9879 9.8606 19.4023 9.7629 19.7605C9.64358 20.198 9.41025 20.7819 8.85849 21.2629C8.30556 21.7449 7.69411 21.896 7.24216 21.9534C7.15499 21.9644 7.10873 22.063 7.16574 22.1298C7.48773 22.5075 7.96887 22.75 8.51054 22.75H10.5011C11.3555 22.75 12.0949 22.138 12.2379 21.289L12.9674 16.9602C12.9868 16.8448 13.091 16.75 13.225 16.75H15.0282C17.9548 16.75 20.4978 14.7388 21.1358 11.899C21.3738 10.8393 21.2273 9.80152 20.8011 8.91075C20.6476 8.58988 20.5708 8.42945 20.4362 8.43781C20.3016 8.44617 20.2395 8.63222 20.1153 9.00432Z" fill="#141B34"/>
</svg>
