<svg width="25" height="24" viewBox="0 0 25 24" fill="none" xmlns="http://www.w3.org/2000/svg">
<path d="M7.11328 15.125C5.73257 15.125 4.61328 16.2443 4.61328 17.625C4.61328 19.0057 5.73257 20.125 7.11328 20.125C8.49399 20.125 9.61328 19.0057 9.61328 17.625C9.61328 16.2443 8.49399 15.125 7.11328 15.125Z" fill="#141B34"/>
<path d="M17.1133 15.125C15.7326 15.125 14.6133 16.2443 14.6133 17.625C14.6133 19.0057 15.7326 20.125 17.1133 20.125C18.494 20.125 19.6133 19.0057 19.6133 17.625C19.6133 16.2443 18.494 15.125 17.1133 15.125Z" fill="#141B34"/>
<path opacity="0.4" d="M16.457 4.40729C15.9712 4.11422 15.4659 3.98811 14.9119 3.92966C14.3935 3.87497 13.7713 3.87499 13.0386 3.875H13.0386L12.3216 3.87501C12.0674 3.87501 11.8237 3.97686 11.644 4.15814C11.4642 4.33943 11.3633 4.5853 11.3633 4.84168V10.475C11.3633 10.6636 11.3633 10.7578 11.3047 10.8164C11.2461 10.875 11.1518 10.875 10.9633 10.875H2.11328C1.69907 10.875 1.36328 11.2108 1.36328 11.625V16.0898C1.36328 16.3683 1.39263 16.6842 1.57187 16.9843C1.74097 17.2675 1.99296 17.4462 2.18956 17.5772C2.40394 17.7203 2.6171 17.866 2.84039 17.9949C2.91668 18.039 2.95483 18.061 3.0018 18.0708C3.14679 18.1012 3.30209 18.0115 3.34831 17.8708C3.36328 17.8252 3.36328 17.7585 3.36328 17.625C3.36328 15.5539 5.04221 13.875 7.11328 13.875C9.18435 13.875 10.8633 15.5539 10.8633 17.625L10.8632 17.646V17.646C10.8612 18.0141 10.8602 18.1981 10.9482 18.2866C11.0361 18.375 11.1982 18.375 11.5223 18.375L12.7043 18.375C13.0284 18.375 13.1904 18.375 13.2784 18.2866C13.3664 18.1981 13.3654 18.0141 13.3633 17.646L13.3633 17.625C13.3633 15.5539 15.0422 13.875 17.1133 13.875C19.1843 13.875 20.8633 15.5539 20.8633 17.625C20.8633 17.849 20.8633 17.961 20.9062 18.0323C20.9534 18.1109 21.0454 18.1685 21.1367 18.1766C21.2196 18.184 21.2922 18.1486 21.4374 18.078C21.7277 17.9369 22.0036 17.7396 22.2282 17.4954C22.6071 17.0387 22.7446 16.5016 22.8056 15.9656C22.8633 15.4578 22.8633 14.7344 22.8633 14.0003V14.0003C22.8633 13.4396 22.8633 12.9622 22.8314 12.5644C22.7975 12.1425 22.7242 11.7452 22.544 11.3538C22.1915 10.5878 21.5505 10.1201 20.7554 9.54C19.9704 8.9664 19.3083 8.25183 18.7513 7.3216C18.333 6.62281 17.9651 6.00835 17.6397 5.55943C17.2993 5.08993 16.9369 4.69679 16.457 4.40729Z" fill="#141B34"/>
<path d="M22.863 13.875H21.8633C21.4491 13.875 21.1133 14.2108 21.1133 14.625C21.1133 15.0392 21.4491 15.375 21.8633 15.375H22.8467C22.863 14.9601 22.863 14.4825 22.863 14.0003C22.863 13.9581 22.863 13.9163 22.863 13.875Z" fill="#141B34"/>
<path fill-rule="evenodd" clip-rule="evenodd" d="M13.3848 6.12704L13.9468 7.87537C14.2252 8.74165 14.4188 9.34129 14.6101 9.78769C14.7977 10.2257 14.952 10.4375 15.1094 10.5701C15.254 10.692 15.4324 10.7742 15.781 10.8218C16.159 10.8735 16.6527 10.8751 17.4109 10.8751H18.153C18.6279 10.8751 18.8653 10.8751 18.917 10.7529C18.9686 10.6307 18.7958 10.453 18.4502 10.0977C17.9466 9.57979 17.5185 9.00067 17.1117 8.32119C16.6661 7.57689 16.3632 7.07266 16.0936 6.70082C15.8333 6.34179 15.6496 6.17245 15.4743 6.06671C15.3049 5.96453 15.0962 5.89302 14.7135 5.85266C14.417 5.82137 14.0598 5.81223 13.5815 5.80958C13.3991 5.80856 13.3317 5.9618 13.3848 6.12704Z" fill="#141B34"/>
</svg>
