<svg width="24" height="24" viewBox="0 0 24 24" fill="none" xmlns="http://www.w3.org/2000/svg">
<path d="M11.3157 1.64506L11.3693 1.66045C14.9111 2.67733 18.0011 4.8045 20.2722 7.65066L20.3089 7.69666C20.7521 8.25196 21.1439 8.74293 21.3969 9.21025C21.6803 9.73367 21.814 10.2666 21.7203 10.8978C21.6229 11.555 21.2956 12.0422 20.8342 12.4743C20.5965 12.6968 20.3074 12.9187 19.9785 13.1519C19.7339 13.3252 19.6117 13.4119 19.4834 13.385C19.3552 13.3581 19.2754 13.225 19.1157 12.9588C18.2024 11.4364 17.2548 10.2262 16.5508 9.49074C14.5365 7.23335 11.9875 5.53988 9.11917 4.66407C8.47525 4.46746 7.85387 4.28871 7.27286 4.12875C6.98585 4.04974 6.84234 4.01023 6.78192 3.89446C6.7215 3.77869 6.76931 3.64356 6.86495 3.3733C6.9356 3.17363 7.00813 2.98916 7.08551 2.8213C7.32648 2.29861 7.64572 1.86359 8.16948 1.56628C8.67462 1.27954 9.1712 1.21152 9.70629 1.26848C10.1803 1.31894 10.7177 1.47328 11.3157 1.64506Z" fill="#141B34"/>
<g opacity="0.4">
<path fill-rule="evenodd" clip-rule="evenodd" d="M18.0903 14.3326C18.0639 14.4488 17.9547 14.5223 17.7361 14.6693L14.5227 16.8307C14.3195 16.9674 14.2179 17.0357 14.1286 17.0104C14.0394 16.9851 13.9842 16.8633 13.8737 16.6197C13.3533 15.4719 12.2493 14.6445 10.9202 14.6445C9.05596 14.6445 7.64355 16.2612 7.64355 18.1285C7.64355 18.963 7.9206 19.7379 8.39124 20.3447C8.54237 20.5396 8.61794 20.637 8.60305 20.7238C8.58817 20.8106 8.49394 20.8712 8.30549 20.9924C7.51198 21.5026 6.82082 21.9166 6.22164 22.2094C5.1447 22.7357 4.01114 23.0494 3.08722 22.3314C2.1805 21.6267 2.15515 20.4486 2.34434 19.2384C2.54025 17.9852 3.03672 16.2991 3.66857 14.1533L3.80397 13.6934C3.82212 13.6318 3.89164 13.6019 3.95309 13.6207C4.2276 13.705 4.5174 13.75 4.8161 13.75C6.58795 13.75 7.92305 12.2119 7.92305 10.4446C7.92305 8.99369 7.03543 7.71629 5.74031 7.28793C5.71524 7.27964 5.70023 7.25329 5.70769 7.22796L6.07956 5.96501C6.15765 5.69978 6.1967 5.56717 6.30382 5.50748C6.41094 5.44779 6.54349 5.48414 6.80858 5.55685C7.39626 5.71804 8.02697 5.89903 8.68097 6.09872C11.2723 6.88994 13.5939 8.42691 15.4399 10.4989L15.4491 10.5093L15.4588 10.5194C16.1114 11.1992 17.0342 12.3811 17.9194 13.8821C18.0509 14.105 18.1166 14.2165 18.0903 14.3326ZM12.6006 12.4999C13.1529 12.4999 13.6006 12.0522 13.6006 11.4999C13.6006 10.9476 13.1529 10.4999 12.6006 10.4999H12.5916C12.0393 10.4999 11.5916 10.9476 11.5916 11.4999C11.5916 12.0522 12.0393 12.4999 12.5916 12.4999H12.6006Z" fill="#141B34"/>
<path d="M4.39301 12.1867C4.32311 12.1653 4.27494 12.0939 4.29559 12.0238L5.15368 9.10948C5.21014 8.91773 5.23837 8.82186 5.33392 8.78753C5.42946 8.75319 5.49971 8.80069 5.64021 8.89568C6.09506 9.20319 6.42305 9.7661 6.42305 10.4446C6.42305 11.4999 5.64766 12.25 4.8161 12.25C4.66893 12.25 4.52732 12.2279 4.39301 12.1867Z" fill="#141B34"/>
<path d="M9.94911 19.7894C9.99687 19.8243 10.0618 19.831 10.1109 19.798C10.265 19.6945 10.4221 19.5889 10.5821 19.4812L12.5161 18.1803C12.598 18.1253 12.639 18.0977 12.659 18.0714C12.6877 18.0338 12.6916 18.0244 12.698 17.9775C12.7026 17.9448 12.6874 17.8663 12.6571 17.7092C12.4766 16.7734 11.7316 16.1445 10.9202 16.1445C9.99359 16.1445 9.14355 16.976 9.14355 18.1285C9.14355 18.8375 9.47481 19.4421 9.94911 19.7894Z" fill="#141B34"/>
</g>
<path d="M4.39326 12.1867C4.32336 12.1653 4.27518 12.0939 4.29584 12.0237L5.15393 9.10947C5.21039 8.91772 5.23862 8.82185 5.33416 8.78751C5.42971 8.75318 5.49996 8.80067 5.64046 8.89566C6.09531 9.20317 6.4233 9.76609 6.4233 10.4446C6.4233 11.4999 5.64791 12.25 4.81634 12.25C4.66918 12.25 4.52757 12.2279 4.39326 12.1867Z" fill="#141B34"/>
<path d="M9.94936 19.7894C9.99711 19.8243 10.062 19.831 10.1111 19.798C10.2652 19.6945 10.4223 19.5889 10.5823 19.4812L12.5164 18.1803C12.5983 18.1252 12.6392 18.0977 12.6593 18.0714C12.6879 18.0338 12.6918 18.0244 12.6983 17.9775C12.7028 17.9448 12.6877 17.8662 12.6574 17.7092C12.4769 16.7734 11.7318 16.1445 10.9205 16.1445C9.99384 16.1445 9.1438 16.976 9.1438 18.1285C9.1438 18.8375 9.47506 19.4421 9.94936 19.7894Z" fill="#141B34"/>
<path fill-rule="evenodd" clip-rule="evenodd" d="M12.6005 12.5C13.1528 12.5 13.6005 12.0523 13.6005 11.5C13.6005 10.9477 13.1528 10.5 12.6005 10.5H12.5916C12.0393 10.5 11.5916 10.9477 11.5916 11.5C11.5916 12.0523 12.0393 12.5 12.5916 12.5H12.6005Z" fill="#141B34"/>
</svg>
