<svg width="24" height="24" viewBox="0 0 24 24" fill="none" xmlns="http://www.w3.org/2000/svg">
<path opacity="0.4" d="M9.75 19.2497C9.75 18.0071 10.7574 16.9997 12 16.9997C13.2426 16.9997 14.25 18.0071 14.25 19.2497V22.1497C14.25 22.4326 14.25 22.574 14.3379 22.6619C14.4257 22.7497 14.5672 22.7497 14.85 22.7497H18C18.4142 22.7497 18.75 22.414 18.75 21.9997V12.8469C18.75 11.4635 18.75 10.3501 18.6336 9.47469C18.5129 8.56713 18.255 7.80365 17.6545 7.19662C17.6059 7.1475 17.5563 7.10062 17.5056 7.05588C17.2806 6.85716 17.1681 6.7578 17.0159 6.79481C16.8638 6.83183 16.7985 7.00014 16.6679 7.33676C16.6566 7.36603 16.645 7.39528 16.6333 7.42452C16.0114 8.97344 14.7984 10.5753 12.6594 11.3801C12.2343 11.54 11.7662 11.54 11.3411 11.3801C9.20222 10.5754 7.98903 8.97357 7.36698 7.42473C7.35519 7.39537 7.3436 7.366 7.3322 7.33662C7.20159 7.00004 7.13628 6.83175 6.98416 6.79474C6.83204 6.75773 6.71952 6.85707 6.49449 7.05577C6.44378 7.10054 6.39411 7.14746 6.34548 7.19662C5.74501 7.80365 5.48708 8.56713 5.36638 9.47469C5.24997 10.35 5.24998 11.4635 5.25 12.8469V21.9997C5.25 22.414 5.58579 22.7497 6 22.7497H9.15C9.43284 22.7497 9.57427 22.7497 9.66213 22.6619C9.75 22.574 9.75 22.4326 9.75 22.1497V19.2497Z" fill="#141B34"/>
<path d="M12 18.249C12.5523 18.249 13 18.6967 13 19.249V22.549C13 22.6595 12.9105 22.749 12.8 22.749H11.2C11.0895 22.749 11 22.6595 11 22.549L11 19.249C11 18.6967 11.4477 18.249 12 18.249Z" fill="#141B34"/>
<path d="M12.0004 1.25C12.2347 1.25004 12.4496 1.3821 12.5589 1.59277C12.5589 1.59277 12.6305 1.70874 12.6775 1.77161C12.7717 1.89769 12.9223 2.07219 13.1382 2.24837C13.5627 2.59466 14.2591 2.96429 15.3329 2.96429C15.6505 2.96429 15.9187 3.20437 15.9593 3.525C16.0636 4.34895 15.9897 5.67274 15.4733 6.95881C14.95 8.26223 13.9575 9.55617 12.2193 10.2101C12.078 10.2633 11.9226 10.2633 11.7813 10.2101C10.0431 9.55618 9.05046 8.26227 8.52699 6.95888C8.01049 5.67284 7.93635 4.34902 8.04065 3.525C8.08124 3.20437 8.34944 2.96429 8.66706 2.96429C9.7409 2.96429 10.4375 2.59465 10.8621 2.24831C11.0782 2.07211 11.2288 1.89758 11.3231 1.77148C11.3701 1.70861 11.4418 1.59259 11.4418 1.59259C11.5511 1.38196 11.7661 1.24996 12.0004 1.25Z" fill="#141B34"/>
<path d="M18.75 12.7542C19.1907 12.7606 19.5313 12.7763 19.8113 12.8139C20.245 12.8722 20.381 12.9664 20.4571 13.0425C20.5332 13.1186 20.6274 13.2546 20.6857 13.6883C20.7479 14.1508 20.75 14.7785 20.75 15.7496V20.7496H18.75V21.9993C18.75 22.4135 18.4142 22.7493 18 22.7493H17.7254C17.7336 22.7495 17.7418 22.7496 17.75 22.7496L20.7894 22.7496C20.9893 22.7497 21.2272 22.7499 21.4319 22.7224C21.6789 22.6892 22.0207 22.6003 22.3107 22.3103C22.6007 22.0203 22.6896 21.6785 22.7228 21.4315C22.7503 21.2268 22.7501 20.9889 22.75 20.789L22.75 15.6838C22.7501 14.7973 22.7501 14.0335 22.6679 13.4218C22.5797 12.7663 22.381 12.1379 21.8713 11.6283C21.3617 11.1186 20.7333 10.9199 20.0778 10.8317C19.6876 10.7793 19.2354 10.7603 18.729 10.7535C18.7492 11.3444 18.75 12.0096 18.75 12.7542Z" fill="#141B34"/>
<path d="M5.25 12.7536C5.25002 12.0091 5.25082 11.3439 5.27102 10.7529C4.76461 10.7598 4.31246 10.7788 3.92224 10.8312C3.26673 10.9194 2.63838 11.1181 2.12871 11.6278C1.61905 12.1374 1.42031 12.7658 1.33217 13.4213C1.24994 14.0329 1.24998 14.7967 1.25003 15.6832L1.25002 20.7885C1.24989 20.9883 1.24974 21.2263 1.27726 21.431C1.31047 21.678 1.39938 22.0197 1.68937 22.3097C1.97937 22.5997 2.32111 22.6886 2.56815 22.7219C2.77279 22.7494 3.01074 22.7492 3.21061 22.7491L5.98131 22.7491C5.57574 22.7392 5.25 22.4073 5.25 21.9993V20.7491H3.25003V15.7491C3.25003 14.778 3.25216 14.1503 3.31434 13.6878C3.37265 13.254 3.4668 13.1181 3.54293 13.042C3.61905 12.9658 3.755 12.8717 4.18874 12.8134C4.46876 12.7757 4.80933 12.7601 5.25 12.7536Z" fill="#141B34"/>
<path fill-rule="evenodd" clip-rule="evenodd" d="M8.25 14C8.25 13.5858 8.58579 13.25 9 13.25H10.2C10.6142 13.25 10.95 13.5858 10.95 14C10.95 14.4142 10.6142 14.75 10.2 14.75H9C8.58579 14.75 8.25 14.4142 8.25 14ZM13.05 14C13.05 13.5858 13.3858 13.25 13.8 13.25H15C15.4142 13.25 15.75 13.5858 15.75 14C15.75 14.4142 15.4142 14.75 15 14.75H13.8C13.3858 14.75 13.05 14.4142 13.05 14Z" fill="#141B34"/>
</svg>
