<svg width="24" height="24" viewBox="0 0 24 24" fill="none" xmlns="http://www.w3.org/2000/svg">
<path opacity="0.4" fill-rule="evenodd" clip-rule="evenodd" d="M2.69805 17.7899C1.75 16.8289 1.75 15.2821 1.75 12.1885V7.81348C1.75 4.71988 1.75 3.17309 2.69805 2.21203C3.6461 1.25098 5.17196 1.25098 8.22368 1.25098H15.7763C18.828 1.25098 20.3539 1.25098 21.302 2.21203C22.25 3.17309 22.25 4.71988 22.25 7.81348V12.1885C22.25 15.2821 22.25 16.8289 21.302 17.7899C20.3539 18.751 18.828 18.751 15.7763 18.751H8.22368C5.17196 18.751 3.6461 18.751 2.69805 17.7899Z" fill="#141B34"/>
<path fill-rule="evenodd" clip-rule="evenodd" d="M7.46137 18.75L4.37534 21.2188C3.94408 21.5638 3.87416 22.1931 4.21917 22.6244C4.56418 23.0556 5.19347 23.1256 5.62473 22.7806L10.6247 18.7806C10.6369 18.7708 10.6488 18.7608 10.6604 18.7506H8.22368C7.95824 18.7506 7.70435 18.7506 7.46137 18.75ZM11 18.7506V21.9997C11 22.5519 11.4477 22.9997 12 22.9997C12.5523 22.9997 13 22.5519 13 21.9997V18.7506H11ZM13.3396 18.7506C13.3512 18.7608 13.3632 18.7708 13.3753 18.7806L18.3753 22.7806C18.8066 23.1256 19.4359 23.0556 19.7809 22.6244C20.1259 22.1931 20.056 21.5638 19.6247 21.2188L16.5387 18.75C16.2957 18.7506 16.0418 18.7506 15.7763 18.7506H13.3396Z" fill="#141B34"/>
<path d="M13 7.00098C13 6.44869 12.5523 6.00098 12 6.00098C11.4477 6.00098 11 6.44869 11 7.00098V13.001C11 13.5533 11.4477 14.001 12 14.001C12.5523 14.001 13 13.5533 13 13.001V7.00098Z" fill="#141B34"/>
<path d="M9 10.001C9 9.44869 8.55228 9.00098 8 9.00098C7.44772 9.00098 7 9.44869 7 10.001V13.001C7 13.5533 7.44772 14.001 8 14.001C8.55228 14.001 9 13.5533 9 13.001V10.001Z" fill="#141B34"/>
<path d="M17 11.001C17 10.4487 16.5523 10.001 16 10.001C15.4477 10.001 15 10.4487 15 11.001V13.001C15 13.5533 15.4477 14.001 16 14.001C16.5523 14.001 17 13.5533 17 13.001V11.001Z" fill="#141B34"/>
</svg>
