<svg width="24" height="24" viewBox="0 0 24 24" fill="none" xmlns="http://www.w3.org/2000/svg">
<path opacity="0.4" d="M12.9018 6.34382C13.3505 6.5351 13.6484 6.9849 13.6484 7.50859V10.7425H15.0496C15.6173 10.7425 16.0009 11.1266 16.1553 11.5123C16.3095 11.8976 16.2903 12.3961 15.9785 12.7963L12.4794 17.2877C12.1268 17.7403 11.5631 17.8547 11.0978 17.6563C10.649 17.465 10.3512 17.0152 10.3512 16.4915V13.2576H8.94994C8.38223 13.2576 7.99861 12.8736 7.84422 12.4878C7.69003 12.1025 7.70922 11.604 8.021 11.2039L11.5201 6.71239C11.8727 6.2598 12.4364 6.14545 12.9018 6.34382Z" fill="#141B34"/>
<g opacity="0.4">
<path d="M12.9964 2.03194C13.1045 1.50314 13.6207 1.16205 14.1495 1.2701C18.2432 2.10654 21.5129 5.20294 22.6257 9.20339C22.6597 9.32483 22.7206 9.54211 22.7397 9.70995C22.7628 9.91245 22.7718 10.375 22.376 10.7327C21.971 11.0988 21.5001 11.031 21.3075 10.9865C21.1425 10.9483 20.9615 10.8751 20.8415 10.8265L18.9245 9.95807C18.4331 9.7348 17.8998 9.2034 18.4391 8.66409L19.721 7.38214C18.4145 5.25199 16.2715 3.69856 13.7583 3.18504C13.2295 3.077 12.8884 2.56073 12.9964 2.03194Z" fill="#141B34"/>
<path d="M5.07423 14.0422C5.5656 14.2654 6.09898 14.7969 5.55968 15.3362L4.27772 16.6181C5.58428 18.7483 7.72725 20.3017 10.2405 20.8152C10.7693 20.9232 11.1104 21.4395 11.0023 21.9683C10.8943 22.4971 10.378 22.8382 9.84923 22.7301C5.75553 21.8937 2.48588 18.7973 1.37304 14.7969C1.33902 14.6754 1.27816 14.4582 1.25905 14.2903C1.236 14.0878 1.22697 13.6252 1.62272 13.2675C2.02778 12.9014 2.49865 12.9693 2.69122 13.0138C2.85628 13.0519 3.03724 13.1251 3.15727 13.1737L5.07423 14.0422Z" fill="#141B34"/>
</g>
<path d="M9.95795 5.07435C9.73468 5.56573 9.20327 6.0991 8.66397 5.5598L7.38201 4.27785C5.25187 5.5844 3.69844 7.72737 3.18492 10.2406C3.07688 10.7694 2.56061 11.1105 2.03181 11.0025C1.50302 10.8944 1.16193 10.3782 1.26997 9.84935C2.10641 5.75566 5.20282 2.486 9.20327 1.37316C9.32471 1.33914 9.54198 1.27828 9.70983 1.25917C9.91233 1.23612 10.3749 1.22709 10.7326 1.62284C11.0987 2.0279 11.0309 2.49877 10.9864 2.69134C10.9482 2.8564 10.875 3.03736 10.8264 3.15739L9.95795 5.07435Z" fill="#141B34"/>
<path d="M21.9682 12.9965C22.497 13.1046 22.8381 13.6208 22.73 14.1496C21.8936 18.2433 18.7972 21.513 14.7967 22.6258C14.6753 22.6599 14.458 22.7207 14.2902 22.7398C14.0877 22.7629 13.6251 22.7719 13.2674 22.3762C12.9013 21.9711 12.9691 21.5002 13.0136 21.3076C13.0518 21.1426 13.125 20.9616 13.1736 20.8416L14.042 18.9246C14.2653 18.4333 14.7967 17.8999 15.336 18.4392L16.618 19.7211C18.7481 18.4146 20.3016 16.2716 20.8151 13.7584C20.9231 13.2296 21.4394 12.8885 21.9682 12.9965Z" fill="#141B34"/>
</svg>
