<svg width="24" height="24" viewBox="0 0 24 24" fill="none" xmlns="http://www.w3.org/2000/svg">
<path d="M16.5919 2.07151C16.5966 2.15078 16.6094 2.36845 16.614 2.49138C16.6235 2.74224 16.6306 3.0868 16.6197 3.45294C16.609 3.81295 16.5803 4.22463 16.5094 4.59889C16.4739 4.78628 16.4234 4.98858 16.3476 5.18134C16.2757 5.36433 16.1557 5.60457 15.9462 5.80713C15.5728 6.16821 15.0548 6.27291 14.7538 6.31704C14.3944 6.36974 14.0066 6.3768 13.6728 6.36853C13.3327 6.36009 13.0149 6.33469 12.7844 6.31186C12.6717 6.3007 12.4715 6.27621 12.3977 6.26717L12.3913 6.26639C12.0179 6.21392 11.7054 5.9558 11.5837 5.59888C11.462 5.24196 11.5514 4.84691 11.8149 4.57719L12.5324 3.84294C9.82782 2.27889 6.1469 3.33035 4.51903 6.57493C4.27136 7.06857 3.67041 7.26797 3.17677 7.0203C2.68314 6.77263 2.48374 6.17168 2.73141 5.67805C4.91127 1.33327 10.2293 -0.191054 13.9741 2.36753L14.8791 1.44133C15.1537 1.16029 15.5675 1.06612 15.9367 1.20063C16.3058 1.33515 16.5621 1.67366 16.5915 2.06549L16.5919 2.07151Z" fill="#141B34"/>
<path opacity="0.4" d="M16.2483 11.0788C16.4915 10.9401 16.6131 10.8708 16.7322 10.9027C16.8512 10.9346 16.9219 11.0555 17.0633 11.2971L17.0681 11.3053C17.5255 12.0873 17.2549 13.0883 16.4604 13.5411L15.5484 14.0608C15.3354 14.1822 15.262 14.4519 15.3843 14.6632C15.5067 14.8745 15.7786 14.9474 15.9916 14.826L16.9035 14.3063C17.1957 14.1397 17.5683 14.2394 17.7357 14.5256C18.193 15.3076 17.9225 16.3085 17.1279 16.7613L16.216 17.281C16.003 17.4024 15.9295 17.6721 16.0519 17.8834C16.1743 18.0947 16.4461 18.1676 16.6591 18.0462L17.5711 17.5265C17.8122 17.3891 18.1184 17.4996 18.2146 17.753L18.3428 18.0909C18.6268 18.8391 18.3218 19.6816 17.6184 20.0825C16.6225 20.65 14.5503 21.8303 13.95 22.124C13.3529 22.4161 12.9099 22.5742 12.4909 22.6402C12.0206 22.7142 11.2437 22.6088 10.6025 22.4833C9.96165 22.3578 9.2743 22.4369 8.68482 22.7728C8.3099 22.9865 7.83141 22.8593 7.61442 22.4883L4.55422 17.2563C4.08674 16.457 3.853 16.0574 3.87663 15.6998C3.90026 15.3423 4.28408 14.8483 5.05171 13.8604C5.34265 13.486 5.58557 13.0853 5.75296 12.6752L8.04897 7.04996C8.28973 6.50114 8.87714 6.17819 9.47962 6.26783C10.2678 6.38511 10.7709 7.14949 10.565 7.90309L9.93586 10.2064C9.8888 10.3787 9.95103 10.5621 10.0935 10.6711C10.236 10.7802 10.4307 10.7933 10.5867 10.7044L19.6719 5.52693C20.2159 5.2169 20.9106 5.40175 21.2233 5.93646C21.5353 6.46988 21.351 7.15297 20.8083 7.46227L14.8807 10.8404C14.6677 10.9618 14.5943 11.2315 14.7166 11.4428C14.839 11.6541 15.1109 11.727 15.3239 11.6056L16.2483 11.0788Z" fill="#141B34"/>
</svg>
