<svg width="24" height="25" viewBox="0 0 24 25" fill="none" xmlns="http://www.w3.org/2000/svg">
<g opacity="0.4">
<path d="M7.75773 2.93555C8.94985 2.31794 10.3167 1.75 11.998 1.75C13.6792 1.75 15.0466 2.31795 16.2394 2.93554C16.5997 3.12212 16.9345 3.30669 17.2544 3.48308C18.0375 3.91478 18.7316 4.29744 19.4936 4.54044C19.9408 4.68307 20.337 4.80941 20.6179 4.91946C20.8824 5.02304 21.1966 5.16499 21.4196 5.41278C21.62 5.63537 21.7229 5.88529 21.7911 6.12434C21.8531 6.34133 21.906 6.63515 21.9568 6.917C22.1391 7.92758 22.2359 8.93033 22.2475 9.91374C22.2507 10.1858 22.2523 10.3218 22.1642 10.4109C22.0761 10.5 21.9367 10.5 21.6579 10.5H2.34161C2.06283 10.5 1.92343 10.5 1.83536 10.4109C1.74728 10.3218 1.74886 10.1858 1.75202 9.91382C1.76342 8.93041 1.86017 7.92764 2.04239 6.91705C2.09317 6.63523 2.14611 6.34148 2.20804 6.1245C2.27626 5.88547 2.37915 5.63558 2.57943 5.41299C2.8024 5.1652 3.11664 5.02321 3.38106 4.9196C3.66199 4.80951 4.05821 4.6831 4.5055 4.54039C5.26707 4.2974 5.96054 3.91486 6.74299 3.48322C7.06279 3.30681 7.39748 3.12218 7.75773 2.93555Z" fill="#141B34"/>
<path d="M13.8806 22.8179C13.2308 23.0667 12.7523 23.25 12.0013 23.25C11.2502 23.25 10.7717 23.0667 10.1219 22.8179C7.15862 21.6834 4.97973 19.7504 3.58897 17.3444C3.37924 16.9815 3.27438 16.8001 3.36097 16.6501C3.44756 16.5 3.66429 16.5 4.09776 16.5H19.9033C20.3366 16.5 20.5533 16.5 20.6399 16.65C20.7265 16.8001 20.6217 16.9815 20.4121 17.3443C19.022 19.7503 16.8437 21.6833 13.8806 22.8179Z" fill="#141B34"/>
</g>
<path fill-rule="evenodd" clip-rule="evenodd" d="M7.96967 11.9697C8.26256 11.6768 8.73744 11.6768 9.03033 11.9697L9.5 12.4393L9.96967 11.9697C10.2626 11.6768 10.7374 11.6768 11.0303 11.9697C11.3232 12.2626 11.3232 12.7374 11.0303 13.0303L10.5607 13.5L11.0303 13.9697C11.3232 14.2626 11.3232 14.7374 11.0303 15.0303C10.7374 15.3232 10.2626 15.3232 9.96967 15.0303L9.5 14.5607L9.03033 15.0303C8.73744 15.3232 8.26256 15.3232 7.96967 15.0303C7.67678 14.7374 7.67678 14.2626 7.96967 13.9697L8.43934 13.5L7.96967 13.0303C7.67678 12.7374 7.67678 12.2626 7.96967 11.9697Z" fill="#141B34"/>
<path fill-rule="evenodd" clip-rule="evenodd" d="M2.96967 11.9697C3.26256 11.6768 3.73744 11.6768 4.03033 11.9697L4.5 12.4393L4.96967 11.9697C5.26256 11.6768 5.73744 11.6768 6.03033 11.9697C6.32322 12.2626 6.32322 12.7374 6.03033 13.0303L5.56066 13.5L6.03033 13.9697C6.32322 14.2626 6.32322 14.7374 6.03033 15.0303C5.73744 15.3232 5.26256 15.3232 4.96967 15.0303L4.5 14.5607L4.03033 15.0303C3.73744 15.3232 3.26256 15.3232 2.96967 15.0303C2.67678 14.7374 2.67678 14.2626 2.96967 13.9697L3.43934 13.5L2.96967 13.0303C2.67678 12.7374 2.67678 12.2626 2.96967 11.9697Z" fill="#141B34"/>
<path fill-rule="evenodd" clip-rule="evenodd" d="M12.9697 11.9697C13.2626 11.6768 13.7374 11.6768 14.0303 11.9697L14.5 12.4393L14.9697 11.9697C15.2626 11.6768 15.7374 11.6768 16.0303 11.9697C16.3232 12.2626 16.3232 12.7374 16.0303 13.0303L15.5607 13.5L16.0303 13.9697C16.3232 14.2626 16.3232 14.7374 16.0303 15.0303C15.7374 15.3232 15.2626 15.3232 14.9697 15.0303L14.5 14.5607L14.0303 15.0303C13.7374 15.3232 13.2626 15.3232 12.9697 15.0303C12.6768 14.7374 12.6768 14.2626 12.9697 13.9697L13.4393 13.5L12.9697 13.0303C12.6768 12.7374 12.6768 12.2626 12.9697 11.9697Z" fill="#141B34"/>
<path fill-rule="evenodd" clip-rule="evenodd" d="M17.9697 11.9697C18.2626 11.6768 18.7374 11.6768 19.0303 11.9697L19.5 12.4393L19.9697 11.9697C20.2626 11.6768 20.7374 11.6768 21.0303 11.9697C21.3232 12.2626 21.3232 12.7374 21.0303 13.0303L20.5607 13.5L21.0303 13.9697C21.3232 14.2626 21.3232 14.7374 21.0303 15.0303C20.7374 15.3232 20.2626 15.3232 19.9697 15.0303L19.5 14.5607L19.0303 15.0303C18.7374 15.3232 18.2626 15.3232 17.9697 15.0303C17.6768 14.7374 17.6768 14.2626 17.9697 13.9697L18.4393 13.5L17.9697 13.0303C17.6768 12.7374 17.6768 12.2626 17.9697 11.9697Z" fill="#141B34"/>
</svg>
