<svg width="24" height="24" viewBox="0 0 24 24" fill="none" xmlns="http://www.w3.org/2000/svg">
<path opacity="0.4" d="M1.25 12C1.25 6.06294 6.06294 1.25 12 1.25C17.9371 1.25 22.75 6.06294 22.75 12C22.75 17.9371 17.9371 22.75 12 22.75C6.06294 22.75 1.25 17.9371 1.25 12Z" fill="#141B34"/>
<path d="M5.46375 8.43545C5.84486 7.64805 6.87597 6.8954 7.95111 7.41679C8.53467 7.69979 8.76139 8.18557 8.7965 8.60757C8.81233 8.79779 8.7965 9.08893 8.69875 9.29856C8.54446 9.68296 8.10776 9.8695 7.72335 9.71521C7.3478 9.56447 7.16111 9.14419 7.29658 8.76646C7.25794 8.74772 7.20049 8.73687 7.10396 8.78388C6.99839 8.8353 6.88446 8.9432 6.81393 9.08893C6.7465 9.22823 6.73208 9.37277 6.77285 9.50693C6.812 9.63579 6.92574 9.83218 7.25564 10.0325C7.60531 10.2449 7.85832 10.2691 8.03272 10.2405C8.21435 10.2107 8.4049 10.1077 8.59338 9.90487C8.99016 9.47797 9.25008 8.73846 9.25008 8.09162C9.25008 7.67741 9.58586 7.34162 10.0001 7.34162C10.4143 7.34162 10.7501 7.67741 10.7501 8.09162C10.7501 9.05012 10.3892 10.1761 9.69209 10.9261C9.33365 11.3117 8.85902 11.625 8.27569 11.7207C7.68514 11.8176 7.07341 11.6768 6.47705 11.3146C5.89208 10.9594 5.50303 10.4873 5.33764 9.94303C5.17385 9.40401 5.25312 8.87064 5.46375 8.43545Z" fill="#141B34"/>
<path d="M18.5362 10.5646C18.1551 11.352 17.124 12.1046 16.0489 11.5832C15.4653 11.3002 15.2386 10.8144 15.2035 10.3924C15.1877 10.2022 15.2035 9.94497 15.3012 9.70144C15.4555 9.31704 15.8922 9.1305 16.2766 9.28479C16.6522 9.43553 16.8389 9.85581 16.7034 10.2335C16.7421 10.2523 16.7995 10.2631 16.896 10.2161C17.0016 10.1647 17.1155 10.0568 17.1861 9.91107C17.2535 9.77177 17.2679 9.62723 17.2272 9.49307C17.188 9.36421 17.0743 9.16782 16.7444 8.96749C16.3947 8.75514 16.1417 8.73085 15.9673 8.75948C15.7856 8.78929 15.5951 8.89234 15.4066 9.09513C15.0098 9.52203 14.7499 10.2615 14.7499 10.9084C14.7499 11.3226 14.4141 11.6584 13.9999 11.6584C13.5857 11.6584 13.2499 11.3226 13.2499 10.9084C13.2499 9.94988 13.6108 8.82393 14.3079 8.07394C14.6663 7.68829 15.141 7.37504 15.7243 7.27929C16.3149 7.18235 16.9266 7.32323 17.5229 7.68538C18.1079 8.04062 18.497 8.51266 18.6624 9.05697C18.8261 9.59599 18.7469 10.1294 18.5362 10.5646Z" fill="#141B34"/>
<path fill-rule="evenodd" clip-rule="evenodd" d="M10.1817 17.0021C9.72908 16.666 9.24709 16.666 8.79444 17.0021L8.44721 17.26C8.11467 17.5069 7.64489 17.4376 7.39793 17.105C7.15097 16.7725 7.22035 16.3027 7.55289 16.0557L7.90012 15.7979C8.88378 15.0674 10.0924 15.0674 11.0761 15.7979L11.3454 15.9979V15.9979C11.798 16.334 12.28 16.334 12.7327 15.9979L13.002 15.7979C13.9856 15.0674 15.1942 15.0674 16.1779 15.7979L16.4472 15.9979C16.7797 16.2448 16.8491 16.7146 16.6022 17.0472C16.3552 17.3797 15.8854 17.4491 15.5529 17.2021L15.2836 17.0021C14.8309 16.666 14.3489 16.666 13.8963 17.0021L13.627 17.2021C12.6433 17.9326 11.4347 17.9326 10.451 17.2021L10.1817 17.0021Z" fill="#141B34"/>
</svg>
