<svg width="24" height="24" viewBox="0 0 24 24" fill="none" xmlns="http://www.w3.org/2000/svg">
<path opacity="0.5" d="M17.4061 13.2142C17.7185 13.1328 17.8747 13.0921 17.9374 13.0111C18 12.93 18 12.7997 18 12.539V11.4616C18 11.2009 18 11.0705 17.9374 10.9895C17.8747 10.9085 17.7185 10.8678 17.4061 10.7864C16.2487 10.485 15.5197 9.32659 15.7966 8.21584C15.8796 7.88304 15.921 7.71664 15.88 7.62298C15.839 7.52932 15.7222 7.46532 15.4886 7.33732L14.4636 6.7758C14.245 6.65601 14.1356 6.59612 14.0379 6.60926C13.9402 6.62241 13.8282 6.73079 13.604 6.94755C12.7276 7.7951 11.2733 7.79507 10.3969 6.94749C10.1728 6.73073 10.0607 6.62235 9.96302 6.60921C9.86532 6.59606 9.756 6.65596 9.53734 6.77574L8.51238 7.33727C8.27876 7.46525 8.16195 7.52925 8.12095 7.6229C8.07994 7.71655 8.12139 7.88296 8.20431 8.2158C8.48101 9.32658 7.75147 10.485 6.59386 10.7864C6.28148 10.8678 6.12528 10.9085 6.06264 10.9895C6 11.0705 6 11.2009 6 11.4616V12.539C6 12.7997 6 12.93 6.06264 13.0111C6.12527 13.0921 6.28147 13.1328 6.59386 13.2142C7.75127 13.5156 8.48025 14.674 8.2034 15.7847C8.12045 16.1175 8.07897 16.2839 8.11998 16.3776C8.16098 16.4713 8.2778 16.5353 8.51143 16.6633L9.53639 17.2248C9.75506 17.3446 9.86439 17.4045 9.9621 17.3913C10.0598 17.3782 10.1718 17.2698 10.3959 17.053C11.2728 16.2048 12.7282 16.2047 13.605 17.053C13.8291 17.2697 13.9412 17.3781 14.0389 17.3913C14.1366 17.4044 14.2459 17.3445 14.4646 17.2247L15.4895 16.6632C15.7232 16.5352 15.84 16.4712 15.881 16.3775C15.922 16.2839 15.8805 16.1175 15.7975 15.7847C15.5205 14.674 16.2489 13.5156 17.4061 13.2142Z" fill="#141B34"/>
<circle cx="12" cy="12" r="1.75" fill="#141B34"/>
<path d="M12 3.20455C7.1424 3.20455 3.20455 7.1424 3.20455 12C3.20455 13.2527 3.46584 14.4418 3.93598 15.5178C4.15207 16.0124 3.92631 16.5885 3.43172 16.8046C2.93714 17.0207 2.36102 16.7949 2.14492 16.3004C1.569 14.9822 1.25 13.5271 1.25 12C1.25 6.06294 6.06294 1.25 12 1.25C13.8587 1.25 15.608 1.72226 17.1334 2.55278L18.1568 1.5294C18.3331 1.35657 18.5745 1.25 18.8409 1.25C19.3806 1.25 19.8182 1.68754 19.8182 2.22727V5.02087C19.8182 5.41438 19.5822 5.76949 19.2194 5.92189C18.8566 6.07428 18.4378 5.99421 18.1568 5.71874C16.5693 4.16251 14.3975 3.20455 12 3.20455Z" fill="#141B34"/>
<path d="M20.5683 7.19538C21.0629 6.97929 21.639 7.20505 21.8551 7.69964C22.431 9.01779 22.75 10.4729 22.75 12C22.75 17.9371 17.9371 22.75 12 22.75C10.1413 22.75 8.39203 22.2777 6.8666 21.4472L5.84323 22.4706C5.66695 22.6434 5.42546 22.75 5.15909 22.75C4.61936 22.75 4.18182 22.3125 4.18182 21.7727V18.9791C4.18182 18.5856 4.41783 18.2305 4.78062 18.0781C5.14342 17.9257 5.56223 18.0058 5.84323 18.2813C7.43071 19.8375 9.6025 20.7955 12 20.7955C16.8576 20.7955 20.7955 16.8576 20.7955 12C20.7955 10.7473 20.5342 9.5582 20.064 8.48218C19.8479 7.9876 20.0737 7.41148 20.5683 7.19538Z" fill="#141B34"/>
</svg>
