<svg width="24" height="24" viewBox="0 0 24 24" fill="none" xmlns="http://www.w3.org/2000/svg">
<path opacity="0.4" d="M15.592 1.28719C15.7848 1.29408 15.9486 1.29993 16.0789 1.30909C16.205 1.31794 16.3564 1.33284 16.5019 1.37635C16.758 1.453 17.0474 1.56915 17.2839 1.81427C17.5204 2.05938 17.6261 2.35273 17.6936 2.61144C17.7365 2.77599 17.7424 2.99252 17.746 3.16249C17.7502 3.36507 17.7502 3.64015 17.7502 3.99032V4.00018C17.7502 5.7951 19.2053 7.25018 21.0002 7.25018C21.7715 7.25018 22.6991 7.80005 22.7258 8.81658L22.7289 15.0092C22.7243 15.1263 22.7161 15.2722 22.6847 15.4045C22.6187 15.6823 22.5125 16.0149 22.2436 16.28C21.9747 16.5451 21.6406 16.6465 21.3619 16.7085C21.2164 16.7408 21.0093 16.7446 20.8438 16.7471C20.6427 16.7502 20.3653 16.7502 20.0078 16.7502H20.0002C18.2053 16.7502 16.7502 18.2053 16.7502 20.0002V20.0078C16.7502 20.3653 16.7502 20.6427 16.7471 20.8438C16.7446 21.0093 16.7408 21.2164 16.7085 21.3619C16.6465 21.6406 16.5451 21.9747 16.28 22.2436C16.0149 22.5125 15.6823 22.6187 15.4045 22.6847C15.2722 22.7161 15.1263 22.7243 15.0092 22.7289H8.99121C8.87411 22.7243 8.72815 22.7161 8.59583 22.6847C8.3181 22.6187 7.98543 22.5125 7.72036 22.2436C7.45529 21.9747 7.35387 21.6406 7.29191 21.3619C7.25954 21.2164 7.25577 21.0093 7.25325 20.8438C7.25018 20.6427 7.25018 20.3654 7.25018 20.0079V20.0078V20.0002C7.25018 18.2053 5.7951 16.7502 4.00018 16.7502H3.99259C3.63507 16.7502 3.35764 16.7502 3.15655 16.7471C2.99102 16.7446 2.784 16.7408 2.63844 16.7085C2.35979 16.6465 2.02563 16.5451 1.75673 16.28C1.48783 16.0149 1.38163 15.6823 1.31567 15.4045C1.28425 15.2722 1.2761 15.1262 1.27148 15.0091V8.99121C1.2761 8.87411 1.28425 8.72815 1.31567 8.59583C1.38163 8.3181 1.48783 7.98543 1.75673 7.72036C2.02564 7.45529 2.3598 7.35387 2.63844 7.29191C2.78401 7.25954 2.99102 7.25577 3.15655 7.25325C3.35761 7.25018 3.63498 7.25018 3.99243 7.25018H3.99259H4.00018C5.7951 7.25018 7.25018 5.7951 7.25018 4.00018V3.99259V3.99243C7.25018 3.63498 7.25018 3.35761 7.25325 3.15655C7.25577 2.99102 7.25954 2.78401 7.29191 2.63844C7.35387 2.3598 7.45529 2.02564 7.72036 1.75673C7.98543 1.48783 8.3181 1.38163 8.59583 1.31567C8.72815 1.28425 8.87411 1.2761 8.99121 1.27148L15.592 1.28719L15.592 1.28719Z" fill="#141B34"/>
<path d="M20.9999 7.25004C21.7713 7.25004 22.6989 7.79991 22.7256 8.81645L22.7286 15.009C22.724 15.1261 22.7159 15.2721 22.6844 15.4044C22.6185 15.6821 22.5123 16.0148 22.2434 16.2799C21.9745 16.5449 21.6403 16.6463 21.3617 16.7083C21.2161 16.7407 21.0091 16.7444 20.8436 16.747C20.6425 16.75 20.365 16.75 20.0075 16.75H19.9999C18.205 16.75 16.7499 18.2051 16.7499 20V20.0076V20.008C16.7499 20.3653 16.7499 20.6426 16.7469 20.8437C16.7443 21.0092 16.7406 21.2162 16.7082 21.3618C16.6462 21.6404 16.5448 21.9746 16.2798 22.2435C16.0147 22.5124 15.682 22.6186 15.4043 22.6845C15.272 22.716 15.126 22.7241 15.0089 22.7287H8.99096C8.87386 22.7241 8.72791 22.716 8.59558 22.6845C8.31786 22.6186 7.98519 22.5124 7.72011 22.2435C7.45504 21.9746 7.35363 21.6404 7.29166 21.3618C7.25929 21.2162 7.25553 21.0092 7.253 20.8437C7.24993 20.6426 7.24993 20.3652 7.24993 20.0078V20.0076V20C7.24993 19.1025 6.88609 18.2899 6.29785 17.7018L18.2565 5.74316C18.8332 6.64908 19.8464 7.25004 20.9999 7.25004Z" fill="#141B34"/>
</svg>
