<svg width="24" height="24" viewBox="0 0 24 24" fill="none" xmlns="http://www.w3.org/2000/svg">
<path opacity="0.4" fill-rule="evenodd" clip-rule="evenodd" d="M1.5 2C1.5 1.44772 1.94772 1 2.5 1L3.43845 1C4.81505 1 6.015 1.93689 6.34887 3.27239L6.35349 3.29084L6.8173 5.5L7.5 5.5C8.05228 5.5 8.5 5.94772 8.5 6.5C8.5 7.05228 8.05228 7.5 7.5 7.5H7.23721L8.81185 15H8.88L15.2632 15C16.2838 15 17.015 14.8393 17.5562 14.5882C18.0861 14.3423 18.4837 13.9869 18.8096 13.5112C19.5068 12.4937 19.8556 10.9832 20.2807 8.87172C20.4056 8.25109 20.4778 7.88216 20.4961 7.61683C20.5019 7.53287 20.4912 7.53185 20.4155 7.52468L20.4025 7.52342C19.8528 7.46956 19.4509 6.98031 19.5048 6.43066C19.5586 5.88101 20.0479 5.47909 20.5975 5.53296C21.093 5.58151 21.7167 5.72333 22.141 6.30719C22.4858 6.78159 22.5219 7.31012 22.4914 7.75414C22.463 8.16595 22.3624 8.66555 22.253 9.2085L22.253 9.20852L22.2414 9.26643C21.8387 11.2668 21.4324 13.2217 20.4595 14.6417C19.9504 15.3847 19.2842 15.9911 18.3981 16.4023C17.5234 16.8083 16.4865 17 15.2632 17L8.88 17H8.46857C7.86982 17 7.31751 17.3988 7.09895 18L17.5 18C17.516 18 17.532 18.0004 17.5478 18.0011C18.7684 18.0266 19.75 19.024 19.75 20.2506C19.75 21.4933 18.7426 22.5006 17.5 22.5006C16.2574 22.5006 15.25 21.4933 15.25 20.2506C15.25 20.1659 15.2547 20.0823 15.2638 20H12.7362C12.7453 20.0823 12.75 20.1659 12.75 20.2506C12.75 21.4933 11.7426 22.5006 10.5 22.5006C9.25736 22.5006 8.25 21.4933 8.25 20.2506C8.25 20.1659 8.25468 20.0823 8.2638 20H6.41143C5.59384 20 5 19.3215 5 18.5714C5 17.2195 5.74057 16.0121 6.85392 15.4081L5.04829 6.80789C5.02706 6.74219 5.01243 6.67352 5.0052 6.60265L4.40464 3.74218C4.28811 3.30517 3.89205 3 3.43845 3L2.5 3C1.94772 3 1.5 2.55228 1.5 2ZM10.5 19.5006C10.0858 19.5006 9.75 19.8364 9.75 20.2506C9.75 20.6648 10.0858 21.0006 10.5 21.0006C10.9142 21.0006 11.25 20.6648 11.25 20.2506C11.25 19.8364 10.9142 19.5006 10.5 19.5006ZM16.75 20.2506C16.75 19.8364 17.0858 19.5006 17.5 19.5006C17.9142 19.5006 18.25 19.8364 18.25 20.2506C18.25 20.6648 17.9142 21.0006 17.5 21.0006C17.0858 21.0006 16.75 20.6648 16.75 20.2506Z" fill="#141B34"/>
<path d="M10.6305 1.7425C11.9798 0.937818 13.2268 1.23948 13.9996 1.7891C14.7725 1.23948 16.0195 0.937818 17.3688 1.7425C18.3751 2.34264 18.8968 3.56682 18.7128 4.90063C18.5274 6.24451 17.645 7.68686 15.9019 8.94122L15.8279 8.99459C15.2739 9.3943 14.7809 9.75004 13.9996 9.75004C13.2183 9.75004 12.7253 9.3943 12.1714 8.99459L12.0974 8.94122C10.3543 7.68686 9.47188 6.24451 9.28649 4.90063C9.10249 3.56682 9.62413 2.34264 10.6305 1.7425Z" fill="#141B34"/>
</svg>
