<svg width="24" height="25" viewBox="0 0 24 25" fill="none" xmlns="http://www.w3.org/2000/svg">
<path opacity="0.4" d="M21.9392 6.70417C21.6333 6.28323 21.2009 6.12453 20.7861 6.05867C20.4157 5.99986 19.9521 5.99993 19.4483 6.00001L5.08203 6.00001L7.39151 17H15.2636C16.4615 17 17.4602 16.8122 18.2933 16.4256C19.1348 16.035 19.7674 15.46 20.2536 14.7504C21.1921 13.3807 21.5912 11.4813 21.9967 9.4671L22.0061 9.42024C22.1174 8.86746 22.2152 8.38213 22.2424 7.98698C22.2712 7.56751 22.2336 7.10935 21.9392 6.70417Z" fill="#141B34"/>
<path fill-rule="evenodd" clip-rule="evenodd" d="M1.5 2.25C1.5 1.69771 1.94772 1.25 2.5 1.25L3.43845 1.25C4.81505 1.25 6.015 2.18689 6.34887 3.52239L6.35349 3.54084L8.77005 15.0101H8.76957L9.10814 16.617C9.13574 16.7485 9.13615 16.8793 9.11318 17.0037C9.11318 17.0037 8.6812 17.0101 8.4681 17.0101C8.14112 17.0101 7.78482 17.1777 7.48434 17.5311C7.30806 17.7383 7.17259 17.9874 7.09019 18.25L10.3895 18.25C10.4264 18.2482 10.4636 18.2473 10.501 18.2473C10.5383 18.2473 10.5755 18.2482 10.6124 18.25H17.3895C17.4264 18.2482 17.4636 18.2473 17.501 18.2473C18.7436 18.2473 19.751 19.2547 19.751 20.4973C19.751 21.7399 18.7436 22.7473 17.501 22.7473C16.2583 22.7473 15.251 21.7399 15.251 20.4973C15.251 20.4137 15.2555 20.3312 15.2644 20.25H12.7375C12.7464 20.3312 12.751 20.4137 12.751 20.4973C12.751 21.7399 11.7436 22.7473 10.501 22.7473C9.25834 22.7473 8.25098 21.7399 8.25098 20.4973C8.25098 20.4137 8.25553 20.3312 8.26441 20.25H6.41143C5.59384 20.25 5 19.5715 5 18.8214C5 17.8608 5.36948 16.9313 5.96124 16.2354C6.20451 15.9493 6.49576 15.6918 6.82623 15.4875L6.82665 15.4872L4.40464 3.99218C4.28811 3.55517 3.89205 3.25 3.43845 3.25L2.5 3.25C1.94772 3.25 1.5 2.80229 1.5 2.25ZM6.83201 15.4839C7.0503 15.3496 7.28562 15.2384 7.53547 15.1576C7.28561 15.2384 7.05029 15.3495 6.83201 15.4839ZM10.501 19.7473C10.0868 19.7473 9.75098 20.0831 9.75098 20.4973C9.75098 20.9115 10.0868 21.2473 10.501 21.2473C10.9152 21.2473 11.251 20.9115 11.251 20.4973C11.251 20.0831 10.9152 19.7473 10.501 19.7473ZM16.751 20.4973C16.751 20.0831 17.0868 19.7473 17.501 19.7473C17.9152 19.7473 18.251 20.0831 18.251 20.4973C18.251 20.9115 17.9152 21.2473 17.501 21.2473C17.0868 21.2473 16.751 20.9115 16.751 20.4973Z" fill="#141B34"/>
</svg>
