<svg width="24" height="24" viewBox="0 0 24 24" fill="none" xmlns="http://www.w3.org/2000/svg">
<path opacity="0.4" fill-rule="evenodd" clip-rule="evenodd" d="M11.9893 1.125C9.2117 1.12781 6.74602 2.46393 5.19855 4.52359C4.86681 4.96514 4.95582 5.59202 5.39737 5.92376C5.83892 6.25551 6.4658 6.16649 6.79754 5.72494C6.86282 5.63805 6.93022 5.55286 6.99965 5.46944C6.99777 5.521 6.99683 5.57286 6.99683 5.625C6.99683 8.23153 9.36501 10.125 11.9968 10.125C14.6286 10.125 16.9968 8.23153 16.9968 5.625C16.9968 5.57153 16.9958 5.51837 16.9939 5.46551C17.9335 6.59268 18.4988 8.04282 18.4988 9.625V12.125C18.4988 12.6773 18.9465 13.125 19.4988 13.125C20.0511 13.125 20.4988 12.6773 20.4988 12.125V9.625C20.4988 4.93058 16.6932 1.125 11.9988 1.125L11.9893 1.125ZM5.73162 7.89105C5.87856 7.35867 5.56609 6.80798 5.03372 6.66104C4.50134 6.5141 3.95064 6.82657 3.8037 7.35895C3.60428 8.08151 3.49805 8.84165 3.49805 9.625L3.49805 12.125C3.49805 12.6773 3.94576 13.125 4.49805 13.125C5.05033 13.125 5.49805 12.6773 5.49805 12.125L5.49805 9.625C5.49805 9.02314 5.57958 8.44193 5.73162 7.89105ZM14.9968 5.625C14.9968 4.36554 13.7833 3.125 11.9968 3.125C10.2104 3.125 8.99683 4.36554 8.99683 5.625C8.99683 6.88446 10.2104 8.125 11.9968 8.125C13.7833 8.125 14.9968 6.88446 14.9968 5.625Z" fill="#141B34"/>
<path d="M6.49865 11.6899C6.68848 11.7833 6.9397 11.9476 7.0905 12.2351L7.09244 12.2388C7.34571 12.7283 7.19626 13.2481 7.10624 13.5064C7.05209 13.6618 6.9875 13.807 6.93423 13.9223C6.79528 14.2542 6.65238 14.6146 6.65238 14.6146C6.64624 14.6598 6.64714 14.7202 6.69106 15.0874C6.74723 15.557 6.8145 16.0429 6.88303 16.5379L6.88304 16.538C7.02885 17.5912 7.18037 18.6857 7.24285 19.7521C7.34959 21.574 6.04325 22.875 4.49899 22.875C2.95474 22.875 1.64839 21.574 1.75514 19.7521C1.81762 18.6857 1.96914 17.5912 2.11494 16.538C2.18348 16.043 2.25075 15.557 2.30692 15.0874C2.35084 14.7202 2.35175 14.6598 2.34561 14.6146C2.34561 14.6146 2.2027 14.2542 2.06375 13.9223C2.01049 13.807 1.94589 13.6618 1.89174 13.5064C1.80173 13.2481 1.65228 12.7283 1.90556 12.2388L1.90748 12.2351C2.06175 11.941 2.33711 11.7935 2.4852 11.7248C2.66569 11.641 2.87098 11.5799 3.07184 11.5342C3.47762 11.4418 3.96823 11.3891 4.44696 11.3775C4.92393 11.3659 5.42931 11.394 5.85987 11.4825C6.07401 11.5265 6.29781 11.591 6.49865 11.6899Z" fill="#141B34"/>
<path d="M21.5006 11.6899C21.6904 11.7833 21.9416 11.9476 22.0924 12.2351L22.0944 12.2388C22.3477 12.7283 22.1982 13.2481 22.1082 13.5064C22.054 13.6618 21.9894 13.807 21.9362 13.9223C21.7972 14.2542 21.6543 14.6146 21.6543 14.6146C21.6482 14.6598 21.6491 14.7202 21.693 15.0874C21.7492 15.557 21.8165 16.0429 21.885 16.5379L21.885 16.538C22.0308 17.5912 22.1823 18.6857 22.2448 19.7521C22.3515 21.574 21.0452 22.875 19.5009 22.875C17.9567 22.875 16.6503 21.574 16.7571 19.7521C16.8196 18.6857 16.9711 17.5912 17.1169 16.538C17.1854 16.043 17.2527 15.557 17.3089 15.0874C17.3528 14.7202 17.3537 14.6598 17.3476 14.6146C17.3476 14.6146 17.2047 14.2542 17.0657 13.9223C17.0124 13.807 16.9478 13.6618 16.8937 13.5064C16.8037 13.2481 16.6542 12.7283 16.9075 12.2388L16.9094 12.2351C17.0637 11.941 17.3391 11.7935 17.4872 11.7248C17.6676 11.641 17.8729 11.5799 18.0738 11.5342C18.4796 11.4418 18.9702 11.3891 19.4489 11.3775C19.9259 11.3659 20.4313 11.394 20.8618 11.4825C21.076 11.5265 21.2998 11.591 21.5006 11.6899Z" fill="#141B34"/>
</svg>
