<svg width="24" height="24" viewBox="0 0 24 24" fill="none" xmlns="http://www.w3.org/2000/svg">
<path fill-rule="evenodd" clip-rule="evenodd" d="M6.12547 6C6.07261 6 6.0323 6.04674 6.03921 6.09915L7.62383 18.132C7.73665 18.9887 7.80985 19.5266 7.91921 19.9186C8.01799 20.2727 8.11539 20.3871 8.20803 20.4607C8.31178 20.5431 8.66148 20.6982 9.33067 20.821C9.95092 20.9348 10.7082 20.9973 11.4822 20.9999C12.2564 21.0026 13.0159 20.9452 13.6412 20.8329C14.3123 20.7124 14.6737 20.5546 14.7919 20.4607C14.8845 20.3871 14.9819 20.2727 15.0807 19.9186C15.19 19.5266 15.2633 18.9887 15.3761 18.132L16.9607 6.09915C16.9676 6.04674 16.9273 6 16.8744 6H6.12547ZM5.31544 4.06305C5.57368 4.01139 5.85515 4 6.12547 4H16.8744C17.1447 4 17.4262 4.01139 17.6845 4.06305C17.9448 4.11511 18.275 4.22589 18.5492 4.49755C18.8366 4.78219 18.9468 5.1272 18.9832 5.41995C19.0172 5.69389 18.994 5.97744 18.9607 6.23042L17.3504 18.458C17.2488 19.2302 17.1592 19.911 17.0071 20.4561C16.8402 21.0542 16.5698 21.6026 16.0359 22.0267C15.5054 22.4482 14.7191 22.6713 13.9947 22.8014C13.2246 22.9398 12.3408 23.0029 11.4754 22.9999C10.6097 22.9969 9.7308 22.9278 8.96971 22.7881C8.25755 22.6575 7.4807 22.4372 6.96398 22.0267C6.43005 21.6026 6.15965 21.0542 5.99277 20.4561C5.84072 19.911 5.75112 19.2302 5.6495 18.4581L4.03923 6.23042C4.00591 5.97744 3.98267 5.69389 4.01673 5.41995C4.05312 5.1272 4.16332 4.78219 4.45066 4.49755C4.72489 4.22589 5.05515 4.11511 5.31544 4.06305Z" fill="#141B34"/>
<path opacity="0.4" d="M8.09035 8.25C7.31205 8.25 6.62823 8.55616 6.11863 8.88935C5.60851 9.22288 5.21253 9.62259 4.99489 9.90837L4.80762 10.1543L5.89511 18.4122C5.99828 19.1958 6.08587 19.8612 6.23308 20.3889C6.39144 20.9565 6.64022 21.4506 7.11899 21.831C7.58408 22.2005 8.30754 22.4125 9.01433 22.5422C9.75782 22.6787 10.6215 22.747 11.4757 22.7499C12.3298 22.7528 13.198 22.6904 13.95 22.5554C14.6678 22.4264 15.4009 22.2115 15.8799 21.831C16.3587 21.4506 16.6074 20.9565 16.7658 20.3889C16.913 19.8612 17.0006 19.1958 17.1038 18.4122L18.2575 9.6515L17.9362 9.38706C17.6765 9.17341 16.4656 8.25 14.7494 8.25C13.7956 8.25 12.872 8.53979 12.1259 8.78849C12.0446 8.81559 11.9659 8.84206 11.8894 8.86778C11.5984 8.96566 11.3397 9.05265 11.0941 9.12191C10.7834 9.20957 10.5551 9.25 10.3858 9.25C10.3069 9.25 10.265 9.24099 10.2469 9.23584C10.2314 9.23141 10.2244 9.22736 10.2175 9.22267C10.1863 9.20155 10.171 9.18476 10.1118 9.11975C10.0837 9.08885 10.0457 9.047 9.99133 8.98871C9.84466 8.8313 9.63181 8.62566 9.29577 8.47323C8.96663 8.32393 8.57474 8.25 8.09035 8.25Z" fill="#141B34"/>
<path fill-rule="evenodd" clip-rule="evenodd" d="M12.7891 8.57764L12.9468 2.89787L12.9477 2.8824C13.0099 1.82528 13.8853 0.999844 14.9443 0.999844L19.0014 0.999844C19.5536 0.999844 20.0014 1.44756 20.0014 1.99984C20.0014 2.55213 19.5536 2.99984 19.0014 2.99984L15.1393 2.99984C15.031 2.99984 14.9424 3.08604 14.9393 3.19429L14.7989 8.2501C14.7825 8.24993 14.766 8.24984 14.7494 8.24984C14.0619 8.24984 13.39 8.40042 12.7891 8.57764Z" fill="#141B34"/>
<path fill-rule="evenodd" clip-rule="evenodd" d="M9 16C9 15.4477 9.44772 15 10 15H10.0089C10.5612 15 11.0089 15.4477 11.0089 16C11.0089 16.5523 10.5612 17 10.0089 17H10C9.44772 17 9 16.5523 9 16Z" fill="#141B34"/>
</svg>
