<svg width="25" height="24" viewBox="0 0 25 24" fill="none" xmlns="http://www.w3.org/2000/svg">
<path opacity="0.4" d="M12.2157 2.68882C10.8821 2.24976 9.4636 2.24985 6.98928 2.25001L2.11328 2.25001C1.69907 2.25001 1.36328 2.5858 1.36328 3.00001V15C1.36328 15.4142 1.69907 15.75 2.11328 15.75H20.0785C20.1104 15.75 20.1351 15.75 20.1573 15.7497C21.6416 15.7259 22.8392 14.5283 22.8629 13.044C22.8633 13.0219 22.8633 12.9973 22.8633 12.9654V12.9554C22.8633 12.909 22.8633 12.8806 22.863 12.8531C22.846 11.0668 21.9998 9.38992 20.5729 8.31511C20.551 8.29858 20.5281 8.28168 20.4907 8.25409L16.6807 5.44057C14.6904 3.97058 13.5494 3.12788 12.2157 2.68882Z" fill="#141B34"/>
<path d="M13.1387 5.14693C12.9504 4.98729 12.6909 4.9549 12.4719 5.0637C12.2528 5.17251 12.1133 5.40309 12.1133 5.65626V6.96876C12.1133 9.78669 14.4359 12 17.2142 12H19.9844C20.2506 12 20.4879 11.8251 20.577 11.5633C20.6661 11.3015 20.5875 11.0096 20.3809 10.8344L13.1387 5.14693Z" fill="#141B34"/>
<path d="M1.36328 12.75H7.529C7.72521 12.75 7.92998 12.7476 8.12036 12.6755C8.4287 12.5588 8.67212 12.3154 8.78882 12.0071C8.85921 11.8211 8.86334 11.6255 8.86328 11.4295C8.86308 10.7835 8.76672 10.1369 8.40088 9.58855C8.25698 9.37286 8.09886 9.15911 7.92988 8.95662C7.09533 7.95656 5.88673 7.34308 4.58687 7.25974C4.43474 7.24998 4.27727 7.24999 4.03219 7.25L1.36328 7.25V8.75H4.00612C4.28589 8.75 4.39265 8.75036 4.49088 8.75666C5.38026 8.81369 6.2072 9.23344 6.77821 9.91769C7.07631 10.2749 7.2828 10.6029 7.34346 11.044C7.35606 11.1356 7.36236 11.1814 7.33247 11.2157C7.30258 11.25 7.25304 11.25 7.15398 11.25H1.36328V12.75Z" fill="#141B34"/>
<path fill-rule="evenodd" clip-rule="evenodd" d="M1.11328 19C1.11328 18.4477 1.561 18 2.11328 18H22.1133C22.6656 18 23.1133 18.4477 23.1133 19C23.1133 19.5523 22.6656 20 22.1133 20H2.11328C1.561 20 1.11328 19.5523 1.11328 19Z" fill="#141B34"/>
<path opacity="0.4" fill-rule="evenodd" clip-rule="evenodd" d="M6.11328 18C6.66557 18 7.11328 18.4477 7.11328 19V21C7.11328 21.5523 6.66557 22 6.11328 22C5.561 22 5.11328 21.5523 5.11328 21V19C5.11328 18.4477 5.561 18 6.11328 18ZM12.1133 18C12.6656 18 13.1133 18.4477 13.1133 19V21C13.1133 21.5523 12.6656 22 12.1133 22C11.561 22 11.1133 21.5523 11.1133 21V19C11.1133 18.4477 11.561 18 12.1133 18ZM18.1133 18C18.6656 18 19.1133 18.4477 19.1133 19V21C19.1133 21.5523 18.6656 22 18.1133 22C17.561 22 17.1133 21.5523 17.1133 21V19C17.1133 18.4477 17.561 18 18.1133 18Z" fill="#141B34"/>
</svg>
