<svg width="24" height="24" viewBox="0 0 24 24" fill="none" xmlns="http://www.w3.org/2000/svg">
<path opacity="0.4" d="M12.0572 1.75C14.2479 1.74999 15.9686 1.74998 17.312 1.93059C18.6886 2.11568 19.7809 2.50272 20.6391 3.36091C21.4973 4.21911 21.8843 5.31137 22.0694 6.68802C22.25 8.03144 22.25 9.7521 22.25 11.9428V11.9428V12.0572V12.0572C22.25 14.2479 22.25 15.9686 22.0694 17.312C21.8843 18.6886 21.4973 19.7809 20.6391 20.6391C19.7809 21.4973 18.6886 21.8843 17.312 22.0694C15.9686 22.25 14.2479 22.25 12.0572 22.25H12.0572H11.9428H11.9428C9.7521 22.25 8.03144 22.25 6.68802 22.0694C5.31137 21.8843 4.21911 21.4973 3.36091 20.6391C2.50272 19.7809 2.11568 18.6886 1.93059 17.312C1.74998 15.9686 1.74999 14.2479 1.75 12.0572V11.9428C1.74999 9.75212 1.74998 8.03144 1.93059 6.68802C2.11568 5.31137 2.50272 4.21911 3.36091 3.36091C4.21911 2.50272 5.31137 2.11568 6.68802 1.93059C8.03144 1.74998 9.75212 1.74999 11.9428 1.75H12.0572Z" fill="#141B34"/>
<path d="M12.6652 7.71803C12.687 7.30438 13.0399 6.98666 13.4535 7.00838C13.5363 7.01273 13.6962 7.00604 13.9553 6.99206L14.012 6.98899C14.2389 6.97668 14.5094 6.96201 14.7776 6.9577C15.0648 6.95309 15.3816 6.95949 15.6671 7.00117C15.9086 7.03642 16.311 7.11864 16.5962 7.4038C16.8813 7.68896 16.9636 8.09142 16.9988 8.33292C17.0405 8.61841 17.0469 8.93514 17.0423 9.2224C17.038 9.49062 17.0233 9.76114 17.011 9.98801L17.0079 10.0446C16.9939 10.3038 16.9873 10.4637 16.9916 10.5465C17.0133 10.9601 16.6956 11.313 16.282 11.3347C16.0612 11.3463 15.8577 11.2612 15.7126 11.1164L15.0052 10.409L10.409 15.0052L11.1164 15.7126C11.2612 15.8577 11.3463 16.0612 11.3347 16.282C11.313 16.6956 10.9601 17.0133 10.5465 16.9916C10.4637 16.9873 10.3038 16.9939 10.0446 17.0079L9.98799 17.011C9.76112 17.0233 9.49061 17.038 9.2224 17.0423C8.93514 17.0469 8.61841 17.0405 8.33292 16.9988C8.09142 16.9636 7.68896 16.8813 7.4038 16.5962C7.11864 16.311 7.03642 15.9086 7.00117 15.6671C6.95949 15.3816 6.95309 15.0648 6.9577 14.7776C6.96201 14.5094 6.97668 14.2389 6.98899 14.012L6.99206 13.9553C7.00604 13.6962 7.01273 13.5363 7.00838 13.4535C6.98666 13.0399 7.30438 12.687 7.71803 12.6652C7.93898 12.6536 8.1426 12.7389 8.28768 12.8839L8.99478 13.591L13.591 8.99478L12.8839 8.28768C12.7389 8.1426 12.6536 7.93898 12.6652 7.71803Z" fill="#141B34"/>
</svg>
