<svg width="24" height="24" viewBox="0 0 24 24" fill="none" xmlns="http://www.w3.org/2000/svg">
<path opacity="0.4" d="M7.47202 5.55653C7.47202 3.15947 9.51859 1.25 11.9998 1.25C14.481 1.25 16.5276 3.15947 16.5276 5.55653C16.5276 6.69294 16.0616 7.55475 15.5934 8.42076C15.0725 9.39338 14.8684 10.5887 15.1245 11.3442C15.3722 12.0747 15.9589 12.6695 16.9659 12.9098C16.9659 12.9098 17.7247 13.0872 18.0696 13.2461C20.2792 14.2643 21.2331 15.8405 21.2453 17.4656C21.3126 18.3639 20.6015 19.1776 19.6379 19.1776C17.6869 19.1776 15.9483 19.1971 14.2737 19.2158H14.2736C11.0955 19.2514 8.14773 19.2843 4.41598 19.1769C3.35888 19.1465 2.63441 18.212 2.76525 17.2539C2.84457 15.8568 3.92675 14.1718 6.04101 13.2583C6.32675 13.1348 6.92879 12.9871 6.92879 12.9871C7.97925 12.7263 8.59744 12.1146 8.86162 11.376C9.13327 10.6164 8.93923 9.41572 8.40613 8.41956C7.93817 7.55337 7.47202 6.69055 7.47202 5.55653Z" fill="#141B34"/>
<path d="M4.00586 19.1172C4.01881 19.6004 4.04871 20.0421 4.12305 20.4323C4.21883 20.9351 4.39909 21.4144 4.76178 21.8256C5.22937 22.3558 5.82069 22.5714 6.43671 22.6653C6.99293 22.7501 7.68147 22.7501 8.45258 22.75H15.5454C16.3165 22.7501 17.0051 22.7501 17.5613 22.6653C18.1773 22.5714 18.7686 22.3558 19.2362 21.8256C19.5989 21.4144 19.7792 20.9351 19.875 20.4323C19.9482 20.0482 19.9783 19.614 19.9915 19.1396C19.8781 19.1644 19.7596 19.1776 19.6369 19.1776C19.071 19.1776 18.523 19.1793 17.9891 19.182C17.9761 19.5609 17.9518 19.8401 17.9103 20.058C17.8576 20.3346 17.7894 20.4425 17.7362 20.5028C17.6872 20.5583 17.6045 20.6356 17.2599 20.6882C16.8723 20.7473 16.3386 20.75 15.4752 20.75H8.5228C7.6594 20.75 7.1257 20.7473 6.73813 20.6882C6.39353 20.6356 6.3108 20.5583 6.26179 20.5028C6.20862 20.4425 6.1404 20.3346 6.08771 20.058C6.04743 19.8466 6.02337 19.5775 6.01006 19.2155C5.49311 19.2054 4.96249 19.1927 4.41499 19.1769C4.2721 19.1728 4.1353 19.1522 4.00586 19.1172Z" fill="#141B34"/>
</svg>
