<svg width="24" height="24" viewBox="0 0 24 24" fill="none" xmlns="http://www.w3.org/2000/svg">
<path opacity="0.4" d="M12.0572 1.75C14.2479 1.74999 15.9686 1.74998 17.312 1.93059C18.6886 2.11568 19.7809 2.50272 20.6391 3.36091C21.4973 4.21911 21.8843 5.31137 22.0694 6.68802C22.25 8.03144 22.25 9.7521 22.25 11.9428V11.9428V12.0572V12.0572C22.25 14.2479 22.25 15.9686 22.0694 17.312C21.8843 18.6886 21.4973 19.7809 20.6391 20.6391C19.7809 21.4973 18.6886 21.8843 17.312 22.0694C15.9686 22.25 14.2479 22.25 12.0572 22.25H12.0572H11.9428H11.9428C9.7521 22.25 8.03144 22.25 6.68802 22.0694C5.31137 21.8843 4.21911 21.4973 3.36091 20.6391C2.50272 19.7809 2.11568 18.6886 1.93059 17.312C1.74998 15.9686 1.74999 14.2479 1.75 12.0572V11.9428C1.74999 9.75212 1.74998 8.03144 1.93059 6.68802C2.11568 5.31137 2.50272 4.21911 3.36091 3.36091C4.21911 2.50272 5.31137 2.11568 6.68802 1.93059C8.03144 1.74998 9.75212 1.74999 11.9428 1.75H12.0572Z" fill="#141B34"/>
<path d="M13.7322 9.0011L10.8224 9.00896L12.545 10.5184L12.545 10.5184C12.7165 10.6685 12.9157 10.8429 13.0637 11.0148C13.2406 11.2203 13.4567 11.547 13.4567 12.0005C13.4567 12.454 13.2406 12.7807 13.0637 12.9862C12.9157 13.1581 12.7165 13.3325 12.545 13.4826L10.8224 14.992L13.7322 14.9999C13.8487 14.998 13.928 14.9912 13.9851 14.9809C13.9949 14.8847 13.9992 14.7418 13.9999 14.4959C14.0017 13.9436 14.4509 13.4973 15.0032 13.4991C15.5554 13.5009 16.0017 13.95 15.9999 14.5023C15.9991 14.7604 15.9958 15.0222 15.9666 15.2556C15.9357 15.5032 15.8694 15.7822 15.7022 16.0541C15.3452 16.635 14.8043 16.8629 14.3535 16.9467C14.0247 17.0077 13.6577 17.0025 13.4342 16.9993L10.734 16.9981H10.734C10.2372 16.9982 9.76205 16.9983 9.40001 16.9477C9.07906 16.9028 8.34892 16.7569 8.0794 16.0121C7.81409 15.2789 8.26449 14.6985 8.47693 14.454C8.718 14.1765 9.07736 13.8618 9.45564 13.5304L9.45565 13.5304L11.2017 12.0005L9.45564 10.4706C9.07737 10.1392 8.718 9.82445 8.47693 9.54697C8.26449 9.30245 7.81409 8.7221 8.0794 7.98893C8.34892 7.24412 9.07906 7.09817 9.40001 7.05329C9.76206 7.00266 10.2372 7.00275 10.734 7.00285L13.4342 7.00172C13.6577 6.99852 14.0247 6.99325 14.3535 7.05432C14.8043 7.13805 15.3452 7.36602 15.7022 7.94691C15.8694 8.2188 15.9357 8.49781 15.9666 8.74537C15.9958 8.97885 15.9991 9.2406 15.9999 9.49871C16.0017 10.051 15.5554 10.5002 15.0032 10.5019C14.4509 10.5037 14.0017 10.0574 13.9999 9.50516C13.9992 9.2592 13.9949 9.11628 13.9851 9.0201C13.928 9.00979 13.8487 9.00301 13.7322 9.0011Z" fill="#141B34"/>
</svg>
