<svg width="24" height="24" viewBox="0 0 24 24" fill="none" xmlns="http://www.w3.org/2000/svg">
<path opacity="0.4" fill-rule="evenodd" clip-rule="evenodd" d="M10.9109 6.41106C10.9109 6.52288 10.8298 6.61651 10.6677 6.80378L8.08095 9.79177C7.89603 10.0054 7.80356 10.1122 7.67973 10.1212C7.5559 10.1302 7.44899 10.0378 7.23516 9.85316L6.17011 8.93338C5.15149 8.05413 4.49317 7.48588 4.07986 6.72963C3.74734 6.1212 3.58508 5.46291 3.48313 4.84955C3.43191 4.54137 3.39433 4.23352 3.3604 3.94257C3.33242 3.70065 3.28935 3.32871 3.25755 3.10607C3.22416 2.87238 3.30275 2.6366 3.46968 2.46968C3.6366 2.30275 3.87238 2.22416 4.10607 2.25755C4.32871 2.28935 4.70066 2.33242 4.94257 2.3604C5.23352 2.39433 5.54137 2.43191 5.84955 2.48313C6.46291 2.58508 7.1212 2.74734 7.72963 3.07986C8.48589 3.49317 9.05414 4.1515 9.9334 5.17012L10.6677 6.01835C10.8298 6.20561 10.9109 6.29924 10.9109 6.41106ZM13.3062 14.9588C13.3062 14.8215 13.4285 14.7159 13.673 14.5047L15.7037 12.751L15.7037 12.751C15.9175 12.5663 16.0244 12.474 16.1483 12.483C16.2721 12.492 16.3646 12.5988 16.5495 12.8124L17.1334 13.4868L17.533 13.0871C18.0636 12.5565 18.6831 12.3564 19.254 12.2873C19.7747 12.2242 20.248 12.5952 20.3111 13.1159C20.3742 13.6366 20.0032 14.1099 19.4824 14.173C19.1948 14.2079 19.0207 14.2858 18.8762 14.4303L17.8247 15.4818L19.5079 17.165C20.36 16.8311 21.3661 17.0084 22.0545 17.6969C22.9818 18.6242 22.9818 20.1276 22.0545 21.0548C21.1273 21.9821 19.6239 21.9821 18.6966 21.0548C18.0081 20.3663 17.8308 19.3602 18.1647 18.5082L16.4815 16.825L15.43 17.8765C15.2856 18.0209 15.2076 18.195 15.1727 18.4827C15.1096 19.0034 14.6364 19.3744 14.1156 19.3113C13.5949 19.2483 13.2239 18.775 13.287 18.2542C13.3562 17.6834 13.5563 17.0639 14.0869 16.5333L14.4963 16.1239L13.673 15.4129C13.4285 15.2017 13.3062 15.0961 13.3062 14.9588Z" fill="#141B34"/>
<path d="M20.53 2.46968C20.697 2.6366 20.7755 2.87238 20.7422 3.10607C20.7104 3.32871 20.6673 3.70065 20.6393 3.94257C20.6054 4.23352 20.5678 4.54137 20.5166 4.84955C20.4146 5.46291 20.2524 6.1212 19.9198 6.72963C19.5065 7.48588 18.8482 8.05414 17.8296 8.93339L8.82875 16.7065C8.53134 16.9633 8.0861 16.9471 7.80822 16.6692L6.32026 15.1812C6.04213 14.9031 6.02612 14.4574 6.28357 14.16L14.0663 5.17012C14.9456 4.1515 15.5138 3.49317 16.2701 3.07986C16.8785 2.74734 17.5368 2.58508 18.1502 2.48313C18.4583 2.43191 18.7662 2.39433 19.0571 2.3604C19.299 2.33242 19.671 2.28935 19.8936 2.25755C20.1273 2.22416 20.3631 2.30275 20.53 2.46968Z" fill="#141B34"/>
<path d="M3.68893 13.1159C3.75202 12.5952 4.22531 12.2242 4.74604 12.2873C5.31692 12.3564 5.93638 12.5565 6.46697 13.0871L8.18949 14.8097L8.19062 14.8108L9.91314 16.5333C10.4437 17.0639 10.6438 17.6834 10.713 18.2542C10.7761 18.775 10.4051 19.2483 9.88438 19.3113C9.36365 19.3744 8.89036 19.0034 8.82727 18.4827C8.79241 18.195 8.71443 18.0209 8.56996 17.8765L7.51847 16.825L5.83527 18.5082C6.16917 19.3602 5.99187 20.3663 5.30339 21.0548C4.37612 21.9821 2.87272 21.9821 1.94545 21.0548C1.01818 20.1276 1.01818 18.6242 1.94545 17.6969C2.63394 17.0084 3.64003 16.8311 4.4921 17.165L6.17529 15.4818L5.1238 14.4303C4.97933 14.2858 4.80523 14.2079 4.51756 14.173C3.99683 14.1099 3.62583 13.6366 3.68893 13.1159Z" fill="#141B34"/>
</svg>
