<svg width="24" height="24" viewBox="0 0 24 24" fill="none" xmlns="http://www.w3.org/2000/svg">
<path opacity="0.4" d="M7.25717 1.89811C7.22491 1.6226 7.20878 1.48485 7.10943 1.40771C7.01009 1.33057 6.878 1.34835 6.61383 1.3839C6.59393 1.38658 6.57414 1.38931 6.55446 1.3921C5.51094 1.53978 4.65468 1.85359 3.98138 2.56233C3.31322 3.26565 3.02208 4.15098 2.88419 5.23063C2.74997 6.28142 2.74999 7.62335 2.75 9.31467V14.6849C2.74999 16.3763 2.74997 17.7182 2.88419 18.769C3.02208 19.8486 3.31322 20.734 3.98138 21.4373C4.65468 22.146 5.51094 22.4598 6.55446 22.6075C7.5601 22.7499 8.84128 22.7498 10.4417 22.7498H13.5583C15.1587 22.7498 16.4399 22.7499 17.4455 22.6075C18.4891 22.4598 19.3453 22.146 20.0186 21.4373C20.6868 20.734 20.9779 19.8486 21.1158 18.769C21.25 17.7182 21.25 16.3763 21.25 14.6849V9.31469C21.25 7.62336 21.25 6.28142 21.1158 5.23063C20.9779 4.15098 20.6868 3.26565 20.0186 2.56233C19.3453 1.85359 18.4891 1.53978 17.4455 1.3921C17.4272 1.38951 17.4088 1.38696 17.3903 1.38446C17.1276 1.34898 16.9962 1.33124 16.897 1.40772C16.7978 1.48421 16.7809 1.62114 16.7471 1.89498L16.6619 2.58493L16.6583 2.60666C16.566 3.16063 16.4737 3.71446 16.3594 4.09834C16.2347 4.5174 16.0464 4.90912 15.6834 5.21661C15.3204 5.52409 14.9031 5.64543 14.4692 5.6996C14.0665 5.74987 13.5716 5.74985 13.0026 5.74981H10.9969C10.4279 5.74985 9.93298 5.74987 9.5303 5.6996C9.09643 5.64543 8.67908 5.52409 8.31611 5.21661C7.95313 4.90912 7.76483 4.5174 7.64008 4.09834C7.52624 3.71599 7.43374 3.16068 7.3418 2.60876L7.33705 2.58024L7.25717 1.89811Z" fill="#141B34"/>
<path fill-rule="evenodd" clip-rule="evenodd" d="M7.25 11C7.25 10.5858 7.58579 10.25 8 10.25H16C16.4142 10.25 16.75 10.5858 16.75 11C16.75 11.4142 16.4142 11.75 16 11.75H8C7.58579 11.75 7.25 11.4142 7.25 11ZM7.25 16C7.25 15.5858 7.58579 15.25 8 15.25H12C12.4142 15.25 12.75 15.5858 12.75 16C12.75 16.4142 12.4142 16.75 12 16.75H8C7.58579 16.75 7.25 16.4142 7.25 16Z" fill="#141B34"/>
<path d="M15.2322 1.92129C15.2705 1.61164 15.2896 1.45681 15.2007 1.35564C15.1117 1.25448 14.9567 1.25362 14.6467 1.2519C14.3015 1.24999 13.9388 1.25 13.5581 1.25H10.4415C10.0617 1.25 9.69996 1.24999 9.35558 1.25189C9.04725 1.25359 8.89309 1.25444 8.8042 1.3549C8.71532 1.45536 8.73336 1.60943 8.76944 1.91759L8.82451 2.38786C8.92576 2.99518 8.99242 3.38484 9.07748 3.67052C9.15739 3.93895 9.22879 4.02428 9.28543 4.07226C9.34207 4.12025 9.43798 4.17665 9.71589 4.21134C10.0146 4.24864 10.4148 4.25 11.0409 4.25H12.9581C13.5843 4.25 13.9845 4.24864 14.2832 4.21134C14.5611 4.17665 14.657 4.12025 14.7136 4.07226C14.7703 4.02428 14.8417 3.93895 14.9216 3.67053C15.0067 3.38447 15.0734 2.99418 15.1749 2.38553L15.2322 1.92129Z" fill="#141B34"/>
</svg>
