<svg width="24" height="24" viewBox="0 0 24 24" fill="none" xmlns="http://www.w3.org/2000/svg">
<path opacity="0.4" d="M14.7041 19.6347L14.7041 19.6347L12.0442 16.6105C10.7274 15.1134 10.6395 14.4122 10.6581 14.3136L11.6564 13.5096L15.7027 10.3447C16.029 10.0895 16.0866 9.6181 15.8314 9.29184C15.5762 8.96558 15.1048 8.90797 14.7785 9.16316L10.728 12.3313L9.50989 13.3256C9.22553 13.6308 9.04418 14.1527 9.24197 14.8948C9.42654 15.5874 9.94427 16.5029 11.0466 17.7596L10.6395 18.5625C10.3765 18.928 10.1324 19.2673 9.90771 19.5C9.68445 19.7311 9.27877 20.0708 8.71374 19.9584C8.15614 19.8474 7.90592 19.3865 7.78203 19.0906C7.65621 18.7901 7.54964 18.3827 7.43402 17.9406L6.93252 16.0241C6.65396 14.9597 6.55777 14.6537 6.37651 14.4285C6.35363 14.4 6.3298 14.3726 6.30509 14.3461C6.11372 14.1412 5.84345 14.0151 4.8535 13.6183L4.79927 13.5966C3.82368 13.2055 3.02006 12.8834 2.45798 12.567C1.91344 12.2604 1.3254 11.8146 1.25775 11.0626C1.24724 10.9457 1.24742 10.828 1.25829 10.7112C1.32825 9.95926 1.91775 9.51541 2.46325 9.21061C3.02632 8.896 3.83094 8.57657 4.80773 8.18879L16.7918 3.43076C18.0177 2.94403 19.02 2.54604 19.8076 2.36459C20.6106 2.17959 21.4401 2.16001 22.0901 2.76125C22.7273 3.35063 22.8036 4.18092 22.7242 5.01772C22.6454 5.84795 22.3864 6.92766 22.0669 8.25954L19.6472 18.3466L19.6472 18.3466C19.4436 19.1956 19.2717 19.9123 19.0655 20.4324C18.8573 20.9577 18.5233 21.5219 17.8484 21.7003C17.1654 21.881 16.6009 21.5442 16.1719 21.1812C15.7505 20.8245 15.2699 20.2781 14.7041 19.6347Z" fill="#141B34"/>
<path d="M14.7042 19.6349L14.7042 19.6349L12.0443 16.6107C10.7275 15.1136 10.6396 14.4124 10.6582 14.3139L11.6565 13.5098L15.7028 10.3449C16.0291 10.0897 16.0867 9.61833 15.8315 9.29206L22.0903 2.76147C22.7274 3.35086 22.8037 4.18114 22.7243 5.01794C22.6455 5.84817 22.3865 6.92789 22.067 8.25976L19.6474 18.3468L19.6474 18.3468C19.4437 19.1958 19.2719 19.9125 19.0657 20.4326C18.8574 20.9579 18.5234 21.5221 17.8486 21.7006C17.1655 21.8812 16.601 21.5444 16.172 21.1814C15.7506 20.8248 15.2701 20.2783 14.7042 19.6349Z" fill="#141B34"/>
</svg>
