<svg width="24" height="24" viewBox="0 0 24 24" fill="none" xmlns="http://www.w3.org/2000/svg">
<path opacity="0.4" fill-rule="evenodd" clip-rule="evenodd" d="M2.80391 12.8946C3.34547 12.7863 3.8723 13.1375 3.98061 13.6791L4.81983 17.8752H6.6529C6.9906 17.8752 7.56122 17.8865 8.01322 18.2694C8.46521 18.6523 8.57017 19.2133 8.62569 19.5464L8.98642 21.7108C9.07722 22.2556 8.7092 22.7708 8.16443 22.8616C7.61966 22.9524 7.10443 22.5844 7.01363 22.0396L6.6529 19.8752H4.72079L3.94871 22.1914C3.77406 22.7154 3.20774 22.9985 2.6838 22.8239C2.15986 22.6492 1.8767 22.0829 2.05134 21.559L2.96737 18.8109L2.01945 14.0713C1.91113 13.5297 2.26235 13.0029 2.80391 12.8946Z" fill="#141B34"/>
<path opacity="0.4" fill-rule="evenodd" clip-rule="evenodd" d="M21.1961 12.8946C20.6545 12.7863 20.1277 13.1375 20.0194 13.6791L19.1802 17.8752H17.3471C17.0094 17.8752 16.4388 17.8865 15.9868 18.2694C15.5348 18.6523 15.4298 19.2133 15.3743 19.5464L15.0136 21.7108C14.9228 22.2556 15.2908 22.7708 15.8356 22.8616C16.3803 22.9524 16.8956 22.5844 16.9864 22.0396L17.3471 19.8752H19.2792L20.0513 22.1914C20.2259 22.7154 20.7923 22.9985 21.3162 22.8239C21.8401 22.6492 22.1233 22.0829 21.9487 21.559L21.0326 18.8109L21.9806 14.0713C22.0889 13.5297 21.7376 13.0029 21.1961 12.8946Z" fill="#141B34"/>
<path opacity="0.4" d="M10.8739 1.64159C11.1386 1.41936 11.5277 1.125 12 1.125C12.4723 1.125 12.8613 1.41936 13.1261 1.64159C13.4219 1.88997 13.7822 2.24983 14.2151 2.68236L14.2152 2.68241L14.2412 2.70841C15.7245 4.19005 17.737 5.67566 19.7176 6.60304C20.125 6.79383 20.49 7.02434 20.8072 7.34681C21.1249 7.66962 21.3643 8.05359 21.5621 8.51362C21.716 8.87173 21.8555 9.39047 21.6382 9.8759C21.3803 10.4518 20.8058 10.625 20.307 10.625H3.69293C3.19421 10.625 2.61963 10.4518 2.36178 9.8759C2.14444 9.39047 2.28398 8.87173 2.43792 8.51361C2.63566 8.05359 2.87512 7.66962 3.19273 7.34681C3.51001 7.02434 3.87493 6.79383 4.2824 6.60304C6.26299 5.67566 8.27548 4.19005 9.75874 2.70841L9.7848 2.68239C10.2178 2.24984 10.578 1.88998 10.8739 1.64159Z" fill="#141B34"/>
<path d="M10.9995 10.625H12.9995V13.875H14.9995C15.5518 13.875 15.9995 14.3227 15.9995 14.875C15.9995 15.4273 15.5518 15.875 14.9995 15.875H12.9995V20.875C13.5518 20.875 13.9995 21.3227 13.9995 21.875C13.9995 22.4273 13.5518 22.875 12.9995 22.875H10.9995C10.4472 22.875 9.99951 22.4273 9.99951 21.875C9.99951 21.3227 10.4472 20.875 10.9995 20.875V15.875H8.99951C8.44723 15.875 7.99951 15.4273 7.99951 14.875C7.99951 14.3227 8.44723 13.875 8.99951 13.875H10.9995V10.625Z" fill="#141B34"/>
</svg>
