<svg width="24" height="24" viewBox="0 0 24 24" fill="none" xmlns="http://www.w3.org/2000/svg">
<path opacity="0.4" fill-rule="evenodd" clip-rule="evenodd" d="M16.4474 3.10555C16.9414 3.35254 17.1416 3.95321 16.8946 4.44719L8.89465 20.4472C8.64766 20.9412 8.04698 21.1414 7.55301 20.8944C7.05903 20.6474 6.8588 20.0467 7.10579 19.5528L15.1058 3.55276C15.3528 3.05878 15.9535 2.85856 16.4474 3.10555Z" fill="#141B34"/>
<path fill-rule="evenodd" clip-rule="evenodd" d="M11 4C11 3.44772 11.4477 3 12 3H19C19.5523 3 20 3.44772 20 4C20 4.55228 19.5523 5 19 5H12C11.4477 5 11 4.55228 11 4Z" fill="#141B34"/>
<path fill-rule="evenodd" clip-rule="evenodd" d="M4 20C4 19.4477 4.44772 19 5 19L12 19C12.5523 19 13 19.4477 13 20C13 20.5523 12.5523 21 12 21L5 21C4.44772 21 4 20.5523 4 20Z" fill="#141B34"/>
</svg>
