<svg width="24" height="24" viewBox="0 0 24 24" fill="none" xmlns="http://www.w3.org/2000/svg">
<path d="M17.9982 13.249C18.67 13.249 19.12 13.7523 19.3627 14.244L19.3632 14.2449L20.0587 15.6475L20.0645 15.653C20.0693 15.6573 20.0749 15.662 20.0811 15.6666C20.0874 15.6713 20.0935 15.6754 20.0992 15.6788L20.1075 15.6834L21.3626 15.8937C21.9028 15.9845 22.4905 16.274 22.6893 16.8975C22.8877 17.52 22.5775 18.0964 22.1899 18.485L22.1889 18.486L21.2132 19.4698C21.2098 19.4769 21.2053 19.4878 21.2014 19.5017C21.197 19.5172 21.1949 19.5304 21.1942 19.5392L21.4735 20.7569C21.5995 21.3083 21.6116 22.0743 21.0171 22.5113C20.4194 22.9506 19.6913 22.7039 19.2061 22.4149L18.0294 21.7126C18.0283 21.701 18.0142 21.6849 17.9668 21.7132L16.7916 22.4147C16.3047 22.7059 15.5783 22.9487 14.9815 22.5096C14.3883 22.0732 14.397 21.3097 14.524 20.7563L14.8031 19.5392C14.8024 19.5304 14.8003 19.5172 14.7959 19.5017C14.792 19.4878 14.7875 19.4769 14.7841 19.4698L13.8065 18.4842C13.4213 18.0957 13.1123 17.5201 13.3091 16.8989C13.5068 16.2748 14.0941 15.9845 14.6351 15.8936L15.8859 15.6841L15.893 15.68C15.8987 15.6766 15.9049 15.6724 15.9113 15.6677C15.9176 15.663 15.9233 15.6582 15.9282 15.6537L15.9345 15.6477L16.6315 14.2421C16.8762 13.7513 17.3273 13.249 17.9982 13.249Z" fill="#141B34"/>
<g opacity="0.4">
<path d="M11 1.24902C8.1005 1.24902 5.75 3.59953 5.75 6.49902C5.75 9.39852 8.1005 11.749 11 11.749C13.8995 11.749 16.25 9.39852 16.25 6.49902C16.25 3.59953 13.8995 1.24902 11 1.24902Z" fill="#141B34"/>
<path d="M14.5313 14.3235C14.5151 14.3365 14.4902 14.3515 14.4402 14.3816L14.4279 14.3889C14.3992 14.4053 14.3725 14.4155 14.3401 14.4222L14.3231 14.4255C13.5284 14.5738 12.3108 15.08 11.8782 16.446C11.437 17.8391 12.179 18.9741 12.7406 19.5405L12.9322 19.7336C13.046 19.8483 13.1029 19.9057 13.124 19.9798C13.1452 20.054 13.1271 20.1328 13.091 20.2902L13.061 20.4209C12.9897 20.7319 12.9106 21.2531 12.9872 21.8231C13.0518 22.3037 13.0841 22.544 12.9945 22.6465C12.9048 22.749 12.7014 22.749 12.2946 22.749H6.59104C4.77274 22.749 3.36695 21.8546 2.1955 20.7386C1.51649 20.0917 1.17802 19.3636 1.26283 18.5878C1.34257 17.8582 1.78123 17.2627 2.2429 16.8109C2.98106 16.0883 4.05869 15.4804 4.7715 15.0782C4.93407 14.9865 5.07778 14.9054 5.19404 14.8362C6.49889 14.0592 7.93096 13.5681 9.39543 13.3616C10.4593 13.2115 11.5411 13.2115 12.6049 13.3616C13.0845 13.4292 13.8214 13.6271 14.366 13.7845C14.4194 13.8 14.4461 13.8077 14.4651 13.8162C14.6668 13.9063 14.7032 14.1846 14.5313 14.3235Z" fill="#141B34"/>
</g>
</svg>
