<svg width="24" height="24" viewBox="0 0 24 24" fill="none" xmlns="http://www.w3.org/2000/svg">
<g opacity="0.4">
<path d="M4.85374 15.0956C8.03693 13.2298 12.0689 13.2298 15.2521 15.0956C15.3529 15.1547 15.4785 15.2244 15.6213 15.3037C16.2539 15.6549 17.2258 16.1944 17.8912 16.8355C18.3067 17.2359 18.7163 17.7766 18.791 18.45C18.8712 19.1715 18.5488 19.8373 17.9325 20.4153C16.8824 21.4001 15.6145 22.1963 13.9722 22.1963H6.1337C4.49136 22.1963 3.22344 21.4001 2.17335 20.4153C1.55703 19.8374 1.23468 19.1715 1.31481 18.45C1.38958 17.7766 1.79914 17.2359 2.21462 16.8355C2.88001 16.1944 3.85192 15.6549 4.48456 15.3037C4.62738 15.2244 4.75293 15.1547 4.85374 15.0956Z" fill="#141B34"/>
<path d="M5.30293 7.44629C5.30293 4.82294 7.42957 2.69629 10.0529 2.69629C12.6763 2.69629 14.8029 4.82294 14.8029 7.44629C14.8029 10.0696 12.6763 12.1963 10.0529 12.1963C7.42957 12.1963 5.30293 10.0696 5.30293 7.44629Z" fill="#141B34"/>
</g>
<path fill-rule="evenodd" clip-rule="evenodd" d="M19.553 1.80371C18.3757 1.80371 17.5039 2.81874 17.5039 3.96504V4.60427C17.4665 4.62182 17.4293 4.64115 17.3924 4.66245C17.0596 4.85456 16.7947 5.14425 16.6245 5.48814C16.4989 5.74188 16.452 6.00732 16.4306 6.27918C16.4101 6.53882 16.4101 6.85566 16.4102 7.22862V7.27773C16.4101 7.6507 16.4101 7.96757 16.4306 8.22722C16.452 8.49907 16.4989 8.76452 16.6245 9.01825C16.7947 9.36214 17.0596 9.65184 17.3924 9.84394C17.6435 9.98883 17.9073 10.0426 18.1702 10.0668C18.4168 10.0894 18.7155 10.0894 19.057 10.0894H20.049C20.3905 10.0894 20.6893 10.0894 20.9358 10.0668C21.1987 10.0426 21.4626 9.98883 21.7136 9.84394C22.0465 9.65184 22.3113 9.36214 22.4816 9.01825C22.6072 8.76452 22.654 8.49907 22.6754 8.22722C22.6959 7.96756 22.6959 7.65072 22.6959 7.27774V7.22866C22.6959 6.85568 22.6959 6.53883 22.6754 6.27918C22.654 6.00732 22.6072 5.74188 22.4816 5.48814C22.3113 5.14425 22.0465 4.85456 21.7136 4.66245C21.6767 4.64115 21.6395 4.62182 21.6021 4.60427V3.96504C21.6021 2.81874 20.7303 1.80371 19.553 1.80371ZM20.3164 4.41743V3.96504C20.3164 3.43408 19.929 3.08943 19.553 3.08943C19.177 3.08943 18.7896 3.43408 18.7896 3.96504V4.41743C18.8755 4.41698 18.9647 4.41699 19.057 4.41699H20.049C20.1413 4.41699 20.2305 4.41698 20.3164 4.41743Z" fill="#141B34"/>
</svg>
