<svg width="24" height="24" viewBox="0 0 24 24" fill="none" xmlns="http://www.w3.org/2000/svg">
<path d="M3.91291 15.7476C3.69494 15.5296 3.58595 15.4207 3.44851 15.4311C3.31107 15.4416 3.22442 15.5596 3.05113 15.7956C3.04458 15.8045 3.03805 15.8134 3.03155 15.8224C2.59435 16.4237 2.11355 17.2825 2.28591 18.1789C2.42768 18.9162 2.7731 19.4336 3.32064 19.8409C3.79278 20.1921 4.42451 20.4631 5.1145 20.7591L5.18191 20.788C9.51457 22.6478 14.7315 21.8114 18.2714 18.2742C21.8114 14.7369 22.6487 9.52331 20.7873 5.19329L20.7583 5.12595C20.4621 4.4365 20.1908 3.80513 19.8393 3.33327C19.4317 2.78605 18.9139 2.44109 18.1765 2.29951C17.3895 2.1484 16.7345 2.35357 16.1101 2.77341C16.1069 2.77553 16.1053 2.77659 16.0981 2.78209C15.9669 2.88234 15.9462 3.09582 16.0557 3.21944C16.0617 3.22622 16.0667 3.23127 16.0768 3.24138L16.3052 3.46977C16.311 3.47553 16.3166 3.48138 16.3222 3.48732C19.56 6.94321 19.5591 12.5252 16.3196 15.9799C13.0968 19.4169 7.76667 19.8077 4.46136 16.2961L3.91291 15.7476Z" fill="#141B34"/>
<path opacity="0.4" d="M15.096 4.38147C14.9037 4.18909 14.8075 4.0929 14.6862 4.09085C14.5649 4.08881 14.4663 4.18099 14.2691 4.36534C13.8867 4.72278 13.5314 5.065 13.2888 5.30752C13.0922 5.50051 12.8677 5.74136 12.7174 5.98725C12.6443 6.10687 12.5517 6.28617 12.5226 6.50113C12.4892 6.74781 12.542 7.0612 12.7938 7.30581C13.2064 7.70662 13.2608 8.57698 12.7777 9.42136C12.5538 9.81279 12.2607 10.0967 11.9711 10.2357C11.7056 10.3631 11.4272 10.3812 11.1148 10.2256C10.8987 10.1179 10.6438 10.1209 10.4302 10.2336C10.2167 10.3464 10.0704 10.5551 10.0374 10.7944C9.93891 11.3531 9.17015 11.2039 8.74063 11.04C8.70161 11.0252 8.6821 11.0177 8.66576 11.0135C8.64942 11.0093 8.63423 11.0072 8.60386 11.0029C8.30381 10.9607 7.76258 10.9308 7.3557 11.3374L4.91353 13.7776C4.71338 13.9776 4.61331 14.0776 4.61328 14.2019C4.61326 14.3262 4.71329 14.4262 4.91336 14.6263L5.53028 15.2432C5.53589 15.2488 5.54141 15.2545 5.54683 15.2603C8.18224 18.0684 12.5129 17.8463 15.2255 14.9535C17.9213 12.0785 17.9248 7.40078 15.2358 4.52118L15.096 4.38147Z" fill="#141B34"/>
</svg>
