<svg width="24" height="24" viewBox="0 0 24 24" fill="none" xmlns="http://www.w3.org/2000/svg">
<path opacity="0.4" d="M21.1051 8.38787C21.2953 8.40175 21.504 8.43341 21.7141 8.52733C22.2521 8.76782 22.5302 9.18597 22.6526 9.62016C22.7516 9.97156 22.7507 10.3512 22.7501 10.6049C22.7503 11.3471 22.7504 12.0138 22.6211 12.4943C22.2524 13.8639 21.1972 14.5642 20.3526 15.1249C19.6386 15.6008 18.8873 15.875 18.0126 15.875H16C15.566 15.875 15.2944 15.8758 15.0966 15.8948C15.0358 15.896 14.8925 15.9524 14.8062 16.1678C14.6953 16.4249 14.5679 16.7915 14.38 17.3342C13.4653 19.9762 10.9554 21.875 8 21.875C4.27208 21.875 1.25 18.8529 1.25 15.125C1.25 11.3971 4.27208 8.375 8 8.375H10.9648C11.5499 8.375 12.0963 8.66743 12.4209 9.15428L12.842 9.78594C12.8791 9.84158 12.9416 9.875 13.0084 9.875H14.3469C14.438 9.875 14.5176 9.81348 14.5406 9.72525C14.5853 9.55357 14.654 9.2913 14.6654 9.25707C14.841 8.73031 15.334 8.375 15.8892 8.375L20.4882 8.375C20.7176 8.37499 20.9284 8.37497 21.1051 8.38787Z" fill="#141B34"/>
<path d="M5.25 15.125C5.25 13.6062 6.48122 12.375 8 12.375C9.51878 12.375 10.75 13.6062 10.75 15.125C10.75 16.6438 9.51878 17.875 8 17.875C6.48122 17.875 5.25 16.6438 5.25 15.125Z" fill="#141B34"/>
<path fill-rule="evenodd" clip-rule="evenodd" d="M13.5 2.125C14.0523 2.125 14.5 2.57272 14.5 3.125V5.125C14.5 5.67728 14.0523 6.125 13.5 6.125C12.9477 6.125 12.5 5.67728 12.5 5.125V3.125C12.5 2.57272 12.9477 2.125 13.5 2.125ZM8.29289 4.41789C8.68342 4.02737 9.31658 4.02737 9.70711 4.41789L10.7071 5.41789C11.0976 5.80842 11.0976 6.44158 10.7071 6.83211C10.3166 7.22263 9.68342 7.22263 9.29289 6.83211L8.29289 5.83211C7.90237 5.44158 7.90237 4.80842 8.29289 4.41789ZM17.2929 4.41789C17.6834 4.02737 18.3166 4.02737 18.7071 4.41789C19.0976 4.80842 19.0976 5.44158 18.7071 5.83211L17.7071 6.83211C17.3166 7.22263 16.6834 7.22263 16.2929 6.83211C15.9024 6.44158 15.9024 5.80842 16.2929 5.41789L17.2929 4.41789Z" fill="#141B34"/>
</svg>
