<svg width="24" height="24" viewBox="0 0 24 24" fill="none" xmlns="http://www.w3.org/2000/svg">
<path d="M3.12598 5.5C3.12598 4.25736 4.13334 3.25 5.37598 3.25C6.61862 3.25 7.62598 4.25736 7.62598 5.5C7.62598 6.74264 6.61862 7.75 5.37598 7.75C4.13334 7.75 3.12598 6.74264 3.12598 5.5Z" fill="#141B34"/>
<path opacity="0.4" d="M12.6374 3.60011C12.9688 3.15831 12.8793 2.5315 12.4375 2.2001C11.9957 1.8687 11.3689 1.9582 11.0375 2.40001L5.55715 9.70607C5.53722 9.73264 5.51863 9.76018 5.50144 9.7886C5.22836 10.2401 4.85065 11.2778 5.0444 12.4871C5.10418 12.8446 5.17246 13.2528 5.25925 13.543C5.35803 13.8732 5.5235 14.2365 5.86874 14.5276C6.15052 14.7652 6.50626 14.8453 6.68198 14.8806C6.90978 14.9262 7.16263 14.9521 7.40184 14.9682C7.87624 15.0001 8.41074 15.0001 8.80838 15.0001H8.80839H8.82338C9.37566 15.0001 9.82338 14.5523 9.82338 14.0001C9.82338 13.4478 9.37566 13.0001 8.82338 13.0001C8.40954 13.0001 7.93708 12.9996 7.53596 12.9727C7.38611 12.9626 7.26218 12.9498 7.16545 12.9352C7.1232 12.7815 7.08432 12.5591 7.01873 12.1675C6.92026 11.547 7.11281 11.0177 7.19592 10.8544L7.78669 10.0668C7.95763 10.2104 8.16574 10.3604 8.37941 10.5145L8.37943 10.5145L11.8419 13.0117V21C11.8419 21.5523 12.2896 22 12.8419 22C13.3942 22 13.8419 21.5523 13.8419 21V12.7101L15.0137 10.0441L20.6257 3.66026C20.9904 3.24547 20.9497 2.61361 20.5349 2.24896C20.1201 1.88432 19.4883 1.92497 19.1236 2.33977L14.0312 8.13257L11.5877 6.23211C11.3807 6.07112 11.1791 5.91422 10.994 5.79103L12.6374 3.60011Z" fill="#141B34"/>
</svg>
