<svg width="24" height="24" viewBox="0 0 24 24" fill="none" xmlns="http://www.w3.org/2000/svg">
<path d="M18 3.00005L22 3.00003V21H18M6 21L2 21V3H6" stroke="#141B34" stroke-width="1.5"/>
<path d="M11.0856 10.0103L11.7671 9.6971V9.6971L11.0856 10.0103ZM12.9144 13.9897L13.5959 13.6765L12.9144 13.9897ZM13.797 15.4622L14.277 14.886L14.277 14.886L13.797 15.4622ZM14.4528 15.8392L14.1899 16.5416H14.1899L14.4528 15.8392ZM9.54722 8.16082L9.28435 8.86324V8.86324L9.54722 8.16082ZM10.203 8.53778L9.72295 9.114L9.72295 9.114L10.203 8.53778ZM7 16.75C8.26446 16.75 9.31277 16.1107 10.1903 15.3013C11.0631 14.4962 11.8574 13.4368 12.5993 12.451C13.3625 11.4368 14.0733 10.4962 14.8267 9.8013C15.5755 9.11065 16.2747 8.75 17 8.75V7.25C15.7355 7.25 14.6872 7.88935 13.8097 8.6987C12.9369 9.50375 12.1426 10.5632 11.4007 11.549C10.6375 12.5632 9.92671 13.5038 9.17327 14.1987C8.42448 14.8893 7.72533 15.25 7 15.25V16.75ZM10.4041 10.3235L12.2329 14.3029L13.5959 13.6765L11.7671 9.6971L10.4041 10.3235ZM12.2329 14.3029C12.5703 15.037 12.8228 15.6268 13.3169 16.0384L14.277 14.886C14.1039 14.7418 13.9905 14.5352 13.5959 13.6765L12.2329 14.3029ZM16.4118 15.25C15.33 15.25 14.9872 15.2384 14.7157 15.1368L14.1899 16.5416C14.7778 16.7616 15.4545 16.75 16.4118 16.75V15.25ZM13.3169 16.0384C13.5748 16.2533 13.8713 16.4224 14.1899 16.5416L14.7157 15.1368C14.546 15.0733 14.3982 14.9869 14.277 14.886L13.3169 16.0384ZM7.58824 8.75C8.67003 8.75 9.01283 8.76163 9.28435 8.86324L9.81009 7.45839C9.22216 7.23837 8.54546 7.25 7.58824 7.25V8.75ZM11.7671 9.6971C11.4297 8.96298 11.1772 8.37321 10.6831 7.96156L9.72295 9.114C9.89607 9.25823 10.0095 9.46483 10.4041 10.3235L11.7671 9.6971ZM9.28435 8.86324C9.45397 8.92672 9.60184 9.01309 9.72295 9.114L10.6831 7.96156C10.4252 7.7467 10.1287 7.57761 9.81009 7.45839L9.28435 8.86324Z" fill="#141B34"/>
</svg>
