<svg width="24" height="24" viewBox="0 0 24 24" fill="none" xmlns="http://www.w3.org/2000/svg">
<path d="M21 3V21H3V3H21Z" stroke="#141B34" stroke-width="1.5" stroke-linejoin="round"/>
<path d="M7 8V7.25H6.25V8H7ZM11 8H11.75C11.75 7.58579 11.4142 7.25 11 7.25V8ZM6.25 16V16.75H7.75V16H6.25ZM11 12V12.75C11.4142 12.75 11.75 12.4142 11.75 12H11ZM7 8.75H11V7.25H7V8.75ZM7.75 16V12H6.25V16H7.75ZM7.75 12V8H6.25V12H7.75ZM11 11.25H7V12.75H11V11.25ZM11.75 12V8H10.25V12H11.75Z" fill="#141B34"/>
<path d="M14 16V10.5H16.5" stroke="#141B34" stroke-width="1.5" stroke-linecap="square" stroke-linejoin="round"/>
</svg>
