<svg width="24" height="24" viewBox="0 0 24 24" fill="none" xmlns="http://www.w3.org/2000/svg">
<path d="M6 11.5C6 14.3 9 17.5667 12 18.5" stroke="#141B34" stroke-width="1.5" stroke-linejoin="round"/>
<path d="M7.3981 8.10008L6.71162 7.79801L6.70794 7.80638L6.70446 7.81485L7.3981 8.10008ZM6 11.5L6.48809 12.0694L6.62504 11.9521L6.69364 11.7852L6 11.5ZM18.962 11.4169L19.2903 12.0912L18.962 11.4169ZM20.1412 10.7956L20.5731 11.4088L20.5731 11.4088L20.1412 10.7956ZM20.8833 6.34162L21.4869 5.89638V5.89638L20.8833 6.34162ZM18.8514 16.6782L18.6739 15.9495L18.6663 15.9514L18.6586 15.9534L18.8514 16.6782ZM12 18.5L11.8073 17.7752L11.6665 17.8126L11.55 17.9L12 18.5ZM10.491 3.94223L10.0012 3.37424V3.37424L10.491 3.94223ZM8 21.5L7.7772 22.2161L8.14329 22.33L8.45 22.1L8 21.5ZM2.5 14.5L2.01191 13.9306L1.75 14.155V14.5H2.5ZM6.70446 7.81485L5.30636 11.2148L6.69364 11.7852L8.09174 8.38532L6.70446 7.81485ZM19.2903 12.0912C19.9015 11.7935 20.2943 11.6052 20.5731 11.4088L19.7094 10.1824C19.5556 10.2907 19.3063 10.415 18.6336 10.7426L19.2903 12.0912ZM20.5731 11.4088C22.3773 10.1383 22.7953 7.66999 21.4869 5.89638L20.2798 6.78686C21.0815 7.87361 20.8357 9.38929 19.7094 10.1824L20.5731 11.4088ZM18.6586 15.9534L11.8073 17.7752L12.1927 19.2248L19.0441 17.403L18.6586 15.9534ZM19.4635 11.9567C21.049 13.0597 20.6068 15.4788 18.6739 15.9495L19.0288 17.4069C22.1794 16.6398 22.9986 12.5888 20.3201 10.7254L19.4635 11.9567ZM18.6336 10.7426C17.5188 11.2855 16.8212 12.2899 16.8212 13.6005L18.3212 13.6005C18.3212 12.9032 18.6551 12.4006 19.2903 12.0912L18.6336 10.7426ZM21.4869 5.89638C20.2163 4.17405 18.3702 2.70528 16.3275 2.07615C14.2534 1.43734 11.9759 1.67145 10.0012 3.37424L10.9808 4.51021C12.5143 3.18785 14.2383 3.00223 15.886 3.5097C17.565 4.02684 19.161 5.27035 20.2798 6.78686L21.4869 5.89638ZM8.08458 8.40215C8.74483 6.90168 9.73352 5.58579 10.9808 4.51021L10.0012 3.37424C8.59124 4.59012 7.46512 6.08564 6.71162 7.79801L8.08458 8.40215ZM8.2228 20.7839C6.8952 20.3708 5.64106 19.4254 4.7166 18.239C3.78884 17.0484 3.25 15.6895 3.25 14.5H1.75C1.75 16.1105 2.46116 17.7849 3.5334 19.161C4.60894 20.5413 6.1048 21.6958 7.7772 22.2161L8.2228 20.7839ZM11.55 17.9L7.55 20.9L8.45 22.1L12.45 19.1L11.55 17.9ZM2.98809 15.0694L6.48809 12.0694L5.51191 10.9306L2.01191 13.9306L2.98809 15.0694Z" fill="#141B34"/>
</svg>
