<svg width="24" height="24" viewBox="0 0 24 24" fill="none" xmlns="http://www.w3.org/2000/svg">
<path d="M12.0004 14L11.7746 14.7152L12.0004 14.7865L12.2263 14.7152L12.0004 14ZM2.5 11H1.75V11.5497L2.27416 11.7152L2.5 11ZM21.5 11L21.7259 11.7152L22.25 11.5497L22.25 11.0001L21.5 11ZM21.5004 6L22.2504 6.00006C22.2504 5.80114 22.1714 5.61036 22.0308 5.46969C21.8901 5.32903 21.6993 5.25 21.5004 5.25V6ZM2.5 6V5.25C2.08579 5.25 1.75 5.58579 1.75 6H2.5ZM2.5 6.75H21.5004V5.25H2.5V6.75ZM21.2741 10.2848L11.7745 13.2848L12.2263 14.7152L21.7259 11.7152L21.2741 10.2848ZM12.2262 13.2848L2.72584 10.2848L2.27416 11.7152L11.7746 14.7152L12.2262 13.2848ZM1.75 6V11H3.25V6H1.75ZM22.25 11.0001L22.2504 6.00006L20.7504 5.99994L20.75 10.9999L22.25 11.0001Z" fill="#141B34"/>
<path d="M3.46287 11.5L3.46191 21.5H20.5372V11.5" stroke="#141B34" stroke-width="1.5" stroke-linejoin="round"/>
<path d="M15.5 6V2.5H8.5V6" stroke="#141B34" stroke-width="1.5" stroke-linejoin="round"/>
</svg>
