<svg width="24" height="24" viewBox="0 0 24 24" fill="none" xmlns="http://www.w3.org/2000/svg">
<path d="M6.5 15V14.25C6.26466 14.25 6.04296 14.3605 5.90124 14.5484C5.75952 14.7362 5.7142 14.9798 5.77886 15.206L6.5 15ZM8.5 22L7.77886 22.206L7.93427 22.75H8.5V22ZM17.5 15L18.2211 15.206C18.2858 14.9798 18.2405 14.7362 18.0988 14.5484C17.957 14.3605 17.7353 14.25 17.5 14.25V15ZM15.5 22V22.75H16.0657L16.2211 22.206L15.5 22ZM5.77886 15.206L7.77886 22.206L9.22114 21.794L7.22114 14.794L5.77886 15.206ZM16.7789 14.794L14.7789 21.794L16.2211 22.206L18.2211 15.206L16.7789 14.794ZM17.5 14.25H6.5V15.75H17.5V14.25ZM8.5 22.75H15.5V21.25H8.5V22.75Z" fill="#141B34"/>
<path d="M9.5 15L8.54045 7.96332C8.25457 5.86688 9.88416 4 12 4V4C14.1158 4 15.7454 5.86688 15.4595 7.96332L14.5 15" stroke="#141B34" stroke-width="1.5"/>
<path d="M12 15L12 12" stroke="#141B34" stroke-width="1.5" stroke-linejoin="round"/>
<path d="M15 6.5L17 5M9 6.5L7 5M12 4.5V2M15 9.5L17 11M9 9.5L7 11" stroke="#141B34" stroke-width="1.5" stroke-linejoin="round"/>
</svg>
