<svg width="24" height="24" viewBox="0 0 24 24" fill="none" xmlns="http://www.w3.org/2000/svg">
<path d="M2 22L1.25037 21.9766L1.2262 22.75H2V22ZM22 22V22.75H22.7738L22.7496 21.9766L22 22ZM21.5 6L22.2496 5.97657L22.2269 5.25H21.5V6ZM2.5 6.00078V5.25078C2.09491 5.25078 1.76302 5.57246 1.75037 5.97735L2.5 6.00078ZM8.5 2V1.25H7.91442L7.77239 1.8181L8.5 2ZM15.5 2L16.2276 1.8181L16.0856 1.25H15.5V2ZM2 22.75H22V21.25H2V22.75ZM17 6.75H21.5V5.25H17V6.75ZM20.7504 6.02343L21.2504 22.0234L22.7496 21.9766L22.2496 5.97657L20.7504 6.02343ZM2.74963 22.0234L3.24963 6.02421L1.75037 5.97735L1.25037 21.9766L2.74963 22.0234ZM2.5 6.75078H7V5.25078H2.5V6.75078ZM7.72761 8.1819L9.22761 2.1819L7.77239 1.8181L6.27239 7.8181L7.72761 8.1819ZM17.7276 7.8181L16.2276 1.8181L14.7724 2.1819L16.2724 8.1819L17.7276 7.8181ZM8.5 2.75H15.5V1.25H8.5V2.75Z" fill="#141B34"/>
<path d="M11.9998 6H12.0088" stroke="#141B34" stroke-width="2" stroke-linecap="square" stroke-linejoin="round"/>
<path d="M12.1195 18C10.1205 18 8.5 16.4197 8.5 14.4702C8.5 12.7426 9.77269 11.3048 11.4536 11C11.2992 11.3925 11.2146 11.8186 11.2146 12.2641C11.2146 14.2135 12.8351 15.7939 14.8341 15.7939C15.0616 15.7939 15.2842 15.7734 15.5 15.7343C14.9787 17.0594 13.6617 18 12.1195 18Z" stroke="#141B34" stroke-width="1.5" stroke-linejoin="round"/>
</svg>
