<svg width="24" height="24" viewBox="0 0 24 24" fill="none" xmlns="http://www.w3.org/2000/svg">
<path d="M15 13V19H21" stroke="#141B34" stroke-width="1.5" stroke-linejoin="round"/>
<path d="M21 16L21 22" stroke="#141B34" stroke-width="1.5" stroke-linejoin="round"/>
<path d="M9 11.8292L8.46281 11.8889C7.65914 11.9782 7.25729 12.0229 6.93718 11.9882C5.37478 11.8189 4.1433 10.4344 4.00816 8.69526C3.98047 8.33895 4.02507 7.89263 4.11426 7" stroke="#141B34" stroke-width="1.5" stroke-linejoin="round"/>
<path d="M13.6914 7H13.7004" stroke="#141B34" stroke-width="2" stroke-linecap="square" stroke-linejoin="round"/>
<path d="M17 7L21.5 7" stroke="#141B34" stroke-width="1.5" stroke-linejoin="round"/>
<path d="M7.5 8L8.17082 7.66459L8.03717 7.39729L7.75631 7.29516L7.5 8ZM2 6H1.25C1.25 6.31538 1.4473 6.59707 1.74369 6.70484L2 6ZM10 13L9.32918 13.3354L9.53647 13.75H10V13ZM2 2V1.25C1.58579 1.25 1.25 1.58579 1.25 2H2ZM2 2.75H16.5537V1.25H2V2.75ZM16.5537 12.25H10V13.75H16.5537V12.25ZM10.6708 12.6646L8.17082 7.66459L6.82918 8.33541L9.32918 13.3354L10.6708 12.6646ZM7.75631 7.29516L2.25631 5.29516L1.74369 6.70484L7.24369 8.70484L7.75631 7.29516ZM21.25 7.5C21.25 10.1303 19.1405 12.25 16.5537 12.25V13.75C19.9828 13.75 22.75 10.9448 22.75 7.5H21.25ZM16.5537 2.75C19.1405 2.75 21.25 4.86969 21.25 7.5H22.75C22.75 4.05518 19.9828 1.25 16.5537 1.25V2.75ZM1.25 2V6H2.75V2H1.25Z" fill="#141B34"/>
</svg>
