<svg width="24" height="24" viewBox="0 0 24 24" fill="none" xmlns="http://www.w3.org/2000/svg">
<circle cx="5" cy="6" r="2" stroke="#141B34" stroke-width="1.5" stroke-linecap="round" stroke-linejoin="round"/>
<path d="M11 20H10.25V20.75H11V20ZM11 4V3.25H10.25V4H11ZM21 4H21.75C21.75 3.58579 21.4142 3.25 21 3.25V4ZM21 20V20.75C21.4142 20.75 21.75 20.4142 21.75 20H21ZM11.75 20V4H10.25V20H11.75ZM21.75 7V4H20.25V7H21.75ZM11 4.75H21V3.25H11V4.75ZM20.25 17V20H21.75V17H20.25ZM21 19.25H11V20.75H21V19.25Z" fill="#141B34"/>
</svg>
