<svg width="24" height="24" viewBox="0 0 24 24" fill="none" xmlns="http://www.w3.org/2000/svg">
<path d="M14.0098 8L14.0008 8" stroke="#141B34" stroke-width="2" stroke-linecap="round" stroke-linejoin="round"/>
<path d="M17.0078 14.2095L16.9988 14.2095" stroke="#141B34" stroke-width="2" stroke-linecap="round" stroke-linejoin="round"/>
<path d="M7 15.2095C7 16.0379 7.67157 16.7095 8.5 16.7095C9.32843 16.7095 10 16.0379 10 15.2095C10 14.381 9.32843 13.7095 8.5 13.7095C7.67157 13.7095 7 14.381 7 15.2095Z" stroke="#141B34" stroke-width="1.5"/>
<path d="M22 11H22.75C22.75 10.5858 22.4142 10.25 22 10.25V11ZM22 20V20.75H22.75V20H22ZM2 20H1.25V20.75H2V20ZM2 11V10.25C1.58579 10.25 1.25 10.5858 1.25 11H2ZM13 20V20.75H13.75V20H13ZM17 20H16.25V20.75H17V20ZM21.25 11V20H22.75V11H21.25ZM2.75 20V11H1.25V20H2.75ZM17.75 20C17.75 18.4812 16.5188 17.25 15 17.25V18.75C15.6904 18.75 16.25 19.3096 16.25 20H17.75ZM15 17.25C13.4812 17.25 12.25 18.4812 12.25 20H13.75C13.75 19.3096 14.3096 18.75 15 18.75V17.25ZM17 20.75H22V19.25H17V20.75ZM13 19.25H2V20.75H13V19.25ZM22 10.25H2V11.75H22V10.25Z" fill="#141B34"/>
<path d="M22 11H2L16 4L22 11Z" stroke="#141B34" stroke-width="1.5" stroke-linejoin="round"/>
</svg>
