<svg width="24" height="24" viewBox="0 0 24 24" fill="none" xmlns="http://www.w3.org/2000/svg">
<path d="M22 2.5H2V17.5H22V2.5Z" stroke="#141B34" stroke-width="1.5" stroke-linejoin="round"/>
<path d="M18 10L18.5303 10.5303L19.0607 10L18.5303 9.46967L18 10ZM6 10L5.46967 9.46967L4.93934 10L5.46967 10.5303L6 10ZM14.4697 7.53033L17.4697 10.5303L18.5303 9.46967L15.5303 6.46967L14.4697 7.53033ZM17.4697 9.46967L14.4697 12.4697L15.5303 13.5303L18.5303 10.5303L17.4697 9.46967ZM8.46967 6.46967L5.46967 9.46967L6.53033 10.5303L9.53033 7.53033L8.46967 6.46967ZM5.46967 10.5303L8.46967 13.5303L9.53033 12.4697L6.53033 9.46967L5.46967 10.5303ZM12.2724 5.8181L10.2724 13.8181L11.7276 14.1819L13.7276 6.1819L12.2724 5.8181Z" fill="#141B34"/>
<path d="M14 21.5V17.5M10 21.5V17.5" stroke="#141B34" stroke-width="1.5" stroke-linecap="round"/>
<path d="M7 21.5H17" stroke="#141B34" stroke-width="1.5"/>
</svg>
