<svg width="24" height="24" viewBox="0 0 24 24" fill="none" xmlns="http://www.w3.org/2000/svg">
<path d="M3 2L3.41603 1.37596C3.18588 1.22253 2.88997 1.20823 2.64611 1.33874C2.40224 1.46926 2.25 1.7234 2.25 2L3 2ZM6 4L5.58397 4.62404L6 4.90139L6.41603 4.62404L6 4ZM9 2L9.41603 1.37596C9.1641 1.20801 8.8359 1.20801 8.58397 1.37596L9 2ZM12 4L11.584 4.62404L12 4.90139L12.416 4.62404L12 4ZM15 2L15.416 1.37596C15.1641 1.20801 14.8359 1.20801 14.584 1.37596L15 2ZM18 4L17.584 4.62404L18 4.90139L18.416 4.62404L18 4ZM21 2H21.75C21.75 1.7234 21.5978 1.46926 21.3539 1.33874C21.11 1.20823 20.8141 1.22253 20.584 1.37596L21 2ZM3 22H2.25C2.25 22.2766 2.40224 22.5307 2.64611 22.6613C2.88997 22.7918 3.18588 22.7775 3.41603 22.624L3 22ZM6 20L6.41603 19.376L6 19.0986L5.58397 19.376L6 20ZM9 22L8.58397 22.624C8.8359 22.792 9.1641 22.792 9.41603 22.624L9 22ZM12 20L12.416 19.376L12 19.0986L11.584 19.376L12 20ZM15 22L14.584 22.624C14.8359 22.792 15.1641 22.792 15.416 22.624L15 22ZM18 20L18.416 19.376L18 19.0986L17.584 19.376L18 20ZM21 22L20.584 22.624C20.8141 22.7775 21.11 22.7918 21.3539 22.6613C21.5978 22.5307 21.75 22.2766 21.75 22H21ZM2.58397 2.62404L5.58397 4.62404L6.41603 3.37596L3.41603 1.37596L2.58397 2.62404ZM6.41603 4.62404L9.41603 2.62404L8.58397 1.37596L5.58397 3.37596L6.41603 4.62404ZM8.58397 2.62404L11.584 4.62404L12.416 3.37596L9.41603 1.37596L8.58397 2.62404ZM12.416 4.62404L15.416 2.62404L14.584 1.37596L11.584 3.37596L12.416 4.62404ZM14.584 2.62404L17.584 4.62404L18.416 3.37596L15.416 1.37596L14.584 2.62404ZM18.416 4.62404L21.416 2.62404L20.584 1.37596L17.584 3.37596L18.416 4.62404ZM3.41603 22.624L6.41603 20.624L5.58397 19.376L2.58397 21.376L3.41603 22.624ZM5.58397 20.624L8.58397 22.624L9.41603 21.376L6.41603 19.376L5.58397 20.624ZM9.41603 22.624L12.416 20.624L11.584 19.376L8.58397 21.376L9.41603 22.624ZM11.584 20.624L14.584 22.624L15.416 21.376L12.416 19.376L11.584 20.624ZM15.416 22.624L18.416 20.624L17.584 19.376L14.584 21.376L15.416 22.624ZM17.584 20.624L20.584 22.624L21.416 21.376L18.416 19.376L17.584 20.624ZM20.25 2V22H21.75V2H20.25ZM2.25 2V22H3.75V2H2.25Z" fill="#141B34"/>
<path d="M15 9L9 15" stroke="#141B34" stroke-width="1.5" stroke-linecap="square" stroke-linejoin="round"/>
<path d="M15 15H14.991M9.00897 9H9" stroke="#141B34" stroke-width="2" stroke-linecap="square" stroke-linejoin="round"/>
</svg>
