<svg width="24" height="24" viewBox="0 0 24 24" fill="none" xmlns="http://www.w3.org/2000/svg">
<path d="M21.504 7.45715L22.0335 7.98837L22.0335 7.98837L21.504 7.45715ZM21.576 5.25669L22.1054 4.72548L21.576 5.25669ZM19.0657 7.93207L19.3185 7.22599L19.0657 7.93207ZM7.40939 21.5046L6.87996 20.9734L6.87995 20.9734L7.40939 21.5046ZM5.20155 21.5764L5.73099 21.0452L5.20155 21.5764ZM7.8859 19.0745L7.18036 19.3288L7.8859 19.0745ZM21.0466 5.78791C21.3207 6.06114 21.3395 6.56223 20.9746 6.92593L22.0335 7.98837C22.8937 7.13098 23.0565 5.67333 22.1054 4.72548L21.0466 5.78791ZM16.001 3.25C17.718 3.25 19.5247 4.27115 21.0466 5.78791L22.1054 4.72548C20.4505 3.07611 18.284 1.75 16.001 1.75V3.25ZM16.2655 8.26429C17.1615 8.2282 18.0074 8.3497 18.8128 8.63815L19.3185 7.22599C18.3188 6.86794 17.2794 6.72224 16.2051 6.76551L16.2655 8.26429ZM4.67211 22.1076C5.62131 23.0536 7.0795 22.8923 7.93883 22.0359L6.87995 20.9734C6.5141 21.338 6.00697 21.3202 5.73099 21.0452L4.67211 22.1076ZM1.75 16.4995C1.74916 17.8783 2.06086 18.8925 2.61963 19.7813C3.15299 20.6295 3.90517 21.3432 4.67211 22.1076L5.73099 21.0452C4.90955 20.2265 4.3102 19.652 3.88949 18.9828C3.49421 18.3541 3.24932 17.6217 3.25 16.5005L1.75 16.4995ZM6.71141 16.1951C6.66791 17.2681 6.82124 18.3328 7.18036 19.3288L8.59145 18.8201C8.3019 18.017 8.17406 17.1467 8.21018 16.2559L6.71141 16.1951ZM18.8128 8.63815C19.8949 9.02568 21.1427 8.8761 22.0335 7.98837L20.9746 6.92593C20.5614 7.33767 19.9509 7.45244 19.3185 7.22599L18.8128 8.63815ZM7.18036 19.3288C7.40665 19.9565 7.29239 20.5624 6.87996 20.9734L7.93882 22.0359C8.83024 21.1475 8.98119 19.9011 8.59145 18.8201L7.18036 19.3288Z" fill="#141B34"/>
<path d="M9.8101 3.65861C8.99567 3.40044 8.5089 3.67043 7.53535 4.21042C6.1309 4.98942 4.95503 6.1749 4.18234 7.59083C3.64673 8.57233 3.37892 9.06307 3.635 9.88417M9.8101 3.65861C10.6245 3.91677 10.9506 4.58262 11.6026 5.91432L12.64 8.03294C13.5251 9.84042 13.3493 10.6903 11.9795 12.0713C11.2556 12.8011 10.8936 13.1661 10.4475 13.3166C10.2456 13.3847 10.0342 13.4198 9.82139 13.4206M9.8101 3.65861C10.8211 3.11107 12.0284 2.67038 13.0863 2.38632C14.6106 1.97702 15.3728 1.77236 16.1573 2.39343C17.3545 3.34133 17.1803 7.36273 16.2349 8.53583C15.6703 9.23644 13.9925 9.75543 13.1824 9.95962M9.82139 13.4206C9.82139 13.4206 9.34829 15.594 8.52524 16.3169C8.0344 16.748 7.3583 16.8071 5.9566 16.9107M9.82139 13.4206C8.12077 13.4274 4.11795 11.4327 3.635 9.88417M3.635 9.88417C3.0919 10.9035 2.65478 12.1206 2.37303 13.1871C2.10041 14.2191 1.65649 15.4522 2.44665 16.3642C3.10281 17.1216 4.05407 17.0513 5.9566 16.9107M5.9566 16.9107C6.83104 16.8461 7.42326 16.8025 7.86408 16.6717" stroke="#141B34" stroke-width="1.5" stroke-linejoin="round"/>
</svg>
