<svg width="24" height="24" viewBox="0 0 24 24" fill="none" xmlns="http://www.w3.org/2000/svg">
<path d="M10 16.75V18H7V13H10V14.25M21 12.5L19.25 18L17.5 12.5M15.5 13H12.4977V15.5H15V18H12" stroke="#141B34" stroke-width="1.5" stroke-linejoin="round"/>
<path d="M3 22H2.25C2.25 22.4142 2.58579 22.75 3 22.75V22ZM20 2H20.75C20.75 1.58579 20.4142 1.25 20 1.25V2ZM10 2V1.25H9.68934L9.46967 1.46967L10 2ZM3 9L2.46967 8.46967L2.25 8.68934V9H3ZM10 9V9.75H10.75V9H10ZM20 21.25H3V22.75H20V21.25ZM19.25 2V10H20.75V2H19.25ZM20 1.25L10 1.25V2.75L20 2.75V1.25ZM2.25 9L2.25 22H3.75L3.75 9H2.25ZM9.46967 1.46967L2.46967 8.46967L3.53033 9.53033L10.5303 2.53033L9.46967 1.46967ZM9.25 2L9.25 9H10.75L10.75 2L9.25 2ZM10 8.25L3 8.25L3 9.75L10 9.75V8.25Z" fill="#141B34"/>
</svg>
