<svg width="24" height="24" viewBox="0 0 24 24" fill="none" xmlns="http://www.w3.org/2000/svg">
<path d="M12 9V9.75C12.4142 9.75 12.75 9.41421 12.75 9H12ZM4 6L3.37596 5.58397L3.09861 6L3.37596 6.41603L4 6ZM6 9L5.37596 9.41603L5.59861 9.75H6V9ZM6 3V2.25H5.59861L5.37596 2.58397L6 3ZM12 3H12.75C12.75 2.58579 12.4142 2.25 12 2.25V3ZM11.25 3V9H12.75V3H11.25ZM6 3.75H12V2.25H6V3.75ZM12 8.25H6V9.75H12V8.25ZM3.37596 6.41603L5.37596 9.41603L6.62404 8.58397L4.62404 5.58397L3.37596 6.41603ZM5.37596 2.58397L3.37596 5.58397L4.62404 6.41603L6.62404 3.41603L5.37596 2.58397Z" fill="#141B34"/>
<path d="M12 9V8.25C11.5858 8.25 11.25 8.58579 11.25 9H12ZM12 15H11.25C11.25 15.4142 11.5858 15.75 12 15.75V15ZM18 9L18.624 8.58397L18.4014 8.25H18V9ZM18 15V15.75H18.4014L18.624 15.416L18 15ZM20 12L20.624 12.416L20.9014 12L20.624 11.584L20 12ZM11.25 9V15H12.75V9H11.25ZM18 8.25H12V9.75H18V8.25ZM12 15.75H18V14.25H12V15.75ZM19.376 11.584L17.376 14.584L18.624 15.416L20.624 12.416L19.376 11.584ZM17.376 9.41603L19.376 12.416L20.624 11.584L18.624 8.58397L17.376 9.41603Z" fill="#141B34"/>
<path d="M12 21L12 3" stroke="#141B34" stroke-width="1.5" stroke-linejoin="round"/>
<path d="M9 21H15" stroke="#141B34" stroke-width="1.5" stroke-linejoin="round"/>
</svg>
