<svg width="24" height="24" viewBox="0 0 24 24" fill="none" xmlns="http://www.w3.org/2000/svg">
<path d="M21 3H3V21H21V3Z" stroke="#141B34" stroke-width="1.5" stroke-linejoin="round"/>
<path d="M3 9H21" stroke="#141B34" stroke-width="1.5"/>
<path d="M6 6H10" stroke="#141B34" stroke-width="1.5"/>
<path d="M17 6.00879V5.99984" stroke="#141B34" stroke-width="1.5" stroke-linecap="square" stroke-linejoin="round"/>
<circle cx="9" cy="15" r="3" stroke="#141B34" stroke-width="1.5" stroke-linecap="round" stroke-linejoin="round"/>
<path d="M15 12L15.1376 11.2627C14.9184 11.2218 14.6923 11.2806 14.5208 11.4231C14.3492 11.5656 14.25 11.777 14.25 12H15ZM14.25 18L14.25 18.75H15.75L15.75 18H14.25ZM17.0982 13.2736L17.8363 13.1404C17.8348 13.1323 17.8332 13.1242 17.8315 13.1161L17.0982 13.2736ZM17.5 15.5V16.25C17.7222 16.25 17.933 16.1515 18.0755 15.9809C18.218 15.8104 18.2775 15.5855 18.2381 15.3668L17.5 15.5ZM15 15.5H14.25V15.5L15 15.5ZM16.3602 13.4068L16.7619 15.6332L18.2381 15.3668L17.8363 13.1404L16.3602 13.4068ZM17.8315 13.1161C17.702 12.5132 17.2681 12.1002 16.8053 11.8306C16.3393 11.5591 15.7569 11.3783 15.1376 11.2627L14.8624 12.7373C15.3893 12.8356 15.7877 12.9737 16.0501 13.1266C16.3157 13.2814 16.3579 13.3982 16.365 13.4312L17.8315 13.1161ZM14.25 12V15.5H15.75V12H14.25ZM14.25 15.5L14.25 18H15.75L15.75 15.5L14.25 15.5ZM17.5 14.75H15V16.25H17.5V14.75Z" fill="#141B34"/>
</svg>
