<svg width="24" height="24" viewBox="0 0 24 24" fill="none" xmlns="http://www.w3.org/2000/svg">
<path d="M12 6L18 12" stroke="#141B34" stroke-width="1.5" stroke-linejoin="round"/>
<path d="M2 2L22 22" stroke="#141B34" stroke-width="1.5" stroke-linejoin="round"/>
<path d="M7.99908 22V22.75H8.30974L8.52941 22.5303L7.99908 22ZM21.9991 8L22.5294 8.53033C22.8223 8.23744 22.8223 7.76256 22.5294 7.46967L21.9991 8ZM2 16L1.46965 15.4697L1.25 15.6894V16H2ZM15.9991 2L16.5294 1.46967C16.3888 1.32901 16.198 1.25 15.9991 1.25C15.8001 1.25 15.6094 1.32903 15.4687 1.46969L15.9991 2ZM2 22H1.25V22.75H2V22ZM15.4687 2.53033L21.4687 8.53033L22.5294 7.46967L16.5294 1.46967L15.4687 2.53033ZM7.99908 21.25H2V22.75H7.99908V21.25ZM2.75 22V16H1.25V22H2.75ZM11.1211 7.93904L16.5294 2.53031L15.4687 1.46969L10.0604 6.87841L11.1211 7.93904ZM17.1209 13.9389L22.5294 8.53033L21.4687 7.46967L16.0602 12.8782L17.1209 13.9389ZM8.52941 22.5303L15.5294 15.5303L14.4687 14.4697L7.46875 21.4697L8.52941 22.5303ZM2.53035 16.5303L9.52987 9.53033L8.46918 8.4697L1.46965 15.4697L2.53035 16.5303Z" fill="#141B34"/>
</svg>
