<svg width="24" height="24" viewBox="0 0 24 24" fill="none" xmlns="http://www.w3.org/2000/svg">
<path d="M3.99962 3L3.99962 2.25C3.61745 2.25 3.2964 2.53736 3.2542 2.91719L3.99962 3ZM2 21L1.25459 20.9172L1.16207 21.75L2 21.75L2 21ZM7.99962 3.00001L8.74503 2.91719C8.70283 2.53736 8.38178 2.25001 7.99962 2.25001L7.99962 3.00001ZM9.99962 21L9.99962 21.75C10.2129 21.75 10.4162 21.6592 10.5585 21.5002C10.7007 21.3412 10.7686 21.1292 10.745 20.9172L9.99962 21ZM3.2542 2.91719L1.25459 20.9172L2.74541 21.0828L4.74503 3.08281L3.2542 2.91719ZM7.2542 3.08284L9.2542 21.0828L10.745 20.9172L8.74503 2.91719L7.2542 3.08284ZM2 21.75L9.99962 21.75L9.99962 20.25L2 20.25L2 21.75ZM7.99962 2.25001L3.99962 2.25L3.99962 3.75L7.99962 3.75001L7.99962 2.25001Z" fill="#141B34"/>
<path d="M8.99902 11L15.9996 7V11L21.9996 7L21.999 21H10.1533" stroke="#141B34" stroke-width="1.5"/>
<path d="M4 6H8" stroke="#141B34" stroke-width="1.5" stroke-linejoin="round"/>
<path d="M12 15L14 15" stroke="#141B34" stroke-width="1.5" stroke-linejoin="round"/>
<path d="M17 15H19" stroke="#141B34" stroke-width="1.5" stroke-linejoin="round"/>
</svg>
