<svg width="24" height="24" viewBox="0 0 24 24" fill="none" xmlns="http://www.w3.org/2000/svg">
<path d="M20 2L20.75 2C20.75 1.58579 20.4142 1.25 20 1.25L20 2ZM3 22L2.25 22C2.25 22.4142 2.58579 22.75 3 22.75L3 22ZM10 2L10 1.25L9.68934 1.25L9.46967 1.46967L10 2ZM3 9L2.46967 8.46967C2.32902 8.61032 2.25 8.80109 2.25 9L3 9ZM13 21.25L3 21.25L3 22.75L13 22.75L13 21.25ZM19.25 2L19.25 11L20.75 11L20.75 2L19.25 2ZM20 1.25L10 1.25L10 2.75L20 2.75L20 1.25ZM2.25 9L2.25 22L3.75 22L3.75 9L2.25 9ZM9.46967 1.46967L2.46967 8.46967L3.53033 9.53033L10.5303 2.53033L9.46967 1.46967Z" fill="#141B34"/>
<path d="M10 2L10 9L3 9" stroke="#141B34" stroke-width="1.5"/>
<path d="M21 20.4923C20.5216 21.3957 19.6512 22 18.6568 22C17.147 22 15.9231 20.6071 15.9231 18.8889V17.1111C15.9231 15.3929 17.147 14 18.6568 14C19.6512 14 20.5216 14.6043 21 15.5077M14 18H19" stroke="#141B34" stroke-width="1.5" stroke-linejoin="round"/>
</svg>
