<svg width="24" height="24" viewBox="0 0 24 24" fill="none" xmlns="http://www.w3.org/2000/svg">
<path d="M2 20.5H1.25C1.25 20.9142 1.58579 21.25 2 21.25V20.5ZM22 6.5H22.75C22.75 6.08579 22.4142 5.75 22 5.75V6.5ZM9 2.50001L9.6 2.05001L9.375 1.75001L9 1.75001L9 2.50001ZM2 2.5L2 1.75C1.80109 1.75 1.61032 1.82902 1.46967 1.96967C1.32902 2.11032 1.25 2.30109 1.25 2.5H2ZM7 7.25H22V5.75H7V7.25ZM8.4 2.95001L11.4 6.95L12.6 6.05L9.6 2.05001L8.4 2.95001ZM2.75 20.5V2.5H1.25V20.5H2.75ZM9 1.75001L2 1.75L2 3.25L9 3.25001L9 1.75001ZM21.25 6.5V11H22.75V6.5H21.25ZM2 21.25H11V19.75H2V21.25Z" fill="#141B34"/>
<path d="M22 21.5V22.25C22.4142 22.25 22.75 21.9142 22.75 21.5H22ZM14 21.5H13.25C13.25 21.9142 13.5858 22.25 14 22.25V21.5ZM14 12.5V11.75C13.5858 11.75 13.25 12.0858 13.25 12.5H14ZM22 15.5H22.75V15.1893L22.5303 14.9697L22 15.5ZM19 12.5L19.5303 11.9697L19.3107 11.75H19V12.5ZM22 20.75H14V22.25H22V20.75ZM14.75 21.5V12.5H13.25V21.5H14.75ZM21.25 15.5V21.5H22.75V15.5H21.25ZM18.4697 13.0303L21.4697 16.0303L22.5303 14.9697L19.5303 11.9697L18.4697 13.0303ZM19 11.75H14V13.25H19V11.75Z" fill="#141B34"/>
</svg>
