<svg width="24" height="24" viewBox="0 0 24 24" fill="none" xmlns="http://www.w3.org/2000/svg">
<path d="M18 15V15.75C18.3033 15.75 18.5768 15.5673 18.6929 15.287C18.809 15.0068 18.7448 14.6842 18.5303 14.4697L18 15ZM6 3V2.25C5.69665 2.25 5.42318 2.43273 5.30709 2.71299C5.191 2.99324 5.25517 3.31583 5.46967 3.53033L6 3ZM18 3H18.75C18.75 2.58579 18.4142 2.25 18 2.25V3ZM18 9V9.75H18.75V9H18ZM6 9V8.25H5.25V9H6ZM6 15H5.25C5.25 15.4142 5.58579 15.75 6 15.75V15ZM18.5303 14.4697L12.5303 8.46967L11.4697 9.53033L17.4697 15.5303L18.5303 14.4697ZM12.5303 8.46967L6.53033 2.46967L5.46967 3.53033L11.4697 9.53033L12.5303 8.46967ZM6 3.75H18V2.25H6V3.75ZM17.25 3V9H18.75V3H17.25ZM18 8.25H12V9.75H18V8.25ZM12 8.25H6V9.75H12V8.25ZM5.25 9V15H6.75V9H5.25ZM18 14.25H6V15.75H18V14.25Z" fill="#141B34"/>
<path d="M12 21L6 15H12V21Z" stroke="#141B34" stroke-width="1.5" stroke-linejoin="round"/>
</svg>
