<svg width="24" height="24" viewBox="0 0 24 24" fill="none" xmlns="http://www.w3.org/2000/svg">
<path d="M22 12.0247C22 6.48823 17.5228 2 12 2C6.47715 2 2 6.48823 2 12.0247C2 17.2229 5.94668 21.497 11 22" stroke="#141B34" stroke-width="1.5" stroke-linejoin="round"/>
<path d="M14 22H13.25V22.75H14V22ZM14 19.5L13.4697 18.9697L13.25 19.1893V19.5H14ZM16.5 22V22.75H16.8107L17.0303 22.5303L16.5 22ZM19.5 14L20.0303 13.4697C19.7374 13.1768 19.2626 13.1768 18.9697 13.4697L19.5 14ZM22 16.5L22.5303 17.0303C22.8232 16.7374 22.8232 16.2626 22.5303 15.9697L22 16.5ZM14.75 22V19.5H13.25V22H14.75ZM14 22.75H16.5V21.25H14V22.75ZM14.5303 20.0303L20.0303 14.5303L18.9697 13.4697L13.4697 18.9697L14.5303 20.0303ZM18.9697 14.5303L21.4697 17.0303L22.5303 15.9697L20.0303 13.4697L18.9697 14.5303ZM21.4697 15.9697L15.9697 21.4697L17.0303 22.5303L22.5303 17.0303L21.4697 15.9697Z" fill="#141B34"/>
<path d="M20 5.69899C19.0653 5.76636 17.8681 6.12824 17.0379 7.20277C15.5385 9.14361 14.039 9.30556 13.0394 8.65861C11.5399 7.6882 12.8 6.11636 11.0401 5.26215C9.89313 4.70542 9.73321 3.19045 10.3716 2" stroke="#141B34" stroke-width="1.5" stroke-linejoin="round"/>
<path d="M2 11C2.7625 11.6621 3.83046 12.2682 5.08874 12.2682C7.68843 12.2682 8.20837 12.7649 8.20837 14.7518C8.20837 16.7387 8.20837 16.7387 8.72831 18.2288C9.06651 19.1981 9.18472 20.1674 8.5106 21" stroke="#141B34" stroke-width="1.5" stroke-linejoin="round"/>
</svg>
