<svg width="24" height="24" viewBox="0 0 24 24" fill="none" xmlns="http://www.w3.org/2000/svg">
<path d="M10.25 4.5V19H11.75V4.5H10.25Z" fill="#141B34"/>
<path d="M8.5 17C5.85114 17.3971 4 18.3716 4 19.4268C4 20.8479 7.35786 22 11.5 22C15.6421 22 19 20.8479 19 19.4268C19 18.3064 16.913 17.3532 14 17" stroke="#141B34" stroke-width="1.5" stroke-linejoin="round"/>
<path d="M11 2L11.3365 1.32974C11.104 1.21301 10.8277 1.22509 10.6062 1.36168C10.3848 1.49827 10.25 1.73984 10.25 2H11ZM20 6.51887L20.3901 7.15943C20.623 7.01763 20.7605 6.76064 20.7494 6.48825C20.7382 6.21585 20.5802 5.97095 20.3365 5.84862L20 6.51887ZM11 12H10.25C10.25 12.2711 10.3963 12.5211 10.6326 12.6539C10.869 12.7867 11.1586 12.7816 11.3901 12.6406L11 12ZM10.6635 2.67026L19.6635 7.18913L20.3365 5.84862L11.3365 1.32974L10.6635 2.67026ZM11.3901 12.6406L20.3901 7.15943L19.6099 5.87832L10.6099 11.3594L11.3901 12.6406ZM10.25 2V12H11.75V2H10.25Z" fill="#141B34"/>
</svg>
