<svg width="24" height="24" viewBox="0 0 24 24" fill="none" xmlns="http://www.w3.org/2000/svg">
<path d="M6 5.54839L6.4066 6.17861L6.41868 6.17081L6.43045 6.16256L6 5.54839ZM2 8.12903L1.59341 7.49881L1.25 7.72036L1.25 8.12903H2ZM12.6253 6.09992L13.1765 5.59133L13.1576 5.57091L13.1373 5.55194L12.6253 6.09992ZM9.06279 4.00535L9.01687 3.25676L9.06279 4.00535ZM9.82445 4.06095L9.9784 3.32692H9.9784L9.82445 4.06095ZM20.5 7.61291V6.86291V7.61291ZM20.5 10.7097V9.95968V10.7097ZM15 12.3065H15.75H15ZM13.5 13.8065V13.0565V13.8065ZM12.5 16.9032V16.1532V16.9032ZM11.5 20V19.25V20ZM5 20V20.75V20ZM2 16.9032H2.75H2ZM13 18.5H13.75H13ZM14 15.4032H14.75H14ZM13 16.8179L12.7501 16.1107L13 16.8179ZM14 13.7211L13.7501 13.014H13.7501L14 13.7211ZM5.59341 4.91816L1.59341 7.49881L2.4066 8.75925L6.4066 6.17861L5.59341 4.91816ZM12.0741 6.60851L13.4488 8.09844L14.5512 7.08126L13.1765 5.59133L12.0741 6.60851ZM6.43045 6.16256C7.9571 5.0926 8.54537 4.7885 9.1087 4.75395L9.01687 3.25676C7.95555 3.32186 7.01578 3.92061 5.56955 4.93421L6.43045 6.16256ZM13.1373 5.55194C12.4805 4.93809 11.9492 4.44055 11.4801 4.0804C11.0004 3.71206 10.5304 3.4427 9.9784 3.32692L9.6705 4.79498C9.91644 4.84656 10.1793 4.97281 10.5667 5.27019C10.9647 5.57575 11.4349 6.01401 12.1132 6.6479L13.1373 5.55194ZM9.1087 4.75395C9.29671 4.74242 9.48545 4.75617 9.6705 4.79498L9.9784 3.32692C9.66225 3.26061 9.33907 3.237 9.01687 3.25676L9.1087 4.75395ZM9.5 8.3629L20.5 8.36291V6.86291L9.5 6.8629V8.3629ZM20.5 9.95968H15V11.4597H20.5V9.95968ZM21.25 9.16129C21.25 9.62485 20.8919 9.95968 20.5 9.95968V11.4597C21.7649 11.4597 22.75 10.408 22.75 9.16129H21.25ZM20.5 8.36291C20.8919 8.36291 21.25 8.69773 21.25 9.16129H22.75C22.75 7.91455 21.7649 6.86291 20.5 6.86291V8.36291ZM14.25 10.7097V12.3065H15.75V10.7097H14.25ZM13.5 13.0565H11.5V14.5565H13.5V13.0565ZM12.5 16.1532H10.8057V17.6532H12.5V16.1532ZM15 9.95968L12 9.95968V11.4597L15 11.4597V9.95968ZM11.5 19.25H5V20.75H11.5V19.25ZM1.25 8.12903L1.25 16.9032H2.75L2.75 8.12903H1.25ZM5 19.25C3.77963 19.25 2.75 18.2219 2.75 16.9032H1.25C1.25 19.0051 2.90666 20.75 5 20.75V19.25ZM12.25 18.5C12.25 18.9142 11.9142 19.25 11.5 19.25V20.75C12.7426 20.75 13.75 19.7426 13.75 18.5H12.25ZM13.25 15.4032C13.25 15.7286 13.0424 16.0074 12.7501 16.1107L13.2499 17.525C14.1228 17.2165 14.75 16.3841 14.75 15.4032H13.25ZM12.7501 16.1107C12.6728 16.138 12.589 16.1532 12.5 16.1532V17.6532C12.7616 17.6532 13.0144 17.6083 13.2499 17.525L12.7501 16.1107ZM13.75 18.5V16.8179H12.25V18.5H13.75ZM14.25 12.3065C14.25 12.6318 14.0424 12.9107 13.7501 13.014L14.2499 14.4282C15.1228 14.1197 15.75 13.2873 15.75 12.3065H14.25ZM13.7501 13.014C13.6728 13.0413 13.589 13.0565 13.5 13.0565V14.5565C13.7616 14.5565 14.0144 14.5115 14.2499 14.4282L13.7501 13.014ZM14.75 15.4032V13.7211H13.25V15.4032H14.75Z" fill="#141B34"/>
</svg>
