<svg width="24" height="24" viewBox="0 0 24 24" fill="none" xmlns="http://www.w3.org/2000/svg">
<path d="M5.61785 15.4792L5.00364 15.9097L5.00828 15.9161L5.61785 15.4792ZM8.5 19.5L7.89043 19.9369L8.11483 20.25H8.5V19.5ZM6.09992 8.87473L5.59133 8.32351L5.57091 8.34235L5.55194 8.36265L6.09992 8.87473ZM4.00535 12.4372L4.75395 12.3913L4.00535 12.4372ZM4.06095 11.6756L3.32692 11.5216L4.06095 11.6756ZM5.00828 15.9161L7.89043 19.9369L9.10957 19.0631L6.22742 15.0423L5.00828 15.9161ZM6.60851 9.42594L8.09844 8.05121L7.08126 6.94879L5.59133 8.32351L6.60851 9.42594ZM6.23202 15.0487C5.7026 14.2934 5.33736 13.7708 5.09299 13.3372C4.85546 12.9157 4.76922 12.6404 4.75395 12.3913L3.25676 12.4831C3.29131 13.0464 3.49043 13.5488 3.78625 14.0737C4.07522 14.5864 4.49131 15.1786 5.00367 15.9096L6.23202 15.0487ZM5.55194 8.36265C4.93809 9.01954 4.44055 9.55077 4.0804 10.0199C3.71206 10.4996 3.4427 10.9696 3.32692 11.5216L4.79498 11.8295C4.84656 11.5836 4.97281 11.3207 5.27019 10.9333C5.57575 10.5353 6.01401 10.0651 6.6479 9.3868L5.55194 8.36265ZM4.75395 12.3913C4.74242 12.2033 4.75617 12.0146 4.79498 11.8295L3.32692 11.5216C3.26061 11.8377 3.237 12.1609 3.25676 12.4831L4.75395 12.3913ZM8.3629 12V6.5H6.8629V12H8.3629ZM9.16129 5.75C9.62485 5.75 9.95968 6.10805 9.95968 6.5H11.4597C11.4597 5.23509 10.408 4.25 9.16129 4.25V5.75ZM8.3629 6.5C8.3629 6.10805 8.69773 5.75 9.16129 5.75V4.25C7.91455 4.25 6.8629 5.23509 6.8629 6.5H8.3629ZM13.0565 7V8.87473H14.5565V7H13.0565ZM16.1532 7V8H17.6532V7H16.1532ZM16.1532 8V9.5H17.6532V8H16.1532ZM15.3548 6.25C15.8184 6.25 16.1532 6.60805 16.1532 7H17.6532C17.6532 5.73509 16.6016 4.75 15.3548 4.75V6.25ZM14.5565 7C14.5565 6.60805 14.8913 6.25 15.3548 6.25V4.75C14.1081 4.75 13.0565 5.73509 13.0565 7H14.5565ZM18.4516 7.25C18.9152 7.25 19.25 7.60805 19.25 8H20.75C20.75 6.73509 19.6984 5.75 18.4516 5.75V7.25ZM17.6532 8C17.6532 7.60805 17.9881 7.25 18.4516 7.25V5.75C17.2049 5.75 16.1532 6.73509 16.1532 8H17.6532ZM9.95968 6.5V8.5H11.4597V6.5H9.95968ZM13.0565 6V7H14.5565V6H13.0565ZM9.95968 6V6.5H11.4597V6H9.95968ZM12.2581 5.25C12.7216 5.25 13.0565 5.60805 13.0565 6H14.5565C14.5565 4.73509 13.5048 3.75 12.2581 3.75V5.25ZM12.2581 3.75C11.0113 3.75 9.95968 4.73509 9.95968 6H11.4597C11.4597 5.60805 11.7945 5.25 12.2581 5.25V3.75ZM19.25 8V15.5H20.75V8H19.25ZM8.5 20.25H16V18.75H8.5V20.25ZM19.25 15.5C19.25 17.2949 17.7949 18.75 16 18.75V20.25C18.6234 20.25 20.75 18.1234 20.75 15.5H19.25Z" fill="#141B34"/>
</svg>
