<svg width="24" height="24" viewBox="0 0 24 24" fill="none" xmlns="http://www.w3.org/2000/svg">
<path d="M3.50391 13L2.80966 12.7163C2.71512 12.9476 2.74198 13.2107 2.88128 13.4182C3.02058 13.6256 3.25404 13.75 3.50391 13.75V13ZM8 2.00012V1.25012H7.49632L7.30575 1.71636L8 2.00012ZM20.5039 13V13.75C20.7539 13.75 20.9874 13.6255 21.1267 13.418C21.2659 13.2105 21.2927 12.9472 21.198 12.7159L20.5039 13ZM16 2.00012L16.6941 1.71593L16.5033 1.25012H16V2.00012ZM4.19815 13.2838L8.69425 2.28389L7.30575 1.71636L2.80966 12.7163L4.19815 13.2838ZM21.198 12.7159L16.6941 1.71593L15.3059 2.28431L19.8098 13.2842L21.198 12.7159ZM20.5039 12.25H3.50391V13.75H20.5039V12.25ZM8 2.75012H16V1.25012H8V2.75012Z" fill="#141B34"/>
<path d="M12 13V19" stroke="#141B34" stroke-width="1.5"/>
<path d="M9 22H15L14 19H10L9 22Z" stroke="#141B34" stroke-width="1.5" stroke-linejoin="round"/>
</svg>
