<svg width="24" height="24" viewBox="0 0 24 24" fill="none" xmlns="http://www.w3.org/2000/svg">
<path d="M2.01938 12.0313L2.76757 11.9792L2.01938 12.0313ZM13.4841 2.01933L13.4324 2.76754L13.4841 2.01933ZM9.51585 2.01933L9.56764 2.76754L9.51585 2.01933ZM2.01938 9.49503L2.76757 9.54711L2.01938 9.49503ZM3.54436 16.2105L4.24013 16.4905L4.39552 16.1044L4.15007 15.7682L3.54436 16.2105ZM2.01938 20L1.32361 19.72C1.21444 19.9913 1.27289 20.3013 1.47334 20.5141C1.67379 20.727 1.9797 20.804 2.25704 20.7113L2.01938 20ZM6.27284 18.5789L6.6255 17.917L6.34096 17.7654L6.03518 17.8676L6.27284 18.5789ZM10.7875 2.75H12.2125V1.25H10.7875V2.75ZM1.25 10.7632C1.25 11.4103 1.24954 11.7723 1.27119 12.0834L2.76757 11.9792C2.75046 11.7333 2.75 11.4355 2.75 10.7632H1.25ZM12.2125 2.75C12.8867 2.75 13.1855 2.75045 13.4324 2.76754L13.5359 1.27112C13.2243 1.24955 12.8616 1.25 12.2125 1.25V2.75ZM13.4324 2.76754C17.0796 3.02 19.9796 5.91412 20.2324 9.54711L21.7288 9.44296C21.4238 5.06026 17.9266 1.57504 13.5359 1.27112L13.4324 2.76754ZM10.7875 1.25C10.1384 1.25 9.77568 1.24955 9.46406 1.27112L9.56764 2.76754C9.8145 2.75045 10.1133 2.75 10.7875 2.75V1.25ZM2.75 10.7632C2.75 10.0908 2.75046 9.79301 2.76757 9.54711L1.27119 9.44296C1.24954 9.75398 1.25 10.116 1.25 10.7632H2.75ZM9.46406 1.27112C5.07339 1.57504 1.57624 5.06026 1.27119 9.44296L2.76757 9.54711C3.02044 5.91412 5.92037 3.02 9.56764 2.76754L9.46406 1.27112ZM4.15007 15.7682C3.36379 14.6914 2.8659 13.3919 2.76757 11.9792L1.27119 12.0834C1.38969 13.7859 1.9906 15.3545 2.93865 16.6528L4.15007 15.7682ZM2.84858 15.9305L1.32361 19.72L2.71516 20.28L4.24013 16.4905L2.84858 15.9305ZM2.25704 20.7113L6.5105 19.2903L6.03518 17.8676L1.78172 19.2887L2.25704 20.7113ZM8.19175 18.5318C7.64136 18.3863 7.11667 18.1787 6.6255 17.917L5.92018 19.2409C6.5122 19.5563 7.14478 19.8065 7.80825 19.982L8.19175 18.5318Z" fill="#141B34"/>
<path d="M17.2531 21.6987L17.203 20.9504H17.203L17.2531 21.6987ZM21.9878 17.1302L21.2397 17.0764L21.9878 17.1302ZM10.0122 17.1302L10.7603 17.0764L10.7603 17.0764L10.0122 17.1302ZM14.7469 21.6987L14.797 20.9504H14.797L14.7469 21.6987ZM14.7469 11.0118L14.797 11.7601L14.7469 11.0118ZM10.0122 15.5803L10.7603 15.6341L10.7603 15.6341L10.0122 15.5803ZM17.2531 11.0118L17.203 11.7601L17.2531 11.0118ZM21.9878 15.5803L21.2397 15.6341L21.9878 15.5803ZM21.0246 19.6842L20.426 19.2324L20.1671 19.5754L20.3321 19.9722L21.0246 19.6842ZM21.9878 22L21.7571 22.7136C22.0355 22.8037 22.3409 22.7235 22.5392 22.5083C22.7376 22.2931 22.7926 21.9822 22.6803 21.712L21.9878 22ZM19.3014 21.1316L19.5321 20.4179L19.2351 20.3219L18.9577 20.4649L19.3014 21.1316ZM16.45 10.25H15.55V11.75H16.45V10.25ZM15.55 22.4605H16.45V20.9605H15.55V22.4605ZM16.45 22.4605C16.8557 22.4605 17.0956 22.4609 17.3033 22.447L17.203 20.9504C17.058 20.9601 16.88 20.9605 16.45 20.9605V22.4605ZM21.25 16.3553C21.25 16.7715 21.2495 16.9399 21.2397 17.0764L22.7358 17.184C22.7505 16.9802 22.75 16.7454 22.75 16.3553H21.25ZM9.25 16.3553C9.25 16.7454 9.24951 16.9802 9.26417 17.184L10.7603 17.0764C10.7505 16.9399 10.75 16.7715 10.75 16.3553H9.25ZM15.55 20.9605C15.12 20.9605 14.942 20.9601 14.797 20.9504L14.6967 22.447C14.9044 22.4609 15.1443 22.4605 15.55 22.4605V20.9605ZM9.26417 17.184C9.46865 20.0266 11.8057 22.2534 14.6967 22.447L14.797 20.9504C12.6115 20.804 10.9082 19.1323 10.7603 17.0764L9.26417 17.184ZM15.55 10.25C15.1443 10.25 14.9044 10.2496 14.6967 10.2635L14.797 11.7601C14.942 11.7504 15.12 11.75 15.55 11.75V10.25ZM10.75 16.3553C10.75 15.939 10.7505 15.7706 10.7603 15.6341L9.26417 15.5265C9.24951 15.7303 9.25 15.9651 9.25 16.3553H10.75ZM14.6967 10.2635C11.8057 10.4571 9.46865 12.6839 9.26417 15.5265L10.7603 15.6341C10.9082 13.5782 12.6115 11.9065 14.797 11.7601L14.6967 10.2635ZM16.45 11.75C16.88 11.75 17.058 11.7504 17.203 11.7601L17.3033 10.2635C17.0956 10.2496 16.8557 10.25 16.45 10.25V11.75ZM22.75 16.3553C22.75 15.9651 22.7505 15.7303 22.7358 15.5265L21.2397 15.6341C21.2495 15.7706 21.25 15.939 21.25 16.3553H22.75ZM17.203 11.7601C19.3885 11.9065 21.0918 13.5782 21.2397 15.6341L22.7358 15.5265C22.5313 12.6839 20.1943 10.4571 17.3033 10.2635L17.203 11.7601ZM21.6233 20.136C22.2545 19.2996 22.6566 18.2861 22.7358 17.184L21.2397 17.0764C21.182 17.8781 20.8901 18.6174 20.426 19.2324L21.6233 20.136ZM20.3321 19.9722L21.2953 22.288L22.6803 21.712L21.7171 19.3962L20.3321 19.9722ZM17.3033 22.447C18.1442 22.3907 18.9375 22.1629 19.645 21.7982L18.9577 20.4649C18.4305 20.7367 17.8367 20.908 17.203 20.9504L17.3033 22.447ZM22.2185 21.2864L19.5321 20.4179L19.0707 21.8452L21.7571 22.7136L22.2185 21.2864Z" fill="#141B34"/>
</svg>
