<svg width="24" height="24" viewBox="0 0 24 24" fill="none" xmlns="http://www.w3.org/2000/svg">
<path d="M6.5 12H14.5M6.5 8H11.5" stroke="#141B34" stroke-width="1.5" stroke-linejoin="round"/>
<path d="M8.72471 17.5618L8.77616 16.8135H8.77616L8.72471 17.5618ZM2.01734 10.9167L2.76551 10.8643L2.01734 10.9167ZM18.9827 10.9167L18.2345 10.8643V10.8643L18.9827 10.9167ZM12.2753 17.5618L12.2238 16.8135H12.2238L12.2753 17.5618ZM12.2753 2.01718L12.2238 2.76541V2.76541L12.2753 2.01718ZM18.9827 8.66225L18.2345 8.71467V8.71467L18.9827 8.66225ZM8.72471 2.01718L8.77616 2.76541V2.76541L8.72471 2.01718ZM2.01734 8.66225L2.76551 8.71467L2.76551 8.71467L2.01734 8.66225ZM3.38179 14.6316L4.07693 14.9132L4.23419 14.5249L3.98612 14.1874L3.38179 14.6316ZM2.01734 18L1.32221 17.7184C1.21241 17.9895 1.27018 18.2996 1.47021 18.513C1.67024 18.7263 1.97604 18.8039 2.2536 18.7118L2.01734 18ZM5.82307 16.7368L6.17392 16.074L5.89082 15.9241L5.58681 16.025L5.82307 16.7368ZM9.8625 2.75H11.1375V1.25H9.8625V2.75ZM11.1375 16.8289H9.8625V18.3289H11.1375V16.8289ZM9.8625 16.8289C9.25807 16.8289 8.99383 16.8285 8.77616 16.8135L8.67325 18.31C8.95527 18.3294 9.283 18.3289 9.8625 18.3289V16.8289ZM1.25 9.78947C1.25 10.3632 1.24954 10.6888 1.26918 10.9691L2.76551 10.8643C2.75046 10.6495 2.75 10.3886 2.75 9.78947H1.25ZM18.25 9.78947C18.25 10.3886 18.2495 10.6495 18.2345 10.8643L19.7308 10.9691C19.7505 10.6888 19.75 10.3632 19.75 9.78947H18.25ZM11.1375 18.3289C11.717 18.3289 12.0447 18.3294 12.3267 18.31L12.2238 16.8135C12.0062 16.8285 11.7419 16.8289 11.1375 16.8289V18.3289ZM18.2345 10.8643C18.0114 14.0482 15.4518 16.5916 12.2238 16.8135L12.3267 18.31C16.2906 18.0374 19.4547 14.9102 19.7308 10.9691L18.2345 10.8643ZM11.1375 2.75C11.7419 2.75 12.0062 2.75045 12.2238 2.76541L12.3267 1.26895C12.0447 1.24955 11.717 1.25 11.1375 1.25V2.75ZM19.75 9.78947C19.75 9.21571 19.7505 8.89013 19.7308 8.60983L18.2345 8.71467C18.2495 8.92942 18.25 9.19031 18.25 9.78947H19.75ZM12.2238 2.76541C15.4518 2.98739 18.0114 5.53071 18.2345 8.71467L19.7308 8.60983C19.4547 4.66874 16.2906 1.54153 12.3267 1.26895L12.2238 2.76541ZM9.8625 1.25C9.283 1.25 8.95527 1.24955 8.67326 1.26895L8.77616 2.76541C8.99383 2.75045 9.25807 2.75 9.8625 2.75V1.25ZM2.75 9.78947C2.75 9.19031 2.75046 8.92942 2.76551 8.71467L1.26918 8.60983C1.24954 8.89013 1.25 9.21571 1.25 9.78947H2.75ZM8.67326 1.26895C4.70937 1.54153 1.5453 4.66874 1.26918 8.60983L2.76551 8.71467C2.98858 5.53071 5.5482 2.98739 8.77616 2.76541L8.67326 1.26895ZM3.98612 14.1874C3.29166 13.2425 2.85229 12.1029 2.76551 10.8643L1.26918 10.9691C1.3764 12.4996 1.92017 13.9094 2.77747 15.0758L3.98612 14.1874ZM2.68666 14.35L1.32221 17.7184L2.71248 18.2816L4.07693 14.9132L2.68666 14.35ZM8.77616 16.8135C7.83821 16.749 6.95745 16.4887 6.17392 16.074L5.47221 17.3997C6.43787 17.9108 7.52223 18.2308 8.67326 18.31L8.77616 16.8135ZM2.2536 18.7118L6.05932 17.4487L5.58681 16.025L1.78108 17.2882L2.2536 18.7118Z" fill="#141B34"/>
<path d="M15.2753 21.5618L15.2238 20.8135H15.2238L15.2753 21.5618ZM21.9827 14.9167L22.7308 14.9691L21.9827 14.9167ZM11.7247 21.5618L11.7762 20.8135H11.7762L11.7247 21.5618ZM21.9827 12.6623L21.2345 12.7147V12.7147L21.9827 12.6623ZM20.6182 18.6316L20.0139 18.1874L19.7658 18.5249L19.9231 18.9132L20.6182 18.6316ZM21.9827 22L21.7464 22.7118C22.024 22.8039 22.3298 22.7263 22.5298 22.513C22.7298 22.2996 22.7876 21.9895 22.6778 21.7184L21.9827 22ZM18.1769 20.7368L18.4132 20.025L18.1092 19.9241L17.8261 20.074L18.1769 20.7368ZM12.8625 22.3289H14.1375V20.8289H12.8625V22.3289ZM14.1375 22.3289C14.717 22.3289 15.0447 22.3294 15.3267 22.31L15.2238 20.8135C15.0062 20.8285 14.7419 20.8289 14.1375 20.8289V22.3289ZM21.25 13.7895C21.25 14.3886 21.2495 14.6495 21.2345 14.8643L22.7308 14.9691C22.7505 14.6888 22.75 14.3632 22.75 13.7895H21.25ZM12.8625 20.8289C12.2581 20.8289 11.9938 20.8285 11.7762 20.8135L11.6733 22.31C11.9553 22.3294 12.283 22.3289 12.8625 22.3289V20.8289ZM22.75 13.7895C22.75 13.2157 22.7505 12.8901 22.7308 12.6098L21.2345 12.7147C21.2495 12.9294 21.25 13.1903 21.25 13.7895H22.75ZM21.2225 19.0758C22.0798 17.9094 22.6236 16.4996 22.7308 14.9691L21.2345 14.8643C21.1477 16.1029 20.7083 17.2425 20.0139 18.1874L21.2225 19.0758ZM19.9231 18.9132L21.2875 22.2816L22.6778 21.7184L21.3133 18.35L19.9231 18.9132ZM15.3267 22.31C16.4778 22.2308 17.5621 21.9108 18.5278 21.3997L17.8261 20.074C17.0426 20.4887 16.1618 20.749 15.2238 20.8135L15.3267 22.31ZM22.2189 21.2882L18.4132 20.025L17.9407 21.4487L21.7464 22.7118L22.2189 21.2882ZM20.9503 11.2277C21.1012 11.7012 21.1984 12.1991 21.2345 12.7147L22.7308 12.6098C22.6863 11.974 22.5663 11.3585 22.3795 10.7723L20.9503 11.2277ZM7.5638 20.838C8.73467 21.6752 10.1448 22.2049 11.6733 22.31L11.7762 20.8135C10.5314 20.7279 9.38657 20.2973 8.4362 19.6178L7.5638 20.838Z" fill="#141B34"/>
</svg>
