<svg width="24" height="24" viewBox="0 0 24 24" fill="none" xmlns="http://www.w3.org/2000/svg">
<path d="M9.91142 20.9796L9.96336 20.2314H9.96336L9.91142 20.9796ZM2.0204 13.0886L2.7686 13.0366L2.0204 13.0886ZM21.9796 13.0886L21.2314 13.0366V13.0366L21.9796 13.0886ZM14.0886 20.9796L14.0366 20.2314H14.0366L14.0886 20.9796ZM14.0886 2.5204L14.0366 3.2686L14.0886 2.5204ZM21.9796 10.4114L21.2314 10.4634V10.4634L21.9796 10.4114ZM9.91142 2.5204L9.96336 3.2686V3.2686L9.91142 2.5204ZM2.0204 10.4114L2.7686 10.4634L2.0204 10.4114ZM3.62564 17.5L4.32168 17.7793L4.47628 17.3941L4.23193 17.0585L3.62564 17.5ZM2.0204 21.5L1.32436 21.2207C1.21546 21.492 1.27419 21.8019 1.47482 22.0146C1.67546 22.2273 1.98141 22.304 2.25865 22.2112L2.0204 21.5ZM6.49772 20L6.85114 19.3385L6.56601 19.1862L6.25947 19.2888L6.49772 20ZM11.25 3.25H12.75V1.75H11.25V3.25ZM12.75 20.25H11.25V21.75H12.75V20.25ZM11.25 20.25C10.541 20.25 10.2248 20.2495 9.96336 20.2314L9.85949 21.7278C10.1859 21.7505 10.5662 21.75 11.25 21.75V20.25ZM1.25 11.75C1.25 12.4338 1.24955 12.8141 1.2722 13.1405L2.7686 13.0366C2.75045 12.7752 2.75 12.459 2.75 11.75H1.25ZM21.25 11.75C21.25 12.459 21.2495 12.7752 21.2314 13.0366L22.7278 13.1405C22.7505 12.8141 22.75 12.4338 22.75 11.75H21.25ZM12.75 21.75C13.4338 21.75 13.8141 21.7505 14.1405 21.7278L14.0366 20.2314C13.7752 20.2495 13.459 20.25 12.75 20.25V21.75ZM12.75 3.25C13.459 3.25 13.7752 3.25045 14.0366 3.2686L14.1405 1.7722C13.8141 1.74955 13.4338 1.75 12.75 1.75V3.25ZM22.75 11.75C22.75 11.0662 22.7505 10.6859 22.7278 10.3595L21.2314 10.4634C21.2495 10.7248 21.25 11.041 21.25 11.75H22.75ZM14.0366 3.2686C17.8939 3.53634 20.9637 6.60614 21.2314 10.4634L22.7278 10.3595C22.4082 5.75571 18.7443 2.09175 14.1405 1.7722L14.0366 3.2686ZM11.25 1.75C10.5662 1.75 10.1859 1.74955 9.85949 1.7722L9.96336 3.2686C10.2248 3.25045 10.541 3.25 11.25 3.25V1.75ZM2.75 11.75C2.75 11.041 2.75045 10.7248 2.7686 10.4634L1.2722 10.3595C1.24955 10.6859 1.25 11.0662 1.25 11.75H2.75ZM4.23193 17.0585C3.39979 15.9157 2.8727 14.5363 2.7686 13.0366L1.2722 13.1405C1.39635 14.9291 2.02589 16.5772 3.01935 17.9415L4.23193 17.0585ZM2.9296 17.2207L1.32436 21.2207L2.71645 21.7793L4.32168 17.7793L2.9296 17.2207ZM9.96336 20.2314C8.84212 20.1536 7.78869 19.8394 6.85114 19.3385L6.14431 20.6615C7.26463 21.2601 8.5231 21.635 9.85949 21.7278L9.96336 20.2314ZM2.25865 22.2112L6.73598 20.7112L6.25947 19.2888L1.78215 20.7888L2.25865 22.2112ZM21.2314 13.0366C21.1163 14.6954 20.4836 16.2073 19.4927 17.4146L20.6521 18.3663C21.8346 16.9256 22.5904 15.1193 22.7278 13.1405L21.2314 13.0366ZM9.85949 1.7722C8.29446 1.88083 6.83671 2.37645 5.58252 3.16453L6.38058 4.43461C7.4306 3.77482 8.65072 3.35971 9.96336 3.2686L9.85949 1.7722ZM3.69295 4.73684C2.31324 6.23588 1.4225 8.19421 1.2722 10.3595L2.7686 10.4634C2.89456 8.6487 3.64006 7.00926 4.79663 5.75266L3.69295 4.73684ZM17.9919 18.816C16.8623 19.6204 15.5074 20.1293 14.0366 20.2314L14.1405 21.7278C15.8945 21.6061 17.5134 20.9983 18.862 20.0379L17.9919 18.816Z" fill="#141B34"/>
<path d="M2 3L22 23" stroke="#141B34" stroke-width="1.5"/>
</svg>
