<svg width="24" height="24" viewBox="0 0 24 24" fill="none" xmlns="http://www.w3.org/2000/svg">
<path d="M2 8.5H1.25C1.25 8.91421 1.58579 9.25 2 9.25V8.5ZM2 3V2.25C1.58579 2.25 1.25 2.58579 1.25 3H2ZM20 3H20.75C20.75 2.58579 20.4142 2.25 20 2.25V3ZM20 11V11.75C20.4142 11.75 20.75 11.4142 20.75 11H20ZM15 11L14.3036 11.2785C14.4175 11.5633 14.6933 11.75 15 11.75V11ZM14 8.5L14.6964 8.22146L14.5078 7.75H14V8.5ZM10 8.5V7.75H9.25V8.5H10ZM6 7.75H2V9.25H6V7.75ZM2 3.75H20V2.25H2V3.75ZM19.25 3V11H20.75V3H19.25ZM20 10.25H15V11.75H20V10.25ZM14 7.75H10V9.25H14V7.75ZM9.25 8.5V17H10.75V8.5H9.25ZM9.25 17C9.25 19.6234 11.3766 21.75 14 21.75V20.25C12.2051 20.25 10.75 18.7949 10.75 17H9.25ZM15.6964 10.7215L14.6964 8.22146L13.3036 8.77854L14.3036 11.2785L15.6964 10.7215ZM2.75 8.5V3H1.25V8.5H2.75Z" fill="#141B34"/>
<path d="M4 8.5V21" stroke="#141B34" stroke-width="1.5" stroke-linejoin="round"/>
<path d="M2 21H22" stroke="#141B34" stroke-width="1.5" stroke-linejoin="round"/>
<path d="M21 15H14V17.5159C14 19.4401 15.567 21 17.5 21C19.433 21 21 19.4401 21 17.5159V15Z" stroke="#141B34" stroke-width="1.5"/>
<path d="M17.5 11V15" stroke="#141B34" stroke-width="1.5" stroke-linejoin="round"/>
<path d="M17.008 6L16.999 6" stroke="#141B34" stroke-width="2" stroke-linecap="round" stroke-linejoin="round"/>
</svg>
