<svg width="24" height="24" viewBox="0 0 24 24" fill="none" xmlns="http://www.w3.org/2000/svg">
<path d="M13 7C13.5 6.5 14 5.61496 14 5C14 3.61929 12 2 12 2C12 2 10 3.61929 10 5C10 5.61496 10.5 6.5 11 7" stroke="#141B34" stroke-width="1.5" stroke-linejoin="round"/>
<path d="M8.5 7H15.5" stroke="#141B34" stroke-width="1.5" stroke-linejoin="round"/>
<path d="M11 7L9 16.5M13 7L15 16.5" stroke="#141B34" stroke-width="1.5" stroke-linejoin="round"/>
<path d="M5 17V16.25C4.7298 16.25 4.48048 16.3953 4.34735 16.6305C4.21422 16.8656 4.21786 17.1542 4.35688 17.3859L5 17ZM19 17L19.6431 17.3859C19.7821 17.1542 19.7858 16.8656 19.6526 16.6305C19.5195 16.3953 19.2702 16.25 19 16.25V17ZM16 22V22.75H16.4246L16.6431 22.3859L16 22ZM8 22L7.35688 22.3859L7.57536 22.75H8V22ZM19 16.25H5V17.75H19V16.25ZM16 21.25H8V22.75H16V21.25ZM18.3569 16.6141L15.3569 21.6141L16.6431 22.3859L19.6431 17.3859L18.3569 16.6141ZM8.64312 21.6141L5.64312 16.6141L4.35688 17.3859L7.35688 22.3859L8.64312 21.6141Z" fill="#141B34"/>
<path d="M12 22V19" stroke="#141B34" stroke-width="1.5" stroke-linejoin="round"/>
</svg>
