<svg width="24" height="24" viewBox="0 0 24 24" fill="none" xmlns="http://www.w3.org/2000/svg">
<path d="M19 5.14917C20.8558 5.42792 22 6.00005 22 6.00005V21C22 21 20 20 17 20C15.0829 20 13.3325 20.3777 12 21C10.6675 21.6224 8.91707 22 7 22C5.93408 22 4.5 22 2 21V6.00005C3.2305 6.49224 4.20276 6.74218 5 6.8691" stroke="#141B34" stroke-width="1.5"/>
<path d="M14.5 13.5C14.5 14.8807 13.3807 16 12 16C10.6193 16 9.5 14.8807 9.5 13.5C9.5 12.1193 10.6193 11 12 11C13.3807 11 14.5 12.1193 14.5 13.5Z" stroke="#141B34" stroke-width="1.5" stroke-linejoin="round"/>
<path d="M5.5 14.5L5.5 14.509" stroke="#141B34" stroke-width="2" stroke-linecap="square" stroke-linejoin="round"/>
<path d="M18.5 12.4922L18.5 12.5012" stroke="#141B34" stroke-width="2" stroke-linecap="square" stroke-linejoin="round"/>
<path d="M12 2V6M8 5L8 7M16 3V5" stroke="#141B34" stroke-width="1.5" stroke-linejoin="round"/>
</svg>
