<svg width="24" height="24" viewBox="0 0 24 24" fill="none" xmlns="http://www.w3.org/2000/svg">
<path d="M18 2L18.5303 1.46967L18 0.93934L17.4697 1.46967L18 2ZM14 6L13.4697 5.46967L12.9393 6L13.4697 6.53033L14 6ZM22 6L22.5303 6.53033L23.0607 6L22.5303 5.46967L22 6ZM18 10L17.4697 10.5303L18 11.0607L18.5303 10.5303L18 10ZM14 6.75H22V5.25H14V6.75ZM18.75 10V2H17.25V10H18.75ZM19.9697 5.03033L21.4697 6.53033L22.5303 5.46967L21.0303 3.96967L19.9697 5.03033ZM17.4697 2.53033L18.9697 4.03033L20.0303 2.96967L18.5303 1.46967L17.4697 2.53033ZM17.0303 4.03033L18.5303 2.53033L17.4697 1.46967L15.9697 2.96967L17.0303 4.03033ZM14.5303 6.53033L16.0303 5.03033L14.9697 3.96967L13.4697 5.46967L14.5303 6.53033ZM21.4697 5.46967L19.9697 6.96967L21.0303 8.03033L22.5303 6.53033L21.4697 5.46967ZM18.9697 7.96967L17.4697 9.46967L18.5303 10.5303L20.0303 9.03033L18.9697 7.96967ZM18.5303 9.46967L17.0303 7.96967L15.9697 9.03033L17.4697 10.5303L18.5303 9.46967ZM16.0303 6.96967L14.5303 5.46967L13.4697 6.53033L14.9697 8.03033L16.0303 6.96967Z" fill="#141B34"/>
<path d="M17.3211 12.9618L16.7891 13.4905L17.3211 12.9618ZM16.9985 18.6892L17.6749 19.0131L17.6749 19.0131L16.9985 18.6892ZM15.8919 20.9973L15.2157 20.6729L15.1419 20.8267V20.9973H15.8919ZM7 15L6.45675 15.5171L7.75 16.8758V15H7ZM4.78341 12.6713L5.32666 12.1542L5.30439 12.1308L5.2802 12.1094L4.78341 12.6713ZM2.3775 15.0886L2.97541 14.6359L2.9711 14.6302L2.96668 14.6246L2.3775 15.0886ZM6.85181 20.9973H7.60181V20.7454L7.44972 20.5446L6.85181 20.9973ZM2.36948 12.9053L1.77682 12.4457L1.77682 12.4457L2.36948 12.9053ZM7 4.75H7.75H7ZM10.5 4.75H11.25H10.5ZM10.5 10.5H9.75V11.2841L10.5333 11.2493L10.5 10.5ZM16.7891 13.4905C17.2053 13.9093 17.3421 14.6569 17.1903 15.671C17.0439 16.6486 16.657 17.6658 16.322 18.3653L17.6749 19.0131C18.0471 18.2359 18.4975 17.0699 18.6737 15.8931C18.8445 14.7529 18.789 13.3751 17.8531 12.4332L16.7891 13.4905ZM16.322 18.3653C16.1309 18.7645 15.8543 19.3413 15.6255 19.8185C15.5111 20.0571 15.4086 20.2707 15.3348 20.4247C15.2978 20.5016 15.2681 20.5637 15.2475 20.6065C15.2372 20.6279 15.2293 20.6445 15.2239 20.6558C15.2212 20.6614 15.2191 20.6657 15.2178 20.6686C15.2171 20.67 15.2165 20.6711 15.2162 20.6718C15.216 20.6722 15.2159 20.6725 15.2158 20.6726C15.2158 20.6727 15.2157 20.6728 15.2157 20.6729C15.2157 20.6729 15.2157 20.6729 15.2157 20.6729C15.2157 20.6729 15.2157 20.6729 15.8919 20.9973C16.5681 21.3217 16.5681 21.3217 16.5681 21.3217C16.5681 21.3217 16.5681 21.3217 16.5681 21.3216C16.5681 21.3216 16.5682 21.3215 16.5682 21.3214C16.5683 21.3213 16.5684 21.321 16.5686 21.3206C16.569 21.3199 16.5695 21.3188 16.5702 21.3174C16.5716 21.3145 16.5736 21.3102 16.5763 21.3046C16.5817 21.2933 16.5897 21.2767 16.6 21.2553C16.6205 21.2125 16.6503 21.1504 16.6872 21.0734C16.7611 20.9194 16.8636 20.7057 16.978 20.4671C17.2068 19.9899 17.4835 19.4127 17.6749 19.0131L16.322 18.3653ZM7.54325 14.4829L5.32666 12.1542L4.24016 13.1883L6.45675 15.5171L7.54325 14.4829ZM1.77958 15.5414L6.25389 21.4501L7.44972 20.5446L2.97541 14.6359L1.77958 15.5414ZM1.77682 12.4457C1.07019 13.3568 1.07482 14.6468 1.78831 15.5527L2.96668 14.6246C2.67956 14.26 2.67752 13.7319 2.96214 13.3649L1.77682 12.4457ZM5.2802 12.1094C4.22827 11.1793 2.63524 11.3388 1.77682 12.4457L2.96214 13.3649C3.29514 12.9355 3.89049 12.8829 4.28661 13.2331L5.2802 12.1094ZM15.1419 20.9973V22H16.6419V20.9973H15.1419ZM6.25 4.75V15H7.75V4.75H6.25ZM9.75 4.75V10.5H11.25V4.75H9.75ZM10.5333 11.2493C12.1369 11.1779 14.8679 11.557 16.7891 13.4905L17.8531 12.4332C15.5111 10.0763 12.2796 9.67013 10.4667 9.75074L10.5333 11.2493ZM7.75 4.75C7.75 4.19772 8.19772 3.75 8.75 3.75V2.25C7.36929 2.25 6.25 3.36929 6.25 4.75H7.75ZM8.75 3.75C9.30228 3.75 9.75 4.19772 9.75 4.75H11.25C11.25 3.36929 10.1307 2.25 8.75 2.25V3.75ZM7.60181 22V20.9973H6.10181V22H7.60181Z" fill="#141B34"/>
</svg>
