<svg width="24" height="24" viewBox="0 0 24 24" fill="none" xmlns="http://www.w3.org/2000/svg">
<path d="M10 12L11 8H13L14 12" stroke="#141B34" stroke-width="1.5"/>
<path d="M22 3C22 5.90733 19.0318 8.40594 15.5 9.5M2 3C2 5.90733 4.96819 8.40594 8.5 9.5" stroke="#141B34" stroke-width="1.5" stroke-linejoin="round"/>
<path d="M11.4828 12.534L11.946 11.9441C11.9418 11.9408 11.9375 11.9375 11.9332 11.9343L11.4828 12.534ZM8.26872 12.4971L7.87657 11.8578V11.8578L8.26872 12.4971ZM10.1698 20.1417L10.616 19.5388L10.1698 20.1417ZM12.5172 12.534L12.0668 11.9343C12.0629 11.9372 12.0591 11.9402 12.0553 11.9431L12.5172 12.534ZM15.7313 12.4971L16.1234 11.8578V11.8578L15.7313 12.4971ZM13.8302 20.1417L13.384 19.5388V19.5388L13.8302 20.1417ZM12 21L11.8041 21.724C11.9324 21.7587 12.0676 21.7587 12.1959 21.724L12 21ZM11.9989 12.9392L11.5357 13.5291L11.9979 13.892L12.4608 13.5301L11.9989 12.9392ZM11.9332 11.9343C11.0207 11.249 9.51672 10.8517 7.87657 11.8578L8.66087 13.1364C9.70237 12.4975 10.5389 12.7631 11.0324 13.1337L11.9332 11.9343ZM7.87657 11.8578C6.69517 12.5824 6.0748 14.0634 6.29393 15.6972C6.51502 17.3457 7.57342 19.153 9.72357 20.7445L10.616 19.5388C8.70721 18.1261 7.93524 16.6508 7.78062 15.4979C7.62402 14.3303 8.08259 13.4911 8.66087 13.1364L7.87657 11.8578ZM12.9676 13.1337C13.4611 12.7631 14.2976 12.4975 15.3391 13.1364L16.1234 11.8578C14.4833 10.8517 12.9793 11.249 12.0668 11.9343L12.9676 13.1337ZM15.3391 13.1364C15.9174 13.4911 16.376 14.3303 16.2194 15.4979C16.0648 16.6508 15.2928 18.1261 13.384 19.5388L14.2764 20.7445C16.4266 19.153 17.485 17.3457 17.7061 15.6972C17.9252 14.0634 17.3048 12.5824 16.1234 11.8578L15.3391 13.1364ZM9.72357 20.7445C10.1844 21.0856 10.7092 21.3284 11.0984 21.4826C11.297 21.5613 11.4692 21.6205 11.5931 21.6603C11.6552 21.6803 11.7056 21.6956 11.7416 21.7061C11.7596 21.7114 11.774 21.7156 11.7845 21.7185C11.7898 21.72 11.7941 21.7212 11.7973 21.7221C11.799 21.7226 11.8003 21.7229 11.8015 21.7232C11.802 21.7234 11.8025 21.7235 11.803 21.7237C11.8032 21.7237 11.8034 21.7238 11.8036 21.7238C11.8037 21.7238 11.8038 21.7239 11.8038 21.7239C11.8039 21.7239 11.8041 21.724 12 21C12.1959 20.276 12.196 20.2761 12.1961 20.2761C12.1962 20.2761 12.1963 20.2761 12.1963 20.2762C12.1965 20.2762 12.1966 20.2762 12.1966 20.2762C12.1968 20.2763 12.1969 20.2763 12.197 20.2763C12.1971 20.2764 12.1969 20.2763 12.1966 20.2762C12.1958 20.276 12.194 20.2755 12.1914 20.2748C12.186 20.2733 12.177 20.2707 12.1646 20.267C12.1397 20.2597 12.1015 20.2482 12.0524 20.2324C11.9539 20.2007 11.8135 20.1525 11.6511 20.0882C11.3185 19.9564 10.9283 19.77 10.616 19.5388L9.72357 20.7445ZM13.384 19.5388C13.0717 19.77 12.6815 19.9564 12.3489 20.0882C12.1865 20.1525 12.0461 20.2007 11.9476 20.2324C11.8985 20.2482 11.8603 20.2597 11.8354 20.267C11.823 20.2707 11.814 20.2733 11.8086 20.2748C11.806 20.2755 11.8042 20.276 11.8034 20.2762C11.8031 20.2763 11.8029 20.2764 11.803 20.2763C11.8031 20.2763 11.8032 20.2763 11.8034 20.2762C11.8034 20.2762 11.8035 20.2762 11.8037 20.2762C11.8037 20.2761 11.8038 20.2761 11.8039 20.2761C11.804 20.2761 11.8041 20.276 12 21C12.1959 21.724 12.1961 21.7239 12.1962 21.7239C12.1962 21.7239 12.1963 21.7238 12.1964 21.7238C12.1966 21.7238 12.1968 21.7237 12.197 21.7237C12.1975 21.7235 12.198 21.7234 12.1985 21.7232C12.1997 21.7229 12.201 21.7226 12.2027 21.7221C12.2059 21.7212 12.2102 21.72 12.2155 21.7185C12.226 21.7156 12.2404 21.7114 12.2584 21.7061C12.2944 21.6956 12.3448 21.6803 12.4069 21.6603C12.5308 21.6205 12.703 21.5613 12.9016 21.4826C13.2908 21.3284 13.8156 21.0856 14.2764 20.7445L13.384 19.5388ZM12.0553 11.9431L11.5369 12.3483L12.4608 13.5301L12.9791 13.1249L12.0553 11.9431ZM12.462 12.3493L11.946 11.9441L11.0196 13.1239L11.5357 13.5291L12.462 12.3493Z" fill="#141B34"/>
</svg>
