<svg width="24" height="24" viewBox="0 0 24 24" fill="none" xmlns="http://www.w3.org/2000/svg">
<path d="M9 21C9.79613 21.6219 10.8475 22 12 22C13.1525 22 14.2039 21.6219 15 21" stroke="#141B34" stroke-width="1.5" stroke-linejoin="round"/>
<path d="M21.5 16L21.989 16.5687C22.2614 16.3344 22.3294 15.9399 22.1512 15.6279L21.5 16ZM2.5 16L1.84882 15.6279C1.67056 15.9399 1.73858 16.3344 2.011 16.5687L2.5 16ZM4.5 12.5L5.15118 12.8721L5.25 12.6992V12.5H4.5ZM12 19.75C16.0514 19.75 19.7088 18.5294 21.989 16.5687L21.011 15.4313C19.0683 17.1018 15.7895 18.25 12 18.25V19.75ZM2.011 16.5687C4.29125 18.5294 7.94862 19.75 12 19.75V18.25C8.21053 18.25 4.93165 17.1018 2.989 15.4313L2.011 16.5687ZM22.1512 15.6279L20.1512 12.1279L18.8488 12.8721L20.8488 16.3721L22.1512 15.6279ZM3.75 9.5V12.5H5.25V9.5H3.75ZM3.84882 12.1279L1.84882 15.6279L3.15118 16.3721L5.15118 12.8721L3.84882 12.1279ZM12 1.25C7.44365 1.25 3.75 4.94365 3.75 9.5H5.25C5.25 5.77208 8.27208 2.75 12 2.75V1.25ZM14.1995 1.54665C13.4984 1.35314 12.7607 1.25 12 1.25V2.75C12.6245 2.75 13.2281 2.83462 13.8005 2.99259L14.1995 1.54665Z" fill="#141B34"/>
<path d="M15.5 4H21V4.5L16 9.5V10H21.5" stroke="#141B34" stroke-width="1.5"/>
</svg>
