<svg width="24" height="24" viewBox="0 0 24 24" fill="none" xmlns="http://www.w3.org/2000/svg">
<path d="M13.5839 10.4462L13.0559 10.9787L13.5839 10.4462ZM17.5374 13.3479L17.193 14.0142H17.193L17.5374 13.3479ZM21.0808 11.5292L20.3319 11.4875L21.0808 11.5292ZM18.7063 5.3669L18.1782 5.89946L18.7063 5.3669ZM10.6576 6.52591L11.3214 6.17687L11.3214 6.17687L10.6576 6.52591ZM12.4917 3.01236L12.5327 3.76124L12.4917 3.01236ZM10.2438 3.95935L9.59333 3.58593L10.2438 3.95935ZM20.1258 13.7583L19.7571 13.1052L20.1258 13.7583ZM13.0559 10.9787C14.3353 12.2474 15.7453 13.2657 17.193 14.0142L17.8819 12.6817C16.5729 12.005 15.2861 11.0778 14.112 9.91361L13.0559 10.9787ZM21.8296 11.5709C21.9644 9.14991 21.0986 6.68288 19.2344 4.83433L18.1782 5.89946C19.7265 7.4348 20.4437 9.47886 20.3319 11.4875L21.8296 11.5709ZM9.99375 6.87495C10.7491 8.31149 11.7765 9.7101 13.0559 10.9787L14.112 9.91361C12.938 8.74945 12.0033 7.47383 11.3214 6.17687L9.99375 6.87495ZM19.2344 4.83433C17.3705 2.98618 14.8861 2.13018 12.4507 2.26348L12.5327 3.76124C14.5645 3.65003 16.6294 4.36372 18.1782 5.89946L19.2344 4.83433ZM11.3214 6.17687C11.0031 5.57156 10.8358 5.24099 10.7733 4.96617C10.7287 4.77056 10.737 4.60659 10.8942 4.33276L9.59333 3.58593C9.26216 4.16278 9.17659 4.71014 9.31069 5.29916C9.42676 5.80896 9.71056 6.33634 9.99375 6.87495L11.3214 6.17687ZM12.4507 2.26348C11.9028 2.29347 11.3418 2.31773 10.8661 2.48202C10.3159 2.6721 9.91384 3.02766 9.59333 3.58593L10.8942 4.33276C11.0621 4.04036 11.1975 3.95453 11.3559 3.89983C11.5888 3.81935 11.9076 3.79545 12.5327 3.76124L12.4507 2.26348ZM17.193 14.0142C17.7369 14.2954 18.267 14.5757 18.7787 14.6903C19.3675 14.8221 19.915 14.7385 20.4944 14.4114L19.7571 13.1052C19.4786 13.2623 19.3087 13.2718 19.1063 13.2265C18.8267 13.1639 18.4916 12.9969 17.8819 12.6817L17.193 14.0142ZM20.3319 11.4875C20.2974 12.1082 20.2733 12.4214 20.1931 12.6498C20.1392 12.803 20.0542 12.9374 19.7571 13.1052L20.4944 14.4114C21.0552 14.0949 21.4153 13.6963 21.6083 13.1469C21.7749 12.6726 21.7994 12.1134 21.8296 11.5709L20.3319 11.4875ZM19.1725 5.95442C19.5005 5.69411 20.0938 5.34936 20.7494 5.19703C21.394 5.04725 22.021 5.09689 22.5524 5.49209L23.4476 4.28846C22.4539 3.5495 21.332 3.52172 20.4099 3.73594C19.4989 3.9476 18.7078 4.40824 18.2401 4.77937L19.1725 5.95442Z" fill="#141B34"/>
<path d="M10 6C7 7 3.33733 9.75803 3.04446 12.9793C2.71209 16.6351 4.374 18.297 3.70931 20.2911C5.70339 19.6264 7.36491 21.2879 11.0207 20.9555C14.242 20.6627 17 17 18 14" stroke="#141B34" stroke-width="1.5"/>
</svg>
