<svg width="24" height="24" viewBox="0 0 24 24" fill="none" xmlns="http://www.w3.org/2000/svg">
<path d="M2 12L1.3952 11.5565C1.2016 11.8205 1.2016 12.1795 1.3952 12.4435L2 12ZM7.5 19.5L6.8952 19.9435L7.11995 20.25H7.5V19.5ZM7.5 4.5V3.75H7.11995L6.8952 4.05648L7.5 4.5ZM22 19.5V20.25C22.4142 20.25 22.75 19.9142 22.75 19.5H22ZM22 4.5H22.75C22.75 4.08579 22.4142 3.75 22 3.75V4.5ZM7.5 5.25H22V3.75H7.5V5.25ZM22 18.75H7.5V20.25H22V18.75ZM8.1048 19.0565L2.6048 11.5565L1.3952 12.4435L6.8952 19.9435L8.1048 19.0565ZM2.6048 12.4435L8.1048 4.94352L6.8952 4.05648L1.3952 11.5565L2.6048 12.4435ZM22.75 19.5V4.5H21.25V19.5H22.75Z" fill="#141B34"/>
<path d="M8.99981 12H9.00879" stroke="#141B34" stroke-width="2" stroke-linecap="square" stroke-linejoin="round"/>
<path d="M12.9998 12H13.0088" stroke="#141B34" stroke-width="2" stroke-linecap="square" stroke-linejoin="round"/>
<path d="M16.9998 12H17.0088" stroke="#141B34" stroke-width="2" stroke-linecap="square" stroke-linejoin="round"/>
</svg>
