<svg width="24" height="24" viewBox="0 0 24 24" fill="none" xmlns="http://www.w3.org/2000/svg">
<path d="M19 15C19 18.866 15.866 22 12 22C8.13401 22 5 18.866 5 15C5 11.134 8.13401 8 12 8C15.866 8 19 11.134 19 15Z" stroke="#141B34" stroke-width="1.5" stroke-linejoin="round"/>
<path d="M13 15C13 16.3807 11.8807 17.5 10.5 17.5C9.11929 17.5 8 16.3807 8 15" stroke="#141B34" stroke-width="1.5" stroke-linejoin="round"/>
<path d="M16.5405 6.03255L18 3.48633L12.4609 2V4.97406M16.5405 6.03255L12.4609 4.97406M16.5405 6.03255L18 6.41124M16.5405 6.03255L15.6587 9M12.4609 4.97406L11 4.595M12.4609 4.97406L11.5176 7.99751" stroke="#141B34" stroke-width="1.5" stroke-linejoin="round"/>
<path d="M5 15H19" stroke="#141B34" stroke-width="1.5" stroke-linejoin="round"/>
<path d="M14.008 12L13.999 12" stroke="#141B34" stroke-width="2" stroke-linecap="round" stroke-linejoin="round"/>
</svg>
