<svg width="24" height="24" viewBox="0 0 24 24" fill="none" xmlns="http://www.w3.org/2000/svg">
<path d="M20.0004 2H20.7504V1.25H20.0004V2ZM5.00195 17L4.25195 16.9999C4.25193 17.1988 4.33094 17.3896 4.47159 17.5303C4.61225 17.671 4.80303 17.75 5.00195 17.75V17ZM15.0002 8.99994V8.24994C14.6968 8.24994 14.4233 8.43274 14.3073 8.71307C14.1912 8.9934 14.2555 9.31604 14.4701 9.53049L15.0002 8.99994ZM17.002 11L17.5323 11.5303C17.673 11.3896 17.752 11.1988 17.752 10.9998C17.7519 10.8009 17.6728 10.6101 17.5321 10.4695L17.002 11ZM20.0004 1.25C16.8965 1.25 12.9713 2.023 9.80224 4.40005C6.59691 6.80434 4.25266 10.7858 4.25195 16.9999L5.75195 17.0001C5.75261 11.2142 7.90835 7.69572 10.7023 5.59999C13.5326 3.47703 17.1059 2.75 20.0004 2.75V1.25ZM5.00195 17.75C9.27102 17.75 13.4505 15.6121 17.5323 11.5303L16.4716 10.4697C12.5534 14.3879 8.73289 16.25 5.00195 16.25V17.75ZM17.5321 10.4695L15.5304 8.46939L14.4701 9.53049L16.4718 11.5305L17.5321 10.4695ZM15.0002 9.74994C17.0496 9.74994 18.5235 8.70463 19.4505 7.20726C20.3584 5.74075 20.7504 3.84093 20.7504 2H19.2504C19.2504 3.65907 18.8924 5.25922 18.1752 6.41768C17.4771 7.54529 16.4509 8.24994 15.0002 8.24994V9.74994Z" fill="#141B34"/>
<path d="M4 22C4 14.5 11 11 11 11" stroke="#141B34" stroke-width="1.5" stroke-linejoin="round"/>
</svg>
