<svg width="24" height="24" viewBox="0 0 24 24" fill="none" xmlns="http://www.w3.org/2000/svg">
<path d="M3 3V21L21 21V3H3Z" stroke="#141B34" stroke-width="1.5" stroke-linejoin="round"/>
<path d="M18.0002 14H18.0092M18 17.5H18.009" stroke="#141B34" stroke-width="1.5" stroke-linecap="square" stroke-linejoin="round"/>
<path d="M7.5 18.5V13H10.5" stroke="#141B34" stroke-width="1.5"/>
<path d="M15.5 15.5V16.25H16.25V15.5H15.5ZM11.25 14.75V15.5H12.75V14.75H11.25ZM11.25 15.5V16.25H12.75V15.5H11.25ZM12 16.25H15.5V14.75H12V16.25ZM16.25 15.5V14.75H14.75V15.5H16.25ZM16.25 14.75C16.25 13.3693 15.1307 12.25 13.75 12.25V13.75C14.3023 13.75 14.75 14.1977 14.75 14.75H16.25ZM13.75 17.25C13.1977 17.25 12.75 16.8023 12.75 16.25H11.25C11.25 17.6307 12.3693 18.75 13.75 18.75V17.25ZM12.75 14.75C12.75 14.1977 13.1977 13.75 13.75 13.75V12.25C12.3693 12.25 11.25 13.3693 11.25 14.75H12.75ZM13.75 18.75C14.4494 18.75 15.0828 18.4618 15.5357 17.9997L14.4643 16.9498C14.2819 17.1359 14.03 17.25 13.75 17.25V18.75Z" fill="#141B34"/>
</svg>
