<svg width="24" height="24" viewBox="0 0 24 24" fill="none" xmlns="http://www.w3.org/2000/svg">
<path d="M22 20V20.75C22.3033 20.75 22.5768 20.5673 22.6929 20.287C22.809 20.0068 22.7448 19.6842 22.5303 19.4697L22 20ZM4 2L4.53033 1.46967C4.31583 1.25517 3.99324 1.191 3.71299 1.30709C3.43273 1.42318 3.25 1.69665 3.25 2H4ZM4 11H4.75V10.25H4V11ZM4 20H3.25C3.25 20.4142 3.58579 20.75 4 20.75V20ZM13 20H13.75V19.25H13V20ZM22.5303 19.4697L4.53033 1.46967L3.46967 2.53033L21.4697 20.5303L22.5303 19.4697ZM3.25 11V20H4.75V11H3.25ZM4 10.25H2V11.75H4V10.25ZM3.25 2V8H4.75V2H3.25ZM4 20.75H13V19.25H4V20.75ZM12.25 20V22H13.75V20H12.25ZM16 20.75H22V19.25H16V20.75Z" fill="#141B34"/>
<path d="M4 15H9V20" stroke="#141B34" stroke-width="1.5" stroke-linejoin="round"/>
</svg>
