<svg width="24" height="24" viewBox="0 0 24 24" fill="none" xmlns="http://www.w3.org/2000/svg">
<path d="M20.0007 2V6C18.1763 3.57111 15.2716 2 12 2C6.47715 2 2 6.47715 2 12C2 15.9582 4.2997 19.3793 7.63587 21" stroke="#141B34" stroke-width="1.5" stroke-linejoin="round"/>
<path d="M12.265 22.0001C11.7982 22.0001 11.3387 21.9688 10.8887 21.9084M21.7344 8.66675C21.8468 9.06394 21.935 9.46536 21.9998 9.86901M21.9652 13.5381C21.8949 13.9381 21.8033 14.3343 21.6913 14.7245M20.1669 17.9963C19.9285 18.3497 19.6702 18.69 19.3927 19.0147M16.5712 21.3607C16.2175 21.5632 15.8494 21.7464 15.4675 21.9084" stroke="#141B34" stroke-width="1.5" stroke-linecap="square" stroke-linejoin="round"/>
</svg>
