<svg width="24" height="24" viewBox="0 0 24 24" fill="none" xmlns="http://www.w3.org/2000/svg">
<path d="M14.5 5V5.75H15.25V5H14.5ZM12 5.75H14.5V4.25H12V5.75ZM15.25 5V2H13.75V5H15.25ZM15.1249 4.58529C13.4735 2.09682 10.913 1.05365 8.43277 1.30966C5.96553 1.56433 3.61659 3.09854 2.32964 5.66362L3.67036 6.33628C4.73183 4.22062 6.63839 3.00285 8.58679 2.80173C10.5222 2.60196 12.5375 3.39918 13.8751 5.41471L15.1249 4.58529Z" fill="#141B34"/>
<path d="M18.8507 11.9214C19.4739 11.5674 20.2768 11.7884 20.6442 12.4152C21.0115 13.0419 20.8042 13.837 20.181 14.1911L18.6766 15.0459M18.8507 11.9214L20.3552 11.0666C20.9783 10.7125 21.1857 9.91742 20.8183 9.29066C20.451 8.66391 19.648 8.44286 19.0248 8.79694L17.8966 9.43821M18.8507 11.9214L14.7135 14.2722M17.8966 9.43821C18.5194 9.084 18.7266 8.28912 18.3593 7.66253C17.9919 7.03577 17.189 6.81473 16.5658 7.1688L10.2006 10.7853L10.7047 8.86473C10.9259 8.02206 10.3577 7.1639 9.48677 7.02534C8.82037 6.91931 8.17326 7.27361 7.91354 7.88669L5.5 14L4 14.8127M17.8966 9.43821L14.1355 11.5753M8.21264 22L10 21C10 21 11.6555 21.5333 12.1182 21.464C12.9158 21.3447 13.7332 20.8803 15.368 19.9514L20.0069 17.3156C20.63 16.9615 20.8374 16.1664 20.4701 15.5397C20.1027 14.9129 19.2997 14.6919 18.6766 15.0459M15.2916 16.9693L18.6766 15.0459" stroke="#141B34" stroke-width="1.5"/>
</svg>
