<svg width="24" height="24" viewBox="0 0 24 24" fill="none" xmlns="http://www.w3.org/2000/svg">
<path d="M9 5V5.75H8.25V5H9ZM11.5 5.75H9V4.25H11.5V5.75ZM8.25 5V2H9.75V5H8.25ZM8.37509 4.58529C10.0265 2.09682 12.587 1.05365 15.0672 1.30966C17.5345 1.56433 19.8834 3.09854 21.1704 5.66362L19.8296 6.33628C18.7682 4.22062 16.8616 3.00285 14.9132 2.80173C12.9778 2.60196 10.9625 3.39918 9.62491 5.41471L8.37509 4.58529Z" fill="#141B34"/>
<path d="M7.62586 10.4608L7.18196 11.2259C6.69164 12.071 6.98262 13.1515 7.83188 13.6394M7.83188 13.6394L8.60074 14.0812M7.83188 13.6394C7.40725 13.3955 6.86427 13.5403 6.61911 13.9628C6.12879 14.8079 6.41977 15.8885 7.26903 16.3764M7.26903 16.3764L8.03789 16.8181M7.26903 16.3764C6.86655 16.1451 6.35175 16.3289 6.18871 16.7619L6.08059 17.0491C5.77608 17.8579 6.10384 18.7672 6.85554 19.1991L7.98794 19.8492C9.65893 20.8092 10.4945 21.2892 11.3066 21.4181C11.7777 21.4928 13.8486 21 13.8486 21L15.2829 22M9.16368 11.3441L4.16608 8.47296C3.52913 8.10703 3.3109 7.29659 3.67864 6.66279C4.04638 6.02899 4.86084 5.81183 5.49778 6.17776L13.1576 10.5781L12.6272 8.62052C12.3944 7.7616 12.9643 6.89441 13.8486 6.76177C14.5253 6.66028 15.1866 7.02665 15.4563 7.65249L17.5 13.5C17.5 13.5 18.641 14.2384 19.5 14.7319" stroke="#141B34" stroke-width="1.5"/>
</svg>
