<svg width="24" height="24" viewBox="0 0 24 24" fill="none" xmlns="http://www.w3.org/2000/svg">
<path d="M19 6.5C19 5.67157 18.3284 5 17.5 5C16.6716 5 16 5.67157 16 6.5C16 7.32843 16.6716 8 17.5 8C18.3284 8 19 7.32843 19 6.5Z" stroke="#141B34" stroke-width="1.5" stroke-linecap="round" stroke-linejoin="round"/>
<path d="M22 2.00001H22.75V1.25001H22V2.00001ZM22 12L22.5303 12.5304C22.671 12.3897 22.75 12.199 22.75 12H22ZM12 22L11.4697 22.5303C11.7626 22.8232 12.2375 22.8232 12.5304 22.5303L12 22ZM2 12L1.46967 11.4697C1.32902 11.6103 1.25 11.8011 1.25 12C1.25 12.1989 1.32902 12.3897 1.46967 12.5303L2 12ZM12 2.00001V1.25001C11.8011 1.25001 11.6103 1.32903 11.4697 1.46968L12 2.00001ZM21.25 2.00001V12H22.75V2.00001H21.25ZM21.4697 11.4697L11.4697 21.4697L12.5304 22.5303L22.5303 12.5304L21.4697 11.4697ZM12.5304 21.4697L2.53033 11.4697L1.46967 12.5303L11.4697 22.5303L12.5304 21.4697ZM22 1.25001H12V2.75001H22V1.25001ZM11.4697 1.46968L1.46967 11.4697L2.53033 12.5303L12.5303 2.53034L11.4697 1.46968Z" fill="#141B34"/>
<path d="M13.9999 9.99917C13.4177 9.41795 12.4815 9.41031 11.9087 9.98211C11.336 10.5539 11.3073 11.1566 12.074 11.9219C12.8406 12.6873 12.9276 13.3658 12.1869 14.1053C11.4461 14.8449 10.635 14.6267 9.99989 13.9926M13.9999 9.99917L15 9M13.9999 9.99917C14.3951 10.3937 14.5255 10.9511 14.3894 11.4473M9.99989 13.9926L9 15M9.99989 13.9926C9.62488 13.6182 9.45368 13.1241 9.49425 12.6644" stroke="#141B34" stroke-width="1.5" stroke-linejoin="round"/>
</svg>
