<svg width="24" height="24" viewBox="0 0 24 24" fill="none" xmlns="http://www.w3.org/2000/svg">
<path d="M18.9648 7.0352L19.7037 6.90696L19.6134 6.38656L19.093 6.29625L18.9648 7.0352ZM20 13L20.5303 13.5303L20.8055 13.2552L20.739 12.8717L20 13ZM13 6L13.1282 5.26105L12.7448 5.1945L12.4697 5.46967L13 6ZM4 15L3.46967 14.4697C3.17678 14.7626 3.17678 15.2374 3.46967 15.5303L4 15ZM11 22L10.4697 22.5303C10.6103 22.671 10.8011 22.75 11 22.75C11.1989 22.75 11.3897 22.671 11.5303 22.5303L11 22ZM12.4697 5.46967L3.46967 14.4697L4.53033 15.5303L13.5303 6.53033L12.4697 5.46967ZM3.46967 15.5303L10.4697 22.5303L11.5303 21.4697L4.53033 14.4697L3.46967 15.5303ZM18.2258 7.16345L19.261 13.1282L20.739 12.8717L19.7037 6.90696L18.2258 7.16345ZM11.5303 22.5303L20.5303 13.5303L19.4697 12.4697L10.4697 21.4697L11.5303 22.5303ZM19.093 6.29625L18.1282 6.12881L17.8718 7.60672L18.8365 7.77416L19.093 6.29625ZM15.6282 5.69493L13.1282 5.26105L12.8718 6.73895L15.3718 7.17283L15.6282 5.69493Z" fill="#141B34"/>
<path d="M7 3.69682C9.78054 6.78172 14.3661 0.123717 17.0794 2.53998C18.6407 3.93028 19.0267 7 17 9" stroke="#141B34" stroke-width="1.5"/>
<path d="M14.4452 11.5547C13.8792 10.9897 12.9689 10.9822 12.4121 11.5382C11.8553 12.0941 11.8274 12.68 12.5727 13.4241C13.3181 14.1682 13.4027 14.8279 12.6825 15.5469C11.9623 16.2658 11.1737 16.0537 10.5563 15.4373M14.4452 11.5547L15.4999 10.5M14.4452 11.5547C14.8294 11.9383 14.9562 12.4802 14.8239 12.9627M10.5563 15.4373L9.49414 16.5M10.5563 15.4373C10.1917 15.0733 10.0252 14.5928 10.0647 14.146" stroke="#141B34" stroke-width="1.5" stroke-linejoin="round"/>
</svg>
