<svg width="24" height="24" viewBox="0 0 24 24" fill="none" xmlns="http://www.w3.org/2000/svg">
<path d="M7 22V11L12 7L17 11V22" stroke="#141B34" stroke-width="1.5" stroke-linejoin="round"/>
<path d="M12 13H12.009" stroke="#141B34" stroke-width="2" stroke-linecap="square" stroke-linejoin="round"/>
<path d="M21 22V15L17 13" stroke="#141B34" stroke-width="1.5"/>
<path d="M3 22V15L7 13" stroke="#141B34" stroke-width="1.5"/>
<path d="M2 22H22" stroke="#141B34" stroke-width="1.5" stroke-linecap="square" stroke-linejoin="round"/>
<path d="M12 22V18" stroke="#141B34" stroke-width="1.5"/>
<path d="M11.25 6.99999C11.25 7.4142 11.5858 7.74999 12 7.74999C12.4142 7.74999 12.75 7.4142 12.75 6.99999H11.25ZM12 2V1.25C11.5858 1.25 11.25 1.58579 11.25 2H12ZM16 4.9822V5.7322H16.75V4.9822H16ZM12.75 6.99999V4.9822H11.25V6.99999H12.75ZM12.75 4.9822V2H11.25V4.9822H12.75ZM16 4.2322H12V5.7322H16V4.2322ZM12 2.75C13.7834 2.75 14.534 3.39728 14.8771 3.90884C15.0632 4.18632 15.158 4.46701 15.2056 4.67985C15.2291 4.78533 15.2403 4.87071 15.2456 4.92558C15.2482 4.95289 15.2493 4.97221 15.2498 4.9822C15.25 4.98719 15.2501 4.9898 15.2501 4.98986C15.2501 4.9899 15.25 4.98929 15.25 4.98802C15.25 4.98738 15.25 4.98658 15.25 4.98561C15.25 4.98513 15.25 4.9846 15.25 4.98403C15.25 4.98375 15.25 4.98329 15.25 4.98315C15.25 4.98268 15.25 4.9822 16 4.9822C16.75 4.9822 16.75 4.98169 16.75 4.98118C16.75 4.98099 16.75 4.98046 16.75 4.98009C16.75 4.97934 16.75 4.97854 16.75 4.97769C16.75 4.976 16.75 4.97412 16.7499 4.97205C16.7499 4.96792 16.7498 4.96303 16.7497 4.95742C16.7495 4.9462 16.749 4.93207 16.7483 4.91521C16.7468 4.88151 16.744 4.83677 16.7388 4.78253C16.7284 4.67432 16.7084 4.52671 16.6694 4.35261C16.592 4.00628 16.4368 3.54143 16.1229 3.07336C15.466 2.09382 14.2166 1.25 12 1.25V2.75Z" fill="#141B34"/>
</svg>
