<svg width="24" height="24" viewBox="0 0 24 24" fill="none" xmlns="http://www.w3.org/2000/svg">
<path d="M22 21L22.093 21.7442C22.504 21.6928 22.7956 21.318 22.7442 20.907L22 21ZM14 22L13.2576 22.1066C13.3157 22.5113 13.6873 22.7949 14.093 22.7442L14 22ZM13.7548 15.0164C13.6959 14.6064 13.3158 14.3218 12.9057 14.3807C12.4957 14.4396 12.2111 14.8197 12.27 15.2297L13.7548 15.0164ZM20 2H20.75V1.25H20V2ZM20 5H19.25C19.25 5.0311 19.2519 5.06217 19.2558 5.09303L20 5ZM2 21L1.25579 20.907C1.20441 21.318 1.49596 21.6928 1.90697 21.7442L2 21ZM10 22L9.90697 22.7442C10.3127 22.7949 10.6843 22.5113 10.7424 22.1066L10 22ZM11.73 15.2297C11.7889 14.8197 11.5043 14.4396 11.0943 14.3807C10.6842 14.3218 10.3041 14.6064 10.2452 15.0164L11.73 15.2297ZM4 2V1.25H3.25V2H4ZM4 5L4.74421 5.09303C4.74807 5.06217 4.75 5.0311 4.75 5H4ZM21.907 20.2558L13.907 21.2558L14.093 22.7442L22.093 21.7442L21.907 20.2558ZM14.7424 21.8934L13.7548 15.0164L12.27 15.2297L13.2576 22.1066L14.7424 21.8934ZM19.25 2V5H20.75V2H19.25ZM19.2558 5.09303L21.2558 21.093L22.7442 20.907L20.7442 4.90697L19.2558 5.09303ZM1.90697 21.7442L9.90697 22.7442L10.093 21.2558L2.09303 20.2558L1.90697 21.7442ZM10.7424 22.1066L11.73 15.2297L10.2452 15.0164L9.25762 21.8934L10.7424 22.1066ZM3.25 2V5H4.75V2H3.25ZM3.25579 4.90697L1.25579 20.907L2.74421 21.093L4.74421 5.09303L3.25579 4.90697ZM20 1.25H4V2.75H20V1.25Z" fill="#141B34"/>
<path d="M8.5 13.5L10 15H14L15.5 13.5" stroke="#141B34" stroke-width="1.5" stroke-linejoin="round"/>
<path d="M4 5H20" stroke="#141B34" stroke-width="1.5" stroke-linecap="round" stroke-linejoin="round"/>
<path d="M3.5 11C3.5 11 7 11 7 5" stroke="#141B34" stroke-width="1.5" stroke-linecap="round" stroke-linejoin="round"/>
<path d="M17 5C17 11 20.5 11 20.5 11" stroke="#141B34" stroke-width="1.5" stroke-linecap="round" stroke-linejoin="round"/>
</svg>
