<svg width="24" height="24" viewBox="0 0 24 24" fill="none" xmlns="http://www.w3.org/2000/svg">
<path d="M6 8.5L18.0001 8.50006" stroke="#141B34" stroke-width="1.5"/>
<path d="M3 12.5H21" stroke="#141B34" stroke-width="1.5"/>
<path d="M12 2.5L12.5303 1.96967L12 1.43934L11.4697 1.96967L12 2.5ZM10.0303 5.53033L12.5303 3.03033L11.4697 1.96967L8.96967 4.46967L10.0303 5.53033ZM11.4697 3.03033L13.9697 5.53033L15.0303 4.46967L12.5303 1.96967L11.4697 3.03033ZM11.25 2.5V8.5H12.75V2.5H11.25Z" fill="#141B34"/>
<path d="M8 15.5L8.53033 14.9697L8 14.4393L7.46967 14.9697L8 15.5ZM6.03033 18.5303L8.53033 16.0303L7.46967 14.9697L4.96967 17.4697L6.03033 18.5303ZM7.46967 16.0303L9.96967 18.5303L11.0303 17.4697L8.53033 14.9697L7.46967 16.0303ZM7.25 15.5V21.5H8.75V15.5H7.25Z" fill="#141B34"/>
<path d="M16 15.5L16.5303 14.9697L16 14.4393L15.4697 14.9697L16 15.5ZM14.0303 18.5303L16.5303 16.0303L15.4697 14.9697L12.9697 17.4697L14.0303 18.5303ZM15.4697 16.0303L17.9697 18.5303L19.0303 17.4697L16.5303 14.9697L15.4697 16.0303ZM15.25 15.5V21.5H16.75V15.5H15.25Z" fill="#141B34"/>
</svg>
