<svg width="24" height="24" viewBox="0 0 24 24" fill="none" xmlns="http://www.w3.org/2000/svg">
<path d="M3 21H21V3.00046L3 3V21Z" stroke="#141B34" stroke-width="1.5" stroke-linejoin="round"/>
<path d="M8.95136 12.5077L9.6553 12.2489L8.95136 12.5077ZM10.0486 15.4923L10.7526 15.2335L10.0486 15.4923ZM10.5782 16.5967L11.1192 16.0772L11.1192 16.0772L10.5782 16.5967ZM10.9717 16.8794L11.2895 16.2L11.2895 16.2L10.9717 16.8794ZM8.02833 11.1206L7.71054 11.8H7.71054L8.02833 11.1206ZM8.42182 11.4033L7.88084 11.9228L7.88084 11.9228L8.42182 11.4033ZM14.5002 11L14.0841 10.376C13.8091 10.5593 13.6866 10.901 13.7824 11.2174C13.8781 11.5337 14.1697 11.75 14.5002 11.75V11ZM17.5 11.75H18.25V10.25H17.5V11.75ZM16.9001 9.39994L16.484 8.77592V8.77592L16.9001 9.39994ZM16 7L16 6.25L16 7ZM6.5 17.75C7.43133 17.75 8.14595 17.1646 8.67563 16.5539C9.21467 15.9324 9.70068 15.1208 10.1425 14.3868L8.85746 13.6132C8.39626 14.3792 7.97921 15.0676 7.54248 15.5711C7.0964 16.0854 6.76255 16.25 6.5 16.25V17.75ZM10.1425 14.3868C10.6037 13.6208 11.0208 12.9324 11.4575 12.4289C11.9036 11.9146 12.2375 11.75 12.5 11.75V10.25C11.5687 10.25 10.8541 10.8354 10.3244 11.4461C9.78533 12.0676 9.29932 12.8792 8.85746 13.6132L10.1425 14.3868ZM8.24743 12.7665L8.79607 14.2588L10.2039 13.7412L9.6553 12.2489L8.24743 12.7665ZM8.79607 14.2588L9.3447 15.7511L10.7526 15.2335L10.2039 13.7412L8.79607 14.2588ZM9.3447 15.7511C9.45064 16.0393 9.54387 16.2943 9.63821 16.5013C9.73678 16.7176 9.85627 16.9277 10.0372 17.1161L11.1192 16.0772C11.0999 16.0572 11.0644 16.0137 11.0032 15.8793C10.9377 15.7356 10.8662 15.5426 10.7526 15.2335L9.3447 15.7511ZM12.1471 16.25C11.8292 16.25 11.6353 16.2494 11.4875 16.2374C11.3519 16.2264 11.308 16.2087 11.2895 16.2L10.6539 17.5587C10.8932 17.6707 11.1311 17.7133 11.3658 17.7324C11.5884 17.7506 11.8532 17.75 12.1471 17.75V16.25ZM10.0372 17.1161C10.2138 17.3001 10.4225 17.4505 10.6539 17.5587L11.2895 16.2C11.2279 16.1712 11.1699 16.1301 11.1192 16.0772L10.0372 17.1161ZM6.85294 11.75C7.17079 11.75 7.36473 11.7506 7.51247 11.7626C7.64811 11.7736 7.69198 11.7913 7.71054 11.8L8.34612 10.4413C8.10685 10.3293 7.86887 10.2867 7.63421 10.2676C7.41163 10.2494 7.1468 10.25 6.85294 10.25V11.75ZM9.6553 12.2489C9.54936 11.9607 9.45613 11.7057 9.36179 11.4987C9.26322 11.2824 9.14373 11.0723 8.9628 10.8839L7.88084 11.9228C7.90006 11.9428 7.93556 11.9863 7.99683 12.1207C8.06232 12.2644 8.13379 12.4574 8.24743 12.7665L9.6553 12.2489ZM7.71054 11.8C7.7721 11.8288 7.83006 11.8699 7.88084 11.9228L8.9628 10.8839C8.78617 10.6999 8.57748 10.5495 8.34612 10.4413L7.71054 11.8ZM14.5002 11.75H17.5V10.25H14.5002V11.75ZM16.484 8.77592L14.0841 10.376L14.9162 11.624L17.3161 10.024L16.484 8.77592ZM17.3161 10.024C17.8822 9.64651 18.25 9.02704 18.25 8.3333H16.75C16.75 8.47889 16.6732 8.64976 16.484 8.77592L17.3161 10.024ZM18.25 8.3333C18.25 7.10209 17.1571 6.24999 16 6.25L16 7.75C16.4997 7.75 16.75 8.09178 16.75 8.3333H18.25ZM16 6.25C14.843 6.25001 13.75 7.10213 13.75 8.33336H15.25C15.25 8.09181 15.5004 7.75 16 7.75L16 6.25Z" fill="#141B34"/>
</svg>
