<svg width="24" height="24" viewBox="0 0 24 24" fill="none" xmlns="http://www.w3.org/2000/svg">
<path d="M22 6L22.7372 6.13822C22.8128 5.73456 22.5498 5.34511 22.1471 5.26456L22 6ZM19 22V22.75H19.6224L19.7372 22.1382L19 22ZM17.1471 4.26456C16.7409 4.18333 16.3458 4.44674 16.2646 4.85291C16.1833 5.25908 16.4467 5.6542 16.8529 5.73544L17.1471 4.26456ZM2 6L1.85291 5.26456C1.4502 5.34511 1.18716 5.73456 1.26285 6.13822L2 6ZM5 22L4.26285 22.1382L4.37756 22.75H5V22ZM7.14709 5.73544C7.55326 5.6542 7.81668 5.25908 7.73544 4.85291C7.65421 4.44674 7.25909 4.18333 6.85292 4.26456L7.14709 5.73544ZM21.2628 5.86178L18.2628 21.8618L19.7372 22.1382L22.7372 6.13822L21.2628 5.86178ZM22.1471 5.26456L17.1471 4.26456L16.8529 5.73544L21.8529 6.73544L22.1471 5.26456ZM1.26285 6.13822L4.26285 22.1382L5.73715 21.8618L2.73715 5.86178L1.26285 6.13822ZM2.14709 6.73544L7.14709 5.73544L6.85292 4.26456L1.85291 5.26456L2.14709 6.73544ZM19 21.25H5V22.75H19V21.25Z" fill="#141B34"/>
<path d="M12.009 11L12 11M12.009 14.5H12M12.009 18H12" stroke="#141B34" stroke-width="2" stroke-linecap="square" stroke-linejoin="round"/>
<path d="M12 5L17 2V8L12 5ZM12 5L7 2V8L12 5Z" stroke="#141B34" stroke-width="1.5" stroke-linejoin="round"/>
</svg>
