<svg width="24" height="24" viewBox="0 0 24 24" fill="none" xmlns="http://www.w3.org/2000/svg">
<path d="M22 7V3L2 3L2 21L22 21V17" stroke="#141B34" stroke-width="1.5" stroke-linejoin="round"/>
<path d="M6.5 3V21" stroke="#141B34" stroke-width="1.5" stroke-linejoin="round"/>
<path d="M15 15.5V16.25C15.3 16.25 15.5712 16.0712 15.6894 15.7954L15 15.5ZM13 8.5L13.6512 8.1279C13.5177 7.89422 13.2691 7.75 13 7.75V8.5ZM19 11.25H16.5V12.75H19V11.25ZM16.5 11.25H15V12.75H16.5V11.25ZM15 11.25H10V12.75H15V11.25ZM15.8106 11.7046L14.3106 15.2046L15.6894 15.7954L17.1894 12.2955L15.8106 11.7046ZM15 14.75H13V16.25H15V14.75ZM15.6512 11.6279L13.6512 8.1279L12.3488 8.8721L14.3488 12.3721L15.6512 11.6279ZM13 7.75H11V9.25H13V7.75ZM21.25 12C21.25 12.4142 20.9142 12.75 20.5 12.75V14.25C21.7426 14.25 22.75 13.2426 22.75 12H21.25ZM20.5 12.75C20.0858 12.75 19.75 12.4142 19.75 12H18.25C18.25 13.2427 19.2574 14.25 20.5 14.25V12.75ZM19.75 12C19.75 11.5858 20.0858 11.25 20.5 11.25V9.75C19.2573 9.75 18.25 10.7574 18.25 12H19.75ZM20.5 11.25C20.9142 11.25 21.25 11.5858 21.25 12H22.75C22.75 10.7574 21.7426 9.75 20.5 9.75V11.25Z" fill="#141B34"/>
</svg>
