<svg width="24" height="24" viewBox="0 0 24 24" fill="none" xmlns="http://www.w3.org/2000/svg">
<path d="M5.99749 22L5.467 22.5302C5.63376 22.697 5.86933 22.7757 6.1029 22.7426C6.33648 22.7094 6.54084 22.5683 6.65458 22.3616L5.99749 22ZM2 18L1.63801 17.3431C1.43154 17.4569 1.29058 17.6612 1.25744 17.8946C1.22431 18.128 1.30285 18.3634 1.4695 18.5302L2 18ZM8.33845 16.1902L5.34041 21.6384L6.65458 22.3616L9.65262 16.9133L8.33845 16.1902ZM2.36199 18.6569L7.80577 15.6569L7.08179 14.3431L1.63801 17.3431L2.36199 18.6569ZM4.52886 20.5306L6.03011 19.0306L4.96989 17.9694L3.46864 19.4694L4.52886 20.5306ZM6.52799 21.4698L2.5305 17.4698L1.4695 18.5302L5.467 22.5302L6.52799 21.4698Z" fill="#141B34"/>
<path d="M19.6529 6.76742C18.9834 7.43695 17.898 7.43695 17.2285 6.76742C16.559 6.0979 16.559 5.01238 17.2285 4.34285C17.898 3.67333 18.9834 3.67333 19.6529 4.34285C20.3224 5.01238 20.3224 6.0979 19.6529 6.76742Z" stroke="#141B34" stroke-width="1.5" stroke-linejoin="round"/>
<path d="M10.7633 15.6575C10.0938 16.327 9.00833 16.327 8.33883 15.6575C7.66934 14.988 7.66934 13.9025 8.33883 13.2329C9.00833 12.5634 10.0938 12.5634 10.7633 13.2329C11.4328 13.9025 11.4328 14.988 10.7633 15.6575Z" stroke="#141B34" stroke-width="1.5" stroke-linejoin="round"/>
<path d="M17.2285 15.6575C16.559 14.988 16.559 13.9025 17.2285 13.2329C17.898 12.5634 18.9834 12.5634 19.6529 13.2329C20.3224 13.9025 20.3224 14.988 19.6529 15.6575C18.9834 16.327 17.898 16.327 17.2285 15.6575Z" stroke="#141B34" stroke-width="1.5" stroke-linejoin="round"/>
<path d="M8.33883 6.76742C7.66934 6.0979 7.66934 5.01238 8.33883 4.34285C9.00833 3.67333 10.0938 3.67333 10.7633 4.34285C11.4328 5.01238 11.4328 6.0979 10.7633 6.76742C10.0938 7.43695 9.00833 7.43695 8.33883 6.76742Z" stroke="#141B34" stroke-width="1.5" stroke-linejoin="round"/>
<path d="M20.2817 11.714C19.3349 11.714 18.5674 10.9464 18.5674 9.99958C18.5674 9.05272 19.3349 8.28515 20.2817 8.28515C21.2286 8.28515 21.9961 9.05272 21.9961 9.99958C21.9961 10.9464 21.2286 11.714 20.2817 11.714Z" stroke="#141B34" stroke-width="1.5" stroke-linejoin="round"/>
<path d="M7.71044 11.7148C6.76363 11.7148 5.99609 10.9472 5.99609 10.0004C5.99609 9.05351 6.76363 8.28594 7.71044 8.28594C8.65725 8.28594 9.42478 9.05351 9.42478 10.0004C9.42478 10.9472 8.65725 11.7148 7.71044 11.7148Z" stroke="#141B34" stroke-width="1.5" stroke-linejoin="round"/>
<path d="M12.2814 16.2856C12.2814 15.3387 13.0489 14.5711 13.9957 14.5711C14.9425 14.5711 15.71 15.3387 15.71 16.2856C15.71 17.2324 14.9425 18 13.9957 18C13.0489 18 12.2814 17.2324 12.2814 16.2856Z" stroke="#141B34" stroke-width="1.5" stroke-linejoin="round"/>
<path d="M12.2814 3.71443C12.2814 2.76758 13.0489 2 13.9957 2C14.9425 2 15.71 2.76758 15.71 3.71443C15.71 4.66128 14.9425 5.42886 13.9957 5.42886C13.0489 5.42886 12.2814 4.66128 12.2814 3.71443Z" stroke="#141B34" stroke-width="1.5" stroke-linejoin="round"/>
</svg>
