<svg width="24" height="24" viewBox="0 0 24 24" fill="none" xmlns="http://www.w3.org/2000/svg">
<path d="M7 7H7.00897M12.991 7H13" stroke="#141B34" stroke-width="2" stroke-linecap="round" stroke-linejoin="round"/>
<path d="M17.991 14.5H18M14 14.5H14.009" stroke="#141B34" stroke-width="2" stroke-linecap="round" stroke-linejoin="round"/>
<path d="M19.13 20.4689L19.2665 19.7314L19.0566 19.6925L18.8577 19.77L19.13 20.4689ZM22 21L21.8635 21.7375C22.1175 21.7845 22.3777 21.6975 22.5524 21.5073C22.7271 21.3171 22.7916 21.0504 22.7232 20.8014L22 21ZM21.3133 18.5L20.6561 18.1386L20.5095 18.4053L20.5901 18.6986L21.3133 18.5ZM16 20.25C12.9667 20.25 10.75 18.225 10.75 16H9.25C9.25 19.2979 12.4059 21.75 16 21.75V20.25ZM10.75 16C10.75 13.775 12.9667 11.75 16 11.75V10.25C12.4059 10.25 9.25 12.7021 9.25 16H10.75ZM16 11.75C19.0333 11.75 21.25 13.775 21.25 16H22.75C22.75 12.7021 19.5941 10.25 16 10.25V11.75ZM18.8577 19.77C18.1924 20.0292 16.8366 20.25 16 20.25V21.75C16.9778 21.75 18.5258 21.5092 19.4023 21.1677L18.8577 19.77ZM18.9935 21.2063L21.8635 21.7375L22.1365 20.2625L19.2665 19.7314L18.9935 21.2063ZM21.25 16C21.25 16.2754 21.184 16.6681 21.0656 17.0867C20.9483 17.5015 20.7957 17.8848 20.6561 18.1386L21.9705 18.8614C22.1792 18.4818 22.37 17.9862 22.509 17.495C22.6468 17.0075 22.75 16.467 22.75 16H21.25ZM22.7232 20.8014L22.0365 18.3014L20.5901 18.6986L21.2768 21.1986L22.7232 20.8014Z" fill="#141B34"/>
<path d="M6 16L6.33541 15.3292L6.08726 15.2051L5.8181 15.2724L6 16ZM2 17L1.27886 16.794C1.20526 17.0516 1.27465 17.3289 1.46091 17.5214C1.64716 17.714 1.92199 17.7926 2.1819 17.7276L2 17ZM3 13.5L3.72114 13.706L3.80736 13.4043L3.65299 13.1311L3 13.5ZM18.75 10C18.75 5.62885 14.7353 2.25 10 2.25V3.75C14.1013 3.75 17.25 6.63916 17.25 10H18.75ZM10 2.25C5.26471 2.25 1.25 5.62885 1.25 10H2.75C2.75 6.63916 5.89873 3.75 10 3.75V2.25ZM5.8181 15.2724L1.8181 16.2724L2.1819 17.7276L6.1819 16.7276L5.8181 15.2724ZM1.25 10C1.25 11.2725 1.77288 12.8527 2.34701 13.8689L3.65299 13.1311C3.17178 12.2794 2.75 10.9522 2.75 10H1.25ZM2.72114 17.206L3.72114 13.706L2.27886 13.294L1.27886 16.794L2.72114 17.206ZM18.6077 11.3996C18.7012 10.9452 18.75 10.4774 18.75 10H17.25C17.25 10.3749 17.2117 10.7415 17.1385 11.0973L18.6077 11.3996ZM5.66459 16.6708C6.74901 17.213 8.70837 17.7674 10.1295 17.7492L10.1102 16.2493C8.9744 16.2639 7.25099 15.787 6.33541 15.3292L5.66459 16.6708Z" fill="#141B34"/>
</svg>
