<svg width="24" height="24" viewBox="0 0 24 24" fill="none" xmlns="http://www.w3.org/2000/svg">
<path d="M7.97071 8.1579L8.69245 7.95395C8.59064 7.59363 8.23866 7.3636 7.86777 7.41499C7.49688 7.46639 7.22071 7.78346 7.22071 8.1579H7.97071ZM2.11347 9.14359L2.81146 8.86915L2.81146 8.86915L2.11347 9.14359ZM21.8865 9.14359L21.1885 8.86914V8.86915L21.8865 9.14359ZM16.0293 8.1579H16.7793C16.7793 7.78346 16.5031 7.46639 16.1322 7.41499C15.7613 7.3636 15.4094 7.59363 15.3075 7.95395L16.0293 8.1579ZM2.45767 7.28414L3.09863 7.67358L3.09863 7.67358L2.45767 7.28414ZM3.42134 5.6981L2.78037 5.30865L2.78037 5.30865L3.42134 5.6981ZM21.5423 7.28414L20.9014 7.67358L21.5423 7.28414ZM20.5787 5.6981L21.2196 5.30865L21.2196 5.30865L20.5787 5.6981ZM21.9873 8.37477L21.2401 8.44044V8.44044L21.9873 8.37477ZM2.01274 8.37477L1.26562 8.3091H1.26562L2.01274 8.37477ZM7.22071 8.1579C7.22071 9.27064 6.24754 10.25 4.94875 10.25V11.75C6.98793 11.75 8.72071 10.1845 8.72071 8.1579H7.22071ZM4.94875 10.25C3.94419 10.25 3.12034 9.65472 2.81146 8.86915L1.41549 9.41802C1.95889 10.8001 3.3523 11.75 4.94875 11.75V10.25ZM21.1885 8.86915C20.8797 9.65472 20.0558 10.25 19.0513 10.25V11.75C20.6477 11.75 22.0411 10.8001 22.5845 9.41802L21.1885 8.86915ZM19.0513 10.25C17.7525 10.25 16.7793 9.27064 16.7793 8.1579H15.2793C15.2793 10.1845 17.0121 11.75 19.0513 11.75V10.25ZM12 10.25C10.3633 10.25 9.05415 9.23396 8.69245 7.95395L7.24898 8.36184C7.81097 10.3507 9.75957 11.75 12 11.75V10.25ZM15.3075 7.95395C14.9459 9.23396 13.6367 10.25 12 10.25V11.75C14.2404 11.75 16.189 10.3507 16.751 8.36184L15.3075 7.95395ZM3.09863 7.67358L4.0623 6.08754L2.78037 5.30865L1.81671 6.8947L3.09863 7.67358ZM22.1833 6.8947L21.2196 5.30865L19.9377 6.08754L20.9014 7.67358L22.1833 6.8947ZM5.91511 2.75H18.0849V1.25H5.91511V2.75ZM20.8086 3.85622C20.8086 2.37415 19.5451 1.25 18.0849 1.25V2.75C18.8047 2.75 19.3086 3.28796 19.3086 3.85622H20.8086ZM21.2196 5.30865C20.9489 4.86312 20.8086 4.36264 20.8086 3.85622H19.3086C19.3086 4.64192 19.5268 5.41119 19.9377 6.08754L21.2196 5.30865ZM4.69143 3.85622C4.69143 3.28796 5.19527 2.75 5.91511 2.75V1.25C4.45488 1.25 3.19143 2.37415 3.19143 3.85622H4.69143ZM22.5845 9.41803C22.627 9.31008 22.6918 9.15178 22.725 8.95132C22.7581 8.75167 22.7553 8.54683 22.7344 8.3091L21.2401 8.44044C21.2561 8.62167 21.2488 8.68462 21.2452 8.70633C21.2417 8.72723 21.2378 8.74386 21.1885 8.86914L22.5845 9.41803ZM20.9014 7.67358C21.1778 8.12857 21.2204 8.21594 21.2401 8.44044L22.7344 8.30911C22.6805 7.69569 22.451 7.33528 22.1833 6.8947L20.9014 7.67358ZM4.0623 6.08754C4.47324 5.41119 4.69143 4.64192 4.69143 3.85622H3.19143C3.19143 4.36264 3.05107 4.86312 2.78037 5.30865L4.0623 6.08754ZM2.81146 8.86915C2.7622 8.74386 2.7583 8.72723 2.75484 8.70633C2.75124 8.68462 2.74393 8.62167 2.75986 8.44044L1.26562 8.3091C1.24473 8.54683 1.24193 8.75167 1.27498 8.95132C1.30817 9.15178 1.37305 9.31008 1.41549 9.41802L2.81146 8.86915ZM1.81671 6.8947C1.54902 7.33528 1.31954 7.69569 1.26562 8.3091L2.75986 8.44044C2.77959 8.21594 2.82219 8.12857 3.09863 7.67358L1.81671 6.8947Z" fill="#141B34"/>
<path d="M3 10.5V15C3 17.8284 3 19.2426 3.87868 20.1213C4.75736 21 6.17157 21 9 21H12.5M21 10.5V13" stroke="#141B34" stroke-width="1.5" stroke-linecap="round"/>
<path d="M7 17H11" stroke="#141B34" stroke-width="1.5" stroke-linecap="round"/>
<path d="M16 16L19 19M19 19L22 22M19 19L16 22M19 19L22 16" stroke="#141B34" stroke-width="1.5" stroke-linecap="round"/>
</svg>
