<svg width="24" height="24" viewBox="0 0 24 24" fill="none" xmlns="http://www.w3.org/2000/svg">
<path d="M13.6023 13.5348C14.4718 14.3903 14.4685 15.7936 13.5925 16.6449L13.5784 16.6586L13.5636 16.6716C13.1504 17.033 12.6453 17.2491 12.0454 17.2491C11.4483 17.2491 10.8442 17.006 10.4151 16.5889C9.53827 15.7368 9.53797 14.3647 10.3726 13.5108L10.3877 13.4953L12.0795 11.9531L13.6023 13.5348Z" fill="#141B34"/>
<path d="M10.1023 19.0348C10.9718 19.8903 10.9685 21.2936 10.0925 22.1449L10.0784 22.1586L10.0636 22.1716C9.6504 22.533 9.14528 22.7491 8.54539 22.7491C7.94831 22.7491 7.34424 22.506 6.91509 22.0889C6.03827 21.2368 6.03797 19.8647 6.87263 19.0108L6.88773 18.9953L8.57949 17.4531L10.1023 19.0348Z" fill="#141B34"/>
<path d="M17.1023 19.0348C17.9718 19.8903 17.9685 21.2936 17.0925 22.1449L17.0784 22.1586L17.0636 22.1716C16.6504 22.533 16.1453 22.7491 15.5454 22.7491C14.9483 22.7491 14.3442 22.506 13.9151 22.0889C13.0383 21.2368 13.038 19.8647 13.8726 19.0108L13.8877 18.9953L15.5795 17.4531L17.1023 19.0348Z" fill="#141B34"/>
<path fill-rule="evenodd" clip-rule="evenodd" d="M1.25 5.85826C1.25 7.17454 1.80115 8.36245 2.68308 9.20164C1.79103 10.2146 1.25 11.544 1.25 13C1.25 15.6042 2.98128 17.8041 5.35567 18.5114C5.48316 18.3183 5.63064 18.1346 5.79801 17.9633L5.8433 17.917L8.30612 15.6719C8.10604 14.5411 8.44197 13.3391 9.29801 12.4633L9.3433 12.417L12.1457 9.8623L14.6686 12.4828C15.4828 13.2937 15.8373 14.3913 15.7319 15.4518L18.1686 17.9828C18.3656 18.179 18.5357 18.3919 18.6789 18.6171C21.0107 18.0821 22.75 15.9942 22.75 13.5C22.75 10.8541 20.7927 8.66534 18.2469 8.30273C18.1428 4.94224 15.3858 2.25 12 2.25C11.0435 2.25 10.1372 2.46484 9.32672 2.8489C8.48541 1.87157 7.23857 1.25 5.84601 1.25C3.30471 1.25 1.25 3.31619 1.25 5.85826ZM5.84601 3.14766C4.35875 3.14766 3.14766 4.35823 3.14766 5.85826C3.14766 6.72264 3.54949 7.49188 4.17797 7.98912C4.69233 7.69886 5.25587 7.48547 5.853 7.36454C6.1002 6.01824 6.77854 4.82293 7.7396 3.92707C7.25136 3.44376 6.58272 3.14766 5.84601 3.14766Z" fill="#141B34"/>
</svg>
