<svg width="24" height="24" viewBox="0 0 24 24" fill="none" xmlns="http://www.w3.org/2000/svg">
<path d="M6.25 12C6.25 8.82436 8.82436 6.25 12 6.25C15.1756 6.25 17.75 8.82436 17.75 12C17.75 15.1756 15.1756 17.75 12 17.75C8.82436 17.75 6.25 15.1756 6.25 12Z" fill="#141B34"/>
<path fill-rule="evenodd" clip-rule="evenodd" d="M11 4.5V2H13V4.5H11ZM11 22V19.5H13V22H11Z" fill="#141B34"/>
<path fill-rule="evenodd" clip-rule="evenodd" d="M16.5975 5.99042L18.3652 4.22266L19.7794 5.63687L18.0117 7.40464L16.5975 5.99042ZM4.2231 18.3648L5.99087 16.597L7.40508 18.0112L5.63731 19.779L4.2231 18.3648Z" fill="#141B34"/>
<path fill-rule="evenodd" clip-rule="evenodd" d="M19.502 11L22.002 11L22.002 13L19.502 13L19.502 11ZM2.00195 11L4.50195 11L4.50195 13L2.00195 13L2.00195 11Z" fill="#141B34"/>
<path fill-rule="evenodd" clip-rule="evenodd" d="M18.0115 16.5955L19.7793 18.3633L18.3651 19.7775L16.5973 18.0097L18.0115 16.5955ZM5.63716 4.22115L7.40493 5.98891L5.99071 7.40313L4.22295 5.63536L5.63716 4.22115Z" fill="#141B34"/>
</svg>
