<svg width="24" height="24" viewBox="0 0 24 24" fill="none" xmlns="http://www.w3.org/2000/svg">
<path d="M9.5 9.5L9.26283 8.78849L8.90707 8.90707L8.78849 9.26283L9.5 9.5ZM14.5017 14.5L14.7389 15.2115L15.0948 15.0929L15.2133 14.737L14.5017 14.5ZM7 17L6.28849 16.7628C6.19866 17.0323 6.26879 17.3294 6.46965 17.5303C6.67051 17.7312 6.96762 17.8013 7.23712 17.7115L7 17ZM17 7L17.7116 7.23702C17.8013 6.96753 17.7311 6.67045 17.5303 6.46961C17.3294 6.26878 17.0323 6.19866 16.7628 6.28849L17 7ZM16.7628 6.28849L9.26283 8.78849L9.73717 10.2115L17.2372 7.71151L16.7628 6.28849ZM16.2884 6.76298L13.7902 14.263L15.2133 14.737L17.7116 7.23702L16.2884 6.76298ZM7.23712 17.7115L14.7389 15.2115L14.2646 13.7885L6.76288 16.2885L7.23712 17.7115ZM7.71151 17.2372L10.2115 9.73717L8.78849 9.26283L6.28849 16.7628L7.71151 17.2372Z" fill="#141B34"/>
<path d="M12 12L11.9936 12.0064" stroke="#141B34" stroke-width="2" stroke-linecap="round" stroke-linejoin="round"/>
<path d="M21 3H3V21H21V3Z" stroke="#141B34" stroke-width="1.5" stroke-linejoin="round"/>
</svg>
