<svg width="24" height="24" viewBox="0 0 24 24" fill="none" xmlns="http://www.w3.org/2000/svg">
<path d="M20.8155 3.18451C10.9449 1.50343 2.11246 11.6193 3.07152 20.9285C12.3807 21.8875 22.4966 13.0551 20.8155 3.18451Z" stroke="#141B34" stroke-width="1.5" stroke-linecap="round" stroke-linejoin="round"/>
<path d="M7 17L7.00898 17" stroke="#141B34" stroke-width="1.5" stroke-linecap="round" stroke-linejoin="round"/>
<path d="M17 7L17.009 7" stroke="#141B34" stroke-width="1.5" stroke-linecap="round" stroke-linejoin="round"/>
<path d="M21.9189 20.0318L22.6095 20.3243V20.3243L21.9189 20.0318ZM20.032 21.9189L20.3246 22.6095H20.3246L20.032 21.9189ZM3.96796 2.08109L3.67544 1.39049L3.67544 1.39049L3.96796 2.08109ZM2.08109 3.96819L1.39046 3.67573L1.39046 3.67573L2.08109 3.96819ZM17.8669 18.9291C18.1597 19.2221 18.6346 19.2221 18.9275 18.9292C19.2204 18.6363 19.2205 18.1614 18.9276 17.8685L17.8669 18.9291ZM18.9298 18.9293C18.8513 19.0078 18.8039 18.9966 18.9039 18.9742C18.9833 18.9565 19.108 18.943 19.2743 18.9446C19.6063 18.9479 20.0169 19.0103 20.3938 19.1298C20.7855 19.254 21.0537 19.4123 21.1823 19.5491C21.2393 19.6096 21.2479 19.6436 21.249 19.6488C21.2497 19.6521 21.2506 19.6573 21.2495 19.6678C21.2482 19.6788 21.244 19.7021 21.2283 19.7393L22.6095 20.3243C22.7465 20.0009 22.7874 19.6614 22.7142 19.3275C22.6424 19.0002 22.4729 18.732 22.2753 18.5217C21.8947 18.1169 21.3478 17.8587 20.8473 17.7C20.3322 17.5366 19.7738 17.4494 19.289 17.4447C19.0469 17.4423 18.8013 17.4602 18.5771 17.5103C18.3735 17.5557 18.0891 17.6487 17.8691 17.8687L18.9298 18.9293ZM17.8691 17.8687C17.649 18.0888 17.5561 18.3731 17.5107 18.5767C17.4607 18.8009 17.4428 19.0466 17.4451 19.2887C17.4499 19.7735 17.537 20.3319 17.7004 20.8471C17.8591 21.3476 18.1172 21.8946 18.522 22.2752C18.7322 22.4729 19.0005 22.6424 19.3277 22.7142C19.6616 22.7874 20.0012 22.7465 20.3246 22.6095L19.7395 21.2283C19.7023 21.2441 19.679 21.2483 19.668 21.2495C19.6576 21.2506 19.6524 21.2497 19.6491 21.249C19.6439 21.2479 19.61 21.2393 19.5495 21.1824C19.4127 21.0538 19.2545 20.7855 19.1302 20.3937C19.0107 20.0167 18.9483 19.606 18.9451 19.274C18.9434 19.1076 18.9569 18.983 18.9747 18.9035C18.997 18.8034 19.0082 18.8508 18.9298 18.9293L17.8691 17.8687ZM20.3246 22.6095C20.5533 22.5126 20.7871 22.351 20.9884 22.1927C21.2001 22.0261 21.4194 21.828 21.6238 21.6236C21.8282 21.4192 22.0262 21.1999 22.1928 20.9881C22.3511 20.7869 22.5127 20.553 22.6095 20.3243L21.2283 19.7393C21.2096 19.7834 21.1457 19.893 21.0139 20.0607C20.8903 20.2178 20.7333 20.3928 20.5631 20.563C20.3928 20.7333 20.2178 20.8903 20.0608 21.0139C19.8932 21.1458 19.7836 21.2096 19.7395 21.2283L20.3246 22.6095ZM6.13093 6.13129C6.35096 5.91123 6.44387 5.62687 6.48931 5.42326C6.53934 5.19909 6.55723 4.95339 6.55486 4.71133C6.55011 4.22651 6.46297 3.66808 6.2996 3.15288C6.1409 2.65241 5.88281 2.1054 5.478 1.72479C5.26775 1.52712 4.99952 1.3576 4.67227 1.28582C4.33837 1.21258 3.99877 1.25354 3.67544 1.39049L4.26049 2.7717C4.29767 2.75595 4.32097 2.75175 4.332 2.75055C4.34238 2.74942 4.34762 2.75027 4.35088 2.75099C4.35607 2.75212 4.38996 2.76069 4.45052 2.81763C4.58732 2.94624 4.74554 3.21453 4.86976 3.60627C4.98931 3.98327 5.05168 4.39397 5.05493 4.72601C5.05656 4.89239 5.04307 5.01705 5.02533 5.09653C5.003 5.19657 4.99175 5.14915 5.07021 5.07069L6.13093 6.13129ZM5.07021 5.07069C5.14868 4.99221 5.19612 5.00345 5.09611 5.02577C5.01667 5.04351 4.89204 5.057 4.7257 5.05537C4.39372 5.05212 3.9831 4.98975 3.60616 4.87019C3.21449 4.74597 2.94625 4.58774 2.81766 4.45093C2.76073 4.39037 2.75214 4.35644 2.75099 4.35121C2.75027 4.34792 2.74942 4.34265 2.75055 4.33225C2.75175 4.32118 2.75596 4.29786 2.77171 4.26066L1.39046 3.67573C1.25354 3.99906 1.21259 4.33864 1.28581 4.67253C1.35757 4.99977 1.52705 5.26801 1.7247 5.47828C2.10527 5.88315 2.65223 6.14128 3.15267 6.3C3.66784 6.4634 4.22622 6.55055 4.71101 6.5553C4.95305 6.55767 5.19875 6.53978 5.42292 6.48974C5.62653 6.44429 5.91089 6.35135 6.13093 6.13129L5.07021 5.07069ZM2.77171 4.26066C2.79039 4.21656 2.85427 4.10695 2.98613 3.93933C3.10971 3.78224 3.26667 3.60725 3.43693 3.43697C3.60718 3.2667 3.78216 3.10972 3.93923 2.98612C4.10683 2.85424 4.21641 2.79037 4.26049 2.7717L3.67544 1.39049C3.44669 1.48739 3.21288 1.64896 3.01165 1.80731C2.79988 1.97395 2.58057 2.17198 2.3762 2.37637C2.17183 2.58077 1.97383 2.8001 1.80722 3.01188C1.64888 3.21315 1.48733 3.44697 1.39046 3.67573L2.77171 4.26066ZM5.07021 6.13129L17.8669 18.9291L18.9276 17.8685L6.13092 5.07068L5.07021 6.13129Z" fill="#141B34"/>
<path d="M9.51797 14.482C8.82734 13.7914 8.82734 12.6717 9.51797 11.9811L11.9811 9.51797C12.6717 8.82734 13.7914 8.82734 14.482 9.51797C15.1727 10.2086 15.1727 11.3283 14.482 12.0189L12.0189 14.482C11.3283 15.1727 10.2086 15.1727 9.51797 14.482Z" stroke="#141B34" stroke-width="1.5" stroke-linecap="round" stroke-linejoin="round"/>
</svg>
