<svg width="24" height="24" viewBox="0 0 24 24" fill="none" xmlns="http://www.w3.org/2000/svg">
<path fill-rule="evenodd" clip-rule="evenodd" d="M6.53069 1.51848C6.71042 1.34657 6.95418 1.25 7.20834 1.25L16.7917 1.25009C17.3209 1.2501 17.75 1.6605 17.75 2.16676V5.83333C17.75 6.33959 17.3209 6.75 16.7917 6.75H7.20833C6.67906 6.75 6.25 6.33959 6.25 5.83333V2.16667C6.25 1.92355 6.35097 1.69039 6.53069 1.51848ZM8.16667 3.08334V4.91667H15.8333V3.08342L8.16667 3.08334Z" fill="#141B34"/>
<path d="M11.3198 13.7421C11.5587 13.4629 11.7991 13.2146 12 13.0186C12.2009 13.2146 12.4413 13.4629 12.6802 13.7421C12.9731 14.0845 13.2504 14.4577 13.4511 14.8253C13.6565 15.2015 13.75 15.5143 13.75 15.7508C13.75 16.3657 13.5311 16.6982 13.2656 16.8994C12.9683 17.1248 12.5217 17.2508 12 17.2508C11.4783 17.2508 11.0317 17.1248 10.7344 16.8994C10.4689 16.6982 10.25 16.3657 10.25 15.7508C10.25 15.5143 10.3435 15.2015 10.5489 14.8253C10.7496 14.4577 11.0269 14.0845 11.3198 13.7421Z" fill="#141B34"/>
<path fill-rule="evenodd" clip-rule="evenodd" d="M16.6708 6.33594C16.4978 6.68207 16.4391 6.80206 16.3986 6.91312C16.169 7.54271 16.2321 8.24184 16.5705 8.82021C16.6302 8.92224 16.7095 9.02979 16.9417 9.33938L17.3878 9.93424C17.7972 10.4799 18.0611 10.8317 18.2551 11.2228C18.4508 11.6172 18.5906 12.0368 18.6707 12.4696C18.7502 12.8989 18.7501 13.3387 18.75 14.0209L18.75 22.0005C18.75 22.4147 18.4142 22.7505 18 22.7505H6.00001C5.5858 22.7505 5.25001 22.4147 5.25001 22.0005L5.25001 14.0209C5.24991 13.3387 5.24986 12.8989 5.3293 12.4696C5.40939 12.0368 5.54926 11.6172 5.74489 11.2228C5.93894 10.8317 6.20284 10.4799 6.61222 9.93424L7.05837 9.33938C7.29057 9.02979 7.36978 8.92224 7.42948 8.82021C7.76794 8.24184 7.83098 7.54271 7.60144 6.91313C7.56095 6.80207 7.50225 6.68206 7.32919 6.33594H16.6708ZM12.199 11.1939C12.4402 11.401 12.8189 11.7262 12.9065 11.8092C13.1539 12.0436 13.4857 12.3762 13.8198 12.7667C14.1519 13.1547 14.4996 13.6154 14.7676 14.1063C15.031 14.5885 15.25 15.1587 15.25 15.7506C15.25 16.7926 14.8439 17.5851 14.1719 18.0946C13.5317 18.58 12.7283 18.7506 12 18.7506C11.2717 18.7506 10.4683 18.58 9.82813 18.0946C9.15609 17.5851 8.75 16.7926 8.75 15.7506C8.75 15.1587 8.96904 14.5885 9.23237 14.1063C9.5004 13.6154 9.84814 13.1547 10.1802 12.7667C10.5143 12.3762 10.8461 12.0436 11.0935 11.8092C11.1811 11.7262 11.5598 11.401 11.801 11.1939C11.9016 11.1075 11.9782 11.0417 12 11.0225C12.0218 11.0417 12.0984 11.1075 12.199 11.1939Z" fill="#141B34"/>
</svg>
