<svg width="24" height="24" viewBox="0 0 24 24" fill="none" xmlns="http://www.w3.org/2000/svg">
<path d="M9.5 9.5L3 3" stroke="#141B34" stroke-width="1.5" stroke-linecap="round" stroke-linejoin="round"/>
<path d="M9.5 14.5L3 21" stroke="#141B34" stroke-width="1.5" stroke-linecap="round" stroke-linejoin="round"/>
<path d="M14.5 9.5L21 3" stroke="#141B34" stroke-width="1.5" stroke-linecap="round" stroke-linejoin="round"/>
<path d="M14.5 14.5L21 21" stroke="#141B34" stroke-width="1.5" stroke-linecap="round" stroke-linejoin="round"/>
<path d="M9.80348 18L9.97909 15.092C10.0112 14.5605 10.0272 14.2948 9.86624 14.1338C9.70526 13.9728 9.43952 13.9888 8.90805 14.0209L6 14.1962" stroke="#141B34" stroke-width="1.5" stroke-linecap="round" stroke-linejoin="round"/>
<path d="M14.1941 18L14.0205 15.0909C13.9889 14.5601 13.973 14.2947 14.1339 14.1338C14.2948 13.973 14.5602 13.9889 15.091 14.0206L18 14.1946" stroke="#141B34" stroke-width="1.5" stroke-linecap="round" stroke-linejoin="round"/>
<path d="M18 9.75294L15.099 9.97176C14.5686 10.0118 14.3033 10.0318 14.1403 9.87251C13.9773 9.71324 13.9898 9.44633 14.0148 8.9125L14.1513 6" stroke="#141B34" stroke-width="1.5" stroke-linecap="round" stroke-linejoin="round"/>
<path d="M9.80829 6L9.98002 8.91545C10.011 9.44074 10.0264 9.70338 9.86732 9.86355C9.70822 10.0237 9.4451 10.0104 8.91888 9.98369L6 9.83566" stroke="#141B34" stroke-width="1.5" stroke-linecap="round" stroke-linejoin="round"/>
</svg>
