<svg width="24" height="24" viewBox="0 0 24 24" fill="none" xmlns="http://www.w3.org/2000/svg">
<path d="M17.8882 6.05111L17.6941 6.77556V6.77556L17.8882 6.05111ZM18.25 8C18.25 8.41421 18.5858 8.75 19 8.75C19.4142 8.75 19.75 8.41421 19.75 8H18.25ZM18.9489 7.11177L18.2244 7.30589L18.9489 7.11177ZM4.25 8C4.25 8.41421 4.58579 8.75 5 8.75C5.41421 8.75 5.75 8.41421 5.75 8H4.25ZM5.05111 7.11177L4.32667 6.91766L4.32667 6.91766L5.05111 7.11177ZM6.11177 6.05111L5.91766 5.32667H5.91766L6.11177 6.05111ZM12.2696 6.17017C12.3635 6.57358 12.7668 6.82442 13.1702 6.73044C13.5736 6.63646 13.8244 6.23324 13.7304 5.82983L12.2696 6.17017ZM11.3859 2.35688C11.0307 2.14377 10.57 2.25894 10.3569 2.61413C10.1438 2.96931 10.2589 3.43001 10.6141 3.64312L11.3859 2.35688ZM7 6.75H17V5.25H7V6.75ZM17 6.75C17.5133 6.75 17.6228 6.75644 17.6941 6.77556L18.0823 5.32667C17.7722 5.24356 17.4167 5.25 17 5.25V6.75ZM19.75 8C19.75 7.5833 19.7564 7.22782 19.6733 6.91766L18.2244 7.30589C18.2436 7.37722 18.25 7.48673 18.25 8H19.75ZM17.6941 6.77556C17.9529 6.84491 18.1551 7.04707 18.2244 7.30589L19.6733 6.91766C19.4653 6.1412 18.8588 5.53472 18.0823 5.32667L17.6941 6.77556ZM5.75 8C5.75 7.48673 5.75644 7.37722 5.77556 7.30589L4.32667 6.91766C4.24356 7.22782 4.25 7.5833 4.25 8H5.75ZM7 5.25C6.5833 5.25 6.22782 5.24356 5.91766 5.32667L6.30589 6.77556C6.37722 6.75644 6.48673 6.75 7 6.75V5.25ZM5.77556 7.30589C5.84491 7.04707 6.04707 6.84491 6.30589 6.77556L5.91766 5.32667C5.1412 5.53472 4.53472 6.1412 4.32667 6.91766L5.77556 7.30589ZM13.7304 5.82983C13.4113 4.45986 12.606 3.08896 11.3859 2.35688L10.6141 3.64312C11.394 4.11104 12.015 5.07751 12.2696 6.17017L13.7304 5.82983Z" fill="#141B34"/>
<path d="M7 14L18 14" stroke="#141B34" stroke-width="1.5" stroke-linecap="round" stroke-linejoin="round"/>
<path d="M8.5 9H14.7353C15.1984 9 15.4299 9 15.4875 9.1605C15.6733 9.67818 13.7315 11.4137 13.4333 11.7577C12.9448 12.3213 12.7006 12.6031 12.572 12.9615C12.4433 13.3198 12.4433 13.7184 12.4433 14.5154V18.075C12.4433 19.7377 11.4908 21 9.90833 21" stroke="#141B34" stroke-width="1.5" stroke-linecap="round" stroke-linejoin="round"/>
</svg>
