<svg width="24" height="24" viewBox="0 0 24 24" fill="none" xmlns="http://www.w3.org/2000/svg">
<path fill-rule="evenodd" clip-rule="evenodd" d="M12 1.25C6.06294 1.25 1.25 6.06294 1.25 12C1.25 17.9371 6.06294 22.75 12 22.75C17.9371 22.75 22.75 17.9371 22.75 12C22.75 6.06294 17.9371 1.25 12 1.25ZM9.22249 6.99988H10.3167C10.3271 6.99972 10.3375 6.99971 10.348 6.99988H14.7611C14.7716 6.99972 14.782 6.99971 14.7924 6.99988H17.0003C17.5526 6.99988 18.0003 7.44759 18.0003 7.99988C18.0003 8.55216 17.5526 8.99988 17.0003 8.99988H15.6488L14.6574 16.1374C14.5815 16.6845 14.0764 17.0663 13.5294 16.9904C12.9823 16.9144 12.6005 16.4093 12.6764 15.8623L13.6296 8.99988H11.2043L10.3646 15.0461C10.1932 16.2798 8.99793 16.9792 7.8852 16.8362C7.10991 16.7365 6.39332 16.2403 6.10562 15.4635L6.06252 15.3472C5.87071 14.8293 6.13505 14.2539 6.65296 14.0621C7.17086 13.8703 7.7462 14.1347 7.93802 14.6526L7.98111 14.7689C7.98138 14.7696 7.98719 14.7847 8.01371 14.8046C8.04047 14.8247 8.08312 14.8452 8.14025 14.8525C8.22786 14.8638 8.30038 14.8399 8.34494 14.8093C8.36639 14.7945 8.377 14.7813 8.38115 14.7749C8.38268 14.7725 8.38339 14.7711 8.38365 14.7705L9.18506 9.0003C8.43147 9.01746 8.00027 9.55147 8.00027 9.99988C8.00027 10.5522 7.55256 10.9999 7.00027 10.9999C6.44799 10.9999 6.00027 10.5522 6.00027 9.99988C6.00027 8.24652 7.54462 6.99988 9.22249 6.99988Z" fill="#141B34"/>
</svg>
