<svg width="24" height="24" viewBox="0 0 24 24" fill="none" xmlns="http://www.w3.org/2000/svg">
<path fill-rule="evenodd" clip-rule="evenodd" d="M12 1.25C6.06294 1.25 1.25 6.06294 1.25 12C1.25 17.9371 6.06294 22.75 12 22.75C17.9371 22.75 22.75 17.9371 22.75 12C22.75 6.06294 17.9371 1.25 12 1.25ZM8.47059 9.99998C9.36489 9.99998 9.5631 10.0138 9.70671 10.0642C9.80712 10.0994 9.88728 10.1449 9.94687 10.1914L9.9474 10.1918C9.95714 10.1994 9.98614 10.222 10.0511 10.3289C10.1289 10.4569 10.2166 10.6337 10.3706 10.9478L10.8215 11.8677C10.3624 12.4301 9.93427 12.923 9.49133 13.3061C8.93266 13.7891 8.4589 14 8 14C7.44772 14 7 14.4477 7 15C7 15.5523 7.44772 16 8 16C9.13294 16 10.0571 15.4608 10.7995 14.8189C11.1432 14.5217 11.471 14.1817 11.7829 13.829L11.8336 13.9324L11.8879 14.0437C12.1237 14.5281 12.368 15.0301 12.822 15.3847C13.0656 15.575 13.341 15.7212 13.6312 15.823C14.1403 16.0016 14.7138 16.0009 15.3894 16.0001L15.5294 16C16.0817 16 16.5294 15.5523 16.5294 15C16.5294 14.4477 16.0817 14 15.5294 14C14.6351 14 14.4369 13.9861 14.2933 13.9358C14.1929 13.9005 14.1127 13.8551 14.0531 13.8086L14.0526 13.8081C14.0429 13.8006 14.0139 13.778 13.9489 13.671C13.8711 13.543 13.7834 13.3663 13.6294 13.0521L13.1785 12.1323C13.6376 11.5699 14.0657 11.0769 14.5087 10.6939C15.0673 10.2108 15.5411 9.99998 16 9.99998C16.5523 9.99998 17 9.55226 17 8.99998C17 8.44769 16.5523 7.99998 16 7.99998C14.8671 7.99998 13.9429 8.53913 13.2005 9.18106C12.8568 9.4783 12.529 9.81824 12.2171 10.171L12.1664 10.0675L12.1121 9.95625L12.1121 9.95624C11.8763 9.47182 11.632 8.96982 11.178 8.61522C10.9344 8.42494 10.659 8.27878 10.3688 8.17698C9.85969 7.99835 9.28619 7.99904 8.61056 7.99987L8.47059 7.99998C7.9183 7.99998 7.47059 8.44769 7.47059 8.99998C7.47059 9.55226 7.9183 9.99998 8.47059 9.99998Z" fill="#141B34"/>
</svg>
