<svg width="24" height="24" viewBox="0 0 24 24" fill="none" xmlns="http://www.w3.org/2000/svg">
<path fill-rule="evenodd" clip-rule="evenodd" d="M18.293 4.29297L21.0858 1.50015L22.5 2.91436L19.7072 5.70718L18.293 4.29297Z" fill="#141B34"/>
<path d="M11.4278 4.43511C13.6747 2.1883 17.3178 2.1883 19.5647 4.43511C21.8117 6.68188 21.8117 10.3246 19.5649 12.5715L17.5768 14.5608L9.43945 6.42468L11.4278 4.43511Z" fill="#141B34"/>
<path d="M12.5724 19.5649C10.3254 21.8118 6.68221 21.8119 4.43525 19.5651C2.18831 17.3184 2.18825 13.6756 4.43506 11.4288L6.42314 9.43945L14.5605 17.5756L12.5724 19.5649Z" fill="#141B34"/>
<path fill-rule="evenodd" clip-rule="evenodd" d="M1.5 21.0858L4.29297 18.293L5.70718 19.7072L2.91421 22.5L1.5 21.0858Z" fill="#141B34"/>
<path fill-rule="evenodd" clip-rule="evenodd" d="M12.7072 8.70718L10.2072 11.2072L8.79297 9.79297L11.293 7.29297L12.7072 8.70718ZM16.7072 12.7072L14.2072 15.2072L12.793 13.793L15.293 11.293L16.7072 12.7072Z" fill="#141B34"/>
</svg>
