<svg width="24" height="24" viewBox="0 0 24 24" fill="none" xmlns="http://www.w3.org/2000/svg">
<path fill-rule="evenodd" clip-rule="evenodd" d="M7.19426 2.8128C8.53664 2.08008 10.0574 1.25 11.9998 1.25C13.9514 1.25 15.4742 2.08191 16.8176 2.81581L16.863 2.84064C18.2546 3.60075 19.4623 4.2476 20.9857 4.2476H21.58L21.7159 4.82563C23.7855 13.6288 19.6501 21.1096 12.1571 22.7163L11.9997 22.75L11.8424 22.7163C4.34935 21.1096 0.214124 13.6288 2.2837 4.82563L2.41959 4.2476H3.01383C4.53955 4.2476 5.75106 3.60038 7.14351 2.8405L7.19426 2.8128ZM11.0001 16.4143L17.7072 9.70718L16.293 8.29297L11.0001 13.5859L9.70718 12.293L8.29297 13.7072L11.0001 16.4143Z" fill="#141B34"/>
</svg>
