<svg width="24" height="24" viewBox="0 0 24 24" fill="none" xmlns="http://www.w3.org/2000/svg">
<path d="M12.0001 2L12.4302 1.38558C12.1719 1.20481 11.8282 1.20481 11.57 1.38557L12.0001 2ZM19.5 22V22.75C19.8596 22.75 20.1686 22.4948 20.2365 22.1416L19.5 22ZM22.0001 9L22.7366 9.14164L22.8284 8.66432L22.4302 8.38558L22.0001 9ZM2 9L1.56991 8.38557L1.19505 8.64797L1.25688 9.10134L2 9ZM12.1802 18.1259L12.0376 17.3896L12.0376 17.3896L12.1802 18.1259ZM16.934 13.855L16.2205 13.6238L16.2205 13.6238L16.934 13.855ZM8.89391 17.3563L9.41678 16.8186H9.41678L8.89391 17.3563ZM13.6752 7.11938L13.8633 6.39334C13.5475 6.31157 13.2151 6.44323 13.041 6.71902C12.8669 6.99482 12.891 7.35152 13.1006 7.6014L13.6752 7.11938ZM13.9974 9.15585L13.3593 8.7617C13.3533 8.77152 13.3474 8.78148 13.3418 8.79156L13.9974 9.15585ZM8.32543 13.1165L8.98885 13.4664C8.99138 13.4616 8.99386 13.4567 8.99629 13.4519L8.32543 13.1165ZM7.02792 21.0275L6.38551 21.4145L7.02792 21.0275ZM21.2636 8.85836L18.7635 21.8584L20.2365 22.1416L22.7366 9.14164L21.2636 8.85836ZM19.5 21.25H10.8613V22.75H19.5V21.25ZM4.24312 19.8987L2.74312 8.89866L1.25688 9.10134L2.75688 20.1013L4.24312 19.8987ZM2.43009 9.61443L12.4302 2.61443L11.57 1.38557L1.56991 8.38557L2.43009 9.61443ZM11.57 2.61442L21.57 9.61442L22.4302 8.38558L12.4302 1.38558L11.57 2.61442ZM12.3227 18.8622C14.9677 18.3501 16.8029 16.6923 17.6475 14.0863L16.2205 13.6238C15.5388 15.7273 14.1292 16.9846 12.0376 17.3896L12.3227 18.8622ZM8.37103 17.8939C8.84981 18.3595 9.53148 18.6534 10.2027 18.8072C10.8839 18.9632 11.6388 18.9947 12.3228 18.8622L12.0376 17.3896C11.5843 17.4774 11.0421 17.4606 10.5376 17.345C10.023 17.2272 9.6302 17.0261 9.41678 16.8186L8.37103 17.8939ZM13.6752 7.11938C13.1006 7.6014 13.1005 7.60119 13.1003 7.60099C13.1002 7.60093 13.1001 7.60073 13.1 7.6006C13.0998 7.60035 13.0996 7.60012 13.0994 7.5999C13.099 7.59946 13.0987 7.59908 13.0984 7.59877C13.0979 7.59813 13.0976 7.59774 13.0975 7.59758C13.0972 7.59727 13.0977 7.5979 13.0989 7.59942C13.1014 7.60249 13.1066 7.60911 13.1141 7.619C13.129 7.63889 13.1525 7.67127 13.1803 7.71386C13.2371 7.80088 13.3057 7.92064 13.3592 8.05615C13.4714 8.34038 13.4761 8.57264 13.3593 8.7617L14.6355 9.55001C15.1066 8.78742 14.9502 8.00145 14.7544 7.50535C14.6538 7.2507 14.5316 7.03977 14.4362 6.89366C14.3879 6.81967 14.3448 6.75986 14.3123 6.71671C14.296 6.69508 14.2823 6.67746 14.2717 6.66417C14.2664 6.65752 14.2619 6.65194 14.2582 6.64747C14.2564 6.64523 14.2547 6.64326 14.2533 6.64158C14.2526 6.64074 14.252 6.63996 14.2514 6.63926C14.2511 6.63891 14.2508 6.63858 14.2506 6.63826C14.2504 6.6381 14.2503 6.63788 14.2502 6.6378C14.25 6.63758 14.2498 6.63737 13.6752 7.11938ZM17.6475 14.0863C18.6046 11.1331 17.3498 7.29627 13.8633 6.39334L13.4872 7.84543C15.9037 8.47125 16.9921 11.2431 16.2205 13.6238L17.6475 14.0863ZM7.662 12.7667C6.75571 14.4855 7.01026 16.5706 8.37103 17.8939L9.41678 16.8186C8.5744 15.9994 8.36507 14.6494 8.98885 13.4664L7.662 12.7667ZM13.3418 8.79156C12.9394 9.51579 12.1755 9.77645 10.9644 10.2226C9.84422 10.6352 8.4463 11.1973 7.65457 12.7812L8.99629 13.4519C9.50373 12.4367 10.3751 12.0382 11.4828 11.6301C12.4995 11.2556 13.9221 10.8355 14.653 9.52014L13.3418 8.79156ZM7.67034 20.6405C7.35943 20.1244 7.36689 19.6471 7.59633 19.1286C7.84543 18.5656 8.35524 17.9711 9.0393 17.3567C9.71553 16.7493 10.497 16.1782 11.2352 15.6366C11.9422 15.1177 12.6605 14.5913 13.1001 14.119L12.002 13.0971C11.6819 13.4412 11.1027 13.8732 10.3478 14.4272C9.62389 14.9584 8.77879 15.5745 8.03697 16.2408C7.30298 16.9 6.6033 17.6658 6.22461 18.5216C5.82626 19.422 5.78764 20.4222 6.38551 21.4145L7.67034 20.6405ZM10.8613 21.25C10.169 21.25 9.45542 21.2753 8.81338 21.1785C8.15665 21.0795 7.81718 20.8842 7.67034 20.6405L6.38551 21.4145C6.89153 22.2544 7.81826 22.5454 8.58975 22.6617C9.37592 22.7803 10.2526 22.75 10.8613 22.75V21.25Z" fill="#141B34"/>
</svg>
