<svg width="24" height="24" viewBox="0 0 24 24" fill="none" xmlns="http://www.w3.org/2000/svg">
<path fill-rule="evenodd" clip-rule="evenodd" d="M6.75 1.25H3C2.58579 1.25 2.25 1.58579 2.25 2V22C2.25 22.4142 2.58579 22.75 3 22.75L20 22.75C20.1989 22.75 20.3897 22.671 20.5303 22.5303C20.671 22.3897 20.75 22.1989 20.75 22V2C20.75 1.58579 20.4142 1.25 20 1.25H16.25V4.75C16.25 5.16421 15.9142 5.5 15.5 5.5H7.5C7.08579 5.5 6.75 5.16421 6.75 4.75V1.25ZM16.5 11.75H12.5V10.25H16.5V11.75ZM11.0294 9.53039L9.96875 8.46973L7.49908 10.9394L6.52941 9.96973L5.46875 11.0304L7.49908 13.0607L11.0294 9.53039ZM16.5 17.75H12.5V16.25H16.5V17.75ZM7 18H9V16H7V18Z" fill="#141B34"/>
<path d="M14.75 1.25H8.25V4H14.75V1.25Z" fill="#141B34"/>
</svg>
