<svg width="24" height="24" viewBox="0 0 24 24" fill="none" xmlns="http://www.w3.org/2000/svg">
<path fill-rule="evenodd" clip-rule="evenodd" d="M6.24902 1.25H2.49902C2.08481 1.25 1.74902 1.58579 1.74902 2V22C1.74902 22.4142 2.08481 22.75 2.49902 22.75L16.249 22.75V21.75L13.749 21.75V16.75L16.249 16.75V14.25H20.249V2C20.249 1.58579 19.9132 1.25 19.499 1.25H15.749V4.75C15.749 5.16421 15.4132 5.5 14.999 5.5H6.99902C6.58481 5.5 6.24902 5.16421 6.24902 4.75V1.25ZM6.49902 10.75H15.499V9.25H6.49902V10.75ZM6.49902 15.75H11.499V14.25H6.49902V15.75Z" fill="#141B34"/>
<path d="M14.249 1.25H7.74902V4H14.249V1.25Z" fill="#141B34"/>
<path fill-rule="evenodd" clip-rule="evenodd" d="M17.75 18.25V15.75H19.75V18.25L22.25 18.25V20.25L19.75 20.25V22.75H17.75V20.25L15.25 20.25V18.25L17.75 18.25Z" fill="#141B34"/>
</svg>
