<svg width="24" height="24" viewBox="0 0 24 24" fill="none" xmlns="http://www.w3.org/2000/svg">
<path d="M19.5162 11.8108C20.3317 12.5189 20.9771 13.0793 21.4541 13.5633C21.9375 14.0539 22.3077 14.5236 22.5154 15.0671C22.6749 15.4846 22.7546 15.9183 22.7498 16.3559C22.7546 16.7935 22.6749 17.2273 22.5154 17.6447C22.3077 18.1882 21.9375 18.658 21.4541 19.1486C20.9771 19.6325 20.3317 20.1929 19.5162 20.9009L19.5162 20.901L19.1131 21.251L16.25 19.8194V12.8924L19.1131 11.4608L19.5162 11.8108Z" fill="#141B34"/>
<path d="M4.48377 20.901C3.66827 20.193 3.02289 19.6326 2.54595 19.1486C2.0625 18.658 1.69235 18.1883 1.48462 17.6448C1.3251 17.2274 1.24544 16.7936 1.2502 16.356C1.24544 15.9184 1.3251 15.4847 1.48462 15.0672C1.69235 14.5237 2.0625 14.054 2.54595 13.5634C3.02289 13.0794 3.66828 12.519 4.48379 11.811L4.48379 11.8109L4.88692 11.4609L7.75 12.8925V19.8195L4.88692 21.2511L4.48381 20.9011L4.48377 20.901Z" fill="#141B34"/>
<path fill-rule="evenodd" clip-rule="evenodd" d="M12 4.75C8.68629 4.75 6 7.43629 6 10.75V13.75H4V10.75C4 6.33172 7.58172 2.75 12 2.75C16.4183 2.75 20 6.33172 20 10.75V13.75H18V10.75C18 7.43629 15.3137 4.75 12 4.75Z" fill="#141B34"/>
</svg>
