<svg width="24" height="24" viewBox="0 0 24 24" fill="none" xmlns="http://www.w3.org/2000/svg">
<path d="M20.9697 1.96967L18.4697 4.46967L19.5303 5.53033L22.0303 3.03033L20.9697 1.96967Z" fill="#141B34"/>
<path d="M19.0344 12.0413L18.5041 11.5109L18.5039 11.5111L19.0344 12.0413ZM11.9581 4.96545L11.4278 4.43511L11.4276 4.43529L11.9581 4.96545ZM17.5767 13.5L17.0464 14.0304L17.5769 14.5608L18.1071 14.0302L17.5767 13.5ZM10.5 6.42447L9.9695 5.89431L9.43946 6.42468L9.96971 6.95484L10.5 6.42447ZM19.5648 12.5716C21.8117 10.3248 21.8117 6.68194 19.5648 4.43511L18.5041 5.4958C20.1653 7.15685 20.1653 9.8499 18.5041 11.5109L19.5648 12.5716ZM12.4884 5.4958C14.1496 3.83473 16.8429 3.83473 18.5041 5.4958L19.5648 4.43511C17.3178 2.1883 13.6748 2.1883 11.4278 4.43511L12.4884 5.4958ZM18.1071 14.0302L19.5649 12.5715L18.5039 11.5111L17.0462 12.9698L18.1071 14.0302ZM11.4276 4.43529L9.9695 5.89431L11.0305 6.95463L12.4886 5.49562L11.4276 4.43529ZM18.1069 12.9696L11.0303 5.8941L9.96971 6.95484L17.0464 14.0304L18.1069 12.9696Z" fill="#141B34"/>
<path d="M4.96556 11.9587L5.49587 12.4891L5.49606 12.4889L4.96556 11.9587ZM4.96556 19.0345L5.49587 18.5042L4.96556 19.0345ZM12.0419 19.0345L12.5722 19.5649L12.5724 19.5647L12.0419 19.0345ZM6.42335 10.5L6.95363 9.96963L6.42314 9.43921L5.89285 9.96984L6.42335 10.5ZM13.5 17.5755L14.0305 18.1057L14.5605 17.5753L14.0303 17.0452L13.5 17.5755ZM4.43525 11.4284C2.18825 13.6752 2.18825 17.3181 4.43525 19.5649L5.49587 18.5042C3.83471 16.8432 3.83471 14.1501 5.49587 12.4891L4.43525 11.4284ZM11.5116 18.5042C9.8504 20.1653 7.15706 20.1653 5.49587 18.5042L4.43525 19.5649C6.68221 21.8117 10.3252 21.8117 12.5722 19.5649L11.5116 18.5042ZM5.89285 9.96984L4.43506 11.4285L5.49606 12.4889L6.95384 11.0302L5.89285 9.96984ZM12.5724 19.5647L14.0305 18.1057L12.9695 17.0454L11.5114 18.5044L12.5724 19.5647ZM5.89306 11.0304L12.9697 18.1059L14.0303 17.0452L6.95363 9.96963L5.89306 11.0304Z" fill="#141B34"/>
<path d="M4.46967 18.4697L1.96967 20.9697L3.03033 22.0303L5.53033 19.5303L4.46967 18.4697Z" fill="#141B34"/>
<path d="M10 10L12 8M14 14L16 12" stroke="#141B34" stroke-width="1.5" stroke-linejoin="round"/>
</svg>
