<svg width="24" height="24" viewBox="0 0 24 24" fill="none" xmlns="http://www.w3.org/2000/svg">
<path d="M3 17H21V8C21 5.17157 21 3.75736 20.1213 2.87868C19.2426 2 17.8284 2 15 2H9C6.17157 2 4.75736 2 3.87868 2.87868C3 3.75736 3 5.17157 3 8V17Z" stroke="#141B34" stroke-width="1.5"/>
<path d="M2 17H22" stroke="#141B34" stroke-width="1.5" stroke-linecap="round" stroke-linejoin="round"/>
<path opacity="0.4" d="M11.25 22C11.25 22.4142 11.5858 22.75 12 22.75C12.4142 22.75 12.75 22.4142 12.75 22H11.25ZM6.61413 21.3569C6.25895 21.57 6.14377 22.0307 6.35688 22.3859C6.56999 22.7411 7.03068 22.8562 7.38587 22.6431L6.61413 21.3569ZM12.0001 19L12.3859 18.3569C12.1484 18.2144 11.8517 18.2144 11.6142 18.3569L12.0001 19ZM16.6141 22.6431C16.9693 22.8562 17.43 22.7411 17.6431 22.3859C17.8562 22.0307 17.7411 21.57 17.3859 21.3569L16.6141 22.6431ZM11.25 17V22H12.75V17H11.25ZM7.38587 22.6431L12.3859 19.6431L11.6142 18.3569L6.61413 21.3569L7.38587 22.6431ZM11.6142 19.6431L16.6141 22.6431L17.3859 21.3569L12.3859 18.3569L11.6142 19.6431Z" fill="#141B34"/>
</svg>
