<svg width="24" height="24" viewBox="0 0 24 24" fill="none" xmlns="http://www.w3.org/2000/svg">
<path fill-rule="evenodd" clip-rule="evenodd" d="M13.0922 15.8363C12.7369 15.7465 12.3579 15.7489 12.0939 15.7506H11.9063C11.6423 15.7489 11.2633 15.7465 10.908 15.8363C10.4527 15.9513 10.0174 16.2147 9.70453 16.7322C9.56675 16.9601 9.48944 17.2015 9.4311 17.4498C9.37547 17.6866 9.32717 17.9763 9.27066 18.3155L9.27065 18.3155L8.76032 21.3772C8.69222 21.7858 8.96823 22.1722 9.37681 22.2403C9.4064 22.2452 9.43587 22.2484 9.46512 22.2498H6C5.58579 22.2498 5.25 21.914 5.25 21.4998L5.25 13.6158C5.25 13.4133 5.44675 13.2689 5.64349 13.317C6.13302 13.4368 6.64213 13.4998 7.16229 13.4998L16.8377 13.4998C17.3579 13.4998 17.867 13.4368 18.3565 13.317C18.5533 13.2689 18.75 13.4133 18.75 13.6158V21.4998C18.75 21.914 18.4142 22.2498 18 22.2498H14.5351C14.5644 22.2484 14.5938 22.2452 14.6234 22.2403C15.032 22.1722 15.308 21.7858 15.2399 21.3772L14.7296 18.3155L14.7296 18.3154C14.6731 17.9763 14.6248 17.6866 14.5691 17.4498C14.5108 17.2015 14.4335 16.9601 14.2957 16.7322C13.9829 16.2147 13.5475 15.9513 13.0922 15.8363ZM14.4634 22.2498C14.1183 22.2332 13.8194 21.9784 13.7603 21.6238L13.2539 18.5853C13.1924 18.2167 13.1519 17.9759 13.1089 17.7929C13.0674 17.6161 13.0346 17.5455 13.012 17.5082C12.9265 17.3667 12.8428 17.3204 12.7248 17.2906C12.5657 17.2504 12.3863 17.2506 12.0847 17.2509H11.9155C11.614 17.2506 11.4345 17.2504 11.2755 17.2906C11.1574 17.3204 11.0737 17.3667 10.9882 17.5082C10.9656 17.5455 10.9329 17.6161 10.8913 17.7929C10.8483 17.9759 10.8078 18.2167 10.7464 18.5853L10.2399 21.6238C10.1808 21.9784 9.88192 22.2332 9.53688 22.2498H14.4634Z" fill="#141B34"/>
<path fill-rule="evenodd" clip-rule="evenodd" d="M2 21.25C2 20.6977 2.44772 20.25 3 20.25H21C21.5523 20.25 22 20.6977 22 21.25C22 21.8023 21.5523 22.25 21 22.25H3C2.44772 22.25 2 21.8023 2 21.25Z" fill="#141B34"/>
<path d="M12 1.75C12.3442 1.75 12.6441 1.98422 12.7276 2.3181C13.1609 4.05142 15.4089 7.75 21 7.75C21.2411 7.75 21.4675 7.86589 21.6084 8.06147C21.7494 8.25704 21.7878 8.50846 21.7115 8.73717C21.0122 10.835 19.049 12.25 16.8377 12.25H7.16228C4.95098 12.25 2.98777 10.835 2.28849 8.73717C2.21226 8.50846 2.25061 8.25704 2.39157 8.06147C2.53254 7.86589 2.75892 7.75 3.00001 7.75C8.59112 7.75 10.8391 4.05142 11.2724 2.3181C11.3559 1.98422 11.6559 1.75 12 1.75Z" fill="#141B34"/>
</svg>
