<svg width="24" height="24" viewBox="0 0 24 24" fill="none" xmlns="http://www.w3.org/2000/svg">
<path d="M9.92297 1.74199C10.6708 1.4479 11.1741 1.25 12 1.25C12.8258 1.25 13.3291 1.4479 14.077 1.74199C16.8951 2.84975 19.2339 4.57534 20.7085 5.95067C20.9852 6.20856 21.2608 6.46552 21.4423 6.70566C21.6522 6.98337 21.8621 7.40639 21.6835 7.91548C21.6007 8.15179 21.4492 8.34715 21.241 8.48498C21.0514 8.61049 20.8476 8.66662 20.6806 8.6966C20.3817 8.75028 19.9976 8.75015 19.6138 8.75001H4.38617C4.0023 8.75015 3.61824 8.75028 3.31929 8.6966C3.15233 8.66662 2.94853 8.61049 2.75896 8.48498C2.55076 8.34715 2.39926 8.15179 2.31637 7.91548C2.13781 7.40639 2.34771 6.98336 2.55758 6.70566C2.73907 6.46552 3.01475 6.20856 3.29143 5.95067C4.766 4.57535 7.10488 2.84975 9.92297 1.74199Z" fill="#141B34"/>
<path fill-rule="evenodd" clip-rule="evenodd" d="M2.25 22C2.25 21.5858 2.58579 21.25 3 21.25H21C21.4142 21.25 21.75 21.5858 21.75 22C21.75 22.4142 21.4142 22.75 21 22.75H3C2.58579 22.75 2.25 22.4142 2.25 22Z" fill="#141B34"/>
<path d="M21.569 12.8385L21.5688 12.8365L21.5687 12.835C21.5029 12.0655 21.4304 11.2185 21.3739 10.55C21.3518 10.2889 21.3408 10.1583 21.2547 10.0792C21.1686 10.0001 21.0376 10.0001 20.7756 10.0001L3.2237 10C2.9617 10 2.8307 10 2.74462 10.0791C2.65853 10.1582 2.6475 10.2888 2.62543 10.5499C2.56886 11.2192 2.4963 12.0674 2.43041 12.8376C2.37299 13.5088 2.29539 14.1791 2.27354 14.8519C2.26756 15.0361 2.26457 15.1282 2.32351 15.1891C2.38246 15.25 2.47693 15.25 2.66588 15.25H7.84991C8.03715 15.25 8.13077 15.25 8.18919 15.1923C8.24762 15.1346 8.2488 15.0397 8.25117 14.85C8.25546 14.5071 8.27344 14.1642 8.34719 13.8285C8.4249 13.4748 8.56957 13.1287 8.84908 12.8492C9.12859 12.5697 9.47471 12.425 9.82843 12.3473C10.1736 12.2714 10.57 12.25 10.9999 12.25H12.9999C13.4298 12.25 13.8262 12.2714 14.1714 12.3473C14.5251 12.425 14.8712 12.5697 15.1507 12.8492C15.4303 13.1287 15.5749 13.4748 15.6526 13.8285C15.7264 14.1642 15.7444 14.5071 15.7486 14.85C15.751 15.0397 15.7522 15.1346 15.8106 15.1923C15.8691 15.25 15.9627 15.25 16.1499 15.25H21.3335C21.5224 15.25 21.6169 15.25 21.6758 15.1891C21.7348 15.1282 21.7318 15.0361 21.7258 14.8519C21.704 14.1794 21.6264 13.5094 21.569 12.8385Z" fill="#141B34"/>
<path fill-rule="evenodd" clip-rule="evenodd" d="M8.24991 22V17.15C8.24991 16.9614 8.24991 16.8672 8.19133 16.8086C8.13275 16.75 8.03847 16.75 7.84991 16.75H2.82559C2.62234 16.75 2.52071 16.75 2.4613 16.8145C2.40188 16.879 2.41024 16.9803 2.42695 17.1828C2.49834 18.0481 2.57681 18.9972 2.63148 19.653C2.72585 20.785 3.14611 21.7103 3.96648 22.5304C4.10713 22.671 4.29785 22.75 4.49672 22.75H19.5026C19.7015 22.75 19.8922 22.671 20.0329 22.5304C20.8532 21.7103 21.2735 20.785 21.3679 19.653C21.4225 18.9972 21.501 18.0481 21.5724 17.1828C21.5891 16.9803 21.5975 16.879 21.538 16.8145C21.4786 16.75 21.377 16.75 21.1737 16.75H16.1499C15.9614 16.75 15.8671 16.75 15.8085 16.8086C15.7499 16.8672 15.7499 16.9614 15.7499 17.15V22C15.7499 22.4142 15.4141 22.75 14.9999 22.75C14.5857 22.75 14.2499 22.4142 14.2499 22V15C14.2499 14.6026 14.2282 14.3353 14.1876 14.1504C14.1394 13.9311 14.0688 13.8605 13.8496 13.8123C13.6646 13.7717 13.3973 13.75 12.9999 13.75H10.9999C10.6025 13.75 10.3352 13.7717 10.1503 13.8123C9.93101 13.8605 9.86042 13.9311 9.81226 14.1504C9.77164 14.3353 9.74991 14.6026 9.74991 15V22C9.74991 22.4142 9.41413 22.75 8.99991 22.75C8.5857 22.75 8.24991 22.4142 8.24991 22ZM11.9999 15C11.4476 15 10.9999 15.4477 10.9999 16C10.9999 16.5523 11.4476 17 11.9999 17H12.0089C12.5612 17 13.0089 16.5523 13.0089 16C13.0089 15.4477 12.5612 15 12.0089 15H11.9999Z" fill="#141B34"/>
</svg>
