<svg width="24" height="24" viewBox="0 0 24 24" fill="none" xmlns="http://www.w3.org/2000/svg">
<path d="M2.25416 15.6322C2.28812 15.309 2.52233 15.0485 2.99076 14.5276L4.02183 13.3749C4.27386 13.0558 4.45271 12.5 4.45271 11.9998C4.45271 11.5 4.2738 10.944 4.0218 10.625L2.99076 9.47231C2.52233 8.95137 2.28811 8.6909 2.25416 8.36768C2.2202 8.04446 2.39516 7.74083 2.74507 7.13358L3.23865 6.27698C3.61195 5.62915 3.79859 5.30523 4.11617 5.17607C4.43375 5.0469 4.79291 5.14883 5.51125 5.35267L6.73148 5.69637C7.19009 5.80212 7.67124 5.74213 8.08999 5.52698L8.42687 5.33261C8.78595 5.10262 9.06215 4.76352 9.21503 4.36493L9.54899 3.36754C9.76856 2.70753 9.87835 2.37752 10.1397 2.18876C10.4011 2 10.7483 2 11.4426 2H12.5574C13.2518 2 13.599 2 13.8603 2.18876C14.1217 2.37752 14.2315 2.70753 14.4511 3.36754L14.785 4.36493C14.9379 4.76352 15.2141 5.10262 15.5732 5.33261L15.9101 5.52698C16.3288 5.74213 16.81 5.80212 17.2686 5.69637L18.4888 5.35267C19.2071 5.14883 19.5663 5.0469 19.8839 5.17607C20.2015 5.30523 20.3881 5.62915 20.7614 6.27698L21.255 7.13358C21.6049 7.74083 21.7798 8.04446 21.7459 8.36768C21.7119 8.6909 21.4777 8.95137 21.0093 9.47231L19.9782 10.625C19.7263 10.944 19.5473 11.5 19.5473 11.9998C19.5473 12.5 19.7262 13.0558 19.9782 13.3749L21.0093 14.5276C21.4777 15.0485 21.7119 15.309 21.7459 15.6322C21.7798 15.9555 21.6049 16.2591 21.255 16.8663L20.7614 17.7229C20.3881 18.3707 20.2015 18.6947 19.8839 18.8238C19.5663 18.953 19.2071 18.8511 18.4888 18.6472L17.2686 18.3035C16.8099 18.1977 16.3287 18.2578 15.9099 18.473L15.5731 18.6674C15.214 18.8974 14.9379 19.2364 14.7851 19.635L14.4511 20.6325C14.2315 21.2925 14.1217 21.6225 13.8603 21.8112C13.599 22 13.2518 22 12.5574 22H11.4426C10.7483 22 10.4011 22 10.1397 21.8112C9.87835 21.6225 9.76856 21.2925 9.54899 20.6325" stroke="#141B34" stroke-width="1.5" stroke-linecap="round"/>
<path d="M15.4689 15.4283L15.9992 15.9587V15.9587L15.4689 15.4283ZM16.2498 10.6506L15.4998 10.6474V10.6506H16.2498ZM15.5835 10.3732L16.1137 10.9037V10.9037L15.5835 10.3732ZM13.7267 12.2292L13.1965 11.6987V11.6987L13.7267 12.2292ZM12.0203 12.2291L12.5505 11.6987L12.0203 12.2291ZM8.82184 8.78095L9.35213 9.31132L8.82184 8.78095ZM13.6003 8.00018V8.75019L13.6035 8.75018L13.6003 8.00018ZM13.8777 8.66638L14.4081 9.19669L14.4081 9.19668L13.8777 8.66638ZM12.0215 10.5228L11.4911 9.99247L11.4911 9.99248L12.0215 10.5228ZM2.81682 18.6963L3.34715 19.2267L3.34716 19.2267L2.81682 18.6963ZM5.55366 21.4332L6.08399 21.9635L6.08403 21.9635L5.55366 21.4332ZM8.03983 12.6447L7.28984 12.6428L8.03983 12.6447ZM7.45389 14.059L7.98424 14.5893L7.45389 14.059ZM7.96217 13.4437L7.26962 13.1559L7.96217 13.4437ZM11.6044 16.2102L11.6063 16.9602L11.6044 16.2102ZM10.1899 16.7962L9.65957 16.266L10.1899 16.7962ZM10.8052 16.2878L10.5173 15.5953L10.8052 16.2878ZM11.6063 16.9602C12.5419 16.9578 13.388 16.942 14.0977 16.8251C14.8135 16.7072 15.4852 16.4726 15.9992 15.9587L14.9386 14.8979C14.7388 15.0977 14.4206 15.2517 13.8538 15.3451C13.2809 15.4394 12.5517 15.4578 11.6025 15.4602L11.6063 16.9602ZM15.9992 15.9587C16.2207 15.7372 16.4305 15.5024 16.5929 15.2041C16.7585 14.9002 16.8513 14.5749 16.9067 14.1941C17.0104 13.4824 16.9998 12.4132 16.9998 10.6506H15.4998C15.4998 12.4926 15.5057 13.4054 15.4224 13.978C15.3843 14.2393 15.3328 14.3817 15.2756 14.4866C15.2154 14.5973 15.1241 14.7125 14.9386 14.8979L15.9992 15.9587ZM16.9998 10.6538C17.0042 9.63432 15.7722 9.12413 15.0533 9.84277L16.1137 10.9037C15.8875 11.1297 15.4984 10.9702 15.4998 10.6474L16.9998 10.6538ZM15.0533 9.84277L13.1965 11.6987L14.257 12.7596L16.1137 10.9037L15.0533 9.84277ZM13.1965 11.6987C13.0181 11.877 12.7289 11.877 12.5505 11.6987L11.49 12.7594C12.254 13.5234 13.4928 13.5235 14.257 12.7596L13.1965 11.6987ZM8.78983 12.6466C8.79225 11.698 8.81057 10.9689 8.90498 10.396C8.99838 9.82923 9.15234 9.51107 9.35213 9.31132L8.29155 8.25057C7.77753 8.76451 7.54289 9.43638 7.42494 10.1521C7.308 10.8618 7.29222 11.7078 7.28984 12.6428L8.78983 12.6466ZM9.35213 9.31132C9.53757 9.12591 9.6528 9.03463 9.7635 8.97435C9.86847 8.91719 10.0109 8.86565 10.2723 8.82761C10.845 8.74425 11.758 8.75018 13.6003 8.75018V7.25018C11.8374 7.25018 10.7681 7.23964 10.0563 7.34325C9.67545 7.39868 9.35015 7.49147 9.04618 7.65699C8.74792 7.81939 8.51303 8.02913 8.29155 8.25057L9.35213 9.31132ZM13.6035 8.75018C13.2813 8.75156 13.1208 8.36264 13.3474 8.13608L14.4081 9.19668C15.1273 8.47742 14.6162 7.24583 13.5971 7.25019L13.6035 8.75018ZM13.3474 8.13607L11.4911 9.99247L12.5518 11.0531L14.4081 9.19669L13.3474 8.13607ZM11.4911 9.99248C10.7282 10.7555 10.7247 11.9943 11.49 12.7594L12.5505 11.6987C12.3733 11.5215 12.3725 11.2325 12.5518 11.0531L11.4911 9.99248ZM3.34715 20.9029C2.88428 20.44 2.88428 19.6895 3.34715 19.2267L2.28649 18.166C1.23784 19.2147 1.23784 20.9149 2.28649 21.9635L3.34715 20.9029ZM5.02333 20.9029C4.56046 21.3657 3.81001 21.3657 3.34715 20.9029L2.28649 21.9635C3.33514 23.0122 5.03534 23.0122 6.08399 21.9635L5.02333 20.9029ZM9.65957 16.266L5.02329 20.9029L6.08403 21.9635L10.7203 17.3265L9.65957 16.266ZM3.34716 19.2267L7.98424 14.5893L6.92355 13.5287L2.28647 18.166L3.34716 19.2267ZM7.28984 12.6428C7.28928 12.859 7.28849 12.9804 7.28141 13.0714C7.27824 13.112 7.27458 13.1342 7.27218 13.1457C7.27105 13.1511 7.27022 13.1539 7.26992 13.1549C7.26976 13.1555 7.26966 13.1557 7.26964 13.1558C7.26963 13.1558 7.26963 13.1558 7.26962 13.1559L8.65472 13.7316C8.80123 13.3792 8.78894 12.9955 8.78983 12.6466L7.28984 12.6428ZM7.98424 14.5893C8.22923 14.3443 8.50828 14.0839 8.65472 13.7316L7.26962 13.1559C7.2696 13.1559 7.2695 13.1562 7.26903 13.157C7.26852 13.158 7.26709 13.1606 7.26411 13.1651C7.25782 13.1747 7.24485 13.1927 7.21865 13.2232C7.15984 13.2917 7.07535 13.3769 6.92355 13.5287L7.98424 14.5893ZM11.6025 15.4602C11.2536 15.4611 10.8698 15.4488 10.5173 15.5953L11.0932 16.9804C11.0932 16.9804 11.0932 16.9804 11.0932 16.9804C11.0933 16.9803 11.0935 16.9802 11.0941 16.9801C11.0951 16.9798 11.0979 16.979 11.1033 16.9778C11.1148 16.9754 11.137 16.9718 11.1777 16.9686C11.2687 16.9615 11.39 16.9607 11.6063 16.9602L11.6025 15.4602ZM10.7203 17.3265C10.8721 17.1747 10.9573 17.0902 11.0258 17.0314C11.0563 17.0052 11.0743 16.9922 11.0839 16.9859C11.0884 16.9829 11.091 16.9815 11.092 16.981C11.0929 16.9805 11.0931 16.9804 11.0932 16.9804L10.5173 15.5953C10.165 15.7418 9.90458 16.0209 9.65957 16.266L10.7203 17.3265Z" fill="#141B34"/>
</svg>
