<svg width="24" height="24" viewBox="0 0 24 24" fill="none" xmlns="http://www.w3.org/2000/svg">
<path d="M15.2189 14.9283L15.7492 15.4587V15.4587L15.2189 14.9283ZM15.9998 10.1506L15.2498 10.1474V10.1506H15.9998ZM15.3335 9.87322L15.8637 10.4037V10.4037L15.3335 9.87322ZM13.4767 11.7292L12.9465 11.1987V11.1987L13.4767 11.7292ZM11.7703 11.7291L12.3005 11.1987L11.7703 11.7291ZM8.57184 8.28095L9.10213 8.81132L8.57184 8.28095ZM13.3503 7.50018V8.25019L13.3535 8.25018L13.3503 7.50018ZM13.6277 8.16638L14.1581 8.69669L14.1581 8.69668L13.6277 8.16638ZM11.7715 10.0228L11.2411 9.49247L11.2411 9.49248L11.7715 10.0228ZM2.56682 18.1963L3.09715 18.7267L3.09716 18.7267L2.56682 18.1963ZM5.30366 20.9332L5.83399 21.4635L5.83403 21.4635L5.30366 20.9332ZM7.78983 12.1447L7.03984 12.1428L7.78983 12.1447ZM7.20389 13.559L7.73424 14.0893L7.20389 13.559ZM7.71217 12.9437L7.01962 12.6559L7.71217 12.9437ZM11.3544 15.7102L11.3563 16.4602L11.3544 15.7102ZM9.93994 16.2962L9.40957 15.766L9.93994 16.2962ZM10.5552 15.7878L10.2673 15.0953L10.5552 15.7878ZM11.3563 16.4602C12.2919 16.4578 13.138 16.442 13.8477 16.3251C14.5635 16.2072 15.2352 15.9726 15.7492 15.4587L14.6886 14.3979C14.4888 14.5977 14.1706 14.7517 13.6038 14.8451C13.0309 14.9394 12.3017 14.9578 11.3525 14.9602L11.3563 16.4602ZM15.7492 15.4587C15.9707 15.2372 16.1805 15.0024 16.3429 14.7041C16.5085 14.4002 16.6013 14.0749 16.6567 13.6941C16.7604 12.9824 16.7498 11.9132 16.7498 10.1506H15.2498C15.2498 11.9926 15.2557 12.9054 15.1724 13.478C15.1343 13.7393 15.0828 13.8817 15.0256 13.9866C14.9654 14.0973 14.8741 14.2125 14.6886 14.3979L15.7492 15.4587ZM16.7498 10.1538C16.7542 9.13432 15.5222 8.62413 14.8033 9.34277L15.8637 10.4037C15.6375 10.6297 15.2484 10.4702 15.2498 10.1474L16.7498 10.1538ZM14.8033 9.34277L12.9465 11.1987L14.007 12.2596L15.8637 10.4037L14.8033 9.34277ZM12.9465 11.1987C12.7681 11.377 12.4789 11.377 12.3005 11.1987L11.24 12.2594C12.004 13.0234 13.2428 13.0235 14.007 12.2596L12.9465 11.1987ZM8.53983 12.1466C8.54225 11.198 8.56057 10.4689 8.65498 9.89602C8.74838 9.32923 8.90234 9.01107 9.10213 8.81132L8.04155 7.75057C7.52753 8.26451 7.29289 8.93638 7.17494 9.65212C7.058 10.3618 7.04222 11.2078 7.03984 12.1428L8.53983 12.1466ZM9.10213 8.81132C9.28757 8.62591 9.4028 8.53463 9.5135 8.47435C9.61847 8.41719 9.76095 8.36565 10.0223 8.32761C10.595 8.24425 11.508 8.25018 13.3503 8.25018V6.75018C11.5874 6.75018 10.5181 6.73964 9.8063 6.84325C9.42545 6.89868 9.10015 6.99147 8.79618 7.15699C8.49792 7.31939 8.26303 7.52913 8.04155 7.75057L9.10213 8.81132ZM13.3535 8.25018C13.0313 8.25156 12.8708 7.86264 13.0974 7.63608L14.1581 8.69668C14.8773 7.97742 14.3662 6.74583 13.3471 6.75019L13.3535 8.25018ZM13.0974 7.63607L11.2411 9.49247L12.3018 10.5531L14.1581 8.69669L13.0974 7.63607ZM11.2411 9.49248C10.4782 10.2555 10.4747 11.4943 11.24 12.2594L12.3005 11.1987C12.1233 11.0215 12.1225 10.7325 12.3018 10.5531L11.2411 9.49248ZM3.09715 20.4029C2.63428 19.94 2.63428 19.1895 3.09715 18.7267L2.03649 17.666C0.987837 18.7147 0.987837 20.4149 2.03649 21.4635L3.09715 20.4029ZM4.77333 20.4029C4.31046 20.8657 3.56001 20.8657 3.09715 20.4029L2.03649 21.4635C3.08514 22.5122 4.78534 22.5122 5.83399 21.4635L4.77333 20.4029ZM9.40957 15.766L4.77329 20.4029L5.83403 21.4635L10.4703 16.8265L9.40957 15.766ZM3.09716 18.7267L7.73424 14.0893L6.67355 13.0287L2.03647 17.666L3.09716 18.7267ZM7.03984 12.1428C7.03928 12.359 7.03849 12.4804 7.03141 12.5714C7.02824 12.612 7.02458 12.6342 7.02218 12.6457C7.02105 12.6511 7.02022 12.6539 7.01992 12.6549C7.01976 12.6555 7.01966 12.6557 7.01964 12.6558C7.01963 12.6558 7.01963 12.6558 7.01962 12.6559L8.40472 13.2316C8.55123 12.8792 8.53894 12.4955 8.53983 12.1466L7.03984 12.1428ZM7.73424 14.0893C7.97923 13.8443 8.25828 13.5839 8.40472 13.2316L7.01962 12.6559C7.0196 12.6559 7.0195 12.6562 7.01903 12.657C7.01852 12.658 7.01709 12.6606 7.01411 12.6651C7.00782 12.6747 6.99485 12.6927 6.96865 12.7232C6.90984 12.7917 6.82535 12.8769 6.67355 13.0287L7.73424 14.0893ZM11.3525 14.9602C11.0036 14.9611 10.6198 14.9488 10.2673 15.0953L10.8432 16.4804C10.8432 16.4804 10.8432 16.4804 10.8432 16.4804C10.8433 16.4803 10.8435 16.4802 10.8441 16.4801C10.8451 16.4798 10.8479 16.479 10.8533 16.4778C10.8648 16.4754 10.887 16.4718 10.9277 16.4686C11.0187 16.4615 11.14 16.4607 11.3563 16.4602L11.3525 14.9602ZM10.4703 16.8265C10.6221 16.6747 10.7073 16.5902 10.7758 16.5314C10.8063 16.5052 10.8243 16.4922 10.8339 16.4859C10.8384 16.4829 10.841 16.4815 10.842 16.481C10.8429 16.4805 10.8431 16.4804 10.8432 16.4804L10.2673 15.0953C9.915 15.2418 9.65458 15.5209 9.40957 15.766L10.4703 16.8265Z" fill="#141B34"/>
<path d="M8.73047 21.4999C10.0226 19.299 12.9819 19.0395 14.6673 20.7213C15.0441 21.0973 15.2325 21.2854 15.3996 21.3079C15.5667 21.3304 15.7528 21.2247 16.125 21.0134L17.8497 20.0341C18.2291 19.8188 18.4187 19.7111 18.4848 19.5548C18.5509 19.3985 18.4817 19.1321 18.3433 18.5992C17.8399 16.6616 19.0606 14.6225 21.011 14.0965C21.5329 13.9558 21.7938 13.8854 21.8969 13.7508C22 13.6163 22 13.3998 22 12.9669V11.0332C22 10.6003 22 10.3838 21.8969 10.2492C21.7938 10.1147 21.5329 10.0443 21.011 9.9036C19.0603 9.37763 17.8386 7.3385 18.3418 5.4008C18.4801 4.86787 18.5493 4.6014 18.4832 4.44515C18.4171 4.28891 18.2275 4.18123 17.8482 3.96587L16.1235 2.98663C15.7512 2.77529 15.5651 2.66962 15.3981 2.69212C15.231 2.71463 15.0426 2.90263 14.6657 3.27864C13.2064 4.73442 10.792 4.73448 9.33276 3.27873C8.95585 2.90273 8.76739 2.71472 8.60035 2.69222C8.4333 2.66972 8.24718 2.77539 7.87495 2.98673L6.15025 3.96596C5.77092 4.18134 5.58126 4.28902 5.51516 4.44529C5.44907 4.60156 5.51829 4.86799 5.65672 5.40087C6.16008 7.33851 4.9394 9.37759 2.98902 9.90358C2.46711 10.0443 2.20615 10.1147 2.10308 10.2493C2 10.3838 2 10.6003 2 11.0332V12.9669C2 13.3998 2 13.6163 2.10308 13.7509C2.20617 13.8855 2.467 13.9558 2.98866 14.0964C2.99478 14.0981 3.00089 14.0998 3.007 14.1014" stroke="#141B34" stroke-width="1.5" stroke-linecap="round"/>
</svg>
