<svg width="24" height="24" viewBox="0 0 24 24" fill="none" xmlns="http://www.w3.org/2000/svg">
<circle cx="6" cy="16" r="4" stroke="#141B34" stroke-width="1.5" stroke-linejoin="round"/>
<circle cx="18" cy="16" r="4" stroke="#141B34" stroke-width="1.5" stroke-linejoin="round"/>
<path d="M6 16H11L16 8" stroke="#141B34" stroke-width="1.5" stroke-linejoin="round"/>
<path d="M12.5 13.5L7 7M7 7H5M7 7H10" stroke="#141B34" stroke-width="1.5" stroke-linejoin="round"/>
<path d="M15 4V3.25C14.7688 3.25 14.5505 3.35665 14.4084 3.53903C14.2663 3.72142 14.2162 3.95916 14.2728 4.18336L15 4ZM14.2728 4.18336L17.2983 16.1834L18.7528 15.8166L15.7272 3.81664L14.2728 4.18336ZM20.7216 6.01928C20.3657 4.75671 19.5417 4.03246 18.4763 3.65607C17.4739 3.30198 16.2451 3.25 15 3.25V4.75C16.2549 4.75 17.2448 4.81188 17.9766 5.07042C18.6454 5.30666 19.0714 5.69379 19.2778 6.42627L20.7216 6.01928Z" fill="#141B34"/>
</svg>
