<svg width="24" height="24" viewBox="0 0 24 24" fill="none" xmlns="http://www.w3.org/2000/svg">
<path d="M12 4L16.5 11H22" stroke="#141B34" stroke-width="1.5" stroke-linejoin="round"/>
<path d="M22 14H20" stroke="#141B34" stroke-width="1.5" stroke-linejoin="round"/>
<circle cx="17" cy="17" r="2" stroke="#141B34" stroke-width="1.5" stroke-linejoin="round"/>
<circle cx="7" cy="17" r="2" stroke="#141B34" stroke-width="1.5" stroke-linejoin="round"/>
<path d="M22 11H22.75C22.75 10.821 22.686 10.6478 22.5694 10.5119L22 11ZM16 4L16.5694 3.51191C16.427 3.34567 16.2189 3.25 16 3.25V4ZM12 4V3.25C11.8011 3.25 11.6103 3.32902 11.4697 3.46967C11.329 3.61032 11.25 3.80109 11.25 4L12 4ZM22 17V17.75C22.4142 17.75 22.75 17.4142 22.75 17H22ZM16 3.25H12V4.75H16V3.25ZM15 16.25H9V17.75H15V16.25ZM11.25 4L11.25 17H12.75L12.75 4L11.25 4ZM15.4306 4.48809L21.4306 11.4881L22.5694 10.5119L16.5694 3.51191L15.4306 4.48809ZM19 17.75H22V16.25H19V17.75ZM22.75 17V11H21.25V17H22.75Z" fill="#141B34"/>
<path d="M2 11V10.25C1.58579 10.25 1.25 10.5858 1.25 11H2ZM2 17H1.25C1.25 17.4142 1.58579 17.75 2 17.75V17ZM12 10.25H2V11.75H12V10.25ZM1.25 11V17H2.75V11H1.25ZM2 17.75H5V16.25H2V17.75Z" fill="#141B34"/>
</svg>
