<svg width="24" height="24" viewBox="0 0 24 24" fill="none" xmlns="http://www.w3.org/2000/svg">
<path d="M22 16H20" stroke="#141B34" stroke-width="1.5" stroke-linejoin="round"/>
<circle cx="17" cy="19" r="2" stroke="#141B34" stroke-width="1.5" stroke-linejoin="round"/>
<circle cx="7" cy="19" r="2" stroke="#141B34" stroke-width="1.5" stroke-linejoin="round"/>
<path d="M11.3444 12.3642C11.5455 12.7263 12.0021 12.8568 12.3642 12.6556C12.7263 12.4545 12.8568 11.9979 12.6556 11.6358L11.3444 12.3642ZM7 3L7.65562 2.63577C7.52334 2.39767 7.27238 2.25 7 2.25V3ZM7.25372 13.0746C7.29494 13.4868 7.66247 13.7875 8.07463 13.7463C8.48679 13.7051 8.78749 13.3375 8.74628 12.9254L7.25372 13.0746ZM3.5 7H2.75C2.75 7.41421 3.08579 7.75 3.5 7.75V7ZM3.5 3V2.25C3.08579 2.25 2.75 2.58579 2.75 3H3.5ZM12.6556 11.6358L7.65562 2.63577L6.34438 3.36423L11.3444 12.3642L12.6556 11.6358ZM6.25372 3.07463L7.25372 13.0746L8.74628 12.9254L7.74628 2.92537L6.25372 3.07463ZM4.25 8.5C4.25 8.91421 3.91421 9.25 3.5 9.25V10.75C4.74264 10.75 5.75 9.74264 5.75 8.5H4.25ZM3.5 9.25C3.08579 9.25 2.75 8.91421 2.75 8.5H1.25C1.25 9.74264 2.25736 10.75 3.5 10.75V9.25ZM3.5 7.75C3.91421 7.75 4.25 8.08579 4.25 8.5H5.75C5.75 7.25736 4.74264 6.25 3.5 6.25V7.75ZM4.25 7V3H2.75V7H4.25ZM3.5 3.75H7V2.25H3.5V3.75Z" fill="#141B34"/>
<path d="M22 13H22.75C22.75 12.821 22.686 12.6478 22.5694 12.5119L22 13ZM16 6L16.5694 5.51191C16.427 5.34567 16.2189 5.25 16 5.25V6ZM12 6V5.25C11.5858 5.25 11.25 5.58579 11.25 6H12ZM22 19V19.75C22.4142 19.75 22.75 19.4142 22.75 19H22ZM16 5.25H12V6.75H16V5.25ZM15 18.25H9V19.75H15V18.25ZM15.4306 6.48809L21.4306 13.4881L22.5694 12.5119L16.5694 5.51191L15.4306 6.48809ZM19 19.75H22V18.25H19V19.75ZM22.75 19V13H21.25V19H22.75ZM11.25 6V13H12.75V6H11.25Z" fill="#141B34"/>
<path d="M2 13L2 12.25C1.58579 12.25 1.25 12.5858 1.25 13H2ZM2 19H1.25C1.25 19.4142 1.58579 19.75 2 19.75V19ZM22 12.25H2L2 13.75H22V12.25ZM1.25 13V19H2.75V13H1.25ZM2 19.75H5V18.25H2V19.75Z" fill="#141B34"/>
<path d="M12 6L12 13" stroke="#141B34" stroke-width="1.5" stroke-linecap="round" stroke-linejoin="round"/>
</svg>
