<svg width="24" height="24" viewBox="0 0 24 24" fill="none" xmlns="http://www.w3.org/2000/svg">
<path fill-rule="evenodd" clip-rule="evenodd" d="M7.21147 2.79893C8.51546 2.08702 10.0486 1.25 12.0089 1.25C12.8328 1.25 13.5779 1.39528 14.2647 1.6185L13.6612 3.47542C13.1369 3.30502 12.5964 3.20253 12.0089 3.20253C10.5835 3.20253 9.44872 3.80235 8.08307 4.54762C8.0601 4.56016 8.03705 4.57274 8.01393 4.58536C6.89497 5.1963 5.60763 5.89917 4.02778 6.08454C3.48129 8.88303 3.64666 11.4541 4.36369 13.6367L2.50876 14.2461C1.6074 11.5024 1.48421 8.31284 2.2791 4.93161L2.45609 4.17877H3.22943C4.64945 4.17877 5.78116 3.57949 7.14779 2.83369C7.16896 2.82214 7.19018 2.81055 7.21147 2.79893ZM22.251 10.0783C21.9768 16.4582 18.1307 21.4373 12.2135 22.7061L12.0088 22.75L11.8042 22.7061C10.7257 22.4749 9.71053 22.1185 8.77025 21.6486L9.64303 19.902C10.3743 20.2674 11.1647 20.5539 12.0088 20.7511C16.8391 19.6219 20.0629 15.5193 20.3003 9.99446L22.251 10.0783Z" fill="#141B34"/>
<path d="M12.5314 16.266L11.4575 15.1921L19.6686 8.42187L21.0318 2.97754L15.5798 4.33207L8.80911 12.5438L7.73512 11.4698L6.36638 12.8385L7.96581 14.4379L6.0797 16.324C5.33135 16.1274 4.50146 16.3224 3.91487 16.909C3.03619 17.7877 3.03619 19.2123 3.91487 20.091C4.79355 20.9697 6.21817 20.9697 7.09685 20.091C7.69184 19.496 7.88394 18.6507 7.67314 17.8941L9.54755 16.0197L11.1626 17.6347L12.5314 16.266Z" fill="#141B34"/>
</svg>
