<svg width="24" height="24" viewBox="0 0 24 24" fill="none" xmlns="http://www.w3.org/2000/svg">
<path d="M17.9143 12.3759C17.6347 12.1896 17.2653 12.2119 17.0102 12.4306L13.5109 15.4306C13.3447 15.5731 13.249 15.7811 13.249 16C13.249 16.2189 13.3447 16.4269 13.5109 16.5694L17.0102 19.5694C17.3077 19.8245 17.7514 19.8075 18.0286 19.5304L19.7811 17.7783H17.2471V16.75L21.999 16.75C22.3295 16.75 22.6211 16.5336 22.7169 16.2173C22.8126 15.901 22.69 15.5593 22.415 15.3759L17.9143 12.3759Z" fill="#141B34"/>
<path fill-rule="evenodd" clip-rule="evenodd" d="M14.0049 12C14.0049 12.5523 13.5572 13 13.0049 13L12.9959 13C12.4436 13 11.9959 12.5523 11.9959 12C11.9959 11.4477 12.4436 11 12.9959 11L13.0049 11C13.5572 11 14.0049 11.4477 14.0049 12Z" fill="#141B34"/>
<path fill-rule="evenodd" clip-rule="evenodd" d="M21.0049 11.5C21.0049 12.0523 20.5572 12.5 20.0049 12.5L19.9959 12.5C19.4436 12.5 18.9959 12.0523 18.9959 11.5C18.9959 10.9477 19.4436 10.5 19.9959 10.5L20.0049 10.5C20.5572 10.5 21.0049 10.9477 21.0049 11.5Z" fill="#141B34"/>
<path fill-rule="evenodd" clip-rule="evenodd" d="M13.6919 5.28445C13.1204 4.01288 11.6838 2.25 9.00084 2.25V4.2C10.1179 4.2 10.8864 4.69919 11.3722 5.26185C10.9138 5.33445 10.4651 5.45077 10.0294 5.60404C9.11667 4.98514 7.5324 4.43043 5.5993 5.02785L6.19171 6.88846C6.8034 6.69941 7.34547 6.69223 7.7954 6.77089C7.23394 7.16662 6.71532 7.61691 6.25085 8.09929C5.18295 9.20838 4.32946 10.5616 3.88767 11.9484L2.89684 10.4842L1.25 11.5658L2.60742 13.5719L1.63085 14.0529L2.516 15.7971L3.66978 15.2287C4.38488 19.2316 8.41369 21.75 12.4645 21.75C13.0213 21.75 13.5731 21.7037 14.113 21.6144L13.785 19.6913C13.3523 19.763 12.9101 19.8 12.4645 19.8C8.73291 19.8 5.53713 17.2892 5.53713 13.95C5.53713 12.5674 6.33473 10.8456 7.6868 9.44133C9.03196 8.04429 10.7685 7.125 12.4645 7.125C13.8069 7.125 15.1732 7.70191 16.3466 8.6279L13.2599 7.65855L12.6588 9.51645L17.745 11.1137L21.39 8.93342L20.3628 7.26658L18.7841 8.21092C17.4516 6.7889 15.6638 5.63472 13.6919 5.28445Z" fill="#141B34"/>
</svg>
