<svg width="24" height="24" viewBox="0 0 24 24" fill="none" xmlns="http://www.w3.org/2000/svg">
<path d="M14.75 5.97761C14.75 4.80603 14.0174 3.80557 12.9853 3.40937C13.1841 3.14797 13.5431 2.86491 14.1819 2.70521L13.8181 1.25C12.3417 1.61909 11.6247 2.52114 11.3667 3.30089C10.1532 3.58692 9.25 4.67679 9.25 5.97761C9.25 7.49639 10.4812 8.72761 12 8.72761C13.5188 8.72761 14.75 7.49639 14.75 5.97761Z" fill="#141B34"/>
<path fill-rule="evenodd" clip-rule="evenodd" d="M16.7563 6.29472C19.7202 7.37251 21.2353 9.28338 21.9945 10.9429C22.3706 11.7649 22.5588 12.5184 22.6533 13.0693C22.7006 13.3453 22.7248 13.5723 22.7371 13.734C22.7428 13.8093 22.7476 13.943 22.7496 13.9989L22.75 14.0102C22.75 15.6339 21.5248 16.5675 20.3027 16.7161C19.5037 16.8133 18.6185 16.585 17.9927 15.9762C17.4466 16.4975 16.7058 16.7496 16 16.7496C15.291 16.7496 14.5468 16.4953 14 15.9692C13.4532 16.4953 12.709 16.7496 12 16.7496C11.291 16.7496 10.5468 16.4953 10 15.9692C9.45322 16.4953 8.70897 16.7496 8 16.7496C7.29419 16.7496 6.55342 16.4975 6.00734 15.9762C5.38154 16.585 4.49633 16.8133 3.69729 16.7161C2.47518 16.5675 1.25 15.6339 1.25 14.0102L1.25041 13.9989L1.25041 13.9989C1.2524 13.9429 1.25718 13.8092 1.26291 13.734C1.27524 13.5723 1.29939 13.3453 1.34673 13.0693C1.44123 12.5184 1.62939 11.7649 2.00549 10.9429C2.76474 9.28338 4.27979 7.37251 7.24369 6.29472C7.39952 6.24942 7.60069 6.1911 7.75348 6.15039C7.84451 8.41714 9.71091 10.2269 12 10.2269C14.285 10.2269 16.1488 8.42363 16.246 6.1626C16.3446 6.18655 16.475 6.22089 16.5951 6.2525C16.6528 6.26769 16.7081 6.28225 16.7563 6.29472ZM16.0996 13.5498L14.5996 11.5498L13.3996 12.4498L14.8996 14.4498L16.0996 13.5498ZM9.40039 11.5498L7.90039 13.5498L9.10039 14.4498L10.6004 12.4498L9.40039 11.5498Z" fill="#141B34"/>
<path d="M3.26904 18.1683L4.2724 22.1818C4.35587 22.5156 4.65586 22.7499 5.00001 22.7499H19C19.3442 22.7499 19.6441 22.5156 19.7276 22.1818L20.731 18.1683C20.6484 18.1833 20.5659 18.1958 20.4838 18.2058C19.679 18.3037 18.7901 18.1832 17.9892 17.7876C17.3517 18.103 16.6589 18.2503 16 18.2503C15.3375 18.2503 14.6405 18.1013 14 17.7822C13.3595 18.1013 12.6625 18.2503 12 18.2503C11.3375 18.2503 10.6405 18.1013 10 17.7822C9.35951 18.1013 8.66255 18.2503 8 18.2503C7.34108 18.2503 6.64827 18.103 6.01079 17.7876C5.20988 18.1832 4.32103 18.3037 3.51624 18.2058C3.43413 18.1958 3.35167 18.1833 3.26904 18.1683Z" fill="#141B34"/>
</svg>
