<svg width="24" height="24" viewBox="0 0 24 24" fill="none" xmlns="http://www.w3.org/2000/svg">
<path fill-rule="evenodd" clip-rule="evenodd" d="M21.3192 2.68082C19.9426 1.30422 17.9038 1.05068 16.0451 1.37828C14.1671 1.70928 12.2537 2.66152 10.9043 4.01091C8.89723 6.01801 8.6688 9.59554 10.4809 12.1046L6.32735 16.2581C6.1204 16.2822 5.91719 16.3572 5.73732 16.4849L2.10568 19.0631C1.06873 19.7993 0.954888 21.2941 1.87025 22.1778C2.76823 23.0447 4.23091 22.9081 4.95136 21.888L7.51719 18.2548C7.64261 18.0772 7.71674 17.8769 7.74109 17.6728L11.895 13.5189C14.4041 15.3312 17.9819 15.1029 19.9891 13.0957C21.3385 11.7463 22.2907 9.83292 22.6217 7.95492C22.9493 6.09619 22.6958 4.05742 21.3192 2.68082ZM12.2681 5.37468C13.3194 4.32343 14.8655 3.54457 16.3799 3.27767C17.9135 3.00737 19.1999 3.2891 19.9554 4.04459C20.7109 4.80008 20.9926 6.08652 20.7223 7.62015C20.4554 9.1345 19.6766 10.6806 18.6253 11.7319C17.1917 13.1655 14.2683 13.2779 12.4952 11.5048C10.7221 9.73175 10.8345 6.80827 12.2681 5.37468Z" fill="#141B34"/>
</svg>
