<svg width="24" height="24" viewBox="0 0 24 24" fill="none" xmlns="http://www.w3.org/2000/svg">
<path fill-rule="evenodd" clip-rule="evenodd" d="M12.3354 1.32918C12.1243 1.22361 11.8757 1.22361 11.6646 1.32918L1.66459 6.32918C1.4105 6.45622 1.25 6.71592 1.25 7V9.75H22.75V7C22.75 6.71592 22.5895 6.45622 22.3354 6.32918L12.3354 1.32918ZM13 6H11V8H13V6Z" fill="#141B34"/>
<path d="M1.25 19.5C1.25 19.0858 1.58579 18.75 2 18.75H22C22.1989 18.75 22.3897 18.829 22.5304 18.9697C22.671 19.1104 22.75 19.3011 22.75 19.5001L22.7497 22.0001C22.7496 22.4143 22.4139 22.75 21.9997 22.75H2C1.58579 22.75 1.25 22.4142 1.25 22V19.5Z" fill="#141B34"/>
<path d="M20.75 11.25H15.25V17.25H20.75V11.25Z" fill="#141B34"/>
<path d="M8.75 11.25H3.25V17.25H8.75V11.25Z" fill="#141B34"/>
</svg>
