<svg width="24" height="24" viewBox="0 0 24 24" fill="none" xmlns="http://www.w3.org/2000/svg">
<path fill-rule="evenodd" clip-rule="evenodd" d="M15.25 13C15.25 10.8205 14.0374 8.9242 12.25 7.94901V4.25H6.75V7.94901C4.96262 8.9242 3.75 10.8205 3.75 13V22C3.75 22.4142 4.08579 22.75 4.5 22.75H14.5C14.9142 22.75 15.25 22.4142 15.25 22V13ZM5.25 13C5.25 10.6528 7.15279 8.75 9.5 8.75C11.8472 8.75 13.75 10.6528 13.75 13V14.25H5.25V13Z" fill="#141B34"/>
<path fill-rule="evenodd" clip-rule="evenodd" d="M8.75 2.75H6.5V1.25H14C14.1989 1.25 14.3897 1.32902 14.5303 1.46967L16.0303 2.96967L14.9697 4.03033L13.6893 2.75H10.25V5H8.75V2.75Z" fill="#141B34"/>
<path d="M19.5745 7.79253C19.8058 8.04667 20.0627 8.38805 20.1666 8.78301C20.4864 9.99841 19.8533 11.3325 18.6001 11.6745C17.3401 12.0184 16.1278 11.1776 15.8072 9.95852C15.7035 9.56447 15.7584 9.13981 15.8335 8.80355C15.9131 8.44752 16.0403 8.08666 16.1668 7.77486C16.2946 7.45999 16.4289 7.17723 16.5307 6.97413C16.5819 6.87208 17.0852 5.96191 17.0852 5.96191C17.0852 5.96191 17.9746 6.49781 18.0691 6.56025C18.2572 6.68452 18.5129 6.86128 18.7786 7.06932C19.0417 7.27531 19.3299 7.52374 19.5745 7.79253Z" fill="#141B34"/>
</svg>
