<svg width="24" height="24" viewBox="0 0 24 24" fill="none" xmlns="http://www.w3.org/2000/svg">
<path fill-rule="evenodd" clip-rule="evenodd" d="M4 22.25V19.25H6V22.25H4ZM18 22.25V19.25H20V22.25H18Z" fill="#141B34"/>
<path fill-rule="evenodd" clip-rule="evenodd" d="M10.4285 5.12891L12.4285 10.1289L10.5715 10.8717L8.57152 5.87169L10.4285 5.12891ZM17.9806 5.30418L18.9806 10.3042L17.0194 10.6964L16.0194 5.69641L17.9806 5.30418ZM8 5.5003V10.5003H6V5.5003H8ZM15 5.5003V10.5003H13V5.5003H15Z" fill="#141B34"/>
<path fill-rule="evenodd" clip-rule="evenodd" d="M20.775 1.75H3.225C2.68652 1.75 2.25 2.18593 2.25 2.72368V19.2763C2.25 19.8141 2.68652 20.25 3.225 20.25H20.775C21.3135 20.25 21.75 19.8141 21.75 19.2763V2.72368C21.75 2.46545 21.6473 2.21779 21.4644 2.03518C21.2816 1.85258 21.0336 1.75 20.775 1.75ZM4.19922 9.7499V3.69727H19.7992V9.7499H4.19922ZM10 17.5H14V15.5H10V17.5Z" fill="#141B34"/>
</svg>
