<svg width="24" height="24" viewBox="0 0 24 24" fill="none" xmlns="http://www.w3.org/2000/svg">
<path d="M1.4379 11.8088L1.33576 10.8274C1.17295 9.26291 1.00623 6.72033 3.22739 5.27191C4.25173 4.60443 5.37923 4.06092 6.97492 3.63687C8.57902 3.21059 10.2919 2.9994 12.0006 3C13.7094 2.99941 15.4224 3.21082 17.0264 3.63708C18.6221 4.06114 19.7494 4.60451 20.7737 5.27198C22.9949 6.7204 22.8284 9.26312 22.6655 10.8276L22.5634 11.8091L16.0838 9.26097V5.50556C14.7748 5.20642 13.3898 5.05593 12.0009 5.05643C10.6119 5.05592 9.22642 5.20627 7.91754 5.50536V9.26099L1.4379 11.8088Z" fill="#141B34"/>
<path fill-rule="evenodd" clip-rule="evenodd" d="M12.0001 21L15.7072 17.2929L14.293 15.8787L13.0001 17.1716V11.5858H11.0001L11.0001 17.1716L9.70718 15.8787L8.29297 17.2929L12.0001 21Z" fill="#141B34"/>
</svg>
