<svg width="24" height="24" viewBox="0 0 24 24" fill="none" xmlns="http://www.w3.org/2000/svg">
<path fill-rule="evenodd" clip-rule="evenodd" d="M1.77301 5.97736C1.78564 5.57246 2.11679 5.25078 2.52099 5.25078H6.92546L7.92344 1.25H16.0766L17.0743 5.25H22.2043L22.75 22.75H1.25L1.77301 5.97736ZM12.0009 8.25C10.6202 8.25 9.50091 9.36929 9.50091 10.75V12.75C9.50091 14.1307 10.6202 15.25 12.0009 15.25C13.3816 15.25 14.5009 14.1307 14.5009 12.75V10.75C14.5009 9.36929 13.3816 8.25 12.0009 8.25ZM12.0009 16.25C10.7177 16.25 9.61773 15.4213 9.20885 14.2524L7.79297 14.7476C8.32296 16.2628 9.63739 17.4114 11.2509 17.6867V19H12.7509V17.6867C14.3644 17.4114 15.6789 16.2628 16.2088 14.7476L14.793 14.2524C14.3841 15.4213 13.2841 16.25 12.0009 16.25Z" fill="#141B34"/>
</svg>
