<svg width="24" height="24" viewBox="0 0 24 24" fill="none" xmlns="http://www.w3.org/2000/svg">
<path fill-rule="evenodd" clip-rule="evenodd" d="M22 8.6748V22.0004H20V11.3263L18.5 11.7548V22.0004H16.5V10.2462L22 8.6748Z" fill="#141B34"/>
<path fill-rule="evenodd" clip-rule="evenodd" d="M2 8.6748V22.0004H4V11.3263L5.5 11.7548V22.0004H7.5V10.2462L2 8.6748Z" fill="#141B34"/>
<path fill-rule="evenodd" clip-rule="evenodd" d="M23 23L1 23L1 21L23 21L23 23Z" fill="#141B34"/>
<path fill-rule="evenodd" clip-rule="evenodd" d="M6.18875 1.41531C6.3767 1.15453 6.67855 1 7.00001 1L17.0004 1C17.3218 1 17.6237 1.15452 17.8116 1.41529C17.9996 1.67606 18.0507 2.01128 17.9491 2.31623L16.0004 8.16226V22H14.0004V8.99998H10.0004V22H8.00038V8.16229L6.05134 2.31628C5.94967 2.01133 6.0008 1.67609 6.18875 1.41531ZM9.7211 6.99998H14.2796L15.613 3L8.38752 3L9.7211 6.99998Z" fill="#141B34"/>
</svg>
