<svg width="24" height="24" viewBox="0 0 24 24" fill="none" xmlns="http://www.w3.org/2000/svg">
<path fill-rule="evenodd" clip-rule="evenodd" d="M4.49805 19.5V2.5H2.49805V20.5C2.49805 21.0523 2.94576 21.5 3.49805 21.5H21.498V19.5H4.49805Z" fill="#141B34"/>
<path fill-rule="evenodd" clip-rule="evenodd" d="M12.498 20.5L12.498 9.5L14.498 9.5L14.498 20.5L12.498 20.5Z" fill="#141B34"/>
<path fill-rule="evenodd" clip-rule="evenodd" d="M17.498 20.5L17.498 12.5L19.498 12.5L19.498 20.5L17.498 20.5Z" fill="#141B34"/>
<path fill-rule="evenodd" clip-rule="evenodd" d="M7.49805 20.5L7.49805 12.5L9.49805 12.5L9.49805 20.5L7.49805 20.5Z" fill="#141B34"/>
<path fill-rule="evenodd" clip-rule="evenodd" d="M13.4915 5.5C12.3913 5.5 11.498 6.39242 11.498 7.48693V8.48693H3.49805V6.48693H9.62486C10.0703 4.76745 11.637 3.5 13.4915 3.5C15.3525 3.5 16.9245 4.77209 17.3711 6.49771L21.4954 6.48693L21.5007 8.48692L15.498 8.50262V7.5C15.498 6.39827 14.5989 5.5 13.4915 5.5Z" fill="#141B34"/>
</svg>
