<svg width="24" height="24" viewBox="0 0 24 24" fill="none" xmlns="http://www.w3.org/2000/svg">
<path d="M17.5005 16.1923L7.80818 6.5L3.50049 9.73077L7.80818 11.8846L8.34664 15.6538L12.1159 16.1923L14.2697 20.5L17.5005 16.1923Z" fill="#141B34"/>
<path d="M14.4704 1.46967C14.7633 1.17678 15.2382 1.17678 15.5311 1.46967L18.4989 4.43749L16.1272 6.8092L12.629 3.31105L14.4704 1.46967Z" fill="#141B34"/>
<path d="M11.5684 4.37171L9.5083 6.43178L13.0064 9.92993L15.0665 7.86985L11.5684 4.37171Z" fill="#141B34"/>
<path d="M14.0671 10.9906L17.5691 14.4926L19.6292 12.4325L16.1272 8.93051L14.0671 10.9906Z" fill="#141B34"/>
<path d="M20.6899 11.3719L22.5312 9.53049C22.6719 9.38984 22.7509 9.19908 22.7509 9.00016C22.7509 8.80125 22.6719 8.61049 22.5312 8.46983L19.5595 5.49815L17.1878 7.86985L20.6899 11.3719Z" fill="#141B34"/>
<path d="M4.37319 11.5645L1.46868 14.4691C1.1758 14.762 1.1758 15.2368 1.46869 15.5297L8.46886 22.5299C8.60951 22.6705 8.80028 22.7496 8.99919 22.7496C9.19811 22.7496 9.38888 22.6705 9.52953 22.5299L12.4343 19.625L11.2901 17.3366L7.24117 16.7582L6.66275 12.7092L4.37319 11.5645Z" fill="#141B34"/>
</svg>
