<svg width="24" height="24" viewBox="0 0 24 24" fill="none" xmlns="http://www.w3.org/2000/svg">
<path d="M1.25 3C1.25 2.58579 1.58579 2.25 2 2.25H21.9999C22.4141 2.25 22.7499 2.58579 22.7499 3V8.75H1.25V3Z" fill="#141B34"/>
<path fill-rule="evenodd" clip-rule="evenodd" d="M14.5 12H9.5V10H14.5V12Z" fill="#141B34"/>
<path fill-rule="evenodd" clip-rule="evenodd" d="M2.25 20.75V7.75H4.2V19.75H17.8504C18.6581 19.75 19.3129 19.0784 19.3129 18.25C19.3129 17.4216 18.6581 16.75 17.8504 16.75H16.7915L17.5645 17.543L16.1855 18.957L13.0592 15.75L16.1855 12.543L17.5645 13.957L16.7915 14.75H17.8504C19.7351 14.75 21.2629 16.317 21.2629 18.25C21.2629 20.183 19.7351 21.75 17.8504 21.75H3.225C2.68652 21.75 2.25 21.3023 2.25 20.75ZM21.75 7.75V12.75H19.8V7.75H21.75Z" fill="#141B34"/>
<path d="M9.5 11H14.5" stroke="#141B34" stroke-width="1.5"/>
</svg>
