<svg width="24" height="24" viewBox="0 0 24 24" fill="none" xmlns="http://www.w3.org/2000/svg">
<path d="M21.3377 22.75L1.25195 2.66421L2.66617 1.25L22.752 21.3358L21.3377 22.75Z" fill="#141B34"/>
<path d="M9.75098 4.20221C9.75059 3.49502 9.16417 2.92168 8.44085 2.92168C7.90089 2.92168 7.43722 3.2411 7.23668 3.69724L9.75098 6.21154V4.20221Z" fill="#141B34"/>
<path d="M4.60345 12.0936C3.96177 11.4642 2.90517 11.5214 2.33803 12.2168C1.90405 12.7489 1.89165 13.5018 2.30773 14.0474L2.30887 14.0489L7.13049 20.2229V22.7498L17.7254 22.75V20.098L18.8198 18.8159L7.13065 7.12675L7.13046 14.5724L4.60345 12.0936Z" fill="#141B34"/>
<path d="M20.0039 15.9547V6.987C20.0039 6.27948 19.4173 5.70592 18.6938 5.70592C17.9702 5.70592 17.3837 6.27948 17.3837 6.987V11.9999H16.5862V4.75904C16.5862 4.05152 15.9996 3.47796 15.2761 3.47796C14.5525 3.47796 13.9659 4.05152 13.9659 4.75904V10.4265L19.9748 16.4353C19.9941 16.2765 20.0039 16.116 20.0039 15.9547Z" fill="#141B34"/>
<path d="M13.1685 2.53108C13.1685 1.82356 12.5819 1.25 11.8583 1.25C11.1348 1.25 10.5482 1.82358 10.5482 2.53108L10.5484 7.00892L13.1685 9.62902V2.53108Z" fill="#141B34"/>
</svg>
