<svg width="24" height="24" viewBox="0 0 24 24" fill="none" xmlns="http://www.w3.org/2000/svg">
<path fill-rule="evenodd" clip-rule="evenodd" d="M12.998 1.5L12.998 3.5L10.998 3.5L10.998 1.5L12.998 1.5Z" fill="#141B34"/>
<path d="M8.24805 6.5C8.24805 4.42893 9.92698 2.75 11.998 2.75C14.0691 2.75 15.748 4.42893 15.748 6.5C15.748 8.57107 14.0691 10.25 11.998 10.25C9.92698 10.25 8.24805 8.57107 8.24805 6.5Z" fill="#141B34"/>
<path fill-rule="evenodd" clip-rule="evenodd" d="M11 20.0303V16.0303H13V20.0303H11Z" fill="#141B34"/>
<path d="M8.47809 10.3931L6.57443 15.3859C5.53464 14.6459 4.6283 13.6976 3.90607 12.5908L2.25 13.6904C3.19663 15.1411 4.42145 16.3755 5.84434 17.3008L4.13585 21.7817L5.98636 22.4997L7.60932 18.2431C8.96534 18.8214 10.4462 19.1406 12 19.1406C13.554 19.1406 15.0352 18.8212 16.3914 18.2428L18.0145 22.4997L19.865 21.7817L18.1563 17.3003C19.5789 16.3751 20.8035 15.1409 21.75 13.6904L20.0939 12.5908C19.3718 13.6973 18.4657 14.6456 17.4262 15.3855L15.5225 10.3926C15.0244 10.8436 14.4394 11.2003 13.7956 11.4346L15.679 16.3744C14.5389 16.8697 13.2968 17.1406 12 17.1406C10.7034 17.1406 9.46156 16.8698 8.32167 16.3747L10.2052 11.4348C9.56131 11.2006 8.97624 10.844 8.47809 10.3931Z" fill="#141B34"/>
</svg>
