<svg width="24" height="24" viewBox="0 0 24 24" fill="none" xmlns="http://www.w3.org/2000/svg">
<path d="M6.27771 2.89791C8.37948 4.45608 10.1657 6.41278 11.5244 8.65577C9.51748 9.39144 7.34395 9.79381 5.07359 9.79381C3.86799 9.79381 2.69032 9.6804 1.55083 9.46415C2.2172 6.70853 3.94527 4.36735 6.27771 2.89791Z" fill="#141B34"/>
<path d="M8.27049 1.91456C9.43234 1.48477 10.6888 1.25 12 1.25C14.6047 1.25 16.9931 2.17637 18.8535 3.71763C17.3188 5.41388 15.4627 6.82505 13.378 7.85914C12.0397 5.5857 10.3055 3.57269 8.27049 1.91456Z" fill="#141B34"/>
<path d="M20.2705 5.13216C21.8189 6.99469 22.75 9.38861 22.75 12C22.75 12.0845 22.749 12.1688 22.7471 12.2528C21.8908 12.1314 21.0176 12.0688 20.1313 12.0688C18.5279 12.0688 16.9702 12.2733 15.479 12.6588C15.1639 11.6136 14.7733 10.6011 14.3136 9.62748C16.5745 8.49868 18.5927 6.96849 20.2705 5.13216Z" fill="#141B34"/>
<path d="M22.5163 14.2401C21.7852 17.6892 19.4002 20.5273 16.2305 21.8856C16.3515 20.9505 16.4139 19.9974 16.4139 19.0301C16.4139 17.5123 16.2604 16.0303 15.9682 14.5987C17.3052 14.252 18.6993 14.0688 20.1313 14.0688C20.9404 14.0688 21.7365 14.1272 22.5163 14.2401Z" fill="#141B34"/>
<path d="M14.1071 22.5436C13.4257 22.679 12.7212 22.75 12 22.75C9.92228 22.75 7.98223 22.1606 6.33795 21.1398C8.36191 18.4743 11.0194 16.4135 14.0525 15.2214C14.2897 16.4546 14.4139 17.7279 14.4139 19.0301C14.4139 20.2294 14.3087 21.4034 14.1071 22.5436Z" fill="#141B34"/>
<path d="M4.74397 19.9318C2.59664 17.9664 1.25 15.1404 1.25 12C1.25 11.8139 1.25473 11.629 1.26407 11.4452C2.49892 11.6742 3.77244 11.7938 5.07359 11.7938C7.68615 11.7938 10.1849 11.3117 12.482 10.4328C12.9136 11.3408 13.279 12.2863 13.5719 13.2629C10.0764 14.5799 7.03264 16.9177 4.74397 19.9318Z" fill="#141B34"/>
</svg>
