<svg width="24" height="24" viewBox="0 0 24 24" fill="none" xmlns="http://www.w3.org/2000/svg">
<path d="M5.41585 21.7504L4.49984 21.3492C3.58368 20.9484 3.58398 20.9477 3.58398 20.9477L3.58587 20.9434L3.59064 20.9326L3.60785 20.894C3.62273 20.8609 3.64441 20.813 3.67279 20.7513C3.72955 20.6281 3.81316 20.4497 3.92291 20.2242C4.14233 19.7733 4.46662 19.1328 4.89002 18.3659C5.7355 16.8345 6.98268 14.4874 8.58681 12.4342C11.7509 8.38409 16.5106 4.0498 22.4998 4.0498V6.0498C17.489 6.0498 13.2487 9.71552 10.1629 13.6654C8.64199 15.6122 7.45167 17.864 6.64091 19.3326C6.23618 20.0657 5.92765 20.6752 5.72129 21.0993C5.61815 21.3113 5.41585 21.7504 5.41585 21.7504Z" fill="#141B34"/>
<path d="M7.32929 6.25C6.91746 7.41519 5.80622 8.25 4.5 8.25C2.84315 8.25 1.5 6.90685 1.5 5.25C1.5 3.59315 2.84315 2.25 4.5 2.25C5.80622 2.25 6.91746 3.08481 7.32929 4.25L9.5 4.25V6.25H7.32929Z" fill="#141B34"/>
<path d="M11.5 4.25H13.5V6.25H11.5V4.25Z" fill="#141B34"/>
</svg>
