<svg width="24" height="24" viewBox="0 0 24 24" fill="none" xmlns="http://www.w3.org/2000/svg">
<path d="M3.22452 8.69029C4.45163 6.76331 6.27724 5.25 8.5 5.25C10.7228 5.25 12.5484 6.76331 13.7755 8.69029C15.0132 10.6339 15.75 13.1487 15.75 15.5C15.75 17.8829 14.9591 19.723 13.6016 20.961C12.2555 22.1885 10.4342 22.75 8.5 22.75C6.56579 22.75 4.74446 22.1885 3.39843 20.961C2.04087 19.723 1.25 17.8829 1.25 15.5C1.25 13.1487 1.98684 10.6339 3.22452 8.69029Z" fill="#141B34"/>
<path d="M13.1788 2.5376C15.1235 1.33868 17.4263 0.773028 19.4265 1.7424C21.4268 2.71176 22.4097 4.86975 22.6736 7.13898C22.9397 9.42776 22.5061 12.0122 21.4806 14.1281C20.4414 16.2725 18.9273 17.5834 17.1657 18.1055C17.0848 18.1294 17.0037 18.1517 16.9223 18.1722C17.1393 17.3442 17.2503 16.4504 17.2503 15.501C17.2503 12.8654 16.4326 10.0709 15.041 7.88556C14.0977 6.40435 12.7361 4.98683 11.0024 4.2586C11.6759 3.5952 12.4119 3.01041 13.1788 2.5376Z" fill="#141B34"/>
</svg>
