<svg width="24" height="24" viewBox="0 0 24 24" fill="none" xmlns="http://www.w3.org/2000/svg">
<path d="M9.26665 7.84285C9.34076 7.49705 9.64635 7.25 10 7.25H14C14.3537 7.25 14.6593 7.49705 14.7334 7.84285L16.2334 14.8429C16.2808 15.0643 16.2256 15.2954 16.0833 15.4715C15.9409 15.6476 15.7265 15.75 15.5 15.75H8.50001C8.27351 15.75 8.05915 15.6476 7.91676 15.4715C7.77437 15.2954 7.7192 15.0643 7.76665 14.8429L9.26665 7.84285Z" fill="#141B34"/>
<path fill-rule="evenodd" clip-rule="evenodd" d="M8.29297 16.7929C8.48051 16.6054 8.73486 16.5 9.00008 16.5H15.0001C15.2653 16.5 15.5196 16.6054 15.7072 16.7929L17.2072 18.2929L15.793 19.7071L14.5859 18.5H9.41429L8.20718 19.7071L6.79297 18.2929L8.29297 16.7929Z" fill="#141B34"/>
<path fill-rule="evenodd" clip-rule="evenodd" d="M13 21V17.5H11V21H5V23H19V21H13Z" fill="#141B34"/>
<path fill-rule="evenodd" clip-rule="evenodd" d="M6.21913 3.3753C6.4089 3.13809 6.69622 3 7 3H17C17.3038 3 17.5911 3.13809 17.7809 3.3753L21.7809 8.37531C21.9227 8.55262 22 8.77293 22 9V14H20V9.35078L16.5194 5H7.48063L4 9.35078V14H2V9C2 8.77293 2.07728 8.55262 2.21913 8.37531L6.21913 3.3753Z" fill="#141B34"/>
<path fill-rule="evenodd" clip-rule="evenodd" d="M18 13H21V11H18V13ZM6 11H3V13H6V11Z" fill="#141B34"/>
<path fill-rule="evenodd" clip-rule="evenodd" d="M11 1V8H13V1L11 1Z" fill="#141B34"/>
</svg>
