<svg width="24" height="24" viewBox="0 0 24 24" fill="none" xmlns="http://www.w3.org/2000/svg">
<path fill-rule="evenodd" clip-rule="evenodd" d="M5 19C5 17.8954 5.89543 17 7 17H17C18.1046 17 19 17.8954 19 19V20.5C19 21.6046 18.1046 22.5 17 22.5H7C5.89543 22.5 5 21.6046 5 20.5V19ZM17 19H7V20.5H17V19Z" fill="#141B34"/>
<path fill-rule="evenodd" clip-rule="evenodd" d="M5 15.5C5 14.3954 5.89543 13.5 7 13.5H17C18.1046 13.5 19 14.3954 19 15.5V17C19 18.1046 18.1046 19 17 19H7C5.89543 19 5 18.1046 5 17V15.5ZM17 15.5H7V17H17V15.5Z" fill="#141B34"/>
<path fill-rule="evenodd" clip-rule="evenodd" d="M5 12C5 10.8954 5.89543 10 7 10H17C18.1046 10 19 10.8954 19 12V13.5C19 14.6046 18.1046 15.5 17 15.5H7C5.89543 15.5 5 14.6046 5 13.5V12ZM17 12H7V13.5H17V12Z" fill="#141B34"/>
<path fill-rule="evenodd" clip-rule="evenodd" d="M3.24429 3.87617C3.43353 3.63902 3.71998 3.50098 4.02284 3.50098H6.01714V5.50098H4.50201L2.8071 7.62505L1.25 6.37543L3.24429 3.87617ZM19.498 5.50116L17.9828 5.50098L17.983 3.50098L19.9773 3.50122C20.2801 3.50125 20.5665 3.63928 20.7557 3.87637L22.75 6.3754L21.193 7.62509L19.498 5.50116ZM8.01143 3.50107H15.9886V5.50107H8.01143V3.50107Z" fill="#141B34"/>
<path fill-rule="evenodd" clip-rule="evenodd" d="M7 11V1.5H9V11H7ZM15 11V1.5H17V11H15Z" fill="#141B34"/>
</svg>
