<svg width="24" height="24" viewBox="0 0 24 24" fill="none" xmlns="http://www.w3.org/2000/svg">
<path d="M12.6558 2.63577C12.5235 2.39767 12.2725 2.25 12.0002 2.25C11.7278 2.25 11.4768 2.39767 11.3445 2.63576L1.34438 20.6358C1.21533 20.8681 1.21883 21.1513 1.3536 21.3803C1.48836 21.6094 1.73426 21.75 2 21.75H10.2502V17.7902L7.60344 16.136L8.39844 14.864L10.2502 16.0213V12.75H13.7502V14.1367L15.1289 13.3489L15.8731 14.6512L13.7502 15.8644V17.9319L16.084 16.376L16.916 17.6241L13.7502 19.7346V21.75H22.0002C22.2659 21.75 22.5118 21.6094 22.6466 21.3803C22.7813 21.1513 22.7848 20.8681 22.6558 20.6358L12.6558 2.63577Z" fill="#141B34"/>
</svg>
