<svg width="24" height="24" viewBox="0 0 24 24" fill="none" xmlns="http://www.w3.org/2000/svg">
<path d="M9.13796 10.8408L3.63585 13.8408C3.42584 13.9553 3.28304 14.1631 3.25142 14.4001L2.25 22.5515L3.73741 22.7497L4.68853 14.9755L9.85651 12.1577L9.13796 10.8408Z" fill="#141B34"/>
<path d="M14.8584 10.8408L14.386 11.7066L14.3243 11.6772C13.3366 13.7562 11.6015 15.159 10.0671 16.0507C9.54373 16.355 9.05016 16.5959 8.62819 16.7809L8.73808 16.1227L7.25798 15.8758L6.25623 21.8758C6.21991 22.0933 6.28118 22.3157 6.42374 22.484C6.5663 22.6522 6.7757 22.7492 6.99628 22.7492H21.0016C21.2179 22.7492 21.4237 22.6559 21.5662 22.4933C21.7086 22.3306 21.7739 22.1144 21.7454 21.9001L21.1789 17.6534C21.0936 17.751 21.0052 17.8508 20.9142 17.9518C20.4986 18.4139 20.0235 18.91 19.542 19.3462C19.0692 19.7743 18.5523 20.1798 18.054 20.4252L17.3912 19.0796C17.7015 18.9268 18.0958 18.6322 18.535 18.2344C18.9655 17.8446 19.4031 17.3888 19.7991 16.9486C20.194 16.5097 20.5406 16.0939 20.7888 15.7875C20.8324 15.7337 20.8728 15.6834 20.9099 15.6369L20.745 14.4001C20.7134 14.1631 20.5706 13.9553 20.3605 13.8408L19.5265 13.3861C18.9603 14.8855 18.0233 16.0994 17.1405 16.9973C16.4953 17.6536 15.864 18.1566 15.3933 18.4963C15.1574 18.6665 14.9605 18.7966 14.8205 18.8855C14.7504 18.9299 14.6945 18.9641 14.6549 18.9878C14.6351 18.9997 14.6193 19.0089 14.608 19.0155L14.5942 19.0235L14.5898 19.026L14.5877 19.0273C14.5877 19.0273 14.5872 19.0275 14.2168 18.3754C13.8464 17.7232 13.846 17.7234 13.846 17.7234L13.8525 17.7197L13.8841 17.701C13.9133 17.6835 13.9583 17.656 14.017 17.6188C14.1345 17.5443 14.3064 17.4308 14.5155 17.2799C14.9347 16.9774 15.4979 16.5285 16.0709 15.9456C16.9091 15.0931 17.7374 13.9866 18.1939 12.6595L14.8584 10.8408Z" fill="#141B34"/>
<path fill-rule="evenodd" clip-rule="evenodd" d="M7.3427 7.04652C6.76187 4.06946 8.982 1.25 11.9998 1.25C15.0176 1.25 17.2378 4.06946 16.6569 7.04652L16.2364 9.20188C15.8364 11.252 14.073 12.75 11.9998 12.75C9.92666 12.75 8.1632 11.252 7.76322 9.20188L7.3427 7.04652ZM8.81429 6.75928L8.8125 6.75003L15.1858 6.75L15.184 6.75928L14.7635 8.91463C14.4961 10.2855 13.3293 11.25 11.9992 11.25C10.669 11.25 9.50227 10.2855 9.23481 8.91464L8.81429 6.75928Z" fill="#141B34"/>
</svg>
