<svg width="24" height="24" viewBox="0 0 24 24" fill="none" xmlns="http://www.w3.org/2000/svg">
<path fill-rule="evenodd" clip-rule="evenodd" d="M9.75 7.75V1.75H11.25V7.75H9.75ZM7.75 4V2.95H9.25V6.55H7.75V5.5H6.5V4H7.75ZM11.75 6.55V2.95H13.25V4H20.25V5.5H13.25V6.55H11.75Z" fill="#141B34"/>
<path fill-rule="evenodd" clip-rule="evenodd" d="M16.5 10.25H4.5V8.75H16.5V10.25Z" fill="#141B34"/>
<path d="M5.25 13.2407L7.6103 9.93631L6.3897 9.06445L3.8897 12.5645C3.79884 12.6917 3.75 12.8441 3.75 13.0004V21.5004C3.75 21.9146 4.08579 22.2504 4.5 22.2504H16.5C16.9142 22.2504 17.25 21.9146 17.25 21.5004V13.0004C17.25 12.8441 17.2012 12.6917 17.1103 12.5645L14.6103 9.06445L13.3897 9.93631L15.75 13.2407V13.7505H9.25V18.5005H7.75V13.7505H5.25V13.2407Z" fill="#141B34"/>
</svg>
