<svg width="24" height="24" viewBox="0 0 24 24" fill="none" xmlns="http://www.w3.org/2000/svg">
<path d="M3.25 15.0962V20.5H4.75V15.0962C5.11799 14.9392 5.42761 14.6749 5.66066 14.3642C6.03849 13.8604 6.25 13.1989 6.25 12.5C6.25 11.8011 6.03849 11.1396 5.66066 10.6358C5.28266 10.1318 4.70321 9.75 4 9.75C3.29679 9.75 2.71734 10.1318 2.33934 10.6358C1.96151 11.1396 1.75 11.8011 1.75 12.5C1.75 13.1989 1.96151 13.8604 2.33934 14.3642C2.57239 14.6749 2.88201 14.9392 3.25 15.0962Z" fill="#141B34"/>
<path fill-rule="evenodd" clip-rule="evenodd" d="M22.25 21.25H2.25V19.75H22.25V21.25Z" fill="#141B34"/>
<path fill-rule="evenodd" clip-rule="evenodd" d="M7.53125 9.86029L7.53125 20.5H11.0312V14.5C11.0312 14.0858 11.367 13.75 11.7812 13.75H16.7812C17.1955 13.75 17.5312 14.0858 17.5312 14.5V20.5L21.0312 20.5V9.86065L21.3125 10.0857L22.2495 8.91435L14.7495 2.91435C14.4756 2.69522 14.0864 2.69522 13.8125 2.91435L6.3125 8.91435L7.24954 10.0857L7.53125 9.86029ZM12.5312 15.25V20.5H16.0312V15.25H12.5312ZM13.2813 9.25L15.2813 9.25V7.75L13.2813 7.75V9.25ZM15.2813 10.75L13.2812 10.75V12.25L15.2813 12.25V10.75Z" fill="#141B34"/>
</svg>
