<svg width="24" height="24" viewBox="0 0 24 24" fill="none" xmlns="http://www.w3.org/2000/svg">
<path d="M12 1.25C14.2344 1.25 16.15 2.71516 16.6852 4.74459C18.436 5.23332 19.75 6.78394 19.75 8.66667C19.75 10.9559 17.8123 12.75 15.5 12.75C14.2909 12.75 13.1914 12.2635 12.4132 11.4737C11.5432 12.2675 10.3685 12.75 9.08333 12.75C6.44886 12.75 4.25 10.7072 4.25 8.11111C4.25 5.96384 5.75869 4.19142 7.76792 3.64632C8.59667 2.20764 10.1901 1.25 12 1.25Z" fill="#141B34"/>
<path d="M7.80859 14.1237L11.3107 22.2954C11.428 22.5689 11.6958 22.7472 11.9934 22.7499C12.2909 22.7526 12.5619 22.5791 12.684 22.3077L16.337 14.1901C16.0625 14.2296 15.7829 14.2499 15.5001 14.2499C14.3583 14.2499 13.2828 13.9248 12.3771 13.3555C11.4117 13.9258 10.2814 14.2499 9.08343 14.2499C8.64942 14.2499 8.22273 14.2066 7.80859 14.1237Z" fill="#141B34"/>
</svg>
