<svg width="24" height="24" viewBox="0 0 24 24" fill="none" xmlns="http://www.w3.org/2000/svg">
<path fill-rule="evenodd" clip-rule="evenodd" d="M22.5002 2.91421L15.793 9.62132L13.0859 6.91421L14.5002 5.5L15.793 6.79289L21.0859 1.5L22.5002 2.91421Z" fill="#141B34"/>
<path d="M1.5 3.5C1.5 2.94772 1.94772 2.5 2.5 2.5H11.5V4.5H3.5V12.7514C6.27422 12.7097 8.9821 13.5865 11.1484 15.2377C12.9445 16.6068 14.2743 18.437 14.9826 20.5H16.5587C16.1174 19.0155 15.399 17.6317 14.4492 16.4091C15.459 15.9721 16.5064 15.7459 17.5719 15.7501C18.2212 15.7495 18.8657 15.8356 19.5 16.0047V10.5H21.5V21.5C21.5 22.0523 21.0523 22.5 20.5 22.5H2.5C1.94772 22.5 1.5 22.0523 1.5 21.5V3.5Z" fill="#141B34"/>
</svg>
