<svg width="24" height="24" viewBox="0 0 24 24" fill="none" xmlns="http://www.w3.org/2000/svg">
<path d="M21.3358 22.75L1.25 2.66421L2.66421 1.25L22.75 21.3358L21.3358 22.75Z" fill="#141B34"/>
<path d="M2 3V21C2 21.5523 2.44772 22 3 22H21C21.2766 22 21.5269 21.8877 21.7079 21.7063L12.6406 12.6389L4 19.7085V4L2.29289 2.29289C2.11193 2.47386 2 2.72386 2 3Z" fill="#141B34"/>
<path d="M22 3C22 2.44772 21.5523 2 21 2H5.53721L7.53721 4H20V14.1314L14.9397 10.7578L14.5851 11.0479L22 18.4628V3Z" fill="#141B34"/>
</svg>
