<svg width="24" height="24" viewBox="0 0 24 24" fill="none" xmlns="http://www.w3.org/2000/svg">
<path fill-rule="evenodd" clip-rule="evenodd" d="M2.9677 1.45699C3.10835 1.31633 3.29913 1.2373 3.49805 1.2373H20.498C20.9123 1.2373 21.248 1.57309 21.248 1.9873V21.4996C21.248 21.7599 21.1131 22.0015 20.8916 22.1381C20.67 22.2746 20.3935 22.2866 20.161 22.1696L16.5154 20.3356L12.3623 22.6429C12.1358 22.7688 11.8603 22.7688 11.6338 22.6429L7.48072 20.3356L3.83658 22.1696C3.6041 22.2866 3.32757 22.2747 3.10599 22.1381C2.8844 22.0016 2.74945 21.7599 2.74943 21.4997L2.74805 1.98736C2.74803 1.78844 2.82704 1.59766 2.9677 1.45699ZM7.99805 10.2498H11.998V11.7498H7.99805V10.2498ZM14.998 6.24976H7.99805V7.74976H14.998V6.24976Z" fill="#141B34"/>
</svg>
