<svg width="24" height="24" viewBox="0 0 24 24" fill="none" xmlns="http://www.w3.org/2000/svg">
<path fill-rule="evenodd" clip-rule="evenodd" d="M12.8622 4.50781L18.5226 11.3607C18.8254 11.7273 18.8254 12.2683 18.5226 12.6349L12.8622 19.4878L11.4297 18.2136L16.5638 11.9978L11.4297 5.78204L12.8622 4.50781Z" fill="#141B34"/>
<path fill-rule="evenodd" clip-rule="evenodd" d="M16.8622 4.50781L22.5226 11.3607C22.8254 11.7273 22.8254 12.2683 22.5226 12.6349L16.8622 19.4878L15.4297 18.2136L20.5638 11.9978L15.4297 5.78204L16.8622 4.50781Z" fill="#141B34"/>
<path fill-rule="evenodd" clip-rule="evenodd" d="M5.25 12.998V14.998L3.25 14.998L3.25 12.998H1.25V10.998H3.25L3.25 8.99805H5.25V10.998H7.25V12.998H5.25Z" fill="#141B34"/>
<path d="M14.7496 11.998L7.99959 4.24805L5.16895 7.49805H6.75107V9.49805H8.75107V14.498H6.75107V16.498H5.16895L7.99959 19.748L14.7496 11.998Z" fill="#141B34"/>
</svg>
