<svg width="24" height="24" viewBox="0 0 24 24" fill="none" xmlns="http://www.w3.org/2000/svg">
<path d="M7.9803 1.63868L3.18965 3.81625C2.98657 3.90856 2.83512 4.08647 2.77643 4.30169L1.27643 9.80169C1.25065 9.8962 1.24364 9.99484 1.25579 10.092L2.25579 18.092C2.30271 18.4674 2.62176 18.749 3 18.749H4.69384L5.73392 10.0949L4.78659 7.23483L6.21051 6.76318L7.21051 9.78226C7.24519 9.88697 7.25635 9.99805 7.24319 10.1076L5.89246 21.3465C6.62268 21.8303 7.51925 22.1652 8.46269 22.3861C9.57426 22.6464 10.8002 22.7599 12.001 22.751C13.2019 22.7599 14.4278 22.6464 15.5394 22.3861C16.4808 22.1657 17.3756 21.8317 18.105 21.3495L16.7539 10.1076C16.7407 9.99805 16.7519 9.88697 16.7866 9.78226L17.7866 6.76318L19.2105 7.23483L18.2632 10.0949L19.3033 18.749H21C21.3782 18.749 21.6973 18.4674 21.7442 18.092L22.7442 10.092C22.7564 9.99484 22.7493 9.8962 22.7236 9.80169L21.2236 4.30169C21.1649 4.08647 21.0134 3.90856 20.8104 3.81625L16.018 1.63791L13.9624 5.74907L10.0354 5.74851L7.9803 1.63868Z" fill="#141B34"/>
<path d="M14.5354 1.24902H9.46254L10.9625 4.24864L13.0354 4.24894L14.5354 1.24902Z" fill="#141B34"/>
</svg>
