<svg width="24" height="24" viewBox="0 0 24 24" fill="none" xmlns="http://www.w3.org/2000/svg">
<path fill-rule="evenodd" clip-rule="evenodd" d="M14.1405 2.2722C14.3815 2.28893 14.6198 2.31482 14.8553 2.34952C14.6928 2.70792 14.5815 3.09454 14.5309 3.5H13V13H22.7482C22.7459 13.2593 22.7404 13.4583 22.7278 13.6405C22.4082 18.2443 18.7443 21.9082 14.1405 22.2278C13.8204 22.25 13.4486 22.25 12.7895 22.25H11.2105C10.5514 22.25 10.1796 22.25 9.85949 22.2278C8.63831 22.143 7.48219 21.8226 6.43709 21.3113L1.47483 22.75L2.77921 18.0954C1.92471 16.8022 1.38603 15.2804 1.2722 13.6405C1.24999 13.3205 1.24999 12.9486 1.25 12.2895V12.2895V12.2105V12.2104C1.24999 11.5514 1.24999 11.1795 1.2722 10.8595C1.59176 6.25571 5.25571 2.59176 9.85949 2.2722C10.1795 2.24999 10.5514 2.24999 11.2105 2.25H11.2105H12.7895H12.7896C13.4486 2.24999 13.8204 2.24999 14.1405 2.2722ZM9.00897 11.5H7V13.5H9.00897V11.5Z" fill="#141B34"/>
<path d="M15.748 4C15.748 2.48122 16.9793 1.25 18.498 1.25C19.3195 1.25 20.0575 1.61112 20.5604 2.18079L19.4357 3.17339C19.2056 2.91264 18.8713 2.75 18.498 2.75C17.8077 2.75 17.248 3.30964 17.248 4V4.75H22.748V11.75H14.248V4.75H15.748V4Z" fill="#141B34"/>
</svg>
