<svg width="24" height="24" viewBox="0 0 24 24" fill="none" xmlns="http://www.w3.org/2000/svg">
<path fill-rule="evenodd" clip-rule="evenodd" d="M12.3418 1.26895C12.0664 1.24999 11.7465 1.24999 11.1794 1.25H11.1793H9.82066H9.82065C9.25353 1.24999 8.93357 1.24999 8.65817 1.26895C4.69678 1.54174 1.54407 4.66951 1.26911 8.59957C1.24999 8.87279 1.24999 9.19022 1.25 9.75285V9.75286V9.82031V9.82032C1.24999 10.383 1.24999 10.7004 1.26911 10.9736C1.36705 12.3735 1.83056 13.6726 2.56583 14.7766L1.44345 18.75L5.71331 17.5218C6.61258 17.9583 7.60738 18.2319 8.65817 18.3042C8.93357 18.3232 9.25353 18.3232 9.82065 18.3232H11.1794C11.7465 18.3232 12.0664 18.3232 12.3418 18.3042C16.3032 18.0314 19.4559 14.9037 19.7309 10.9736C19.75 10.7004 19.75 10.383 19.75 9.82032V9.75285C19.75 9.19022 19.75 8.87279 19.7309 8.59957C19.4559 4.66951 16.3032 1.54174 12.3418 1.26895ZM6.5 11.25H14.5V12.75H6.5V11.25ZM6.5 7.25H11.5V8.75H6.5V7.25Z" fill="#141B34"/>
<path d="M5.61523 18.8509C6.94839 20.8042 9.13968 22.1311 11.6577 22.3045C11.9331 22.3235 12.2531 22.3235 12.8202 22.3234H14.1789C14.746 22.3235 15.066 22.3235 15.3414 22.3045C16.3922 22.2321 17.387 21.9586 18.2862 21.5221L22.5561 22.7503L21.4337 18.7769C22.169 17.6729 22.6325 16.3738 22.7305 14.9739C22.7496 14.7007 22.7496 14.3832 22.7496 13.8206V13.7531C22.7496 13.1905 22.7496 12.8731 22.7305 12.5998C22.6122 10.9096 21.9617 9.36783 20.9435 8.1377C20.9573 8.26191 20.9686 8.3869 20.9774 8.5126C20.9996 8.82994 20.9996 9.18699 20.9996 9.70398V9.86974C20.9996 10.3867 20.9996 10.7438 20.9774 11.0611C20.6584 15.6208 17.0033 19.2364 12.4273 19.5515C12.1084 19.5735 11.7495 19.5735 11.2275 19.5734H9.77167C9.24966 19.5735 8.8907 19.5735 8.57186 19.5515C7.531 19.4799 6.53612 19.237 5.61707 18.8503L5.61523 18.8509Z" fill="#141B34"/>
</svg>
