<svg width="24" height="24" viewBox="0 0 24 24" fill="none" xmlns="http://www.w3.org/2000/svg">
<path fill-rule="evenodd" clip-rule="evenodd" d="M3.25777 6.16973C4.09481 4.929 5.27071 4 6.83534 4C7.94627 4 8.98255 4.60243 9.9232 5.48919C10.6038 6.13082 11.2952 6.97793 12 8.01385C12.7048 6.97793 13.3962 6.13082 14.0768 5.48919C15.0174 4.60243 16.0537 4 17.1647 4C18.7293 4 19.9052 4.929 20.7422 6.16973C21.5716 7.39915 22.1618 9.05609 22.5831 10.859C22.9956 12.624 23.1558 14.7518 22.8145 16.491C22.6441 17.3594 22.3323 18.2158 21.7849 18.8738C21.2083 19.5668 20.3984 20 19.387 20C18.8374 20 18.3226 19.8006 17.8764 19.5412C17.4241 19.2783 16.9787 18.9167 16.5492 18.5027C15.6907 17.675 14.8041 16.5479 13.9528 15.3043C13.2263 14.2433 12.5752 13.1791 12 12.1121C11.4248 13.1791 10.7737 14.2433 10.0472 15.3043C9.19592 16.5479 8.30931 17.675 7.45076 18.5027C7.0213 18.9167 6.57587 19.2783 6.12358 19.5412C5.6774 19.8006 5.16255 20 4.61302 20C3.60157 20 2.79167 19.5668 2.21512 18.8738C1.66772 18.2158 1.35593 17.3594 1.18553 16.491C0.844236 14.7518 1.00444 12.624 1.41694 10.859C1.83821 9.05609 2.42835 7.39915 3.25777 6.16973ZM13.1345 9.93436C13.8099 11.3419 14.6317 12.7558 15.603 14.1744L15.6031 14.1745C16.4185 15.3657 17.2175 16.3688 17.9373 17.0628C18.297 17.4096 18.614 17.6566 18.8815 17.8121C19.1552 17.9712 19.3176 18 19.387 18C19.7645 18 20.0246 17.8624 20.2474 17.5946C20.4993 17.2918 20.7162 16.7975 20.8519 16.1059C21.1229 14.7251 21.0053 12.8962 20.6355 11.3141L20.6355 11.314C20.2379 9.61225 19.7168 8.22593 19.0843 7.28827C18.4593 6.36192 17.8223 6 17.1647 6C16.7944 6 16.2295 6.2084 15.4487 6.94448C14.7563 7.59721 13.9832 8.58233 13.1345 9.93436ZM10.8655 9.93436C10.1901 11.3419 9.36827 12.7558 8.39699 14.1744L8.39692 14.1745C7.5815 15.3657 6.78252 16.3688 6.06268 17.0628C5.70295 17.4096 5.38599 17.6566 5.11846 17.8121C4.84481 17.9712 4.68241 18 4.61302 18C4.23553 18 3.97539 17.8624 3.7526 17.5946C3.50066 17.2918 3.28381 16.7975 3.1481 16.1059C2.87714 14.7251 2.99473 12.8962 3.36447 11.3141L3.36448 11.314C3.76213 9.61225 4.28315 8.22593 4.91574 7.28827C5.5407 6.36192 6.17765 6 6.83534 6C7.20558 6 7.77048 6.2084 8.55129 6.94448C9.2437 7.59721 10.0168 8.58233 10.8655 9.93436Z" fill="#141B34"/>
</svg>
