<svg width="24" height="24" viewBox="0 0 24 24" fill="none" xmlns="http://www.w3.org/2000/svg">
<path fill-rule="evenodd" clip-rule="evenodd" d="M1.24805 4C1.24805 3.58579 1.58383 3.25 1.99805 3.25H3.24805L9.72449 9.72645C9.15065 10.3125 8.79688 11.115 8.79688 12C8.79688 13.7949 10.2519 15.25 12.0469 15.25C12.9319 15.25 13.7343 14.8962 14.3204 14.3224L20.748 20.75H1.99805C1.58383 20.75 1.24805 20.4142 1.24805 20V4ZM12.2927 8.75916C13.8917 8.87876 15.1681 10.1552 15.2877 11.7541L22.748 19.2145V4C22.748 3.58579 22.4123 3.25 21.998 3.25H6.78358L12.2927 8.75916ZM4 11H6V13H4V11ZM18 11H20V13H18V11Z" fill="#141B34"/>
<path d="M21.3358 22.75L1.25 2.66421L2.66421 1.25L22.75 21.3358L21.3358 22.75Z" fill="#141B34"/>
</svg>
