<svg width="24" height="24" viewBox="0 0 24 24" fill="none" xmlns="http://www.w3.org/2000/svg">
<path fill-rule="evenodd" clip-rule="evenodd" d="M19.5 5.75L9.5 5.75L9.5 3.75L19.5 3.75L19.5 5.75Z" fill="#141B34"/>
<path fill-rule="evenodd" clip-rule="evenodd" d="M4.5 3.75H6.50898V5.75H4.5V3.75Z" fill="#141B34"/>
<path fill-rule="evenodd" clip-rule="evenodd" d="M4.5 9.75H6.50898V11.75H4.5V9.75Z" fill="#141B34"/>
<path fill-rule="evenodd" clip-rule="evenodd" d="M4.5 15.75H6.50898V17.75H4.5V15.75Z" fill="#141B34"/>
<path fill-rule="evenodd" clip-rule="evenodd" d="M19.5 11.75L9.5 11.75L9.5 9.75L19.5 9.75L19.5 11.75Z" fill="#141B34"/>
<path fill-rule="evenodd" clip-rule="evenodd" d="M18.5 17.75L9.5 17.75L9.5 15.75L18.5 15.75L18.5 17.75Z" fill="#141B34"/>
<path fill-rule="evenodd" clip-rule="evenodd" d="M16.6707 16.75L14.5841 14.6642L15.9983 13.25L19.4991 16.75L15.998 20.2508L14.5838 18.8365L16.6707 16.75Z" fill="#141B34"/>
</svg>
