<svg width="24" height="24" viewBox="0 0 24 24" fill="none" xmlns="http://www.w3.org/2000/svg">
<path d="M8.23258 2.38745L8.58904 1.25L7.40936 1.42091C2.85122 2.08131 1.27935 5.77516 1.03311 7.77733C0.76769 9.93548 2.0774 11.9518 4.08391 12.522C3.94627 10.9052 3.98473 9.41527 4.13656 8.07861L5.62698 8.24792C5.4779 9.56032 5.44538 11.0421 5.60303 12.664C7.58019 12.4829 9.21451 10.8886 9.46955 8.8149C9.54997 8.16097 9.41862 7.54633 9.23499 6.99318C9.10604 6.60473 8.9327 6.19805 8.77065 5.81785C8.70971 5.67487 8.65035 5.5356 8.59557 5.4025C8.17176 4.37282 7.90124 3.44473 8.23258 2.38745Z" fill="#141B34"/>
<path d="M8.32265 17.5391C7.90817 17.9972 7.49968 18.4859 7.09941 19.0055C6.24755 16.7259 5.78993 14.5953 5.60213 12.6634C5.31269 12.6899 5.0159 12.6861 4.71501 12.6491C4.49777 12.6224 4.28679 12.5794 4.08301 12.5215C4.28671 14.9144 4.87613 17.5852 6.05457 20.4482L6.06805 20.4426C5.73726 20.9371 5.414 21.4549 5.09969 21.9963L6.39691 22.7494C7.23468 21.3064 8.13509 20.0468 9.06699 18.9624C8.88698 18.7176 8.72459 18.4504 8.58264 18.1614C8.48287 17.9583 8.39633 17.7505 8.32265 17.5391Z" fill="#141B34"/>
<path d="M9.06743 18.9645C10.7031 17.061 12.4358 15.6972 14.097 14.8288L13.4021 13.4995C11.707 14.3856 9.96774 15.7231 8.32292 17.5413C7.39688 14.8856 8.50116 11.6629 10.9184 10.0224C12.0647 9.24444 13.8819 8.45542 15.9333 8.41563C18.0167 8.37522 20.3046 9.11105 22.3047 11.3266L23.0003 12.0972L22.0502 12.5156C20.5649 13.1697 19.7092 14.4417 18.902 15.9088C18.7937 16.1056 18.6846 16.3092 18.5741 16.5153C18.2889 17.0473 17.9948 17.5961 17.6836 18.0873C17.2444 18.7806 16.7197 19.4482 16.0154 19.9262C13.6227 21.55 10.6579 21.1273 9.06743 18.9645Z" fill="#141B34"/>
</svg>
