<svg width="24" height="24" viewBox="0 0 24 24" fill="none" xmlns="http://www.w3.org/2000/svg">
<path fill-rule="evenodd" clip-rule="evenodd" d="M11.499 21.25C9.7041 21.25 8.24902 19.7949 8.24902 18H6.74902C6.74902 20.6234 8.87567 22.75 11.499 22.75C14.1224 22.75 16.249 20.6234 16.249 18H14.749C14.749 19.7949 13.2939 21.25 11.499 21.25Z" fill="#141B34"/>
<path fill-rule="evenodd" clip-rule="evenodd" d="M18.499 5.13889C17.195 5.13889 16.1379 6.19599 16.1379 7.5C16.1379 7.80452 16.1956 8.09557 16.3005 8.36284L19.3619 5.30151C19.0946 5.19654 18.8035 5.13889 18.499 5.13889ZM20.6975 6.63716L17.6362 9.69849C17.9035 9.80346 18.1945 9.86111 18.499 9.86111C19.803 9.86111 20.8601 8.80401 20.8601 7.5C20.8601 7.19548 20.8025 6.90443 20.6975 6.63716ZM14.249 7.5C14.249 5.15279 16.1518 3.25 18.499 3.25C20.8462 3.25 22.749 5.15279 22.749 7.5C22.749 9.84721 20.8462 11.75 18.499 11.75C16.1518 11.75 14.249 9.84721 14.249 7.5Z" fill="#141B34"/>
<path d="M11.5 1.25C7.03436 1.25 3.41425 4.94365 3.41425 9.5V12.3008L1.25 16.1652L1.70987 16.5687C3.94472 18.5294 7.52928 19.75 11.5 19.75C15.4707 19.75 19.0553 18.5294 21.2901 16.5687L21.75 16.1652L20.0058 13.0508C19.5259 13.1807 19.021 13.25 18.5 13.25C15.3244 13.25 12.75 10.6756 12.75 7.5C12.75 5.33127 13.9507 3.44297 15.7235 2.46355C14.4943 1.69382 13.048 1.25 11.5 1.25Z" fill="#141B34"/>
</svg>
