<svg width="24" height="24" viewBox="0 0 24 24" fill="none" xmlns="http://www.w3.org/2000/svg">
<path fill-rule="evenodd" clip-rule="evenodd" d="M16.6288 18.043L13.8359 20.8359L15.2502 22.2502L18.043 19.4573L20.8359 22.2502L22.2502 20.8359L19.4573 18.043L22.2502 15.2502L20.8359 13.8359L18.043 16.6288L15.2502 13.8359L13.8359 15.2502L16.6288 18.043Z" fill="#141B34"/>
<path d="M8.2331 1.75H2.5C2.08579 1.75 1.75 2.08579 1.75 2.5V5.75H6.05309L8.2331 1.75Z" fill="#141B34"/>
<path d="M7.76139 5.75H13.0531L15.2331 1.75H9.94141L7.76139 5.75Z" fill="#141B34"/>
<path d="M16.9414 1.75L14.7614 5.75H21.25V2.5C21.25 2.08579 20.9142 1.75 20.5 1.75H16.9414Z" fill="#141B34"/>
<path d="M1.75 7.25H21.25V11.3019L18.0443 14.5075L15.2514 11.7146L11.7158 15.2501L14.5087 18.043L11.3022 21.25H2.5C2.08579 21.25 1.75 20.9142 1.75 20.5V7.25Z" fill="#141B34"/>
</svg>
