<svg width="24" height="24" viewBox="0 0 24 24" fill="none" xmlns="http://www.w3.org/2000/svg">
<path d="M3 2.25H8.7331L6.55309 6.25H2.25V3C2.25 2.58579 2.58579 2.25 3 2.25Z" fill="#141B34"/>
<path d="M13.5531 6.25H8.26139L10.4414 2.25H15.7331L13.5531 6.25Z" fill="#141B34"/>
<path d="M17.4414 2.25L15.2614 6.25H21.75V3C21.75 2.58579 21.4142 2.25 21 2.25H17.4414Z" fill="#141B34"/>
<path fill-rule="evenodd" clip-rule="evenodd" d="M21.75 7.75H2.25V21C2.25 21.4142 2.58579 21.75 3 21.75H21C21.4142 21.75 21.75 21.4142 21.75 21V7.75ZM15.5 14.5L10 11V18L15.5 14.5Z" fill="#141B34"/>
</svg>
