<svg width="24" height="24" viewBox="0 0 24 24" fill="none" xmlns="http://www.w3.org/2000/svg">
<path d="M12.0046 1.40491C12.1896 1.26297 12.4301 1.21519 12.6554 1.27563L18.1945 2.76196C18.4192 2.82227 18.6032 2.98349 18.6926 3.19837C18.7819 3.41324 18.7665 3.65741 18.6508 3.85931L17.6798 5.5533L18.1884 5.68529L17.8117 7.13721L17.0532 6.94041L16.3778 9.21363L14.9399 8.78638L15.6004 6.56346L12.9642 5.87946L12.2337 8.2209L10.8018 7.77414L11.5106 5.50229L10.8117 5.32097L11.1884 3.86905L11.711 4.00464V2.00001C11.711 1.76679 11.8195 1.54685 12.0046 1.40491Z" fill="#141B34"/>
<path fill-rule="evenodd" clip-rule="evenodd" d="M15.0078 12C15.0078 12.5523 14.5621 13 14.0123 13H14.0033C13.4535 13 13.0078 12.5523 13.0078 12C13.0078 11.4477 13.4535 11 14.0033 11L14.0123 11C14.5621 11 15.0078 11.4477 15.0078 12Z" fill="#141B34"/>
<path d="M8.75 15C8.75 15.9665 9.5335 16.75 10.5 16.75C11.4665 16.75 12.25 15.9665 12.25 15H8.75Z" fill="#141B34"/>
<path fill-rule="evenodd" clip-rule="evenodd" d="M12 7.25C7.71979 7.25 4.25 10.7198 4.25 15C4.25 19.2802 7.71979 22.75 12 22.75C16.2802 22.75 19.75 19.2802 19.75 15C19.75 10.7198 16.2802 7.25 12 7.25ZM5.75 15C5.75 11.5482 8.54822 8.75 12 8.75C15.4518 8.75 18.25 11.5482 18.25 15H13.75C13.75 16.7949 12.2949 18.25 10.5 18.25C8.70507 18.25 7.25 16.7949 7.25 15H5.75Z" fill="#141B34"/>
</svg>
