<svg width="24" height="24" viewBox="0 0 24 24" fill="none" xmlns="http://www.w3.org/2000/svg">
<path fill-rule="evenodd" clip-rule="evenodd" d="M9 1.25H20.1608C21.7857 1.25 23.022 2.72615 22.6988 4.32613C22.3558 6.0247 20.9332 7.18865 19.4323 7.63996C19.0281 9.15496 18.2595 10.271 17.2507 11.0547C15.7622 12.2112 13.8701 12.55 12.2 12.55H10.5C10.0068 12.55 9.55991 12.7484 9.23479 13.0697L3.052 8.01356C4.59722 5.91938 7.00456 4.50022 9.75013 4.27996V8.4H11.2501V4.25H19.75V5C19.75 5.31379 19.7388 5.61624 19.7169 5.90765C20.4888 5.48971 21.0696 4.81597 21.2285 4.02916C21.3604 3.376 20.8563 2.75 20.1608 2.75H9V1.25ZM15.5 9C16.0523 9 16.5 8.55228 16.5 8C16.5 7.44772 16.0523 7 15.5 7H15.491C14.9387 7 14.491 7.44771 14.491 8C14.491 8.55228 14.9387 9 15.491 9H15.5Z" fill="#141B34"/>
<path d="M2.25608 9.30038C1.61279 10.5607 1.25 11.988 1.25 13.5C1.25 16.2636 2.46193 18.7441 4.38331 20.4391L9.07373 15.4482C8.88398 15.2021 8.75648 14.9056 8.71483 14.5822L2.25608 9.30038Z" fill="#141B34"/>
<path d="M5.59277 21.3425L10.4728 16.1498L10.5 16.15H14.0779C14.2855 15.1519 14.8874 14.2708 15.6285 13.6161C16.5508 12.8014 17.7838 12.25 19 12.25H19.75V13C19.75 18.0524 15.6627 22.75 10.5 22.75C8.69733 22.75 7.0151 22.2343 5.59277 21.3425Z" fill="#141B34"/>
</svg>
