<svg width="24" height="24" viewBox="0 0 24 24" fill="none" xmlns="http://www.w3.org/2000/svg">
<path d="M7.81161 18.2046C7.9298 17.9288 8.20095 17.75 8.50098 17.75H11.001V12.75H10.521L9.83513 11.263L9.83395 11.2605C9.47785 10.4807 8.99486 9.95576 8.46281 9.37748C8.33454 9.23807 8.20342 9.09556 8.07054 8.94564C7.39533 8.18382 6.75098 7.28473 6.75098 5.84619C6.75098 4.30059 7.34651 3.11103 8.36097 2.32865C9.34747 1.56785 10.653 1.25 12.001 1.25C13.3458 1.25 14.6518 1.56039 15.6396 2.3185C16.6567 3.09911 17.251 4.29027 17.251 5.84619C17.251 7.29387 16.6082 8.19404 15.9311 8.95614C15.796 9.10816 15.6629 9.25231 15.5327 9.39319C15.0027 9.96705 14.5228 10.4866 14.1682 11.2613L14.1671 11.2635L13.4808 12.75H13.001V17.75H15.501C15.801 17.75 16.0722 17.9288 16.1904 18.2046L17.6899 21.7048C17.7892 21.9366 17.7654 22.2026 17.6266 22.4131C17.4879 22.6235 17.2526 22.7502 17.0005 22.7502H7.00098C6.74887 22.7502 6.51364 22.6235 6.37485 22.4131C6.23607 22.2026 6.21231 21.9365 6.31161 21.7048L7.81161 18.2046Z" fill="#141B34"/>
</svg>
