<svg width="24" height="24" viewBox="0 0 24 24" fill="none" xmlns="http://www.w3.org/2000/svg">
<path fill-rule="evenodd" clip-rule="evenodd" d="M7.06464 2.84408C8.59781 2.34413 10.1373 2.1464 11.0551 2.3019L11.6128 2.39639L11.6752 2.95857C11.7278 3.43243 11.8655 4.18304 12.102 5.02348L9.64648 6.3388L10.3548 7.66104L12.5861 6.4658C12.7535 6.88833 12.9409 7.29641 13.1478 7.67458L11.0243 9.42061L11.977 10.5792L14.0042 8.91232C14.1352 9.05687 14.2711 9.18839 14.412 9.30477C14.7822 9.61062 15.3847 9.87814 16.1824 10.1342C16.7236 10.3079 17.2961 10.4595 17.8877 10.6162C18.163 10.6891 18.4425 10.7631 18.7248 10.8409C19.5811 11.077 20.4607 11.3478 21.16 11.7187C21.8458 12.0825 22.5311 12.6346 22.6964 13.5128C22.8568 14.3651 22.6555 15.1953 22.1032 15.8125C21.5544 16.4256 20.7309 16.7498 19.7888 16.7498L4.81817 16.7499C3.79141 16.7511 2.93251 16.7522 2.13719 16.0033C1.78894 15.6754 1.55406 15.3519 1.42051 14.9584C1.30474 14.6172 1.28295 14.262 1.26363 13.947L1.26077 13.9006C1.16212 12.3117 1.76284 10.9579 2.17461 10.2256C2.77109 9.16486 2.75235 7.60206 2.46015 6.1738L2.38424 5.80273L2.6378 5.52138C3.81634 4.21368 5.51303 3.35005 7.06464 2.84408ZM3.48206 10.9609C3.1353 11.5776 2.68485 12.6316 2.75787 13.8077C2.78151 14.1886 2.79644 14.3453 2.84094 14.4765C2.87338 14.5721 2.93756 14.6967 3.16548 14.9113C3.48987 15.2168 3.73826 15.2499 4.94535 15.2499H5.96523C5.78704 13.3393 4.93594 11.6615 3.69105 10.5386C3.62874 10.6826 3.55926 10.8236 3.48206 10.9609Z" fill="#141B34"/>
<path fill-rule="evenodd" clip-rule="evenodd" d="M4 16.25C2.48122 16.25 1.25 17.4812 1.25 19C1.25 20.5188 2.48122 21.75 4 21.75C5.25878 21.75 6.32002 20.9043 6.64648 19.75H9.35352C9.67998 20.9043 10.7412 21.75 12 21.75C13.2588 21.75 14.32 20.9043 14.6465 19.75H17.3535C17.68 20.9043 18.7412 21.75 20 21.75C21.5188 21.75 22.75 20.5188 22.75 19C22.75 17.4812 21.5188 16.25 20 16.25C18.7412 16.25 17.68 17.0957 17.3535 18.25H14.6465C14.32 17.0957 13.2588 16.25 12 16.25C10.7412 16.25 9.67998 17.0957 9.35352 18.25H6.64648C6.32002 17.0957 5.25878 16.25 4 16.25ZM2.75 19C2.75 18.3096 3.30964 17.75 4 17.75C4.69036 17.75 5.25 18.3096 5.25 19C5.25 19.6904 4.69036 20.25 4 20.25C3.30964 20.25 2.75 19.6904 2.75 19ZM10.75 19C10.75 18.3096 11.3096 17.75 12 17.75C12.6904 17.75 13.25 18.3096 13.25 19C13.25 19.6904 12.6904 20.25 12 20.25C11.3096 20.25 10.75 19.6904 10.75 19ZM20 17.75C19.3096 17.75 18.75 18.3096 18.75 19C18.75 19.6904 19.3096 20.25 20 20.25C20.6904 20.25 21.25 19.6904 21.25 19C21.25 18.3096 20.6904 17.75 20 17.75Z" fill="#141B34"/>
</svg>
