<svg width="24" height="24" viewBox="0 0 24 24" fill="none" xmlns="http://www.w3.org/2000/svg">
<path fill-rule="evenodd" clip-rule="evenodd" d="M15.6438 1.25V6.25H11.1438V4.25H12.3374C11.2501 3.467 9.98544 3.17354 8.75627 3.30041C6.89434 3.4926 5.06152 4.65763 4.03762 6.69839L2.25 5.8015C3.57453 3.16153 5.9972 1.57458 8.55091 1.31098C10.3225 1.12812 12.1322 1.58603 13.6438 2.72841V1.25H15.6438Z" fill="#141B34"/>
<path d="M18.7808 6.81949C18.4686 6.27788 17.79 6.09354 17.2717 6.39305L9.16032 11.0799L9.97873 7.90929C10.1704 7.16675 9.67745 6.39847 8.90935 6.27419C8.32656 6.1799 7.76768 6.49378 7.54244 7.02899L4.72868 14.277L3.24805 15.0928L7.66117 22.75L9.51636 21.6944L9.68243 21.7488L9.68717 21.7504L9.70235 21.7553L9.7617 21.7743C9.81335 21.7908 9.88805 21.8142 9.97945 21.8422C10.1625 21.8983 10.4113 21.972 10.6755 22.043C10.9408 22.1143 11.2161 22.1814 11.4537 22.2255C11.7094 22.2731 11.8661 22.2827 11.9245 22.2738C12.324 22.213 12.7445 22.0624 13.309 21.7834C13.8766 21.5028 14.5652 21.1051 15.5052 20.5619L20.814 17.4943C21.3285 17.197 21.5066 16.5255 21.1964 15.9874C20.8843 15.4458 20.2057 15.2615 19.6873 15.561L15.8134 17.7995L15.4176 17.0912L21.0133 13.8577C21.5278 13.5605 21.7059 12.889 21.3957 12.3509C21.0836 11.8093 20.405 11.625 19.8866 11.9245L15.1518 14.6605L14.7561 13.9521L21.2126 10.2212C21.7271 9.92395 21.9051 9.25253 21.595 8.71443C21.2829 8.17283 20.6043 7.98849 20.086 8.28796L14.4903 11.5216L14.0946 10.8132L18.3988 8.32608C18.9129 8.02865 19.0908 7.35742 18.7808 6.81949Z" fill="#141B34"/>
</svg>
