<svg width="24" height="24" viewBox="0 0 24 24" fill="none" xmlns="http://www.w3.org/2000/svg">
<path d="M15 17.25C15.4142 17.25 15.75 16.9142 15.75 16.5L15.75 3.5C15.75 3.08579 15.4142 2.75 15 2.75L2 2.75C1.58579 2.75 1.25 3.08579 1.25 3.5L1.25 16.5C1.25 16.9142 1.58579 17.25 2 17.25L15 17.25Z" fill="#141B34"/>
<path fill-rule="evenodd" clip-rule="evenodd" d="M22.75 12.6641L19.4571 9.5429C19.1711 9.25692 18.741 9.17137 18.3673 9.32616C17.9936 9.48094 17.75 9.84557 17.75 10.25L17.75 19.2499H9.75L9.75 21.2499H18.75C19.3023 21.2499 19.75 20.8021 19.75 20.2499V12.6641L21.3358 14.0784L22.75 12.6641Z" fill="#141B34"/>
</svg>
