<svg width="24" height="24" viewBox="0 0 24 24" fill="none" xmlns="http://www.w3.org/2000/svg">
<path fill-rule="evenodd" clip-rule="evenodd" d="M18.5 16.5H1.5V15H18.5C20.5711 15 22.25 16.6789 22.25 18.75C22.25 20.8211 20.5711 22.5 18.5 22.5H1.5V21H18.5C19.7426 21 20.75 19.9926 20.75 18.75C20.75 17.5074 19.7426 16.5 18.5 16.5Z" fill="#141B34"/>
<path fill-rule="evenodd" clip-rule="evenodd" d="M19.252 15.7812C19.252 16.3163 18.8182 16.75 18.2832 16.75H4.7207C4.18568 16.75 3.75195 16.3163 3.75195 15.7812V5.86506L6.05948 1.25H16.9444L19.252 5.86506V15.7812ZM7.25586 3.1875L6.28711 5.125H16.7147L15.7459 3.1875H7.25586ZM9.99805 9.75H12.998V8.25H9.99805V9.75Z" fill="#141B34"/>
<path fill-rule="evenodd" clip-rule="evenodd" d="M18.5 16.75H1.5V14.75H18.5C20.7091 14.75 22.5 16.5409 22.5 18.75C22.5 20.9591 20.7091 22.75 18.5 22.75H1.5V20.75H18.5C19.6046 20.75 20.5 19.8546 20.5 18.75C20.5 17.6454 19.6046 16.75 18.5 16.75Z" fill="#141B34"/>
<path fill-rule="evenodd" clip-rule="evenodd" d="M4.50391 18.75C4.50391 18.1977 4.95133 17.75 5.50327 17.75H5.51224C6.06417 17.75 6.5116 18.1977 6.5116 18.75C6.5116 19.3023 6.06417 19.75 5.51224 19.75H5.50327C4.95133 19.75 4.50391 19.3023 4.50391 18.75ZM10.5001 18.75C10.5001 18.1977 10.9475 17.75 11.4994 17.75H11.5084C12.0603 17.75 12.5078 18.1977 12.5078 18.75C12.5078 19.3023 12.0603 19.75 11.5084 19.75H11.4994C10.9475 19.75 10.5001 19.3023 10.5001 18.75ZM16.4962 18.75C16.4962 18.1977 16.9436 17.75 17.4956 17.75H17.5045C18.0565 17.75 18.5039 18.1977 18.5039 18.75C18.5039 19.3023 18.0565 19.75 17.5045 19.75H17.4956C16.9436 19.75 16.4962 19.3023 16.4962 18.75Z" fill="#141B34"/>
</svg>
