<svg width="24" height="24" viewBox="0 0 24 24" fill="none" xmlns="http://www.w3.org/2000/svg">
<path fill-rule="evenodd" clip-rule="evenodd" d="M20.25 19.75V22.25H18.25L18.25 19.75H15.75V17.75H18.25L18.25 15.25H20.25V17.75H22.75V19.75H20.25Z" fill="#141B34"/>
<path fill-rule="evenodd" clip-rule="evenodd" d="M18.3965 6.75H22.0011C22.4153 6.75 22.7511 7.08579 22.7511 7.5V11.0406L21.1463 11.5755L20.6883 13.75H16.75V16.25H14.25V21.25H5.50106C5.1464 21.25 4.84021 21.0016 4.76715 20.6545L2.8558 11.5756L1.25 11.0407V7.5C1.25 7.08579 1.58579 6.75 2 6.75H6.91874L9.08594 1.79639L10.9183 2.59803L9.10177 6.75H16.1605L14.1077 2.64443L15.8965 1.75L18.3965 6.75ZM9.5 10.75H14.5V12.25H9.5V10.75Z" fill="#141B34"/>
</svg>
