<svg width="24" height="24" viewBox="0 0 24 24" fill="none" xmlns="http://www.w3.org/2000/svg">
<path fill-rule="evenodd" clip-rule="evenodd" d="M11.5 3.25C9.01472 3.25 7 5.26472 7 7.75H5C5 4.16015 7.91015 1.25 11.5 1.25C15.0899 1.25 18 4.16015 18 7.75H16C16 5.26472 13.9853 3.25 11.5 3.25Z" fill="#141B34"/>
<path fill-rule="evenodd" clip-rule="evenodd" d="M22.7502 16.0431L16.043 22.7502L13.3359 20.0431L14.7502 18.6289L16.043 19.9218L21.3359 14.6289L22.7502 16.0431Z" fill="#141B34"/>
<path d="M2.00001 6.75C1.77881 6.75 1.56889 6.84764 1.42639 7.01682C1.28389 7.186 1.22333 7.40945 1.26091 7.62743L3.86825 22.75H13.922L11.2148 20.0429L14.7504 16.5073L16.0433 17.8002L20.8064 13.0371L21.7391 7.62743C21.7767 7.40945 21.7161 7.186 21.5736 7.01682C21.4311 6.84764 21.2212 6.75 21 6.75H2.00001Z" fill="#141B34"/>
</svg>
