<svg width="24" height="24" viewBox="0 0 24 24" fill="none" xmlns="http://www.w3.org/2000/svg">
<path fill-rule="evenodd" clip-rule="evenodd" d="M19.043 22.75L22.7502 19.0429L21.3359 17.6287L20.043 18.9216V13.3358H18.043V18.9216L16.7502 17.6287L15.3359 19.0429L19.043 22.75Z" fill="#141B34"/>
<path fill-rule="evenodd" clip-rule="evenodd" d="M18.3965 6.25H22.0011C22.4153 6.25 22.7511 6.58579 22.7511 7V10.5406L21.1463 11.0755L20.9861 11.8358H16.5433V15.7145L13.2148 19.0429L14.9219 20.75H5.50106C5.1464 20.75 4.84021 20.5016 4.76715 20.1545L2.8558 11.0756L1.25 10.5407V7C1.25 6.58579 1.58579 6.25 2 6.25H6.91874L9.08594 1.29639L10.9183 2.09803L9.10177 6.25H16.1605L14.1077 2.14443L15.8965 1.25L18.3965 6.25ZM9.5 10.25H14.5V11.75H9.5V10.25Z" fill="#141B34"/>
</svg>
