<svg width="24" height="24" viewBox="0 0 24 24" fill="none" xmlns="http://www.w3.org/2000/svg">
<path fill-rule="evenodd" clip-rule="evenodd" d="M22.7502 16.0431L16.043 22.7502L13.3359 20.0431L14.7502 18.6289L16.043 19.9218L21.3359 14.6289L22.7502 16.0431Z" fill="#141B34"/>
<path fill-rule="evenodd" clip-rule="evenodd" d="M18.3965 6.25H22.0011C22.4153 6.25 22.7511 6.58579 22.7511 7V10.5406L21.1463 11.0755L20.7136 13.1299L16.0433 17.8002L14.7504 16.5073L11.2148 20.0429L11.922 20.75H5.50106C5.1464 20.75 4.84021 20.5016 4.76715 20.1545L2.8558 11.0756L1.25 10.5407V7C1.25 6.58579 1.58579 6.25 2 6.25H6.91874L9.08594 1.29639L10.9183 2.09803L9.10177 6.25H16.1605L14.1077 2.14443L15.8965 1.25L18.3965 6.25ZM9.5 10.25H14.5V11.75H9.5V10.25Z" fill="#141B34"/>
</svg>
