<svg width="24" height="24" viewBox="0 0 24 24" fill="none" xmlns="http://www.w3.org/2000/svg">
<path fill-rule="evenodd" clip-rule="evenodd" d="M19.25 19.75V22.75H17.25L17.25 19.75H14.25V17.75H17.25L17.25 14.75H19.25V17.75H22.25V19.75H19.25Z" fill="#141B34"/>
<path fill-rule="evenodd" clip-rule="evenodd" d="M12 1.25C8.75021 1.25 6.05745 3.63491 5.57645 6.75H2.50001C2.27881 6.75 2.06889 6.84764 1.92639 7.01682C1.78389 7.186 1.72333 7.40945 1.76091 7.62743L4.36825 22.75H15.75V21.25H12.75V16.25H15.75V13.25H21.2697L22.2391 7.62743C22.2767 7.40945 22.2161 7.186 22.0736 7.01682C21.9311 6.84764 21.7212 6.75 21.5 6.75H18.4236C17.9425 3.63491 15.2498 1.25 12 1.25ZM12 3.25C9.85841 3.25 8.06624 4.74601 7.61151 6.75H16.3885C15.9338 4.74601 14.1416 3.25 12 3.25Z" fill="#141B34"/>
</svg>
