<svg width="24" height="24" viewBox="0 0 24 24" fill="none" xmlns="http://www.w3.org/2000/svg">
<path fill-rule="evenodd" clip-rule="evenodd" d="M11.498 3.25C9.01277 3.25 6.99805 5.26472 6.99805 7.75H4.99805C4.99805 4.16015 7.9082 1.25 11.498 1.25C15.0879 1.25 17.998 4.16015 17.998 7.75H15.998C15.998 5.26472 13.9833 3.25 11.498 3.25Z" fill="#141B34"/>
<path d="M15.8002 13.9119C16.3568 13.6233 17.0767 13.25 17.998 13.25C18.9231 13.25 19.6437 13.6239 20.201 13.9132L20.2398 13.9333C20.8346 14.2417 21.2563 14.448 21.7815 14.448H22.3687L22.5096 15.0171C22.9697 16.8747 22.7512 18.6232 21.9605 20.01C21.1674 21.4011 19.8253 22.3781 18.1478 22.7195L17.9979 22.75L17.8481 22.7195C16.1706 22.3781 14.8285 21.4011 14.0354 20.01C13.2447 18.6232 13.0263 16.8747 13.4863 15.0171L13.6273 14.448H14.2144C14.7407 14.448 15.1642 14.2413 15.7592 13.9332L15.8002 13.9119Z" fill="#141B34"/>
<path d="M2.00001 6.75C1.77881 6.75 1.56889 6.84764 1.42639 7.01682C1.28389 7.186 1.22333 7.40945 1.26091 7.62743L3.86825 22.75H14.4374C13.754 22.203 13.1771 21.53 12.7341 20.753C11.7275 18.9874 11.4924 16.8355 12.0321 14.6565L12.4552 12.948H14.2162C14.3248 12.948 14.5238 12.8846 15.158 12.5561C15.7137 12.2674 16.7095 11.75 17.9997 11.75C19.294 11.75 20.2906 12.2682 20.8475 12.5578C20.8604 12.5644 20.8731 12.571 20.8856 12.5775L21.7391 7.62743C21.7767 7.40945 21.7161 7.186 21.5736 7.01682C21.4311 6.84764 21.2212 6.75 21 6.75H2.00001Z" fill="#141B34"/>
</svg>
