<svg width="24" height="24" viewBox="0 0 24 24" fill="none" xmlns="http://www.w3.org/2000/svg">
<path fill-rule="evenodd" clip-rule="evenodd" d="M11.5 3.25C9.01472 3.25 7 5.26472 7 7.75H5C5 4.16015 7.91015 1.25 11.5 1.25C15.0899 1.25 18 4.16015 18 7.75H16C16 5.26472 13.9853 3.25 11.5 3.25Z" fill="#141B34"/>
<path d="M17.5186 14.4347C17.7038 14.5119 17.8659 14.6002 18.0028 14.6865C18.1397 14.6002 18.3018 14.5119 18.4869 14.4347C19.1396 14.1625 20.0626 14.0396 21.0927 14.5767C22.4249 15.2714 23.0246 16.8974 22.6341 18.4957C22.2349 20.1299 20.8401 21.7174 18.2594 22.6569L18.0028 22.7503L17.7463 22.6569C15.1655 21.7175 13.7707 20.1299 13.3715 18.4957C12.981 16.8974 13.5806 15.2714 14.9129 14.5767C15.943 14.0396 16.8659 14.1625 17.5186 14.4347Z" fill="#141B34"/>
<path d="M2.00001 6.75C1.77881 6.75 1.56889 6.84764 1.42639 7.01682C1.28389 7.186 1.22333 7.40945 1.26091 7.62743L3.86825 22.75H14.6934C13.2299 21.7008 12.2819 20.3495 11.9159 18.8514C11.397 16.7275 12.1531 14.3246 14.2209 13.2464C15.6693 12.4912 17.0261 12.6297 18.0044 13.0123C18.7645 12.715 19.7531 12.5651 20.8357 12.8673L21.7391 7.62743C21.7767 7.40945 21.7161 7.186 21.5736 7.01682C21.4311 6.84764 21.2212 6.75 21 6.75H2.00001Z" fill="#141B34"/>
</svg>
