<svg width="24" height="24" viewBox="0 0 24 24" fill="none" xmlns="http://www.w3.org/2000/svg">
<path d="M6.25391 10.5C6.25391 9.25736 7.26072 8.25 8.50269 8.25C9.74466 8.25 10.7515 9.25736 10.7515 10.5C10.7515 11.7426 9.74466 12.75 8.50269 12.75C7.26072 12.75 6.25391 11.7426 6.25391 10.5Z" fill="#141B34"/>
<path d="M13.25 10.5C13.25 9.25736 14.2568 8.25 15.4988 8.25C16.7408 8.25 17.7476 9.25736 17.7476 10.5C17.7476 11.7426 16.7408 12.75 15.4988 12.75C14.2568 12.75 13.25 11.7426 13.25 10.5Z" fill="#141B34"/>
<path d="M2.50943 10.4453C3.92748 11.7374 5.53451 12.7538 7.2673 13.4163C7.65559 13.5647 8.05026 13.6954 8.45063 13.8075C9.27652 14.0387 9.93885 14.3779 10.447 14.8556C10.96 15.338 11.2709 15.9195 11.458 16.56C11.6413 17.188 11.7085 17.8828 11.7342 18.6091C11.7529 19.1367 11.7503 19.7146 11.7474 20.3195V20.3195L11.7474 20.3208C11.7464 20.5439 11.7453 20.7706 11.7453 20.9998C11.7453 21.1987 11.6664 21.3895 11.5258 21.5302C11.3852 21.6708 11.1946 21.7498 10.9958 21.7498C9.15825 21.7498 7.77323 21.3825 6.81199 20.741C5.83125 20.0865 5.32719 19.1658 5.26682 18.1959C5.18344 16.8564 5.42942 15.6496 5.95902 14.4975C4.33552 13.7734 2.83538 12.7711 1.5 11.5543L2.50943 10.4453Z" fill="#141B34"/>
<path d="M22.5008 11.5538C21.1718 12.7708 19.6782 13.7731 18.0615 14.4962C18.6892 15.9779 18.8504 17.6757 18.7573 19.1809C18.7542 19.2319 18.7514 19.286 18.7485 19.3427L18.7485 19.3427C18.7157 19.9826 18.6659 20.9552 17.8477 21.673C17.0094 22.4083 15.5273 22.7505 13.0317 22.7505C12.8329 22.7505 12.6423 22.6715 12.5017 22.5309C12.3611 22.3902 12.2821 22.1994 12.2821 22.0005C12.2821 21.3819 12.2739 20.8159 12.2657 20.2935L12.264 20.1847C12.2564 19.7061 12.2494 19.2607 12.25 18.8521C12.2514 17.9843 12.286 17.214 12.4488 16.5548C12.6184 15.8679 12.9311 15.2831 13.485 14.8094C14.0177 14.3537 14.7222 14.0455 15.5932 13.8004C15.9905 13.6887 16.382 13.5583 16.7673 13.4103C18.4865 12.7497 20.0812 11.7361 21.4886 10.4473L22.5008 11.5538Z" fill="#141B34"/>
<path fill-rule="evenodd" clip-rule="evenodd" d="M3.25586 2C3.25586 1.58579 3.59146 1.25 4.00545 1.25H19.9943C20.4083 1.25 20.7439 1.58579 20.7439 2V9H19.2447V2.75H4.75505V9H3.25586V2Z" fill="#141B34"/>
</svg>
