<svg width="24" height="24" viewBox="0 0 24 24" fill="none" xmlns="http://www.w3.org/2000/svg">
<path fill-rule="evenodd" clip-rule="evenodd" d="M5.99902 19.25V16.5H7.99902V19.25H5.99902ZM15.999 19.25V16.5H17.999V19.25H15.999Z" fill="#141B34"/>
<path d="M20.75 13.5C21.8546 13.5 22.75 12.6046 22.75 11.5C22.75 10.3954 21.8546 9.5 20.75 9.5C20.0097 9.5 19.3634 9.9022 19.0176 10.5L17.3538 13.5H6.64618L4.98244 10.5C4.63663 9.9022 3.99028 9.5 3.25 9.5C2.14543 9.5 1.25 10.3954 1.25 11.5C1.25 12.6046 2.14543 13.5 3.25 13.5L4.75 16.5H19.25L20.75 13.5Z" fill="#141B34"/>
<path d="M4.03613 8.60384C4.8095 8.81308 5.45832 9.32371 5.84912 9.99927L5.85365 10.0071L7.23616 12.5H16.766L18.1485 10.0071L18.153 9.99927C18.5438 9.32371 19.1927 8.81308 19.966 8.60384L19.19 6.53441C18.7875 5.46107 17.7614 4.75 16.6151 4.75H7.38708C6.24075 4.75 5.21467 5.46107 4.81217 6.53441L4.03613 8.60384Z" fill="#141B34"/>
</svg>
