<svg width="24" height="24" viewBox="0 0 24 24" fill="none" xmlns="http://www.w3.org/2000/svg">
<path fill-rule="evenodd" clip-rule="evenodd" d="M12.2413 0.581497L12.0007 0.5L11.7601 0.581497C10.0595 1.15751 7.86302 2.70245 6.50484 5.46751C5.13873 8.24874 4.90395 12.7259 6.50587 18.0419H17.4965C19.0984 12.7259 18.8626 8.24874 17.4965 5.46751C16.1383 2.70245 13.9419 1.15751 12.2413 0.581497ZM11.9998 11.0419C10.481 11.0419 9.24981 9.81065 9.24981 8.29187C9.24981 6.77309 10.481 5.54187 11.9998 5.54187C13.5186 5.54187 14.7498 6.77309 14.7498 8.29187C14.7498 9.81065 13.5186 11.0419 11.9998 11.0419Z" fill="#141B34"/>
<path d="M15.8149 19.042C15.6302 20.6103 14.6357 21.9044 13.8313 22.5309C13.4288 22.8443 13.0393 23.0631 12.7498 23.2042C12.6044 23.2751 12.0887 23.4647 12.0002 23.5001C11.9118 23.4647 11.3961 23.275 11.2507 23.2042C10.9613 23.0631 10.5719 22.8442 10.1695 22.5308C9.36528 21.9044 8.37063 20.6101 8.18555 19.042H15.8149Z" fill="#141B34"/>
<path d="M18.7998 18.0422H22.7502V17.2922C22.7502 14.8326 21.5116 12.8461 19.8398 11.9932C19.7548 13.8641 19.4172 15.9006 18.7998 18.0422Z" fill="#141B34"/>
<path d="M4.16224 11.9922C2.48948 12.8446 1.25 14.8317 1.25 17.2922V18.0422H5.20264C4.5851 15.9002 4.24731 13.8634 4.16224 11.9922Z" fill="#141B34"/>
</svg>
