<svg width="24" height="24" viewBox="0 0 24 24" fill="none" xmlns="http://www.w3.org/2000/svg">
<path d="M10.3099 18.6055L9.56085 19.1075C8.57343 19.7692 6.80803 20.4282 4.72317 19.7337L4.37152 19.6165L4.2543 19.2651C3.55935 17.1814 4.21874 15.4171 4.88084 14.4302L5.3831 13.6816L10.3099 18.6055Z" fill="#141B34"/>
<path fill-rule="evenodd" clip-rule="evenodd" d="M21.3096 2.33304C18.2525 0.941128 11.345 1.33888 5.97224 11.5476L5.7207 12.0256L12.1504 18.5806L12.6428 18.3112C22.6695 12.8266 23.0332 5.79599 21.6814 2.71014L21.5677 2.45053L21.3096 2.33304ZM15.5733 10.9219C14.1924 10.9219 13.0723 9.80297 13.0723 8.42188C13.0723 7.04078 14.1924 5.92188 15.5733 5.92188C16.9543 5.92188 18.0744 7.04078 18.0744 8.42188C18.0744 9.80297 16.9543 10.9219 15.5733 10.9219Z" fill="#141B34"/>
<path d="M18.0879 19.6351C17.7091 20.3327 17.2495 20.882 16.8882 21.2552C16.7066 21.4429 15.8215 22.1492 15.7051 22.2501L13.0084 19.5183L13.2347 19.3945C15.4424 18.1869 17.219 16.8928 18.6325 15.5668C19.0472 17.1691 18.6641 18.5737 18.0879 19.6351Z" fill="#141B34"/>
<path d="M1.75 8.11294C1.8503 7.99271 2.53392 7.10438 2.72082 6.91694C3.09233 6.54436 3.64028 6.07007 4.33727 5.68221C5.48688 5.04247 7.03748 4.64857 8.79716 5.29347C7.43635 6.76408 6.10947 8.63174 4.87735 10.9729L4.77155 11.1739L1.75 8.11294Z" fill="#141B34"/>
</svg>
