<svg width="24" height="24" viewBox="0 0 24 24" fill="none" xmlns="http://www.w3.org/2000/svg">
<path fill-rule="evenodd" clip-rule="evenodd" d="M2.25 21.2748V9.5498H4.2V20.2998H19.8V9.5498H21.75V21.2748C21.75 21.8133 21.3135 22.2498 20.775 22.2498H3.225C2.68652 22.2498 2.25 21.8133 2.25 21.2748Z" fill="#141B34"/>
<path fill-rule="evenodd" clip-rule="evenodd" d="M9.66166 16.252C10.1275 16.6654 10.964 16.9998 11.9978 16.9998C13.0316 16.9998 13.8682 16.6654 14.334 16.252L15.6617 17.7477C14.7593 18.5487 13.4175 18.9998 11.9978 18.9998C10.5781 18.9998 9.23637 18.5487 8.33398 17.7477L9.66166 16.252Z" fill="#141B34"/>
<path d="M22.7152 8.77967C22.7843 9.00442 22.744 9.24857 22.6063 9.43919C21.7343 10.6465 20.3195 12.2501 17.753 12.2501C16.6733 12.2501 15.6759 11.8934 14.8754 11.2923C14.0746 11.8938 13.0776 12.2501 11.9977 12.2501C10.9182 12.2501 9.92112 11.8936 9.12068 11.2928C8.32002 11.894 7.3233 12.2501 6.24364 12.2501C3.67691 12.2501 2.26376 10.6462 1.392 9.43919C1.25429 9.24852 1.214 9.0043 1.28317 8.7795L3.44607 1.75L20.5541 1.75008L22.7152 8.77967Z" fill="#141B34"/>
</svg>
