<svg width="24" height="24" viewBox="0 0 24 24" fill="none" xmlns="http://www.w3.org/2000/svg">
<path d="M15.002 8.92695C14.9404 8.8792 14.3089 8.41138 14.2066 8.32535C14.0032 8.15422 13.7297 7.90863 13.4536 7.61282C13.1797 7.31931 12.8884 6.96063 12.6622 6.56208C12.4385 6.16803 12.252 5.68839 12.252 5.16667C12.252 4.30954 12.5334 3.56954 13.0522 3.04045C13.5691 2.51336 14.269 2.25 15.002 2.25C15.7349 2.25 16.4348 2.51336 16.9517 3.04045C17.4705 3.56954 17.752 4.30954 17.752 5.16667C17.752 5.68839 17.5654 6.16803 17.3417 6.56208C17.1155 6.96063 16.8242 7.31931 16.5503 7.61282C16.2742 7.90863 16.0007 8.15422 15.7973 8.32535C15.6951 8.41138 15.0635 8.8792 15.002 8.92695Z" fill="#141B34"/>
<path d="M10.373 9.45208C10.471 9.63125 10.8889 10.5133 10.9411 10.6182C10.8475 10.681 10.0596 11.2355 9.89255 11.3376C9.55956 11.5411 9.08968 11.8065 8.54378 12.0516C7.49574 12.5223 5.98617 13.0024 4.61868 12.5983C2.14267 11.8665 0.861748 9.89704 1.35415 7.85523C1.59273 6.86589 2.21513 6.05878 3.13752 5.61582C4.05062 5.17732 5.18326 5.12928 6.41061 5.492C7.76603 5.89256 8.84313 7.12494 9.53253 8.10083C9.89207 8.60978 10.1775 9.09486 10.373 9.45208Z" fill="#141B34"/>
<path d="M21.4878 18.1997C19.5941 17.2582 18.3187 16.0751 17.5564 14.6585C16.7737 13.2039 16.4908 11.4266 16.7299 9.26169C17.223 9.23324 17.7011 9.25686 18.16 9.33112C19.8299 9.6013 21.1948 10.5366 22.0205 11.9566C22.8464 13.377 22.981 15.0215 22.38 16.597C22.1695 17.1489 21.8714 17.6862 21.4878 18.1997Z" fill="#141B34"/>
<path d="M20.4414 19.3478C18.5285 18.3262 17.1189 17.011 16.2355 15.3692C15.3284 13.6835 15.0125 11.7212 15.199 9.50765C14.3649 9.72442 13.5034 10.0796 12.632 10.5791C12.2866 10.777 11.9619 11.0084 11.6569 11.2657C11.5623 16.2098 14.5057 19.3929 17.8561 21.0629C18.0852 20.9649 18.3085 20.8546 18.5244 20.7309C19.2561 20.3114 19.8959 19.8468 20.4414 19.3478Z" fill="#141B34"/>
<path d="M15.8091 21.6231C14.3607 21.8393 12.8577 21.7501 11.5898 21.576C10.515 21.4284 9.56238 21.2128 8.87874 21.0344C8.53632 20.9451 8.25987 20.8647 8.06756 20.8061C8.0016 20.786 7.61382 20.656 7.35979 20.5708C7.24336 20.5318 7.15503 20.5022 7.13867 20.4969C7.14225 20.4801 7.16069 20.3888 7.18501 20.2684C7.23799 20.0061 7.31881 19.606 7.33428 19.5392C7.37938 19.3444 7.44751 19.0663 7.54083 18.7269C7.72716 18.0495 8.0156 17.1221 8.42453 16.1235C8.85745 15.0663 9.44485 13.8803 10.2209 12.8255C10.6424 16.9314 13.0114 19.8271 15.8091 21.6231Z" fill="#141B34"/>
</svg>
