<svg width="24" height="24" viewBox="0 0 24 24" fill="none" xmlns="http://www.w3.org/2000/svg">
<path fill-rule="evenodd" clip-rule="evenodd" d="M20.837 3.161C18.9935 1.32018 16.2694 0.979244 13.7348 1.42673C11.1905 1.87591 8.65574 3.14414 7.01628 4.7815C4.96624 6.82891 5.07864 9.94806 6.31769 12.4609L6.74862 13.5273C6.6525 13.7517 6.47376 14.0278 6.19437 14.3502C5.83527 14.7647 5.35916 15.2 4.82106 15.6335C3.74508 16.5003 2.49196 17.3044 1.60088 17.8645C1.40766 17.9859 1.28025 18.1887 1.25471 18.4155C1.22918 18.6423 1.30831 18.8684 1.46969 19.0298L4.96991 22.5298C5.13117 22.691 5.35704 22.7702 5.58367 22.7448C5.81031 22.7194 6.01308 22.5923 6.13469 22.3994C6.69686 21.5075 7.5002 20.2497 8.36694 19.1682C8.80032 18.6274 9.23538 18.1489 9.64978 17.788C9.97173 17.5077 10.2473 17.3286 10.471 17.2324L11.5258 17.6625C14.0422 18.9005 17.1641 19.0121 19.2142 16.965C20.854 15.3275 22.1232 12.795 22.5727 10.2535C23.0204 7.72168 22.679 5.00042 20.837 3.161ZM7.68707 11.8458L7.67417 11.8199C7.19403 10.854 6.93806 9.85744 6.92322 8.92285L15.0564 17.0561C14.1239 17.0393 13.1303 16.7838 12.1671 16.3063L12.1426 16.2941L10.5616 15.6495L10.3285 15.7043C9.72681 15.8457 9.16067 16.2252 8.66489 16.6569C8.1574 17.0988 7.65963 17.6524 7.19659 18.2302C6.51694 19.0783 5.88156 20.0172 5.3699 20.8085L3.19141 18.6301C3.98231 18.118 4.91765 17.4821 5.76224 16.8016C6.33756 16.3381 6.88844 15.8401 7.32816 15.3326C7.75782 14.8367 8.13502 14.2714 8.2764 13.6716L8.33109 13.4396L7.68707 11.8458Z" fill="#141B34"/>
</svg>
