<svg width="24" height="24" viewBox="0 0 24 24" fill="none" xmlns="http://www.w3.org/2000/svg">
<path d="M21.3358 22.75L1.25 2.66421L2.66421 1.25L22.75 21.3358L21.3358 22.75Z" fill="#141B34"/>
<path d="M2 3.25C1.58579 3.25 1.25 3.58579 1.25 4V20C1.25 20.4142 1.58579 20.75 2 20.75H17C17.4142 20.75 17.75 20.4142 17.75 20V17.75L3.25 3.25H2Z" fill="#141B34"/>
<path d="M22.75 6.71152C22.75 6.36511 22.5715 6.04547 22.2828 5.8748C21.994 5.70413 21.6396 5.7088 21.3551 5.88704L17.75 8.14536V4C17.75 3.58579 17.4142 3.25 17 3.25H6.78553L17.75 14.2145V10.388L20.908 8.40981V17.3724L22.75 19.2145V6.71152Z" fill="#141B34"/>
</svg>
