<svg width="24" height="24" viewBox="0 0 24 24" fill="none" xmlns="http://www.w3.org/2000/svg">
<path fill-rule="evenodd" clip-rule="evenodd" d="M5 22.25V19.25H7V22.25H5ZM17 22.25V19.25H19V22.25H17Z" fill="#141B34"/>
<path fill-rule="evenodd" clip-rule="evenodd" d="M21.75 16.25V19.5C21.75 19.9142 21.4142 20.25 21 20.25L3 20.25C2.58579 20.25 2.25 19.9142 2.25 19.5L2.25 16.25L21.75 16.25ZM2.25 2.5C2.25 2.08579 2.58579 1.75 3 1.75H11.25L11.25 14.75H2.25L2.25 2.5ZM21 1.75L12.75 1.75L12.75 14.75L21.75 14.75L21.75 2.5C21.75 2.08579 21.4142 1.75 21 1.75ZM9.75 6.75L9.75 9.75L8.25 9.75L8.25 6.75L9.75 6.75ZM15.75 9.75V6.75H14.25V9.75H15.75Z" fill="#141B34"/>
</svg>
