<svg width="24" height="24" viewBox="0 0 24 24" fill="none" xmlns="http://www.w3.org/2000/svg">
<path d="M2.00007 18C1.63344 18 1.32055 18.2651 1.26027 18.6267C1.2 18.9883 1.41001 19.3406 1.75683 19.4595C3.26093 19.9752 4.8562 20.4539 6.46432 20.8717L4.87876 22.4573H7.70718L8.74372 21.4207C11.754 22.0875 14.6791 22.5 17.0001 22.5C18.6925 22.5 20.097 21.8612 21.0759 21.1249C21.5651 20.7569 21.9615 20.3548 22.2429 19.9758C22.3834 19.7866 22.5029 19.5927 22.5902 19.402C22.6723 19.2227 22.7501 18.9942 22.7501 18.75C22.7501 18.3358 22.4143 18 22.0001 18H2.00007Z" fill="#141B34"/>
<path d="M15.6892 11.9978C14.454 11.9791 11.0627 11.7848 7.79822 9.76564C10.192 7.2988 12.3897 4.75066 13.3842 3.32143L13.7046 2.86084L15.5728 3.48357C15.461 3.06407 15.3259 2.66667 15.165 2.29556L17 1.5C18.1915 4.24813 18.1645 7.90402 17.7985 11.2379C17.4313 14.5825 16.6194 17.7121 15.8989 19.1884L14.1016 18.3112C14.2311 18.0458 14.3709 17.6948 14.5137 17.2732C12.4816 16.7229 10.9737 16.0314 9.83986 15.0704C8.65425 14.0655 7.93757 12.8171 7.42188 11.2877C10.7164 13.1842 14.0267 13.4547 15.4505 13.4933C15.5377 13.0121 15.6182 12.5116 15.6892 11.9978Z" fill="#141B34"/>
</svg>
