<svg width="24" height="24" viewBox="0 0 24 24" fill="none" xmlns="http://www.w3.org/2000/svg">
<path d="M5.25 3C5.25 2.58579 5.58579 2.25 6 2.25H14C14.4142 2.25 14.75 2.58579 14.75 3V8C14.75 8.41421 14.4142 8.75 14 8.75H6C5.58579 8.75 5.25 8.41421 5.25 8V3Z" fill="#141B34"/>
<path d="M5.25 13C5.25 12.5858 5.58579 12.25 6 12.25H14C14.4142 12.25 14.75 12.5858 14.75 13V18C14.75 18.4142 14.4142 18.75 14 18.75H6C5.58579 18.75 5.25 18.4142 5.25 18V13Z" fill="#141B34"/>
<path d="M18.4697 11.9697C18.7626 11.6768 19.2374 11.6768 19.5303 11.9697L22.5303 14.9697C22.8232 15.2626 22.8232 15.7374 22.5303 16.0303L19.5303 19.0303C19.2374 19.3232 18.7626 19.3232 18.4697 19.0303L15.4697 16.0303C15.1768 15.7374 15.1768 15.2626 15.4697 14.9697L18.4697 11.9697Z" fill="#141B34"/>
<path fill-rule="evenodd" clip-rule="evenodd" d="M3.00781 4.5V2H1.00781L1 15.4992C0.999793 15.7646 1.10506 16.0191 1.29262 16.2068C1.48018 16.3945 1.73465 16.5 2 16.5H5.5V14.5H3.00078L3.00703 6.5H6.006V4.5H3.00781ZM14.0024 4.5H19.0001C19.5524 4.5 20.0001 4.94772 20.0001 5.5V12.5H18.0001V6.5H14.0024V4.5ZM16 16.5H14.0024V14.5H16V16.5Z" fill="#141B34"/>
<path fill-rule="evenodd" clip-rule="evenodd" d="M20 21V18.5H18V22C18 22.5523 18.4477 23 19 23H22V21H20Z" fill="#141B34"/>
</svg>
