<svg width="24" height="24" viewBox="0 0 24 24" fill="none" xmlns="http://www.w3.org/2000/svg">
<path d="M20 15.5688C19.8438 14.623 18.8863 13.7321 17.5926 14.075C16.2384 14.4339 15.6241 16.2547 16.2384 17.3925C16.875 18.5714 17.5 20 16 22H21M14 18.1905H19" stroke="#141B34" stroke-width="1.5"/>
<path d="M20 2L20.75 2C20.75 1.58579 20.4142 1.25 20 1.25L20 2ZM3 22L2.25 22C2.25 22.4142 2.58579 22.75 3 22.75L3 22ZM10 2L10 1.25L9.68934 1.25L9.46967 1.46967L10 2ZM3 9L2.46967 8.46967L2.25 8.68934L2.25 9L3 9ZM12 21.25L3 21.25L3 22.75L12 22.75L12 21.25ZM19.25 2L19.25 11L20.75 11L20.75 2L19.25 2ZM20 1.25L10 1.25L10 2.75L20 2.75L20 1.25ZM2.25 9L2.25 22L3.75 22L3.75 9L2.25 9ZM9.46967 1.46967L2.46967 8.46967L3.53033 9.53033L10.5303 2.53033L9.46967 1.46967Z" fill="#141B34"/>
<path d="M10 2L10 9L3 9" stroke="#141B34" stroke-width="1.5"/>
</svg>
