<svg width="24" height="24" viewBox="0 0 24 24" fill="none" xmlns="http://www.w3.org/2000/svg">
<path d="M20.9427 16.8354C20.2864 12.8866 16.7762 8.72713 15 7H9C7.22378 8.72713 3.71361 12.8866 3.05727 16.8354C2.56893 19.7734 5.27927 22 8.30832 22H15.6917C18.7207 22 21.4311 19.7734 20.9427 16.8354Z" stroke="#141B34" stroke-width="1.5" stroke-linecap="round" stroke-linejoin="round"/>
<path d="M17 3.5L17.6512 3.8721C17.7949 3.62066 17.7809 3.30897 17.6154 3.07133C17.4499 2.8337 17.1624 2.71259 16.8767 2.7602L17 3.5ZM14 4L13.4697 4.53033L13.7426 4.80325L14.1233 4.7398L14 4ZM12 2L12.5303 1.46967C12.2374 1.17678 11.7626 1.17678 11.4697 1.46967L12 2ZM7 3.5L7.1233 2.7602C6.83764 2.71259 6.5501 2.8337 6.38458 3.07133C6.21906 3.30897 6.20514 3.62066 6.34882 3.8721L7 3.5ZM10 4L9.8767 4.7398L10.2574 4.80325L10.5303 4.53033L10 4ZM16.3488 3.1279L14.3488 6.6279L15.6512 7.3721L17.6512 3.8721L16.3488 3.1279ZM16.8767 2.7602L13.8767 3.2602L14.1233 4.7398L17.1233 4.2398L16.8767 2.7602ZM14.5303 3.46967L12.5303 1.46967L11.4697 2.53033L13.4697 4.53033L14.5303 3.46967ZM6.34882 3.8721L8.34882 7.3721L9.65118 6.6279L7.65118 3.1279L6.34882 3.8721ZM6.8767 4.2398L9.8767 4.7398L10.1233 3.2602L7.1233 2.7602L6.8767 4.2398ZM10.5303 4.53033L12.5303 2.53033L11.4697 1.46967L9.46967 3.46967L10.5303 4.53033Z" fill="#141B34"/>
<path d="M12 11.5C10.8954 11.5 10 12.1716 10 13C10 13.8284 10.8954 14.5 12 14.5C13.1046 14.5 14 15.1716 14 16C14 16.8284 13.1046 17.5 12 17.5M12 11.5C12.8708 11.5 13.6116 11.9174 13.8862 12.5M12 11.5V10M12 17.5C11.1292 17.5 10.3884 17.0826 10.1138 16.5M12 17.5V19" stroke="#141B34" stroke-width="1.5" stroke-linejoin="round"/>
</svg>
