<svg width="24" height="24" viewBox="0 0 24 24" fill="none" xmlns="http://www.w3.org/2000/svg">
<path d="M18.7584 11.6517C18.3985 12.0706 17.7672 12.1184 17.3483 11.7585L12 7.16291L6.6517 11.7585C6.23281 12.1184 5.60145 12.0706 5.24152 11.6517C4.88159 11.2328 4.92938 10.6015 5.34827 10.2415L10.7342 5.61358L10.7342 5.61357C10.8633 5.50253 11.0213 5.36655 11.1741 5.26524C11.36 5.14197 11.6372 5 12 5C12.3628 5 12.64 5.14197 12.8258 5.26524C12.9786 5.36655 13.1367 5.50254 13.2657 5.61358L18.6517 10.2415C19.0706 10.6015 19.1184 11.2328 18.7584 11.6517Z" fill="#141B34"/>
<path opacity="0.4" d="M18.9376 18.3475C18.7923 18.7397 18.4182 19 18 19L5.99995 19C5.5817 19 5.20763 18.7397 5.06228 18.3475C4.91693 17.9553 5.03101 17.5141 5.34824 17.2415L10.7342 12.6136C10.8633 12.5025 11.0213 12.3666 11.1741 12.2652C11.36 12.142 11.6372 12 12 12C12.3627 12 12.6399 12.142 12.8258 12.2652C12.9786 12.3666 13.1366 12.5025 13.2657 12.6136L18.6517 17.2415C18.9689 17.5141 19.083 17.9553 18.9376 18.3475Z" fill="#141B34"/>
</svg>
