<svg width="24" height="24" viewBox="0 0 24 24" fill="none" xmlns="http://www.w3.org/2000/svg">
<path fill-rule="evenodd" clip-rule="evenodd" d="M20 5C19.4477 5 19 5.44772 19 6L19 18C19 18.5523 19.4477 19 20 19C20.5523 19 21 18.5523 21 18L21 6C21 5.44771 20.5523 5 20 5Z" fill="#141B34"/>
<path opacity="0.4" fill-rule="evenodd" clip-rule="evenodd" d="M13.7106 11.0001L11.3119 8.72564C10.9112 8.34563 10.8943 7.71269 11.2744 7.31193C11.6544 6.91117 12.2873 6.89434 12.6881 7.27436L16.1901 10.595C16.3393 10.7363 16.5158 10.9035 16.6473 11.0669C16.8041 11.2617 17 11.5731 17 12C17 12.4268 16.8041 12.7383 16.6473 12.9331C16.5158 13.0965 16.3393 13.2637 16.1901 13.405L12.6881 16.7256C12.2873 17.1057 11.6544 17.0888 11.2744 16.6881C10.8943 16.2873 10.9112 15.6544 11.3119 15.2744L13.7104 13.0001L4.00012 13.0005C3.44784 13.0006 3.0001 12.5529 3.00008 12.0006C3.00005 11.4483 3.44775 11.0006 4.00003 11.0005L13.7106 11.0001Z" fill="#141B34"/>
</svg>
