<svg width="24" height="24" viewBox="0 0 24 24" fill="none" xmlns="http://www.w3.org/2000/svg">
<path fill-rule="evenodd" clip-rule="evenodd" d="M7.29289 7.29289C7.68342 6.90237 8.31658 6.90237 8.70711 7.29289L16.7071 15.2929C17.0976 15.6834 17.0976 16.3166 16.7071 16.7071C16.3166 17.0976 15.6834 17.0976 15.2929 16.7071L7.29289 8.70711C6.90237 8.31658 6.90237 7.68342 7.29289 7.29289Z" fill="#141B34"/>
<path opacity="0.4" fill-rule="evenodd" clip-rule="evenodd" d="M21.2071 2.79289C21.5976 3.18342 21.5976 3.81658 21.2071 4.20711L15.7071 9.70711C15.3166 10.0976 14.6834 10.0976 14.2929 9.70711C13.9024 9.31658 13.9024 8.68342 14.2929 8.29289L19.7929 2.79289C20.1834 2.40237 20.8166 2.40237 21.2071 2.79289Z" fill="#141B34"/>
<path opacity="0.4" fill-rule="evenodd" clip-rule="evenodd" d="M9.70711 14.2929C10.0976 14.6834 10.0976 15.3166 9.70711 15.7071L4.20711 21.2071C3.81658 21.5976 3.18342 21.5976 2.79289 21.2071C2.40237 20.8166 2.40237 20.1834 2.79289 19.7929L8.29289 14.2929C8.68342 13.9024 9.31658 13.9024 9.70711 14.2929Z" fill="#141B34"/>
<path d="M20.6219 2.01039C20.8886 2.03432 21.2679 2.11658 21.5828 2.43706C21.8974 2.75716 21.9733 3.13736 21.993 3.40391C22.0096 3.62777 21.9925 3.88914 21.9778 4.11453L21.9778 4.11455L21.7865 7.06455C21.761 7.45761 21.5071 7.79911 21.1381 7.93678C20.769 8.07445 20.3536 7.98265 20.0769 7.7023L16.2883 3.86378C16.0114 3.5832 15.9251 3.16611 16.0681 2.79872C16.211 2.43132 16.5565 2.1822 16.9502 2.16257L19.9119 2.01487C20.1368 2.00352 20.3983 1.99033 20.6219 2.01039Z" fill="#141B34"/>
<path d="M2.80641 16.0673C3.17429 15.9251 3.59139 16.0124 3.87135 16.2902L7.70422 20.0937C7.98404 20.3714 8.07462 20.7875 7.93552 21.1564C7.79642 21.5252 7.4536 21.7779 7.06011 21.8017L4.10699 21.98C3.88197 21.9937 3.62096 22.0097 3.39748 21.9921C3.13134 21.9713 2.75223 21.8939 2.4337 21.579C2.11478 21.2637 2.03335 20.8851 2.00992 20.6185C1.99029 20.3952 2.0039 20.1342 2.01561 19.9098L2.1683 16.9485C2.1886 16.5547 2.43853 16.2095 2.80641 16.0673Z" fill="#141B34"/>
</svg>
