<svg width="24" height="24" viewBox="0 0 24 24" fill="none" xmlns="http://www.w3.org/2000/svg">
<path opacity="0.4" d="M1.25 12C1.25 6.06294 6.06294 1.25 12 1.25C17.9371 1.25 22.75 6.06294 22.75 12C22.75 17.9371 17.9371 22.75 12 22.75C6.06294 22.75 1.25 17.9371 1.25 12Z" fill="#141B34"/>
<path d="M15.0652 6.8743C14.7955 6.51021 14.3226 6.36018 13.8924 6.50219C13.4621 6.64419 13.1714 7.04619 13.1714 7.49929V8.24929H8.99922C7.86704 8.24929 6.94922 9.1671 6.94922 10.2993V10.949C6.94922 11.5289 7.41932 11.999 7.99922 11.999C8.57912 11.999 9.04922 11.5289 9.04922 10.949V10.3493H15.5548C15.9514 10.3493 16.3141 10.1258 16.4925 9.77166C16.6709 9.41747 16.6346 8.99298 16.3985 8.6743L15.0652 6.8743Z" fill="#141B34"/>
<path d="M15.9992 11.499C15.4193 11.499 14.9492 11.9691 14.9492 12.549V13.6493H8.44366C8.04708 13.6493 7.68433 13.8727 7.50592 14.2269C7.3275 14.5811 7.36387 15.0056 7.59993 15.3243L8.93326 17.1243C9.20296 17.4884 9.67579 17.6384 10.1061 17.4964C10.5363 17.3544 10.827 16.9524 10.827 16.4993V15.7493H14.9992C16.1314 15.7493 17.0492 14.8315 17.0492 13.6993V12.549C17.0492 11.9691 16.5791 11.499 15.9992 11.499Z" fill="#141B34"/>
</svg>
