<svg width="24" height="24" viewBox="0 0 24 24" fill="none" xmlns="http://www.w3.org/2000/svg">
<path opacity="0.4" d="M1.25 12C1.25 6.06294 6.06294 1.25 12 1.25C17.9371 1.25 22.75 6.06294 22.75 12C22.75 17.9371 17.9371 22.75 12 22.75C6.06294 22.75 1.25 17.9371 1.25 12Z" fill="#141B34"/>
<path fill-rule="evenodd" clip-rule="evenodd" d="M7.21254 9.88374C7.55292 9.44881 8.18143 9.37216 8.61635 9.71254L12 12.3606L15.3837 9.71254C15.8187 9.37216 16.4472 9.44881 16.7875 9.88374C17.1279 10.3187 17.0513 10.9472 16.6164 11.2875L12.9164 14.1832C12.3765 14.6057 11.6235 14.6057 11.0837 14.1832L7.38374 11.2875C6.94881 10.9472 6.87216 10.3187 7.21254 9.88374Z" fill="#141B34"/>
</svg>
