<svg width="24" height="24" viewBox="0 0 24 24" fill="none" xmlns="http://www.w3.org/2000/svg">
<path opacity="0.4" d="M1.25 12C1.25 6.06294 6.06294 1.25 12 1.25C17.9371 1.25 22.75 6.06294 22.75 12C22.75 17.9371 17.9371 22.75 12 22.75C6.06294 22.75 1.25 17.9371 1.25 12Z" fill="#141B34"/>
<path d="M15.3489 8.06287C15.7403 8.2086 16 8.58232 16 9.00005V15C16 15.4178 15.7403 15.7915 15.3489 15.9372C14.9574 16.083 14.5165 15.97 14.2434 15.6539L11.929 12.976C11.4436 12.4144 11.4436 11.5857 11.929 11.0241L14.2434 8.34617C14.5165 8.03011 14.9574 7.91714 15.3489 8.06287Z" fill="#141B34"/>
<path d="M12.0889 8.24345C12.5067 8.60458 12.5527 9.23607 12.1916 9.65393L10.164 12L12.1916 14.3462C12.5527 14.764 12.5067 15.3955 12.0889 15.7566C11.671 16.1178 11.0395 16.0718 10.6784 15.6539L8.36404 12.976C7.87865 12.4144 7.87865 11.5857 8.36404 11.0241L10.6784 8.34617C11.0395 7.92831 11.671 7.88232 12.0889 8.24345Z" fill="#141B34"/>
</svg>
