<svg width="24" height="24" viewBox="0 0 24 24" fill="none" xmlns="http://www.w3.org/2000/svg">
<path opacity="0.4" d="M9 12C9 13.6569 10.3431 15 12 15C13.6569 15 15 13.6569 15 12C15 10.3431 13.6569 9 12 9C10.3431 9 9 10.3431 9 12Z" fill="#141B34"/>
<path d="M0.828036 11.1295C0.677724 11.3185 0.5 11.6089 0.5 12C0.5 12.3911 0.677724 12.6815 0.828036 12.8705C0.952556 13.0271 1.11994 13.1875 1.26053 13.3222L4.80294 16.7206C5.08726 16.9934 5.51484 17.075 5.88632 16.9274C6.25779 16.7798 6.5 16.432 6.5 16.0463V7.95374C6.5 7.568 6.25779 7.22024 5.88632 7.07262C5.51484 6.92501 5.08726 7.0066 4.80294 7.27936L1.26053 10.6778C1.11994 10.8125 0.952556 10.9729 0.828036 11.1295Z" fill="#141B34"/>
<path d="M18.1137 7.07262C17.7422 7.22024 17.5 7.568 17.5 7.95374L17.5 16.0463C17.5 16.432 17.7422 16.7798 18.1137 16.9274C18.4852 17.075 18.9127 16.9934 19.1971 16.7206L22.7395 13.3222C22.8801 13.1875 23.0474 13.0271 23.172 12.8705C23.3223 12.6815 23.5 12.3911 23.5 12C23.5 11.6089 23.3223 11.3185 23.172 11.1295C23.0474 10.9729 22.8801 10.8125 22.7395 10.6778L19.1971 7.27936C18.9127 7.0066 18.4852 6.92501 18.1137 7.07262Z" fill="#141B34"/>
</svg>
