<svg width="24" height="24" viewBox="0 0 24 24" fill="none" xmlns="http://www.w3.org/2000/svg">
<path opacity="0.4" d="M12.0572 1.75C14.2479 1.74999 15.9686 1.74998 17.312 1.93059C18.6886 2.11568 19.7809 2.50272 20.6391 3.36091C21.4973 4.21911 21.8843 5.31137 22.0694 6.68802C22.25 8.03144 22.25 9.7521 22.25 11.9428V11.9428V12.0572V12.0572C22.25 14.2479 22.25 15.9686 22.0694 17.312C21.8843 18.6886 21.4973 19.7809 20.6391 20.6391C19.7809 21.4973 18.6886 21.8843 17.312 22.0694C15.9686 22.25 14.2479 22.25 12.0572 22.25H12.0572H11.9428H11.9428C9.7521 22.25 8.03144 22.25 6.68802 22.0694C5.31137 21.8843 4.21911 21.4973 3.36091 20.6391C2.50272 19.7809 2.11568 18.6886 1.93059 17.312C1.74998 15.9686 1.74999 14.2479 1.75 12.0572V11.9428C1.74999 9.75212 1.74998 8.03144 1.93059 6.68802C2.11568 5.31137 2.50272 4.21911 3.36091 3.36091C4.21911 2.50272 5.31137 2.11568 6.68802 1.93059C8.03144 1.74998 9.75212 1.74999 11.9428 1.75H12.0572Z" fill="#141B34"/>
<path fill-rule="evenodd" clip-rule="evenodd" d="M14.6382 6.2302C14.2131 5.8777 13.5826 5.93661 13.2301 6.36178L9.60266 10.7371C9.59567 10.7455 9.58855 10.7541 9.58131 10.7628C9.47658 10.889 9.34752 11.0444 9.25134 11.1944C9.13411 11.3772 8.99997 11.6479 8.99997 12C8.99997 12.3522 9.13411 12.6229 9.25134 12.8057C9.34752 12.9556 9.47658 13.1111 9.58131 13.2373C9.58855 13.246 9.59567 13.2545 9.60266 13.263L13.2301 17.6383C13.5826 18.0634 14.2131 18.1224 14.6382 17.7699C15.0634 17.4174 15.1223 16.7869 14.7698 16.3618L11.1536 12L14.7698 7.63828C15.1223 7.21311 15.0634 6.58269 14.6382 6.2302Z" fill="#141B34"/>
</svg>
