<svg width="24" height="24" viewBox="0 0 24 24" fill="none" xmlns="http://www.w3.org/2000/svg">
<path opacity="0.4" d="M22.25 12.0572C22.25 14.2479 22.25 15.9686 22.0694 17.312C21.8843 18.6886 21.4973 19.7809 20.6391 20.6391C19.7809 21.4973 18.6886 21.8843 17.312 22.0694C15.9686 22.25 14.2479 22.25 12.0572 22.25H11.9428C9.7521 22.25 8.03144 22.25 6.68802 22.0694C5.31137 21.8843 4.21911 21.4973 3.36091 20.6391C2.50271 19.7809 2.11568 18.6886 1.93059 17.312C1.74998 15.9686 1.74999 14.2479 1.75 12.0572L1.75 11.9428C1.74999 9.7521 1.74998 8.03144 1.93059 6.68802C2.11568 5.31137 2.50271 4.21911 3.36091 3.36091C4.21911 2.50271 5.31137 2.11568 6.68802 1.93059C8.03144 1.74998 9.75212 1.74999 11.9428 1.75L12.0572 1.75C14.2479 1.74999 15.9686 1.74998 17.312 1.93059C18.6886 2.11568 19.7809 2.50272 20.6391 3.36091C21.4973 4.21911 21.8843 5.31137 22.0694 6.68802C22.25 8.03144 22.25 9.75212 22.25 11.9428V12.0572Z" fill="#141B34"/>
<path fill-rule="evenodd" clip-rule="evenodd" d="M16.8876 10.8029C16.7156 11.1342 16.3733 11.3422 16 11.3422H15V16.5001C15 17.0524 14.5523 17.5001 14 17.5001C13.4477 17.5001 13 17.0524 13 16.5001L13 7.50007C13 7.06406 13.2825 6.67831 13.6982 6.54671C14.1139 6.41511 14.5669 6.568 14.8178 6.92458L16.8178 9.76668C17.0327 10.072 17.0596 10.4715 16.8876 10.8029ZM10 6.97376C10.5523 6.97376 11 7.42147 11 7.97376L11 16.5001C11 16.9199 10.7378 17.295 10.3435 17.4392C9.94922 17.5834 9.50685 17.466 9.23598 17.1453L7.23598 14.7768C6.98488 14.4795 6.92912 14.0634 7.09304 13.7105C7.25697 13.3575 7.61082 13.1317 8.00001 13.1317L9.00001 13.1317L9.00001 7.97376C9.00001 7.42147 9.44773 6.97376 10 6.97376Z" fill="#141B34"/>
</svg>
