<svg width="24" height="24" viewBox="0 0 24 24" fill="none" xmlns="http://www.w3.org/2000/svg">
<path opacity="0.4" d="M11.9428 22.25C9.75212 22.25 8.03144 22.25 6.68802 22.0694C5.31136 21.8843 4.21911 21.4973 3.36091 20.6391C2.50271 19.7809 2.11568 18.6886 1.93059 17.312C1.74998 15.9686 1.74999 14.2479 1.75 12.0572L1.75 11.9428C1.74999 9.7521 1.74998 8.03143 1.93059 6.68802C2.11568 5.31136 2.50272 4.21911 3.36091 3.36091C4.21911 2.50271 5.31137 2.11568 6.68802 1.93059C8.03144 1.74998 9.75214 1.74999 11.9428 1.75L12.0572 1.75C14.2479 1.74999 15.9686 1.74998 17.312 1.93059C18.6886 2.11568 19.7809 2.50272 20.6391 3.36091C21.4973 4.21911 21.8843 5.31137 22.0694 6.68802C22.25 8.03144 22.25 9.75212 22.25 11.9428V12.0572C22.25 14.2479 22.25 15.9686 22.0694 17.312C21.8843 18.6886 21.4973 19.7809 20.6391 20.6391C19.7809 21.4973 18.6886 21.8843 17.312 22.0694C15.9686 22.25 14.2479 22.25 12.0572 22.25H11.9428Z" fill="#141B34"/>
<path fill-rule="evenodd" clip-rule="evenodd" d="M17 16.75C16.5858 16.75 16.25 16.4142 16.25 16V8C16.25 7.58579 16.5858 7.25 17 7.25C17.4142 7.25 17.75 7.58579 17.75 8V16C17.75 16.4142 17.4142 16.75 17 16.75ZM11.213 15.1929C10.9327 15.0768 10.75 14.8033 10.75 14.5V12.75L7 12.75C6.58579 12.75 6.25 12.4142 6.25 12C6.25 11.5858 6.58579 11.25 7 11.25L10.75 11.25V9.5C10.75 9.19665 10.9327 8.92318 11.213 8.80709C11.4932 8.691 11.8158 8.75517 12.0303 8.96967L14.5303 11.4697C14.8232 11.7626 14.8232 12.2374 14.5303 12.5303L12.0303 15.0303C11.8158 15.2448 11.4932 15.309 11.213 15.1929Z" fill="#141B34"/>
</svg>
