<svg width="24" height="24" viewBox="0 0 24 24" fill="none" xmlns="http://www.w3.org/2000/svg">
<path opacity="0.4" d="M12.0572 1.75C14.2479 1.74999 15.9686 1.74998 17.312 1.93059C18.6886 2.11568 19.7809 2.50272 20.6391 3.36091C21.4973 4.21911 21.8843 5.31137 22.0694 6.68802C22.25 8.03144 22.25 9.7521 22.25 11.9428V11.9428V12.0572V12.0572C22.25 14.2479 22.25 15.9686 22.0694 17.312C21.8843 18.6886 21.4973 19.7809 20.6391 20.6391C19.7809 21.4973 18.6886 21.8843 17.312 22.0694C15.9686 22.25 14.2479 22.25 12.0572 22.25H12.0572H11.9428H11.9428C9.7521 22.25 8.03144 22.25 6.68802 22.0694C5.31137 21.8843 4.21911 21.4973 3.36091 20.6391C2.50272 19.7809 2.11568 18.6886 1.93059 17.312C1.74998 15.9686 1.74999 14.2479 1.75 12.0572V11.9428C1.74999 9.75212 1.74998 8.03144 1.93059 6.68802C2.11568 5.31137 2.50272 4.21911 3.36091 3.36091C4.21911 2.50272 5.31137 2.11568 6.68802 1.93059C8.03144 1.74998 9.75212 1.74999 11.9428 1.75H12.0572Z" fill="#141B34"/>
<path fill-rule="evenodd" clip-rule="evenodd" d="M13.9239 15.3827C13.7691 15.7564 13.4045 16 13 16L9.00192 16C8.44982 16 8.00218 15.5526 8.00192 15.0005L8 11.0005C7.99981 10.5959 8.24338 10.2311 8.6171 10.0762C8.99081 9.92131 9.42105 10.0068 9.70711 10.2929L11.0005 11.5863L14.2928 8.29301C14.6832 7.90242 15.3164 7.90232 15.707 8.29278C16.0976 8.68324 16.0977 9.31641 15.7072 9.70699L12.4147 13.0005L13.7071 14.2929C13.9931 14.5789 14.0787 15.009 13.9239 15.3827Z" fill="#141B34"/>
</svg>
