<svg width="24" height="24" viewBox="0 0 24 24" fill="none" xmlns="http://www.w3.org/2000/svg">
<path opacity="0.4" d="M11.9428 1.75C9.75212 1.74999 8.03144 1.74998 6.68802 1.93059C5.31137 2.11568 4.21911 2.50272 3.36091 3.36091C2.50271 4.21911 2.11568 5.31137 1.93059 6.68802C1.74998 8.03144 1.74999 9.75214 1.75 11.9428V12.0572C1.74999 14.2479 1.74998 15.9686 1.93059 17.312C2.11568 18.6886 2.50271 19.7809 3.36091 20.6391C4.21911 21.4973 5.31137 21.8843 6.68802 22.0694C8.03144 22.25 9.75214 22.25 11.9428 22.25H12.0572C14.2479 22.25 15.9686 22.25 17.312 22.0694C18.6886 21.8843 19.7809 21.4973 20.6391 20.6391C21.4973 19.7809 21.8843 18.6886 22.0694 17.312C22.25 15.9686 22.25 14.2479 22.25 12.0572V11.9428C22.25 9.75212 22.25 8.03144 22.0694 6.68802C21.8843 5.31137 21.4973 4.21911 20.6391 3.36091C19.7809 2.50272 18.6886 2.11568 17.312 1.93059C15.9686 1.74998 14.2479 1.74999 12.0572 1.75H11.9428Z" fill="#141B34"/>
<path fill-rule="evenodd" clip-rule="evenodd" d="M11.4239 6.61732C11.2691 6.24364 10.9045 6 10.5 6H7C6.44771 6 6 6.44772 6 7V10.5C6 10.9045 6.24364 11.2691 6.61732 11.4239C6.99099 11.5787 7.42111 11.4931 7.70711 11.2071L8.75 10.1642L10.2929 11.7071C10.6834 12.0976 11.3166 12.0976 11.7071 11.7071C12.0976 11.3166 12.0976 10.6834 11.7071 10.2929L10.1642 8.75L11.2071 7.70711C11.4931 7.42111 11.5787 6.99099 11.4239 6.61732ZM12.2929 12.2929C11.9024 12.6834 11.9024 13.3166 12.2929 13.7071L13.8358 15.25L12.7929 16.2929C12.5069 16.5789 12.4213 17.009 12.5761 17.3827C12.7309 17.7564 13.0955 18 13.5 18H17C17.5523 18 18 17.5523 18 17V13.5C18 13.0955 17.7564 12.7309 17.3827 12.5761C17.009 12.4213 16.5789 12.5069 16.2929 12.7929L15.25 13.8358L13.7071 12.2929C13.3166 11.9024 12.6834 11.9024 12.2929 12.2929Z" fill="#141B34"/>
</svg>
