<svg width="24" height="24" viewBox="0 0 24 24" fill="none" xmlns="http://www.w3.org/2000/svg">
<path opacity="0.4" d="M12.0572 1.75C14.2479 1.74999 15.9686 1.74998 17.312 1.93059C18.6886 2.11568 19.7809 2.50272 20.6391 3.36091C21.4973 4.21911 21.8843 5.31137 22.0694 6.68802C22.25 8.03144 22.25 9.7521 22.25 11.9428V11.9428V12.0572V12.0572C22.25 14.2479 22.25 15.9686 22.0694 17.312C21.8843 18.6886 21.4973 19.7809 20.6391 20.6391C19.7809 21.4973 18.6886 21.8843 17.312 22.0694C15.9686 22.25 14.2479 22.25 12.0572 22.25H12.0572H11.9428H11.9428C9.7521 22.25 8.03144 22.25 6.68802 22.0694C5.31137 21.8843 4.21911 21.4973 3.36091 20.6391C2.50272 19.7809 2.11568 18.6886 1.93059 17.312C1.74998 15.9686 1.74999 14.2479 1.75 12.0572V11.9428C1.74999 9.75212 1.74998 8.03144 1.93059 6.68802C2.11568 5.31137 2.50272 4.21911 3.36091 3.36091C4.21911 2.50272 5.31137 2.11568 6.68802 1.93059C8.03144 1.74998 9.75212 1.74999 11.9428 1.75H12.0572Z" fill="#141B34"/>
<path fill-rule="evenodd" clip-rule="evenodd" d="M6.4802 9.36178C6.83269 8.93661 7.46311 8.8777 7.88828 9.2302L12.25 12.8464L16.6118 9.2302C17.0369 8.8777 17.6674 8.93661 18.0199 9.36178C18.3724 9.78694 18.3134 10.4174 17.8883 10.7699L13.513 14.3973C13.5046 14.4043 13.496 14.4114 13.4873 14.4187C13.3611 14.5234 13.2056 14.6525 13.0557 14.7487C12.8729 14.8659 12.6022 15 12.25 15C11.8979 15 11.6272 14.8659 11.4444 14.7487C11.2944 14.6525 11.139 14.5234 11.0128 14.4187C11.0041 14.4114 10.9955 14.4043 10.9871 14.3973L6.61178 10.7699C6.18661 10.4174 6.1277 9.78694 6.4802 9.36178Z" fill="#141B34"/>
</svg>
