<svg width="24" height="24" viewBox="0 0 24 24" fill="none" xmlns="http://www.w3.org/2000/svg">
<path opacity="0.4" d="M12.0572 1.75C14.2479 1.74999 15.9686 1.74998 17.312 1.93059C18.6886 2.11568 19.7809 2.50272 20.6391 3.36091C21.4973 4.21911 21.8843 5.31137 22.0694 6.68802C22.25 8.03144 22.25 9.7521 22.25 11.9428V11.9428V12.0572V12.0572C22.25 14.2479 22.25 15.9686 22.0694 17.312C21.8843 18.6886 21.4973 19.7809 20.6391 20.6391C19.7809 21.4973 18.6886 21.8843 17.312 22.0694C15.9686 22.25 14.2479 22.25 12.0572 22.25H12.0572H11.9428H11.9428C9.7521 22.25 8.03144 22.25 6.68802 22.0694C5.31137 21.8843 4.21911 21.4973 3.36091 20.6391C2.50272 19.7809 2.11568 18.6886 1.93059 17.312C1.74998 15.9686 1.74999 14.2479 1.75 12.0572V11.9428C1.74999 9.75212 1.74998 8.03144 1.93059 6.68802C2.11568 5.31137 2.50272 4.21911 3.36091 3.36091C4.21911 2.50272 5.31137 2.11568 6.68802 1.93059C8.03144 1.74998 9.75212 1.74999 11.9428 1.75H12.0572Z" fill="#141B34"/>
<path d="M16.3428 7.06066C16.7374 7.20468 16.9999 7.57997 16.9999 8.00005V16C16.9999 16.4201 16.7374 16.7954 16.3428 16.9394C15.9482 17.0835 15.5056 16.9655 15.235 16.6442L12.1378 12.9663C11.6676 12.4079 11.6676 11.5922 12.1378 11.0338L15.235 7.35591C15.5056 7.03459 15.9482 6.91664 16.3428 7.06066Z" fill="#141B34"/>
<path d="M11.8589 7.23514C12.2813 7.59089 12.3354 8.22174 11.9797 8.64419L9.15367 12.0001L11.9797 15.3559C12.3354 15.7784 12.2813 16.4092 11.8589 16.765C11.4364 17.1207 10.8056 17.0666 10.4498 16.6442L7.35263 12.9663C6.88246 12.4079 6.88245 11.5922 7.35263 11.0338L10.4498 7.35591C10.8056 6.93347 11.4364 6.87939 11.8589 7.23514Z" fill="#141B34"/>
</svg>
