<svg width="24" height="24" viewBox="0 0 24 24" fill="none" xmlns="http://www.w3.org/2000/svg">
<g clip-path="url(#clip0_2544_3556)">
<path fill-rule="evenodd" clip-rule="evenodd" d="M16.9793 5.90218C17.0334 5.35255 17.5228 4.95081 18.0724 5.00488C19.4685 5.1422 20.6285 5.47022 21.5281 6.36988C22.3344 7.17617 22.6815 8.19155 22.8438 9.39865C23.0001 10.5616 23.0001 12.0404 23.0001 13.8758V13.9674C23.0001 15.1447 23.0001 16.1672 22.9626 17.0428C22.939 17.5946 22.4726 18.0228 21.9208 17.9992C21.369 17.9756 20.9409 17.5091 20.9645 16.9573C20.9999 16.1291 21.0001 15.1481 21.0001 13.949C21.0001 12.0231 20.9979 10.6792 20.8616 9.66514C20.7291 8.67982 20.4867 8.15685 20.1139 7.78409C19.6989 7.36905 19.0974 7.11535 17.8766 6.99527C17.327 6.94121 16.9253 6.45182 16.9793 5.90218ZM5.90218 16.9793C6.45182 16.9253 6.94121 17.327 6.99527 17.8766C7.11535 19.0974 7.36905 19.6989 7.78409 20.1139C8.15685 20.4867 8.67982 20.7291 9.66514 20.8616C10.6792 20.9979 12.0231 21.0001 13.949 21.0001C15.8749 21.0001 17.2188 20.9979 18.2329 20.8616C19.2182 20.7291 19.7412 20.4867 20.1139 20.1139C20.5044 19.7234 21.1376 19.7234 21.5281 20.1139C21.9187 20.5044 21.9187 21.1376 21.5281 21.5281C20.7218 22.3344 19.7065 22.6815 18.4994 22.8438C17.3364 23.0001 15.8577 23.0001 14.0222 23.0001H13.8758C12.0404 23.0001 10.5616 23.0001 9.39865 22.8438C8.19155 22.6815 7.17617 22.3344 6.36988 21.5281C5.47022 20.6285 5.1422 19.4685 5.00488 18.0724C4.95081 17.5228 5.35255 17.0334 5.90218 16.9793Z" fill="#141B34"/>
<path fill-rule="evenodd" clip-rule="evenodd" d="M13 6C13 5.44772 13.4477 5 14 5H14.009C14.5613 5 15.009 5.44772 15.009 6C15.009 6.55228 14.5613 7 14.009 7H14C13.4477 7 13 6.55228 13 6Z" fill="#141B34"/>
<path fill-rule="evenodd" clip-rule="evenodd" d="M14.2558 3.13753C13.2487 3.00213 11.9139 3 10 3C8.82347 3 7.8582 3.00019 7.0415 3.0341C6.48969 3.05702 6.02378 2.62827 6.00086 2.07646C5.97795 1.52465 6.4067 1.05874 6.95851 1.03583C7.82118 1 8.82673 1 9.98229 1L10.0732 1C11.8966 0.999973 13.3664 0.999951 14.5223 1.15537C15.7225 1.31672 16.733 1.66191 17.5355 2.46447C18.3381 3.26702 18.6833 4.27752 18.8446 5.47767C19.0001 6.63363 19 8.1034 19 9.92686V10.0177C19 11.1733 19 12.1788 18.9642 13.0415C18.9413 13.5933 18.4754 14.0221 17.9235 13.9991C17.3717 13.9762 16.943 13.5103 16.9659 12.9585C16.9998 12.1418 17 11.1765 17 10C17 8.08611 16.9979 6.7513 16.8625 5.74416C16.7309 4.76579 16.4903 4.2477 16.1213 3.87868C15.7523 3.50966 15.2342 3.26907 14.2558 3.13753ZM3.87868 2.46447C4.26921 2.85499 4.26921 3.48816 3.87868 3.87868C3.50966 4.2477 3.26907 4.76579 3.13753 5.74416C3.00213 6.7513 3 8.08611 3 10C3 11.9139 3.00213 13.2487 3.13753 14.2558C3.26907 15.2342 3.50966 15.7523 3.87868 16.1213C4.2477 16.4903 4.76579 16.7309 5.74416 16.8625C6.7513 16.9979 8.08611 17 10 17C11.9139 17 13.2487 16.9979 14.2558 16.8625C15.2342 16.7309 15.7523 16.4903 16.1213 16.1213C16.5118 15.7308 17.145 15.7308 17.5355 16.1213C17.9261 16.5118 17.9261 17.145 17.5355 17.5355C16.733 18.3381 15.7225 18.6833 14.5223 18.8446C13.3664 19.0001 11.8966 19 10.0731 19H9.92686C8.1034 19 6.63363 19.0001 5.47767 18.8446C4.27752 18.6833 3.26702 18.3381 2.46447 17.5355C1.66191 16.733 1.31672 15.7225 1.15537 14.5223C0.999951 13.3664 0.999973 11.8966 1 10.0732V9.92684C0.999973 8.10338 0.999951 6.63362 1.15537 5.47767C1.31672 4.27752 1.66191 3.26702 2.46447 2.46447C2.85499 2.07394 3.48816 2.07394 3.87868 2.46447Z" fill="#141B34"/>
<path d="M12.6685 11.9396C10.211 10.6322 7.16669 9.95749 4.07495 10.0021C3.34634 10.0011 2.61872 10.0375 1.89855 10.1109C1.38644 10.1631 0.997631 10.5956 1.00001 11.1104C1.00683 12.586 1.03893 13.8377 1.21688 14.8621C1.39812 15.9055 1.74694 16.818 2.46447 17.5355C3.26702 18.3381 4.27752 18.6833 5.47766 18.8446C6.63362 19 8.10337 19 9.92681 19H10.0732C11.8966 19 13.3664 19 14.5223 18.8446C15.7225 18.6833 16.733 18.3381 17.5355 17.5355L18.2426 16.8284L14.7071 13.2929C14.6815 13.2673 14.6546 13.2431 14.6263 13.2205C14.0398 12.7491 13.384 12.3202 12.6685 11.9396Z" fill="#141B34"/>
<path fill-rule="evenodd" clip-rule="evenodd" d="M1.29289 1.29289C1.68342 0.902369 2.31658 0.902369 2.70711 1.29289L22.7071 21.2929C23.0976 21.6834 23.0976 22.3166 22.7071 22.7071C22.3166 23.0976 21.6834 23.0976 21.2929 22.7071L1.29289 2.70711C0.902369 2.31658 0.902369 1.68342 1.29289 1.29289Z" fill="#141B34"/>
</g>
<defs>
<clipPath id="clip0_2544_3556">
<rect width="24" height="24" fill="white"/>
</clipPath>
</defs>
</svg>
