<svg width="24" height="24" viewBox="0 0 24 24" fill="none" xmlns="http://www.w3.org/2000/svg">
<path d="M7 9C7 6.23858 9.23858 4 12 4C14.7614 4 17 6.23858 17 9C17 11.7614 14.7614 14 12 14C9.23858 14 7 11.7614 7 9Z" fill="#141B34"/>
<path fill-rule="evenodd" clip-rule="evenodd" d="M12.0002 1C12.5525 1 13.0002 1.44772 13.0002 2V5C13.0002 5.55228 12.5525 6 12.0002 6C11.4479 6 11.0002 5.55228 11.0002 5V2C11.0002 1.44772 11.4479 1 12.0002 1ZM10.0002 12C10.5525 12 11.0002 12.4477 11.0002 13C11.0002 13.7663 10.818 14.8481 10.5494 16H13.451C13.1825 14.8481 13.0002 13.7663 13.0002 13C13.0002 12.4477 13.4479 12 14.0002 12C14.5525 12 15.0002 12.4477 15.0002 13C15.0002 13.6432 15.1949 14.7402 15.5086 16C16.057 16.0045 16.5002 16.4505 16.5002 17C16.5002 17.3612 16.3087 17.6777 16.0217 17.8534C16.4757 19.3514 16.9914 20.7463 17.3946 21.5528C17.6416 22.0468 17.4414 22.6474 16.9474 22.8944C16.4535 23.1414 15.8528 22.9412 15.6058 22.4472C15.0879 21.4114 14.4745 19.6996 13.9787 18H10.0217C9.52596 19.6996 8.91254 21.4114 8.39465 22.4472C8.14766 22.9412 7.54698 23.1414 7.05301 22.8944C6.55903 22.6474 6.3588 22.0468 6.60579 21.5528C7.00905 20.7463 7.52478 19.3514 7.97876 17.8534C7.69174 17.6777 7.50022 17.3612 7.50022 17C7.50022 16.4505 7.94343 16.0045 8.49187 16C8.80555 14.7402 9.00022 13.6432 9.00022 13C9.00022 12.4477 9.44793 12 10.0002 12Z" fill="#141B34"/>
</svg>
