<svg width="24" height="24" viewBox="0 0 24 24" fill="none" xmlns="http://www.w3.org/2000/svg">
<path fill-rule="evenodd" clip-rule="evenodd" d="M21.4886 9.00004C22.0409 8.99539 22.4923 9.43933 22.497 9.99159C22.502 10.585 22.502 11.2261 22.502 11.9135V11.9198C22.502 12.6074 22.502 13.248 22.497 13.8416C22.4923 14.3938 22.0409 14.8378 21.4886 14.8331C20.9363 14.8285 20.4924 14.377 20.497 13.8248C20.5019 13.2403 20.502 12.6075 20.502 11.9167C20.502 11.226 20.5019 10.5927 20.497 10.0084C20.4924 9.45614 20.9363 9.00468 21.4886 9.00004ZM2.51531 9.00004C3.06758 9.00468 3.51151 9.45614 3.50687 10.0084C3.50196 10.5929 3.50195 11.2257 3.50195 11.9167C3.50195 12.6076 3.50196 13.2404 3.50687 13.8249C3.51151 14.3772 3.06758 14.8287 2.51531 14.8333C1.96305 14.838 1.51159 14.394 1.50694 13.8418C1.50195 13.248 1.50195 12.6073 1.50195 11.9195V11.9139C1.50195 11.2261 1.50195 10.5853 1.50694 9.9916C1.51159 9.43933 1.96305 8.99539 2.51531 9.00004ZM2.57207 16.6832C3.1152 16.5831 3.63667 16.9422 3.7368 17.4854C3.90678 18.4073 4.18392 18.9694 4.60338 19.3925C5.02206 19.8149 5.57654 20.0928 6.48635 20.2635C7.02917 20.3654 7.38664 20.888 7.2848 21.4308C7.18296 21.9736 6.66037 22.3311 6.11756 22.2292C4.94889 22.01 3.97367 21.5982 3.18301 20.8006C2.39313 20.0038 1.98655 19.0228 1.76995 17.848C1.66982 17.3048 2.02894 16.7834 2.57207 16.6832ZM21.4318 16.6832C21.975 16.7834 22.3341 17.3048 22.234 17.848C22.0174 19.0228 21.6108 20.0038 20.8209 20.8006C20.0302 21.5982 19.055 22.01 17.8864 22.2292C17.3435 22.3311 16.8209 21.9736 16.7191 21.4308C16.6173 20.888 16.9747 20.3654 17.5176 20.2635C18.4274 20.0928 18.9818 19.8149 19.4005 19.3925C19.82 18.9694 20.0971 18.4073 20.2671 17.4854C20.3672 16.9422 20.8887 16.5831 21.4318 16.6832ZM9.10199 21.4864C9.10671 20.9342 9.55824 20.4903 10.1105 20.495C10.6898 20.5 11.317 20.5 12.002 20.5C12.6869 20.5 13.3141 20.5 13.8935 20.495C14.4457 20.4903 14.8973 20.9342 14.902 21.4864C14.9067 22.0387 14.4628 22.4902 13.9106 22.495C13.3218 22.5 12.6865 22.5 12.0047 22.5H11.9992C11.3174 22.5 10.6821 22.5 10.0934 22.495C9.54114 22.4902 9.09727 22.0387 9.10199 21.4864Z" fill="#141B34"/>
<path fill-rule="evenodd" clip-rule="evenodd" d="M11.9239 1.5H12.0764C14.3117 1.49998 16.0935 1.49996 17.4904 1.69242C18.9345 1.89138 20.1148 2.31278 21.0451 3.26607C21.8492 4.09007 22.2631 5.1037 22.4841 6.32143C22.5827 6.86484 22.2222 7.38531 21.6787 7.48393C21.1353 7.58255 20.6149 7.22198 20.5162 6.67857C20.3402 5.70842 20.0518 5.11186 19.6137 4.66287C19.1148 4.15169 18.4306 3.84086 17.2174 3.6737C15.9729 3.50223 14.3292 3.5 12.0002 3.5C9.67118 3.5 8.02749 3.50223 6.78293 3.6737C5.5697 3.84086 4.88551 4.15169 4.38668 4.66287C3.94855 5.11186 3.66017 5.70842 3.4841 6.67857C3.38548 7.22198 2.86501 7.58255 2.3216 7.48393C1.77819 7.38531 1.41762 6.86484 1.51625 6.32143C1.73725 5.1037 2.15119 4.09007 2.95527 3.26606C3.88551 2.31278 5.06588 1.89138 6.50995 1.69242C7.90686 1.49996 9.6886 1.49998 11.9239 1.5Z" fill="#141B34"/>
</svg>
