<svg width="24" height="24" viewBox="0 0 24 24" fill="none" xmlns="http://www.w3.org/2000/svg">
<path fill-rule="evenodd" clip-rule="evenodd" d="M16.6644 7.2474C16.2516 7.61432 15.6195 7.57714 15.2526 7.16435L12.7474 4.34602C12.3789 3.93149 12.1709 3.70099 12.0063 3.56089C12.0042 3.55907 12.0021 3.55729 12 3.55556C11.9979 3.55729 11.9958 3.55907 11.9937 3.56089C11.829 3.70099 11.6211 3.93149 11.2526 4.34602L8.7474 7.16435C8.38048 7.57714 7.74841 7.61432 7.33563 7.2474C6.92284 6.88048 6.88566 6.24841 7.25258 5.83563L9.75776 3.0173C9.77078 3.00265 9.78379 2.98801 9.79677 2.9734C10.1114 2.61933 10.4131 2.27979 10.6976 2.03772C11.0155 1.76715 11.439 1.50519 12 1.50519C12.561 1.50519 12.9845 1.76715 13.3024 2.03772C13.5869 2.27979 13.8886 2.61933 14.2032 2.9734C14.2162 2.98801 14.2292 3.00264 14.2422 3.0173L16.7474 5.83563C17.1143 6.24841 17.0771 6.88048 16.6644 7.2474Z" fill="#141B34"/>
<path fill-rule="evenodd" clip-rule="evenodd" d="M19 2C19 1.44772 18.5523 1 18 1L6 1C5.44771 1 5 1.44772 5 2C5 2.55228 5.44771 3 6 3L18 3C18.5523 3 19 2.55228 19 2Z" fill="#141B34"/>
<path d="M15.047 5.24441C13.0164 4.91853 10.9836 4.91853 8.95295 5.24441C7.59279 5.46269 6.49387 5.8335 5.79882 6.67563C5.10605 7.515 5 8.60433 5 9.70813C5 9.75068 5 9.77196 5.00266 9.78811C5.02034 9.8954 5.12051 9.96891 5.22817 9.9536C5.24437 9.95129 5.26467 9.94491 5.30526 9.93215L5.76873 9.78644C9.92064 8.40384 14.085 8.40452 18.2369 9.78849C18.2464 9.79166 18.2559 9.79502 18.2652 9.79856L18.6553 9.94621C18.7211 9.97111 18.754 9.98356 18.7804 9.98616C18.8777 9.99574 18.9676 9.93361 18.9931 9.83923C19 9.81364 19 9.77847 19 9.70813C19 8.60433 18.894 7.515 18.2012 6.67563C17.5061 5.8335 16.4072 5.46269 15.047 5.24441Z" fill="#141B34"/>
<path d="M19 11.9568C19 11.8231 19 11.7563 18.9646 11.705C18.9291 11.6537 18.8666 11.63 18.7416 11.5827L17.7484 11.2068C13.9071 9.9295 10.0783 9.93107 6.23692 11.2115L6.2247 11.2155L5.28003 11.5125C5.14502 11.5549 5.07752 11.5761 5.03876 11.629C5 11.6818 5 11.7525 5 11.8941V16.0253C5 16.1568 5 16.2226 5.03456 16.2735C5.06913 16.3244 5.13029 16.3486 5.25261 16.3971L6.25653 16.795C10.0815 18.0657 13.8941 18.0683 17.719 16.803L18.7723 16.3004C18.883 16.2476 18.9383 16.2212 18.9692 16.1723C19 16.1234 19 16.062 19 15.9394V11.9568Z" fill="#141B34"/>
<path d="M19 18.2919C19 18.1851 19 18.1318 18.9854 18.0956C18.9531 18.0161 18.8737 17.966 18.788 17.9711C18.7491 17.9735 18.7009 17.9964 18.6046 18.0424L18.3227 18.1769C18.2949 18.1902 18.2662 18.2017 18.2369 18.2115C14.083 19.5962 9.91652 19.5962 5.76257 18.2115C5.74939 18.2071 5.73632 18.2024 5.7234 18.1972L5.35452 18.051C5.28268 18.0226 5.24676 18.0083 5.21791 18.0057C5.123 17.9972 5.03526 18.0568 5.00822 18.1482C5 18.176 5 18.2146 5 18.2919C5 19.3957 5.10605 20.485 5.79882 21.3244C6.49387 22.1665 7.59279 22.5373 8.95295 22.7556C10.9836 23.0815 13.0164 23.0815 15.047 22.7556C16.4072 22.5373 17.5061 22.1665 18.2012 21.3244C18.894 20.485 19 19.3957 19 18.2919Z" fill="#141B34"/>
</svg>
