<svg width="24" height="24" viewBox="0 0 24 24" fill="none" xmlns="http://www.w3.org/2000/svg">
<path d="M17.9996 1.78922C18.7725 1.2396 20.0195 0.93794 21.3688 1.74262C22.3751 2.34276 22.8968 3.56694 22.7128 4.90075C22.5274 6.24463 21.645 7.68698 19.9019 8.94134C19.348 9.34105 18.7809 9.75016 17.9996 9.75016C17.2183 9.75016 16.6513 9.34105 16.0974 8.94134C14.3543 7.68698 13.4719 6.24463 13.2865 4.90075C13.1025 3.56694 13.6241 2.34276 14.6305 1.74262C15.9798 0.93794 17.2268 1.2396 17.9996 1.78922Z" fill="#141B34"/>
<path fill-rule="evenodd" clip-rule="evenodd" d="M12 1.25012C6.09523 1.25012 1.25 5.83851 1.25 11.5668C1.25 14.3145 2.36972 16.8067 4.18451 18.6495C4.45227 18.9214 4.53937 19.2001 4.50088 19.4053C4.35863 20.1515 4.03697 20.8446 3.56917 21.42C3.40224 21.6253 3.35586 21.9034 3.44713 22.1518C3.5384 22.4002 3.75381 22.5821 4.01396 22.6305C5.62504 22.9301 7.29542 22.6601 8.72714 21.8987C8.96068 21.7745 9.11322 21.6936 9.22775 21.6392C9.25931 21.622 9.34334 21.5909 9.42696 21.6037C9.53909 21.6191 9.68979 21.6471 9.92698 21.6917C10.6103 21.82 11.3041 21.8844 12 21.8836C17.9048 21.8836 22.75 17.2952 22.75 11.5668C22.75 10.9676 22.697 10.3808 22.5953 9.81049C22.5165 9.36879 22.4771 9.14795 22.3122 9.08982C22.1473 9.03169 21.962 9.19307 21.5914 9.51585C21.3377 9.73684 21.0667 9.95132 20.7789 10.1585C20.2585 10.536 19.2741 11.2502 17.9999 11.2502C16.9346 11.2502 15.7027 10.5219 15.2199 10.1578C13.2391 8.73199 12.0564 6.95883 11.8008 5.10577C11.6505 4.01638 11.8408 2.90853 12.3645 1.98833C12.4978 1.75409 12.5645 1.63697 12.5683 1.56628C12.5751 1.43928 12.5166 1.33864 12.4029 1.28178C12.3395 1.25012 12.2263 1.25012 12 1.25012ZM8 11.0002C7.44772 11.0002 7 11.4479 7 12.0002C7 12.5525 7.44772 13.0002 8 13.0002H8.00897C8.56126 13.0002 9.00897 12.5525 9.00897 12.0002C9.00897 11.4479 8.56126 11.0002 8.00897 11.0002H8ZM11.9955 11.0002C11.4432 11.0002 10.9955 11.4479 10.9955 12.0002C10.9955 12.5525 11.4432 13.0002 11.9955 13.0002H12.0045C12.5568 13.0002 13.0045 12.5525 13.0045 12.0002C13.0045 11.4479 12.5568 11.0002 12.0045 11.0002H11.9955Z" fill="#141B34"/>
</svg>
