<svg width="24" height="24" viewBox="0 0 24 24" fill="none" xmlns="http://www.w3.org/2000/svg">
<path d="M5.31629 1.28632C5.88297 1.40345 6.33427 1.78419 6.61466 2.28722L7.50787 3.88967C7.83688 4.47987 8.11375 4.97655 8.29457 5.40832C8.48637 5.86634 8.60029 6.318 8.54821 6.81736C8.49614 7.31672 8.29148 7.73516 8.00931 8.14375C7.7433 8.52892 7.36991 8.9578 6.92621 9.46742L5.6132 10.9756C5.37791 11.2459 5.26026 11.381 5.24951 11.5499C5.23876 11.7188 5.33518 11.8631 5.52803 12.1516C7.17161 14.6107 9.38675 16.8266 11.8478 18.4716C12.1364 18.6644 12.2806 18.7608 12.4495 18.7501C12.6184 18.7393 12.7536 18.6217 13.0238 18.3864L14.5321 17.0733C15.0417 16.6296 15.4706 16.2562 15.8558 15.9902C16.2644 15.708 16.6828 15.5034 17.1822 15.4513C17.6815 15.3992 18.1332 15.5132 18.5912 15.705C19.0229 15.8858 19.5196 16.1626 20.1097 16.4916L21.7123 17.3849C22.2153 17.6653 22.5961 18.1166 22.7132 18.6832C22.8316 19.2558 22.657 19.8314 22.2714 20.3044C20.8725 22.0208 18.6313 23.1136 16.28 22.6393C14.8348 22.3478 13.4088 21.8621 11.6841 20.873C8.21872 18.8856 5.11165 15.7768 3.12658 12.3155C2.13746 10.5907 1.65174 9.16476 1.3602 7.7195C0.885904 5.36827 1.97874 3.12699 3.6951 1.72809C4.16814 1.34255 4.74368 1.16798 5.31629 1.28632Z" fill="#141B34"/>
<path fill-rule="evenodd" clip-rule="evenodd" d="M17 2C17.5523 2 18 2.44772 18 3V6H21C21.5523 6 22 6.44772 22 7C22 7.55228 21.5523 8 21 8H18V11C18 11.5523 17.5523 12 17 12C16.4477 12 16 11.5523 16 11V8H13C12.4477 8 12 7.55229 12 7C12 6.44772 12.4477 6 13 6L16 6V3C16 2.44772 16.4477 2 17 2Z" fill="#141B34"/>
</svg>
