<svg width="24" height="24" viewBox="0 0 24 24" fill="none" xmlns="http://www.w3.org/2000/svg">
<path fill-rule="evenodd" clip-rule="evenodd" d="M12 1.25C6.06294 1.25 1.25 6.06294 1.25 12C1.25 17.9371 6.06294 22.75 12 22.75C17.9371 22.75 22.75 17.9371 22.75 12C22.75 6.06294 17.9371 1.25 12 1.25ZM10.6324 8.00003C10.6324 7.69254 10.4447 7.4162 10.1588 7.30285C9.87301 7.1895 9.54694 7.26209 9.3362 7.486L7.45385 9.486C7.18205 9.77479 7.18205 10.2253 7.45385 10.5141L9.3362 12.5141C9.54694 12.738 9.87301 12.8106 10.1588 12.6972C10.4447 12.5839 10.6324 12.3075 10.6324 12V10.75L13.2505 10.7501V13.3677H12.0005C11.693 13.3677 11.4166 13.5554 11.3033 13.8412C11.1899 14.127 11.2625 14.4531 11.4864 14.6638L13.4864 16.5462C13.7752 16.818 14.2257 16.818 14.5145 16.5462L16.5145 14.6638C16.7384 14.4531 16.811 14.127 16.6976 13.8412C16.5843 13.5554 16.3079 13.3677 16.0005 13.3677H14.7505V10.0001C14.7505 9.58584 14.4147 9.25006 14.0005 9.25006L10.6324 9.25004V8.00003Z" fill="#141B34"/>
</svg>
