<svg width="24" height="24" viewBox="0 0 24 24" fill="none" xmlns="http://www.w3.org/2000/svg">
<path d="M2 10.875C1.44772 10.875 1 11.3227 1 11.875C1 12.4273 1.44772 12.875 2 12.875H3V21.875C3 22.4273 3.44772 22.875 4 22.875C4.55228 22.875 5 22.4273 5 21.875V12.875H11.25L11.25 12.927C11.25 13.8255 11.2499 14.5747 11.3299 15.1695C11.4143 15.7973 11.6 16.3641 12.0555 16.8195C12.5109 17.275 13.0777 17.4607 13.7055 17.5451C14.3003 17.6251 15.0495 17.625 15.948 17.625L19 17.625V21.875C19 22.4273 19.4477 22.875 20 22.875C20.5523 22.875 21 22.4273 21 21.875V12.875H22C22.5523 12.875 23 12.4273 23 11.875C23 11.3227 22.5523 10.875 22 10.875H2Z" fill="#141B34"/>
<path d="M17.0002 12.625C16.586 12.625 16.2502 12.2892 16.2502 11.875V7.875C16.2502 7.65194 16.2609 7.42148 16.3076 7.2088C16.3562 6.98761 16.4534 6.74064 16.6597 6.53442C16.8659 6.3282 17.1129 6.23096 17.334 6.18237C17.5467 6.13565 17.7772 6.125 18.0002 6.125H19.0002C19.2233 6.125 19.4538 6.13565 19.6664 6.18237C19.8876 6.23096 20.1346 6.3282 20.3408 6.53442C20.547 6.74064 20.6443 6.98761 20.6929 7.2088C20.7396 7.42148 20.7502 7.65194 20.7502 7.875V11.875C20.7502 12.2892 20.4145 12.625 20.0002 12.625H17.0002Z" fill="#141B34"/>
<path d="M5.95087 1.125L6.00025 1.125L10.0496 1.125H10.0497C10.7145 1.12496 11.2874 1.12493 11.7461 1.18661C12.2377 1.25271 12.709 1.40177 13.0912 1.78401C13.4735 2.16626 13.6225 2.63752 13.6886 3.12916C13.7503 3.5879 13.7503 4.16076 13.7502 4.82562V4.82563V5.92437V5.92438C13.7503 6.58925 13.7503 7.1621 13.6886 7.62085C13.6225 8.11248 13.4735 8.58375 13.0912 8.96599C12.709 9.34824 12.2377 9.4973 11.7461 9.5634C11.2873 9.62507 10.7145 9.62504 10.0496 9.62501H5.95088C5.28601 9.62504 4.71315 9.62507 4.2544 9.5634C3.76277 9.4973 3.2915 9.34824 2.90926 8.96599C2.52701 8.58375 2.37795 8.11248 2.31185 7.62085C2.25018 7.16211 2.25021 6.58927 2.25024 5.92443V5.92438L2.25025 5.875V4.875L2.25024 4.82563V4.82558C2.25021 4.16074 2.25018 3.58789 2.31185 3.12916C2.37795 2.63752 2.52701 2.16626 2.90926 1.78401C3.2915 1.40177 3.76277 1.25271 4.2544 1.18661C4.71314 1.12493 5.28598 1.12496 5.95082 1.125H5.95087Z" fill="#141B34"/>
<path fill-rule="evenodd" clip-rule="evenodd" d="M6.66456 7.88876C7.20933 7.97956 7.57735 8.49478 7.48655 9.03956L6.98655 12.0396C6.89575 12.5843 6.38053 12.9523 5.83576 12.8615C5.29099 12.7708 4.92297 12.2555 5.01376 11.7108L5.51376 8.71076C5.60456 8.16599 6.11978 7.79797 6.66456 7.88876ZM9.33576 7.88876C9.88053 7.79797 10.3958 8.16599 10.4865 8.71076L10.9865 11.7108C11.0773 12.2555 10.7093 12.7708 10.1646 12.8615C9.61978 12.9523 9.10456 12.5843 9.01376 12.0396L8.51376 9.03956C8.42297 8.49478 8.79099 7.97956 9.33576 7.88876Z" fill="#141B34"/>
</svg>
