<svg width="24" height="24" viewBox="0 0 24 24" fill="none" xmlns="http://www.w3.org/2000/svg">
<path d="M10.0404 6C10.6164 6 11.0474 6.45186 11.0474 6.96543V17.0845C11.0474 18.7143 12.3907 20 14.0034 20C15.6162 20 16.9595 18.7143 16.9595 17.0845V15C16.9595 13.3628 18.3206 12 20.0441 12H22C22.5523 12 23 11.5523 23 11C23 10.4477 22.5523 10 22 10H20.0441C17.2557 10 14.9595 12.219 14.9595 15V17.0845C14.9595 17.5705 14.5513 18 14.0034 18C13.4556 18 13.0474 17.5705 13.0474 17.0845V6.96543C13.0474 5.30804 11.6813 4 10.0404 4C8.39949 4 7.03338 5.30804 7.03338 6.96543V9C7.03338 10.2853 6.19447 11.4015 4.99998 11.8219V11.3399L5.00003 11.323C5.00029 11.2578 5.00087 11.1121 4.9818 10.9812C4.96085 10.8374 4.86817 10.3589 4.38241 10.1136C3.89919 9.86952 3.47958 10.0846 3.35427 10.1575C3.24241 10.2225 3.13172 10.3127 3.0828 10.3526L3.07017 10.3628C2.78004 10.5972 2.32766 10.9755 1.94034 11.3589C1.74897 11.5484 1.54905 11.7629 1.38966 11.9787C1.31003 12.0865 1.22382 12.2169 1.15383 12.3626C1.08991 12.4957 0.999983 12.7217 0.999985 13.0002C0.999987 13.2787 1.08992 13.5047 1.15383 13.6378C1.22382 13.7835 1.31003 13.9139 1.38966 14.0217C1.54905 14.2375 1.74896 14.452 1.94033 14.6415C2.32764 15.0249 2.78002 15.4032 3.07014 15.6376L3.08278 15.6478C3.13169 15.6877 3.24239 15.7779 3.35424 15.843C3.47955 15.9159 3.89916 16.1309 4.38238 15.8869C4.86815 15.6415 4.96083 15.1631 4.98178 15.0193C5.00085 14.8883 5.00028 14.7427 5.00002 14.6775L4.99997 14.6606V13.8927C7.2916 13.4178 9.03338 11.4221 9.03338 9V6.96543C9.03338 6.45186 9.46439 6 10.0404 6Z" fill="#141B34"/>
</svg>
