<svg width="24" height="24" viewBox="0 0 24 24" fill="none" xmlns="http://www.w3.org/2000/svg">
<path fill-rule="evenodd" clip-rule="evenodd" d="M13.9596 6C13.3837 6 12.9526 6.45186 12.9526 6.96543V17.0845C12.9526 18.7143 11.6093 20 9.99659 20C8.38385 20 7.04055 18.7143 7.04055 17.0845V15C7.04055 13.3628 5.67936 12 3.95595 12H3C2.44772 12 2 11.5523 2 11C2 10.4477 2.44772 10 3 10H3.95595C6.74426 10 9.04055 12.219 9.04055 15V17.0845C9.04055 17.5705 9.44875 18 9.99659 18C10.5444 18 10.9526 17.5705 10.9526 17.0845V6.96543C10.9526 5.30804 12.3187 4 13.9596 4C15.6005 4 16.9666 5.30804 16.9666 6.96543V9C16.9666 10.6372 18.3278 12 20.0512 12H21C21.5523 12 22 12.4477 22 13C22 13.5523 21.5523 14 21 14H20.0512C17.2629 14 14.9666 11.7811 14.9666 9V6.96543C14.9666 6.45186 14.5356 6 13.9596 6Z" fill="#141B34"/>
<path d="M19.5923 10.0869C19.9525 9.92604 20.3737 9.99204 20.6675 10.2554L22.1406 11.5759C22.2986 11.7174 22.4839 11.8834 22.6221 12.0457C22.7842 12.2361 23 12.5546 23 13C23 13.4454 22.7842 13.7639 22.6221 13.9544C22.4839 14.1167 22.2986 14.2827 22.1406 14.4241L22.1406 14.4241L20.6675 15.7446C20.3737 16.008 19.9525 16.074 19.5923 15.9131C19.232 15.7522 19 15.3946 19 15V11C19 10.6055 19.232 10.2478 19.5923 10.0869Z" fill="#141B34"/>
<path d="M4.40786 8.08692C4.76813 8.24779 5.00012 8.60546 5.00012 9.00002V13C5.00012 13.3946 4.76813 13.7522 4.40786 13.9131C4.04759 14.074 3.62641 14.008 3.33262 13.7446L1.85954 12.4241L1.85954 12.4241C1.70155 12.2827 1.51617 12.1167 1.37804 11.9544C1.21592 11.7639 1.00012 11.4454 1.00012 11C1.00012 10.5546 1.21592 10.2361 1.37804 10.0457C1.51617 9.88336 1.70156 9.71738 1.85954 9.57592L1.85954 9.57592L3.33262 8.25541C3.62641 7.99204 4.04759 7.92604 4.40786 8.08692Z" fill="#141B34"/>
</svg>
