<svg width="24" height="24" viewBox="0 0 24 24" fill="none" xmlns="http://www.w3.org/2000/svg">
<path d="M5.31629 1.28608C5.88297 1.4032 6.33427 1.78394 6.61466 2.28697L7.50787 3.88942C7.83688 4.47962 8.11375 4.97631 8.29457 5.40808C8.48637 5.8661 8.60029 6.31775 8.54821 6.81712C8.49614 7.31648 8.29148 7.73491 8.00931 8.1435C7.7433 8.52868 7.36991 8.95755 6.92621 9.46718L5.6132 10.9754C5.37791 11.2456 5.26026 11.3808 5.24951 11.5497C5.23876 11.7186 5.33518 11.8628 5.52803 12.1513C7.17161 14.6104 9.38675 16.8263 11.8478 18.4713C12.1364 18.6642 12.2806 18.7606 12.4495 18.7498C12.6184 18.7391 12.7536 18.6214 13.0238 18.3862L14.5321 17.0731C15.0417 16.6294 15.4706 16.256 15.8558 15.99C16.2644 15.7078 16.6828 15.5031 17.1822 15.4511C17.6815 15.399 18.1332 15.5129 18.5912 15.7047C19.0229 15.8855 19.5196 16.1624 20.1097 16.4913L21.7123 17.3846C22.2153 17.665 22.5961 18.1163 22.7132 18.683C22.8316 19.2556 22.657 19.8312 22.2714 20.3042C20.8725 22.0205 18.6313 23.1134 16.28 22.6391C14.8348 22.3475 13.4088 21.8618 11.6841 20.8727C8.21872 18.8853 5.11165 15.7765 3.12658 12.3152C2.13746 10.5905 1.65174 9.16452 1.3602 7.71925C0.885904 5.36803 1.97874 3.12675 3.6951 1.72785C4.16814 1.3423 4.74368 1.16773 5.31629 1.28608Z" fill="#141B34"/>
<path d="M12.9633 7.75012L12.8562 7.75002H11.9991C11.5848 7.75002 11.2491 7.41423 11.2491 7.00002C11.2491 6.58581 11.5848 6.25002 11.9991 6.25002H12.8562L12.8876 6.25001C13.0615 6.24993 13.2572 6.24984 13.4237 6.2716C13.6198 6.29723 13.8846 6.36451 14.1106 6.58431C14.3397 6.80698 14.4129 7.07286 14.4406 7.27342C14.4636 7.43959 14.4635 7.63385 14.4634 7.80162L14.4633 7.83335L14.4634 7.87643V7.87644C14.4634 8.23189 14.4635 8.57151 14.4249 8.85048C14.3815 9.1645 14.2769 9.51 13.9851 9.79369C13.6238 10.145 13.156 10.2187 12.7491 10.2392V11.1667L12.7491 11.2499L12.8562 11.25H13.7133C14.1276 11.25 14.4633 11.5858 14.4633 12C14.4633 12.4142 14.1276 12.75 13.7133 12.75H12.8562L12.8248 12.75C12.6509 12.7501 12.4553 12.7502 12.2887 12.7284C12.0926 12.7028 11.8279 12.6355 11.6018 12.4157C11.3728 12.1931 11.2996 11.9272 11.2718 11.7266C11.2488 11.5604 11.249 11.3662 11.2491 11.1984L11.2491 11.1667V10L11.249 9.97772C11.2489 9.88287 11.2488 9.74766 11.2651 9.6278C11.2858 9.47549 11.3442 9.24408 11.5434 9.04599C11.7422 8.84822 11.9742 8.79145 12.1182 8.77006C12.2371 8.7524 12.373 8.7495 12.474 8.74735H12.4741L12.4969 8.74685C12.7279 8.74171 12.8523 8.7285 12.9261 8.71136L12.9275 8.71102C12.9311 8.69507 12.9351 8.67351 12.939 8.64501C12.9617 8.48138 12.9633 8.24798 12.9633 7.83335L12.9633 7.75012Z" fill="#141B34"/>
<path d="M15.8562 6.25002C16.2704 6.25002 16.6062 6.58581 16.6062 7.00002V8.75002H17.2491V7.00002C17.2491 6.58581 17.5848 6.25002 17.9991 6.25002C18.4133 6.25002 18.7491 6.58581 18.7491 7.00002V12C18.7491 12.4142 18.4133 12.75 17.9991 12.75C17.5848 12.75 17.2491 12.4142 17.2491 12V10.25H16.5419L16.5142 10.25C16.378 10.2501 16.2119 10.2502 16.0685 10.2315C15.8958 10.2089 15.6473 10.1477 15.4338 9.94013C15.2173 9.72967 15.1504 9.47971 15.1258 9.30185C15.1059 9.15809 15.1061 8.99256 15.1062 8.8611L15.1062 8.83335V7.00002C15.1062 6.58581 15.442 6.25002 15.8562 6.25002Z" fill="#141B34"/>
<path fill-rule="evenodd" clip-rule="evenodd" d="M19.4574 4.54162C17.0686 2.15279 13.1955 2.15279 10.8067 4.54162C10.7211 4.62725 10.6386 4.71473 10.5592 4.8039C10.2837 5.11327 9.80967 5.14077 9.5003 4.86533C9.19094 4.58989 9.16344 4.11581 9.43888 3.80645C9.53753 3.69564 9.63993 3.58709 9.74607 3.48096C12.7207 0.506348 17.5435 0.506348 20.5181 3.48096C23.4927 6.45556 23.4927 11.2784 20.5181 14.253C20.4119 14.3591 20.3034 14.4615 20.1926 14.5601C19.8832 14.8356 19.4091 14.8081 19.1337 14.4987C18.8583 14.1894 18.8858 13.7153 19.1951 13.4399C19.2843 13.3604 19.3718 13.2779 19.4574 13.1923C21.8462 10.8035 21.8462 6.93044 19.4574 4.54162Z" fill="#141B34"/>
</svg>
