<svg width="24" height="24" viewBox="0 0 24 24" fill="none" xmlns="http://www.w3.org/2000/svg">
<path fill-rule="evenodd" clip-rule="evenodd" d="M11.5591 0.749878H11.4448C9.25347 0.749865 7.5323 0.749855 6.18852 0.930473C4.81149 1.11556 3.71893 1.50259 2.8605 2.36079C2.00207 3.21899 1.61492 4.31124 1.42979 5.6879C1.29853 6.6639 1.26264 7.83902 1.25283 9.24883C1.24956 9.71929 1.24792 9.95452 1.39461 10.1022C1.54131 10.2499 1.77775 10.2499 2.25064 10.2499H20.7533C21.2262 10.2499 21.4626 10.2499 21.6093 10.1022C21.756 9.95452 21.7544 9.71929 21.7511 9.24883C21.7413 7.83902 21.7054 6.6639 21.5741 5.6879C21.389 4.31124 21.0018 3.21899 20.1434 2.36079C19.285 1.50259 18.1924 1.11556 16.8154 0.930473C15.4716 0.749855 13.7504 0.749865 11.5591 0.749878ZM5.99913 5.49997C5.99913 4.67154 6.6707 3.99997 7.49913 3.99997C8.32755 3.99997 8.99913 4.67154 8.99913 5.49997C8.99913 6.32839 8.32755 6.99997 7.49913 6.99997C6.6707 6.99997 5.99913 6.32839 5.99913 5.49997ZM11.4991 5.49997C11.4991 5.08575 11.8349 4.74997 12.2491 4.74997L16.2491 4.74997C16.6633 4.74997 16.9991 5.08575 16.9991 5.49997C16.9991 5.91418 16.6633 6.24997 16.2491 6.24997L12.2491 6.24997C11.8349 6.24997 11.4991 5.91418 11.4991 5.49997Z" fill="#141B34"/>
<path fill-rule="evenodd" clip-rule="evenodd" d="M20.7533 11.7499H2.25064C1.77775 11.7499 1.54131 11.7499 1.39461 11.8976C1.24792 12.0452 1.24956 12.2805 1.25283 12.7509C1.26264 14.1607 1.29853 15.3359 1.42979 16.3119C1.61492 17.6885 2.00206 18.7808 2.8605 19.639C3.71893 20.4972 4.81149 20.8842 6.18852 21.0693C7.63638 21.2639 9.11005 21.2578 10.5732 21.2518C10.8879 21.2505 11.2022 21.2492 11.5156 21.25C11.7118 21.2504 11.8099 21.2506 11.868 21.1957C11.926 21.1408 11.9319 21.029 11.9437 20.8054C11.9564 20.5647 12.0037 20.326 12.0848 20.0976C12.1403 19.9412 12.1681 19.863 12.1548 19.806C12.1416 19.749 12.0843 19.6931 11.9697 19.5813C11.6689 19.2879 11.41 18.9381 11.1563 18.5952C11.0366 18.4334 10.918 18.2732 10.7968 18.1212C9.9356 17.0418 10.1128 15.4688 11.1925 14.6079C11.7399 14.1714 12.4142 14.0018 13.0582 14.0812C13.2203 14.1012 13.3013 14.1112 13.3569 14.0966C13.4126 14.0821 13.4714 14.0387 13.5892 13.952C15.0411 12.8827 16.9538 12.4663 18.8152 12.951C19.685 13.1775 20.4673 13.5807 21.1274 14.1145C21.379 14.3178 21.728 14.1938 21.7354 13.8705C21.7436 13.5148 21.7484 13.1419 21.7511 12.7509C21.7544 12.2805 21.756 12.0452 21.6093 11.8976C21.4626 11.7499 21.2262 11.7499 20.7533 11.7499ZM7.49902 14.9999C6.6706 14.9999 5.99902 15.6715 5.99902 16.4999C5.99902 17.3283 6.6706 17.9999 7.49902 17.9999C8.32745 17.9999 8.99902 17.3283 8.99902 16.4999C8.99902 15.6715 8.32745 14.9999 7.49902 14.9999Z" fill="#141B34"/>
<path fill-rule="evenodd" clip-rule="evenodd" d="M13.5938 16.016C14.6959 14.6063 16.5947 13.923 18.4337 14.402C19.4118 14.6567 20.2375 15.2039 20.832 15.9264C21.1829 16.3528 21.1216 16.983 20.6952 17.3339C20.2687 17.6849 19.6385 17.6236 19.2876 17.1971C18.9565 16.7948 18.4926 16.484 17.9296 16.3374C16.5162 15.9693 15.0999 16.7919 14.7366 18.1097C14.6367 18.4722 14.3418 18.7481 13.9734 18.8236C13.6049 18.8991 13.2253 18.7615 12.9908 18.4675L11.9682 17.1853C11.6238 16.7535 11.6947 16.1243 12.1264 15.78C12.5582 15.4356 13.1874 15.5064 13.5318 15.9382L13.5938 16.016ZM20.5262 18.6756C20.1579 18.7512 19.8631 19.027 19.7632 19.3895C19.3999 20.7073 17.9837 21.5299 16.5702 21.1618C16.0067 21.015 15.5424 20.7037 15.2113 20.3008C14.8606 19.8741 14.2305 19.8124 13.8038 20.1631C13.3771 20.5137 13.3154 21.1439 13.6661 21.5705C14.2606 22.2941 15.087 22.8422 16.0662 23.0972C17.9055 23.5762 19.8047 22.8926 20.9068 21.4823L20.9686 21.5597C21.3133 21.9913 21.9425 22.0617 22.374 21.717C22.8056 21.3724 22.876 20.7431 22.5313 20.3116L21.5086 19.0311C21.274 18.7374 20.8944 18.6 20.5262 18.6756Z" fill="#141B34"/>
</svg>
