<svg width="24" height="24" viewBox="0 0 24 24" fill="none" xmlns="http://www.w3.org/2000/svg">
<path d="M4.69073 14.4136C5.11817 10.8891 8.22349 8.14472 12 8.14472C15.7765 8.14472 18.8818 10.8891 19.3093 14.4136C19.3723 14.9332 19.8563 15.3047 20.3903 15.2434C20.9244 15.1821 21.3062 14.7111 21.2432 14.1915C20.7645 10.2447 17.6497 7.08506 13.6543 6.3918C13.9676 5.94673 14.25 5.36328 14.25 4.69135C14.25 3.9534 14.0001 3.33202 13.5622 2.89311C13.1312 2.46115 12.5611 2.25 12 2.25C11.4389 2.25 10.8688 2.46115 10.4378 2.89311C9.99991 3.33202 9.75 3.9534 9.75 4.69135C9.75 5.36328 10.0324 5.94673 10.3457 6.3918C6.35031 7.08506 3.23547 10.2447 2.7568 14.1915C2.69379 14.7111 3.07562 15.1821 3.60967 15.2434C4.14371 15.3047 4.62772 14.9332 4.69073 14.4136Z" fill="#141B34"/>
<path d="M2 16.25C1.44772 16.25 1 16.6977 1 17.25C1 17.8023 1.44772 18.25 2 18.25H2.53955L2.89384 19.6672C3.19989 20.8914 4.29984 21.7502 5.56173 21.7502H18.4386C19.7005 21.7502 20.8005 20.8914 21.1065 19.6672L21.4608 18.25H22C22.5523 18.25 23 17.8023 23 17.25C23 16.6977 22.5523 16.25 22 16.25H2Z" fill="#141B34"/>
</svg>
