<svg width="24" height="24" viewBox="0 0 24 24" fill="none" xmlns="http://www.w3.org/2000/svg">
<path fill-rule="evenodd" clip-rule="evenodd" d="M21.875 1C22.4273 1 22.875 1.44772 22.875 2V22C22.875 22.5523 22.4273 23 21.875 23C21.3227 23 20.875 22.5523 20.875 22V2C20.875 1.44772 21.3227 1 21.875 1Z" fill="#141B34"/>
<path fill-rule="evenodd" clip-rule="evenodd" d="M9.875 1C10.4273 1 10.875 1.44772 10.875 2V22C10.875 22.5523 10.4273 23 9.875 23C9.32272 23 8.875 22.5523 8.875 22V2C8.875 1.44772 9.32272 1 9.875 1Z" fill="#141B34"/>
<path d="M16.1918 7.25101C16.257 7.25166 16.3184 7.25226 16.375 7.25226C16.4316 7.25226 16.493 7.25166 16.5582 7.25101C16.9143 7.2475 17.3833 7.24288 17.8102 7.32984C18.3634 7.44251 18.9458 7.723 19.3236 8.37726C19.5009 8.68448 19.567 9.01043 19.5968 9.33961C19.625 9.65091 19.625 10.0302 19.625 10.47V13.5345C19.625 13.9743 19.625 14.3536 19.5968 14.6649C19.567 14.9941 19.5009 15.32 19.3236 15.6273C18.9458 16.2815 18.3634 16.562 17.8102 16.6747C17.3833 16.7616 16.9143 16.757 16.5582 16.7535H16.5581C16.493 16.7529 16.4316 16.7523 16.375 16.7523C16.3184 16.7523 16.257 16.7529 16.1919 16.7535H16.1918C15.8357 16.757 15.3667 16.7616 14.9398 16.6747C14.3866 16.562 13.8042 16.2815 13.4264 15.6273C13.2491 15.32 13.183 14.9941 13.1532 14.6649C13.125 14.3536 13.125 13.9743 13.125 13.5345V13.5345V10.47V10.47C13.125 10.0302 13.125 9.6509 13.1532 9.33961C13.183 9.01043 13.2491 8.68447 13.4264 8.37726C13.8042 7.723 14.3866 7.44251 14.9398 7.32984C15.3667 7.24288 15.8357 7.2475 16.1918 7.25101Z" fill="#141B34"/>
<path d="M4.19182 4.25101C4.25698 4.25166 4.31836 4.25226 4.375 4.25226C4.43165 4.25226 4.49302 4.25166 4.55818 4.25101C4.91425 4.2475 5.38327 4.24288 5.81023 4.32984C6.36343 4.44251 6.94582 4.723 7.32356 5.37726C7.50093 5.68448 7.56699 6.01043 7.59682 6.33961C7.62503 6.65091 7.62502 7.03025 7.625 7.47004L7.625 16.5345C7.62502 16.9743 7.62503 17.3536 7.59682 17.6649C7.56698 17.9941 7.50093 18.32 7.32356 18.6273C6.94582 19.2815 6.36343 19.562 5.81023 19.6747C5.38327 19.7616 4.91425 19.757 4.55818 19.7535H4.55814C4.493 19.7529 4.43163 19.7523 4.375 19.7523C4.31837 19.7523 4.25701 19.7529 4.19186 19.7535H4.19182C3.83575 19.757 3.36673 19.7616 2.93977 19.6747C2.38658 19.562 1.80418 19.2815 1.42644 18.6273C1.24908 18.32 1.18302 17.9941 1.15318 17.6649C1.12497 17.3536 1.12498 16.9743 1.125 16.5345V16.5345V7.47004V7.46999C1.12498 7.03022 1.12497 6.65089 1.15318 6.33961C1.18302 6.01043 1.24908 5.68447 1.42645 5.37726C1.80418 4.723 2.38658 4.44251 2.93977 4.32984C3.36673 4.24288 3.83575 4.2475 4.19182 4.25101Z" fill="#141B34"/>
</svg>
