<svg width="24" height="24" viewBox="0 0 24 24" fill="none" xmlns="http://www.w3.org/2000/svg">
<path d="M4.46967 13.1756C5.86443 11.7809 8.1461 12.0341 9.55603 13.444C10.966 14.854 11.2192 17.1356 9.82441 18.5304C9.53152 18.8233 9.05665 18.8233 8.76375 18.5304L7.46853 17.2352L4.81308 21.0344C4.8029 21.049 4.79221 21.0632 4.78102 21.077C4.36803 21.5866 3.80462 21.7915 3.24935 21.7431C2.72811 21.6978 2.26043 21.4371 1.92159 21.1069C1.58311 20.777 1.30731 20.3132 1.25779 19.7845C1.20478 19.2183 1.42152 18.6558 1.93236 18.2383C1.94382 18.2289 1.95554 18.2199 1.96752 18.2112L5.72651 15.4931L4.46967 14.2363C4.32902 14.0956 4.25 13.9049 4.25 13.706C4.25 13.5071 4.32902 13.3163 4.46967 13.1756Z" fill="#141B34"/>
<path fill-rule="evenodd" clip-rule="evenodd" d="M20.4568 2.54289C20.8473 2.93342 20.8473 3.56658 20.4568 3.95711L9.4825 14.9314C9.09197 15.3219 8.45881 15.3219 8.06828 14.9314C7.67776 14.5409 7.67776 13.9077 8.06828 13.5172L19.0426 2.54289C19.4331 2.15237 20.0663 2.15237 20.4568 2.54289Z" fill="#141B34"/>
<path d="M19.5303 13.1756C18.1356 11.7809 15.8539 12.0341 14.444 13.444C13.034 14.854 12.7808 17.1356 14.1756 18.5304C14.4685 18.8233 14.9434 18.8233 15.2362 18.5304L16.5315 17.2352L19.1869 21.0344C19.1971 21.049 19.2078 21.0632 19.219 21.077C19.632 21.5866 20.1954 21.7915 20.7507 21.7431C21.2719 21.6978 21.7396 21.4371 22.0784 21.1069C22.4169 20.777 22.6927 20.3132 22.7422 19.7845C22.7952 19.2183 22.5785 18.6558 22.0676 18.2383C22.0562 18.2289 22.0445 18.2199 22.0325 18.2112L18.2735 15.4931L19.5303 14.2363C19.671 14.0956 19.75 13.9049 19.75 13.706C19.75 13.5071 19.671 13.3163 19.5303 13.1756Z" fill="#141B34"/>
<path fill-rule="evenodd" clip-rule="evenodd" d="M3.5432 2.54289C3.15268 2.93342 3.15268 3.56658 3.5432 3.95711L14.5175 14.9314C14.908 15.3219 15.5412 15.3219 15.9317 14.9314C16.3222 14.5409 16.3222 13.9077 15.9317 13.5172L4.95742 2.54289C4.56689 2.15237 3.93373 2.15237 3.5432 2.54289Z" fill="#141B34"/>
</svg>
