<svg width="24" height="24" viewBox="0 0 24 24" fill="none" xmlns="http://www.w3.org/2000/svg">
<path d="M16.9384 1.47775C15.9562 1.37499 14.6685 1.37499 13.1274 1.375C12.5876 1.375 12.1501 1.81256 12.1501 2.35231C12.1501 2.89205 12.5876 3.32959 13.1274 3.32959C14.736 3.32959 15.8671 3.33084 16.7366 3.42179C17.5905 3.51112 18.0744 3.67788 18.4322 3.93092C18.6737 4.10167 18.8861 4.30276 19.0639 4.52711C19.3194 4.84961 19.4889 5.2824 19.5811 6.06919C19.676 6.87895 19.6776 7.93628 19.6776 9.45973L19.6777 12.3599C19.6777 12.6269 19.6775 13.2655 19.3969 13.7377C19.224 14.0286 19.0026 14.2717 18.7751 14.3956C18.4086 14.5951 17.9884 14.7085 17.5418 14.7085L16.5014 14.672C16.1213 14.6641 15.6778 14.6761 15.2496 14.7908C14.4156 15.0143 13.7642 15.6657 13.5408 16.4996C13.426 16.9278 13.414 17.3713 13.4219 17.7514L13.4584 18.7918C13.4584 19.2595 13.334 19.6666 13.1167 20.045C12.99 20.2656 12.7692 20.4675 12.4645 20.6448C12.0024 20.9137 11.449 20.9162 11.1108 20.9177C10.7726 20.9193 10.4159 20.9204 10.1178 20.9204C8.28369 20.9204 7.61656 20.9065 7.1132 20.7291C6.24057 20.4217 5.57487 19.78 5.26478 18.9947C5.18714 18.798 5.1323 18.5396 5.10286 18.0917C5.07285 17.635 5.07236 17.052 5.07236 16.2118V12.0987C5.07236 11.5609 4.63642 11.125 4.09866 11.125C3.56091 11.125 3.12497 11.5609 3.12497 12.0987V16.245C3.12496 17.0441 3.12496 17.6917 3.15969 18.2202C3.19549 18.7649 3.2711 19.2505 3.45437 19.7147C3.98318 21.054 5.09161 22.0883 6.46816 22.5733C7.32697 22.8759 8.79905 22.8755 10.3541 22.8749C13.1937 22.8753 14.8803 22.8755 16.2628 22.3884C18.4828 21.6063 20.2565 19.9435 21.0999 17.8075C21.381 17.0955 21.5055 16.3308 21.5658 15.4139C21.625 14.5132 21.625 13.4006 21.625 11.9823V9.39882C21.625 7.95073 21.625 6.77808 21.5151 5.84075C21.401 4.86735 21.1578 4.02947 20.5879 3.3104C20.2927 2.93792 19.9442 2.60914 19.5538 2.33309C18.8091 1.80643 17.9478 1.58334 16.9384 1.47775Z" fill="#141B34"/>
<path fill-rule="evenodd" clip-rule="evenodd" d="M3.37874 2.11198C4.71032 0.796008 6.8644 0.796007 8.19597 2.11198C8.58879 2.50019 8.59252 3.13335 8.20431 3.52617C7.81609 3.91899 7.18294 3.92272 6.79012 3.5345C6.23764 2.9885 5.33707 2.9885 4.7846 3.5345C4.23867 4.07403 4.23867 4.94385 4.7846 5.48338L6.91671 7.5905C7.41263 8.08061 8.19282 8.13227 8.74703 7.73789C9.19701 7.41768 9.82137 7.52288 10.1416 7.97287C10.4618 8.42285 10.3566 9.04721 9.90661 9.36742C8.57545 10.3147 6.71097 10.1991 5.51085 9.01302L3.37874 6.9059C2.04062 5.58346 2.04062 3.43442 3.37874 2.11198L3.37874 2.11198ZM6.91663 4.8321C8.2419 3.94011 10.0608 4.07216 11.2395 5.23698L13.3716 7.3441C14.7097 8.66654 14.7097 10.8156 13.3716 12.138C12.04 13.454 9.88591 13.454 8.55433 12.138C8.16152 11.7498 8.15778 11.1167 8.546 10.7238C8.93422 10.331 9.56737 10.3273 9.96019 10.7155C10.5127 11.2615 11.4132 11.2615 11.9657 10.7155C12.5116 10.176 12.5116 9.30616 11.9657 8.76662L9.8336 6.6595C9.34685 6.17846 8.58578 6.11948 8.03336 6.49129C7.57519 6.79966 6.95378 6.67823 6.6454 6.22006C6.33702 5.76189 6.45846 5.14047 6.91663 4.8321Z" fill="#141B34"/>
</svg>
