<svg width="24" height="24" viewBox="0 0 24 24" fill="none" xmlns="http://www.w3.org/2000/svg">
<path fill-rule="evenodd" clip-rule="evenodd" d="M9.24701 4.19962C8.74835 4.19816 8.26396 4.19911 7.78431 4.21517C7.23235 4.23364 6.76954 3.81243 6.75059 3.27438C6.73164 2.73632 7.16373 2.28517 7.71569 2.2667C8.23528 2.24931 8.75146 2.24854 9.25299 2.25001C9.80528 2.25162 10.2516 2.68936 10.25 3.22773C10.2483 3.7661 9.79929 4.20123 9.24701 4.19962ZM5.8879 3.31025C6.13692 3.79079 5.93918 4.37713 5.44622 4.61988C4.67966 4.99736 4.05684 5.60679 3.67254 6.35575C3.42547 6.83725 2.82477 7.03234 2.33083 6.7915C1.83689 6.55066 1.63676 5.96509 1.88382 5.48359C2.46044 4.35983 3.3943 3.44607 4.54443 2.8797C5.03738 2.63695 5.63888 2.82971 5.8879 3.31025ZM2.25 8.75023C2.80228 8.75023 3.25 9.18667 3.25 9.72504V14.2741C3.25 14.8125 2.80228 15.249 2.25 15.249C1.69772 15.249 1.25 14.8125 1.25 14.2741V9.72504C1.25 9.18667 1.69772 8.75023 2.25 8.75023ZM2.31412 17.1462C2.81118 16.9115 3.40927 17.1141 3.65 17.5986C4.03224 18.368 4.66448 18.9942 5.44623 19.3791C5.93918 19.6219 6.13692 20.2082 5.8879 20.6888C5.63887 21.1693 5.03738 21.3621 4.54443 21.1193C3.37155 20.5417 2.42355 19.6029 1.85 18.4484C1.60927 17.9639 1.81706 17.3809 2.31412 17.1462ZM6.75059 20.7246C6.76954 20.1866 7.23235 19.7654 7.78431 19.7839C8.26396 19.7999 8.74835 19.8009 9.247 19.7994C9.79929 19.7978 10.2483 20.2329 10.25 20.7713C10.2516 21.3097 9.80528 21.7474 9.25299 21.749C8.75147 21.7505 8.23528 21.7497 7.71569 21.7323C7.16373 21.7139 6.73164 21.2627 6.75059 20.7246Z" fill="#141B34"/>
<path d="M18.5062 2.45927C19.8775 2.73834 21.1875 3.39327 22.0465 4.87994C22.4249 5.53487 22.5915 6.26811 22.6716 7.15103C22.75 8.01581 22.75 9.09457 22.75 10.4639V13.536C22.75 14.9053 22.75 15.9841 22.6716 16.8489C22.5915 17.7318 22.4249 18.465 22.0465 19.1199C21.1875 20.6066 19.8775 21.2615 18.5062 21.5406C17.3971 21.7663 16.1829 21.7559 15.1063 21.7465H15.1063H15.1061C14.8984 21.7447 14.6958 21.743 14.5 21.743C13.5469 21.743 12.6501 21.6175 12.03 21.0171C11.4038 20.4108 11.25 19.5082 11.25 18.4949V5.50496C11.25 4.49169 11.4038 3.58911 12.03 2.98283C12.6501 2.38236 13.5469 2.25689 14.5 2.25689C14.6958 2.25689 14.8985 2.25514 15.1063 2.25334C16.1828 2.24403 17.3971 2.23354 18.5062 2.45927Z" fill="#141B34"/>
</svg>
