<svg width="24" height="24" viewBox="0 0 24 24" fill="none" xmlns="http://www.w3.org/2000/svg">
<path fill-rule="evenodd" clip-rule="evenodd" d="M10.0681 2.125H9.93195H9.93192H9.93189H9.93186C8.62614 2.12497 7.54944 2.12494 6.69727 2.24079C5.80257 2.36241 5.01241 2.62758 4.37974 3.26729C3.74706 3.907 3.48481 4.70593 3.36452 5.61057C3.24995 6.4722 3.24997 7.56086 3.25 8.88108V8.88111V8.88114V8.88117V9.87441V9.87559L3.25001 19.875H2C1.44772 19.875 1 20.3227 1 20.875C1 21.4273 1.44772 21.875 2 21.875H18C18.5523 21.875 19 21.4273 19 20.875C19 20.3227 18.5523 19.875 18 19.875H16.75L16.75 14.875H17.6667C17.8307 14.875 17.9204 14.8752 17.9857 14.8782L17.9963 14.8787L17.9968 14.8893C17.9998 14.9546 18 15.0443 18 15.2083V16.375C18 17.7557 19.1193 18.875 20.5 18.875C21.8807 18.875 23 17.7557 23 16.375V10.0861L23.0001 9.98466C23.0007 9.48378 23.0012 9.04019 22.8713 8.6112C22.7414 8.18221 22.4949 7.81341 22.2166 7.39697L22.1603 7.3126L21.3867 6.15235C20.8547 5.35433 19.9591 4.875 19 4.875C18.4477 4.875 18 5.32272 18 5.875C18 6.42729 18.4477 6.875 19 6.875C19.2904 6.875 19.5616 7.02013 19.7226 7.26175L20.4962 8.422C20.8619 8.97068 20.924 9.08163 20.9571 9.19077C20.9901 9.2999 21 9.42667 21 10.0861V16.375C21 16.6511 20.7761 16.875 20.5 16.875C20.2239 16.875 20 16.6511 20 16.375V15.2083L20.0001 15.1408C20.0009 14.906 20.0017 14.6182 19.9319 14.3574C19.7469 13.6672 19.2078 13.1281 18.5176 12.9431C18.2568 12.8733 17.969 12.8741 17.7342 12.8749L17.6667 12.875H16.75V9.87626L16.75 9.875L16.75 9.87375V8.88119C16.75 7.56093 16.7501 6.47223 16.6355 5.61057C16.5152 4.70593 16.2529 3.90699 15.6203 3.26729C14.9876 2.62758 14.1974 2.36241 13.3027 2.24079C12.4506 2.12494 11.3739 2.12497 10.0681 2.125H10.0681H10.0681H10.0681ZM14.8211 8.52501C14.819 7.39599 14.8056 6.48205 14.7243 5.87059C14.6327 5.18219 14.4713 4.86335 14.2567 4.64634C14.0421 4.42933 13.7267 4.26615 13.0459 4.17359C12.3373 4.07727 11.3911 4.0752 10.0001 4.0752C8.60917 4.0752 7.66296 4.07727 6.95438 4.17359C6.27354 4.26615 5.9582 4.42933 5.74358 4.64634C5.52896 4.86335 5.36756 5.18219 5.27603 5.87059C5.19472 6.48205 5.18132 7.39599 5.17913 8.52501V8.52502C5.17859 8.80771 5.17831 8.94905 5.26622 9.03712C5.35412 9.1252 5.49565 9.1252 5.77871 9.1252H14.2216C14.5046 9.1252 14.6462 9.1252 14.7341 9.03712C14.822 8.94905 14.8217 8.8077 14.8211 8.52501ZM11.2554 13.4847C11.5921 13.047 11.5102 12.4191 11.0724 12.0824C10.6346 11.7457 10.0068 11.8276 9.67008 12.2654L8.27606 14.0778C7.65844 14.8807 8.13057 15.9932 9.06237 16.191L9.35089 16.2523L8.45701 17.182C8.07423 17.5801 8.08666 18.2131 8.48478 18.5959C8.8829 18.9787 9.51594 18.9663 9.89872 18.5681L11.6283 16.7692C12.3763 15.9913 11.9329 14.7558 10.9379 14.5446L10.51 14.4537L11.2554 13.4847Z" fill="#141B34"/>
</svg>
