<svg width="24" height="24" viewBox="0 0 24 24" fill="none" xmlns="http://www.w3.org/2000/svg">
<path d="M8.8486 11.1814C9.24567 11.384 9.70681 11.6193 9.98841 11.8255C10.3121 12.0626 10.5897 12.3725 10.7004 12.8338C10.8229 13.3445 10.6968 13.7799 10.498 14.1224C10.3346 14.4037 10.1037 14.6493 9.94152 14.8217C9.74693 15.0298 9.60672 15.1934 9.55841 15.294C9.53208 15.3488 9.5253 15.3785 9.5541 15.455C9.81688 16.1528 9.93286 16.7857 9.6931 17.4054C9.47719 17.9636 8.97483 18.4212 8.53796 18.8127L8.60342 19.1772L8.60342 19.1772C8.64194 19.3264 8.69995 19.551 8.7206 19.7657C8.74844 20.0552 8.72262 20.4104 8.51514 20.7636C7.92745 21.7642 7.11485 22.5006 6.05956 22.7677C5.01112 23.0332 3.8651 22.7993 2.67878 22.1558C2.40512 22.0074 1.87595 21.7093 1.5559 21.2956C1.38485 21.0745 1.20334 20.7301 1.26086 20.3037C1.31889 19.8737 1.59329 19.5561 1.90359 19.3324C2.59986 18.8302 3.19358 17.9288 3.67862 16.7983C4.15699 15.6833 4.49458 14.4293 4.72644 13.3194C4.74701 13.2209 4.82112 12.7565 4.82112 12.7565C4.85889 12.5273 4.90799 12.2567 4.98243 11.9894C5.11577 11.5106 5.40049 10.7733 6.1345 10.4789C6.61249 10.2872 7.08374 10.3932 7.47499 10.5359C7.85661 10.675 8.31681 10.9099 8.8486 11.1814Z" fill="#141B34"/>
<path d="M15.1514 11.1814C14.7543 11.384 14.2932 11.6193 14.0116 11.8255C13.6879 12.0626 13.4103 12.3725 13.2996 12.8338C13.1773 13.3437 13.3037 13.7787 13.5013 14.1205C13.6642 14.4022 13.8945 14.6487 14.0566 14.8222C14.251 15.0315 14.3913 15.196 14.4403 15.2978C14.4675 15.3544 14.473 15.383 14.4459 15.455C14.1831 16.1528 14.0671 16.7857 14.3069 17.4054C14.5228 17.9636 15.0252 18.4212 15.462 18.8127C15.462 18.8127 15.4413 18.9958 15.3966 19.1772L15.3966 19.1772C15.3581 19.3264 15.3001 19.551 15.2794 19.7657C15.2516 20.0552 15.2774 20.4104 15.4849 20.7636C16.0725 21.7642 16.8851 22.5006 17.9404 22.7677C18.9889 23.0332 20.1349 22.7993 21.3212 22.1558C21.5949 22.0074 22.1241 21.7093 22.4441 21.2956C22.6151 21.0745 22.7967 20.7301 22.7391 20.3037C22.6811 19.8737 22.4067 19.5561 22.0964 19.3324C21.4001 18.8302 20.8064 17.9288 20.3214 16.7983C19.843 15.6833 19.5054 14.4293 19.2736 13.3194C19.253 13.2209 19.1789 12.7565 19.1789 12.7565C19.1411 12.5273 19.092 12.2567 19.0176 11.9894C18.8842 11.5106 18.5995 10.7733 17.8655 10.4789C17.3875 10.2872 16.9163 10.3932 16.525 10.5359C16.1434 10.675 15.6832 10.9099 15.1514 11.1814Z" fill="#141B34"/>
<path fill-rule="evenodd" clip-rule="evenodd" d="M10.4999 4.625C10.4999 3.79657 11.1715 3.125 11.9999 3.125C12.8283 3.125 13.4999 3.79657 13.4999 4.625C13.4999 5.45343 12.8283 6.125 11.9999 6.125C11.1715 6.125 10.4999 5.45343 10.4999 4.625ZM11.9999 1.125C10.0669 1.125 8.4999 2.692 8.4999 4.625C8.4999 6.558 10.0669 8.125 11.9999 8.125C12.5079 8.125 12.9906 8.01678 13.4262 7.82214L14.535 11.8876C14.6803 12.4204 15.23 12.7345 15.7629 12.5892C16.2957 12.4439 16.6098 11.8942 16.4645 11.3613L15.0807 6.28735C15.3481 5.79283 15.4999 5.22664 15.4999 4.625C15.4999 2.692 13.9329 1.125 11.9999 1.125Z" fill="#141B34"/>
<path fill-rule="evenodd" clip-rule="evenodd" d="M9.51287 7.91049C8.98004 7.76517 8.4303 8.07931 8.28499 8.61213L7.53499 11.3621C7.38967 11.895 7.70381 12.4447 8.23663 12.59C8.76946 12.7353 9.3192 12.4212 9.46451 11.8884L10.2145 9.13837C10.3598 8.60554 10.0457 8.0558 9.51287 7.91049Z" fill="#141B34"/>
</svg>
