<svg width="24" height="24" viewBox="0 0 24 24" fill="none" xmlns="http://www.w3.org/2000/svg">
<path fill-rule="evenodd" clip-rule="evenodd" d="M11.6887 13.043C11.7863 12.9986 11.8923 12.9756 11.9995 12.9756C12.8546 12.9756 13.4058 13.4866 13.7442 14.0506C14.0644 14.5842 14.2583 15.2618 14.4124 15.8472C14.445 15.9713 14.4761 16.0919 14.5062 16.2088C14.6294 16.6876 14.737 17.1055 14.8764 17.4568C15.0603 17.9201 15.2023 18.0026 15.2368 18.0141C15.6297 18.1451 15.8421 18.5698 15.7111 18.9628C15.5801 19.3557 15.1554 19.5681 14.7624 19.4371C14.0469 19.1986 13.6889 18.5311 13.4822 18.01C13.3042 17.5615 13.1666 17.0249 13.0423 16.5402C13.0149 16.4335 12.9881 16.3292 12.9618 16.229C12.9567 16.2097 12.9516 16.1906 12.9466 16.1716C12.8082 16.8456 12.5593 17.4562 12.3431 17.9864C12.3038 18.0826 12.2657 18.1762 12.2295 18.267C11.9701 18.9174 11.8044 19.4157 11.8043 19.8715C11.8042 20.272 11.9335 20.6971 12.4333 21.1934C12.7273 21.4853 12.7289 21.9601 12.4371 22.254C12.1452 22.548 11.6703 22.5496 11.3764 22.2578C10.6174 21.5041 10.3041 20.7046 10.3043 19.8711C10.3045 19.093 10.5823 18.3481 10.8362 17.7114C10.8647 17.6398 10.8931 17.5691 10.9211 17.4992C11.3215 16.5011 11.6584 15.6613 11.5271 14.7646C10.9032 15.0543 10.2654 15.3783 9.74001 15.7789C9.00294 16.3408 8.66009 16.917 8.76464 17.6144C8.82606 18.024 8.54377 18.4059 8.13413 18.4673C7.7245 18.5287 7.34264 18.2464 7.28122 17.8368C7.05876 16.353 7.89981 15.2956 8.8306 14.586C9.6504 13.961 10.6734 13.5005 11.4298 13.16C11.5202 13.1193 11.6067 13.0804 11.6887 13.043Z" fill="#141B34"/>
<path d="M11.25 1.9874C11.25 1.67706 11.25 1.5219 11.1474 1.46469C11.0448 1.40748 10.9143 1.48814 10.6533 1.64946C6.64879 4.12448 3.20314 7.74529 1.28853 13.4891C1.18721 13.7931 1.29017 14.1278 1.5448 14.3223C1.79943 14.5168 2.14948 14.528 2.41607 14.3503C3.84624 13.3969 5.47226 12.7123 7.05348 12.5994C8.60747 12.4884 10.1378 12.9247 11.4697 14.2566C11.7626 14.5495 12.2375 14.5495 12.5304 14.2566C13.8623 12.9247 15.3926 12.4884 16.9466 12.5994C18.5278 12.7123 20.1539 13.3969 21.584 14.3503C21.8506 14.528 22.2007 14.5168 22.4553 14.3223C22.7099 14.1278 22.8129 13.7931 22.7116 13.4891C20.7969 7.74525 17.3513 4.12443 13.3467 1.64941C13.0857 1.48809 12.9552 1.40743 12.8526 1.46464C12.75 1.52185 12.75 1.67702 12.75 1.98735V4.88857C12.75 5.02845 12.75 5.09839 12.7836 5.14876C12.8171 5.19912 12.888 5.22873 13.0299 5.28795C13.1166 5.32415 13.1991 5.36216 13.2774 5.39823L13.3002 5.40875C13.6797 5.58345 14.1326 5.83362 14.5045 6.17168C14.811 6.45031 14.8336 6.92465 14.555 7.23114C14.2763 7.53763 13.802 7.56022 13.4955 7.28159C13.4366 7.22806 13.3709 7.17588 13.3 7.12532C13.0778 6.96705 12.9668 6.88791 12.8584 6.94376C12.75 6.99962 12.75 7.14756 12.75 7.44344V10.7263C12.75 11.1405 12.4142 11.4763 12 11.4763C11.5858 11.4763 11.25 11.1405 11.25 10.7263V7.44344C11.25 7.14756 11.25 6.99962 11.1416 6.94376C11.0332 6.88791 10.9222 6.96705 10.7 7.12532C10.6291 7.17588 10.5634 7.22806 10.5045 7.28159C10.198 7.56022 9.72368 7.53763 9.44505 7.23114C9.16642 6.92464 9.18901 6.45031 9.4955 6.17168C9.86737 5.83362 10.3203 5.58345 10.6998 5.40875L10.7226 5.39823C10.8009 5.36217 10.8834 5.32415 10.9701 5.28795C11.112 5.22873 11.1829 5.19913 11.2165 5.14876C11.25 5.09839 11.25 5.02845 11.25 4.88857V1.9874Z" fill="#141B34"/>
</svg>
