<svg width="24" height="24" viewBox="0 0 24 24" fill="none" xmlns="http://www.w3.org/2000/svg">
<path fill-rule="evenodd" clip-rule="evenodd" d="M10.9905 1.50058C10.525 1.50148 10.2922 1.50193 10.1461 1.64832C10 1.79471 10 2.02855 10 2.49623L10 21.5038C10 21.9715 10 22.2053 10.1461 22.3517C10.2922 22.4981 10.525 22.4985 10.9905 22.4994C11.2927 22.5 11.6043 22.5 11.9255 22.5H12.0745C14.2504 22.5 15.9852 22.5 17.3453 22.3172C18.7497 22.1284 19.9035 21.7283 20.8159 20.8159C21.7283 19.9035 22.1284 18.7497 22.3172 17.3453C22.5 15.9851 22.5 14.2504 22.5 12.0744V11.9256C22.5 9.74959 22.5 8.01485 22.3172 6.65471C22.1284 5.25033 21.7283 4.09653 20.8159 3.18414C19.9035 2.27175 18.7497 1.87164 17.3453 1.68282C15.9851 1.49996 14.2504 1.49998 12.0744 1.5L11.9256 1.5C11.6043 1.5 11.2927 1.49999 10.9905 1.50058Z" fill="#141B34"/>
<path fill-rule="evenodd" clip-rule="evenodd" d="M1.5 11.9257V12.0746C1.49998 14.2506 1.49996 15.9853 1.68282 17.3454C1.87164 18.7498 2.27175 19.9036 3.18414 20.816C4.09653 21.7284 5.25033 22.1285 6.65471 22.3173C6.7501 22.3301 6.84733 22.3421 6.94642 22.3532C7.42656 22.4069 7.66663 22.4337 7.83332 22.2847C8 22.1356 8 21.8842 8 21.3813L8 2.61895C8 2.1161 8 1.86468 7.83332 1.71561C7.66663 1.56653 7.42656 1.5934 6.94642 1.64712C6.84733 1.65821 6.7501 1.67014 6.65471 1.68296C5.25033 1.87178 4.09653 2.27188 3.18414 3.18427C2.27175 4.09666 1.87164 5.25047 1.68282 6.65485C1.49996 8.01499 1.49998 9.74971 1.5 11.9257Z" fill="#141B34"/>
</svg>
