<svg width="24" height="24" viewBox="0 0 24 24" fill="none" xmlns="http://www.w3.org/2000/svg">
<path fill-rule="evenodd" clip-rule="evenodd" d="M1.68259 6.65471C1.64656 6.92267 1.62855 7.05665 1.67166 7.17332C1.71284 7.28475 1.80144 7.38607 1.9064 7.44173C2.01628 7.5 2.15905 7.5 2.44458 7.5L21.5549 7.5C21.8405 7.5 21.9832 7.5 22.0931 7.44173C22.1981 7.38607 22.2867 7.28476 22.3279 7.17332C22.371 7.05665 22.353 6.92267 22.3169 6.65471C22.1281 5.25033 21.728 4.09653 20.8156 3.18414C19.9032 2.27175 18.7494 1.87164 17.3451 1.68282C15.9849 1.49996 14.2502 1.49998 12.0742 1.5L11.9253 1.5C9.74935 1.49998 8.01462 1.49996 6.65447 1.68282C5.25009 1.87164 4.09629 2.27175 3.1839 3.18414C2.27151 4.09653 1.8714 5.25033 1.68259 6.65471ZM22.3169 17.3453C22.353 17.0773 22.371 16.9434 22.3279 16.8267C22.2867 16.7153 22.1981 16.6139 22.0931 16.5583C21.9832 16.5 21.8405 16.5 21.5549 16.5L2.44458 16.5C2.15905 16.5 2.01628 16.5 1.9064 16.5583C1.80144 16.6139 1.71284 16.7153 1.67166 16.8267C1.62855 16.9434 1.64656 17.0773 1.68259 17.3453C1.8714 18.7497 2.27151 19.9035 3.1839 20.8159C4.09629 21.7283 5.2501 22.1284 6.65447 22.3172C8.01461 22.5 9.74934 22.5 11.9253 22.5H12.0742C14.2502 22.5 15.9849 22.5 17.3451 22.3172C18.7494 22.1284 19.9032 21.7283 20.8156 20.8159C21.728 19.9035 22.1281 18.7497 22.3169 17.3453Z" fill="#141B34"/>
<path fill-rule="evenodd" clip-rule="evenodd" d="M1.5 11.9255V12.0745C1.5 12.5785 1.49999 13.0588 1.50226 13.5163C1.50455 13.978 1.50569 14.2089 1.65199 14.3544C1.79828 14.5 2.03081 14.5 2.49587 14.5L21.5041 14.5C21.9692 14.5 22.2017 14.5 22.348 14.3544C22.4943 14.2089 22.4955 13.978 22.4977 13.5163C22.5 13.0588 22.5 12.5784 22.5 12.0744V11.9256C22.5 11.4216 22.5 10.9412 22.4977 10.4837C22.4955 10.022 22.4943 9.79114 22.348 9.64557C22.2017 9.5 21.9692 9.5 21.5041 9.5L2.49587 9.5C2.03081 9.5 1.79828 9.5 1.65198 9.64557C1.50569 9.79114 1.50455 10.022 1.50226 10.4837C1.49999 10.9412 1.5 11.4215 1.5 11.9255Z" fill="#141B34"/>
</svg>
