<svg width="24" height="24" viewBox="0 0 24 24" fill="none" xmlns="http://www.w3.org/2000/svg">
<path fill-rule="evenodd" clip-rule="evenodd" d="M10 6C10 5.44772 10.4477 5 11 5L21 5C21.5523 5 22 5.44772 22 6C22 6.55229 21.5523 7 21 7L11 7C10.4477 7 10 6.55228 10 6Z" fill="#141B34"/>
<path fill-rule="evenodd" clip-rule="evenodd" d="M10 12C10 11.4477 10.4477 11 11 11L21 11C21.5523 11 22 11.4477 22 12C22 12.5523 21.5523 13 21 13L11 13C10.4477 13 10 12.5523 10 12Z" fill="#141B34"/>
<path fill-rule="evenodd" clip-rule="evenodd" d="M10 18C10 17.4477 10.4477 17 11 17L21 17C21.5523 17 22 17.4477 22 18C22 18.5523 21.5523 19 21 19L11 19C10.4477 19 10 18.5523 10 18Z" fill="#141B34"/>
<path d="M4.79406 16.0022C4.73095 16 4.64632 15.9999 4.50014 15.9999H3.00014C2.44786 15.9999 2.00014 15.5522 2.00014 14.9999C2.00014 14.4476 2.44786 13.9999 3.00014 13.9999H4.50014L4.55926 13.9998C4.775 13.9994 5.01248 13.999 5.22934 14.0422C6.10206 14.2158 6.78427 14.898 6.95787 15.7707C7.001 15.9876 7.00059 16.225 7.00021 16.4408L7.00014 16.4999L7.00021 16.559C7.00059 16.7748 7.001 17.0122 6.95787 17.2291C6.78427 18.1018 6.10206 18.784 5.22934 18.9576C5.01248 19.0008 4.775 19.0003 4.55927 19L4.50014 18.9999C4.35396 18.9999 4.26934 19 4.20622 19.0022C4.17716 19.0032 4.16154 19.0044 4.15524 19.005C4.08068 19.0222 4.02241 19.0804 4.00525 19.155C4.00466 19.1613 4.00343 19.1769 4.00244 19.206C4.00028 19.2691 4.00014 19.3537 4.00014 19.4999V19.9999H6.00014C6.55243 19.9999 7.00014 20.4476 7.00014 20.9999C7.00014 21.5522 6.55243 21.9999 6.00014 21.9999H3.60014L3.57261 21.9999H3.57259C3.45839 22.0001 3.28884 22.0003 3.13771 21.98C2.94513 21.9541 2.6416 21.8798 2.3809 21.6191C2.1202 21.3584 2.04593 21.0549 2.02004 20.8623C1.99972 20.7112 1.99996 20.5416 2.00011 20.4274L2.00014 20.3999V19.4999L2.00007 19.4408L2.00007 19.4408C1.99969 19.225 1.99928 18.9876 2.04241 18.7707C2.21601 17.898 2.89822 17.2158 3.77094 17.0422C3.9878 16.999 4.22528 16.9994 4.44101 16.9998H4.44102L4.50014 16.9999C4.64632 16.9999 4.73095 16.9998 4.79406 16.9976C4.82312 16.9966 4.83874 16.9954 4.84504 16.9948C4.9196 16.9776 4.97787 16.9194 4.99504 16.8448C4.99562 16.8385 4.99685 16.8229 4.99784 16.7938C5 16.7307 5.00014 16.6461 5.00014 16.4999C5.00014 16.3537 5 16.2691 4.99784 16.206C4.99685 16.1769 4.99562 16.1613 4.99504 16.155C4.97787 16.0804 4.9196 16.0222 4.84504 16.005L4.79406 16.0022Z" fill="#141B34"/>
<path fill-rule="evenodd" clip-rule="evenodd" d="M2 3C2 2.44772 2.44772 2 3 2H4.2C4.91797 2 5.5 2.58203 5.5 3.3V8H6C6.55228 8 7 8.44772 7 9C7 9.55228 6.55228 10 6 10H3C2.44772 10 2 9.55228 2 9C2 8.44772 2.44772 8 3 8H3.5V4H3C2.44772 4 2 3.55228 2 3Z" fill="#141B34"/>
</svg>
