<svg width="24" height="24" viewBox="0 0 24 24" fill="none" xmlns="http://www.w3.org/2000/svg">
<path fill-rule="evenodd" clip-rule="evenodd" d="M11.5833 1.25H11.5833H10.4167H10.4167C8.46584 1.24999 6.92941 1.24998 5.72885 1.40242C4.49987 1.55847 3.50965 1.88575 2.72552 2.62631C1.93535 3.37259 1.5806 4.32468 1.41255 5.50521C1.24997 6.64729 1.24998 8.1054 1.25 9.94066V9.94067V14.0593V14.0593C1.24998 15.8946 1.24997 17.3527 1.41255 18.4948C1.5806 19.6753 1.93534 20.6274 2.72552 21.3737C3.50965 22.1142 4.49987 22.4415 5.72885 22.5976C6.92941 22.75 8.46586 22.75 10.4167 22.75L11.0646 22.75C11.46 22.75 11.6577 22.75 11.747 22.6513C11.8363 22.5527 11.8126 22.3146 11.7653 21.8385C11.7443 21.6273 11.7484 21.4445 11.757 21.31C11.7719 21.0765 11.8274 20.7703 11.8595 20.6C11.9161 20.2997 12.1781 18.9267 12.2251 18.7423C12.3859 18.1125 12.6944 17.2558 13.4295 16.5207L16.841 13.1089C17.0767 12.8718 17.4379 12.5085 17.8767 12.2552C18.5243 11.8813 19.2552 11.715 19.977 11.7561C20.367 11.7784 20.562 11.7895 20.656 11.7007C20.75 11.6119 20.75 11.4403 20.75 11.0971V9.94074V9.94072V9.94071C20.75 8.10544 20.75 6.64729 20.5875 5.50521C20.4194 4.32468 20.0647 3.37259 19.2745 2.62631C18.4904 1.88575 17.5001 1.55847 16.2712 1.40242C15.0706 1.24998 13.5342 1.24999 11.5833 1.25ZM6 7C6 6.44772 6.44772 6 7 6H15C15.5523 6 16 6.44772 16 7C16 7.55228 15.5523 8 15 8H7C6.44772 8 6 7.55228 6 7ZM7 11C6.44772 11 6 11.4477 6 12C6 12.5523 6.44772 13 7 13H15C15.5523 13 16 12.5523 16 12C16 11.4477 15.5523 11 15 11H7Z" fill="#141B34"/>
<path d="M18.627 13.5542C19.3296 13.1486 20.1952 13.1486 20.8978 13.5542C21.1593 13.7053 21.4534 13.9999 21.7265 14.2735C22.0002 14.5467 22.2948 14.8407 22.4458 15.1023C22.8515 15.8049 22.8515 16.6705 22.4458 17.3731C22.2948 17.6347 22.06 17.869 21.7863 18.1421L18.4187 21.5097C17.9533 21.975 17.3914 22.1924 16.8866 22.3213C16.6346 22.3856 15.4603 22.5986 15.4603 22.5986C15.4603 22.5986 14.8481 22.7297 14.5948 22.7458C14.3159 22.7636 13.9114 22.7362 13.5876 22.4124C13.2638 22.0887 13.2365 21.6842 13.2542 21.4052C13.2703 21.152 13.4014 20.5398 13.4014 20.5398C13.4014 20.5398 13.6144 19.3654 13.6788 19.1134C13.8076 18.6086 14.0251 18.0467 14.4904 17.5814L17.858 14.2137C18.1311 13.94 18.3654 13.7053 18.627 13.5542Z" fill="#141B34"/>
</svg>
