<svg width="24" height="24" viewBox="0 0 24 24" fill="none" xmlns="http://www.w3.org/2000/svg">
<path fill-rule="evenodd" clip-rule="evenodd" d="M1.29289 1.29289C1.68342 0.902369 2.31658 0.902369 2.70711 1.29289L22.7071 21.2929C23.0976 21.6834 23.0976 22.3166 22.7071 22.7071C22.3166 23.0976 21.6834 23.0976 21.2929 22.7071L1.29289 2.70711C0.902369 2.31658 0.902369 1.68342 1.29289 1.29289Z" fill="#141B34"/>
<path d="M7.1322 2.45851C7.24805 2.54859 7.24805 2.71236 7.24805 3.03989V3.71333L6.23644 2.70172C6.34217 2.6476 6.44425 2.59757 6.54314 2.5519C6.81804 2.42494 6.95549 2.36145 7.08584 2.42886C7.10086 2.43662 7.11885 2.44813 7.1322 2.45851Z" fill="#141B34"/>
<path d="M3.61675 4.19502L3.98221 3.98302L7.24805 7.24886L7.24805 18.3949C7.24805 18.5841 7.24805 18.6787 7.20428 18.7506C7.16052 18.8224 7.07 18.8692 6.88896 18.9627C6.65264 19.0848 6.39939 19.2318 6.11627 19.396C5.49724 19.7551 4.92546 20.0868 4.49955 20.2791C4.06875 20.4736 3.6014 20.6215 3.10829 20.5335C2.57493 20.4384 2.09607 20.1518 1.75638 19.7304C1.4448 19.3438 1.34131 18.8655 1.29444 18.3894C1.24802 17.918 1.24803 17.3151 1.24805 16.586V8.34689C1.24803 7.79575 1.24802 7.32942 1.28551 6.94305C1.32532 6.53275 1.41145 6.15411 1.61803 5.7915C1.8251 5.42802 2.10653 5.16251 2.43888 4.92252C2.75051 4.69749 3.14867 4.46653 3.61675 4.19502Z" fill="#141B34"/>
<path d="M8.79574 18.6443C8.74805 18.5702 8.74805 18.4689 8.74805 18.2663L8.74805 8.74886L14.2481 14.2489V20.9194C14.2481 21.1335 14.0273 21.273 13.8356 21.1775L10.0217 19.2812C9.64284 19.0928 9.36206 18.9548 9.1408 18.854C8.94256 18.7636 8.84344 18.7185 8.79574 18.6443Z" fill="#141B34"/>
<path d="M14.2031 4.81844C14.248 4.89104 14.248 4.98146 14.248 5.16231L14.2481 10.7133L8.74805 5.21333V2.97696C8.74805 2.63897 8.74805 2.46998 8.87327 2.38022L8.88348 2.37321C9.0123 2.2887 9.15832 2.34504 9.45037 2.45772C9.92358 2.6403 10.4716 2.91282 11.1406 3.24547L13.9152 4.62506C14.0771 4.70558 14.1581 4.74584 14.2031 4.81844Z" fill="#141B34"/>
<path d="M15.748 5.42216C15.748 5.32763 15.8249 5.25109 15.9194 5.25109L18.051 5.25109C18.9486 5.25106 19.6988 5.25103 20.2947 5.33291C20.9255 5.4196 21.4936 5.61049 21.9484 6.0753C22.4009 6.53783 22.5846 7.11172 22.6684 7.74859C22.7481 8.35433 22.7481 9.1182 22.748 10.0381V16.8809C22.7481 17.7844 22.7481 18.5374 22.6726 19.1379L15.7481 12.2133L15.748 5.42216Z" fill="#141B34"/>
<path d="M15.8576 21.6679C15.7971 21.668 15.7481 21.6189 15.7481 21.5584V15.7489L21.3037 21.3045C20.994 21.4533 20.6546 21.5367 20.2947 21.5861C19.6988 21.668 18.9487 21.668 18.051 21.6679L15.8576 21.6679Z" fill="#141B34"/>
</svg>
