<svg width="24" height="24" viewBox="0 0 24 24" fill="none" xmlns="http://www.w3.org/2000/svg">
<path fill-rule="evenodd" clip-rule="evenodd" d="M12.8645 2.50663C12.7758 2.37897 12.5617 2.37736 12.1335 2.37414C11.3016 2.36789 10.4679 2.39184 9.65465 2.44589C5.088 2.74946 1.46472 6.43574 1.1668 11.0455C1.11107 11.9079 1.11107 12.8 1.1668 13.6624C1.27772 15.3788 2.02648 16.9272 2.85881 18.1836C3.10814 18.6651 2.97823 19.3873 2.5119 20.271L2.49042 20.3116C2.33374 20.6084 2.18036 20.8989 2.09188 21.1465C1.99813 21.409 1.90123 21.8256 2.14291 22.2377C2.36496 22.6163 2.71975 22.755 3.00652 22.8105C3.24461 22.8565 3.53655 22.8635 3.81044 22.87L3.85617 22.8711C5.27592 22.9057 6.27636 22.4958 7.0688 21.9114L7.16407 21.8412C7.28359 21.7534 7.34335 21.7094 7.42104 21.6998C7.49873 21.6901 7.56703 21.718 7.70361 21.7736C7.77126 21.8012 7.84733 21.8325 7.93339 21.8679C8.47478 22.0909 9.08972 22.2245 9.65465 22.262C11.1119 22.3589 12.6351 22.3591 14.0954 22.262C18.662 21.9585 22.2853 18.2722 22.5832 13.6624C22.6123 13.2117 22.6262 12.7529 22.6249 12.2944C22.624 11.971 22.6235 11.8093 22.5371 11.722C22.4507 11.6347 22.2477 11.632 21.8416 11.6266C21.2143 11.6183 20.5895 11.3753 20.1101 10.8974L19.9869 10.7747L19.9869 10.7746C19.8623 10.6505 19.8 10.5884 19.7231 10.5675C19.6462 10.5467 19.5542 10.5706 19.3703 10.6185C18.9194 10.7358 18.4468 10.7983 17.9607 10.7983C14.8758 10.7983 12.375 8.29745 12.375 5.21255C12.375 4.54172 12.4933 3.89852 12.7101 3.30264C12.8722 2.85707 12.9532 2.63429 12.8645 2.50663ZM8.375 15.877C7.96079 15.877 7.625 15.5412 7.625 15.127C7.625 14.7127 7.96079 14.377 8.375 14.377H15.375C15.7892 14.377 16.125 14.7127 16.125 15.127C16.125 15.5412 15.7892 15.877 15.375 15.877H8.375ZM8.375 10.877C7.96079 10.877 7.625 10.5412 7.625 10.127C7.625 9.71274 7.96079 9.37695 8.375 9.37695H11.875C12.2892 9.37695 12.625 9.71274 12.625 10.127C12.625 10.5412 12.2892 10.877 11.875 10.877H8.375Z" fill="#141B34"/>
<path fill-rule="evenodd" clip-rule="evenodd" d="M13.875 5.21255C13.875 2.95607 15.7042 1.12683 17.9607 1.12683C20.2172 1.12683 22.0464 2.95607 22.0464 5.21255C22.0464 5.97908 21.8353 6.69632 21.4681 7.30929L22.581 8.41859C22.9721 8.80849 22.9731 9.44165 22.5832 9.8328C22.1933 10.224 21.5602 10.225 21.169 9.83507L20.053 8.72261C19.441 9.08819 18.7254 9.29826 17.9607 9.29826C15.7042 9.29826 13.875 7.46902 13.875 5.21255ZM19.4332 6.68965C19.812 6.31203 20.0464 5.78966 20.0464 5.21255C20.0464 4.06064 19.1126 3.12683 17.9607 3.12683C16.8088 3.12683 15.875 4.06064 15.875 5.21255C15.875 6.36445 16.8088 7.29826 17.9607 7.29826C18.5355 7.29826 19.056 7.06575 19.4332 6.68965Z" fill="#141B34"/>
</svg>
