<svg width="25" height="24" viewBox="0 0 25 24" fill="none" xmlns="http://www.w3.org/2000/svg">
<path fill-rule="evenodd" clip-rule="evenodd" d="M6.82039 18.1679C7.21091 18.5584 7.21091 19.1916 6.82039 19.5821L4.82039 21.5821C4.42986 21.9726 3.7967 21.9726 3.40617 21.5821C3.01565 21.1916 3.01565 20.5584 3.40617 20.1679L5.40617 18.1679C5.7967 17.7774 6.42986 17.7774 6.82039 18.1679ZM17.4062 18.1679C17.7967 17.7774 18.4299 17.7774 18.8204 18.1679L20.8204 20.1679C21.2109 20.5584 21.2109 21.1916 20.8204 21.5821C20.4299 21.9726 19.7967 21.9726 19.4062 21.5821L17.4062 19.5821C17.0156 19.1916 17.0156 18.5584 17.4062 18.1679Z" fill="#141B34"/>
<path fill-rule="evenodd" clip-rule="evenodd" d="M11.5829 2.125C9.55299 2.125 7.92742 2.27561 6.74596 3.18141C5.54313 4.10359 5.01963 5.63128 4.61934 7.66806L4.06579 10.4846C3.71208 12.2842 3.42536 13.7429 3.37231 14.9027C3.31701 16.1114 3.50371 17.1794 4.27079 18.0612C5.03138 18.9356 6.08109 19.2955 7.32022 19.4626C8.52547 19.625 10.089 19.625 12.0391 19.625H12.1874C14.1375 19.625 15.7011 19.625 16.9063 19.4626C18.1455 19.2955 19.1952 18.9356 19.9558 18.0612C20.7228 17.1794 20.9096 16.1114 20.8543 14.9027C20.8012 13.7429 20.5145 12.2842 20.1608 10.4846L19.6072 7.66805C19.2069 5.63128 18.6834 4.10359 17.4806 3.18141C16.2991 2.27561 14.6736 2.125 12.6436 2.125H11.5829ZM6.52775 8.04292C6.92585 6.01726 7.3538 5.16579 7.92949 4.72442C8.52655 4.26667 9.50659 4.06934 11.5834 4.06934H12.6441C14.7209 4.06934 15.7009 4.26667 16.298 4.72442C16.8737 5.16579 17.3016 6.01726 17.6997 8.04292L17.8416 8.76486C17.8755 8.93752 17.8168 9.11643 17.6818 9.22927C14.6552 11.7587 9.96739 11.7762 6.57789 9.16539C6.4321 9.0531 6.36588 8.86653 6.40137 8.68597L6.52775 8.04292ZM9.11328 13.875C8.561 13.875 8.11328 14.3227 8.11328 14.875C8.11328 15.4273 8.561 15.875 9.11328 15.875H9.12224C9.67453 15.875 10.1222 15.4273 10.1222 14.875C10.1222 14.3227 9.67453 13.875 9.12224 13.875H9.11328ZM15.1043 13.875C14.552 13.875 14.1043 14.3227 14.1043 14.875C14.1043 15.4273 14.552 15.875 15.1043 15.875H15.1133C15.6656 15.875 16.1133 15.4273 16.1133 14.875C16.1133 14.3227 15.6656 13.875 15.1133 13.875H15.1043Z" fill="#141B34"/>
</svg>
