<svg width="24" height="24" viewBox="0 0 24 24" fill="none" xmlns="http://www.w3.org/2000/svg">
<path fill-rule="evenodd" clip-rule="evenodd" d="M7.07253 4.80336C8.72435 4.00801 10.6163 4.03231 12.7562 5.12286C12.5487 5.46846 12.3299 5.86219 12.0888 6.2963L12.0637 6.34138L11.5309 7.30044C11.3763 7.2262 11.2004 7.15786 10.9972 7.1311C10.5371 7.07052 10.0717 7.19522 9.70349 7.47776C9.53303 7.60856 9.41144 7.76392 9.31213 7.91171C9.21969 8.04924 9.12128 8.21972 9.01415 8.4053L8.49239 9.30902C8.38524 9.49458 8.28681 9.66504 8.21392 9.81386C8.13559 9.97376 8.06183 10.1567 8.03379 10.3698C7.97321 10.8299 8.09791 11.2953 8.38045 11.6635C8.51125 11.834 8.66661 11.9556 8.81439 12.0549C8.95193 12.1473 9.12241 12.2457 9.30798 12.3528L9.34568 12.3746C9.53124 12.4818 9.70171 12.5802 9.85052 12.6531C10.0104 12.7314 10.1934 12.8052 10.4064 12.8332C10.8666 12.8938 11.332 12.7691 11.7002 12.4866C11.8706 12.3558 11.9922 12.2004 12.0915 12.0526C12.184 11.9151 12.2824 11.7446 12.3895 11.5591L12.3895 11.559L12.9004 10.6741L12.9113 10.6553L12.9113 10.6552C13.0184 10.4697 13.1169 10.2993 13.1897 10.1505C13.2681 9.99055 13.3418 9.80757 13.3699 9.59455C13.4305 9.13439 13.3058 8.66902 13.0232 8.3008C12.9582 8.21609 12.8871 8.14345 12.814 8.07961L13.3749 7.06988C13.6384 6.59567 13.853 6.21043 14.0417 5.89563C15.7758 7.12138 16.6194 8.62006 16.736 10.3014C16.8653 12.1661 16.0856 14.1045 15.0153 15.9264C13.944 17.7502 12.6276 19.3784 10.9275 20.197C9.16616 21.0451 7.13189 20.9613 4.81497 19.6466C2.49864 18.3322 1.39841 16.6369 1.26403 14.699C1.13472 12.8343 1.91439 10.8959 2.98468 9.07398C4.05603 7.25023 5.37246 5.62195 7.07253 4.80336ZM11.8831 9.39551C11.8906 9.33192 11.8735 9.26786 11.8352 9.21655C11.8297 9.21126 11.8082 9.19177 11.7526 9.15441C11.6627 9.09402 11.5375 9.02124 11.3268 8.89962C11.1162 8.77801 10.9905 8.70593 10.8933 8.65831C10.8331 8.62884 10.8055 8.61992 10.7982 8.61786C10.7346 8.61034 10.6705 8.6275 10.6192 8.66581C10.6139 8.67125 10.5945 8.6928 10.5571 8.74839C10.4967 8.83825 10.4239 8.9635 10.3023 9.17414L9.80231 10.0402C9.6807 10.2508 9.60862 10.3765 9.561 10.4737C9.53153 10.5338 9.52261 10.5615 9.52055 10.5688C9.51302 10.6324 9.53019 10.6965 9.5685 10.7478C9.57394 10.7531 9.59549 10.7725 9.65108 10.8099C9.74093 10.8703 9.86619 10.9431 10.0768 11.0647C10.2875 11.1863 10.4131 11.2584 10.5104 11.306C10.5705 11.3355 10.5982 11.3444 10.6055 11.3464C10.6691 11.354 10.7331 11.3368 10.7844 11.2985C10.7897 11.2931 10.8092 11.2715 10.8466 11.2159C10.907 11.1261 10.9797 11.0008 11.1013 10.7902L11.6013 9.92414C11.723 9.7135 11.795 9.58784 11.8427 9.49062C11.8721 9.43046 11.8811 9.40281 11.8831 9.39551Z" fill="#141B34"/>
<path d="M20.4212 5.84915L18.2996 4.57624C17.5554 4.12975 16.9312 3.75522 16.3962 3.5267C15.8298 3.28481 15.2558 3.15756 14.6418 3.32855C14.0306 3.49873 13.6002 3.90306 13.2304 4.4011C13.0756 4.60946 12.9194 4.8513 12.7563 5.12286C12.8982 5.19514 13.0411 5.27211 13.1851 5.35383C13.4918 5.52786 13.7772 5.70857 14.0418 5.89563C14.1842 5.65811 14.3119 5.46068 14.4346 5.29539C14.7086 4.92638 14.8879 4.81707 15.0441 4.77358C15.1974 4.73091 15.3986 4.7317 15.807 4.90615C16.2359 5.08933 16.7716 5.4088 17.5733 5.88979L19.6495 7.13541C20.7132 7.77361 22.0597 7.38243 22.6559 6.30942C22.857 5.94733 22.7266 5.49073 22.3645 5.28956C22.0024 5.08839 21.5458 5.21883 21.3446 5.58092C21.1464 5.93775 20.7334 6.03647 20.4212 5.84915Z" fill="#141B34"/>
</svg>
