<svg width="24" height="24" viewBox="0 0 24 24" fill="none" xmlns="http://www.w3.org/2000/svg">
<path fill-rule="evenodd" clip-rule="evenodd" d="M7.34289 7.04652C7.2761 6.70419 7.24635 6.36394 7.25058 6.02983C7.2502 6.01993 7.25 6.00999 7.25 6C7.25 5.9786 7.2509 5.95741 7.25265 5.93646C7.33289 3.4051 9.36159 1.25 12 1.25C14.6384 1.25 16.6671 3.4051 16.7473 5.93647C16.7491 5.95741 16.75 5.9786 16.75 6C16.75 6.00999 16.7498 6.01993 16.7494 6.02982C16.7537 6.36394 16.7239 6.70419 16.6571 7.04652L16.2366 9.20188C15.8366 11.252 14.0732 12.75 12 12.75C9.92685 12.75 8.16339 11.252 7.7634 9.20188L7.34289 7.04652ZM8.81513 6.75929L8.81333 6.75H15.1867L15.1849 6.75928L14.7644 8.91464C14.4969 10.2855 13.3302 11.25 12 11.25C10.6698 11.25 9.5031 10.2855 9.23564 8.91464L8.81513 6.75929Z" fill="#141B34"/>
<path d="M18.0546 14.4982C19.052 14.9048 19.8282 15.3792 20.4305 16.1068C21.7301 17.6768 21.7393 19.8053 21.7477 21.7546C21.7501 22.3041 21.3059 22.7512 20.7563 22.7512H3.24139C2.69184 22.7512 2.24764 22.3041 2.25001 21.7546C2.25841 19.8053 2.26758 17.6768 3.5672 16.1068C4.1695 15.3792 4.94571 14.9048 5.94313 14.4982C6.86743 14.1215 7.8252 13.8219 8.79072 13.5524C9.23512 13.4284 9.24894 13.2805 9.24916 12.8361L9.24918 11.501C9.24918 11.0868 9.58496 10.751 9.99918 10.751C10.4134 10.751 10.7492 11.0868 10.7492 11.501V12.7828C10.7492 13.2985 10.7551 13.5485 10.8229 13.7773C10.8556 13.8873 10.9087 14.0094 11.0122 14.1616C11.1402 14.3499 11.2043 14.4441 11.2264 14.516C11.2485 14.5878 11.2485 14.672 11.2485 14.8404V17.996C11.2485 18.4102 11.5843 18.746 11.9985 18.746C12.4127 18.746 12.7485 18.4102 12.7485 17.996V14.8441C12.7485 14.6772 12.7485 14.5938 12.7699 14.523C12.7914 14.4521 12.8559 14.3553 12.9848 14.1618C13.0725 14.0303 13.1439 13.8891 13.1874 13.7341C13.244 13.5163 13.2492 13.2663 13.2492 12.7828V11.501C13.2492 11.0868 13.585 10.751 13.9992 10.751C14.4134 10.751 14.7492 11.0868 14.7492 11.501L14.7492 12.8361C14.7494 13.2706 14.7515 13.4296 15.1862 13.56C15.3344 13.6044 15.4828 13.6483 15.6311 13.6923C16.4473 13.934 17.2636 14.1758 18.0546 14.4982Z" fill="#141B34"/>
</svg>
