<svg width="24" height="24" viewBox="0 0 24 24" fill="none" xmlns="http://www.w3.org/2000/svg">
<path fill-rule="evenodd" clip-rule="evenodd" d="M5.875 1C6.42728 1 6.875 1.44772 6.875 2V4C6.875 4.55228 6.42728 5 5.875 5C5.32272 5 4.875 4.55228 4.875 4V2C4.875 1.44772 5.32272 1 5.875 1ZM10.875 1C11.4273 1 11.875 1.44772 11.875 2V4C11.875 4.55228 11.4273 5 10.875 5C10.3227 5 9.875 4.55228 9.875 4V2C9.875 1.44772 10.3227 1 10.875 1ZM15.875 1C16.4273 1 16.875 1.44772 16.875 2V4C16.875 4.55228 16.4273 5 15.875 5C15.3227 5 14.875 4.55228 14.875 4V2C14.875 1.44772 15.3227 1 15.875 1Z" fill="#141B34"/>
<path fill-rule="evenodd" clip-rule="evenodd" d="M12.4303 2.25H9.31877H9.31876C7.71618 2.24998 6.4372 2.24997 5.43413 2.38483C4.39786 2.52415 3.54445 2.81966 2.86931 3.4948C2.19417 4.16994 1.89867 5.02335 1.75934 6.05962C1.62448 7.06269 1.6245 8.34165 1.62451 9.94421V9.94424V15.0558V15.0558C1.6245 16.6584 1.62448 17.9373 1.75934 18.9404C1.89867 19.9767 2.19417 20.8301 2.86931 21.5052C3.54445 22.1803 4.39786 22.4758 5.43413 22.6152C6.43722 22.75 7.71618 22.75 9.31877 22.75L12.6189 22.75C12.6669 22.75 12.6909 22.75 12.7215 22.7435C12.8261 22.7215 12.8309 22.5863 12.7656 22.5016C12.7566 22.49 12.748 22.479 12.7397 22.4687C12.7044 22.4249 12.6552 22.3953 12.6017 22.3779C11.5988 22.0521 10.8745 21.1113 10.8745 19.9999C10.8745 18.6192 11.9938 17.4999 13.3745 17.4999C13.8017 17.4999 14.1087 17.5906 14.2332 17.6274C14.4367 17.6855 14.6523 17.7664 14.8753 17.8755L14.8754 17.8755C14.9604 17.9171 15.003 17.9379 15.0351 17.9456C15.1295 17.9683 15.2112 17.9508 15.2881 17.8915C15.3143 17.8714 15.3415 17.8388 15.396 17.7735L15.396 17.7735C16.0189 17.0267 16.7723 16.2034 17.5975 15.4797C18.2106 14.942 18.9456 14.3857 19.7675 13.974L19.7675 13.974C19.9455 13.8849 20.0345 13.8403 20.0793 13.7678C20.124 13.6954 20.124 13.6015 20.124 13.4137L20.1245 9.94426C20.1245 8.34166 20.1245 7.0627 19.9897 6.05961C19.8504 5.02335 19.5549 4.16994 18.8797 3.4948C18.2046 2.81966 17.3512 2.52415 16.3149 2.38483C15.3118 2.24997 14.0329 2.24998 12.4303 2.25H12.4303ZM6.87451 9.25C6.4603 9.25 6.12451 9.58579 6.12451 10C6.12451 10.4142 6.4603 10.75 6.87451 10.75H14.8745C15.2887 10.75 15.6245 10.4142 15.6245 10C15.6245 9.58579 15.2887 9.25 14.8745 9.25H6.87451ZM6.87451 14.25C6.4603 14.25 6.12451 14.5858 6.12451 15C6.12451 15.4142 6.4603 15.75 6.87451 15.75H10.8745C11.2887 15.75 11.6245 15.4142 11.6245 15C11.6245 14.5858 11.2887 14.25 10.8745 14.25H6.87451Z" fill="#141B34"/>
<path d="M22.3176 15.6664C22.502 16.187 22.2294 16.7585 21.7088 16.9429C21.1752 17.1319 20.5587 17.5388 19.9057 18.1115C19.263 18.6751 18.6378 19.3521 18.0841 20.0159C17.5322 20.6774 17.0635 21.3111 16.7324 21.7801C16.5672 22.0141 16.307 22.4044 16.2191 22.5365C16.0258 22.8406 15.6837 23.0174 15.3239 22.999C14.9639 22.9805 14.6418 22.7698 14.4806 22.4475C14.0399 21.5661 13.6446 21.2152 13.4453 21.0823C13.361 21.0261 13.304 21.0036 13.2814 20.9959C12.773 20.9487 12.375 20.521 12.375 20.0003C12.375 19.448 12.8227 19.0003 13.375 19.0003C13.6094 19.0003 13.7184 19.0405 13.8216 19.07C14.0295 19.1294 14.2803 19.2353 14.5547 19.4182C14.829 19.6011 15.1166 19.8538 15.4054 20.1997C15.7206 19.7689 16.109 19.2613 16.5483 18.7347C17.1416 18.0235 17.84 17.2629 18.587 16.6078C19.3236 15.9618 20.163 15.3686 21.0412 15.0576C21.5618 14.8733 22.1332 15.1458 22.3176 15.6664Z" fill="#141B34"/>
</svg>
