<svg width="24" height="24" viewBox="0 0 24 24" fill="none" xmlns="http://www.w3.org/2000/svg">
<path d="M15.53 8.46979C15.6708 8.61064 15.7499 8.80174 15.7497 9.00093C15.7483 10.2327 15.7379 11.2307 15.6291 12.0368C15.5181 12.8589 15.2965 13.5555 14.8226 14.1498C14.6242 14.3986 14.3985 14.6243 14.1497 14.8227C13.5554 15.2967 12.8588 15.5182 12.0367 15.6292C11.2306 15.738 10.2326 15.7485 9.00081 15.7498C8.80161 15.75 8.61052 15.671 8.46967 15.5301C8.32882 15.3893 8.24979 15.1982 8.25 14.999C8.25132 13.7672 8.26175 12.7692 8.37058 11.9631C8.48158 11.141 8.70311 10.4444 9.17704 9.85012C9.37546 9.60131 9.60119 9.37558 9.85 9.17716C10.4443 8.70324 11.1409 8.4817 11.963 8.37071C12.7691 8.26187 13.7671 8.25145 14.9988 8.25012C15.198 8.24991 15.3891 8.32894 15.53 8.46979Z" fill="#141B34"/>
<path d="M8.54731 1.25C9.91541 1.24999 11.0075 1.24998 11.8745 1.35043C12.7675 1.45389 13.5167 1.67232 14.1498 2.17722C14.3986 2.37563 14.6244 2.60136 14.8228 2.85017C15.3277 3.48329 15.5461 4.23254 15.6496 5.12547C15.6846 5.42793 15.7074 5.75777 15.7223 6.11718C15.7337 6.39446 15.7395 6.5331 15.6872 6.6134C15.6627 6.65103 15.6465 6.668 15.6099 6.69407C15.5319 6.74967 15.3537 6.74986 14.9974 6.75025C13.7881 6.75155 12.6859 6.75963 11.7624 6.88432C10.7908 7.01549 9.79877 7.29966 8.91488 8.00454C8.57827 8.27298 8.27286 8.57839 8.00442 8.91501C7.29954 9.79889 7.01537 10.7909 6.88419 11.7625C6.75951 12.686 6.75142 13.7882 6.75012 14.9975C6.74974 15.3537 6.74955 15.5319 6.69397 15.6099C6.6679 15.6465 6.6509 15.6627 6.61324 15.6873C6.53295 15.7395 6.39435 15.7337 6.11714 15.7223C5.75775 15.7074 5.42792 15.6846 5.12547 15.6496C4.23254 15.5461 3.48329 15.3277 2.85017 14.8228C2.60136 14.6244 2.37563 14.3986 2.17722 14.1498C1.67232 13.5167 1.45389 12.7675 1.35043 11.8745C1.24998 11.0075 1.24999 9.91539 1.25 8.54729V8.45269C1.24999 7.08459 1.24998 5.99249 1.35043 5.12547C1.45389 4.23254 1.67232 3.48329 2.17722 2.85017C2.37563 2.60136 2.60136 2.37563 2.85017 2.17722C3.48329 1.67232 4.23254 1.45389 5.12547 1.35043C5.99249 1.24998 7.08461 1.24999 8.45271 1.25H8.54731Z" fill="#141B34"/>
<path d="M18.8741 8.35046C19.767 8.45392 20.5162 8.67235 21.1494 9.17724C21.3982 9.37566 21.6239 9.60139 21.8223 9.85019C22.3272 10.4833 22.5456 11.2326 22.6491 12.1255C22.7496 12.9925 22.7495 14.0846 22.7495 15.4527V15.5473C22.7495 16.9154 22.7496 18.0075 22.6491 18.8746C22.5456 19.7675 22.3272 20.5167 21.8223 21.1499C21.6239 21.3987 21.3982 21.6244 21.1494 21.8228C20.5162 22.3277 19.767 22.5461 18.8741 22.6496C18.007 22.75 16.9149 22.75 15.5468 22.75H15.4523C14.0841 22.75 12.992 22.75 12.125 22.6496C11.2321 22.5461 10.4828 22.3277 9.8497 21.8228C9.6009 21.6244 9.37517 21.3987 9.17675 21.1499C8.67186 20.5167 8.45342 19.7675 8.34997 18.8746C8.31493 18.5721 8.29211 18.2423 8.27725 17.8829C8.26579 17.6057 8.26006 17.4671 8.31229 17.3868C8.33679 17.3491 8.35307 17.3322 8.38966 17.3061C8.46766 17.2505 8.6458 17.2503 9.0021 17.2499C10.2114 17.2486 11.3135 17.2405 12.237 17.1159C13.2086 16.9847 14.2007 16.7005 15.0846 15.9956C15.4212 15.7272 15.7266 15.4218 15.995 15.0852C16.6999 14.2013 16.9841 13.2092 17.1153 12.2376C17.2399 11.3141 17.248 10.212 17.2493 9.00269C17.2497 8.64631 17.2499 8.46812 17.3055 8.39011C17.3316 8.35356 17.3485 8.33729 17.3862 8.3128C17.4665 8.26055 17.6051 8.26628 17.8824 8.27774C18.2418 8.2926 18.5716 8.31542 18.8741 8.35046Z" fill="#141B34"/>
</svg>
