<svg width="25" height="24" viewBox="0 0 25 24" fill="none" xmlns="http://www.w3.org/2000/svg">
<path fill-rule="evenodd" clip-rule="evenodd" d="M3.27539 21C3.27539 20.4477 3.72311 20 4.27539 20H22.2754C22.8277 20 23.2754 20.4477 23.2754 21C23.2754 21.5523 22.8277 22 22.2754 22H4.27539C3.72311 22 3.27539 21.5523 3.27539 21Z" fill="#141B34"/>
<path fill-rule="evenodd" clip-rule="evenodd" d="M9.93841 12.25H16.6124H16.6124C17.3649 12.25 17.9846 12.25 18.479 12.2986C18.9892 12.3487 19.4636 12.4575 19.8764 12.743C20.3202 13.05 20.6645 13.48 20.8655 13.9805C21.0529 14.4471 21.0513 14.9332 20.9839 15.4388C20.9186 15.9281 20.777 16.5271 20.6055 17.2527L20.6055 17.2527L20.5892 17.3214C20.4189 18.0421 20.2805 18.6275 20.1275 19.0976C19.9687 19.5851 19.7781 20.003 19.4755 20.3711C19.1289 20.7929 18.6943 21.1343 18.2021 21.3721C17.773 21.5794 17.321 21.6678 16.8074 21.7096C16.3116 21.75 15.7058 21.75 14.9588 21.75H11.592C10.845 21.75 10.2392 21.75 9.74339 21.7096C9.22979 21.6678 8.7778 21.5794 8.34873 21.3721C7.85653 21.1343 7.4219 20.7929 7.07531 20.3711C6.77275 20.003 6.5821 19.5851 6.42338 19.0976C6.27035 18.6275 6.13197 18.0421 5.96163 17.3215L5.94536 17.2527C5.77381 16.527 5.63222 15.9281 5.56698 15.4388C5.49957 14.9332 5.49794 14.4471 5.68536 13.9805C5.88638 13.48 6.23061 13.05 6.67444 12.743C7.0872 12.4575 7.56163 12.3487 8.0718 12.2986C8.56627 12.25 9.18597 12.25 9.93839 12.25H9.93841ZM12.2754 15.25C11.8612 15.25 11.5254 15.5858 11.5254 16C11.5254 16.4142 11.8612 16.75 12.2754 16.75H14.2754C14.6896 16.75 15.0254 16.4142 15.0254 16C15.0254 15.5858 14.6896 15.25 14.2754 15.25H12.2754Z" fill="#141B34"/>
<path fill-rule="evenodd" clip-rule="evenodd" d="M16.6574 11.4248C15.0899 9.14427 11.4433 9.23709 9.88746 11.4335C9.64803 11.7715 9.17993 11.8514 8.84193 11.612C8.50392 11.3726 8.42401 10.9045 8.66344 10.5665C10.7845 7.5722 15.6985 7.38166 17.8935 10.5752C18.1282 10.9165 18.0416 11.3835 17.7003 11.6181C17.3589 11.8527 16.892 11.7662 16.6574 11.4248Z" fill="#141B34"/>
<path fill-rule="evenodd" clip-rule="evenodd" d="M13.2755 3.75C12.5851 3.75 12.0255 4.30964 12.0255 5C12.0255 5.69036 12.5851 6.25 13.2755 6.25C13.9658 6.25 14.5255 5.69036 14.5255 5C14.5255 4.30964 13.9658 3.75 13.2755 3.75ZM10.5255 5C10.5255 3.48122 11.7567 2.25 13.2755 2.25C14.7942 2.25 16.0255 3.48122 16.0255 5C16.0255 6.51878 14.7942 7.75 13.2755 7.75C11.7567 7.75 10.5255 6.51878 10.5255 5Z" fill="#141B34"/>
</svg>
