<svg width="25" height="24" viewBox="0 0 25 24" fill="none" xmlns="http://www.w3.org/2000/svg">
<path fill-rule="evenodd" clip-rule="evenodd" d="M10.1981 9.26553C10.1373 9.25 10.0487 9.25 9.8716 9.25H7.18217H7.18215C6.28075 9.24999 5.54378 9.24997 4.95238 9.31405C3.30868 9.49213 2.21335 10.6148 2.03858 12.2278C1.97451 12.8192 1.97452 13.5562 1.97454 14.4576C1.97454 14.5785 1.97407 14.6996 1.9736 14.8208C1.97108 15.4716 1.96854 16.1257 2.03858 16.7722C2.21667 18.4159 3.33929 19.5112 4.95238 19.686C5.54379 19.75 6.28077 19.75 7.1822 19.75H18.2669C19.1683 19.75 19.9053 19.75 20.4967 19.686C22.1404 19.5079 23.2357 18.3852 23.4105 16.7722C23.4805 16.1257 23.478 15.4716 23.4755 14.8208C23.475 14.6996 23.4745 14.5785 23.4745 14.4576C23.4745 14.3356 23.4753 14.2119 23.4761 14.0872C23.4854 12.5578 23.4957 10.8594 22.1348 9.8707L22.1205 9.86032C22.0142 9.78419 21.8745 9.86935 21.8745 10.0001C21.8745 13.1205 19.3449 15.6501 16.2245 15.6501C13.1041 15.6501 10.5745 13.1205 10.5745 10.0001C10.5745 9.7915 10.5745 9.68721 10.559 9.62636C10.5097 9.43343 10.3911 9.31476 10.1981 9.26553ZM5.72449 12C5.1722 12 4.72449 12.4477 4.72449 13C4.72449 13.5523 5.1722 14 5.72449 14H5.73347C6.28575 14 6.73347 13.5523 6.73347 13C6.73347 12.4477 6.28575 12 5.73347 12H5.72449Z" fill="#141B34"/>
<path d="M16.2246 5.75C13.8774 5.75 11.9746 7.65279 11.9746 10C11.9746 12.3472 13.8774 14.25 16.2246 14.25C18.5718 14.25 20.4746 12.3472 20.4746 10C20.4746 7.65279 18.5718 5.75 16.2246 5.75Z" fill="#141B34"/>
<path fill-rule="evenodd" clip-rule="evenodd" d="M7.67204 18.1058C8.16602 18.3528 8.36625 18.9535 8.11926 19.4474L6.61926 22.4474C6.37227 22.9414 5.77159 23.1416 5.27761 22.8946C4.78364 22.6477 4.58341 22.047 4.8304 21.553L6.3304 18.553C6.57739 18.059 7.17806 17.8588 7.67204 18.1058Z" fill="#141B34"/>
<path fill-rule="evenodd" clip-rule="evenodd" d="M17.7772 18.1058C17.2832 18.3528 17.083 18.9535 17.33 19.4474L18.83 22.4474C19.077 22.9414 19.6776 23.1416 20.1716 22.8946C20.6656 22.6477 20.8658 22.047 20.6188 21.553L19.1188 18.553C18.8718 18.059 18.2712 17.8588 17.7772 18.1058Z" fill="#141B34"/>
<path fill-rule="evenodd" clip-rule="evenodd" d="M16.2246 1C16.7769 1 17.2246 1.44772 17.2246 2V4C17.2246 4.55228 16.7769 5 16.2246 5C15.6723 5 15.2246 4.55228 15.2246 4V2C15.2246 1.44772 15.6723 1 16.2246 1ZM11.5175 3.29289C11.908 2.90237 12.5412 2.90237 12.9317 3.29289L13.9317 4.29289C14.3222 4.68342 14.3222 5.31658 13.9317 5.70711C13.5412 6.09763 12.908 6.09763 12.5175 5.70711L11.5175 4.70711C11.127 4.31658 11.127 3.68342 11.5175 3.29289ZM19.5175 3.29289C19.908 2.90237 20.5412 2.90237 20.9317 3.29289C21.3222 3.68342 21.3222 4.31658 20.9317 4.70711L19.9317 5.70711C19.5412 6.09763 18.908 6.09763 18.5175 5.70711C18.127 5.31658 18.127 4.68342 18.5175 4.29289L19.5175 3.29289Z" fill="#141B34"/>
</svg>
