<svg width="24" height="24" viewBox="0 0 24 24" fill="none" xmlns="http://www.w3.org/2000/svg">
<path d="M2.61408 11.4754C2.96556 11.3986 3.3649 11.375 3.78639 11.375H17.9635C18.385 11.375 18.7843 11.3986 19.1358 11.4754C19.4874 11.5522 19.8506 11.695 20.1372 11.9787C20.7469 12.5821 20.6868 13.4609 20.4816 14.2878C20.0855 15.8838 19.3143 16.8916 18.4188 17.7275C18.0469 18.0746 17.6467 18.398 17.259 18.7114L17.2589 18.7115C16.8368 19.054 16.232 19.5532 15.8293 19.9483L16.0444 20.4359C16.1098 20.5918 16.2049 20.8423 16.2051 21.1236C16.2054 21.4799 16.1192 21.814 15.9246 22.0983C15.7318 22.3798 15.4719 22.5553 15.2196 22.6638C14.7501 22.8657 14.2051 22.875 13.8603 22.875H7.88955C7.54484 22.875 6.99978 22.8657 6.5303 22.6638C6.27804 22.5553 6.01807 22.3798 5.82531 22.0983C5.63072 21.814 5.54448 21.4799 5.54476 21.1236C5.54498 20.8489 5.63645 20.6006 5.69888 20.4463L5.9128 19.9407C5.5125 19.5487 4.91037 19.0518 4.49103 18.7115C4.10329 18.3981 3.703 18.0746 3.33109 17.7275C2.43564 16.8916 1.66443 15.8838 1.26832 14.2878C1.0631 13.4609 1.00304 12.5821 1.61269 11.9787C1.89934 11.695 2.2625 11.5522 2.61408 11.4754Z" fill="#141B34"/>
<path fill-rule="evenodd" clip-rule="evenodd" d="M7.69655 5.09182C5.76997 5.21176 4.22824 7.00675 4.3937 8.93754C3.19878 9.49915 2.37524 10.7177 2.37524 12.125C2.37524 12.6773 2.82296 13.125 3.37524 13.125C3.92753 13.125 4.37524 12.6773 4.37524 12.125C4.37524 11.3405 4.96202 10.7022 5.70383 10.6174C6.01986 10.5813 6.29987 10.397 6.45801 10.121C6.61614 9.84505 6.63355 9.51029 6.50489 9.21939C6.02351 8.13102 7.08329 6.87192 8.19815 7.11856C8.55018 7.19643 8.85974 7.40138 9.07377 7.68822C9.40405 8.13087 10.0306 8.22195 10.4733 7.89167C10.9159 7.56139 11.007 6.93481 10.6767 6.49217C10.4181 6.14554 10.0964 5.84775 9.72814 5.61643C10.4678 4.77867 12.1207 5.01203 12.3517 6.31653C12.3992 6.58493 12.5542 6.8223 12.7809 6.97371C13.0075 7.12512 13.2862 7.17743 13.5523 7.11856C14.4877 6.91164 15.3607 7.74118 15.3654 8.64679C15.0658 8.6891 14.766 8.77274 14.4726 8.90184C13.967 9.12424 13.7375 9.71435 13.9599 10.2199C14.1823 10.7254 14.7724 10.9549 15.2779 10.7325C16.2158 10.3199 17.3752 11.0545 17.3752 12.125C17.3752 12.6773 17.823 13.125 18.3752 13.125C18.9275 13.125 19.3752 12.6773 19.3752 12.125C19.3752 10.6896 18.5128 9.51699 17.3514 8.96148C17.5226 7.04379 16.0233 5.19616 14.0521 5.08779C12.8664 2.4694 8.87936 2.47074 7.69655 5.09182Z" fill="#141B34"/>
<path fill-rule="evenodd" clip-rule="evenodd" d="M22.5155 2.3568C22.9397 2.71037 22.9971 3.34093 22.6435 3.76521L17.6435 9.76521C17.2899 10.1895 16.6594 10.2468 16.2351 9.89325C15.8108 9.53968 15.7535 8.90912 16.107 8.48484L21.107 2.48484C21.4606 2.06056 22.0912 2.00324 22.5155 2.3568Z" fill="#141B34"/>
<path fill-rule="evenodd" clip-rule="evenodd" d="M18.3217 1.23079C18.8157 1.47778 19.0159 2.07845 18.7689 2.57243L16.7689 6.57243C16.5219 7.06641 15.9213 7.26664 15.4273 7.01965C14.9333 6.77266 14.7331 6.17198 14.9801 5.67801L16.9801 1.67801C17.227 1.18403 17.8277 0.983803 18.3217 1.23079Z" fill="#141B34"/>
</svg>
