<svg width="24" height="24" viewBox="0 0 24 24" fill="none" xmlns="http://www.w3.org/2000/svg">
<path d="M7.40833 2.07151C7.40366 2.15078 7.39085 2.36845 7.38619 2.49138C7.37669 2.74224 7.36962 3.0868 7.38049 3.45294C7.39118 3.81295 7.41995 4.22463 7.49084 4.59889C7.52634 4.78628 7.57681 4.98858 7.6526 5.18134C7.72456 5.36433 7.84456 5.60457 8.05403 5.80713C8.4274 6.16821 8.94544 6.27291 9.2464 6.31704C9.60585 6.36974 9.99361 6.3768 10.3274 6.36853C10.6676 6.36009 10.9854 6.33469 11.2159 6.31186C11.3285 6.3007 11.5287 6.27621 11.6025 6.26717L11.6089 6.26639C11.9823 6.21392 12.2948 5.9558 12.4165 5.59888C12.5382 5.24196 12.4488 4.84691 12.1853 4.57719L11.4678 3.84294C14.1724 2.27889 17.8533 3.33035 19.4812 6.57493C19.7289 7.06857 20.3298 7.26797 20.8234 7.0203C21.3171 6.77263 21.5165 6.17168 21.2688 5.67805C19.0889 1.33327 13.771 -0.191054 10.0261 2.36753L9.12113 1.44133C8.84651 1.16029 8.43276 1.06612 8.06356 1.20063C7.69437 1.33515 7.43815 1.67366 7.40869 2.06549L7.40833 2.07151Z" fill="#141B34"/>
<path d="M7.75174 11.0792C7.50852 10.9406 7.38691 10.8713 7.26783 10.9032C7.14875 10.9351 7.07808 11.056 6.93675 11.2976L6.93193 11.3058C6.47455 12.0878 6.74508 13.0888 7.53964 13.5416L8.45157 14.0613C8.66457 14.1827 8.73804 14.4524 8.61567 14.6637C8.49331 14.875 8.22144 14.9479 8.00844 14.8265L7.09651 14.3068C6.80432 14.1402 6.43171 14.2399 6.26435 14.5261C5.80696 15.3081 6.0775 16.309 6.87206 16.7618L7.78399 17.2815C7.99699 17.4029 8.07046 17.6726 7.94809 17.8839C7.82573 18.0952 7.55386 18.1681 7.34086 18.0467L6.42893 17.527C6.18783 17.3896 5.88159 17.5001 5.7854 17.7535L5.65716 18.0914C5.37318 18.8396 5.67823 19.6821 6.38162 20.083C7.37748 20.6505 9.44968 21.8307 10.05 22.1245C10.6471 22.4166 11.0901 22.5747 11.5091 22.6406C11.9794 22.7147 12.7563 22.6092 13.3975 22.4838C14.0383 22.3583 14.7257 22.4373 15.3152 22.7733C15.6901 22.987 16.1686 22.8598 16.3856 22.4888L19.4458 17.2567C19.9133 16.4575 20.147 16.0579 20.1234 15.7003C20.0997 15.3428 19.7159 14.8488 18.9483 13.8609C18.6574 13.4865 18.4144 13.0858 18.247 12.6757L15.951 7.05045C15.7103 6.50163 15.1229 6.17867 14.5204 6.26832C13.7322 6.3856 13.2291 7.14998 13.435 7.90357L14.0641 10.2069C14.1112 10.3792 14.049 10.5626 13.9065 10.6716C13.764 10.7807 13.5693 10.7938 13.4133 10.7048L4.32809 5.52742C3.78408 5.21739 3.08945 5.40224 2.7767 5.93695C2.46471 6.47037 2.64896 7.15346 3.1917 7.46276L9.11927 10.8409C9.33226 10.9623 9.40573 11.232 9.28337 11.4433C9.161 11.6546 8.88913 11.7274 8.67613 11.6061L7.75174 11.0792Z" fill="#141B34"/>
</svg>
