<svg width="24" height="24" viewBox="0 0 24 24" fill="none" xmlns="http://www.w3.org/2000/svg">
<path fill-rule="evenodd" clip-rule="evenodd" d="M19.4595 1.57214C20.2081 1.74408 20.9663 2.02526 21.4705 2.52946C21.9747 3.03366 22.2559 3.7919 22.4279 4.54052C22.6055 5.31387 22.6927 6.19913 22.7288 7.06913C22.8011 8.81165 22.6717 10.5922 22.588 11.5023C22.5359 12.0702 22.3035 12.5946 21.9406 13.0169C19.2313 16.1692 16.4228 19.0389 13.3563 21.7846C11.9532 23.0409 9.85825 23.0542 8.39712 21.9229C5.98744 20.0572 3.94283 18.0126 2.07709 15.6029C0.945789 14.1417 0.959114 12.0468 2.21543 10.6437C4.9611 7.57718 7.83082 4.76869 10.9831 2.05937C11.4053 1.6965 11.9298 1.46415 12.4977 1.41196C13.4078 1.32833 15.1884 1.19893 16.9309 1.27122C17.8009 1.30732 18.6861 1.39452 19.4595 1.57214ZM19 6.50031C19 5.67188 18.3284 5.00031 17.5 5.00031C16.6716 5.00031 16 5.67188 16 6.50031C16 7.32873 16.6716 8.00031 17.5 8.00031C18.3284 8.00031 19 7.32873 19 6.50031ZM14.5299 10.5308C14.823 10.2382 14.8234 9.7633 14.5308 9.47017C14.2381 9.17703 13.7632 9.17664 13.4701 9.46929L13.2527 9.68632C12.3222 9.19941 11.1475 9.33251 10.3636 10.1151C9.9463 10.5317 9.61938 11.0697 9.655 11.733C9.68929 12.3713 10.0517 12.9359 10.5564 13.4398C10.9524 13.8351 11.0529 14.0944 11.0635 14.2462C11.0719 14.3673 11.0336 14.5807 10.6881 14.9255C10.3909 15.2223 10.1553 15.2655 9.97835 15.246C9.76713 15.2227 9.49422 15.0913 9.19643 14.794C8.91097 14.509 8.79655 14.149 8.82372 13.8412C8.86014 13.4285 8.55518 13.0645 8.14257 13.0281C7.72996 12.9917 7.36595 13.2967 7.32953 13.7093C7.28304 14.236 7.40382 14.7762 7.67618 15.2537L7.47011 15.4594C7.17697 15.7521 7.17658 16.227 7.46923 16.5201C7.76189 16.8132 8.23676 16.8136 8.52989 16.521L8.72008 16.3311C9.04567 16.5415 9.41282 16.6927 9.81378 16.7369C10.5113 16.8139 11.181 16.5531 11.7479 15.9871C12.2667 15.4691 12.6097 14.8553 12.5598 14.1417C12.5121 13.4588 12.1146 12.8758 11.6162 12.3782C11.2265 11.9891 11.1584 11.7557 11.1528 11.6525C11.1486 11.5742 11.1725 11.4271 11.4234 11.1766C11.7907 10.8099 12.4087 10.8026 12.8033 11.1965C13.0689 11.4617 13.1535 11.8319 13.0644 12.1569C12.9548 12.5564 13.1898 12.969 13.5893 13.0786C13.9887 13.1881 14.4014 12.9531 14.511 12.5537C14.675 11.9556 14.6079 11.3072 14.3139 10.7465L14.5299 10.5308Z" fill="#141B34"/>
</svg>
