<svg width="24" height="24" viewBox="0 0 24 24" fill="none" xmlns="http://www.w3.org/2000/svg">
<path d="M11.5406 1.25001L11.5781 1.25002H15.4219L15.4594 1.25001C15.698 1.24994 15.947 1.24986 16.1537 1.27548C16.3899 1.30474 16.6995 1.38068 16.9457 1.62704C17.1955 1.87694 17.246 2.16745 17.2497 2.38811C17.253 2.57665 17.2214 2.79871 17.192 3.00625L17.1871 3.04068L17.131 3.43692C17.0642 3.90892 17.0061 4.32015 16.9152 4.65166C16.8176 5.00827 16.6642 5.34685 16.355 5.63042C16.2686 5.70969 16.1752 5.78247 16.0759 5.84808C15.7231 6.08113 15.3315 6.17132 14.9264 6.21193C14.5463 6.25004 14.0803 6.25002 13.5395 6.25H13.4605C12.9196 6.25002 12.4536 6.25004 12.0735 6.21193C11.6685 6.17132 11.2769 6.08113 10.9241 5.84808C10.8248 5.78247 10.7314 5.7097 10.645 5.63042C10.3358 5.34685 10.1824 5.00827 10.0847 4.65166C9.99391 4.32015 9.93574 3.90893 9.86897 3.43694L9.86375 3.40002L9.81289 3.04068L9.80801 3.00624C9.77854 2.7987 9.74702 2.57665 9.75023 2.38811C9.75398 2.16745 9.80445 1.87694 10.0542 1.62704C10.3005 1.38068 10.6101 1.30474 10.8462 1.27548C11.0529 1.24986 11.302 1.24994 11.5406 1.25001Z" fill="#141B34"/>
<path fill-rule="evenodd" clip-rule="evenodd" d="M10.327 9.11158L10.3275 9.11102L10.3275 9.11101C10.4093 9.02157 10.4913 8.93186 10.5734 8.84189L9.34516 14.6064C9.1108 14.8612 8.91227 15.0285 8.7552 15.1305C8.6736 15.1834 8.61235 15.2129 8.57025 15.2293L8.55391 15.2161C8.45493 15.1347 8.32602 14.9997 8.18109 14.8154C7.89195 14.4478 7.61052 13.9761 7.44345 13.5945C7.34677 13.3737 7.29788 13.2596 7.2695 13.1698C7.24801 13.1018 7.24909 13.0798 7.2503 13.0622C7.25145 13.0454 7.25311 13.0245 7.28337 12.9614C7.32367 12.8773 7.38768 12.7722 7.51442 12.5677C8.14653 11.5477 9.01251 10.5554 9.94057 9.53489C10.0682 9.39451 10.1973 9.25338 10.327 9.11158ZM8.89974 16.697C8.76973 16.7308 8.63606 16.7499 8.49981 16.7499C8.10243 16.7499 7.78168 16.5232 7.60105 16.3746C7.38819 16.1995 7.18409 15.9742 7.00209 15.7428C6.63737 15.2791 6.28929 14.6985 6.06935 14.196L6.03752 14.1237C5.88571 13.7795 5.7228 13.4102 5.75384 12.9592C5.78502 12.5062 5.99926 12.1627 6.19771 11.8445L6.23941 11.7775C6.95233 10.6271 7.90507 9.54367 8.83084 8.52569C8.96428 8.37895 9.09701 8.23373 9.22857 8.08978C9.39156 7.91144 9.55277 7.73506 9.71134 7.56017C9.96483 7.2806 10.0916 7.14082 10.2331 7.10257C10.359 7.06852 10.5533 7.12183 10.9157 7.23552L10.9163 7.23248C10.9533 7.24592 10.9902 7.25861 11.027 7.2706C11.037 7.27378 11.0472 7.27699 11.0575 7.28025C11.3223 7.36398 11.5791 7.41144 11.8144 7.44057C11.8143 7.44061 11.8143 7.44065 11.8142 7.4407C11.8599 7.44635 11.9047 7.45131 11.9486 7.45571C12.1429 7.47048 12.7085 7.50002 13.4162 7.50002H13.5833C14.0885 7.50008 14.6078 7.50014 15.0509 7.45571C15.5644 7.40423 15.8212 7.37848 15.9596 7.45697C15.9984 7.47903 16.0189 7.49397 16.0518 7.52427C16.1687 7.6321 16.2139 7.84419 16.3043 8.26839L18.1496 16.9293C18.2493 17.3969 18.3069 17.8583 18.1649 18.3215C18.0236 18.783 17.7182 19.1343 17.377 19.4678L14.7321 22.054C14.5814 22.2014 14.42 22.3594 14.2657 22.4745C14.0849 22.6094 13.832 22.75 13.4999 22.75C13.1679 22.75 12.915 22.6094 12.7342 22.4745C12.5799 22.3594 12.4184 22.2014 12.2677 22.054L12.2677 22.054L9.62283 19.4678C9.28169 19.1343 8.97632 18.783 8.83493 18.3215C8.693 17.8583 8.75062 17.3969 8.85024 16.9293L8.89974 16.697Z" fill="#141B34"/>
</svg>
