<svg width="24" height="24" viewBox="0 0 24 24" fill="none" xmlns="http://www.w3.org/2000/svg">
<path fill-rule="evenodd" clip-rule="evenodd" d="M3.78016 6.875L20.2199 6.875H20.2199C20.5119 6.87499 20.768 6.87498 20.9785 6.88935C21.1985 6.90436 21.434 6.93797 21.6644 7.03959C22.0522 7.21054 22.3488 7.47238 22.5339 7.81665C22.7121 8.14781 22.7549 8.49528 22.7496 8.79255C22.7442 9.08788 22.6901 9.37664 22.6362 9.61762C22.6058 9.75373 22.5021 10.1866 22.4868 10.2502L22.4853 10.2567L22.4832 10.2662C22.4001 10.6474 22.1416 10.9552 21.8031 11.1158C21.4336 11.2911 21.1928 11.6138 21.1306 11.9681L21.1134 12.0681C21.1065 12.108 21.1031 12.128 21.0969 12.1476C21.0471 12.3045 20.864 12.3949 20.7092 12.3391C20.6898 12.3321 20.6734 12.3235 20.6407 12.3063L20.6363 12.304L20.6363 12.304C20.4975 12.2313 20.3289 12.1429 20.1332 12.0467C19.5264 11.7482 18.6381 11.375 17.4994 11.375C16.3606 11.375 15.4725 11.7482 14.8658 12.0468C14.6701 12.1432 14.5015 12.2316 14.3628 12.3043C14.1388 12.4207 13.4877 12.6618 13.1902 12.7677C13.046 12.8211 12.5507 13.0046 12.1349 13.4436C11.765 13.8342 11.6041 14.2505 11.5262 14.5097C11.4692 14.6993 11.4253 14.9327 11.4077 15.0263C11.0568 16.8759 11.3003 18.7559 12.1611 20.3265L12.1611 20.3266C12.4367 20.8294 12.5745 21.0808 12.4873 21.2279C12.4002 21.375 12.134 21.375 11.6017 21.375H10.8848C9.54983 21.375 8.48171 21.375 7.63078 21.2749C6.75215 21.1715 6.01409 20.9531 5.38455 20.4521L5.38167 20.4498C4.54362 19.776 4.14201 18.795 3.90958 17.8901C3.75283 17.2799 3.65361 16.6058 3.56896 16.0307L2.86937 11.9681C2.80715 11.6138 2.56639 11.2911 2.19688 11.1158C1.85843 10.9552 1.59987 10.6474 1.51681 10.2662L1.51472 10.2567L1.51318 10.2502C1.49793 10.1866 1.39421 9.75373 1.36376 9.61762C1.30986 9.37663 1.25576 9.08787 1.25043 8.79255C1.24507 8.49528 1.28792 8.14781 1.46605 7.81665C1.65124 7.47238 1.94781 7.21054 2.33555 7.03959C2.56603 6.93797 2.80147 6.90436 3.02149 6.88935C3.23204 6.87498 3.48816 6.87499 3.78014 6.875H3.78016ZM10 10.875C9.58579 10.875 9.25 11.2108 9.25 11.625C9.25 12.0392 9.58579 12.375 10 12.375L12 12.375C12.4142 12.375 12.75 12.0392 12.75 11.625C12.75 11.2108 12.4142 10.875 12 10.875L10 10.875Z" fill="#141B34"/>
<path fill-rule="evenodd" clip-rule="evenodd" d="M10.4011 1.70885C10.9071 1.93022 11.1378 2.51985 10.9164 3.02583L7.41641 11.0258C7.19504 11.5318 6.60541 11.7625 6.09943 11.5412C5.59345 11.3198 5.36273 10.7302 5.5841 10.2242L9.0841 2.22419C9.30546 1.71821 9.89509 1.48749 10.4011 1.70885Z" fill="#141B34"/>
<path fill-rule="evenodd" clip-rule="evenodd" d="M14.553 1.73055C15.047 1.48356 15.6477 1.68378 15.8946 2.17776L18.3946 7.17776C18.6416 7.67174 18.4414 8.27241 17.9474 8.5194C17.4535 8.76639 16.8528 8.56617 16.6058 8.07219L14.1058 3.07219C13.8588 2.57821 14.059 1.97754 14.553 1.73055Z" fill="#141B34"/>
<path d="M15.527 13.3927C16.0525 13.1341 16.6965 12.875 17.4983 12.875C18.3001 12.875 18.9444 13.1341 19.47 13.3926C19.6484 13.4804 19.8028 13.5613 19.9432 13.6349C20.2534 13.7975 20.495 13.9241 20.7759 14.0092C20.9557 14.0637 21.1433 14.1205 21.2742 14.1692C21.3865 14.211 21.605 14.2955 21.7751 14.475C21.9251 14.6333 21.9959 14.8067 22.0364 14.9412C22.0697 15.0522 22.0978 15.2008 22.1176 15.3052C22.6751 18.2417 21.4472 21.081 18.4345 22.1768C18.1613 22.2763 17.8902 22.375 17.4997 22.375C17.1092 22.375 16.8381 22.2763 16.565 22.1768C13.5523 21.0811 12.323 18.242 12.8804 15.3052C12.9002 15.2008 12.9283 15.0523 12.9616 14.9413C13.0021 14.8068 13.0729 14.6334 13.2229 14.4751C13.3929 14.2956 13.6115 14.2111 13.7237 14.1693C13.8546 14.1206 14.0422 14.0637 14.222 14.0092C14.5027 13.9241 14.7441 13.7976 15.054 13.635C15.1943 13.5614 15.3486 13.4805 15.527 13.3927Z" fill="#141B34"/>
</svg>
