<svg width="24" height="24" viewBox="0 0 24 24" fill="none" xmlns="http://www.w3.org/2000/svg">
<path fill-rule="evenodd" clip-rule="evenodd" d="M20.4889 6.76803C21.8788 8.09544 22.75 9.94249 22.75 11.9912C22.75 14.0399 21.8788 15.887 20.4889 17.2144C20.0895 17.5958 19.4565 17.5813 19.0751 17.1819C18.6936 16.7825 18.7082 16.1495 19.1076 15.768C20.1295 14.7921 20.75 13.4572 20.75 11.9912C20.75 10.5252 20.1295 9.19029 19.1076 8.21439C18.7082 7.83295 18.6936 7.19996 19.0751 6.80055C19.4565 6.40115 20.0895 6.38659 20.4889 6.76803ZM18.1036 9.01803C18.8906 9.76961 19.3888 10.8212 19.3888 11.9912C19.3888 13.1613 18.8906 14.2128 18.1036 14.9644C17.7042 15.3458 17.0712 15.3313 16.6898 14.9319C16.3083 14.5325 16.3229 13.8995 16.7223 13.518C17.1412 13.118 17.3888 12.5785 17.3888 11.9912C17.3888 11.4039 17.1412 10.8645 16.7223 10.4644C16.3229 10.083 16.3083 9.44996 16.6898 9.05055C17.0712 8.65115 17.7042 8.63659 18.1036 9.01803ZM14.75 10.9908C15.3023 10.9908 15.75 11.4385 15.75 11.9908L15.75 11.9998C15.75 12.5521 15.3023 12.9998 14.75 12.9998C14.1977 12.9998 13.75 12.5521 13.75 11.9998L13.75 11.9908C13.75 11.4385 14.1977 10.9908 14.75 10.9908Z" fill="#141B34"/>
<path fill-rule="evenodd" clip-rule="evenodd" d="M11.1703 1.41553C11.1825 1.33623 11.1223 1.26427 11.0421 1.26258C10.4437 1.24999 9.78318 1.24999 9.056 1.25H9.05595H9.05589H8.94431H8.94426H8.9442C8.21859 1.24999 7.55925 1.24999 6.9619 1.2625C6.87997 1.26422 6.8183 1.33739 6.83005 1.41849C6.92881 2.01096 6.99345 2.39014 7.0752 2.66868C7.15175 2.92953 7.21979 3.01384 7.27289 3.06094C7.3313 3.11277 7.42225 3.16922 7.68652 3.20574C7.97588 3.24574 8.37089 3.24992 8.99995 3.24992C9.629 3.24992 10.024 3.24574 10.3134 3.20574C10.5776 3.16922 10.6686 3.11277 10.727 3.06094C10.7801 3.01384 10.8481 2.92953 10.9247 2.66868C11.0066 2.38967 11.0713 2.00969 11.1703 1.41553ZM5.05962 1.38505C5.19637 1.36667 5.32081 1.46348 5.3406 1.60003L5.34665 1.64173L5.3491 1.65746L5.35612 1.69961C5.44652 2.24219 5.52515 2.71416 5.63584 3.09132C5.75495 3.49714 5.93356 3.8782 6.27733 4.18321C6.63291 4.49868 7.04243 4.63121 7.4811 4.69184C7.89469 4.749 8.40509 4.75015 8.99989 4.75015C9.59469 4.75015 10.1051 4.749 10.5187 4.69184C10.9573 4.63121 11.3669 4.49868 11.7225 4.18321C12.0662 3.8782 12.2448 3.49714 12.3639 3.09132C12.4746 2.71416 12.5533 2.24219 12.6437 1.69962L12.6507 1.65747L12.6599 1.59788C12.6806 1.46236 12.8045 1.36679 12.9404 1.38505C13.9767 1.52438 14.8301 1.81988 15.5052 2.49502C16.1803 3.17016 16.4759 4.02357 16.6152 5.05984C16.6858 5.58512 16.7194 6.18605 16.7354 6.8695C16.7403 7.07608 16.7427 7.17938 16.6972 7.25439C16.6516 7.3294 16.5383 7.38493 16.3118 7.496C16.0544 7.6222 15.8145 7.79515 15.605 8.01455C15.2466 8.38981 15.0281 8.84757 14.9479 9.32342C14.9317 9.41948 14.8474 9.4908 14.75 9.4908C13.3693 9.4908 12.25 10.6101 12.25 11.9908V11.9998C12.25 13.3805 13.3693 14.4998 14.75 14.4998C14.848 14.4998 14.9328 14.5713 14.9494 14.6678C15.0308 15.1405 15.2488 15.5949 15.605 15.9678C15.8146 16.1873 16.0546 16.3603 16.3121 16.4865C16.5386 16.5975 16.6519 16.653 16.6974 16.728C16.743 16.803 16.7406 16.9063 16.7359 17.1129C16.72 17.8038 16.6864 18.4107 16.6152 18.9406C16.4759 19.9769 16.1803 20.8303 15.5052 21.5054C14.8301 22.1806 13.9767 22.4761 12.9404 22.6154C11.9373 22.7503 10.6583 22.7502 9.05575 22.7502H8.94426C7.34167 22.7502 6.0627 22.7503 5.05962 22.6154C4.02335 22.4761 3.16994 22.1806 2.4948 21.5054C1.81966 20.8303 1.52415 19.9769 1.38483 18.9406C1.24997 17.9375 1.24999 16.6586 1.25 15.056V15.056V15.056V8.94444V8.94443V8.94442C1.24999 7.34187 1.24997 6.06291 1.38483 5.05984C1.52415 4.02357 1.81966 3.17016 2.4948 2.49502C3.16994 1.81988 4.02335 1.52438 5.05962 1.38505ZM7.25 20C7.25 19.5858 7.58579 19.25 8 19.25H10C10.4142 19.25 10.75 19.5858 10.75 20C10.75 20.4142 10.4142 20.75 10 20.75H8C7.58579 20.75 7.25 20.4142 7.25 20Z" fill="#141B34"/>
</svg>
