<svg width="24" height="24" viewBox="0 0 24 24" fill="none" xmlns="http://www.w3.org/2000/svg">
<path d="M1.89284 12.5691C2.14719 12.4243 2.43193 12.374 2.70848 12.374H21.2916C21.5681 12.374 21.8529 12.4243 22.1072 12.5691C22.3747 12.7213 22.5587 12.9504 22.6583 13.2132C22.838 13.6872 22.7197 14.194 22.5927 14.5427C22.4535 14.9247 22.2356 15.3012 22.0049 15.6079C21.7903 15.8932 21.4957 16.2109 21.1663 16.3758L18.8054 17.5572C18.6809 17.6195 18.6122 17.6541 18.5615 17.6828C18.539 17.6955 18.5269 17.7034 18.5206 17.7077L18.5153 17.7115C18.241 17.9538 18.0636 18.2727 17.8121 18.7257L17.8116 18.7266C17.7715 18.799 17.7294 18.8748 17.6847 18.9543C17.3899 19.4786 16.9841 20.1415 16.2243 20.5485C15.8848 20.7303 15.5359 20.8062 15.1606 20.8412C14.8085 20.8741 14.3861 20.874 13.8905 20.874H10.1096C9.61393 20.874 9.19153 20.8741 8.83945 20.8412C8.46416 20.8062 8.11522 20.7303 7.77577 20.5485C7.01597 20.1415 6.61021 19.4786 6.31539 18.9543C6.27053 18.8745 6.2283 18.7984 6.18798 18.7258L6.18792 18.7257L6.18791 18.7257C5.93649 18.2727 5.75981 17.9544 5.4855 17.7121L5.47949 17.7077C5.4732 17.7034 5.46104 17.6955 5.43853 17.6828C5.38783 17.6541 5.3192 17.6195 5.1947 17.5572L2.8338 16.3758C2.50433 16.2109 2.20973 15.8932 1.99513 15.6079C1.7645 15.3012 1.54661 14.9247 1.40739 14.5427C1.28033 14.194 1.16204 13.6872 1.34173 13.2132C1.44137 12.9504 1.62536 12.7213 1.89284 12.5691Z" fill="#141B34"/>
<path fill-rule="evenodd" clip-rule="evenodd" d="M9 8.12402C6.23858 8.12402 4 10.3626 4 13.124C4 13.6763 3.55228 14.124 3 14.124C2.44772 14.124 2 13.6763 2 13.124C2 9.25803 5.13401 6.12402 9 6.12402C12.866 6.12402 16 9.25803 16 13.124C16 13.6763 15.5523 14.124 15 14.124C14.4477 14.124 14 13.6763 14 13.124C14 10.3626 11.7614 8.12402 9 8.12402Z" fill="#141B34"/>
<path fill-rule="evenodd" clip-rule="evenodd" d="M16.0302 9.12402C15.2919 9.12402 14.6032 9.32632 14.0123 9.67866C13.538 9.96152 12.9241 9.8063 12.6413 9.33195C12.3584 8.8576 12.5136 8.24376 12.988 7.96089C13.8793 7.42937 14.9206 7.12402 16.0302 7.12402C19.333 7.12402 22.0002 9.816 22.0002 13.124C22.0002 13.6763 21.5524 14.124 21.0002 14.124C20.4479 14.124 20.0002 13.6763 20.0002 13.124C20.0002 10.9092 18.2171 9.12402 16.0302 9.12402Z" fill="#141B34"/>
<path fill-rule="evenodd" clip-rule="evenodd" d="M9 11.124C8.54421 11.124 8 11.5695 8 12.3462C8 12.8985 7.55228 13.3462 7 13.3462C6.44772 13.3462 6 12.8985 6 12.3462C6 10.6684 7.24665 9.12402 9 9.12402C10.7534 9.12402 12 10.6684 12 12.3462V14.124C12 14.6763 11.5523 15.124 11 15.124C10.4477 15.124 10 14.6763 10 14.124V12.3462C10 11.5695 9.45579 11.124 9 11.124Z" fill="#141B34"/>
<path fill-rule="evenodd" clip-rule="evenodd" d="M13.0323 5.18418C11.5885 4.88247 10.26 5.7356 9.97142 6.91694C9.84037 7.45345 9.2992 7.78214 8.76269 7.65108C8.22618 7.52002 7.89749 6.97885 8.02855 6.44234C8.60246 4.09291 11.0678 2.73045 13.4414 3.22646C15.8341 3.72645 17.4652 5.98004 16.8835 8.36134C16.7525 8.89785 16.2113 9.22653 15.6748 9.09547C15.1383 8.96442 14.8096 8.42325 14.9407 7.88674C15.2215 6.73726 14.4571 5.4819 13.0323 5.18418Z" fill="#141B34"/>
</svg>
