<svg width="24" height="24" viewBox="0 0 24 24" fill="none" xmlns="http://www.w3.org/2000/svg">
<path d="M15.0806 2.46676C17.0808 2.04168 19.2464 2.17608 20.5349 3.46451C21.8233 4.75293 21.9577 6.9186 21.5326 8.91877C21.0971 10.9679 20.0241 13.1268 18.5122 14.6388C16.995 16.156 15.3333 16.8249 13.6894 16.7426C12.0627 16.6612 10.5719 15.8501 9.36062 14.6388C8.14929 13.4274 7.3382 11.9367 7.25675 10.31C7.17443 8.66608 7.84343 7.00442 9.36062 5.48723C10.8726 3.97529 13.0315 2.90226 15.0806 2.46676Z" fill="#141B34"/>
<path d="M10.5151 12.9175C11.0516 12.7864 11.5928 13.115 11.7239 13.6515C11.8551 14.188 11.5265 14.7292 10.99 14.8603C10.5995 14.9558 9.8091 15.2174 9.05973 15.4845C8.69336 15.6151 8.35228 15.7415 8.09559 15.8408C7.96675 15.8907 7.86459 15.9317 7.79323 15.9619C7.83576 16.1066 7.93242 16.3993 8.04112 16.7104L8.04114 16.7104C8.13922 16.9912 8.22508 17.2369 8.28362 17.4361C8.33904 17.6247 8.40703 17.8866 8.39334 18.1635C8.37999 18.4337 8.33296 18.7559 8.15185 19.0728C7.97277 19.3862 7.72104 19.5917 7.49889 19.7429C7.25971 19.9057 6.94719 19.9977 6.72605 20.06C6.46474 20.1336 6.09563 20.2238 5.66513 20.329C4.80073 20.5403 4.34582 20.9579 4.0482 21.3522C3.71547 21.793 3.08839 21.8806 2.64759 21.5479C2.20679 21.2151 2.11918 20.5881 2.45191 20.1473C2.98106 19.4462 3.80912 18.7238 5.19026 18.3862C5.64531 18.275 6.21875 18.113 6.36472 17.9999C6.32218 17.8551 6.24536 17.6343 6.13666 17.3232C6.03856 17.0424 5.95269 16.7967 5.89416 16.5974C5.83873 16.4088 5.77074 16.1469 5.78443 15.87C5.79779 15.5998 5.84481 15.2777 6.02592 14.9607C6.205 14.6473 6.45673 14.4418 6.67888 14.2906C6.79336 14.2127 6.94522 14.1488 7.00465 14.1238C7.28208 14.0164 8.00949 13.7356 8.38822 13.6006C9.12904 13.3366 10.0109 13.0407 10.5151 12.9175Z" fill="#141B34"/>
</svg>
