<svg width="24" height="24" viewBox="0 0 24 24" fill="none" xmlns="http://www.w3.org/2000/svg">
<path fill-rule="evenodd" clip-rule="evenodd" d="M11.9428 1.75H11.9428H12.0572H12.0572C14.2479 1.74999 15.9686 1.74998 17.312 1.93059C18.6886 2.11568 19.7809 2.50272 20.6391 3.36091C21.4973 4.21911 21.8843 5.31137 22.0694 6.68802C22.25 8.03143 22.25 9.7521 22.25 11.9428V11.9428V12.0572V12.0572C22.25 14.2479 22.25 15.9686 22.0694 17.312C21.8843 18.6886 21.4973 19.7809 20.6391 20.6391C19.7809 21.4973 18.6886 21.8843 17.312 22.0694C15.9686 22.25 14.2479 22.25 12.0572 22.25H11.9428C9.75214 22.25 8.03144 22.25 6.68802 22.0694C5.31137 21.8843 4.21911 21.4973 3.36091 20.6391C2.50271 19.7809 2.11568 18.6886 1.93059 17.312C1.74998 15.9686 1.74999 14.2479 1.75 12.0572V11.9428C1.74999 9.75214 1.74998 8.03144 1.93059 6.68802C2.11568 5.31137 2.50271 4.21911 3.36091 3.36091C4.21911 2.50272 5.31137 2.11568 6.68802 1.93059C8.03144 1.74998 9.75211 1.74999 11.9428 1.75ZM10.5 6C10.9045 6 11.2691 6.24364 11.4239 6.61732C11.5787 6.99099 11.4931 7.42111 11.2071 7.70711L10.1642 8.75L11.7071 10.2929C12.0976 10.6834 12.0976 11.3166 11.7071 11.7071C11.3166 12.0976 10.6834 12.0976 10.2929 11.7071L8.75 10.1642L7.70711 11.2071C7.42111 11.4931 6.99099 11.5787 6.61732 11.4239C6.24364 11.2691 6 10.9045 6 10.5V7C6 6.44772 6.44771 6 7 6H10.5ZM12.2929 13.7071C11.9024 13.3166 11.9024 12.6834 12.2929 12.2929C12.6834 11.9024 13.3166 11.9024 13.7071 12.2929L15.25 13.8358L16.2929 12.7929C16.5789 12.5069 17.009 12.4213 17.3827 12.5761C17.7564 12.7309 18 13.0955 18 13.5V17C18 17.5523 17.5523 18 17 18H13.5C13.0955 18 12.7309 17.7564 12.5761 17.3827C12.4213 17.009 12.5069 16.5789 12.7929 16.2929L13.8358 15.25L12.2929 13.7071Z" fill="#141B34"/>
</svg>
