<svg width="24" height="24" viewBox="0 0 24 24" fill="none" xmlns="http://www.w3.org/2000/svg">
<path fill-rule="evenodd" clip-rule="evenodd" d="M17.0639 1.93059C15.7205 1.74998 13.9998 1.74999 11.8091 1.75H11.6948C9.50407 1.74999 7.78339 1.74998 6.43998 1.93059C5.06332 2.11568 3.97106 2.50272 3.11287 3.36091C2.25467 4.21911 1.86763 5.31137 1.68255 6.68802C1.50193 8.03144 1.50194 9.75212 1.50195 11.9428V12.0572C1.50194 14.2479 1.50193 15.9686 1.68255 17.312C1.86763 18.6886 2.25467 19.7809 3.11287 20.6391C3.97106 21.4973 5.06332 21.8843 6.43998 22.0694C7.78339 22.25 9.50406 22.25 11.6948 22.25H11.6948H11.8091H11.8092C13.9998 22.25 15.7205 22.25 17.0639 22.0694C18.4406 21.8843 19.5328 21.4973 20.391 20.6391C21.2492 19.7809 21.6363 18.6886 21.8214 17.312C22.002 15.9686 22.002 14.2479 22.002 12.0572V12.0572V11.9428V11.9428C22.002 9.7521 22.002 8.03144 21.8214 6.68802C21.6363 5.31137 21.2492 4.21911 20.391 3.36091C19.5328 2.50272 18.4406 2.11568 17.0639 1.93059ZM7.63828 9.2302C7.21311 8.8777 6.58269 8.93661 6.2302 9.36178C5.8777 9.78694 5.93661 10.4174 6.36178 10.7699L10.7371 14.3973L10.7628 14.4187L10.7628 14.4187C10.889 14.5234 11.0444 14.6525 11.1944 14.7487C11.3772 14.8659 11.6479 15 12 15C12.3522 15 12.6229 14.8659 12.8057 14.7487C12.9556 14.6525 13.1111 14.5234 13.2373 14.4187L13.263 14.3973L17.6383 10.7699C18.0634 10.4174 18.1224 9.78694 17.7699 9.36178C17.4174 8.93661 16.7869 8.8777 16.3618 9.2302L12 12.8464L7.63828 9.2302Z" fill="#141B34"/>
</svg>
