<svg width="24" height="24" viewBox="0 0 24 24" fill="none" xmlns="http://www.w3.org/2000/svg">
<path fill-rule="evenodd" clip-rule="evenodd" d="M11.9428 22.25H11.9428H12.0572H12.0572C14.2479 22.25 15.9686 22.25 17.312 22.0694C18.6886 21.8843 19.7809 21.4973 20.6391 20.6391C21.4973 19.7809 21.8843 18.6886 22.0694 17.312C22.25 15.9686 22.25 14.2479 22.25 12.0572V12.0572V11.9428V11.9428C22.25 9.7521 22.25 8.03143 22.0694 6.68802C21.8843 5.31137 21.4973 4.21911 20.6391 3.36091C19.7809 2.50271 18.6886 2.11568 17.312 1.93059C15.9686 1.74998 14.2479 1.74999 12.0572 1.75H11.9428C9.75214 1.74999 8.03144 1.74998 6.68802 1.93059C5.31137 2.11568 4.21911 2.50271 3.36091 3.36091C2.50271 4.21911 2.11568 5.31137 1.93059 6.68802C1.74998 8.03144 1.74999 9.7521 1.75 11.9428V12.0572C1.74999 14.2479 1.74998 15.9686 1.93059 17.312C2.11568 18.6886 2.50271 19.7809 3.36091 20.6391C4.21911 21.4973 5.31137 21.8843 6.68802 22.0694C8.03143 22.25 9.7521 22.25 11.9428 22.25ZM9.28689 17.7062C9.57269 17.9928 10.003 18.0788 10.377 17.9242C10.751 17.7695 10.9949 17.4047 10.9949 17V15.6833C11.9303 15.439 12.8918 15.0415 13.7683 14.4348C15.764 13.0534 17.1966 10.6684 16.9779 6.94146C16.9455 6.39012 16.4724 5.9694 15.921 6.00175C15.3697 6.0341 14.949 6.50727 14.9813 7.0586C15.1616 10.1317 14.0174 11.83 12.6301 12.7903C12.1194 13.1438 11.5602 13.4073 10.9949 13.5975V13C10.9949 12.5953 10.751 12.2305 10.377 12.0759C10.003 11.9213 9.57269 12.0073 9.28689 12.2938L7.29199 14.2938C6.90267 14.6841 6.90267 15.3159 7.29199 15.7062L9.28689 17.7062Z" fill="#141B34"/>
</svg>
