<svg width="24" height="24" viewBox="0 0 24 24" fill="none" xmlns="http://www.w3.org/2000/svg">
<path fill-rule="evenodd" clip-rule="evenodd" d="M7.26894 2.39006C7.3297 2.939 6.93396 3.43325 6.38503 3.49402C5.10653 3.63554 4.46123 3.9319 3.99964 4.45137C3.56839 4.93669 3.29509 5.62061 3.14945 6.8397C3.00168 8.07662 3 9.70695 3 12.0001C3 14.2932 3.00168 15.9236 3.14945 17.1605C3.29509 18.3796 3.56839 19.0635 3.99964 19.5488C4.46123 20.0683 5.10653 20.3646 6.38503 20.5062C6.93396 20.5669 7.3297 21.0612 7.26894 21.6101C7.20817 22.159 6.71392 22.5548 6.16499 22.494C4.66448 22.3279 3.43918 21.929 2.5046 20.8773C1.68373 19.9535 1.33097 18.7989 1.16358 17.3977C0.99997 16.0283 0.999984 14.2782 1 12.0673V11.9329C0.999984 9.72193 0.99997 7.97192 1.16358 6.60245C1.33097 5.20131 1.68373 4.0467 2.5046 3.1229C3.43918 2.07113 4.66448 1.67226 6.16499 1.50616C6.71392 1.44539 7.20817 1.84113 7.26894 2.39006ZM16.7311 2.39006C16.7918 1.84113 17.2861 1.4454 17.835 1.50616C19.3355 1.67226 20.5608 2.07113 21.4954 3.1229C22.3163 4.0467 22.669 5.20131 22.8364 6.60245C23 7.97191 23 9.72191 23 11.9329V12.0673C23 14.2783 23 16.0283 22.8364 17.3977C22.669 18.7989 22.3163 19.9535 21.4954 20.8773C20.5608 21.929 19.3355 22.3279 17.835 22.494C17.2861 22.5548 16.7918 22.159 16.7311 21.6101C16.6703 21.0612 17.066 20.5669 17.615 20.5062C18.8935 20.3646 19.5388 20.0683 20.0004 19.5488C20.4316 19.0635 20.7049 18.3796 20.8505 17.1605C20.9983 15.9236 21 14.2932 21 12.0001C21 9.70695 20.9983 8.07662 20.8505 6.8397C20.7049 5.62061 20.4316 4.93669 20.0004 4.45137C19.5388 3.9319 18.8935 3.63554 17.615 3.49402C17.066 3.43325 16.6703 2.939 16.7311 2.39006Z" fill="#141B34"/>
<path d="M13.732 9.0011L10.8152 9.00286L10.8221 9.00896L12.5447 10.5184L12.5447 10.5184C12.7163 10.6685 12.9155 10.8429 13.0635 11.0148C13.2404 11.2203 13.4565 11.547 13.4565 12.0005C13.4565 12.454 13.2404 12.7807 13.0635 12.9862C12.9155 13.1581 12.7163 13.3325 12.5447 13.4826L12.5118 13.5114L10.8221 14.992L13.732 14.9999C13.8484 14.998 13.9278 14.9912 13.9848 14.9809C13.9947 14.8847 13.9989 14.7418 13.9997 14.4959C14.0015 13.9436 14.4506 13.4973 15.0029 13.4991C15.5552 13.5009 16.0015 13.95 15.9997 14.5023C15.9989 14.7604 15.9955 15.0222 15.9664 15.2556C15.9354 15.5032 15.8691 15.7822 15.702 16.0541C15.345 16.635 14.8041 16.8629 14.3533 16.9467C14.0245 17.0077 13.6575 17.0025 13.4339 16.9993L10.7337 16.9981H10.7337C10.237 16.9982 9.76181 16.9983 9.39976 16.9477C9.07882 16.9028 8.34867 16.7569 8.07916 16.0121C7.81385 15.2789 8.26425 14.6985 8.47669 14.454C8.71776 14.1765 9.07712 13.8618 9.4554 13.5304L9.45541 13.5304L11.2014 12.0005L9.4554 10.4706C9.07712 10.1392 8.71776 9.82445 8.47669 9.54697C8.26425 9.30245 7.81385 8.7221 8.07916 7.98893C8.34867 7.24412 9.07882 7.09817 9.39976 7.05329C9.76181 7.00266 10.237 7.00275 10.7337 7.00285L10.7993 7.00286L13.4339 7.00172C13.6575 6.99852 14.0245 6.99325 14.3533 7.05432C14.8041 7.13805 15.345 7.36602 15.702 7.94691C15.8691 8.2188 15.9355 8.49781 15.9664 8.74537C15.9955 8.97885 15.9989 9.2406 15.9997 9.49871C16.0015 10.051 15.5552 10.5002 15.0029 10.5019C14.4506 10.5037 14.0015 10.0574 13.9997 9.50516C13.9989 9.2592 13.9947 9.11628 13.9848 9.0201C13.9278 9.00979 13.8484 9.00301 13.732 9.0011Z" fill="#141B34"/>
</svg>
