<svg width="24" height="24" viewBox="0 0 24 24" fill="none" xmlns="http://www.w3.org/2000/svg">
<path d="M13.3624 3.29843C13.0511 3.2743 12.8954 3.26224 12.7123 3.31925C12.5291 3.37626 12.4188 3.4656 12.1982 3.64429C11.0951 4.53782 10.1769 5.79773 9.45388 6.9637C8.44318 8.59371 7.84082 10.5533 7.67239 12.427C7.6515 12.6593 7.64106 12.7754 7.71423 12.8423C7.78741 12.9091 7.90678 12.8874 8.14553 12.844C9.30819 12.6326 10.6033 12.5148 12.04 12.5148C12.402 12.5148 12.7545 12.5223 13.0977 12.5368C13.6243 12.5592 13.8876 12.5704 14.0395 12.4334C14.1913 12.2965 14.2076 12.0275 14.2401 11.4895C14.3045 10.4268 14.4982 9.24119 14.891 8.10738C15.3142 6.88582 15.9857 5.68073 17.0116 4.77285C17.2493 4.5625 17.3681 4.45732 17.3487 4.34706C17.3293 4.2368 17.1933 4.18316 16.9214 4.0759C15.904 3.67447 14.7248 3.40403 13.3624 3.29843Z" fill="#141B34"/>
<path d="M9.79724 3.39808C10.0223 3.3664 10.1349 3.35056 10.1678 3.41209C10.2008 3.47363 10.1235 3.56054 9.96883 3.73436C9.27702 4.51195 8.68016 5.3651 8.17906 6.17324C6.97758 8.11092 6.29748 10.4307 6.15282 12.6213C6.12934 12.9768 6.1176 13.1545 6.02985 13.2727C5.9421 13.3909 5.77556 13.4535 5.44248 13.5787C4.94014 13.7675 4.47321 13.9771 4.04028 14.2037C3.69708 14.3833 3.36641 14.5429 3.07036 14.6399C2.80324 14.7274 2.39756 14.8231 2.00226 14.6605C1.53451 14.468 1.35368 14.0436 1.29023 13.7032C1.22855 13.3724 1.24439 12.9752 1.29337 12.5462C1.5211 10.5516 2.15642 8.21841 3.79863 6.37724C5.12708 4.88785 7.05732 3.78371 9.79724 3.39808Z" fill="#141B34"/>
<path d="M18.4746 5.53373C18.6998 5.38172 18.8124 5.30572 18.982 5.31612C19.1515 5.32652 19.2607 5.42161 19.4792 5.61178C19.7575 5.854 20.0148 6.11081 20.2524 6.38025C21.8777 8.22321 22.4919 10.5575 22.7097 12.5494C22.7565 12.9782 22.7706 13.375 22.7078 13.7053C22.6433 14.0445 22.4619 14.4682 21.9945 14.66C21.5985 14.8224 21.1928 14.7257 20.9259 14.6373C20.6301 14.5393 20.3 14.3786 19.9573 14.1976C18.9869 13.6849 17.848 13.26 16.5151 12.9653C16.1224 12.8785 15.926 12.8351 15.8154 12.6937C15.7048 12.5523 15.7095 12.3704 15.7189 12.0066C15.7459 10.9623 15.9128 9.74039 16.3084 8.59841C16.7457 7.33604 17.4384 6.23308 18.4746 5.53373Z" fill="#141B34"/>
<path d="M20.6502 16.452C20.6672 16.2992 20.6758 16.2228 20.6383 16.1635C20.6009 16.1042 20.5218 16.0768 20.3635 16.022C19.9827 15.8902 19.6119 15.7126 19.2563 15.5247C17.5948 14.6469 15.2713 14.0156 12.0397 14.0156C8.80003 14.0156 6.42308 14.6502 4.73565 15.5335C4.38249 15.7183 4.01438 15.8933 3.6366 16.0235C3.47814 16.0781 3.39891 16.1054 3.3614 16.1647C3.32388 16.2241 3.33243 16.3006 3.34952 16.4536C3.3546 16.4991 3.35994 16.544 3.36555 16.5883C3.48493 17.5308 3.73878 18.3201 4.33254 18.9503C4.66771 19.3061 5.14215 19.5734 5.6477 19.7808C6.16458 19.9928 6.77326 20.1661 7.43127 20.3044C8.74795 20.5811 10.3257 20.7312 11.8981 20.7481C13.4701 20.7651 15.0668 20.6494 16.4198 20.3805C17.0964 20.2461 17.7281 20.0703 18.2722 19.8451C18.8088 19.6229 19.3052 19.3344 19.667 18.9503C20.2608 18.3201 20.5146 17.5308 20.634 16.5883C20.6397 16.5435 20.6451 16.498 20.6502 16.452Z" fill="#141B34"/>
</svg>
