<svg width="24" height="24" viewBox="0 0 24 24" fill="none" xmlns="http://www.w3.org/2000/svg">
<path d="M8.23254 12.25L9.22561 12.25C9.63983 12.25 9.97561 12.5858 9.97561 13C9.97561 13.4142 9.63983 13.75 9.22561 13.75H8.25311C8.04854 13.75 7.93264 13.7504 7.84775 13.7562C7.81941 13.756 7.76169 13.7942 7.75748 13.9481C7.75198 14.0332 7.75198 14.1388 7.75199 14.2577C7.75198 14.3767 7.75198 14.4668 7.75748 14.5519C7.76169 14.6958 7.81941 14.7398 7.84775 14.7438C7.93264 14.7496 8.06912 14.75 8.27369 14.75C8.45025 14.75 8.61827 14.75 8.76049 14.7597C8.91496 14.7702 9.09294 14.7946 9.27614 14.8704C9.77352 15.0763 10.042 15.4519 10.161 15.8489C10.2557 16.165 10.2548 16.5857 10.2543 16.7916C10.2548 16.9974 10.2557 17.335 10.161 17.6511C10.042 18.0481 9.77353 18.4237 9.27614 18.6296C9.09294 18.7054 8.91496 18.7298 8.76049 18.7403C8.61827 18.75 8.45024 18.75 8.27368 18.75L7.1939 18.75C6.77969 18.75 6.4439 18.4142 6.4439 18C6.4439 17.5858 6.77969 17.25 7.1939 17.25H8.25311C8.45768 17.25 8.57358 17.2496 8.65848 17.2438C8.68678 17.2466 8.74445 17.2122 8.74875 17.0519C8.75424 16.9668 8.75424 16.8767 8.75424 16.7577V16.7577C8.75424 16.6388 8.75424 16.5332 8.74875 16.4481C8.74442 16.2795 8.68677 16.2499 8.65848 16.2562C8.57358 16.2504 8.4371 16.25 8.23253 16.25C8.05598 16.25 7.88796 16.25 7.74573 16.2403C7.59127 16.2298 7.41328 16.2054 7.23009 16.1296C6.7327 15.9237 6.46424 15.5481 6.34526 15.1511C6.25053 14.835 6.25139 14.4975 6.25191 14.2916C6.25139 14.0857 6.25053 13.665 6.34526 13.3489C6.46424 12.9519 6.7327 12.5763 7.23009 12.3704C7.41328 12.2946 7.59127 12.2702 7.74573 12.2597C7.88794 12.25 8.05594 12.25 8.23248 12.25H8.23254Z" fill="#141B34"/>
<path fill-rule="evenodd" clip-rule="evenodd" d="M11.3267 12.2977C11.7146 12.1526 12.1468 12.3495 12.2919 12.7374L13.6746 16.4338L15.0574 12.7374C15.2025 12.3495 15.6347 12.1526 16.0226 12.2977C16.4106 12.4429 16.6074 12.875 16.4623 13.263L14.9988 17.1752C14.9936 17.1892 14.9883 17.2032 14.9831 17.2171C14.8612 17.5433 14.7456 17.8523 14.6291 18.0754C14.5678 18.1929 14.4776 18.3445 14.3439 18.473C14.1948 18.6163 13.9687 18.7502 13.6746 18.7502C13.3806 18.7502 13.1545 18.6163 13.0053 18.473C12.8717 18.3445 12.7815 18.1929 12.7202 18.0754C12.6036 17.8523 12.4881 17.5433 12.3662 17.2171C12.3609 17.2032 12.3557 17.1892 12.3505 17.1752L10.887 13.263C10.7418 12.875 10.9387 12.4429 11.3267 12.2977Z" fill="#141B34"/>
<path d="M19.4236 13.7498C19.0292 13.7498 18.813 13.7516 18.663 13.7729C18.5591 13.8662 18.5951 14.2535 18.5951 14.6665V16.3332C18.5951 16.7461 18.5951 17.1133 18.663 17.2267C18.813 17.248 19.0292 17.2498 19.4236 17.2498C19.8179 17.2498 20.0341 17.248 20.1841 17.2267C20.2512 17.1528 20.2496 16.8758 20.2512 16.6451C20.1777 16.6341 20.0028 16.6497 19.9246 16.6589C19.5147 16.7175 19.1345 16.4328 19.0758 16.0229C19.017 15.6129 19.3017 15.2329 19.7117 15.1741C19.9737 15.1365 20.2842 15.1377 20.4879 15.159C20.6769 15.1787 20.953 15.2277 21.2027 15.3774C21.4925 15.5512 21.752 15.8723 21.752 16.3332C21.7521 16.6906 21.7521 17.0674 21.7171 17.3423C21.6785 17.6452 21.5861 17.9856 21.3154 18.2715C21.0392 18.5631 20.7007 18.6684 20.395 18.7119C20.1266 18.75 19.8012 18.7499 19.4665 18.7498C19.1319 18.7499 18.7205 18.75 18.4521 18.7119C18.1464 18.6684 17.8079 18.5631 17.5317 18.2715C17.261 17.9856 17.1686 17.6452 17.13 17.3423C17.095 17.0674 17.095 16.7315 17.0951 16.374L17.0951 14.6256C17.095 14.2682 17.095 13.9323 17.13 13.6574C17.1686 13.3544 17.261 13.0141 17.5317 12.7282C17.8079 12.4366 18.1464 12.3312 18.4521 12.2878C18.7205 12.2497 19.1634 12.2496 19.498 12.2497C19.8268 12.2487 20.3069 12.2473 20.7113 12.3925C20.9564 12.4805 21.2098 12.6317 21.4068 12.8883C21.6025 13.1433 21.6991 13.4457 21.7287 13.7636C21.7672 14.176 21.464 14.5415 21.0515 14.5799C20.6391 14.6183 20.2736 14.3152 20.2352 13.9027C20.2352 13.759 20.0701 13.7688 19.9257 13.759C19.7886 13.7498 19.6086 13.7498 19.4236 13.7498Z" fill="#141B34"/>
<path d="M7.13744 20.7033C8.00689 20.7942 9.13801 20.7955 10.7466 20.7955H14.9069C15.4447 20.7955 15.8806 21.233 15.8806 21.7727C15.8806 22.3125 15.4447 22.75 14.9069 22.75H10.6917C9.15062 22.75 7.91782 22.75 6.93556 22.6473C5.92614 22.5417 5.06492 22.3186 4.32016 21.7919C3.92979 21.5159 3.58125 21.1871 3.28607 20.8146C2.71624 20.0956 2.47298 19.2577 2.35887 18.2843C2.24899 17.3469 2.249 16.1743 2.24902 14.7262V12.1428V12.1427C2.24902 10.7244 2.24902 9.61179 2.30821 8.71107C2.36846 7.79422 2.493 7.02952 2.77411 6.31755C3.61751 4.1815 5.39124 2.51875 7.61123 1.73658C8.99367 1.2495 10.6803 1.24971 13.5199 1.25007L13.7562 1.25009L13.9596 1.25004L13.9596 1.25004C15.5146 1.2495 16.547 1.24914 17.4058 1.55172C18.7824 2.03673 19.8908 3.071 20.4196 4.41031C20.6029 4.87447 20.6785 5.36014 20.7143 5.90477C20.749 6.43335 20.749 7.08083 20.749 7.87999V7.88006V10.0455C20.749 10.5852 20.3131 11.0228 19.7753 11.0228C19.2376 11.0228 18.8017 10.5852 18.8017 10.0455V7.91329C18.8017 7.07303 18.8012 6.49008 18.7712 6.03341C18.7417 5.58546 18.6869 5.32704 18.6092 5.1304C18.2991 4.34503 17.6334 3.70339 16.7608 3.39593C16.2574 3.21858 15.5903 3.20463 13.7562 3.20463C13.4581 3.20463 13.1013 3.2058 12.7632 3.20732C12.425 3.20885 11.8716 3.21134 11.4095 3.48025C11.1047 3.65756 10.884 3.85945 10.7573 4.08004C10.5399 4.45845 10.4156 4.89711 10.4156 5.3648C10.4156 5.51193 10.4252 5.70446 10.4334 5.88206L10.4334 5.88212C10.4407 6.03696 10.4486 6.20566 10.4521 6.3737C10.46 6.75379 10.448 7.19733 10.3333 7.62548C10.1098 8.45945 9.45843 9.11086 8.62445 9.33432C8.19631 9.44904 7.75277 9.46105 7.37267 9.45315C7.20453 9.44966 7.03595 9.44174 6.88103 9.43446C6.70343 9.42622 6.47944 9.41667 6.33231 9.41667C5.88564 9.41667 5.46545 9.53003 5.09893 9.72955C4.87148 9.85337 4.65007 10.0965 4.47714 10.3875C4.19652 10.8596 4.19634 11.4982 4.19636 11.7652L4.19639 14.6653C4.19639 16.1888 4.19797 17.2461 4.2929 18.0559C4.38513 18.8427 4.55457 19.2754 4.81013 19.5979C4.98793 19.8223 5.20031 20.0234 5.44176 20.1941C5.79959 20.4472 6.28351 20.6139 7.13744 20.7033Z" fill="#141B34"/>
</svg>
