<svg width="24" height="24" viewBox="0 0 24 24" fill="none" xmlns="http://www.w3.org/2000/svg">
<path d="M10.4082 2.27009C9.6991 2.14765 9.03002 2.61185 8.90687 3.2958L6.74897 15.2202C6.71927 15.3743 6.60549 15.4994 6.45374 15.5446C6.30198 15.5898 6.13741 15.5478 6.02672 15.4355L3.79895 13.1752C3.16909 12.5535 2.13322 12.6109 1.57741 13.2988C1.15175 13.8257 1.13999 14.5711 1.54883 15.1108L4.96708 19.6241C5.75424 20.6634 6.11122 21.1308 6.53476 21.492C7.19348 22.0537 7.98283 22.4445 8.83186 22.6294C9.37776 22.7482 9.96961 22.7505 11.2816 22.7505H14.0063C16.5022 22.7505 18.6525 21.0093 19.1481 18.587L20.2303 13.232C20.3532 12.5493 19.8883 11.8913 19.1804 11.769C18.4713 11.6466 17.8022 12.1108 17.679 12.7947L17.5795 13.3478C17.5382 13.5768 17.3173 13.7294 17.086 13.6886C16.8547 13.6477 16.7007 13.429 16.7419 13.1999L16.8415 12.6468L17.0407 11.5406C17.1636 10.858 16.6986 10.1999 15.9907 10.0776C15.2816 9.9552 14.6126 10.4194 14.4894 11.1033L14.3898 11.6565C14.3486 11.8855 14.1277 12.038 13.8964 11.9972C13.6651 11.9564 13.511 11.7376 13.5523 11.5086L13.8511 9.84927C13.974 9.1666 13.509 8.50852 12.8011 8.38628C12.0922 8.26387 11.4232 8.72782 11.2999 9.4115L11.001 11.0713C10.9598 11.3003 10.7389 11.4529 10.5076 11.412C10.2763 11.3712 10.1222 11.1524 10.1635 10.9234L11.4581 3.73308C11.5811 3.05041 11.1161 2.39233 10.4082 2.27009Z" fill="#141B34"/>
<path d="M21.75 3.49414C22.3023 3.49414 22.75 3.94186 22.75 4.49414C22.75 5.04643 22.3023 5.49414 21.75 5.49414L19.25 5.49414L19.25 6.0884C19.2501 6.26404 19.2503 6.47969 19.2282 6.65613L19.2278 6.65947C19.212 6.78592 19.1402 7.36196 18.5746 7.63632C18.0078 7.91128 17.5076 7.60935 17.3994 7.54403L16.931 7.20489C16.5551 6.91025 16.0407 6.50455 15.6497 6.12412C15.4546 5.93429 15.2533 5.71703 15.0945 5.48612C14.9533 5.28086 14.75 4.93067 14.75 4.5C14.75 4.06933 14.9533 3.71914 15.0945 3.51388C15.2533 3.28297 15.4546 3.06571 15.6497 2.87588C16.0407 2.49545 16.5551 2.08975 16.9309 1.79512L17.3994 1.45597C17.5076 1.39065 18.0078 1.08872 18.5746 1.36368C19.1402 1.63804 19.212 2.21408 19.2278 2.34053L19.2282 2.34387C19.2503 2.52031 19.2501 2.73597 19.25 2.9116L19.25 3.49414L21.75 3.49414Z" fill="#141B34"/>
</svg>
