<svg width="24" height="24" viewBox="0 0 24 24" fill="none" xmlns="http://www.w3.org/2000/svg">
<path d="M7.5 3C7.5 2.0335 8.2835 1.25 9.25 1.25H14.75C15.7165 1.25 16.5 2.0335 16.5 3C16.5 3.9665 15.7165 4.75 14.75 4.75H9.25C8.2835 4.75 7.5 3.9665 7.5 3Z" fill="#141B34"/>
<path fill-rule="evenodd" clip-rule="evenodd" d="M6.25 3.00021C6.25 2.91158 6.17409 2.83988 6.08629 2.85199C5.18618 2.97614 4.43852 3.24144 3.8481 3.83241C3.24631 4.43476 2.9875 5.19311 2.86651 6.09385C2.74996 6.96153 2.74998 8.06482 2.75 9.43374L2.75 16.0495C2.74998 17.4184 2.74996 18.5217 2.86651 19.3894C2.9875 20.2901 3.24631 21.0484 3.8481 21.6508C4.44999 22.2532 5.20792 22.5124 6.10816 22.6336C6.97517 22.7503 8.07752 22.7502 9.44506 22.7502L14.5549 22.7502C15.9225 22.7502 17.0248 22.7503 17.8918 22.6336C18.7921 22.5124 19.55 22.2533 20.1519 21.6508C20.7537 21.0484 21.0125 20.2901 21.1335 19.3894C21.25 18.5217 21.25 17.4184 21.25 16.0494L21.25 9.43378C21.25 8.06482 21.25 6.96154 21.1335 6.09385C21.0125 5.19311 20.7537 4.43476 20.1519 3.83241C19.5615 3.24144 18.8138 2.97614 17.9137 2.85199C17.8259 2.83988 17.75 2.91158 17.75 3.00021C17.75 4.65707 16.4069 6.00021 14.75 6.00021L9.25 6.00021C7.59314 6.00021 6.25 4.65707 6.25 3.00021ZM8.00195 10.2502C7.58774 10.2502 7.25195 10.586 7.25195 11.0002C7.25195 11.4144 7.58774 11.7502 8.00195 11.7502L16.002 11.7502C16.4162 11.7502 16.752 11.4144 16.752 11.0002C16.752 10.586 16.4162 10.2502 16.002 10.2502L8.00195 10.2502ZM8.00195 15.2502C7.58774 15.2502 7.25195 15.586 7.25195 16.0002C7.25195 16.4144 7.58774 16.7502 8.00195 16.7502H12.002C12.4162 16.7502 12.752 16.4144 12.752 16.0002C12.752 15.586 12.4162 15.2502 12.002 15.2502H8.00195Z" fill="#141B34"/>
</svg>
