<svg width="24" height="24" viewBox="0 0 24 24" fill="none" xmlns="http://www.w3.org/2000/svg">
<path fill-rule="evenodd" clip-rule="evenodd" d="M17.7052 7.25131C19.0023 7.52987 20.1299 7.90759 20.98 8.37124C21.8937 8.8696 22.75 9.61816 22.75 10.6599C22.75 11.444 22.2561 12.0614 21.668 12.5085C21.0681 12.9644 20.2475 13.3429 19.3006 13.6473C17.3984 14.2589 14.8174 14.625 12 14.625C9.18262 14.625 6.60156 14.2589 4.69938 13.6473C3.75252 13.3429 2.93185 12.9644 2.33199 12.5085C1.74387 12.0614 1.25 11.444 1.25 10.6599C1.25 9.61816 2.10629 8.8696 3.02 8.37124C3.87007 7.90759 4.99772 7.52987 6.29481 7.25131C6.32733 7.05585 6.37261 6.86859 6.41355 6.69928L6.42752 6.64142C7.01996 4.17927 9.21298 2.12495 12 2.12495C14.787 2.12495 16.98 4.17927 17.5725 6.64142L17.5865 6.69928L17.5865 6.69931C17.6274 6.86861 17.6727 7.05586 17.7052 7.25131ZM8.29249 7.07725C8.71018 5.34133 10.2257 4.01384 12 4.01384C13.7743 4.01384 15.2898 5.34133 15.7075 7.07725C15.8081 7.49537 15.8366 7.64405 15.8332 7.75515L15.8331 7.75705C15.8319 7.79658 15.8299 7.86184 15.7043 8.03425C15.6853 8.06037 15.6045 8.14512 15.3833 8.25029C15.1697 8.35178 14.879 8.44672 14.5153 8.52521C13.7878 8.68218 12.8717 8.75151 11.9346 8.73319C10.9988 8.71489 10.0882 8.61012 9.37594 8.4423C9.01886 8.35817 8.73647 8.26395 8.53454 8.17032C8.34875 8.08417 8.29086 8.02759 8.29086 8.02759C8.17006 7.86015 8.1681 7.79606 8.1669 7.75705L8.16685 7.75515C8.16335 7.64405 8.19188 7.49537 8.29249 7.07725Z" fill="#141B34"/>
<path fill-rule="evenodd" clip-rule="evenodd" d="M7.27498 12.9128C7.80601 13.0645 8.11351 13.618 7.96178 14.149L5.96178 21.149C5.81006 21.68 5.25657 21.9875 4.72554 21.8358C4.1945 21.6841 3.88701 21.1306 4.03873 20.5996L6.03873 13.5996C6.19046 13.0685 6.74394 12.761 7.27498 12.9128ZM16.7255 12.9128C17.2566 12.761 17.8101 13.0685 17.9618 13.5996L19.9618 20.5996C20.1135 21.1306 19.806 21.6841 19.275 21.8358C18.7439 21.9875 18.1905 21.68 18.0387 21.149L16.0387 14.149C15.887 13.618 16.1945 13.0645 16.7255 12.9128Z" fill="#141B34"/>
<path fill-rule="evenodd" clip-rule="evenodd" d="M10.5 18.875C10.5 18.0466 11.1686 17.375 11.9933 17.375H12.0067C12.8314 17.375 13.5 18.0466 13.5 18.875C13.5 19.7034 12.8314 20.375 12.0067 20.375H11.9933C11.1686 20.375 10.5 19.7034 10.5 18.875Z" fill="#141B34"/>
</svg>
