<svg width="24" height="24" viewBox="0 0 24 24" fill="none" xmlns="http://www.w3.org/2000/svg">
<path d="M20.6926 9.41618C20.877 9.93678 20.6044 10.5083 20.0838 10.6927C19.5502 10.8817 18.9337 11.2885 18.2807 11.8612C17.638 12.4249 17.0128 13.1018 16.4591 13.7656C15.9072 14.4271 15.4385 15.0609 15.1074 15.5298C14.9422 15.7638 14.8122 15.9555 14.7243 16.0876L14.5941 16.2863C14.4008 16.5903 14.0587 16.7671 13.6989 16.7487C13.3389 16.7303 13.0168 16.5196 12.8556 16.1972C12.4149 15.3159 12.0196 14.9649 11.8203 14.8321C11.736 14.7759 11.679 14.7533 11.6564 14.7457C11.148 14.6985 10.75 14.2707 10.75 13.75C10.75 13.1977 11.1977 12.75 11.75 12.75C11.8324 12.7508 12.0371 12.7659 12.1966 12.8198C12.4045 12.8791 12.6553 12.985 12.9297 13.168C13.204 13.3508 13.4916 13.6036 13.7804 13.9495C14.0956 13.5187 14.484 13.011 14.9233 12.4844C15.5166 11.7732 16.215 11.0127 16.962 10.3576C17.6986 9.71155 18.538 9.1184 19.4162 8.8074C19.9368 8.62302 20.5082 8.89558 20.6926 9.41618Z" fill="#141B34"/>
<path fill-rule="evenodd" clip-rule="evenodd" d="M10.0489 1.25H9.95169H9.95165C9.29098 1.24998 8.7211 1.24996 8.25597 1.29727C7.76273 1.34745 7.27746 1.45898 6.83354 1.7556C6.50597 1.97447 6.22471 2.25573 6.00584 2.5833C5.70922 3.02722 5.59769 3.51249 5.54751 4.00573C5.54208 4.0591 5.53728 4.11385 5.53302 4.16996C5.51325 4.43067 5.50337 4.56103 5.44237 4.63458C5.38138 4.70813 5.23182 4.74819 4.9327 4.82832C3.91239 5.10165 3.17073 6.05738 3.25679 7.1711L3.4406 9.54976C3.58286 11.3907 4.20558 13.1637 5.24763 14.6986L5.84841 15.5835C6.44224 16.4582 7.37329 17.0364 8.40506 17.2015C8.70605 17.2496 8.85654 17.2737 8.92827 17.3578C9 17.4419 9 17.5771 9 17.8474V21.75C9 22.3023 9.44772 22.75 10 22.75C10.5523 22.75 11 22.3023 11 21.75V17.5597L11.0001 17.53C11.0044 17.3715 11.109 17.2577 11.2665 17.2401C11.2686 17.2398 11.2733 17.2394 11.2811 17.2387C11.2882 17.2381 11.2979 17.2373 11.3106 17.2362L11.3109 17.2362L11.3157 17.2358C11.3025 17.2369 11.2588 17.2405 11.2627 17.2401C11.4477 17.2174 11.579 16.9598 11.4887 16.7969C11.4883 16.7962 11.4888 16.797 11.4899 16.7987C11.388 16.6322 11.2737 16.4603 11.1793 16.3232C11.1257 16.2453 11.0989 16.2064 11.0629 16.1782C11.027 16.15 10.9722 16.1292 10.8626 16.0875L10.8625 16.0875L10.8625 16.0875C9.91967 15.7293 9.25024 14.8184 9.25024 13.75C9.25024 12.3693 10.3695 11.25 11.7502 11.25L11.7648 11.2501C11.9137 11.2516 12.2769 11.2709 12.6385 11.3861C12.7866 11.4297 12.9409 11.4854 13.0997 11.5553L13.0997 11.5553C13.3386 11.6603 13.458 11.7129 13.5545 11.691C13.651 11.6692 13.7284 11.5793 13.8833 11.3996L13.8833 11.3996C14.4889 10.697 15.2824 9.83562 15.9732 9.22981C16.1145 9.10585 16.2624 8.98091 16.4162 8.85697C16.5211 8.77248 16.5736 8.73023 16.6025 8.67535C16.6314 8.62047 16.6364 8.55551 16.6465 8.42561V8.42559L16.7434 7.1711C16.8295 6.05745 16.0879 5.10178 15.0677 4.82838C14.7686 4.74823 14.6191 4.70816 14.5581 4.63461C14.4971 4.56106 14.4872 4.43072 14.4675 4.17004C14.4632 4.1139 14.4584 4.05912 14.453 4.00573C14.4028 3.51249 14.2913 3.02722 13.9947 2.5833C13.7758 2.25573 13.4945 1.97447 13.167 1.7556C12.723 1.45898 12.2378 1.34745 11.7445 1.29727C11.2794 1.24996 10.7096 1.24998 10.0489 1.25H10.0489ZM11.9504 4.75C12.0062 4.75 12.055 4.75 12.0981 4.74907C12.2278 4.7463 12.3056 4.73519 12.3655 4.69066C12.3956 4.66823 12.4246 4.63609 12.4439 4.60384C12.4949 4.51851 12.4843 4.41505 12.4633 4.20813C12.4292 3.87303 12.3722 3.75496 12.3318 3.69443C12.2588 3.58524 12.1651 3.49149 12.0559 3.41853C11.9953 3.37809 11.8773 3.32109 11.5422 3.287C11.3221 3.26461 11.0569 3.25576 10.7121 3.25226C10.5402 3.25052 10.3485 3.25011 10.1327 3.25002L10.0003 3.25L10 3.25C9.63853 3.25 9.34101 3.2503 9.0899 3.25508C8.83879 3.25986 8.63408 3.26911 8.45818 3.287C8.12307 3.32109 8.005 3.37809 7.94448 3.41853C7.83529 3.49149 7.74154 3.58524 7.66858 3.69443C7.62813 3.75496 7.57113 3.87303 7.53705 4.20813C7.516 4.41506 7.50547 4.51852 7.55644 4.60384C7.5757 4.63609 7.60474 4.66823 7.63487 4.69066C7.7006 4.73958 7.78812 4.74817 7.9421 4.74968C7.97488 4.75 8.01067 4.75 8.04991 4.75H11.9502L11.9504 4.75ZM8.92626 7.00268C8.40841 7.04042 8 7.47252 8 8C8 8.55229 8.44772 9 9 9H11C11.0248 9 11.0494 8.9991 11.0738 8.99732C11.5916 8.95957 12 8.52748 12 8C12 7.44771 11.5523 7 11 7H9.00004C8.97523 7 8.95062 7.0009 8.92626 7.00268Z" fill="#141B34"/>
</svg>
