<svg width="24" height="24" viewBox="0 0 24 24" fill="none" xmlns="http://www.w3.org/2000/svg">
<path fill-rule="evenodd" clip-rule="evenodd" d="M9.24447 13.7697C8.95254 13.7507 8.55644 13.75 8.00212 13.75H7.00195C6.58774 13.75 6.25195 13.4142 6.25195 13C6.25195 12.5858 6.58774 12.25 7.00195 12.25H8.00212C8.01712 12.25 8.03207 12.25 8.04696 12.25C8.66004 12.25 9.18228 12.25 9.57686 12.2929C9.93766 12.3322 10.467 12.4271 10.7868 12.8672C10.9607 13.1066 11.0252 13.3876 10.9838 13.67C10.9476 13.9166 10.8364 14.1258 10.7363 14.2819C10.5494 14.5734 10.2428 14.912 9.91707 15.2718C9.90342 15.2868 9.88974 15.3019 9.87603 15.3171L8.63396 16.6895C8.42957 16.9153 8.27234 17.0901 8.15337 17.2303C8.4453 17.2493 8.84141 17.25 9.39573 17.25H10.3959C10.8101 17.25 11.1459 17.5858 11.1459 18C11.1459 18.4142 10.8101 18.75 10.3959 18.75L9.35089 18.75C8.73782 18.75 8.21557 18.7501 7.82099 18.7071C7.46018 18.6678 6.93082 18.5729 6.61104 18.1328C6.43713 17.8934 6.37263 17.6124 6.41409 17.33C6.45029 17.0835 6.56145 16.8742 6.66155 16.7181C6.84846 16.4266 7.15508 16.088 7.48077 15.7283C7.49442 15.7132 7.50811 15.6981 7.52182 15.6829L8.76388 14.3105C8.96827 14.0847 9.12551 13.9099 9.24447 13.7697Z" fill="#141B34"/>
<path fill-rule="evenodd" clip-rule="evenodd" d="M12.1914 13C12.1914 12.5858 12.5272 12.25 12.9414 12.25H15.4869C15.9011 12.25 16.2369 12.5858 16.2369 13C16.2369 13.4142 15.9011 13.75 15.4869 13.75H14.9641V17.25H15.4869C15.9011 17.25 16.2369 17.5858 16.2369 18C16.2369 18.4142 15.9011 18.75 15.4869 18.75H12.9414C12.5272 18.75 12.1914 18.4142 12.1914 18C12.1914 17.5858 12.5272 17.25 12.9414 17.25H13.4641V13.75H12.9414C12.5272 13.75 12.1914 13.4142 12.1914 13Z" fill="#141B34"/>
<path fill-rule="evenodd" clip-rule="evenodd" d="M19.016 12.25C19.0275 12.25 19.039 12.25 19.0504 12.25H19.7292C20.8335 12.25 21.7519 13.1328 21.7519 14.25C21.7519 15.3673 20.8335 16.25 19.7292 16.25H18.7822V18C18.7822 18.4142 18.4465 18.75 18.0322 18.75C17.618 18.75 17.2822 18.4142 17.2822 18V14C17.2822 13.9885 17.2822 13.9769 17.2822 13.9653C17.2822 13.7605 17.2821 13.5378 17.3078 13.3497C17.3382 13.1278 17.4163 12.8466 17.6558 12.6114C17.8935 12.378 18.1743 12.3037 18.3936 12.2748C18.5824 12.2499 18.8065 12.2499 19.016 12.25ZM18.7822 14.75H19.7292C20.0307 14.75 20.2519 14.5135 20.2519 14.25C20.2519 13.9866 20.0307 13.75 19.7292 13.75H19.0504C18.9433 13.75 18.8575 13.7501 18.7834 13.7514C18.7823 13.8207 18.7822 13.9009 18.7822 14V14.75Z" fill="#141B34"/>
<path d="M7.13744 20.7033C8.00689 20.7942 9.13801 20.7955 10.7466 20.7955H14.9069C15.4447 20.7955 15.8806 21.233 15.8806 21.7727C15.8806 22.3125 15.4447 22.75 14.9069 22.75H10.6917C9.15062 22.75 7.91782 22.75 6.93556 22.6473C5.92614 22.5417 5.06492 22.3186 4.32016 21.7919C3.92979 21.5159 3.58125 21.1871 3.28607 20.8146C2.71624 20.0956 2.47298 19.2577 2.35887 18.2843C2.24899 17.3469 2.249 16.1743 2.24902 14.7262V12.1428V12.1427C2.24902 10.7244 2.24902 9.61179 2.30821 8.71107C2.36846 7.79422 2.493 7.02952 2.77411 6.31755C3.61751 4.1815 5.39124 2.51875 7.61123 1.73658C8.99367 1.2495 10.6803 1.24971 13.5199 1.25007L13.7562 1.25009L13.9596 1.25004L13.9596 1.25004C15.5146 1.2495 16.547 1.24914 17.4058 1.55172C18.7824 2.03673 19.8908 3.071 20.4196 4.41031C20.6029 4.87447 20.6785 5.36014 20.7143 5.90477C20.749 6.43335 20.749 7.08083 20.749 7.87999V7.88006V10.0455C20.749 10.5852 20.3131 11.0228 19.7753 11.0228C19.2376 11.0228 18.8017 10.5852 18.8017 10.0455V7.91329C18.8017 7.07303 18.8012 6.49008 18.7712 6.03341C18.7417 5.58546 18.6869 5.32704 18.6092 5.1304C18.2991 4.34503 17.6334 3.70339 16.7608 3.39593C16.2574 3.21858 15.5903 3.20463 13.7562 3.20463C13.4581 3.20463 13.1013 3.2058 12.7632 3.20732C12.425 3.20885 11.8716 3.21134 11.4095 3.48025C11.1047 3.65756 10.884 3.85945 10.7573 4.08004C10.5399 4.45845 10.4156 4.89711 10.4156 5.3648C10.4156 5.51193 10.4252 5.70446 10.4334 5.88206L10.4334 5.88212C10.4407 6.03696 10.4486 6.20566 10.4521 6.3737C10.46 6.75379 10.448 7.19733 10.3333 7.62548C10.1098 8.45945 9.45843 9.11086 8.62445 9.33432C8.19631 9.44904 7.75277 9.46105 7.37267 9.45315C7.20453 9.44966 7.03595 9.44174 6.88103 9.43446C6.70343 9.42622 6.47944 9.41667 6.33231 9.41667C5.88564 9.41667 5.46545 9.53003 5.09893 9.72955C4.87148 9.85337 4.65007 10.0965 4.47714 10.3875C4.19652 10.8596 4.19634 11.4982 4.19636 11.7652L4.19639 14.6653C4.19639 16.1888 4.19797 17.2461 4.2929 18.0559C4.38513 18.8427 4.55457 19.2754 4.81013 19.5979C4.98793 19.8223 5.20031 20.0234 5.44176 20.1941C5.79959 20.4472 6.28351 20.6139 7.13744 20.7033Z" fill="#141B34"/>
</svg>
