<svg width="24" height="24" viewBox="0 0 24 24" fill="none" xmlns="http://www.w3.org/2000/svg">
<path opacity="0.4" fill-rule="evenodd" clip-rule="evenodd" d="M3.42628 4.68552C3.89253 4.62391 4.46875 4.62397 5.11092 4.62403L12.1397 4.62403C13.7987 4.62402 15.1063 4.62402 16.159 4.71265C17.234 4.80317 18.1305 4.99126 18.9441 5.41779C20.0592 6.00242 20.9889 6.87859 21.6304 7.95015C22.0986 8.73242 22.3275 9.60623 22.4644 10.6589C22.5984 11.6892 22.6528 12.9736 22.7219 14.6019C22.7395 15.0182 22.7589 15.4755 22.7442 15.7859C22.7283 16.118 22.6755 16.4724 22.4948 16.8175C22.2766 17.2344 21.9399 17.5791 21.5263 17.81C21.3675 17.8987 20.9848 18.1239 20.8167 18.0009C20.7307 17.938 20.7362 17.8002 20.747 17.5245C20.8298 15.4263 19.1025 13.624 17 13.624C14.8526 13.624 13.1099 15.5034 13.2592 17.6395C13.2759 17.8777 13.2842 17.9968 13.2249 18.0604C13.1656 18.124 13.0556 18.124 12.8357 18.124H11.1643C10.9444 18.124 10.8344 18.124 10.7751 18.0604C10.7158 17.9968 10.7241 17.8777 10.7408 17.6395C10.8901 15.5034 9.14744 13.624 7 13.624C4.9131 13.624 3.19119 15.4003 3.2516 17.4847C3.25969 17.7636 3.26373 17.903 3.1784 17.9651C3.09308 18.0272 2.98304 17.988 2.76296 17.9096C1.91395 17.6074 1.43227 16.8571 1.31268 15.983C1.24989 15.524 1.24994 14.9571 1.25 14.3265L1.25001 10.3775L1.25 10.374L1.25001 10.3706L1.25 8.42159C1.24994 7.79098 1.24989 7.22402 1.31268 6.76504C1.38129 6.26352 1.54065 5.74943 1.96875 5.32873C2.39629 4.90857 2.91782 4.7527 3.42628 4.68552ZM20.5253 10.9047C20.5349 10.9783 20.5465 11.0813 20.5577 11.1864C20.5794 11.39 20.5902 11.4919 20.5305 11.5582C20.4708 11.6245 20.3678 11.6243 20.1619 11.6239C19.5194 11.6228 18.5448 11.6183 18.3707 11.6003C18.1645 11.579 18.0835 11.5439 18.0324 11.5123C17.753 11.3396 17.386 11.0021 17.0828 10.638C17.0097 10.5503 17.0002 10.4908 17.0002 10.3742V7.26217C17.0002 7.03061 17.0002 6.91483 17.0821 6.8549C17.1639 6.79498 17.2677 6.82786 17.4752 6.89363C17.679 6.9582 17.8597 7.03364 18.0266 7.12116C18.8246 7.53955 19.489 8.16607 19.947 8.9312C20.2252 9.39598 20.4049 9.97901 20.5253 10.9047ZM15.0002 6.96639C15.0002 6.78315 15.0002 6.69153 14.9432 6.63324C14.8862 6.57494 14.7953 6.57291 14.6135 6.56887C13.9077 6.55315 13.0823 6.55288 12.0941 6.55288C12.0422 6.55288 12.0001 6.59495 12.0001 6.64685L12.0002 9.22432C12.0002 9.41287 12.0002 9.50715 12.0588 9.56573C12.1173 9.6243 12.2116 9.6243 12.4002 9.6243H14.6002C14.7888 9.6243 14.8831 9.6243 14.9416 9.56573C15.0002 9.50715 15.0002 9.41287 15.0002 9.2243V6.96639ZM9.60018 9.6243C9.78875 9.6243 9.88303 9.6243 9.94161 9.56572C10.0002 9.50714 10.0002 9.41286 10.0002 9.22429L10.0001 6.95287C10.0001 6.76431 10.0001 6.67003 9.94152 6.61146C9.88294 6.55288 9.78866 6.55288 9.60011 6.55288H7.40011C7.21154 6.55288 7.11725 6.55288 7.05868 6.61146C7.0001 6.67004 7.0001 6.76433 7.00011 6.95289L7.00018 9.22432C7.00019 9.41287 7.00019 9.50715 7.05877 9.56573C7.11735 9.6243 7.21163 9.6243 7.40018 9.6243H9.60018ZM4.60018 9.6243C4.78875 9.6243 4.88303 9.6243 4.94161 9.56572C5.00019 9.50714 5.00019 9.41286 5.00018 9.22429L5.00011 6.95327C5.0001 6.76409 5.0001 6.6695 4.94095 6.61082C4.88181 6.55215 4.78775 6.5529 4.59962 6.5544C4.19788 6.55761 3.91127 6.56745 3.68529 6.59731C3.40296 6.63461 3.354 6.68847 3.34763 6.69548C3.34105 6.70113 3.28699 6.74763 3.24927 7.02333C3.20626 7.33771 3.20417 7.77223 3.20417 8.48145V9.2243C3.20417 9.41287 3.20417 9.50715 3.26275 9.56573C3.32133 9.6243 3.41561 9.6243 3.60417 9.6243H4.60018Z" fill="#141B34"/>
<path fill-rule="evenodd" clip-rule="evenodd" d="M20.5262 10.9045C20.5358 10.9781 20.5474 11.0811 20.5586 11.1862C20.5803 11.3899 20.5911 11.4917 20.5314 11.558C20.4717 11.6243 20.3687 11.6242 20.1628 11.6238C19.5203 11.6227 18.5457 11.6181 18.3716 11.6001C18.1654 11.5788 18.0844 11.5437 18.0333 11.5121C17.7539 11.3395 17.3869 11.002 17.0837 10.6379C17.0106 10.5501 17.0011 10.4907 17.0011 10.374V7.26202C17.0011 7.03047 17.0011 6.91469 17.083 6.85476C17.1648 6.79483 17.2686 6.82772 17.4761 6.89348C17.6799 6.95805 17.8606 7.0335 18.0275 7.12101C18.8255 7.5394 19.4899 8.16592 19.9479 8.93106C20.2262 9.39584 20.4059 9.97887 20.5262 10.9045ZM15.0011 6.96624C15.0011 6.78301 15.0011 6.69139 14.9441 6.63309C14.8871 6.57479 14.7962 6.57277 14.6144 6.56872C13.9086 6.55301 13.0832 6.55273 12.095 6.55273C12.0431 6.55273 12.001 6.59481 12.001 6.64671L12.0011 9.22417C12.0011 9.41273 12.0011 9.50701 12.0597 9.56558C12.1183 9.62416 12.2125 9.62416 12.4011 9.62416H14.6011C14.7897 9.62416 14.884 9.62416 14.9425 9.56558C15.0011 9.507 15.0011 9.41272 15.0011 9.22416V6.96624ZM9.60109 9.62416C9.78966 9.62416 9.88394 9.62416 9.94252 9.56558C10.0011 9.507 10.0011 9.41271 10.0011 9.22414L10.001 6.95272C10.001 6.76417 10.001 6.66989 9.94242 6.61131C9.88385 6.55273 9.78957 6.55273 9.60101 6.55273H7.40101C7.21245 6.55273 7.11816 6.55273 7.05958 6.61132C7.001 6.6699 7.00101 6.76418 7.00101 6.95275L7.00109 9.22417C7.00109 9.41273 7.0011 9.50701 7.05968 9.56558C7.11825 9.62416 7.21253 9.62416 7.40109 9.62416H9.60109ZM4.60109 9.62416C4.78966 9.62416 4.88394 9.62416 4.94252 9.56558C5.0011 9.507 5.00109 9.41271 5.00109 9.22414L5.00101 6.95313C5.00101 6.76394 5.001 6.66935 4.94186 6.61068C4.88272 6.55201 4.78865 6.55276 4.60053 6.55426C4.19879 6.55747 3.91218 6.5673 3.6862 6.59716C3.40387 6.63446 3.3549 6.68833 3.34854 6.69533C3.34196 6.70099 3.2879 6.74748 3.25018 7.02318C3.20717 7.33756 3.20508 7.77208 3.20508 8.4813V9.22416C3.20508 9.41272 3.20508 9.507 3.26366 9.56558C3.32224 9.62416 3.41652 9.62416 3.60508 9.62416H4.60109Z" fill="#141B34"/>
<circle cx="17" cy="17.375" r="2.5" fill="#141B34"/>
<circle cx="7" cy="17.375" r="2.5" fill="#141B34"/>
</svg>
