<svg width="25" height="24" viewBox="0 0 25 24" fill="none" xmlns="http://www.w3.org/2000/svg">
<path d="M4.11719 8C4.11719 6.11438 4.11719 5.17157 4.70297 4.58579C5.28876 4 6.23157 4 8.11719 4H8.54903C9.32377 4 9.71114 4 10.0631 4.13798C10.415 4.27596 10.6992 4.53922 11.2675 5.06575L12.9367 6.61216C13.4679 7.10431 13.7335 7.35038 13.8942 7.66172C13.934 7.73863 13.9686 7.81804 13.9981 7.89944C14.1172 8.22897 14.1172 8.59104 14.1172 9.31519C14.1172 10.8963 14.1172 11.6869 13.6952 12.2288C13.5937 12.3592 13.4764 12.4765 13.346 12.578C12.8041 13 12.0135 13 10.4324 13H8.11719C6.23157 13 5.28876 13 4.70297 12.4142C4.11719 11.8284 4.11719 10.8856 4.11719 9V8Z" fill="white"/>
<path d="M8.66339 3.25007C9.32585 3.24946 9.84997 3.24899 10.3368 3.43986C10.8237 3.63073 11.2079 3.98729 11.6934 4.43795L13.5252 6.13503C13.9795 6.55525 14.3382 6.88703 14.5606 7.31774C14.6153 7.42349 14.6629 7.53267 14.7034 7.6446C14.8682 8.10047 14.8678 8.58911 14.8673 9.20799C14.8673 9.96164 14.8672 10.741 14.8096 11.2467C14.7492 11.7775 14.6172 12.2656 14.2869 12.6897C14.1473 12.869 13.9861 13.0303 13.8068 13.1699C13.3827 13.5001 12.8945 13.6321 12.3638 13.6926C11.8581 13.7502 11.2294 13.7502 10.4757 13.7501H10.4757L8.0652 13.7501H8.06516C7.1667 13.7502 6.41749 13.7502 5.82271 13.6702C5.19492 13.5858 4.62812 13.4001 4.17265 12.9447C3.71718 12.4892 3.53151 11.9224 3.4471 11.2946C3.36714 10.6998 3.36716 9.95063 3.36719 9.05217V9.05214V7.94814V7.9481C3.36716 7.04964 3.36714 6.30043 3.4471 5.70566C3.53151 5.07786 3.71718 4.51106 4.17265 4.05559C4.62812 3.60012 5.19492 3.41445 5.82271 3.33005C6.41749 3.25008 7.16671 3.25011 8.06519 3.25013L8.66339 3.25007Z" fill="#141B34"/>
<path opacity="0.4" d="M1.36328 19C1.36328 16.9289 3.04221 15.25 5.11328 15.25H15.1133C17.1843 15.25 18.8633 16.9289 18.8633 19C18.8633 21.0711 17.1843 22.75 15.1133 22.75H5.11328C3.04221 22.75 1.36328 21.0711 1.36328 19Z" fill="#141B34"/>
<path fill-rule="evenodd" clip-rule="evenodd" d="M5.11328 19C5.11328 18.4477 5.561 18 6.11328 18H6.12225C6.67454 18 7.12225 18.4477 7.12225 19C7.12225 19.5523 6.67454 20 6.12225 20H6.11328C5.561 20 5.11328 19.5523 5.11328 19ZM9.1088 19C9.1088 18.4477 9.55651 18 10.1088 18H10.1178C10.6701 18 11.1178 18.4477 11.1178 19C11.1178 19.5523 10.6701 20 10.1178 20H10.1088C9.55651 20 9.1088 19.5523 9.1088 19ZM13.1043 19C13.1043 18.4477 13.552 18 14.1043 18H14.1133C14.6656 18 15.1133 18.4477 15.1133 19C15.1133 19.5523 14.6656 20 14.1133 20H14.1043C13.552 20 13.1043 19.5523 13.1043 19Z" fill="#141B34"/>
<path opacity="0.4" fill-rule="evenodd" clip-rule="evenodd" d="M19.6233 1.0001C19.684 1.00015 19.7455 1.0002 19.8077 1.0002H20.1133C20.6656 1.0002 21.1133 1.44792 21.1133 2.0002C21.1133 2.55249 20.6656 3.0002 20.1133 3.0002H19.8077C18.392 3.0002 17.9864 3.02069 17.6412 3.17572C17.2959 3.33075 17.0112 3.62026 16.0706 4.67838L13.8607 7.16457C13.4938 7.57735 12.8617 7.61453 12.4489 7.24761C12.0361 6.88069 11.999 6.24862 12.3659 5.83584L14.5758 3.34966C14.6172 3.30314 14.6579 3.25718 14.6982 3.21181C15.4585 2.35499 16.0361 1.70409 16.8219 1.35124C17.6076 0.998399 18.4778 0.999133 19.6233 1.0001Z" fill="#141B34"/>
<path fill-rule="evenodd" clip-rule="evenodd" d="M20.1144 4C20.6666 4 21.1144 4.44772 21.1144 5V5.5C21.1144 6.05228 20.6666 6.5 20.1144 6.5C19.5621 6.5 19.1144 6.05228 19.1144 5.5V5C19.1144 4.44772 19.5621 4 20.1144 4ZM20.1144 7C20.6666 7 21.1144 7.44772 21.1144 8V8.5C21.1144 9.05228 20.6666 9.5 20.1144 9.5C19.5621 9.5 19.1144 9.05228 19.1144 8.5V8C19.1144 7.44772 19.5621 7 20.1144 7ZM21.0174 10.6802C20.884 10.2848 20.5101 10 20.0696 10C19.5173 10 19.0696 10.4477 19.0696 11V11.5C19.0696 12.0523 19.5173 12.5 20.0696 12.5C20.3974 12.5 20.6136 12.7509 20.6136 13C20.6136 13.2491 20.3974 13.5 20.0696 13.5C19.8163 13.5 19.621 13.3442 19.5533 13.1581C19.3645 12.6391 18.7907 12.3714 18.2717 12.5603C17.7527 12.7491 17.485 13.3229 17.6738 13.8419C18.03 14.821 18.9785 15.5 20.0696 15.5C21.4472 15.5 22.6136 14.4077 22.6136 13C22.6136 11.9323 21.9426 11.0461 21.0174 10.6802Z" fill="#141B34"/>
</svg>
