<svg width="25" height="24" viewBox="0 0 25 24" fill="none" xmlns="http://www.w3.org/2000/svg">
<path fill-rule="evenodd" clip-rule="evenodd" d="M1.11328 17.875C1.11328 15.6659 2.90414 13.875 5.11328 13.875H19.1133C21.3224 13.875 23.1133 15.6659 23.1133 17.875C23.1133 20.0841 21.3224 21.875 19.1133 21.875H5.11328C2.90414 21.875 1.11328 20.0841 1.11328 17.875ZM5.11328 15.875C4.00871 15.875 3.11328 16.7704 3.11328 17.875C3.11328 18.9796 4.00871 19.875 5.11328 19.875H19.1133C20.2178 19.875 21.1133 18.9796 21.1133 17.875C21.1133 16.7704 20.2179 15.875 19.1133 15.875H5.11328Z" fill="#141B34"/>
<path opacity="0.4" fill-rule="evenodd" clip-rule="evenodd" d="M6.11328 17.875C6.11328 17.3227 6.561 16.875 7.11328 16.875H7.12226C7.67454 16.875 8.12226 17.3227 8.12226 17.875C8.12226 18.4273 7.67454 18.875 7.12226 18.875H7.11328C6.561 18.875 6.11328 18.4273 6.11328 17.875ZM11.1088 17.875C11.1088 17.3227 11.5565 16.875 12.1088 16.875H12.1178C12.6701 16.875 13.1178 17.3227 13.1178 17.875C13.1178 18.4273 12.6701 18.875 12.1178 18.875H12.1088C11.5565 18.875 11.1088 18.4273 11.1088 17.875ZM16.1043 17.875C16.1043 17.3227 16.552 16.875 17.1043 16.875H17.1133C17.6656 16.875 18.1133 17.3227 18.1133 17.875C18.1133 18.4273 17.6656 18.875 17.1133 18.875H17.1043C16.552 18.875 16.1043 18.4273 16.1043 17.875Z" fill="#141B34"/>
<path opacity="0.4" d="M12.1682 2.125C13.5358 2.12498 14.6381 2.12496 15.505 2.24152C16.4051 2.36254 17.163 2.62143 17.7649 3.22335C18.3668 3.82527 18.6257 4.58314 18.7468 5.48325C18.8633 6.35022 18.8633 7.45254 18.8633 8.82012V8.82013V8.92987V8.92988C18.8633 10.2975 18.8633 11.3998 18.7468 12.2668C18.6257 13.1669 18.3668 13.9247 17.7649 14.5267C17.163 15.1286 16.4051 15.3875 15.505 15.5085C14.6381 15.625 13.5357 15.625 12.1682 15.625H12.1682H12.0584H12.0584C10.6908 15.625 9.5885 15.625 8.72153 15.5085C7.82142 15.3875 7.06355 15.1286 6.46163 14.5267C5.85972 13.9247 5.60082 13.1669 5.47981 12.2668C5.36324 11.3998 5.36326 10.2975 5.36328 8.92989V8.92988V8.82013V8.82011C5.36326 7.45253 5.36324 6.35021 5.47981 5.48325C5.60082 4.58314 5.85972 3.82527 6.46163 3.22335C7.06355 2.62143 7.82142 2.36254 8.72153 2.24152C9.58849 2.12496 10.6908 2.12498 12.0584 2.125H12.0584H12.1682H12.1682Z" fill="#141B34"/>
<path fill-rule="evenodd" clip-rule="evenodd" d="M9.61328 5.875C9.61328 5.32272 10.061 4.875 10.6133 4.875H13.6133C14.1656 4.875 14.6133 5.32272 14.6133 5.875C14.6133 6.42728 14.1656 6.875 13.6133 6.875H10.6133C10.061 6.875 9.61328 6.42728 9.61328 5.875Z" fill="#141B34"/>
</svg>
