<svg width="25" height="24" viewBox="0 0 25 24" fill="none" xmlns="http://www.w3.org/2000/svg">
<path fill-rule="evenodd" clip-rule="evenodd" d="M1.11328 4C1.11328 3.44772 1.561 3 2.11328 3H13.1133C13.6656 3 14.1133 3.44772 14.1133 4C14.1133 4.55228 13.6656 5 13.1133 5H2.11328C1.561 5 1.11328 4.55228 1.11328 4Z" fill="#141B34"/>
<path opacity="0.4" fill-rule="evenodd" clip-rule="evenodd" d="M5.61328 8C5.61328 7.44772 6.061 7 6.61328 7H8.61328C9.16557 7 9.61328 7.44772 9.61328 8C9.61328 8.55228 9.16557 9 8.61328 9H6.61328C6.061 9 5.61328 8.55228 5.61328 8Z" fill="#141B34"/>
<path d="M3.11349 3C3.66577 3 4.11349 3.44772 4.11349 4V16C4.11349 16.2416 4.11373 16.3894 4.11884 16.5014C4.13137 16.7762 4.32448 16.9815 4.61209 16.9946C4.72412 16.9998 4.87193 17 5.11349 17V19C4.71288 19 4.31641 19.0086 3.96644 18.9148C3.10371 18.6836 2.42984 18.0098 2.19867 17.147C2.1049 16.7971 2.11349 16.4006 2.11349 16V4C2.11349 3.44772 2.5612 3 3.11349 3Z" fill="#141B34"/>
<path d="M11.1135 17V4C11.1135 3.44772 11.5612 3 12.1135 3C12.6658 3 13.1135 3.44772 13.1135 4V19H9.11328V17H11.1135Z" fill="#141B34"/>
<path opacity="0.4" d="M11.3635 10C11.3635 9.58579 11.6993 9.25 12.1135 9.25H16.9739C17.6486 9.25 18.3274 9.30118 18.8411 9.72232C19.3548 10.1435 19.5381 10.7991 19.6705 11.4607C19.6943 11.5796 19.71 11.6963 19.7213 11.783C20.8006 11.9504 21.5235 12.7194 21.8937 13.5833C22.4018 14.7689 22.8629 15.9775 22.8633 17.2884C22.8634 17.4935 22.8635 17.7153 22.8383 17.9025C22.8088 18.1218 22.733 18.402 22.4972 18.6378C22.2614 18.8736 21.9812 18.9494 21.7619 18.9789C21.5746 19.0041 21.3528 19.004 21.1477 19.0039H20.7556C20.5132 19.0039 20.392 19.0039 20.3322 18.9348C20.2724 18.8658 20.2915 18.7334 20.3298 18.4686C20.3518 18.3156 20.3633 18.1591 20.3633 18C20.3633 16.2051 18.9082 14.75 17.1133 14.75C15.3184 14.75 13.8633 16.2051 13.8633 18C13.8633 18.1591 13.8747 18.3156 13.8968 18.4686C13.935 18.7334 13.9542 18.8658 13.8943 18.9348C13.8345 19.0039 13.7133 19.0039 13.471 19.0039L12.1133 19.0039C11.6991 19.0039 11.3633 18.6681 11.3633 18.2539L11.3635 10Z" fill="#141B34"/>
<path fill-rule="evenodd" clip-rule="evenodd" d="M14.3633 12.5C14.3633 12.0858 14.6991 11.75 15.1133 11.75H15.6133C16.0275 11.75 16.3633 12.0858 16.3633 12.5C16.3633 12.9142 16.0275 13.25 15.6133 13.25H15.1133C14.6991 13.25 14.3633 12.9142 14.3633 12.5Z" fill="#141B34"/>
<path d="M14.1133 7C14.1133 6.44772 14.561 6 15.1133 6H17.1133C17.6656 6 18.1133 6.44772 18.1133 7C18.1133 7.55228 17.6656 8 17.1133 8V9.25083C17.0668 9.25024 17.0203 9.25 16.9739 9.25H15.1133V8C14.561 8 14.1133 7.55228 14.1133 7Z" fill="#141B34"/>
<path fill-rule="evenodd" clip-rule="evenodd" d="M7.11328 16.75C6.42293 16.75 5.86328 17.3096 5.86328 18C5.86328 18.6904 6.42293 19.25 7.11328 19.25C7.80364 19.25 8.36328 18.6904 8.36328 18C8.36328 17.3096 7.80364 16.75 7.11328 16.75ZM4.36328 18C4.36328 16.4812 5.5945 15.25 7.11328 15.25C8.63206 15.25 9.86328 16.4812 9.86328 18C9.86328 19.5188 8.63206 20.75 7.11328 20.75C5.5945 20.75 4.36328 19.5188 4.36328 18Z" fill="#141B34"/>
<circle cx="17.1133" cy="18" r="2.25" fill="#141B34"/>
</svg>
