<svg width="24" height="24" viewBox="0 0 24 24" fill="none" xmlns="http://www.w3.org/2000/svg">
<path fill-rule="evenodd" clip-rule="evenodd" d="M3 2.25C2.58579 2.25 2.25 2.58579 2.25 3L2.25 21C2.25 21.4142 2.58579 21.75 3 21.75L21 21.75C21.4142 21.75 21.75 21.4142 21.75 21L21.75 3C21.75 2.58579 21.4142 2.25 21 2.25L3 2.25ZM14.1307 6.91811L10.0916 13.2654H12.4979L12.4979 14.7654H9.13701L7.13073 17.9181L5.86523 17.1128L7.35904 14.7654H6.49791V13.2654H8.31359L11.1757 8.76784L9.88659 6.9492L11.1103 6.08179L12.0454 7.40103L12.8652 6.11279L14.1307 6.91811ZM12.7641 11.4156L16.8641 17.9156L18.1328 17.1154L16.6505 14.7654H17.4979V13.2654H15.7044L14.0328 10.6154L12.7641 11.4156Z" fill="#141B34"/>
</svg>
