<svg width="24" height="24" viewBox="0 0 24 24" fill="none" xmlns="http://www.w3.org/2000/svg">
<path d="M12.8535 5.47265C12.9359 5.01905 13.0722 4.52511 13.2798 4.08032C13.6699 3.24444 14.2164 2.75 15.0008 2.75V1.25C13.3852 1.25 12.431 2.35203 11.9205 3.44596C11.4893 4.36984 11.3067 5.40718 11.2613 6.15592C9.08085 7.45529 7.54947 10.0147 7.25467 12.9244L5.76231 12.7732C6.06659 9.76997 7.5767 6.92725 9.88127 5.2619C9.75488 5.254 9.6276 5.25 9.49951 5.25C5.35743 5.25 2.24951 9.32054 2.24951 14C2.24951 18.6795 5.35743 22.75 9.49951 22.75C9.6374 22.75 9.77436 22.7454 9.91028 22.7362C9.41609 22.3805 8.95954 21.9726 8.54649 21.5239L9.65008 20.508C10.6932 21.6411 12.0294 22.4299 13.5254 22.6718C13.8438 22.7233 14.1693 22.75 14.5008 22.75C18.6428 22.75 21.7508 18.6795 21.7508 14C21.7508 9.32054 18.6428 5.25 14.5008 5.25C14.1595 5.25 13.8246 5.27779 13.4976 5.3314C13.2793 5.36718 13.0645 5.41446 12.8535 5.47265Z" fill="#141B34"/>
</svg>
