<svg width="24" height="24" viewBox="0 0 24 24" fill="none" xmlns="http://www.w3.org/2000/svg">
<path fill-rule="evenodd" clip-rule="evenodd" d="M13 1.25H13.75V12.9116C11.6119 12.9862 9.65184 14.0091 8.42964 15.4417C8.42121 15.4516 8.41304 15.4617 8.40513 15.472C8.2016 15.7374 8.05688 15.8211 7.98015 15.8501C7.91204 15.8758 7.82984 15.8845 7.6867 15.8498C7.52434 15.8103 7.34117 15.7304 7.07388 15.606L7.0217 15.5817C6.78526 15.4714 6.4899 15.3335 6.17377 15.2351C5.77199 15.1099 5.33212 15.1382 4.97074 15.1973C4.59266 15.2591 4.20944 15.3706 3.87761 15.4848C3.54282 15.6 3.24255 15.7242 3.02684 15.8189C2.91849 15.8665 2.83024 15.9073 2.76821 15.9366C2.73716 15.9512 2.7126 15.963 2.69529 15.9714L2.67483 15.9814L2.66883 15.9844L2.66693 15.9854L2.66598 15.9858C2.65753 15.99 2.64894 15.9945 2.64066 15.999C2.53232 16.0582 2.40033 16.135 2.25 16.228V12.75H6V11.25H2.25V9.25H6.05859V7.75H2.25V5.75C2.25 5.75 2.84663 5.03757 3.05873 4.83396C3.48279 4.42686 4.11834 3.89269 4.98193 3.36126C6.71408 2.29532 9.34877 1.25 13 1.25ZM9 6.00049C9 5.4482 9.44772 5.00049 10 5.00049H10.009C10.5613 5.00049 11.009 5.4482 11.009 6.00049C11.009 6.55277 10.5613 7.00049 10.009 7.00049H10C9.44772 7.00049 9 6.55277 9 6.00049ZM10 9.00049C9.44772 9.00049 9 9.4482 9 10.0005C9 10.5528 9.44772 11.0005 10 11.0005H10.009C10.5613 11.0005 11.009 10.5528 11.009 10.0005C11.009 9.4482 10.5613 9.00049 10.009 9.00049H10Z" fill="#141B34"/>
<path d="M14.0002 14.4072H16.2278C17.4044 15.0538 18.7091 15.7857 19.0399 15.9718L19.041 15.9725C19.1195 16.0235 19.1984 16.0748 19.2776 16.1271C19.0824 16.1897 18.9205 16.2479 18.7987 16.2963C17.5288 16.7312 15.3086 18.458 15.3086 22.0001V22.7502H6C3.92893 22.7502 2.25 21.0713 2.25 19.0002V18.0368C2.70563 17.7046 3.10109 17.4579 3.34597 17.323L3.3507 17.3207C3.36325 17.3146 3.38273 17.3052 3.40841 17.2931C3.45982 17.2688 3.53574 17.2337 3.63028 17.1922C3.82038 17.1087 4.08083 17.0012 4.36573 16.9031C4.65359 16.8041 4.94902 16.7207 5.21262 16.6776C5.49291 16.6318 5.65771 16.6454 5.72767 16.6672C5.94403 16.7346 6.15431 16.8325 6.41217 16.9526L6.4409 16.9659C6.68914 17.0815 7.00339 17.2274 7.33273 17.3074C7.68129 17.3921 8.08509 17.4137 8.50968 17.2535C8.91997 17.0987 9.27064 16.8038 9.58239 16.4017C10.5772 15.2441 12.2249 14.4072 14.0002 14.4072Z" fill="#141B34"/>
<path d="M21.75 22.7502H16.8086V22.0001C16.8086 19.1635 18.5617 17.9563 19.2958 17.7117C19.3105 17.7067 19.3251 17.7014 19.3396 17.6955C19.5652 17.6043 20.0384 17.447 20.6515 17.3054C20.7577 17.439 20.8581 17.5834 20.9511 17.7409C21.5 18.6702 21.75 19.9612 21.75 22.0002V22.7502Z" fill="#141B34"/>
</svg>
