<svg width="24" height="24" viewBox="0 0 24 24" fill="none" xmlns="http://www.w3.org/2000/svg">
<path fill-rule="evenodd" clip-rule="evenodd" d="M19.6883 4.22633C19.7647 4.02219 19.8374 3.82809 19.9026 3.63246L18.0052 3C17.9548 3.15115 17.893 3.31546 17.8239 3.49898C17.5083 4.3372 17.0418 5.57632 16.8285 7.79341L18.8193 7.985C19.0055 6.04988 19.3779 5.05531 19.6883 4.22633ZM5.68393 3.49899C5.61483 3.31546 5.55297 3.15115 5.50259 3L3.60522 3.63246C3.67043 3.82809 3.74311 4.02219 3.81955 4.22634C4.12994 5.05532 4.50233 6.04989 4.68856 7.985L6.67936 7.79341C6.466 5.57632 5.9995 4.33721 5.68393 3.49899ZM19.746 17.0235C19.5881 16.6014 19.4357 16.1792 19.2982 15.7155L17.3807 16.2841C17.5383 16.8157 17.7103 17.2898 17.8728 17.7244C17.9067 17.8149 17.9398 17.9028 17.9722 17.9889C18.0986 18.3244 18.2141 18.631 18.3196 18.9466C18.575 19.7108 18.7539 20.4789 18.7539 21.4998H20.7539C20.7539 20.2096 20.5207 19.223 20.2164 18.3126C20.0978 17.9577 19.9655 17.6066 19.8377 17.2674C19.8068 17.1854 19.7762 17.1041 19.746 17.0235ZM5.63496 17.7244C5.79756 17.2898 5.96949 16.8157 6.12712 16.2841L4.20963 15.7155C4.07215 16.1792 3.91973 16.6014 3.76178 17.0235C3.73165 17.1041 3.70101 17.1854 3.67011 17.2674C3.5423 17.6066 3.41001 17.9577 3.29138 18.3126C2.98711 19.223 2.75391 20.2096 2.75391 21.4998H4.75391C4.75391 20.4789 4.93283 19.7108 5.18824 18.9466C5.29372 18.631 5.4092 18.3244 5.53556 17.9889C5.56797 17.9028 5.6011 17.8149 5.63496 17.7244Z" fill="#141B34"/>
<path fill-rule="evenodd" clip-rule="evenodd" d="M4.47888 20.4611C9.3251 21.8458 14.1821 21.8458 19.0283 20.4611L18.4789 18.5381C13.9918 19.8201 9.51543 19.8201 5.02832 18.5381L4.47888 20.4611Z" fill="#141B34"/>
<path d="M2.0552 5.81491C1.82319 5.71155 1.55462 5.73264 1.34159 5.87095C1.12855 6.00927 1 6.24601 1 6.5V12.5C1 12.7962 1.17427 13.0646 1.4448 13.1851C2.83749 13.8055 4.37044 14.3024 6.00536 14.6531V11.5H7.50536V14.929C8.63505 15.1031 9.80503 15.2091 11.0039 15.2403V12H12.5039V15.2401C13.7033 15.2086 14.8738 15.1022 16.0039 14.9276V11.5H17.5039V14.6511C19.1354 14.3005 20.6651 13.8043 22.0552 13.1851C22.3257 13.0646 22.5 12.7962 22.5 12.5V6.5C22.5 6.24601 22.3714 6.00927 22.1584 5.87095C21.9454 5.73264 21.6768 5.71155 21.4448 5.81491C18.7202 7.02868 15.3761 7.75 11.75 7.75C8.12387 7.75 4.77979 7.02868 2.0552 5.81491Z" fill="#141B34"/>
</svg>
