<svg width="24" height="24" viewBox="0 0 24 24" fill="none" xmlns="http://www.w3.org/2000/svg">
<path fill-rule="evenodd" clip-rule="evenodd" d="M1.25 10.8866C1.25 5.56426 5.56566 1.25 10.8889 1.25C16.2121 1.25 20.5278 5.56426 20.5278 10.8866V11.8228L22.6707 16.1051C22.7634 16.2903 22.7754 16.5056 22.7038 16.7C22.6321 16.8944 22.4833 17.0504 22.2926 17.1313L20.1969 18.0193L19.9427 20.3035C19.7882 21.6927 18.6159 22.7458 17.2169 22.7483C17.0144 22.7486 16.538 22.7488 15.8816 22.7488C15.5277 22.7479 15.2609 22.7463 15.15 22.7436C13.4643 22.7026 12.25 21.289 12.25 19.7041H10.75C10.75 20.8315 11.1718 21.9197 11.9006 22.7479L4.2224 22.7448C3.80833 22.7446 3.47222 22.4089 3.47222 21.9948V18.4451C3.47222 17.8825 3.39973 17.4863 3.26761 17.1162C3.12947 16.7293 2.91727 16.3434 2.58951 15.79C1.73836 14.353 1.25 12.6757 1.25 10.8866ZM16.1667 7.21631C15.7721 6.75478 15.1975 6.45951 14.4952 6.43216C14.1998 5.24939 13.2033 4.50658 12.1611 4.30715C11.1075 4.10554 9.88999 4.43743 9.18455 5.45232C8.11886 5.11848 7.02564 5.49229 6.29961 6.16928C5.57544 6.84455 5.13201 7.89844 5.39126 8.98918C4.55236 9.47724 4.19608 10.4225 4.25656 11.2638C4.33509 12.3562 5.13342 13.5157 6.62019 13.5157C7.43959 13.5157 8.16184 13.1051 8.5966 12.4836L7.36746 11.6238C7.19976 11.8635 6.92668 12.0157 6.62019 12.0157C6.09945 12.0157 5.78866 11.6564 5.7527 11.1562C5.71653 10.6531 5.97594 10.2506 6.48413 10.1744C6.73047 10.1375 6.94241 9.98063 7.04974 9.75584C7.15707 9.53106 7.14579 9.26765 7.01965 9.05286C6.64446 8.41403 6.82497 7.73034 7.32258 7.26635C7.82669 6.79629 8.52368 6.67321 9.09935 7.06174C9.4944 7.32837 9.75396 7.78145 9.75396 8.2972H11.254C11.254 7.51053 10.9506 6.79424 10.4553 6.26104C10.7903 5.83053 11.3314 5.67559 11.8792 5.78041C12.5779 5.91411 13.1154 6.43827 13.0815 7.24466C13.0711 7.49392 13.1852 7.73208 13.3861 7.88003C13.587 8.02799 13.8483 8.06636 14.0832 7.98242C14.1775 7.94872 14.2797 7.93008 14.3877 7.93008C14.7112 7.93008 14.904 8.04763 15.0267 8.19115C15.163 8.35057 15.2497 8.58897 15.2497 8.85576C15.2497 9.12254 15.163 9.36094 15.0267 9.52037C14.904 9.66388 14.7112 9.78144 14.3877 9.78144C14.1545 9.78144 13.9427 9.69403 13.7801 9.54758L12.776 10.6619C13 10.8637 13.2624 11.0244 13.5509 11.1316C13.4933 11.319 13.4093 11.4836 13.3059 11.6154C13.1173 11.8559 12.8464 12.0157 12.4458 12.0157C11.5684 12.0157 10.8683 12.4001 10.4055 12.9902C9.95762 13.5613 9.75396 14.292 9.75396 14.9999H11.254C11.254 14.5619 11.3822 14.1755 11.5858 13.9159C11.7744 13.6754 12.0453 13.5157 12.4458 13.5157C13.3233 13.5157 14.0234 13.1312 14.4862 12.5411C14.7956 12.1465 14.9885 11.6757 15.0782 11.1889C15.5187 11.0648 15.8877 10.8215 16.1667 10.4952C16.5677 10.0262 16.7497 9.42681 16.7497 8.85576C16.7497 8.2847 16.5677 7.68527 16.1667 7.21631Z" fill="#141B34"/>
</svg>
