<svg width="24" height="24" viewBox="0 0 24 24" fill="none" xmlns="http://www.w3.org/2000/svg">
<path d="M1.75 6C1.75 5.58579 2.08579 5.25 2.5 5.25H21.5004C21.6993 5.25 21.8901 5.32903 22.0308 5.46969C22.1714 5.61036 22.2504 5.80114 22.2504 6.00006L22.25 11.5497L12.0004 14.7865L1.75 11.5497V6Z" fill="#141B34"/>
<path d="M21.2872 21.5001C21.2872 21.9144 20.9514 22.2501 20.5372 22.2501H3.46191C3.26299 22.2501 3.07221 22.1711 2.93156 22.0304C2.7909 21.8898 2.71189 21.699 2.71191 21.5001L2.71269 13.4269L12.0001 16.3597L21.2872 13.4268V21.5001Z" fill="#141B34"/>
<path fill-rule="evenodd" clip-rule="evenodd" d="M7.5 2.75C7.5 2.19772 7.94772 1.75 8.5 1.75H15.5C16.0523 1.75 16.5 2.19772 16.5 2.75V6.25H14.5V3.75H9.5V6.25H7.5V2.75Z" fill="#141B34"/>
</svg>
