<svg width="24" height="24" viewBox="0 0 24 24" fill="none" xmlns="http://www.w3.org/2000/svg">
<path fill-rule="evenodd" clip-rule="evenodd" d="M12.752 5.59118C12.752 3.19361 14.6956 1.25 17.0931 1.25C19.4907 1.25 21.4343 3.19361 21.4343 5.59118C21.4343 6.37842 21.2248 7.11672 20.8584 7.75334L22.7494 9.64078L21.1453 11.25L19.2508 9.35904C18.6152 9.7238 17.8785 9.93237 17.0931 9.93237C14.6956 9.93237 12.752 7.98875 12.752 5.59118ZM17.0931 3.52214C15.9504 3.52214 15.0241 4.44848 15.0241 5.59118C15.0241 6.73388 15.9504 7.66022 17.0931 7.66022C18.2358 7.66022 19.1622 6.73388 19.1622 5.59118C19.1622 4.44848 18.2358 3.52214 17.0931 3.52214Z" fill="#141B34"/>
<path fill-rule="evenodd" clip-rule="evenodd" d="M11.502 5.59118C11.502 3.89161 12.2603 2.36914 13.457 1.34369C12.9802 1.2819 12.4938 1.25 12 1.25C6.10029 1.25 1.25 5.80369 1.25 11.5C1.25 14.2189 2.36071 16.6855 4.16134 18.5143L3.25001 22.75L8.01735 21.0233C9.25046 21.4925 10.5948 21.75 12 21.75C17.8997 21.75 22.75 17.1963 22.75 11.5C22.75 11.4704 22.7499 11.4407 22.7496 11.4112L21.1476 13.0184L18.9806 10.8554C18.3901 11.0671 17.7543 11.1824 17.0931 11.1824C14.0052 11.1824 11.502 8.67911 11.502 5.59118ZM9.00897 11H7V13H9.00897V11ZM13.0045 13V11H10.9955V13H13.0045Z" fill="#141B34"/>
</svg>
