<svg width="24" height="24" viewBox="0 0 24 24" fill="none" xmlns="http://www.w3.org/2000/svg">
<path d="M5.08298 11.7457C5.94804 13.1708 7.02544 14.5303 8.24816 15.7521C9.46981 16.9746 10.8292 18.0523 12.254 18.9174L15.8319 15.0788L22.75 19.0189C21.7459 20.8831 19.3379 23.2672 16.2785 22.6508C14.8327 22.3591 13.4059 21.8729 11.6806 20.8831C9.94403 19.8868 8.30439 18.6143 6.84762 17.1565C5.38978 15.6997 4.11324 14.056 3.11692 12.3194C2.12706 10.5941 1.64092 9.16735 1.34916 7.72156C0.732841 4.66214 3.11692 2.25408 4.98109 1.25L8.92117 8.16817L5.08298 11.7457Z" fill="#141B34"/>
<path fill-rule="evenodd" clip-rule="evenodd" d="M14.793 2.29297L16.2073 3.70718L15.4144 4.50008H16.0002C18.7616 4.50008 21.0002 6.73865 21.0002 9.50008V11.0001H19.0002V9.50008C19.0002 7.84322 17.657 6.50008 16.0002 6.50008H15.4144L16.2073 7.29297L14.793 8.70718L11.5859 5.50008L14.793 2.29297Z" fill="#141B34"/>
</svg>
