<svg width="24" height="24" viewBox="0 0 24 24" fill="none" xmlns="http://www.w3.org/2000/svg">
<path fill-rule="evenodd" clip-rule="evenodd" d="M8.32915 1.66465C8.45618 1.41053 8.7159 1.25 9 1.25H15C15.2841 1.25 15.5438 1.4105 15.6708 1.66459L17.4635 5.25H22.0009C22.4152 5.25 22.7509 5.58579 22.7509 6V22.0003C22.7509 22.4145 22.4152 22.7503 22.0009 22.7503H2C1.58579 22.7503 1.25 22.4145 1.25 22.0003V6.00083C1.25 5.58662 1.58579 5.25083 2 5.25083H6.53643L8.32915 1.66465ZM13 5H11V7H13V5ZM15.7352 10V12.0844C15.7352 12.357 15.5872 12.6082 15.3488 12.7403C15.1104 12.8725 14.819 12.8649 14.5878 12.7204L13.7582 12.2021C13.7389 12.1901 13.7202 12.1771 13.702 12.1633C13.2364 11.8097 12.6601 11.6012 12.0344 11.6012C10.5038 11.6012 9.24905 12.8579 9.24905 14.4256C9.24905 15.9933 10.5038 17.25 12.0344 17.25C13.3749 17.25 14.504 16.2865 14.7637 14.9928L16.2344 15.2881C15.839 17.2575 14.1147 18.75 12.0344 18.75C9.65992 18.75 7.74905 16.8061 7.74905 14.4256C7.74905 12.0451 9.65992 10.1012 12.0344 10.1012C12.8388 10.1012 13.5922 10.3256 14.2352 10.7146V10H15.7352Z" fill="#141B34"/>
</svg>
