<svg width="24" height="24" viewBox="0 0 24 24" fill="none" xmlns="http://www.w3.org/2000/svg">
<path fill-rule="evenodd" clip-rule="evenodd" d="M20.0992 16.6285C20.9745 17.1826 21.25 17.6957 21.25 18.0669C21.25 18.3319 21.1165 18.664 20.7037 19.0479C20.2899 19.4327 19.6502 19.8137 18.7968 20.1494C17.0946 20.8189 14.6918 21.2494 12 21.2494C9.30818 21.2494 6.90543 20.8189 5.20321 20.1494C4.34982 19.8137 3.71008 19.4327 3.2963 19.0479C2.88353 18.664 2.75 18.3319 2.75 18.0669C2.75 17.6957 3.02552 17.1826 3.90084 16.6285L3.09916 15.3594C2.07275 16.0091 1.25 16.9166 1.25 18.0669C1.25 18.8881 1.67612 19.5907 2.2754 20.148C2.87367 20.7043 3.6984 21.1708 4.65466 21.5469C6.57172 22.301 9.16897 22.751 12 22.751C14.831 22.751 17.4283 22.301 19.3453 21.5469C20.3016 21.1708 21.1263 20.7043 21.7246 20.148C22.3239 19.5907 22.75 18.8881 22.75 18.0669C22.75 16.9166 21.9273 16.0091 20.9008 15.3594L20.0992 16.6285Z" fill="#141B34"/>
<path d="M14.75 5.98254C14.75 4.80974 14.0174 3.80824 12.9853 3.41162C13.1841 3.14995 13.5431 2.8666 14.1819 2.70673L13.8181 1.25C12.3417 1.61948 11.6247 2.52247 11.3667 3.30303C10.1532 3.58936 9.25 4.68036 9.25 5.98254C9.25 7.5029 10.4812 8.7354 12 8.7354C13.5188 8.7354 14.75 7.5029 14.75 5.98254Z" fill="#141B34"/>
<path d="M7.18961 6.30078C6.67003 6.53724 6.20475 6.83127 5.85919 7.19116C5.51015 7.55469 5.25 8.02389 5.25 8.57838V11.7665C5.53784 12.232 6.05835 12.702 6.85142 13.1221C8.13064 13.7999 9.94967 14.2418 12 14.2418C14.0503 14.2418 15.8694 13.7999 17.1486 13.1221C17.9417 12.702 18.4622 12.232 18.75 11.7665V8.57838C18.75 8.02389 18.4898 7.55469 18.1408 7.19116C17.7952 6.83127 17.33 6.53724 16.8104 6.30078L16.1896 7.66772C16.6036 7.85611 16.8883 8.05354 17.0594 8.2317C17.2269 8.40622 17.25 8.52166 17.25 8.57838C17.25 8.63907 17.2225 8.77221 17.0123 8.9718C16.8005 9.17298 16.4538 9.38875 15.9633 9.58575C14.9865 9.97811 13.5856 10.2376 12 10.2376C10.4144 10.2376 9.01346 9.97811 8.03665 9.58575C7.54621 9.38875 7.19954 9.17298 6.98769 8.9718C6.77752 8.77221 6.75 8.63907 6.75 8.57838C6.75 8.52166 6.77308 8.40622 6.94065 8.2317C7.1117 8.05354 7.39642 7.85611 7.81039 7.66772L7.18961 6.30078Z" fill="#141B34"/>
<path d="M18.75 13.8883C18.47 14.0939 18.1674 14.2812 17.8502 14.4493C16.3146 15.2629 14.245 15.7434 12 15.7434C9.75502 15.7434 7.68538 15.2629 6.14975 14.4493C5.8326 14.2812 5.53002 14.0939 5.25 13.8883V16.9947C5.25 17.5997 5.61818 18.0567 6.00728 18.3637C6.40483 18.6773 6.93362 18.9269 7.52019 19.1226C8.70117 19.5167 10.285 19.7475 12 19.7475C13.715 19.7475 15.2988 19.5167 16.4798 19.1226C17.0664 18.9269 17.5952 18.6773 17.9927 18.3637C18.3818 18.0567 18.75 17.5997 18.75 16.9947V13.8883Z" fill="#141B34"/>
</svg>
