<svg width="24" height="24" viewBox="0 0 24 24" fill="none" xmlns="http://www.w3.org/2000/svg">
<path d="M17.3107 9.99707L17.5303 10.1768C18.1016 10.6442 19.8549 11.6334 22 11.6334H22.75V12.247C22.75 12.7444 22.6187 13.1723 22.3468 13.5223C22.073 13.8746 21.6941 14.0999 21.2997 14.241C20.5822 14.4978 19.7344 14.4974 19.1989 14.497L19.1459 14.497H4.8541L4.80114 14.497C4.26558 14.4974 3.41779 14.4978 2.70034 14.241C2.30591 14.0999 1.92696 13.8746 1.65323 13.5223C1.38128 13.1723 1.25 12.7444 1.25 12.247V11.6334H2C4.14512 11.6334 5.8984 10.6442 6.46967 10.1768L6.68934 9.99707H17.3107Z" fill="#141B34"/>
<path d="M14.3107 0.999023L14.5303 1.18401C15.1016 1.66507 16.8549 2.68322 19 2.68322H19.75C19.75 3.19508 19.6187 3.63549 19.3468 3.99572C19.073 4.35831 18.6941 4.59021 18.2997 4.73551C17.5822 4.99981 16.7344 4.99931 16.1989 4.999L16.1459 4.99898H7.8541L7.80114 4.999H7.80114C7.26557 4.99931 6.41779 4.99981 5.70034 4.73551C5.30591 4.59021 4.92696 4.35831 4.65323 3.99572C4.38128 3.63549 4.25 3.19508 4.25 2.68322H5C7.14512 2.68322 8.8984 1.66507 9.46967 1.18401L9.68934 0.999023H14.3107Z" fill="#141B34"/>
<path d="M6.5 6.5H17.5V8.5H6.5V6.5Z" fill="#141B34"/>
<path fill-rule="evenodd" clip-rule="evenodd" d="M21 23H3V21.5H21V23Z" fill="#141B34"/>
<path d="M10.75 20.0005C10.75 19.3103 11.3096 18.7509 12 18.7509C12.6904 18.7509 13.25 19.3103 13.25 20.0005V21.9999H10.75V20.0005Z" fill="#141B34"/>
<path d="M9.25 21.9999V20.0005C9.25 18.4822 10.4812 17.2513 12 17.2513C13.5188 17.2513 14.75 18.4822 14.75 20.0005V21.9999L19.75 21.9999V15.9951C19.5535 16.0022 19.3808 16.002 19.2432 16.0018L19.1982 16.0017H4.80183L4.75679 16.0018C4.61926 16.002 4.44652 16.0022 4.25 15.9951V21.9999L9.25 21.9999Z" fill="#141B34"/>
</svg>
