<svg width="24" height="24" viewBox="0 0 24 24" fill="none" xmlns="http://www.w3.org/2000/svg">
<path d="M20.0212 8.40752C18.7843 7.36828 17.1167 7.0701 15.4448 7.34875C13.633 7.65072 11.7498 8.63326 10.1915 10.1915C8.63326 11.7498 7.65072 13.633 7.34875 15.4448C7.12314 16.7985 7.27567 18.1493 7.8935 19.271C8.37715 19.1933 8.77352 19.1165 9.01304 19.0644C9.17058 19.0125 9.33093 18.9638 9.49369 18.9142C10.1921 18.7017 10.9351 18.4757 11.691 17.9368C12.5968 17.291 13.5466 16.1571 14.1554 13.9249C15.1504 10.2763 18.1506 8.78414 19.6171 8.48059C19.7194 8.4539 19.8546 8.42841 20.0212 8.40752Z" fill="#141B34"/>
<path d="M21.1749 9.85858C20.49 9.84239 20.0905 9.90526 19.9934 9.93264C19.9747 9.93792 19.9558 9.94246 19.9368 9.94627C18.8753 10.1586 16.415 11.3406 15.6025 14.3196C14.9161 16.8366 13.788 18.2839 12.5618 19.1581C11.584 19.8552 10.5557 20.164 9.85099 20.3755C9.70125 20.4205 9.56612 20.4611 9.44917 20.5001C9.4247 20.5082 9.39983 20.5151 9.37465 20.5207C9.27268 20.5433 9.14228 20.5705 8.98849 20.6005C10.2243 21.6326 11.8872 21.9283 13.5544 21.6505C15.3662 21.3485 17.2494 20.366 18.8077 18.8077C20.366 17.2494 21.3485 15.3662 21.6505 13.5544C21.8674 12.2528 21.7347 10.9538 21.1749 9.85858Z" fill="#141B34"/>
<path d="M4.93362 4.00582C4.90623 3.90877 4.84336 3.50922 4.85956 2.82429C5.95476 2.2645 7.25377 2.13182 8.55538 2.34875C10.3672 2.65072 12.2504 3.63326 13.8087 5.19153C14.0705 5.45331 14.316 5.72427 14.5448 6.00251C12.8684 6.40554 11.2139 7.27701 9.77617 8.5293C9.62832 8.48346 9.47648 8.43924 9.32053 8.39671C6.34158 7.58426 5.15955 5.12394 4.94725 4.06242C4.94344 4.04338 4.93889 4.0245 4.93362 4.00582Z" fill="#141B34"/>
<path d="M8.56409 9.73649C5.17799 8.6482 3.77488 5.79921 3.48157 4.38211C3.45488 4.27984 3.42939 4.1446 3.4085 3.978C2.36926 5.21492 2.07108 6.88251 2.34973 8.5544C2.6517 10.3662 3.63424 12.2494 5.1925 13.8077C5.45422 14.0694 5.72511 14.3149 6.00329 14.5436C6.41002 12.8522 7.29362 11.1832 8.56409 9.73649Z" fill="#141B34"/>
</svg>
