<svg width="24" height="24" viewBox="0 0 24 24" fill="none" xmlns="http://www.w3.org/2000/svg">
<path fill-rule="evenodd" clip-rule="evenodd" d="M3.25 2C3.25 1.58579 3.58579 1.25 4 1.25H21.5C21.9142 1.25 22.25 1.58579 22.25 2V22C22.25 22.4142 21.9142 22.75 21.5 22.75H4C3.58579 22.75 3.25 22.4142 3.25 22V19H1.75V17H3.25V13H1.75V11H3.25V7H1.75V5H3.25V2ZM11.0359 13.9904C10.5176 13.4725 10.0527 12.9053 9.66181 12.3118L11.7383 10.3764L9.56367 6.03845L8.8386 6.62917C8.10053 7.23048 6.76779 8.37184 7.12492 10.1446C7.27852 10.9058 7.53548 11.6569 8.0508 12.555C8.56633 13.4536 9.22502 14.3014 9.97548 15.0513C10.7254 15.8017 11.573 16.4604 12.4716 16.976C13.3698 17.4913 14.1212 17.7483 14.8824 17.9019C16.6551 18.259 17.7963 16.9263 18.3976 16.1882L18.9883 15.4631L14.6503 13.2886L12.7149 15.365C12.1214 14.9741 11.5539 14.5088 11.0359 13.9904Z" fill="#141B34"/>
</svg>
