<svg width="24" height="24" viewBox="0 0 24 24" fill="none" xmlns="http://www.w3.org/2000/svg">
<path fill-rule="evenodd" clip-rule="evenodd" d="M9.57139 3.15C7.97372 3.15 6.67856 4.42599 6.67856 6C6.67856 7.57401 7.97372 8.85 9.57139 8.85V10.75C6.90861 10.75 4.75 8.62335 4.75 6C4.75 3.37665 6.90861 1.25 9.57139 1.25C11.9039 1.25 13.8496 2.88187 14.2963 5.05H17.0583L16.2938 4.29675L17.6575 2.95325L20.75 6L17.6575 9.04675L16.2938 7.70325L17.0583 6.95H12.4642V6C12.4642 4.42599 11.1691 3.15 9.57139 3.15Z" fill="#141B34"/>
<path d="M5.58308 14.1248C5.00675 13.565 4.05584 13.6169 3.54767 14.2338C3.16062 14.7036 3.15005 15.3668 3.52163 15.8479L3.53423 15.8643L7.79344 22.75H17.0995C18.5777 22.75 19.75 21.6182 19.75 20.2531V13.9823C19.75 13.4164 19.2614 12.9325 18.6267 12.9325H17.4108V14.4393H16.6031V13.0176C16.6031 12.896 16.5812 12.7799 16.541 12.6721C16.3905 12.2686 15.9777 11.9678 15.4798 11.9678L14.264 11.9698V13.9062H13.4563V12.0529C13.4563 11.9313 13.4343 11.8152 13.3941 11.7074C13.2436 11.3039 12.8309 11.0031 12.333 11.0031H11.1171V12.9415H10.3094V5.508C10.3094 4.81323 9.74621 4.25 9.05144 4.25C8.35667 4.25 7.79344 4.81323 7.79344 5.508V16.4431L5.58308 14.1248Z" fill="#141B34"/>
</svg>
