<svg width="24" height="24" viewBox="0 0 24 24" fill="none" xmlns="http://www.w3.org/2000/svg">
<path fill-rule="evenodd" clip-rule="evenodd" d="M2 12.5C1.58579 12.5 1.25 12.8358 1.25 13.25L1.25 19.25C1.25 19.6642 1.58579 20 2 20L22 20C22.4142 20 22.75 19.6642 22.75 19.25V13.25C22.75 12.8358 22.4142 12.5 22 12.5L2 12.5ZM11 17L13 17V15.5L11 15.5V17Z" fill="#141B34"/>
<path fill-rule="evenodd" clip-rule="evenodd" d="M3.10547 21.8556L4.60547 18.8556L6.39432 19.75L4.89432 22.75L3.10547 21.8556ZM19.1055 22.75L17.6055 19.75L19.3943 18.8556L20.8943 21.8556L19.1055 22.75Z" fill="#141B34"/>
<path fill-rule="evenodd" clip-rule="evenodd" d="M5 2.25V13.25H3V2.25H5Z" fill="#141B34"/>
<path fill-rule="evenodd" clip-rule="evenodd" d="M21 2.25V13.25H19V2.25H21Z" fill="#141B34"/>
<path fill-rule="evenodd" clip-rule="evenodd" d="M14.7929 4.45709C13.1834 2.84763 10.8166 2.84763 9.20711 4.45713L8.91422 4.75002L4.00001 4.75004L4 2.75004L8.10543 2.75002C10.3848 0.75001 13.6152 0.749989 15.8946 2.74998H20V4.74998H15.0858L14.7929 4.45709Z" fill="#141B34"/>
<path fill-rule="evenodd" clip-rule="evenodd" d="M11.0304 6.28039L9.03039 8.28039L7.96973 7.21973L9.96973 5.21973L11.0304 6.28039Z" fill="#141B34"/>
<path fill-rule="evenodd" clip-rule="evenodd" d="M13.5304 7.28039L9.53039 11.2804L8.46973 10.2197L12.4697 6.21973L13.5304 7.28039Z" fill="#141B34"/>
</svg>
