<svg width="24" height="24" viewBox="0 0 24 24" fill="none" xmlns="http://www.w3.org/2000/svg">
<path fill-rule="evenodd" clip-rule="evenodd" d="M12.5 11H4.5V9H12.5V11Z" fill="#141B34"/>
<path fill-rule="evenodd" clip-rule="evenodd" d="M12.5 15H4.5V13H12.5V15Z" fill="#141B34"/>
<path fill-rule="evenodd" clip-rule="evenodd" d="M5.62598 10C5.62598 5.65859 8.89276 2 13.0875 2C15.8424 2 18.2139 3.59423 19.4999 5.90634L17.7521 6.87849C16.7767 5.12493 15.0335 4 13.0875 4C10.145 4 7.62598 6.60942 7.62598 10V14C7.62598 17.3906 10.145 20 13.0875 20C15.0335 20 16.7767 18.8751 17.7521 17.1215L19.4999 18.0937C18.2139 20.4058 15.8424 22 13.0875 22C8.89276 22 5.62598 18.3414 5.62598 14V10Z" fill="#141B34"/>
</svg>
