<svg width="24" height="24" viewBox="0 0 24 24" fill="none" xmlns="http://www.w3.org/2000/svg">
<path fill-rule="evenodd" clip-rule="evenodd" d="M2.99902 2.25C2.58481 2.25 2.24902 2.58579 2.24902 3V21C2.24902 21.4142 2.58481 21.75 2.99902 21.75H20.999C21.4132 21.75 21.749 21.4142 21.749 21V3C21.749 2.58579 21.4132 2.25 20.999 2.25H2.99902ZM11.9998 7.40326C11.8187 7.27903 11.5937 7.14683 11.3294 7.03402C10.5514 6.70194 9.45044 6.55048 8.21635 7.20917C6.6425 8.0492 5.92466 10.0186 6.39165 11.9751C6.8687 13.9738 8.54798 15.9638 11.7368 17.152L11.9998 17.25L12.2628 17.152C15.4516 15.9638 17.1309 13.9738 17.6079 11.9751C18.0749 10.0186 17.357 8.0492 15.7832 7.20917C14.5491 6.55048 13.4481 6.70194 12.6702 7.03403C12.4059 7.14683 12.1809 7.27903 11.9998 7.40326Z" fill="#141B34"/>
</svg>
