<svg width="24" height="24" viewBox="0 0 24 24" fill="none" xmlns="http://www.w3.org/2000/svg">
<path fill-rule="evenodd" clip-rule="evenodd" d="M18.556 1.28385C19.0662 1.14761 19.5944 1.4345 19.7464 1.93045L21.2089 6.70301C21.2858 6.95399 21.2539 7.22489 21.1208 7.45219C20.9876 7.67949 20.7648 7.8432 20.5047 7.90493L4.4155 11.723C3.92285 11.8399 3.42088 11.5677 3.26074 11.0969L1.79993 6.80156C1.71529 6.5527 1.73899 6.28072 1.86545 6.04949C1.99191 5.81826 2.20999 5.64816 2.46846 5.57915L18.556 1.28385ZM3.97555 7.15551L4.82761 9.66087L7.14477 9.111L7.68015 6.16639L3.97555 7.15551ZM13.1303 7.6906L9.26922 8.60685L9.81666 5.59596L13.6996 4.55922L13.1303 7.6906ZM15.2547 7.18646L19.0455 6.28689L18.1518 3.3705L15.8361 3.98878L15.2547 7.18646Z" fill="#141B34"/>
<path fill-rule="evenodd" clip-rule="evenodd" d="M4 10.25C3.58579 10.25 3.25 10.5858 3.25 11V22C3.25 22.4142 3.58579 22.75 4 22.75H21.5C21.9142 22.75 22.25 22.4142 22.25 22V11C22.25 10.5858 21.9142 10.25 21.5 10.25H4ZM8 19H12V17H8V19Z" fill="#141B34"/>
</svg>
