<svg width="24" height="24" viewBox="0 0 24 24" fill="none" xmlns="http://www.w3.org/2000/svg">
<path fill-rule="evenodd" clip-rule="evenodd" d="M7.61338 1.45011C7.84403 1.27107 8.14481 1.20765 8.42872 1.27822L16.0284 3.16714C16.4513 3.27227 16.748 3.65003 16.748 4.08339V8.75H14.8477V4.82076L9.14876 3.40427L9.15013 7.86095L7.24978 7.86152L7.24805 2.19476C7.24796 1.90386 7.38273 1.62916 7.61338 1.45011Z" fill="#141B34"/>
<path fill-rule="evenodd" clip-rule="evenodd" d="M5 5.25C4.58579 5.25 4.25 5.58579 4.25 6V8.38677C2.44235 9.59669 1.25 11.6587 1.25 14C1.25 17.7279 4.27208 20.75 8 20.75C11.7279 20.75 14.75 17.7279 14.75 14C14.75 11.6587 13.5576 9.59669 11.75 8.38677V6C11.75 5.58579 11.4142 5.25 11 5.25H5ZM8 11.25C6.48122 11.25 5.25 12.4812 5.25 14C5.25 15.5188 6.48122 16.75 8 16.75C9.51878 16.75 10.75 15.5188 10.75 14C10.75 12.4812 9.51878 11.25 8 11.25Z" fill="#141B34"/>
<path d="M11.832 21.3087C12.9799 22.2115 14.4278 22.75 16.0015 22.75C19.7294 22.75 22.7515 19.7279 22.7515 16C22.7515 13.6587 21.5591 11.5967 19.7515 10.3868V8C19.7515 7.58579 19.4157 7.25 19.0015 7.25H13.2515V7.63599C14.9021 8.99931 16.0169 10.9969 16.2186 13.2584C17.6359 13.3691 18.7515 14.5543 18.7515 16C18.7515 17.5188 17.5202 18.75 16.0015 18.75C15.6109 18.75 15.2394 18.6686 14.903 18.5218C14.1349 19.6918 13.0773 20.6547 11.832 21.3087Z" fill="#141B34"/>
</svg>
