<svg width="24" height="24" viewBox="0 0 24 24" fill="none" xmlns="http://www.w3.org/2000/svg">
<path fill-rule="evenodd" clip-rule="evenodd" d="M22.5506 6.40407C22.5095 6.45445 22.4515 6.52234 22.378 6.60035C22.2326 6.7546 22.0179 6.95774 21.7447 7.14333C21.0411 7.62133 20.0346 8.48893 19.3738 9.84057C18.826 10.9612 17.9116 11.8901 16.9482 12.6254C15.9796 13.3647 14.9204 13.9394 14.0262 14.3398C13.6863 14.4921 13.3407 14.5816 13.0914 14.6332C12.9642 14.6595 12.856 14.6772 12.7781 14.6884L12.2888 14.7406L11.4797 13.9316L8.17099 17.2402C8.56481 17.884 8.79179 18.641 8.79179 19.4509C8.79179 20.6379 8.30335 21.7121 7.51841 22.4813L6.98906 23L1 17.0111L1.51873 16.4817C2.28791 15.6968 3.36216 15.2084 4.54915 15.2084C5.35877 15.2084 6.11543 15.4352 6.75906 15.8287L10.068 12.5198L9.25911 11.711L9.31124 11.2217C9.32249 11.1438 9.34014 11.0356 9.36646 10.9084C9.41804 10.6591 9.50759 10.3135 9.65983 9.97356C10.0602 9.07945 10.635 8.02024 11.3743 7.0517C12.1096 6.08827 13.0386 5.17392 14.1592 4.62611C15.5109 3.96537 16.3785 2.95885 16.8565 2.25522C17.0421 1.98202 17.2453 1.76735 17.3995 1.622C17.4775 1.54848 17.5454 1.49047 17.5958 1.44936L18.2072 1L23 5.79269L22.5506 6.40407ZM14.4955 8.5C13.9457 8.5 13.5 8.94772 13.5 9.5C13.5 10.0523 13.9457 10.5 14.4955 10.5H14.5045C15.0543 10.5 15.5 10.0523 15.5 9.5C15.5 8.94772 15.0543 8.5 14.5045 8.5H14.4955Z" fill="#141B34"/>
</svg>
