<svg width="24" height="24" viewBox="0 0 24 24" fill="none" xmlns="http://www.w3.org/2000/svg">
<path fill-rule="evenodd" clip-rule="evenodd" d="M7.20674 2.79902C8.5099 2.08716 10.0424 1.25 12.002 1.25C13.9705 1.25 15.5049 2.08892 16.8092 2.802L16.8678 2.83402C18.233 3.58017 19.36 4.17877 20.7764 4.17877H21.55L21.727 4.93178C23.7715 13.6338 19.6872 21.1011 12.2068 22.706L12.0019 22.75L11.797 22.706C4.31666 21.1011 0.232372 13.6338 2.27695 4.93178L2.45387 4.17877H3.22754C4.6463 4.17877 5.77707 3.57969 7.14299 2.83384L7.20674 2.79902ZM4.02607 6.08417C3.66721 7.91918 3.61214 9.6549 3.8202 11.2497H11.252V3.25879C10.1586 3.42473 9.19623 3.93714 8.07908 4.54715L8.00987 4.58495C6.89173 5.1958 5.6051 5.89868 4.02607 6.08417ZM19.9011 12.7497C18.9401 16.6046 16.3267 19.4394 12.752 20.5471V12.7497H19.9011Z" fill="#141B34"/>
</svg>
