<svg width="24" height="24" viewBox="0 0 24 24" fill="none" xmlns="http://www.w3.org/2000/svg">
<path fill-rule="evenodd" clip-rule="evenodd" d="M19.5 15.1071C18.7307 15.1071 18.1071 15.7307 18.1071 16.5C18.1071 17.2693 18.7307 17.8929 19.5 17.8929C20.2693 17.8929 20.8929 17.2693 20.8929 16.5C20.8929 15.7307 20.2693 15.1071 19.5 15.1071ZM16.25 16.5C16.25 14.7051 17.7051 13.25 19.5 13.25C21.2949 13.25 22.75 14.7051 22.75 16.5C22.75 18.2949 21.2949 19.75 19.5 19.75C17.7051 19.75 16.25 18.2949 16.25 16.5Z" fill="#141B34"/>
<path fill-rule="evenodd" clip-rule="evenodd" d="M4.5 15.1071C3.73075 15.1071 3.10714 15.7307 3.10714 16.5C3.10714 17.2693 3.73075 17.8929 4.5 17.8929C5.26925 17.8929 5.89286 17.2693 5.89286 16.5C5.89286 15.7307 5.26925 15.1071 4.5 15.1071ZM1.25 16.5C1.25 14.7051 2.70507 13.25 4.5 13.25C6.29493 13.25 7.75 14.7051 7.75 16.5C7.75 18.2949 6.29493 19.75 4.5 19.75C2.70507 19.75 1.25 18.2949 1.25 16.5Z" fill="#141B34"/>
<path d="M17.1039 4.25C18.749 5.17913 19.9526 6.34288 20.8157 7.39311C22.1813 9.05483 22.703 10.6875 22.7499 11.6592C22.7626 11.9206 22.638 12.1697 22.4213 12.3164C22.2045 12.4632 21.927 12.4863 21.6889 12.3774C21.1158 12.1153 20.4697 11.9671 19.7835 11.9671C18.7299 11.9671 17.5765 12.3555 16.6971 13.0666C15.8305 13.7674 15.2514 14.7597 15.2514 15.9997C15.2514 16.1986 15.1724 16.3894 15.0317 16.5301C14.8911 16.6707 14.7003 16.7497 14.5014 16.7497H9.50142C9.30251 16.7497 9.11174 16.6707 8.97109 16.5301C8.83044 16.3894 8.75142 16.1986 8.75142 15.9997C8.75142 15.0103 8.2565 14.0799 7.44772 13.379C6.63682 12.6762 5.55846 12.2497 4.50142 12.2497C4.36546 12.2497 4.23206 12.2128 4.11549 12.1428L1.61602 10.6428C1.39015 10.5073 1.25195 10.2631 1.25195 9.99972V7.99972C1.25195 7.774 1.35361 7.56028 1.52873 7.41786C1.70385 7.27544 1.9338 7.21946 2.15479 7.26546L9.87849 8.87312L10.5759 8.47034C11.9472 7.53955 14.2322 6.57583 16.5817 7.4177L17.5343 7.72259L18.802 7.43029C18.1578 6.81965 17.3568 6.11553 16.3662 5.55608L17.1039 4.25Z" fill="#141B34"/>
</svg>
