<svg width="24" height="24" viewBox="0 0 24 24" fill="none" xmlns="http://www.w3.org/2000/svg">
<path fill-rule="evenodd" clip-rule="evenodd" d="M17.6896 1.25L19.7199 3.28033L18.6592 4.34099L18.4396 4.12132V5.56066H19.8789L19.6592 5.34099L20.7199 4.28033L22.7502 6.31066L20.7199 8.34099L19.6592 7.28033L19.8789 7.06066H18.4396V8.5L18.6592 8.28033L19.7199 9.34099L17.6896 11.3713L15.6592 9.34099L16.7199 8.28033L16.9396 8.5V7.06066H15.5002L15.7199 7.28033L14.6592 8.34099L12.6289 6.31066L14.6592 4.28033L15.7199 5.34099L15.5002 5.56066H16.9396V4.12132L16.7199 4.34099L15.6592 3.28033L17.6896 1.25Z" fill="#141B34"/>
<path d="M6.10181 21.2492L1.7835 15.5466C1.0748 14.641 1.07178 13.3548 1.77682 12.4457C2.63524 11.3388 4.22827 11.1793 5.2802 12.1094L5.30439 12.1308L6.25 13.1242V4.75C6.25 3.36929 7.36929 2.25 8.75 2.25C10.1307 2.25 11.25 3.36929 11.25 4.75V9.74751C13.1139 9.81064 15.819 10.3862 17.8531 12.4332C18.789 13.3751 18.8445 14.7529 18.6737 15.8931C18.4975 17.0699 18.0471 18.2359 17.6749 19.0131C17.4835 19.4127 17.2068 19.9899 16.978 20.4671L16.6419 21.1679V22.75H6.10181V21.2492Z" fill="#141B34"/>
</svg>
