<svg width="24" height="24" viewBox="0 0 24 24" fill="none" xmlns="http://www.w3.org/2000/svg">
<path fill-rule="evenodd" clip-rule="evenodd" d="M15.5 10.2448C14.5335 10.2448 13.75 11.0286 13.75 11.9955H12.25C12.25 10.1998 13.7051 8.74414 15.5 8.74414C17.2949 8.74414 18.75 10.1998 18.75 11.9955H17.25C17.25 11.0286 16.4665 10.2448 15.5 10.2448Z" fill="#141B34"/>
<path fill-rule="evenodd" clip-rule="evenodd" d="M10.25 7.49449V1.99219H11.75V7.49449H10.25ZM7.75 7.49449V2.4924H9.25V7.49449H7.75ZM5.25 11.9964V2.99261H6.75V11.9964H5.25Z" fill="#141B34"/>
<path fill-rule="evenodd" clip-rule="evenodd" d="M20.1163 2.73264L13.6163 3.74869L13.3848 2.26605L19.8848 1.25L20.1163 2.73264ZM6.11633 4.92105L4.11633 5.23368L3.88477 3.75105L5.88477 3.43842L6.11633 4.92105ZM20.0473 6.74185L13.5473 7.14827L13.4538 5.65056L19.9538 5.24414L20.0473 6.74185ZM6.04733 7.61721L4.04733 7.74226L3.95376 6.24456L5.95376 6.11951L6.04733 7.61721Z" fill="#141B34"/>
<path d="M21.75 11.2461V11.9964C21.75 15.2501 19.7841 18.0461 16.9305 19.5506L17.7072 21.7507C17.7883 21.9804 17.7529 22.2351 17.6123 22.4339C17.4717 22.6327 17.2434 22.7509 17 22.7509H7C6.75657 22.7509 6.52828 22.6327 6.3877 22.4339C6.24712 22.2351 6.21174 21.9804 6.29281 21.7507L7.06948 19.5506C4.21594 18.0461 2.25 15.2501 2.25 11.9964V11.2461H21.75Z" fill="#141B34"/>
</svg>
