<svg width="24" height="24" viewBox="0 0 24 24" fill="none" xmlns="http://www.w3.org/2000/svg">
<path fill-rule="evenodd" clip-rule="evenodd" d="M12 21.25C10.2051 21.25 8.75 19.7949 8.75 18H7.25C7.25 20.6234 9.37665 22.75 12 22.75C14.6234 22.75 16.75 20.6234 16.75 18H15.25C15.25 19.7949 13.7949 21.25 12 21.25Z" fill="#141B34"/>
<path fill-rule="evenodd" clip-rule="evenodd" d="M13.749 7.75C13.749 5.40279 15.6518 3.5 17.999 3.5C20.3462 3.5 22.249 5.40279 22.249 7.75C22.249 10.0972 20.3462 12 17.999 12C15.6518 12 13.749 10.0972 13.749 7.75ZM15.8005 6.88716C15.6956 7.15443 15.6379 7.44548 15.6379 7.75C15.6379 9.05401 16.695 10.1111 17.999 10.1111C18.3035 10.1111 18.5946 10.0535 18.8619 9.94849L15.8005 6.88716ZM17.1362 5.55151L20.1975 8.61284C20.3025 8.34557 20.3601 8.05452 20.3601 7.75C20.3601 6.44599 19.303 5.38889 17.999 5.38889C17.6945 5.38889 17.4035 5.44654 17.1362 5.55151Z" fill="#141B34"/>
<path d="M12 1.25C7.53436 1.25 3.91425 4.94365 3.91425 9.5V12.3008L1.75 16.1652L2.20987 16.5687C4.44472 18.5294 8.02928 19.75 12 19.75C15.9707 19.75 19.5553 18.5294 21.7901 16.5687L22.25 16.1652L20.451 12.953C19.7075 13.3038 18.8766 13.5 18 13.5C14.8244 13.5 12.25 10.9256 12.25 7.75C12.25 5.2663 13.8247 3.15041 16.0302 2.34625C14.8438 1.64891 13.4675 1.25 12 1.25Z" fill="#141B34"/>
</svg>
