<svg width="24" height="24" viewBox="0 0 24 24" fill="none" xmlns="http://www.w3.org/2000/svg">
<path d="M15.2491 1.74972V8.18924L8.79559 1.73569C9.80767 1.42006 10.884 1.25 12 1.25C13.1325 1.25 14.224 1.42511 15.2491 1.74972Z" fill="#141B34"/>
<path d="M16.7491 2.3532C20.3043 4.10675 22.75 7.76776 22.75 12C22.75 13.1328 22.5748 14.2246 22.25 15.2499H16.7491L16.7491 2.3532Z" fill="#141B34"/>
<path d="M21.6464 16.7499C19.8927 20.3047 16.2319 22.75 12 22.75C10.8669 22.75 9.77466 22.5747 8.74905 22.2497V16.7499H21.6464Z" fill="#141B34"/>
<path d="M7.24905 21.6459C5.11724 20.5939 3.38453 18.856 2.3391 16.7203L7.24905 11.8105V21.6459Z" fill="#141B34"/>
<path d="M1.73522 15.2029L10.9384 5.99988L7.27833 2.33975C3.70829 4.08797 1.25 7.7569 1.25 12C1.25 13.1155 1.4199 14.1913 1.73522 15.2029Z" fill="#141B34"/>
</svg>
