<svg width="24" height="24" viewBox="0 0 24 24" fill="none" xmlns="http://www.w3.org/2000/svg">
<path fill-rule="evenodd" clip-rule="evenodd" d="M19.7931 16.6555C19.8541 15.9102 19.5047 15.0912 19.01 14.6463L20.3138 13.1963C21.2558 14.0433 21.8478 15.4551 21.7366 16.8145C21.6794 17.5146 21.4328 18.2243 20.9256 18.8273C20.4168 19.4323 19.6927 19.8739 18.7732 20.1138C17.4404 20.4616 15.535 20.9106 14.0458 21.2615C13.2923 21.4391 12.6454 21.5915 12.2331 21.693L12 21.7504L11.7669 21.693C11.3546 21.5915 10.7077 21.4391 9.95413 21.2615C8.46499 20.9106 6.55959 20.4616 5.22676 20.1138C4.30731 19.8739 3.58319 19.4323 3.07435 18.8273C2.56715 18.2243 2.32064 17.5146 2.26337 16.8145C2.15216 15.4551 2.7442 14.0433 3.68619 13.1963L4.98997 14.6463C4.49526 15.0912 4.14591 15.9102 4.20688 16.6555C4.2357 17.0078 4.35367 17.3189 4.56664 17.5721C4.77798 17.8234 5.1297 18.0732 5.71907 18.227C7.0349 18.5703 8.86865 19.0023 10.3421 19.3494C10.9889 19.5017 11.5664 19.6378 12 19.7427C12.4336 19.6378 13.0111 19.5017 13.6579 19.3494C15.1314 19.0023 16.9651 18.5703 18.2809 18.227C18.8703 18.0732 19.222 17.8234 19.4334 17.5721C19.6463 17.3189 19.7643 17.0078 19.7931 16.6555Z" fill="#141B34"/>
<path fill-rule="evenodd" clip-rule="evenodd" d="M22.75 10.9777C22.75 9.77483 21.9177 8.64688 20.9611 7.71415C19.9679 6.74583 18.6665 5.82232 17.3975 5.02921C16.1227 4.2325 14.852 3.54968 13.9023 3.06695C13.609 2.91782 13.0596 2.69215 12.6164 2.51006C12.3411 2.39698 12.1067 2.3007 12 2.25C11.8932 2.3007 11.6589 2.39698 11.3836 2.51006C10.9403 2.69215 10.391 2.91782 10.0976 3.06695C9.14799 3.54968 7.87723 4.2325 6.60249 5.02921C5.33353 5.82232 4.03207 6.74583 3.03892 7.71415C2.08228 8.64688 1.25 9.77483 1.25 10.9777C1.25 11.8875 1.55242 12.8218 2.18944 13.5385C2.83873 14.2689 3.79648 14.7277 5 14.7277H19C20.2035 14.7277 21.1613 14.2689 21.8106 13.5385C22.4476 12.8218 22.75 11.8875 22.75 10.9777ZM12 6.97803L14 7.97803C14 9.47803 13.2247 10.5736 12 10.9779C10.7753 10.5736 10 9.47786 10 7.97786L12 6.97803Z" fill="#141B34"/>
</svg>
