<svg width="24" height="24" viewBox="0 0 24 24" fill="none" xmlns="http://www.w3.org/2000/svg">
<path fill-rule="evenodd" clip-rule="evenodd" d="M17.6288 18.543L14.8359 21.3359L16.2502 22.7502L19.043 19.9573L21.8359 22.7502L23.2502 21.3359L20.4573 18.543L23.2502 15.7502L21.8359 14.3359L19.043 17.1288L16.2502 14.3359L14.8359 15.7502L17.6288 18.543Z" fill="#141B34"/>
<path d="M1.5 1.25C1.08579 1.25 0.75 1.58579 0.75 2V6.25H20.25V2C20.25 1.58579 19.9142 1.25 19.5 1.25H1.5Z" fill="#141B34"/>
<path fill-rule="evenodd" clip-rule="evenodd" d="M20.25 7.75H0.75V20C0.75 20.4142 1.08579 20.75 1.5 20.75L13.301 20.75L15.5077 18.5433L12.7148 15.7504L16.2504 12.2148L19.0433 15.0077L20.25 13.801V7.75ZM7.5 13H5.5V11.5H7.5V13ZM13.5 13H9.5V11.5H13.5V13ZM7.5 17H5.5V15.5H7.5V17ZM11.5 17H9.5V15.5H11.5V17Z" fill="#141B34"/>
</svg>
