<svg width="24" height="24" viewBox="0 0 24 24" fill="none" xmlns="http://www.w3.org/2000/svg">
<path fill-rule="evenodd" clip-rule="evenodd" d="M20.0653 3.93426C18.3576 2.22649 15.5793 2.3937 14.1384 4.25296C14.1249 4.27043 14.1106 4.28729 14.0955 4.3035L12.7994 5.70119L13.7629 6.59706L14.2506 6.09876C15.2205 4.89845 17.0257 4.77136 18.127 5.87262C19.2314 6.977 19.1004 8.78934 17.8907 9.75714L17.4611 10.1514L18.1406 10.9854L19.7603 9.85057C21.6067 8.40668 21.7689 5.63785 20.0653 3.93426ZM12.9739 3.307C14.9883 0.740829 18.8045 0.552088 21.126 2.8736C23.4557 5.20327 23.2574 9.0381 20.6655 11.0468C20.656 11.0542 20.6463 11.0613 20.6364 11.0682L18.4301 12.6141C18.1081 12.8397 17.6666 12.7784 17.4183 12.4736L15.8515 10.5507C15.6007 10.2429 15.6333 9.79287 15.9258 9.52438L16.8967 8.6334C16.9114 8.61992 16.9266 8.60703 16.9423 8.59476C17.484 8.17198 17.5244 7.39135 17.0663 6.93329C16.6083 6.47522 15.8276 6.51563 15.4048 7.05727C15.3876 7.07934 15.3692 7.10042 15.3496 7.12042L14.3235 8.16873C14.039 8.45939 13.5747 8.47031 13.2768 8.19335L11.2295 6.28965C10.9265 6.00786 10.9089 5.53387 11.1903 5.23044L12.9739 3.307Z" fill="#141B34"/>
<path d="M12.9765 3.307C14.9909 0.740829 18.807 0.552088 21.1286 2.8736C23.4582 5.20327 23.26 9.0381 20.6681 11.0468L20.6538 11.0579L17.8614 13.0144L15.4074 10.0025L16.9213 8.61317L16.9449 8.59476C17.4865 8.17198 17.5269 7.39135 17.0689 6.93329C16.6108 6.47522 15.8302 6.51563 15.4074 7.05727L15.3816 7.09039L13.8147 8.69114L10.6836 5.77963L12.9765 3.307Z" fill="#141B34"/>
<path fill-rule="evenodd" clip-rule="evenodd" d="M4.5 17.75C3.5335 17.75 2.75 18.5335 2.75 19.5C2.75 20.4665 3.5335 21.25 4.5 21.25C5.4665 21.25 6.25 20.4665 6.25 19.5C6.25 18.5335 5.4665 17.75 4.5 17.75ZM1.25 19.5C1.25 17.7051 2.70507 16.25 4.5 16.25C6.29493 16.25 7.75 17.7051 7.75 19.5C7.75 21.2949 6.29493 22.75 4.5 22.75C2.70507 22.75 1.25 21.2949 1.25 19.5Z" fill="#141B34"/>
<path fill-rule="evenodd" clip-rule="evenodd" d="M12.4905 6.43265C12.8039 6.70355 12.8383 7.17717 12.5674 7.49052L3.56738 17.9008C3.29648 18.2141 2.82285 18.2485 2.50951 17.9776C2.19616 17.7067 2.16175 17.2331 2.43265 16.9198L11.4326 6.50951C11.7035 6.19616 12.1772 6.16175 12.4905 6.43265ZM17.5674 11.5095C17.8383 11.8229 17.8039 12.2965 17.4905 12.5674L7.08026 21.5674C6.76691 21.8383 6.29329 21.8039 6.02239 21.4905C5.75149 21.1772 5.7859 20.7035 6.09925 20.4326L16.5095 11.4326C16.8229 11.1617 17.2965 11.1962 17.5674 11.5095Z" fill="#141B34"/>
</svg>
