<svg width="24" height="24" viewBox="0 0 24 24" fill="none" xmlns="http://www.w3.org/2000/svg">
<path fill-rule="evenodd" clip-rule="evenodd" d="M17.5312 1.5C16.0125 1.5 14.7812 2.73122 14.7812 4.25V5H13.2812V12H21.7812V5H20.2812V4.25C20.2812 2.73122 19.05 1.5 17.5312 1.5ZM18.7812 4.25V5H16.2812V4.25C16.2812 3.55964 16.8409 3 17.5312 3C18.2216 3 18.7812 3.55964 18.7812 4.25Z" fill="#141B34"/>
<path fill-rule="evenodd" clip-rule="evenodd" d="M1.78125 12.758C1.78125 12.7576 1.78125 12.7572 2.53125 12.7572C3.28125 12.7572 3.28125 12.7569 3.28125 12.7566L3.28125 12.7561C3.28125 12.756 3.28125 12.7559 3.28125 12.7559L3.28126 12.7576L3.28141 12.77C3.2816 12.7821 3.28201 12.802 3.28289 12.8291C3.28465 12.8833 3.28828 12.9662 3.29576 13.0739C3.31072 13.2895 3.341 13.6028 3.40214 13.982C3.52494 14.7437 3.76943 15.7538 4.25208 16.7681C5.14689 18.6484 6.86096 20.567 10.2849 20.9416L9.86043 20.0926L11.2021 19.4218L11.9126 20.8429C11.9167 20.851 11.9209 20.8594 11.9252 20.868C11.9785 20.9742 12.052 21.1207 12.0952 21.2554C12.1468 21.4163 12.2178 21.7483 12.0029 22.0771C11.7897 22.4033 11.4608 22.4734 11.2902 22.4913C11.1497 22.506 10.9868 22.4975 10.87 22.4914C10.8604 22.4909 10.8511 22.4904 10.8421 22.49C6.34233 22.2618 4.03648 19.8058 2.89762 17.4126C2.33667 16.2338 2.05936 15.0774 1.92126 14.2207C1.85195 13.7908 1.817 13.432 1.79936 13.1778C1.79052 13.0505 1.786 12.9492 1.78368 12.8777C1.78252 12.842 1.78192 12.8138 1.7816 12.7935L1.7813 12.7692L1.78126 12.7616L1.78125 12.759L1.78125 12.758Z" fill="#141B34"/>
<path d="M22.2189 13.25H12.0312V3.75H13.3919L11.8616 2.21967C11.5687 1.92678 11.0938 1.92678 10.8009 2.21967L4.00092 9.01967C3.86027 9.16032 3.78125 9.35109 3.78125 9.55C3.78125 9.74891 3.86027 9.93968 4.00092 10.0803L14.2009 20.2803C14.3416 20.421 14.5323 20.5 14.7313 20.5C14.9302 20.5 15.1209 20.421 15.2616 20.2803L22.0616 13.4803C22.13 13.4119 22.1824 13.3336 22.2189 13.25Z" fill="#141B34"/>
</svg>
