<svg width="24" height="24" viewBox="0 0 24 24" fill="none" xmlns="http://www.w3.org/2000/svg">
<path fill-rule="evenodd" clip-rule="evenodd" d="M1 11C1 5.47715 5.47715 1 11 1C16.5228 1 21 5.47715 21 11C21 13.4013 20.1536 15.6049 18.7429 17.3287L23 21.5858L21.5858 23L17.3287 18.7429C15.6049 20.1536 13.4013 21 11 21C5.47715 21 1 16.5228 1 11ZM11 3C6.58172 3 3 6.58172 3 11C3 15.4183 6.58172 19 11 19C15.4183 19 19 15.4183 19 11C19 6.58172 15.4183 3 11 3Z" fill="#141B34"/>
<path fill-rule="evenodd" clip-rule="evenodd" d="M6.50012 6.5H10V8.5H8.50005L8.5 10L6.5 9.99996L6.50012 6.5ZM13.4956 8.50007H12V6.50007H15.4894L15.5002 9.99692L13.5002 10.0031L13.4956 8.50007ZM13.4893 13.5001L13.4846 12.0032L15.4846 11.9968L15.4957 15.4998L12.0001 15.5003L11.9999 13.5003L13.4893 13.5001ZM6.5 12H8.5V13.5001L10.0001 13.5003L9.99987 15.5003L6.5 15.4998V12Z" fill="#141B34"/>
</svg>
