<svg width="24" height="24" viewBox="0 0 24 24" fill="none" xmlns="http://www.w3.org/2000/svg">
<path fill-rule="evenodd" clip-rule="evenodd" d="M17.6269 18.543L15.334 20.8359L16.7482 22.2502L19.0411 19.9573L21.334 22.2502L22.7482 20.8359L20.4553 18.543L22.7482 16.2502L21.334 14.8359L19.0411 17.1288L16.7482 14.8359L15.334 16.2502L17.6269 18.543Z" fill="#141B34"/>
<path fill-rule="evenodd" clip-rule="evenodd" d="M18.3965 6.75H22.0011C22.4153 6.75 22.7511 7.08579 22.7511 7.5V11.0406L21.1463 11.5755L20.7917 13.2588L19.0433 15.0072L16.7504 12.7144L13.2148 16.2499L15.5077 18.5428L13.2148 20.8357L13.6292 21.25H5.50106C5.1464 21.25 4.84021 21.0016 4.76715 20.6545L2.8558 11.5756L1.25 11.0407V7.5C1.25 7.08579 1.58579 6.75 2 6.75H6.91874L9.08594 1.79639L10.9183 2.59803L9.10177 6.75H16.1605L14.1077 2.64443L15.8965 1.75L18.3965 6.75ZM9.5 10.75H14.5V12.25H9.5V10.75Z" fill="#141B34"/>
</svg>
