<svg width="24" height="24" viewBox="0 0 24 24" fill="none" xmlns="http://www.w3.org/2000/svg">
<path fill-rule="evenodd" clip-rule="evenodd" d="M18.5 11L11.5 11L11.5 9L18.5 9.00005L18.5 11Z" fill="#141B34"/>
<path fill-rule="evenodd" clip-rule="evenodd" d="M16.5 15H11.5V13H16.5V15Z" fill="#141B34"/>
<path fill-rule="evenodd" clip-rule="evenodd" d="M14.5 19H11.5V17H14.5V19Z" fill="#141B34"/>
<path fill-rule="evenodd" clip-rule="evenodd" d="M21.5 7H11.5V5H21.5V7Z" fill="#141B34"/>
<path fill-rule="evenodd" clip-rule="evenodd" d="M7.20711 13V18.1716L8.5 16.8787L9.91421 18.2929L6.20711 22L2.5 18.2929L3.91421 16.8787L5.20711 18.1716V13H7.20711Z" fill="#141B34"/>
<path fill-rule="evenodd" clip-rule="evenodd" d="M6.20711 2L9.91421 5.70711L8.5 7.12132L7.20711 5.82843V11H5.20711V5.82843L3.91421 7.12132L2.5 5.70711L6.20711 2Z" fill="#141B34"/>
</svg>
