<svg width="24" height="24" viewBox="0 0 24 24" fill="none" xmlns="http://www.w3.org/2000/svg">
<path d="M6.25 12C6.25 8.82436 8.82436 6.25 12 6.25C15.1756 6.25 17.75 8.82436 17.75 12C17.75 15.1756 15.1756 17.75 12 17.75C8.82436 17.75 6.25 15.1756 6.25 12Z" fill="#141B34"/>
<path fill-rule="evenodd" clip-rule="evenodd" d="M10.8085 1.99161C10.9289 1.73637 11.1036 1.4565 11.3374 1.25L12.6615 2.74887C12.6759 2.73613 12.6824 2.7291 12.6827 2.72934C12.6833 2.72984 12.6558 2.76327 12.6174 2.84476C12.5689 2.94758 12.5273 3.07686 12.5092 3.20979C12.4729 3.47527 12.5345 3.6378 12.6615 3.75L11.3374 5.24887C10.5588 4.56106 10.4318 3.64026 10.5276 2.93908C10.5754 2.58868 10.6801 2.26379 10.8085 1.99161ZM11.3162 20.2293C11.3165 20.2291 11.323 20.2361 11.3374 20.2489L12.6615 18.75C12.8953 18.9565 13.07 19.2364 13.1904 19.4916C13.3188 19.7638 13.4234 20.0887 13.4713 20.4391C13.5671 21.1403 13.4401 22.0611 12.6615 22.7489L11.3374 21.25C11.4644 21.1378 11.526 20.9753 11.4897 20.7098C11.4716 20.5769 11.43 20.4476 11.3815 20.3448C11.3431 20.2633 11.3156 20.2298 11.3162 20.2293Z" fill="#141B34"/>
<path fill-rule="evenodd" clip-rule="evenodd" d="M18.2347 4.08041C18.5003 3.98505 18.8218 3.91073 19.1331 3.93L19.0096 5.92618C19.0288 5.92737 19.0383 5.92696 19.0383 5.92732C19.0384 5.92809 18.9954 5.93232 18.9106 5.96277C18.8036 6.00118 18.6828 6.06321 18.5759 6.14437C18.3626 6.30645 18.2912 6.46495 18.3017 6.63409L16.3055 6.75762C16.2413 5.72075 16.8026 4.97982 17.3662 4.55175C17.6478 4.33783 17.9515 4.1821 18.2347 4.08041ZM5.69775 17.3355C5.69811 17.3355 5.69771 17.345 5.6989 17.3642L7.69508 17.2407C7.71434 17.552 7.64003 17.8735 7.54467 18.1391C7.44298 18.4223 7.28725 18.726 7.07333 19.0077C6.64525 19.5712 5.90432 20.1325 4.86745 20.0683L4.99099 18.0721C5.16012 18.0826 5.31863 18.0112 5.48071 17.7979C5.56186 17.691 5.62389 17.5702 5.66231 17.4632C5.69275 17.3785 5.69699 17.3354 5.69775 17.3355Z" fill="#141B34"/>
<path fill-rule="evenodd" clip-rule="evenodd" d="M22.0064 10.8085C22.2617 10.9289 22.5415 11.1036 22.748 11.3374L21.2492 12.6615C21.2619 12.6759 21.2689 12.6824 21.2687 12.6827C21.2682 12.6833 21.2348 12.6558 21.1533 12.6174C21.0505 12.5689 20.9212 12.5273 20.7883 12.5092C20.5228 12.4729 20.3602 12.5345 20.248 12.6615L18.7492 11.3374C19.437 10.5588 20.3578 10.4318 21.059 10.5276C21.4094 10.5754 21.7343 10.6801 22.0064 10.8085ZM3.76871 11.3162C3.76894 11.3165 3.76191 11.323 3.74918 11.3374L5.24805 12.6615C5.04155 12.8953 4.76168 13.07 4.50644 13.1904C4.23426 13.3188 3.90937 13.4234 3.55897 13.4713C2.85779 13.5671 1.93699 13.4401 1.24918 12.6615L2.74805 11.3374C2.86024 11.4644 3.02277 11.526 3.28826 11.4897C3.42119 11.4716 3.55047 11.43 3.65329 11.3815C3.73478 11.3431 3.76821 11.3156 3.76871 11.3162Z" fill="#141B34"/>
<path fill-rule="evenodd" clip-rule="evenodd" d="M19.9176 18.2347C20.013 18.5003 20.0873 18.8218 20.0681 19.1331L18.0719 19.0096C18.0707 19.0288 18.0711 19.0383 18.0707 19.0383C18.07 19.0384 18.0657 18.9954 18.0353 18.9106C17.9969 18.8036 17.9348 18.6828 17.8537 18.5759C17.6916 18.3626 17.5331 18.2912 17.364 18.3017L17.2404 16.3055C18.2773 16.2413 19.0182 16.8026 19.4463 17.3662C19.6602 17.6478 19.816 17.9515 19.9176 18.2347ZM6.66258 5.69775C6.66255 5.69811 6.65302 5.69771 6.63383 5.6989L6.75736 7.69508C6.44606 7.71434 6.12458 7.64003 5.85898 7.54467C5.57575 7.44298 5.27201 7.28725 4.99039 7.07333C4.42685 6.64525 3.86557 5.90432 3.92974 4.86745L5.92591 4.99099C5.91545 5.16012 5.9868 5.31863 6.20017 5.48071C6.30701 5.56186 6.4278 5.62389 6.5348 5.66231C6.6196 5.69275 6.66265 5.69699 6.66258 5.69775Z" fill="#141B34"/>
</svg>
