<svg width="24" height="24" viewBox="0 0 24 24" fill="none" xmlns="http://www.w3.org/2000/svg">
<path fill-rule="evenodd" clip-rule="evenodd" d="M12.0001 9.91406L15.2072 6.70696L13.793 5.29274L13.0001 6.08564V2.49985L11.0001 2.49985V6.08564L10.2072 5.29274L8.79297 6.70696L12.0001 9.91406Z" fill="#141B34"/>
<path fill-rule="evenodd" clip-rule="evenodd" d="M16.242 10.8439L17.6562 9.42969L19.0705 10.8439L17.6563 12.2581L16.242 10.8439Z" fill="#141B34"/>
<path fill-rule="evenodd" clip-rule="evenodd" d="M3 15.5H5V17.5H3V15.5Z" fill="#141B34"/>
<path fill-rule="evenodd" clip-rule="evenodd" d="M6.3436 9.42954L7.75781 10.8438L6.3436 12.258L4.92939 10.8438L6.3436 9.42954Z" fill="#141B34"/>
<path fill-rule="evenodd" clip-rule="evenodd" d="M19 15.5H21V17.5H19V15.5Z" fill="#141B34"/>
<path fill-rule="evenodd" clip-rule="evenodd" d="M3 19.5H21V21.5H3V19.5Z" fill="#141B34"/>
<path d="M17 17.5H7V16.5C7 13.7386 9.23858 11.5 12 11.5C14.7614 11.5 17 13.7386 17 16.5V17.5Z" fill="#141B34"/>
</svg>
