<svg width="24" height="24" viewBox="0 0 24 24" fill="none" xmlns="http://www.w3.org/2000/svg">
<path fill-rule="evenodd" clip-rule="evenodd" d="M22.7502 16.0431L16.043 22.7502L13.3359 20.0431L14.7502 18.6289L16.043 19.9218L21.3359 14.6289L22.7502 16.0431Z" fill="#141B34"/>
<path fill-rule="evenodd" clip-rule="evenodd" d="M5.75 1.25H2C1.58579 1.25 1.25 1.58579 1.25 2V22C1.25 22.4142 1.58579 22.75 2 22.75L13.9215 22.75L11.2148 20.0433L14.7504 16.5078L16.0433 17.8007L19.75 14.094V2C19.75 1.58579 19.4142 1.25 19 1.25H15.25V4.75C15.25 5.16421 14.9142 5.5 14.5 5.5H6.5C6.08579 5.5 5.75 5.16421 5.75 4.75V1.25ZM6 10.75H15V9.25H6V10.75ZM6 15.75H11V14.25H6V15.75Z" fill="#141B34"/>
<path d="M13.75 1.25H7.25V4H13.75V1.25Z" fill="#141B34"/>
</svg>
