<svg width="24" height="24" viewBox="0 0 24 24" fill="none" xmlns="http://www.w3.org/2000/svg">
<path d="M2.25 18C2.25 17.5858 2.58579 17.25 3 17.25H19C19.4142 17.25 19.75 17.5858 19.75 18V21.25H23V22.75H1V21.25H2.25V18Z" fill="#141B34"/>
<path d="M4.28809 16H17.7121C17.5091 13.3888 16.5081 11.7644 15.2674 10.5564C14.6453 9.95071 13.9683 9.45544 13.361 9.01116L13.2186 8.90686C12.557 8.4218 11.9983 7.9971 11.5637 7.50405C11.4213 7.34253 11.2164 7.25 11.0011 7.25C10.7858 7.25 10.5808 7.34253 10.4385 7.50405C10.0039 7.99706 9.44515 8.42174 8.78335 8.9068L8.64047 9.01138C8.03311 9.45557 7.35605 9.95075 6.73388 10.5563C5.49269 11.7643 4.4911 13.3887 4.28809 16Z" fill="#141B34"/>
<path d="M16.7398 6.20837C16.398 5.69109 16.2309 5.16886 16.2517 4.64215C16.2756 4.0395 16.5416 3.54856 16.836 3.16694C17.1136 2.80701 17.4594 2.49154 17.7343 2.24077L17.7661 2.21173C18.0785 1.92652 18.2711 1.74258 18.3743 1.5864C18.5132 1.37636 18.7482 1.25001 19 1.25C19.2518 1.24999 19.4868 1.37634 19.6256 1.58637C19.7289 1.74257 19.9215 1.92652 20.2339 2.21172L20.2657 2.24074C20.5406 2.49151 20.8864 2.807 21.1641 3.16694C21.4584 3.54857 21.7244 4.0395 21.7483 4.64216C21.7692 5.17044 21.601 5.69423 21.2571 6.21302L21.7497 21.9765C21.7561 22.1794 21.6799 22.3762 21.5386 22.5219C21.3974 22.6677 21.2031 22.75 21.0001 22.75H16.2501V21.25H20.2263L19.7732 6.75H18.2168L17.9716 12.1435C17.5803 11.3566 17.0982 10.6857 16.563 10.099L16.7398 6.20837Z" fill="#141B34"/>
</svg>
