<svg width="24" height="24" viewBox="0 0 24 24" fill="none" xmlns="http://www.w3.org/2000/svg">
<path fill-rule="evenodd" clip-rule="evenodd" d="M9.14481 2.91304H11.0496V3.9763C9.79304 4.16564 8.613 4.60066 7.56198 5.23134L6.48498 4.14966L5.13811 5.50238L6.01579 6.38388C4.34987 7.90645 3.22037 10.0085 2.9601 12.3732L4.85333 12.5834C5.27354 8.76559 8.54979 5.78261 12.4781 5.78261C16.686 5.78261 20.0972 9.2086 20.0972 13.4348C20.0972 17.661 16.686 21.087 12.4781 21.087H2.00195V23H12.4781C17.738 23 22.002 18.7175 22.002 13.4348C22.002 10.6509 20.8178 8.14476 18.9278 6.39677L19.8183 5.50238L18.4714 4.14966L17.3885 5.23729C16.0821 4.44623 14.5712 3.96128 12.9543 3.88131V2.91304H14.8591V1H9.14481V2.91304ZM12.002 11.0435C12.3087 11.0435 12.6023 11.1021 12.8719 11.2084L15.138 8.93237L16.4849 10.2851L14.2187 12.5611C14.3246 12.8319 14.3829 13.1267 14.3829 13.4348C14.3829 14.7555 13.3169 15.8261 12.002 15.8261C10.687 15.8261 9.621 14.7555 9.621 13.4348C9.621 12.1141 10.687 11.0435 12.002 11.0435ZM4.8591 16.3043H2.00195V14.3913H4.8591V16.3043ZM2.00195 19.6522H6.76386V17.7391H2.00195V19.6522Z" fill="#141B34"/>
</svg>
