<svg width="24" height="24" viewBox="0 0 24 24" fill="none" xmlns="http://www.w3.org/2000/svg">
<path d="M2.71299 2.30711C2.99325 2.19103 3.31584 2.25519 3.53033 2.46969L21.5303 20.4699C21.7448 20.6844 21.809 21.007 21.6929 21.2872C21.5768 21.5675 21.3033 21.7502 21 21.7502H3C2.58579 21.7502 2.25 21.4144 2.25 21.0002V3.00002C2.25 2.69667 2.43273 2.4232 2.71299 2.30711Z" fill="#141B34"/>
<path d="M14.75 2.25H9.75V7.25H11.75V5.68442L13.7163 7.67394C13.6644 7.85718 13.6367 8.05053 13.6367 8.25035C13.6367 9.41768 14.583 10.364 15.7504 10.364C15.9571 10.364 16.1568 10.3343 16.3456 10.279L18.3269 12.25H16.75V14.25H21.7498L21.7508 9.25019L19.7508 9.24981L19.7505 10.8451L17.7702 8.87503C17.8312 8.6776 17.864 8.46781 17.864 8.25035C17.864 8.0327 17.8311 7.82272 17.77 7.62513L19.7505 5.65492L19.7508 7.25019L21.7508 7.24981L21.7498 2.25H16.7508V4.25H18.3269L16.3451 6.22154C16.1564 6.16633 15.9569 6.13672 15.7504 6.13672C15.5262 6.13672 15.3101 6.17162 15.1074 6.2363L13.1443 4.25H14.75V2.25Z" fill="#141B34"/>
</svg>
