<svg width="24" height="24" viewBox="0 0 24 24" fill="none" xmlns="http://www.w3.org/2000/svg">
<path fill-rule="evenodd" clip-rule="evenodd" d="M1.5 1.5H9.14426V3.5H3.5V9.14426H1.5V1.5ZM20.5 3.5H14.8557V1.5H22.5V9.14426H20.5V3.5ZM22.5 14.8557V22.5H14.8557V20.5H20.5V14.8557H22.5ZM3.5 20.5V14.8557H1.5V22.5H9.14426V20.5H3.5Z" fill="#141B34"/>
<path d="M8.73828 9.5C8.73828 7.70407 10.196 6.25 11.9918 6.25C13.7877 6.25 15.2454 7.70407 15.2454 9.5C15.2454 11.2959 13.7877 12.75 11.9918 12.75C10.196 12.75 8.73828 11.2959 8.73828 9.5Z" fill="#141B34"/>
<path fill-rule="evenodd" clip-rule="evenodd" d="M15.7594 17.5039C13.8168 15.3962 10.1747 15.4674 8.21804 17.5168L6.77148 16.1357C9.47824 13.3007 14.4592 13.142 17.2301 16.1485L15.7594 17.5039Z" fill="#141B34"/>
</svg>
