<svg width="24" height="24" viewBox="0 0 24 24" fill="none" xmlns="http://www.w3.org/2000/svg">
<path fill-rule="evenodd" clip-rule="evenodd" d="M3.5 22V16H5V22H3.5Z" fill="#141B34"/>
<path fill-rule="evenodd" clip-rule="evenodd" d="M13.75 8V19C13.75 19.4142 13.4142 19.75 13 19.75H4.5V18.25H12.25V8H13.75Z" fill="#141B34"/>
<path fill-rule="evenodd" clip-rule="evenodd" d="M7.27444 7.28437C7.66978 7.16077 8.09047 7.38105 8.21407 7.77639L10.5508 15.2502H15.448L17.7824 7.7766C17.9058 7.38122 18.3265 7.16082 18.7219 7.28431C19.1172 7.4078 19.3376 7.82843 19.2141 8.2238L16.7154 16.2238C16.6176 16.537 16.3276 16.7502 15.9995 16.7502H9.99951C9.67151 16.7502 9.38156 16.5371 9.28369 16.224L6.78242 8.22401C6.65881 7.82867 6.8791 7.40798 7.27444 7.28437Z" fill="#141B34"/>
<path d="M19.0981 7.55C19.2685 7.77726 19.2959 8.08132 19.1689 8.33541C19.0418 8.5895 18.7821 8.75 18.4981 8.75H7.49805C7.21397 8.75 6.95427 8.5895 6.82723 8.33541C6.70019 8.08132 6.7276 7.77726 6.89805 7.55L10.1231 3.25H15.8731L19.0981 7.55Z" fill="#141B34"/>
<path fill-rule="evenodd" clip-rule="evenodd" d="M20.5 8.75H5.5V7.25H20.5V8.75Z" fill="#141B34"/>
<path fill-rule="evenodd" clip-rule="evenodd" d="M13.75 2V4H12.25V2H13.75Z" fill="#141B34"/>
</svg>
