<svg width="24" height="24" viewBox="0 0 24 24" fill="none" xmlns="http://www.w3.org/2000/svg">
<path d="M1.34846 10.5389C1.28353 11.0167 1.25 11.5044 1.25 12C1.25 12.9031 1.36137 13.7802 1.57112 14.6184C2.22008 15.0148 2.88328 15.4041 3.34847 15.671C5.17166 16.6772 7.26762 17.2501 9.49964 17.2501C14.6695 17.2501 19.1223 14.1731 21.1235 9.74736C21.2925 9.35415 21.5823 8.52259 21.7846 7.54123C21.258 6.38758 20.5335 5.34331 19.6543 4.45187C19.6336 4.6037 19.6118 4.73849 19.5909 4.85052C18.7134 9.90593 14.3062 13.7501 8.99964 13.7501C6.1489 13.7501 3.55593 12.6395 1.63247 10.8288C1.62622 10.8229 1.62007 10.8169 1.61402 10.8108C1.53556 10.7317 1.44607 10.6402 1.34846 10.5389Z" fill="#141B34"/>
<path d="M1.74467 8.76695C1.9822 8.01278 2.30062 7.29447 2.68976 6.62222C2.87549 6.79966 3.039 6.94769 3.16318 7.0553C3.17143 7.06246 3.17985 7.06943 3.18841 7.07622C4.50999 8.12397 6.18273 8.75013 7.99964 8.75013C11.7444 8.75013 14.8673 6.09493 15.5914 2.56494C15.595 2.54748 15.598 2.52989 15.6003 2.51221C15.622 2.34789 15.6453 2.1343 15.6656 1.89115C16.594 2.22789 17.4629 2.6889 18.2521 3.25408C18.2519 3.26179 18.2516 3.26951 18.2513 3.27722C18.2324 3.81439 18.167 4.30486 18.1156 4.57938L18.1137 4.58965C17.3606 8.94079 13.5658 12.2501 8.99964 12.2501C6.5506 12.2501 4.32525 11.2994 2.66993 9.74534C2.43657 9.50971 2.09915 9.15727 1.74467 8.76695Z" fill="#141B34"/>
<path d="M14.1923 1.47371C14.1716 1.7999 14.1424 2.08847 14.1166 2.28958C13.5227 5.1228 11.0088 7.25013 7.99964 7.25013C6.53889 7.25013 5.19703 6.74993 4.13307 5.91091C3.97726 5.7753 3.77058 5.58456 3.54432 5.36119C5.51253 2.85781 8.5685 1.25 12 1.25C12.7513 1.25 13.4845 1.32706 14.1923 1.47371Z" fill="#141B34"/>
<path d="M22.5878 10.1293C22.6944 10.7368 22.75 11.3619 22.75 12C22.75 17.9371 17.9371 22.75 12 22.75C7.81234 22.75 4.18395 20.3555 2.40926 16.861C2.47847 16.9011 2.54462 16.9392 2.60721 16.9751L2.61778 16.9811C4.65863 18.1086 7.00535 18.7501 9.49964 18.7501C15.2827 18.7501 20.2595 15.3053 22.4932 10.3589L22.4982 10.3474C22.5258 10.2835 22.5559 10.2105 22.5878 10.1293Z" fill="#141B34"/>
</svg>
