<svg width="24" height="24" viewBox="0 0 24 24" fill="none" xmlns="http://www.w3.org/2000/svg">
<path fill-rule="evenodd" clip-rule="evenodd" d="M17.4459 19.1234L18.2726 15.8145L19.7278 16.178L18.7278 20.1809C18.6308 20.5694 18.2457 20.8131 17.8531 20.7346L12.8531 19.7346C12.6819 19.7004 12.528 19.6075 12.418 19.4719L10.418 17.0089L11.5824 16.0634L13.4121 18.3167L17.4459 19.1234Z" fill="#141B34"/>
<path d="M14.9588 4.24609C12.3243 4.24609 8.95573 5.025 6.24234 6.18174C4.88405 6.76078 3.64758 7.45216 2.73696 8.22125C2.06177 8.79149 1.4859 9.47345 1.25 10.2461H5.04709V11.7461H1.25C1.4859 12.5187 2.06177 13.2007 2.73696 13.7709C3.64758 14.54 4.88405 15.2314 6.24234 15.8105C8.95573 16.9672 12.3243 17.7461 14.9588 17.7461C19.2933 17.7461 22.75 14.8197 22.75 10.9961C22.75 7.17247 19.2933 4.24609 14.9588 4.24609Z" fill="#141B34"/>
<path fill-rule="evenodd" clip-rule="evenodd" d="M4.66471 3.3292C4.95345 3.18483 5.30218 3.24142 5.53045 3.46969L8.03045 5.96969L6.96979 7.03035L4.85203 4.91259L3.91752 5.37985L4.71155 7.75935L3.28868 8.23416L2.28868 5.23742C2.17051 4.88329 2.33079 4.49616 2.66471 4.3292L4.66471 3.3292Z" fill="#141B34"/>
<path fill-rule="evenodd" clip-rule="evenodd" d="M4.66471 18.6708C4.95344 18.8152 5.30217 18.7586 5.53044 18.5303L8.03044 16.0304L6.96979 14.9697L4.85203 17.0874L3.91717 16.62L4.71169 14.2344L3.28854 13.7604L2.28854 16.763C2.17063 17.117 2.33094 17.5039 2.6647 17.6708L4.66471 18.6708Z" fill="#141B34"/>
</svg>
