<svg width="24" height="24" viewBox="0 0 24 24" fill="none" xmlns="http://www.w3.org/2000/svg">
<path d="M22 12L22.636 12.3975C22.788 12.1543 22.788 11.8457 22.636 11.6025L22 12ZM2 20H1.25C1.25 20.4142 1.58579 20.75 2 20.75V20ZM17 20V20.75H17.4157L17.636 20.3975L17 20ZM17 4L17.636 3.6025L17.4157 3.25H17V4ZM2 4V3.25C1.58579 3.25 1.25 3.58579 1.25 4H2ZM2 4.75H17V3.25H2V4.75ZM17 19.25H2V20.75H17V19.25ZM2.75 20V4H1.25V20H2.75ZM21.364 11.6025L16.364 19.6025L17.636 20.3975L22.636 12.3975L21.364 11.6025ZM22.636 11.6025L17.636 3.6025L16.364 4.3975L21.364 12.3975L22.636 11.6025Z" fill="#141B34"/>
<path d="M13 9L7 14.9996M13 15L7 9.00039" stroke="#141B34" stroke-width="1.5" stroke-linejoin="round"/>
</svg>
