<svg width="24" height="24" viewBox="0 0 24 24" fill="none" xmlns="http://www.w3.org/2000/svg">
<path d="M11.6363 16.9657V17.7157H12.2118L12.3607 17.1598L11.6363 16.9657ZM16.5352 14.1373L16.7294 13.4128L16.5352 14.1373ZM19.3637 19.0363V18.2863H18.7882L18.6392 18.8422L19.3637 19.0363ZM14.4647 21.8647L14.2706 22.5891L14.4647 21.8647ZM11.3232 16.9657L10.6624 17.3204L10.8745 17.7157H11.3232V16.9657ZM19.7832 19.0363L20.4558 18.7043L20.2494 18.2863H19.7832V19.0363ZM12.3607 17.1598C12.8253 15.4261 14.6074 14.3972 16.3411 14.8617L16.7294 13.4128C14.1954 12.7339 11.5908 14.2376 10.9118 16.7716L12.3607 17.1598ZM18.6392 18.8422C18.1747 20.5759 16.3926 21.6048 14.6588 21.1403L14.2706 22.5891C16.8045 23.2681 19.4091 21.7643 20.0881 19.2304L18.6392 18.8422ZM16.3411 14.8617C17.2287 15.0996 17.9308 15.6815 18.3438 16.4277L19.6562 15.7014C19.0542 14.6136 18.0264 13.7604 16.7294 13.4128L16.3411 14.8617ZM14.6588 21.1403C13.7917 20.9079 13.1018 20.3473 12.6854 19.626L11.3863 20.376C11.9936 21.4277 13.0038 22.2497 14.2706 22.5891L14.6588 21.1403ZM11.6363 16.2157H11.3232V17.7157H11.6363V16.2157ZM11.9841 16.6111L10.6609 14.1454L9.33915 14.8546L10.6624 17.3204L11.9841 16.6111ZM19.3637 19.7863H19.7832V18.2863H19.3637V19.7863ZM19.1107 19.3682L20.3267 21.832L21.6718 21.168L20.4558 18.7043L19.1107 19.3682Z" fill="#141B34"/>
<path d="M19.5 5.5L19.1364 11.5M4.5 5.5L5.5 22H9.5" stroke="#141B34" stroke-width="1.5" stroke-linejoin="round"/>
<path d="M2 5.5H8M22 5.5H16M16 5.5L14.5 2H9.5L8 5.5M16 5.5H8" stroke="#141B34" stroke-width="1.5" stroke-linejoin="round"/>
</svg>
