<svg width="24" height="24" viewBox="0 0 24 24" fill="none" xmlns="http://www.w3.org/2000/svg">
<path fill-rule="evenodd" clip-rule="evenodd" d="M17.0124 2.91296C17.5835 3.33594 18.2225 3.97495 18.9947 4.74721L19.2524 5.00494C20.0247 5.77714 20.6637 6.4161 21.0867 6.98724C21.5322 7.58883 21.8233 8.22593 21.7333 8.9823C21.6142 9.98235 20.9503 10.7392 20.3119 11.2856C20.0817 11.4826 19.8328 11.6697 19.5863 11.8434C19.3972 11.9767 19.3026 12.0434 19.1935 12.034C19.0845 12.0246 19.0006 11.9408 18.8329 11.7731L12.2267 5.16629C12.0591 4.99859 11.9752 4.91474 11.9658 4.80568C11.9565 4.69663 12.0232 4.60205 12.1565 4.41291C12.3301 4.16661 12.5171 3.9178 12.714 3.68767C13.2604 3.0493 14.0173 2.38545 15.0173 2.26636C15.7737 2.17628 16.4108 2.46744 17.0124 2.91296ZM17.6962 13.5203C17.8504 13.2967 17.9274 13.185 17.9176 13.0768C17.9078 12.9687 17.8184 12.8793 17.6396 12.7006L11.3001 6.36045C11.1213 6.18168 11.032 6.0923 10.9238 6.08244C10.8157 6.07258 10.7039 6.14964 10.4804 6.30376C9.60257 6.90892 8.74752 7.15025 7.84867 7.23816L7.81043 7.2419L7.81042 7.2419C7.12157 7.30926 6.55052 7.3651 6.10476 7.45259C5.65128 7.54159 5.20709 7.68335 4.85624 8.00492C4.52064 8.31252 4.34167 8.69516 4.21703 9.10448C4.0998 9.48947 4.00997 9.97333 3.90524 10.5375L2.50174 18.0959C2.37759 18.7642 2.26935 19.3468 2.2524 19.8122C2.24646 19.9755 2.25074 20.1434 2.27431 20.3103L8.2124 14.3721C8.00518 13.9929 7.86957 13.5825 7.80103 13.1603C7.71253 12.6152 8.08271 12.1015 8.62786 12.013C9.17301 11.9245 9.68668 12.2947 9.77518 12.8398C9.83572 13.2127 9.99189 13.5265 10.2321 13.7667C10.4722 14.0068 10.786 14.163 11.1589 14.2235C11.704 14.312 12.0742 14.8257 11.9857 15.3709C11.8972 15.916 11.3835 16.2862 10.8384 16.1977C10.4162 16.1292 10.0058 15.9935 9.62662 15.7863L3.68755 21.7255C3.85518 21.7493 4.02386 21.7537 4.18785 21.7477C4.65316 21.7307 5.23577 21.6225 5.90403 21.4983L13.4621 20.0948L13.4621 20.0948C14.0262 19.99 14.51 19.9002 14.895 19.783C15.3042 19.6584 15.6869 19.4794 15.9944 19.1439C16.316 18.793 16.4578 18.3488 16.5468 17.8954C16.6344 17.4496 16.6903 16.8784 16.7578 16.1895L16.7615 16.1513C16.8495 15.2525 17.091 14.3979 17.6962 13.5203Z" fill="#141B34"/>
</svg>
