<svg width="24" height="24" viewBox="0 0 24 24" fill="none" xmlns="http://www.w3.org/2000/svg">
<path fill-rule="evenodd" clip-rule="evenodd" d="M3.70748 1.32797C4.05323 1.28148 4.45116 1.26203 4.90027 1.25389C5.18166 1.24879 5.32236 1.24624 5.41216 1.33443C5.50196 1.42261 5.50196 1.5651 5.50196 1.85008V9.99805C5.50196 10.5503 5.94967 10.9981 6.50196 10.9981C7.05424 10.9981 7.50196 10.5503 7.50196 9.99805V1.85008C7.50196 1.5651 7.50196 1.42261 7.59175 1.33443C7.68155 1.24624 7.82225 1.24879 8.10364 1.25389C8.55275 1.26203 8.95069 1.28148 9.29644 1.32797C9.92423 1.41237 10.491 1.59804 10.9465 2.05351C11.402 2.50898 11.5876 3.07578 11.672 3.70357C11.752 4.29835 11.752 5.04756 11.752 5.94603L11.752 8.99805C11.752 9.96207 11.7536 10.6096 11.8185 11.0927C11.8805 11.5541 11.9878 11.7516 12.1181 11.8819C12.2484 12.0123 12.4459 12.1195 12.9074 12.1815C13.3904 12.2465 14.0379 12.2481 15.002 12.2481L18.054 12.2481C18.9524 12.248 19.7017 12.248 20.2964 12.328C20.9242 12.4124 21.491 12.598 21.9465 13.0535C22.402 13.509 22.5876 14.0758 22.672 14.7036C22.7185 15.0493 22.738 15.4473 22.7461 15.8964C22.7512 16.1778 22.7538 16.3185 22.6656 16.4083C22.5774 16.4981 22.4349 16.4981 22.1499 16.4981H14.002C13.4497 16.4981 13.002 16.9458 13.002 17.4981C13.002 18.0503 13.4497 18.4981 14.002 18.4981H22.1499C22.4349 18.4981 22.5774 18.4981 22.6656 18.5879C22.7538 18.6776 22.7512 18.8183 22.7461 19.0997C22.738 19.5488 22.7185 19.9468 22.672 20.2925C22.5876 20.9203 22.402 21.4871 21.9465 21.9426C21.491 22.3981 20.9242 22.5837 20.2964 22.6681C19.7017 22.7481 18.9525 22.7481 18.054 22.7481H7.94709C6.5795 22.7481 5.47718 22.7481 4.61021 22.6315C3.7101 22.5105 2.95223 22.2516 2.35031 21.6497C1.74839 21.0478 1.4895 20.2899 1.36848 19.3898C1.25192 18.5228 1.25194 17.4205 1.25196 16.0529L1.25195 5.94603V5.946C1.25193 5.04757 1.25191 4.29833 1.33187 3.70358C1.41628 3.07578 1.60195 2.50898 2.05742 2.05351C2.51289 1.59804 3.07969 1.41237 3.70748 1.32797ZM10.002 16.4979C10.002 17.8786 8.88267 18.9979 7.50195 18.9979C6.12124 18.9979 5.00195 17.8786 5.00195 16.4979C5.00195 15.1172 6.12124 13.9979 7.50195 13.9979C8.88267 13.9979 10.002 15.1172 10.002 16.4979Z" fill="#141B34"/>
</svg>
