<svg width="24" height="24" viewBox="0 0 24 24" fill="none" xmlns="http://www.w3.org/2000/svg">
<path d="M5.31629 1.28608C5.88297 1.4032 6.33427 1.78394 6.61466 2.28697L7.50787 3.88942C7.83688 4.47962 8.11375 4.97631 8.29457 5.40808C8.48637 5.8661 8.60029 6.31775 8.54821 6.81712C8.49614 7.31648 8.29148 7.73491 8.00931 8.1435C7.7433 8.52868 7.36991 8.95755 6.92621 9.46718L5.6132 10.9754C5.37791 11.2456 5.26026 11.3808 5.24951 11.5497C5.23876 11.7186 5.33518 11.8628 5.52803 12.1513C7.17161 14.6104 9.38675 16.8263 11.8478 18.4713C12.1364 18.6642 12.2806 18.7606 12.4495 18.7498C12.6184 18.7391 12.7536 18.6214 13.0238 18.3862L14.5321 17.0731C15.0417 16.6294 15.4706 16.256 15.8558 15.99C16.2644 15.7078 16.6828 15.5031 17.1822 15.4511C17.6815 15.399 18.1332 15.5129 18.5912 15.7047C19.0229 15.8855 19.5196 16.1624 20.1097 16.4913L21.7123 17.3846C22.2153 17.665 22.5961 18.1163 22.7132 18.683C22.8316 19.2556 22.657 19.8312 22.2714 20.3042C20.8725 22.0205 18.6313 23.1134 16.28 22.6391C14.8348 22.3475 13.4088 21.8618 11.6841 20.8727C8.21872 18.8853 5.11165 15.7765 3.12658 12.3152C2.13746 10.5905 1.65174 9.16452 1.3602 7.71925C0.885904 5.36803 1.97874 3.12675 3.6951 1.72785C4.16814 1.3423 4.74368 1.16773 5.31629 1.28608Z" fill="#141B34"/>
<path d="M20.7058 4.70686C21.0963 4.31634 21.0963 3.68317 20.7058 3.29265C20.3153 2.90212 19.6821 2.90212 19.2916 3.29265L15.0299 7.5544L14.2677 6.79224L14.2529 6.77736C14.1972 6.72146 14.0979 6.62174 13.9999 6.54613L13.9967 6.54365C13.926 6.48886 13.5055 6.16323 12.9511 6.3579C12.3943 6.55346 12.2707 7.07522 12.2507 7.15946L12.2496 7.16426C12.2207 7.2843 12.2055 7.42436 12.1968 7.50467L12.1945 7.52601C12.1829 7.6311 12.1682 7.75323 12.1521 7.88707C12.1002 8.31706 12.0338 8.86797 12.0094 9.36337C11.9932 9.69232 11.9919 10.049 12.0354 10.3744C12.0712 10.6423 12.1607 11.0995 12.4884 11.4486C12.4982 11.4592 12.5082 11.4697 12.5185 11.48C12.5285 11.49 12.5386 11.4997 12.5489 11.5092C12.8982 11.8379 13.3561 11.9275 13.6244 11.9634C13.9497 12.0069 14.3065 12.0056 14.6354 11.9894C15.1308 11.965 15.6817 11.8986 16.1117 11.8467C16.2455 11.8306 16.3677 11.8159 16.4728 11.8043L16.4941 11.8019C16.5744 11.7932 16.7145 11.7781 16.8345 11.7492L16.8393 11.7481C16.9236 11.7281 17.4453 11.6045 17.6409 11.0476C17.8355 10.4933 17.5099 10.0728 17.4551 10.002L17.4526 9.99884C17.377 9.90084 17.2773 9.80157 17.2214 9.74591L17.2065 9.73109L16.4441 8.96861L20.7058 4.70686Z" fill="#141B34"/>
</svg>
