<svg width="24" height="24" viewBox="0 0 24 24" fill="none" xmlns="http://www.w3.org/2000/svg">
<path d="M5.31824 1.28632C5.88492 1.40345 6.33622 1.78419 6.61661 2.28722L7.50983 3.88967C7.83883 4.47987 8.11571 4.97655 8.29652 5.40832C8.48832 5.86634 8.60224 6.318 8.55017 6.81736C8.49809 7.31672 8.29344 7.73516 8.01126 8.14375C7.74526 8.52892 7.37186 8.9578 6.92816 9.46742L5.61515 10.9756C5.37986 11.2459 5.26222 11.381 5.25147 11.5499C5.24072 11.7188 5.33714 11.8631 5.52998 12.1516C7.17356 14.6107 9.38871 16.8266 11.8498 18.4716C12.1383 18.6644 12.2826 18.7608 12.4515 18.7501C12.6204 18.7393 12.7555 18.6217 13.0258 18.3864L14.5341 17.0733C15.0437 16.6296 15.4726 16.2562 15.8577 15.9902C16.2663 15.708 16.6848 15.5034 17.1841 15.4513C17.6835 15.3992 18.1351 15.5132 18.5932 15.705C19.0249 15.8858 19.5216 16.1626 20.1117 16.4916L21.7143 17.3849C22.2173 17.6653 22.598 18.1166 22.7152 18.6832C22.8335 19.2558 22.6589 19.8314 22.2734 20.3044C20.8745 22.0208 18.6332 23.1136 16.282 22.6393C14.8367 22.3478 13.4107 21.8621 11.686 20.873C8.22068 18.8856 5.1136 15.7768 3.12853 12.3155C2.13941 10.5907 1.6537 9.16476 1.36215 7.7195C0.887857 5.36827 1.98069 3.12699 3.69705 1.72809C4.17009 1.34255 4.74564 1.16798 5.31824 1.28632Z" fill="#141B34"/>
<path fill-rule="evenodd" clip-rule="evenodd" d="M12 7C12 6.44772 12.4477 6 13 6L21 6C21.5523 6 22 6.44772 22 7C22 7.55228 21.5523 8 21 8L13 8C12.4477 8 12 7.55228 12 7Z" fill="#141B34"/>
</svg>
