<svg width="24" height="24" viewBox="0 0 24 24" fill="none" xmlns="http://www.w3.org/2000/svg">
<path d="M5.31629 1.28608C5.88297 1.4032 6.33427 1.78394 6.61466 2.28697L7.50787 3.88942C7.83688 4.47962 8.11375 4.97631 8.29457 5.40808C8.48637 5.8661 8.60029 6.31775 8.54821 6.81712C8.49614 7.31648 8.29148 7.73491 8.00931 8.1435C7.7433 8.52868 7.36991 8.95755 6.92621 9.46718L5.6132 10.9754C5.37791 11.2456 5.26026 11.3808 5.24951 11.5497C5.23876 11.7186 5.33518 11.8628 5.52803 12.1513C7.17161 14.6104 9.38675 16.8263 11.8478 18.4713C12.1364 18.6642 12.2806 18.7606 12.4495 18.7498C12.6184 18.7391 12.7536 18.6214 13.0238 18.3862L14.5321 17.0731C15.0417 16.6294 15.4706 16.256 15.8558 15.99C16.2644 15.7078 16.6828 15.5031 17.1822 15.4511C17.6815 15.399 18.1332 15.5129 18.5912 15.7047C19.0229 15.8855 19.5196 16.1624 20.1097 16.4913L21.7123 17.3846C22.2153 17.665 22.5961 18.1163 22.7132 18.683C22.8316 19.2556 22.657 19.8312 22.2714 20.3042C20.8725 22.0205 18.6313 23.1134 16.28 22.6391C14.8348 22.3475 13.4088 21.8618 11.6841 20.8727C8.21872 18.8853 5.11165 15.7765 3.12658 12.3152C2.13746 10.5905 1.65174 9.16452 1.3602 7.71925C0.885904 5.36803 1.97874 3.12675 3.6951 1.72785C4.16814 1.3423 4.74368 1.16773 5.31629 1.28608Z" fill="#141B34"/>
<path fill-rule="evenodd" clip-rule="evenodd" d="M13.2929 2.29289C13.6834 1.90237 14.3166 1.90237 14.7071 2.29289L17.5 5.08579L20.2929 2.29289C20.6834 1.90237 21.3166 1.90237 21.7071 2.29289C22.0976 2.68342 22.0976 3.31658 21.7071 3.70711L18.9142 6.5L21.7071 9.29289C22.0976 9.68342 22.0976 10.3166 21.7071 10.7071C21.3166 11.0976 20.6834 11.0976 20.2929 10.7071L17.5 7.91421L14.7071 10.7071C14.3166 11.0976 13.6834 11.0976 13.2929 10.7071C12.9024 10.3166 12.9024 9.68342 13.2929 9.29289L16.0858 6.5L13.2929 3.70711C12.9024 3.31658 12.9024 2.68342 13.2929 2.29289Z" fill="#141B34"/>
</svg>
