<svg width="24" height="24" viewBox="0 0 24 24" fill="none" xmlns="http://www.w3.org/2000/svg">
<path d="M5.19226 1.41132C5.75895 1.52845 6.21024 1.90919 6.49064 2.41222L7.38385 4.01467C7.71286 4.60487 7.98973 5.10155 8.17054 5.53332C8.36235 5.99134 8.47626 6.443 8.42419 6.94236C8.37211 7.44172 8.16746 7.86016 7.88529 8.26875C7.61928 8.65392 7.24588 9.0828 6.80218 9.59242L5.48917 11.1006C5.25389 11.3709 5.13624 11.506 5.12549 11.6749C5.11474 11.8438 5.21116 11.9881 5.404 12.2766C7.04759 14.7357 9.26273 16.9516 11.7238 18.5966C12.0124 18.7894 12.1566 18.8858 12.3255 18.8751C12.4944 18.8643 12.6296 18.7467 12.8998 18.5114L14.4081 17.1983C14.9177 16.7546 15.3466 16.3812 15.7318 16.1152C16.1403 15.833 16.5588 15.6284 17.0581 15.5763C17.5575 15.5242 18.0092 15.6382 18.4672 15.83C18.8989 16.0108 19.3956 16.2876 19.9857 16.6166L21.5883 17.5099C22.0913 17.7903 22.4721 18.2416 22.5892 18.8082C22.7075 19.3808 22.533 19.9564 22.1474 20.4294C20.7485 22.1458 18.5072 23.2386 16.156 22.7643C14.7108 22.4728 13.2848 21.9871 11.5601 20.998C8.0947 19.0106 4.98763 15.9018 3.00255 12.4405C2.01343 10.7157 1.52772 9.28976 1.23618 7.8445C0.76188 5.49327 1.85471 3.25199 3.57108 1.85309C4.04411 1.46755 4.61966 1.29298 5.19226 1.41132Z" fill="#141B34"/>
<path fill-rule="evenodd" clip-rule="evenodd" d="M13.5675 1.84775C13.7206 1.31712 14.2749 1.01109 14.8056 1.16422C18.6729 2.28025 21.7189 5.3261 22.8351 9.19334C22.9882 9.72396 22.6822 10.2783 22.1516 10.4314C21.621 10.5846 21.0666 10.2786 20.9135 9.74795C19.9879 6.54097 17.4581 4.0113 14.251 3.08581C13.7204 2.93268 13.4144 2.37838 13.5675 1.84775ZM12.9538 6.566C13.1697 6.05765 13.7568 5.82055 14.2652 6.03642C15.9269 6.74207 17.2573 8.07245 17.9629 9.73414C18.1788 10.2425 17.9417 10.8296 17.4333 11.0455C16.925 11.2613 16.3379 11.0242 16.122 10.5159C15.6189 9.33112 14.6682 8.38044 13.4834 7.87731C12.9751 7.66144 12.738 7.07435 12.9538 6.566Z" fill="#141B34"/>
</svg>
