<svg width="24" height="24" viewBox="0 0 24 24" fill="none" xmlns="http://www.w3.org/2000/svg">
<path d="M5.62343 6.58393C5.8532 6.92858 5.76007 7.39423 5.41542 7.624L4.19662 8.43653C3.7483 8.73541 3.45498 8.93186 3.24048 9.10582C3.03814 9.26991 2.95013 9.37995 2.89512 9.48315C2.87315 9.52437 2.85324 9.57035 2.83575 9.62711L9.29832 13.5047C10.0632 13.9636 10.5898 14.2785 11.0274 14.4842C11.4497 14.6828 11.7329 14.7514 11.9994 14.7514C12.2659 14.7514 12.5492 14.6828 12.9714 14.4842C13.409 14.2785 13.9356 13.9636 14.7005 13.5047L21.163 9.62714C21.1456 9.57037 21.1256 9.52438 21.1037 9.48315C21.0487 9.37995 20.9606 9.26991 20.7583 9.10582C20.5438 8.93186 20.2505 8.73541 19.8022 8.43653L18.5834 7.624C18.2387 7.39423 18.1456 6.92858 18.3754 6.58393C18.6051 6.23929 19.0708 6.14616 19.4154 6.37592L20.6615 7.20667C21.0751 7.48236 21.4276 7.71737 21.7031 7.94078C21.9968 8.17897 22.2456 8.43662 22.4274 8.77758C22.6279 9.15384 22.6989 9.54102 22.7276 9.96076C22.7499 10.2858 22.7486 10.6714 22.7471 11.1186L22.747 11.143C22.7428 12.4027 22.7311 13.6894 22.6985 14.9928L22.6971 15.0513C22.66 16.5389 22.63 17.739 22.4598 18.7046C22.281 19.718 21.9377 20.5426 21.2336 21.2467C20.528 21.9523 19.6968 22.295 18.6747 22.4735C17.6993 22.6439 16.4842 22.6743 14.9756 22.7119L14.9174 22.7134C12.9664 22.7621 11.0325 22.7621 9.0814 22.7134L9.02319 22.7119C7.51459 22.6743 6.29951 22.6439 5.32414 22.4735C4.30207 22.295 3.4708 21.9523 2.76522 21.2467C2.06112 20.5426 1.71781 19.718 1.53908 18.7046C1.36877 17.739 1.33884 16.5389 1.30173 15.0513L1.30027 14.9928C1.26774 13.6894 1.25602 12.4027 1.25179 11.143L1.25171 11.1187C1.2502 10.6715 1.24889 10.2858 1.27115 9.96071C1.29989 9.54099 1.37087 9.15383 1.57142 8.77759C1.75316 8.43663 2.00195 8.17897 2.29566 7.94078C2.57115 7.71736 2.92366 7.48238 3.33725 7.20667L4.58337 6.37592C4.92802 6.14616 5.39367 6.23929 5.62343 6.58393Z" fill="#141B34"/>
<path d="M15.052 1.25C15.9505 1.24997 16.6997 1.24995 17.2945 1.32991C17.9223 1.41432 18.4891 1.59999 18.9445 2.05546C19.4 2.51093 19.5857 3.07773 19.6701 3.70552C19.7501 4.3003 19.75 5.04951 19.75 5.94798V5.94801L19.75 12C19.75 12.4142 19.4142 12.75 19 12.75C18.5858 12.75 18.25 12.4142 18.25 12V6C18.25 5.03599 18.2484 4.38843 18.1835 3.90539C18.1214 3.44393 18.0142 3.24644 17.8839 3.11612C17.7536 2.9858 17.5561 2.87858 17.0946 2.81654C16.6116 2.7516 15.964 2.75 15 2.75H9C8.03599 2.75 7.38843 2.7516 6.90539 2.81654C6.44393 2.87858 6.24644 2.9858 6.11612 3.11612C5.9858 3.24644 5.87858 3.44393 5.81654 3.90539C5.7516 4.38843 5.75 5.03599 5.75 6V12C5.75 12.4142 5.41422 12.75 5 12.75C4.58579 12.75 4.25 12.4142 4.25 12L4.25 5.948V5.94797C4.24997 5.0495 4.24995 4.3003 4.32991 3.70552C4.41432 3.07773 4.59999 2.51093 5.05546 2.05546C5.51093 1.59999 6.07773 1.41432 6.70552 1.32991C7.3003 1.24995 8.04951 1.24997 8.94797 1.25H8.948H15.052H15.052Z" fill="#141B34"/>
<path d="M9.39053 5.62398C10.4124 5.04359 11.368 5.21925 11.9997 5.60413C12.6314 5.21925 13.587 5.04359 14.6089 5.62398C15.4395 6.09574 15.8707 7.06317 15.7196 8.10614C15.5683 9.15045 14.8563 10.2272 13.5218 11.1418L13.4601 11.1842C13.0475 11.468 12.6377 11.75 11.9997 11.75C11.3617 11.75 10.9519 11.468 10.5393 11.1842L10.4776 11.1418C9.14306 10.2272 8.43108 9.15045 8.27981 8.10614C8.12874 7.06317 8.55993 6.09574 9.39053 5.62398Z" fill="#141B34"/>
</svg>
