<svg width="24" height="24" viewBox="0 0 24 24" fill="none" xmlns="http://www.w3.org/2000/svg">
<path fill-rule="evenodd" clip-rule="evenodd" d="M8.6104 2.29177C8.99364 2.15821 9.4136 2.35374 9.55808 2.73301L10.5169 5.25H13.4832L14.442 2.73301C14.5865 2.35374 15.0065 2.15821 15.3897 2.29177L20.5769 4.0995L20.6949 4.44524C21.7982 7.67791 22.4019 10.4992 22.6353 12.767C22.8657 15.0061 22.7443 16.7902 22.3165 17.8957C22.3092 17.9147 22.3011 17.9334 22.2922 17.9517C21.9022 18.7576 21.3133 19.6763 20.5827 20.4056C19.8647 21.1224 18.9132 21.75 17.808 21.75H17.4446L14.8288 18.4373C15.624 18.2639 16.4328 18.0184 17.2664 17.7009L16.7324 16.2991C13.4044 17.567 10.5944 17.567 7.26641 16.2991L6.73242 17.7009C7.56642 18.0186 8.37556 18.2641 9.17113 18.4375L6.55552 21.75H6.19211C5.08686 21.75 4.13542 21.1224 3.41741 20.4056C2.6868 19.6763 2.09791 18.7576 1.70792 17.9517C1.69905 17.9334 1.69093 17.9147 1.68357 17.8957C1.25582 16.7902 1.13441 15.0061 1.36483 12.767C1.59821 10.4992 2.20187 7.67791 3.30521 4.44524L3.42321 4.0995L8.6104 2.29177ZM7.99247 9.50006C7.1682 9.50006 6.5 10.1716 6.5 11.0001C6.5 11.8285 7.1682 12.5001 7.99247 12.5001H8.00753C8.8318 12.5001 9.5 11.8285 9.5 11.0001C9.5 10.1716 8.8318 9.50006 8.00753 9.50006H7.99247ZM15.9925 9.50006C15.1682 9.50006 14.5 10.1716 14.5 11.0001C14.5 11.8285 15.1682 12.5001 15.9925 12.5001H16.0075C16.8318 12.5001 17.5 11.8285 17.5 11.0001C17.5 10.1716 16.8318 9.50006 16.0075 9.50006H15.9925Z" fill="#141B34"/>
</svg>
