<svg width="24" height="24" viewBox="0 0 24 24" fill="none" xmlns="http://www.w3.org/2000/svg">
<path d="M17.3981 22.2496C20.287 22.2496 21.25 19.9271 21.25 17.0621C20.287 18.0992 17.6171 20.269 16.4352 16.0245C14.9907 10.8371 10.75 11.7495 8.25 14.2496C12.1019 14.2496 12.6327 15.1469 13.5463 18.0996C14.5093 21.212 15.9537 22.2496 17.3981 22.2496Z" fill="#141B34"/>
<path d="M15.8742 12.4148C15.9564 11.9612 16 11.4874 16 11C16 7.68629 13.9853 5 11.5 5C9.01472 5 7 7.68629 7 11C7 14.3137 9.01472 17 11.5 17C11.6117 17 11.7224 16.9946 11.832 16.9839C11.9848 17.3426 12.1501 17.8201 12.3512 18.47C12.5382 19.0746 12.7474 19.6241 12.9789 20.1191C12.4988 20.2051 12.0047 20.25 11.5 20.25C6.62532 20.25 2.75 16.0651 2.75 11C2.75 5.93485 6.62532 1.75 11.5 1.75C16.3747 1.75 20.25 5.93485 20.25 11C20.25 13.2637 19.476 15.3516 18.1846 16.9686C18.0213 16.7397 17.8214 16.3473 17.6384 15.6901C17.253 14.3058 16.6618 13.2079 15.8742 12.4148Z" fill="#141B34"/>
</svg>
