<svg width="24" height="24" viewBox="0 0 24 24" fill="none" xmlns="http://www.w3.org/2000/svg">
<path d="M4 9.75757V14.2103C4 16.8583 5.35602 19.1977 7.42857 20.6058C7.94801 21.0321 9.36093 21.8924 10.8571 21.9236C15.5839 22.5822 20 18.8952 20 14.2103V10.3333C20 8 19.4868 7.16758 19.2301 6.41803C17.136 2.12432 11.3996 0.664089 7.42857 3.36201C6.67678 4.03764 5.08996 5.6 4.75704 6.44444C4.27144 7.44988 4 8.57285 4 9.75757Z" fill="#D4D7E0"/>
<path d="M8 10.6545V13.3262C8 14.915 8.67801 16.3186 9.71429 17.1635C9.974 17.4193 10.6805 17.9354 11.4286 17.9542C13.792 18.3493 16 16.1371 16 13.3262V11C16 9.6 15.7434 9.10055 15.6151 8.65082C14.568 6.07459 11.6998 5.19845 9.71429 6.81721C9.33839 7.22258 8.54498 8.16 8.37852 8.66667C8.13572 9.26993 8 9.94371 8 10.6545Z" fill="white"/>
<path d="M7.42857 3.36201C11.3996 0.664089 17.136 2.12432 19.2301 6.41803M10.8571 21.9236C15.5839 22.5822 20 18.8952 20 14.2103V10.3333M7.42857 20.6058C5.35602 19.1977 4 16.8583 4 14.2103V9.75757C4 8.57285 4.27144 7.44988 4.75704 6.44444" stroke="#141B34" stroke-width="1.5" stroke-linecap="round" stroke-linejoin="round"/>
<path d="M16 13.8C16 16.1196 14.2091 18 12 18C9.79086 18 8 16.1196 8 13.8V10.2C8 9.55584 8.13811 8.94555 8.38493 8.4M12 6C14.2091 6 16 7.8804 16 10.2" stroke="#141B34" stroke-width="1.5" stroke-linecap="round" stroke-linejoin="round"/>
<path d="M12 10.5L12 13.5" stroke="#141B34" stroke-width="1.5" stroke-linecap="round" stroke-linejoin="round"/>
</svg>
