<svg width="24" height="24" viewBox="0 0 24 24" fill="none" xmlns="http://www.w3.org/2000/svg">
<path d="M2.5 12C2.5 7.52166 2.5 5.28249 3.89124 3.89124C5.28249 2.5 7.52166 2.5 12 2.5C16.4783 2.5 18.7175 2.5 20.1088 3.89124C21.5 5.28249 21.5 7.52166 21.5 12C21.5 16.4783 21.5 18.7175 20.1088 20.1088C18.7175 21.5 16.4783 21.5 12 21.5C7.52166 21.5 5.28249 21.5 3.89124 20.1088C2.5 18.7175 2.5 16.4783 2.5 12Z" stroke="#141B34" stroke-width="1.5" stroke-linejoin="round"/>
<path opacity="0.4" d="M6.6 7.55C6.35147 7.21863 5.88137 7.15147 5.55 7.4C5.21863 7.64853 5.15147 8.11863 5.4 8.45L6.6 7.55ZM11.4 16.45C11.6485 16.7814 12.1186 16.8485 12.45 16.6C12.7814 16.3515 12.8485 15.8814 12.6 15.55L11.4 16.45ZM5.4 15.55C5.15147 15.8814 5.21863 16.3515 5.55 16.6C5.88137 16.8485 6.35147 16.7814 6.6 16.45L5.4 15.55ZM12.6 8.45C12.8485 8.11863 12.7814 7.64853 12.45 7.4C12.1186 7.15147 11.6485 7.21863 11.4 7.55L12.6 8.45ZM18.75 8C18.75 7.58579 18.4142 7.25 18 7.25C17.5858 7.25 17.25 7.58579 17.25 8H18.75ZM5.4 8.45L8.4 12.45L9.6 11.55L6.6 7.55L5.4 8.45ZM8.4 12.45L11.4 16.45L12.6 15.55L9.6 11.55L8.4 12.45ZM6.6 16.45L9.6 12.45L8.4 11.55L5.4 15.55L6.6 16.45ZM9.6 12.45L12.6 8.45L11.4 7.55L8.4 11.55L9.6 12.45ZM18.75 15V11H17.25V15H18.75ZM18.75 11V8H17.25V11H18.75ZM18 10.25H16.5V11.75H18V10.25ZM13.25 13.5C13.25 15.2949 14.7051 16.75 16.5 16.75V15.25C15.5335 15.25 14.75 14.4665 14.75 13.5H13.25ZM16.5 10.25C14.7051 10.25 13.25 11.7051 13.25 13.5H14.75C14.75 12.5335 15.5335 11.75 16.5 11.75V10.25ZM17.25 15C17.25 15.1101 17.2434 15.1889 17.2349 15.2437C17.2307 15.2706 17.2263 15.2897 17.2228 15.3024C17.2193 15.315 17.217 15.3203 17.2171 15.32C17.2283 15.2945 17.269 15.2481 17.3138 15.2282C17.3216 15.2247 17.2819 15.2428 17.1185 15.2494C16.9513 15.2562 16.7791 15.25 16.5 15.25V16.75C16.7124 16.75 16.9735 16.7566 17.1796 16.7482C17.3897 16.7396 17.6635 16.7144 17.9235 16.5987C18.2204 16.4666 18.4518 16.2391 18.5906 15.9228C18.7148 15.64 18.75 15.3201 18.75 15H17.25Z" fill="#141B34"/>
</svg>
