<svg width="24" height="24" viewBox="0 0 24 24" fill="none" xmlns="http://www.w3.org/2000/svg">
<path d="M2.5 12C2.5 7.52166 2.5 5.28249 3.89124 3.89124C5.28249 2.5 7.52166 2.5 12 2.5C16.4783 2.5 18.7175 2.5 20.1088 3.89124C21.5 5.28249 21.5 7.52166 21.5 12C21.5 16.4783 21.5 18.7175 20.1088 20.1088C18.7175 21.5 16.4783 21.5 12 21.5C7.52166 21.5 5.28249 21.5 3.89124 20.1088C2.5 18.7175 2.5 16.4783 2.5 12Z" stroke="#141B34" stroke-width="1.5" stroke-linejoin="round"/>
<path opacity="0.4" d="M5.75 16C5.75 16.4142 6.08579 16.75 6.5 16.75C6.91421 16.75 7.25 16.4142 7.25 16H5.75ZM7.40198 8.00482L7.32847 7.25843L7.40198 8.00482ZM6.50482 8.90198L5.75843 8.82847L6.50482 8.90198ZM16.7381 11.404C16.8384 11.8059 17.2454 12.0505 17.6473 11.9502C18.0492 11.85 18.2938 11.443 18.1936 11.041L16.7381 11.404ZM14.2612 14.5933C14.1636 14.1908 13.7582 13.9435 13.3557 14.0411C12.9531 14.1387 12.7059 14.5441 12.8034 14.9466L14.2612 14.5933ZM7.625 8.75H9V7.25H7.625V8.75ZM7.25 16V12H5.75V16H7.25ZM7.25 12V9.125H5.75V12H7.25ZM9 11.25H6.5V12.75H9V11.25ZM10.25 10C10.25 10.6904 9.69036 11.25 9 11.25V12.75C10.5188 12.75 11.75 11.5188 11.75 10H10.25ZM9 8.75C9.69036 8.75 10.25 9.30964 10.25 10H11.75C11.75 8.48122 10.5188 7.25 9 7.25V8.75ZM7.625 7.25C7.52676 7.25 7.42327 7.24909 7.32847 7.25843L7.4755 8.7512C7.47122 8.75163 7.47532 8.75093 7.50114 8.75049C7.52836 8.75003 7.56442 8.75 7.625 8.75V7.25ZM7.25 9.125C7.25 9.06442 7.25003 9.02836 7.25049 9.00114C7.25093 8.97532 7.25163 8.97122 7.2512 8.9755L5.75843 8.82847C5.74909 8.92327 5.75 9.02676 5.75 9.125H7.25ZM7.32847 7.25843C6.49761 7.34026 5.84026 7.99761 5.75843 8.82847L7.2512 8.9755C7.26289 8.8568 7.3568 8.76289 7.4755 8.7512L7.32847 7.25843ZM15.5 12.25C15.0943 12.25 14.7559 12.1257 14.5358 11.9607C14.3159 11.7958 14.25 11.6252 14.25 11.5H12.75C12.75 12.2032 13.1318 12.7827 13.6358 13.1607C14.1396 13.5385 14.8011 13.75 15.5 13.75V12.25ZM14.25 11.5C14.25 11.3748 14.3159 11.2042 14.5358 11.0393C14.7559 10.8743 15.0943 10.75 15.5 10.75V9.25C14.8011 9.25 14.1396 9.46151 13.6358 9.83934C13.1318 10.2173 12.75 10.7968 12.75 11.5H14.25ZM16.75 14.5C16.75 14.6252 16.6841 14.7958 16.4642 14.9607C16.2441 15.1257 15.9057 15.25 15.5 15.25V16.75C16.1989 16.75 16.8604 16.5385 17.3642 16.1607C17.8682 15.7827 18.25 15.2032 18.25 14.5H16.75ZM15.5 13.75C15.9057 13.75 16.2441 13.8743 16.4642 14.0393C16.6841 14.2042 16.75 14.3748 16.75 14.5H18.25C18.25 13.7968 17.8682 13.2173 17.3642 12.8393C16.8604 12.4615 16.1989 12.25 15.5 12.25V13.75ZM15.5 10.75C16.2709 10.75 16.677 11.159 16.7381 11.404L18.1936 11.041C17.9076 9.89436 16.6854 9.25 15.5 9.25V10.75ZM15.5 15.25C14.7256 15.25 14.3205 14.838 14.2612 14.5933L12.8034 14.9466C13.0832 16.1011 14.3111 16.75 15.5 16.75V15.25Z" fill="#141B34"/>
</svg>
