<svg width="24" height="24" viewBox="0 0 24 24" fill="none" xmlns="http://www.w3.org/2000/svg">
<path d="M2.5 12C2.5 7.52166 2.5 5.28249 3.89124 3.89124C5.28249 2.5 7.52166 2.5 12 2.5C16.4783 2.5 18.7175 2.5 20.1088 3.89124C21.5 5.28249 21.5 7.52166 21.5 12C21.5 16.4783 21.5 18.7175 20.1088 20.1088C18.7175 21.5 16.4783 21.5 12 21.5C7.52166 21.5 5.28249 21.5 3.89124 20.1088C2.5 18.7175 2.5 16.4783 2.5 12Z" stroke="#141B34" stroke-width="1.5" stroke-linejoin="round"/>
<path opacity="0.4" d="M11.4097 10.8589L12.1262 10.6373V10.6373L11.4097 10.8589ZM8.59031 10.8589L7.87381 10.6373L7.87381 10.6373L8.59031 10.8589ZM6.2835 15.7784C6.16109 16.1741 6.38265 16.5941 6.77836 16.7165C7.17407 16.8389 7.59409 16.6174 7.7165 16.2216L6.2835 15.7784ZM12.2835 16.2216C12.4059 16.6174 12.8259 16.8389 13.2216 16.7165C13.6174 16.5941 13.8389 16.1741 13.7165 15.7784L12.2835 16.2216ZM15.25 16C15.25 16.4142 15.5858 16.75 16 16.75C16.4142 16.75 16.75 16.4142 16.75 16H15.25ZM16.75 11C16.75 10.5858 16.4142 10.25 16 10.25C15.5858 10.25 15.25 10.5858 15.25 11H16.75ZM15.25 8.5C15.25 8.91421 15.5858 9.25 16 9.25C16.4142 9.25 16.75 8.91421 16.75 8.5H15.25ZM16.75 8C16.75 7.58579 16.4142 7.25 16 7.25C15.5858 7.25 15.25 7.58579 15.25 8H16.75ZM12.1262 10.6373C11.838 9.70557 11.6016 8.93684 11.3654 8.40859C11.2474 8.14472 11.1028 7.87734 10.9083 7.66808C10.6976 7.44136 10.3942 7.25 10 7.25V8.75C9.86846 8.75 9.79892 8.67777 9.80963 8.68929C9.83657 8.71828 9.901 8.80826 9.99608 9.02088C10.186 9.44561 10.3918 10.1063 10.6932 11.0806L12.1262 10.6373ZM9.30681 11.0806C9.60818 10.1063 9.81401 9.44561 10.0039 9.02088C10.099 8.80826 10.1634 8.71828 10.1904 8.68929C10.2011 8.67777 10.1315 8.75 10 8.75V7.25C9.6058 7.25 9.30241 7.44136 9.09168 7.66808C8.89718 7.87733 8.75257 8.14472 8.63458 8.40859C8.39838 8.93684 8.16202 9.70557 7.87381 10.6373L9.30681 11.0806ZM7.7165 16.2216L8.58264 13.4216L7.14964 12.9784L6.2835 15.7784L7.7165 16.2216ZM8.58264 13.4216L9.30681 11.0806L7.87381 10.6373L7.14964 12.9784L8.58264 13.4216ZM10.6932 11.0806L11.4174 13.4216L12.8504 12.9784L12.1262 10.6373L10.6932 11.0806ZM11.4174 13.4216L12.2835 16.2216L13.7165 15.7784L12.8504 12.9784L11.4174 13.4216ZM7.86614 13.95H12.1339V12.45H7.86614V13.95ZM16.75 16V11H15.25V16H16.75ZM16.75 8.5V8H15.25V8.5H16.75Z" fill="#141B34"/>
</svg>
