<svg width="24" height="24" viewBox="0 0 24 24" fill="none" xmlns="http://www.w3.org/2000/svg">
<path opacity="0.4" d="M6 19.25C5.58579 19.25 5.25 19.5858 5.25 20C5.25 20.4142 5.58579 20.75 6 20.75V19.25ZM18 20.75C18.4142 20.75 18.75 20.4142 18.75 20C18.75 19.5858 18.4142 19.25 18 19.25V20.75ZM6 20.75H18V19.25H6V20.75Z" fill="#141B34"/>
<path d="M12 12H14.9597C15.3789 12 15.612 12.485 15.3501 12.8123L12.3904 16.512C12.1903 16.7622 11.8097 16.7622 11.6096 16.512L8.64988 12.8123C8.38797 12.485 8.62106 12 9.04031 12H12ZM12 12V4" stroke="#141B34" stroke-width="1.5" stroke-linecap="round" stroke-linejoin="round"/>
</svg>
