<svg width="24" height="24" viewBox="0 0 24 24" fill="none" xmlns="http://www.w3.org/2000/svg">
<path d="M22 12C22 17.5228 17.5228 22 12 22C6.47715 22 2 17.5228 2 12C2 6.47715 6.47715 2 12 2C17.5228 2 22 6.47715 22 12Z" stroke="#141B34" stroke-width="1.5"/>
<path opacity="0.4" d="M10.3044 22.074C10.3453 22.4862 10.7126 22.7872 11.1248 22.7463C11.537 22.7053 11.838 22.338 11.797 21.9258L10.3044 22.074ZM21.9272 11.7956C22.3394 11.8366 22.7067 11.5356 22.7477 11.1234C22.7886 10.7112 22.4876 10.3439 22.0754 10.303L21.9272 11.7956ZM4 6.25C3.58579 6.25 3.25 6.58579 3.25 7C3.25 7.41421 3.58579 7.75 4 7.75V6.25ZM16.25 20C16.25 20.4142 16.5858 20.75 17 20.75C17.4142 20.75 17.75 20.4142 17.75 20H16.25ZM12.2043 2.0741C12.7648 7.71934 7.74649 12.7675 2.0741 12.2043L1.9259 13.697C8.54375 14.354 14.3507 8.5102 13.697 1.9259L12.2043 2.0741ZM11.797 21.9258C11.2339 16.2534 16.282 11.2351 21.9272 11.7956L22.0754 10.303C15.4911 9.64925 9.64733 15.4562 10.3044 22.074L11.797 21.9258ZM4 7.75C10.7655 7.75 16.25 13.2345 16.25 20H17.75C17.75 12.4061 11.5939 6.25 4 6.25V7.75Z" fill="#141B34"/>
</svg>
