<svg width="24" height="24" viewBox="0 0 24 24" fill="none" xmlns="http://www.w3.org/2000/svg">
<path d="M18.5 17.838C19.5305 17.6867 20.2627 17.3941 20.8284 16.8284C22 15.6569 22 13.7712 22 10C22 6.22876 22 4.34315 20.8284 3.17157C19.6569 2 17.7712 2 14 2H10C6.22876 2 4.34315 2 3.17157 3.17157C2 4.34315 2 6.22876 2 10C2 13.7712 2 15.6569 3.17157 16.8284C3.97975 17.6366 5.1277 17.8873 7 17.965" stroke="#141B34" stroke-width="1.5" stroke-linecap="round"/>
<path opacity="0.4" d="M17 7L7 7" stroke="#141B34" stroke-width="1.5" stroke-linecap="round" stroke-linejoin="round"/>
<path opacity="0.4" d="M13.5 19L13.8721 18.3488C13.6931 18.2465 13.48 18.2224 13.2827 18.2822C13.0854 18.3419 12.9214 18.4802 12.8292 18.6646L13.5 19ZM12 22L11.3823 22.4254C11.5328 22.6439 11.7876 22.7667 12.0522 22.7482C12.3169 22.7297 12.5522 22.5727 12.6708 22.3354L12 22ZM16.2161 17.8064C16.0832 17.4141 15.6574 17.2038 15.2651 17.3367C14.8728 17.4696 14.6625 17.8954 14.7955 18.2877L16.2161 17.8064ZM17 21L16.6279 21.6512C16.9561 21.8387 17.3727 21.7527 17.5997 21.4504C17.8267 21.1481 17.7933 20.7241 17.5217 20.4611L17 21ZM13.75 14.5C13.75 15.4665 12.9665 16.25 12 16.25V17.75C13.7949 17.75 15.25 16.2949 15.25 14.5H13.75ZM12 16.25C11.0335 16.25 10.25 15.4665 10.25 14.5H8.75C8.75 16.2949 10.2051 17.75 12 17.75V16.25ZM10.25 14.5C10.25 13.5335 11.0335 12.75 12 12.75V11.25C10.2051 11.25 8.75 12.7051 8.75 14.5H10.25ZM12 12.75C12.9665 12.75 13.75 13.5335 13.75 14.5H15.25C15.25 12.7051 13.7949 11.25 12 11.25V12.75ZM12.8292 18.6646L11.3292 21.6646L12.6708 22.3354L14.1708 19.3354L12.8292 18.6646ZM12.6177 21.5746C11.8532 20.4645 10.25 18.3227 10.25 14.5H8.75C8.75 18.8091 10.5912 21.2766 11.3823 22.4254L12.6177 21.5746ZM15.5058 18.0471C14.7955 18.2877 14.7955 18.2878 14.7955 18.2879C14.7955 18.2879 14.7956 18.288 14.7956 18.2881C14.7957 18.2883 14.7957 18.2885 14.7958 18.2887C14.796 18.2891 14.7962 18.2897 14.7964 18.2905C14.7969 18.2919 14.7976 18.2939 14.7984 18.2964C14.8002 18.3015 14.8026 18.3086 14.8058 18.3177C14.8121 18.3359 14.8212 18.362 14.8329 18.3952C14.8564 18.4614 14.8904 18.5558 14.9334 18.671C15.0192 18.9006 15.142 19.2156 15.2894 19.5553C15.436 19.8934 15.6113 20.2657 15.803 20.6063C15.9881 20.9355 16.2157 21.2846 16.4783 21.5389L17.5217 20.4611C17.4169 20.3598 17.2741 20.162 17.1102 19.8708C16.9529 19.5911 16.8005 19.2696 16.6654 18.9583C16.5311 18.6487 16.4181 18.3588 16.3385 18.1459C16.2988 18.0398 16.2678 17.9535 16.2468 17.8944C16.2364 17.8648 16.2285 17.8421 16.2233 17.8271C16.2207 17.8196 16.2188 17.8141 16.2176 17.8106C16.217 17.8088 16.2166 17.8076 16.2163 17.8069C16.2162 17.8066 16.2161 17.8063 16.2161 17.8062C16.2161 17.8062 16.2161 17.8062 16.2161 17.8062C16.2161 17.8062 16.2161 17.8063 16.2161 17.8063C16.2161 17.8063 16.2161 17.8064 15.5058 18.0471ZM17.3721 20.3488L13.8721 18.3488L13.1279 19.6512L16.6279 21.6512L17.3721 20.3488Z" fill="#141B34"/>
</svg>
