<svg width="24" height="24" viewBox="0 0 24 24" fill="none" xmlns="http://www.w3.org/2000/svg">
<path d="M4 9.20433C4 7.13117 4 6.09459 4.35762 5.25272C4.65634 4.54951 5.1278 3.94591 5.7219 3.50609C6.43314 2.97955 7.38764 2.79412 9.29665 2.42326C11.2817 2.03762 12.2743 1.8448 13.0467 2.15208C13.6884 2.40733 14.229 2.88944 14.5789 3.51833C15 4.27538 15 5.35327 15 7.50906V16.4909C15 18.6467 15 19.7246 14.5789 20.4817C14.229 21.1106 13.6884 21.5927 13.0467 21.8479C12.2743 22.1552 11.2817 21.9624 9.29665 21.5767C7.38764 21.2059 6.43314 21.0205 5.7219 20.4939C5.1278 20.0541 4.65634 19.4505 4.35762 18.7473C4 17.9054 4 16.8688 4 14.7957V9.20433Z" stroke="#141B34" stroke-width="1.5"/>
<path d="M12 13L12 11" stroke="#141B34" stroke-width="1.5" stroke-linecap="round" stroke-linejoin="round"/>
<path opacity="0.4" d="M19.4375 19.0885L18.8474 18.6257L19.4375 19.0885ZM19.4375 4.91152L18.8474 5.37434V5.37434L19.4375 4.91152ZM19 18.9766C18.5858 18.9766 18.25 19.3124 18.25 19.7266C18.25 20.1408 18.5858 20.4766 19 20.4766V18.9766ZM22 20.4766C22.4142 20.4766 22.75 20.1408 22.75 19.7266C22.75 19.3124 22.4142 18.9766 22 18.9766V20.4766ZM19.25 8.90664V15.0934H20.75V8.90664H19.25ZM19.25 15.0934C19.25 16.2033 19.2489 16.9739 19.1842 17.559C19.1209 18.1323 19.005 18.4246 18.8474 18.6257L20.0277 19.5513C20.4325 19.0351 20.5979 18.4225 20.6752 17.7238C20.7511 17.037 20.75 16.1687 20.75 15.0934H19.25ZM20.75 8.90664C20.75 7.83131 20.7511 6.96296 20.6752 6.27616C20.5979 5.57748 20.4325 4.96491 20.0277 4.44871L18.8474 5.37434C19.005 5.57537 19.1209 5.86773 19.1842 6.44099C19.2489 7.02612 19.25 7.79671 19.25 8.90664H20.75ZM14.9224 20.5442C15.5653 20.611 16.5316 20.779 17.4014 20.7454C18.3084 20.7104 19.3165 20.4582 20.0277 19.5513L18.8474 18.6257C18.521 19.0418 18.034 19.2198 17.3434 19.2465C16.6157 19.2746 15.882 19.1359 15.0776 19.0523L14.9224 20.5442ZM15.0776 4.94775C15.882 4.86411 16.6157 4.72537 17.3434 4.75349C18.034 4.78017 18.521 4.95815 18.8474 5.37434L20.0277 4.44871C19.3165 3.54178 18.3084 3.28965 17.4014 3.25461C16.5316 3.221 15.5653 3.38895 14.9224 3.45579L15.0776 4.94775ZM19 20.4766H22V18.9766H19V20.4766Z" fill="#141B34"/>
<path d="M2 20H5" stroke="#141B34" stroke-width="1.5" stroke-linecap="round" stroke-linejoin="round"/>
</svg>
