<svg width="24" height="24" viewBox="0 0 24 24" fill="none" xmlns="http://www.w3.org/2000/svg">
<path opacity="0.4" d="M22 9.66871V14.3354M16.5 3.01704C16.0004 2.99989 15.5001 2.999 15 3.0005M16.5 20.9869C16.0004 21.004 15.5001 21.0049 15 21.0034M19.2547 3.53905C20.213 4.02317 20.9914 4.80445 21.4718 5.765M21.5 18.1817C21.0221 19.1684 20.232 19.9712 19.2547 20.4649" stroke="#141B34" stroke-width="1.5" stroke-linecap="round"/>
<path d="M12 5.50502C12 3.54695 11.3622 3.00695 9.5 3.00695C6.96832 3.00695 4.04633 2.75702 2.60289 5.25521C2 6.29863 2 7.69948 2 10.5012V13.4988C2 16.3005 2 17.7014 2.60289 18.7448C4.04633 21.243 6.96832 20.9931 9.5 20.9931C11.3622 20.9931 12 20.453 12 18.495V5.50502Z" stroke="#141B34" stroke-width="1.5"/>
</svg>
