<svg width="24" height="24" viewBox="0 0 24 24" fill="none" xmlns="http://www.w3.org/2000/svg">
<path d="M19 2V5C19 8.86599 15.866 12 12 12C8.13401 12 5 8.86599 5 5V2" stroke="#141B34" stroke-width="1.5"/>
<path d="M4 2H20M20 22H4" stroke="#141B34" stroke-width="1.5" stroke-linecap="round"/>
<path opacity="0.4" d="M20 22.75C20.4142 22.75 20.75 22.4142 20.75 22C20.75 21.5858 20.4142 21.25 20 21.25V22.75ZM4 21.25C3.58579 21.25 3.25 21.5858 3.25 22C3.25 22.4142 3.58579 22.75 4 22.75V21.25ZM5.75 22V19H4.25V22H5.75ZM18.25 19V22H19.75V19H18.25ZM12 12.75C15.4518 12.75 18.25 15.5482 18.25 19H19.75C19.75 14.7198 16.2802 11.25 12 11.25V12.75ZM5.75 19C5.75 15.5482 8.54822 12.75 12 12.75V11.25C7.71979 11.25 4.25 14.7198 4.25 19H5.75ZM20 21.25H4V22.75H20V21.25Z" fill="#141B34"/>
</svg>
