<svg width="24" height="24" viewBox="0 0 24 24" fill="none" xmlns="http://www.w3.org/2000/svg">
<path d="M2.14249 5.43279L1.40164 5.5496L2.14249 5.43279ZM2.60049 8.33743L1.85964 8.45425H1.85964L2.60049 8.33743ZM7.85751 5.43279L7.11667 5.31597L7.85751 5.43279ZM7.39951 8.33743L6.65866 8.22061V8.22061L7.39951 8.33743ZM7.78117 3.55635L7.2394 4.07498L7.2394 4.07498L7.78117 3.55635ZM2.21883 3.55635L1.67705 3.03771L2.21883 3.55635ZM5.74861 10.0001C5.74861 9.58586 5.41283 9.25008 4.99861 9.25008C4.5844 9.25008 4.24861 9.58586 4.24861 10.0001H5.74861ZM4.24862 21.0001C4.24862 21.4143 4.5844 21.7501 4.99862 21.7501C5.41283 21.7501 5.74862 21.4143 5.74862 21.0001H4.24862ZM1.40164 5.5496L1.85964 8.45425L3.34134 8.22061L2.88333 5.31597L1.40164 5.5496ZM7.11667 5.31597L6.65866 8.22061L8.14036 8.45425L8.59836 5.5496L7.11667 5.31597ZM4.71636 10.75H5.28364V9.25H4.71636V10.75ZM8.59836 5.5496C8.67553 5.06023 8.74926 4.6064 8.74999 4.23559C8.75079 3.83451 8.66889 3.39909 8.32295 3.03771L7.2394 4.07498C7.23995 4.07555 7.23776 4.07323 7.23526 4.06895C7.23286 4.06483 7.23318 4.06406 7.23496 4.06976C7.23943 4.08405 7.2502 4.1297 7.25 4.23262C7.24955 4.45947 7.20166 4.77694 7.11667 5.31597L8.59836 5.5496ZM2.88333 5.31597C2.79834 4.77694 2.75045 4.45947 2.75 4.23262C2.7498 4.1297 2.76057 4.08405 2.76504 4.06976C2.76682 4.06406 2.76714 4.06483 2.76474 4.06895C2.76224 4.07323 2.76005 4.07555 2.7606 4.07498L1.67705 3.03771C1.33111 3.39909 1.24921 3.83451 1.25001 4.23559C1.25074 4.6064 1.32447 5.06023 1.40164 5.5496L2.88333 5.31597ZM1.85964 8.45425C1.97431 9.18144 2.16335 9.8768 2.73864 10.3074C3.28073 10.7132 4.00429 10.75 4.71636 10.75V9.25C3.9478 9.25 3.72658 9.17323 3.63748 9.10654C3.58158 9.06469 3.453 8.92876 3.34134 8.22061L1.85964 8.45425ZM6.65866 8.22061C6.547 8.92876 6.41842 9.06469 6.36252 9.10654C6.27342 9.17323 6.0522 9.25 5.28364 9.25V10.75C5.99571 10.75 6.71927 10.7132 7.26136 10.3074C7.83665 9.8768 8.02569 9.18144 8.14036 8.45424L6.65866 8.22061ZM8.32295 3.03771C8.12492 2.83085 7.86369 2.70522 7.64827 2.62378C7.41665 2.53621 7.15253 2.46875 6.87963 2.41667C6.3325 2.31226 5.68286 2.25714 5.04291 2.25065C4.40347 2.24417 3.74471 2.28595 3.18085 2.38761C2.89926 2.43838 2.62413 2.50711 2.37972 2.60068C2.14634 2.69001 1.88158 2.82406 1.67705 3.03771L2.7606 4.07498C2.74518 4.09109 2.77537 4.05537 2.91598 4.00154C3.04554 3.95194 3.22341 3.90413 3.44701 3.86381C3.89352 3.7833 4.4539 3.74476 5.02771 3.75057C5.60102 3.75638 6.15875 3.80617 6.59845 3.89008C6.81897 3.93217 6.99314 3.97972 7.11784 4.02686C7.25873 4.08012 7.27187 4.1089 7.2394 4.07498L8.32295 3.03771ZM4.24861 10.0001L4.24862 21.0001H5.74862L5.74861 10.0001H4.24861Z" fill="#141B34"/>
<path opacity="0.4" d="M12 14L12 3M12 14C10.3431 14 9 15.4355 9 16.625C9 18.375 10.3431 21 12 21C13.6569 21 15 18.375 15 16.625C15 15.4355 13.6569 14 12 14Z" stroke="#141B34" stroke-width="1.5" stroke-linecap="round"/>
<path d="M18 3L18.2477 2.29208C18.0183 2.21181 17.7642 2.24769 17.566 2.38833C17.3678 2.52898 17.25 2.75695 17.25 3L18 3ZM17.25 21C17.25 21.4142 17.5858 21.75 18 21.75C18.4142 21.75 18.75 21.4142 18.75 21H17.25ZM21.3572 6.82088L20.612 6.90625L21.3572 6.82088ZM21.9793 12.2509L22.7244 12.1655L22.7244 12.1655L21.9793 12.2509ZM19.7307 13.8446L19.7278 13.0946H19.7278L19.7307 13.8446ZM17.6806 13.3214C17.3058 13.4978 17.145 13.9446 17.3214 14.3194C17.4978 14.6942 17.9446 14.855 18.3194 14.6786L17.6806 13.3214ZM17.25 3L17.25 21H18.75L18.75 3L17.25 3ZM20.612 6.90625L21.2342 12.3362L22.7244 12.1655L22.1023 6.73551L20.612 6.90625ZM19.7278 13.0946C19.2677 13.0964 18.8848 13.0974 18.5784 13.1193C18.2721 13.1412 17.9652 13.1875 17.6806 13.3214L18.3194 14.6786C18.3534 14.6626 18.4411 14.6329 18.6852 14.6155C18.9292 14.5981 19.2523 14.5964 19.7336 14.5946L19.7278 13.0946ZM22.1023 6.73551C21.8425 4.46801 20.2743 3.00118 18.2477 2.29208L17.7523 3.70792C19.3934 4.28214 20.4348 5.35908 20.612 6.90625L22.1023 6.73551ZM21.2342 12.3362C21.2714 12.6614 21.2346 12.8159 21.2091 12.8771C21.1941 12.9134 21.1791 12.9347 21.1196 12.9639C21.036 13.0049 20.8881 13.045 20.6325 13.0682C20.3802 13.0911 20.0869 13.0932 19.7278 13.0946L19.7336 14.5946C20.0771 14.5933 20.4388 14.592 20.7682 14.5621C21.0942 14.5325 21.4545 14.4703 21.7799 14.3107C22.1295 14.1393 22.4245 13.8618 22.5945 13.4522C22.7542 13.0676 22.7775 12.6291 22.7244 12.1655L21.2342 12.3362Z" fill="#141B34"/>
</svg>
