<svg width="24" height="24" viewBox="0 0 24 24" fill="none" xmlns="http://www.w3.org/2000/svg">
<path opacity="0.4" d="M14 6.25C13.5858 6.25 13.25 6.58579 13.25 7C13.25 7.41421 13.5858 7.75 14 7.75V6.25ZM14 10.25C13.5858 10.25 13.25 10.5858 13.25 11C13.25 11.4142 13.5858 11.75 14 11.75V10.25ZM17.75 11V7H16.25V11H17.75ZM7.75 11V7H6.25V11H7.75ZM7.75 7C7.75 4.65279 9.65279 2.75 12 2.75V1.25C8.82436 1.25 6.25 3.82436 6.25 7H7.75ZM17.75 7C17.75 3.82436 15.1756 1.25 12 1.25V2.75C14.3472 2.75 16.25 4.65279 16.25 7H17.75ZM16.25 11C16.25 13.3472 14.3472 15.25 12 15.25V16.75C15.1756 16.75 17.75 14.1756 17.75 11H16.25ZM6.25 11C6.25 14.1756 8.82436 16.75 12 16.75V15.25C9.65279 15.25 7.75 13.3472 7.75 11H6.25ZM17 6.25H14V7.75H17V6.25ZM17 10.25H14V11.75H17V10.25Z" fill="#141B34"/>
<path d="M20 11C20 15.4183 16.4183 19 12 19M12 19C7.58172 19 4 15.4183 4 11M12 19V22M12 22H15M12 22H9" stroke="#141B34" stroke-width="1.5" stroke-linecap="round"/>
</svg>
