<svg width="24" height="24" viewBox="0 0 24 24" fill="none" xmlns="http://www.w3.org/2000/svg">
<path opacity="0.4" d="M11.0002 7.5C10.5441 6.89278 9.81791 6.5 9 6.5C7.61929 6.5 6.5 7.61929 6.5 9C6.5 10.2095 7.35888 11.2184 8.5 11.45M8.94478 18C8.69396 18 8.44745 17.9329 8.22947 17.8054C5.2439 15.8892 2 13.1309 2 9.14061C2 5.22638 5.18645 2 8.94478 2C10.9113 2 12.7212 2.88329 14 4.28624" stroke="#141B34" stroke-width="1.5" stroke-linecap="round"/>
<path d="M11 14.8223C10.5858 14.8223 10.25 15.1581 10.25 15.5723C10.25 15.9865 10.5858 16.3223 11 16.3223V14.8223ZM22 16.3223C22.4142 16.3223 22.75 15.9865 22.75 15.5723C22.75 15.1581 22.4142 14.8223 22 14.8223V16.3223ZM15.75 22.0008C15.75 22.4151 16.0858 22.7508 16.5 22.7508C16.9142 22.7508 17.25 22.4151 17.25 22.0008H15.75ZM17.25 19.858C17.25 19.4438 16.9142 19.108 16.5 19.108C16.0858 19.108 15.75 19.4438 15.75 19.858H17.25ZM12.1 15.5723V14.8223C11.6858 14.8223 11.35 15.1581 11.35 15.5723H12.1ZM20.9 15.5723H21.65C21.65 15.1581 21.3142 14.8223 20.9 14.8223V15.5723ZM11 16.3223H22V14.8223H11V16.3223ZM17.25 22.0008L17.25 19.858H15.75L15.75 22.0008H17.25ZM11.35 15.5723V20.9294H12.85V15.5723H11.35ZM12.1 16.3223H20.9V14.8223H12.1V16.3223ZM20.15 15.5723V20.9294H21.65V15.5723H20.15ZM19.8 21.2508H13.2V22.7508H19.8V21.2508ZM20.15 20.9294C20.15 21.0585 20.1499 21.1584 20.1477 21.2439C20.1455 21.3297 20.1414 21.3819 20.1369 21.4147C20.1325 21.4469 20.1302 21.4401 20.1411 21.414C20.1547 21.3819 20.1794 21.342 20.2156 21.3067L21.2622 22.3812C21.5088 22.141 21.5907 21.8525 21.6228 21.6198C21.6517 21.4107 21.65 21.1602 21.65 20.9294H20.15ZM19.8 22.7508C20.0386 22.7508 20.2911 22.7523 20.5009 22.7249C20.7303 22.6948 21.0184 22.6187 21.2622 22.3812L20.2156 21.3067C20.2983 21.2261 20.3763 21.2284 20.3061 21.2376C20.2694 21.2424 20.2134 21.2464 20.1244 21.2486C20.0357 21.2508 19.9324 21.2508 19.8 21.2508V22.7508ZM11.35 20.9294C11.35 21.1602 11.3483 21.4107 11.3772 21.6198C11.4093 21.8525 11.4912 22.141 11.7378 22.3812L12.7844 21.3067C12.8206 21.342 12.8453 21.3819 12.8589 21.414C12.8698 21.4401 12.8675 21.4469 12.8631 21.4147C12.8586 21.3819 12.8545 21.3297 12.8523 21.2439C12.8501 21.1584 12.85 21.0585 12.85 20.9294H11.35ZM13.2 21.2508C13.0676 21.2508 12.9643 21.2508 12.8756 21.2486C12.7866 21.2464 12.7306 21.2424 12.6939 21.2376C12.6237 21.2284 12.7017 21.2261 12.7844 21.3067L11.7378 22.3812C11.9816 22.6187 12.2697 22.6948 12.4991 22.7249C12.7089 22.7523 12.9614 22.7508 13.2 22.7508V21.2508Z" fill="#141B34"/>
<path d="M16.5006 7L17.1192 6.57589C16.9793 6.37191 16.7479 6.24999 16.5006 6.25C16.2533 6.25001 16.0219 6.37194 15.882 6.57592L16.5006 7ZM12.6119 15.5714L12.0262 16.0399C12.1685 16.2178 12.384 16.3214 12.6119 16.3214V15.5714ZM20.3896 15.5714V16.3214C20.6174 16.3214 20.8329 16.2178 20.9752 16.0399L20.3896 15.5714ZM15.882 6.57592C15.5883 7.00435 15.0424 7.47075 14.3185 8.05831C13.6341 8.61385 12.8203 9.25642 12.1648 9.97774C11.5067 10.7019 10.9341 11.5828 10.8209 12.6461C10.7053 13.732 11.083 14.8607 12.0262 16.0399L13.1976 15.1029C12.4267 14.1393 12.2498 13.393 12.3125 12.8048C12.3775 12.194 12.7159 11.6016 13.2749 10.9865C13.8364 10.3686 14.5458 9.80579 15.2638 9.22294C15.9425 8.67211 16.6784 8.06708 17.1192 7.42408L15.882 6.57592ZM15.882 7.42411C16.3229 8.06709 17.0589 8.67212 17.7375 9.22295C18.4556 9.8058 19.165 10.3686 19.7266 10.9866C20.2855 11.6016 20.624 12.194 20.689 12.8048C20.7516 13.393 20.5747 14.1393 19.8039 15.1029L20.9752 16.0399C21.9185 14.8607 22.2962 13.732 22.1806 12.6461C22.0674 11.5828 21.4948 10.7019 20.8367 9.97773C20.1811 9.25641 19.3673 8.61385 18.6828 8.0583C17.9589 7.47074 17.4129 7.00434 17.1192 6.57589L15.882 7.42411ZM20.3896 14.8214H12.6119V16.3214H20.3896V14.8214Z" fill="#141B34"/>
</svg>
