<svg width="24" height="24" viewBox="0 0 24 24" fill="none" xmlns="http://www.w3.org/2000/svg">
<path opacity="0.4" d="M18 22H21C21.4714 22 21.7071 22 21.8536 21.8536C22 21.7071 22 21.4714 22 21V16C22 14.1144 22 13.1716 21.4142 12.5858C20.8284 12 19.8856 12 18 12" stroke="#141B34" stroke-width="1.5" stroke-linecap="round"/>
<path opacity="0.4" d="M6 22H3C2.5286 22 2.29289 22 2.14645 21.8536C2 21.7071 2 21.4714 2 21V16C2 14.1144 2 13.1716 2.58579 12.5858C3.17157 12 4.11438 12 6 12" stroke="#141B34" stroke-width="1.5" stroke-linecap="round"/>
<path opacity="0.4" d="M12 22L12 19" stroke="#141B34" stroke-width="1.5" stroke-linecap="round" stroke-linejoin="round"/>
<path d="M9 15H10.2M15 15H13.8" stroke="#141B34" stroke-width="1.5" stroke-linecap="round" stroke-linejoin="round"/>
<path d="M6 21.9998H5.25C5.25 22.4141 5.58579 22.7498 6 22.7498V21.9998ZM18 21.9998V22.7498C18.4142 22.7498 18.75 22.4141 18.75 21.9998H18ZM17.1213 7.72416L17.6545 7.19672V7.19672L17.1213 7.72416ZM6.87868 7.72416L7.41188 8.2516H7.41188L6.87868 7.72416ZM15.7593 6.26325C15.3525 6.18529 14.9595 6.45188 14.8815 6.8587C14.8036 7.26551 15.0702 7.65849 15.477 7.73644L15.7593 6.26325ZM8.52303 7.73644C8.92984 7.65849 9.19643 7.26551 9.11848 6.8587C9.04052 6.45188 8.64754 6.18529 8.24073 6.26325L8.52303 7.73644ZM12.0004 2L12.6667 1.6557C12.5379 1.40655 12.2809 1.25004 12.0005 1.25C11.72 1.24996 11.463 1.40639 11.3342 1.6555L12.0004 2ZM8.04217 4V3.25C7.665 3.25 7.34651 3.53009 7.29832 3.90417L8.04217 4ZM12.0004 11L11.7403 11.7035C11.9081 11.7655 12.0926 11.7655 12.2604 11.7035L12.0004 11ZM15.9578 4L16.7017 3.90417C16.6535 3.53009 16.335 3.25 15.9578 3.25V4ZM5.25 12.9015V21.9998H6.75V12.9015H5.25ZM17.25 12.9015V21.9998H18.75V12.9015H17.25ZM6 22.7498H18V21.2498H6V22.7498ZM18.75 12.9015C18.75 11.4928 18.7516 10.3616 18.6336 9.47479C18.5129 8.56723 18.255 7.80375 17.6545 7.19672L16.5881 8.2516C16.8663 8.53286 17.0477 8.92836 17.1467 9.67254C17.2484 10.4375 17.25 11.4508 17.25 12.9015H18.75ZM6.75 12.9015C6.75 11.4508 6.75156 10.4375 6.85329 9.67254C6.95226 8.92836 7.13367 8.53286 7.41188 8.2516L6.34547 7.19672C5.74501 7.80375 5.48708 8.56723 5.36638 9.47479C5.24844 10.3616 5.25 11.4928 5.25 12.9015H6.75ZM15.477 7.73644C16.0263 7.8417 16.3477 8.00859 16.5881 8.2516L17.6545 7.19672C17.1382 6.67471 16.5043 6.40601 15.7593 6.26325L15.477 7.73644ZM8.24073 6.26325C7.49573 6.40601 6.86184 6.67471 6.34547 7.19672L7.41188 8.2516C7.65227 8.00859 7.97374 7.8417 8.52303 7.73644L8.24073 6.26325ZM12.0004 2C11.3342 1.6555 11.3344 1.65514 11.3345 1.65478C11.3346 1.65467 11.3348 1.65431 11.3349 1.65409C11.3351 1.65365 11.3353 1.65324 11.3355 1.65285C11.3359 1.65209 11.3363 1.65144 11.3366 1.6509C11.3371 1.64982 11.3375 1.6492 11.3376 1.64903C11.3378 1.64867 11.337 1.65007 11.3353 1.65311C11.3318 1.6592 11.3245 1.67181 11.3132 1.69003C11.2905 1.72652 11.252 1.78504 11.1962 1.8584C11.0843 2.00551 10.9054 2.20913 10.6488 2.4147C10.1445 2.81876 9.31735 3.25 8.04217 3.25V4.75C9.69097 4.75 10.8429 4.18124 11.5867 3.5853C11.9542 3.29087 12.2166 2.99449 12.39 2.7666C12.4768 2.65246 12.5419 2.55473 12.5872 2.48185C12.6099 2.44537 12.6277 2.41502 12.6408 2.39181C12.6474 2.3802 12.6528 2.37037 12.657 2.36245C12.6592 2.35849 12.6611 2.355 12.6626 2.352C12.6634 2.3505 12.6642 2.34913 12.6648 2.34787C12.6651 2.34725 12.6654 2.34665 12.6657 2.34609C12.6659 2.34581 12.6661 2.34541 12.6662 2.34527C12.6664 2.34488 12.6666 2.3445 12.0004 2ZM7.29832 3.90417C7.17446 4.86552 7.26249 6.40998 7.87583 7.91036C8.49745 9.43098 9.67619 10.9405 11.7403 11.7035L12.2604 10.2965C10.6721 9.70946 9.76302 8.56277 9.2643 7.34277C8.7573 6.10252 8.69247 4.82198 8.78602 4.09583L7.29832 3.90417ZM12.0004 2C11.3341 2.3443 11.3343 2.34468 11.3345 2.34507C11.3345 2.34521 11.3347 2.34561 11.3349 2.34589C11.3352 2.34646 11.3355 2.34705 11.3358 2.34768C11.3365 2.34893 11.3372 2.35031 11.338 2.3518C11.3396 2.3548 11.3414 2.35829 11.3436 2.36226C11.3479 2.37018 11.3533 2.38001 11.3598 2.39162C11.373 2.41483 11.3907 2.4452 11.4134 2.48167C11.4587 2.55456 11.5237 2.65231 11.6105 2.76646C11.7838 2.99436 12.0461 3.29078 12.4135 3.58523C13.1572 4.18123 14.309 4.75 15.9578 4.75V3.25C14.6826 3.25 13.8557 2.81877 13.3516 2.41477C13.0952 2.20922 12.9164 2.00564 12.8045 1.85854C12.7488 1.78519 12.7102 1.72669 12.6876 1.6902C12.6763 1.67199 12.669 1.65939 12.6655 1.6533C12.6638 1.65026 12.6631 1.64886 12.6633 1.64922C12.6634 1.6494 12.6637 1.65002 12.6643 1.65109C12.6645 1.65163 12.6649 1.65228 12.6653 1.65305C12.6655 1.65344 12.6657 1.65385 12.6659 1.65429C12.666 1.65451 12.6662 1.65486 12.6663 1.65498C12.6665 1.65534 12.6667 1.6557 12.0004 2ZM15.2139 4.09583C15.3075 4.82206 15.2428 6.10263 14.736 7.34285C14.2375 8.56282 13.3286 9.70947 11.7403 10.2965L12.2604 11.7035C14.3246 10.9405 15.5031 9.43093 16.1245 7.91027C16.7377 6.40987 16.8255 4.86544 16.7017 3.90417L15.2139 4.09583Z" fill="#141B34"/>
</svg>
