<svg width="24" height="24" viewBox="0 0 24 24" fill="none" xmlns="http://www.w3.org/2000/svg">
<path opacity="0.4" d="M18.1716 13L18.6585 13.5705L18.1716 13ZM16.5131 13.4295C16.198 13.6985 16.1606 14.1719 16.4295 14.4869C16.6985 14.802 17.1719 14.8394 17.4869 14.5705L16.5131 13.4295ZM17.4869 9.42955C17.1719 9.16063 16.6985 9.19804 16.4295 9.51309C16.1606 9.82814 16.198 10.3015 16.5131 10.5705L17.4869 9.42955ZM18.1716 11L17.6847 11.5705V11.5705L18.1716 11ZM17.6847 12.4295L16.5131 13.4295L17.4869 14.5705L18.6585 13.5705L17.6847 12.4295ZM16.5131 10.5705L17.6847 11.5705L18.6585 10.4295L17.4869 9.42955L16.5131 10.5705ZM18.6585 13.5705C18.9178 13.3491 19.1721 13.1342 19.3521 12.9329C19.5416 12.7209 19.75 12.4155 19.75 12L18.25 12C18.25 11.8774 18.3204 11.8363 18.2337 11.9332C18.1375 12.0408 17.9776 12.1795 17.6847 12.4295L18.6585 13.5705ZM17.6847 11.5705C17.9776 11.8205 18.1375 11.9592 18.2337 12.0668C18.3204 12.1637 18.25 12.1226 18.25 12L19.75 12C19.75 11.5845 19.5416 11.2791 19.3521 11.0671C19.1721 10.8658 18.9178 10.6509 18.6585 10.4295L17.6847 11.5705ZM13.5 12.75H19V11.25L13.5 11.25V12.75ZM12 12.75C11.5858 12.75 11.25 12.4142 11.25 12H9.75C9.75 13.2426 10.7574 14.25 12 14.25V12.75ZM11.25 12C11.25 11.5858 11.5858 11.25 12 11.25V9.75C10.7574 9.75 9.75 10.7574 9.75 12H11.25ZM12 11.25C12.4142 11.25 12.75 11.5858 12.75 12H14.25C14.25 10.7574 13.2426 9.75 12 9.75V11.25ZM12.75 12C12.75 12.4142 12.4142 12.75 12 12.75V14.25C13.2426 14.25 14.25 13.2426 14.25 12H12.75Z" fill="#141B34"/>
<path d="M12 22C6.47715 22 2 17.5228 2 12C2 6.47715 6.47715 2 12 2C17.5228 2 22 6.47715 22 12C22 17.5228 17.5228 22 12 22Z" stroke="#141B34" stroke-width="1.5"/>
</svg>
