<svg width="24" height="24" viewBox="0 0 24 24" fill="none" xmlns="http://www.w3.org/2000/svg">
<path d="M20 2V5.13219C20 5.42605 19.6328 5.55908 19.4447 5.33333C17.6146 3.2875 14.955 2 11.9949 2C6.47485 2 2 6.47715 2 12C2 15.9582 4.29852 19.3793 7.63298 21" stroke="#141B34" stroke-width="1.5" stroke-linecap="round" stroke-linejoin="round"/>
<path opacity="0.4" d="M12.267 21.9993C11.8001 21.9993 11.3406 21.9681 10.8906 21.9076M21.7364 8.66602C21.8488 9.0632 21.937 9.46463 22.0017 9.86827M21.9672 13.5374C21.8969 13.9374 21.8053 14.3335 21.6932 14.7238M20.1688 17.9956C19.9305 18.349 19.6721 18.6892 19.3946 19.014M16.5732 21.36C16.2195 21.5625 15.8513 21.7456 15.4695 21.9076" stroke="#141B34" stroke-width="1.5" stroke-linecap="round" stroke-linejoin="round"/>
</svg>
