<svg width="24" height="24" viewBox="0 0 24 24" fill="none" xmlns="http://www.w3.org/2000/svg">
<path d="M2.5 12C2.5 7.52166 2.5 5.28249 3.89124 3.89124C5.28249 2.5 7.52166 2.5 12 2.5C16.4783 2.5 18.7175 2.5 20.1088 3.89124C21.5 5.28249 21.5 7.52166 21.5 12C21.5 16.4783 21.5 18.7175 20.1088 20.1088C18.7175 21.5 16.4783 21.5 12 21.5C7.52166 21.5 5.28249 21.5 3.89124 20.1088C2.5 18.7175 2.5 16.4783 2.5 12Z" stroke="#141B34" stroke-width="1.5"/>
<path opacity="0.4" d="M17.8465 8.62446C17.6391 8.26591 17.1803 8.14339 16.8218 8.3508C16.4632 8.5582 16.3407 9.017 16.5481 9.37554L17.8465 8.62446ZM14.1872 7.22568C14.5636 7.39846 15.0089 7.23335 15.1816 6.85689C15.3544 6.48043 15.1893 6.03519 14.8128 5.86241L14.1872 7.22568ZM17.25 12C17.25 14.8995 14.8995 17.25 12 17.25V18.75C15.7279 18.75 18.75 15.7279 18.75 12H17.25ZM12 17.25C9.10051 17.25 6.75 14.8995 6.75 12H5.25C5.25 15.7279 8.27208 18.75 12 18.75V17.25ZM6.75 12C6.75 9.10051 9.10051 6.75 12 6.75V5.25C8.27208 5.25 5.25 8.27208 5.25 12H6.75ZM16.5481 9.37554C16.9944 10.147 17.25 11.0425 17.25 12H18.75C18.75 10.7718 18.4213 9.61805 17.8465 8.62446L16.5481 9.37554ZM12 6.75C12.7821 6.75 13.5223 6.92051 14.1872 7.22568L14.8128 5.86241C13.9556 5.46897 13.0024 5.25 12 5.25V6.75Z" fill="#141B34"/>
<path d="M14.4697 10.4697C14.1768 10.7626 14.1768 11.2374 14.4697 11.5303C14.7626 11.8232 15.2374 11.8232 15.5303 11.5303L14.4697 10.4697ZM16.8284 9.17157L17.3588 9.7019L16.8284 9.17157ZM18.75 3C18.75 2.58579 18.4142 2.25 18 2.25C17.5858 2.25 17.25 2.58579 17.25 3H18.75ZM15.5303 11.5303L17.3588 9.7019L16.2981 8.64124L14.4697 10.4697L15.5303 11.5303ZM18.75 6.34315V3H17.25V6.34315H18.75ZM17.3588 9.7019C17.8935 9.16711 18.3181 8.76137 18.5407 8.22395L17.1548 7.64993C17.073 7.84759 16.9194 8.01991 16.2981 8.64124L17.3588 9.7019ZM17.25 6.34315C17.25 7.22184 17.2367 7.45226 17.1548 7.64993L18.5407 8.22395C18.7633 7.68653 18.75 7.09945 18.75 6.34315H17.25Z" fill="#141B34"/>
<path opacity="0.4" d="M9 13C9.3294 13.932 10.068 14.6706 11 15" stroke="#141B34" stroke-width="1.5" stroke-linecap="round"/>
</svg>
