<svg width="24" height="24" viewBox="0 0 24 24" fill="none" xmlns="http://www.w3.org/2000/svg">
<path d="M20 14L20.5303 14.5304L21.0607 14L20.5303 13.4697L20 14ZM13 5.25H8.00001V6.75H13V5.25ZM8.00001 14.75H20V13.25H8.00001V14.75ZM15.4697 10.5304L19.4697 14.5304L20.5303 13.4697L16.5303 9.46969L15.4697 10.5304ZM19.4697 13.4697L15.4697 17.4697L16.5303 18.5304L20.5303 14.5304L19.4697 13.4697ZM8.00001 13.25C6.20508 13.25 4.75 11.7949 4.75 10H3.25C3.25 12.6234 5.37665 14.75 8.00001 14.75V13.25ZM8.00001 5.25C5.37665 5.25 3.25 7.37665 3.25 10H4.75C4.75 8.20508 6.20508 6.75 8.00001 6.75V5.25Z" fill="#141B34"/>
</svg>
