<svg width="24" height="24" viewBox="0 0 24 24" fill="none" xmlns="http://www.w3.org/2000/svg">
<path d="M20.9995 7.00012L21.5298 7.53045L22.0602 7.00013L21.5299 6.4698L20.9995 7.00012ZM6.99951 7.00025L6.9995 6.25025C6.58529 6.25025 6.24951 6.58604 6.24951 7.00025H6.99951ZM6.99951 21.0001L6.46919 21.5305L6.99951 22.0608L7.52983 21.5305L6.99951 21.0001ZM20.9995 6.25012L6.9995 6.25025L6.99952 7.75025L20.9995 7.75012L20.9995 6.25012ZM6.24951 7.00025V21.0001H7.74951V7.00025H6.24951ZM10.4692 16.4699L6.46919 20.4698L7.52983 21.5305L11.5298 17.5306L10.4692 16.4699ZM7.52983 20.4698L3.52983 16.4699L2.46919 17.5306L6.46919 21.5305L7.52983 20.4698ZM16.4692 3.53032L20.4692 7.53044L21.5299 6.4698L17.5299 2.46968L16.4692 3.53032ZM20.4692 6.46979L16.4692 10.4698L17.5298 11.5305L21.5298 7.53045L20.4692 6.46979Z" fill="#141B34"/>
</svg>
