<svg width="24" height="24" viewBox="0 0 24 24" fill="none" xmlns="http://www.w3.org/2000/svg">
<path d="M12 7V12L14 14" stroke="#141B34" stroke-width="1.5"/>
<path d="M16 15L16.3779 14.3522C16.1134 14.1979 15.7817 14.2199 15.5399 14.4077C15.2981 14.5956 15.1947 14.9116 15.2789 15.206L16 15ZM16 22L15.2789 21.794C15.1947 22.0884 15.2981 22.4044 15.5399 22.5923C15.7817 22.7801 16.1134 22.8021 16.3779 22.6478L16 22ZM22 18.5L22.3779 19.1478C22.6083 19.0134 22.75 18.7668 22.75 18.5C22.75 18.2332 22.6083 17.9866 22.3779 17.8522L22 18.5ZM17 18.5L17.7211 18.706L17.78 18.5L17.7211 18.294L17 18.5ZM21.6221 17.8522L15.6221 21.3522L16.3779 22.6478L22.3779 19.1478L21.6221 17.8522ZM15.6221 15.6478L21.6221 19.1478L22.3779 17.8522L16.3779 14.3522L15.6221 15.6478ZM15.2789 15.206L16.2789 18.706L17.7211 18.294L16.7211 14.794L15.2789 15.206ZM16.2789 18.294L15.2789 21.794L16.7211 22.206L17.7211 18.706L16.2789 18.294Z" fill="#141B34"/>
<path d="M13.0261 21.948C12.6888 21.9824 12.3464 22 12 22C6.47715 22 2 17.5228 2 12C2 6.47715 6.47715 2 12 2C17.5228 2 22 6.47715 22 12C22 12.6849 21.9311 13.3538 21.8 14" stroke="#141B34" stroke-width="1.5"/>
</svg>
