<svg width="24" height="24" viewBox="0 0 24 24" fill="none" xmlns="http://www.w3.org/2000/svg">
<path opacity="0.4" d="M20.7953 12C20.7953 16.8576 16.8574 20.7955 11.9998 20.7955C7.14222 20.7955 3.20436 16.8576 3.20436 12C3.20436 9.12308 4.58458 6.56881 6.72311 4.9625C7.15466 4.63835 7.24173 4.02573 6.91757 3.59417C6.59342 3.16262 5.9808 3.07556 5.54925 3.39971C2.9404 5.3593 1.24982 8.48236 1.24982 12C1.24982 17.9371 6.06276 22.75 11.9998 22.75C17.9369 22.75 22.7498 17.9371 22.7498 12C22.7498 6.06294 17.9369 1.25 11.9998 1.25C11.8303 1.25 11.6073 1.25642 11.4396 1.26421C11.1668 1.27664 10.8461 1.29127 10.582 1.35116C10.2452 1.42751 9.80794 1.61931 9.5662 2.1171C9.31497 2.63443 9.46021 3.11204 9.60673 3.41217C9.7281 3.66078 9.92169 3.93145 10.0936 4.17184L11.2046 5.72712C11.5021 6.14365 12.0664 6.25664 12.4985 5.9996C12.5201 5.98676 12.5309 5.98034 12.5555 5.96122C12.5801 5.94211 12.5955 5.92667 12.6264 5.89581L14.4059 4.11627C14.6242 3.89797 14.7334 3.78881 14.8833 3.75961C15.0333 3.73042 15.1652 3.7863 15.4289 3.89808C18.5828 5.23461 20.7953 8.35893 20.7953 12Z" fill="#141B34"/>
<path fill-rule="evenodd" clip-rule="evenodd" d="M15.1917 9.00026C15.2051 9.00026 15.2184 9.00026 15.2318 9.00026C15.2453 9.00026 15.2586 9.00026 15.272 9.00026C15.5883 9.00021 15.8961 9.00017 16.1546 9.02646C16.4407 9.05557 16.7752 9.12497 17.093 9.33732C17.3114 9.48324 17.4989 9.67074 17.6448 9.88912C17.8571 10.2069 17.9265 10.5414 17.9556 10.8275C17.9819 11.086 17.9819 11.3938 17.9819 11.7101C17.9819 11.7235 17.9818 11.7503 17.9818 11.7503V14.2503C17.9818 14.2637 17.9819 14.2771 17.9819 14.2904C17.9819 14.6067 17.9819 14.9145 17.9556 15.173C17.9265 15.4592 17.8571 15.7936 17.6448 16.1114C17.4989 16.3298 17.3114 16.5173 17.093 16.6632C16.7752 16.8756 16.4407 16.945 16.1546 16.9741C15.8961 17.0004 15.5883 17.0003 15.272 17.0003C15.2586 17.0003 15.2452 17.0003 15.2318 17.0003C15.2184 17.0003 15.2051 17.0003 15.1917 17.0003C14.8754 17.0003 14.5676 17.0004 14.3091 16.9741C14.023 16.945 13.6885 16.8756 13.3707 16.6632C13.1523 16.5173 12.9648 16.3298 12.8189 16.1114C12.6066 15.7936 12.5372 15.4592 12.5081 15.173C12.4818 14.9145 12.4818 14.6067 12.4819 14.2904C12.4819 14.2771 12.4819 14.2637 12.4819 14.2503V11.7503C12.4819 11.7369 12.4819 11.7235 12.4819 11.7101C12.4818 11.3938 12.4818 11.086 12.5081 10.8275C12.5372 10.5414 12.6066 10.2069 12.8189 9.88912C12.9648 9.67074 13.1523 9.48324 13.3707 9.33732C13.6885 9.12497 14.023 9.05557 14.3091 9.02646C14.5676 9.00017 14.8754 9.00021 15.1917 9.00026ZM14.4991 11.0175C14.4987 11.0215 14.4982 11.0256 14.4978 11.0299C14.4831 11.1747 14.4818 11.3783 14.4818 11.7503V14.2503C14.4818 14.6222 14.4831 14.8259 14.4978 14.9706C14.4982 14.9749 14.4987 14.979 14.4991 14.983C14.5031 14.9834 14.5072 14.9839 14.5115 14.9843C14.6562 14.9991 14.8599 15.0003 15.2318 15.0003C15.6038 15.0003 15.8075 14.9991 15.9522 14.9843C15.9565 14.9839 15.9606 14.9834 15.9646 14.983C15.965 14.979 15.9655 14.9749 15.9659 14.9706C15.9806 14.8259 15.9818 14.6222 15.9818 14.2503V11.7503C15.9818 11.3783 15.9806 11.1747 15.9659 11.0299C15.9655 11.0256 15.965 11.0215 15.9646 11.0175C15.9606 11.0171 15.9565 11.0166 15.9522 11.0162C15.8075 11.0015 15.6038 11.0003 15.2318 11.0003C14.8599 11.0003 14.6562 11.0015 14.5115 11.0162C14.5072 11.0166 14.5031 11.0171 14.4991 11.0175ZM6.8938 9.45983C7.34865 9.12417 7.88511 9.00001 8.36826 9.00001H9.14563C9.62878 9.00001 10.1652 9.12417 10.6201 9.45983C11.0971 9.81186 11.4108 10.3445 11.489 10.9993C11.5274 11.321 11.5274 11.679 11.489 12.0007C11.4458 12.3627 11.3185 12.7047 11.1265 13C11.3185 13.2954 11.4458 13.6373 11.489 13.9993C11.5274 14.321 11.5274 14.679 11.489 15.0007C11.4108 15.6556 11.0971 16.1882 10.6201 16.5402C10.1652 16.8758 9.62878 17 9.14563 17H8.36826C7.88511 17 7.34865 16.8758 6.8938 16.5402C6.41678 16.1882 6.10307 15.6556 6.02487 15.0007C5.9594 14.4523 6.35087 13.9546 6.89926 13.8892C7.44765 13.8237 7.94529 14.2152 8.01077 14.7636C8.01971 14.8384 8.03746 14.8763 8.04654 14.8922C8.05544 14.9078 8.06571 14.9194 8.08138 14.9309C8.1179 14.9579 8.20977 15 8.36826 15L9.14563 15C9.30412 15 9.39599 14.9579 9.43251 14.9309C9.44818 14.9194 9.45845 14.9078 9.46735 14.8922C9.47642 14.8763 9.49418 14.8384 9.50312 14.7636C9.52272 14.5994 9.52272 14.4006 9.50312 14.2365C9.49245 14.1471 9.45313 14.0814 9.41109 14.0415C9.39017 14.0217 9.37115 14.0106 9.35806 14.0051C9.35167 14.0024 9.34699 14.0012 9.34415 14.0006C9.34139 14 9.33998 14 9.33998 14H9.27062C8.71834 14 8.27062 13.5523 8.27062 13C8.27062 12.4477 8.71834 12 9.27062 12H9.33998C9.33998 12 9.34139 12 9.34415 11.9994C9.34699 11.9988 9.35167 11.9976 9.35806 11.9949C9.37115 11.9894 9.39017 11.9783 9.41109 11.9585C9.45313 11.9186 9.49245 11.8529 9.50312 11.7636C9.52272 11.5994 9.52272 11.4006 9.50312 11.2365C9.49418 11.1616 9.47642 11.1237 9.46735 11.1078C9.45845 11.0922 9.44818 11.0806 9.43251 11.0691C9.39599 11.0421 9.30412 11 9.14563 11H8.36826C8.20977 11 8.1179 11.0421 8.08138 11.0691C8.06571 11.0806 8.05544 11.0922 8.04654 11.1078C8.03746 11.1237 8.01971 11.1616 8.01077 11.2365C7.94529 11.7849 7.44765 12.1763 6.89926 12.1108C6.35087 12.0454 5.9594 11.5477 6.02487 10.9993C6.10307 10.3445 6.41678 9.81187 6.8938 9.45983Z" fill="#141B34"/>
</svg>
