<svg width="24" height="24" viewBox="0 0 24 24" fill="none" xmlns="http://www.w3.org/2000/svg">
<path opacity="0.4" d="M11.0558 1.25C12.6583 1.24998 13.9373 1.24997 14.9404 1.38483C15.9767 1.52415 16.8301 1.81966 17.5052 2.4948C18.1803 3.16994 18.4758 4.02335 18.6152 5.05961C18.75 6.0627 18.75 7.34166 18.75 8.94426V11.0557C18.75 12.6583 18.75 13.9373 18.6152 14.9404C18.4758 15.9767 18.1803 16.8301 17.5052 17.5052C16.8301 18.1803 15.9767 18.4758 14.9404 18.6152C13.9373 18.75 12.6583 18.75 11.0557 18.75H8.94426C7.34166 18.75 6.0627 18.75 5.05961 18.6152C4.02335 18.4758 3.16994 18.1803 2.4948 17.5052C1.81966 16.8301 1.52415 15.9767 1.38483 14.9404C1.24997 13.9373 1.24998 12.6583 1.25 11.0558V11.0557V8.94425V8.94425C1.24998 7.34166 1.24997 6.0627 1.38483 5.05961C1.52415 4.02335 1.81966 3.16994 2.4948 2.4948C3.16994 1.81966 4.02335 1.52415 5.05961 1.38483C6.0627 1.24997 7.34166 1.24998 8.94425 1.25H8.94425H11.0557H11.0558Z" fill="#141B34"/>
<path d="M5.8053 18.6894C5.92741 19.7955 6.21366 20.7468 6.96028 21.4934C7.65907 22.1922 8.53419 22.4855 9.54139 22.6209C10.5044 22.7504 11.7239 22.7504 13.2147 22.7504H15.2386C16.7293 22.7504 17.9489 22.7504 18.912 22.6209C19.9192 22.4855 20.7943 22.1922 21.4931 21.4934C22.1919 20.7946 22.4852 19.9195 22.6206 18.9123C22.7501 17.9493 22.75 16.7298 22.75 15.239V13.2151C22.75 11.7244 22.7501 10.5048 22.6206 9.54175C22.4852 8.53455 22.1919 7.65943 21.4931 6.96064C20.7465 6.21403 19.7952 5.92778 18.6891 5.80566C18.7307 6.39952 18.7439 7.07207 18.7481 7.83017C19.4627 7.93784 19.8236 8.11964 20.0789 8.37486C20.3441 8.64011 20.5328 9.02282 20.6384 9.80824C20.7479 10.6224 20.75 11.7067 20.75 13.2866V15.1675C20.75 16.7473 20.7479 17.8316 20.6384 18.6458C20.5328 19.4312 20.3441 19.814 20.0789 20.0792C19.8136 20.3445 19.4309 20.5332 18.6455 20.6388C17.8313 20.7482 16.747 20.7504 15.1671 20.7504H13.2863C11.7064 20.7504 10.6221 20.7482 9.80788 20.6388C9.02246 20.5332 8.63975 20.3445 8.37449 20.0792C8.11928 19.824 7.93747 19.4631 7.8298 18.7484C7.0717 18.7442 6.39915 18.731 5.8053 18.6894Z" fill="#141B34"/>
<path d="M10.8119 5.27405C11.1427 5.18832 11.4896 5.33709 11.6556 5.63584C11.7184 5.74876 11.7634 5.87417 11.7932 5.96044C11.8116 6.01387 11.8339 6.08219 11.8553 6.14776L11.8553 6.14783C11.8685 6.18819 11.8814 6.2275 11.8928 6.26165C11.9618 6.46875 12.0391 6.67847 12.145 6.8769C12.3485 7.25826 12.6341 7.56204 13.1471 7.66463C13.5533 7.74587 13.8167 8.14099 13.7354 8.54716C13.6542 8.95333 13.2591 9.21674 12.8529 9.13551C12.4099 9.04691 12.0473 8.8788 11.75 8.66748V12.0001C11.75 13.5189 10.5188 14.7501 9 14.7501C7.48122 14.7501 6.25 13.5189 6.25 12.0001C6.25 10.4813 7.48122 9.25007 9 9.25007C9.45011 9.25007 9.87497 9.35821 10.25 9.54992V6.00007C10.25 5.65831 10.481 5.35978 10.8119 5.27405Z" fill="#141B34"/>
</svg>
