<svg width="24" height="24" viewBox="0 0 24 24" fill="none" xmlns="http://www.w3.org/2000/svg">
<path d="M20.1279 7.18734C20.5768 6.86556 21.2015 6.96858 21.5233 7.41744C22.4527 8.71393 23.0001 10.2951 23.0001 12.0001C23.0001 16.444 19.3054 20.0001 14.8058 20.0001H8.61162V21C8.61166 21.2514 8.5175 21.503 8.32834 21.6974C7.94319 22.0933 7.31009 22.1019 6.91425 21.7168L5.91145 20.7411C5.72047 20.5554 5.47023 20.3122 5.32351 20.1224C5.19463 19.9557 4.8228 19.4343 5.09554 18.7936C5.36224 18.1671 5.9802 18.0609 6.18591 18.0326C6.42409 17.9998 6.7231 17.9999 6.99435 18.0001H6.99437L7.04485 18.0001H14.8058C18.2528 18.0001 21.0001 15.2882 21.0001 12.0001C21.0001 10.7305 20.594 9.55389 19.8978 8.58271C19.576 8.13385 19.6791 7.50912 20.1279 7.18734Z" fill="#141B34"/>
<path opacity="0.4" d="M3.87208 16.8127C3.42321 17.1344 2.79849 17.0314 2.47671 16.5826C1.54729 15.2861 0.999945 13.7049 0.999945 11.9999C0.999945 7.55602 4.6946 3.99992 9.19417 3.99992H15.3884V3C15.3883 2.74861 15.4825 2.49697 15.6717 2.30256C16.0568 1.90673 16.6899 1.89806 17.0858 2.28321L18.0886 3.25894C18.2795 3.44457 18.5298 3.68781 18.6765 3.87758C18.8054 4.04428 19.1772 4.56574 18.9045 5.20642C18.6378 5.83292 18.0198 5.93914 17.8141 5.96744C17.5759 6.00021 17.2769 6.00007 17.0057 5.99994H17.0056L16.9552 5.99992H9.19417C5.74722 5.99992 2.99994 8.71184 2.99994 11.9999C2.99994 13.2695 3.40596 14.4461 4.10218 15.4173C4.42396 15.8662 4.32094 16.4909 3.87208 16.8127Z" fill="#141B34"/>
</svg>
