<svg width="24" height="24" viewBox="0 0 24 24" fill="none" xmlns="http://www.w3.org/2000/svg">
<path d="M14 9.18646V9.18646V14L8 7.80479C8.27704 7.60711 8.55988 7.35115 8.88232 7.02192C11.0603 4.79793 12.1494 3.68593 13.0747 4.0773C14 4.46866 14 6.04126 14 9.18646Z" fill="white"/>
<path fill-rule="evenodd" clip-rule="evenodd" d="M1.29289 1.29289C1.68342 0.902369 2.31658 0.902369 2.70711 1.29289L22.7071 21.2929C23.0976 21.6834 23.0976 22.3166 22.7071 22.7071C22.3166 23.0976 21.6834 23.0976 21.2929 22.7071L1.29289 2.70711C0.902369 2.31658 0.902369 1.68342 1.29289 1.29289Z" fill="#141B34"/>
<path d="M10.9913 3.97364C11.6782 3.44605 12.4955 3.01762 13.3667 3.38613C14.23 3.75123 14.5073 4.63072 14.6272 5.4959C14.75 6.38264 14.7499 7.60362 14.7499 9.1217V9.76539C14.7499 10.3819 14.7499 10.6901 14.5647 10.7668C14.3795 10.8435 14.1616 10.6256 13.7256 10.1897L9.60542 6.06943C9.40546 5.86946 9.30547 5.76948 9.30594 5.64456C9.3064 5.51965 9.4063 5.42122 9.6061 5.22436C10.1259 4.71219 10.5897 4.28212 10.9913 3.97364Z" fill="#141B34"/>
<path opacity="0.4" d="M14.7499 14.8783C14.7499 16.3964 14.75 17.6174 14.6272 18.5041C14.5073 19.3693 14.23 20.2488 13.3668 20.6139C12.4955 20.9824 11.6782 20.554 10.9913 20.0264C10.2889 19.4869 9.39632 18.5754 8.34639 17.5033C7.80693 16.9525 7.44897 16.6863 7.08638 16.5364C6.72197 16.3857 6.2789 16.3218 5.50595 16.3218C4.83744 16.3218 4.23938 16.3218 3.78655 16.2748C3.3116 16.2254 2.87064 16.118 2.47397 15.8474C1.71816 15.3317 1.42892 14.5766 1.31933 13.8827C1.23761 13.3652 1.24699 12.797 1.25454 12.3394V11.6615C1.24699 11.2039 1.23761 10.6357 1.31933 10.1182C1.42892 9.42428 1.71815 8.6692 2.47396 8.15353C2.87064 7.88289 3.3116 7.77548 3.78655 7.72614C4.23939 7.67911 4.83744 7.67912 5.50595 7.67914C6.2789 7.67914 6.72197 7.6152 7.08638 7.46455L7.08639 7.46454C7.15366 7.43673 7.18729 7.42283 7.20691 7.41767C7.30641 7.39153 7.38292 7.40678 7.46479 7.46906C7.48094 7.48135 7.50031 7.50072 7.53906 7.53947L14.6594 14.6598L14.6645 14.665C14.7184 14.7201 14.749 14.7939 14.7499 14.871L14.7499 14.8783Z" fill="#141B34"/>
<path fill-rule="evenodd" clip-rule="evenodd" d="M19.2868 7.29899C19.674 6.90513 20.3071 6.89969 20.701 7.28685C22.1126 8.67445 23 10.4871 23 12.5C23 13.8929 22.5738 15.1964 21.8385 16.3278C21.5375 16.7909 20.9182 16.9223 20.4551 16.6214C19.992 16.3204 19.8606 15.701 20.1615 15.238C20.7044 14.4027 21 13.4737 21 12.5C21 11.1032 20.389 9.78458 19.299 8.71315C18.9051 8.32599 18.8997 7.69285 19.2868 7.29899ZM16.3654 9.22717C16.7922 8.87668 17.4223 8.93856 17.7728 9.36538C18.5358 10.2945 19 11.4536 19 12.7195C19 12.7455 18.9998 12.7716 18.9994 12.7976C18.991 13.3498 18.5366 13.7907 17.9844 13.7823C17.4322 13.7739 16.9913 13.3195 16.9996 12.7673C16.9999 12.7514 17 12.7354 17 12.7195C17 11.9573 16.7233 11.2388 16.2272 10.6346C15.8767 10.2078 15.9386 9.57766 16.3654 9.22717Z" fill="#141B34"/>
</svg>
