<svg width="24" height="24" viewBox="0 0 24 24" fill="none" xmlns="http://www.w3.org/2000/svg">
<path opacity="0.4" d="M10.9914 3.97364C11.6783 3.44605 12.4956 3.01762 13.3669 3.38613C14.2301 3.75123 14.5075 4.63072 14.6273 5.4959C14.7501 6.38264 14.7501 7.60362 14.75 9.1217V14.8775C14.7501 16.3956 14.7501 17.6165 14.6273 18.5033C14.5075 19.3685 14.2301 20.2479 13.3669 20.613C12.4956 20.9816 11.6783 20.5531 10.9914 20.0255C10.289 19.486 9.39648 18.5746 8.34655 17.5025L8.34651 17.5024C7.80705 16.9516 7.44909 16.6854 7.0865 16.5355C6.72209 16.3848 6.27902 16.3209 5.50607 16.3209C4.83756 16.3209 4.23951 16.3209 3.78667 16.2739C3.31172 16.2246 2.87076 16.1172 2.47409 15.8465C1.71828 15.3308 1.42904 14.5758 1.31945 13.8818C1.23773 13.3643 1.24711 12.7962 1.25466 12.3385V11.6607C1.24711 11.203 1.23773 10.6348 1.31945 10.1174C1.42904 9.42341 1.71828 8.66834 2.47409 8.15267C2.87076 7.88202 3.31172 7.77461 3.78667 7.72528C4.23951 7.67824 4.83756 7.67826 5.50607 7.67827C6.27902 7.67827 6.72209 7.61433 7.08651 7.46368C7.44909 7.31378 7.80705 7.04758 8.34651 6.49674L8.34652 6.49673C9.39646 5.4246 10.289 4.51316 10.9914 3.97364Z" fill="#141B34"/>
<path fill-rule="evenodd" clip-rule="evenodd" d="M17.2929 9.29289C17.6834 8.90237 18.3166 8.90237 18.7071 9.29289L20 10.5858L21.2929 9.29289C21.6834 8.90237 22.3166 8.90237 22.7071 9.29289C23.0976 9.68342 23.0976 10.3166 22.7071 10.7071L21.4142 12L22.7071 13.2929C23.0976 13.6834 23.0976 14.3166 22.7071 14.7071C22.3166 15.0976 21.6834 15.0976 21.2929 14.7071L20 13.4142L18.7071 14.7071C18.3166 15.0976 17.6834 15.0976 17.2929 14.7071C16.9024 14.3166 16.9024 13.6834 17.2929 13.2929L18.5858 12L17.2929 10.7071C16.9024 10.3166 16.9024 9.68342 17.2929 9.29289Z" fill="#141B34"/>
</svg>
