<svg width="24" height="24" viewBox="0 0 24 24" fill="none" xmlns="http://www.w3.org/2000/svg">
<path d="M3 2V22H21V2H3Z" stroke="#141B34" stroke-width="1.5" stroke-linejoin="round"/>
<path d="M8 7.5L8.5332 6.97255C8.39232 6.83014 8.20032 6.75 8 6.75C7.79968 6.75 7.60768 6.83014 7.4668 6.97255L8 7.5ZM16 7.5L16.5332 6.97255C16.3923 6.83014 16.2003 6.75 16 6.75C15.7997 6.75 15.6077 6.83014 15.4668 6.97255L16 7.5ZM8.75 9.9C8.75 10.4158 8.36935 10.75 8 10.75V12.25C9.2875 12.25 10.25 11.1515 10.25 9.9H8.75ZM8 10.75C7.63065 10.75 7.25 10.4158 7.25 9.9H5.75C5.75 11.1515 6.7125 12.25 8 12.25V10.75ZM7.25 9.9C7.25 9.86429 7.27448 9.73565 7.39765 9.5023C7.51121 9.28716 7.67146 9.05177 7.84539 8.82471C8.01727 8.60033 8.19099 8.39898 8.32264 8.25297C8.38809 8.18037 8.44224 8.12246 8.47938 8.08335C8.49793 8.06382 8.51218 8.04905 8.5214 8.03954C8.52601 8.03479 8.52936 8.03136 8.53135 8.02933C8.53235 8.02831 8.53301 8.02764 8.53332 8.02732C8.53348 8.02716 8.53355 8.02709 8.53353 8.02711C8.53352 8.02712 8.53348 8.02716 8.53343 8.02721C8.5334 8.02724 8.53334 8.0273 8.53333 8.02731C8.53327 8.02738 8.5332 8.02745 8 7.5C7.4668 6.97255 7.46672 6.97263 7.46664 6.97272C7.4666 6.97276 7.46651 6.97285 7.46643 6.97293C7.46629 6.97307 7.46612 6.97324 7.46593 6.97344C7.46554 6.97383 7.46507 6.97431 7.4645 6.97489C7.46337 6.97603 7.46188 6.97755 7.46004 6.97943C7.45636 6.98318 7.45129 6.98838 7.44491 6.99495C7.43216 7.00809 7.41418 7.02675 7.39171 7.05041C7.34682 7.09768 7.28378 7.16513 7.20861 7.24851C7.05901 7.41442 6.85773 7.64738 6.65461 7.91255C6.45354 8.17503 6.23879 8.48441 6.0711 8.80211C5.91302 9.1016 5.75 9.49388 5.75 9.9H7.25ZM8 7.5C7.4668 8.02745 7.46673 8.02738 7.46667 8.02731C7.46666 8.0273 7.4666 8.02724 7.46657 8.02721C7.46652 8.02716 7.46648 8.02712 7.46647 8.02711C7.46645 8.02709 7.46652 8.02716 7.46668 8.02732C7.46699 8.02764 7.46765 8.02831 7.46865 8.02933C7.47064 8.03136 7.47399 8.03479 7.4786 8.03954C7.48782 8.04905 7.50207 8.06382 7.52062 8.08335C7.55776 8.12246 7.61191 8.18037 7.67736 8.25297C7.80901 8.39898 7.98273 8.60033 8.15461 8.82471C8.32854 9.05177 8.48879 9.28716 8.60235 9.5023C8.72552 9.73565 8.75 9.86429 8.75 9.9H10.25C10.25 9.49388 10.087 9.1016 9.9289 8.80211C9.76121 8.48441 9.54646 8.17503 9.34539 7.91255C9.14227 7.64738 8.94099 7.41442 8.79139 7.24851C8.71622 7.16513 8.65318 7.09768 8.60829 7.05041C8.58582 7.02675 8.56784 7.00809 8.55509 6.99495C8.54871 6.98838 8.54364 6.98318 8.53996 6.97943C8.53812 6.97755 8.53663 6.97603 8.5355 6.97489C8.53493 6.97431 8.53446 6.97383 8.53407 6.97344C8.53388 6.97324 8.53371 6.97307 8.53357 6.97293C8.53349 6.97285 8.5334 6.97276 8.53336 6.97272C8.53328 6.97263 8.5332 6.97255 8 7.5ZM6 7.75H18V6.25H6V7.75ZM16.75 9.9C16.75 10.4158 16.3694 10.75 16 10.75V12.25C17.2875 12.25 18.25 11.1515 18.25 9.9H16.75ZM16 10.75C15.6306 10.75 15.25 10.4158 15.25 9.9H13.75C13.75 11.1515 14.7125 12.25 16 12.25V10.75ZM15.25 9.9C15.25 9.86429 15.2745 9.73565 15.3976 9.5023C15.5112 9.28716 15.6715 9.05177 15.8454 8.82471C16.0173 8.60033 16.191 8.39898 16.3226 8.25297C16.3881 8.18037 16.4422 8.12246 16.4794 8.08335C16.4979 8.06382 16.5122 8.04905 16.5214 8.03954C16.526 8.03479 16.5294 8.03136 16.5314 8.02933C16.5324 8.02831 16.533 8.02764 16.5333 8.02732C16.5335 8.02716 16.5335 8.02709 16.5335 8.02711C16.5335 8.02712 16.5335 8.02716 16.5334 8.02721C16.5334 8.02724 16.5333 8.0273 16.5333 8.02731C16.5333 8.02738 16.5332 8.02745 16 7.5C15.4668 6.97255 15.4667 6.97263 15.4666 6.97272C15.4666 6.97276 15.4665 6.97285 15.4664 6.97293C15.4663 6.97307 15.4661 6.97324 15.4659 6.97344C15.4655 6.97383 15.4651 6.97431 15.4645 6.97489C15.4634 6.97603 15.4619 6.97755 15.46 6.97943C15.4564 6.98318 15.4513 6.98838 15.4449 6.99495C15.4322 7.00809 15.4142 7.02675 15.3917 7.05041C15.3468 7.09768 15.2838 7.16513 15.2086 7.24851C15.059 7.41442 14.8577 7.64738 14.6546 7.91255C14.4535 8.17503 14.2388 8.48441 14.0711 8.80211C13.913 9.1016 13.75 9.49388 13.75 9.9H15.25ZM16 7.5C15.4668 8.02745 15.4667 8.02738 15.4667 8.02731C15.4667 8.0273 15.4666 8.02724 15.4666 8.02721C15.4665 8.02716 15.4665 8.02712 15.4665 8.02711C15.4665 8.02709 15.4665 8.02716 15.4667 8.02732C15.467 8.02764 15.4676 8.02831 15.4686 8.02933C15.4706 8.03136 15.474 8.03479 15.4786 8.03954C15.4878 8.04905 15.5021 8.06382 15.5206 8.08335C15.5578 8.12246 15.6119 8.18037 15.6774 8.25297C15.809 8.39898 15.9827 8.60033 16.1546 8.82471C16.3285 9.05177 16.4888 9.28716 16.6024 9.5023C16.7255 9.73565 16.75 9.86429 16.75 9.9H18.25C18.25 9.49388 18.087 9.1016 17.9289 8.80211C17.7612 8.48441 17.5465 8.17503 17.3454 7.91255C17.1423 7.64738 16.941 7.41442 16.7914 7.24851C16.7162 7.16513 16.6532 7.09768 16.6083 7.05041C16.5858 7.02675 16.5678 7.00809 16.5551 6.99495C16.5487 6.98838 16.5436 6.98318 16.54 6.97943C16.5381 6.97755 16.5366 6.97603 16.5355 6.97489C16.5349 6.97431 16.5345 6.97383 16.5341 6.97344C16.5339 6.97324 16.5337 6.97307 16.5336 6.97293C16.5335 6.97285 16.5334 6.97276 16.5334 6.97272C16.5333 6.97263 16.5332 6.97255 16 7.5ZM11.25 7V14H12.75V7H11.25ZM12 14.75H14V13.25H12V14.75ZM12 13.25H10V14.75H12V13.25Z" fill="#141B34"/>
<path d="M8 17H16" stroke="#141B34" stroke-width="1.5" stroke-linejoin="round"/>
</svg>
