<svg width="24" height="24" viewBox="0 0 24 24" fill="none" xmlns="http://www.w3.org/2000/svg">
<path d="M16 7H18V21.9997H6V7H8" stroke="#141B34" stroke-width="1.5" stroke-linejoin="round"/>
<path d="M22 12.0002H22.75C22.75 11.586 22.4142 11.2502 22 11.2502L22 12.0002ZM22 22V22.75H22.75V22H22ZM21.25 12.0002V22H22.75V12.0002H21.25ZM22 21.25H18V22.75H22V21.25ZM18 12.75L22 12.7502L22 11.2502L18 11.25L18 12.75Z" fill="#141B34"/>
<path d="M2 12.0002L1.99996 11.2502C1.58576 11.2502 1.25 11.586 1.25 12.0002H2ZM2 22H1.25V22.75H2V22ZM1.25 12.0002V22H2.75V12.0002H1.25ZM2 22.75H6V21.25H2V22.75ZM5.99996 11.25L1.99996 11.2502L2.00004 12.7502L6.00004 12.75L5.99996 11.25Z" fill="#141B34"/>
<path d="M12 22L12 18" stroke="#141B34" stroke-width="1.5" stroke-linejoin="round"/>
<path d="M9 15H11M15 15H13" stroke="#141B34" stroke-width="1.5" stroke-linejoin="round"/>
<path d="M12.0004 2L12.6667 1.6557C12.5379 1.40655 12.2809 1.25004 12.0005 1.25C11.72 1.24996 11.463 1.40639 11.3342 1.6555L12.0004 2ZM8.04217 4V3.25H7.38259L7.29832 3.90417L8.04217 4ZM12.0004 11L11.7403 11.7035L12.0004 11.7996L12.2604 11.7035L12.0004 11ZM15.9578 4L16.7017 3.90417L16.6174 3.25H15.9578V4ZM12.0004 2C11.3342 1.6555 11.3344 1.65514 11.3345 1.65478C11.3346 1.65467 11.3348 1.65431 11.3349 1.65409C11.3351 1.65365 11.3353 1.65324 11.3355 1.65285C11.3359 1.65209 11.3363 1.65144 11.3366 1.6509C11.3371 1.64982 11.3375 1.6492 11.3376 1.64903C11.3378 1.64867 11.337 1.65007 11.3353 1.65311C11.3318 1.6592 11.3245 1.67181 11.3132 1.69003C11.2905 1.72652 11.252 1.78504 11.1962 1.8584C11.0843 2.00551 10.9054 2.20913 10.6488 2.4147C10.1445 2.81876 9.31735 3.25 8.04217 3.25V4.75C9.69097 4.75 10.8429 4.18124 11.5867 3.5853C11.9542 3.29087 12.2166 2.99449 12.39 2.7666C12.4768 2.65246 12.5419 2.55473 12.5872 2.48185C12.6099 2.44537 12.6277 2.41502 12.6408 2.39181C12.6474 2.3802 12.6528 2.37037 12.657 2.36245C12.6592 2.35849 12.6611 2.355 12.6626 2.352C12.6634 2.3505 12.6642 2.34913 12.6648 2.34787C12.6651 2.34725 12.6654 2.34665 12.6657 2.34609C12.6659 2.34581 12.6661 2.34541 12.6662 2.34527C12.6664 2.34488 12.6666 2.3445 12.0004 2ZM7.29832 3.90417C7.17446 4.86552 7.26249 6.40998 7.87583 7.91036C8.49745 9.43098 9.67619 10.9405 11.7403 11.7035L12.2604 10.2965C10.6721 9.70946 9.76302 8.56277 9.2643 7.34277C8.7573 6.10252 8.69247 4.82198 8.78602 4.09583L7.29832 3.90417ZM12.0004 2C11.3341 2.3443 11.3343 2.34468 11.3345 2.34507C11.3345 2.34521 11.3347 2.34561 11.3349 2.34589C11.3352 2.34646 11.3355 2.34705 11.3358 2.34768C11.3365 2.34893 11.3372 2.35031 11.338 2.3518C11.3396 2.3548 11.3414 2.35829 11.3436 2.36226C11.3479 2.37018 11.3533 2.38001 11.3598 2.39162C11.373 2.41483 11.3907 2.4452 11.4134 2.48167C11.4587 2.55456 11.5237 2.65231 11.6105 2.76646C11.7838 2.99436 12.0461 3.29078 12.4135 3.58523C13.1572 4.18123 14.309 4.75 15.9578 4.75V3.25C14.6826 3.25 13.8557 2.81877 13.3516 2.41477C13.0952 2.20922 12.9164 2.00564 12.8045 1.85854C12.7488 1.78519 12.7102 1.72669 12.6876 1.6902C12.6763 1.67199 12.669 1.65939 12.6655 1.6533C12.6638 1.65026 12.6631 1.64886 12.6633 1.64922C12.6634 1.6494 12.6637 1.65002 12.6643 1.65109C12.6645 1.65163 12.6649 1.65228 12.6653 1.65305C12.6655 1.65344 12.6657 1.65385 12.6659 1.65429C12.666 1.65451 12.6662 1.65486 12.6663 1.65498C12.6665 1.65534 12.6667 1.6557 12.0004 2ZM15.2139 4.09583C15.3075 4.82206 15.2428 6.10263 14.736 7.34285C14.2375 8.56282 13.3286 9.70947 11.7403 10.2965L12.2604 11.7035C14.3246 10.9405 15.5031 9.43093 16.1245 7.91027C16.7377 6.40987 16.8255 4.86544 16.7017 3.90417L15.2139 4.09583Z" fill="#141B34"/>
</svg>
