<svg width="24" height="24" viewBox="0 0 24 24" fill="none" xmlns="http://www.w3.org/2000/svg">
<circle cx="17" cy="17" r="5" stroke="#141B34" stroke-width="1.5"/>
<path opacity="0.4" d="M2.64437 12.3556L3.1747 11.8253L3.17469 11.8253L2.64437 12.3556ZM12.3556 2.64437L11.8253 3.17469L11.8253 3.1747L12.3556 2.64437ZM8.6 1.25H6.4V2.75H8.6V1.25ZM7.5 12.25H6.4V13.75H7.5V12.25ZM12.25 6.4V7.5H13.75V6.4H12.25ZM1.25 6.4V8.6H2.75V6.4H1.25ZM6.4 12.25C5.34171 12.25 4.62344 12.2484 4.08594 12.1761C3.57001 12.1068 3.3343 11.9849 3.1747 11.8253L2.11403 12.886C2.59879 13.3707 3.20381 13.571 3.88607 13.6628C4.54675 13.7516 5.38411 13.75 6.4 13.75V12.25ZM1.25 8.6C1.25 9.61589 1.24841 10.4533 1.33723 11.1139C1.42896 11.7962 1.62928 12.4012 2.11404 12.886L3.17469 11.8253C3.01509 11.6657 2.89322 11.43 2.82386 10.9141C2.75159 10.3766 2.75 9.65829 2.75 8.6H1.25ZM6.4 1.25C5.38411 1.25 4.54675 1.24841 3.88607 1.33723C3.20381 1.42896 2.59879 1.62928 2.11404 2.11404L3.1747 3.1747C3.3343 3.01509 3.57001 2.89322 4.08594 2.82386C4.62344 2.75159 5.34171 2.75 6.4 2.75V1.25ZM2.75 6.4C2.75 5.34171 2.75159 4.62344 2.82386 4.08594C2.89322 3.57001 3.01509 3.3343 3.1747 3.1747L2.11404 2.11404C1.62928 2.59879 1.42896 3.20381 1.33723 3.88607C1.24841 4.54675 1.25 5.38411 1.25 6.4H2.75ZM8.6 2.75C9.65829 2.75 10.3766 2.75159 10.9141 2.82386C11.43 2.89322 11.6657 3.01509 11.8253 3.17469L12.886 2.11404C12.4012 1.62928 11.7962 1.42896 11.1139 1.33723C10.4533 1.24841 9.61589 1.25 8.6 1.25V2.75ZM13.75 6.4C13.75 5.38411 13.7516 4.54675 13.6628 3.88607C13.571 3.20381 13.3707 2.59879 12.886 2.11403L11.8253 3.1747C11.9849 3.3343 12.1068 3.57001 12.1761 4.08594C12.2484 4.62344 12.25 5.34171 12.25 6.4H13.75ZM7.75 13.0418C7.75 10.1192 10.1192 7.75 13.0418 7.75V6.25C9.29078 6.25 6.25 9.29078 6.25 13.0418H7.75ZM12.1589 18.2603C9.65671 17.8406 7.75 15.6631 7.75 13.0418H6.25C6.25 16.4078 8.69796 19.2007 11.9107 19.7397L12.1589 18.2603ZM13.0418 7.75C15.6631 7.75 17.8406 9.65671 18.2603 12.1589L19.7397 11.9107C19.2007 8.69796 16.4078 6.25 13.0418 6.25V7.75Z" fill="#141B34"/>
</svg>
