<svg width="24" height="24" viewBox="0 0 24 24" fill="none" xmlns="http://www.w3.org/2000/svg">
<path opacity="0.4" d="M7.90613 15.227L7.18145 15.0338L7.90613 15.227ZM16.0939 15.227L15.3692 15.4203L16.0939 15.227ZM15.2614 13.3105L14.8045 13.9053L14.8045 13.9053L15.2614 13.3105ZM8.81183 12.7018C8.64714 13.0819 8.82173 13.5235 9.20179 13.6882C9.58186 13.8529 10.0235 13.6783 10.1882 13.2982L8.81183 12.7018ZM11.0769 9.36095L11.7651 9.65915V9.65915L11.0769 9.36095ZM12.9231 9.36095L12.2349 9.65915V9.65915L12.9231 9.36095ZM13.8118 13.2982C13.9765 13.6783 14.4181 13.8529 14.7982 13.6882C15.1783 13.5235 15.3529 13.0819 15.1882 12.7018L13.8118 13.2982ZM7.22468 20.6932L8.63081 15.4203L7.18145 15.0338L5.77532 20.3068L7.22468 20.6932ZM18.2247 20.3068L16.8185 15.0338L15.3692 15.4203L16.7753 20.6932L18.2247 20.3068ZM10.8048 13.75H13.1952V12.25H10.8048V13.75ZM16.8185 15.0338C16.6804 14.5159 16.5612 14.0638 16.4191 13.7065C16.2696 13.3307 16.0671 12.9837 15.7184 12.7158L14.8045 13.9053C14.86 13.9479 14.931 14.0238 15.0253 14.2609C15.1269 14.5166 15.2218 14.8675 15.3692 15.4203L16.8185 15.0338ZM13.1952 13.75C13.7673 13.75 14.1308 13.7512 14.404 13.7836C14.6574 13.8136 14.749 13.8626 14.8045 13.9053L15.7184 12.7158C15.3697 12.4479 14.9822 12.3416 14.5805 12.294C14.1987 12.2488 13.7311 12.25 13.1952 12.25V13.75ZM8.63081 15.4203C8.77821 14.8675 8.87306 14.5166 8.97475 14.2609C9.06904 14.0238 9.14001 13.9479 9.19549 13.9053L8.28164 12.7158C7.93295 12.9837 7.73045 13.3307 7.58095 13.7065C7.43884 14.0638 7.31955 14.5159 7.18145 15.0338L8.63081 15.4203ZM10.8048 12.25C10.2689 12.25 9.80132 12.2488 9.41948 12.294C9.01777 12.3416 8.63032 12.4479 8.28164 12.7158L9.19549 13.9053C9.25098 13.8626 9.34263 13.8136 9.596 13.7836C9.86924 13.7512 10.2327 13.75 10.8048 13.75V12.25ZM10.1882 13.2982L11.7651 9.65915L10.3888 9.06274L8.81183 12.7018L10.1882 13.2982ZM12.2349 9.65915L13.8118 13.2982L15.1882 12.7018L13.6112 9.06274L12.2349 9.65915ZM11.7651 9.65915C11.9719 9.18201 12.0947 8.90339 12.1992 8.73407C12.3136 8.54869 12.2512 8.75 12 8.75V7.25C11.4155 7.25 11.0882 7.67813 10.9226 7.9464C10.7472 8.23073 10.5752 8.63259 10.3888 9.06274L11.7651 9.65915ZM13.6112 9.06274C13.4248 8.63259 13.2528 8.23073 13.0774 7.9464C12.9118 7.67813 12.5845 7.25 12 7.25V8.75C11.7488 8.75 11.6864 8.54869 11.8008 8.73407C11.9053 8.90339 12.0281 9.18201 12.2349 9.65915L13.6112 9.06274Z" fill="#141B34"/>
<circle cx="12" cy="12" r="10" stroke="#141B34" stroke-width="1.5" stroke-linecap="round" stroke-linejoin="round"/>
</svg>
