<svg width="24" height="24" viewBox="0 0 24 24" fill="none" xmlns="http://www.w3.org/2000/svg">
<path d="M16.5039 7.99841C17.3478 7.99841 18.3218 7.91504 18.8029 8.74841C19.0039 9.09649 19.0039 9.5638 19.0039 10.4984V11.4984C19.0039 12.433 19.0039 12.9003 18.8029 13.2484C18.3218 14.0818 17.3478 13.9984 16.5039 13.9984C15.66 13.9984 14.686 14.0818 14.2049 13.2484C14.0039 12.9003 14.0039 12.433 14.0039 11.4984L14.0039 10.4984C14.0039 9.5638 14.0039 9.09649 14.2049 8.74841C14.686 7.91504 15.66 7.99841 16.5039 7.99841Z" stroke="#141B34" stroke-width="1.5" stroke-linecap="round" stroke-linejoin="round"/>
<path d="M7.50391 7.99841C8.3478 7.99841 9.3218 7.91504 9.80294 8.74841C10.0039 9.09649 10.0039 9.5638 10.0039 10.4984L10.0039 17.4984C10.0039 18.433 10.0039 18.9003 9.80294 19.2484C9.3218 20.0818 8.3478 19.9984 7.50391 19.9984C6.66001 19.9984 5.68602 20.0818 5.20487 19.2484C5.00391 18.9003 5.00391 18.433 5.00391 17.4984L5.00391 10.4984C5.00391 9.5638 5.00391 9.09649 5.20487 8.74841C5.68602 7.91504 6.66001 7.99841 7.50391 7.99841Z" stroke="#141B34" stroke-width="1.5" stroke-linecap="round" stroke-linejoin="round"/>
<path opacity="0.4" d="M22 4L2 4" stroke="#141B34" stroke-width="1.5" stroke-linecap="round" stroke-linejoin="round"/>
</svg>
