<svg width="24" height="24" viewBox="0 0 24 24" fill="none" xmlns="http://www.w3.org/2000/svg">
<path opacity="0.4" d="M17.6897 9.2744C17.289 9.16961 16.8792 9.40952 16.7744 9.81025C16.6696 10.211 16.9095 10.6208 17.3103 10.7256L17.6897 9.2744ZM11.1889 13.7603C11.3527 13.3799 11.177 12.9387 10.7965 12.7749C10.416 12.6112 9.97485 12.7869 9.8111 13.1673L11.1889 13.7603ZM9.88934 18.8156C10.0637 19.1914 10.5096 19.3547 10.8853 19.1803C11.2611 19.006 11.4244 18.5601 11.25 18.1844L9.88934 18.8156ZM14.2535 20.9473C13.8636 20.8073 13.4341 21.0098 13.2941 21.3996C13.1541 21.7895 13.3567 22.219 13.7465 22.359L14.2535 20.9473ZM13.5806 9.51105C13.1946 9.66139 13.0036 10.0962 13.1539 10.4821C13.3043 10.8681 13.739 11.0591 14.125 10.9088L13.5806 9.51105ZM14.6897 10.7256C15.0905 10.6208 15.3304 10.211 15.2256 9.81025C15.1208 9.40952 14.711 9.16961 14.3103 9.2744L14.6897 10.7256ZM15.3469 10.9238L15.1488 11.6472L15.3469 10.9238ZM16.6484 10.9238L16.8465 11.6472L16.6484 10.9238ZM15.25 7C15.25 7.41421 15.5858 7.75 16 7.75C16.4142 7.75 16.75 7.41421 16.75 7H15.25ZM16.75 2C16.75 1.58579 16.4142 1.25 16 1.25C15.5858 1.25 15.25 1.58579 15.25 2H16.75ZM21.25 15.904C21.25 18.8678 18.8883 21.25 16 21.25V22.75C19.7391 22.75 22.75 19.6737 22.75 15.904H21.25ZM17.3103 10.7256C19.569 11.3163 21.25 13.4056 21.25 15.904H22.75C22.75 12.7213 20.6066 10.0372 17.6897 9.2744L17.3103 10.7256ZM10.75 15.904C10.75 15.1399 10.907 14.4154 11.1889 13.7603L9.8111 13.1673C9.44986 14.0066 9.25 14.9327 9.25 15.904H10.75ZM11.25 18.1844C10.9297 17.4939 10.75 16.7215 10.75 15.904H9.25C9.25 16.9434 9.47888 17.9309 9.88934 18.8156L11.25 18.1844ZM16 21.25C15.3865 21.25 14.799 21.1432 14.2535 20.9473L13.7465 22.359C14.4521 22.6124 15.211 22.75 16 22.75V21.25ZM14.125 10.9088C14.3086 10.8373 14.497 10.776 14.6897 10.7256L14.3103 9.2744C14.0611 9.33954 13.8176 9.41873 13.5806 9.51105L14.125 10.9088ZM16.4503 10.2005C16.2093 10.2665 15.7861 10.2665 15.5451 10.2005L15.1488 11.6472C15.6492 11.7843 16.3461 11.7843 16.8465 11.6472L16.4503 10.2005ZM15.9977 7.75C16.0201 7.75 16.1386 7.76478 16.3142 8.00085C16.4828 8.22748 16.6281 8.56761 16.7012 8.94494C16.7749 9.32507 16.7612 9.66935 16.6867 9.90506C16.6171 10.1251 16.526 10.1797 16.4503 10.2005L16.8465 11.6472C17.5479 11.4551 17.9413 10.9128 18.1169 10.3572C18.2876 9.81728 18.2799 9.20721 18.1738 8.65959C18.0672 8.10918 17.8469 7.54817 17.5177 7.10561C17.1956 6.67248 16.684 6.25 15.9977 6.25V7.75ZM15.5451 10.2005C15.471 10.1802 15.3808 10.127 15.3121 9.90724C15.2383 9.67164 15.2255 9.3271 15.2999 8.94627C15.3737 8.56835 15.5194 8.22732 15.688 7.99996C15.8644 7.76196 15.9811 7.75 15.9977 7.75V6.25C15.3123 6.25 14.8027 6.67537 14.483 7.10665C14.1554 7.54857 13.9351 8.10878 13.8277 8.65867C13.7208 9.20565 13.7115 9.8155 13.8806 10.3555C14.0546 10.9113 14.4467 11.4549 15.1488 11.6472L15.5451 10.2005ZM16.75 7V2H15.25V7H16.75Z" fill="#141B34"/>
<path d="M6.5 10C3.91216 10.6767 2 13.0635 2 15.904C2 19.2707 4.68629 22 8 22C11.3137 22 14 19.2707 14 15.904C14 13.0635 12.0878 10.6767 9.5 10" stroke="#141B34" stroke-width="1.5" stroke-linecap="round" stroke-linejoin="round"/>
<path d="M7.99767 7C9.41527 7 10.2027 10.4981 8.6484 10.9238C8.2777 11.0254 7.71764 11.0254 7.34695 10.9238C5.79459 10.4986 6.59392 7 7.99767 7Z" stroke="#141B34" stroke-width="1.5" stroke-linecap="round" stroke-linejoin="round"/>
<path d="M8 7V2" stroke="#141B34" stroke-width="1.5" stroke-linecap="round" stroke-linejoin="round"/>
</svg>
