<svg width="24" height="24" viewBox="0 0 24 24" fill="none" xmlns="http://www.w3.org/2000/svg">
<path d="M7 17.5C7 18.8807 5.88071 20 4.5 20C3.11929 20 2 18.8807 2 17.5C2 16.1193 3.11929 15 4.5 15C5.88071 15 7 16.1193 7 17.5Z" stroke="#141B34" stroke-width="1.5"/>
<path d="M17 17.5C17 18.8807 15.8807 20 14.5 20C13.1193 20 12 18.8807 12 17.5C12 16.1193 13.1193 15 14.5 15C15.8807 15 17 16.1193 17 17.5Z" stroke="#141B34" stroke-width="1.5"/>
<path opacity="0.4" d="M4 9H5.74643C6.6103 9 7.04224 9 7.43781 9.11037C7.83828 9.22211 8.21115 9.41587 8.53276 9.67935C8.85045 9.93962 9.09871 10.2931 9.59524 11C10.0918 11.7069 10.34 12.0604 10.6577 12.3206C10.9793 12.5841 11.3522 12.7779 11.7527 12.8896C12.1482 13 12.5802 13 13.444 13H15" stroke="#141B34" stroke-width="1.5" stroke-linecap="round" stroke-linejoin="round"/>
<path opacity="0.4" d="M20.75 4C20.75 3.58579 20.4142 3.25 20 3.25C19.5858 3.25 19.25 3.58579 19.25 4H20.75ZM20.1522 16.7776L20.8452 16.4908L20.1522 16.7776ZM21.9616 18.749C22.3753 18.7702 22.7278 18.452 22.749 18.0384C22.7702 17.6247 22.452 17.2722 22.0384 17.251L21.9616 18.749ZM18 12.25C17.5858 12.25 17.25 12.5858 17.25 13C17.25 13.4142 17.5858 13.75 18 13.75V12.25ZM20 13.75C20.4142 13.75 20.75 13.4142 20.75 13C20.75 12.5858 20.4142 12.25 20 12.25V13.75ZM19.25 4V15.0106H20.75V4H19.25ZM19.25 15.0106C19.25 15.4667 19.2496 15.8463 19.2708 16.1569C19.2924 16.4743 19.339 16.7739 19.4592 17.0644L20.8452 16.4908C20.8132 16.4135 20.7837 16.296 20.7673 16.0549C20.7504 15.8072 20.75 15.4872 20.75 15.0106H19.25ZM19.4592 17.0644C19.9165 18.1694 20.9247 18.6959 21.9616 18.749L22.0384 17.251C21.4545 17.2211 21.0369 16.954 20.8452 16.4908L19.4592 17.0644ZM18 13.75H20V12.25H18V13.75Z" fill="#141B34"/>
<path d="M4 15V6C4 4.89543 4.89543 4 6 4H8.89512C9.60829 4 10.2981 4.25406 10.8409 4.71663L14.2972 7.66198C14.7431 8.04197 15 8.59836 15 9.18422V15M7 17.5H12" stroke="#141B34" stroke-width="1.5" stroke-linecap="round" stroke-linejoin="round"/>
</svg>
