<svg width="24" height="24" viewBox="0 0 24 24" fill="none" xmlns="http://www.w3.org/2000/svg">
<path d="M22 22H2" stroke="#141B34" stroke-width="1.5" stroke-linecap="round" stroke-linejoin="round"/>
<path opacity="0.5" d="M18.6251 3.99921L18.2771 4.66362L18.6251 3.99921ZM17.1459 3.22461L17.4938 2.56019V2.56019L17.1459 3.22461ZM20.25 22C20.25 22.4142 20.5858 22.75 21 22.75C21.4142 22.75 21.75 22.4142 21.75 22H20.25ZM13.7042 2.08712L13.9948 2.77852L13.7042 2.08712ZM20.6845 5.37551L20.0647 5.79781L20.0647 5.79781L20.6845 5.37551ZM21 8.75C21.4142 8.75 21.75 8.41421 21.75 8C21.75 7.58579 21.4142 7.25 21 7.25V8.75ZM19 7.25C18.5858 7.25 18.25 7.58579 18.25 8C18.25 8.41421 18.5858 8.75 19 8.75V7.25ZM21 11.75C21.4142 11.75 21.75 11.4142 21.75 11C21.75 10.5858 21.4142 10.25 21 10.25V11.75ZM19 10.25C18.5858 10.25 18.25 10.5858 18.25 11C18.25 11.4142 18.5858 11.75 19 11.75V10.25ZM21 14.75C21.4142 14.75 21.75 14.4142 21.75 14C21.75 13.5858 21.4142 13.25 21 13.25V14.75ZM19 13.25C18.5858 13.25 18.25 13.5858 18.25 14C18.25 14.4142 18.5858 14.75 19 14.75V13.25ZM18.973 3.33479L17.4938 2.56019L16.7979 3.88902L18.2771 4.66362L18.973 3.33479ZM21.75 22V7.4849H20.25V22H21.75ZM17.4938 2.56019C16.6001 2.0922 15.8655 1.70587 15.2656 1.48331C14.6638 1.26004 14.0322 1.13567 13.4135 1.39573L13.9948 2.77852C14.0804 2.74255 14.2571 2.70909 14.7439 2.88965C15.2325 3.07092 15.8666 3.40134 16.7979 3.88902L17.4938 2.56019ZM13.75 4.96746C13.75 4.07388 13.7532 3.51297 13.8251 3.13094C13.8879 2.79706 13.9644 2.79132 13.9948 2.77852L13.4135 1.39573C12.7398 1.67896 12.4642 2.25195 12.351 2.85351C12.2468 3.40692 12.25 4.13817 12.25 4.96746H13.75ZM18.2771 4.66362C18.8698 4.97398 19.2726 5.18561 19.5697 5.37471C19.8592 5.55896 19.9882 5.68565 20.0647 5.79781L21.3043 4.95321C21.0652 4.60226 20.7458 4.3452 20.3751 4.10927C20.012 3.87819 19.5429 3.63323 18.973 3.33479L18.2771 4.66362ZM21.75 7.4849C21.75 6.95352 21.7512 6.49039 21.7053 6.1039C21.6566 5.69344 21.5501 5.31402 21.3043 4.95321L20.0647 5.79781C20.1344 5.90012 20.1856 6.02663 20.2158 6.28071C20.2488 6.55876 20.25 6.91876 20.25 7.4849H21.75ZM12.25 4.96746V9H13.75V4.96746H12.25ZM21 7.25H19V8.75H21V7.25ZM21 10.25H19V11.75H21V10.25ZM21 13.25H19V14.75H21V13.25Z" fill="#141B34"/>
<path d="M8 13C8 11.1144 8 10.1716 8.58579 9.58579C9.17157 9 10.1144 9 12 9V9C13.8856 9 14.8284 9 15.4142 9.58579C16 10.1716 16 11.1144 16 13V22H8V13Z" stroke="#141B34" stroke-width="1.5" stroke-linejoin="round"/>
<path d="M11.5 13H12.5M11.5 16H12.5" stroke="#141B34" stroke-width="1.5" stroke-linecap="round"/>
<ellipse cx="3.5" cy="14" rx="1.5" ry="2" stroke="#141B34" stroke-width="1.5"/>
<path opacity="0.4" d="M3.5 16V22" stroke="#141B34" stroke-width="1.5" stroke-linecap="round"/>
</svg>
