<svg width="24" height="24" viewBox="0 0 24 24" fill="none" xmlns="http://www.w3.org/2000/svg">
<path d="M13.9068 15.135C14.4591 15.4351 15.3255 15.906 15.9182 16.4654C16.2872 16.8138 16.669 17.2999 16.7391 17.9182C16.8149 18.5872 16.5068 19.1913 15.9533 19.6997C15.0243 20.5532 13.8947 21.25 12.4295 21.25H5.57089C4.10575 21.25 2.97614 20.5532 2.04711 19.6997C1.49363 19.1913 1.18554 18.5872 1.26137 17.9182C1.33146 17.2999 1.7132 16.8138 2.08224 16.4654C2.67492 15.906 3.54126 15.4352 4.09358 15.135C4.21655 15.0682 4.32397 15.0098 4.40932 14.9608C7.22095 13.3464 10.7795 13.3464 13.5911 14.9608C13.6764 15.0098 13.7838 15.0681 13.9068 15.135Z" fill="#141B34"/>
<path d="M4.24999 7.5C4.24999 4.87665 6.37664 2.75 8.99999 2.75C11.6233 2.75 13.75 4.87665 13.75 7.5C13.75 10.1234 11.6233 12.25 8.99999 12.25C6.37664 12.25 4.24999 10.1234 4.24999 7.5Z" fill="#141B34"/>
<path d="M14.1689 11.0135C13.9874 11.2801 13.8966 11.4133 13.931 11.5452C13.9654 11.6772 14.0863 11.7374 14.3281 11.858C14.8313 12.1089 15.3988 12.25 15.9992 12.25C18.0703 12.25 19.7492 10.5711 19.7492 8.5C19.7492 6.42893 18.0703 4.75 15.9992 4.75C15.7734 4.75 15.5522 4.76997 15.3373 4.80823C15.0713 4.85561 14.9382 4.8793 14.868 4.99628C14.7977 5.11326 14.8475 5.26689 14.9469 5.57417C15.1432 6.18079 15.2492 6.82801 15.2492 7.5C15.2492 8.80269 14.8507 10.0123 14.1689 11.0135Z" fill="#141B34"/>
<path d="M18.6835 20.25C20.0355 20.25 21.0871 19.6725 21.9615 18.9515C22.4797 18.5243 22.8193 17.9741 22.7373 17.3249C22.6636 16.742 22.2696 16.308 21.9297 16.0201C21.3727 15.5483 20.5601 15.1521 20.0481 14.9025C19.935 14.8474 19.8366 14.7994 19.7588 14.7593C18.7611 14.2452 17.6635 13.9275 16.5423 13.8062C15.8192 13.728 15.4577 13.6888 15.3751 13.9048C15.2925 14.1207 15.6144 14.352 16.2583 14.8147C16.5028 14.9904 16.7393 15.1786 16.947 15.3746C17.4143 15.8157 18.0995 16.6096 18.2287 17.7493C18.2886 18.2774 18.2193 18.764 18.0633 19.2036C17.8777 19.7272 17.7848 19.989 17.8651 20.113C17.8702 20.121 17.8734 20.1254 17.8791 20.1329C17.9692 20.25 18.2073 20.25 18.6835 20.25Z" fill="#141B34"/>
</svg>
