<svg width="24" height="24" viewBox="0 0 24 24" fill="none" xmlns="http://www.w3.org/2000/svg">
<path d="M13.5459 3.79364L12.2929 5.4104C11.2216 6.79272 13.3531 8.46736 14.4395 7.07557L14.8139 6.59591C15.5066 5.70846 16.8119 5.61801 17.5969 6.40307C18.382 7.18812 18.2915 8.49338 17.4041 9.18609L16.9244 9.56049C15.5326 10.6469 17.2073 12.7784 18.5896 11.7071L20.2064 10.4541C22.4319 8.7293 22.6147 5.42276 20.596 3.40405C18.5772 1.38533 15.2707 1.56805 13.5459 3.79364Z" fill="#D4D7E0"/>
<path d="M14.8139 6.59529L14.4395 7.07496C13.7965 7.89872 12.7874 7.64827 12.2929 7.02001L3.5 16.9994C4.66667 16.8327 7 17.6994 7 20.4994L17.1255 11.8078C16.3943 11.364 16.0394 10.2507 16.9244 9.55988L17.4041 9.18547C18.2915 8.49277 18.382 7.18751 17.5969 6.40245C16.8119 5.61739 15.5066 5.70784 14.8139 6.59529Z" fill="white"/>
<circle cx="4.5" cy="19.5" r="2.5" fill="#D4D7E0"/>
<path d="M13.5459 3.79364L12.2929 5.4104C11.2216 6.79272 13.3531 8.46736 14.4395 7.07557L14.8139 6.59591C15.5066 5.70846 16.8119 5.61801 17.5969 6.40307C18.382 7.18812 18.2915 8.49338 17.4041 9.18609L16.9244 9.56049C15.5326 10.6469 17.2073 12.7784 18.5896 11.7071L20.2064 10.4541C22.4319 8.7293 22.6147 5.42276 20.596 3.40405C18.5772 1.38533 15.2707 1.56805 13.5459 3.79364Z" stroke="#141B34" stroke-width="1.5" stroke-linecap="round" stroke-linejoin="round"/>
<circle cx="4.5" cy="19.5" r="2.5" stroke="#141B34" stroke-width="1.5" stroke-linecap="round" stroke-linejoin="round"/>
<path d="M3 17.4103L12 7M6.58974 21L17 12" stroke="#141B34" stroke-width="1.5" stroke-linecap="round" stroke-linejoin="round"/>
</svg>
