<svg width="24" height="24" viewBox="0 0 24 24" fill="none" xmlns="http://www.w3.org/2000/svg">
<g opacity="0.4">
<path d="M22.25 13.3482C22.2499 13.0665 22.2498 12.9257 22.1619 12.8378C22.0741 12.75 21.933 12.75 21.6509 12.75H18.35C18.0672 12.75 17.9257 12.75 17.8379 12.8379C17.75 12.9257 17.75 13.0672 17.75 13.35V21.7259C17.75 21.8096 17.75 21.8514 17.7587 21.8867C17.7882 22.0065 17.8958 22.1004 18.0186 22.1134C18.0547 22.1172 18.0936 22.1119 18.1715 22.1012C19.2922 21.9475 20.204 21.6228 20.9225 20.8902C21.6389 20.1596 21.9547 19.2357 22.1044 18.1C22.25 16.9957 22.25 15.5851 22.25 13.8053C22.25 13.6529 22.25 13.5006 22.25 13.3482Z" fill="#141B34"/>
<path d="M15.6649 22.2436C15.9395 22.2402 16.0769 22.2385 16.1634 22.1509C16.25 22.0632 16.25 21.9247 16.25 21.6477V13.35C16.25 13.0672 16.25 12.9257 16.1621 12.8379C16.0743 12.75 15.9328 12.75 15.65 12.75H8.35C8.06716 12.75 7.92574 12.75 7.83787 12.8379C7.75 12.9257 7.75 13.0672 7.75 13.35V21.6477C7.75 21.9247 7.75 22.0632 7.83657 22.1509C7.92315 22.2385 8.06047 22.2402 8.33512 22.2436C8.86189 22.25 9.43029 22.25 10.0428 22.25H13.9572C14.5697 22.25 15.1381 22.25 15.6649 22.2436Z" fill="#141B34"/>
<path d="M5.8285 22.1012C5.90635 22.1119 5.94528 22.1172 5.98144 22.1134C6.10416 22.1004 6.21183 22.0065 6.24131 21.8867C6.25 21.8514 6.25 21.8096 6.25 21.7259V13.35C6.25 13.0672 6.25 12.9257 6.16213 12.8379C6.07427 12.75 5.93284 12.75 5.65 12.75H2.34911C2.06698 12.75 1.92591 12.75 1.83805 12.8378C1.75019 12.9257 1.75014 13.0665 1.75004 13.3482C1.74998 13.5006 1.75 13.6529 1.75 13.8053C1.74999 15.5851 1.74997 16.9957 1.89556 18.1C2.0453 19.2357 2.36106 20.1596 3.07751 20.8902C3.79596 21.6228 4.70783 21.9475 5.8285 22.1012Z" fill="#141B34"/>
</g>
<path d="M13.9567 5.25H10.0424C8.29956 5.24998 6.91375 5.24997 5.82803 5.39882C4.70736 5.55247 3.79549 5.87721 3.07704 6.60984C2.36059 7.34043 2.04483 8.26429 1.89509 9.40004C1.84563 9.77522 1.81297 10.1858 1.79141 10.6342C1.77763 10.9207 1.77074 11.064 1.8594 11.157C1.94806 11.25 2.09374 11.25 2.3851 11.25H21.614C21.9053 11.25 22.051 11.25 22.1397 11.157C22.2283 11.064 22.2214 10.9207 22.2077 10.6342C22.1861 10.1858 22.1534 9.77522 22.104 9.40004C21.9542 8.26429 21.6385 7.34043 20.922 6.60984C20.2036 5.87721 19.2917 5.55247 18.171 5.39882C17.0853 5.24997 15.6995 5.24998 13.9567 5.25Z" fill="#141B34"/>
<path fill-rule="evenodd" clip-rule="evenodd" d="M11.813 1.5C11.9377 1.50001 12.0629 1.50001 12.1867 1.5C12.9222 1.49996 13.5595 1.49993 14.0837 1.56199C14.6489 1.6289 15.1823 1.77685 15.6675 2.13946C16.1496 2.4998 16.4474 2.97026 16.6824 3.49404C16.9027 3.98515 17.1027 4.6075 17.3363 5.33434L17.4519 5.69399L15.5479 6.30601L15.4485 5.99695C15.1941 5.20549 15.027 4.6903 14.8576 4.31263C14.6977 3.95628 14.5772 3.82151 14.4701 3.74142C14.366 3.6636 14.2135 3.59132 13.8486 3.54812C13.4559 3.50163 12.938 3.5 12.1315 3.5H11.8683C11.0617 3.5 10.5439 3.50163 10.1512 3.54812C9.7863 3.59132 9.6338 3.6636 9.52968 3.74142C9.42253 3.82151 9.30203 3.95628 9.14217 4.31263C8.97275 4.6903 8.80565 5.20549 8.55125 5.99695L8.45191 6.30601L6.54785 5.69399C6.58639 5.57411 6.62492 5.45422 6.66345 5.33434C6.89705 4.6075 7.09706 3.98515 7.31737 3.49404C7.55233 2.97026 7.85021 2.4998 8.3323 2.13946C8.81743 1.77685 9.35089 1.6289 9.91602 1.56199C10.4402 1.49993 11.0776 1.49996 11.813 1.5Z" fill="#141B34"/>
</svg>
