<svg width="24" height="24" viewBox="0 0 24 24" fill="none" xmlns="http://www.w3.org/2000/svg">
<path opacity="0.4" d="M3.5 10.5C3.08579 10.5 2.75 10.8358 2.75 11.25L2.75 13.5536C2.74999 15.3938 2.74998 16.8471 2.89429 17.9836C3.0422 19.1485 3.35321 20.0937 4.06123 20.8434C4.77496 21.5991 5.68459 21.9366 6.80461 22.0961C7.88619 22.25 9.26578 22.25 10.9965 22.25H13.0034C14.7342 22.25 16.1138 22.25 17.1954 22.0961C18.3154 21.9366 19.225 21.5991 19.9388 20.8434C20.6468 20.0937 20.9578 19.1485 21.1057 17.9836C21.25 16.8471 21.25 15.3938 21.25 13.5536V11.25C21.25 10.8358 20.9142 10.5 20.5 10.5H3.5Z" fill="#141B34"/>
<path d="M3.38028 5.82013C3.66323 5.7494 3.99371 5.74969 4.38985 5.75005H19.6107C20.0069 5.74969 20.3373 5.7494 20.6203 5.82013C21.4294 6.02236 22.0918 6.6558 22.2295 7.50124C22.2771 7.79361 22.2313 8.11991 22.1832 8.46275C22.0688 9.28584 22.0065 10.1551 21.6879 10.9306C21.0194 12.558 19.5112 13.7367 17.7113 14.118C17.1869 14.2291 16.5986 14.2468 15.7221 14.2496C15.5221 14.2502 15.4221 14.2506 15.3633 14.1919C15.3045 14.1332 15.3046 14.0286 15.3048 13.8194C15.305 13.6345 15.3003 13.4494 15.3004 13.2654C15.3014 13.0376 15.3028 12.7073 15.2218 12.4049C15.0091 11.6112 14.3891 10.9912 13.5954 10.7785C13.2927 10.6974 12.9778 10.6992 12.6668 10.7002H11.3335C11.0225 10.6992 10.7077 10.6974 10.4049 10.7785C9.61116 10.9912 8.9912 11.6112 8.77852 12.4049C8.69748 12.7073 8.69894 13.0376 8.69995 13.2654C8.7 13.4494 8.69527 13.6345 8.69547 13.8194C8.6957 14.0286 8.69581 14.1332 8.63699 14.1919C8.57818 14.2506 8.47817 14.2502 8.27816 14.2496C7.40182 14.2468 6.81359 14.2291 6.28921 14.118C4.4894 13.7367 2.98113 12.558 2.31263 10.9306C1.99406 10.1551 1.93174 9.28583 1.81735 8.46274C1.76924 8.11991 1.72346 7.7936 1.77107 7.50124C1.90875 6.6558 2.57119 6.02236 3.38028 5.82013Z" fill="#141B34"/>
<path fill-rule="evenodd" clip-rule="evenodd" d="M11.8306 1.50001C11.9438 1.50004 12.0572 1.50004 12.1701 1.50001C12.7204 1.49988 13.2528 1.49976 13.7011 1.57774C14.2294 1.66965 14.716 1.87907 15.1267 2.33013C15.5047 2.74536 15.7205 3.25975 15.8891 3.81184C16.0545 4.35377 16.2061 5.04679 16.3908 5.89118L16.4772 6.28632L14.5234 6.71372L14.4462 6.3605C14.25 5.46386 14.1151 4.85081 13.9762 4.39582C13.8377 3.94205 13.7281 3.76475 13.6478 3.67662C13.6002 3.62432 13.5533 3.58207 13.3583 3.54814C13.1015 3.50347 12.7461 3.50002 12.1027 3.50002H11.898C11.2546 3.50002 10.8992 3.50347 10.6424 3.54814C10.4474 3.58207 10.4005 3.62432 10.3528 3.67662C10.2726 3.76475 10.163 3.94205 10.0245 4.39582C9.88555 4.85081 9.75064 5.46386 9.5545 6.3605L9.47724 6.71372L7.52344 6.28632L7.60987 5.89119C7.79457 5.0468 7.94616 4.35378 8.11161 3.81184C8.28016 3.25975 8.49594 2.74536 8.874 2.33013C9.28469 1.87907 9.77132 1.66965 10.2996 1.57774C10.7479 1.49976 11.2803 1.49988 11.8306 1.50001Z" fill="#141B34"/>
<path d="M10 13.3333C10 13.0233 10 12.8683 10.0341 12.7412C10.1265 12.3961 10.3961 12.1265 10.7412 12.0341C10.8683 12 11.0233 12 11.3333 12H12.6667C12.9767 12 13.1317 12 13.2588 12.0341C13.6039 12.1265 13.8735 12.3961 13.9659 12.7412C14 12.8683 14 13.0233 14 13.3333V14C14 15.1046 13.1046 16 12 16C10.8954 16 10 15.1046 10 14V13.3333Z" fill="#141B34"/>
</svg>
