<svg width="24" height="24" viewBox="0 0 24 24" fill="none" xmlns="http://www.w3.org/2000/svg">
<path opacity="0.4" d="M17 11.9704C17 12.5227 16.5523 12.9704 16 12.9704C15.8317 12.9704 15.6731 12.9288 15.534 12.8554C15.5111 12.8433 15.4905 12.8273 15.4722 12.809L14.1691 11.5114C14.0614 11.4041 13.8905 11.3947 13.7699 11.4872C11.3517 13.3419 8.86906 14.2442 6.80221 14.6632C5.38162 14.9512 4.15786 15.0112 3.28343 14.9984C2.99981 14.9943 2.7523 14.9825 2.546 14.9683C2.38071 14.9569 2.25994 14.81 2.27581 14.6451L2.40992 13.2515C2.4258 13.0866 2.5723 12.9661 2.73765 12.9766C2.89936 12.9869 3.09216 12.9954 3.31251 12.9986C4.07066 13.0097 5.14868 12.9577 6.40486 12.7031C8.14248 12.3508 10.2218 11.6114 12.277 10.1066C12.4234 9.99939 12.4373 9.78692 12.3087 9.65883L11.151 8.50604C11.1303 8.48541 11.1124 8.462 11.0996 8.43568C11.0358 8.30399 11 8.15619 11 8.00001C11 7.44773 11.4477 7.00001 12 7.00001L14.0541 7.00001C14.4784 6.99993 14.8901 6.99985 15.2295 7.04514C15.6114 7.0961 16.0481 7.2202 16.4116 7.58101C16.7761 7.94284 16.9025 8.37929 16.9543 8.76183C17.0002 9.10024 17.0001 9.51023 17 9.93069L17 11.9704Z" fill="#141B34"/>
<path opacity="0.4" fill-rule="evenodd" clip-rule="evenodd" d="M15.75 1.25C16.3023 1.25 16.75 1.69772 16.75 2.25V3.63462C16.75 4.1869 16.3023 4.63462 15.75 4.63462C15.1977 4.63462 14.75 4.1869 14.75 3.63462V2.25C14.75 1.69772 15.1977 1.25 15.75 1.25ZM21.0647 2.92695C21.4555 3.31717 21.456 3.95033 21.0658 4.34116L20.0883 5.32024C19.698 5.71107 19.0649 5.71157 18.674 5.32135C18.2832 4.93113 18.2827 4.29797 18.6729 3.90714L19.6505 2.92807C20.0407 2.53723 20.6738 2.53673 21.0647 2.92695ZM19.3676 8.25C19.3676 7.69772 19.8153 7.25 20.3676 7.25H21.75C22.3023 7.25 22.75 7.69772 22.75 8.25C22.75 8.80228 22.3023 9.25 21.75 9.25H20.3676C19.8153 9.25 19.3676 8.80228 19.3676 8.25Z" fill="#141B34"/>
<path fill-rule="evenodd" clip-rule="evenodd" d="M12 3.20455C7.1424 3.20455 3.20455 7.1424 3.20455 12C3.20455 16.8576 7.1424 20.7955 12 20.7955C16.8576 20.7955 20.7955 16.8576 20.7955 12C20.7955 11.4603 21.233 11.0227 21.7727 11.0227C22.3125 11.0227 22.75 11.4603 22.75 12C22.75 17.9371 17.9371 22.75 12 22.75C6.06294 22.75 1.25 17.9371 1.25 12C1.25 6.06294 6.06294 1.25 12 1.25C12.5397 1.25 12.9773 1.68754 12.9773 2.22727C12.9773 2.76701 12.5397 3.20455 12 3.20455Z" fill="#141B34"/>
</svg>
