<svg width="24" height="24" viewBox="0 0 24 24" fill="none" xmlns="http://www.w3.org/2000/svg">
<path fill-rule="evenodd" clip-rule="evenodd" d="M17.75 10.7498C18.3023 10.7498 18.75 11.1975 18.75 11.7498V12.0043C19.8689 12.3317 20.7813 13.1983 20.9963 14.3755C21.0955 14.9188 20.7355 15.4397 20.1922 15.5389C19.6489 15.6381 19.128 15.2781 19.0288 14.7348C18.9545 14.3281 18.4925 13.8611 17.75 13.8611C16.9126 13.8611 16.4583 14.4325 16.4583 14.8775C16.4583 15.2436 16.5526 15.3373 16.6055 15.3798C16.708 15.4622 17.0052 15.6059 17.75 15.6059C18.6617 15.6059 19.5595 15.7563 20.2389 16.2847C20.9745 16.8568 21.25 17.7035 21.25 18.6224C21.25 19.6399 20.8344 20.4577 20.1001 20.9837C19.6954 21.2736 19.2298 21.4497 18.75 21.5453V21.7498C18.75 22.302 18.3023 22.7498 17.75 22.7498C17.1977 22.7498 16.75 22.302 16.75 21.7498V21.5099C15.4025 21.1598 14.25 20.1164 14.25 18.6224C14.25 18.0701 14.6977 17.6224 15.25 17.6224C15.8023 17.6224 16.25 18.0701 16.25 18.6224C16.25 18.9938 16.7101 19.6389 17.75 19.6389C18.3239 19.6389 18.715 19.5157 18.9354 19.3578C19.1059 19.2357 19.25 19.0452 19.25 18.6224C19.25 18.1009 19.1089 17.9395 19.0111 17.8634C18.8571 17.7437 18.505 17.6059 17.75 17.6059C16.8281 17.6059 15.9795 17.4423 15.3529 16.939C14.6765 16.3956 14.4583 15.6252 14.4583 14.8775C14.4583 13.4544 15.4771 12.3807 16.75 12.0058V11.7498C16.75 11.1975 17.1977 10.7498 17.75 10.7498Z" fill="#141B34"/>
<path opacity="0.4" d="M11.1839 22.7498C9.59005 22.7498 8.33489 22.7498 7.33912 22.646C6.32238 22.5401 5.48632 22.319 4.7711 21.8151C4.3893 21.5461 4.04882 21.226 3.76073 20.8638C3.21584 20.1787 2.97549 19.3732 2.8611 18.401C2.74998 17.4566 2.74999 16.2691 2.75 14.7752V12.1541C2.75 10.6957 2.75 9.56414 2.81024 8.65078C2.87131 7.72497 2.99655 6.97154 3.27169 6.27724C4.10981 4.16235 5.87464 2.51115 8.08994 1.73349C9.46882 1.24945 11.1607 1.24957 14.1261 1.24979L14.4888 1.24978C16.124 1.24944 17.143 1.24923 17.9836 1.54434C19.3327 2.01792 20.4143 3.02603 20.9293 4.32563C21.1039 4.76637 21.1789 5.23427 21.2149 5.7792C21.25 6.31174 21.25 6.96737 21.25 7.79163V8.99881C21.25 9.55162 20.8019 9.99976 20.2491 9.99976C19.6969 9.99976 19.2491 9.55271 19.2481 9.0006L19.2463 7.99976C19.2275 5.98349 19.1096 4.86689 18.3712 4.12848C17.4925 3.2498 16.0783 3.2498 13.2499 3.2498H12.9555C12.4509 3.2498 12.1985 3.2498 11.8592 3.43795C11.5199 3.6261 11.449 3.73958 11.3072 3.96654C11.0596 4.36294 10.9166 4.83133 10.9166 5.33313C10.9166 5.48026 10.923 5.63844 10.9313 5.81604L10.9344 5.88192C10.9416 6.03681 10.9496 6.20539 10.9531 6.3735C10.9609 6.75359 10.9489 7.19713 10.8342 7.62528C10.6108 8.45925 9.95935 9.11066 9.12538 9.33412C8.69723 9.44884 8.25369 9.46085 7.8736 9.45295C7.70546 9.44946 7.53687 9.44154 7.38195 9.43426L7.31614 9.43118C7.13854 9.42294 6.98036 9.41647 6.83323 9.41647C6.35217 9.41647 5.90182 9.54796 5.51616 9.77696C5.28124 9.91645 5.16378 9.9862 4.96739 10.3312C4.771 10.6763 4.771 10.9341 4.771 11.4498V14.7498C4.771 17.5783 4.771 18.9925 5.64968 19.8712C6.52836 20.7498 7.94257 20.7498 10.771 20.7498L12.5008 20.7498C13.0526 20.7498 13.5 21.1972 13.5 21.7491C13.5 22.3005 13.0533 22.7476 12.5019 22.7483L11.1839 22.7498Z" fill="#141B34"/>
</svg>
