<svg width="24" height="24" viewBox="0 0 24 24" fill="none" xmlns="http://www.w3.org/2000/svg">
<path fill-rule="evenodd" clip-rule="evenodd" d="M18.375 12.875C18.9273 12.875 19.375 13.3227 19.375 13.875V16.375H21.875C22.4273 16.375 22.875 16.8227 22.875 17.375C22.875 17.9273 22.4273 18.375 21.875 18.375H19.375V20.875C19.375 21.4273 18.9273 21.875 18.375 21.875C17.8227 21.875 17.375 21.4273 17.375 20.875L17.375 18.375H14.875C14.3227 18.375 13.875 17.9273 13.875 17.375C13.875 16.8227 14.3227 16.375 14.875 16.375H17.375L17.375 13.875C17.375 13.3227 17.8227 12.875 18.375 12.875Z" fill="#141B34"/>
<path opacity="0.4" d="M11.5576 3.19546C13.0048 2.51954 14.8665 2.125 16.875 2.125C17.9948 2.125 19.0655 2.24757 20.0424 2.47133C20.9595 2.68137 21.6575 3.08717 22.0968 3.76245C22.5178 4.40953 22.625 5.19212 22.625 5.98897V14.2278C22.625 14.5298 22.625 14.6808 22.5586 14.7632C22.5425 14.7832 22.5332 14.7925 22.5132 14.8086C22.4308 14.875 22.2456 14.875 21.875 14.875H21.475C21.1922 14.875 21.0507 14.875 20.9629 14.7871C20.875 14.6993 20.875 14.5578 20.875 14.275V13.875C20.875 12.4943 19.7557 11.375 18.375 11.375C16.9943 11.375 15.875 12.4943 15.875 13.875V14.275C15.875 14.5578 15.875 14.6993 15.7871 14.7871C15.6993 14.875 15.5578 14.875 15.275 14.875H14.875C13.4943 14.875 12.375 15.9943 12.375 17.375C12.375 17.7261 12.4474 18.0603 12.578 18.3635C12.7756 18.8219 12.8744 19.0511 12.8308 19.165C12.7873 19.2789 12.596 19.3675 12.2133 19.5448C12.2063 19.5481 12.1993 19.5513 12.1924 19.5545C10.7452 20.2305 8.88349 20.625 6.875 20.625C5.75516 20.625 4.68449 20.5024 3.70755 20.2787C2.83189 20.0781 2.14024 19.6861 1.69144 19.0238C1.25742 18.3832 1.125 17.5966 1.125 16.761V5.98897C1.125 4.42178 2.716 3.51272 4.04245 3.81653C4.90489 4.01407 5.863 4.125 6.875 4.125C8.70065 4.125 10.3398 3.76427 11.5576 3.19546Z" fill="#141B34"/>
<path d="M8.625 11.375C8.625 9.58007 10.0801 8.125 11.875 8.125C13.6699 8.125 15.125 9.58007 15.125 11.375C15.125 13.1699 13.6699 14.625 11.875 14.625C10.0801 14.625 8.625 13.1699 8.625 11.375Z" fill="#141B34"/>
<path fill-rule="evenodd" clip-rule="evenodd" d="M5.375 11.375C5.92728 11.375 6.375 11.8227 6.375 12.375V12.384C6.375 12.9363 5.92728 13.384 5.375 13.384C4.82272 13.384 4.375 12.9363 4.375 12.384L4.375 12.375C4.375 11.8227 4.82272 11.375 5.375 11.375Z" fill="#141B34"/>
</svg>
