<svg width="24" height="24" viewBox="0 0 24 24" fill="none" xmlns="http://www.w3.org/2000/svg">
<path fill-rule="evenodd" clip-rule="evenodd" d="M1.29289 1.29289C1.68342 0.902369 2.31658 0.902369 2.70711 1.29289L22.7071 21.2929C23.0976 21.6834 23.0976 22.3166 22.7071 22.7071C22.3166 23.0976 21.6834 23.0976 21.2929 22.7071L1.29289 2.70711C0.902369 2.31658 0.902369 1.68342 1.29289 1.29289Z" fill="#141B34"/>
<path opacity="0.4" d="M18.7079 5.14068C18.7624 5.3437 18.7947 5.55946 18.8138 5.79625C18.8264 5.95212 18.8327 6.03005 18.8604 6.08367C18.8884 6.1377 18.9226 6.17376 18.975 6.20454C19.0271 6.23509 19.1036 6.24534 19.2565 6.26586C20.1633 6.38748 20.9641 6.65265 21.6053 7.29235C22.2465 7.93206 22.5122 8.73099 22.6342 9.63562C22.7503 10.4973 22.7502 11.586 22.7502 12.9063V14.9938C22.7502 16.3141 22.7503 17.4028 22.6342 18.2645C22.6168 18.3936 22.608 18.4582 22.5779 18.5099C22.5066 18.6321 22.3351 18.69 22.2044 18.6361C22.149 18.6132 22.0981 18.5624 21.9964 18.4607L18.9321 15.3963C19.2836 15.0359 19.5002 14.5432 19.5002 14C19.5002 12.8954 18.6048 12 17.5002 12C16.957 12 16.4643 12.2166 16.1039 12.5681L10.7101 7.17433C10.2742 6.73841 10.0562 6.52045 10.1329 6.33526C10.2096 6.15006 10.5179 6.15006 11.1343 6.15006L16.3661 6.15017C16.5576 6.15033 16.6534 6.15042 16.7284 6.10127C16.7781 6.06866 16.8302 6.0008 16.8489 5.94428C16.8769 5.85912 16.8578 5.78787 16.8195 5.64537C16.6388 4.97244 16.112 4.44683 15.4375 4.26652C15.2202 4.20845 14.9261 4.20007 13.9543 4.20007H7.98434C7.86172 4.20007 7.80041 4.20007 7.74527 4.17724C7.69014 4.1544 7.64679 4.11105 7.56008 4.02434L6.81009 3.27434C6.37417 2.83843 6.15621 2.62047 6.23292 2.43528C6.30963 2.25008 6.61787 2.25008 7.23435 2.25008L14.0892 2.25005C14.8665 2.24963 15.4438 2.24931 15.9438 2.38298C17.2928 2.7436 18.3465 3.79483 18.7079 5.14068Z" fill="#141B34"/>
<path d="M1.25 13.0466V5.17534C1.25 4.28015 1.65308 3.4789 2.28804 2.94236C2.44347 2.81102 2.52118 2.74536 2.63804 2.75026C2.7549 2.75516 2.83688 2.83713 3.00083 3.00109L4.18685 4.18711C4.19173 4.19199 4.18828 4.20033 4.18138 4.20033C3.64164 4.20033 3.2041 4.63685 3.2041 5.17533C3.2041 5.7138 3.64164 6.15032 4.18138 6.15032H5.90154C6.02416 6.15032 6.08547 6.15032 6.1406 6.17316C6.19574 6.19599 6.23909 6.23935 6.3258 6.32606L20.5172 20.5175C20.7675 20.7678 20.8927 20.8929 20.8567 21.0539C20.8207 21.2148 20.6713 21.2686 20.3725 21.3762C20.0233 21.5019 19.6498 21.5817 19.2563 21.6345C18.3927 21.7503 17.3014 21.7503 15.978 21.7503H9.97398C8.19196 21.7503 6.75559 21.7503 5.6259 21.5988C4.45303 21.4415 3.4655 21.1049 2.68119 20.3224C1.89687 19.5399 1.55952 18.5547 1.40184 17.3846C1.24996 16.2575 1.24998 14.8245 1.25 13.0466Z" fill="#141B34"/>
</svg>
