<svg width="24" height="24" viewBox="0 0 24 24" fill="none" xmlns="http://www.w3.org/2000/svg">
<path fill-rule="evenodd" clip-rule="evenodd" d="M16.8865 6.22921C16.3057 6.30525 15.552 6.50308 14.4264 6.80154L10.5372 7.83274C9.41141 8.13122 8.65892 8.33273 8.11776 8.55413C7.59916 8.7663 7.41583 8.94289 7.31606 9.10885C7.2199 9.2688 7.15516 9.49401 7.2211 10.0146C7.29104 10.5669 7.4833 11.2854 7.77795 12.3735L9.19941 17.6229C9.49402 18.7109 9.69062 19.4284 9.90921 19.9415C10.1151 20.425 10.2863 20.5915 10.4553 20.6851C10.6302 20.782 10.8816 20.8436 11.4377 20.7708C12.0185 20.6948 12.7721 20.4969 13.8978 20.1985L15.6585 19.7316C15.6637 19.7007 15.6691 19.669 15.6747 19.6364C15.751 19.1921 15.8674 18.588 16.0271 17.9595C16.1851 17.338 16.3941 16.6574 16.6645 16.0761C16.907 15.5545 17.3062 14.8681 17.9685 14.5629C18.8648 14.1497 19.8015 14.2761 20.5107 14.4954L19.1248 9.37713C18.8301 8.28914 18.6335 7.57158 18.415 7.05846C18.209 6.57504 18.0378 6.40854 17.8689 6.31491C17.694 6.21798 17.4426 6.1564 16.8865 6.22921ZM20.2416 16.4655C20.2378 16.4639 20.2339 16.4624 20.2301 16.4608C19.6457 16.2253 19.133 16.1698 18.7815 16.3319C18.7853 16.3301 18.784 16.3314 18.7778 16.3374C18.7488 16.3659 18.6126 16.4994 18.4271 16.8983C18.2303 17.3214 18.0565 17.8695 17.9115 18.4398C17.9082 18.4528 17.905 18.4657 17.9017 18.4786L19.8637 16.7926C20.0108 16.6661 20.1353 16.5589 20.2416 16.4655ZM16.6344 4.29826C17.3938 4.19883 18.1234 4.23027 18.8104 4.61105C19.5034 4.99513 19.9067 5.59775 20.2034 6.29428C20.4815 6.94693 20.7117 7.79728 20.9836 8.80167L22.44 14.18C22.5523 14.5946 22.6558 14.9765 22.7083 15.3071C22.7665 15.673 22.7779 16.0572 22.6492 16.4638C22.5212 16.868 22.2919 17.1771 22.0368 17.4459C21.8036 17.6916 21.4983 17.9539 21.1623 18.2426L18.4623 20.5628C18.4462 20.5767 18.4302 20.5905 18.4142 20.6042C18.1791 20.8067 17.9546 21 17.6887 21.1396C17.4239 21.2787 17.1367 21.3545 16.8343 21.4344C16.8137 21.4398 16.793 21.4453 16.7723 21.4508L14.333 22.0975C13.2862 22.3751 12.4102 22.6074 11.6898 22.7017C10.9303 22.8012 10.2008 22.7697 9.51376 22.389C8.82078 22.0049 8.41744 21.4022 8.12072 20.7057C7.84269 20.0531 7.61247 19.2027 7.34054 18.1983L5.88341 12.8172C5.61145 11.8131 5.38113 10.9627 5.2921 10.2597C5.19712 9.50974 5.24132 8.78461 5.65021 8.10441C6.0555 7.43023 6.67471 7.04091 7.38243 6.75137C8.05422 6.47653 8.93023 6.24429 9.97686 5.96683C9.99768 5.96131 10.0186 5.95577 10.0395 5.95022L13.9912 4.90246C15.038 4.62487 15.9139 4.39259 16.6344 4.29826Z" fill="#141B34"/>
<path d="M11.7701 1.26467C12.9771 1.26822 13.955 1.27109 14.7255 1.37194C15.5252 1.47659 16.2131 1.69848 16.7656 2.22448C17.4939 2.9178 17.6823 3.84943 17.7487 4.95632C17.7692 5.29763 17.5563 5.60959 17.231 5.71484L8.03405 7.98057C7.08101 8.21535 6.6045 8.33275 6.39157 8.70309C6.17864 9.07343 6.31693 9.54431 6.5935 10.4861L8.7614 17.8679C8.80061 18.0868 8.74061 18.3119 8.59761 18.4822C8.45461 18.6526 8.24336 18.7507 8.02093 18.7501L7.28831 18.7479C6.08137 18.7444 5.10345 18.7415 4.3329 18.6406C3.53322 18.536 2.84533 18.3141 2.2928 17.7881C1.73513 17.2572 1.49507 16.5879 1.3828 15.8097C1.27596 15.0691 1.27311 14.1321 1.26964 12.989L1.25123 6.98349C1.2477 5.84061 1.24481 4.90357 1.34713 4.16344C1.45463 3.38584 1.6909 2.71508 2.24841 2.18454C2.80064 1.65903 3.48984 1.44102 4.2887 1.34111C5.0588 1.2448 6.03676 1.24771 7.24354 1.2513L11.7701 1.26467Z" fill="#141B34"/>
</svg>
