<svg width="25" height="24" viewBox="0 0 25 24" fill="none" xmlns="http://www.w3.org/2000/svg">
<path d="M15.2323 1.92129C15.2705 1.61164 15.2896 1.45681 15.2007 1.35564C15.1117 1.25448 14.9567 1.25362 14.6467 1.2519C14.3015 1.24999 13.9388 1.25 13.5581 1.25H10.4415C10.0617 1.25 9.69996 1.24999 9.35558 1.25189C9.04725 1.25359 8.89309 1.25444 8.8042 1.3549C8.71532 1.45536 8.73336 1.60943 8.76944 1.91759L8.82451 2.38786C8.92576 2.99518 8.99242 3.38484 9.07748 3.67052C9.15739 3.93895 9.22879 4.02428 9.28543 4.07226C9.34207 4.12025 9.43798 4.17665 9.71589 4.21134C10.0146 4.24864 10.4148 4.25 11.0409 4.25H12.9581C13.5843 4.25 13.9845 4.24864 14.2832 4.21134C14.5611 4.17665 14.657 4.12025 14.7136 4.07226C14.7703 4.02428 14.8417 3.93895 14.9216 3.67053C15.0067 3.38447 15.0735 2.99418 15.1749 2.38553L15.2323 1.92129Z" fill="#141B34"/>
<path fill-rule="evenodd" clip-rule="evenodd" d="M7.10943 1.40771C7.20878 1.48485 7.22491 1.6226 7.25717 1.89811L7.33705 2.58024L7.3418 2.60876C7.43374 3.16068 7.52624 3.71599 7.64008 4.09834C7.76484 4.5174 7.95313 4.90912 8.31611 5.21661C8.67908 5.52409 9.09643 5.64543 9.5303 5.6996C9.93298 5.74987 10.4279 5.74985 10.9969 5.74981H13.0026C13.5716 5.74985 14.0665 5.74987 14.4692 5.6996C14.9031 5.64543 15.3204 5.52409 15.6834 5.21661C16.0464 4.90912 16.2347 4.5174 16.3594 4.09834C16.4737 3.71447 16.566 3.16066 16.6583 2.6067L16.6583 2.60668L16.6583 2.60666L16.6619 2.58493L16.7471 1.89498C16.7809 1.62114 16.7978 1.48421 16.897 1.40772C16.9962 1.33124 17.1276 1.34898 17.3903 1.38446L17.4455 1.3921C18.4891 1.53978 19.3453 1.85359 20.0186 2.56233C20.6868 3.26565 20.9779 4.15098 21.1158 5.23063C21.25 6.28142 21.25 7.62336 21.25 9.31469V14.6849C21.25 16.3763 21.25 17.7182 21.1158 18.769C20.9779 19.8486 20.6868 20.734 20.0186 21.4373C19.3453 22.146 18.4891 22.4598 17.4455 22.6075C16.4399 22.7499 15.1587 22.7498 13.5583 22.7498H10.4417C8.84128 22.7498 7.5601 22.7499 6.55446 22.6075C5.51094 22.4598 4.65468 22.146 3.98138 21.4373C3.31322 20.734 3.02208 19.8486 2.88419 18.769C2.74998 17.7182 2.74999 16.3763 2.75 14.685V14.6849V14.6849V9.31467V9.31466V9.31466C2.74999 7.62334 2.74998 6.28142 2.88419 5.23063C3.02208 4.15098 3.31322 3.26565 3.98138 2.56233C4.65468 1.85359 5.51094 1.53978 6.55446 1.3921L6.61383 1.3839C6.878 1.34835 7.01009 1.33057 7.10943 1.40771ZM12.752 10.9998C12.752 10.5855 13.0877 10.2498 13.502 10.2498H17.002C17.4162 10.2498 17.752 10.5855 17.752 10.9998C17.752 11.414 17.4162 11.7498 17.002 11.7498H13.502C13.0877 11.7498 12.752 11.414 12.752 10.9998ZM11.2523 10.7067C11.6428 10.5684 11.8472 10.1398 11.7089 9.74933C11.5706 9.35888 11.142 9.15446 10.7516 9.29275C10.2694 9.4635 9.82187 9.78335 9.4431 10.1155C9.05657 10.4545 8.69822 10.8453 8.39663 11.2068C8.25048 11.382 8.11549 11.5529 7.9948 11.7114C7.90659 11.6289 7.81819 11.5592 7.73048 11.5007C7.57155 11.3947 7.42249 11.3309 7.29393 11.2942L7.27143 11.2876C7.20944 11.2691 7.12504 11.244 7.00195 11.2497C6.58774 11.2497 6.25195 11.5855 6.25195 11.9997C6.25195 12.3744 6.52676 12.685 6.88583 12.7408C6.88941 12.7429 6.89361 12.7455 6.89843 12.7488C6.95413 12.7859 7.12562 12.9241 7.33113 13.3351C7.45202 13.5769 7.69365 13.7349 7.9636 13.7487C8.23349 13.7626 8.4902 13.6297 8.63517 13.4016C8.67806 13.3373 8.80376 13.1487 8.8849 13.0338C9.04771 12.8031 9.27796 12.4919 9.54846 12.1677C9.8204 11.8417 10.1238 11.5137 10.4321 11.2433C10.7482 10.9661 11.0286 10.7859 11.2523 10.7067ZM12.752 16.9998C12.752 16.5855 13.0877 16.2498 13.502 16.2498H17.002C17.4162 16.2498 17.752 16.5855 17.752 16.9998C17.752 17.414 17.4162 17.7498 17.002 17.7498H13.502C13.0877 17.7498 12.752 17.414 12.752 16.9998ZM8.00195 15.9998C7.44967 15.9998 7.00195 16.4475 7.00195 16.9998C7.00195 17.552 7.44967 17.9998 8.00195 17.9998H9.00195C9.55424 17.9998 10.002 17.552 10.002 16.9998C10.002 16.4475 9.55424 15.9998 9.00195 15.9998H8.00195Z" fill="#141B34"/>
</svg>
