<svg width="24" height="24" viewBox="0 0 24 24" fill="none" xmlns="http://www.w3.org/2000/svg">
<path d="M13.8257 1.23064C13.9146 1.33181 13.8955 1.48664 13.8572 1.79629L13.7999 2.26053C13.6984 2.86918 13.6317 3.25947 13.5466 3.54553C13.4667 3.81395 13.3953 3.89928 13.3386 3.94726C13.282 3.99525 13.1861 4.05165 12.9082 4.08634C12.6095 4.12364 12.2093 4.125 11.5831 4.125H9.6659C9.03977 4.125 8.63958 4.12364 8.34089 4.08634C8.06298 4.05165 7.96707 3.99525 7.91043 3.94726C7.85379 3.89928 7.78239 3.81395 7.70248 3.54552C7.61742 3.25984 7.55076 2.87018 7.44951 2.26286L7.39444 1.79259C7.35836 1.48443 7.34032 1.33036 7.4292 1.2299C7.51809 1.12944 7.67225 1.12859 7.98058 1.12689C8.32496 1.12499 8.68672 1.125 9.06646 1.125H12.183C12.5638 1.125 12.9265 1.12499 13.2717 1.1269C13.5817 1.12862 13.7367 1.12948 13.8257 1.23064Z" fill="#141B34"/>
<path fill-rule="evenodd" clip-rule="evenodd" d="M5.73444 1.28271C5.83378 1.35985 5.84991 1.4976 5.88218 1.77311L5.96205 2.45524L5.96681 2.48378C6.05874 3.03569 6.15125 3.59099 6.26508 3.97334C6.38984 4.3924 6.57813 4.78412 6.94111 5.09161C7.30409 5.39909 7.72143 5.52043 8.1553 5.5746C8.55798 5.62487 9.05289 5.62485 9.62188 5.62481H11.6276C12.1966 5.62485 12.6915 5.62487 13.0942 5.5746C13.5281 5.52043 13.9454 5.39909 14.3084 5.09161C14.6714 4.78412 14.8597 4.3924 14.9844 3.97334C15.0987 3.58946 15.191 3.03576 15.2833 2.48178L15.2869 2.45993L15.3721 1.76998C15.4059 1.49614 15.4228 1.35921 15.522 1.28272C15.6212 1.20624 15.7526 1.22398 16.0153 1.25946L16.0705 1.2671C17.1141 1.41478 17.9703 1.72859 18.6436 2.43733C19.3118 3.14065 19.6029 4.02598 19.7408 5.10563C19.875 6.15642 19.875 7.49836 19.875 9.18969V13.8408C19.875 13.9635 19.875 14.0248 19.8522 14.0799C19.8293 14.1351 19.786 14.1784 19.6992 14.2651L19.0493 14.915C18.8493 15.115 18.7493 15.215 18.625 15.215C18.5007 15.215 18.4008 15.115 18.2008 14.915L17.3928 14.107C16.4165 13.1307 14.8335 13.1307 13.8572 14.107C12.8809 15.0833 12.8809 16.6662 13.8572 17.6425L14.6652 18.4505C14.8652 18.6505 14.9652 18.7505 14.9652 18.8748C14.9652 18.999 14.8652 19.099 14.6652 19.299L13.8572 20.107C13.3121 20.6521 13.0713 21.3864 13.135 22.0986C13.1547 22.3188 13.1645 22.4289 13.0756 22.5264C12.9867 22.6238 12.9074 22.6241 12.7488 22.6245L12.6632 22.6247C12.5065 22.6248 12.3466 22.6248 12.1833 22.6248H9.06669C7.46629 22.6248 6.1851 22.6249 5.17946 22.4825C4.13594 22.3348 3.27969 22.021 2.60638 21.3123C1.93822 20.609 1.64708 19.7236 1.50919 18.644C1.37498 17.5932 1.37499 16.2513 1.375 14.56V14.56V9.18967V9.18966C1.37499 7.49835 1.37498 6.15641 1.50919 5.10563C1.64708 4.02598 1.93822 3.14065 2.60638 2.43733C3.27968 1.72859 4.13594 1.41478 5.17946 1.2671L5.23883 1.2589C5.503 1.22335 5.63509 1.20557 5.73444 1.28271ZM6.625 10.1248C6.21079 10.1248 5.875 10.4605 5.875 10.8748C5.875 11.289 6.21079 11.6248 6.625 11.6248H14.625C15.0392 11.6248 15.375 11.289 15.375 10.8748C15.375 10.4605 15.0392 10.1248 14.625 10.1248H6.625ZM6.625 15.1248C6.21079 15.1248 5.875 15.4605 5.875 15.8748C5.875 16.289 6.21079 16.6248 6.625 16.6248H10.625C11.0392 16.6248 11.375 16.289 11.375 15.8748C11.375 15.4605 11.0392 15.1248 10.625 15.1248H6.625Z" fill="#141B34"/>
<path fill-rule="evenodd" clip-rule="evenodd" d="M14.9179 15.1679C15.3084 14.7774 15.9416 14.7774 16.3321 15.1679L18.625 17.4608L20.9179 15.1679C21.3084 14.7774 21.9416 14.7774 22.3321 15.1679C22.7226 15.5584 22.7226 16.1916 22.3321 16.5821L20.0392 18.875L22.3321 21.1679C22.7226 21.5584 22.7226 22.1916 22.3321 22.5821C21.9416 22.9726 21.3084 22.9726 20.9179 22.5821L18.625 20.2892L16.3321 22.5821C15.9416 22.9726 15.3084 22.9726 14.9179 22.5821C14.5274 22.1916 14.5274 21.5584 14.9179 21.1679L17.2108 18.875L14.9179 16.5821C14.5274 16.1916 14.5274 15.5584 14.9179 15.1679Z" fill="#141B34"/>
</svg>
