<svg width="25" height="24" viewBox="0 0 25 24" fill="none" xmlns="http://www.w3.org/2000/svg">
<path d="M7.5 3C7.5 2.0335 8.2835 1.25 9.25 1.25H14.75C15.7165 1.25 16.5 2.0335 16.5 3C16.5 3.9665 15.7165 4.75 14.75 4.75H9.25C8.2835 4.75 7.5 3.9665 7.5 3Z" fill="#141B34"/>
<path fill-rule="evenodd" clip-rule="evenodd" d="M6.08629 2.85192C6.17409 2.83981 6.25 2.91152 6.25 3.00015C6.25 4.65701 7.59315 6.00015 9.25 6.00015L14.75 6.00015C16.4069 6.00015 17.75 4.65701 17.75 3.00015C17.75 2.91152 17.8259 2.83981 17.9137 2.85192C18.8138 2.97607 19.5615 3.24138 20.1519 3.83234C20.7537 4.4347 21.0125 5.19305 21.1335 6.09379C21.25 6.96148 21.25 8.06476 21.25 9.43371L21.25 16.0494C21.25 17.4183 21.25 18.5216 21.1335 19.3893C21.0125 20.29 20.7537 21.0484 20.1519 21.6507C19.55 22.2532 18.7921 22.5124 17.8918 22.6335C17.0248 22.7502 15.9225 22.7502 14.5549 22.7502L9.44506 22.7502C8.07752 22.7502 6.97517 22.7502 6.10816 22.6335C5.20793 22.5124 4.45 22.2532 3.84811 21.6507C3.24631 21.0484 2.9875 20.29 2.86651 19.3893C2.74997 18.5216 2.74998 17.4184 2.75 16.0495V16.0495L2.75 9.43368V9.43365C2.74998 8.06474 2.74997 6.96146 2.86651 6.09379C2.9875 5.19305 3.24631 4.4347 3.84811 3.83234C4.43852 3.24138 5.18619 2.97607 6.08629 2.85192ZM12.7539 11.0002C12.7539 10.586 13.0897 10.2502 13.5039 10.2502H17.0039C17.4181 10.2502 17.7539 10.586 17.7539 11.0002C17.7539 11.4145 17.4181 11.7502 17.0039 11.7502L13.5039 11.7502C13.0897 11.7502 12.7539 11.4145 12.7539 11.0002ZM11.2543 10.7072C11.6447 10.5689 11.8492 10.1403 11.7109 9.74982C11.5726 9.35937 11.144 9.15495 10.7535 9.29323C10.2714 9.46399 9.82382 9.78384 9.44506 10.116C9.05852 10.455 8.70017 10.8457 8.39858 11.2073C8.25243 11.3825 8.11744 11.5534 7.99675 11.7119C7.90855 11.6294 7.82014 11.5596 7.73243 11.5012C7.57351 11.3952 7.42444 11.3314 7.29589 11.2947L7.29271 11.2938C7.22918 11.2756 7.14029 11.2502 7.00391 11.2502C6.58969 11.2502 6.25391 11.586 6.25391 12.0002C6.25391 12.3749 6.52871 12.6855 6.88778 12.7413L6.89216 12.7439L6.90038 12.7492C6.95608 12.7864 7.12757 12.9246 7.33309 13.3356C7.45397 13.5774 7.6956 13.7354 7.96555 13.7492C8.23544 13.763 8.49216 13.6302 8.63712 13.4021C8.68001 13.3377 8.80572 13.1492 8.88685 13.0343C9.04966 12.8036 9.27991 12.4924 9.55041 12.1681C9.82235 11.8422 10.1258 11.5142 10.4341 11.2438C10.7502 10.9666 11.0305 10.7864 11.2543 10.7072ZM12.7539 17.0002C12.7539 16.586 13.0897 16.2502 13.5039 16.2502L17.0039 16.2502C17.4181 16.2502 17.7539 16.586 17.7539 17.0002C17.7539 17.4145 17.4181 17.7502 17.0039 17.7502L13.5039 17.7502C13.0897 17.7502 12.7539 17.4145 12.7539 17.0002ZM8.00391 16.0002C7.45162 16.0002 7.00391 16.448 7.00391 17.0002C7.00391 17.5525 7.45162 18.0002 8.00391 18.0002H9.00391C9.55619 18.0002 10.0039 17.5525 10.0039 17.0002C10.0039 16.448 9.55619 16.0002 9.00391 16.0002H8.00391Z" fill="#141B34"/>
</svg>
