<svg width="24" height="24" viewBox="0 0 24 24" fill="none" xmlns="http://www.w3.org/2000/svg">
<path d="M21 3V21H3V3H21Z" stroke="#141B34" stroke-width="1.5" stroke-linejoin="round"/>
<path d="M15 16V16.75H15.75L15.75 16L15 16ZM15.0001 11L15.7501 11V11H15.0001ZM15.7501 8V7.25H14.2501V8H15.7501ZM11 11V10.25C10.5858 10.25 10.25 10.5858 10.25 11H11ZM11 16H10.25C10.25 16.4142 10.5858 16.75 11 16.75V16ZM15.75 16L15.7501 11L14.2501 11L14.25 16L15.75 16ZM15.7501 11V8H14.2501V11H15.7501ZM15.0001 10.25H11V11.75H15.0001V10.25ZM10.25 11V16H11.75V11H10.25ZM11 16.75H15V15.25H11V16.75Z" fill="#141B34"/>
<path d="M8 8V16" stroke="#141B34" stroke-width="1.5" stroke-linecap="square" stroke-linejoin="round"/>
</svg>
