<svg width="24" height="24" viewBox="0 0 24 24" fill="none" xmlns="http://www.w3.org/2000/svg">
<path d="M2 2L22 22" stroke="#141B34" stroke-width="1.5" stroke-linejoin="round"/>
<path d="M14.0089 9.00002L13.2589 9.0027L13.2605 9.43137L13.6306 9.64761L14.0089 9.00002ZM20 12.5L20.75 12.5001L20.75 12.0696L20.3783 11.8524L20 12.5ZM13.2725 13.8262L13.4536 13.0983L12.5903 12.8836L12.5245 13.7707L13.2725 13.8262ZM13 17.5L12.2521 17.4445L12.2235 17.8292L12.5199 18.0762L13 17.5ZM15 22L14.7367 22.7022C15.096 22.837 15.4992 22.6787 15.6708 22.3354L15 22ZM11 20.5L11.2633 19.7978L11 19.699L10.7367 19.7978L11 20.5ZM19.9998 15.5L19.8187 16.2278C20.0426 16.2836 20.2798 16.2331 20.4616 16.0909C20.6435 15.9488 20.7497 15.7309 20.7498 15.5001L19.9998 15.5ZM14 6.5L13.25 6.49809L13.25 6.50268L14 6.5ZM11 2L11.2365 1.28828L11 1.20966L10.7635 1.28828L11 2ZM16 20L16.6708 20.3354C16.8265 20.0241 16.7475 19.6466 16.4801 19.4238L16 20ZM7.99108 9.00002L8.3694 9.64761L8.74108 9.43048V9.00002H7.99108ZM2 12.5L1.62168 11.8524L1.24996 12.0696L1.25 12.5001L2 12.5ZM8.72752 13.8262L9.47547 13.7707L9.40967 12.8836L8.54643 13.0983L8.72752 13.8262ZM9 17.5L9.48014 18.0762L9.77648 17.8292L9.74795 17.4445L9 17.5ZM7 22L6.32918 22.3354C6.50083 22.6787 6.90396 22.837 7.26334 22.7022L7 22ZM2.00024 15.5L1.25024 15.5001C1.25026 15.7309 1.35654 15.9488 1.53838 16.0909C1.72022 16.2331 1.95737 16.2836 2.18134 16.2278L2.00024 15.5ZM6 20L5.51986 19.4238C5.25249 19.6466 5.17353 20.0241 5.32918 20.3354L6 20ZM13.6306 9.64761L19.6217 13.1476L20.3783 11.8524L14.3872 8.35243L13.6306 9.64761ZM12.5245 13.7707L12.2521 17.4445L13.7479 17.5555L14.0204 13.8816L12.5245 13.7707ZM15.2633 21.2978L11.2633 19.7978L10.7367 21.2022L14.7367 22.7022L15.2633 21.2978ZM14.75 6.50191C14.7551 4.50568 13.8886 3.18868 13.0097 2.38426C12.5767 1.98787 12.1446 1.7185 11.8194 1.54729C11.6562 1.46135 11.5179 1.3991 11.4171 1.35722C11.3666 1.33624 11.3253 1.32029 11.2948 1.30895C11.2795 1.30328 11.2669 1.29876 11.2571 1.29533C11.2522 1.29362 11.2481 1.29218 11.2446 1.291C11.2429 1.29042 11.2414 1.2899 11.24 1.28944C11.2393 1.28921 11.2387 1.289 11.2381 1.28881C11.2378 1.28871 11.2374 1.28858 11.2373 1.28853C11.2369 1.2884 11.2365 1.28828 11 2C10.7635 2.71172 10.7631 2.71161 10.7628 2.71149C10.7627 2.71146 10.7623 2.71135 10.7621 2.71128C10.7617 2.71115 10.7614 2.71103 10.7611 2.71093C10.7605 2.71072 10.76 2.71057 10.7597 2.71047C10.7592 2.71029 10.7593 2.71034 10.7602 2.71062C10.7618 2.71119 10.7661 2.71271 10.7728 2.71522C10.7863 2.72024 10.8097 2.72919 10.8415 2.74239C10.9052 2.76886 11.0019 2.81209 11.1206 2.87458C11.3593 3.00025 11.6789 3.19963 11.997 3.49074C12.6203 4.06132 13.2538 4.99432 13.25 6.49809L14.75 6.50191ZM20.7498 15.5001L20.75 12.5001L19.25 12.5L19.2498 15.5L20.7498 15.5001ZM14.7589 8.99735L14.75 6.49732L13.25 6.50268L13.2589 9.0027L14.7589 8.99735ZM15.6708 22.3354L16.6708 20.3354L15.3292 19.6646L14.3292 21.6646L15.6708 22.3354ZM16.4801 19.4238L13.4801 16.9238L12.5199 18.0762L15.5199 20.5762L16.4801 19.4238ZM7.61276 8.35243L1.62168 11.8524L2.37832 13.1476L8.3694 9.64761L7.61276 8.35243ZM7.97958 13.8816L8.25205 17.5555L9.74795 17.4445L9.47547 13.7707L7.97958 13.8816ZM7.26334 22.7022L11.2633 21.2022L10.7367 19.7978L6.73666 21.2978L7.26334 22.7022ZM2.18134 16.2278L8.90862 14.554L8.54643 13.0983L1.81915 14.7722L2.18134 16.2278ZM2.75024 15.5L2.75 12.5L1.25 12.5001L1.25024 15.5001L2.75024 15.5ZM7.67082 21.6646L6.67082 19.6646L5.32918 20.3354L6.32918 22.3354L7.67082 21.6646ZM6.48014 20.5762L9.48014 18.0762L8.51986 16.9238L5.51986 19.4238L6.48014 20.5762ZM8.91495 5.22459C9.19658 4.26519 9.7784 3.63644 10.3032 3.2406C10.5659 3.04244 10.8101 2.9062 10.9854 2.82077C11.0727 2.77824 11.1419 2.74885 11.1862 2.73109C11.2083 2.72222 11.2242 2.7163 11.2329 2.71313C11.2372 2.71154 11.2397 2.71065 11.2404 2.71042C11.2407 2.71031 11.2406 2.71036 11.2399 2.71058C11.2396 2.71069 11.2392 2.71084 11.2386 2.71103C11.2383 2.71113 11.238 2.71123 11.2377 2.71135C11.2375 2.7114 11.2372 2.7115 11.2371 2.71153C11.2368 2.71162 11.2365 2.71172 11 2C10.7635 1.28828 10.7631 1.28838 10.7628 1.28849C10.7627 1.28853 10.7624 1.28864 10.7621 1.28872C10.7617 1.28888 10.7612 1.28905 10.7606 1.28923C10.7595 1.28959 10.7583 1.29 10.757 1.29046C10.7543 1.29138 10.7511 1.29248 10.7473 1.29377C10.7399 1.29636 10.7304 1.29972 10.719 1.30388C10.6962 1.31219 10.6657 1.32372 10.6283 1.33869C10.5536 1.36861 10.4512 1.41248 10.3285 1.47228C10.0838 1.5915 9.75372 1.77618 9.39989 2.04308C8.69156 2.57736 7.87104 3.45528 7.47568 4.80209L8.91495 5.22459ZM20.1808 14.7722L18.4266 14.3357L18.0644 15.7913L19.8187 16.2278L20.1808 14.7722ZM14.1906 13.2817L13.4536 13.0983L13.0914 14.554L13.8284 14.7374L14.1906 13.2817ZM8.74108 9.00002V7.9911H7.24108V9.00002H8.74108Z" fill="#141B34"/>
</svg>
