<svg width="24" height="24" viewBox="0 0 24 24" fill="none" xmlns="http://www.w3.org/2000/svg">
<path d="M18 20L2 20" stroke="#141B34" stroke-width="1.5" stroke-linejoin="round"/>
<path d="M20.6737 4L21.4063 3.8391C21.329 3.48757 21.013 3.24044 20.6532 3.25028L20.6737 4ZM22 10.0382L22.2532 10.7442C22.6082 10.6169 22.8135 10.2457 22.7325 9.87731L22 10.0382ZM10.9057 14.0588L11.3465 13.452L11.0498 13.2364L10.6974 13.3382L10.9057 14.0588ZM4.35602 15.9515L4.1478 15.231C4.14195 15.2327 4.13612 15.2344 4.13032 15.2363L4.35602 15.9515ZM15.4315 12.3937L15.1783 11.6878L13.9333 12.1343L14.9556 12.9735L15.4315 12.3937ZM13.1903 15.7189L12.7495 16.3257C12.9297 16.4566 13.1588 16.5007 13.3748 16.4459L13.1903 15.7189ZM17.9969 14.4995L18.1813 15.2265C18.4556 15.1569 18.6673 14.939 18.7289 14.6628C18.7905 14.3867 18.6914 14.0993 18.4728 13.9198L17.9969 14.4995ZM8.92357 8.59537L9.01791 9.33951L9.03026 9.33774L8.92357 8.59537ZM17.2709 7.4476L17.3601 8.19227L17.9534 8.1212L18.0167 7.527L17.2709 7.4476ZM17.6291 4.08323L17.6086 3.33351C17.2331 3.34378 16.9231 3.63028 16.8833 4.00383L17.6291 4.08323ZM3.0017 14.9273L2.25322 14.8792L2.2529 14.885L3.0017 14.9273ZM19.9412 4.1609L21.2675 10.1991L22.7325 9.87731L21.4063 3.8391L19.9412 4.1609ZM10.6974 13.3382L4.1478 15.231L4.56424 16.672L11.1139 14.7793L10.6974 13.3382ZM21.7468 9.33223L15.1783 11.6878L15.6847 13.0997L22.2532 10.7442L21.7468 9.33223ZM10.4648 14.6655L12.7495 16.3257L13.6312 15.1122L11.3465 13.452L10.4648 14.6655ZM13.3748 16.4459L18.1813 15.2265L17.8125 13.7726L13.0059 14.9919L13.3748 16.4459ZM18.4728 13.9198L15.9073 11.814L14.9556 12.9735L17.521 15.0793L18.4728 13.9198ZM8.92357 8.59537C9.03026 9.33774 9.03028 9.33774 9.03033 9.33773C9.03037 9.33772 9.03044 9.33771 9.03053 9.3377C9.03072 9.33767 9.03099 9.33763 9.03137 9.33758C9.03211 9.33747 9.03322 9.33731 9.0347 9.3371C9.03766 9.33668 9.04209 9.33604 9.04796 9.3352C9.05968 9.33351 9.07712 9.33101 9.09998 9.32773C9.14569 9.32117 9.21305 9.31152 9.29957 9.29914C9.47259 9.27437 9.72224 9.23869 10.0286 9.19507C10.6414 9.10781 11.4809 8.98877 12.3881 8.86163C14.2057 8.6069 16.2847 8.32109 17.3601 8.19227L17.1817 6.70292C16.0885 6.83387 13.9938 7.12194 12.1799 7.37615C11.2713 7.50349 10.4307 7.62268 9.81715 7.71005C9.51038 7.75373 9.26037 7.78946 9.08703 7.81427C9.00036 7.82667 8.93285 7.83635 8.887 7.84293C8.86407 7.84622 8.84656 7.84873 8.83477 7.85042C8.82887 7.85127 8.82441 7.85191 8.82141 7.85234C8.81991 7.85256 8.81878 7.85272 8.81803 7.85283C8.81765 7.85288 8.81736 7.85292 8.81717 7.85295C8.81707 7.85297 8.817 7.85298 8.81695 7.85298C8.8169 7.85299 8.81688 7.85299 8.92357 8.59537ZM18.0167 7.527L18.3749 4.16264L16.8833 4.00383L16.5251 7.36819L18.0167 7.527ZM3.75015 14.9755C3.93675 12.0748 6.18582 9.69846 9.0179 9.33941L8.82924 7.85132C5.28132 8.30113 2.48583 11.2635 2.25325 14.8792L3.75015 14.9755ZM4.13032 15.2363C4.03808 15.2654 3.93551 15.247 3.85585 15.1887C3.78276 15.1353 3.74528 15.0621 3.7505 14.9697L2.2529 14.885C2.17882 16.1952 3.46392 17.0195 4.58172 16.6667L4.13032 15.2363ZM17.6496 4.83295L20.6942 4.74972L20.6532 3.25028L17.6086 3.33351L17.6496 4.83295Z" fill="#141B34"/>
</svg>
