<svg width="24" height="24" viewBox="0 0 24 24" fill="none" xmlns="http://www.w3.org/2000/svg">
<path d="M17 18L17 16" stroke="#141B34" stroke-width="1.5" stroke-linejoin="round"/>
<path d="M12 18L12 15" stroke="#141B34" stroke-width="1.5" stroke-linejoin="round"/>
<path d="M7 18L7 13" stroke="#141B34" stroke-width="1.5" stroke-linejoin="round"/>
<path d="M16.9995 12V12.75H17.7495V12H16.9995ZM6 7.75C9.57282 7.75 12.1769 8.93833 13.8864 10.1174C14.7433 10.7084 15.3762 11.2978 15.7918 11.7353C15.9994 11.9538 16.1521 12.1338 16.2509 12.2562C16.3002 12.3173 16.336 12.364 16.3584 12.3938C16.3695 12.4087 16.3773 12.4194 16.3818 12.4255C16.384 12.4286 16.3854 12.4305 16.3859 12.4313C16.3862 12.4317 16.3863 12.4318 16.3861 12.4316C16.3861 12.4315 16.3859 12.4313 16.3858 12.431C16.3857 12.4309 16.3855 12.4307 16.3855 12.4306C16.3853 12.4303 16.3851 12.4301 16.9995 12C17.614 11.5699 17.6137 11.5696 17.6135 11.5693C17.6134 11.5691 17.6132 11.5688 17.613 11.5685C17.6126 11.5679 17.6121 11.5673 17.6116 11.5666C17.6106 11.5652 17.6094 11.5635 17.608 11.5615C17.6051 11.5574 17.6013 11.5522 17.5967 11.5458C17.5875 11.533 17.5747 11.5156 17.5584 11.4939C17.5258 11.4504 17.4791 11.3897 17.4181 11.3141C17.2962 11.1631 17.117 10.9524 16.8793 10.7022C16.4043 10.2022 15.6936 9.54163 14.7381 8.8826C12.8229 7.56167 9.92718 6.25 6 6.25V7.75ZM13.5 12.75H16.9995V11.25H13.5V12.75ZM17.7495 12V8.5H16.2495V12H17.7495Z" fill="#141B34"/>
<path d="M21 3V21H3V3H21Z" stroke="#141B34" stroke-width="1.5" stroke-linejoin="round"/>
</svg>
