<svg width="24" height="24" viewBox="0 0 24 24" fill="none" xmlns="http://www.w3.org/2000/svg">
<path d="M3 7.00012L2.46966 6.4698L1.93935 7.00013L2.46967 7.53045L3 7.00012ZM17 7.00025H17.75C17.75 6.58604 17.4142 6.25025 17 6.25025L17 7.00025ZM17 21.0001L16.4697 21.5305L17 22.0608L17.5303 21.5305L17 21.0001ZM2.99999 7.75012L17 7.75025L17 6.25025L3.00001 6.25012L2.99999 7.75012ZM16.25 7.00025V21.0001H17.75V7.00025H16.25ZM12.4697 17.5306L16.4697 21.5305L17.5303 20.4698L13.5303 16.4699L12.4697 17.5306ZM17.5303 21.5305L21.5303 17.5306L20.4697 16.4699L16.4697 20.4698L17.5303 21.5305ZM6.46966 2.46968L2.46966 6.4698L3.53034 7.53044L7.53034 3.53032L6.46966 2.46968ZM2.46967 7.53045L6.46967 11.5305L7.53033 10.4698L3.53033 6.46979L2.46967 7.53045Z" fill="#141B34"/>
</svg>
