<svg width="24" height="24" viewBox="0 0 24 24" fill="none" xmlns="http://www.w3.org/2000/svg">
<path d="M16.002 9L20.002 17C18.4051 19.3912 15.4204 21 12.002 21C8.5835 21 5.59882 19.3912 4.00195 17L8.00195 9" stroke="#141B34" stroke-width="1.5"/>
<path d="M10.1344 12.2209C10.8048 11.8554 11.3899 12.0027 11.7414 12.2373L12 12.3817L12.2586 12.2373C12.6101 12.0027 13.1952 11.8554 13.8656 12.2209C14.7455 12.7007 14.9446 14.2833 12.9151 15.6185C12.5286 15.8728 12.3353 16 12 16C11.6647 16 11.4714 15.8728 11.0849 15.6185C9.05543 14.2833 9.25452 12.7007 10.1344 12.2209Z" stroke="#141B34" stroke-width="1.5" stroke-linecap="round"/>
<path d="M8.99944 3.00001H9.74944V2.25001L8.99944 2.25001L8.99944 3.00001ZM5.99944 3L5.99944 2.25C5.77164 2.25 5.55619 2.35353 5.41386 2.53138L5.99944 3ZM1.99805 8.00001L1.41247 7.53139C1.27722 7.7004 1.22159 7.9196 1.25987 8.13265C1.29815 8.34571 1.42662 8.53183 1.61225 8.64318L1.99805 8.00001ZM14.9994 3V2.25H14.2494V3H14.9994ZM17.9994 3L18.5851 2.53148C18.4428 2.35357 18.2273 2.25 17.9994 2.25V3ZM21.9994 8.00001L22.3854 8.64307C22.571 8.53171 22.6994 8.34562 22.7376 8.13262C22.7759 7.91962 22.7203 7.70048 22.5851 7.53149L21.9994 8.00001ZM16.6151 10.3569C16.26 10.5701 16.1449 11.0308 16.358 11.386C16.5712 11.7411 17.0319 11.8562 17.3871 11.6431L16.6151 10.3569ZM6.61354 11.6432C6.96875 11.8562 7.42943 11.741 7.6425 11.3858C7.85557 11.0306 7.74035 10.5699 7.38514 10.3568L6.61354 11.6432ZM8.99944 2.25001L5.99944 2.25L5.99943 3.75L8.99943 3.75001L8.99944 2.25001ZM5.41386 2.53138L1.41247 7.53139L2.58362 8.46863L6.58501 3.46862L5.41386 2.53138ZM14.9994 3.75H17.9994V2.25H14.9994V3.75ZM17.4138 3.46852L21.4138 8.46853L22.5851 7.53149L18.5851 2.53148L17.4138 3.46852ZM21.6135 7.35695L16.6151 10.3569L17.3871 11.6431L22.3854 8.64307L21.6135 7.35695ZM7.38514 10.3568L2.38384 7.35685L1.61225 8.64318L6.61354 11.6432L7.38514 10.3568ZM11.9994 5.25C10.7568 5.25 9.74944 4.24264 9.74944 3.00001H8.24944C8.24944 5.07108 9.92837 6.75 11.9994 6.75V5.25ZM14.2494 3C14.2494 4.24264 13.2421 5.25 11.9994 5.25V6.75C14.0705 6.75 15.7494 5.07107 15.7494 3H14.2494Z" fill="#141B34"/>
</svg>
