<svg width="24" height="24" viewBox="0 0 24 24" fill="none" xmlns="http://www.w3.org/2000/svg">
<ellipse cx="5" cy="9" rx="2" ry="7" stroke="#141B34" stroke-width="1.5" stroke-linejoin="round"/>
<path d="M5 2L16.1103 3.58719C19.1126 4.01608 21 5.73626 21 9C21 11.0222 20.065 13.3797 18 14.0512M5 16L14.0942 14.7008" stroke="#141B34" stroke-width="1.5" stroke-linejoin="round"/>
<path d="M8.3436 2.86283C8.57188 3.2758 8.80615 4.06254 8.97929 5.16685C9.14899 6.2492 9.25 7.56924 9.25 9H10.75C10.75 7.50341 10.6447 6.1047 10.4612 4.93451C10.2812 3.78628 10.0154 2.78669 9.6564 2.13717L8.3436 2.86283ZM9.25 9C9.25 10.4308 9.14899 11.7508 8.97929 12.8331C8.80615 13.9375 8.57188 14.7242 8.3436 15.1372L9.6564 15.8628C10.0154 15.2133 10.2812 14.2137 10.4612 13.0655C10.6447 11.8953 10.75 10.4966 10.75 9H9.25Z" fill="#141B34"/>
<path d="M8.5 15.5L16 22M8 22L18 10" stroke="#141B34" stroke-width="1.5" stroke-linejoin="round"/>
</svg>
