<svg width="24" height="24" viewBox="0 0 24 24" fill="none" xmlns="http://www.w3.org/2000/svg">
<path d="M20.3636 6.15035L20.7733 5.52212L20.7731 5.52198L20.3636 6.15035ZM16.8331 9H16.0831V9.51097L16.5586 9.69797L16.8331 9ZM21.9189 11L21.6444 11.698C21.8626 11.7837 22.1082 11.7626 22.3085 11.6409C22.5088 11.5191 22.6406 11.3108 22.6649 11.0776L21.9189 11ZM12 4L11.9997 4.75L12.0002 4.75L12 4ZM3.6364 6.15014L3.22695 5.52177L3.22674 5.52191L3.6364 6.15014ZM7.16689 9L7.44134 9.69798L7.91689 9.51099V9H7.16689ZM2.08108 10.9998L1.33511 11.0774C1.35937 11.3105 1.49121 11.5189 1.69148 11.6407C1.89174 11.7624 2.13741 11.7835 2.35553 11.6978L2.08108 10.9998ZM20.7731 5.52198C19.7487 4.85451 18.6214 4.31114 17.0257 3.88708L16.6405 5.33677C18.0792 5.71909 19.0605 6.19637 19.9541 6.77872L20.7731 5.52198ZM16.0831 4.61193V9H17.5831V4.61193H16.0831ZM16.5586 9.69797L21.6444 11.698L22.1934 10.302L17.1076 8.30203L16.5586 9.69797ZM22.6649 11.0776C22.8277 9.51312 22.9944 6.97054 20.7733 5.52212L19.9539 6.77858C21.336 7.67979 21.3447 9.27175 21.173 10.9224L22.6649 11.0776ZM17.0257 3.88708C15.4216 3.46079 13.7086 3.24938 11.9997 3.25L12.0002 4.75C13.588 4.74943 15.1708 4.94619 16.6405 5.33677L17.0257 3.88708ZM4.04586 6.77851C4.93955 6.19616 5.92084 5.71888 7.35951 5.33656L6.97426 3.88687C5.37858 4.31092 4.25129 4.8543 3.22695 5.52177L4.04586 6.77851ZM6.41689 4.61171V9H7.91689V4.61171H6.41689ZM6.89244 8.30202L1.80663 10.3018L2.35553 11.6978L7.44134 9.69798L6.89244 8.30202ZM2.82705 10.9222C2.65527 9.27154 2.66405 7.67958 4.04607 6.77837L3.22674 5.52191C1.00557 6.97033 1.17229 9.51291 1.33511 11.0774L2.82705 10.9222ZM7.35951 5.33656C8.8292 4.94599 10.4118 4.74942 11.9997 4.75L12.0002 3.25C10.2914 3.24938 8.57845 3.46056 6.97426 3.88687L7.35951 5.33656Z" fill="#141B34"/>
<path d="M9 17L12 20M15 17L12 20M12 20V12" stroke="#141B34" stroke-width="1.5"/>
</svg>
