<svg width="24" height="24" viewBox="0 0 24 24" fill="none" xmlns="http://www.w3.org/2000/svg">
<path d="M1.99805 22L1.24841 21.9766L1.22424 22.75H1.99805V22ZM21.998 22V22.75H22.7719L22.7477 21.9766L21.998 22ZM21.498 6L22.2477 5.97657L22.225 5.25H21.498V6ZM2.49805 6.00078V5.25078C2.09295 5.25078 1.76107 5.57246 1.74841 5.97735L2.49805 6.00078ZM8.49805 2V1.25H7.91246L7.77044 1.8181L8.49805 2ZM15.498 2L16.2257 1.8181L16.0836 1.25H15.498V2ZM1.99805 22.75H21.998V21.25H1.99805V22.75ZM16.998 6.75H21.498V5.25H16.998V6.75ZM20.7484 6.02343L21.2484 22.0234L22.7477 21.9766L22.2477 5.97657L20.7484 6.02343ZM2.74768 22.0234L3.24768 6.02421L1.74841 5.97735L1.24841 21.9766L2.74768 22.0234ZM2.49805 6.75078H6.99805V5.25078H2.49805V6.75078ZM7.72565 8.1819L9.22565 2.1819L7.77044 1.8181L6.27044 7.8181L7.72565 8.1819ZM17.7257 7.8181L16.2257 1.8181L14.7704 2.1819L16.2704 8.1819L17.7257 7.8181ZM8.49805 2.75H15.498V1.25H8.49805V2.75Z" fill="#141B34"/>
<path d="M15.5 14C15.5 15.933 13.933 17.5 12 17.5C10.067 17.5 8.5 15.933 8.5 14C8.5 12.067 10.067 10.5 12 10.5C13.933 10.5 15.5 12.067 15.5 14Z" stroke="#141B34" stroke-width="1.5"/>
<path d="M11.9998 6H12.0088" stroke="#141B34" stroke-width="2" stroke-linecap="square" stroke-linejoin="round"/>
</svg>
