<svg width="24" height="24" viewBox="0 0 24 24" fill="none" xmlns="http://www.w3.org/2000/svg">
<path d="M4.5 8.5H5.25C5.25 8.08579 4.91421 7.75 4.5 7.75V8.5ZM5.5 5.5V6.25C5.75076 6.25 5.98494 6.12467 6.12404 5.91603L5.5 5.5ZM5.76816 5.09775L5.14413 4.68173V4.68173L5.76816 5.09775ZM7.84509 6.48237L8.46912 6.8984V6.8984L7.84509 6.48237ZM7.5 7L6.87596 6.58397C6.82828 6.6555 6.79324 6.7347 6.77239 6.8181L7.5 7ZM8.5 9.5L8.26283 10.2115C8.28104 10.2176 8.29948 10.223 8.3181 10.2276L8.5 9.5ZM9 14L9.73214 13.8373L9.60163 13.25H9V14ZM11 7.5L10.2885 7.26283C10.2787 7.29233 10.2707 7.32242 10.2646 7.35291L11 7.5ZM17.5 14.7285L18.2435 14.6299L18.1268 13.7501L17.2788 14.0119L17.5 14.7285ZM17 20.5L16.3292 20.1646C16.2129 20.3971 16.2254 20.6732 16.362 20.8943C16.4987 21.1154 16.7401 21.25 17 21.25V20.5ZM20 20.5V21.25C20.4142 21.25 20.75 20.9142 20.75 20.5H20ZM12 14.2208L12.3836 13.5763H12.3836L12 14.2208ZM12 20.5V21.25C12.4142 21.25 12.75 20.9142 12.75 20.5H12ZM8.5 20.5L7.9 20.05C7.72955 20.2773 7.70214 20.5813 7.82918 20.8354C7.95622 21.0895 8.21592 21.25 8.5 21.25V20.5ZM18.3308 7.4526L18.8251 6.88846L18.8251 6.88846L18.3308 7.4526ZM10 18.5L10.6 18.95C10.7314 18.7748 10.7796 18.551 10.7321 18.3373L10 18.5ZM18 18.5L18.6708 18.8354C18.7379 18.7013 18.7632 18.5501 18.7435 18.4014L18 18.5ZM7.55547 4.7916L7.10547 5.3916L7.55547 4.7916ZM4.5 7.75H3V9.25H4.5V7.75ZM4 6.25H5.5V4.75H4V6.25ZM6.12404 5.91603L6.3922 5.51378L5.14413 4.68173L4.87596 5.08397L6.12404 5.91603ZM7.22105 6.06635L6.87596 6.58397L8.12404 7.41603L8.46912 6.8984L7.22105 6.06635ZM6.77239 6.8181C6.66777 7.2366 6.60199 7.88941 6.75917 8.529C6.92311 9.19607 7.35359 9.90843 8.26283 10.2115L8.73717 8.78849C8.44641 8.69157 8.29355 8.48727 8.21583 8.171C8.13135 7.82726 8.16557 7.43007 8.22761 7.1819L6.77239 6.8181ZM3.75 8.5C3.75 9.65273 4.17145 11.1718 5.00096 12.416C5.83809 13.6717 7.16814 14.75 9 14.75V13.25C7.83186 13.25 6.91191 12.5783 6.24904 11.584C5.57855 10.5782 5.25 9.34727 5.25 8.5H3.75ZM8.3181 10.2276C8.80311 10.3489 9.52757 10.3464 10.2119 9.96943C10.9278 9.57505 11.4995 8.82683 11.7354 7.64709L10.2646 7.35291C10.1005 8.17317 9.75552 8.50829 9.48813 8.65557C9.1891 8.8203 8.86355 8.81781 8.6819 8.77239L8.3181 10.2276ZM17 21.25H20V19.75H17V21.25ZM12.3836 13.5763C12.1048 13.4104 11.9319 13.2464 11.836 13.1216C11.731 12.9848 11.75 12.9398 11.75 13H10.25C10.25 13.3858 10.4241 13.7458 10.6465 14.0354C10.8781 14.3369 11.2052 14.6205 11.6164 14.8653L12.3836 13.5763ZM11.25 14.2208V20.5H12.75V14.2208H11.25ZM12 19.75H8.5V21.25H12V19.75ZM19.25 10.4782V20.5H20.75V10.4782H19.25ZM11.7115 7.73717C11.9579 6.9979 12.3059 6.08406 12.8041 5.36441C13.3046 4.64157 13.8571 4.25 14.5 4.25V2.75C13.1429 2.75 12.1954 3.60843 11.5709 4.51059C10.9441 5.41594 10.5421 6.5021 10.2885 7.26283L11.7115 7.73717ZM14.5 4.25C14.8691 4.25 15.1503 4.46438 15.6822 5.26546C16.1638 5.99063 16.7878 7.09789 17.8366 8.01674L18.8251 6.88846C17.9692 6.13869 17.4856 5.26965 16.9318 4.43568C16.4284 3.67761 15.7465 2.75 14.5 2.75V4.25ZM9.1 20.95L10.6 18.95L9.4 18.05L7.9 20.05L9.1 20.95ZM10.7321 18.3373L9.73214 13.8373L8.26786 14.1627L9.26786 18.6627L10.7321 18.3373ZM16.7565 14.8271L17.2565 18.5986L18.7435 18.4014L18.2435 14.6299L16.7565 14.8271ZM17.3292 18.1646L16.3292 20.1646L17.6708 20.8354L18.6708 18.8354L17.3292 18.1646ZM20.75 10.4782C20.75 8.95229 19.7839 7.72844 18.8251 6.88846L17.8366 8.01674C18.6832 8.75836 19.25 9.60392 19.25 10.4782H20.75ZM7.10547 5.3916C7.31695 5.55021 7.36768 5.8464 7.22105 6.06635L8.46912 6.8984C9.05735 6.01605 8.85383 4.82787 8.00547 4.1916L7.10547 5.3916ZM6.3922 5.51378C6.55081 5.27587 6.87672 5.22004 7.10547 5.3916L8.00547 4.1916C7.08782 3.50336 5.7804 3.72731 5.14413 4.68173L6.3922 5.51378ZM2.75 7.5C2.75 6.80964 3.30964 6.25 4 6.25V4.75C2.48122 4.75 1.25 5.98122 1.25 7.5H2.75ZM3 7.75C2.86193 7.75 2.75 7.63807 2.75 7.5H1.25C1.25 8.4665 2.0335 9.25 3 9.25V7.75ZM19.2986 8.5C19.1621 9.23747 19.1617 9.23739 19.1612 9.23731C19.1611 9.23729 19.1607 9.23721 19.1604 9.23716C19.1599 9.23706 19.1594 9.23697 19.159 9.23688C19.1581 9.23671 19.1573 9.23657 19.1568 9.23646C19.1556 9.23623 19.155 9.23611 19.155 9.23612C19.1551 9.23613 19.1575 9.23662 19.162 9.23766C19.1712 9.23974 19.1889 9.24401 19.2141 9.25098C19.2645 9.26499 19.3435 9.2896 19.4415 9.32892C19.6389 9.40806 19.9044 9.54318 20.1693 9.7638C20.6745 10.1846 21.25 10.9738 21.25 12.5H22.75C22.75 10.5262 21.9748 9.3155 21.1293 8.61123C20.7188 8.26935 20.3091 8.06071 19.9999 7.93671C19.8447 7.87447 19.7126 7.83268 19.6153 7.80566C19.5666 7.79213 19.5263 7.78223 19.4959 7.77528C19.4807 7.77181 19.4679 7.76906 19.4577 7.76697C19.4526 7.76592 19.4482 7.76503 19.4444 7.76429C19.4425 7.76393 19.4408 7.7636 19.4393 7.7633C19.4385 7.76315 19.4378 7.76302 19.4371 7.76289C19.4367 7.76282 19.4362 7.76273 19.4361 7.7627C19.4356 7.76261 19.4351 7.76253 19.2986 8.5ZM17.2788 14.0119C15.7331 14.489 13.7095 14.3653 12.3836 13.5763L11.6164 14.8653C13.3759 15.9124 15.8537 16.0217 17.7212 15.4451L17.2788 14.0119Z" fill="#141B34"/>
</svg>
