<svg width="24" height="24" viewBox="0 0 24 24" fill="none" xmlns="http://www.w3.org/2000/svg">
<path d="M9 3H15" stroke="#141B34" stroke-width="1.5" stroke-linejoin="round"/>
<path d="M12 3L12 17" stroke="#141B34" stroke-width="1.5" stroke-linejoin="round"/>
<path d="M5 12V10.75C5 8.67893 6.567 7 8.5 7C10.433 7 12 8.67893 12 10.75C12 8.67893 13.567 7 15.5 7C17.433 7 19 8.67893 19 10.75V12" stroke="#141B34" stroke-width="1.5" stroke-linejoin="round"/>
<path d="M10.5 17V16.25H9.98025L9.79775 16.7367L10.5 17ZM9 21L8.29775 20.7367C8.21138 20.967 8.24344 21.225 8.38356 21.4272C8.52367 21.6294 8.75402 21.75 9 21.75V21ZM15 21V21.75C15.246 21.75 15.4763 21.6294 15.6164 21.4272C15.7566 21.225 15.7886 20.967 15.7022 20.7367L15 21ZM13.5 17L14.2022 16.7367L14.0198 16.25H13.5V17ZM9.79775 16.7367L8.29775 20.7367L9.70225 21.2633L11.2022 17.2633L9.79775 16.7367ZM9 21.75H15V20.25H9V21.75ZM15.7022 20.7367L14.2022 16.7367L12.7978 17.2633L14.2978 21.2633L15.7022 20.7367ZM13.5 16.25H10.5V17.75H13.5V16.25Z" fill="#141B34"/>
<path d="M3.5 12V11.25H2.98025L2.79775 11.7367L3.5 12ZM2 16L1.29775 15.7367C1.21138 15.967 1.24344 16.225 1.38356 16.4272C1.52367 16.6294 1.75402 16.75 2 16.75L2 16ZM8 16V16.75C8.24598 16.75 8.47633 16.6294 8.61644 16.4272C8.75656 16.225 8.78862 15.967 8.70225 15.7367L8 16ZM6.5 12L7.20225 11.7367L7.01975 11.25H6.5V12ZM2.79775 11.7367L1.29775 15.7367L2.70225 16.2633L4.20225 12.2633L2.79775 11.7367ZM2 16.75H8V15.25H2V16.75ZM8.70225 15.7367L7.20225 11.7367L5.79775 12.2633L7.29775 16.2633L8.70225 15.7367ZM6.5 11.25H3.5V12.75H6.5V11.25Z" fill="#141B34"/>
<path d="M17.5 12V11.25H16.9802L16.7978 11.7367L17.5 12ZM16 16L15.2978 15.7367C15.2114 15.967 15.2434 16.225 15.3836 16.4272C15.5237 16.6294 15.754 16.75 16 16.75V16ZM22 16V16.75C22.246 16.75 22.4763 16.6294 22.6164 16.4272C22.7566 16.225 22.7886 15.967 22.7022 15.7367L22 16ZM20.5 12L21.2022 11.7367L21.0198 11.25H20.5V12ZM16.7978 11.7367L15.2978 15.7367L16.7022 16.2633L18.2022 12.2633L16.7978 11.7367ZM16 16.75H22V15.25H16V16.75ZM22.7022 15.7367L21.2022 11.7367L19.7978 12.2633L21.2978 16.2633L22.7022 15.7367ZM20.5 11.25H17.5V12.75H20.5V11.25Z" fill="#141B34"/>
</svg>
