<svg width="24" height="24" viewBox="0 0 24 24" fill="none" xmlns="http://www.w3.org/2000/svg">
<path d="M3.99902 2.00003L3.99902 1.25003C3.58481 1.25003 3.24902 1.58582 3.24902 2.00003H3.99902ZM7.49902 2H8.24902C8.24902 1.80109 8.17 1.61032 8.02935 1.46967C7.8887 1.32902 7.69793 1.25 7.49902 1.25L7.49902 2ZM7.49902 4.5H6.74902V5.25H7.49902V4.5ZM9.99902 4.5V5.25H10.6139L10.7345 4.64709L9.99902 4.5ZM10.499 2V1.25C10.1415 1.25 9.8337 1.50234 9.76359 1.85291L10.499 2ZM13.499 2L14.2345 1.85291C14.1643 1.50234 13.8565 1.25 13.499 1.25V2ZM13.999 4.5L13.2636 4.64709L13.3842 5.24999L13.999 5.25L13.999 4.5ZM16.499 4.50003L16.499 5.25003L17.249 5.25004V4.50003H16.499ZM16.499 2.00003V1.25003C16.0848 1.25003 15.749 1.58582 15.749 2.00003H16.499ZM19.999 2.00003H20.749C20.749 1.58582 20.4132 1.25003 19.999 1.25003V2.00003ZM19.999 6L20.4676 6.58558L20.749 6.36039V6H19.999ZM3.99902 6H3.24902V6.36054L3.53059 6.58573L3.99902 6ZM3.99903 2.75003L7.49903 2.75L7.49902 1.25L3.99902 1.25003L3.99903 2.75003ZM6.74902 2V4.5H8.24902V2H6.74902ZM7.49902 5.25H9.99902V3.75H7.49902V5.25ZM10.7345 4.64709L11.2345 2.14709L9.76359 1.85291L9.26359 4.35291L10.7345 4.64709ZM10.499 2.75H13.499V1.25H10.499V2.75ZM12.7636 2.14709L13.2636 4.64709L14.7345 4.35291L14.2345 1.85291L12.7636 2.14709ZM13.999 5.25L16.499 5.25003L16.499 3.75003L13.999 3.75L13.999 5.25ZM17.249 4.50003V2.00003H15.749V4.50003H17.249ZM16.499 2.75003H19.999V1.25003H16.499V2.75003ZM19.249 2.00003V6H20.749V2.00003H19.249ZM16.755 8.08755L18.4004 22.0876L19.8902 21.9125L18.2447 7.91246L16.755 8.08755ZM5.75496 7.91246L4.10951 21.9125L5.59926 22.0876L7.24471 8.08755L5.75496 7.91246ZM17.9685 8.58558L20.4676 6.58558L19.5304 5.41442L17.0312 7.41443L17.9685 8.58558ZM3.53059 6.58573L6.03141 8.58573L6.96827 7.41428L4.46745 5.41427L3.53059 6.58573ZM3.24902 2.00003V6H4.74902V2.00003H3.24902ZM17.4998 7.25001H6.49984V8.75001H17.4998V7.25001Z" fill="#141B34"/>
<path d="M9 22L9.5 17H14.5L15 22" stroke="#141B34" stroke-width="1.5" stroke-linejoin="round"/>
<path d="M3 22H21" stroke="#141B34" stroke-width="1.5" stroke-linejoin="round"/>
<path d="M15 11L18 11" stroke="#141B34" stroke-width="1.5" stroke-linejoin="round"/>
<path d="M6 13H9" stroke="#141B34" stroke-width="1.5" stroke-linejoin="round"/>
</svg>
