<svg width="24" height="24" viewBox="0 0 24 24" fill="none" xmlns="http://www.w3.org/2000/svg">
<path d="M14 3H2V18H22V9" stroke="#141B34" stroke-width="1.5" stroke-linejoin="round"/>
<path d="M14 22V18M10 22V18" stroke="#141B34" stroke-width="1.5" stroke-linecap="round"/>
<path d="M7 22H17" stroke="#141B34" stroke-width="1.5"/>
<path d="M14 10H13.25V10.75H14V10ZM14 7.5L13.4697 6.96967L13.25 7.18934V7.5H14ZM16.5 10V10.75H16.8107L17.0303 10.5303L16.5 10ZM19.5 2L20.0303 1.46967C19.8897 1.32902 19.6989 1.25 19.5 1.25C19.3011 1.25 19.1103 1.32902 18.9697 1.46967L19.5 2ZM22 4.5L22.5303 5.03033C22.8232 4.73744 22.8232 4.26256 22.5303 3.96967L22 4.5ZM14.75 10V7.5H13.25V10H14.75ZM14 10.75H16.5V9.25H14V10.75ZM14.5303 8.03033L20.0303 2.53033L18.9697 1.46967L13.4697 6.96967L14.5303 8.03033ZM18.9697 2.53033L21.4697 5.03033L22.5303 3.96967L20.0303 1.46967L18.9697 2.53033ZM21.4697 3.96967L15.9697 9.46967L17.0303 10.5303L22.5303 5.03033L21.4697 3.96967Z" fill="#141B34"/>
<path d="M8 10H15" stroke="#141B34" stroke-width="1.5" stroke-linejoin="round"/>
</svg>
