<svg width="24" height="24" viewBox="0 0 24 24" fill="none" xmlns="http://www.w3.org/2000/svg">
<path d="M15 8L9 14" stroke="#141B34" stroke-width="1.5" stroke-linecap="square" stroke-linejoin="round"/>
<path d="M15 14H14.991M9.00897 8H9" stroke="#141B34" stroke-width="2" stroke-linecap="square" stroke-linejoin="round"/>
<path d="M7.5 19.5L7.86423 18.8444L7.51733 18.6517L7.16285 18.8301L7.5 19.5ZM12 22L11.6358 22.6556C11.8623 22.7815 12.1377 22.7815 12.3642 22.6556L12 22ZM16.5 19.5L16.8371 18.83L16.4826 18.6517L16.1358 18.8444L16.5 19.5ZM20.5 21.5123L20.1629 22.1823C20.3954 22.2993 20.672 22.2873 20.8935 22.1508C21.1151 22.0142 21.25 21.7726 21.25 21.5123H20.5ZM3.50139 21.5123L2.75139 21.5124C2.7514 21.7726 2.88636 22.0143 3.10794 22.1508C3.32952 22.2874 3.60605 22.2993 3.83854 22.1823L3.50139 21.5123ZM3.5 2V1.25C3.30108 1.25 3.1103 1.32902 2.96965 1.46969C2.829 1.61035 2.74999 1.80113 2.75 2.00005L3.5 2ZM20.5 2H21.25C21.25 1.58579 20.9142 1.25 20.5 1.25V2ZM7.13577 20.1556L11.6358 22.6556L12.3642 21.3444L7.86423 18.8444L7.13577 20.1556ZM7.16285 18.8301L3.16423 20.8424L3.83854 22.1823L7.83715 20.1699L7.16285 18.8301ZM3.5 2.75H20.5V1.25H3.5V2.75ZM19.75 2V21.5123H21.25V2H19.75ZM2.75 2.00005L2.75139 21.5124L4.25139 21.5123L4.25 1.99995L2.75 2.00005ZM20.8371 20.8423L16.8371 18.83L16.1629 20.17L20.1629 22.1823L20.8371 20.8423ZM16.1358 18.8444L11.6358 21.3444L12.3642 22.6556L16.8642 20.1556L16.1358 18.8444Z" fill="#141B34"/>
</svg>
