<svg width="24" height="24" viewBox="0 0 24 24" fill="none" xmlns="http://www.w3.org/2000/svg">
<path d="M11 15C6.58172 15 3 13.6569 3 12" stroke="#141B34" stroke-width="1.5" stroke-linejoin="round"/>
<path d="M19 5V11.5M3 5V19C3 20.6569 6.58172 22 11 22C11.1679 22 11.3346 21.9981 11.5 21.9942" stroke="#141B34" stroke-width="1.5" stroke-linejoin="round"/>
<ellipse cx="11" cy="5" rx="8" ry="3" stroke="#141B34" stroke-width="1.5"/>
<path d="M7 8V10.5" stroke="#141B34" stroke-width="1.5" stroke-linejoin="round"/>
<path d="M7 15V17.5" stroke="#141B34" stroke-width="1.5" stroke-linejoin="round"/>
<path d="M20.25 18C20.25 19.7949 18.7949 21.25 17 21.25V22.75C19.6234 22.75 21.75 20.6234 21.75 18H20.25ZM17 21.25C15.2051 21.25 13.75 19.7949 13.75 18H12.25C12.25 20.6234 14.3766 22.75 17 22.75V21.25ZM13.75 18C13.75 16.2051 15.2051 14.75 17 14.75V13.25C14.3766 13.25 12.25 15.3766 12.25 18H13.75ZM17 14.75C18.7949 14.75 20.25 16.2051 20.25 18H21.75C21.75 15.3766 19.6234 13.25 17 13.25V14.75ZM16.25 16V20H17.75V16H16.25ZM15 18.75H19V17.25H15V18.75Z" fill="#141B34"/>
</svg>
