<svg width="24" height="24" viewBox="0 0 24 24" fill="none" xmlns="http://www.w3.org/2000/svg">
<path d="M9 5V4.25C8.58579 4.25 8.25 4.58579 8.25 5H9ZM9 12H8.25C8.25 12.4142 8.58579 12.75 9 12.75V12ZM16 5L16.5694 4.51191L16.345 4.25H16V5ZM16 12V12.75H16.345L16.5694 12.4881L16 12ZM19 8.5L19.5694 8.98809L19.9878 8.5L19.5694 8.01191L19 8.5ZM8.25 5V12H9.75V5H8.25ZM16 4.25H9V5.75H16V4.25ZM9 12.75H16V11.25H9V12.75ZM18.4306 8.01191L15.4306 11.5119L16.5694 12.4881L19.5694 8.98809L18.4306 8.01191ZM15.4306 5.48809L18.4306 8.98809L19.5694 8.01191L16.5694 4.51191L15.4306 5.48809Z" fill="#141B34"/>
<path d="M9 3L9 21" stroke="#141B34" stroke-width="1.5" stroke-linejoin="round"/>
<path d="M5 21H13" stroke="#141B34" stroke-width="1.5" stroke-linejoin="round"/>
</svg>
