<svg width="24" height="24" viewBox="0 0 24 24" fill="none" xmlns="http://www.w3.org/2000/svg">
<path d="M20 2L20.75 2C20.75 1.58579 20.4142 1.25 20 1.25L20 2ZM3 22L2.25 22C2.25 22.4142 2.58579 22.75 3 22.75L3 22ZM10 2L10 1.25L9.68934 1.25L9.46967 1.46967L10 2ZM3 9L2.46967 8.46967L2.25 8.68934L2.25 9L3 9ZM20 21.25L3 21.25L3 22.75L20 22.75L20 21.25ZM19.25 2L19.25 10L20.75 10L20.75 2L19.25 2ZM20 1.25L10 1.25L10 2.75L20 2.75L20 1.25ZM2.25 9L2.25 22L3.75 22L3.75 9L2.25 9ZM9.46967 1.46967L2.46967 8.46967L3.53033 9.53033L10.5303 2.53033L9.46967 1.46967Z" fill="#141B34"/>
<path d="M10 2L10 9L3 9" stroke="#141B34" stroke-width="1.5"/>
<path d="M7 18H6.25V18.75H7V18ZM7 13V12.25H6.25V13H7ZM21 13H21.75C21.75 12.5858 21.4142 12.25 21 12.25V13ZM18 13V12.25C17.5858 12.25 17.25 12.5858 17.25 13H18ZM18 18H17.25C17.25 18.4142 17.5858 18.75 18 18.75V18ZM21 18V18.75C21.4142 18.75 21.75 18.4142 21.75 18H21ZM7.75 18V13H6.25V18H7.75ZM7 13.75H7.52952V12.25H7V13.75ZM7.52952 17.25H7V18.75H7.52952V17.25ZM9.25 15.5C9.25 16.4749 8.47134 17.25 7.52952 17.25V18.75C9.31651 18.75 10.75 17.2865 10.75 15.5H9.25ZM7.52952 13.75C8.47134 13.75 9.25 14.5251 9.25 15.5H10.75C10.75 13.7135 9.31651 12.25 7.52952 12.25V13.75ZM21.75 14.25V13H20.25V14.25H21.75ZM21 12.25H18V13.75H21V12.25ZM17.25 13V18H18.75V13H17.25ZM18 18.75H21V17.25H18V18.75ZM21.75 18V16.75H20.25V18H21.75ZM14.75 14.5V16.5H16.25V14.5H14.75ZM13.25 16.5V14.5H11.75V16.5H13.25ZM14 17.25C13.5858 17.25 13.25 16.9142 13.25 16.5H11.75C11.75 17.7426 12.7574 18.75 14 18.75V17.25ZM14.75 16.5C14.75 16.9142 14.4142 17.25 14 17.25V18.75C15.2426 18.75 16.25 17.7426 16.25 16.5H14.75ZM14 13.75C14.4142 13.75 14.75 14.0858 14.75 14.5H16.25C16.25 13.2574 15.2426 12.25 14 12.25V13.75ZM14 12.25C12.7574 12.25 11.75 13.2574 11.75 14.5H13.25C13.25 14.0858 13.5858 13.75 14 13.75V12.25Z" fill="#141B34"/>
</svg>
