<svg width="24" height="24" viewBox="0 0 24 24" fill="none" xmlns="http://www.w3.org/2000/svg">
<path d="M20.5 22V22.75C20.9142 22.75 21.25 22.4142 21.25 22H20.5ZM3.5 22H2.75C2.75 22.4142 3.08579 22.75 3.5 22.75V22ZM20.5 2H21.25C21.25 1.58579 20.9142 1.25 20.5 1.25V2ZM10.5 2V1.25H10.1893L9.96967 1.46967L10.5 2ZM3.5 9L2.96967 8.46967L2.75 8.68934V9H3.5ZM10.5 9V9.75H11.25V9H10.5ZM15 22L14.4238 22.4801L14.6487 22.75H15V22ZM12.5 19L11.9697 18.4697C11.6954 18.744 11.6755 19.1821 11.9238 19.4801L12.5 19ZM15 16.5L15.5303 17.0303C15.8232 16.7374 15.8232 16.2626 15.5303 15.9697L15 16.5ZM12.5 14L11.9697 13.4697C11.6768 13.7626 11.6768 14.2374 11.9697 14.5303L12.5 14ZM19.75 2V22H21.25V2H19.75ZM20.5 1.25H10.5V2.75H20.5V1.25ZM2.75 9V22H4.25V9H2.75ZM9.96967 1.46967L2.96967 8.46967L4.03033 9.53033L11.0303 2.53033L9.96967 1.46967ZM9.75 2V9H11.25V2H9.75ZM10.5 8.25H3.5V9.75H10.5V8.25ZM20.5 21.25H15V22.75H20.5V21.25ZM15.5762 21.5199L13.0762 18.5199L11.9238 19.4801L14.4238 22.4801L15.5762 21.5199ZM13.0303 19.5303L15.5303 17.0303L14.4697 15.9697L11.9697 18.4697L13.0303 19.5303ZM15.5303 15.9697L13.0303 13.4697L11.9697 14.5303L14.4697 17.0303L15.5303 15.9697ZM13.0303 14.5303L15.5303 12.0303L14.4697 10.9697L11.9697 13.4697L13.0303 14.5303ZM10 21.25H3.5V22.75H10V21.25Z" fill="#141B34"/>
</svg>
