<svg width="24" height="24" viewBox="0 0 24 24" fill="none" xmlns="http://www.w3.org/2000/svg">
<path d="M2.00086 7L1.25086 7.00016L1.25094 7.35131L1.52068 7.57613L2.00086 7ZM8 12L8.74541 11.9172L8.71208 11.6171L8.48018 11.4239L8 12ZM9 21L8.25459 21.0828C8.28167 21.3265 8.42618 21.5416 8.64159 21.6588C8.85699 21.776 9.11608 21.7805 9.33541 21.6708L9 21ZM13 19L13.3354 19.6708L13.6869 19.4951L13.7425 19.1061L13 19ZM2 3V2.25C1.80106 2.25 1.61027 2.32904 1.46961 2.46973C1.32896 2.61041 1.24996 2.80122 1.25 3.00016L2 3ZM20 3H20.75C20.75 2.58579 20.4142 2.25 20 2.25V3ZM1.52068 7.57613L7.51982 12.5761L8.48018 11.4239L2.48104 6.42387L1.52068 7.57613ZM7.25459 12.0828L8.25459 21.0828L9.74541 20.9172L8.74541 11.9172L7.25459 12.0828ZM2 3.75H20V2.25H2V3.75ZM9.33541 21.6708L13.3354 19.6708L12.6646 18.3292L8.66459 20.3292L9.33541 21.6708ZM1.25 3.00016L1.25086 7.00016L2.75086 6.99984L2.75 2.99984L1.25 3.00016ZM19.25 3V5H20.75V3H19.25ZM13.7425 19.1061L14.0282 17.1061L12.5433 16.8939L12.2575 18.8939L13.7425 19.1061Z" fill="#141B34"/>
<path d="M14 15H13.25V15.75H14V15ZM14 12.5L13.4697 11.9697L13.25 12.1893V12.5H14ZM16.5 15V15.75H16.8107L17.0303 15.5303L16.5 15ZM19.5 7L20.0303 6.46967C19.7374 6.17678 19.2626 6.17678 18.9697 6.46967L19.5 7ZM22 9.5L22.5303 10.0303C22.8232 9.73744 22.8232 9.26256 22.5303 8.96967L22 9.5ZM14.75 15V12.5H13.25V15H14.75ZM14 15.75H16.5V14.25H14V15.75ZM14.5303 13.0303L20.0303 7.53033L18.9697 6.46967L13.4697 11.9697L14.5303 13.0303ZM18.9697 7.53033L21.4697 10.0303L22.5303 8.96967L20.0303 6.46967L18.9697 7.53033ZM21.4697 8.96967L15.9697 14.4697L17.0303 15.5303L22.5303 10.0303L21.4697 8.96967Z" fill="#141B34"/>
</svg>
