<svg width="24" height="24" viewBox="0 0 24 24" fill="none" xmlns="http://www.w3.org/2000/svg">
<path d="M5.92857 20.6058C3.85602 19.1977 2.5 16.8583 2.5 14.2103V9.75757C2.5 8.57285 2.77144 7.44988 3.25704 6.44444M9.35714 21.9236C10.2589 22.0493 11.1494 22.0167 12 21.8493M17.7301 6.41803C15.636 2.12432 9.89955 0.664089 5.92857 3.36201M18.5 9.33333V11.5M10.5 6C12.7091 6 14.5 7.8804 14.5 10.2M6.88493 8.4C6.63811 8.94555 6.5 9.55584 6.5 10.2V13.8C6.5 16.1196 8.29086 18 10.5 18C10.6693 18 10.8362 17.989 11 17.9675M10.5 10.5V13.5" stroke="#141B34" stroke-width="1.5" stroke-linejoin="round"/>
<path d="M17 19L16.4697 19.5303L17 20.0607L17.5303 19.5303L17 19ZM20.75 18C20.75 19.7949 19.2949 21.25 17.5 21.25V22.75C20.1234 22.75 22.25 20.6234 22.25 18H20.75ZM17.5 21.25C15.7051 21.25 14.25 19.7949 14.25 18H12.75C12.75 20.6234 14.8766 22.75 17.5 22.75V21.25ZM14.25 18C14.25 16.2051 15.7051 14.75 17.5 14.75V13.25C14.8766 13.25 12.75 15.3766 12.75 18H14.25ZM17.5 14.75C19.2949 14.75 20.75 16.2051 20.75 18H22.25C22.25 15.3766 20.1234 13.25 17.5 13.25V14.75ZM15.1983 18.2589L16.4697 19.5303L17.5303 18.4697L16.2589 17.1983L15.1983 18.2589ZM17.5303 19.5303L19.8549 17.2058L18.7942 16.1451L16.4697 18.4697L17.5303 19.5303Z" fill="#141B34"/>
</svg>
