<svg width="24" height="24" viewBox="0 0 24 24" fill="none" xmlns="http://www.w3.org/2000/svg">
<path d="M2 17C3.63025 20.3926 6.29407 21.6055 9.5 20.721" stroke="#141B34" stroke-width="1.5" stroke-linejoin="round"/>
<path d="M11 16.4922L11.6345 16.8921C11.7611 16.6913 11.7851 16.4424 11.6993 16.2211C11.6134 15.9998 11.4279 15.8321 11.1991 15.7691L11 16.4922ZM16 16.4922L15.8009 15.7691C15.5721 15.8321 15.3866 15.9998 15.3007 16.2211C15.2149 16.4424 15.2389 16.6913 15.3655 16.8921L16 16.4922ZM10.1515 3.42249L9.66201 3.99075L9.95606 4.24403L10.3327 4.15028L10.1515 3.42249ZM6.31748 5.96247L6.93108 6.39373L7.12789 6.11372L7.04533 5.78156L6.31748 5.96247ZM16.8485 3.42252L16.6673 4.1503L17.0439 4.24406L17.338 3.99077L16.8485 3.42252ZM20.6825 5.96247L19.9547 5.78156L19.8721 6.11372L20.0689 6.39373L20.6825 5.96247ZM20.6068 2L21.3056 1.72771C21.1934 1.43967 20.9159 1.25 20.6068 1.25V2ZM6.39322 2V1.25C6.08409 1.25 5.80663 1.43967 5.6944 1.72771L6.39322 2ZM11.1991 15.7691C9.71636 15.361 8.35833 14.8022 7.37257 13.8754C6.4169 12.9768 5.75 11.6745 5.75 9.6286H4.25C4.25 12.0507 5.06153 13.7613 6.34507 14.9682C7.59852 16.1467 9.24049 16.7858 10.8009 17.2153L11.1991 15.7691ZM21.25 9.6286C21.25 11.6745 20.5831 12.9768 19.6274 13.8754C18.6417 14.8022 17.2836 15.361 15.8009 15.7691L16.1991 17.2153C17.7595 16.7858 19.4015 16.1467 20.6549 14.9682C21.9385 13.7613 22.75 12.0507 22.75 9.6286H21.25ZM9.25 18.4951V22H10.75V18.4951H9.25ZM16.25 18.4951V22H17.75V18.4951H16.25ZM10.3655 16.0924C10.3212 16.1627 10.2546 16.2456 10.1382 16.3879C10.0327 16.5169 9.8953 16.6844 9.76641 16.8761C9.49954 17.273 9.25 17.8003 9.25 18.4951H10.75C10.75 18.1884 10.8522 17.9495 11.0112 17.713C11.0953 17.588 11.1894 17.4719 11.2992 17.3377C11.3981 17.2168 11.5306 17.057 11.6345 16.8921L10.3655 16.0924ZM15.3655 16.8921C15.4694 17.057 15.6019 17.2168 15.7008 17.3377C15.8106 17.4719 15.9047 17.588 15.9888 17.713C16.1478 17.9495 16.25 18.1884 16.25 18.4951H17.75C17.75 17.8003 17.5005 17.273 17.2336 16.8761C17.1047 16.6844 16.9673 16.5169 16.8618 16.3879C16.7454 16.2456 16.6788 16.1627 16.6345 16.0924L15.3655 16.8921ZM10.3327 4.15028C11.0491 3.97193 12.0928 3.72317 13.5 3.72315L13.5 2.22315C11.9072 2.22318 10.7218 2.50761 9.9703 2.6947L10.3327 4.15028ZM5.75 9.6286C5.75 9.17157 5.88162 8.58708 6.11005 7.98082C6.33606 7.38098 6.63711 6.81199 6.93108 6.39373L5.70387 5.5312C5.32979 6.06345 4.9721 6.74673 4.70638 7.45193C4.44309 8.15071 4.25 8.92404 4.25 9.6286H5.75ZM13.5 3.72315C14.9072 3.72312 15.9509 3.97195 16.6673 4.1503L17.0297 2.69473C16.2782 2.50765 15.0928 2.22312 13.5 2.22315L13.5 3.72315ZM20.0689 6.39373C20.3629 6.81199 20.6639 7.38098 20.8899 7.98082C21.1184 8.58708 21.25 9.17157 21.25 9.6286H22.75C22.75 8.92404 22.5569 8.15071 22.2936 7.45193C22.0279 6.74673 21.6702 6.06345 21.2961 5.5312L20.0689 6.39373ZM21.4104 6.14337C21.568 5.50932 21.6612 4.72946 21.6599 3.96175C21.6586 3.20254 21.5649 2.3931 21.3056 1.72771L19.908 2.27229C20.0732 2.6964 20.1588 3.29919 20.1599 3.96433C20.161 4.62098 20.0799 5.2776 19.9547 5.78156L21.4104 6.14337ZM20.6068 2C20.6068 1.25 20.6065 1.25 20.6063 1.25C20.6062 1.25 20.6059 1.25 20.6057 1.25C20.6053 1.25 20.6049 1.25 20.6044 1.25C20.6035 1.25001 20.6024 1.25001 20.6013 1.25002C20.5989 1.25003 20.596 1.25005 20.5926 1.25009C20.5858 1.25016 20.577 1.25029 20.5663 1.25053C20.5447 1.251 20.5154 1.25189 20.4788 1.25356C20.4057 1.2569 20.3036 1.26337 20.1775 1.27591C19.9259 1.30095 19.5761 1.3505 19.1702 1.44895C18.3635 1.6446 17.3027 2.04148 16.359 2.85426L17.338 3.99077C18.0459 3.38104 18.8641 3.06666 19.5237 2.90668C19.851 2.82732 20.131 2.78795 20.3261 2.76854C20.4233 2.75886 20.4987 2.75422 20.5472 2.752C20.5715 2.75089 20.589 2.75039 20.5992 2.75017C20.6042 2.75006 20.6075 2.75001 20.6087 2.75C20.6094 2.74999 20.6096 2.74999 20.6092 2.74999C20.6091 2.75 20.6088 2.75 20.6084 2.75C20.6082 2.75 20.6079 2.75 20.6077 2.75C20.6075 2.75 20.6073 2.75 20.6072 2.75C20.607 2.75 20.6068 2.75 20.6068 2ZM10.6409 2.85423C9.69734 2.04146 8.63648 1.64459 7.82982 1.44894C7.42392 1.3505 7.07406 1.30095 6.82249 1.27591C6.69644 1.26337 6.59428 1.2569 6.52119 1.25356C6.48462 1.25189 6.45525 1.251 6.43373 1.25053C6.42297 1.25029 6.41416 1.25016 6.40738 1.25009C6.40399 1.25005 6.40111 1.25003 6.39875 1.25002C6.39757 1.25001 6.39652 1.25001 6.39559 1.25C6.39513 1.25 6.39471 1.25 6.39431 1.25C6.39411 1.25 6.39384 1.25 6.39374 1.25C6.39348 1.25 6.39322 1.25 6.39322 2C6.39322 2.75 6.39298 2.75 6.39275 2.75C6.39268 2.75 6.39246 2.75 6.39233 2.75C6.39206 2.75 6.39182 2.75 6.39162 2.75C6.39121 2.75 6.39092 2.75 6.39076 2.74999C6.39044 2.74999 6.3906 2.74999 6.39125 2.75C6.39255 2.75001 6.39577 2.75006 6.40084 2.75017C6.41098 2.75039 6.42849 2.75089 6.45276 2.752C6.50133 2.75422 6.57667 2.75886 6.67393 2.76854C6.86899 2.78795 7.14904 2.82731 7.47627 2.90668C8.13587 3.06666 8.95414 3.38103 9.66201 3.99075L10.6409 2.85423ZM5.6944 1.72771C5.43514 2.3931 5.3414 3.20254 5.3401 3.96175C5.33877 4.72946 5.43204 5.50932 5.58962 6.14337L7.04533 5.78156C6.92008 5.2776 6.83896 4.62098 6.84009 3.96433C6.84124 3.29919 6.9268 2.6964 7.09205 2.27229L5.6944 1.72771Z" fill="#141B34"/>
</svg>
