<svg width="24" height="24" viewBox="0 0 24 24" fill="none" xmlns="http://www.w3.org/2000/svg">
<path d="M11.9579 19.3211L12.4865 18.7891L11.9579 19.3211ZM17.6853 18.9985L18.0092 19.6749L18.0092 19.6749L17.6853 18.9985ZM19.9934 17.8919V17.1419H19.8228L19.669 17.2157L19.9934 17.8919ZM13.9961 9V9.75H15.8719L14.5132 8.45675L13.9961 9ZM11.6674 6.78341L11.1055 7.2802L11.1269 7.30439L11.1503 7.32666L11.6674 6.78341ZM14.0847 4.3775L13.6207 4.96668L13.6263 4.9711L13.632 4.97541L14.0847 4.3775ZM19.9934 8.85181L19.5406 9.44972L19.7415 9.60181H19.9934V8.85181ZM11.9014 4.36948L11.4418 3.77682L11.4418 3.77682L11.9014 4.36948ZM3.74609 9V9.75V9ZM9.49609 12.5L10.2454 12.5333L10.2802 11.75H9.49609V12.5ZM11.4293 19.8531C12.3712 20.789 13.749 20.8445 14.8892 20.6737C16.0659 20.4975 17.232 20.0471 18.0092 19.6749L17.3614 18.322C16.6619 18.657 15.6447 19.0439 14.6671 19.1903C13.653 19.3421 12.9054 19.2053 12.4865 18.7891L11.4293 19.8531ZM18.0092 19.6749C18.4088 19.4835 18.986 19.2068 19.4632 18.978C19.7018 18.8636 19.9155 18.7611 20.0695 18.6872C20.1465 18.6503 20.2085 18.6205 20.2514 18.6C20.2728 18.5897 20.2894 18.5817 20.3007 18.5763C20.3063 18.5736 20.3106 18.5716 20.3135 18.5702C20.3149 18.5695 20.316 18.569 20.3167 18.5686C20.3171 18.5684 20.3174 18.5683 20.3175 18.5682C20.3176 18.5682 20.3177 18.5681 20.3177 18.5681C20.3178 18.5681 20.3178 18.5681 20.3178 18.5681C20.3178 18.5681 20.3178 18.5681 19.9934 17.8919C19.669 17.2157 19.669 17.2157 19.669 17.2157C19.669 17.2157 19.669 17.2157 19.6689 17.2157C19.6689 17.2157 19.6688 17.2158 19.6687 17.2158C19.6686 17.2159 19.6683 17.216 19.6679 17.2162C19.6672 17.2165 19.6661 17.2171 19.6647 17.2178C19.6618 17.2191 19.6575 17.2212 19.6519 17.2239C19.6406 17.2293 19.624 17.2372 19.6026 17.2475C19.5598 17.2681 19.4977 17.2978 19.4207 17.3348C19.2668 17.4086 19.0532 17.5111 18.8146 17.6255C18.3374 17.8543 17.7606 18.1309 17.3614 18.322L18.0092 19.6749ZM14.5132 8.45675L12.1844 6.24016L11.1503 7.32666L13.479 9.54325L14.5132 8.45675ZM13.632 4.97541L19.5406 9.44972L20.4462 8.25389L14.5375 3.77958L13.632 4.97541ZM12.361 4.96214C12.728 4.67752 13.2561 4.67956 13.6207 4.96668L14.5488 3.78831C13.6429 3.07482 12.3529 3.07019 11.4418 3.77682L12.361 4.96214ZM12.2292 6.28661C11.879 5.89049 11.9316 5.29514 12.361 4.96214L11.4418 3.77682C10.3349 4.63524 10.1754 6.22827 11.1055 7.2802L12.2292 6.28661ZM19.9934 18.6419H21.9961V17.1419H19.9934V18.6419ZM3.74609 9.75L13.9961 9.75V8.25L3.74609 8.25V9.75ZM3.74609 13.25H9.49609V11.75H3.74609V13.25ZM8.74683 12.4667C8.66622 14.2796 9.0724 17.5111 11.4293 19.8531L12.4865 18.7891C10.5531 16.8679 10.174 14.1369 10.2454 12.5333L8.74683 12.4667ZM3.74609 8.25C2.36538 8.25 1.24609 9.36929 1.24609 10.75H2.74609C2.74609 10.1977 3.19381 9.75 3.74609 9.75V8.25ZM1.24609 10.75C1.24609 12.1307 2.36538 13.25 3.74609 13.25V11.75C3.19381 11.75 2.74609 11.3023 2.74609 10.75H1.24609ZM21.9961 8.10181H19.9934V9.60181H21.9961V8.10181Z" fill="#141B34"/>
</svg>
