<svg width="24" height="24" viewBox="0 0 24 24" fill="none" xmlns="http://www.w3.org/2000/svg">
<path d="M18 5.54839L17.5695 6.16256L17.5813 6.17081L17.5934 6.17861L18 5.54839ZM22 8.12903H22.75V7.72036L22.4066 7.49881L22 8.12903ZM11.3747 6.09992L10.8627 5.55194L10.8424 5.57091L10.8235 5.59133L11.3747 6.09992ZM14.9372 4.00535L14.9831 3.25676L14.9372 4.00535ZM14.1756 4.06095L14.0216 3.32692L14.1756 4.06095ZM3.5 7.61291V8.36291V8.36291V7.61291ZM11 16.8179L11.2499 16.1107L11 16.8179ZM10 13.7211L10.2499 13.014L10 13.7211ZM17.5934 6.17861L21.5934 8.75925L22.4066 7.49881L18.4066 4.91816L17.5934 6.17861ZM10.8235 5.59133L9.44879 7.08126L10.5512 8.09844L11.9259 6.60851L10.8235 5.59133ZM18.4305 4.93421C16.9842 3.92061 16.0445 3.32186 14.9831 3.25676L14.8913 4.75395C15.4546 4.7885 16.0429 5.0926 17.5695 6.16256L18.4305 4.93421ZM11.8868 6.6479C12.5651 6.01401 13.0353 5.57575 13.4333 5.27019C13.8207 4.97281 14.0836 4.84656 14.3295 4.79498L14.0216 3.32692C13.4696 3.4427 12.9996 3.71206 12.5199 4.0804C12.0508 4.44055 11.5195 4.93809 10.8627 5.55194L11.8868 6.6479ZM14.9831 3.25676C14.6609 3.237 14.3377 3.26061 14.0216 3.32692L14.3295 4.79498C14.5146 4.75617 14.7033 4.74242 14.8913 4.75395L14.9831 3.25676ZM14.5 6.8629L3.5 6.86291V8.36291L14.5 8.3629V6.8629ZM3.5 11.4597H9V9.95968H3.5V11.4597ZM1.25 9.16129C1.25 10.408 2.23509 11.4597 3.5 11.4597V9.95968C3.10805 9.95968 2.75 9.62485 2.75 9.16129H1.25ZM3.5 6.86291C2.23509 6.86291 1.25 7.91455 1.25 9.16129H2.75C2.75 8.69773 3.10805 8.36291 3.5 8.36291V6.86291ZM8.25 10.7097V12.3065H9.75V10.7097H8.25ZM10.5 14.5565H12.5V13.0565H10.5V14.5565ZM11.5 17.6532H13.1943V16.1532H11.5V17.6532ZM9 11.4597L12 11.4597V9.95968L9 9.95968V11.4597ZM12.5 20.75H19V19.25H12.5V20.75ZM21.25 8.12903V16.9032H22.75V8.12903H21.25ZM19 20.75C21.0933 20.75 22.75 19.0051 22.75 16.9032H21.25C21.25 18.2219 20.2204 19.25 19 19.25V20.75ZM10.25 18.5C10.25 19.7426 11.2574 20.75 12.5 20.75V19.25C12.0858 19.25 11.75 18.9142 11.75 18.5H10.25ZM9.25 15.4032C9.25 16.3841 9.87718 17.2165 10.7501 17.525L11.2499 16.1107C10.9576 16.0074 10.75 15.7286 10.75 15.4032H9.25ZM10.7501 17.525C10.9856 17.6083 11.2384 17.6532 11.5 17.6532V16.1532C11.411 16.1532 11.3272 16.138 11.2499 16.1107L10.7501 17.525ZM11.75 18.5V16.8179H10.25V18.5H11.75ZM8.25 12.3065C8.25 13.2873 8.87718 14.1197 9.75007 14.4282L10.2499 13.014C9.95763 12.9107 9.75 12.6318 9.75 12.3065H8.25ZM9.75006 14.4282C9.98561 14.5115 10.2384 14.5565 10.5 14.5565V13.0565C10.411 13.0565 10.3272 13.0413 10.2499 13.014L9.75006 14.4282ZM10.75 15.4032V13.7211H9.25V15.4032H10.75Z" fill="#141B34"/>
</svg>
