<svg width="24" height="24" viewBox="0 0 24 24" fill="none" xmlns="http://www.w3.org/2000/svg">
<path d="M1.99951 2L21.9995 22" stroke="#141B34" stroke-width="1.5"/>
<path d="M6.99951 13.5V19.5L4.99951 20.5C3.32699 19.0478 2.49072 18.3217 2.18472 17.521C2.05664 17.1859 1.99499 16.8428 1.99977 16.5C1.99499 16.1572 2.05664 15.8141 2.18472 15.479C2.49072 14.6783 3.32699 13.9522 4.99951 12.5L6.99951 13.5Z" stroke="#141B34" stroke-width="1.5"/>
<path d="M19.0007 12.5002L17.0007 13.5002M19.0007 12.5002C20.6732 13.9524 21.5095 14.6785 21.8155 15.4792C21.9436 15.8143 22.0052 16.1574 22.0004 16.5002C22.0052 16.843 21.9436 17.1861 21.8155 17.5212C21.7493 17.6945 21.6582 17.8643 21.5392 18.0387M19.0007 12.5002L19 10.5C19 6.63401 15.866 3.5 12 3.5C10.5786 3.5 9.25617 3.92365 8.15205 4.65156M5 12.5V10.5C5 8.94955 5.50407 7.51683 6.35728 6.35679" stroke="#141B34" stroke-width="1.5" stroke-linejoin="round"/>
</svg>
