<svg width="24" height="24" viewBox="0 0 24 24" fill="none" xmlns="http://www.w3.org/2000/svg">
<path d="M22 22V17H16V22H22Z" stroke="#141B34" stroke-width="1.5" stroke-linejoin="round"/>
<path d="M8 22V17H2V22H8Z" stroke="#141B34" stroke-width="1.5" stroke-linejoin="round"/>
<path d="M19 17V14H5.00101L5 17" stroke="#141B34" stroke-width="1.5" stroke-linejoin="round"/>
<path d="M15 10.5V11.25H15.75V10.5H15ZM9 10.5H8.25V11.25H9V10.5ZM12.75 3.5C12.75 3.91421 12.4142 4.25 12 4.25V5.75C13.2426 5.75 14.25 4.74264 14.25 3.5H12.75ZM12 4.25C11.5858 4.25 11.25 3.91421 11.25 3.5H9.75C9.75 4.74264 10.7574 5.75 12 5.75V4.25ZM11.25 3.5C11.25 3.08579 11.5858 2.75 12 2.75V1.25C10.7574 1.25 9.75 2.25736 9.75 3.5H11.25ZM12 2.75C12.4142 2.75 12.75 3.08579 12.75 3.5H14.25C14.25 2.25736 13.2426 1.25 12 1.25V2.75ZM9 11.25H15V9.75H9V11.25ZM12 8.25C13.2426 8.25 14.25 9.25736 14.25 10.5H15.75C15.75 8.42893 14.0711 6.75 12 6.75V8.25ZM12 6.75C9.92893 6.75 8.25 8.42893 8.25 10.5H9.75C9.75 9.25736 10.7574 8.25 12 8.25V6.75Z" fill="#141B34"/>
</svg>
