<svg width="24" height="24" viewBox="0 0 24 24" fill="none" xmlns="http://www.w3.org/2000/svg">
<path d="M6 21L5.27886 21.206L5.43427 21.75H6V21ZM18 21V21.75H18.5657L18.7211 21.206L18 21ZM3.27886 14.206L5.27886 21.206L6.72114 20.794L4.72114 13.794L3.27886 14.206ZM19.2789 13.794L17.2789 20.794L18.7211 21.206L20.7211 14.206L19.2789 13.794ZM6 21.75H18V20.25H6V21.75ZM4 14.75H20V13.25H4V14.75ZM20 14.75H22V13.25H20V14.75ZM4 13.25H2V14.75H4V13.25Z" fill="#141B34"/>
<path d="M18.5 11C19.1667 10.3096 19.1667 9.19036 18.5 8.5C17.8333 7.80964 17.8333 6.69036 18.5 6M15.5 11C16.1667 10.3096 16.1667 9.19036 15.5 8.5C14.8333 7.80964 14.8333 6.69036 15.5 6" stroke="#141B34" stroke-width="1.5"/>
<path d="M5 14V9.5H9L13.5 16.5M9 5C9 6.10457 8.10457 7 7 7C5.89543 7 5 6.10457 5 5C5 3.89543 5.89543 3 7 3C8.10457 3 9 3.89543 9 5Z" stroke="#141B34" stroke-width="1.5" stroke-linejoin="round"/>
</svg>
