<svg width="24" height="24" viewBox="0 0 24 24" fill="none" xmlns="http://www.w3.org/2000/svg">
<path d="M3 7V22H21V7" stroke="#141B34" stroke-width="1.5"/>
<path d="M14 22V16L10 16L10 22" stroke="#141B34" stroke-width="1.5" stroke-linejoin="round"/>
<path d="M7 7V7.75H7.75V7H7ZM17 7H16.25V7.75H17V7ZM4 3V2.25C3.71592 2.25 3.45622 2.4105 3.32918 2.66459L4 3ZM2 7L1.32918 6.66459C1.21293 6.89708 1.22536 7.17319 1.36201 7.3943C1.49867 7.61541 1.74007 7.75 2 7.75V7ZM20 3L20.6708 2.66459C20.5438 2.4105 20.2841 2.25 20 2.25V3ZM22 7V7.75C22.2599 7.75 22.5013 7.61541 22.638 7.3943C22.7746 7.17319 22.7871 6.89708 22.6708 6.66459L22 7ZM7.75 7C7.75 4.65279 9.65279 2.75 12 2.75V1.25C8.82436 1.25 6.25 3.82436 6.25 7H7.75ZM12 2.75C14.3472 2.75 16.25 4.65279 16.25 7H17.75C17.75 3.82436 15.1756 1.25 12 1.25V2.75ZM4 3.75H9V2.25H4V3.75ZM2 7.75H7V6.25H2V7.75ZM2.67082 7.33541L4.67082 3.33541L3.32918 2.66459L1.32918 6.66459L2.67082 7.33541ZM20 2.25H15V3.75H20V2.25ZM22 6.25H17V7.75H22V6.25ZM22.6708 6.66459L20.6708 2.66459L19.3292 3.33541L21.3292 7.33541L22.6708 6.66459Z" fill="#141B34"/>
<path d="M5.5 11H7.5M5.5 14.5H7.5" stroke="#141B34" stroke-width="1.5" stroke-linejoin="round"/>
<path d="M16.5 11H18.5M16.5 14.5H18.5" stroke="#141B34" stroke-width="1.5" stroke-linejoin="round"/>
<path d="M10.5 7V9.5M10.5 12V9.5M13.5 7V9.5M13.5 12V9.5M10.5 9.5H13.5" stroke="#141B34" stroke-width="1.5" stroke-linejoin="round"/>
</svg>
