<svg width="24" height="24" viewBox="0 0 24 24" fill="none" xmlns="http://www.w3.org/2000/svg">
<path d="M6.00204 2V1.25H5.48241L5.29985 1.7365L6.00204 2ZM3 10L2.29781 9.7365C2.21138 9.96683 2.2434 10.2249 2.38351 10.4271C2.52361 10.6293 2.75399 10.75 3 10.75L3 10ZM18.002 2L18.7043 1.73666L18.5218 1.25H18.002V2ZM21.002 10V10.75C21.248 10.75 21.4784 10.6294 21.6185 10.4272C21.7586 10.225 21.7907 9.967 21.7043 9.73667L21.002 10ZM5.29985 1.7365L2.29781 9.7365L3.70219 10.2635L6.70423 2.2635L5.29985 1.7365ZM17.2998 2.26334L20.2998 10.2634L21.7043 9.73667L18.7043 1.73666L17.2998 2.26334ZM3 10.75L21.002 10.75V9.25002L3 9.25L3 10.75ZM6.00204 2.75H18.002V1.25H6.00204V2.75Z" fill="#141B34"/>
<path d="M4.5 10V18.9957L7 19M19.5 10V19H17" stroke="#141B34" stroke-width="1.5" stroke-linejoin="round"/>
<path d="M13.0013 14L10 18H14.0013L10.9846 22" stroke="#141B34" stroke-width="1.5"/>
<path d="M10 2L9 10M14 2L15 10" stroke="#141B34" stroke-width="1.5" stroke-linejoin="round"/>
<path d="M4.5 6H19.5" stroke="#141B34" stroke-width="1.5" stroke-linejoin="round"/>
</svg>
