<svg width="24" height="24" viewBox="0 0 24 24" fill="none" xmlns="http://www.w3.org/2000/svg">
<path d="M4 21L3.25658 20.9009C3.22239 21.1573 3.32276 21.4132 3.52214 21.5781C3.72151 21.7429 3.99176 21.7933 4.23717 21.7115L4 21ZM7 20L7.53033 19.4697L7.20257 19.1419L6.76283 19.2885L7 20ZM9 22L8.46967 22.5303C8.72247 22.7831 9.11856 22.8223 9.41603 22.624L9 22ZM6 6V5.25C5.6241 5.25 5.30626 5.52827 5.25658 5.90088L6 6ZM20 21L19.7628 21.7115C20.0082 21.7933 20.2785 21.7429 20.4779 21.5781C20.6772 21.4132 20.7776 21.1573 20.7434 20.9009L20 21ZM17 20L17.2372 19.2885L16.7974 19.1419L16.4697 19.4697L17 20ZM15 22L14.584 22.624C14.8814 22.8223 15.2775 22.7831 15.5303 22.5303L15 22ZM18 6L18.7434 5.90088C18.6937 5.52827 18.3759 5.25 18 5.25V6ZM12 20L12.416 19.376L12 19.0986L11.584 19.376L12 20ZM4.23717 21.7115L7.23717 20.7115L6.76283 19.2885L3.76283 20.2885L4.23717 21.7115ZM6.46967 20.5303L8.46967 22.5303L9.53033 21.4697L7.53033 19.4697L6.46967 20.5303ZM5.25658 5.90088L3.25658 20.9009L4.74342 21.0991L6.74342 6.09912L5.25658 5.90088ZM20.2372 20.2885L17.2372 19.2885L16.7628 20.7115L19.7628 21.7115L20.2372 20.2885ZM16.4697 19.4697L14.4697 21.4697L15.5303 22.5303L17.5303 20.5303L16.4697 19.4697ZM17.2566 6.09912L19.2566 21.0991L20.7434 20.9009L18.7434 5.90088L17.2566 6.09912ZM18 5.25H6V6.75H18V5.25ZM9.41603 22.624L12.416 20.624L11.584 19.376L8.58397 21.376L9.41603 22.624ZM11.584 20.624L14.584 22.624L15.416 21.376L12.416 19.376L11.584 20.624Z" fill="#141B34"/>
<path d="M3.5 9.5H2V2H21.9996V9.5H20.5" stroke="#141B34" stroke-width="1.5"/>
<path d="M12 10H8.5" stroke="#141B34" stroke-width="1.5" stroke-linejoin="round"/>
<path d="M15 14H8.5" stroke="#141B34" stroke-width="1.5" stroke-linejoin="round"/>
</svg>
