<svg width="24" height="24" viewBox="0 0 24 24" fill="none" xmlns="http://www.w3.org/2000/svg">
<path d="M18.5 5L17.876 4.58396L17.75 4.77291V5H18.5ZM18.5 22V22.75C18.9142 22.75 19.25 22.4142 19.25 22H18.5ZM20.5 2.00016L21.124 2.4162C21.2775 2.18606 21.2918 1.89015 21.1613 1.64628C21.0308 1.4024 20.7766 1.25016 20.5 1.25016L20.5 2.00016ZM3.5 2L3.50001 1.25C3.30109 1.25 3.11033 1.32901 2.96967 1.46967C2.82902 1.61032 2.75 1.80109 2.75 2H3.5ZM6.50474 22L5.75474 22.0002C5.75483 22.4143 6.09059 22.75 6.50474 22.75V22ZM17.75 5V22H19.25V5H17.75ZM20.5 1.25016L3.50001 1.25L3.49999 2.75L20.5 2.75016L20.5 1.25016ZM7.25474 21.9998L7.25 1.99982L5.75 2.00018L5.75474 22.0002L7.25474 21.9998ZM2.75 2V10H4.25V2H2.75ZM19.876 1.58412L17.876 4.58396L19.124 5.41604L21.124 2.4162L19.876 1.58412ZM6.50474 22.75H18.5V21.25H6.50474V22.75Z" fill="#141B34"/>
<path d="M18.5 8H14.5M18.5 11.3333H14.5M18.5 14.6667H14.5M18.5 18H14.5" stroke="#141B34" stroke-width="1.5" stroke-linejoin="round"/>
</svg>
