<svg width="24" height="24" viewBox="0 0 24 24" fill="none" xmlns="http://www.w3.org/2000/svg">
<path d="M21 22V22.75C21.2217 22.75 21.4321 22.6519 21.5746 22.482C21.7171 22.3122 21.7771 22.088 21.7386 21.8697L21 22ZM16 22L15.2991 22.267C15.4099 22.5578 15.6888 22.75 16 22.75V22ZM12 11.5L12.7009 11.233C12.5901 10.9422 12.3112 10.75 12 10.75C11.6888 10.75 11.4099 10.9422 11.2991 11.233L12 11.5ZM18 2H18.75V1.25H18V2ZM3 22L2.26141 21.8697C2.22288 22.088 2.28293 22.3122 2.42543 22.482C2.56794 22.6519 2.77829 22.75 3 22.75V22ZM8 22V22.75C8.3112 22.75 8.59008 22.5578 8.70087 22.267L8 22ZM6 2V1.25H5.25V2H6ZM21 21.25H16V22.75H21V21.25ZM16.7009 21.733L12.7009 11.233L11.2991 11.767L15.2991 22.267L16.7009 21.733ZM17.25 2V5H18.75V2H17.25ZM17.2614 5.13034L20.2614 22.1303L21.7386 21.8697L18.7386 4.86966L17.2614 5.13034ZM3 22.75H8V21.25H3V22.75ZM8.70087 22.267L12.7009 11.767L11.2991 11.233L7.29913 21.733L8.70087 22.267ZM5.25 2V5H6.75V2H5.25ZM5.26141 4.86966L2.26141 21.8697L3.73859 22.1303L6.73859 5.13034L5.26141 4.86966ZM18 1.25H6V2.75H18V1.25ZM6 5.75H18V4.25H6V5.75Z" fill="#141B34"/>
<path d="M10 7.77778L12 5L15 10" stroke="#141B34" stroke-width="1.5" stroke-linejoin="round"/>
</svg>
