<svg width="24" height="24" viewBox="0 0 24 24" fill="none" xmlns="http://www.w3.org/2000/svg">
<path d="M22 13H22.75C22.75 12.5858 22.4142 12.25 22 12.25V13ZM11 13H10.25V13.75H11V13ZM11 2H11.75C11.75 1.58579 11.4142 1.25 11 1.25V2ZM22 22V22.75C22.4142 22.75 22.75 22.4142 22.75 22H22ZM2 2V1.25C1.58579 1.25 1.25 1.58579 1.25 2H2ZM9 22L8.46967 22.5303L8.68934 22.75H9V22ZM2 15H1.25V15.3107L1.46967 15.5303L2 15ZM22 12.25H11V13.75H22V12.25ZM11.75 13V2H10.25V13H11.75ZM21.25 13V22H22.75V13H21.25ZM11 1.25H2V2.75H11V1.25ZM22 21.25H9V22.75H22V21.25ZM2.75 15V2H1.25V15H2.75ZM9.53033 21.4697L2.53033 14.4697L1.46967 15.5303L8.46967 22.5303L9.53033 21.4697Z" fill="#141B34"/>
</svg>
