<svg width="24" height="24" viewBox="0 0 24 24" fill="none" xmlns="http://www.w3.org/2000/svg">
<g clip-path="url(#clip0_14058_8879)">
<path d="M20.8155 3.18451C10.9449 1.50343 2.11246 11.6193 3.07152 20.9285C12.3807 21.8875 22.4966 13.0551 20.8155 3.18451Z" stroke="#141B34" stroke-width="1.5" stroke-linecap="round"/>
<path d="M7 17L7.00898 17" stroke="#141B34" stroke-width="1.5" stroke-linecap="round"/>
<path d="M17 7L17.009 7" stroke="#141B34" stroke-width="1.5" stroke-linecap="round"/>
<path d="M6.00098 6L5.47065 5.46967H5.47065L6.00098 6ZM5.00066 2L5.62468 1.58395L5.11716 0.822753L4.4703 1.4697L5.00066 2ZM2.00098 5.00007L1.47061 4.46977L0.823787 5.11668L1.58496 5.62411L2.00098 5.00007ZM18.001 18L18.5313 18.5303L18.001 18ZM19.0013 22L18.3773 22.4161L18.8848 23.1772L19.5317 22.5303L19.0013 22ZM22.001 18.9999L22.5313 19.5302L23.1782 18.8833L22.417 18.3759L22.001 18.9999ZM6.53131 6.53033C7.01903 6.04261 7.06893 5.38288 7.01193 4.87027C6.95321 4.34214 6.7648 3.79533 6.56513 3.32954C6.36189 2.85539 6.12761 2.42114 5.94662 2.10857C5.85555 1.95128 5.7766 1.82245 5.7198 1.732C5.69138 1.68674 5.66842 1.65095 5.65217 1.62589C5.64404 1.61336 5.63758 1.6035 5.63295 1.59646C5.63063 1.59294 5.62877 1.59012 5.62739 1.58803C5.6267 1.58698 5.62612 1.58612 5.62567 1.58544C5.62544 1.5851 5.62525 1.5848 5.62508 1.58455C5.625 1.58443 5.6249 1.58428 5.62486 1.58421C5.62476 1.58407 5.62468 1.58395 5.00066 2C4.37664 2.41605 4.37657 2.41595 4.37651 2.41585C4.3765 2.41584 4.37644 2.41575 4.37642 2.41572C4.37638 2.41566 4.37636 2.41563 4.37638 2.41566C4.37641 2.4157 4.37656 2.41593 4.37682 2.41633C4.37735 2.41713 4.37835 2.41863 4.37978 2.42082C4.38266 2.42519 4.38731 2.4323 4.39359 2.44198C4.40616 2.46135 4.42519 2.491 4.44951 2.52972C4.49819 2.60725 4.5677 2.72061 4.64853 2.8602C4.81134 3.14139 5.01463 3.51965 5.18645 3.92051C5.36186 4.32972 5.48603 4.72043 5.52112 5.03603C5.55794 5.36717 5.48289 5.45743 5.47065 5.46967L6.53131 6.53033ZM5.47065 5.46967C5.45835 5.48197 5.36804 5.55701 5.03691 5.52022C4.72131 5.48516 4.33061 5.36104 3.92141 5.18567C3.52055 5.01388 3.1423 4.81064 2.86112 4.64786C2.72153 4.56704 2.60818 4.49755 2.53065 4.44887C2.49194 4.42456 2.46229 4.40553 2.44291 4.39297C2.43323 4.38669 2.42613 4.38204 2.42175 4.37916C2.41957 4.37772 2.41807 4.37673 2.41726 4.3762C2.41686 4.37594 2.41664 4.37579 2.41659 4.37576C2.41657 4.37574 2.41659 4.37576 2.41666 4.3758C2.41669 4.37582 2.41678 4.37588 2.41679 4.37589C2.41689 4.37595 2.41699 4.37602 2.00098 5.00007C1.58496 5.62411 1.58509 5.6242 1.58523 5.62429C1.58529 5.62433 1.58544 5.62443 1.58557 5.62451C1.58582 5.62468 1.58611 5.62488 1.58645 5.6251C1.58713 5.62556 1.588 5.62613 1.58904 5.62682C1.59114 5.62821 1.59395 5.63007 1.59747 5.63238C1.60451 5.63701 1.61438 5.64347 1.62691 5.65159C1.65197 5.66784 1.68775 5.6908 1.73302 5.71922C1.82346 5.77601 1.9523 5.85495 2.10958 5.94601C2.42215 6.12696 2.8564 6.3612 3.33055 6.5644C3.79634 6.76401 4.34315 6.95237 4.87129 7.01105C5.38392 7.068 6.0436 7.01803 6.53131 6.53033L5.47065 5.46967ZM2.53134 5.53036L5.53102 2.5303L4.4703 1.4697L1.47061 4.46977L2.53134 5.53036ZM17.4706 17.4697C16.9829 17.9574 16.933 18.6171 16.99 19.1297C17.0487 19.6579 17.2372 20.2047 17.4368 20.6705C17.6401 21.1446 17.8743 21.5789 18.0553 21.8914C18.1464 22.0487 18.2254 22.1776 18.2822 22.268C18.3106 22.3133 18.3335 22.349 18.3498 22.3741C18.3579 22.3866 18.3644 22.3965 18.369 22.4035C18.3713 22.4071 18.3732 22.4099 18.3746 22.412C18.3753 22.413 18.3758 22.4139 18.3763 22.4146C18.3765 22.4149 18.3767 22.4152 18.3769 22.4154C18.377 22.4156 18.3771 22.4157 18.3771 22.4158C18.3772 22.4159 18.3773 22.4161 19.0013 22C19.6253 21.5839 19.6254 21.5841 19.6254 21.5841C19.6255 21.5842 19.6255 21.5842 19.6255 21.5843C19.6256 21.5843 19.6256 21.5844 19.6256 21.5843C19.6255 21.5843 19.6254 21.5841 19.6251 21.5837C19.6246 21.5829 19.6236 21.5814 19.6222 21.5792C19.6193 21.5748 19.6146 21.5677 19.6084 21.558C19.5958 21.5386 19.5768 21.509 19.5524 21.4703C19.5038 21.3927 19.4343 21.2794 19.3534 21.1398C19.1906 20.8586 18.9873 20.4804 18.8155 20.0795C18.6401 19.6703 18.5159 19.2796 18.4808 18.964C18.444 18.6328 18.5191 18.5426 18.5313 18.5303L17.4706 17.4697ZM18.5313 18.5303C18.5436 18.518 18.6339 18.443 18.965 18.4798C19.2806 18.5148 19.6713 18.639 20.0805 18.8143C20.4814 18.9861 20.8597 19.1894 21.1408 19.3521C21.2804 19.433 21.3938 19.5024 21.4713 19.5511C21.51 19.5754 21.5397 19.5945 21.559 19.607C21.5687 19.6133 21.5758 19.618 21.5802 19.6208C21.5824 19.6223 21.5839 19.6233 21.5847 19.6238C21.5851 19.6241 21.5853 19.6242 21.5854 19.6242C21.5854 19.6243 21.5854 19.6242 21.5853 19.6242C21.5853 19.6242 21.5852 19.6241 21.5852 19.6241C21.5851 19.624 21.585 19.624 22.001 18.9999C22.417 18.3759 22.4169 18.3758 22.4167 18.3757C22.4167 18.3757 22.4165 18.3756 22.4164 18.3755C22.4161 18.3753 22.4158 18.3751 22.4155 18.3749C22.4148 18.3744 22.414 18.3739 22.4129 18.3732C22.4108 18.3718 22.408 18.3699 22.4045 18.3676C22.3974 18.363 22.3876 18.3565 22.375 18.3484C22.35 18.3322 22.3142 18.3092 22.2689 18.2808C22.1785 18.224 22.0497 18.1451 21.8924 18.054C21.5798 17.873 21.1456 17.6388 20.6714 17.4356C20.2056 17.236 19.6588 17.0476 19.1307 16.989C18.618 16.932 17.9584 16.982 17.4706 17.4697L18.5313 18.5303ZM21.4706 18.4696L18.4709 21.4697L19.5317 22.5303L22.5313 19.5302L21.4706 18.4696ZM18.5313 17.4697L6.53131 5.46967L5.47065 6.53033L17.4706 18.5303L18.5313 17.4697Z" fill="#141B34"/>
<path d="M9.51797 14.482C8.82734 13.7914 8.82734 12.6717 9.51797 11.9811L11.9811 9.51797C12.6717 8.82734 13.7914 8.82734 14.482 9.51797C15.1727 10.2086 15.1727 11.3283 14.482 12.0189L12.0189 14.482C11.3283 15.1727 10.2086 15.1727 9.51797 14.482Z" stroke="#141B34" stroke-width="1.5" stroke-linecap="round"/>
</g>
<defs>
<clipPath id="clip0_14058_8879">
<rect width="24" height="24" fill="white"/>
</clipPath>
</defs>
</svg>
