<svg width="24" height="24" viewBox="0 0 24 24" fill="none" xmlns="http://www.w3.org/2000/svg">
<path d="M2.00195 2L2.26895 1.29913C2.00676 1.19925 1.71074 1.25407 1.5017 1.44121C1.29266 1.62835 1.20555 1.91652 1.27593 2.18812L2.00195 2ZM20 15L20.2155 15.7184L20.6693 15.5822L20.7413 15.114L20 15ZM22 2L22.7413 2.11404C22.7826 1.84555 22.6755 1.5757 22.4613 1.40862C22.2471 1.24155 21.9593 1.20336 21.7089 1.3088L22 2ZM12.502 6L12.235 6.70087C12.4153 6.76957 12.6152 6.76611 12.793 6.69121L12.502 6ZM20.7413 15.114L22.7413 2.11404L21.2587 1.88596L19.2587 14.8859L20.7413 15.114ZM21.7089 1.3088L12.2109 5.30879L12.793 6.69121L22.2911 2.69121L21.7089 1.3088ZM12.7689 5.29913L2.26895 1.29913L1.73496 2.70087L12.235 6.70087L12.7689 5.29913ZM1.27593 2.18812L4.77399 15.6881L6.22604 15.3119L2.72798 1.81188L1.27593 2.18812ZM10.2155 18.7184L20.2155 15.7184L19.7845 14.2816L9.7845 17.2816L10.2155 18.7184Z" fill="#141B34"/>
<path d="M9.98703 17C9.98703 18.1046 8.87064 19 7.49351 19C6.11638 19 5 18.1046 5 17C5 15.8954 6.11638 15 7.49351 15C8.87064 15 9.98703 15.8954 9.98703 17ZM9.98703 17C10.0493 17.7724 10.0064 20.5 7.00254 22" stroke="#141B34" stroke-width="1.5" stroke-linejoin="round"/>
</svg>
