<svg width="24" height="24" viewBox="0 0 24 24" fill="none" xmlns="http://www.w3.org/2000/svg">
<path d="M8 10L2 16L4 18L10 12" stroke="#141B34" stroke-width="1.5" stroke-linejoin="round"/>
<path d="M13.1667 6.8333L12.6364 7.36363L13.1667 6.8333ZM17.4697 9.62605L11.6261 15.4697L12.6867 16.5303L18.5304 10.6867L17.4697 9.62605ZM4.53033 8.37345L10.3735 2.53033L9.31283 1.46967L3.46967 7.31278L4.53033 8.37345ZM8.83337 3.11901C8.38337 3.71901 8.38334 3.719 8.38333 3.71898C8.38333 3.71899 8.38333 3.71898 8.38334 3.71899C8.38337 3.71902 8.38343 3.71906 8.38354 3.71914C8.38374 3.7193 8.3841 3.71956 8.3846 3.71994C8.38561 3.7207 8.38721 3.7219 8.38938 3.72354C8.39374 3.72682 8.40041 3.73185 8.4093 3.73857C8.42708 3.75202 8.45375 3.77224 8.48856 3.79878C8.55817 3.85188 8.66027 3.93023 8.78884 4.03023C9.04606 4.23029 9.4087 4.51658 9.82868 4.8602C10.6716 5.54983 11.7332 6.46047 12.6364 7.36363L13.697 6.30297C12.7431 5.34899 11.638 4.40249 10.7785 3.69926C10.3473 3.34645 9.97484 3.05238 9.70975 2.8462C9.57715 2.74307 9.47129 2.66182 9.39823 2.6061C9.3617 2.57824 9.33335 2.55674 9.31396 2.54208C9.30426 2.53475 9.2968 2.52912 9.29167 2.52526C9.28911 2.52333 9.28713 2.52184 9.28574 2.52079C9.28504 2.52027 9.2845 2.51986 9.2841 2.51957C9.2839 2.51942 9.28374 2.5193 9.28362 2.51921C9.28356 2.51916 9.2835 2.51911 9.28347 2.51909C9.28341 2.51905 9.28337 2.51901 8.83337 3.11901ZM12.6364 7.36363C13.5395 8.2668 14.4502 9.32844 15.1398 10.1713C15.4834 10.5913 15.7697 10.9539 15.9698 11.2112C16.0698 11.3397 16.1481 11.4418 16.2012 11.5114C16.2278 11.5462 16.248 11.5729 16.2614 11.5907C16.2682 11.5996 16.2732 11.6063 16.2765 11.6106C16.2781 11.6128 16.2793 11.6144 16.2801 11.6154C16.2804 11.6159 16.2807 11.6163 16.2809 11.6165C16.2809 11.6166 16.281 11.6166 16.281 11.6167C16.281 11.6167 16.281 11.6167 16.281 11.6167C16.281 11.6167 16.281 11.6166 16.881 11.1666C17.481 10.7166 17.481 10.7166 17.4809 10.7165C17.4809 10.7165 17.4808 10.7164 17.4808 10.7164C17.4807 10.7163 17.4806 10.7161 17.4804 10.7159C17.4801 10.7155 17.4797 10.715 17.4792 10.7143C17.4782 10.7129 17.4767 10.7109 17.4747 10.7083C17.4709 10.7032 17.4653 10.6957 17.4579 10.686C17.4433 10.6666 17.4218 10.6383 17.3939 10.6018C17.3382 10.5287 17.2569 10.4229 17.1538 10.2903C16.9476 10.0252 16.6536 9.65268 16.3007 9.22147C15.5975 8.36197 14.651 7.25695 13.697 6.30297L12.6364 7.36363ZM13.1667 14.8809C13.6167 14.2809 13.6167 14.2809 13.6167 14.281C13.6167 14.2809 13.6167 14.281 13.6167 14.2809C13.6167 14.2809 13.6166 14.2809 13.6165 14.2808C13.6163 14.2806 13.616 14.2804 13.6155 14.28C13.6145 14.2792 13.6129 14.278 13.6107 14.2764C13.6063 14.2731 13.5997 14.2681 13.5908 14.2614C13.573 14.2479 13.5463 14.2277 13.5115 14.2012C13.4419 14.1481 13.3398 14.0697 13.2112 13.9697C12.954 13.7696 12.5914 13.4834 12.1714 13.1397C11.3285 12.4501 10.2669 11.5395 9.3637 10.6363L8.30304 11.697C9.25702 12.6509 10.362 13.5975 11.2215 14.3007C11.6527 14.6535 12.0252 14.9476 12.2903 15.1537C12.4229 15.2569 12.5288 15.3381 12.6018 15.3938C12.6384 15.4217 12.6667 15.4432 12.6861 15.4579C12.6958 15.4652 12.7033 15.4708 12.7084 15.4747C12.711 15.4766 12.7129 15.4781 12.7143 15.4791C12.715 15.4797 12.7156 15.4801 12.716 15.4804C12.7162 15.4805 12.7163 15.4806 12.7164 15.4807C12.7165 15.4808 12.7166 15.4808 12.7166 15.4808C12.7167 15.4809 12.7167 15.4809 13.1667 14.8809ZM9.3637 10.6363C8.46053 9.73314 7.5499 8.6715 6.86026 7.82861C6.51665 7.40863 6.23036 7.046 6.03029 6.78877C5.9303 6.6602 5.85194 6.5581 5.79885 6.48849C5.77231 6.45369 5.75208 6.42702 5.73864 6.40923C5.73191 6.40034 5.72688 6.39367 5.72361 6.38932C5.72197 6.38714 5.72076 6.38554 5.72001 6.38454C5.71963 6.38403 5.71936 6.38368 5.71921 6.38347C5.71913 6.38337 5.71908 6.3833 5.71906 6.38327C5.71905 6.38326 5.71906 6.38327 5.71905 6.38326C5.71906 6.38328 5.71908 6.3833 5.11908 6.8333C4.51908 7.2833 4.51911 7.28335 4.51916 7.2834C4.51918 7.28343 4.51923 7.28349 4.51927 7.28356C4.51936 7.28368 4.51948 7.28384 4.51963 7.28404C4.51993 7.28443 4.52034 7.28498 4.52086 7.28567C4.5219 7.28706 4.52339 7.28904 4.52533 7.29161C4.52919 7.29674 4.53481 7.3042 4.54215 7.31389C4.55681 7.33329 4.5783 7.36163 4.60617 7.39816C4.66189 7.47122 4.74313 7.57708 4.84626 7.70968C5.05245 7.97477 5.34652 8.34726 5.69933 8.77847C6.40255 9.63797 7.34906 10.743 8.30304 11.697L9.3637 10.6363Z" fill="#141B34"/>
<path d="M12.5 22L14 19H18L19.5 22M11 22L21 22" stroke="#141B34" stroke-width="1.5" stroke-linejoin="round"/>
<path d="M20 11.6364L22 10M20 14.9091L22 16" stroke="#141B34" stroke-width="1.5" stroke-linejoin="round"/>
</svg>
