<svg width="24" height="24" viewBox="0 0 24 24" fill="none" xmlns="http://www.w3.org/2000/svg">
<path d="M16.0001 15L12.0001 13L8 15V20L12.0001 22L16.0001 20V15Z" stroke="#141B34" stroke-width="1.5" stroke-linejoin="round"/>
<path d="M4 2V1.25C3.80107 1.25 3.6103 1.32903 3.46964 1.4697C3.32899 1.61037 3.24998 1.80115 3.25 2.00008L4 2ZM20 2H20.75C20.75 1.58579 20.4142 1.25 20 1.25V2ZM4.00051 6.9953L3.25051 6.99538L3.25057 7.48556L3.69955 7.68226L4.00051 6.9953ZM12 10.5L11.699 11.187L12 11.3188L12.301 11.187L12 10.5ZM20 6.9953L20.301 7.68227L20.75 7.48555V6.9953H20ZM4 2.75H20V1.25H4V2.75ZM3.25 2.00008L3.25051 6.99538L4.75051 6.99522L4.75 1.99992L3.25 2.00008ZM19.25 2V6.9953H20.75V2H19.25ZM12.301 11.187L20.301 7.68227L19.699 6.30833L11.699 9.81303L12.301 11.187ZM12.301 9.81304L4.30148 6.30834L3.69955 7.68226L11.699 11.187L12.301 9.81304Z" fill="#141B34"/>
<path d="M12 2V6" stroke="#141B34" stroke-width="1.5" stroke-linejoin="round"/>
</svg>
