<svg width="24" height="24" viewBox="0 0 24 24" fill="none" xmlns="http://www.w3.org/2000/svg">
<path d="M12 9C10.8954 9 10 9.67157 10 10.5C10 11.3284 10.8954 12 12 12C13.1046 12 14 12.6716 14 13.5C14 14.3284 13.1046 15 12 15M12 9C12.8708 9 13.6116 9.4174 13.8862 10M12 9V7.5M12 15C11.1292 15 10.3884 14.5826 10.1138 14M12 15V16.5" stroke="#141B34" stroke-width="1.5" stroke-linejoin="round"/>
<path d="M13.5005 2.5H2.5V21.5H21.5005V10.5" stroke="#141B34" stroke-width="1.5" stroke-linejoin="round"/>
<path d="M16.5044 7.49561L15.7544 7.49569L15.7545 8.24561H16.5044V7.49561ZM17.0347 8.02592L22.0303 3.03007L20.9697 1.96944L15.974 6.96529L17.0347 8.02592ZM21.0002 6.74561H16.5044V8.24561H21.0002V6.74561ZM17.2544 7.49553L17.2539 2.9954L15.7539 2.99556L15.7544 7.49569L17.2544 7.49553Z" fill="#141B34"/>
</svg>
