<svg width="24" height="24" viewBox="0 0 24 24" fill="none" xmlns="http://www.w3.org/2000/svg">
<path d="M13.7678 13.768C13.3154 14.2204 12.6904 14.5002 12 14.5002C10.6193 14.5002 9.5 13.3809 9.5 12.0002C9.5 11.3098 9.77982 10.6848 10.2322 10.2324" stroke="#141B34" stroke-width="1.5" stroke-linecap="round"/>
<path d="M19 11.1415C18.6749 11.0944 18.341 11.0586 18 11.0347M6 12.9653C5.65897 12.9415 5.32511 12.9056 5 12.8585" stroke="#141B34" stroke-width="1.5" stroke-linecap="square"/>
<path d="M2 2L22 22" stroke="#141B34" stroke-width="1.5"/>
<path d="M12 4.5L12.3174 5.17954L12 4.5ZM22 4.5H22.75V4.03647L22.3354 3.82918L22 4.5ZM2 4.5L2.27854 3.80364L1.25 3.39223V4.5H2ZM12 19.5L11.6826 18.8205L11.6826 18.8205L12 19.5ZM2 19.5H1.25V20.0078L1.72146 20.1964L2 19.5ZM12.3174 5.17954C13.5352 4.61073 15.1744 4.25 17 4.25V2.75C14.9915 2.75 13.1298 3.14454 11.6826 3.82046L12.3174 5.17954ZM17 4.25C18.4173 4.25 19.5972 4.48636 20.419 4.72114C20.8294 4.83841 21.1489 4.95484 21.3621 5.04011C21.4686 5.08272 21.5484 5.11748 21.5995 5.14056C21.6251 5.1521 21.6434 5.16071 21.6544 5.16591C21.6598 5.16852 21.6634 5.17027 21.6651 5.17111C21.666 5.17152 21.6664 5.17172 21.6663 5.17167C21.6663 5.17165 21.6661 5.17157 21.6658 5.17142C21.6657 5.17135 21.6655 5.17127 21.6653 5.17117C21.6652 5.17112 21.665 5.17103 21.665 5.17101C21.6648 5.17091 21.6646 5.17082 22 4.5C22.3354 3.82918 22.3352 3.82908 22.335 3.82897C22.3349 3.82893 22.3347 3.82882 22.3345 3.82874C22.3342 3.82858 22.3339 3.8284 22.3335 3.82821C22.3327 3.82783 22.3318 3.82738 22.3308 3.82688C22.3287 3.82587 22.3262 3.82463 22.3232 3.82316C22.3172 3.82021 22.3092 3.81635 22.2993 3.81162C22.2794 3.80218 22.2519 3.78931 22.2169 3.7735C22.1469 3.7419 22.047 3.69853 21.9192 3.64739C21.6636 3.54516 21.2956 3.41159 20.831 3.27886C19.9028 3.01364 18.5827 2.75 17 2.75V4.25ZM7 21.25C9.00849 21.25 10.8702 20.8555 12.3174 20.1795L11.6826 18.8205C10.4648 19.3893 8.82565 19.75 7 19.75V21.25ZM12.3174 20.1795C13.5352 19.6107 15.1744 19.25 17 19.25V17.75C14.9915 17.75 13.1298 18.1445 11.6826 18.8205L12.3174 20.1795ZM1.72146 20.1964C4.34095 21.2442 5.87882 21.25 7 21.25V19.75C5.98934 19.75 4.65905 19.7558 2.27854 18.8036L1.72146 20.1964ZM2.75 19.5V4.5H1.25V19.5H2.75ZM8.67759 6.15623C10.0337 6.00231 11.2805 5.66381 12.3174 5.17954L11.6826 3.82046C10.8141 4.22609 9.72842 4.52732 8.50841 4.6658L8.67759 6.15623ZM21.25 4.5V18.818H22.75V4.5H21.25ZM17 19.25C17.5382 19.25 18.0424 19.2841 18.5058 19.3393L18.6832 17.8498C18.165 17.7881 17.6015 17.75 17 17.75V19.25ZM1.72146 5.19636C3.23781 5.8029 4.39863 6.06363 5.34158 6.17297L5.51435 4.68295C4.71362 4.59011 3.68174 4.36492 2.27854 3.80364L1.72146 5.19636Z" fill="#141B34"/>
</svg>
