<svg width="24" height="24" viewBox="0 0 24 24" fill="none" xmlns="http://www.w3.org/2000/svg">
<path d="M12 18C10.6675 18.6224 8.91707 19 7 19C5.93408 19 4.5 19 2 18V3C4.5 4 5.93408 4 7 4C8.91707 4 10.6675 3.62236 12 3C13.3325 2.37764 15.0829 2 17 2C20 2 22 3 22 3V11" stroke="#141B34" stroke-width="1.5"/>
<path d="M14.5 10.5C14.5 11.8807 13.3807 13 12 13C10.6193 13 9.5 11.8807 9.5 10.5C9.5 9.11929 10.6193 8 12 8C13.3807 8 14.5 9.11929 14.5 10.5Z" stroke="#141B34" stroke-width="1.5" stroke-linejoin="round"/>
<path d="M5.5 11.5L5.5 11.509" stroke="#141B34" stroke-width="2" stroke-linecap="square" stroke-linejoin="round"/>
<path d="M18.5 9.49219L18.5 9.50117" stroke="#141B34" stroke-width="2" stroke-linecap="square" stroke-linejoin="round"/>
<path d="M15 15.4978V14.7478C14.5858 14.7478 14.25 15.0836 14.25 15.4978H15ZM22 15.4978V16.2478H22.75V15.4978H22ZM22 19.5V20.25C22.1989 20.25 22.3897 20.171 22.5303 20.0303C22.671 19.8897 22.75 19.6989 22.75 19.5L22 19.5ZM15 19.5V18.75H14.25V19.5H15ZM22 14.9961H22.75V14.7457L22.5996 14.5455L22 14.9961ZM15 20H14.25V20.25L14.4 20.45L15 20ZM15 16.2478H22V14.7478H15V16.2478ZM15.75 17.5V15.4978H14.25V17.5H15.75ZM22 18.75H15V20.25H22V18.75ZM22.75 15.4978V14.9961H21.25V15.4978H22.75ZM22.5996 14.5455L21.0996 12.5494L19.9004 13.4506L21.4004 15.4467L22.5996 14.5455ZM14.25 19.5V20H15.75V19.5H14.25ZM14.4 20.45L15.9 22.45L17.1 21.55L15.6 19.55L14.4 20.45ZM22.75 19.5L22.75 17.5L21.25 17.5L21.25 19.5L22.75 19.5Z" fill="#141B34"/>
</svg>
