<svg width="24" height="24" viewBox="0 0 24 24" fill="none" xmlns="http://www.w3.org/2000/svg">
<path d="M11.9984 2L12.4732 1.41936L11.9983 1.03116L11.5236 1.41946L11.9984 2ZM8.29466 9L7.66888 9.41339C7.80772 9.62356 8.04278 9.75 8.29466 9.75V9ZM15.7004 9V9.75C15.9522 9.75 16.1872 9.62364 16.3261 9.41358L15.7004 9ZM11.5236 1.41946C11.1391 1.73397 10.5951 2.05531 9.91917 2.49184C9.27919 2.90514 8.56 3.39992 7.97534 4.00293C7.38605 4.61071 6.88962 5.3731 6.77345 6.32475C6.65648 7.28294 6.93976 8.30966 7.66888 9.41339L8.92045 8.58661C8.32838 7.69034 8.20007 7.01706 8.2624 6.5065C8.32552 5.9894 8.59925 5.51429 9.05226 5.04707C9.50988 4.57508 10.1051 4.15736 10.7329 3.75191C11.3248 3.36969 12.002 2.96603 12.4733 2.58054L11.5236 1.41946ZM11.5237 2.58064C11.9951 2.96606 12.6724 3.36971 13.2642 3.75191C13.892 4.15735 14.4872 4.57505 14.9446 5.04699C15.3974 5.51415 15.6709 5.98917 15.7338 6.5062C15.7959 7.01673 15.6673 7.69006 15.0748 8.58642L16.3261 9.41358C17.0557 8.30994 17.3394 7.28327 17.2228 6.32505C17.107 5.37333 16.6108 4.61085 16.0217 4.00301C15.4371 3.39995 14.718 2.90515 14.078 2.49184C13.402 2.05529 12.8579 1.73394 12.4732 1.41936L11.5237 2.58064ZM15.7004 8.25H8.29466V9.75H15.7004V8.25Z" fill="#141B34"/>
<path d="M18 12V9H6V12" stroke="#141B34" stroke-width="1.5" stroke-linejoin="round"/>
<path d="M20 12H4V22H20V12Z" stroke="#141B34" stroke-width="1.5" stroke-linecap="round" stroke-linejoin="round"/>
<path d="M9.50009 22V19C9.48279 16 12 15 12 15C12 15 14.5172 16 14.4999 19V22" stroke="#141B34" stroke-width="1.5"/>
</svg>
