<svg width="24" height="24" viewBox="0 0 24 24" fill="none" xmlns="http://www.w3.org/2000/svg">
<path d="M13 2L13 11" stroke="#141B34" stroke-width="1.5" stroke-linejoin="round"/>
<path d="M5.74061 17.0888L6.48825 17.0295L6.48825 17.0295L5.74061 17.0888ZM10.265 21.8118L10.1733 22.5562L10.1734 22.5562L10.265 21.8118ZM15.7349 21.8118L15.8265 22.5562L15.8266 22.5562L15.7349 21.8118ZM20.2593 17.0888L19.5117 17.0294L19.5117 17.0295L20.2593 17.0888ZM20.2593 6.91118L19.5117 6.97056L19.5117 6.97057L20.2593 6.91118ZM15.7349 2.1882L15.6432 2.93257V2.93257L15.7349 2.1882ZM5.51158 11V10.25H4.77836L4.76177 10.983L5.51158 11ZM4.99296 17.1482C5.21064 19.89 7.37403 22.2112 10.1733 22.5562L10.3568 21.0675C8.2743 20.8108 6.65031 19.0707 6.48825 17.0295L4.99296 17.1482ZM10.1734 22.5562C11.0888 22.6689 12.0341 22.75 13 22.75V21.25C12.1163 21.25 11.2364 21.1758 10.3567 21.0675L10.1734 22.5562ZM13 22.75C13.9658 22.75 14.9111 22.6689 15.8265 22.5562L15.6433 21.0675C14.7636 21.1758 13.8837 21.25 13 21.25V22.75ZM15.8266 22.5562C18.626 22.2112 20.7892 19.8899 21.007 17.1482L19.5117 17.0295C19.3496 19.0707 17.7257 20.8108 15.6432 21.0675L15.8266 22.5562ZM21.007 17.1482C21.1391 15.4849 21.25 13.7619 21.25 12H19.75C19.75 13.702 19.6428 15.3785 19.5117 17.0294L21.007 17.1482ZM21.25 12C21.25 10.2381 21.1391 8.51511 21.007 6.8518L19.5117 6.97057C19.6428 8.62152 19.75 10.298 19.75 12H21.25ZM21.007 6.85181C20.7892 4.11005 18.626 1.78873 15.8266 1.44383L15.6432 2.93257C17.7257 3.18914 19.3496 4.92925 19.5117 6.97056L21.007 6.85181ZM15.8266 1.44383C14.9111 1.33103 13.9658 1.25 13 1.25V2.75C13.8837 2.75 14.7636 2.8242 15.6432 2.93257L15.8266 1.44383ZM4.75 12C4.75 13.7618 4.86089 15.4849 4.99296 17.1482L6.48825 17.0295C6.35717 15.3785 6.25 13.7021 6.25 12H4.75ZM13 1.25C12.3217 1.25 11.622 1.27441 10.9249 1.34461L11.0751 2.83707C11.7089 2.77325 12.3562 2.75 13 2.75V1.25ZM5.51158 11.75H20.5V10.25H5.51158V11.75ZM4.76177 10.983C4.75414 11.3203 4.75 11.6594 4.75 12H6.25C6.25 11.6715 6.25399 11.3438 6.26139 11.017L4.76177 10.983Z" fill="#141B34"/>
<circle cx="6" cy="5" r="2.5" stroke="#141B34" stroke-width="1.5" stroke-linejoin="round"/>
</svg>
