<svg width="24" height="24" viewBox="0 0 24 24" fill="none" xmlns="http://www.w3.org/2000/svg">
<path d="M12 7V2M12 13V11" stroke="#141B34" stroke-width="1.5" stroke-linejoin="round"/>
<path d="M12 2L12.6286 1.59083C12.4902 1.37823 12.2537 1.25 12 1.25C11.7463 1.25 11.5098 1.37823 11.3714 1.59083L12 2ZM6.10853 4.92954L5.94996 4.19649L5.59071 4.2742L5.43203 4.60574L6.10853 4.92954ZM12 22L11.8024 22.7235L12 22.7775L12.1975 22.7235L12 22ZM17.8913 4.92954L18.5678 4.60574L18.4091 4.2742L18.0499 4.19649L17.8913 4.92954ZM11.3714 1.59083C11.0069 2.15081 10.2012 2.70278 9.12753 3.1811C8.08369 3.64611 6.90664 3.98955 5.94996 4.19649L6.2671 5.66258C7.2961 5.43999 8.57657 5.06866 9.73793 4.55129C10.8694 4.04722 12.0166 3.34919 12.6286 2.40917L11.3714 1.59083ZM5.43203 4.60574C3.67179 8.28332 3.27717 12.2471 4.32308 15.5901C5.37628 18.9565 7.88276 21.6531 11.8024 22.7235L12.1975 21.2765C8.79367 20.3469 6.66234 18.0435 5.75465 15.1423C4.83966 12.2177 5.16106 8.64622 6.78503 5.25334L5.43203 4.60574ZM11.3714 2.40917C11.9834 3.34918 13.1305 4.04721 14.262 4.55128C15.4233 5.06865 16.7037 5.43999 17.7327 5.66258L18.0499 4.19649C17.0932 3.98955 15.9162 3.64612 14.8724 3.1811C13.7987 2.70279 12.9931 2.15082 12.6286 1.59083L11.3714 2.40917ZM17.2148 5.25334C18.8388 8.64622 19.1602 12.2177 18.2452 15.1423C17.3376 18.0435 15.2062 20.3469 11.8024 21.2765L12.1975 22.7235C16.1172 21.6531 18.6236 18.9565 19.6768 15.5901C20.7227 12.2471 20.328 8.28332 18.5678 4.60574L17.2148 5.25334Z" fill="#141B34"/>
<path d="M13.5 7H10.5V11H13.5V7Z" stroke="#141B34" stroke-width="1.5" stroke-linejoin="round"/>
</svg>
