<svg width="24" height="24" viewBox="0 0 24 24" fill="none" xmlns="http://www.w3.org/2000/svg">
<path d="M12 3L12.5303 2.46966L12 1.93935L11.4697 2.46966L12 3ZM11.25 3V9H12.75V3H11.25ZM9.53032 6.53027L12.5303 3.53034L11.4697 2.46966L8.46968 5.4696L9.53032 6.53027ZM11.4697 3.53034L14.4697 6.53027L15.5303 5.4696L12.5303 2.46966L11.4697 3.53034Z" fill="#141B34"/>
<path d="M12 21L11.4697 21.5303L12 22.0607L12.5303 21.5303L12 21ZM12.75 21V14.5H11.25V21H12.75ZM14.4697 17.4696L11.4697 20.4697L12.5303 21.5303L15.5303 18.5303L14.4697 17.4696ZM12.5303 20.4697L9.53034 17.4696L8.46966 18.5303L11.4697 21.5303L12.5303 20.4697Z" fill="#141B34"/>
<path d="M21 12.0001L21.5303 12.5304L22.0607 12.0001L21.5303 11.4697L21 12.0001ZM21 11.2501H15V12.7501H21V11.2501ZM17.4697 9.53032L20.4697 12.5304L21.5303 11.4697L18.5303 8.46968L17.4697 9.53032ZM20.4697 11.4697L17.4697 14.4697L18.5303 15.5303L21.5303 12.5304L20.4697 11.4697Z" fill="#141B34"/>
<path d="M3 12.0001L2.46966 11.4697L1.93934 12.0001L2.46968 12.5304L3 12.0001ZM3 12.7501H9V11.2501H3V12.7501ZM6.53032 14.4697L3.53032 11.4697L2.46968 12.5304L5.46967 15.5303L6.53032 14.4697ZM3.53034 12.5304L6.53034 9.53032L5.46966 8.46968L2.46966 11.4697L3.53034 12.5304Z" fill="#141B34"/>
</svg>
