<svg width="24" height="24" viewBox="0 0 24 24" fill="none" xmlns="http://www.w3.org/2000/svg">
<path d="M22 7.00016L12 7L7.5 21L4 15L2 17.0002" stroke="#141B34" stroke-width="1.5" stroke-linejoin="round"/>
<path d="M3.75 3V2.25H2.25V3H3.75ZM3.75 9V5.57143H2.25V9H3.75ZM7.25 5.57143V9H8.75V5.57143H7.25ZM8.75 5.57143C8.75 3.75711 7.3147 2.25 5.5 2.25V3.75C6.44672 3.75 7.25 4.54542 7.25 5.57143H8.75ZM3.75 5.57143C3.75 4.54542 4.55328 3.75 5.5 3.75V2.25C3.6853 2.25 2.25 3.75711 2.25 5.57143H3.75ZM3.75 5.57143V3H2.25V5.57143H3.75Z" fill="#141B34"/>
</svg>
