<svg width="24" height="24" viewBox="0 0 24 24" fill="none" xmlns="http://www.w3.org/2000/svg">
<path d="M10 3.5C10 4.32843 10.6716 5 11.5 5C12.3284 5 13 4.32843 13 3.5C13 2.67157 12.3284 2 11.5 2C10.6716 2 10 2.67157 10 3.5Z" stroke="#141B34" stroke-width="1.5" stroke-linejoin="round"/>
<path d="M14.5 19C14.5 20.6569 13.1569 22 11.5 22C9.84315 22 8.5 20.6569 8.5 19" stroke="#141B34" stroke-width="1.5" stroke-linejoin="round"/>
<path d="M15.55 7.05L20.45 11.95M21.5 9.5C21.5 7.567 19.933 6 18 6C16.067 6 14.5 7.567 14.5 9.5C14.5 11.433 16.067 13 18 13C19.933 13 21.5 11.433 21.5 9.5Z" stroke="#141B34" stroke-width="1.5" stroke-linejoin="round"/>
<path d="M20.5 16.5H21.15C21.15 16.344 21.0939 16.1933 20.992 16.0752L20.5 16.5ZM20.5 19V19.65H21.15V19H20.5ZM4.65837 11.491L4.00927 11.4569L4.00837 11.4739V11.491H4.65837ZM4.65837 14L5.15037 14.4248L5.30837 14.2418V14H4.65837ZM2.5 19H1.85V19.65H2.5V19ZM2.5 16.5L2.00799 16.0752C1.90608 16.1933 1.85 16.344 1.85 16.5H2.5ZM19.85 16.5V19H21.15V16.5H19.85ZM11.5 4.35C7.51047 4.35 4.21895 7.47283 4.00927 11.4569L5.30747 11.5252C5.48081 8.23162 8.20188 5.65 11.5 5.65V4.35ZM4.00837 11.491V14H5.30837V11.491H4.00837ZM2.5 19.65H20.5V18.35H2.5V19.65ZM4.16636 13.5752L2.00799 16.0752L2.99201 16.9248L5.15037 14.4248L4.16636 13.5752ZM1.85 16.5V19H3.15V16.5H1.85ZM11.5 5.65C12.273 5.65 13.013 5.79154 13.6957 6.05016L14.1562 4.83445C13.3287 4.52099 12.4328 4.35 11.5 4.35V5.65ZM18.8025 15.5285L20.008 16.9248L20.992 16.0752L19.7865 14.6789L18.8025 15.5285Z" fill="#141B34"/>
</svg>
