<svg width="24" height="24" viewBox="0 0 24 24" fill="none" xmlns="http://www.w3.org/2000/svg">
<path d="M20.5 2L21.25 2.00013L21.2501 1.25H20.5V2ZM20.4975 16V16.75H21.2474L21.2475 16.0001L20.4975 16ZM3.5 5L4.25 5.00021V5H3.5ZM3.49609 19L2.74609 18.9998V19H3.49609ZM3.49609 18.9983L2.74609 18.9981L3.49609 18.9983ZM6.5 2.75H20.5V1.25H6.5V2.75ZM19.75 1.99987L19.7475 15.9999L21.2475 16.0001L21.25 2.00013L19.75 1.99987ZM6.5 1.25C4.42893 1.25 2.75 2.92893 2.75 5H4.25C4.25 3.75736 5.25736 2.75 6.5 2.75V1.25ZM6.49609 16.75H20.4975V15.25H6.49609V16.75ZM20.4975 21.25H6.49609V22.75H20.4975V21.25ZM6.49609 21.25C5.25345 21.25 4.24609 20.2426 4.24609 19H2.74609C2.74609 21.0711 4.42502 22.75 6.49609 22.75V21.25ZM6.49609 15.25C4.42574 15.25 2.74725 16.9278 2.74609 18.9979L4.24609 18.9987C4.24679 17.7567 5.25388 16.75 6.49609 16.75V15.25ZM2.74609 18.9981L2.74609 18.9998L4.24609 19.0002L4.24609 18.9985L2.74609 18.9981ZM2.75 4.99979L2.74609 18.9981L4.24609 18.9985L4.25 5.00021L2.75 4.99979ZM17.748 16V22H19.248V16H17.748Z" fill="#141B34"/>
<path d="M12 11.25C11.5858 11.25 11.25 11.5858 11.25 12C11.25 12.4142 11.5858 12.75 12 12.75V11.25ZM12.0064 12.75C12.4206 12.75 12.7564 12.4142 12.7564 12C12.7564 11.5858 12.4206 11.25 12.0064 11.25V12.75ZM11.9946 5.25C10.3442 5.25 8.8156 5.81654 7.54764 6.77532L8.45236 7.97177C9.48207 7.19314 10.6976 6.75 11.9946 6.75V5.25ZM16.4535 6.78439C15.1832 5.82013 13.6502 5.25 11.9946 5.25V6.75C13.2956 6.75 14.5147 7.19593 15.5465 7.97916L16.4535 6.78439ZM14.5504 9.06903C13.7867 8.6264 12.9175 8.37368 11.9946 8.37368V9.87368C12.6383 9.87368 13.2496 10.0489 13.7982 10.3668L14.5504 9.06903ZM11.9946 8.37368C11.0763 8.37368 10.2112 8.62386 9.45027 9.06238L10.1993 10.362C10.7456 10.0471 11.3541 9.87368 11.9946 9.87368V8.37368ZM12 12.75H12.0064V11.25H12V12.75Z" fill="#141B34"/>
</svg>
