<svg width="24" height="24" viewBox="0 0 24 24" fill="none" xmlns="http://www.w3.org/2000/svg">
<path d="M11 22L10.6954 22.6854C10.8893 22.7715 11.1107 22.7715 11.3046 22.6854L11 22ZM2 18H1.25L1.25 18.4874L1.6954 18.6854L2 18ZM20.75 12V6L19.25 6V12L20.75 12ZM2.75 18C2.75 17.9992 2.75 17.9984 2.75 17.9976C2.75 17.9968 2.75 17.9959 2.75 17.995C2.75 17.994 2.75 17.9931 2.75 17.992C2.75 17.991 2.75 17.99 2.75 17.9889C2.75 17.9878 2.75 17.9866 2.75 17.9855C2.75 17.9843 2.75 17.9831 2.75 17.9818C2.75 17.9805 2.75 17.9792 2.75 17.9779C2.75 17.9765 2.75 17.9752 2.75 17.9737C2.75 17.9723 2.75 17.9708 2.75 17.9693C2.75 17.9678 2.75 17.9662 2.75 17.9646C2.75 17.963 2.75 17.9614 2.75 17.9597C2.75 17.9581 2.75 17.9563 2.75 17.9546C2.75 17.9528 2.75 17.951 2.75 17.9492C2.75 17.9473 2.75 17.9455 2.75 17.9435C2.75 17.9416 2.75 17.9396 2.75 17.9376C2.75 17.9356 2.75 17.9336 2.75 17.9315C2.75 17.9294 2.75 17.9273 2.75 17.9251C2.75 17.923 2.75 17.9208 2.75 17.9185C2.75 17.9163 2.75 17.914 2.75 17.9117C2.75 17.9094 2.75 17.907 2.75 17.9046C2.75 17.9022 2.75 17.8998 2.75 17.8973C2.75 17.8948 2.75 17.8923 2.75 17.8897C2.75 17.8872 2.75 17.8846 2.75 17.8819C2.75 17.8793 2.75 17.8766 2.75 17.8739C2.75 17.8712 2.75 17.8685 2.75 17.8657C2.75 17.8629 2.75 17.86 2.75 17.8572C2.75 17.8543 2.75 17.8514 2.75 17.8485C2.75 17.8455 2.75 17.8425 2.75 17.8395C2.75 17.8365 2.75 17.8334 2.75 17.8303C2.75 17.8272 2.75 17.8241 2.75 17.8209C2.75 17.8178 2.75 17.8145 2.75 17.8113C2.75 17.8081 2.75 17.8048 2.75 17.8014C2.75 17.7981 2.75 17.7948 2.75 17.7914C2.75 17.788 2.75 17.7845 2.75 17.7811C2.75 17.7776 2.75 17.7741 2.75 17.7705C2.75 17.767 2.75 17.7634 2.75 17.7598C2.75 17.7562 2.75 17.7525 2.75 17.7488C2.75 17.7451 2.75 17.7414 2.75 17.7376C2.75 17.7339 2.75 17.7301 2.75 17.7262C2.75 17.7224 2.75 17.7185 2.75 17.7146C2.75 17.7107 2.75 17.7068 2.75 17.7028C2.75 17.6988 2.75 17.6948 2.75 17.6907C2.75 17.6867 2.75 17.6826 2.75 17.6785C2.75 17.6743 2.75 17.6702 2.75 17.666C2.75 17.6618 2.75 17.6576 2.75 17.6533C2.75 17.649 2.75 17.6447 2.75 17.6404C2.75 17.6361 2.75 17.6317 2.75 17.6273C2.75 17.6229 2.75 17.6184 2.75 17.614C2.75 17.6095 2.75 17.605 2.75 17.6004C2.75 17.5959 2.75 17.5913 2.75 17.5867C2.75 17.5821 2.75 17.5774 2.75 17.5727C2.75 17.5681 2.75 17.5634 2.75 17.5586C2.75 17.5539 2.75 17.5491 2.75 17.5443C2.75 17.5394 2.75 17.5346 2.75 17.5297C2.75 17.5248 2.75 17.5199 2.75 17.5149C2.75 17.51 2.75 17.505 2.75 17.5C2.75 17.495 2.75 17.4899 2.75 17.4848C2.75 17.4797 2.75 17.4746 2.75 17.4695C2.75 17.4643 2.75 17.4591 2.75 17.4539C2.75 17.4487 2.75 17.4435 2.75 17.4382C2.75 17.4329 2.75 17.4276 2.75 17.4222C2.75 17.4169 2.75 17.4115 2.75 17.4061C2.75 17.4007 2.75 17.3952 2.75 17.3898C2.75 17.3843 2.75 17.3788 2.75 17.3732C2.75 17.3677 2.75 17.3621 2.75 17.3565C2.75 17.3509 2.75 17.3453 2.75 17.3396C2.75 17.3339 2.75 17.3282 2.75 17.3225C2.75 17.3168 2.75 17.311 2.75 17.3052C2.75 17.2994 2.75 17.2936 2.75 17.2878C2.75 17.2819 2.75 17.276 2.75 17.2701C2.75 17.2642 2.75 17.2582 2.75 17.2523C2.75 17.2463 2.75 17.2403 2.75 17.2342C2.75 17.2282 2.75 17.2221 2.75 17.216C2.75 17.2099 2.75 17.2038 2.75 17.1976C2.75 17.1915 2.75 17.1853 2.75 17.179C2.75 17.1728 2.75 17.1666 2.75 17.1603C2.75 17.154 2.75 17.1477 2.75 17.1413C2.75 17.135 2.75 17.1286 2.75 17.1222C2.75 17.1158 2.75 17.1094 2.75 17.1029C2.75 17.0965 2.75 17.09 2.75 17.0835C2.75 17.077 2.75 17.0704 2.75 17.0638C2.75 17.0572 2.75 17.0506 2.75 17.044C2.75 17.0374 2.75 17.0307 2.75 17.024C2.75 17.0173 2.75 17.0106 2.75 17.0039C2.75 16.9971 2.75 16.9903 2.75 16.9835C2.75 16.9767 2.75 16.9699 2.75 16.963C2.75 16.9562 2.75 16.9493 2.75 16.9423C2.75 16.9354 2.75 16.9285 2.75 16.9215C2.75 16.9145 2.75 16.9075 2.75 16.9005C2.75 16.8935 2.75 16.8864 2.75 16.8793C2.75 16.8722 2.75 16.8651 2.75 16.858C2.75 16.8508 2.75 16.8437 2.75 16.8365C2.75 16.8293 2.75 16.8221 2.75 16.8148C2.75 16.8076 2.75 16.8003 2.75 16.793C2.75 16.7857 2.75 16.7783 2.75 16.771C2.75 16.7636 2.75 16.7562 2.75 16.7488C2.75 16.7414 2.75 16.734 2.75 16.7265C2.75 16.7191 2.75 16.7116 2.75 16.7041C2.75 16.6965 2.75 16.689 2.75 16.6814C2.75 16.6739 2.75 16.6663 2.75 16.6587C2.75 16.651 2.75 16.6434 2.75 16.6357C2.75 16.6281 2.75 16.6204 2.75 16.6126C2.75 16.6049 2.75 16.5972 2.75 16.5894C2.75 16.5816 2.75 16.5738 2.75 16.566C2.75 16.5582 2.75 16.5503 2.75 16.5425C2.75 16.5346 2.75 16.5267 2.75 16.5188C2.75 16.5108 2.75 16.5029 2.75 16.4949C2.75 16.4869 2.75 16.479 2.75 16.4709C2.75 16.4629 2.75 16.4549 2.75 16.4468C2.75 16.4387 2.75 16.4306 2.75 16.4225C2.75 16.4144 2.75 16.4063 2.75 16.3981C2.75 16.3899 2.75 16.3817 2.75 16.3735C2.75 16.3653 2.75 16.3571 2.75 16.3488C2.75 16.3405 2.75 16.3323 2.75 16.3239C2.75 16.3156 2.75 16.3073 2.75 16.299C2.75 16.2906 2.75 16.2822 2.75 16.2738C2.75 16.2654 2.75 16.257 2.75 16.2485C2.75 16.2401 2.75 16.2316 2.75 16.2231C2.75 16.2146 2.75 16.2061 2.75 16.1976C2.75 16.189 2.75 16.1805 2.75 16.1719C2.75 16.1633 2.75 16.1547 2.75 16.1461C2.75 16.1375 2.75 16.1288 2.75 16.1201C2.75 16.1115 2.75 16.1028 2.75 16.0941C2.75 16.0853 2.75 16.0766 2.75 16.0678C2.75 16.0591 2.75 16.0503 2.75 16.0415C2.75 16.0327 2.75 16.0239 2.75 16.015C2.75 16.0062 2.75 15.9973 2.75 15.9884C2.75 15.9795 2.75 15.9706 2.75 15.9617C2.75 15.9528 2.75 15.9438 2.75 15.9348C2.75 15.9259 2.75 15.9169 2.75 15.9079C2.75 15.8988 2.75 15.8898 2.75 15.8808C2.75 15.8717 2.75 15.8626 2.75 15.8535C2.75 15.8444 2.75 15.8353 2.75 15.8262C2.75 15.817 2.75 15.8079 2.75 15.7987C2.75 15.7895 2.75 15.7803 2.75 15.7711C2.75 15.7619 2.75 15.7527 2.75 15.7434C2.75 15.7341 2.75 15.7249 2.75 15.7156C2.75 15.7063 2.75 15.697 2.75 15.6876C2.75 15.6783 2.75 15.6689 2.75 15.6596C2.75 15.6502 2.75 15.6408 2.75 15.6314C2.75 15.622 2.75 15.6125 2.75 15.6031C2.75 15.5936 2.75 15.5842 2.75 15.5747C2.75 15.5652 2.75 15.5557 2.75 15.5462C2.75 15.5367 2.75 15.5271 2.75 15.5176C2.75 15.508 2.75 15.4984 2.75 15.4888C2.75 15.4792 2.75 15.4696 2.75 15.46C2.75 15.4503 2.75 15.4407 2.75 15.431C2.75 15.4213 2.75 15.4117 2.75 15.402C2.75 15.3923 2.75 15.3825 2.75 15.3728C2.75 15.363 2.75 15.3533 2.75 15.3435C2.75 15.3337 2.75 15.324 2.75 15.3141C2.75 15.3043 2.75 15.2945 2.75 15.2847C2.75 15.2748 2.75 15.265 2.75 15.2551C2.75 15.2452 2.75 15.2353 2.75 15.2254C2.75 15.2155 2.75 15.2056 2.75 15.1956C2.75 15.1857 2.75 15.1757 2.75 15.1657C2.75 15.1558 2.75 15.1458 2.75 15.1358C2.75 15.1258 2.75 15.1157 2.75 15.1057C2.75 15.0957 2.75 15.0856 2.75 15.0755C2.75 15.0655 2.75 15.0554 2.75 15.0453C2.75 15.0352 2.75 15.025 2.75 15.0149C2.75 15.0048 2.75 14.9946 2.75 14.9845C2.75 14.9743 2.75 14.9641 2.75 14.9539C2.75 14.9437 2.75 14.9335 2.75 14.9233C2.75 14.9131 2.75 14.9028 2.75 14.8926C2.75 14.8823 2.75 14.872 2.75 14.8618C2.75 14.8515 2.75 14.8412 2.75 14.8309C2.75 14.8206 2.75 14.8102 2.75 14.7999C2.75 14.7895 2.75 14.7792 2.75 14.7688C2.75 14.7584 2.75 14.7481 2.75 14.7377C2.75 14.7273 2.75 14.7169 2.75 14.7064C2.75 14.696 2.75 14.6856 2.75 14.6751C2.75 14.6647 2.75 14.6542 2.75 14.6437C2.75 14.6332 2.75 14.6227 2.75 14.6122C2.75 14.6017 2.75 14.5912 2.75 14.5807C2.75 14.5701 2.75 14.5596 2.75 14.549C2.75 14.5385 2.75 14.5279 2.75 14.5173C2.75 14.5067 2.75 14.4961 2.75 14.4855C2.75 14.4749 2.75 14.4643 2.75 14.4537C2.75 14.443 2.75 14.4324 2.75 14.4217C2.75 14.4111 2.75 14.4004 2.75 14.3897C2.75 14.379 2.75 14.3683 2.75 14.3576C2.75 14.3469 2.75 14.3362 2.75 14.3255C2.75 14.3147 2.75 14.304 2.75 14.2932C2.75 14.2825 2.75 14.2717 2.75 14.2609C2.75 14.2502 2.75 14.2394 2.75 14.2286C2.75 14.2178 2.75 14.207 2.75 14.1961C2.75 14.1853 2.75 14.1745 2.75 14.1636C2.75 14.1528 2.75 14.1419 2.75 14.1311C2.75 14.1202 2.75 14.1093 2.75 14.0985C2.75 14.0876 2.75 14.0767 2.75 14.0658C2.75 14.0549 2.75 14.0439 2.75 14.033C2.75 14.0221 2.75 14.0111 2.75 14.0002C2.75 13.9893 2.75 13.9783 2.75 13.9673C2.75 13.9564 2.75 13.9454 2.75 13.9344C2.75 13.9234 2.75 13.9124 2.75 13.9014C2.75 13.8904 2.75 13.8794 2.75 13.8684C2.75 13.8573 2.75 13.8463 2.75 13.8353C2.75 13.8242 2.75 13.8132 2.75 13.8021C2.75 13.791 2.75 13.78 2.75 13.7689C2.75 13.7578 2.75 13.7467 2.75 13.7356C2.75 13.7245 2.75 13.7134 2.75 13.7023C2.75 13.6912 2.75 13.6801 2.75 13.669C2.75 13.6578 2.75 13.6467 2.75 13.6355C2.75 13.6244 2.75 13.6132 2.75 13.6021C2.75 13.5909 2.75 13.5797 2.75 13.5686C2.75 13.5574 2.75 13.5462 2.75 13.535C2.75 13.5238 2.75 13.5126 2.75 13.5014C2.75 13.4902 2.75 13.479 2.75 13.4678C2.75 13.4565 2.75 13.4453 2.75 13.4341C2.75 13.4228 2.75 13.4116 2.75 13.4003C2.75 13.3891 2.75 13.3778 2.75 13.3666C2.75 13.3553 2.75 13.344 2.75 13.3327C2.75 13.3215 2.75 13.3102 2.75 13.2989C2.75 13.2876 2.75 13.2763 2.75 13.265C2.75 13.2537 2.75 13.2424 2.75 13.2311C2.75 13.2197 2.75 13.2084 2.75 13.1971C2.75 13.1858 2.75 13.1744 2.75 13.1631C2.75 13.1518 2.75 13.1404 2.75 13.1291C2.75 13.1177 2.75 13.1063 2.75 13.095C2.75 13.0836 2.75 13.0723 2.75 13.0609C2.75 13.0495 2.75 13.0381 2.75 13.0267C2.75 13.0154 2.75 13.004 2.75 12.9926C2.75 12.9812 2.75 12.9698 2.75 12.9584C2.75 12.947 2.75 12.9356 2.75 12.9242C2.75 12.9128 2.75 12.9013 2.75 12.8899C2.75 12.8785 2.75 12.8671 2.75 12.8556C2.75 12.8442 2.75 12.8328 2.75 12.8213C2.75 12.8099 2.75 12.7985 2.75 12.787C2.75 12.7756 2.75 12.7641 2.75 12.7527C2.75 12.7412 2.75 12.7298 2.75 12.7183C2.75 12.7068 2.75 12.6954 2.75 12.6839C2.75 12.6724 2.75 12.661 2.75 12.6495C2.75 12.638 2.75 12.6265 2.75 12.6151C2.75 12.6036 2.75 12.5921 2.75 12.5806C2.75 12.5691 2.75 12.5576 2.75 12.5461C2.75 12.5347 2.75 12.5232 2.75 12.5117C2.75 12.5002 2.75 12.4887 2.75 12.4772C2.75 12.4657 2.75 12.4542 2.75 12.4427C2.75 12.4312 2.75 12.4196 2.75 12.4081C2.75 12.3966 2.75 12.3851 2.75 12.3736C2.75 12.3621 2.75 12.3506 2.75 12.3391C2.75 12.3275 2.75 12.316 2.75 12.3045C2.75 12.293 2.75 12.2815 2.75 12.2699C2.75 12.2584 2.75 12.2469 2.75 12.2354C2.75 12.2238 2.75 12.2123 2.75 12.2008C2.75 12.1893 2.75 12.1777 2.75 12.1662C2.75 12.1547 2.75 12.1431 2.75 12.1316C2.75 12.1201 2.75 12.1085 2.75 12.097C2.75 12.0855 2.75 12.0739 2.75 12.0624C2.75 12.0509 2.75 12.0394 2.75 12.0278C2.75 12.0163 2.75 12.0048 2.75 11.9932C2.75 11.9817 2.75 11.9702 2.75 11.9586C2.75 11.9471 2.75 11.9356 2.75 11.924C2.75 11.9125 2.75 11.901 2.75 11.8894C2.75 11.8779 2.75 11.8664 2.75 11.8548C2.75 11.8433 2.75 11.8318 2.75 11.8203C2.75 11.8087 2.75 11.7972 2.75 11.7857C2.75 11.7741 2.75 11.7626 2.75 11.7511C2.75 11.7396 2.75 11.728 2.75 11.7165C2.75 11.705 2.75 11.6935 2.75 11.682C2.75 11.6705 2.75 11.6589 2.75 11.6474C2.75 11.6359 2.75 11.6244 2.75 11.6129C2.75 11.6014 2.75 11.5899 2.75 11.5784C2.75 11.5668 2.75 11.5553 2.75 11.5438C2.75 11.5323 2.75 11.5208 2.75 11.5093C2.75 11.4978 2.75 11.4863 2.75 11.4749C2.75 11.4634 2.75 11.4519 2.75 11.4404C2.75 11.4289 2.75 11.4174 2.75 11.4059C2.75 11.3944 2.75 11.383 2.75 11.3715C2.75 11.36 2.75 11.3485 2.75 11.3371C2.75 11.3256 2.75 11.3141 2.75 11.3027C2.75 11.2912 2.75 11.2798 2.75 11.2683C2.75 11.2568 2.75 11.2454 2.75 11.2339C2.75 11.2225 2.75 11.2111 2.75 11.1996C2.75 11.1882 2.75 11.1767 2.75 11.1653C2.75 11.1539 2.75 11.1424 2.75 11.131C2.75 11.1196 2.75 11.1082 2.75 11.0968C2.75 11.0853 2.75 11.0739 2.75 11.0625C2.75 11.0511 2.75 11.0397 2.75 11.0283C2.75 11.0169 2.75 11.0055 2.75 10.9942C2.75 10.9828 2.75 10.9714 2.75 10.96C2.75 10.9486 2.75 10.9373 2.75 10.9259C2.75 10.9145 2.75 10.9032 2.75 10.8918C2.75 10.8805 2.75 10.8691 2.75 10.8578C2.75 10.8464 2.75 10.8351 2.75 10.8238C2.75 10.8124 2.75 10.8011 2.75 10.7898C2.75 10.7785 2.75 10.7671 2.75 10.7558C2.75 10.7445 2.75 10.7332 2.75 10.7219C2.75 10.7106 2.75 10.6993 2.75 10.6881C2.75 10.6768 2.75 10.6655 2.75 10.6542C2.75 10.643 2.75 10.6317 2.75 10.6204C2.75 10.6092 2.75 10.5979 2.75 10.5867C2.75 10.5754 2.75 10.5642 2.75 10.553C2.75 10.5418 2.75 10.5305 2.75 10.5193C2.75 10.5081 2.75 10.4969 2.75 10.4857C2.75 10.4745 2.75 10.4633 2.75 10.4521C2.75 10.4409 2.75 10.4298 2.75 10.4186C2.75 10.4074 2.75 10.3963 2.75 10.3851C2.75 10.374 2.75 10.3628 2.75 10.3517C2.75 10.3406 2.75 10.3294 2.75 10.3183C2.75 10.3072 2.75 10.2961 2.75 10.285C2.75 10.2739 2.75 10.2628 2.75 10.2517C2.75 10.2406 2.75 10.2295 2.75 10.2185C2.75 10.2074 2.75 10.1964 2.75 10.1853C2.75 10.1743 2.75 10.1632 2.75 10.1522C2.75 10.1412 2.75 10.1301 2.75 10.1191C2.75 10.1081 2.75 10.0971 2.75 10.0861C2.75 10.0751 2.75 10.0641 2.75 10.0532C2.75 10.0422 2.75 10.0312 2.75 10.0203C2.75 10.0093 2.75 9.99838 2.75 9.98744C2.75 9.97651 2.75 9.96559 2.75 9.95467C2.75 9.94376 2.75 9.93286 2.75 9.92196C2.75 9.91107 2.75 9.90019 2.75 9.88932C2.75 9.87844 2.75 9.86758 2.75 9.85673C2.75 9.84588 2.75 9.83504 2.75 9.82421C2.75 9.81339 2.75 9.80257 2.75 9.79176C2.75 9.78096 2.75 9.77016 2.75 9.75938C2.75 9.74859 2.75 9.73782 2.75 9.72706C2.75 9.7163 2.75 9.70555 2.75 9.69481C2.75 9.68407 2.75 9.67334 2.75 9.66263C2.75 9.65191 2.75 9.64121 2.75 9.63052C2.75 9.61983 2.75 9.60915 2.75 9.59848C2.75 9.58782 2.75 9.57716 2.75 9.56652C2.75 9.55588 2.75 9.54525 2.75 9.53463C2.75 9.52401 2.75 9.51341 2.75 9.50281C2.75 9.49222 2.75 9.48164 2.75 9.47107C2.75 9.46051 2.75 9.44995 2.75 9.43941C2.75 9.42887 2.75 9.41834 2.75 9.40783C2.75 9.39731 2.75 9.38681 2.75 9.37632C2.75 9.36583 2.75 9.35536 2.75 9.34489C2.75 9.33443 2.75 9.32398 2.75 9.31355C2.75 9.30311 2.75 9.29269 2.75 9.28229C2.75 9.27188 2.75 9.26149 2.75 9.25111C2.75 9.24073 2.75 9.23036 2.75 9.22001C2.75 9.20966 2.75 9.19932 2.75 9.189C2.75 9.17868 2.75 9.16837 2.75 9.15808C2.75 9.14778 2.75 9.1375 2.75 9.12724C2.75 9.11697 2.75 9.10672 2.75 9.09649C2.75 9.08625 2.75 9.07603 2.75 9.06583C2.75 9.05562 2.75 9.04543 2.75 9.03526C2.75 9.02508 2.75 9.01493 2.75 9.00478C2.75 8.99464 2.75 8.98451 2.75 8.97439C2.75 8.96428 2.75 8.95418 2.75 8.9441C2.75 8.93402 2.75 8.92395 2.75 8.9139C2.75 8.90385 2.75 8.89382 2.75 8.8838C2.75 8.87378 2.75 8.86378 2.75 8.85379C2.75 8.84381 2.75 8.83384 2.75 8.82388C2.75 8.81393 2.75 8.80399 2.75 8.79407C2.75 8.78415 2.75 8.77425 2.75 8.76436C2.75 8.75447 2.75 8.7446 2.75 8.73475C2.75 8.72489 2.75 8.71506 2.75 8.70524C2.75 8.69542 2.75 8.68561 2.75 8.67583C2.75 8.66604 2.75 8.65627 2.75 8.64652C2.75 8.63677 2.75 8.62704 2.75 8.61732C2.75 8.60761 2.75 8.59791 2.75 8.58823C2.75 8.57855 2.75 8.56889 2.75 8.55924C2.75 8.5496 2.75 8.53997 2.75 8.53036C2.75 8.52075 2.75 8.51116 2.75 8.50159C2.75 8.49202 2.75 8.48246 2.75 8.47293C2.75 8.46339 2.75 8.45387 2.75 8.44437C2.75 8.43488 2.75 8.4254 2.75 8.41593C2.75 8.40647 2.75 8.39703 2.75 8.38761C2.75 8.37818 2.75 8.36878 2.75 8.35939C2.75 8.35001 2.75 8.34064 2.75 8.3313C2.75 8.32195 2.75 8.31262 2.75 8.30331C2.75 8.294 2.75 8.28471 2.75 8.27545C2.75 8.26618 2.75 8.25693 2.75 8.2477C2.75 8.23847 2.75 8.22926 2.75 8.22007C2.75 8.21088 2.75 8.20171 2.75 8.19256C2.75 8.18341 2.75 8.17428 2.75 8.16517C2.75 8.15606 2.75 8.14697 2.75 8.1379C2.75 8.12883 2.75 8.11978 2.75 8.11075C2.75 8.10173 2.75 8.09272 2.75 8.08373C2.75 8.07475 2.75 8.06578 2.75 8.05684C2.75 8.04789 2.75 8.03897 2.75 8.03007C2.75 8.02117 2.75 8.01228 2.75 8.00343C2.75 7.99457 2.75 7.98573 2.75 7.97691C2.75 7.96809 2.75 7.9593 2.75 7.95052C2.75 7.94175 2.75 7.933 2.75 7.92427C2.75 7.91554 2.75 7.90683 2.75 7.89814C2.75 7.88946 2.75 7.88079 2.75 7.87215C2.75 7.86351 2.75 7.85489 2.75 7.84629C2.75 7.83769 2.75 7.82912 2.75 7.82056C2.75 7.81201 2.75 7.80348 2.75 7.79497C2.75 7.78647 2.75 7.77798 2.75 7.76952C2.75 7.76106 2.75 7.75262 2.75 7.7442C2.75 7.73579 2.75 7.72739 2.75 7.71902C2.75 7.71065 2.75 7.70231 2.75 7.69398C2.75 7.68566 2.75 7.67736 2.75 7.66908C2.75 7.66081 2.75 7.65255 2.75 7.64432C2.75 7.6361 2.75 7.62789 2.75 7.61971C2.75 7.61153 2.75 7.60337 2.75 7.59524C2.75 7.5871 2.75 7.57899 2.75 7.57091C2.75 7.56282 2.75 7.55476 2.75 7.54672C2.75 7.53869 2.75 7.53067 2.75 7.52269C2.75 7.5147 2.75 7.50673 2.75 7.4988C2.75 7.49086 2.75 7.48294 2.75 7.47506C2.75 7.46717 2.75 7.4593 2.75 7.45146C2.75 7.44362 2.75 7.43581 2.75 7.42802C2.75 7.42023 2.75 7.41247 2.75 7.40473C2.75 7.39699 2.75 7.38928 2.75 7.38159C2.75 7.37391 2.75 7.36625 2.75 7.35861C2.75 7.35097 2.75 7.34336 2.75 7.33578C2.75 7.3282 2.75 7.32064 2.75 7.31311C2.75 7.30557 2.75 7.29807 2.75 7.29059C2.75 7.28311 2.75 7.27566 2.75 7.26823C2.75 7.2608 2.75 7.2534 2.75 7.24603C2.75 7.23865 2.75 7.23131 2.75 7.22399C2.75 7.21667 2.75 7.20937 2.75 7.20211C2.75 7.19484 2.75 7.1876 2.75 7.18039C2.75 7.17317 2.75 7.16599 2.75 7.15883C2.75 7.15167 2.75 7.14454 2.75 7.13744C2.75 7.13033 2.75 7.12326 2.75 7.11621C2.75 7.10916 2.75 7.10214 2.75 7.09515C2.75 7.08815 2.75 7.08119 2.75 7.07425C2.75 7.06731 2.75 7.0604 2.75 7.05352C2.75 7.04664 2.75 7.03979 2.75 7.03296C2.75 7.02614 2.75 7.01934 2.75 7.01257C2.75 7.00581 2.75 6.99907 2.75 6.99236C2.75 6.98564 2.75 6.97896 2.75 6.97231C2.75 6.96566 2.75 6.95903 2.75 6.95244C2.75 6.94584 2.75 6.93927 2.75 6.93274C2.75 6.9262 2.75 6.91969 2.75 6.91321C2.75 6.90673 2.75 6.90028 2.75 6.89386C2.75 6.88744 2.75 6.88105 2.75 6.87469C2.75 6.86833 2.75 6.862 2.75 6.8557C2.75 6.84939 2.75 6.84312 2.75 6.83688C2.75 6.83064 2.75 6.82443 2.75 6.81825C2.75 6.81206 2.75 6.80591 2.75 6.79979C2.75 6.79367 2.75 6.78758 2.75 6.78152C2.75 6.77546 2.75 6.76943 2.75 6.76343C2.75 6.75743 2.75 6.75146 2.75 6.74553C2.75 6.73959 2.75 6.73368 2.75 6.72781C2.75 6.72193 2.75 6.71609 2.75 6.71027C2.75 6.70446 2.75 6.69868 2.75 6.69293C2.75 6.68718 2.75 6.68146 2.75 6.67577C2.75 6.67008 2.75 6.66443 2.75 6.6588C2.75 6.65318 2.75 6.64758 2.75 6.64202C2.75 6.63646 2.75 6.63093 2.75 6.62544C2.75 6.61994 2.75 6.61447 2.75 6.60904C2.75 6.60361 2.75 6.59821 2.75 6.59284C2.75 6.58747 2.75 6.58214 2.75 6.57683C2.75 6.57153 2.75 6.56626 2.75 6.56102C2.75 6.55578 2.75 6.55058 2.75 6.54541C2.75 6.54023 2.75 6.53509 2.75 6.52999C2.75 6.52488 2.75 6.51981 2.75 6.51477C2.75 6.50973 2.75 6.50472 2.75 6.49975C2.75 6.49477 2.75 6.48983 2.75 6.48493C2.75 6.48002 2.75 6.47515 2.75 6.47031C2.75 6.46547 2.75 6.46067 2.75 6.45589C2.75 6.45112 2.75 6.44639 2.75 6.44168C2.75 6.43698 2.75 6.43231 2.75 6.42767C2.75 6.42304 2.75 6.41844 2.75 6.41387C2.75 6.40931 2.75 6.40477 2.75 6.40028C2.75 6.39578 2.75 6.39132 2.75 6.38689C2.75 6.38246 2.75 6.37807 2.75 6.37371C2.75 6.36935 2.75 6.36503 2.75 6.36074C2.75 6.35645 2.75 6.3522 2.75 6.34798C2.75 6.34376 2.75 6.33958 2.75 6.33543C2.75 6.33129 2.75 6.32717 2.75 6.3231C2.75 6.31902 2.75 6.31498 2.75 6.31098C2.75 6.30697 2.75 6.303 2.75 6.29907C2.75 6.29514 2.75 6.29124 2.75 6.28738C2.75 6.28352 2.75 6.2797 2.75 6.27591C2.75 6.27212 2.75 6.26837 2.75 6.26465C2.75 6.26094 2.75 6.25726 2.75 6.25361C2.75 6.24997 2.75 6.24637 2.75 6.2428C2.75 6.23923 2.75 6.2357 2.75 6.2322C2.75 6.22871 2.75 6.22525 2.75 6.22183C2.75 6.21841 2.75 6.21502 2.75 6.21168C2.75 6.20833 2.75 6.20502 2.75 6.20175C2.75 6.19848 2.75 6.19524 2.75 6.19205C2.75 6.18885 2.75 6.18569 2.75 6.18257C2.75 6.17945 2.75 6.17636 2.75 6.17332C2.75 6.17027 2.75 6.16727 2.75 6.1643C2.75 6.16133 2.75 6.1584 2.75 6.15551C2.75 6.15261 2.75 6.14976 2.75 6.14694C2.75 6.14413 2.75 6.14135 2.75 6.13861C2.75 6.13587 2.75 6.13317 2.75 6.13051C2.75 6.12785 2.75 6.12523 2.75 6.12265C2.75 6.12006 2.75 6.11752 2.75 6.11501C2.75 6.11251 2.75 6.11004 2.75 6.10762C2.75 6.10519 2.75 6.1028 2.75 6.10046C2.75 6.09811 2.75 6.0958 2.75 6.09353C2.75 6.09127 2.75 6.08904 2.75 6.08685C2.75 6.08466 2.75 6.08251 2.75 6.0804C2.75 6.07829 2.75 6.07623 2.75 6.0742C2.75 6.07217 2.75 6.07018 2.75 6.06823C2.75 6.06629 2.75 6.06438 2.75 6.06251C2.75 6.06064 2.75 6.05882 2.75 6.05703C2.75 6.05525 2.75 6.0535 2.75 6.0518C2.75 6.05009 2.75 6.04843 2.75 6.04681C2.75 6.04519 2.75 6.04361 2.75 6.04207C2.75 6.04053 2.75 6.03903 2.75 6.03757C2.75 6.03611 2.75 6.0347 2.75 6.03333C2.75 6.03195 2.75 6.03062 2.75 6.02933C2.75 6.02804 2.75 6.02679 2.75 6.02558C2.75 6.02437 2.75 6.02321 2.75 6.02209C2.75 6.02096 2.75 6.01988 2.75 6.01884C2.75 6.0178 2.75 6.01681 2.75 6.01585C2.75 6.0149 2.75 6.01399 2.75 6.01312C2.75 6.01225 2.75 6.01142 2.75 6.01064C2.75 6.00986 2.75 6.00912 2.75 6.00842C2.75 6.00772 2.75 6.00707 2.75 6.00645C2.75 6.00584 2.75 6.00527 2.75 6.00475C2.75 6.00422 2.75 6.00374 2.75 6.0033C2.75 6.00286 2.75 6.00247 2.75 6.00212C2.75 6.00176 2.75 6.00146 2.75 6.00119C2.75 6.00093 2.75 6.00071 2.75 6.00053C2.75 6.00035 2.75 6.00022 2.75 6.00013C2.75 6.00004 2.75 6 2 6C1.25 6 1.25 6.00004 1.25 6.00013C1.25 6.00022 1.25 6.00035 1.25 6.00053C1.25 6.00071 1.25 6.00093 1.25 6.00119C1.25 6.00146 1.25 6.00176 1.25 6.00212C1.25 6.00247 1.25 6.00286 1.25 6.0033C1.25 6.00374 1.25 6.00422 1.25 6.00475C1.25 6.00527 1.25 6.00584 1.25 6.00645C1.25 6.00707 1.25 6.00772 1.25 6.00842C1.25 6.00912 1.25 6.00986 1.25 6.01064C1.25 6.01142 1.25 6.01225 1.25 6.01312C1.25 6.01399 1.25 6.0149 1.25 6.01585C1.25 6.01681 1.25 6.0178 1.25 6.01884C1.25 6.01988 1.25 6.02096 1.25 6.02209C1.25 6.02321 1.25 6.02437 1.25 6.02558C1.25 6.02679 1.25 6.02804 1.25 6.02933C1.25 6.03062 1.25 6.03195 1.25 6.03333C1.25 6.0347 1.25 6.03611 1.25 6.03757C1.25 6.03903 1.25 6.04053 1.25 6.04207C1.25 6.04361 1.25 6.04519 1.25 6.04681C1.25 6.04843 1.25 6.05009 1.25 6.0518C1.25 6.0535 1.25 6.05525 1.25 6.05703C1.25 6.05882 1.25 6.06064 1.25 6.06251C1.25 6.06438 1.25 6.06629 1.25 6.06823C1.25 6.07018 1.25 6.07217 1.25 6.0742C1.25 6.07623 1.25 6.07829 1.25 6.0804C1.25 6.08251 1.25 6.08466 1.25 6.08685C1.25 6.08904 1.25 6.09127 1.25 6.09353C1.25 6.0958 1.25 6.09811 1.25 6.10046C1.25 6.1028 1.25 6.10519 1.25 6.10762C1.25 6.11004 1.25 6.11251 1.25 6.11501C1.25 6.11752 1.25 6.12006 1.25 6.12265C1.25 6.12523 1.25 6.12785 1.25 6.13051C1.25 6.13317 1.25 6.13587 1.25 6.13861C1.25 6.14135 1.25 6.14413 1.25 6.14694C1.25 6.14976 1.25 6.15261 1.25 6.15551C1.25 6.1584 1.25 6.16133 1.25 6.1643C1.25 6.16727 1.25 6.17027 1.25 6.17332C1.25 6.17636 1.25 6.17945 1.25 6.18257C1.25 6.18569 1.25 6.18885 1.25 6.19205C1.25 6.19524 1.25 6.19848 1.25 6.20175C1.25 6.20502 1.25 6.20833 1.25 6.21168C1.25 6.21502 1.25 6.21841 1.25 6.22183C1.25 6.22525 1.25 6.22871 1.25 6.2322C1.25 6.2357 1.25 6.23923 1.25 6.2428C1.25 6.24637 1.25 6.24997 1.25 6.25361C1.25 6.25726 1.25 6.26094 1.25 6.26465C1.25 6.26837 1.25 6.27212 1.25 6.27591C1.25 6.2797 1.25 6.28352 1.25 6.28738C1.25 6.29124 1.25 6.29514 1.25 6.29907C1.25 6.303 1.25 6.30697 1.25 6.31098C1.25 6.31498 1.25 6.31902 1.25 6.3231C1.25 6.32717 1.25 6.33129 1.25 6.33543C1.25 6.33958 1.25 6.34376 1.25 6.34798C1.25 6.3522 1.25 6.35645 1.25 6.36074C1.25 6.36503 1.25 6.36935 1.25 6.37371C1.25 6.37807 1.25 6.38246 1.25 6.38689C1.25 6.39132 1.25 6.39578 1.25 6.40028C1.25 6.40477 1.25 6.40931 1.25 6.41387C1.25 6.41844 1.25 6.42304 1.25 6.42767C1.25 6.43231 1.25 6.43698 1.25 6.44168C1.25 6.44639 1.25 6.45112 1.25 6.45589C1.25 6.46067 1.25 6.46547 1.25 6.47031C1.25 6.47515 1.25 6.48002 1.25 6.48493C1.25 6.48983 1.25 6.49477 1.25 6.49975C1.25 6.50472 1.25 6.50973 1.25 6.51477C1.25 6.51981 1.25 6.52488 1.25 6.52999C1.25 6.53509 1.25 6.54023 1.25 6.54541C1.25 6.55058 1.25 6.55578 1.25 6.56102C1.25 6.56626 1.25 6.57153 1.25 6.57683C1.25 6.58214 1.25 6.58747 1.25 6.59284C1.25 6.59821 1.25 6.60361 1.25 6.60904C1.25 6.61447 1.25 6.61994 1.25 6.62544C1.25 6.63093 1.25 6.63646 1.25 6.64202C1.25 6.64758 1.25 6.65318 1.25 6.6588C1.25 6.66443 1.25 6.67008 1.25 6.67577C1.25 6.68146 1.25 6.68718 1.25 6.69293C1.25 6.69868 1.25 6.70446 1.25 6.71027C1.25 6.71609 1.25 6.72193 1.25 6.72781C1.25 6.73368 1.25 6.73959 1.25 6.74553C1.25 6.75146 1.25 6.75743 1.25 6.76343C1.25 6.76943 1.25 6.77546 1.25 6.78152C1.25 6.78758 1.25 6.79367 1.25 6.79979C1.25 6.80591 1.25 6.81206 1.25 6.81825C1.25 6.82443 1.25 6.83064 1.25 6.83688C1.25 6.84312 1.25 6.84939 1.25 6.8557C1.25 6.862 1.25 6.86833 1.25 6.87469C1.25 6.88105 1.25 6.88744 1.25 6.89386C1.25 6.90028 1.25 6.90673 1.25 6.91321C1.25 6.91969 1.25 6.9262 1.25 6.93274C1.25 6.93927 1.25 6.94584 1.25 6.95244C1.25 6.95903 1.25 6.96566 1.25 6.97231C1.25 6.97896 1.25 6.98564 1.25 6.99236C1.25 6.99907 1.25 7.00581 1.25 7.01257C1.25 7.01934 1.25 7.02614 1.25 7.03296C1.25 7.03979 1.25 7.04664 1.25 7.05352C1.25 7.0604 1.25 7.06731 1.25 7.07425C1.25 7.08119 1.25 7.08815 1.25 7.09515C1.25 7.10214 1.25 7.10916 1.25 7.11621C1.25 7.12326 1.25 7.13033 1.25 7.13744C1.25 7.14454 1.25 7.15167 1.25 7.15883C1.25 7.16599 1.25 7.17317 1.25 7.18039C1.25 7.1876 1.25 7.19484 1.25 7.20211C1.25 7.20937 1.25 7.21667 1.25 7.22399C1.25 7.23131 1.25 7.23865 1.25 7.24603C1.25 7.2534 1.25 7.2608 1.25 7.26823C1.25 7.27566 1.25 7.28311 1.25 7.29059C1.25 7.29807 1.25 7.30557 1.25 7.31311C1.25 7.32064 1.25 7.3282 1.25 7.33578C1.25 7.34336 1.25 7.35097 1.25 7.35861C1.25 7.36625 1.25 7.37391 1.25 7.38159C1.25 7.38928 1.25 7.39699 1.25 7.40473C1.25 7.41247 1.25 7.42023 1.25 7.42802C1.25 7.43581 1.25 7.44362 1.25 7.45146C1.25 7.4593 1.25 7.46717 1.25 7.47506C1.25 7.48294 1.25 7.49086 1.25 7.4988C1.25 7.50673 1.25 7.5147 1.25 7.52269C1.25 7.53067 1.25 7.53869 1.25 7.54672C1.25 7.55476 1.25 7.56282 1.25 7.57091C1.25 7.57899 1.25 7.5871 1.25 7.59524C1.25 7.60337 1.25 7.61153 1.25 7.61971C1.25 7.62789 1.25 7.6361 1.25 7.64432C1.25 7.65255 1.25 7.66081 1.25 7.66908C1.25 7.67736 1.25 7.68566 1.25 7.69398C1.25 7.70231 1.25 7.71065 1.25 7.71902C1.25 7.72739 1.25 7.73579 1.25 7.7442C1.25 7.75262 1.25 7.76106 1.25 7.76952C1.25 7.77798 1.25 7.78647 1.25 7.79497C1.25 7.80348 1.25 7.81201 1.25 7.82056C1.25 7.82912 1.25 7.83769 1.25 7.84629C1.25 7.85489 1.25 7.86351 1.25 7.87215C1.25 7.88079 1.25 7.88946 1.25 7.89814C1.25 7.90683 1.25 7.91554 1.25 7.92427C1.25 7.933 1.25 7.94175 1.25 7.95052C1.25 7.9593 1.25 7.96809 1.25 7.97691C1.25 7.98573 1.25 7.99457 1.25 8.00343C1.25 8.01228 1.25 8.02117 1.25 8.03007C1.25 8.03897 1.25 8.04789 1.25 8.05684C1.25 8.06578 1.25 8.07475 1.25 8.08373C1.25 8.09272 1.25 8.10173 1.25 8.11075C1.25 8.11978 1.25 8.12883 1.25 8.1379C1.25 8.14697 1.25 8.15606 1.25 8.16517C1.25 8.17428 1.25 8.18341 1.25 8.19256C1.25 8.20171 1.25 8.21088 1.25 8.22007C1.25 8.22926 1.25 8.23847 1.25 8.2477C1.25 8.25693 1.25 8.26618 1.25 8.27545C1.25 8.28471 1.25 8.294 1.25 8.30331C1.25 8.31262 1.25 8.32195 1.25 8.3313C1.25 8.34064 1.25 8.35001 1.25 8.35939C1.25 8.36878 1.25 8.37818 1.25 8.38761C1.25 8.39703 1.25 8.40647 1.25 8.41593C1.25 8.4254 1.25 8.43488 1.25 8.44437C1.25 8.45387 1.25 8.46339 1.25 8.47293C1.25 8.48246 1.25 8.49202 1.25 8.50159C1.25 8.51116 1.25 8.52075 1.25 8.53036C1.25 8.53997 1.25 8.5496 1.25 8.55924C1.25 8.56889 1.25 8.57855 1.25 8.58823C1.25 8.59791 1.25 8.60761 1.25 8.61732C1.25 8.62704 1.25 8.63677 1.25 8.64652C1.25 8.65627 1.25 8.66604 1.25 8.67583C1.25 8.68561 1.25 8.69542 1.25 8.70524C1.25 8.71506 1.25 8.72489 1.25 8.73475C1.25 8.7446 1.25 8.75447 1.25 8.76436C1.25 8.77425 1.25 8.78415 1.25 8.79407C1.25 8.80399 1.25 8.81393 1.25 8.82388C1.25 8.83384 1.25 8.84381 1.25 8.85379C1.25 8.86378 1.25 8.87378 1.25 8.8838C1.25 8.89382 1.25 8.90385 1.25 8.9139C1.25 8.92395 1.25 8.93402 1.25 8.9441C1.25 8.95418 1.25 8.96428 1.25 8.97439C1.25 8.98451 1.25 8.99464 1.25 9.00478C1.25 9.01493 1.25 9.02508 1.25 9.03526C1.25 9.04543 1.25 9.05562 1.25 9.06583C1.25 9.07603 1.25 9.08625 1.25 9.09649C1.25 9.10672 1.25 9.11697 1.25 9.12724C1.25 9.1375 1.25 9.14778 1.25 9.15808C1.25 9.16837 1.25 9.17868 1.25 9.189C1.25 9.19932 1.25 9.20966 1.25 9.22001C1.25 9.23036 1.25 9.24073 1.25 9.25111C1.25 9.26149 1.25 9.27188 1.25 9.28229C1.25 9.29269 1.25 9.30311 1.25 9.31355C1.25 9.32398 1.25 9.33443 1.25 9.34489C1.25 9.35536 1.25 9.36583 1.25 9.37632C1.25 9.38681 1.25 9.39731 1.25 9.40783C1.25 9.41834 1.25 9.42887 1.25 9.43941C1.25 9.44995 1.25 9.46051 1.25 9.47107C1.25 9.48164 1.25 9.49222 1.25 9.50281C1.25 9.51341 1.25 9.52401 1.25 9.53463C1.25 9.54525 1.25 9.55588 1.25 9.56652C1.25 9.57716 1.25 9.58782 1.25 9.59848C1.25 9.60915 1.25 9.61983 1.25 9.63052C1.25 9.64121 1.25 9.65191 1.25 9.66263C1.25 9.67334 1.25 9.68407 1.25 9.69481C1.25 9.70555 1.25 9.7163 1.25 9.72706C1.25 9.73782 1.25 9.74859 1.25 9.75938C1.25 9.77016 1.25 9.78096 1.25 9.79176C1.25 9.80257 1.25 9.81339 1.25 9.82421C1.25 9.83504 1.25 9.84588 1.25 9.85673C1.25 9.86758 1.25 9.87844 1.25 9.88932C1.25 9.90019 1.25 9.91107 1.25 9.92196C1.25 9.93286 1.25 9.94376 1.25 9.95467C1.25 9.96559 1.25 9.97651 1.25 9.98744C1.25 9.99838 1.25 10.0093 1.25 10.0203C1.25 10.0312 1.25 10.0422 1.25 10.0532C1.25 10.0641 1.25 10.0751 1.25 10.0861C1.25 10.0971 1.25 10.1081 1.25 10.1191C1.25 10.1301 1.25 10.1412 1.25 10.1522C1.25 10.1632 1.25 10.1743 1.25 10.1853C1.25 10.1964 1.25 10.2074 1.25 10.2185C1.25 10.2295 1.25 10.2406 1.25 10.2517C1.25 10.2628 1.25 10.2739 1.25 10.285C1.25 10.2961 1.25 10.3072 1.25 10.3183C1.25 10.3294 1.25 10.3406 1.25 10.3517C1.25 10.3628 1.25 10.374 1.25 10.3851C1.25 10.3963 1.25 10.4074 1.25 10.4186C1.25 10.4298 1.25 10.4409 1.25 10.4521C1.25 10.4633 1.25 10.4745 1.25 10.4857C1.25 10.4969 1.25 10.5081 1.25 10.5193C1.25 10.5305 1.25 10.5418 1.25 10.553C1.25 10.5642 1.25 10.5754 1.25 10.5867C1.25 10.5979 1.25 10.6092 1.25 10.6204C1.25 10.6317 1.25 10.643 1.25 10.6542C1.25 10.6655 1.25 10.6768 1.25 10.6881C1.25 10.6993 1.25 10.7106 1.25 10.7219C1.25 10.7332 1.25 10.7445 1.25 10.7558C1.25 10.7671 1.25 10.7785 1.25 10.7898C1.25 10.8011 1.25 10.8124 1.25 10.8238C1.25 10.8351 1.25 10.8464 1.25 10.8578C1.25 10.8691 1.25 10.8805 1.25 10.8918C1.25 10.9032 1.25 10.9145 1.25 10.9259C1.25 10.9373 1.25 10.9486 1.25 10.96C1.25 10.9714 1.25 10.9828 1.25 10.9942C1.25 11.0055 1.25 11.0169 1.25 11.0283C1.25 11.0397 1.25 11.0511 1.25 11.0625C1.25 11.0739 1.25 11.0853 1.25 11.0968C1.25 11.1082 1.25 11.1196 1.25 11.131C1.25 11.1424 1.25 11.1539 1.25 11.1653C1.25 11.1767 1.25 11.1882 1.25 11.1996C1.25 11.2111 1.25 11.2225 1.25 11.2339C1.25 11.2454 1.25 11.2568 1.25 11.2683C1.25 11.2798 1.25 11.2912 1.25 11.3027C1.25 11.3141 1.25 11.3256 1.25 11.3371C1.25 11.3485 1.25 11.36 1.25 11.3715C1.25 11.383 1.25 11.3944 1.25 11.4059C1.25 11.4174 1.25 11.4289 1.25 11.4404C1.25 11.4519 1.25 11.4634 1.25 11.4749C1.25 11.4863 1.25 11.4978 1.25 11.5093C1.25 11.5208 1.25 11.5323 1.25 11.5438C1.25 11.5553 1.25 11.5668 1.25 11.5784C1.25 11.5899 1.25 11.6014 1.25 11.6129C1.25 11.6244 1.25 11.6359 1.25 11.6474C1.25 11.6589 1.25 11.6705 1.25 11.682C1.25 11.6935 1.25 11.705 1.25 11.7165C1.25 11.728 1.25 11.7396 1.25 11.7511C1.25 11.7626 1.25 11.7741 1.25 11.7857C1.25 11.7972 1.25 11.8087 1.25 11.8203C1.25 11.8318 1.25 11.8433 1.25 11.8548C1.25 11.8664 1.25 11.8779 1.25 11.8894C1.25 11.901 1.25 11.9125 1.25 11.924C1.25 11.9356 1.25 11.9471 1.25 11.9586C1.25 11.9702 1.25 11.9817 1.25 11.9932C1.25 12.0048 1.25 12.0163 1.25 12.0278C1.25 12.0394 1.25 12.0509 1.25 12.0624C1.25 12.0739 1.25 12.0855 1.25 12.097C1.25 12.1085 1.25 12.1201 1.25 12.1316C1.25 12.1431 1.25 12.1547 1.25 12.1662C1.25 12.1777 1.25 12.1893 1.25 12.2008C1.25 12.2123 1.25 12.2238 1.25 12.2354C1.25 12.2469 1.25 12.2584 1.25 12.2699C1.25 12.2815 1.25 12.293 1.25 12.3045C1.25 12.316 1.25 12.3275 1.25 12.3391C1.25 12.3506 1.25 12.3621 1.25 12.3736C1.25 12.3851 1.25 12.3966 1.25 12.4081C1.25 12.4196 1.25 12.4312 1.25 12.4427C1.25 12.4542 1.25 12.4657 1.25 12.4772C1.25 12.4887 1.25 12.5002 1.25 12.5117C1.25 12.5232 1.25 12.5347 1.25 12.5461C1.25 12.5576 1.25 12.5691 1.25 12.5806C1.25 12.5921 1.25 12.6036 1.25 12.6151C1.25 12.6265 1.25 12.638 1.25 12.6495C1.25 12.661 1.25 12.6724 1.25 12.6839C1.25 12.6954 1.25 12.7068 1.25 12.7183C1.25 12.7298 1.25 12.7412 1.25 12.7527C1.25 12.7641 1.25 12.7756 1.25 12.787C1.25 12.7985 1.25 12.8099 1.25 12.8213C1.25 12.8328 1.25 12.8442 1.25 12.8556C1.25 12.8671 1.25 12.8785 1.25 12.8899C1.25 12.9013 1.25 12.9128 1.25 12.9242C1.25 12.9356 1.25 12.947 1.25 12.9584C1.25 12.9698 1.25 12.9812 1.25 12.9926C1.25 13.004 1.25 13.0154 1.25 13.0267C1.25 13.0381 1.25 13.0495 1.25 13.0609C1.25 13.0723 1.25 13.0836 1.25 13.095C1.25 13.1063 1.25 13.1177 1.25 13.1291C1.25 13.1404 1.25 13.1518 1.25 13.1631C1.25 13.1744 1.25 13.1858 1.25 13.1971C1.25 13.2084 1.25 13.2197 1.25 13.2311C1.25 13.2424 1.25 13.2537 1.25 13.265C1.25 13.2763 1.25 13.2876 1.25 13.2989C1.25 13.3102 1.25 13.3215 1.25 13.3327C1.25 13.344 1.25 13.3553 1.25 13.3666C1.25 13.3778 1.25 13.3891 1.25 13.4003C1.25 13.4116 1.25 13.4228 1.25 13.4341C1.25 13.4453 1.25 13.4565 1.25 13.4678C1.25 13.479 1.25 13.4902 1.25 13.5014C1.25 13.5126 1.25 13.5238 1.25 13.535C1.25 13.5462 1.25 13.5574 1.25 13.5686C1.25 13.5797 1.25 13.5909 1.25 13.6021C1.25 13.6132 1.25 13.6244 1.25 13.6355C1.25 13.6467 1.25 13.6578 1.25 13.669C1.25 13.6801 1.25 13.6912 1.25 13.7023C1.25 13.7134 1.25 13.7245 1.25 13.7356C1.25 13.7467 1.25 13.7578 1.25 13.7689C1.25 13.78 1.25 13.791 1.25 13.8021C1.25 13.8132 1.25 13.8242 1.25 13.8353C1.25 13.8463 1.25 13.8573 1.25 13.8684C1.25 13.8794 1.25 13.8904 1.25 13.9014C1.25 13.9124 1.25 13.9234 1.25 13.9344C1.25 13.9454 1.25 13.9564 1.25 13.9673C1.25 13.9783 1.25 13.9893 1.25 14.0002C1.25 14.0111 1.25 14.0221 1.25 14.033C1.25 14.0439 1.25 14.0549 1.25 14.0658C1.25 14.0767 1.25 14.0876 1.25 14.0985C1.25 14.1093 1.25 14.1202 1.25 14.1311C1.25 14.1419 1.25 14.1528 1.25 14.1636C1.25 14.1745 1.25 14.1853 1.25 14.1961C1.25 14.207 1.25 14.2178 1.25 14.2286C1.25 14.2394 1.25 14.2502 1.25 14.2609C1.25 14.2717 1.25 14.2825 1.25 14.2932C1.25 14.304 1.25 14.3147 1.25 14.3255C1.25 14.3362 1.25 14.3469 1.25 14.3576C1.25 14.3683 1.25 14.379 1.25 14.3897C1.25 14.4004 1.25 14.4111 1.25 14.4217C1.25 14.4324 1.25 14.443 1.25 14.4537C1.25 14.4643 1.25 14.4749 1.25 14.4855C1.25 14.4961 1.25 14.5067 1.25 14.5173C1.25 14.5279 1.25 14.5385 1.25 14.549C1.25 14.5596 1.25 14.5701 1.25 14.5807C1.25 14.5912 1.25 14.6017 1.25 14.6122C1.25 14.6227 1.25 14.6332 1.25 14.6437C1.25 14.6542 1.25 14.6647 1.25 14.6751C1.25 14.6856 1.25 14.696 1.25 14.7064C1.25 14.7169 1.25 14.7273 1.25 14.7377C1.25 14.7481 1.25 14.7584 1.25 14.7688C1.25 14.7792 1.25 14.7895 1.25 14.7999C1.25 14.8102 1.25 14.8206 1.25 14.8309C1.25 14.8412 1.25 14.8515 1.25 14.8618C1.25 14.872 1.25 14.8823 1.25 14.8926C1.25 14.9028 1.25 14.9131 1.25 14.9233C1.25 14.9335 1.25 14.9437 1.25 14.9539C1.25 14.9641 1.25 14.9743 1.25 14.9845C1.25 14.9946 1.25 15.0048 1.25 15.0149C1.25 15.025 1.25 15.0352 1.25 15.0453C1.25 15.0554 1.25 15.0655 1.25 15.0755C1.25 15.0856 1.25 15.0957 1.25 15.1057C1.25 15.1157 1.25 15.1258 1.25 15.1358C1.25 15.1458 1.25 15.1558 1.25 15.1657C1.25 15.1757 1.25 15.1857 1.25 15.1956C1.25 15.2056 1.25 15.2155 1.25 15.2254C1.25 15.2353 1.25 15.2452 1.25 15.2551C1.25 15.265 1.25 15.2748 1.25 15.2847C1.25 15.2945 1.25 15.3043 1.25 15.3141C1.25 15.324 1.25 15.3337 1.25 15.3435C1.25 15.3533 1.25 15.363 1.25 15.3728C1.25 15.3825 1.25 15.3923 1.25 15.402C1.25 15.4117 1.25 15.4213 1.25 15.431C1.25 15.4407 1.25 15.4503 1.25 15.46C1.25 15.4696 1.25 15.4792 1.25 15.4888C1.25 15.4984 1.25 15.508 1.25 15.5176C1.25 15.5271 1.25 15.5367 1.25 15.5462C1.25 15.5557 1.25 15.5652 1.25 15.5747C1.25 15.5842 1.25 15.5936 1.25 15.6031C1.25 15.6125 1.25 15.622 1.25 15.6314C1.25 15.6408 1.25 15.6502 1.25 15.6596C1.25 15.6689 1.25 15.6783 1.25 15.6876C1.25 15.697 1.25 15.7063 1.25 15.7156C1.25 15.7249 1.25 15.7341 1.25 15.7434C1.25 15.7527 1.25 15.7619 1.25 15.7711C1.25 15.7803 1.25 15.7895 1.25 15.7987C1.25 15.8079 1.25 15.817 1.25 15.8262C1.25 15.8353 1.25 15.8444 1.25 15.8535C1.25 15.8626 1.25 15.8717 1.25 15.8808C1.25 15.8898 1.25 15.8988 1.25 15.9079C1.25 15.9169 1.25 15.9259 1.25 15.9348C1.25 15.9438 1.25 15.9528 1.25 15.9617C1.25 15.9706 1.25 15.9795 1.25 15.9884C1.25 15.9973 1.25 16.0062 1.25 16.015C1.25 16.0239 1.25 16.0327 1.25 16.0415C1.25 16.0503 1.25 16.0591 1.25 16.0678C1.25 16.0766 1.25 16.0853 1.25 16.0941C1.25 16.1028 1.25 16.1115 1.25 16.1201C1.25 16.1288 1.25 16.1375 1.25 16.1461C1.25 16.1547 1.25 16.1633 1.25 16.1719C1.25 16.1805 1.25 16.189 1.25 16.1976C1.25 16.2061 1.25 16.2146 1.25 16.2231C1.25 16.2316 1.25 16.2401 1.25 16.2485C1.25 16.257 1.25 16.2654 1.25 16.2738C1.25 16.2822 1.25 16.2906 1.25 16.299C1.25 16.3073 1.25 16.3156 1.25 16.3239C1.25 16.3323 1.25 16.3405 1.25 16.3488C1.25 16.3571 1.25 16.3653 1.25 16.3735C1.25 16.3817 1.25 16.3899 1.25 16.3981C1.25 16.4063 1.25 16.4144 1.25 16.4225C1.25 16.4306 1.25 16.4387 1.25 16.4468C1.25 16.4549 1.25 16.4629 1.25 16.4709C1.25 16.479 1.25 16.4869 1.25 16.4949C1.25 16.5029 1.25 16.5108 1.25 16.5188C1.25 16.5267 1.25 16.5346 1.25 16.5425C1.25 16.5503 1.25 16.5582 1.25 16.566C1.25 16.5738 1.25 16.5816 1.25 16.5894C1.25 16.5972 1.25 16.6049 1.25 16.6126C1.25 16.6204 1.25 16.6281 1.25 16.6357C1.25 16.6434 1.25 16.651 1.25 16.6587C1.25 16.6663 1.25 16.6739 1.25 16.6814C1.25 16.689 1.25 16.6965 1.25 16.7041C1.25 16.7116 1.25 16.7191 1.25 16.7265C1.25 16.734 1.25 16.7414 1.25 16.7488C1.25 16.7562 1.25 16.7636 1.25 16.771C1.25 16.7783 1.25 16.7857 1.25 16.793C1.25 16.8003 1.25 16.8076 1.25 16.8148C1.25 16.8221 1.25 16.8293 1.25 16.8365C1.25 16.8437 1.25 16.8508 1.25 16.858C1.25 16.8651 1.25 16.8722 1.25 16.8793C1.25 16.8864 1.25 16.8935 1.25 16.9005C1.25 16.9075 1.25 16.9145 1.25 16.9215C1.25 16.9285 1.25 16.9354 1.25 16.9423C1.25 16.9493 1.25 16.9562 1.25 16.963C1.25 16.9699 1.25 16.9767 1.25 16.9835C1.25 16.9903 1.25 16.9971 1.25 17.0039C1.25 17.0106 1.25 17.0173 1.25 17.024C1.25 17.0307 1.25 17.0374 1.25 17.044C1.25 17.0506 1.25 17.0572 1.25 17.0638C1.25 17.0704 1.25 17.077 1.25 17.0835C1.25 17.09 1.25 17.0965 1.25 17.1029C1.25 17.1094 1.25 17.1158 1.25 17.1222C1.25 17.1286 1.25 17.135 1.25 17.1413C1.25 17.1477 1.25 17.154 1.25 17.1603C1.25 17.1666 1.25 17.1728 1.25 17.179C1.25 17.1853 1.25 17.1915 1.25 17.1976C1.25 17.2038 1.25 17.2099 1.25 17.216C1.25 17.2221 1.25 17.2282 1.25 17.2342C1.25 17.2403 1.25 17.2463 1.25 17.2523C1.25 17.2582 1.25 17.2642 1.25 17.2701C1.25 17.276 1.25 17.2819 1.25 17.2878C1.25 17.2936 1.25 17.2994 1.25 17.3052C1.25 17.311 1.25 17.3168 1.25 17.3225C1.25 17.3282 1.25 17.3339 1.25 17.3396C1.25 17.3453 1.25 17.3509 1.25 17.3565C1.25 17.3621 1.25 17.3677 1.25 17.3732C1.25 17.3788 1.25 17.3843 1.25 17.3898C1.25 17.3952 1.25 17.4007 1.25 17.4061C1.25 17.4115 1.25 17.4169 1.25 17.4222C1.25 17.4276 1.25 17.4329 1.25 17.4382C1.25 17.4435 1.25 17.4487 1.25 17.4539C1.25 17.4591 1.25 17.4643 1.25 17.4695C1.25 17.4746 1.25 17.4797 1.25 17.4848C1.25 17.4899 1.25 17.495 1.25 17.5C1.25 17.505 1.25 17.51 1.25 17.5149C1.25 17.5199 1.25 17.5248 1.25 17.5297C1.25 17.5346 1.25 17.5394 1.25 17.5443C1.25 17.5491 1.25 17.5539 1.25 17.5586C1.25 17.5634 1.25 17.5681 1.25 17.5727C1.25 17.5774 1.25 17.5821 1.25 17.5867C1.25 17.5913 1.25 17.5959 1.25 17.6004C1.25 17.605 1.25 17.6095 1.25 17.614C1.25 17.6184 1.25 17.6229 1.25 17.6273C1.25 17.6317 1.25 17.6361 1.25 17.6404C1.25 17.6447 1.25 17.649 1.25 17.6533C1.25 17.6576 1.25 17.6618 1.25 17.666C1.25 17.6702 1.25 17.6743 1.25 17.6785C1.25 17.6826 1.25 17.6867 1.25 17.6907C1.25 17.6948 1.25 17.6988 1.25 17.7028C1.25 17.7068 1.25 17.7107 1.25 17.7146C1.25 17.7185 1.25 17.7224 1.25 17.7262C1.25 17.7301 1.25 17.7339 1.25 17.7376C1.25 17.7414 1.25 17.7451 1.25 17.7488C1.25 17.7525 1.25 17.7562 1.25 17.7598C1.25 17.7634 1.25 17.767 1.25 17.7705C1.25 17.7741 1.25 17.7776 1.25 17.7811C1.25 17.7845 1.25 17.788 1.25 17.7914C1.25 17.7948 1.25 17.7981 1.25 17.8014C1.25 17.8048 1.25 17.8081 1.25 17.8113C1.25 17.8145 1.25 17.8178 1.25 17.8209C1.25 17.8241 1.25 17.8272 1.25 17.8303C1.25 17.8334 1.25 17.8365 1.25 17.8395C1.25 17.8425 1.25 17.8455 1.25 17.8485C1.25 17.8514 1.25 17.8543 1.25 17.8572C1.25 17.86 1.25 17.8629 1.25 17.8657C1.25 17.8685 1.25 17.8712 1.25 17.8739C1.25 17.8766 1.25 17.8793 1.25 17.8819C1.25 17.8846 1.25 17.8872 1.25 17.8897C1.25 17.8923 1.25 17.8948 1.25 17.8973C1.25 17.8998 1.25 17.9022 1.25 17.9046C1.25 17.907 1.25 17.9094 1.25 17.9117C1.25 17.914 1.25 17.9163 1.25 17.9185C1.25 17.9208 1.25 17.923 1.25 17.9251C1.25 17.9273 1.25 17.9294 1.25 17.9315C1.25 17.9336 1.25 17.9356 1.25 17.9376C1.25 17.9396 1.25 17.9416 1.25 17.9435C1.25 17.9455 1.25 17.9473 1.25 17.9492C1.25 17.951 1.25 17.9528 1.25 17.9546C1.25 17.9563 1.25 17.9581 1.25 17.9597C1.25 17.9614 1.25 17.963 1.25 17.9646C1.25 17.9662 1.25 17.9678 1.25 17.9693C1.25 17.9708 1.25 17.9723 1.25 17.9737C1.25 17.9752 1.25 17.9765 1.25 17.9779C1.25 17.9792 1.25 17.9805 1.25 17.9818C1.25 17.9831 1.25 17.9843 1.25 17.9855C1.25 17.9866 1.25 17.9878 1.25 17.9889C1.25 17.99 1.25 17.991 1.25 17.992C1.25 17.9931 1.25 17.994 1.25 17.995C1.25 17.9959 1.25 17.9968 1.25 17.9976C1.25 17.9984 1.25 17.9992 1.25 18H2.75ZM11.75 22L11.75 10H10.25L10.25 22H11.75ZM11.3046 21.3146L2.3046 17.3146L1.6954 18.6854L10.6954 22.6854L11.3046 21.3146ZM12.6954 20.4258L10.6954 21.3146L11.3046 22.6854L13.3046 21.7965L12.6954 20.4258Z" fill="#141B34"/>
<path d="M11 10L20 6L11 2L2 6L11 10Z" stroke="#141B34" stroke-width="1.5" stroke-linecap="round" stroke-linejoin="round"/>
<path d="M15.5 4L6.5 8" stroke="#141B34" stroke-width="1.5" stroke-linejoin="round"/>
<path d="M5 12L7 13" stroke="#141B34" stroke-width="1.5" stroke-linejoin="round"/>
<path d="M20.4 20.4L22 22M21.2 17.6C21.2 15.6118 19.5882 14 17.6 14C15.6118 14 14 15.6118 14 17.6C14 19.5882 15.6118 21.2 17.6 21.2C19.5882 21.2 21.2 19.5882 21.2 17.6Z" stroke="#141B34" stroke-width="1.5" stroke-linejoin="round"/>
</svg>
