<svg width="24" height="24" viewBox="0 0 24 24" fill="none" xmlns="http://www.w3.org/2000/svg">
<path d="M6 21H5.25V21.75H6V21ZM22 8L22.5303 8.53033C22.8232 8.23744 22.8232 7.76256 22.5303 7.46967L22 8ZM19 5L19.5303 4.46967C19.2374 4.17678 18.7626 4.17678 18.4697 4.46967L19 5ZM6 18L5.46967 17.4697L5.25 17.6893V18H6ZM9 21V21.75H9.31066L9.53033 21.5303L9 21ZM22.5303 7.46967L19.5303 4.46967L18.4697 5.53033L21.4697 8.53033L22.5303 7.46967ZM5.25 18V21H6.75V18H5.25ZM9 20.25H6V21.75H9V20.25ZM18.4697 4.46967L15.4697 7.46967L16.5303 8.53033L19.5303 5.53033L18.4697 4.46967ZM15.4697 7.46967L5.46967 17.4697L6.53033 18.5303L16.5303 8.53033L15.4697 7.46967ZM21.4697 7.46967L18.4697 10.4697L19.5303 11.5303L22.5303 8.53033L21.4697 7.46967ZM18.4697 10.4697L8.46967 20.4697L9.53033 21.5303L19.5303 11.5303L18.4697 10.4697ZM15.4697 8.53033L18.4697 11.5303L19.5303 10.4697L16.5303 7.46967L15.4697 8.53033Z" fill="#141B34"/>
<path d="M7 9.00003V9.75003C7.32282 9.75003 7.60943 9.54346 7.71151 9.2372L7 9.00003ZM5 3L5.67082 2.66459C5.54378 2.4105 5.28408 2.25 5 2.25V3ZM10 5.25003H2V6.75003H10V5.25003ZM7.28849 5.76286L6.28849 8.76286L7.71151 9.2372L8.71151 6.2372L7.28849 5.76286ZM7 8.25003H5V9.75003H7V8.25003ZM7.17082 5.66462L5.67082 2.66459L4.32918 3.33541L5.82918 6.33544L7.17082 5.66462ZM5 2.25H3V3.75H5V2.25ZM11 5.75003C11.1381 5.75003 11.25 5.86196 11.25 6.00003H12.75C12.75 5.03353 11.9665 4.25003 11 4.25003V5.75003ZM11.25 6.00003C11.25 6.1381 11.1381 6.25003 11 6.25003V7.75003C11.9665 7.75003 12.75 6.96653 12.75 6.00003H11.25ZM11 6.25003C10.8619 6.25003 10.75 6.1381 10.75 6.00003H9.25C9.25 6.96653 10.0335 7.75003 11 7.75003V6.25003ZM10.75 6.00003C10.75 5.86196 10.8619 5.75003 11 5.75003V4.25003C10.0335 4.25003 9.25 5.03353 9.25 6.00003H10.75Z" fill="#141B34"/>
</svg>
