<svg width="24" height="24" viewBox="0 0 24 24" fill="none" xmlns="http://www.w3.org/2000/svg">
<path d="M15 5V12H22" stroke="#141B34" stroke-width="1.5" stroke-linejoin="round"/>
<circle cx="17" cy="18" r="2" stroke="#141B34" stroke-width="1.5" stroke-linejoin="round"/>
<circle cx="7" cy="18" r="2" stroke="#141B34" stroke-width="1.5" stroke-linejoin="round"/>
<path d="M22 12H22.75C22.75 11.8695 22.7159 11.7412 22.6512 11.6279L22 12ZM18 5L18.6512 4.6279C18.5177 4.39421 18.2691 4.25 18 4.25V5ZM12 5V4.25C11.8011 4.25 11.6103 4.32902 11.4697 4.46967C11.329 4.61032 11.25 4.80109 11.25 5L12 5ZM22 18V18.75C22.4142 18.75 22.75 18.4142 22.75 18H22ZM18 4.25H12V5.75H18V4.25ZM15 17.25H9V18.75H15V17.25ZM11.25 5L11.25 18H12.75L12.75 5L11.25 5ZM17.3488 5.3721L21.3488 12.3721L22.6512 11.6279L18.6512 4.6279L17.3488 5.3721ZM19 18.75H22V17.25H19V18.75ZM22.75 18V12H21.25V18H22.75Z" fill="#141B34"/>
<path d="M2 12V11.25C1.58579 11.25 1.25 11.5858 1.25 12H2ZM2 18H1.25C1.25 18.4142 1.58579 18.75 2 18.75V18ZM12 11.25H2V12.75H12V11.25ZM1.25 12V18H2.75V12H1.25ZM2 18.75H5V17.25H2V18.75Z" fill="#141B34"/>
<path d="M22 15H20" stroke="#141B34" stroke-width="1.5" stroke-linejoin="round"/>
</svg>
