<svg width="24" height="24" viewBox="0 0 24 24" fill="none" xmlns="http://www.w3.org/2000/svg">
<path d="M9.5 14H5.5L4 6H20L18.5 14H14.5" stroke="#141B34" stroke-width="1.5" stroke-linejoin="round"/>
<path d="M6 6L7 2.00008L9 2M18 6L17 2.00005L15 2" stroke="#141B34" stroke-width="1.5" stroke-linejoin="round"/>
<path d="M9.99988 18.5V19.25H10.837L10.7454 18.4179L9.99988 18.5ZM7 22L6.31064 21.7046C6.21133 21.9363 6.23509 22.2024 6.37387 22.4129C6.51265 22.6233 6.74789 22.75 7 22.75V22ZM13.9999 18.5L13.2544 18.4179L13.1628 19.25H13.9999V18.5ZM17.0015 22V22.75C17.2537 22.75 17.489 22.6233 17.6278 22.4128C17.7665 22.2022 17.7902 21.936 17.6908 21.7043L17.0015 22ZM15.5 18.5L16.1892 18.2043L15.9943 17.75H15.5V18.5ZM8.5 18.5V17.75H8.00545L7.81064 18.2046L8.5 18.5ZM8.53859 12.0821L9.25438 18.5821L10.7454 18.4179L10.0296 11.9179L8.53859 12.0821ZM13.9702 11.9179L13.2544 18.4179L14.7454 18.5821L15.4612 12.0821L13.9702 11.9179ZM7 22.75H17.0015V21.25H7V22.75ZM9.99988 17.75H8.5V19.25H9.99988V17.75ZM7.68936 22.2954L9.18936 18.7954L7.81064 18.2046L6.31064 21.7046L7.68936 22.2954ZM13.9999 19.25H15.5V17.75H13.9999V19.25ZM14.8108 18.7957L16.3123 22.2957L17.6908 21.7043L16.1892 18.2043L14.8108 18.7957Z" fill="#141B34"/>
</svg>
