<svg width="24" height="24" viewBox="0 0 24 24" fill="none" xmlns="http://www.w3.org/2000/svg">
<path d="M11.9579 21.3211L12.4865 20.7891L11.9579 21.3211ZM17.6853 20.9985L18.0092 21.6749L18.0092 21.6749L17.6853 20.9985ZM20 19.8919V19.1419H19.8301L19.6768 19.2151L20 19.8919ZM13.9961 11V11.75H15.8719L14.5132 10.4567L13.9961 11ZM11.6674 8.78341L11.1055 9.2802L11.1269 9.30439L11.1503 9.32666L11.6674 8.78341ZM14.0847 6.3775L13.6207 6.96668L13.6264 6.97122L13.6323 6.97565L14.0847 6.3775ZM20 10.8518L19.5476 11.45L19.7483 11.6018H20V10.8518ZM11.9014 6.36948L11.4418 5.77682L11.4418 5.77682L11.9014 6.36948ZM3.74609 11V11.75V11ZM9.49609 14.5L10.2454 14.5333L10.2802 13.75H9.49609V14.5ZM11.4293 21.8531C12.3712 22.789 13.749 22.8445 14.8892 22.6737C16.0659 22.4975 17.232 22.0471 18.0092 21.6749L17.3614 20.322C16.6619 20.657 15.6447 21.0439 14.6671 21.1903C13.653 21.3421 12.9054 21.2053 12.4865 20.7891L11.4293 21.8531ZM18.0092 21.6749C18.4083 21.4838 18.9868 21.2072 19.4656 20.9784C19.705 20.864 19.9194 20.7616 20.074 20.6877C20.1513 20.6508 20.2136 20.621 20.2566 20.6005C20.2781 20.5902 20.2948 20.5823 20.306 20.5769C20.3117 20.5742 20.316 20.5721 20.3189 20.5707C20.3203 20.57 20.3214 20.5695 20.3222 20.5692C20.3225 20.569 20.3228 20.5689 20.323 20.5688C20.3231 20.5687 20.3231 20.5687 20.3232 20.5687C20.3232 20.5687 20.3232 20.5687 20.3232 20.5687C20.3232 20.5686 20.3232 20.5686 20 19.8919C19.6768 19.2151 19.6767 19.2151 19.6767 19.2151C19.6767 19.2151 19.6767 19.2151 19.6767 19.2151C19.6766 19.2152 19.6766 19.2152 19.6765 19.2152C19.6763 19.2153 19.676 19.2155 19.6756 19.2156C19.6749 19.216 19.6738 19.2165 19.6724 19.2172C19.6695 19.2186 19.6652 19.2206 19.6595 19.2233C19.6482 19.2287 19.6315 19.2367 19.61 19.247C19.567 19.2675 19.5047 19.2973 19.4274 19.3343C19.2727 19.4081 19.0583 19.5106 18.8188 19.625C18.34 19.8539 17.7611 20.1306 17.3614 20.322L18.0092 21.6749ZM14.5132 10.4567L12.1844 8.24016L11.1503 9.32666L13.479 11.5433L14.5132 10.4567ZM13.6323 6.97565L19.5476 11.45L20.4524 10.2536L14.5372 5.77934L13.6323 6.97565ZM12.361 6.96214C12.728 6.67752 13.2561 6.67956 13.6207 6.96668L14.5488 5.78831C13.6429 5.07482 12.3529 5.07019 11.4418 5.77682L12.361 6.96214ZM12.2292 8.28661C11.879 7.89049 11.9316 7.29514 12.361 6.96214L11.4418 5.77682C10.3349 6.63524 10.1754 8.22827 11.1055 9.2802L12.2292 8.28661ZM20 20.6419H21.9961V19.1419H20V20.6419ZM3.74609 11.75L13.9961 11.75V10.25L3.74609 10.25V11.75ZM3.74609 15.25H9.49609V13.75H3.74609V15.25ZM8.74683 14.4667C8.66622 16.2796 9.0724 19.5111 11.4293 21.8531L12.4865 20.7891C10.5531 18.8679 10.174 16.1369 10.2454 14.5333L8.74683 14.4667ZM3.74609 10.25C2.36538 10.25 1.24609 11.3693 1.24609 12.75H2.74609C2.74609 12.1977 3.19381 11.75 3.74609 11.75V10.25ZM1.24609 12.75C1.24609 14.1307 2.36538 15.25 3.74609 15.25V13.75C3.19381 13.75 2.74609 13.3023 2.74609 12.75H1.24609ZM21.9961 10.1018H20V11.6018H21.9961V10.1018Z" fill="#141B34"/>
<path d="M2 4.5L8 4.5M2 4.5L4.5 2M2 4.5L4.5 7" stroke="#141B34" stroke-width="1.5"/>
</svg>
