<svg width="24" height="24" viewBox="0 0 24 24" fill="none" xmlns="http://www.w3.org/2000/svg">
<path d="M12 3L12.3078 2.31606L12 2.17756L11.6922 2.31606L12 3ZM22.75 11C22.75 9.79712 21.9177 8.66916 20.9611 7.73644C19.9679 6.76812 18.6665 5.8446 17.3975 5.0515C16.1227 4.25479 14.852 3.57197 13.9023 3.08924C13.4268 2.8475 13.0301 2.65508 12.7515 2.52274C12.6121 2.45655 12.5022 2.40534 12.4267 2.37046C12.3889 2.35301 12.3597 2.33964 12.3396 2.33052C12.3296 2.32596 12.3219 2.32246 12.3166 2.32005C12.3139 2.31884 12.3118 2.3179 12.3104 2.31723C12.3096 2.3169 12.309 2.31664 12.3086 2.31644C12.3084 2.31634 12.3082 2.31625 12.3081 2.3162C12.3079 2.31612 12.3078 2.31606 12 3C11.6922 3.68394 11.6921 3.68391 11.6921 3.68391C11.6922 3.68392 11.6922 3.68393 11.6923 3.68397C11.6924 3.68405 11.6928 3.6842 11.6932 3.68441C11.6942 3.68484 11.6957 3.68554 11.6979 3.6865C11.7022 3.68844 11.7088 3.69145 11.7177 3.69551C11.7355 3.70363 11.7625 3.71596 11.7979 3.73233C11.8688 3.76507 11.9738 3.81396 12.1079 3.87765C12.3761 4.00508 12.7607 4.19156 13.2226 4.42639C14.148 4.89678 15.3772 5.55771 16.6025 6.3235C17.8335 7.0929 19.0321 7.95063 19.9139 8.81044C20.8323 9.70584 21.25 10.4529 21.25 11H22.75ZM21.25 11C21.25 11.5902 21.0524 12.1559 20.6894 12.5642C20.3387 12.9588 19.7965 13.25 19 13.25V14.75C20.2035 14.75 21.1613 14.2912 21.8106 13.5608C22.4476 12.8441 22.75 11.9098 22.75 11H21.25ZM2.75 11C2.75 10.4529 3.16772 9.70583 4.08607 8.81044C4.96792 7.95063 6.16646 7.0929 7.39749 6.3235C8.62275 5.55771 9.85199 4.89678 10.7773 4.42639C11.2393 4.19156 11.6238 4.00508 11.8921 3.87765C12.0262 3.81396 12.1311 3.76507 12.202 3.73233C12.2375 3.71596 12.2644 3.70363 12.2823 3.69551C12.2912 3.69145 12.2978 3.68844 12.3021 3.6865C12.3042 3.68554 12.3058 3.68484 12.3067 3.68441C12.3072 3.6842 12.3075 3.68405 12.3077 3.68397C12.3078 3.68393 12.3078 3.68392 12.3078 3.6839C12.3078 3.68391 12.3078 3.68394 12 3C11.6922 2.31606 11.6921 2.31612 11.6919 2.3162C11.6918 2.31625 11.6916 2.31634 11.6914 2.31644C11.6909 2.31664 11.6903 2.3169 11.6896 2.31723C11.6881 2.3179 11.6861 2.31884 11.6834 2.32005C11.678 2.32246 11.6703 2.32596 11.6603 2.33052C11.6403 2.33965 11.6111 2.35301 11.5733 2.37046C11.4977 2.40534 11.3878 2.45655 11.2485 2.52274C10.9699 2.65508 10.5732 2.8475 10.0976 3.08924C9.14799 3.57197 7.87723 4.25479 6.60249 5.0515C5.33353 5.8446 4.03207 6.76812 3.03892 7.73644C2.08228 8.66917 1.25 9.79712 1.25 11H2.75ZM1.25 11C1.25 11.9098 1.55242 12.8441 2.18944 13.5608C2.83873 14.2912 3.79648 14.75 5 14.75V13.25C4.20352 13.25 3.66127 12.9588 3.31056 12.5642C2.94758 12.1559 2.75 11.5902 2.75 11H1.25ZM19 13.25H5V14.75H19V13.25Z" fill="#141B34"/>
<path d="M4.14163 14C2.66809 15.3249 2.21055 18.5761 5.30556 19.3837C7.36279 19.9204 10.7022 20.6804 12 21C13.2978 20.6804 16.6372 19.9204 18.6944 19.3837C21.7894 18.5761 21.3319 15.3249 19.8584 14" stroke="#141B34" stroke-width="1.5"/>
<path d="M14 8L12 7L10 7.99983C10 9.49983 10.7753 10.5956 12 10.9998C13.2247 10.5956 14 9.5 14 8Z" stroke="#141B34" stroke-width="1.5" stroke-linecap="round" stroke-linejoin="round"/>
</svg>
