<svg width="24" height="24" viewBox="0 0 24 24" fill="none" xmlns="http://www.w3.org/2000/svg">
<path d="M19 8H5" stroke="#141B34" stroke-width="1.5"/>
<path d="M17.0002 8L18.5002 4.49988L12.0002 2L5.5 4.49988L7 8" stroke="#141B34" stroke-width="1.5" stroke-linecap="round" stroke-linejoin="round"/>
<path d="M17 8V10C17 12.7614 14.7614 15 12 15C9.23858 15 7 12.7614 7 10V8" stroke="#141B34" stroke-width="1.5"/>
<path d="M22 19H22.75C22.75 18.6651 22.528 18.3709 22.206 18.2789L22 19ZM12 19L11.584 19.624L12 19.9014L12.416 19.624L12 19ZM2 19L1.79396 18.2789C1.47198 18.3709 1.25 18.6651 1.25 19H2ZM22.75 22V19H21.25V22H22.75ZM22.206 18.2789L15.206 16.2789L14.794 17.7211L21.794 19.7211L22.206 18.2789ZM15.75 17V14H14.25V17H15.75ZM14.584 16.376L11.584 18.376L12.416 19.624L15.416 17.624L14.584 16.376ZM2.75 22V19H1.25V22H2.75ZM2.20604 19.7211L9.20604 17.7211L8.79396 16.2789L1.79396 18.2789L2.20604 19.7211ZM9.75 17V14H8.25V17H9.75ZM8.58397 17.624L11.584 19.624L12.416 18.376L9.41603 16.376L8.58397 17.624Z" fill="#141B34"/>
</svg>
