<svg width="24" height="24" viewBox="0 0 24 24" fill="none" xmlns="http://www.w3.org/2000/svg">
<path d="M19 7H5" stroke="#141B34" stroke-width="1.5"/>
<path d="M17 7V9C17 11.7614 14.7614 14 12 14C9.23858 14 7 11.7614 7 9V7" stroke="#141B34" stroke-width="1.5"/>
<path d="M7 8V5.95612C7 4.61118 7.92149 3.36487 9.42752 2.6729L9.94202 2.43651C11.2087 1.8545 12.7913 1.8545 14.058 2.43651L14.5725 2.6729C16.0785 3.36487 17 4.61118 17 5.95612V8" stroke="#141B34" stroke-width="1.5" stroke-linecap="round"/>
<path d="M22 18H22.75C22.75 17.6651 22.528 17.3709 22.206 17.2789L22 18ZM12 18L11.584 18.624L12 18.9014L12.416 18.624L12 18ZM2 18L1.79396 17.2789C1.47198 17.3709 1.25 17.6651 1.25 18H2ZM22.75 22V18H21.25V22H22.75ZM22.206 17.2789L15.206 15.2789L14.794 16.7211L21.794 18.7211L22.206 17.2789ZM15.75 16V13H14.25V16H15.75ZM14.584 15.376L11.584 17.376L12.416 18.624L15.416 16.624L14.584 15.376ZM2.75 22V18H1.25V22H2.75ZM2.20604 18.7211L9.20604 16.7211L8.79396 15.2789L1.79396 17.2789L2.20604 18.7211ZM9.75 16V13H8.25V16H9.75ZM8.58397 16.624L11.584 18.624L12.416 17.376L9.41603 15.376L8.58397 16.624Z" fill="#141B34"/>
</svg>
