<svg width="24" height="24" viewBox="0 0 24 24" fill="none" xmlns="http://www.w3.org/2000/svg">
<path d="M12.9474 19.0001V22.0006L2 22.0001L2.0003 6H5" stroke="#141B34" stroke-width="1.5" stroke-linejoin="round"/>
<path d="M7.49199 19.0005H7.50098" stroke="#141B34" stroke-width="1.5" stroke-linecap="square" stroke-linejoin="round"/>
<path d="M8 2L8 1.25C7.58579 1.25 7.25 1.58579 7.25 2H8ZM22 2H22.75C22.75 1.80109 22.671 1.61032 22.5303 1.46967C22.3897 1.32902 22.1989 1.25 22 1.25V2ZM22 13L22 13.75C22.1989 13.75 22.3897 13.671 22.5303 13.5303C22.671 13.3897 22.75 13.1989 22.75 13H22ZM8 13H7.25C7.25 13.4142 7.58579 13.75 8 13.75V13ZM11 16H10.25C10.25 16.2929 10.4205 16.559 10.6866 16.6814C10.9527 16.8038 11.2657 16.7601 11.4881 16.5694L11 16ZM11 13H11.75V12.25H11V13ZM14.5 13L14.5 12.25H14.2226L14.0119 12.4306L14.5 13ZM8 2.75L22 2.75V1.25L8 1.25L8 2.75ZM21.25 2V13H22.75V2H21.25ZM7.25 2V13H8.75V2H7.25ZM8 13.75H11V12.25H8V13.75ZM11.75 16V13H10.25V16H11.75ZM14.5 13.75L22 13.75L22 12.25L14.5 12.25L14.5 13.75ZM11.4881 16.5694L14.9881 13.5694L14.0119 12.4306L10.5119 15.4306L11.4881 16.5694Z" fill="#141B34"/>
<path d="M13.8341 8.42906C11.4256 6.71477 14.9992 5.00049 14.9992 5.00049C14.9992 5.00049 18.5747 6.71477 16.1663 8.42906M13.8341 8.42906H16.1663M13.8341 8.42906L13.2506 11.0005M16.1663 8.42906L16.9821 11.0005" stroke="#141B34" stroke-width="1.5"/>
</svg>
