<svg width="24" height="24" viewBox="0 0 24 24" fill="none" xmlns="http://www.w3.org/2000/svg">
<path d="M3.99805 2V6C5.82246 3.57111 8.72714 2 11.9988 2C17.5216 2 21.9988 6.47715 21.9988 12C21.9988 15.9582 19.6991 19.3793 16.3629 21" stroke="#141B34" stroke-width="1.5" stroke-linejoin="round"/>
<path d="M11.7308 22.0001C12.1977 22.0001 12.6572 21.9688 13.1072 21.9084M2.26146 8.66675C2.14906 9.06394 2.06086 9.46536 1.99609 9.86901M2.03066 13.5381C2.10096 13.9381 2.19254 14.3343 2.30461 14.7245M3.82901 17.9963C4.06733 18.3497 4.32569 18.69 4.60319 19.0147M7.42466 21.3607C7.77837 21.5632 8.14651 21.7464 8.52837 21.9084" stroke="#141B34" stroke-width="1.5" stroke-linecap="square" stroke-linejoin="round"/>
</svg>
