<svg width="24" height="24" viewBox="0 0 24 24" fill="none" xmlns="http://www.w3.org/2000/svg">
<path d="M16.9523 16.5361H17.7023C17.7023 16.2399 17.528 15.9715 17.2575 15.851C16.9869 15.7305 16.6708 15.7805 16.4506 15.9786L16.9523 16.5361ZM3.34514 19.7827L2.84413 20.3408L2.84413 20.3408L3.34514 19.7827ZM6.99398 7.49988L7.49568 8.05737L6.99398 7.49988ZM20.6549 4.20497L21.1559 3.64686V3.64686L20.6549 4.20497ZM16.4506 15.9786C14.1412 18.057 11.5406 19.4221 9.21966 19.9736C6.87148 20.5315 4.96519 20.2291 3.84616 19.2246L2.84413 20.3408C4.48985 21.8182 6.99717 22.0434 9.5664 21.4329C12.1629 20.816 14.9835 19.3169 17.454 17.0936L16.4506 15.9786ZM3.84616 19.2246C2.76341 18.2526 2.44351 16.61 3.05925 14.5373C3.67177 12.4754 5.1839 10.1378 7.49568 8.05737L6.49227 6.9424C4.02411 9.1636 2.32945 11.7265 1.62135 14.1101C0.916476 16.4829 1.16213 18.8308 2.84413 20.3408L3.84616 19.2246ZM7.49568 8.05737C9.80524 5.97891 12.4201 4.60106 14.756 4.03767C17.1212 3.4672 19.0378 3.76116 20.1538 4.76307L21.1559 3.64686C19.5072 2.16684 16.9833 1.95742 14.4043 2.57948C11.7959 3.20861 8.96266 4.71919 6.49227 6.9424L7.49568 8.05737ZM20.1538 4.76307C20.9275 5.45762 21.3027 6.4733 21.2441 7.74706C21.1849 9.03286 20.68 10.5471 19.7259 12.1129L21.0069 12.8934C22.0521 11.1779 22.6687 9.42036 22.7425 7.81602C22.8169 6.19964 22.3367 4.70686 21.1559 3.64686L20.1538 4.76307ZM16.2023 16.5361V20.5H17.7023V16.5361H16.2023Z" fill="#141B34"/>
</svg>
