<svg width="24" height="24" viewBox="0 0 24 24" fill="none" xmlns="http://www.w3.org/2000/svg">
<path d="M3.00391 10.2L3.74036 10.0581C3.6672 9.67846 3.31747 9.41665 2.93262 9.45339C2.54777 9.49014 2.25391 9.8134 2.25391 10.2H3.00391ZM8.25742 14.7L8.57466 14.0204L8.25742 14.7ZM11.7628 21V21.75H12.0793L12.3001 21.5232L11.7628 21ZM3.00391 17.5H2.25391V18.25H3.00391V17.5ZM6.49934 21H5.74934V21.75H6.49934V21ZM12.8977 5.7H13.6477C13.6477 5.50151 13.5691 5.31112 13.4289 5.17054L12.8977 5.7ZM7.96553 4.8L7.57774 4.15803L7.96553 4.8ZM10.2126 10.2L9.91686 10.8892L10.2126 10.2ZM16.486 3V2.25C16.1111 2.25 15.7938 2.52684 15.7429 2.89828C15.6921 3.26972 15.9233 3.62165 16.2844 3.72241L16.486 3ZM17.404 21L16.7616 20.6129C16.622 20.8446 16.618 21.1335 16.751 21.3689C16.8841 21.6044 17.1336 21.75 17.404 21.75V21ZM20.9993 3H21.7493C21.7493 2.58579 21.4135 2.25 20.9993 2.25V3ZM20.9993 21V21.75C21.4135 21.75 21.7493 21.4142 21.7493 21H20.9993ZM2.26746 10.3419C2.38045 10.9283 2.84749 11.733 3.71088 12.5889C4.59535 13.4657 5.9477 14.4495 7.94017 15.3796L8.57466 14.0204C6.71121 13.1505 5.50907 12.2593 4.7669 11.5236C4.00365 10.767 3.77189 10.2217 3.74036 10.0581L2.26746 10.3419ZM7.94017 15.3796C9.12277 15.9317 10.0358 16.4436 10.7096 16.9267C11.3889 17.4137 11.7814 17.8407 11.9795 18.2068C12.1631 18.5463 12.1906 18.8499 12.0967 19.1743C11.994 19.5291 11.7296 19.959 11.2255 20.4768L12.3001 21.5232C12.8914 20.916 13.3391 20.2771 13.5376 19.5914C13.7449 18.8751 13.6629 18.1662 13.2988 17.4932C12.9492 16.8468 12.3558 16.2613 11.5836 15.7077C10.806 15.1501 9.80201 14.5933 8.57466 14.0204L7.94017 15.3796ZM3.00391 18.25C4.58448 18.25 5.74934 19.4136 5.74934 21H7.24934C7.24934 18.5864 5.4142 16.75 3.00391 16.75V18.25ZM17.5528 5.6164C17.5528 6.72452 16.6413 7.65 15.5889 7.65V9.15C17.515 9.15 19.0528 7.50691 19.0528 5.6164H17.5528ZM15.5889 7.65C14.5153 7.65 13.6477 6.78647 13.6477 5.7H12.1477C12.1477 7.61216 13.6841 9.15 15.5889 9.15V7.65ZM13.4289 5.17054C12.8407 4.58037 11.7903 4.10593 10.7656 3.87532C9.75316 3.64747 8.50385 3.59861 7.57774 4.15803L8.35331 5.44197C8.77576 5.18678 9.54403 5.13792 10.4363 5.33872C11.3163 5.53676 12.0577 5.91963 12.3665 6.22946L13.4289 5.17054ZM7.57774 4.15803C6.28958 4.93616 6.04907 6.3771 6.53341 7.66491C7.01202 8.93747 8.19477 10.1502 9.91686 10.8892L10.5084 9.51078C9.08472 8.89982 8.24524 7.95539 7.9374 7.13687C7.63529 6.33361 7.84411 5.74956 8.35331 5.44197L7.57774 4.15803ZM16.2844 3.72241C17.0383 3.93275 17.5528 4.63792 17.5528 5.6164H19.0528C19.0528 4.09965 18.2112 2.70271 16.6876 2.27759L16.2844 3.72241ZM9.91686 10.8892C11.5772 11.6017 14.0127 13.0193 15.6552 14.8149C16.4735 15.7096 17.0568 16.6567 17.2841 17.6176C17.5055 18.5539 17.4016 19.5507 16.7616 20.6129L18.0464 21.3871C18.8881 19.9901 19.0558 18.5916 18.7438 17.2723C18.4375 15.9776 17.6823 14.8087 16.762 13.8025C14.9271 11.7965 12.2853 10.2733 10.5084 9.51078L9.91686 10.8892ZM16.486 3.75H20.9993V2.25H16.486V3.75ZM20.2493 3V21H21.7493V3H20.2493ZM20.9993 20.25H17.404V21.75H20.9993V20.25ZM6.49934 21.75H11.7628V20.25H6.49934V21.75ZM2.25391 10.2V17.5H3.75391V10.2H2.25391Z" fill="#141B34"/>
</svg>
