<svg width="24" height="24" viewBox="0 0 24 24" fill="none" xmlns="http://www.w3.org/2000/svg">
<path d="M3.01164 5V4.25H2.4174L2.28151 4.82849L3.01164 5ZM11.9975 22.0001L11.8402 22.7334L11.9975 22.7672L12.1549 22.7334L11.9975 22.0001ZM20.9836 5L21.7137 4.82849L21.5778 4.25H20.9836V5ZM11.9976 1.25C10.0307 1.25 8.49612 2.10185 7.14132 2.84177C5.74887 3.60226 4.53735 4.25 3.01164 4.25V5.75C4.97383 5.75 6.50627 4.89774 7.86031 4.15823C9.252 3.39815 10.4665 2.75 11.9976 2.75V1.25ZM11.9976 2.75C13.5359 2.75 14.7518 3.39851 16.1413 4.15809C17.4937 4.89737 19.023 5.75 20.9836 5.75V4.25C19.4601 4.25 18.2524 3.60263 16.8608 2.84191C15.5063 2.10149 13.9713 1.25 11.9976 1.25V2.75ZM22.2451 8.98741C22.2226 7.64884 22.0491 6.25655 21.7137 4.82849L20.2534 5.17151C20.5656 6.50038 20.7247 7.78613 20.7453 9.01259L22.2451 8.98741ZM3.24989 9.01259C3.27049 7.78613 3.4296 6.50038 3.74176 5.17151L2.28151 4.82849C1.94605 6.25655 1.77258 7.64884 1.75011 8.98741L3.24989 9.01259ZM12.1549 21.2668C9.60625 20.7199 7.49437 19.3991 5.968 17.5262L4.80523 18.4738C6.5491 20.6136 8.96124 22.1156 11.8402 22.7334L12.1549 21.2668ZM12.1549 22.7334C15.0339 22.1156 17.446 20.6136 19.1899 18.4738L18.0271 17.5262C16.5007 19.3991 14.3888 20.7199 11.8402 21.2668L12.1549 22.7334Z" fill="#141B34"/>
<path d="M18 12L19.5 13.5M19.5 13.5L21 15M19.5 13.5L21 12M19.5 13.5L18 15M13 12L14.5 13.5M14.5 13.5L16 15M14.5 13.5L16 12M14.5 13.5L13 15M8 12L9.5 13.5M9.5 13.5L11 15M9.5 13.5L11 12M9.5 13.5L8 15M3 12L4.5 13.5M4.5 13.5L6 15M4.5 13.5L6 12M4.5 13.5L3 15" stroke="#141B34" stroke-width="1.5" stroke-linejoin="round"/>
</svg>
