<svg width="24" height="24" viewBox="0 0 24 24" fill="none" xmlns="http://www.w3.org/2000/svg">
<path d="M3 7.5V6.75C2.7788 6.75 2.56889 6.84764 2.42638 7.01682C2.28388 7.186 2.22332 7.40945 2.2609 7.62743L3 7.5ZM5.5 22L4.7609 22.1274L4.86824 22.75H5.5V22ZM22 7.5L22.7391 7.62743C22.7767 7.40945 22.7161 7.186 22.5736 7.01682C22.4311 6.84764 22.2212 6.75 22 6.75V7.5ZM2.2609 7.62743L4.7609 22.1274L6.23909 21.8726L3.7391 7.37257L2.2609 7.62743ZM5.5 22.75H11V21.25H5.5V22.75ZM3 8.25H22V6.75H3V8.25ZM21.2609 7.37257L20.485 11.8726L21.9632 12.1274L22.7391 7.62743L21.2609 7.37257Z" fill="#141B34"/>
<path d="M18 7.5C18 4.46243 15.5376 2 12.5 2C9.46243 2 7 4.46243 7 7.5" stroke="#141B34" stroke-width="1.5"/>
<path d="M5 17.5H10" stroke="#141B34" stroke-width="1.5"/>
<path d="M13.2165 15.2V14.45H12.6293L12.4884 15.02L13.2165 15.2ZM17 22L16.8502 22.7349L17 22.7654L17.1498 22.7349L17 22ZM20.7836 15.2L21.5117 15.02L21.3707 14.45H20.7836V15.2ZM17 13.25C16.056 13.25 15.3234 13.6426 14.7612 13.9343C14.1663 14.243 13.7428 14.45 13.2165 14.45V15.95C14.1587 15.95 14.8906 15.557 15.452 15.2657C16.0463 14.9574 16.4712 14.75 17 14.75V13.25ZM17.1498 21.2651C15.8842 21.0071 14.9141 20.2857 14.3411 19.279C13.7656 18.268 13.5639 16.9194 13.9445 15.38L12.4884 15.02C12.0283 16.8806 12.2468 18.6319 13.0375 20.021C13.8306 21.4143 15.1727 22.3929 16.8502 22.7349L17.1498 21.2651ZM17 14.75C17.532 14.75 17.9578 14.9578 18.5506 15.2656C19.1111 15.5567 19.8418 15.95 20.7836 15.95V14.45C20.2584 14.45 19.8367 14.2433 19.2419 13.9344C18.6793 13.6422 17.9468 13.25 17 13.25V14.75ZM17.1498 22.7349C18.8273 22.3929 20.1694 21.4143 20.9625 20.021C21.7533 18.6319 21.9717 16.8806 21.5117 15.02L20.0555 15.38C20.4362 16.9194 20.2344 18.268 19.6589 19.279C19.0859 20.2857 18.1158 21.0071 16.8502 21.2651L17.1498 22.7349Z" fill="#141B34"/>
</svg>
