<svg width="24" height="24" viewBox="0 0 24 24" fill="none" xmlns="http://www.w3.org/2000/svg">
<path d="M2.50195 7.5V6.75C2.28076 6.75 2.07084 6.84764 1.92834 7.01682C1.78583 7.186 1.72528 7.40945 1.76286 7.62743L2.50195 7.5ZM5.00195 22L4.26286 22.1274L4.3702 22.75H5.00195V22ZM21.502 7.5L22.241 7.62743C22.2786 7.40945 22.2181 7.186 22.0756 7.01682C21.9331 6.84764 21.7232 6.75 21.502 6.75V7.5ZM19.002 22V22.75H19.6337L19.741 22.1274L19.002 22ZM1.76286 7.62743L4.26286 22.1274L5.74105 21.8726L3.24105 7.37257L1.76286 7.62743ZM20.7629 7.37257L18.2629 21.8726L19.741 22.1274L22.241 7.62743L20.7629 7.37257ZM5.00195 22.75H19.002V21.25H5.00195V22.75ZM2.50195 8.25H21.502V6.75H2.50195V8.25Z" fill="#141B34"/>
<path d="M17.5 7.5C17.5 4.46243 15.0376 2 12 2C8.96243 2 6.5 4.46243 6.5 7.5" stroke="#141B34" stroke-width="1.5"/>
</svg>
