<svg width="24" height="24" viewBox="0 0 24 24" fill="none" xmlns="http://www.w3.org/2000/svg">
<path d="M20.4991 11.5L20.2619 10.7885L19.8539 10.9245L19.7652 11.3454L20.4991 11.5ZM18.498 21V21.75C18.8527 21.75 19.1588 21.5016 19.2319 21.1546L18.498 21ZM5.49911 21L4.7652 21.1545C4.83826 21.5016 5.14444 21.75 5.49911 21.75V21ZM3.49911 11.5L4.23302 11.3455L4.14437 10.9244L3.73613 10.7884L3.49911 11.5ZM21.9991 8H22.7491C22.7491 7.80109 22.6701 7.61032 22.5294 7.46967C22.3888 7.32902 22.198 7.25 21.9991 7.25V8ZM1.99805 8V7.25C1.58383 7.25 1.24805 7.58579 1.24805 8H1.99805ZM21.9991 11L22.2363 11.7115L22.7491 11.5406V11H21.9991ZM1.99805 11H1.24805V11.5407L1.76103 11.7116L1.99805 11ZM19.7652 11.3454L17.7642 20.8454L19.2319 21.1546L21.233 11.6546L19.7652 11.3454ZM18.498 20.25H5.49911V21.75H18.498V20.25ZM6.23302 20.8455L4.23302 11.3455L2.7652 11.6545L4.7652 21.1545L6.23302 20.8455ZM21.9991 7.25H10.9991V8.75H21.9991V7.25ZM7.49805 7.25H1.99805V8.75H7.49805V7.25ZM21.2491 8V11H22.7491V8H21.2491ZM21.7619 10.2885L20.2619 10.7885L20.7363 12.2115L22.2363 11.7115L21.7619 10.2885ZM1.24805 8V11H2.74805V8H1.24805ZM1.76103 11.7116L3.26209 12.2116L3.73613 10.7884L2.23507 10.2884L1.76103 11.7116Z" fill="#141B34"/>
<path d="M14.5 12H9.5" stroke="#141B34" stroke-width="1.5" stroke-linejoin="round"/>
<path d="M6.5 11L10 3M15 3L17.5 8" stroke="#141B34" stroke-width="1.5" stroke-linejoin="round"/>
</svg>
