<svg width="24" height="24" viewBox="0 0 24 24" fill="none" xmlns="http://www.w3.org/2000/svg">
<path d="M8.49805 5.5C8.49805 7.433 10.2889 9 12.498 9C14.7072 9 16.498 7.433 16.498 5.5C16.498 3.567 14.7072 2 12.498 2C10.2889 2 8.49805 3.567 8.49805 5.5Z" stroke="#141B34" stroke-width="1.5" stroke-linejoin="round"/>
<path d="M18.0049 19.3185L17.2585 19.2447C17.2573 19.2566 17.2564 19.2685 17.2558 19.2804L18.0049 19.3185ZM21.9951 19.3185L22.7442 19.2804C22.7436 19.2693 22.7428 19.2582 22.7417 19.2471L21.9951 19.3185ZM21.486 14L20.7592 13.815C20.7379 13.8987 20.7312 13.9855 20.7394 14.0715L21.486 14ZM21.9951 12L22.722 12.185C22.7791 11.9607 22.7294 11.7225 22.5873 11.5397C22.4452 11.3569 22.2267 11.25 21.9951 11.25V12ZM18.0049 12V11.25C17.7723 11.25 17.5529 11.3579 17.4109 11.5421C17.2689 11.7263 17.2204 11.9659 17.2796 12.1909L18.0049 12ZM18.5312 14L19.2775 14.0739C19.2863 13.9851 19.2792 13.8954 19.2565 13.8091L18.5312 14ZM3.00486 19.3185L2.25851 19.2447C2.25733 19.2566 2.25644 19.2685 2.25583 19.2804L3.00486 19.3185ZM6.99514 19.3185L7.74417 19.2804C7.7436 19.2693 7.74279 19.2582 7.74173 19.2471L6.99514 19.3185ZM6.48603 14L5.7592 13.815C5.73789 13.8987 5.73121 13.9855 5.73944 14.0715L6.48603 14ZM6.99514 12L7.72196 12.185C7.77907 11.9607 7.72937 11.7225 7.58728 11.5397C7.4452 11.3569 7.22666 11.25 6.99514 11.25V12ZM3.00486 12V11.25C2.77228 11.25 2.55287 11.3579 2.41087 11.5421C2.26887 11.7263 2.22036 11.9659 2.27955 12.1909L3.00486 12ZM3.53117 14L4.27752 14.0739C4.28631 13.9851 4.27918 13.8954 4.25648 13.8091L3.53117 14ZM4.24912 9.5V12H5.74912V9.5H4.24912ZM12.4991 1.25C9.7999 1.25 7.40341 2.54707 5.8995 4.54876L7.09874 5.44977C8.33152 3.80895 10.2915 2.75 12.4991 2.75V1.25ZM4.54577 7.30046C4.35227 8.00156 4.24912 8.73934 4.24912 9.5H5.74912C5.74912 8.87545 5.83374 8.27187 5.99171 7.69954L4.54577 7.30046ZM19.25 9.5V12H20.75V9.5H19.25ZM12.4991 2.75C16.2272 2.75 19.25 5.77219 19.25 9.5H20.75C20.75 4.94354 17.0554 1.25 12.4991 1.25V2.75ZM20 21.25C19.457 21.25 18.6864 20.6839 18.7539 19.3566L17.2558 19.2804C17.158 21.2025 18.3568 22.75 20 22.75V21.25ZM20 22.75C21.6432 22.75 22.842 21.2026 22.7442 19.2804L21.2461 19.3566C21.3136 20.6839 20.543 21.25 20 21.25V22.75ZM22.2128 14.185L22.722 12.185L21.2683 11.815L20.7592 13.815L22.2128 14.185ZM17.2796 12.1909L17.8059 14.1909L19.2565 13.8091L18.7302 11.8091L17.2796 12.1909ZM22.7417 19.2471L22.2326 13.9285L20.7394 14.0715L21.2486 19.39L22.7417 19.2471ZM17.7848 13.9261L17.2585 19.2447L18.7512 19.3924L19.2775 14.0739L17.7848 13.9261ZM21.9951 11.25H20V12.75H21.9951V11.25ZM20 11.25H18.0049V12.75H20V11.25ZM5 21.25C4.45699 21.25 3.68635 20.6839 3.75389 19.3566L2.25583 19.2804C2.15802 21.2025 3.35682 22.75 5 22.75V21.25ZM5 22.75C6.64318 22.75 7.84198 21.2026 7.74417 19.2804L6.24611 19.3566C6.31365 20.6839 5.54301 21.25 5 21.25V22.75ZM7.21285 14.185L7.72196 12.185L6.26832 11.815L5.7592 13.815L7.21285 14.185ZM2.27955 12.1909L2.80586 14.1909L4.25648 13.8091L3.73017 11.8091L2.27955 12.1909ZM7.74173 19.2471L7.23261 13.9285L5.73944 14.0715L6.24855 19.39L7.74173 19.2471ZM2.78481 13.9261L2.25851 19.2447L3.75121 19.3924L4.27752 14.0739L2.78481 13.9261ZM6.99514 11.25H4.99912V12.75H6.99514V11.25ZM4.99912 11.25H3.00486V12.75H4.99912V11.25Z" fill="#141B34"/>
</svg>
