<svg width="24" height="24" viewBox="0 0 24 24" fill="none" xmlns="http://www.w3.org/2000/svg">
<path d="M2 16.4444L1.6993 15.7574C1.40533 15.886 1.22578 16.1874 1.25263 16.5072C1.27948 16.827 1.50679 17.0942 1.8181 17.1721L2 16.4444ZM5.33333 19.7778L4.60573 19.9597L4.74775 20.5278H5.33333V19.7778ZM12 22L11.5315 22.5857C11.8054 22.8048 12.1946 22.8048 12.4685 22.5857L12 22ZM22 16.4444L22.1819 17.1721C22.4932 17.0942 22.7205 16.827 22.7474 16.5072C22.7742 16.1874 22.5947 15.886 22.3007 15.7574L22 16.4444ZM18.6667 19.7778V20.5278H19.2523L19.3943 19.9597L18.6667 19.7778ZM12 1.25C8.58995 1.25 5.82556 4.01439 5.82556 7.42444H7.32556C7.32556 4.84282 9.41838 2.75 12 2.75V1.25ZM5.82556 7.42444C5.82556 9.82863 5.75619 11.4509 5.22396 12.711C4.72168 13.9002 3.76075 14.8552 1.6993 15.7574L2.3007 17.1315C4.57813 16.1348 5.90499 14.9537 6.60576 13.2946C7.27659 11.7064 7.32556 9.76804 7.32556 7.42444H5.82556ZM1.8181 17.1721C2.9148 17.4462 3.43095 17.6861 3.76134 18.0164C4.09172 18.3468 4.33155 18.863 4.60573 19.9597L6.06094 19.5959C5.77956 18.4704 5.46384 17.5976 4.822 16.9558C4.18016 16.3139 3.30743 15.9982 2.1819 15.7168L1.8181 17.1721ZM5.33333 20.5278C7.13638 20.5278 8.69254 21.0437 9.80565 21.5675C10.3605 21.8286 10.7996 22.089 11.0971 22.282C11.2456 22.3784 11.3583 22.4575 11.4319 22.5111C11.4687 22.5378 11.4957 22.5581 11.5124 22.5709C11.5208 22.5773 11.5266 22.5818 11.5298 22.5843C11.5314 22.5856 11.5323 22.5863 11.5326 22.5866C11.5328 22.5867 11.5327 22.5867 11.5325 22.5865C11.5324 22.5864 11.5323 22.5863 11.5321 22.5862C11.532 22.5861 11.5319 22.586 11.5318 22.5859C11.5317 22.5858 11.5315 22.5857 12 22C12.4685 21.4143 12.4683 21.4142 12.4681 21.414C12.468 21.4139 12.4678 21.4138 12.4676 21.4136C12.4673 21.4133 12.4669 21.413 12.4664 21.4127C12.4656 21.412 12.4645 21.4112 12.4633 21.4102C12.4609 21.4083 12.4578 21.4059 12.454 21.4029C12.4465 21.397 12.4362 21.389 12.4233 21.3792C12.3975 21.3594 12.3609 21.332 12.3142 21.298C12.2207 21.23 12.086 21.1355 11.9134 21.0236C11.5685 20.7998 11.07 20.5047 10.4443 20.2103C9.19635 19.623 7.41918 19.0278 5.33333 19.0278V20.5278ZM12 2.75C14.5816 2.75 16.6744 4.84282 16.6744 7.42444H18.1744C18.1744 4.01439 15.4101 1.25 12 1.25V2.75ZM16.6744 7.42444C16.6744 9.76804 16.7234 11.7064 17.3942 13.2946C18.095 14.9537 19.4219 16.1348 21.6993 17.1315L22.3007 15.7574C20.2392 14.8552 19.2783 13.9002 18.776 12.711C18.2438 11.4509 18.1744 9.82863 18.1744 7.42444H16.6744ZM21.8181 15.7168C20.6926 15.9982 19.8198 16.3139 19.178 16.9558C18.5362 17.5976 18.2204 18.4704 17.9391 19.5959L19.3943 19.9597C19.6684 18.863 19.9083 18.3468 20.2387 18.0164C20.569 17.6861 21.0852 17.4462 22.1819 17.1721L21.8181 15.7168ZM18.6667 19.0278C16.5808 19.0278 14.8036 19.623 13.5557 20.2103C12.93 20.5047 12.4315 20.7998 12.0866 21.0236C11.914 21.1355 11.7793 21.23 11.6858 21.298C11.6391 21.332 11.6025 21.3594 11.5767 21.3792C11.5638 21.389 11.5535 21.397 11.546 21.4029C11.5422 21.4059 11.5391 21.4083 11.5367 21.4102C11.5355 21.4112 11.5344 21.412 11.5336 21.4127C11.5331 21.413 11.5327 21.4133 11.5324 21.4136C11.5322 21.4138 11.532 21.4139 11.5319 21.414C11.5317 21.4142 11.5315 21.4143 12 22C12.4685 22.5857 12.4683 22.5858 12.4682 22.5859C12.4681 22.586 12.468 22.5861 12.4679 22.5862C12.4677 22.5863 12.4676 22.5864 12.4675 22.5865C12.4673 22.5867 12.4672 22.5867 12.4674 22.5866C12.4677 22.5863 12.4686 22.5856 12.4702 22.5843C12.4734 22.5818 12.4792 22.5773 12.4876 22.5709C12.5043 22.5581 12.5313 22.5378 12.5681 22.5111C12.6417 22.4575 12.7544 22.3784 12.9029 22.282C13.2004 22.089 13.6395 21.8286 14.1943 21.5675C15.3075 21.0437 16.8636 20.5278 18.6667 20.5278V19.0278Z" fill="#141B34"/>
<path d="M2 16.5C5.82356 14.2783 5.82356 11.647 2.95589 8.5" stroke="#141B34" stroke-width="1.5" stroke-linejoin="round"/>
<path d="M22 16.5C18.1764 14.2783 18.1764 11.647 21.0441 8.5" stroke="#141B34" stroke-width="1.5" stroke-linejoin="round"/>
</svg>
