<svg width="24" height="24" viewBox="0 0 24 24" fill="none" xmlns="http://www.w3.org/2000/svg">
<path d="M2.40608 21.5943L2.93616 21.0637H2.93616L2.40608 21.5943ZM4.3668 21.5943L3.83783 21.0626L3.83672 21.0637L4.3668 21.5943ZM2.40608 19.6354L2.93616 20.166L2.93785 20.1643L2.40608 19.6354ZM12 14V13.25H11.6905L11.471 13.4683L12 14ZM10 12L10.5318 12.5289L10.75 12.3095V12H10ZM16 2L16.5303 1.46967C16.2374 1.17678 15.7626 1.17678 15.4697 1.46967L16 2ZM22 8L22.5303 8.53033C22.8232 8.23744 22.8232 7.76256 22.5303 7.46967L22 8ZM16 14V14.75H16.3107L16.5303 14.5303L16 14ZM10 8L9.46967 7.46967L9.25 7.68934V8H10ZM1.876 22.1249C2.71027 22.9584 4.06261 22.9584 4.89688 22.1249L3.83672 21.0637C3.58812 21.3121 3.18476 21.3121 2.93616 21.0637L1.876 22.1249ZM2.93616 21.0637C2.68795 20.8157 2.68795 20.414 2.93616 20.166L1.876 19.1048C1.04133 19.9387 1.04133 21.291 1.876 22.1249L2.93616 21.0637ZM4.89578 22.126L12.529 14.5317L11.471 13.4683L3.83783 21.0626L4.89578 22.126ZM2.93785 20.1643L10.5318 12.5289L9.46823 11.4711L1.87431 19.1065L2.93785 20.1643ZM15.4697 2.53033L21.4697 8.53033L22.5303 7.46967L16.5303 1.46967L15.4697 2.53033ZM21.4697 7.46967L15.4697 13.4697L16.5303 14.5303L22.5303 8.53033L21.4697 7.46967ZM15.4697 1.46967L9.46967 7.46967L10.5303 8.53033L16.5303 2.53033L15.4697 1.46967ZM9.25 8V12H10.75V8H9.25ZM16 13.25H12V14.75H16V13.25Z" fill="#141B34"/>
<path d="M18 8L15 11M16 6L13 9" stroke="#141B34" stroke-width="1.5" stroke-linejoin="round"/>
</svg>
