<svg width="24" height="24" viewBox="0 0 24 24" fill="none" xmlns="http://www.w3.org/2000/svg">
<path d="M8 13.5005L7.47606 14.0371L8.75004 15.2809L8.75 13.5005L8 13.5005ZM7.99979 3.50049H7.24979V3.5005L7.99979 3.50049ZM19.6685 17.7925L18.9681 17.5245L19.6685 17.7925ZM17.9996 20.0005L17.4325 19.5096L17.2496 19.721V20.0005H17.9996ZM8 20.0005H8.75V19.751L8.60056 19.5512L8 20.0005ZM5.8683 11.4193L6.39224 10.8826L6.37498 10.8658L6.35668 10.8501L5.8683 11.4193ZM3.38901 13.8367L3.98956 13.3874L3.98068 13.3755L3.97133 13.364L3.38901 13.8367ZM3.38075 11.6533L2.79486 11.1851L2.79486 11.1851L3.38075 11.6533ZM19.7282 11.64L19.1139 12.0703L19.1139 12.0703L19.7282 11.64ZM19.3601 11.2718L19.7903 10.6575L19.7903 10.6575L19.3601 11.2718ZM13.5607 8.91927L14.091 8.38894L14.091 8.38894L13.5607 8.91927ZM13.25 11.4799V12.5005H14.75V11.4799H13.25ZM16.25 11.0005V13.0005H17.75V11.0005H16.25ZM8.75 13.5005L8.74979 3.50047L7.24979 3.5005L7.25 13.5005L8.75 13.5005ZM9.49979 2.75049C9.914 2.75049 10.2498 3.08628 10.2498 3.50049H11.7498C11.7498 2.25785 10.7424 1.25049 9.49979 1.25049V2.75049ZM8.74979 3.50049C8.74979 3.08628 9.08558 2.75049 9.49979 2.75049V1.25049C8.25715 1.25049 7.24979 2.25785 7.24979 3.50049H8.74979ZM19.2496 13.6673C19.2496 14.7635 19.2492 15.5507 19.2097 16.1729C19.1706 16.789 19.0952 17.1922 18.9681 17.5245L20.369 18.0605C20.5729 17.5276 20.6631 16.9549 20.7067 16.268C20.7499 15.5872 20.7496 14.7445 20.7496 13.6673H19.2496ZM18.9681 17.5245C18.97 17.5194 18.9562 17.5526 18.9044 17.636C18.8576 17.7114 18.7946 17.8044 18.7174 17.9119C18.5634 18.1265 18.3703 18.3749 18.1774 18.6148C17.9856 18.8535 17.799 19.0777 17.6599 19.2426C17.5905 19.3249 17.5333 19.3921 17.4936 19.4386C17.4737 19.4618 17.4582 19.4798 17.4478 19.4919C17.4426 19.4979 17.4387 19.5025 17.4361 19.5055C17.4348 19.5069 17.4339 19.5081 17.4333 19.5087C17.433 19.5091 17.4328 19.5093 17.4326 19.5095C17.4326 19.5096 17.4325 19.5096 17.4325 19.5096C17.4325 19.5096 17.4325 19.5096 17.4325 19.5096C17.4325 19.5096 17.4325 19.5096 17.9996 20.0005C18.5666 20.4914 18.5667 20.4913 18.5667 20.4913C18.5667 20.4913 18.5667 20.4912 18.5668 20.4912C18.5669 20.4911 18.5669 20.491 18.5671 20.4909C18.5673 20.4906 18.5676 20.4902 18.568 20.4897C18.5688 20.4888 18.57 20.4875 18.5715 20.4857C18.5745 20.4822 18.5789 20.4771 18.5846 20.4705C18.5959 20.4574 18.6124 20.4382 18.6333 20.4138C18.6751 20.365 18.7347 20.295 18.8068 20.2095C18.9506 20.0388 19.1452 19.8051 19.3466 19.5545C19.547 19.3052 19.7592 19.0329 19.936 18.7866C20.0943 18.566 20.2811 18.2902 20.369 18.0605L18.9681 17.5245ZM17.2496 20.0005V22.0007H18.7496V20.0005H17.2496ZM7.25 20.0005V22.0005H8.75V20.0005H7.25ZM8.52394 12.9638L6.39224 10.8826L5.34436 11.9559L7.47606 14.0371L8.52394 12.9638ZM2.78845 14.2859L7.39944 20.4497L8.60056 19.5512L3.98956 13.3874L2.78845 14.2859ZM2.79486 11.1851C2.06397 12.0996 2.06889 13.4003 2.80669 14.3093L3.97133 13.364C3.678 13.0026 3.67603 12.4852 3.96663 12.1215L2.79486 11.1851ZM6.35668 10.8501C5.28832 9.93339 3.67365 10.0855 2.79486 11.1851L3.96663 12.1215C4.3156 11.6849 4.95606 11.6248 5.37992 11.9885L6.35668 10.8501ZM10.2498 3.50049V8.47993H11.7498V3.50049H10.2498ZM10.2498 8.47993V12.0005H11.7498V8.47993H10.2498ZM14 10.2505H15.5V8.75049H14V10.2505ZM17.3327 10.2505H17V11.7505H17.3327V10.2505ZM15.5 10.2505C15.9142 10.2505 16.25 10.5863 16.25 11.0005H17.75C17.75 9.75785 16.7426 8.75049 15.5 8.75049V10.2505ZM20.7496 13.6673C20.7496 13.1369 20.7506 12.6806 20.7115 12.3104C20.6711 11.9268 20.5811 11.5504 20.3426 11.2098L19.1139 12.0703C19.1467 12.1171 19.1924 12.2077 19.2198 12.4676C19.2486 12.7409 19.2496 13.1045 19.2496 13.6673H20.7496ZM17.3327 11.7505C17.8956 11.7505 18.2591 11.7515 18.5324 11.7803C18.7924 11.8077 18.883 11.8533 18.9298 11.8862L19.7903 10.6575C19.4497 10.419 19.0732 10.329 18.6897 10.2885C18.3195 10.2495 17.8631 10.2505 17.3327 10.2505V11.7505ZM20.3426 11.2098C20.1921 10.9949 20.0052 10.808 19.7903 10.6575L18.9298 11.8862C19.0014 11.9363 19.0637 11.9986 19.1139 12.0703L20.3426 11.2098ZM14.75 11.4799C14.75 10.794 14.7516 10.2041 14.6884 9.73408C14.6223 9.24245 14.4732 8.77118 14.091 8.38894L13.0303 9.4496C13.0874 9.50669 13.158 9.60865 13.2018 9.93395C13.2484 10.2808 13.25 10.7516 13.25 11.4799H14.75ZM10.9998 9.22993C11.7282 9.22993 12.199 9.23152 12.5459 9.27816C12.8713 9.3219 12.9732 9.39251 13.0303 9.4496L14.091 8.38894C13.7087 8.00668 13.2374 7.85763 12.7458 7.79153C12.2757 7.72833 11.6858 7.72993 10.9998 7.72993V9.22993Z" fill="#141B34"/>
<path d="M18.5 8L18.5 2M18.5 8L16 5.5M18.5 8L21 5.5" stroke="#141B34" stroke-width="1.5"/>
</svg>
