<svg width="24" height="24" viewBox="0 0 24 24" fill="none" xmlns="http://www.w3.org/2000/svg">
<path d="M20 4H20.75C20.75 3.58579 20.4142 3.25 20 3.25V4ZM20 13L20.5303 13.5304L20.75 13.3107V13H20ZM11 22L10.4697 22.5303C10.6103 22.671 10.8011 22.75 11 22.75C11.1989 22.75 11.3897 22.671 11.5303 22.5303L11 22ZM2 13L1.46967 12.4696C1.32902 12.6103 1.25 12.8011 1.25 13C1.25 13.1989 1.32902 13.3897 1.46967 13.5303L2 13ZM11 4V3.25H10.6893L10.4697 3.46967L11 4ZM19.25 4V13H20.75V4H19.25ZM19.4697 12.4697L10.4697 21.4697L11.5303 22.5303L20.5303 13.5304L19.4697 12.4697ZM11.5303 21.4697L2.53033 12.4696L1.46967 13.5303L10.4697 22.5303L11.5303 21.4697ZM20 3.25H11V4.75H20V3.25ZM10.4697 3.46967L1.46967 12.4696L2.53033 13.5303L11.5303 4.53033L10.4697 3.46967Z" fill="#141B34"/>
<path d="M8 14L10 16" stroke="#141B34" stroke-width="1.5" stroke-linejoin="round"/>
<path d="M17 7L22 2" stroke="#141B34" stroke-width="1.5" stroke-linejoin="round"/>
</svg>
