<svg width="24" height="24" viewBox="0 0 24 24" fill="none" xmlns="http://www.w3.org/2000/svg">
<path d="M16 22.5V11.5M8 11.5V22.5" stroke="#141B34" stroke-width="1.5" stroke-linejoin="round"/>
<path d="M8.28121 11.5C4.4246 7.5 10.3473 5.5 12 3.5C13.6528 5.5 19.5754 7.5 15.7188 11.5H8.28121Z" stroke="#141B34" stroke-width="1.5" stroke-linejoin="round"/>
<path d="M20.5 13C23.1209 10.2727 19.8882 8.53306 18.9863 7.5C18.7281 7.7958 17.5022 8.14828 17 8.5M19 7.5V5.5" stroke="#141B34" stroke-width="1.5" stroke-linejoin="round"/>
<path d="M12 3.5V1.5" stroke="#141B34" stroke-width="1.5" stroke-linejoin="round"/>
<path d="M3.49949 13C0.878641 10.2727 4.11186 8.53306 5.01374 7.5C5.27195 7.7958 6.49876 8.14828 7.00098 8.5M5.00007 7.5V5.5" stroke="#141B34" stroke-width="1.5" stroke-linejoin="round"/>
<path d="M2 22.5H1.25V23.25H2V22.5ZM2 13.15V12.4C1.58579 12.4 1.25 12.7358 1.25 13.15H2ZM22 13.15H22.75C22.75 12.7358 22.4142 12.4 22 12.4V13.15ZM22 22.5V23.25H22.75V22.5H22ZM4.32647 12.847L4.06828 12.1428L4.06828 12.1428L4.32647 12.847ZM19.6735 12.847L19.4153 13.5511V13.5511L19.6735 12.847ZM2.75 22.5V13.15H1.25V22.5H2.75ZM21.25 13.15V22.5H22.75V13.15H21.25ZM4.58466 13.5511L8.25819 12.2042L7.74181 10.7958L4.06828 12.1428L4.58466 13.5511ZM15.7418 12.2042L19.4153 13.5511L19.9317 12.1428L16.2582 10.7958L15.7418 12.2042ZM22 21.75H2V23.25H22V21.75ZM4.06828 12.1428C3.88075 12.2116 3.52303 12.28 3.09221 12.3295C2.6775 12.3772 2.26323 12.4 2 12.4V13.9C2.32938 13.9 2.80153 13.8728 3.2635 13.8197C3.70936 13.7684 4.21857 13.6854 4.58466 13.5511L4.06828 12.1428ZM19.4153 13.5511C19.7814 13.6854 20.2906 13.7684 20.7365 13.8197C21.1985 13.8728 21.6706 13.9 22 13.9V12.4C21.7368 12.4 21.3225 12.3772 20.9078 12.3295C20.477 12.28 20.1193 12.2116 19.9317 12.1428L19.4153 13.5511Z" fill="#141B34"/>
<path d="M19 18.5L19 16.5" stroke="#141B34" stroke-width="1.5" stroke-linejoin="round"/>
<path d="M12 22.5L12 18.5" stroke="#141B34" stroke-width="1.5" stroke-linejoin="round"/>
<path d="M5 18.5L5 16.5" stroke="#141B34" stroke-width="1.5" stroke-linejoin="round"/>
<path d="M12 16.5L12 14.5" stroke="#141B34" stroke-width="1.5" stroke-linejoin="round"/>
</svg>
