<svg width="24" height="24" viewBox="0 0 24 24" fill="none" xmlns="http://www.w3.org/2000/svg">
<path d="M16.6168 1C16.8637 1.76959 17 2.6141 17 3.5C17 7.08985 14.7614 10 12 10C9.23858 10 7 7.08985 7 3.5C7 2.6141 7.13633 1.76959 7.3832 1" stroke="#141B34" stroke-width="1.5"/>
<path d="M17 1.00232L17.3718 0.350948L17.199 0.252319H17V1.00232ZM12 2.98619L11.414 3.45429L12 4.18785L12.586 3.45429L12 2.98619ZM20.5 2.99997L21.22 3.21005L21.3857 2.64195L20.8718 2.3486L20.5 2.99997ZM19.6921 10.4127L20.3663 10.0842V10.0842L19.6921 10.4127ZM7 1.00232V0.252319H6.80103L6.62823 0.350948L7 1.00232ZM3.5 2.99997L3.12823 2.3486L2.61425 2.64195L2.78002 3.21005L3.5 2.99997ZM4.30792 10.4127L3.63373 10.0842L3.63373 10.0842L4.30792 10.4127ZM17 0.252319C14.889 0.252319 12.7769 0.811985 11.414 2.51809L12.586 3.45429C13.5446 2.25419 15.111 1.75232 17 1.75232V0.252319ZM16.6282 1.65369L20.1282 3.65134L20.8718 2.3486L17.3718 0.350948L16.6282 1.65369ZM20.25 13.4965C20.25 15.0179 19.0181 16.25 17.5002 16.25V17.75C19.848 17.75 21.75 15.8449 21.75 13.4965H20.25ZM19.78 2.78988C19.4806 3.81591 19.0103 5.2229 18.7527 6.60343C18.4978 7.96978 18.4103 9.4946 19.0179 10.7413L20.3663 10.0842C19.9799 9.29138 19.9853 8.17574 20.2273 6.87854C20.4667 5.59551 20.8973 4.31586 21.22 3.21005L19.78 2.78988ZM19.0179 10.7413C19.1642 11.0416 19.3267 11.3132 19.4759 11.5563C19.6305 11.8081 19.7631 12.0174 19.8826 12.2355C20.111 12.6524 20.25 13.0306 20.25 13.4965H21.75C21.75 12.6872 21.4942 12.0553 21.1982 11.5149C21.0555 11.2544 20.8935 10.9984 20.7543 10.7715C20.6096 10.5359 20.4791 10.3156 20.3663 10.0842L19.0179 10.7413ZM17.5002 16.25H16.5V17.75H17.5002V16.25ZM7 1.75232C8.88903 1.75232 10.4554 2.25419 11.414 3.45429L12.586 2.51809C11.2231 0.811985 9.11097 0.252319 7 0.252319V1.75232ZM6.62823 0.350948L3.12823 2.3486L3.87177 3.65134L7.37177 1.65369L6.62823 0.350948ZM2.25 13.4965C2.25 15.8449 4.152 17.75 6.49985 17.75V16.25C4.98188 16.25 3.75 15.0179 3.75 13.4965H2.25ZM2.78002 3.21005C3.10269 4.31586 3.53333 5.59551 3.7727 6.87854C4.01472 8.17574 4.0201 9.29138 3.63373 10.0842L4.98211 10.7413C5.58972 9.4946 5.50218 7.96978 5.24726 6.60343C4.98969 5.2229 4.51936 3.81591 4.21998 2.78988L2.78002 3.21005ZM3.63373 10.0842C3.52092 10.3156 3.39036 10.5359 3.24572 10.7715C3.10646 10.9984 2.94452 11.2544 2.80183 11.5149C2.50579 12.0553 2.25 12.6872 2.25 13.4965H3.75C3.75 13.0306 3.88902 12.6524 4.11736 12.2355C4.23687 12.0174 4.36951 11.8081 4.52408 11.5563C4.67326 11.3132 4.83576 11.0416 4.98211 10.7413L3.63373 10.0842ZM6.49985 17.75H7.5V16.25H6.49985V17.75Z" fill="#141B34"/>
<path d="M14.5 16.25C12.6544 15.632 11.5762 15.5364 9.5 16.25" stroke="#141B34" stroke-width="1.5"/>
<path d="M5 17V22" stroke="#141B34" stroke-width="1.5"/>
<path d="M19 17V22" stroke="#141B34" stroke-width="1.5"/>
<path d="M17 3C15.2742 3.45112 14 5.03024 14 6.90903C14 7.67442 14.2115 8.39008 14.5788 9M7 3C8.72577 3.45112 10 5.03024 10 6.90903C10 7.67442 9.78852 8.39008 9.4212 9" stroke="#141B34" stroke-width="1.5" stroke-linecap="round"/>
</svg>
