<svg width="24" height="24" viewBox="0 0 24 24" fill="none" xmlns="http://www.w3.org/2000/svg">
<path d="M9.00514 14.5L8.51704 15.0694L9.75514 16.1307V14.5H9.00514ZM6.87124 12.671L7.35934 12.1015L7.35934 12.1015L6.87124 12.671ZM4.38941 15.0883L5.01333 14.6721L4.99375 14.6428L4.97149 14.6154L4.38941 15.0883ZM9 22L8.37608 22.4162C8.5152 22.6247 8.74931 22.75 9 22.75V22ZM12.5051 10.4776H11.7551V11.2276H12.5051V10.4776ZM4.38114 12.905L3.79549 12.4365L3.79549 12.4365L4.38114 12.905ZM9.49323 13.9306L7.35934 12.1015L6.38315 13.2404L8.51704 15.0694L9.49323 13.9306ZM3.76549 15.5045L8.37608 22.4162L9.62392 21.5838L5.01333 14.6721L3.76549 15.5045ZM9.75514 14.5V6.25H8.25514V14.5H9.75514ZM11.7551 6.25V10.4776H13.2551V6.25H11.7551ZM12.5051 11.2276H17V9.72757H12.5051V11.2276ZM17 21.25H9V22.75H17V21.25ZM10.7551 5.25C11.3074 5.25 11.7551 5.69772 11.7551 6.25H13.2551C13.2551 4.86929 12.1358 3.75 10.7551 3.75V5.25ZM9.75514 6.25C9.75514 5.69772 10.2029 5.25 10.7551 5.25V3.75C9.37442 3.75 8.25514 4.86929 8.25514 6.25H9.75514ZM3.79549 12.4365C3.06376 13.3511 3.06869 14.6522 3.80732 15.5613L4.97149 14.6154C4.67794 14.2541 4.67598 13.737 4.96679 13.3735L3.79549 12.4365ZM7.35934 12.1015C6.29041 11.1853 4.67497 11.3371 3.79549 12.4365L4.96679 13.3735C5.31632 12.9366 5.95833 12.8763 6.38315 13.2404L7.35934 12.1015ZM20.75 19V13.4776H19.25V19H20.75ZM17 22.75C19.0711 22.75 20.75 21.0711 20.75 19H19.25C19.25 20.2426 18.2426 21.25 17 21.25V22.75ZM17 11.2276C18.2426 11.2276 19.25 12.2349 19.25 13.4776H20.75C20.75 11.4065 19.0711 9.72757 17 9.72757V11.2276Z" fill="#141B34"/>
<path d="M6.75391 6C6.75391 3.79086 8.54477 2 10.7539 2C12.963 2 14.7539 3.79086 14.7539 6" stroke="#141B34" stroke-width="1.5" stroke-linejoin="round"/>
</svg>
