<svg width="24" height="24" viewBox="0 0 24 24" fill="none" xmlns="http://www.w3.org/2000/svg">
<path d="M6.01673 17.4814L5.41098 17.9237L5.42936 17.9488L5.44976 17.9724L6.01673 17.4814ZM8.37097 20.2002H9.12097V19.9206L8.93794 19.7092L8.37097 20.2002ZM4.50502 14.7436L3.75655 14.7915L4.50502 14.7436ZM4.55714 14.0582L5.28986 14.2182H5.28986L4.55714 14.0582ZM19.2177 18.1014L19.917 18.3724V18.3724L19.2177 18.1014ZM17.4971 20.2002L16.9632 19.6735L16.7471 19.8925V20.2002H17.4971ZM5.44976 17.9724L7.804 20.6911L8.93794 19.7092L6.5837 16.9905L5.44976 17.9724ZM6.62248 17.0392C6.12518 16.358 5.78552 15.8913 5.55891 15.5053C5.33919 15.1311 5.26641 14.898 5.25349 14.6958L3.75655 14.7915C3.79034 15.3204 3.98508 15.7873 4.26537 16.2647C4.53877 16.7304 4.93162 17.2671 5.41098 17.9237L6.62248 17.0392ZM5.25349 14.6958C5.24329 14.5362 5.25544 14.3758 5.28986 14.2182L3.82442 13.8981C3.76029 14.1916 3.73741 14.4919 3.75655 14.7915L5.25349 14.6958ZM18.75 14.6514C18.75 15.5683 18.7496 16.2203 18.7163 16.7351C18.6834 17.2432 18.6205 17.5668 18.5184 17.8303L19.917 18.3724C20.0972 17.9074 20.1755 17.4132 20.2131 16.8321C20.2504 16.2576 20.25 15.5489 20.25 14.6514H18.75ZM8.6371 14.3502V5.85H7.1371V14.3502H8.6371ZM9.33871 5.25C9.77839 5.25 10.0403 5.56896 10.0403 5.85H11.5403C11.5403 4.63987 10.5024 3.75 9.33871 3.75V5.25ZM8.6371 5.85C8.6371 5.56896 8.89903 5.25 9.33871 5.25V3.75C8.17498 3.75 7.1371 4.63987 7.1371 5.85H8.6371ZM12.9436 10.7502V13.0002H14.4436V10.7502H12.9436ZM15.8468 12.1002V13.9002H17.3468V12.1002H15.8468ZM7.62097 20.2002V22.0002H9.12097V20.2002H7.62097ZM18.5184 17.8303C18.5 17.8777 18.4393 17.9884 18.3109 18.1644C18.1905 18.3294 18.0379 18.5153 17.8711 18.7062C17.5379 19.0877 17.1761 19.4576 16.9632 19.6735L18.0311 20.7268C18.2465 20.5085 18.6356 20.1112 19.0009 19.693C19.1833 19.4841 19.3669 19.262 19.5227 19.0484C19.6705 18.8459 19.826 18.6073 19.917 18.3724L18.5184 17.8303ZM16.7471 20.2002V22.0002H18.2471V20.2002H16.7471ZM18.75 13.4502V14.6514H20.25V13.4502H18.75ZM5.28986 14.2182C5.40719 13.6812 5.81178 13.1246 6.42873 12.5269C6.72856 12.2364 7.05705 11.956 7.39194 11.6776C7.71861 11.406 8.06492 11.1254 8.36278 10.8616L7.36819 9.73873C7.09376 9.98182 6.78196 10.234 6.433 10.5242C6.09226 10.8074 5.72758 11.1177 5.385 11.4496C4.7171 12.0966 4.03982 12.9121 3.82442 13.8981L5.28986 14.2182ZM10.0403 5.85V9.40016H11.5403V5.85H10.0403ZM10.0403 9.40016V12.1002H11.5403V9.40016H10.0403ZM10.7903 10.1502H12.2873V8.65016H10.7903V10.1502ZM14.4436 10.7502C14.4436 9.5618 13.449 8.65016 12.2873 8.65016V10.1502C12.6789 10.1502 12.9436 10.4473 12.9436 10.7502H14.4436ZM13.6936 11.5002H15.1905V10.0002H13.6936V11.5002ZM17.3468 12.1002C17.3468 10.9118 16.3522 10.0002 15.1905 10.0002V11.5002C15.5821 11.5002 15.8468 11.7973 15.8468 12.1002H17.3468ZM18.0938 11.3502H16.5968V12.8502H18.0938V11.3502ZM20.25 13.4502C20.25 12.2618 19.2555 11.3502 18.0938 11.3502V12.8502C18.4853 12.8502 18.75 13.1473 18.75 13.4502H20.25Z" fill="#141B34"/>
<path d="M5.33984 6C5.33984 3.79088 7.1307 2 9.33984 2C11.549 2 13.3398 3.79088 13.3398 6" stroke="#141B34" stroke-width="1.5" stroke-linejoin="round"/>
</svg>
