<svg width="24" height="24" viewBox="0 0 24 24" fill="none" xmlns="http://www.w3.org/2000/svg">
<path d="M17 12C17 14.7614 14.7614 17 12 17C9.23858 17 7 14.7614 7 12C7 9.23858 9.23858 7 12 7" stroke="#141B34" stroke-width="1.5" stroke-linejoin="round"/>
<path d="M14 2.20004C13.3538 2.06886 12.6849 2 12 2C6.47715 2 2 6.47715 2 12C2 17.5228 6.47715 22 12 22C17.5228 22 22 17.5228 22 12C22 11.3151 21.9311 10.6462 21.8 10" stroke="#141B34" stroke-width="1.5" stroke-linejoin="round"/>
<path d="M19 2L19.7354 1.85291C19.6812 1.58169 19.4821 1.36233 19.2173 1.28218C18.9526 1.20203 18.6653 1.27409 18.4697 1.46967L19 2ZM22 5L22.5303 5.53033C22.7259 5.33475 22.798 5.04739 22.7178 4.78267C22.6377 4.51794 22.4183 4.31881 22.1471 4.26457L22 5ZM19 8L19 8.75L19.3107 8.75L19.5303 8.53033L19 8ZM16 5L15.4697 4.46967L15.25 4.68934V5H16ZM19.5 4.5L18.7646 4.64709C18.8239 4.94398 19.056 5.17606 19.3529 5.23544L19.5 4.5ZM15.4697 7.46967L11.4697 11.4697L12.5303 12.5303L16.5303 8.53033L15.4697 7.46967ZM18.4697 1.46967L15.4697 4.46967L16.5303 5.53033L19.5303 2.53033L18.4697 1.46967ZM16.75 8V5H15.25V8H16.75ZM16 8.75L19 8.75L19 7.25L16 7.25L16 8.75ZM18.2646 2.14709L18.7646 4.64709L20.2354 4.35291L19.7354 1.85291L18.2646 2.14709ZM21.4697 4.46967L18.4697 7.46967L19.5303 8.53033L22.5303 5.53033L21.4697 4.46967ZM19.3529 5.23544L21.8529 5.73544L22.1471 4.26457L19.6471 3.76456L19.3529 5.23544Z" fill="#141B34"/>
</svg>
