<svg width="24" height="24" viewBox="0 0 24 24" fill="none" xmlns="http://www.w3.org/2000/svg">
<path d="M3 14L4 19M4 19L3 22M4 19H7L8 22" stroke="#141B34" stroke-width="1.5" stroke-linejoin="round"/>
<path d="M21 14L20 19M20 19L21 22M20 19H17L16 22" stroke="#141B34" stroke-width="1.5" stroke-linejoin="round"/>
<path d="M12 10V22" stroke="#141B34" stroke-width="1.5" stroke-linejoin="round"/>
<path d="M12 2L12.53 1.46938C12.2372 1.17687 11.7628 1.17687 11.4699 1.46938L12 2ZM2.99805 8L2.68001 7.32077C2.41643 7.44419 2.24805 7.70896 2.24805 8H2.99805ZM20.998 8H21.748C21.748 7.70896 21.5797 7.44419 21.3161 7.32077L20.998 8ZM20.998 10V10.75H21.748V10H20.998ZM2.99805 10H2.24805V10.75H2.99805V10ZM11.4699 1.46938C10.763 2.17554 9.09158 3.39513 7.28613 4.58594C5.49118 5.76983 3.66265 6.86066 2.68001 7.32077L3.31609 8.67923C4.4031 8.17025 6.30746 7.02832 8.11202 5.8381C9.90609 4.6548 11.7008 3.35894 12.53 2.53062L11.4699 1.46938ZM11.4699 2.53062C12.2991 3.35884 14.0927 4.65466 15.8859 5.838C17.6894 7.02821 19.5929 8.1702 20.68 8.67923L21.3161 7.32077C20.3336 6.86071 18.5061 5.76994 16.7121 4.58604C14.9076 3.39528 13.2371 2.17564 12.53 1.46938L11.4699 2.53062ZM20.998 9.25H2.99805V10.75H20.998V9.25ZM2.24805 8V10H3.74805V8H2.24805ZM20.248 8V10H21.748V8H20.248Z" fill="#141B34"/>
<path d="M10 22H14" stroke="#141B34" stroke-width="1.5" stroke-linejoin="round"/>
<path d="M9 15H15" stroke="#141B34" stroke-width="1.5" stroke-linejoin="round"/>
</svg>
