<svg width="24" height="24" viewBox="0 0 24 24" fill="none" xmlns="http://www.w3.org/2000/svg">
<path d="M5 12H4.25C4.25 12.4142 4.58579 12.75 5 12.75V12ZM5 3V2.25H4.25V3H5ZM5 3.75H12.5789V2.25H5V3.75ZM12.5789 3.75C14.594 3.75 16.25 5.41636 16.25 7.5H17.75C17.75 4.61307 15.4473 2.25 12.5789 2.25V3.75ZM16.25 7.5C16.25 9.58364 14.594 11.25 12.5789 11.25V12.75C15.4473 12.75 17.75 10.3869 17.75 7.5H16.25ZM12.5789 11.25H5V12.75H12.5789V11.25ZM5.75 12V3H4.25V12H5.75Z" fill="#141B34"/>
<path d="M13.6667 12V11.25V12ZM13.6667 21V21.75V21ZM5 12V11.25C4.58579 11.25 4.25 11.5858 4.25 12H5ZM5 21H4.25V21.75H5V21ZM13.6667 12.75C15.6193 12.75 17.25 14.402 17.25 16.5H18.75C18.75 13.6274 16.5005 11.25 13.6667 11.25V12.75ZM17.25 16.5C17.25 18.598 15.6193 20.25 13.6667 20.25V21.75C16.5005 21.75 18.75 19.3726 18.75 16.5H17.25ZM13.6667 20.25H5V21.75H13.6667V20.25ZM5.75 21V12H4.25V21H5.75ZM13.6667 11.25H5V12.75H13.6667V11.25Z" fill="#141B34"/>
</svg>
