<svg width="24" height="24" viewBox="0 0 24 24" fill="none" xmlns="http://www.w3.org/2000/svg">
<path d="M15.998 22C18.2072 22 19.998 20.2091 19.998 18C19.998 16.5194 19.1936 15.2267 17.998 14.5351V4C17.998 2.89543 17.1026 2 15.998 2C14.8935 2 13.998 2.89543 13.998 4V14.5351C12.8024 15.2267 11.998 16.5194 11.998 18C11.998 20.2091 13.7889 22 15.998 22Z" stroke="#141B34" stroke-width="1.5"/>
<path d="M10.4991 12.25H11.2491V10.75H10.4991V12.25ZM10.4991 6.25H11.2491V4.75H10.4991V6.25ZM11.2491 3.5V2H9.7491V3.5H11.2491ZM11.2491 15V13.5H9.7491V15H11.2491ZM4 9.25H5.5V7.75H4V9.25ZM6.43414 13.6265L7.4948 12.5659L6.43414 11.5052L5.37348 12.5659L6.43414 13.6265ZM5.37349 4.43451L6.43415 5.49517L7.49481 4.43451L6.43415 3.37385L5.37349 4.43451ZM10.4991 10.75C9.25646 10.75 8.2491 9.74264 8.2491 8.5H6.7491C6.7491 10.5711 8.42803 12.25 10.4991 12.25V10.75ZM8.2491 8.5C8.2491 7.25736 9.25646 6.25 10.4991 6.25V4.75C8.42803 4.75 6.7491 6.42893 6.7491 8.5H8.2491Z" fill="#141B34"/>
</svg>
