<svg width="24" height="24" viewBox="0 0 24 24" fill="none" xmlns="http://www.w3.org/2000/svg">
<g clip-path="url(#clip0_13999_9934)">
<path d="M12.8917 1L13.4219 0.469597C13.129 0.176773 12.6542 0.176805 12.3613 0.46967L12.8917 1ZM1 12.8917L0.46967 12.3613C0.176777 12.6542 0.176777 13.1291 0.46967 13.422L1 12.8917ZM11.1083 23L10.578 23.5303C10.8709 23.8232 11.3458 23.8232 11.6387 23.5303L11.1083 23ZM23 11.1083L23.5303 11.6387C23.8232 11.3458 23.8232 10.871 23.5304 10.5781L23 11.1083ZM19.4328 7.54019L19.9632 7.00994L19.4329 6.47946L18.9025 7.00986L19.4328 7.54019ZM19.1507 7.82233L19.681 8.35266L19.681 8.35266L19.1507 7.82233ZM16.1777 4.84929L16.708 5.37962V5.37962L16.1777 4.84929ZM16.4598 4.56715L16.9901 5.09748L17.5205 4.56708L16.9901 4.03675L16.4598 4.56715ZM4.56765 16.4593L4.03732 16.9896L4.56765 17.52L5.09798 16.9896L4.56765 16.4593ZM4.84896 16.178L4.31863 15.6477L4.31863 15.6477L4.84896 16.178ZM7.54069 19.4324L7.01036 18.902L6.48003 19.4324L7.01036 19.9627L7.54069 19.4324ZM12.3613 0.46967L0.46967 12.3613L1.53033 13.422L13.422 1.53033L12.3613 0.46967ZM11.6387 23.5303L23.5303 11.6387L22.4697 10.578L10.578 22.4697L11.6387 23.5303ZM23.5304 10.5781L19.9632 7.00994L18.9024 8.07045L22.4696 11.6386L23.5304 10.5781ZM18.9025 7.00986L18.6204 7.292L19.681 8.35266L19.9632 8.07052L18.9025 7.00986ZM16.708 5.37962L16.9901 5.09748L15.9295 4.03682L15.6473 4.31896L16.708 5.37962ZM16.9901 4.03675L13.4219 0.469597L12.3614 1.5304L15.9295 5.09756L16.9901 4.03675ZM0.46967 13.422L4.03732 16.9896L5.09798 15.929L1.53033 12.3613L0.46967 13.422ZM5.09798 16.9896L5.37929 16.7083L4.31863 15.6477L4.03732 15.929L5.09798 16.9896ZM7.29167 18.6207L7.01036 18.902L8.07102 19.9627L8.35233 19.6814L7.29167 18.6207ZM7.01036 19.9627L10.578 23.5303L11.6387 22.4697L8.07102 18.902L7.01036 19.9627ZM5.37929 16.7083C5.90738 16.1802 6.76358 16.1802 7.29167 16.7083L8.35233 15.6477C7.23845 14.5338 5.4325 14.5338 4.31863 15.6477L5.37929 16.7083ZM16.708 7.292C16.1799 6.76391 16.1799 5.90771 16.708 5.37962L15.6473 4.31896C14.5335 5.43283 14.5335 7.23878 15.6473 8.35266L16.708 7.292ZM7.29167 16.7083C7.81976 17.2364 7.81976 18.0926 7.29167 18.6207L8.35233 19.6814C9.4662 18.5675 9.4662 16.7615 8.35233 15.6477L7.29167 16.7083ZM18.6204 7.292C18.0923 7.82009 17.2361 7.82009 16.708 7.292L15.6473 8.35266C16.7612 9.46653 18.5672 9.46653 19.681 8.35266L18.6204 7.292Z" fill="#141B34"/>
<path d="M18 16L8 6" stroke="#141B34" stroke-width="1.5" stroke-linejoin="round"/>
</g>
<defs>
<clipPath id="clip0_13999_9934">
<rect width="24" height="24" fill="white"/>
</clipPath>
</defs>
</svg>
