<svg width="24" height="24" viewBox="0 0 24 24" fill="none" xmlns="http://www.w3.org/2000/svg">
<path d="M19.3211 11.9618L18.7891 12.4905L19.3211 11.9618ZM18.9985 17.6892L19.6748 18.0134L19.6749 18.0131L18.9985 17.6892ZM17.8919 19.9973L17.2156 19.6731L17.1419 19.8268V19.9973H17.8919ZM9 14L8.45675 14.5171L9.75 15.8758V14H9ZM6.78341 11.6713L7.32666 11.1542L7.30439 11.1308L7.2802 11.1094L6.78341 11.6713ZM4.3775 14.0886L4.97541 13.6359L4.9711 13.6302L4.96668 13.6246L4.3775 14.0886ZM8.85181 19.9973H9.60181V19.7454L9.44972 19.5446L8.85181 19.9973ZM4.36948 11.9053L3.77682 11.4457L3.77682 11.4457L4.36948 11.9053ZM12.5 9.5H11.75V10.2841L12.5333 10.2493L12.5 9.5ZM18.7891 12.4905C19.2053 12.9093 19.3421 13.6569 19.1903 14.671C19.0439 15.6486 18.657 16.6658 18.322 17.3653L19.6749 18.0131C20.0471 17.2359 20.4975 16.0699 20.6737 14.8931C20.8445 13.7529 20.789 12.3751 19.8531 11.4332L18.7891 12.4905ZM18.3222 17.365L17.2156 19.6731L18.5682 20.3216L19.6748 18.0134L18.3222 17.365ZM9.54325 13.4829L7.32666 11.1542L6.24016 12.1883L8.45675 14.5171L9.54325 13.4829ZM3.77958 14.5414L8.25389 20.4501L9.44972 19.5446L4.97541 13.6359L3.77958 14.5414ZM3.77682 11.4457C3.07019 12.3568 3.07482 13.6468 3.78831 14.5527L4.96668 13.6246C4.67956 13.26 4.67752 12.7319 4.96214 12.3649L3.77682 11.4457ZM7.2802 11.1094C6.22827 10.1793 4.63524 10.3388 3.77682 11.4457L4.96214 12.3649C5.29514 11.9355 5.89049 11.8829 6.28661 12.2331L7.2802 11.1094ZM17.1419 19.9973V22H18.6419V19.9973H17.1419ZM9.60181 22V19.9973H8.10181V22H9.60181ZM8.25 3.75V14H9.75V3.75H8.25ZM11.75 3.75V9.5H13.25V3.75H11.75ZM12.5333 10.2493C14.1369 10.1779 16.8679 10.557 18.7891 12.4905L19.8531 11.4332C17.5111 9.07631 14.2796 8.67013 12.4667 8.75074L12.5333 10.2493ZM9.75 3.75C9.75 3.19772 10.1977 2.75 10.75 2.75V1.25C9.36929 1.25 8.25 2.36929 8.25 3.75H9.75ZM10.75 2.75C11.3023 2.75 11.75 3.19772 11.75 3.75H13.25C13.25 2.36929 12.1307 1.25 10.75 1.25V2.75Z" fill="#141B34"/>
</svg>
