<svg width="24" height="24" viewBox="0 0 24 24" fill="none" xmlns="http://www.w3.org/2000/svg">
<path d="M9.00514 14L8.51704 14.5694L9.75514 15.6307V14H9.00514ZM6.87124 12.171L7.35934 11.6015H7.35934L6.87124 12.171ZM4.38941 14.5883L5.01333 14.1721L4.99375 14.1428L4.97149 14.1154L4.38941 14.5883ZM9 21.5L8.37608 21.9162C8.5152 22.1247 8.74931 22.25 9 22.25V21.5ZM12.5051 9.97757H11.7551V10.7276H12.5051V9.97757ZM4.38114 12.405L3.79549 11.9365H3.79549L4.38114 12.405ZM9.49323 13.4306L7.35934 11.6015L6.38315 12.7404L8.51704 14.5694L9.49323 13.4306ZM3.76549 15.0045L8.37608 21.9162L9.62392 21.0838L5.01333 14.1721L3.76549 15.0045ZM9.75514 14V4.25H8.25514V14H9.75514ZM11.7551 4.25V9.97757H13.2551V4.25H11.7551ZM12.5051 10.7276H17V9.22757H12.5051V10.7276ZM17 20.75H9V22.25H17V20.75ZM10.7551 3.25C11.3074 3.25 11.7551 3.69772 11.7551 4.25H13.2551C13.2551 2.86929 12.1358 1.75 10.7551 1.75V3.25ZM9.75514 4.25C9.75514 3.69772 10.2029 3.25 10.7551 3.25V1.75C9.37442 1.75 8.25514 2.86929 8.25514 4.25H9.75514ZM3.79549 11.9365C3.06376 12.8511 3.06869 14.1522 3.80732 15.0613L4.97149 14.1154C4.67794 13.7541 4.67598 13.237 4.96679 12.8735L3.79549 11.9365ZM7.35934 11.6015C6.29041 10.6853 4.67497 10.8371 3.79549 11.9365L4.96679 12.8735C5.31632 12.4366 5.95833 12.3763 6.38315 12.7404L7.35934 11.6015ZM20.75 18.5V12.9776H19.25V18.5H20.75ZM17 22.25C19.0711 22.25 20.75 20.5711 20.75 18.5H19.25C19.25 19.7426 18.2426 20.75 17 20.75V22.25ZM17 10.7276C18.2426 10.7276 19.25 11.7349 19.25 12.9776H20.75C20.75 10.9065 19.0711 9.22757 17 9.22757V10.7276Z" fill="#141B34"/>
</svg>
