<svg width="24" height="24" viewBox="0 0 24 24" fill="none" xmlns="http://www.w3.org/2000/svg">
<path d="M3 21.0002V3L21 21.0002H3Z" stroke="#141B34" stroke-width="1.5" stroke-linejoin="round"/>
<path d="M21 13V13.75H21.7498L21.75 13.0002L21 13ZM21 3L21.75 2.99981L21.7498 2.25H21V3ZM11 3V2.25H10.25V3H11ZM21.529 12.4683L17.483 8.44333L16.4251 9.50674L20.471 13.5317L21.529 12.4683ZM21 12.25H18V13.75H21V12.25ZM20.2508 9.99981L20.25 12.9998L21.75 13.0002L21.7508 10.0002L20.2508 9.99981ZM20.471 2.46829L16.4251 6.49326L17.483 7.55667L21.529 3.53171L20.471 2.46829ZM20.25 3.00019L20.2508 6.00019L21.7508 5.99981L21.75 2.99981L20.25 3.00019ZM18.0008 3.75H21V2.25H18.0008V3.75ZM10.4666 3.5272L14.4793 7.58738L15.5462 6.53297L11.5334 2.4728L10.4666 3.5272ZM10.25 3V6H11.75V3H10.25ZM14 2.25H11V3.75H14V2.25ZM16.6144 8C16.6144 8.3389 16.3397 8.61364 16.0008 8.61364V10.1136C17.1681 10.1136 18.1144 9.16733 18.1144 8H16.6144ZM16.0008 8.61364C15.6619 8.61364 15.3871 8.3389 15.3871 8H13.8871C13.8871 9.16733 14.8334 10.1136 16.0008 10.1136V8.61364ZM15.3871 8C15.3871 7.6611 15.6619 7.38636 16.0008 7.38636V5.88636C14.8334 5.88636 13.8871 6.83267 13.8871 8H15.3871ZM16.0008 7.38636C16.3397 7.38636 16.6144 7.6611 16.6144 8H18.1144C18.1144 6.83267 17.1681 5.88636 16.0008 5.88636V7.38636Z" fill="#141B34"/>
</svg>
