<svg width="24" height="24" viewBox="0 0 24 24" fill="none" xmlns="http://www.w3.org/2000/svg">
<path d="M3.43229 6.2532L4.07888 6.63322L3.43229 6.2532ZM13.7834 3.56964L13.2606 4.10739L13.2606 4.10739L13.7834 3.56964ZM14.5 8L14.0629 8.60944L14.6935 9.06179L15.124 8.41603L14.5 8ZM3.46894 18.8132C3.13757 17.5245 2.76744 15.3381 2.7506 13.0237C2.73363 10.6917 3.07678 8.33824 4.07888 6.63322L2.7857 5.87317C1.57968 7.92514 1.23294 10.6033 1.25064 13.0346C1.26846 15.4834 1.65753 17.7919 2.0162 19.1868L3.46894 18.8132ZM4.07888 6.63322C5.36941 4.43749 7.10443 3.24423 8.76962 2.87629C10.4329 2.50876 12.07 2.94985 13.2606 4.10739L14.3062 3.0319C12.7365 1.50575 10.5781 0.940499 8.44599 1.41162C6.31573 1.88232 4.25535 3.37267 2.7857 5.87317L4.07888 6.63322ZM13.2606 4.10739C13.5161 4.35579 13.8865 4.95639 14.0702 5.67961C14.2524 6.39666 14.2136 7.07756 13.876 7.58397L15.124 8.41603C15.7864 7.42244 15.7632 6.25163 15.524 5.31024C15.2864 4.37502 14.7985 3.51044 14.3062 3.0319L13.2606 4.10739ZM14.5 8C14.9371 7.39056 14.937 7.39047 14.9369 7.39038C14.9368 7.39034 14.9367 7.39024 14.9366 7.39017C14.9364 7.39002 14.9361 7.38985 14.9359 7.38967C14.9354 7.38931 14.9348 7.38888 14.9341 7.38838C14.9327 7.38739 14.9309 7.38615 14.9288 7.38465C14.9246 7.38165 14.9189 7.37766 14.9118 7.37272C14.8977 7.36285 14.8779 7.34923 14.853 7.33238C14.8032 7.29871 14.7324 7.252 14.6442 7.19661C14.4683 7.08624 14.2195 6.93927 13.9255 6.79174C13.3605 6.50814 12.5354 6.17409 11.7128 6.17409V7.67409C12.1774 7.67409 12.7459 7.87799 13.2527 8.13235C13.4946 8.25379 13.7013 8.37581 13.8469 8.46717C13.9193 8.51264 13.9758 8.54999 14.0131 8.57516C14.0317 8.58773 14.0454 8.59722 14.0538 8.60311C14.0581 8.60606 14.061 8.6081 14.0625 8.60918C14.0633 8.60972 14.0637 8.61001 14.0637 8.61006C14.0638 8.61008 14.0637 8.61004 14.0636 8.60994C14.0635 8.60989 14.0634 8.60982 14.0633 8.60974C14.0632 8.60969 14.0631 8.60962 14.0631 8.6096C14.063 8.60952 14.0629 8.60944 14.5 8ZM11.7128 6.17409C10.5607 6.17409 9.64234 6.57163 9.12058 6.69845C8.83561 6.76771 8.59706 6.79147 8.33971 6.74974C8.07846 6.70738 7.74439 6.58856 7.29106 6.29461L6.47498 7.55319C7.05645 7.93023 7.58474 8.14692 8.09964 8.2304C8.61844 8.31452 9.06984 8.25445 9.47484 8.15601C10.333 7.94743 10.7948 7.67409 11.7128 7.67409V6.17409Z" fill="#141B34"/>
<path d="M7.06641 12C7.06641 12 7.06616 15 9.99951 16" stroke="#141B34" stroke-width="1.5" stroke-linejoin="round"/>
<path d="M22 21.3733C20.5547 22.1843 18.7056 22.1843 17.2604 21.3733C16.3889 20.8756 15.2412 20.8756 14.3698 21.3733C14.3698 21.3733 14.3486 21.3733 14.3486 21.3917C12.9033 22.2028 11.0542 22.2028 9.63019 21.3917C8.73752 20.894 7.61105 20.894 6.73964 21.3917M6.73964 21.3733C5.29436 22.1843 3.44527 22.1843 2 21.3733" stroke="#141B34" stroke-width="1.5"/>
<path d="M22 16.5C16.7533 16.5 11 12.2467 11 7" stroke="#141B34" stroke-width="1.5"/>
</svg>
