<svg width="24" height="24" viewBox="0 0 24 24" fill="none" xmlns="http://www.w3.org/2000/svg">
<path d="M11 20H2C2 16.134 5.58172 13 10 13C11.8919 13 13.6304 13.5746 15 14.5353M14 6C14 8.20914 12.2091 10 10 10C7.79086 10 6 8.20914 6 6C6 3.79086 7.79086 2 10 2C12.2091 2 14 3.79086 14 6Z" stroke="#141B34" stroke-width="1.5"/>
<path d="M14 22H13.25V22.75H14V22ZM14 19.5L13.4697 18.9697L13.25 19.1893V19.5H14ZM16.5 22V22.75H16.8107L17.0303 22.5303L16.5 22ZM19.5 14L20.0303 13.4697C19.8897 13.329 19.6989 13.25 19.5 13.25C19.3011 13.25 19.1103 13.329 18.9697 13.4697L19.5 14ZM22 16.5L22.5303 17.0303C22.8232 16.7374 22.8232 16.2626 22.5303 15.9697L22 16.5ZM14.75 22V19.5H13.25V22H14.75ZM14 22.75H16.5V21.25H14V22.75ZM14.5303 20.0303L20.0303 14.5303L18.9697 13.4697L13.4697 18.9697L14.5303 20.0303ZM18.9697 14.5303L21.4697 17.0303L22.5303 15.9697L20.0303 13.4697L18.9697 14.5303ZM21.4697 15.9697L15.9697 21.4697L17.0303 22.5303L22.5303 17.0303L21.4697 15.9697Z" fill="#141B34"/>
</svg>
