<svg width="24" height="24" viewBox="0 0 24 24" fill="none" xmlns="http://www.w3.org/2000/svg">
<path d="M10.509 13.5L10.5 13.5" stroke="#141B34" stroke-width="2" stroke-linecap="square" stroke-linejoin="round"/>
<path d="M17.994 3.4945L18.329 2.82346L18.9526 3.13476L18.6878 3.7795L17.994 3.4945ZM20 11L20.425 10.382L20.75 10.6056V11H20ZM20 20H20.75C20.75 20.3067 20.5633 20.5825 20.2785 20.6964L20 20ZM15 22L15.2785 22.6964C14.9492 22.8281 14.5727 22.7111 14.376 22.416L15 22ZM15 2L14.3107 1.70434C14.3921 1.51463 14.548 1.36684 14.7419 1.29581C14.9357 1.22477 15.1502 1.23676 15.3349 1.32895L15 2ZM18.6878 3.7795C18.3973 4.48661 18.2887 5.79155 18.5627 7.14531C18.8356 8.49318 19.4514 9.71245 20.425 10.382L19.575 11.618C18.1572 10.6429 17.4066 8.99423 17.0925 7.44293C16.7797 5.89753 16.8638 4.27206 17.3003 3.20951L18.6878 3.7795ZM20.75 11V20H19.25V11H20.75ZM20.2785 20.6964L15.2785 22.6964L14.7215 21.3036L19.7215 19.3036L20.2785 20.6964ZM15.6892 2.29566L12.6892 9.28933L11.3107 8.69801L14.3107 1.70434L15.6892 2.29566ZM12.624 17.084L15.624 21.584L14.376 22.416L11.3759 17.916L12.624 17.084ZM17.6591 4.16555L14.665 2.67105L15.3349 1.32895L18.329 2.82346L17.6591 4.16555Z" fill="#141B34"/>
<path d="M4.28022 19.3037C3.89565 19.1498 3.45915 19.3368 3.30528 19.7214C3.1514 20.106 3.33841 20.5424 3.72298 20.6963L4.28022 19.3037ZM9.00002 22L8.72148 22.6964C9.06556 22.834 9.45858 22.6997 9.64647 22.3803L9.00002 22ZM9.00002 2L9.68782 1.70096C9.60577 1.51223 9.44977 1.36552 9.25638 1.29517C9.06299 1.22483 8.84919 1.23705 8.66506 1.32895L9.00002 2ZM14 13.5L14.6465 13.8803L14.8401 13.5511L14.6878 13.201L14 13.5ZM6.00598 3.4945L5.67102 2.82346L5.04737 3.13476L5.31224 3.7795L6.00598 3.4945ZM4 11L3.57499 10.382L3.25 10.6056V11H4ZM4 20H3.25C3.25 20.3067 3.43671 20.5825 3.72146 20.6964L4 20ZM3.72298 20.6963L8.7214 22.6963L9.27864 21.3037L4.28022 19.3037L3.72298 20.6963ZM8.31222 2.29904L13.3122 13.799L14.6878 13.201L9.68782 1.70096L8.31222 2.29904ZM13.3535 13.1197L8.35357 21.6197L9.64647 22.3803L14.6465 13.8803L13.3535 13.1197ZM5.31224 3.7795C5.60273 4.48661 5.71133 5.79155 5.43728 7.14531C5.16442 8.49318 4.54858 9.71245 3.57499 10.382L4.42501 11.618C5.84277 10.6429 6.59342 8.99423 6.90746 7.44293C7.22031 5.89753 7.13623 4.27206 6.69972 3.20951L5.31224 3.7795ZM3.25 11V20H4.75V11H3.25ZM3.72146 20.6964L8.72148 22.6964L9.27856 21.3036L4.27854 19.3036L3.72146 20.6964ZM6.34094 4.16555L9.33498 2.67105L8.66506 1.32895L5.67102 2.82346L6.34094 4.16555Z" fill="#141B34"/>
<path d="M9 2L15 2" stroke="#141B34" stroke-width="1.5" stroke-linejoin="round"/>
</svg>
