<svg width="24" height="24" viewBox="0 0 24 24" fill="none" xmlns="http://www.w3.org/2000/svg">
<path d="M17 9.50018L22 6.5V17" stroke="#141B34" stroke-width="1.5" stroke-linejoin="round"/>
<path d="M2 2L22 22" stroke="#141B34" stroke-width="1.5"/>
<path d="M17 4H17.75C17.75 3.58579 17.4142 3.25 17 3.25V4ZM17 20V20.75C17.4142 20.75 17.75 20.4142 17.75 20H17ZM2 4V3.25C1.58579 3.25 1.25 3.58579 1.25 4H2ZM2 20H1.25C1.25 20.4142 1.58579 20.75 2 20.75V20ZM1.25 4V20H2.75V4H1.25ZM17 19.25H2V20.75H17V19.25ZM7.18198 4.75H17V3.25H7.18198V4.75ZM16.25 4V13.818H17.75V4H16.25ZM16.25 16.999V20H17.75V16.999H16.25ZM2 4.75H4.00098V3.25H2V4.75Z" fill="#141B34"/>
</svg>
