<svg width="24" height="24" viewBox="0 0 24 24" fill="none" xmlns="http://www.w3.org/2000/svg">
<path d="M6.54856 4.51817L7.29505 4.5907C7.31514 4.38396 7.24858 4.17814 7.11125 4.0223C6.97392 3.86647 6.7781 3.77456 6.57047 3.76849L6.54856 4.51817ZM10.9949 17.5L10.4319 17.9955L10.8524 18.4732L11.3922 18.1361L10.9949 17.5ZM14.6852 13.7846L15.3829 14.0596L15.704 13.2454L14.8502 13.0529L14.6852 13.7846ZM19.7353 9.17321L19.5053 9.8871C19.898 10.0136 20.319 9.79921 20.4478 9.40731L19.7353 9.17321ZM16.7052 8.19727L15.9649 8.07755C15.9057 8.44336 16.1226 8.79754 16.4753 8.91115L16.7052 8.19727ZM13.6752 8.14847L12.9325 8.25304L13.6752 8.14847ZM20.9995 11.5024L21.7495 11.5023C21.7495 11.09 21.4167 10.7551 21.0044 10.7524L20.9995 11.5024ZM21 14.5563V15.3063C21.1989 15.3063 21.3897 15.2272 21.5304 15.0866C21.671 14.9459 21.75 14.7551 21.75 14.5562L21 14.5563ZM10.5036 22L10.0542 22.6004C10.2903 22.7771 10.608 22.7991 10.8662 22.6565L10.5036 22ZM3.03776 4.41556L3.05967 3.66588C2.65809 3.65414 2.31858 3.96093 2.2897 4.36164L3.03776 4.41556ZM18.0763 14.5563V13.8063H17.6342L17.4201 14.1932L18.0763 14.5563ZM5.80208 4.44564C5.62129 6.30636 5.91693 8.70449 6.67488 11.1117C7.43435 13.5238 8.67502 15.9996 10.4319 17.9955L11.5579 17.0045C9.96846 15.1988 8.81715 12.921 8.10563 10.6612C7.39259 8.39662 7.13823 6.20467 7.29505 4.5907L5.80208 4.44564ZM10.9949 17.5C11.3922 18.1361 11.3923 18.1361 11.3925 18.136C11.3925 18.1359 11.3927 18.1358 11.3928 18.1358C11.393 18.1356 11.3933 18.1355 11.3936 18.1353C11.3942 18.1348 11.3951 18.1343 11.3961 18.1337C11.3981 18.1324 11.4008 18.1307 11.4042 18.1286C11.411 18.1243 11.4205 18.1182 11.4327 18.1104C11.457 18.0949 11.4917 18.0725 11.5355 18.0436C11.6231 17.986 11.7475 17.9025 11.8983 17.7968C12.1992 17.5858 12.6092 17.2838 13.0447 16.9192C13.8844 16.2165 14.9394 15.1846 15.3829 14.0596L13.9875 13.5095C13.6932 14.256 12.903 15.0818 12.082 15.7689C11.6873 16.0993 11.313 16.3752 11.0373 16.5685C10.8998 16.6649 10.7877 16.7401 10.7109 16.7906C10.6726 16.8158 10.6431 16.8349 10.6238 16.8472C10.6141 16.8534 10.607 16.8579 10.6026 16.8607C10.6004 16.8621 10.5989 16.8631 10.598 16.8636C10.5976 16.8639 10.5974 16.864 10.5973 16.8641C10.5973 16.8641 10.5973 16.8641 10.5973 16.8641C10.5973 16.864 10.5974 16.864 10.5974 16.864C10.5975 16.8639 10.5976 16.8639 10.9949 17.5ZM14.6852 13.7846C14.8502 13.0529 14.8506 13.053 14.851 13.0531C14.8511 13.0531 14.8514 13.0532 14.8517 13.0533C14.8521 13.0534 14.8524 13.0534 14.8527 13.0535C14.8533 13.0537 14.8536 13.0537 14.8537 13.0537C14.8538 13.0538 14.8529 13.0536 14.851 13.0531C14.8471 13.0521 14.8392 13.0501 14.8275 13.047C14.8041 13.0408 14.7658 13.0301 14.7146 13.014C14.6121 12.9818 14.4592 12.9286 14.2726 12.8479C13.8981 12.6861 13.3969 12.4177 12.8969 11.995C11.9184 11.1676 10.8901 9.70731 10.8901 7.12372H9.39015C9.39015 10.1762 10.6344 12.0463 11.9284 13.1404C12.5647 13.6784 13.1998 14.0184 13.6775 14.2249C13.917 14.3284 14.1192 14.3992 14.2652 14.4451C14.3383 14.468 14.3976 14.4848 14.4408 14.4963C14.4625 14.5021 14.4801 14.5066 14.4934 14.5098C14.5001 14.5115 14.5056 14.5128 14.5101 14.5139C14.5124 14.5144 14.5143 14.5149 14.516 14.5152C14.5169 14.5154 14.5177 14.5156 14.5184 14.5158C14.5187 14.5159 14.5192 14.516 14.5194 14.516C14.5198 14.5161 14.5203 14.5162 14.6852 13.7846ZM10.8901 7.12372C10.8901 6.19708 11.2171 5.09824 11.967 4.24164C12.6988 3.40573 13.8764 2.75 15.6952 2.75V1.25C13.4739 1.25 11.8741 2.07048 10.8383 3.25361C9.82072 4.41604 9.39015 5.87906 9.39015 7.12372H10.8901ZM15.6952 2.75C16.8414 2.75 17.8922 3.52875 18.5697 4.78891C19.2445 6.04415 19.4546 7.62476 19.0227 8.93912L20.4478 9.40731C21.026 7.64743 20.731 5.64144 19.8908 4.07863C19.0533 2.52074 17.579 1.25 15.6952 1.25V2.75ZM12.9325 8.25304C13.07 9.22904 13.4752 10.0007 14.0778 10.5875C14.6693 11.1636 15.4152 11.5273 16.191 11.7629C17.7202 12.2272 19.5495 12.2429 20.9946 12.2524L21.0044 10.7524C19.5129 10.7426 17.9104 10.7173 16.6268 10.3276C15.9961 10.1361 15.4904 9.86942 15.1243 9.51289C14.7692 9.1671 14.5108 8.70392 14.4179 8.0439L12.9325 8.25304ZM10.9531 21.3996C8.09986 19.2635 6.22285 16.1559 5.0996 12.9891C3.97545 9.81967 3.62851 6.65211 3.78582 4.46947L2.2897 4.36164C2.11653 6.76434 2.49716 10.139 3.68589 13.4905C4.87552 16.8445 6.8967 20.2365 10.0542 22.6004L10.9531 21.3996ZM17.4456 8.31699C17.7541 6.40958 16.6531 5.02051 15.2496 4.90911C14.5614 4.85449 13.8634 5.13291 13.4025 5.75934C12.9509 6.37321 12.7887 7.23137 12.9325 8.25304L14.4179 8.0439C14.3092 7.27227 14.4627 6.84949 14.6107 6.64829C14.7495 6.45966 14.9353 6.38888 15.1309 6.4044C15.4949 6.43329 16.1614 6.86193 15.9649 8.07755L17.4456 8.31699ZM3.01585 5.16524L6.52665 5.26785L6.57047 3.76849L3.05967 3.66588L3.01585 5.16524ZM16.4753 8.91115L19.5053 9.8871L19.9652 8.45933L16.9352 7.48338L16.4753 8.91115ZM20.2495 11.5025L20.25 14.5564L21.75 14.5562L21.7495 11.5023L20.2495 11.5025ZM17.4201 14.1932C16.5266 15.8082 14.1642 19.1217 10.1411 21.3435L10.8662 22.6565C15.2063 20.2598 17.747 16.7008 18.7326 14.9193L17.4201 14.1932ZM21 13.8063H18.0763V15.3063H21V13.8063Z" fill="#141B34"/>
</svg>
