<svg width="24" height="24" viewBox="0 0 24 24" fill="none" xmlns="http://www.w3.org/2000/svg">
<path d="M13.9994 6H14.7494C14.7494 5.80109 14.6704 5.61032 14.5298 5.46967C14.3891 5.32902 14.1984 5.25 13.9994 5.25L13.9994 6ZM13.9994 12H13.2494C13.2494 12.2725 13.3972 12.5235 13.6355 12.6558C13.8738 12.788 14.165 12.7806 14.3962 12.6364L13.9994 12ZM10 8H10.75C10.75 7.88357 10.7229 7.76873 10.6708 7.66459L10 8ZM10 12.5L9.58397 13.124L10.75 13.9014V12.5H10ZM18.0094 6V5.25H17.2594V6H18.0094ZM21.9994 6L22.7494 6C22.7494 5.80109 22.6704 5.61032 22.5298 5.46967C22.3891 5.32902 22.1984 5.25 21.9994 5.25V6ZM18.4994 12.9999L17.9691 12.4696L17.3964 13.0422L18.0113 13.5693L18.4994 12.9999ZM21.9994 18V18.75C22.4137 18.75 22.7494 18.4142 22.7494 18H21.9994ZM18.0094 18L17.2986 18.2393L17.4705 18.75H18.0094V18ZM13.9994 14.5541L14.1097 13.8122C13.8939 13.7802 13.6749 13.8437 13.5096 13.9861C13.3444 14.1286 13.2494 14.3359 13.2494 14.5541H13.9994ZM9 6.00002L9 5.25002C8.74006 5.25002 8.49866 5.38461 8.36201 5.60572C8.22536 5.82683 8.21293 6.10294 8.32918 6.33543L9 6.00002ZM6 6L6.73214 5.8373L6.60163 5.25H6V6ZM2 6V5.25C1.58579 5.25 1.25 5.58579 1.25 6H2ZM13.9994 18V18.75H14.7494V18H13.9994ZM13.2494 6V12H14.7494V6H13.2494ZM9.25 8V12.5H10.75V8H9.25ZM13.9994 12C14.3962 12.6364 14.3964 12.6363 14.3967 12.6362C14.3968 12.6361 14.397 12.636 14.3972 12.6358C14.3976 12.6356 14.398 12.6353 14.3985 12.635C14.3995 12.6344 14.4008 12.6336 14.4023 12.6326C14.4053 12.6307 14.4092 12.6282 14.4141 12.6251C14.4239 12.6189 14.4374 12.6102 14.4543 12.5992C14.4883 12.577 14.5361 12.5453 14.5959 12.5043C14.7155 12.4223 14.8832 12.303 15.0832 12.1492C15.4819 11.8427 16.0147 11.3944 16.5499 10.8272C17.6014 9.71281 18.7594 8.03471 18.7594 6H17.2594C17.2594 7.46529 16.4124 8.78719 15.4589 9.7978C14.9916 10.2931 14.522 10.6886 14.1688 10.9601C13.9928 11.0955 13.8473 11.1988 13.7476 11.2672C13.6977 11.3014 13.6594 11.3268 13.6346 11.343C13.6222 11.3511 13.6132 11.3569 13.6078 11.3603C13.6051 11.362 13.6033 11.3632 13.6024 11.3637C13.602 11.364 13.6018 11.3641 13.6018 11.3641C13.6018 11.3641 13.6019 11.364 13.6021 11.3639C13.6021 11.3639 13.6023 11.3638 13.6023 11.3638C13.6025 11.3637 13.6027 11.3636 13.9994 12ZM18.0094 6.75H21.9994V5.25H18.0094V6.75ZM21.2494 6C21.2494 7.52456 20.4755 9.1213 19.6254 10.3964C19.2085 11.0218 18.7905 11.5444 18.4769 11.9102C18.3204 12.0928 18.1908 12.2353 18.1016 12.3309C18.0569 12.3787 18.0225 12.4148 17.9998 12.4382C17.9885 12.4499 17.9801 12.4584 17.9749 12.4637C17.9723 12.4663 17.9705 12.4681 17.9696 12.4691C17.9691 12.4696 17.9688 12.4699 17.9687 12.47C17.9687 12.47 17.9687 12.47 17.9688 12.4699C17.9688 12.4699 17.9689 12.4698 17.9689 12.4698C17.969 12.4697 17.9691 12.4696 18.4994 12.9999C19.0298 13.5302 19.0299 13.5301 19.0301 13.5299C19.0301 13.5299 19.0303 13.5297 19.0304 13.5296C19.0307 13.5293 19.0311 13.5289 19.0314 13.5286C19.0322 13.5278 19.0332 13.5268 19.0344 13.5256C19.0368 13.5232 19.04 13.5199 19.044 13.5158C19.0521 13.5076 19.0634 13.4961 19.0777 13.4813C19.1063 13.4517 19.147 13.4092 19.1981 13.3544C19.3003 13.245 19.4441 13.0867 19.6158 12.8865C19.9584 12.4867 20.4154 11.9156 20.8735 11.2285C21.7734 9.87865 22.7494 7.97544 22.7494 6L21.2494 6ZM18.4994 12.9999C18.0113 13.5693 18.0113 13.5693 18.0112 13.5692C18.0112 13.5692 18.0111 13.5692 18.0111 13.5692C18.0111 13.5691 18.0112 13.5692 18.0112 13.5692C18.0114 13.5694 18.0118 13.5697 18.0124 13.5702C18.0136 13.5713 18.0156 13.573 18.0184 13.5754C18.024 13.5803 18.0327 13.5879 18.0445 13.5982C18.068 13.6187 18.1033 13.6499 18.1487 13.6907C18.2397 13.7724 18.371 13.8924 18.5291 14.043C18.8462 14.345 19.2667 14.7658 19.685 15.2438C20.1057 15.7247 20.5097 16.2472 20.8047 16.7529C21.1089 17.2744 21.2494 17.6979 21.2494 18H22.7494C22.7494 17.3021 22.4525 16.6006 22.1004 15.9971C21.7392 15.3778 21.2682 14.7753 20.8139 14.2561C20.3571 13.7341 19.9027 13.2798 19.5636 12.9568C19.3935 12.7949 19.2514 12.6649 19.1509 12.5747C19.1007 12.5296 19.0608 12.4943 19.033 12.47C19.0191 12.4578 19.0082 12.4483 19.0006 12.4417C18.9968 12.4384 18.9938 12.4358 18.9916 12.4339C18.9905 12.433 18.9896 12.4322 18.9889 12.4316C18.9886 12.4314 18.9883 12.4311 18.9881 12.4309C18.988 12.4308 18.9878 12.4307 18.9878 12.4307C18.9877 12.4306 18.9876 12.4305 18.4994 12.9999ZM21.9994 17.25H18.0094V18.75H21.9994V17.25ZM18.7202 17.7607C18.1409 16.04 16.9843 15.0485 15.9897 14.4963C15.4946 14.2214 15.0358 14.0527 14.6985 13.952C14.5293 13.9015 14.389 13.8676 14.2879 13.8459C14.2373 13.835 14.1963 13.8271 14.1662 13.8217C14.1512 13.819 14.1388 13.8169 14.1294 13.8153C14.1246 13.8146 14.1206 13.8139 14.1173 13.8134C14.1157 13.8132 14.1142 13.8129 14.113 13.8127C14.1123 13.8126 14.1117 13.8126 14.1112 13.8125C14.1109 13.8124 14.1106 13.8124 14.1104 13.8124C14.1101 13.8123 14.1097 13.8122 13.9994 14.5541C13.8892 15.2959 13.8889 15.2959 13.8885 15.2959C13.8885 15.2958 13.8881 15.2958 13.888 15.2958C13.8876 15.2957 13.8873 15.2957 13.887 15.2956C13.8865 15.2955 13.8861 15.2955 13.8859 15.2955C13.8855 15.2954 13.8858 15.2954 13.8868 15.2956C13.8887 15.2959 13.8934 15.2967 13.9006 15.298C13.9149 15.3006 13.9394 15.3052 13.9728 15.3124C14.0396 15.3267 14.1416 15.3511 14.2694 15.3893C14.5262 15.466 14.8805 15.5962 15.2616 15.8078C16.0196 16.2286 16.8679 16.96 17.2986 18.2393L18.7202 17.7607ZM13.9994 5.25L9 5.25002L9 6.75002L13.9994 6.75L13.9994 5.25ZM6 5.25H2V6.75H6V5.25ZM13.9994 17.25C10.0181 17.25 7.2245 15.3884 5.40505 13.0406C3.56429 10.6652 2.75 7.82525 2.75 6H1.25C1.25 8.17475 2.18543 11.3348 4.2194 13.9594C6.27466 16.6116 9.48077 18.75 13.9994 18.75V17.25ZM10 12.5C10.416 11.876 10.4163 11.8761 10.4165 11.8763C10.4166 11.8763 10.4168 11.8765 10.417 11.8766C10.4172 11.8768 10.4175 11.8769 10.4176 11.877C10.418 11.8773 10.4182 11.8774 10.4182 11.8774C10.4182 11.8774 10.4175 11.8769 10.4161 11.876C10.4134 11.8741 10.4079 11.8703 10.3998 11.8646C10.3836 11.8531 10.357 11.8339 10.3214 11.8069C10.25 11.753 10.1421 11.6679 10.0074 11.5509C9.73766 11.3167 9.36149 10.9556 8.95395 10.4607C8.13955 9.47181 7.202 7.95166 6.73214 5.8373L5.26786 6.1627C5.798 8.54834 6.86045 10.2782 7.79605 11.4143C8.26351 11.9819 8.69984 12.4021 9.02386 12.6835C9.18598 12.8242 9.32034 12.9306 9.41692 13.0036C9.46522 13.0401 9.50412 13.0683 9.53236 13.0883C9.54649 13.0983 9.55796 13.1063 9.56661 13.1123C9.57093 13.1152 9.57456 13.1177 9.57746 13.1197C9.57891 13.1206 9.58018 13.1215 9.58126 13.1222C9.58181 13.1226 9.58231 13.1229 9.58276 13.1232C9.58298 13.1234 9.58329 13.1236 9.5834 13.1237C9.58369 13.1239 9.58397 13.124 10 12.5ZM14.7494 18V14.5541H13.2494V18H14.7494ZM8.32918 6.33543L9.32918 8.33541L10.6708 7.66459L9.67082 5.6646L8.32918 6.33543Z" fill="#141B34"/>
</svg>
