<svg width="24" height="24" viewBox="0 0 24 24" fill="none" xmlns="http://www.w3.org/2000/svg">
<path d="M4.56324 5.55783L7.4 7.99976M7.4 7.99976L11 10.9998M7.4 7.99976L4.50512 10.3863M7.4 7.99976L11 4.99976M2 4.49976C2 5.32818 2.67157 5.99976 3.5 5.99976C4.32843 5.99976 5 5.32818 5 4.49976C5 3.67133 4.32843 2.99976 3.5 2.99976C2.67157 2.99976 2 3.67133 2 4.49976ZM2 11.4998C2 12.3282 2.67157 12.9998 3.5 12.9998C4.32843 12.9998 5 12.3282 5 11.4998C5 10.6713 4.32843 9.99976 3.5 9.99976C2.67157 9.99976 2 10.6713 2 11.4998Z" stroke="#141B34" stroke-width="1.5" stroke-linejoin="round"/>
<path d="M8.00037 15.9998L8 12.9998M19 6.9998H22V9.99976M22 17.9999V20.9999H19M11 20.9999H8.00037L8 17.9999M13 20.9999L17 20.9998M22 15.9998V11.9998M17 6.99976H13" stroke="#141B34" stroke-width="1.5" stroke-linejoin="round"/>
</svg>
