<svg width="24" height="24" viewBox="0 0 24 24" fill="none" xmlns="http://www.w3.org/2000/svg">
<path d="M3 3V21L21 21V3H3Z" stroke="#141B34" stroke-width="1.5" stroke-linejoin="round"/>
<path d="M7 6H7.00898M11 6H11.009" stroke="#141B34" stroke-width="1.5" stroke-linecap="square" stroke-linejoin="round"/>
<path d="M3 9H21" stroke="#141B34" stroke-width="1.5" stroke-linejoin="round"/>
<path d="M10.1769 17.0002L10.6771 16.4413L9.55939 15.441L9.0592 15.9998L10.1769 17.0002ZM11.9922 12.75H11.2422V14.25H11.9922V12.75ZM12.0012 14.25H12.7512V12.75H12.0012V14.25ZM11.9922 15.75H11.2422V17.25H11.9922V15.75ZM12.0012 17.25H12.7512V15.75H12.0012V17.25ZM6.25 14.5V15.5H7.75V14.5H6.25ZM6.25 15.5C6.25 16.7426 7.25736 17.75 8.5 17.75V16.25C8.08579 16.25 7.75 15.9142 7.75 15.5H6.25ZM7.75 14.5C7.75 14.0858 8.08579 13.75 8.5 13.75V12.25C7.25736 12.25 6.25 13.2574 6.25 14.5H7.75ZM8.5 13.75C8.72205 13.75 8.9208 13.8455 9.0592 14.0002L10.1769 12.9998C9.76599 12.5407 9.16645 12.25 8.5 12.25V13.75ZM8.5 17.75C9.16645 17.75 9.76599 17.4593 10.1769 17.0002L9.0592 15.9998C8.9208 16.1545 8.72205 16.25 8.5 16.25V17.75ZM14.3292 13.3354L16.3292 17.3354L17.6708 16.6646L15.6708 12.6646L14.3292 13.3354ZM11.9922 14.25H12.0012V12.75H11.9922V14.25ZM11.9922 17.25H12.0012V15.75H11.9922V17.25Z" fill="#141B34"/>
</svg>
