<svg width="24" height="24" viewBox="0 0 24 24" fill="none" xmlns="http://www.w3.org/2000/svg">
<path d="M16 4.5C16 5.32843 15.3284 6 14.5 6C13.6716 6 13 5.32843 13 4.5C13 3.67157 13.6716 3 14.5 3C15.3284 3 16 3.67157 16 4.5Z" stroke="#141B34" stroke-width="1.5"/>
<path d="M5 11.9999L7.03751 8.5L11.5 7L15 8.99993L16.5 12L19 11.4748" stroke="#141B34" stroke-width="1.5" stroke-linejoin="round"/>
<path d="M11.5 7.5L8 14M8 14L10.5 17.5L6.5 21M8 14H11.5M17 18L14 14H11.5M11.5 14L15 9" stroke="#141B34" stroke-width="1.5" stroke-linejoin="round"/>
</svg>
