<svg width="24" height="24" viewBox="0 0 24 24" fill="none" xmlns="http://www.w3.org/2000/svg">
<path d="M8 20.2093L8.28756 19.5167L7.9888 19.3926L7.69356 19.5248L8 20.2093ZM4 22L3.27577 21.8051C3.20053 22.0847 3.29294 22.3826 3.51319 22.5705C3.73343 22.7585 4.04218 22.8028 4.30644 22.6845L4 22ZM5 18.284L5.72423 18.4789L5.84157 18.0429L5.51116 17.7352L5 18.284ZM12 1.25C6.10029 1.25 1.25 5.80369 1.25 11.5H2.75C2.75 6.70371 6.85527 2.75 12 2.75V1.25ZM21.25 11.5C21.25 16.2963 17.1447 20.25 12 20.25V21.75C17.8997 21.75 22.75 17.1963 22.75 11.5H21.25ZM7.71244 20.902C9.02757 21.448 10.4781 21.75 12 21.75V20.25C10.6776 20.25 9.42237 19.9878 8.28756 19.5167L7.71244 20.902ZM7.69356 19.5248L3.69356 21.3155L4.30644 22.6845L8.30644 20.8939L7.69356 19.5248ZM1.25 11.5C1.25 14.3801 2.49634 16.9771 4.48884 18.8328L5.51116 17.7352C3.80106 16.1425 2.75 13.9343 2.75 11.5H1.25ZM4.72423 22.1949L5.72423 18.4789L4.27577 18.0891L3.27577 21.8051L4.72423 22.1949Z" fill="#141B34"/>
<path d="M14.2164 3.2V2.45H13.6293L13.4884 3.01997L14.2164 3.2ZM18 10L17.8502 10.7349L18 10.7655L18.1498 10.7349L18 10ZM21.7836 3.2L22.5116 3.01997L22.3707 2.45H21.7836V3.2ZM18 1.25C17.0559 1.25 16.3234 1.64258 15.7612 1.93427C15.1663 2.24296 14.7428 2.45 14.2164 2.45V3.95C15.1587 3.95 15.8906 3.55704 16.452 3.26573C17.0462 2.95742 17.4712 2.75 18 2.75V1.25ZM18.1498 9.26516C16.8842 9.00715 15.9141 8.28574 15.3411 7.279C14.7656 6.26807 14.5639 4.91943 14.9445 3.38003L13.4884 3.01997C13.0283 4.88057 13.2467 6.63196 14.0375 8.02105C14.8306 9.41434 16.1726 10.3929 17.8502 10.7349L18.1498 9.26516ZM18 2.75C18.532 2.75 18.9578 2.95775 19.5505 3.2656C20.1111 3.5567 20.8418 3.95 21.7836 3.95V2.45C21.2584 2.45 20.8367 2.2433 20.2419 1.9344C19.6793 1.64225 18.9468 1.25 18 1.25V2.75ZM18.1498 10.7349C19.8273 10.3929 21.1694 9.41434 21.9625 8.02105C22.7532 6.63196 22.9717 4.88057 22.5116 3.01997L21.0555 3.38003C21.4361 4.91943 21.2344 6.26806 20.6589 7.279C20.0859 8.28573 19.1158 9.00715 17.8502 9.26516L18.1498 10.7349Z" fill="#141B34"/>
<path d="M11.9955 12H12.0045M8 12H8.00897" stroke="#141B34" stroke-width="2" stroke-linecap="square" stroke-linejoin="round"/>
</svg>
