<svg width="24" height="24" viewBox="0 0 24 24" fill="none" xmlns="http://www.w3.org/2000/svg">
<path d="M7.4 18.3884L7.68756 17.6957L7.3888 17.5717L7.09356 17.7039L7.4 18.3884ZM3.8 20L3.07577 19.8051C3.00053 20.0847 3.09294 20.3826 3.31319 20.5705C3.53343 20.7585 3.84218 20.8028 4.10644 20.6845L3.8 20ZM4.7 16.6556L5.42423 16.8505L5.54157 16.4145L5.21116 16.1068L4.7 16.6556ZM11 1.25C5.65251 1.25 1.25 5.37832 1.25 10.55H2.75C2.75 6.27834 6.40749 2.75 11 2.75V1.25ZM7.09356 17.7039L3.49356 19.3155L4.10644 20.6845L7.70644 19.073L7.09356 17.7039ZM1.25 10.55C1.25 13.1644 2.38147 15.5211 4.18884 17.2044L5.21116 16.1068C3.68619 14.6865 2.75 12.7186 2.75 10.55H1.25ZM4.52423 20.1949L5.42423 16.8505L3.97577 16.4607L3.07577 19.8051L4.52423 20.1949ZM11 2.75C15.0737 2.75 18.4201 5.53265 19.116 9.14199L20.5889 8.85801C19.7493 4.50368 15.7521 1.25 11 1.25V2.75ZM7.11244 19.0811C7.66447 19.3103 8.24287 19.4921 8.84192 19.6212L9.15808 18.1549C8.64809 18.045 8.15634 17.8903 7.68756 17.6957L7.11244 19.0811Z" fill="#141B34"/>
<path d="M20.9 22L20.6815 22.7175C20.9216 22.7906 21.1824 22.7388 21.3763 22.5793C21.5702 22.4199 21.6715 22.174 21.6462 21.9243L20.9 22ZM20.6608 19.642L20.1063 19.137L19.8808 19.3845L19.9146 19.7177L20.6608 19.642ZM18.2291 21.1865L18.4476 20.469L18.2256 20.4014L18.0042 20.471L18.2291 21.1865ZM16.5 11.75C19.1597 11.75 21.25 13.7895 21.25 16.225H22.75C22.75 12.8895 19.9147 10.25 16.5 10.25V11.75ZM10.25 16.225C10.25 19.5605 13.0853 22.2 16.5 22.2V20.7C13.8403 20.7 11.75 18.6605 11.75 16.225H10.25ZM16.5 10.25C13.0853 10.25 10.25 12.8895 10.25 16.225H11.75C11.75 13.7895 13.8403 11.75 16.5 11.75V10.25ZM21.25 16.225C21.25 17.3329 20.823 18.3501 20.1063 19.137L21.2153 20.147C22.1674 19.1016 22.75 17.7299 22.75 16.225H21.25ZM21.6462 21.9243L21.407 19.5663L19.9146 19.7177L20.1538 22.0757L21.6462 21.9243ZM18.0042 20.471C17.5326 20.6193 17.0272 20.7 16.5 20.7V22.2C17.1809 22.2 17.8381 22.0956 18.4541 21.902L18.0042 20.471ZM18.0106 21.904L20.6815 22.7175L21.1185 21.2825L18.4476 20.469L18.0106 21.904Z" fill="#141B34"/>
</svg>
