<svg width="24" height="24" viewBox="0 0 24 24" fill="none" xmlns="http://www.w3.org/2000/svg">
<path d="M12 4H2V22H20V12" stroke="#141B34" stroke-width="1.5" stroke-linejoin="round"/>
<path d="M20 15H14C14 16.6569 12.6569 18 11 18C9.34315 18 8 16.6569 8 15H2" stroke="#141B34" stroke-width="1.5"/>
<path d="M17.5 7L16.9697 7.53033L17.5 8.06066L18.0303 7.53033L17.5 7ZM21.25 6C21.25 7.79493 19.7949 9.25 18 9.25V10.75C20.6234 10.75 22.75 8.62335 22.75 6H21.25ZM18 9.25C16.2051 9.25 14.75 7.79493 14.75 6H13.25C13.25 8.62335 15.3766 10.75 18 10.75V9.25ZM14.75 6C14.75 4.20507 16.2051 2.75 18 2.75V1.25C15.3766 1.25 13.25 3.37665 13.25 6H14.75ZM18 2.75C19.7949 2.75 21.25 4.20507 21.25 6H22.75C22.75 3.37665 20.6234 1.25 18 1.25V2.75ZM15.6983 6.25892L16.9697 7.53033L18.0303 6.46967L16.7589 5.19826L15.6983 6.25892ZM18.0303 7.53033L20.3549 5.20575L19.2942 4.14509L16.9697 6.46967L18.0303 7.53033Z" fill="#141B34"/>
</svg>
