<svg width="24" height="24" viewBox="0 0 24 24" fill="none" xmlns="http://www.w3.org/2000/svg">
<path d="M14.3309 9.02784C14.7272 8.90736 14.9508 8.48843 14.8303 8.09212C14.7098 7.69582 14.2909 7.47222 13.8946 7.5927L14.3309 9.02784ZM13.0001 8.13899L12.6631 8.80908L12.6689 8.8119L13.0001 8.13899ZM9.91308 10.0496L10.2491 9.37903L10.2421 9.37562L9.91308 10.0496ZM7.7772 11.3244C7.48708 11.6201 7.49155 12.0949 7.78719 12.385C8.08283 12.6752 8.55768 12.6707 8.8478 12.3751L7.7772 11.3244ZM13.8946 7.5927C13.8353 7.61071 13.6611 7.62842 13.3313 7.46609L12.6689 8.8119C13.1978 9.07222 13.7794 9.19549 14.3309 9.02784L13.8946 7.5927ZM13.337 7.46893C13.038 7.31857 12.7093 7.22931 12.3671 7.2726C12.0142 7.31723 11.7435 7.49028 11.5471 7.68805C11.3611 7.87533 11.229 8.09664 11.1319 8.28382C11.0347 8.47115 10.9461 8.67853 10.874 8.84154C10.7009 9.23266 10.6009 9.39783 10.5203 9.46238C10.5104 9.47025 10.5082 9.47001 10.5129 9.46819C10.5184 9.46606 10.5208 9.46653 10.5154 9.46673C10.5019 9.46721 10.4216 9.46552 10.2491 9.37906L9.57706 10.7201C9.89757 10.8807 10.2305 10.978 10.5693 10.9658C10.9225 10.953 11.2201 10.8234 11.4573 10.6337C11.8752 10.2993 12.1056 9.7651 12.2457 9.44839C12.3302 9.25748 12.3938 9.10883 12.4634 8.97453C12.5332 8.84007 12.5825 8.77415 12.6114 8.74509C12.6298 8.72653 12.6075 8.75414 12.5553 8.76074C12.5137 8.76601 12.538 8.74612 12.6632 8.80906L13.337 7.46893ZM10.2421 9.37562C9.82055 9.16977 9.3089 9.05047 8.83115 9.31059C8.40163 9.54445 8.22425 9.97612 8.13769 10.2252C8.08812 10.3678 8.0481 10.5153 8.01466 10.6416C7.97893 10.7765 7.95064 10.8873 7.9179 10.9955C7.84727 11.229 7.79475 11.3065 7.7772 11.3244L8.8478 12.3751C9.13814 12.0792 9.27378 11.6938 9.35366 11.4298C9.39618 11.2892 9.43373 11.1425 9.46468 11.0256C9.49794 10.9 9.52546 10.8013 9.55455 10.7176C9.62529 10.5141 9.64966 10.5729 9.54843 10.628C9.39898 10.7094 9.34215 10.6054 9.58402 10.7235L10.2421 9.37562Z" fill="#141B34"/>
<path d="M19 11C19.536 10.4176 20.5 9.62219 21.4626 8.37547C22.1108 7.53594 22.1638 6.35006 21.6693 5.40887C20.7595 3.67758 18.4754 3.55286 17.1607 4.97428C16.8434 5.31729 16.5144 5.65585 16.174 5.98918M6.93327 18.419C6.20617 18.6379 5.48603 18.8181 4.77684 18.9598C3.79101 19.1568 2.82972 18.6144 2.33514 17.6732C1.42537 15.9419 2.46911 13.7062 4.24688 13.1659C4.67588 13.0356 5.10725 12.8918 5.5402 12.7345" stroke="#141B34" stroke-width="1.5" stroke-linecap="round" stroke-linejoin="round"/>
<path d="M12.8354 14.0361L13.2065 14.6878L12.8354 14.0361ZM16.413 11.6724L16.8682 12.2685L16.413 11.6724ZM20.1536 15.1886L20.6376 15.7616V15.7616L20.1536 15.1886ZM8.97062 15.9093L9.25119 16.6048L8.97062 15.9093ZM10.1886 20.8616L10.4348 21.57L10.1886 20.8616ZM7.32052 19.8308L7.96774 19.4519L7.32052 19.8308ZM20.6824 12.2241L20.0351 12.6031L20.6824 12.2241ZM13.2065 14.6878C14.5157 13.9425 15.74 13.1299 16.8682 12.2685L15.9579 11.0763C14.8839 11.8963 13.7158 12.6718 12.4644 13.3843L13.2065 14.6878ZM15.8032 19.1226C17.5803 18.111 19.201 16.9752 20.6376 15.7616L19.6696 14.6157C18.3049 15.7686 16.76 16.8519 15.0611 17.8191L15.8032 19.1226ZM9.25119 16.6048C10.5715 16.0722 11.8972 15.4332 13.2065 14.6878L12.4644 13.3843C11.2129 14.0967 9.94762 14.7065 8.69006 15.2137L9.25119 16.6048ZM10.4348 21.57C12.2184 20.9503 14.026 20.1343 15.8032 19.1226L15.0611 17.8191C13.3621 18.7863 11.638 19.564 9.94248 20.1531L10.4348 21.57ZM9.94248 20.1531C9.15835 20.4256 8.34802 20.1013 7.96774 19.4519L6.67331 20.2098C7.41625 21.4786 8.9756 22.077 10.4348 21.57L9.94248 20.1531ZM8.69006 15.2137C6.76005 15.9922 5.55467 18.2993 6.67331 20.2098L7.96774 19.4519C7.43146 18.536 7.93455 17.1359 9.25119 16.6048L8.69006 15.2137ZM20.6376 15.7616C21.8206 14.7622 22.0747 13.1177 21.3296 11.8451L20.0351 12.6031C20.4133 13.2488 20.2928 14.0892 19.6696 14.6157L20.6376 15.7616ZM16.8682 12.2685C17.9918 11.4106 19.4917 11.675 20.0351 12.6031L21.3296 11.8451C20.2181 9.94686 17.6078 9.81657 15.9579 11.0763L16.8682 12.2685Z" fill="#141B34"/>
<path d="M8.83541 6.03606L9.20646 6.68784L8.83541 6.03606ZM12.413 3.6724L12.8682 4.26852L12.413 3.6724ZM4.97062 7.90927L5.25119 8.60482L4.97062 7.90927ZM3.32052 11.8308L2.67331 12.2098L3.32052 11.8308ZM16.6824 4.22411L16.0351 4.60307V4.60307L16.6824 4.22411ZM16.242 5.23498C16.2839 5.64707 16.652 5.94717 17.064 5.90526C17.4761 5.86336 17.7762 5.49532 17.7343 5.08323L16.242 5.23498ZM4.76442 13.6903C5.17081 13.7704 5.56521 13.506 5.64535 13.0996C5.72549 12.6932 5.46101 12.2988 5.05462 12.2187L4.76442 13.6903ZM9.20646 6.68784C10.5157 5.94249 11.74 5.12989 12.8682 4.26852L11.9579 3.07629C10.8839 3.89632 9.71585 4.67182 8.46436 5.38427L9.20646 6.68784ZM5.25119 8.60482C6.57152 8.07223 7.8972 7.43319 9.20646 6.68784L8.46436 5.38427C7.21287 6.09673 5.94762 6.70646 4.69006 7.21373L5.25119 8.60482ZM4.69006 7.21373C2.76005 7.99225 1.55467 10.2993 2.67331 12.2098L3.96774 11.4519C3.43146 10.536 3.93455 9.13592 5.25119 8.60482L4.69006 7.21373ZM12.8682 4.26852C13.9918 3.41063 15.4917 3.67498 16.0351 4.60307L17.3296 3.84514C16.2181 1.94686 13.6078 1.81657 11.9579 3.07629L12.8682 4.26852ZM17.7343 5.08323C17.6907 4.65406 17.5559 4.23163 17.3296 3.84514L16.0351 4.60307C16.1514 4.80165 16.2198 5.01698 16.242 5.23498L17.7343 5.08323ZM5.05462 12.2187C4.6 12.129 4.20246 11.8527 3.96774 11.4519L2.67331 12.2098C3.13124 12.9919 3.90034 13.5199 4.76442 13.6903L5.05462 12.2187Z" fill="#141B34"/>
</svg>
