<svg width="24" height="24" viewBox="0 0 24 24" fill="none" xmlns="http://www.w3.org/2000/svg">
<path d="M20.0052 12V11V7.5C20.0052 6.67157 19.3337 6 18.5052 6C17.6768 6 17.0052 6.67157 17.0052 7.5V5.5C17.0052 4.67157 16.3337 4 15.5052 4C14.6768 4 14.0052 4.67157 14.0052 5.5V3.5C14.0052 2.67157 13.3337 2 12.5052 2C11.6768 2 11.0052 2.67157 11.0052 3.5V5.5C11.0052 4.67157 10.3337 4 9.50524 4C8.67681 4 8.00524 4.67157 8.00524 5.5V13.5L6.16588 12.0252C5.57284 11.5497 4.77096 11.2649 4.14808 11.7006C4.12705 11.7153 4.10606 11.7305 4.08516 11.7463C3.45039 12.2247 3.57574 13.1407 3.94909 13.8424C3.99981 13.9377 4.05536 14.0292 4.11655 14.1182C4.39113 14.5174 5.24161 15.7554 6.07253 16.9792L6.63614 17.8093C7.27368 18.7483 7.59246 19.2178 7.98291 19.5896C8.66632 20.2403 9.5218 20.6898 10.4523 20.8872C10.9839 21 11.5585 21 12.7079 21C14.761 21 15.7875 21 16.6118 20.7136C18.0609 20.2101 19.2008 19.0908 19.7135 17.668C20.0052 16.8586 20.0052 15.8506 20.0052 13.8347V12Z" fill="white"/>
<path d="M6.63622 17.8093L6.07261 16.9792C5.24168 15.7554 4.3912 14.5174 4.11663 14.1182C4.05544 14.0292 3.99988 13.9377 3.94917 13.8424C3.57582 13.1407 3.45047 12.2247 4.08523 11.7463C4.10614 11.7305 4.12712 11.7153 4.14815 11.7006C4.77104 11.2649 5.57292 11.5497 6.16595 12.0252L8.00532 13.5V7.5L19.1693 18.7451C18.5646 19.6489 17.6708 20.3456 16.6119 20.7136C15.7876 21 14.761 21 12.708 21C11.5586 21 10.9839 21 10.4523 20.8872C9.52187 20.6898 8.6664 20.2403 7.98299 19.5896C7.59254 19.2178 7.27376 18.7483 6.63622 17.8093L6.63622 17.8093Z" fill="#D4D7E0"/>
<path d="M19 18.5C18.4313 19.3861 17.799 20.284 16.8019 20.6679C15.9395 21 14.8562 21 12.6896 21C11.5534 21 10.9853 21 10.4566 20.8834C9.64995 20.7056 8.90001 20.3294 8.27419 19.7888C7.86398 19.4344 7.52311 18.9785 6.84137 18.0667L3.83738 14.0487C3.3758 13.4314 3.38907 12.5789 3.86965 11.9763C4.49772 11.1888 5.66877 11.1237 6.3797 11.8369L8.0011 13.4634V7.5" stroke="#141B34" stroke-width="1.5" stroke-linecap="round" stroke-linejoin="round"/>
<path d="M11.0004 5.5C11.0004 4.67157 10.3288 4 9.50036 4C9.32491 4 9.15649 4.03012 9 4.08548M11.0004 5.5V3.5C11.0004 2.67157 11.6719 2 12.5004 2C13.3288 2 14.0004 2.67157 14.0004 3.5V5.5M11.0004 5.5V6.5011M14.0004 5.5C14.0004 4.67157 14.6719 4 15.5004 4C16.3288 4 17.0004 4.67157 17.0004 5.5V7.5M14.0004 5.5V9.5011M17.0004 7.5C17.0004 6.67157 17.6719 6 18.5004 6C19.3288 6 20.0004 6.67157 20.0004 7.5C19.9984 10.1666 20.0155 12.8335 19.9875 15.5M17.0004 7.5V10" stroke="#141B34" stroke-width="1.5" stroke-linecap="round" stroke-linejoin="round"/>
<path d="M2.5 2L22.5 22" stroke="#141B34" stroke-width="1.5" stroke-linecap="round"/>
</svg>
