<svg width="24" height="24" viewBox="0 0 24 24" fill="none" xmlns="http://www.w3.org/2000/svg">
<path d="M6.70235 13.1632L8.71072 14.896V6.13446C8.71072 5.21883 9.44813 4.47656 10.3578 4.47656C11.2674 4.47656 12.0048 5.21883 12.0048 6.13446V10.6329L14.817 11.0853C16.6321 11.3594 17.5397 11.4964 18.179 11.8819C19.235 12.5187 20 13.475 20 14.871C20 15.8434 19.7612 16.4957 19.1808 18.2485C18.8125 19.3606 18.6284 19.9167 18.3281 20.3569C17.8337 21.0816 17.1043 21.6108 16.2649 21.8537C15.7551 22.0013 15.1728 22.0013 14.0081 22.0013H13.0209C11.4725 22.0013 10.6983 22.0013 10.0091 21.7153C9.88545 21.664 9.76465 21.6062 9.64717 21.5419C8.99204 21.1838 8.50384 20.579 7.52744 19.3694L4.3665 15.4534C3.88077 14.8516 3.87753 13.9904 4.35872 13.385C4.93708 12.6573 5.99941 12.5568 6.70235 13.1632Z" fill="#D4D7E0"/>
<path d="M6.70235 13.1617L8.71072 14.8945V6.15789C8.71072 5.24227 9.44813 4.5 10.3578 4.5C11.2674 4.5 12.0048 5.24226 12.0048 6.15789V10.6314L14.817 11.0838C16.6321 11.3579 17.5397 11.4949 18.179 11.8804C19.235 12.5172 20 13.4735 20 14.8695C20 15.8419 19.7612 16.4942 19.1808 18.247C18.8125 19.3591 18.6284 19.9152 18.3281 20.3554C17.8337 21.0801 17.1043 21.6093 16.2649 21.8522C15.7551 21.9998 15.1728 21.9998 14.0081 21.9998H13.0209C11.4725 21.9998 10.6983 21.9998 10.0091 21.7138C9.88545 21.6625 9.76465 21.6046 9.64717 21.5404C8.99204 21.1823 8.50384 20.5775 7.52744 19.3679L4.3665 15.4519C3.88077 14.8501 3.87753 13.9889 4.35872 13.3835C4.93708 12.6557 5.99941 12.5552 6.70235 13.1617Z" stroke="#141B34" stroke-width="1.5" stroke-linecap="round" stroke-linejoin="round"/>
<path d="M14.3164 6C14.3164 3.79086 12.5255 2 10.3164 2C8.10727 2 6.31641 3.79086 6.31641 6" stroke="#141B34" stroke-width="1.5" stroke-linecap="round" stroke-linejoin="round"/>
</svg>
