<svg width="24" height="24" viewBox="0 0 24 24" fill="none" xmlns="http://www.w3.org/2000/svg">
<path opacity="0.4" d="M3.25 4C3.25 2.48122 4.48122 1.25 6 1.25C7.51878 1.25 8.75 2.48122 8.75 4V14C8.75 15.7949 10.2051 17.25 12 17.25C13.7949 17.25 15.25 15.7949 15.25 14C15.25 13.1175 14.9763 12.4468 14.5216 11.9513C14.059 11.4472 13.3578 11.0698 12.4186 10.8815C11.3115 10.6595 10.25 9.74192 10.25 8.42476C10.25 6.75418 11.6452 5.1935 13.4841 5.52203C15.6808 5.91444 17.5088 6.85685 18.7883 8.32168C20.0707 9.78998 20.75 11.724 20.75 14C20.75 18.8325 16.8325 22.75 12 22.75C7.16751 22.75 3.25 18.8325 3.25 14V4Z" fill="#141B34"/>
<path d="M9.25337 15.7374C9.82957 16.6463 10.8445 17.2496 12.0002 17.2496C13.7952 17.2496 15.2502 15.7945 15.2502 13.9996C15.2502 13.1171 14.9766 12.4464 14.5218 11.9509C14.0592 11.4468 13.358 11.0694 12.4189 10.8811C11.3117 10.6591 10.2502 9.74153 10.2502 8.42436C10.2502 6.75379 11.6454 5.19311 13.4844 5.52163C15.681 5.91405 17.5091 6.85646 18.7885 8.32128C20.071 9.78959 20.7502 11.7236 20.7502 13.9996C20.7502 18.8321 16.8327 22.7496 12.0002 22.7496C8.43589 22.7496 5.36931 20.6184 4.00531 17.5607C3.18031 15.7114 5 13.9996 7.00015 14C8.01267 14 8.71123 14.8822 9.25337 15.7374Z" fill="#141B34"/>
</svg>
