<svg width="24" height="24" viewBox="0 0 24 24" fill="none" xmlns="http://www.w3.org/2000/svg">
<path opacity="0.4" d="M9.5242 3.71682C10.1995 2.86616 10.9644 2.25 12.0001 2.25C13.0359 2.25 13.8007 2.86616 14.4761 3.71682C15.1373 4.54969 15.8405 5.77236 16.7193 7.30051L20.5433 13.9497C21.3774 15.4001 22.0475 16.5651 22.4145 17.508C22.7897 18.4718 22.932 19.4123 22.4077 20.2729C21.8893 21.1242 20.9878 21.4533 19.9458 21.6027C18.9192 21.75 17.5432 21.75 15.8212 21.75H15.8211H8.17907H8.17904C6.45698 21.75 5.08109 21.75 4.05447 21.6027C3.01252 21.4533 2.11103 21.1242 1.59254 20.2729C1.0683 19.4123 1.21063 18.4718 1.58581 17.508C1.9528 16.5651 2.62288 15.4 3.45704 13.9496L7.281 7.30052C8.15983 5.77234 8.86296 4.5497 9.5242 3.71682Z" fill="#141B34"/>
<path d="M11.9999 11C11.3786 11 11.068 11 10.8229 11.0761C10.0029 11.3309 9.99986 11.9298 9.99986 12.5V14.4735C9.99986 14.8845 9.99986 15.09 9.8764 15.1411C9.75293 15.1923 9.60763 15.047 9.31702 14.7564L8.53033 13.9697C8.23744 13.6768 7.76256 13.6768 7.46967 13.9697C7.17678 14.2626 7.17678 14.7374 7.46967 15.0303L9.41362 16.9731C9.70287 17.2621 9.8475 17.4067 9.92368 17.5905C9.99986 17.7743 9.99986 17.9788 9.99986 18.3877V21.75H13.9999V20.3879C13.9999 19.979 13.9999 19.7746 14.076 19.5907C14.1522 19.4069 14.2968 19.2624 14.586 18.9733L17.0303 16.5303C17.3232 16.2374 17.3232 15.7626 17.0303 15.4697C16.7374 15.1768 16.2626 15.1768 15.9697 15.4697L14.6827 16.7566C14.3921 17.0472 14.2468 17.1926 14.1233 17.1414C13.9999 17.0903 13.9999 16.8848 13.9999 16.4738V15.8079C13.9999 15.6852 13.9999 15.6238 14.0227 15.5686C14.0456 15.5135 14.089 15.4701 14.1758 15.3834L15.5303 14.0303C15.8232 13.7374 15.8232 13.2626 15.5303 12.9697C15.2374 12.6768 14.7626 12.6768 14.4697 12.9697L13.9998 13.3851V12.4395C13.9986 11.888 13.9679 11.3219 13.1768 11.0761C12.9317 11 12.6211 11 11.9999 11Z" fill="#141B34"/>
</svg>
