<svg width="24" height="24" viewBox="0 0 24 24" fill="none" xmlns="http://www.w3.org/2000/svg">
<path opacity="0.4" d="M3.24902 5.7C3.24902 3.72221 5.00433 2.25 6.99915 2.25C8.99397 2.25 10.7493 3.72222 10.7493 5.7V7.80375L13.9491 3.69102C15.1496 2.14808 17.4546 1.80496 19.1193 2.854C20.8266 3.92985 21.2888 6.11482 20.0481 7.70944L16.7099 12L20.0481 16.2906C21.2888 17.8852 20.8266 20.0702 19.1193 21.146C17.4546 22.195 15.1496 21.8519 13.9491 20.309L10.7493 16.1962V18.3C10.7493 20.2778 8.99397 21.75 6.99915 21.75C5.00433 21.75 3.24902 20.2778 3.24902 18.3V5.7Z" fill="#141B34"/>
<path d="M3.24902 5.7C3.24902 3.72221 5.00433 2.25 6.99915 2.25C8.99397 2.25 10.7493 3.72222 10.7493 5.7V18.3C10.7493 20.2778 8.99397 21.75 6.99915 21.75C5.00433 21.75 3.24902 20.2778 3.24902 18.3V5.7Z" fill="#141B34"/>
</svg>
