<svg width="24" height="24" viewBox="0 0 24 24" fill="none" xmlns="http://www.w3.org/2000/svg">
<path opacity="0.4" d="M12.7498 2.2508C12.7498 2.66501 12.414 3.0008 11.9998 3.0008C11.5856 3.0008 11.2498 2.66501 11.2498 2.2508V1.8122C11.2498 1.52253 11.004 1.2924 10.7164 1.32662C5.8052 1.9109 1.90992 5.80618 1.32565 10.7174C1.29143 11.005 1.52155 11.2508 1.81122 11.2508H2.25019C2.6644 11.2508 3.00019 11.5866 3.00019 12.0008C3.00019 12.415 2.6644 12.7508 2.25019 12.7508H1.81122C1.52155 12.7508 1.29142 12.9966 1.32565 13.2842C1.90992 18.1954 5.8052 22.0907 10.7164 22.675C11.004 22.7092 11.2498 22.4791 11.2498 22.1894V21.7508C11.2498 21.3366 11.5856 21.0008 11.9998 21.0008C12.414 21.0008 12.7498 21.3366 12.7498 21.7508V22.1894C12.7498 22.4791 12.9956 22.7092 13.2833 22.675C18.1945 22.0907 22.0897 18.1954 22.674 13.2842C22.7082 12.9966 22.4781 12.7508 22.1884 12.7508H21.7502C21.336 12.7508 21.0002 12.415 21.0002 12.0008C21.0002 11.5866 21.336 11.2508 21.7502 11.2508H22.1884C22.4781 11.2508 22.7082 11.005 22.674 10.7174C22.0897 5.80618 18.1945 1.9109 13.2833 1.32662C12.9956 1.2924 12.7498 1.52253 12.7498 1.8122V2.2508Z" fill="#141B34"/>
<path d="M8.43841 17.0209C8.28525 17.0866 8.10459 17.1642 7.94988 17.2063C7.81822 17.2421 7.36572 17.3516 7.00722 16.9931C6.64873 16.6346 6.75817 16.1821 6.794 16.0504C6.83611 15.8957 6.91367 15.7151 6.97943 15.5619L8.60253 11.7746C8.73993 11.4535 8.86302 11.1659 8.98657 10.9066C9.12574 10.6146 9.50511 10.5669 9.73386 10.7956L13.2047 14.2664C13.4334 14.4952 13.3857 14.8746 13.0937 15.0137C12.8344 15.1373 12.5468 15.2604 12.2257 15.3978L8.43841 17.0209Z" fill="#141B34"/>
<path d="M16.0492 6.79498C16.1808 6.75915 16.6333 6.64971 16.9918 7.0082C17.3503 7.3667 17.2409 7.8192 17.2051 7.95086C17.163 8.10556 17.0854 8.28624 17.0196 8.43939L15.3965 12.2267C15.2592 12.5477 15.1361 12.8352 15.0126 13.0945C14.8734 13.3865 14.494 13.4343 14.2653 13.2055L10.7945 9.73477C10.5658 9.50601 10.6135 9.12664 10.9056 8.98747C11.1648 8.86395 11.4524 8.74088 11.7733 8.60351L15.5607 6.98041C15.7138 6.91465 15.8945 6.83708 16.0492 6.79498Z" fill="#141B34"/>
</svg>
