<svg width="24" height="24" viewBox="0 0 24 24" fill="none" xmlns="http://www.w3.org/2000/svg">
<path fill-rule="evenodd" clip-rule="evenodd" d="M1.29289 1.29289C1.68342 0.902369 2.31658 0.902369 2.70711 1.29289L22.7071 21.2929C23.0976 21.6834 23.0976 22.3166 22.7071 22.7071C22.3166 23.0976 21.6834 23.0976 21.2929 22.7071L1.29289 2.70711C0.902369 2.31658 0.902369 1.68342 1.29289 1.29289Z" fill="#141B34"/>
<path d="M2.25 10.9258C2.25 13.6482 3.40187 15.9241 5.01689 17.8025C6.62496 19.6728 8.71834 21.1812 10.6782 22.3944L10.6911 22.4024L10.7043 22.4098C11.0996 22.6329 11.546 22.75 12 22.75C12.454 22.75 12.9004 22.6329 13.2957 22.4098L13.3072 22.4033L13.3185 22.3964C14.9088 21.4233 16.5819 20.2479 18.0139 18.842C18.2079 18.6515 18.305 18.5563 18.3055 18.4312C18.3061 18.3061 18.2077 18.2077 18.0108 18.0109L14.6393 14.6393C14.4757 14.4757 14.3939 14.3939 14.2966 14.3791C14.1993 14.3643 14.0845 14.4244 13.8551 14.5447C13.3006 14.8355 12.6695 15 12 15C9.79086 15 8 13.2092 8 11C8 10.3305 8.16449 9.69938 8.45528 9.1449C8.57559 8.91548 8.63575 8.80077 8.62092 8.70344C8.60609 8.60611 8.52429 8.52431 8.36069 8.36071L5.09071 5.09073C4.87547 4.87549 4.76785 4.76787 4.63207 4.77689C4.49628 4.78591 4.40761 4.90188 4.23028 5.13382C2.99294 6.75214 2.25 8.75954 2.25 10.9258Z" fill="#141B34"/>
<path opacity="0.4" d="M21.751 10.9258C21.751 5.60954 17.2765 1.25 12.001 1.25C10.2375 1.25 8.5636 1.73712 7.11637 2.58426C6.83646 2.74811 6.6965 2.83003 6.6777 2.97621C6.6589 3.12239 6.77848 3.24197 7.01764 3.48113L10.4776 6.94111C10.6008 7.06426 10.6623 7.12584 10.737 7.14721C10.8116 7.16859 10.9064 7.14667 11.0959 7.10283C11.3867 7.03556 11.6897 7 12.001 7C14.2101 7 16.001 8.79086 16.001 11C16.001 11.3113 15.9654 11.6143 15.8981 11.9051C15.8543 12.0946 15.8324 12.1894 15.8538 12.264C15.8751 12.3386 15.9367 12.4002 16.0599 12.5234L19.4836 15.9471C19.7261 16.1896 19.8474 16.3109 19.994 16.2916C20.1406 16.2723 20.2235 16.129 20.3891 15.8424C21.2266 14.3937 21.751 12.7582 21.751 10.9258Z" fill="#141B34"/>
</svg>
