<svg width="24" height="24" viewBox="0 0 24 24" fill="none" xmlns="http://www.w3.org/2000/svg">
<path opacity="0.4" d="M2.25 10.9258C2.25 5.60954 6.72451 1.25 12 1.25C17.2755 1.25 21.75 5.60954 21.75 10.9258C21.75 13.6392 20.6003 15.9206 18.9866 17.8038C17.3793 19.6796 15.2855 21.1928 13.3185 22.3964L13.3072 22.4033L13.2957 22.4098C12.9004 22.6329 12.454 22.75 12 22.75C11.546 22.75 11.0996 22.6329 10.7043 22.4098L10.6911 22.4024L10.6782 22.3944C8.71834 21.1811 6.62496 19.6728 5.01689 17.8025C3.40187 15.9241 2.25 13.6482 2.25 10.9258Z" fill="#141B34"/>
<path d="M12.7774 7.15086L13.5693 8.74777C13.6773 8.97007 13.9653 9.18329 14.2083 9.22412L15.6436 9.46457C16.5615 9.61881 16.7775 10.2902 16.1161 10.9526L15.0002 12.0777C14.8112 12.2682 14.7077 12.6357 14.7662 12.8988L15.0857 14.2916C15.3377 15.394 14.7572 15.8205 13.7898 15.2443L12.4445 14.4413C12.2015 14.2961 11.801 14.2961 11.5536 14.4413L10.2082 15.2443C9.24533 15.8205 8.66039 15.3895 8.91236 14.2916L9.23183 12.8988C9.29032 12.6357 9.18683 12.2682 8.99785 12.0777L7.88198 10.9526C7.22505 10.2902 7.43653 9.61881 8.35443 9.46457L9.78977 9.22412C10.0282 9.18329 10.3162 8.97007 10.4242 8.74777L11.2161 7.15086C11.6481 6.28435 12.35 6.28435 12.7774 7.15086Z" fill="#141B34"/>
</svg>
