<svg width="24" height="24" viewBox="0 0 24 24" fill="none" xmlns="http://www.w3.org/2000/svg">
<g opacity="0.4">
<path d="M17.4982 21.4024C20.6433 19.4936 22.75 15.9971 22.75 11.9998C22.75 8.00257 20.6433 4.50603 17.4982 2.5973C17.1423 2.38128 16.9643 2.27327 16.8573 2.28907C16.7363 2.30695 16.6379 2.39695 16.6094 2.51587C16.5842 2.62106 16.6856 2.8275 16.8885 3.24038C18.0124 5.52794 18.6824 8.62612 18.6824 11.9998C18.6824 15.3735 18.0124 18.4717 16.8885 20.7593C16.6856 21.1722 16.5842 21.3786 16.6094 21.4838C16.6379 21.6027 16.7363 21.6927 16.8573 21.7106C16.9643 21.7264 17.1423 21.6184 17.4982 21.4024Z" fill="#141B34"/>
<path d="M5.31757 11.9998C5.31757 8.62612 5.98759 5.52795 7.11153 3.24038C7.31439 2.8275 7.41583 2.62106 7.39059 2.51587C7.36206 2.39695 7.2637 2.30695 7.14271 2.28907C7.0357 2.27327 6.85772 2.38128 6.50177 2.5973C3.35667 4.50603 1.25 8.00257 1.25 11.9998C1.25 15.9971 3.35667 19.4936 6.50178 21.4024C6.85772 21.6184 7.0357 21.7264 7.14271 21.7106C7.26369 21.6927 7.36206 21.6027 7.39059 21.4838C7.41582 21.3786 7.31439 21.1722 7.11153 20.7593C5.98759 18.4717 5.31757 15.3735 5.31757 11.9998Z" fill="#141B34"/>
<path d="M10.3572 1.7325C9.76822 2.21887 9.18985 2.9772 8.67074 4.03375C7.69159 6.02662 7.06081 8.84181 7.06081 11.9998C7.06081 15.1579 7.69159 17.973 8.67074 19.9659C9.18985 21.0225 9.76822 21.7808 10.3572 22.2672C10.6418 22.5021 10.7841 22.6196 10.9562 22.5385C11.1284 22.4574 11.1284 22.2506 11.1284 21.8369V2.16277C11.1284 1.74907 11.1284 1.54222 10.9562 1.46112C10.7841 1.38002 10.6418 1.49752 10.3572 1.7325Z" fill="#141B34"/>
<path d="M12.8716 2.16277V21.8369C12.8716 22.2506 12.8716 22.4574 13.0438 22.5385C13.2159 22.6196 13.3582 22.5021 13.6428 22.2672C14.2318 21.7808 14.8102 21.0225 15.3293 19.9659C16.3084 17.973 16.9392 15.1579 16.9392 11.9998C16.9392 8.84181 16.3084 6.02662 15.3293 4.03375C14.8102 2.9772 14.2318 2.21887 13.6428 1.7325C13.3582 1.49752 13.2159 1.38002 13.0438 1.46112C12.8716 1.54222 12.8716 1.74907 12.8716 2.16277Z" fill="#141B34"/>
</g>
<path d="M10.357 1.7325C9.76795 2.21887 9.18958 2.9772 8.67047 4.03375C7.69132 6.02662 7.06055 8.84181 7.06055 11.9998C7.06055 15.1579 7.69132 17.973 8.67047 19.9659C9.18958 21.0225 9.76795 21.7808 10.357 22.2672C10.6415 22.5021 10.7838 22.6196 10.956 22.5385C11.1281 22.4574 11.1281 22.2506 11.1281 21.8369V2.16277C11.1281 1.74907 11.1281 1.54222 10.956 1.46112C10.7838 1.38002 10.6415 1.49752 10.357 1.7325Z" fill="#141B34"/>
<path d="M12.8714 2.16277V21.8369C12.8714 22.2506 12.8714 22.4574 13.0435 22.5385C13.2156 22.6196 13.3579 22.5021 13.6425 22.2672C14.2315 21.7808 14.8099 21.0225 15.329 19.9659C16.3082 17.973 16.9389 15.1579 16.9389 11.9998C16.9389 8.84181 16.3082 6.02662 15.329 4.03375C14.8099 2.9772 14.2315 2.21887 13.6425 1.7325C13.3579 1.49752 13.2156 1.38002 13.0435 1.46112C12.8714 1.54222 12.8714 1.74907 12.8714 2.16277Z" fill="#141B34"/>
</svg>
