<svg width="24" height="24" viewBox="0 0 24 24" fill="none" xmlns="http://www.w3.org/2000/svg">
<path d="M3.61675 4.19491L3.98221 3.98291L7.24805 7.24875L7.24805 18.3948C7.24805 18.584 7.24805 18.6786 7.20428 18.7504C7.16052 18.8223 7.07 18.8691 6.88896 18.9626C6.65264 19.0847 6.39939 19.2317 6.11627 19.3959C5.49724 19.755 4.92546 20.0867 4.49955 20.279C4.06875 20.4735 3.6014 20.6214 3.10829 20.5334C2.57493 20.4382 2.09607 20.1517 1.75638 19.7303C1.4448 19.3437 1.34131 18.8654 1.29444 18.3893C1.24802 17.9179 1.24803 17.315 1.24805 16.5859V8.34678C1.24803 7.79564 1.24802 7.32931 1.28551 6.94293C1.32532 6.53264 1.41145 6.154 1.61803 5.79139C1.8251 5.42791 2.10653 5.1624 2.43888 4.92241C2.75051 4.69738 3.14867 4.46642 3.61675 4.19491Z" fill="#141B34"/>
<path d="M8.79574 18.6442C8.74805 18.5701 8.74805 18.4688 8.74805 18.2662L8.74805 8.74875L14.2481 14.2488V20.9192C14.2481 21.1334 14.0273 21.2729 13.8356 21.1774L10.0217 19.281C9.64284 19.0927 9.36206 18.9547 9.1408 18.8538C8.94256 18.7635 8.84344 18.7184 8.79574 18.6442Z" fill="#141B34"/>
<path d="M15.8576 21.6678C15.7971 21.6679 15.7481 21.6188 15.7481 21.5583V15.7488L21.3037 21.3044C20.994 21.4532 20.6546 21.5365 20.2947 21.586C19.6988 21.6679 18.9487 21.6678 18.051 21.6678L15.8576 21.6678Z" fill="#141B34"/>
<g opacity="0.4">
<path d="M7.13404 2.45802C7.24989 2.5481 7.24989 2.71187 7.24989 3.0394V3.71284L6.23828 2.70123C6.34401 2.64711 6.44609 2.59708 6.54498 2.55141C6.81988 2.42445 6.95733 2.36097 7.08768 2.42837C7.1027 2.43614 7.12069 2.44764 7.13404 2.45802Z" fill="#141B34"/>
<path d="M14.2049 4.81795C14.2499 4.89055 14.2499 4.98097 14.2499 5.16182L14.2499 10.7128L8.74989 5.21284V2.97647C8.74989 2.63848 8.74989 2.46949 8.87511 2.37973L8.88532 2.37272C9.01414 2.28821 9.16016 2.34455 9.45221 2.45723C9.92542 2.63981 10.4735 2.91233 11.1425 3.24498L13.917 4.62457C14.079 4.70509 14.1599 4.74535 14.2049 4.81795Z" fill="#141B34"/>
<path d="M15.7499 5.42167C15.7499 5.32714 15.8267 5.2506 15.9212 5.2506L18.0528 5.2506C18.9505 5.25057 19.7007 5.25054 20.2965 5.33242C20.9274 5.41911 21.4954 5.61 21.9502 6.07481C22.4027 6.53734 22.5865 7.11123 22.6703 7.74811C22.7499 8.35384 22.7499 9.11771 22.7499 10.0377V16.8804C22.7499 17.7839 22.7499 18.5369 22.6744 19.1374L15.7499 12.2128L15.7499 5.42167Z" fill="#141B34"/>
</g>
<path fill-rule="evenodd" clip-rule="evenodd" d="M1.29289 1.29289C1.68342 0.902369 2.31658 0.902369 2.70711 1.29289L22.7071 21.2929C23.0976 21.6834 23.0976 22.3166 22.7071 22.7071C22.3166 23.0976 21.6834 23.0976 21.2929 22.7071L1.29289 2.70711C0.902369 2.31658 0.902369 1.68342 1.29289 1.29289Z" fill="#141B34"/>
</svg>
