<svg width="24" height="24" viewBox="0 0 24 24" fill="none" xmlns="http://www.w3.org/2000/svg">
<path d="M11.3571 16.5C11.6146 16.2839 11.9094 16.1144 12.2227 16.0102C14.25 15.375 13.125 13.8564 14.9637 13.2574C16.3826 12.7952 15.9474 12.0154 16.5 11.3571M10.0714 13.9285C10.2696 13.7716 10.5064 13.6601 10.7675 13.6081C11.843 13.4032 11.6797 11.7612 12.8218 11.5421C13.6076 11.3832 13.5198 10.5877 13.9285 10.0714M7.5 12.6429C7.73674 12.3485 8.05224 12.2572 8.36559 12.1531C10.3125 11.4375 9.1875 9.75 11.1065 9.40027C12.5625 9.1875 12 8.0625 12.6429 7.5" stroke="#141B34" stroke-width="1.5"/>
<path d="M15 9L14.2724 9.1819C14.3396 9.45062 14.5494 9.66043 14.8181 9.72761L15 9ZM20.9464 7.97036L21.4767 7.44002L20.9464 7.97036ZM19 10L18.8181 10.7276C19.0791 10.7929 19.3551 10.7133 19.5413 10.5191L19 10ZM16.0296 3.05359L16.56 2.52326L16.0296 3.05359ZM14 5L13.4809 4.45869C13.2867 4.64491 13.2071 4.92088 13.2724 5.1819L14 5ZM22.5303 8.49362L21.4767 7.44002L20.4161 8.50069L21.4697 9.55428L22.5303 8.49362ZM14.8181 9.72761L18.8181 10.7276L19.1819 9.27239L15.1819 8.27239L14.8181 9.72761ZM20.4051 7.45124L18.4587 9.48089L19.5413 10.5191L21.4877 8.48947L20.4051 7.45124ZM21.4767 7.44002L16.56 2.52326L15.4993 3.58392L20.4161 8.50069L21.4767 7.44002ZM16.56 2.52326L15.5064 1.46967L14.4457 2.53033L15.4993 3.58392L16.56 2.52326ZM13.2724 5.1819L14.2724 9.1819L15.7276 8.8181L14.7276 4.8181L13.2724 5.1819ZM15.5105 2.51228L13.4809 4.45869L14.5191 5.54131L16.5488 3.59491L15.5105 2.51228Z" fill="#141B34"/>
<path d="M9 15L9.72761 14.8181C9.66043 14.5494 9.45062 14.3396 9.1819 14.2724L9 15ZM5 14L5.1819 13.2724C4.92088 13.2071 4.64491 13.2867 4.45869 13.4809L5 14ZM7.97035 20.9464L7.44002 21.4767L7.44002 21.4767L7.97035 20.9464ZM10 19L10.5191 19.5413C10.7133 19.3551 10.7929 19.0791 10.7276 18.8181L10 19ZM1.46967 15.5064L2.52326 16.56L3.58392 15.4993L2.53033 14.4457L1.46967 15.5064ZM9.1819 14.2724L5.1819 13.2724L4.8181 14.7276L8.8181 15.7276L9.1819 14.2724ZM3.59491 16.5488L5.54131 14.5191L4.45869 13.4809L2.51228 15.5105L3.59491 16.5488ZM2.52326 16.56L7.44002 21.4767L8.50068 20.4161L3.58392 15.4993L2.52326 16.56ZM7.44002 21.4767L8.49362 22.5303L9.55428 21.4697L8.50068 20.4161L7.44002 21.4767ZM10.7276 18.8181L9.72761 14.8181L8.27239 15.1819L9.27239 19.1819L10.7276 18.8181ZM8.48947 21.4877L10.5191 19.5413L9.48089 18.4587L7.45124 20.4051L8.48947 21.4877Z" fill="#141B34"/>
</svg>
