<svg width="24" height="24" viewBox="0 0 24 24" fill="none" xmlns="http://www.w3.org/2000/svg">
<path d="M17 4.5C17 5.32843 16.3284 6 15.5 6C14.6716 6 14 5.32843 14 4.5C14 3.67157 14.6716 3 15.5 3C16.3284 3 17 3.67157 17 4.5Z" stroke="#141B34" stroke-width="1.5" stroke-linejoin="round"/>
<path d="M15 21.0012L14.3359 18.3853C14.1161 17.5195 13.6615 16.7288 13.0207 16.0978L11.5 14.6003M6 11.1538C7 9.18407 8.53767 8.0427 12 8.00176M12 8.00176L14 8.00098C14 8.00098 14.3597 8.79767 15 9.27783M12 8.00176L10.7309 9.95996C10.0332 11.0366 9.68429 11.5749 9.67069 12.1401C9.66463 12.3918 9.70617 12.6424 9.79313 12.8788C9.98834 13.4094 10.4922 13.8063 11.5 14.6003M15 9.27783C16.1547 10.1437 17.9627 10.4925 20 8.19953M15 9.27783L11.5 14.6003" stroke="#141B34" stroke-width="1.5" stroke-linejoin="round"/>
<path d="M4 17.7303L4.67822 17.8916C6.40663 18.3028 8.20324 17.5164 9 16" stroke="#141B34" stroke-width="1.5" stroke-linejoin="round"/>
</svg>
