<svg width="24" height="24" viewBox="0 0 24 24" fill="none" xmlns="http://www.w3.org/2000/svg">
<path d="M18 6.00071H6C4.58579 6.00071 3.00011 6 3.00011 6L3 8.40071V22.0007H21V8.40071V6.00342C21 6.0007 19.4577 6.0007 18.0586 6.00071L18 6.00071Z" fill="#D4D7E0"/>
<path d="M7 17C7 16.0572 7 15.5858 7.29289 15.2929C7.58579 15 8.05719 15 9 15H10C10.9428 15 11.4142 15 11.7071 15.2929C12 15.5858 12 16.0572 12 17V22H7V17Z" fill="white"/>
<path d="M18 2H6C4.58579 2 3.87868 2 3.43934 2.08787C3 2.17574 3 2.31716 3 2.6V6H21V2.6C21 2.31716 21 2.17574 20.5607 2.08787C20.1213 2 19.4142 2 18 2Z" fill="white"/>
<path d="M21 22V5C21 3.58579 21 2.87868 20.5607 2.43934C20.1213 2 19.4142 2 18 2H6C4.58579 2 3.87868 2 3.43934 2.43934C3 2.87868 3 3.58579 3 5V22" stroke="#141B34" stroke-width="1.5" stroke-linecap="round" stroke-linejoin="round"/>
<path d="M7 17C7 16.0572 7 15.5858 7.29289 15.2929C7.58579 15 8.05719 15 9 15H10C10.9428 15 11.4142 15 11.7071 15.2929C12 15.5858 12 16.0572 12 17V22H7V17Z" stroke="#141B34" stroke-width="1.5" stroke-linecap="round" stroke-linejoin="round"/>
<path d="M2 22H22" stroke="#141B34" stroke-width="1.5" stroke-linecap="round" stroke-linejoin="round"/>
<path d="M3 6H21" stroke="#141B34" stroke-width="1.5" stroke-linecap="round" stroke-linejoin="round"/>
<path d="M3 19H7" stroke="#141B34" stroke-width="1.5" stroke-linecap="round" stroke-linejoin="round"/>
<path d="M12 19L21 19" stroke="#141B34" stroke-width="1.5" stroke-linecap="round" stroke-linejoin="round"/>
<path d="M3.5 9H5.5M8.5 9H10.5M13.5 9H15.5M18.5 9H20.5" stroke="#141B34" stroke-width="1.5" stroke-linecap="round" stroke-linejoin="round"/>
</svg>
