<svg width="24" height="24" viewBox="0 0 24 24" fill="none" xmlns="http://www.w3.org/2000/svg">
<path d="M17.7768 9.6488L15.8512 7.72321C14.0357 5.90774 13.128 5 12 5C10.872 5 9.96428 5.90774 8.1488 7.72321L6.22321 9.6488C4.40774 11.4643 3.5 12.372 3.5 13.5C3.5 14.628 4.40773 15.5357 6.22321 17.3512L8.1488 19.2768C9.96428 21.0923 10.872 22 12 22C13.128 22 14.0357 21.0923 15.8512 19.2768L17.7768 17.3512C19.5923 15.5357 20.5 14.628 20.5 13.5C20.5 12.372 19.5923 11.4643 17.7768 9.6488Z" fill="#D4D7E0"/>
<path d="M6.22321 17.3527C4.40773 15.5372 3.5 14.6295 3.5 13.5015C3.5 12.3735 4.40774 11.4658 6.22321 9.6503L7.18601 8.6875L7.25 8.75149L12 13.5015L16.75 8.75149L16.814 8.6875L17.7768 9.6503C19.5923 11.4658 20.5 12.3735 20.5 13.5015C20.5 14.6295 19.5923 15.5372 17.7768 17.3527L16.814 18.3155L16.75 18.2515L12 13.5015L7.25 18.2515L7.18601 18.3155L6.22321 17.3527Z" fill="white"/>
<path d="M17.7768 9.6488L15.8512 7.72321C14.0357 5.90774 13.128 5 12 5C10.872 5 9.96428 5.90774 8.1488 7.72321L6.22321 9.6488C4.40774 11.4643 3.5 12.372 3.5 13.5C3.5 14.628 4.40773 15.5357 6.22321 17.3512L8.1488 19.2768C9.96428 21.0923 10.872 22 12 22C13.128 22 14.0357 21.0923 15.8512 19.2768L17.7768 17.3512C19.5923 15.5357 20.5 14.628 20.5 13.5C20.5 12.372 19.5923 11.4643 17.7768 9.6488Z" stroke="#141B34" stroke-width="1.5" stroke-linecap="round" stroke-linejoin="round"/>
<path d="M16.75 8.75L12 13.5M12 13.5L7.25 18.25M12 13.5L7.25 8.75M12 13.5L16.75 18.25" stroke="#141B34" stroke-width="1.5" stroke-linecap="round" stroke-linejoin="round"/>
<path d="M15 2C12.6 2.24 12 4.3 12 5C11.8333 4.4 11 3.2 9 3.2" stroke="#141B34" stroke-width="1.5" stroke-linecap="round" stroke-linejoin="round"/>
</svg>
