<svg width="24" height="24" viewBox="0 0 24 24" fill="none" xmlns="http://www.w3.org/2000/svg">
<path d="M6.07186 15C-0.345739 7 10.0123 5 12.0001 2C13.9875 5 24.3473 7 17.9267 15V18C17.9267 19.8856 17.9267 20.8284 17.3481 21.4142C16.7695 22 15.8382 22 13.9756 22H10.0236C8.16141 22 7.23029 22 6.65169 21.4144C6.07308 20.8287 6.07289 19.8861 6.07249 18.0009L6.07186 15Z" fill="#D4D7E0"/>
<path d="M10.0218 22H13.9737C15.8363 22 16.7676 22 17.3462 21.4142C17.7496 21.0059 17.8718 20.4241 17.9088 19.4705L17.4981 19C16.4981 18 15.8425 17.0877 14.9643 17.0112C14.8554 17.0017 14.746 16.9982 14.6367 17.0008C13.9054 17.0182 13.2443 17.3942 12.1893 18.1397L11.9981 17.9447C11.2428 17.3721 10.6736 17.0688 10.0397 17.0125C9.91963 17.0019 9.7991 16.998 9.67863 17.0009C8.66702 17.0254 7.99813 18 6.49813 19L6.08203 19.3245C6.11265 20.3656 6.22625 20.9856 6.64982 21.4144C7.22843 22 8.15954 22 10.0218 22Z" fill="white"/>
<path d="M6.07186 15C-0.34574 7 10.0123 5 12.0001 2C13.9875 5 24.3473 7 17.9267 15V18C17.9267 19.8856 17.9267 20.8284 17.3481 21.4142C16.7695 22 15.8382 22 13.9756 22H10.0236C8.16141 22 7.2303 22 6.65169 21.4144C6.07308 20.8287 6.07289 19.8861 6.07249 18.0009L6.07186 15Z" stroke="#141B34" stroke-width="1.5" stroke-linecap="round" stroke-linejoin="round"/>
<path d="M11 19L11.2988 18.7828C12.9134 17.6094 13.7206 17.0227 14.6386 17.0008C14.7479 16.9982 14.8573 17.0017 14.9662 17.0112C15.8444 17.0877 16.5 18 17.5 19" stroke="#141B34" stroke-width="1.5" stroke-linecap="round"/>
<path d="M6.5 19C8 18 8.66888 17.0254 9.6805 17.0009C9.80096 16.998 9.9215 17.0019 10.0415 17.0125C10.6754 17.0688 11.2447 17.3721 12 17.9447" stroke="#141B34" stroke-width="1.5" stroke-linecap="round"/>
<path d="M15 12.4343C14.4347 13.3725 13.406 14 12.2308 14C10.4465 14 9 12.5535 9 10.7692C9 9.594 9.6275 8.56534 10.5657 8" stroke="#141B34" stroke-width="1.5" stroke-linecap="round"/>
<path d="M14 9H14.009" stroke="#141B34" stroke-width="2" stroke-linecap="round" stroke-linejoin="round"/>
</svg>
