<svg width="25" height="24" viewBox="0 0 25 24" fill="none" xmlns="http://www.w3.org/2000/svg">
<path fill-rule="evenodd" clip-rule="evenodd" d="M9.58885 7.34766C8.70146 7.34761 7.9376 7.34757 7.29905 7.43763C6.60335 7.53575 5.98993 7.74738 5.41985 8.2057C4.34956 9.06616 4.11628 10.1316 3.82205 11.4753L3.78719 11.6343C3.50941 12.8973 3.36328 14.2078 3.36328 15.5508C3.36328 16.4743 3.43238 17.3825 3.56591 18.2706L3.59147 18.4414C3.80578 19.8764 3.97615 21.0172 5.07314 21.9615C5.65705 22.4642 6.29773 22.6969 7.0291 22.8046C7.69974 22.9033 8.50612 22.9033 9.44405 22.9032H14.7825C15.7204 22.9033 16.5268 22.9033 17.1975 22.8046C17.9288 22.6969 18.5695 22.4642 19.1534 21.9615C20.2504 21.0172 20.4208 19.8764 20.6351 18.4414L20.6607 18.2706C20.7942 17.3825 20.8633 16.4743 20.8633 15.5508C20.8633 14.2078 20.7172 12.8973 20.4394 11.6343L20.4045 11.4753C20.1103 10.1316 19.877 9.06616 18.8067 8.2057C18.2366 7.74738 17.6232 7.53575 16.9275 7.43763C16.289 7.34757 15.5251 7.34761 14.6377 7.34766H9.58885ZM6.63781 9.72101C6.86818 9.5358 7.12526 9.42566 7.57023 9.36291C8.05746 9.29419 8.68364 9.29199 9.65078 9.29199H10.5133C10.7961 9.29199 10.9375 9.29199 11.0254 9.37986C11.1133 9.46773 11.1133 9.60915 11.1133 9.89199V14.7475C11.1133 15.0304 11.1133 15.1718 11.0254 15.2597C10.9375 15.3475 10.7961 15.3475 10.5133 15.3475H5.91601C5.62792 15.3475 5.48388 15.3475 5.3952 15.2544C5.30653 15.1612 5.31343 15.021 5.32724 14.7404C5.37245 13.822 5.49408 12.9238 5.68586 12.0519C6.02954 10.4893 6.14906 10.1139 6.63781 9.72101ZM13.1133 14.7475C13.1133 15.0304 13.1133 15.1718 13.2011 15.2597C13.289 15.3475 13.4304 15.3475 13.7133 15.3475H18.3098C18.5979 15.3475 18.7419 15.3475 18.8306 15.2544C18.9193 15.1612 18.9124 15.021 18.8986 14.7404C18.8534 13.822 18.7317 12.9238 18.5399 12.0519C18.1963 10.4893 18.0767 10.1139 17.588 9.72101C17.3576 9.5358 17.1005 9.42566 16.6556 9.36291C16.1683 9.29419 15.5422 9.29199 14.575 9.29199H13.7133C13.4304 9.29199 13.289 9.29199 13.2011 9.37986C13.1133 9.46773 13.1133 9.60915 13.1133 9.89199V14.7475Z" fill="#141B34"/>
<path fill-rule="evenodd" clip-rule="evenodd" d="M3.11328 2.09766C3.11328 1.54537 3.561 1.09766 4.11328 1.09766H20.1133C20.6656 1.09766 21.1133 1.54537 21.1133 2.09766C21.1133 2.64994 20.6656 3.09766 20.1133 3.09766H14.6936L13.8365 4.59766H15.1133C15.6656 4.59766 16.1133 5.04537 16.1133 5.59766C16.1133 6.14994 15.6656 6.59766 15.1133 6.59766H12.1308C12.1185 6.59788 12.1062 6.59788 12.0939 6.59766H9.11328C8.561 6.59766 8.11328 6.14994 8.11328 5.59766C8.11328 5.04537 8.561 4.59766 9.11328 4.59766H11.533L12.3901 3.09766H4.11328C3.561 3.09766 3.11328 2.64994 3.11328 2.09766Z" fill="#141B34"/>
</svg>
