<svg width="24" height="24" viewBox="0 0 24 24" fill="none" xmlns="http://www.w3.org/2000/svg">
<path fill-rule="evenodd" clip-rule="evenodd" d="M10.181 3.24935C10.814 3.2493 11.3659 3.24926 11.8091 3.31153C13.2775 3.51783 13.6845 4.68738 13.7404 5.99951L14.488 5.99951C15.1048 5.99949 15.6384 5.99946 16.0851 6.0437C16.5658 6.09129 17.0175 6.19511 17.4568 6.44383C17.8927 6.69066 18.2197 7.02547 18.5193 7.41344C18.8017 7.77902 19.1001 8.24679 19.4509 8.79682C19.8723 9.45747 20.3789 10.0322 21.0278 10.4772C21.9334 11.0984 22.6273 12.0206 22.7229 13.1387L22.75 14.3561C22.75 14.9391 22.7501 15.4432 22.7009 15.8484C22.5937 16.7328 22.102 17.3275 21.3442 17.5882C21.1091 17.6691 20.9915 17.7095 20.8753 17.646C20.7591 17.5826 20.7205 17.4242 20.6431 17.1075C20.2427 15.4673 18.7635 14.25 17 14.25C15.2075 14.25 13.7088 15.5076 13.338 17.1886C13.2759 17.4702 13.2448 17.6111 13.1625 17.6772C13.0802 17.7433 12.9527 17.7433 12.6978 17.7433H11.3022C11.0473 17.7433 10.9198 17.7433 10.8375 17.6772C10.7552 17.6111 10.7241 17.4702 10.662 17.1886C10.2912 15.5076 8.79246 14.25 7 14.25C5.17594 14.25 3.65606 15.5523 3.31946 17.2779C3.27894 17.4857 3.25868 17.5895 3.18636 17.6357C3.11404 17.6818 3.02695 17.6603 2.85275 17.6172C2.49372 17.5284 2.16245 17.3696 1.87838 17.0727C1.51166 16.6895 1.37115 16.2212 1.30867 15.7356C1.24995 15.2792 1.24997 14.7084 1.25 14.0425V6.95019C1.24997 6.28425 1.24995 5.71351 1.30867 5.25711C1.37115 4.7715 1.51166 4.30316 1.87838 3.91994C2.24954 3.53209 2.71081 3.37898 3.19088 3.31153C3.74503 3.23368 4.31148 3.24932 4.86957 3.24935L10.181 3.24935ZM14.3374 8.08569C14.3965 7.99791 14.5308 7.99729 14.7995 7.99604C15.1632 7.99435 15.5272 7.99823 15.8881 8.03396C16.3644 8.08113 16.645 8.25861 16.9366 8.63605C17.1573 8.92184 17.4077 9.31264 17.7877 9.90836C17.9255 10.1244 18.0663 10.3282 18.2128 10.5217C18.4663 10.8563 18.5931 11.0237 18.5379 11.1347C18.4828 11.2456 18.282 11.2456 17.8805 11.2456H17.7081C17.0358 11.2456 16.592 11.2446 16.2509 11.2072C15.7677 11.1541 15.4963 10.9707 15.2675 10.5417C15.106 10.2391 14.9402 9.82766 14.6905 9.20371L14.4282 8.54813C14.3282 8.29836 14.2783 8.17347 14.3374 8.08569Z" fill="#141B34"/>
<circle cx="17" cy="18" r="2.5" fill="#141B34"/>
<circle cx="7" cy="18" r="2.5" fill="#141B34"/>
</svg>
