<svg width="24" height="24" viewBox="0 0 24 24" fill="none" xmlns="http://www.w3.org/2000/svg">
<path d="M2 2L22 22" stroke="#141B34" stroke-width="1.5" stroke-linecap="round" stroke-linejoin="round"/>
<path d="M15 15V16C15 17.1046 15.8954 18 17 18C17.309 18 17.6098 17.965 17.8987 17.8987" stroke="#141B34" stroke-width="1.5" stroke-linecap="round" stroke-linejoin="round"/>
<path d="M5.90819 10.1523C4.22974 10.6275 3 12.1709 3 14.0015C3 16.2107 4.79086 18.0015 7 18.0015C8.10457 18.0015 9 17.1061 9 16.0015V13.2442" stroke="#141B34" stroke-width="1.5" stroke-linecap="round"/>
<path d="M2.25 14.0002C2.25 14.4144 2.58579 14.7502 3 14.7502C3.41421 14.7502 3.75 14.4144 3.75 14.0002H2.25ZM12 21.2502C11.5858 21.2502 11.25 21.586 11.25 22.0002C11.25 22.4144 11.5858 22.7502 12 22.7502V21.2502ZM18.6417 21.6478L18.9495 22.3317H18.9495L18.6417 21.6478ZM5.57013 5.48729C5.83925 5.17242 5.80217 4.699 5.48729 4.42987C5.17242 4.16075 4.699 4.19783 4.42987 4.51271L5.57013 5.48729ZM20.6157 20.9282C20.8522 20.5882 20.7683 20.1208 20.4282 19.8843C20.0882 19.6478 19.6208 19.7317 19.3843 20.0718L20.6157 20.9282ZM3.75 14.0002V11.0002H2.25V14.0002H3.75ZM14.8462 21.2502H12V22.7502H14.8462V21.2502ZM14.8462 22.7502C15.8392 22.7502 16.6245 22.7506 17.2583 22.7041C17.8996 22.657 18.4446 22.5589 18.9495 22.3317L18.3338 20.9638C18.0557 21.089 17.7071 21.1671 17.1485 21.2081C16.5824 21.2497 15.8614 21.2502 14.8462 21.2502V22.7502ZM3.75 11.0002C3.75 8.90284 4.36857 6.8931 5.57013 5.48729L4.42987 4.51271C2.94342 6.25184 2.25 8.63601 2.25 11.0002H3.75ZM19.3843 20.0718C19.1936 20.3459 19.0627 20.4985 18.9281 20.6137C18.7964 20.7266 18.6289 20.8311 18.3338 20.9638L18.9495 22.3317C19.3194 22.1652 19.6255 21.9914 19.9039 21.753C20.1795 21.5169 20.3952 21.2453 20.6157 20.9282L19.3843 20.0718Z" fill="#141B34"/>
<path opacity="0.4" d="M21 14C21 11.7909 19.2091 10 17 10C16.2532 10 15.5007 10.5 15.5007 11M20.9985 16.5C21 16.2216 21 16.1746 21 15.8462V11C21 6.02944 16.9806 2 12.0224 2C10.3733 2 8.82805 2.44576 7.5 3.22364" stroke="#141B34" stroke-width="1.5" stroke-linecap="round" stroke-linejoin="round"/>
</svg>
