<svg width="24" height="24" viewBox="0 0 24 24" fill="none" xmlns="http://www.w3.org/2000/svg">
<path d="M22 2.76571V6.97951C22.0003 6.99249 22.0003 7.00545 22 7.01839V15.9998C22 18.209 20.2091 19.9998 18 19.9998C15.7909 19.9998 14 18.209 14 15.9998C14 13.7907 15.7909 11.9998 18 11.9998C18.7286 11.9998 19.4117 12.1946 20 12.535V8.6634C18.1779 9.56339 15.086 10.7998 11 10.9781V18.4998C11 20.9851 8.98528 22.9998 6.5 22.9998C4.01472 22.9998 2 20.9851 2 18.4998C2 16.0146 4.01472 13.9998 6.5 13.9998C7.42507 13.9998 8.28495 14.279 9 14.7576V6.99984L8.99999 6.94863C8.99993 6.53135 8.99986 6.13144 9.04047 5.80256C9.08528 5.43961 9.19408 5.01382 9.5269 4.6514C9.86802 4.27993 10.302 4.13903 10.6619 4.06557C10.9981 3.99695 11.4161 3.96133 11.8628 3.92328L11.8628 3.92328L11.9136 3.91895C15.7632 3.5905 18.5076 2.33586 19.8485 1.54756L19.8771 1.53066C19.9968 1.46015 20.1623 1.36254 20.3139 1.29904C20.4584 1.23845 20.9159 1.06397 21.3959 1.33857C21.8697 1.60962 21.9554 2.08238 21.9779 2.24504C22.0004 2.40739 22.0002 2.59813 22 2.73292L22 2.76571Z" fill="#141B34"/>
</svg>
