<svg width="24" height="24" viewBox="0 0 24 24" fill="none" xmlns="http://www.w3.org/2000/svg">
<path fill-rule="evenodd" clip-rule="evenodd" d="M11.9004 8.27867C12.8329 7.54257 14 8.32268 14 9.31619V14.9999C14 15.5521 13.5523 15.9999 13 15.9999C12.4477 15.9999 12 15.5521 12 14.9999V10.7481L11.6196 11.0484C11.1861 11.3906 10.5573 11.3166 10.2151 10.8831C9.87289 10.4496 9.9469 9.82075 10.3804 9.47855L11.9004 8.27867Z" fill="#141B34"/>
<path d="M20.1281 7.18734C20.5769 6.86556 21.2016 6.96858 21.5234 7.41744C22.4528 8.71393 23.0002 10.2951 23.0002 12.0001C23.0002 16.444 19.3055 20.0001 14.806 20.0001H8.61174V21C8.61178 21.2514 8.51762 21.503 8.32846 21.6974C7.94331 22.0933 7.31021 22.1019 6.91438 21.7168L5.91157 20.7411C5.72059 20.5554 5.47035 20.3122 5.32363 20.1224C5.19476 19.9557 4.82292 19.4343 5.09566 18.7936C5.36236 18.1671 5.98032 18.0609 6.18603 18.0326C6.42421 17.9998 6.72323 17.9999 6.99447 18.0001H6.99449L7.04497 18.0001H14.806C18.2529 18.0001 21.0002 15.2882 21.0002 12.0001C21.0002 10.7305 20.5942 9.55389 19.8979 8.58271C19.5762 8.13385 19.6792 7.50912 20.1281 7.18734Z" fill="#141B34"/>
<path d="M3.87192 16.8127C3.42305 17.1344 2.79833 17.0314 2.47655 16.5826C1.54713 15.2861 0.999784 13.7049 0.999784 11.9999C0.999784 7.55602 4.69444 3.99992 9.19401 3.99992H15.3882V3C15.3882 2.74861 15.4824 2.49697 15.6715 2.30256C16.0567 1.90673 16.6898 1.89806 17.0856 2.28321L18.0884 3.25894C18.2794 3.44457 18.5296 3.68781 18.6763 3.87758C18.8052 4.04428 19.1771 4.56574 18.9043 5.20642C18.6376 5.83292 18.0197 5.93914 17.8139 5.96744C17.5758 6.00021 17.2767 6.00007 17.0055 5.99994H17.0055L16.955 5.99992H9.19401C5.74706 5.99992 2.99978 8.71184 2.99978 11.9999C2.99978 13.2695 3.4058 14.4461 4.10202 15.4173C4.4238 15.8662 4.32078 16.4909 3.87192 16.8127Z" fill="#141B34"/>
</svg>
