<svg width="24" height="24" viewBox="0 0 24 24" fill="none" xmlns="http://www.w3.org/2000/svg">
<path opacity="0.4" d="M1.25 8.775C1.25 5.22768 1.25 3.45402 2.27513 2.35201C3.30025 1.25 4.95017 1.25 8.25 1.25H11.25C14.5498 1.25 16.1997 1.25 17.2249 2.35201C18.25 3.45402 18.25 5.22768 18.25 8.775V15.225C18.25 18.7723 18.25 20.546 17.2249 21.648C16.1997 22.75 14.5498 22.75 11.25 22.75H8.25C4.95017 22.75 3.30025 22.75 2.27513 21.648C1.25 20.546 1.25 18.7723 1.25 15.225V8.775Z" fill="#141B34"/>
<path fill-rule="evenodd" clip-rule="evenodd" d="M7.83431 7.37434C7.02544 7.9655 6.5 8.92139 6.5 10C6.5 11.0786 7.02544 12.0345 7.83431 12.6257C7.61938 11.8724 7.5 10.9624 7.5 10C7.5 9.03764 7.61938 8.1276 7.83431 7.37434ZM9.75 5.25C7.12665 5.25 5 7.37665 5 10C5 12.6234 7.12665 14.75 9.75 14.75C12.3734 14.75 14.5 12.6234 14.5 10C14.5 7.37665 12.3734 5.25 9.75 5.25ZM9.75 6.78744C9.74306 6.79456 9.7355 6.80267 9.72733 6.81189C9.6304 6.92121 9.50886 7.12219 9.39159 7.43492C9.15912 8.05483 9 8.96156 9 10C9 11.0384 9.15912 11.9452 9.39159 12.5651C9.50886 12.8778 9.6304 13.0788 9.72733 13.1881C9.7355 13.1973 9.74306 13.2054 9.75 13.2126C9.75694 13.2054 9.7645 13.1973 9.77267 13.1881C9.8696 13.0788 9.99114 12.8778 10.1084 12.5651C10.3409 11.9452 10.5 11.0384 10.5 10C10.5 8.96156 10.3409 8.05483 10.1084 7.43492C9.99114 7.12219 9.8696 6.92121 9.77267 6.81189C9.7645 6.80267 9.75694 6.79456 9.75 6.78744ZM11.6657 12.6257C11.8806 11.8724 12 10.9624 12 10C12 9.03764 11.8806 8.1276 11.6657 7.37434C12.4746 7.9655 13 8.92139 13 10C13 11.0786 12.4746 12.0345 11.6657 12.6257Z" fill="#141B34"/>
<path fill-rule="evenodd" clip-rule="evenodd" d="M5.5 18C5.5 17.5858 5.83579 17.25 6.25 17.25L13.25 17.25C13.6642 17.25 14 17.5858 14 18C14 18.4142 13.6642 18.75 13.25 18.75L6.25 18.75C5.83579 18.75 5.5 18.4142 5.5 18Z" fill="#141B34"/>
<path d="M12.6094 22.7464C12.6394 22.7491 12.6698 22.7505 12.7005 22.7505H12.7628C14.0322 22.7506 15.0746 22.7506 15.9148 22.6487C16.796 22.5419 17.5669 22.3126 18.24 21.7764C18.9125 21.2406 19.3099 20.5398 19.6144 19.7035C19.9051 18.9051 20.1436 17.8853 20.4345 16.6417L22.3793 8.32816C22.5355 7.66051 22.6731 7.07236 22.7256 6.58764C22.7813 6.0723 22.7627 5.51013 22.4534 4.98256C21.944 4.11406 21.069 3.85541 20.411 3.77364C19.946 3.71585 19.4006 3.73221 19.0194 3.74365C18.8962 3.74735 18.7902 3.75053 18.7095 3.75053H17.9549C18.0994 4.29545 18.1732 4.9497 18.2109 5.75053H18.7095C18.9084 5.75053 19.0866 5.74496 19.253 5.73975C19.5799 5.72952 19.8613 5.72071 20.1643 5.75837C20.5789 5.80989 20.6849 5.92047 20.7283 5.99459C20.7299 5.99719 20.7381 6.01056 20.7442 6.05608C20.7517 6.11204 20.7549 6.20876 20.7372 6.37257C20.6995 6.7205 20.5921 7.18763 20.4185 7.92972L18.5012 16.126C18.4066 16.5303 18.321 16.8954 18.2407 17.2268C18.2053 19.4844 18.0359 20.7763 17.225 21.648C16.3515 22.587 15.0243 22.7259 12.6094 22.7464Z" fill="#141B34"/>
</svg>
