<svg width="24" height="24" viewBox="0 0 24 24" fill="none" xmlns="http://www.w3.org/2000/svg">
<path d="M6 12V9C6 7.34533 6.34533 7 8 7H16C17.6547 7 18 7.34533 18 9V12H6Z" fill="#D4D7E0"/>
<path d="M4 17H8.5H15.5H20C21.6547 17 22 17.3453 22 19V20C22 21.6547 21.6547 22 20 22H4C2.34533 22 2 21.6547 2 20V19C2 17.3453 2.34533 17 4 17Z" fill="#D4D7E0"/>
<path d="M6 12H9H15H18C19.6547 12 20 12.3453 20 14V17H4V14C4 12.3453 4.34533 12 6 12Z" fill="white"/>
<path d="M6 12V9C6 7.34533 6.34533 7 8 7H16C17.6547 7 18 7.34533 18 9V12H6Z" fill="#D4D7E0"/>
<path d="M9 7V4C9 2.34533 9.34533 2 11 2H13C14.6547 2 15 2.34533 15 4V7H9Z" fill="white"/>
<path d="M15.6119 19.6712L13.7466 8.47959C13.6446 7.86768 13.5936 7.56173 13.4133 7.35059C13.3434 7.26871 13.2607 7.19866 13.1684 7.14315C12.9305 7 12.6203 7 12 7C11.3797 7 11.0695 7 10.8316 7.14315C10.7393 7.19866 10.6566 7.26871 10.5867 7.35059C10.4064 7.56173 10.3554 7.86768 10.2534 8.47959L10.2534 8.47959L8.38813 19.6712C8.20796 20.7522 8.11788 21.2927 8.41744 21.6464C8.71701 22 9.26498 22 10.3609 22H13.6391C14.735 22 15.283 22 15.5826 21.6464C15.8821 21.2927 15.792 20.7522 15.6119 19.6712Z" fill="#D4D7E0"/>
<path d="M8.5 17H4C2.34533 17 2 17.3453 2 19V20C2 21.6547 2.34533 22 4 22H20C21.6547 22 22 21.6547 22 20V19C22 17.3453 21.6547 17 20 17H15.5" stroke="#141B34" stroke-width="1.5" stroke-linecap="round" stroke-linejoin="round"/>
<path d="M9 12H6C4.34533 12 4 12.3453 4 14V17M15 12H18C19.6547 12 20 12.3453 20 14V17" stroke="#141B34" stroke-width="1.5" stroke-linecap="round" stroke-linejoin="round"/>
<path d="M6 12V9C6 7.34533 6.34533 7 8 7H16C17.6547 7 18 7.34533 18 9V12" stroke="#141B34" stroke-width="1.5" stroke-linecap="round" stroke-linejoin="round"/>
<path d="M9 7V4C9 2.34533 9.34533 2 11 2H13C14.6547 2 15 2.34533 15 4V7" stroke="#141B34" stroke-width="1.5" stroke-linecap="round" stroke-linejoin="round"/>
<path d="M13.5 7L16 22M10.5 7L8 22" stroke="#141B34" stroke-width="1.5" stroke-linecap="round" stroke-linejoin="round"/>
</svg>
