<svg width="24" height="24" viewBox="0 0 24 24" fill="none" xmlns="http://www.w3.org/2000/svg">
<path d="M18.4936 2.43557C18.3569 2.31595 18.1814 2.25002 17.9998 2.25001L14.25 2.25V3C14.25 4.238 13.2436 5.2444 12.003 5.24604C10.7601 5.24768 9.75003 4.24033 9.75003 3.00001V2.25001H6.00029C5.81863 2.25001 5.64315 2.31595 5.50643 2.43557L1.50617 5.93557C1.27877 6.13453 1.19297 6.45053 1.28852 6.73719L2.78852 11.2372C2.86046 11.453 3.02645 11.6245 3.23981 11.7034C3.45316 11.7824 3.6908 11.7602 3.88587 11.6432L5.25003 10.8247V12.25H18.75V10.8247L20.1142 11.6432C20.3093 11.7602 20.5469 11.7824 20.7603 11.7034C20.9736 11.6245 21.1396 11.453 21.2115 11.2372L22.7115 6.73719C22.8071 6.45053 22.7213 6.13453 22.4939 5.93557L18.4936 2.43557Z" fill="#141B34"/>
<path d="M18.75 13.75H5.25003V21.75H18.75V13.75Z" fill="#141B34"/>
</svg>
