<svg width="24" height="25" viewBox="0 0 24 25" fill="none" xmlns="http://www.w3.org/2000/svg">
<path opacity="0.4" d="M18.0366 1.75024C18.7757 1.75023 19.3832 1.75022 19.8747 1.79695C20.3854 1.84551 20.8478 1.94978 21.2683 2.20749C21.6859 2.46335 22.0369 2.81439 22.2928 3.2319C22.5505 3.65246 22.6547 4.1148 22.7033 4.62554C22.75 5.11703 22.75 5.72453 22.75 6.46367V6.46368V6.53681V6.53682C22.75 7.27596 22.75 7.88346 22.7033 8.37495C22.6547 8.88569 22.5505 9.34803 22.2928 9.76859C22.0369 10.1861 21.6859 10.5371 21.2683 10.793C20.8478 11.0507 20.3854 11.155 19.8747 11.2035C19.3832 11.2503 18.7757 11.2503 18.0366 11.2502H18.0366H17.9634H17.9634C17.2243 11.2503 16.6168 11.2503 16.1253 11.2035C15.6146 11.155 15.1522 11.0507 14.7317 10.793C14.3141 10.5371 13.9631 10.1861 13.7072 9.76859C13.4495 9.34803 13.3453 8.88569 13.2967 8.37495C13.25 7.88346 13.25 7.27595 13.25 6.53681V6.53679V6.4637V6.46369C13.25 5.72454 13.25 5.11703 13.2967 4.62554C13.3453 4.1148 13.4495 3.65246 13.7072 3.2319C13.9631 2.81439 14.3141 2.46335 14.7317 2.20749C15.1522 1.94978 15.6146 1.84551 16.1253 1.79695C16.6168 1.75022 17.2243 1.75023 17.9634 1.75024H17.9635H18.0365H18.0366Z" fill="#141B34"/>
<path d="M6.03656 1.75024C6.7757 1.75023 7.38322 1.75022 7.87471 1.79695C8.38544 1.84551 8.84779 1.94978 9.26834 2.20749C9.68586 2.46335 10.0369 2.81439 10.2928 3.2319C10.5505 3.65246 10.6547 4.1148 10.7033 4.62554C10.75 5.11703 10.75 5.72453 10.75 6.46367V6.46368V6.53681V6.53682C10.75 7.27596 10.75 7.88346 10.7033 8.37495C10.6547 8.88569 10.5505 9.34803 10.2928 9.76859C10.0369 10.1861 9.68586 10.5371 9.26834 10.793C8.84779 11.0507 8.38544 11.155 7.87471 11.2035C7.38322 11.2503 6.77571 11.2503 6.03658 11.2502H6.03656H5.96344H5.96343C5.22429 11.2503 4.61678 11.2503 4.12529 11.2035C3.61456 11.155 3.15221 11.0507 2.73166 10.793C2.31414 10.5371 1.9631 10.1861 1.70725 9.76859C1.44953 9.34803 1.34527 8.88569 1.29671 8.37495C1.24998 7.88346 1.24999 7.27595 1.25 6.53681V6.53679V6.4637V6.46369C1.24999 5.72454 1.24998 5.11703 1.29671 4.62554C1.34527 4.1148 1.44953 3.65246 1.70725 3.2319C1.9631 2.81439 2.31414 2.46335 2.73166 2.20749C3.15221 1.94978 3.61456 1.84551 4.12529 1.79695C4.61678 1.75022 5.2243 1.75023 5.96344 1.75024H5.96345H6.03655H6.03656Z" fill="#141B34"/>
<path d="M18.0366 13.7502C18.7757 13.7502 19.3832 13.7502 19.8747 13.797C20.3854 13.8455 20.8478 13.9498 21.2683 14.2075C21.6859 14.4633 22.0369 14.8144 22.2928 15.2319C22.5505 15.6525 22.6547 16.1148 22.7033 16.6255C22.75 17.117 22.75 17.7245 22.75 18.4637V18.4637V18.5368V18.5368C22.75 19.276 22.75 19.8835 22.7033 20.375C22.6547 20.8857 22.5505 21.348 22.2928 21.7686C22.0369 22.1861 21.6859 22.5371 21.2683 22.793C20.8478 23.0507 20.3854 23.155 19.8747 23.2035C19.3832 23.2503 18.7757 23.2503 18.0366 23.2502H18.0366H17.9634H17.9634C17.2243 23.2503 16.6168 23.2503 16.1253 23.2035C15.6146 23.155 15.1522 23.0507 14.7317 22.793C14.3141 22.5371 13.9631 22.1861 13.7072 21.7686C13.4495 21.348 13.3453 20.8857 13.2967 20.375C13.25 19.8835 13.25 19.2759 13.25 18.5368V18.5368V18.4637V18.4637C13.25 17.7245 13.25 17.117 13.2967 16.6255C13.3453 16.1148 13.4495 15.6525 13.7072 15.2319C13.9631 14.8144 14.3141 14.4633 14.7317 14.2075C15.1522 13.9498 15.6146 13.8455 16.1253 13.797C16.6168 13.7502 17.2243 13.7502 17.9634 13.7502H17.9635H18.0365H18.0366Z" fill="#141B34"/>
<path opacity="0.4" d="M6.03656 13.7502C6.7757 13.7502 7.38322 13.7502 7.87471 13.797C8.38544 13.8455 8.84779 13.9498 9.26834 14.2075C9.68586 14.4633 10.0369 14.8144 10.2928 15.2319C10.5505 15.6525 10.6547 16.1148 10.7033 16.6255C10.75 17.117 10.75 17.7245 10.75 18.4637V18.4637V18.5368V18.5368C10.75 19.276 10.75 19.8835 10.7033 20.375C10.6547 20.8857 10.5505 21.348 10.2928 21.7686C10.0369 22.1861 9.68586 22.5371 9.26834 22.793C8.84779 23.0507 8.38544 23.155 7.87471 23.2035C7.38322 23.2503 6.77571 23.2503 6.03658 23.2502H6.03656H5.96344H5.96343C5.22429 23.2503 4.61678 23.2503 4.12529 23.2035C3.61456 23.155 3.15221 23.0507 2.73166 22.793C2.31414 22.5371 1.9631 22.1861 1.70725 21.7686C1.44953 21.348 1.34527 20.8857 1.29671 20.375C1.24998 19.8835 1.24999 19.2759 1.25 18.5368V18.5368V18.4637V18.4637C1.24999 17.7245 1.24998 17.117 1.29671 16.6255C1.34527 16.1148 1.44953 15.6525 1.70725 15.2319C1.9631 14.8144 2.31414 14.4633 2.73166 14.2075C3.15221 13.9498 3.61456 13.8455 4.12529 13.797C4.61678 13.7502 5.2243 13.7502 5.96344 13.7502H5.96345H6.03655H6.03656Z" fill="#141B34"/>
</svg>
