<svg width="24" height="25" viewBox="0 0 24 25" fill="none" xmlns="http://www.w3.org/2000/svg">
<path fill-rule="evenodd" clip-rule="evenodd" d="M2.25 3.50024C2.25 2.94796 2.69772 2.50024 3.25 2.50024H19.25C19.8023 2.50024 20.25 2.94796 20.25 3.50024C20.25 4.05253 19.8023 4.50024 19.25 4.50024H3.25C2.69772 4.50024 2.25 4.05253 2.25 3.50024Z" fill="#141B34"/>
<path fill-rule="evenodd" clip-rule="evenodd" d="M2.25 21.5002C2.25 20.948 2.69772 20.5002 3.25 20.5002H12.25C12.8023 20.5002 13.25 20.948 13.25 21.5002C13.25 22.0525 12.8023 22.5002 12.25 22.5002H3.25C2.69772 22.5002 2.25 22.0525 2.25 21.5002Z" fill="#141B34"/>
<path opacity="0.4" d="M16.0537 6.75024C17.1865 6.75022 18.1123 6.7502 18.8431 6.84846C19.6071 6.95117 20.2694 7.17346 20.7981 7.70215C21.3268 8.23084 21.5491 8.89318 21.6518 9.65713C21.75 10.388 21.75 11.3137 21.75 12.4465V12.4466V12.5539V12.554C21.75 13.6868 21.75 14.6125 21.6518 15.3434C21.5491 16.1073 21.3268 16.7696 20.7981 17.2983C20.2694 17.827 19.6071 18.0493 18.8431 18.152C18.1123 18.2503 17.1865 18.2503 16.0537 18.2502H7.94631C6.81348 18.2503 5.88775 18.2503 5.15689 18.152C4.39293 18.0493 3.7306 17.827 3.2019 17.2983C2.67321 16.7696 2.45093 16.1073 2.34822 15.3434C2.24996 14.6125 2.24998 13.6868 2.25 12.554V12.5539V12.4466V12.4465C2.24998 11.3137 2.24996 10.388 2.34822 9.65713C2.45093 8.89318 2.67321 8.23084 3.2019 7.70215C3.7306 7.17346 4.39293 6.95117 5.15689 6.84846C5.88774 6.7502 6.81346 6.75022 7.94629 6.75024H7.94631H16.0537H16.0537Z" fill="#141B34"/>
</svg>
