<svg width="24" height="25" viewBox="0 0 24 25" fill="none" xmlns="http://www.w3.org/2000/svg">
<path opacity="0.4" fill-rule="evenodd" clip-rule="evenodd" d="M17.2585 4.12535C15.3533 3.40142 12.9005 3.26257 10.3674 3.94016C7.83432 4.61775 5.78004 5.96221 4.49301 7.53971C3.20494 9.11848 2.72996 10.8601 3.15066 12.4275C3.51007 13.7666 4.26749 14.7277 5.38315 15.3195C6.52442 15.9249 8.12933 16.1887 10.2277 15.9279C10.7757 15.8597 11.2753 16.2488 11.3434 16.7969C11.4115 17.345 11.0224 17.8445 10.4744 17.9126C8.11087 18.2064 6.0591 17.9421 4.44594 17.0864C2.80717 16.2171 1.71242 14.7842 1.21902 12.9459C0.589583 10.6008 1.36342 8.21188 2.94334 6.27538C4.52429 4.33763 6.95716 2.78207 9.8506 2.00809C12.7441 1.2341 15.6298 1.36696 17.9689 2.25577C20.3063 3.14392 22.1725 4.82597 22.8019 7.17085C23.2994 9.02461 22.8183 10.8164 21.8753 12.4156C20.9381 14.0051 19.5049 15.4786 17.9407 16.7804C17.5162 17.1337 16.8857 17.076 16.5324 16.6515C16.1791 16.227 16.2368 15.5965 16.6613 15.2432C18.1384 14.0139 19.3793 12.7111 20.1525 11.3998C20.92 10.0982 21.1857 8.8647 20.8702 7.6893C20.4495 6.12165 19.1654 4.84993 17.2585 4.12535Z" fill="#141B34"/>
<path fill-rule="evenodd" clip-rule="evenodd" d="M11.4418 15.1035C11.0655 15.3962 10.9718 15.6733 10.9965 15.907C11.0016 15.9559 11.0251 16.0847 11.3387 16.2387C11.6653 16.399 12.1833 16.5111 12.8413 16.5111C13.9068 16.5111 15.101 16.2198 16.0292 15.6834C15.3984 14.753 14.2771 14.3908 13.1207 14.5015C12.428 14.5678 11.8271 14.8037 11.4418 15.1035ZM16.4764 17.7041C15.3102 18.2517 13.9952 18.5111 12.8413 18.5111C11.9973 18.5111 11.1484 18.3733 10.4572 18.0339C9.75299 17.6882 9.10779 17.0674 9.00749 16.1168C8.88996 15.003 9.46443 14.1079 10.2136 13.525C10.9538 12.9491 11.9357 12.6058 12.9301 12.5106C14.9069 12.3214 17.3521 13.1122 18.245 15.6839C18.25 15.6983 18.2546 15.7128 18.2589 15.7273C19.2654 19.1176 16.9714 22.8377 13.1234 23.4864C12.5788 23.5782 12.0629 23.2112 11.9711 22.6666C11.8793 22.122 12.2463 21.6061 12.7909 21.5143C14.9433 21.1514 16.3126 19.4683 16.4764 17.7041Z" fill="#141B34"/>
</svg>
