<svg width="24" height="25" viewBox="0 0 24 25" fill="none" xmlns="http://www.w3.org/2000/svg">
<path opacity="0.4" fill-rule="evenodd" clip-rule="evenodd" d="M7 5.50024C7 4.94796 7.44772 4.50024 8 4.50024L20 4.50025C20.5523 4.50025 21 4.94796 21 5.50025C21 6.05253 20.5523 6.50025 20 6.50025L8 6.50024C7.44772 6.50024 7 6.05253 7 5.50024Z" fill="#141B34"/>
<path fill-rule="evenodd" clip-rule="evenodd" d="M3 5.50024C3 4.94796 3.44571 4.50024 3.99553 4.50024H4.00447C4.55429 4.50024 5 4.94796 5 5.50024C5 6.05253 4.55429 6.50024 4.00447 6.50024H3.99553C3.44571 6.50024 3 6.05253 3 5.50024Z" fill="#141B34"/>
<path fill-rule="evenodd" clip-rule="evenodd" d="M3 12.5002C3 11.948 3.44571 11.5002 3.99553 11.5002H4.00447C4.55429 11.5002 5 11.948 5 12.5002C5 13.0525 4.55429 13.5002 4.00447 13.5002H3.99553C3.44571 13.5002 3 13.0525 3 12.5002Z" fill="#141B34"/>
<path fill-rule="evenodd" clip-rule="evenodd" d="M3 19.5002C3 18.948 3.44571 18.5002 3.99553 18.5002H4.00447C4.55429 18.5002 5 18.948 5 19.5002C5 20.0525 4.55429 20.5002 4.00447 20.5002H3.99553C3.44571 20.5002 3 20.0525 3 19.5002Z" fill="#141B34"/>
<path opacity="0.4" fill-rule="evenodd" clip-rule="evenodd" d="M7 12.5002C7 11.948 7.44772 11.5002 8 11.5002L20 11.5002C20.5523 11.5002 21 11.948 21 12.5002C21 13.0525 20.5523 13.5002 20 13.5002L8 13.5002C7.44772 13.5002 7 13.0525 7 12.5002Z" fill="#141B34"/>
<path opacity="0.4" fill-rule="evenodd" clip-rule="evenodd" d="M7 19.5002C7 18.948 7.44772 18.5002 8 18.5002L20 18.5002C20.5523 18.5002 21 18.948 21 19.5002C21 20.0525 20.5523 20.5002 20 20.5002L8 20.5002C7.44772 20.5002 7 20.0525 7 19.5002Z" fill="#141B34"/>
</svg>
