<svg width="24" height="25" viewBox="0 0 24 25" fill="none" xmlns="http://www.w3.org/2000/svg">
<path opacity="0.4" fill-rule="evenodd" clip-rule="evenodd" d="M10 6.50024C10 5.94796 10.4477 5.50024 11 5.50024L21 5.50025C21.5523 5.50025 22 5.94796 22 6.50025C22 7.05253 21.5523 7.50025 21 7.50025L11 7.50024C10.4477 7.50024 10 7.05253 10 6.50024Z" fill="#141B34"/>
<path opacity="0.4" fill-rule="evenodd" clip-rule="evenodd" d="M10 12.5002C10 11.948 10.4477 11.5002 11 11.5002L21 11.5002C21.5523 11.5002 22 11.948 22 12.5002C22 13.0525 21.5523 13.5002 21 13.5002L11 13.5002C10.4477 13.5002 10 13.0525 10 12.5002Z" fill="#141B34"/>
<path opacity="0.4" fill-rule="evenodd" clip-rule="evenodd" d="M10 18.5002C10 17.948 10.4477 17.5002 11 17.5002L21 17.5002C21.5523 17.5002 22 17.948 22 18.5002C22 19.0525 21.5523 19.5002 21 19.5002L11 19.5002C10.4477 19.5002 10 19.0525 10 18.5002Z" fill="#141B34"/>
<path d="M4.79406 16.5024C4.73095 16.5003 4.64632 16.5001 4.50014 16.5001H3.00014C2.44786 16.5001 2.00014 16.0524 2.00014 15.5001C2.00014 14.9479 2.44786 14.5001 3.00014 14.5001H4.50014L4.55926 14.5001C4.775 14.4997 5.01248 14.4993 5.22934 14.5424C6.10206 14.716 6.78427 15.3982 6.95787 16.2709C7.001 16.4878 7.00059 16.7253 7.00021 16.941L7.00014 17.0001L7.00021 17.0593C7.00059 17.275 7.001 17.5125 6.95787 17.7293C6.78427 18.6021 6.10206 19.2843 5.22934 19.4579C5.01248 19.501 4.775 19.5006 4.55927 19.5002L4.50014 19.5001C4.35396 19.5001 4.26934 19.5003 4.20622 19.5024C4.17716 19.5034 4.16154 19.5047 4.15524 19.5052C4.08068 19.5224 4.02241 19.5807 4.00525 19.6552C4.00466 19.6615 4.00343 19.6772 4.00244 19.7062C4.00028 19.7693 4.00014 19.854 4.00014 20.0001V20.5001H6.00014C6.55243 20.5001 7.00014 20.9479 7.00014 21.5001C7.00014 22.0524 6.55243 22.5001 6.00014 22.5001H3.60014L3.57261 22.5002H3.57259C3.45839 22.5003 3.28884 22.5006 3.13771 22.4802C2.94513 22.4543 2.6416 22.3801 2.3809 22.1194C2.1202 21.8587 2.04593 21.5552 2.02004 21.3626C1.99972 21.2114 1.99996 21.0419 2.00011 20.9277L2.00014 20.9001V20.0001L2.00007 19.941L2.00007 19.941C1.99969 19.7253 1.99928 19.4878 2.04241 19.2709C2.21601 18.3982 2.89822 17.716 3.77094 17.5424C3.9878 17.4993 4.22528 17.4997 4.44101 17.5001H4.44102L4.50014 17.5001C4.64632 17.5001 4.73095 17.5 4.79406 17.4978C4.82312 17.4968 4.83874 17.4956 4.84504 17.495C4.9196 17.4779 4.97787 17.4196 4.99504 17.345C4.99562 17.3387 4.99685 17.3231 4.99784 17.2941C5 17.2309 5.00014 17.1463 5.00014 17.0001C5.00014 16.854 5 16.7693 4.99784 16.7062C4.99685 16.6772 4.99562 16.6615 4.99504 16.6552C4.97787 16.5807 4.9196 16.5224 4.84504 16.5052L4.79406 16.5024Z" fill="#141B34"/>
<path fill-rule="evenodd" clip-rule="evenodd" d="M2 3.50024C2 2.94796 2.44772 2.50024 3 2.50024H4.2C4.91797 2.50024 5.5 3.08227 5.5 3.80024V8.50024H6C6.55228 8.50024 7 8.94796 7 9.50024C7 10.0525 6.55228 10.5002 6 10.5002H3C2.44772 10.5002 2 10.0525 2 9.50024C2 8.94796 2.44772 8.50024 3 8.50024H3.5V4.50024H3C2.44772 4.50024 2 4.05253 2 3.50024Z" fill="#141B34"/>
</svg>
