<svg width="24" height="25" viewBox="0 0 24 25" fill="none" xmlns="http://www.w3.org/2000/svg">
<path fill-rule="evenodd" clip-rule="evenodd" d="M2 23.5002C1.44772 23.5002 1 23.0525 1 22.5002L1 2.50024C1 1.94796 1.44772 1.50024 2 1.50024C2.55229 1.50024 3 1.94796 3 2.50024L3 22.5002C3 23.0525 2.55228 23.5002 2 23.5002Z" fill="#141B34"/>
<path fill-rule="evenodd" clip-rule="evenodd" d="M22 23.5002C21.4477 23.5002 21 23.0525 21 22.5002L21 2.50024C21 1.94796 21.4477 1.50024 22 1.50024C22.5523 1.50024 23 1.94796 23 2.50024L23 22.5002C23 23.0525 22.5523 23.5002 22 23.5002Z" fill="#141B34"/>
<path opacity="0.4" fill-rule="evenodd" clip-rule="evenodd" d="M11.6861 8.16419C11.3246 8.91829 10.9268 10.0799 10.3577 11.7496L10.1019 12.5002H13.8987L13.6428 11.7496C13.0737 10.0799 12.6759 8.91829 12.3144 8.16419C12.1867 7.89766 12.0817 7.72236 12.0003 7.61054C11.9189 7.72236 11.8139 7.89766 11.6861 8.16419ZM14.5804 14.5002L16.0537 18.8229C16.2319 19.3456 16.8001 19.625 17.3229 19.4468C17.8456 19.2686 18.125 18.7004 17.9468 18.1776L15.5115 11.0327C14.9724 9.45111 14.5373 8.17467 14.1179 7.29968C13.905 6.85559 13.6598 6.43423 13.3511 6.1141C13.0229 5.7737 12.573 5.50024 12.0003 5.50024C11.4275 5.50024 10.9776 5.7737 10.6494 6.1141C10.3408 6.43423 10.0955 6.85559 9.88262 7.29968C9.4632 8.17466 9.02815 9.45109 8.48908 11.0327L6.05374 18.1776C5.87556 18.7004 6.1549 19.2686 6.67765 19.4468C7.2004 19.625 7.76862 19.3456 7.9468 18.8229L9.42016 14.5002H14.5804Z" fill="#141B34"/>
</svg>
