<svg width="24" height="24" viewBox="0 0 24 24" fill="none" xmlns="http://www.w3.org/2000/svg">
<path d="M9.25 4C9.25 2.48122 10.4812 1.25 12 1.25H13C14.5188 1.25 15.75 2.48122 15.75 4V6.55337C15.75 7.53787 16.39 8.40804 17.3299 8.70126L18.1169 8.94682C19.6833 9.43552 20.75 10.8858 20.75 12.5266C20.75 13.4931 19.9665 14.2766 19 14.2766H6C5.0335 14.2766 4.25 13.4931 4.25 12.5266C4.25 10.8858 5.31674 9.43552 6.8831 8.94682L7.67014 8.70126C8.60996 8.40804 9.25 7.53787 9.25 6.55337V4Z" fill="#141B34"/>
<path opacity="0.4" d="M19 15.7765H6C5.99147 15.7765 5.98295 15.7765 5.97444 15.7764C5.6144 15.7736 5.43438 15.7723 5.34902 15.8457C5.26366 15.9191 5.24054 16.0805 5.19429 16.4034C5.13296 16.8314 5.03502 17.3215 4.89533 17.8496C4.57655 19.0547 4.0635 20.369 3.36692 21.4656C3.22848 21.6836 3.21188 21.9574 3.32299 22.1905C3.43409 22.4236 3.88039 22.5683 4.38554 22.6566C4.67969 22.68 5.09907 22.7073 5.60582 22.7236C6.6165 22.7561 7.9881 22.7454 9.41285 22.5683C10.8297 22.3921 12.3465 22.0458 13.6197 21.3792C13.9194 21.2223 14.2083 21.046 14.4805 20.8483C14.6682 20.712 14.9475 20.8369 14.9785 21.0668C15.0264 21.4222 15.1392 21.7977 15.4487 22.1064C15.7544 22.4112 16.2149 22.5518 16.5715 22.6272C16.9697 22.7114 17.4249 22.7504 17.8667 22.7499C18.308 22.7493 18.7653 22.7092 19.1667 22.6206C19.5276 22.5409 19.9944 22.3912 20.3004 22.0655C20.6041 21.7422 20.7079 21.3644 20.7384 20.997C20.7653 20.6739 20.7398 20.2847 20.7126 19.8711L20.7095 19.824C20.6396 18.7573 20.4828 17.4309 20.1142 16.1823C20.0436 15.943 20.0083 15.8234 19.917 15.7631C19.8256 15.7027 19.6769 15.72 19.3795 15.7546C19.255 15.7691 19.1284 15.7765 19 15.7765Z" fill="#141B34"/>
</svg>
