<svg width="24" height="24" viewBox="0 0 24 24" fill="none" xmlns="http://www.w3.org/2000/svg">
<path opacity="0.4" d="M4.89832 1.2556C4.44921 1.26374 4.05127 1.28319 3.70553 1.32967C3.07773 1.41408 2.51093 1.59975 2.05546 2.05522C1.59999 2.51069 1.41432 3.07749 1.32992 3.70528C1.24995 4.30004 1.24997 5.04928 1.25 5.94771V5.94774L1.25001 16.0546C1.24998 17.4222 1.24997 18.5245 1.36653 19.3915C1.48755 20.2916 1.74644 21.0495 2.34836 21.6514C2.95027 22.2533 3.70815 22.5122 4.60825 22.6332C5.47522 22.7498 6.57754 22.7498 7.94514 22.7498H18.052C18.9505 22.7498 19.6997 22.7498 20.2945 22.6699C20.9223 22.5854 21.4891 22.3998 21.9445 21.9443C22.4 21.4888 22.5857 20.922 22.6701 20.2942C22.7166 19.9485 22.736 19.5506 22.7442 19.1014C22.7493 18.8201 22.7518 18.6794 22.6636 18.5896C22.5754 18.4998 22.433 18.4998 22.148 18.4998H14C13.4477 18.4998 13 18.052 13 17.4998C13 16.9475 13.4477 16.4998 14 16.4998H22.148C22.433 16.4998 22.5754 16.4998 22.6636 16.41C22.7518 16.3202 22.7493 16.1795 22.7442 15.8981C22.736 15.449 22.7166 15.051 22.6701 14.7053C22.5857 14.0775 22.4 13.5107 21.9445 13.0552C21.4891 12.5997 20.9223 12.4141 20.2945 12.3297C19.6997 12.2497 18.9505 12.2497 18.052 12.2498L15 12.2498C14.036 12.2498 13.3884 12.2482 12.9054 12.1832C12.4439 12.1212 12.2464 12.014 12.1161 11.8836C11.9858 11.7533 11.8786 11.5558 11.8165 11.0944C11.7516 10.6113 11.75 9.96378 11.75 8.99976L11.75 5.94774C11.75 5.04927 11.7501 4.30006 11.6701 3.70528C11.5857 3.07749 11.4 2.51069 10.9445 2.05522C10.4891 1.59975 9.92228 1.41408 9.29448 1.32967C8.94873 1.28319 8.5508 1.26374 8.10169 1.2556C7.8203 1.2505 7.6796 1.24795 7.5898 1.33614C7.5 1.42432 7.5 1.56681 7.5 1.85179V9.99976C7.5 10.552 7.05229 10.9998 6.5 10.9998C5.94772 10.9998 5.5 10.552 5.5 9.99976V1.85179C5.5 1.56681 5.5 1.42432 5.4102 1.33614C5.32041 1.24795 5.17971 1.2505 4.89832 1.2556Z" fill="#141B34"/>
<path fill-rule="evenodd" clip-rule="evenodd" d="M7.5 18.9996C8.88071 18.9996 10 17.8803 10 16.4996C10 15.1189 8.88071 13.9996 7.5 13.9996C6.11929 13.9996 5 15.1189 5 16.4996C5 17.8803 6.11929 18.9996 7.5 18.9996Z" fill="#141B34"/>
</svg>
