<svg width="24" height="24" viewBox="0 0 24 24" fill="none" xmlns="http://www.w3.org/2000/svg">
<path d="M1.87189 12.2139C2.35973 11.2955 3.23637 10.375 4.50001 10.375C5.76366 10.375 6.64029 11.2955 7.12813 12.2139C7.62256 13.1447 7.85581 14.3074 7.70428 15.236C7.57798 16.0099 6.90807 16.4079 6.38083 16.5991C5.81206 16.8054 5.12525 16.8849 4.47782 16.874C3.82896 16.8632 3.15139 16.7605 2.59641 16.5517C2.10852 16.3682 1.41816 15.9861 1.29575 15.236C1.14422 14.3074 1.37746 13.1447 1.87189 12.2139Z" fill="#141B34"/>
<path d="M9.37189 17.2139C9.85973 16.2955 10.7364 15.375 12 15.375C13.2637 15.375 14.1403 16.2955 14.6281 17.2139C15.1226 18.1447 15.3558 19.3074 15.2043 20.236C15.078 21.0099 14.4081 21.4079 13.8808 21.5991C13.3121 21.8054 12.6252 21.8849 11.9778 21.874C11.329 21.8632 10.6514 21.7605 10.0964 21.5517C9.60852 21.3682 8.91816 20.9861 8.79575 20.236C8.64422 19.3074 8.87746 18.1447 9.37189 17.2139Z" fill="#141B34"/>
<path d="M16.8719 12.2139C17.3597 11.2955 18.2364 10.375 19.5 10.375C20.7637 10.375 21.6403 11.2955 22.1281 12.2139C22.6226 13.1447 22.8558 14.3074 22.7043 15.236C22.578 16.0099 21.9081 16.4079 21.3808 16.5991C20.8121 16.8054 20.1252 16.8849 19.4778 16.874C18.829 16.8632 18.1514 16.7605 17.5964 16.5517C17.1085 16.3682 16.4182 15.9861 16.2957 15.236C16.1442 14.3074 16.3775 13.1447 16.8719 12.2139Z" fill="#141B34"/>
<path fill-rule="evenodd" clip-rule="evenodd" d="M1 3.125C1 2.57272 1.44772 2.125 2 2.125H22C22.5523 2.125 23 2.57272 23 3.125C23 3.67728 22.5523 4.125 22 4.125H2C1.44772 4.125 1 3.67728 1 3.125Z" fill="#141B34"/>
<path fill-rule="evenodd" clip-rule="evenodd" d="M12 2.125C12.5523 2.125 13 2.57272 13 3.125V16.125C13 16.6773 12.5523 17.125 12 17.125C11.4477 17.125 11 16.6773 11 16.125V3.125C11 2.57272 11.4477 2.125 12 2.125Z" fill="#141B34"/>
<path fill-rule="evenodd" clip-rule="evenodd" d="M19.5 2.125C20.0523 2.125 20.5 2.57272 20.5 3.125V11.125C20.5 11.6773 20.0523 12.125 19.5 12.125C18.9477 12.125 18.5 11.6773 18.5 11.125V3.125C18.5 2.57272 18.9477 2.125 19.5 2.125Z" fill="#141B34"/>
<path fill-rule="evenodd" clip-rule="evenodd" d="M4.5 2.125C5.05228 2.125 5.5 2.57272 5.5 3.125V11.125C5.5 11.6773 5.05228 12.125 4.5 12.125C3.94772 12.125 3.5 11.6773 3.5 11.125V3.125C3.5 2.57272 3.94772 2.125 4.5 2.125Z" fill="#141B34"/>
</svg>
