<svg width="24" height="24" viewBox="0 0 24 24" fill="none" xmlns="http://www.w3.org/2000/svg">
<path d="M9.75 11.25C9.75 10.0074 10.7574 9 12 9C13.2426 9 14.25 10.0074 14.25 11.25C14.25 12.4926 13.2426 13.5 12 13.5C10.7574 13.5 9.75 12.4926 9.75 11.25Z" fill="#141B34"/>
<path fill-rule="evenodd" clip-rule="evenodd" d="M7.49699 4.57224C5.63836 5.85868 4.3374 7.91917 4.0451 10.2995C4.02438 10.4683 4.00872 10.6387 3.99828 10.8106L2.00195 10.6894C2.01489 10.4764 2.0343 10.2651 2.06001 10.0558C2.42336 7.09689 4.04113 4.53186 6.35875 2.92773L7.49699 4.57224ZM19.9551 10.2995C19.6628 7.91917 18.3619 5.85868 16.5032 4.57224L17.6415 2.92773C19.9591 4.53186 21.5769 7.09689 21.9402 10.0558C21.9659 10.2651 21.9853 10.4764 21.9983 10.6894L20.002 10.8106C19.9915 10.6387 19.9758 10.4683 19.9551 10.2995Z" fill="#141B34"/>
<path fill-rule="evenodd" clip-rule="evenodd" d="M13 7.25V9.75H11V7.25H13Z" fill="#141B34"/>
<path d="M9.44391 1.74675C9.5861 1.58963 9.78811 1.5 10 1.5H14C14.2119 1.5 14.4139 1.58963 14.5561 1.74675C14.6983 1.90386 14.7674 2.11378 14.7463 2.32463L14.2463 7.32463C14.2079 7.70803 13.8853 8 13.5 8H10.5C10.1147 8 9.79207 7.70803 9.75373 7.32463L9.25373 2.32463C9.23264 2.11378 9.30173 1.90386 9.44391 1.74675Z" fill="#141B34"/>
<path d="M15.8295 11.8109C16.022 11.475 16.4384 11.3408 16.7908 11.501L21.3105 13.5564C21.5027 13.6437 21.6491 13.8081 21.7139 14.009C21.7787 14.2099 21.7558 14.4288 21.6508 14.6119L19.6772 18.0566C19.5714 18.2412 19.3921 18.3722 19.1841 18.417C18.976 18.4617 18.7588 18.4159 18.5865 18.2911L14.5601 15.3746C14.2497 15.1497 14.1587 14.7269 14.3493 14.3943L15.8295 11.8109Z" fill="#141B34"/>
<path d="M8.17045 11.8226C7.97802 11.4867 7.56159 11.3525 7.20923 11.5127L2.68947 13.5681C2.49731 13.6555 2.35087 13.8198 2.28611 14.0207C2.22134 14.2216 2.24424 14.4405 2.34918 14.6237L4.32283 18.0683C4.42862 18.2529 4.60786 18.3839 4.81591 18.4287C5.02396 18.4734 5.24121 18.4277 5.41355 18.3028L9.4399 15.3863C9.75035 15.1614 9.84126 14.7386 9.65069 14.406L8.17045 11.8226Z" fill="#141B34"/>
<path fill-rule="evenodd" clip-rule="evenodd" d="M8.03516 12.3832L10.2002 11.1332L11.2002 12.8652L9.03516 14.1152L8.03516 12.3832Z" fill="#141B34"/>
<path fill-rule="evenodd" clip-rule="evenodd" d="M14.9648 14.1168L12.7998 12.8668L13.7998 11.1348L15.9648 12.3848L14.9648 14.1168Z" fill="#141B34"/>
<path d="M13 20.5H18V22.5H6V20.5H11V12.75H13V20.5Z" fill="#141B34"/>
</svg>
