<svg width="24" height="24" viewBox="0 0 24 24" fill="none" xmlns="http://www.w3.org/2000/svg">
<path d="M21.7734 8.08313L22.4981 8.27624V8.27624L21.7734 8.08313ZM21.4865 9.15997L20.7617 8.96686V8.96686L21.4865 9.15997ZM7.90886 9.53037L8.10399 8.8062L7.90886 9.53037ZM2.75048 8.14047L2.55398 8.86427L2.55536 8.86464L2.75048 8.14047ZM16.6565 11.8874L16.8516 11.1632L16.6565 11.8874ZM13.6126 11.0672L13.4175 11.7914L13.6126 11.0672ZM21.9355 6.64046L21.2503 6.94532L21.2503 6.94532L21.9355 6.64046ZM20.4631 5.86263L20.6582 5.13845L20.4631 5.86263ZM19.4946 5.71216L19.3438 4.97748L19.3438 4.97748L19.4946 5.71216ZM8.52144 10.0297L7.85209 10.368H7.85209L8.52144 10.0297ZM9.74877 12.4577L9.07942 12.7961C9.08676 12.8106 9.09457 12.8249 9.10284 12.8389L9.74877 12.4577ZM10.9556 13.3729L10.7605 14.0971L10.9556 13.3729ZM13.2168 13.9822L13.4119 13.258L13.2168 13.9822ZM13.826 13.4175L13.0925 13.5741V13.5741L13.826 13.4175ZM13.3732 11.2962L14.1066 11.1396L14.1066 11.1396L13.3732 11.2962ZM10.1782 4.62122L9.85689 5.2989L9.85689 5.2989L10.1782 4.62122ZM15.8265 7.34658L16.1524 6.67111L15.8265 7.34658ZM18.1679 6.90017L17.6102 6.39874L17.6102 6.39874L18.1679 6.90017ZM2.17807 6.62656L1.5731 6.18322L1.56966 6.188L2.17807 6.62656ZM21.0487 7.89002L20.7617 8.96686L22.2112 9.35307L22.4981 8.27624L21.0487 7.89002ZM8.10399 8.8062L2.94561 7.4163L2.55536 8.86464L7.71374 10.2545L8.10399 8.8062ZM16.8516 11.1632L13.8077 10.343L13.4175 11.7914L16.4614 12.6115L16.8516 11.1632ZM22.4981 8.27624C22.5938 7.91712 22.6836 7.58476 22.7242 7.30353C22.7672 7.00546 22.7708 6.6728 22.6208 6.3356L21.2503 6.94532C21.2393 6.9206 21.2622 6.93254 21.2396 7.08931C21.2145 7.26293 21.1538 7.49567 21.0487 7.89002L22.4981 8.27624ZM20.6582 5.13845C20.4254 5.0757 20.2051 5.01567 20.0139 4.98157C19.8096 4.94512 19.5868 4.92758 19.3438 4.97748L19.6454 6.44683C19.6351 6.44895 19.6513 6.44056 19.7505 6.45825C19.8628 6.47829 20.0104 6.51738 20.268 6.5868L20.6582 5.13845ZM20.7617 8.96686C20.5201 9.87374 20.3571 10.4791 20.1751 10.9136C20.0021 11.3267 19.8538 11.4786 19.7021 11.5643L20.4397 12.8704C20.9953 12.5567 21.3187 12.0659 21.5586 11.4931C21.7896 10.9418 21.9807 10.2182 22.2112 9.35307L20.7617 8.96686ZM16.4614 12.6115C17.3436 12.8493 18.0764 13.0483 18.6765 13.128C19.2966 13.2103 19.8865 13.1828 20.4397 12.8704L19.7021 11.5643C19.5479 11.6513 19.333 11.702 18.8739 11.641C18.3948 11.5774 17.7741 11.4117 16.8516 11.1632L16.4614 12.6115ZM7.85209 10.368L9.07942 12.7961L10.4181 12.1194L9.19078 9.69134L7.85209 10.368ZM10.7605 14.0971L13.0217 14.7063L13.4119 13.258L11.1507 12.6487L10.7605 14.0971ZM14.5595 13.2609L14.1066 11.1396L12.6397 11.4528L13.0925 13.5741L14.5595 13.2609ZM13.0217 14.7063C13.8975 14.9423 14.757 14.1861 14.5595 13.2609L13.0925 13.5741C13.0467 13.3595 13.2476 13.2137 13.4119 13.258L13.0217 14.7063ZM9.10284 12.8389C9.46845 13.4585 10.0652 13.9097 10.7605 14.0971L11.1507 12.6487C10.8307 12.5625 10.5592 12.3554 10.3947 12.0766L9.10284 12.8389ZM9.85689 5.2989C11.7429 6.19317 13.6115 7.11052 15.5005 8.02205L16.1524 6.67111C14.2763 5.76579 12.3909 4.84038 10.4996 3.94354L9.85689 5.2989ZM20.268 6.5868C20.3887 6.61932 20.5868 6.66588 20.6875 6.69176C20.8194 6.72562 20.929 6.75811 21.0221 6.79515C21.2145 6.87172 21.2436 6.93021 21.2503 6.94532L22.6208 6.33561C22.3846 5.80472 21.9323 5.54296 21.5767 5.40144C21.25 5.27147 20.8332 5.18558 20.6582 5.13845L20.268 6.5868ZM18.7256 7.40161C18.8331 7.28211 18.9424 7.14463 19.0337 7.03162C19.1316 6.9104 19.2191 6.804 19.3074 6.70952C19.4995 6.50378 19.6058 6.45496 19.6454 6.44683L19.3438 4.97748C18.8287 5.08323 18.453 5.42672 18.2111 5.68567C18.0824 5.82353 17.9649 5.96757 17.8667 6.08912C17.7619 6.21889 17.6841 6.31653 17.6102 6.39874L18.7256 7.40161ZM15.5005 8.02205C16.0555 8.28984 16.6342 8.52059 17.2401 8.40844C17.8522 8.29513 18.3066 7.86774 18.7256 7.40161L17.6102 6.39874C17.1995 6.85557 17.0398 6.92002 16.967 6.9335C16.888 6.94813 16.7109 6.9406 16.1524 6.67111L15.5005 8.02205ZM2.78301 7.06989C4.3936 4.87214 7.39684 4.13241 9.85689 5.2989L10.4996 3.94354C7.39825 2.47299 3.61464 3.39744 1.57312 6.18323L2.78301 7.06989ZM2.94698 7.41667C2.86519 7.39446 2.7979 7.33233 2.7666 7.25338C2.7384 7.18224 2.74633 7.12082 2.78647 7.06512L1.56966 6.188C0.818463 7.23011 1.46614 8.56894 2.55398 8.86427L2.94698 7.41667ZM13.8077 10.343C13.119 10.1575 12.4938 10.7696 12.6397 11.4528L14.1066 11.1396C14.1917 11.5381 13.8266 11.9016 13.4175 11.7914L13.8077 10.343ZM7.71374 10.2545C7.77248 10.2704 7.82325 10.311 7.85209 10.368L9.19078 9.69134C8.97063 9.25581 8.57603 8.93338 8.10399 8.8062L7.71374 10.2545Z" fill="#141B34"/>
<path d="M6 20L22 20" stroke="#141B34" stroke-width="1.5" stroke-linecap="round" stroke-linejoin="round"/>
</svg>
