<svg width="24" height="24" viewBox="0 0 24 24" fill="none" xmlns="http://www.w3.org/2000/svg">
<path d="M3.5 3.5L10 10" stroke="#141B34" stroke-width="1.5" stroke-linecap="round" stroke-linejoin="round"/>
<path d="M3.5 20.5L10 14" stroke="#141B34" stroke-width="1.5" stroke-linecap="round" stroke-linejoin="round"/>
<path d="M20.5 3.5L14 10" stroke="#141B34" stroke-width="1.5" stroke-linecap="round" stroke-linejoin="round"/>
<path d="M20.5 20.5L14 14" stroke="#141B34" stroke-width="1.5" stroke-linecap="round" stroke-linejoin="round"/>
<path d="M20.9011 8L20.9948 4.02348C21.0062 3.54199 21.0119 3.30124 20.8642 3.15062C20.7165 3 20.4748 3 19.9913 3H16" stroke="#141B34" stroke-width="1.5" stroke-linecap="round" stroke-linejoin="round"/>
<path d="M8 3H4C3.5286 3 3.29289 3 3.14645 3.14645C3 3.29289 3 3.5286 3 4V8" stroke="#141B34" stroke-width="1.5" stroke-linecap="round" stroke-linejoin="round"/>
<path d="M3 16V20C3 20.4714 3 20.7071 3.14645 20.8536C3.29289 21 3.5286 21 4 21H8" stroke="#141B34" stroke-width="1.5" stroke-linecap="round" stroke-linejoin="round"/>
<path d="M16 21H20C20.4714 21 20.7071 21 20.8536 20.8536C21 20.7071 21 20.4714 21 20V16" stroke="#141B34" stroke-width="1.5" stroke-linecap="round" stroke-linejoin="round"/>
</svg>
