<svg width="24" height="24" viewBox="0 0 24 24" fill="none" xmlns="http://www.w3.org/2000/svg">
<path d="M7.3981 8.10008L6.71162 7.79801L6.71162 7.79802L7.3981 8.10008ZM5.97202 11.341L6.49542 11.8782C6.56436 11.811 6.61973 11.7312 6.6585 11.6431L5.97202 11.341ZM18.962 11.4169L19.2903 12.0912L19.2903 12.0912L18.962 11.4169ZM20.1412 10.7956L20.5731 11.4088L20.5731 11.4088L20.1412 10.7956ZM20.8833 6.34162L21.4869 5.89638V5.89638L20.8833 6.34162ZM18.8514 16.6782L18.6739 15.9495L18.8514 16.6782ZM13.9044 17.8828L14.0818 18.6115H14.0818L13.9044 17.8828ZM4.11649 13.149L4.63979 13.6863L4.6399 13.6862L4.11649 13.149ZM20.3201 10.7254C19.9801 10.4888 19.5127 10.5727 19.2761 10.9127C19.0396 11.2527 19.1235 11.7201 19.4635 11.9567L20.3201 10.7254ZM2.5108 15.3952L1.76467 15.3192L2.5108 15.3952ZM11.076 19.9275L10.5527 19.3902H10.5527L11.076 19.9275ZM8.76978 21.4914L8.84198 22.2379L8.76978 21.4914ZM16.8212 13.6005C16.8212 14.0147 17.157 14.3505 17.5712 14.3505C17.9854 14.3505 18.3212 14.0147 18.3212 13.6005L16.8212 13.6005ZM10.491 3.94223L10.0012 3.37424L10.0012 3.37424L10.491 3.94223ZM6.71162 7.79802L5.28554 11.039L6.6585 11.6431L8.08458 8.40215L6.71162 7.79802ZM19.2903 12.0912C19.9015 11.7935 20.2943 11.6052 20.5731 11.4088L19.7094 10.1824C19.5556 10.2907 19.3063 10.415 18.6336 10.7426L19.2903 12.0912ZM20.5731 11.4088C22.3773 10.1383 22.7953 7.66999 21.4869 5.89638L20.2798 6.78686C21.0815 7.87361 20.8357 9.38929 19.7094 10.1824L20.5731 11.4088ZM18.6739 15.9495L13.727 17.1541L14.0818 18.6115L19.0288 17.4069L18.6739 15.9495ZM4.6399 13.6862L6.49542 11.8782L5.44862 10.8039L3.59309 12.6118L4.6399 13.6862ZM19.4635 11.9567C21.049 13.0597 20.6068 15.4788 18.6739 15.9495L19.0288 17.4069C22.1794 16.6398 22.9986 12.5888 20.3201 10.7254L19.4635 11.9567ZM3.5932 12.6117C3.09871 13.0934 2.671 13.5075 2.36661 13.9022C2.04197 14.3231 1.82111 14.7655 1.76467 15.3192L3.25693 15.4713C3.27771 15.2674 3.35022 15.083 3.55437 14.8183C3.77878 14.5273 4.1153 14.1971 4.63979 13.6863L3.5932 12.6117ZM10.5527 19.3902C9.46512 20.4495 9.15699 20.7004 8.69758 20.7449L8.84198 22.2379C9.93811 22.1319 10.6489 21.3904 11.5993 20.4647L10.5527 19.3902ZM13.727 17.1541C12.2688 17.5091 11.3226 18.6404 10.5527 19.3902L11.5993 20.4647C12.5397 19.5489 13.1282 18.8437 14.0818 18.6115L13.727 17.1541ZM18.6336 10.7426C17.5188 11.2855 16.8212 12.2899 16.8212 13.6005L18.3212 13.6005C18.3212 12.9032 18.6551 12.4006 19.2903 12.0912L18.6336 10.7426ZM21.4869 5.89638C20.2163 4.17405 18.3702 2.70528 16.3275 2.07615C14.2534 1.43734 11.9759 1.67145 10.0012 3.37424L10.9808 4.51021C12.5143 3.18785 14.2383 3.00223 15.886 3.5097C17.565 4.02684 19.161 5.27035 20.2798 6.78686L21.4869 5.89638ZM8.08458 8.40215C8.74483 6.90168 9.73352 5.58579 10.9808 4.51021L10.0012 3.37424C8.59124 4.59012 7.46512 6.08564 6.71162 7.79801L8.08458 8.40215ZM8.69758 20.7449C8.35475 20.778 7.82547 20.6534 7.16669 20.3134C6.5273 19.9835 5.84615 19.4918 5.22858 18.9122C4.61047 18.332 4.07912 17.6854 3.72192 17.0588C3.35742 16.4195 3.21576 15.8752 3.25693 15.4713L1.76467 15.3192C1.67868 16.1626 1.97926 17.0307 2.41881 17.8017C2.86566 18.5855 3.50014 19.3471 4.20203 20.0059C4.90447 20.6652 5.69748 21.2432 6.47879 21.6464C7.24071 22.0396 8.07866 22.3117 8.84198 22.2379L8.69758 20.7449Z" fill="#141B34"/>
<path d="M6.75 11.5C6.75 11.0858 6.41421 10.75 6 10.75C5.58579 10.75 5.25 11.0858 5.25 11.5H6.75ZM12.2772 19.2161C12.6727 19.3392 13.0931 19.1183 13.2161 18.7228C13.3392 18.3273 13.1183 17.9069 12.7228 17.7839L12.2772 19.2161ZM12.7228 17.7839C11.3613 17.3603 9.84041 16.3863 8.66226 15.1767C7.46687 13.9494 6.75 12.6123 6.75 11.5H5.25C5.25 13.1877 6.28313 14.8839 7.58774 16.2233C8.90959 17.5804 10.6387 18.7064 12.2772 19.2161L12.7228 17.7839Z" fill="#141B34"/>
</svg>
