<svg width="24" height="24" viewBox="0 0 24 24" fill="none" xmlns="http://www.w3.org/2000/svg">
<path d="M2 8V7.25C1.58579 7.25 1.25 7.58579 1.25 8H2ZM13.1111 22.75C13.5253 22.75 13.8611 22.4142 13.8611 22C13.8611 21.5858 13.5253 21.25 13.1111 21.25V22.75ZM21.25 12.5C21.25 12.9142 21.5858 13.25 22 13.25C22.4142 13.25 22.75 12.9142 22.75 12.5H21.25ZM22 8H22.75C22.75 7.58579 22.4142 7.25 22 7.25V8ZM3.30175 20.7447L3.82235 20.2049L3.82235 20.2049L3.30175 20.7447ZM16.5358 14.7199L17.0214 15.2915V15.2915L16.5358 14.7199ZM17.9258 14.6174C18.2668 14.3822 18.3526 13.9152 18.1174 13.5742C17.8822 13.2332 17.4152 13.1474 17.0742 13.3826L17.9258 14.6174ZM16.5358 17.2801L16.0502 17.8516H16.0502L16.5358 17.2801ZM17.0742 18.6174C17.4152 18.8526 17.8822 18.7668 18.1174 18.4258C18.3526 18.0848 18.2668 17.6178 17.9258 17.3826L17.0742 18.6174ZM13 21.25C12.5858 21.25 12.25 21.5858 12.25 22C12.25 22.4142 12.5858 22.75 13 22.75V21.25ZM1.25 8V13.4286H2.75V8H1.25ZM10.8889 22.75H13.1111V21.25H10.8889V22.75ZM22.75 12.5V8H21.25V12.5H22.75ZM1.25 13.4286C1.25 15.4269 1.24829 17.0039 1.4199 18.2347C1.59493 19.4901 1.96296 20.4957 2.78115 21.2846L3.82235 20.2049C3.33879 19.7386 3.05595 19.1064 2.90553 18.0276C2.75171 16.9243 2.75 15.4708 2.75 13.4286H1.25ZM10.8889 21.25C8.77329 21.25 7.25938 21.2485 6.10855 21.0993C4.97658 20.9526 4.30973 20.6748 3.82235 20.2049L2.78115 21.2846C3.59552 22.0699 4.6271 22.4198 5.9157 22.5869C7.18543 22.7515 8.81422 22.75 10.8889 22.75V21.25ZM2 8.75H22V7.25H2V8.75ZM16.0502 14.1484C15.7228 14.4265 15.4128 14.6874 15.1953 14.9352C14.9603 15.2029 14.75 15.5462 14.75 16H16.25C16.25 16.0538 16.2123 16.0504 16.3226 15.9247C16.4503 15.7792 16.6582 15.6001 17.0214 15.2915L16.0502 14.1484ZM17.5 14C17.0742 13.3826 17.0742 13.3826 17.0741 13.3826C17.0741 13.3826 17.0741 13.3827 17.0741 13.3827C17.074 13.3827 17.074 13.3827 17.0739 13.3828C17.0738 13.3829 17.0736 13.383 17.0734 13.3831C17.073 13.3834 17.0725 13.3838 17.0718 13.3842C17.0704 13.3852 17.0684 13.3866 17.0659 13.3883C17.0609 13.3918 17.0536 13.3969 17.0443 13.4033C17.0257 13.4162 16.9991 13.4348 16.9662 13.458C16.9005 13.5042 16.8093 13.5689 16.7067 13.6431C16.5067 13.7881 16.2455 13.9824 16.0502 14.1484L17.0214 15.2915C17.1695 15.1657 17.3905 15 17.5867 14.8579C17.6822 14.7887 17.7676 14.7281 17.8291 14.685C17.8597 14.6634 17.8843 14.6462 17.901 14.6346C17.9094 14.6288 17.9158 14.6244 17.92 14.6214C17.9221 14.62 17.9236 14.6189 17.9246 14.6182C17.9251 14.6179 17.9255 14.6176 17.9257 14.6175C17.9258 14.6174 17.9258 14.6174 17.9258 14.6174C17.9259 14.6174 17.9259 14.6174 17.9259 14.6174C17.9259 14.6174 17.9258 14.6174 17.9258 14.6174C17.9258 14.6174 17.9258 14.6174 17.5 14ZM17.0214 16.7085C16.6582 16.3999 16.4503 16.2208 16.3226 16.0753C16.2123 15.9496 16.25 15.9462 16.25 16H14.75C14.75 16.4538 14.9603 16.7971 15.1953 17.0648C15.4128 17.3126 15.7228 17.5735 16.0502 17.8516L17.0214 16.7085ZM17.5 18C17.9258 17.3826 17.9258 17.3826 17.9258 17.3826C17.9258 17.3826 17.9259 17.3826 17.9259 17.3826C17.9259 17.3826 17.9259 17.3826 17.9258 17.3826C17.9258 17.3826 17.9258 17.3826 17.9257 17.3825C17.9255 17.3824 17.9251 17.3821 17.9246 17.3818C17.9236 17.3811 17.9221 17.38 17.92 17.3786C17.9158 17.3756 17.9094 17.3712 17.901 17.3654C17.8843 17.3538 17.8597 17.3366 17.8291 17.315C17.7676 17.2719 17.6822 17.2113 17.5867 17.1421C17.3905 17 17.1695 16.8343 17.0214 16.7085L16.0502 17.8516C16.2455 18.0176 16.5067 18.2119 16.7067 18.3569C16.8093 18.4311 16.9005 18.4958 16.9662 18.542C16.9991 18.5652 17.0257 18.5838 17.0443 18.5967C17.0536 18.6031 17.0609 18.6082 17.0659 18.6117C17.0684 18.6134 17.0704 18.6148 17.0718 18.6158C17.0725 18.6162 17.073 18.6166 17.0734 18.6169C17.0736 18.617 17.0738 18.6171 17.0739 18.6172C17.074 18.6173 17.074 18.6173 17.0741 18.6173C17.0741 18.6173 17.0741 18.6174 17.0741 18.6174C17.0742 18.6174 17.0742 18.6174 17.5 18ZM15.5 16.75H19V15.25H15.5V16.75ZM21.25 19C21.25 20.2426 20.2426 21.25 19 21.25V22.75C21.0711 22.75 22.75 21.0711 22.75 19H21.25ZM19 16.75C20.2426 16.75 21.25 17.7574 21.25 19H22.75C22.75 16.9289 21.0711 15.25 19 15.25V16.75ZM13 22.75H19V21.25H13V22.75Z" fill="#141B34"/>
<path d="M2 8L2.96154 5.69231C3.70726 3.90257 4.08013 3.0077 4.8359 2.50385C5.59167 2 6.56112 2 8.5 2H15.5C17.4389 2 18.4083 2 19.1641 2.50385C19.9199 3.0077 20.2927 3.90257 21.0385 5.69231L22 8" stroke="#141B34" stroke-width="1.5" stroke-linecap="round"/>
<path d="M12 8V2" stroke="#141B34" stroke-width="1.5" stroke-linecap="round"/>
<path d="M10 12H14" stroke="#141B34" stroke-width="1.5" stroke-linecap="round"/>
</svg>
