<svg width="24" height="24" viewBox="0 0 24 24" fill="none" xmlns="http://www.w3.org/2000/svg">
<path d="M22 12L2 12" stroke="#141B34" stroke-width="1.5" stroke-linecap="round" stroke-linejoin="round"/>
<path d="M3.5 12.1816C3.5 9.21847 3.5 7.73688 3.96894 6.55357C4.72281 4.65125 6.31714 3.15071 8.33836 2.44118C9.59563 1.99982 11.1698 1.99982 14.3182 1.99982C16.1173 1.99982 17.0168 1.99982 17.7352 2.25202C18.8902 2.65747 19.8012 3.51492 20.232 4.60196C20.5 5.27814 20.5 6.12476 20.5 7.818L20.5 11.9998" stroke="#141B34" stroke-width="1.5" stroke-linejoin="round"/>
<path d="M3.5 12C3.5 10.1591 4.99238 8.66667 6.83333 8.66667C7.49912 8.66667 8.28404 8.78333 8.93137 8.60988C9.50652 8.45576 9.95576 8.00652 10.1099 7.43136C10.2833 6.78404 10.1667 5.99912 10.1667 5.33333C10.1667 3.49238 11.6591 2 13.5 2" stroke="#141B34" stroke-width="1.5" stroke-linecap="round" stroke-linejoin="round"/>
<path d="M6 15L6 17M10 15V22M14 15V18M18 15V20" stroke="#141B34" stroke-width="1.5" stroke-linecap="round" stroke-linejoin="round"/>
</svg>
