<svg width="24" height="24" viewBox="0 0 24 24" fill="none" xmlns="http://www.w3.org/2000/svg">
<path d="M7.99369 17.25C7.57948 17.25 7.24369 17.5858 7.24369 18C7.24369 18.4142 7.57948 18.75 7.99369 18.75V17.25ZM6.70301 12.5155C6.32266 12.6795 6.14728 13.1208 6.31131 13.5012C6.47533 13.8815 6.91663 14.0569 7.29699 13.8929L6.70301 12.5155ZM7.99369 18.75C9.79032 18.75 11.25 17.2967 11.25 15.5H9.75C9.75 16.4647 8.96546 17.25 7.99369 17.25V18.75ZM11.25 15.5C11.25 13.7033 9.79032 12.25 7.99369 12.25V13.75C8.96546 13.75 9.75 14.5353 9.75 15.5H11.25ZM7.99369 12.25C7.53667 12.25 7.09976 12.3444 6.70301 12.5155L7.29699 13.8929C7.50958 13.8012 7.74464 13.75 7.99369 13.75V12.25Z" fill="#141B34"/>
<path d="M17.1959 13.7043L17.7764 14.1792H17.7764L17.1959 13.7043ZM12.9938 18.8409L12.4133 18.366H12.4133L12.9938 18.8409ZM7.53941 18.1232L6.8018 18.259H6.8018L7.53941 18.1232ZM6.46892 12.3075L7.20653 12.1718L6.46892 12.3075ZM9.26621 21.9886L9.36404 21.245H9.36404L9.26621 21.9886ZM15.4057 11.3632L15.5061 10.62L15.4057 11.3632ZM6.44416 7.96331L6.11813 7.28788H6.11813L6.44416 7.96331ZM17.8555 12.316L18.574 12.101L18.574 12.101L17.8555 12.316ZM17.6825 11.9957L18.2622 11.5199L18.2622 11.5199L17.6825 11.9957ZM12.8147 10.4536C12.8147 10.8678 13.1505 11.2036 13.5647 11.2036C13.9789 11.2036 14.3147 10.8678 14.3147 10.4536H12.8147ZM13.0577 2.54667L12.6103 3.14861L13.0577 2.54667ZM12.3586 2.07736L12.0883 2.77697V2.77697L12.3586 2.07736ZM10.9053 2.7263L11.6216 2.94858V2.94858L10.9053 2.7263ZM17.2006 6.46813L17.3056 7.21073L17.2006 6.46813ZM18.0586 6.38646L17.9685 7.13103H17.9685L18.0586 6.38646ZM18.5738 8.33636L19.2108 8.73222V8.73222L18.5738 8.33636ZM18.9679 7.62356L18.2432 7.43028L18.9679 7.62356ZM13.1881 10.562C12.9707 10.9145 13.0802 11.3766 13.4327 11.5941C13.7853 11.8115 14.2473 11.702 14.4648 11.3494L13.1881 10.562ZM15.997 11.0619C15.7784 11.4137 15.8864 11.8762 16.2382 12.0948C16.59 12.3134 17.0525 12.2055 17.2711 11.8537L15.997 11.0619ZM7.41133 8.44573C7.41133 8.85994 7.74712 9.19573 8.16133 9.19573C8.57555 9.19573 8.91133 8.85994 8.91133 8.44573H7.41133ZM10.356 4.47431L9.90863 5.07625L10.356 4.47431ZM9.6569 4.005L9.38664 4.70461L9.38664 4.70461L9.6569 4.005ZM8.20363 4.65394L8.91993 4.87622L8.20363 4.65394ZM10.8562 5.22146L11.6008 5.13132V5.13132L10.8562 5.22146ZM12.8147 9.44975C12.8147 9.86396 13.1505 10.1997 13.5647 10.1997C13.9789 10.1997 14.3147 9.86396 14.3147 9.44975H12.8147ZM14.0716 4.47431L14.519 5.07625L14.0716 4.47431ZM14.7708 4.005L15.041 4.70461L15.041 4.70461L14.7708 4.005ZM16.224 4.65394L15.5077 4.87622L16.224 4.65394ZM13.5714 5.22146L12.8269 5.13132V5.13132L13.5714 5.22146ZM10.113 7.08133C10.113 7.49555 10.4488 7.83133 10.863 7.83133C11.2772 7.83133 11.613 7.49555 11.613 7.08133H10.113ZM16.6154 13.2294L12.4133 18.366L13.5743 19.3158L17.7764 14.1792L16.6154 13.2294ZM8.27702 17.9875L7.20653 12.1718L5.73131 12.4433L6.8018 18.259L8.27702 17.9875ZM12.4133 18.366C11.5022 19.4797 10.8701 20.2494 10.3413 20.7346C9.81555 21.2171 9.54904 21.2693 9.36404 21.245L9.16837 22.7322C10.0239 22.8447 10.7255 22.4179 11.3555 21.8398C11.9826 21.2643 12.694 20.3917 13.5743 19.3158L12.4133 18.366ZM6.8018 18.259C7.02465 19.4697 7.20848 20.4858 7.48376 21.2048C7.62531 21.5745 7.81286 21.9286 8.09192 22.2072C8.38706 22.5018 8.74977 22.6771 9.16837 22.7322L9.36404 21.245C9.26239 21.2316 9.20632 21.2002 9.15162 21.1456C9.08085 21.0749 8.98752 20.9373 8.88462 20.6685C8.67101 20.1106 8.51169 19.2624 8.27702 17.9875L6.8018 18.259ZM15.5061 10.62C13.0803 10.2924 11.0776 9.41248 9.58716 8.63232C9.21449 8.43724 8.87474 8.24893 8.56641 8.0762C8.26237 7.90587 7.97825 7.74464 7.73455 7.61434C7.49584 7.4867 7.25704 7.36733 7.0437 7.29146C6.93639 7.2533 6.80677 7.2155 6.66789 7.20055C6.53308 7.18604 6.32854 7.18632 6.11813 7.28788L6.77019 8.63874C6.63472 8.70413 6.52595 8.69394 6.50736 8.69194C6.48469 8.6895 6.49172 8.68719 6.54109 8.70475C6.64109 8.74031 6.79574 8.81332 7.02727 8.93712C7.25382 9.05826 7.51676 9.20752 7.83329 9.38484C8.14554 9.55976 8.49988 9.75626 8.89153 9.96127C10.4584 10.7814 12.6368 11.7462 15.3054 12.1065L15.5061 10.62ZM7.20653 12.1718C6.95657 10.8138 6.78549 9.8749 6.75472 9.22841C6.73939 8.90624 6.76422 8.72997 6.79251 8.64231C6.81125 8.58424 6.81017 8.61944 6.77019 8.63874L6.11813 7.28788C5.72232 7.47894 5.48506 7.80965 5.36502 8.18159C5.25453 8.52393 5.23798 8.91216 5.25642 9.29972C5.29321 10.0727 5.49034 11.1341 5.73131 12.4433L7.20653 12.1718ZM17.7764 14.1792C18.0196 13.8819 18.2729 13.5774 18.4304 13.2856C18.6154 12.9426 18.7081 12.5493 18.574 12.101L17.1369 12.531C17.1394 12.5392 17.1358 12.5281 17.1381 12.5123C17.1396 12.5026 17.1396 12.5188 17.1102 12.5734C17.0372 12.7088 16.8969 12.8853 16.6154 13.2294L17.7764 14.1792ZM15.3054 12.1065C15.9817 12.1978 16.4281 12.2592 16.7468 12.3375C17.0699 12.4169 17.1109 12.4814 17.1028 12.4716L18.2622 11.5199C17.9541 11.1445 17.5155 10.9818 17.1048 10.8808C16.6895 10.7787 16.1476 10.7066 15.5061 10.62L15.3054 12.1065ZM18.574 12.101C18.5118 11.8932 18.3964 11.6833 18.2622 11.5199L17.1028 12.4716C17.1065 12.4761 17.1156 12.4886 17.1253 12.5066C17.1297 12.5147 17.133 12.5218 17.1353 12.5272C17.1376 12.5327 17.1379 12.5341 17.1369 12.531L18.574 12.101ZM14.3147 10.4536V3.52668H12.8147V10.4536H14.3147ZM13.5051 1.94473C13.3239 1.81002 13.171 1.69622 13.0459 1.61038C12.9258 1.52792 12.7847 1.43795 12.6288 1.37775L12.0883 2.77697C12.0734 2.77123 12.0958 2.77762 12.197 2.84707C12.2932 2.91312 12.4194 3.00675 12.6103 3.14861L13.5051 1.94473ZM11.613 3.52668C11.613 3.2987 11.6132 3.1511 11.6176 3.04259C11.6224 2.92689 11.6308 2.91893 11.6216 2.94858L10.189 2.50402C10.1375 2.66996 10.1247 2.84083 10.1189 2.98056C10.1128 3.12749 10.113 3.31194 10.113 3.52668H11.613ZM12.6288 1.37775C11.6705 1.00753 10.5095 1.47103 10.189 2.50402L11.6216 2.94858C11.6402 2.88868 11.6897 2.82525 11.7813 2.78433C11.8734 2.74324 11.9847 2.73693 12.0883 2.77697L12.6288 1.37775ZM17.3056 7.21073C17.5468 7.1766 17.7077 7.15395 17.8279 7.14131C17.9545 7.128 17.9811 7.13256 17.9685 7.13103L18.1487 5.6419C17.9847 5.62205 17.8178 5.6341 17.671 5.64954C17.5178 5.66566 17.3254 5.693 17.0955 5.72553L17.3056 7.21073ZM19.2108 8.73222C19.3266 8.54596 19.4254 8.38715 19.4987 8.25795C19.5681 8.13579 19.6481 7.98372 19.6926 7.81684L18.2432 7.43028C18.251 7.40109 18.2531 7.4137 18.1941 7.51767C18.1391 7.6146 18.0593 7.74335 17.9368 7.9405L19.2108 8.73222ZM17.9685 7.13103C18.0845 7.14508 18.1639 7.20129 18.2071 7.26004C18.2489 7.3169 18.2581 7.3745 18.2432 7.43028L19.6926 7.81684C19.9803 6.73796 19.1811 5.76686 18.1487 5.6419L17.9685 7.13103ZM14.4648 11.3494L16.9047 7.39373L15.628 6.60627L13.1881 10.562L14.4648 11.3494ZM17.9368 7.9405L15.997 11.0619L17.2711 11.8537L19.2108 8.73222L17.9368 7.9405ZM7.41133 5.45432V8.44573H8.91133V5.45432H7.41133ZM10.8034 3.87237C10.6222 3.73766 10.4693 3.62386 10.3442 3.53802C10.2241 3.45556 10.083 3.36559 9.92716 3.30539L9.38664 4.70461C9.37177 4.69887 9.39418 4.70526 9.49535 4.77471C9.59158 4.84076 9.71776 4.93439 9.90863 5.07625L10.8034 3.87237ZM8.91133 5.45432C8.91133 5.22633 8.91149 5.07874 8.91598 4.97023C8.92077 4.85453 8.92913 4.84656 8.91993 4.87622L7.48732 4.43166C7.43583 4.5976 7.42305 4.76847 7.41726 4.9082C7.41118 5.05513 7.41133 5.23958 7.41133 5.45432H8.91133ZM9.92716 3.30539C8.96881 2.93517 7.80787 3.39867 7.48732 4.43166L8.91993 4.87622C8.93852 4.81632 8.98803 4.75289 9.07967 4.71197C9.17169 4.67088 9.28299 4.66457 9.38664 4.70461L9.92716 3.30539ZM11.613 5.45432C11.613 5.35473 11.6143 5.24268 11.6008 5.13132L10.1117 5.3116C10.1111 5.30695 10.1118 5.30952 10.1124 5.33203C10.113 5.35783 10.113 5.39203 10.113 5.45432H11.613ZM14.3147 9.44975V5.45432H12.8147V9.44975H14.3147ZM15.5163 5.45432V7H17.0163V5.45432H15.5163ZM14.519 5.07625C14.7099 4.93439 14.8361 4.84076 14.9323 4.77471C15.0335 4.70526 15.0559 4.69887 15.041 4.70461L14.5005 3.30539C14.3447 3.36559 14.2036 3.45556 14.0834 3.53802C13.9584 3.62386 13.8055 3.73766 13.6242 3.87237L14.519 5.07625ZM17.0163 5.45432C17.0163 5.23957 17.0165 5.05513 17.0104 4.9082C17.0046 4.76847 16.9918 4.5976 16.9403 4.43166L15.5077 4.87622C15.4985 4.84657 15.5069 4.85453 15.5117 4.97023C15.5162 5.07874 15.5163 5.22634 15.5163 5.45432H17.0163ZM15.041 4.70461C15.1447 4.66457 15.256 4.67088 15.348 4.71197C15.4396 4.75289 15.4891 4.81632 15.5077 4.87622L16.9403 4.43166C16.6198 3.39867 15.4589 2.93517 14.5005 3.30539L15.041 4.70461ZM14.3147 5.45432C14.3147 5.39203 14.3147 5.35783 14.3153 5.33203C14.3158 5.30952 14.3166 5.30695 14.316 5.3116L12.8269 5.13132C12.8134 5.24268 12.8147 5.35473 12.8147 5.45432H14.3147ZM10.113 3.52668V5.45432H11.613V3.52668H10.113ZM10.113 5.45432V7.08133H11.613V5.45432H10.113ZM9.90863 5.07625C10.002 5.14566 10.0522 5.19727 10.0793 5.23467C10.1012 5.26486 10.1085 5.28579 10.1117 5.3116L11.6008 5.13132C11.5243 4.49931 11.1243 4.11084 10.8034 3.87237L9.90863 5.07625ZM14.3147 3.52668C14.3147 2.8571 14.0235 2.33002 13.5051 1.94473L12.6103 3.14861C12.7747 3.27084 12.8147 3.364 12.8147 3.52668H14.3147ZM13.6242 3.87237C13.3034 4.11084 12.9034 4.49931 12.8269 5.13132L14.316 5.3116C14.3191 5.28579 14.3265 5.26486 14.3484 5.23467C14.3755 5.19727 14.4256 5.14566 14.519 5.07625L13.6242 3.87237ZM17.0955 5.72553C16.8604 5.75879 16.5836 5.81328 16.3171 5.95176C16.0323 6.09977 15.8075 6.31736 15.6293 6.60414L16.9034 7.39586C16.9555 7.31198 16.9887 7.29322 17.0088 7.28277C17.0473 7.26277 17.1224 7.23666 17.3056 7.21073L17.0955 5.72553Z" fill="#141B34"/>
</svg>
