<svg width="24" height="24" viewBox="0 0 24 24" fill="none" xmlns="http://www.w3.org/2000/svg">
<path d="M17.4142 11.4142L16.8839 10.8839L16.8839 10.8839L17.4142 11.4142ZM18.75 8C18.75 7.58579 18.4142 7.25 18 7.25C17.5858 7.25 17.25 7.58579 17.25 8H18.75ZM6.75 8C6.75 7.58579 6.41421 7.25 6 7.25C5.58579 7.25 5.25 7.58579 5.25 8H6.75ZM6.58579 11.4142L6.05546 11.9445L6.05546 11.9445L6.58579 11.4142ZM12.75 12C12.75 11.5858 12.4142 11.25 12 11.25C11.5858 11.25 11.25 11.5858 11.25 12H12.75ZM11.25 16C11.25 16.4142 11.5858 16.75 12 16.75C12.4142 16.75 12.75 16.4142 12.75 16H11.25ZM10 12.75H14V11.25H10V12.75ZM14 12.75C14.9216 12.75 15.6883 12.7516 16.2945 12.6701C16.9223 12.5857 17.4891 12.4 17.9445 11.9445L16.8839 10.8839C16.7536 11.0142 16.5561 11.1214 16.0946 11.1835C15.6116 11.2484 14.964 11.25 14 11.25V12.75ZM17.25 8C17.25 8.96401 17.2484 9.61157 17.1835 10.0946C17.1214 10.5561 17.0142 10.7536 16.8839 10.8839L17.9445 11.9445C18.4 11.4891 18.5857 10.9223 18.6701 10.2945C18.7516 9.68826 18.75 8.92161 18.75 8H17.25ZM5.25 8C5.25 8.92161 5.24841 9.68826 5.32991 10.2945C5.41432 10.9223 5.59999 11.4891 6.05546 11.9445L7.11612 10.8839C6.9858 10.7536 6.87858 10.5561 6.81654 10.0946C6.75159 9.61157 6.75 8.96401 6.75 8H5.25ZM10 11.25C9.03599 11.25 8.38843 11.2484 7.90539 11.1835C7.44393 11.1214 7.24643 11.0142 7.11612 10.8839L6.05546 11.9445C6.51093 12.4 7.07773 12.5857 7.70552 12.6701C8.31174 12.7516 9.07839 12.75 10 12.75V11.25ZM11.25 12V16H12.75V12H11.25Z" fill="#141B34"/>
<circle cx="6" cy="6" r="2" stroke="#141B34" stroke-width="1.5"/>
<circle cx="12" cy="18" r="2" stroke="#141B34" stroke-width="1.5"/>
<circle cx="18" cy="6" r="2" stroke="#141B34" stroke-width="1.5"/>
</svg>
