<svg width="24" height="24" viewBox="0 0 24 24" fill="none" xmlns="http://www.w3.org/2000/svg">
<path d="M12.0343 19.3211L11.5056 18.7891L12.0343 19.3211ZM6.3069 18.9985L5.98297 19.6749L5.98297 19.6749L6.3069 18.9985ZM3.61412 17.8919V17.1419V17.8919ZM9.99609 9L9.47901 8.45675C9.25684 8.66822 9.18583 8.99365 9.2997 9.27844C9.41357 9.56324 9.68938 9.75 9.99609 9.75V9ZM12.3248 6.78341L12.8419 7.32666C12.8575 7.31182 12.8724 7.29632 12.8867 7.2802L12.3248 6.78341ZM9.90747 4.3775L10.3601 4.97551C10.3639 4.9726 10.3678 4.96966 10.3715 4.96668L9.90747 4.3775ZM5.57248 7.65863L5.11984 7.06062L5.11984 7.06062L5.57248 7.65863ZM12.0908 4.36948L12.5504 3.77682L12.5504 3.77682L12.0908 4.36948ZM1.99609 17.1419C1.58188 17.1419 1.24609 17.4777 1.24609 17.8919C1.24609 18.3061 1.58188 18.6419 1.99609 18.6419V17.1419ZM1.99609 8.10181C1.58188 8.10181 1.24609 8.43759 1.24609 8.85181C1.24609 9.26602 1.58188 9.60181 1.99609 9.60181L1.99609 8.10181ZM3.88057 8.71263L4.10342 9.42876L4.10342 9.42876L3.88057 8.71263ZM3.99878 8.6732L4.25054 9.37968L4.25055 9.37967L3.99878 8.6732ZM20.2461 9V9.75V9ZM20.2461 12.5V11.75V12.5ZM14.4961 12.5V11.75C14.2914 11.75 14.0956 11.8337 13.9541 11.9816C13.8126 12.1295 13.7377 12.3288 13.7468 12.5333L14.4961 12.5ZM11.5056 18.7891C11.0868 19.2053 10.3392 19.3421 9.3251 19.1903C8.34752 19.0439 7.33028 18.657 6.63083 18.322L5.98297 19.6749C6.76019 20.0471 7.92624 20.4975 9.10299 20.6737C10.2432 20.8445 11.621 20.789 12.5629 19.8531L11.5056 18.7891ZM6.63083 18.322C6.45608 18.2383 6.26636 18.1332 6.04537 18.0096C5.8317 17.8901 5.59083 17.7546 5.34347 17.6309C4.86101 17.3897 4.25784 17.1419 3.61412 17.1419V18.6419C3.89601 18.6419 4.23981 18.7561 4.67263 18.9725C4.88291 19.0777 5.09176 19.1949 5.31325 19.3188C5.52742 19.4385 5.7583 19.5673 5.98297 19.6749L6.63083 18.322ZM10.5132 9.54325L12.8419 7.32666L11.8077 6.24016L9.47901 8.45675L10.5132 9.54325ZM9.45483 3.77948L5.11984 7.06062L6.02511 8.25665L10.3601 4.97551L9.45483 3.77948ZM12.5504 3.77682C11.6393 3.07019 10.3492 3.07482 9.4434 3.78831L10.3715 4.96668C10.7361 4.67956 11.2642 4.67752 11.6312 4.96214L12.5504 3.77682ZM12.8867 7.2802C13.8168 6.22827 13.6573 4.63524 12.5504 3.77682L11.6312 4.96214C12.0605 5.29514 12.1132 5.89049 11.763 6.28661L12.8867 7.2802ZM3.61412 17.1419H1.99609V18.6419H3.61412V17.1419ZM1.99609 9.60181C2.90871 9.60181 3.52217 9.60964 4.10342 9.42876L3.65771 7.99651C3.34451 8.09397 2.99981 8.10181 1.99609 8.10181L1.99609 9.60181ZM5.11984 7.06062C4.32848 7.6596 4.05411 7.85727 3.747 7.96672L4.25055 9.37967C4.82515 9.1749 5.30605 8.80091 6.02511 8.25665L5.11984 7.06062ZM4.10342 9.42876C4.15278 9.4134 4.20184 9.39703 4.25054 9.37968L3.74701 7.96672C3.71748 7.97724 3.6877 7.98717 3.65771 7.99651L4.10342 9.42876ZM20.2461 8.25L9.99609 8.25V9.75L20.2461 9.75V8.25ZM20.2461 11.75H14.4961V13.25H20.2461V11.75ZM13.7468 12.5333C13.8181 14.1369 13.4391 16.8679 11.5056 18.7891L12.5629 19.8531C14.9198 17.5111 15.326 14.2796 15.2454 12.4667L13.7468 12.5333ZM20.2461 9.75C20.7984 9.75 21.2461 10.1977 21.2461 10.75H22.7461C22.7461 9.36929 21.6268 8.25 20.2461 8.25V9.75ZM21.2461 10.75C21.2461 11.3023 20.7984 11.75 20.2461 11.75V13.25C21.6268 13.25 22.7461 12.1307 22.7461 10.75H21.2461Z" fill="#141B34"/>
</svg>
