<svg width="24" height="24" viewBox="0 0 24 24" fill="none" xmlns="http://www.w3.org/2000/svg">
<path d="M19.325 12.0382L18.793 11.5095L19.325 12.0382ZM19.0024 6.31081L19.6788 5.98688L19.6788 5.98688L19.0024 6.31081ZM17.8958 3.61802H17.1458H17.8958ZM9.00391 10H9.75391C9.75391 9.69328 9.56715 9.41747 9.28235 9.3036C8.99755 9.18973 8.67212 9.26075 8.46066 9.48291L9.00391 10ZM6.78731 12.3287L7.28411 12.8906C7.30023 12.8764 7.31573 12.8614 7.33056 12.8458L6.78731 12.3287ZM4.3814 9.91137L4.97059 10.3754C4.97357 10.3717 4.97651 10.3678 4.97942 10.364L4.3814 9.91137ZM7.66254 5.57638L7.06453 5.12375H7.06453L7.66254 5.57638ZM4.37338 12.0947L3.78073 12.5543L3.78073 12.5543L4.37338 12.0947ZM18.6458 2C18.6458 1.58579 18.31 1.25 17.8958 1.25C17.4816 1.25 17.1458 1.58579 17.1458 2H18.6458ZM9.60571 2C9.60571 1.58579 9.26993 1.25 8.85571 1.25C8.4415 1.25 8.10571 1.58579 8.10571 2L9.60571 2ZM8.71654 3.88447L9.43266 4.10733L9.43266 4.10733L8.71654 3.88447ZM8.6771 4.00268L9.38358 4.25446L9.38358 4.25445L8.6771 4.00268ZM9.00391 20.25H9.75391H9.00391ZM12.5039 20.25H11.7539H12.5039ZM12.5039 14.5L12.5372 13.7507C12.3327 13.7416 12.1334 13.8165 11.9855 13.958C11.8376 14.0995 11.7539 14.2953 11.7539 14.5H12.5039ZM19.857 12.5668C20.7929 11.6249 20.8484 10.2471 20.6776 9.1069C20.5015 7.93015 20.051 6.76409 19.6788 5.98688L18.3259 6.63473C18.6609 7.33418 19.0478 8.35143 19.1942 9.32901C19.346 10.3431 19.2092 11.0907 18.793 11.5095L19.857 12.5668ZM19.6788 5.98688C19.5712 5.76221 19.4425 5.53133 19.3227 5.31716C19.1988 5.09566 19.0816 4.88682 18.9764 4.67654C18.76 4.24372 18.6458 3.89992 18.6458 3.61802H17.1458C17.1458 4.26174 17.3936 4.86492 17.6348 5.34738C17.7585 5.59474 17.894 5.83561 18.0135 6.04928C18.1371 6.27026 18.2423 6.45999 18.3259 6.63473L19.6788 5.98688ZM8.46066 9.48291L6.24406 11.8117L7.33056 12.8458L9.54716 10.5171L8.46066 9.48291ZM4.97942 10.364L8.26056 6.02902L7.06453 5.12375L3.78339 9.45874L4.97942 10.364ZM4.96604 11.6351C4.68142 11.2681 4.68347 10.74 4.97059 10.3754L3.79222 9.4473C3.07872 10.3532 3.07409 11.6432 3.78073 12.5543L4.96604 11.6351ZM6.29052 11.7669C5.89439 12.1171 5.29904 12.0645 4.96604 11.6351L3.78073 12.5543C4.63915 13.6612 6.23218 13.8207 7.28411 12.8906L6.29052 11.7669ZM18.6458 3.61802V2H17.1458V3.61802H18.6458ZM8.10571 2C8.10571 3.00372 8.09788 3.34842 8.00041 3.66162L9.43266 4.10733C9.61354 3.52607 9.60571 2.91261 9.60571 2L8.10571 2ZM8.26056 6.02902C8.80481 5.30996 9.1788 4.82905 9.38358 4.25446L7.97063 3.75091C7.86118 4.05802 7.6635 4.33239 7.06453 5.12375L8.26056 6.02902ZM8.00041 3.66162C7.99108 3.69161 7.98115 3.72139 7.97062 3.75092L9.38358 4.25445C9.40094 4.20574 9.4173 4.15669 9.43266 4.10733L8.00041 3.66162ZM9.75391 20.25L9.75391 10H8.25391L8.25391 20.25H9.75391ZM13.2539 20.25V14.5H11.7539V20.25H13.2539ZM12.4706 15.2493C14.2835 15.3299 17.515 14.9237 19.857 12.5668L18.793 11.5095C16.8718 13.443 14.1408 13.8221 12.5372 13.7507L12.4706 15.2493ZM8.25391 20.25C8.25391 21.6307 9.3732 22.75 10.7539 22.75V21.25C10.2016 21.25 9.75391 20.8023 9.75391 20.25H8.25391ZM10.7539 22.75C12.1346 22.75 13.2539 21.6307 13.2539 20.25H11.7539C11.7539 20.8023 11.3062 21.25 10.7539 21.25V22.75Z" fill="#141B34"/>
</svg>
