<svg width="24" height="24" viewBox="0 0 24 24" fill="none" xmlns="http://www.w3.org/2000/svg">
<path d="M19.1737 12.9256V12.12C19.1737 10.6492 19.1737 9.91383 18.7234 9.45691C18.2732 9 17.5485 9 16.0992 9H7.90077C6.45147 9 5.72682 9 5.27658 9.45691C4.82634 9.91383 4.82634 10.6492 4.82634 12.12V12.9256C4.82634 13.3018 4.82634 13.4899 4.79345 13.6739C4.76056 13.858 4.69549 14.0341 4.56534 14.3863L4.34812 14.9742C3.16867 18.166 2.57895 19.7619 3.34312 20.8809C4.1073 22 5.78684 22 9.14591 22H14.8541C18.2132 22 19.8927 22 20.6569 20.8809C21.4211 19.7619 20.8313 18.166 19.6519 14.9742L19.4347 14.3863C19.3045 14.0341 19.2394 13.858 19.2065 13.6739C19.1737 13.4899 19.1737 13.3018 19.1737 12.9256Z" stroke="#141B34" stroke-width="1.5" stroke-linecap="round"/>
<path d="M16 11C16 5 13.8655 2 12 2C10.1345 2 8 5 8 11" stroke="#141B34" stroke-width="1.5" stroke-linecap="round"/>
<path d="M12 16C13.2504 16 14.944 18.6278 13.3547 18.8954C12.5228 19.0354 11.4711 19.0344 10.6453 18.8954C9.05602 18.6278 10.7496 16 12 16Z" stroke="#141B34" stroke-width="1.5" stroke-linecap="round"/>
<path d="M5.38614 14.357C5.03105 14.1438 4.5703 14.2588 4.35704 14.6139C4.14378 14.969 4.25876 15.4297 4.61386 15.643L5.38614 14.357ZM19.3861 15.643C19.7412 15.4297 19.8562 14.969 19.643 14.6139C19.4297 14.2588 18.969 14.1438 18.6139 14.357L19.3861 15.643ZM13.9016 16.2565C13.491 16.3108 13.2022 16.6877 13.2565 17.0984C13.3108 17.509 13.6877 17.7978 14.0984 17.7435L13.9016 16.2565ZM9.90163 17.7435C10.3123 17.7978 10.6892 17.509 10.7435 17.0984C10.7978 16.6877 10.509 16.3108 10.0984 16.2565L9.90163 17.7435ZM14.0984 17.7435C16.072 17.4824 17.5397 16.7519 19.3861 15.643L18.6139 14.357C16.8216 15.4334 15.5667 16.0362 13.9016 16.2565L14.0984 17.7435ZM4.61386 15.643C6.46027 16.7519 7.92802 17.4824 9.90163 17.7435L10.0984 16.2565C8.43331 16.0362 7.17839 15.4334 5.38614 14.357L4.61386 15.643Z" fill="#141B34"/>
</svg>
