<svg width="24" height="24" viewBox="0 0 24 24" fill="none" xmlns="http://www.w3.org/2000/svg">
<path d="M6.41674 21.8242L2.17577 17.5833C1.91358 17.3211 1.94957 16.8862 2.2513 16.6707C3.68346 15.6477 5.64529 15.8101 6.88979 17.0546L6.94544 17.1102C8.18994 18.3547 8.3523 20.3165 7.32933 21.7487C7.11381 22.0504 6.67893 22.0864 6.41674 21.8242Z" stroke="#141B34" stroke-width="1.5" stroke-linecap="round" stroke-linejoin="round"/>
<path d="M7 17L11 13" stroke="#141B34" stroke-width="1.5" stroke-linecap="round" stroke-linejoin="round"/>
<path d="M21.7139 5.15438L21.0733 5.54446L21.7139 5.15438ZM21.2954 6.55093L20.874 5.93054L20.874 5.93054L21.2954 6.55093ZM18.6738 9.53729L19.3476 9.86668L18.6738 9.53729ZM13.6953 13.6802L13.3887 12.9957H13.3887L13.6953 13.6802ZM18.8456 2.28609L19.2357 1.64551V1.64551L18.8456 2.28609ZM17.4491 2.70459L16.8287 2.28314L17.4491 2.70459ZM14.4627 5.32619L14.7921 5.99999L14.4627 5.32619ZM10.3198 10.3047L11.0043 10.6113H11.0043L10.3198 10.3047ZM18.103 2.01068L17.9441 1.27772L17.9441 1.27772L18.103 2.01068ZM12.5432 13.9841L12.4074 14.7217L12.4074 14.7217L12.5432 13.9841ZM21.9893 5.89698L21.2564 5.73803V5.73803L21.9893 5.89698ZM19.9133 4.08673C20.4626 4.63605 20.8334 5.15053 21.0733 5.54446L22.3545 4.76431C22.0591 4.27919 21.6161 3.66825 20.9739 3.02607L19.9133 4.08673ZM20.874 5.93054C20.0364 6.49949 18.8117 7.54748 18 9.20791L19.3476 9.86668C20.0079 8.516 21.0137 7.64899 21.7169 7.17131L20.874 5.93054ZM18 9.20791C17.5919 10.0427 16.8721 10.8024 16.0126 11.4585C15.1582 12.1106 14.2056 12.6299 13.3887 12.9957L14.0018 14.3647C14.8956 13.9644 15.9544 13.3898 16.9227 12.6509C17.8858 11.9158 18.7999 10.9871 19.3476 9.86668L18 9.20791ZM20.9739 3.02607C20.3318 2.38389 19.7208 1.94092 19.2357 1.64551L18.4555 2.92667C18.8495 3.16655 19.364 3.53741 19.9133 4.08673L20.9739 3.02607ZM16.8287 2.28314C16.351 2.9863 15.484 3.99211 14.1333 4.65239L14.7921 5.99999C16.4525 5.18829 17.5005 3.96355 18.0695 3.12604L16.8287 2.28314ZM14.1333 4.65239C13.0129 5.2001 12.0842 6.11425 11.3491 7.07735C10.6102 8.04557 10.0356 9.10441 9.63533 9.9982L11.0043 10.6113C11.3701 9.79436 11.8894 8.84183 12.5415 7.98742C13.1976 7.12787 13.9573 6.40809 14.7921 5.99999L14.1333 4.65239ZM12.035 12.6888L11.3112 11.965L10.2505 13.0256L10.9744 13.7495L12.035 12.6888ZM19.2357 1.64551C19.0791 1.55014 18.8908 1.43313 18.7108 1.35817C18.4964 1.26887 18.2398 1.21358 17.9441 1.27772L18.262 2.74365C18.2318 2.75018 18.196 2.75204 18.1617 2.74751C18.1314 2.74351 18.1194 2.73674 18.1341 2.74286C18.1508 2.74982 18.1824 2.76501 18.2401 2.79783C18.2979 2.83074 18.3647 2.87135 18.4555 2.92667L19.2357 1.64551ZM18.0695 3.12604C18.1442 3.01598 18.203 2.92952 18.2552 2.85651C18.3075 2.78317 18.3432 2.73775 18.3688 2.70865C18.4201 2.65036 18.3789 2.71828 18.262 2.74365L17.9441 1.27772C17.613 1.34951 17.3915 1.54856 17.2427 1.71771C17.1042 1.87505 16.9641 2.0838 16.8287 2.28314L18.0695 3.12604ZM13.3887 12.9957C13.0996 13.1251 12.9464 13.1922 12.826 13.2282C12.7344 13.2556 12.7049 13.2513 12.6791 13.2465L12.4074 14.7217C13.0192 14.8344 13.5263 14.5776 14.0018 14.3647L13.3887 12.9957ZM10.9744 13.7495C11.1963 13.9714 11.4082 14.1851 11.6109 14.3442C11.8331 14.5186 12.0854 14.6624 12.4074 14.7217L12.6791 13.2465C12.6657 13.2441 12.6332 13.2397 12.5372 13.1643C12.4216 13.0736 12.2819 12.9357 12.035 12.6888L10.9744 13.7495ZM9.63533 9.9982C9.42238 10.4737 9.16559 10.9808 9.2783 11.5926L10.7535 11.3209C10.7487 11.2951 10.7444 11.2656 10.7718 11.174C10.8078 11.0536 10.8749 10.9004 11.0043 10.6113L9.63533 9.9982ZM11.3112 11.965C11.0643 11.7181 10.9264 11.5784 10.8357 11.4628C10.7603 11.3668 10.7559 11.3343 10.7535 11.3209L9.2783 11.5926C9.33762 11.9146 9.48137 12.1669 9.65582 12.3891C9.81493 12.5918 10.0286 12.8037 10.2505 13.0256L11.3112 11.965ZM21.0733 5.54446C21.1286 5.63529 21.1693 5.70213 21.2022 5.75993C21.235 5.81761 21.2502 5.84919 21.2571 5.8659C21.2633 5.88061 21.2565 5.86858 21.2525 5.83833C21.248 5.804 21.2498 5.76818 21.2564 5.73803L22.7223 6.05593C22.7864 5.76017 22.7311 5.50355 22.6418 5.28915C22.5669 5.10918 22.4499 4.92091 22.3545 4.76431L21.0733 5.54446ZM21.7169 7.17131C21.9162 7.03589 22.1249 6.89577 22.2823 6.75731C22.4514 6.60846 22.6505 6.38698 22.7223 6.05593L21.2564 5.73803C21.2817 5.62107 21.3496 5.57995 21.2914 5.63124C21.2623 5.65685 21.2168 5.69245 21.1435 5.74484C21.0705 5.79698 20.984 5.85577 20.874 5.93054L21.7169 7.17131Z" fill="#141B34"/>
<path d="M14.4998 9.5L14.5088 9.5" stroke="#141B34" stroke-width="2" stroke-linecap="round" stroke-linejoin="round"/>
</svg>
