<svg width="24" height="24" viewBox="0 0 24 24" fill="none" xmlns="http://www.w3.org/2000/svg">
<path d="M11.5 3C7.02166 3 4.78249 3 3.39124 4.39124C2 5.78249 2 8.02166 2 12.5C2 16.9783 2 19.2175 3.39124 20.6088C4.78249 22 7.02166 22 11.5 22C15.9783 22 18.2175 22 19.6088 20.6088C21 19.2175 21 16.9783 21 12.5C21 11.1397 21 9.98608 20.961 9" stroke="#141B34" stroke-width="1.5" stroke-linecap="round"/>
<path d="M4.5 21.4999C8.87246 16.275 13.7741 9.384 20.9975 14.0424" stroke="#141B34" stroke-width="1.5"/>
<path d="M14 6C14 6 15 6 16 8C16 8 19.1765 3 22 2" stroke="#141B34" stroke-width="1.5" stroke-linecap="round" stroke-linejoin="round"/>
</svg>
