<svg width="24" height="24" viewBox="0 0 24 24" fill="none" xmlns="http://www.w3.org/2000/svg">
<path d="M9.50454 21.9999C9.50454 22.4141 9.84033 22.7499 10.2545 22.7499C10.6688 22.7499 11.0045 22.4141 11.0045 21.9999H9.50454ZM7.6176 15.9999C7.6176 15.5857 7.28182 15.2499 6.8676 15.2499C6.45339 15.2499 6.1176 15.5857 6.1176 15.9999H7.6176ZM4.25 20.0608C4.25 19.6466 3.91421 19.3108 3.5 19.3108C3.08579 19.3108 2.75 19.6466 2.75 20.0608H4.25ZM19.7536 17.0728C19.7938 17.4851 20.1607 17.7866 20.5729 17.7463C20.9852 17.7061 21.2867 17.3392 21.2464 16.927L19.7536 17.0728ZM18.9338 18.7568C18.5234 18.8129 18.2362 19.1911 18.2923 19.6015C18.3484 20.0119 18.7266 20.2991 19.137 20.243L18.9338 18.7568ZM11.4091 16.7499H12.1789V15.2499H11.4091V16.7499ZM11.0045 21.9999V18.9999H9.50454V21.9999H11.0045ZM11.0045 18.9999V17.1999H9.50454V18.9999H11.0045ZM12.1789 18.2499H10.2545V19.7499H12.1789V18.2499ZM12.8721 17.4999C12.8721 17.9416 12.5348 18.2499 12.1789 18.2499V19.7499C13.4172 19.7499 14.3721 18.715 14.3721 17.4999H12.8721ZM12.1789 16.7499C12.5348 16.7499 12.8721 17.0581 12.8721 17.4999H14.3721C14.3721 16.2848 13.4172 15.2499 12.1789 15.2499V16.7499ZM11.4091 15.2499C11.159 15.2499 10.893 15.2482 10.6719 15.2791C10.4261 15.3134 10.129 15.4001 9.88318 15.6556L10.9641 16.6956C10.9323 16.7287 10.8959 16.7514 10.8673 16.7636C10.8448 16.7732 10.8421 16.7698 10.8795 16.7646C10.9175 16.7593 10.9758 16.7548 11.069 16.7524C11.1618 16.7499 11.2702 16.7499 11.4091 16.7499V15.2499ZM11.0045 17.1999C11.0045 17.0558 11.0046 16.9419 11.007 16.8441C11.0093 16.7459 11.0138 16.6817 11.0195 16.6377C11.0305 16.5524 11.0369 16.62 10.9641 16.6956L9.88318 15.6556C9.64128 15.907 9.56311 16.2039 9.53188 16.4453C9.50307 16.668 9.50454 16.9375 9.50454 17.1999H11.0045ZM6.1176 15.9999V20.0608H7.6176V15.9999H6.1176ZM6.1176 20.0608C6.1176 20.5808 5.95999 20.8703 5.80845 21.0233C5.65322 21.1801 5.44214 21.2581 5.21295 21.2492C4.77114 21.232 4.25 20.8819 4.25 20.0608H2.75C2.75 21.6926 3.91267 22.6998 5.15465 22.7481C5.76736 22.7719 6.39819 22.5597 6.87438 22.0787C7.35427 21.594 7.6176 20.8983 7.6176 20.0608H6.1176ZM17.3024 19.9999V17.9999H15.8024V19.9999H17.3024ZM18.5388 21.2499C18.0492 21.2499 17.758 21.2483 17.5496 21.2201C17.4542 21.2072 17.407 21.192 17.3863 21.1834C17.377 21.1796 17.3739 21.1774 17.3744 21.1777C17.3751 21.1782 17.3758 21.1788 17.3754 21.1785L16.3111 22.2355C16.619 22.5455 16.9938 22.6585 17.3484 22.7065C17.6808 22.7515 18.0919 22.7499 18.5388 22.7499V21.2499ZM15.8024 19.9999C15.8024 20.4502 15.8008 20.8629 15.8453 21.1964C15.8927 21.551 16.004 21.9263 16.3111 22.2355L17.3754 21.1785C17.375 21.1781 17.3751 21.1781 17.3754 21.1785C17.3757 21.1789 17.3758 21.1791 17.3758 21.179C17.3757 21.1789 17.3751 21.178 17.3741 21.1761C17.3731 21.1741 17.3715 21.1707 17.3694 21.1656C17.3603 21.1435 17.3451 21.0947 17.3321 20.9979C17.3039 20.7868 17.3024 20.4924 17.3024 19.9999H15.8024ZM19.7752 19.9999C19.7752 20.4924 19.7736 20.7868 19.7454 20.9979C19.7325 21.0947 19.7172 21.1435 19.7082 21.1656C19.7061 21.1707 19.7045 21.1741 19.7034 21.1761C19.7024 21.178 19.7019 21.1789 19.7018 21.179C19.7017 21.1791 19.7019 21.1789 19.7022 21.1785C19.7025 21.1781 19.7026 21.1781 19.7022 21.1785L20.7664 22.2355C21.0735 21.9263 21.1849 21.551 21.2322 21.1964C21.2768 20.8629 21.2752 20.4502 21.2752 19.9999H19.7752ZM18.5388 22.7499C18.9856 22.7499 19.3967 22.7515 19.7292 22.7065C20.0838 22.6585 20.4586 22.5455 20.7664 22.2355L19.7022 21.1785C19.7018 21.1788 19.7025 21.1782 19.7032 21.1777C19.7037 21.1774 19.7006 21.1796 19.6913 21.1834C19.6706 21.192 19.6233 21.2072 19.528 21.2201C19.3195 21.2483 19.0283 21.2499 18.5388 21.2499V22.7499ZM18.5388 15.2499C18.0919 15.2499 17.6808 15.2483 17.3484 15.2933C16.9938 15.3413 16.619 15.4543 16.3111 15.7643L17.3754 16.8213C17.3758 16.821 17.3751 16.8216 17.3744 16.8221C17.3739 16.8224 17.377 16.8202 17.3863 16.8164C17.407 16.8078 17.4542 16.7926 17.5496 16.7797C17.758 16.7515 18.0492 16.7499 18.5388 16.7499V15.2499ZM17.3024 17.9999C17.3024 17.5074 17.3039 17.213 17.3321 17.0019C17.3451 16.9051 17.3603 16.8563 17.3694 16.8342C17.3715 16.8291 17.3731 16.8257 17.3741 16.8237C17.3751 16.8218 17.3757 16.8209 17.3758 16.8208C17.3758 16.8207 17.3757 16.8209 17.3754 16.8213C17.3751 16.8217 17.375 16.8217 17.3754 16.8213L16.3111 15.7643C16.004 16.0735 15.8927 16.4488 15.8453 16.8034C15.8008 17.1369 15.8024 17.5496 15.8024 17.9999H17.3024ZM21.2752 19.9999C21.2752 19.492 20.9776 19.1528 20.6647 18.9738C20.3891 18.8163 20.0789 18.762 19.8545 18.7397C19.6152 18.7159 19.3865 18.721 19.2248 18.7303C19.1421 18.7351 19.0726 18.7413 19.0226 18.7465C18.9975 18.7491 18.9771 18.7514 18.9621 18.7532C18.9545 18.7541 18.9484 18.7549 18.9436 18.7555C18.9413 18.7558 18.9393 18.7561 18.9376 18.7563C18.9368 18.7564 18.9361 18.7565 18.9354 18.7566C18.9351 18.7566 18.9348 18.7567 18.9345 18.7567C18.9344 18.7567 18.9342 18.7568 18.9342 18.7568C18.934 18.7568 18.9338 18.7568 19.0354 19.4999C19.137 20.243 19.1368 20.243 19.1366 20.243C19.1366 20.243 19.1364 20.2431 19.1364 20.2431C19.1362 20.2431 19.136 20.2431 19.1359 20.2431C19.1356 20.2432 19.1354 20.2432 19.1353 20.2432C19.1351 20.2432 19.1352 20.2432 19.1357 20.2432C19.1366 20.243 19.1388 20.2428 19.1422 20.2424C19.149 20.2415 19.1606 20.2402 19.1762 20.2386C19.2077 20.2353 19.2546 20.2311 19.3116 20.2278C19.4292 20.221 19.573 20.2191 19.7061 20.2323C19.7718 20.2389 19.8258 20.2482 19.8672 20.2589C19.9103 20.27 19.9246 20.2786 19.9201 20.276C19.9145 20.2728 19.8741 20.2485 19.8351 20.1893C19.7916 20.1234 19.7752 20.0525 19.7752 19.9999H21.2752ZM18.5388 16.7499C18.7783 16.7499 18.9724 16.7459 19.1657 16.7551C19.3556 16.7641 19.4893 16.7845 19.5831 16.8142C19.6696 16.8417 19.6921 16.8673 19.6974 16.8737C19.7013 16.8784 19.7388 16.9222 19.7536 17.0728L21.2464 16.927C21.209 16.5435 21.0851 16.1952 20.8487 15.9122C20.6138 15.631 20.3173 15.4734 20.0364 15.3844C19.5286 15.2234 18.9111 15.2499 18.5388 15.2499V16.7499Z" fill="#141B34"/>
<path d="M3.5 13V12.1963C3.5 9.22892 3.5 7.74523 3.96894 6.56024C4.72281 4.65521 6.31714 3.15255 8.33836 2.44201C9.59563 2.00003 11.1698 2.00003 14.3182 2.00003C16.1173 2.00003 17.0168 2.00003 17.7352 2.25259C18.8902 2.65861 19.8012 3.51728 20.232 4.60587C20.5 5.283 20.5 6.13082 20.5 7.82646V12.0142V13" stroke="#141B34" stroke-width="1.5" stroke-linecap="round" stroke-linejoin="round"/>
<path d="M3.5 12C3.5 10.1591 4.99238 8.66667 6.83333 8.66667C7.49912 8.66667 8.28404 8.78333 8.93137 8.60988C9.50652 8.45576 9.95576 8.00652 10.1099 7.43136C10.2833 6.78404 10.1667 5.99912 10.1667 5.33333C10.1667 3.49238 11.6591 2 13.5 2" stroke="#141B34" stroke-width="1.5" stroke-linecap="round" stroke-linejoin="round"/>
</svg>
