<svg width="24" height="24" viewBox="0 0 24 24" fill="none" xmlns="http://www.w3.org/2000/svg">
<path d="M11.9983 2C9.14883 2 7.30123 4.01899 5.11615 4.7549C4.22768 5.05413 3.78345 5.20374 3.60366 5.41465C3.42388 5.62556 3.37124 5.93375 3.26595 6.55013C2.13925 13.146 4.6019 19.244 10.475 21.6175C11.106 21.8725 11.4216 22 12.0014 22C12.5812 22 12.8967 21.8725 13.5277 21.6175C19.4005 19.2439 21.8608 13.146 20.7338 6.55013C20.6284 5.93364 20.5758 5.6254 20.3959 5.41449C20.2161 5.20358 19.7719 5.05405 18.8835 4.75499C16.6976 4.01915 14.8479 2 11.9983 2Z" stroke="#141B34" stroke-width="1.5" stroke-linecap="round" stroke-linejoin="round"/>
<path d="M19.5303 5.53033C19.8232 5.23744 19.8232 4.76256 19.5303 4.46967C19.2374 4.17678 18.7626 4.17678 18.4697 4.46967L19.5303 5.53033ZM5.46967 17.4697C5.17678 17.7626 5.17678 18.2374 5.46967 18.5303C5.76256 18.8232 6.23744 18.8232 6.53033 18.5303L5.46967 17.4697ZM18.4697 4.46967L5.46967 17.4697L6.53033 18.5303L19.5303 5.53033L18.4697 4.46967Z" fill="#141B34"/>
</svg>
