<svg width="24" height="24" viewBox="0 0 24 24" fill="none" xmlns="http://www.w3.org/2000/svg">
<path d="M2.5 12C2.5 7.52166 2.5 5.28249 3.89124 3.89124C5.28249 2.5 7.52166 2.5 12 2.5C16.4783 2.5 18.7175 2.5 20.1088 3.89124C21.5 5.28249 21.5 7.52166 21.5 12C21.5 16.4783 21.5 18.7175 20.1088 20.1088C18.7175 21.5 16.4783 21.5 12 21.5C7.52166 21.5 5.28249 21.5 3.89124 20.1088C2.5 18.7175 2.5 16.4783 2.5 12Z" stroke="#141B34" stroke-width="1.5"/>
<path d="M7.75 8C7.75 7.58579 7.41421 7.25 7 7.25C6.58579 7.25 6.25 7.58579 6.25 8L7.75 8ZM6.25 16C6.25 16.4142 6.58579 16.75 7 16.75C7.41421 16.75 7.75 16.4142 7.75 16H6.25ZM11.6622 15.0391C11.9599 15.3271 12.4347 15.3191 12.7227 15.0214C13.0106 14.7236 13.0027 14.2488 12.7049 13.9609L11.6622 15.0391ZM10.9694 13.3258L10.448 13.865H10.448L10.9694 13.3258ZM10.9694 10.6742L10.448 10.135L10.448 10.135L10.9694 10.6742ZM12.7049 10.0391C13.0027 9.75118 13.0106 9.27637 12.7227 8.97862C12.4347 8.68086 11.9599 8.67292 11.6622 8.96087L12.7049 10.0391ZM17 12.75C17.4142 12.75 17.75 12.4142 17.75 12C17.75 11.5858 17.4142 11.25 17 11.25V12.75ZM6.25 8L6.25 16H7.75L7.75 8L6.25 8ZM12.7049 13.9609L11.4908 12.7867L10.448 13.865L11.6622 15.0391L12.7049 13.9609ZM11.4908 11.2133L12.7049 10.0391L11.6622 8.96087L10.448 10.135L11.4908 11.2133ZM11.4908 12.7867C11.1522 12.4593 10.9541 12.2654 10.8312 12.1096C10.721 11.97 10.75 11.9564 10.75 12H9.25C9.25 12.4319 9.44053 12.7687 9.65354 13.0387C9.85377 13.2925 10.1403 13.5674 10.448 13.865L11.4908 12.7867ZM10.448 10.135C10.1403 10.4326 9.85377 10.7075 9.65354 10.9613C9.44053 11.2313 9.25 11.5681 9.25 12H10.75C10.75 12.0436 10.721 12.03 10.8312 11.8904C10.9541 11.7346 11.1522 11.5407 11.4908 11.2133L10.448 10.135ZM10 12.75H17V11.25L10 11.25V12.75Z" fill="#141B34"/>
</svg>
