<svg width="24" height="24" viewBox="0 0 24 24" fill="none" xmlns="http://www.w3.org/2000/svg">
<path d="M7 15.25C6.58579 15.25 6.25 15.5858 6.25 16C6.25 16.4142 6.58579 16.75 7 16.75V15.25ZM11.9091 11.95C12.3233 11.95 12.6591 11.6142 12.6591 11.2C12.6591 10.7858 12.3233 10.45 11.9091 10.45V11.95ZM9.00566 12.4062L9.70768 12.1422V12.1422L9.00566 12.4062ZM9.90343 14.7938L10.6054 14.5299L9.90343 14.7938ZM10.3367 15.6773L10.8718 15.1518L10.8718 15.1518L10.3367 15.6773ZM11.6203 16.75C12.0345 16.75 12.3703 16.4142 12.3703 16C12.3703 15.5858 12.0345 15.25 11.6203 15.25V16.75ZM10.6586 15.9035L10.9706 15.2215L10.9706 15.2215L10.6586 15.9035ZM7.28877 10.45C6.87456 10.45 6.53877 10.7858 6.53877 11.2C6.53877 11.6142 6.87456 11.95 7.28877 11.95V10.45ZM8.25045 11.2965L7.93849 11.9785H7.93849L8.25045 11.2965ZM8.5724 11.5227L8.03728 12.0482H8.03728L8.5724 11.5227ZM14.5456 11.2L14.136 10.5717C13.858 10.753 13.7321 11.0955 13.8267 11.4136C13.9212 11.7318 14.2137 11.95 14.5456 11.95V11.2ZM17 11.95C17.4142 11.95 17.75 11.6142 17.75 11.2C17.75 10.7858 17.4142 10.45 17 10.45V11.95ZM16.5091 9.91995L16.0996 9.29167L16.0996 9.29167L16.5091 9.91995ZM15.7727 8L15.7727 7.25L15.7727 8ZM13.7955 9.06668C13.7955 9.4809 14.1312 9.81668 14.5455 9.81668C14.9597 9.81668 15.2955 9.4809 15.2955 9.06668H13.7955ZM7 16.75C7.81582 16.75 8.43386 16.2479 8.87757 15.7477C9.32887 15.2389 9.73356 14.5773 10.0932 13.9932L8.8159 13.2068C8.43666 13.8227 8.10249 14.3611 7.75543 14.7523C7.40078 15.1521 7.16099 15.25 7 15.25V16.75ZM10.0932 13.9932C10.4724 13.3773 10.8066 12.8389 11.1537 12.4477C11.5083 12.0479 11.7481 11.95 11.9091 11.95V10.45C11.0933 10.45 10.4752 10.9521 10.0315 11.4523C9.58022 11.9611 9.17553 12.6227 8.8159 13.2068L10.0932 13.9932ZM8.30365 12.6701L8.75253 13.864L10.1566 13.336L9.70768 12.1422L8.30365 12.6701ZM8.75253 13.864L9.20141 15.0578L10.6054 14.5299L10.1566 13.336L8.75253 13.864ZM9.20141 15.0578C9.28726 15.2861 9.36591 15.4967 9.44622 15.669C9.53105 15.8511 9.63756 16.0358 9.80158 16.2028L10.8718 15.1518C10.8708 15.1508 10.8659 15.1459 10.8561 15.1307C10.8453 15.1138 10.829 15.0851 10.8058 15.0354C10.7554 14.9271 10.6993 14.7794 10.6054 14.5299L9.20141 15.0578ZM11.6203 15.25C11.0469 15.25 10.9972 15.2337 10.9706 15.2215L10.3467 16.5855C10.7419 16.7663 11.1927 16.75 11.6203 16.75V15.25ZM9.80158 16.2028C9.95831 16.3624 10.1429 16.4923 10.3467 16.5856L10.9706 15.2215C10.9347 15.2051 10.9011 15.1817 10.8718 15.1518L9.80158 16.2028ZM7.28877 11.95C7.86216 11.95 7.91185 11.9663 7.93849 11.9785L8.56242 10.6145C8.16715 10.4337 7.71635 10.45 7.28877 10.45V11.95ZM9.70768 12.1422C9.62183 11.9139 9.54318 11.7033 9.46287 11.531C9.37804 11.3489 9.27153 11.1642 9.10751 10.9972L8.03728 12.0482C8.03827 12.0492 8.04321 12.0541 8.05295 12.0693C8.06377 12.0862 8.08012 12.1149 8.10327 12.1646C8.15373 12.2729 8.20983 12.4206 8.30365 12.6701L9.70768 12.1422ZM7.93849 11.9785C7.97435 11.9949 8.00795 12.0183 8.03728 12.0482L9.10751 10.9972C8.95078 10.8376 8.76621 10.7077 8.56242 10.6145L7.93849 11.9785ZM14.5456 11.95H17V10.45H14.5456V11.95ZM16.0996 9.29167L14.136 10.5717L14.9552 11.8283L16.9187 10.5482L16.0996 9.29167ZM16.9187 10.5482C17.4153 10.2245 17.75 9.68416 17.75 9.06664H16.25C16.25 9.12059 16.221 9.21248 16.0996 9.29167L16.9187 10.5482ZM17.75 9.06664C17.75 7.96799 16.7624 7.24999 15.7727 7.25L15.7727 8.75C15.9367 8.75 16.0673 8.80787 16.1485 8.87849C16.2283 8.9478 16.25 9.01626 16.25 9.06664H17.75ZM15.7727 7.25C14.783 7.25001 13.7955 7.96802 13.7955 9.06668H15.2955C15.2955 9.01629 15.3172 8.94783 15.3969 8.87851C15.4782 8.80787 15.6088 8.75 15.7727 8.75L15.7727 7.25Z" fill="#141B34"/>
<circle cx="12" cy="12" r="10" stroke="#141B34" stroke-width="1.5"/>
</svg>
