<svg width="24" height="24" viewBox="0 0 24 24" fill="none" xmlns="http://www.w3.org/2000/svg">
<path d="M12.0343 21.3211L11.5056 20.7891L12.0343 21.3211ZM6.3069 20.9985L5.98297 21.6749L5.98297 21.6749L6.3069 20.9985ZM3.61412 19.8919V19.1419V19.8919ZM9.99609 11L9.47901 10.4567C9.25684 10.6682 9.18583 10.9936 9.2997 11.2784C9.41357 11.5632 9.68938 11.75 9.99609 11.75V11ZM12.3248 8.78341L12.8419 9.32666C12.8575 9.31182 12.8724 9.29632 12.8867 9.2802L12.3248 8.78341ZM9.90747 6.3775L10.3601 6.97551C10.3639 6.9726 10.3678 6.96966 10.3715 6.96668L9.90747 6.3775ZM5.57248 9.65863L5.11984 9.06062L5.11984 9.06062L5.57248 9.65863ZM12.0908 6.36948L12.5504 5.77682L12.5504 5.77682L12.0908 6.36948ZM1.99609 19.1419C1.58188 19.1419 1.24609 19.4777 1.24609 19.8919C1.24609 20.3061 1.58188 20.6419 1.99609 20.6419V19.1419ZM1.99609 10.1018C1.58188 10.1018 1.24609 10.4376 1.24609 10.8518C1.24609 11.266 1.58188 11.6018 1.99609 11.6018L1.99609 10.1018ZM3.88057 10.7126L4.10342 11.4288L4.10342 11.4288L3.88057 10.7126ZM3.99878 10.6732L4.25054 11.3797L4.25055 11.3797L3.99878 10.6732ZM20.2461 11V11.75V11ZM20.2461 14.5V13.75V14.5ZM14.4961 14.5V13.75C14.2914 13.75 14.0956 13.8337 13.9541 13.9816C13.8126 14.1295 13.7377 14.3288 13.7468 14.5333L14.4961 14.5ZM11.5056 20.7891C11.0868 21.2053 10.3392 21.3421 9.3251 21.1903C8.34752 21.0439 7.33028 20.657 6.63083 20.322L5.98297 21.6749C6.76019 22.0471 7.92624 22.4975 9.10299 22.6737C10.2432 22.8445 11.621 22.789 12.5629 21.8531L11.5056 20.7891ZM6.63083 20.322C6.45608 20.2383 6.26636 20.1332 6.04537 20.0096C5.8317 19.8901 5.59083 19.7546 5.34347 19.6309C4.86101 19.3897 4.25784 19.1419 3.61412 19.1419V20.6419C3.89601 20.6419 4.23981 20.7561 4.67263 20.9725C4.88291 21.0777 5.09176 21.1949 5.31325 21.3188C5.52742 21.4385 5.7583 21.5673 5.98297 21.6749L6.63083 20.322ZM10.5132 11.5433L12.8419 9.32666L11.8077 8.24016L9.47901 10.4567L10.5132 11.5433ZM9.45483 5.77948L5.11984 9.06062L6.02511 10.2566L10.3601 6.97551L9.45483 5.77948ZM12.5504 5.77682C11.6393 5.07019 10.3492 5.07482 9.4434 5.78831L10.3715 6.96668C10.7361 6.67956 11.2642 6.67752 11.6312 6.96214L12.5504 5.77682ZM12.8867 9.2802C13.8168 8.22827 13.6573 6.63524 12.5504 5.77682L11.6312 6.96214C12.0605 7.29514 12.1132 7.89049 11.763 8.28661L12.8867 9.2802ZM3.61412 19.1419H1.99609V20.6419H3.61412V19.1419ZM1.99609 11.6018C2.90871 11.6018 3.52217 11.6096 4.10342 11.4288L3.65771 9.99651C3.34451 10.094 2.99981 10.1018 1.99609 10.1018L1.99609 11.6018ZM5.11984 9.06062C4.32848 9.6596 4.05411 9.85727 3.747 9.96672L4.25055 11.3797C4.82515 11.1749 5.30605 10.8009 6.02511 10.2566L5.11984 9.06062ZM4.10342 11.4288C4.15278 11.4134 4.20184 11.397 4.25054 11.3797L3.74701 9.96672C3.71748 9.97724 3.6877 9.98717 3.65771 9.99651L4.10342 11.4288ZM20.2461 10.25L9.99609 10.25V11.75L20.2461 11.75V10.25ZM20.2461 13.75H14.4961V15.25H20.2461V13.75ZM13.7468 14.5333C13.8181 16.1369 13.4391 18.8679 11.5056 20.7891L12.5629 21.8531C14.9198 19.5111 15.326 16.2796 15.2454 14.4667L13.7468 14.5333ZM20.2461 11.75C20.7984 11.75 21.2461 12.1977 21.2461 12.75H22.7461C22.7461 11.3693 21.6268 10.25 20.2461 10.25V11.75ZM21.2461 12.75C21.2461 13.3023 20.7984 13.75 20.2461 13.75V15.25C21.6268 15.25 22.7461 14.1307 22.7461 12.75H21.2461Z" fill="#141B34"/>
<path d="M22 4.5L16 4.5M22 4.5C22 3.79977 20.0057 2.49153 19.5 2M22 4.5C22 5.20023 20.0057 6.50847 19.5 7" stroke="#141B34" stroke-width="1.5" stroke-linecap="round" stroke-linejoin="round"/>
</svg>
