<svg width="24" height="24" viewBox="0 0 24 24" fill="none" xmlns="http://www.w3.org/2000/svg">
<path d="M20.4673 21.528C20.7589 21.8222 21.2338 21.8243 21.528 21.5327C21.8222 21.2411 21.8243 20.7662 21.5327 20.472L20.4673 21.528ZM17.2365 18.2682L20.4673 21.528L21.5327 20.472L18.3019 17.2123L17.2365 18.2682ZM20.35 13.3C20.35 9.40639 17.1936 6.25 13.3 6.25V7.75C16.3652 7.75 18.85 10.2348 18.85 13.3H20.35ZM13.3 6.25C9.40639 6.25 6.25 9.40639 6.25 13.3H7.75C7.75 10.2348 10.2348 7.75 13.3 7.75V6.25ZM6.25 13.3C6.25 17.1936 9.40639 20.35 13.3 20.35V18.85C10.2348 18.85 7.75 16.3652 7.75 13.3H6.25ZM13.3 20.35C17.1936 20.35 20.35 17.1936 20.35 13.3H18.85C18.85 16.3652 16.3652 18.85 13.3 18.85V20.35Z" fill="#141B34"/>
<path d="M4 10C3.51076 9.96288 3.16925 9.87932 2.88886 9.69117C2.67048 9.54463 2.48298 9.35634 2.33706 9.13703C2 8.63045 2 7.92524 2 6.51483C2 5.10442 2 4.39921 2.33706 3.89263C2.48298 3.67332 2.67048 3.48502 2.88886 3.33849C3.39331 3 4.09554 3 5.5 3H18.5C19.9045 3 20.6067 3 21.1111 3.33849C21.3295 3.48502 21.517 3.67332 21.6629 3.89263C22 4.39921 22 5.10442 22 6.51483C22 7.80256 22 8.50243 21.7435 9" stroke="#141B34" stroke-width="1.5" stroke-linecap="round"/>
</svg>
