<svg width="24" height="24" viewBox="0 0 24 24" fill="none" xmlns="http://www.w3.org/2000/svg">
<path d="M18.3211 11.9618L17.7891 12.4905L18.3211 11.9618ZM17.9985 17.6892L18.6749 18.0131L18.6749 18.0131L17.9985 17.6892ZM16.8919 20.382H17.6419H16.8919ZM8 14L7.45675 14.5171C7.66822 14.7393 7.99365 14.8103 8.27844 14.6964C8.56324 14.5825 8.75 14.3067 8.75 14H8ZM5.78341 11.6713L6.32666 11.1542C6.31182 11.1386 6.29632 11.1236 6.2802 11.1094L5.78341 11.6713ZM3.3775 14.0886L3.97551 13.636C3.9726 13.6322 3.96966 13.6283 3.96668 13.6246L3.3775 14.0886ZM6.65864 18.4236L6.06062 18.8763H6.06062L6.65864 18.4236ZM3.36948 11.9053L2.77682 11.4457L2.77682 11.4457L3.36948 11.9053ZM16.1419 22C16.1419 22.4142 16.4777 22.75 16.8919 22.75C17.3061 22.75 17.6419 22.4142 17.6419 22H16.1419ZM7.10181 22C7.10181 22.4142 7.43759 22.75 7.85181 22.75C8.26602 22.75 8.60181 22.4142 8.60181 22H7.10181ZM7.71263 20.1155L8.42876 19.8927L7.71263 20.1155ZM7.6732 19.9973L8.37968 19.7456L8.37967 19.7455L7.6732 19.9973ZM8 3.75H8.75H8ZM11.5 3.75H12.25H11.5ZM11.5 9.5H10.75C10.75 9.70469 10.8337 9.90049 10.9816 10.042C11.1295 10.1835 11.3288 10.2584 11.5333 10.2493L11.5 9.5ZM17.7891 12.4905C18.2053 12.9093 18.3421 13.6569 18.1903 14.671C18.0439 15.6486 17.657 16.6658 17.322 17.3653L18.6749 18.0131C19.0471 17.2359 19.4975 16.0699 19.6737 14.8931C19.8445 13.7529 19.789 12.3751 18.8531 11.4332L17.7891 12.4905ZM17.322 17.3653C17.2383 17.54 17.1332 17.7297 17.0096 17.9507C16.8901 18.1644 16.7546 18.4053 16.6309 18.6526C16.3897 19.1351 16.1419 19.7383 16.1419 20.382H17.6419C17.6419 20.1001 17.7561 19.7563 17.9725 19.3235C18.0777 19.1132 18.1949 18.9043 18.3188 18.6828C18.4385 18.4687 18.5673 18.2378 18.6749 18.0131L17.322 17.3653ZM8.54325 13.4829L6.32666 11.1542L5.24016 12.1883L7.45675 14.5171L8.54325 13.4829ZM2.77948 14.5413L6.06062 18.8763L7.25665 17.971L3.97551 13.636L2.77948 14.5413ZM2.77682 11.4457C2.07019 12.3568 2.07482 13.6468 2.78831 14.5527L3.96668 13.6246C3.67956 13.26 3.67752 12.7319 3.96214 12.3649L2.77682 11.4457ZM6.2802 11.1094C5.22827 10.1793 3.63524 10.3388 2.77682 11.4457L3.96214 12.3649C4.29514 11.9355 4.89049 11.8829 5.28661 12.2331L6.2802 11.1094ZM16.1419 20.382V22H17.6419V20.382H16.1419ZM8.60181 22C8.60181 21.0874 8.60964 20.4739 8.42876 19.8927L6.99651 20.3384C7.09397 20.6516 7.10181 20.9963 7.10181 22H8.60181ZM6.06062 18.8763C6.6596 19.6676 6.85727 19.942 6.96672 20.2491L8.37967 19.7455C8.1749 19.1709 7.80091 18.69 7.25665 17.971L6.06062 18.8763ZM8.42876 19.8927C8.4134 19.8433 8.39703 19.7943 8.37968 19.7456L6.96672 20.2491C6.97724 20.2786 6.98717 20.3084 6.99651 20.3384L8.42876 19.8927ZM7.25 3.75V14H8.75V3.75H7.25ZM10.75 3.75V9.5H12.25V3.75H10.75ZM11.5333 10.2493C13.1369 10.1779 15.8679 10.557 17.7891 12.4905L18.8531 11.4332C16.5111 9.07631 13.2796 8.67013 11.4667 8.75074L11.5333 10.2493ZM8.75 3.75C8.75 3.19772 9.19772 2.75 9.75 2.75V1.25C8.36929 1.25 7.25 2.36929 7.25 3.75H8.75ZM9.75 2.75C10.3023 2.75 10.75 3.19772 10.75 3.75H12.25C12.25 2.36929 11.1307 1.25 9.75 1.25V2.75Z" fill="#141B34"/>
<path d="M15 4.5L21 4.5M15 4.5C15 3.79977 16.9943 2.49153 17.5 2M15 4.5C15 5.20023 16.9943 6.50847 17.5 7" stroke="#141B34" stroke-width="1.5" stroke-linecap="round" stroke-linejoin="round"/>
</svg>
