<svg width="24" height="24" viewBox="0 0 24 24" fill="none" xmlns="http://www.w3.org/2000/svg">
<path d="M18.5 12.1923H19.25L19.25 12.1916L18.5 12.1923ZM4.56729 16.9792L3.94679 17.4005C3.9577 17.4166 3.96923 17.4322 3.98135 17.4474L4.56729 16.9792ZM6.56252 19.4764L7.14846 19.0083L6.56252 19.4764ZM5.0343 10.3747L4.51704 9.83164C4.50364 9.8444 4.49071 9.85766 4.47829 9.87138L5.0343 10.3747ZM6.99493 9.54309C7.29487 9.25741 7.30643 8.78268 7.02076 8.48274C6.73508 8.1828 6.26035 8.17124 5.96041 8.45691L6.99493 9.54309ZM3.00519 13.9372L2.25651 13.9817L3.00519 13.9372ZM3.05904 13.1756L2.32406 13.0262L3.05904 13.1756ZM18.2083 17.668L18.9139 17.9223V17.9223L18.2083 17.668ZM5.75 13.5C5.75 13.9142 6.08579 14.25 6.5 14.25C6.91422 14.25 7.25 13.9142 7.25 13.5H5.75ZM11.75 11C11.75 11.4142 12.0858 11.75 12.5 11.75C12.9142 11.75 13.25 11.4142 13.25 11H11.75ZM12.5 9V8.25C12.0858 8.25 11.75 8.58579 11.75 9H12.5ZM14.75 12C14.75 12.4142 15.0858 12.75 15.5 12.75C15.9142 12.75 16.25 12.4142 16.25 12H14.75ZM15.5 10L15.6233 9.2602C15.4058 9.22396 15.1834 9.28523 15.0152 9.42773C14.847 9.57024 14.75 9.77954 14.75 10H15.5ZM16.8288 10.2215L16.9521 9.48167L16.9521 9.48167L16.8288 10.2215ZM8.75 11C8.75 11.4142 9.08579 11.75 9.5 11.75C9.91422 11.75 10.25 11.4142 10.25 11H8.75ZM6.25 22C6.25 22.4142 6.58579 22.75 7 22.75C7.41421 22.75 7.75 22.4142 7.75 22H6.25ZM17.1916 19.3462L16.6389 18.8392H16.6389L17.1916 19.3462ZM15.6804 22C15.6804 22.4142 16.0161 22.75 16.4304 22.75C16.8446 22.75 17.1804 22.4142 17.1804 22H15.6804ZM3.98135 17.4474L5.97657 19.9446L7.14846 19.0083L5.15323 16.511L3.98135 17.4474ZM5.55156 10.9178L6.99493 9.54309L5.96041 8.45691L4.51704 9.83164L5.55156 10.9178ZM5.18779 16.5579C4.67498 15.8026 4.32104 15.2799 4.08415 14.846C3.85404 14.4245 3.76895 14.1465 3.75387 13.8927L2.25651 13.9817C2.28969 14.5402 2.48104 15.04 2.76761 15.5648C3.0474 16.0773 3.45038 16.6693 3.94679 17.4005L5.18779 16.5579ZM4.47829 9.87138C3.88366 10.5282 3.40143 11.0597 3.05239 11.529C2.69502 12.0095 2.43545 12.478 2.32406 13.0262L3.79403 13.3249C3.84477 13.0751 3.96846 12.8108 4.25599 12.4242C4.55186 12.0264 4.97619 11.5564 5.59031 10.8781L4.47829 9.87138ZM3.75387 13.8927C3.74257 13.7026 3.75605 13.5118 3.79403 13.3249L2.32406 13.0262C2.2602 13.3405 2.23749 13.6616 2.25651 13.9817L3.75387 13.8927ZM17.75 13.8347C17.75 15.9151 17.7388 16.7586 17.5027 17.4137L18.9139 17.9223C19.2612 16.9586 19.25 15.7862 19.25 13.8347H17.75ZM7.25 13.5V3.5H5.75V13.5H7.25ZM8.75 3.5V8H10.25V3.5H8.75ZM8 2.75C8.41422 2.75 8.75 3.08579 8.75 3.5H10.25C10.25 2.25736 9.24264 1.25 8 1.25V2.75ZM7.25 3.5C7.25 3.08579 7.58579 2.75 8 2.75V1.25C6.75736 1.25 5.75 2.25736 5.75 3.5H7.25ZM9.5 8.75H10.5V7.25H9.5V8.75ZM11.75 10V11H13.25V10H11.75ZM10.5 8.75C11.1904 8.75 11.75 9.30964 11.75 10H13.25C13.25 8.48122 12.0188 7.25 10.5 7.25V8.75ZM13.25 10V9H11.75V10H13.25ZM12.5 9.75H13.5V8.25H12.5V9.75ZM14.75 11V12H16.25V11H14.75ZM13.5 9.75C14.1904 9.75 14.75 10.3096 14.75 11H16.25C16.25 9.48122 15.0188 8.25 13.5 8.25V9.75ZM16.25 11V10H14.75V11H16.25ZM15.3767 10.7398L16.7055 10.9613L16.9521 9.48167L15.6233 9.2602L15.3767 10.7398ZM16.7055 10.9613C17.3078 11.0616 17.7494 11.5825 17.75 12.193L19.25 12.1916C19.2487 10.8484 18.2772 9.70253 16.9521 9.48167L16.7055 10.9613ZM8.75 8V11H10.25V8H8.75ZM6.25 20.7248V22H7.75V20.7248H6.25ZM17.5027 17.4137C17.311 17.9458 17.0156 18.4286 16.6389 18.8392L17.7442 19.8532C18.2529 19.2987 18.6535 18.6449 18.9139 17.9223L17.5027 17.4137ZM15.6804 21.0449V22H17.1804V21.0449H15.6804ZM16.6389 18.8392C16.137 19.3863 15.6804 20.1443 15.6804 21.0449H17.1804C17.1804 20.663 17.3791 20.2512 17.7442 19.8532L16.6389 18.8392ZM5.97657 19.9446C6.15358 20.1661 6.25 20.4413 6.25 20.7248H7.75C7.75 20.101 7.53788 19.4957 7.14846 19.0083L5.97657 19.9446ZM17.75 12.1923V13.8347H19.25V12.1923H17.75Z" fill="#141B34"/>
<path d="M21 4.5L15 4.5M21 4.5C21 3.79977 19.0057 2.49153 18.5 2M21 4.5C21 5.20023 19.0057 6.50847 18.5 7" stroke="#141B34" stroke-width="1.5" stroke-linecap="round" stroke-linejoin="round"/>
</svg>
