<svg width="24" height="24" viewBox="0 0 24 24" fill="none" xmlns="http://www.w3.org/2000/svg">
<path d="M13 22H6.59087C5.04549 22 3.81631 21.248 2.71266 20.1966C0.453365 18.0441 4.1628 16.324 5.57757 15.4816C7.53058 14.3187 9.7927 13.8404 12 14.0466" stroke="#141B34" stroke-width="1.5" stroke-linecap="round" stroke-linejoin="round"/>
<path d="M15.5 6.5C15.5 8.98528 13.4853 11 11 11C8.51472 11 6.5 8.98528 6.5 6.5C6.5 4.01472 8.51472 2 11 2C13.4853 2 15.5 4.01472 15.5 6.5Z" stroke="#141B34" stroke-width="1.5"/>
<path d="M21.4668 22.5275C21.7581 22.8219 22.233 22.8245 22.5275 22.5332C22.8219 22.2419 22.8245 21.767 22.5332 21.4725L21.4668 22.5275ZM19.6224 20.6631L21.4668 22.5275L22.5332 21.4725L20.6887 19.6081L19.6224 20.6631ZM21.95 17.6C21.95 15.1976 20.0024 13.25 17.6 13.25V14.75C19.174 14.75 20.45 16.026 20.45 17.6H21.95ZM17.6 13.25C15.1976 13.25 13.25 15.1976 13.25 17.6H14.75C14.75 16.026 16.026 14.75 17.6 14.75V13.25ZM13.25 17.6C13.25 20.0024 15.1976 21.95 17.6 21.95V20.45C16.026 20.45 14.75 19.174 14.75 17.6H13.25ZM17.6 21.95C20.0024 21.95 21.95 20.0024 21.95 17.6H20.45C20.45 19.174 19.174 20.45 17.6 20.45V21.95Z" fill="#141B34"/>
</svg>
