<svg width="24" height="24" viewBox="0 0 24 24" fill="none" xmlns="http://www.w3.org/2000/svg">
<path d="M2 21.1932C2.68524 22.2443 3.57104 22.2443 4.27299 21.1932C6.52985 17.7408 8.67954 23.6764 10.273 21.2321C12.703 17.5694 14.4508 23.9218 16.273 21.1932C18.6492 17.5582 20.1295 23.5776 22 21.5842" stroke="#141B34" stroke-width="1.5" stroke-linecap="round"/>
<path d="M4.03634 11.9183C3.65563 11.7551 3.21471 11.9314 3.05153 12.3122C2.88836 12.6929 3.06471 13.1338 3.44543 13.297L4.03634 11.9183ZM12.8551 2.50141C13.132 2.19338 13.1068 1.71917 12.7987 1.44225C12.4907 1.16533 12.0165 1.19055 11.7396 1.49859L12.8551 2.50141ZM18.1159 15.1646C18.2858 15.5424 18.7297 15.711 19.1075 15.5411C19.4853 15.3713 19.6539 14.9274 19.4841 14.5496L18.1159 15.1646ZM7.66373 13.4202C7.9402 13.7286 8.41437 13.7546 8.72281 13.4781C9.03126 13.2016 9.05718 12.7274 8.78071 12.419L7.66373 13.4202ZM8.44659 3.59241C8.61598 3.21442 8.44687 2.77068 8.06887 2.60129C7.69088 2.4319 7.24714 2.60101 7.07775 2.97901L8.44659 3.59241ZM10.9992 5.64656C10.5935 5.72984 10.332 6.12628 10.4153 6.53204C10.4986 6.93779 10.895 7.19921 11.3008 7.11593L10.9992 5.64656ZM16.9272 12.6081C17.1052 12.2341 16.9464 11.7865 16.5724 11.6085C16.1984 11.4304 15.7509 11.5893 15.5728 11.9633L16.9272 12.6081ZM6.6875 17L6.23509 17.5982C6.37194 17.7017 6.54014 17.7551 6.71164 17.7496L6.6875 17ZM17.1237 16.4398C16.8143 16.7151 16.7867 17.1892 17.0621 17.4986C17.3374 17.808 17.8115 17.8356 18.1209 17.5602L17.1237 16.4398ZM12 2.75C16.2743 2.75 19.75 6.24583 19.75 10.5714L21.25 10.5714C21.25 5.42926 17.1145 1.25 12 1.25L12 2.75ZM4.25 10.5714C4.25 6.24583 7.72569 2.75 12 2.75L12 1.25C6.88546 1.25 2.75 5.42926 2.75 10.5714L4.25 10.5714ZM3.44543 13.297C6.33769 14.5366 9.49443 13.9831 12.1056 11.3693L11.0444 10.3092C8.8389 12.5169 6.32898 12.9009 4.03634 11.9183L3.44543 13.297ZM11.7396 1.49859C10.0326 3.39731 9.70094 6.72563 10.8504 11.0326L12.2996 10.6459C11.1881 6.4809 11.6724 3.81696 12.8551 2.50141L11.7396 1.49859ZM19.4841 14.5496C18.6832 12.768 15.9137 9.55648 11.4845 10.0947L11.6655 11.5838C15.206 11.1535 17.4718 13.7319 18.1159 15.1646L19.4841 14.5496ZM8.78071 12.419C8.13361 11.6971 7.64713 10.3717 7.53809 8.72393C7.43047 7.09768 7.6993 5.26003 8.44659 3.59241L7.07775 2.97901C6.22183 4.88902 5.919 6.97391 6.04136 8.82298C6.16231 10.6506 6.70746 12.3533 7.66373 13.4202L8.78071 12.419ZM11.3008 7.11593C12.334 6.90386 13.9156 7.10714 15.5659 7.78655C17.2006 8.4595 18.8027 9.55966 19.9002 11.0216L21.0998 10.1211C19.8073 8.39934 17.9647 7.15193 16.137 6.39949C14.3249 5.65353 12.4265 5.35362 10.9992 5.64656L11.3008 7.11593ZM15.5728 11.9633C15.1413 12.8698 13.9774 13.9176 12.3077 14.7674C10.6648 15.6035 8.64918 16.1864 6.66336 16.2504L6.71164 17.7496C8.94137 17.6778 11.1714 17.0288 12.988 16.1042C14.7778 15.1934 16.2874 13.9519 16.9272 12.6081L15.5728 11.9633ZM7.13991 16.4018C5.20834 14.941 4.25 12.9041 4.25 10.5714L2.75 10.5714C2.75 13.3589 3.91666 15.8448 6.23509 17.5982L7.13991 16.4018ZM19.75 10.5714C19.75 12.9096 18.7344 15.0062 17.1237 16.4398L18.1209 17.5602C20.0396 15.8526 21.25 13.3533 21.25 10.5714L19.75 10.5714Z" fill="#141B34"/>
</svg>
