<svg width="24" height="24" viewBox="0 0 24 24" fill="none" xmlns="http://www.w3.org/2000/svg">
<path d="M7 9.5C7 10.3284 6.32843 11 5.5 11C4.67157 11 4 10.3284 4 9.5C4 8.67157 4.67157 8 5.5 8C6.32843 8 7 8.67157 7 9.5Z" stroke="#141B34" stroke-width="1.5"/>
<path d="M9.74246 2.89393C9.68388 2.48388 9.30398 2.19896 8.89393 2.25754C8.48388 2.31612 8.19896 2.69602 8.25754 3.10607L9.74246 2.89393ZM9.64659 7.52611L8.90412 7.63217H8.90412L9.64659 7.52611ZM8.88241 12.2352L9.55323 12.5706L9.55323 12.5706L8.88241 12.2352ZM6.32918 15.6646C6.14394 16.0351 6.29411 16.4856 6.66459 16.6708C7.03507 16.8561 7.48558 16.7059 7.67082 16.3354L6.32918 15.6646ZM17.2803 12.3875L17.9955 12.1617V12.1616L17.2803 12.3875ZM19.2848 21.2258C19.4095 21.6208 19.8309 21.8399 20.2258 21.7152C20.6208 21.5905 20.8399 21.1691 20.7152 20.7742L19.2848 21.2258ZM9.81185 9.96947L9.07153 9.84933L9.81185 9.96947ZM16.1405 11.1429L15.8528 11.8355V11.8355L16.1405 11.1429ZM9.10224 11.7943L8.43028 11.4612L8.43028 11.4612L9.10224 11.7943ZM11.2978 20.7367C11.1523 21.1245 11.3488 21.5568 11.7367 21.7022C12.1245 21.8477 12.5568 21.6512 12.7022 21.2633L11.2978 20.7367ZM16.9054 11.7044L17.48 11.2224L16.9054 11.7044ZM8.25754 3.10607L8.90412 7.63217L10.389 7.42004L9.74246 2.89393L8.25754 3.10607ZM8.21159 11.8998L6.32918 15.6646L7.67082 16.3354L9.55323 12.5706L8.21159 11.8998ZM16.5651 12.6133L19.2848 21.2258L20.7152 20.7742L17.9955 12.1617L16.5651 12.6133ZM8.90412 7.63217C8.95823 8.01092 9.00266 8.32214 9.03609 8.59214L10.5247 8.40786C10.4892 8.12099 10.4425 7.79448 10.389 7.42004L8.90412 7.63217ZM9.03609 8.59214C9.11195 9.20504 9.12156 9.541 9.07153 9.84933L10.5522 10.0896C10.6376 9.56292 10.6046 9.05296 10.5247 8.40786L9.03609 8.59214ZM9.49261 9.19259L15.8528 11.8355L16.4283 10.4503L10.0682 7.80741L9.49261 9.19259ZM9.55323 12.5706C9.63177 12.4135 9.70574 12.2656 9.77421 12.1275L8.43028 11.4612C8.36317 11.5966 8.2904 11.7422 8.21159 11.8998L9.55323 12.5706ZM9.77421 12.1275C10.1779 11.3132 10.4475 10.7345 10.5522 10.0896L9.07153 9.84933C9.00847 10.2379 8.84618 10.6223 8.43028 11.4612L9.77421 12.1275ZM13.9228 13.7367L11.2978 20.7367L12.7022 21.2633L15.3272 14.2633L13.9228 13.7367ZM8.82408 12.4909L14.3468 14.6965L14.9032 13.3035L9.38041 11.0978L8.82408 12.4909ZM17.9955 12.1616C17.8856 11.8137 17.7091 11.4955 17.48 11.2224L16.3308 12.1864C16.4349 12.3106 16.5151 12.4552 16.5651 12.6133L17.9955 12.1616ZM17.48 11.2224C17.1997 10.8883 16.8406 10.6216 16.4283 10.4503L15.8528 11.8355C16.0401 11.9133 16.2033 12.0345 16.3308 12.1864L17.48 11.2224ZM16.3733 11.1759L14.0929 13.4714L15.1571 14.5286L17.4375 12.233L16.3733 11.1759Z" fill="#141B34"/>
</svg>
