<svg width="24" height="24" viewBox="0 0 24 24" fill="none" xmlns="http://www.w3.org/2000/svg">
<path d="M6.75 13.5C6.75 13.0858 6.41421 12.75 6 12.75C5.58579 12.75 5.25 13.0858 5.25 13.5H6.75ZM10.6572 12.7742L9.96462 13.062V13.062L10.6572 12.7742ZM10.491 15.0122L11.0879 15.4663L11.0879 15.4663L10.491 15.0122ZM19.1716 17.2426L19.702 17.773V17.773L19.1716 17.2426ZM20.5859 15.8284L20.0555 15.2981V15.2981L20.5859 15.8284ZM22 14.0116L22.75 14.0202V14.0202L22 14.0116ZM21.699 13.2848L21.1748 13.8212V13.8212L21.699 13.2848ZM17.3197 18.7716L17.6067 19.4645L17.6067 19.4645L17.3197 18.7716ZM18 12.25C17.5858 12.25 17.25 12.5858 17.25 13C17.25 13.4142 17.5858 13.75 18 13.75V12.25ZM8.5 15.25C7.5335 15.25 6.75 14.4665 6.75 13.5H5.25C5.25 15.2949 6.70507 16.75 8.5 16.75V15.25ZM6.5 18.25C4.42893 18.25 2.75 16.5711 2.75 14.5H1.25C1.25 17.3995 3.6005 19.75 6.5 19.75V18.25ZM2.75 14.5C2.75 12.4289 4.42893 10.75 6.5 10.75V9.25C3.6005 9.25 1.25 11.6005 1.25 14.5H2.75ZM6.5 19.75H14.929V18.25H6.5V19.75ZM6.5 10.75C8.06038 10.75 9.39989 11.7032 9.96462 13.062L11.3498 12.4864C10.5606 10.5875 8.68736 9.25 6.5 9.25V10.75ZM9.89404 14.5581C9.57313 14.98 9.06824 15.25 8.5 15.25V16.75C9.5566 16.75 10.4955 16.245 11.0879 15.4663L9.89404 14.5581ZM9.96462 13.062C10.2031 13.6359 10.1616 14.2065 9.89404 14.5581L11.0879 15.4663C11.7802 14.5561 11.7197 13.3765 11.3498 12.4864L9.96462 13.062ZM19.702 17.773L21.1162 16.3588L20.0555 15.2981L18.6413 16.7123L19.702 17.773ZM21.1162 16.3588C21.5745 15.9005 21.9583 15.5179 22.2224 15.1973C22.4697 14.8972 22.7444 14.5021 22.75 14.0202L21.25 14.0029C21.2509 13.9284 21.2884 13.972 21.0647 14.2435C20.8578 14.4946 20.5368 14.8168 20.0555 15.2981L21.1162 16.3588ZM19.4143 13.75C20.095 13.75 20.5497 13.7508 20.8736 13.7821C21.2237 13.8159 21.2281 13.8733 21.1748 13.8212L22.2231 12.7483C21.8784 12.4115 21.4048 12.3264 21.0177 12.2891C20.6043 12.2492 20.0624 12.25 19.4143 12.25V13.75ZM22.75 14.0202C22.7555 13.5421 22.5651 13.0825 22.2231 12.7483L21.1748 13.8212C21.2236 13.8689 21.2508 13.9346 21.25 14.0029L22.75 14.0202ZM14.929 19.75C16.0941 19.75 16.8855 19.7633 17.6067 19.4645L17.0327 18.0787C16.6512 18.2367 16.2164 18.25 14.929 18.25V19.75ZM18.6413 16.7123C17.7309 17.6227 17.4141 17.9207 17.0327 18.0787L17.6067 19.4645C18.3279 19.1658 18.8782 18.5968 19.702 17.773L18.6413 16.7123ZM19.4143 12.25H18V13.75H19.4143V12.25Z" fill="#141B34"/>
<path d="M10.5 15L17.1211 10.4933C17.308 10.3543 17.4748 10.1902 17.6163 10.0061C18.1007 9.37595 18.0912 8.50194 17.7841 7.77083C17.1009 6.14397 15.4796 5 13.5883 5C12.6546 5 11.7867 5.2788 11.065 5.75685L4 10.7508" stroke="#141B34" stroke-width="1.5" stroke-linecap="round" stroke-linejoin="round"/>
</svg>
