<svg width="24" height="24" viewBox="0 0 24 24" fill="none" xmlns="http://www.w3.org/2000/svg">
<path d="M9.25143 4.52665C10.2123 3.45799 10.9039 3 12.0033 3C13.1027 3 13.7877 3.45799 14.7486 4.52665C17.6807 8.5977 19.1463 11.651 20.2457 14.1954C21.3451 16.7398 21.3213 19.1419 19.6503 20.302C17.9793 21.4621 14 21.3198 12 18.7753C10 21.3198 6.02071 21.4621 4.34969 20.302C2.67867 19.1419 2.65485 16.7398 3.75428 14.1954C4.85371 11.651 6.31925 8.5977 9.25143 4.52665Z" fill="#D4D7E0"/>
<path d="M9 13.5896C9 11.502 10.5033 10 12.0033 10C13.5033 10 15 11.502 15 13.5896C15 15.6772 13.6557 16.9489 12 19C10.3443 16.9489 9 15.6772 9 13.5896Z" fill="white"/>
<path d="M12 18.7753C10.3443 16.7754 9 15.5355 9 13.5C9 11.4645 10.5033 10 12.0033 10C13.5033 10 15 11.4645 15 13.5C15 15.5355 13.6557 16.7754 12 18.7753ZM12 18.7753C10 21.3198 6.02071 21.4621 4.34969 20.302C2.67867 19.1419 2.65485 16.7398 3.75428 14.1954C4.85371 11.651 6.31925 8.5977 9.25143 4.52665C10.2123 3.45799 10.8973 3 11.9967 3C13.0961 3 13.7877 3.45799 14.7486 4.52665C17.6807 8.5977 19.1463 11.651 20.2457 14.1954C21.3451 16.7398 21.3213 19.1419 19.6503 20.302C17.9793 21.4621 14 21.3198 12 18.7753Z" stroke="#141B34" stroke-width="1.5" stroke-linecap="round" stroke-linejoin="round"/>
</svg>
