<svg width="24" height="24" viewBox="0 0 24 24" fill="none" xmlns="http://www.w3.org/2000/svg">
<path d="M17.5 9.5C17.5 6.46243 15.0376 4 12 4C8.96243 4 6.5 6.46243 6.5 9.5V10H17.5V9.5Z" fill="white"/>
<path d="M9.5 19H14.5C15.9142 19 16.6213 19 17.0607 18.5607C17.5 18.1213 17.5 17.4142 17.5 16V10H6.5V16C6.5 17.4142 6.5 18.1213 6.93934 18.5607C7.37868 19 8.08579 19 9.5 19Z" fill="#D4D7E0"/>
<path d="M6.5 9.5C6.5 6.46243 8.96243 4 12 4C15.0376 4 17.5 6.46243 17.5 9.5V16C17.5 17.4142 17.5 18.1213 17.0607 18.5607C16.6213 19 15.9142 19 14.5 19H9.5C8.08579 19 7.37868 19 6.93934 18.5607C6.5 18.1213 6.5 17.4142 6.5 16V9.5Z" stroke="#141B34" stroke-width="1.5"/>
<path d="M20 11V17" stroke="#141B34" stroke-width="1.5" stroke-linecap="round" stroke-linejoin="round"/>
<path d="M15 19V22" stroke="#141B34" stroke-width="1.5" stroke-linecap="round" stroke-linejoin="round"/>
<path d="M9 19V22" stroke="#141B34" stroke-width="1.5" stroke-linecap="round" stroke-linejoin="round"/>
<path d="M4 11V17" stroke="#141B34" stroke-width="1.5" stroke-linecap="round" stroke-linejoin="round"/>
<path d="M10 4L8.5 2M14 4L15.5 2" stroke="#141B34" stroke-width="1.5" stroke-linecap="round" stroke-linejoin="round"/>
<path d="M6.5 10H17.5" stroke="#141B34" stroke-width="1.5" stroke-linecap="round" stroke-linejoin="round"/>
</svg>
