<svg width="24" height="24" viewBox="0 0 24 24" fill="none" xmlns="http://www.w3.org/2000/svg">
<path d="M2.5 12C2.5 7.52166 2.5 5.28249 3.89124 3.89124C5.28249 2.5 7.52166 2.5 12 2.5C16.4783 2.5 18.7175 2.5 20.1088 3.89124C21.5 5.28249 21.5 7.52166 21.5 12C21.5 16.4783 21.5 18.7175 20.1088 20.1088C18.7175 21.5 16.4783 21.5 12 21.5C7.52166 21.5 5.28249 21.5 3.89124 20.1088C2.5 18.7175 2.5 16.4783 2.5 12Z" fill="#D4D7E0"/>
<path d="M20.1088 20.1141C21.5 18.7224 21.5 16.4825 21.5 12.0026C21.5 7.52274 21.5 5.28281 20.1088 3.89109C18.8282 2.61014 16.7912 2.50811 12.9892 2.5C12.1233 3.78634 10.5162 7.71527 10.0737 11.5822C9.98097 12.3927 9.9346 12.7979 10.1905 13.1206C10.2151 13.1516 10.2474 13.1873 10.2757 13.215C10.5708 13.5031 11.0149 13.5031 11.9031 13.5031C12.3889 13.5031 12.6317 13.5031 12.7766 13.6346C12.7923 13.6488 12.8051 13.6619 12.819 13.678C12.9468 13.8257 12.9383 14.0753 12.9212 14.5744C12.8685 16.1184 12.94 19.0527 13.9975 21.5C17.1497 21.4683 18.9474 21.2758 20.1088 20.1141Z" fill="white"/>
<path d="M2.5 12C2.5 7.52166 2.5 5.28249 3.89124 3.89124C5.28249 2.5 7.52166 2.5 12 2.5C16.4783 2.5 18.7175 2.5 20.1088 3.89124C21.5 5.28249 21.5 7.52166 21.5 12C21.5 16.4783 21.5 18.7175 20.1088 20.1088C18.7175 21.5 16.4783 21.5 12 21.5C7.52166 21.5 5.28249 21.5 3.89124 20.1088C2.5 18.7175 2.5 16.4783 2.5 12Z" stroke="#141B34" stroke-width="1.5" stroke-linejoin="round"/>
<path d="M7 8V10" stroke="#141B34" stroke-width="1.5" stroke-linecap="round" stroke-linejoin="round"/>
<path d="M17 8V10" stroke="#141B34" stroke-width="1.5" stroke-linecap="round" stroke-linejoin="round"/>
<path d="M7 16.5C10.5 18.5 13.5 18.5 17 16.5" stroke="#141B34" stroke-width="1.5" stroke-linecap="round" stroke-linejoin="round"/>
<path d="M12.9896 2.5C12.1238 3.78525 10.5163 7.71349 10.0737 11.5798C9.98097 12.3899 9.9346 12.795 10.1905 13.1176C10.5757 13.603 11.3584 13.5 11.9031 13.5C12.4416 13.5 12.6773 13.511 12.819 13.6748C12.9468 13.8225 12.9383 14.072 12.9212 14.5709C12.8685 16.1156 12.9401 19.0524 14 21.5" stroke="#141B34" stroke-width="1.5" stroke-linecap="round" stroke-linejoin="round"/>
</svg>
