<svg width="24" height="24" viewBox="0 0 24 24" fill="none" xmlns="http://www.w3.org/2000/svg">
<path d="M3.71429 19H5L5 13C3.34315 13 2 14.3431 2 16V17.2857C2 18.2325 2.76751 19 3.71429 19Z" fill="white"/>
<path d="M20.2857 19H19V13C20.6569 13 22 14.3431 22 16L22 17.2857C22 18.2325 21.2325 19 20.2857 19Z" fill="white"/>
<path d="M10.6664 21.9977H13.3331C14.8845 21.9977 15.6601 21.9977 16.2855 21.7854C17.4631 21.3857 18.3877 20.461 18.7875 19.2834C18.9772 18.7244 18.9974 18.0453 18.9995 16.7995C13.3993 11.441 6.99975 14.4977 5 16.7995C5.00214 18.0453 5.02228 18.7244 5.21203 19.2834C5.61175 20.461 6.53642 21.3857 7.71399 21.7854C8.33934 21.9977 9.11503 21.9977 10.6664 21.9977Z" fill="white"/>
<path d="M19 16.3333V12C19 8.13401 15.866 5 12 5C8.13401 5 5 8.13401 5 12V16.3333C5 16.498 5 16.6539 5.00025 16.8019C7 14.5 13.3995 11.4433 18.9997 16.8019C19 16.6539 19 16.498 19 16.3333Z" fill="#D4D7E0"/>
<path d="M5 12C5 8.13401 8.13401 5 12 5C15.866 5 19 8.13401 19 12V16.3333C19 17.8847 19 18.6604 18.7877 19.2858C18.388 20.4633 17.4633 21.388 16.2858 21.7877C15.6604 22 14.8847 22 13.3333 22H10.6667C9.11529 22 8.3396 22 7.71424 21.7877C6.53668 21.388 5.61201 20.4633 5.21228 19.2858C5 18.6604 5 17.8847 5 16.3333V12Z" stroke="#141B34" stroke-width="1.5" stroke-linejoin="round"/>
<path d="M5 17C6.64996 15.17 9.17273 14 12 14C14.8273 14 17.35 15.17 19 17" stroke="#141B34" stroke-width="1.5" stroke-linejoin="round"/>
<path d="M11 10H13" stroke="#141B34" stroke-width="1.5" stroke-linecap="round"/>
<path d="M9 6V5C9 4.06812 9 3.60218 9.15224 3.23463C9.35523 2.74458 9.74458 2.35523 10.2346 2.15224C10.6022 2 11.0681 2 12 2C12.9319 2 13.3978 2 13.7654 2.15224C14.2554 2.35523 14.6448 2.74458 14.8478 3.23463C15 3.60218 15 4.06812 15 5V6" stroke="#141B34" stroke-width="1.5"/>
<path d="M5 19H3.71429C2.76751 19 2 18.2325 2 17.2857L2 16C2 14.3431 3.34315 13 5 13" stroke="#141B34" stroke-width="1.5"/>
<path d="M19 19H20.2857C21.2325 19 22 18.2325 22 17.2857L22 16C22 14.3431 20.6569 13 19 13" stroke="#141B34" stroke-width="1.5"/>
</svg>
