<svg width="24" height="24" viewBox="0 0 24 24" fill="none" xmlns="http://www.w3.org/2000/svg">
<path d="M14 5V2" stroke="#141B34" stroke-width="1.5" stroke-linecap="round" stroke-linejoin="round"/>
<path d="M17 2H9C6.64298 2 5.46447 2 4.73223 2.73223C4 3.46447 4 4.64298 4 7V22" stroke="#141B34" stroke-width="1.5" stroke-linecap="round" stroke-linejoin="round"/>
<path d="M8 11.125C8 8.66719 8 7.43829 8.57782 6.5555C8.82796 6.17334 9.14939 5.84521 9.52376 5.58986C10.3885 5 11.5924 5 14 5C16.4076 5 17.6115 5 18.4762 5.58986C18.8506 5.84521 19.172 6.17334 19.4222 6.5555C20 7.43829 20 8.66719 20 11.125V12.875C20 15.3328 20 16.5617 19.4222 17.4445C19.172 17.8267 18.8506 18.1548 18.4762 18.4101C17.6115 19 16.4076 19 14 19C11.5924 19 10.3885 19 9.52376 18.4101C9.14939 18.1548 8.82796 17.8267 8.57782 17.4445C8 16.5617 8 15.3328 8 12.875V11.125Z" fill="#D4D7E0"/>
<path d="M18.4772 5.58986C17.6124 5 16.4086 5 14.0009 5C11.5933 5 10.3895 5 9.52468 5.58986C9.15032 5.84521 8.82889 6.17334 8.57874 6.5555C8.07093 7.33134 8.00941 8.37451 8.00195 10.2843C8.00195 10.2843 10.364 8.89565 12.0009 9C13.7439 9.11111 14.2751 10.7322 16.0009 11C17.5564 11.2413 20.0005 10.5 20.0005 10.5C19.9964 8.45213 19.9497 7.36007 19.4231 6.5555C19.173 6.17334 18.8515 5.84521 18.4772 5.58986Z" fill="white"/>
<path d="M8 11.125C8 8.66719 8 7.43829 8.57782 6.5555C8.82796 6.17334 9.14939 5.84521 9.52376 5.58986C10.3885 5 11.5924 5 14 5C16.4076 5 17.6115 5 18.4762 5.58986C18.8506 5.84521 19.172 6.17334 19.4222 6.5555C20 7.43829 20 8.66719 20 11.125V12.875C20 15.3328 20 16.5617 19.4222 17.4445C19.172 17.8267 18.8506 18.1548 18.4762 18.4101C17.6115 19 16.4076 19 14 19C11.5924 19 10.3885 19 9.52376 18.4101C9.14939 18.1548 8.82796 17.8267 8.57782 17.4445C8 16.5617 8 15.3328 8 12.875V11.125Z" stroke="#141B34" stroke-width="1.5" stroke-linejoin="round"/>
<path d="M8 10.3722C14.8571 6.24278 13.5714 13.0046 20 10.3723" stroke="#141B34" stroke-width="1.5" stroke-linecap="round"/>
<path d="M11 22C12.6569 22 14 20.6569 14 19" stroke="#141B34" stroke-width="1.5" stroke-linecap="round" stroke-linejoin="round"/>
</svg>
