<svg width="24" height="24" viewBox="0 0 24 24" fill="none" xmlns="http://www.w3.org/2000/svg">
<path d="M21.5 12.7568V12.2432C21.5 10.5138 21.5 9.12764 21.4217 8H2.57828C2.5 9.12764 2.5 10.5138 2.5 12.2432V12.7568C2.5 17.1141 2.5 19.2927 3.75212 20.6464C5.00424 22 7.01949 22 11.05 22H12.95C16.9805 22 18.9958 22 20.2479 20.6464C21.5 19.2927 21.5 17.1141 21.5 12.7568Z" fill="#D4D7E0"/>
<path d="M12.9498 3H11.0498C7.01933 3 5.00408 3 3.75196 4.35364C2.9968 5.17003 2.69708 6.2865 2.57812 8H21.4216C21.3026 6.2865 21.0029 5.17003 20.2477 4.35364C18.9956 3 16.9803 3 12.9498 3Z" fill="white"/>
<path d="M13.1418 14.4418C14.3486 13.7108 15.4018 14.0054 16.0345 14.4747C16.294 14.6671 16.4237 14.7633 16.5 14.7633C16.5763 14.7633 16.706 14.6671 16.9655 14.4747C17.5982 14.0054 18.6514 13.7108 19.8582 14.4418C21.4419 15.4013 21.8002 18.5666 18.1472 21.237C17.4514 21.7457 17.1035 22 16.5 22C15.8965 22 15.5486 21.7457 14.8528 21.237C11.1998 18.5666 11.5581 15.4013 13.1418 14.4418Z" fill="white"/>
<path d="M13.1418 14.4418C14.3486 13.7108 15.4018 14.0054 16.0345 14.4747C16.294 14.6671 16.4237 14.7633 16.5 14.7633C16.5763 14.7633 16.706 14.6671 16.9655 14.4747C17.5982 14.0054 18.6514 13.7108 19.8582 14.4418C21.4419 15.4013 21.8002 18.5666 18.1472 21.237C17.4514 21.7457 17.1035 22 16.5 22C15.8965 22 15.5486 21.7457 14.8528 21.237C11.1998 18.5666 11.5581 15.4013 13.1418 14.4418Z" stroke="#141B34" stroke-width="1.5" stroke-linecap="round"/>
<path d="M3 8H21" stroke="#141B34" stroke-width="1.5" stroke-linecap="round" stroke-linejoin="round"/>
<path d="M18 2V4M6 2V4" stroke="#141B34" stroke-width="1.5" stroke-linecap="round" stroke-linejoin="round"/>
<path d="M11.05 22C7.01949 22 5.00424 22 3.75212 20.6464C2.5 19.2927 2.5 17.1141 2.5 12.7568V12.2432C2.5 7.88594 2.5 5.70728 3.75212 4.35364C5.00424 3 7.01949 3 11.05 3H12.95C16.9805 3 18.9958 3 20.2479 4.35364C21.4765 5.68186 21.4996 7.80438 21.5 12" stroke="#141B34" stroke-width="1.5" stroke-linecap="round" stroke-linejoin="round"/>
</svg>
