<svg width="24" height="24" viewBox="0 0 24 24" fill="none" xmlns="http://www.w3.org/2000/svg">
<path d="M15.403 5.93665L16.6215 4.83092C17.1262 4.37291 17.1262 3.63034 16.6215 3.17233C16.1168 2.71432 15.2985 2.71432 14.7938 3.17233L13.8801 4.00174C14.3844 3.54371 14.3843 2.80139 13.8797 2.34351C13.375 1.8855 12.5567 1.8855 12.052 2.34351L6.89678 7.02161L6.89988 5.22718C6.90124 4.43985 6.14817 3.82839 5.28574 3.91657C4.62584 3.98403 4.09843 4.44797 4.00351 5.04449L3.39519 9.5768C3.2788 10.444 2.68067 11.4005 2 12.0182L5.28574 15L12.0523 8.97739L15.403 5.93665Z" fill="white"/>
<path d="M21.0865 12.4961C21.5532 12.0463 21.5532 11.3168 21.0865 10.8669C20.6197 10.417 19.8629 10.417 19.3961 10.8669L20.523 9.78079C20.9898 9.33089 20.9898 8.60146 20.523 8.15157C20.0562 7.70167 19.2994 7.70167 18.8326 8.15157L17.9876 8.96629C18.454 8.51637 18.4539 7.7872 17.9872 7.33742C17.5204 6.88753 16.7636 6.88753 16.2969 7.33742L11.5289 11.9327L11.5318 10.17C11.533 9.39664 10.8365 8.79601 10.0389 8.88262C9.42857 8.9489 8.94078 9.40462 8.85299 9.99057L8.29037 14.4426C8.18273 15.2944 7.62953 16.2341 7 16.8408L12.3528 22L13.009 21.3676C13.3086 21.0788 13.7156 20.9198 14.1384 20.8929C14.6272 20.8617 15.2733 20.7893 15.6643 20.621C16.3383 20.331 16.9506 19.7408 18.1752 18.5606L18.1752 18.5605L21.6499 15.2115C22.1167 14.7616 22.1167 14.0322 21.6499 13.5823C21.1831 13.1324 20.4263 13.1324 19.9595 13.5823L21.0865 12.4961Z" fill="#D4D7E0"/>
<path d="M19.3961 10.8669C19.8629 10.417 20.6197 10.417 21.0865 10.8669C21.5532 11.3168 21.5532 12.0463 21.0865 12.4961L19.9595 13.5823M19.3961 10.8669L20.523 9.78079C20.9898 9.33089 20.9898 8.60146 20.523 8.15157C20.0562 7.70167 19.2994 7.70167 18.8326 8.15157L17.9876 8.96629M19.3961 10.8669L16.2971 13.8538M17.9876 8.96629C18.454 8.51637 18.4539 7.7872 17.9872 7.33742C17.5204 6.88753 16.7636 6.88753 16.2969 7.33742L11.5289 11.9327L11.5318 10.17C11.533 9.39664 10.8365 8.79601 10.0389 8.88262C9.42857 8.9489 8.94078 9.40462 8.85299 9.99057L8.29037 14.4426C8.18273 15.2944 7.62953 16.2341 7 16.8408M17.9876 8.96629L15.1703 11.6817M12.3528 22L13.009 21.3676C13.3086 21.0788 13.7156 20.9198 14.1384 20.8929C14.6272 20.8617 15.2733 20.7893 15.6643 20.621C16.3383 20.331 16.9506 19.7408 18.1752 18.5605L21.6499 15.2115C22.1167 14.7616 22.1167 14.0322 21.6499 13.5823C21.1831 13.1324 20.4263 13.1324 19.9595 13.5823M17.424 16.0261L19.9595 13.5823" stroke="#141B34" stroke-width="1.5" stroke-linecap="round" stroke-linejoin="round"/>
<path d="M13.4843 4.09738C13.9717 3.61746 13.9716 2.83968 13.4839 2.35992C12.996 1.88003 12.2051 1.88003 11.7172 2.35992L6.73328 7.26465L6.73711 5.38136C6.73842 4.55642 6.0105 3.91575 5.17686 4.00813C4.53899 4.07882 4.02919 4.56493 3.93744 5.18994L3.34861 9.94193C3.23611 10.8505 2.65795 11.8528 2 12.5M13.4843 4.09738L14.3675 3.22834C14.8553 2.74845 15.6463 2.74845 16.1341 3.22834C16.3781 3.46832 16.5 3.78285 16.5 4.09738M13.4843 4.09738L11 6.54112" stroke="#141B34" stroke-width="1.5" stroke-linecap="round" stroke-linejoin="round"/>
</svg>
