<svg width="24" height="24" viewBox="0 0 24 24" fill="none" xmlns="http://www.w3.org/2000/svg">
<path d="M12.0004 3.5C13.001 3.5 14.0017 3 14.502 2L17.0032 2.55547C17.0032 2.55521 17.0032 2.55573 17.0032 2.55547L17.4345 2.65048C18.442 2.87422 19.3482 3.47223 19.7132 4.437C20.3752 6.18709 20.9185 8.98308 20.9962 12.9982C21.0053 13.4656 21.0098 13.6994 20.8627 13.8492C20.7156 13.9991 20.4788 13.9991 20.0052 13.9991H17.9663C17.9663 13.9994 17.9662 13.9988 17.9663 13.9991C18.1102 14.9871 18.3941 16.6177 18.6287 17.9295C18.8057 18.9196 18.8942 19.4146 18.5587 20.0311C18.2232 20.6476 17.8843 20.7899 17.2066 21.0744C16.0775 21.5484 14.3779 22 12.0004 22C9.62295 22 7.92333 21.5484 6.79418 21.0744C6.1165 20.7899 5.77765 20.6476 5.44211 20.0311C5.10658 19.4146 5.19509 18.9196 5.37213 17.9295C5.60671 16.6177 5.89047 14.9879 6.0344 14C6.78167 8.87061 6.99718 4.86557 6.99718 2.55556L9.49879 2C9.99911 3 10.9998 3.5 12.0004 3.5Z" fill="#D4D7E0"/>
<path d="M3.13728 13.8492C3.28438 13.9991 3.5212 13.9991 3.99484 13.9991L6.0344 14C6.78167 8.87061 6.99718 4.86557 6.99718 2.55556L6.56545 2.65048C5.55795 2.87422 4.6518 3.47223 4.28683 4.437C3.62477 6.18709 3.08153 8.98308 3.00375 12.9982C2.9947 13.4656 2.99017 13.6994 3.13728 13.8492Z" fill="#D4D7E0"/>
<path d="M17.0047 2.55556L14.5031 2C14.3854 2.23516 14.2401 2.44266 14.0736 2.62252L14.0325 3C13.8855 6.47826 14.1207 13.7478 18.0015 15L18.1316 15.0484C18.0676 14.6578 18.0111 14.2994 17.9675 14C17.2202 8.87061 17.0047 4.86557 17.0047 2.55556Z" fill="white"/>
<path d="M6.99825 2.55556L9.49986 2C9.61318 2.22648 9.75216 2.42732 9.91098 2.6025L9.97066 3C10.1177 6.47826 9.88196 13.7478 6.00148 15L5.87109 15.0499C5.93524 14.6587 5.9918 14.2998 6.03547 14C6.78275 8.87061 6.99825 4.86557 6.99825 2.55556Z" fill="white"/>
<path d="M17.0032 2.55556L14.5016 2C14.0013 3 13.0006 3.5 12 3.5C10.9994 3.5 9.99871 3 9.49839 2L6.99678 2.55556M17.0032 2.55556L17.4345 2.65134C18.442 2.87509 19.3482 3.4731 19.7132 4.43787C20.3752 6.18796 20.9185 8.98395 20.9962 12.9991C21.0053 13.4665 21.0098 13.7002 20.8627 13.8501C20.7156 14 20.4788 14 20.0052 14H17.966M17.0032 2.55556C17.0032 4.86557 17.2187 8.87061 17.966 14M17.966 14C18.1099 14.9879 18.3937 16.6177 18.6283 17.9295C18.8053 18.9196 18.8938 19.4146 18.5583 20.0311C18.2227 20.6476 17.8839 20.7899 17.2062 21.0744C16.0771 21.5484 14.3775 22 12 22C9.62254 22 7.92293 21.5484 6.79378 21.0744C6.11609 20.7899 5.77725 20.6476 5.44171 20.0311C5.10617 19.4146 5.19469 18.9196 5.37173 17.9295C5.60631 16.6177 5.89007 14.9879 6.034 14M6.99678 2.55556L6.56545 2.65134C5.55795 2.87509 4.6518 3.4731 4.28683 4.43787C3.62477 6.18796 3.08153 8.98395 3.00375 12.9991C2.9947 13.4665 2.99017 13.7002 3.13728 13.8501C3.28438 14 3.5212 14 3.99484 14H6.034M6.99678 2.55556C6.99678 4.86557 6.78127 8.87061 6.034 14" stroke="#141B34" stroke-width="1.5" stroke-linecap="round" stroke-linejoin="round"/>
<path d="M14.031 3C13.884 6.47826 14.1192 13.7478 18 15M9.96919 3C10.1162 6.47826 9.88048 13.7478 6 15" stroke="#141B34" stroke-width="1.5" stroke-linecap="round" stroke-linejoin="round"/>
</svg>
