<svg width="24" height="24" viewBox="0 0 24 24" fill="none" xmlns="http://www.w3.org/2000/svg">
<path d="M4 12C4 8.22876 4 6.34315 5.17157 5.17157C6.34315 4 8.22876 4 12 4C15.7712 4 17.6569 4 18.8284 5.17157C20 6.34315 20 8.22876 20 12C20 15.7712 20 17.6569 18.8284 18.8284C17.6569 20 15.7712 20 12 20C8.22876 20 6.34315 20 5.17157 18.8284C4 17.6569 4 15.7712 4 12Z" fill="#D4D7E0"/>
<path d="M20.7751 14.7202C20.1774 13.8574 19.1582 13.2891 18.0013 13.2891C16.8444 13.2891 15.8252 13.8574 15.2275 14.7202C14.874 15.2305 14.668 15.8437 14.668 16.5033C14.668 17.1631 14.8741 17.7764 15.2276 18.2867C15.8254 19.1494 16.8445 19.7176 18.0013 19.7176C19.1581 19.7176 20.1772 19.1494 20.775 18.2867C21.1285 17.7764 21.3346 17.1631 21.3346 16.5033C21.3346 15.8437 21.1286 15.2305 20.7751 14.7202Z" fill="white"/>
<path d="M20 10C19.9641 7.52043 19.7801 6.11466 18.8365 5.17157C17.6643 4 15.7776 4 12.0043 4C8.23106 4 6.34442 4 5.17221 5.17157C4 6.34315 4 8.22876 4 12C4 15.7712 4 17.6569 5.17221 18.8284C6.23545 19.8911 7.88646 19.9899 11 19.9991" stroke="#141B34" stroke-width="1.5" stroke-linecap="round" stroke-linejoin="round"/>
<path d="M18 19.7143V21M18 19.7143C16.8432 19.7143 15.8241 19.1461 15.2263 18.2833M18 19.7143C19.1568 19.7143 20.1759 19.1461 20.7737 18.2833M18 13.2857C19.1569 13.2857 20.1761 13.854 20.7738 14.7169M18 13.2857C16.8431 13.2857 15.8239 13.854 15.2262 14.7169M18 13.2857V12M22 13.9286L20.7738 14.7169M14.0004 19.0714L15.2263 18.2833M14 13.9286L15.2262 14.7169M21.9996 19.0714L20.7737 18.2833M20.7738 14.7169C21.1273 15.2271 21.3333 15.8403 21.3333 16.5C21.3333 17.1597 21.1272 17.773 20.7737 18.2833M15.2262 14.7169C14.8727 15.2271 14.6667 15.8403 14.6667 16.5C14.6667 17.1597 14.8728 17.773 15.2263 18.2833" stroke="#141B34" stroke-width="1.5" stroke-linecap="round"/>
<path d="M9.5 2V4" stroke="#141B34" stroke-width="1.5" stroke-linecap="round" stroke-linejoin="round"/>
<path d="M14.5 2V4" stroke="#141B34" stroke-width="1.5" stroke-linecap="round" stroke-linejoin="round"/>
<path d="M9.5 20V22" stroke="#141B34" stroke-width="1.5" stroke-linecap="round" stroke-linejoin="round"/>
<path d="M4 9.5L2 9.5" stroke="#141B34" stroke-width="1.5" stroke-linecap="round" stroke-linejoin="round"/>
<path d="M4 14.5L2 14.5" stroke="#141B34" stroke-width="1.5" stroke-linecap="round" stroke-linejoin="round"/>
<path d="M22 9.5L20 9.5" stroke="#141B34" stroke-width="1.5" stroke-linecap="round" stroke-linejoin="round"/>
<path d="M12 8H8" stroke="#141B34" stroke-width="1.5" stroke-linecap="round" stroke-linejoin="round"/>
</svg>
