<svg width="24" height="24" viewBox="0 0 24 24" fill="none" xmlns="http://www.w3.org/2000/svg">
<path d="M3 12.5102C3 8.74448 6.37016 5.02317 8.73565 2.875C10.0204 1.70833 11.9797 1.70833 13.2643 2.875C15.6298 5.02317 19 8.74448 19 12.5102C19 16.2024 15.9706 20 11 20C6.02944 20 3 16.2024 3 12.5102Z" fill="#D4D7E0"/>
<path d="M20.9871 12.049C21.0075 11.5616 21.0177 11.3179 20.8404 11.147C20.6632 10.976 20.4164 10.9893 19.9228 11.0158C15.8327 11.2355 10.3341 13.1407 12.9979 19C18.9927 21.6068 20.8173 16.1017 20.9871 12.049Z" fill="white"/>
<path d="M9 20C5.22895 19.1318 3 15.6772 3 12.5102C3 8.74448 6.37016 5.02317 8.73565 2.875C10.0204 1.70833 11.9797 1.70833 13.2643 2.875C14.7712 4.24338 16.5749 6.25009 17.7511 8.5" stroke="#141B34" stroke-width="1.5" stroke-linecap="round"/>
<path d="M17 15.5C15.5 16.5 13 18.5 11 22M13 19C10.3362 13.1407 15.8347 11.2355 19.9249 11.0158C20.4185 10.9893 20.6653 10.976 20.8425 11.147C21.0198 11.3179 21.0095 11.5616 20.9891 12.049C20.8194 16.1017 18.9947 21.6068 13 19Z" stroke="#141B34" stroke-width="1.5" stroke-linecap="round" stroke-linejoin="round"/>
</svg>
