<svg width="24" height="24" viewBox="0 0 24 24" fill="none" xmlns="http://www.w3.org/2000/svg">
<path d="M10.7273 22H15C15.9293 22 16.394 22 16.7804 21.9231C18.3671 21.6075 19.6075 20.3671 19.9231 18.7804C20 18.394 20 17.9293 20 17V7.81818C20 6.12494 20 5.27832 19.732 4.60214C19.3012 3.5151 18.3902 2.65765 17.2352 2.2522C16.5168 2 15.6173 2 13.8182 2C10.6698 2 9.09563 2 7.83836 2.44135C5.81714 3.15088 4.22281 4.65142 3.46894 6.55375C3 7.73706 3 9.21865 3 12.1818V14.7273C3 17.7966 3 19.3313 3.8477 20.3971C4.09058 20.7025 4.37862 20.9736 4.70307 21.2022C5.83546 22 7.46607 22 10.7273 22Z" fill="#D4D7E0"/>
<path d="M3.46716 6.55162C3.06537 7.56549 3.00784 8.79833 2.9996 10.9944C3.33585 10.16 4.90316 8.49787 8.49822 8.49787C8.79963 8.49787 9.5903 8.19462 9.54938 6.55162C9.53257 5.05584 10.0818 2.08608 12.3944 1.99979C10.1623 2.00964 8.88853 2.06995 7.83659 2.43922C5.81536 3.14875 4.22104 4.64929 3.46716 6.55162Z" fill="white"/>
<path d="M20.4593 17.5153C20.8198 17.9308 21 18.1385 21 18.5C21 18.8615 20.8198 19.0692 20.4593 19.4847C19.5612 20.5199 17.9381 22 16 22C14.0619 22 12.4388 20.5199 11.5407 19.4847C11.1802 19.0692 11 18.8615 11 18.5C11 18.1385 11.1802 17.9308 11.5407 17.5153C12.4388 16.4801 14.0619 15 16 15C17.9381 15 19.5612 16.4801 20.4593 17.5153Z" fill="white"/>
<path d="M20.4593 17.5153C20.8198 17.9308 21 18.1385 21 18.5C21 18.8615 20.8198 19.0692 20.4593 19.4847C19.5612 20.5199 17.9381 22 16 22C14.0619 22 12.4388 20.5199 11.5407 19.4847C11.1802 19.0692 11 18.8615 11 18.5C11 18.1385 11.1802 17.9308 11.5407 17.5153C12.4388 16.4801 14.0619 15 16 15C17.9381 15 19.5612 16.4801 20.4593 17.5153Z" stroke="#141B34" stroke-width="1.5" stroke-linejoin="round"/>
<path d="M20 13.0032V7.81989C20 6.12616 20 5.27928 19.732 4.60291C19.3012 3.51554 18.3902 2.65784 17.2352 2.25228C16.5168 2 15.6173 2 13.8182 2C10.6698 2 9.09563 2 7.83836 2.44148C5.81714 3.15122 4.22281 4.6522 3.46894 6.55509C3 7.73875 3 9.22077 3 12.1848V14.731C3 17.8013 3 19.3364 3.8477 20.4025C4.09058 20.708 4.37862 20.9792 4.70307 21.2078C5.61506 21.8506 6.85019 21.9757 9 22" stroke="#141B34" stroke-width="1.5" stroke-linecap="round" stroke-linejoin="round"/>
<path d="M3 12C3 10.1591 4.49238 8.66667 6.33333 8.66667C6.99912 8.66667 7.78404 8.78333 8.43137 8.60988C9.00652 8.45576 9.45576 8.00652 9.60988 7.43136C9.78333 6.78404 9.66667 5.99912 9.66667 5.33333C9.66667 3.49238 11.1591 2 13 2" stroke="#141B34" stroke-width="1.5" stroke-linecap="round" stroke-linejoin="round"/>
<path d="M15.9902 18.5H15.9992" stroke="#141B34" stroke-width="2" stroke-linecap="round" stroke-linejoin="round"/>
</svg>
