<svg width="24" height="24" viewBox="0 0 24 24" fill="none" xmlns="http://www.w3.org/2000/svg">
<path d="M2.35139 13.2135C1.99837 10.9162 1.82186 9.76763 2.25617 8.74938C2.69047 7.73112 3.65403 7.03443 5.58114 5.64106L7.02099 4.6C9.41829 2.86667 10.6169 2 12 2C13.3831 2 14.5817 2.86667 16.979 4.6L18.4189 5.64106C20.346 7.03443 21.3095 7.73112 21.7438 8.74938C22.1781 9.76763 22.0016 10.9162 21.6486 13.2135L21.3476 15.1724C20.8471 18.4289 20.5969 20.0572 19.429 21.0286C18.2611 22 16.5537 22 13.1388 22H10.8612C7.44633 22 5.73891 22 4.571 21.0286C3.40309 20.0572 3.15287 18.4289 2.65243 15.1724L2.35139 13.2135Z" fill="#D4D7E0"/>
<path d="M16.9353 13.8529C16.1721 16.2076 14.5497 17.6652 12.1814 18.1237C11.0441 18.3439 9.58734 18.0272 8.89515 17.3541C7.79357 16.2828 7.56163 14.5653 8.32667 13.1143C9.62584 10.5152 12.8653 11.1933 13.9987 9.15366C14.5865 8.20201 13.6765 7.11719 13.6765 7.11719C16.628 7.88156 17.7996 11.1859 16.9353 13.8529Z" fill="white"/>
<path d="M12.551 13.6081C11.0316 15.2407 5.21031 18.0107 7.02784 21.0275C7.68071 22.1111 9.56024 22 10.8612 22H13.1388C16.5537 22 18.2611 22 19.429 21.0286C20.5969 20.0572 20.8471 18.4289 21.3476 15.1724L21.6486 13.2135C22.0016 10.9162 22.1781 9.76763 21.7438 8.74938C21.3095 7.73112 20.346 7.03443 18.4189 5.64106L16.979 4.6C14.5817 2.86667 13.3831 2 12 2C10.6169 2 9.41829 2.86667 7.02099 4.6L5.58114 5.64106C3.65403 7.03443 2.69047 7.73112 2.25617 8.74938C1.82186 9.76763 1.99837 10.9162 2.35139 13.2135L2.65243 15.1724C3.00843 17.489 3.23781 18.9817 3.76102 20M12.1801 18.1259C14.5484 17.6674 16.1708 16.2098 16.9339 13.855C17.7983 11.1881 16.6267 7.88376 13.6752 7.11938C13.6752 7.11938 14.5852 8.20421 13.9973 9.15585C12.864 11.1955 9.62452 10.5174 8.32535 13.1165C7.56032 14.5675 7.79225 16.285 8.89383 17.3563C9.58602 18.0294 11.0428 18.3461 12.1801 18.1259Z" stroke="#141B34" stroke-width="1.5" stroke-linecap="round" stroke-linejoin="round"/>
</svg>
