<svg width="24" height="24" viewBox="0 0 24 24" fill="none" xmlns="http://www.w3.org/2000/svg">
<path d="M21 11.5V17.9997C21 19.8853 21 20.8281 20.4142 21.4139C19.8284 21.9997 18.8856 21.9997 17 21.9997H12V7.5L21 11.5Z" fill="white"/>
<path d="M12 22V3L3 7V18C3 19.8856 3 20.8284 3.58579 21.4142C4.17157 22 5.11438 22 7 22H12Z" fill="#D4D7E0"/>
<path d="M13 2L2 7" stroke="#141B34" stroke-width="1.5" stroke-linecap="round" stroke-linejoin="round"/>
<path d="M12 3V22H7C5.11438 22 4.17157 22 3.58579 21.4142C3 20.8284 3 19.8856 3 18V7" stroke="#141B34" stroke-width="1.5" stroke-linecap="round" stroke-linejoin="round"/>
<path d="M12 7L22 12" stroke="#141B34" stroke-width="1.5" stroke-linecap="round" stroke-linejoin="round"/>
<path d="M10 21.9997H17C18.8856 21.9997 19.8284 21.9997 20.4142 21.4139C21 20.8281 21 19.8853 21 17.9997V11.5" stroke="#141B34" stroke-width="1.5" stroke-linecap="round" stroke-linejoin="round"/>
<path d="M18 10L18 7" stroke="#141B34" stroke-width="1.5" stroke-linecap="round" stroke-linejoin="round"/>
<path d="M7 11H8M7 15H8" stroke="#141B34" stroke-width="1.5" stroke-linecap="round" stroke-linejoin="round"/>
<path d="M16 14H17" stroke="#141B34" stroke-width="1.5" stroke-linecap="round" stroke-linejoin="round"/>
<path d="M16.5 22V18" stroke="#141B34" stroke-width="1.5" stroke-linecap="round" stroke-linejoin="round"/>
</svg>
