<svg width="24" height="24" viewBox="0 0 24 24" fill="none" xmlns="http://www.w3.org/2000/svg">
<path d="M10.3751 15.7361L8.58332 14.3426C8.57738 14.3379 8.57147 14.3333 8.56559 14.3288C8.08922 14.6288 7.92574 15.1945 7.89059 15.7282C7.84662 16.3961 7.82464 16.73 7.68044 16.865C7.53624 17 7.2639 17 6.71922 17H4.90055C4.44232 17 4.21321 17 4.06634 16.851C3.91948 16.7021 3.92279 16.4683 3.92941 16.0007C3.93897 15.3255 3.88445 14.5268 3.49482 13.5C3.45895 13.4054 3.42023 13.309 3.37845 13.2105C2.45392 11.0305 3.44009 9.19682 4.0359 8.21888C4.51254 7.43652 4.80002 6.26667 4.65225 5.44804C6.77249 2.92168 10.2822 2.83339 11.7752 3.10505C11.9396 4.6942 13.0079 8.68748 14.9597 10.4193C16.9115 12.151 21 12.92 21 14.4736C21 15.8943 20.3714 17 18.8254 17H14.0587C13.0389 17 12.529 17 12.0558 16.8376C11.5825 16.6752 11.18 16.3622 10.3751 15.7361Z" fill="#D4D7E0"/>
<path d="M3.49482 13.5H6.12759C7.47974 13.5 7.51 13.5078 8.56559 14.3288M3.49482 13.5C3.45895 13.4054 3.42023 13.309 3.37845 13.2105C2.45392 11.0305 3.44009 9.19682 4.0359 8.21888C4.51254 7.43652 4.80002 6.26667 4.65225 5.44804C6.77249 2.92168 10.2822 2.83339 11.7752 3.10505C11.9396 4.6942 13.0079 8.68748 14.9597 10.4193C16.9115 12.151 21 12.92 21 14.4736C21 15.8943 20.3714 17 18.8254 17H14.0587C13.0389 17 12.529 17 12.0558 16.8376C11.5825 16.6752 11.18 16.3622 10.3751 15.7361L8.58332 14.3426C8.57738 14.3379 8.57147 14.3333 8.56559 14.3288M3.49482 13.5C3.88445 14.5268 3.93897 15.3255 3.92941 16.0007C3.92279 16.4683 3.91948 16.7021 4.06634 16.851C4.21321 17 4.44232 17 4.90055 17H6.71922C7.2639 17 7.53624 17 7.68044 16.865C7.82464 16.73 7.84662 16.3961 7.89059 15.7282C7.92574 15.1945 8.08922 14.6288 8.56559 14.3288" stroke="#141B34" stroke-width="1.5" stroke-linecap="round" stroke-linejoin="round"/>
<path d="M6.12804 13.5005H3.49528C3.88491 14.5273 3.93942 15.326 3.92986 16.0012C3.92324 16.4688 3.91993 16.7026 4.0668 16.8515C4.21366 17.0005 4.44277 17.0005 4.901 17.0005H6.71968C7.26435 17.0005 7.53669 17.0005 7.68089 16.8655C7.82509 16.7304 7.84708 16.3965 7.89105 15.7287C7.92619 15.1949 8.08968 14.6293 8.56604 14.3292C7.51045 13.5083 7.4802 13.5005 6.12804 13.5005Z" fill="white"/>
<path d="M3.49528 13.5005H6.12804C7.4802 13.5005 7.51045 13.5083 8.56604 14.3292M3.49528 13.5005C3.4594 13.4059 3.42068 13.3094 3.37891 13.2109M3.49528 13.5005C3.88491 14.5273 3.93942 15.326 3.92986 16.0012C3.92324 16.4688 3.91993 16.7026 4.0668 16.8515C4.21366 17.0005 4.44277 17.0005 4.901 17.0005H6.71968C7.26435 17.0005 7.53669 17.0005 7.68089 16.8655C7.82509 16.7304 7.84708 16.3965 7.89105 15.7287C7.92619 15.1949 8.08968 14.6293 8.56604 14.3292M8.58378 14.343C8.57783 14.3384 8.57192 14.3338 8.56604 14.3292" stroke="#141B34" stroke-width="1.5" stroke-linecap="round" stroke-linejoin="round"/>
<path d="M13.5 9.5L13 10" stroke="#141B34" stroke-width="1.5" stroke-linecap="round" stroke-linejoin="round"/>
<path d="M12.5 7L11 7.5" stroke="#141B34" stroke-width="1.5" stroke-linecap="round" stroke-linejoin="round"/>
<path d="M20.0293 17L20.6302 17.8C21.6792 19.1963 22.2036 19.8944 21.9268 20.4472C21.6499 21 20.7758 21 19.0276 21H2" stroke="#141B34" stroke-width="1.5" stroke-linecap="round"/>
<path d="M15 17V21M6 17V21" stroke="#141B34" stroke-width="1.5"/>
</svg>
