<svg width="24" height="24" viewBox="0 0 24 24" fill="none" xmlns="http://www.w3.org/2000/svg">
<path d="M2.5 12C2.5 7.52166 2.5 5.28249 3.89124 3.89124C5.28249 2.5 7.52166 2.5 12 2.5C16.4783 2.5 18.7175 2.5 20.1088 3.89124C21.5 5.28249 21.5 7.52166 21.5 12C21.5 16.4783 21.5 18.7175 20.1088 20.1088C18.7175 21.5 16.4783 21.5 12 21.5C7.52166 21.5 5.28249 21.5 3.89124 20.1088C2.5 18.7175 2.5 16.4783 2.5 12Z" fill="#D4D7E0"/>
<path d="M21.0808 18.639C21.4995 17.9133 21.4995 17.7272 21.4995 16.8493C20.4039 16.254 19.2708 15.9519 18.1313 15.9532C16.5568 15.9465 14.9969 16.5124 13.5312 17.6189C14.5647 18.7457 15.3318 20.0672 15.777 21.4967C16.9137 21.2044 18.0287 20.7718 19.1009 20.1989C20.1416 19.6428 20.662 19.3647 21.0808 18.639Z" fill="white"/>
<path d="M3.89286 20.1088C5.2841 21.5 7.52327 21.5 12.0016 21.5C13.5152 21.5 14.773 21.5 15.8288 21.4463C15.1357 19.4451 13.7638 17.6609 11.8782 16.3342C9.65922 14.7729 6.87324 13.9466 4.01731 14.0027C3.67819 14.0019 3.33937 14.0127 3.00161 14.0351H2.50781C2.53928 17.1923 2.73054 18.9464 3.89286 20.1088Z" fill="white"/>
<path d="M2.5 12C2.5 7.52166 2.5 5.28249 3.89124 3.89124C5.28249 2.5 7.52166 2.5 12 2.5C16.4783 2.5 18.7175 2.5 20.1088 3.89124C21.5 5.28249 21.5 7.52166 21.5 12C21.5 16.4783 21.5 18.7175 20.1088 20.1088C18.7175 21.5 16.4783 21.5 12 21.5C7.52166 21.5 5.28249 21.5 3.89124 20.1088C2.5 18.7175 2.5 16.4783 2.5 12Z" stroke="#141B34" stroke-width="1.5"/>
<circle cx="16.5" cy="7.5" r="1.5" fill="white" stroke="#141B34" stroke-width="1.5"/>
<path d="M16 22C15.3805 19.7749 13.9345 17.7821 11.8765 16.3342C9.65761 14.7729 6.87163 13.9466 4.01569 14.0027C3.67658 14.0019 3.33776 14.0127 3 14.0351" stroke="#141B34" stroke-width="1.5" stroke-linejoin="round"/>
<path d="M13 18C14.7015 16.6733 16.5345 15.9928 18.3862 16.0001C19.4362 15.999 20.4812 16.2216 21.5 16.6617" stroke="#141B34" stroke-width="1.5" stroke-linejoin="round"/>
</svg>
