<svg width="24" height="24" viewBox="0 0 24 24" fill="none" xmlns="http://www.w3.org/2000/svg">
<path d="M2.01577 12.4756C2.08114 15.5412 2.11383 17.0739 3.24496 18.2094C4.37608 19.3448 5.95033 19.3843 9.09883 19.4634C11.0393 19.5122 12.9607 19.5122 14.9012 19.4634C18.0497 19.3843 19.6239 19.3448 20.7551 18.2094C21.8862 17.0739 21.9189 15.5412 21.9842 12.4756C22.0053 11.4899 22.0053 10.5101 21.9842 9.52439C21.9189 6.45886 21.8862 4.92609 20.7551 3.79066C19.6239 2.65523 18.0497 2.61568 14.9012 2.53657C12.9607 2.48781 11.0393 2.48781 9.09882 2.53656C5.95033 2.61566 4.37608 2.65521 3.24495 3.79065C2.11382 4.92608 2.08114 6.45885 2.01576 9.52438C1.99474 10.5101 1.99475 11.4899 2.01577 12.4756Z" fill="#D4D7E0"/>
<path d="M15.015 14.8866C16.0876 14.2469 17.0238 14.5047 17.5863 14.9153C17.8169 15.0837 17.9322 15.1679 18 15.1679C18.0678 15.1679 18.1831 15.0837 18.4137 14.9153C18.9762 14.5047 19.9124 14.2469 20.985 14.8866C22.3928 15.7261 22.7113 18.4958 19.4642 20.8324C18.8457 21.2775 18.5365 21.5 18 21.5C17.4635 21.5 17.1543 21.2775 16.5358 20.8324C13.2887 18.4958 13.6072 15.7261 15.015 14.8866Z" fill="white"/>
<path d="M7 7.5L9.94202 9.23943C11.6572 10.2535 12.3428 10.2535 14.058 9.23943L17 7.5" stroke="#141B34" stroke-width="1.5" stroke-linecap="round" stroke-linejoin="round"/>
<path d="M11.5 19.4959C11.0337 19.4898 9.56682 19.5077 9.09883 19.4959C5.95033 19.4166 4.37608 19.377 3.24496 18.2394C2.11383 17.1018 2.08114 15.5661 2.01577 12.4947C1.99475 11.5071 1.99474 10.5254 2.01576 9.53781C2.08114 6.46642 2.11382 4.93072 3.24495 3.79312C4.37608 2.65551 5.95033 2.61589 9.09882 2.53663C11.0393 2.48779 12.9607 2.48779 14.9012 2.53664C18.0497 2.6159 19.6239 2.65553 20.755 3.79313C21.8862 4.93073 21.9189 6.46643 21.9842 9.53783C21.9983 10.1973 22.0029 10.8542 21.9982 11.512" stroke="#141B34" stroke-width="1.5" stroke-linecap="round" stroke-linejoin="round"/>
<path d="M15.015 14.8866C16.0876 14.2469 17.0238 14.5047 17.5863 14.9153C17.8169 15.0837 17.9322 15.1679 18 15.1679C18.0678 15.1679 18.1831 15.0837 18.4137 14.9153C18.9762 14.5047 19.9124 14.2469 20.985 14.8866C22.3928 15.7261 22.7113 18.4958 19.4642 20.8324C18.8457 21.2775 18.5365 21.5 18 21.5C17.4635 21.5 17.1543 21.2775 16.5358 20.8324C13.2887 18.4958 13.6072 15.7261 15.015 14.8866Z" stroke="#141B34" stroke-width="1.5" stroke-linecap="round"/>
</svg>
