<svg width="24" height="24" viewBox="0 0 24 24" fill="none" xmlns="http://www.w3.org/2000/svg">
<path d="M12.2635 21.5188C8.91711 21.2993 6.25153 18.6315 6.03219 15.2823C5.98927 14.6269 5.98927 13.9481 6.03219 13.2927C6.25153 9.94345 8.91711 7.27563 12.2635 7.05611C13.4052 6.98122 14.5971 6.98137 15.7365 7.05611C19.0829 7.27563 21.7485 9.94345 21.9678 13.2927C22.0107 13.9481 22.0107 14.6269 21.9678 15.2823C21.8879 16.5021 21.3413 17.6315 20.6977 18.5852C20.324 19.2529 20.5706 20.0862 20.9598 20.8141C21.2405 21.3389 21.3808 21.6013 21.2681 21.7909C21.1555 21.9804 20.9038 21.9865 20.4005 21.9986C19.4051 22.0225 18.7339 21.744 18.2011 21.3563C17.8989 21.1364 17.7478 21.0264 17.6437 21.0138C17.5395 21.0012 17.3346 21.0845 16.9248 21.251C16.5565 21.4007 16.1288 21.4931 15.7365 21.5188C14.5971 21.5936 13.4052 21.5937 12.2635 21.5188Z" fill="white"/>
<path d="M12.345 17.4868C15.9006 17.2526 18.7328 14.4069 18.9658 10.8344C19.0114 10.1353 19.0114 9.41131 18.9658 8.71219C18.7328 5.13968 15.9006 2.29401 12.345 2.05985C11.132 1.97997 9.86553 1.98013 8.65499 2.05985C5.09943 2.29401 2.26725 5.13968 2.0342 8.71219C1.9886 9.41131 1.9886 10.1353 2.0342 10.8344C2.11908 12.1356 2.69992 13.3403 3.38372 14.3576C3.78076 15.0697 3.51873 15.9586 3.10518 16.735C2.807 17.2948 2.65791 17.5747 2.77762 17.7769C2.89732 17.9791 3.16472 17.9856 3.69951 17.9985C4.75712 18.024 5.47028 17.7269 6.03638 17.3134C6.35744 17.0788 6.51798 16.9615 6.62862 16.9481C6.73926 16.9346 6.957 17.0234 7.39241 17.2011C7.78374 17.3608 8.23812 17.4593 8.65499 17.4868C9.86553 17.5665 11.132 17.5666 12.345 17.4868Z" fill="#D4D7E0"/>
<path d="M7.5 12H13.5M7.5 8H10.5" stroke="#141B34" stroke-width="1.5" stroke-linecap="round" stroke-linejoin="round"/>
<path d="M8.5 20C9.55038 20.8697 10.8145 21.4238 12.2635 21.5188C13.4052 21.5937 14.5971 21.5936 15.7365 21.5188C16.1288 21.4931 16.5565 21.4007 16.9248 21.251C17.3345 21.0845 17.5395 21.0012 17.6437 21.0138C17.7478 21.0264 17.8989 21.1364 18.2011 21.3563C18.7339 21.744 19.4051 22.0225 20.4005 21.9986C20.9038 21.9865 21.1555 21.9804 21.2681 21.7909C21.3808 21.6013 21.2405 21.3389 20.9598 20.8141C20.5706 20.0862 20.324 19.2529 20.6977 18.5852C21.3413 17.6315 21.8879 16.5021 21.9678 15.2823C22.0107 14.6269 22.0107 13.9481 21.9678 13.2927C21.9146 12.4799 21.7173 11.7073 21.4012 11" stroke="#141B34" stroke-width="1.5" stroke-linecap="round" stroke-linejoin="round"/>
<path d="M12.345 17.4868C15.9006 17.2526 18.7328 14.4069 18.9658 10.8344C19.0114 10.1353 19.0114 9.41131 18.9658 8.71219C18.7328 5.13968 15.9006 2.29401 12.345 2.05985C11.132 1.97997 9.86553 1.98013 8.65499 2.05985C5.09943 2.29401 2.26725 5.13968 2.0342 8.71219C1.9886 9.41131 1.9886 10.1353 2.0342 10.8344C2.11908 12.1356 2.69992 13.3403 3.38372 14.3576C3.78076 15.0697 3.51873 15.9586 3.10518 16.735C2.807 17.2948 2.65791 17.5747 2.77762 17.7769C2.89732 17.9791 3.16472 17.9856 3.69951 17.9985C4.75712 18.024 5.47028 17.7269 6.03638 17.3134C6.35744 17.0788 6.51798 16.9615 6.62862 16.9481C6.73926 16.9346 6.957 17.0234 7.39241 17.2011C7.78374 17.3608 8.23812 17.4593 8.65499 17.4868C9.86553 17.5665 11.132 17.5666 12.345 17.4868Z" stroke="#141B34" stroke-width="1.5" stroke-linejoin="round"/>
</svg>
