<svg width="24" height="24" viewBox="0 0 24 24" fill="none" xmlns="http://www.w3.org/2000/svg">
<path d="M12 19.5C10.6675 20.1224 8.91707 20.5 7 20.5C5.93408 20.5 4.91969 20.3833 4 20.1726C2.49957 19.8289 2 18.9264 2 17.386V6.61397C2 5.62914 3.04003 4.95273 4 5.1726C4.91969 5.38325 5.93408 5.5 7 5.5C8.91707 5.5 10.6675 5.12236 12 4.5C13.3325 3.87764 15.0829 3.5 17 3.5C18.0659 3.5 19.0803 3.61675 20 3.8274C21.5817 4.18968 22 5.12036 22 6.61397V17.386C22 18.3709 20.96 19.0473 20 18.8274C19.0803 18.6167 18.0659 18.5 17 18.5C15.0829 18.5 13.3325 18.8776 12 19.5Z" fill="white"/>
<path d="M11.697 19.524C10.4048 20.1314 8.70746 20.5 6.84848 20.5C5.81486 20.5 4.83121 20.3861 3.93939 20.1805C3.36611 20.0483 3.07946 19.9822 2.73599 19.7087C2.54009 19.5527 2.29559 19.2439 2.18823 19.0168C2 18.6188 2 18.2328 2 17.4608V6.94737C2 5.98619 3.00851 5.32602 3.93939 5.54061C4.37533 5.64111 4.919 5.80594 5.39394 5.86004L18 18.548H16.5455C14.6865 18.548 12.9891 18.9166 11.697 19.524Z" fill="#D4D7E0"/>
<path d="M9.5 12.0021C9.5 13.3829 10.6193 14.5021 12 14.5021C12.6904 14.5021 13.3154 14.2223 13.7678 13.7699L10.2322 10.2344C9.77982 10.6868 9.5 11.3118 9.5 12.0021Z" fill="white"/>
<path d="M5.5 13L5.5 13.009" stroke="#141B34" stroke-width="2" stroke-linecap="round" stroke-linejoin="round"/>
<path d="M18.5 10.9922L18.5 11.0012" stroke="#141B34" stroke-width="2" stroke-linecap="round" stroke-linejoin="round"/>
<path d="M18 18.548C18 18.548 17.0738 18.548 16.5455 18.548C14.6865 18.548 12.9891 18.9166 11.697 19.524C10.4048 20.1314 8.70746 20.5 6.84848 20.5C5.81486 20.5 4.83121 20.3861 3.93939 20.1805C3.36611 20.0483 3.07946 19.9822 2.73599 19.7087C2.54009 19.5527 2.29559 19.2439 2.18823 19.0168C2 18.6188 2 18.2328 2 17.4608V6.94737C2 5.98619 3.00851 5.32602 3.93939 5.54061C4.37533 5.64111 4.919 5.80594 5.39394 5.86004" stroke="#141B34" stroke-width="1.5" stroke-linecap="round" stroke-linejoin="round"/>
<path d="M21.9999 17.5V6.61397C21.9999 5.12036 21.5816 4.18968 19.9999 3.8274C19.0802 3.61675 18.0658 3.5 16.9999 3.5C15.0828 3.5 13.3324 3.87764 11.9999 4.5C11.2804 4.83602 10.4235 5.32757 9.5 5.5" stroke="#141B34" stroke-width="1.5" stroke-linecap="round" stroke-linejoin="round"/>
<path d="M13.7678 13.7699C13.3154 14.2223 12.6904 14.5021 12 14.5021C10.6193 14.5021 9.5 13.3829 9.5 12.0021C9.5 11.3118 9.77982 10.6868 10.2322 10.2344" stroke="#141B34" stroke-width="1.5" stroke-linecap="round"/>
<path d="M2 2L22 22" stroke="#141B34" stroke-width="1.5" stroke-linecap="round"/>
</svg>
