<svg width="24" height="24" viewBox="0 0 24 24" fill="none" xmlns="http://www.w3.org/2000/svg">
<path d="M18.0198 10.7552C19.7751 9.97419 21 8.20629 21 6.15045C19.0715 7.50911 16.6876 6.77163 14.6847 5.50548C13.0454 4.46918 12.2258 3.95102 11.8569 4.00364C11.5781 4.0434 11.4283 4.1242 11.244 4.33421C11.0481 4.55737 11.0095 5.1438 11.0019 6.23735C10.9988 6.68008 10.9972 6.90144 11.0899 7.10336C11.1826 7.30528 11.348 7.44557 11.6789 7.72615C13.2961 9.09737 14.7447 10.0863 16.0063 10.6818C16.6937 11.0062 17.3165 11.0682 18.0198 10.7552Z" fill="white"/>
<path d="M11 7.13678V17M11 7.13678C12.8928 8.81698 14.5706 10.0042 16.0063 10.6818C16.6937 11.0062 17.3165 11.0682 18.0198 10.7552C19.7751 9.97419 21 8.20629 21 6.15045C19.0715 7.50911 16.6876 6.77163 14.6847 5.50548C13.0454 4.46918 12.2258 3.95102 11.8569 4.00364C11.5781 4.0434 11.4283 4.1242 11.244 4.33421C11 4.61216 11 5.4537 11 7.13678Z" stroke="#141B34" stroke-width="1.5" stroke-linecap="round" stroke-linejoin="round"/>
<path d="M11 17C11 19.2091 9.20914 21 7 21C4.79086 21 3 19.2091 3 17C3 14.7909 4.79086 13 7 13C9.20914 13 11 14.7909 11 17Z" fill="#D4D7E0"/>
<path d="M11 17C11 19.2091 9.20914 21 7 21C4.79086 21 3 19.2091 3 17C3 14.7909 4.79086 13 7 13C9.20914 13 11 14.7909 11 17Z" stroke="#141B34" stroke-width="1.5" stroke-linecap="round" stroke-linejoin="round"/>
</svg>
