<svg width="24" height="24" viewBox="0 0 24 24" fill="none" xmlns="http://www.w3.org/2000/svg">
<path d="M2 11.5C2 7.02166 2 4.78249 3.39124 3.39124C4.78249 2 7.02166 2 11.5 2C15.9783 2 18.2175 2 19.6088 3.39124C21 4.78249 21 7.02166 21 11.5C21 15.9783 21 18.2175 19.6088 19.6088C18.2175 21 15.9783 21 11.5 21C7.02166 21 4.78249 21 3.39124 19.6088C2 18.2175 2 15.9783 2 11.5Z" fill="#D4D7E0"/>
<path d="M19.6085 3.39124C18.2172 2 15.9781 2 11.4997 2C7.02138 2 4.78221 2 3.39097 3.39124C2.57416 4.20804 2.23691 5.31712 2.09766 7H20.9018C20.7625 5.31712 20.4253 4.20804 19.6085 3.39124Z" fill="white"/>
<path d="M2 7H21" stroke="#141B34" stroke-width="1.5" stroke-linejoin="round"/>
<path d="M16.5 2L13.5 7" stroke="#141B34" stroke-width="1.5" stroke-linejoin="round"/>
<path d="M9.5 2L6.5 7" stroke="#141B34" stroke-width="1.5" stroke-linejoin="round"/>
<path d="M11.5 21C7.02166 21 4.78249 21 3.39124 19.6088C2 18.2175 2 15.9783 2 11.5C2 7.02166 2 4.78249 3.39124 3.39124C4.78249 2 7.02166 2 11.5 2C15.9783 2 18.2175 2 19.6088 3.39124C21 4.78249 21 7.02166 21 11.5" stroke="#141B34" stroke-width="1.5" stroke-linecap="round"/>
<path d="M14 18H22M18 22L18 14" stroke="#141B34" stroke-width="1.5" stroke-linecap="round"/>
</svg>
