<svg width="24" height="24" viewBox="0 0 24 24" fill="none" xmlns="http://www.w3.org/2000/svg">
<path d="M18.2348 13.3197C19.5317 14.6166 20.1801 15.265 20.0262 16.2665C20.0191 16.3128 20.0031 16.3932 19.992 16.4386C19.7509 17.4228 19.0904 17.6964 17.7693 18.2436C16.5611 18.7441 15.2661 19.0016 13.9584 19.0016C12.6506 19.0016 11.3557 18.7441 10.1475 18.2436C8.93926 17.7431 7.84146 17.0096 6.91674 16.0849C5.99202 15.1602 5.25849 14.0624 4.75803 12.8542C4.25758 11.646 4 10.351 4 9.04327C4 7.73552 4.25758 6.44057 4.75804 5.23237C5.30526 3.91126 5.57887 3.2507 6.56303 3.00963C6.60849 2.99849 6.68884 2.98251 6.7351 2.9754C7.7366 2.8215 8.38506 3.46996 9.68197 4.76687L18.2348 13.3197Z" fill="#D4D7E0"/>
<path d="M17.7134 5.53125L12.5 7.13484L15.8766 10.5312L17.7134 5.53125Z" fill="#D4D7E0"/>
<circle cx="19" cy="4" r="2" fill="white"/>
<path d="M9 22L6 15L3 22H9Z" fill="white"/>
<path d="M9 22L6 15L3 22H9Z" stroke="#141B34" stroke-width="1.5" stroke-linecap="round" stroke-linejoin="round"/>
<path d="M18.1917 13.3352C19.4847 14.6282 20.1312 15.2747 19.9778 16.2732C19.9707 16.3193 19.9548 16.3994 19.9437 16.4447C19.7033 17.4259 19.0448 17.6987 17.7276 18.2443C16.5231 18.7432 15.2321 19 13.9283 19C12.6245 19 11.3334 18.7432 10.1289 18.2443C8.92433 17.7453 7.82984 17.014 6.90792 16.0921C5.986 15.1702 5.25468 14.0757 4.75574 12.8711C4.2568 11.6666 4 10.3755 4 9.07173C4 7.76794 4.2568 6.4769 4.75575 5.27235C5.30131 3.95524 5.5741 3.29668 6.55528 3.05633C6.60061 3.04523 6.68071 3.0293 6.72683 3.02221C7.72531 2.86878 8.3718 3.51527 9.66479 4.80826L18.1917 13.3352Z" stroke="#141B34" stroke-width="1.5" stroke-linecap="round" stroke-linejoin="round"/>
<circle cx="19" cy="4" r="2" stroke="#141B34" stroke-width="1.5"/>
<path d="M12.5 7.13484L17.7134 5.53125L15.8766 10.5312" stroke="#141B34" stroke-width="1.5" stroke-linecap="round" stroke-linejoin="round"/>
</svg>
