<svg width="24" height="24" viewBox="0 0 24 24" fill="none" xmlns="http://www.w3.org/2000/svg">
<path d="M8.0011 21.9448L3.79203 21.4202C2.20615 21.2225 1.90147 20.8555 2.0244 19.262L2.66164 11.0016C5.99096 11.4016 7.06709 7.1724 7.18899 5.00781L17 5.02644C16.9918 7.01815 17.878 11.0016 21.4878 11.0016C21.7709 13.7404 21.7678 16.5679 21.9756 19.262C22.0985 20.8555 21.7938 21.2225 20.208 21.4202L15.9989 21.9448C14.3667 22.1483 13.9767 21.8554 13.7434 20.227L13.0124 15.1246H10.9876L10.2566 20.227C10.0233 21.8554 9.63333 22.1483 8.0011 21.9448Z" fill="#D4D7E0"/>
<path d="M20.1778 5.63399C20.3876 6.53423 20.8974 7.33712 21.0816 8.25129C21.2629 9.15108 21.3918 10.0697 21.4878 10.9986C17.878 10.9986 16.9919 7.01515 17.0001 5.02344L20.099 5.02932C20.1092 5.23358 20.1317 5.43604 20.1778 5.63399Z" fill="white"/>
<path d="M2.91698 8.25272C2.84424 8.61382 2.81578 8.98263 2.75888 9.72027L2.66016 11C5.98947 11.4 7.0656 7.17083 7.1875 5.00624L3.90102 5C3.89161 5.21469 3.86919 5.42754 3.82074 5.63542C3.61093 6.53567 3.10114 7.33855 2.91698 8.25272Z" fill="white"/>
<path d="M18.0755 2H5.92708C4.25445 2 3.90234 2.34611 3.90234 4.01893C3.90234 4.34287 3.9181 4.67356 3.90379 5L7.19027 5.00624L17.0013 5.02487L20.1002 5.03075C20.0835 4.69434 20.1002 4.35304 20.1002 4.01893C20.1002 2.34611 19.7481 2 18.0755 2Z" fill="white"/>
<path d="M10.9876 15.1231L10.2566 20.2254C10.0233 21.8538 9.63333 22.1467 8.0011 21.9433L3.79203 21.4186C2.20615 21.221 1.90147 20.854 2.0244 19.2605L2.76037 9.72027C2.81727 8.98263 2.84572 8.61382 2.91847 8.25272C3.10263 7.33855 3.61242 6.53567 3.82223 5.63542C3.94435 5.11145 3.90106 4.55591 3.90106 4.01893C3.90106 2.34611 4.25316 2 5.92579 2H18.0742C19.7468 2 20.0989 2.34611 20.0989 4.01893C20.0989 4.55591 20.0557 5.11145 20.1778 5.63542C20.3876 6.53567 20.8974 7.33855 21.0815 8.25272C21.7973 11.8057 21.6973 15.6526 21.9756 19.2605C22.0985 20.854 21.7938 21.221 20.208 21.4186L15.9989 21.9433C14.3667 22.1467 13.9767 21.8538 13.7434 20.2254L13.0124 15.1231" stroke="#141B34" stroke-width="1.5" stroke-linecap="round" stroke-linejoin="round"/>
<path d="M9 13.5C9.76053 14.2605 10.1976 15 11.3284 15H12.6716C13.8024 15 14.2395 14.2605 15 13.5" stroke="#141B34" stroke-width="1.5" stroke-linecap="round" stroke-linejoin="round"/>
<path d="M4 5H20" stroke="#141B34" stroke-width="1.5" stroke-linecap="round" stroke-linejoin="round"/>
<path d="M3 11C7 11.0068 7 7.00225 7 5" stroke="#141B34" stroke-width="1.5" stroke-linecap="round" stroke-linejoin="round"/>
<path d="M17 5C17 7.00225 17 11.0068 21 11" stroke="#141B34" stroke-width="1.5" stroke-linecap="round" stroke-linejoin="round"/>
</svg>
