<svg width="24" height="24" viewBox="0 0 24 24" fill="none" xmlns="http://www.w3.org/2000/svg">
<path d="M2.1529 19.2633C2.5961 20 3.74696 20 6.04867 20H17.9513C20.253 20 21.4039 20 21.8471 19.2633C22.2903 18.5266 21.7357 17.5355 20.6265 15.5533L14.9602 6.11395C13.6545 3.64999 12.9283 2.27961 12 2C11.0717 2.27961 10.3455 3.64999 9.03977 6.11395L3.37355 15.5533C2.26431 17.5355 1.70969 18.5266 2.1529 19.2633Z" fill="#D4D7E0"/>
<path d="M21.9906 12.9536C22.0088 12.5106 22.0179 12.289 21.8603 12.1336C21.7028 11.9782 21.4834 11.9902 21.0446 12.0143C17.4089 12.2141 12.6324 14.0106 15.0003 19.3372C20.3289 21.707 21.8397 16.638 21.9906 12.9536Z" fill="white"/>
<path d="M17.9999 15.9988C16.4999 16.999 14.6842 18.9772 14 22M15 19.3372C12.6321 14.0106 17.4087 12.2141 21.0443 12.0143C21.4831 11.9902 21.7025 11.9782 21.86 12.1336C22.0176 12.289 22.0085 12.5106 21.9903 12.9536C21.8394 16.638 20.3286 21.707 15 19.3372Z" stroke="#141B34" stroke-width="1.5" stroke-linecap="round" stroke-linejoin="round"/>
<path d="M11 20H6.02099C3.73502 20 2.59203 20 2.15185 19.2655C1.71168 18.531 2.2625 17.5428 3.36416 15.5666L4.79185 13.0054C5.53109 11.6793 5.90071 11.0162 6.47924 11.0003C7.05776 10.9844 7.46426 11.6261 8.27725 12.9095L8.97855 14.0166" stroke="#141B34" stroke-width="1.5" stroke-linecap="round" stroke-linejoin="round"/>
<path d="M8 8.03384L8.99165 6.15531C10.4526 3.38777 11.1831 2.004 12.2929 2.00001C13.4027 1.99601 14.1419 3.37449 15.6204 6.13145L15.8647 6.58709C16.7821 8.29766 17.2407 9.15294 16.8728 9.68491C16.5048 10.2169 15.6024 10.0032 13.7975 9.5758L13.715 9.55628" stroke="#141B34" stroke-width="1.5" stroke-linecap="round" stroke-linejoin="round"/>
</svg>
