<svg width="24" height="24" viewBox="0 0 24 24" fill="none" xmlns="http://www.w3.org/2000/svg">
<path d="M8 22H18C19.8856 22 20.8284 22 21.4142 21.4142C22 20.8284 22 19.8856 22 18V17C22 15.1144 22 14.1716 21.4142 13.5858C20.8284 13 19.8856 13 18 13H11V6C11 4.11438 11 3.17157 10.4142 2.58579C9.82843 2 8.88562 2 7 2H6C4.11438 2 3.17157 2 2.58579 2.58579C2 3.17157 2 4.11438 2 6V16C2 18.8284 2 20.2426 2.87868 21.1213C3.75736 22 5.17157 22 8 22Z" fill="#D4D7E0"/>
<path d="M15 12C15 13.6569 13.6569 15 12 15C10.3431 15 9 13.6569 9 12C9 10.3431 10.3431 9 12 9C13.6569 9 15 10.3431 15 12Z" fill="white"/>
<path d="M18 13C19.8856 13 20.8284 13 21.4142 13.5858C22 14.1716 22 15.1144 22 17V18C22 19.8856 22 20.8284 21.4142 21.4142C20.8284 22 19.8856 22 18 22H8C5.17157 22 3.75736 22 2.87868 21.1213C2 20.2426 2 18.8284 2 16L2 6C2 4.11438 2 3.17157 2.58579 2.58579C3.17157 2 4.11438 2 6 2L7 2C8.88562 2 9.82843 2 10.4142 2.58579C11 3.17157 11 4.11438 11 6" stroke="#141B34" stroke-width="1.5" stroke-linecap="round" stroke-linejoin="round"/>
<path d="M15 12C15 13.6569 13.6569 15 12 15C10.3431 15 9 13.6569 9 12C9 10.3431 10.3431 9 12 9C13.6569 9 15 10.3431 15 12Z" stroke="#141B34" stroke-width="1.5"/>
</svg>
