<svg width="24" height="24" viewBox="0 0 24 24" fill="none" xmlns="http://www.w3.org/2000/svg">
<path d="M20 14C20 17.7712 20 19.6569 18.7552 20.8284C17.5104 22 15.5069 22 11.5 22L10.7273 22C7.46607 22 5.83546 22 4.70307 21.2022C4.37862 20.9736 4.09058 20.7025 3.8477 20.3971C3 19.3313 3 17.7966 3 14.7273L3 12.1818C3 9.21865 3 7.73706 3.46894 6.55375C4.22282 4.65142 5.81714 3.15088 7.83836 2.44135C9.09563 2 10.6698 2 13.8182 2C15.6173 2 16.5168 2 17.2352 2.2522C18.3902 2.65765 19.3013 3.5151 19.732 4.60214C20 5.27832 20 6.12494 20 7.81818L20 14Z" fill="#D4D7E0"/>
<path d="M3.41058 6.54557C3.00284 7.55706 2.93806 8.78954 2.91691 10.9856C3.25806 10.1531 4.83511 8.50023 8.43012 8.52136C8.73152 8.52313 9.52395 8.22454 9.49269 6.58132C9.48468 5.08547 10.0514 2.11899 12.3644 2.0463C10.1323 2.04302 8.8582 2.09584 7.8041 2.45893C5.77874 3.15657 4.17563 4.64771 3.41058 6.54557Z" fill="white"/>
<path d="M15.7598 13L14.2963 16.9123C14.0251 17.6374 13.8894 18 13.6746 18C13.4598 18 13.3242 17.6374 13.0529 16.9123L11.5894 13M20.9819 13.8333C20.9029 12.9849 20.1826 13 19.4235 13C18.6794 13 18.3074 13 18.0762 13.2441C17.8451 13.4882 17.8451 13.881 17.8451 14.6667V16.3333C17.8451 17.119 17.8451 17.5118 18.0762 17.7559C18.3074 18 18.6794 18 19.4235 18C20.1676 18 20.5396 18 20.7708 17.7559C21.002 17.5118 21.002 17.119 21.002 16.3333C21.002 15.747 19.8181 15.9167 19.8181 15.9167M9.22558 13H8.25308C7.86445 13 7.67013 13 7.51685 13.0634C6.99485 13.2795 7.00195 13.7873 7.00195 14.25C7.00195 14.7127 6.99485 15.2205 7.51685 15.4366C7.67013 15.5 7.86445 15.5 8.25308 15.5C8.64171 15.5 8.83603 15.5 8.98931 15.5634C9.51131 15.7795 9.50421 16.2873 9.50421 16.75C9.50421 17.2127 9.51131 17.7205 8.98931 17.9366C8.83603 18 8.64171 18 8.25308 18H7.19387" stroke="#141B34" stroke-width="1.5" stroke-linecap="round" stroke-linejoin="round"/>
<path d="M15 22H10.7273C7.46607 22 5.83546 22 4.70307 21.2022C4.37862 20.9736 4.09058 20.7025 3.8477 20.3971C3 19.3313 3 17.7966 3 14.7273V12.1818C3 9.21865 3 7.73706 3.46894 6.55375C4.22281 4.65142 5.81714 3.15088 7.83836 2.44135C9.09563 2 10.6698 2 13.8182 2C15.6173 2 16.5168 2 17.2352 2.2522C18.3902 2.65765 19.3012 3.5151 19.732 4.60214C20 5.27832 20 6.12494 20 7.81818V10" stroke="#141B34" stroke-width="1.5" stroke-linecap="round" stroke-linejoin="round"/>
<path d="M3 12C3 10.1591 4.49238 8.66667 6.33333 8.66667C6.99912 8.66667 7.78404 8.78333 8.43137 8.60988C9.00652 8.45576 9.45576 8.00652 9.60988 7.43136C9.78333 6.78404 9.66667 5.99912 9.66667 5.33333C9.66667 3.49238 11.1591 2 13 2" stroke="#141B34" stroke-width="1.5" stroke-linecap="round" stroke-linejoin="round"/>
</svg>
