<svg width="24" height="24" viewBox="0 0 24 24" fill="none" xmlns="http://www.w3.org/2000/svg">
<path d="M22 12C22 17.5228 17.5228 22 12 22C6.47715 22 2 17.5228 2 12C2 6.47715 6.47715 2 12 2C17.5228 2 22 6.47715 22 12Z" fill="#D4D7E0"/>
<path d="M17 12C17 14.7614 14.7614 17 12 17C9.23858 17 7 14.7614 7 12C7 9.23858 9.23858 7 12 7C14.7614 7 17 9.23858 17 12Z" fill="white"/>
<path d="M17 12C17 14.7614 14.7614 17 12 17C9.23858 17 7 14.7614 7 12C7 9.23858 9.23858 7 12 7" stroke="#141B34" stroke-width="1.5" stroke-linecap="round"/>
<path d="M14 2.20004C13.3538 2.06886 12.6849 2 12 2C6.47715 2 2 6.47715 2 12C2 17.5228 6.47715 22 12 22C17.5228 22 22 17.5228 22 12C22 11.3151 21.9311 10.6462 21.8 10" stroke="#141B34" stroke-width="1.5" stroke-linecap="round"/>
<path d="M19.1749 2.33007L19.6913 4.30912L21.6703 4.82548C22.0407 4.92211 22.1164 5.39591 21.8103 5.70196L20.661 6.85135C19.8813 7.63105 18.7927 7.96805 17.8491 7.72186L16.6035 7.39687L16.2785 6.15129C16.0323 5.20771 16.3694 4.11915 17.1491 3.33944L18.2984 2.19006C18.6045 1.88401 19.0783 1.95969 19.1749 2.33007Z" fill="white"/>
<path d="M16.6031 7.39687L12 12M16.6031 7.39687L16.2781 6.15129C16.0319 5.20771 16.369 4.11915 17.1487 3.33944L18.298 2.19006C18.6041 1.88401 19.0779 1.95969 19.1745 2.33007L19.6909 4.30912L21.6699 4.82548C22.0403 4.92211 22.116 5.39591 21.8099 5.70196L20.6606 6.85135C19.8809 7.63105 18.7923 7.96805 17.8487 7.72186L16.6031 7.39687Z" stroke="#141B34" stroke-width="1.5" stroke-linecap="round" stroke-linejoin="round"/>
</svg>
