<svg width="24" height="24" viewBox="0 0 24 24" fill="none" xmlns="http://www.w3.org/2000/svg">
<path d="M8.73421 14.2678C9.46644 15 10.645 15 13.002 15H16.9994C19.3564 15 20.5349 15 21.2672 14.2678C21.9994 13.5355 21.9994 12.357 21.9994 10V8C21.9994 5.64298 21.9994 4.46447 21.2672 3.73223C20.5349 3 19.3564 3 16.9994 3H12.9994C10.6424 3 9.46385 3 8.73162 3.73223C8.11121 4.35264 8.01906 5.29344 8.00459 7C7.99611 7.99992 8.00198 9.00006 8.00198 10C8.00198 12.357 8.00198 13.5355 8.73421 14.2678Z" fill="#D4D7E0"/>
<circle cx="7.5" cy="12.5" r="2.5" fill="white"/>
<path d="M13 15C10.7083 21 4.29167 15 2 21" stroke="#141B34" stroke-width="1.5" stroke-linecap="round" stroke-linejoin="round"/>
<path d="M15.5 15H17.0013C19.3583 15 20.5368 15 21.2691 14.2678C22.0013 13.5355 22.0013 12.357 22.0013 10V8C22.0013 5.64298 22.0013 4.46447 21.2691 3.73223C20.5368 3 19.3583 3 17.0013 3H13.0013C10.6443 3 9.46576 3 8.73353 3.73223C8.11312 4.35264 8.01838 5.29344 8.00391 7" stroke="#141B34" stroke-width="1.5" stroke-linecap="round" stroke-linejoin="round"/>
<circle cx="7.5" cy="12.5" r="2.5" stroke="#141B34" stroke-width="1.5" stroke-linecap="round" stroke-linejoin="round"/>
<path d="M12 7H18M18 11H15" stroke="#141B34" stroke-width="1.5" stroke-linecap="round" stroke-linejoin="round"/>
</svg>
