<svg width="24" height="24" viewBox="0 0 24 24" fill="none" xmlns="http://www.w3.org/2000/svg">
<path d="M22 12C22 17.5228 17.5228 22 12 22C6.47715 22 2 17.5228 2 12C2 6.47715 6.47715 2 12 2C17.5228 2 22 6.47715 22 12Z" fill="#D4D7E0"/>
<path d="M22 12C22 17.5228 17.5228 22 12 22C6.47715 22 2 17.5228 2 12C2 6.47715 6.47715 2 12 2C17.5228 2 22 6.47715 22 12Z" stroke="#141B34" stroke-width="1.5"/>
<path d="M5 18.9988C9.0099 15.4606 8.99009 8.51947 5 4.99879L4.91723 4.93945C3.11446 6.74816 2 9.24333 2 11.9988C2 14.7572 3.11687 17.2548 4.92307 19.064L5 18.9988Z" fill="white"/>
<path d="M19 4.99879C15.0099 8.51947 14.9901 15.4606 19 18.9988L19.0808 19.0601C20.8847 17.2512 22 14.7552 22 11.9988C22 9.24234 20.8847 6.74637 19.0808 4.9375L19 4.99879Z" fill="white"/>
<path d="M5 18.9988C9.0099 15.4606 8.99009 8.51947 5 4.99879L4.91723 4.93945C3.11446 6.74816 2 9.24333 2 11.9988C2 14.7572 3.11687 17.2548 4.92307 19.064L5 18.9988Z" stroke="#141B34" stroke-width="1.5"/>
<path d="M19 4.99879C15.0099 8.51947 14.9901 15.4606 19 18.9988L19.0808 19.0601C20.8847 17.2512 22 14.7552 22 11.9988C22 9.24234 20.8847 6.74637 19.0808 4.9375L19 4.99879Z" stroke="#141B34" stroke-width="1.5"/>
</svg>
