<svg width="24" height="24" viewBox="0 0 24 24" fill="none" xmlns="http://www.w3.org/2000/svg">
<path d="M2 8V9.56091C2 9.86218 2.0252 10.134 2.10806 10.4238C2.93715 13.3235 5.92032 17.6665 9.52749 18.8626C9.68794 18.9158 9.84296 18.95 10 18.971C10.1594 18.9923 10.321 19 10.4924 19H13.5076C13.679 19 13.8406 18.9923 14 18.971C14.157 18.95 14.3121 18.9158 14.4725 18.8626C18.0797 17.6665 21.0629 13.3235 21.8919 10.4238C21.933 10.28 21.96 10.1407 21.9766 10C21.9936 9.85707 22 9.71274 22 9.56091V8C22 6.58579 22 5.87868 21.5607 5.43934C21.1213 5 20.4142 5 19 5H5C3.58579 5 2.87868 5 2.43934 5.43934C2 5.87868 2 6.58579 2 8Z" fill="#D4D7E0"/>
<path d="M14.4725 18.8614C18.0797 17.6653 21.0629 13.3223 21.8919 10.4226C21.933 10.2788 21.96 10.1395 21.9766 9.99883C19.3178 9.81284 14 11.3467 14 18.9698C14.157 18.9488 14.3121 18.9146 14.4725 18.8614Z" fill="white"/>
<path d="M9.52749 18.8642C5.92032 17.6681 2.93715 13.325 2.10806 10.4254C1.9776 9.96906 2.39771 9.58067 2.86382 9.66995C5.51791 10.1783 9.64194 12.5068 10 18.9726C9.84296 18.9516 9.68794 18.9174 9.52749 18.8642Z" fill="white"/>
<path d="M14 18.5C14 15.8333 15.9 10 21.5 10M10 18.5C10 15.8333 8.1 10 2.5 10" stroke="#141B34" stroke-width="1.5" stroke-linecap="round" stroke-linejoin="round"/>
<path d="M10.5 8H13.5" stroke="#141B34" stroke-width="1.5" stroke-linecap="round" stroke-linejoin="round"/>
<path d="M2 8V9.56091C2 9.86218 2.0252 10.134 2.10806 10.4238C2.93715 13.3235 5.92032 17.6665 9.52749 18.8626C9.85085 18.9698 10.1521 19 10.4924 19H13.5076C13.8479 19 14.1492 18.9698 14.4725 18.8626C18.0797 17.6665 21.0629 13.3235 21.8919 10.4238C21.9748 10.134 22 9.86218 22 9.56091V8C22 6.58579 22 5.87868 21.5607 5.43934C21.1213 5 20.4142 5 19 5H5C3.58579 5 2.87868 5 2.43934 5.43934C2 5.87868 2 6.58579 2 8Z" stroke="#141B34" stroke-width="1.5" stroke-linecap="round" stroke-linejoin="round"/>
</svg>
