<svg width="24" height="24" viewBox="0 0 24 24" fill="none" xmlns="http://www.w3.org/2000/svg">
<path d="M5.31027 3.78404L6.3913 10C5.18256 11.3352 4.22118 12.3776 4.05904 13.1756C4.00813 13.4262 3.99003 13.6821 4.00519 13.9372C4.05345 14.7495 4.55807 15.4928 5.56729 16.9792L7.56252 19.4764C7.84573 19.8309 8 20.2711 8 20.7248V22H17.4304V21.0449C17.4304 20.501 17.978 19.6577 18.1442 19.4142C18.1755 19.3684 18.2058 19.3224 18.2344 19.2749L18.9007 18.1654C18.9669 18.0552 19.0283 17.9437 19.0785 17.8253C19.3139 17.2702 19.9973 16.3675 20 13.5168C20 13.5058 19.9999 13.4959 19.9996 13.4849C19.9915 13.2172 19.8261 9.48775 16.9338 9.48775C16.7075 8.63136 15.9275 8 15 8H13.9412L14.685 3.78504C14.8493 2.85383 14.133 2 13.1874 2C12.4895 2 11.8813 2.47493 11.712 3.15192L10 10L8.28842 3.15367C8.11891 2.47565 7.50971 2 6.81082 2C5.8653 2 5.14826 2.85251 5.31027 3.78404Z" fill="#D4D7E0"/>
<path d="M6.26109 13.6285C6.33206 14.0366 6.72042 14.3099 7.12851 14.2389C7.53659 14.1679 7.80988 13.7796 7.73891 13.3715L6.26109 13.6285ZM5.31027 3.78404L4.57136 3.91255L5.31027 3.78404ZM8.28842 3.15367L9.01603 2.97177V2.97177L8.28842 3.15367ZM10 10L9.27239 10.1819C9.35586 10.5158 9.65585 10.75 10 10.75C10.3442 10.75 10.6441 10.5158 10.7276 10.1819L10 10ZM12.7614 10.3697C12.6894 10.7776 12.9618 11.1666 13.3697 11.2386C13.7776 11.3106 14.1666 11.0382 14.2386 10.6303L12.7614 10.3697ZM14.685 3.78504L13.9464 3.65471L14.685 3.78504ZM11.712 3.15192L10.9844 2.97002V2.97002L11.712 3.15192ZM14 7.25C13.5858 7.25 13.25 7.58579 13.25 8C13.25 8.41421 13.5858 8.75 14 8.75V7.25ZM16.25 11C16.25 11.4142 16.5858 11.75 17 11.75C17.4142 11.75 17.75 11.4142 17.75 11H16.25ZM5.56729 16.9792L4.94679 17.4005C4.9577 17.4166 4.96923 17.4322 4.98135 17.4474L5.56729 16.9792ZM7.56252 19.4764L8.14846 19.0083L7.56252 19.4764ZM4.00519 13.9372L3.25651 13.9817L4.00519 13.9372ZM6.59031 10.8781C6.8683 10.571 6.84472 10.0967 6.53764 9.81872C6.23056 9.54073 5.75628 9.56431 5.47829 9.87138L6.59031 10.8781ZM4.05904 13.1756L3.32406 13.0262L4.05904 13.1756ZM7.25 22C7.25 22.4142 7.58579 22.75 8 22.75C8.41421 22.75 8.75 22.4142 8.75 22H7.25ZM18.9007 18.1654L19.5436 18.5515L19.5436 18.5515L18.9007 18.1654ZM18.2344 19.2749L17.5914 18.8888L17.5914 18.8888L18.2344 19.2749ZM16.6804 22C16.6804 22.4142 17.0161 22.75 17.4304 22.75C17.8446 22.75 18.1804 22.4142 18.1804 22H16.6804ZM18.1442 19.4142L18.7636 19.8371L18.7636 19.8371L18.1442 19.4142ZM19.0785 17.8253L18.388 17.5326L18.388 17.5326L19.0785 17.8253ZM17 8.75C16.5858 8.75 16.25 9.08579 16.25 9.5C16.25 9.91421 16.5858 10.25 17 10.25V8.75ZM20.75 13.5C20.75 13.0858 20.4142 12.75 20 12.75C19.5858 12.75 19.25 13.0858 19.25 13.5H20.75ZM7.73891 13.3715L6.04918 3.65554L4.57136 3.91255L6.26109 13.6285L7.73891 13.3715ZM7.56081 3.33558L9.27239 10.1819L10.7276 9.8181L9.01603 2.97177L7.56081 3.33558ZM6.81082 2.75C7.16556 2.75 7.47477 2.99143 7.56081 3.33558L9.01603 2.97177C8.76305 1.95988 7.85386 1.25 6.81082 1.25V2.75ZM6.04918 3.65554C5.96695 3.18271 6.3309 2.75 6.81082 2.75V1.25C5.39971 1.25 4.32958 2.52231 4.57136 3.91255L6.04918 3.65554ZM14.2386 10.6303L15.4236 3.91538L13.9464 3.65471L12.7614 10.3697L14.2386 10.6303ZM10.9844 2.97002L9.27239 9.8181L10.7276 10.1819L12.4396 3.33382L10.9844 2.97002ZM13.1874 1.25C12.1454 1.25 11.2371 1.95915 10.9844 2.97002L12.4396 3.33382C12.5254 2.99071 12.8337 2.75 13.1874 2.75V1.25ZM15.4236 3.91538C15.669 2.52491 14.5993 1.25 13.1874 1.25V2.75C13.6666 2.75 14.0297 3.18274 13.9464 3.65471L15.4236 3.91538ZM14 8.75H15V7.25H14V8.75ZM16.25 10V11H17.75V10H16.25ZM15 8.75C15.6904 8.75 16.25 9.30964 16.25 10H17.75C17.75 8.48122 16.5188 7.25 15 7.25V8.75ZM4.98135 17.4474L6.97657 19.9446L8.14846 19.0083L6.15323 16.511L4.98135 17.4474ZM6.18779 16.5579C5.67498 15.8026 5.32104 15.2799 5.08415 14.846C4.85404 14.4245 4.76895 14.1465 4.75387 13.8927L3.25651 13.9817C3.28969 14.5402 3.48104 15.04 3.76761 15.5648C4.0474 16.0773 4.45038 16.6693 4.94679 17.4005L6.18779 16.5579ZM5.47829 9.87138C4.88366 10.5282 4.40143 11.0597 4.05239 11.529C3.69502 12.0095 3.43545 12.478 3.32406 13.0262L4.79403 13.3249C4.84477 13.0751 4.96846 12.8108 5.25599 12.4242C5.55186 12.0264 5.97619 11.5564 6.59031 10.8781L5.47829 9.87138ZM4.75387 13.8927C4.74257 13.7026 4.75605 13.5118 4.79403 13.3249L3.32406 13.0262C3.2602 13.3405 3.23749 13.6616 3.25651 13.9817L4.75387 13.8927ZM7.25 20.7248V22H8.75V20.7248H7.25ZM18.2577 17.7793L17.5914 18.8888L18.8773 19.661L19.5436 18.5515L18.2577 17.7793ZM16.6804 21.0449V22H18.1804V21.0449H16.6804ZM17.5249 18.9912C17.4332 19.1255 17.235 19.4267 17.0568 19.7762C16.8956 20.0924 16.6804 20.579 16.6804 21.0449H18.1804C18.1804 20.9669 18.239 20.7599 18.3931 20.4576C18.5303 20.1885 18.6891 19.9463 18.7636 19.8371L17.5249 18.9912ZM6.97657 19.9446C7.15358 20.1661 7.25 20.4413 7.25 20.7248H8.75C8.75 20.101 8.53788 19.4957 8.14846 19.0083L6.97657 19.9446ZM19.25 13.5C19.25 14.871 19.0861 15.7373 18.9108 16.3078C18.721 16.9255 18.5605 17.1256 18.388 17.5326L19.769 18.118C19.8323 17.9688 20.1326 17.4382 20.3446 16.7483C20.5711 16.0112 20.75 14.993 20.75 13.5H19.25ZM20 13.5C20.75 13.5 20.75 13.4997 20.75 13.4994C20.75 13.4993 20.75 13.499 20.75 13.4987C20.75 13.4982 20.75 13.4977 20.75 13.4971C20.75 13.4958 20.75 13.4944 20.75 13.4926C20.75 13.4892 20.7499 13.4848 20.7499 13.4795C20.7497 13.4688 20.7495 13.4543 20.749 13.4363C20.7481 13.4004 20.7464 13.3503 20.7431 13.288C20.7364 13.1637 20.7233 12.9895 20.6973 12.782C20.6459 12.3707 20.5419 11.809 20.3272 11.2367C20.1138 10.6674 19.7758 10.0472 19.2326 9.56444C18.674 9.06788 17.9344 8.75 17 8.75V10.25C17.5656 10.25 17.951 10.4321 18.2361 10.6856C18.5367 10.9528 18.7612 11.3326 18.9228 11.7633C19.0831 12.191 19.1666 12.6293 19.2089 12.968C19.2298 13.1355 19.2402 13.2738 19.2452 13.3682C19.2477 13.4153 19.2489 13.4512 19.2495 13.4738C19.2498 13.4851 19.2499 13.4931 19.25 13.4976C19.25 13.4998 19.25 13.5012 19.25 13.5016C19.25 13.5018 19.25 13.5017 19.25 13.5015C19.25 13.5014 19.25 13.5012 19.25 13.5009C19.25 13.5008 19.25 13.5006 19.25 13.5005C19.25 13.5003 19.25 13.5 20 13.5ZM17.5914 18.8888C17.5734 18.9187 17.5521 18.9514 17.5249 18.9913L18.7636 19.8371C18.7989 19.7854 18.8383 19.7261 18.8773 19.661L17.5914 18.8888ZM19.5436 18.5515C19.6183 18.4272 19.6995 18.2822 19.7691 18.118L18.388 17.5326C18.3572 17.6053 18.3155 17.6831 18.2577 17.7793L19.5436 18.5515ZM19.25 13.5C19.25 13.5 20 13.5 20.75 13.5C20.75 13.5 20.75 13.5 20 13.5C19.25 13.5 19.25 13.5 19.25 13.5C20 13.5 20.75 13.5 20.75 13.5H19.25Z" fill="#141B34"/>
</svg>
