<svg width="24" height="24" viewBox="0 0 24 24" fill="none" xmlns="http://www.w3.org/2000/svg">
<path d="M22 15V13C22 10.1716 22 8.75736 21.1213 7.87868C20.6956 7.53244 20.2201 7.31053 19.7632 7.1732C19.055 6.96035 18.7009 6.85392 18.5821 6.77724C18.3653 6.63735 18.4012 6.67444 18.268 6.45351C18.1949 6.3324 18.0959 5.96278 17.8978 5.22354C17.6204 4.18827 16.8117 3.37962 15.7765 3.10222C15.395 3 14.93 3 14 3H10C6.22876 3 4.34315 3 3.17157 4.17157C2 5.34315 2 7.22876 2 11V13C2 16.7712 2 18.6569 3.17157 19.8284C4.34315 21 6.22876 21 10 21H16C18.8284 21 20.2426 21 21.1213 20.1213C22 19.2426 22 17.8284 22 15Z" fill="#D4D7E0"/>
<path d="M16.002 13.5C16.002 14.3284 16.6735 15 17.502 15C18.3304 15 19.002 14.3284 19.002 13.5C19.002 12.6716 18.3304 12 17.502 12C16.6735 12 16.002 12.6716 16.002 13.5Z" fill="white"/>
<path d="M16.002 13.5C16.002 14.3284 16.6735 15 17.502 15C18.3304 15 19.002 14.3284 19.002 13.5C19.002 12.6716 18.3304 12 17.502 12C16.6735 12 16.002 12.6716 16.002 13.5Z" stroke="#141B34" stroke-width="1.5"/>
<path d="M2.00195 11C2.00195 7.22876 2.00195 5.34315 3.17353 4.17157C4.3451 3 6.23072 3 10.002 3H14.002C14.9319 3 15.3969 3 15.7784 3.10222C16.8137 3.37962 17.6223 4.18827 17.8997 5.22354C18.002 5.60504 18.002 6.07003 18.002 7M10.002 7H16.002C18.8304 7 20.2446 7 21.1233 7.87868C22.002 8.75736 22.002 10.1716 22.002 13V15C22.002 17.8284 22.002 19.2426 21.1233 20.1213C20.2446 21 18.8304 21 16.002 21H12.5005" stroke="#141B34" stroke-width="1.5" stroke-linecap="round"/>
<path d="M10 17H6M6 17H2M6 17V21M6 17L6 13" stroke="#141B34" stroke-width="1.5" stroke-linecap="round"/>
</svg>
