<svg width="24" height="24" viewBox="0 0 24 24" fill="none" xmlns="http://www.w3.org/2000/svg">
<path d="M20 14C20 17.7712 20 19.6569 18.7552 20.8284C17.5104 22 15.5069 22 11.5 22L10.7273 22C7.46607 22 5.83546 22 4.70307 21.2022C4.37862 20.9736 4.09058 20.7025 3.8477 20.3971C3 19.3313 3 17.7966 3 14.7273L3 12.1818C3 9.21865 3 7.73706 3.46894 6.55375C4.22282 4.65142 5.81714 3.15088 7.83836 2.44135C9.09563 2 10.6698 2 13.8182 2C15.6173 2 16.5168 2 17.2352 2.2522C18.3902 2.65765 19.3013 3.5151 19.732 4.60214C20 5.27832 20 6.12494 20 7.81818L20 14Z" fill="#D4D7E0"/>
<path d="M3.41058 6.54557C3.00284 7.55706 2.93806 8.78954 2.91691 10.9856C3.25806 10.1531 4.83511 8.50023 8.43012 8.52136C8.73152 8.52313 9.52395 8.22454 9.49269 6.58132C9.48468 5.08547 10.0514 2.11899 12.3644 2.0463C10.1323 2.04302 8.8582 2.09584 7.8041 2.45893C5.77874 3.15657 4.17563 4.64771 3.41058 6.54557Z" fill="white"/>
<path d="M19.7292 13H19.0504C18.5705 13 18.3305 13 18.1814 13.1464C18.0323 13.2929 18.0323 13.5286 18.0323 14V15.5H19.7292C20.4321 15.5 21.002 14.9404 21.002 14.25C21.002 13.5596 20.4321 13 19.7292 13Z" fill="white"/>
<path d="M17.2823 18C17.2823 18.4142 17.618 18.75 18.0323 18.75C18.4465 18.75 18.7823 18.4142 18.7823 18H17.2823ZM15.4868 18.75C15.901 18.75 16.2368 18.4142 16.2368 18C16.2368 17.5858 15.901 17.25 15.4868 17.25V18.75ZM12.9413 17.25C12.5271 17.25 12.1913 17.5858 12.1913 18C12.1913 18.4142 12.5271 18.75 12.9413 18.75V17.25ZM12.9413 12.25C12.5271 12.25 12.1913 12.5858 12.1913 13C12.1913 13.4142 12.5271 13.75 12.9413 13.75V12.25ZM15.4868 13.75C15.901 13.75 16.2368 13.4142 16.2368 13C16.2368 12.5858 15.901 12.25 15.4868 12.25V13.75ZM7.00195 12.25C6.58774 12.25 6.25195 12.5858 6.25195 13C6.25195 13.4142 6.58774 13.75 7.00195 13.75V12.25ZM10.3959 18.75C10.8101 18.75 11.1459 18.4142 11.1459 18C11.1459 17.5858 10.8101 17.25 10.3959 17.25V18.75ZM9.31995 14.8138L8.76388 14.3105H8.76388L9.31995 14.8138ZM8.07789 16.1862L8.63396 16.6895L8.07789 16.1862ZM7.2178 17.6919L7.82456 17.2511L7.82456 17.2511L7.2178 17.6919ZM19.0504 13.75H19.7292V12.25H19.0504V13.75ZM18.7823 18V15.5H17.2823V18H18.7823ZM18.7823 15.5V14H17.2823V15.5H18.7823ZM19.7292 14.75H18.0323V16.25H19.7292V14.75ZM20.252 14.25C20.252 14.5135 20.0307 14.75 19.7292 14.75V16.25C20.8336 16.25 21.752 15.3673 21.752 14.25H20.252ZM19.7292 13.75C20.0307 13.75 20.252 13.9865 20.252 14.25H21.752C21.752 13.1327 20.8336 12.25 19.7292 12.25V13.75ZM19.0504 12.25C18.8313 12.25 18.5928 12.2485 18.3936 12.2748C18.1743 12.3037 17.8935 12.378 17.6558 12.6114L18.7069 13.6815C18.6681 13.7196 18.6259 13.7441 18.5935 13.7572C18.5671 13.7679 18.5595 13.7659 18.59 13.7619C18.6209 13.7578 18.6702 13.7541 18.7517 13.7521C18.8328 13.75 18.9277 13.75 19.0504 13.75V12.25ZM18.7823 14C18.7823 13.8793 18.7823 13.7867 18.7843 13.7076C18.7864 13.6282 18.7901 13.5814 18.794 13.5531C18.7978 13.5254 18.7991 13.5359 18.7869 13.5651C18.7722 13.6003 18.7458 13.6433 18.7069 13.6815L17.6558 12.6114C17.4163 12.8466 17.3382 13.1278 17.3078 13.3496C17.2806 13.5485 17.2823 13.7859 17.2823 14H18.7823ZM15.4868 17.25H14.2141V18.75H15.4868V17.25ZM14.2141 17.25H12.9413V18.75H14.2141V17.25ZM12.9413 13.75H14.2141V12.25H12.9413V13.75ZM14.2141 13.75H15.4868V12.25H14.2141V13.75ZM13.4641 13V18H14.9641V13H13.4641ZM7.00195 13.75H8.00212V12.25H7.00195V13.75ZM10.3959 17.25H9.39573V18.75H10.3959V17.25ZM8.76388 14.3105L7.52182 15.6829L8.63396 16.6895L9.87603 15.3171L8.76388 14.3105ZM9.39573 17.25C8.72546 17.25 8.28653 17.2489 7.98337 17.2159C7.63685 17.1782 7.72861 17.119 7.82456 17.2511L6.61104 18.1328C6.93082 18.5729 7.46018 18.6678 7.82099 18.7071C8.22515 18.7511 8.76326 18.75 9.39573 18.75V17.25ZM7.52182 15.6829C7.18099 16.0595 6.85629 16.4144 6.66155 16.7181C6.56145 16.8742 6.45029 17.0834 6.41409 17.33C6.37263 17.6124 6.43713 17.8934 6.61104 18.1328L7.82456 17.2511C7.88655 17.3364 7.91227 17.4519 7.89818 17.5479C7.88936 17.608 7.87172 17.6097 7.92429 17.5277C8.0349 17.3552 8.25217 17.1113 8.63396 16.6895L7.52182 15.6829ZM8.00212 13.75C8.67238 13.75 9.11132 13.7511 9.41448 13.7841C9.761 13.8218 9.66924 13.881 9.57329 13.7489L10.7868 12.8672C10.467 12.4271 9.93766 12.3322 9.57686 12.2929C9.17269 12.2489 8.63458 12.25 8.00212 12.25V13.75ZM9.87603 15.3171C10.2169 14.9405 10.5416 14.5856 10.7363 14.2819C10.8364 14.1258 10.9476 13.9166 10.9838 13.67C11.0252 13.3876 10.9607 13.1066 10.7868 12.8672L9.57329 13.7489C9.5113 13.6636 9.48557 13.5481 9.49966 13.4521C9.50849 13.392 9.52613 13.3903 9.47356 13.4723C9.36294 13.6448 9.14568 13.8887 8.76388 14.3105L9.87603 15.3171Z" fill="#141B34"/>
<path d="M15 22H10.7273C7.46607 22 5.83546 22 4.70307 21.2022C4.37862 20.9736 4.09058 20.7025 3.8477 20.3971C3 19.3313 3 17.7966 3 14.7273V12.1818C3 9.21865 3 7.73706 3.46894 6.55375C4.22281 4.65142 5.81714 3.15088 7.83836 2.44135C9.09563 2 10.6698 2 13.8182 2C15.6173 2 16.5168 2 17.2352 2.2522C18.3902 2.65765 19.3012 3.5151 19.732 4.60214C20 5.27832 20 6.12494 20 7.81818V10" stroke="#141B34" stroke-width="1.5" stroke-linecap="round" stroke-linejoin="round"/>
<path d="M3 12C3 10.1591 4.49238 8.66667 6.33333 8.66667C6.99912 8.66667 7.78404 8.78333 8.43137 8.60988C9.00652 8.45576 9.45576 8.00652 9.60988 7.43136C9.78333 6.78404 9.66667 5.99912 9.66667 5.33333C9.66667 3.49238 11.1591 2 13 2" stroke="#141B34" stroke-width="1.5" stroke-linecap="round" stroke-linejoin="round"/>
</svg>
