<svg width="24" height="24" viewBox="0 0 24 24" fill="none" xmlns="http://www.w3.org/2000/svg">
<path opacity="0.4" d="M6.91156 1.2891C7.07733 1.25684 7.26245 1.24052 7.43659 1.25295C7.66619 1.26933 7.87556 1.39025 8.0045 1.58093C8.13343 1.77162 8.16767 2.01095 8.09736 2.23014C7.87458 2.92463 7.75 3.69179 7.75 4.50105C7.75 6.14488 8.26336 7.60571 9.05893 8.63996C9.85389 9.6734 10.9002 10.251 12 10.251C13.0998 10.251 14.1461 9.6734 14.9411 8.63996C15.7366 7.60571 16.25 6.14488 16.25 4.50105C16.25 3.69179 16.1254 2.92463 15.9026 2.23014C15.8323 2.01095 15.8666 1.77162 15.9955 1.58093C16.1244 1.39025 16.3338 1.26933 16.5634 1.25295C16.7375 1.24052 16.9227 1.25684 17.0884 1.2891C17.2498 1.32052 17.448 1.37765 17.6273 1.48021L20.2143 2.96003C20.8909 3.34706 21.2466 4.15042 21.0196 4.92829C20.9424 5.19311 20.8622 5.45651 20.7823 5.71892L20.7822 5.71915C20.526 6.56063 20.2729 7.39199 20.129 8.22787C19.9428 9.30939 19.9679 10.2679 20.3663 11.0852C20.4791 11.3167 20.6847 11.6588 20.8294 11.8944L20.8294 11.8946C20.9498 12.0894 21.0805 12.3012 21.1982 12.516C21.4942 13.0563 21.75 13.6882 21.75 14.4976C21.75 16.0195 20.9512 17.3551 19.75 18.1068V19.053C19.75 19.9515 19.7501 19.7007 19.6701 20.2955C19.5857 20.9233 19.4 21.4901 18.9445 21.9456C18.4891 22.4011 17.9223 22.5867 17.2945 22.6711C16.6997 22.7511 15.9505 22.7511 15.052 22.751H8.94801C8.04952 22.7511 7.3003 22.7511 6.70552 22.6711C6.07773 22.5867 5.51093 22.4011 5.05546 21.9456C4.59999 21.4901 4.41432 20.9233 4.32991 20.2955C4.24994 19.7007 4.24997 19.9515 4.25 19.053L4.25 18.1068C3.04876 17.3551 2.25 16.0195 2.25 14.4976C2.25 13.6882 2.50579 13.0563 2.80183 12.5159C2.91951 12.3011 3.12538 11.9675 3.24572 11.7726C3.39036 11.537 3.52092 11.3167 3.63373 11.0852C4.03207 10.2679 4.05719 9.30939 3.87102 8.22787C3.72714 7.39199 3.47401 6.56064 3.21781 5.71916L3.2178 5.71913C3.13788 5.45665 3.05767 5.19318 2.98037 4.92829C2.75339 4.15042 3.10907 3.34706 3.78568 2.96003L6.37271 1.48021C6.552 1.37765 6.75017 1.32052 6.91156 1.2891Z" fill="#141B34"/>
<path fill-rule="evenodd" clip-rule="evenodd" d="M16.6168 1.24878C14.97 1.3663 13.1608 1.7819 12 3.235C10.8392 1.7819 9.02998 1.3663 7.38321 1.24878C7.38308 1.24919 7.38294 1.2496 7.38281 1.25001C7.4009 1.2507 7.4189 1.25167 7.43679 1.25295C7.66639 1.26933 7.87575 1.39025 8.00469 1.58093C8.13363 1.77162 8.16787 2.01095 8.09756 2.23014C7.96338 2.64842 7.86482 3.09306 7.80765 3.55739C9.10883 4.22496 10 5.58659 10 7.15781C10 7.81608 9.76433 8.53087 9.46468 9.10606C10.1242 9.77405 10.9093 10.1696 11.7343 10.2398C11.8223 10.2457 11.9109 10.2488 12 10.2488C12.0898 10.2488 12.179 10.2457 12.2677 10.2396C13.0953 10.1688 13.8827 9.77057 14.5434 9.09828C14.243 8.52444 14 7.81312 14 7.15781C14 5.58645 14.8913 4.2247 16.1927 3.5572C16.1355 3.09294 16.037 2.64837 15.9028 2.23014C15.8325 2.01095 15.8668 1.77162 15.9957 1.58093C16.1246 1.39025 16.334 1.26933 16.5636 1.25295C16.5814 1.25168 16.5992 1.25071 16.6172 1.25003C16.6171 1.24961 16.6169 1.2492 16.6168 1.24878Z" fill="#141B34"/>
<path fill-rule="evenodd" clip-rule="evenodd" d="M12.0841 16.0015C12.8344 16.0163 13.5236 16.2382 14.2898 16.5589C14.6719 16.7188 14.852 17.1582 14.692 17.5403C14.5321 17.9224 14.0927 18.1025 13.7106 17.9426C13.0003 17.6452 12.52 17.5104 12.0546 17.5012C11.5944 17.4922 11.0748 17.6054 10.2962 17.9398C9.91566 18.1033 9.47459 17.9274 9.31109 17.5468C9.14759 17.1662 9.32357 16.7251 9.70415 16.5616C10.5866 16.1825 11.3287 15.9867 12.0841 16.0015Z" fill="#141B34"/>
</svg>
