<svg width="24" height="24" viewBox="0 0 24 24" fill="none" xmlns="http://www.w3.org/2000/svg">
<path d="M11 21C7.25027 21 5.3754 21 4.06107 20.0451C3.6366 19.7367 3.26331 19.3634 2.95492 18.9389C2 17.6246 2 15.7497 2 12C2 8.25027 2 6.3754 2.95491 5.06107C3.26331 4.6366 3.6366 4.26331 4.06107 3.95492C5.3754 3 7.25027 3 11 3L13 3C16.7497 3 18.6246 3 19.9389 3.95491C20.3634 4.26331 20.7367 4.6366 21.0451 5.06107C22 6.3754 22 8.25027 22 12C22 15.7497 22 17.6246 21.0451 18.9389C20.7367 19.3634 20.3634 19.7367 19.9389 20.0451C18.6246 21 16.7497 21 13 21H11Z" fill="#D4D7E0"/>
<path d="M11.0004 21H13.0004C16.7501 21 18.625 21 19.9393 20.0451C20.3638 19.7367 20.7371 19.3634 21.0455 18.9389C21.7027 18.0343 21.9076 16.8642 21.9714 15H2.0293C2.09317 16.8642 2.29805 18.0343 2.95528 18.9389C3.26368 19.3634 3.63697 19.7367 4.06144 20.0451C5.37577 21 7.25063 21 11.0004 21H11.0004Z" fill="white"/>
<path d="M11 21.5C7.25027 21.5 5.3754 21.5 4.06107 20.492C3.6366 20.1665 3.26331 19.7725 2.95492 19.3244C2 17.9371 2 15.9581 2 12C2 8.04195 2 6.06292 2.95491 4.67558C3.26331 4.22752 3.6366 3.8335 4.06107 3.50797C5.3754 2.5 7.25027 2.5 11 2.5L13 2.5C16.7497 2.5 18.6246 2.5 19.9389 3.50797C20.3634 3.8335 20.7367 4.22752 21.0451 4.67558C22 6.06292 22 8.04195 22 12C22 15.9581 22 17.9371 21.0451 19.3244C20.7367 19.7725 20.3634 20.1665 19.9389 20.492C18.6246 21.5 16.7497 21.5 13 21.5H11Z" stroke="#141B34" stroke-width="1.5"/>
<path d="M2.5 15H21.5" stroke="#141B34" stroke-width="1.5" stroke-linecap="round" stroke-linejoin="round"/>
<path fill-rule="evenodd" clip-rule="evenodd" d="M7.00896 18H7H7.00896Z" fill="white"/>
<path fill-rule="evenodd" clip-rule="evenodd" d="M11 18H10.991H11Z" fill="white"/>
<path d="M7.00896 18H7M11 18H10.991" stroke="#141B34" stroke-width="2" stroke-linecap="round" stroke-linejoin="round"/>
<path d="M17 10.2C16.5447 10.2 16.0655 10.2282 15.6569 9.97709C15.5011 9.88138 15.3977 9.74907 15.191 9.48446L13.25 7L10.75 11L8.94338 9.26564C8.68722 9.01973 8.43747 8.77042 8.09845 8.67176C7.85189 8.6 7.56792 8.6 7 8.6" stroke="#141B34" stroke-width="1.5" stroke-linecap="round" stroke-linejoin="round"/>
</svg>
