<svg width="24" height="24" viewBox="0 0 24 24" fill="none" xmlns="http://www.w3.org/2000/svg">
<path d="M2.5 10C2.5 14.4183 6.1104 18 10.564 18C12.246 18 13.8077 17.4892 15.1001 16.6153C19.1639 13.5076 18.7546 8.91021 18.0419 7C16.8456 4.06817 13.9483 2 10.564 2C6.1104 2 2.5 5.58172 2.5 10Z" fill="#D4D7E0"/>
<circle cx="10.5" cy="10" r="2" fill="white"/>
<path d="M11.4999 21.9671C15.4982 21.7017 18.8796 19.8483 20.4906 16.9569C20.7225 16.5405 20.8385 16.3323 20.838 16.2014C20.8372 16.0074 20.8424 16.0213 20.7151 15.8751C20.6291 15.7763 19.7991 15.4807 18.1391 14.8896L18.1391 14.8896C17.522 14.6699 17.2135 14.56 17.1208 14.5623C16.9656 14.5661 17.0122 14.5528 16.8785 14.6318C16.7988 14.679 16.6046 14.9241 16.2163 15.4143L16.2163 15.4143C15.4389 16.3955 14.0074 17.489 11.4146 17.8918C10.9652 17.9617 10.7405 17.9966 10.6203 18.137C10.5 18.2774 10.5 18.4916 10.5 18.9201V21C10.5 21.4773 10.5 21.716 10.6584 21.8642C10.8167 22.0124 11.0444 21.9973 11.4999 21.9671Z" fill="white"/>
<circle cx="19" cy="12.5" r="2.5" fill="white"/>
<path d="M18 7C16.807 4.06817 13.9174 2 10.5423 2C6.10066 2 2.5 5.58172 2.5 10C2.5 14.4183 6.10066 18 10.5423 18C12.2197 18 13.7772 17.4892 15.0661 16.6153" stroke="#141B34" stroke-width="1.5" stroke-linecap="round"/>
<path d="M21.5 13C21.5 18.1004 17.1065 21.595 11.4999 21.9671C11.0444 21.9973 10.8167 22.0124 10.6584 21.8642C10.5 21.716 10.5 21.4773 10.5 21V18" stroke="#141B34" stroke-width="1.5" stroke-linecap="round" stroke-linejoin="round"/>
<circle cx="19" cy="12.5" r="2.5" stroke="#141B34" stroke-width="1.5"/>
<circle cx="10.5" cy="10" r="2" stroke="#141B34" stroke-width="1.5" stroke-linecap="round"/>
</svg>
