<svg width="24" height="24" viewBox="0 0 24 24" fill="none" xmlns="http://www.w3.org/2000/svg">
<path d="M19.0435 17.4687C18.7476 17.1788 18.2728 17.1836 17.9829 17.4795C17.6929 17.7753 17.6977 18.2502 17.9936 18.5401L19.0435 17.4687ZM17.9936 21.4643C17.6977 21.7543 17.6929 22.2291 17.9829 22.5249C18.2728 22.8208 18.7476 22.8256 19.0435 22.5357L17.9936 21.4643ZM4.56223 16.9454L3.92482 16.5501L4.56223 16.9454ZM10.3942 1.79801C9.99461 1.90721 9.75923 2.31964 9.86843 2.7192C9.97763 3.11876 10.3901 3.35414 10.7896 3.24494L10.3942 1.79801ZM13.8301 5.06015C13.935 5.46084 14.3449 5.70058 14.7456 5.59561C15.1463 5.49064 15.3861 5.08073 15.2811 4.68003L13.8301 5.06015ZM3.58798 19.4875L2.93072 19.8487L2.93072 19.8487L3.58798 19.4875ZM20.5 19.2522H6.24237V20.7522H20.5V19.2522ZM21.25 20.0022C21.25 19.7629 21.1684 19.5608 21.0938 19.4202C21.0161 19.2738 20.917 19.1404 20.8197 19.0252C20.6257 18.7956 20.379 18.569 20.1467 18.3705C19.9112 18.1693 19.6637 17.9747 19.4628 17.8156C19.245 17.6431 19.1086 17.5326 19.0435 17.4687L17.9936 18.5401C18.1288 18.6726 18.3404 18.8401 18.5316 18.9915C18.7398 19.1564 18.9627 19.3318 19.1724 19.511C19.3854 19.6929 19.5589 19.8572 19.6738 19.9932C19.731 20.0609 19.7585 20.104 19.7688 20.1234C19.7822 20.1487 19.75 20.1016 19.75 20.0022H21.25ZM19.0435 22.5357C19.1086 22.4718 19.245 22.3613 19.4628 22.1888C19.6637 22.0297 19.9112 21.8351 20.1467 21.6339C20.379 21.4354 20.6257 21.2088 20.8197 20.9792C20.917 20.864 21.0161 20.7306 21.0938 20.5842C21.1684 20.4436 21.25 20.2415 21.25 20.0022H19.75C19.75 19.9028 19.7822 19.8557 19.7688 19.881C19.7585 19.9004 19.731 19.9435 19.6738 20.0112C19.5589 20.1472 19.3854 20.3115 19.1724 20.4934C18.9627 20.6726 18.7398 20.848 18.5316 21.0129C18.3404 21.1643 18.1288 21.3318 17.9936 21.4643L19.0435 22.5357ZM13.1431 1.68374L3.92482 16.5501L5.19963 17.3406L14.4179 2.47423L13.1431 1.68374ZM14.1455 1.4238C13.954 1.31708 13.7499 1.27965 13.5989 1.2636C13.4369 1.24638 13.2668 1.24727 13.1039 1.25653C12.778 1.27504 12.4124 1.33138 12.0679 1.39744C11.3753 1.53024 10.6814 1.7195 10.3942 1.79801L10.7896 3.24494C11.0771 3.16638 11.7207 2.99132 12.3503 2.87061C12.6669 2.80991 12.9587 2.76719 13.189 2.75411C13.3042 2.74756 13.387 2.74952 13.4403 2.7552C13.5048 2.76205 13.4787 2.76935 13.4155 2.73417L14.1455 1.4238ZM15.2811 4.68003C15.2573 4.58935 15.2288 4.41122 15.1868 4.1284C15.1481 3.86768 15.1017 3.54712 15.0429 3.2338C14.9848 2.92475 14.9086 2.58852 14.8015 2.29785C14.7477 2.152 14.6783 1.9957 14.5859 1.8522C14.4966 1.71347 14.3572 1.54172 14.1455 1.4238L13.4155 2.73417C13.3323 2.68778 13.3088 2.63944 13.3247 2.66411C13.3375 2.68398 13.3625 2.73104 13.394 2.81662C13.4575 2.98879 13.5155 3.22768 13.5687 3.51079C13.6211 3.78964 13.663 4.07827 13.7031 4.34856C13.7399 4.59675 13.7806 4.87143 13.8301 5.06015L15.2811 4.68003ZM6.24237 19.2522C5.42625 19.2522 4.90114 19.2502 4.53923 19.1961C4.18245 19.1428 4.21459 19.0705 4.24525 19.1262L2.93072 19.8487C3.24428 20.4192 3.81312 20.6043 4.31757 20.6796C4.81688 20.7542 5.47751 20.7522 6.24237 20.7522V19.2522ZM3.92482 16.5501C3.51909 17.2044 3.16788 17.7671 2.96647 18.2322C2.76358 18.7008 2.61844 19.2806 2.93072 19.8487L4.24525 19.1262C4.27462 19.1797 4.19755 19.1641 4.34298 18.8282C4.4899 18.4889 4.76726 18.0379 5.19963 17.3406L3.92482 16.5501Z" fill="#141B34"/>
<path d="M7.5 12.5C10.3377 12.9811 12.5 14.9749 12.5 17.979C12.5 18.6877 12.3797 19.3679 12.1586 20" stroke="#141B34" stroke-width="1.5" stroke-linecap="round" stroke-linejoin="round"/>
</svg>
