<svg width="24" height="24" viewBox="0 0 24 24" fill="none" xmlns="http://www.w3.org/2000/svg">
<path d="M2.5 12C2.5 7.52166 2.5 5.28249 3.89124 3.89124C5.28249 2.5 7.52166 2.5 12 2.5C16.4783 2.5 18.7175 2.5 20.1088 3.89124C21.5 5.28249 21.5 7.52166 21.5 12C21.5 16.4783 21.5 18.7175 20.1088 20.1088C18.7175 21.5 16.4783 21.5 12 21.5C7.52166 21.5 5.28249 21.5 3.89124 20.1088C2.5 18.7175 2.5 16.4783 2.5 12Z" stroke="#141B34" stroke-width="1.5" stroke-linejoin="round"/>
<path d="M6.25 10.5C6.25 10.9142 6.58579 11.25 7 11.25C7.41421 11.25 7.75 10.9142 7.75 10.5H6.25ZM9.25 10.5C9.25 10.9142 9.58579 11.25 10 11.25C10.4142 11.25 10.75 10.9142 10.75 10.5H9.25ZM7.75 7C7.75 6.58579 7.41421 6.25 7 6.25C6.58579 6.25 6.25 6.58579 6.25 7H7.75ZM8.46934 14.9251L9.12389 14.559L8.46934 14.9251ZM8.97246 15.8245L8.31791 16.1907H8.31791L8.97246 15.8245ZM10.7692 15.6971L10.0708 15.4236V15.4236L10.7692 15.6971ZM12.4971 11.2843L13.1955 11.5577L12.4971 11.2843ZM17 10.75C17.4142 10.75 17.75 10.4142 17.75 10C17.75 9.58579 17.4142 9.25 17 9.25V10.75ZM13.1164 10.1756L12.6898 9.55879L12.6898 9.55879L13.1164 10.1756ZM9.95498 16.9991L9.90192 16.251H9.90192L9.95498 16.9991ZM7.94544 14.2702L7.72383 14.9867H7.72383L7.94544 14.2702ZM6.65765 13.8327C6.2891 14.0218 6.14362 14.4738 6.3327 14.8424C6.52177 15.2109 6.97381 15.3564 7.34235 15.1673L6.65765 13.8327ZM7.75 10.5V8.71429H6.25V10.5H7.75ZM9.25 8.71429V10.5H10.75V8.71429H9.25ZM10.75 8.71429C10.75 7.4505 9.83358 6.25 8.5 6.25V7.75C8.82327 7.75 9.25 8.08452 9.25 8.71429H10.75ZM7.75 8.71429C7.75 8.08452 8.17673 7.75 8.5 7.75V6.25C7.16642 6.25 6.25 7.4505 6.25 8.71429H7.75ZM7.75 8.71429V7H6.25V8.71429H7.75ZM7.81479 15.2913L8.31791 16.1907L9.62701 15.4584L9.12389 14.559L7.81479 15.2913ZM11.4675 15.9706L13.1955 11.5577L11.7987 11.0108L10.0708 15.4236L11.4675 15.9706ZM14.3541 10.75H17V9.25H14.3541V10.75ZM13.1955 11.5577C13.3232 11.2315 13.3982 11.0428 13.4677 10.9096C13.4992 10.8494 13.5204 10.819 13.5321 10.8044C13.5375 10.7976 13.5407 10.7945 13.5416 10.7936C13.5425 10.7929 13.5427 10.7927 13.543 10.7925L12.6898 9.55879C12.426 9.74122 12.2619 9.97813 12.138 10.2155C12.0222 10.4372 11.9146 10.715 11.7987 11.0108L13.1955 11.5577ZM14.3541 9.25C14.043 9.25 13.748 9.24891 13.5009 9.27663C13.2345 9.30652 12.9548 9.37553 12.6898 9.55879L13.543 10.7925C13.5433 10.7923 13.5433 10.7923 13.5437 10.7921C13.5442 10.7918 13.5474 10.7903 13.5546 10.788C13.5701 10.783 13.6034 10.7745 13.6682 10.7673C13.8124 10.7511 14.0093 10.75 14.3541 10.75V9.25ZM8.31791 16.1907C8.52867 16.5675 8.72662 16.9253 8.91836 17.1755C9.10191 17.4151 9.45177 17.7867 10.008 17.7472L9.90192 16.251C10.1451 16.2338 10.2269 16.417 10.109 16.2632C9.99934 16.12 9.86256 15.8795 9.62701 15.4584L8.31791 16.1907ZM10.0708 15.4236C9.89456 15.8738 9.79148 16.1318 9.70195 16.2895C9.60552 16.4594 9.66015 16.2681 9.90192 16.251L10.008 17.7472C10.5629 17.7079 10.8576 17.2923 11.0064 17.03C11.1622 16.7555 11.3097 16.3737 11.4675 15.9706L10.0708 15.4236ZM9.12389 14.559C9.02275 14.3782 8.91255 14.1781 8.79722 14.0231C8.66977 13.8518 8.47529 13.649 8.16705 13.5537L7.72383 14.9867C7.67196 14.9706 7.63027 14.9454 7.60287 14.9231C7.58018 14.9046 7.57712 14.8961 7.59372 14.9184C7.6106 14.9411 7.63594 14.9793 7.67512 15.0455C7.71412 15.1114 7.7579 15.1896 7.81479 15.2913L9.12389 14.559ZM7 14.5C7.34235 15.1673 7.34225 15.1674 7.34215 15.1674C7.34212 15.1674 7.34203 15.1675 7.34197 15.1675C7.34185 15.1676 7.34174 15.1676 7.34164 15.1677C7.34143 15.1678 7.34127 15.1679 7.34113 15.1679C7.34087 15.1681 7.34075 15.1681 7.34077 15.1681C7.34082 15.1681 7.34142 15.1678 7.34254 15.1672C7.3448 15.1661 7.34914 15.1639 7.35535 15.1609C7.36781 15.1549 7.38744 15.1455 7.41248 15.1342C7.46358 15.1112 7.53208 15.0823 7.60507 15.0566C7.68097 15.03 7.74448 15.0129 7.78902 15.0056C7.84865 14.9957 7.81046 15.0135 7.72383 14.9867L8.16705 13.5537C7.92523 13.4789 7.69127 13.5014 7.54454 13.5256C7.38271 13.5524 7.22925 13.5988 7.10759 13.6415C6.98302 13.6853 6.87335 13.7319 6.79568 13.7669C6.75633 13.7847 6.72392 13.8001 6.70044 13.8114C6.68867 13.8172 6.67907 13.8219 6.67187 13.8255C6.66827 13.8273 6.66527 13.8288 6.66289 13.83C6.6617 13.8306 6.66066 13.8312 6.65979 13.8316C6.65935 13.8318 6.65895 13.832 6.6586 13.8322C6.65842 13.8323 6.65825 13.8324 6.65809 13.8325C6.65801 13.8325 6.6579 13.8326 6.65786 13.8326C6.65775 13.8326 6.65765 13.8327 7 14.5Z" fill="#141B34"/>
</svg>
