<svg width="24" height="24" viewBox="0 0 24 24" fill="none" xmlns="http://www.w3.org/2000/svg">
<path d="M20.9749 20.4749C21.6082 19.8415 22 18.9665 22 18C22 16.067 20.433 14.5 18.5 14.5C17.5335 14.5 16.6585 14.8918 16.0251 15.5251M20.9749 20.4749C20.3415 21.1082 19.4665 21.5 18.5 21.5C16.567 21.5 15 19.933 15 18C15 17.0335 15.3918 16.1585 16.0251 15.5251M20.9749 20.4749L16.0251 15.5251" stroke="#141B34" stroke-width="1.5"/>
<path d="M7 5.75C6.58579 5.75 6.25 6.08579 6.25 6.5C6.25 6.91421 6.58579 7.25 7 7.25V5.75ZM21.4944 7.83329L22.118 7.41661V7.41661L21.4944 7.83329ZM20.6667 7.00559L20.25 7.62919L20.25 7.62919L20.6667 7.00559ZM11.3666 5.23313L12.0374 4.89772V4.89772L11.3666 5.23313ZM9.19926 2.69101L9.4626 1.98876V1.98876L9.19926 2.69101ZM3.53806 2.88032L3.17258 2.2254L3.17258 2.2254L3.53806 2.88032ZM2.38032 4.03806L1.7254 3.67258L1.7254 3.67258L2.38032 4.03806ZM11 20.5L10.9993 21.25H11V20.5ZM12 21.25C12.4142 21.25 12.75 20.9142 12.75 20.5C12.75 20.0858 12.4142 19.75 12 19.75V21.25ZM21.25 12.5C21.25 12.9142 21.5858 13.25 22 13.25C22.4142 13.25 22.75 12.9142 22.75 12.5H21.25ZM7 7.25H12V5.75H7V7.25ZM12 7.25H16.75V5.75H12V7.25ZM1.25 10.5C1.25 12.8358 1.24841 14.6631 1.43975 16.0863C1.63399 17.531 2.03933 18.6711 2.93414 19.5659L3.9948 18.5052C3.42514 17.9355 3.09825 17.1648 2.92637 15.8864C2.75159 14.5864 2.75 12.8782 2.75 10.5H1.25ZM22.75 12C22.75 10.9597 22.7507 10.0674 22.6836 9.34136C22.6171 8.62183 22.4768 7.95363 22.118 7.41661L20.8708 8.24997C21.0176 8.46962 21.1301 8.83143 21.19 9.47941C21.2493 10.1209 21.25 10.9336 21.25 12H22.75ZM16.75 7.25C17.819 7.25 18.5642 7.25091 19.1387 7.30935C19.7007 7.36651 20.0155 7.47246 20.25 7.62919L21.0834 6.38199C20.5613 6.03313 19.9711 5.88628 19.2905 5.81705C18.6225 5.74909 17.7877 5.75 16.75 5.75V7.25ZM22.118 7.41661C21.8444 7.00715 21.4929 6.65558 21.0834 6.38199L20.25 7.62919C20.4957 7.79335 20.7066 8.00429 20.8708 8.24997L22.118 7.41661ZM10.6957 5.56854L11.3292 6.83541L12.6708 6.16459L12.0374 4.89772L10.6957 5.56854ZM2.75 10.5V7.44427H1.25V10.5H2.75ZM6.94427 3.25C8.16704 3.25 8.58429 3.2614 8.93592 3.39326L9.4626 1.98876C8.7955 1.7386 8.049 1.75 6.94427 1.75V3.25ZM6.94427 1.75C6.04944 1.75 5.32957 1.74932 4.7497 1.80044C4.15996 1.85242 3.64388 1.96238 3.17258 2.2254L3.90355 3.53524C4.11374 3.41794 4.39254 3.33774 4.88141 3.29464C5.38014 3.25068 6.02263 3.25 6.94427 3.25V1.75ZM2.75 7.44427C2.75 6.52263 2.75068 5.88014 2.79464 5.38141C2.83774 4.89254 2.91794 4.61374 3.03524 4.40355L1.7254 3.67258C1.46238 4.14388 1.35242 4.65996 1.30044 5.2497C1.24932 5.82957 1.25 6.54944 1.25 7.44427H2.75ZM3.17258 2.2254C2.56533 2.56428 2.06428 3.06533 1.7254 3.67258L3.03524 4.40355C3.23857 4.0392 3.5392 3.73857 3.90355 3.53524L3.17258 2.2254ZM12.0374 4.89772C11.5504 3.92377 10.9533 2.54778 9.4626 1.98876L8.93592 3.39326C9.77112 3.70645 10.1332 4.44338 10.6957 5.56854L12.0374 4.89772ZM11.0007 19.75C8.86114 19.7481 7.39004 19.7274 6.28195 19.547C5.21023 19.3725 4.54843 19.0588 3.9948 18.5052L2.93414 19.5659C3.7695 20.4012 4.75327 20.8179 6.04096 21.0275C7.29228 21.2312 8.89445 21.2482 10.9993 21.25L11.0007 19.75ZM11 21.25H12V19.75H11V21.25ZM21.25 12V12.5H22.75V12H21.25Z" fill="#141B34"/>
</svg>
