<svg width="24" height="24" viewBox="0 0 24 24" fill="none" xmlns="http://www.w3.org/2000/svg">
<path d="M17.2803 18C17.2803 18.4142 17.6161 18.75 18.0303 18.75C18.4445 18.75 18.7803 18.4142 18.7803 18H17.2803ZM15.4848 18.75C15.8991 18.75 16.2348 18.4142 16.2348 18C16.2348 17.5858 15.8991 17.25 15.4848 17.25V18.75ZM12.9394 17.25C12.5252 17.25 12.1894 17.5858 12.1894 18C12.1894 18.4142 12.5252 18.75 12.9394 18.75V17.25ZM12.9394 12.25C12.5252 12.25 12.1894 12.5858 12.1894 13C12.1894 13.4142 12.5252 13.75 12.9394 13.75V12.25ZM15.4848 13.75C15.8991 13.75 16.2348 13.4142 16.2348 13C16.2348 12.5858 15.8991 12.25 15.4848 12.25V13.75ZM7 12.25C6.58579 12.25 6.25 12.5858 6.25 13C6.25 13.4142 6.58579 13.75 7 13.75V12.25ZM10.3939 18.75C10.8082 18.75 11.1439 18.4142 11.1439 18C11.1439 17.5858 10.8082 17.25 10.3939 17.25V18.75ZM9.318 14.8138L8.76193 14.3105H8.76193L9.318 14.8138ZM8.07594 16.1862L8.63201 16.6895L8.07594 16.1862ZM7.21584 17.6919L7.8226 17.2511L7.8226 17.2511L7.21584 17.6919ZM19.0485 13.75H19.7273V12.25H19.0485V13.75ZM18.7803 18V15.5H17.2803V18H18.7803ZM18.7803 15.5V14H17.2803V15.5H18.7803ZM19.7273 14.75H18.0303V16.25H19.7273V14.75ZM20.25 14.25C20.25 14.5135 20.0288 14.75 19.7273 14.75V16.25C20.8316 16.25 21.75 15.3673 21.75 14.25H20.25ZM19.7273 13.75C20.0288 13.75 20.25 13.9865 20.25 14.25H21.75C21.75 13.1327 20.8316 12.25 19.7273 12.25V13.75ZM19.0485 12.25C18.8293 12.25 18.5908 12.2485 18.3917 12.2748C18.1723 12.3037 17.8915 12.378 17.6539 12.6114L18.7049 13.6815C18.6662 13.7196 18.624 13.7441 18.5916 13.7572C18.5651 13.7679 18.5576 13.7659 18.5881 13.7619C18.6189 13.7578 18.6683 13.7541 18.7498 13.7521C18.8309 13.75 18.9258 13.75 19.0485 13.75V12.25ZM18.7803 14C18.7803 13.8793 18.7804 13.7867 18.7824 13.7076C18.7844 13.6282 18.7881 13.5814 18.792 13.5531C18.7958 13.5254 18.7972 13.5359 18.785 13.5651C18.7702 13.6003 18.7439 13.6433 18.7049 13.6815L17.6539 12.6114C17.4144 12.8466 17.3362 13.1278 17.3059 13.3496C17.2787 13.5485 17.2803 13.7859 17.2803 14H18.7803ZM15.4848 17.25H14.2121V18.75H15.4848V17.25ZM14.2121 17.25H12.9394V18.75H14.2121V17.25ZM12.9394 13.75H14.2121V12.25H12.9394V13.75ZM14.2121 13.75H15.4848V12.25H14.2121V13.75ZM13.4621 13V18H14.9621V13H13.4621ZM7 13.75H8.00017V12.25H7V13.75ZM10.3939 17.25H9.39377V18.75H10.3939V17.25ZM8.76193 14.3105L7.51987 15.6829L8.63201 16.6895L9.87407 15.3171L8.76193 14.3105ZM9.39377 17.25C8.72351 17.25 8.28457 17.2489 7.98141 17.2159C7.6349 17.1782 7.72666 17.119 7.8226 17.2511L6.60908 18.1328C6.92887 18.5729 7.45823 18.6678 7.81904 18.7071C8.2232 18.7511 8.76131 18.75 9.39377 18.75V17.25ZM7.51987 15.6829C7.17904 16.0595 6.85434 16.4144 6.6596 16.7181C6.5595 16.8742 6.44833 17.0834 6.41214 17.33C6.37067 17.6124 6.43517 17.8934 6.60908 18.1328L7.8226 17.2511C7.88459 17.3364 7.91032 17.4519 7.89623 17.5479C7.8874 17.608 7.86976 17.6097 7.92233 17.5277C8.03295 17.3552 8.25022 17.1113 8.63201 16.6895L7.51987 15.6829ZM8.00017 13.75C8.67043 13.75 9.10937 13.7511 9.41253 13.7841C9.75904 13.8218 9.66728 13.881 9.57134 13.7489L10.7849 12.8672C10.4651 12.4271 9.93571 12.3322 9.5749 12.2929C9.17074 12.2489 8.63263 12.25 8.00017 12.25V13.75ZM9.87407 15.3171C10.2149 14.9405 10.5396 14.5856 10.7343 14.2819C10.8344 14.1258 10.9456 13.9166 10.9818 13.67C11.0233 13.3876 10.9588 13.1066 10.7849 12.8672L9.57134 13.7489C9.50935 13.6636 9.48362 13.5481 9.49771 13.4521C9.50654 13.392 9.52418 13.3903 9.47161 13.4723C9.36099 13.6448 9.14372 13.8887 8.76193 14.3105L9.87407 15.3171Z" fill="#141B34"/>
<path d="M15 22H10.7273C7.46607 22 5.83546 22 4.70307 21.2022C4.37862 20.9736 4.09058 20.7025 3.8477 20.3971C3 19.3313 3 17.7966 3 14.7273V12.1818C3 9.21865 3 7.73706 3.46894 6.55375C4.22281 4.65142 5.81714 3.15088 7.83836 2.44135C9.09563 2 10.6698 2 13.8182 2C15.6173 2 16.5168 2 17.2352 2.2522C18.3902 2.65765 19.3012 3.5151 19.732 4.60214C20 5.27832 20 6.12494 20 7.81818V10" stroke="#141B34" stroke-width="1.5" stroke-linecap="round" stroke-linejoin="round"/>
<path d="M3 12C3 10.1591 4.49238 8.66667 6.33333 8.66667C6.99912 8.66667 7.78404 8.78333 8.43137 8.60988C9.00652 8.45576 9.45576 8.00652 9.60988 7.43136C9.78333 6.78404 9.66667 5.99912 9.66667 5.33333C9.66667 3.49238 11.1591 2 13 2" stroke="#141B34" stroke-width="1.5" stroke-linecap="round" stroke-linejoin="round"/>
</svg>
