<svg width="24" height="24" viewBox="0 0 24 24" fill="none" xmlns="http://www.w3.org/2000/svg">
<path d="M21.3358 22.75L1.25 2.66421L2.66421 1.25L22.75 21.3358L21.3358 22.75Z" fill="#141B34"/>
<path d="M19.8147 7.19118H18.1162V5.25H20.7853C21.3213 5.25 21.7559 5.68455 21.7559 6.22059V18.2184L19.8147 16.2772V7.19118Z" fill="#141B34"/>
<path d="M20.7853 21.75H6.22645C5.69041 21.75 5.25586 21.3155 5.25586 20.7794V18.1103H7.19704V19.8088H19.8147L21.4696 21.4677C21.2941 21.6422 21.0523 21.75 20.7853 21.75Z" fill="#141B34"/>
<path d="M2.25391 3.22059V17.7794C2.25391 18.3155 2.68845 18.75 3.22449 18.75H17.7833C18.0508 18.75 18.293 18.6418 18.4686 18.4668L16.8106 16.8088H16.3655C15.6189 15.0775 14.3076 13.5585 12.5863 12.4173C10.3917 10.9623 7.65611 10.2022 4.86641 10.2523C4.64244 10.2519 4.41859 10.2565 4.19508 10.2658V4.19118L2.53713 2.53534C2.36211 2.71089 2.25391 2.95311 2.25391 3.22059Z" fill="#141B34"/>
<path d="M18.7539 3.22059C18.7539 2.68455 18.3194 2.25 17.7833 2.25H5.78732L7.7285 4.19118H16.8127V13.2754L18.7539 15.2166V3.22059Z" fill="#141B34"/>
<path fill-rule="evenodd" clip-rule="evenodd" d="M13 6H15V8H13V6Z" fill="#141B34"/>
</svg>
