<svg width="24" height="24" viewBox="0 0 24 24" fill="none" xmlns="http://www.w3.org/2000/svg">
<path d="M11.9993 11.8299L13.2207 15.25H10.7778L11.9993 11.8299Z" fill="#141B34"/>
<path fill-rule="evenodd" clip-rule="evenodd" d="M8.32915 1.66465C8.45618 1.41053 8.7159 1.25 9 1.25H15C15.2841 1.25 15.5438 1.4105 15.6708 1.66459L17.4635 5.25H22.0009C22.4152 5.25 22.7509 5.58579 22.7509 6V22.0003C22.7509 22.4145 22.4152 22.7503 22.0009 22.7503H2C1.58579 22.7503 1.25 22.4145 1.25 22.0003V6.00083C1.25 5.58662 1.58579 5.25083 2 5.25083H6.53643L8.32915 1.66465ZM13 5H11V7H13V5ZM13.0278 10.25H10.9707L8.29297 17.7477L9.70558 18.2523L10.2421 16.75H13.7565L14.293 18.2523L15.7056 17.7477L13.0278 10.25Z" fill="#141B34"/>
</svg>
