<svg width="24" height="24" viewBox="0 0 24 24" fill="none" xmlns="http://www.w3.org/2000/svg">
<path fill-rule="evenodd" clip-rule="evenodd" d="M1.77301 5.97736C1.78564 5.57246 2.11679 5.25078 2.52099 5.25078H6.92546L7.92344 1.25H16.0766L17.0743 5.25H22.2043L22.75 22.75H1.25L1.77301 5.97736ZM13 5H11V7H13V5ZM8 14.4659C8 16.6939 9.85201 18.5 12.1366 18.5C13.8991 18.5 15.4042 17.425 16 15.9106C15.7533 15.9553 15.499 15.9787 15.239 15.9787C12.9544 15.9787 11.1024 14.1726 11.1024 11.9447C11.1024 11.4356 11.1991 10.9485 11.3756 10.5C9.45451 10.8484 8 12.4915 8 14.4659Z" fill="#141B34"/>
</svg>
