<svg width="24" height="24" viewBox="0 0 24 24" fill="none" xmlns="http://www.w3.org/2000/svg">
<path d="M17.0167 13.9812C17.2018 14.058 17.3639 14.1458 17.5008 14.2317C17.6378 14.1458 17.7999 14.058 17.985 13.9812C18.6377 13.7106 19.5606 13.5883 20.5907 14.1225C21.923 14.8132 22.5226 16.43 22.1322 18.0193C21.7329 19.6443 20.3381 21.223 17.7574 22.1571L17.5009 22.25L17.2443 22.1571C14.6636 21.223 13.2688 19.6443 12.8695 18.0193C12.479 16.43 13.0786 14.8132 14.4109 14.1225C15.4411 13.5883 16.364 13.7106 17.0167 13.9812Z" fill="#141B34"/>
<path d="M8.23115 1.75H2.49805C2.08383 1.75 1.74805 2.08579 1.74805 2.5V5.75H6.05113L8.23115 1.75Z" fill="#141B34"/>
<path d="M7.75944 5.75H13.0511L15.2311 1.75H9.93946L7.75944 5.75Z" fill="#141B34"/>
<path d="M16.9395 1.75L14.7594 5.75H21.248V2.5C21.248 2.08579 20.9123 1.75 20.498 1.75H16.9395Z" fill="#141B34"/>
<path d="M1.74805 7.25H21.248V12.7729C19.8132 12.0423 18.4716 12.1816 17.5024 12.5592C16.5255 12.1786 15.17 12.04 13.7221 12.7908C11.6543 13.8629 10.8935 16.257 11.4144 18.3772C11.6721 19.4257 12.2168 20.4009 13.0249 21.25H2.49805C2.08383 21.25 1.74805 20.9142 1.74805 20.5V7.25Z" fill="#141B34"/>
</svg>
