<svg width="24" height="24" viewBox="0 0 24 24" fill="none" xmlns="http://www.w3.org/2000/svg">
<path fill-rule="evenodd" clip-rule="evenodd" d="M11.8244 1.25657C11.9413 1.24781 12.0587 1.24781 12.1756 1.25657C12.6792 1.29431 13.0873 1.52155 13.4602 1.81329C13.8109 2.0877 14.1989 2.47573 14.6527 2.92956L14.8949 3.13696L14.8949 3.13697C15.1518 3.35689 15.2802 3.46685 15.4344 3.52828C15.5886 3.58971 15.7574 3.59821 16.0951 3.61521L16.4673 3.63394C17.1785 3.6339 17.7864 3.63387 18.2722 3.69919C18.7909 3.76892 19.2811 3.92526 19.6779 4.32206C20.0747 4.71886 20.2311 5.20911 20.3008 5.7278C20.3661 6.21358 20.3661 6.82148 20.3661 7.53269L20.3848 7.90486V7.90487C20.4018 8.24259 20.4103 8.41145 20.4717 8.5656C20.5331 8.71974 20.6431 8.84817 20.863 9.105L20.863 9.10504L20.863 9.10506L21.0704 9.34726C21.5242 9.80106 21.9123 10.1891 22.1867 10.5398C22.4785 10.9127 22.7057 11.3208 22.7434 11.8244C22.7522 11.9413 22.7522 12.0587 22.7434 12.1756C22.7057 12.6792 22.4785 13.0873 22.1867 13.4602C21.9123 13.8109 21.5243 14.1989 21.0705 14.6527L20.863 14.8949C20.6431 15.1518 20.5331 15.2802 20.4717 15.4344C20.4103 15.5886 20.4018 15.7574 20.3848 16.0951V16.0951L20.3661 16.4673C20.3661 17.1785 20.3661 17.7864 20.3008 18.2722C20.2311 18.7909 20.0747 19.2811 19.6779 19.6779C19.2811 20.0747 18.7909 20.2311 18.2722 20.3008C17.7864 20.3661 17.1785 20.3661 16.4673 20.3661L16.0377 20.3959C15.6994 20.4195 15.5302 20.4312 15.3769 20.4959C15.2236 20.5606 15.0971 20.6735 14.8442 20.8994L14.6527 21.0704C14.1989 21.5242 13.8109 21.9123 13.4602 22.1867C13.0873 22.4785 12.6792 22.7057 12.1756 22.7434C12.0587 22.7522 11.9413 22.7522 11.8244 22.7434C11.3208 22.7057 10.9127 22.4785 10.5398 22.1867C10.1891 21.9123 9.80114 21.5243 9.3474 21.0705L9.34733 21.0705L9.3473 21.0704L9.10506 20.863L9.10504 20.863C8.84819 20.6431 8.71976 20.5331 8.5656 20.4717C8.41145 20.4103 8.24259 20.4018 7.90487 20.3848H7.90485L7.53269 20.3661C6.82148 20.3661 6.21358 20.3661 5.7278 20.3008C5.20911 20.2311 4.71886 20.0747 4.32206 19.6779C3.92526 19.2811 3.76892 18.7909 3.69919 18.2722C3.63387 17.7864 3.6339 17.1785 3.63394 16.4673L3.61521 16.0951C3.59821 15.7574 3.58971 15.5886 3.52828 15.4344C3.46685 15.2802 3.35689 15.1518 3.13697 14.8949L3.13697 14.8949L3.13696 14.8949L2.92956 14.6527C2.47573 14.1989 2.0877 13.8109 1.81329 13.4602C1.52155 13.0873 1.29431 12.6792 1.25657 12.1756C1.24781 12.0587 1.24781 11.9413 1.25657 11.8244C1.29431 11.3208 1.52155 10.9127 1.81329 10.5398C2.08769 10.1891 2.4757 9.80111 2.9295 9.34735L2.92954 9.34731L2.92956 9.3473L3.13696 9.10506C3.35689 8.84819 3.46685 8.71976 3.52828 8.5656C3.58971 8.41144 3.59821 8.24258 3.61521 7.90485L3.63394 7.53268C3.6339 6.82147 3.63387 6.21358 3.69919 5.7278C3.76892 5.20911 3.92526 4.71886 4.32206 4.32206C4.71886 3.92526 5.20911 3.76892 5.7278 3.69919C6.21358 3.63387 6.82147 3.6339 7.53268 3.63394L7.9623 3.60407C8.30062 3.58055 8.46978 3.56878 8.62311 3.5041C8.77643 3.43942 8.9029 3.32646 9.15584 3.10055L9.3473 2.92956C9.80108 2.47573 10.1891 2.0877 10.5398 1.81329C10.9127 1.52155 11.3208 1.29431 11.8244 1.25657ZM11 16C11 15.4477 11.4457 15 11.9955 15H12.0045C12.5543 15 13 15.4477 13 16C13 16.5523 12.5543 17 12.0045 17H11.9955C11.4457 17 11 16.5523 11 16ZM11 12C11 12.5523 11.4477 13 12 13C12.5523 13 13 12.5523 13 12V8C13 7.44772 12.5523 7 12 7C11.4477 7 11 7.44772 11 8V12Z" fill="#141B34"/>
</svg>
