<svg width="24" height="24" viewBox="0 0 24 24" fill="none" xmlns="http://www.w3.org/2000/svg">
<path fill-rule="evenodd" clip-rule="evenodd" d="M12.001 21.25C10.2061 21.25 8.75098 19.7949 8.75098 18H7.25098C7.25098 20.6234 9.37762 22.75 12.001 22.75C14.6243 22.75 16.751 20.6234 16.751 18H15.251C15.251 19.7949 13.7959 21.25 12.001 21.25Z" fill="#141B34"/>
<path d="M21.3368 22.75L1.25098 2.66421L2.66519 1.25L22.751 21.3358L21.3368 22.75Z" fill="#141B34"/>
<path d="M12.002 1.25C16.4676 1.25 20.0877 4.94365 20.0877 9.5V12.3008L22.252 16.1652L21.7921 16.5687C21.4978 16.8269 21.1801 17.0722 20.8412 17.3037L6.75776 3.22027C8.16962 1.99166 10.0009 1.25 12.002 1.25Z" fill="#141B34"/>
<path d="M12.002 19.75C8.03123 19.75 4.44667 18.5294 2.21183 16.5687L1.75195 16.1652L3.9162 12.3008V9.5C3.9162 7.8978 4.36383 6.40227 5.13846 5.13651L18.5336 18.5316C16.6353 19.3091 14.3884 19.75 12.002 19.75Z" fill="#141B34"/>
</svg>
