<svg width="24" height="24" viewBox="0 0 24 24" fill="none" xmlns="http://www.w3.org/2000/svg">
<path d="M12 2C7.60367 2 3.92976 5.03496 3.03565 9.08612C2.90894 9.66022 3.13793 10.2387 3.44015 10.7458C3.6536 11.1039 3.84695 11.5519 3.84695 12L3.87238 12.0104C3.80278 12.0035 3.72983 12 3.65339 12C2.63195 12 1.85498 12.8907 2.0229 13.8691L2.44507 16.3288C2.61059 17.2932 3.46982 18 4.47662 18C4.83893 18 5.02008 18 5.16401 18.0444C5.30097 18.0866 5.37941 18.1279 5.49161 18.2171C5.60952 18.3108 5.73726 18.4974 5.99274 18.8705L5.99276 18.8706C7.28417 20.7568 9.49258 22 12 22C14.5074 22 16.7158 20.7568 18.0072 18.8706C18.2627 18.4974 18.3905 18.3108 18.5084 18.2171C18.6206 18.1279 18.699 18.0866 18.836 18.0444C18.9799 18 19.1611 18 19.5234 18C20.5302 18 21.3894 17.2932 21.5549 16.3288L21.9771 13.8691C22.145 12.8907 21.3681 12 20.3466 12C20.2929 12 20.241 12.0017 20.1907 12.0052L20.153 12C20.1531 11.5519 20.3465 11.1038 20.56 10.7457C20.8621 10.2387 21.091 9.66029 20.9644 9.08627C20.0703 5.03504 16.3964 2 12 2Z" fill="#D4D7E0"/>
<path d="M5.30637 14.5C5.30637 13.4176 5.16645 12.1382 3.87238 12.0104M18.6936 14.5C18.6936 13.4002 18.8381 12.0972 20.1907 12.0052M3.87238 12.0104C3.80278 12.0035 3.72983 12 3.65339 12C2.63195 12 1.85498 12.8907 2.0229 13.8691L2.44507 16.3288C2.61059 17.2932 3.46982 18 4.47662 18C4.83893 18 5.02008 18 5.16401 18.0444C5.30097 18.0866 5.37941 18.1279 5.49161 18.2171C5.60953 18.3108 5.73727 18.4974 5.99276 18.8706C7.28417 20.7568 9.49258 22 12 22C14.5074 22 16.7158 20.7568 18.0072 18.8706C18.2627 18.4974 18.3905 18.3108 18.5084 18.2171C18.6206 18.1279 18.699 18.0866 18.836 18.0444C18.9799 18 19.1611 18 19.5234 18C20.5302 18 21.3894 17.2932 21.5549 16.3288L21.9771 13.8691C22.145 12.8907 21.3681 12 20.3466 12C20.2929 12 20.241 12.0017 20.1907 12.0052M3.87238 12.0104L3.84695 12C3.84695 11.5519 3.6536 11.1039 3.44015 10.7458C3.13793 10.2387 2.90894 9.66022 3.03565 9.08612C3.92976 5.03496 7.60367 2 12 2C16.3964 2 20.0703 5.03504 20.9644 9.08627C21.091 9.66029 20.8621 10.2387 20.56 10.7457C20.3465 11.1038 20.1531 11.5519 20.153 12L20.1907 12.0052" stroke="#141B34" stroke-width="1.5" stroke-linecap="round"/>
<path d="M15 8.00001C15 4.00002 9.0001 3.99998 9 8.00001L9 8.45853C9.9475 8.16056 10.9552 8.00001 12 8.00001C13.0448 8.00001 14.0525 8.16056 15 8.45853V8.00001Z" fill="white"/>
<path d="M17.55 10.6C17.8814 10.8485 18.3515 10.7814 18.6 10.45C18.8485 10.1187 18.7814 9.64855 18.45 9.40002L17.55 10.6ZM5.54999 9.40002C5.21862 9.64855 5.15147 10.1187 5.40001 10.45C5.64854 10.7814 6.11864 10.8485 6.45001 10.6L5.54999 9.40002ZM9 8.00001L8.25 7.99999V8.00001L9 8.00001ZM15 8.45853L14.775 9.17398L15 8.45853ZM9.75 8.00003C9.75002 7.20353 10.0413 6.66127 10.4358 6.31056C10.8442 5.94757 11.4098 5.75 12 5.75C12.5902 5.75 13.1559 5.94758 13.5642 6.31056C13.9588 6.66127 14.25 7.20353 14.25 8.00001H15.75C15.75 6.7965 15.2912 5.83875 14.5608 5.18946C13.8442 4.55243 12.9098 4.25 12 4.25C11.0902 4.25 10.1559 4.55242 9.43927 5.18944C8.70882 5.83873 8.25003 6.79647 8.25 7.99999L9.75 8.00003ZM12 8.75001C12.9676 8.75001 13.8994 8.89863 14.775 9.17398L15.225 7.74307C14.2056 7.42249 13.1221 7.25001 12 7.25001V8.75001ZM14.775 9.17398C15.7839 9.49126 16.7198 9.97731 17.55 10.6L18.45 9.40002C17.4867 8.67749 16.3991 8.11231 15.225 7.74307L14.775 9.17398ZM14.25 8.00001V8.45853H15.75V8.00001H14.25ZM6.45001 10.6C7.28024 9.97731 8.21609 9.49126 9.22499 9.17398L8.77501 7.74307C7.60086 8.11231 6.51332 8.67749 5.54999 9.40002L6.45001 10.6ZM9.22499 9.17398C10.1006 8.89863 11.0324 8.75001 12 8.75001V7.25001C10.8779 7.25001 9.79442 7.42249 8.77501 7.74307L9.22499 9.17398ZM8.25 8.00001L8.25 8.45853L9.75 8.45853L9.75 8.00001L8.25 8.00001Z" fill="#141B34"/>
<path d="M9.00801 13L8.99902 13" stroke="#141B34" stroke-width="2" stroke-linecap="round" stroke-linejoin="round"/>
<path d="M15.008 13L14.999 13" stroke="#141B34" stroke-width="2" stroke-linecap="round" stroke-linejoin="round"/>
<path d="M9 17C9.5 17.5 11 18 12 17C13 18 14.5 17.5 15 17" stroke="#141B34" stroke-width="1.5" stroke-linecap="round" stroke-linejoin="round"/>
</svg>
