<svg width="24" height="24" viewBox="0 0 24 24" fill="none" xmlns="http://www.w3.org/2000/svg">
<path d="M2 21.1932C2.68524 22.2443 3.57104 22.2443 4.27299 21.1932C6.52985 17.7408 8.67954 23.6764 10.273 21.2321C12.703 17.5694 14.4508 23.9218 16.273 21.1932C18.6492 17.5582 20.1295 23.5776 22 21.5842" stroke="#141B34" stroke-width="1.5" stroke-linecap="round"/>
<path d="M12 2C12.098 2 12.1956 2.00167 12.2928 2.00499C16.8517 2.16062 20.5 5.93637 20.5 10.5714C20.5 12.3831 19.9426 14.0634 18.9914 15.4477L18.8 14.8571C18.4366 14.0488 17.6193 12.9149 16.3895 12.0488L16.25 12.2857C15.1787 14.536 10.9031 16.8643 6.6875 17C5.14667 15.8347 4.16446 14.3254 3.74089 12.6076C3.58029 11.9564 3.5 11.2752 3.5 10.5714C3.5 5.83754 7.30558 2 12 2Z" fill="#D4D7E0"/>
<path d="M4.03634 11.9183C3.65563 11.7551 3.21471 11.9314 3.05153 12.3122C2.88836 12.6929 3.06471 13.1338 3.44543 13.297L4.03634 11.9183ZM12.8551 2.50141C13.132 2.19338 13.1068 1.71917 12.7987 1.44225C12.4907 1.16533 12.0165 1.19055 11.7396 1.49859L12.8551 2.50141ZM18.8 14.8571L19.5135 14.6259C19.5051 14.5999 19.4952 14.5745 19.4841 14.5496L18.8 14.8571ZM7.66374 13.4202C7.9402 13.7286 8.41437 13.7546 8.72281 13.4781C9.03126 13.2016 9.05718 12.7274 8.78071 12.419L7.66374 13.4202ZM8.44659 3.59241C8.61598 3.21442 8.44687 2.77068 8.06887 2.60129C7.69088 2.4319 7.24714 2.60101 7.07775 2.97901L8.44659 3.59241ZM11.15 6.38125L11.2706 7.12149C11.2807 7.11984 11.2908 7.11799 11.3008 7.11593L11.15 6.38125ZM16.25 12.2857L15.6038 11.905C15.5926 11.9239 15.5823 11.9434 15.5728 11.9633L16.25 12.2857ZM6.6875 17L6.23509 17.5982C6.37194 17.7017 6.54014 17.7551 6.71164 17.7496L6.6875 17ZM17.1237 16.4398C16.8143 16.7151 16.7867 17.1892 17.0621 17.4986C17.3374 17.808 17.8115 17.8356 18.1209 17.5602L17.1237 16.4398ZM18.9914 15.4477L19.6095 15.8725L18.9914 15.4477ZM12 2.75C16.2743 2.75 19.75 6.24583 19.75 10.5714L21.25 10.5714C21.25 5.42926 17.1145 1.25 12 1.25L12 2.75ZM4.25 10.5714C4.25 6.24583 7.72569 2.75 12 2.75L12 1.25C6.88546 1.25 2.75 5.42926 2.75 10.5714L4.25 10.5714ZM3.44543 13.297C6.33769 14.5366 9.49443 13.9831 12.1056 11.3693L11.0444 10.3092C8.8389 12.5169 6.32898 12.9009 4.03634 11.9183L3.44543 13.297ZM8.78071 12.419C8.13361 11.6971 7.64713 10.3717 7.53809 8.72393C7.43047 7.09768 7.6993 5.26003 8.44659 3.59241L7.07775 2.97901C6.22183 4.88902 5.919 6.97391 6.04136 8.82298C6.16231 10.6506 6.70746 12.3533 7.66374 13.4202L8.78071 12.419ZM11.3008 7.11593C12.334 6.90386 13.9156 7.10714 15.5659 7.78655C17.2006 8.4595 18.8027 9.55966 19.9002 11.0216L21.0998 10.1211C19.8073 8.39934 17.9647 7.15193 16.137 6.39949C14.3249 5.65353 12.4265 5.35362 10.9992 5.64656L11.3008 7.11593ZM15.5728 11.9633C15.1413 12.8698 13.9774 13.9176 12.3077 14.7674C10.6648 15.6035 8.64918 16.1864 6.66336 16.2504L6.71164 17.7496C8.94137 17.6778 11.1714 17.0288 12.988 16.1042C14.7778 15.1934 16.2874 13.9519 16.9272 12.6081L15.5728 11.9633ZM7.13991 16.4018C5.20834 14.941 4.25 12.9041 4.25 10.5714L2.75 10.5714C2.75 13.3589 3.91666 15.8448 6.23509 17.5982L7.13991 16.4018ZM11.7396 1.49859C10.7008 2.65401 10.1773 4.34135 10.1746 6.417L11.6746 6.41894C11.677 4.57365 12.1429 3.29355 12.8551 2.50141L11.7396 1.49859ZM10.1746 6.417C10.1728 7.77159 10.3919 9.31483 10.8504 11.0326L12.2996 10.6459C11.8671 9.02495 11.673 7.61458 11.6746 6.41894L10.1746 6.417ZM11.0294 5.64101L10.804 5.67773L11.0452 7.15821L11.2706 7.12149L11.0294 5.64101ZM19.4841 14.5496C19.0672 13.6222 18.1642 12.3813 16.8214 11.4356L15.9577 12.662C17.0743 13.4484 17.8061 14.4754 18.1159 15.1646L19.4841 14.5496ZM16.8214 11.4356C15.4786 10.49 13.6775 9.82823 11.4845 10.0947L11.6655 11.5838C13.4342 11.3688 14.8695 11.8956 15.9577 12.662L16.8214 11.4356ZM16.8962 12.6664L17.0357 12.4295L15.7434 11.6681L15.6038 11.905L16.8962 12.6664ZM19.75 10.5714C19.75 12.227 19.2411 13.76 18.3733 15.0229L19.6095 15.8725C20.6441 14.3669 21.25 12.5391 21.25 10.5714L19.75 10.5714ZM18.3733 15.0229C18.0145 15.5449 17.5945 16.0207 17.1237 16.4398L18.1209 17.5602C18.6819 17.061 19.1823 16.4942 19.6095 15.8725L18.3733 15.0229ZM18.0865 15.0883L18.2779 15.6789L19.7049 15.2165L19.5135 14.6259L18.0865 15.0883Z" fill="#141B34"/>
<path d="M12.2928 2.00499C16.3511 2.14353 19.6878 5.1508 20.3716 9.07923C20.454 9.55251 19.8524 9.7844 19.5069 9.45063C17.011 7.03948 13.3012 5.93972 11.15 6.38125L10.9246 6.41797C10.9229 7.69309 11.1295 9.16989 11.575 10.8393C13.5558 10.5985 15.1741 11.1928 16.3895 12.0488L16.25 12.2857C15.1787 14.536 10.9031 16.8643 6.6875 17C5.14667 15.8347 4.16446 14.3254 3.74089 12.6076C3.58029 11.9564 3.5 11.2752 3.5 10.5714C3.5 7.34959 5.26275 4.54295 7.86875 3.07871L7.76217 3.28571C6.15896 6.86333 6.61885 11.1308 8.22222 12.9196C9.38404 12.5783 10.5203 11.895 11.575 10.8393C11.1295 9.16989 10.9229 7.69309 10.9246 6.41797C10.9271 4.46084 11.4202 2.97885 12.2928 2.00499Z" fill="white"/>
<path d="M12 1.25C11.5858 1.25 11.25 1.58579 11.25 2C11.25 2.41421 11.5858 2.75 12 2.75L12 1.25ZM4.03634 11.9183C3.65563 11.7551 3.21471 11.9314 3.05153 12.3122C2.88836 12.6929 3.06471 13.1338 3.44543 13.297L4.03634 11.9183ZM12.8551 2.50141C13.132 2.19338 13.1068 1.71917 12.7987 1.44225C12.4907 1.16533 12.0165 1.19055 11.7396 1.49859L12.8551 2.50141ZM18.8 14.8571L19.5135 14.6259C19.5051 14.5999 19.4952 14.5745 19.4841 14.5496L18.8 14.8571ZM7.66374 13.4202C7.9402 13.7286 8.41437 13.7546 8.72281 13.4781C9.03126 13.2016 9.05718 12.7274 8.78071 12.419L7.66374 13.4202ZM7.76217 3.28571L7.09536 2.94239C7.08916 2.95444 7.08329 2.96665 7.07775 2.97901L7.76217 3.28571ZM11.15 6.38125L11.2706 7.12149C11.2807 7.11984 11.2908 7.11799 11.3008 7.11593L11.15 6.38125ZM16.25 12.2857L15.6038 11.905C15.5926 11.9239 15.5823 11.9434 15.5728 11.9633L16.25 12.2857ZM6.6875 17L6.23509 17.5982C6.37194 17.7017 6.54014 17.7551 6.71164 17.7496L6.6875 17ZM17.1237 16.4398C16.8143 16.7151 16.7867 17.1892 17.0621 17.4986C17.3374 17.808 17.8115 17.8356 18.1209 17.5602L17.1237 16.4398ZM18.9914 15.4477L19.6095 15.8725C19.7414 15.6805 19.7767 15.4381 19.7049 15.2165L18.9914 15.4477ZM7.86875 3.07871L8.53555 3.42203C8.68713 3.12762 8.6277 2.76865 8.38932 2.53881C8.15095 2.30896 7.79005 2.26265 7.50136 2.42486L7.86875 3.07871ZM20.3716 9.07923L19.6328 9.20786L20.3716 9.07923ZM19.5069 9.45063L18.9858 9.99004L19.5069 9.45063ZM12 2.75C15.8144 2.75 18.9932 5.53387 19.6328 9.20786L21.1105 8.9506C20.3496 4.57954 16.565 1.25 12 1.25L12 2.75ZM3.44543 13.297C6.33769 14.5366 9.49443 13.9831 12.1056 11.3693L11.0444 10.3092C8.8389 12.5169 6.32898 12.9009 4.03634 11.9183L3.44543 13.297ZM8.78071 12.419C8.13361 11.6971 7.64713 10.3717 7.53809 8.72393C7.43047 7.09768 7.6993 5.26003 8.44659 3.59241L7.07775 2.97901C6.22183 4.88902 5.919 6.97391 6.04136 8.82298C6.16231 10.6506 6.70746 12.3533 7.66374 13.4202L8.78071 12.419ZM11.3008 7.11593C12.1996 6.93145 13.5213 7.05998 14.9542 7.55506C16.3734 8.0454 17.8265 8.87016 18.9858 9.99004L20.028 8.91122C18.6913 7.61994 17.0416 6.68925 15.4441 6.1373C13.8603 5.5901 12.2515 5.38952 10.9992 5.64656L11.3008 7.11593ZM15.5728 11.9633C15.1413 12.8698 13.9774 13.9176 12.3077 14.7674C10.6648 15.6035 8.64918 16.1864 6.66336 16.2504L6.71164 17.7496C8.94137 17.6778 11.1714 17.0288 12.988 16.1042C14.7778 15.1934 16.2874 13.9519 16.9272 12.6081L15.5728 11.9633ZM7.13991 16.4018C5.20834 14.941 4.25 12.9041 4.25 10.5714L2.75 10.5714C2.75 13.3589 3.91666 15.8448 6.23509 17.5982L7.13991 16.4018ZM11.7396 1.49859C10.7008 2.65401 10.1773 4.34135 10.1746 6.417L11.6746 6.41894C11.677 4.57365 12.1429 3.29355 12.8551 2.50141L11.7396 1.49859ZM10.1746 6.417C10.1728 7.77159 10.3919 9.31483 10.8504 11.0326L12.2996 10.6459C11.8671 9.02495 11.673 7.61458 11.6746 6.41894L10.1746 6.417ZM11.0294 5.64101L10.804 5.67773L11.0452 7.15821L11.2706 7.12149L11.0294 5.64101ZM19.4841 14.5496C19.0672 13.6222 18.1642 12.3813 16.8214 11.4356L15.9577 12.662C17.0743 13.4484 17.8061 14.4754 18.1159 15.1646L19.4841 14.5496ZM16.8214 11.4356C15.4786 10.49 13.6775 9.82823 11.4845 10.0947L11.6655 11.5838C13.4342 11.3688 14.8695 11.8956 15.9577 12.662L16.8214 11.4356ZM16.8962 12.6664L17.0357 12.4295L15.7434 11.6681L15.6038 11.905L16.8962 12.6664ZM18.3733 15.0229C18.0145 15.5449 17.5945 16.0207 17.1237 16.4398L18.1209 17.5602C18.6819 17.061 19.1823 16.4942 19.6095 15.8725L18.3733 15.0229ZM18.0865 15.0883L18.2779 15.6789L19.7049 15.2165L19.5135 14.6259L18.0865 15.0883ZM4.25 10.5714C4.25 7.62935 5.8588 5.06833 8.23613 3.73257L7.50136 2.42486C4.66669 4.01758 2.75 7.06983 2.75 10.5714L4.25 10.5714ZM8.42898 3.62902L8.53555 3.42203L7.20194 2.7354L7.09536 2.94239L8.42898 3.62902ZM19.6328 9.20786C19.6235 9.15465 19.6312 9.07342 19.678 8.99589C19.7204 8.92575 19.7756 8.88993 19.8144 8.87398C19.8854 8.84474 19.9704 8.8556 20.028 8.91122L18.9858 9.99004C19.3889 10.3794 19.9474 10.4412 20.3851 10.2612C20.8455 10.0717 21.2206 9.58256 21.1105 8.9506L19.6328 9.20786Z" fill="#141B34"/>
</svg>
