<svg width="24" height="24" viewBox="0 0 24 24" fill="none" xmlns="http://www.w3.org/2000/svg">
<path d="M13.0059 9.5C13.0059 10.0523 12.5581 10.5 12.0059 10.5C11.4536 10.5 11.0059 10.0523 11.0059 9.5L11.0059 6.49996L10.4116 6.49998C10.236 6.50011 10.0203 6.50026 9.84387 6.47819L9.84053 6.47777C9.71408 6.462 9.13804 6.39017 8.86368 5.82457C8.58872 5.25775 8.89065 4.75761 8.95597 4.6494L9.29511 4.18092C9.58975 3.80509 9.99545 3.29063 10.3759 2.89962C10.5657 2.70451 10.783 2.50328 11.0139 2.34443C11.2191 2.20323 11.5693 1.99996 12 1.99996C12.4307 1.99996 12.7809 2.20323 12.9861 2.34443C13.217 2.50328 13.4343 2.70451 13.6241 2.89962C14.0046 3.29063 14.4102 3.80508 14.7049 4.18091L15.044 4.64941C15.1093 4.75761 15.4113 5.25775 15.1363 5.82457C14.862 6.39017 14.2859 6.46201 14.1595 6.47777L14.1561 6.47819C13.9797 6.50026 13.764 6.50011 13.5884 6.49998L13.0059 6.49996L13.0059 9.5Z" fill="#141B34"/>
<path fill-rule="evenodd" clip-rule="evenodd" d="M19.0704 9.92864C19.4609 10.3192 19.4609 10.9523 19.0704 11.3428L18.0097 12.4035C17.6192 12.794 16.986 12.794 16.5955 12.4035C16.205 12.013 16.205 11.3798 16.5955 10.9893L17.6562 9.92864C18.0467 9.53811 18.6799 9.53811 19.0704 9.92864ZM4.9295 9.92925C5.32002 9.53873 5.95319 9.53873 6.34371 9.92925L7.40437 10.9899C7.7949 11.3804 7.7949 12.0136 7.40437 12.4041C7.01385 12.7947 6.38068 12.7947 5.99016 12.4041L4.9295 11.3435C4.53897 10.9529 4.53897 10.3198 4.9295 9.92925ZM2 16.9998C2 16.4475 2.44772 15.9998 3 15.9998H4.5C5.05228 15.9998 5.5 16.4475 5.5 16.9998C5.5 17.552 5.05228 17.9998 4.5 17.9998H3C2.44772 17.9998 2 17.552 2 16.9998ZM18.5 16.9998C18.5 16.4475 18.9477 15.9998 19.5 15.9998H21C21.5523 15.9998 22 16.4475 22 16.9998C22 17.552 21.5523 17.9998 21 17.9998H19.5C18.9477 17.9998 18.5 17.552 18.5 16.9998Z" fill="#141B34"/>
<path fill-rule="evenodd" clip-rule="evenodd" d="M22 21C22 21.5523 21.5523 22 21 22H3C2.44772 22 2 21.5523 2 21C2 20.4477 2.44772 20 3 20H21C21.5523 20 22 20.4477 22 21Z" fill="#141B34"/>
<path d="M7 17C7 14.2386 9.23858 12 12 12C14.7614 12 17 14.2386 17 17C17 17.5523 16.5523 18 16 18H8C7.44772 18 7 17.5523 7 17Z" fill="#141B34"/>
</svg>
