<svg width="24" height="24" viewBox="0 0 24 24" fill="none" xmlns="http://www.w3.org/2000/svg">
<path fill-rule="evenodd" clip-rule="evenodd" d="M11.6175 1.25C11.6175 1.25 13.3601 2.57608 13.7439 2.90465C14.5104 3.56089 15.5343 4.49985 16.5606 5.62945C18.5779 7.84992 20.75 10.9638 20.75 14.1889C20.75 18.9171 16.8325 22.75 12 22.75C7.16751 22.75 3.25 18.9171 3.25 14.1889C3.25 10.9638 5.42215 7.84992 7.43944 5.62945L8 5.01243L9.69871 6.88223L11.6175 1.25ZM15.5294 12.5301L9.52941 18.5301L8.46875 17.4695L14.4688 11.4695L15.5294 12.5301ZM10.509 11.5L8.5 11.5L8.5 13.5L10.509 13.5L10.509 11.5ZM15.5007 16.5H13.4917V18.5H15.5007V16.5Z" fill="#141B34"/>
</svg>
