<svg width="24" height="24" viewBox="0 0 24 24" fill="none" xmlns="http://www.w3.org/2000/svg">
<path fill-rule="evenodd" clip-rule="evenodd" d="M13.75 18.0149C13.75 15.6595 15.6595 13.75 18.0149 13.75C20.3704 13.75 22.2798 15.6595 22.2798 18.0149C22.2798 18.857 22.0358 19.6421 21.6145 20.3033L22.75 21.4388L21.4388 22.75L20.3033 21.6145C19.6421 22.0358 18.857 22.2798 18.0149 22.2798C15.6595 22.2798 13.75 20.3704 13.75 18.0149ZM18.0149 15.6043C16.6836 15.6043 15.6043 16.6836 15.6043 18.0149C15.6043 19.3463 16.6836 20.4255 18.0149 20.4255C19.3463 20.4255 20.4255 19.3463 20.4255 18.0149C20.4255 16.6836 19.3463 15.6043 18.0149 15.6043Z" fill="#141B34"/>
<path fill-rule="evenodd" clip-rule="evenodd" d="M18.0149 12.25C14.831 12.25 12.25 14.831 12.25 18.0149C12.25 19.4072 12.7436 20.6843 13.5653 21.6806L11.3046 22.6854C11.1107 22.7715 10.8893 22.7715 10.6954 22.6854L1.25 18.4874V6C1.25 5.62457 1.47692 5.28435 1.82902 5.13188L10.604 1.33188C10.8561 1.22271 11.1439 1.22271 11.396 1.33188L20.171 5.13188C20.5231 5.28435 20.75 5.62457 20.75 6V12.9389C19.9362 12.4994 19.0047 12.25 18.0149 12.25ZM4.62566 6L6.61244 6.86037L12.9868 4.09997L11 3.2396L4.62566 6ZM15.3874 5.13957L9.0131 7.89997L11 8.7604L17.3743 6L15.3874 5.13957ZM7.5 14L5 12.5V11L7.5 12.5V14Z" fill="#141B34"/>
</svg>
