<svg width="24" height="24" viewBox="0 0 24 24" fill="none" xmlns="http://www.w3.org/2000/svg">
<path fill-rule="evenodd" clip-rule="evenodd" d="M22.0011 7.25H18.3965L15.8965 2.25L14.1077 3.14443L16.1605 7.25H9.10177L10.9183 3.09803L9.08594 2.29639L6.91874 7.25H2C1.58579 7.25 1.25 7.58579 1.25 8V11.5407L2.8558 12.0756L4.76715 21.1545C4.84021 21.5016 5.1464 21.75 5.50106 21.75H18.5C18.8546 21.75 19.1608 21.5016 19.2339 21.1546L21.1463 12.0755L22.7511 11.5406V8C22.7511 7.58579 22.4153 7.25 22.0011 7.25ZM14.5 11.25H9.5V12.75H14.5V11.25Z" fill="#141B34"/>
</svg>
