<svg width="24" height="24" viewBox="0 0 24 24" fill="none" xmlns="http://www.w3.org/2000/svg">
<path fill-rule="evenodd" clip-rule="evenodd" d="M9.08865 21.2495C9.80408 21.7526 11.012 21.7513 12.0005 21.75C12.9889 21.7513 14.1959 21.7526 14.9114 21.2495C15.6254 20.7474 15.8562 20.103 16.136 19.3219C16.1798 19.2001 16.2562 18.9813 16.2959 18.8588L20.2786 20.6267C20.5713 20.7566 20.9142 20.6863 21.1322 20.4518C22.8238 18.6319 22.9632 16.5 22.5592 14.7436C22.1628 13.0199 21.2294 11.5721 20.6088 10.9436C20.4679 10.8009 20.2757 10.7206 20.0751 10.7206C19.8746 10.7206 19.6824 10.8009 19.5415 10.9436C18.9079 11.5853 18.2305 12.6935 17.9474 14.4403C17.9474 14.4403 17.2462 14.1741 17.1134 14.1083C17.0714 14.0927 16.9824 14.0277 16.9623 13.8925C16.9327 13.7283 16.9123 13.5027 16.8801 13.1338C16.677 10.8042 16.0117 8.57934 15.197 6.72968C14.3865 4.88961 13.4064 3.37172 12.5375 2.47736C12.3962 2.33201 12.2031 2.25 12.0005 2.25C11.7978 2.25 11.6038 2.33201 11.4625 2.47736C10.5936 3.37172 9.61348 4.88961 8.80303 6.72968C7.98835 8.57934 7.32297 10.8042 7.1199 13.1338C7.08774 13.5027 7.06734 13.7283 7.03769 13.8925C7.01764 14.0277 6.92864 14.0927 6.88665 14.1083C6.75382 14.1741 6.05258 14.4403 6.05258 14.4403C5.76949 12.6935 5.09212 11.5853 4.45852 10.9436C4.3176 10.8009 4.12541 10.7206 3.92485 10.7206C3.7243 10.7206 3.53211 10.8009 3.39119 10.9436C2.77056 11.5721 1.83724 13.0199 1.44076 14.7436C1.03677 16.5 1.17617 18.6319 2.86775 20.4518C3.08577 20.6863 3.42867 20.7566 3.72137 20.6267L7.70408 18.8588C7.74381 18.9813 7.82017 19.2001 7.86396 19.3219C8.14381 20.103 8.37464 20.7474 9.08865 21.2495ZM13.001 10C13.001 9.44772 12.5533 9 12.001 9C11.4487 9 11.001 9.44772 11.001 10V11C11.001 11.5523 11.4487 12 12.001 12C12.5533 12 13.001 11.5523 13.001 11V10Z" fill="#141B34"/>
<path fill-rule="evenodd" clip-rule="evenodd" d="M5.00098 3.25C5.00098 2.69772 4.55326 2.25 4.00098 2.25C3.44869 2.25 3.00098 2.69772 3.00098 3.25V4.25C3.00098 4.80228 3.44869 5.25 4.00098 5.25C4.55326 5.25 5.00098 4.80228 5.00098 4.25V3.25ZM5.00098 7.25C5.00098 6.69772 4.55326 6.25 4.00098 6.25C3.44869 6.25 3.00098 6.69772 3.00098 7.25V8.25C3.00098 8.80228 3.44869 9.25 4.00098 9.25C4.55326 9.25 5.00098 8.80228 5.00098 8.25V7.25ZM21.001 3.25C21.001 2.69772 20.5533 2.25 20.001 2.25C19.4487 2.25 19.001 2.69772 19.001 3.25V4.25C19.001 4.80228 19.4487 5.25 20.001 5.25C20.5533 5.25 21.001 4.80228 21.001 4.25V3.25ZM21.001 7.25C21.001 6.69772 20.5533 6.25 20.001 6.25C19.4487 6.25 19.001 6.69772 19.001 7.25V8.25C19.001 8.80228 19.4487 9.25 20.001 9.25C20.5533 9.25 21.001 8.80228 21.001 8.25V7.25Z" fill="#141B34"/>
</svg>
