<svg width="24" height="24" viewBox="0 0 24 24" fill="none" xmlns="http://www.w3.org/2000/svg">
<path d="M7.25165 7.49804C7.24814 7.14198 7.24226 6.48977 7.32922 6.06281C7.44189 5.50962 7.72238 4.92723 8.37665 4.54949C8.68386 4.37212 9.00981 4.30606 9.339 4.27623C9.65029 4.24801 10.0296 4.24803 10.4694 4.24804L11.5339 4.24804C11.9737 4.24803 12.353 4.24801 12.6643 4.27623C12.9935 4.30606 13.3194 4.37212 13.6266 4.54949C14.2809 4.92723 14.5614 5.50962 14.6741 6.06281C14.761 6.48977 14.7552 7.14198 14.7516 7.49804C14.7552 7.85411 14.761 8.50632 14.6741 8.93328C14.5614 9.48647 14.2809 10.0689 13.6266 10.4466C13.3194 10.624 12.9935 10.69 12.6643 10.7199C12.353 10.7481 11.9737 10.7481 11.5339 10.748L11.5339 10.748L10.4694 10.748L10.4694 10.748C10.0296 10.7481 9.65028 10.7481 9.339 10.7199C9.00981 10.69 8.68386 10.624 8.37665 10.4466C7.72238 10.0689 7.44189 9.48647 7.32922 8.93328C7.24226 8.50632 7.24814 7.85411 7.25165 7.49804Z" fill="#141B34"/>
<path d="M7.25165 16.498C7.24814 16.142 7.24226 15.4898 7.32922 15.0628C7.44189 14.5096 7.72238 13.9272 8.37665 13.5495C8.68386 13.3721 9.00981 13.3061 9.339 13.2762C9.65029 13.248 10.0296 13.248 10.4694 13.248L17.5339 13.248C17.9737 13.248 18.353 13.248 18.6643 13.2762C18.9935 13.3061 19.3194 13.3721 19.6266 13.5495C20.2809 13.9272 20.5614 14.5096 20.6741 15.0628C20.761 15.4898 20.7552 16.142 20.7516 16.498C20.7552 16.8541 20.761 17.5063 20.6741 17.9333C20.5614 18.4865 20.2809 19.0689 19.6266 19.4466C19.3194 19.624 18.9935 19.69 18.6643 19.7199C18.353 19.7481 17.9737 19.7481 17.5339 19.748L17.5339 19.748L10.4694 19.748L10.4694 19.748C10.0296 19.7481 9.65028 19.7481 9.339 19.7199C9.00981 19.69 8.68386 19.624 8.37665 19.4466C7.72238 19.0689 7.44189 18.4865 7.32922 17.9333C7.24226 17.5063 7.24814 16.8541 7.25165 16.498Z" fill="#141B34"/>
<path fill-rule="evenodd" clip-rule="evenodd" d="M4.25 1C3.69772 1 3.25 1.44772 3.25 2L3.25 22C3.25 22.5523 3.69772 23 4.25 23C4.80228 23 5.25 22.5523 5.25 22L5.25 2C5.25 1.44772 4.80228 1 4.25 1Z" fill="#141B34"/>
</svg>
