<svg width="24" height="24" viewBox="0 0 24 24" fill="none" xmlns="http://www.w3.org/2000/svg">
<path fill-rule="evenodd" clip-rule="evenodd" d="M4.56499 3.09708C4.66707 2.13409 5.43156 1.25 6.49924 1.25C7.56686 1.25 8.33133 2.134 8.43347 3.09691C8.52681 3.97686 8.72374 4.59931 8.93142 5.25574C9.03576 5.58555 9.14282 5.92395 9.24082 6.30789C9.3777 6.84418 9.47427 7.42733 9.42449 8.07798C9.37437 8.73297 9.18055 9.40021 8.80788 10.1208C8.766 10.2017 8.7236 10.2845 8.70332 10.3244C8.84571 10.4423 9.07256 10.6307 9.16441 10.7152C10.109 11.5839 10.6777 12.8082 10.7432 14.1142C10.7495 14.2411 10.7495 14.3713 10.7495 14.5599V18.3997C10.7495 19.0455 10.7496 19.6023 10.7049 20.0569C10.6575 20.5389 10.5521 21.0132 10.272 21.447C10.0653 21.7671 9.79967 22.042 9.49029 22.2559C9.07104 22.5458 8.61273 22.6548 8.14689 22.7038C7.70757 22.75 7.16942 22.75 6.54539 22.75C5.92135 22.75 5.29146 22.75 4.85214 22.7038C4.3863 22.6548 3.92799 22.5458 3.50874 22.2559C3.19936 22.042 2.93374 21.7671 2.72702 21.447C2.44688 21.0132 2.34155 20.5389 2.29416 20.0569C2.24947 19.6023 2.24949 19.0454 2.24951 18.3998V14.5598C2.2495 14.3713 2.2495 14.2411 2.25587 14.1142C2.32137 12.8082 2.89003 11.5839 3.83462 10.7152C3.92646 10.6307 4.15333 10.4423 4.29571 10.3244C4.27543 10.2845 4.23303 10.2017 4.19115 10.1208C3.81848 9.40025 3.62463 8.73303 3.57447 8.07807C3.52465 7.42744 3.62115 6.84431 3.75798 6.30802C3.85594 5.92407 3.96297 5.58567 4.06727 5.25585C4.27487 4.59943 4.47173 3.977 4.56499 3.09708ZM6.43625 3.36643C6.31712 4.4273 6.02449 5.3619 5.79947 6.08059C5.71321 6.35607 5.63689 6.59984 5.58408 6.80682C5.47793 7.22285 5.43025 7.57106 5.45724 7.92356C5.4839 8.27173 5.58789 8.67942 5.8563 9.19836C5.91644 9.31445 5.99647 9.46894 6.02777 9.54322C6.17773 9.89916 6.24632 10.3028 6.16348 10.7206C6.08064 11.1385 5.86402 11.4816 5.59075 11.7477C5.42259 11.8869 5.13988 12.1294 5.08925 12.176C4.52249 12.6972 4.1813 13.4318 4.14199 14.2154H8.8566C8.81729 13.4318 8.4761 12.6972 7.90934 12.176C7.85871 12.1294 7.57599 11.8869 7.40783 11.7477C7.13456 11.4816 6.91795 11.1386 6.83511 10.7207C6.75226 10.3028 6.82085 9.89918 6.97081 9.54324C7.0021 9.46896 7.08214 9.31446 7.14227 9.19837C7.41067 8.67944 7.51463 8.27176 7.54127 7.92361C7.56824 7.57113 7.52052 7.22293 7.41433 6.80689C7.3615 6.59992 7.28514 6.3561 7.19886 6.08064C6.97375 5.36194 6.68101 4.42733 6.5618 3.36642C6.5582 3.33443 6.53121 3.31006 6.49902 3.31006C6.46683 3.31006 6.43984 3.33443 6.43625 3.36643Z" fill="#141B34"/>
<path fill-rule="evenodd" clip-rule="evenodd" d="M15.565 3.09708C15.6671 2.13409 16.4316 1.25 17.4992 1.25C18.5669 1.25 19.3313 2.134 19.4335 3.09691C19.5268 3.97686 19.7237 4.59931 19.9314 5.25574C20.0358 5.58555 20.1428 5.92395 20.2408 6.30789C20.3777 6.84418 20.4743 7.42733 20.4245 8.07798C20.3744 8.73297 20.1805 9.40021 19.8079 10.1208C19.766 10.2017 19.7236 10.2845 19.7033 10.3244C19.8457 10.4423 20.0726 10.6307 20.1644 10.7152C21.109 11.5839 21.6777 12.8082 21.7432 14.1142C21.7495 14.2411 21.7495 14.3713 21.7495 14.5599V18.3997C21.7495 19.0455 21.7496 19.6023 21.7049 20.0569C21.6575 20.5389 21.5521 21.0132 21.272 21.447C21.0653 21.7671 20.7997 22.042 20.4903 22.2559C20.071 22.5458 19.6127 22.6548 19.1469 22.7038C18.7076 22.75 18.1694 22.75 17.5454 22.75C16.9214 22.75 16.2915 22.75 15.8521 22.7038C15.3863 22.6548 14.928 22.5458 14.5087 22.2559C14.1994 22.042 13.9337 21.7671 13.727 21.447C13.4469 21.0132 13.3415 20.5389 13.2942 20.0569C13.2495 19.6023 13.2495 19.0454 13.2495 18.3998V14.5598C13.2495 14.3713 13.2495 14.2411 13.2559 14.1142C13.3214 12.8082 13.89 11.5839 14.8346 10.7152C14.9265 10.6307 15.1533 10.4423 15.2957 10.3244C15.2754 10.2845 15.233 10.2017 15.1912 10.1208C14.8185 9.40025 14.6246 8.73303 14.5745 8.07807C14.5246 7.42744 14.6212 6.84431 14.758 6.30802C14.8559 5.92407 14.963 5.58567 15.0673 5.25585C15.2749 4.59943 15.4717 3.977 15.565 3.09708ZM17.4362 3.36643C17.3171 4.4273 17.0245 5.3619 16.7995 6.08059C16.7132 6.35607 16.6369 6.59984 16.5841 6.80682C16.4779 7.22285 16.4302 7.57106 16.4572 7.92356C16.4839 8.27173 16.5879 8.67942 16.8563 9.19836C16.9164 9.31445 16.9965 9.46894 17.0278 9.54322C17.1777 9.89916 17.2463 10.3028 17.1635 10.7206C17.0806 11.1385 16.864 11.4816 16.5907 11.7477C16.4226 11.8869 16.1399 12.1294 16.0892 12.176C15.5225 12.6972 15.1813 13.4318 15.142 14.2154H19.8566C19.8173 13.4318 19.4761 12.6972 18.9093 12.176C18.8587 12.1294 18.576 11.8869 18.4078 11.7477C18.1346 11.4816 17.918 11.1386 17.8351 10.7207C17.7523 10.3028 17.8209 9.89918 17.9708 9.54324C18.0021 9.46896 18.0821 9.31446 18.1423 9.19837C18.4107 8.67944 18.5146 8.27176 18.5413 7.92361C18.5682 7.57113 18.5205 7.22293 18.4143 6.80689C18.3615 6.59992 18.2851 6.3561 18.1989 6.08064C17.9737 5.36194 17.681 4.42733 17.5618 3.36642C17.5582 3.33443 17.5312 3.31006 17.499 3.31006C17.4668 3.31006 17.4398 3.33443 17.4362 3.36643Z" fill="#141B34"/>
</svg>
