<svg width="24" height="24" viewBox="0 0 24 24" fill="none" xmlns="http://www.w3.org/2000/svg">
<path d="M18.9205 15.3908C18.7637 15.7601 18.4013 16 18 16L6.00003 16C5.59877 16 5.23636 15.7601 5.07955 15.3908C4.92274 15.0214 5.00191 14.5941 5.28062 14.3054L10.6013 8.79449L10.6013 8.79449C10.7426 8.64797 10.9101 8.47422 11.0738 8.34488C11.2699 8.18995 11.579 8 12 8C12.4211 8 12.7302 8.18995 12.9263 8.34488C13.0899 8.47422 13.2575 8.64797 13.3988 8.79449L18.7194 14.3054C18.9982 14.5941 19.0773 15.0214 18.9205 15.3908Z" fill="#141B34"/>
</svg>
