<svg width="24" height="24" viewBox="0 0 24 24" fill="none" xmlns="http://www.w3.org/2000/svg">
<path fill-rule="evenodd" clip-rule="evenodd" d="M5.1249 19L4.99999 19C4.44771 19 3.99999 18.5523 3.99999 18C3.99999 17.4477 4.44771 17 4.99999 17C7.24165 17 9.07359 16.9971 9.89962 16.8777C14.5748 16.2021 18.1522 12.8759 18.8694 8.7444C18.9963 8.01354 19 7.1196 19 5.07692V3C19 2.44771 19.4477 2 20 2C20.5523 2 21 2.44771 21 3L21 5.20429C21.0001 7.08446 21.0001 8.16374 20.8399 9.08649C19.9572 14.1711 15.6121 18.073 10.1857 18.8571C9.19619 19.0001 7.22328 19.0001 5.1249 19Z" fill="#141B34"/>
<path d="M7.39913 21.9169C7.03424 22.0757 6.60989 22.0031 6.31861 21.7319L3.82589 19.4113L3.82588 19.4113C3.67386 19.2699 3.49446 19.1031 3.36083 18.9401C3.20224 18.7466 3 18.4328 3 18C3 17.5672 3.20224 17.2534 3.36083 17.0599C3.49446 16.8968 3.67386 16.73 3.82588 16.5887L3.82588 16.5887L6.31861 14.2681C6.60989 13.9969 7.03424 13.9242 7.39913 14.0831C7.76402 14.2419 8 14.602 8 15V21C8 21.3979 7.76402 21.758 7.39913 21.9169Z" fill="#141B34"/>
</svg>
