<svg width="24" height="24" viewBox="0 0 24 24" fill="none" xmlns="http://www.w3.org/2000/svg">
<path fill-rule="evenodd" clip-rule="evenodd" d="M11.2071 11.2074C11.5976 10.8168 11.5976 10.1837 11.2071 9.79314L3.70711 2.29314C3.31658 1.90261 2.68342 1.90261 2.29289 2.29314C1.90237 2.68366 1.90237 3.31683 2.29289 3.70735L9.79289 11.2074C10.1834 11.5979 10.8166 11.5979 11.2071 11.2074Z" fill="#141B34"/>
<path fill-rule="evenodd" clip-rule="evenodd" d="M21.7071 21.7074C22.0976 21.3168 22.0976 20.6837 21.7071 20.2931L14.2071 12.7931C13.8166 12.4026 13.1834 12.4026 12.7929 12.7931C12.4024 13.1837 12.4024 13.8168 12.7929 14.2074L20.2929 21.7074C20.6834 22.0979 21.3166 22.0979 21.7071 21.7074Z" fill="#141B34"/>
<path d="M11.1755 6.06608C11.544 6.20707 11.7951 6.5515 11.8166 6.94542L11.9845 10.014V10.014C11.9955 10.2131 12.0088 10.4532 11.9916 10.6602C11.9708 10.9091 11.896 11.2756 11.5897 11.584C11.2823 11.8934 10.9151 11.9701 10.6645 11.9914C10.4574 12.0089 10.2175 11.9955 10.0201 11.9845L10.0201 11.9845L6.94499 11.815C6.55109 11.7933 6.20677 11.542 6.06593 11.1735C5.92509 10.805 6.01406 10.3881 6.29307 10.1092L10.1112 6.29277C10.3902 6.01388 10.8071 5.92508 11.1755 6.06608Z" fill="#141B34"/>
<path d="M13.9796 12.0151L17.0539 12.1811C17.4478 12.2024 17.7924 12.4532 17.9336 12.8216C18.0749 13.1899 17.9864 13.6068 17.7078 13.8861L13.8951 17.7064C13.6164 17.9856 13.1997 18.0749 12.8311 17.9344C12.4625 17.7939 12.211 17.4499 12.1888 17.056L12.0159 13.9772L12.0159 13.9772C12.0047 13.7807 11.9911 13.5417 12.0083 13.3352C12.0292 13.0853 12.1052 12.7185 12.4139 12.411C12.7217 12.1046 13.0878 12.0295 13.3361 12.0086C13.5425 11.9912 13.7817 12.0043 13.9796 12.0151Z" fill="#141B34"/>
</svg>
