<svg width="24" height="24" viewBox="0 0 24 24" fill="none" xmlns="http://www.w3.org/2000/svg">
<path d="M5.59261 16.2806C6.20752 15.844 7.05048 15.9222 7.57429 16.466C8.08043 16.9914 8.14268 17.802 7.72141 18.3985L5.15558 22.0317C4.3466 23.1772 2.70469 23.3304 1.69662 22.3572C0.668488 21.3646 0.796507 19.6855 1.96097 18.8588L5.59261 16.2806Z" fill="#141B34"/>
<path fill-rule="evenodd" clip-rule="evenodd" d="M12.2071 11.7919C12.5976 12.1824 12.5976 12.8156 12.2071 13.2061L7.70711 17.7061C7.31658 18.0967 6.68342 18.0967 6.29289 17.7061C5.90237 17.3156 5.90237 16.6824 6.29289 16.2919L10.7929 11.7919C11.1834 11.4014 11.8166 11.4014 12.2071 11.7919Z" fill="#141B34"/>
<path fill-rule="evenodd" clip-rule="evenodd" d="M16.3936 3.10267C14.8232 3.37944 13.2199 4.1871 12.1297 5.27724C10.6431 6.76385 10.5266 9.79546 12.3652 11.6341C14.2039 13.4727 17.2355 13.3562 18.7221 11.8696C19.8122 10.7794 20.6199 9.17612 20.8967 7.60576C21.177 6.01541 20.8848 4.68139 20.1014 3.89796C19.3179 3.11452 17.9839 2.82237 16.3936 3.10267ZM16.0464 1.13302C17.9739 0.793306 20.0881 1.05622 21.5156 2.48374C22.9431 3.91126 23.206 6.02544 22.8663 7.95291C22.5231 9.90037 21.5356 11.8845 20.1363 13.2838C17.8327 15.5874 13.5343 15.6316 10.951 13.0483C8.36775 10.465 8.41194 6.16661 10.7155 3.86302C12.1148 2.46372 14.0989 1.47627 16.0464 1.13302Z" fill="#141B34"/>
</svg>
