<svg width="24" height="24" viewBox="0 0 24 24" fill="none" xmlns="http://www.w3.org/2000/svg">
<path d="M6 11.0001H9.00002C9.5523 11.0001 10 11.4478 10 12.0001C10 12.5524 9.5523 13.0001 9.00002 13.0001H6V11.0001Z" fill="#141B34"/>
<path fill-rule="evenodd" clip-rule="evenodd" d="M6.00654 6.48869C6.68515 5.52752 7.78211 5.11204 9.18007 5.2905C10.8872 5.50844 12.7574 5.92412 14.2162 6.9187C15.7445 7.96069 16.75 9.59121 16.75 12.0001C16.75 14.409 15.7445 16.0396 14.2162 17.0815C12.7574 18.0761 10.8872 18.4918 9.18007 18.7097C7.78211 18.8882 6.68515 18.4727 6.00653 17.5116C5.39892 16.651 5.25 15.5131 5.25 14.4963V9.5039C5.25 8.4871 5.39892 7.34928 6.00654 6.48869ZM7.569 7.60577C7.31513 7.96533 7.16667 8.59988 7.16667 9.5039V14.4963C7.16667 15.4004 7.31513 16.0349 7.569 16.3945C7.75185 16.6535 8.08047 16.9059 8.93886 16.7963C10.5732 16.5877 12.0691 16.2157 13.1411 15.4848C14.1435 14.8013 14.8333 13.7687 14.8333 12.0001C14.8333 10.2316 14.1435 9.19891 13.1411 8.51544C12.0691 7.78458 10.5732 7.41253 8.93886 7.2039C8.08047 7.09432 7.75185 7.34678 7.569 7.60577Z" fill="#141B34"/>
<path fill-rule="evenodd" clip-rule="evenodd" d="M3.95524 17.2501H3.95525H3.95526L7.02375 17.2501V13.0001H4C3.44772 13.0001 3 12.5524 3 12.0001C3 11.4478 3.44772 11.0001 4 11.0001H7.02375V6.75013L3.95526 6.75013C3.52244 6.75007 3.12561 6.75003 2.8028 6.79343C2.44732 6.84122 2.07159 6.95367 1.76257 7.26269C1.45355 7.57172 1.3411 7.94744 1.29331 8.30292C1.24991 8.62573 1.24995 9.02256 1.25 9.45538V14.5449C1.24995 14.9777 1.24991 15.3745 1.29331 15.6973C1.3411 16.0528 1.45355 16.4285 1.76257 16.7376C2.07159 17.0466 2.44732 17.159 2.8028 17.2068C3.12561 17.2502 3.52243 17.2502 3.95524 17.2501Z" fill="#141B34"/>
<path fill-rule="evenodd" clip-rule="evenodd" d="M22.2371 7.26269C21.9281 6.95367 21.5524 6.84122 21.1969 6.79343C20.8741 6.75003 20.4772 6.75007 20.0444 6.75013L12.5433 6.75013L13.3891 7.9357C14.1011 8.93375 14.838 9.97759 15.0538 11.2515C15.2601 12.4694 15.0026 14.0212 13.4112 16.0351L12.4512 17.2501L20.0444 17.2501H20.0444H20.0444C20.4772 17.2502 20.8741 17.2502 21.1969 17.2068C21.5524 17.159 21.9281 17.0466 22.2371 16.7376C22.5461 16.4285 22.6586 16.0528 22.7064 15.6973C22.7498 15.3745 22.7497 14.9777 22.7497 14.5449V14.5449V14.5449V9.45539V9.45537V9.45536C22.7497 9.02255 22.7498 8.62573 22.7064 8.30292C22.6586 7.94744 22.5461 7.57172 22.2371 7.26269ZM19.995 11.0001C19.4452 11.0001 18.9995 11.4478 18.9995 12.0001C18.9995 12.5524 19.4453 13.0001 19.9951 13.0001H20.004C20.5538 13.0001 20.9995 12.5524 20.9995 12.0001C20.9995 11.4478 20.5538 11.0001 20.004 11.0001H19.995Z" fill="#141B34"/>
</svg>
