<svg width="24" height="24" viewBox="0 0 24 24" fill="none" xmlns="http://www.w3.org/2000/svg">
<path d="M5.31629 1.28608C5.88297 1.4032 6.33427 1.78394 6.61466 2.28697L7.50787 3.88942C7.83688 4.47962 8.11375 4.97631 8.29457 5.40808C8.48637 5.8661 8.60029 6.31775 8.54821 6.81712C8.49614 7.31648 8.29148 7.73491 8.00931 8.1435C7.7433 8.52868 7.36991 8.95755 6.92621 9.46718L5.6132 10.9754C5.37791 11.2456 5.26026 11.3808 5.24951 11.5497C5.23876 11.7186 5.33518 11.8628 5.52803 12.1513C7.17161 14.6104 9.38675 16.8263 11.8478 18.4713C12.1364 18.6642 12.2806 18.7606 12.4495 18.7498C12.6184 18.7391 12.7536 18.6214 13.0238 18.3862L14.5321 17.0731C15.0417 16.6294 15.4706 16.256 15.8558 15.99C16.2644 15.7078 16.6828 15.5031 17.1822 15.4511C17.6815 15.399 18.1332 15.5129 18.5912 15.7047C19.0229 15.8855 19.5196 16.1624 20.1097 16.4913L21.7123 17.3846C22.2153 17.665 22.5961 18.1163 22.7132 18.683C22.8316 19.2556 22.657 19.8312 22.2714 20.3042C20.8725 22.0205 18.6313 23.1134 16.28 22.6391C14.8348 22.3475 13.4088 21.8618 11.6841 20.8727C8.21872 18.8853 5.11165 15.7765 3.12658 12.3152C2.13746 10.5905 1.65174 9.16452 1.3602 7.71925C0.885904 5.36803 1.97874 3.12675 3.6951 1.72785C4.16814 1.3423 4.74368 1.16773 5.31629 1.28608Z" fill="#141B34"/>
<path d="M12.2922 10.2926C11.9017 10.6832 11.9017 11.3163 12.2922 11.7069C12.6828 12.0974 13.3159 12.0974 13.7064 11.7069L17.9682 7.44511L18.7304 8.20727L18.7452 8.22215C18.8008 8.27806 18.9001 8.37777 18.9981 8.45338L19.0013 8.45586C19.0721 8.51065 19.4926 8.83628 20.0469 8.64161C20.6038 8.44606 20.7274 7.92429 20.7473 7.84005L20.7485 7.83525C20.7773 7.71522 20.7925 7.57515 20.8012 7.49484L20.8035 7.4735C20.8151 7.36841 20.8299 7.24629 20.846 7.11244C20.8978 6.68245 20.9643 6.13154 20.9886 5.63614C21.0048 5.30719 21.0062 4.95047 20.9627 4.62509C20.9268 4.35717 20.8374 3.9 20.5096 3.55089C20.4999 3.54027 20.4899 3.52981 20.4796 3.51952C20.4696 3.50953 20.4594 3.49979 20.4491 3.4903C20.0998 3.16163 19.6419 3.07198 19.3737 3.03611C19.0483 2.99261 18.6916 2.99395 18.3626 3.01014C17.8672 3.03452 17.3163 3.10094 16.8863 3.15279C16.7525 3.16892 16.6303 3.18365 16.5253 3.19525L16.5039 3.19758C16.4236 3.20628 16.2835 3.22145 16.1635 3.25031L16.1587 3.25145C16.0745 3.2714 15.5527 3.39499 15.3572 3.95186C15.1625 4.50622 15.4881 4.92671 15.5429 4.99747L15.5454 5.00068C15.621 5.09867 15.7207 5.19794 15.7766 5.2536L15.7915 5.26842L16.554 6.0309L12.2922 10.2926Z" fill="#141B34"/>
</svg>
