<svg width="24" height="24" viewBox="0 0 24 24" fill="none" xmlns="http://www.w3.org/2000/svg">
<path d="M17.1827 7.04347C17.6631 7.12934 18.1601 7.34418 18.6459 7.67074C19.3721 8.15893 19.9942 8.84638 20.3873 9.51857C20.6804 10.0196 20.7676 10.3581 20.7781 10.5859C20.8108 11.2968 20.4086 11.5845 19.9349 11.7532C19.7302 11.826 19.4647 11.8812 19.1066 11.9156C18.8558 11.9194 18.5734 11.9198 18.2527 11.9198C18.1765 11.9198 18.0979 11.9169 18.0004 11.9132C17.9615 11.9117 17.9197 11.9102 17.8739 11.9086C17.7257 11.9036 17.5497 11.8997 17.369 11.9095C17.028 11.9281 16.5421 11.9994 16.1454 12.3309C15.8466 12.5805 15.698 12.9685 15.5968 13.271C15.4844 13.6068 15.367 14.0574 15.2238 14.6071L15.2164 14.6354C15.1656 14.8302 15.0801 15.0185 14.9824 15.1409C14.8935 15.2522 14.8456 15.2515 14.8347 15.2514C14.7465 15.2514 14.6579 15.214 14.5776 15.1212C14.492 15.0224 14.4391 14.8833 14.4395 14.7479C14.4412 14.156 14.3261 13.4503 13.8963 12.876C13.4376 12.263 12.712 11.9198 11.7572 11.9198H8.54119C6.41514 11.9198 4.86852 11.9191 3.82625 11.8275C3.72739 11.8188 3.70123 11.69 3.78881 11.6433C3.84263 11.6146 3.89765 11.586 3.94708 11.5617C4.80246 11.1405 6.17902 10.6293 8.19402 9.91572L8.3365 9.86526C8.45462 9.82343 8.50537 9.68461 8.44823 9.57309C8.22137 9.13031 8.06495 8.64547 7.99376 8.13336C7.97569 8.00332 7.84406 7.91795 7.7203 7.96177L7.52639 8.03044C5.54229 8.73307 4.04541 9.28398 3.06359 9.76742C2.57959 10.0057 2.13586 10.2673 1.81525 10.5774C1.48889 10.893 1.17086 11.3857 1.26765 12.0169C1.26787 12.0184 1.2669 12.0198 1.26542 12.0201C1.26391 12.0204 1.26292 12.0218 1.26321 12.0234C1.26631 12.0398 1.26976 12.0563 1.27357 12.0728L2.06667 15.7766C2.11534 16.0039 2.13967 16.1175 2.22218 16.1843C2.3047 16.251 2.42092 16.251 2.65337 16.251H9.00049C9.4147 16.251 9.75049 16.5868 9.75049 17.001C9.75049 17.4152 9.4147 17.751 9.00049 17.751H3.26545C2.91194 17.751 2.73518 17.751 2.64514 17.8692C2.55509 17.9875 2.60108 18.1541 2.69305 18.4874C2.76057 18.732 2.82986 18.9585 2.9035 19.1674C3.15677 19.8855 3.48787 20.4757 4.04907 20.926C4.61023 21.3762 5.25819 21.5716 6.01433 21.6634C6.73986 21.7514 7.64382 21.7514 8.75803 21.7514H17.4361C18.256 21.7514 18.9428 21.7514 19.4932 21.6805C20.0757 21.6054 20.6042 21.4407 21.0474 21.0392C21.4906 20.6377 21.7065 20.1281 21.8384 19.5558C21.9144 19.2261 21.9692 18.8435 22.0185 18.4101C22.0534 18.1043 22.0708 17.9514 21.9813 17.8512C21.8919 17.751 21.7363 17.751 21.4251 17.751H19.5005C19.0863 17.751 18.7505 17.4152 18.7505 17.001C18.7505 16.5868 19.0863 16.251 19.5005 16.251H21.6921C21.9504 16.251 22.0796 16.251 22.1654 16.1733C22.2511 16.0956 22.2638 15.967 22.2892 15.7099L22.7465 11.0752C22.7745 10.8896 22.7853 10.6959 22.7759 10.4938C22.7459 9.84146 22.51 9.18628 22.1137 8.50884C21.5738 7.5857 20.7463 6.67275 19.7616 6.01089C18.7174 5.30895 17.7224 5.04896 16.6936 5.09132C16.5459 5.0974 16.4641 5.26106 16.5328 5.392C16.769 5.84251 16.9319 6.33761 17.0056 6.86156C17.0186 6.95396 17.0909 7.02705 17.1827 7.04347Z" fill="#141B34"/>
<path d="M14.7573 2.03009C15.2931 1.89615 15.8361 2.22191 15.97 2.7577C16.104 3.2935 15.7782 3.83643 15.2424 3.97038C14.6779 4.11151 14.27 4.36058 13.9866 4.60928C15.0339 5.14888 15.7501 6.24089 15.7501 7.50018C15.7501 9.2951 14.295 10.7502 12.5001 10.7502C10.7052 10.7502 9.25012 9.2951 9.25012 7.50018C9.25012 5.98518 10.2867 4.7123 11.6894 4.35212C12.0853 3.54956 13.0511 2.45665 14.7573 2.03009Z" fill="#141B34"/>
</svg>
