<svg width="24" height="24" viewBox="0 0 24 24" fill="none" xmlns="http://www.w3.org/2000/svg">
<path fill-rule="evenodd" clip-rule="evenodd" d="M12 1.25C6.06294 1.25 1.25 6.06294 1.25 12C1.25 17.9371 6.06294 22.75 12 22.75C17.9371 22.75 22.75 17.9371 22.75 12C22.75 6.06294 17.9371 1.25 12 1.25ZM10.5764 7.918C10.5764 7.51329 10.3325 7.14848 9.95847 6.99386C9.58447 6.83924 9.15414 6.92529 8.86835 7.21185L6.79197 9.29386C6.50653 9.58008 6.42147 10.01 6.57641 10.3833C6.73135 10.7567 7.09581 11 7.50003 11H16.5C17.0523 11 17.5 10.5523 17.5 10C17.5 9.44773 17.0523 9.00001 16.5 9.00001H10.5764V7.918ZM7.97371 13C7.42143 13 6.97371 13.4477 6.97371 14C6.97371 14.5523 7.42143 15 7.97371 15H13.1316V16C13.1316 16.3892 13.3574 16.7431 13.7104 16.907C14.0634 17.0709 14.4794 17.0151 14.7768 16.764L17.1452 14.764C17.466 14.4932 17.5834 14.0508 17.4392 13.6565C17.295 13.2622 16.9199 13 16.5 13H7.97371Z" fill="#141B34"/>
</svg>
