<svg width="24" height="24" viewBox="0 0 24 24" fill="none" xmlns="http://www.w3.org/2000/svg">
<path fill-rule="evenodd" clip-rule="evenodd" d="M12 1.25C6.06294 1.25 1.25 6.06294 1.25 12C1.25 17.9371 6.06294 22.75 12 22.75C17.9371 22.75 22.75 17.9371 22.75 12C22.75 6.06294 17.9371 1.25 12 1.25ZM14.3461 12.1916C14.7639 12.5527 15.3954 12.5067 15.7565 12.0889C16.1177 11.671 16.0717 11.0395 15.6538 10.6784L12.9759 8.36404C12.4143 7.87865 11.5856 7.87865 11.024 8.36404L8.34607 10.6784C7.92822 11.0395 7.88223 11.671 8.24336 12.0889C8.60449 12.5067 9.23598 12.5527 9.65383 12.1916L12 10.164L14.3461 12.1916ZM15 16C15.4177 16 15.7914 15.7403 15.9371 15.3489C16.0829 14.9574 15.9699 14.5165 15.6538 14.2434L12.9759 11.929C12.4143 11.4436 11.5856 11.4436 11.024 11.929L8.34607 14.2434C8.03002 14.5165 7.91705 14.9574 8.06278 15.3489C8.20851 15.7403 8.58222 16 8.99995 16H15Z" fill="#141B34"/>
</svg>
