<svg width="24" height="24" viewBox="0 0 24 24" fill="none" xmlns="http://www.w3.org/2000/svg">
<path fill-rule="evenodd" clip-rule="evenodd" d="M20.4252 3.28231C19.6271 2.95101 18.5745 2.67059 17.2693 2.32287L16.2093 2.04043C14.9041 1.69265 13.8515 1.4122 12.9938 1.30229C12.1033 1.18818 11.3123 1.241 10.582 1.66025C9.85111 2.07986 9.40858 2.73583 9.06201 3.5614C8.72858 4.35566 8.4464 5.40287 8.09685 6.70016L7.04511 10.6032L7.04511 10.6032C6.69553 11.9004 6.41332 12.9476 6.30269 13.8013C6.18771 14.6885 6.24088 15.4779 6.66385 16.2064C7.08645 16.9342 7.74612 17.3737 8.57468 17.7176C9.37284 18.0489 10.4254 18.3293 11.7306 18.677L12.7907 18.9595C14.0958 19.3073 15.1484 19.5877 16.0061 19.6976C16.8966 19.8117 17.6876 19.7589 18.4179 19.3396C19.1488 18.92 19.5913 18.2641 19.9379 17.4385C20.2713 16.6442 20.5535 15.597 20.903 14.2997L21.9548 10.3967C22.3044 9.09953 22.5866 8.05231 22.6972 7.19861C22.8122 6.31139 22.759 5.52199 22.336 4.79352C21.9134 4.06567 21.2538 3.62623 20.4252 3.28231ZM15.4999 8.5C16.3284 8.5 16.9999 7.82843 16.9999 7C16.9999 6.17157 16.3284 5.5 15.4999 5.5C14.6715 5.5 13.9999 6.17157 13.9999 7C13.9999 7.82843 14.6715 8.5 15.4999 8.5Z" fill="#141B34"/>
<path fill-rule="evenodd" clip-rule="evenodd" d="M6.4247 5.96619C6.58139 6.49579 6.27908 7.05212 5.74949 7.20881C4.16178 7.67854 3.67116 7.99927 3.42994 8.41473C3.27579 8.68023 3.19906 9.03003 3.28685 9.72231C3.37837 10.444 3.62421 11.375 3.98943 12.7459L5.00179 16.5455C5.36703 17.9164 5.61699 18.8463 5.89648 19.5172C6.16466 20.1609 6.40442 20.4236 6.66765 20.5747C6.93172 20.7263 7.28257 20.8018 7.97966 20.7106C8.70491 20.6156 9.64085 20.3656 11.017 19.9948L11.4897 19.8674C12.023 19.7237 12.5718 20.0395 12.7155 20.5728C12.8592 21.106 12.5434 21.6548 12.0101 21.7985L11.4696 21.9442C10.1784 22.2921 9.11286 22.5793 8.23925 22.6936C7.32225 22.8137 6.46836 22.7665 5.6719 22.3092C4.87461 21.8515 4.40515 21.1381 4.05028 20.2863C3.71269 19.4759 3.42979 18.414 3.08741 17.1288L2.03867 13.1925C1.6962 11.9073 1.41325 10.8454 1.30274 9.97392C1.18654 9.05768 1.23873 8.20553 1.70034 7.4105C2.38635 6.22897 3.65428 5.74299 5.18209 5.29098C5.71168 5.1343 6.26802 5.4366 6.4247 5.96619Z" fill="#141B34"/>
</svg>
