<svg width="24" height="24" viewBox="0 0 24 24" fill="none" xmlns="http://www.w3.org/2000/svg">
<path fill-rule="evenodd" clip-rule="evenodd" d="M19 13.9596C19 13.3837 18.5481 12.9526 18.0346 12.9526L7.91553 12.9526C6.2857 12.9526 5 11.6093 5 9.99659C5 8.38385 6.2857 7.04055 7.91553 7.04055L10 7.04055C11.6372 7.04055 13 5.67936 13 3.95595L13 3C13 2.44771 13.4477 2 14 2C14.5523 2 15 2.44771 15 3L15 3.95595C15 6.74426 12.781 9.04055 10 9.04055L7.91553 9.04055C7.42953 9.04055 7 9.44875 7 9.99659C7 10.5444 7.42952 10.9526 7.91553 10.9526L18.0346 10.9526C19.692 10.9526 21 12.3187 21 13.9596C21 15.6005 19.692 16.9666 18.0346 16.9666L16 16.9666C14.3628 16.9666 13 18.3278 13 20.0512L13 21C13 21.5523 12.5523 22 12 22C11.4477 22 11 21.5523 11 21L11 20.0512C11 17.2629 13.2189 14.9666 16 14.9666L18.0346 14.9666C18.5481 14.9666 19 14.5356 19 13.9596Z" fill="#141B34"/>
<path d="M14.9131 19.5923C15.074 19.9525 15.008 20.3737 14.7446 20.6675L13.4241 22.1406C13.2826 22.2986 13.1166 22.4839 12.9543 22.6221C12.7639 22.7842 12.4454 23 12 23C11.5546 23 11.2361 22.7842 11.0456 22.6221C10.8833 22.4839 10.7173 22.2986 10.5759 22.1406L10.5759 22.1406L9.25537 20.6675C8.99201 20.3737 8.92601 19.9525 9.08688 19.5923C9.24776 19.232 9.60543 19 9.99998 19L14 19C14.3945 19 14.7522 19.232 14.9131 19.5923Z" fill="#141B34"/>
<path d="M16.9131 4.40774C16.7522 4.768 16.3945 5 16 5L12 5C11.6054 5 11.2478 4.768 11.0869 4.40774C10.926 4.04747 10.992 3.62629 11.2554 3.3325L12.5759 1.85942L12.5759 1.85941C12.7173 1.70143 12.8833 1.51605 13.0456 1.37792C13.2361 1.2158 13.5546 1 14 1C14.4454 1 14.7639 1.2158 14.9543 1.37792C15.1166 1.51605 15.2826 1.70144 15.4241 1.85942L15.4241 1.85942L16.7446 3.3325C17.008 3.62629 17.074 4.04747 16.9131 4.40774Z" fill="#141B34"/>
</svg>
