<svg width="24" height="24" viewBox="0 0 24 24" fill="none" xmlns="http://www.w3.org/2000/svg">
<path fill-rule="evenodd" clip-rule="evenodd" d="M12.0591 1.75H11.9448C9.75347 1.74999 8.0323 1.74998 6.68852 1.93059C5.31149 2.11568 4.21893 2.50272 3.3605 3.36091C2.50207 4.21911 2.11492 5.31137 1.92979 6.68802C1.79853 7.66402 1.76264 8.83914 1.75283 10.2489C1.74956 10.7194 1.74792 10.9546 1.89461 11.1023C2.04131 11.25 2.27775 11.25 2.75064 11.25H21.2533C21.7262 11.25 21.9626 11.25 22.1093 11.1023C22.256 10.9546 22.2544 10.7194 22.2511 10.2489C22.2413 8.83914 22.2054 7.66402 22.0741 6.68802C21.889 5.31137 21.5018 4.21911 20.6434 3.36091C19.785 2.50272 18.6924 2.11568 17.3154 1.93059C15.9716 1.74998 14.2504 1.74999 12.0591 1.75ZM6.49912 6.5C6.49912 5.67157 7.17069 5 7.99912 5C8.82755 5 9.49912 5.67157 9.49912 6.5C9.49912 7.32843 8.82755 8 7.99912 8C7.17069 8 6.49912 7.32843 6.49912 6.5ZM11.9991 6.5C11.9991 6.08579 12.3349 5.75 12.7491 5.75L16.7491 5.75C17.1633 5.75 17.4991 6.08579 17.4991 6.5C17.4991 6.91421 17.1633 7.25 16.7491 7.25L12.7491 7.25C12.3349 7.25 11.9991 6.91421 11.9991 6.5Z" fill="#141B34"/>
<path fill-rule="evenodd" clip-rule="evenodd" d="M21.2533 12.75H2.75064C2.27775 12.75 2.04131 12.75 1.89461 12.8977C1.74792 13.0454 1.74956 13.2806 1.75283 13.7511C1.76264 15.1609 1.79853 16.336 1.92979 17.312C2.11492 18.6886 2.50206 19.7809 3.3605 20.6391C4.21893 21.4973 5.31149 21.8843 6.68852 22.0694C8.0323 22.25 9.75344 22.25 11.9447 22.25H12.0591C14.2504 22.25 15.9716 22.25 17.3154 22.0694C18.6924 21.8843 19.785 21.4973 20.6434 20.6391C21.5018 19.7809 21.889 18.6886 22.0741 17.312C22.2054 16.336 22.2413 15.1609 22.2511 13.7511C22.2544 13.2806 22.256 13.0454 22.1093 12.8977C21.9626 12.75 21.7262 12.75 21.2533 12.75ZM6.49912 17.5C6.49912 16.6716 7.17069 16 7.99912 16C8.82755 16 9.49912 16.6716 9.49912 17.5C9.49912 18.3284 8.82755 19 7.99912 19C7.17069 19 6.49912 18.3284 6.49912 17.5ZM11.9991 17.5C11.9991 17.0858 12.3349 16.75 12.7491 16.75L16.7491 16.75C17.1633 16.75 17.4991 17.0858 17.4991 17.5C17.4991 17.9142 17.1633 18.25 16.7491 18.25L12.7491 18.25C12.3349 18.25 11.9991 17.9142 11.9991 17.5Z" fill="#141B34"/>
</svg>
