<svg width="24" height="24" viewBox="0 0 24 24" fill="none" xmlns="http://www.w3.org/2000/svg">
<path d="M15.0005 12C15.0005 10.3431 13.6573 9 12.0005 9C10.3436 9 9.00049 10.3431 9.00049 12C9.00049 13.6569 10.3436 15 12.0005 15C13.6573 15 15.0005 13.6569 15.0005 12Z" fill="#141B34"/>
<path d="M4.31858 3.02726C4.07153 3.06047 3.72979 3.14938 3.4398 3.43937C3.14981 3.72937 3.0609 4.0711 3.02768 4.31815C3.00017 4.52281 3.00032 4.76078 3.00044 4.96065L3.00046 10C3.00046 10.4045 3.2441 10.7691 3.61778 10.9239C3.99145 11.0787 4.42157 10.9931 4.70757 10.7071L10.7076 4.70714C10.9936 4.42114 11.0791 3.99102 10.9243 3.61735C10.7696 3.24368 10.4049 3.00003 10.0005 3.00003L4.96108 3.00002C4.7612 2.99989 4.52323 2.99974 4.31858 3.02726Z" fill="#141B34"/>
<path d="M20.3831 13.0761C20.0095 12.9214 19.5793 13.0069 19.2933 13.2929L13.2933 19.2929C13.0073 19.5789 12.9218 20.009 13.0766 20.3827C13.2314 20.7564 13.596 21 14.0005 21L19.0398 21C19.2397 21.0002 19.4777 21.0003 19.6823 20.9728C19.9294 20.9396 20.2711 20.8507 20.5611 20.5607C20.8511 20.2707 20.94 19.929 20.9732 19.6819C21.0007 19.4773 21.0006 19.2393 21.0005 19.0394L21.0005 14C21.0005 13.5956 20.7568 13.2309 20.3831 13.0761Z" fill="#141B34"/>
</svg>
