<svg width="24" height="24" viewBox="0 0 24 24" fill="none" xmlns="http://www.w3.org/2000/svg">
<path d="M16.4977 12.2485C17.2009 12.2485 17.6823 12.776 17.9488 13.3157L18.7376 14.9062C18.7485 14.9281 18.7847 14.9742 18.8426 14.9839L20.2671 15.2225C20.8583 15.3218 21.4775 15.6343 21.6859 16.2878C21.8939 16.9403 21.5713 17.5537 21.147 17.9791L21.146 17.9801L20.0388 19.0965C20.0185 19.1138 19.9823 19.1669 19.9991 19.2404L20.316 20.622C20.4561 21.2347 20.459 22.0431 19.8384 22.4993C19.2147 22.9577 18.4436 22.7069 17.9047 22.3859L16.5683 21.5882C16.5462 21.5735 16.4868 21.5532 16.426 21.5896L15.0921 22.3857C14.5517 22.7089 13.7824 22.9557 13.1595 22.4974C12.5402 22.0418 12.5396 21.2358 12.6806 20.6214L12.9973 19.2404C13.0159 19.1595 12.9786 19.1107 12.9577 19.0965L11.8487 17.9783C11.4269 17.5531 11.1056 16.9404 11.3119 16.2892C11.519 15.6351 12.1378 15.3219 12.7297 15.2224L14.1501 14.9845C14.1736 14.9811 14.2273 14.9608 14.2543 14.9064L15.0441 13.3138C15.3128 12.7748 15.7954 12.2485 16.4977 12.2485Z" fill="#141B34"/>
<path d="M6.93581 22.6472C7.91806 22.75 8.48088 22.75 10.022 22.75C10.5617 22.75 10.9993 22.3124 10.9993 21.7727C10.9993 21.233 10.5617 20.7954 10.022 20.7954C8.41336 20.7954 8.00711 20.7941 7.13766 20.7032C6.28374 20.6138 5.79982 20.4471 5.44199 20.194C5.20053 20.0233 4.98816 19.8222 4.81036 19.5978C4.5548 19.2753 4.38536 18.8425 4.29312 18.0558C4.19819 17.246 4.19662 16.1887 4.19662 14.6652L4.19653 11.765C4.19652 11.498 4.19669 10.8595 4.47731 10.3873C4.65024 10.0963 4.87166 9.8532 5.09911 9.72938C5.46562 9.52986 5.88581 9.4165 6.33248 9.4165L7.37285 9.45299C7.75294 9.46088 8.19648 9.44887 8.62463 9.33415C9.4586 9.11069 10.11 8.45928 10.3335 7.62531C10.4482 7.19716 10.4602 6.75362 10.4523 6.37353L10.4158 5.33316C10.4158 4.86547 10.5402 4.45834 10.7575 4.07993C10.8842 3.85934 11.105 3.65745 11.4097 3.48014C11.8719 3.21123 12.4253 3.20874 12.7634 3.20722C13.1016 3.20569 13.4584 3.20452 13.7564 3.20452C15.5906 3.20452 16.2577 3.21847 16.761 3.39582C17.6337 3.70328 18.2994 4.34492 18.6095 5.13029C18.6871 5.32693 18.7419 5.58535 18.7714 6.0333C18.8014 6.48997 18.8019 7.07292 18.8019 7.91318V11.0263C18.8019 11.564 19.2378 12 19.7756 12C20.3133 12 20.7493 11.564 20.7493 11.0263V7.88C20.7493 7.08084 20.7493 6.43328 20.7145 5.9047C20.6788 5.36007 20.6031 4.8744 20.4199 4.41024C19.8911 3.07093 18.7826 2.03666 17.4061 1.55166C16.5473 1.24907 15.0752 1.24946 13.5202 1.25C10.6806 1.24964 8.99391 1.24943 7.61148 1.73651C5.39148 2.51869 3.61775 4.18143 2.77435 6.31749C2.49324 7.02945 2.36871 7.79416 2.30845 8.711C2.24926 9.61171 2.24927 10.7243 2.24927 12.1426V12.1426V14.7261C2.24925 16.1742 2.24923 17.3469 2.35911 18.2842C2.47323 19.2576 2.71648 20.0955 3.28631 20.8145C3.58149 21.187 3.93004 21.5158 4.3204 21.7919C5.06517 22.3185 5.92639 22.5416 6.93581 22.6472Z" fill="#141B34"/>
</svg>
