<svg width="24" height="25" viewBox="0 0 24 25" fill="none" xmlns="http://www.w3.org/2000/svg">
<path fill-rule="evenodd" clip-rule="evenodd" d="M17.5 13.751C14.8766 13.751 12.75 15.8776 12.75 18.501C12.75 21.1243 14.8766 23.251 17.5 23.251C20.1234 23.251 22.25 21.1243 22.25 18.501C22.25 15.8776 20.1234 13.751 17.5 13.751ZM18.2503 17.168C18.2503 16.7538 17.9145 16.418 17.5003 16.418C17.0861 16.418 16.7503 16.7538 16.7503 17.168V17.7513H16.167C15.7528 17.7513 15.417 18.0871 15.417 18.5013C15.417 18.9155 15.7528 19.2513 16.167 19.2513H16.7503V19.8346C16.7503 20.2488 17.0861 20.5846 17.5003 20.5846C17.9145 20.5846 18.2503 20.2488 18.2503 19.8346V19.2513H18.8337C19.2479 19.2513 19.5837 18.9155 19.5837 18.5013C19.5837 18.0871 19.2479 17.7513 18.8337 17.7513H18.2503V17.168Z" fill="#141B34"/>
<path fill-rule="evenodd" clip-rule="evenodd" d="M5.50919 3.25054C9.84631 0.288493 16.1007 1.87156 18.4031 6.61713C18.6385 7.10226 18.4381 7.68733 17.9555 7.92393C17.4729 8.16053 16.8908 7.95906 16.6555 7.47394C14.8861 3.82708 9.98615 2.55601 6.60192 4.86728C6.15779 5.1706 5.55313 5.05458 5.25138 4.60812C4.94963 4.16167 5.06506 3.55386 5.50919 3.25054ZM9.52778 6.637C9.52778 6.09726 9.96306 5.65971 10.5 5.65971C13.2289 5.65971 15.3611 7.98044 15.3611 10.7416C15.3611 11.2814 14.9258 11.7189 14.3889 11.7189C13.8519 11.7189 13.4167 11.2814 13.4167 10.7416C13.4167 8.96897 12.0667 7.61429 10.5 7.61429C9.96306 7.61429 9.52778 7.17674 9.52778 6.637ZM3.88107 6.19133C4.36457 6.42607 4.56722 7.01036 4.3337 7.49639C3.92361 8.3499 3.69444 9.3024 3.69444 10.3092V14.6609C3.69444 16.9045 4.83599 18.8968 6.60192 20.1028C7.04606 20.4061 7.16148 21.0139 6.85973 21.4604C6.55798 21.9069 5.95333 22.0229 5.50919 21.7196C3.24516 20.1733 1.75 17.5929 1.75 14.6609V10.3092C1.75 9.00044 2.04863 7.75801 2.58278 6.64632C2.8163 6.16029 3.39757 5.95659 3.88107 6.19133ZM7.3861 8.0921C7.87531 8.31458 8.09246 8.89359 7.87113 9.38534C7.68745 9.79346 7.58333 10.2527 7.58333 10.7416V14.2599C7.58333 16.0325 8.93332 17.3872 10.5 17.3872C10.6223 17.3872 10.7424 17.3792 10.8599 17.3637C11.3923 17.2937 11.8804 17.6707 11.9501 18.2059C12.0198 18.7411 11.6447 19.2317 11.1123 19.3018C10.9114 19.3282 10.707 19.3418 10.5 19.3418C7.77113 19.3418 5.63889 17.0211 5.63889 14.2599V10.7416C5.63889 9.9715 5.80332 9.23787 6.09957 8.57966C6.3209 8.0879 6.8969 7.86962 7.3861 8.0921ZM18.2778 9.89464C18.8147 9.89464 19.25 10.3322 19.25 10.8719V12.0121C19.25 12.5519 18.8147 12.9894 18.2778 12.9894C17.7408 12.9894 17.3056 12.5519 17.3056 12.0121V10.8719C17.3056 10.3322 17.7408 9.89464 18.2778 9.89464ZM10.5 10.0575C11.0369 10.0575 11.4722 10.4951 11.4722 11.0348V13.9667C11.4722 14.5064 11.0369 14.944 10.5 14.944C9.96306 14.944 9.52778 14.5064 9.52778 13.9667V11.0348C9.52778 10.4951 9.96306 10.0575 10.5 10.0575ZM12.9122 21.9377C13.016 22.4672 12.6729 22.9811 12.1461 23.0853C11.216 23.2693 10.2414 23.3052 9.25473 23.167C8.72292 23.0925 8.35187 22.5988 8.42597 22.0642C8.50006 21.5296 8.99124 21.1566 9.52305 21.2311C10.2898 21.3385 11.0467 21.3107 11.7706 21.1675C12.2974 21.0633 12.8085 21.4081 12.9122 21.9377Z" fill="#141B34"/>
</svg>
