<svg width="24" height="24" viewBox="0 0 24 24" fill="none" xmlns="http://www.w3.org/2000/svg">
<path fill-rule="evenodd" clip-rule="evenodd" d="M10.1341 2.47723C10.1466 3.02937 9.70925 3.48716 9.15711 3.49974C6.45364 3.56134 5.29953 3.83885 4.55254 4.58326C3.90785 5.22571 3.60144 6.18551 3.49878 8.24967C3.47135 8.80128 3.00195 9.2262 2.45035 9.19877C1.89875 9.17133 1.47382 8.70193 1.50126 8.15033C1.60672 6.02962 1.92292 4.38024 3.14078 3.1666C4.5219 1.79027 6.48248 1.56017 9.11155 1.50026C9.66369 1.48768 10.1215 1.92508 10.1341 2.47723ZM13.8659 2.47723C13.8785 1.92508 14.3363 1.48768 14.8884 1.50026C17.5175 1.56017 19.4781 1.79027 20.8592 3.1666C22.0771 4.38024 22.3933 6.02962 22.4987 8.15033C22.5262 8.70193 22.1013 9.17133 21.5497 9.19877C20.998 9.2262 20.5286 8.80128 20.5012 8.24967C20.3986 6.18551 20.0921 5.22571 19.4475 4.58326C18.7005 3.83885 17.5464 3.56134 14.8429 3.49974C14.2907 3.48716 13.8533 3.02937 13.8659 2.47723ZM2.45035 14.8012C3.00195 14.7738 3.47135 15.1987 3.49878 15.7503C3.60144 17.8145 3.90785 18.7743 4.55254 19.4167C5.29953 20.1611 6.45364 20.4387 9.15711 20.5003C9.70925 20.5128 10.1466 20.9706 10.1341 21.5228C10.1215 22.0749 9.66369 22.5123 9.11155 22.4997C6.48248 22.4398 4.5219 22.2097 3.14078 20.8334C1.92292 19.6198 1.60672 17.9704 1.50126 15.8497C1.47382 15.2981 1.89875 14.8287 2.45035 14.8012ZM21.5497 14.8012C22.1013 14.8287 22.5262 15.2981 22.4987 15.8497C22.3933 17.9704 22.0771 19.6198 20.8592 20.8334C19.4781 22.2097 17.5175 22.4398 14.8884 22.4997C14.3363 22.5123 13.8785 22.0749 13.8659 21.5228C13.8533 20.9706 14.2907 20.5128 14.8429 20.5003C17.5464 20.4387 18.7005 20.1611 19.4475 19.4167C20.0921 18.7743 20.3986 17.8145 20.5012 15.7503C20.5286 15.1987 20.998 14.7738 21.5497 14.8012Z" fill="#141B34"/>
<path fill-rule="evenodd" clip-rule="evenodd" d="M10.5 7.00049C10.5 6.4482 10.9477 6.00049 11.5 6.00049L12.5 6.00049C13.0523 6.00049 13.5 6.4482 13.5 7.00049C13.5 7.55277 13.0523 8.00049 12.5 8.00049H11.5C10.9477 8.00049 10.5 7.55277 10.5 7.00049ZM4 12.0005C4 11.4482 4.44771 11.0005 5 11.0005H6C6.55228 11.0005 6.99999 11.4482 6.99999 12.0005C6.99999 12.5528 6.55228 13.0005 6 13.0005H5C4.44771 13.0005 4 12.5528 4 12.0005ZM10.5 12.0005C10.5 11.4482 10.9477 11.0005 11.5 11.0005H12.5C13.0523 11.0005 13.5 11.4482 13.5 12.0005C13.5 12.5528 13.0523 13.0005 12.5 13.0005H11.5C10.9477 13.0005 10.5 12.5528 10.5 12.0005ZM17 12.0005C17 11.4482 17.4477 11.0005 18 11.0005H19C19.5523 11.0005 20 11.4482 20 12.0005C20 12.5528 19.5523 13.0005 19 13.0005H18C17.4477 13.0005 17 12.5528 17 12.0005ZM10.5 17.0005C10.5 16.4482 10.9477 16.0005 11.5 16.0005H12.5C13.0523 16.0005 13.5 16.4482 13.5 17.0005C13.5 17.5528 13.0523 18.0005 12.5 18.0005H11.5C10.9477 18.0005 10.5 17.5528 10.5 17.0005Z" fill="#141B34"/>
</svg>
