<svg width="24" height="24" viewBox="0 0 24 24" fill="none" xmlns="http://www.w3.org/2000/svg">
<path d="M15.4863 2.26253C15.2831 2.24999 14.5604 2.25 14.5604 2.25C14.2033 2.24999 13.9914 2.24999 13.8075 2.26026C10.4049 2.45037 7.70216 5.20153 7.51577 8.62906C7.50568 8.81459 7.50568 9.02855 7.50569 9.39146V11.7255L7.33216 11.491C6.30284 10.0998 4.28899 9.95279 3.07293 11.1854C2.08365 12.1881 1.97373 13.771 2.81148 14.9032L5.3983 18.3993C6.44956 19.8211 7.13131 20.7431 8.12495 21.2467C9.12015 21.7511 10.2602 21.7507 12.0127 21.75L13.3198 21.75C14.4668 21.75 15.3805 21.75 16.1196 21.6801C16.8799 21.6081 17.5232 21.4576 18.1104 21.1152C18.6028 20.8282 19.0391 20.4533 19.3986 20.0092C19.7032 19.6329 19.9175 19.2159 20.0862 18.7358C20.1993 18.414 20.2559 18.2531 20.1662 18.1266C20.0765 18 19.8961 18 19.5352 18H14C13.4477 18 13 17.5523 13 17C13 16.4477 13.4477 16 14 16H20.0138C20.3358 16 20.4967 16 20.6084 15.9058C20.6091 15.9052 20.6098 15.9046 20.6105 15.9041C20.7216 15.8091 20.7477 15.6505 20.7998 15.3333L21.584 10.5639C21.6522 10.1495 21.6922 9.90598 21.7133 9.70168C22.1069 5.8902 19.2856 2.49718 15.4863 2.26253Z" fill="#141B34"/>
</svg>
