<svg width="24" height="24" viewBox="0 0 24 24" fill="none" xmlns="http://www.w3.org/2000/svg">
<path d="M17.7804 15C18.2543 15 18.6566 15 18.9902 15.0286C19.3436 15.0588 19.6754 15.1245 19.9978 15.2864C20.2685 15.4222 20.5144 15.6026 20.7258 15.8198C20.9769 16.0778 21.1415 16.3743 21.2804 16.7031C21.4121 17.0147 21.5389 17.4016 21.689 17.8597L22.0248 18.8839L22.0413 18.9343C22.224 19.4916 22.3859 19.9855 22.457 20.3916C22.533 20.826 22.5365 21.3222 22.2202 21.7684C21.9016 22.2179 21.4305 22.3749 20.9945 22.4399C20.5906 22.5001 20.0764 22.5001 19.5004 22.5H19.5004L19.4463 22.5H16.0534L15.9993 22.5H15.9993C15.4233 22.5001 14.9091 22.5001 14.5052 22.4399C14.0692 22.3749 13.5981 22.2179 13.2795 21.7684C12.9632 21.3222 12.9667 20.826 13.0427 20.3916C13.1138 19.9855 13.2757 19.4916 13.4584 18.9343L13.4585 18.9343L13.4749 18.8839L13.8107 17.8597L13.8107 17.8597C13.9608 17.4015 14.0876 17.0147 14.2193 16.7031C14.3582 16.3743 14.5228 16.0778 14.7739 15.8198C14.9853 15.6026 15.2312 15.4222 15.5019 15.2864C15.8243 15.1245 16.1561 15.0588 16.5095 15.0286C16.8431 15 17.2454 15 17.7193 15H17.7194H17.7803H17.7804Z" fill="#141B34"/>
<path d="M12.2804 7C12.7543 6.99999 13.1566 6.99998 13.4902 7.02857C13.8436 7.05885 14.1754 7.12449 14.4978 7.28636C14.7685 7.42224 15.0144 7.60265 15.2258 7.81984C15.4769 8.07778 15.6415 8.3743 15.7804 8.7031C15.9121 9.01467 16.0389 9.40155 16.189 9.85971L16.5248 10.8839L16.5413 10.9343C16.724 11.4916 16.8859 11.9855 16.957 12.3916C17.033 12.826 17.0365 13.3222 16.7202 13.7684C16.4016 14.2179 15.9305 14.3749 15.4945 14.4399C15.0906 14.5001 14.5764 14.5001 14.0004 14.5H14.0004L13.9463 14.5H10.5534L10.4993 14.5H10.4993C9.92329 14.5001 9.40905 14.5001 9.00521 14.4399C8.56921 14.3749 8.09806 14.2179 7.77946 13.7684C7.46319 13.3222 7.46666 12.826 7.54269 12.3916C7.61375 11.9855 7.7757 11.4916 7.95845 10.9343L7.95845 10.9343L7.97495 10.8839L8.31068 9.8597L8.31068 9.8597C8.46084 9.40154 8.58764 9.01467 8.71929 8.7031C8.8582 8.3743 9.02277 8.07778 9.27386 7.81984C9.48528 7.60265 9.73123 7.42224 10.0019 7.28636C10.3243 7.12449 10.6561 7.05885 11.0095 7.02857C11.3431 6.99998 11.7454 6.99999 12.2193 7H12.2194H12.2803H12.2804Z" fill="#141B34"/>
<path d="M6.78036 15C7.25434 15 7.65657 15 7.99024 15.0286C8.34357 15.0588 8.67538 15.1245 8.99782 15.2864C9.26847 15.4222 9.51442 15.6026 9.72584 15.8198C9.97693 16.0778 10.1415 16.3743 10.2804 16.7031C10.4121 17.0147 10.5389 17.4016 10.689 17.8597L11.0248 18.8839L11.0413 18.9343C11.224 19.4916 11.3859 19.9855 11.457 20.3916C11.533 20.826 11.5365 21.3222 11.2202 21.7684C10.9016 22.2179 10.4305 22.3749 9.9945 22.4399C9.59065 22.5001 9.07641 22.5001 8.50038 22.5H8.50035L8.44628 22.5H5.05342L4.99935 22.5H4.99932C4.42329 22.5001 3.90905 22.5001 3.50521 22.4399C3.06921 22.3749 2.59806 22.2179 2.27946 21.7684C1.96319 21.3222 1.96666 20.826 2.04269 20.3916C2.11375 19.9855 2.2757 19.4916 2.45845 18.9343L2.45845 18.9343L2.47495 18.8839L2.81068 17.8597L2.81068 17.8597C2.96084 17.4015 3.08764 17.0147 3.21929 16.7031C3.3582 16.3743 3.52277 16.0778 3.77386 15.8198C3.98528 15.6026 4.23123 15.4222 4.50188 15.2864C4.82432 15.1245 5.15613 15.0588 5.50946 15.0286C5.84313 15 6.24536 15 6.71934 15H6.71936H6.78034H6.78036Z" fill="#141B34"/>
<path fill-rule="evenodd" clip-rule="evenodd" d="M12.25 2C12.6642 2 13 2.33579 13 2.75V4.75C13 5.16421 12.6642 5.5 12.25 5.5C11.8358 5.5 11.5 5.16421 11.5 4.75V2.75C11.5 2.33579 11.8358 2 12.25 2ZM7.21967 3.71967C7.51256 3.42678 7.98744 3.42678 8.28033 3.71967L9.78033 5.21967C10.0732 5.51256 10.0732 5.98744 9.78033 6.28033C9.48744 6.57322 9.01256 6.57322 8.71967 6.28033L7.21967 4.78033C6.92678 4.48744 6.92678 4.01256 7.21967 3.71967ZM17.2803 3.71967C17.5732 4.01256 17.5732 4.48744 17.2803 4.78033L15.7803 6.28033C15.4874 6.57322 15.0126 6.57322 14.7197 6.28033C14.4268 5.98744 14.4268 5.51256 14.7197 5.21967L16.2197 3.71967C16.5126 3.42678 16.9874 3.42678 17.2803 3.71967Z" fill="#141B34"/>
</svg>
