<svg width="25" height="24" viewBox="0 0 25 24" fill="none" xmlns="http://www.w3.org/2000/svg">
<path d="M18.2402 16.75C16.8595 16.75 15.7402 17.8693 15.7402 19.25C15.7402 20.6307 16.8595 21.75 18.2402 21.75C19.6209 21.75 20.7402 20.6307 20.7402 19.25C20.7402 17.8693 19.6209 16.75 18.2402 16.75Z" fill="#141B34"/>
<path d="M6.24023 16.75C4.85952 16.75 3.74023 17.8693 3.74023 19.25C3.74023 20.6307 4.85952 21.75 6.24023 21.75C7.62095 21.75 8.74023 20.6307 8.74023 19.25C8.74023 17.8693 7.62095 16.75 6.24023 16.75Z" fill="#141B34"/>
<path fill-rule="evenodd" clip-rule="evenodd" d="M18.2402 4.25025H17.5495L20.205 13.9871C20.2082 13.9988 20.2111 14.0104 20.2139 14.0221C21.6625 14.6742 22.7889 15.9493 22.9543 17.8323C22.9748 18.0472 23.0201 18.5233 22.9497 18.8884C22.9084 19.1032 22.8157 19.3863 22.5884 19.6205C22.5452 19.665 22.4995 19.7053 22.4517 19.7415C22.2814 19.8704 22.1963 19.9348 22.0841 19.8764C21.9719 19.818 21.9772 19.6757 21.9876 19.3911C21.9894 19.3444 21.9902 19.2976 21.9902 19.2505C21.9902 17.1794 20.3113 15.5005 18.2402 15.5005C16.1692 15.5005 14.4902 17.1794 14.4902 19.2505C14.4902 19.3393 14.4933 19.4273 14.4994 19.5145C14.5159 19.7524 14.5242 19.8714 14.465 19.935C14.4057 19.9985 14.2959 19.9986 14.0762 19.9988L10.4049 20.0024C10.1846 20.0026 10.0745 20.0027 10.0151 19.9391C9.95569 19.8755 9.96408 19.7562 9.98087 19.5176C9.98708 19.4293 9.99024 19.3403 9.99024 19.2505C9.99024 17.1794 8.3113 15.5005 6.24024 15.5005C4.16917 15.5005 2.49024 17.1794 2.49024 19.2505C2.49024 19.5321 2.49024 19.6729 2.39494 19.7314C2.38101 19.74 2.3608 19.7489 2.34507 19.7534C2.23752 19.784 2.15774 19.7109 1.99818 19.5646C1.93752 19.509 1.87968 19.4463 1.82587 19.3756C1.58007 19.0528 1.49024 18.6574 1.49024 18.2451L1.49024 16.0464C1.49021 15.2261 1.49019 14.5411 1.55837 13.9934C1.63017 13.4166 1.78759 12.8902 2.17768 12.4491C2.48523 12.1013 2.85739 11.8821 3.24023 11.7433V4.25025H2.24023C1.68795 4.25025 1.24023 3.80254 1.24023 3.25025C1.24023 2.69797 1.68795 2.25025 2.24023 2.25025H16.2185C16.2334 2.24992 16.2483 2.24992 16.2631 2.25025H18.2402C18.7925 2.25025 19.2402 2.69797 19.2402 3.25025C19.2402 3.80254 18.7925 4.25025 18.2402 4.25025ZM8.23608 11.6849C8.22026 10.8307 8.14543 9.87732 7.79863 9.08695C7.57089 8.56792 7.21392 8.08483 6.66544 7.74173C6.24955 7.48159 5.77075 7.33143 5.24023 7.27542V4.25025H15.4764L18.0035 13.5162C17.9297 13.5135 17.8558 13.5122 17.7819 13.5122H16.9502L15.527 11.3774L15.9473 10.9571C16.3379 10.5666 16.3379 9.93342 15.9473 9.54289C15.5568 9.15237 14.9237 9.15237 14.5331 9.54289L13.5462 10.5298C13.5368 10.5389 13.5276 10.5481 13.5185 10.5575L12.5331 11.5429C12.1426 11.9334 12.1426 12.5666 12.5331 12.9571C12.9237 13.3476 13.5568 13.3476 13.9473 12.9571L14.0848 12.8196L15.1724 14.451L15.1062 14.5458C14.9466 14.7703 14.8085 14.9501 14.6666 15.0955C14.4109 15.3574 14.1524 15.5032 13.73 15.5032H11.6178C10.9529 15.5032 10.6715 15.2906 10.614 15.1842C10.5775 15.0969 10.3796 14.5198 10.3584 14.458L10.3565 14.4526L10.3544 14.4469C10.1505 13.9051 9.97763 13.4461 9.79625 13.0823C9.6029 12.6945 9.3722 12.3551 9.02174 12.0871C8.77268 11.8966 8.50426 11.7697 8.23608 11.6849ZM6.22989 11.5134C6.20689 10.8226 6.13926 10.2827 5.96718 9.89056C5.86748 9.66333 5.74823 9.52705 5.6048 9.43733C5.52199 9.38553 5.40572 9.33348 5.24023 9.29744V11.5029C5.60799 11.5026 5.98166 11.508 6.22989 11.5134Z" fill="#141B34"/>
</svg>
