<svg width="24" height="24" viewBox="0 0 24 24" fill="none" xmlns="http://www.w3.org/2000/svg">
<path d="M5.98816 3.26631C5.5829 3.8252 5.70745 4.6068 6.26634 5.01205L14.5969 11.0526C15.1362 11.4436 15.4605 11.7232 15.6434 11.9315C15.6662 11.9575 15.685 11.9804 15.7004 12.0001C15.685 12.0198 15.6662 12.0426 15.6434 12.0687C15.4605 12.277 15.1362 12.5565 14.5969 12.9476L6.26634 18.9881C5.70745 19.3934 5.5829 20.175 5.98816 20.7339C6.39341 21.2928 7.17501 21.4173 7.7339 21.0121L16.0645 14.9715C16.6381 14.5556 17.1486 14.1435 17.5222 13.7179C17.8967 13.2913 18.2501 12.7189 18.2501 12.0001C18.2501 11.2813 17.8967 10.7089 17.5222 10.2823C17.1486 9.85665 16.6381 9.44459 16.0645 9.02865L7.7339 2.98813C7.17501 2.58287 6.39341 2.70742 5.98816 3.26631Z" fill="#141B34"/>
</svg>
