<svg width="24" height="24" viewBox="0 0 24 24" fill="none" xmlns="http://www.w3.org/2000/svg">
<path d="M12.4092 1.25C12.9495 1.24999 13.4063 1.24997 13.7825 1.28535C14.1801 1.32274 14.5518 1.40395 14.9041 1.60494C15.2622 1.80918 15.5118 2.08651 15.7262 2.40997C15.923 2.70695 16.1148 3.08309 16.3336 3.51207L16.3336 3.5121L17.7717 6.33156C18.1358 7.04515 18.4507 7.66235 18.6137 8.17067C18.7873 8.71234 18.8551 9.33462 18.4445 9.89492C18.0566 10.4241 17.4554 10.5991 16.8741 10.6751C16.301 10.7501 15.5496 10.75 14.6478 10.75H9.3523C8.45046 10.75 7.69907 10.7501 7.126 10.6751C6.54467 10.5991 5.94348 10.4241 5.55565 9.89492C5.14501 9.33462 5.21276 8.71234 5.38645 8.17067C5.54946 7.66235 5.86432 7.04516 6.22837 6.33157L6.25756 6.27434L7.64917 3.54605L7.66651 3.51207L7.66651 3.51206C7.88529 3.08308 8.07711 2.70695 8.27391 2.40996C8.48826 2.08651 8.73794 1.80918 9.09599 1.60494C9.44832 1.40395 9.82 1.32274 10.2176 1.28535C10.5938 1.24997 11.0506 1.24999 11.591 1.25H11.591H12.4091H12.4092Z" fill="#141B34"/>
<path fill-rule="evenodd" clip-rule="evenodd" d="M12 9C12.5523 9 13 9.44772 13 10V19C13 19.5523 12.5523 20 12 20C11.4477 20 11 19.5523 11 19V10C11 9.44772 11.4477 9 12 9Z" fill="#141B34"/>
<path d="M12.0332 18.25C12.447 18.25 12.8098 18.25 13.1115 18.2793C13.4362 18.3109 13.7535 18.3809 14.0578 18.5596C14.1792 18.6308 14.2936 18.7133 14.3995 18.8059C14.6652 19.0381 14.832 19.317 14.9647 19.615C15.0879 19.8919 15.2026 20.2361 15.3335 20.6287L15.3335 20.6287L15.344 20.6602L15.5406 21.25H16C16.4142 21.25 16.75 21.5858 16.75 22C16.75 22.4142 16.4142 22.75 16 22.75H8C7.58579 22.75 7.25 22.4142 7.25 22C7.25 21.5858 7.58579 21.25 8 21.25H8.45943L8.65603 20.6602L8.66652 20.6287C8.79736 20.2361 8.91209 19.8919 9.03535 19.615C9.16799 19.317 9.33476 19.0381 9.60046 18.8059C9.70641 18.7133 9.82082 18.6308 9.94217 18.5596C10.2465 18.3809 10.5638 18.3109 10.8885 18.2793C11.1902 18.25 11.553 18.25 11.9668 18.25H11.9668H12.0332H12.0332Z" fill="#141B34"/>
<path fill-rule="evenodd" clip-rule="evenodd" d="M15.5 9C16.0523 9 16.5 9.44772 16.5 10V13C16.5 13.5523 16.0523 14 15.5 14C14.9477 14 14.5 13.5523 14.5 13V10C14.5 9.44772 14.9477 9 15.5 9Z" fill="#141B34"/>
</svg>
