<svg width="24" height="24" viewBox="0 0 24 24" fill="none" xmlns="http://www.w3.org/2000/svg">
<path d="M15.5798 9.787L19.8155 7.38697C20.1765 7.18242 20.3571 7.08014 20.5039 7.16109C20.6507 7.24203 20.6604 7.4448 20.6798 7.8503C20.7058 8.39687 20.72 8.03051 20.736 8.7797C20.7435 9.13208 20.7483 9.82737 20.7503 9.97991C20.7579 10.5398 21.1964 10.9999 21.7563 10.9999C22.2996 10.9999 22.7544 10.5658 22.7496 10.0225C22.7481 9.85578 22.7429 9.15382 22.734 8.73715L22.7324 8.66177C22.7012 7.19628 22.6753 6.98537 22.5047 6.00416C22.3229 4.9586 21.9641 4.08311 21.2146 3.33174C20.7913 2.90728 20.3249 2.6077 19.809 2.39389C19.7305 2.35104 19.6464 2.31873 19.5587 2.29811C19.2289 2.18184 18.8796 2.09616 18.5093 2.03176C17.5084 1.85765 16.2665 1.82652 14.7571 1.78868L14.6823 1.78681C12.7265 1.73773 11.2735 1.73774 9.3177 1.78681L9.24285 1.78869C7.73349 1.82652 6.49161 1.85765 5.49064 2.03175C4.42828 2.21654 3.53876 2.57641 2.78536 3.33174C2.0359 4.08311 1.67705 4.9586 1.49526 6.00416C1.32465 6.98538 1.29883 8.19623 1.26758 9.66175L1.26597 9.73714C1.24467 10.7351 1.24468 11.265 1.26599 12.2629L1.2676 12.3383C1.29884 13.8038 1.32466 15.0146 1.49527 15.9959C1.67707 17.0414 2.03592 17.9169 2.78537 18.6683C3.53878 19.4236 4.42829 19.7835 5.49066 19.9683C6.49162 20.1424 7.7335 20.1735 9.24286 20.2113L9.31772 20.2132C9.99929 20.2303 10.1057 20.2414 11.0021 20.2466C11.5532 20.2498 11.9998 19.8032 11.9998 19.252C11.9998 18.7008 11.5532 18.2538 11.002 18.2506C10.1199 18.2454 10.034 18.2345 9.36791 18.2178C7.76497 18.1776 6.67174 18.1476 5.83355 18.0018C5.04027 17.8638 4.5781 17.6374 4.20122 17.2595C3.82038 16.8777 3.59776 16.4218 3.46432 15.6543C3.32261 14.8393 3.29736 13.7803 3.26405 12.2203C3.24334 11.2508 3.24333 10.7492 3.26403 9.7797C3.28003 9.03061 3.29416 8.39704 3.32023 7.85053C3.33957 7.44501 3.34924 7.24225 3.49608 7.1613C3.64292 7.08035 3.82343 7.18263 4.18445 7.38719L8.41985 9.787C9.71946 10.5234 10.8186 11 11.9998 11C13.181 11 14.2801 10.5234 15.5798 9.787Z" fill="#141B34"/>
<path fill-rule="evenodd" clip-rule="evenodd" d="M21 15.2492V14.1875C21 12.8158 19.8548 11.75 18.5 11.75C17.1452 11.75 16 12.8158 16 14.1875V15.2492C15.9249 15.272 15.8502 15.2993 15.7761 15.3322C15.1559 15.6074 14.6789 16.1277 14.4337 16.762C14.3278 17.036 14.2871 17.3173 14.2682 17.6139C14.25 17.8994 14.25 18.2471 14.25 18.6639V18.7111C14.25 19.1278 14.25 19.4756 14.2682 19.7611C14.2871 20.0577 14.3278 20.339 14.4337 20.613C14.6789 21.2474 15.1559 21.7676 15.7761 22.0428C16.0484 22.1637 16.3272 22.2093 16.6128 22.2302C16.8844 22.25 17.2134 22.25 17.5989 22.25H19.4011C19.7866 22.25 20.1156 22.25 20.3872 22.2302C20.6728 22.2093 20.9516 22.1637 21.2239 22.0428C21.8441 21.7676 22.3211 21.2474 22.5663 20.613C22.6722 20.339 22.7129 20.0577 22.7318 19.7611C22.75 19.4756 22.75 19.1279 22.75 18.7111V18.6639C22.75 18.2472 22.75 17.8994 22.7318 17.6139C22.7129 17.3173 22.6722 17.036 22.5663 16.762C22.3211 16.1277 21.8441 15.6074 21.2239 15.3322C21.1498 15.2993 21.0751 15.272 21 15.2492ZM17.5 14.1875C17.5 13.6952 17.9218 13.25 18.5 13.25C19.0782 13.25 19.5 13.6952 19.5 14.1875V15.125H17.5V14.1875Z" fill="#141B34"/>
</svg>
