<svg width="24" height="24" viewBox="0 0 24 24" fill="none" xmlns="http://www.w3.org/2000/svg">
<path fill-rule="evenodd" clip-rule="evenodd" d="M7.13718 1.25001C7.15465 1.25001 7.17213 1.25001 7.18962 1.25001H12.8084C12.8259 1.25001 12.8434 1.25001 12.8609 1.25001C13.2566 1.24992 13.6453 1.24984 13.9666 1.29213C14.332 1.34021 14.7486 1.45785 15.0925 1.7945C15.4163 2.11146 15.5582 2.55295 15.6307 2.86788C15.7126 3.22385 15.749 3.62047 15.749 4C15.749 4.37953 15.7126 4.77615 15.6307 5.13212C15.5582 5.44705 15.4163 5.88854 15.0925 6.2055C14.7486 6.54215 14.332 6.65979 13.9666 6.70787C13.6453 6.75016 13.2566 6.75008 12.8609 6.74999C12.8434 6.74999 12.8259 6.74999 12.8084 6.74999H7.18962C7.17213 6.74999 7.15465 6.74999 7.13718 6.74999C6.74143 6.75008 6.35275 6.75016 6.03143 6.70787C5.66606 6.65979 5.24947 6.54215 4.90555 6.2055C4.58174 5.88854 4.43983 5.44705 4.36734 5.13212C4.28541 4.77615 4.24902 4.37953 4.24902 4C4.24902 3.62047 4.28541 3.22385 4.36734 2.86788C4.43983 2.55295 4.58174 2.11146 4.90555 1.7945C5.24947 1.45785 5.66606 1.34021 6.03143 1.29213C6.35275 1.24984 6.74143 1.24992 7.13718 1.25001ZM6.28216 3.10977C6.26994 3.14465 6.25478 3.19431 6.23918 3.26208C6.19324 3.46164 6.16569 3.72227 6.16569 4C6.16569 4.27773 6.19324 4.53836 6.23918 4.73792C6.25478 4.80569 6.26994 4.85535 6.28216 4.89023C6.28554 4.8907 6.28904 4.89118 6.29268 4.89166C6.46721 4.91462 6.72045 4.91666 7.18962 4.91666H12.8084C13.2776 4.91666 13.5308 4.91462 13.7054 4.89166C13.709 4.89118 13.7125 4.8907 13.7159 4.89023C13.7281 4.85535 13.7433 4.80569 13.7589 4.73792C13.8048 4.53836 13.8324 4.27773 13.8324 4C13.8324 3.72227 13.8048 3.46164 13.7589 3.26208C13.7433 3.19431 13.7281 3.14465 13.7159 3.10977C13.7125 3.1093 13.709 3.10882 13.7054 3.10834C13.5308 3.08538 13.2776 3.08334 12.8084 3.08334H7.18962C6.72045 3.08334 6.46721 3.08538 6.29268 3.10834C6.28904 3.10882 6.28554 3.1093 6.28216 3.10977Z" fill="#141B34"/>
<path d="M17.9486 14.4396C18.1599 14.1817 18.2655 14.0528 18.2276 13.9055C18.1897 13.7582 18.0475 13.7014 17.7631 13.5877C15.8904 12.8393 13.6725 13.347 12.3266 14.99C10.9807 16.633 10.9194 18.9074 12.0218 20.5961C12.1892 20.8526 12.2729 20.9808 12.4248 20.989C12.5767 20.9972 12.6823 20.8682 12.8936 20.6103L17.9486 14.4396Z" fill="#141B34"/>
<path d="M19.1088 15.3904C19.3201 15.1324 19.4258 15.0035 19.5777 15.0117C19.7296 15.0199 19.8133 15.1482 19.9806 15.4047C21.0825 17.0933 21.0211 19.3673 19.6754 21.0101C18.3297 22.6528 16.1122 23.1606 14.2397 22.4127C13.9553 22.299 13.8131 22.2422 13.7751 22.0949C13.7372 21.9476 13.8428 21.8187 14.0541 21.5607L19.1088 15.3904Z" fill="#141B34"/>
<path d="M5.32822 6.33541L5.21967 6.11833C5.02509 5.72915 4.92779 5.53456 5.01573 5.39228C5.10366 5.25 5.32122 5.25 5.75633 5.25H14.2417C14.6769 5.25 14.8944 5.25 14.9823 5.39228C15.0703 5.53456 14.973 5.72915 14.7784 6.11833L14.6699 6.33541C14.4968 6.68154 14.4381 6.80153 14.3976 6.9126C14.1681 7.54218 14.2311 8.24131 14.5696 8.81968C14.6293 8.92171 14.7085 9.02926 14.9407 9.33885L15.3868 9.93372C15.7962 10.4794 16.0601 10.8312 16.2542 11.2223C16.2981 11.311 16.3201 11.3553 16.3275 11.3993C16.3516 11.5435 16.2631 11.6891 16.1239 11.7341C16.0815 11.7478 16.0181 11.749 15.8913 11.7513C14.1219 11.7829 12.3767 12.5617 11.1662 14.0394C9.39381 16.203 9.31599 19.1953 10.7657 21.4161C10.7949 21.4686 10.8299 21.5275 10.8705 21.5914C11.2297 22.1561 11.4093 22.4384 11.3239 22.594C11.2385 22.7496 10.9381 22.7497 10.3373 22.75C10.2441 22.75 10.1497 22.75 10.0539 22.75C8.68631 22.75 7.47425 22.75 6.60728 22.6335C5.70718 22.5125 4.9493 22.2536 4.34738 21.6516C3.74547 21.0497 3.48657 20.2919 3.36556 19.3918C3.249 18.5248 3.24901 17.4225 3.24904 16.0549L3.24903 14.0204C3.24894 13.3382 3.24888 12.8984 3.32832 12.4691C3.40841 12.0362 3.54828 11.6166 3.74391 11.2223C3.93796 10.8312 4.20186 10.4794 4.61122 9.93374L5.05739 9.33885C5.28959 9.02926 5.3688 8.92171 5.42851 8.81968C5.76696 8.24131 5.83 7.54218 5.60047 6.91259C5.55998 6.80154 5.50128 6.68153 5.32822 6.33541Z" fill="#141B34"/>
</svg>
