<svg width="24" height="24" viewBox="0 0 24 24" fill="none" xmlns="http://www.w3.org/2000/svg">
<path fill-rule="evenodd" clip-rule="evenodd" d="M12 1.24998C6.06296 1.24998 1.25002 6.06292 1.25002 12C1.25002 13.4809 1.54989 14.8937 2.09293 16.1794C2.23539 16.5167 2.33142 16.7447 2.39557 16.9198C2.46099 17.0985 2.47018 17.1631 2.47134 17.1797C2.47783 17.2736 2.45407 17.4013 2.29192 18.0074L1.2755 21.8061C1.20627 22.0649 1.28029 22.3409 1.46969 22.5303C1.65909 22.7197 1.93512 22.7937 2.19387 22.7245L5.99264 21.7081C6.59867 21.5459 6.72635 21.5222 6.82026 21.5287C6.83692 21.5298 6.90154 21.539 7.08019 21.6044C7.25534 21.6686 7.48326 21.7646 7.82056 21.9071C9.10634 22.4501 10.5191 22.75 12 22.75C17.9371 22.75 22.75 17.937 22.75 12C22.75 6.06292 17.9371 1.24998 12 1.24998ZM13.7007 14.6584C14.0649 14.6584 14.3662 14.5347 14.6095 14.3766C14.692 14.323 14.7332 14.2963 14.8836 14.147C15.0341 13.9976 15.1034 13.8932 15.2419 13.6844L17.9321 9.62857C18.0414 9.46368 18.0165 9.24148 17.8735 9.10636C17.7252 8.96624 17.4975 8.96432 17.347 9.10191L14.3658 11.8271C13.9948 12.1662 13.4375 12.1344 13.1194 11.7428L12.4485 10.9169L12.4115 10.8713L12.4115 10.8713L12.4115 10.8713C12.1192 10.5113 11.8385 10.1657 11.577 9.91839C11.2963 9.65284 10.8769 9.34155 10.2993 9.34155C9.93511 9.34155 9.6338 9.46535 9.39049 9.6234C9.30804 9.67696 9.26682 9.70374 9.11639 9.85305C8.96596 10.0024 8.8967 10.1068 8.75817 10.3156L6.06795 14.3714C5.95857 14.5363 5.98349 14.7585 6.12649 14.8936C6.27478 15.0337 6.50245 15.0356 6.65296 14.8981L9.63426 12.1729C10.0052 11.8338 10.5626 11.8656 10.8807 12.2572L11.5516 13.0831L11.5886 13.1287C11.8809 13.4887 12.1615 13.8343 12.423 14.0816C12.7038 14.3472 13.1231 14.6584 13.7007 14.6584Z" fill="#141B34"/>
</svg>
