<svg width="24" height="24" viewBox="0 0 24 24" fill="none" xmlns="http://www.w3.org/2000/svg">
<path fill-rule="evenodd" clip-rule="evenodd" d="M11.25 1.50842C11.25 1.38674 11.1218 1.31033 11.0189 1.37527C10.7541 1.5424 10.4125 1.8041 10.0477 2.0836L10.0477 2.08362C9.05524 2.84398 8.09312 3.31591 7.16058 3.53151C6.79519 3.61597 6.45376 3.69489 6.20819 3.77114C5.96474 3.84673 5.68142 3.95575 5.4541 4.16925C5.24882 4.36205 5.12691 4.58659 5.03645 4.80392C4.95375 5.00263 4.86911 5.27391 4.78707 5.53684C3.62551 9.25865 3.39436 12.8032 4.32473 15.7514C5.26564 18.733 7.37611 21.0376 10.7309 22.2483C11.1427 22.3972 11.5278 22.5364 12.0019 22.5364C12.4759 22.5364 12.861 22.3972 13.2727 22.2483C16.6274 21.0375 18.7368 18.7328 19.6766 15.7512C20.6058 12.8031 20.3737 9.25866 19.2124 5.53706C19.1304 5.2741 19.0458 5.00278 18.9631 4.80406C18.8726 4.58671 18.7507 4.36214 18.5454 4.16932C18.3181 3.9558 18.0348 3.84677 17.7913 3.77117C17.5457 3.69491 17.2042 3.61597 16.8388 3.53149C15.9068 3.316 14.9457 2.84447 13.9552 2.08495C13.5903 1.80512 13.2487 1.54316 12.9839 1.37583C12.8797 1.31004 12.75 1.3874 12.75 1.51058V4.62767C12.75 4.77789 12.75 4.853 12.7714 4.90655C12.7905 4.95447 12.8037 4.97419 12.8406 5.0102C12.8819 5.05044 12.9778 5.09017 13.1697 5.16964C13.5985 5.34725 13.9392 5.68793 14.1168 6.11673C14.199 6.31524 14.2266 6.51058 14.2387 6.68822C14.25 6.85354 14.25 7.05039 14.25 7.26467V8.30819C14.25 8.52246 14.25 8.71931 14.2387 8.88464C14.2266 9.06228 14.199 9.25762 14.1168 9.45612C13.9392 9.88492 13.5985 10.2256 13.1697 10.4032C12.9778 10.4827 12.8819 10.5224 12.8406 10.5627C12.8037 10.5987 12.7905 10.6184 12.7714 10.6663C12.75 10.7199 12.75 10.795 12.75 10.9452V11.7864C12.75 12.2006 12.4142 12.5364 12 12.5364C11.5858 12.5364 11.25 12.2006 11.25 11.7864V10.9452C11.25 10.795 11.25 10.7199 11.2286 10.6663C11.2095 10.6184 11.1963 10.5987 11.1594 10.5627C11.1181 10.5224 11.0222 10.4827 10.8303 10.4032C10.4015 10.2256 10.0608 9.88492 9.88321 9.45612C9.80099 9.25762 9.77338 9.06228 9.76126 8.88464C9.74998 8.71931 9.74999 8.52247 9.75 8.3082V8.30819V8.30818L9.75 7.28643L9.75 7.26467V7.26467V7.26466C9.74999 7.05039 9.74998 6.85354 9.76126 6.68822C9.77338 6.51058 9.80099 6.31524 9.88321 6.11673C10.0608 5.68793 10.4015 5.34725 10.8303 5.16964C11.0222 5.09017 11.1181 5.05044 11.1594 5.0102C11.1963 4.9742 11.2095 4.95447 11.2286 4.90655C11.25 4.853 11.25 4.77789 11.25 4.62767V1.50842ZM12.4961 9.02865C12.3885 9.036 12.2442 9.03643 12.0024 9.03643L12 9.03643L11.9983 9.03643C11.7561 9.03643 11.6117 9.036 11.5039 9.02865C11.4809 9.02709 11.4625 9.02534 11.4479 9.02364C11.4376 9.02244 11.4324 9.02183 11.3985 9.00928C11.3647 8.99673 11.3631 8.99565 11.3599 8.99351C11.3335 8.97565 11.3108 8.95289 11.2929 8.92648C11.2908 8.92331 11.2897 8.92173 11.2771 8.88789C11.2646 8.85405 11.264 8.84888 11.2628 8.83854C11.2611 8.82394 11.2593 8.80551 11.2578 8.78253C11.2504 8.67452 11.25 8.52966 11.25 8.28643V7.28643C11.25 7.0432 11.2504 6.89833 11.2578 6.79033C11.2593 6.76735 11.2611 6.74891 11.2628 6.73431C11.264 6.72397 11.2646 6.7188 11.2771 6.68497C11.2897 6.65113 11.2908 6.64954 11.2929 6.64638C11.3108 6.61996 11.3335 6.5972 11.3599 6.57934C11.3631 6.5772 11.3647 6.57613 11.3985 6.56357C11.4324 6.55102 11.4376 6.55042 11.4479 6.54922C11.4625 6.54752 11.4809 6.54577 11.5039 6.5442C11.6119 6.53683 11.7568 6.53643 12 6.53643C12.2432 6.53643 12.3881 6.53683 12.4961 6.5442C12.5191 6.54577 12.5375 6.54752 12.5521 6.54922C12.5625 6.55042 12.5676 6.55102 12.6015 6.56357C12.6353 6.57612 12.6369 6.5772 12.6401 6.57934C12.6665 6.59719 12.6892 6.61994 12.7071 6.64634C12.7092 6.64952 12.7103 6.65111 12.7229 6.68496C12.7354 6.71881 12.736 6.72399 12.7372 6.73435C12.7389 6.74895 12.7407 6.76737 12.7422 6.79033C12.7496 6.89833 12.75 7.0432 12.75 7.28643V8.28643C12.75 8.52966 12.7496 8.67452 12.7422 8.78253C12.7407 8.8055 12.7389 8.82393 12.7372 8.83853C12.736 8.84888 12.7354 8.85405 12.7229 8.88789C12.7103 8.92173 12.7092 8.92332 12.7071 8.92649C12.6892 8.95289 12.6665 8.97564 12.6401 8.9935C12.6369 8.99565 12.6353 8.99672 12.6015 9.00928C12.5676 9.02184 12.5624 9.02244 12.5521 9.02364C12.5375 9.02534 12.5191 9.02709 12.4961 9.02865ZM10.1067 16.3454C9.86309 16.0104 9.39404 15.9363 9.05901 16.1799C8.72399 16.4234 8.64986 16.8925 8.89344 17.2275C9.43437 17.9715 10.0932 18.5974 10.8841 19.0666L10.9253 19.0911C11.2049 19.2577 11.5174 19.4438 12.0001 19.4438C12.4827 19.4438 12.7952 19.2577 13.0748 19.0911L13.116 19.0666C13.907 18.5974 14.5657 17.9715 15.1067 17.2275C15.3502 16.8925 15.2761 16.4234 14.9411 16.1799C14.6061 15.9363 14.137 16.0104 13.8934 16.3454C13.4596 16.9422 12.9481 17.4221 12.3506 17.7765C12.2714 17.8236 12.2152 17.8568 12.1658 17.8841C12.1178 17.9106 12.0892 17.9241 12.0705 17.9317C12.0542 17.9384 12.0466 17.9401 12.0426 17.9409C12.0383 17.9418 12.0262 17.9438 12.0001 17.9438C11.9739 17.9438 11.9618 17.9418 11.9575 17.9409C11.9535 17.9401 11.9459 17.9384 11.9296 17.9317C11.9109 17.9241 11.8823 17.9106 11.8343 17.8841C11.7849 17.8568 11.7287 17.8236 11.6495 17.7765C11.052 17.4221 10.5406 16.9422 10.1067 16.3454Z" fill="#141B34"/>
</svg>
