<svg width="24" height="24" viewBox="0 0 24 24" fill="none" xmlns="http://www.w3.org/2000/svg">
<path d="M10.6129 1.31012C10.9023 1.27383 11.047 1.25569 11.1485 1.34526C11.25 1.43483 11.25 1.58646 11.25 1.88972V4.82261C11.25 4.97287 11.25 5.04799 11.2286 5.10155C11.2095 5.14942 11.1964 5.1691 11.1595 5.20509C11.1182 5.24535 11.0222 5.28514 10.8303 5.36473C10.4015 5.54253 10.0608 5.88358 9.88321 6.31285C9.80099 6.51156 9.77338 6.70712 9.76126 6.88495C9.74998 7.05045 9.74999 7.2475 9.75 7.46199V9.50776C9.74999 9.72225 9.74998 9.91934 9.76126 10.0848C9.77338 10.2627 9.80099 10.4582 9.88321 10.6569C10.0608 11.0862 10.4015 11.4273 10.8303 11.6051C11.0288 11.6874 11.2242 11.715 11.4018 11.7271C11.5671 11.7384 11.764 11.7384 11.9782 11.7384H12.0218C12.236 11.7384 12.4329 11.7384 12.5982 11.7271C12.7759 11.715 12.9712 11.6874 13.1697 11.6051C13.5985 11.4273 13.9392 11.0862 14.1168 10.6569C14.199 10.4582 14.2266 10.2627 14.2387 10.0848C14.25 9.91933 14.25 9.72227 14.25 9.50776V7.46202C14.25 7.24752 14.25 7.05046 14.2387 6.88495C14.2266 6.70712 14.199 6.51156 14.1168 6.31285C13.9392 5.88358 13.5985 5.54253 13.1697 5.36473C12.9778 5.28514 12.8818 5.24535 12.8405 5.20508C12.8036 5.1691 12.7905 5.14942 12.7714 5.10155C12.75 5.04799 12.75 4.97287 12.75 4.82261V1.88973C12.75 1.58646 12.75 1.43483 12.8515 1.34526C12.953 1.25569 13.0977 1.27384 13.3871 1.31013C15.8485 1.61881 17.5508 2.77287 18.6373 4.52652C19.8751 6.52429 20.25 9.20093 20.25 11.9887C20.25 14.7764 19.8751 17.4531 18.6373 19.4508C17.3574 21.5166 15.2231 22.7503 12 22.7503C8.7768 22.7503 6.64252 21.5166 5.36262 19.4509C4.12483 17.4531 3.75 14.7764 3.75 11.9887C3.75 9.20092 4.12483 6.52428 5.36262 4.52652C6.44916 2.77285 8.15145 1.61878 10.6129 1.31012Z" fill="#141B34"/>
<path d="M11.4479 6.7462C11.4376 6.7474 11.4324 6.748 11.3985 6.76058C11.3647 6.77316 11.3631 6.77423 11.3599 6.77638C11.3335 6.79427 11.3107 6.81706 11.2929 6.84351C11.2907 6.84671 11.2896 6.8483 11.2771 6.88209C11.2646 6.91589 11.264 6.92107 11.2628 6.93143C11.2611 6.94605 11.2593 6.96453 11.2578 6.98757C11.2504 7.09569 11.25 7.24071 11.25 7.48421V9.48638C11.25 9.72988 11.2504 9.87489 11.2578 9.98302C11.2593 10.0061 11.2611 10.0246 11.2628 10.0392C11.264 10.0495 11.2646 10.0547 11.2771 10.0885C11.2896 10.1223 11.2907 10.1239 11.2929 10.1271C11.3107 10.1535 11.3335 10.1763 11.3599 10.1942C11.3631 10.1963 11.3647 10.1974 11.3985 10.21C11.4324 10.2226 11.4376 10.2232 11.448 10.2244C11.4625 10.2261 11.481 10.2278 11.5039 10.2294C11.6119 10.2368 11.7568 10.2372 12 10.2372C12.2432 10.2372 12.3881 10.2368 12.4961 10.2294C12.5191 10.2278 12.5375 10.2261 12.5521 10.2244C12.5624 10.2232 12.5676 10.2226 12.6015 10.21C12.6353 10.1974 12.6369 10.1964 12.6401 10.1942C12.6665 10.1763 12.6893 10.1535 12.7071 10.1271C12.7093 10.1239 12.7104 10.1223 12.7229 10.0885C12.7354 10.0547 12.736 10.0495 12.7372 10.0392C12.7389 10.0246 12.7407 10.0061 12.7422 9.98302C12.7496 9.87489 12.75 9.72988 12.75 9.48638V7.48421C12.75 7.24071 12.7496 7.09569 12.7422 6.98757C12.7407 6.96452 12.7389 6.94604 12.7372 6.93141C12.736 6.92106 12.7354 6.91588 12.7229 6.8821C12.7104 6.84832 12.7093 6.84672 12.7071 6.84353C12.6893 6.81707 12.6665 6.79427 12.6401 6.77637C12.6369 6.77423 12.6353 6.77316 12.6015 6.76058C12.5676 6.748 12.5624 6.7474 12.5521 6.7462C12.5375 6.7445 12.5191 6.74275 12.4961 6.74118C12.3881 6.7338 12.2432 6.7334 12 6.7334C11.7568 6.7334 11.6119 6.7338 11.5039 6.74118C11.4809 6.74275 11.4625 6.7445 11.4479 6.7462Z" fill="#141B34"/>
</svg>
