<svg width="24" height="24" viewBox="0 0 24 24" fill="none" xmlns="http://www.w3.org/2000/svg">
<path fill-rule="evenodd" clip-rule="evenodd" d="M4.35044 7.77401C4.32174 7.79096 4.1703 7.90406 3.98732 8.04259C4.33255 8.2718 4.90262 8.55067 5.72686 8.94271L8.64806 10.3321C10.5147 11.2199 11.239 11.5457 12 11.5457C12.761 11.5457 13.4853 11.2199 15.3519 10.3321L18.2731 8.94271C19.0974 8.55068 19.6674 8.2718 20.0127 8.04259C19.8297 7.90406 19.6783 7.79096 19.6496 7.77401C19.331 7.5859 18.8226 7.36842 18.0116 7.02534C17.5253 6.81962 17.3186 6.30224 17.5499 5.86974C17.7812 5.43723 18.3629 5.25338 18.8492 5.45909L18.9153 5.48705C19.6401 5.79361 20.2788 6.06373 20.7281 6.32909C21.174 6.59238 21.75 7.03217 21.75 7.75763L21.75 17.2103C21.75 18.3359 20.9408 19.0901 19.9311 19.7055C18.9125 20.3264 17.2009 21.0608 15.308 21.8729C13.8908 22.4815 12.9743 22.875 12 22.875C11.0257 22.875 10.1092 22.4815 8.69202 21.8729C6.79913 21.0608 5.08751 20.3264 4.0689 19.7055C3.05921 19.0901 2.25 18.3359 2.25 17.2103L2.25 7.75763C2.25 7.03217 2.826 6.59238 3.27186 6.32909C3.72124 6.06372 4.35993 5.79359 5.08479 5.48702L5.15082 5.45909C5.63709 5.25338 6.21879 5.43723 6.45008 5.86974C6.68137 6.30225 6.47466 6.81962 5.98838 7.02534C5.17738 7.36842 4.66899 7.5859 4.35044 7.77401ZM6.65435 12.7587C6.28029 12.5808 5.83283 12.7398 5.65491 13.1139C5.477 13.4879 5.63601 13.9354 6.01007 14.1133L8.00395 15.0617C8.37801 15.2396 8.82547 15.0806 9.00338 14.7065C9.1813 14.3325 9.02229 13.885 8.64823 13.7071L6.65435 12.7587Z" fill="#141B34"/>
<path fill-rule="evenodd" clip-rule="evenodd" d="M12.0001 1.125C12.5523 1.125 13.0001 1.57272 13.0001 2.125V4.125C13.0001 4.67728 12.5523 5.125 12.0001 5.125C11.4478 5.125 11.0001 4.67728 11.0001 4.125V2.125C11.0001 1.57272 11.4478 1.125 12.0001 1.125ZM7.40006 2.325C7.84189 1.99363 8.46869 2.08317 8.80006 2.525L10.3001 4.525C10.6314 4.96683 10.5419 5.59363 10.1001 5.925C9.65823 6.25637 9.03143 6.16683 8.70006 5.725L7.20006 3.725C6.86869 3.28317 6.95823 2.65637 7.40006 2.325ZM16.6001 2.325C17.0419 2.65637 17.1314 3.28317 16.8001 3.725L15.3001 5.725C14.9687 6.16683 14.3419 6.25637 13.9001 5.925C13.4582 5.59363 13.3687 4.96683 13.7001 4.525L15.2001 2.525C15.5314 2.08317 16.1582 1.99363 16.6001 2.325Z" fill="#141B34"/>
</svg>
