<svg width="24" height="24" viewBox="0 0 24 24" fill="none" xmlns="http://www.w3.org/2000/svg">
<path fill-rule="evenodd" clip-rule="evenodd" d="M12 1.25C10.4812 1.25 9.25 2.48122 9.25 4V6.55337C9.25 7.53787 8.60996 8.40804 7.67014 8.70126L6.8831 8.94682C5.31674 9.43552 4.25 10.8858 4.25 12.5266C4.25 13.4931 5.0335 14.2766 6 14.2766H19C19.9665 14.2766 20.75 13.4931 20.75 12.5266C20.75 10.8858 19.6833 9.43552 18.1169 8.94682L17.3299 8.70126C16.39 8.40804 15.75 7.53787 15.75 6.55337V4C15.75 2.48122 14.5188 1.25 13 1.25H12ZM6 15.7765H19C19.1284 15.7765 19.255 15.7691 19.3795 15.7546C19.6769 15.72 19.8256 15.7027 19.917 15.7631C20.0083 15.8234 20.0436 15.943 20.1142 16.1823C20.4828 17.4309 20.6396 18.7573 20.7095 19.824L20.7126 19.8711C20.7398 20.2847 20.7653 20.6739 20.7384 20.997C20.7079 21.3644 20.6041 21.7422 20.3004 22.0655C19.9944 22.3912 19.5276 22.5409 19.1667 22.6206C18.7653 22.7092 18.308 22.7493 17.8667 22.7499C17.4249 22.7504 16.9697 22.7114 16.5715 22.6272C16.2149 22.5518 15.7544 22.4112 15.4487 22.1064C15.1392 21.7977 15.0264 21.4222 14.9785 21.0668C14.9475 20.8369 14.6682 20.712 14.4805 20.8483C14.2083 21.046 13.9194 21.2223 13.6197 21.3792C12.3465 22.0458 10.8297 22.3921 9.41285 22.5683C7.9881 22.7454 6.6165 22.7561 5.60582 22.7236C5.09907 22.7073 4.67969 22.68 4.38554 22.6566C3.88039 22.5683 3.43409 22.4235 3.32299 22.1905C3.21188 21.9574 3.22848 21.6836 3.36692 21.4656C4.0635 20.369 4.57655 19.0547 4.89533 17.8496C5.03502 17.3215 5.13296 16.8314 5.19429 16.4034C5.24054 16.0805 5.26366 15.9191 5.34902 15.8457C5.43438 15.7723 5.6144 15.7736 5.97444 15.7764L6 15.7765Z" fill="#141B34"/>
</svg>
