<svg width="24" height="24" viewBox="0 0 24 24" fill="none" xmlns="http://www.w3.org/2000/svg">
<path fill-rule="evenodd" clip-rule="evenodd" d="M11.6525 1.81534C11.7667 1.75046 11.9052 1.75007 12.1823 1.74929L12.3881 1.74868C13.3696 1.74572 14.3524 1.74275 15.333 1.7799C15.7678 1.79638 15.9853 1.80462 16.0666 1.95555C16.148 2.10648 16.0338 2.29519 15.8055 2.67261L13.4793 6.51796L13.4793 6.51797C13.3368 6.75362 13.2655 6.87145 13.1512 6.93591C13.0368 7.00036 12.8991 7.00036 12.6237 7.00036H9.17267C8.85945 7.00036 8.70283 7.00036 8.64539 6.8989C8.58794 6.79744 8.66852 6.66315 8.82967 6.39456L11.325 2.23568C11.4672 1.9987 11.5383 1.88021 11.6525 1.81534ZM9.0907 1.87114C9.03003 1.76902 8.87165 1.77491 8.5549 1.78668C7.86371 1.81236 7.2436 1.85617 6.68802 1.93086C5.31137 2.11595 4.21911 2.50298 3.36091 3.36118C2.49797 4.22412 2.12446 5.37984 1.94949 6.55758C1.91938 6.76026 1.90433 6.8616 1.96417 6.93098C2.024 7.00036 2.12901 7.00036 2.33901 7.00036H5.59742C5.87539 7.00036 6.01438 7.00036 6.1294 6.93489C6.24441 6.86942 6.31537 6.74991 6.45728 6.51088L8.90681 2.38517C9.06985 2.11056 9.15137 1.97326 9.0907 1.87114ZM19.1711 2.39409C18.8653 2.26824 18.7124 2.20532 18.5375 2.26217C18.3627 2.31903 18.2656 2.47684 18.0714 2.79246L15.857 6.39072C15.691 6.66056 15.608 6.79548 15.6652 6.89792C15.7224 7.00036 15.8809 7.00036 16.1977 7.00036H21.661C21.871 7.00036 21.976 7.00036 22.0358 6.93098C22.0957 6.8616 22.0806 6.76026 22.0505 6.55758C21.8756 5.37984 21.502 4.22412 20.6391 3.36118C20.2103 2.93239 19.7231 2.62122 19.1711 2.39409ZM22.1183 9.11579C22.2352 9.23123 22.2374 9.41407 22.2419 9.77977C22.25 10.4441 22.25 11.1638 22.25 11.9429V11.9429V11.943V11.9431V12.0575C22.25 14.2482 22.25 15.9688 22.0694 17.3122C21.8843 18.6889 21.4973 19.7812 20.6391 20.6394C19.7809 21.4976 18.6886 21.8846 17.312 22.0697C15.9686 22.2503 14.2479 22.2503 12.0572 22.2503H11.9428C9.7521 22.2503 8.03144 22.2503 6.68802 22.0697C5.31137 21.8846 4.21911 21.4976 3.36091 20.6394C2.50272 19.7812 2.11568 18.6889 1.93059 17.3122C1.74998 15.9688 1.74999 14.2481 1.75 12.0574V11.9431V11.943C1.75 11.1639 1.74999 10.4442 1.75811 9.77977C1.76259 9.41407 1.76482 9.23123 1.88167 9.11579C1.99853 9.00036 2.18305 9.00036 2.5521 9.00036H21.4479C21.8169 9.00036 22.0015 9.00036 22.1183 9.11579ZM12.6539 16.8502C14.0857 15.9644 14.8016 15.5215 14.9531 14.8948C15.0156 14.6361 15.0156 14.3639 14.9531 14.1052C14.8016 13.4785 14.0857 13.0356 12.6539 12.1498C11.2697 11.2936 10.5777 10.8654 10.0199 11.0375C9.78934 11.1087 9.57925 11.2438 9.40982 11.4299C9 11.8802 9 12.7535 9 14.5C9 16.2465 9 17.1198 9.40982 17.57C9.57925 17.7562 9.78934 17.8913 10.0199 17.9625C10.5777 18.1346 11.2697 17.7064 12.6539 16.8502Z" fill="#141B34"/>
</svg>
