<svg width="24" height="24" viewBox="0 0 24 24" fill="none" xmlns="http://www.w3.org/2000/svg">
<path d="M12.0051 3C16.9724 3 21 7.02895 21 12C21 15.5612 18.933 18.6409 15.9299 20.1006C15.4332 20.342 15.2262 20.9404 15.4676 21.4371C15.7091 21.9339 16.3075 22.1408 16.8042 21.8994C20.47 20.1176 23 16.3552 23 12C23 5.92535 18.0779 1 12.0051 1C9.82695 1 7.79628 1.63426 6.08829 2.72723L4.87303 1.51197C4.65968 1.2797 4.37506 1 4 1C3.44772 1 3 1.44772 3 2V5.13219C3 6.35267 4.51712 6.91172 5.30883 5.99084C6.95707 4.15339 9.34588 3 12.0051 3Z" fill="#141B34"/>
<path fill-rule="evenodd" clip-rule="evenodd" d="M2.53776 7.70455C2.00634 7.55416 1.45364 7.86305 1.30325 8.39447C1.18011 8.82965 1.08357 9.26911 1.01273 9.71059C0.925231 10.2559 1.29636 10.7689 1.84167 10.8564C2.38698 10.9439 2.89997 10.5728 2.98747 10.0275C3.04617 9.66164 3.12604 9.29825 3.22768 8.93905C3.37807 8.40763 3.06918 7.85493 2.53776 7.70455ZM1.86159 12.5532C1.31764 12.6488 0.954171 13.1672 1.04976 13.7112C1.1262 14.1462 1.22573 14.5767 1.34748 15.0006C1.49994 15.5314 2.05385 15.8381 2.58468 15.6856C3.1155 15.5332 3.42222 14.9793 3.26976 14.4484C3.16735 14.0919 3.08374 13.7301 3.01958 13.365C2.92399 12.8211 2.40554 12.4576 1.86159 12.5532ZM3.27389 17.1673C2.816 17.4761 2.69514 18.0976 3.00393 18.5555C3.2632 18.9399 3.54451 19.3104 3.84697 19.6644C4.20576 20.0842 4.83699 20.1337 5.25685 19.7749C5.67672 19.4161 5.72622 18.7849 5.36742 18.365C5.11488 18.0695 4.87947 17.7596 4.6621 17.4372C4.35331 16.9793 3.73178 16.8585 3.27389 17.1673ZM6.56077 20.864C6.28643 21.3433 6.45259 21.9543 6.93192 22.2287C7.31958 22.4505 7.72316 22.6514 8.14182 22.829C8.65024 23.0447 9.23725 22.8074 9.45295 22.299C9.66865 21.7905 9.43136 21.2035 8.92294 20.9878C8.57788 20.8414 8.24517 20.6759 7.92542 20.4929C7.44609 20.2185 6.83512 20.3847 6.56077 20.864ZM14.1023 21.7752C14.0288 21.2279 13.5254 20.8438 12.9781 20.9173C12.5721 20.9718 12.1571 21.0001 11.7348 21.0001C11.1826 21.0001 10.7348 21.4478 10.7348 22.0001C10.7348 22.5524 11.1826 23.0001 11.7348 23.0001C12.2464 23.0001 12.7503 22.9659 13.2444 22.8995C13.7917 22.8259 14.1758 22.3226 14.1023 21.7752Z" fill="#141B34"/>
</svg>
