<svg width="24" height="24" viewBox="0 0 24 24" fill="none" xmlns="http://www.w3.org/2000/svg">
<path fill-rule="evenodd" clip-rule="evenodd" d="M11.2499 5.81449C11.2499 4.98094 11.1367 4.06512 10.6483 3.35701C10.1136 2.5817 9.2412 2.20473 8.0848 2.25448C6.24807 2.3335 4.58736 3.26563 3.32447 4.31751C2.12656 5.31528 1.50257 6.44125 1.31335 7.68854C1.12915 8.90267 1.36831 10.162 1.75113 11.4206C1.82631 11.6678 2.21794 11.6658 2.31671 11.427C2.46919 11.0585 2.66719 10.6762 2.91202 10.304C3.45456 9.47947 4.2574 8.65819 5.37494 8.12573C5.5632 8.03604 5.65733 7.99119 5.70365 7.91782C5.74996 7.84445 5.74996 7.74767 5.74996 7.55412V7.00012C5.74996 6.58591 6.08575 6.25012 6.49996 6.25012C6.91418 6.25012 7.24996 6.58591 7.24996 7.00012V7.43342C7.24996 7.65521 7.24996 7.76611 7.30943 7.84589C7.3689 7.92567 7.47961 7.95868 7.70104 8.02468C9.62532 8.59831 10.5251 9.46515 11.0141 9.95362C11.1056 10.0347 11.2499 9.96968 11.2499 9.84744V5.81449ZM11.2499 12.436C11.2499 12.303 11.2499 12.2365 11.2235 12.1778C11.1971 12.119 11.1473 12.075 11.0477 11.9868L10.0028 11.0617C9.99143 11.0516 9.98037 11.0412 9.96964 11.0305L9.95242 11.0132C9.53496 10.5955 8.7214 9.78129 6.69545 9.30959C6.61658 9.29123 6.57714 9.28204 6.53315 9.28482C6.48915 9.2876 6.45317 9.30093 6.38121 9.3276C5.36433 9.70439 4.64573 10.3981 4.16512 11.1285C3.61912 11.9584 3.42717 12.7628 3.42717 13.0825C3.42717 13.1015 3.42645 13.1205 3.42501 13.1394L3.20292 16.0532C3.19865 16.1092 3.19652 16.1372 3.19957 16.165C3.20263 16.1928 3.2108 16.2196 3.22715 16.2734L4.13529 19.2591C4.59187 20.7602 6.03289 21.75 7.62118 21.75C9.57921 21.75 11.2499 20.2502 11.2499 18.3003V12.436Z" fill="#141B34"/>
<path fill-rule="evenodd" clip-rule="evenodd" d="M12.7501 5.81449C12.7501 4.98094 12.8633 4.06512 13.3517 3.35701C13.8864 2.5817 14.7588 2.20473 15.9152 2.25448C17.7519 2.3335 19.4126 3.26563 20.6755 4.31751C21.8734 5.31528 22.4974 6.44125 22.6867 7.68854C22.8708 8.90267 22.6317 10.162 22.2489 11.4206C22.1737 11.6678 21.7821 11.6658 21.6833 11.427C21.5308 11.0585 21.3328 10.6762 21.088 10.304C20.5454 9.47947 19.7426 8.65819 18.6251 8.12573C18.4368 8.03604 18.3427 7.99119 18.2964 7.91782C18.25 7.84445 18.25 7.74767 18.25 7.55412V7.00012C18.25 6.58591 17.9143 6.25012 17.5 6.25012C17.0858 6.25012 16.75 6.58591 16.75 7.00012V7.43342C16.75 7.65521 16.75 7.76611 16.6906 7.84589C16.6311 7.92567 16.5204 7.95868 16.299 8.02468C14.3747 8.59831 13.4749 9.46515 12.9859 9.95362C12.8944 10.0347 12.7501 9.96968 12.7501 9.84744V5.81449ZM12.7501 12.436C12.7501 12.303 12.7501 12.2365 12.7765 12.1778C12.8029 12.119 12.8527 12.075 12.9523 11.9868L13.9972 11.0617C14.0086 11.0516 14.0196 11.0412 14.0304 11.0305L14.0476 11.0132C14.465 10.5955 15.2786 9.78129 17.3045 9.30959C17.3834 9.29123 17.4229 9.28204 17.4669 9.28482C17.5109 9.2876 17.5468 9.30093 17.6188 9.3276C18.6357 9.70439 19.3543 10.3981 19.8349 11.1285C20.3809 11.9584 20.5728 12.7628 20.5728 13.0825C20.5728 13.1015 20.5735 13.1205 20.575 13.1394L20.7971 16.0532C20.8013 16.1092 20.8035 16.1372 20.8004 16.165C20.7974 16.1928 20.7892 16.2196 20.7728 16.2734L19.8647 19.2591C19.4081 20.7602 17.9671 21.75 16.3788 21.75C14.4208 21.75 12.7501 20.2502 12.7501 18.3003V12.436Z" fill="#141B34"/>
</svg>
