<svg width="24" height="24" viewBox="0 0 24 24" fill="none" xmlns="http://www.w3.org/2000/svg">
<path fill-rule="evenodd" clip-rule="evenodd" d="M15.7801 12.7576C15.914 12.2218 16.457 11.896 16.9928 12.03C17.1283 12.0639 17.2624 12.097 17.3944 12.1297C17.9094 12.2571 18.3935 12.3768 18.8163 12.5024C19.3484 12.6605 19.8684 12.851 20.315 13.1353C20.7841 13.4338 21.168 13.833 21.4194 14.3806C21.6615 14.9077 21.7502 15.5063 21.7502 16.1624V21.0001C21.7502 21.5524 21.3025 22.0001 20.7502 22.0001C20.198 22.0001 19.7502 21.5524 19.7502 21.0001V16.1624C19.7502 15.6727 19.6816 15.3888 19.6019 15.2152C19.5316 15.062 19.4294 14.9423 19.2411 14.8224C19.0303 14.6883 18.7216 14.5607 18.2468 14.4196C17.8726 14.3085 17.4481 14.2034 16.9404 14.0777C16.8025 14.0436 16.6585 14.008 16.5077 13.9703C15.9719 13.8363 15.6461 13.2934 15.7801 12.7576Z" fill="#141B34"/>
<path fill-rule="evenodd" clip-rule="evenodd" d="M8.22014 12.7576C8.35409 13.2934 8.02833 13.8363 7.49254 13.9703C7.34173 14.008 7.19772 14.0436 7.05983 14.0777C6.55214 14.2034 6.1276 14.3085 5.75345 14.4196C5.27864 14.5607 4.96995 14.6883 4.75918 14.8224C4.57085 14.9423 4.46866 15.062 4.39834 15.2152C4.31863 15.3888 4.25 15.6727 4.25 16.1624V21.0001C4.25 21.5524 3.80228 22.0001 3.25 22.0001C2.69772 22.0001 2.25 21.5524 2.25 21.0001V16.1624C2.25 15.5063 2.33877 14.9077 2.58079 14.3806C2.83222 13.833 3.21613 13.4338 3.6852 13.1353C4.13182 12.851 4.65183 12.6605 5.18397 12.5024C5.60676 12.3768 6.09085 12.2571 6.60581 12.1297C6.73784 12.097 6.87189 12.0639 7.00746 12.03C7.54326 11.896 8.08619 12.2218 8.22014 12.7576Z" fill="#141B34"/>
<path fill-rule="evenodd" clip-rule="evenodd" d="M1 21.75C1 21.1977 1.44772 20.75 2 20.75H22C22.5523 20.75 23 21.1977 23 21.75C23 22.3023 22.5523 22.75 22 22.75H2C1.44772 22.75 1 22.3023 1 21.75Z" fill="#141B34"/>
<path fill-rule="evenodd" clip-rule="evenodd" d="M11.2094 6.64515C11.4371 6.53074 11.6948 6.43872 12 6.43872C12.3052 6.43872 12.5629 6.53074 12.7906 6.64515C12.9947 6.74768 13.2208 6.89305 13.46 7.04688L13.46 7.04689L15.5966 8.42039C16.022 8.69387 16.3844 8.92678 16.6677 9.14926C16.9696 9.38634 17.2259 9.64423 17.4137 9.98833C17.6016 10.3324 17.6799 10.6875 17.7161 11.0696C17.75 11.4282 17.75 11.859 17.75 12.3647V21.9999C17.75 22.4141 17.4142 22.7499 17 22.7499H14.5V18C14.5 16.6193 13.3807 15.5 12 15.5C10.6193 15.5 9.5 16.6193 9.5 18V22.7499H7C6.58579 22.7499 6.25 22.4141 6.25 21.9999V12.3647V12.3647C6.24999 11.8589 6.24997 11.4282 6.28391 11.0696C6.32008 10.6875 6.39843 10.3324 6.58629 9.98833C6.77416 9.64423 7.03042 9.38634 7.33233 9.14926C7.61565 8.92678 7.97798 8.69387 8.40342 8.4204L10.54 7.04688C10.7792 6.89305 11.0053 6.74768 11.2094 6.64515ZM12 11.5C11.4477 11.5 11 11.9477 11 12.5C11 13.0523 11.4477 13.5 12 13.5H12.009C12.5613 13.5 13.009 13.0523 13.009 12.5C13.009 11.9477 12.5613 11.5 12.009 11.5H12Z" fill="#141B34"/>
<path fill-rule="evenodd" clip-rule="evenodd" d="M12 17C12.5523 17 13 17.4477 13 18V21.5698C13 22.1221 12.5523 22.5698 12 22.5698C11.4477 22.5698 11 22.1221 11 21.5698V18C11 17.4477 11.4477 17 12 17Z" fill="#141B34"/>
<path d="M16 5.73221H12.75V7C12.75 7.41421 12.4142 7.75 12 7.75C11.5858 7.75 11.25 7.41421 11.25 7V2.97035L11.25 2.93591C11.2499 2.72937 11.2498 2.50682 11.2749 2.3191C11.3042 2.09978 11.3796 1.81938 11.6146 1.58297C12.0147 1.18045 12.572 1.23496 12.8489 1.28352C13.1892 1.34319 13.5552 1.4778 13.8857 1.62207C14.5559 1.91463 15.2453 2.32115 15.6135 2.54789C16.5707 3.1373 16.75 4.24525 16.75 4.98221C16.75 5.39642 16.4142 5.73221 16 5.73221Z" fill="#141B34"/>
</svg>
