<svg width="24" height="25" viewBox="0 0 24 25" fill="none" xmlns="http://www.w3.org/2000/svg">
<path d="M7.75675 2.93555C8.94888 2.31794 10.3157 1.75 11.997 1.75C13.6783 1.75 15.0457 2.31795 16.2384 2.93554C16.5987 3.12212 16.9335 3.30669 17.2535 3.48308C18.0365 3.91478 18.7306 4.29744 19.4926 4.54044C19.9399 4.68307 20.336 4.80941 20.617 4.91946C20.8814 5.02304 21.1957 5.16499 21.4186 5.41278C21.619 5.63537 21.7219 5.88529 21.7901 6.12434C21.8521 6.34133 21.905 6.63515 21.9559 6.917C22.1381 7.92758 22.235 8.93033 22.2465 9.91374C22.2497 10.1858 22.2513 10.3218 22.1632 10.4109C22.0751 10.5 21.9357 10.5 21.6569 10.5H2.34063C2.06185 10.5 1.92246 10.5 1.83438 10.4109C1.74631 10.3218 1.74789 10.1858 1.75104 9.91382C1.76245 8.93041 1.85919 7.92764 2.04141 6.91705C2.0922 6.63523 2.14513 6.34148 2.20706 6.1245C2.27528 5.88547 2.37817 5.63558 2.57846 5.41299C2.80142 5.1652 3.11567 5.02321 3.38009 4.9196C3.66101 4.80951 4.05724 4.6831 4.50452 4.54039C5.26609 4.2974 5.95956 3.91486 6.74202 3.48322C7.06181 3.30681 7.3965 3.12218 7.75675 2.93555Z" fill="#141B34"/>
<path d="M13.8796 22.8179C13.2298 23.0667 12.7514 23.25 12.0003 23.25C11.2492 23.25 10.7707 23.0667 10.1209 22.8179C7.15764 21.6834 4.97875 19.7504 3.58799 17.3444C3.37827 16.9815 3.27341 16.8001 3.36 16.6501C3.44659 16.5 3.66332 16.5 4.09678 16.5H19.9023C20.3357 16.5 20.5523 16.5 20.6389 16.65C20.7255 16.8001 20.6207 16.9815 20.4111 17.3443C19.021 19.7503 16.8427 21.6833 13.8796 22.8179Z" fill="#141B34"/>
<path fill-rule="evenodd" clip-rule="evenodd" d="M7.96967 11.9697C8.26256 11.6768 8.73744 11.6768 9.03033 11.9697L9.5 12.4393L9.96967 11.9697C10.2626 11.6768 10.7374 11.6768 11.0303 11.9697C11.3232 12.2626 11.3232 12.7374 11.0303 13.0303L10.5607 13.5L11.0303 13.9697C11.3232 14.2626 11.3232 14.7374 11.0303 15.0303C10.7374 15.3232 10.2626 15.3232 9.96967 15.0303L9.5 14.5607L9.03033 15.0303C8.73744 15.3232 8.26256 15.3232 7.96967 15.0303C7.67678 14.7374 7.67678 14.2626 7.96967 13.9697L8.43934 13.5L7.96967 13.0303C7.67678 12.7374 7.67678 12.2626 7.96967 11.9697Z" fill="#141B34"/>
<path fill-rule="evenodd" clip-rule="evenodd" d="M2.96967 11.9697C3.26256 11.6768 3.73744 11.6768 4.03033 11.9697L4.5 12.4393L4.96967 11.9697C5.26256 11.6768 5.73744 11.6768 6.03033 11.9697C6.32322 12.2626 6.32322 12.7374 6.03033 13.0303L5.56066 13.5L6.03033 13.9697C6.32322 14.2626 6.32322 14.7374 6.03033 15.0303C5.73744 15.3232 5.26256 15.3232 4.96967 15.0303L4.5 14.5607L4.03033 15.0303C3.73744 15.3232 3.26256 15.3232 2.96967 15.0303C2.67678 14.7374 2.67678 14.2626 2.96967 13.9697L3.43934 13.5L2.96967 13.0303C2.67678 12.7374 2.67678 12.2626 2.96967 11.9697Z" fill="#141B34"/>
<path fill-rule="evenodd" clip-rule="evenodd" d="M12.9697 11.9697C13.2626 11.6768 13.7374 11.6768 14.0303 11.9697L14.5 12.4393L14.9697 11.9697C15.2626 11.6768 15.7374 11.6768 16.0303 11.9697C16.3232 12.2626 16.3232 12.7374 16.0303 13.0303L15.5607 13.5L16.0303 13.9697C16.3232 14.2626 16.3232 14.7374 16.0303 15.0303C15.7374 15.3232 15.2626 15.3232 14.9697 15.0303L14.5 14.5607L14.0303 15.0303C13.7374 15.3232 13.2626 15.3232 12.9697 15.0303C12.6768 14.7374 12.6768 14.2626 12.9697 13.9697L13.4393 13.5L12.9697 13.0303C12.6768 12.7374 12.6768 12.2626 12.9697 11.9697Z" fill="#141B34"/>
<path fill-rule="evenodd" clip-rule="evenodd" d="M17.9697 11.9697C18.2626 11.6768 18.7374 11.6768 19.0303 11.9697L19.5 12.4393L19.9697 11.9697C20.2626 11.6768 20.7374 11.6768 21.0303 11.9697C21.3232 12.2626 21.3232 12.7374 21.0303 13.0303L20.5607 13.5L21.0303 13.9697C21.3232 14.2626 21.3232 14.7374 21.0303 15.0303C20.7374 15.3232 20.2626 15.3232 19.9697 15.0303L19.5 14.5607L19.0303 15.0303C18.7374 15.3232 18.2626 15.3232 17.9697 15.0303C17.6768 14.7374 17.6768 14.2626 17.9697 13.9697L18.4393 13.5L17.9697 13.0303C17.6768 12.7374 17.6768 12.2626 17.9697 11.9697Z" fill="#141B34"/>
</svg>
