<svg width="24" height="24" viewBox="0 0 24 24" fill="none" xmlns="http://www.w3.org/2000/svg">
<path fill-rule="evenodd" clip-rule="evenodd" d="M6.50028 2.12515L6.47308 2.12508C6.37904 2.12475 6.22619 2.1242 6.07648 2.15072C5.51825 2.24961 5.07678 2.61531 4.83471 3.07881C4.76987 3.20296 4.72276 3.33815 4.68738 3.4397L1.05661 13.7943C0.873856 14.3154 1.1482 14.8861 1.66938 15.0688C2.19055 15.2516 2.76119 14.9772 2.94394 14.456L4.63789 9.62515L8.36265 9.62515L10.0566 14.456C10.2394 14.9772 10.81 15.2516 11.3312 15.0688C11.8523 14.8861 12.1267 14.3154 11.9439 13.7943L8.31316 3.4397C8.27778 3.33816 8.23068 3.20296 8.16584 3.07881C7.92376 2.61531 7.48227 2.24961 6.92405 2.15072C6.77435 2.1242 6.62151 2.12475 6.52747 2.12508L6.50028 2.12515ZM5.33984 7.6252L6.50093 4.31396L7.66201 7.6252H5.33984Z" fill="#141B34"/>
<path d="M1.99951 20.125H3.43698C3.83702 21.1493 4.83352 21.875 5.99951 21.875C7.1655 21.875 8.16201 21.1493 8.56204 20.125H15.437C15.837 21.1493 16.8335 21.875 17.9995 21.875C19.1655 21.875 20.162 21.1493 20.562 20.125H21.9995C22.5518 20.125 22.9995 19.6773 22.9995 19.125C22.9995 18.5727 22.5518 18.125 21.9995 18.125H20.562C20.162 17.1007 19.1655 16.375 17.9995 16.375C16.8335 16.375 15.837 17.1007 15.437 18.125H8.56204C8.16201 17.1007 7.1655 16.375 5.99951 16.375C4.83352 16.375 3.83702 17.1007 3.43698 18.125H1.99951C1.44723 18.125 0.999512 18.5727 0.999512 19.125C0.999512 19.6773 1.44723 20.125 1.99951 20.125Z" fill="#141B34"/>
<path fill-rule="evenodd" clip-rule="evenodd" d="M16.9461 2.12501C16.9642 2.12501 16.9823 2.12501 17.0005 2.12501H18.2505C20.3216 2.12501 22.0005 3.80395 22.0005 5.87501C22.0005 6.74293 21.7057 7.54199 21.2107 8.17747C22.2844 8.8371 23.0005 10.0224 23.0005 11.375C23.0005 13.4461 21.3216 15.125 19.2505 15.125H17.0005C16.9823 15.125 16.9642 15.125 16.9461 15.125C16.522 15.1251 16.1099 15.1252 15.77 15.0795C15.3868 15.028 14.9495 14.9024 14.5863 14.5392C14.2231 14.176 14.0976 13.7387 14.046 13.3555C14.0003 13.0156 14.0004 12.6035 14.0005 12.1794C14.0005 12.1613 14.0005 12.1432 14.0005 12.125V5.12501C14.0005 5.10686 14.0005 5.08872 14.0005 5.07061C14.0004 4.64654 14.0003 4.23441 14.046 3.89449C14.0976 3.51129 14.2231 3.07402 14.5863 2.7108C14.9495 2.34759 15.3868 2.22206 15.77 2.17054C16.1099 2.12484 16.522 2.12492 16.9461 2.12501ZM16.0005 9.62501V12.125C16.0005 12.6247 16.0026 12.8988 16.0282 13.089C16.0285 13.0915 16.0289 13.0939 16.0292 13.0963C16.0316 13.0967 16.034 13.097 16.0365 13.0973C16.2267 13.1229 16.5008 13.125 17.0005 13.125H19.2505C20.217 13.125 21.0005 12.3415 21.0005 11.375C21.0005 10.4085 20.217 9.62501 19.2505 9.62501H16.0005ZM16.0005 7.62501H18.2505C19.217 7.62501 20.0005 6.84151 20.0005 5.87501C20.0005 4.90852 19.217 4.12501 18.2505 4.12501H17.0005C16.5008 4.12501 16.2267 4.12714 16.0365 4.15271C16.034 4.15304 16.0316 4.15337 16.0292 4.15371C16.0289 4.15608 16.0285 4.15851 16.0282 4.16099C16.0026 4.35118 16.0005 4.62534 16.0005 5.12501V7.62501Z" fill="#141B34"/>
</svg>
