<svg width="24" height="24" viewBox="0 0 24 24" fill="none" xmlns="http://www.w3.org/2000/svg">
<path fill-rule="evenodd" clip-rule="evenodd" d="M11.9428 1.75H11.9428H12.0572H12.0572C14.2479 1.74999 15.9686 1.74998 17.312 1.93059C18.6886 2.11568 19.7809 2.50272 20.6391 3.36091C21.4973 4.21911 21.8843 5.31137 22.0694 6.68802C22.25 8.03143 22.25 9.7521 22.25 11.9428V11.9428V12.0572V12.0572C22.25 14.2479 22.25 15.9686 22.0694 17.312C21.8843 18.6886 21.4973 19.7809 20.6391 20.6391C19.7809 21.4973 18.6886 21.8843 17.312 22.0694C15.9686 22.25 14.2479 22.25 12.0572 22.25H11.9428C9.75214 22.25 8.03144 22.25 6.68802 22.0694C5.31137 21.8843 4.21911 21.4973 3.36091 20.6391C2.50271 19.7809 2.11568 18.6886 1.93059 17.312C1.74998 15.9686 1.74999 14.2479 1.75 12.0572V11.9428C1.74999 9.75214 1.74998 8.03144 1.93059 6.68802C2.11568 5.31137 2.50271 4.21911 3.36091 3.36091C4.21911 2.50272 5.31137 2.11568 6.68802 1.93059C8.03144 1.74998 9.75211 1.74999 11.9428 1.75ZM7 8.00005C7 7.57997 7.26254 7.20468 7.65715 7.06066C8.05177 6.91664 8.49433 7.03459 8.76491 7.35591L11.8621 11.0338C12.3323 11.5922 12.3323 12.4079 11.8621 12.9663L8.76491 16.6442C8.49433 16.9655 8.05177 17.0835 7.65715 16.9394C7.26254 16.7954 7 16.4201 7 16V8.00005ZM12.0203 8.64419C11.6645 8.22174 11.7186 7.59089 12.1411 7.23514C12.5635 6.87939 13.1944 6.93347 13.5501 7.35591L16.6473 11.0338C17.1175 11.5922 17.1175 12.4079 16.6473 12.9663L13.5501 16.6442C13.1944 17.0666 12.5635 17.1207 12.1411 16.765C11.7186 16.4092 11.6645 15.7784 12.0203 15.3559L14.8463 12L12.0203 8.64419Z" fill="#141B34"/>
</svg>
