<svg width="24" height="25" viewBox="0 0 24 25" fill="none" xmlns="http://www.w3.org/2000/svg">
<path d="M14.2313 2.90371C14.2695 2.59406 14.2886 2.43923 14.1997 2.33807C14.1107 2.2369 13.9557 2.23604 13.6457 2.23433C13.3005 2.23241 12.9378 2.23242 12.5571 2.23242H9.4405C9.06077 2.23242 8.69898 2.23241 8.3546 2.23431C8.04628 2.23601 7.89212 2.23686 7.80323 2.33732C7.71434 2.43778 7.73238 2.59186 7.76847 2.90001L7.82354 3.37028C7.92479 3.9776 7.99145 4.36726 8.0765 4.65295C8.15642 4.92137 8.22781 5.0067 8.28445 5.05469C8.3411 5.10267 8.437 5.15907 8.71492 5.19377C9.01361 5.23106 9.41379 5.23242 10.0399 5.23242H11.9572C12.5833 5.23242 12.9835 5.23106 13.2822 5.19377C13.5601 5.15907 13.656 5.10267 13.7126 5.05469C13.7693 5.0067 13.8407 4.92138 13.9206 4.65295C14.0058 4.36689 14.0725 3.97661 14.1739 3.36795L14.2313 2.90371Z" fill="#141B34"/>
<path fill-rule="evenodd" clip-rule="evenodd" d="M6.2562 2.88053C6.22394 2.60502 6.20781 2.46727 6.10846 2.39013C6.00911 2.31299 5.87702 2.33077 5.61285 2.36632L5.55348 2.37452C4.50996 2.5222 3.65371 2.83601 2.9804 3.54475C2.31225 4.24808 2.02111 5.1334 1.88321 6.21305C1.749 7.26383 1.74901 8.60575 1.74902 10.2971V15.6674C1.74901 17.3587 1.749 18.7006 1.88321 19.7514C2.02111 20.8311 2.31225 21.7164 2.9804 22.4197C3.65371 23.1285 4.50996 23.4423 5.55348 23.59C5.82441 23.6283 6.11534 23.6563 6.42712 23.6768C6.80116 23.7013 6.98818 23.7136 7.08361 23.6219C7.17905 23.5302 7.17297 23.2918 7.16083 22.8149C7.16028 22.7933 7.16 22.7717 7.16 22.75C7.16 21.3693 8.27929 20.25 9.66 20.25H10.66C10.7422 20.25 10.8235 20.254 10.9037 20.2617C11.247 20.2949 11.4186 20.3115 11.5037 20.26C11.5183 20.2512 11.5239 20.2473 11.5371 20.2366C11.6145 20.174 11.6512 20.0301 11.7247 19.7423C11.8855 19.1125 12.194 18.2558 12.929 17.5207L16.296 14.1537L16.3406 14.1089C16.5763 13.8718 16.9375 13.5085 17.3763 13.2552C18.0237 12.8814 18.7545 12.715 19.4761 12.7561C19.8661 12.7783 20.0611 12.7894 20.155 12.7006C20.249 12.6118 20.249 12.4402 20.249 12.097V10.2971C20.249 8.60578 20.2491 7.26385 20.1148 6.21305C19.9769 5.1334 19.6858 4.24808 19.0176 3.54475C18.3443 2.83601 17.4881 2.5222 16.4446 2.37452L16.3894 2.36689C16.1266 2.3314 15.9953 2.31366 15.8961 2.39015C15.7969 2.46663 15.78 2.60356 15.7461 2.87741L15.6609 3.56735L15.6573 3.58908C15.565 4.14304 15.4728 4.69689 15.3585 5.08076C15.2337 5.49982 15.0454 5.89154 14.6824 6.19903C14.3195 6.50651 13.9021 6.62785 13.4682 6.68202C13.0656 6.7323 12.5707 6.73227 12.0017 6.73223H9.99591C9.42691 6.73227 8.93201 6.7323 8.52932 6.68202C8.09545 6.62785 7.67811 6.50651 7.31513 6.19903C6.95216 5.89154 6.76386 5.49982 6.6391 5.08076C6.52527 4.69841 6.43277 4.1431 6.34083 3.59118L6.33608 3.56266L6.2562 2.88053ZM6.24902 11.9822C6.24902 11.568 6.58481 11.2322 6.99902 11.2322H14.999C15.4132 11.2322 15.749 11.568 15.749 11.9822C15.749 12.3964 15.4132 12.7322 14.999 12.7322H6.99902C6.58481 12.7322 6.24902 12.3964 6.24902 11.9822ZM6.24902 16.9822C6.24902 16.568 6.58481 16.2322 6.99902 16.2322H10.999C11.4132 16.2322 11.749 16.568 11.749 16.9822C11.749 17.3964 11.4132 17.7322 10.999 17.7322H6.99902C6.58481 17.7322 6.24902 17.3964 6.24902 16.9822Z" fill="#141B34"/>
<path fill-rule="evenodd" clip-rule="evenodd" d="M8.66016 22.75C8.66016 22.1977 9.10787 21.75 9.66016 21.75H10.6602C11.2124 21.75 11.6602 22.1977 11.6602 22.75C11.6602 23.3023 11.2124 23.75 10.6602 23.75H9.66016C9.10787 23.75 8.66016 23.3023 8.66016 22.75Z" fill="#141B34"/>
<path d="M18.1264 14.5542C18.8289 14.1486 19.6946 14.1486 20.3971 14.5542C20.6587 14.7053 20.9528 14.9999 21.2259 15.2735C21.4996 15.5467 21.7942 15.8407 21.9452 16.1023C22.3508 16.8049 22.3508 17.6705 21.9452 18.3731C21.7942 18.6347 21.5594 18.869 21.2857 19.1421L17.9181 22.5097C17.4527 22.975 16.8908 23.1924 16.386 23.3213C16.134 23.3856 15.8808 23.4315 15.6511 23.4712C15.3451 23.5367 14.3475 23.7297 14.0942 23.7458C13.8152 23.7636 13.4108 23.7362 13.087 23.4124C12.7632 23.0887 12.7359 22.6842 12.7536 22.4052C12.7697 22.152 12.9627 21.1543 13.0283 20.8483C13.0679 20.6186 13.1138 20.3654 13.1782 20.1134C13.307 19.6086 13.5245 19.0467 13.9898 18.5814L17.3574 15.2137C17.6305 14.94 17.8648 14.7053 18.1264 14.5542Z" fill="#141B34"/>
</svg>
