<svg width="24" height="24" viewBox="0 0 24 24" fill="none" xmlns="http://www.w3.org/2000/svg">
<path fill-rule="evenodd" clip-rule="evenodd" d="M7.15438 2.87169C7.24967 2.96064 7.24967 3.10821 7.24967 3.40335V7C7.24967 7.41421 7.58545 7.75 7.99967 7.75C8.41388 7.75 8.74967 7.41421 8.74967 7V3.3488C8.74967 3.06722 8.74967 2.92643 8.83741 2.83859C8.92515 2.75074 9.06557 2.75057 9.34641 2.75023C9.53927 2.75 9.7374 2.75 9.94095 2.75H9.9468H9.94681H14.0533H14.0533H14.0534C15.6601 2.74999 16.9288 2.74998 17.9391 2.86271C18.9748 2.97828 19.8256 3.21963 20.5575 3.76216C21.0606 4.13512 21.4961 4.5968 21.8455 5.12508C22.4908 6.10064 22.6811 7.28333 22.749 8.84643C22.7494 8.85727 22.7497 8.86811 22.7497 8.87895V15.1211C22.7497 15.1319 22.7494 15.1427 22.749 15.1536C22.6811 16.7167 22.4908 17.8994 21.8455 18.8749C21.4961 19.4032 21.0606 19.8649 20.5575 20.2378C19.8256 20.7804 18.9748 21.0217 17.9391 21.1373C16.9288 21.25 15.6601 21.25 14.0534 21.25H14.0533H9.94685H9.94676H9.94183C9.73796 21.25 9.53955 21.25 9.34641 21.2498H9.34639C9.06556 21.2494 8.92515 21.2493 8.83741 21.1614C8.74967 21.0736 8.74967 20.9328 8.74967 20.6512L8.74967 17C8.74967 16.5858 8.41388 16.25 7.99967 16.25C7.58545 16.25 7.24967 16.5858 7.24967 17V20.5967C7.24967 20.8918 7.24967 21.0394 7.15438 21.1283C7.0591 21.2173 6.91506 21.2073 6.62699 21.1875C6.42981 21.1739 6.24132 21.1574 6.06105 21.1373C5.02534 21.0217 4.17459 20.7804 3.44267 20.2378C2.93953 19.8649 2.50402 19.4032 2.1546 18.8749C1.5094 17.8995 1.31905 16.7169 1.2512 15.1541C1.21879 14.4075 1.84777 13.9062 2.46497 13.9062C3.39687 13.9062 4.22416 13.0936 4.22416 12C4.22416 10.9064 3.39687 10.0938 2.46497 10.0938C1.84777 10.0938 1.21879 9.59249 1.2512 8.8459C1.31905 7.28307 1.5094 6.10053 2.1546 5.12508C2.50402 4.5968 2.93953 4.13512 3.44267 3.76216C4.17459 3.21963 5.02534 2.97828 6.06105 2.86271C6.24131 2.8426 6.42981 2.82607 6.62699 2.8125C6.91506 2.79266 7.0591 2.78274 7.15438 2.87169ZM15.69 9.10062C15.4946 8.70517 15.1074 8.25009 14.4985 8.25009C13.8905 8.25009 13.5024 8.70419 13.3057 9.09874L13.305 9.10014L12.8138 10.0906L11.9452 10.2361C11.5062 10.3099 10.9816 10.5542 10.8029 11.1184C10.6252 11.6796 10.9094 12.1811 11.2217 12.496L11.9034 13.1834L11.7101 14.0261C11.6111 14.4575 11.584 15.1361 12.1249 15.534C12.6694 15.9347 13.3098 15.7 13.6898 15.4728L14.4989 14.9898L15.3083 15.473C15.6861 15.698 16.3282 15.9363 16.8737 15.5354C17.4161 15.1367 17.3858 14.4557 17.2878 14.0267L17.0943 13.1834L17.7743 12.4978L17.7753 12.4968C18.0894 12.1817 18.3748 11.6794 18.1955 11.117C18.0158 10.5535 17.4911 10.3098 17.0529 10.2362L16.1806 10.0901L15.6904 9.10154L15.69 9.10062Z" fill="#141B34"/>
</svg>
