<svg width="24" height="24" viewBox="0 0 24 24" fill="none" xmlns="http://www.w3.org/2000/svg">
<path d="M4.801 14.6493C7.98419 12.7836 12.0162 12.7836 15.1994 14.6493C15.3002 14.7084 15.4257 14.7781 15.5686 14.8574C16.2012 15.2086 17.1731 15.7481 17.8385 16.3892C18.254 16.7896 18.6635 17.3303 18.7383 18.0037C18.8184 18.7252 18.4961 19.3911 17.8798 19.9691C16.8297 20.9539 15.5618 21.75 13.9194 21.75H6.08096C4.43862 21.75 3.1707 20.9538 2.12062 19.9691C1.5043 19.3911 1.18195 18.7252 1.26207 18.0037C1.33684 17.3303 1.7464 16.7896 2.16189 16.3892C2.82728 15.7481 3.79919 15.2086 4.43183 14.8574C4.57465 14.7781 4.7002 14.7084 4.801 14.6493Z" fill="#141B34"/>
<path d="M5.25019 7C5.25019 4.37665 7.37684 2.25 10.0002 2.25C12.6235 2.25 14.7502 4.37665 14.7502 7C14.7502 9.62335 12.6235 11.75 10.0002 11.75C7.37684 11.75 5.25019 9.62335 5.25019 7Z" fill="#141B34"/>
<path d="M18.9985 2.25C19.6074 2.25 19.9946 2.70508 20.19 3.10053L20.1904 3.10145L20.6806 4.08998L21.5529 4.2361C21.9911 4.30974 22.5158 4.5534 22.6955 5.11691C22.8748 5.67933 22.5894 6.18163 22.2753 6.49671L22.2743 6.49771L21.5943 7.18326L21.7878 8.02664C21.8858 8.45557 21.9161 9.13658 21.3737 9.53527C20.8282 9.93626 20.1861 9.69787 19.8084 9.47289L18.9989 8.98974L18.1896 9.47274C17.8097 9.69998 17.1694 9.93454 16.6249 9.53395C16.084 9.13602 16.1111 8.45741 16.2101 8.02598L16.4034 7.18326L15.7217 6.49589C15.4094 6.18105 15.1252 5.67952 15.303 5.11826C15.4816 4.55415 16.0062 4.3098 16.4452 4.23603L17.3138 4.09053L17.805 3.10005L17.8057 3.09865C18.0024 2.7041 18.3905 2.25 18.9985 2.25Z" fill="#141B34"/>
</svg>
