<svg width="24" height="24" viewBox="0 0 24 24" fill="none" xmlns="http://www.w3.org/2000/svg">
<path d="M6.625 6.375C6.625 3.4755 8.9755 1.125 11.875 1.125C14.7745 1.125 17.125 3.4755 17.125 6.375C17.125 9.2745 14.7745 11.625 11.875 11.625C8.9755 11.625 6.625 9.2745 6.625 6.375Z" fill="#141B34"/>
<path fill-rule="evenodd" clip-rule="evenodd" d="M18.375 13.875C18.9273 13.875 19.375 14.3227 19.375 14.875V17.375H21.875C22.4273 17.375 22.875 17.8227 22.875 18.375C22.875 18.9273 22.4273 19.375 21.875 19.375H19.375V21.875C19.375 22.4273 18.9273 22.875 18.375 22.875C17.8227 22.875 17.375 22.4273 17.375 21.875L17.375 19.375H14.875C14.3227 19.375 13.875 18.9273 13.875 18.375C13.875 17.8227 14.3227 17.375 14.875 17.375H17.375L17.375 14.875C17.375 14.3227 17.8227 13.875 18.375 13.875Z" fill="#141B34"/>
<path d="M15.7262 14.2045C15.852 14.2637 15.9155 14.4032 15.8971 14.5409C15.8825 14.6502 15.875 14.7617 15.875 14.875V15.575C15.875 15.7407 15.7407 15.875 15.575 15.875H14.875C13.4943 15.875 12.375 16.9943 12.375 18.375C12.375 19.7557 13.4943 20.875 14.875 20.875H15.575C15.7407 20.875 15.875 21.0093 15.875 21.175V21.875C15.875 21.9983 15.8839 22.1195 15.9012 22.238C15.9277 22.4204 15.8105 22.6027 15.6265 22.6143C15.5141 22.6214 15.4 22.625 15.2843 22.625H6.46604C4.64774 22.625 3.24195 21.7306 2.0705 20.6146C1.39149 19.9677 1.05302 19.2396 1.13783 18.4638C1.21757 17.7342 1.65623 17.1387 2.1179 16.6868C2.85606 15.9643 3.93357 15.3564 4.64639 14.9543C4.80901 14.8625 4.95275 14.7814 5.06904 14.7122C6.37389 13.9352 7.80596 13.4441 9.27043 13.2375C10.3343 13.0875 11.4161 13.0875 12.4799 13.2375C13.5948 13.3948 14.6908 13.7169 15.7262 14.2045Z" fill="#141B34"/>
</svg>
