<svg width="24" height="24" viewBox="0 0 24 24" fill="none" xmlns="http://www.w3.org/2000/svg">
<path opacity="0.4" d="M20.0949 7.25H3.65516C3.36317 7.24999 3.10704 7.24998 2.89649 7.26435C2.67647 7.27936 2.44103 7.31297 2.21055 7.41459C1.82281 7.58554 1.52624 7.84738 1.34105 8.19165C1.16292 8.5228 1.12007 8.87028 1.12543 9.16755C1.13076 9.46287 1.18486 9.75163 1.23876 9.99262C1.26921 10.1287 1.37293 10.5616 1.38818 10.6252C1.38898 10.6285 1.38938 10.6302 1.38972 10.6317C1.39007 10.6332 1.39065 10.6359 1.39181 10.6412C1.47487 11.0224 1.73343 11.3302 2.07188 11.4908C2.44139 11.6661 2.68215 11.9888 2.74437 12.3431L3.44396 16.4057C3.52861 16.9808 3.62783 17.6549 3.78458 18.2651C4.01701 19.17 4.41862 20.151 5.25667 20.8248L5.25955 20.8271C5.88909 21.3281 6.62715 21.5465 7.50578 21.6499C8.35671 21.75 9.42483 21.75 10.7598 21.75L13.0663 21.7499C13.2277 21.7499 13.3149 21.5556 13.2103 21.4326C13.1852 21.4031 13.1647 21.3977 13.1277 21.3861C12.1116 21.0681 11.375 20.1207 11.375 19C11.375 17.6193 12.4943 16.5 13.875 16.5C14.2877 16.5 14.5945 16.5877 14.7317 16.6269L14.7337 16.6274C14.8908 16.6723 15.0551 16.7307 15.2245 16.8052C15.4634 16.9103 15.5828 16.9628 15.6793 16.941C15.7757 16.9192 15.8532 16.8293 16.0081 16.6496C16.6137 15.947 17.4072 15.0856 18.0979 14.4798C18.7996 13.8644 19.6608 13.2247 20.6292 12.8053C20.7804 12.7398 20.856 12.7071 20.8979 12.6633C20.9398 12.6195 20.9745 12.5288 21.0438 12.3473C21.1729 12.0093 21.4062 11.6198 21.6781 11.4908C22.0166 11.3302 22.2751 11.0224 22.3582 10.6412C22.3593 10.6359 22.3599 10.6332 22.3603 10.6317C22.3606 10.6302 22.361 10.6285 22.3618 10.6252C22.3771 10.5616 22.4808 10.1287 22.5112 9.99262C22.5651 9.75163 22.6192 9.46288 22.6246 9.16755C22.6299 8.87028 22.5871 8.52281 22.4089 8.19165C22.2238 7.84738 21.9272 7.58554 21.5394 7.41459C21.309 7.31297 21.0735 7.27936 20.8535 7.26435C20.643 7.24998 20.3869 7.24999 20.0949 7.25Z" fill="#141B34"/>
<path fill-rule="evenodd" clip-rule="evenodd" d="M9.125 12C9.125 11.5858 9.46079 11.25 9.875 11.25L13.875 11.25C14.2892 11.25 14.625 11.5858 14.625 12C14.625 12.4142 14.2892 12.75 13.875 12.75L9.875 12.75C9.46079 12.75 9.125 12.4142 9.125 12Z" fill="#141B34"/>
<path fill-rule="evenodd" clip-rule="evenodd" d="M10.2761 2.08385C10.7821 2.30522 11.0128 2.89485 10.7914 3.40083L7.29141 11.4008C7.07004 11.9068 6.48041 12.1375 5.97443 11.9162C5.46845 11.6948 5.23773 11.1052 5.4591 10.5992L8.9591 2.59919C9.18046 2.09321 9.77009 1.86249 10.2761 2.08385Z" fill="#141B34"/>
<path d="M22.8176 14.6662C23.002 15.1868 22.7294 15.7583 22.2088 15.9427C21.6752 16.1317 21.0587 16.5385 20.4057 17.1112C19.763 17.6749 19.1378 18.3518 18.5841 19.0156C18.0322 19.6771 17.5635 20.3109 17.2324 20.7798C17.0672 21.0138 16.807 21.4042 16.7191 21.5363C16.5258 21.8403 16.1837 22.0171 15.8239 21.9987C15.4639 21.9803 15.1418 21.7696 14.9806 21.4472C14.5399 20.5659 14.1446 20.2149 13.9453 20.0821C13.861 20.0259 13.804 20.0033 13.7814 19.9957C13.273 19.9485 12.875 19.5207 12.875 19C12.875 18.4477 13.3227 18 13.875 18C14.0742 18 14.2184 18.0403 14.3216 18.0698C14.5295 18.1291 14.7803 18.235 15.0547 18.418C15.329 18.6008 15.6166 18.8536 15.9054 19.1995C16.2206 18.7687 16.609 18.261 17.0483 17.7344C17.6416 17.0232 18.34 16.2627 19.087 15.6076C19.8236 14.9615 20.663 14.3684 21.5412 14.0574C22.0618 13.873 22.6332 14.1456 22.8176 14.6662Z" fill="#141B34"/>
<path d="M15.7696 2.55276C15.5227 2.05878 14.922 1.85856 14.428 2.10555C13.934 2.35254 13.7338 2.95321 13.9808 3.44719L15.8822 7.25H18.1183L15.7696 2.55276Z" fill="#141B34"/>
</svg>
