<svg width="24" height="24" viewBox="0 0 24 24" fill="none" xmlns="http://www.w3.org/2000/svg">
<path opacity="0.4" d="M20.2199 7.375C20.5119 7.37499 20.7679 7.37498 20.9785 7.38935C21.1985 7.40436 21.434 7.43797 21.6644 7.53959C22.0522 7.71054 22.3488 7.97238 22.5339 8.31665C22.7121 8.6478 22.7549 8.99528 22.7496 9.29255C22.7442 9.58787 22.6901 9.87663 22.6362 10.1176C22.6033 10.2647 22.4849 10.758 22.4849 10.758C22.4038 11.143 22.144 11.454 21.8031 11.6158C21.4336 11.7911 21.1928 12.1138 21.1306 12.4681L20.431 16.5307C20.3464 17.1058 20.2472 17.7799 20.0904 18.3901C19.858 19.295 19.4564 20.276 18.6183 20.9498L18.6154 20.9521C17.9859 21.4531 17.2478 21.6715 16.3692 21.7749C15.5183 21.875 14.4502 21.875 13.1152 21.875H10.8848C9.54983 21.875 8.48171 21.875 7.63078 21.7749C6.75215 21.6715 6.01409 21.4531 5.38455 20.9521L5.38167 20.9498C4.54362 20.276 4.14201 19.295 3.90958 18.3901C3.75283 17.7799 3.65361 17.1058 3.56896 16.5307L2.86937 12.4681C2.80715 12.1138 2.56639 11.7911 2.19688 11.6158C1.85601 11.454 1.59618 11.143 1.51506 10.758C1.51506 10.758 1.39665 10.2647 1.36376 10.1176C1.30986 9.87663 1.25576 9.58787 1.25043 9.29255C1.24507 8.99528 1.28792 8.6478 1.46605 8.31665C1.65124 7.97238 1.94781 7.71054 2.33555 7.53959C2.56603 7.43797 2.80147 7.40436 3.02149 7.38935C3.23205 7.37498 3.48813 7.37499 3.78013 7.375H3.78016H20.2198H20.2199Z" fill="#141B34"/>
<path fill-rule="evenodd" clip-rule="evenodd" d="M10.4011 2.20885C10.9071 2.43022 11.1378 3.01985 10.9164 3.52583L7.41641 11.5258C7.19504 12.0318 6.60541 12.2625 6.09943 12.0412C5.59345 11.8198 5.36273 11.2302 5.5841 10.7242L9.0841 2.72419C9.30546 2.21821 9.89509 1.98749 10.4011 2.20885Z" fill="#141B34"/>
<path fill-rule="evenodd" clip-rule="evenodd" d="M9.25 12.125C9.25 11.7108 9.58579 11.375 10 11.375L14 11.375C14.4142 11.375 14.75 11.7108 14.75 12.125C14.75 12.5392 14.4142 12.875 14 12.875L10 12.875C9.58579 12.875 9.25 12.5392 9.25 12.125Z" fill="#141B34"/>
<path d="M15.8946 2.67776C15.6477 2.18378 15.047 1.98356 14.553 2.23055C14.059 2.47754 13.8588 3.07821 14.1058 3.57219L16.0072 7.37498H18.2433L15.8946 2.67776Z" fill="#141B34"/>
</svg>
