<svg width="24" height="24" viewBox="0 0 24 24" fill="none" xmlns="http://www.w3.org/2000/svg">
<path opacity="0.4" fill-rule="evenodd" clip-rule="evenodd" d="M1.5 2C1.5 1.44772 1.94772 1 2.5 1L3.43845 1C4.81505 1 6.015 1.93689 6.34887 3.27239L6.35349 3.29084L6.8173 5.5L8 5.5C8.55228 5.5 9 5.94772 9 6.5C9 7.05229 8.55228 7.5 8 7.5H7.23721L8.81185 15H8.88L15.2632 15C16.2838 15 17.015 14.8393 17.5562 14.5882C18.0861 14.3423 18.4837 13.9869 18.8096 13.5112C19.5068 12.4937 19.8556 10.9832 20.2807 8.87172C20.4056 8.25109 20.4778 7.88216 20.4961 7.61683C20.5082 7.44137 19.8462 7.47705 19.5327 7.49395L19.5327 7.49396L19.5326 7.49396C19.4695 7.49736 19.4205 7.5 19.3941 7.5H19C18.4477 7.5 18 7.05229 18 6.5C18 5.94772 18.4477 5.5 19 5.5H19.3941L19.4593 5.49999C19.9527 5.49987 20.4344 5.49975 20.8249 5.56175C21.2743 5.6331 21.781 5.81179 22.141 6.30719C22.4858 6.78159 22.5219 7.31012 22.4914 7.75414C22.463 8.16595 22.3624 8.66554 22.253 9.2085L22.253 9.20852L22.2414 9.26643C21.8387 11.2668 21.4324 13.2217 20.4595 14.6417C19.9504 15.3847 19.2842 15.9911 18.3981 16.4023C17.5234 16.8083 16.4865 17 15.2632 17L8.88 17H8.46857C7.86982 17 7.31751 17.3988 7.09895 18L10.392 18C10.4278 17.9983 10.4638 17.9975 10.5 17.9975C10.5362 17.9975 10.5722 17.9983 10.608 18H17.392C17.4278 17.9983 17.4638 17.9975 17.5 17.9975C18.7426 17.9975 19.75 19.0048 19.75 20.2475C19.75 21.4901 18.7426 22.4975 17.5 22.4975C16.2574 22.4975 15.25 21.4901 15.25 20.2475C15.25 20.1638 15.2546 20.0813 15.2635 20H12.7365C12.7454 20.0813 12.75 20.1638 12.75 20.2475C12.75 21.4901 11.7426 22.4975 10.5 22.4975C9.25736 22.4975 8.25 21.4901 8.25 20.2475C8.25 20.1638 8.25456 20.0813 8.26345 20H6.41143C5.59384 20 5 19.3215 5 18.5714C5 17.2195 5.74057 16.0121 6.85392 15.4081L5.04829 6.80789C5.02706 6.74219 5.01243 6.67352 5.0052 6.60265L4.40464 3.74218C4.28811 3.30517 3.89205 3 3.43845 3L2.5 3C1.94772 3 1.5 2.55228 1.5 2ZM10.5 19.4975C10.0858 19.4975 9.75 19.8332 9.75 20.2475C9.75 20.6617 10.0858 20.9975 10.5 20.9975C10.9142 20.9975 11.25 20.6617 11.25 20.2475C11.25 19.8332 10.9142 19.4975 10.5 19.4975ZM16.75 20.2475C16.75 19.8332 17.0858 19.4975 17.5 19.4975C17.9142 19.4975 18.25 19.8332 18.25 20.2475C18.25 20.6617 17.9142 20.9975 17.5 20.9975C17.0858 20.9975 16.75 20.6617 16.75 20.2475Z" fill="#141B34"/>
<path fill-rule="evenodd" clip-rule="evenodd" d="M9.79289 2.29289C10.1834 1.90237 10.8166 1.90237 11.2071 2.29289L13.5 4.58579L15.7929 2.29289C16.1834 1.90237 16.8166 1.90237 17.2071 2.29289C17.5976 2.68342 17.5976 3.31658 17.2071 3.70711L14.9142 6L17.2071 8.29289C17.5976 8.68342 17.5976 9.31658 17.2071 9.70711C16.8166 10.0976 16.1834 10.0976 15.7929 9.70711L13.5 7.41421L11.2071 9.70711C10.8166 10.0976 10.1834 10.0976 9.79289 9.70711C9.40237 9.31658 9.40237 8.68342 9.79289 8.29289L12.0858 6L9.79289 3.70711C9.40237 3.31658 9.40237 2.68342 9.79289 2.29289Z" fill="#141B34"/>
</svg>
