<svg width="24" height="24" viewBox="0 0 24 24" fill="none" xmlns="http://www.w3.org/2000/svg">
<path opacity="0.4" fill-rule="evenodd" clip-rule="evenodd" d="M1.5 2C1.5 1.44772 1.94772 1 2.5 1L3.43845 1C4.81505 1 6.015 1.93689 6.34887 3.27239L6.35349 3.29084L8.81185 15L8.88 15C8.88047 15 8.88093 15 8.8814 15L15.2632 15C16.2838 15 17.015 14.8393 17.5562 14.5882C18.0861 14.3423 18.4837 13.9869 18.8096 13.5112C19.5068 12.4937 19.8556 10.9832 20.2807 8.87172C20.4056 8.25109 20.4778 7.88216 20.4961 7.61683C20.502 7.53084 20.483 7.52938 20.4117 7.52394L20.384 7.52167C20.2781 7.51204 20.1477 7.50622 19.9816 7.50316C19.4294 7.49299 18.99 7.03711 19.0002 6.48492C19.0103 5.93273 19.4662 5.49333 20.0184 5.5035C20.3759 5.51008 20.758 5.52876 21.1007 5.61916C21.4829 5.71998 21.8604 5.92109 22.141 6.30719C22.4858 6.78159 22.5219 7.31013 22.4914 7.75414C22.463 8.16595 22.3624 8.66555 22.253 9.2085L22.2414 9.26643C21.8387 11.2668 21.4324 13.2217 20.4595 14.6417C19.9504 15.3848 19.2842 15.9911 18.3981 16.4024C17.5234 16.8083 16.4865 17 15.2632 17L8.88 17H8.46857C7.86982 17 7.31751 17.3988 7.09895 18L17.5 18L17.4984 18.0026C17.499 18.0026 17.4995 18.0026 17.5 18.0026C18.7426 18.0026 19.75 19.0099 19.75 20.2526C19.75 21.4952 18.7426 22.5026 17.5 22.5026C16.2574 22.5026 15.25 21.4952 15.25 20.2526C15.25 20.1672 15.2548 20.0829 15.264 20H12.736C12.7452 20.0829 12.75 20.1672 12.75 20.2526C12.75 21.4952 11.7426 22.5026 10.5 22.5026C9.25736 22.5026 8.25 21.4952 8.25 20.2526C8.25 20.1672 8.25476 20.0829 8.26402 20H6.41143C5.59384 20 5 19.3215 5 18.5714C5 17.2195 5.74057 16.0121 6.85392 15.4081L4.40464 3.74218C4.28811 3.30517 3.89205 3 3.43845 3L2.5 3C1.94772 3 1.5 2.55228 1.5 2ZM16.7936 20C16.7654 20.0789 16.75 20.1639 16.75 20.2526C16.75 20.6668 17.0858 21.0026 17.5 21.0026C17.9142 21.0026 18.25 20.6668 18.25 20.2526C18.25 19.8384 17.9142 19.5026 17.5 19.5026C17.1744 19.5026 16.8973 19.71 16.7936 20ZM9.75 20.2526C9.75 19.8384 10.0858 19.5026 10.5 19.5026C10.9142 19.5026 11.25 19.8384 11.25 20.2526C11.25 20.6668 10.9142 21.0026 10.5 21.0026C10.0858 21.0026 9.75 20.6668 9.75 20.2526Z" fill="#141B34"/>
<path fill-rule="evenodd" clip-rule="evenodd" d="M13 1.5C13.5523 1.5 14 1.94772 14 2.5V5.5H17C17.5523 5.5 18 5.94772 18 6.5C18 7.05228 17.5523 7.5 17 7.5H14V10.5C14 11.0523 13.5523 11.5 13 11.5C12.4477 11.5 12 11.0523 12 10.5V7.5H9C8.44772 7.5 8 7.05228 8 6.5C8 5.94772 8.44772 5.5 9 5.5H12V2.5C12 1.94772 12.4477 1.5 13 1.5Z" fill="#141B34"/>
</svg>
