<svg width="24" height="24" viewBox="0 0 24 24" fill="none" xmlns="http://www.w3.org/2000/svg">
<path d="M11.5 21C7.02166 21 4.78249 21 3.39124 19.6088C2 18.2175 2 15.9783 2 11.5C2 7.02166 2 4.78249 3.39124 3.39124C4.78249 2 7.02166 2 11.5 2C15.9783 2 18.2175 2 19.6088 3.39124C21 4.78249 21 7.02166 21 11.5" stroke="#141B34" stroke-width="1.5" stroke-linecap="round"/>
<path d="M2 7H21" stroke="#141B34" stroke-width="1.5" stroke-linejoin="round"/>
<path d="M10 16H11M6 16H7M10 12H14M6 12H7" stroke="#141B34" stroke-width="1.5" stroke-linecap="round" stroke-linejoin="round"/>
<path d="M21.4692 22.5299C21.7619 22.823 22.2367 22.8234 22.5299 22.5308C22.823 22.2381 22.8234 21.7633 22.5308 21.4701L21.4692 22.5299ZM19.7697 20.8274L21.4692 22.5299L22.5308 21.4701L20.8312 19.7676L19.7697 20.8274ZM21.95 17.6C21.95 15.1976 20.0024 13.25 17.6 13.25V14.75C19.174 14.75 20.45 16.026 20.45 17.6H21.95ZM17.6 13.25C15.1976 13.25 13.25 15.1976 13.25 17.6H14.75C14.75 16.026 16.026 14.75 17.6 14.75V13.25ZM13.25 17.6C13.25 20.0024 15.1976 21.95 17.6 21.95V20.45C16.026 20.45 14.75 19.174 14.75 17.6H13.25ZM17.6 21.95C20.0024 21.95 21.95 20.0024 21.95 17.6H20.45C20.45 19.174 19.174 20.45 17.6 20.45V21.95Z" fill="#141B34"/>
</svg>
