<svg width="24" height="24" viewBox="0 0 24 24" fill="none" xmlns="http://www.w3.org/2000/svg">
<path opacity="0.4" d="M5.31726 1.28632C5.88395 1.40345 6.33524 1.78419 6.61564 2.28722L7.50885 3.88967C7.83786 4.47987 8.11473 4.97655 8.29554 5.40832C8.48735 5.86634 8.60126 6.318 8.54919 6.81736C8.49711 7.31672 8.29246 7.73516 8.01029 8.14375C7.74428 8.52892 7.37088 8.9578 6.92718 9.46742L5.61417 10.9756C5.37889 11.2459 5.26124 11.381 5.25049 11.5499C5.23974 11.7188 5.33616 11.8631 5.529 12.1516C7.17259 14.6107 9.38773 16.8266 11.8488 18.4716C12.1374 18.6644 12.2816 18.7608 12.4505 18.7501C12.6194 18.7393 12.7546 18.6217 13.0248 18.3864L14.5331 17.0733C15.0427 16.6296 15.4716 16.2562 15.8568 15.9902C16.2653 15.708 16.6838 15.5034 17.1831 15.4513C17.6825 15.3992 18.1342 15.5132 18.5922 15.705C19.0239 15.8858 19.5206 16.1626 20.1107 16.4916L20.1109 16.4917L21.7133 17.3849C22.2163 17.6653 22.5971 18.1166 22.7142 18.6832C22.8325 19.2558 22.658 19.8314 22.2724 20.3044C20.8735 22.0208 18.6322 23.1136 16.281 22.6393C14.8358 22.3478 13.4098 21.8621 11.6851 20.873C8.2197 18.8856 5.11263 15.7768 3.12755 12.3155C2.13843 10.5907 1.65272 9.16476 1.36118 7.7195C0.88688 5.36827 1.97971 3.12699 3.69608 1.72809C4.16911 1.34255 4.74466 1.16798 5.31726 1.28632Z" fill="#141B34"/>
<path fill-rule="evenodd" clip-rule="evenodd" d="M14 2C14.5523 2 15 2.44772 15 3V10C15 10.5523 14.5523 11 14 11C13.4477 11 13 10.5523 13 10V3C13 2.44772 13.4477 2 14 2ZM20 2C20.5523 2 21 2.44772 21 3V10C21 10.5523 20.5523 11 20 11C19.4477 11 19 10.5523 19 10V3C19 2.44772 19.4477 2 20 2Z" fill="#141B34"/>
</svg>
