<svg width="24" height="24" viewBox="0 0 24 24" fill="none" xmlns="http://www.w3.org/2000/svg">
<path opacity="0.4" d="M15.4548 10.162L19.6905 7.76197C20.0515 7.55742 20.2321 7.45514 20.3789 7.53609C20.5257 7.61703 20.5354 7.8198 20.5548 8.2253C20.5808 8.77187 20.595 9.40551 20.611 10.1547C20.6234 10.7362 20.6283 11.1493 20.6259 11.5961C20.6228 12.1479 21.0583 12.6048 21.6101 12.6166C22.1618 12.6283 22.6207 12.1905 22.6242 11.6387C22.6272 11.1618 22.6221 10.7253 22.609 10.1121L22.6074 10.0368C22.5762 8.57128 22.5503 7.36037 22.3797 6.37916C22.1979 5.3336 21.8391 4.45811 21.0896 3.70674C20.6663 3.28228 20.1999 2.9827 19.684 2.76889C19.6055 2.72604 19.5214 2.69373 19.4337 2.67311C19.1039 2.55684 18.7546 2.47116 18.3843 2.40676C17.3834 2.23265 16.1415 2.20152 14.6321 2.16368L14.5573 2.16181C12.6015 2.11273 11.1485 2.11274 9.1927 2.16181L9.11785 2.16369C7.60849 2.20152 6.36661 2.23265 5.36564 2.40675C4.30328 2.59154 3.41376 2.95141 2.66036 3.70674C1.9109 4.45811 1.55205 5.3336 1.37026 6.37916C1.19965 7.36038 1.17383 8.57123 1.14258 10.0367L1.14097 10.1121C1.11967 11.1101 1.11968 11.64 1.14099 12.6379L1.1426 12.7133C1.17384 14.1788 1.19966 15.3896 1.37027 16.3709C1.55207 17.4164 1.91092 18.2919 2.66037 19.0433C3.41378 19.7986 4.30329 20.1585 5.36566 20.3433C6.36662 20.5174 7.6085 20.5485 9.11786 20.5863L9.19272 20.5882C9.79161 20.6032 10.3434 20.6137 10.8768 20.6195C11.428 20.6255 11.8748 20.1782 11.8748 19.627C11.8748 19.0758 11.428 18.6295 10.8768 18.6233C10.3596 18.6176 9.82427 18.6074 9.24291 18.5928C7.63997 18.5526 6.54674 18.5226 5.70855 18.3768C4.91527 18.2388 4.4531 18.0124 4.07622 17.6345C3.69538 17.2527 3.47276 16.7968 3.33932 16.0293C3.19761 15.2143 3.17236 14.1553 3.13905 12.5953C3.11834 11.6258 3.11833 11.1242 3.13903 10.1547C3.15503 9.40561 3.16916 8.77204 3.19523 8.22553C3.21457 7.82001 3.22424 7.61725 3.37108 7.5363C3.51792 7.45535 3.69843 7.55763 4.05945 7.76219L8.29485 10.162C9.59446 10.8984 10.6936 11.375 11.8748 11.375C13.056 11.375 14.1551 10.8984 15.4548 10.162Z" fill="#141B34"/>
<path fill-rule="evenodd" clip-rule="evenodd" d="M17.875 11.875C18.4273 11.875 18.875 12.3227 18.875 12.875V15.875H21.875C22.4273 15.875 22.875 16.3227 22.875 16.875C22.875 17.4273 22.4273 17.875 21.875 17.875H18.875V20.875C18.875 21.4273 18.4273 21.875 17.875 21.875C17.3227 21.875 16.875 21.4273 16.875 20.875V17.875H13.875C13.3227 17.875 12.875 17.4273 12.875 16.875C12.875 16.3227 13.3227 15.875 13.875 15.875H16.875L16.875 12.875C16.875 12.3227 17.3227 11.875 17.875 11.875Z" fill="#141B34"/>
</svg>
