<svg width="24" height="24" viewBox="0 0 24 24" fill="none" xmlns="http://www.w3.org/2000/svg">
<path opacity="0.4" d="M15.2502 10.211C15.2502 9.30066 14.7549 8.64329 14.1049 8.25314C13.482 7.87917 12.7062 7.73462 11.9829 7.75128C11.2579 7.76798 10.4953 7.94854 9.88823 8.32229C9.27054 8.70258 8.75018 9.33407 8.75018 10.211C8.75018 10.5505 8.68375 10.6797 8.64513 10.7311C8.60959 10.7784 8.52248 10.8605 8.24752 10.9337C7.52262 11.1268 6.88248 11.4276 6.25945 11.8701L4.23781 13.3057C3.44272 13.8699 2.86051 14.2831 2.53871 14.9598C2.24862 15.5698 2.24926 16.266 2.25009 17.1816L2.25018 17.3798C2.25016 18.2963 2.25014 19.0517 2.32255 19.6519C2.39809 20.2779 2.56245 20.8419 2.97114 21.3098C3.50907 21.9256 4.34397 22.1187 5.00442 22.1944C5.55863 22.2579 6.15119 22.2521 6.60982 22.2476C6.71744 22.2465 6.81787 22.2455 6.9085 22.2455H17.0919C17.1598 22.2455 17.2326 22.2458 17.3093 22.2462H17.3096C17.7871 22.2484 18.4197 22.2513 19.0139 22.1791C19.6662 22.0997 20.5064 21.9083 21.0292 21.3098C21.4379 20.8419 21.6023 20.2779 21.6778 19.6519C21.7502 19.0517 21.7502 18.2964 21.7502 17.3799L21.7503 17.1816C21.7511 16.266 21.7517 15.5698 21.4616 14.9598C21.1398 14.2831 20.5576 13.8699 19.7624 13.3056L17.7409 11.8701C17.1229 11.4312 16.4835 11.1283 15.7528 10.9337C15.4779 10.8605 15.3908 10.7784 15.3552 10.7311C15.3166 10.6797 15.2502 10.5505 15.2502 10.211Z" fill="#141B34"/>
<path fill-rule="evenodd" clip-rule="evenodd" d="M12 13.75C10.4812 13.75 9.25 14.9812 9.25 16.5C9.25 18.0188 10.4812 19.25 12 19.25C13.5188 19.25 14.75 18.0188 14.75 16.5C14.75 14.9812 13.5188 13.75 12 13.75Z" fill="#141B34"/>
<path d="M6.75401 2.47654C10.147 1.50782 13.8525 1.50782 17.2455 2.47654C18.6389 2.87436 19.6547 3.37335 20.5819 3.9756C22.2348 5.04933 22.9047 6.95705 22.7197 8.73287C22.6654 9.25395 22.4144 9.71591 21.9801 9.99514C21.5531 10.2697 21.041 10.3086 20.5681 10.1772C20.4647 10.1485 20.3604 10.1197 20.2554 10.0907C19.8965 9.99158 19.5297 9.8903 19.1669 9.78268C18.4466 9.56903 17.8469 9.29139 17.4303 8.76293C17.0251 8.24895 16.881 7.60457 16.7853 6.89974L16.4828 4.67133C16.4558 4.47262 16.4423 4.37326 16.3778 4.30368C16.3133 4.23409 16.2174 4.2136 16.0255 4.1726C13.3879 3.60913 10.6117 3.60913 7.97407 4.1726C7.78218 4.2136 7.68624 4.23409 7.62172 4.30368C7.5572 4.37326 7.54371 4.47262 7.51673 4.67133L7.2142 6.89974C7.11851 7.60457 6.97446 8.24895 6.56924 8.76293C6.15261 9.29139 5.55297 9.56903 4.83266 9.78268C4.46983 9.8903 4.10304 9.99157 3.74416 10.0907L3.74294 10.091C3.63835 10.1199 3.53443 10.1486 3.43147 10.1772C2.95855 10.3086 2.44648 10.2697 2.01945 9.99514C1.58511 9.71591 1.33419 9.25395 1.27988 8.73287C1.09482 6.95705 1.7647 5.04933 3.41767 3.9756C4.34482 3.37335 5.36064 2.87436 6.75401 2.47654Z" fill="#141B34"/>
</svg>
