<svg width="24" height="24" viewBox="0 0 24 24" fill="none" xmlns="http://www.w3.org/2000/svg">
<path d="M9.7812 3.09766L5.6718 5.89369C4.3639 6.78359 3.70995 7.22854 3.35498 7.90548C3 8.58242 3 9.38456 3 10.9888V17.9176C3 19.8421 3 20.8043 3.58579 21.4021C4.17157 22 5.11438 22 7 22H17C18.8856 22 19.8284 22 20.4142 21.4021C21 20.8043 21 19.8421 21 17.9176V10.9888C21 9.38456 21 8.58242 20.645 7.90548C20.29 7.22854 19.6361 6.78359 18.3282 5.89369L14.2188 3.09766C13.1433 2.36589 12.6056 2 12 2C11.3944 2 10.8567 2.36589 9.7812 3.09766Z" stroke="#141B34" stroke-width="1.5" stroke-linecap="round" stroke-linejoin="round"/>
<path opacity="0.4" d="M6.25 22C6.25 22.4142 6.58579 22.75 7 22.75C7.41421 22.75 7.75 22.4142 7.75 22H6.25ZM16.25 22C16.25 22.4142 16.5858 22.75 17 22.75C17.4142 22.75 17.75 22.4142 17.75 22H16.25ZM16.4142 11.5858L15.8839 12.1161L15.8839 12.1161L16.4142 11.5858ZM7 13.25C6.58579 13.25 6.25 13.5858 6.25 14C6.25 14.4142 6.58579 14.75 7 14.75V13.25ZM17 14.75C17.4142 14.75 17.75 14.4142 17.75 14C17.75 13.5858 17.4142 13.25 17 13.25V14.75ZM7 17.25C6.58579 17.25 6.25 17.5858 6.25 18C6.25 18.4142 6.58579 18.75 7 18.75V17.25ZM17 18.75C17.4142 18.75 17.75 18.4142 17.75 18C17.75 17.5858 17.4142 17.25 17 17.25V18.75ZM13 10.25H11V11.75H13V10.25ZM6.25 15V22H7.75V15H6.25ZM17.75 22V15H16.25V22H17.75ZM11 10.25C10.0784 10.25 9.31174 10.2484 8.70552 10.3299C8.07773 10.4143 7.51093 10.6 7.05546 11.0555L8.11612 12.1161C8.24643 11.9858 8.44393 11.8786 8.90539 11.8165C9.38843 11.7516 10.036 11.75 11 11.75V10.25ZM7.75 15C7.75 14.036 7.75159 13.3884 7.81654 12.9054C7.87858 12.4439 7.9858 12.2464 8.11612 12.1161L7.05546 11.0555C6.59999 11.5109 6.41432 12.0777 6.32991 12.7055C6.24841 13.3117 6.25 14.0784 6.25 15H7.75ZM13 11.75C13.964 11.75 14.6116 11.7516 15.0946 11.8165C15.5561 11.8786 15.7536 11.9858 15.8839 12.1161L16.9445 11.0555C16.4891 10.6 15.9223 10.4143 15.2945 10.3299C14.6883 10.2484 13.9216 10.25 13 10.25V11.75ZM17.75 15C17.75 14.0784 17.7516 13.3117 17.6701 12.7055C17.5857 12.0777 17.4 11.5109 16.9445 11.0555L15.8839 12.1161C16.0142 12.2464 16.1214 12.4439 16.1835 12.9054C16.2484 13.3884 16.25 14.036 16.25 15H17.75ZM7 14.75H17V13.25H7V14.75ZM7 18.75H17V17.25H7V18.75Z" fill="#141B34"/>
<path d="M12.008 7L11.999 7" stroke="#141B34" stroke-width="2" stroke-linecap="round" stroke-linejoin="round"/>
</svg>
