<svg width="24" height="24" viewBox="0 0 24 24" fill="none" xmlns="http://www.w3.org/2000/svg">
<path d="M7.25 8.75C7.25 6.12665 9.37665 4 12 4C14.6234 4 16.75 6.12665 16.75 8.75C16.75 11.3734 14.6234 13.5 12 13.5C9.37665 13.5 7.25 11.3734 7.25 8.75Z" fill="#141B34"/>
<path fill-rule="evenodd" clip-rule="evenodd" d="M8.5579 17.0286C9.05839 15.2769 9.39443 13.4379 9.39443 12.5929H11.3944C11.3944 13.7479 10.9805 15.8297 10.481 17.578C9.97459 19.3502 9.32964 21.1689 8.78885 22.2505L7 21.3561C7.45921 20.4377 8.06426 18.7563 8.5579 17.0286Z" fill="#141B34"/>
<path fill-rule="evenodd" clip-rule="evenodd" d="M15.4421 17.0284C14.9416 15.2768 14.6056 13.4378 14.6056 12.5928H12.6056C12.6056 13.7477 13.0195 15.8296 13.519 17.5779C14.0254 19.3501 14.6704 21.1688 15.2111 22.2504L17 21.3559C16.5408 20.4375 15.9357 18.7562 15.4421 17.0284Z" fill="#141B34"/>
<path fill-rule="evenodd" clip-rule="evenodd" d="M13 1.75L13 4.75L11 4.75L11 1.75L13 1.75Z" fill="#141B34"/>
<path fill-rule="evenodd" clip-rule="evenodd" d="M16 16.75H8V14.75H16V16.75Z" fill="#141B34"/>
</svg>
