<svg width="24" height="24" viewBox="0 0 24 24" fill="none" xmlns="http://www.w3.org/2000/svg">
<path d="M4.08175 2.25C3.70036 2.25 3.37997 2.53736 3.33786 2.91719L3.07925 5.24988H9.07629L8.81746 2.91719C8.77534 2.53736 8.45495 2.25001 8.07357 2.25001L4.08175 2.25Z" fill="#141B34"/>
<path d="M9.24272 6.74988H2.91296L1.25 21.75H10.9071L9.24272 6.74988Z" fill="#141B34"/>
<path fill-rule="evenodd" clip-rule="evenodd" d="M22.7503 5.59857L22.7496 21.75H12.4068C12.4068 21.6951 12.4038 21.6399 12.3977 21.5848L11.002 9.00589L16.7625 5.70767V9.59861L22.7503 5.59857ZM16.0193 15.7501H14.0234L14.0234 14.2501H16.0193V15.7501ZM18.0117 15.7501H20.0076V14.2501H18.0117V15.7501Z" fill="#141B34"/>
</svg>
