<svg width="24" height="24" viewBox="0 0 24 24" fill="none" xmlns="http://www.w3.org/2000/svg">
<path fill-rule="evenodd" clip-rule="evenodd" d="M22 22.75H2V21.25H22V22.75Z" fill="#141B34"/>
<path fill-rule="evenodd" clip-rule="evenodd" d="M20.751 22V13.25L3.25098 13.25L3.25098 22C3.25098 22.4142 3.58676 22.75 4.00098 22.75L20.001 22.75C20.4152 22.75 20.751 22.4142 20.751 22ZM9.49902 16.25C9.08481 16.25 8.74902 16.5858 8.74902 17V22H10.249V17.75H13.749V22H15.249V17C15.249 16.5858 14.9132 16.25 14.499 16.25H9.49902ZM7.49902 16.75H5.49902V15.25H7.49902V16.75ZM18.499 15.25H16.499V16.75H18.499V15.25Z" fill="#141B34"/>
<path d="M12.409 1.37117C12.1784 1.2213 11.8843 1.20963 11.6426 1.34077C11.4009 1.47191 11.2503 1.72482 11.2503 1.99982L11.2494 5.41439L5.75098 6.78911V3H4.25098V7.16414L1.81821 7.77238C1.48444 7.85583 1.25025 8.15568 1.25013 8.49973L1.24902 11.75H22.7503V8.49998C22.7503 8.24612 22.6218 8.0095 22.409 7.87115L12.409 1.37117Z" fill="#141B34"/>
</svg>
