<svg width="24" height="24" viewBox="0 0 24 24" fill="none" xmlns="http://www.w3.org/2000/svg">
<path d="M15.3056 4.32152L15.3217 4.36171L15.6608 5.07839C15.7104 5.18322 15.816 5.25008 15.932 5.25008H20C20.5523 5.25008 21 5.69779 21 6.25008C21 6.80236 20.5523 7.25008 20 7.25008H15.0225C15.0072 7.25043 14.992 7.25043 14.9767 7.25008H9.02326C9.00804 7.25043 8.99277 7.25043 8.97747 7.25008H4C3.44772 7.25008 3 6.80236 3 6.25008C3 5.69779 3.44772 5.25008 4 5.25008H8.068C8.18398 5.25008 8.28958 5.18322 8.33918 5.07839L8.67828 4.36171L8.69436 4.32152C9.07402 3.37238 9.99329 2.75 11.0155 2.75H12.9845C14.0067 2.75 14.926 3.37238 15.3056 4.32152Z" fill="#141B34"/>
<path d="M2.5 8.74995C1.94772 8.74995 1.5 9.19767 1.5 9.74995C1.5 10.3022 1.94772 10.75 2.5 10.75H2.81266C3.07288 10.75 3.20299 10.75 3.28892 10.8284C3.37485 10.9069 3.38663 11.0365 3.41019 11.2956L3.76176 15.1629C3.87554 16.4147 3.96752 17.4266 4.14441 18.22C4.3284 19.0453 4.62354 19.7327 5.21092 20.2691C5.7983 20.8055 6.50961 21.0372 7.34815 21.1457C8.15433 21.25 9.1704 21.25 10.4274 21.25H13.5727C14.8297 21.25 15.8458 21.25 16.6519 21.1457C17.4905 21.0372 18.2018 20.8055 18.7892 20.2691C19.3766 19.7327 19.6717 19.0453 19.8557 18.22C20.0326 17.4266 20.1245 16.4147 20.2383 15.1629L20.5899 11.2956C20.6135 11.0365 20.6252 10.9069 20.7112 10.8284C20.7971 10.75 20.9272 10.75 21.1874 10.75H21.5C22.0523 10.75 22.5 10.3022 22.5 9.74995C22.5 9.19767 22.0523 8.74995 21.5 8.74995H2.5Z" fill="#141B34"/>
</svg>
