<svg width="24" height="24" viewBox="0 0 24 24" fill="none" xmlns="http://www.w3.org/2000/svg">
<path fill-rule="evenodd" clip-rule="evenodd" d="M18.2824 2C21.0187 4.1959 22.7501 7.90439 22.7501 12.0003C22.7501 16.0962 20.9939 19.8041 18.2576 22L16.6929 20.0502C18.7786 18.3764 20.2501 15.4175 20.2501 12.0003C20.2501 8.58308 18.8034 5.6236 16.7177 3.94978L18.2824 2Z" fill="#141B34"/>
<path fill-rule="evenodd" clip-rule="evenodd" d="M5.71764 2C2.98136 4.1959 1.25 7.90439 1.25 12.0003C1.25 16.0962 3.0062 19.8041 5.74247 22L7.30719 20.0502C5.22148 18.3764 3.75 15.4175 3.75 12.0003C3.75 8.58308 5.19665 5.6236 7.28236 3.94978L5.71764 2Z" fill="#141B34"/>
</svg>
