<svg width="24" height="24" viewBox="0 0 24 24" fill="none" xmlns="http://www.w3.org/2000/svg">
<path d="M18.8215 16.8753C17.9652 16.2312 17.2863 15.3703 16.7331 14.4587C16.6529 14.3236 16.576 14.1877 16.5019 14.0516C16.1945 13.4867 15.9426 12.9276 15.7208 12.4127L15.6561 12.2616C16.8855 12.3244 18.0049 11.9902 18.8964 11.3364L19.5507 10.8565L18.5649 9.52405L17.9106 10.004C17.1073 10.5931 15.9167 10.8401 14.479 10.363L14.0902 10.2339L11.1695 12.2004L11.1578 12.2086C10.4612 12.6951 9.50535 12.6161 8.90336 12.0274C8.20809 11.3475 8.23414 10.243 8.9631 9.59494L11.7525 7.11524C12.5522 6.40431 13.6293 6.06141 14.7095 6.17878L16.1535 6.33568C17.4191 6.47319 18.695 6.1702 19.7572 5.47772L22.25 3.85262V15.2016C21.5667 15.7931 20.7026 16.2218 19.9432 16.5126C19.5242 16.6731 19.1533 16.7854 18.8888 16.8573L18.8215 16.8753Z" fill="#141B34"/>
<path d="M14.9626 14.7105C15.0708 14.9083 15.1857 15.1089 15.3079 15.3104C15.8237 16.1781 16.4863 17.0696 17.3635 17.8291C16.7669 18.2938 15.9302 18.7875 14.9085 19.21C13.4386 19.818 11.6538 20.25 9.78378 20.25C7.58977 20.25 5.56495 19.0266 4.02676 17.6949C3.26933 17.0391 2.6579 16.3812 2.23606 15.8871C2.02564 15.6406 1.86368 15.4364 1.75562 15.2956L1.75 15.2883V3.75L4.38392 5.25358C4.54069 5.34307 4.72247 5.37925 4.90175 5.35664C6.97336 5.09534 8.64697 5.42107 9.79572 5.80599C10.0384 5.8873 10.2576 5.97124 10.4519 6.0528L7.85606 8.36049C6.4115 9.64469 6.35684 11.8568 7.73865 13.2081C8.91319 14.3566 10.7568 14.5058 12.1062 13.5677L13.8616 12.3857C13.9234 12.5289 13.99 12.683 14.0626 12.8487C14.3062 13.4046 14.6007 14.0487 14.9626 14.7105Z" fill="#141B34"/>
</svg>
