<svg width="24" height="24" viewBox="0 0 24 24" fill="none" xmlns="http://www.w3.org/2000/svg">
<path d="M21.3358 22.75L1.25 2.66421L2.66421 1.25L22.75 21.3358L21.3358 22.75Z" fill="#141B34"/>
<path d="M19.8127 7.19118H18.1142V5.25H20.7833C21.3194 5.25 21.7539 5.68455 21.7539 6.22059V18.2184L19.8127 16.2772V7.19118Z" fill="#141B34"/>
<path d="M20.7833 21.75H6.22449C5.68845 21.75 5.25391 21.3155 5.25391 20.7794V18.1103H7.19508V19.8088H19.8088L21.4677 21.4677C21.2922 21.6422 21.0503 21.75 20.7833 21.75Z" fill="#141B34"/>
<path d="M2.25195 3.22059V17.7794C2.25195 18.3155 2.6865 18.75 3.22254 18.75H17.7814C18.0488 18.75 18.2909 18.6419 18.4665 18.4669L10.8369 10.8373L4.20178 16.8088H4.19313V4.19357L2.53504 2.53548C2.3601 2.71102 2.25195 2.95318 2.25195 3.22059Z" fill="#141B34"/>
<path d="M18.752 3.22059C18.752 2.68455 18.3174 2.25 17.7814 2.25H5.78509L7.72627 4.19118H16.8108V10.7501L14.0269 7.96631L12.6977 9.16261L18.752 15.2169V3.22059Z" fill="#141B34"/>
</svg>
