<svg width="24" height="24" viewBox="0 0 24 24" fill="none" xmlns="http://www.w3.org/2000/svg">
<path fill-rule="evenodd" clip-rule="evenodd" d="M2.25 3C2.25 2.58579 2.58579 2.25 3 2.25H21C21.4142 2.25 21.75 2.58579 21.75 3V21C21.75 21.4142 21.4142 21.75 21 21.75H3C2.58579 21.75 2.25 21.4142 2.25 21V3ZM7.75012 16V18H6.25012V16H7.75012ZM12.7501 18V15H11.2501V18H12.7501ZM17.7501 13V18H16.2501V13H17.7501ZM13.5 7.75H15.3006C14.9269 8.09737 14.4562 8.48965 13.8864 8.8826C12.1769 10.0617 9.57282 11.25 6 11.25V12.75C9.92718 12.75 12.8229 11.4383 14.7381 10.1174C15.3375 9.70399 15.8405 9.28998 16.2495 8.91538V10.5H17.7495V6.25H13.5V7.75Z" fill="#141B34"/>
</svg>
