<svg width="24" height="24" viewBox="0 0 24 24" fill="none" xmlns="http://www.w3.org/2000/svg">
<path fill-rule="evenodd" clip-rule="evenodd" d="M11.473 19.3916L8.77082 22.6342L7.23438 21.3538L9.9613 18.0815L7.92823 16.3195L5.35076 16.7059C5.24081 16.7342 5.12394 16.75 5 16.75C4.28166 16.75 3.8008 16.2193 3.52678 15.7906C3.23115 15.3281 3.00103 14.7225 2.82224 14.0612C2.4611 12.7254 2.25 10.9363 2.25 9C2.25 7.06369 2.4611 5.2746 2.82224 3.9388C3.00103 3.27749 3.23115 2.6719 3.52678 2.20939C3.8008 1.78069 4.28166 1.25 5 1.25C5.11653 1.25 5.2268 1.26397 5.33096 1.28919L16.2182 2.84451C17.831 3.07491 19.2296 3.66443 20.2265 4.71372C21.2322 5.77224 21.7518 7.21727 21.7518 8.99979C21.7518 11.1578 20.7559 13.9441 18.2337 14.7643C18.1943 14.7771 18.154 14.7866 18.113 14.7927L14.9043 15.2737L12.7536 17.8549L16.6575 21.2383L15.3477 22.7497L11.473 19.3916ZM11.9285 15.7197L14.9043 15.2737L18.7701 10.6339L17.2337 9.35352L11.9285 15.7197ZM11.9285 15.7197L11.2412 16.5447L10.5312 15.9292L11.9285 15.7197ZM6.8797 3.02567L9.35518 3.37931C9.74799 4.66485 10.0018 6.70402 10.0018 8.99979C10.0018 11.276 9.75228 13.3 9.36516 14.5873L6.88574 14.959C6.99575 14.6787 7.09258 14.3763 7.17776 14.0612C7.5389 12.7254 7.75 10.9363 7.75 9C7.75 7.06369 7.5389 5.2746 7.17776 3.9388C7.09103 3.61798 6.99221 3.31028 6.8797 3.02567ZM4.08333 9C4.08333 7.19113 4.28264 5.5896 4.58503 4.47107C4.72187 3.96494 4.86826 3.6015 5 3.37027C5.13174 3.6015 5.27813 3.96494 5.41497 4.47107C5.71736 5.5896 5.91667 7.19113 5.91667 9C5.91667 10.8089 5.71736 12.4104 5.41497 13.5289C5.27813 14.0351 5.13174 14.3985 5 14.6297C4.86826 14.3985 4.72187 14.0351 4.58503 13.5289C4.28264 12.4104 4.08333 10.8089 4.08333 9Z" fill="#141B34"/>
</svg>
