<svg width="24" height="24" viewBox="0 0 24 24" fill="none" xmlns="http://www.w3.org/2000/svg">
<path fill-rule="evenodd" clip-rule="evenodd" d="M9.452 1.95501C10.0732 2.32774 10.5676 2.79869 10.8321 3.1953L9.16795 4.3047C9.09902 4.20131 8.84344 3.92226 8.423 3.66999C8.01715 3.42648 7.52678 3.25 7 3.25V1.25C7.97322 1.25 8.81619 1.57352 9.452 1.95501ZM15.577 3.66999C15.1566 3.92226 14.901 4.20131 14.8321 4.3047L13.1679 3.1953C13.4324 2.79869 13.9268 2.32774 14.548 1.95501C15.1838 1.57352 16.0268 1.25 17 1.25V3.25C16.4732 3.25 15.9829 3.42648 15.577 3.66999Z" fill="#141B34"/>
<path fill-rule="evenodd" clip-rule="evenodd" d="M13 6C13 5.44772 12.5523 5 12 5C11.4477 5 11 5.44772 11 6C11 6.19388 10.8891 6.66571 10.3598 7.10678C9.83758 7.54198 8.83733 8 7 8C5.16267 8 4.16242 7.54198 3.64018 7.10678C3.1109 6.66571 3 6.19388 3 6H1C1 6.80612 1.3891 7.83429 2.35982 8.64322C2.61899 8.8592 2.91485 9.05601 3.25 9.22864V9.79041C3.25 11.2248 3.53384 12.6184 3.82851 13.9232C4.35919 16.2729 4.5725 19.4279 3.34458 21.6354C3.21536 21.8677 3.21876 22.151 3.3535 22.3802C3.48823 22.6093 3.73419 22.75 4 22.75H20C20.2658 22.75 20.5118 22.6093 20.6465 22.3802C20.7812 22.151 20.7846 21.8677 20.6554 21.6354C19.4275 19.4279 19.6408 16.2729 20.1715 13.9232C20.4662 12.6184 20.75 11.2248 20.75 9.79041V9.22864C21.0852 9.05601 21.381 8.8592 21.6402 8.64322C22.6109 7.83429 23 6.80612 23 6H21C21 6.19388 20.8891 6.66571 20.3598 7.10678C19.8376 7.54198 18.8373 8 17 8C15.1627 8 14.1624 7.54198 13.6402 7.10678C13.1109 6.66571 13 6.19388 13 6ZM12.5159 17.4552L12.0298 16.9956L11.5178 17.4264C10.8541 17.9848 10.3603 18.2242 9.95775 18.2482C9.60471 18.2692 9.15499 18.131 8.54632 17.4856L7.45508 18.5148C8.24583 19.3533 9.09857 19.802 10.0469 19.7455C10.7439 19.704 11.3853 19.3926 11.9793 18.9678C12.5695 19.4189 13.2114 19.712 13.9239 19.7265C14.8439 19.7453 15.6928 19.2965 16.5062 18.5543L15.4952 17.4462C14.8236 18.059 14.333 18.2346 13.9546 18.2269C13.5722 18.219 13.1141 18.0207 12.5159 17.4552ZM11.25 12.6416V11H12.75V12.664C13.236 13.0706 13.6237 13.2201 13.9546 13.2269C14.333 13.2346 14.8236 13.059 15.4952 12.4462L16.5062 13.5543C15.6928 14.2965 14.8439 14.7453 13.9239 14.7265C13.2114 14.712 12.5695 14.4189 11.9793 13.9678C11.3853 14.3926 10.7439 14.704 10.0469 14.7455C9.09857 14.802 8.24583 14.3533 7.45508 13.5148L8.54632 12.4856C9.15499 13.131 9.60471 13.2692 9.95775 13.2482C10.3042 13.2276 10.7182 13.0474 11.25 12.6416Z" fill="#141B34"/>
</svg>
