<svg width="24" height="24" viewBox="0 0 24 24" fill="none" xmlns="http://www.w3.org/2000/svg">
<path fill-rule="evenodd" clip-rule="evenodd" d="M19.7454 7.11754C21.4099 8.03373 21.9841 9.81578 21.6651 11.394C21.3092 13.1555 19.8295 14.75 17.5218 14.75C17.4297 14.75 17.3381 14.7472 17.2472 14.7416C16.9885 14.9611 16.5546 15.5029 16.1501 16.5471C15.6846 17.7487 15.2927 19.5325 15.2503 22.0128L15.2377 22.7499H8.76312L8.75053 22.0128C8.70816 19.5325 8.31622 17.7487 7.85075 16.5471C7.44766 15.5066 7.01538 14.9649 6.75642 14.7439C6.67673 14.748 6.59656 14.75 6.51598 14.75C4.59261 14.75 3.15697 13.6936 2.55629 12.2769C1.99935 10.9634 2.18217 9.38038 3.27786 8.17781C3.21951 7.63432 3.30426 7.08767 3.50183 6.58399C4.04707 5.19399 5.4613 4.08394 7.29309 4.0218C7.67525 2.41512 9.21619 1.25 10.9743 1.25C12.5099 1.25 13.9848 2.02084 14.5274 3.37869C14.9846 3.19623 15.4866 3.09615 16.0109 3.09615C18.0311 3.09615 19.7828 4.61146 19.7828 6.61538C19.7828 6.78655 19.77 6.95414 19.7454 7.11754ZM10.9747 2.75C9.66763 2.75 8.70276 3.73394 8.70276 4.79869C8.70276 5.01292 8.61115 5.21692 8.45104 5.35924C8.29093 5.50157 8.0776 5.56863 7.86485 5.54352C6.34898 5.3646 5.26572 6.19583 4.8986 7.13174C4.71568 7.59808 4.71377 8.075 4.89408 8.48698C5.07155 8.89247 5.46096 9.31508 6.21186 9.60942L5.66442 11.006C4.93812 10.7213 4.36817 10.3132 3.96506 9.81667C3.67724 10.4339 3.68993 11.1072 3.93764 11.6914C4.29818 12.5417 5.18201 13.25 6.51633 13.25C7.85569 13.25 8.9233 12.4468 9.25491 11.4384C9.32647 11.2208 9.49356 11.0478 9.70856 10.9688C9.92356 10.8897 10.1629 10.9133 10.3584 11.0327C10.9668 11.4044 11.5139 11.4697 11.9803 11.3472C12.4568 11.2219 12.9472 10.8741 13.3746 10.2397C13.5589 9.96615 13.9003 9.84512 14.2157 9.94146C14.5311 10.0378 14.7466 10.3289 14.7466 10.6588C14.7466 12.0524 15.9508 13.25 17.5222 13.25C19.0278 13.25 19.9625 12.2487 20.1952 11.0969C20.3908 10.1292 20.0828 9.11666 19.1807 8.5283C18.498 9.50822 17.3101 10.1346 16.0112 10.1346V8.63462C17.329 8.63462 18.2832 7.67027 18.2832 6.61538C18.2832 5.5605 17.329 4.59615 16.0112 4.59615C15.4103 4.59615 14.8724 4.80295 14.4722 5.13119C14.2481 5.31506 13.938 5.35324 13.6759 5.22923C13.4138 5.10522 13.2466 4.84124 13.2466 4.55129C13.2466 3.57089 12.3785 2.75 10.9747 2.75Z" fill="#141B34"/>
</svg>
