<svg width="24" height="24" viewBox="0 0 24 24" fill="none" xmlns="http://www.w3.org/2000/svg">
<path fill-rule="evenodd" clip-rule="evenodd" d="M8.32915 1.66465C8.45618 1.41053 8.7159 1.25 9 1.25H15C15.2841 1.25 15.5438 1.4105 15.6708 1.66459L17.4635 5.25H22.0009C22.4152 5.25 22.7509 5.58579 22.7509 6V22.0003C22.7509 22.4145 22.4152 22.7503 22.0009 22.7503H2C1.58579 22.7503 1.25 22.4145 1.25 22.0003V6.00083C1.25 5.58662 1.58579 5.25083 2 5.25083H6.53643L8.32915 1.66465ZM13 5H11V7H13V5ZM8 14.4659C8 16.6939 9.85201 18.5 12.1366 18.5C13.8991 18.5 15.4042 17.425 16 15.9106C15.7533 15.9553 15.499 15.9787 15.239 15.9787C12.9544 15.9787 11.1024 14.1726 11.1024 11.9447C11.1024 11.4356 11.1991 10.9485 11.3756 10.5C9.45451 10.8484 8 12.4915 8 14.4659Z" fill="#141B34"/>
</svg>
