<svg width="24" height="24" viewBox="0 0 24 24" fill="none" xmlns="http://www.w3.org/2000/svg">
<path fill-rule="evenodd" clip-rule="evenodd" d="M21.7502 14.7072L15.043 21.4143L12.3359 18.7072L13.7502 17.293L15.043 18.5859L20.3359 13.293L21.7502 14.7072Z" fill="#141B34"/>
<path fill-rule="evenodd" clip-rule="evenodd" d="M4.5 6.75C4.5 3.71243 6.96243 1.25 10 1.25C13.0376 1.25 15.5 3.71243 15.5 6.75V9.75H13.5V6.75C13.5 4.817 11.933 3.25 10 3.25C8.067 3.25 6.5 4.817 6.5 6.75V9.75H4.5V6.75Z" fill="#141B34"/>
<path d="M10 7.25C5.71979 7.25 2.25 10.7198 2.25 15C2.25 19.2802 5.71979 22.75 10 22.75C11.2392 22.75 12.4106 22.4591 13.4494 21.942L10.2148 18.7074L13.7504 15.1719L15.0433 16.4648L17.6643 13.8437C17.1061 10.1119 13.8873 7.25 10 7.25Z" fill="#141B34"/>
</svg>
