<svg width="24" height="24" viewBox="0 0 24 24" fill="none" xmlns="http://www.w3.org/2000/svg">
<path d="M17 14.75C17 15.3023 16.5523 15.75 16 15.75C15.4477 15.75 15 15.3023 15 14.75C15 14.1977 15.4477 13.75 16 13.75C16.5523 13.75 17 14.1977 17 14.75Z" fill="#141B34"/>
<path d="M9 14.75C9 15.3023 8.55228 15.75 8 15.75C7.44772 15.75 7 15.3023 7 14.75C7 14.1977 7.44772 13.75 8 13.75C8.55228 13.75 9 14.1977 9 14.75Z" fill="#141B34"/>
<path d="M9 18.75C9 19.3023 8.55228 19.75 8 19.75C7.44772 19.75 7 19.3023 7 18.75C7 18.1977 7.44772 17.75 8 17.75C8.55228 17.75 9 18.1977 9 18.75Z" fill="#141B34"/>
<path d="M13 16.75C13 17.3023 12.5523 17.75 12 17.75C11.4477 17.75 11 17.3023 11 16.75C11 16.1977 11.4477 15.75 12 15.75C12.5523 15.75 13 16.1977 13 16.75Z" fill="#141B34"/>
<path d="M17 18.75C17 19.3023 16.5523 19.75 16 19.75C15.4477 19.75 15 19.3023 15 18.75C15 18.1977 15.4477 17.75 16 17.75C16.5523 17.75 17 18.1977 17 18.75Z" fill="#141B34"/>
<path d="M13 20.75C13 21.3023 12.5523 21.75 12 21.75C11.4477 21.75 11 21.3023 11 20.75C11 20.1977 11.4477 19.75 12 19.75C12.5523 19.75 13 20.1977 13 20.75Z" fill="#141B34"/>
<path d="M5.853 7.36454C3.22664 7.89643 1.25 10.217 1.25 13C1.25 15.6594 3.05546 17.8972 5.50754 18.5544C5.5646 17.8171 5.94153 17.1694 6.49976 16.75C5.89267 16.2939 5.5 15.5678 5.5 14.75C5.5 13.3693 6.61929 12.25 8 12.25C9.38065 12.25 10.4999 13.3692 10.5 14.7498C10.9178 14.436 11.4372 14.25 12 14.25C12.5628 14.25 13.0822 14.436 13.5 14.7498C13.5001 13.3692 14.6193 12.25 16 12.25C17.3807 12.25 18.5 13.3693 18.5 14.75C18.5 15.5678 18.1073 16.2939 17.5002 16.75C18.0838 17.1884 18.4692 17.8763 18.4982 18.6552C20.9203 18.189 22.75 16.0582 22.75 13.5C22.75 10.8541 20.7927 8.66534 18.2469 8.30273C18.1428 4.94224 15.3858 2.25 12 2.25C8.93585 2.25 6.38731 4.45456 5.853 7.36454Z" fill="#141B34"/>
</svg>
