<svg width="24" height="24" viewBox="0 0 24 24" fill="none" xmlns="http://www.w3.org/2000/svg">
<path fill-rule="evenodd" clip-rule="evenodd" d="M13.2535 15.326C13.2081 14.417 13.6011 13.564 14.5203 12.7539L15.5121 13.8792C14.846 14.4662 14.7344 14.9058 14.7516 15.2512C14.773 15.6791 14.9935 16.1397 15.3483 16.785C15.3742 16.8322 15.4009 16.8804 15.4282 16.9297C15.7391 17.4915 16.1228 18.1847 16.2769 18.9391C16.4576 19.8236 16.3254 20.7669 15.628 21.7504L14.4044 20.8827C14.8586 20.2421 14.906 19.7226 14.8073 19.2393C14.7011 18.7198 14.4264 18.2207 14.0889 17.6078C14.0707 17.5748 14.0524 17.5414 14.0338 17.5076C13.7043 16.9083 13.2948 16.1525 13.2535 15.326ZM16.4535 15.326C16.4081 14.417 16.8011 13.564 17.7203 12.7539L18.7121 13.8792C18.046 14.4662 17.9344 14.9058 17.9516 15.2512C17.973 15.6791 18.1935 16.1397 18.5483 16.785C18.5742 16.8322 18.6009 16.8804 18.6282 16.9297C18.9391 17.4915 19.3228 18.1847 19.4769 18.9391C19.6576 19.8236 19.5254 20.7669 18.828 21.7504L17.6044 20.8827C18.0586 20.2421 18.106 19.7226 18.0073 19.2393C17.9011 18.7198 17.6264 18.2207 17.2889 17.6078C17.2707 17.5748 17.2524 17.5414 17.2338 17.5076C16.9043 16.9083 16.4948 16.1525 16.4535 15.326ZM19.6535 15.326C19.6081 14.417 20.0011 13.564 20.9203 12.7539L21.9121 13.8792C21.246 14.4662 21.1344 14.9058 21.1516 15.2512C21.173 15.6791 21.3935 16.1397 21.7483 16.785C21.7742 16.8322 21.8009 16.8804 21.8282 16.9297C22.1391 17.4915 22.5228 18.1848 22.6769 18.9391C22.8576 19.8236 22.7254 20.7669 22.028 21.7504L20.8044 20.8827C21.2586 20.2421 21.306 19.7226 21.2073 19.2393C21.1011 18.7198 20.8264 18.2207 20.4889 17.6078C20.4707 17.5748 20.4524 17.5414 20.4338 17.5076C20.1043 16.9083 19.6948 16.1525 19.6535 15.326Z" fill="#141B34"/>
<path d="M1.25 3C1.25 2.58579 1.58579 2.25 2 2.25H22C22.4142 2.25 22.75 2.58579 22.75 3V7.25H1.25V3Z" fill="#141B34"/>
<path d="M1.25 8.75H22.75V12.5609L21.0538 10.6364L19.9285 11.6282C19.6965 11.8327 19.484 12.0464 19.2928 12.2691L17.8538 10.6364L16.7285 11.6282C16.4965 11.8327 16.284 12.0464 16.0928 12.2691L14.6538 10.6364L13.5285 11.6282C12.3579 12.66 11.6818 13.9261 11.7555 15.4005C11.8148 16.5872 12.3778 17.6095 12.6912 18.1786C13.0599 18.8483 13.2864 19.2879 13.3377 19.5391C13.3549 19.6236 13.3514 19.6641 13.3447 19.696C13.3424 19.7072 13.338 19.7251 13.329 19.75H2C1.58579 19.75 1.25 19.4142 1.25 19V8.75Z" fill="#141B34"/>
</svg>
