<svg width="24" height="24" viewBox="0 0 24 24" fill="none" xmlns="http://www.w3.org/2000/svg">
<path d="M5.08298 11.7457C5.94804 13.1708 7.02544 14.5303 8.24816 15.7521C9.46981 16.9746 10.8292 18.0523 12.254 18.9174L15.8319 15.0788L22.75 19.0189C21.7459 20.8831 19.3379 23.2672 16.2785 22.6508C14.8327 22.3591 13.4059 21.8729 11.6806 20.8831C9.94403 19.8868 8.30439 18.6143 6.84762 17.1565C5.38978 15.6997 4.11324 14.056 3.11692 12.3194C2.12706 10.5941 1.64092 9.16735 1.34916 7.72156C0.732841 4.66214 3.11692 2.25408 4.98109 1.25L8.92117 8.16817L5.08298 11.7457Z" fill="#141B34"/>
<path fill-rule="evenodd" clip-rule="evenodd" d="M10.75 6.25H14.25V10.25H12.25V11.25H14.25V12.75H10.75V8.75H12.75V7.75H10.75V6.25ZM16.6071 6.25V8.75H17.25V6.25H18.75V12.75H17.25V10.25H15.1071V6.25H16.6071Z" fill="#141B34"/>
<path fill-rule="evenodd" clip-rule="evenodd" d="M19.4599 4.54162C17.0711 2.15279 13.1981 2.15279 10.8093 4.54162C10.7236 4.62725 10.6411 4.71473 10.5617 4.8039L9.44141 3.80645C9.54006 3.69564 9.64246 3.58709 9.74859 3.48096C12.7232 0.506348 17.546 0.506348 20.5206 3.48096C23.4952 6.45556 23.4952 11.2784 20.5206 14.253C20.4145 14.3591 20.3059 14.4615 20.1951 14.5601L19.1976 13.4399C19.2868 13.3604 19.3743 13.2779 19.4599 13.1923C21.8488 10.8035 21.8488 6.93044 19.4599 4.54162Z" fill="#141B34"/>
</svg>
