<svg width="24" height="24" viewBox="0 0 24 24" fill="none" xmlns="http://www.w3.org/2000/svg">
<path fill-rule="evenodd" clip-rule="evenodd" d="M18.043 13.3359L21.7502 17.043L20.3359 18.4573L19.043 17.1644V22.7503H17.043V17.1644L15.7502 18.4573L14.3359 17.043L18.043 13.3359Z" fill="#141B34"/>
<path fill-rule="evenodd" clip-rule="evenodd" d="M5.15891 2.13345C6.70115 1.57577 8.76651 1.25 11 1.25C13.2335 1.25 15.2988 1.57577 16.8411 2.13345C17.6086 2.411 18.2973 2.7641 18.8115 3.20376C19.3247 3.64244 19.75 4.24729 19.75 5V11.4011C19.6842 11.5424 19.566 11.7083 19.3645 11.8969C19.2632 11.9918 19.1455 12.0875 19.0115 12.1831L18.0433 11.2148L15.7725 13.4857C14.3969 13.8083 12.7656 14 11 14C8.37871 14 6.05335 13.5774 4.42144 12.9312C3.6029 12.6071 3.00872 12.2463 2.63551 11.8969C2.434 11.7083 2.31585 11.5424 2.25 11.4011V5C2.25 4.24729 2.67534 3.64244 3.18846 3.20376C3.70271 2.7641 4.39138 2.411 5.15891 2.13345ZM4.47842 4.60674C4.20438 4.84102 4.19444 4.97606 4.19444 5C4.19444 5.02394 4.20438 5.15898 4.47842 5.39326C4.75132 5.62657 5.20168 5.87951 5.84165 6.11093C7.11441 6.57117 8.93794 6.875 11 6.875C13.0621 6.875 14.8856 6.57117 16.1583 6.11093C16.7983 5.87951 17.2487 5.62657 17.5216 5.39326C17.7956 5.15898 17.8056 5.02394 17.8056 5C17.8056 4.97606 17.7956 4.84102 17.5216 4.60674C17.2487 4.37343 16.7983 4.12049 16.1583 3.88907C14.8856 3.42883 13.0621 3.125 11 3.125C8.93794 3.125 7.11441 3.42883 5.84165 3.88907C5.20168 4.12049 4.75132 4.37343 4.47842 4.60674ZM7.16016 9.5C8.01886 9.68627 8.95773 9.81347 10.002 9.8623V11.3623C9.00598 11.3157 8.02409 11.2006 7.16016 11.0315V9.5Z" fill="#141B34"/>
<path fill-rule="evenodd" clip-rule="evenodd" d="M13.3666 15.8915C12.6029 15.9628 11.8105 16 11 16C8.18005 16 5.57929 15.5492 3.64539 14.7834C3.14385 14.5848 2.67361 14.3597 2.25 14.1072V19C2.25 19.7057 2.63408 20.2883 3.13112 20.7289C3.62904 21.1704 4.30674 21.5337 5.0798 21.8236C6.63146 22.4054 8.72474 22.75 11 22.75C12.6573 22.75 14.2181 22.5672 15.5433 22.243V20.3717L12.2148 17.0433L13.3666 15.8915ZM10 18.3623C8.95578 18.3135 8.0169 18.1863 7.1582 18V19.5315C8.02214 19.7006 9.00402 19.8157 10 19.8623V18.3623Z" fill="#141B34"/>
</svg>
