<svg width="24" height="24" viewBox="0 0 24 24" fill="none" xmlns="http://www.w3.org/2000/svg">
<path fill-rule="evenodd" clip-rule="evenodd" d="M16.4998 17.0859L19.293 14.293L20.7071 15.7072L17.9141 18.5001L20.7071 21.293L19.293 22.7072L16.4998 19.9143L13.7071 22.7068L12.293 21.2925L15.0856 18.5001L12.293 15.7077L13.7071 14.2934L16.4998 17.0859Z" fill="#141B34"/>
<path d="M3.75146 5.54492L4.75146 22.0449C4.77546 22.4408 5.1035 22.7495 5.50009 22.7495H11.6296L10.172 21.2918L12.9645 18.4995L10.172 15.7071L13.7074 12.1715L16.5001 14.9641L19.8829 11.5814L20.2487 5.54492H3.75146Z" fill="#141B34"/>
<path fill-rule="evenodd" clip-rule="evenodd" d="M8.58085 1.85608C8.73843 1.4884 9.09997 1.25 9.5 1.25H14.5C14.9 1.25 15.2616 1.4884 15.4191 1.85608L16.6594 4.75H22V6.75H2V4.75H7.3406L8.58085 1.85608ZM9.51654 4.75H14.4835L13.8406 3.25H10.1594L9.51654 4.75Z" fill="#141B34"/>
</svg>
