<svg width="24" height="24" viewBox="0 0 24 24" fill="none" xmlns="http://www.w3.org/2000/svg">
<path fill-rule="evenodd" clip-rule="evenodd" d="M19.5131 1.25001L4.47905 1.25L1.25 7.80279V22C1.25 22.4142 1.58579 22.75 2 22.75H16.0208C17.6681 22.7388 19 21.4 19 19.7501C19 18.0932 17.6569 16.7501 16 16.7501H13.9142L15.5056 18.3415L14.0914 19.7557L10.0858 15.7501L14.0914 11.7444L15.5056 13.1586L13.9142 14.7501H16C18.7614 14.7501 21 16.9886 21 19.7501C21 20.8756 20.6281 21.9144 20.0004 22.75H22C22.4142 22.75 22.75 22.4142 22.75 22V7.80279L19.5131 1.25001ZM20.2683 7.25L18.2948 3.25L12.9842 3.25V7.25H20.2683ZM11.0107 7.25V3.25L5.70005 3.25L3.72656 7.25H11.0107Z" fill="#141B34"/>
</svg>
