<svg width="24" height="24" viewBox="0 0 24 24" fill="none" xmlns="http://www.w3.org/2000/svg">
<path d="M11.7118 4.25C11.0989 4.25 10.5885 4.75069 10.5885 5.38494L10.5887 15.9882L7.73933 13.1972C7.15519 12.7031 6.28033 12.7869 5.79974 13.3902C5.39502 13.8983 5.3978 14.6232 5.80626 15.128L5.81616 15.1403L10.5887 21.5414L10.5885 22.7498L19.9616 22.75L19.9618 21.5256C20.1046 21.3557 20.6271 20.7369 20.8247 20.4902C21.0229 20.2428 21.2241 19.9832 21.3866 19.7562C21.5587 19.5156 21.6587 19.3501 21.6867 19.2766C21.8353 18.8871 21.9157 18.4328 21.9567 17.7857C21.9979 17.1354 21.998 16.3174 21.998 15.2024C21.998 14.6357 21.9975 14.241 21.9657 13.9375C21.9345 13.6407 21.8768 13.477 21.7927 13.3565C21.717 13.2481 21.6233 13.1542 21.516 13.0788C21.3983 12.996 21.2384 12.939 20.945 12.908C20.6557 12.8774 20.2824 12.8757 19.7518 12.8756V14.5213H18.9441V12.4784C18.9441 11.8441 18.4337 11.3434 17.8208 11.3434H16.6512C16.6974 11.769 16.6974 12.2973 16.6974 12.9397V14.0106H15.8897V12.9681C15.8897 12.2348 15.8889 11.724 15.8373 11.3388C15.7871 10.9642 15.6954 10.7686 15.5579 10.6306C15.4215 10.4937 15.2297 10.4032 14.86 10.3534C14.5526 10.3119 14.164 10.3033 13.6428 10.3014V13.4998H12.8351V5.38495C12.8351 4.75069 12.3247 4.25 11.7118 4.25Z" fill="#141B34"/>
<path fill-rule="evenodd" clip-rule="evenodd" d="M11.9825 2.75C10.1876 2.75 8.73254 4.20507 8.73254 6C8.73254 7.79493 10.1876 9.25 11.9825 9.25V10.75C9.61438 10.75 7.651 9.01699 7.29141 6.75L4.87132 6.75L6.09099 7.96967L5.03033 9.03033L2 6L5.03033 2.96967L6.09099 4.03033L4.87132 5.25L7.29141 5.25C7.651 2.98301 9.61438 1.25 11.9825 1.25C14.6059 1.25 16.7325 3.37665 16.7325 6H15.2325C15.2325 4.20507 13.7775 2.75 11.9825 2.75Z" fill="#141B34"/>
</svg>
