<svg width="24" height="24" viewBox="0 0 24 24" fill="none" xmlns="http://www.w3.org/2000/svg">
<path d="M9.96375 4.25C9.35084 4.25 8.84041 4.75069 8.84041 5.38494L8.84064 15.9882L5.99128 13.1972C5.40715 12.7031 4.53228 12.7869 4.05169 13.3902C3.64698 13.8983 3.64975 14.6232 4.05821 15.128L4.06811 15.1403L8.84064 21.5414L8.84047 22.7498L18.2136 22.75L18.2138 21.5256C18.3565 21.3557 18.879 20.7369 19.0767 20.4902C19.2748 20.2428 19.4761 19.9832 19.6385 19.7562C19.8107 19.5156 19.9106 19.3501 19.9387 19.2766C20.0872 18.8871 20.1677 18.4328 20.2086 17.7857C20.2498 17.1354 20.25 16.3174 20.25 15.2024C20.25 14.6357 20.2495 14.241 20.2176 13.9375C20.1864 13.6407 20.1288 13.477 20.0447 13.3565C19.969 13.2481 19.8753 13.1542 19.768 13.0788C19.6502 12.996 19.4903 12.939 19.197 12.908C18.9077 12.8774 18.5344 12.8757 18.0037 12.8756V14.5213H17.1961V12.4784C17.1961 11.8441 16.6856 11.3434 16.0727 11.3434H14.9031C14.9494 11.769 14.9494 12.2973 14.9494 12.9397V14.0106H14.1417V12.9681C14.1417 12.2348 14.1409 11.724 14.0892 11.3388C14.039 10.9642 13.9474 10.7686 13.8099 10.6306C13.6734 10.4937 13.4816 10.4032 13.112 10.3534C12.8045 10.3119 12.416 10.3033 11.8948 10.3014V13.4998H11.0871V5.38495C11.0871 4.75069 10.5767 4.25 9.96375 4.25Z" fill="#141B34"/>
<path fill-rule="evenodd" clip-rule="evenodd" d="M10.2344 2.75C8.43945 2.75 6.98438 4.20507 6.98438 6C6.98438 7.79472 8.44008 9.25 10.2352 9.25V10.75C7.61206 10.75 5.48438 8.62356 5.48438 6C5.48438 3.37665 7.61102 1.25 10.2344 1.25C12.6025 1.25 14.5659 2.98301 14.9255 5.25L17.1581 5.25L15.9384 4.03033L16.9991 2.96967L20.0294 6L16.9991 9.03033L15.9384 7.96967L17.1581 6.75L13.4844 6.75V6C13.4844 4.20507 12.0293 2.75 10.2344 2.75Z" fill="#141B34"/>
</svg>
