<svg width="24" height="24" viewBox="0 0 24 24" fill="none" xmlns="http://www.w3.org/2000/svg">
<path d="M8.17964 1.31906C8.42478 1.20613 8.71178 1.2331 8.93149 1.3897L12.002 3.57833L15.0724 1.3897C15.2921 1.2331 15.5791 1.20613 15.8243 1.31906C16.5161 1.63775 17.9586 2.42438 19.3669 3.65787C20.7716 4.88815 22.1998 6.61398 22.752 8.8181C22.752 8.8181 22.3932 10.4226 21.7027 11.4249C21.0121 12.4273 19.872 13.5012 18.1377 13.7127C18.172 13.8608 18.2113 14.0115 18.255 14.165C18.4054 14.6933 18.5844 15.1889 18.7749 15.7163L18.7749 15.7163L18.775 15.7163C18.9063 16.0799 19.0431 16.4585 19.1797 16.8734C19.496 17.8338 19.7681 18.8819 19.7681 20V20.4268L19.4005 20.6448C17.6789 21.6656 15.1185 22.75 12.002 22.75C8.88545 22.75 6.32498 21.6656 4.60344 20.6448L4.2359 20.4269L4.23577 20.0003C4.23543 18.8817 4.50843 17.8329 4.82566 16.8718C4.96279 16.4564 5.10011 16.0773 5.23195 15.7133L5.23196 15.7133L5.23197 15.7132C5.42299 15.1859 5.60251 14.6902 5.7533 14.1618C5.79675 14.0096 5.83589 13.8601 5.87012 13.7132C4.13354 13.5029 2.99226 12.428 2.30118 11.4249C1.6101 10.4218 1.25195 8.8181 1.25195 8.8181C1.80413 6.61398 3.23234 4.88815 4.63697 3.65787C6.04526 2.42438 7.48785 1.63775 8.17964 1.31906Z" fill="#141B34"/>
</svg>
