<svg width="24" height="24" viewBox="0 0 24 24" fill="none" xmlns="http://www.w3.org/2000/svg">
<path fill-rule="evenodd" clip-rule="evenodd" d="M13.2655 10.7346C12.2834 9.75253 10.6912 9.75253 9.70914 10.7346L8.29492 9.32038C10.058 7.55727 12.9166 7.55727 14.6797 9.32038C16.4428 11.0835 16.4428 13.942 14.6797 15.7052L13.2655 14.2909C14.2475 13.3089 14.2475 11.7167 13.2655 10.7346Z" fill="#141B34"/>
<path d="M19.0967 19.6256L18.4983 20.1538C16.6689 21.7685 14.2641 22.7491 11.6321 22.7491C5.89929 22.7491 1.25195 18.1017 1.25195 12.3689C1.25195 9.73694 2.23253 7.33214 3.84718 5.50275L4.37538 4.9043L19.0967 19.6256Z" fill="#141B34"/>
<path fill-rule="evenodd" clip-rule="evenodd" d="M15.4129 1.25195C17.2939 1.44505 19.0602 2.19811 20.4292 3.56488C21.8026 4.93608 22.5577 6.70694 22.7483 8.59267L20.7585 8.79378C20.6088 7.31319 20.0265 5.98894 19.0161 4.98024C18.0088 3.97459 16.687 3.39326 15.2086 3.2415L15.4129 1.25195ZM14.9814 4.76711C16.0017 5.00603 16.9495 5.50097 17.7197 6.26996C18.4939 7.04291 18.9911 7.99522 19.2292 9.02052L17.281 9.47293C17.1209 8.78337 16.7956 8.17343 16.3067 7.68532C15.8201 7.19959 15.2125 6.87534 14.5254 6.71444L14.9814 4.76711Z" fill="#141B34"/>
</svg>
