<svg width="24" height="24" viewBox="0 0 24 24" fill="none" xmlns="http://www.w3.org/2000/svg">
<path d="M17.112 13.75C15.3827 13.75 13.7925 14.3895 12.4863 15.452L13.7485 17.0035C14.74 16.1968 15.8939 15.75 17.112 15.75C18.3338 15.75 19.4912 16.1996 20.4849 17.0111L21.7499 15.4621C20.4415 14.3935 18.8468 13.75 17.112 13.75Z" fill="#141B34"/>
<path d="M17.112 17.1107C16.1321 17.1107 15.2145 17.3984 14.4152 17.894L15.4691 19.5937C15.9771 19.2788 16.5331 19.1107 17.112 19.1107C17.6938 19.1107 18.2524 19.2804 18.7625 19.5985L19.8208 17.9015C19.0187 17.4013 18.0969 17.1107 17.112 17.1107Z" fill="#141B34"/>
<path d="M17.1191 20.75C16.5669 20.75 16.1191 21.1977 16.1191 21.75C16.1191 22.3023 16.5669 22.75 17.1191 22.75H17.1255C17.6778 22.75 18.1255 22.3023 18.1255 21.75C18.1255 21.1977 17.6778 20.75 17.1255 20.75H17.1191Z" fill="#141B34"/>
<path d="M11.9516 1.40418C11.6827 1.19857 11.3094 1.19861 11.0405 1.40428L2.54241 7.90428C2.32043 8.07407 2.21126 8.35321 2.25917 8.62855L4.25983 20.1285C4.32232 20.4878 4.63411 20.75 4.99873 20.75H14.3771L10.377 15.2351L11.5405 14.2885C13.0824 13.0341 14.9998 12.25 17.1128 12.25C18.1335 12.25 19.1085 12.433 20.0176 12.7635L20.737 8.62855C20.7849 8.35315 20.6757 8.07396 20.4536 7.90418L11.9516 1.40418Z" fill="#141B34"/>
</svg>
