<svg width="24" height="24" viewBox="0 0 24 24" fill="none" xmlns="http://www.w3.org/2000/svg">
<path fill-rule="evenodd" clip-rule="evenodd" d="M13.1287 1.07264C13.6115 0.879578 14.1617 1.08876 14.3943 1.55382L16.3944 5.55251L14.6056 6.44718L13.0171 3.27123L4.5 6.67696L4.5 17.3227L13.0171 20.7285L14.6056 17.5525L16.3944 18.4472L14.3943 22.4459C14.1617 22.9109 13.6115 23.1201 13.1287 22.927L3.12872 18.9284C2.749 18.7765 2.5 18.4088 2.5 17.9998L2.5 5.99984C2.5 5.5909 2.749 5.22316 3.12871 5.07133L13.1287 1.07264Z" fill="#141B34"/>
<path fill-rule="evenodd" clip-rule="evenodd" d="M17.6696 12.9972L16.3767 14.29L17.7909 15.7043L21.4982 11.9972L17.7909 8.29004L16.3767 9.7043L17.6696 10.9972H9.08398V12.9972H17.6696Z" fill="#141B34"/>
</svg>
