<svg width="24" height="24" viewBox="0 0 24 24" fill="none" xmlns="http://www.w3.org/2000/svg">
<path d="M1.25 3.22368C1.25 2.68593 1.68754 2.25 2.22727 2.25H21.7727C22.3125 2.25 22.75 2.68593 22.75 3.22368V14H20.796V8.10217L12.0003 12.5L3.20508 8.1024V18.8026H8V20.75H2.22727C1.68754 20.75 1.25 20.3141 1.25 19.7763V3.22368Z" fill="#141B34"/>
<path d="M13.9573 15.4572L12.543 14.043L9.33594 17.2501L12.543 20.4572L13.9573 19.043L12.1644 17.2501L13.9573 15.4572Z" fill="#141B34"/>
<path d="M17.9573 15.4572L16.543 14.043L13.3359 17.2501L16.543 20.4572L17.9573 19.043L17.1644 18.2501H17.7502C19.407 18.2501 20.7502 19.5932 20.7502 21.2501V21.7501H22.7502V21.2501C22.7502 18.4887 20.5116 16.2501 17.7502 16.2501H17.1644L17.9573 15.4572Z" fill="#141B34"/>
</svg>
