<svg width="24" height="24" viewBox="0 0 24 24" fill="none" xmlns="http://www.w3.org/2000/svg">
<path fill-rule="evenodd" clip-rule="evenodd" d="M5.2595 3.14393C5.31228 2.77445 5.62872 2.5 6.00196 2.5H18.002C18.3752 2.5 18.6916 2.77442 18.7444 3.14389L20.7453 17.1439C20.7761 17.3591 20.7119 17.5771 20.5695 17.7414C20.427 17.9056 20.2203 18 20.0029 18H4.00196C3.78454 18 3.57782 17.9057 3.43537 17.7414C3.29291 17.5772 3.22875 17.3592 3.2595 17.1439L5.2595 3.14393ZM6.65243 4L4.86672 16.5H19.138L17.3515 4H6.65243Z" fill="#141B34"/>
<path fill-rule="evenodd" clip-rule="evenodd" d="M3.60547 20.8556L5.60732 16.8027L7.39617 17.6972L5.39432 21.75L3.60547 20.8556ZM18.6055 21.75L16.6073 17.6972L18.3962 16.8027L20.3943 20.8556L18.6055 21.75Z" fill="#141B34"/>
<path fill-rule="evenodd" clip-rule="evenodd" d="M6.00001 2.25C5.50236 2.25 5.08044 2.61593 5.01006 3.10858L3.01006 17.1086C2.96906 17.3956 3.05462 17.6862 3.24455 17.9052C3.43449 18.1242 3.71012 18.25 4.00001 18.25H20.0009C20.2908 18.25 20.5664 18.1242 20.7564 17.9052C20.9463 17.6862 21.0319 17.3955 20.9908 17.1085L18.9899 3.10852C18.9195 2.6159 18.4976 2.25 18 2.25H6.00001ZM5.97266 10.5L6.86551 4.25H17.131L18.0242 10.5H5.97266ZM10.009 13.375H8V15.375H10.009V13.375ZM16 13.375H13.991V15.375H16V13.375Z" fill="#141B34"/>
</svg>
