<svg width="24" height="24" viewBox="0 0 24 24" fill="none" xmlns="http://www.w3.org/2000/svg">
<path fill-rule="evenodd" clip-rule="evenodd" d="M11 19.6951C6.50005 19.1976 3 15.3826 3 10.75H5C5 14.616 8.13401 17.75 12 17.75C15.866 17.75 19 14.616 19 10.75H21C21 15.3826 17.5 19.1976 13 19.6951V21H15V23H9V21H11V19.6951Z" fill="#141B34"/>
<path d="M12.0005 1C8.82485 1 6.25049 3.57436 6.25049 6.75V10.75C6.25049 13.9256 8.82485 16.5 12.0005 16.5C14.9219 16.5 17.3345 14.3213 17.702 11.5H14.0005V10H17.7505V7.5H14.0005V6H17.702C17.3345 3.17873 14.9219 1 12.0005 1Z" fill="#141B34"/>
</svg>
