<svg width="24" height="24" viewBox="0 0 24 24" fill="none" xmlns="http://www.w3.org/2000/svg">
<path d="M14.9973 1.28973C14.3645 1.12436 13.7107 1.48996 13.5398 2.11228L10.5457 13.0106L8.84124 10.1206C8.42714 9.41851 7.48338 9.22701 6.817 9.70671C6.30881 10.0725 6.11398 10.7277 6.34343 11.3031L9.7362 18.156L9.07387 20.3996L18.0671 22.75L18.7769 20.7305C18.9441 20.6236 19.5628 20.2309 19.7983 20.0706C20.0347 19.9098 20.2769 19.7381 20.4784 19.5811C20.6914 19.4151 20.823 19.2926 20.8711 19.2279C21.1263 18.8845 21.33 18.4596 21.5458 17.8357C21.7625 17.2088 21.9831 16.4065 22.2834 15.3134L22.6889 13.8387C22.9077 13.0425 22.5036 12.2108 21.7379 11.871L21.402 11.7219C21.1252 11.5991 20.7979 11.7467 20.7176 12.0389L20.4425 13.0405L19.662 12.8391L19.9371 11.8376C20.1843 10.9377 19.6362 10.0161 18.7189 9.77639C18.3697 9.68512 18.0074 9.88659 17.9124 10.2324L17.6373 11.2339L16.8568 11.0325L17.1319 10.031C17.3791 9.13115 16.8309 8.20953 15.9137 7.9698L15.2778 7.80362L14.8318 9.42723L14.0513 9.22585L15.8396 2.71597C16.0109 2.09271 15.631 1.45536 14.9973 1.28973Z" fill="#141B34"/>
<path fill-rule="evenodd" clip-rule="evenodd" d="M7.53033 2.96967L9.25 1.25L10.3107 2.31066L8.59099 4.03033H9.78033V5.53033H6.03033V1.78033H7.53033V2.96967ZM2.96967 7.53033H1.78033V6.03033H5.53033V9.78033H4.03033V8.59099L2.31066 10.3107L1.25 9.25L2.96967 7.53033Z" fill="#141B34"/>
</svg>
