<svg width="24" height="24" viewBox="0 0 24 24" fill="none" xmlns="http://www.w3.org/2000/svg">
<path fill-rule="evenodd" clip-rule="evenodd" d="M3.00148 2.25C2.80257 2.24999 2.6118 2.32901 2.47114 2.46966C2.33049 2.61032 2.25146 2.80108 2.25146 3V21C2.25146 21.4142 2.58725 21.75 3.00146 21.75H21.0015C21.4157 21.75 21.7515 21.4142 21.7515 21V3.00046C21.7515 2.58626 21.4157 2.25047 21.0015 2.25046L3.00148 2.25ZM16.2944 6.29297L6.29443 16.293L7.70865 17.7072L17.7086 7.70718L16.2944 6.29297ZM16.0015 17.5001V16.0001H17.5015V14.0001H16.0015V12.5001H14.0015V14.0001H12.5015V16.0001H14.0015V17.5001H16.0015ZM7.00154 10.0001H11.0015V8.00008H7.00154V10.0001Z" fill="#141B34"/>
</svg>
