<svg width="24" height="24" viewBox="0 0 24 24" fill="none" xmlns="http://www.w3.org/2000/svg">
<path fill-rule="evenodd" clip-rule="evenodd" d="M2.27854 18.6964C3.80199 18.087 4.89531 17.87 5.75 17.7927V16.5H10.25V17.5H14.25V18.5H18.25V19.6951C19.2828 19.6041 20.1595 19.413 20.831 19.2211C21.2956 19.0884 21.6636 18.9548 21.9192 18.8526C22.047 18.8015 22.1469 18.7581 22.2169 18.7265L22.75 18.4635V1.78647L21.3621 2.45989C21.1489 2.54516 20.8294 2.66159 20.419 2.77886C19.5972 3.01364 18.4173 3.25 17 3.25C15.1744 3.25 13.5352 2.88927 12.3174 2.32046C10.8702 1.64454 9.00849 1.25 7 1.25C5.87882 1.25 4.34095 1.25585 1.72146 2.30364L1.25 2.49223V19.1078L2.27854 18.6964ZM12 13.75C10.2051 13.75 8.75 12.2949 8.75 10.5C8.75 8.70507 10.2051 7.25 12 7.25C13.7949 7.25 15.25 8.70507 15.25 10.5C15.25 12.2949 13.7949 13.75 12 13.75ZM6.5 10.5V8.49103H4.5V10.5H6.5ZM19.5 10.4988V12.5078H17.5V10.4988H19.5Z" fill="#141B34"/>
<path fill-rule="evenodd" clip-rule="evenodd" d="M11 18.75V22.75H13V18.75H11ZM15 19.75V21.75H17V19.75H15ZM7 17.75L7 19.75H9V17.75H7Z" fill="#141B34"/>
</svg>
