<svg width="24" height="24" viewBox="0 0 24 24" fill="none" xmlns="http://www.w3.org/2000/svg">
<path fill-rule="evenodd" clip-rule="evenodd" d="M22.75 4.03647L22.2169 3.7735C22.1469 3.7419 22.047 3.69853 21.9192 3.64739C21.6636 3.54516 21.2956 3.41159 20.831 3.27886C19.9028 3.01364 18.5827 2.75 17 2.75C14.9915 2.75 13.1298 3.14454 11.6826 3.82046C10.7455 4.25815 9.55894 4.57264 8.2299 4.69437L22.75 19.2145V4.03647ZM12.3174 20.1795C13.5352 19.6107 15.1744 19.25 17 19.25C17.9519 19.25 18.7966 19.3566 19.4977 19.4977L14.2981 14.2981C13.71 14.8862 12.8975 15.25 12 15.25C11.6701 15.25 11.3518 15.2009 11.0518 15.1095C9.71941 14.7037 8.75 13.4651 8.75 12C8.75 11.1025 9.11377 10.29 9.7019 9.7019L4.51292 4.51292C3.8857 4.37392 3.15297 4.15341 2.27854 3.80364L1.25 3.39223V20.0078L1.72146 20.1964C4.34095 21.2442 5.87882 21.25 7 21.25C9.00849 21.25 10.8702 20.8555 12.3174 20.1795ZM6.5 12V14.009H4.5V12H6.5ZM19.5 12.0012V9.99219H17.5V12.0012H19.5Z" fill="#141B34"/>
<path d="M21.3358 22.75L1.25 2.66421L2.66421 1.25L22.75 21.3358L21.3358 22.75Z" fill="#141B34"/>
</svg>
