<svg width="24" height="24" viewBox="0 0 24 24" fill="none" xmlns="http://www.w3.org/2000/svg">
<path fill-rule="evenodd" clip-rule="evenodd" d="M8.9409 3.19728C5.85818 3.19728 3.18609 5.88281 3.18609 9.17903C3.18609 10.7777 3.98337 12.2417 5.23039 13.5875C6.47669 14.9325 8.08524 16.0646 9.51721 16.9894L8.47149 18.629C7.0133 17.6873 5.2337 16.4479 3.81438 14.9162C2.39579 13.3852 1.25 11.4674 1.25 9.17903C1.25 4.84931 4.74716 1.24902 8.9409 1.24902C11.14 1.24902 13.1448 2.24272 14.55 3.79402L13.1191 5.10648C12.0484 3.92446 10.5491 3.19728 8.9409 3.19728ZM5.6062 9.04205C5.6062 7.15906 7.12313 5.6326 8.99435 5.6326C10.1035 5.6326 11.0881 6.1699 11.7046 6.99582L10.1566 8.1659C9.89005 7.80879 9.46879 7.58086 8.99435 7.58086C8.1924 7.58086 7.54229 8.23506 7.54229 9.04205C7.54229 9.74783 8.04052 10.3387 8.70291 10.474L8.31776 12.3833C6.77083 12.0673 5.6062 10.6926 5.6062 9.04205Z" fill="#141B34"/>
<path fill-rule="evenodd" clip-rule="evenodd" d="M17.25 18.999V22.751H21.1154V16.001H22.75V14.001H21.9712C22.219 13.2846 22.2998 12.5947 22.2211 11.93C22.0885 10.8083 21.5195 9.91134 20.8501 9.20094C20.1875 8.4978 19.3752 7.92376 18.6623 7.45021C18.4693 7.32204 18.2874 7.20335 18.1164 7.09185C17.6136 6.76391 17.206 6.49806 16.8941 6.23569L16.2503 5.69434L15.6067 6.23583C15.2947 6.49829 14.8869 6.76429 14.3838 7.09248C14.2131 7.20381 14.0315 7.32229 13.8389 7.45021C13.126 7.92374 12.3137 8.49775 11.6509 9.20083C10.9814 9.91115 10.4122 10.808 10.2791 11.9296C10.2002 12.5944 10.2807 13.2844 10.5283 14.001H9.75V16.001H11.3867V22.751H15.25V18.999H17.25ZM19.7927 14.001H12.7064C12.2945 13.2252 12.2102 12.6276 12.2651 12.1653C12.3312 11.6084 12.6178 11.0909 13.1063 10.5727C13.6016 10.0472 14.2497 9.57835 14.9455 9.11616C15.0901 9.02016 15.2405 8.92216 15.393 8.82285C15.6804 8.63558 15.9751 8.44367 16.2505 8.25177C16.5258 8.44349 16.8202 8.63523 17.1074 8.82235C17.2601 8.92176 17.411 9.02005 17.5557 9.11617C18.2514 9.57833 18.8994 10.0471 19.3946 10.5726C19.8829 11.0908 20.1691 11.6081 20.235 12.1649C20.2897 12.6273 20.2051 13.225 19.7927 14.001Z" fill="#141B34"/>
</svg>
