<svg width="24" height="24" viewBox="0 0 24 24" fill="none" xmlns="http://www.w3.org/2000/svg">
<path d="M16.4088 21.66C17.5132 21.5706 18.4063 21.3859 19.1147 20.9387C19.6217 20.6186 20.0654 20.2201 20.4365 19.7642C16.4639 19.8449 13.9887 18.56 12.4155 17.5881C8.45444 15.559 5.38786 11.3389 4.34971 9.48242L3.65198 10.6023C2.54898 12.3726 2.31467 14.1963 2.27344 15.157L2.27194 15.192C2.25678 15.5452 2.24761 15.7587 2.25055 15.9315C2.25348 16.1041 2.26569 16.2625 2.28539 16.5181L2.28696 16.5385C2.42522 18.3329 3.37398 19.9842 4.88597 20.9387C5.59429 21.3859 6.48739 21.5706 7.59186 21.66C8.69536 21.7493 10.1951 21.7493 12.0362 21.7493C13.8772 21.7493 15.3053 21.7493 16.4088 21.66Z" fill="#141B34"/>
<path d="M21.713 16.5384C21.6675 17.1298 21.5339 17.7056 21.3211 18.246L20.4054 18.2646C16.8192 18.3375 13.9586 16.8247 12.5307 15.9425C12.6129 15.9078 12.6959 15.8712 12.7796 15.8328C13.622 15.4467 14.4959 14.8996 15.3306 14.2771C17.0111 13.0238 18.4491 11.5281 19.0932 10.5779L19.7392 9.625L20.348 10.6022C21.451 12.3725 21.6853 14.1962 21.7266 15.1569L21.7281 15.1919C21.7432 15.5451 21.7524 15.7586 21.7495 15.9314C21.7465 16.104 21.7343 16.2624 21.7146 16.518L21.713 16.5384Z" fill="#141B34"/>
<path fill-rule="evenodd" clip-rule="evenodd" d="M16.2542 4.54331C15.4904 3.59542 14.7503 2.91417 13.8445 2.57993C12.6522 2.14002 11.3449 2.14002 10.1526 2.57993C9.24676 2.91417 8.5067 3.59542 7.74288 4.54331C7.04104 5.41429 6.25976 6.58857 5.28027 8.07783L5.6566 8.75078C6.43506 10.1428 8.43954 12.939 11.0476 14.9407L12.1523 14.4697C12.8727 14.1395 13.655 13.6543 14.4315 13.0752C16.0179 11.8921 17.3237 10.5121 17.8493 9.73677L18.8434 8.27031C17.8042 6.68941 16.986 5.45147 16.2542 4.54331ZM14.499 10.5C15.0513 10.5 15.499 10.0523 15.499 9.5C15.499 8.94772 15.0513 8.5 14.499 8.5H14.49C13.9378 8.5 13.49 8.94771 13.49 9.5C13.49 10.0523 13.9378 10.5 14.49 10.5H14.499ZM13.4999 6.74996C12.0034 6.74996 11.1171 5.91145 10.8291 5.33537L12.1707 4.66455C12.216 4.75514 12.5965 5.24996 13.4999 5.24996V6.74996ZM11.0303 9.03039L9.53027 10.5304L8.46961 9.46973L9.96961 7.96973L11.0303 9.03039Z" fill="#141B34"/>
</svg>
