<svg width="24" height="24" viewBox="0 0 24 24" fill="none" xmlns="http://www.w3.org/2000/svg">
<path fill-rule="evenodd" clip-rule="evenodd" d="M14.4765 1.41207C15.4671 1.13838 16.6019 1.13649 17.5752 2.00317C19.4601 3.68173 19.8611 7.23479 17.5352 9.53L16.1999 8.17686C17.7269 6.66998 17.394 4.38736 16.3109 3.42289C15.9946 3.14122 15.6174 3.06913 14.9828 3.24447C14.3456 3.42051 13.6469 3.79366 12.8169 4.23689C12.7533 4.27087 12.6888 4.30527 12.6236 4.34002C11.7753 4.7921 10.7707 5.31525 9.77708 5.4909C9.26093 5.58215 8.70894 5.58843 8.15628 5.42422C7.59623 5.25781 7.09255 4.93308 6.65625 4.44902L8.06835 3.17624C8.29279 3.42526 8.50347 3.54419 8.69774 3.60191C8.89939 3.66183 9.14169 3.67271 9.44613 3.61889C10.0937 3.5044 10.8355 3.13875 11.7296 2.66231C11.8051 2.62207 11.8819 2.58092 11.9599 2.53915C12.7352 2.12368 13.6231 1.64785 14.4765 1.41207Z" fill="#141B34"/>
<path fill-rule="evenodd" clip-rule="evenodd" d="M11 22.7498C11.1989 22.7498 11.3897 22.6708 11.5303 22.5302L20.75 13.255L19.6134 6.3864L12.7448 5.19434L3.46967 14.4695C3.17678 14.7624 3.17678 15.2373 3.46967 15.5302L10.4697 22.5302C10.6103 22.6708 10.8011 22.7498 11 22.7498ZM16.0275 11.0301L15.4115 11.6462C15.636 12.122 15.6815 12.6612 15.5444 13.1609L14.0979 12.7641C14.1606 12.5356 14.1013 12.2738 13.9125 12.0853C13.6311 11.8044 13.1952 11.8132 12.9393 12.0687C12.7445 12.2631 12.7494 12.3532 12.7503 12.37C12.7525 12.4114 12.7847 12.5785 13.0999 12.8932C13.5238 13.3163 13.8798 13.8291 13.9226 14.4424C13.9676 15.0865 13.6564 15.6314 13.2097 16.0774C12.7147 16.5716 12.1205 16.8071 11.4959 16.7381C11.1748 16.7027 10.8803 16.5906 10.6171 16.4344L10.0219 17.03L8.96094 15.9696L9.5741 15.3561C9.36705 14.9577 9.27651 14.5143 9.31486 14.0798L10.8091 14.2117C10.7898 14.4302 10.8709 14.6941 11.0834 14.9063C11.3195 15.142 11.5221 15.2319 11.6604 15.2472C11.7645 15.2587 11.9247 15.2407 12.1499 15.0159C12.4233 14.7429 12.4299 14.5986 12.4263 14.547C12.4205 14.4648 12.3616 14.2756 12.0401 13.9547C11.61 13.5252 11.2834 13.0271 11.2525 12.4506C11.2201 11.8492 11.5178 11.3683 11.8795 11.0072C12.55 10.3378 13.5424 10.2062 14.3501 10.5863L14.9669 9.96948L16.0275 11.0301Z" fill="#141B34"/>
</svg>
