<svg width="24" height="24" viewBox="0 0 24 24" fill="none" xmlns="http://www.w3.org/2000/svg">
<path d="M17.5186 14.4812C17.7038 14.558 17.8659 14.6458 18.0028 14.7317C18.1397 14.6458 18.3018 14.558 18.4869 14.4812C19.1396 14.2106 20.0626 14.0883 21.0927 14.6225C22.4249 15.3132 23.0246 16.93 22.6341 18.5193C22.2349 20.1443 20.8401 21.723 18.2594 22.6571L18.0028 22.75L17.7463 22.6571C15.1655 21.723 13.7707 20.1443 13.3715 18.5193C12.981 16.93 13.5806 15.3132 14.9129 14.6225C15.943 14.0883 16.8659 14.2106 17.5186 14.4812Z" fill="#141B34"/>
<path fill-rule="evenodd" clip-rule="evenodd" d="M11.5 1.25C8.25021 1.25 5.55745 3.63491 5.07645 6.75H2.00001C1.77881 6.75 1.56889 6.84764 1.42639 7.01682C1.28389 7.186 1.22333 7.40945 1.26091 7.62743L2.79066 16.5H11.8642C12.1343 15.1711 12.9188 13.9676 14.224 13.2908C15.672 12.54 17.0275 12.6786 18.0044 13.0592C18.7623 12.7639 19.7479 12.6143 20.8279 12.9126L21.7391 7.62743C21.7767 7.40945 21.7161 7.186 21.5736 7.01682C21.4311 6.84764 21.2212 6.75 21 6.75H17.9236C17.4425 3.63491 14.7498 1.25 11.5 1.25ZM11.5 3.25C9.35841 3.25 7.56624 4.74601 7.11151 6.75H15.8885C15.4338 4.74601 13.6416 3.25 11.5 3.25Z" fill="#141B34"/>
<path d="M11.8377 18.5C11.8595 18.6265 11.8857 18.7523 11.9164 18.8772C12.2823 20.3665 13.2275 21.7079 14.6839 22.75H3.86825L3.13549 18.5H11.8377Z" fill="#141B34"/>
</svg>
