<svg width="24" height="24" viewBox="0 0 24 24" fill="none" xmlns="http://www.w3.org/2000/svg">
<path fill-rule="evenodd" clip-rule="evenodd" d="M11.1603 1.25C5.82745 1.25 1.25 4.84588 1.25 9.56692C1.25 11.1397 1.94189 12.9527 3.02491 14.388C4.10578 15.8205 5.68404 17.0135 7.54646 17.1087C8.78673 17.1721 9.80477 16.516 10.5668 16.0249L10.631 15.983C10.8041 15.8681 11.2752 15.5556 11.3501 15.5073C11.5404 15.3846 11.7012 15.2956 11.8521 15.2396C12.2687 15.085 12.6875 15.2423 13.4376 15.5654C13.974 15.7967 14.7275 16.1216 15.581 15.9639L16.139 17.3265C15.0586 17.7987 14.0886 17.3805 13.438 17.1C12.6879 16.7769 12.2691 16.6195 11.8526 16.7742C11.7016 16.8302 11.5408 16.9192 11.3505 17.0419C11.3283 17.0562 11.2711 17.0939 11.1971 17.1427C11.2944 17.6123 11.4179 18.1022 11.5743 18.5587C11.7687 19.1257 12.0383 19.716 12.4286 20.1385C12.7561 20.4931 13.146 20.7417 13.6109 20.9675C14.0582 21.1848 14.621 21.4017 15.3129 21.6684L15.3428 21.6799C15.4931 21.7379 15.674 21.8146 15.8758 21.9002C16.4619 22.1488 17.2259 22.4729 17.9392 22.6332C18.9357 22.8571 20.1831 22.849 21.0391 21.7427C21.3112 21.3911 21.4791 20.9839 21.5772 20.5578L19.0371 19.7111L19.5115 18.2881L21.6884 19.0137C21.6827 18.8932 21.6746 18.7748 21.665 18.6593C21.6089 17.9865 21.4774 17.2499 21.3698 16.647C21.3411 16.4859 21.314 16.3342 21.2905 16.1959L22.75 13.999L20.2555 11.0064C20.7421 10.2594 21.1741 9.41088 20.9392 8.20834C20.1498 4.1676 15.9808 1.25 11.1603 1.25ZM12.7579 8.46273C12.102 8.65133 11.2281 9.05407 10.6736 9.92745C10.5561 10.185 10.5008 10.2768 10.3551 10.2506C9.38741 10.0764 8.26987 9.47073 7.71278 7.76758L6.28711 8.23391C7.03672 10.5256 8.64881 11.4679 10.0905 11.727C10.5576 11.811 10.9636 11.6626 11.2657 11.455C11.5585 11.2537 11.7812 10.9813 11.9398 10.7315C12.2169 10.2952 12.6897 10.0431 13.1724 9.90432C13.4066 9.837 13.6216 9.80286 13.7774 9.78585C13.8547 9.77742 13.9156 9.7734 13.9548 9.77149L13.8818 8.27326C13.816 8.27647 13.725 8.28267 13.6147 8.29471C13.3955 8.31863 13.0932 8.36634 12.7579 8.46273Z" fill="#141B34"/>
</svg>
