<svg width="24" height="24" viewBox="0 0 24 24" fill="none" xmlns="http://www.w3.org/2000/svg">
<path fill-rule="evenodd" clip-rule="evenodd" d="M4.75 2C4.75 1.58579 5.08579 1.25 5.5 1.25H18.5C18.9142 1.25 19.25 1.58579 19.25 2V22C19.25 22.4142 18.9142 22.75 18.5 22.75H5.5C5.08579 22.75 4.75 22.4142 4.75 22V2ZM11 18H13.009V20H11V18ZM10.5 4.75H13.5V3.25H10.5V4.75Z" fill="#141B34"/>
<path fill-rule="evenodd" clip-rule="evenodd" d="M21.7542 7.79102C21.7545 7.79091 21.7548 7.79081 22 8.49958C22.2452 9.20835 22.2455 9.20825 22.2458 9.20815L22.2464 9.20795L22.2475 9.20758L22.2493 9.20691L22.2522 9.20591C22.2526 9.20577 22.2529 9.20565 22.2532 9.20555C22.2539 9.20528 22.2542 9.20516 22.2541 9.2052L22.2445 9.20904C22.2326 9.21401 22.2109 9.22346 22.1829 9.23766C22.1252 9.26692 22.0504 9.31133 21.9787 9.37072C21.8378 9.48763 21.75 9.6225 21.75 9.81208C21.75 9.99737 21.8193 10.112 22.0802 10.4306C22.0886 10.4408 22.0971 10.4512 22.1059 10.4619C22.3488 10.7574 22.75 11.2456 22.75 11.9996C22.75 12.7536 22.3488 13.2418 22.1059 13.5373C22.0971 13.548 22.0886 13.5584 22.0802 13.5685C21.8193 13.8872 21.75 14.0018 21.75 14.1871C21.75 14.3767 21.8378 14.5115 21.9787 14.6284C22.0504 14.6878 22.1252 14.7322 22.1829 14.7615C22.2109 14.7757 22.2326 14.7852 22.2445 14.7901L22.2541 14.794C22.2542 14.794 22.2536 14.7938 22.2522 14.7933L22.2493 14.7922L22.2475 14.7916L22.2464 14.7912L22.2458 14.791C22.2455 14.7909 22.2452 14.7908 22 15.4996C21.7548 16.2084 21.7545 16.2082 21.7542 16.2081L21.7535 16.2079L21.7522 16.2075L21.7492 16.2064L21.7421 16.2039L21.7234 16.197C21.7091 16.1915 21.691 16.1844 21.6695 16.1755C21.6268 16.1578 21.5703 16.1327 21.5046 16.0993C21.3748 16.0335 21.1996 15.931 21.0213 15.7831C20.6622 15.4854 20.25 14.964 20.25 14.1871C20.25 13.4331 20.6512 12.9449 20.8941 12.6494C20.9029 12.6387 20.9114 12.6283 20.9198 12.6181C21.1807 12.2995 21.25 12.1849 21.25 11.9996C21.25 11.8143 21.1807 11.6997 20.9198 11.381C20.9114 11.3709 20.9029 11.3605 20.8941 11.3498C20.6512 11.0543 20.25 10.5661 20.25 9.81208C20.25 9.03516 20.6622 8.51378 21.0213 8.21607C21.1996 8.06814 21.3748 7.96565 21.5046 7.89983C21.5703 7.86649 21.6268 7.84136 21.6695 7.82363C21.691 7.81473 21.7091 7.80762 21.7234 7.8022L21.7421 7.79529L21.7492 7.79275L21.7522 7.79171L21.7535 7.79124L21.7542 7.79102Z" fill="#141B34"/>
<path fill-rule="evenodd" clip-rule="evenodd" d="M2.24585 7.79102C2.24554 7.79091 2.24524 7.79081 2 8.49958C1.75476 9.20835 1.75447 9.20825 1.75418 9.20815L1.75361 9.20795L1.75254 9.20758L1.75065 9.20691L1.74784 9.20591C1.74744 9.20577 1.74711 9.20565 1.74684 9.20555C1.7461 9.20528 1.7458 9.20516 1.74591 9.2052L1.75547 9.20904C1.76744 9.21401 1.78906 9.22346 1.81705 9.23766C1.87475 9.26692 1.94964 9.31133 2.02125 9.37072C2.16224 9.48763 2.25 9.6225 2.25 9.81208C2.25 9.99737 2.18073 10.112 1.91976 10.4306C1.91144 10.4408 1.90288 10.4512 1.89411 10.4619C1.65125 10.7574 1.25 11.2456 1.25 11.9996C1.25 12.7536 1.65125 13.2418 1.89411 13.5373C1.90288 13.548 1.91144 13.5584 1.91976 13.5685C2.18073 13.8872 2.25 14.0018 2.25 14.1871C2.25 14.3767 2.16224 14.5115 2.02125 14.6284C1.94964 14.6878 1.87475 14.7322 1.81705 14.7615C1.78906 14.7757 1.76744 14.7852 1.75547 14.7901L1.74591 14.794C1.74576 14.794 1.74638 14.7938 1.74784 14.7933L1.75065 14.7922L1.75254 14.7916L1.75361 14.7912L1.75418 14.791C1.75447 14.7909 1.75476 14.7908 2 15.4996C2.24524 16.2084 2.24554 16.2082 2.24585 16.2081L2.24648 16.2079L2.24782 16.2075L2.2508 16.2064L2.2579 16.2039L2.27655 16.197C2.29089 16.1915 2.30904 16.1844 2.33047 16.1755C2.37319 16.1578 2.42969 16.1327 2.49545 16.0993C2.62525 16.0335 2.80036 15.931 2.97875 15.7831C3.33776 15.4854 3.75 14.964 3.75 14.1871C3.75 13.4331 3.34875 12.9449 3.10589 12.6494C3.09712 12.6387 3.08856 12.6283 3.08024 12.6181C2.81927 12.2995 2.75 12.1849 2.75 11.9996C2.75 11.8143 2.81927 11.6997 3.08024 11.381C3.08856 11.3709 3.09712 11.3605 3.10589 11.3498C3.34875 11.0543 3.75 10.5661 3.75 9.81208C3.75 9.03516 3.33776 8.51378 2.97875 8.21607C2.80036 8.06814 2.62525 7.96565 2.49545 7.89983C2.42969 7.86649 2.37319 7.84136 2.33047 7.82363C2.30904 7.81473 2.29089 7.80762 2.27655 7.8022L2.2579 7.79529L2.2508 7.79275L2.24782 7.79171L2.24648 7.79124L2.24585 7.79102Z" fill="#141B34"/>
</svg>
