<svg width="24" height="24" viewBox="0 0 24 24" fill="none" xmlns="http://www.w3.org/2000/svg">
<path d="M7.41836 12.25C7.69922 11.6588 8.30185 11.25 8.99995 11.25C9.69805 11.25 10.3007 11.6588 10.5815 12.25H12.163C11.8244 10.8167 10.5367 9.75 8.99995 9.75C7.46316 9.75 6.1755 10.8167 5.83691 12.25H7.41836Z" fill="#141B34"/>
<path fill-rule="evenodd" clip-rule="evenodd" d="M9 7.74902C6.10051 7.74902 3.75 10.0995 3.75 12.999H2.25C2.25 9.2711 5.27208 6.24902 9 6.24902C12.7279 6.24902 15.75 9.2711 15.75 12.999H14.25C14.25 10.0995 11.8995 7.74902 9 7.74902Z" fill="#141B34"/>
<path d="M10.5816 12.25H7.41841C7.31042 12.4773 7.25 12.7316 7.25 13H5.75C5.75 12.7419 5.78009 12.4908 5.83697 12.25H2C1.58579 12.25 1.25 12.5858 1.25 13C1.25 14.3804 2.01858 15.8478 3.32295 16.5L5.48644 17.5817L7.37596 20.416C7.51506 20.6247 7.74924 20.75 8 20.75H16C16.2508 20.75 16.4849 20.6247 16.624 20.416L18.5136 17.5817L20.6771 16.5C21.9814 15.8478 22.75 14.3804 22.75 13C22.75 12.5858 22.4142 12.25 22 12.25H12.163C12.2199 12.4908 12.25 12.7419 12.25 13V16H10.75V13C10.75 12.7316 10.6896 12.4773 10.5816 12.25Z" fill="#141B34"/>
<path fill-rule="evenodd" clip-rule="evenodd" d="M16.0304 8.74902C15.2456 8.74902 14.5129 8.9642 13.8845 9.33894L13.1162 8.05061C13.97 7.54149 14.9672 7.24902 16.0304 7.24902C19.1937 7.24902 21.7503 9.82765 21.7503 12.999H20.2503C20.2503 10.6475 18.3567 8.74902 16.0304 8.74902Z" fill="#141B34"/>
<path fill-rule="evenodd" clip-rule="evenodd" d="M13.0835 4.8147C11.5235 4.48871 10.0529 5.40551 9.72864 6.73286L8.27148 6.37691C8.80973 4.17348 11.1329 2.87469 13.3904 3.34642C15.6621 3.82112 17.1848 5.94993 16.6408 8.17725L15.1836 7.8213C15.502 6.51785 14.6293 5.13771 13.0835 4.8147Z" fill="#141B34"/>
</svg>
