<svg width="24" height="24" viewBox="0 0 24 24" fill="none" xmlns="http://www.w3.org/2000/svg">
<path fill-rule="evenodd" clip-rule="evenodd" d="M1.5 2H6.5V4H3.5V20L6.49999 20L6.50001 22L1.5 22V2ZM22.5 2.00002V22H17.5V20H20.5V4.00003L17.5 4.00005L17.5 2.00005L22.5 2.00002Z" fill="#141B34"/>
<path fill-rule="evenodd" clip-rule="evenodd" d="M15.7071 7.29471C15.8947 7.48226 16.0001 7.73667 16.0001 8.00195V9.99945H14.0001V9.00233L11.2049 9.00339L13.8292 11.9991L11.2043 14.9986L13.9999 14.9975V13.9995H15.9999V15.9971C15.9999 16.5492 15.5524 16.9969 15.0003 16.9971L8.99993 16.9995C8.60747 16.9997 8.2512 16.7702 8.08896 16.4129C7.92673 16.0555 7.98854 15.6363 8.247 15.341L11.1709 11.9998L8.24792 8.66318C7.98934 8.36801 7.9273 7.94888 8.08928 7.59145C8.25126 7.23403 8.60732 7.00438 8.99973 7.00423L14.9997 7.00195C15.265 7.00185 15.5195 7.10716 15.7071 7.29471Z" fill="#141B34"/>
</svg>
