<svg width="24" height="24" viewBox="0 0 24 24" fill="none" xmlns="http://www.w3.org/2000/svg">
<path d="M14.1004 13.5348C14.9698 14.3903 14.9665 15.7936 14.0905 16.6449L14.0764 16.6586L14.0616 16.6716C13.6484 17.033 13.1433 17.2491 12.5434 17.2491C11.9464 17.2491 11.3423 17.006 10.9131 16.5889C10.0363 15.7368 10.036 14.3647 10.8707 13.5108L10.8858 13.4953L12.5775 11.9531L14.1004 13.5348Z" fill="#141B34"/>
<path d="M10.6004 19.0348C11.4698 19.8903 11.4665 21.2936 10.5905 22.1449L10.5764 22.1586L10.5616 22.1716C10.1484 22.533 9.64333 22.7491 9.04344 22.7491C8.44636 22.7491 7.84229 22.506 7.41314 22.0889C6.53631 21.2368 6.53602 19.8647 7.37068 19.0108L7.38578 18.9953L9.07753 17.4531L10.6004 19.0348Z" fill="#141B34"/>
<path d="M17.6004 19.0348C18.4698 19.8903 18.4665 21.2936 17.5905 22.1449L17.5764 22.1586L17.5616 22.1716C17.1484 22.533 16.6433 22.7491 16.0434 22.7491C15.4464 22.7491 14.8423 22.506 14.4131 22.0889C13.5363 21.2368 13.536 19.8647 14.3707 19.0108L14.3858 18.9953L16.0775 17.4531L17.6004 19.0348Z" fill="#141B34"/>
<path d="M6.353 8.36454C3.72664 8.89643 1.75 11.217 1.75 14C1.75 16.4491 3.28121 18.5406 5.43854 19.3694C5.60959 18.8563 5.89662 18.374 6.29801 17.9633L6.3433 17.917L8.80612 15.6719C8.60604 14.5411 8.94197 13.3391 9.79801 12.4633L9.8433 12.417L12.6457 9.8623L15.1686 12.4828C15.9828 13.2937 16.3373 14.3913 16.2319 15.4518L18.6686 17.9828C19.1107 18.4231 19.4173 18.9479 19.5882 19.5055C21.7114 18.8324 23.25 16.8459 23.25 14.5C23.25 11.8541 21.2927 9.66534 18.7469 9.30273C18.6428 5.94224 15.8858 3.25 12.5 3.25C9.43585 3.25 6.88731 5.45456 6.353 8.36454Z" fill="#141B34"/>
<path fill-rule="evenodd" clip-rule="evenodd" d="M5.70538 2.35111C5.07484 2.48056 4.48827 2.73001 3.96989 3.07449L3.20433 2.3032L1.78485 3.71212L2.55911 4.49218C2.21331 5.01742 1.96355 5.61191 1.83467 6.25H0.75V8.25H1.83468C2.05366 9.33422 2.62153 10.2919 3.41473 10.9973L4.74374 9.50272C4.1249 8.95242 3.73513 8.14859 3.73513 7.25C3.73513 5.5861 5.07198 4.25 6.70538 4.25C7.61697 4.25 8.4337 4.66374 8.98114 5.322L10.5189 4.04315C9.81277 3.19414 8.82841 2.5823 7.70538 2.35134V1.25H5.70538V2.35111Z" fill="#141B34"/>
</svg>
