<svg width="24" height="24" viewBox="0 0 24 24" fill="none" xmlns="http://www.w3.org/2000/svg">
<path fill-rule="evenodd" clip-rule="evenodd" d="M3 13.5H2L2 11.5L22 11.5V13.5H21V22.25H19V18.25L5 18.25V22.25H3L3 13.5ZM10.5 15.75L13.5 15.75L13.5 14.25L10.5 14.25L10.5 15.75Z" fill="#141B34"/>
<path d="M16.6966 7.22125C16.7892 7.45233 16.761 7.71425 16.6215 7.92038C16.482 8.12651 16.2493 8.25 16.0004 8.25H8.00098C7.75217 8.25 7.51955 8.12661 7.38001 7.9206C7.24048 7.71459 7.2122 7.45279 7.30451 7.22174L9.49066 1.75002L14.5063 1.75L16.6966 7.22125Z" fill="#141B34"/>
<path fill-rule="evenodd" clip-rule="evenodd" d="M11 12.5V7.5H13V12.5H11Z" fill="#141B34"/>
</svg>
