<svg width="24" height="24" viewBox="0 0 24 24" fill="none" xmlns="http://www.w3.org/2000/svg">
<path fill-rule="evenodd" clip-rule="evenodd" d="M12.75 16L12.75 14H11.25L11.25 16H12.75ZM4.75 18L4.75 16H3.25L3.25 18H4.75ZM20.75 18V16L19.25 16V18L20.75 18ZM12.7496 22.75V19H11.2496V22.75H8.75L8.75 11.75H15.25L15.25 22.75H12.7496ZM7.25 22.75H1.25L1.25 13.4H2.0003C2.32968 13.4 2.80183 13.3728 3.2638 13.3197C3.70965 13.2684 4.21887 13.1854 4.58496 13.0511L7.25 12.0739L7.25 22.75ZM16.75 12.0737V22.75H22.75V13.4H22.0003C21.6709 13.4 21.1988 13.3728 20.7368 13.3197C20.2909 13.2684 19.7817 13.1854 19.4156 13.0511L16.75 12.0737Z" fill="#141B34"/>
<path d="M8.0003 10.25C7.91221 10.25 7.82481 10.2655 7.7421 10.2958L6.83906 10.627C6.41405 9.93214 6.21975 9.24341 6.25381 8.55661C6.30558 7.51241 6.87802 6.66055 7.53471 5.97944C8.17273 5.31769 8.97664 4.73076 9.6764 4.21986L9.73703 4.17558C10.3766 3.70845 10.8987 3.32024 11.25 2.96195V1.25H12.75V2.96194C13.1013 3.32024 13.6234 3.70845 14.263 4.17558L14.3236 4.21979C15.0234 4.73069 15.8274 5.31768 16.4654 5.97944C17.1221 6.66055 17.6945 7.51241 17.7463 8.55662C17.7803 9.24336 17.586 9.93204 17.1611 10.6268L16.2585 10.2958C16.1758 10.2655 16.0884 10.25 16.0003 10.25H8.0003Z" fill="#141B34"/>
<path d="M2.1484 11.898C2.40573 11.8914 2.74897 11.869 3.09251 11.8295C3.37941 11.7965 3.63389 11.7552 3.82728 11.7109C3.4286 11.2322 3.29144 10.8477 3.26454 10.5535C3.2332 10.2108 3.34079 9.87383 3.57668 9.51484C3.81809 9.14744 4.16471 8.80155 4.54401 8.46C4.62992 8.38264 4.72274 8.3013 4.81769 8.21809C4.92189 8.12679 5.0287 8.03319 5.13191 7.93999C5.29405 8.01728 5.47209 8.09288 5.63796 8.16254L5.66178 8.17254C6.09469 8.35433 6.41867 8.49037 6.58333 8.60546L7.44343 7.37982C7.13945 7.16737 6.67267 6.97256 6.32111 6.82584L6.2195 6.78335C6.04106 6.70842 5.8878 6.64272 5.76302 6.58256V5H4.26368V6.7051C4.16545 6.79722 4.04946 6.89887 3.91395 7.01764C3.80268 7.11516 3.67819 7.22426 3.5396 7.34906C3.14126 7.70775 2.67463 8.15897 2.32287 8.69431C1.96559 9.23805 1.70008 9.9095 1.7714 10.6895C1.80845 11.0947 1.93348 11.4974 2.1484 11.898Z" fill="#141B34"/>
<path d="M20.9081 11.8295C20.629 11.7974 20.3805 11.7574 20.1892 11.7145C20.5902 11.2341 20.728 10.8484 20.755 10.5534C20.7864 10.2107 20.6788 9.87374 20.443 9.51477C20.2016 9.14738 19.8551 8.80151 19.4759 8.45997C19.3899 8.38258 19.2971 8.30124 19.2021 8.21799C19.0981 8.12681 18.9912 8.03311 18.8881 7.94006C18.7261 8.01731 18.5483 8.09286 18.3826 8.16248L18.3584 8.17266C17.926 8.35435 17.6023 8.49036 17.4376 8.60546L16.5775 7.37982C16.8814 7.16743 17.3478 6.97266 17.6992 6.82594L17.8008 6.78341C17.9791 6.70848 18.1323 6.6428 18.257 6.58265V5H19.7563V6.70511C19.8545 6.7972 19.9704 6.89882 20.1059 7.01754C20.2172 7.1151 20.3417 7.22422 20.4803 7.34909C20.8786 7.70779 21.3452 8.15903 21.6969 8.69438C22.0541 9.23814 22.3195 9.90959 22.2481 10.6896C22.211 11.0949 22.0859 11.4977 21.8708 11.8984C21.6115 11.8925 21.26 11.87 20.9081 11.8295Z" fill="#141B34"/>
</svg>
