<svg width="24" height="24" viewBox="0 0 24 24" fill="none" xmlns="http://www.w3.org/2000/svg">
<path fill-rule="evenodd" clip-rule="evenodd" d="M2.94979 19.3691L2 14.6295L3.96504 14.2373L4.80592 18.4334H6.99043C7.42172 18.4334 7.80461 18.7089 7.94099 19.1172L8.94297 22.1172L7.04185 22.7496L6.26825 20.4334H4.70668L3.93308 22.7496L2.03196 22.1172L2.94979 19.3691Z" fill="#141B34"/>
<path fill-rule="evenodd" clip-rule="evenodd" d="M19.1941 18.4334L20.035 14.2373L22 14.6295L21.0502 19.3691L21.968 22.1172L20.0669 22.7496L19.2933 20.4334H17.7318L16.9581 22.7496L15.057 22.1172L16.059 19.1172C16.1954 18.7089 16.5783 18.4334 17.0096 18.4334H19.1941Z" fill="#141B34"/>
<path d="M11.4699 1.46938C11.7628 1.17687 12.2372 1.17687 12.53 1.46938C13.2371 2.17564 14.9076 3.39528 16.7121 4.58604C18.5061 5.76994 20.3336 6.86071 21.3161 7.32077C21.5797 7.44419 21.748 7.70896 21.748 8V10.75H2.24805V8C2.24805 7.70896 2.41643 7.44419 2.68001 7.32077C3.66265 6.86066 5.49118 5.76983 7.28613 4.58594C9.09158 3.39513 10.763 2.17554 11.4699 1.46938Z" fill="#141B34"/>
<path d="M14 22.75H10V20.75H11V16H9V14H11V10H13V14H15V16H13V20.75H14V22.75Z" fill="#141B34"/>
</svg>
