<svg width="24" height="24" viewBox="0 0 24 24" fill="none" xmlns="http://www.w3.org/2000/svg">
<path fill-rule="evenodd" clip-rule="evenodd" d="M8.25 20V3H10.25V20H12.25V22H6.25V20H8.25Z" fill="#141B34"/>
<path fill-rule="evenodd" clip-rule="evenodd" d="M1.54288 2.2929C1.73042 2.10536 1.98478 2 2.25 2L16.2501 2.00002C16.8024 2.00002 17.2501 2.44773 17.2501 3.00002V6.00002H15.2501V4.00002L3.25003 4L3.25008 5.99999L1.25008 6.00004L1.25 3.00003C1.24999 2.73481 1.35535 2.48044 1.54288 2.2929Z" fill="#141B34"/>
<path fill-rule="evenodd" clip-rule="evenodd" d="M19.0856 7.28609L19.0859 6L21.0859 6.00044L21.0856 7.28613L21.924 6.90717L22.7478 8.72963L21.6941 9.20594L22.6547 10.3607L21.1171 11.6397L20.0856 10.3997L19.0549 11.6395L17.5169 10.3609L18.4771 9.20591L17.4238 8.72955L18.248 6.90725L19.0856 7.28609Z" fill="#141B34"/>
</svg>
