<svg width="24" height="24" viewBox="0 0 24 24" fill="none" xmlns="http://www.w3.org/2000/svg">
<path fill-rule="evenodd" clip-rule="evenodd" d="M11 22V2H13V22H11Z" fill="#141B34"/>
<path fill-rule="evenodd" clip-rule="evenodd" d="M2 11L22 11L22 13L2 13L2 11Z" fill="#141B34"/>
<path fill-rule="evenodd" clip-rule="evenodd" d="M5.5 17C4.67157 17 4 17.6716 4 18.5C4 19.3284 4.67157 20 5.5 20C6.32843 20 7 19.3284 7 18.5C7 17.6716 6.32843 17 5.5 17ZM2 18.5C2 16.567 3.567 15 5.5 15C7.433 15 9 16.567 9 18.5C9 20.433 7.433 22 5.5 22C3.567 22 2 20.433 2 18.5Z" fill="#141B34"/>
<path fill-rule="evenodd" clip-rule="evenodd" d="M18.5001 4.08586L20.293 2.29297L21.7072 3.70718L19.9143 5.50008L21.7072 7.29297L20.293 8.70718L18.5001 6.91429L16.7072 8.70718L15.293 7.29297L17.0859 5.50008L15.293 3.70718L16.7072 2.29297L18.5001 4.08586Z" fill="#141B34"/>
</svg>
