<svg width="24" height="24" viewBox="0 0 24 24" fill="none" xmlns="http://www.w3.org/2000/svg">
<path fill-rule="evenodd" clip-rule="evenodd" d="M1.24609 3.5C1.24609 3.08579 1.58188 2.75 1.99609 2.75H21.9953C22.4095 2.75 22.7453 3.08579 22.7453 3.5V20.5C22.7453 20.9142 22.4095 21.25 21.9953 21.25H1.99609C1.58188 21.25 1.24609 20.9142 1.24609 20.5V13.75H2.4692C3.43569 13.75 4.2192 12.9665 4.2192 12C4.2192 11.0335 3.43569 10.25 2.46919 10.25H1.24609V3.5ZM17.9961 11L12.9961 11V13L17.9961 13V11ZM8.99609 15L17.9961 15V17L8.99609 17V15Z" fill="#141B34"/>
</svg>
