<svg width="24" height="24" viewBox="0 0 24 24" fill="none" xmlns="http://www.w3.org/2000/svg">
<path d="M11.4999 6C8.04366 6.00002 4.6329 7.26356 1.5 9.71401L2.81491 11.2247C5.62597 9.0501 8.58526 8.00001 11.4999 8L11.4999 6Z" fill="#141B34"/>
<path d="M14.5413 17.7071C12.9323 16.0976 10.0664 16.0976 8.45744 17.7071L7.14246 16.1964C9.51266 13.9345 13.4863 13.9345 15.8564 16.1965L14.5413 17.7071Z" fill="#141B34"/>
<path d="M18.5236 13.1329L17.2105 14.6411C13.8903 11.8 9.36432 11.7715 5.79179 14.6447L4.47802 13.1353C8.77455 9.63752 14.416 9.60646 18.5236 13.1329Z" fill="#141B34"/>
<path d="M11.5 19C10.9477 19 10.5 19.4477 10.5 20C10.5 20.5523 10.9477 21 11.5 21H11.5118C12.0641 21 12.5118 20.5523 12.5118 20C12.5118 19.4477 12.0641 19 11.5118 19H11.5Z" fill="#141B34"/>
<path fill-rule="evenodd" clip-rule="evenodd" d="M22.5017 4.34547L16.7962 10.6204L14.0547 7.87892L15.4689 6.46471L16.7274 7.72319L21.0219 3L22.5017 4.34547Z" fill="#141B34"/>
</svg>
