<svg width="24" height="24" viewBox="0 0 24 24" fill="none" xmlns="http://www.w3.org/2000/svg">
<path d="M12 1C11.1189 1 10.4131 1.53567 9.96175 2.21265C9.50693 2.89488 9.25 3.79416 9.25 4.75C9.25 5.70584 9.50693 6.60512 9.96175 7.28735C10.2259 7.68361 10.5773 8.03146 11 8.2518V10.4839C10.2591 10.8521 9.75 11.6166 9.75 12.5C9.75 12.5433 9.75122 12.5864 9.75364 12.6291L8.2241 13.6488C7.83187 13.4091 7.37169 13.2867 6.91416 13.2574C6.10505 13.2055 5.20793 13.4288 4.38924 13.8988C3.57064 14.3687 2.92646 15.0302 2.56607 15.7549C2.20839 16.4742 2.09718 17.3441 2.53585 18.0996C2.97379 18.8538 3.7841 19.1912 4.58625 19.2427C5.39536 19.2945 6.29248 19.0713 7.11117 18.6013C7.92977 18.1313 8.57395 17.4698 8.93434 16.7451C9.14524 16.321 9.27045 15.8445 9.24778 15.37L10.7481 14.3698C10.8285 14.4238 10.9127 14.4727 11 14.5161V21H6V23H18V21H13V14.5161C13.0874 14.4727 13.1715 14.4238 13.2519 14.3698L14.7526 15.3703C14.73 15.8447 14.8552 16.321 15.0661 16.7451C15.4265 17.4698 16.0706 18.1313 16.8892 18.6013C17.7079 19.0713 18.6051 19.2945 19.4142 19.2427C20.2163 19.1912 21.0266 18.8538 21.4646 18.0996C21.9032 17.3441 21.792 16.4742 21.4343 15.7549C21.0739 15.0302 20.4298 14.3687 19.6112 13.8988C18.7925 13.4288 17.8954 13.2055 17.0863 13.2574C16.6286 13.2867 16.1684 13.4091 15.7761 13.6489L14.2464 12.6291C14.2488 12.5864 14.25 12.5433 14.25 12.5C14.25 11.6166 13.7409 10.8521 13 10.4839V8.2518C13.4227 8.03146 13.7741 7.68361 14.0383 7.28735C14.4931 6.60512 14.75 5.70584 14.75 4.75C14.75 3.79416 14.4931 2.89488 14.0383 2.21265C13.5869 1.53567 12.8811 1 12 1Z" fill="#141B34"/>
<path fill-rule="evenodd" clip-rule="evenodd" d="M7.98864 3.8729C5.59139 5.21548 4 7.71044 4 10.5482C4 10.9855 4.03764 11.4135 4.10975 11.8297L2.13912 12.1712C2.04756 11.6428 2 11.1005 2 10.5482C2 6.93549 4.0284 3.79855 7.01136 2.12793L7.98864 3.8729ZM20 10.5482C20 7.71044 18.4086 5.21548 16.0114 3.8729L16.9886 2.12793C19.9716 3.79855 22 6.93549 22 10.5482C22 11.1005 21.9524 11.6428 21.8609 12.1712L19.8902 11.8297C19.9624 11.4135 20 10.9855 20 10.5482Z" fill="#141B34"/>
</svg>
