<svg width="24" height="24" viewBox="0 0 24 24" fill="none" xmlns="http://www.w3.org/2000/svg">
<path d="M12.3984 4.5C12.3984 3.25736 13.4058 2.25 14.6484 2.25C15.8911 2.25 16.8984 3.25736 16.8984 4.5C16.8984 5.74264 15.8911 6.75 14.6484 6.75C13.4058 6.75 12.3984 5.74264 12.3984 4.5Z" fill="#141B34"/>
<path d="M10.4161 8.20539L7.4873 13.6445C7.35171 13.8963 7.37113 14.2033 7.53735 14.436L9.64241 17.3831L6.1543 20.6211L7.14205 21.75L11.1415 18.0645C11.4317 17.8106 11.4821 17.378 11.258 17.0642L9.60504 14.7501H13.7727L16.5477 18.4501L17.7477 17.5501L14.7477 13.5501C14.606 13.3613 14.3837 13.2501 14.1477 13.2501H13.0881L15.0403 10.4613L15.9773 12.3354C16.1298 12.6403 16.4687 12.8041 16.8024 12.734L19.5 12.0111L19.1916 10.5432L17.0602 11.1471L15.819 8.66452C15.7528 8.53208 15.6488 8.4222 15.5203 8.34874L12.0203 6.34881C11.8344 6.24263 11.6121 6.22089 11.4092 6.28909L6.94671 7.78909C6.77439 7.84701 6.62897 7.96556 6.53751 8.12267L4.5 11.6226L5.79633 12.3773L7.69196 9.12106L10.4161 8.20539Z" fill="#141B34"/>
</svg>
