<svg width="24" height="24" viewBox="0 0 24 24" fill="none" xmlns="http://www.w3.org/2000/svg">
<path d="M9.92297 1.74199C10.6708 1.4479 11.1741 1.25 12 1.25C12.8258 1.25 13.3291 1.4479 14.077 1.74199C16.8951 2.84975 19.2339 4.57534 20.7085 5.95067C20.9852 6.20856 21.2608 6.46552 21.4423 6.70566C21.6522 6.98337 21.8621 7.40639 21.6835 7.91548C21.6007 8.15179 21.4492 8.34715 21.241 8.48498C21.0514 8.61049 20.8476 8.66662 20.6806 8.6966C20.3817 8.75028 19.9976 8.75015 19.6138 8.75001H4.38617C4.0023 8.75015 3.61824 8.75028 3.31929 8.6966C3.15233 8.66662 2.94853 8.61049 2.75896 8.48498C2.55076 8.34715 2.39926 8.15179 2.31637 7.91548C2.13781 7.40639 2.34771 6.98336 2.55758 6.70566C2.73907 6.46552 3.01475 6.20856 3.29143 5.95067C4.766 4.57535 7.10488 2.84975 9.92297 1.74199Z" fill="#141B34"/>
<path opacity="0.4" d="M21.5691 12.8385C21.497 11.9959 21.4169 11.0599 21.3585 10.3667C21.3439 10.1926 21.3365 10.1056 21.2791 10.0528C21.2217 10.0001 21.1344 10.0001 20.9597 10.0001L3.03977 10C2.8651 10 2.77777 10 2.72037 10.0528C2.66298 10.1055 2.65565 10.1926 2.64098 10.3667C2.58261 11.0596 2.50256 11.9952 2.43049 12.8376C2.35631 13.7048 2.29057 14.4731 2.26562 14.7763V15.2237C2.26685 15.2386 2.27925 15.25 2.29415 15.25H9C9.41421 15.25 9.75 15.5858 9.75 16C9.75 16.4142 9.41421 16.75 9 16.75H2.82568C2.62243 16.75 2.5208 16.75 2.46139 16.8145C2.40197 16.879 2.41033 16.9803 2.42704 17.1828C2.49843 18.0481 2.5769 18.9972 2.63157 19.653C2.72594 20.785 3.1462 21.7103 3.96657 22.5304C4.10721 22.671 4.29794 22.75 4.49681 22.75H19.5027C19.7016 22.75 19.8923 22.671 20.0329 22.5304C20.8533 21.7103 21.2736 20.785 21.3679 19.653C21.4226 18.9972 21.5011 18.0481 21.5725 17.1828C21.5892 16.9803 21.5975 16.879 21.5381 16.8145C21.4787 16.75 21.3771 16.75 21.1738 16.75H15C14.5858 16.75 14.25 16.4142 14.25 16C14.25 15.5858 14.5858 15.25 15 15.25H21.7054C21.7203 15.25 21.7327 15.2386 21.7339 15.2237V14.7763C21.709 14.4732 21.6433 13.7053 21.5691 12.8385Z" fill="#141B34"/>
<path fill-rule="evenodd" clip-rule="evenodd" d="M11 16C11 15.4477 11.4477 15 12 15H12.009C12.5612 15 13.009 15.4477 13.009 16C13.009 16.5523 12.5612 17 12.009 17H12C11.4477 17 11 16.5523 11 16Z" fill="#141B34"/>
<path fill-rule="evenodd" clip-rule="evenodd" d="M9.81234 14.1504C9.77172 14.3353 9.75 14.6026 9.75 15V22C9.75 22.4142 9.41421 22.75 9 22.75C8.58579 22.75 8.25 22.4142 8.25 22V15C8.25 14.5701 8.27144 14.1737 8.34728 13.8285C8.42498 13.4748 8.56966 13.1287 8.84917 12.8492C9.12868 12.5697 9.4748 12.425 9.82851 12.3473C10.1737 12.2714 10.5701 12.25 11 12.25H13C13.4299 12.25 13.8263 12.2714 14.1715 12.3473C14.5252 12.425 14.8713 12.5697 15.1508 12.8492C15.4303 13.1287 15.575 13.4748 15.6527 13.8285C15.7286 14.1737 15.75 14.5701 15.75 15V22C15.75 22.4142 15.4142 22.75 15 22.75C14.5858 22.75 14.25 22.4142 14.25 22V15C14.25 14.6026 14.2283 14.3353 14.1877 14.1504C14.1395 13.9311 14.0689 13.8605 13.8496 13.8123C13.6647 13.7717 13.3974 13.75 13 13.75H11C10.6026 13.75 10.3353 13.7717 10.1504 13.8123C9.9311 13.8605 9.86051 13.9311 9.81234 14.1504Z" fill="#141B34"/>
<path fill-rule="evenodd" clip-rule="evenodd" d="M2 22C2 21.4477 2.44772 21 3 21L21 21C21.5523 21 22 21.4477 22 22C22 22.5523 21.5523 23 21 23L3 23C2.44772 23 2 22.5523 2 22Z" fill="#141B34"/>
</svg>
