<svg width="24" height="24" viewBox="0 0 24 24" fill="none" xmlns="http://www.w3.org/2000/svg">
<path fill-rule="evenodd" clip-rule="evenodd" d="M8.99311 1.48866C9.27551 1.79168 9.2588 2.26626 8.95579 2.54866C8.6814 2.80438 8.6814 3.19562 8.95579 3.45134C9.86659 4.30019 9.86659 5.69981 8.95579 6.54866C8.65277 6.83107 8.17819 6.81436 7.89578 6.51134C7.61338 6.20833 7.63009 5.73375 7.9331 5.45134C8.20748 5.19562 8.20748 4.80438 7.9331 4.54866C7.0223 3.69981 7.0223 2.30019 7.9331 1.45134C8.23612 1.16894 8.7107 1.18564 8.99311 1.48866ZM12.5487 1.48866C12.8311 1.79168 12.8144 2.26626 12.5113 2.54866C12.237 2.80438 12.237 3.19562 12.5113 3.45134C13.4221 4.30019 13.4221 5.69981 12.5113 6.54866C12.2083 6.83107 11.7337 6.81436 11.4513 6.51134C11.1689 6.20833 11.1856 5.73375 11.4887 5.45134C11.763 5.19562 11.763 4.80438 11.4887 4.54866C10.5779 3.69981 10.5779 2.30019 11.4887 1.45134C11.7917 1.16894 12.2663 1.18564 12.5487 1.48866ZM16.1042 1.48866C16.3866 1.79168 16.3699 2.26626 16.0669 2.54866C15.7925 2.80438 15.7925 3.19562 16.0669 3.45134C16.9777 4.30019 16.9777 5.69981 16.0669 6.54866C15.7639 6.83107 15.2893 6.81436 15.0069 6.51134C14.7245 6.20833 14.7412 5.73375 15.0442 5.45134C15.3186 5.19562 15.3186 4.80438 15.0442 4.54866C14.1334 3.69981 14.1334 2.30019 15.0442 1.45134C15.3472 1.16894 15.8218 1.18564 16.1042 1.48866Z" fill="#141B34"/>
<path fill-rule="evenodd" clip-rule="evenodd" d="M9.29539 14.3108C9.67611 14.474 9.85247 14.9149 9.68931 15.2956L8.42307 18.2502H11.2499V15.0002C11.2499 14.586 11.5857 14.2502 11.9999 14.2502C12.4142 14.2502 12.7499 14.586 12.7499 15.0002V18.2502H15.5768L14.3106 15.2956C14.1474 14.9149 14.3238 14.474 14.7045 14.3108C15.0852 14.1477 15.5261 14.324 15.6893 14.7048L18.6893 21.7048C18.8525 22.0855 18.6761 22.5264 18.2954 22.6896C17.9147 22.8527 17.4738 22.6764 17.3106 22.2956L16.2197 19.7502H12.7499V22.0002C12.7499 22.4144 12.4142 22.7502 11.9999 22.7502C11.5857 22.7502 11.2499 22.4144 11.2499 22.0002V19.7502H7.78021L6.68931 22.2956C6.52614 22.6764 6.08523 22.8527 5.70451 22.6896C5.32379 22.5264 5.14742 22.0855 5.31059 21.7048L8.31059 14.7048C8.47376 14.324 8.91467 14.1477 9.29539 14.3108Z" fill="#141B34"/>
<path d="M5.9463 7.25001L5.98355 7.25003H18.0164L18.0536 7.25001C18.2621 7.2499 18.4955 7.24978 18.6936 7.28034C18.9369 7.31787 19.2263 7.41419 19.4577 7.68014C19.6781 7.93358 19.7433 8.21681 19.7494 8.46788C19.7542 8.66272 19.7226 8.88245 19.696 9.0674L19.6909 9.10322C19.1533 12.8627 15.9141 15.75 12 15.75C8.08587 15.75 4.8466 12.8627 4.30903 9.10322L4.30389 9.0674C4.2773 8.88245 4.2457 8.66272 4.25048 8.46788C4.25664 8.21681 4.32179 7.93358 4.54226 7.68014C4.77361 7.41419 5.06306 7.31787 5.30634 7.28034C5.50446 7.24978 5.73782 7.2499 5.9463 7.25001L5.9463 7.25001Z" fill="#141B34"/>
<path fill-rule="evenodd" clip-rule="evenodd" d="M3 10C3 9.44772 3.44772 9 4 9H5C5.55228 9 6 9.44772 6 10C6 10.5523 5.55228 11 5 11H4C3.44772 11 3 10.5523 3 10ZM18 10C18 9.44772 18.4477 9 19 9H20C20.5523 9 21 9.44772 21 10C21 10.5523 20.5523 11 20 11H19C18.4477 11 18 10.5523 18 10Z" fill="#141B34"/>
</svg>
