<svg width="24" height="24" viewBox="0 0 24 24" fill="none" xmlns="http://www.w3.org/2000/svg">
<path d="M12.0062 3.15163C14.6501 0.507733 18.4234 0.726883 20.8482 3.15163C22.7739 5.07731 23.3245 7.87112 22.097 10.2882C21.9798 10.5189 21.7521 10.6729 21.4943 10.6957C21.2366 10.7185 20.9854 10.6069 20.8295 10.4003C20.1979 9.56303 19.1634 9.43162 18.288 9.84033C17.4217 10.2447 16.8632 11.1074 17.1324 12.1722C17.202 12.4474 17.1102 12.7383 16.8953 12.9238C16.6803 13.1093 16.3791 13.1575 16.117 13.0484C15.6804 12.8666 15.2709 13.0307 15.0142 13.4013C14.7504 13.7822 14.7472 14.2383 15.0377 14.5644C15.1998 14.7463 15.2634 14.9956 15.2083 15.2329C15.1531 15.4703 14.9861 15.666 14.7605 15.7579C13.5338 16.2572 12.2687 16.6297 11.1395 16.7257C10.0343 16.8197 8.89168 16.6603 8.11558 15.8842C7.34643 15.1151 7.18324 13.9859 7.27147 12.8916C7.36155 11.7745 7.72477 10.5231 8.21435 9.30736C9.18959 6.88576 10.748 4.4098 12.0062 3.15163Z" fill="#141B34"/>
<path d="M6.08795 15.432C6.03423 15.2888 6.00737 15.2172 5.95407 15.2057C5.90076 15.1941 5.84842 15.2465 5.74375 15.3511L4.92974 16.1652C4.87652 16.2184 4.84991 16.245 4.81712 16.2498C4.78433 16.2546 4.74904 16.2356 4.67846 16.1975C3.81091 15.7296 2.67727 15.8352 1.92786 16.5846C1.02372 17.4887 1.02372 18.9546 1.92786 19.8588C2.28579 20.2167 2.7651 20.4601 3.27042 20.5473C3.34864 20.5608 3.38775 20.5675 3.41019 20.59C3.43262 20.6124 3.43937 20.6515 3.45287 20.7297C3.5401 21.2351 3.78348 21.7144 4.1414 22.0723C5.04555 22.9764 6.51146 22.9764 7.4156 22.0723C8.165 21.3229 8.27055 20.1893 7.80267 19.3217C7.76461 19.2511 7.74558 19.2158 7.75038 19.183C7.75518 19.1503 7.78179 19.1236 7.83502 19.0704L8.64918 18.2563C8.75387 18.1516 8.80621 18.0992 8.79466 18.0459C8.78312 17.9926 8.7115 17.9658 8.56828 17.912C8.03152 17.7108 7.51208 17.4028 7.05452 16.9452C6.59707 16.4878 6.28916 15.9684 6.08795 15.432Z" fill="#141B34"/>
</svg>
