<svg width="24" height="24" viewBox="0 0 24 24" fill="none" xmlns="http://www.w3.org/2000/svg">
<path fill-rule="evenodd" clip-rule="evenodd" d="M6.12547 6C6.07261 6 6.0323 6.04674 6.03921 6.09915L7.62383 18.132C7.73665 18.9887 7.80985 19.5266 7.91921 19.9186C8.01799 20.2727 8.11539 20.3871 8.20803 20.4607C8.31178 20.5431 8.66148 20.6982 9.33067 20.821C9.95092 20.9348 10.7082 20.9973 11.4822 20.9999C12.2564 21.0026 13.0159 20.9452 13.6412 20.8329C14.3123 20.7124 14.6737 20.5546 14.7919 20.4607C14.8845 20.3871 14.9819 20.2727 15.0807 19.9186C15.19 19.5266 15.2633 18.9887 15.3761 18.132L16.9607 6.09915C16.9676 6.04674 16.9273 6 16.8744 6H6.12547ZM5.31544 4.06305C5.57368 4.01139 5.85515 4 6.12547 4H16.8744C17.1447 4 17.4262 4.01139 17.6845 4.06305C17.9448 4.11511 18.275 4.22589 18.5492 4.49755C18.8366 4.78219 18.9468 5.1272 18.9832 5.41995C19.0172 5.69389 18.994 5.97744 18.9607 6.23042L17.3504 18.458C17.2488 19.2302 17.1592 19.911 17.0071 20.4561C16.8402 21.0542 16.5698 21.6026 16.0359 22.0267C15.5054 22.4482 14.7191 22.6713 13.9947 22.8014C13.2246 22.9398 12.3408 23.0029 11.4754 22.9999C10.6097 22.9969 9.7308 22.9278 8.96971 22.7881C8.25755 22.6575 7.4807 22.4372 6.96398 22.0267C6.43005 21.6026 6.15965 21.0542 5.99277 20.4561C5.84072 19.911 5.75112 19.2302 5.6495 18.4581L4.03923 6.23042C4.00591 5.97744 3.98267 5.69389 4.01673 5.41995C4.05312 5.1272 4.16332 4.78219 4.45066 4.49755C4.72489 4.22589 5.05515 4.11511 5.31544 4.06305Z" fill="#141B34"/>
<path fill-rule="evenodd" clip-rule="evenodd" d="M14.9394 3.19445C14.9424 3.08619 15.031 3 15.1393 3H19.0014C19.5537 3 20.0014 2.55228 20.0014 2C20.0014 1.44772 19.5537 1 19.0014 1H14.9443C13.8853 1 13.0099 1.82543 12.9477 2.88256L12.9468 2.89803L12.5004 18.9722C12.4851 19.5243 12.9202 19.9843 13.4722 19.9996C14.0243 20.0149 14.4843 19.5798 14.4996 19.0278L14.9394 3.19445Z" fill="#141B34"/>
<path fill-rule="evenodd" clip-rule="evenodd" d="M6.11863 8.88935C6.62823 8.55616 7.31205 8.25 8.09035 8.25C8.57474 8.25 8.96663 8.32393 9.29577 8.47323C9.63181 8.62566 9.84466 8.8313 9.99133 8.9887C10.0456 9.04689 10.0836 9.0887 10.1117 9.11958L10.1118 9.11975C10.171 9.18476 10.1863 9.20154 10.2175 9.22267C10.2244 9.22736 10.2314 9.23141 10.2469 9.23584C10.265 9.24099 10.3069 9.25 10.3858 9.25C10.5551 9.25 10.7834 9.20957 11.0941 9.12191C11.3397 9.05265 11.5984 8.96566 11.8894 8.86778C11.9659 8.84206 12.0446 8.81559 12.1259 8.78849C12.872 8.53979 13.7956 8.25 14.7494 8.25C16.4656 8.25 17.6765 9.17341 17.9362 9.38706L18.2575 9.6515L17.1038 18.4122C17.0006 19.1958 16.913 19.8612 16.7658 20.3889C16.6074 20.9565 16.3587 21.4506 15.8799 21.831C15.4009 22.2115 14.6678 22.4264 13.95 22.5554C13.198 22.6904 12.3298 22.7528 11.4757 22.7499C10.6215 22.747 9.75782 22.6787 9.01433 22.5422C8.30754 22.4125 7.58408 22.2005 7.11899 21.831C6.64022 21.4506 6.39144 20.9565 6.23308 20.3889C6.08587 19.8612 5.99828 19.1958 5.89511 18.4122L4.80762 10.1543L4.99489 9.90837C5.21253 9.62259 5.60851 9.22288 6.11863 8.88935ZM10 15C9.44772 15 9 15.4477 9 16C9 16.5523 9.44772 17 10 17H10.0089C10.5612 17 11.0089 16.5523 11.0089 16C11.0089 15.4477 10.5612 15 10.0089 15H10Z" fill="#141B34"/>
</svg>
