<svg width="24" height="24" viewBox="0 0 24 24" fill="none" xmlns="http://www.w3.org/2000/svg">
<path fill-rule="evenodd" clip-rule="evenodd" d="M19.7275 9C20.2798 9 20.7275 9.44772 20.7275 10C20.7275 10.5523 20.2798 11 19.7275 11C19.2045 11 18.8022 11.2497 18.4951 11.6785C18.4102 11.7969 18.3359 11.9255 18.2724 12.0598C18.4482 12.0348 18.6317 12.0195 18.8182 12.0196C19.816 12.0195 20.8073 12.667 21.5136 13.5798C22.2408 14.5195 22.75 15.8349 22.75 17.3848C22.75 20.6682 19.8169 22.7503 17 22.7503C14.1831 22.7503 11.25 20.6682 11.25 17.3848C11.25 15.8349 11.7592 14.5195 12.4864 13.5798C13.1927 12.667 14.184 12.0195 15.1818 12.0195C15.5187 12.0195 15.8459 12.0692 16.1354 12.1364C16.2729 11.5714 16.5162 11.0066 16.8691 10.5139C17.4711 9.67339 18.4324 9 19.7275 9Z" fill="#141B34"/>
<path d="M13.1272 3.5C13.1272 4.01976 12.9447 4.48673 12.6465 4.85841C12.4789 5.06738 12.395 5.17187 12.3861 5.26012C12.3771 5.34837 12.4273 5.44611 12.5275 5.64158C13.2714 7.09213 13.8828 8.49067 14.2748 9.9996C14.3431 10.2627 14.3773 10.3943 14.3224 10.4975C14.2675 10.6007 14.1208 10.6524 13.8273 10.7559C12.7889 11.1221 11.9147 11.867 11.2998 12.6615C10.3684 13.8652 9.74976 15.5039 9.74976 17.3845C9.74976 19.1021 10.3551 20.5392 11.2995 21.6473C11.6683 22.0801 11.8527 22.2965 11.7826 22.466C11.7125 22.6356 11.4581 22.6563 10.9493 22.6976C10.5361 22.7311 10.0973 22.75 9.67254 22.75H6.32723C5.41729 22.75 4.63949 22.707 3.99139 22.5754C3.33792 22.4427 2.76409 22.2098 2.31181 21.7918C1.41045 20.9586 1.24976 19.6296 1.24976 18V13.7771C1.24976 10.6245 2.15258 8.21494 3.47221 5.64169C3.57249 5.44614 3.62263 5.34837 3.61368 5.26012C3.60473 5.17187 3.52091 5.06738 3.35328 4.85841C3.05512 4.48673 2.87256 4.01976 2.87256 3.5C2.87256 2.20288 3.99156 1.25 5.24536 1.25H10.7544C12.0082 1.25 13.1272 2.20288 13.1272 3.5Z" fill="#141B34"/>
</svg>
