<svg width="24" height="24" viewBox="0 0 24 24" fill="none" xmlns="http://www.w3.org/2000/svg">
<path d="M10.4949 7.25002L10.5286 7.25004H13.4714L13.5051 7.25002C13.7598 7.24978 14.1483 7.24941 14.5093 7.36215C14.9451 7.49821 15.3438 7.79557 15.563 8.33504C15.7039 8.68174 15.75 9.12673 15.75 9.50004C15.75 9.87336 15.7039 10.3184 15.563 10.6651C15.3438 11.2045 14.9451 11.5019 14.5093 11.6379C14.1483 11.7507 13.7598 11.7503 13.5051 11.7501L13.4714 11.75H10.5286L10.4949 11.7501C10.2402 11.7503 9.85171 11.7507 9.49065 11.6379C9.05491 11.5019 8.65621 11.2045 8.43701 10.6651C8.29614 10.3184 8.25 9.87336 8.25 9.50004C8.25 9.12673 8.29614 8.68174 8.43701 8.33504C8.65621 7.79557 9.05491 7.49821 9.49065 7.36215C9.85171 7.24941 10.2402 7.24978 10.4949 7.25002Z" fill="#141B34"/>
<path d="M10.4949 10.25L10.5286 10.25H13.4714L13.5051 10.25C13.7598 10.2498 14.1483 10.2494 14.5093 10.3622C14.9451 10.4982 15.3438 10.7956 15.563 11.335C15.7039 11.6817 15.75 12.1267 15.75 12.5C15.75 12.8734 15.7039 13.3184 15.563 13.6651C15.3438 14.2045 14.9451 14.5019 14.5093 14.6379C14.1483 14.7507 13.7598 14.7503 13.5051 14.7501L13.4714 14.75H10.5286L10.4949 14.7501C10.2402 14.7503 9.85171 14.7507 9.49065 14.6379C9.05491 14.5019 8.65621 14.2045 8.43701 13.6651C8.29614 13.3184 8.25 12.8734 8.25 12.5C8.25 12.1267 8.29614 11.6817 8.43701 11.335C8.65621 10.7956 9.05491 10.4982 9.49065 10.3622C9.85171 10.2494 10.2402 10.2498 10.4949 10.25Z" fill="#141B34"/>
<path fill-rule="evenodd" clip-rule="evenodd" d="M14.4186 16.5C12.7982 16.5 11.1778 16.5004 9.55744 16.5C9.44725 16.5 9.35138 16.5 9.25989 16.5055C8.10305 16.5756 7.09004 17.3057 6.65775 18.381C6.62117 18.472 6.58904 18.5698 6.55105 18.6838C6.3764 19.2077 6.65956 19.774 7.1835 19.9487C7.70745 20.1233 8.27377 19.8402 8.44841 19.3162C8.4948 19.1771 8.50486 19.1483 8.51341 19.127C8.65751 18.7686 8.99518 18.5252 9.3808 18.5018C9.40368 18.5005 9.43417 18.5 9.58087 18.5H14.4186C14.5653 18.5 14.5958 18.5005 14.6187 18.5018C15.0043 18.5252 15.3419 18.7686 15.486 19.127C15.4946 19.1483 15.5047 19.1771 15.551 19.3162C15.7257 19.8402 16.292 20.1233 16.816 19.9487C17.3399 19.774 17.6231 19.2077 17.4484 18.6838C17.4104 18.5698 17.3783 18.472 17.3417 18.381C16.9094 17.3057 15.8964 16.5756 14.7396 16.5055C14.6417 16.4996 14.5387 16.5 14.4186 16.5Z" fill="#141B34"/>
<path fill-rule="evenodd" clip-rule="evenodd" d="M12 16.5C11.4477 16.5 11 16.9477 11 17.5V21H5C4.44771 21 4 21.4477 4 22C4 22.5523 4.44771 23 5 23H19C19.5523 23 20 22.5523 20 22C20 21.4477 19.5523 21 19 21H13V17.5C13 16.9477 12.5523 16.5 12 16.5Z" fill="#141B34"/>
<path fill-rule="evenodd" clip-rule="evenodd" d="M8.57079 4.0001C8.63293 4.00016 8.69587 4.00021 8.75963 4.00021H15.2404C15.3042 4.00021 15.3671 4.00016 15.4292 4.0001C16.6013 3.99909 17.4919 3.99833 18.2916 4.36616C19.0914 4.73399 19.6704 5.41065 20.4324 6.30124C20.4728 6.34845 20.5137 6.39627 20.5552 6.44467L21.7593 7.84942C22.1187 8.26875 22.0701 8.90005 21.6508 9.25947C21.2315 9.61889 20.6002 9.57033 20.2408 9.151L19.0367 7.74625C18.0935 6.64588 17.8073 6.34477 17.4559 6.18319C17.1046 6.0216 16.6897 6.00021 15.2404 6.00021H8.75963C7.31035 6.00021 6.89543 6.0216 6.54411 6.18319C6.19278 6.34477 5.90652 6.64588 4.96334 7.74625L3.75927 9.151C3.39985 9.57033 2.76855 9.61889 2.34923 9.25947C1.9299 8.90005 1.88134 8.26875 2.24076 7.84942L3.44483 6.44467C3.48632 6.39626 3.52724 6.34844 3.56764 6.30122C4.32967 5.41065 4.90865 4.73399 5.7084 4.36616C6.50815 3.99833 7.3987 3.99909 8.57079 4.0001Z" fill="#141B34"/>
<path fill-rule="evenodd" clip-rule="evenodd" d="M12 1C12.5523 1 13 1.44772 13 2L13 8C13 8.55228 12.5523 9 12 9C11.4477 9 11 8.55228 11 8L11 2C11 1.44772 11.4477 1 12 1Z" fill="#141B34"/>
</svg>
