<svg width="24" height="24" viewBox="0 0 24 24" fill="none" xmlns="http://www.w3.org/2000/svg">
<path fill-rule="evenodd" clip-rule="evenodd" d="M7.43417 3.375C7.45604 3.375 7.47799 3.375 7.5 3.375C8.05229 3.375 8.5 3.82272 8.5 4.375C8.5 4.92729 8.05229 5.375 7.5 5.375C6.52893 5.375 5.90122 5.37713 5.43871 5.43931C5.00497 5.49763 4.86902 5.59177 4.7929 5.6679C4.71677 5.74402 4.62263 5.87997 4.56431 6.31371C4.50213 6.77622 4.5 7.40393 4.5 8.375V9.875C4.5 10.4273 4.05229 10.875 3.5 10.875C2.94772 10.875 2.5 10.4273 2.5 9.875V8.375C2.5 8.35299 2.5 8.33104 2.5 8.30917C2.49995 7.42269 2.49991 6.65887 2.58215 6.04721C2.67028 5.3917 2.86902 4.76335 3.37868 4.25368C3.88835 3.74402 4.5167 3.54528 5.17221 3.45715C5.78387 3.37491 6.54769 3.37495 7.43417 3.375ZM18.5613 5.43931C18.0988 5.37713 17.4711 5.375 16.5 5.375C15.9477 5.375 15.5 4.92729 15.5 4.375C15.5 3.82272 15.9477 3.375 16.5 3.375L16.5658 3.375C17.4523 3.37495 18.2161 3.37491 18.8278 3.45715C19.4833 3.54528 20.1117 3.74402 20.6213 4.25368C21.131 4.76335 21.3297 5.3917 21.4179 6.04721C21.5001 6.65888 21.5001 7.4227 21.5 8.3092L21.5 9.875C21.5 10.4273 21.0523 10.875 20.5 10.875C19.9477 10.875 19.5 10.4273 19.5 9.875V8.375C19.5 7.40393 19.4979 6.77622 19.4357 6.31371C19.3774 5.87997 19.2832 5.74402 19.2071 5.6679C19.131 5.59177 18.995 5.49763 18.5613 5.43931Z" fill="#141B34"/>
<path fill-rule="evenodd" clip-rule="evenodd" d="M23 9.875C23 9.32272 22.5523 8.875 22 8.875H19C18.4477 8.875 18 9.32272 18 9.875C18 10.4273 18.4477 10.875 19 10.875H22C22.5523 10.875 23 10.4273 23 9.875Z" fill="#141B34"/>
<path fill-rule="evenodd" clip-rule="evenodd" d="M6 9.875C6 9.32272 5.55228 8.875 5 8.875H2C1.44772 8.875 1 9.32272 1 9.875C1 10.4273 1.44772 10.875 2 10.875H5C5.55228 10.875 6 10.4273 6 9.875Z" fill="#141B34"/>
<path d="M9.20461 2.62973H14.796C15.013 2.62448 15.3304 2.61681 15.6041 2.6495C15.9895 2.69554 16.5 2.83522 16.8652 3.29696C17.3068 3.85535 17.2504 4.62852 17.2503 5.29843C17.2503 6.06223 16.908 6.59037 16.198 6.88168L15.0378 7.35787C14.7128 7.49249 14.3571 7.63982 13.9723 7.6234C13.409 7.59937 12.9447 7.3065 12.6637 7.12931C12.3178 6.91319 12.1246 6.81802 12.0003 6.81802C11.876 6.81802 11.6828 6.91319 11.3369 7.12931C11.056 7.3065 10.5916 7.59937 10.0283 7.6234C9.64358 7.63982 9.28785 7.49249 8.9628 7.35788L7.80267 6.88168C7.09267 6.59037 6.75032 6.06223 6.75032 5.29843C6.75032 4.62955 6.69454 3.85445 7.13543 3.29696C7.50059 2.83522 8.01119 2.69554 8.39653 2.6495C8.67021 2.61681 8.9876 2.62448 9.20461 2.62973Z" fill="#141B34"/>
<path d="M9.2043 13.1219H14.7957C15.0127 13.1167 15.3301 13.109 15.6038 13.1417C15.9891 13.1877 16.4997 13.3274 16.8649 13.7891C17.099 14.0852 17.1816 14.4181 17.2172 14.7298C17.2574 15.0812 17.25 15.4375 17.25 15.7906C17.25 16.5544 16.9077 17.0826 16.1977 17.3739L15.0375 17.8501C14.7125 17.9847 14.3567 18.132 13.972 18.1156C13.4087 18.0916 12.9443 17.7987 12.6634 17.6215C12.3175 17.4054 12.1243 17.3102 12 17.3102C11.8757 17.3102 11.6825 17.4054 11.3366 17.6215C11.0557 17.7987 10.5913 18.0916 10.028 18.1156C9.64326 18.132 9.28754 17.9847 8.96248 17.8501L7.80236 17.3739C7.09236 17.0826 6.75 16.5544 6.75 15.7906C6.75 15.3905 6.74886 15.0266 6.78278 14.7298C6.81841 14.4181 6.90098 14.0852 7.13512 13.7891C7.50028 13.3274 8.01087 13.1877 8.39622 13.1417C8.66989 13.109 8.98729 13.1167 9.2043 13.1219Z" fill="#141B34"/>
<path d="M7.34824 13.7891L7.41407 13.7891C7.96635 13.7891 8.41407 14.2368 8.41407 14.7891C8.41407 15.3414 7.96635 15.7891 7.41407 15.7891C6.44299 15.7891 5.81528 15.7912 5.35277 15.8534C4.91903 15.9117 4.78309 16.0058 4.70696 16.082C4.63084 16.1581 4.53669 16.294 4.47837 16.7278C4.41619 17.1903 4.41407 17.818 4.41407 18.7891V20.2891C4.41407 20.8414 3.96635 21.2891 3.41407 21.2891C2.86178 21.2891 2.41407 20.8414 2.41407 20.2891V18.7891L2.41406 18.7232C2.41402 17.8368 2.41397 17.0729 2.49621 16.4613C2.58434 15.8058 2.78309 15.1774 3.29275 14.6677C3.80241 14.1581 4.43076 13.9593 5.08628 13.8712C5.69794 13.789 6.46175 13.789 7.34824 13.7891Z" fill="#141B34"/>
<path d="M18.4754 15.8534C18.0129 15.7912 17.3851 15.7891 16.4141 15.7891C15.8618 15.7891 15.4141 15.3414 15.4141 14.7891C15.4141 14.2368 15.8618 13.7891 16.4141 13.7891L16.4799 13.7891C17.3664 13.789 18.1302 13.789 18.7419 13.8712C19.3974 13.9593 20.0257 14.1581 20.5354 14.6677C21.045 15.1774 21.2438 15.8058 21.3319 16.4613C21.4142 17.0729 21.4141 17.8368 21.4141 18.7233L21.4141 20.2891C21.4141 20.8414 20.9664 21.2891 20.4141 21.2891C19.8618 21.2891 19.4141 20.8414 19.4141 20.2891V18.7891C19.4141 17.818 19.4119 17.1903 19.3498 16.7278C19.2914 16.294 19.1973 16.1581 19.1212 16.082C19.045 16.0058 18.9091 15.9117 18.4754 15.8534Z" fill="#141B34"/>
<path fill-rule="evenodd" clip-rule="evenodd" d="M23 20.375C23 19.8227 22.5523 19.375 22 19.375H19C18.4477 19.375 18 19.8227 18 20.375C18 20.9273 18.4477 21.375 19 21.375H22C22.5523 21.375 23 20.9273 23 20.375Z" fill="#141B34"/>
<path fill-rule="evenodd" clip-rule="evenodd" d="M6 20.375C6 19.8227 5.55228 19.375 5 19.375H2C1.44772 19.375 1 19.8227 1 20.375C1 20.9273 1.44772 21.375 2 21.375H5C5.55228 21.375 6 20.9273 6 20.375Z" fill="#141B34"/>
</svg>
