<svg width="24" height="24" viewBox="0 0 24 24" fill="none" xmlns="http://www.w3.org/2000/svg">
<path d="M5.25 4.375C5.25 3.13236 6.25736 2.125 7.5 2.125C8.74264 2.125 9.75 3.13236 9.75 4.375C9.75 5.61764 8.74264 6.625 7.5 6.625C6.25736 6.625 5.25 5.61764 5.25 4.375Z" fill="#141B34"/>
<path d="M11.8286 6.30626C12.3322 6.07942 12.9243 6.30375 13.1511 6.80731C13.3779 7.31086 13.1536 7.90295 12.6501 8.12978L10.9572 8.89464C10.7326 9.02299 10.457 9.18045 10.1387 9.24785C9.82263 9.31478 9.50637 9.2839 9.24571 9.25845L8.51078 9.18884L6.38322 14.7402C6.65028 14.9543 6.99221 15.2323 7.184 15.6265C7.38278 16.0351 7.38023 16.4842 7.37834 16.8185L7.37799 20.8754C7.37799 21.4277 6.93027 21.8754 6.37799 21.8754C5.8257 21.8754 5.37799 21.4277 5.37799 20.8754L5.37184 16.5043L3.22165 14.7532C2.99062 14.5661 2.75838 14.378 2.57912 14.1965C2.37538 13.9903 2.16531 13.7213 2.06201 13.3493C1.95789 12.9744 2.00099 12.6348 2.07365 12.3515C2.1366 12.1061 2.24263 11.8307 2.34607 11.5619L3.3916 8.84405C3.50731 8.54305 3.62437 8.23853 3.75605 7.99196C3.90844 7.70662 4.12464 7.40939 4.48368 7.19605C4.83765 6.98572 5.20009 6.93469 5.51927 6.92893C5.80279 6.92382 6.13585 6.95536 6.47645 6.98762L9.73988 7.28061L11.8286 6.30626Z" fill="#141B34"/>
<path fill-rule="evenodd" clip-rule="evenodd" d="M16.4924 7.14448C16.2313 6.86754 15.8065 6.79303 15.4592 6.97245C14.9685 7.22592 14.3652 7.03363 14.1117 6.54294C13.8583 6.05226 14.0506 5.449 14.5413 5.19553C15.6758 4.60945 17.07 4.84176 17.9475 5.77236C18.0511 5.88214 18.15 6.01215 18.2605 6.15746C18.2689 6.16845 18.2773 6.17952 18.2858 6.19068L19.3126 7.53882C19.4714 7.74734 19.7252 7.87498 20.0002 7.87498C20.5525 7.87498 21.0002 8.3227 21.0002 8.87498C21.0002 9.42727 20.5525 9.87498 20.0002 9.87498C19.1081 9.87498 18.263 9.46153 17.7215 8.75063L16.6947 7.40249C16.5436 7.204 16.5135 7.16684 16.4924 7.14448Z" fill="#141B34"/>
<path fill-rule="evenodd" clip-rule="evenodd" d="M6.78858 9.17224C7.1767 8.77933 7.80985 8.77545 8.20276 9.16358C8.45334 9.4111 8.68353 9.69313 8.88289 9.94104C8.91074 9.97566 8.93804 10.0097 8.9649 10.0432C9.14169 10.2636 9.29943 10.4602 9.46579 10.6436C9.8572 11.0753 10.1434 11.2551 10.4082 11.2935C10.9548 11.3728 11.3336 11.8802 11.2543 12.4267C11.175 12.9733 10.6676 13.3521 10.121 13.2728C9.14631 13.1313 8.46025 12.5121 7.98422 11.9871C7.77379 11.7551 7.57452 11.5064 7.40087 11.2898C7.37476 11.2572 7.34923 11.2254 7.32433 11.1944C7.12212 10.9429 6.95667 10.7439 6.79724 10.5864C6.40433 10.1983 6.40045 9.56515 6.78858 9.17224ZM12.2681 12.2403C12.3789 11.6992 12.9074 11.3504 13.4484 11.4612C15.0833 11.796 16.582 12.654 17.7076 13.9271L18.3859 14.6942C19.0507 15.4461 20.0022 15.875 21 15.875C21.5523 15.875 22 16.3227 22 16.875C22 17.4273 21.5523 17.875 21 17.875C19.4271 17.875 17.9306 17.1987 16.8875 16.019L16.2093 15.2519C15.3725 14.3054 14.2596 13.6688 13.0472 13.4206C12.5061 13.3098 12.1573 12.7814 12.2681 12.2403Z" fill="#141B34"/>
</svg>
