<svg width="24" height="24" viewBox="0 0 24 24" fill="none" xmlns="http://www.w3.org/2000/svg">
<path fill-rule="evenodd" clip-rule="evenodd" d="M4 19.5V2.5H2V20.5C2 21.0523 2.44772 21.5 3 21.5H21V19.5H4Z" fill="#141B34"/>
<path fill-rule="evenodd" clip-rule="evenodd" d="M5 10.5H7.00898V12.5H5V10.5ZM7.9982 10.5H10.0072V12.5H7.9982V10.5ZM10.9964 10.5H13.0054V12.5H10.9964V10.5ZM13.9946 10.5H16.0036V12.5H13.9946V10.5ZM16.9928 10.5H19.0018V12.5H16.9928V10.5ZM19.991 10.5H22V12.5H19.991V10.5Z" fill="#141B34"/>
<path fill-rule="evenodd" clip-rule="evenodd" d="M8.9927 5.5C8.10211 5.5 7.45436 6.02034 6.85719 7.01481L5.14258 5.98519C5.89235 4.7366 7.0719 3.5 8.9927 3.5C9.91488 3.5 10.7103 3.73632 11.3798 4.18477C12.0389 4.62624 12.5181 5.2341 12.8814 5.89092C13.5506 7.10053 13.9158 8.65747 14.2432 10.0529C14.2603 10.126 14.2774 10.1987 14.2944 10.2709C14.6559 11.8069 14.9934 13.1433 15.5752 14.1089C15.8544 14.5722 16.1677 14.9092 16.531 15.1335C16.8878 15.3538 17.3483 15.5 17.9818 15.5C18.8815 15.5 19.5258 14.9761 20.1508 13.9717L21.8489 15.0283C21.0854 16.2554 19.9134 17.5 17.9818 17.5C17.0186 17.5 16.1865 17.2712 15.4803 16.8353C14.7807 16.4033 14.2608 15.8028 13.8621 15.1411C13.0884 13.8567 12.6921 12.1931 12.3476 10.7291C12.3417 10.704 12.3358 10.679 12.3299 10.6541C11.9725 9.13507 11.6631 7.82028 11.1314 6.85908C10.8724 6.3909 10.5875 6.06126 10.2668 5.84648C9.95657 5.63868 9.55629 5.5 8.9927 5.5Z" fill="#141B34"/>
</svg>
