<svg width="24" height="24" viewBox="0 0 24 24" fill="none" xmlns="http://www.w3.org/2000/svg">
<path fill-rule="evenodd" clip-rule="evenodd" d="M2.375 5.77517C2.375 4.55503 3.14362 3.38804 4.41249 3.01148C6.36472 2.43213 9.91912 1.58157 14.7933 1.16765C15.6175 1.09544 17.0516 0.969807 18.012 2.1403C18.7163 2.99869 18.8804 4.17591 18.8749 5.16107C18.8719 5.67858 18.8215 6.19574 18.7467 6.67406C18.7022 6.95838 18.6799 7.10054 18.7413 7.19636C18.8027 7.29218 18.9455 7.33258 19.2311 7.41338C19.876 7.59583 20.4347 7.87547 20.8679 8.34268C21.4237 8.94215 21.6584 9.69017 21.7684 10.5734C21.875 11.4298 21.875 12.5201 21.875 13.879V16.0034C21.875 17.3971 21.875 18.5259 21.744 19.4151C21.6068 20.3461 21.3128 21.1209 20.6472 21.7291C19.989 22.3306 19.2223 22.5592 18.3193 22.6126C17.467 22.6629 16.3513 22.5539 15.0629 22.428C13.4935 22.2746 11.81 22.052 10.1096 21.7349C9.87886 21.6919 9.76349 21.6704 9.69424 21.587C9.625 21.5037 9.625 21.3853 9.625 21.1486V20.9757C9.625 20.6929 9.625 20.5515 9.71287 20.4636C9.80074 20.3757 9.94216 20.3757 10.225 20.3757H11.125C12.5057 20.3757 13.625 19.2564 13.625 17.8757C13.625 16.495 12.5057 15.3757 11.125 15.3757H10.225C9.94216 15.3757 9.80074 15.3757 9.71287 15.2879C9.625 15.2 9.625 15.0586 9.625 14.7757V13.8757C9.625 12.495 8.50571 11.3757 7.125 11.3757C5.74429 11.3757 4.625 12.495 4.625 13.8757V14.7757C4.625 15.0586 4.625 15.2 4.53713 15.2879C4.44926 15.3757 4.30784 15.3757 4.025 15.3757H3.125C3.03872 15.3757 2.95346 15.3801 2.86944 15.3886L2.86938 15.3886C2.73995 15.4018 2.67523 15.4084 2.64516 15.4053C2.49736 15.3906 2.41065 15.3122 2.38103 15.1667C2.375 15.1371 2.375 15.0863 2.375 14.9849V5.77517ZM15.9665 3.02539C15.683 2.98044 15.3467 3.00243 14.8662 3.04324C10.1434 3.4443 6.82086 4.25773 4.98308 4.80311C4.90099 4.82748 4.82174 4.86543 4.7483 4.91537C4.5771 5.03177 4.49149 5.08998 4.52899 5.28393C4.56649 5.47789 4.71175 5.50964 5.00227 5.57313C7.35233 6.08675 10.9667 6.6383 15.1809 6.93032C15.5299 6.9545 15.8647 6.97769 16.1841 7.00143C16.4358 7.02013 16.5617 7.02948 16.6531 6.95802C16.7444 6.88655 16.7647 6.76781 16.8053 6.53031C16.8799 6.09356 16.9314 5.61682 16.934 5.15082C16.9389 4.28842 16.7748 3.65041 16.4907 3.30424C16.3563 3.14036 16.2034 3.06294 15.9665 3.02539ZM16.625 12.876C17.7296 12.876 18.625 13.7714 18.625 14.876C18.625 15.9805 17.7296 16.876 16.625 16.876C15.5204 16.876 14.625 15.9805 14.625 14.876C14.625 13.7714 15.5204 12.876 16.625 12.876Z" fill="#141B34"/>
<path fill-rule="evenodd" clip-rule="evenodd" d="M7.125 12.8757C7.67728 12.8757 8.125 13.3234 8.125 13.8757L8.125 16.8757H11.125C11.6773 16.8757 12.125 17.3234 12.125 17.8757C12.125 18.428 11.6773 18.8757 11.125 18.8757H8.125V21.8757C8.125 22.428 7.67729 22.8757 7.125 22.8757C6.57272 22.8757 6.125 22.428 6.125 21.8757V18.8757H3.125C2.57272 18.8757 2.125 18.428 2.125 17.8757C2.125 17.3234 2.57272 16.8757 3.125 16.8757H6.125L6.125 13.8757C6.125 13.3234 6.57272 12.8757 7.125 12.8757Z" fill="#141B34"/>
</svg>
