<svg width="24" height="24" viewBox="0 0 24 24" fill="none" xmlns="http://www.w3.org/2000/svg">
<path d="M2.98539 10.205C3.25498 9.87581 3.38978 9.7112 3.52076 9.75811C3.65173 9.80502 3.65134 10.0334 3.65055 10.4902C3.65054 10.4959 3.65054 10.5017 3.65054 10.5075C3.65054 15.9432 8.05704 20.3497 13.4927 20.3497C13.4985 20.3497 13.5043 20.3497 13.5101 20.3497C13.9668 20.3489 14.1952 20.3485 14.2421 20.4795C14.289 20.6105 14.1244 20.7453 13.7952 21.0149C12.4707 22.0995 10.7772 22.7502 8.93172 22.7502C4.68922 22.7502 1.25 19.311 1.25 15.0685C1.25 13.223 1.90079 11.5296 2.98539 10.205Z" fill="#141B34"/>
<path fill-rule="evenodd" clip-rule="evenodd" d="M14 1.25024C9.16751 1.25024 5.25 5.16775 5.25 10.0002C5.25 14.8327 9.16751 18.7502 14 18.7502C18.8325 18.7502 22.75 14.8327 22.75 10.0002C22.75 5.16775 18.8325 1.25024 14 1.25024ZM14.6568 5.25024C12.6446 5.25024 11.1731 7.07298 11.1731 9.11136V9.25024H11C10.5858 9.25024 10.25 9.58603 10.25 10.0002C10.25 10.4145 10.5858 10.7502 11 10.7502H11.1731V10.8891C11.1731 12.9275 12.6446 14.7502 14.6568 14.7502C15.9736 14.7502 17.0767 13.9504 17.6628 12.8434C17.8566 12.4774 17.717 12.0235 17.3509 11.8297C16.9849 11.6359 16.531 11.7755 16.3372 12.1416C15.9665 12.8416 15.3289 13.2502 14.6568 13.2502C13.6494 13.2502 12.6731 12.2872 12.6731 10.8891V10.7502H14.9231C15.3373 10.7502 15.6731 10.4145 15.6731 10.0002C15.6731 9.58603 15.3373 9.25024 14.9231 9.25024H12.6731V9.11136C12.6731 7.71329 13.6494 6.75024 14.6568 6.75024C15.3289 6.75024 15.9665 7.15889 16.3372 7.85893C16.531 8.225 16.9849 8.36463 17.3509 8.17081C17.717 7.97699 17.8566 7.52311 17.6628 7.15704C17.0767 6.05012 15.9736 5.25024 14.6568 5.25024Z" fill="#141B34"/>
</svg>
