<svg width="24" height="24" viewBox="0 0 24 24" fill="none" xmlns="http://www.w3.org/2000/svg">
<path fill-rule="evenodd" clip-rule="evenodd" d="M18.0864 12.8577C20.0302 12.3425 21.4982 13.7122 21.7366 15.1552C21.8266 15.7001 21.4579 16.2148 20.913 16.3048C20.3681 16.3948 19.8534 16.0261 19.7634 15.4812C19.7287 15.271 19.5968 15.0472 19.3946 14.9039C19.2136 14.7756 18.9561 14.6963 18.5988 14.791C18.3069 14.8683 18.023 15.1263 17.8612 15.5488C17.6964 15.9789 17.7276 16.406 17.8684 16.6667C17.9167 16.7562 17.9642 16.8472 18.0104 16.9398H20.125C20.6773 16.9398 21.125 17.3875 21.125 17.9398C21.125 18.4921 20.6773 18.9398 20.125 18.9398H18.596C18.6335 19.5254 18.55 20.1236 18.3304 20.7493H20.75C21.3023 20.7493 21.75 21.1971 21.75 21.7493C21.75 22.3016 21.3023 22.7493 20.75 22.7493H17.374C17.365 22.7493 17.3553 22.7494 17.345 22.7494C17.2338 22.7496 17.0496 22.7501 16.8898 22.7246C16.7009 22.6944 16.2238 22.5776 15.9909 22.0648C15.7872 21.6165 15.945 21.2045 15.9888 21.0903C16.0438 20.9465 16.1278 20.7831 16.1951 20.6521C16.2001 20.6425 16.2049 20.633 16.2097 20.6238C16.5539 19.9533 16.6316 19.4488 16.5972 19.0284C16.5948 18.9989 16.5918 18.9694 16.5882 18.9398H15.75C15.1977 18.9398 14.75 18.4921 14.75 17.9398C14.75 17.3875 15.1977 16.9398 15.75 16.9398H15.8467C15.6685 16.2316 15.7471 15.4764 15.9935 14.8333C16.3238 13.9712 17.0241 13.1393 18.0864 12.8577Z" fill="#141B34"/>
<path d="M10.6839 22.7499C9.09005 22.7499 7.83489 22.7499 6.83912 22.6462C5.82238 22.5402 4.98632 22.3191 4.2711 21.8152C3.8893 21.5462 3.54882 21.2261 3.26073 20.8639C2.71584 20.1788 2.47549 19.3733 2.3611 18.4011C2.24998 17.4567 2.24999 16.2692 2.25 14.7753V12.1542C2.25 10.6958 2.25 9.56426 2.31024 8.6509C2.37131 7.72509 2.49655 6.97167 2.77169 6.27736C3.60981 4.16247 5.37464 2.51127 7.58994 1.73361C8.96882 1.24957 10.6607 1.2497 13.6261 1.24992L13.9888 1.2499C15.624 1.24956 16.643 1.24935 17.4836 1.54446C18.8327 2.01804 19.9143 3.02615 20.4293 4.32575C20.6039 4.76649 20.6789 5.2344 20.7149 5.77933C20.75 6.31186 20.75 6.96749 20.75 7.79175V9.99893C20.75 10.5517 20.3019 10.9999 19.7491 10.9999C19.1969 10.9999 18.7491 10.5528 18.7481 10.0007L18.7463 7.99988C18.7275 5.98361 18.6096 4.86701 17.8712 4.1286C16.9925 3.24992 15.5783 3.24992 12.7499 3.24992H12.4555C11.9509 3.24992 11.6985 3.24992 11.3592 3.43807C11.0199 3.62622 10.949 3.7397 10.8072 3.96666C10.5596 4.36307 10.4166 4.83145 10.4166 5.33326C10.4166 5.48039 10.423 5.63857 10.4313 5.81616L10.4344 5.88204C10.4416 6.03693 10.4496 6.20551 10.4531 6.37362C10.4609 6.75372 10.4489 7.19725 10.3342 7.6254C10.1108 8.45937 9.45935 9.11078 8.62538 9.33424C8.19723 9.44897 7.75369 9.46097 7.3736 9.45308C7.20546 9.44958 7.03687 9.44166 6.88195 9.43438L6.81614 9.4313C6.63854 9.42306 6.48036 9.41659 6.33323 9.41659C5.85217 9.41659 5.40182 9.54808 5.01616 9.77708C4.78124 9.91658 4.66378 9.98632 4.46739 10.3313C4.271 10.6764 4.271 10.9342 4.271 11.4499V14.75C4.271 17.5784 4.271 18.9926 5.14968 19.8713C6.02836 20.75 7.44257 20.75 10.271 20.75L13.0008 20.75C13.5526 20.75 14 21.1973 14 21.7492C14 22.3006 13.5533 22.7478 13.0019 22.7484L10.6839 22.7499Z" fill="#141B34"/>
</svg>
