<svg width="24" height="24" viewBox="0 0 24 24" fill="none" xmlns="http://www.w3.org/2000/svg">
<path opacity="0.4" d="M13.4624 3.24999C13.0482 3.24999 12.7124 3.58578 12.7124 3.99999C12.7124 4.41421 13.0482 4.74999 13.4624 4.74999V3.24999ZM9.7374 9.18317C9.66178 8.77592 9.27034 8.50707 8.86309 8.58269C8.45583 8.6583 8.18699 9.04975 8.2626 9.457L9.7374 9.18317ZM11.5777 2.77828L11.9154 2.10853L11.9053 2.10359L11.5777 2.77828ZM14 3.99975L14.0002 4.74975C14.3475 4.74965 14.6493 4.51111 14.7297 4.17321C14.81 3.83531 14.6478 3.48646 14.3377 3.33008L14 3.99975ZM12.2693 8.68827L12.1384 7.94979L12.2693 8.68827ZM10.2234 9.05096L10.3543 9.78944H10.3543L10.2234 9.05096ZM6.89876 10.1396L7.16837 10.8395L6.89876 10.1396ZM2 10.2497C1.58579 10.2497 1.25 10.5854 1.25 10.9997C1.25 11.4139 1.58579 11.7497 2 11.7497V10.2497ZM9.30601 9.23242L9.10527 8.50979L9.10527 8.50979L9.30601 9.23242ZM11.5909 6.53109L11.7212 5.79248L11.7212 5.79248L11.5909 6.53109ZM13.0414 7.81678L13.7732 7.65255V7.65255L13.0414 7.81678ZM8.28515 5.74965C7.87094 5.74965 7.53515 6.08544 7.53515 6.49965C7.53515 6.91386 7.87094 7.24965 8.28515 7.24965V5.74965ZM1.72146 3.80339C1.33687 3.95723 1.14981 4.39371 1.30364 4.77829C1.45748 5.16288 1.89396 5.34994 2.27854 5.19611L1.72146 3.80339ZM17.25 8.49999C17.25 10.5652 15.5601 12.25 13.4624 12.25V13.75C16.3768 13.75 18.75 11.4054 18.75 8.49999H17.25ZM13.4624 4.74999C15.5601 4.74999 17.25 6.4348 17.25 8.49999H18.75C18.75 5.59463 16.3768 3.24999 13.4624 3.24999V4.74999ZM13.4624 12.25C11.6024 12.25 10.0606 10.9237 9.7374 9.18317L8.2626 9.457C8.71692 11.9039 10.8752 13.75 13.4624 13.75V12.25ZM11.24 3.44795L13.6623 4.66942L14.3377 3.33008L11.9154 2.1086L11.24 3.44795ZM11.9053 2.10359C10.9732 1.65106 10.244 1.43015 9.6018 1.32855C8.97161 1.22885 8.44193 1.24965 8 1.24965V2.74965C8.50235 2.74965 8.8837 2.73359 9.3674 2.81012C9.83905 2.88474 10.4266 3.05314 11.2501 3.45297L11.9053 2.10359ZM12.1384 7.94979L10.0925 8.31247L10.3543 9.78944L12.4002 9.42676L12.1384 7.94979ZM6.62914 9.43978C5.60696 9.83357 4.0441 10.2497 2 10.2497V11.7497C4.25136 11.7497 5.99687 11.2908 7.16837 10.8395L6.62914 9.43978ZM10.0925 8.31247C9.62453 8.39543 9.33627 8.44562 9.10527 8.50979L9.50674 9.95506C9.65063 9.91509 9.849 9.87902 10.3543 9.78944L10.0925 8.31247ZM7.16837 10.8395C7.90923 10.5541 8.46178 10.3412 8.85273 10.1931C9.04832 10.119 9.20041 10.0623 9.31382 10.0213C9.37051 10.0008 9.41534 9.98507 9.44979 9.97342C9.46691 9.96763 9.48036 9.96323 9.4906 9.95999C9.49566 9.95839 9.49955 9.95719 9.50242 9.95633C9.50383 9.95591 9.5049 9.95559 9.50565 9.95537C9.50641 9.95516 9.50676 9.95506 9.50674 9.95506L9.10527 8.50979C8.87149 8.57473 8.07393 8.8832 6.62914 9.43978L7.16837 10.8395ZM10.7692 7.24965C11.2302 7.24965 11.3633 7.25253 11.4607 7.2697L11.7212 5.79248C11.4619 5.74677 11.1661 5.74965 10.7692 5.74965V7.24965ZM11.4607 7.2697C11.9401 7.35422 12.2397 7.66939 12.3097 7.981L13.7732 7.65255C13.5518 6.6659 12.7065 5.96621 11.7212 5.79248L11.4607 7.2697ZM12.4002 9.42676C12.7783 9.35974 13.1458 9.17547 13.4131 8.89095C13.6866 8.59986 13.8868 8.1586 13.7732 7.65255L12.3097 7.981C12.3018 7.94601 12.305 7.90919 12.3142 7.88139C12.3221 7.85742 12.3299 7.85328 12.3199 7.86391C12.3099 7.8745 12.2888 7.89259 12.2542 7.91064C12.2201 7.92845 12.1801 7.94239 12.1384 7.94979L12.4002 9.42676ZM8.28515 7.24965H10.0355V5.74965H8.28515V7.24965ZM10.0355 7.24965H10.7692V5.74965H10.0355V7.24965ZM13.9998 3.24975C12.0634 3.25028 10.3444 4.46798 9.3863 6.12408L10.6847 6.87522C11.4346 5.579 12.7088 4.7501 14.0002 4.74975L13.9998 3.24975ZM2.27854 5.19611C3.58013 4.67547 4.65127 4.00642 5.52989 3.53584C6.43882 3.04903 7.1772 2.74965 8 2.74965V1.24965C6.79156 1.24965 5.77995 1.70032 4.82168 2.21356C3.83311 2.74303 2.91987 3.32403 1.72146 3.80339L2.27854 5.19611Z" fill="#141B34"/>
<path d="M22 14H19.6052C19.311 14 19.0209 14.0663 18.7578 14.1936L16.7159 15.1816C16.4528 15.3089 16.1627 15.3751 15.8685 15.3751H14.8259C13.8175 15.3751 13 16.1662 13 17.142C13 17.1814 13.027 17.2161 13.0662 17.2269L15.6071 17.9295C16.0629 18.0555 16.551 18.0116 16.975 17.8064L19.1579 16.7503M13 16.5L8.40723 15.0889C7.59304 14.8352 6.71292 15.136 6.2029 15.8423C5.83414 16.3529 5.98428 17.0842 6.52154 17.3942L14.0371 21.7305C14.5151 22.0063 15.0791 22.0736 15.6048 21.9176L22 20.0199" stroke="#141B34" stroke-width="1.5" stroke-linecap="round" stroke-linejoin="round"/>
</svg>
