<svg width="24" height="24" viewBox="0 0 24 24" fill="none" xmlns="http://www.w3.org/2000/svg">
<path d="M12.5457 9.72218H13.485C14.5226 9.72218 15.3638 10.5679 15.3638 11.6111M15.3638 11.6111V12.5555M15.3638 11.6111C15.3638 11.0895 15.7843 10.6666 16.3031 10.6666C17.3407 10.6666 18.1819 11.5123 18.1819 12.5555M18.1819 12.5555V13.4999M18.1819 12.5555C18.1819 12.0611 18.6234 11.685 19.1085 11.7663L19.4301 11.8202C20.336 11.972 21 12.76 21 13.6834L20.9996 14.1297C20.9996 16.1823 20.9996 17.2086 20.6886 18.0257C20.5082 18.4996 20.0323 19.1041 19.6518 19.5409C19.3226 19.9187 19.1209 20.3979 19.1209 20.9001V22M12.5455 11.6111V6.41665C12.5455 5.63426 11.9146 5 11.1364 5C10.3582 5 9.72736 5.63426 9.72736 6.41665L9.72717 13.9367L8.2051 12.4016C7.53728 11.728 6.43723 11.7895 5.84724 12.5333C5.3958 13.1024 5.38333 13.9075 5.81692 14.4906L9.19837 18.8333C9.84533 19.6641 10.1969 20.9448 10.1969 22" stroke="#141B34" stroke-width="1.5" stroke-linecap="round" stroke-linejoin="round"/>
<path opacity="0.4" d="M2.82843 7L2.34151 7.57045H2.34151L2.82843 7ZM3.51309 8.57045C3.82814 8.83937 4.30154 8.80196 4.57045 8.48691C4.83937 8.17186 4.80196 7.69846 4.48691 7.42955L3.51309 8.57045ZM4.48691 4.57045C4.80196 4.30154 4.83937 3.82814 4.57045 3.51309C4.30154 3.19804 3.82814 3.16063 3.51309 3.42955L4.48691 4.57045ZM2.82843 5L2.34151 4.42955L2.34151 4.42955L2.82843 5ZM12.5741 8.8442C12.2119 9.04518 12.0812 9.50171 12.2822 9.8639C12.4832 10.2261 12.9397 10.3568 13.3019 10.1558L12.5741 8.8442ZM8.69809 10.1558C9.06028 10.3568 9.51682 10.2261 9.7178 9.8639C9.91878 9.50171 9.78809 9.04518 9.4259 8.8442L8.69809 10.1558ZM2 6.75H7V5.25H2V6.75ZM2.34151 7.57045L3.51309 8.57045L4.48691 7.42955L3.31534 6.42955L2.34151 7.57045ZM3.51309 3.42955L2.34151 4.42955L3.31534 5.57045L4.48691 4.57045L3.51309 3.42955ZM3.31534 6.42955C3.02239 6.1795 2.86246 6.04083 2.76628 5.93323C2.67964 5.83631 2.75 5.87739 2.75 6H1.25C1.25 6.41551 1.45843 6.72088 1.64794 6.93289C1.8279 7.13422 2.08218 7.3491 2.34151 7.57045L3.31534 6.42955ZM2.34151 4.42955C2.08218 4.6509 1.8279 4.86579 1.64794 5.06711C1.45843 5.27912 1.25 5.5845 1.25 6H2.75C2.75 6.12261 2.67964 6.16369 2.76628 6.06677C2.86246 5.95917 3.02239 5.8205 3.31534 5.57045L2.34151 4.42955ZM7.75 6C7.75 4.20508 9.20507 2.75 11 2.75V1.25C8.37665 1.25 6.25 3.37665 6.25 6H7.75ZM11 2.75C12.7949 2.75 14.25 4.20507 14.25 6H15.75C15.75 3.37665 13.6234 1.25 11 1.25V2.75ZM14.25 6C14.25 7.22264 13.5752 8.2887 12.5741 8.8442L13.3019 10.1558C14.7602 9.34657 15.75 7.78939 15.75 6H14.25ZM9.4259 8.8442C8.42482 8.2887 7.75 7.22264 7.75 6H6.25C6.25 7.78939 7.23975 9.34657 8.69809 10.1558L9.4259 8.8442Z" fill="#141B34"/>
</svg>
