<svg width="24" height="24" viewBox="0 0 24 24" fill="none" xmlns="http://www.w3.org/2000/svg">
<path d="M8.53345 13.6528L10.5 15.3722V6.50065C10.5 5.67186 11.1719 5 12.0006 5C12.8289 5 13.5006 5.67107 13.5013 6.49935L13.5045 11.263L16.1409 11.6903C17.8426 11.9492 18.6935 12.0786 19.2928 12.4427C20.2828 13.0441 21 14 21 15.2657C21 16.1841 20.7762 16.8002 20.232 18.4556C19.8867 19.5059 19.7141 20.0311 19.4326 20.4469C18.9691 21.1313 18.2853 21.6311 17.4984 21.8605C17.0204 21.9999 16.4745 21.9999 15.3826 21.9999H14.4571C13.0054 21.9999 12.2796 21.9999 11.6335 21.7298C11.5176 21.6814 11.4044 21.6267 11.2942 21.566C10.68 21.2278 10.2224 20.6566 9.30698 19.5142L6.3436 15.8158C5.88822 15.2474 5.88518 14.4341 6.3363 13.8622C6.87851 13.175 7.87444 13.08 8.53345 13.6528Z" stroke="#141B34" stroke-width="1.5" stroke-linecap="round" stroke-linejoin="round"/>
<path opacity="0.4" d="M3.82843 7L3.34151 7.57045H3.34151L3.82843 7ZM4.51309 8.57045C4.82814 8.83937 5.30154 8.80196 5.57045 8.48691C5.83937 8.17186 5.80196 7.69846 5.48691 7.42955L4.51309 8.57045ZM5.48691 4.57045C5.80196 4.30154 5.83937 3.82814 5.57045 3.51309C5.30154 3.19804 4.82814 3.16063 4.51309 3.42955L5.48691 4.57045ZM3.82843 5L3.34151 4.42955L3.34151 4.42955L3.82843 5ZM13.5741 8.8442C13.2119 9.04518 13.0812 9.50171 13.2822 9.8639C13.4832 10.2261 13.9397 10.3568 14.3019 10.1558L13.5741 8.8442ZM9.69809 10.1558C10.0603 10.3568 10.5168 10.2261 10.7178 9.8639C10.9188 9.50171 10.7881 9.04518 10.4259 8.8442L9.69809 10.1558ZM3 6.75H8V5.25H3V6.75ZM3.34151 7.57045L4.51309 8.57045L5.48691 7.42955L4.31534 6.42955L3.34151 7.57045ZM4.51309 3.42955L3.34151 4.42955L4.31534 5.57045L5.48691 4.57045L4.51309 3.42955ZM4.31534 6.42955C4.02239 6.1795 3.86246 6.04083 3.76628 5.93323C3.67964 5.83631 3.75 5.87739 3.75 6H2.25C2.25 6.41551 2.45843 6.72088 2.64794 6.93289C2.8279 7.13422 3.08218 7.3491 3.34151 7.57045L4.31534 6.42955ZM3.34151 4.42955C3.08218 4.6509 2.8279 4.86579 2.64794 5.06711C2.45843 5.27912 2.25 5.5845 2.25 6H3.75C3.75 6.12261 3.67964 6.16369 3.76628 6.06677C3.86246 5.95917 4.02239 5.8205 4.31534 5.57045L3.34151 4.42955ZM8.75 6C8.75 4.20508 10.2051 2.75 12 2.75V1.25C9.37665 1.25 7.25 3.37665 7.25 6H8.75ZM12 2.75C13.7949 2.75 15.25 4.20507 15.25 6H16.75C16.75 3.37665 14.6234 1.25 12 1.25V2.75ZM15.25 6C15.25 7.22264 14.5752 8.2887 13.5741 8.8442L14.3019 10.1558C15.7602 9.34657 16.75 7.78939 16.75 6H15.25ZM10.4259 8.8442C9.42482 8.2887 8.75 7.22264 8.75 6H7.25C7.25 7.78939 8.23975 9.34657 9.69809 10.1558L10.4259 8.8442Z" fill="#141B34"/>
</svg>
