<svg width="24" height="24" viewBox="0 0 24 24" fill="none" xmlns="http://www.w3.org/2000/svg">
<path d="M9.02795 12.996C9.08961 11.7402 9.26415 10.9321 9.75819 10.3126C9.92166 10.1076 10.1076 9.92166 10.3126 9.75819C10.9321 9.26415 11.7402 9.08961 12.996 9.02795M16.9978 9C18.8494 9.02356 19.9113 9.14388 20.6816 9.75819C20.8866 9.92166 21.0726 10.1076 21.2361 10.3126C22 11.2706 22 12.6794 22 15.4971C22 18.3148 22 19.7237 21.2361 20.6816C21.0726 20.8866 20.8866 21.0726 20.6816 21.2361C19.7237 22 18.3148 22 15.4971 22C12.6794 22 11.2706 22 10.3126 21.2361C10.1076 21.0726 9.92166 20.8866 9.75819 20.6816C9.14388 19.9113 9.02356 18.8494 9 16.9978" stroke="#141B34" stroke-width="1.5" stroke-linecap="round"/>
<path opacity="0.4" d="M14.9721 11.004C14.9104 12.2598 14.7359 13.0679 14.2418 13.6874C14.0783 13.8924 13.8924 14.0783 13.6874 14.2418C13.0679 14.7359 12.2598 14.9104 11.004 14.9721M7.00221 15C5.15059 14.9764 4.08869 14.8561 3.31837 14.2418C3.11338 14.0783 2.9274 13.8924 2.76393 13.6874C2 12.7294 2 11.3206 2 8.50287C2 5.68516 2 4.2763 2.76393 3.31837C2.9274 3.11338 3.11338 2.9274 3.31837 2.76393C4.2763 2 5.68516 2 8.50287 2C11.3206 2 12.7294 2 13.6874 2.76393C13.8924 2.9274 14.0783 3.11338 14.2418 3.31837C14.8561 4.08869 14.9764 5.15059 15 7.00221" stroke="#141B34" stroke-width="1.5" stroke-linecap="round"/>
</svg>
