<svg width="24" height="24" viewBox="0 0 24 24" fill="none" xmlns="http://www.w3.org/2000/svg">
<path d="M9.26587 20.4992L4.94757 14.7966C4.23886 13.891 4.23584 12.6048 4.94088 11.6957C5.7993 10.5888 7.39234 10.4293 8.44427 11.3594L8.46846 11.3808L9.41406 12.3742V4C9.41406 2.61929 10.5334 1.5 11.9141 1.5C13.2948 1.5 14.4141 2.61929 14.4141 4V8.99751C16.2779 9.06064 18.9831 9.63616 21.0171 11.6832C21.9531 12.6251 22.0085 14.0029 21.8378 15.1431C21.6616 16.3199 21.2112 17.4859 20.839 18.2631C20.6476 18.6627 20.3709 19.2399 20.142 19.7171L19.8059 20.4179V23H9.26587V20.4992Z" fill="#141B34"/>
<path fill-rule="evenodd" clip-rule="evenodd" d="M19.0424 7.41446L22.2495 4.20735L19.0424 1.00024L17.6282 2.41446L18.4211 3.20735H16.3353V5.20735H18.4211L17.6282 6.00024L19.0424 7.41446Z" fill="#141B34"/>
<path fill-rule="evenodd" clip-rule="evenodd" d="M5.57843 5.20718L6.37132 6.00008L4.95711 7.41429L1.75 4.20718L4.95711 1.00008L6.37132 2.41429L5.57843 3.20718H7.66406V5.20718H5.57843Z" fill="#141B34"/>
</svg>
