<svg width="24" height="24" viewBox="0 0 24 24" fill="none" xmlns="http://www.w3.org/2000/svg">
<path d="M13.181 2.76799C12.5457 2.65568 11.9251 3.07998 11.8092 3.73903L9.97215 14.1853L9.67672 15.7552L7.08094 13.0587C6.50588 12.4775 5.56459 12.5288 5.05432 13.1755C4.65881 13.6768 4.64758 14.3897 5.02789 14.9038L5.04148 14.9222L9.15938 22.1121L20.8195 22.25L22.2314 13.1248C22.3477 12.4634 21.9062 11.8471 21.2681 11.7343C20.6328 11.6219 20.0122 12.0462 19.8963 12.7053L19.8045 13.2274L19.0154 13.0945L19.2909 11.5283C19.4072 10.8669 18.9656 10.2505 18.3276 10.1377C17.6923 10.0254 17.0716 10.4497 16.9558 11.1088L16.8639 11.6309L16.0749 11.498L16.3503 9.93174C16.4666 9.27038 16.0251 8.65403 15.387 8.54122C14.7517 8.4289 14.1311 8.8532 14.0152 9.51225L13.7398 11.0785L12.9507 10.9457L14.1443 4.15852C14.2606 3.49716 13.8191 2.8808 13.181 2.76799Z" fill="#141B34"/>
<path fill-rule="evenodd" clip-rule="evenodd" d="M8.03033 3.46967L9.75 1.75L10.8107 2.81066L9.09099 4.53033H10.2803V6.03033H6.53033V2.28033H8.03033V3.46967ZM3.46967 8.03033H2.28033V6.53033H6.03033V10.2803H4.53033V9.09099L2.81066 10.8107L1.75 9.75L3.46967 8.03033Z" fill="#141B34"/>
</svg>
