<svg width="24" height="24" viewBox="0 0 24 24" fill="none" xmlns="http://www.w3.org/2000/svg">
<path d="M7.5779 21H16.4221C19.031 21 20.3355 21 20.8318 20.0742C21.3281 19.1484 20.6885 17.908 19.4095 15.4272L19.0598 14.7489L7.64643 9.5L4.59051 15.4272C3.31146 17.908 2.67193 19.1484 3.16823 20.0742C3.66452 21 4.96898 21 7.5779 21Z" fill="#D4D7E0"/>
<path d="M11.9991 3C13.0014 3 13.6631 4.2834 14.9865 6.85021L15.5793 8L7.5 10L9.01172 6.85021L9.01172 6.85021C10.3351 4.2834 10.9968 3 11.9991 3Z" fill="white"/>
<path d="M15.5802 8L14.9874 6.85021C13.664 4.2834 13.0023 3 12 3C10.9977 3 10.336 4.2834 9.01261 6.85021L4.59051 15.4272C3.31146 17.908 2.67193 19.1484 3.16823 20.0742C3.66452 21 4.96898 21 7.5779 21H16.4221C19.031 21 20.3355 21 20.8318 20.0742C21.3281 19.1484 20.6885 17.908 19.4095 15.4272L19.0598 14.7489" stroke="#141B34" stroke-width="1.5" stroke-linecap="round" stroke-linejoin="round"/>
<path d="M8 10L22 7M8 10L21.4615 11.5M8 10L22 16" stroke="#141B34" stroke-width="1.5" stroke-linecap="round" stroke-linejoin="round"/>
<path d="M8 10L2 11" stroke="#141B34" stroke-width="1.5" stroke-linecap="round" stroke-linejoin="round"/>
</svg>
