<svg width="24" height="24" viewBox="0 0 24 24" fill="none" xmlns="http://www.w3.org/2000/svg">
<path d="M22 12C22 15.1729 20.5223 18.0006 18.2176 19.8326C16.5106 21.1894 14.35 22 12 22C8.74336 22 5.85031 20.4433 4.02442 18.0333C2.75383 16.3563 2 14.2662 2 12C2 10.4201 2.36638 8.9258 3.0188 7.59739C4.64707 4.28203 8.05704 2 12 2C14.7974 2 17.3265 3.14864 19.1414 5C20.4653 6.35045 21.4092 8.07481 21.8 10C21.9311 10.6462 22 11.3151 22 12Z" fill="#D4D7E0"/>
<path d="M17.7252 5.0338C12.9235 5.73718 10.8333 12 2 12C4.15439 12 6.73877 14.1487 9.43157 16.219C13.2536 13.8616 16.6131 10 21 10H21.8C21.9311 10.6462 22 11.3151 22 12C22 15.1729 20.5223 18.0006 18.2176 19.8326L18 19.88C15.2788 20.5316 12.2939 18.4196 9.43157 16.219C7.76421 17.2474 6.00883 17.9895 4.04172 17.9999C4.02456 18 4.01428 18.0195 4.02442 18.0333C2.75383 16.3563 2 14.2662 2 12C2 10.4201 2.36638 8.9258 3.0188 7.59739C8.69062 9.22147 10.3394 5.43383 17.7252 5.0338C17.8002 5.02281 17.8759 5.01319 17.9522 5.00496C17.9832 5.00162 18.015 5.00648 18.0436 5.01882C17.9363 5.02311 17.8302 5.02812 17.7252 5.0338Z" fill="white"/>
<path d="M3.20756 6.87128C2.80953 6.75665 2.39393 6.98639 2.27929 7.38443C2.16466 7.78246 2.3944 8.19806 2.79244 8.3127L3.20756 6.87128ZM18 19.88L17.8405 19.1471C17.8354 19.1482 17.8304 19.1494 17.8253 19.1506L18 19.88ZM21 10V9.25V10ZM21.8 10L22.535 9.8508L21.8 10ZM3.41937 18.4765C3.66413 18.8107 4.13344 18.8832 4.4676 18.6384C4.80176 18.3936 4.87424 17.9243 4.62948 17.5902L3.41937 18.4765ZM17.7461 5.70731C18.1263 5.8716 18.5678 5.69654 18.732 5.3163C18.8963 4.93606 18.7213 4.49464 18.341 4.33034L17.7461 5.70731ZM4.04172 17.9999L4.04567 18.7499L4.04172 17.9999ZM17.9522 5.00496L18.0326 5.75064L17.9522 5.00496ZM2 12.75C6.7058 12.75 9.60805 11.0407 11.928 9.30347C13.1119 8.4169 14.0316 7.61773 15.041 6.94884C16.0133 6.30443 16.9548 5.86679 18.0326 5.75064L17.8719 4.25927C16.4671 4.41066 15.2947 4.98117 14.2123 5.69849C13.1669 6.39133 12.091 7.30749 11.0289 8.10279C8.85681 9.72931 6.26548 11.25 2 11.25V12.75ZM17.8253 19.1506C16.7451 19.4093 15.5509 19.1511 14.2244 18.5075C12.8987 17.8642 11.533 16.8817 10.1417 15.8183C8.77472 14.7736 7.36815 13.638 6.03948 12.7792C4.72493 11.9295 3.34215 11.25 2 11.25V12.75C2.88007 12.75 3.94826 13.2136 5.2252 14.039C6.48802 14.8552 7.81346 15.9268 9.2308 17.0101C10.6238 18.0748 12.0947 19.1414 13.5696 19.857C15.0438 20.5723 16.6143 20.983 18.1747 20.6093L17.8253 19.1506ZM4.04567 18.7499C7.57623 18.7313 10.4412 16.5474 13.0387 14.5856C15.7334 12.5504 18.1474 10.75 21 10.75V9.25C17.5518 9.25 14.7248 11.4325 12.1346 13.3887C9.44721 15.4184 6.98342 17.2344 4.03777 17.2499L4.04567 18.7499ZM12 2.75C14.5877 2.75 16.9262 3.81163 18.6059 5.52503L19.677 4.47497C17.7268 2.48564 15.007 1.25 12 1.25V2.75ZM19 5.75H19.1414V4.25H19V5.75ZM18.6059 5.52503C19.8313 6.77505 20.7038 8.36992 21.065 10.1492L22.535 9.8508C22.1146 7.77969 21.0993 5.92586 19.677 4.47497L18.6059 5.52503ZM21.065 10.1492C21.1862 10.7466 21.25 11.3655 21.25 12H22.75C22.75 11.2647 22.6761 10.5459 22.535 9.8508L21.065 10.1492ZM21 10.75H21.8V9.25H21V10.75ZM2.79244 8.3127C2.79908 8.31461 2.80572 8.31652 2.81234 8.31841L3.22526 6.87637C3.21936 6.87468 3.21346 6.87298 3.20756 6.87128L2.79244 8.3127ZM2.75 12C2.75 10.5372 3.08898 9.15581 3.69199 7.92801L2.34561 7.26677C1.64377 8.6958 1.25 10.303 1.25 12H2.75ZM3.69199 7.92801C5.19903 4.85951 8.35387 2.75 12 2.75V1.25C7.76021 1.25 4.09511 3.70455 2.34561 7.26677L3.69199 7.92801ZM12 21.25C8.98807 21.25 6.31244 19.8113 4.62222 17.5804L3.42663 18.4863C5.38819 21.0753 8.49865 22.75 12 22.75V21.25ZM4.62222 17.5804C3.44695 16.0292 2.75 14.0971 2.75 12H1.25C1.25 14.4353 2.06071 16.6835 3.42663 18.4863L4.62222 17.5804ZM21.25 12C21.25 14.9346 19.8843 17.5497 17.7509 19.2455L18.6843 20.4197C21.1603 18.4516 22.75 15.4112 22.75 12H21.25ZM17.7509 19.2455C16.1718 20.5006 14.1745 21.25 12 21.25V22.75C14.5255 22.75 16.8494 21.8782 18.6843 20.4197L17.7509 19.2455ZM18.1595 20.6128L18.3771 20.5654L18.0581 19.0998L17.8405 19.1471L18.1595 20.6128ZM2.81234 8.31841C5.92004 9.20828 7.94773 8.57564 10.0894 7.73926C12.1822 6.92194 14.3882 5.91562 18.0735 5.76822L18.0136 4.26942C14.0408 4.42831 11.6106 5.53485 9.54371 6.34203C7.52561 7.13016 5.86997 7.63366 3.22526 6.87637L2.81234 8.31841ZM18.0735 5.76822C18.3722 5.75628 18.6808 5.75 19 5.75V4.25C18.6611 4.25 18.3325 4.25667 18.0136 4.26942L18.0735 5.76822ZM4.03777 17.2499C3.43791 17.2531 3.03003 17.945 3.41937 18.4765L4.62948 17.5902C4.99853 18.094 4.61122 18.7469 4.04567 18.7499L4.03777 17.2499ZM18.0326 5.75064C17.9341 5.76125 17.8358 5.74609 17.7461 5.70731L18.341 4.33034C18.1941 4.26687 18.0322 4.242 17.8719 4.25927L18.0326 5.75064Z" fill="#141B34"/>
</svg>
