<svg width="24" height="24" viewBox="0 0 24 24" fill="none" xmlns="http://www.w3.org/2000/svg">
<path fill-rule="evenodd" clip-rule="evenodd" d="M11.5742 1.45357C11.644 1.38003 11.59 1.25623 11.4887 1.26097C5.78908 1.52783 1.25 6.23335 1.25 11.999C1.25 17.9361 6.06294 22.749 12 22.749C17.9371 22.749 22.75 17.9361 22.75 11.999C22.75 6.8585 19.1419 2.5607 14.32 1.50001C14.2321 1.48067 14.1881 1.471 14.1393 1.47628C14.0905 1.48157 14.0518 1.49941 13.9745 1.5351C13.9532 1.54492 13.9322 1.55481 13.9115 1.56477C13.2231 1.896 12.8284 2.31183 12.6573 2.49205C11.931 3.25219 11.7887 3.90584 11.8455 4.31472C11.9059 4.74998 12.1756 5.05742 12.4299 5.1813C12.5961 5.26225 12.8685 5.2714 13.1935 5.20466C13.3411 5.17436 13.5316 5.12424 13.695 5.05167C14.0724 4.88409 14.515 5.05293 14.6841 5.42999C14.8536 5.80793 14.6847 6.25173 14.3068 6.42126C14.0007 6.55854 13.7243 6.62696 13.4952 6.67401C13.0669 6.76196 12.3901 6.83042 11.773 6.5298C11.0721 6.18835 10.4893 5.45427 10.3598 4.52098C10.2265 3.56134 10.606 2.46685 11.5742 1.45357ZM6.75 8.99902C6.75 8.30867 7.30964 7.74902 8 7.74902H8.00897C8.69933 7.74902 9.25897 8.30867 9.25897 8.99902C9.25897 9.68938 8.69933 10.249 8.00897 10.249H8C7.30964 10.249 6.75 9.68938 6.75 8.99902ZM14.741 8.99902C14.741 8.30867 15.3007 7.74902 15.991 7.74902H16C16.6904 7.74902 17.25 8.30867 17.25 8.99902C17.25 9.68938 16.6904 10.249 16 10.249H15.991C15.3007 10.249 14.741 9.68938 14.741 8.99902ZM8.59974 14.5486C8.35099 14.2174 7.88084 14.1506 7.54964 14.3993C7.21843 14.6481 7.1516 15.1182 7.40035 15.4494C8.44802 16.8444 10.1185 17.749 12 17.749C13.8816 17.749 15.5521 16.8444 16.5997 15.4494C16.8485 15.1182 16.7817 14.6481 16.4505 14.3993C16.1192 14.1506 15.6491 14.2174 15.4003 14.5486C14.6238 15.5826 13.3898 16.249 12 16.249C10.6103 16.249 9.37631 15.5826 8.59974 14.5486Z" fill="#141B34"/>
</svg>
