<svg width="24" height="24" viewBox="0 0 24 24" fill="none" xmlns="http://www.w3.org/2000/svg">
<path d="M11.2159 10.0356L10.6845 9.50631L10.6845 9.50631L11.2159 10.0356ZM11.2177 12.2296L11.7482 11.6995V11.6995L11.2177 12.2296ZM13.4146 12.2301L12.8843 11.6997L13.4146 12.2301ZM15.6042 10.0408L16.2868 9.73007L15.8388 8.74567L15.0739 9.51039L15.6042 10.0408ZM13.4014 7.84142L13.9327 8.3707L14.6958 7.60464L13.711 7.15831L13.4014 7.84142ZM2 18.5L1.46973 17.9696C1.17687 18.2624 1.17674 18.7372 1.46944 19.0301L2 18.5ZM7.34665 13.1545L7.87692 13.6849L8.19478 13.3671L8.06441 12.937L7.34665 13.1545ZM10.294 16.1019L10.5116 15.3841L10.0815 15.2538L9.76369 15.5716L10.294 16.1019ZM4.9467 21.4492L4.41614 21.9793C4.55677 22.1201 4.74757 22.1992 4.94654 22.1992C5.14551 22.1993 5.33634 22.1202 5.47703 21.9795L4.9467 21.4492ZM10.6845 9.50631C9.7883 10.4061 9.78949 11.8615 10.6872 12.7598L11.7482 11.6995C11.4351 11.3862 11.4347 10.8786 11.7473 10.5649L10.6845 9.50631ZM12.8843 11.6997C12.5705 12.0134 12.0618 12.0133 11.7482 11.6995L10.6872 12.7598C11.5865 13.6597 13.0451 13.66 13.9448 12.7605L12.8843 11.6997ZM15.2493 11.8703C15.2493 13.8977 13.6057 15.5413 11.5783 15.5413V17.0413C14.4342 17.0413 16.7493 14.7262 16.7493 11.8703H15.2493ZM7.90723 11.8703C7.90723 9.8428 9.55081 8.19922 11.5783 8.19922V6.69922C8.72239 6.69922 6.40723 9.01438 6.40723 11.8703H7.90723ZM14.9216 10.3515C15.1318 10.8134 15.2493 11.3271 15.2493 11.8703H16.7493C16.7493 11.1085 16.5841 10.3832 16.2868 9.73007L14.9216 10.3515ZM15.0739 9.51039L12.8843 11.6997L13.9448 12.7605L16.1345 10.5711L15.0739 9.51039ZM11.5783 8.19922C12.1194 8.19922 12.6312 8.31581 13.0918 8.52453L13.711 7.15831C13.0598 6.86317 12.3372 6.69922 11.5783 6.69922V8.19922ZM12.87 7.31214L10.6845 9.50631L11.7473 10.5649L13.9327 8.3707L12.87 7.31214ZM2.53027 19.0304L7.87692 13.6849L6.81638 12.6241L1.46973 17.9696L2.53027 19.0304ZM8.06441 12.937C7.96237 12.6003 7.90723 12.2424 7.90723 11.8703H6.40723C6.40723 12.3914 6.48456 12.8959 6.62889 13.3721L8.06441 12.937ZM11.5783 15.5413C11.2061 15.5413 10.8482 15.4862 10.5116 15.3841L10.0765 16.8197C10.5527 16.964 11.0571 17.0413 11.5783 17.0413V15.5413ZM9.76369 15.5716L4.41637 20.9189L5.47703 21.9795L10.8243 16.6322L9.76369 15.5716ZM5.47726 20.9191L2.53056 17.9699L1.46944 19.0301L4.41614 21.9793L5.47726 20.9191Z" fill="#141B34"/>
<path d="M2 14.4669V10.5332C4.85673 10.5332 6.71586 7.43035 5.26953 4.96681L8.73363 3C10.1978 5.49395 13.8038 5.49405 15.2679 3.0001L18.732 4.96691C17.2857 7.43041 19.1433 10.5332 22 10.5332V14.4669C19.1434 14.4669 17.2874 17.5696 18.7336 20.0331L15.2695 21.9999C13.8046 19.5047 10.1969 19.5048 8.73205 22" stroke="#141B34" stroke-width="1.5" stroke-linejoin="round"/>
</svg>
