<svg width="24" height="24" viewBox="0 0 24 24" fill="none" xmlns="http://www.w3.org/2000/svg">
<path d="M17 14V17.5M17.009 18.5L17 20M22 17C22 19.7614 19.7614 22 17 22C14.2386 22 12 19.7614 12 17C12 14.2386 14.2386 12 17 12C19.7614 12 22 14.2386 22 17Z" stroke="#141B34" stroke-width="1.5" stroke-linejoin="round"/>
<path d="M22 9.53324H22.75C22.75 9.11902 22.4142 8.78324 22 8.78324V9.53324ZM2 13.4669H1.25C1.25 13.8811 1.58579 14.2169 2 14.2169V13.4669ZM2 9.53324V8.78324C1.58579 8.78324 1.25 9.11902 1.25 9.53324H2ZM15.2679 2.0001L15.6383 1.34789C15.2817 1.14547 14.8287 1.26683 14.6212 1.62038L15.2679 2.0001ZM18.732 3.96691L19.3788 4.34662C19.4805 4.17346 19.5085 3.96677 19.4565 3.77282C19.4045 3.57886 19.277 3.41384 19.1024 3.3147L18.732 3.96691ZM8.73205 21L8.36175 21.6522C8.71827 21.8546 9.17126 21.7333 9.37882 21.3797L8.73205 21ZM5.26795 19.0332L4.62118 18.6535C4.51952 18.8266 4.49154 19.0333 4.5435 19.2273C4.59546 19.4212 4.72303 19.5863 4.89765 19.6854L5.26795 19.0332ZM5.26953 3.96681L4.89923 3.3146C4.72461 3.41374 4.59704 3.57876 4.54508 3.77272C4.49312 3.96668 4.5211 4.17337 4.62276 4.34653L5.26953 3.96681ZM8.73363 2L9.38041 1.62028C9.17284 1.26674 8.71985 1.14537 8.36333 1.34779L8.73363 2ZM9.25 11.5C9.25 9.98122 10.4812 8.75 12 8.75V7.25C9.65279 7.25 7.75 9.15279 7.75 11.5H9.25ZM2.75 13.4669V9.53324H1.25V13.4669H2.75ZM14.8976 2.6523L18.3617 4.61912L19.1024 3.3147L15.6383 1.34789L14.8976 2.6523ZM9.10236 20.3478L5.63825 18.381L4.89765 19.6854L8.36175 21.6522L9.10236 20.3478ZM5.63984 4.61902L9.10394 2.65221L8.36333 1.34779L4.89923 3.3146L5.63984 4.61902ZM4.62276 4.34653C5.76109 6.28546 4.30575 8.78324 2 8.78324V10.2832C5.40771 10.2832 7.67063 6.57525 5.9163 3.5871L4.62276 4.34653ZM2 14.2169C4.30517 14.2169 5.75974 16.7141 4.62118 18.6535L5.91472 19.4129C7.66876 16.4252 5.40819 12.7169 2 12.7169V14.2169ZM8.08686 2.37972C9.84088 5.36735 14.1607 5.36751 15.9147 2.37981L14.6212 1.62038C13.4469 3.62059 10.5548 3.62056 9.38041 1.62028L8.08686 2.37972ZM18.0853 3.58719C16.3312 6.57485 18.5918 10.2832 22 10.2832V8.78324C19.6948 8.78324 18.2403 6.28596 19.3788 4.34662L18.0853 3.58719ZM21.25 9.53324V11.75H22.75V9.53324H21.25ZM12 8.75C13.0917 8.75 14.0363 9.38607 14.4806 10.3112L15.8327 9.66166C15.1481 8.23647 13.69 7.25 12 7.25V8.75ZM10.5809 13.8562C9.78167 13.3735 9.25 12.4985 9.25 11.5H7.75C7.75 13.0454 8.57525 14.3973 9.80551 15.1402L10.5809 13.8562ZM9.37882 21.3797C9.68446 20.8591 10.1007 20.4788 10.5689 20.231L9.86714 18.9053C9.15786 19.2807 8.53459 19.855 8.08528 20.6203L9.37882 21.3797Z" fill="#141B34"/>
</svg>
