<svg width="24" height="24" viewBox="0 0 24 24" fill="none" xmlns="http://www.w3.org/2000/svg">
<path d="M17.7352 2.25007C17.0168 1.99787 16.1172 1.99787 14.3182 1.99787C11.1698 1.99787 9.59563 1.99787 8.33836 2.43922C6.31714 3.14875 4.72281 4.64929 3.96894 6.55162C3.5 7.73493 3.5 9.21652 3.5 12.1797L20.5 11.9979V7.81605C20.5 6.12281 20.5 5.27619 20.232 4.60001C19.8012 3.51297 18.8902 2.65552 17.7352 2.25007Z" fill="#D4D7E0"/>
<path d="M3.84997 6.536C3.44818 7.54987 3.39065 8.78271 3.38241 10.9788C3.71867 10.1444 5.28597 8.48224 8.88104 8.48224C9.18245 8.48224 9.97311 8.179 9.93219 6.536C9.91539 5.04021 10.4647 2.07046 12.7772 1.98417C10.5451 1.99402 9.27134 2.05432 8.2194 2.4236C6.19817 3.13313 4.60385 4.63367 3.84997 6.536Z" fill="white"/>
<path d="M22 12L2 12" stroke="#141B34" stroke-width="1.5" stroke-linecap="round" stroke-linejoin="round"/>
<path d="M3.5 12.1797C3.5 9.21652 3.5 7.73493 3.96894 6.55162C4.72281 4.64929 6.31714 3.14875 8.33836 2.43922C9.59563 1.99787 11.1698 1.99787 14.3182 1.99787C16.1173 1.99787 17.0168 1.99787 17.7352 2.25007C18.8902 2.65552 19.8012 3.51297 20.232 4.60001C20.5 5.27619 20.5 6.12281 20.5 7.81605L20.5 11.9979" stroke="#141B34" stroke-width="1.5" stroke-linejoin="round"/>
<path d="M3.5 12C3.5 10.1591 4.99238 8.66667 6.83333 8.66667C7.49912 8.66667 8.28404 8.78333 8.93137 8.60988C9.50652 8.45576 9.95576 8.00652 10.1099 7.43136C10.2833 6.78404 10.1667 5.99912 10.1667 5.33333C10.1667 3.49238 11.6591 2 13.5 2" stroke="#141B34" stroke-width="1.5" stroke-linecap="round" stroke-linejoin="round"/>
<path d="M6 15L6 17M10 15V22M14 15V18M18 15V20" stroke="#141B34" stroke-width="1.5" stroke-linecap="round" stroke-linejoin="round"/>
</svg>
