<svg width="24" height="24" viewBox="0 0 24 24" fill="none" xmlns="http://www.w3.org/2000/svg">
<path d="M6 5V4.25C5.58579 4.25 5.25 4.58579 5.25 5H6ZM6 12H5.25C5.25 12.4142 5.58579 12.75 6 12.75V12ZM15 5L15.5694 4.51191L15.345 4.25H15V5ZM15 12V12.75H15.345L15.5694 12.4881L15 12ZM18 8.5L18.5694 8.98809L18.9878 8.5L18.5694 8.01191L18 8.5ZM5.25 5V12H6.75V5H5.25ZM15 4.25H6V5.75H15V4.25ZM6 12.75H15V11.25H6V12.75ZM17.4306 8.01191L14.4306 11.5119L15.5694 12.4881L18.5694 8.98809L17.4306 8.01191ZM14.4306 5.48809L17.4306 8.98809L18.5694 8.01191L15.5694 4.51191L14.4306 5.48809Z" fill="#141B34"/>
<path d="M10 12L10 21" stroke="#141B34" stroke-width="1.5" stroke-linejoin="round"/>
<path d="M10 3L10 5" stroke="#141B34" stroke-width="1.5" stroke-linejoin="round"/>
<path d="M6 21H14" stroke="#141B34" stroke-width="1.5" stroke-linejoin="round"/>
</svg>
