<svg width="24" height="24" viewBox="0 0 24 24" fill="none" xmlns="http://www.w3.org/2000/svg">
<path d="M13.2561 16L12.5489 15.7501L12.7257 15.25H13.2561V16ZM21.7439 19L22.4511 19.2499L22.2743 19.75H21.7439V19ZM21.5 19V19.75H21.25L21.05 19.6L21.5 19ZM13.5 16V15.25H13.75L13.95 15.4L13.5 16ZM21.25 17.5C21.25 15.4289 19.5711 13.75 17.5 13.75V12.25C20.3995 12.25 22.75 14.6005 22.75 17.5H21.25ZM13.75 17.5C13.75 19.5711 15.4289 21.25 17.5 21.25V22.75C14.6005 22.75 12.25 20.3995 12.25 17.5H13.75ZM13.9632 16.2499C13.8253 16.6399 13.75 17.0604 13.75 17.5H12.25C12.25 16.8877 12.3551 16.2984 12.5489 15.7501L13.9632 16.2499ZM21.0368 18.7501C21.1747 18.3601 21.25 17.9396 21.25 17.5H22.75C22.75 18.1123 22.6449 18.7016 22.4511 19.2499L21.0368 18.7501ZM17.5 13.75C16.728 13.75 16.0127 13.9824 15.4172 14.381L14.5828 13.1345C15.4174 12.5758 16.4218 12.25 17.5 12.25V13.75ZM17.5 21.25C18.272 21.25 18.9873 21.0176 19.5828 20.619L20.4172 21.8655C19.5826 22.4242 18.5782 22.75 17.5 22.75V21.25ZM21.7439 19.75H21.5V18.25H21.7439V19.75ZM21.05 19.6L19.05 18.1L19.95 16.9L21.95 18.4L21.05 19.6ZM13.2561 15.25H13.5V16.75H13.2561V15.25ZM13.95 15.4L15.95 16.9L15.05 18.1L13.05 16.6L13.95 15.4Z" fill="#141B34"/>
<path d="M11.0107 22C5.95135 21.497 2 17.2229 2 12.0247C2 6.48823 6.48245 2 12.0118 2C17.308 2 21.6437 6.11759 22 11.33" stroke="#141B34" stroke-width="1.5" stroke-linejoin="round"/>
<path d="M20 5.69899C19.0653 5.76636 17.8681 6.12824 17.0379 7.20277C15.5385 9.14361 14.039 9.30556 13.0394 8.65861C11.5399 7.6882 12.8 6.11636 11.0401 5.26215C9.89313 4.70542 9.73321 3.19045 10.3716 2" stroke="#141B34" stroke-width="1.5" stroke-linejoin="round"/>
<path d="M2 11C2.7625 11.6621 3.83046 12.2682 5.08874 12.2682C7.68843 12.2682 8.20837 12.7649 8.20837 14.7518C8.20837 16.7387 8.20837 16.7387 8.72831 18.2288C9.06651 19.1981 9.18472 20.1674 8.5106 21" stroke="#141B34" stroke-width="1.5" stroke-linejoin="round"/>
</svg>
