<svg width="24" height="24" viewBox="0 0 24 24" fill="none" xmlns="http://www.w3.org/2000/svg">
<path d="M12 22L11.6954 22.6854L12 22.8207L12.3046 22.6854L12 22ZM12 22C12.3046 21.3146 12.3048 21.3147 12.3049 21.3148C12.3049 21.3148 12.3051 21.3148 12.3051 21.3148C12.3051 21.3149 12.305 21.3148 12.3047 21.3147C12.3042 21.3145 12.3032 21.314 12.3016 21.3133C12.2985 21.3119 12.2932 21.3095 12.2859 21.3062C12.2713 21.2995 12.2486 21.289 12.2182 21.2747C12.1573 21.2461 12.0661 21.2023 11.9487 21.1436C11.7138 21.0262 11.3751 20.8494 10.9672 20.6152C10.1496 20.1459 9.06297 19.4512 7.98014 18.5488C5.78923 16.7231 3.75 14.1642 3.75 11H2.25C2.25 14.8358 4.71077 17.7769 7.01986 19.7012C8.18703 20.6738 9.35038 21.4166 10.2203 21.9161C10.6562 22.1663 11.0206 22.3566 11.2779 22.4853C11.4066 22.5496 11.5087 22.5986 11.5797 22.632C11.6152 22.6487 11.643 22.6616 11.6624 22.6705C11.6722 22.6749 11.6798 22.6784 11.6854 22.6809C11.6881 22.6821 11.6903 22.6831 11.692 22.6838C11.6928 22.6842 11.6935 22.6845 11.6941 22.6848C11.6944 22.6849 11.6947 22.6851 11.6949 22.6851C11.6951 22.6852 11.6954 22.6854 12 22ZM12 2.75C16.5563 2.75 20.25 6.44365 20.25 11H21.75C21.75 5.61522 17.3848 1.25 12 1.25V2.75ZM20.25 11C20.25 12.7581 19.6235 14.3262 18.6831 15.6944L19.9193 16.5441C20.9865 14.9914 21.75 13.1323 21.75 11H20.25ZM7.2528 4.25174C8.59512 3.30557 10.2316 2.75 12 2.75V1.25C9.91216 1.25 7.97556 1.90709 6.3886 3.02571L7.2528 4.25174ZM3.75 11C3.75 8.95455 4.49342 7.08464 5.72574 5.64286L4.58549 4.66826C3.12977 6.37143 2.25 8.58393 2.25 11H3.75ZM17.3245 17.342C16.0843 18.624 14.6747 19.6204 13.5663 20.2989C13.014 20.6369 12.5412 20.8932 12.2084 21.064C12.0421 21.1494 11.9111 21.2133 11.823 21.2552C11.779 21.2762 11.7457 21.2917 11.7241 21.3016C11.7133 21.3065 11.7054 21.3101 11.7006 21.3123C11.6982 21.3134 11.6965 21.3141 11.6957 21.3145C11.6952 21.3147 11.695 21.3148 11.6949 21.3148C11.6949 21.3149 11.6949 21.3148 11.695 21.3148C11.6951 21.3148 11.6952 21.3147 11.6952 21.3147C11.6953 21.3147 11.6954 21.3146 12 22C12.3046 22.6854 12.3047 22.6853 12.3049 22.6852C12.305 22.6852 12.3051 22.6851 12.3053 22.6851C12.3056 22.6849 12.3059 22.6848 12.3063 22.6846C12.307 22.6843 12.3079 22.6839 12.3091 22.6834C12.3114 22.6823 12.3145 22.6809 12.3183 22.6792C12.326 22.6757 12.3368 22.6708 12.3506 22.6645C12.3781 22.6518 12.4175 22.6335 12.4678 22.6095C12.5685 22.5616 12.713 22.4911 12.8935 22.3984C13.2543 22.2132 13.7604 21.9387 14.3494 21.5782C15.5234 20.8596 17.0456 19.7877 18.4026 18.3849L17.3245 17.342Z" fill="#141B34"/>
<path d="M2 2L22 22" stroke="#141B34" stroke-width="1.5" stroke-linejoin="round"/>
</svg>
