<svg width="24" height="24" viewBox="0 0 24 24" fill="none" xmlns="http://www.w3.org/2000/svg">
<path d="M17.151 7.75C17.4338 7.75 17.5752 7.75 17.6631 7.83787C17.751 7.92574 17.751 8.06716 17.751 8.35V9C17.751 11.0711 16.072 12.75 14.001 12.75C11.9299 12.75 10.251 11.0711 10.251 9V8.35C10.251 8.06716 10.251 7.92574 10.3388 7.83787C10.4267 7.75 10.5681 7.75 10.851 7.75H17.151Z" fill="#141B34"/>
<path opacity="0.4" d="M14.001 1.25C11.9299 1.25 10.251 2.92893 10.251 5V5.65C10.251 5.93284 10.251 6.07426 10.3388 6.16213C10.4267 6.25 10.5681 6.25 10.851 6.25H17.151C17.4338 6.25 17.5752 6.25 17.6631 6.16213C17.751 6.07426 17.751 5.93284 17.751 5.65V5C17.751 2.92893 16.072 1.25 14.001 1.25Z" fill="#141B34"/>
<path opacity="0.4" d="M5.95575 13.25C5.52293 13.25 5.1261 13.2499 4.80329 13.2933C4.44781 13.3411 4.07208 13.4535 3.76306 13.7626C3.45404 14.0716 3.34159 14.4473 3.29379 14.8028C3.25039 15.1256 3.25044 15.5224 3.25049 15.9553L3.25049 18.5635C3.25045 18.8917 3.25041 19.1992 3.28036 19.4561C3.31369 19.7421 3.39087 20.0427 3.59805 20.3203C3.80523 20.5979 4.07151 20.7574 4.33618 20.8707C4.574 20.9725 4.86879 21.06 5.1834 21.1533L10.1823 22.6366C10.9068 22.8516 11.6832 22.7581 12.3382 22.3802L19.8538 18.0438C20.787 17.5054 21.0271 16.2638 20.4056 15.4032C19.7127 14.4437 18.5022 14.0209 17.3717 14.3724L17.3702 14.3729L15.2447 15.0259C14.996 15.1023 14.8717 15.1405 14.8327 15.2122C14.7938 15.2839 14.8403 15.4474 14.9333 15.7743C15.0042 16.0236 15.0126 16.2627 15.0005 16.3973C15.0005 17.3786 14.3315 18.171 13.4672 18.4099L10.9263 19.1124C10.0046 19.3673 9.01736 19.2796 8.15437 18.8621L6.53408 18.0781C6.22336 17.9278 6.09335 17.554 6.24369 17.2433C6.39403 16.9326 6.76779 16.8026 7.07851 16.9529L8.69879 17.7369C9.28741 18.0217 9.96267 18.082 10.5932 17.9076L13.1341 17.2051C13.4842 17.1083 13.7505 16.7884 13.7505 16.3973C13.7505 14.9842 12.5738 14.6252 11.1746 14.6252L10.132 14.6251C9.95023 14.6251 9.77187 14.5841 9.6113 14.5064L7.56932 13.5184C7.20371 13.3415 6.80185 13.25 6.39531 13.25L5.95575 13.25Z" fill="#141B34"/>
</svg>
