<svg width="24" height="24" viewBox="0 0 24 24" fill="none" xmlns="http://www.w3.org/2000/svg">
<path fill-rule="evenodd" clip-rule="evenodd" d="M7.13718 1.25001C7.15465 1.25001 7.17213 1.25001 7.18962 1.25001H12.8084C12.8259 1.25001 12.8434 1.25001 12.8609 1.25001C13.2566 1.24992 13.6453 1.24984 13.9666 1.29213C14.332 1.34021 14.7486 1.45785 15.0925 1.7945C15.4163 2.11146 15.5582 2.55295 15.6307 2.86788C15.7126 3.22385 15.749 3.62047 15.749 4C15.749 4.37953 15.7126 4.77615 15.6307 5.13212C15.5582 5.44705 15.4163 5.88854 15.0925 6.2055C14.7486 6.54215 14.332 6.65979 13.9666 6.70787C13.6453 6.75016 13.2566 6.75008 12.8609 6.74999C12.8434 6.74999 12.8259 6.74999 12.8084 6.74999H7.18962C7.17213 6.74999 7.15465 6.74999 7.13718 6.74999C6.74143 6.75008 6.35275 6.75016 6.03143 6.70787C5.66606 6.65979 5.24947 6.54215 4.90555 6.2055C4.58174 5.88854 4.43983 5.44705 4.36734 5.13212C4.28541 4.77615 4.24902 4.37953 4.24902 4C4.24902 3.62047 4.28541 3.22385 4.36734 2.86788C4.43983 2.55295 4.58174 2.11146 4.90555 1.7945C5.24947 1.45785 5.66606 1.34021 6.03143 1.29213C6.35275 1.24984 6.74143 1.24992 7.13718 1.25001ZM6.28216 3.10977C6.26994 3.14465 6.25478 3.19431 6.23918 3.26208C6.19324 3.46164 6.16569 3.72227 6.16569 4C6.16569 4.27773 6.19324 4.53836 6.23918 4.73792C6.25478 4.80569 6.26994 4.85535 6.28216 4.89023C6.28554 4.8907 6.28904 4.89118 6.29268 4.89166C6.46721 4.91462 6.72045 4.91666 7.18962 4.91666H12.8084C13.2776 4.91666 13.5308 4.91462 13.7054 4.89166C13.709 4.89118 13.7125 4.8907 13.7159 4.89023C13.7281 4.85535 13.7433 4.80569 13.7589 4.73792C13.8048 4.53836 13.8324 4.27773 13.8324 4C13.8324 3.72227 13.8048 3.46164 13.7589 3.26208C13.7433 3.19431 13.7281 3.14465 13.7159 3.10977C13.7125 3.1093 13.709 3.10882 13.7054 3.10834C13.5308 3.08538 13.2776 3.08334 12.8084 3.08334H7.18962C6.72045 3.08334 6.46721 3.08538 6.29268 3.10834C6.28904 3.10882 6.28554 3.1093 6.28216 3.10977Z" fill="#141B34"/>
<path d="M17.9476 14.4396C18.1589 14.1817 18.2646 14.0528 18.2266 13.9055C18.1887 13.7582 18.0465 13.7014 17.7621 13.5877C15.8895 12.8393 13.6715 13.347 12.3256 14.99C10.9797 16.633 10.9185 18.9074 12.0209 20.5961C12.1883 20.8526 12.272 20.9808 12.4238 20.989C12.5757 20.9972 12.6814 20.8682 12.8926 20.6103L17.9476 14.4396Z" fill="#141B34"/>
<path d="M19.1079 15.3904C19.3192 15.1324 19.4249 15.0035 19.5768 15.0117C19.7286 15.0199 19.8123 15.1482 19.9797 15.4047C21.0816 17.0933 21.0202 19.3673 19.6744 21.0101C18.3287 22.6528 16.1113 23.1606 14.2388 22.4127C13.9544 22.2991 13.8122 22.2423 13.7742 22.095C13.7362 21.9476 13.8419 21.8187 14.0532 21.5607L19.1079 15.3904Z" fill="#141B34"/>
<path opacity="0.4" d="M14.5592 6.55566C14.3591 6.63915 14.1555 6.6829 13.9656 6.70788C13.6443 6.75017 13.2556 6.75009 12.8599 6.75001H7.13621C6.74045 6.75009 6.35177 6.75017 6.03046 6.70788C5.84065 6.6829 5.63701 6.63915 5.43693 6.55568C5.52846 6.74088 5.5691 6.82926 5.59949 6.91261C5.82903 7.54219 5.76598 8.24132 5.42753 8.81969C5.36782 8.92172 5.28861 9.02928 5.05642 9.33887L4.61025 9.93375C4.20088 10.4794 3.93698 10.8312 3.74294 11.2223C3.5473 11.6166 3.40744 12.0363 3.32735 12.4691C3.2479 12.8984 3.24796 13.3382 3.24805 14.0204L3.24806 16.0549C3.24804 17.4225 3.24802 18.5248 3.36458 19.3918C3.4856 20.2919 3.74449 21.0497 4.34641 21.6517C4.94833 22.2536 5.7062 22.5125 6.60631 22.6335C7.47328 22.7501 8.68534 22.75 10.0529 22.75L10.3363 22.75C10.9371 22.7497 11.2376 22.7496 11.3229 22.594C11.4083 22.4384 11.2287 22.1561 10.8696 21.5914C10.8289 21.5275 10.7939 21.4686 10.7647 21.4161C9.31502 19.1953 9.39283 16.203 11.1652 14.0394C12.3757 12.5617 14.1209 11.7829 15.8903 11.7513C16.0171 11.749 16.0806 11.7479 16.123 11.7341C16.2621 11.6891 16.3506 11.5435 16.3265 11.3993C16.3192 11.3553 16.2972 11.311 16.2532 11.2223C16.0591 10.8312 15.7952 10.4794 15.3859 9.93374L14.9397 9.33887C14.7075 9.02928 14.6283 8.92172 14.5686 8.81969C14.2301 8.24132 14.1671 7.54219 14.3966 6.91261C14.427 6.82926 14.4677 6.74088 14.5592 6.55566Z" fill="#141B34"/>
</svg>
