<svg width="24" height="24" viewBox="0 0 24 24" fill="none" xmlns="http://www.w3.org/2000/svg">
<path opacity="0.4" d="M4.90944 11.249H19.0886C19.5318 11.2489 19.9522 11.2489 20.2963 11.3061C20.6946 11.3724 21.086 11.5287 21.3881 11.9043C21.6733 12.2588 21.7613 12.6423 21.7476 13.0371C21.7363 13.3616 21.6527 13.731 21.5696 14.0976C20.9827 16.6923 19.2699 19.0384 17.0679 20.3931C17.6137 21.4438 16.8458 22.749 15.6725 22.749H8.32547C7.15222 22.749 6.38433 21.4438 6.93009 20.3931C4.72807 19.0384 3.01528 16.6923 2.42839 14.0976C2.34534 13.731 2.26165 13.3616 2.25038 13.0371C2.23667 12.6423 2.32472 12.2588 2.60987 11.9043C2.91195 11.5287 3.30343 11.3724 3.70168 11.3061C4.04583 11.2489 4.46617 11.2489 4.90944 11.249Z" fill="#141B34"/>
<path opacity="0.4" d="M2.25289 1.9834L2.25296 1.97575C2.26715 1.58279 2.58321 1.26714 2.97618 1.25295L2.98332 1.25289C3.11146 1.25178 3.47144 1.24866 3.67903 1.25402C4.101 1.26492 4.6826 1.29626 5.31799 1.37877C5.95069 1.46093 6.65482 1.59609 7.31499 1.82121C7.96771 2.04377 8.63035 2.37192 9.12984 2.87142C10.0141 3.75569 10.4286 4.71632 10.3621 5.69634C10.2972 6.65168 9.78452 7.47518 9.12984 8.12985C8.47517 8.78452 7.65167 9.29722 6.69633 9.36208C5.71632 9.42862 4.75568 9.01412 3.87141 8.12985C3.37191 7.63035 3.04377 6.96771 2.8212 6.315C2.59609 5.65482 2.46092 4.95069 2.37876 4.31799C2.29625 3.6826 2.26492 3.10101 2.25402 2.67904C2.24866 2.47172 2.25178 2.112 2.25289 1.9834Z" fill="#141B34"/>
<path fill-rule="evenodd" clip-rule="evenodd" d="M5.97065 4.97065C6.26354 4.67775 6.73841 4.67775 7.03131 4.97065L10.5295 8.46879C10.8223 8.76169 10.8223 9.23656 10.5295 9.52945C10.2366 9.82235 9.76169 9.82235 9.46879 9.52945L5.97065 6.03131C5.67775 5.73841 5.67775 5.26354 5.97065 4.97065Z" fill="#141B34"/>
<path d="M19.9095 3.86037C19.2384 3.45595 18.5022 3.23771 17.8319 3.24948C17.1727 3.26105 16.4485 3.51006 16.0731 4.18875C15.7768 4.72441 15.8191 5.32155 16.0034 5.82477C16.0585 5.97518 16.0837 6.11361 16.0824 6.22404C16.0811 6.33047 16.0562 6.3884 16.0327 6.42157L14.3459 8.80214C14.0519 9.2171 13.9048 9.42458 13.9887 9.5868C14.0726 9.74902 14.3269 9.74902 14.8354 9.74902H18.8096C19.0034 9.74902 19.1003 9.74902 19.1759 9.69866C19.2514 9.6483 19.2887 9.55884 19.3633 9.37993L19.7016 8.5687C19.7182 8.52876 19.7511 8.48387 19.827 8.43673C19.9083 8.3863 20.0257 8.34287 20.1703 8.31874C20.702 8.23004 21.2345 7.95725 21.5346 7.41485C21.9035 6.74799 21.7505 5.99676 21.441 5.41492C21.1231 4.81731 20.5815 4.26529 19.9095 3.86037Z" fill="#141B34"/>
</svg>
