<svg width="24" height="24" viewBox="0 0 24 24" fill="none" xmlns="http://www.w3.org/2000/svg">
<path d="M2 21.494C3.5 21.494 4.38367 20.5 5.33333 20.5C6.283 20.5 7.82473 21.5053 8.66667 21.494C9.67699 21.5025 10.8604 20.5 12 20.5C13.1396 20.5 14.323 21.5025 15.3333 21.494C16.6278 21.5899 17.717 20.5 18.6667 20.5C19.6163 20.5 21 21.494 22 21.494" stroke="#141B34" stroke-width="1.5" stroke-linejoin="round"/>
<path d="M21 14.5L21.7067 14.751C21.8379 14.3818 21.6627 13.9738 21.3046 13.8146L21 14.5ZM12 10.5L12.3046 9.81464L12 9.67926L11.6954 9.81464L12 10.5ZM3 14.5L2.6954 13.8146C2.33731 13.9738 2.1621 14.3818 2.29326 14.751L3 14.5ZM18.5849 20.9695C20.0933 19.0904 21.2855 15.9369 21.7067 14.751L20.2933 14.249C19.8634 15.459 18.7425 18.3769 17.4151 20.0305L18.5849 20.9695ZM21.3046 13.8146L12.3046 9.81464L11.6954 11.1854L20.6954 15.1854L21.3046 13.8146ZM6.58488 20.0305C5.25753 18.3769 4.13656 15.459 3.70674 14.249L2.29326 14.751C2.71449 15.9369 3.90674 19.0904 5.41512 20.9695L6.58488 20.0305ZM3.3046 15.1854L12.3046 11.1854L11.6954 9.81464L2.6954 13.8146L3.3046 15.1854Z" fill="#141B34"/>
<path d="M5 14L7 6H17L19 14" stroke="#141B34" stroke-width="1.5"/>
<path d="M9 6L10 2.5H14L15 6" stroke="#141B34" stroke-width="1.5" stroke-linejoin="round"/>
</svg>
