<svg width="24" height="24" viewBox="0 0 24 24" fill="none" xmlns="http://www.w3.org/2000/svg">
<path d="M19 9.00391L19.4155 8.37949C19.1917 8.23059 18.9053 8.21284 18.6649 8.33296L19 9.00391ZM22 10.9999H22.75C22.75 10.7489 22.6244 10.5146 22.4155 10.3755L22 10.9999ZM22 14.9999L22.416 15.624C22.6247 15.4849 22.75 15.2507 22.75 14.9999H22ZM17 15.9969H16.25V16.4598L16.6638 16.6673L17 15.9969ZM19 16.9999L18.6638 17.6704C18.9047 17.7912 19.1918 17.7734 19.416 17.624L19 16.9999ZM17 10.0029L16.6649 9.33198L16.25 9.53921V10.0029H17ZM17.75 15.9969V10.0029H16.25V15.9969H17.75ZM18.5845 9.62832L21.5845 11.6244L22.4155 10.3755L19.4155 8.37949L18.5845 9.62832ZM21.25 10.9999V14.9999H22.75V10.9999H21.25ZM16.6638 16.6673L18.6638 17.6704L19.3362 16.3295L17.3362 15.3265L16.6638 16.6673ZM17.3351 10.6739L19.3351 9.67486L18.6649 8.33296L16.6649 9.33198L17.3351 10.6739ZM21.584 14.3759L18.584 16.3759L19.416 17.624L22.416 15.624L21.584 14.3759Z" fill="#141B34"/>
<path d="M7 15.9969L7.33622 16.6673L7.75 16.4598V15.9969H7ZM7 10.0029H7.75V9.53921L7.33515 9.33198L7 10.0029ZM5 9.00391L5.33515 8.33296C5.09469 8.21284 4.80833 8.23059 4.58455 8.37949L5 9.00391ZM2 10.9999L1.58455 10.3755C1.37557 10.5146 1.25 10.7489 1.25 10.9999H2ZM2 14.9999H1.25C1.25 15.2507 1.37533 15.4849 1.58397 15.624L2 14.9999ZM5 16.9999L4.58397 17.624C4.80818 17.7734 5.09535 17.7912 5.33622 17.6704L5 16.9999ZM7.75 15.9969V10.0029H6.25V15.9969H7.75ZM4.58455 8.37949L1.58455 10.3755L2.41545 11.6244L5.41545 9.62832L4.58455 8.37949ZM1.25 10.9999V14.9999H2.75V10.9999H1.25ZM6.66378 15.3265L4.66378 16.3295L5.33622 17.6704L7.33622 16.6673L6.66378 15.3265ZM7.33515 9.33198L5.33515 8.33296L4.66485 9.67486L6.66485 10.6739L7.33515 9.33198ZM1.58397 15.624L4.58397 17.624L5.41603 16.3759L2.41603 14.3759L1.58397 15.624Z" fill="#141B34"/>
<path d="M5 9C5 5.68629 8.13401 3 12 3C15.866 3 19 5.68629 19 9" stroke="#141B34" stroke-width="1.5" stroke-linejoin="round"/>
<path d="M19 17V21H12" stroke="#141B34" stroke-width="1.5" stroke-linejoin="round"/>
</svg>
