<svg width="24" height="24" viewBox="0 0 24 24" fill="none" xmlns="http://www.w3.org/2000/svg">
<path d="M20.5011 11L20.2639 10.2885L19.8558 10.4245L19.7672 10.8454L20.5011 11ZM5.50106 20.5L4.76715 20.6545C4.84021 21.0016 5.1464 21.25 5.50106 21.25V20.5ZM3.50106 11L4.23497 10.8455L4.14633 10.4244L3.73808 10.2884L3.50106 11ZM22.0011 7.5H22.7511C22.7511 7.30109 22.672 7.11032 22.5314 6.96967C22.3907 6.82902 22.2 6.75 22.0011 6.75V7.5ZM2 7.5V6.75C1.58579 6.75 1.25 7.08579 1.25 7.5H2ZM22.0011 10.5L22.2382 11.2115L22.7511 11.0406V10.5H22.0011ZM2 10.5H1.25V11.0407L1.76298 11.2116L2 10.5ZM13 19.75H5.50106V21.25H13V19.75ZM6.23497 20.3455L4.23497 10.8455L2.76715 11.1545L4.76715 20.6545L6.23497 20.3455ZM22.0011 6.75H11.0011V8.25H22.0011V6.75ZM7.5 6.75H2V8.25H7.5V6.75ZM21.2511 7.5V10.5H22.7511V7.5H21.2511ZM21.7639 9.78849L20.2639 10.2885L20.7382 11.7115L22.2382 11.2115L21.7639 9.78849ZM1.25 7.5V10.5H2.75V7.5H1.25ZM1.76298 11.2116L3.26404 11.7116L3.73808 10.2884L2.23702 9.78844L1.76298 11.2116ZM19.7672 10.8454L19.4512 12.3454L20.919 12.6546L21.235 11.1546L19.7672 10.8454Z" fill="#141B34"/>
<path d="M6.5 10.5L10 2.5M15 2.5L17.5 7.5" stroke="#141B34" stroke-width="1.5" stroke-linejoin="round"/>
<path d="M15 18H22M18.5 21.5L18.5 14.5" stroke="#141B34" stroke-width="1.5" stroke-linejoin="round"/>
</svg>
