<svg width="24" height="24" viewBox="0 0 24 24" fill="none" xmlns="http://www.w3.org/2000/svg">
<path d="M7 2.50001V1.75001H6.42183L6.27469 2.30914L7 2.50001ZM18 2.50001L18.7339 2.3455C18.6608 1.99845 18.3547 1.75001 18 1.75001V2.50001ZM22 21.5V22.25C22.226 22.25 22.44 22.1481 22.5824 21.9726C22.7248 21.797 22.7805 21.5667 22.7339 21.3455L22 21.5ZM12 21.5L11.2747 21.6909L11.4218 22.25H12V21.5ZM1.27469 21.3091L1.08382 22.0344L2.53444 22.4162L2.72531 21.6909L1.27469 21.3091ZM7 3.25001H18V1.75001H7V3.25001ZM17.2661 2.65452L21.2661 21.6545L22.7339 21.3455L18.7339 2.3455L17.2661 2.65452ZM22 20.75H12V22.25H22V20.75ZM12.7253 21.3091L7.72531 2.30914L6.27469 2.69088L11.2747 21.6909L12.7253 21.3091ZM6.27469 2.30914L1.27469 21.3091L2.72531 21.6909L7.72531 2.69088L6.27469 2.30914Z" fill="#141B34"/>
<path d="M3.5 16H10.5" stroke="#141B34" stroke-width="1.5" stroke-linejoin="round"/>
</svg>
