<svg width="24" height="24" viewBox="0 0 24 24" fill="none" xmlns="http://www.w3.org/2000/svg">
<path d="M20.5011 10.5L20.2639 9.78849L19.8558 9.92451L19.7672 10.3454L20.5011 10.5ZM5.50106 20L4.76715 20.1545C4.84021 20.5016 5.1464 20.75 5.50106 20.75V20ZM3.50106 10.5L4.23497 10.3455L4.14633 9.92442L3.73808 9.78844L3.50106 10.5ZM22.0011 7H22.7511C22.7511 6.80109 22.672 6.61032 22.5314 6.46967C22.3907 6.32902 22.2 6.25 22.0011 6.25V7ZM2 7V6.25C1.58579 6.25 1.25 6.58579 1.25 7H2ZM22.0011 10L22.2382 10.7115L22.7511 10.5406V10H22.0011ZM2 10H1.25V10.5407L1.76298 10.7116L2 10ZM11 19.25H5.50106V20.75H11V19.25ZM6.23497 19.8455L4.23497 10.3455L2.76715 10.6545L4.76715 20.1545L6.23497 19.8455ZM22.0011 6.25H11.0011V7.75H22.0011V6.25ZM7.5 6.25H2V7.75H7.5V6.25ZM21.2511 7V10H22.7511V7H21.2511ZM21.7639 9.28849L20.2639 9.78849L20.7382 11.2115L22.2382 10.7115L21.7639 9.28849ZM1.25 7V10H2.75V7H1.25ZM1.76298 10.7116L3.26404 11.2116L3.73808 9.78844L2.23702 9.28844L1.76298 10.7116ZM19.7672 10.3454L19.4512 11.8454L20.919 12.1546L21.235 10.6546L19.7672 10.3454Z" fill="#141B34"/>
<path d="M6.5 10L10 2M15 2L17.5 7" stroke="#141B34" stroke-width="1.5" stroke-linejoin="round"/>
<path d="M20.7431 15.2896C19.1465 14.457 18 15.6843 18 15.6843C18 15.6843 16.8535 14.457 15.2568 15.2896C13.323 16.298 13.1841 20.2469 18 22C22.816 20.2469 22.677 16.298 20.7431 15.2896Z" stroke="#141B34" stroke-width="1.5" stroke-linecap="round"/>
</svg>
