<svg width="24" height="24" viewBox="0 0 24 24" fill="none" xmlns="http://www.w3.org/2000/svg">
<path d="M2 22L1.25754 21.8939C1.22679 22.1092 1.29096 22.3272 1.43341 22.4914C1.57586 22.6557 1.78258 22.75 2 22.75V22ZM22 22V22.75C22.2174 22.75 22.4241 22.6557 22.5666 22.4914C22.709 22.3272 22.7732 22.1092 22.7425 21.8939L22 22ZM20 8L20.7425 7.89393L20.6505 7.25H20V8ZM4 8V7.25H3.34953L3.25754 7.89393L4 8ZM2 22.75H22V21.25H2V22.75ZM22.7425 21.8939L20.7425 7.89393L19.2575 8.10607L21.2575 22.1061L22.7425 21.8939ZM20 7.25H4V8.75H20V7.25ZM3.25754 7.89393L1.25754 21.8939L2.74246 22.1061L4.74246 8.10607L3.25754 7.89393Z" fill="#141B34"/>
<path d="M7.5 8V6.5C7.5 4.01472 9.51472 2 12 2C14.4853 2 16.5 4.01472 16.5 6.5V8" stroke="#141B34" stroke-width="1.5"/>
<path d="M15 11C15 12.5 13.5657 13.5 12 13.5C10.4343 13.5 9 12.5 9 11" stroke="#141B34" stroke-width="1.5"/>
</svg>
