<svg width="24" height="24" viewBox="0 0 24 24" fill="none" xmlns="http://www.w3.org/2000/svg">
<path d="M3 7.5V6.75C2.7788 6.75 2.56889 6.84764 2.42638 7.01682C2.28388 7.186 2.22332 7.40945 2.2609 7.62743L3 7.5ZM5.5 22L4.7609 22.1274L4.86824 22.75H5.5V22ZM22 7.5L22.7391 7.62743C22.7767 7.40945 22.7161 7.186 22.5736 7.01682C22.4311 6.84764 22.2212 6.75 22 6.75V7.5ZM2.2609 7.62743L4.7609 22.1274L6.23909 21.8726L3.7391 7.37257L2.2609 7.62743ZM5.5 22.75H12V21.25H5.5V22.75ZM3 8.25H22V6.75H3V8.25ZM21.2609 7.37257L20.1402 13.8726L21.6184 14.1274L22.7391 7.62743L21.2609 7.37257Z" fill="#141B34"/>
<path d="M18 7.5C18 4.46243 15.5376 2 12.5 2C9.46243 2 7 4.46243 7 7.5" stroke="#141B34" stroke-width="1.5"/>
<path d="M5 17.5H12" stroke="#141B34" stroke-width="1.5"/>
<path d="M14 20L15.75 22L21 17" stroke="#141B34" stroke-width="1.5"/>
</svg>
