<svg width="24" height="24" viewBox="0 0 24 24" fill="none" xmlns="http://www.w3.org/2000/svg">
<path d="M14 4.5C14.3755 4.16667 14.6963 4 15.0661 4C15.7642 4 16.2877 4.59409 17.3346 5.78228L19.9094 8.70448C21.3017 10.2847 21.9978 11.0747 21.9978 12C21.9978 12.9253 21.3017 13.7153 19.9094 15.2955L17.3346 18.2177C16.2877 19.4059 15.7642 20 15.0661 20C14.6963 20 14.3755 19.8333 14 19.5" stroke="#141B34" stroke-width="1.5" stroke-linecap="round"/>
<path d="M7 5.4398C7.86196 4.47993 8.35392 4 8.98862 4C9.69478 4 10.2243 4.59409 11.2832 5.78228L13.8875 8.70448C15.2959 10.2847 16 11.0747 16 12C16 12.9253 15.2959 13.7153 13.8876 15.2955L11.2832 18.2177C10.2243 19.4059 9.69478 20 8.98862 20C8.35392 20 7.86196 19.5201 7 18.5602" stroke="#141B34" stroke-width="1.5" stroke-linecap="round"/>
<path opacity="0.4" d="M2 12H9" stroke="#141B34" stroke-width="1.5" stroke-linecap="round"/>
</svg>
