<svg width="24" height="24" viewBox="0 0 24 24" fill="none" xmlns="http://www.w3.org/2000/svg">
<path d="M20.5 22V22.75C20.9142 22.75 21.25 22.4142 21.25 22H20.5ZM3.5 22H2.75C2.75 22.4142 3.08579 22.75 3.5 22.75V22ZM20.5 2H21.25C21.25 1.58579 20.9142 1.25 20.5 1.25V2ZM10.5 2V1.25H10.1893L9.96967 1.46967L10.5 2ZM3.5 9L2.96967 8.46967L2.75 8.68934V9H3.5ZM10.5 9V9.75H11.25V9H10.5ZM20.5 21.25H3.5V22.75H20.5V21.25ZM19.75 2V22H21.25V2H19.75ZM20.5 1.25H10.5V2.75H20.5V1.25ZM2.75 9V22H4.25V9H2.75ZM9.96967 1.46967L2.96967 8.46967L4.03033 9.53033L11.0303 2.53033L9.96967 1.46967ZM9.75 2V9H11.25V2H9.75ZM10.5 8.25H3.5V9.75H10.5V8.25Z" fill="#141B34"/>
<path d="M16 17H8" stroke="#141B34" stroke-width="1.5" stroke-linejoin="round"/>
<path d="M16 13H12" stroke="#141B34" stroke-width="1.5" stroke-linejoin="round"/>
</svg>
