<svg width="24" height="24" viewBox="0 0 24 24" fill="none" xmlns="http://www.w3.org/2000/svg">
<path d="M2 2L22 22" stroke="#141B34" stroke-width="1.5"/>
<path d="M2.00049 21H1.25049C1.25049 21.4142 1.58627 21.75 2.00049 21.75V21ZM12.0005 7L11.4005 7.45L11.6255 7.75H12.0005V7ZM22.0005 7H22.7505C22.7505 6.58579 22.4147 6.25 22.0005 6.25V7ZM9.00049 3.00001L9.60049 2.55001L9.37549 2.25001H9.00049V3.00001ZM2.00049 3L2.00049 2.25C1.80158 2.25 1.61081 2.32902 1.47016 2.46967C1.32951 2.61032 1.25049 2.80109 1.25049 3L2.00049 3ZM12.0005 7.75H22.0005V6.25H12.0005V7.75ZM8.40049 3.45001L11.4005 7.45L12.6005 6.55L9.60049 2.55001L8.40049 3.45001ZM2.75049 21V3H1.25049V21H2.75049ZM9.00049 2.25001H6.50049V3.75001H9.00049V2.25001ZM21.2505 7V18H22.7505V7H21.2505ZM21.0005 20.25H2.00049V21.75H21.0005V20.25ZM3.00053 2.25L2.00049 2.25L2.00049 3.75L3.00053 3.75L3.00053 2.25Z" fill="#141B34"/>
</svg>
