<svg width="24" height="24" viewBox="0 0 24 24" fill="none" xmlns="http://www.w3.org/2000/svg">
<path d="M2 20.5H1.25C1.25 20.9142 1.58579 21.25 2 21.25V20.5ZM22 6.5H22.75C22.75 6.08579 22.4142 5.75 22 5.75V6.5ZM9 2.50001L9.6 2.05001L9.375 1.75001L9 1.75001L9 2.50001ZM2 2.5L2 1.75C1.80109 1.75 1.61032 1.82902 1.46967 1.96967C1.32902 2.11032 1.25 2.30109 1.25 2.5H2ZM12 19.75H2V21.25H12V19.75ZM7 7.25H22V5.75H7V7.25ZM8.4 2.95001L11.4 6.95L12.6 6.05L9.6 2.05001L8.4 2.95001ZM2.75 20.5V2.5H1.25V20.5H2.75ZM9 1.75001L2 1.75L2 3.25L9 3.25001L9 1.75001ZM21.25 6.5V12.5H22.75V6.5H21.25Z" fill="#141B34"/>
<path d="M18 21.5L18 13.5M18 21.5L15 18.5M18 21.5L21 18.5" stroke="#141B34" stroke-width="1.5"/>
</svg>
