<svg width="24" height="24" viewBox="0 0 24 24" fill="none" xmlns="http://www.w3.org/2000/svg">
<path d="M21 22V22.75C21.4142 22.75 21.75 22.4142 21.75 22H21ZM3 22H2.25C2.25 22.4142 2.58579 22.75 3 22.75V22ZM21 9.5H21.75C21.75 9.08579 21.4142 8.75 21 8.75V9.5ZM9 6L9.56944 5.51191L9.34495 5.25H9V6ZM3 6V5.25C2.58579 5.25 2.25 5.58579 2.25 6H3ZM21 21.25H3V22.75H21V21.25ZM7.5 10.25H21V8.75H7.5V10.25ZM8.43056 6.48809L11.4306 9.98809L12.5694 9.01191L9.56944 5.51191L8.43056 6.48809ZM3.75 22V6H2.25V22H3.75ZM9 5.25H3V6.75H9V5.25ZM20.25 9.5V22H21.75V9.5H20.25Z" fill="#141B34"/>
<path d="M14 5.5L13.4306 5.98809C13.573 6.15433 13.7811 6.25 14 6.25V5.5ZM21 6.25H21.75V4.75H21V6.25ZM11 2L11.5694 1.51191L11.345 1.25H11V2ZM3 1.25H2.25V2.75H3V1.25ZM14 6.25H21V4.75H14V6.25ZM10.4306 2.48809L13.4306 5.98809L14.5694 5.01191L11.5694 1.51191L10.4306 2.48809ZM11 1.25H3V2.75H11V1.25Z" fill="#141B34"/>
</svg>
