<svg width="24" height="24" viewBox="0 0 24 24" fill="none" xmlns="http://www.w3.org/2000/svg">
<path d="M12.5 18H11.75V18.75H12.5V18ZM12.5 13V12.25H11.75V13H12.5ZM17.5 13V12.25H16.75V13H17.5ZM13.25 18V13H11.75V18H13.25ZM14.75 15.5C14.75 16.5184 13.9944 17.25 13.1741 17.25V18.75C14.923 18.75 16.25 17.243 16.25 15.5H14.75ZM13.1741 13.75C13.9944 13.75 14.75 14.4816 14.75 15.5H16.25C16.25 13.757 14.923 12.25 13.1741 12.25V13.75ZM7.75 18.5V15.5H6.25V18.5H7.75ZM7.75 15.5V12.5H6.25V15.5H7.75ZM9.25 12.5V15.5H10.75V12.5H9.25ZM9.25 15.5V18.5H10.75V15.5H9.25ZM7 16.25H10V14.75H7V16.25ZM18.25 18.5V16H16.75V18.5H18.25ZM18.25 16V13H16.75V16H18.25ZM17.5 13.75H19.7786V12.25H17.5V13.75ZM19.7786 15.25H17.5V16.75H19.7786V15.25ZM20.25 14.5C20.25 14.7525 20.1662 14.9575 20.0607 15.0871C19.9564 15.2151 19.8526 15.25 19.7786 15.25V16.75C21.004 16.75 21.75 15.5913 21.75 14.5H20.25ZM19.7786 13.75C19.8526 13.75 19.9564 13.7849 20.0607 13.9129C20.1662 14.0425 20.25 14.2475 20.25 14.5H21.75C21.75 13.4087 21.004 12.25 19.7786 12.25V13.75ZM19.068 16.2399L19.9119 18.7399L21.3331 18.2601L20.4892 15.7601L19.068 16.2399ZM13.1741 12.25H12.5V13.75H13.1741V12.25ZM12.5 18.75H13.1741V17.25H12.5V18.75Z" fill="#141B34"/>
<path d="M3 22H2.25C2.25 22.4142 2.58579 22.75 3 22.75V22ZM20 2H20.75C20.75 1.58579 20.4142 1.25 20 1.25V2ZM10 2V1.25H9.68934L9.46967 1.46967L10 2ZM3 9L2.46967 8.46967L2.25 8.68934V9H3ZM10 9V9.75H10.75V9H10ZM20 21.25H3V22.75H20V21.25ZM19.25 2V10H20.75V2H19.25ZM20 1.25L10 1.25V2.75L20 2.75V1.25ZM2.25 9L2.25 22H3.75L3.75 9H2.25ZM9.46967 1.46967L2.46967 8.46967L3.53033 9.53033L10.5303 2.53033L9.46967 1.46967ZM9.25 2L9.25 9H10.75L10.75 2L9.25 2ZM10 8.25L3 8.25L3 9.75L10 9.75V8.25Z" fill="#141B34"/>
</svg>
