<svg width="24" height="24" viewBox="0 0 24 24" fill="none" xmlns="http://www.w3.org/2000/svg">
<path d="M18 15.5H17.25C17.25 15.6989 17.329 15.8897 17.4697 16.0303C17.6103 16.171 17.8011 16.25 18 16.25L18 15.5ZM13 13L13 12.25L12.25 12.25V13H13ZM14.7647 13L14.7647 12.25H14.7647L14.7647 13ZM14.7647 15.5L14.7647 14.75H14.7647L14.7647 15.5ZM7 13L7.56443 12.5061C7.35868 12.271 7.0287 12.188 6.7362 12.2979C6.44371 12.4078 6.25 12.6876 6.25 13H7ZM10.5 13H11.25C11.25 12.6875 11.0563 12.4078 10.7638 12.2979C10.4713 12.188 10.1413 12.271 9.93557 12.5061L10.5 13ZM8.75 15L8.18557 15.4939L8.75 16.139L9.31443 15.4939L8.75 15ZM20.25 12.5V15.5H21.75V12.5H20.25ZM20.25 15.5V18H21.75V15.5H20.25ZM17.25 12.5V15.5H18.75V12.5H17.25ZM18 16.25L21 16.25L21 14.75L18 14.75L18 16.25ZM13 13.75L14.7647 13.75L14.7647 12.25L13 12.25L13 13.75ZM13.75 18V15.5H12.25V18H13.75ZM13.75 15.5V13H12.25V15.5H13.75ZM14.7647 14.75L13 14.75L13 16.25L14.7647 16.25L14.7647 14.75ZM7.75 18V13H6.25V18H7.75ZM9.75 13V18H11.25V13H9.75ZM14.7647 16.25C15.8695 16.25 16.75 15.3462 16.75 14.25H15.25C15.25 14.5345 15.0244 14.75 14.7647 14.75L14.7647 16.25ZM14.7647 13.75C15.0244 13.75 15.25 13.9655 15.25 14.25H16.75C16.75 13.1538 15.8695 12.25 14.7647 12.25L14.7647 13.75ZM6.43557 13.4939L8.18557 15.4939L9.31443 14.5061L7.56443 12.5061L6.43557 13.4939ZM9.31443 15.4939L11.0644 13.4939L9.93557 12.5061L8.18557 14.5061L9.31443 15.4939Z" fill="#141B34"/>
<path d="M3 22H2.25C2.25 22.4142 2.58579 22.75 3 22.75V22ZM20 2H20.75C20.75 1.58579 20.4142 1.25 20 1.25V2ZM10 2V1.25H9.68934L9.46967 1.46967L10 2ZM3 9L2.46967 8.46967L2.25 8.68934V9H3ZM10 9V9.75H10.75V9H10ZM20 21.25H3V22.75H20V21.25ZM19.25 2V10H20.75V2H19.25ZM20 1.25L10 1.25V2.75L20 2.75V1.25ZM2.25 9L2.25 22H3.75L3.75 9H2.25ZM9.46967 1.46967L2.46967 8.46967L3.53033 9.53033L10.5303 2.53033L9.46967 1.46967ZM9.25 2L9.25 9H10.75L10.75 2L9.25 2ZM10 8.25L3 8.25L3 9.75L10 9.75V8.25Z" fill="#141B34"/>
</svg>
