<svg width="24" height="24" viewBox="0 0 24 24" fill="none" xmlns="http://www.w3.org/2000/svg">
<path d="M18.1176 13V12.25H17.3676V13H18.1176ZM10.2941 13L10.9204 13.4126C11.0722 13.1823 11.0852 12.8872 10.9544 12.6443C10.8236 12.4015 10.57 12.25 10.2941 12.25V13ZM7 18L6.37371 17.5874C6.22194 17.8177 6.20888 18.1128 6.33971 18.3557C6.47054 18.5986 6.72414 18.75 7 18.75V18ZM18.1176 13.75H19.8021V12.25H18.1176V13.75ZM18.8676 18.5V15.5H17.3676V18.5H18.8676ZM18.8676 15.5V13H17.3676V15.5H18.8676ZM19.8021 14.75H18.1176V16.25H19.8021V14.75ZM20.25 14.25C20.25 14.5566 20.0197 14.75 19.8021 14.75V16.25C20.9077 16.25 21.75 15.3241 21.75 14.25H20.25ZM19.8021 13.75C20.0197 13.75 20.25 13.9434 20.25 14.25H21.75C21.75 13.1759 20.9077 12.25 19.8021 12.25V13.75ZM15.6471 17.25H14V18.75H15.6471V17.25ZM14 17.25H12.3529V18.75H14V17.25ZM12.3529 13.75H14V12.25H12.3529V13.75ZM14 13.75H15.6471V12.25H14V13.75ZM13.25 13V18H14.75V13H13.25ZM6.5 13.75H10.2941V12.25H6.5V13.75ZM11 17.25H7V18.75H11V17.25ZM9.66782 12.5874L6.37371 17.5874L7.62629 18.4126L10.9204 13.4126L9.66782 12.5874Z" fill="#141B34"/>
<path d="M3 22H2.25C2.25 22.4142 2.58579 22.75 3 22.75V22ZM20 2H20.75C20.75 1.58579 20.4142 1.25 20 1.25V2ZM10 2V1.25H9.68934L9.46967 1.46967L10 2ZM3 9L2.46967 8.46967L2.25 8.68934V9H3ZM10 9V9.75H10.75V9H10ZM20 21.25H3V22.75H20V21.25ZM19.25 2V10H20.75V2H19.25ZM20 1.25L10 1.25V2.75L20 2.75V1.25ZM2.25 9L2.25 22H3.75L3.75 9H2.25ZM9.46967 1.46967L2.46967 8.46967L3.53033 9.53033L10.5303 2.53033L9.46967 1.46967ZM9.25 2L9.25 9H10.75L10.75 2L9.25 2ZM10 8.25L3 8.25L3 9.75L10 9.75V8.25Z" fill="#141B34"/>
</svg>
