<svg width="24" height="24" viewBox="0 0 24 24" fill="none" xmlns="http://www.w3.org/2000/svg">
<path fill-rule="evenodd" clip-rule="evenodd" d="M5.21875 19.25L7.64985 19.25C8.27969 20.1601 9.79612 21 10.9954 21L13.0059 21C14.2052 21 16.1416 20.1601 16.8416 19.25L18.7826 19.25C17.8085 21.5195 15.5299 23 13.0059 23H10.9954C8.47138 23 6.19284 21.5195 5.21875 19.25ZM5.21875 6.75C6.19284 4.48052 8.47138 3 10.9954 3H11.0006V2C11.0006 1.44772 11.4484 1 12.0006 1C12.5529 1 13.0006 1.44772 13.0006 2V3H13.0059C15.5299 3 17.8085 4.48052 18.7826 6.75H16.3514C15.7216 5.83992 14.2052 5 13.0059 5H12.0006H10.9954C9.79612 5 8.2797 5.83992 7.64985 6.75H5.21875Z" fill="#141B34"/>
<path opacity="0.4" fill-rule="evenodd" clip-rule="evenodd" d="M22.8942 10.053C22.6472 9.55903 22.0465 9.3588 21.5526 9.60579L20.5526 10.1058C20.0586 10.3528 19.8584 10.9535 20.1054 11.4474C20.3523 11.9414 20.953 12.1416 21.447 11.8946L22.447 11.3946C22.941 11.1477 23.1412 10.547 22.8942 10.053ZM20.1054 14.553C19.8584 15.047 20.0586 15.6477 20.5526 15.8946L21.5526 16.3946C22.0465 16.6416 22.6472 16.4414 22.8942 15.9474C23.1412 15.4535 22.941 14.8528 22.447 14.6058L21.447 14.1058C20.953 13.8588 20.3523 14.059 20.1054 14.553Z" fill="#141B34"/>
<path opacity="0.4" fill-rule="evenodd" clip-rule="evenodd" d="M1.10579 10.053C1.35278 9.55903 1.95345 9.3588 2.44743 9.60579L3.44743 10.1058C3.94141 10.3528 4.14164 10.9535 3.89465 11.4474C3.64766 11.9414 3.04698 12.1416 2.55301 11.8946L1.55301 11.3946C1.05903 11.1477 0.858803 10.547 1.10579 10.053ZM3.89465 14.553C4.14164 15.047 3.94141 15.6477 3.44743 15.8946L2.44743 16.3946C1.95345 16.6416 1.35278 16.4414 1.10579 15.9474C0.858803 15.4535 1.05903 14.8528 1.55301 14.6058L2.55301 14.1058C3.04698 13.8588 3.64766 14.059 3.89465 14.553Z" fill="#141B34"/>
<path opacity="0.4" d="M4.30711 7.21299C4.4232 6.93273 4.69668 6.75 5.00002 6.75H19C19.3034 6.75 19.5768 6.93273 19.6929 7.21299C19.809 7.49324 19.7449 7.81583 19.5304 8.03033L18.75 8.81066V17.1893L19.5304 17.9697C19.7449 18.1842 19.809 18.5068 19.6929 18.787C19.5768 19.0673 19.3034 19.25 19 19.25L5.00002 19.25C4.69667 19.25 4.4232 19.0673 4.30711 18.787C4.19103 18.5068 4.25519 18.1842 4.46969 17.9697L5.25002 17.1893V8.81066L4.46969 8.03033C4.25519 7.81583 4.19103 7.49324 4.30711 7.21299Z" fill="#141B34"/>
<path fill-rule="evenodd" clip-rule="evenodd" d="M12 11C12.5523 11 13 11.4477 13 12V14C13 14.5523 12.5523 15 12 15C11.4477 15 11 14.5523 11 14V12C11 11.4477 11.4477 11 12 11Z" fill="#141B34"/>
</svg>
