<svg width="24" height="24" viewBox="0 0 24 24" fill="none" xmlns="http://www.w3.org/2000/svg">
<path d="M3.88733 3.89837C2.49609 5.28961 2.49609 7.52878 2.49609 12.0071C2.49609 16.4855 2.49609 18.7246 3.88734 20.1159C4.94091 21.1695 6.36577 21.4223 8.99609 21.4844L8.99609 2.52987C6.37266 2.59241 4.93939 2.84631 3.88733 3.89837Z" fill="white"/>
<path d="M20.1049 20.1166C21.4961 18.7253 21.4961 16.4862 21.4961 12.0078C21.4961 7.52947 21.4961 5.2903 20.1048 3.89905C18.7136 2.50781 16.4744 2.50781 11.9961 2.50781L8.99609 2.50781L8.99609 21.4851C9.86701 21.5078 10.8594 21.5078 11.9961 21.5078C16.4744 21.5078 18.7136 21.5078 20.1049 20.1166Z" fill="#D4D7E0"/>
<path d="M20.1088 20.1088C18.7175 21.5 16.4783 21.5 12 21.5C7.52166 21.5 5.28249 21.5 3.89124 20.1088C2.5 18.7175 2.5 16.4783 2.5 12C2.5 7.52166 2.5 5.28249 3.89124 3.89124C5.28248 2.5 7.52166 2.5 12 2.5C16.4783 2.5 18.7175 2.5 20.1088 3.89124C21.5 5.28249 21.5 7.52166 21.5 12C21.5 16.4783 21.5 18.7175 20.1088 20.1088Z" stroke="#141B34" stroke-width="1.5" stroke-linecap="round" stroke-linejoin="round"/>
<path d="M9 21.5L9 2.5" stroke="#141B34" stroke-width="1.5"/>
<path d="M21.5 8L9 8" stroke="#141B34" stroke-width="1.5"/>
<path d="M21.5 16L9 16" stroke="#141B34" stroke-width="1.5"/>
</svg>
