<svg width="24" height="24" viewBox="0 0 24 24" fill="none" xmlns="http://www.w3.org/2000/svg">
<path fill-rule="evenodd" clip-rule="evenodd" d="M17.886 16.3537C18.6416 16.7522 19.4937 16.7516 20.6757 16.7507L20.6867 16.7507L21.2166 16.7375C22.0114 16.6383 22.6374 16.0123 22.7365 15.2176C22.7502 15.1077 22.7501 14.9883 22.75 14.8733L22.75 9.19003C22.7501 8.75721 22.7501 8.36038 22.7067 8.03756C22.6589 7.68208 22.5465 7.30636 22.2374 6.99733C21.9284 6.68831 21.5527 6.57586 21.1972 6.52807C20.8744 6.48467 20.4776 6.48472 20.0448 6.48477L19.4832 6.48477C18.7358 6.48477 18.1707 6.10053 17.4333 5.35579C16.8165 4.7329 15.887 4.34407 15.0274 4.29155C14.3363 4.24819 13.4014 4.18953 12.5853 4.41373C12.0914 4.54941 11.6813 4.79621 11.3304 5.08151C11.3303 5.08155 11.3303 5.08156 11.3302 5.08154C11.3301 5.08151 11.3301 5.08152 11.33 5.08156C10.9616 5.38121 10.6585 5.7233 10.3923 6.02372L8.88236 7.7237C8.03921 8.6729 8.03922 10.1792 8.88236 11.1284C9.64174 11.9833 10.8785 12.1362 11.8021 11.443C11.93 11.347 12.1075 11.1974 12.2217 11.1006C12.3213 11.016 12.4132 10.9381 12.5068 10.8632C12.6757 10.7024 13.0973 10.4939 13.4326 10.9468L15.7713 14.1063L15.7713 14.1063L15.7713 14.1063C16.1861 14.6667 16.5245 15.1238 16.8338 15.4768C17.1556 15.844 17.4804 16.1398 17.886 16.3537ZM9.32196 4.96971C9.46619 4.80644 9.53831 4.72481 9.55053 4.63469C9.56293 4.54329 9.51993 4.42884 9.45041 4.36823C9.38186 4.30846 9.29318 4.29702 9.11582 4.27413C8.02855 4.1338 6.95531 4.61242 6.21764 5.53153C5.82524 6.02045 5.33292 6.25093 4.86503 6.25093L3.95526 6.25093H3.95524C3.52243 6.25087 3.12561 6.25083 2.8028 6.29423C2.44732 6.34202 2.07159 6.45447 1.76257 6.76349C1.45355 7.07252 1.3411 7.44824 1.29331 7.80372C1.24991 8.12653 1.24995 8.52336 1.25 8.95618L1.25001 14.3742C1.24999 14.6407 1.24997 14.8854 1.26723 15.0897C1.28585 15.3102 1.32854 15.5511 1.45385 15.7874C1.61787 16.0968 1.87093 16.3499 2.18031 16.5139C2.41668 16.6392 2.65759 16.6819 2.87807 16.7005C3.08239 16.7178 3.32708 16.7178 3.59351 16.7177H3.59354L3.62069 16.7177C4.82104 16.7177 5.34439 16.7433 5.76986 16.8632C6.19144 16.9912 6.5745 17.2303 7.57343 17.8741C8.48493 18.4615 9.26195 18.9623 9.90189 19.2766C10.5682 19.6038 11.1987 19.7931 11.8946 19.7429C12.5879 19.6601 13.3495 19.3371 13.9379 18.8888C14.5023 18.4588 15.1306 17.8514 15.9048 17.1029C16.0205 16.9911 16.0198 16.8057 15.9091 16.6889C15.8388 16.6148 15.7711 16.5401 15.7057 16.4654C15.3552 16.0654 14.9856 15.5661 14.5947 15.038L14.5947 15.0379L14.5946 15.0379L13.1379 13.0699C12.9756 12.8507 12.8945 12.7411 12.7861 12.7164C12.6777 12.6917 12.5414 12.7637 12.2689 12.9077C10.7599 13.7052 8.8866 13.3919 7.76089 12.1245C6.41305 10.6071 6.41303 8.245 7.76086 6.72758L9.32196 4.96971Z" fill="#141B34"/>
</svg>
