<svg width="24" height="24" viewBox="0 0 24 24" fill="none" xmlns="http://www.w3.org/2000/svg">
<path fill-rule="evenodd" clip-rule="evenodd" d="M20.1139 7.7841C19.6989 7.36906 19.0974 7.11535 17.8767 6.99528L18.0724 5.00488C19.4685 5.1422 20.6285 5.47022 21.5281 6.36988C22.3344 7.17618 22.6815 8.19156 22.8438 9.39866C23.0001 10.5616 23.0001 12.0404 23.0001 13.8758V14.0222C23.0001 15.8577 23.0001 17.3364 22.8438 18.4994C22.6815 19.7065 22.3344 20.7218 21.5281 21.5281C20.7218 22.3344 19.7065 22.6815 18.4994 22.8438C17.3364 23.0001 15.8577 23.0001 14.0222 23.0001H13.8758C12.0404 23.0001 10.5616 23.0001 9.39866 22.8438C8.19156 22.6815 7.17618 22.3344 6.36988 21.5281C5.47022 20.6285 5.1422 19.4685 5.00488 18.0724L6.99528 17.8767C7.11535 19.0974 7.36906 19.6989 7.7841 20.1139C8.15686 20.4867 8.67983 20.7291 9.66515 20.8616C10.6792 20.998 12.0231 21.0001 13.949 21.0001C15.8749 21.0001 17.2188 20.998 18.2329 20.8616C19.2182 20.7291 19.7412 20.4867 20.1139 20.1139C20.4867 19.7412 20.7291 19.2182 20.8616 18.2329C20.998 17.2188 21.0001 15.8749 21.0001 13.949C21.0001 12.0231 20.998 10.6792 20.8616 9.66515C20.7291 8.67983 20.4867 8.15686 20.1139 7.7841Z" fill="#141B34"/>
<path fill-rule="evenodd" clip-rule="evenodd" d="M9.92684 1H10.0732C11.8966 0.999973 13.3664 0.999951 14.5223 1.15537C15.7225 1.31672 16.733 1.66191 17.5355 2.46447C18.3381 3.26702 18.6833 4.27752 18.8446 5.47767C19.0001 6.63362 19 8.10336 19 9.9268V10.0732C19 11.8966 19.0001 13.3664 18.8446 14.5223C18.6833 15.7225 18.3381 16.733 17.5355 17.5355C16.733 18.3381 15.7225 18.6833 14.5223 18.8446C13.3664 19.0001 11.8966 19 10.0732 19H9.9268C8.10336 19 6.63362 19.0001 5.47767 18.8446C4.27752 18.6833 3.26702 18.3381 2.46447 17.5355C1.66191 16.733 1.31672 15.7225 1.15537 14.5223C0.999951 13.3664 0.999973 11.8966 1 10.0732V9.92684C0.999973 8.10338 0.999951 6.63362 1.15537 5.47767C1.31672 4.27752 1.66191 3.26702 2.46447 2.46447C3.26702 1.66191 4.27752 1.31672 5.47767 1.15537C6.63362 0.999951 8.10338 0.999973 9.92684 1ZM5.74416 3.13753C4.76579 3.26907 4.2477 3.50966 3.87868 3.87868C3.50966 4.2477 3.26907 4.76579 3.13753 5.74416C3.00213 6.7513 3 8.08611 3 10C3 11.9139 3.00213 13.2487 3.13753 14.2558C3.26907 15.2342 3.50966 15.7523 3.87868 16.1213C4.2477 16.4903 4.76579 16.7309 5.74416 16.8625C6.7513 16.9979 8.08611 17 10 17C11.9139 17 13.2487 16.9979 14.2558 16.8625C15.2342 16.7309 15.7523 16.4903 16.1213 16.1213C16.4903 15.7523 16.7309 15.2342 16.8625 14.2558C16.9979 13.2487 17 11.9139 17 10C17 8.08611 16.9979 6.7513 16.8625 5.74416C16.7309 4.76579 16.4903 4.2477 16.1213 3.87868C15.7523 3.50966 15.2342 3.26907 14.2558 3.13753C13.2487 3.00213 11.9139 3 10 3C8.08611 3 6.7513 3.00213 5.74416 3.13753Z" fill="#141B34"/>
<path d="M18.4773 11.0947C16.9508 9.83693 15.4775 9.23821 14.0448 9.21094C12.6146 9.18372 11.3337 9.728 10.1942 10.5482C8.19093 11.9901 6.45389 14.4233 4.91043 16.5853C4.73503 16.831 4.56214 17.0732 4.39163 17.31L3.73535 18.2216L4.82887 18.4784C6.00195 18.7538 7.47426 18.7524 9.47555 18.7504C9.64647 18.7503 9.82153 18.7501 10.0003 18.7501H10.0567C11.8945 18.7501 13.3501 18.7501 14.4893 18.597C15.6618 18.4393 16.6107 18.1072 17.3591 17.3589C17.9855 16.7325 18.3245 15.9705 18.5111 15.0429C18.6931 14.1379 18.7381 13.031 18.7503 11.6803L18.7535 11.3224L18.4773 11.0947Z" fill="#141B34"/>
</svg>
