<svg width="24" height="24" viewBox="0 0 24 24" fill="none" xmlns="http://www.w3.org/2000/svg">
<path fill-rule="evenodd" clip-rule="evenodd" d="M21.2071 2.79289C21.5976 3.18342 21.5976 3.81658 21.2071 4.20711L14.2071 11.2071C13.8166 11.5976 13.1834 11.5976 12.7929 11.2071C12.4024 10.8166 12.4024 10.1834 12.7929 9.79289L19.7929 2.79289C20.1834 2.40237 20.8166 2.40237 21.2071 2.79289Z" fill="#141B34"/>
<path fill-rule="evenodd" clip-rule="evenodd" d="M11.2071 12.7929C11.5976 13.1834 11.5976 13.8166 11.2071 14.2071L4.20711 21.2071C3.81658 21.5976 3.18342 21.5976 2.79289 21.2071C2.40237 20.8166 2.40237 20.1834 2.79289 19.7929L9.79289 12.7929C10.1834 12.4024 10.8166 12.4024 11.2071 12.7929Z" fill="#141B34"/>
<path d="M20.6524 2.00692C20.9031 2.02595 21.2735 2.09924 21.5845 2.40863C21.8954 2.71794 21.9707 3.08776 21.9911 3.33821C22.0081 3.54602 21.994 3.78703 21.9824 3.98617V3.98618L21.8048 7.05778C21.7821 7.45062 21.5311 7.79362 21.1635 7.93413C20.796 8.07464 20.3802 7.98654 20.1012 7.70903L16.2939 3.92184C16.015 3.6444 15.9247 3.22921 16.0631 2.86098C16.2016 2.49274 16.543 2.23988 16.9356 2.21489L20.0047 2.01946C20.2036 2.00665 20.4445 1.99114 20.6524 2.00692Z" fill="#141B34"/>
<path d="M2.84228 16.0652C3.21053 15.9255 3.6265 16.0149 3.90477 16.2936L7.70704 20.1023C7.98533 20.3811 8.07405 20.7973 7.93365 21.1653C7.79324 21.5333 7.44986 21.7846 7.05661 21.8072L3.98239 21.9836C3.78431 21.9951 3.54425 22.009 3.33716 21.9921C3.08737 21.9716 2.71902 21.8965 2.4103 21.5873C2.10153 21.2781 2.02704 20.9095 2.00702 20.6596C1.99043 20.4525 2.00482 20.2125 2.01669 20.0145L2.19882 16.941C2.22212 16.5478 2.47404 16.2049 2.84228 16.0652Z" fill="#141B34"/>
</svg>
