<svg width="24" height="24" viewBox="0 0 24 24" fill="none" xmlns="http://www.w3.org/2000/svg">
<path fill-rule="evenodd" clip-rule="evenodd" d="M5 20C5 19.4477 5.44772 19 6 19H18C18.5523 19 19 19.4477 19 20C19 20.5523 18.5523 21 18 21H6C5.44772 21 5 20.5523 5 20Z" fill="#141B34"/>
<path fill-rule="evenodd" clip-rule="evenodd" d="M13 4C13 3.44772 12.5523 3 12 3C11.4477 3 11 3.44772 11 4V11H8.9441C8.29253 11 7.82644 11.4186 7.62734 11.8731C7.42932 12.3252 7.44359 12.9113 7.80326 13.3868L10.8589 17.4272C11.4365 18.1909 12.563 18.1909 13.1406 17.4272L16.1963 13.3868C16.5559 12.9113 16.5702 12.3252 16.3722 11.8731C16.1731 11.4186 15.707 11 15.0554 11H13V4Z" fill="#141B34"/>
</svg>
