<svg width="24" height="24" viewBox="0 0 24 24" fill="none" xmlns="http://www.w3.org/2000/svg">
<path d="M17.4087 2.17324C17.9678 2.10583 18.6876 2.01904 19.3307 2.00286C19.6707 1.99431 20.0317 2.00382 20.361 2.05934C20.6542 2.10878 21.1023 2.22176 21.4404 2.55979C21.7784 2.89783 21.8914 3.34593 21.9408 3.63916C21.9963 3.96846 22.0058 4.32945 21.9973 4.66945C21.9811 5.31256 21.8943 6.03233 21.8269 6.59135L21.8108 6.72517C21.7897 6.90175 21.764 7.11712 21.7211 7.29039L21.72 7.29455C21.6896 7.41773 21.5497 7.98421 20.9546 8.18999C20.361 8.39523 19.9029 8.03939 19.8015 7.96063L19.7995 7.95909C19.6591 7.85002 19.5069 7.69765 19.3838 7.57429L18.6119 6.80247L6.80246 18.612L7.5742 19.3837C7.69756 19.5069 7.84992 19.659 7.959 19.7995L7.96053 19.8015C8.03929 19.9028 8.39514 20.3609 8.1899 20.9545C7.98412 21.5497 7.41764 21.6896 7.29446 21.72L7.2903 21.721C7.11701 21.7639 6.90156 21.7897 6.72497 21.8108L6.59131 21.8269C6.03228 21.8943 5.31249 21.9811 4.66936 21.9972C4.32936 22.0058 3.96837 21.9963 3.63907 21.9408C3.34584 21.8913 2.89774 21.7783 2.5597 21.4403C2.22166 21.1023 2.10869 20.6542 2.05925 20.3609C2.00373 20.0316 1.99422 19.6707 2.00277 19.3307C2.01895 18.6875 2.10574 17.9677 2.17315 17.4087L2.18922 17.275C2.21032 17.0984 2.23607 16.883 2.27899 16.7097L2.28001 16.7056C2.31044 16.5824 2.45035 16.0159 3.04551 15.8101C3.63911 15.6049 4.09717 15.9607 4.19855 16.0395L4.20052 16.041C4.34098 16.1501 4.49312 16.3025 4.6163 16.4258L5.38824 17.1978L17.1977 5.38826L16.4259 4.61638C16.3025 4.49321 16.1501 4.34107 16.0411 4.20061L16.0395 4.19863C15.9608 4.09725 15.6049 3.6392 15.8102 3.0456C16.0159 2.45044 16.5824 2.31053 16.7056 2.28011L16.7098 2.27908C16.883 2.23617 17.0985 2.21042 17.2751 2.18931L17.4087 2.17324Z" fill="#141B34"/>
</svg>
