<svg width="24" height="24" viewBox="0 0 24 24" fill="none" xmlns="http://www.w3.org/2000/svg">
<path fill-rule="evenodd" clip-rule="evenodd" d="M20.8754 12.001C20.8754 11.4763 20.6071 11.0816 20.3142 10.775C20.0414 10.4894 19.6121 10.1513 19.1753 9.80732L18.1616 9.0087C17.419 8.42372 16.7975 7.93406 16.2802 7.63393C15.76 7.33206 15.1203 7.0868 14.4571 7.38045C13.7758 7.68211 13.5537 8.33423 13.4635 8.92102C13.3809 9.45824 13.3757 10.1669 13.3754 11.0002L4.12537 11.0002C3.57308 11.0002 3.12537 11.448 3.12537 12.0002C3.12537 12.5525 3.57308 13.0002 4.12537 13.0002L13.3754 13.0002C13.3757 13.8334 13.381 14.5419 13.4635 15.079C13.5537 15.6658 13.7758 16.3179 14.4571 16.6195C15.1203 16.9132 15.76 16.6679 16.2802 16.3661C16.7975 16.0659 17.419 15.5763 18.1615 14.9913L19.1753 14.1927C19.6121 13.8487 20.0414 13.5106 20.3142 13.225C20.6071 12.9184 20.8754 12.5257 20.8754 12.001Z" fill="#141B34"/>
</svg>
