<svg width="24" height="24" viewBox="0 0 24 24" fill="none" xmlns="http://www.w3.org/2000/svg">
<path fill-rule="evenodd" clip-rule="evenodd" d="M12.5 16.6C12.5 14.0595 14.5595 12 17.1 12C19.6405 12 21.7 14.0595 21.7 16.6C21.7 17.5083 21.4368 18.355 20.9824 19.0682L22.2071 20.2929C22.5976 20.6834 22.5976 21.3166 22.2071 21.7071C21.8166 22.0976 21.1834 22.0976 20.7929 21.7071L19.5682 20.4824C18.855 20.9368 18.0083 21.2 17.1 21.2C14.5595 21.2 12.5 19.1405 12.5 16.6ZM17.1 14C15.6641 14 14.5 15.1641 14.5 16.6C14.5 18.0359 15.6641 19.2 17.1 19.2C18.5359 19.2 19.7 18.0359 19.7 16.6C19.7 15.1641 18.5359 14 17.1 14Z" fill="#141B34"/>
<path fill-rule="evenodd" clip-rule="evenodd" d="M12.7828 3.61475C13.0561 3.8213 13.3306 4.0288 13.6026 4.23423C14.0748 4.59097 14.5129 4.92196 14.8236 5.23673C15.1638 5.5815 15.5001 6.05224 15.5001 6.69927C15.5001 7.34631 15.1638 7.81704 14.8236 8.16181C14.5129 8.47659 14.0748 8.80759 13.6026 9.16433C12.5721 9.94273 11.542 10.7214 10.5117 11.5L11.9833 12.6121C12.424 12.9451 12.5112 13.5722 12.1783 14.0128C11.8453 14.4534 11.2182 14.5407 10.7776 14.2077L10.0133 13.6302C9.94741 13.5804 9.853 13.6274 9.853 13.71V16.8341C9.853 17.7989 9.85559 18.4087 9.91572 18.8216C9.94437 19.0183 10.1166 18.834 10.2414 18.755C10.7079 18.4595 11.3257 18.5982 11.6212 19.0647C11.9168 19.5313 11.7781 20.1491 11.3116 20.4446C10.7401 20.8065 9.87919 21.2638 8.98839 20.8151C8.23886 20.4375 8.02145 19.6925 7.9366 19.1099C7.85286 18.5349 7.85292 17.776 7.85299 16.9104L7.853 13.5091L3.10295 17.0986C2.66232 17.4315 2.0352 17.3443 1.70223 16.9036C1.36927 16.463 1.45654 15.8359 1.89716 15.5029L7.19432 11.5L1.89716 7.4971C1.45654 7.16413 1.36927 6.53701 1.70223 6.09638C2.0352 5.65576 2.66232 5.56848 3.10295 5.90145L7.853 9.49092V6.16586C7.853 6.14034 7.853 6.11492 7.85299 6.08958C7.85292 5.22405 7.85286 4.46512 7.9366 3.89014C8.02145 3.30753 8.23886 2.56253 8.98839 2.18493C9.74117 1.80569 10.469 2.07923 10.9851 2.36183C11.493 2.6399 12.0963 3.09589 12.7828 3.61475ZM10.0133 9.3698C9.94741 9.41958 9.853 9.37259 9.853 9.29001V6.16586C9.853 5.20108 9.85559 4.59127 9.91572 4.17837C9.93122 4.07193 9.92891 4.06368 10.0246 4.11606C10.3872 4.31462 10.8719 4.67755 11.6383 5.25676L12.3442 5.79017C12.8873 6.20059 13.2046 6.44348 13.4001 6.64158C13.4553 6.69754 13.4553 6.70101 13.4001 6.75696C13.2046 6.95507 12.8873 7.19796 12.3442 7.60838L10.0133 9.3698Z" fill="#141B34"/>
</svg>
