<svg width="24" height="24" viewBox="0 0 24 24" fill="none" xmlns="http://www.w3.org/2000/svg">
<path fill-rule="evenodd" clip-rule="evenodd" d="M8.57775 18.25C8.58993 18.25 8.60227 18.25 8.61476 18.25H15.385C15.3975 18.25 15.4098 18.25 15.422 18.25C15.6406 18.2499 15.8093 18.2499 15.9744 18.2692C16.5664 18.3383 17.1223 18.5919 17.5593 18.9957C17.6813 19.1084 17.7903 19.2364 17.9298 19.4001C17.9377 19.4094 17.9457 19.4188 17.9538 19.4283L17.9642 19.4405C18.1156 19.6181 18.2443 19.7691 18.3417 19.8934C18.4359 20.0138 18.5447 20.163 18.6158 20.3333C19.0172 21.295 18.4862 22.3661 17.5082 22.6695C17.334 22.7235 17.1513 22.7372 16.9966 22.7435C16.8372 22.75 16.6367 22.75 16.3997 22.75H7.60001C7.36308 22.75 7.16257 22.75 7.00317 22.7435C6.84847 22.7372 6.66573 22.7235 6.49154 22.6695C5.51353 22.3661 4.98251 21.295 5.38394 20.3333C5.45504 20.163 5.56383 20.0138 5.65804 19.8934C5.7554 19.7691 5.88412 19.6181 6.0355 19.4405C6.03895 19.4365 6.04242 19.4324 6.0459 19.4283C6.05403 19.4188 6.06206 19.4094 6.06999 19.4C6.20946 19.2363 6.31848 19.1084 6.44046 18.9957C6.87746 18.5919 7.43338 18.3383 8.02531 18.2692C8.19042 18.2499 8.35917 18.2499 8.57775 18.25ZM8.61476 19.75C8.34265 19.75 8.26657 19.7512 8.1992 19.7591C7.91911 19.7918 7.65965 19.9114 7.45842 20.0974C7.41044 20.1417 7.36199 20.1966 7.18742 20.4014C7.02281 20.5945 6.91483 20.7214 6.8392 20.818C6.78899 20.8822 6.76942 20.9129 6.76448 20.9206C6.7221 21.0368 6.7778 21.1835 6.9284 21.2344C6.93461 21.2352 6.97158 21.241 7.0641 21.2448C7.18925 21.2499 7.35887 21.25 7.61571 21.25H16.384C16.6409 21.25 16.8105 21.2499 16.9356 21.2448C17.0282 21.241 17.0651 21.2352 17.0713 21.2344C17.2219 21.1835 17.2776 21.0368 17.2353 20.9206C17.2303 20.9129 17.2107 20.8822 17.1605 20.818C17.0849 20.7214 16.9769 20.5945 16.8123 20.4014C16.6378 20.1966 16.5893 20.1417 16.5413 20.0974C16.3401 19.9114 16.0806 19.7918 15.8005 19.7591C15.7332 19.7512 15.6571 19.75 15.385 19.75H8.61476Z" fill="#141B34"/>
<path fill-rule="evenodd" clip-rule="evenodd" d="M9.69284 1.25967C9.3479 1.22254 9.05123 1.2978 8.80283 1.39226C8.58611 1.47468 8.34623 1.59659 8.10938 1.71695C7.9994 1.7727 7.50401 2.02414 7.37792 2.10924C7.21425 2.21969 7.0357 2.37873 6.90729 2.62346C6.69192 3.03391 6.75757 3.50175 6.7857 3.70164C7.09356 6.13831 8.94604 8.43624 11.3565 9.14181C11.5088 9.18659 11.7245 9.25 11.9998 9.25C12.2752 9.25 12.4909 9.18659 12.6432 9.14181C15.0537 8.43624 16.9061 6.13831 17.214 3.70164C17.2421 3.50175 17.3078 3.03391 17.0924 2.62346C16.964 2.37873 16.7854 2.21969 16.6218 2.10924C16.4957 2.02414 16.3472 1.94889 16.2372 1.89314C16.0004 1.77278 15.4136 1.47468 15.1969 1.39226C14.9485 1.2978 14.6518 1.22254 14.3069 1.25967C13.9625 1.29673 13.6892 1.433 13.4674 1.57726C13.2732 1.70352 13.0644 1.87328 12.8574 2.04159C12.6883 2.17901 12.478 2.34923 12.3041 2.48608C12.1705 2.5912 12.1037 2.64376 11.9998 2.64376C11.896 2.64376 11.8292 2.5912 11.6956 2.48608C11.5217 2.34923 11.3114 2.17901 11.1424 2.0416C10.9353 1.87328 10.7265 1.70352 10.5323 1.57726C10.3104 1.433 10.0372 1.29673 9.69284 1.25967ZM8.77609 3.96766C8.72687 3.77867 8.70227 3.68418 8.74691 3.58694C8.79154 3.48971 8.88831 3.44234 9.08185 3.34759L9.14752 3.31544C9.31139 3.23522 9.39332 3.19511 9.4792 3.20419C9.56508 3.21326 9.63648 3.26935 9.77929 3.38153C9.93272 3.50207 10.1126 3.64421 10.2319 3.74118C10.4883 3.94962 10.7427 4.15648 10.978 4.30439C11.2454 4.4725 11.581 4.62663 11.9997 4.62663C12.4184 4.62663 12.754 4.4725 13.0214 4.30439C13.2566 4.15648 13.5111 3.94963 13.7674 3.74118L14.2188 3.38474C14.3629 3.27094 14.4349 3.21403 14.521 3.20482C14.6071 3.19561 14.6895 3.23598 14.8545 3.31672L14.9175 3.34759C15.1111 3.44234 15.2078 3.48972 15.2525 3.58702C15.2971 3.68431 15.2724 3.77875 15.2231 3.96763C14.8334 5.46037 13.5745 6.79947 12.1632 7.28411C12.0851 7.31096 12.046 7.32438 11.9959 7.32438C11.9458 7.32437 11.9068 7.31095 11.8286 7.28411C10.4178 6.79946 9.16482 5.46038 8.77609 3.96766Z" fill="#141B34"/>
<path d="M19.1102 3.99565C18.8156 3.86979 18.6684 3.80686 18.5442 3.86884C18.42 3.93081 18.3777 4.10241 18.2933 4.4456C17.9295 5.9242 17.1222 7.36999 16.0144 8.48623C15.6831 8.82015 15.5174 8.98711 15.5425 9.13859C15.5677 9.29006 15.7717 9.39118 16.1798 9.59342C16.7772 9.88942 17.351 10.2141 17.879 10.5379C18.5239 10.9335 19.1103 11.2931 19.5538 11.4957C19.9899 11.695 20.5405 11.8716 21.0924 11.6404C21.3441 11.535 21.5319 11.3561 21.6652 11.195C21.8032 11.0283 21.9198 10.8356 22.0182 10.6413C22.215 10.2526 22.375 9.78575 22.4935 9.32491C22.6128 8.86126 22.6973 8.37562 22.732 7.93979C22.7642 7.53452 22.7631 7.06863 22.6358 6.70557C22.4781 6.2558 22.0678 5.91125 21.7648 5.65701C20.9647 4.9803 20.117 4.4259 19.1102 3.99565Z" fill="#141B34"/>
<path d="M7.81929 9.59443C8.22738 9.39218 8.43142 9.29106 8.45658 9.13959C8.48173 8.98811 8.31604 8.82116 7.98467 8.48724C6.87692 7.37102 6.06958 5.92521 5.70577 4.44658C5.62132 4.10338 5.5791 3.93178 5.4549 3.86981C5.33069 3.80784 5.18343 3.87078 4.8889 3.99666C3.88236 4.42688 3.03478 4.98118 2.23484 5.65775C1.93192 5.91199 1.52158 6.25655 1.36386 6.70631C1.23654 7.06937 1.23544 7.53526 1.2677 7.94053C1.30239 8.37636 1.38691 8.862 1.50617 9.32565C1.62471 9.78649 1.78468 10.2534 1.98152 10.642C2.07993 10.8363 2.1965 11.029 2.3345 11.1957C2.46783 11.3569 2.65556 11.5357 2.90727 11.6412C3.45919 11.8723 4.00977 11.6957 4.44588 11.4965C4.88944 11.2938 5.47576 10.9342 6.12068 10.5387C6.64852 10.2149 7.22216 9.89036 7.81929 9.59443Z" fill="#141B34"/>
<path d="M5.85519 12.158C5.68459 12.2573 5.59929 12.307 5.55926 12.3866C5.51924 12.4661 5.5299 12.562 5.55122 12.7539L5.86441 15.5726C5.95384 16.3778 6.0288 17.0526 6.1584 17.5864C6.29561 18.1515 6.51457 18.654 6.95588 19.049C7.39719 19.444 7.92078 19.6061 8.49762 19.6801C9.04243 19.7499 9.72136 19.7499 10.5314 19.7499H13.4682C14.2783 19.7499 14.9572 19.7499 15.502 19.6801C16.0789 19.6061 16.6025 19.444 17.0438 19.049C17.4851 18.654 17.7041 18.1515 17.8413 17.5864C17.9709 17.0526 18.0458 16.3778 18.1353 15.5726L18.4485 12.7538C18.4699 12.5609 18.4806 12.4644 18.4404 12.3848C18.4002 12.3051 18.314 12.2552 18.1418 12.1554C17.8407 11.981 17.5284 11.7894 17.2258 11.6038C16.465 11.1372 15.62 10.6786 14.7642 10.3185C14.7035 10.2929 14.6454 10.2629 14.5904 10.2288C14.3049 10.0518 14.1622 9.96334 14.0889 9.95785C14.0157 9.95237 13.9126 9.99661 13.7063 10.0851C13.475 10.1843 13.238 10.2701 12.996 10.3409C12.8272 10.3907 12.4568 10.4998 12.0004 10.4998C11.5439 10.4998 11.1733 10.3906 11.0044 10.3408C10.7623 10.2699 10.5252 10.1842 10.2939 10.0849C10.0875 9.99628 9.98428 9.95199 9.91103 9.95749C9.83778 9.96298 9.69494 10.0516 9.40927 10.2287C9.35418 10.2629 9.29603 10.293 9.23519 10.3186C8.37958 10.6787 7.5349 11.1371 6.77424 11.6036C6.47954 11.7844 6.16244 11.9789 5.85519 12.158Z" fill="#141B34"/>
</svg>
