<svg width="24" height="24" viewBox="0 0 24 24" fill="none" xmlns="http://www.w3.org/2000/svg">
<path d="M9.22116 1.78048C9.81487 1.3604 10.5371 1.16024 11.4459 1.41374L13.8326 2.07952C13.8416 2.08204 13.8507 2.08455 13.8598 2.08707C14.1285 2.1616 14.4011 2.23724 14.6358 2.39324C14.8671 2.54694 15.0426 2.76439 15.2155 2.97847C15.2249 2.99019 15.2344 3.0019 15.2438 3.01359C17.8747 6.25901 19.6151 8.81019 21.0952 12.0621L21.1212 12.1192C21.6831 13.3537 22.1427 14.3635 22.3794 15.2444C22.6309 16.1806 22.6492 17.0314 22.2892 17.9336C21.9295 18.8352 21.3484 19.4167 20.5397 19.8673C19.7936 20.2829 18.8183 20.604 17.6513 20.9882L17.5853 21.0099C15.2203 21.7886 13.0749 21.9421 10.6691 21.1712C10.5552 21.1347 10.4983 21.1165 10.4465 21.1274C10.3947 21.1382 10.3487 21.179 10.2565 21.2606C9.06164 22.3183 7.45366 22.816 5.89028 22.8015C4.19135 22.7857 2.45151 22.164 1.26284 20.8737C1.13527 20.7352 1.06445 20.5538 1.06445 20.3655V12.9858C1.06445 12.7875 1.14294 12.5974 1.28277 12.4568C2.5458 11.1873 4.38286 10.5802 6.17081 10.5611C7.07438 10.5514 7.99414 10.6915 8.85064 10.9906C9.09943 11.0775 9.22383 11.1209 9.25061 11.2243C9.2774 11.3278 9.18121 11.4357 8.98883 11.6515C8.81563 11.8458 8.65179 12.0535 8.50138 12.2671C8.02972 12.9366 7.62684 13.7522 7.47672 14.5569C7.40076 14.9641 7.66928 15.3558 8.07647 15.4317C8.48366 15.5077 8.87533 15.2392 8.95128 14.832C9.05082 14.2984 9.33987 13.6814 9.72768 13.1309C9.99286 12.7544 10.2756 12.4494 10.5287 12.2389C10.6158 12.1666 10.6593 12.1304 10.7768 12.0757C10.8944 12.021 10.9654 12.0082 11.1075 11.9827C11.9594 11.8296 12.7693 11.8725 13.5199 12.0612C13.6645 12.0975 13.7368 12.1157 13.7764 12.0799C13.8161 12.0441 13.8055 11.9713 13.7842 11.8258C13.729 11.4468 13.6911 11.0646 13.6532 10.6827C13.6261 10.4099 13.5991 10.1374 13.5657 9.86622C13.5522 9.75596 13.5276 9.58383 13.5087 9.45432C13.4918 9.33844 13.4512 9.22687 13.3828 9.13182C13.2694 8.9743 13.1508 8.82045 13.0323 8.66667C13.0046 8.63072 12.9769 8.59477 12.9493 8.55877C12.8771 8.46429 12.8064 8.36961 12.7358 8.27523C12.5252 7.99328 12.3166 7.71408 12.0767 7.45104C12.0345 7.40481 11.9727 7.38224 11.9106 7.38927C11.6834 7.41493 11.1191 7.48034 10.8178 7.53009C10.211 7.63027 9.32824 7.58784 8.55034 7.34589C7.8116 7.11612 6.86679 6.60233 6.68277 5.54702C6.59176 5.02514 6.73508 4.58862 6.98365 4.19684C7.19719 3.86028 7.52136 3.50854 7.86718 3.13331C7.9586 3.0341 8.04847 2.93353 8.13793 2.83256C8.44707 2.48365 8.81626 2.06696 9.22116 1.78048Z" fill="#141B34"/>
</svg>
