<svg width="24" height="24" viewBox="0 0 24 24" fill="none" xmlns="http://www.w3.org/2000/svg">
<path fill-rule="evenodd" clip-rule="evenodd" d="M1.25 10.8866C1.25 5.56426 5.56566 1.25 10.8889 1.25C16.2121 1.25 20.5278 5.56426 20.5278 10.8866C20.5278 11.5059 20.5302 11.7168 20.5438 11.8084C20.5796 12.0492 20.6912 12.2657 20.886 12.6436L22.6666 16.097C22.7585 16.2752 22.7752 16.4829 22.713 16.6735C22.6507 16.8641 22.5147 17.0219 22.3353 17.1116L20.936 17.8111C20.5606 17.9987 20.3663 18.4489 20.3162 18.6505C20.2273 19.1222 20.1252 19.6648 19.9693 20.1765C19.8118 20.6934 19.583 21.2377 19.207 21.685C18.9396 22.0032 18.6083 22.2618 18.2347 22.444C17.8884 22.6129 17.529 22.682 17.1387 22.7142C16.7666 22.7448 16.3152 22.7448 15.7739 22.7448C15.2226 22.7448 14.9469 22.7448 14.7039 22.6829C14.2108 22.5573 13.7841 22.2485 13.5108 21.8193C13.3761 21.6079 13.2899 21.346 13.1177 20.8222L12.75 19.7043C12.6113 19.078 12.4142 18.9543 12 18.9543C11.5858 18.9543 11.25 19.2901 11.25 19.7043V22.1448C11.25 22.4277 11.25 22.5691 11.1621 22.6569C11.0743 22.7448 10.9328 22.7448 10.65 22.7448H7.73159H7.73155C7.03965 22.7448 6.46231 22.7448 5.99567 22.6958C5.50682 22.6445 5.05422 22.5327 4.65004 22.2511C4.38338 22.0653 4.15177 21.8337 3.96595 21.567C3.6843 21.1628 3.57256 20.7101 3.52121 20.2212C3.47219 19.7544 3.4722 19.1769 3.47222 18.4848L3.47222 18.4451C3.47222 17.8825 3.39973 17.4863 3.26761 17.1162C3.12947 16.7293 2.91727 16.3434 2.58951 15.79C1.73836 14.353 1.25 12.6757 1.25 10.8866ZM13.0819 7.24466C13.1157 6.43827 12.5782 5.91411 11.8795 5.78041C11.3317 5.67559 10.7906 5.83053 10.4556 6.26104C10.9509 6.79424 11.2543 7.51053 11.2543 8.2972C11.2543 8.71141 10.9185 9.0472 10.5043 9.0472C10.09 9.0472 9.75426 8.71141 9.75426 8.2972C9.75426 7.78145 9.49471 7.32837 9.09966 7.06174C8.52399 6.67321 7.82699 6.79629 7.32288 7.26635C6.82528 7.73034 6.64477 8.41403 7.01995 9.05286C7.1461 9.26765 7.15738 9.53106 7.05005 9.75584C6.94271 9.98063 6.73078 10.1375 6.48444 10.1744C5.97625 10.2506 5.71683 10.6531 5.753 11.1562C5.78897 11.6564 6.09976 12.0157 6.6205 12.0157C6.92698 12.0157 7.20007 11.8635 7.36777 11.6238C7.60519 11.2844 8.07281 11.2017 8.41222 11.4391C8.75164 11.6765 8.83433 12.1442 8.59691 12.4836C8.16215 13.1051 7.43989 13.5157 6.6205 13.5157C5.13373 13.5157 4.3354 12.3562 4.25686 11.2638C4.19639 10.4225 4.55267 9.47725 5.39157 8.98918C5.13231 7.89844 5.57574 6.84455 6.29992 6.16928C7.02595 5.49229 8.11917 5.11848 9.18486 5.45232C9.8903 4.43743 11.1079 4.10554 12.1614 4.30715C13.2036 4.50658 14.2001 5.24939 14.4955 6.43216C15.1978 6.45951 15.7724 6.75478 16.167 7.21631C16.568 7.68527 16.75 8.2847 16.75 8.85576C16.75 9.42681 16.568 10.0262 16.167 10.4952C15.888 10.8215 15.519 11.0648 15.0785 11.1889C14.9888 11.6757 14.796 12.1465 14.4865 12.5411C14.0237 13.1312 13.3236 13.5157 12.4461 13.5157C12.0456 13.5157 11.7747 13.6754 11.5861 13.9159C11.3825 14.1755 11.2543 14.5619 11.2543 14.9999C11.2543 15.4141 10.9185 15.7499 10.5043 15.7499C10.09 15.7499 9.75426 15.4141 9.75426 14.9999C9.75426 14.292 9.95792 13.5613 10.4058 12.9902C10.8686 12.4001 11.5687 12.0157 12.4461 12.0157C12.8467 12.0157 13.1176 11.8559 13.3062 11.6154C13.4096 11.4836 13.4936 11.319 13.5512 11.1316C13.2627 11.0244 13.0003 10.8637 12.7763 10.6619C12.4686 10.3847 12.4439 9.91043 12.7212 9.60271C12.9985 9.29499 13.4727 9.2703 13.7804 9.54758C13.943 9.69403 14.1548 9.78144 14.388 9.78144C14.7115 9.78144 14.9043 9.66388 15.027 9.52037C15.1633 9.36094 15.25 9.12254 15.25 8.85576C15.25 8.58897 15.1633 8.35057 15.027 8.19115C14.9043 8.04763 14.7115 7.93008 14.388 7.93008C14.28 7.93008 14.1779 7.94872 14.0835 7.98242C13.8486 8.06636 13.5873 8.02798 13.3864 7.88003C13.1855 7.73208 13.0714 7.49392 13.0819 7.24466Z" fill="#141B34"/>
</svg>
