<svg width="24" height="24" viewBox="0 0 24 24" fill="none" xmlns="http://www.w3.org/2000/svg">
<path d="M22.2469 10.3424C22.2452 10.0638 22.2444 9.92444 22.1566 9.83722C22.0689 9.75 21.9289 9.75 21.649 9.75H2.35096C2.07108 9.75 1.93114 9.75 1.84339 9.83722C1.75563 9.92444 1.75478 10.0638 1.75307 10.3424C1.74999 10.8458 1.75 11.3787 1.75 11.9428V12.0572C1.74999 14.2479 1.74998 15.9686 1.93059 17.312C2.11568 18.6886 2.50272 19.7809 3.36091 20.6391C4.21911 21.4973 5.31137 21.8843 6.68802 22.0694C8.03144 22.25 9.7521 22.25 11.9428 22.25H12.0572C14.2479 22.25 15.9686 22.25 17.312 22.0694C18.6886 21.8843 19.7809 21.4973 20.6391 20.6391C21.4973 19.7809 21.8843 18.6886 22.0694 17.312C22.25 15.9686 22.25 14.2479 22.25 12.0572V11.9428C22.25 11.3787 22.25 10.8458 22.2469 10.3424Z" fill="#141B34"/>
<path fill-rule="evenodd" clip-rule="evenodd" d="M12.0579 1.75H11.9435H11.9435C9.75282 1.74999 8.03214 1.74998 6.68872 1.93059C5.31207 2.11568 4.21981 2.50272 3.36161 3.36091C2.50342 4.21911 2.11638 5.31137 1.93129 6.68802C1.89188 6.98118 1.86107 7.29229 1.83698 7.62234C1.81576 7.91313 1.80515 8.05853 1.89415 8.15427C1.98315 8.25 2.13164 8.25 2.42863 8.25H21.5728C21.8698 8.25 22.0183 8.25 22.1073 8.15427C22.1963 8.05853 22.1856 7.91314 22.1644 7.62237V7.62234C22.1403 7.29229 22.1095 6.98118 22.0701 6.68802C21.885 5.31137 21.498 4.21911 20.6398 3.36091C19.7816 2.50272 18.6893 2.11568 17.3127 1.93059C15.9693 1.74998 14.2486 1.74999 12.0579 1.75H12.0579ZM6.00052 5C6.00052 4.44772 6.44823 4 7.00052 4H7.0095C7.56179 4 8.0095 4.44772 8.0095 5C8.0095 5.55229 7.56179 6 7.0095 6H7.00052C6.44823 6 6.00052 5.55229 6.00052 5ZM11.0005 4C10.4482 4 10.0005 4.44772 10.0005 5C10.0005 5.55229 10.4482 6 11.0005 6H11.0095C11.5618 6 12.0095 5.55229 12.0095 5C12.0095 4.44772 11.5618 4 11.0095 4H11.0005Z" fill="#141B34"/>
</svg>
