<svg width="24" height="24" viewBox="0 0 24 24" fill="none" xmlns="http://www.w3.org/2000/svg">
<path d="M13.2042 14.375C14.1852 14.375 14.9949 14.375 15.6196 14.4558C16.2616 14.5389 16.8737 14.7248 17.3079 15.2364C17.7607 15.7698 17.8026 16.3975 17.7094 17.0138C17.6226 17.5872 17.3956 18.2931 17.1302 19.1184L17.1302 19.1184C16.9202 19.7717 16.6146 20.7223 16.4096 21.1609C16.1892 21.6323 15.9112 22.0316 15.4687 22.3328C15.0294 22.6228 14.5087 22.7661 13.9686 22.8217C13.4516 22.875 12.8136 22.875 12.0395 22.875H12.0395H11.9609H11.9609C11.1868 22.875 10.5488 22.875 10.0318 22.8217C9.4917 22.7661 9.00184 22.6435 8.56254 22.3535C8.12007 22.0523 7.81115 21.6323 7.59081 21.1609C7.38576 20.7223 7.08021 19.7717 6.87022 19.1185C6.60483 18.2931 6.37783 17.5872 6.29104 17.0138C6.19776 16.3975 6.23973 15.7698 6.69249 15.2364C7.12669 14.7248 7.73876 14.5389 8.38084 14.4558C9.00553 14.375 9.81522 14.375 10.7962 14.375H10.7962H13.2042H13.2042Z" fill="#141B34"/>
<path fill-rule="evenodd" clip-rule="evenodd" d="M12 11.125C12.5523 11.125 13 11.5727 13 12.125L13 15.125C13 15.6773 12.5523 16.125 12 16.125C11.4477 16.125 11 15.6773 11 15.125L11 12.125C11 11.5727 11.4477 11.125 12 11.125Z" fill="#141B34"/>
<path fill-rule="evenodd" clip-rule="evenodd" d="M12.0001 1.125C12.5524 1.125 13.0001 1.57272 13.0001 2.125V3.23315C14.0533 3.46469 14.9682 4.05346 15.5984 4.85764L16.4454 4.29295C16.9049 3.9866 17.5258 4.11077 17.8322 4.5703C18.1385 5.02983 18.0143 5.6507 17.5548 5.95705L16.4345 6.70393C16.5242 7.19593 16.5264 7.71569 16.425 8.24768L16.2065 9.39409L17.5548 10.2929C18.0143 10.5993 18.1385 11.2202 17.8322 11.6797C17.5258 12.1392 16.9049 12.2634 16.4454 11.9571L15.8001 11.5268L15.0787 15.3122C14.9753 15.8547 14.4517 16.2107 13.9092 16.1073C13.3667 16.0039 13.0107 15.4803 13.1141 14.9378L14.4603 7.87328C14.7228 6.49609 13.6138 5.125 12.0001 5.125C10.3864 5.125 9.27742 6.49609 9.53988 7.87328L10.8862 14.9378C10.9895 15.4803 10.6336 16.0039 10.091 16.1073C9.54852 16.2107 9.0249 15.8547 8.92152 15.3122L8.20014 11.5268L7.55481 11.9571C7.09528 12.2634 6.47441 12.1392 6.16806 11.6797C5.8617 11.2202 5.98588 10.5993 6.44541 10.2929L7.7937 9.39409L7.57523 8.24768C7.47385 7.7157 7.47603 7.19593 7.56573 6.70393L6.44541 5.95705C5.98588 5.6507 5.8617 5.02983 6.16806 4.5703C6.47441 4.11077 7.09528 3.9866 7.55481 4.29295L8.40185 4.85765C9.03204 4.05346 9.94691 3.46469 11.0001 3.23315V2.125C11.0001 1.57272 11.4478 1.125 12.0001 1.125Z" fill="#141B34"/>
</svg>
