<svg width="24" height="24" viewBox="0 0 24 24" fill="none" xmlns="http://www.w3.org/2000/svg">
<path d="M5.31629 1.28608C5.88297 1.4032 6.33427 1.78394 6.61466 2.28697L7.50787 3.88942C7.83688 4.47962 8.11375 4.97631 8.29457 5.40808C8.48637 5.8661 8.60029 6.31775 8.54821 6.81712C8.49614 7.31648 8.29148 7.73491 8.00931 8.1435C7.7433 8.52868 7.36991 8.95755 6.92621 9.46718L5.6132 10.9754C5.37791 11.2456 5.26026 11.3808 5.24951 11.5497C5.23876 11.7186 5.33518 11.8628 5.52803 12.1513C7.17161 14.6104 9.38675 16.8263 11.8478 18.4713C12.1364 18.6642 12.2806 18.7606 12.4495 18.7498C12.6184 18.7391 12.7536 18.6214 13.0238 18.3862L14.5321 17.0731C15.0417 16.6294 15.4706 16.256 15.8558 15.99C16.2644 15.7078 16.6828 15.5031 17.1822 15.4511C17.6815 15.399 18.1332 15.5129 18.5912 15.7047C19.0229 15.8855 19.5196 16.1624 20.1097 16.4913L21.7123 17.3846C22.2153 17.665 22.5961 18.1163 22.7132 18.683C22.8316 19.2556 22.657 19.8312 22.2714 20.3042C20.8725 22.0205 18.6313 23.1134 16.28 22.6391C14.8348 22.3475 13.4088 21.8618 11.6841 20.8727C8.21872 18.8853 5.11165 15.7765 3.12658 12.3152C2.13746 10.5905 1.65174 9.16452 1.3602 7.71925C0.885904 5.36803 1.97874 3.12675 3.6951 1.72785C4.16814 1.3423 4.74368 1.16773 5.31629 1.28608Z" fill="#141B34"/>
<path fill-rule="evenodd" clip-rule="evenodd" d="M11.999 6.99976C11.999 4.23833 14.2376 1.99976 16.999 1.99976C19.7604 1.99976 21.999 4.23833 21.999 6.99976C21.999 9.76118 19.7604 11.9998 16.999 11.9998C14.2376 11.9998 11.999 9.76118 11.999 6.99976ZM14.2914 5.70634C14.104 6.09798 13.999 6.53661 13.999 6.99976C13.999 8.65661 15.3422 9.99976 16.999 9.99976C17.4622 9.99976 17.9008 9.8948 18.2924 9.70739L14.2914 5.70634ZM15.7056 4.29213L19.7067 8.29317C19.8941 7.90154 19.999 7.4629 19.999 6.99976C19.999 5.3429 18.6559 3.99976 16.999 3.99976C16.5359 3.99976 16.0972 4.10471 15.7056 4.29213Z" fill="#141B34"/>
</svg>
