<svg width="24" height="24" viewBox="0 0 24 24" fill="none" xmlns="http://www.w3.org/2000/svg">
<path fill-rule="evenodd" clip-rule="evenodd" d="M11.9676 1.25H12.0304H12.0305C12.6345 1.24999 13.1346 1.24998 13.5475 1.28515C13.9802 1.32201 14.3713 1.40069 14.7484 1.58742C15.4204 1.92009 15.8452 2.44877 16.1434 2.979C16.3745 3.39004 16.554 3.85182 16.7061 4.24318C16.742 4.33553 16.7764 4.42396 16.8096 4.50689L16.9569 4.87534C17.0294 5.0566 17.0657 5.14722 17.1407 5.19869C17.2156 5.25016 17.3143 5.25145 17.5116 5.25403C18.4328 5.26608 19.1291 5.31819 19.7404 5.57479C20.6882 5.97261 21.4575 6.70632 21.9062 7.63547C22.1063 8.05002 22.2083 8.49536 22.2757 9.01254C22.3415 9.51676 22.3799 10.1389 22.4279 10.9174L22.5879 13.5123C22.7078 15.4557 22.8025 16.9915 22.7141 18.196C22.6232 19.4329 22.3332 20.4418 21.5852 21.2486C20.8358 22.0571 19.8559 22.4154 18.6385 22.5851C17.4557 22.75 15.9356 22.75 14.016 22.75H9.98176C8.06214 22.75 6.54203 22.75 5.3593 22.5851C4.14184 22.4154 3.162 22.0571 2.41255 21.2486C1.66458 20.4418 1.37454 19.4329 1.28372 18.196C1.19528 16.9915 1.29001 15.4557 1.40988 13.5123L1.56992 10.9172C1.61792 10.1388 1.65629 9.51672 1.72205 9.01254C1.78951 8.49536 1.89144 8.05002 2.09161 7.63547C2.54026 6.70632 3.30955 5.97261 4.25736 5.57479C4.86876 5.31817 5.56509 5.26607 6.48644 5.25403C6.68377 5.25145 6.78244 5.25016 6.8574 5.19869C6.93236 5.14722 6.96861 5.0566 7.04112 4.87534L7.1885 4.50689C7.22167 4.42397 7.25604 4.33554 7.29193 4.2432L7.29193 4.2432L7.29194 4.24317C7.44405 3.85181 7.62354 3.39003 7.8547 2.979C8.1529 2.44877 8.57768 1.92009 9.24961 1.58742C9.62678 1.40069 10.0178 1.32201 10.4506 1.28515C10.8635 1.24998 11.3635 1.24999 11.9676 1.25H11.9676ZM11.001 6C11.001 5.44772 11.4467 5 11.9965 5C12.5424 5 13.001 5.44791 13.001 6C13.001 6.55209 12.5424 7 11.9965 7C11.4467 7 11.001 6.55229 11.001 6ZM12.001 10C9.79184 10 8.00098 11.7909 8.00098 14C8.00098 16.2091 9.79184 18 12.001 18C14.2101 18 16.001 16.2091 16.001 14C16.001 11.7909 14.2101 10 12.001 10Z" fill="#141B34"/>
</svg>
