<svg width="25" height="24" viewBox="0 0 25 24" fill="none" xmlns="http://www.w3.org/2000/svg">
<path d="M2.88278 12.0455C3.22269 11.9998 3.63482 11.9999 4.05889 12L22.1133 12C22.6656 12 23.1133 12.4477 23.1133 13V16C23.1133 17.3785 22.416 18.5942 21.3548 19.3134C21.331 19.3296 21.319 19.3377 21.3057 19.3449C21.1165 19.4469 20.8865 19.325 20.8648 19.1111C20.8633 19.096 20.8633 19.064 20.8633 19C20.8633 16.9289 19.1843 15.25 17.1133 15.25C15.0422 15.25 13.3633 16.9289 13.3633 19C13.3633 19.0752 13.3655 19.1499 13.3699 19.224C13.3929 19.6157 13.4045 19.8116 13.3157 19.9058C13.2268 20 13.0546 20 12.7101 20H11.5165C11.172 20 10.9997 20 10.9109 19.9058C10.8221 19.8116 10.8336 19.6157 10.8567 19.224C10.8611 19.1499 10.8633 19.0752 10.8633 19C10.8633 16.9289 9.18435 15.25 7.11328 15.25C5.04221 15.25 3.36328 16.9289 3.36328 19C3.36328 19.2766 3.39322 19.5462 3.45004 19.8057C3.46583 19.8778 3.40733 19.946 3.33414 19.9362C2.81478 19.8664 2.28197 19.7042 1.84553 19.2678C1.40909 18.8313 1.24696 18.2985 1.17713 17.7792C1.11317 17.3035 1.11323 16.7157 1.11329 16.0616L1.11329 14.9456C1.11321 14.5215 1.11312 14.1094 1.15882 13.7695C1.21034 13.3863 1.33587 12.949 1.69908 12.5858C2.0623 12.2226 2.49957 12.0971 2.88278 12.0455Z" fill="#141B34"/>
<path d="M19.2733 4.14186C18.9505 4.01639 18.5581 4.00016 17.2368 4.00016H8.20884C6.74426 4.00016 5.74487 4.00222 4.99579 4.10135C4.27388 4.19689 3.93644 4.36612 3.70746 4.59151C3.48067 4.81474 3.31171 5.14053 3.21567 5.84368C3.11548 6.57723 3.11328 7.55724 3.11328 9.00016V14.0002C3.11328 14.5524 2.66557 15.0002 2.11328 15.0002C1.561 15.0002 1.11328 14.5524 1.11328 14.0002L1.11328 8.92864C1.11325 7.57533 1.11322 6.45781 1.23407 5.57301C1.3612 4.64227 1.63858 3.82162 2.30446 3.16617C2.96815 2.51288 3.79541 2.24277 4.7334 2.11864C5.62914 2.0001 6.76172 2.00013 8.13903 2.00016C11.2292 2.00016 14.3194 2.00229 17.4096 2.00008C18.4799 1.99931 19.28 1.99874 19.9978 2.27769C20.4435 2.45091 20.8551 2.70113 21.2131 3.01722C22.0657 3.76994 22.515 4.92637 22.9917 5.93836C23.0648 6.12903 23.1683 6.45872 23.0783 6.84165C23.0021 7.16558 22.8205 7.45293 22.5649 7.661C22.2649 7.9052 21.9288 7.96012 21.7261 7.9807C21.5332 8.0003 21.3027 8.00023 21.0875 8.00017L16.1133 8.00016C15.561 8.00016 15.1133 7.55245 15.1133 7.00016C15.1133 6.44788 15.561 6.00016 16.1133 6.00016H20.4751C20.6218 6.00016 20.6952 6.00016 20.7245 5.95267C20.7538 5.90518 20.7208 5.83953 20.655 5.70825C20.3292 5.05931 19.9875 4.41941 19.2733 4.14186Z" fill="#141B34"/>
<path fill-rule="evenodd" clip-rule="evenodd" d="M5.11328 7C5.11328 6.44772 5.561 6 6.11328 6L8.11328 6C8.66557 6 9.11328 6.44772 9.11328 7C9.11328 7.55228 8.66557 8 8.11328 8L6.11328 8C5.561 8 5.11328 7.55228 5.11328 7Z" fill="#141B34"/>
<path fill-rule="evenodd" clip-rule="evenodd" d="M17.1848 8.08932C16.9694 8.01336 16.7218 8.00016 15.7514 8.00016C15.2266 8.00016 15.126 8 15.126 8.1997C15.1139 8.3677 15.1133 8.59356 15.1133 8.96586V13.0002C15.1133 13.5524 14.6656 14.0002 14.1133 14.0002C13.561 14.0002 13.1133 13.5524 13.1133 13.0002V8.96586C13.1133 8.62292 13.1127 8.31236 13.1313 8.0554C13.2061 7.02084 13.8955 6.13375 14.9492 6.02398C15.2298 5.99475 15.5719 6.00036 15.8872 6.00008C16.6552 5.9994 17.2707 5.99885 17.85 6.20321C18.2808 6.35513 18.6797 6.58713 19.0332 6.88371C19.5235 7.29505 19.8933 7.86739 20.4208 8.65867L22.9453 12.4455C23.2517 12.905 23.1275 13.5259 22.668 13.8322C22.2085 14.1386 21.5876 14.0144 21.2812 13.5549L18.7567 9.76807C18.1583 8.87043 17.9651 8.5983 17.7477 8.41586C17.5685 8.26548 17.3777 8.15737 17.1848 8.08932Z" fill="#141B34"/>
<path d="M17.1133 16.5C15.7326 16.5 14.6133 17.6193 14.6133 19C14.6133 20.3807 15.7326 21.5 17.1133 21.5C18.494 21.5 19.6133 20.3807 19.6133 19C19.6133 17.6193 18.494 16.5 17.1133 16.5Z" fill="#141B34"/>
<path d="M7.11328 16.5C5.73257 16.5 4.61328 17.6193 4.61328 19C4.61328 20.3807 5.73257 21.5 7.11328 21.5C8.49399 21.5 9.61328 20.3807 9.61328 19C9.61328 17.6193 8.49399 16.5 7.11328 16.5Z" fill="#141B34"/>
</svg>
