<svg width="24" height="24" viewBox="0 0 24 24" fill="none" xmlns="http://www.w3.org/2000/svg">
<path d="M7.5 7.75C7.5 5.26472 9.51472 3.25 12 3.25C14.4853 3.25 16.5 5.26472 16.5 7.75C16.5 10.2353 14.4853 12.25 12 12.25C9.51472 12.25 7.5 10.2353 7.5 7.75Z" fill="#141B34"/>
<path d="M16.0783 11.8026C15.9839 11.8976 16.0209 12.0621 16.149 12.101C16.6585 12.256 17.223 12.4196 17.7919 12.543C18.8737 12.7778 20.1944 12.9228 21.2064 12.3517C21.8639 11.9807 22.2245 11.2108 22.4293 10.5062C22.6473 9.75591 22.7495 8.86714 22.7495 7.99979C22.7495 7.13245 22.6473 6.24367 22.4293 5.49341C22.2245 4.78881 21.8639 4.01888 21.2064 3.64785C20.1944 3.07678 18.8737 3.22178 17.7919 3.45652C17.5799 3.50252 17.3685 3.55409 17.1604 3.60871C16.7636 3.71283 16.5652 3.76489 16.5098 3.90789C16.4545 4.05088 16.5784 4.24171 16.8261 4.62338C17.4102 5.52334 17.7495 6.59693 17.7495 7.74976C17.7495 9.33098 17.1112 10.7631 16.0783 11.8026Z" fill="#141B34"/>
<path d="M6.83911 3.60871C7.23592 3.71283 7.43432 3.76489 7.48966 3.90789C7.54499 4.05088 7.42113 4.24171 7.1734 4.62338C6.58926 5.52334 6.25 6.59693 6.25 7.74976C6.25 9.33098 6.88826 10.7631 7.9212 11.8026C8.01556 11.8976 7.97862 12.0621 7.85053 12.101C7.341 12.256 6.77653 12.4196 6.2076 12.543C5.12577 12.7778 3.80506 12.9228 2.79306 12.3517C2.13555 11.9807 1.77497 11.2108 1.57021 10.5062C1.35217 9.75591 1.25 8.86714 1.25 7.99979C1.25 7.13245 1.35217 6.24367 1.57021 5.49341C1.77497 4.78881 2.13555 4.01888 2.79306 3.64785C3.80506 3.07678 5.12575 3.22178 6.20759 3.45652C6.41959 3.50252 6.63096 3.55409 6.83911 3.60871Z" fill="#141B34"/>
<path d="M9.45339 12.9065C9.06848 12.7161 8.87603 12.6209 8.74442 12.6837C8.61282 12.7466 8.56967 12.9393 8.48339 13.3247L7.602 17.2616C7.44589 17.9587 7.31362 18.5494 7.26826 18.9944C7.24489 19.2237 7.23706 19.4748 7.28715 19.7128C7.34087 19.9681 7.47107 20.248 7.74768 20.4462C8.29868 20.841 8.88798 20.7993 9.36705 20.6098C9.80305 20.4374 10.2086 20.1227 10.5339 19.8556C10.6386 19.7696 10.7365 19.6874 10.8298 19.609C11.0595 19.416 11.2619 19.2459 11.471 19.1001C11.7705 18.8912 11.9311 18.8474 12 18.8474C12.0443 18.8474 12.1999 18.8855 12.5201 19.0962C12.7388 19.2401 12.9576 19.4101 13.2026 19.6004C13.298 19.6745 13.3976 19.7519 13.5024 19.8318C13.8435 20.0918 14.2542 20.3893 14.6727 20.5607C15.1038 20.7373 15.7032 20.8397 16.2523 20.4462C16.5289 20.248 16.6591 19.9681 16.7129 19.7128C16.763 19.4748 16.7551 19.2237 16.7318 18.9944C16.6864 18.5494 16.5541 17.9588 16.398 17.2617L15.5166 13.3247C15.4303 12.9393 15.3872 12.7465 15.2556 12.6837C15.124 12.6208 14.9315 12.7161 14.5466 12.9065C13.779 13.2863 12.9144 13.4998 12 13.4998C11.0856 13.4998 10.221 13.2863 9.45339 12.9065Z" fill="#141B34"/>
</svg>
