<svg width="24" height="24" viewBox="0 0 24 24" fill="none" xmlns="http://www.w3.org/2000/svg">
<path fill-rule="evenodd" clip-rule="evenodd" d="M5.3391 4.27436C5.13418 4.06944 5.14523 3.73289 5.373 3.55371C7.2074 2.11074 9.52135 1.25 12.0363 1.25C17.5582 1.25 22.1109 5.39925 22.7468 10.75C22.781 11.0376 22.5508 11.2834 22.2611 11.2834H16.3936C16.1534 11.2834 15.9504 11.1112 15.8814 10.8812C15.3854 9.22746 13.8516 8.02246 12.0365 8.02246C11.3482 8.02246 10.7004 8.19572 10.1342 8.501C9.92286 8.61499 9.65775 8.59302 9.48793 8.4232L5.3391 4.27436ZM4.27479 5.33855C4.06988 5.13364 3.73334 5.14468 3.55416 5.37243C2.11092 7.20692 1.25 9.52109 1.25 12.0363C1.25 17.5584 5.39951 22.1112 10.7505 22.7468C11.0381 22.781 11.2838 22.5509 11.2838 22.2612V16.3931C11.2838 16.1529 11.1117 15.9499 10.8816 15.8809C9.22794 15.3849 8.02295 13.8512 8.02295 12.036C8.02295 11.3477 8.19621 10.6999 8.50148 10.1338C8.61547 9.92237 8.59351 9.65727 8.42369 9.48744L4.27479 5.33855ZM13.1911 15.8809C12.961 15.9499 12.7889 16.153 12.7889 16.3932V22.2612C12.7889 22.5509 13.0347 22.781 13.3223 22.7468C18.2517 22.1612 22.1615 18.2513 22.7469 13.3218C22.781 13.0342 22.5509 12.7884 22.2612 12.7884H16.3937C16.1534 12.7884 15.9504 12.9605 15.8814 13.1906C15.4951 14.4787 14.4792 15.4947 13.1911 15.8809Z" fill="#141B34"/>
</svg>
