<svg width="24" height="24" viewBox="0 0 24 24" fill="none" xmlns="http://www.w3.org/2000/svg">
<path fill-rule="evenodd" clip-rule="evenodd" d="M12.2368 5.96053L9.62591 8.57145C9.24034 8.95703 8.61519 8.95703 8.22961 8.57145C7.84404 8.18587 7.84404 7.56073 8.22961 7.17515L11.8755 3.52922C12.5147 2.88997 13.0633 2.34133 13.5612 1.96145C14.0938 1.55506 14.6828 1.25 15.4072 1.25C16.1316 1.25 16.7205 1.55506 17.2532 1.96145C17.7511 2.34133 18.2997 2.88998 18.9389 3.52923L20.4712 5.06159C21.1105 5.70077 21.6591 6.24936 22.039 6.74724C22.4454 7.27988 22.7504 7.86884 22.7504 8.59324C22.7504 9.31764 22.4454 9.9066 22.039 10.4392C21.6591 10.9371 21.1105 11.4857 20.4712 12.1249L16.8253 15.7708C16.4397 16.1564 15.8146 16.1564 15.429 15.7708C15.0434 15.3852 15.0434 14.7601 15.429 14.3745L18.0399 11.7636L15.9408 9.66439L13.0481 12.5571C12.6576 12.9476 12.0244 12.9476 11.6339 12.5571C11.2434 12.1666 11.2434 11.5334 11.6339 11.1429L14.5266 8.25017L12.2368 5.96053ZM13.6517 4.54697C14.12 4.08281 14.4625 3.75758 14.759 3.53136C15.116 3.25898 15.2881 3.22467 15.4072 3.22467C15.5262 3.22467 15.6984 3.25898 16.0554 3.53136C16.4352 3.82111 16.8903 4.27327 17.5888 4.97177L17.6969 5.07989L15.9408 6.83596L13.6517 4.54697ZM19.4535 10.3487C19.9176 9.88037 20.2429 9.53794 20.4691 9.24144C20.7414 8.88445 20.7758 8.7123 20.7758 8.59324C20.7758 8.47419 20.7414 8.30203 20.4691 7.94504C20.1909 7.58042 19.763 7.14634 19.1111 6.49411L17.355 8.25017L19.4535 10.3487Z" fill="#141B34"/>
<path d="M7.97228 6.25249C8.15588 6.24288 8.33987 6.2611 8.51802 6.30653C8.80871 6.38066 9.0366 6.52989 9.23272 6.69155C9.41215 6.83946 9.60755 7.03489 9.82001 7.24738L9.84168 7.26906L16.7526 14.18C16.9651 14.3925 17.1605 14.5879 17.3084 14.7673C17.4701 14.9634 17.6193 15.1913 17.6935 15.482C17.7389 15.6601 17.7571 15.8441 17.7475 16.0277C17.7318 16.3273 17.6302 16.58 17.5101 16.8041C17.4003 17.009 17.247 17.2389 17.0803 17.4889C16.7327 18.0103 16.3053 18.6515 16.0415 18.9688C15.7802 19.2831 15.438 19.6179 14.9551 19.7146C14.5574 19.7941 14.1446 19.7388 13.7819 19.5574C13.3414 19.3371 13.0994 18.9241 12.93 18.5521C12.759 18.1765 12.5914 17.6737 12.3933 17.0793C12.2395 16.6181 12.201 16.5406 12.1837 16.5197C12.1623 16.4938 12.1369 16.4714 12.1086 16.4534C12.0857 16.4388 12.0455 16.4185 11.5688 16.3231L10.1853 16.0464C9.87391 15.9842 9.58429 15.9263 9.34624 15.8512C9.08224 15.7679 8.81618 15.6448 8.58569 15.4143C8.3552 15.1838 8.23214 14.9178 8.14882 14.6538C8.07369 14.4157 8.0158 14.1261 7.95356 13.8147L7.94692 13.7815L7.67686 12.4312C7.58151 11.9545 7.56118 11.9143 7.54662 11.8914C7.52856 11.8631 7.50618 11.8377 7.48031 11.8163C7.45945 11.799 7.38195 11.7605 6.92069 11.6067C6.3263 11.4086 5.82347 11.241 5.44789 11.07C5.07594 10.9006 4.66289 10.6586 4.44255 10.2181C4.26115 9.8554 4.20587 9.44258 4.28545 9.04494C4.38211 8.56196 4.71693 8.21978 5.03121 7.95851C5.34855 7.69469 5.98974 7.26725 6.51106 6.91973L6.51107 6.91973C6.76107 6.75303 6.99099 6.59972 7.19595 6.48987C7.41997 6.36981 7.67269 6.26818 7.97228 6.25249Z" fill="#141B34"/>
<path d="M12.3201 20.3201L12.256 20.3859L12.2188 20.423C11.5357 21.1062 10.9699 21.672 10.4613 22.0601C9.92616 22.4683 9.36711 22.7499 8.69309 22.7499C8.01907 22.7499 7.46002 22.4683 6.9249 22.0601C6.41628 21.672 5.85051 21.1062 5.16743 20.4231L3.57684 18.8325C2.8937 18.1494 2.32788 17.5836 1.93981 17.075C1.53153 16.5398 1.25 15.9808 1.25 15.3068C1.25 14.6328 1.53153 14.0737 1.93981 13.5386C2.32788 13.03 2.89369 12.4642 3.57682 11.7811L3.62096 11.737L3.67975 11.6797C4.08724 12.0785 4.53896 12.3044 4.82584 12.435C5.23771 12.6226 5.74897 12.7971 6.25363 12.9655L6.48991 14.147C6.5461 14.4285 6.61781 14.7878 6.71796 15.1051C6.84246 15.4996 7.06279 16.013 7.52462 16.4749C7.98645 16.9367 8.49988 17.157 8.89437 17.2815C9.21169 17.3817 9.57094 17.4534 9.85244 17.5096L11.0339 17.7458C11.2024 18.2505 11.3769 18.7618 11.5645 19.1736C11.6951 19.4606 11.9211 19.9125 12.3201 20.3201Z" fill="#141B34"/>
</svg>
