<svg width="24" height="24" viewBox="0 0 24 24" fill="none" xmlns="http://www.w3.org/2000/svg">
<path fill-rule="evenodd" clip-rule="evenodd" d="M12 1.25C17.9371 1.25 22.75 6.06294 22.75 12C22.75 17.9371 17.9371 22.75 12 22.75C6.06294 22.75 1.25 17.9371 1.25 12C1.25 6.06294 6.06294 1.25 12 1.25ZM13.9101 6.55172C13.4964 6.53 13.1435 6.84772 13.1218 7.26136C13.1102 7.48231 13.1954 7.68594 13.3404 7.83102L14.0475 8.53812L12.5 10.0856C12.1095 10.4761 12.1095 11.1093 12.5 11.4998C12.8906 11.8903 13.5237 11.8903 13.9142 11.4998L15.4617 9.95233L16.1691 10.6597C16.3142 10.8046 16.5177 10.8897 16.7385 10.8781C17.1521 10.8564 17.4698 10.5034 17.4481 10.0898C17.4438 10.007 17.4505 9.84712 17.4644 9.58798L17.4675 9.53134C17.4798 9.30447 17.4945 9.03396 17.4988 8.76573C17.5034 8.47847 17.497 8.16174 17.4553 7.87626C17.4201 7.63475 17.3379 7.2323 17.0527 6.94713C16.7676 6.66197 16.3651 6.57975 16.1236 6.5445C15.8381 6.50283 15.5214 6.49642 15.2341 6.50104C14.9659 6.50534 14.6954 6.52002 14.4686 6.53233L14.4119 6.5354C14.1527 6.54937 13.9928 6.55606 13.9101 6.55172ZM10.09 17.4478C10.5037 17.4695 10.8566 17.1518 10.8783 16.7382C10.8899 16.5173 10.8048 16.3138 10.66 16.1688L9.95258 15.4614L11.5 13.9139C11.8906 13.5234 11.8906 12.8902 11.5 12.4997C11.1095 12.1092 10.4763 12.1092 10.0858 12.4997L8.53836 14.0472L7.83126 13.3401C7.68618 13.1951 7.48255 13.1098 7.26161 13.1214C6.84796 13.1432 6.53024 13.4961 6.55196 13.9097C6.55631 13.9925 6.54962 14.1524 6.53564 14.4115L6.53257 14.4682C6.52026 14.6951 6.50559 14.9656 6.50128 15.2338C6.49667 15.521 6.50307 15.8378 6.54474 16.1233C6.58 16.3648 6.66222 16.7672 6.94738 17.0524C7.23254 17.3375 7.635 17.4198 7.8765 17.455C8.16199 17.4967 8.47872 17.5031 8.76598 17.4985C9.03417 17.4942 9.30465 17.4795 9.5315 17.4672L9.53156 17.4672L9.58823 17.4641C9.84737 17.4501 10.0073 17.4434 10.09 17.4478Z" fill="#141B34"/>
</svg>
