<svg width="24" height="24" viewBox="0 0 24 24" fill="none" xmlns="http://www.w3.org/2000/svg">
<path fill-rule="evenodd" clip-rule="evenodd" d="M12 1.25C6.06294 1.25 1.25 6.06294 1.25 12C1.25 17.9371 6.06294 22.75 12 22.75C17.9371 22.75 22.75 17.9371 22.75 12C22.75 6.06294 17.9371 1.25 12 1.25ZM9.00005 8C8.58232 8 8.2086 8.25966 8.06287 8.65114C7.91714 9.04263 8.03011 9.48345 8.34617 9.7566L11.0241 12.071C11.5857 12.5564 12.4144 12.5564 12.976 12.071L15.6539 9.7566C15.97 9.48345 16.083 9.04263 15.9372 8.65114C15.7915 8.25966 15.4178 8 15 8L9.00005 8ZM9.65393 11.8084C9.23607 11.4473 8.60458 11.4933 8.24345 11.9111C7.88232 12.329 7.92831 12.9605 8.34617 13.3216L11.0241 15.636C11.5857 16.1213 12.4144 16.1213 12.976 15.636L15.6539 13.3216C16.0718 12.9605 16.1178 12.329 15.7566 11.9111C15.3955 11.4933 14.764 11.4473 14.3462 11.8084L12 13.836L9.65393 11.8084Z" fill="#141B34"/>
</svg>
