<svg width="24" height="24" viewBox="0 0 24 24" fill="none" xmlns="http://www.w3.org/2000/svg">
<path fill-rule="evenodd" clip-rule="evenodd" d="M12 1.25C6.06294 1.25 1.25 6.06294 1.25 12C1.25 17.9371 6.06294 22.75 12 22.75C17.9371 22.75 22.75 17.9371 22.75 12C22.75 6.06294 17.9371 1.25 12 1.25ZM9.82736 7.50889C9.68541 7.34506 9.47952 7.25065 9.26274 7.25C9.04596 7.24936 8.83951 7.34254 8.69659 7.50553L6.93609 9.51331C6.74198 9.73469 6.69535 10.0492 6.81688 10.3173C6.9384 10.5855 7.20559 10.7578 7.50001 10.7578H8.51051V16C8.51051 16.4142 8.8463 16.75 9.26051 16.75C9.67472 16.75 10.0105 16.4142 10.0105 16V10.7578H11C11.2936 10.7578 11.5602 10.5864 11.6822 10.3194C11.8042 10.0523 11.7591 9.73859 11.5669 9.51667L9.82736 7.50889ZM15.4367 8.52213C15.4367 8.10791 15.1009 7.77213 14.6867 7.77213C14.2725 7.77213 13.9367 8.10791 13.9367 8.52213V13.2526H13C12.7081 13.2526 12.4427 13.422 12.3198 13.6867C12.1968 13.9515 12.2387 14.2635 12.427 14.4865L14.1137 16.4839C14.2532 16.6491 14.4571 16.746 14.6733 16.7499C14.8894 16.7538 15.0967 16.6642 15.242 16.5041L17.0553 14.5067C17.2548 14.287 17.3059 13.9703 17.1858 13.699C17.0656 13.4276 16.7968 13.2526 16.5 13.2526H15.4367V8.52213Z" fill="#141B34"/>
</svg>
