<svg width="24" height="25" viewBox="0 0 24 25" fill="none" xmlns="http://www.w3.org/2000/svg">
<path fill-rule="evenodd" clip-rule="evenodd" d="M16.375 13.375C16.9273 13.375 17.375 13.8227 17.375 14.375L17.375 17.375H20.375C20.9273 17.375 21.375 17.8227 21.375 18.375C21.375 18.9273 20.9273 19.375 20.375 19.375H17.375L17.375 22.375C17.375 22.9273 16.9273 23.375 16.375 23.375C15.8227 23.375 15.375 22.9273 15.375 22.375L15.375 19.375H12.375C11.8227 19.375 11.375 18.9273 11.375 18.375C11.375 17.8227 11.8227 17.375 12.375 17.375H15.375L15.375 14.375C15.375 13.8227 15.8227 13.375 16.375 13.375Z" fill="#141B34"/>
<path d="M10.375 7.625C6.09479 7.625 2.625 11.0948 2.625 15.375C2.625 19.6552 6.09479 23.125 10.375 23.125C11.5034 23.125 12.5755 22.8838 13.5425 22.4503C13.6999 22.3797 13.7786 22.3444 13.8268 22.27C13.875 22.1956 13.875 22.1047 13.875 21.923V21.475C13.875 21.1922 13.875 21.0507 13.7871 20.9629C13.6993 20.875 13.5578 20.875 13.275 20.875H12.375C10.9943 20.875 9.875 19.7557 9.875 18.375C9.875 16.9943 10.9943 15.875 12.375 15.875H13.275C13.5578 15.875 13.6993 15.875 13.7871 15.7871C13.875 15.6993 13.875 15.5578 13.875 15.275V14.375C13.875 12.9943 14.9943 11.875 16.375 11.875C16.6851 11.875 16.8401 11.875 16.8869 11.8592C17.0574 11.8015 17.1258 11.6759 17.0816 11.5014C17.0695 11.4535 17.0088 11.3597 16.8875 11.1721C15.5072 9.03767 13.1061 7.625 10.375 7.625Z" fill="#141B34"/>
<path fill-rule="evenodd" clip-rule="evenodd" d="M4.875 7.125C4.875 4.08743 7.33743 1.625 10.375 1.625C13.4126 1.625 15.875 4.08743 15.875 7.125V10.125C15.875 10.6773 15.4273 11.125 14.875 11.125C14.3227 11.125 13.875 10.6773 13.875 10.125V7.125C13.875 5.192 12.308 3.625 10.375 3.625C8.442 3.625 6.875 5.192 6.875 7.125V10.125C6.875 10.6773 6.42728 11.125 5.875 11.125C5.32272 11.125 4.875 10.6773 4.875 10.125V7.125Z" fill="#141B34"/>
</svg>
