<svg width="24" height="25" viewBox="0 0 24 25" fill="none" xmlns="http://www.w3.org/2000/svg">
<path fill-rule="evenodd" clip-rule="evenodd" d="M6.5 7.25C6.5 4.21243 8.96243 1.75 12 1.75C15.0376 1.75 17.5 4.21243 17.5 7.25V10.25C17.5 10.8023 17.0523 11.25 16.5 11.25C15.9477 11.25 15.5 10.8023 15.5 10.25V7.25C15.5 5.317 13.933 3.75 12 3.75C10.067 3.75 8.5 5.317 8.5 7.25V10.25C8.5 10.8023 8.05228 11.25 7.5 11.25C6.94772 11.25 6.5 10.8023 6.5 10.25V7.25Z" fill="#141B34"/>
<path fill-rule="evenodd" clip-rule="evenodd" d="M12 7.75C7.71979 7.75 4.25 11.2198 4.25 15.5C4.25 19.7802 7.71979 23.25 12 23.25C16.2802 23.25 19.75 19.7802 19.75 15.5C19.75 11.2198 16.2802 7.75 12 7.75ZM13 14.5C13 13.9477 12.5523 13.5 12 13.5C11.4477 13.5 11 13.9477 11 14.5V16.5C11 17.0523 11.4477 17.5 12 17.5C12.5523 17.5 13 17.0523 13 16.5V14.5Z" fill="#141B34"/>
</svg>
