<svg width="24" height="24" viewBox="0 0 24 24" fill="none" xmlns="http://www.w3.org/2000/svg">
<path fill-rule="evenodd" clip-rule="evenodd" d="M10.1692 1.66442C10.0152 1.35674 9.6717 1.19325 9.33584 1.26784L6.4029 1.91918C5.23265 2.17907 4.06654 2.90066 3.5854 4.1725C2.88283 6.02966 2.33271 8.91802 2.25394 12.9845L2.25326 13.0193C2.24925 13.2221 2.24485 13.4439 2.26725 13.6322C2.29385 13.8559 2.36782 14.1368 2.60206 14.3755C2.83762 14.6155 3.11938 14.6939 3.34189 14.7243C3.53069 14.7502 3.75419 14.7501 3.96003 14.75H3.96004H3.96005L3.99489 14.75H5.15867C5.00894 15.6739 4.80826 16.8201 4.63349 17.7975L4.61407 17.9057C4.45344 18.7985 4.32017 19.5392 4.783 20.3896C4.99569 20.7804 5.23645 21.0653 5.55894 21.2914C5.83742 21.4866 6.15812 21.6211 6.46291 21.7489L6.46298 21.7489L6.46301 21.7489L6.50353 21.7659C7.72636 22.2793 9.52483 22.75 12.0001 22.75C14.4753 22.75 16.2737 22.2793 17.4966 21.7659L17.5371 21.7489L17.5371 21.7489C17.8419 21.6211 18.1627 21.4866 18.4412 21.2914C18.7636 21.0653 19.0044 20.7804 19.2171 20.3896C19.6799 19.5392 19.5467 18.7985 19.386 17.9057L19.3666 17.7975C19.1918 16.8201 18.9912 15.6739 18.8414 14.75H20.0052L20.0401 14.75C20.2459 14.7501 20.4694 14.7502 20.6582 14.7243C20.8807 14.6939 21.1625 14.6155 21.398 14.3755C21.6323 14.1368 21.7063 13.8559 21.7328 13.6322C21.7552 13.4439 21.7509 13.2221 21.7468 13.0194V13.0193V13.0193L21.7462 12.9845C21.6674 8.91802 21.1173 6.02966 20.4147 4.1725C19.9336 2.90065 18.7675 2.17907 17.5972 1.91918L17.1659 1.82339L14.6643 1.26784C14.3284 1.19325 13.9849 1.35674 13.8309 1.66442C13.4754 2.3751 12.7585 2.75 12.0001 2.75C11.2416 2.75 10.5247 2.3751 10.1692 1.66442ZM7.03625 13.4751C6.97144 13.542 6.86485 13.4853 6.87767 13.3931C7.47726 9.08035 7.69946 5.60205 7.73957 3.31295C7.74117 3.22186 7.80483 3.14439 7.89378 3.12463L9.0564 2.86644C9.10783 2.85502 9.16105 2.87521 9.19345 2.91675C9.2109 2.93912 9.22108 2.96564 9.22224 2.99398C9.29242 4.70965 9.26314 7.3777 8.76185 9.67496C8.40489 11.3108 7.84402 12.6422 7.03625 13.4751ZM14.7777 2.9837C14.7783 2.96233 14.7787 2.95135 14.7938 2.93193C14.8263 2.89026 14.8917 2.85504 14.9433 2.8665L16.1056 3.12463C16.1946 3.14439 16.2582 3.22186 16.2598 3.31295C16.3 5.60206 16.5222 9.08041 17.1218 13.3932C17.1346 13.4854 17.028 13.5421 16.9632 13.4753C16.1553 12.6424 15.5945 11.3109 15.2375 9.67499C14.7363 7.37748 14.7072 4.70887 14.7774 2.99319C14.7775 2.9898 14.7776 2.98665 14.7777 2.9837Z" fill="#141B34"/>
</svg>
