<svg width="24" height="24" viewBox="0 0 24 24" fill="none" xmlns="http://www.w3.org/2000/svg">
<path d="M13.4224 12.3972C13.4965 12.3122 13.6935 12.086 13.8123 11.9631C14.0579 11.7091 14.4133 11.3704 14.8552 11.0305C15.7217 10.364 17.0083 9.625 18.5 9.625C19.8496 9.625 20.9152 9.92576 21.6575 10.5228C22.4212 11.137 22.75 11.9904 22.75 12.875C22.75 13.7596 22.4212 14.613 21.6575 15.2272C20.9152 15.8242 19.8496 16.125 18.5 16.125C17.0083 16.125 15.7217 15.386 14.8552 14.7195C14.4133 14.3796 14.0579 14.0409 13.8123 13.7869C13.6937 13.6642 13.4969 13.4383 13.4225 13.3528L13.4143 13.3435C13.1952 13.0696 13.1955 12.68 13.4147 12.4061L13.4224 12.3972Z" fill="#141B34"/>
<path d="M10.5776 12.3972C10.5035 12.3122 10.3065 12.086 10.1877 11.9631C9.94212 11.7091 9.58668 11.3704 9.14478 11.0305C8.27831 10.364 6.99171 9.625 5.5 9.625C4.15035 9.625 3.08478 9.92576 2.34245 10.5228C1.57879 11.137 1.25 11.9904 1.25 12.875C1.25 13.7596 1.57879 14.613 2.34245 15.2272C3.08479 15.8242 4.15035 16.125 5.5 16.125C6.99171 16.125 8.27831 15.386 9.14478 14.7195C9.58668 14.3796 9.94212 14.0409 10.1877 13.7869C10.3063 13.6642 10.5031 13.4383 10.5775 13.3528L10.5857 13.3435C10.8048 13.0696 10.8045 12.68 10.5853 12.4061L10.5776 12.3972Z" fill="#141B34"/>
<path d="M12.4778 10.4526C12.5628 10.3785 12.789 10.1815 12.9119 10.0627C13.1659 9.81712 13.5045 9.46168 13.8445 9.01978C14.511 8.15331 15.25 6.86671 15.25 5.375C15.25 4.02535 14.9492 2.95978 14.3522 2.21745C13.738 1.45379 12.8846 1.125 12 1.125C11.1154 1.125 10.262 1.45379 9.6478 2.21745C9.05076 2.95978 8.75 4.02535 8.75 5.375C8.75 6.86671 9.48901 8.15331 10.1555 9.01978C10.4954 9.46168 10.8341 9.81712 11.0881 10.0627C11.2108 10.1813 11.4367 10.3781 11.5222 10.4525L11.5315 10.4607C11.8054 10.6798 12.195 10.6795 12.4689 10.4603L12.4778 10.4526Z" fill="#141B34"/>
<path fill-rule="evenodd" clip-rule="evenodd" d="M12.8323 9.3203C12.6468 9.0421 12.3346 8.875 12.0002 8.875C11.6659 8.875 11.3536 9.0421 11.1682 9.3203L9.16817 12.3203C8.90375 12.7169 8.95605 13.245 9.29311 13.5821C9.78289 14.0719 10.2775 14.6526 10.7613 15.2801C10.1185 16.2006 9.52593 17.1385 9.01773 17.9855C8.44549 18.9392 7.96902 19.7969 7.63537 20.4165C7.47005 20.7235 7.20124 21.2432 7.10847 21.4226L7.10579 21.4278C6.8588 21.9218 7.05903 22.5224 7.55301 22.7694C8.04695 23.0164 8.64782 22.8157 8.89484 22.3218C8.98045 22.1563 9.23513 21.6641 9.39632 21.3647C9.71892 20.7656 10.1799 19.9358 10.7327 19.0145C11.1205 18.3681 11.5482 17.6858 12.0002 17.0114C12.4522 17.6858 12.8799 18.3681 13.2677 19.0145C13.8205 19.9358 14.2815 20.7656 14.6041 21.3647C14.7653 21.6641 15.0202 22.1568 15.1058 22.3223C15.3529 22.8162 15.9535 23.0164 16.4474 22.7694C16.9414 22.5224 17.1413 21.9211 16.8943 21.4272L16.8921 21.4228C16.7998 21.2443 16.5307 20.724 16.3651 20.4165C16.0314 19.7969 15.5549 18.9392 14.9827 17.9855C14.4745 17.1385 13.8819 16.2006 13.2392 15.2801C13.723 14.6526 14.2176 14.0719 14.7073 13.5821C15.0444 13.245 15.0967 12.7169 14.8323 12.3203L12.8323 9.3203ZM12.7266 12.7668C12.482 13.0387 12.2395 13.3251 12.0005 13.6216C11.7615 13.3251 11.519 13.0387 11.2744 12.7668L12.0005 11.6777L12.7266 12.7668Z" fill="#141B34"/>
</svg>
