<svg width="24" height="25" viewBox="0 0 24 25" fill="none" xmlns="http://www.w3.org/2000/svg">
<path d="M10.0591 1.75H9.98773C8.20243 1.74997 6.76373 1.74995 5.6323 1.90102C4.45788 2.05783 3.46918 2.39323 2.68379 3.17319C1.89817 3.95338 1.56012 4.93595 1.40212 6.10306C1.24995 7.22702 1.24997 8.65604 1.25 10.4287V10.5712C1.24997 12.3439 1.24995 13.773 1.40212 14.8969C1.56012 16.0641 1.89817 17.0466 2.68379 17.8268C3.46918 18.6068 4.45788 18.9422 5.6323 19.099C6.7223 19.2445 8.09745 19.2498 9.79298 19.25C9.81348 19.5807 9.79741 20.0402 9.74783 20.3083C9.68186 20.665 9.64888 20.8434 9.37722 21.0694C9.10556 21.2954 8.83852 21.2954 8.30445 21.2954H7.11399C6.57426 21.2954 6.13672 21.733 6.13672 22.2727C6.13672 22.8124 6.57426 23.25 7.11399 23.25H16.8867C17.4265 23.25 17.864 22.8124 17.864 22.2727C17.864 21.733 17.4265 21.2954 16.8867 21.2954H15.6962C15.1621 21.2954 14.8951 21.2954 14.6234 21.0694C14.3518 20.8434 14.3188 20.665 14.2528 20.3083C14.2032 20.0402 14.1872 19.5807 14.2077 19.25C15.9186 19.2499 17.3047 19.2455 18.4019 19.099C19.5763 18.9422 20.565 18.6068 21.3504 17.8268C22.4297 16.755 22.6725 15.2895 22.7491 13.4571C22.7716 12.9206 22.3526 12.4676 21.8133 12.4453C21.2741 12.423 20.8187 12.8398 20.7963 13.3763C20.7207 15.1845 20.4727 15.951 19.9696 16.4507C19.608 16.8098 19.1002 17.0439 18.1419 17.1718C17.1557 17.3035 15.8486 17.3056 13.9751 17.3056H10.0591C8.18557 17.3056 6.87854 17.3035 5.89229 17.1718C4.93399 17.0439 4.42622 16.8098 4.06466 16.4507C3.70333 16.0918 3.4679 15.5883 3.33917 14.6374C3.20663 13.6584 3.20455 12.3608 3.20455 10.5C3.20455 8.63923 3.20663 7.34162 3.33917 6.3626C3.4679 5.41172 3.70333 4.90815 4.06466 4.54932C4.42622 4.19025 4.93399 3.95614 5.89229 3.82819C6.87854 3.6965 8.18557 3.69445 10.0591 3.69445C10.5989 3.69445 11.0364 3.25917 11.0364 2.72222C11.0364 2.18528 10.5989 1.75 10.0591 1.75Z" fill="#141B34"/>
<path d="M15.3239 2.32275C15.91 2.03431 16.6192 1.75 17.5002 1.75C18.3811 1.75 19.0906 2.0343 19.677 2.32271C19.8715 2.41841 20.0423 2.50789 20.199 2.59005C20.5528 2.77543 20.8355 2.92358 21.1602 3.02196C21.3642 3.08373 21.5709 3.14634 21.7153 3.2001C21.8412 3.24694 22.0684 3.33594 22.2435 3.52072C22.3984 3.6843 22.4726 3.86418 22.5157 4.00776C22.5517 4.1276 22.5823 4.28901 22.6048 4.40766C23.2249 7.67405 21.8602 10.8182 18.5213 12.0327C18.2142 12.1445 17.9244 12.25 17.5017 12.25C17.0791 12.25 16.7892 12.1445 16.4822 12.0327C13.1433 10.8183 11.7772 7.67434 12.3972 4.40771C12.4196 4.28907 12.4502 4.12769 12.4862 4.00785C12.5293 3.86428 12.6034 3.68442 12.7583 3.52085C12.9334 3.33606 13.1606 3.24702 13.2865 3.20018C13.4309 3.1464 13.6376 3.08375 13.8416 3.02195C14.1661 2.92359 14.4485 2.7755 14.8019 2.59017C14.9587 2.50799 15.1294 2.41849 15.3239 2.32275Z" fill="#141B34"/>
<path fill-rule="evenodd" clip-rule="evenodd" d="M10 15.5C10 14.9477 10.4477 14.5 11 14.5H13C13.5523 14.5 14 14.9477 14 15.5C14 16.0523 13.5523 16.5 13 16.5H11C10.4477 16.5 10 16.0523 10 15.5Z" fill="#141B34"/>
</svg>
