<svg width="24" height="24" viewBox="0 0 24 24" fill="none" xmlns="http://www.w3.org/2000/svg">
<path d="M12 1.25C11.6967 1.25 11.4232 1.43273 11.3071 1.71299C11.191 1.99324 11.2552 2.31583 11.4697 2.53033C11.5525 2.60649 11.6461 2.83043 11.3586 3.11697C11.0192 3.52898 10.3785 3.97225 9.66459 4.32918C8.52386 4.69703 7.53292 5.86957 7.21415 7.02498C7.05569 7.6624 7.08564 8.08959 7.19006 8.3724C7.2875 8.63632 7.47824 8.85322 7.8237 9.02624C8.58118 9.40563 9.94052 9.50158 11.9071 9.25575C12.3181 9.20438 12.693 9.49592 12.7443 9.90694C12.7957 10.318 12.5042 10.6928 12.0932 10.7442C10.1008 10.9932 8.34217 10.9635 7.15196 10.3674C6.52358 10.0527 6.03303 9.56938 5.78291 8.89194C5.69473 8.65312 5.64065 8.40158 5.6172 8.13909C5.57017 7.61285 5.54665 7.34973 5.37287 7.28236C5.19909 7.21499 5.04663 7.35476 4.74172 7.6343C4.49556 7.85997 4.27902 8.11547 4.09522 8.38325C3.57419 9.14233 3.25 10.0913 3.25 11C3.25 11.9751 3.54516 12.9202 4.19832 13.6294C4.86079 14.3487 5.82262 14.75 7 14.75C8.03296 14.75 13.8857 14.0182 16.0034 13.7534L16.1471 13.7354C18.7963 13.2056 20.75 11.5291 20.75 9.5C20.75 8.17341 20.2037 7.08599 19.3065 6.3437C18.5905 5.75135 17.6796 5.40047 16.6971 5.28897C16.354 3.0029 14.3817 1.25 12 1.25Z" fill="#141B34"/>
<path d="M6.05934 17.0468L6.33993 18.2184C6.51609 18.954 6.6583 19.5478 6.81208 20.0241C6.97089 20.5161 7.1577 20.9356 7.44899 21.3067C7.80112 21.7552 8.2464 22.119 8.75417 22.3695C9.17716 22.5782 9.62123 22.6673 10.1236 22.7093C10.6071 22.7498 11.1965 22.7498 11.9202 22.7498H11.9849C12.7424 22.7498 13.3584 22.7498 13.8623 22.7065C14.3854 22.6615 14.8468 22.5662 15.2826 22.3423C15.8046 22.0741 16.2574 21.6856 16.6076 21.2094C16.8979 20.8147 17.0744 20.3705 17.2173 19.8509C17.3559 19.3473 17.4761 18.72 17.6251 17.9418L18.0449 15.7512C18.136 15.2755 18.1816 15.0376 18.0578 14.9244C17.9339 14.8113 17.6889 14.8815 17.1988 15.022C16.9479 15.094 16.6948 15.1554 16.4412 15.2061C15.3824 15.3385 13.1314 15.624 11.2682 15.8408C9.46684 16.0503 7.62791 16.2498 6.99997 16.2498C6.92159 16.2498 6.84359 16.2484 6.76601 16.2456C6.32561 16.2298 6.10541 16.2219 6.01118 16.337C5.91694 16.4522 5.96441 16.6504 6.05934 17.0468Z" fill="#141B34"/>
</svg>
