<svg width="24" height="24" viewBox="0 0 24 24" fill="none" xmlns="http://www.w3.org/2000/svg">
<path fill-rule="evenodd" clip-rule="evenodd" d="M8.18592 1.88943C9.19949 1.484 10.5483 1.25 12 1.25C13.4517 1.25 14.8005 1.484 15.8141 1.88943C16.3188 2.09131 16.7775 2.35046 17.1224 2.67659C17.4229 2.96078 17.6743 3.33475 17.7357 3.7871L21.2128 16.2304C21.232 16.299 21.2435 16.368 21.2479 16.4363C21.5595 16.9005 21.75 17.4258 21.75 18C21.75 18.7963 21.3838 19.4985 20.836 20.074C20.292 20.6457 19.5402 21.1264 18.6686 21.5138C16.9234 22.2894 14.5651 22.75 12 22.75C9.4349 22.75 7.07658 22.2894 5.33143 21.5138C4.45981 21.1264 3.70801 20.6457 3.16397 20.074C2.61625 19.4985 2.25 18.7963 2.25 18C2.25 17.4258 2.44045 16.9005 2.75208 16.4363C2.7565 16.368 2.76804 16.299 2.78722 16.2304L6.26433 3.78709C6.32571 3.33475 6.57709 2.96078 6.87759 2.67659C7.22245 2.35046 7.68122 2.09131 8.18592 1.88943ZM7.74334 5.91185L5.34959 14.4782C7.09292 13.7074 9.44379 13.25 12 13.25C14.5562 13.25 16.9071 13.7074 18.6504 14.4782L16.2567 5.91185C16.1146 5.98348 15.9664 6.04964 15.8141 6.11057C14.8005 6.516 13.4517 6.75 12 6.75C10.5483 6.75 9.19949 6.516 8.18592 6.11057C8.03359 6.04964 7.88543 5.98348 7.74334 5.91185Z" fill="#141B34"/>
</svg>
