<svg width="24" height="24" viewBox="0 0 24 24" fill="none" xmlns="http://www.w3.org/2000/svg">
<path d="M1.25 5.99988C1.25 3.37653 3.37665 1.24988 6 1.24988C8.62335 1.24988 10.75 3.37653 10.75 5.99988C10.75 8.62323 8.62335 10.7499 6 10.7499C3.37665 10.7499 1.25 8.62323 1.25 5.99988Z" fill="#141B34"/>
<path d="M1.25 17.9999C1.25 15.3765 3.37665 13.2499 6 13.2499C8.62335 13.2499 10.75 15.3765 10.75 17.9999C10.75 20.6232 8.62335 22.7499 6 22.7499C3.37665 22.7499 1.25 20.6232 1.25 17.9999Z" fill="#141B34"/>
<path d="M13.25 17.9999C13.25 15.3765 15.3766 13.2499 18 13.2499C20.6234 13.2499 22.75 15.3765 22.75 17.9999C22.75 20.6232 20.6234 22.7499 18 22.7499C15.3766 22.7499 13.25 20.6232 13.25 17.9999Z" fill="#141B34"/>
<path d="M14.25 5.24988H21.25C21.8023 5.24988 22.25 5.69759 22.25 6.24988C22.25 6.80216 21.8023 7.24988 21.25 7.24988L14.25 7.24988C13.6977 7.24988 13.25 6.80216 13.25 6.24988C13.25 5.69759 13.6977 5.24988 14.25 5.24988Z" fill="#141B34"/>
</svg>
