<svg width="24" height="25" viewBox="0 0 24 25" fill="none" xmlns="http://www.w3.org/2000/svg">
<path fill-rule="evenodd" clip-rule="evenodd" d="M14.9223 2.92838C13.2679 1.35721 10.7321 1.35721 9.07766 2.92838C7.79766 4.14397 6.22927 5.81956 4.97628 7.74155C3.72892 9.6549 2.75 11.8797 2.75 14.178C2.75 18.6459 6.25744 23.25 12 23.25C17.7426 23.25 21.25 18.6459 21.25 14.178C21.25 11.8797 20.2711 9.65491 19.0237 7.74155C17.7707 5.81956 16.2023 4.14397 14.9223 2.92838ZM15 14.4999C15 16.1568 13.6569 17.4999 12 17.4999C11.4477 17.4999 11 17.9477 11 18.4999C11 19.0522 11.4477 19.4999 12 19.4999C14.7614 19.4999 17 17.2614 17 14.4999C17 13.9477 16.5523 13.4999 16 13.4999C15.4477 13.4999 15 13.9477 15 14.4999Z" fill="#141B34"/>
</svg>
