<svg width="24" height="24" viewBox="0 0 24 24" fill="none" xmlns="http://www.w3.org/2000/svg">
<path fill-rule="evenodd" clip-rule="evenodd" d="M20.5781 10.1362C20.8315 10.1619 21.1168 10.2444 21.3634 10.4822C21.613 10.723 21.7043 11.0091 21.7349 11.2657C21.7593 11.4705 21.7476 11.7456 21.7387 11.9555C21.6515 14.0382 21.1406 16.6193 19.7683 18.3611C19.0664 19.2519 18.1262 19.9376 16.9074 20.1927C15.9176 20.3999 14.8012 20.3114 13.5534 19.8922C15.0288 18.0532 16.5395 16.8842 17.5549 16.2073C18.0144 15.9009 18.1386 15.2801 17.8322 14.8205C17.5259 14.361 16.905 14.2368 16.4455 14.5432C15.3196 15.2938 13.67 16.5713 12.0571 18.5616C12.1347 18.7661 12.2214 18.974 12.3175 19.1852C12.3943 19.3541 12.531 19.4886 12.7011 19.5626C12.9918 19.689 13.2759 19.7986 13.5534 19.8919C12.9757 20.612 12.4034 21.4348 11.8684 22.3711C11.5944 22.8506 10.9835 23.0172 10.504 22.7432C10.0245 22.4692 9.85792 21.8583 10.1319 21.3788C10.7418 20.3116 11.3963 19.3767 12.0569 18.5615C11.5595 17.251 11.4366 16.0771 11.6483 15.0369C11.8947 13.8265 12.5762 12.8871 13.4628 12.1813C15.1973 10.8006 17.783 10.2549 19.8849 10.1419C20.0984 10.1304 20.3732 10.1155 20.5781 10.1362Z" fill="#141B34"/>
<path d="M13.7686 2.19466C12.1979 0.768285 9.80212 0.768285 8.23144 2.19466C7.02523 3.29005 5.54488 4.80201 4.36108 6.53843C3.18389 8.26515 2.25 10.2866 2.25 12.3851C2.25 15.7432 4.51798 19.3853 8.40039 20.4946C8.59851 20.5512 8.69756 20.5795 8.79211 20.5423C8.88666 20.5051 8.94359 20.4108 9.05746 20.2221C9.42661 19.6103 9.81388 19.0419 10.2024 18.5123C10.2889 18.3944 10.3321 18.3354 10.345 18.2695C10.3578 18.2036 10.3393 18.1305 10.3023 17.9844C10.0187 16.8649 9.96671 15.7766 10.1782 14.7375C10.508 13.1177 11.4219 11.8884 12.5284 11.0076C14.0907 9.76393 16.1334 9.12761 17.9897 8.83466C18.3136 8.78354 18.4755 8.75798 18.5486 8.6596C18.5687 8.63253 18.5831 8.60444 18.5934 8.57234C18.6308 8.45565 18.5591 8.3129 18.4158 8.02741C17.1851 5.67333 15.3146 3.5987 13.7686 2.19466Z" fill="#141B34"/>
</svg>
