<svg width="24" height="24" viewBox="0 0 24 24" fill="none" xmlns="http://www.w3.org/2000/svg">
<path d="M5.95623 2.25C5.24916 2.25 4.53908 2.31208 4.02038 2.76582C3.49987 3.22114 3.34955 3.91518 3.26098 4.60513L3.23611 4.79882C3.20914 5.00893 3.19565 5.11398 3.25538 5.18187C3.31512 5.24976 3.42103 5.24976 3.63286 5.24976H8.2796C8.49143 5.24976 8.59734 5.24976 8.65707 5.18187C8.7168 5.11398 8.70331 5.00893 8.67634 4.79882L8.65148 4.60513C8.56291 3.91518 8.41258 3.22114 7.89208 2.76582C7.37338 2.31208 6.6633 2.25 5.95623 2.25Z" fill="#141B34"/>
<path d="M8.9716 7.09882C8.95026 6.93257 8.93959 6.84945 8.88294 6.7996C8.82628 6.74976 8.74248 6.74976 8.57486 6.74976H3.3376C3.16998 6.74976 3.08617 6.74976 3.02952 6.7996C2.97287 6.84945 2.9622 6.93257 2.94085 7.09882L1.30828 19.8161C1.27879 20.0451 1.24742 20.2888 1.25017 20.4955C1.25337 20.7358 1.30149 21.0539 1.54686 21.3294C1.79092 21.6034 2.1 21.6889 2.33634 21.7217C2.5415 21.7502 2.78821 21.7501 3.02227 21.75L9.99999 21.75C10.2155 21.75 10.4207 21.6573 10.5631 21.4954C10.7055 21.3336 10.7713 21.1183 10.7439 20.9045L8.9716 7.09882Z" fill="#141B34"/>
<path fill-rule="evenodd" clip-rule="evenodd" d="M22.3183 6.32082C22.5818 6.44425 22.7501 6.709 22.7501 7.00001L22.7501 20.0344C22.7501 20.0361 22.7503 20.4617 22.7251 20.6486C22.6957 20.8679 22.6198 21.1481 22.384 21.3839C22.1482 21.6197 21.868 21.6955 21.6487 21.725C21.4615 21.7502 21.2397 21.7501 21.0346 21.75L12.6871 21.75C12.4443 21.75 12.3229 21.75 12.2635 21.685C12.204 21.6201 12.2165 21.4796 12.2414 21.1987C12.2556 21.0385 12.2527 20.8759 12.2318 20.7136L10.853 9.97303C10.8381 9.85663 10.8306 9.79842 10.853 9.74755C10.8754 9.69668 10.9233 9.66286 11.0192 9.59522L15.5678 6.38713C15.7968 6.22566 16.0966 6.20523 16.3453 6.33415C16.594 6.46308 16.7501 6.71987 16.7501 7.00001L16.7523 9.53991C16.7527 9.9088 16.7528 10.0933 16.8679 10.1471C16.983 10.201 17.1248 10.083 17.4083 9.84697L21.52 6.42384C21.7436 6.23754 22.0547 6.19738 22.3183 6.32082ZM14.2501 15C14.2501 14.5858 14.5859 14.25 15.0001 14.25H16.0001C16.4143 14.25 16.7501 14.5858 16.7501 15C16.7501 15.4142 16.4143 15.75 16.0001 15.75H15.0001C14.5859 15.75 14.2501 15.4142 14.2501 15ZM19.0001 14.25C18.5859 14.25 18.2501 14.5858 18.2501 15C18.2501 15.4142 18.5859 15.75 19.0001 15.75H20.0001C20.4143 15.75 20.7501 15.4142 20.7501 15C20.7501 14.5858 20.4143 14.25 20.0001 14.25H19.0001Z" fill="#141B34"/>
</svg>
