<svg width="24" height="25" viewBox="0 0 24 25" fill="none" xmlns="http://www.w3.org/2000/svg">
<path fill-rule="evenodd" clip-rule="evenodd" d="M9.18557 2.95052C9.2129 3.50213 8.7879 3.97146 8.23629 3.9988C6.16432 4.10148 5.19943 4.40811 4.55377 5.05377C3.90811 5.69943 3.60148 6.66432 3.4988 8.73629C3.47146 9.2879 3.00213 9.71291 2.45052 9.68557C1.89892 9.65823 1.47391 9.1889 1.50125 8.6373C1.60669 6.50982 1.92267 4.85645 3.13956 3.63956C4.35645 2.42267 6.00982 2.10669 8.13729 2.00125C8.6889 1.97391 9.15823 2.39892 9.18557 2.95052ZM14.8145 2.95052C14.8418 2.39892 15.3111 1.97391 15.8628 2.00125C17.9902 2.10669 19.6436 2.42267 20.8605 3.63956C22.0774 4.85645 22.3934 6.50982 22.4988 8.6373C22.5261 9.1889 22.1011 9.65823 21.5495 9.68557C20.9979 9.71291 20.5286 9.2879 20.5012 8.73629C20.3986 6.66432 20.0919 5.69943 19.4463 5.05377C18.8006 4.40811 17.8357 4.10148 15.7638 3.9988C15.2121 3.97146 14.7871 3.50213 14.8145 2.95052ZM2.45052 15.3145C3.00213 15.2871 3.47146 15.7121 3.4988 16.2638C3.60148 18.3357 3.90811 19.3006 4.55377 19.9463C5.19943 20.5919 6.16432 20.8986 8.23629 21.0012C8.78789 21.0286 9.2129 21.4979 9.18556 22.0495C9.15822 22.6011 8.68889 23.0261 8.13729 22.9988C6.00982 22.8934 4.35645 22.5774 3.13956 21.3605C1.92267 20.1436 1.60669 18.4902 1.50125 16.3628C1.47391 15.8111 1.89892 15.3418 2.45052 15.3145ZM21.5495 15.3145C22.1011 15.3418 22.5261 15.8111 22.4988 16.3628C22.3934 18.4902 22.0774 20.1436 20.8605 21.3605C19.6436 22.5774 17.9902 22.8934 15.8628 22.9988C15.3111 23.0261 14.8418 22.6011 14.8145 22.0495C14.7871 21.4979 15.2121 21.0286 15.7638 21.0012C17.8357 20.8986 18.8006 20.5919 19.4463 19.9463C20.0919 19.3006 20.3986 18.3357 20.5012 16.2638C20.5286 15.7121 20.9979 15.2871 21.5495 15.3145Z" fill="#141B34"/>
<path fill-rule="evenodd" clip-rule="evenodd" d="M10.4805 5.67292C11.9817 5.32545 13.5846 5.50459 14.9464 6.18379C15.4406 6.43028 15.6414 7.03076 15.3949 7.52498C15.1484 8.01921 14.5479 8.22003 14.0537 7.97354C13.1187 7.50721 11.9921 7.37592 10.9315 7.6214C9.87108 7.86686 9.0082 8.45702 8.50142 9.21525C8.19453 9.67441 7.57351 9.79785 7.11435 9.49095C6.65518 9.18406 6.53174 8.56304 6.83864 8.10388C7.65798 6.878 8.97926 6.02041 10.4805 5.67292ZM16.0321 8.56653C16.5158 8.30001 17.124 8.47609 17.3905 8.95981C17.7857 9.67711 18 10.4761 18 11.2991C18 11.299 18 11.2991 18 11.2991V14.1806C18 15.6314 17.3174 17.017 16.1893 17.9916C15.0657 18.9622 13.535 19.5 12 19.5C11.4477 19.5 11 19.0523 11 18.5C11 17.9477 11.4477 17.5 12 17.5C13.0914 17.5 14.1482 17.1119 14.8818 16.4781C15.6108 15.8484 16 14.9987 16 14.1806V11.2991C16 10.8271 15.8777 10.3586 15.6388 9.92496C15.3723 9.44124 15.5483 8.83305 16.0321 8.56653ZM11.4154 9.53051C11.526 8.98941 12.0543 8.64042 12.5954 8.751C13.6657 8.96976 14.681 9.85812 14.6665 11.0978V11.9782C14.6665 12.5305 14.2188 12.9782 13.6665 12.9782C13.1142 12.9782 12.6665 12.5305 12.6665 11.9782V11.0911L12.6667 11.0755C12.667 11.0559 12.6599 10.996 12.5822 10.9132C12.5037 10.8295 12.3713 10.7466 12.1949 10.7105C11.6538 10.5999 11.3048 10.0716 11.4154 9.53051ZM7 10.7783C7.55228 10.7783 8 11.226 8 11.7783V14.1809C7.99964 15.0872 8.47343 16.0346 9.38486 16.6901C9.83323 17.0126 9.93531 17.6374 9.61286 18.0858C9.2904 18.5342 8.66552 18.6363 8.21714 18.3138C6.83412 17.3192 5.9995 15.7913 6 14.1809V11.7783C6 11.226 6.44772 10.7783 7 10.7783ZM10.3335 11.3567C10.8858 11.3567 11.3335 11.8044 11.3335 12.3567V13.8805L11.3334 13.8998C11.3328 13.9273 11.3407 13.976 11.3923 14.0395C11.4714 14.1371 11.6593 14.2503 11.941 14.2672C12.2201 14.284 12.4439 14.1962 12.5626 14.087C12.9689 13.7129 13.6016 13.739 13.9756 14.1453C14.3497 14.5516 14.3236 15.1842 13.9173 15.5583C13.3218 16.1066 12.5285 16.306 11.8214 16.2636C11.117 16.2214 10.3498 15.9293 9.83889 15.2993C9.51461 14.8995 9.32606 14.4018 9.33355 13.8723V12.3567C9.33355 11.8044 9.78126 11.3567 10.3335 11.3567Z" fill="#141B34"/>
</svg>
