<svg width="24" height="24" viewBox="0 0 24 24" fill="none" xmlns="http://www.w3.org/2000/svg">
<path fill-rule="evenodd" clip-rule="evenodd" d="M6.75 2.25C6.75 1.69772 6.30228 1.25 5.75 1.25C5.19772 1.25 4.75 1.69772 4.75 2.25V15.5C4.75 19.5041 7.99594 22.75 12 22.75C16.0041 22.75 19.25 19.5041 19.25 15.5L19.25 8.94801C19.25 8.04954 19.2501 7.3003 19.1701 6.70552C19.0857 6.07773 18.9 5.51093 18.4445 5.05546C17.9891 4.59999 17.4223 4.41432 16.7945 4.32991C16.1997 4.24995 15.4505 4.24997 14.552 4.25L7.35 4.25C7.06716 4.25 6.92574 4.25 6.83787 4.16213C6.75 4.07427 6.75 3.93284 6.75 3.65L6.75 2.25ZM7.57264 7.66972C7.50049 7.83009 7.50049 8.02959 7.50049 8.42857V9C7.50049 9.4645 7.50049 9.69675 7.54006 9.89109C7.7579 10.9608 8.83658 11.7998 10.2119 11.9692C10.4618 12 11.4033 12 12.0005 12C12.5977 12 13.5392 12 13.789 11.9692C15.1644 11.7998 16.2431 10.9608 16.4609 9.89109C16.5005 9.69675 16.5005 9.4645 16.5005 9V8.42857C16.5005 8.02959 16.5005 7.83009 16.4283 7.66972C16.2991 7.38247 16.0087 7.15663 15.6394 7.05612C15.4332 7 15.1767 7 14.6638 7H9.33722C8.82424 7 8.56775 7 8.36156 7.05612C7.99224 7.15663 7.70187 7.38247 7.57264 7.66972ZM11.0005 17.25C10.5863 17.25 10.2505 17.5858 10.2505 18C10.2505 18.4142 10.5863 18.75 11.0005 18.75H13.0005C13.4147 18.75 13.7505 18.4142 13.7505 18C13.7505 17.5858 13.4147 17.25 13.0005 17.25H11.0005Z" fill="#141B34"/>
</svg>
