<svg width="24" height="24" viewBox="0 0 24 24" fill="none" xmlns="http://www.w3.org/2000/svg">
<path fill-rule="evenodd" clip-rule="evenodd" d="M8 1.93469C8 1.63728 8 1.48858 7.90414 1.39956C7.80829 1.31054 7.66261 1.32134 7.37127 1.34293C7.03337 1.36797 6.71451 1.39979 6.41371 1.44024C4.96897 1.63448 3.82895 2.03982 2.93414 2.93463C2.03933 3.82943 1.63399 4.96946 1.43975 6.41419C1.3993 6.715 1.36748 7.03386 1.34244 7.37176C1.32085 7.6631 1.31006 7.80877 1.39907 7.90463C1.48809 8.00049 1.63679 8.00049 1.93421 8.00049H14C14.5523 8.00049 15 8.4482 15 9.00049C15 9.55277 14.5523 10.0005 14 10.0005H10.6C10.3172 10.0005 10.1757 10.0005 10.0879 10.0884C10 10.1762 10 10.3176 10 10.6005V22.1504C10 22.4313 10 22.5717 10.0875 22.6595C10.1749 22.7473 10.3149 22.7479 10.5949 22.7489C11.0241 22.7505 11.473 22.7505 11.9426 22.7505C11.9743 22.7505 12 22.7248 12 22.6931V22.0005C12 18.6868 14.6863 16.0005 18 16.0005C18.5523 16.0005 19 16.4482 19 17.0005C19 17.5528 18.5523 18.0005 18 18.0005C15.7909 18.0005 14 19.7913 14 22.0005V22.1403C14 22.4259 14 22.5687 14.0896 22.6568C14.1791 22.745 14.3211 22.7427 14.6052 22.7382C15.7556 22.7199 16.7421 22.6742 17.5863 22.5607C19.031 22.3665 20.1711 21.9612 21.0659 21.0664C21.9607 20.1715 22.366 19.0315 22.5603 17.5868C22.75 16.1753 22.75 14.3663 22.75 12.0579V11.9431C22.75 11.4735 22.75 11.0246 22.7484 10.5954C22.7474 10.3154 22.7468 10.1754 22.659 10.088C22.5712 10.0005 22.4308 10.0005 22.1499 10.0005H18C17.4477 10.0005 17 9.55277 17 9.00049C17 8.4482 17.4477 8.00049 18 8.00049H22.0658C22.3632 8.00049 22.5119 8.00049 22.6009 7.90463C22.6899 7.80877 22.6791 7.6631 22.6576 7.37176C22.6325 7.03386 22.6007 6.715 22.5603 6.41419C22.366 4.96946 21.9607 3.82943 21.0659 2.93463C20.1711 2.03982 19.031 1.63448 17.5863 1.44024C16.1748 1.25047 14.3658 1.25048 12.0574 1.25049H12.0574H11.9426H11.9426C11.473 1.25049 11.0241 1.25048 10.5949 1.25208C10.3149 1.25312 10.1749 1.25364 10.0875 1.34144C10 1.42924 10 1.56967 10 1.85054L10 5.00049C10 5.55277 9.55229 6.00049 9 6.00049C8.44772 6.00049 8 5.55277 8 5.00049L8 1.93469ZM7.37127 22.658C7.66262 22.6796 7.80829 22.6904 7.90414 22.6014C8 22.5124 8 22.3637 8 22.0663V10.6005C8 10.3176 8 10.1762 7.91213 10.0884C7.82426 10.0005 7.68284 10.0005 7.4 10.0005H1.85005C1.56919 10.0005 1.42875 10.0005 1.34095 10.088C1.25315 10.1754 1.25263 10.3154 1.25159 10.5954C1.25 11.0245 1.25 11.4735 1.25 11.9431V11.9431V12.0579V12.0579C1.24999 14.3663 1.24998 16.1753 1.43975 17.5868C1.63399 19.0315 2.03933 20.1715 2.93414 21.0664C3.82895 21.9612 4.96897 22.3665 6.41371 22.5607C6.71451 22.6012 7.03337 22.633 7.37127 22.658Z" fill="#141B34"/>
</svg>
