<svg width="24" height="24" viewBox="0 0 24 24" fill="none" xmlns="http://www.w3.org/2000/svg">
<path fill-rule="evenodd" clip-rule="evenodd" d="M11.6838 1.17632C11.889 1.10789 12.111 1.10789 12.3162 1.17632C13.3276 1.51345 13.9844 2.18264 14.3762 2.73126C14.5013 2.90642 14.6027 3.07363 14.6832 3.22118C15.1399 3.14375 15.5897 3.125 16 3.125C16.5523 3.125 17 3.57272 17 4.125C17 5.77949 16.5873 7.26879 15.7238 8.36782C14.8395 9.49335 13.5449 10.125 12 10.125C10.4551 10.125 9.16053 9.49335 8.27618 8.36782C7.41265 7.26879 7 5.77949 7 4.125C7 3.57272 7.44772 3.125 8 3.125C8.41071 3.125 8.86048 3.14382 9.31681 3.22118C9.39728 3.07363 9.49865 2.90642 9.62377 2.73126C10.0156 2.18264 10.6724 1.51345 11.6838 1.17632ZM9.4928 5.32566C9.36487 5.27789 9.22783 5.24022 9.08122 5.21105C9.21043 6.02675 9.48575 6.67009 9.84882 7.13218C10.1369 7.49878 10.4989 7.77712 10.9421 7.94447C10.8615 7.19374 10.704 6.66102 10.5168 6.28365C10.2606 5.76717 9.93312 5.50725 9.56555 5.35434L9.51456 5.33394L9.4928 5.32566ZM12 4.8661C11.7607 4.51569 11.485 4.22825 11.1818 3.99566C11.2034 3.96243 11.2265 3.92835 11.2512 3.89374C11.4304 3.64287 11.6747 3.38939 12 3.21156C12.3253 3.38939 12.5696 3.64287 12.7488 3.89374C12.7735 3.92835 12.7966 3.96243 12.8182 3.99566C12.515 4.22825 12.2393 4.51569 12 4.8661ZM13.0579 7.94447C13.5011 7.77711 13.8631 7.49878 14.1512 7.13218C14.5142 6.67009 14.7896 6.02674 14.9188 5.21105C14.7612 5.24239 14.6148 5.28353 14.479 5.33641L14.4353 5.354C14.0674 5.50687 13.7396 5.76678 13.4832 6.28365C13.296 6.66102 13.1385 7.19374 13.0579 7.94447Z" fill="#141B34"/>
<path fill-rule="evenodd" clip-rule="evenodd" d="M12.0003 8.125C12.5526 8.125 13.0003 8.57272 13.0003 9.125V10.6142C13.5469 10.3204 14.2108 10.125 15.0003 10.125C15.5526 10.125 16.0003 10.5727 16.0003 11.125C16.0003 11.6773 15.5526 12.125 15.0003 12.125C13.8846 12.125 13.2365 12.8706 13.0003 13.3334V15.125C13.0003 15.6773 12.5526 16.125 12.0003 16.125C11.448 16.125 11.0003 15.6773 11.0003 15.125V13.148C10.9999 13.1326 10.9999 13.1172 11.0003 13.1017V9.125C11.0003 8.57272 11.448 8.125 12.0003 8.125Z" fill="#141B34"/>
<path d="M13.204 14.375C14.1849 14.375 14.9946 14.375 15.6193 14.4558C16.2614 14.5389 16.8735 14.7248 17.3077 15.2364C17.7604 15.7698 17.8024 16.3975 17.7091 17.0138C17.6223 17.5872 17.3953 18.2931 17.1299 19.1184L17.1299 19.1184L17.1106 19.1787L17.0031 19.5131L17.0031 19.5131C16.7931 20.1663 16.6144 20.7223 16.4093 21.1609C16.189 21.6323 15.911 22.0316 15.4685 22.3328L15.4641 22.3358L15.4332 22.3565C14.9939 22.6465 14.5084 22.7661 13.9684 22.8217C13.4513 22.875 12.8133 22.875 12.0393 22.875H12.0393H11.9606H11.9606C11.1866 22.875 10.5486 22.875 10.0315 22.8217C9.49146 22.7661 9.00603 22.6465 8.56673 22.3564L8.56229 22.3535L8.5314 22.3328C8.08893 22.0316 7.81091 21.6323 7.59056 21.1609C7.38552 20.7223 7.20683 20.1663 6.99683 19.5131L6.99683 19.513L6.88935 19.1787L6.86997 19.1185C6.60459 18.2931 6.37759 17.5872 6.2908 17.0138C6.19752 16.3975 6.23949 15.7698 6.69225 15.2364C7.12645 14.7248 7.73852 14.5389 8.38059 14.4558C9.00529 14.375 9.81498 14.375 10.7959 14.375H10.7959H13.204H13.204Z" fill="#141B34"/>
</svg>
