<svg width="24" height="24" viewBox="0 0 24 24" fill="none" xmlns="http://www.w3.org/2000/svg">
<path fill-rule="evenodd" clip-rule="evenodd" d="M18 13.375C17.4373 13.375 17 13.8233 17 14.353C17 14.9053 16.5523 15.353 16 15.353C15.4477 15.353 15 14.9053 15 14.353C15 12.6979 16.3536 11.375 18 11.375C19.6464 11.375 21 12.6979 21 14.353C21 14.9468 20.8239 15.5022 20.5213 15.9673C20.3402 16.2457 20.1303 16.5087 19.9437 16.7381C19.9087 16.781 19.8747 16.8227 19.8414 16.8634C19.687 17.0525 19.5499 17.2203 19.4229 17.3929C19.1066 17.8229 19 18.0957 19 18.3091V18.8036C19 19.3559 18.5523 19.8036 18 19.8036C17.4477 19.8036 17 19.3559 17 18.8036V18.3091C17 17.43 17.4361 16.7185 17.8119 16.2077C17.9719 15.9902 18.1476 15.7754 18.3027 15.5856C18.3335 15.548 18.3634 15.5114 18.3923 15.4759C18.5773 15.2485 18.7272 15.0575 18.8449 14.8766C18.9434 14.7252 19 14.5468 19 14.353C19 13.8233 18.5627 13.375 18 13.375ZM17 21.375C17 20.8227 17.4477 20.375 18 20.375H18.012C18.5643 20.375 19.012 20.8227 19.012 21.375C19.012 21.9273 18.5643 22.375 18.012 22.375H18C17.4477 22.375 17 21.9273 17 21.375Z" fill="#141B34"/>
<path d="M9.4626 1.86384C8.82373 1.62427 8.11205 1.62458 7.08264 1.62504C6.2039 1.62503 5.32205 1.62506 4.7497 1.67552C4.15996 1.7275 3.64388 1.83746 3.17258 2.10048C2.56533 2.43935 2.06428 2.94041 1.7254 3.54766C1.46238 4.01896 1.35242 4.53504 1.30044 5.12478C1.24999 5.69712 1.24999 6.40585 1.25 7.28458V10.4325C1.24999 12.7408 1.24998 14.5499 1.43975 15.9614C1.63399 17.4061 2.03933 18.5461 2.93414 19.4409C3.82895 20.3358 4.96897 20.7411 6.41371 20.9353C7.82519 21.1251 9.63423 21.1251 11.9426 21.1251C11.9427 21.1251 13.9177 21.1251 14.9834 21.1184C15.2172 21.117 15.3341 21.1162 15.4123 21.0593C15.4904 21.0023 15.535 20.8664 15.6242 20.5947C15.6447 20.5322 15.6676 20.4708 15.6928 20.4106C15.7656 20.2366 15.8021 20.1495 15.8021 20.0893C15.8021 20.029 15.7656 19.942 15.6928 19.768C15.5686 19.4712 15.5 19.1454 15.5 18.8036V18.3091C15.5 18.0571 15.5228 17.8165 15.5627 17.5879C15.6234 17.2401 15.6537 17.0663 15.6041 16.9746C15.5544 16.8829 15.3747 16.8058 15.0153 16.6516C14.1242 16.2694 13.5 15.3841 13.5 14.353C13.5 11.8523 15.5424 9.875 18 9.875C19.8745 9.875 21.5076 11.0254 22.1769 12.681C22.2234 12.7961 22.3332 12.875 22.4573 12.875C22.6183 12.875 22.7489 12.7449 22.7493 12.584C22.75 12.2907 22.75 11.9854 22.75 11.6673C22.75 10.6483 22.75 9.74389 22.683 9.08456C22.6137 8.404 22.4669 7.8138 22.118 7.29169C21.8444 6.88223 21.4929 6.53066 21.0834 6.25707C20.5613 5.90821 19.9711 5.76136 19.2905 5.69213C18.6312 5.62506 17.8095 5.62507 16.7905 5.62508L13.2361 5.62508C12.92 5.62508 12.7396 5.62415 12.6064 5.61039C12.5044 5.60325 12.4348 5.52763 12.4128 5.49071C12.3409 5.37777 12.0838 4.86416 11.9425 4.58144C11.4704 3.62629 10.8581 2.38713 9.4626 1.86384Z" fill="#141B34"/>
</svg>
