<svg width="24" height="24" viewBox="0 0 24 24" fill="none" xmlns="http://www.w3.org/2000/svg">
<path fill-rule="evenodd" clip-rule="evenodd" d="M9.46473 3.76906C9.2624 3.75093 8.99492 3.75 8.5512 3.75C7.5267 3.75 6.84531 3.7516 6.33323 3.81143C5.8419 3.86884 5.64037 3.96772 5.51511 4.07002C5.26366 4.27538 5.09524 4.64388 5.03043 5.28891C4.98516 5.73943 4.99807 6.16622 5.01189 6.62355C5.01892 6.8558 5.02618 7.09593 5.02618 7.35105V10.75C5.02618 11.3023 4.57846 11.75 4.02618 11.75C3.47389 11.75 3.02618 11.3023 3.02618 10.75V7.35105C3.02618 7.21049 3.0212 7.03743 3.01562 6.84373C3.00084 6.3303 2.98189 5.67181 3.04045 5.08897C3.12455 4.25196 3.38433 3.22798 4.25002 2.52097C4.79269 2.07778 5.42524 1.90391 6.10113 1.82495C6.74308 1.74994 7.54231 1.74997 8.49243 1.75L8.5512 1.75C8.56391 1.75 8.57659 1.75 8.58923 1.75C8.98266 1.74997 9.3409 1.74995 9.64326 1.77705C9.97386 1.80668 10.3108 1.87327 10.6454 2.04785C11.1364 2.30404 11.452 2.69424 11.6649 3.029C11.8179 3.26953 11.9575 3.5518 12.0597 3.7586C12.0895 3.81883 12.1161 3.87266 12.139 3.91719L12.6236 4.86111H15.8067C15.9247 4.86111 16.0568 4.85887 16.199 4.85645C16.7346 4.84735 17.4146 4.8358 18.0315 4.9323C18.8639 5.06249 19.7878 5.41027 20.4205 6.33235C20.6293 6.63665 20.7392 6.99606 20.8065 7.305C20.8772 7.62978 20.9196 7.99082 20.9466 8.35677C20.9998 9.07823 20.9998 9.92423 20.9998 10.7254V10.75C20.9998 11.3023 20.552 11.75 19.9998 11.75C19.4475 11.75 18.9998 11.3023 18.9998 10.75C18.9998 9.91988 18.9992 9.14416 18.952 8.50384C18.9285 8.1852 18.8951 7.92728 18.8523 7.73067C18.8136 7.55278 18.7781 7.4787 18.7717 7.46521C18.7704 7.46259 18.7703 7.46225 18.7714 7.46388C18.5636 7.1611 18.2474 6.99038 17.7225 6.90828C17.2928 6.84107 16.854 6.84786 16.3492 6.85566C16.1768 6.85833 15.9967 6.86111 15.8067 6.86111H12.0343C12.0206 6.8614 12.0069 6.86139 11.9933 6.86111H8.01957C7.46729 6.86111 7.01957 6.4134 7.01957 5.86111C7.01957 5.30883 7.46729 4.86111 8.01957 4.86111H10.3754L10.3598 4.83069C10.3079 4.7296 10.264 4.64092 10.2242 4.56047C10.1361 4.38263 10.068 4.24498 9.97728 4.10232C9.86086 3.91928 9.77713 3.85069 9.7202 3.82099C9.70135 3.81115 9.64854 3.78554 9.46473 3.76906Z" fill="#141B34"/>
<path d="M17.8678 9.75C18.8714 9.74997 19.7012 9.74995 20.351 9.83835C21.0308 9.93083 21.6449 10.1349 22.1111 10.6473C22.1655 10.7071 22.2173 10.7692 22.2662 10.8336C22.6851 11.3846 22.7753 12.0259 22.7445 12.7121C22.715 13.3686 22.5484 14.2869 22.3688 15.2773C22.106 16.7268 21.897 17.8797 21.6218 18.7809C21.3381 19.7098 20.9613 20.4539 20.3121 21.0372C20.2295 21.1113 20.1445 21.1825 20.057 21.2507C19.3682 21.7871 18.5701 22.0259 17.6071 22.1397C16.6733 22.25 15.5045 22.25 14.0355 22.25H9.9645C8.49553 22.25 7.32666 22.25 6.39285 22.1397C5.42993 22.0259 4.63173 21.7871 3.94299 21.2507C3.85551 21.1825 3.77043 21.1113 3.68792 21.0372C3.03863 20.4539 2.66188 19.7098 2.37821 18.7809C2.10301 17.8797 1.89398 16.7269 1.63117 15.2774L1.63117 15.2774C1.45155 14.287 1.285 13.3686 1.25552 12.7121C1.2247 12.0259 1.31484 11.3846 1.73378 10.8336C1.78271 10.7692 1.83445 10.7071 1.88886 10.6473C2.35505 10.1349 2.96918 9.93083 3.649 9.83835C4.2988 9.74995 5.12854 9.74997 6.13213 9.75H6.13216H17.8678H17.8678Z" fill="#141B34"/>
</svg>
