<svg width="24" height="24" viewBox="0 0 24 24" fill="none" xmlns="http://www.w3.org/2000/svg">
<path fill-rule="evenodd" clip-rule="evenodd" d="M21.444 9.38142C20.9555 8.95368 20.2919 8.47444 19.4652 7.87736L19.4652 7.87736L19.4652 7.87736C18.3304 7.05779 17.3688 6.36329 16.6345 5.93266C15.9016 5.50285 15.2034 5.20916 14.4838 5.25464C13.5364 5.31451 12.6544 5.75989 12.0466 6.48772C11.5841 7.04155 11.4123 7.77819 11.3312 8.62019C11.3124 8.81522 11.298 9.02401 11.2869 9.24699C10.8165 8.8533 10.2064 8.41269 9.4652 7.87736L9.4652 7.87736L9.46517 7.87734C8.33042 7.05778 7.36884 6.36328 6.63453 5.93266C5.90161 5.50285 5.20342 5.20916 4.48384 5.25464C3.53637 5.31451 2.65438 5.75989 2.04659 6.48772C1.5841 7.04155 1.41229 7.77819 1.33118 8.62019C1.24993 9.46374 1.24993 10.5647 1.24994 11.9576V11.9577V12.0423V12.0424C1.24993 13.4353 1.24993 14.5362 1.33118 15.3798C1.41229 16.2218 1.5841 16.9584 2.04659 17.5123C2.65438 18.2401 3.53637 18.6855 4.48384 18.7454C5.20342 18.7908 5.90161 18.4971 6.63453 18.0673C7.36882 17.6367 8.33042 16.9422 9.46514 16.1227L9.46518 16.1226L9.46521 16.1226C10.2064 15.5873 10.8165 15.1467 11.2869 14.753C11.298 14.976 11.3124 15.1848 11.3312 15.3798C11.4123 16.2218 11.5841 16.9584 12.0466 17.5123C12.6544 18.2401 13.5364 18.6855 14.4838 18.7454C15.2034 18.7908 15.9016 18.4971 16.6345 18.0673C17.3688 17.6367 18.3304 16.9422 19.4652 16.1227L19.4652 16.1226L19.4652 16.1226C20.2919 15.5255 20.9555 15.0463 21.444 14.6186C21.9419 14.1826 22.3361 13.7355 22.5412 13.1759C22.8195 12.4164 22.8195 11.5836 22.5412 10.8241C22.3361 10.2645 21.9419 9.81736 21.444 9.38142Z" fill="#141B34"/>
</svg>
