<svg width="24" height="24" viewBox="0 0 24 24" fill="none" xmlns="http://www.w3.org/2000/svg">
<path fill-rule="evenodd" clip-rule="evenodd" d="M8.69881 3.62183C9.21532 3.17071 9.81243 3 10.4376 3C11.3114 3 11.9367 3.43525 12.3328 3.98679C12.6955 4.49194 12.8731 5.09648 12.9762 5.56113C13.0959 6.1003 12.7558 6.63438 12.2166 6.75403C11.6774 6.87368 11.1434 6.53359 11.0237 5.99442C10.9382 5.60893 10.8312 5.32458 10.7083 5.15337C10.6537 5.07743 10.6107 5.04481 10.5841 5.02988C10.5627 5.01784 10.5227 5 10.4376 5C10.2034 5 10.1022 5.05152 10.0145 5.12817C9.88822 5.23843 9.7058 5.48269 9.48756 6.03447C9.23591 6.6707 8.99456 7.55556 8.71357 8.77778H10.4376C10.9899 8.77778 11.4376 9.22549 11.4376 9.77778C11.4376 10.3301 10.9899 10.7778 10.4376 10.7778H8.27663C8.18297 11.2216 8.08419 11.696 7.97918 12.2029C7.34323 15.2724 6.89543 17.3782 6.37219 18.7011C6.10702 19.3716 5.77916 19.9607 5.30113 20.3782C4.78462 20.8293 4.18751 21 3.56232 21C2.68851 21 2.06322 20.5648 1.66715 20.0132C1.30441 19.5081 1.12683 18.9035 1.02372 18.4389C0.904069 17.8997 1.24416 17.3656 1.78332 17.246C2.32249 17.1263 2.85657 17.4664 2.97622 18.0056C3.06177 18.3911 3.16873 18.6754 3.29168 18.8466C3.34621 18.9226 3.38927 18.9552 3.41581 18.9701C3.43723 18.9822 3.4772 19 3.56232 19C3.79655 19 3.89771 18.9485 3.98548 18.8718C4.11172 18.7616 4.29414 18.5173 4.51238 17.9655C4.95598 16.844 5.36759 14.9498 6.02076 11.7971C6.09377 11.4447 6.1643 11.105 6.23275 10.7778H4.91664C4.36435 10.7778 3.91664 10.3301 3.91664 9.77778C3.91664 9.22549 4.36435 8.77778 4.91664 8.77778H6.66248C6.99825 7.27708 7.29802 6.13252 7.62775 5.29887C7.89292 4.62843 8.22078 4.03935 8.69881 3.62183Z" fill="#141B34"/>
<path fill-rule="evenodd" clip-rule="evenodd" d="M20.6094 11.0797C21.1178 10.864 21.7048 11.1012 21.9206 11.6096C22.6367 13.2971 23.0134 14.6874 22.9996 16.0977C22.9859 17.5061 22.5831 18.8346 21.9201 20.392C21.7038 20.9001 21.1165 21.1367 20.6083 20.9203C20.1002 20.704 19.8636 20.1167 20.0799 19.6085C20.7023 18.1467 20.9897 17.1016 20.9997 16.0781C21.0097 15.0565 20.7438 13.9564 20.0795 12.3909C19.8637 11.8825 20.101 11.2955 20.6094 11.0797Z" fill="#141B34"/>
<path fill-rule="evenodd" clip-rule="evenodd" d="M12.3906 11.0797C11.8822 10.864 11.2952 11.1012 11.0794 11.6096C10.3633 13.2971 9.98657 14.6874 10.0004 16.0977C10.0141 17.5061 10.4169 18.8346 11.0799 20.392C11.2962 20.9001 11.8835 21.1367 12.3917 20.9203C12.8998 20.704 13.1364 20.1167 12.9201 19.6085C12.2977 18.1467 12.0103 17.1016 12.0003 16.0781C11.9903 15.0565 12.2562 13.9564 12.9205 12.3909C13.1363 11.8825 12.899 11.2955 12.3906 11.0797Z" fill="#141B34"/>
<path d="M14.8294 15.0083C14.7151 15.0009 14.5618 15.0004 14.2941 15.0004C13.7418 15.0004 13.2941 14.5527 13.2941 14.0004C13.2941 13.4481 13.7418 13.0004 14.2941 13.0004L14.3985 13.0002C14.7977 12.999 15.2327 12.9978 15.6241 13.1443C15.8454 13.2271 16.0557 13.3461 16.2416 13.501C16.461 13.6838 16.6152 13.9122 16.7341 14.1332C16.8148 14.0492 16.8972 13.9678 16.9811 13.8903C17.4735 13.4362 18.1431 13.0004 19 13.0004C19.5523 13.0004 20 13.4481 20 14.0004C20 14.5527 19.5523 15.0004 19 15.0004C18.862 15.0004 18.6579 15.0646 18.3371 15.3605C18.1162 15.5643 17.8981 15.8225 17.6595 16.1286L17.8658 16.5777C17.9126 16.6795 17.9488 16.7581 17.9812 16.8257C18.0136 16.8929 18.036 16.9361 18.0528 16.9657L18.0586 16.9755C18.0625 16.9775 18.0671 16.9796 18.0722 16.9816C18.0815 16.9836 18.11 16.9885 18.1706 16.9925C18.2849 16.9999 18.4382 17.0004 18.7059 17.0004C19.2582 17.0004 19.7059 17.4481 19.7059 18.0004C19.7059 18.5527 19.2582 19.0004 18.7059 19.0004L18.6015 19.0006H18.6015C18.2023 19.0018 17.7673 19.003 17.3759 18.8566C17.1546 18.7737 16.9443 18.6547 16.7584 18.4998C16.539 18.317 16.3848 18.0886 16.2659 17.8676C16.1852 17.9517 16.1028 18.033 16.0189 18.1105C15.5265 18.5646 14.8569 19.0004 14 19.0004C13.4477 19.0004 13 18.5527 13 18.0004C13 17.4481 13.4477 17.0004 14 17.0004C14.138 17.0004 14.3421 16.9362 14.6629 16.6403C14.8838 16.4365 15.1019 16.1784 15.3405 15.8722L15.1342 15.4231C15.0874 15.3213 15.0512 15.2427 15.0188 15.1752C14.9864 15.1079 14.964 15.0648 14.9472 15.0352L14.9414 15.0253C14.9375 15.0233 14.9329 15.0213 14.9278 15.0192C14.9185 15.0172 14.89 15.0123 14.8294 15.0083Z" fill="#141B34"/>
</svg>
