<svg width="24" height="24" viewBox="0 0 24 24" fill="none" xmlns="http://www.w3.org/2000/svg">
<path d="M2.94218 16.9121C3.36515 15.9377 4.23087 15.046 5.57066 15.0538C6.09297 15.0568 6.52837 15.2231 6.9517 15.4826C7.339 15.72 7.75708 16.0626 8.23832 16.457L12.8035 20.1978C12.9661 20.3311 13.0653 20.5265 13.077 20.7364C13.0886 20.9463 13.0117 21.1515 12.8648 21.3019C12.5293 21.6498 11.9601 22.2396 11.2561 22.4451C10.8817 22.5544 10.4899 22.5541 9.99653 22.5538L6.97392 22.5537C6.14316 22.5537 5.27407 22.4225 4.51581 22.029C3.73634 21.6244 3.11013 20.9596 2.777 19.98C2.46016 19.0483 2.52674 17.8693 2.94218 16.9121Z" fill="#141B34"/>
<path fill-rule="evenodd" clip-rule="evenodd" d="M17.2267 8.88562C17.7333 9.10546 17.9659 9.69439 17.746 10.201L13.0758 20.9642C12.856 21.4709 12.2671 21.7034 11.7604 21.4835C11.2538 21.2637 11.0213 20.6748 11.2411 20.1681L15.9113 9.40494C16.1311 8.89829 16.7201 8.66579 17.2267 8.88562Z" fill="#141B34"/>
<path d="M17.2236 3.03303C17.5407 1.84402 18.7945 1.16842 19.9619 1.55756C21.2402 1.98365 21.8091 3.47267 21.1406 4.64255L18.2769 9.65406C17.9122 10.2922 17.1125 10.5343 16.4551 10.2056C15.8673 9.91173 15.567 9.24516 15.7364 8.61015L17.2236 3.03303Z" fill="#141B34"/>
</svg>
