<svg width="24" height="24" viewBox="0 0 24 24" fill="none" xmlns="http://www.w3.org/2000/svg">
<path fill-rule="evenodd" clip-rule="evenodd" d="M20.1055 2.98733C20.8499 3.56271 21.5426 4.43898 22.0435 5.47286C22.5432 6.50437 22.79 7.56559 22.7447 8.46699C22.7021 9.31374 22.3725 10.2332 21.4954 10.6028L17.195 13.1831C17.0569 13.2659 16.9879 13.3073 16.9051 13.3246C16.8224 13.3418 16.7511 13.3326 16.6086 13.314C13.2633 12.879 11.8619 9.50915 11.7286 6.43145C11.7172 6.16908 11.7115 6.0379 11.7767 5.91678C11.8418 5.79567 11.9612 5.72402 12.2001 5.58073L17.5118 2.39367L17.5758 2.36968C18.461 2.03778 19.3968 2.43962 20.1055 2.98733ZM19.1881 4.17409C18.6194 3.7345 18.2491 3.71913 18.1024 3.77415C18.001 3.81217 17.7848 3.98399 17.7534 4.6091C17.7236 5.20212 17.8889 6.01196 18.3065 6.87394C18.7229 7.73355 19.2789 8.41468 19.8118 8.82661C20.3806 9.2662 20.7509 9.28157 20.8976 9.22655C20.999 9.18853 21.2152 9.01671 21.2466 8.3916C21.2764 7.79858 21.1111 6.98874 20.6935 6.12676C20.2771 5.26715 19.7211 4.58602 19.1881 4.17409Z" fill="#141B34"/>
<path d="M9.90512 6.9577C10.0398 6.8769 10.1071 6.8365 10.1574 6.86399C10.2077 6.89148 10.2101 6.97129 10.2148 7.13091C10.3046 10.158 11.8605 13.0393 14.7014 14.292C14.8687 14.3657 14.9524 14.4026 14.9562 14.4633C14.96 14.524 14.8834 14.57 14.7302 14.6619L13.5944 15.3434C13.394 15.4637 13.2938 15.5238 13.1755 15.5326C13.0573 15.5415 12.9577 15.5004 12.7587 15.4183C9.86831 14.2263 8.57605 11.5929 8.19602 8.64354C8.15853 8.35261 8.13979 8.20714 8.20475 8.07304C8.26971 7.93894 8.40142 7.85992 8.66483 7.70187L9.90512 6.9577Z" fill="#141B34"/>
<path d="M6.43533 9.03957C6.55639 8.96694 6.61692 8.93062 6.66565 8.95432C6.71438 8.97803 6.72327 9.04889 6.74105 9.19062C7.11151 12.1436 8.51595 15.0073 11.2221 16.3931C11.3742 16.471 11.4502 16.5099 11.4521 16.5688C11.4541 16.6276 11.3825 16.6705 11.2394 16.7564L6.48818 19.6072L6.4242 19.6311C5.53898 19.963 4.60318 19.5612 3.89455 19.0135C3.15012 18.4381 2.45739 17.5618 1.95653 16.528C1.45683 15.4965 1.20997 14.4352 1.25529 13.5338C1.29787 12.6871 1.62752 11.7676 2.50457 11.398L6.43533 9.03957Z" fill="#141B34"/>
<path d="M15.1574 21.4401C15.015 21.6369 14.786 21.7526 14.5431 21.7504C14.3001 21.7483 14.0733 21.6286 13.9344 21.4292L13.3121 20.536L11.3237 21.4873C10.9975 21.6434 10.6063 21.5444 10.3935 21.252C10.1816 20.9607 10.2068 20.56 10.4531 20.2975L10.4542 20.2963L10.4559 20.2946C10.5199 20.2226 10.9956 19.661 11.2598 18.7794C11.314 18.5983 11.3412 18.5077 11.3871 18.4487C11.433 18.3896 11.5036 18.3473 11.6448 18.2625L16.1306 15.5711C16.3577 15.4348 16.4713 15.3667 16.5694 15.4156C16.6675 15.4646 16.6809 15.5913 16.7075 15.8448C16.873 17.4174 16.5931 19.4557 15.1574 21.4401Z" fill="#141B34"/>
</svg>
