<svg width="24" height="24" viewBox="0 0 24 24" fill="none" xmlns="http://www.w3.org/2000/svg">
<path fill-rule="evenodd" clip-rule="evenodd" d="M12.9949 12.25C13.0025 12.25 13.01 12.25 13.0174 12.25C14.8047 12.25 16.2387 13.7133 16.2387 15.5C16.2387 17.2867 14.8047 18.75 13.0174 18.75C13.01 18.75 13.0025 18.75 12.9949 18.75C12.8609 18.7501 12.7146 18.7501 12.5882 18.7385C12.444 18.7253 12.2537 18.6923 12.0626 18.5806C11.6878 18.3617 11.535 18.0211 11.479 17.7432C11.4387 17.5427 11.4417 17.3209 11.4433 17.2097C11.4435 17.1926 11.4437 17.1781 11.4437 17.1667V13.8333C11.4437 13.8219 11.4435 13.8075 11.4433 13.7903C11.4417 13.6791 11.4387 13.4573 11.479 13.2568C11.535 12.9789 11.6878 12.6383 12.0626 12.4194C12.2537 12.3077 12.444 12.2747 12.5882 12.2615C12.7146 12.2499 12.8609 12.25 12.9949 12.25ZM12.9432 13.7501C12.9433 13.7508 12.9433 13.7516 12.9433 13.7524C12.9435 13.7778 12.9437 13.8071 12.9437 13.8333V17.1667C12.9437 17.1929 12.9435 17.2222 12.9433 17.2476C12.9433 17.2484 12.9433 17.2492 12.9432 17.25C12.9661 17.25 12.9907 17.25 13.0174 17.25C13.9599 17.25 14.7387 16.4747 14.7387 15.5C14.7387 14.5253 13.9599 13.75 13.0174 13.75C12.9907 13.75 12.9661 13.75 12.9432 13.7501ZM7.00146 12.25C7.41568 12.25 7.75146 12.5858 7.75146 13V14.75H9.13526V13C9.13526 12.5858 9.47104 12.25 9.88526 12.25C10.2995 12.25 10.6353 12.5858 10.6353 13V18C10.6353 18.4142 10.2995 18.75 9.88526 18.75C9.47104 18.75 9.13526 18.4142 9.13526 18V16.25H7.75146V18C7.75146 18.4142 7.41568 18.75 7.00146 18.75C6.58725 18.75 6.25146 18.4142 6.25146 18V13C6.25146 12.5858 6.58725 12.25 7.00146 12.25ZM18.2958 13.7526C18.2924 13.8147 18.2908 13.8946 18.2908 14V15.25H19.7037C19.9079 15.25 20.2515 15.0199 20.2515 14.5C20.2515 13.9802 19.9079 13.75 19.7037 13.75H18.4059C18.3629 13.75 18.3265 13.751 18.2958 13.7526ZM18.2908 16.75V18C18.2908 18.4142 17.955 18.75 17.5408 18.75C17.1265 18.75 16.7908 18.4142 16.7908 18V14C16.7908 13.8154 16.7942 13.6133 16.8215 13.4263C16.8491 13.2377 16.9092 12.9993 17.0695 12.7811C17.4205 12.3036 17.9889 12.25 18.4059 12.25H19.7037C20.9329 12.25 21.7515 13.363 21.7515 14.5C21.7515 15.2794 21.3668 16.0475 20.729 16.4536L21.2847 17.6932C21.4542 18.0712 21.2851 18.5149 20.9072 18.6844C20.5292 18.8538 20.0854 18.6848 19.916 18.3068L19.218 16.75H18.2908Z" fill="#141B34"/>
<path d="M7.13695 20.7033C8.0064 20.7942 9.13753 20.7955 10.7461 20.7955H14.9064C15.4442 20.7955 15.8801 21.233 15.8801 21.7727C15.8801 22.3125 15.4442 22.75 14.9064 22.75H10.6912C9.15013 22.75 7.91733 22.75 6.93507 22.6473C5.92566 22.5417 5.06443 22.3186 4.31967 21.7919C3.9293 21.5159 3.58076 21.1871 3.28558 20.8146C2.71575 20.0956 2.47249 19.2577 2.35838 18.2843C2.2485 17.3469 2.24851 16.1743 2.24854 14.7262V12.1428V12.1427C2.24853 10.7244 2.24853 9.61179 2.30772 8.71107C2.36797 7.79422 2.49251 7.02952 2.77362 6.31755C3.61702 4.1815 5.39075 2.51875 7.61075 1.73658C8.99318 1.2495 10.6798 1.24971 13.5194 1.25007L13.7557 1.25009L13.9591 1.25004L13.9591 1.25004C15.5141 1.2495 16.5465 1.24914 17.4053 1.55172C18.7819 2.03673 19.8903 3.071 20.4191 4.41031C20.6024 4.87447 20.678 5.36014 20.7138 5.90477C20.7485 6.43335 20.7485 7.08083 20.7485 7.87999V7.88006V10.0455C20.7485 10.5852 20.3126 11.0228 19.7748 11.0228C19.2371 11.0228 18.8012 10.5852 18.8012 10.0455V7.91329C18.8012 7.07303 18.8007 6.49008 18.7707 6.03341C18.7412 5.58546 18.6864 5.32704 18.6087 5.1304C18.2987 4.34503 17.6329 3.70339 16.7603 3.39593C16.257 3.21858 15.5898 3.20463 13.7557 3.20463C13.4577 3.20463 13.1008 3.2058 12.7627 3.20732C12.4245 3.20885 11.8711 3.21134 11.409 3.48025C11.1042 3.65756 10.8835 3.85945 10.7568 4.08004C10.5394 4.45845 10.4152 4.89711 10.4152 5.3648C10.4152 5.51193 10.4247 5.70446 10.4329 5.88206L10.4329 5.88212C10.4402 6.03696 10.4482 6.20566 10.4516 6.3737C10.4595 6.75379 10.4475 7.19733 10.3328 7.62548C10.1093 8.45945 9.45794 9.11086 8.62397 9.33432C8.19582 9.44904 7.75228 9.46105 7.37218 9.45315C7.20404 9.44966 7.03546 9.44174 6.88054 9.43446C6.70295 9.42622 6.47895 9.41667 6.33182 9.41667C5.88515 9.41667 5.46496 9.53003 5.09844 9.72955C4.87099 9.85337 4.64958 10.0965 4.47665 10.3875C4.19603 10.8596 4.19586 11.4982 4.19587 11.7652L4.1959 14.6653C4.1959 16.1888 4.19748 17.2461 4.29241 18.0559C4.38464 18.8427 4.55408 19.2754 4.80965 19.5979C4.98744 19.8223 5.19982 20.0234 5.44127 20.1941C5.7991 20.4472 6.28303 20.6139 7.13695 20.7033Z" fill="#141B34"/>
</svg>
