<svg width="24" height="24" viewBox="0 0 24 24" fill="none" xmlns="http://www.w3.org/2000/svg">
<path d="M4.36935 5.25295L19.6307 5.25295C19.8236 5.25283 19.9944 5.25272 20.1611 5.27797C20.9262 5.39383 21.5605 5.89064 21.9747 6.5567C22.0654 6.70257 22.1992 6.97395 22.3125 7.20395C22.475 7.53311 22.6067 7.79991 22.6673 8.02953C22.8068 8.55759 22.7646 9.10908 22.5804 9.57466C22.3995 10.0319 22.0442 10.4874 21.4932 10.6737C21.3326 10.728 21.1733 10.7413 21.0509 10.7471C20.9283 10.753 20.7783 10.753 20.6125 10.753L3.38747 10.753H3.38746C3.22173 10.753 3.07169 10.753 2.9491 10.7471C2.82668 10.7413 2.66742 10.728 2.50685 10.6737C1.95585 10.4874 1.60048 10.0319 1.41959 9.57466C1.23541 9.10908 1.19325 8.55759 1.33271 8.02952C1.39335 7.79989 1.52504 7.53314 1.68756 7.20393L1.68756 7.20393C1.80081 6.97402 1.93461 6.70253 2.0253 6.5567C2.43954 5.89064 3.07377 5.39383 3.83888 5.27797C4.0056 5.25272 4.17643 5.25283 4.36935 5.25295Z" fill="#141B34"/>
<path fill-rule="evenodd" clip-rule="evenodd" d="M5 14.0029C5 13.4506 5.44772 13.0029 6 13.0029L18 13.0029C18.5523 13.0029 19 13.4506 19 14.0029C19 14.5552 18.5523 15.0029 18 15.0029L6 15.0029C5.44772 15.0029 5 14.5552 5 14.0029Z" fill="#141B34"/>
<path fill-rule="evenodd" clip-rule="evenodd" d="M3.38082 9.21775C3.81449 8.87577 4.44328 8.95009 4.78526 9.38375L6.03771 10.972C6.93693 12.1123 7.22841 13.6124 6.81701 15.0036L6.14188 17.2866C5.98526 17.8162 5.42896 18.1185 4.89935 17.9619C4.36973 17.8053 4.06736 17.249 4.22398 16.7194L4.89911 14.4364C5.12549 13.6709 4.96647 12.8434 4.46727 12.2104L3.21482 10.6222C2.87284 10.1885 2.94716 9.55974 3.38082 9.21775Z" fill="#141B34"/>
<path fill-rule="evenodd" clip-rule="evenodd" d="M20.6192 9.21775C21.0529 9.55974 21.1272 10.1885 20.7852 10.6222L19.5328 12.2104C19.0336 12.8434 18.8746 13.6709 19.101 14.4364L19.7761 16.7194C19.9327 17.249 19.6303 17.8053 19.1007 17.9619C18.5711 18.1185 18.0148 17.8162 17.8582 17.2866L17.1831 15.0036C16.7717 13.6124 17.0631 12.1123 17.9624 10.972L19.2148 9.38375C19.5568 8.95009 20.1856 8.87577 20.6192 9.21775Z" fill="#141B34"/>
<path fill-rule="evenodd" clip-rule="evenodd" d="M5 18.0029C4.44772 18.0029 4 18.4506 4 19.0029C4 19.5552 4.44772 20.0029 5 20.0029C5.55228 20.0029 6 19.5552 6 19.0029C6 18.4506 5.55228 18.0029 5 18.0029ZM2 19.0029C2 17.3461 3.34315 16.0029 5 16.0029C6.65685 16.0029 8 17.3461 8 19.0029C8 20.6598 6.65685 22.0029 5 22.0029C3.34315 22.0029 2 20.6598 2 19.0029Z" fill="#141B34"/>
<path fill-rule="evenodd" clip-rule="evenodd" d="M19 18.0029C18.4477 18.0029 18 18.4506 18 19.0029C18 19.5552 18.4477 20.0029 19 20.0029C19.5523 20.0029 20 19.5552 20 19.0029C20 18.4506 19.5523 18.0029 19 18.0029ZM16 19.0029C16 17.3461 17.3431 16.0029 19 16.0029C20.6569 16.0029 22 17.3461 22 19.0029C22 20.6598 20.6569 22.0029 19 22.0029C17.3431 22.0029 16 20.6598 16 19.0029Z" fill="#141B34"/>
<path fill-rule="evenodd" clip-rule="evenodd" d="M7.02258 4.01273C7.01188 4.03025 7 4.06029 7 4.10618V6.00258C7 6.55486 6.55228 7.00258 6 7.00258C5.44772 7.00258 5 6.55486 5 6.00258V4.10618C5 2.86328 6.1159 1.68804 7.50838 2.07204L9.50838 2.62357C10.4423 2.88112 11 3.76146 11 4.6577V6.00258C11 6.55486 10.5523 7.00258 10 7.00258C9.44772 7.00258 9 6.55486 9 6.00258V4.6577C9 4.60962 8.98501 4.57501 8.97199 4.55661C8.96938 4.55292 8.9672 4.55031 8.96557 4.54853L7.02258 4.01273Z" fill="#141B34"/>
</svg>
