<svg width="24" height="24" viewBox="0 0 24 24" fill="none" xmlns="http://www.w3.org/2000/svg">
<path fill-rule="evenodd" clip-rule="evenodd" d="M15.2975 16.0061H15.2974H15.2973H8.70099H8.70091H8.70083C8.59097 16.0061 8.47711 16.0061 8.38011 16.0121C8.27651 16.0185 8.12848 16.0342 7.97269 16.0974C7.49843 16.29 7.20125 16.7438 7.17886 17.233C7.17154 17.393 7.20121 17.5333 7.22718 17.6344C7.25169 17.7298 7.2869 17.8404 7.32204 17.9508L7.32204 17.9508L7.32204 17.9508C7.44422 18.3357 7.57107 18.7353 7.73075 18.9988C7.9732 19.3988 8.31922 19.7215 8.72937 19.9298L8.81818 20.3751C8.90919 20.8347 8.99149 21.2502 9.18893 21.5991C9.49156 22.1338 9.98794 22.5466 10.5904 22.7456C10.9856 22.8761 11.5348 22.8753 11.9977 22.8745C12.4607 22.8753 13.0099 22.8761 13.405 22.7456C14.0075 22.5466 14.5039 22.1338 14.8065 21.5991C15.004 21.2502 15.0863 20.8347 15.1773 20.3752L15.1773 20.3751L15.2658 19.9314C15.6773 19.7231 16.0245 19.3998 16.2676 18.9988C16.4272 18.7353 16.5541 18.3357 16.6763 17.9508C16.7114 17.8404 16.7466 17.7298 16.7711 17.6344C16.7971 17.5333 16.8268 17.393 16.8194 17.233C16.7971 16.7438 16.4999 16.29 16.0256 16.0974C15.8698 16.0342 15.7218 16.0185 15.6182 16.0121C15.5212 16.0061 15.4073 16.0061 15.2975 16.0061ZM13.3204 20.1903H10.6751C10.7593 20.5972 10.7885 20.687 10.8225 20.7472C10.9103 20.9022 11.0464 21.009 11.1954 21.0582C11.2554 21.078 11.3516 21.0899 11.9977 21.0899C12.6438 21.0899 12.7401 21.078 12.8 21.0582C12.9491 21.009 13.0852 20.9022 13.1729 20.7472C13.207 20.687 13.2362 20.5972 13.3204 20.1903Z" fill="#141B34"/>
<path fill-rule="evenodd" clip-rule="evenodd" d="M12 6.62524C8.9916 6.62524 6.5 9.15023 6.5 12.3311C6.5 13.1862 6.68072 13.9943 7.00304 14.7188C7.22753 15.2234 7.00045 15.8144 6.49585 16.0389C5.99124 16.2634 5.4002 16.0363 5.17571 15.5317C4.74122 14.555 4.5 13.4704 4.5 12.3311C4.5 8.10491 7.8287 4.62524 12 4.62524C16.1713 4.62524 19.5 8.10491 19.5 12.3311C19.5 13.4704 19.2588 14.555 18.8243 15.5317C18.5998 16.0363 18.0088 16.2634 17.5042 16.0389C16.9996 15.8144 16.7725 15.2234 16.997 14.7188C17.3193 13.9943 17.5 13.1862 17.5 12.3311C17.5 9.15023 15.0084 6.62524 12 6.62524Z" fill="#141B34"/>
<path fill-rule="evenodd" clip-rule="evenodd" d="M12 1.12524C12.5523 1.12524 13 1.57296 13 2.12524V3.12524C13 3.67753 12.5523 4.12524 12 4.12524C11.4477 4.12524 11 3.67753 11 3.12524V2.12524C11 1.57296 11.4477 1.12524 12 1.12524ZM19.7774 4.34709C20.1679 4.73762 20.1679 5.37078 19.7774 5.76131L19.0703 6.46841C18.6798 6.85894 18.0466 6.85894 17.6561 6.46841C17.2656 6.07789 17.2656 5.44472 17.6561 5.0542L18.3632 4.34709C18.7537 3.95657 19.3869 3.95657 19.7774 4.34709ZM4.22251 4.34751C4.61303 3.95698 5.24619 3.95698 5.63672 4.34751L6.34383 5.05461C6.73435 5.44514 6.73435 6.0783 6.34383 6.46883C5.9533 6.85935 5.32014 6.85935 4.92961 6.46883L4.22251 5.76172C3.83198 5.37119 3.83198 4.73803 4.22251 4.34751ZM1 12.1252C1 11.573 1.44772 11.1252 2 11.1252H3C3.55228 11.1252 4 11.573 4 12.1252C4 12.6775 3.55228 13.1252 3 13.1252H2C1.44772 13.1252 1 12.6775 1 12.1252ZM20 12.1252C20 11.573 20.4477 11.1252 21 11.1252H22C22.5523 11.1252 23 11.573 23 12.1252C23 12.6775 22.5523 13.1252 22 13.1252H21C20.4477 13.1252 20 12.6775 20 12.1252Z" fill="#141B34"/>
</svg>
