<svg width="24" height="24" viewBox="0 0 24 24" fill="none" xmlns="http://www.w3.org/2000/svg">
<path d="M18.0795 1.89988C19.0492 2.13412 19.877 2.5311 20.5668 3.2209C21.4792 4.13329 21.8793 5.2871 22.0681 6.69148C22.2321 7.91104 22.249 10.172 22.2508 12.125L22.2444 13.6287C22.2358 15.3704 22.1965 16.7789 21.9914 17.9142C21.7825 19.0711 21.391 20.0089 20.6358 20.7641C19.7776 21.6223 18.6853 22.0093 17.3087 22.1944C15.9653 22.375 14.2446 22.375 12.0539 22.375H11.9395C9.74881 22.375 8.02813 22.375 6.68472 22.1944C5.30807 22.0093 4.21581 21.6223 3.35761 20.7641C2.60244 20.0089 2.21094 19.0711 2.00198 17.9142C1.79692 16.7789 1.7576 15.3704 1.74902 13.6287L1.75116 12.1249C1.75289 10.1719 1.76977 7.91102 1.93374 6.69148C2.12255 5.2871 2.52266 4.13329 3.43505 3.2209C4.12485 2.5311 4.95264 2.13412 5.92238 1.89988C6.45922 1.7702 6.96528 2.16331 7.03887 2.71067C7.11246 3.25803 6.72333 3.74584 6.19189 3.89614C5.58766 4.06704 5.17597 4.3084 4.84926 4.63511C4.37041 5.11396 4.0749 5.77537 3.9159 6.95797C3.76025 8.1157 3.75147 10.4233 3.75099 12.5749C3.75096 12.7405 3.88528 12.875 4.05097 12.875L7.42236 12.875C8.70254 12.875 9.55782 13.9148 9.96831 14.7373C10.2585 15.3188 10.8221 15.875 11.9967 15.875C13.1713 15.875 13.7349 15.3188 14.0251 14.7373C14.4356 13.9148 15.2909 12.875 16.571 12.875L19.951 12.875C20.1167 12.875 20.251 12.7405 20.2509 12.5749C20.2505 10.4233 20.2416 8.1157 20.0859 6.95797C19.9269 5.77537 19.6314 5.11396 19.1526 4.63511C18.8259 4.3084 18.4142 4.06704 17.8099 3.89614C17.2785 3.74584 16.8894 3.25803 16.963 2.71067C17.0365 2.16331 17.5426 1.7702 18.0795 1.89988Z" fill="#141B34"/>
<path fill-rule="evenodd" clip-rule="evenodd" d="M13.0049 10.6252C13.0049 11.1775 12.5572 11.6252 12.0049 11.6252C11.4526 11.6252 11.0049 11.1775 11.0049 10.6252L11.0049 6.12521L10.4106 6.12522C10.235 6.12535 10.0193 6.1255 9.8429 6.10344L9.83955 6.10302C9.7131 6.08725 9.13706 6.01541 8.8627 5.44982C8.58774 4.88299 8.88967 4.38285 8.955 4.27465L8.95743 4.27062C9.04965 4.11759 9.18379 3.94672 9.29414 3.80616L9.31787 3.77591C9.6125 3.40009 9.99447 2.91587 10.3749 2.52487C10.5647 2.32976 10.782 2.12852 11.0129 1.96967C11.2182 1.82847 11.5684 1.62521 11.999 1.62521C12.4297 1.62521 12.7799 1.82847 12.9851 1.96967C13.2161 2.12852 13.4333 2.32976 13.6231 2.52487C14.0036 2.91587 14.3855 3.40009 14.6802 3.77592L14.7039 3.80615C14.8142 3.94671 14.9484 4.11759 15.0406 4.27062L15.0431 4.27465C15.1084 4.38285 15.4103 4.88299 15.1353 5.44982C14.861 6.01541 14.2849 6.08725 14.1585 6.10302L14.1552 6.10344C13.9787 6.1255 13.7631 6.12535 13.5874 6.12522L13.0049 6.12521L13.0049 10.6252Z" fill="#141B34"/>
</svg>
