<svg width="24" height="24" viewBox="0 0 24 24" fill="none" xmlns="http://www.w3.org/2000/svg">
<path fill-rule="evenodd" clip-rule="evenodd" d="M11.9995 1.25C17.9366 1.25 22.7495 6.06294 22.7495 12C22.7495 17.9371 17.9366 22.75 11.9995 22.75C6.06245 22.75 1.24951 17.9371 1.24951 12C1.24951 6.06294 6.06245 1.25 11.9995 1.25ZM9.33825 7.75017C8.92395 7.38496 8.88415 6.75305 9.24936 6.33875C9.61456 5.92445 10.2465 5.88465 10.6608 6.24986L16.4991 11.3963L16.5115 11.4075C17.0226 11.8735 17.1154 12.5585 16.8671 13.105C16.6251 13.6377 16.0848 14 15.45 14H7.99951C7.44723 14 6.99951 13.5523 6.99951 13C6.99951 12.4477 7.44723 12 7.99951 12H14.1594L9.33825 7.75017ZM15.9995 16C16.5518 16 16.9995 16.4477 16.9995 17C16.9995 17.5523 16.5518 18 15.9995 18H7.99951C7.44723 18 6.99951 17.5523 6.99951 17C6.99951 16.4477 7.44723 16 7.99951 16H15.9995Z" fill="#141B34"/>
</svg>
