<svg width="24" height="24" viewBox="0 0 24 24" fill="none" xmlns="http://www.w3.org/2000/svg">
<path d="M12.2923 16.25C13.4628 16.2497 14.2213 16.2495 14.9088 16.4695C15.3312 16.6046 15.7292 16.8002 16.086 17.0509C16.6743 17.4641 17.0802 18.054 17.6761 18.9201L17.6761 18.9201C17.9672 19.3427 18.3176 19.8517 18.4837 20.1614C18.6498 20.4715 18.8177 20.8785 18.7224 21.3333C18.6362 21.7454 18.3972 22.0984 18.0728 22.3468C17.7343 22.6059 17.3211 22.6819 16.9459 22.7159C16.5684 22.7501 16.0859 22.7501 15.5109 22.75H8.48921C7.91424 22.7501 7.43173 22.7501 7.05423 22.7159C6.67907 22.6819 6.26581 22.6059 5.92736 22.3468C5.6029 22.0984 5.364 21.7454 5.2777 21.3333C5.18244 20.8785 5.35032 20.4715 5.51648 20.1614C5.68251 19.8516 6.03297 19.3427 6.32401 18.9201C6.91998 18.054 7.32585 17.4641 7.91416 17.0509C8.27099 16.8002 8.66891 16.6046 9.09131 16.4695C9.77887 16.2495 10.5373 16.2497 11.7079 16.25H12.2923Z" fill="#141B34"/>
<path fill-rule="evenodd" clip-rule="evenodd" d="M7.5 12C7.5 11.4477 7.94772 11 8.5 11H15.5C16.0523 11 16.5 11.4477 16.5 12C16.5 12.5523 16.0523 13 15.5 13H8.5C7.94772 13 7.5 12.5523 7.5 12Z" fill="#141B34"/>
<path fill-rule="evenodd" clip-rule="evenodd" d="M12 11C12.5523 11 13 11.4477 13 12L13 17C13 17.5523 12.5523 18 12 18C11.4477 18 11 17.5523 11 17L11 12C11 11.4477 11.4477 11 12 11Z" fill="#141B34"/>
<path d="M12.7661 1.74006C13.5697 2.27581 14.0436 3.1754 14.2884 4.22013C14.3773 4.59926 14.3196 4.97766 14.1731 5.29712L13.9164 5.85695C13.8841 5.92753 13.887 6.00883 13.9246 6.07713L14.4129 6.96418C14.7132 7.50954 14.7002 8.17262 14.3792 8.70591L14.0045 9.32826C13.9598 9.40258 13.9362 9.55468 14.0258 9.74334C14.2533 10.2226 14.429 10.7477 14.5459 11.1405C14.6042 11.3363 14.697 11.6991 14.7297 11.8269L14.7313 11.8331C14.7818 12.0555 14.7285 12.2895 14.5862 12.4678C14.4438 12.646 14.2282 12.7498 14.0001 12.7498H10.0065C9.78487 12.7498 9.57457 12.6517 9.43206 12.4819C9.28961 12.3122 9.2295 12.0882 9.26785 11.8699C9.29133 11.7117 9.3607 11.243 9.39342 10.9563C9.45898 10.3818 9.52725 9.59001 9.53905 8.71878C9.55089 7.84514 9.50566 6.90814 9.35072 6.03813C9.19452 5.161 8.93522 4.4009 8.55213 3.84327C8.35066 3.55001 8.21721 3.20421 8.25703 2.82762C8.29727 2.44704 8.50011 2.16927 8.70203 1.9869C9.06717 1.65711 9.5811 1.50384 9.82717 1.43452C10.9303 1.12373 11.945 1.1926 12.7661 1.74006Z" fill="#141B34"/>
</svg>
