<svg width="24" height="24" viewBox="0 0 24 24" fill="none" xmlns="http://www.w3.org/2000/svg">
<path fill-rule="evenodd" clip-rule="evenodd" d="M18.9114 9.9523C18.7496 9.59431 18.3931 9.36426 18.0002 9.36426C17.6074 9.36426 17.2509 9.59431 17.089 9.9523L14.0995 16.5649C14.0452 16.5994 13.992 16.6379 13.9401 16.6809C13.7377 16.8484 13.5899 17.0554 13.4785 17.2836C13.264 17.7226 13.2027 18.1365 13.2854 18.5795C13.353 18.942 13.5188 19.3088 13.6754 19.6552L13.6983 19.706C14.4887 21.4575 16.0767 22.7501 18 22.7501C19.9232 22.7501 21.5112 21.4575 22.3017 19.706L22.3246 19.6552L22.3246 19.6552C22.4812 19.3088 22.647 18.942 22.7146 18.5795C22.7973 18.1365 22.736 17.7226 22.5215 17.2836C22.4101 17.0554 22.2622 16.8484 22.0599 16.6809C22.0083 16.6381 21.9553 16.5997 21.9012 16.5653L18.9114 9.9523ZM19.5638 16.2501L18.0002 12.7917L16.4367 16.2501H19.5638Z" fill="#141B34"/>
<path fill-rule="evenodd" clip-rule="evenodd" d="M6.91145 9.9523C6.7496 9.59431 6.39312 9.36426 6.00025 9.36426C5.60737 9.36426 5.25089 9.59431 5.08904 9.9523L2.09945 16.5649C2.04519 16.5994 1.99195 16.6379 1.94007 16.6809C1.73775 16.8484 1.58994 17.0554 1.47848 17.2836C1.26399 17.7226 1.20274 18.1365 1.28538 18.5795C1.35301 18.942 1.51881 19.3088 1.67537 19.6552L1.6983 19.706C2.48874 21.4575 4.07675 22.7501 6 22.7501C7.92325 22.7501 9.51125 21.4575 10.3017 19.706L10.3246 19.6552L10.3246 19.6552C10.4812 19.3088 10.647 18.942 10.7146 18.5795C10.7973 18.1365 10.736 17.7226 10.5215 17.2836C10.4101 17.0554 10.2622 16.8484 10.0599 16.6809C10.0083 16.6381 9.95526 16.5997 9.90124 16.5653L6.91145 9.9523ZM7.56381 16.2501L6.00025 12.7917L4.43668 16.2501H7.56381Z" fill="#141B34"/>
<path fill-rule="evenodd" clip-rule="evenodd" d="M12 3.25C11.4477 3.25 11 3.69772 11 4.25C11 4.80228 11.4477 5.25 12 5.25C12.5523 5.25 13 4.80228 13 4.25C13 3.69772 12.5523 3.25 12 3.25ZM14.4599 5.96763C14.8003 5.48107 15 4.88885 15 4.25C15 2.59315 13.6569 1.25 12 1.25C10.3431 1.25 9 2.59315 9 4.25C9 4.88885 9.19969 5.48107 9.54006 5.96763C8.87632 6.37299 8.26496 6.94021 7.72872 7.64388C6.87158 8.76867 5.91278 9.25 5.0482 9.25H4C3.44772 9.25 3 9.69772 3 10.25C3 10.8023 3.44772 11.25 4 11.25H5.0482C6.71055 11.25 8.20343 10.3206 9.31948 8.85612C10.1995 7.70135 11.1604 7.25 12 7.25C12.8396 7.25 13.8005 7.70135 14.6805 8.85612C15.7966 10.3206 17.2895 11.25 18.9518 11.25H20C20.5523 11.25 21 10.8023 21 10.25C21 9.69772 20.5523 9.25 20 9.25H18.9518C18.0872 9.25 17.1284 8.76867 16.2713 7.64388C15.735 6.94021 15.1237 6.37299 14.4599 5.96763Z" fill="#141B34"/>
</svg>
