<svg width="24" height="24" viewBox="0 0 24 24" fill="none" xmlns="http://www.w3.org/2000/svg">
<path d="M9.75 17.375C9.75 16.1324 10.7574 15.125 12 15.125C13.2426 15.125 14.25 16.1324 14.25 17.375C14.25 18.6176 13.2426 19.625 12 19.625C10.7574 19.625 9.75 18.6176 9.75 17.375Z" fill="#141B34"/>
<path fill-rule="evenodd" clip-rule="evenodd" d="M12 10.875C12.5523 10.875 13 11.3227 13 11.875V15.875C13 16.4273 12.5523 16.875 12 16.875C11.4477 16.875 11 16.4273 11 15.875V11.875C11 11.3227 11.4477 10.875 12 10.875ZM12 17.875C12.5523 17.875 13 18.3227 13 18.875V20.875H16C16.5523 20.875 17 21.3227 17 21.875C17 22.4273 16.5523 22.875 16 22.875H8C7.44772 22.875 7 22.4273 7 21.875C7 21.3227 7.44772 20.875 8 20.875H11V18.875C11 18.3227 11.4477 17.875 12 17.875Z" fill="#141B34"/>
<path d="M12.4746 1.125C13.1074 1.12498 13.6374 1.12497 14.0728 1.16884C14.5325 1.21516 14.9524 1.31514 15.3458 1.55556C15.7418 1.79764 16.0167 2.12435 16.2557 2.51081C16.4794 2.87242 16.6988 3.33341 16.9571 3.87587L16.9571 3.87591L18.6247 7.37896L18.6248 7.37899C19.0553 8.28328 19.4163 9.04144 19.6013 9.65956C19.7949 10.3065 19.8558 10.9931 19.4319 11.6129C19.0172 12.2191 18.3587 12.4366 17.6771 12.5321C17.0133 12.6251 16.1407 12.625 15.0847 12.625H15.0847H8.91556H8.91554C7.85953 12.625 6.9869 12.6251 6.32311 12.5321C5.64155 12.4366 4.98303 12.2191 4.56835 11.6129C4.1444 10.9931 4.20533 10.3065 4.39894 9.65956C4.58394 9.04143 4.94492 8.28326 5.37548 7.37895L5.40281 7.32153L7.02636 3.91116L7.04314 3.87592L7.04314 3.87592C7.30137 3.33343 7.52082 2.87244 7.74448 2.51081C7.9835 2.12435 8.25837 1.79764 8.65446 1.55556C9.04783 1.31514 9.46768 1.21516 9.92737 1.16884C10.3628 1.12497 10.8928 1.12498 11.5256 1.125H11.5256H12.4746H12.4746Z" fill="#141B34"/>
</svg>
