<svg width="24" height="24" viewBox="0 0 24 24" fill="none" xmlns="http://www.w3.org/2000/svg">
<path fill-rule="evenodd" clip-rule="evenodd" d="M5.92221 1.83227C6.53387 1.75003 7.29769 1.75007 8.18417 1.75012H15.8156C16.7021 1.75007 17.4659 1.75003 18.0775 1.83227C18.7331 1.9204 19.3614 2.11914 19.8711 2.62881C20.3807 3.13847 20.5795 3.76682 20.6676 4.42234C20.7498 5.034 20.7498 5.79781 20.7498 6.6843L20.7498 14.2501L20.7498 14.2914C20.7511 14.3427 20.7573 14.368 20.7796 14.4142L20.7896 14.434L21.1655 15.1654C21.8895 16.5015 22.3771 17.5654 22.6026 18.4488C22.8346 19.3578 22.8073 20.1496 22.413 20.8657C21.9723 21.6662 21.1848 21.9783 20.3015 22.1166C19.4479 22.2502 18.3095 22.2502 16.913 22.2501H16.913H16.913H11.9999H7.08676H7.08674H7.08672C5.69027 22.2502 4.55188 22.2502 3.69825 22.1166C2.81497 21.9783 2.02749 21.6662 1.58675 20.8657C1.1925 20.1496 1.16515 19.3578 1.39719 18.4488C1.62267 17.5654 2.11021 16.5015 2.83421 15.1654L3.21015 14.434L3.22019 14.4142C3.2425 14.368 3.24862 14.3427 3.24991 14.2914L3.25 14.2501L3.25 6.6843C3.24995 5.79781 3.24991 5.034 3.33215 4.42234C3.42028 3.76682 3.61902 3.13847 4.12868 2.62881C4.63835 2.11914 5.2667 1.9204 5.92221 1.83227ZM5.25 6.75012V13.1501C5.25 13.433 5.25 13.5744 5.33787 13.6622C5.42574 13.7501 5.56716 13.7501 5.85 13.7501H11.9999H18.1497C18.4326 13.7501 18.574 13.7501 18.6619 13.6622C18.7497 13.5744 18.7497 13.433 18.7497 13.1501V6.75012C18.7497 5.77904 18.7476 5.15133 18.6854 4.68883C18.6271 4.25509 18.533 4.11914 18.4569 4.04302C18.3807 3.96689 18.2448 3.87274 17.811 3.81443C17.3485 3.75225 16.7208 3.75012 15.7497 3.75012H8.25C7.27892 3.75012 6.65121 3.75225 6.1887 3.81443C5.75496 3.87274 5.61902 3.96689 5.54289 4.04302C5.46677 4.11914 5.37262 4.25509 5.31431 4.68883C5.25212 5.15133 5.25 5.77904 5.25 6.75012Z" fill="#141B34"/>
<path fill-rule="evenodd" clip-rule="evenodd" d="M13.0714 5.46729C13.5092 5.804 13.5911 6.43185 13.2544 6.86961L12.5091 7.83863L12.9369 7.92945C13.9319 8.14065 14.3753 9.37616 13.6273 10.1541L11.8977 11.953C11.515 12.3511 10.8819 12.3636 10.4838 11.9808C10.0857 11.598 10.0733 10.965 10.456 10.5669L11.3499 9.63715L11.0614 9.57591C10.1296 9.37812 9.65746 8.26562 10.2751 7.46264L11.6691 5.65026C12.0058 5.21249 12.6337 5.13057 13.0714 5.46729Z" fill="#141B34"/>
</svg>
