<svg width="24" height="24" viewBox="0 0 24 24" fill="none" xmlns="http://www.w3.org/2000/svg">
<path d="M5.68253 1.88859L5.75723 1.91986L12.0779 4.56559C12.7856 4.86181 13.1439 4.92966 13.4281 4.9098C13.7139 4.88984 14.0609 4.77186 14.7255 4.3824L18.3592 2.25297C19.0568 1.84411 19.6794 1.47914 20.1953 1.27483C20.7309 1.06271 21.4748 0.893267 22.1622 1.37291C22.8213 1.83276 22.9594 2.56934 22.9912 3.14695C23.0227 3.72105 22.9609 4.46653 22.8901 5.322L22.3299 12.0929C22.2251 13.3599 22.0508 14.4616 21.3977 15.3056C20.7274 16.1715 19.6993 16.5871 18.4229 16.9237L18.4105 16.927L10.2424 18.9697C9.70661 19.1036 9.16365 18.7779 9.02966 18.2421C8.89566 17.7064 9.22138 17.1634 9.75716 17.0294L17.9189 14.9882C19.1324 14.6677 19.5803 14.386 19.816 14.0814C20.0692 13.7543 20.2305 13.2118 20.3367 11.928L20.8909 5.2294C20.9695 4.28027 21.0172 3.67545 20.9942 3.25659C20.9911 3.201 20.987 3.15414 20.9825 3.11489C20.9667 3.12069 20.9498 3.12715 20.9317 3.13432C20.5771 3.27477 20.0895 3.55714 19.3027 4.01823L15.7367 6.10794C15.0062 6.53599 14.3296 6.85171 13.5675 6.90494C12.8039 6.95827 12.09 6.7388 11.3057 6.41049L4.98499 3.76476C4.07034 3.3819 3.49483 3.14415 3.08678 3.04272C3.056 3.03507 3.02823 3.02872 3.00326 3.02345C3.00687 3.07352 3.01349 3.13538 3.02478 3.21104C3.09314 3.66917 3.27925 4.3136 3.57051 5.30926L6.45981 15.2196C6.61439 15.7499 6.30988 16.305 5.77967 16.4596C5.24946 16.6141 4.69432 16.3096 4.53975 15.7794L1.65096 5.87079L1.63014 5.79964C1.36558 4.89545 1.13782 4.11707 1.04668 3.50618C0.956377 2.90097 0.940071 2.10367 1.54004 1.50646C2.16979 0.879588 2.98113 0.955596 3.56924 1.10179C4.14541 1.24501 4.86546 1.54648 5.68253 1.88859Z" fill="#141B34"/>
<path fill-rule="evenodd" clip-rule="evenodd" d="M7.49351 15.9995C6.45155 15.9995 6 16.6418 6 16.9995C6 17.3572 6.45155 17.9995 7.49351 17.9995C8.53548 17.9995 8.98703 17.3572 8.98703 16.9995C8.98703 16.6418 8.53548 15.9995 7.49351 15.9995ZM4 16.9995C4 15.1481 5.78122 13.9995 7.49351 13.9995C9.1929 13.9995 10.9602 15.1308 10.9867 16.9578C11.0567 17.9381 10.951 21.1455 7.4493 22.8942C6.9552 23.1409 6.35463 22.9404 6.10789 22.4463C5.86115 21.9522 6.06168 21.3516 6.55578 21.1049C7.21535 20.7755 7.6998 20.3773 8.05467 19.959C7.8684 19.9858 7.68055 19.9995 7.49351 19.9995C5.78122 19.9995 4 18.851 4 16.9995Z" fill="#141B34"/>
</svg>
