<svg width="24" height="24" viewBox="0 0 24 24" fill="none" xmlns="http://www.w3.org/2000/svg">
<path d="M17.0537 1.25C18.1865 1.24998 19.1123 1.24996 19.8431 1.34822C20.6071 1.45093 21.2694 1.67321 21.7981 2.2019C22.3268 2.7306 22.5491 3.39294 22.6518 4.15689C22.75 4.88775 22.75 5.81348 22.75 6.94631V8.05369C22.75 9.18652 22.75 10.1123 22.6518 10.8431C22.5491 11.6071 22.3268 12.2694 21.7981 12.7981C21.2694 13.3268 20.6071 13.5491 19.8431 13.6518C19.1123 13.75 18.1865 13.75 17.0537 13.75H15.9463C14.8135 13.75 13.8877 13.75 13.1569 13.6518C12.3929 13.5491 11.7306 13.3268 11.2019 12.7981C10.6732 12.2694 10.4509 11.6071 10.3482 10.8431C10.25 10.1123 10.25 9.18654 10.25 8.05372V8.05369V6.94631V6.94629C10.25 5.81346 10.25 4.88774 10.3482 4.15689C10.4509 3.39293 10.6732 2.7306 11.2019 2.2019C11.7306 1.67321 12.3929 1.45093 13.1569 1.34822C13.8877 1.24996 14.8135 1.24998 15.9463 1.25H15.9463H17.0537H17.0537Z" fill="#141B34"/>
<path d="M15.8744 15.0002C14.801 15.0003 13.8049 15.0004 12.9903 14.8908C12.0883 14.7696 11.1179 14.4821 10.318 13.6822C9.5181 12.8823 9.23064 11.9119 9.10937 11.0099C8.99985 10.1953 8.99992 9.19917 9 8.12583V6.87458C8.99998 6.63187 8.99996 6.39311 9.00121 6.15951C9.00128 6.14655 9.00132 6.14005 9.00106 6.13336C8.99448 5.96614 8.84132 5.83147 8.67463 5.84634C8.66795 5.84693 8.66426 5.84743 8.65689 5.84842C7.89294 5.95113 7.2306 6.17341 6.70191 6.70211C6.17321 7.2308 5.95093 7.89314 5.84822 8.65709C5.74996 9.38794 5.74998 10.3137 5.75 11.4465V12.5539C5.74998 13.6867 5.74996 14.6125 5.84822 15.3433C5.95093 16.1073 6.17321 16.7696 6.70191 17.2983C7.2306 17.827 7.89294 18.0493 8.65689 18.152C9.38775 18.2503 10.3135 18.2502 11.4463 18.2502H12.5537C13.6865 18.2502 14.6123 18.2503 15.3431 18.152C16.1071 18.0493 16.7694 17.827 17.2981 17.2983C17.8268 16.7696 18.0491 16.1073 18.1518 15.3433C18.1528 15.3359 18.1533 15.3323 18.1539 15.3256C18.1687 15.1589 18.0341 15.0057 17.8668 14.9992C17.8602 14.9989 17.8537 14.9989 17.8407 14.999C17.6071 15.0002 17.3683 15.0002 17.1256 15.0002H15.8744Z" fill="#141B34"/>
<path d="M4.5 11.3746C4.49998 11.132 4.49996 10.8933 4.50121 10.6597C4.50128 10.6468 4.50132 10.6403 4.50105 10.6336C4.49448 10.4664 4.34132 10.3317 4.17463 10.3466C4.16795 10.3472 4.16426 10.3477 4.15689 10.3487C3.39294 10.4514 2.7306 10.6737 2.20191 11.2024C1.67321 11.731 1.45093 12.3934 1.34822 13.1573C1.24996 13.8882 1.24998 14.8139 1.25 15.9467V17.0541C1.24998 18.187 1.24996 19.1127 1.34822 19.8436C1.45093 20.6075 1.67321 21.2699 2.20191 21.7985C2.7306 22.3272 3.39294 22.5495 4.15689 22.6522C4.88775 22.7505 5.81348 22.7505 6.94632 22.7504H8.05369C9.18652 22.7505 10.1123 22.7505 10.8431 22.6522C11.6071 22.5495 12.2694 22.3272 12.7981 21.7985C13.3268 21.2699 13.5491 20.6075 13.6518 19.8436C13.6528 19.836 13.6533 19.8323 13.6539 19.8255C13.6687 19.6589 13.5341 19.5059 13.367 19.4992C13.3602 19.499 13.3536 19.499 13.3406 19.4991C13.107 19.5003 12.8682 19.5003 12.6256 19.5003H11.3744C10.3011 19.5004 9.30491 19.5004 8.49033 19.3909C7.58834 19.2697 6.61795 18.9822 5.81802 18.1823C5.0181 17.3823 4.73064 16.412 4.60937 15.51C4.49985 14.6954 4.49992 13.6992 4.5 12.6259V11.3746Z" fill="#141B34"/>
</svg>
