<svg width="24" height="24" viewBox="0 0 24 24" fill="none" xmlns="http://www.w3.org/2000/svg">
<path fill-rule="evenodd" clip-rule="evenodd" d="M11.999 1.25C10.3872 1.25 9.07996 1.82495 7.94894 2.44345C7.60405 2.63206 7.28503 2.81782 6.98112 2.99479C6.24233 3.42498 5.59274 3.80324 4.87748 4.04413C4.4553 4.18631 4.07633 4.31393 3.8082 4.42484C3.55436 4.52984 3.24898 4.67545 3.03361 4.92811C2.84336 5.15129 2.74717 5.3994 2.68359 5.63457C2.62535 5.84993 2.57562 6.14122 2.52737 6.42385C1.35948 13.2609 3.90414 19.7706 10.1947 22.3128C10.8081 22.5608 11.276 22.75 12.0021 22.75C12.7282 22.75 13.1962 22.5608 13.8095 22.3128C20.0999 19.7705 22.642 13.2606 21.4738 6.4238C21.4255 6.14115 21.3757 5.84978 21.3175 5.63441C21.2539 5.39922 21.1577 5.15108 20.9674 4.92789C20.752 4.67524 20.4466 4.52967 20.1927 4.4247C19.9246 4.31383 19.5457 4.18628 19.1235 4.04418C18.4078 3.80327 17.7577 3.42491 17.0183 2.99465L17.0183 2.99462L17.0183 2.9946C16.7142 2.81768 16.3951 2.63197 16.0502 2.44344C14.9186 1.82495 13.6109 1.25 11.999 1.25ZM14.4904 15.1414C14.1975 15.4343 13.7227 15.4343 13.4298 15.1414C13.2669 14.9785 13.1946 14.7593 13.2129 14.5464C13.2196 14.4685 13.1959 14.3883 13.1355 14.3385C13.0825 14.2948 13.0274 14.2491 12.9704 14.2016C12.7299 14.0009 12.4542 13.7655 12.1705 13.5123C12.091 13.4414 11.9697 13.4443 11.8944 13.5197L9.45711 15.9569C9.06658 16.3475 8.43342 16.3475 8.04289 15.9569C7.65237 15.5664 7.65237 14.9333 8.04289 14.5427L10.4801 12.1055C10.5555 12.0301 10.5585 11.9089 10.4875 11.8294C10.2343 11.5456 9.99887 11.2699 9.79815 11.0293C9.75064 10.9724 9.70494 10.9173 9.66127 10.8643C9.61151 10.8039 9.53133 10.7802 9.45337 10.7869C9.24048 10.8052 9.02126 10.7329 8.85834 10.57C8.56545 10.2771 8.56545 9.80225 8.85834 9.50935L11.398 6.96967C11.6909 6.67678 12.1658 6.67678 12.4587 6.96967C12.6216 7.13259 12.6939 7.35181 12.6756 7.5647C12.6689 7.64265 12.6926 7.72283 12.753 7.7726C12.8059 7.81626 12.8611 7.86196 12.918 7.90948C13.4047 8.31559 14.0353 8.8637 14.5857 9.41411C15.1361 9.96453 15.6842 10.5951 16.0903 11.0818C16.1378 11.1387 16.1835 11.1939 16.2272 11.2468C16.277 11.3072 16.3571 11.3309 16.4351 11.3242C16.648 11.3059 16.8672 11.3782 17.0301 11.5411C17.323 11.834 17.323 12.3089 17.0301 12.6018L14.4904 15.1414Z" fill="#141B34"/>
</svg>
