<svg width="24" height="24" viewBox="0 0 24 24" fill="none" xmlns="http://www.w3.org/2000/svg">
<path fill-rule="evenodd" clip-rule="evenodd" d="M12 2.75C7.52225 2.75 3.75 6.51857 3.75 11.0869C3.75 15.7671 7.60753 18.8945 10.8271 20.9273L10.84 20.9355L10.8533 20.9431C11.2022 21.144 11.5974 21.25 12 21.25C12.4026 21.25 12.7978 21.144 13.1467 20.9431L13.1583 20.9365L13.1696 20.9294C16.4018 18.9121 20.25 15.7513 20.25 11.0869C20.25 6.51857 16.4778 2.75 12 2.75ZM12 7.5C10.067 7.5 8.5 9.067 8.5 11C8.5 12.933 10.067 14.5 12 14.5C13.933 14.5 15.5 12.933 15.5 11C15.5 9.067 13.933 7.5 12 7.5Z" fill="#141B34"/>
<path fill-rule="evenodd" clip-rule="evenodd" d="M2.73205 6.08316C3.23827 6.30396 3.46966 6.89333 3.24886 7.39955C2.25038 9.68881 2.25038 12.3107 3.24886 14.6C3.46966 15.1062 3.23827 15.6956 2.73205 15.9164C2.22582 16.1372 1.63645 15.9058 1.41565 15.3996C0.194784 12.6004 0.194783 9.39909 1.41565 6.59998C1.63645 6.09375 2.22582 5.86236 2.73205 6.08316ZM21.268 6.08316C21.7742 5.86236 22.3636 6.09375 22.5844 6.59998C23.8052 9.39909 23.8052 12.6004 22.5844 15.3996C22.3636 15.9058 21.7742 16.1372 21.268 15.9164C20.7617 15.6956 20.5303 15.1062 20.7511 14.6C21.7496 12.3107 21.7496 9.68881 20.7511 7.39955C20.5303 6.89333 20.7617 6.30396 21.268 6.08316Z" fill="#141B34"/>
</svg>
