<svg width="24" height="24" viewBox="0 0 24 24" fill="none" xmlns="http://www.w3.org/2000/svg">
<path d="M18.875 16.875C18.875 17.7034 18.2034 18.375 17.375 18.375C16.5466 18.375 15.875 17.7034 15.875 16.875C15.875 16.0466 16.5466 15.375 17.375 15.375C18.2034 15.375 18.875 16.0466 18.875 16.875Z" fill="white"/>
<path d="M15.4548 9.662L19.6905 7.26197C20.0515 7.05742 20.2321 6.95514 20.3789 7.03609C20.5257 7.11703 20.5354 7.31979 20.5548 7.72529C20.5808 8.27185 20.595 8.90551 20.611 9.6547C20.6153 9.85716 20.6187 9.9956 20.6212 10.0968C20.635 10.6485 21.0583 11.1048 21.6101 11.1166C22.1618 11.1283 22.6343 10.6909 22.6212 10.1392C22.6185 10.0269 22.6145 9.86761 22.609 9.61215L22.6074 9.53677C22.5762 8.07128 22.5503 6.86037 22.3797 5.87916C22.1979 4.8336 21.8391 3.95811 21.0896 3.20674C20.6663 2.78228 20.1999 2.4827 19.684 2.26889C19.6055 2.22604 19.5214 2.19373 19.4337 2.17311C19.1039 2.05684 18.7546 1.97116 18.3843 1.90676C17.3834 1.73265 16.1415 1.70152 14.6321 1.66368L14.5573 1.66181C12.6015 1.61273 11.1485 1.61274 9.1927 1.66181L9.11785 1.66369C7.60849 1.70152 6.36661 1.73265 5.36564 1.90675C4.30328 2.09154 3.41376 2.45141 2.66036 3.20674C1.9109 3.95811 1.55205 4.8336 1.37026 5.87916C1.19965 6.86038 1.17383 8.07123 1.14258 9.53675L1.14097 9.61214C1.11967 10.6101 1.11968 11.14 1.14099 12.1379L1.1426 12.2133C1.17384 13.6788 1.19966 14.8896 1.37027 15.8709C1.55207 16.9164 1.91092 17.7919 2.66037 18.5433C3.41378 19.2986 4.30329 19.6585 5.36566 19.8433C6.36662 20.0174 7.6085 20.0485 9.11786 20.0863L9.19272 20.0882C9.52092 20.0964 9.7223 20.1033 9.87724 20.1088C10.4281 20.1282 10.8748 19.6782 10.8748 19.127C10.8748 18.5758 10.4279 18.1314 9.87709 18.1118C9.73198 18.1066 9.54193 18.1003 9.24291 18.0928C7.63997 18.0526 6.54674 18.0226 5.70855 17.8768C4.91527 17.7388 4.4531 17.5124 4.07622 17.1345C3.69538 16.7527 3.47276 16.2968 3.33932 15.5293C3.19761 14.7143 3.17236 13.6553 3.13905 12.0953C3.11834 11.1258 3.11833 10.6242 3.13903 9.6547C3.15503 8.90561 3.16916 8.27204 3.19523 7.72553C3.21457 7.32001 3.22424 7.11725 3.37108 7.0363C3.51792 6.95535 3.69843 7.05763 4.05945 7.26219L8.29485 9.662C9.59446 10.3984 10.6936 10.875 11.8748 10.875C13.056 10.875 14.1551 10.3984 15.4548 9.662Z" fill="#141B34"/>
<path fill-rule="evenodd" clip-rule="evenodd" d="M17.375 13.375C15.442 13.375 13.875 14.942 13.875 16.875C13.875 18.808 15.442 20.375 17.375 20.375C17.9273 20.375 18.375 20.8227 18.375 21.375C18.375 21.9273 17.9273 22.375 17.375 22.375C14.3374 22.375 11.875 19.9126 11.875 16.875C11.875 13.8374 14.3374 11.375 17.375 11.375C20.4126 11.375 22.875 13.8374 22.875 16.875V17.375C22.875 18.7557 21.7557 19.875 20.375 19.875C19.6546 19.875 19.0053 19.5703 18.5491 19.0827C18.1991 19.2693 17.7994 19.375 17.375 19.375C15.9943 19.375 14.875 18.2557 14.875 16.875C14.875 15.4943 15.9943 14.375 17.375 14.375C18.7557 14.375 19.875 15.4943 19.875 16.875V17.375C19.875 17.6511 20.0989 17.875 20.375 17.875C20.6511 17.875 20.875 17.6511 20.875 17.375V16.875C20.875 14.942 19.308 13.375 17.375 13.375ZM17.875 16.875C17.875 16.5989 17.6511 16.375 17.375 16.375C17.0989 16.375 16.875 16.5989 16.875 16.875C16.875 17.1511 17.0989 17.375 17.375 17.375C17.6511 17.375 17.875 17.1511 17.875 16.875Z" fill="#141B34"/>
</svg>
