<svg width="24" height="24" viewBox="0 0 24 24" fill="none" xmlns="http://www.w3.org/2000/svg">
<path d="M16.028 1.76963C16.5535 1.51102 17.1975 1.25195 17.9993 1.25195C18.8011 1.25195 19.4453 1.51101 19.971 1.76959C20.1494 1.85736 20.3038 1.93828 20.4442 2.01184C20.7544 2.17444 20.996 2.30107 21.2769 2.38617C21.4566 2.44062 21.6443 2.49745 21.7752 2.54616C21.8874 2.58794 22.106 2.67244 22.2761 2.85195C22.426 3.01026 22.4969 3.18365 22.5373 3.3182C22.5707 3.42913 22.5988 3.57774 22.6186 3.68211C23.1761 6.6187 21.9481 9.45791 18.9354 10.5538C18.6623 10.6532 18.3912 10.7519 18.0007 10.752C17.6102 10.752 17.3391 10.6532 17.0659 10.5538C14.0533 9.45802 12.824 6.619 13.3814 3.68215C13.4012 3.5778 13.4293 3.42921 13.4626 3.31829C13.503 3.18374 13.5739 3.01037 13.7238 2.85207C13.8939 2.67255 14.1124 2.58802 14.2247 2.54624C14.3556 2.49751 14.5432 2.44065 14.723 2.38616C15.0037 2.30108 15.245 2.17452 15.555 2.01196C15.6953 1.93839 15.8496 1.85744 16.028 1.76963Z" fill="#141B34"/>
<path fill-rule="evenodd" clip-rule="evenodd" d="M12.1145 2.54528C12.1149 2.5909 12.0853 2.68951 12.026 2.88672C11.9691 3.07627 11.9283 3.29335 11.9106 3.38695L11.9077 3.40248C11.2381 6.93219 12.7328 10.5736 16.5527 11.9633L16.577 11.9721C16.866 12.0776 17.344 12.252 18.0007 12.252C18.6574 12.252 19.1354 12.0776 19.4244 11.9721L19.4487 11.9632C20.364 11.6302 21.1457 11.168 21.796 10.6091C22.121 10.3298 22.2835 10.1902 22.4127 10.2041C22.4721 10.2105 22.5251 10.2328 22.5713 10.2708C22.6715 10.3534 22.6838 10.5425 22.7082 10.9207C22.7639 11.7831 22.7639 12.6752 22.7082 13.5376C22.4103 18.1474 18.787 21.8337 14.2204 22.1373C12.7601 22.2343 11.2369 22.2341 9.77965 22.1373C9.21472 22.0997 8.59978 21.9661 8.05839 21.7431C7.97233 21.7077 7.89626 21.6764 7.82861 21.6488C7.69203 21.5932 7.62373 21.5653 7.54604 21.575C7.46835 21.5846 7.40859 21.6286 7.28907 21.7165L7.1938 21.7866C6.40136 22.371 5.40092 22.7809 3.98117 22.7463L3.93544 22.7452C3.66155 22.7387 3.36961 22.7317 3.13152 22.6857C2.84475 22.6302 2.48996 22.4915 2.26791 22.1129C2.02623 21.7009 2.12313 21.2842 2.21688 21.0218C2.30536 20.7741 2.45874 20.4836 2.61542 20.1869L2.6369 20.1462C3.10323 19.2625 3.23314 18.5403 2.98381 18.0588C2.15148 16.8024 1.40272 15.254 1.2918 13.5376C1.23607 12.6752 1.23607 11.7831 1.2918 10.9207C1.58972 6.31095 5.213 2.62466 9.77965 2.3211C10.3812 2.28111 10.994 2.2576 11.609 2.2506C11.7741 2.24872 11.8567 2.24778 11.9004 2.26085C12.0435 2.30361 12.113 2.39597 12.1145 2.54528ZM8.5 15.7522C8.08579 15.7522 7.75 15.4165 7.75 15.0022C7.75 14.588 8.08579 14.2522 8.5 14.2522H15.5C15.9142 14.2522 16.25 14.588 16.25 15.0022C16.25 15.4165 15.9142 15.7522 15.5 15.7522H8.5ZM8.5 10.7522C8.08579 10.7522 7.75 10.4165 7.75 10.0022C7.75 9.58803 8.08579 9.25224 8.5 9.25224H11C11.4142 9.25224 11.75 9.58803 11.75 10.0022C11.75 10.4165 11.4142 10.7522 11 10.7522H8.5Z" fill="#141B34"/>
</svg>
