<svg width="24" height="25" viewBox="0 0 24 25" fill="none" xmlns="http://www.w3.org/2000/svg">
<path fill-rule="evenodd" clip-rule="evenodd" d="M7.7461 2.93599C8.92312 2.32562 10.299 1.75 11.9982 1.75C13.6974 1.75 15.0739 2.32562 16.2515 2.93595C16.6183 3.12608 16.9531 3.31088 17.2692 3.48531C18.0233 3.90152 18.6706 4.25874 19.3906 4.48858C19.8215 4.62612 20.2214 4.75378 20.5032 4.86426C20.7634 4.96629 21.1189 5.12189 21.3783 5.41041C21.6082 5.66611 21.7222 5.94948 21.7943 6.20217C21.8582 6.42633 21.913 6.73073 21.9616 7.00052C23.1863 13.7977 20.5112 20.2868 13.9235 22.8115C13.2913 23.054 12.7801 23.25 12.0015 23.25C11.2228 23.25 10.7115 23.054 10.0793 22.8116C3.49156 20.2869 0.813658 13.7981 2.03813 7.00058C2.08667 6.73083 2.14144 6.42648 2.20536 6.20234C2.2774 5.94967 2.39138 5.66633 2.62122 5.41064C2.88059 5.12211 3.23608 4.96646 3.49627 4.8644C3.77803 4.75388 4.178 4.62616 4.60895 4.48853C5.32854 4.25871 5.97521 3.9016 6.72876 3.48546L6.7288 3.48544C7.0447 3.31099 7.37938 3.12616 7.7461 2.93599ZM7.83444 5.11037C7.01856 5.56102 6.1182 6.05833 5.20293 6.35064C4.88738 6.45142 4.58904 6.55341 4.36164 6.63518C4.22766 6.68336 4.16066 6.70745 4.109 6.76785C4.05733 6.82825 4.04452 6.89501 4.01888 7.02855C4.00231 7.11492 3.98336 7.21908 3.96023 7.34745C3.72061 8.67769 3.64754 9.97627 3.73711 11.2156C3.75511 11.4647 3.76411 11.5893 3.85048 11.6696C3.93686 11.75 4.06553 11.75 4.32287 11.75H10.651C10.9338 11.75 11.0752 11.75 11.1631 11.6621C11.251 11.5743 11.251 11.4328 11.251 11.15V4.44276C11.251 4.11744 11.251 3.95479 11.1346 3.86471C11.0183 3.77463 10.8712 3.81268 10.577 3.88876C9.91172 4.06083 9.28316 4.34045 8.64477 4.6715C8.38658 4.80539 8.11552 4.95511 7.83444 5.11037ZM19.7642 13.9806C19.8619 13.6548 19.9108 13.4919 19.8209 13.3709C19.7309 13.25 19.5548 13.25 19.2026 13.25H13.351C13.0681 13.25 12.9267 13.25 12.8388 13.3379C12.751 13.4257 12.751 13.5672 12.751 13.85V20.6562C12.751 20.7265 12.751 20.7617 12.7568 20.7909C12.7881 20.9469 12.9444 21.0544 13.1012 21.0277C13.1306 21.0228 13.1623 21.0106 13.2258 20.9863C16.6042 19.6915 18.8122 17.1534 19.7642 13.9806Z" fill="#141B34"/>
</svg>
