<svg width="24" height="24" viewBox="0 0 24 24" fill="none" xmlns="http://www.w3.org/2000/svg">
<path fill-rule="evenodd" clip-rule="evenodd" d="M8.99958 9.40934C8.99968 9.21448 8.99973 9.11706 9.05831 9.05852C9.11688 8.99998 9.21308 8.99998 9.40548 8.99998H16.5993C16.7879 8.99998 16.8821 8.99998 16.9407 9.05855C16.9993 9.11713 16.9993 9.21141 16.9993 9.39998V10.5C16.9993 11.0523 17.447 11.5 17.9993 11.5C18.5516 11.5 18.9993 11.0523 18.9993 10.5V7.99998C18.9993 7.76583 18.9171 7.5391 18.7671 7.35931L16.6855 4.8645C16.4508 4.58318 16.4709 4.23631 16.4908 3.89476C16.4938 3.84396 16.4967 3.79328 16.4988 3.74296C16.5169 3.30902 16.5251 2.58895 16.0544 1.94719C15.5946 1.32032 14.9398 1.11259 14.4258 1.04119C14.0564 0.989868 13.6347 0.998638 13.3487 1.00459C12.0372 1.03186 10.7255 1.02365 9.41389 1.01544C8.78928 1.01153 8.16469 1.00762 7.54012 1.00755C6.97836 1.00748 6.46104 1.00741 6.03977 1.06398C5.5751 1.12638 5.0806 1.27359 4.6734 1.68028C4.26603 2.08714 4.11839 2.58152 4.05584 3.0462C3.99916 3.46724 3.99923 3.98418 3.9993 4.54516C3.9993 4.57116 3.98897 4.59609 3.97059 4.61448C3.43561 5.14945 2.90135 5.68516 2.36555 6.21931C1.88481 6.69858 1.45814 7.12393 1.22766 7.68035C0.997194 8.23676 0.998119 8.8392 0.999162 9.51801C1.0021 11.428 1.00116 13.338 1.00022 15.2479C0.999762 16.1872 0.999301 17.1265 0.999301 18.0658C0.999251 18.9523 0.999208 19.7161 1.08144 20.3278C1.16958 20.9833 1.36832 21.6116 1.87798 22.1213C2.38765 22.631 3.016 22.8297 3.67151 22.9178C4.28318 23.0001 5.047 23 5.9335 23L12 23C12.5523 23 13 22.5523 13 22C13 21.4477 12.5523 21 12 21H9.3993C9.21074 21 9.11647 21 9.05789 20.9414C8.99931 20.8828 8.9993 20.7885 8.99928 20.6C8.99917 19.4679 8.99861 18.3358 8.99805 17.2038C8.99676 14.6056 8.99817 12.0075 8.99958 9.40934ZM5.28215 6.69703C5.14881 6.5637 5.08215 6.49703 4.9993 6.49703C4.91646 6.49703 4.84979 6.5637 4.71646 6.69703L3.87798 7.53551C3.24223 8.17127 3.13384 8.30468 3.07542 8.44572C3.017 8.58676 2.9993 8.75773 2.9993 9.65683V18C2.9993 18.9711 3.00143 19.5988 3.06361 20.0613C3.12192 20.495 3.21607 20.631 3.2922 20.7071C3.36832 20.7832 3.50427 20.8774 3.93801 20.9357C4.40051 20.9979 5.02822 21 5.9993 21H6.5993C6.78787 21 6.88215 21 6.94072 20.9414C6.9993 20.8828 6.9993 20.7885 6.9993 20.6V9.65683C6.9993 8.75773 6.9816 8.58676 6.92318 8.44572C6.86476 8.30468 6.75638 8.17127 6.12062 7.53551L5.28215 6.69703Z" fill="#141B34"/>
<path d="M21.36 20.2992C21.5088 20.448 21.5832 20.5224 21.6763 20.5141C21.7695 20.5057 21.8267 20.4232 21.9412 20.2581C22.3806 19.6245 22.6834 18.9127 22.7406 18.1327C22.8291 16.9249 22.3178 15.7208 21.1711 14.5741C20.0228 13.4258 18.503 12.6664 17.0682 12.3794C16.1211 12.19 15.1136 12.1915 14.2657 12.5098C14.0546 12.589 13.9491 12.6286 13.926 12.7352C13.903 12.8418 13.9894 12.9283 14.1623 13.1012L21.36 20.2992Z" fill="#141B34"/>
<path d="M13.1015 14.1617C12.9286 13.9888 12.8421 13.9023 12.7355 13.9254C12.629 13.9484 12.5893 14.0539 12.5101 14.2649C12.1915 15.113 12.19 16.1208 12.3794 17.0682C12.6664 18.503 13.4258 20.0228 14.5741 21.1711C15.7208 22.3178 16.9249 22.8291 18.1327 22.7406C18.9128 22.6834 19.6245 22.3805 20.2582 21.9411C20.4233 21.8267 20.5058 21.7694 20.5142 21.6763C20.5225 21.5831 20.4481 21.5087 20.2993 21.3599L13.1015 14.1617Z" fill="#141B34"/>
</svg>
