<svg width="24" height="24" viewBox="0 0 24 24" fill="none" xmlns="http://www.w3.org/2000/svg">
<path d="M20.3328 6.14357C20.6554 6.34838 21.1036 6.2608 21.3359 5.81853C21.5284 5.4518 21.9818 5.31062 22.3486 5.50319C22.7153 5.69575 22.8565 6.14915 22.6639 6.51588C22.0596 7.66666 20.6551 8.12489 19.5289 7.40996L17.3427 6.02217C16.499 5.48659 15.9331 5.12946 15.4798 4.92461C15.0472 4.72914 14.8361 4.72897 14.6752 4.77635C14.4316 4.84814 14.1596 5.07217 13.6496 5.95662C13.4427 6.31544 12.984 6.43857 12.6252 6.23164C12.2664 6.02471 12.1432 5.56608 12.3502 5.20726C12.8534 4.33467 13.3803 3.59412 14.2513 3.33749C14.8985 3.14682 15.5036 3.28931 16.0975 3.5577C16.6595 3.81165 17.3153 4.22801 18.0997 4.72598L20.3328 6.14357Z" fill="#141B34"/>
<path fill-rule="evenodd" clip-rule="evenodd" d="M13.185 5.35383C10.8681 4.03913 8.83383 3.9553 7.07253 4.80336C5.37246 5.62195 4.05603 7.25023 2.98468 9.07398C1.91439 10.8959 1.13472 12.8343 1.26403 14.699C1.39841 16.6369 2.49864 18.3322 4.81497 19.6466C7.13189 20.9613 9.16616 21.0451 10.9275 20.197C12.6276 19.3784 13.944 17.7502 15.0153 15.9264C16.0856 14.1045 16.8653 12.1661 16.736 10.3014C16.6016 8.36346 15.5013 6.66819 13.185 5.35383ZM10.6215 7.49811C10.8976 7.01981 11.5092 6.85594 11.9875 7.13208C12.4658 7.40822 12.6297 8.01981 12.3535 8.49811L11.3535 10.2302C11.0774 10.7084 10.4658 10.8723 9.98749 10.5962C9.5092 10.32 9.34532 9.70845 9.62146 9.23016L10.6215 7.49811Z" fill="#141B34"/>
</svg>
