<svg width="24" height="24" viewBox="0 0 24 24" fill="none" xmlns="http://www.w3.org/2000/svg">
<path d="M10.1094 14.7045L9.9551 14.8962L9.941 14.9138L9.94099 14.9138C9.88325 14.9858 9.79746 15.0927 9.70841 15.1757C9.59698 15.2796 9.37956 15.4442 9.05921 15.4442C8.73886 15.4442 8.52144 15.2796 8.41001 15.1757C8.32095 15.0927 8.23516 14.9858 8.17742 14.9138L8.16331 14.8962L8.01006 14.7058L7.74974 18.058C7.71767 18.4709 7.35689 18.7797 6.94392 18.7476C6.53095 18.7156 6.22217 18.3548 6.25424 17.9418L6.59593 13.5419L6.59844 13.5094C6.61051 13.3527 6.62472 13.1682 6.6558 13.0209C6.67808 12.9153 6.77729 12.45 7.2616 12.2922C7.76942 12.1267 8.12427 12.4777 8.20256 12.5568C8.30849 12.6638 8.41899 12.8116 8.50993 12.9333L8.5218 12.9492L9.0592 13.617L9.59709 12.9486L9.60896 12.9327C9.69981 12.8111 9.81026 12.6633 9.91615 12.5564C9.99454 12.4772 10.3492 12.1265 10.8568 12.2918C11.3409 12.4494 11.4404 12.9142 11.4628 13.0199C11.4939 13.1671 11.5082 13.3515 11.5204 13.5081L11.5229 13.5405L11.8674 17.9414C11.8997 18.3543 11.5911 18.7153 11.1782 18.7476C10.7652 18.7799 10.4042 18.4714 10.3719 18.0584L10.1094 14.7045Z" fill="#141B34"/>
<path fill-rule="evenodd" clip-rule="evenodd" d="M14.1323 12.25C14.1438 12.25 14.1553 12.25 14.1667 12.25H14.8255C15.9303 12.25 16.8108 13.1538 16.8108 14.25C16.8108 15.3462 15.9303 16.25 14.8255 16.25H13.9285V18C13.9285 18.4142 13.5927 18.75 13.1785 18.75C12.7643 18.75 12.4285 18.4142 12.4285 18V14C12.4285 13.9887 12.4285 13.9772 12.4285 13.9658C12.4284 13.7605 12.4283 13.5392 12.4531 13.3526C12.482 13.1349 12.5564 12.8554 12.7897 12.6193C13.0243 12.3819 13.3041 12.305 13.5234 12.2752C13.7097 12.2498 13.93 12.2499 14.1323 12.25ZM13.9285 14.75H14.8255C15.0852 14.75 15.3108 14.5346 15.3108 14.25C15.3108 13.9655 15.0852 13.75 14.8255 13.75H14.1667C14.0728 13.75 13.9961 13.7501 13.9296 13.751C13.9285 13.8206 13.9285 13.901 13.9285 14V14.75Z" fill="#141B34"/>
<path fill-rule="evenodd" clip-rule="evenodd" d="M18.1196 12.25C18.5339 12.25 18.8696 12.5858 18.8696 13V13.8333C18.8696 14.2471 18.8712 14.4829 18.8933 14.6489C18.8971 14.6777 18.901 14.6997 18.9045 14.7164C18.9196 14.7195 18.9392 14.7229 18.9642 14.7263C19.1261 14.7484 19.357 14.75 19.7667 14.75H20.252V13C20.252 12.5858 20.5878 12.25 21.002 12.25C21.4162 12.25 21.752 12.5858 21.752 13V18C21.752 18.4142 21.4162 18.75 21.002 18.75C20.5878 18.75 20.252 18.4142 20.252 18V16.25H19.7667C19.7525 16.25 19.7384 16.25 19.7242 16.25C19.3729 16.2501 19.0374 16.2501 18.762 16.2126C18.4529 16.1706 18.1102 16.0693 17.8274 15.7831C17.5458 15.4982 17.4473 15.155 17.4063 14.8465C17.3695 14.5695 17.3696 14.2318 17.3696 13.8753C17.3696 13.8614 17.3696 13.8474 17.3696 13.8333V13C17.3696 12.5858 17.7054 12.25 18.1196 12.25Z" fill="#141B34"/>
<path d="M7.13841 20.7033C8.00786 20.7942 9.13899 20.7955 10.7476 20.7955H14.9079C15.4456 20.7955 15.8816 21.233 15.8816 21.7727C15.8816 22.3125 15.4456 22.75 14.9079 22.75H10.6927C9.15159 22.75 7.91879 22.75 6.93654 22.6473C5.92712 22.5417 5.0659 22.3186 4.32113 21.7919C3.93077 21.5159 3.58222 21.1871 3.28704 20.8146C2.71721 20.0956 2.47396 19.2577 2.35985 18.2843C2.24996 17.3469 2.24998 16.1743 2.25 14.7262V12.1428V12.1427C2.25 10.7244 2.24999 9.61179 2.30919 8.71107C2.36944 7.79422 2.49398 7.02952 2.77509 6.31755C3.61848 4.1815 5.39221 2.51875 7.61221 1.73658C8.99465 1.2495 10.6813 1.24971 13.5209 1.25007L13.7572 1.25009L13.9605 1.25004L13.9606 1.25004C15.5156 1.2495 16.548 1.24914 17.4068 1.55172C18.7834 2.03673 19.8918 3.071 20.4206 4.41031C20.6039 4.87447 20.6795 5.36014 20.7153 5.90477C20.75 6.43335 20.75 7.08083 20.75 7.87999V7.88006V10.0455C20.75 10.5852 20.3141 11.0228 19.7763 11.0228C19.2386 11.0228 18.8026 10.5852 18.8026 10.0455V7.91329C18.8026 7.07303 18.8021 6.49008 18.7721 6.03341C18.7427 5.58546 18.6879 5.32704 18.6102 5.1304C18.3001 4.34503 17.6344 3.70339 16.7618 3.39593C16.2584 3.21858 15.5913 3.20463 13.7572 3.20463C13.4591 3.20463 13.1023 3.2058 12.7641 3.20732C12.426 3.20885 11.8726 3.21134 11.4104 3.48025C11.1057 3.65756 10.8849 3.85945 10.7582 4.08004C10.5409 4.45845 10.4166 4.89711 10.4166 5.3648C10.4166 5.51193 10.4262 5.70446 10.4344 5.88206L10.4344 5.88212C10.4417 6.03696 10.4496 6.20566 10.4531 6.3737C10.461 6.75379 10.449 7.19733 10.3343 7.62548C10.1108 8.45945 9.4594 9.11086 8.62543 9.33432C8.19728 9.44904 7.75374 9.46105 7.37365 9.45315C7.20551 9.44966 7.03693 9.44174 6.88201 9.43446C6.70441 9.42622 6.48041 9.41667 6.33328 9.41667C5.88661 9.41667 5.46642 9.53003 5.09991 9.72955C4.87246 9.85337 4.65104 10.0965 4.47811 10.3875C4.19749 10.8596 4.19732 11.4982 4.19734 11.7652L4.19737 14.6653C4.19737 16.1888 4.19894 17.2461 4.29387 18.0559C4.38611 18.8427 4.55555 19.2754 4.81111 19.5979C4.9889 19.8223 5.20128 20.0234 5.44274 20.1941C5.80057 20.4472 6.28449 20.6139 7.13841 20.7033Z" fill="#141B34"/>
</svg>
