<svg width="24" height="24" viewBox="0 0 24 24" fill="none" xmlns="http://www.w3.org/2000/svg">
<path fill-rule="evenodd" clip-rule="evenodd" d="M6.99951 1.125C7.5518 1.125 7.99951 1.57272 7.99951 2.125V4.125C7.99951 4.67728 7.5518 5.125 6.99951 5.125C6.44723 5.125 5.99951 4.67728 5.99951 4.125V2.125C5.99951 1.57272 6.44723 1.125 6.99951 1.125ZM11.9995 1.125C12.5518 1.125 12.9995 1.57272 12.9995 2.125V4.125C12.9995 4.67728 12.5518 5.125 11.9995 5.125C11.4472 5.125 10.9995 4.67728 10.9995 4.125V2.125C10.9995 1.57272 11.4472 1.125 11.9995 1.125ZM16.9995 1.125C17.5518 1.125 17.9995 1.57272 17.9995 2.125V4.125C17.9995 4.67728 17.5518 5.125 16.9995 5.125C16.4472 5.125 15.9995 4.67728 15.9995 4.125V2.125C15.9995 1.57272 16.4472 1.125 16.9995 1.125Z" fill="#141B34"/>
<path fill-rule="evenodd" clip-rule="evenodd" d="M14.5549 2.375H14.5549H14.5549C15.9225 2.37498 17.0248 2.37497 17.8918 2.49153C18.7919 2.61254 19.5497 2.87144 20.1517 3.47335C20.7536 4.07527 21.0125 4.83314 21.1335 5.73325C21.25 6.60022 21.25 7.70254 21.25 9.07013L21.25 16.1799C21.25 17.5475 21.25 18.6498 21.1335 19.5168C21.0125 20.4169 20.7536 21.1747 20.1517 21.7767C19.5497 22.3786 18.7919 22.6375 17.8918 22.7585C17.0248 22.875 15.9225 22.875 14.5549 22.875H12.0199L10.1707 19.3951L10.1274 19.3263C9.63712 18.5456 9.228 17.8941 8.83504 17.426C8.42091 16.9325 7.94572 16.544 7.29331 16.4262C6.36916 16.2594 5.33322 16.6417 4.51567 17.0594C3.90846 17.3696 3.3311 17.7473 2.8635 18.0946C2.83003 17.9482 2.80728 17.798 2.79132 17.6436C2.74997 17.2437 2.74998 16.7598 2.75 16.1898V16.1898V16.1898V16.1897L2.75 9.07013V9.0701V9.07008V9.07004C2.74998 7.70249 2.74997 6.6002 2.86653 5.73325C2.98754 4.83314 3.24644 4.07527 3.84835 3.47335C4.45027 2.87144 5.20814 2.61254 6.10825 2.49153C6.97521 2.37497 8.07751 2.37498 9.44508 2.375H9.4451H9.44511H9.44513L14.5549 2.375H14.5549ZM8.87155 20.147L10.2731 22.7844C9.98546 22.7066 9.71351 22.5705 9.37574 22.4014L9.37572 22.4014L9.32001 22.3735L5.34281 20.3849L5.34275 20.3849C4.83294 20.13 4.40009 19.9136 4.06088 19.6978C3.9105 19.6021 3.76913 19.5009 3.63874 19.3886C4.06618 19.0617 4.62191 18.6895 5.19813 18.3951C5.97284 17.9993 6.62193 17.8293 7.02679 17.9024C7.19078 17.932 7.38123 18.027 7.68609 18.3903C8.00152 18.7661 8.35283 19.3212 8.87155 20.147ZM8 8.375C7.58579 8.375 7.25 8.71079 7.25 9.125C7.25 9.53921 7.58579 9.875 8 9.875L12 9.875C12.4142 9.875 12.75 9.53921 12.75 9.125C12.75 8.71079 12.4142 8.375 12 8.375L8 8.375ZM8 13.375C7.58579 13.375 7.25 13.7108 7.25 14.125C7.25 14.5392 7.58579 14.875 8 14.875L16 14.875C16.4142 14.875 16.75 14.5392 16.75 14.125C16.75 13.7108 16.4142 13.375 16 13.375L8 13.375Z" fill="#141B34"/>
</svg>
