<svg width="25" height="24" viewBox="0 0 25 24" fill="none" xmlns="http://www.w3.org/2000/svg">
<path d="M7.11328 15.125C5.73257 15.125 4.61328 16.2443 4.61328 17.625C4.61328 19.0057 5.73257 20.125 7.11328 20.125C8.49399 20.125 9.61328 19.0057 9.61328 17.625C9.61328 16.2443 8.49399 15.125 7.11328 15.125Z" fill="#141B34"/>
<path d="M17.1133 15.125C15.7326 15.125 14.6133 16.2443 14.6133 17.625C14.6133 19.0057 15.7326 20.125 17.1133 20.125C18.494 20.125 19.6133 19.0057 19.6133 17.625C19.6133 16.2443 18.494 15.125 17.1133 15.125Z" fill="#141B34"/>
<path fill-rule="evenodd" clip-rule="evenodd" d="M14.9119 3.92966C15.4659 3.98811 15.9712 4.11422 16.457 4.40729C16.9369 4.69679 17.2993 5.08993 17.6397 5.55943C17.9651 6.00835 18.333 6.62281 18.7513 7.3216C19.3083 8.25183 19.9704 8.9664 20.7554 9.54001C21.5505 10.1201 22.1915 10.5878 22.544 11.3538C22.7242 11.7452 22.7975 12.1425 22.8314 12.5644C22.8528 12.8316 22.8599 13.1347 22.8622 13.4748C22.8634 13.6629 22.8641 13.7569 22.8054 13.8159C22.7468 13.875 22.6522 13.875 22.4631 13.875H21.8633C21.4491 13.875 21.1133 14.2108 21.1133 14.625C21.1133 15.0392 21.4491 15.375 21.8633 15.375H22.4309C22.6286 15.375 22.7275 15.375 22.7869 15.4395C22.8463 15.5041 22.8384 15.5995 22.8226 15.7904C22.8176 15.8512 22.8119 15.9097 22.8056 15.9656C22.7446 16.5016 22.6071 17.0387 22.2282 17.4954C22.0036 17.7396 21.7277 17.9369 21.4374 18.078C21.2922 18.1486 21.2196 18.184 21.1367 18.1766C21.0454 18.1685 20.9534 18.1109 20.9062 18.0323C20.8633 17.961 20.8633 17.849 20.8633 17.625C20.8633 15.5539 19.1843 13.875 17.1133 13.875C15.0422 13.875 13.3633 15.5539 13.3633 17.625L13.3633 17.646C13.3654 18.0141 13.3664 18.1981 13.2784 18.2866C13.1904 18.375 13.0284 18.375 12.7043 18.375L11.5223 18.375C11.1982 18.375 11.0361 18.375 10.9482 18.2866C10.8602 18.1981 10.8612 18.0141 10.8632 17.646V17.646L10.8633 17.625C10.8633 15.5539 9.18435 13.875 7.11328 13.875C5.04221 13.875 3.36328 15.5539 3.36328 17.625C3.36328 17.7585 3.36328 17.8252 3.34831 17.8708C3.30209 18.0116 3.14679 18.1012 3.0018 18.0708C2.95483 18.061 2.91668 18.039 2.84039 17.9949C2.65516 17.888 2.46437 17.7606 2.25188 17.6188L2.25187 17.6188L2.18956 17.5772C1.99296 17.4462 1.74097 17.2675 1.57187 16.9843C1.39263 16.6842 1.36328 16.3683 1.36328 16.0898V11.625C1.36328 11.2108 1.69907 10.875 2.11328 10.875H10.9633C11.1518 10.875 11.2461 10.875 11.3047 10.8164C11.3633 10.7578 11.3633 10.6636 11.3633 10.475V4.84168C11.3633 4.5853 11.4642 4.33943 11.644 4.15814C11.8237 3.97686 12.0674 3.87501 12.3216 3.87501L13.0386 3.875H13.0386C13.7713 3.87499 14.3935 3.87497 14.9119 3.92966ZM13.3763 5.92567C13.4098 5.85435 13.4295 5.84648 13.469 5.83074C13.5036 5.81688 13.5415 5.80936 13.5812 5.80958C14.0595 5.81223 14.4167 5.82138 14.7132 5.85266C15.0959 5.89302 15.3046 5.96453 15.474 6.06671C15.6493 6.17245 15.833 6.34179 16.0933 6.70082C16.3629 7.07266 16.6658 7.57689 17.1114 8.32119C17.5182 9.00067 17.9463 9.57979 18.4499 10.0977C18.7955 10.4531 18.9683 10.6307 18.9167 10.7529C18.865 10.8751 18.6276 10.8751 18.1527 10.8751H17.4106C16.6524 10.8751 16.1587 10.8735 15.7807 10.8218C15.4321 10.7742 15.2537 10.692 15.1091 10.5701C14.9517 10.4375 14.7974 10.2257 14.6098 9.78769C14.4185 9.34129 14.2249 8.74165 13.9465 7.87537L13.3845 6.12704C13.3566 6.04034 13.3427 5.997 13.3763 5.92567Z" fill="#141B34"/>
</svg>
