<svg width="24" height="24" viewBox="0 0 24 24" fill="none" xmlns="http://www.w3.org/2000/svg">
<path d="M11.2363 12.8932C11.2363 13.1299 11.0477 13.3218 10.815 13.3218H7.765C7.61034 13.3218 7.53302 13.3218 7.45328 13.3812C7.37354 13.4405 7.35698 13.4959 7.32385 13.6065C7.2782 13.759 7.25619 13.9138 7.24998 13.9999C7.24998 14.641 7.46931 15.2308 7.83703 15.6984C7.90755 15.7881 7.94282 15.8329 8.00489 15.8631C8.06697 15.8932 8.13237 15.8932 8.26317 15.8932H10.815C11.0477 15.8932 11.2363 16.0851 11.2363 16.3218C11.2363 16.5585 11.0477 16.7504 10.815 16.7504H8.84998C8.5604 16.7504 8.41561 16.7504 8.32614 16.8507C8.23668 16.9509 8.25187 17.0838 8.28226 17.3494C8.38068 18.2096 8.69699 18.7696 9.13252 19.1808C9.20214 19.2465 9.23697 19.2794 9.29034 19.3006C9.34371 19.3218 9.39821 19.3218 9.50719 19.3218H11.9383C12.1709 19.3218 12.3595 19.5137 12.3595 19.7504C12.3595 19.9871 12.1709 20.1789 11.9383 20.1789H10.0361C9.74406 20.1789 9.59802 20.1789 9.50795 20.2909C9.41789 20.4029 9.44508 20.5268 9.49946 20.7747C9.7622 21.9724 10.8088 22.7499 12 22.7499H14.6927C15.7573 22.7499 16.5921 22.7499 17.2674 22.707C17.9542 22.6634 18.5269 22.5733 19.0599 22.3693C20.5808 21.7873 21.7834 20.589 22.3678 19.0713C22.5726 18.5393 22.6631 17.9677 22.7069 17.2826C22.75 16.6092 22.75 15.7769 22.75 14.7156C22.7501 13.6684 22.7502 12.9044 22.6158 12.295C22.4111 11.3666 21.9782 10.5037 21.3563 9.78382C20.9482 9.31133 20.4311 8.92482 19.5904 8.29643L15.0806 5.02834C15.0022 4.97172 14.9197 4.92376 14.8344 4.88447C14.6106 4.807 14.3782 4.76303 14.1447 4.75244C13.8434 4.76847 13.5462 4.87767 13.2976 5.07933C12.6096 5.63763 12.553 6.6777 13.1757 7.30936L15.0015 9.16114C15.1223 9.2836 15.1586 9.46804 15.0934 9.62836C15.0283 9.78867 14.8746 9.89323 14.7041 9.89323L3.53571 9.89323C2.82563 9.89323 2.25 10.4689 2.25 11.1789C2.25 11.889 2.82563 12.4647 3.53571 12.4647L10.815 12.4647C11.0477 12.4647 11.2363 12.6565 11.2363 12.8932Z" fill="#141B34"/>
<path d="M8.25004 5.50586C8.80232 5.50586 9.25004 5.05814 9.25004 4.50586C9.25004 3.95357 8.80232 3.50586 8.25004 3.50586L5.75 3.50586L5.75002 2.9116C5.75014 2.73596 5.7503 2.52031 5.72823 2.34387L5.72781 2.34053C5.71204 2.21408 5.64021 1.63804 5.07461 1.36368C4.50779 1.08872 4.00765 1.39065 3.89944 1.45597L3.43095 1.79511C3.05513 2.08975 2.54067 2.49545 2.14966 2.87588C1.95455 3.06571 1.75332 3.28297 1.59447 3.51388C1.45326 3.71914 1.25 4.06933 1.25 4.5C1.25 4.93067 1.45326 5.28086 1.59447 5.48612C1.75331 5.71703 1.95455 5.93429 2.14966 6.12412C2.54067 6.50455 3.05512 6.91025 3.43095 7.20488L3.89944 7.54403C4.00765 7.60935 4.50779 7.91128 5.07461 7.63632C5.64021 7.36196 5.71204 6.78592 5.72781 6.65947L5.72823 6.65613C5.7503 6.47969 5.75014 6.26403 5.75002 6.0884L5.75 5.50586L8.25004 5.50586Z" fill="#141B34"/>
</svg>
