<svg width="24" height="24" viewBox="0 0 24 24" fill="none" xmlns="http://www.w3.org/2000/svg">
<path d="M14.1574 1.25004C15.2452 1.24952 16.0011 1.24916 16.6925 1.53554C17.3839 1.82192 17.9182 2.35671 18.687 3.12624L20.8739 5.3132C21.6435 6.08201 22.1783 6.61629 22.4646 7.30767C22.751 7.99904 22.7507 8.75499 22.7501 9.84277V14.1574C22.7507 15.2452 22.751 16.0011 22.4646 16.6925C22.1783 17.3839 21.6435 17.9182 20.8739 18.687L18.687 20.8739C17.9182 21.6435 17.3839 22.1783 16.6925 22.4646C16.0011 22.751 15.2452 22.7507 14.1574 22.7501H9.84277C8.75499 22.7507 7.99904 22.751 7.30767 22.4646C6.61629 22.1783 6.08201 21.6435 5.3132 20.8739L3.12625 18.687L3.12623 18.687C2.3567 17.9182 1.82191 17.3839 1.53554 16.6925C1.24916 16.0011 1.24952 15.2452 1.25004 14.1574V9.84276C1.24952 8.75499 1.24916 7.99904 1.53554 7.30767C1.82192 6.61629 2.35671 6.08201 3.12625 5.3132L5.3132 3.12625C6.08201 2.35671 6.61629 1.82192 7.30767 1.53554C7.99904 1.24916 8.75499 1.24952 9.84276 1.25004H14.1574Z" fill="#141B34"/>
</svg>
