<svg width="24" height="24" viewBox="0 0 24 24" fill="none" xmlns="http://www.w3.org/2000/svg">
<path fill-rule="evenodd" clip-rule="evenodd" d="M13.4799 4.10698C13.1308 4.75341 13 5.57729 13 6.13184C13 6.68412 12.5523 7.13184 12 7.13184C11.4477 7.13184 11 6.68412 11 6.13184C11 5.35304 11.1692 4.17693 11.7201 3.15669C12.2944 2.09311 13.3376 1.13184 15 1.13184C15.5523 1.13184 16 1.57955 16 2.13184C16 2.68412 15.5523 3.13184 15 3.13184C14.2624 3.13184 13.8056 3.50389 13.4799 4.10698Z" fill="#141B34"/>
<path d="M7.70703 6.05826C7.36167 6.49195 7.06717 6.97158 6.83086 7.4797C6.6562 7.85529 6.81907 8.30135 7.19466 8.47602C7.57024 8.65069 8.01631 8.48782 8.19098 8.11223C8.74876 6.91285 9.65237 6.00994 10.7205 5.60364C11.1211 5.46026 11.5503 5.38184 12 5.38184C12.4435 5.38184 12.8672 5.45813 13.263 5.59779C14.3379 6.00123 15.2476 6.90705 15.808 8.11223C15.9827 8.48782 16.4288 8.65069 16.8044 8.47602C17.1799 8.30135 17.3428 7.85529 17.1682 7.4797C16.9319 6.97162 16.6374 6.49204 16.2921 6.05838C16.0988 5.81563 16.0021 5.69426 16.045 5.58647C16.0879 5.47869 16.2252 5.45921 16.4999 5.42025C16.6797 5.39475 16.8574 5.38184 17.0313 5.38184C18.6962 5.38184 20.1431 6.294 21.1472 7.64876C22.1514 9.00362 22.75 10.8399 22.75 12.8357C22.75 14.8074 22.1316 17.2493 20.8973 18.9196C20.2737 19.7634 19.4547 20.46 18.4289 20.7453C18.3153 20.7769 18.2005 20.8031 18.0846 20.8238C17.8064 20.8735 17.6672 20.8983 17.5931 20.8037C17.5189 20.7091 17.5834 20.5636 17.7125 20.2725C18.048 19.5162 18.2432 18.7006 18.2432 17.8715C18.2432 17.4572 17.9074 17.1215 17.4932 17.1215C17.079 17.1215 16.7432 17.4572 16.7432 17.8715C16.7432 19.0759 16.1607 20.3349 15.2344 21.304C14.306 22.2752 13.1172 22.868 12 22.868C10.8828 22.868 9.69398 22.2752 8.7656 21.304C7.83927 20.3349 7.25684 19.0759 7.25684 17.8715C7.25684 17.4572 6.92105 17.1215 6.50684 17.1215C6.09262 17.1215 5.75684 17.4572 5.75684 17.8715C5.75684 18.7006 5.95203 19.5162 6.28747 20.2725C6.41658 20.5636 6.48113 20.7091 6.40695 20.8037C6.33276 20.8983 6.19364 20.8735 5.9154 20.8238C5.79946 20.8031 5.68467 20.7769 5.57109 20.7453C4.54528 20.46 3.72626 19.7634 3.1027 18.9196C1.8684 17.2493 1.25 14.8074 1.25 12.8357C1.25 10.8399 1.84857 9.00362 2.85275 7.64876C3.85686 6.294 5.30378 5.38184 6.9687 5.38184C7.14234 5.38184 7.31964 5.3947 7.49914 5.42012C7.77388 5.45902 7.91124 5.47847 7.95415 5.58627C7.99706 5.69406 7.90038 5.81546 7.70703 6.05826Z" fill="#141B34"/>
</svg>
