<svg width="24" height="24" viewBox="0 0 24 24" fill="none" xmlns="http://www.w3.org/2000/svg">
<path d="M13.2465 2.76103L13.1438 2.44434C12.3472 2.71617 11.539 3.08263 10.7171 3.45524C9.83479 3.85529 8.9368 4.26243 8.02083 4.5672L8.05035 4.66089C8.00758 4.65205 7.96193 4.65432 7.91769 4.66975C7.78732 4.71522 7.7185 4.85777 7.76397 4.98814L9.04033 8.64752C8.62773 8.85145 8.2204 9.02584 7.81553 9.1534C6.72657 9.49649 5.68476 9.49056 4.6387 8.79319C4.52382 8.7166 4.3686 8.74764 4.29201 8.86252C4.23043 8.9549 4.23844 9.07334 4.30365 9.15603L5.67189 13.9105C7.29834 14.6706 8.87845 14.0026 10.5888 13.0871C10.6357 13.215 10.7768 13.2821 10.9059 13.2371C11.0363 13.1916 11.1051 13.0491 11.0596 12.9187L9.65575 8.89375C10.1253 8.64533 10.5948 8.37095 11.0627 8.09751C11.2087 8.01221 11.3547 7.92692 11.5003 7.84262C12.4025 7.32031 13.302 6.82911 14.2154 6.5239L15.7656 10.707C15.8136 10.8364 15.9574 10.9025 16.0869 10.8545C16.1247 10.8405 16.157 10.8184 16.1827 10.7908C17.6307 10.6148 19.2182 10.8582 21.0001 11.8879L19.356 6.89995C19.2006 6.79485 19.0415 6.69965 18.8795 6.61381C17.5416 5.73347 16.2481 5.57148 15.0014 5.80234C14.8405 5.83214 14.6804 5.86847 14.5213 5.91055L13.4109 2.91417C13.3823 2.83707 13.3198 2.78246 13.2465 2.76103Z" fill="#141B34"/>
<path fill-rule="evenodd" clip-rule="evenodd" d="M10.5177 2.44737C12.8783 1.37785 15.7624 0.0711116 18.559 1.95642C18.7429 2.08038 18.8804 2.26194 18.9498 2.47256L21.9498 11.5745C22.0796 11.9685 21.9527 12.4017 21.6308 12.6634C21.3089 12.9251 20.8589 12.9609 20.4997 12.7533C18.9275 11.8448 17.578 11.6416 16.3706 11.7753C15.133 11.9123 13.9755 12.4101 12.7976 13.0264C12.4918 13.1864 12.1752 13.3603 11.8527 13.5375C11.0011 14.0053 10.108 14.4959 9.2603 14.8146C8.57414 15.0725 7.84815 15.2487 7.09525 15.2404L8.9611 21.724C9.11383 22.2548 8.8074 22.8088 8.27665 22.9616C7.74591 23.1143 7.19184 22.8079 7.0391 22.2771L4.71222 14.1914C4.71121 14.188 4.71022 14.1846 4.70925 14.1811L2.03903 4.90236C1.93338 4.53522 2.04614 4.13996 2.32961 3.88383C2.61308 3.6277 3.01771 3.55546 3.37229 3.69768C5.68963 4.62713 7.88041 3.64197 10.4575 2.47464C10.4775 2.46557 10.4976 2.45648 10.5177 2.44737ZM6.49438 13.1524C7.11849 13.3254 7.77259 13.2371 8.55661 12.9424C9.26255 12.6771 9.95719 12.2953 10.7516 11.8587C11.1019 11.6661 11.4717 11.4629 11.8704 11.2543C13.1085 10.6065 14.5341 9.96644 16.1505 9.78745C17.1666 9.67494 18.2318 9.74704 19.3515 10.0806L17.164 3.44367C15.4933 2.50501 13.7402 3.18329 11.2827 4.29645C11.1965 4.33549 11.1095 4.37504 11.0217 4.41497C9.13588 5.27226 6.87877 6.29835 4.44056 6.01555L6.49438 13.1524Z" fill="#141B34"/>
</svg>
