<svg width="24" height="24" viewBox="0 0 24 24" fill="none" xmlns="http://www.w3.org/2000/svg">
<path fill-rule="evenodd" clip-rule="evenodd" d="M21.2313 4.29354C21.2313 3.75423 21.2313 3.48458 21.0619 3.40268C20.8924 3.32078 20.6811 3.48832 20.2585 3.8234L15.6938 7.44294C15.5813 7.53218 15.525 7.57679 15.4951 7.63869C15.4652 7.70059 15.4653 7.77293 15.4654 7.91763C15.4654 7.94451 15.4654 7.97203 15.4654 8.00019V21.9438C15.4654 22.185 15.5814 22.4115 15.7771 22.5525C15.9729 22.6934 16.2245 22.7316 16.4532 22.6551C16.7439 22.5579 16.9824 22.3752 17.2115 22.1997L19.6442 20.3446C20.0932 20.0022 20.4908 19.6991 20.7542 19.4363C20.8912 19.2996 21.043 19.1253 21.1413 18.914C21.2247 18.7349 21.2715 18.5228 21.2407 18.2975C21.2354 18.2584 21.2327 18.2388 21.232 18.2287C21.2313 18.2185 21.2313 18.2067 21.2313 18.183V4.29354ZM14.317 6.62033C14.2359 6.68464 14.1954 6.7168 14.1474 6.7335C14.0995 6.75019 14.0477 6.75019 13.9442 6.75019L5.45685 6.7502H5.45684C4.87937 6.75024 4.37288 6.75028 3.9982 6.70231C3.80344 6.67738 3.57922 6.6327 3.3743 6.53136C3.14862 6.41975 2.92659 6.22783 2.81505 5.92472C2.70225 5.61823 2.74865 5.3233 2.85887 5.08642C2.95718 4.87514 3.10898 4.70082 3.24598 4.56412C3.50943 4.30125 3.90698 3.99816 4.356 3.65583L6.78871 1.80066C7.01785 1.62515 7.25637 1.44245 7.54701 1.34527C7.83536 1.24886 8.13696 1.24949 8.43054 1.2501L18.5199 1.25019C19.0139 1.25018 19.4483 1.25017 19.7889 1.27657C19.8323 1.27994 19.8783 1.28388 19.9262 1.28891C20.2286 1.32065 20.3798 1.33653 20.4361 1.53009C20.4923 1.72366 20.351 1.83577 20.0682 2.06L14.317 6.62033Z" fill="#141B34"/>
<path d="M3.73448 4.91992C4.26817 4.91992 4.7008 5.35531 4.7008 5.89239V19.0708C4.7008 19.0708 6.84202 17.427 6.89043 17.3908V9.13507C6.89043 8.598 7.32307 8.16261 7.85676 8.16261C8.39044 8.16261 8.82308 8.598 8.82308 9.13507V16.9148L13.3795 16.9148C13.9131 16.9148 14.3458 17.3502 14.3458 17.8872C14.3458 18.4243 13.9132 18.8597 13.3795 18.8597L8.16488 18.8668L5.62863 20.8047L15.709 20.7961C16.2118 20.6341 16.752 20.9086 16.9199 21.4139C17.0891 21.9233 16.816 22.4743 16.3098 22.6446C15.9915 22.7517 15.6601 22.7506 15.3843 22.7498L5.59538 22.7496C5.04792 22.7497 4.54475 22.7497 4.16696 22.7011C3.96863 22.6755 3.72105 22.6278 3.48766 22.5116C3.22752 22.3821 2.96142 22.1536 2.82762 21.7877C2.7466 21.5662 2.73314 21.3436 2.76815 21.1362V5.89239C2.76815 5.35531 3.20079 4.91992 3.73448 4.91992Z" fill="#141B34"/>
</svg>
