<svg width="24" height="24" viewBox="0 0 24 24" fill="none" xmlns="http://www.w3.org/2000/svg">
<path d="M5.43234 3.59962C6.24004 3.1333 7.23517 3.1333 8.04287 3.59962C8.34283 3.7728 8.61375 4.04413 8.95542 4.38631L9.02207 4.45302L10.7762 6.20715C11.2046 6.6356 11.4738 6.90245 11.6953 7.07148C11.8995 7.22731 11.973 7.22784 12 7.22784C12.027 7.22784 12.1005 7.22731 12.3047 7.07148C12.5262 6.90245 12.7954 6.6356 13.2238 6.20715L14.9779 4.45302L15.0446 4.3863C15.3863 4.04413 15.6572 3.7728 15.9571 3.59962C16.7648 3.1333 17.76 3.1333 18.5677 3.59962C18.8676 3.7728 19.1385 4.04413 19.4802 4.3863L19.5469 4.45302L19.6136 4.51967C19.9558 4.86134 20.2271 5.13226 20.4003 5.43221C20.8666 6.23992 20.8666 7.23505 20.4003 8.04275C20.2271 8.34271 19.9557 8.61363 19.6136 8.9553L19.5469 9.02194L17.7927 10.7761C17.3643 11.2045 17.0974 11.4736 16.9284 11.6952C16.7726 11.8994 16.772 11.9729 16.772 11.9999C16.772 12.0268 16.7726 12.1004 16.9284 12.3046C17.0974 12.5261 17.3643 12.7952 17.7927 13.2237L19.5469 14.9778L19.6136 15.0445C19.9558 15.3861 20.2271 15.6571 20.4003 15.957C20.8666 16.7647 20.8666 17.7598 20.4003 18.5675C20.2271 18.8675 19.9558 19.1384 19.6136 19.4801L19.5469 19.5467L19.4802 19.6135C19.1385 19.9556 18.8676 20.227 18.5677 20.4001C17.76 20.8665 16.7648 20.8665 15.9571 20.4001C15.6572 20.227 15.3863 19.9556 15.0446 19.6135L15.0446 19.6135L14.9779 19.5467L13.2238 17.7926C12.7954 17.3642 12.5262 17.0973 12.3047 16.9283C12.1005 16.7724 12.027 16.7719 12 16.7719C11.973 16.7719 11.8995 16.7724 11.6953 16.9283C11.4738 17.0973 11.2046 17.3642 10.7762 17.7926L9.02207 19.5467L8.95541 19.6135C8.61375 19.9556 8.34283 20.227 8.04287 20.4001C7.23517 20.8665 6.24004 20.8665 5.43233 20.4001C5.13238 20.227 4.86146 19.9556 4.5198 19.6135L4.45314 19.5467L4.38642 19.4801C4.04425 19.1384 3.77292 18.8675 3.59975 18.5675C3.13342 17.7598 3.13342 16.7647 3.59975 15.957C3.77292 15.6571 4.04424 15.3861 4.38641 15.0445L4.38643 15.0445L4.45314 14.9778L6.20727 13.2237C6.63572 12.7952 6.90258 12.5261 7.07161 12.3046C7.22743 12.1003 7.22796 12.0268 7.22796 11.9999C7.22796 11.9729 7.22743 11.8994 7.07161 11.6952C6.90258 11.4736 6.63572 11.2045 6.20727 10.7761L4.45314 9.02194L4.38643 8.9553C4.04425 8.61363 3.77292 8.34271 3.59975 8.04275C3.13342 7.23505 3.13342 6.23992 3.59975 5.43221C3.77292 5.13226 4.04425 4.86133 4.38643 4.51966L4.45314 4.45302L4.51979 4.38631C4.86146 4.04413 5.13238 3.7728 5.43234 3.59962Z" fill="#141B34"/>
</svg>
