<svg width="24" height="24" viewBox="0 0 24 24" fill="none" xmlns="http://www.w3.org/2000/svg">
<path d="M12.997 2.03194C13.1051 1.50314 13.6213 1.16205 14.1501 1.2701C18.2438 2.10654 21.5135 5.20294 22.6263 9.20339C22.6604 9.32483 22.7212 9.54211 22.7403 9.70995C22.7634 9.91245 22.7724 10.375 22.3767 10.7327C21.9716 11.0988 21.5007 11.031 21.3082 10.9865C21.1431 10.9483 20.9621 10.8751 20.8421 10.8265L18.9251 9.95807C18.4338 9.7348 17.9004 9.2034 18.4397 8.66409L19.7217 7.38214C18.4151 5.25199 16.2721 3.69856 13.7589 3.18504C13.2301 3.077 12.889 2.56073 12.997 2.03194Z" fill="#141B34"/>
<path d="M9.95795 5.07498C9.73468 5.56635 9.20327 6.09973 8.66397 5.56043L7.38201 4.27847C5.25187 5.58503 3.69844 7.728 3.18492 10.2412C3.07688 10.77 2.56061 11.1111 2.03181 11.0031C1.50302 10.895 1.16193 10.3788 1.26997 9.84998C2.10641 5.75628 5.20282 2.48663 9.20327 1.37379C9.32471 1.33976 9.54198 1.27891 9.70983 1.2598C9.91233 1.23674 10.3749 1.22772 10.7326 1.62347C11.0987 2.02853 11.0309 2.49939 10.9864 2.69197C10.9482 2.85703 10.875 3.03798 10.8264 3.15802L9.95795 5.07498Z" fill="#141B34"/>
<path d="M21.9682 12.9972C22.497 13.1052 22.8381 13.6215 22.73 14.1503C21.8936 18.244 18.7972 21.5136 14.7967 22.6265C14.6753 22.6605 14.458 22.7213 14.2902 22.7404C14.0877 22.7635 13.6251 22.7725 13.2674 22.3768C12.9013 21.9717 12.9691 21.5009 13.0136 21.3083C13.0518 21.1432 13.125 20.9623 13.1736 20.8422L13.1736 20.8422L14.042 18.9253C14.2653 18.4339 14.7967 17.9005 15.336 18.4398L16.618 19.7218C18.7481 18.4152 20.3016 16.2722 20.8151 13.759C20.9231 13.2302 21.4394 12.8891 21.9682 12.9972Z" fill="#141B34"/>
<path d="M5.07485 14.0422C5.56623 14.2654 6.09961 14.7969 5.5603 15.3362L4.27835 16.6181C5.58491 18.7483 7.72788 20.3017 10.2411 20.8152C10.7699 20.9232 11.111 21.4395 11.003 21.9683C10.8949 22.4971 10.3787 22.8382 9.84986 22.7301C5.75616 21.8937 2.48651 18.7973 1.37367 14.7969C1.33964 14.6754 1.27878 14.4582 1.25968 14.2903C1.23662 14.0878 1.22759 13.6252 1.62334 13.2675C2.02841 12.9014 2.49928 12.9693 2.69185 13.0138C2.8569 13.0519 3.03785 13.1251 3.15789 13.1737L3.1579 13.1737L5.07485 14.0422Z" fill="#141B34"/>
<path d="M12.9018 6.34382C13.3505 6.5351 13.6484 6.9849 13.6484 7.50859V10.7425H15.0496C15.6173 10.7425 16.0009 11.1266 16.1553 11.5123C16.3095 11.8976 16.2903 12.3961 15.9785 12.7963L12.4794 17.2877C12.1268 17.7403 11.5631 17.8547 11.0978 17.6563C10.649 17.465 10.3512 17.0152 10.3512 16.4915V13.2576H8.94994C8.38223 13.2576 7.99861 12.8736 7.84422 12.4878C7.69003 12.1025 7.70922 11.604 8.021 11.2039L11.5201 6.71239C11.8727 6.2598 12.4364 6.14545 12.9018 6.34382Z" fill="#141B34"/>
</svg>
