<svg width="24" height="24" viewBox="0 0 24 24" fill="none" xmlns="http://www.w3.org/2000/svg">
<path fill-rule="evenodd" clip-rule="evenodd" d="M22.3575 2.1872C22.7811 2.44727 23.0001 2.90884 23.0001 3.36888V9.99983C23.0001 10.5521 22.5524 10.9998 22.0001 10.9998C21.4478 10.9998 21.0001 10.5521 21.0001 9.99983V4.91255L20.6775 5.20962C20.2713 5.58376 19.6386 5.55773 19.2645 5.15148C18.8904 4.74523 18.9164 4.1126 19.3226 3.73846L20.8426 2.3386C21.285 1.93119 21.8979 1.90503 22.3575 2.1872Z" fill="#141B34"/>
<path d="M8.32844 21.6974C7.9433 22.0933 7.31019 22.1019 6.91436 21.7168L5.91155 20.7411C5.72057 20.5554 5.47034 20.3122 5.32362 20.1224C5.19474 19.9557 4.8229 19.4343 5.09564 18.7936C5.36235 18.1671 5.9803 18.0609 6.18601 18.0326C6.42419 17.9998 6.72324 17.9999 6.99448 18.0001L14.8059 18.0001C17.5837 18.0001 19.9071 16.2389 20.7045 13.8343C20.8612 13.362 21.2775 13 21.7751 13C22.3916 13 22.8729 13.5445 22.7051 14.1377C21.745 17.5315 18.5548 20.0001 14.8059 20.0001H8.61173V21C8.61177 21.2514 8.5176 21.503 8.32844 21.6974Z" fill="#141B34"/>
<path d="M3.87205 16.8127C3.42319 17.1344 2.79846 17.0314 2.47669 16.5826C1.54727 15.2861 0.999922 13.7049 0.999922 11.9999C0.999922 7.55602 4.69457 3.99992 9.19414 3.99992H13.3884V3C13.3883 2.74861 13.4825 2.49697 13.6716 2.30256C14.0568 1.90673 14.6899 1.89806 15.0857 2.28321L16.0885 3.25894C16.2795 3.44457 16.5298 3.68781 16.6765 3.87758C16.8053 4.04428 17.1772 4.56574 16.9044 5.20642C16.6377 5.83292 16.0198 5.93914 15.8141 5.96744C15.5759 6.00021 15.2769 6.00007 15.0056 5.99994H15.0056L14.9551 5.99992H9.19414C5.74719 5.99992 2.99992 8.71184 2.99992 11.9999C2.99992 13.2695 3.40594 14.4461 4.10216 15.4173C4.42394 15.8662 4.32092 16.4909 3.87205 16.8127Z" fill="#141B34"/>
</svg>
