<svg width="24" height="24" viewBox="0 0 24 24" fill="none" xmlns="http://www.w3.org/2000/svg">
<path fill-rule="evenodd" clip-rule="evenodd" d="M11 7C11.5523 7 12 7.44772 12 8V14C12 14.5523 11.5523 15 11 15C10.4477 15 10 14.5523 10 14V8C10 7.44772 10.4477 7 11 7ZM15 7C15.5523 7 16 7.44772 16 8V14C16 14.5523 15.5523 15 15 15C14.4477 15 14 14.5523 14 14V8C14 7.44772 14.4477 7 15 7Z" fill="#141B34"/>
<path fill-rule="evenodd" clip-rule="evenodd" d="M5.18877 7.41529C5.37672 7.15452 5.67856 7 6.00001 7H16.5C17.8807 7 19 8.11929 19 9.5C19 10.0523 18.5523 10.5 18 10.5C17.4477 10.5 17 10.0523 17 9.5C17 9.22386 16.7761 9 16.5 9H16V13L18 13C18.5523 13 19 13.4477 19 14C19 14.5523 18.5523 15 18 15L7.00001 15C6.44772 15 6.00001 14.5523 6.00001 14C6.00001 13.5764 6.26344 13.2142 6.63543 13.0685L5.05132 8.31623C4.94967 8.01128 5.00081 7.67606 5.18877 7.41529ZM8.72077 13L14 13V9H7.38743L8.72077 13Z" fill="#141B34"/>
<path fill-rule="evenodd" clip-rule="evenodd" d="M3.6838 1.05159C4.20774 0.87694 4.77406 1.1601 4.94871 1.68404L8.72079 13.0003L18 13.0003C18.5523 13.0003 19 13.448 19 14.0003C19 14.5526 18.5523 15.0003 18 15.0003H17.3875L18.4793 18.2759C18.7354 18.0052 18.9719 17.7187 19.1868 17.4184C19.5081 16.9692 20.1328 16.8656 20.5819 17.187C21.0311 17.5084 21.1347 18.133 20.8133 18.5822C20.2045 19.4331 19.4617 20.1889 18.6154 20.8241C16.7964 22.1893 14.4946 23.0003 12 23.0003C9.50423 23.0003 7.20132 22.1885 5.38189 20.8221C4.5367 20.1873 3.79493 19.4322 3.18676 18.5822C2.86539 18.133 2.96898 17.5084 3.41814 17.187C3.8673 16.8656 4.49193 16.9692 4.8133 17.4184C5.02818 17.7187 5.26462 18.0052 5.52073 18.2759L6.63545 14.9317C6.26346 14.786 6.00003 14.4239 6.00003 14.0003C6.00003 13.5766 6.26346 13.2145 6.63545 13.0688L3.05134 2.3165C2.8767 1.79256 3.15986 1.22624 3.6838 1.05159ZM8.72079 15.0003L7.17708 19.6314C8.55002 20.4936 10.2081 21.0003 12 21.0003C13.792 21.0003 15.45 20.4936 16.823 19.6314L15.2793 15.0003H8.72079Z" fill="#141B34"/>
</svg>
