<svg width="24" height="24" viewBox="0 0 24 24" fill="none" xmlns="http://www.w3.org/2000/svg">
<path fill-rule="evenodd" clip-rule="evenodd" d="M19.6086 3.03365C20.2436 3.57396 21.1101 4.34021 21.5892 4.90786C21.854 5.22146 22.0169 5.6244 21.9986 6.06623C21.9823 6.45914 21.8252 6.81172 21.589 7.09154C21.1099 7.65886 20.2437 8.425 19.6089 8.96542C19.4315 9.11635 19.2103 9.30832 19.0068 9.43458C18.8064 9.55886 18.3178 9.8126 17.7548 9.55248C17.1886 9.29093 17.0672 8.74933 17.0328 8.51915C16.9996 8.29741 16.9998 8.02612 17 7.79902C17.0002 7.54742 17 7.29582 17 7.04423C16.5303 7.05965 16.1133 7.08456 15.7369 7.1242C14.7232 7.23093 14.1232 7.43514 13.6654 7.76421C13.3162 8.0152 13.0098 8.32084 12.7579 8.66938C12.4277 9.12637 12.222 9.72583 12.1127 10.7393C12.0014 11.7712 12 13.1091 12 14.9996C12 15.5518 11.5523 15.9996 11 15.9996C10.4477 15.9996 10 15.5518 10 14.9996L10 14.9408C9.99999 13.1223 9.99997 11.6765 10.1242 10.5248C10.2517 9.34221 10.5197 8.35201 11.1369 7.49797C11.5147 6.97516 11.9743 6.51669 12.4981 6.14021C13.3537 5.52522 14.3445 5.25975 15.5275 5.13519C15.9729 5.08829 16.4622 5.06007 17 5.04337C17 4.76232 17.0002 4.48127 17 4.20022C16.9998 3.97318 16.9996 3.70193 17.0328 3.48022C17.0672 3.25001 17.1887 2.70854 17.7547 2.44698C18.3176 2.18687 18.8062 2.44043 19.0066 2.56469C19.2101 2.69089 19.4313 2.8828 19.6086 3.03365Z" fill="#141B34"/>
<path fill-rule="evenodd" clip-rule="evenodd" d="M12.1002 2.9982C12.1012 3.55048 11.6543 3.999 11.102 4C9.26069 4.00331 7.95244 4.02946 6.95832 4.19037C5.99343 4.34655 5.43598 4.61383 5.02517 5.02464C4.58291 5.4669 4.30569 6.08056 4.15584 7.19512C4.00213 8.33845 4 9.85009 4 11.9997C4 14.1494 4.00212 15.661 4.15584 16.8044C4.30569 17.9189 4.5829 18.5326 5.02516 18.9748C5.46742 19.4171 6.08108 19.6943 7.19564 19.8442C8.33897 19.9979 9.85061 20 12.0003 20C14.1499 20 15.6616 19.9979 16.8049 19.8442C17.9194 19.6943 18.5331 19.4171 18.9754 18.9748C19.3862 18.564 19.6534 18.0066 19.8096 17.0417C19.9705 16.0476 19.9967 14.7393 20 12.898C20.001 12.3457 20.4495 11.8988 21.0018 11.8998C21.5541 11.9008 22.001 12.3493 22 12.9016C21.9967 14.7099 21.9748 16.182 21.7839 17.3613C21.5883 18.5697 21.2001 19.5785 20.3896 20.3891C19.5138 21.2648 18.4077 21.6467 17.0714 21.8263C15.7793 22 14.1328 22 12.0744 22H11.9262C9.86771 22 8.22126 22 6.92915 21.8263C5.59281 21.6467 4.48675 21.2648 3.61095 20.389C2.73515 19.5133 2.35334 18.4072 2.17367 17.0709C1.99996 15.7787 1.99998 14.1323 2 12.0738L2 11.9257C1.99998 9.86718 1.99996 8.22073 2.17368 6.92862C2.35334 5.59229 2.73516 4.48623 3.61095 3.61043C4.4215 2.79988 5.43031 2.41167 6.63875 2.21607C7.81796 2.0252 9.29011 2.00326 11.0984 2C11.6507 1.99901 12.0992 2.44592 12.1002 2.9982Z" fill="#141B34"/>
</svg>
