<svg width="24" height="24" viewBox="0 0 24 24" fill="none" xmlns="http://www.w3.org/2000/svg">
<path fill-rule="evenodd" clip-rule="evenodd" d="M5.27761 1.04352C6.68148 0.812885 8.03271 1.50044 8.9876 2.8911C9.69685 3.92403 9.81006 5.43994 9.67369 6.96715C9.53219 8.55179 9.09808 10.3878 8.46747 12.258C8.19314 13.0715 7.87872 13.8999 7.53018 14.7254C7.72568 14.5007 7.93164 14.2124 8.19623 13.842C8.26244 13.7493 8.33232 13.6515 8.40663 13.5483C8.77929 13.0304 9.22951 12.4277 9.78328 11.8585C10.1461 11.4856 10.5883 11.215 11.104 11.1425C11.6225 11.0696 12.0881 11.2149 12.4613 11.4397C12.5797 11.511 12.6923 11.5923 12.7992 11.6813C12.8692 11.5879 12.9416 11.4967 13.0164 11.4082C13.543 10.7849 14.2635 10.2056 15.1626 10.0345C16.1949 9.83799 16.9465 10.4269 17.4093 10.8888C17.637 11.1159 17.8547 11.3734 18.0445 11.5979C18.055 11.6104 18.0655 11.6228 18.0759 11.6351C18.2845 11.8816 18.4679 12.0961 18.6574 12.2835C19.0395 12.6614 19.3203 12.8008 19.5933 12.8083C19.8801 12.8162 20.4272 12.6848 21.3402 11.8832C21.7552 11.5188 22.3871 11.5599 22.7515 11.9749C23.1159 12.3899 23.0748 13.0217 22.6598 13.3861C21.5728 14.3405 20.5484 14.8355 19.538 14.8075C18.5138 14.7792 17.7716 14.2204 17.251 13.7055C16.989 13.4464 16.751 13.1657 16.549 12.9268L16.5421 12.9187C16.3317 12.6699 16.1629 12.4704 15.9966 12.3045C15.6559 11.9645 15.5511 11.995 15.5377 11.9989C15.5372 11.999 15.5368 11.9991 15.5365 11.9992C15.2608 12.0517 14.9128 12.2626 14.5442 12.6989C14.3576 12.9198 14.1849 13.1765 14.0329 13.4511C14.3222 14.1242 14.5136 14.8809 14.5233 15.5332C14.5284 15.8703 14.4873 16.2914 14.2867 16.6657C14.05 17.1073 13.6012 17.4448 13 17.4448C12.4872 17.4448 12.0446 17.2091 11.7603 16.8113C11.5121 16.464 11.4298 16.0598 11.4064 15.7302C11.359 15.062 11.5256 14.2753 11.7933 13.5516C11.7959 13.5447 11.7984 13.5377 11.801 13.5308C11.6633 13.3415 11.5326 13.2151 11.4294 13.1529C11.4042 13.1378 11.387 13.1301 11.3765 13.1264C11.3532 13.1369 11.2994 13.1683 11.2167 13.2532C10.7705 13.7118 10.3906 14.2153 10.0299 14.7165C9.97153 14.7977 9.9123 14.8808 9.85244 14.9648C9.56487 15.3682 9.26282 15.792 8.96875 16.1175C8.6333 16.4889 8.08602 16.9944 7.31666 17.003C7.04135 17.006 6.78852 16.9459 6.55655 16.8424C5.46051 19.0382 4.14998 21.0991 2.74483 22.6676C2.37632 23.0789 1.74411 23.1136 1.33275 22.7451C0.921394 22.3766 0.886667 21.7444 1.25518 21.333C2.63499 19.7928 3.95248 17.6696 5.03575 15.3987C1.41325 10.6868 0.984754 6.39718 2.19973 3.68552C2.82228 2.29608 3.924 1.26589 5.27761 1.04352ZM5.96334 13.2753C3.27506 9.35199 3.26677 6.19534 4.0249 4.5033C4.45584 3.5415 5.08877 3.10135 5.60183 3.01706C6.06465 2.94103 6.71213 3.11047 7.33885 4.0232C7.63063 4.44813 7.81003 5.35115 7.68162 6.78927C7.55833 8.16996 7.17025 9.84566 6.57231 11.6189C6.38719 12.1679 6.18342 12.722 5.96334 13.2753ZM11.3898 13.1215C11.3898 13.1215 11.3887 13.1219 11.3864 13.1224C11.3887 13.1216 11.3898 13.1214 11.3898 13.1215ZM11.3683 13.1237C11.3655 13.1236 11.3641 13.1232 11.3641 13.1231C11.364 13.1229 11.3654 13.123 11.3683 13.1237Z" fill="#141B34"/>
<path fill-rule="evenodd" clip-rule="evenodd" d="M8 21.0002C8 20.448 8.44772 20.0002 9 20.0002H19C19.5523 20.0002 20 20.448 20 21.0002C20 21.5525 19.5523 22.0002 19 22.0002H9C8.44772 22.0002 8 21.5525 8 21.0002Z" fill="#141B34"/>
</svg>
