<svg width="24" height="24" viewBox="0 0 24 24" fill="none" xmlns="http://www.w3.org/2000/svg">
<path d="M14.5939 16.2718C14.7703 16.2497 14.986 16.2499 15.1616 16.25L15.75 16.25V4C15.75 3.44772 16.1977 3 16.75 3C17.3023 3 17.75 3.44772 17.75 4V16.25L18.3384 16.25C18.514 16.2499 18.7297 16.2497 18.9061 16.2718L18.9095 16.2722C19.0359 16.288 19.612 16.3598 19.8863 16.9254C20.1613 17.4922 19.8593 17.9924 19.794 18.1006L19.4549 18.5691C19.1602 18.9449 18.7546 19.4593 18.3741 19.8503C18.1843 20.0454 17.967 20.2467 17.7361 20.4055C17.5309 20.5467 17.1807 20.75 16.75 20.75C16.3193 20.75 15.9691 20.5467 15.7639 20.4055C15.533 20.2467 15.3157 20.0454 15.1259 19.8503C14.7454 19.4593 14.3397 18.9449 14.0451 18.569L13.706 18.1006C13.6407 17.9924 13.3387 17.4922 13.6137 16.9254C13.888 16.3598 14.4641 16.288 14.5905 16.2722L14.5939 16.2718Z" fill="#141B34"/>
<path d="M6.00002 4.86493C5.68068 5.04893 5.27136 5.04868 4.94423 4.82997C4.4851 4.52301 4.36175 3.90198 4.66871 3.44286C4.97575 2.98437 5.36731 2.52736 5.84643 2.24245C6.07599 2.10594 6.5334 1.89416 7.06595 2.0594C7.32542 2.1399 7.5554 2.2998 7.72014 2.53348C7.86734 2.74228 7.92584 2.95848 7.95387 3.10698C8.00074 3.35527 8.00036 3.65783 8.00007 3.8943C7.99796 5.59586 8.00003 7.29743 8.00003 8.99899H8.50002C9.05231 8.99899 9.50002 9.44671 9.50002 9.99899C9.50002 10.5513 9.05231 10.999 8.50002 10.999H5.50002C4.94774 10.999 4.50002 10.5513 4.50002 9.99899C4.50002 9.44671 4.94774 8.99899 5.50002 8.99899H6.00002V4.86493Z" fill="#141B34"/>
<path fill-rule="evenodd" clip-rule="evenodd" d="M6.95005 12.999C6.96667 12.999 6.98333 12.999 7.00003 12.999C7.01672 12.999 7.03338 12.999 7.05 12.999C7.47814 12.999 7.88259 12.9989 8.21413 13.0379C8.57513 13.0804 8.99995 13.1828 9.36564 13.5027C9.75054 13.8395 9.89409 14.2614 9.95182 14.637C10.0003 14.9526 10.0002 15.3299 10 15.6933C10 15.7119 10 15.7305 10 15.749V18.374C10 18.3957 10 18.4173 10 18.4389C10.0001 19.0014 10.0002 19.5319 9.93351 19.9661C9.85748 20.4609 9.67732 20.9663 9.21919 21.3672C8.78028 21.7512 8.25992 21.8856 7.76277 21.9441C7.29536 21.9991 6.7151 21.9991 6.05591 21.999L5.00003 21.999C4.44774 21.999 4.00003 21.5513 4.00003 20.999C4.00003 20.4467 4.44774 19.999 5.00003 19.999H6.00003C6.73195 19.999 7.19273 19.9974 7.5291 19.9578C7.84435 19.9207 7.9002 19.864 7.90213 19.8621L7.90356 19.8609C7.90539 19.8595 7.90584 19.8591 7.90972 19.8509C7.91833 19.8325 7.9386 19.7802 7.95671 19.6623C7.9946 19.4157 7.9995 19.0736 7.99998 18.499H7.00003C6.98333 18.499 6.96667 18.499 6.95005 18.499C6.52191 18.4991 6.11746 18.4992 5.78592 18.4601C5.42493 18.4177 5.00011 18.3153 4.63441 17.9953C4.24951 17.6585 4.10596 17.2367 4.04824 16.861C3.99975 16.5455 3.99989 16.1682 4.00001 15.8048C4.00002 15.7861 4.00003 15.7676 4.00003 15.749C4.00003 15.7305 4.00002 15.7119 4.00001 15.6933C3.99989 15.3299 3.99975 14.9526 4.04824 14.637C4.10596 14.2614 4.24951 13.8395 4.63441 13.5027C5.00011 13.1828 5.42492 13.0804 5.78592 13.0379C6.11746 12.9989 6.52192 12.999 6.95005 12.999ZM8.00003 16.499V15.749C8.00003 15.5385 7.99994 15.3738 7.99587 15.2325C7.99335 15.1454 7.98953 15.0778 7.98482 15.0247L7.98046 15.0242C7.78025 15.0007 7.49624 14.999 7.00003 14.999C6.50381 14.999 6.2198 15.0007 6.01959 15.0242L6.01523 15.0247C6.01052 15.0778 6.0067 15.1454 6.00419 15.2325C6.00011 15.3738 6.00003 15.5385 6.00003 15.749C6.00003 15.9595 6.00011 16.1243 6.00419 16.2656C6.0067 16.3527 6.01052 16.4203 6.01523 16.4733L6.01959 16.4738C6.2198 16.4974 6.50381 16.499 7.00003 16.499H8.00003Z" fill="#141B34"/>
</svg>
