<svg width="24" height="24" viewBox="0 0 24 24" fill="none" xmlns="http://www.w3.org/2000/svg">
<path fill-rule="evenodd" clip-rule="evenodd" d="M22.25 12.0572V12.0572V11.9428V11.9428C22.25 9.7521 22.25 8.03143 22.0694 6.68802C21.8843 5.31137 21.4973 4.21911 20.6391 3.36091C19.7809 2.50272 18.6886 2.11568 17.312 1.93059C15.9686 1.74998 14.2479 1.74999 12.0572 1.75H12.0572H11.9428H11.9428C9.75212 1.74999 8.03144 1.74998 6.68802 1.93059C5.31137 2.11568 4.21911 2.50272 3.36091 3.36091C2.50271 4.21911 2.11568 5.31137 1.93059 6.68802C1.74998 8.03144 1.74999 9.7521 1.75 11.9428V12.0572C1.74999 14.2479 1.74998 15.9686 1.93059 17.312C2.11568 18.6886 2.50271 19.7809 3.36091 20.6391C4.21911 21.4973 5.31137 21.8843 6.68802 22.0694C8.03144 22.25 9.7521 22.25 11.9428 22.25H12.0572C14.2479 22.25 15.9686 22.25 17.312 22.0694C18.6886 21.8843 19.7809 21.4973 20.6391 20.6391C21.4973 19.7809 21.8843 18.6886 22.0694 17.312C22.25 15.9686 22.25 14.2479 22.25 12.0572ZM15.3558 11.9797C15.7782 12.3354 16.4091 12.2813 16.7648 11.8589C17.1206 11.4364 17.0665 10.8056 16.6441 10.4498L12.9661 7.35263C12.4078 6.88245 11.5921 6.88246 11.0337 7.35263L7.35579 10.4498C6.93334 10.8056 6.87927 11.4364 7.23502 11.8589C7.59076 12.2813 8.22161 12.3354 8.64406 11.9797L11.9999 9.15367L15.3558 11.9797ZM15.9999 16.9999C16.42 16.9999 16.7953 16.7374 16.9393 16.3428C17.0833 15.9482 16.9654 15.5056 16.6441 15.235L12.9661 12.1378C12.4078 11.6676 11.5921 11.6676 11.0337 12.1378L7.35579 15.235C7.03447 15.5056 6.91651 15.9482 7.06054 16.3428C7.20456 16.7374 7.57985 16.9999 7.99993 16.9999H15.9999Z" fill="#141B34"/>
</svg>
