<svg width="24" height="24" viewBox="0 0 24 24" fill="none" xmlns="http://www.w3.org/2000/svg">
<path fill-rule="evenodd" clip-rule="evenodd" d="M17.312 1.93059C15.9686 1.74998 14.2479 1.74999 12.0572 1.75H11.9428C9.75212 1.74999 8.03144 1.74998 6.68802 1.93059C5.31137 2.11568 4.21911 2.50272 3.36091 3.36091C2.50272 4.21911 2.11568 5.31137 1.93059 6.68802C1.74998 8.03144 1.74999 9.75212 1.75 11.9428V12.0572C1.74999 14.2479 1.74998 15.9686 1.93059 17.312C2.11568 18.6886 2.50272 19.7809 3.36091 20.6391C4.21911 21.4973 5.31137 21.8843 6.68802 22.0694C8.03144 22.25 9.7521 22.25 11.9428 22.25H11.9428H12.0572H12.0572C14.2479 22.25 15.9686 22.25 17.312 22.0694C18.6886 21.8843 19.7809 21.4973 20.6391 20.6391C21.4973 19.7809 21.8843 18.6886 22.0694 17.312C22.25 15.9686 22.25 14.2479 22.25 12.0572V12.0572V11.9428V11.9428C22.25 9.7521 22.25 8.03144 22.0694 6.68802C21.8843 5.31137 21.4973 4.21911 20.6391 3.36091C19.7809 2.50272 18.6886 2.11568 17.312 1.93059ZM10.7699 6.36178C10.4174 5.93661 9.78694 5.8777 9.36178 6.2302C8.93661 6.58269 8.8777 7.21311 9.2302 7.63828L12.8464 12L9.2302 16.3618C8.8777 16.7869 8.93661 17.4174 9.36178 17.7699C9.78694 18.1224 10.4174 18.0634 10.7699 17.6383L14.3973 13.263L14.4187 13.2373L14.4187 13.2372C14.5234 13.1111 14.6525 12.9556 14.7487 12.8057C14.8659 12.6229 15 12.3522 15 12C15 11.6479 14.8659 11.3772 14.7487 11.1944C14.6525 11.0444 14.5234 10.889 14.4187 10.7628L14.4187 10.7628L14.3973 10.7371L10.7699 6.36178Z" fill="#141B34"/>
</svg>
