<svg width="24" height="24" viewBox="0 0 24 24" fill="none" xmlns="http://www.w3.org/2000/svg">
<path fill-rule="evenodd" clip-rule="evenodd" d="M17.312 1.93059C15.9686 1.74998 14.2479 1.74999 12.0572 1.75H11.9428C9.75212 1.74999 8.03144 1.74998 6.68802 1.93059C5.31137 2.11568 4.21911 2.50272 3.36091 3.36091C2.50272 4.21911 2.11568 5.31137 1.93059 6.68802C1.74998 8.03144 1.74999 9.75212 1.75 11.9428V12.0572C1.74999 14.2479 1.74998 15.9686 1.93059 17.312C2.11568 18.6886 2.50272 19.7809 3.36091 20.6391C4.21911 21.4973 5.31137 21.8843 6.68802 22.0694C8.03144 22.25 9.7521 22.25 11.9428 22.25H11.9428H12.0572H12.0572C14.2479 22.25 15.9686 22.25 17.312 22.0694C18.6886 21.8843 19.7809 21.4973 20.6391 20.6391C21.4973 19.7809 21.8843 18.6886 22.0694 17.312C22.25 15.9686 22.25 14.2479 22.25 12.0572V12.0572V11.9428V11.9428C22.25 9.7521 22.25 8.03144 22.0694 6.68802C21.8843 5.31137 21.4973 4.21911 20.6391 3.36091C19.7809 2.50272 18.6886 2.11568 17.312 1.93059ZM12.2848 9.01314L12.2878 9.00058C12.3176 9.00003 12.3507 8.99976 12.3877 8.99976H18.0001C18.5524 8.99976 19.0001 8.55204 19.0001 7.99976C19.0001 7.44747 18.5524 6.99976 18.0001 6.99976L12.3761 6.99976C12.0756 6.99971 11.5522 6.99962 11.1083 7.29227C10.6058 7.62357 10.4341 8.15552 10.3403 8.54517L9.06438 13.8467C9.03988 13.9485 9.01688 14.0438 8.99517 14.1331C8.95107 14.0397 8.90389 13.9392 8.85316 13.8309L8.53917 13.161L8.51988 13.1198C8.4179 12.9018 8.30023 12.6504 8.16877 12.4514C8.00902 12.2097 7.74712 11.915 7.30812 11.7895C6.77399 11.6368 6.30823 11.81 6.04433 11.9396C5.82561 12.047 5.60796 12.198 5.4932 12.2776L5.49318 12.2776L5.49297 12.2777C5.47215 12.2922 5.45473 12.3043 5.44131 12.3133C4.9833 12.6219 4.86218 13.2434 5.17079 13.7014C5.4794 14.1594 6.10088 14.2805 6.55889 13.9719C6.5911 13.9502 6.62529 13.9267 6.65517 13.9061L6.65528 13.906L6.67357 13.8934L6.72819 14.0097L7.04218 14.6797L7.0712 14.7416C7.32357 15.2803 7.55619 15.7768 7.78286 16.127C7.98335 16.4367 8.44691 17.0633 9.26506 16.9949C10.1011 16.925 10.4411 16.2078 10.5764 15.8655C10.7284 15.4808 10.8556 14.9518 10.9925 14.3825L10.9925 14.3825L10.9925 14.3825L11.0089 14.3147L12.2848 9.01314ZM14.103 12.4283C14.2032 12.4283 14.3565 12.43 14.4241 12.431C14.4487 12.488 14.6345 12.9361 14.6706 13.0236C14.4997 13.2658 14.3462 13.4658 14.1927 13.6235C14.0797 13.7395 13.9333 13.8258 13.8766 13.8569C13.3243 13.8569 12.8766 14.3046 12.8766 14.8569C12.8766 15.4092 13.3243 15.8569 13.8766 15.8569C14.6229 15.8569 15.1855 15.455 15.571 15.0738C15.6393 15.1745 15.7191 15.2721 15.8134 15.3596C15.9749 15.5094 16.161 15.6276 16.3613 15.7111C16.7209 15.8609 17.2037 15.8585 17.5001 15.8569C18.0524 15.8569 18.5001 15.4092 18.5001 14.8569C18.5001 14.3046 18.0524 13.8569 17.5001 13.8569C17.3999 13.8569 17.2467 13.8552 17.179 13.8543C17.1544 13.7972 16.9687 13.3491 16.9326 13.2616C17.1034 13.0194 17.257 12.8194 17.4105 12.6618C17.5234 12.5458 17.6699 12.4594 17.7266 12.4283C18.2789 12.4283 18.7266 11.9806 18.7266 11.4283C18.7266 10.876 18.2789 10.4283 17.7266 10.4283C16.9802 10.4283 16.4176 10.8302 16.0322 11.2115C15.9639 11.1107 15.8841 11.0131 15.7897 10.9256C15.6283 10.7758 15.4421 10.6576 15.2418 10.5741C14.8822 10.4244 14.3995 10.4268 14.103 10.4283C13.5508 10.4283 13.103 10.876 13.103 11.4283C13.103 11.9806 13.5508 12.4283 14.103 12.4283Z" fill="#141B34"/>
</svg>
