<svg width="24" height="24" viewBox="0 0 24 24" fill="none" xmlns="http://www.w3.org/2000/svg">
<path fill-rule="evenodd" clip-rule="evenodd" d="M17.312 1.93059C15.9686 1.74998 14.2479 1.74999 12.0572 1.75H11.9428C9.75212 1.74999 8.03144 1.74998 6.68802 1.93059C5.31137 2.11568 4.21911 2.50272 3.36091 3.36091C2.50272 4.21911 2.11568 5.31137 1.93059 6.68802C1.74998 8.03144 1.74999 9.75212 1.75 11.9428V12.0572C1.74999 14.2479 1.74998 15.9686 1.93059 17.312C2.11568 18.6886 2.50272 19.7809 3.36091 20.6391C4.21911 21.4973 5.31137 21.8843 6.68802 22.0694C8.03144 22.25 9.7521 22.25 11.9428 22.25H11.9428H12.0572H12.0572C14.2479 22.25 15.9686 22.25 17.312 22.0694C18.6886 21.8843 19.7809 21.4973 20.6391 20.6391C21.4973 19.7809 21.8843 18.6886 22.0694 17.312C22.25 15.9686 22.25 14.2479 22.25 12.0572V12.0572V11.9428V11.9428C22.25 9.7521 22.25 8.03144 22.0694 6.68802C21.8843 5.31137 21.4973 4.21911 20.6391 3.36091C19.7809 2.50272 18.6886 2.11568 17.312 1.93059ZM16 11C16 10.5955 15.7564 10.2309 15.3827 10.0761C15.009 9.92134 14.5789 10.0069 14.2929 10.2929L13.0005 11.5853L9.70699 8.29278C9.31641 7.90232 8.68324 7.90242 8.29278 8.29301C7.90232 8.68359 7.90242 9.31676 8.29301 9.70722L11.5863 12.9995L10.2929 14.2929C10.0068 14.579 9.92131 15.0092 10.0762 15.3829C10.2311 15.7566 10.5959 16.0002 11.0005 16L15.0005 15.9981C15.5526 15.9978 16 15.5502 16 14.9981V11Z" fill="#141B34"/>
</svg>
