<svg width="24" height="24" viewBox="0 0 24 24" fill="none" xmlns="http://www.w3.org/2000/svg">
<path fill-rule="evenodd" clip-rule="evenodd" d="M6.68802 1.93059C8.03144 1.74998 9.75212 1.74999 11.9428 1.75H12.0572C14.2479 1.74999 15.9686 1.74998 17.312 1.93059C18.6886 2.11568 19.7809 2.50272 20.6391 3.36091C21.4973 4.21911 21.8843 5.31137 22.0694 6.68802C22.25 8.03144 22.25 9.75212 22.25 11.9428V12.0572C22.25 14.2479 22.25 15.9686 22.0694 17.312C21.8843 18.6886 21.4973 19.7809 20.6391 20.6391C19.7809 21.4973 18.6886 21.8843 17.312 22.0694C15.9686 22.25 14.2479 22.25 12.0572 22.25H12.0572H11.9428H11.9428C9.7521 22.25 8.03143 22.25 6.68802 22.0694C5.31136 21.8843 4.21911 21.4973 3.36091 20.6391C2.50271 19.7809 2.11568 18.6886 1.93059 17.312C1.74998 15.9686 1.74999 14.2479 1.75 12.0572V12.0572V11.9428V11.9428C1.74999 9.7521 1.74998 8.03144 1.93059 6.68802C2.11568 5.31137 2.50271 4.21911 3.36091 3.36091C4.21911 2.50272 5.31136 2.11568 6.68802 1.93059ZM10.5465 7.00839C10.9601 6.98667 11.313 7.30439 11.3348 7.71803C11.3464 7.93898 11.2611 8.14261 11.1161 8.28769L10.409 8.99479L15.0052 13.591L15.7123 12.8839C15.8574 12.7389 16.061 12.6536 16.282 12.6652C16.6956 12.687 17.0133 13.0399 16.9916 13.4535C16.9873 13.5363 16.994 13.6962 17.0079 13.9553L17.011 14.012C17.0233 14.2389 17.038 14.5094 17.0423 14.7776C17.0469 15.0649 17.0405 15.3816 16.9988 15.6671C16.9636 15.9086 16.8814 16.311 16.5962 16.5962C16.311 16.8814 15.9086 16.9636 15.6671 16.9988C15.3816 17.0405 15.0649 17.0469 14.7776 17.0423C14.5094 17.038 14.2389 17.0233 14.012 17.011L13.9553 17.0079C13.6962 16.994 13.5363 16.9873 13.4535 16.9916C13.0399 17.0133 12.687 16.6956 12.6652 16.282C12.6537 16.0612 12.7388 15.8577 12.8836 15.7126L13.591 15.0052L8.9948 10.409L8.2874 11.1164C8.14234 11.2612 7.93884 11.3463 7.71803 11.3348C7.30439 11.313 6.98667 10.9601 7.00839 10.5465C7.01274 10.4637 7.00605 10.3038 6.99207 10.0447L6.989 9.98802L6.989 9.98797C6.97669 9.76111 6.96201 9.49061 6.95771 9.22241C6.9531 8.93514 6.9595 8.61842 7.00117 8.33293C7.03643 8.09142 7.11864 7.68897 7.40381 7.40381C7.68897 7.11864 8.09142 7.03643 8.33293 7.00117C8.61842 6.9595 8.93514 6.9531 9.22241 6.95771C9.49061 6.96201 9.7611 6.97669 9.98795 6.989L10.0447 6.99207C10.3038 7.00605 10.4637 7.01274 10.5465 7.00839Z" fill="#141B34"/>
</svg>
