<svg width="24" height="24" viewBox="0 0 24 24" fill="none" xmlns="http://www.w3.org/2000/svg">
<path fill-rule="evenodd" clip-rule="evenodd" d="M17.312 1.93059C15.9686 1.74998 14.2479 1.74999 12.0572 1.75H11.9428C9.75212 1.74999 8.03144 1.74998 6.68802 1.93059C5.31137 2.11568 4.21911 2.50272 3.36091 3.36091C2.50272 4.21911 2.11568 5.31137 1.93059 6.68802C1.74998 8.03144 1.74999 9.75212 1.75 11.9428V12.0572C1.74999 14.2479 1.74998 15.9686 1.93059 17.312C2.11568 18.6886 2.50272 19.7809 3.36091 20.6391C4.21911 21.4973 5.31137 21.8843 6.68802 22.0694C8.03144 22.25 9.7521 22.25 11.9428 22.25H11.9428H12.0572H12.0572C14.2479 22.25 15.9686 22.25 17.312 22.0694C18.6886 21.8843 19.7809 21.4973 20.6391 20.6391C21.4973 19.7809 21.8843 18.6886 22.0694 17.312C22.25 15.9686 22.25 14.2479 22.25 12.0572V12.0572V11.9428V11.9428C22.25 9.7521 22.25 8.03144 22.0694 6.68802C21.8843 5.31137 21.4973 4.21911 20.6391 3.36091C19.7809 2.50272 18.6886 2.11568 17.312 1.93059ZM12.5 7C12.0955 7 11.7309 7.24364 11.5761 7.61732C11.4213 7.99099 11.5069 8.42111 11.7929 8.70711L12.8358 9.75L9.75 12.8358L8.70711 11.7929C8.42111 11.5069 7.99099 11.4213 7.61732 11.5761C7.24364 11.7309 7 12.0955 7 12.5V16C7 16.5523 7.44772 17 8 17H11.5C11.9045 17 12.2691 16.7564 12.4239 16.3827C12.5787 16.009 12.4931 15.5789 12.2071 15.2929L11.1642 14.25L14.25 11.1642L15.2929 12.2071C15.5789 12.4931 16.009 12.5787 16.3827 12.4239C16.7564 12.2691 17 11.9045 17 11.5V8C17 7.44772 16.5523 7 16 7H12.5Z" fill="#141B34"/>
</svg>
