<svg width="24" height="25" viewBox="0 0 24 25" fill="none" xmlns="http://www.w3.org/2000/svg">
<path fill-rule="evenodd" clip-rule="evenodd" d="M10.5 3.75C8.567 3.75 7 5.317 7 7.25V9.75C7 10.3023 6.55228 10.75 6 10.75C5.44772 10.75 5 10.3023 5 9.75V7.25C5 4.21243 7.46243 1.75 10.5 1.75C13.5376 1.75 16 4.21243 16 7.25V9.75C16 10.3023 15.5523 10.75 15 10.75C14.4477 10.75 14 10.3023 14 9.75V7.25C14 5.317 12.433 3.75 10.5 3.75Z" fill="#141B34"/>
<path d="M10.5 8.75C8.90416 8.75 7.45364 8.78422 6.02522 8.84988C3.96716 8.9445 2.29609 10.5382 2.02452 12.5552C1.87636 13.6556 1.75 14.8118 1.75 16C1.75 17.1882 1.87636 18.3444 2.02452 19.4448C2.29609 21.4618 3.96716 23.0555 6.02522 23.1501C7.45364 23.2158 8.90416 23.25 10.5 23.25C11.7656 23.25 12.9398 23.2285 14.084 23.1868C14.4313 23.1742 14.605 23.1679 14.6896 23.077C14.7742 22.9862 14.7666 22.7704 14.7515 22.3388C14.7505 22.3093 14.75 22.2797 14.75 22.25V21.35C14.75 21.0672 14.75 20.9257 14.6621 20.8379C14.5743 20.75 14.4328 20.75 14.15 20.75H13.25C11.8693 20.75 10.75 19.6307 10.75 18.25C10.75 16.8693 11.8693 15.75 13.25 15.75H14.15C14.4328 15.75 14.5743 15.75 14.6621 15.6621C14.75 15.5743 14.75 15.4328 14.75 15.15V14.25C14.75 12.8693 15.8693 11.75 17.25 11.75C17.2869 11.75 17.3236 11.7508 17.3601 11.7524C18.1825 11.788 18.5936 11.8058 18.6844 11.647C18.7751 11.4882 18.6233 11.2544 18.3196 10.7866C17.5966 9.67282 16.3753 8.91427 14.9748 8.84989C13.5464 8.78422 12.0958 8.75 10.5 8.75Z" fill="#141B34"/>
<path fill-rule="evenodd" clip-rule="evenodd" d="M17.25 13.25C17.8023 13.25 18.25 13.6977 18.25 14.25L18.25 17.25H21.25C21.8023 17.25 22.25 17.6977 22.25 18.25C22.25 18.8023 21.8023 19.25 21.25 19.25H18.25L18.25 22.25C18.25 22.8023 17.8023 23.25 17.25 23.25C16.6977 23.25 16.25 22.8023 16.25 22.25L16.25 19.25H13.25C12.6977 19.25 12.25 18.8023 12.25 18.25C12.25 17.6977 12.6977 17.25 13.25 17.25H16.25L16.25 14.25C16.25 13.6977 16.6977 13.25 17.25 13.25Z" fill="#141B34"/>
</svg>
