<svg width="24" height="24" viewBox="0 0 24 24" fill="none" xmlns="http://www.w3.org/2000/svg">
<path fill-rule="evenodd" clip-rule="evenodd" d="M17.312 1.93059C15.9686 1.74998 14.2479 1.74999 12.0572 1.75H11.9428C9.75212 1.74999 8.03144 1.74998 6.68802 1.93059C5.31137 2.11568 4.21911 2.50272 3.36091 3.36091C2.50272 4.21911 2.11568 5.31137 1.93059 6.68802C1.74998 8.03144 1.74999 9.75212 1.75 11.9428V12.0572C1.74999 14.2479 1.74998 15.9686 1.93059 17.312C2.11568 18.6886 2.50272 19.7809 3.36091 20.6391C4.21911 21.4973 5.31137 21.8843 6.68802 22.0694C8.03144 22.25 9.7521 22.25 11.9428 22.25H11.9428H12.0572H12.0572C14.2479 22.25 15.9686 22.25 17.312 22.0694C18.6886 21.8843 19.7809 21.4973 20.6391 20.6391C21.4973 19.7809 21.8843 18.6886 22.0694 17.312C22.25 15.9686 22.25 14.2479 22.25 12.0572V12.0572V11.9428V11.9428C22.25 9.7521 22.25 8.03144 22.0694 6.68802C21.8843 5.31137 21.4973 4.21911 20.6391 3.36091C19.7809 2.50272 18.6886 2.11568 17.312 1.93059ZM9.70714 7.29289C9.31661 6.90237 8.68345 6.90237 8.29292 7.29289L6.29292 9.29289C6.00692 9.57889 5.92137 10.009 6.07615 10.3827C6.23093 10.7564 6.59557 11 7.00003 11H8.00003V16C8.00003 16.5523 8.44774 17 9.00003 17C9.55231 17 10 16.5523 10 16V11H11C11.4045 11 11.7691 10.7564 11.9239 10.3827C12.0787 10.009 11.9931 9.57889 11.7071 9.29289L9.70714 7.29289ZM16 13V8C16 7.44772 15.5523 7 15 7C14.4477 7 14 7.44772 14 8V13H13C12.5956 13 12.2309 13.2436 12.0761 13.6173C11.9214 13.991 12.0069 14.4211 12.2929 14.7071L14.2929 16.7071C14.6834 17.0976 15.3166 17.0976 15.7071 16.7071L17.7071 14.7071C17.9931 14.4211 18.0787 13.991 17.9239 13.6173C17.7691 13.2436 17.4045 13 17 13H16Z" fill="#141B34"/>
</svg>
