<svg width="24" height="24" viewBox="0 0 24 24" fill="none" xmlns="http://www.w3.org/2000/svg">
<path fill-rule="evenodd" clip-rule="evenodd" d="M9.00098 13C9.55326 13 10.001 13.4477 10.001 14V17.4998C10.001 19.4329 11.5681 21.0001 13.5013 21.0001C15.4345 21.0001 17.0016 19.4329 17.0016 17.4998V16C17.0016 15.4477 17.4494 15 18.0016 15C18.5539 15 19.0016 15.4477 19.0016 16V17.4998C19.0016 20.5375 16.5391 23.0001 13.5013 23.0001C10.4636 23.0001 8.00098 20.5375 8.00098 17.4998V14C8.00098 13.4477 8.44869 13 9.00098 13Z" fill="#141B34"/>
<path d="M4.00063 4.07981C4.00063 3.44556 4.48488 3 4.99929 3C5.55157 3 5.99929 2.55228 5.99929 2C5.99929 1.44772 5.55157 1 4.99929 1C3.30603 1 2.00063 2.41676 2.00063 4.07981C2.00063 4.13523 2.00025 4.19268 1.99986 4.25196L1.99986 4.25197C1.99431 5.10193 1.9863 6.32709 3.04776 7.30161L4.43322 10.7727L4.43322 10.7727C4.72787 11.5106 4.95131 12.0701 5.33143 12.5409C5.71156 13.0116 6.2115 13.3479 6.8708 13.7914L8.41223 14.8294C8.74709 15.055 9.18471 15.057 9.52167 14.8346L11.091 13.799C11.7653 13.3546 12.2766 13.0176 12.665 12.5411C13.0534 12.0647 13.2805 11.496 13.5799 10.7461L14.9552 7.30001C16.0149 6.32577 16.0069 5.10155 16.0014 4.25206L16.0014 4.25162C16.001 4.19261 16.0006 4.13521 16.0006 4.08003C16.0006 2.41686 14.6951 1 13.0018 1C12.4495 1 12.0018 1.44772 12.0018 2C12.0018 2.55228 12.4495 3 13.0018 3C13.5163 3 14.0006 3.44566 14.0006 4.08003C14.0006 5.12559 13.9837 5.47992 13.5964 5.83247C12.3214 6.99309 11.4344 7.79791 10.6835 8.32398C9.95491 8.83444 9.46608 9 9.00063 9C8.53518 9 8.04634 8.83444 7.31772 8.32398C6.5668 7.79791 5.67984 6.99309 4.40485 5.83247C4.01753 5.47989 4.00063 5.12552 4.00063 4.07981Z" fill="#141B34"/>
<path fill-rule="evenodd" clip-rule="evenodd" d="M18.001 9C15.7918 9 14.001 10.7909 14.001 13C14.001 15.2091 15.7918 17 18.001 17C20.2101 17 22.001 15.2091 22.001 13C22.001 10.7909 20.2101 9 18.001 9ZM18.0077 14.5C18.8324 14.5 19.501 13.8284 19.501 13C19.501 12.1716 18.8324 11.5 18.0077 11.5H17.9943C17.1695 11.5 16.501 12.1716 16.501 13C16.501 13.8284 17.1695 14.5 17.9943 14.5H18.0077Z" fill="#141B34"/>
</svg>
