<svg width="24" height="24" viewBox="0 0 24 24" fill="none" xmlns="http://www.w3.org/2000/svg">
<path fill-rule="evenodd" clip-rule="evenodd" d="M11.6465 3.14634C11.4359 2.77522 10.9809 2.65821 10.6299 2.8644C10.2711 3.07515 10.1386 3.55326 10.3534 3.93173C10.564 4.30285 11.0189 4.41986 11.37 4.21367C11.7288 4.00293 11.8613 3.52481 11.6465 3.14634ZM9.87021 1.57101C10.9538 0.934552 12.3334 1.31761 12.951 2.40599C13.5645 3.48702 13.2055 4.87516 12.1296 5.50707C11.8277 5.68439 11.5029 5.78257 11.1779 5.80841L10.8103 7.20406C10.7048 7.60462 10.2946 7.8438 9.89402 7.7383C9.49346 7.6328 9.25428 7.22257 9.35978 6.82202L9.72965 5.4177C9.45792 5.22998 9.22306 4.97909 9.04883 4.67208C8.43533 3.59105 8.79437 2.20291 9.87021 1.57101Z" fill="#141B34"/>
<path fill-rule="evenodd" clip-rule="evenodd" d="M7.55525 4.3317C7.58997 4.37504 7.61587 4.45607 7.66767 4.61813C7.74094 4.84737 7.83863 5.07209 7.96154 5.28867C8.01743 5.38714 8.07745 5.48201 8.1413 5.57317C8.23671 5.7094 8.28441 5.77751 8.29605 5.84266C8.30768 5.90781 8.28898 5.97881 8.25158 6.1208L8.15085 6.50326C7.86952 7.5714 8.50735 8.66537 9.57549 8.9467C10.6436 9.22803 11.7376 8.59019 12.0189 7.52205L12.1155 7.15546C12.1531 7.01278 12.1719 6.94144 12.2143 6.89035C12.2568 6.83926 12.3324 6.80351 12.4837 6.732C12.578 6.68742 12.671 6.63827 12.7626 6.58452C14.0247 5.84321 14.6459 4.4407 14.4703 3.08157C14.4251 2.73126 14.4024 2.55611 14.4793 2.45741C14.5561 2.35871 14.7023 2.34123 14.9945 2.30627C15.0878 2.29511 15.1791 2.28598 15.2685 2.27903C16.004 2.22189 16.6692 2.30681 17.289 2.65917C18.004 3.06566 18.4368 3.70162 18.7748 4.49884C19.0992 5.26398 19.3734 6.27198 19.712 7.51638L21.4779 14.0058C21.8165 15.25 22.0908 16.2581 22.1985 17.0806C22.3106 17.9373 22.2593 18.7047 21.8438 19.4134C21.4293 20.1203 20.7835 20.5449 19.9785 20.8758C19.2031 21.1945 18.1811 21.4642 16.9159 21.798L14.6454 22.397C14.4602 22.4459 14.3676 22.4703 14.2806 22.4397C14.1937 22.4091 14.1383 22.3341 14.0276 22.1841C13.9265 22.0472 13.8147 21.8925 13.6913 21.722L13.6913 21.7219C13.5934 21.5867 13.4884 21.4415 13.3757 21.2871C12.9897 20.7582 12.5345 20.1512 12.0416 19.5775C11.5517 19.0074 11.0045 18.4463 10.429 18.0226C9.86468 17.6071 9.19131 17.2627 8.46373 17.2627H8.4324L8.40119 17.2653C7.89509 17.3076 7.44527 17.538 7.07414 17.8064C6.69865 18.0779 6.35377 18.4247 6.04992 18.7753C5.72818 19.1466 5.42737 19.553 5.16836 19.9206C5.04027 20.1025 4.77051 20.0869 4.69008 19.8796V19.8796C4.5516 19.5225 4.43094 19.079 4.28998 18.5609L2.52196 12.0636C2.18337 10.8194 1.90906 9.81142 1.80141 8.98886C1.6893 8.13218 1.74059 7.36477 2.15611 6.65609C2.57062 5.94912 3.21638 5.52456 4.02138 5.19367C4.79677 4.87495 5.81878 4.60531 7.08393 4.27153C7.22689 4.23385 7.29837 4.21502 7.35357 4.22103C7.44022 4.23045 7.50076 4.26368 7.55525 4.3317ZM6.05922 21.2706C6.03905 21.3002 6.05079 21.3408 6.08391 21.3542C6.18533 21.3954 6.2897 21.4317 6.39683 21.4649C6.76562 21.5792 7.22109 21.671 7.75569 21.7787L11.9926 22.6324C12.1248 22.6591 12.2476 22.6839 12.3648 22.7046C12.4437 22.7185 12.497 22.6304 12.45 22.5654V22.5654L12.4499 22.5654C12.357 22.4369 12.2613 22.3046 12.1641 22.1714C11.7844 21.6512 11.3572 21.0827 10.9039 20.5551C10.4475 20.024 9.98483 19.5583 9.53963 19.2305C9.13213 18.9304 8.80303 18.7932 8.55103 18.7673C8.53018 18.7651 8.51976 18.7641 8.49514 18.7656C8.47051 18.7671 8.46153 18.7692 8.44355 18.7733C8.31882 18.8019 8.15584 18.8753 7.95312 19.0219C7.70643 19.2003 7.44684 19.4538 7.1835 19.7577C6.75661 20.2503 6.37843 20.8036 6.05924 21.2706L6.05922 21.2706V21.2706Z" fill="#141B34"/>
</svg>
