<svg width="24" height="24" viewBox="0 0 24 24" fill="none" xmlns="http://www.w3.org/2000/svg">
<path d="M5.04283 16.25C5.71342 16.25 6.27896 16.25 6.72942 16.3004C7.1991 16.3531 7.65703 16.4701 8.04081 16.79C8.44434 17.1262 8.61268 17.5575 8.68552 18.009C8.75015 18.4096 8.75008 18.9033 8.75001 19.446L8.75001 19.5L8.75001 19.554C8.75008 20.0967 8.75015 20.5905 8.68552 20.991C8.61268 21.4425 8.44434 21.8738 8.04081 22.2101C7.65703 22.5299 7.1991 22.647 6.72942 22.6996C6.27895 22.75 5.71341 22.75 5.04281 22.75H5.0428H4.95722H4.95721C4.28661 22.75 3.72107 22.75 3.27059 22.6996C2.80092 22.647 2.34298 22.5299 1.95921 22.2101C1.55568 21.8738 1.38734 21.4425 1.3145 20.991C1.24987 20.5905 1.24993 20.0967 1.25 19.554L1.25 19.554L1.25001 19.5L1.25 19.446L1.25 19.446C1.24993 18.9033 1.24987 18.4096 1.3145 18.009C1.38734 17.5575 1.55568 17.1262 1.95921 16.79C2.34298 16.4701 2.80092 16.3531 3.27059 16.3004C3.72106 16.25 4.2866 16.25 4.95719 16.25H4.95722H5.0428H5.04283Z" fill="#141B34"/>
<path d="M19.0428 16.25C19.7134 16.25 20.279 16.25 20.7294 16.3004C21.1991 16.3531 21.657 16.4701 22.0408 16.79C22.4443 17.1262 22.6127 17.5575 22.6855 18.009C22.7501 18.4096 22.7501 18.9033 22.75 19.446L22.75 19.5L22.75 19.554C22.7501 20.0967 22.7501 20.5905 22.6855 20.991C22.6127 21.4425 22.4443 21.8738 22.0408 22.2101C21.657 22.5299 21.1991 22.647 20.7294 22.6996C20.279 22.75 19.7134 22.75 19.0428 22.75H19.0428H18.9572H18.9572C18.2866 22.75 17.7211 22.75 17.2706 22.6996C16.8009 22.647 16.343 22.5299 15.9592 22.2101C15.5557 21.8738 15.3873 21.4425 15.3145 20.991C15.2499 20.5905 15.2499 20.0967 15.25 19.554L15.25 19.554L15.25 19.5L15.25 19.446L15.25 19.446C15.2499 18.9033 15.2499 18.4096 15.3145 18.009C15.3873 17.5575 15.5557 17.1262 15.9592 16.79C16.343 16.4701 16.8009 16.3531 17.2706 16.3004C17.7211 16.25 18.2866 16.25 18.9572 16.25H18.9572H19.0428H19.0428Z" fill="#141B34"/>
<path fill-rule="evenodd" clip-rule="evenodd" d="M6.93122 12.1798C7.60198 12.043 8.39678 12 9.30769 12H14.6923C15.6032 12 16.398 12.043 17.0688 12.1798C17.7469 12.3181 18.3673 12.5659 18.8631 13.0262C19.8489 13.9417 20 15.3793 20 17C20 17.5523 19.5523 18 19 18C18.4477 18 18 17.5523 18 17C18 15.3113 17.7792 14.749 17.5022 14.4918C17.3665 14.3658 17.1327 14.234 16.669 14.1394C16.198 14.0434 15.5633 14 14.6923 14H9.30769C8.43665 14 7.80202 14.0434 7.33097 14.1394C6.86731 14.234 6.63353 14.3658 6.49784 14.4918C6.22083 14.749 6 15.3113 6 17C6 17.5523 5.55228 18 5 18C4.44772 18 4 17.5523 4 17C4 15.3793 4.15107 13.9417 5.13693 13.0262C5.63267 12.5659 6.25308 12.3181 6.93122 12.1798Z" fill="#141B34"/>
<path d="M11.0002 1.38178C11.7884 1.67371 12.1334 2.37046 12.338 2.78369C12.3763 2.86512 12.4909 3.02798 12.6425 3.02798L14.1728 3.02798C14.6166 3.02796 15.0042 3.02794 15.3216 3.05983C15.6594 3.09377 15.9996 3.16983 16.3131 3.37671C16.5423 3.52797 16.7397 3.72274 16.8937 3.9503C17.1051 4.26274 17.183 4.60262 17.2176 4.93909C17.25 5.25397 17.25 5.63801 17.25 6.07548L17.25 6.15067C17.25 6.89744 17.25 7.515 17.1987 8.0138C17.145 8.53434 17.0292 9.0083 16.742 9.43284C16.5224 9.75745 16.2406 10.0356 15.9131 10.2517C15.4862 10.5335 15.0102 10.647 14.4859 10.6996C13.9823 10.7502 13.3583 10.7502 12.6012 10.7502H12.6011H11.9476H11.9476C10.9315 10.7502 10.0946 10.7503 9.43242 10.6623C8.73823 10.5701 8.12442 10.3693 7.63199 9.88294C7.13826 9.39532 6.93316 8.78533 6.83923 8.0953C6.74995 7.43944 6.74997 6.61125 6.75 5.60916V5.60914L6.75 4.19766L6.75 4.16685V4.16681C6.74998 3.78952 6.74997 3.45823 6.77436 3.18489C6.80033 2.89393 6.85841 2.59758 7.01817 2.31484C7.20905 1.97701 7.49054 1.69955 7.8301 1.5124C8.11323 1.35634 8.40965 1.29961 8.70195 1.27416C8.97747 1.25017 9.43647 1.25008 9.81926 1.2501C10.2477 1.2494 10.641 1.24875 11.0002 1.38178Z" fill="#141B34"/>
</svg>
