<svg width="24" height="24" viewBox="0 0 24 24" fill="none" xmlns="http://www.w3.org/2000/svg">
<path fill-rule="evenodd" clip-rule="evenodd" d="M15.4208 5.92962C10.8638 3.39365 7.02676 3.94157 5.54399 6.16943C4.97627 7.02243 4.51156 8.10074 4.88319 9.66418C5.15719 10.8169 5.87624 12.1879 7.23685 13.9147C7.34928 14.0574 7.40549 14.1288 7.37839 14.185C7.35129 14.2413 7.26064 14.2418 7.07933 14.2428H7.07932C6.81916 14.2442 6.55874 14.2524 6.30158 14.2872C5.96487 14.3327 5.61015 14.4363 5.31123 14.7093C5.24608 14.6865 5.16682 14.6522 5.07154 14.6018C4.85547 14.4876 4.6239 14.3279 4.35863 14.1387L4.27195 14.0767C4.04435 13.9138 3.78727 13.7297 3.54077 13.5859C3.27702 13.4319 2.90585 13.2492 2.49623 13.2492C2.26095 13.2492 1.93264 13.2681 1.62643 13.4409C1.28706 13.6325 1.0972 13.9385 0.987588 14.2596C0.884452 14.5617 0.833158 14.9313 0.802071 15.3526C0.770277 15.7835 0.756501 16.3231 0.750228 16.9897C0.744341 17.6153 0.851562 18.2862 1.20448 18.8238C1.58829 19.4084 2.20767 19.7492 3 19.7492C3.41421 19.7492 3.75 19.4134 3.75 18.9992C3.75 18.585 3.41421 18.2492 3 18.2492C2.68633 18.2492 2.55062 18.1411 2.45842 18.0006C2.33534 17.8131 2.24565 17.4828 2.25016 17.0039C2.25639 16.3424 2.26996 15.8431 2.29801 15.463C2.32614 15.0816 2.36604 14.8688 2.4046 14.7518C2.42777 14.7503 2.45787 14.7492 2.49623 14.7492C2.49498 14.7492 2.49539 14.7493 2.49759 14.7498C2.51144 14.7528 2.59637 14.7715 2.78465 14.8813C2.96665 14.9876 3.16289 15.1278 3.40118 15.2981L3.48751 15.3598C3.74792 15.5456 4.05455 15.7609 4.37041 15.9279C4.48874 15.9904 4.6187 16.052 4.75794 16.1042C4.69284 16.7857 4.70454 17.5275 4.7932 18.1877C4.84088 18.5427 4.95304 18.9181 5.26138 19.227L5.26239 19.228C5.57105 19.5361 5.94633 19.6487 6.30158 19.6968C6.62695 19.7408 7.02688 19.7408 7.46335 19.7407L9.47625 19.7407C10.15 19.7815 11.1576 19.6857 12.0323 19.2277C12.4153 19.0272 12.82 18.7974 12.9345 18.3514C13.0536 17.8877 12.7679 17.4252 12.5126 17.0117C12.4524 16.9143 12.3939 16.8196 12.3428 16.7282L10.8396 14.0992C10.1014 12.8081 10.5114 11.0405 12.0282 10.4443C12.944 10.0844 14.0668 9.74609 15.0566 9.74609C15.4708 9.74609 15.8066 10.0819 15.8066 10.4961C15.8066 10.9103 15.4708 11.2461 15.0566 11.2461C14.354 11.2461 13.4436 11.4997 12.577 11.8403C12.041 12.051 11.7856 12.7317 12.1418 13.3547L13.6501 15.9927L15.5176 19.3305C15.7009 19.6492 16.0946 19.7407 16.4623 19.7407H19C19.2411 19.7407 19.4675 19.6248 19.6085 19.4292C19.7494 19.2336 19.7837 18.9701 19.7074 18.7414C21.6357 18.7414 23.25 17.179 23.25 15.2507C23.25 13.4705 21.917 12.0022 20.195 11.7871C19.935 10.0415 18.7013 7.7552 15.4208 5.92962ZM18.4239 14.1753C18.8131 13.9608 19.5006 13.4556 19.757 13.2603C20.8578 13.2603 21.7493 14.1519 21.7493 15.2509C21.7493 16.3499 20.8578 17.2416 19.757 17.2416H18.789C18.6482 17.0835 18.5025 16.9367 18.3581 16.8034C18.0217 16.4928 17.5818 16.216 17.1974 16.0634C17.0903 16.0208 17.0367 15.9995 17.0058 15.9661C16.975 15.9326 16.96 15.8838 16.9301 15.7862L16.6913 15.0073C16.659 14.9022 16.6429 14.8496 16.6665 14.8111C16.6901 14.7727 16.7462 14.7629 16.8584 14.7433C17.4568 14.6391 17.985 14.4173 18.4239 14.1753Z" fill="#141B34"/>
</svg>
