<svg width="24" height="24" viewBox="0 0 24 24" fill="none" xmlns="http://www.w3.org/2000/svg">
<path fill-rule="evenodd" clip-rule="evenodd" d="M20.8012 1.26615C19.3651 1.1699 17.3657 1.50438 15.3355 2.2542C13.293 3.00855 11.1317 4.21516 9.40618 5.94071C6.33069 9.0162 3.43844 13.6391 1.72632 16.5798C1.63511 16.7364 1.53783 16.9035 1.47228 17.031C1.40479 17.1622 1.32187 17.3407 1.28187 17.5519C1.11416 18.4374 1.62261 19.3218 2.47222 19.6224C2.67622 19.6946 2.87448 19.7124 3.02205 19.72C3.16674 19.7274 3.36257 19.7274 3.54784 19.7274C3.75018 19.7274 3.87023 19.7276 3.96032 19.7316C4.063 19.7278 4.26837 19.7839 4.26837 20.0397C4.27237 20.1298 4.27259 20.2498 4.27259 20.4522C4.27258 20.6374 4.27257 20.8333 4.28001 20.978C4.28761 21.1255 4.30545 21.3238 4.37762 21.5278C4.67822 22.3774 5.56261 22.8858 6.44809 22.7181C6.65927 22.6781 6.83778 22.5952 6.96903 22.5277C7.09629 22.4623 7.26364 22.3648 7.42003 22.2738L7.4202 22.2737C10.3609 20.5616 14.9838 17.6693 18.0593 14.5938C19.7848 12.8683 20.9914 10.707 21.7458 8.66453C22.4956 6.6343 22.8301 4.63488 22.7338 3.1988L22.7317 3.16599C22.7222 3.01863 22.7071 2.78551 22.6413 2.56131C22.5541 2.26452 22.3982 2.02504 22.1866 1.81341C21.975 1.60178 21.7355 1.44586 21.4387 1.35873C21.2145 1.29291 20.9814 1.27783 20.834 1.2683L20.8012 1.26615ZM10.7887 7.32289C12.2691 5.8425 14.1675 4.76943 16.0131 4.0878C17.8709 3.40165 19.5878 3.14383 20.671 3.21642C20.7061 3.20375 20.7779 3.20865 20.7842 3.32961C20.8568 4.41274 20.5989 6.12966 19.9128 7.98747C19.8415 8.18043 19.766 8.37397 19.6861 8.56754C19.0338 9.32873 18.3051 9.75933 17.5255 10.0068C16.4282 10.3551 15.1832 10.3571 13.7798 10.2836C13.5172 10.2698 13.2485 10.2529 12.9748 10.2357L12.9748 10.2357C11.4455 10.1394 9.76096 10.0334 8.125 10.4114C8.98291 9.29177 9.88106 8.23056 10.7887 7.32289ZM8.53033 16.5303C8.82322 16.2374 8.82322 15.7626 8.53033 15.4697C8.23744 15.1768 7.76256 15.1768 7.46967 15.4697L6.46967 16.4697C6.17678 16.7626 6.17678 17.2374 6.46967 17.5303C6.76256 17.8232 7.23744 17.8232 7.53033 17.5303L8.53033 16.5303Z" fill="#141B34"/>
</svg>
