<svg width="25" height="24" viewBox="0 0 25 24" fill="none" xmlns="http://www.w3.org/2000/svg">
<path fill-rule="evenodd" clip-rule="evenodd" d="M4.08295 9.96967C4.2236 9.82902 4.41437 9.75 4.61328 9.75L19.6133 9.75C19.8122 9.75 20.003 9.82902 20.1436 9.96967C20.2341 10.0602 20.3342 10.158 20.4408 10.2623L20.4409 10.2623C20.8598 10.6718 21.379 11.1793 21.8104 11.7247C22.3504 12.4072 22.8633 13.2788 22.8633 14.2774V17.5552C22.8633 18.4365 22.2364 19.2404 21.3231 19.3546L18.2063 19.7442C18.1754 19.7481 18.1444 19.75 18.1133 19.75L6.11328 19.75C6.08218 19.75 6.05111 19.7481 6.02026 19.7442L2.90341 19.3546C1.99012 19.2404 1.36328 18.4365 1.36328 17.5552L1.36328 14.2774C1.36328 13.2788 1.87614 12.4072 2.41612 11.7247C2.84753 11.1793 3.36674 10.6718 3.78568 10.2623L3.78573 10.2622C3.89233 10.158 3.99244 10.0602 4.08295 9.96967ZM21.8411 13.3183C21.9415 13.7201 21.6972 14.1273 21.2953 14.2278L19.7953 14.6028C19.3935 14.7032 18.9863 14.4589 18.8858 14.0571C18.7854 13.6552 19.0297 13.248 19.4315 13.1476L20.9315 12.7726C21.3334 12.6721 21.7406 12.9164 21.8411 13.3183ZM2.44263 13.1648C2.62787 12.7943 3.07837 12.6441 3.44886 12.8294L4.94886 13.5794C5.31934 13.7646 5.46951 14.2151 5.28427 14.5856C5.09902 14.9561 4.64852 15.1062 4.27804 14.921L2.77804 14.171C2.40755 13.9858 2.25738 13.5353 2.44263 13.1648ZM11.1443 16H13.0821C14.0658 16 14.5576 16 14.9386 16.2579C15.2342 16.458 15.4104 16.7779 15.6453 17.3382C15.7485 17.5843 15.8001 17.7073 15.7407 17.7965C15.6814 17.8858 15.5465 17.8858 15.2767 17.8858H8.94964C8.67983 17.8858 8.54493 17.8858 8.48557 17.7965C8.42622 17.7073 8.47781 17.5843 8.58099 17.3382C8.81589 16.7779 8.99211 16.458 9.28776 16.2579C9.66869 16 10.1605 16 11.1443 16Z" fill="#141B34"/>
<path d="M20.7227 22.7505H19.0039C18.7187 22.7505 18.4825 22.6368 18.2352 22.5268C17.854 22.3575 17.6133 22.0112 17.6133 21.6324V21.1505C17.6133 20.9656 17.6133 20.8732 17.6715 20.8147C17.7297 20.7562 17.8242 20.7557 18.0133 20.7547C18.1195 20.7542 18.2256 20.75 18.3304 20.7369L21.4472 20.3473C21.4808 20.3431 21.5142 20.3383 21.5473 20.333C21.8308 20.2872 21.9726 20.2643 22.0429 20.3242C22.1133 20.3841 22.1133 20.5114 22.1133 20.766V21.6324C22.1133 22.0112 21.8725 22.3575 21.4914 22.5268C21.2441 22.6368 21.0079 22.7505 20.7227 22.7505Z" fill="#141B34"/>
<path d="M3.50386 22.7505H5.2227C5.5079 22.7505 5.7441 22.6368 5.9914 22.5268C6.37253 22.3575 6.61328 22.0112 6.61328 21.6324V21.1505C6.61328 20.9656 6.61328 20.8732 6.55507 20.8147C6.49686 20.7562 6.40234 20.7557 6.21331 20.7547C6.10702 20.7542 6.00097 20.75 5.89621 20.7369L2.77938 20.3473C2.74573 20.3431 2.71234 20.3383 2.67923 20.333C2.39573 20.2872 2.25397 20.2643 2.18363 20.3242C2.11328 20.3841 2.11328 20.5114 2.11328 20.766V21.6324C2.11328 22.0112 2.35403 22.3575 2.73517 22.5268C2.98246 22.6368 3.21867 22.7505 3.50386 22.7505Z" fill="#141B34"/>
<path fill-rule="evenodd" clip-rule="evenodd" d="M2.21907 8.55301C2.46606 8.05903 3.06674 7.8588 3.56071 8.10579L4.56071 8.60579C5.05469 8.85278 5.25492 9.45345 5.00793 9.94743C4.76094 10.4414 4.16027 10.6416 3.66629 10.3946L2.66629 9.89465C2.17231 9.64766 1.97208 9.04698 2.21907 8.55301ZM22.0079 8.55301C22.2549 9.04698 22.0547 9.64766 21.5607 9.89465L20.5607 10.3946C20.0667 10.6416 19.4661 10.4414 19.2191 9.94743C18.9721 9.45345 19.1723 8.85278 19.6663 8.60579L20.6663 8.10579C21.1603 7.8588 21.7609 8.05903 22.0079 8.55301Z" fill="#141B34"/>
<path fill-rule="evenodd" clip-rule="evenodd" d="M16.3373 4.29547C16.8206 4.34413 17.2883 4.45188 17.7223 4.72758C18.163 5.00757 18.4409 5.37921 18.6577 5.79001C18.8549 6.1637 19.0323 6.63293 19.2306 7.15745L20.3046 9.9975C20.4878 10.4819 20.2279 11.0174 19.7241 11.1936C19.2204 11.3697 18.6635 11.1198 18.4803 10.6354L17.4241 7.84219C17.2025 7.25629 17.0643 6.89536 16.9267 6.63474C16.8029 6.40014 16.7199 6.32795 16.6522 6.28497C16.5779 6.23774 16.4539 6.184 16.135 6.1519C15.796 6.11779 15.349 6.1166 14.6532 6.1166H9.57337C8.87761 6.1166 8.43055 6.11779 8.09156 6.1519C7.77265 6.184 7.64865 6.23774 7.57432 6.28497C7.50666 6.32795 7.42364 6.40014 7.29983 6.63474C7.16229 6.89536 7.02405 7.25629 6.80249 7.84218L5.74623 10.6354C5.56304 11.1198 5.00617 11.3697 4.50242 11.1936C3.99867 11.0174 3.7388 10.4819 3.92198 9.9975L4.97824 7.20429L4.99595 7.15745C5.19425 6.63293 5.37165 6.1637 5.56887 5.79001C5.78567 5.37921 6.06359 5.00757 6.50429 4.72758C6.93824 4.45188 7.40596 4.34413 7.88929 4.29547C8.00185 3.73004 8.09502 3.2644 8.19661 2.89873C8.30114 2.52249 8.43693 2.16232 8.68198 1.86658C8.95459 1.53757 9.28773 1.37646 9.65368 1.3065C9.95064 1.24973 10.2989 1.24987 10.635 1.25001L10.6847 1.25003L13.5418 1.25003L13.5915 1.25001C13.9277 1.24987 14.2759 1.24973 14.5729 1.3065C14.9388 1.37646 15.272 1.53757 15.5446 1.86658C15.7896 2.16232 15.9254 2.52249 16.03 2.89873C16.1316 3.2644 16.2247 3.73004 16.3373 4.29547Z" fill="#141B34"/>
</svg>
