<svg width="24" height="24" viewBox="0 0 24 24" fill="none" xmlns="http://www.w3.org/2000/svg">
<path d="M7.71714 13.9751L5.30069 11.6606C4.63467 11.1091 3.63544 11.2043 3.09005 11.8738C2.63526 12.4321 2.63696 13.2256 3.09332 13.7819L6.93339 18.4914C6.94502 18.5048 6.95712 18.5178 6.96967 18.5303C7.37359 18.9342 7.70969 19.5683 7.93955 20.2713L7.94936 20.3013C8.11329 20.8027 8.24991 21.2206 8.37998 21.5347C8.50251 21.8305 8.67634 22.1881 8.99164 22.4167C9.28612 22.6303 9.6224 22.6948 9.91708 22.7228C10.2033 22.75 10.5599 22.75 10.9656 22.75L17.3666 22.7501C17.4864 22.7503 17.6108 22.7504 17.7251 22.7355C18.5127 22.6332 19.1326 22.0133 19.235 21.2257C19.2498 21.1114 19.2497 20.987 19.2496 20.8672L19.2496 20.8356C19.2496 20.5078 19.3828 20.1715 19.6289 19.8905C20.027 19.436 20.6227 18.7036 20.869 18.06C21.0729 17.5271 21.1631 16.9544 21.2067 16.2675C21.2496 15.5922 21.2496 14.7575 21.2496 13.6929V13.6928L21.25 12.1944C21.25 10.8501 20.2781 9.70265 18.9521 9.48165L18.6883 9.43768V11.9998C18.6883 12.2311 18.4971 12.4186 18.2614 12.4186C18.0256 12.4186 17.8344 12.2311 17.8344 11.9998V9.48666C17.3435 8.7355 16.4643 8.24998 15.5 8.24998C15.423 8.24998 15.3472 8.25494 15.2729 8.26458V10.8829C15.2729 11.1142 15.0817 11.3017 14.846 11.3017C14.6102 11.3017 14.419 11.1142 14.419 10.8829V8.03027C14.3763 7.98858 14.3321 7.94827 14.2867 7.90944C13.6975 7.40551 12.9963 7.38499 12.4145 7.56102C12.359 7.5778 12.3041 7.59644 12.2498 7.61679C12.118 7.6614 11.9332 7.79128 11.8573 7.85064V9.76601C11.8573 9.99732 11.6661 10.1848 11.4303 10.1848C11.1946 10.1848 11.0034 9.99732 11.0034 9.76601V2.87683C11.0034 1.97837 10.2751 1.25002 9.37663 1.25C8.47815 1.24998 7.74978 1.97832 7.74977 2.8768L7.71714 13.9751Z" fill="#141B34"/>
</svg>
