<svg width="24" height="24" viewBox="0 0 24 24" fill="none" xmlns="http://www.w3.org/2000/svg">
<path fill-rule="evenodd" clip-rule="evenodd" d="M12 1.25C6.06294 1.25 1.25 6.06294 1.25 12C1.25 17.9371 6.06294 22.75 12 22.75C17.9371 22.75 22.75 17.9371 22.75 12C22.75 6.06294 17.9371 1.25 12 1.25ZM15.5 10.4807L14.0929 9.19143C13.9758 9.09757 13.8309 8.98143 13.6974 8.90326C13.5625 8.82425 13.2001 8.63965 12.7885 8.83748C12.3769 9.0353 12.2946 9.43364 12.272 9.58833C12.2497 9.74138 12.2499 9.92708 12.25 10.0772V10.0772V10.0772V10.0772L12.25 15.4999C12.25 15.9141 12.5858 16.2499 13 16.2499C13.4142 16.2499 13.75 15.9141 13.75 15.4999V10.9088L14.9922 12.0518C15.2792 12.3159 15.7208 12.3159 16.0078 12.0518L17.25 10.9088V15.4999C17.25 15.9141 17.5858 16.2499 18 16.2499C18.4142 16.2499 18.75 15.9141 18.75 15.4999L18.75 10.0772V10.0771V10.0771V10.0771C18.7501 9.92703 18.7503 9.74136 18.728 9.58833C18.7054 9.43364 18.6231 9.0353 18.2115 8.83748C17.7999 8.63965 17.4375 8.82425 17.3026 8.90326C17.1691 8.98142 17.0242 9.09754 16.9071 9.1914L16.9071 9.19143L15.5 10.4807ZM6 8.7499C5.58579 8.7499 5.25 9.08569 5.25 9.4999C5.25 9.91412 5.58579 10.2499 6 10.2499H7.75V15.4999C7.75 15.9141 8.08579 16.2499 8.5 16.2499C8.91421 16.2499 9.25 15.9141 9.25 15.4999V10.2499H11C11.4142 10.2499 11.75 9.91412 11.75 9.4999C11.75 9.08569 11.4142 8.7499 11 8.7499H6Z" fill="#141B34"/>
</svg>
