<svg width="24" height="24" viewBox="0 0 24 24" fill="none" xmlns="http://www.w3.org/2000/svg">
<path fill-rule="evenodd" clip-rule="evenodd" d="M11.9022 6.75C12.4545 6.75 12.9022 7.19772 12.9022 7.75V7.83327C13.5914 8.0297 14.1993 8.42925 14.5982 8.99566C14.9162 9.44721 14.8079 10.0711 14.3564 10.389C13.9048 10.707 13.281 10.5988 12.963 10.1472C12.8102 9.9302 12.4362 9.69463 11.9022 9.69463C11.0415 9.69463 10.75 10.2147 10.75 10.4086C10.75 10.5446 10.7713 10.6115 10.7827 10.6375C10.7902 10.6548 10.7984 10.6684 10.8272 10.6894C10.9137 10.7523 11.1935 10.8778 11.9022 10.8778C12.7498 10.8778 13.5918 11.0026 14.2387 11.4579C14.9622 11.9673 15.25 12.7446 15.25 13.5917C15.25 14.5444 14.8142 15.288 14.1063 15.7469C13.7414 15.9835 13.3276 16.1306 12.9022 16.2141V16.25C12.9022 16.8023 12.4545 17.25 11.9022 17.25C11.3499 17.25 10.9022 16.8023 10.9022 16.25V16.1846C10.2997 16.0347 9.75269 15.7487 9.33314 15.3434C8.93592 14.9597 8.92497 14.3266 9.30868 13.9294C9.69239 13.5322 10.3255 13.5212 10.7227 13.905C10.9366 14.1116 11.3537 14.3057 11.9022 14.3057C12.4494 14.3057 12.8184 14.1984 13.0183 14.0688C13.1602 13.9768 13.25 13.8634 13.25 13.5917C13.25 13.2147 13.1465 13.1349 13.0874 13.0934C12.9516 12.9978 12.6198 12.8778 11.9022 12.8778C11.0456 12.8778 10.2493 12.742 9.65104 12.307C8.9821 11.8206 8.75 11.1077 8.75 10.4086C8.75 9.08338 9.74484 8.17449 10.9022 7.83859V7.75C10.9022 7.19771 11.3499 6.75 11.9022 6.75Z" fill="#141B34"/>
<path fill-rule="evenodd" clip-rule="evenodd" d="M14.0347 3.5099C9.91965 2.44061 5.73497 4.26136 3.74167 7.64536L4.80598 7.70841C5.34477 7.74033 5.75567 8.20298 5.72375 8.74178C5.69183 9.28057 5.22918 9.69147 4.69038 9.65955L2.16949 9.5102C1.85756 9.49172 1.57327 9.32519 1.4046 9.06215C1.23594 8.7991 1.20322 8.47126 1.31659 8.18008C3.30923 3.06182 9.00421 0.183264 14.5263 1.61816C20.4151 3.14835 23.9625 9.03181 22.3699 14.7956C21.0781 19.4709 16.8139 22.5675 12.1149 22.7433C12.0773 22.7477 12.0389 22.75 12.0001 22.75C11.9647 22.75 11.9293 22.7498 11.894 22.7494C11.8849 22.7496 11.8757 22.7497 11.8665 22.7499C11.8381 22.7503 11.8098 22.7495 11.7819 22.7476C11.7692 22.7473 11.7565 22.747 11.7438 22.7467C11.2043 22.7326 10.7783 22.2838 10.7924 21.7442C10.8064 21.2047 11.2552 20.7787 11.7948 20.7928C11.8256 20.7936 11.8564 20.7942 11.8873 20.7946C15.8569 20.7119 19.423 18.1221 20.486 14.275C21.7734 9.61549 18.9208 4.77953 14.0347 3.5099ZM3.20456 11.0226C3.20456 10.4829 2.76702 10.0453 2.22728 10.0453C1.68754 10.0453 1.25 10.4829 1.25 11.0226C1.25 11.1062 1.25082 11.1895 1.25246 11.2727C1.2631 11.8123 1.70918 12.2411 2.24882 12.2305C2.78845 12.2199 3.21728 11.7738 3.20665 11.2342C3.20526 11.1638 3.20456 11.0933 3.20456 11.0226ZM3.55547 13.7317C3.41735 13.2099 2.88241 12.8989 2.36064 13.0371C1.83888 13.1752 1.52787 13.7101 1.666 14.2319C1.70874 14.3934 1.75462 14.5535 1.80356 14.7122C1.9626 15.228 2.50965 15.5172 3.02542 15.3581C3.54119 15.1991 3.83038 14.652 3.67134 14.1363C3.63013 14.0026 3.59149 13.8678 3.55547 13.7317ZM4.69965 16.4315C4.41998 15.9699 3.81904 15.8224 3.35741 16.102C2.89578 16.3817 2.74827 16.9827 3.02794 17.4443C3.11469 17.5875 3.20425 17.7286 3.29654 17.8674C3.59528 18.317 4.20187 18.4392 4.65139 18.1405C5.10092 17.8417 5.22315 17.2351 4.92441 16.7856C4.84724 16.6695 4.77229 16.5514 4.69965 16.4315ZM6.5636 18.6728C6.15905 18.3155 5.54146 18.3538 5.18417 18.7584C4.82688 19.1629 4.8652 19.7805 5.26975 20.1378C5.39599 20.2493 5.52462 20.3578 5.65556 20.4632C6.07596 20.8017 6.69117 20.7353 7.02966 20.3149C7.36815 19.8945 7.30174 19.2793 6.88133 18.9408C6.77366 18.8541 6.66772 18.7647 6.5636 18.6728ZM9.00549 20.2022C8.50605 19.9976 7.93529 20.2366 7.73067 20.736C7.52605 21.2355 7.76506 21.8062 8.26451 22.0109C8.42157 22.0752 8.58043 22.1357 8.74096 22.1921C9.25014 22.3712 9.80805 22.1035 9.98709 21.5943C10.1661 21.0852 9.8985 20.5273 9.38933 20.3482C9.26017 20.3028 9.1322 20.2541 9.00549 20.2022Z" fill="#141B34"/>
</svg>
