<svg width="24" height="24" viewBox="0 0 24 24" fill="none" xmlns="http://www.w3.org/2000/svg">
<path d="M21.6321 12.0933C21.8854 11.6048 21.6767 11.1507 21.5345 10.9095C21.3938 10.6709 21.1712 10.3962 20.9424 10.1139L19.9417 8.87867C19.7933 8.69547 19.7191 8.60387 19.6139 8.58228C19.5088 8.56068 19.4045 8.61561 19.1959 8.72549L18.3263 9.18352L18.3023 9.19411C17.4541 9.5676 16.5701 9.81466 15.6631 9.73507C14.7345 9.65359 13.8699 9.23804 13.0569 8.44844C12.4679 7.87631 12.0357 7.7496 11.7004 7.74999C11.3197 7.75044 10.9133 7.91045 10.3526 8.20542C10.241 8.26413 10.124 8.32839 10.0015 8.39567C8.98714 8.95285 7.59733 9.71625 5.8044 9.23173L5.77678 9.22427L4.62327 8.81598C4.43019 8.74764 4.33365 8.71347 4.24194 8.73933C4.15024 8.76519 4.08578 8.84476 3.95685 9.00391L3.05769 10.1139C2.82886 10.3962 2.60624 10.6709 2.46555 10.9095C2.32338 11.1507 2.11461 11.6048 2.36796 12.0933C2.61212 12.5642 3.08627 12.6733 3.36001 12.7114C3.63888 12.7501 3.99876 12.7501 4.37731 12.75H19.6227C20.0013 12.7501 20.3612 12.7501 20.64 12.7114C20.9138 12.6733 21.3879 12.5642 21.6321 12.0933Z" fill="#141B34"/>
<path d="M5.76005 6.77802C5.51665 7.07847 5.39495 7.2287 5.43712 7.37824C5.47929 7.52778 5.66155 7.59229 6.02606 7.72131L6.22198 7.79066C7.38817 8.09569 8.23393 7.64059 9.27481 7.08052C9.39824 7.0141 9.52442 6.94621 9.6542 6.87793C10.2276 6.57627 10.9196 6.2509 11.6986 6.24999C12.523 6.24903 13.3119 6.60501 14.102 7.37242C14.7096 7.96248 15.2635 8.19424 15.7942 8.24081C16.3405 8.28876 16.9492 8.1482 17.6743 7.83163L18.0224 7.64826C18.3216 7.49064 18.4712 7.41183 18.4998 7.27287C18.5283 7.13391 18.4219 7.00251 18.209 6.73972L17.0645 5.32693C16.0586 4.08526 15.2513 3.08867 14.5162 2.41047C13.755 1.70813 12.9699 1.25 12 1.25C11.0301 1.25 10.245 1.70813 9.48379 2.41047C8.74872 3.08868 7.94145 4.08522 6.93559 5.32691L5.76005 6.77802Z" fill="#141B34"/>
<path d="M20.2077 21.197C20.2511 20.8743 20.251 20.4775 20.251 20.0448V14.5932C20.251 14.3103 20.251 14.1689 20.1631 14.081C20.0753 13.9932 19.9338 13.9932 19.651 13.9932L4.35098 13.9932C4.06814 13.9932 3.92672 13.9932 3.83885 14.081C3.75098 14.1689 3.75098 14.3103 3.75098 14.5932L3.75098 20.0446C3.75093 20.4774 3.75088 20.8742 3.79428 21.197C3.84208 21.5525 3.95452 21.9282 4.26355 22.2373C4.57257 22.5463 4.9483 22.6587 5.30378 22.7065C5.62658 22.7499 6.02341 22.7499 6.45623 22.7498H8.85C9.03856 22.7498 9.13284 22.7498 9.19142 22.6912C9.25 22.6327 9.25 22.5384 9.25 22.3498V18C9.25 16.4812 10.4812 15.25 12 15.25C13.5188 15.25 14.75 16.4812 14.75 18V22.3498C14.75 22.5384 14.75 22.6327 14.8086 22.6912C14.8672 22.7498 14.9614 22.7498 15.15 22.7498H17.5457C17.9785 22.7499 18.3754 22.7499 18.6982 22.7065C19.0537 22.6587 19.4294 22.5463 19.7384 22.2373C20.0474 21.9282 20.1599 21.5525 20.2077 21.197Z" fill="#141B34"/>
<path d="M12.85 22.7498C13.0386 22.7498 13.1328 22.7498 13.1914 22.6912C13.25 22.6327 13.25 22.5384 13.25 22.3498V18C13.25 17.3096 12.6904 16.75 12 16.75C11.3096 16.75 10.75 17.3096 10.75 18V22.3498C10.75 22.5384 10.75 22.6327 10.8086 22.6912C10.8672 22.7498 10.9614 22.7498 11.15 22.7498H12.85Z" fill="#141B34"/>
</svg>
