<svg width="24" height="24" viewBox="0 0 24 24" fill="none" xmlns="http://www.w3.org/2000/svg">
<path fill-rule="evenodd" clip-rule="evenodd" d="M4 4.99988C4 5.55216 4.44772 5.99988 5 5.99988H19.0001C19.5524 5.99988 20.0001 5.55216 20.0001 4.99988C20.0001 4.44759 19.5524 3.99988 19.0001 3.99988H5C4.44772 3.99988 4 4.44759 4 4.99988Z" fill="#141B34"/>
<path fill-rule="evenodd" clip-rule="evenodd" d="M13.0059 18.9999C13.0059 19.5522 12.5581 19.9999 12.0059 19.9999C11.4536 19.9999 11.0059 19.5522 11.0059 18.9999L11.0059 12.4998L10.4116 12.4999C10.236 12.5 10.0203 12.5001 9.84387 12.4781L9.84053 12.4777C9.71408 12.4619 9.13804 12.39 8.86368 11.8245C8.58872 11.2576 8.89065 10.7575 8.95597 10.6493L8.95841 10.6452C9.05062 10.4922 9.18477 10.3214 9.29511 10.1808L9.31885 10.1505C9.61348 9.77472 9.99545 9.29051 10.3759 8.8995C10.5657 8.70439 10.783 8.50315 11.0139 8.34431C11.2191 8.2031 11.5693 7.99984 12 7.99984C12.4307 7.99984 12.7809 8.2031 12.9861 8.34431C13.217 8.50315 13.4343 8.70439 13.6241 8.8995C14.0046 9.29051 14.3865 9.77472 14.6812 10.1505L14.7049 10.1808C14.8152 10.3213 14.9494 10.4922 15.0416 10.6453L15.044 10.6493C15.1093 10.7575 15.4113 11.2576 15.1363 11.8245C14.862 12.39 14.2859 12.4619 14.1595 12.4777L14.1561 12.4781C13.9797 12.5001 13.764 12.5 13.5884 12.4999L13.0059 12.4998L13.0059 18.9999Z" fill="#141B34"/>
</svg>
