<svg width="24" height="24" viewBox="0 0 24 24" fill="none" xmlns="http://www.w3.org/2000/svg">
<path d="M4.85374 15.0956C8.03693 13.2298 12.0689 13.2298 15.2521 15.0956C15.3529 15.1547 15.4785 15.2244 15.6213 15.3037C16.2539 15.6549 17.2258 16.1944 17.8912 16.8355C18.3067 17.2359 18.7163 17.7766 18.791 18.45C18.8712 19.1715 18.5488 19.8373 17.9325 20.4153C16.8824 21.4001 15.6145 22.1963 13.9722 22.1963H6.1337C4.49136 22.1963 3.22344 21.4001 2.17335 20.4153C1.55703 19.8373 1.23468 19.1715 1.31481 18.45C1.38958 17.7766 1.79914 17.2359 2.21462 16.8355C2.88001 16.1944 3.85192 15.6549 4.48456 15.3037C4.62738 15.2244 4.75293 15.1547 4.85374 15.0956Z" fill="#141B34"/>
<path d="M5.30298 7.44629C5.30298 4.82294 7.42963 2.69629 10.053 2.69629C12.6763 2.69629 14.803 4.82294 14.803 7.44629C14.803 10.0696 12.6763 12.1963 10.053 12.1963C7.42963 12.1963 5.30298 10.0696 5.30298 7.44629Z" fill="#141B34"/>
<path d="M17.5039 3.96504C17.5039 2.81874 18.3757 1.80371 19.553 1.80371C20.4031 1.80371 21.1033 2.34298 21.4169 3.06569C21.5582 3.39139 21.4087 3.76999 21.083 3.91131C20.7573 4.05262 20.3787 3.90315 20.2374 3.57745C20.1024 3.26626 19.8302 3.08943 19.553 3.08943C19.177 3.08943 18.7896 3.43408 18.7896 3.96504V4.41745C18.8755 4.41701 18.9647 4.41701 19.057 4.41702L19.0843 4.41702L20.049 4.41702H20.049C20.3905 4.417 20.6893 4.41699 20.9358 4.43964C21.1987 4.46378 21.4626 4.51759 21.7136 4.66248C22.0465 4.85458 22.3113 5.14428 22.4816 5.48817C22.6072 5.7419 22.654 6.00735 22.6754 6.2792C22.6959 6.53886 22.6959 6.8557 22.6959 7.22868V7.22869V7.27776V7.27776C22.6959 7.65074 22.6959 7.96759 22.6754 8.22724C22.654 8.4991 22.6072 8.76454 22.4816 9.01828C22.3113 9.36217 22.0465 9.65186 21.7136 9.84397C21.4626 9.98886 21.1987 10.0427 20.9358 10.0668C20.6893 10.0895 20.3906 10.0894 20.0491 10.0894H20.049H19.057H19.0569C18.7155 10.0894 18.4167 10.0895 18.1702 10.0668C17.9073 10.0427 17.6435 9.98886 17.3924 9.84397C17.0596 9.65186 16.7947 9.36217 16.6245 9.01828C16.4989 8.76454 16.452 8.4991 16.4306 8.22724C16.4101 7.96759 16.4101 7.65075 16.4102 7.27778V7.27776V7.22869V7.22867C16.4101 6.85569 16.4101 6.53885 16.4306 6.2792C16.452 6.00735 16.4989 5.7419 16.6245 5.48817C16.7947 5.14428 17.0596 4.85458 17.3924 4.66248C17.4293 4.64118 17.4665 4.62185 17.5039 4.60429V3.96504Z" fill="#141B34"/>
</svg>
