<svg width="24" height="24" viewBox="0 0 24 24" fill="none" xmlns="http://www.w3.org/2000/svg">
<path fill-rule="evenodd" clip-rule="evenodd" d="M8.71014 2.99985C10.9034 3.0014 13.0966 3.0014 15.2899 2.99985C16.9816 2.99865 18.5711 3.07633 19.8558 4.28218C20.5937 4.97473 21.083 5.97233 21.8189 7.47279C22.1496 8.147 22.5143 8.81416 22.7261 9.53798C22.8036 9.80273 22.8649 10.0733 22.9096 10.3474C23.0002 10.902 23.0001 11.4681 23 12.3661L23 14.9999C23 15.5522 22.5523 15.9999 22 15.9999C21.4477 15.9999 21 15.5522 21 14.9999V12.4522C21 11.4405 20.997 11.0449 20.9358 10.6697C20.904 10.4753 20.8608 10.2848 20.8066 10.0997C20.7031 9.74605 20.5433 9.413 20.1168 8.54422C19.252 6.78249 18.924 6.15052 18.4871 5.74048C17.5538 4.86448 16.287 4.99994 15.0845 4.99994H8.91549C7.71303 4.99994 6.44623 4.86448 5.5129 5.74048C5.07602 6.15052 4.74803 6.78249 3.88318 8.54422C3.45668 9.41301 3.29688 9.74604 3.1934 10.0997C3.13923 10.2848 3.096 10.4753 3.06427 10.6697C3.00302 11.0449 3.00001 11.4405 3.00001 12.4522V14.9999C3.00001 15.5522 2.5523 15.9999 2.00001 15.9999C1.44773 15.9999 1.00001 15.5522 1.00001 14.9999V12.4522C1.00001 11.5039 0.997001 10.9196 1.0904 10.3474C1.13516 10.0733 1.19642 9.80273 1.27389 9.53798C1.48534 8.81539 1.85083 8.14618 2.18111 7.47278C2.91703 5.97232 3.40631 4.97473 4.14419 4.28218C5.42896 3.07633 7.01838 2.99865 8.71014 2.99985Z" fill="#141B34"/>
<path fill-rule="evenodd" clip-rule="evenodd" d="M6.94972 7.99976H17.0494C17.9416 7.99974 18.6845 7.99972 19.2887 8.05996C20.6802 8.19869 21.8254 8.93196 22.4831 10.185C22.7731 10.7376 22.8907 11.3379 22.946 12.0087C23.0045 12.7192 23.0024 13.4344 23.0003 14.1476C23 14.2794 22.9996 14.4111 22.9996 14.5427C22.9996 15.5343 22.9996 16.3398 22.946 16.9908C22.8907 17.6617 22.7731 18.2619 22.4831 18.8145C22.1426 19.4632 21.6467 20.0138 21.0357 20.4018C20.5033 20.7399 19.9219 20.8764 19.2887 20.9396C18.2968 21.0385 17.2388 21.0706 16.2422 20.9812C15.1761 20.8856 14.1778 20.4254 13.3845 19.6842C13.0901 19.4093 12.8179 19.1075 12.5494 18.8035C12.3317 18.5572 12.2229 18.4341 12.0811 18.4392C11.9393 18.4444 11.8385 18.5769 11.6368 18.8419C11.4366 19.1049 11.2284 19.3617 10.9935 19.5927C10.269 20.3053 9.35832 20.7793 8.37009 20.9397C7.20428 21.1289 5.87632 21.0558 4.71047 20.9396C4.0773 20.8764 3.49582 20.7399 2.96347 20.4018C2.3525 20.0138 1.85651 19.4632 1.51606 18.8145C1.22604 18.2619 1.10848 17.6617 1.0532 16.9908C0.999561 16.3398 0.999569 15.5343 0.99958 14.5427C0.99958 14.4111 0.999197 14.2794 0.998814 14.1476C0.996741 13.4344 0.994663 12.7192 1.0532 12.0087C1.10848 11.3379 1.22604 10.7376 1.51606 10.185C2.17374 8.93196 3.31895 8.19869 4.71047 8.05996C5.31466 7.99972 6.05755 7.99974 6.94972 7.99976ZM15.9997 11.9999C15.4474 11.9999 14.9997 12.4477 14.9997 12.9999C14.9997 13.5522 15.4474 13.9999 15.9997 13.9999H17.9997C18.5519 13.9999 18.9997 13.5522 18.9997 12.9999C18.9997 12.4477 18.5519 11.9999 17.9997 11.9999H15.9997Z" fill="#141B34"/>
</svg>
