<svg width="24" height="24" viewBox="0 0 24 24" fill="none" xmlns="http://www.w3.org/2000/svg">
<path d="M7.39714 2.81637C7.43656 2.65397 7.45627 2.57277 7.43795 2.5181C7.41308 2.44384 7.34152 2.38812 7.26343 2.3822C7.20594 2.37784 7.13447 2.41557 6.99154 2.49102C6.2304 2.89281 5.52332 3.38329 4.88405 3.94868C4.82017 4.00517 4.78824 4.03341 4.77058 4.0726C4.75293 4.11178 4.75293 4.15548 4.75293 4.24288V5.99176C4.8297 8.31999 5.6256 10.6297 6.72542 12.5128C7.63448 14.0694 8.71171 15.2687 9.68915 15.95C9.84039 16.0554 9.916 16.1081 10.0043 16.0859C10.0927 16.0637 10.1351 15.9803 10.2198 15.8134C10.7501 14.7697 11.0758 13.5216 10.9894 12.0766C10.9845 11.9934 10.982 11.9519 10.9627 11.9144C10.9435 11.877 10.9093 11.8492 10.8408 11.7936C9.58502 10.7749 8.72453 9.64357 8.15612 8.51605C7.01534 6.25318 7.06502 4.03519 7.39714 2.81637Z" fill="#141B34"/>
<path d="M3.25293 6.00393C3.25293 5.92704 3.15516 5.89601 3.11188 5.95955C1.93871 7.68189 1.25293 9.76281 1.25293 12.0039C1.25293 15.1054 2.56638 17.9002 4.6674 19.8622C4.75255 19.9418 4.79512 19.9815 4.85142 19.9925C4.90771 20.0035 4.96348 19.9821 5.07502 19.9394L6.71283 19.3119C7.30612 19.0393 8.0977 18.51 8.83952 17.7401C8.9853 17.5888 9.05818 17.5132 9.04976 17.422C9.04133 17.3308 8.9492 17.265 8.76493 17.1336C7.56361 16.2765 6.38076 14.897 5.43015 13.2693C4.22777 11.2106 3.33721 8.65512 3.25331 6.02786C3.25306 6.01989 3.25293 6.01191 3.25293 6.00393Z" fill="#141B34"/>
<path d="M7.00287 20.8071C6.67522 20.9326 6.5114 20.9954 6.5034 21.1237C6.4954 21.252 6.64598 21.3324 6.94712 21.4932C7.8356 21.9676 8.79851 22.3208 9.8138 22.5308C9.89673 22.548 9.9382 22.5566 9.97991 22.5474C10.0216 22.5382 10.0565 22.5124 10.1263 22.4607L11.5533 21.4036C13.2793 20.096 14.5748 18.1913 15.3667 16.2516C16.0244 14.6405 16.3073 13.0743 16.2443 11.8725C16.2354 11.7023 16.231 11.6172 16.1681 11.5616C16.1053 11.506 16.0177 11.5122 15.8425 11.5245C14.9228 11.5892 13.9127 11.7428 12.8135 11.9961C12.6618 12.031 12.586 12.0485 12.5424 12.1041C12.4988 12.1598 12.5 12.241 12.5024 12.4034C12.5334 14.4958 11.8399 16.2404 10.8998 17.5895C9.80961 19.1538 8.37696 20.2045 7.3126 20.687C7.29899 20.6932 7.2852 20.6989 7.27125 20.7043L7.00287 20.8071Z" fill="#141B34"/>
<path d="M12.4023 22.6415C12.3565 22.6754 12.3819 22.7475 12.4389 22.7452C17.4819 22.5441 21.6312 18.8688 22.559 14.0471C22.58 13.938 22.5905 13.8834 22.5719 13.8318C22.5533 13.7801 22.5095 13.7439 22.4218 13.6716L21.5256 12.9322C21.5166 12.9248 21.5078 12.9172 21.4992 12.9094C20.7557 12.2354 19.6652 11.7511 18.1935 11.5686C17.9825 11.5425 17.877 11.5294 17.8091 11.591C17.7411 11.6527 17.7441 11.7664 17.7501 11.9937C17.7886 13.4475 17.4326 15.1597 16.7554 16.8185C15.8848 18.9511 14.4425 21.0979 12.4556 22.6019L12.4494 22.6066L12.4023 22.6415Z" fill="#141B34"/>
<path d="M22.4932 11.7859C22.5967 11.8713 22.7518 11.7976 22.7476 11.6635C22.7169 10.6735 22.5522 9.71729 22.2712 8.81225C22.2464 8.73233 22.234 8.69236 22.2062 8.66053C22.1784 8.62869 22.1396 8.61053 22.0618 8.57421L20.1898 7.69978C18.2508 6.82472 16.0408 6.60778 14.058 6.84127C12.42 7.03416 11.0102 7.52484 10.0656 8.13581C9.92668 8.22564 9.85723 8.27056 9.84017 8.35229C9.82311 8.43403 9.86972 8.50436 9.96293 8.64502C10.3947 9.29662 10.962 9.94637 11.7016 10.5597C11.7751 10.6207 11.8118 10.6511 11.8583 10.6618C11.9047 10.6724 11.9528 10.6605 12.0489 10.6367C13.8197 10.198 15.4204 9.98787 16.8393 9.98871C19.2398 9.99012 21.174 10.5977 22.4932 11.7859Z" fill="#141B34"/>
<path d="M20.9255 6.38786C21.0295 6.43643 21.1316 6.32285 21.0698 6.22612C19.1607 3.23637 15.8133 1.25391 12.0029 1.25391C11.1279 1.25391 10.2773 1.35845 9.46294 1.55573C9.35239 1.58251 9.29711 1.5959 9.25739 1.6356C9.21767 1.67531 9.20391 1.732 9.17639 1.84537L8.85223 3.18084C8.85043 3.18827 8.84851 3.19568 8.84647 3.20306C8.66296 3.86943 8.5753 5.08581 8.96288 6.46942C9.02465 6.68996 9.05554 6.80023 9.14629 6.83718C9.23703 6.87412 9.34416 6.81216 9.55842 6.68823C10.7274 6.01208 12.2548 5.54325 13.8826 5.35156C16.0831 5.09243 18.5779 5.32533 20.8118 6.33479L20.8203 6.33866L20.9255 6.38786Z" fill="#141B34"/>
</svg>
