<svg width="24" height="24" viewBox="0 0 24 24" fill="none" xmlns="http://www.w3.org/2000/svg">
<path fill-rule="evenodd" clip-rule="evenodd" d="M18.9396 5.67125C18.9205 5.43446 18.8882 5.2187 18.8337 5.01568C18.4722 3.66983 17.4185 2.6186 16.0695 2.25798C15.5695 2.12431 14.9923 2.12463 14.215 2.12505L4.3078 2.12509C2.6886 2.12509 1.37598 3.43465 1.37598 5.05008V12.9214V12.9223C1.37597 13.2008 1.37597 13.4709 1.37655 13.7327C1.37722 14.0324 1.37755 14.1823 1.44499 14.2648C1.46026 14.2835 1.4693 14.2925 1.48803 14.3077C1.57072 14.375 1.75516 14.375 2.12402 14.375H3.02402C3.30687 14.375 3.44829 14.375 3.53616 14.2871C3.62402 14.1993 3.62402 14.0578 3.62402 13.775V12.875C3.62402 11.4943 4.74331 10.375 6.12402 10.375C7.50474 10.375 8.62402 11.4943 8.62402 12.875V13.775C8.62402 14.0578 8.62402 14.1993 8.71189 14.2871C8.79976 14.375 8.94118 14.375 9.22402 14.375H10.124C11.5047 14.375 12.624 15.4943 12.624 16.875C12.624 18.2557 11.5047 19.375 10.124 19.375H9.22402C8.94118 19.375 8.79976 19.375 8.71189 19.4629C8.62402 19.5507 8.62402 19.6922 8.62402 19.975V20.875C8.62402 21.2454 8.62402 21.4306 8.6918 21.5135C8.70667 21.5317 8.71542 21.5405 8.73355 21.5554C8.81627 21.6233 8.96673 21.6237 9.26765 21.6244C9.53622 21.625 9.81355 21.625 10.0998 21.625H10.1H16.104C17.4273 21.625 18.5186 21.6251 19.3823 21.5092C20.289 21.3876 21.0898 21.1224 21.731 20.4827C22.3722 19.843 22.638 19.0441 22.7599 18.1395C22.876 17.2778 22.876 16.1891 22.876 14.8688V12.7813C22.876 11.461 22.876 10.3723 22.7599 9.51062C22.638 8.60599 22.3722 7.80706 21.731 7.16735C21.0898 6.52765 20.289 6.26248 19.3823 6.14086C19.2294 6.12034 19.1529 6.11009 19.1008 6.07954C19.0483 6.04876 19.0141 6.0127 18.9862 5.95867C18.9584 5.90505 18.9521 5.82712 18.9396 5.67125ZM14.0801 4.07507C15.0518 4.07507 15.346 4.08345 15.5632 4.14152C16.2377 4.32183 16.7646 4.84744 16.9453 5.52037C16.9836 5.66287 17.0027 5.73412 16.9746 5.81928C16.956 5.8758 16.9039 5.94366 16.8541 5.97628C16.7791 6.02542 16.6834 6.02533 16.4919 6.02517L16.1036 6.02506L4.30735 6.02506C3.76762 6.02506 3.33008 5.58854 3.33008 5.05007C3.33008 4.51159 3.76762 4.07507 4.30735 4.07507H14.0801ZM17.626 11.8751C18.7305 11.8751 19.626 12.7706 19.626 13.8751C19.626 14.9797 18.7305 15.8751 17.626 15.8751C16.5214 15.8751 15.626 14.9797 15.626 13.8751C15.626 12.7706 16.5214 11.8751 17.626 11.8751Z" fill="#141B34"/>
<path fill-rule="evenodd" clip-rule="evenodd" d="M6.12402 11.875C6.67631 11.875 7.12402 12.3227 7.12402 12.875L7.12402 15.875H10.124C10.6763 15.875 11.124 16.3227 11.124 16.875C11.124 17.4273 10.6763 17.875 10.124 17.875H7.12402V20.875C7.12402 21.4273 6.67631 21.875 6.12402 21.875C5.57174 21.875 5.12402 21.4273 5.12402 20.875V17.875H2.12402C1.57174 17.875 1.12402 17.4273 1.12402 16.875C1.12402 16.3227 1.57174 15.875 2.12402 15.875H5.12402L5.12402 12.875C5.12402 12.3227 5.57174 11.875 6.12402 11.875Z" fill="#141B34"/>
</svg>
