<svg width="24" height="24" viewBox="0 0 24 24" fill="none" xmlns="http://www.w3.org/2000/svg">
<path fill-rule="evenodd" clip-rule="evenodd" d="M2.375 5.90017C2.375 4.68003 3.14362 3.51304 4.41249 3.13648C6.36472 2.55713 9.91912 1.70657 14.7933 1.29265C15.6175 1.22044 17.0516 1.09481 18.012 2.2653C18.7163 3.12369 18.8804 4.30091 18.8749 5.28607C18.8719 5.80358 18.8215 6.32074 18.7467 6.79906C18.7022 7.08338 18.6799 7.22554 18.7413 7.32136C18.8027 7.41718 18.9455 7.45758 19.2311 7.53838C19.876 7.72083 20.4347 8.00047 20.8679 8.46768C21.4237 9.06715 21.6584 9.81517 21.7684 10.6984C21.875 11.5548 21.875 12.6451 21.875 14.004V16.1284C21.875 17.5221 21.875 18.6509 21.744 19.5401C21.6068 20.4711 21.3128 21.2459 20.6472 21.8541C19.989 22.4556 19.2223 22.6842 18.3193 22.7376C17.467 22.7879 16.3513 22.6789 15.0629 22.553C13.0805 22.3593 10.9162 22.055 8.76545 21.5895C8.3692 21.5038 8.17107 21.4609 8.11442 21.3054C8.05777 21.1498 8.18113 20.9906 8.42785 20.672C8.60093 20.4486 8.78793 20.2146 8.98589 19.9773C9.51002 19.349 10.0802 18.7348 10.6447 18.2398C11.2354 17.7218 11.6846 17.4548 11.9596 17.3574C13.2611 16.8964 13.9425 15.4677 13.4816 14.1662C13.0206 12.8647 11.5919 12.1833 10.2904 12.6442C9.15405 13.0467 8.14747 13.7794 7.34795 14.4806C6.52274 15.2043 5.76943 16.0276 5.14647 16.7743L5.14646 16.7743C5.09201 16.8396 5.06478 16.8722 5.03862 16.8924C4.96164 16.9517 4.88003 16.9691 4.78555 16.9464C4.75345 16.9387 4.71092 16.9179 4.62587 16.8763L4.62582 16.8763C4.41354 16.7725 4.208 16.6943 4.01326 16.6368C3.65165 16.5217 3.28843 16.5023 3.1396 16.5009L3.125 16.5008C2.75388 16.5008 2.56832 16.5008 2.48408 16.4287C2.471 16.4174 2.46413 16.4106 2.45283 16.3976C2.38006 16.3139 2.37896 16.1646 2.37676 15.8658C2.37499 15.6264 2.375 15.3747 2.375 15.1102V15.1099V5.90017ZM15.9665 3.15039C15.683 3.10544 15.3467 3.12743 14.8662 3.16824C10.1434 3.5693 6.82086 4.38273 4.98308 4.92811C4.90099 4.95248 4.82174 4.99043 4.7483 5.04037C4.5771 5.15677 4.49149 5.21498 4.52899 5.40893C4.56649 5.60289 4.71175 5.63464 5.00227 5.69813C7.35233 6.21175 10.9667 6.7633 15.1809 7.05532C15.5299 7.0795 15.8647 7.10269 16.1841 7.12643C16.4358 7.14513 16.5617 7.15448 16.6531 7.08302C16.7444 7.01155 16.7647 6.89281 16.8053 6.65531C16.8799 6.21856 16.9314 5.74182 16.934 5.27582C16.9389 4.41342 16.7748 3.77541 16.4907 3.42924C16.3563 3.26536 16.2034 3.18794 15.9665 3.15039ZM16.625 13.001C17.7296 13.001 18.625 13.8964 18.625 15.001C18.625 16.1055 17.7296 17.001 16.625 17.001C15.5204 17.001 14.625 16.1055 14.625 15.001C14.625 13.8964 15.5204 13.001 16.625 13.001Z" fill="#141B34"/>
<path d="M12.0676 14.6664C12.252 15.187 11.9794 15.7585 11.4588 15.9429C10.9252 16.1319 10.3087 16.5388 9.65567 17.1115C9.01297 17.6751 8.38783 18.3521 7.83406 19.0159C7.28222 19.6774 6.81346 20.3111 6.48241 20.7801C6.31724 21.0141 6.18724 21.2058 6.09927 21.3379L5.96907 21.5365C5.77578 21.8406 5.43372 22.0174 5.07386 21.999C4.71393 21.9805 4.39175 21.7698 4.23057 21.4475C3.78989 20.5661 3.39456 20.2152 3.1953 20.0823C3.11098 20.0261 3.05401 20.0036 3.03138 19.9959C2.52299 19.9487 2.125 19.521 2.125 19.0003C2.125 18.448 2.57272 18.0003 3.125 18.0003C3.2074 18.0011 3.41207 18.0161 3.5716 18.07C3.77947 18.1294 4.0303 18.2353 4.3047 18.4182C4.57898 18.6011 4.86663 18.8538 5.15539 19.1997C5.47057 18.7689 5.859 18.2613 6.29829 17.7347C6.89159 17.0235 7.58997 16.2629 8.33697 15.6078C9.07361 14.9618 9.91303 14.3686 10.7912 14.0576C11.3118 13.8733 11.8832 14.1458 12.0676 14.6664Z" fill="#141B34"/>
</svg>
