<svg width="24" height="24" viewBox="0 0 24 24" fill="none" xmlns="http://www.w3.org/2000/svg">
<path d="M14.8301 18.75H9.17001C8.41194 18.75 7.79164 18.75 7.27966 18.7923C6.74434 18.8366 6.27343 18.9303 5.82229 19.1444C5.37115 19.3585 5.02204 19.6541 4.68356 20.0245C4.53947 20.1822 4.04806 21.013 3.62037 21.726C3.33246 22.2059 3.18851 22.4458 3.2749 22.5979C3.36129 22.7499 3.63757 22.7499 4.19012 22.7499H19.8099C20.3624 22.7499 20.6387 22.7499 20.7251 22.5979C20.8115 22.4458 20.6675 22.2059 20.3797 21.7259C19.952 21.013 19.4607 20.1822 19.3166 20.0245C18.9781 19.6541 18.629 19.3585 18.1779 19.1444C17.7267 18.9303 17.2558 18.8366 16.7205 18.7923C16.2085 18.75 15.5882 18.75 14.8301 18.75Z" fill="#141B34"/>
<path d="M12.0008 13C12.553 13 13.0008 13.4477 13.0008 14V16.65C13.0008 16.9328 13.0008 17.0743 13.0886 17.1621C13.1765 17.25 13.3179 17.25 13.6008 17.25H16.8164C17.1383 17.25 17.2992 17.25 17.3889 17.1466C17.4786 17.0431 17.4559 16.8838 17.4103 16.5651L16.0572 7.09343C16.0338 6.92969 16.0221 6.84782 15.9658 6.79891C15.9094 6.75 15.8267 6.75 15.6613 6.75H8.33986C8.17446 6.75 8.09176 6.75 8.03536 6.79891C7.97897 6.84782 7.96727 6.92969 7.94388 7.09343L6.59078 16.5651C6.54526 16.8838 6.5225 17.0431 6.61221 17.1466C6.70192 17.25 6.86287 17.25 7.18475 17.25H10.4008C10.6836 17.25 10.825 17.25 10.9129 17.1621C11.0008 17.0743 11.0008 16.9328 11.0008 16.65L11.0008 14C11.0008 13.4477 11.4485 13 12.0008 13Z" fill="#141B34"/>
<path d="M8.68677 5.25C8.45392 5.25 8.3375 5.25 8.27785 5.16385C8.2182 5.07769 8.2543 4.98168 8.3265 4.78965C8.33537 4.76607 8.34474 4.74289 8.35471 4.7199C8.46171 4.47319 8.63214 4.26093 8.97299 3.83641L10.0242 2.52716C10.3303 2.21336 10.6674 1.86776 10.9261 1.66545C11.2102 1.4433 11.5578 1.25 12.0006 1.25C12.4433 1.25 12.7909 1.4433 13.075 1.66545C13.3337 1.86776 13.6708 2.21336 13.9769 2.52716L15.0282 3.83645C15.369 4.26094 15.5394 4.4732 15.6464 4.7199C15.6564 4.74289 15.6657 4.76607 15.6746 4.78965C15.7468 4.98168 15.7829 5.07769 15.7233 5.16385C15.6636 5.25 15.5472 5.25 15.3144 5.25H8.68677Z" fill="#141B34"/>
</svg>
