<svg width="24" height="24" viewBox="0 0 24 24" fill="none" xmlns="http://www.w3.org/2000/svg">
<path fill-rule="evenodd" clip-rule="evenodd" d="M12.0572 1.75H12.0572H11.9428H11.9428C9.7521 1.74999 8.03143 1.74998 6.68802 1.93059C5.31137 2.11568 4.21911 2.50271 3.36091 3.36091C2.50272 4.21911 2.11568 5.31137 1.93059 6.68802C1.74998 8.03144 1.74999 9.75212 1.75 11.9428V12.0572C1.74999 14.2479 1.74998 15.9686 1.93059 17.312C2.11568 18.6886 2.50272 19.7809 3.36091 20.6391C4.21911 21.4973 5.31137 21.8843 6.68802 22.0694C8.03144 22.25 9.7521 22.25 11.9428 22.25H11.9428H12.0572H12.0572C14.2479 22.25 15.9686 22.25 17.312 22.0694C18.6886 21.8843 19.7809 21.4973 20.6391 20.6391C21.4973 19.7809 21.8843 18.6886 22.0694 17.312C22.25 15.9686 22.25 14.2479 22.25 12.0572V12.0572V11.9428V11.9428C22.25 9.7521 22.25 8.03144 22.0694 6.68802C21.8843 5.31137 21.4973 4.21911 20.6391 3.36091C19.7809 2.50271 18.6886 2.11568 17.312 1.93059C15.9686 1.74998 14.2479 1.74999 12.0572 1.75ZM8.7601 10.7774C8.98517 10.1061 9.16522 8.62949 8.0849 8.09253C6.73451 7.42132 4.70892 9.09934 5.38411 13.1266C6.05931 17.1538 8.75984 18.8315 11.123 12.7907C11.9866 17.4293 14.6813 15.3936 15.6918 13.358C16.7023 11.3223 17.7128 10.3045 17.7128 10.3045C19.7338 8.26881 18.4643 6.9117 16.7702 7.59025C15.4149 8.13309 14.3984 9.40956 14.0595 9.97994C14.0595 4.90172 10.1442 7.9486 8.7601 10.7774Z" fill="#141B34"/>
</svg>
