<svg width="24" height="24" viewBox="0 0 24 24" fill="none" xmlns="http://www.w3.org/2000/svg">
<path d="M10.057 9.68699C10.2779 9.76887 10.5239 9.65744 10.6063 9.43811L13.2613 3.05752C13.5077 2.46523 14.1883 2.18568 14.7799 2.43375C15.3624 2.67796 15.6422 3.34344 15.4092 3.93048L12.9079 10.2344C12.8254 10.4538 12.9377 10.6979 13.1586 10.7798C13.3795 10.8617 13.6254 10.7503 13.7078 10.5309L15.4327 6.10156C15.6728 5.48513 16.3728 5.18663 16.9838 5.44014C17.5694 5.6831 17.8582 6.34553 17.6376 6.93991L16.0094 11.3273C15.927 11.5466 16.0392 11.7908 16.2601 11.8727C16.481 11.9545 16.7269 11.8431 16.8094 11.6238L17.7346 9.12358C17.9851 8.44649 18.7572 8.12379 19.415 8.42117C20.0041 8.68742 20.2913 9.36014 20.0764 9.96973L17.941 16.0248C17.5896 16.9661 17.3132 17.7066 17.0504 18.2922C16.7825 18.889 16.509 19.3716 16.1438 19.7821C15.1058 20.9488 13.6148 21.6276 12.043 21.6559C11.4912 21.6659 10.9414 21.5616 10.3042 21.3795C9.67807 21.2005 8.92192 20.9321 7.95845 20.5902C7.00928 20.2535 6.31189 20.0061 5.80116 19.6897C5.02271 19.2074 4.37761 18.5421 3.92535 17.7524C3.62832 17.2338 3.44655 16.6459 3.15512 15.7034L1.6846 10.6072C1.65257 10.5044 1.63358 10.4 1.62695 10.2959C1.63821 10.0631 1.6848 9.83468 1.76353 9.61804C1.87934 9.3834 2.06456 9.17847 2.30844 9.0342C3.04385 8.59916 3.99626 8.88567 4.35193 9.6271L5.41617 11.8456C5.48988 11.9993 5.64899 12.0942 5.82023 12.0868C5.99147 12.0794 6.14164 11.971 6.20159 11.8116L9.37529 3.69181C9.61412 3.08078 10.3003 2.77588 10.9138 3.00816C11.5375 3.24426 11.8479 3.94448 11.6041 4.56514L9.80638 9.1416C9.72392 9.36093 9.83614 9.60511 10.057 9.68699Z" fill="#141B34"/>
<path fill-rule="evenodd" clip-rule="evenodd" d="M20.8882 12.958C21.412 12.7831 21.9785 13.0658 22.1535 13.5897C22.86 15.7048 21.8164 18.0726 19.72 18.8449C19.2017 19.0358 18.6268 18.7704 18.4359 18.2522C18.245 17.7339 18.5104 17.1591 19.0286 16.9682C20.047 16.593 20.6426 15.3792 20.2565 14.2234C20.0815 13.6995 20.3643 13.133 20.8882 12.958Z" fill="#141B34"/>
</svg>
