<svg width="24" height="24" viewBox="0 0 24 24" fill="none" xmlns="http://www.w3.org/2000/svg">
<path d="M5.95526 13.25C5.52244 13.25 5.12561 13.2499 4.8028 13.2933C4.44732 13.3411 4.07159 13.4535 3.76257 13.7626C3.45355 14.0716 3.3411 14.4473 3.29331 14.8028C3.24991 15.1256 3.24995 15.5224 3.25 15.9553L3.25 18.5635C3.24996 18.8917 3.24993 19.1992 3.27988 19.4561C3.31321 19.7421 3.39038 20.0427 3.59756 20.3203C3.80474 20.5979 4.07102 20.7574 4.33569 20.8707C4.57351 20.9725 4.8683 21.06 5.18291 21.1533L10.1818 22.6366C10.9063 22.8516 11.6827 22.7581 12.3377 22.3802L19.8533 18.0438C20.7865 17.5054 21.0266 16.2638 20.4051 15.4032C19.7123 14.4437 18.5017 14.0209 17.3712 14.3724L17.3697 14.3729L15.2442 15.0259C14.9956 15.1023 14.8712 15.1405 14.8322 15.2122C14.7933 15.2839 14.8398 15.4474 14.9328 15.7743C15.0037 16.0236 15.0121 16.2627 15 16.3973C15 17.3786 14.331 18.171 13.4667 18.4099L10.9258 19.1124C10.0041 19.3673 9.01687 19.2796 8.15388 18.8621L6.5336 18.0781C6.22288 17.9278 6.09286 17.554 6.2432 17.2433C6.39354 16.9326 6.7673 16.8026 7.07802 16.9529L8.69831 17.7369C9.28692 18.0217 9.96218 18.082 10.5927 17.9076L13.1336 17.2051C13.4837 17.1083 13.75 16.7884 13.75 16.3973C13.75 14.9842 12.5733 14.6252 11.1741 14.6252L10.1315 14.6251C9.94974 14.6251 9.77138 14.5841 9.61081 14.5064L7.56883 13.5184C7.20322 13.3415 6.80136 13.25 6.39483 13.25L5.95526 13.25Z" fill="#141B34"/>
<path d="M11.4524 1.48687C11.5942 1.33574 11.7922 1.25 11.9994 1.25C12.2066 1.25 12.4046 1.33574 12.5464 1.48687C12.6731 1.62198 12.8126 1.79502 12.9195 1.93234C13.1327 2.20638 13.4153 2.60068 13.6981 3.08807C14.2579 4.05288 14.8494 5.43592 14.8494 7C14.8494 8.56408 14.2579 9.94712 13.6981 10.9119C13.4153 11.3993 13.1327 11.7936 12.9195 12.0677C12.8168 12.1996 12.6269 12.4198 12.5547 12.5035L12.5464 12.5131C12.4046 12.6643 12.2066 12.75 11.9994 12.75C11.7922 12.75 11.5939 12.6639 11.4521 12.5128L11.4442 12.5036C11.3722 12.4202 11.1822 12.1998 11.0794 12.0677C10.8661 11.7936 10.5835 11.3993 10.3007 10.9119C9.74089 9.94712 9.14941 8.56408 9.14941 7C9.14941 5.43592 9.74089 4.05288 10.3007 3.08807C10.5835 2.60068 10.8661 2.20638 11.0794 1.93234C11.1862 1.79502 11.2867 1.66348 11.4524 1.48687Z" fill="#141B34"/>
<path d="M4.25022 5.07558C4.24457 4.81785 4.34709 4.56905 4.53404 4.38684C4.72099 4.20464 4.97614 4.10484 5.24034 4.11059C5.39733 4.12271 5.88582 4.15952 6.15126 4.19889C6.67935 4.27722 7.40195 4.42698 8.17168 4.71534C8.67114 4.90245 8.92054 5.4491 8.72872 5.93632C8.53691 6.42353 7.97652 6.66681 7.47706 6.4797C7.07287 6.32828 6.6802 6.22388 6.33569 6.15218C6.36096 6.27444 6.39045 6.40326 6.42486 6.53693C6.65392 7.42676 7.08012 8.45087 7.84814 9.21535C8.61442 9.9781 9.6381 10.3995 10.5254 10.6258C10.9619 10.7371 11.3464 10.7964 11.6192 10.8276C11.7282 10.8482 12.0332 10.8771 12.3808 10.8276C12.6536 10.7964 13.0381 10.7371 13.4746 10.6258C14.3619 10.3995 15.3856 9.9781 16.1519 9.21535C16.9199 8.45087 17.3461 7.42676 17.5751 6.53693C17.6096 6.40326 17.639 6.27444 17.6643 6.15218C17.3198 6.22388 16.9271 6.32828 16.5229 6.4797C16.0235 6.66681 15.4631 6.42353 15.2713 5.93632C15.0795 5.4491 15.3289 4.90245 15.8283 4.71534C16.5981 4.42698 17.3207 4.27722 17.8487 4.19889C18.1142 4.15952 18.4238 4.11059 18.7597 4.11059C19.0239 4.10484 19.279 4.20464 19.466 4.38684C19.6529 4.56905 19.7554 4.81785 19.7498 5.07558C19.7469 5.20734 19.7241 5.48217 19.7045 5.65226C19.6654 5.99146 19.5921 6.46207 19.4543 6.99723C19.1828 8.05212 18.6402 9.43874 17.5356 10.5382C16.4293 11.6394 15.0311 12.1823 13.9647 12.4543C13.4243 12.5921 12.949 12.6655 12.6062 12.7047C12 12.774 12 12.774 11.3938 12.7047C11.051 12.6655 10.5757 12.5921 10.0353 12.4543C8.96887 12.1823 7.57067 11.6394 6.46436 10.5382C5.35979 9.43874 4.81724 8.05212 4.5457 6.99723C4.40794 6.46207 4.33461 5.99146 4.29548 5.65226C4.27586 5.48217 4.25656 5.17414 4.25022 5.07558Z" fill="#141B34"/>
</svg>
