<svg width="24" height="24" viewBox="0 0 24 24" fill="none" xmlns="http://www.w3.org/2000/svg">
<path d="M2.00007 18.25C1.63344 18.25 1.32055 18.5151 1.26027 18.8767C1.2 19.2383 1.41001 19.5906 1.75683 19.7095C3.26086 20.2251 4.85606 20.7038 6.46411 21.1217L6.29289 21.2929C5.90237 21.6834 5.90237 22.3166 6.29289 22.7071C6.68342 23.0976 7.31658 23.0976 7.70711 22.7071L8.70711 21.7071C8.71914 21.6951 8.7308 21.6828 8.7421 21.6703C11.7529 22.3374 14.6787 22.75 17.0001 22.75C18.6925 22.75 20.097 22.1112 21.0759 21.3749C21.5651 21.0069 21.9615 20.6048 22.2429 20.2258C22.3834 20.0366 22.5029 19.8427 22.5902 19.652C22.6723 19.4727 22.7501 19.2442 22.7501 19C22.7501 18.5858 22.4143 18.25 22.0001 18.25H2.00007Z" fill="#141B34"/>
<path d="M17.4018 4.02928C17.3731 3.88516 17.3026 3.75243 17.1994 3.64793L17.1971 3.6457L17.1928 3.64132L17.1783 3.62695C17.1662 3.61496 17.1492 3.59826 17.1277 3.57758C17.0849 3.53626 17.024 3.47872 16.9491 3.41087C16.8005 3.27626 16.5908 3.09583 16.3525 2.91976C16.1186 2.74706 15.8328 2.5602 15.5334 2.42995C15.2579 2.31007 14.8388 2.179 14.4056 2.30289C14.036 2.40861 13.7736 2.64215 13.5666 2.87809C13.3736 3.09806 13.1696 3.39129 12.944 3.71557L12.9221 3.74702C11.974 5.10966 10.3541 7.28479 8.24318 9.54421C8.02406 9.77875 7.91449 9.89602 7.9315 10.035C7.9485 10.1739 8.07618 10.2568 8.33153 10.4226C11.2244 12.3007 14.5869 12.2646 15.7807 12.2518C15.8616 12.2509 15.9327 12.2501 15.9928 12.2501L16.9395 12.2345C17.1872 12.2304 17.3111 12.2284 17.3947 12.1527C17.4783 12.077 17.4925 11.9554 17.5209 11.712C17.818 9.16844 17.8721 6.39798 17.4018 4.02928Z" fill="#141B34"/>
<path d="M17.0995 14.4424C17.1624 14.1156 17.1938 13.9522 17.1019 13.8429C17.0101 13.7335 16.8418 13.7363 16.5052 13.7418L15.9992 13.7502C15.9425 13.7502 15.8712 13.7511 15.7864 13.7523C14.7701 13.767 11.8156 13.8095 8.90179 12.4474C8.23352 12.135 7.89938 11.9789 7.75058 12.1336C7.60177 12.2883 7.75608 12.5873 8.06468 13.1853C8.58204 14.1878 9.26455 15.025 10.1311 15.7077C11.5343 16.8131 13.357 17.4633 15.5832 17.8181C15.956 17.8775 16.3148 17.6506 16.421 17.2884C16.6631 16.4621 16.8972 15.4944 17.0995 14.4424Z" fill="#141B34"/>
<path fill-rule="evenodd" clip-rule="evenodd" d="M15.6127 1.08277C16.1194 0.863086 16.7083 1.09576 16.928 1.60247C17.2475 2.33932 17.4813 3.14345 17.6475 3.98087C18.2113 6.8203 18.0308 10.2126 17.5844 13.1097C17.3392 14.7014 17.0091 16.1728 16.6614 17.3589C16.4183 18.1884 16.158 18.908 15.8989 19.4389C15.6567 19.9352 15.0579 20.1412 14.5616 19.8989C14.0653 19.6567 13.8593 19.058 14.1015 18.5616C14.2911 18.1732 14.5146 17.573 14.7422 16.7964C15.0626 15.7033 15.3745 14.3188 15.6077 12.8052C16.0375 10.0159 16.1851 6.8848 15.6858 4.37039C15.5409 3.64055 15.3443 2.97765 15.093 2.39804C14.8733 1.89133 15.106 1.30246 15.6127 1.08277Z" fill="#141B34"/>
</svg>
