<svg width="24" height="24" viewBox="0 0 24 24" fill="none" xmlns="http://www.w3.org/2000/svg">
<path d="M9.25 4.375C9.25 3.13236 10.2574 2.125 11.5 2.125C12.7426 2.125 13.75 3.13236 13.75 4.375C13.75 5.61764 12.7426 6.625 11.5 6.625C10.2574 6.625 9.25 5.61764 9.25 4.375Z" fill="#141B34"/>
<path d="M12.9145 8.43281C13.3907 8.65033 13.7864 8.83054 14.0247 8.91438C14.2442 8.99157 14.346 8.99992 14.4159 8.99667C14.4858 8.99342 14.5865 8.97564 14.798 8.87836C15.0276 8.77274 15.3118 8.61064 15.7659 8.34985L17.502 7.35298C17.981 7.07797 18.5922 7.2433 18.8672 7.72224C19.1422 8.20118 18.9769 8.81239 18.4979 9.0874L16.7274 10.104C16.318 10.3391 15.9552 10.5475 15.6337 10.6954C15.2851 10.8557 14.9239 10.9752 14.5088 10.9945C14.0937 11.0138 13.723 10.9284 13.361 10.801C13.0272 10.6836 12.4521 10.4209 12.0228 10.2248C11.5196 10.7962 11.0856 11.5546 10.7346 12.3657C10.5191 12.8634 10.3451 13.3571 10.2108 13.8005C10.7911 13.8005 11.3553 13.8004 11.7857 13.8638C12.2565 13.9332 12.8138 14.1071 13.1947 14.6381C13.5747 15.1679 13.5623 15.7511 13.4794 16.2193C13.4033 16.6486 13.2323 17.164 13.0485 17.7178L11.8968 21.1896C11.7229 21.7138 11.157 21.9978 10.6328 21.8239C10.1086 21.65 9.82463 21.0841 9.99852 20.5599L11.1294 17.1507C11.3413 16.5121 11.4669 16.1132 11.5143 15.8455C11.2478 15.8062 10.8373 15.8006 10.167 15.8006L7.86306 15.8006C7.4434 15.8007 7.01288 15.8009 6.65301 15.7398C6.2179 15.666 5.77151 15.487 5.42303 15.0568C5.09203 14.6482 4.99123 14.2033 5.00059 13.7646C5.00805 13.4146 5.0897 13.0195 5.16554 12.6526C5.46732 11.1887 6.10701 9.17262 7.34686 7.7867C7.6076 7.49308 7.99987 7.05145 8.64956 6.91505C9.30574 6.77729 9.85721 7.03331 10.2699 7.22489L12.9145 8.43281Z" fill="#141B34"/>
</svg>
