<svg width="24" height="24" viewBox="0 0 24 24" fill="none" xmlns="http://www.w3.org/2000/svg">
<path fill-rule="evenodd" clip-rule="evenodd" d="M19.7003 16.2467C21.415 15.0249 22.5005 13.155 22.5005 11C22.5005 7.17638 19.083 4.25 14.7977 4.25C12.7804 4.25 10.3278 4.71723 8.07796 5.46536C8.04869 5.41889 8.0152 5.37421 7.97744 5.33186C7.60177 4.91053 7.05406 4.30657 6.42493 3.83082C5.82033 3.37362 4.95249 2.88924 3.9645 3.0222C3.42393 3.09494 2.92035 3.3785 2.3668 3.69019L2.24192 3.76041C1.83426 3.98901 1.63933 4.4695 1.77248 4.91752L2.74727 8.19736L2.71456 8.22515C2.28064 8.59583 1.88822 9.01371 1.60263 9.47303C1.46945 9.68722 1.40286 9.79431 1.46002 9.89716C1.51718 10 1.65329 10 1.92551 10H3.86475C4.41367 10 4.85866 10.4477 4.85866 11C4.85866 11.5523 4.41367 12 3.86475 12H1.92551C1.65329 12 1.51718 12 1.46002 12.1028C1.40286 12.2057 1.46945 12.3128 1.60263 12.527C1.88822 12.9863 2.28064 13.4042 2.71456 13.7748C2.72539 13.7841 2.73627 13.7933 2.74719 13.8026L1.77248 17.0822C1.63933 17.5302 1.83426 18.0107 2.24192 18.2393L2.3668 18.3095C2.92035 18.6212 3.42393 18.9047 3.9645 18.9775C4.95249 19.1104 5.82033 18.6261 6.42493 18.1689C7.05406 17.6931 7.60177 17.0891 7.97744 16.6678C8.01513 16.6255 8.04857 16.581 8.0778 16.5346C8.66772 16.7308 9.27158 16.9076 9.87787 17.0618C9.89319 17.0868 9.90972 17.1113 9.92749 17.1353L11.0173 18.6062L11.0939 18.7099C11.4671 19.2149 11.7945 19.6581 12.2486 19.9566C12.7102 20.2599 13.2408 20.3737 13.8284 20.4996L13.9487 20.5255L14.7149 20.691L14.7768 20.7043C15.3872 20.8362 15.9446 20.9567 16.4115 20.9901C16.9291 21.0272 17.4786 20.9712 17.989 20.6224C18.4884 20.2812 18.7522 19.7943 18.9311 19.305C19.0981 18.8485 19.233 18.2655 19.3858 17.6051L19.3858 17.6051L19.399 17.5482L19.7003 16.2467ZM6.08581 15.7734C5.81268 16.0623 5.52082 16.3451 5.2186 16.5736C4.73906 16.9363 4.41788 17.0205 4.23124 16.9953C4.17071 16.9872 4.09996 16.9651 3.92049 16.8751L4.48332 14.9813C4.98549 15.2633 5.52463 15.5282 6.08581 15.7734ZM4.4834 7.01861C4.98562 6.73664 5.52479 6.47175 6.08602 6.2265C5.81283 5.93755 5.5209 5.65465 5.2186 5.42606C4.73906 5.06343 4.41788 4.97921 4.23124 5.00433C4.17071 5.01248 4.09996 5.03456 3.92049 5.12462L4.4834 7.01861ZM12.7732 17.6157C13.1432 18.1101 13.2419 18.2161 13.347 18.2852C13.4571 18.3575 13.5926 18.4025 14.3709 18.5706L15.1371 18.736C15.83 18.8857 16.2464 18.9732 16.5544 18.9952C16.6957 19.0054 16.7721 18.9975 16.811 18.9898C16.8411 18.9838 16.8519 18.9771 16.8614 18.9706L17.0528 18.6181L17.3776 17.3761C16.5726 17.6189 15.7046 17.75 14.7977 17.75C14.1597 17.75 13.4781 17.7033 12.7732 17.6157Z" fill="#141B34"/>
</svg>
