<svg width="24" height="24" viewBox="0 0 24 24" fill="none" xmlns="http://www.w3.org/2000/svg">
<path opacity="0.4" d="M2.5358 8.14243H13.6336C13.8031 8.14243 13.9559 8.03787 14.0207 7.87756C14.0854 7.71725 14.0494 7.53282 13.9293 7.41036L12.1139 5.55863C11.4947 4.92699 11.551 3.88695 12.2351 3.32866C12.4905 3.12029 12.7975 3.01064 13.1073 3.00049C13.2538 3.00488 13.4 3.0224 13.5441 3.05307C13.654 3.08377 13.7612 3.12774 13.8633 3.18501L19.1094 7.09589C19.4192 7.33836 19.8241 7.54661 20.2805 7.70287L20.3098 7.71289C20.8148 7.88581 21.2341 8.02937 21.5482 8.16377C21.842 8.28944 22.199 8.46666 22.424 8.78158C22.6321 9.07275 22.6958 9.40221 22.7235 9.69242C22.7502 9.97279 22.7502 10.3209 22.7502 10.7153L22.7502 17.1165C22.7503 17.2362 22.7504 17.3606 22.7356 17.4749C22.6332 18.2625 22.0133 18.8824 21.2257 18.9848C21.1114 18.9996 20.9553 18.9995 20.8356 18.9994C20.5078 18.9994 20.1715 19.1326 19.8905 19.3787C19.4361 19.7768 18.7036 20.3725 18.06 20.6188C17.5271 20.8227 16.9544 20.9129 16.2675 20.9565C15.5923 20.9994 14.7575 20.9994 13.6928 20.9994L12.1943 20.9998C10.8499 20.9998 9.70267 20.0279 9.48167 18.7019C9.4578 18.5587 9.56823 18.4284 9.7134 18.4284H12.0003C12.2316 18.4284 12.4191 18.2365 12.4191 17.9998C12.4191 17.7631 12.2316 17.5712 12.0003 17.5712H9.66985C9.57967 17.5712 9.53458 17.5712 9.49092 17.5576C9.44726 17.544 9.41241 17.5199 9.34272 17.4716C8.7756 17.0793 8.3934 16.6523 8.29363 15.5997C8.26812 15.3307 8.25537 15.1961 8.34464 15.098C8.4339 14.9999 8.5785 14.9999 8.86771 14.9999H10.8834C11.1147 14.9999 11.3022 14.808 11.3022 14.5713C11.3022 14.3346 11.1147 14.1428 10.8834 14.1428H8.26291C8.13208 14.1428 8.06666 14.1428 8.00458 14.1126C7.94249 14.0824 7.90723 14.0376 7.83671 13.9478C7.4692 13.4803 7.25 12.8906 7.25 12.2498C7.2556 12.134 7.29455 11.9556 7.37584 11.7904C7.41803 11.7046 7.43912 11.6618 7.51192 11.6165C7.58471 11.5712 7.65197 11.5712 7.7865 11.5712H9.76651C9.99782 11.5712 10.1853 11.3793 10.1853 11.1426C10.1853 10.9059 9.99782 10.714 9.76651 10.714L2.5358 10.714C1.82567 10.714 1.25 10.1384 1.25 9.42823C1.25 8.7181 1.82567 8.14243 2.5358 8.14243Z" fill="#141B34"/>
</svg>
