<svg width="24" height="24" viewBox="0 0 24 24" fill="none" xmlns="http://www.w3.org/2000/svg">
<path opacity="0.4" d="M14.2501 6.57143C14.2501 4.73705 15.7371 3.25 17.5715 3.25C18.2224 3.25 18.7501 3.77766 18.7501 4.42857V8.05573C18.7501 8.64665 18.9385 9.19983 19.2486 9.82001C19.7202 10.7632 19.8277 11.8193 19.8349 12.7912C19.8385 13.2814 19.8162 13.7713 19.7942 14.2299C19.7732 14.6668 19.7501 15.1472 19.7501 15.5279C19.7501 16.0745 20.0057 16.7281 20.4174 17.4838C20.5979 17.815 20.8606 18.2522 21.0592 18.5829C21.2753 18.9429 21.4953 19.3133 21.6709 19.6646C21.7726 19.8681 21.7765 20.1067 21.6814 20.3134C21.5864 20.5201 21.4027 20.6724 21.182 20.7276L13.182 22.7276C12.8745 22.8045 12.5518 22.6798 12.376 22.416L11.6149 21.2744C11.5165 21.1267 11.3878 21.0018 11.2374 20.9077L7.60256 18.636C7.31884 18.4587 7.18689 18.1149 7.27913 17.7932C7.37136 17.4716 7.66548 17.25 8.00006 17.25H11.0001C11.9641 17.25 12.6116 17.2484 13.0947 17.1835C13.5561 17.1214 13.7536 17.0142 13.8839 16.8839C14.0143 16.7536 14.1215 16.5561 14.1835 16.0946C14.2485 15.6116 14.2501 14.964 14.2501 14V6.57143Z" fill="#141B34"/>
<path fill-rule="evenodd" clip-rule="evenodd" d="M9 15C9 14.4477 9.44571 14 9.99553 14H10.0045C10.5543 14 11 14.4477 11 15C11 15.5523 10.5543 16 10.0045 16H9.99553C9.44571 16 9 15.5523 9 15Z" fill="#141B34"/>
<g opacity="0.4">
<path d="M3.34544 6.42566H6.65456C7.25535 6.42566 7.74239 5.93862 7.74239 5.33783C7.74239 4.73704 7.25535 4.25 6.65456 4.25H3.34544C2.74465 4.25 2.25761 4.73704 2.25761 5.33783C2.25761 5.93862 2.74464 6.42566 3.34544 6.42566Z" fill="#141B34"/>
<path d="M7.66216 7.35809H3.33828C2.73749 7.35809 2.25045 7.84513 2.25045 8.44593C2.25045 9.04673 2.73749 9.53377 3.33828 9.53377L7.66216 9.53377C8.26296 9.53377 8.75 9.04673 8.75 8.44593C8.75 7.84513 8.26296 7.35809 7.66216 7.35809Z" fill="#141B34"/>
<path d="M6.66216 10.4662H3.33784C2.73704 10.4662 2.25 10.9532 2.25 11.554C2.25 12.1548 2.73704 12.6419 3.33784 12.6419H6.66216C7.26296 12.6419 7.75 12.1548 7.75 11.554C7.75 10.9532 7.26296 10.4662 6.66216 10.4662Z" fill="#141B34"/>
<path d="M3.34537 13.5743H6.15454C6.75534 13.5743 7.24239 14.0614 7.24239 14.6622C7.24239 15.263 6.75534 15.75 6.15454 15.75H3.34537C2.74453 15.75 2.25747 15.2629 2.25752 14.6621C2.25757 14.0613 2.7446 13.5743 3.34537 13.5743Z" fill="#141B34"/>
</g>
<path d="M10.0526 1.25H9.94524C8.81243 1.24998 7.88667 1.24996 7.15582 1.34822C6.39187 1.45093 5.72953 1.67321 5.20084 2.20191C4.65441 2.74833 4.43259 3.44133 4.33496 4.25H5.84961C5.93177 3.72629 6.06816 3.4559 6.2615 3.26257C6.46504 3.05903 6.75807 2.91519 7.35569 2.83484C7.97489 2.7516 8.79922 2.75 9.99894 2.75C11.1987 2.75 12.023 2.7516 12.6422 2.83484C13.2398 2.91519 13.5328 3.05903 13.7364 3.26257C13.9399 3.46611 14.0837 3.75914 14.1641 4.35676C14.2473 4.97595 14.2489 5.80029 14.2489 7V13C14.2489 14.1997 14.2473 15.0241 14.1641 15.6432C14.0837 16.2409 13.9399 16.5339 13.7364 16.7374C13.5328 16.941 13.2398 17.0848 12.6422 17.1652C12.023 17.2484 11.1987 17.25 9.99894 17.25C8.79922 17.25 7.97489 17.2484 7.35569 17.1652C6.75807 17.0848 6.46504 16.941 6.2615 16.7374C6.06816 16.5441 5.93176 16.2737 5.84961 15.75H4.33496C4.43259 16.5587 4.65441 17.2517 5.20084 17.7981C5.72953 18.3268 6.39187 18.5491 7.15582 18.6518C7.88668 18.75 8.8124 18.75 9.94523 18.75H10.0526C11.1854 18.75 12.1112 18.75 12.8421 18.6518C13.606 18.5491 14.2683 18.3268 14.797 17.7981C15.3257 17.2694 15.548 16.6071 15.6507 15.8431C15.749 15.1123 15.749 14.1865 15.7489 13.0537V6.94632C15.749 5.81348 15.749 4.88775 15.6507 4.15689C15.548 3.39294 15.3257 2.7306 14.797 2.20191C14.2683 1.67321 13.606 1.45093 12.8421 1.34822C12.1112 1.24996 11.1854 1.24998 10.0526 1.25Z" fill="#141B34"/>
</svg>
