<svg width="24" height="24" viewBox="0 0 24 24" fill="none" xmlns="http://www.w3.org/2000/svg">
<path d="M7.90833 2.07151C7.90366 2.15078 7.89085 2.36845 7.88619 2.49138C7.87669 2.74224 7.86962 3.0868 7.88049 3.45294C7.89118 3.81295 7.91995 4.22463 7.99084 4.59889C8.02634 4.78628 8.07681 4.98858 8.1526 5.18134C8.22456 5.36433 8.34456 5.60457 8.55403 5.80713C8.9274 6.16821 9.44544 6.27291 9.7464 6.31704C10.1058 6.36974 10.4936 6.3768 10.8274 6.36853C11.1676 6.36009 11.4854 6.33469 11.7159 6.31186C11.8285 6.3007 12.0287 6.27621 12.1025 6.26717L12.1089 6.26639C12.4823 6.21392 12.7948 5.9558 12.9165 5.59888C13.0382 5.24196 12.9488 4.84691 12.6853 4.57719L11.9678 3.84294C14.6724 2.27889 18.3533 3.33035 19.9812 6.57493C20.2289 7.06857 20.8298 7.26797 21.3234 7.0203C21.8171 6.77263 22.0165 6.17168 21.7688 5.67805C19.5889 1.33327 14.271 -0.191054 10.5261 2.36753L9.62113 1.44133C9.34651 1.16029 8.93276 1.06612 8.56356 1.20063C8.19437 1.33515 7.93815 1.67366 7.90869 2.06549L7.90833 2.07151Z" fill="#141B34"/>
<path opacity="0.4" d="M8.25136 11.2908C8.45021 11.4265 8.49923 11.6947 8.36083 11.8898C8.22243 12.0849 7.94904 12.133 7.75019 11.9972L6.44838 11.1084C5.93075 10.755 5.20617 10.8796 4.83341 11.3987C4.46173 11.9163 4.58883 12.6187 5.10481 12.9709L5.97201 13.563L6.40662 13.8597C6.60547 13.9955 6.65448 14.2637 6.51609 14.4587C6.37769 14.6538 6.1043 14.7019 5.90544 14.5661L5.47151 14.2699C4.95387 13.9165 4.2293 14.0411 3.85654 14.5602C3.48486 15.0778 3.61196 15.7801 4.12794 16.1324L5.42974 17.0212C5.6286 17.1569 5.67761 17.4251 5.53921 17.6202C5.40082 17.8153 5.12742 17.8634 4.92857 17.7276L4.49463 17.4313C3.977 17.0779 3.25243 17.2025 2.87966 17.7216C2.50798 18.2392 2.63508 18.9416 3.15106 19.2938L3.5808 19.5872L7.42929 22.0855C9.35251 23.3339 11.9079 23.0829 13.5394 21.4856L15.3359 19.7268C16.2023 18.8786 16.5869 18.4987 16.8646 18.0736C17.2975 17.411 17.5554 16.6535 17.6152 15.8692C17.6535 15.3661 17.5787 14.8364 17.4054 13.6489L16.6541 8.50038C16.5671 7.90409 16.0788 7.44004 15.4658 7.37336C14.6653 7.28627 13.9668 7.89896 13.9654 8.68477L14.0015 11.5959C14.0034 11.7561 13.9145 11.9042 13.7706 11.9801C13.6268 12.056 13.4518 12.0472 13.3166 11.9573L3.95376 5.57686C3.43613 5.22346 2.71155 5.34806 2.33879 5.86716C1.96711 6.38475 2.09421 7.0871 2.61019 7.43938L8.25136 11.2908Z" fill="#141B34"/>
</svg>
