<svg width="24" height="24" viewBox="0 0 24 24" fill="none" xmlns="http://www.w3.org/2000/svg">
<path opacity="0.4" d="M10.8095 10.185C11.0482 10.185 11.2417 9.99753 11.2417 9.76621V2.54649C11.2417 1.83046 11.8222 1.25 12.5382 1.25C13.2542 1.25 13.8347 1.83046 13.8347 2.54649V10.8831C13.8347 11.1144 14.0282 11.3019 14.2669 11.3019C14.5056 11.3019 14.6991 11.1144 14.6991 10.8831V4.61442C14.6991 3.89832 15.2796 3.31781 15.9957 3.31781C16.7118 3.31781 17.2923 3.89832 17.2923 4.61442V12C17.2923 12.2313 17.4858 12.4188 17.7245 12.4188C17.9632 12.4188 18.1567 12.2313 18.1567 12V10.1823C18.1567 9.84439 18.1567 9.67543 18.2933 9.58671C18.4298 9.49799 18.5643 9.5578 18.8333 9.67742C19.8127 10.113 20.4989 11.0883 20.5 12.1915L20.5 14.0118C20.5003 15.8577 20.5005 16.988 20.1639 17.9222C19.9035 18.6448 19.5029 19.2987 18.9942 19.8531C18.6291 20.2512 18.4304 20.6629 18.4304 21.0448C18.4304 21.9865 17.667 22.7499 16.7253 22.7499H9.52517L9.47222 22.75C9.27199 22.7503 9.06349 22.7507 8.87474 22.7092C8.20791 22.5628 7.6871 22.042 7.54071 21.3752C7.49927 21.1864 7.49961 20.9779 7.49994 20.7777L7.5 20.7248C7.5 20.4412 7.40358 20.166 7.22657 19.9445L5.23135 17.4473C5.21923 17.4321 5.2077 17.4165 5.19679 17.4004L5.17578 17.3695C4.689 16.6525 4.29344 16.0699 4.01761 15.5648C3.73104 15.0399 3.53969 14.5401 3.50651 13.9816C3.48749 13.6616 3.5102 13.3404 3.57406 13.0261C3.68545 12.4779 3.94502 12.0094 4.30239 11.5289C4.63461 11.0823 5.1469 10.5165 5.70663 9.89828L5.76704 9.83156L5.90566 9.69954C6.33909 9.28672 6.55581 9.08031 6.73764 9.15823C6.91947 9.23615 6.91947 9.53544 6.91946 10.134L6.91943 13.6333C6.91943 13.8647 7.11293 14.0522 7.35163 14.0522C7.59033 14.0522 7.78383 13.8647 7.78384 13.6334V4.0473C7.78384 3.33113 8.36441 2.75057 9.08057 2.75057C9.79673 2.75057 10.3773 3.33113 10.3773 4.0473V9.76621C10.3773 9.99753 10.5708 10.185 10.8095 10.185Z" fill="#141B34"/>
</svg>
