<svg width="24" height="24" viewBox="0 0 24 24" fill="none" xmlns="http://www.w3.org/2000/svg">
<path opacity="0.4" d="M11.1415 10.7364C11.3782 10.7364 11.5701 10.5478 11.5701 10.3152V3.03592C11.5701 2.32573 12.1458 1.75 12.856 1.75C13.5663 1.75 14.142 2.32577 14.1419 3.03599L14.1415 10.3152C14.1415 10.5478 14.3334 10.7364 14.5701 10.7364C14.8068 10.7364 14.9987 10.5478 14.9987 10.3152V8.30873C14.9987 8.07684 14.9987 7.96089 15.0843 7.87343C15.1698 7.78598 15.2652 7.7839 15.4559 7.77976C15.596 7.77671 15.742 7.79001 15.8914 7.82584C16.4882 7.96888 17.0678 8.28006 17.4538 8.73622C17.5069 8.799 17.5335 8.83039 17.5518 8.88036C17.5701 8.93033 17.5701 8.97911 17.5701 9.07666V11.4385C17.5701 11.6711 17.762 11.8597 17.9987 11.8597C18.2354 11.8597 18.4272 11.6711 18.4272 11.4385V9.39553C18.4272 9.08673 18.4272 8.93233 18.5489 8.84239C18.6705 8.75245 18.7987 8.79174 19.0553 8.87032C20.1804 9.21501 20.9986 10.262 20.9986 11.5001V14.1926C20.9986 15.2573 20.9986 16.0922 20.9558 16.7675C20.9121 17.4544 20.822 18.0271 20.6181 18.56C20.0361 20.0809 18.8377 21.2835 17.3201 21.8679C16.788 22.0728 16.2164 22.1633 15.5313 22.2071C14.8579 22.2501 13.9995 22.2501 12.9383 22.2501C11.8911 22.2502 11.1531 22.2503 10.5437 22.116C9.61537 21.9112 8.75247 21.4784 8.03255 20.8565C7.56005 20.4483 7.17354 19.9312 6.54515 19.0905L3.29892 14.6108C3.23334 14.5246 3.17853 14.4332 3.13446 14.3382C3.05573 14.112 3.01128 13.8768 3.00098 13.6406C3.0178 13.3407 3.12692 13.0452 3.32763 12.7978C3.88593 12.1097 4.92601 12.0531 5.55767 12.6759L7.40944 14.5017C7.53191 14.6224 7.71635 14.6587 7.87666 14.5936C8.03697 14.5285 8.14153 14.3748 8.14153 14.2043V5.03584C8.14153 4.32576 8.71717 3.75013 9.42725 3.75013C10.1373 3.75013 10.713 4.32576 10.713 5.03584V10.3152C10.713 10.5478 10.9048 10.7364 11.1415 10.7364Z" fill="#141B34"/>
</svg>
