<svg width="24" height="24" viewBox="0 0 24 24" fill="none" xmlns="http://www.w3.org/2000/svg">
<path d="M10.5286 8H13.4714C14.0307 8 14.6182 8.00228 14.8682 8.61732C15.0439 9.04998 15.0439 9.95002 14.8682 10.3827C14.6182 10.9977 14.0307 11 13.4714 11H10.5286C9.96929 11 9.38175 10.9977 9.13185 10.3827C8.95605 9.95002 8.95605 9.04998 9.13185 8.61732C9.38175 8.00228 9.96929 8 10.5286 8Z" stroke="#141B34" stroke-width="1.5" stroke-linecap="round" stroke-linejoin="round"/>
<path d="M10.5286 11H13.4714C14.0307 11 14.6182 11.0023 14.8682 11.6173C15.0439 12.05 15.0439 12.95 14.8682 13.3827C14.6182 13.9977 14.0307 14 13.4714 14H10.5286C9.96929 14 9.38175 13.9977 9.13185 13.3827C8.95605 12.95 8.95605 12.05 9.13185 11.6173C9.38175 11.0023 9.96929 11 10.5286 11Z" stroke="#141B34" stroke-width="1.5" stroke-linecap="round" stroke-linejoin="round"/>
<path d="M19 22.75C19.4142 22.75 19.75 22.4142 19.75 22C19.75 21.5858 19.4142 21.25 19 21.25V22.75ZM5 21.25C4.58579 21.25 4.25 21.5858 4.25 22C4.25 22.4142 4.58579 22.75 5 22.75V21.25ZM12 22.75H19V21.25H12V22.75ZM12 21.25H5V22.75H12V21.25Z" fill="#141B34"/>
<path d="M9.32061 17.5037L9.36595 18.2523H9.36595L9.32061 17.5037ZM6.78849 18.7628C6.6575 19.1558 6.86987 19.5805 7.26283 19.7115C7.65579 19.8425 8.08053 19.6301 8.21151 19.2372L6.78849 18.7628ZM7.58586 18.754L8.28173 19.0338L8.28173 19.0338L7.58586 18.754ZM15.7885 19.2372C15.9195 19.6301 16.3442 19.8425 16.7372 19.7115C17.1301 19.5805 17.3425 19.1558 17.2115 18.7628L15.7885 19.2372ZM16.4141 18.754L17.11 18.4743L17.11 18.4743L16.4141 18.754ZM14.6794 17.5037L14.634 18.2523L14.6794 17.5037ZM14.4189 16.75H9.58114V18.25H14.4189V16.75ZM9.58114 16.75C9.45768 16.75 9.36381 16.7497 9.27528 16.755L9.36595 18.2523C9.39821 18.2503 9.43776 18.25 9.58114 18.25V16.75ZM8.21151 19.2372C8.25685 19.1011 8.26967 19.0637 8.28173 19.0338L6.88998 18.4742C6.8569 18.5565 6.82753 18.6457 6.78849 18.7628L8.21151 19.2372ZM9.27528 16.755C8.21484 16.8193 7.28625 17.4885 6.88998 18.4743L8.28173 19.0338C8.46185 18.5857 8.88394 18.2815 9.36595 18.2523L9.27528 16.755ZM17.2115 18.7628C17.1725 18.6457 17.1431 18.5565 17.11 18.4743L15.7183 19.0338C15.7303 19.0637 15.7431 19.1012 15.7885 19.2372L17.2115 18.7628ZM14.4189 18.25C14.5622 18.25 14.6018 18.2503 14.634 18.2523L14.7247 16.755C14.6362 16.7497 14.5423 16.75 14.4189 16.75V18.25ZM17.11 18.4743C16.7138 17.4885 15.7852 16.8193 14.7247 16.755L14.634 18.2523C15.1161 18.2815 15.5381 18.5857 15.7183 19.0338L17.11 18.4743Z" fill="#141B34"/>
<path opacity="0.4" d="M12.75 17.5C12.75 17.0858 12.4142 16.75 12 16.75C11.5858 16.75 11.25 17.0858 11.25 17.5H12.75ZM11.25 22C11.25 22.4142 11.5858 22.75 12 22.75C12.4142 22.75 12.75 22.4142 12.75 22H11.25ZM11.25 17.5V22H12.75V17.5H11.25Z" fill="#141B34"/>
<path d="M21 8.5L19.7959 7.09525C18.9123 6.06437 18.4705 5.54892 17.8738 5.27446C17.277 5 16.5981 5 15.2404 5H8.75961C7.40185 5 6.72297 5 6.12623 5.27446C5.5295 5.54892 5.08769 6.06437 4.20407 7.09525L3 8.5" stroke="#141B34" stroke-width="1.5" stroke-linecap="round" stroke-linejoin="round"/>
<path opacity="0.4" d="M12 8L12 2" stroke="#141B34" stroke-width="1.5" stroke-linecap="round" stroke-linejoin="round"/>
</svg>
