<svg width="24" height="24" viewBox="0 0 24 24" fill="none" xmlns="http://www.w3.org/2000/svg">
<path d="M13.9107 8.36842C14.212 8.60058 14.2745 8.98921 14.3995 9.76646L14.8575 12.6146C15.0197 13.623 15.1008 14.1271 14.7812 14.4545C14.0248 15.2293 9.88108 15.1328 9.21883 14.4545C8.89925 14.1271 8.98033 13.6229 9.14248 12.6146L9.60049 9.76647C9.72548 8.98921 9.78798 8.60058 10.0893 8.36842C10.7104 7.88989 13.2569 7.86466 13.9107 8.36842Z" stroke="#141B34" stroke-width="1.5" stroke-linecap="round" stroke-linejoin="round"/>
<path d="M7.5 19C7.54219 18.8734 7.56329 18.8101 7.58586 18.754C7.87405 18.0371 8.54939 17.5504 9.32061 17.5037C9.38101 17.5 9.44772 17.5 9.58114 17.5H14.4189C14.5523 17.5 14.619 17.5 14.6794 17.5037C15.4506 17.5504 16.126 18.0371 16.4141 18.754C16.4367 18.8101 16.4578 18.8734 16.5 19" stroke="#141B34" stroke-width="1.5" stroke-linecap="round" stroke-linejoin="round"/>
<path opacity="0.4" d="M12 17.5V22" stroke="#141B34" stroke-width="1.5" stroke-linecap="round" stroke-linejoin="round"/>
<path d="M19 22H5" stroke="#141B34" stroke-width="1.5" stroke-linecap="round" stroke-linejoin="round"/>
<path d="M18.201 5.50122L18.7866 5.0327V5.0327L18.201 5.50122ZM20.1235 7.90434L19.5378 8.37286V8.37287L20.1235 7.90434ZM5.79902 5.50122L5.21337 5.0327L5.79902 5.50122ZM3.87653 7.90434L4.46218 8.37287L4.46218 8.37286L3.87653 7.90434ZM20.25 14C20.25 14.4142 20.5858 14.75 21 14.75C21.4142 14.75 21.75 14.4142 21.75 14H20.25ZM2.25 14C2.25 14.4142 2.58579 14.75 3 14.75C3.41421 14.75 3.75 14.4142 3.75 14H2.25ZM3.11274 9.03955L3.82046 9.2878H3.82046L3.11274 9.03955ZM20.8873 9.03955L20.1795 9.2878V9.2878L20.8873 9.03955ZM16.9051 4.19739L17.23 3.52142V3.52142L16.9051 4.19739ZM3 11.25C2.58579 11.25 2.25 11.5858 2.25 12C2.25 12.4142 2.58579 12.75 3 12.75V11.25ZM6 12.75C6.41421 12.75 6.75 12.4142 6.75 12C6.75 11.5858 6.41421 11.25 6 11.25V12.75ZM21 12.75C21.4142 12.75 21.75 12.4142 21.75 12C21.75 11.5858 21.4142 11.25 21 11.25V12.75ZM18 11.25C17.5858 11.25 17.25 11.5858 17.25 12C17.25 12.4142 17.5858 12.75 18 12.75V11.25ZM17.6153 5.96974L19.5378 8.37286L20.7091 7.43582L18.7866 5.0327L17.6153 5.96974ZM5.21337 5.0327L3.29087 7.43582L4.46218 8.37286L6.38468 5.96974L5.21337 5.0327ZM15.0775 3.25H8.9225V4.75H15.0775V3.25ZM20.25 10.4031V14H21.75V10.4031H20.25ZM2.25 10.4031V14H3.75V10.4031H2.25ZM3.29087 7.43582C2.88879 7.93842 2.56981 8.32152 2.40502 8.79129L3.82046 9.2878C3.88116 9.11476 3.99621 8.95533 4.46218 8.37287L3.29087 7.43582ZM3.75 10.4031C3.75 9.65721 3.75976 9.46084 3.82046 9.2878L2.40502 8.79129C2.24024 9.26106 2.25 9.75948 2.25 10.4031H3.75ZM6.38468 5.96974C7.01979 5.17585 7.19917 4.97939 7.41976 4.87337L6.76998 3.52142C6.16917 3.81018 5.75846 4.35134 5.21337 5.0327L6.38468 5.96974ZM8.9225 3.25C8.04994 3.25 7.37079 3.23265 6.76998 3.52142L7.41976 4.87337C7.64036 4.76735 7.90583 4.75 8.9225 4.75V3.25ZM19.5378 8.37287C20.0038 8.95532 20.1188 9.11477 20.1795 9.2878L21.595 8.79129C21.4302 8.32153 21.1112 7.93841 20.7091 7.43582L19.5378 8.37287ZM21.75 10.4031C21.75 9.75948 21.7598 9.26106 21.595 8.79129L20.1795 9.2878C20.2402 9.46084 20.25 9.65721 20.25 10.4031H21.75ZM18.7866 5.0327C18.2415 4.35135 17.8308 3.81018 17.23 3.52142L16.5802 4.87337C16.8008 4.97939 16.9802 5.17586 17.6153 5.96974L18.7866 5.0327ZM15.0775 4.75C16.0942 4.75 16.3596 4.76735 16.5802 4.87337L17.23 3.52142C16.6292 3.23265 15.9501 3.25 15.0775 3.25V4.75ZM3 12.75H6V11.25H3V12.75ZM21 11.25H18V12.75H21V11.25Z" fill="#141B34"/>
<path opacity="0.4" d="M12 8V2" stroke="#141B34" stroke-width="1.5" stroke-linecap="round" stroke-linejoin="round"/>
</svg>
