<svg width="24" height="24" viewBox="0 0 24 24" fill="none" xmlns="http://www.w3.org/2000/svg">
<path d="M2.5 18.4138V11.1909C2.5 9.86228 2.5 9.19798 3.09869 9.03265C3.69737 8.86733 4.40197 9.33706 5.81117 10.2765L18.5852 18.7926C19.9944 19.732 20.699 20.2018 20.451 20.6009C20.203 21 19.2066 21 17.2137 21H6.37928C4.55057 21 3.63621 21 3.06811 20.6213C2.5 20.2425 2.5 19.633 2.5 18.4138Z" stroke="#141B34" stroke-width="1.5" stroke-linecap="round" stroke-linejoin="round"/>
<circle cx="8.5" cy="7" r="4" stroke="#141B34" stroke-width="1.5" stroke-linecap="round" stroke-linejoin="round"/>
<path d="M15.865 9.34482C15.5032 9.14323 15.0464 9.27314 14.8448 9.63498C14.6432 9.99683 14.7731 10.4536 15.135 10.6552L15.865 9.34482ZM20.2454 13.7351L20.3772 14.4735H20.3772L20.2454 13.7351ZM18.63 13.2617C18.2222 13.3345 17.9507 13.7241 18.0235 14.1318C18.0963 14.5396 18.4859 14.8111 18.8936 14.7383L18.63 13.2617ZM21.4248 10.4672C21.282 10.0784 20.851 9.87901 20.4622 10.0218C20.0734 10.1647 19.874 10.5956 20.0168 10.9844L21.4248 10.4672ZM21.2249 12.098L21.9289 11.8394V11.8394L21.2249 12.098ZM21.8028 12.6529L15.865 9.34482L15.135 10.6552L21.0728 13.9633L21.8028 12.6529ZM20.1135 12.9968L18.63 13.2617L18.8936 14.7383L20.3772 14.4735L20.1135 12.9968ZM20.0168 10.9844L20.5208 12.3567L21.9289 11.8394L21.4248 10.4672L20.0168 10.9844ZM20.3772 14.4735C20.7057 14.4148 21.0261 14.3592 21.277 14.2795C21.5377 14.1968 21.8709 14.045 22.0814 13.6932L20.7942 12.923C20.8613 12.8109 20.9479 12.8102 20.8232 12.8498C20.6885 12.8926 20.4844 12.9306 20.1135 12.9968L20.3772 14.4735ZM20.5208 12.3567C20.6475 12.7016 20.7134 12.886 20.7412 13.0143C20.7656 13.127 20.7237 13.0409 20.7942 12.923L22.0814 13.6932C22.2954 13.3355 22.2658 12.9678 22.2073 12.6971C22.1521 12.4421 22.0398 12.1414 21.9289 11.8394L20.5208 12.3567Z" fill="#141B34"/>
</svg>
