<svg width="24" height="24" viewBox="0 0 24 24" fill="none" xmlns="http://www.w3.org/2000/svg">
<path d="M6.75233 13.75C7.16654 13.75 7.50233 13.4142 7.50233 13C7.50233 12.5858 7.16654 12.25 6.75233 12.25V13.75ZM10.3342 15.3371L9.63391 15.6057L9.63391 15.6057L10.3342 15.3371ZM10.2071 19.7071L10.7374 20.2374L10.7374 20.2374L10.2071 19.7071ZM6.31797 12.6538L5.79139 13.1879L5.79139 13.1879L6.31797 12.6538ZM2.82346 8.33906L2.47711 9.0043L2.82346 8.33906ZM2.14214 7.26359C1.73543 7.18509 1.34209 7.45115 1.26359 7.85786C1.18509 8.26457 1.45115 8.65791 1.85786 8.73641L2.14214 7.26359ZM2 12.25C1.58579 12.25 1.25 12.5858 1.25 13C1.25 13.4142 1.58579 13.75 2 13.75L2 12.25ZM2 19.25C1.58579 19.25 1.25 19.5858 1.25 20C1.25 20.4142 1.58579 20.75 2 20.75L2 19.25ZM6.75 20C6.75 20.6904 6.19036 21.25 5.5 21.25V22.75C7.01878 22.75 8.25 21.5188 8.25 20H6.75ZM5.5 21.25C4.80964 21.25 4.25 20.6904 4.25 20H2.75C2.75 21.5188 3.98122 22.75 5.5 22.75V21.25ZM4.25 20C4.25 19.3096 4.80964 18.75 5.5 18.75V17.25C3.98122 17.25 2.75 18.4812 2.75 20H4.25ZM5.5 18.75C6.19036 18.75 6.75 19.3096 6.75 20H8.25C8.25 18.4812 7.01878 17.25 5.5 17.25V18.75ZM7.5 20.75H8.5V19.25H7.5V20.75ZM11.25 18V17.2797H9.75V18H11.25ZM11.25 17.2797C11.25 16.3347 11.262 15.6618 11.0344 15.0685L9.63391 15.6057C9.738 15.8771 9.75 16.211 9.75 17.2797H11.25ZM8.5 20.75C8.9502 20.75 9.3633 20.7516 9.69721 20.7067C10.0527 20.6589 10.4284 20.5465 10.7374 20.2374L9.67678 19.1768C9.67632 19.1772 9.67631 19.1772 9.67665 19.1769C9.677 19.1766 9.67724 19.1765 9.67717 19.1765C9.67709 19.1766 9.67624 19.1771 9.67433 19.1781C9.6724 19.1791 9.66908 19.1808 9.66404 19.1828C9.64226 19.1918 9.59389 19.2071 9.49734 19.2201C9.28661 19.2484 8.99261 19.25 8.5 19.25V20.75ZM9.75 18C9.75 18.4926 9.74841 18.7866 9.72008 18.9973C9.70709 19.0939 9.6918 19.1423 9.68284 19.164C9.68077 19.1691 9.67915 19.1724 9.67814 19.1743C9.67714 19.1762 9.67659 19.1771 9.67653 19.1772C9.67649 19.1772 9.67665 19.177 9.67693 19.1766C9.67721 19.1763 9.67723 19.1763 9.67678 19.1768L10.7374 20.2374C11.0465 19.9284 11.1589 19.5527 11.2067 19.1972C11.2516 18.8633 11.25 18.4502 11.25 18H9.75ZM6.84455 12.1198C6.2898 11.5728 5.89529 10.8299 5.34428 9.94821C4.83112 9.12705 4.1856 8.2027 3.16982 7.67383L2.47711 9.0043C3.10243 9.32988 3.567 9.93466 4.07224 10.7431C4.53963 11.4911 5.07182 12.4784 5.79139 13.1879L6.84455 12.1198ZM11.0344 15.0685C10.5799 13.8837 9.60263 13.4021 8.79485 13.0808C8.35174 12.9046 8.02186 12.798 7.65559 12.6341C7.31646 12.4824 7.04991 12.3223 6.84455 12.1198L5.79139 13.1879C6.17607 13.5672 6.62292 13.8153 7.04293 14.0033C7.43579 14.1791 7.91076 14.3435 8.24056 14.4747C8.97859 14.7682 9.41937 15.0464 9.63391 15.6057L11.0344 15.0685ZM1.85786 8.73641C2.03103 8.76983 2.20133 8.86071 2.47711 9.0043L3.16982 7.67383C2.96554 7.56747 2.5779 7.3477 2.14214 7.26359L1.85786 8.73641ZM2 13.75L6.75233 13.75V12.25L2 12.25L2 13.75ZM2 20.75L3.5 20.75L3.5 19.25L2 19.25L2 20.75Z" fill="#141B34"/>
<path d="M17.2477 13.75C16.8335 13.75 16.4977 13.4142 16.4977 13C16.4977 12.5858 16.8335 12.25 17.2477 12.25V13.75ZM13.6658 15.3371L14.3661 15.6057L14.3661 15.6057L13.6658 15.3371ZM13.7929 19.7071L13.2626 20.2374L13.2626 20.2374L13.7929 19.7071ZM17.682 12.6538L18.2086 13.1879L18.2086 13.1879L17.682 12.6538ZM21.1765 8.33906L21.5229 9.0043L21.1765 8.33906ZM21.8579 7.26359C22.2646 7.18509 22.6579 7.45115 22.7364 7.85786C22.8149 8.26457 22.5488 8.65791 22.1421 8.73641L21.8579 7.26359ZM22 12.25C22.4142 12.25 22.75 12.5858 22.75 13C22.75 13.4142 22.4142 13.75 22 13.75L22 12.25ZM22 19.25C22.4142 19.25 22.75 19.5858 22.75 20C22.75 20.4142 22.4142 20.75 22 20.75L22 19.25ZM17.25 20C17.25 20.6904 17.8096 21.25 18.5 21.25V22.75C16.9812 22.75 15.75 21.5188 15.75 20H17.25ZM18.5 21.25C19.1904 21.25 19.75 20.6904 19.75 20H21.25C21.25 21.5188 20.0188 22.75 18.5 22.75V21.25ZM19.75 20C19.75 19.3096 19.1904 18.75 18.5 18.75V17.25C20.0188 17.25 21.25 18.4812 21.25 20H19.75ZM18.5 18.75C17.8096 18.75 17.25 19.3096 17.25 20H15.75C15.75 18.4812 16.9812 17.25 18.5 17.25V18.75ZM16.5 20.75H15.5V19.25H16.5V20.75ZM12.75 18V17.2797H14.25V18H12.75ZM12.75 17.2797C12.75 16.3347 12.738 15.6618 12.9656 15.0685L14.3661 15.6057C14.262 15.8771 14.25 16.211 14.25 17.2797H12.75ZM15.5 20.75C15.0498 20.75 14.6367 20.7516 14.3028 20.7067C13.9473 20.6589 13.5716 20.5465 13.2626 20.2374L14.3232 19.1768C14.3237 19.1772 14.3237 19.1772 14.3233 19.1769C14.323 19.1766 14.3228 19.1765 14.3228 19.1765C14.3229 19.1766 14.3238 19.1771 14.3257 19.1781C14.3276 19.1791 14.3309 19.1808 14.336 19.1828C14.3577 19.1918 14.4061 19.2071 14.5027 19.2201C14.7134 19.2484 15.0074 19.25 15.5 19.25V20.75ZM14.25 18C14.25 18.4926 14.2516 18.7866 14.2799 18.9973C14.2929 19.0939 14.3082 19.1423 14.3172 19.164C14.3192 19.1691 14.3209 19.1724 14.3219 19.1743C14.3229 19.1762 14.3234 19.1771 14.3235 19.1772C14.3235 19.1772 14.3234 19.177 14.3231 19.1766C14.3228 19.1763 14.3228 19.1763 14.3232 19.1768L13.2626 20.2374C12.9535 19.9284 12.8411 19.5527 12.7933 19.1972C12.7484 18.8633 12.75 18.4502 12.75 18H14.25ZM17.1554 12.1198C17.7102 11.5728 18.1047 10.8299 18.6557 9.94821C19.1689 9.12705 19.8144 8.2027 20.8302 7.67383L21.5229 9.0043C20.8976 9.32988 20.433 9.93466 19.9278 10.7431C19.4604 11.4911 18.9282 12.4784 18.2086 13.1879L17.1554 12.1198ZM12.9656 15.0685C13.4201 13.8837 14.3974 13.4021 15.2052 13.0808C15.6483 12.9046 15.9781 12.798 16.3444 12.6341C16.6835 12.4824 16.9501 12.3223 17.1554 12.1198L18.2086 13.1879C17.8239 13.5672 17.3771 13.8153 16.9571 14.0033C16.5642 14.1791 16.0892 14.3435 15.7594 14.4747C15.0214 14.7682 14.5806 15.0464 14.3661 15.6057L12.9656 15.0685ZM22.1421 8.73641C21.969 8.76983 21.7987 8.86071 21.5229 9.0043L20.8302 7.67383C21.0345 7.56747 21.4221 7.3477 21.8579 7.26359L22.1421 8.73641ZM22 13.75L17.2477 13.75V12.25L22 12.25L22 13.75ZM22 20.75L20.5 20.75L20.5 19.25L22 19.25L22 20.75Z" fill="#141B34"/>
<path d="M10 10L7.4208 7.95293C7.12046 7.70142 6.97029 7.57566 7.00489 7.44575C7.03949 7.31585 7.2321 7.2823 7.61731 7.2152L8.791 7.01076C9.2386 6.9328 9.29456 6.81797 9.09518 6.41057L7.85175 3.86983C7.60519 3.36602 7.48191 3.11411 7.59471 3.00758C7.70751 2.90105 7.95005 3.04033 8.43513 3.31888L10.5276 4.52048C10.8881 4.72749 10.9241 4.71655 11.1098 4.34335L11.9545 2.64567C12.1743 2.20381 12.2843 1.98289 12.431 2.00103C12.5777 2.01918 12.631 2.26031 12.7376 2.74255L13.4189 5.8235C13.5082 6.22731 13.6121 6.28276 13.9925 6.11893L16.2626 5.14123C16.658 4.97095 16.8557 4.88581 16.9558 4.98398C17.0559 5.08215 16.976 5.28282 16.8163 5.68417L15 10" stroke="#141B34" stroke-width="1.5" stroke-linecap="round" stroke-linejoin="round"/>
<path d="M12.5 10L12 8.5" stroke="#141B34" stroke-width="1.5" stroke-linecap="round" stroke-linejoin="round"/>
</svg>
