<svg width="24" height="24" viewBox="0 0 24 24" fill="none" xmlns="http://www.w3.org/2000/svg">
<path d="M7.00021 2C5.70003 2.12853 4.82485 2.41902 4.17163 3.07554C3 4.25309 3 6.14832 3 9.93879V13.9592C3 17.7497 3 19.6449 4.17163 20.8225C5.34327 22 7.22898 22 11.0004 22H13.0005C16.7719 22 18.6577 22 19.8293 20.8225C20.8926 19.7538 20.9909 18.1056 21 14.9766" stroke="#141B34" stroke-width="1.5" stroke-linecap="round" stroke-linejoin="round"/>
<path d="M12.0068 6.83559C11.916 6.43146 11.5147 6.17744 11.1106 6.26824C10.7065 6.35904 10.4524 6.76027 10.5432 7.16441L12.0068 6.83559ZM12.0893 10.6246L12.8211 10.4602L12.0893 10.6246ZM19.8099 7.23042C19.9027 6.82673 19.6506 6.42428 19.2469 6.33154C18.8432 6.2388 18.4408 6.49088 18.348 6.89458L19.8099 7.23042ZM18.2607 10.6246L17.5297 10.4567L17.5289 10.4602L18.2607 10.6246ZM12.4886 11.2527L12.9141 10.6352H12.9141L12.4886 11.2527ZM17.8614 11.2527L18.287 11.8703V11.8703L17.8614 11.2527ZM22.2083 5.76017C22.2083 5.34595 21.8725 5.01017 21.4583 5.01017C21.0441 5.01017 20.7083 5.34595 20.7083 5.76017H22.2083ZM20.7083 10.4375C20.7083 10.8517 21.0441 11.1875 21.4583 11.1875C21.8725 11.1875 22.2083 10.8517 22.2083 10.4375H20.7083ZM9.75 5.125C9.75 5.26448 9.69808 5.34501 9.69714 5.34653C9.69283 5.35348 9.70458 5.33354 9.75231 5.28702C9.8477 5.19404 10.0116 5.06693 10.2501 4.91249C10.7213 4.60742 11.3827 4.26001 12.1017 3.92944C12.8173 3.60043 13.5674 3.29833 14.2071 3.08022C14.5272 2.97107 14.8118 2.88565 15.0457 2.82834C15.2924 2.76791 15.4386 2.75 15.5 2.75V1.25C15.2537 1.25 14.9659 1.30354 14.6888 1.37142C14.399 1.44243 14.07 1.54218 13.723 1.66048C13.0285 1.89727 12.2306 2.21919 11.4751 2.5666C10.7229 2.91245 9.99012 3.29388 9.4349 3.65337C9.16022 3.83121 8.90287 4.02031 8.70531 4.21287C8.60655 4.30913 8.5039 4.42431 8.42181 4.55688C8.34309 4.68403 8.25 4.88069 8.25 5.125H9.75ZM22.75 5.125C22.75 4.88069 22.6569 4.68403 22.5782 4.55688C22.4961 4.42431 22.3934 4.30913 22.2947 4.21287C22.0971 4.02031 21.8398 3.83121 21.5651 3.65337C21.0099 3.29388 20.2771 2.91245 19.5249 2.5666C18.7694 2.21919 17.9715 1.89727 17.277 1.66048C16.93 1.54218 16.601 1.44243 16.3112 1.37142C16.0341 1.30354 15.7463 1.25 15.5 1.25V2.75C15.5614 2.75 15.7076 2.76791 15.9543 2.82834C16.1882 2.88565 16.4728 2.97107 16.7929 3.08022C17.4326 3.29833 18.1827 3.60043 18.8983 3.92944C19.6173 4.26001 20.2787 4.60742 20.7499 4.91249C20.9884 5.06693 21.1523 5.19404 21.2477 5.28702C21.2954 5.33354 21.3072 5.35348 21.3029 5.34653C21.3019 5.34501 21.25 5.26448 21.25 5.125H22.75ZM21.25 5.125C21.25 4.98552 21.3019 4.90499 21.3029 4.90347C21.3072 4.89652 21.2954 4.91646 21.2477 4.96298C21.1523 5.05596 20.9884 5.18308 20.7499 5.33751C20.2787 5.64258 19.6173 5.98999 18.8983 6.32056C18.1827 6.64957 17.4326 6.95167 16.7929 7.16978C16.4728 7.27893 16.1882 7.36436 15.9543 7.42166C15.7076 7.48209 15.5614 7.5 15.5 7.5V9C15.7463 9 16.0341 8.94646 16.3112 8.87858C16.601 8.80757 16.93 8.70782 17.277 8.58952C17.9715 8.35273 18.7694 8.03081 19.5249 7.6834C20.2771 7.33755 21.0099 6.95612 21.5651 6.59663C21.8398 6.41879 22.0971 6.22969 22.2947 6.03713C22.3934 5.94087 22.4961 5.82569 22.5782 5.69312C22.6569 5.56597 22.75 5.36931 22.75 5.125H21.25ZM8.25 5.125C8.25 5.36931 8.34309 5.56597 8.42181 5.69312C8.5039 5.82569 8.60655 5.94087 8.70531 6.03713C8.90287 6.22969 9.16022 6.41879 9.4349 6.59663C9.99012 6.95612 10.7229 7.33755 11.4751 7.6834C12.2306 8.03081 13.0285 8.35273 13.723 8.58952C14.07 8.70782 14.399 8.80757 14.6888 8.87858C14.9659 8.94646 15.2537 9 15.5 9V7.5C15.4386 7.5 15.2924 7.48209 15.0457 7.42166C14.8118 7.36436 14.5272 7.27893 14.2071 7.16978C13.5674 6.95167 12.8173 6.64957 12.1017 6.32056C11.3827 5.98999 10.7213 5.64258 10.2501 5.33751C10.0116 5.18308 9.8477 5.05596 9.75231 4.96298C9.70458 4.91646 9.69283 4.89652 9.69714 4.90347C9.69808 4.90499 9.75 4.98552 9.75 5.125H8.25ZM10.5432 7.16441L11.3576 10.789L12.8211 10.4602L12.0068 6.83559L10.5432 7.16441ZM18.348 6.89458L17.5297 10.4567L18.9916 10.7925L19.8099 7.23042L18.348 6.89458ZM12.063 11.8703C12.9408 12.4751 14.0817 12.75 15.175 12.75C16.2683 12.75 17.4092 12.4751 18.287 11.8703L17.4359 10.6352C16.8676 11.0267 16.0451 11.25 15.175 11.25C14.3049 11.25 13.4824 11.0267 12.9141 10.6352L12.063 11.8703ZM17.5289 10.4602C17.5037 10.5725 17.4586 10.6195 17.4359 10.6352L18.287 11.8703C18.6936 11.5901 18.9061 11.1732 18.9924 10.789L17.5289 10.4602ZM11.3576 10.789C11.4439 11.1732 11.6564 11.5901 12.063 11.8703L12.9141 10.6352C12.8914 10.6195 12.8463 10.5725 12.8211 10.4602L11.3576 10.789ZM20.7083 5.76017V10.4375H22.2083V5.76017H20.7083Z" fill="#141B34"/>
</svg>
