<svg width="24" height="24" viewBox="0 0 24 24" fill="none" xmlns="http://www.w3.org/2000/svg">
<path d="M20.6216 6.52183L20.0463 6.04068V6.04068L20.6216 6.52183ZM17.3963 10.3783L16.821 9.89713C16.6847 10.06 16.6239 10.2731 16.6537 10.4834C16.6834 10.6936 16.801 10.8814 16.9771 11.0002L17.3963 10.3783ZM20.9893 16.087L20.2438 16.1696V16.1696L20.9893 16.087ZM20.3554 4.33015L19.8813 4.9113V4.9113L20.3554 4.33015ZM18.2368 4.5763L18.8121 5.05746V5.05746L18.2368 4.5763ZM17.5499 19.7433L17.8527 20.4294H17.8527L17.5499 19.7433ZM15.2617 20.9148L14.6863 20.4336V20.4336L15.2617 20.9148ZM12.7678 11.1155L12.0293 11.2465C12.0802 11.5336 12.2929 11.7652 12.5746 11.8402C12.8563 11.9153 13.1561 11.8203 13.3431 11.5967L12.7678 11.1155ZM12.3398 8.70291L13.0783 8.57191L13.0783 8.57191L12.3398 8.70291ZM9.29277 8.94465L10.0425 8.96427C10.0426 8.95936 10.0427 8.95444 10.0428 8.94953L9.29277 8.94465ZM9.16742 13.7335L9.91716 13.7532L9.91716 13.7531L9.16742 13.7335ZM10.5118 7.47571L10.3617 6.7409L10.3617 6.7409L10.5118 7.47571ZM13.7788 21.5188C13.513 21.8366 13.5552 22.3096 13.8729 22.5753C14.1906 22.8411 14.6636 22.7989 14.9294 22.4812L13.7788 21.5188ZM7.42468 16.3352C7.15895 16.6529 7.20111 17.1259 7.51884 17.3917C7.83658 17.6574 8.30958 17.6152 8.57532 17.2975L7.42468 16.3352ZM8.95922 15.4726L9.65486 15.753L9.65486 15.753L8.95922 15.4726ZM8.99781 15.3708L9.70465 15.6215L9.70465 15.6215L8.99781 15.3708ZM20.0463 6.04068L16.821 9.89713L17.9716 10.8594L21.1969 7.00299L20.0463 6.04068ZM16.9771 11.0002C18.1178 11.7692 19.96 13.6097 20.2438 16.1696L21.7347 16.0043C21.3834 12.8354 19.1494 10.6557 17.8155 9.75641L16.9771 11.0002ZM19.8813 4.9113C20.2492 5.21143 20.2876 5.7521 20.0463 6.04068L21.1969 7.00299C22.0398 5.99513 21.7628 4.51043 20.8295 3.74901L19.8813 4.9113ZM20.8295 3.74901C19.8311 2.93455 18.4419 3.162 17.6614 4.09514L18.8121 5.05746C19.1159 4.69416 19.5784 4.66421 19.8813 4.9113L20.8295 3.74901ZM20.2438 16.1696C20.2954 16.6353 20.009 17.1796 19.3419 17.7652C18.7022 18.3268 17.8701 18.7822 17.2471 19.0572L17.8527 20.4294C18.555 20.1195 19.5361 19.5907 20.3315 18.8924C21.0996 18.2181 21.8702 17.2266 21.7347 16.0043L20.2438 16.1696ZM17.2471 19.0572C17.0934 19.125 16.9159 19.1909 16.7045 19.2684C16.5013 19.343 16.2688 19.4276 16.0407 19.5236C15.5988 19.7096 15.0658 19.9799 14.6863 20.4336L15.837 21.396C15.9767 21.2289 16.2294 21.0716 16.6225 20.9062C16.812 20.8264 17.0094 20.7544 17.2212 20.6766C17.4251 20.6019 17.6479 20.5199 17.8527 20.4294L17.2471 19.0572ZM13.5063 10.9845L13.0783 8.57191L11.6013 8.83391L12.0293 11.2465L13.5063 10.9845ZM8.54303 8.92502L8.41768 13.7139L9.91716 13.7531L10.0425 8.96427L8.54303 8.92502ZM10.3617 6.7409C9.3136 6.95505 8.54977 7.86618 8.54279 8.93977L10.0428 8.94953C10.045 8.59732 10.2963 8.28524 10.662 8.21053L10.3617 6.7409ZM13.0783 8.57191C12.8534 7.30414 11.6167 6.48446 10.3617 6.7409L10.662 8.21053C11.1061 8.11977 11.5266 8.41263 11.6013 8.83391L13.0783 8.57191ZM14.6863 20.4336L13.7788 21.5188L14.9294 22.4812L15.837 21.396L14.6863 20.4336ZM8.57532 17.2975C9.08232 16.6913 9.44728 16.2681 9.65486 15.753L8.26358 15.1923C8.16509 15.4367 7.99259 15.6561 7.42468 16.3352L8.57532 17.2975ZM8.41768 13.7139C8.3946 14.5955 8.37885 14.8723 8.29097 15.12L9.70465 15.6215C9.89047 15.0977 9.89656 14.54 9.91716 13.7532L8.41768 13.7139ZM9.65486 15.753C9.67238 15.7095 9.68898 15.6657 9.70465 15.6215L8.29097 15.12C8.28235 15.1443 8.27322 15.1684 8.26358 15.1923L9.65486 15.753ZM13.3431 11.5967L18.8121 5.05746L17.6614 4.09514L12.1925 10.6344L13.3431 11.5967Z" fill="#141B34"/>
<path d="M7.51482 2.83481C7.10669 2.90552 6.83315 3.2937 6.90386 3.70184C6.97457 4.10997 7.36275 4.3835 7.77089 4.31279L7.51482 2.83481ZM4.3166 7.76628C4.38153 7.35719 4.10254 6.97291 3.69345 6.90797C3.28436 6.84304 2.90008 7.12203 2.83514 7.53112L4.3166 7.76628ZM4.08659 4.81445C3.82103 5.13234 3.86344 5.60531 4.18133 5.87087C4.49921 6.13643 4.97219 6.09402 5.23775 5.77613L4.08659 4.81445ZM5.77553 5.23805C6.0933 4.97235 6.13551 4.49936 5.86981 4.18159C5.60411 3.86382 5.13112 3.82161 4.81335 4.08731L5.77553 5.23805ZM9 2.75C8.56231 2.75 8.04082 2.74368 7.51482 2.83481L7.77089 4.31279C8.14453 4.24806 8.52716 4.25 9 4.25V2.75ZM4.25 9C4.25 8.54086 4.25609 8.14743 4.3166 7.76628L2.83514 7.53112C2.75395 8.04263 2.75 8.54436 2.75 9H4.25ZM5.23775 5.77613C5.40068 5.5811 5.5807 5.40096 5.77553 5.23805L4.81335 4.08731C4.5499 4.30759 4.30666 4.55102 4.08659 4.81445L5.23775 5.77613ZM11.25 3.5C11.25 3.91421 10.9142 4.25 10.5 4.25V5.75C11.7426 5.75 12.75 4.74264 12.75 3.5H11.25ZM10.5 4.25C10.0858 4.25 9.75 3.91421 9.75 3.5H8.25C8.25 4.74264 9.25736 5.75 10.5 5.75V4.25ZM9.75 3.5C9.75 3.08579 10.0858 2.75 10.5 2.75V1.25C9.25736 1.25 8.25 2.25736 8.25 3.5H9.75ZM10.5 2.75C10.9142 2.75 11.25 3.08579 11.25 3.5H12.75C12.75 2.25736 11.7426 1.25 10.5 1.25V2.75ZM4.25 10.5C4.25 10.9142 3.91421 11.25 3.5 11.25V12.75C4.74264 12.75 5.75 11.7426 5.75 10.5H4.25ZM3.5 11.25C3.08579 11.25 2.75 10.9142 2.75 10.5H1.25C1.25 11.7426 2.25736 12.75 3.5 12.75V11.25ZM2.75 10.5C2.75 10.0858 3.08579 9.75 3.5 9.75V8.25C2.25736 8.25 1.25 9.25736 1.25 10.5H2.75ZM3.5 9.75C3.91421 9.75 4.25 10.0858 4.25 10.5H5.75C5.75 9.25736 4.74264 8.25 3.5 8.25V9.75Z" fill="#141B34"/>
</svg>
