<svg width="24" height="24" viewBox="0 0 24 24" fill="none" xmlns="http://www.w3.org/2000/svg">
<path d="M2 2L22 22" stroke="#141B34" stroke-width="1.5" stroke-linecap="round"/>
<path d="M6.26478 21.7478L6.01636 22.4555L6.26478 21.7478ZM3.76796 19.3979L3.07072 19.6742V19.6742L3.76796 19.3979ZM15.6616 21.5586L15.4132 20.851L15.6616 21.5586ZM18.7969 2.79784L18.365 3.41094L18.7969 2.79784ZM19.6523 3.60289L19.0653 4.06975L19.6523 3.60289ZM21.25 12C21.25 11.5858 20.9142 11.25 20.5 11.25C20.0858 11.25 19.75 11.5858 19.75 12H21.25ZM13.8901 16.5686L13.1657 16.3745L13.8901 16.5686ZM15.0686 15.3901L14.8745 14.6657H14.8745L15.0686 15.3901ZM10.5 21.25C10.0858 21.25 9.75 21.5858 9.75 22C9.75 22.4142 10.0858 22.75 10.5 22.75V21.25ZM4.75634 4.40714C4.93648 4.03415 4.78013 3.58575 4.40714 3.40561C4.03415 3.22548 3.58575 3.38182 3.40561 3.75481L4.75634 4.40714ZM19.6901 19.551C19.942 19.2222 19.8798 18.7515 19.551 18.4995C19.2222 18.2475 18.7515 18.3098 18.4995 18.6386L19.6901 19.551ZM15.4477 16.0766C15.8572 16.0145 16.1388 15.6321 16.0766 15.2226C16.0145 14.8131 15.6321 14.5315 15.2226 14.5936L15.4477 16.0766ZM19.6182 16.0164C19.5618 16.4267 19.8487 16.8051 20.259 16.8616C20.6694 16.918 21.0478 16.6311 21.1042 16.2208L19.6182 16.0164ZM18.5995 14.15C18.2551 14.3801 18.1625 14.8458 18.3926 15.1902C18.6227 15.5346 19.0885 15.6273 19.4329 15.3972L18.5995 14.15ZM6.36069 1.5556C5.95705 1.6486 5.70523 2.05121 5.79824 2.45485C5.89124 2.85848 6.29385 3.1103 6.69749 3.0173L6.36069 1.5556ZM12 2.75H12.7727V1.25H12V2.75ZM19.75 9.27273V11.8182H21.25V9.27273H19.75ZM4.25 16.1818V10H2.75V16.1818H4.25ZM9.68182 21.25C7.81928 21.25 7.08053 21.2393 6.5132 21.0401L6.01636 22.4555C6.8859 22.7607 7.94622 22.75 9.68182 22.75V21.25ZM2.75 16.1818C2.75 17.0185 2.74962 17.6824 2.78512 18.2206C2.82106 18.7655 2.89606 19.2334 3.07072 19.6742L4.46521 19.1215C4.37191 18.8861 4.31292 18.5926 4.28187 18.1219C4.25038 17.6444 4.25 17.0383 4.25 16.1818H2.75ZM6.5132 21.0401C5.55229 20.7028 4.81176 19.996 4.46521 19.1215L3.07072 19.6742C3.58574 20.9738 4.66729 21.9819 6.01636 22.4555L6.5132 21.0401ZM9.68182 22.75C12.7667 22.75 14.5017 22.7607 15.9101 22.2663L15.4132 20.851C14.3071 21.2393 12.8937 21.25 9.68182 21.25V22.75ZM12.7727 2.75C14.4194 2.75 15.5965 2.75095 16.5054 2.84569C17.4023 2.93918 17.9478 3.11702 18.365 3.41094L19.2289 2.18473C18.5137 1.68081 17.6776 1.45974 16.6609 1.35377C15.6561 1.24905 14.3872 1.25 12.7727 1.25V2.75ZM21.25 9.27273C21.25 7.7562 21.2512 6.55336 21.1389 5.59882C21.0245 4.62665 20.7842 3.82109 20.2393 3.13602L19.0653 4.06975C19.3681 4.45047 19.5516 4.94515 19.6492 5.77411C19.7488 6.62069 19.75 7.71989 19.75 9.27273H21.25ZM18.365 3.41094C18.6321 3.59913 18.8677 3.82123 19.0653 4.06975L20.2393 3.13602C19.9512 2.77382 19.6107 2.45373 19.2289 2.18473L18.365 3.41094ZM14.6146 16.7628C14.6993 16.4464 14.9464 16.1993 15.2627 16.1146L14.8745 14.6657C14.0405 14.8891 13.3891 15.5406 13.1657 16.3745L14.6146 16.7628ZM10.5 22.75C12.7552 22.75 14.5833 20.9218 14.5833 18.6667H13.0833C13.0833 20.0934 11.9267 21.25 10.5 21.25V22.75ZM14.5833 18.6667C14.5833 18.4809 14.5752 18.2913 14.567 18.1142C14.5586 17.9319 14.55 17.7633 14.5465 17.5952C14.5394 17.2545 14.5558 16.9819 14.6146 16.7628L13.1657 16.3745C13.051 16.8027 13.039 17.2462 13.0468 17.6263C13.0508 17.8186 13.0606 18.0114 13.0686 18.1838C13.0769 18.3614 13.0833 18.5195 13.0833 18.6667H14.5833ZM4.25 10C4.25 8.52702 4.25048 7.38024 4.3205 6.45098C4.39061 5.5206 4.52665 4.88275 4.75634 4.40714L3.40561 3.75481C3.05433 4.48218 2.89988 5.34119 2.82474 6.33826C2.74952 7.33644 2.75 8.54768 2.75 10H4.25ZM18.4995 18.6386C17.7384 19.6317 16.6707 20.4096 15.4132 20.851L15.9101 22.2663C17.4362 21.7306 18.7473 20.7811 19.6901 19.551L18.4995 18.6386ZM15.2226 14.5936C15.108 14.611 14.9914 14.6344 14.8745 14.6657L15.2627 16.1146C15.319 16.0995 15.3805 16.0868 15.4477 16.0766L15.2226 14.5936ZM19.75 11.8182C19.75 13.8164 19.7483 15.0708 19.6182 16.0164L21.1042 16.2208C21.2517 15.1484 21.25 13.7694 21.25 11.8182H19.75ZM19.75 12C19.75 12.8957 19.2948 13.6854 18.5995 14.15L19.4329 15.3972C20.5269 14.6662 21.25 13.4177 21.25 12H19.75ZM12 1.25C9.53546 1.25 7.7078 1.2452 6.36069 1.5556L6.69749 3.0173C7.83672 2.7548 9.45343 2.75 12 2.75V1.25Z" fill="#141B34"/>
</svg>
