<svg width="24" height="24" viewBox="0 0 24 24" fill="none" xmlns="http://www.w3.org/2000/svg">
<path d="M12 5L10.8961 3.45459C10.4851 2.87911 10.2795 2.59137 10.4093 2.32411C10.5391 2.05684 10.8689 2.04153 11.5286 2.01092C11.6848 2.00367 11.842 2 12 2C17.5228 2 22 6.47715 22 12C22 17.5228 17.5228 22 12 22C6.47715 22 2 17.5228 2 12C2 8.72836 3.57111 5.82368 6 3.99927" stroke="#141B34" stroke-width="1.5" stroke-linecap="round" stroke-linejoin="round"/>
<path d="M16 10.75C16.4142 10.75 16.75 10.4142 16.75 10C16.75 9.58579 16.4142 9.25 16 9.25V10.75ZM12.8651 10.4138L12.1263 10.2845V10.2845L12.8651 10.4138ZM12.5 12.5L11.7612 12.3707C11.7147 12.6365 11.8145 12.9067 12.0226 13.0784C12.2306 13.2501 12.5149 13.2969 12.767 13.2009L12.5 12.5ZM12.9067 12.3451L13.1737 13.0459L12.9067 12.3451ZM14.7575 12.216L14.5904 12.9471L14.5904 12.9471L14.7575 12.216ZM13.25 15C13.25 14.5858 12.9142 14.25 12.5 14.25C12.0858 14.25 11.75 14.5858 11.75 15H13.25ZM9.50005 10.3163L10.25 10.3163V10.3163H9.50005ZM8.75005 16C8.75005 16.4142 9.08583 16.75 9.50005 16.75C9.91426 16.75 10.25 16.4142 10.25 16H8.75005ZM9.02005 10.0637L8.55534 9.47504C8.54075 9.48656 8.52659 9.49862 8.51289 9.51119L9.02005 10.0637ZM7.49284 10.4475C7.18769 10.7276 7.16737 11.202 7.44747 11.5072C7.72756 11.8123 8.202 11.8326 8.50716 11.5525L7.49284 10.4475ZM16 9.25H13.3576V10.75H16V9.25ZM12.1263 10.2845L11.7612 12.3707L13.2388 12.6293L13.6039 10.5431L12.1263 10.2845ZM12.767 13.2009L13.1737 13.0459L12.6397 11.6442L12.233 11.7991L12.767 13.2009ZM15.25 13.7746V14.25H16.75V13.7746H15.25ZM14.25 15.25H13.5V16.75H14.25V15.25ZM15.25 14.25C15.25 14.8023 14.8023 15.25 14.25 15.25V16.75C15.6307 16.75 16.75 15.6307 16.75 14.25H15.25ZM14.5904 12.9471C14.9763 13.0354 15.25 13.3787 15.25 13.7746H16.75C16.75 12.679 15.9926 11.729 14.9246 11.4848L14.5904 12.9471ZM13.1737 13.0459C13.6257 12.8737 14.1187 12.8393 14.5904 12.9471L14.9246 11.4848C14.1639 11.311 13.3688 11.3664 12.6397 11.6442L13.1737 13.0459ZM13.5 15.25C13.3619 15.25 13.25 15.1381 13.25 15H11.75C11.75 15.9665 12.5335 16.75 13.5 16.75V15.25ZM13.3576 9.25C12.7504 9.25 12.231 9.68639 12.1263 10.2845L13.6039 10.5431C13.5829 10.6627 13.479 10.75 13.3576 10.75V9.25ZM8.75005 10.3163L8.75005 16H10.25L10.25 10.3163L8.75005 10.3163ZM10.25 10.3163C10.25 9.50615 9.30414 8.88394 8.55534 9.47504L9.48475 10.6524C9.33346 10.7718 9.13163 10.7748 8.98493 10.6976C8.84203 10.6224 8.75005 10.4739 8.75005 10.3163H10.25ZM8.51289 9.51119L7.49284 10.4475L8.50716 11.5525L9.5272 10.6163L8.51289 9.51119Z" fill="#141B34"/>
</svg>
