<svg width="24" height="24" viewBox="0 0 24 24" fill="none" xmlns="http://www.w3.org/2000/svg">
<path d="M11.5 20.5C11.0858 20.5 10.75 20.1642 10.75 19.75C10.75 19.3358 11.0858 19 11.5 19L11.5 20.5ZM17.4792 5.81729L17.0579 6.43779L17.0579 6.43779L17.4792 5.81729ZM18.3093 6.3809L18.7306 5.7604L18.7306 5.7604L18.3093 6.3809ZM10.8747 6.2843L10.3316 5.76704C10.3444 5.75364 10.3577 5.74071 10.3714 5.72829L10.8747 6.2843ZM10.0431 8.24493C9.75741 8.54487 9.28268 8.55643 8.98274 8.27076C8.6828 7.98508 8.67124 7.51035 8.95691 7.21041L10.0431 8.24493ZM14.4372 4.25519L14.3927 5.00387L14.4372 4.25519ZM13.6756 4.30904L13.5262 3.57406L13.6756 4.30904ZM18.168 19.4583L18.4223 20.1639L18.168 19.4583ZM21.2136 16.3566L20.5051 16.1104L21.2136 16.3566ZM21.3872 10.197L20.6535 10.3527L20.6535 10.3527L21.3872 10.197ZM20.0896 7.72767L19.5464 8.24483L20.0896 7.72767ZM14 7C14.4142 7 14.75 7.33579 14.75 7.75C14.75 8.16422 14.4142 8.5 14 8.5L14 7ZM10.5 10C10.9142 10 11.25 10.3358 11.25 10.75C11.25 11.1642 10.9142 11.5 10.5 11.5L10.5 10ZM10.5 13C10.9142 13 11.25 13.3358 11.25 13.75C11.25 14.1642 10.9142 14.5 10.5 14.5L10.5 13ZM8.5 13.75L7.75 13.75C7.75 13.3358 8.08579 13 8.5 13L8.5 13.75ZM11.5 16C11.9142 16 12.25 16.3358 12.25 16.75C12.25 17.1642 11.9142 17.5 11.5 17.5L11.5 16ZM9.5 16.75L8.76021 16.8733C8.72396 16.6558 8.78523 16.4334 8.92774 16.2652C9.07024 16.097 9.27954 16 9.5 16L9.5 16.75ZM9.72147 18.0788L8.98167 18.2021L9.72147 18.0788ZM12.5 19C12.9142 19 13.25 19.3358 13.25 19.75C13.25 20.1642 12.9142 20.5 12.5 20.5L12.5 19ZM11.5 19L14.3347 19L14.3347 20.5L11.5 20.5L11.5 19ZM17.9005 5.19679L18.7306 5.7604L17.888 7.00139L17.0579 6.43779L17.9005 5.19679ZM11.4178 6.80156L10.0431 8.24493L8.95691 7.21041L10.3316 5.76704L11.4178 6.80156ZM17.0579 6.43779C16.3026 5.92498 15.7799 5.57104 15.346 5.33415C14.9245 5.10404 14.6465 5.01895 14.3927 5.00387L14.4817 3.50651C15.0402 3.53969 15.54 3.73104 16.0648 4.01761C16.5773 4.2974 17.1693 4.70038 17.9005 5.19679L17.0579 6.43779ZM10.3714 5.72829C11.0282 5.13366 11.5597 4.65143 12.029 4.30239C12.5095 3.94502 12.978 3.68545 13.5262 3.57406L13.8249 5.04403C13.5751 5.09477 13.3108 5.21846 12.9242 5.50599C12.5264 5.80186 12.0564 6.22619 11.3781 6.84031L10.3714 5.72829ZM14.3927 5.00387C14.2026 4.99257 14.0118 5.00605 13.8249 5.04403L13.5262 3.57406C13.8405 3.5102 14.1616 3.48749 14.4817 3.50651L14.3927 5.00387ZM14.3347 19C16.4151 19 17.2586 18.9888 17.9137 18.7527L18.4223 20.1639C17.4586 20.5112 16.2862 20.5 14.3347 20.5L14.3347 19ZM22.25 12.4527C22.25 14.4432 22.2605 15.6287 21.922 16.6027L20.5051 16.1104C20.7395 15.4358 20.75 14.5682 20.75 12.4527L22.25 12.4527ZM17.9137 18.7527C19.1201 18.318 20.0747 17.3492 20.5051 16.1104L21.922 16.6027C21.3455 18.2621 20.0616 19.5731 18.4223 20.1639L17.9137 18.7527ZM20.75 12.4527C20.75 11.2705 20.7461 10.7891 20.6535 10.3527L22.1209 10.0414C22.2539 10.6681 22.25 11.3361 22.25 12.4527L20.75 12.4527ZM18.7306 5.7604C19.6421 6.37928 20.1926 6.74816 20.6328 7.21051L19.5464 8.24483C19.2431 7.92629 18.8545 7.6576 17.888 7.00139L18.7306 5.7604ZM20.6535 10.3527C20.4847 9.55687 20.1005 8.82685 19.5464 8.24483L20.6328 7.21051C21.38 7.99531 21.8949 8.97624 22.1209 10.0414L20.6535 10.3527ZM14 8.5L4 8.5L4 7L14 7L14 8.5ZM4 10L7.5 10L7.5 11.5L4 11.5L4 10ZM3.25 9.25C3.25 9.66422 3.58579 10 4 10L4 11.5C2.75736 11.5 1.75 10.4926 1.75 9.25L3.25 9.25ZM4 8.5C3.58579 8.5 3.25 8.83579 3.25 9.25L1.75 9.25C1.75 8.00736 2.75736 7 4 7L4 8.5ZM8.25 10.75L8.25 11.75L6.75 11.75L6.75 10.75L8.25 10.75ZM9.5 13L10.5 13L10.5 14.5L9.5 14.5L9.5 13ZM8.25 11.75C8.25 12.4404 8.80964 13 9.5 13L9.5 14.5C7.98122 14.5 6.75 13.2688 6.75 11.75L8.25 11.75ZM9.5 14.5L8.5 14.5L8.5 13L9.5 13L9.5 14.5ZM9.25 13.75L9.25 14.75L7.75 14.75L7.75 13.75L9.25 13.75ZM10.5 16L11.5 16L11.5 17.5L10.5 17.5L10.5 16ZM9.25 14.75C9.25 15.4404 9.80964 16 10.5 16L10.5 17.5C8.98122 17.5 7.75 16.2688 7.75 14.75L9.25 14.75ZM10.5 17.5L9.5 17.5L9.5 16L10.5 16L10.5 17.5ZM10.2398 16.6267L10.4613 17.9555L8.98167 18.2021L8.76021 16.8733L10.2398 16.6267ZM11.6943 19L12.5 19L12.5 20.5L11.6943 20.5L11.6943 19ZM10.4613 17.9555C10.5617 18.5582 11.0832 19 11.6943 19L11.6943 20.5C10.3499 20.5 9.20267 19.5281 8.98167 18.2021L10.4613 17.9555ZM7.5 10L10.5 10L10.5 11.5L7.5 11.5L7.5 10Z" fill="#141B34"/>
</svg>
