<svg width="24" height="24" viewBox="0 0 24 24" fill="none" xmlns="http://www.w3.org/2000/svg">
<path d="M9.40154 19.2621L9.21228 19.9878L9.40154 19.2621ZM8.04163 17.6135L7.32693 17.8409L8.04163 17.6135ZM8.37216 18.4848L7.73076 18.8735L8.37216 18.4848ZM15.9567 17.6135L16.6714 17.8409L15.9567 17.6135ZM15.6262 18.4848L16.2676 18.8735L15.6262 18.4848ZM14.5968 19.2621L14.786 19.9878L14.5968 19.2621ZM15.7435 16.6671L16.0256 15.9722L15.7435 16.6671ZM16.0702 17.142L16.8194 17.1077L16.0702 17.142ZM8.25479 16.6671L7.9727 15.9722L8.25479 16.6671ZM7.92809 17.142L7.17888 17.1077L7.92809 17.142ZM15.3071 19.4562C15.3851 19.0494 15.1185 18.6564 14.7117 18.5785C14.3049 18.5005 13.9119 18.7671 13.8339 19.1739L15.3071 19.4562ZM14.4597 19.8936L13.7231 19.7525V19.7525L14.4597 19.8936ZM9.53853 19.8936L10.2751 19.7525V19.7525L9.53853 19.8936ZM10.1643 19.1739C10.0863 18.7671 9.69337 18.5005 9.28656 18.5785C8.87974 18.6564 8.61314 19.0494 8.69108 19.4562L10.1643 19.1739ZM10.8106 21.9093L10.5665 22.6185L10.8106 21.9093ZM9.85615 21.0925L9.19712 21.4506L9.85615 21.0925ZM14.1421 21.0925L14.8011 21.4506L14.8011 21.4506L14.1421 21.0925ZM13.1876 21.9093L13.4317 22.6185L13.1876 21.9093ZM8.71765 17.3809H15.2807V15.8809H8.71765V17.3809ZM13.7033 18.5651H10.295V20.0651H13.7033V18.5651ZM10.295 18.5651C9.79229 18.5651 9.67841 18.5592 9.5908 18.5364L9.21228 19.9878C9.53106 20.0709 9.87739 20.0651 10.295 20.0651V18.5651ZM7.32693 17.8409C7.46032 18.2601 7.56102 18.5934 7.73076 18.8735L9.01356 18.0961C8.95883 18.0057 8.91399 17.8816 8.75632 17.3861L7.32693 17.8409ZM9.5908 18.5364C9.36042 18.4763 9.15107 18.323 9.01356 18.0961L7.73076 18.8735C8.0635 19.4225 8.59133 19.8259 9.21228 19.9878L9.5908 18.5364ZM15.242 17.3861C15.0843 17.8816 15.0395 18.0057 14.9848 18.0961L16.2676 18.8735C16.4373 18.5934 16.538 18.2601 16.6714 17.8409L15.242 17.3861ZM13.7033 20.0651C14.1209 20.0651 14.4673 20.0709 14.786 19.9878L14.4075 18.5364C14.3199 18.5592 14.206 18.5651 13.7033 18.5651V20.0651ZM14.9848 18.0961C14.8473 18.323 14.6379 18.4763 14.4075 18.5364L14.786 19.9878C15.407 19.8259 15.9348 19.4225 16.2676 18.8735L14.9848 18.0961ZM15.2807 17.3809C15.3442 17.3809 15.3939 17.3809 15.4367 17.3814C15.4795 17.3819 15.5071 17.3828 15.5258 17.384C15.569 17.3866 15.5279 17.389 15.4614 17.362L16.0256 15.9722C15.8698 15.909 15.7218 15.8932 15.6182 15.8868C15.5162 15.8805 15.3957 15.8809 15.2807 15.8809V17.3809ZM16.6714 17.8409C16.7081 17.7255 16.7455 17.6089 16.7711 17.5091C16.7971 17.408 16.8268 17.2678 16.8194 17.1077L15.321 17.1763C15.3183 17.1165 15.3306 17.0882 15.3183 17.1359C15.3129 17.1571 15.3045 17.1865 15.2912 17.2299C15.2779 17.2732 15.262 17.3231 15.242 17.3861L16.6714 17.8409ZM15.4614 17.362C15.3651 17.3229 15.324 17.2414 15.321 17.1763L16.8194 17.1077C16.7971 16.6185 16.4999 16.1647 16.0256 15.9722L15.4614 17.362ZM8.71765 15.8809C8.60267 15.8809 8.48208 15.8805 8.38013 15.8868C8.27652 15.8932 8.1285 15.909 7.9727 15.9722L8.53689 17.362C8.47042 17.389 8.42932 17.3866 8.47256 17.384C8.49124 17.3828 8.51882 17.3819 8.56168 17.3814C8.60444 17.3809 8.65411 17.3809 8.71765 17.3809V15.8809ZM8.75632 17.3861C8.73628 17.3231 8.7204 17.2732 8.70714 17.2299C8.69385 17.1865 8.68546 17.1571 8.68003 17.1359C8.66777 17.0882 8.68005 17.1165 8.67731 17.1763L7.17888 17.1077C7.17155 17.2678 7.20122 17.408 7.22719 17.5091C7.25283 17.6089 7.2902 17.7255 7.32693 17.8409L8.75632 17.3861ZM7.9727 15.9722C7.49844 16.1647 7.20126 16.6185 7.17888 17.1077L8.67731 17.1763C8.67433 17.2414 8.63327 17.3229 8.53689 17.362L7.9727 15.9722ZM13.8339 19.1739L13.7231 19.7525L15.1963 20.0347L15.3071 19.4562L13.8339 19.1739ZM10.2751 19.7525L10.1643 19.1739L8.69108 19.4562L8.80193 20.0347L10.2751 19.7525ZM11.9991 21.2493C11.3233 21.2493 11.1684 21.2393 11.0547 21.2001L10.5665 22.6185C10.9757 22.7593 11.4388 22.7493 11.9991 22.7493V21.2493ZM8.80193 20.0347C8.91289 20.6139 8.99194 21.0729 9.19712 21.4506L10.5152 20.7345C10.4488 20.6122 10.4066 20.4386 10.2751 19.7525L8.80193 20.0347ZM11.0547 21.2001C10.8333 21.124 10.6385 20.9614 10.5152 20.7345L9.19712 21.4506C9.49378 21.9966 9.97933 22.4164 10.5665 22.6185L11.0547 21.2001ZM13.7231 19.7525C13.5916 20.4386 13.5495 20.6122 13.4831 20.7345L14.8011 21.4506C15.0063 21.0729 15.0853 20.6139 15.1963 20.0347L13.7231 19.7525ZM11.9991 22.7493C12.5594 22.7493 13.0226 22.7593 13.4317 22.6185L12.9436 21.2001C12.8298 21.2393 12.6749 21.2493 11.9991 21.2493V22.7493ZM13.4831 20.7345C13.3598 20.9614 13.1649 21.124 12.9436 21.2001L13.4317 22.6185C14.0189 22.4164 14.5044 21.9966 14.8011 21.4506L13.4831 20.7345Z" fill="#141B34"/>
<path d="M6.08938 15C5.71097 14.1494 5.5 13.2031 5.5 12.2059C5.5 8.50233 8.41015 5.5 12 5.5C15.5899 5.5 18.5 8.50233 18.5 12.2059C18.5 13.2031 18.289 14.1494 17.9106 15" stroke="#141B34" stroke-width="1.5" stroke-linecap="round"/>
<path d="M12 2V3" stroke="#141B34" stroke-width="1.5" stroke-linecap="round" stroke-linejoin="round"/>
<path d="M22 12L21 12" stroke="#141B34" stroke-width="1.5" stroke-linecap="round" stroke-linejoin="round"/>
<path d="M3 12L2 12" stroke="#141B34" stroke-width="1.5" stroke-linecap="round" stroke-linejoin="round"/>
<path d="M19.0703 4.92871L18.3632 5.63582" stroke="#141B34" stroke-width="1.5" stroke-linecap="round" stroke-linejoin="round"/>
<path d="M5.63672 5.63672L4.92961 4.92961" stroke="#141B34" stroke-width="1.5" stroke-linecap="round" stroke-linejoin="round"/>
</svg>
