<svg width="24" height="24" viewBox="0 0 24 24" fill="none" xmlns="http://www.w3.org/2000/svg">
<path d="M5.70985 7.32273C5.32789 7.48297 5.14815 7.92252 5.3084 8.30448C5.46864 8.68644 5.90819 8.86618 6.29015 8.70593L5.70985 7.32273ZM17.7098 8.70593C18.0918 8.86618 18.5314 8.68644 18.6916 8.30448C18.8518 7.92252 18.6721 7.48297 18.2901 7.32273L17.7098 8.70593ZM3.05731 14.03L3.09559 14.7791L3.05731 14.03ZM2.97139 13.9809L2.31678 14.347L2.97139 13.9809ZM3.64332 13.646C3.43038 13.2907 2.96975 13.1753 2.61445 13.3882C2.25916 13.6011 2.14375 14.0618 2.35668 14.4171L3.64332 13.646ZM10.9312 19.7468C11.3436 19.7849 11.7088 19.4813 11.7468 19.0688C11.7849 18.6564 11.4813 18.2912 11.0688 18.2532L10.9312 19.7468ZM17.3166 10.1131C17.368 10.5241 17.7429 10.8157 18.1539 10.7643C18.5649 10.7129 18.8564 10.338 18.805 9.92702L17.3166 10.1131ZM21.2027 10.4657C21.1719 10.8787 21.4817 11.2386 21.8948 11.2694C22.3079 11.3002 22.6677 10.9904 22.6986 10.5773L21.2027 10.4657ZM12 6.26146C9.54326 6.26146 7.29332 6.65841 5.70985 7.32273L6.29015 8.70593C7.63846 8.14027 9.67797 7.76146 12 7.76146V6.26146ZM18.2901 7.32273C16.7067 6.65841 14.4567 6.26146 12 6.26146V7.76146C14.322 7.76146 16.3615 8.14027 17.7098 8.70593L18.2901 7.32273ZM3.09559 14.7791C3.96506 14.7346 4.88543 14.1043 5.55635 13.1623C6.25126 12.1867 6.75 10.7926 6.75 9.01719H5.25C5.25 10.5082 4.83314 11.5921 4.33458 12.2921C3.81203 13.0258 3.26105 13.2687 3.01904 13.281L3.09559 14.7791ZM6.75 9.01719C6.75 7.29759 6.51943 5.70971 6.12593 4.52583C5.93049 3.93784 5.68129 3.40787 5.36819 3.00945C5.06194 2.61973 4.60537 2.25 4 2.25V3.75C3.94691 3.75 4.01649 3.71702 4.18879 3.93627C4.35425 4.14683 4.53601 4.49805 4.7025 4.99896C5.03286 5.99287 5.25 7.41359 5.25 9.01719H6.75ZM4 2.25C3.39463 2.25 2.93806 2.61973 2.63181 3.00945C2.31871 3.40787 2.06951 3.93784 1.87407 4.52583C1.48057 5.70971 1.25 7.29759 1.25 9.01719H2.75C2.75 7.41359 2.96714 5.99287 3.2975 4.99896C3.46399 4.49805 3.64575 4.14683 3.81121 3.93627C3.98351 3.71702 4.05309 3.75 4 3.75V2.25ZM1.25 9.01719C1.25 10.8328 1.4027 12.7123 2.31678 14.347L3.626 13.6149C2.91042 12.3352 2.75 10.7877 2.75 9.01719H1.25ZM3.01904 13.281C3.29172 13.2671 3.51607 13.4183 3.626 13.6149L2.31678 14.347C2.46175 14.6062 2.75135 14.7967 3.09559 14.7791L3.01904 13.281ZM18.75 9.01719C18.75 7.41359 18.9671 5.99287 19.2975 4.99896C19.464 4.49805 19.6458 4.14683 19.8112 3.93627C19.9835 3.71702 20.0531 3.75 20 3.75V2.25C19.3946 2.25 18.9381 2.61973 18.6318 3.00945C18.3187 3.40787 18.0695 3.93784 17.8741 4.52583C17.4806 5.70971 17.25 7.29759 17.25 9.01719H18.75ZM20 3.75C19.9469 3.75 20.0165 3.71702 20.1888 3.93627C20.3542 4.14683 20.536 4.49805 20.7025 4.99896C21.0329 5.99287 21.25 7.41359 21.25 9.01719H22.75C22.75 7.29759 22.5194 5.70971 22.1259 4.52583C21.9305 3.93784 21.6813 3.40787 21.3682 3.00945C21.0619 2.61973 20.6054 2.25 20 2.25V3.75ZM2.35668 14.4171C4.11823 17.3564 7.26965 19.4093 10.9312 19.7468L11.0688 18.2532C7.88474 17.9597 5.15957 16.176 3.64332 13.646L2.35668 14.4171ZM18.805 9.92702C18.7695 9.64281 18.75 9.33959 18.75 9.01719H17.25C17.25 9.40019 17.2732 9.76559 17.3166 10.1131L18.805 9.92702ZM21.25 9.01719C21.25 9.51468 21.2376 9.99774 21.2027 10.4657L22.6986 10.5773C22.7371 10.0606 22.75 9.53809 22.75 9.01719H21.25Z" fill="#141B34"/>
<path d="M14.1418 13.4416C15.3486 12.7105 16.4018 13.0051 17.0345 13.4744C17.294 13.6668 17.4237 13.763 17.5 13.763C17.5763 13.763 17.706 13.6668 17.9655 13.4744C18.5982 13.0051 19.6514 12.7105 20.8582 13.4416C22.4419 14.401 22.8002 17.5663 19.1472 20.2368C18.4514 20.7454 18.1035 20.9997 17.5 20.9997C16.8965 20.9997 16.5486 20.7454 15.8528 20.2368C12.1998 17.5663 12.5581 14.401 14.1418 13.4416Z" stroke="#141B34" stroke-width="1.5" stroke-linecap="round"/>
</svg>
