<svg width="24" height="24" viewBox="0 0 24 24" fill="none" xmlns="http://www.w3.org/2000/svg">
<path d="M21.3211 12.4637L20.8028 13.0058H20.8028L21.3211 12.4637ZM20.9985 17.9047L21.6682 18.2423V18.2423L20.9985 17.9047ZM11.3355 13.925L10.9135 14.545C11.1197 14.6853 11.3821 14.714 11.6138 14.6215C11.8454 14.5289 12.0159 14.3273 12.0686 14.0835L11.3355 13.925ZM8.78341 12.1876L8.30102 12.7619C8.32035 12.7781 8.34049 12.7934 8.36136 12.8076L8.78341 12.1876ZM6.3775 14.4841L6.96408 14.0168C6.96105 14.013 6.95797 14.0092 6.95486 14.0054L6.3775 14.4841ZM9.65864 18.6024L10.2452 18.1351H10.2452L9.65864 18.6024ZM6.36948 12.41L5.78849 11.9357H5.78849L6.36948 12.41ZM19.1419 22C19.1419 22.4142 19.4777 22.75 19.8919 22.75C20.3061 22.75 20.6419 22.4142 20.6419 22H19.1419ZM10.1018 22C10.1018 22.4142 10.4376 22.75 10.8518 22.75C11.266 22.75 11.6018 22.4142 11.6018 22H10.1018ZM10.7126 20.2097L9.9999 20.4432L10.7126 20.2097ZM10.6732 20.0974L11.3754 19.834L11.3754 19.834L10.6732 20.0974ZM16.7445 4.99632L16.0097 4.84597L16.0096 4.84636L16.7445 4.99632ZM13.428 4.2472L12.7033 4.05427C12.7002 4.06568 12.6975 4.07716 12.695 4.0887L13.428 4.2472ZM15.6979 10.125L14.963 9.97504C14.9195 10.1884 14.9708 10.4101 15.1036 10.5826C15.2365 10.7551 15.4377 10.8614 15.6551 10.8738L15.6979 10.125ZM20.8028 13.0058C21.2047 13.3901 21.3412 14.0743 21.1912 15.0261C21.0463 15.9452 20.6625 16.9051 20.3287 17.5671L21.6682 18.2423C22.0416 17.5015 22.4951 16.3872 22.6729 15.2597C22.8454 14.1649 22.7896 12.83 21.8393 11.9215L20.8028 13.0058ZM20.3287 17.5671C20.2459 17.7314 20.1416 17.9103 20.0178 18.1205C19.8985 18.3232 19.7624 18.5531 19.638 18.7893C19.3966 19.248 19.1419 19.833 19.1419 20.4629H20.6419C20.6419 20.2134 20.7492 19.8987 20.9654 19.4879C21.0699 19.2894 21.1865 19.0921 21.3105 18.8814C21.4301 18.6782 21.5597 18.4575 21.6682 18.2423L20.3287 17.5671ZM11.7576 13.305L9.20546 11.5676L8.36136 12.8076L10.9135 14.545L11.7576 13.305ZM5.79091 14.9515L9.07205 19.0698L10.2452 18.1351L6.96408 14.0168L5.79091 14.9515ZM5.78849 11.9357C5.06611 12.8206 5.07107 14.0835 5.80013 14.9628L6.95486 14.0054C6.68331 13.6779 6.68159 13.2136 6.95047 12.8843L5.78849 11.9357ZM9.2658 11.6133C8.22354 10.7379 6.65046 10.8798 5.78849 11.9357L6.95047 12.8843C7.27992 12.4807 7.89522 12.421 8.30102 12.7619L9.2658 11.6133ZM19.1419 20.4629V22H20.6419V20.4629H19.1419ZM11.6018 22C11.6018 21.1373 11.6104 20.5411 11.4254 19.9763L9.9999 20.4432C10.0932 20.7281 10.1018 21.0422 10.1018 22H11.6018ZM9.07205 19.0698C9.6734 19.8245 9.86521 20.0789 9.97098 20.3609L11.3754 19.834C11.167 19.2783 10.7871 18.8152 10.2452 18.1351L9.07205 19.0698ZM11.4254 19.9763C11.4097 19.9285 11.3931 19.8811 11.3754 19.834L9.97098 20.3609C9.9812 20.3881 9.99085 20.4156 9.9999 20.4432L11.4254 19.9763ZM12.0686 14.0835L14.1611 4.4057L12.695 4.0887L10.6025 13.7665L12.0686 14.0835ZM14.1528 4.44013C14.2586 4.0428 14.6313 3.75 15.0753 3.75V2.25C13.9699 2.25 12.9886 2.98237 12.7033 4.05427L14.1528 4.44013ZM17.4793 5.14667C17.7894 3.63074 16.6057 2.25 15.0753 2.25V3.75C15.6942 3.75 16.1221 4.29676 16.0097 4.84597L17.4793 5.14667ZM16.0096 4.84636L14.963 9.97504L16.4327 10.275L17.4793 5.14628L16.0096 4.84636ZM15.6551 10.8738C17.2411 10.9643 19.194 11.4677 20.8028 13.0058L21.8393 11.9215C19.8947 10.0623 17.5575 9.47996 15.7406 9.37622L15.6551 10.8738Z" fill="#141B34"/>
<path d="M3.27766 9.46344L3.33673 10.2111H3.33673L3.27766 9.46344ZM4.56605 8.60931C4.97898 8.57669 5.34017 8.88498 5.3728 9.29791C5.40542 9.71084 5.09713 10.072 4.6842 10.1047L4.56605 8.60931ZM1.39544 6.8159C1.42807 6.40297 1.78926 6.09467 2.20218 6.1273C2.61511 6.15992 2.92341 6.52111 2.89078 6.93404L1.39544 6.8159ZM2.03665 8.22244L1.28898 8.16336L2.03665 8.22244ZM9.96354 2.77756L10.7112 2.83664L10.7112 2.83664L9.96354 2.77756ZM10.6047 4.1841C10.5721 4.59703 10.2109 4.90533 9.798 4.8727C9.38508 4.84008 9.07678 4.47889 9.10941 4.06596L10.6047 4.1841ZM7.43414 2.39069C7.02121 2.42331 6.66002 2.11502 6.62739 1.70209C6.59477 1.28916 6.90306 0.927972 7.31599 0.895347L7.43414 2.39069ZM8.72253 1.53656L8.66346 0.788886H8.66346L8.72253 1.53656ZM7.41922 5.14127C7.12633 5.43416 6.65145 5.43416 6.35856 5.14127C6.06567 4.84838 6.06567 4.3735 6.35856 4.08061L7.41922 5.14127ZM4.5808 5.85854C4.8737 5.56566 5.34857 5.56567 5.64146 5.85857C5.93434 6.15147 5.93433 6.62635 5.64143 6.91923L4.5808 5.85854ZM3.21859 8.71577L4.56605 8.60931L4.6842 10.1047L3.33673 10.2111L3.21859 8.71577ZM2.89078 6.93404L2.78432 8.28151L1.28898 8.16336L1.39544 6.8159L2.89078 6.93404ZM3.33673 10.2111C3.04113 10.2345 2.74259 10.2597 2.49826 10.246C2.23975 10.2315 1.89371 10.1685 1.61252 9.88731L2.67318 8.82665C2.57373 8.7272 2.47749 8.7425 2.58215 8.74836C2.63272 8.75119 2.70622 8.75062 2.81758 8.74463C2.92824 8.73866 3.05701 8.72854 3.21859 8.71577L3.33673 10.2111ZM2.78432 8.28151C2.77155 8.44316 2.76141 8.57193 2.75542 8.68263C2.74939 8.79403 2.7488 8.86751 2.75162 8.91807C2.75744 9.02264 2.77273 8.9262 2.67318 8.82665L1.61252 9.88731C1.33123 9.60602 1.26832 9.25991 1.25394 9.00144C1.24034 8.75729 1.26564 8.45878 1.28898 8.16336L2.78432 8.28151ZM10.7112 2.83664L10.6047 4.1841L9.10941 4.06596L9.21587 2.71849L10.7112 2.83664ZM7.31599 0.895347L8.66346 0.788886L8.7816 2.28423L7.43414 2.39069L7.31599 0.895347ZM9.21587 2.71849C9.22863 2.55698 9.23874 2.42824 9.24467 2.31767C9.25064 2.20639 9.25119 2.13296 9.24834 2.08247C9.24245 1.97813 9.22727 2.07413 9.32648 2.17335L10.3871 1.11269C10.6681 1.39364 10.7314 1.73932 10.746 1.99801C10.7597 2.2424 10.7346 2.5409 10.7112 2.83664L9.21587 2.71849ZM8.66346 0.788886C8.959 0.765535 9.25747 0.740299 9.50169 0.753989C9.76034 0.768487 10.1061 0.831629 10.3871 1.11269L9.32648 2.17335C9.4258 2.27266 9.522 2.25748 9.41775 2.25164C9.36727 2.24881 9.29386 2.24937 9.18254 2.25537C9.07193 2.26133 8.94319 2.27146 8.7816 2.28423L8.66346 0.788886ZM6.35856 4.08061L9.32648 1.11269L10.3871 2.17335L7.41922 5.14127L6.35856 4.08061ZM1.61253 8.82664L4.5808 5.85854L5.64143 6.91923L2.67316 9.88733L1.61253 8.82664Z" fill="#141B34"/>
</svg>
