<svg width="24" height="24" viewBox="0 0 24 24" fill="none" xmlns="http://www.w3.org/2000/svg">
<circle cx="8.5" cy="10.5" r="1.5" stroke="#141B34" stroke-width="1.5"/>
<circle cx="15.5" cy="10.5" r="1.5" stroke="#141B34" stroke-width="1.5"/>
<path d="M8.25016 14.5219L8.04857 15.2443H8.04857L8.25016 14.5219ZM7 14.1099L7.26707 13.4091L7 14.1099ZM2.50423 10.4448C2.1976 10.1663 1.72328 10.1891 1.4448 10.4958C1.16632 10.8024 1.18914 11.2767 1.49577 11.5552L2.50423 10.4448ZM9.02192 20.9772L8.95349 21.7241H8.95349L9.02192 20.9772ZM6.01425 18.1332L6.76279 18.0864L6.76279 18.0864L6.01425 18.1332ZM8.45174 13.7995C8.05091 13.6876 7.65579 13.5572 7.26707 13.4091L6.73293 14.8108C7.16394 14.975 7.60274 15.1199 8.04857 15.2443L8.45174 13.7995ZM7.26707 13.4091C5.53235 12.748 3.92365 11.7339 2.50423 10.4448L1.49577 11.5552C3.04226 12.9597 4.80939 14.0778 6.73293 14.8108L7.26707 13.4091ZM9.09034 20.2303C7.81123 20.1131 6.82647 19.1062 6.76279 18.0864L5.26571 18.1799C5.38228 20.0469 7.05182 21.5498 8.95349 21.7241L9.09034 20.2303ZM6.76279 18.0864C6.68114 16.779 6.98403 15.6355 7.64922 14.4854L6.35078 13.7344C5.55333 15.1131 5.16378 16.5477 5.26571 18.1799L6.76279 18.0864ZM10.25 19.8563C10.25 20.0107 10.2138 20.0661 10.2031 20.0808C10.1897 20.0994 10.1561 20.1347 10.0626 20.1704C9.84478 20.2536 9.49741 20.2676 9.09034 20.2303L8.95349 21.7241C9.39795 21.7648 10.0396 21.785 10.598 21.5716C10.8925 21.4591 11.1938 21.2703 11.4182 20.9603C11.6454 20.6464 11.75 20.2685 11.75 19.8563H10.25ZM8.04857 15.2443C8.72448 15.4329 9.16282 15.6649 9.4554 15.9099C9.73936 16.1476 9.91721 16.4233 10.0346 16.7584C10.1569 17.1076 10.2164 17.53 10.2401 18.0591C10.2641 18.5958 10.25 19.1706 10.25 19.8563H11.75C11.75 19.2215 11.7646 18.5733 11.7386 17.9921C11.7122 17.4033 11.643 16.8131 11.4503 16.2627C11.2526 15.6983 10.9293 15.1875 10.4183 14.7597C9.91593 14.3391 9.26564 14.0266 8.45174 13.7995L8.04857 15.2443Z" fill="#141B34"/>
<path d="M15.0061 21.9791L15.0749 22.726H15.0749L15.0061 21.9791ZM17.9983 19.1341L17.2497 19.0876L17.2497 19.0876L17.9983 19.1341ZM17.0212 14.1099L16.7532 13.4095L17.0212 14.1099ZM15.7764 14.5219L15.9787 15.2441H15.9787L15.7764 14.5219ZM22.5054 11.5541C22.8114 11.275 22.8333 10.8006 22.5541 10.4946C22.275 10.1886 21.8006 10.1667 21.4946 10.4459L22.5054 11.5541ZM15.0749 22.726C16.9716 22.5512 18.6311 21.0451 18.7469 19.1805L17.2497 19.0876C17.1862 20.1109 16.2051 21.1155 14.9373 21.2323L15.0749 22.726ZM18.7469 19.1806C18.8568 17.4106 18.6136 15.3741 17.6713 13.736L16.3711 14.4839C17.1144 15.776 17.3493 17.4849 17.2497 19.0876L18.7469 19.1806ZM12.2882 20.8578C12.2882 21.2608 12.3911 21.6311 12.6118 21.9405C12.8296 22.246 13.1229 22.4371 13.4133 22.554C13.9663 22.7766 14.6058 22.7692 15.0749 22.726L14.9373 21.2323C14.5297 21.2698 14.1852 21.2477 13.9735 21.1625C13.8814 21.1255 13.8471 21.0893 13.833 21.0695C13.8217 21.0537 13.7882 21.0007 13.7882 20.8578H12.2882ZM15.9787 15.2441C16.4228 15.1196 16.8599 14.9747 17.2893 14.8104L16.7532 13.4095C16.3662 13.5575 15.9729 13.6879 15.574 13.7997L15.9787 15.2441ZM17.2893 14.8104C19.2053 14.0771 20.9653 12.9588 22.5054 11.5541L21.4946 10.4459C20.0814 11.7348 18.4799 12.7487 16.7532 13.4095L17.2893 14.8104ZM15.574 13.7997C14.6562 14.0569 13.946 14.4415 13.4207 14.9662C12.8915 15.4949 12.5966 16.1191 12.4363 16.7754C12.279 17.419 12.2479 18.1069 12.2501 18.7806C12.2512 19.1198 12.261 19.4686 12.2702 19.8132C12.2795 20.1611 12.2882 20.5075 12.2882 20.8578H13.7882C13.7882 20.485 13.7789 20.1202 13.7697 19.7733C13.7603 19.423 13.7511 19.0936 13.7501 18.7758C13.748 18.1355 13.7803 17.5943 13.8934 17.1315C14.0034 16.6814 14.186 16.322 14.4808 16.0275C14.7795 15.7291 15.2399 15.4511 15.9787 15.2441L15.574 13.7997Z" fill="#141B34"/>
<path d="M19.9981 9C19.989 5.8857 19.8906 4.23467 18.8275 3.17157C17.6559 2 15.7703 2 11.9991 2C8.22783 2 6.34222 2 5.17064 3.17157C4.10755 4.23467 4.00911 5.8857 4 9" stroke="#141B34" stroke-width="1.5" stroke-linecap="round"/>
</svg>
