<svg width="24" height="24" viewBox="0 0 24 24" fill="none" xmlns="http://www.w3.org/2000/svg">
<path d="M20 14.5V2.5L4 2.5V14.5" stroke="#141B34" stroke-width="1.5"/>
<path d="M2 21.5L4.01911 14.5H19.9514L21.9996 21.5H2Z" stroke="#141B34" stroke-width="1.5" stroke-linecap="round" stroke-linejoin="round"/>
<path d="M17 8.5L17.5303 9.03033L18.0607 8.5L17.5303 7.96967L17 8.5ZM7 8.5L6.46967 7.96967L5.93934 8.5L6.46967 9.03033L7 8.5ZM14.4697 7.03033L16.4697 9.03033L17.5303 7.96967L15.5303 5.96967L14.4697 7.03033ZM16.4697 7.96967L14.4697 9.96967L15.5303 11.0303L17.5303 9.03033L16.4697 7.96967ZM8.46967 5.96967L6.46967 7.96967L7.53033 9.03033L9.53033 7.03033L8.46967 5.96967ZM6.46967 9.03033L8.46967 11.0303L9.53033 9.96967L7.53033 7.96967L6.46967 9.03033ZM12.3036 5.72146L10.3036 10.7215L11.6964 11.2785L13.6964 6.27854L12.3036 5.72146Z" fill="#141B34"/>
</svg>
