<svg width="24" height="24" viewBox="0 0 24 24" fill="none" xmlns="http://www.w3.org/2000/svg">
<path d="M2.0162 19.1868C2.11935 19.5879 2.52818 19.8295 2.92935 19.7264C3.33051 19.6232 3.5721 19.2144 3.46894 18.8132L2.0162 19.1868ZM3.43229 6.2532L4.07888 6.63322L3.43229 6.2532ZM13.7834 3.56964L13.2606 4.10739V4.10739L13.7834 3.56964ZM14.9363 7.25147L15.6711 7.40162V7.40162L14.9363 7.25147ZM12.7368 7.21202L13.1318 6.57448L12.7368 7.21202ZM7.29106 6.29461C6.94352 6.06926 6.47909 6.16831 6.25373 6.51586C6.02838 6.86341 6.12743 7.32783 6.47498 7.55319L7.29106 6.29461ZM14.5114 8.02335L14.2473 7.32139L14.2473 7.32139L14.5114 8.02335ZM3.46894 18.8132C3.13757 17.5245 2.76744 15.3381 2.7506 13.0237C2.73363 10.6917 3.07678 8.33824 4.07888 6.63322L2.7857 5.87317C1.57968 7.92514 1.23294 10.6033 1.25064 13.0346C1.26846 15.4834 1.65753 17.7919 2.0162 19.1868L3.46894 18.8132ZM4.07888 6.63322C5.36941 4.43749 7.10443 3.24423 8.76962 2.87629C10.4329 2.50876 12.07 2.94985 13.2606 4.10739L14.3062 3.0319C12.7365 1.50575 10.5781 0.940499 8.44599 1.41162C6.31573 1.88232 4.25535 3.37267 2.7857 5.87317L4.07888 6.63322ZM13.2606 4.10739C13.5347 4.37386 13.8372 4.84532 14.0367 5.41761C14.2352 5.98694 14.3069 6.58501 14.2014 7.10132L15.6711 7.40162C15.8448 6.55146 15.714 5.67209 15.4531 4.92386C15.1934 4.17859 14.7799 3.49237 14.3062 3.0319L13.2606 4.10739ZM13.1318 6.57448C12.7365 6.32953 12.2594 6.17409 11.7128 6.17409V7.67409C11.9643 7.67409 12.1699 7.74305 12.3418 7.84956L13.1318 6.57448ZM11.7128 6.17409C10.5607 6.17409 9.64234 6.57163 9.12058 6.69845C8.83561 6.76771 8.59706 6.79147 8.33971 6.74974C8.07846 6.70738 7.74439 6.58856 7.29106 6.29461L6.47498 7.55319C7.05645 7.93023 7.58474 8.14692 8.09964 8.2304C8.61844 8.31452 9.06984 8.25445 9.47484 8.15601C10.333 7.94743 10.7948 7.67409 11.7128 7.67409V6.17409ZM14.2014 7.10132C14.1778 7.21684 14.1617 7.29477 14.1455 7.35881C14.1294 7.42228 14.1203 7.44205 14.1206 7.44142C14.1237 7.43489 14.1404 7.40306 14.1774 7.3688C14.1946 7.35287 14.2114 7.34093 14.2254 7.33258C14.239 7.32452 14.2473 7.32137 14.2473 7.32139L14.7755 8.72532C15.1053 8.60121 15.3357 8.38029 15.4763 8.08325C15.5829 7.85822 15.6331 7.58726 15.6711 7.40162L14.2014 7.10132ZM12.3418 7.84956C12.8224 8.14733 13.2309 8.40153 13.5554 8.56136C13.7198 8.64235 13.9007 8.71875 14.0869 8.76057C14.2768 8.8032 14.5214 8.8209 14.7755 8.72532L14.2473 7.32139C14.3566 7.28025 14.4308 7.30043 14.4155 7.297C14.3966 7.29276 14.3376 7.27455 14.2183 7.21578C13.9753 7.0961 13.6413 6.89018 13.1318 6.57448L12.3418 7.84956Z" fill="#141B34"/>
<path d="M7.06641 12C7.06641 12 7.06616 15 9.99951 16" stroke="#141B34" stroke-width="1.5" stroke-linecap="round" stroke-linejoin="round"/>
<path d="M22 21.3733C20.5547 22.1843 18.7056 22.1843 17.2604 21.3733C16.3889 20.8756 15.2412 20.8756 14.3698 21.3733C14.3698 21.3733 14.3486 21.3733 14.3486 21.3917C12.9033 22.2028 11.0542 22.2028 9.63019 21.3917C8.73752 20.894 7.61105 20.894 6.73964 21.3917M6.73964 21.3733C5.29436 22.1843 3.44527 22.1843 2 21.3733" stroke="#141B34" stroke-width="1.5" stroke-linecap="round"/>
<path d="M11 7V7C11 12.2467 15.2533 16.5 20.5 16.5H22" stroke="#141B34" stroke-width="1.5" stroke-linecap="round"/>
</svg>
