<svg width="24" height="24" viewBox="0 0 24 24" fill="none" xmlns="http://www.w3.org/2000/svg">
<path fill-rule="evenodd" clip-rule="evenodd" d="M5.70711 18.4179C6.09763 18.8084 6.09763 19.4416 5.70711 19.8321L3.70711 21.8321C3.31658 22.2226 2.68342 22.2226 2.29289 21.8321C1.90237 21.4416 1.90237 20.8084 2.29289 20.4179L4.29289 18.4179C4.68342 18.0274 5.31658 18.0274 5.70711 18.4179ZM18.2929 18.4179C18.6834 18.0274 19.3166 18.0274 19.7071 18.4179L21.7071 20.4179C22.0976 20.8084 22.0976 21.4416 21.7071 21.8321C21.3166 22.2226 20.6834 22.2226 20.2929 21.8321L18.2929 19.8321C17.9024 19.4416 17.9024 18.8084 18.2929 18.4179Z" fill="#141B34"/>
<path d="M3.2632 2.14798C3.87364 2.04982 4.41956 2.28649 4.85156 2.50248L5.44705 2.80023C5.94103 3.04722 6.14126 3.64789 5.89427 4.14187C5.64728 4.63585 5.0466 4.83608 4.55263 4.58909L3.95713 4.29134C3.76703 4.19629 3.65505 4.15289 3.58683 4.13385L3.58245 4.13265L3.57882 4.13507C3.5202 4.17449 3.42732 4.25109 3.27664 4.40177C3.12597 4.55244 3.04937 4.64532 3.00995 4.70394L3.00753 4.70758L3.00873 4.71195C3.02776 4.78017 3.07117 4.89216 3.16622 5.08225L3.46396 5.67775C3.71095 6.17173 3.51073 6.7724 3.01675 7.01939C2.52277 7.26638 1.9221 7.06615 1.67511 6.57217L1.37736 5.97668C1.16136 5.54468 0.924695 4.99876 1.02286 4.38832C1.12115 3.77712 1.51765 3.33233 1.86243 2.98755C2.20721 2.64277 2.65199 2.24627 3.2632 2.14798Z" fill="#141B34"/>
<path d="M20.4128 4.13385C20.3446 4.15289 20.2326 4.19629 20.0425 4.29134L19.4471 4.58909C18.9531 4.83608 18.3524 4.63585 18.1054 4.14187C17.8584 3.64789 18.0586 3.04722 18.5526 2.80023L19.1481 2.50248C19.5801 2.28649 20.126 2.04982 20.7365 2.14798C21.3477 2.24627 21.7925 2.64277 22.1372 2.98755C22.482 3.33233 22.8785 3.77712 22.9768 4.38832C23.075 4.99876 22.8383 5.54468 22.6223 5.97668L22.3246 6.57217C22.0776 7.06615 21.4769 7.26638 20.9829 7.01939C20.4889 6.7724 20.2887 6.17173 20.5357 5.67775L20.8335 5.08225C20.9285 4.89216 20.9719 4.78017 20.9909 4.71195L20.9921 4.70757L20.9897 4.70394C20.9503 4.64532 20.8737 4.55244 20.723 4.40177C20.5724 4.25109 20.4795 4.17449 20.4209 4.13507L20.4172 4.13265L20.4128 4.13385Z" fill="#141B34"/>
<path fill-rule="evenodd" clip-rule="evenodd" d="M12 3.375C6.61522 3.375 2.25 7.74022 2.25 13.125C2.25 18.5098 6.61522 22.875 12 22.875C17.3848 22.875 21.75 18.5098 21.75 13.125C21.75 7.74022 17.3848 3.375 12 3.375ZM13 9.625C13 9.07272 12.5523 8.625 12 8.625C11.4477 8.625 11 9.07272 11 9.625V13.625C11 13.8902 11.1054 14.1446 11.2929 14.3321L13.2929 16.3321C13.6834 16.7226 14.3166 16.7226 14.7071 16.3321C15.0976 15.9416 15.0976 15.3084 14.7071 14.9179L13 13.2108V9.625Z" fill="#141B34"/>
<path fill-rule="evenodd" clip-rule="evenodd" d="M9 2.125C9 1.57272 9.44772 1.125 10 1.125H14C14.5523 1.125 15 1.57272 15 2.125C15 2.67728 14.5523 3.125 14 3.125H13V3.625C13 4.17728 12.5523 4.625 12 4.625C11.4477 4.625 11 4.17728 11 3.625V3.125H10C9.44772 3.125 9 2.67728 9 2.125Z" fill="#141B34"/>
</svg>
