<svg width="24" height="24" viewBox="0 0 24 24" fill="none" xmlns="http://www.w3.org/2000/svg">
<path fill-rule="evenodd" clip-rule="evenodd" d="M17.312 1.93059C15.9686 1.74998 14.2479 1.74999 12.0572 1.75H11.9428C9.75212 1.74999 8.03144 1.74998 6.68802 1.93059C5.31137 2.11568 4.21911 2.50272 3.36091 3.36091C2.50272 4.21911 2.11568 5.31137 1.93059 6.68802C1.74998 8.03144 1.74999 9.75212 1.75 11.9428V12.0572C1.74999 14.2479 1.74998 15.9686 1.93059 17.312C2.11568 18.6886 2.50272 19.7809 3.36091 20.6391C4.21911 21.4973 5.31137 21.8843 6.68802 22.0694C8.03144 22.25 9.7521 22.25 11.9428 22.25H11.9428H12.0572H12.0572C14.2479 22.25 15.9686 22.25 17.312 22.0694C18.6886 21.8843 19.7809 21.4973 20.6391 20.6391C21.4973 19.7809 21.8843 18.6886 22.0694 17.312C22.25 15.9686 22.25 14.2479 22.25 12.0572V12.0572V11.9428V11.9428C22.25 9.7521 22.25 8.03144 22.0694 6.68802C21.8843 5.31137 21.4973 4.21911 20.6391 3.36091C19.7809 2.50272 18.6886 2.11568 17.312 1.93059ZM7.76813 9.92494C8.45522 9.10073 8.99032 8.96672 9.40538 9.00618C9.91599 9.05472 10.5497 9.39089 11.3404 10.0849C12.2164 10.8537 13.2493 11.5415 14.4054 11.6514C15.657 11.7704 16.7886 11.1973 17.7681 10.0223C18.1218 9.59806 18.0646 8.96749 17.6403 8.61385C17.2161 8.26021 16.5856 8.31742 16.2319 8.74163C15.5448 9.56584 15.0097 9.69985 14.5947 9.66039C14.0841 9.61184 13.4504 9.27568 12.6597 8.58171C11.7837 7.81287 10.7507 7.12506 9.59467 7.01516C8.34307 6.89617 7.21149 7.46923 6.23192 8.64429C5.87828 9.0685 5.93549 9.69908 6.3597 10.0527C6.78392 10.4064 7.41449 10.3491 7.76813 9.92494ZM7.76813 15.2583C8.45522 14.4341 8.99032 14.3001 9.40538 14.3395C9.91599 14.3881 10.5497 14.7242 11.3404 15.4182C12.2164 16.187 13.2493 16.8748 14.4054 16.9847C15.657 17.1037 16.7886 16.5307 17.7681 15.3556C18.1218 14.9314 18.0646 14.3008 17.6403 13.9472C17.2161 13.5935 16.5856 13.6508 16.2319 14.075C15.5448 14.8992 15.0097 15.0332 14.5947 14.9937C14.0841 14.9452 13.4504 14.609 12.6597 13.915C11.7837 13.1462 10.7507 12.4584 9.59467 12.3485C8.34307 12.2295 7.21149 12.8026 6.23192 13.9776C5.87828 14.4018 5.93549 15.0324 6.3597 15.3861C6.78392 15.7397 7.41449 15.6825 7.76813 15.2583Z" fill="#141B34"/>
</svg>
