<svg width="24" height="24" viewBox="0 0 24 24" fill="none" xmlns="http://www.w3.org/2000/svg">
<path d="M9.0284 4.07942C9.39791 4.23616 9.6379 4.59865 9.6379 5.00003V8.00003H19.5C20.0523 8.00003 20.5 8.44774 20.5 9.00003C20.5 9.55231 20.0523 10 19.5 10H4.49997C4.09242 10 3.72565 9.7527 3.57288 9.37487C3.42012 8.99703 3.51193 8.56429 3.80495 8.28104L7.94288 4.28104C8.23147 4.00207 8.65889 3.92268 9.0284 4.07942Z" fill="#141B34"/>
<path d="M3.5 15C3.5 14.4477 3.94772 14 4.5 14H19.5C19.9075 14 20.2743 14.2473 20.4271 14.6252C20.5799 15.003 20.488 15.4357 20.195 15.719L16.0571 19.719C15.7685 19.998 15.3411 20.0773 14.9716 19.9206C14.6021 19.7639 14.3621 19.4014 14.3621 19V16H4.5C3.94772 16 3.5 15.5523 3.5 15Z" fill="#141B34"/>
</svg>
