<svg width="24" height="24" viewBox="0 0 24 24" fill="none" xmlns="http://www.w3.org/2000/svg">
<path fill-rule="evenodd" clip-rule="evenodd" d="M17.7071 6.29289C18.0976 6.68342 18.0976 7.31658 17.7071 7.70711L6.70711 18.7071C6.31658 19.0976 5.68342 19.0976 5.29289 18.7071C4.90237 18.3166 4.90237 17.6834 5.29289 17.2929L16.2929 6.29289C16.6834 5.90237 17.3166 5.90237 17.7071 6.29289Z" fill="#141B34"/>
<path d="M17.2444 5.28969C17.525 5.37161 17.9065 5.51522 18.1956 5.80432C18.4847 6.09343 18.6283 6.47485 18.7102 6.75554C18.8008 7.06587 18.8605 7.41689 18.9018 7.76996C18.9845 8.47868 19.0051 9.31055 18.999 10.0841C18.9929 10.8636 18.9594 11.6121 18.9276 12.1637C18.9117 12.4402 18.8962 12.6686 18.8845 12.8286C18.8788 12.9079 18.8685 13.0375 18.865 13.0821L18.8649 13.0833C18.8185 13.6336 18.3347 14.0427 17.7844 13.9963C17.2341 13.9499 16.8256 13.4663 16.872 12.916C16.8751 12.8764 16.8843 12.7593 16.8898 12.6837C16.9008 12.5322 16.9157 12.3139 16.9309 12.0488C16.9615 11.5174 16.9933 10.8041 16.9991 10.0684C17.0049 9.32669 16.9839 8.58989 16.9153 8.00188C16.8808 7.70658 16.8116 7.39683 16.7645 7.23544C16.6031 7.18834 16.2933 7.11912 15.998 7.08464C15.41 7.01599 14.6732 6.995 13.9315 7.0008C13.1957 7.00656 12.4824 7.03834 11.951 7.06892C11.686 7.08417 11.4676 7.09904 11.3162 7.11005C11.2405 7.11555 11.1239 7.12473 11.0844 7.12785C10.5341 7.17419 10.0499 6.76572 10.0035 6.21541C9.95714 5.66508 10.3657 5.18134 10.916 5.13495L10.9183 5.13477C10.9638 5.13118 11.0926 5.12103 11.1713 5.11531C11.3312 5.10368 11.5597 5.08813 11.8361 5.07222C12.3878 5.04048 13.1363 5.00696 13.9158 5.00086C14.6893 4.99481 15.5212 5.01539 16.2299 5.09814C16.583 5.13936 16.934 5.19913 17.2444 5.28969Z" fill="#141B34"/>
</svg>
