<svg width="24" height="24" viewBox="0 0 24 24" fill="none" xmlns="http://www.w3.org/2000/svg">
<path fill-rule="evenodd" clip-rule="evenodd" d="M3.99998 11.0001L8.99998 11C9.55226 11 9.99999 11.4477 10 12C10 12.5523 9.55231 13 9.00002 13L4.00002 13.0001C3.44774 13.0001 3.00001 12.5524 3 12.0001C2.99999 11.4479 3.44769 11.0001 3.99998 11.0001Z" fill="#141B34"/>
<path fill-rule="evenodd" clip-rule="evenodd" d="M12 3C12.5523 3 13 3.44772 13 4L13 9C13 9.55228 12.5523 10 12 10C11.4477 10 11 9.55228 11 9L11 4C11 3.44772 11.4477 3 12 3Z" fill="#141B34"/>
<path fill-rule="evenodd" clip-rule="evenodd" d="M14 12C14 11.4477 14.4477 11 15 11H20C20.5523 11 21 11.4477 21 12C21 12.5523 20.5523 13 20 13H15C14.4477 13 14 12.5523 14 12Z" fill="#141B34"/>
<path fill-rule="evenodd" clip-rule="evenodd" d="M11.9999 13.9998C12.5522 13.9998 12.9999 14.4475 12.9999 14.9998V19.9998C12.9999 20.552 12.5522 20.9998 11.9999 20.9998C11.4476 20.9998 10.9999 20.552 10.9999 19.9998V14.9998C10.9999 14.4475 11.4476 13.9998 11.9999 13.9998Z" fill="#141B34"/>
<path d="M8.08301 17.6009C8.24185 17.236 8.60193 17 8.9999 17H14.9999C15.3979 17 15.758 17.236 15.9168 17.6009C16.0756 17.9658 16.003 18.3901 15.7318 18.6814L13.4112 21.1741L13.4112 21.1741C13.2699 21.3261 13.103 21.5055 12.94 21.6392C12.7465 21.7978 12.4327 22 11.9999 22C11.5671 22 11.2533 21.7978 11.0598 21.6392C10.8968 21.5055 10.7299 21.3261 10.5886 21.1741L10.5886 21.1741L8.26798 18.6814C7.99681 18.3901 7.92416 17.9658 8.08301 17.6009Z" fill="#141B34"/>
<path d="M17.6007 8.08313C17.9656 7.92429 18.39 7.99693 18.6813 8.2681L21.174 10.5887L21.174 10.5887C21.326 10.7301 21.5054 10.8969 21.639 11.0599C21.7976 11.2534 21.9999 11.5672 21.9999 12C21.9999 12.4328 21.7976 12.7466 21.639 12.9401C21.5054 13.1032 21.326 13.27 21.174 13.4113L21.174 13.4113L18.6813 15.7319C18.39 16.0031 17.9656 16.0758 17.6007 15.9169C17.2359 15.7581 16.9999 15.398 16.9999 15V9.00002C16.9999 8.60205 17.2359 8.24197 17.6007 8.08313Z" fill="#141B34"/>
<path d="M11.0599 2.36083C11.2534 2.20224 11.5672 2 12 2C12.4328 2 12.7466 2.20224 12.9401 2.36083C13.1032 2.49446 13.27 2.67387 13.4113 2.82589L15.7319 5.31861C16.0031 5.60989 16.0758 6.03424 15.9169 6.39913C15.7581 6.76402 15.398 7 15 7H9.00002C8.60205 7 8.24197 6.76402 8.08313 6.39913C7.92429 6.03424 7.99693 5.60989 8.2681 5.31861L10.5887 2.82589C10.7301 2.67386 10.8969 2.49446 11.0599 2.36083Z" fill="#141B34"/>
<path d="M6.39913 8.08313C6.76402 8.24197 7 8.60205 7 9.00002V15C7 15.398 6.76402 15.7581 6.39913 15.9169C6.03424 16.0758 5.60989 16.0031 5.31861 15.7319L2.82589 13.4113C2.67386 13.27 2.49446 13.1032 2.36083 12.9401C2.20224 12.7466 2 12.4328 2 12C2 11.5672 2.20224 11.2534 2.36083 11.0599C2.49446 10.8969 2.67387 10.7301 2.82589 10.5887L5.31861 8.2681C5.60989 7.99693 6.03424 7.92429 6.39913 8.08313Z" fill="#141B34"/>
</svg>
