<svg width="24" height="24" viewBox="0 0 24 24" fill="none" xmlns="http://www.w3.org/2000/svg">
<path fill-rule="evenodd" clip-rule="evenodd" d="M2.79204 2.79277C2.40151 3.1833 2.40151 3.81646 2.79204 4.20698L9.79204 11.207C10.1826 11.5975 10.8157 11.5975 11.2063 11.207C11.5968 10.8165 11.5968 10.1833 11.2063 9.79277L4.20625 2.79277C3.81573 2.40225 3.18256 2.40225 2.79204 2.79277Z" fill="#141B34"/>
<path fill-rule="evenodd" clip-rule="evenodd" d="M12.792 12.7928C12.4015 13.1833 12.4015 13.8165 12.792 14.207L19.792 21.207C20.1826 21.5975 20.8157 21.5975 21.2063 21.207C21.5968 20.8165 21.5968 20.1833 21.2063 19.7928L14.2063 12.7928C13.8157 12.4022 13.1826 12.4022 12.792 12.7928Z" fill="#141B34"/>
<path d="M3.34683 2.00679C3.09612 2.02582 2.72582 2.09911 2.41479 2.40851C2.10385 2.71782 2.02856 3.08764 2.00812 3.33809C1.99115 3.5459 2.00526 3.78691 2.01691 3.98605V3.98606L2.19451 7.05765C2.21722 7.45049 2.4682 7.7935 2.83575 7.93401C3.20331 8.07452 3.6191 7.98642 3.89807 7.70891L7.70533 3.92171C7.98424 3.64428 8.07457 3.22909 7.93614 2.86086C7.7977 2.49262 7.45624 2.23976 7.06364 2.21476L3.99458 2.01933C3.79565 2.00652 3.55474 1.99101 3.34683 2.00679Z" fill="#141B34"/>
<path d="M21.1574 16.0651C20.7891 15.9253 20.3731 16.0148 20.0949 16.2935L16.2926 20.1022C16.0143 20.381 15.9256 20.7972 16.066 21.1652C16.2064 21.5332 16.5498 21.7845 16.943 21.8071L20.0172 21.9835C20.2153 21.995 20.4554 22.0089 20.6625 21.992C20.9123 21.9715 21.2806 21.8964 21.5893 21.5872C21.8981 21.2779 21.9726 20.9094 21.9926 20.6595C22.0092 20.4524 21.9948 20.2124 21.9829 20.0144L21.8008 16.9409C21.7775 16.5477 21.5256 16.2048 21.1574 16.0651Z" fill="#141B34"/>
</svg>
