<svg width="24" height="24" viewBox="0 0 24 24" fill="none" xmlns="http://www.w3.org/2000/svg">
<path fill-rule="evenodd" clip-rule="evenodd" d="M19 4C19 4.55228 18.5523 5 18 5L6 5C5.44771 5 5 4.55228 5 4C5 3.44771 5.44771 3 6 3L18 3C18.5523 3 19 3.44772 19 4Z" fill="#141B34"/>
<path fill-rule="evenodd" clip-rule="evenodd" d="M12.9999 10.2894L15.2744 12.6881C15.6544 13.0888 16.2873 13.1057 16.6881 12.7256C17.0888 12.3456 17.1057 11.7127 16.7256 11.3119L13.405 7.80993C13.2637 7.66072 13.0965 7.48418 12.9331 7.35272C12.7383 7.19595 12.4269 7 12 7C11.5732 7 11.2617 7.19595 11.0669 7.35272C10.9035 7.48418 10.7363 7.66072 10.595 7.80993L7.27436 11.3119C6.89435 11.7127 6.91117 12.3456 7.31193 12.7256C7.71269 13.1057 8.34563 13.0888 8.72565 12.6881L10.9999 10.2896L10.9995 19.9999C10.9994 20.5522 11.4471 20.9999 11.9994 20.9999C12.5517 20.9999 12.9994 20.5523 12.9995 20L12.9999 10.2894Z" fill="#141B34"/>
</svg>
