<svg width="24" height="24" viewBox="0 0 24 24" fill="none" xmlns="http://www.w3.org/2000/svg">
<path d="M10.9976 1.91351C10.9976 1.60261 10.9976 1.44716 10.8929 1.35736C10.7882 1.26757 10.6404 1.29038 10.3448 1.336C8.89618 1.55955 7.54305 2.07228 6.34621 2.81337C6.29859 2.84285 6.27479 2.85759 6.2578 2.87197C6.20799 2.91414 6.19262 2.93612 6.17009 2.99737C6.1624 3.01826 6.15241 3.06647 6.13242 3.1629C5.73591 5.0756 5.72645 6.42781 5.95397 7.50011C6.17894 8.56038 6.65235 9.42744 7.35883 10.3533C8.21681 11.4777 9.02565 12.9489 8.99689 14.6405C8.99681 14.6454 9.00026 14.6498 9.00513 14.6508C9.44572 14.7439 9.89731 14.817 10.3583 14.8686C10.6512 14.9015 10.7976 14.9179 10.8976 14.8284C10.9976 14.739 10.9976 14.5873 10.9976 14.2841L10.9976 1.91351Z" fill="#141B34"/>
<path d="M3.83592 6.79177C3.77385 6.01684 3.74281 5.62938 3.52962 5.57949C3.31642 5.52959 3.13398 5.83414 2.76911 6.44322C2.1675 7.44749 1.72518 8.55811 1.47704 9.74018C1.44492 9.89324 1.42885 9.96976 1.45301 10.0453C1.47717 10.1208 1.53687 10.1757 1.65625 10.2857L2.70161 11.2488L2.72644 11.2752C3.60772 12.2139 4.7216 13.0208 6.00664 13.6381C6.4129 13.8333 6.61604 13.9308 6.76611 13.7873C6.91619 13.6437 6.83268 13.4481 6.66566 13.0569C6.44987 12.5515 6.13991 12.0528 5.76886 11.5665C4.9492 10.4924 4.30332 9.35646 3.99752 7.91523C3.92124 7.55571 3.86721 7.18237 3.83592 6.79177Z" fill="#141B34"/>
<path d="M1.29375 12.6711C1.28493 12.663 1.27072 12.6698 1.27152 12.6818C1.41692 14.8741 2.21955 16.8867 3.48418 18.5244C3.66313 18.7561 3.75261 18.872 3.88799 18.8806C4.02336 18.8893 4.13093 18.7817 4.34606 18.5666L4.65985 18.2528C4.68786 18.2248 4.7175 18.1985 4.74863 18.174C5.43176 17.6365 5.92216 17.1229 6.26701 16.6382C6.43776 16.3981 6.52313 16.2781 6.48244 16.1386C6.44175 15.9991 6.2888 15.9371 5.98289 15.8132C4.14848 15.0702 2.54423 13.9946 1.29375 12.6711Z" fill="#141B34"/>
<path d="M5.81732 19.9238C5.59243 20.1487 5.47998 20.2611 5.49256 20.4009C5.50513 20.5407 5.6309 20.6278 5.88242 20.8021C7.18891 21.7073 8.70571 22.3305 10.3447 22.5834C10.6404 22.6291 10.7882 22.6519 10.8929 22.5621C10.9976 22.4723 10.9976 22.3168 10.9976 22.0059V17.4953C10.9976 17.2295 10.9976 17.0967 10.9195 17.0108C10.8413 16.925 10.7055 16.9122 10.434 16.8868C9.96784 16.843 9.5084 16.7799 9.05702 16.6984C8.82518 16.6566 8.70926 16.6356 8.62114 16.6785C8.53303 16.7214 8.4753 16.8305 8.35985 17.0487C7.88025 17.9552 7.11806 18.8462 6.03287 19.7082L5.81732 19.9238Z" fill="#141B34"/>
<path d="M12.9976 22.0059C12.9976 22.3168 12.9976 22.4723 13.1024 22.5621C13.2071 22.6519 13.3549 22.6291 13.6506 22.5834C15.2896 22.3305 16.8064 21.7073 18.1129 20.8021C18.3644 20.6278 18.4902 20.5407 18.5027 20.4009C18.5153 20.2611 18.4029 20.1487 18.178 19.9238L17.9624 19.7082C16.8772 18.8462 16.115 17.9552 15.6354 17.0487C15.52 16.8305 15.4623 16.7214 15.3741 16.6785C15.286 16.6357 15.1701 16.6566 14.9383 16.6985C14.4869 16.78 14.0275 16.843 13.5613 16.8868C13.2898 16.9122 13.154 16.925 13.0758 17.0108C12.9976 17.0967 12.9976 17.2296 12.9976 17.4953V22.0059Z" fill="#141B34"/>
<path d="M19.6492 18.5666C19.8644 18.7817 19.9719 18.8893 20.1073 18.8806C20.2427 18.872 20.3322 18.7561 20.5111 18.5244C21.7757 16.8868 22.5784 14.8742 22.7238 12.6819C22.7246 12.6698 22.7103 12.6629 22.7014 12.6711C21.4509 13.9946 19.8467 15.0702 18.0124 15.8133C17.7065 15.9372 17.5535 15.9991 17.5128 16.1386C17.4722 16.2781 17.5575 16.3981 17.7283 16.6382C18.0731 17.123 18.5635 17.6365 19.2467 18.174C19.2778 18.1985 19.3074 18.2248 19.3354 18.2528L19.6492 18.5666Z" fill="#141B34"/>
<path d="M22.339 10.2856C22.4584 10.1756 22.5181 10.1206 22.5423 10.0451C22.5664 9.96962 22.5504 9.8931 22.5182 9.74004C22.2701 8.55801 21.8278 7.44742 21.2262 6.4432C20.8613 5.83411 20.6789 5.52957 20.4657 5.57946C20.2525 5.62936 20.2214 6.01682 20.1594 6.79174C20.1281 7.18235 20.074 7.55571 19.9978 7.91523C19.692 9.35646 19.0461 10.4924 18.2264 11.5665C17.8554 12.0528 17.5454 12.5515 17.3296 13.0569C17.1626 13.4481 17.0791 13.6437 17.2292 13.7873C17.3792 13.9308 17.5824 13.8333 17.9886 13.6381C19.2736 13.0208 20.3874 12.2139 21.2687 11.2752L21.2935 11.2488L22.339 10.2856Z" fill="#141B34"/>
<path d="M17.6491 2.81335C17.6967 2.84284 17.7205 2.85758 17.7375 2.87196C17.7873 2.91413 17.8027 2.93611 17.8252 2.99735C17.8329 3.01824 17.8429 3.06646 17.8629 3.1629C18.2594 5.0756 18.2688 6.42781 18.0413 7.50011C17.8163 8.56038 17.3429 9.42744 16.6364 10.3533C15.7785 11.4777 14.9696 12.9489 14.9984 14.6405C14.9985 14.6455 14.995 14.6498 14.9901 14.6508C14.5495 14.7439 14.098 14.817 13.6369 14.8687C13.3441 14.9015 13.1977 14.9179 13.0977 14.8284C12.9976 14.739 12.9976 14.5874 12.9976 14.2841L12.9976 1.91351C12.9976 1.60261 12.9976 1.44715 13.1024 1.35736C13.2071 1.26757 13.3549 1.29038 13.6505 1.336C15.0991 1.55954 16.4522 2.07227 17.6491 2.81335Z" fill="#141B34"/>
</svg>
