<svg width="24" height="24" viewBox="0 0 24 24" fill="none" xmlns="http://www.w3.org/2000/svg">
<path fill-rule="evenodd" clip-rule="evenodd" d="M13.0569 5.25C14.4245 5.24998 15.5268 5.24997 16.3937 5.36653C17.2938 5.48754 18.0517 5.74644 18.6536 6.34835C19.2555 6.95027 19.5144 7.70814 19.6354 8.60825C19.646 8.68694 19.6556 8.76757 19.6644 8.85016L20.1771 8.93561C20.4968 8.98889 20.7752 9.03527 21.0044 9.09074C21.2481 9.14971 21.4867 9.22989 21.7135 9.37475C22.0948 9.6184 22.3938 9.97139 22.5715 10.3876C22.6771 10.6351 22.717 10.8836 22.7351 11.1337C22.7521 11.3689 22.7521 11.6512 22.7521 11.9753V12.025C22.7521 12.3491 22.7521 12.6313 22.7351 12.8665C22.717 13.1166 22.6771 13.3652 22.5715 13.6126C22.3938 14.0289 22.0948 14.3818 21.7135 14.6255C21.4867 14.7703 21.2481 14.8505 21.0044 14.9095C20.7751 14.965 20.4968 15.0114 20.1771 15.0646L19.6644 15.1501C19.6556 15.2326 19.646 15.3131 19.6354 15.3918C19.5144 16.2919 19.2555 17.0497 18.6536 17.6517C18.0517 18.2536 17.2938 18.5125 16.3937 18.6335C15.5268 18.75 14.4244 18.75 13.0569 18.75H13.0569H13.0568H13.0568H7.94707H7.94706H7.94705H7.94704C6.57947 18.75 5.47716 18.75 4.6102 18.6335C3.7101 18.5125 2.95222 18.2536 2.35031 17.6517C1.74839 17.0497 1.4895 16.2919 1.36848 15.3918C1.25192 14.5248 1.25194 13.4225 1.25195 12.0549V12.0549V12.0549V11.9451V11.9451V11.9451C1.25194 10.5775 1.25192 9.47521 1.36848 8.60825C1.4895 7.70814 1.74839 6.95027 2.35031 6.34835C2.95222 5.74644 3.7101 5.48754 4.6102 5.36653C5.47716 5.24997 6.57947 5.24998 7.94704 5.25H7.94705H7.94707H13.0569H13.0569H13.0569ZM19.7518 11.9448C19.7519 11.3799 19.7519 10.8603 19.7437 10.3838L19.9059 10.4108C20.2571 10.4694 20.4814 10.5072 20.6515 10.5484C20.8131 10.5875 20.874 10.6182 20.9058 10.6385C21.0329 10.7197 21.1326 10.8374 21.1918 10.9761C21.2065 11.0108 21.2269 11.0759 21.2389 11.2417C21.2515 11.4163 21.252 11.6437 21.252 11.9998C21.252 12.3559 21.2515 12.5834 21.2389 12.758C21.2269 12.9237 21.2065 12.9889 21.1918 13.0235C21.1326 13.1623 21.0329 13.2799 20.9058 13.3612C20.874 13.3814 20.8131 13.4122 20.6515 13.4513C20.4814 13.4925 20.2571 13.5303 19.9059 13.5888L19.7437 13.6159C19.7519 13.1393 19.7519 12.6196 19.7518 12.0546V11.9448ZM6.75098 10C6.75098 9.58579 6.41519 9.25 6.00098 9.25C5.58676 9.25 5.25098 9.58579 5.25098 10V14C5.25098 14.4142 5.58676 14.75 6.00098 14.75C6.41519 14.75 6.75098 14.4142 6.75098 14V10ZM9.75098 10C9.75098 9.58579 9.41519 9.25 9.00098 9.25C8.58676 9.25 8.25098 9.58579 8.25098 10V14C8.25098 14.4142 8.58676 14.75 9.00098 14.75C9.41519 14.75 9.75098 14.4142 9.75098 14V10ZM12.751 10C12.751 9.58579 12.4152 9.25 12.001 9.25C11.5868 9.25 11.251 9.58579 11.251 10V14C11.251 14.4142 11.5868 14.75 12.001 14.75C12.4152 14.75 12.751 14.4142 12.751 14V10ZM15.751 10C15.751 9.58579 15.4152 9.25 15.001 9.25C14.5868 9.25 14.251 9.58579 14.251 10V14C14.251 14.4142 14.5868 14.75 15.001 14.75C15.4152 14.75 15.751 14.4142 15.751 14V10Z" fill="#141B34"/>
</svg>
