<svg width="24" height="24" viewBox="0 0 24 24" fill="none" xmlns="http://www.w3.org/2000/svg">
<path d="M5.10262 6.45942L5.20139 6.48519C5.44547 6.54863 5.69513 6.62034 5.91671 6.6978C6.12153 6.7694 6.36403 6.86645 6.55261 6.99667C7.26217 7.48664 7.69582 8.29082 7.74452 9.15508C7.76998 9.607 7.66715 10.0876 7.5944 10.4277C7.57751 10.5066 7.56225 10.5779 7.55059 10.6396C7.54748 10.656 7.54381 10.6724 7.53961 10.6886L7.44389 11.0573C7.38698 11.2766 7.23402 11.4584 7.02771 11.552C6.82141 11.6455 6.58387 11.6408 6.38142 11.5392L2.09283 9.38596C1.50669 9.09166 1.23588 8.40347 1.46427 7.78864C1.54501 7.57129 1.68317 7.37936 1.86456 7.23377L1.89491 7.20941L1.89491 7.20941C2.41685 6.79035 2.8595 6.43495 3.42384 6.30555C4.00458 6.1724 4.5155 6.30595 5.10262 6.45942Z" fill="#141B34"/>
<path d="M5.25 10.5C5.25 10.0858 5.58579 9.75 6 9.75H19C19.4142 9.75 19.75 10.0858 19.75 10.5V16.5C19.75 16.9299 19.7286 17.3263 19.6527 17.6715C19.575 18.0252 19.4303 18.3713 19.1508 18.6508C18.8713 18.9303 18.5252 19.075 18.1715 19.1527C17.8263 19.2286 17.4299 19.25 17 19.25H8C7.5701 19.25 7.17373 19.2286 6.82851 19.1527C6.4748 19.075 6.12868 18.9303 5.84917 18.6508C5.56966 18.3713 5.42498 18.0252 5.34728 17.6715C5.27144 17.3263 5.25 16.9299 5.25 16.5V10.5Z" fill="#141B34"/>
<path fill-rule="evenodd" clip-rule="evenodd" d="M2 2.5C2.55228 2.5 3 2.94772 3 3.5V20.5C3 21.0523 2.55228 21.5 2 21.5C1.44772 21.5 1 21.0523 1 20.5V3.5C1 2.94772 1.44772 2.5 2 2.5ZM22 7.5C22.5523 7.5 23 7.94772 23 8.5V20.5C23 21.0523 22.5523 21.5 22 21.5C21.4477 21.5 21 21.0523 21 20.5V8.5C21 7.94772 21.4477 7.5 22 7.5Z" fill="#141B34"/>
<path fill-rule="evenodd" clip-rule="evenodd" d="M1.47427 7.64935C1.76909 7.46714 2.13723 7.45058 2.44721 7.60557L6.23607 9.5H22C22.5523 9.5 23 9.94772 23 10.5V15.5C23 16.0523 22.5523 16.5 22 16.5H19C18.4477 16.5 18 16.0523 18 15.5V11.5H7V15.5C7 16.0523 6.55228 16.5 6 16.5H2C1.44772 16.5 1 16.0523 1 15.5V8.5C1 8.15342 1.17945 7.83156 1.47427 7.64935ZM5 11.118L3 10.118V14.5H5V11.118ZM20 11.5V14.5H21V11.5H20Z" fill="#141B34"/>
</svg>
