<svg width="25" height="24" viewBox="0 0 25 24" fill="none" xmlns="http://www.w3.org/2000/svg">
<path fill-rule="evenodd" clip-rule="evenodd" d="M5.55434 11.9663C5.87446 11.5163 6.4988 11.411 6.94885 11.7311C7.93652 12.4336 9.92797 13 12.3693 13C14.8107 13 16.8022 12.4336 17.7898 11.7311C18.2399 11.411 18.8642 11.5163 19.1843 11.9663C19.5045 12.4164 19.3991 13.0407 18.9491 13.3609C17.487 14.4008 15.0208 15 12.3693 15C9.7179 15 7.25166 14.4008 5.78959 13.3609C5.33954 13.0407 5.23422 12.4164 5.55434 11.9663Z" fill="#141B34"/>
<path d="M10.6191 14.2263C10.218 14.3296 9.80907 14.0881 9.70582 13.6869C9.6491 13.4666 9.61914 13.2362 9.61914 13C9.61914 11.4812 10.8504 10.25 12.3691 10.25C13.8879 10.25 15.1191 11.4812 15.1191 13C15.1191 13.2362 15.0892 13.4666 15.0325 13.6869C14.9292 14.0881 14.5203 14.3296 14.1192 14.2263H10.6191Z" fill="#141B34"/>
<path opacity="0.4" fill-rule="evenodd" clip-rule="evenodd" d="M6.06828 3.04669C6.59493 2.88038 7.15668 3.17249 7.32299 3.69914L10.323 13.1991C10.4893 13.7258 10.1972 14.2875 9.67054 14.4539C9.14389 14.6202 8.58214 14.328 8.41583 13.8014L5.41583 4.3014C5.24952 3.77475 5.54163 3.213 6.06828 3.04669ZM10.0765 17.2932C10.467 17.6837 10.467 18.3169 10.0765 18.7074L8.07652 20.7074C7.68599 21.0979 7.05283 21.0979 6.6623 20.7074C6.27178 20.3169 6.27178 19.6837 6.6623 19.2932L8.6623 17.2932C9.05283 16.9026 9.68599 16.9026 10.0765 17.2932Z" fill="#141B34"/>
<path opacity="0.4" fill-rule="evenodd" clip-rule="evenodd" d="M17.6266 5.03401C17.0929 4.89171 16.545 5.20895 16.4027 5.74258L14.4027 13.2426C14.2604 13.7762 14.5776 14.3242 15.1112 14.4665C15.6449 14.6088 16.1928 14.2915 16.3351 13.7579L18.3351 6.25791C18.4774 5.72427 18.1602 5.17632 17.6266 5.03401ZM14.6618 17.2931C14.2713 17.6837 14.2713 18.3168 14.6618 18.7074L16.6618 20.7074C17.0523 21.0979 17.6855 21.0979 18.076 20.7074C18.4665 20.3168 18.4665 19.6837 18.076 19.2931L16.076 17.2931C15.6855 16.9026 15.0523 16.9026 14.6618 17.2931Z" fill="#141B34"/>
<path opacity="0.4" fill-rule="evenodd" clip-rule="evenodd" d="M12.3691 1C12.9214 1 13.3691 1.44772 13.3691 2V11C13.3691 11.5523 12.9214 12 12.3691 12C11.8169 12 11.3691 11.5523 11.3691 11V2C11.3691 1.44772 11.8169 1 12.3691 1ZM12.3691 17C12.9214 17 13.3691 17.4477 13.3691 18V22C13.3691 22.5523 12.9214 23 12.3691 23C11.8169 23 11.3691 22.5523 11.3691 22V18C11.3691 17.4477 11.8169 17 12.3691 17Z" fill="#141B34"/>
<path d="M3.36914 13.0002C3.36914 12.2772 3.92166 11.3951 5.29291 10.6022C6.47363 9.91943 5.64828 8.09943 4.36914 8.82725C2.67927 9.78878 1.36914 11.2041 1.36914 13.0002C1.36914 14.9638 2.93491 16.4722 4.85086 17.4302C6.82662 18.4181 9.48613 19.0002 12.3691 19.0002C15.2521 19.0002 17.9117 18.4181 19.8874 17.4302C21.8034 16.4722 23.3691 14.9638 23.3691 13.0002C23.3691 11.0965 21.8973 9.62053 20.0615 8.65931C18.9165 8.0598 18.0251 9.84799 19.1568 10.4431C20.7396 11.2754 21.3691 12.2284 21.3691 13.0002C21.3691 13.7981 20.6963 14.7896 18.993 15.6413C17.3495 16.4631 15.009 17.0002 12.3691 17.0002C9.7293 17.0002 7.38881 16.4631 5.74529 15.6413C4.04195 14.7896 3.36914 13.7981 3.36914 13.0002Z" fill="#141B34"/>
</svg>
