<svg width="24" height="24" viewBox="0 0 24 24" fill="none" xmlns="http://www.w3.org/2000/svg">
<path fill-rule="evenodd" clip-rule="evenodd" d="M3.29289 3.29289C3.68342 2.90237 4.31658 2.90237 4.70711 3.29289L20.7071 19.2929C21.0976 19.6834 21.0976 20.3166 20.7071 20.7071C20.3166 21.0976 19.6834 21.0976 19.2929 20.7071L3.29289 4.70711C2.90237 4.31658 2.90237 3.68342 3.29289 3.29289Z" fill="#141B34"/>
<path fill-rule="evenodd" clip-rule="evenodd" d="M16.1182 4.09988C16.4049 4.30377 16.6954 4.51041 16.9841 4.7157C17.487 5.07328 17.9498 5.40232 18.2777 5.71499C18.6309 6.05188 19 6.52854 19 7.19877C19 7.64689 18.7462 8.0387 18.4766 8.37642C18.2493 8.66117 17.9503 8.97581 17.6349 9.28342C17.0005 9.90211 16.2204 10.5686 15.6087 11.038C15.1706 11.3741 14.5428 11.2915 14.2066 10.8533C13.8704 10.4151 13.9531 9.78737 14.3913 9.45119C14.9442 9.02694 15.6641 8.4118 16.2386 7.85159C16.4488 7.64656 16.6293 7.45884 16.771 7.29786C16.8402 7.21928 16.8325 7.10066 16.7521 7.03351C16.5389 6.85527 16.2295 6.63323 15.7704 6.30676L15.0204 5.77334C14.2082 5.19566 13.6884 4.82905 13.297 4.62734C13.1363 4.54451 13.0951 4.49852 13.066 4.68667C13.0029 5.09419 13 5.69853 13 6.66536V7.33243C13 7.88471 12.5523 8.33243 12 8.33243C11.4477 8.33243 11 7.88471 11 7.33243V6.66536C11 5.77018 10.9971 4.97803 11.0895 4.38083C11.183 3.77694 11.4231 3.03917 12.1935 2.67392C12.9423 2.31888 13.6681 2.5686 14.2132 2.84954C14.7478 3.12505 15.3855 3.57864 16.1182 4.09988Z" fill="#141B34"/>
<path fill-rule="evenodd" clip-rule="evenodd" d="M12.4581 11.1108C12.7911 11.2822 13.0005 11.6254 13.0005 12V17.3341C13.0005 18.2989 13.0031 18.9087 13.0632 19.3216C13.0787 19.4281 13.0764 19.4363 13.1721 19.3839C13.753 19.0658 14.2695 18.6267 14.7992 18.2333L16.9105 16.6923C17.3566 16.3667 17.9822 16.4644 18.3078 16.9104C18.6334 17.3565 18.5357 17.9821 18.0896 18.3077L15.985 19.8439C15.3868 20.296 14.7924 20.7769 14.1326 21.1382C13.6165 21.4208 12.8886 21.6943 12.1359 21.3151C11.3863 20.9375 11.1689 20.1925 11.0841 19.6099C10.9979 19.0181 11.0005 18.2314 11.0005 17.3341V13.9431L5.58129 17.8138C5.13187 18.1347 4.50733 18.0306 4.18633 17.5812C3.86533 17.1318 3.96944 16.5073 4.41886 16.1863L11.4193 11.1863C11.7241 10.9685 12.125 10.9394 12.4581 11.1108Z" fill="#141B34"/>
</svg>
