<svg width="24" height="24" viewBox="0 0 24 24" fill="none" xmlns="http://www.w3.org/2000/svg">
<path fill-rule="evenodd" clip-rule="evenodd" d="M15.9293 4.11475C15.9496 4.13015 15.9701 4.1456 15.9906 4.16111L16.6965 4.69452C16.7141 4.7078 16.7316 4.72103 16.749 4.73423C17.2213 5.09097 17.6594 5.42196 17.9701 5.73673C18.3103 6.0815 18.6465 6.55224 18.6465 7.19927C18.6465 7.84631 18.3103 8.31704 17.9701 8.66181C17.6594 8.97659 17.2213 9.30759 16.749 9.66433C16.7316 9.67752 16.714 9.69076 16.6965 9.70402L13.6582 12L16.6965 14.296C16.7141 14.3093 16.7316 14.3225 16.7491 14.3357C17.2213 14.6924 17.6594 15.0234 17.9701 15.3382C18.3103 15.683 18.6465 16.1537 18.6465 16.8007C18.6465 17.4478 18.3103 17.9185 17.9701 18.2633C17.6594 18.578 17.2213 18.909 16.749 19.2658C16.7316 19.279 16.7141 19.2922 16.6965 19.3055L15.9293 19.8852C15.2428 20.4041 14.6394 20.8601 14.1316 21.1382C13.6155 21.4208 12.8877 21.6943 12.1349 21.3151C11.3853 20.9375 11.1679 20.1925 11.0831 19.6099C10.9993 19.0349 10.9994 18.276 10.9995 17.4104L10.9995 14.0091L6.24943 17.5986C5.80881 17.9315 5.18168 17.8443 4.84872 17.4036C4.51575 16.963 4.60302 16.3359 5.04365 16.0029L10.3408 12L5.04365 7.9971C4.60302 7.66413 4.51575 7.03701 4.84872 6.59638C5.18168 6.15576 5.80881 6.06848 6.24943 6.40145L10.9995 9.99092V6.66586C10.9995 6.64034 10.9995 6.61492 10.9995 6.58958C10.9994 5.72405 10.9993 4.96512 11.0831 4.39014C11.1679 3.80753 11.3853 3.06253 12.1349 2.68493C12.8877 2.30569 13.6155 2.57923 14.1316 2.86183C14.6394 3.1399 15.2428 3.59589 15.9293 4.11475ZM12.9995 14.4109C12.9995 14.1009 13.0727 14.0644 13.3201 14.2513L15.4907 15.8916C15.8188 16.1395 16.1818 16.3788 16.4783 16.6718C16.5958 16.788 16.5958 16.8135 16.4783 16.9296C16.1818 17.2226 15.8188 17.4619 15.4907 17.7098L14.7848 18.2432C14.3239 18.5915 13.804 19.0343 13.2814 19.3459C13.0621 19.4766 12.9993 19.4308 12.9993 19.179C12.9994 18.705 12.9995 17.8217 12.9995 17.3341V14.4109ZM13.3201 9.74867C13.0727 9.93557 12.9995 9.89912 12.9995 9.58911V6.66586C12.9995 6.19724 12.9994 5.36285 12.9993 4.87791C12.9993 4.58428 13.0691 4.54718 13.3111 4.7137C13.7156 4.99197 14.4132 5.4759 14.7848 5.75676L15.4907 6.29017C15.8188 6.53807 16.1818 6.77736 16.4783 7.07038C16.5958 7.18655 16.5958 7.21199 16.4783 7.32817C16.1818 7.62118 15.8188 7.86048 15.4907 8.10838L13.3201 9.74867Z" fill="#141B34"/>
<path fill-rule="evenodd" clip-rule="evenodd" d="M18 12C18 11.4477 18.4457 11 18.9955 11H19.0045C19.5543 11 20 11.4477 20 12C20 12.5523 19.5543 13 19.0045 13H18.9955C18.4457 13 18 12.5523 18 12Z" fill="#141B34"/>
<path fill-rule="evenodd" clip-rule="evenodd" d="M4 12C4 11.4477 4.44571 11 4.99553 11H5.00447C5.55429 11 6 11.4477 6 12C6 12.5523 5.55429 13 5.00447 13H4.99553C4.44571 13 4 12.5523 4 12Z" fill="#141B34"/>
</svg>
