<svg width="24" height="24" viewBox="0 0 24 24" fill="none" xmlns="http://www.w3.org/2000/svg">
<path fill-rule="evenodd" clip-rule="evenodd" d="M7.91431 17.3103C7.37649 17.7118 6.80328 18.0918 6.25789 18.3585C5.74525 18.6093 5.11974 18.8303 4.53299 18.729C3.25521 18.5082 2.44448 17.4087 1.96925 16.226C1.48048 15.0097 1.25 13.4886 1.25 12.0021C1.25 10.5156 1.48048 8.9946 1.96925 7.77824C2.44448 6.59555 3.2552 5.49602 4.53299 5.2753C5.11975 5.17394 5.74527 5.39502 6.2579 5.64575C6.80329 5.9125 7.3765 6.29247 7.91432 6.69402C8.16301 6.8797 8.40873 7.07348 8.64595 7.26807C8.90172 7.47788 9.0296 7.58278 9.03857 7.71187C9.04754 7.84096 8.91694 7.98254 8.65574 8.26569L8.65573 8.26569C8.59711 8.32924 8.53988 8.39577 8.48415 8.46541C8.00391 9.06553 7.75088 9.76392 7.62236 10.466C7.57393 10.7307 7.54972 10.863 7.46627 10.9325C7.38282 11.0021 7.25693 11.0021 7.00516 11.0021H6.5C5.94772 11.0021 5.5 11.4498 5.5 12.0021C5.5 12.5544 5.94772 13.0021 6.5 13.0021H7.00516C7.25693 13.0021 7.38282 13.0021 7.46627 13.0716C7.54972 13.1412 7.57393 13.2735 7.62236 13.5381C7.75088 14.2402 8.00391 14.9386 8.48415 15.5387C8.5399 15.6084 8.59716 15.675 8.65581 15.7385C8.91704 16.0217 9.04765 16.1633 9.03868 16.2924C9.02972 16.4215 8.90182 16.5264 8.64604 16.7362C8.4088 16.9308 8.16304 17.1246 7.91431 17.3103ZM16.0857 17.3103C16.6235 17.7119 17.1967 18.0918 17.7421 18.3585C18.2548 18.6093 18.8803 18.8303 19.467 18.729C20.7448 18.5082 21.5555 17.4087 22.0308 16.226C22.5195 15.0097 22.75 13.4886 22.75 12.0021C22.75 10.5156 22.5195 8.9946 22.0308 7.77824C21.5555 6.59555 20.7448 5.49602 19.467 5.2753C18.8803 5.17394 18.2547 5.39502 17.7421 5.64575C17.1967 5.9125 16.6235 6.29247 16.0857 6.69402C15.837 6.87967 15.5914 7.07342 15.3542 7.26798C15.0988 7.47749 14.9711 7.58225 14.962 7.71123C14.953 7.84021 15.0832 7.98162 15.3435 8.26444C15.368 8.29112 15.3923 8.31833 15.4164 8.34609C15.953 8.96445 16.2355 9.70444 16.3758 10.467C16.4244 10.7311 16.4486 10.8631 16.5321 10.9326C16.6155 11.0021 16.7412 11.0021 16.9927 11.0021H17.5C18.0523 11.0021 18.5 11.4498 18.5 12.0021C18.5 12.5544 18.0523 13.0021 17.5 13.0021H16.9949C16.7431 13.0021 16.6172 13.0021 16.5338 13.0716C16.4503 13.1412 16.4261 13.2735 16.3777 13.5381C16.2491 14.2402 15.9961 14.9386 15.5159 15.5387C15.4601 15.6084 15.4028 15.675 15.3442 15.7386C15.083 16.0217 14.9523 16.1633 14.9613 16.2924C14.9703 16.4215 15.0982 16.5264 15.354 16.7362C15.5912 16.9308 15.837 17.1246 16.0857 17.3103ZM12 8.25199C10.9542 8.25199 10.0542 8.50398 9.46013 9.24633C8.90193 9.94386 8.75 10.9176 8.75 12.002C8.75 13.0864 8.90193 14.0601 9.46013 14.7576C10.0542 15.5 10.9542 15.752 12 15.752C13.0458 15.752 13.9458 15.5 14.5399 14.7576C15.0981 14.0601 15.25 13.0864 15.25 12.002C15.25 10.8289 15.0625 9.84538 14.4723 9.16527C13.8556 8.45454 12.9606 8.25199 12 8.25199Z" fill="#141B34"/>
</svg>
