<svg width="24" height="24" viewBox="0 0 24 24" fill="none" xmlns="http://www.w3.org/2000/svg">
<path d="M2.40446 13.9002C2.39942 13.8059 2.51539 13.7554 2.58248 13.8219C4.46055 15.6829 6.98537 16.6661 9.42707 17.0508C9.52384 17.066 9.60746 17.1265 9.65127 17.2141L9.71187 17.3353C10.1453 18.2023 11.0314 18.7499 12.0007 18.7499C12.97 18.7499 13.8561 18.2023 14.2896 17.3353L14.3501 17.2142C14.394 17.1266 14.4776 17.0661 14.5744 17.0509C17.017 16.666 19.5429 15.6823 21.4213 13.82C21.4875 13.7543 21.602 13.8041 21.597 13.8972L21.5967 13.9032L21.5945 13.9521C21.5145 15.7124 21.4511 17.1083 21.2564 18.199C21.0558 19.3223 20.7 20.2269 19.96 20.9341C19.2199 21.6413 18.3001 21.9556 17.1688 22.105C16.0704 22.25 14.6731 22.2499 12.911 22.2499H11.0903C9.32822 22.2499 7.93094 22.25 6.83255 22.105C5.70129 21.9556 4.7814 21.6413 4.04137 20.9341C3.30133 20.2269 2.9455 19.3223 2.74496 18.199C2.55025 17.1083 2.48681 15.7124 2.40682 13.9521L2.40446 13.9002Z" fill="#141B34"/>
<path d="M1.9817 7.40879C2.3388 6.32293 3.1989 5.25 4.64792 5.25H19.3519C20.8009 5.25 21.661 6.32292 22.0181 7.40879C22.3724 8.486 22.332 9.81185 21.8165 10.7921C20.214 13.8395 16.9559 15.2869 13.7138 15.6539C13.5424 15.6733 13.3911 15.7763 13.3139 15.9306L12.9469 16.6646C12.7675 17.0234 12.4008 17.25 11.9997 17.25C11.5986 17.25 11.2319 17.0234 11.0525 16.6646L10.6855 15.9305C10.6083 15.7762 10.457 15.6732 10.2856 15.6538C7.04366 15.2868 3.78574 13.8393 2.18329 10.7921C1.66778 9.81185 1.62745 8.486 1.9817 7.40879Z" fill="#141B34"/>
<path fill-rule="evenodd" clip-rule="evenodd" d="M11.8239 1.5C11.9411 1.50001 12.0588 1.50001 12.1753 1.5C12.8206 1.49995 13.3995 1.49989 13.8794 1.56382C14.4102 1.63451 14.9171 1.79327 15.3711 2.17507C15.812 2.54582 16.0752 3.02008 16.2797 3.53295C16.4741 4.02046 16.6508 4.63914 16.8591 5.36828L16.9611 5.72529L15.0381 6.27473L14.9498 5.96567C14.7241 5.17561 14.5743 4.6557 14.4219 4.27373C14.2755 3.90647 14.1668 3.7755 14.0839 3.70581C14.0142 3.64718 13.9113 3.58572 13.6154 3.54631C13.2831 3.50205 12.8391 3.50001 12.1166 3.50001H11.8826C11.1602 3.50001 10.7161 3.50205 10.3838 3.54631C10.0879 3.58572 9.98503 3.64718 9.9153 3.70581C9.83242 3.7755 9.72372 3.90647 9.57728 4.27373C9.42497 4.6557 9.27517 5.17561 9.04944 5.96567L8.96113 6.27473L7.03809 5.72529C7.07208 5.60629 7.10609 5.48729 7.14008 5.3683C7.34838 4.63915 7.52513 4.02046 7.71952 3.53295C7.92403 3.02008 8.18722 2.54582 8.62812 2.17507C9.08216 1.79327 9.58902 1.63451 10.1198 1.56382C10.5997 1.49989 11.1786 1.49995 11.8239 1.5Z" fill="#141B34"/>
</svg>
