<svg width="24" height="24" viewBox="0 0 24 24" fill="none" xmlns="http://www.w3.org/2000/svg">
<path d="M22.8176 1.79118C23.002 2.31178 22.7294 2.88328 22.2088 3.06766C21.6752 3.25665 21.0587 3.66351 20.4057 4.23624C19.763 4.79988 19.1378 5.47681 18.5841 6.14062C18.0322 6.80212 17.5635 7.43585 17.2324 7.90484C17.0672 8.13882 16.9372 8.33054 16.8493 8.46261L16.7191 8.66126C16.5258 8.96535 16.1837 9.14215 15.8239 9.12372C15.4639 9.10529 15.1418 8.8946 14.9806 8.57224C14.5399 7.69087 14.1446 7.33992 13.9453 7.20708C13.861 7.15087 13.804 7.12835 13.7814 7.1207C13.273 7.0735 12.875 6.64574 12.875 6.12503C12.875 5.57274 13.3227 5.12503 13.875 5.12503C13.9574 5.12583 14.1621 5.1409 14.3216 5.19475C14.5295 5.25415 14.7803 5.36004 15.0547 5.54298C15.329 5.72583 15.6166 5.9786 15.9054 6.32446C16.2206 5.8937 16.609 5.38603 17.0483 4.85944C17.6416 4.14825 18.34 3.38767 19.087 2.73257C19.8236 2.08655 20.663 1.4934 21.5412 1.1824C22.0618 0.998022 22.6332 1.27058 22.8176 1.79118Z" fill="#141B34"/>
<path fill-rule="evenodd" clip-rule="evenodd" d="M16.8358 2.65776C16.8683 2.8079 16.7436 2.94617 16.4944 3.22271C16.3236 3.41223 16.16 3.59831 16.0082 3.77441C15.8532 3.95421 15.7757 4.04411 15.6793 4.06594C15.5828 4.08777 15.4634 4.03524 15.2245 3.93018C15.0657 3.86035 14.9113 3.80465 14.7633 3.76098C14.4333 3.65594 13.9661 3.62934 13.8867 3.62548L13.8751 3.62503L13.863 3.62498C12.4878 3.63142 11.375 4.74823 11.375 6.12495C11.375 7.20588 12.0602 8.12557 13.0206 8.47482C13.1137 8.50866 13.1602 8.52558 13.1956 8.55202C13.231 8.57847 13.2516 8.60632 13.2928 8.66203C13.384 8.78522 13.503 8.97105 13.6389 9.24298C14.0419 10.0489 14.8473 10.5756 15.7472 10.6217C16.6413 10.6675 17.4907 10.2315 17.9754 9.48081L17.9771 9.47821L17.9783 9.47629L17.9796 9.47439L17.9807 9.47273C18.0115 9.42651 18.3114 8.97732 18.4579 8.76978C18.7726 8.32388 19.2166 7.72392 19.7359 7.10142C19.9197 6.8811 20.1091 6.66251 20.302 6.45019C20.5238 6.20609 20.6347 6.08404 20.7846 6.09866C20.9345 6.11329 21.0184 6.25227 21.1861 6.53022C22.1004 8.0454 22.625 9.80685 22.625 11.6917C22.625 17.42 17.7798 22.0084 11.875 22.0084C11.1791 22.0093 10.4853 21.9449 9.80198 21.8166C9.56479 21.772 9.41409 21.7439 9.30196 21.7286C9.21834 21.7157 9.13431 21.7469 9.10275 21.7641C8.98822 21.8185 8.83568 21.8994 8.60214 22.0236C7.17042 22.785 5.50004 23.055 3.88896 22.7553C3.62881 22.7069 3.4134 22.525 3.32213 22.2767C3.23086 22.0283 3.27724 21.7502 3.44417 21.5448C3.91197 20.9695 4.23363 20.2763 4.37588 19.5302C4.41437 19.325 4.32727 19.0463 4.05951 18.7744C2.24472 16.9315 1.125 14.4394 1.125 11.6917C1.125 5.96338 5.97023 1.375 11.875 1.375C13.4563 1.375 14.9615 1.70405 16.3181 2.29592C16.6416 2.43705 16.8033 2.50761 16.8358 2.65776ZM7.875 11.1249C7.32272 11.1249 6.875 11.5727 6.875 12.1249C6.875 12.6772 7.32272 13.1249 7.875 13.1249H7.88397C8.43626 13.1249 8.88397 12.6772 8.88397 12.1249C8.88397 11.5727 8.43626 11.1249 7.88397 11.1249H7.875ZM11.8705 11.1249C11.3182 11.1249 10.8705 11.5727 10.8705 12.1249C10.8705 12.6772 11.3182 13.1249 11.8705 13.1249H11.8795C12.4318 13.1249 12.8795 12.6772 12.8795 12.1249C12.8795 11.5727 12.4318 11.1249 11.8795 11.1249H11.8705Z" fill="#141B34"/>
</svg>
