<svg width="24" height="24" viewBox="0 0 24 24" fill="none" xmlns="http://www.w3.org/2000/svg">
<path fill-rule="evenodd" clip-rule="evenodd" d="M17.6123 11.6026L15.4629 10.9578L16.0376 9.04211L18.187 9.68693C18.2042 9.69209 18.2213 9.69723 18.2384 9.70236C18.881 9.8951 19.4434 10.0638 19.89 10.2564C20.3725 10.4646 20.8162 10.7391 21.1571 11.1972C21.498 11.6553 21.6334 12.1593 21.6941 12.6812C21.7503 13.1643 21.7503 13.7515 21.7502 14.4224L21.7502 21.9999H19.7502V14.4761C19.7502 13.7357 19.7487 13.2661 19.7075 12.9123C19.6694 12.5846 19.6071 12.4644 19.5525 12.3911C19.498 12.3178 19.4007 12.2235 19.0978 12.0928C18.7708 11.9518 18.3214 11.8153 17.6123 11.6026Z" fill="#141B34"/>
<path fill-rule="evenodd" clip-rule="evenodd" d="M13.329 3.4635C13.9959 3.65705 14.56 3.82078 15.0044 4.01025C15.4783 4.2123 15.8878 4.47183 16.1988 4.89725C16.508 5.32019 16.6356 5.79199 16.6944 6.31026C16.75 6.80103 16.75 7.40499 16.75 8.12659V8.12661V22.0002C16.75 22.4145 16.4142 22.7502 16 22.7502H3C2.58579 22.7502 2.25 22.4145 2.25 22.0002L2.25 6.65914V6.65911V6.65909C2.24998 5.45337 2.24995 4.46862 2.35616 3.71092C2.46614 2.92635 2.70908 2.22586 3.32726 1.73919C3.95216 1.24722 4.68446 1.19034 5.45678 1.29374C6.19426 1.39247 7.11273 1.6591 8.22715 1.98261L8.22719 1.98262L13.329 3.46349L13.329 3.4635ZM7.25 8.00017C7.25 7.58596 7.58579 7.25017 8 7.25017L11 7.25017C11.4142 7.25017 11.75 7.58596 11.75 8.00017C11.75 8.41439 11.4142 8.75017 11 8.75017L8 8.75017C7.58579 8.75017 7.25 8.41439 7.25 8.00017ZM7.25 12.0002C7.25 11.586 7.58579 11.2502 8 11.2502L11 11.2502C11.4142 11.2502 11.75 11.586 11.75 12.0002C11.75 12.4144 11.4142 12.7502 11 12.7502L8 12.7502C7.58579 12.7502 7.25 12.4144 7.25 12.0002ZM9.00001 15.2502L8.95526 15.2502C8.52244 15.2501 8.12561 15.2501 7.8028 15.2935C7.44732 15.3413 7.0716 15.4537 6.76257 15.7627C6.45355 16.0718 6.3411 16.4475 6.29331 16.803C6.24991 17.1258 6.24995 17.5226 6.25001 17.9554V17.9554L6.25001 22.0002H7.75001L7.75001 18.0002C7.75001 17.5076 7.7516 17.2136 7.77993 17.0028C7.79123 16.9188 7.81851 16.8571 7.83131 16.8281C7.83322 16.8238 7.83481 16.8202 7.83597 16.8173C7.85775 16.8084 7.90611 16.7931 8.00267 16.7801C8.2134 16.7518 8.5074 16.7502 9.00001 16.7502H10C10.4926 16.7502 10.7866 16.7518 10.9973 16.7801C11.0814 16.7914 11.1431 16.8187 11.1721 16.8315C11.1764 16.8334 11.18 16.835 11.1829 16.8361C11.1918 16.8579 11.2071 16.9063 11.2201 17.0028C11.2484 17.2136 11.25 17.5076 11.25 18.0002V22.0002H12.75L12.75 17.9554V17.9554C12.7501 17.5226 12.7501 17.1258 12.7067 16.803C12.6589 16.4475 12.5465 16.0718 12.2374 15.7627C11.9284 15.4537 11.5527 15.3413 11.1972 15.2935C10.8744 15.2501 10.4776 15.2501 10.0448 15.2502L10 15.2502H9.00001Z" fill="#141B34"/>
<path fill-rule="evenodd" clip-rule="evenodd" d="M1 21.7501C1 21.1978 1.44772 20.7501 2 20.7501L22 20.7501C22.5523 20.7501 23 21.1978 23 21.7501C23 22.3024 22.5523 22.7501 22 22.7501L2 22.7501C1.44772 22.7501 1 22.3024 1 21.7501Z" fill="#141B34"/>
</svg>
