<svg width="24" height="24" viewBox="0 0 24 24" fill="none" xmlns="http://www.w3.org/2000/svg">
<path fill-rule="evenodd" clip-rule="evenodd" d="M12.0324 1.25H11.9696H11.9696C11.3655 1.24999 10.8654 1.24998 10.4525 1.28515C10.0198 1.32201 9.62873 1.40069 9.25156 1.58742C8.57963 1.92009 8.15485 2.44877 7.85665 2.979C7.62548 3.39004 7.446 3.85183 7.29388 4.2432L7.29388 4.2432C7.25799 4.33554 7.22362 4.42397 7.19045 4.50689L6.89286 5.25086C5.76554 5.25543 4.95711 5.2819 4.25931 5.57479C3.3115 5.97261 2.54221 6.70632 2.09356 7.63547C1.89339 8.05002 1.79147 8.49536 1.72401 9.01254C1.65824 9.51672 1.61988 10.1388 1.57188 10.9172L1.41183 13.5123C1.29196 15.4557 1.19723 16.9915 1.28567 18.196C1.37649 19.4329 1.66653 20.4418 2.41451 21.2486C3.16395 22.0571 4.14379 22.4154 5.36126 22.5851C6.54398 22.75 8.06409 22.75 9.98371 22.75H14.018C15.9376 22.75 17.4577 22.75 18.6404 22.5851C19.8579 22.4154 20.8377 22.0571 21.5872 21.2486C22.3352 20.4418 22.6252 19.4329 22.716 18.196C22.8045 16.9915 22.7097 15.4557 22.5899 13.5123L22.4298 10.9174C22.3818 10.1389 22.3434 9.51676 22.2777 9.01254C22.2102 8.49536 22.1083 8.05002 21.9081 7.63547C21.4595 6.70632 20.6902 5.97261 19.7424 5.57479C19.0446 5.28193 18.2363 5.25543 17.1091 5.25086L16.8115 4.50689C16.7783 4.42396 16.744 4.33553 16.7081 4.24318C16.556 3.85182 16.3765 3.39004 16.1453 2.979C15.8471 2.44877 15.4223 1.92009 14.7504 1.58742C14.3732 1.40069 13.9822 1.32201 13.5495 1.28515C13.1365 1.24998 12.6365 1.24999 12.0324 1.25H12.0324ZM8.99902 10.5C8.44674 10.5 7.99902 10.9477 7.99902 11.5C7.99902 12.0523 8.44674 12.5 8.99902 12.5H9.00799C9.56028 12.5 10.008 12.0523 10.008 11.5C10.008 10.9477 9.56028 10.5 9.00799 10.5H8.99902ZM14.9901 10.5C14.4378 10.5 13.9901 10.9477 13.9901 11.5C13.9901 12.0523 14.4378 12.5 14.9901 12.5H14.999C15.5513 12.5 15.999 12.0523 15.999 11.5C15.999 10.9477 15.5513 10.5 14.999 10.5H14.9901ZM10.287 14.7532C9.87603 14.3871 9.24602 14.422 8.87793 14.8318C8.50892 15.2428 8.54288 15.875 8.9538 16.244L8.95564 16.2457L8.95792 16.2477L8.96373 16.2529L8.98037 16.2674C8.99366 16.2789 9.01133 16.294 9.03316 16.3121C9.07675 16.3483 9.13725 16.397 9.21271 16.4541C9.3628 16.5675 9.57664 16.7172 9.83837 16.8674C10.344 17.1575 11.1155 17.5 11.9941 17.5C12.8726 17.5 13.6441 17.1575 14.1498 16.8674L14.1526 16.8657C14.4141 16.7157 14.7713 16.5107 15.0344 16.244C15.4453 15.875 15.4792 15.2428 15.1102 14.8318C14.7421 14.422 14.1121 14.3871 13.7011 14.7532L13.6995 14.7547C13.6959 14.7578 13.6879 14.7646 13.6768 14.7738C13.6546 14.7923 13.6183 14.8217 13.5697 14.8584C13.4716 14.9325 13.3284 15.0328 13.1544 15.1326C12.7887 15.3425 12.3741 15.5 11.9941 15.5C11.6141 15.5 11.1995 15.3425 10.8337 15.1326C10.6597 15.0328 10.5165 14.9325 10.4185 14.8584C10.3699 14.8217 10.3336 14.7923 10.3114 14.7738L10.3007 14.7649L10.2892 14.7551L10.287 14.7532Z" fill="#141B34"/>
</svg>
