<svg width="24" height="24" viewBox="0 0 24 24" fill="none" xmlns="http://www.w3.org/2000/svg">
<path fill-rule="evenodd" clip-rule="evenodd" d="M11.9696 1.25H12.0324H12.0324C12.6365 1.24999 13.1365 1.24998 13.5495 1.28515C13.9822 1.32201 14.3732 1.40069 14.7504 1.58742C15.4223 1.92009 15.8471 2.44877 16.1453 2.979C16.3765 3.39004 16.556 3.85182 16.7081 4.24318C16.744 4.33553 16.7783 4.42396 16.8115 4.50689L17.1091 5.25086C18.2363 5.25543 19.0446 5.28193 19.7424 5.57479C20.6902 5.97261 21.4595 6.70632 21.9081 7.63547C22.1083 8.05002 22.2102 8.49536 22.2777 9.01254C22.3434 9.51676 22.3818 10.1389 22.4298 10.9174L22.5899 13.5123C22.7097 15.4557 22.8045 16.9915 22.716 18.196C22.6252 19.4329 22.3352 20.4418 21.5872 21.2486C20.8377 22.0571 19.8579 22.4154 18.6404 22.5851C17.4577 22.75 15.9376 22.75 14.018 22.75H9.98371C8.06409 22.75 6.54398 22.75 5.36126 22.5851C4.14379 22.4154 3.16395 22.0571 2.41451 21.2486C1.66653 20.4418 1.37649 19.4329 1.28567 18.196C1.19723 16.9915 1.29196 15.4557 1.41183 13.5123L1.57188 10.9172C1.61988 10.1388 1.65824 9.51672 1.72401 9.01254C1.79147 8.49536 1.89339 8.05002 2.09356 7.63547C2.54221 6.70632 3.3115 5.97261 4.25931 5.57479C4.95711 5.2819 5.76554 5.25543 6.89286 5.25086L7.19045 4.50689C7.22362 4.42397 7.25799 4.33554 7.29388 4.2432L7.29388 4.2432L7.29389 4.24317C7.446 3.85181 7.62549 3.39003 7.85665 2.979C8.15485 2.44877 8.57963 1.92009 9.25156 1.58742C9.62873 1.40069 10.0198 1.32201 10.4525 1.28515C10.8654 1.24998 11.3655 1.24999 11.9696 1.25H11.9696ZM11.0029 6C11.0029 5.44772 11.4506 5 12.0029 5H12.0119C12.5642 5 13.0119 5.44772 13.0119 6C13.0119 6.55229 12.5642 7 12.0119 7H12.0029C11.4506 7 11.0029 6.55229 11.0029 6ZM11.3188 10.2621C11.5865 10.2135 11.8595 10.3137 12.0322 10.524C12.2049 10.7342 12.2502 11.0214 12.1506 11.2746C12.0299 11.5813 11.9636 11.9144 11.9636 12.2641C11.9636 13.7817 13.2305 15.0439 14.8331 15.0439C15.0156 15.0439 15.1933 15.0275 15.3652 14.9963C15.6329 14.9478 15.9059 15.048 16.0786 15.2582C16.2512 15.4684 16.2965 15.7557 16.1969 16.0089C15.5632 17.6197 13.9701 18.75 12.1185 18.75C9.72316 18.75 7.74901 16.8515 7.74901 14.4702C7.74901 12.3604 9.30079 10.628 11.3188 10.2621Z" fill="#141B34"/>
</svg>
