<svg width="24" height="24" viewBox="0 0 24 24" fill="none" xmlns="http://www.w3.org/2000/svg">
<path fill-rule="evenodd" clip-rule="evenodd" d="M12 1.25C6.06294 1.25 1.25 6.06294 1.25 12C1.25 17.9371 6.06294 22.75 12 22.75C17.9371 22.75 22.75 17.9371 22.75 12C22.75 6.06294 17.9371 1.25 12 1.25ZM14.2342 7.31703C13.9537 7.01714 13.5185 6.91913 13.1366 7.06987C12.7547 7.22061 12.5037 7.58947 12.5037 8.00004V8.91401C11.8271 9.12042 11.1389 9.43867 10.5065 9.90555C8.93744 11.0641 7.85072 13.037 8.01673 16.055C8.04706 16.6064 8.51869 17.0289 9.07014 16.9985C9.6216 16.9682 10.044 16.4966 10.0137 15.9451C9.88048 13.5231 10.7263 12.2293 11.6945 11.5145C11.9502 11.3257 12.2236 11.1708 12.5037 11.0453V11.2C12.5037 11.6106 12.7547 11.9795 13.1366 12.1302C13.5185 12.2809 13.9537 12.1829 14.2342 11.883L15.7303 10.283C16.0898 9.89865 16.0898 9.30143 15.7303 8.91703L14.2342 7.31703Z" fill="#141B34"/>
</svg>
