<svg width="24" height="24" viewBox="0 0 24 24" fill="none" xmlns="http://www.w3.org/2000/svg">
<path fill-rule="evenodd" clip-rule="evenodd" d="M12 1.25C6.06294 1.25 1.25 6.06294 1.25 12C1.25 17.9371 6.06294 22.75 12 22.75C17.9371 22.75 22.75 17.9371 22.75 12C22.75 6.06294 17.9371 1.25 12 1.25ZM11 8C10.5955 8 10.2309 8.24364 10.0761 8.61732C9.92134 8.99099 10.0069 9.42111 10.2929 9.70711L11.5858 11L8.29289 14.2929C7.90237 14.6834 7.90237 15.3166 8.29289 15.7071C8.68342 16.0976 9.31658 16.0976 9.70711 15.7071L13 12.4142L14.2929 13.7071C14.5789 13.9931 15.009 14.0787 15.3827 13.9239C15.7564 13.7691 16 13.4045 16 13V9C16 8.44772 15.5523 8 15 8H11Z" fill="#141B34"/>
</svg>
