<svg width="24" height="25" viewBox="0 0 24 25" fill="none" xmlns="http://www.w3.org/2000/svg">
<path fill-rule="evenodd" clip-rule="evenodd" d="M5 7.25C5 4.21243 7.46243 1.75 10.5 1.75C13.5376 1.75 16 4.21243 16 7.25V10.25C16 10.8023 15.5523 11.25 15 11.25C14.4477 11.25 14 10.8023 14 10.25V7.25C14 5.317 12.433 3.75 10.5 3.75C8.567 3.75 7 5.317 7 7.25V10.25C7 10.8023 6.55228 11.25 6 11.25C5.44772 11.25 5 10.8023 5 10.25V7.25Z" fill="#141B34"/>
<path d="M10.5 7.75C6.21979 7.75 2.75 11.2198 2.75 15.5C2.75 19.7802 6.21979 23.25 10.5 23.25C10.7047 23.25 10.9075 23.2421 11.1082 23.2265C11.5679 23.1908 11.7977 23.173 11.8711 23.0121C11.9445 22.8512 11.7876 22.6393 11.4739 22.2155C10.7048 21.1769 10.25 19.8916 10.25 18.5C10.25 15.0482 13.0482 12.25 16.5 12.25C16.9868 12.25 17.2301 12.25 17.3191 12.1155C17.328 12.1021 17.3354 12.0886 17.3421 12.074C17.4087 11.9271 17.2956 11.7468 17.0693 11.3863C15.6986 9.20207 13.2689 7.75 10.5 7.75Z" fill="#141B34"/>
<path fill-rule="evenodd" clip-rule="evenodd" d="M16.5 13.75C13.8766 13.75 11.75 15.8766 11.75 18.5C11.75 21.1234 13.8766 23.25 16.5 23.25C19.1234 23.25 21.25 21.1234 21.25 18.5C21.25 15.8766 19.1234 13.75 16.5 13.75ZM16.0306 16.97C15.7379 16.6769 15.263 16.6766 14.97 16.9694C14.6769 17.2621 14.6766 17.737 14.9694 18.03L15.4388 18.5L14.9694 18.97C14.6766 19.263 14.6769 19.7379 14.97 20.0306C15.263 20.3234 15.7379 20.3231 16.0306 20.03L16.4995 19.5606L16.97 20.0306C17.263 20.3234 17.7379 20.3231 18.0306 20.03C18.3234 19.737 18.3231 19.2621 18.03 18.9694L17.5601 18.5L18.03 18.0306C18.3231 17.7379 18.3234 17.263 18.0306 16.97C17.7379 16.6769 17.263 16.6766 16.97 16.9694L16.4995 17.4393L16.0306 16.97Z" fill="#141B34"/>
</svg>
