<svg width="24" height="24" viewBox="0 0 24 24" fill="none" xmlns="http://www.w3.org/2000/svg">
<path fill-rule="evenodd" clip-rule="evenodd" d="M12 1.25C6.06294 1.25 1.25 6.06294 1.25 12C1.25 17.9371 6.06294 22.75 12 22.75C17.9371 22.75 22.75 17.9371 22.75 12C22.75 6.06294 17.9371 1.25 12 1.25ZM15.7071 9.70711C16.0976 9.31658 16.0976 8.68342 15.7071 8.29289C15.3166 7.90237 14.6834 7.90237 14.2929 8.29289L11 11.5858L9.70711 10.2929C9.42111 10.0069 8.99099 9.92134 8.61732 10.0761C8.24364 10.2309 8 10.5955 8 11V15C8 15.5523 8.44772 16 9 16H13C13.4045 16 13.7691 15.7564 13.9239 15.3827C14.0787 15.009 13.9931 14.5789 13.7071 14.2929L12.4142 13L15.7071 9.70711Z" fill="#141B34"/>
</svg>
