<svg width="24" height="24" viewBox="0 0 24 24" fill="none" xmlns="http://www.w3.org/2000/svg">
<path fill-rule="evenodd" clip-rule="evenodd" d="M12 1.25C6.06294 1.25 1.25 6.06294 1.25 12C1.25 17.9371 6.06294 22.75 12 22.75C17.9371 22.75 22.75 17.9371 22.75 12C22.75 6.06294 17.9371 1.25 12 1.25ZM14.2981 6.87348C14.0052 6.58059 13.5303 6.58059 13.2374 6.87348L9.11192 10.999L8.228 10.1151C8.12191 10.0088 7.98297 9.93329 7.82369 9.90614C7.41536 9.83654 7.02793 10.1111 6.95833 10.5195L6.56869 12.8053C6.53259 13.0165 6.49297 13.2482 6.48755 13.4305C6.48474 13.5247 6.48587 13.6976 6.5565 13.8773C6.64621 14.1056 6.84013 14.3182 7.1363 14.3959C7.39671 14.4642 7.61969 14.3975 7.75578 14.3355C7.88758 14.2755 7.99737 14.1934 8.07618 14.1289C8.22558 14.0068 8.40209 13.8302 8.58559 13.6467L8.58565 13.6466L8.58567 13.6466L14.2981 7.93414C14.591 7.64125 14.591 7.16637 14.2981 6.87348ZM16.1763 14.0939C16.5846 14.1635 16.9721 13.8889 17.0417 13.4805L17.4313 11.1947C17.4674 10.9835 17.507 10.7518 17.5125 10.5695C17.5153 10.4753 17.5141 10.3024 17.4435 10.1227C17.3538 9.89443 17.1599 9.68183 16.8637 9.60415C16.6033 9.53585 16.3803 9.60254 16.2442 9.66451C16.1124 9.72451 16.0026 9.80661 15.9238 9.87106C15.7744 9.99326 15.5979 10.1698 15.4144 10.3534L9.7019 16.0659C9.40901 16.3588 9.40901 16.8336 9.7019 17.1265C9.99479 17.4194 10.4697 17.4194 10.7626 17.1265L14.8881 13.001L15.7719 13.8849C15.878 13.9912 16.017 14.0667 16.1763 14.0939Z" fill="#141B34"/>
</svg>
