<svg width="24" height="24" viewBox="0 0 24 24" fill="none" xmlns="http://www.w3.org/2000/svg">
<path fill-rule="evenodd" clip-rule="evenodd" d="M12 1.25C6.06294 1.25 1.25 6.06294 1.25 12C1.25 17.9371 6.06294 22.75 12 22.75C17.9371 22.75 22.75 17.9371 22.75 12C22.75 6.06294 17.9371 1.25 12 1.25ZM13.1 7.36202C12.6864 7.3403 12.3334 7.65802 12.3117 8.07166C12.3001 8.29261 12.3854 8.49624 12.5303 8.64132L13.2374 9.34842L9.34836 13.2375L8.64126 12.5304C8.49618 12.3854 8.29255 12.3002 8.0716 12.3118C7.65796 12.3335 7.34024 12.6864 7.36196 13.1001C7.36631 13.1828 7.35961 13.3427 7.34564 13.6019L7.34257 13.6585C7.33026 13.8854 7.31558 14.1559 7.31128 14.4241C7.30666 14.7114 7.31307 15.0281 7.35474 15.3136C7.39 15.5551 7.47221 15.9576 7.75738 16.2427C8.04254 16.5279 8.44499 16.6101 8.6865 16.6454C8.97199 16.687 9.28871 16.6934 9.57598 16.6888C9.84419 16.6845 10.1147 16.6698 10.3416 16.6575L10.3982 16.6545C10.6574 16.6405 10.8173 16.6338 10.9 16.6381C11.3137 16.6599 11.6666 16.3421 11.6883 15.9285C11.6999 15.7077 11.6148 15.5042 11.47 15.3591L10.7626 14.6517L14.6517 10.7626L15.3591 11.47C15.5041 11.6149 15.7076 11.7 15.9284 11.6884C16.3421 11.6667 16.6598 11.3137 16.6381 10.9001C16.6337 10.8173 16.6404 10.6574 16.6544 10.3983L16.6575 10.3416C16.6698 10.1148 16.6844 9.84426 16.6888 9.57604C16.6934 9.28877 16.687 8.97205 16.6453 8.68656C16.61 8.44506 16.5278 8.0426 16.2427 7.75744C15.9575 7.47227 15.555 7.39006 15.3135 7.3548C15.028 7.31313 14.7113 7.30673 14.4241 7.31134C14.1559 7.31564 13.8854 7.33032 13.6585 7.34263L13.6018 7.3457C13.3427 7.35968 13.1828 7.36637 13.1 7.36202Z" fill="#141B34"/>
</svg>
