<svg width="24" height="24" viewBox="0 0 24 24" fill="none" xmlns="http://www.w3.org/2000/svg">
<path fill-rule="evenodd" clip-rule="evenodd" d="M12 1.25C6.06294 1.25 1.25 6.06294 1.25 12C1.25 17.9371 6.06294 22.75 12 22.75C17.9371 22.75 22.75 17.9371 22.75 12C22.75 6.06294 17.9371 1.25 12 1.25ZM17.2071 8.20711C17.5976 7.81658 17.5976 7.18342 17.2071 6.79289C16.8166 6.40237 16.1834 6.40237 15.7929 6.79289L14.5 8.08579L13.7071 7.29289C13.4211 7.0069 12.991 6.92134 12.6173 7.07612C12.2436 7.2309 12 7.59554 12 8V11C12 11.5523 12.4477 12 13 12H16C16.4045 12 16.7691 11.7564 16.9239 11.3827C17.0787 11.009 16.9931 10.5789 16.7071 10.2929L15.9142 9.5L17.2071 8.20711ZM8 12C7.59554 12 7.2309 12.2436 7.07612 12.6173C6.92134 12.991 7.0069 13.4211 7.29289 13.7071L8.08579 14.5L6.79289 15.7929C6.40237 16.1834 6.40237 16.8166 6.79289 17.2071C7.18342 17.5976 7.81658 17.5976 8.20711 17.2071L9.5 15.9142L10.2929 16.7071C10.5789 16.9931 11.009 17.0787 11.3827 16.9239C11.7564 16.7691 12 16.4045 12 16V13C12 12.4477 11.5523 12 11 12H8Z" fill="#141B34"/>
</svg>
