<svg width="24" height="24" viewBox="0 0 24 24" fill="none" xmlns="http://www.w3.org/2000/svg">
<path fill-rule="evenodd" clip-rule="evenodd" d="M12 1.25C6.06294 1.25 1.25 6.06294 1.25 12C1.25 17.9371 6.06294 22.75 12 22.75C17.9371 22.75 22.75 17.9371 22.75 12C22.75 6.06294 17.9371 1.25 12 1.25ZM17.501 10.2857C17.501 9.73344 17.0533 9.28572 16.501 9.28572H10.5651V8C10.5652 7.76008 10.4794 7.51937 10.3054 7.32776C9.93417 6.91889 9.30174 6.88841 8.89287 7.25968L7.41206 8.6043C7.21782 8.78047 6.99886 8.97907 6.84782 9.16139C6.72509 9.30954 6.30053 9.85242 6.60705 10.5244C6.88914 11.1428 7.5187 11.2319 7.70237 11.2555C7.93933 11.286 8.23873 11.2858 8.51781 11.2857L16.501 11.2857C17.0533 11.2857 17.501 10.838 17.501 10.2857ZM13.6965 16.6723C14.0678 17.0811 14.7002 17.1116 15.1091 16.7403L16.5899 15.3957L16.5899 15.3957C16.7841 15.2195 17.0031 15.0209 17.1541 14.8386C17.2768 14.6905 17.7014 14.1476 17.3949 13.4756C17.1128 12.8572 16.4832 12.7681 16.2996 12.7445C16.0626 12.7141 15.7632 12.7142 15.4841 12.7143L7.50097 12.7143C6.94868 12.7143 6.50097 13.162 6.50097 13.7143C6.50097 14.2666 6.94868 14.7143 7.50097 14.7143H13.4368V16C13.4367 16.2399 13.5225 16.4806 13.6965 16.6723Z" fill="#141B34"/>
</svg>
