<svg width="24" height="24" viewBox="0 0 24 24" fill="none" xmlns="http://www.w3.org/2000/svg">
<path fill-rule="evenodd" clip-rule="evenodd" d="M12.0002 3.20452C7.14262 3.20452 3.20481 7.14233 3.20481 11.9999C3.20481 16.8574 7.14259 20.7952 12.0001 20.7952C12.5399 20.7952 12.9774 21.2327 12.9774 21.7725C12.9774 22.3122 12.5399 22.7497 12.0001 22.7497C6.06313 22.7497 1.25029 17.9369 1.25029 11.9999C1.25029 6.06288 6.06317 1.25 12.0002 1.25C16.8199 1.25 20.8484 4.41956 22.2165 8.77525C22.3097 9.07209 22.256 9.39558 22.0719 9.64639C21.8878 9.89719 21.5952 10.0453 21.2841 10.0453H18.8409C18.3012 10.0453 17.8637 9.60781 17.8637 9.06809C17.8637 8.79822 17.9731 8.5539 18.1499 8.37705L18.7728 7.75414C19.0458 7.4812 19.1822 7.34473 19.1934 7.15968C19.2045 6.97462 19.0938 6.8335 18.8725 6.55125C17.2722 4.51089 14.7967 3.20452 12.0002 3.20452ZM20.7955 11.9999C20.7955 11.4601 21.233 11.0226 21.7727 11.0226C22.3125 11.0226 22.75 11.4601 22.75 11.9999C22.75 12.3589 22.7338 12.7142 22.7021 13.065C22.6536 13.6026 22.1784 13.999 21.6409 13.9504C21.1034 13.9019 20.707 13.4267 20.7555 12.8892C20.7819 12.5968 20.7955 12.3001 20.7955 11.9999ZM20.179 15.4142C20.3693 14.9091 20.933 14.6538 21.4381 14.8441C21.9431 15.0344 22.1984 15.598 22.0081 16.1031C21.8483 16.5273 21.6644 16.939 21.4582 17.3363C21.2096 17.8154 20.6197 18.0022 20.1407 17.7536C19.6616 17.5049 19.4748 16.915 19.7234 16.436C19.8942 16.107 20.0465 15.7659 20.179 15.4142ZM18.2896 18.4754C18.6568 18.0798 19.2751 18.0568 19.6707 18.4239C20.0663 18.7911 20.0893 19.4095 19.7222 19.805C19.3946 20.158 19.0447 20.4888 18.6748 20.7949C18.259 21.139 17.643 21.0808 17.2989 20.665C16.9548 20.2492 17.0129 19.6332 17.4287 19.2891C17.7322 19.038 18.0198 18.7661 18.2896 18.4754ZM15.5023 20.5006C15.9931 20.2759 16.573 20.4916 16.7977 20.9823C17.0224 21.473 16.8068 22.053 16.316 22.2777C15.966 22.438 15.6061 22.5794 15.2375 22.7007C14.7248 22.8695 14.1724 22.5907 14.0036 22.078C13.8349 21.5653 14.1137 21.013 14.6264 20.8442C14.9254 20.7458 15.2177 20.6309 15.5023 20.5006Z" fill="#141B34"/>
<path fill-rule="evenodd" clip-rule="evenodd" d="M12 7C12.5523 7 13 7.44772 13 8V11.5858L14.7071 13.2929C15.0976 13.6834 15.0976 14.3166 14.7071 14.7071C14.3166 15.0976 13.6834 15.0976 13.2929 14.7071L11.2929 12.7071C11.1054 12.5196 11 12.2652 11 12V8C11 7.44772 11.4477 7 12 7Z" fill="#141B34"/>
</svg>
