<svg width="24" height="24" viewBox="0 0 24 24" fill="none" xmlns="http://www.w3.org/2000/svg">
<path d="M2.98539 10.205C3.25498 9.87581 3.38978 9.7112 3.52076 9.75811C3.65173 9.80502 3.65134 10.0334 3.65055 10.4902C3.65054 10.4959 3.65054 10.5017 3.65054 10.5075C3.65054 15.9432 8.05704 20.3497 13.4927 20.3497C13.4985 20.3497 13.5043 20.3497 13.5101 20.3497C13.9668 20.3489 14.1952 20.3485 14.2421 20.4795C14.289 20.6105 14.1244 20.7453 13.7952 21.0149C12.4707 22.0995 10.7772 22.7502 8.93172 22.7502C4.68922 22.7502 1.25 19.311 1.25 15.0685C1.25 13.223 1.90079 11.5296 2.98539 10.205Z" fill="#141B34"/>
<path fill-rule="evenodd" clip-rule="evenodd" d="M14 1.25024C9.16751 1.25024 5.25 5.16775 5.25 10.0002C5.25 14.8327 9.16751 18.7502 14 18.7502C18.8325 18.7502 22.75 14.8327 22.75 10.0002C22.75 5.16775 18.8325 1.25024 14 1.25024ZM14.7351 6.00024C14.7351 5.58603 14.3993 5.25024 13.9851 5.25024C13.5709 5.25024 13.2351 5.58603 13.2351 6.00024L13.2351 6.24157C12.2129 6.52457 11.3879 7.37241 11.3879 8.50248C11.3879 9.09289 11.5615 9.69282 12.0901 10.1143C12.5803 10.5051 13.2478 10.6352 13.9851 10.6352C14.5988 10.6352 14.899 10.746 15.0381 10.8534C15.1339 10.9273 15.2502 11.0732 15.2502 11.4984C15.2502 11.8491 15.1283 12.017 14.9754 12.1258C14.7844 12.2616 14.4551 12.3615 13.9851 12.3615C13.2345 12.3615 12.802 11.9346 12.7329 11.618C12.6445 11.2134 12.2449 10.9569 11.8402 11.0453C11.4355 11.1336 11.1791 11.5333 11.2674 11.938C11.4755 12.8911 12.2888 13.5446 13.2351 13.7724V14.0002C13.2351 14.4145 13.5709 14.7502 13.9851 14.7502C14.3993 14.7502 14.7351 14.4145 14.7351 14.0002V13.7962C15.1306 13.7233 15.5139 13.5833 15.8445 13.3483C16.4209 12.9385 16.7502 12.2998 16.7502 11.4984C16.7502 10.7713 16.5306 10.1105 15.9547 9.66599C15.4221 9.25488 14.7147 9.13519 13.9851 9.13519C13.3789 9.13519 13.1229 9.01936 13.0253 8.94152C12.9662 8.89441 12.8879 8.80299 12.8879 8.50248C12.8879 8.11795 13.2805 7.63931 13.9851 7.63931C14.6035 7.63931 14.9996 8.02285 15.0691 8.36983C15.1505 8.77597 15.5457 9.03923 15.9519 8.95785C16.358 8.87646 16.6213 8.48124 16.5399 8.0751C16.3557 7.15611 15.6246 6.48482 14.7351 6.24041V6.00024Z" fill="#141B34"/>
</svg>
