<svg width="24" height="24" viewBox="0 0 24 24" fill="none" xmlns="http://www.w3.org/2000/svg">
<path d="M2.98539 10.205C3.25498 9.87581 3.38978 9.7112 3.52076 9.75811C3.65173 9.80502 3.65134 10.0334 3.65055 10.4902C3.65054 10.4959 3.65054 10.5017 3.65054 10.5075C3.65054 15.9432 8.05704 20.3497 13.4927 20.3497C13.4985 20.3497 13.5043 20.3497 13.5101 20.3497C13.9668 20.3489 14.1952 20.3485 14.2421 20.4795C14.289 20.6105 14.1244 20.7453 13.7952 21.0149C12.4707 22.0995 10.7772 22.7502 8.93172 22.7502C4.68922 22.7502 1.25 19.311 1.25 15.0685C1.25 13.223 1.90079 11.5296 2.98539 10.205Z" fill="#141B34"/>
<path fill-rule="evenodd" clip-rule="evenodd" d="M14 1.25024C9.16751 1.25024 5.25 5.16775 5.25 10.0002C5.25 14.8327 9.16751 18.7502 14 18.7502C18.8325 18.7502 22.75 14.8327 22.75 10.0002C22.75 5.16775 18.8325 1.25024 14 1.25024ZM12.2305 6.32969C12.1362 5.92635 11.7328 5.67581 11.3294 5.7701C10.9261 5.86439 10.6756 6.26779 10.7699 6.67113C10.9522 7.451 11.6738 9.09044 13.2502 10.055V10.4171H11.9168C11.5026 10.4171 11.1668 10.7529 11.1668 11.1671C11.1668 11.5813 11.5026 11.9171 11.9168 11.9171H13.2502V13.5004C13.2502 13.9146 13.586 14.2504 14.0002 14.2504C14.4144 14.2504 14.7502 13.9146 14.7502 13.5004V11.9171H16.0835C16.4977 11.9171 16.8335 11.5813 16.8335 11.1671C16.8335 10.7529 16.4977 10.4171 16.0835 10.4171H14.7502V10.055C16.3266 9.09044 17.0482 7.451 17.2305 6.67113C17.3248 6.26779 17.0742 5.86439 16.6709 5.7701C16.2675 5.67581 15.8641 5.92635 15.7699 6.32969C15.646 6.85934 15.1062 8.05913 14.0002 8.75475C12.8941 8.05913 12.3543 6.85934 12.2305 6.32969Z" fill="#141B34"/>
</svg>
