<svg width="24" height="24" viewBox="0 0 24 24" fill="none" xmlns="http://www.w3.org/2000/svg">
<path fill-rule="evenodd" clip-rule="evenodd" d="M13.3473 1.28204C13.9124 1.33258 14.4435 1.50502 14.8996 1.84518C15.2369 2.09674 15.4712 2.40469 15.6714 2.73819C15.8569 3.04725 16.0437 3.43256 16.2555 3.86967L16.6823 4.74997H21C21.5523 4.74997 22 5.19769 22 5.74997C22 6.30226 21.5523 6.74997 21 6.74997C14.9998 6.74997 9.00019 6.74997 3 6.74997C2.44772 6.74997 2 6.30226 2 5.74997C2 5.19769 2.44772 4.74997 3 4.74997H7.40976L7.76556 3.96943C7.97212 3.51622 8.15403 3.11709 8.33676 2.79681C8.53387 2.45134 8.76721 2.13163 9.10861 1.86972C9.57032 1.51552 10.1121 1.33595 10.6899 1.28336C11.1249 1.24375 11.5634 1.2492 12 1.24991C12.5108 1.25073 12.97 1.24829 13.3473 1.28204ZM9.60776 4.74997H14.4597C14.233 4.28258 14.088 3.98634 13.9566 3.76747C13.7643 3.44714 13.5339 3.30671 13.1691 3.27408C12.9098 3.25089 12.5719 3.24997 12.0345 3.24997C11.4837 3.24997 11.137 3.25093 10.8712 3.27512C10.4971 3.30918 10.2639 3.45495 10.0739 3.78793C9.94941 4.00614 9.81387 4.29824 9.60776 4.74997Z" fill="#141B34"/>
<path fill-rule="evenodd" clip-rule="evenodd" d="M21.7071 14.0432C22.0976 14.4337 22.0976 15.0669 21.7071 15.4574L18.914 18.2502L21.7071 21.0431C22.0976 21.4336 22.0976 22.0668 21.7071 22.4573C21.3166 22.8479 20.6835 22.8479 20.2929 22.4574L17.4998 19.6644L14.7071 22.4569C14.3165 22.8474 13.6834 22.8474 13.2929 22.4569C12.9024 22.0663 12.9024 21.4332 13.2929 21.0427L16.0855 18.2502L13.2929 15.4578C12.9024 15.0673 12.9024 14.4342 13.2929 14.0436C13.6834 13.6531 14.3165 13.6531 14.7071 14.0436L17.4998 16.8361L20.2929 14.0431C20.6835 13.6526 21.3166 13.6526 21.7071 14.0432Z" fill="#141B34"/>
<path d="M8.91118 22.6737C8.09286 22.5952 7.40536 22.431 6.78992 22.0555C6.22691 21.712 5.74159 21.2549 5.3649 20.7135C4.95312 20.1216 4.74784 19.4451 4.62016 18.6327C4.49566 17.8406 4.43582 16.849 4.36041 15.5993L3.76962 5.81016C3.73962 5.31315 3.72463 5.06465 3.87348 4.90745C4.02233 4.75024 4.27264 4.75024 4.77325 4.75024H19.2262C19.7274 4.75024 19.9781 4.75024 20.127 4.90771C20.2758 5.06517 20.2605 5.31398 20.2297 5.81159L19.8453 12.032C19.8308 12.2667 19.8235 12.3841 19.7805 12.4727C19.7375 12.5613 19.615 12.6708 19.3701 12.89C19.3368 12.9197 19.3041 12.9506 19.2721 12.9824L18.2411 14.0078C17.9059 14.3411 17.7384 14.5077 17.5301 14.5077C17.3219 14.5077 17.1543 14.3411 16.8192 14.0078L15.7887 12.9829C14.807 12.0066 13.2155 12.0067 12.2339 12.983C11.2523 13.9593 11.2524 15.5423 12.234 16.5185L13.2642 17.5431C13.5994 17.8765 13.767 18.0431 13.767 18.2502C13.767 18.4574 13.5994 18.624 13.2642 18.9574L12.234 19.982C11.6364 20.5763 11.4026 21.3955 11.5326 22.1658C11.5825 22.4613 11.6074 22.609 11.5469 22.6798C11.4863 22.7507 11.3551 22.7502 11.0927 22.7492C10.2347 22.7458 9.51673 22.7318 8.91118 22.6737Z" fill="#141B34"/>
</svg>
