<svg width="24" height="24" viewBox="0 0 24 24" fill="none" xmlns="http://www.w3.org/2000/svg">
<path d="M2 3C1.44772 3 1 3.44772 1 4C1 4.55228 1.44772 5 2 5V20C2 20.5523 2.44772 21 3 21C3.55228 21 4 20.5523 4 20V8.75H21C21.4714 8.75 21.7071 8.75 21.8536 8.60355C22 8.45711 22 8.2214 22 7.75V5C22.5523 5 23 4.55228 23 4C23 3.44772 22.5523 3 22 3H2Z" fill="#141B34"/>
<path d="M21.3998 14.875C21.6826 14.875 21.824 14.875 21.9119 14.9629C21.9998 15.0507 21.9998 15.1922 21.9998 15.475L21.9998 18.1697C21.9998 18.6025 21.9999 18.9994 21.9565 19.3222C21.9087 19.6777 21.7962 20.0534 21.4872 20.3624C21.1782 20.6715 20.8024 20.7839 20.447 20.8317C20.1242 20.8751 19.7273 20.8751 19.2945 20.875H16.205C15.7722 20.8751 15.3754 20.8751 15.0526 20.8317C14.6971 20.7839 14.3213 20.6715 14.0123 20.3624C13.7033 20.0534 13.5909 19.6777 13.5431 19.3222C13.4997 18.9994 13.4997 18.6026 13.4998 18.1697L13.4998 15.475C13.4998 15.1922 13.4998 15.0507 13.5876 14.9629C13.6755 14.875 13.8169 14.875 14.0998 14.875H21.3998Z" fill="#141B34"/>
<path d="M13.4998 10.975C13.4998 10.6922 13.4998 10.5507 13.5876 10.4629C13.6755 10.375 13.8169 10.375 14.0998 10.375H21.3998C21.6826 10.375 21.824 10.375 21.9119 10.4629C21.9998 10.5507 21.9998 10.6922 21.9998 10.975L21.9998 12.775C21.9998 13.0578 21.9998 13.1993 21.9119 13.2871C21.824 13.375 21.6826 13.375 21.3998 13.375H14.0998C13.8169 13.375 13.6755 13.375 13.5876 13.2871C13.4998 13.1993 13.4998 13.0578 13.4998 12.775L13.4998 10.975Z" fill="#141B34"/>
</svg>
