<svg width="24" height="24" viewBox="0 0 24 24" fill="none" xmlns="http://www.w3.org/2000/svg">
<path d="M13.3964 2.53591L13.3988 9.86332L10.8247 7.2893V2.53583C10.8247 1.82569 11.4004 1.25 12.1106 1.25C12.8207 1.25 13.3964 1.82573 13.3964 2.53591Z" fill="#141B34"/>
<path d="M13.7682 10.2327C14.0048 10.2327 14.2531 10.0478 14.2531 9.81511V4.5357C14.2531 3.82567 14.8287 3.25007 15.5387 3.25007C16.2487 3.25007 16.8243 3.82567 16.8243 4.5357V9.81511C16.8243 10.0478 17.0162 10.2363 17.2529 10.2363C17.4895 10.2363 17.6814 10.0478 17.6814 9.81511V6.55907C17.6814 5.84878 18.2572 5.27297 18.9675 5.27297C19.6778 5.27297 20.2536 5.84878 20.2536 6.55907V10.0001C20.2536 10.0138 20.2532 10.0274 20.2525 10.041V13.6925V13.6926C20.2525 14.7573 20.2525 15.5922 20.2096 16.2674C20.2014 16.3969 20.1915 16.5223 20.1795 16.6441L13.7682 10.2327Z" fill="#141B34"/>
<path d="M14.7852 21.707C15.4702 21.6632 16.0419 21.5727 16.5739 21.3679C17.6692 20.9461 18.5982 20.2023 19.2492 19.2493L7.3964 7.3965V13.7055C7.3964 13.876 7.29184 14.0296 7.13154 14.0948C6.97124 14.1599 6.78681 14.1236 6.66435 14.0029L4.81146 12.1758C4.17984 11.553 3.13984 11.6097 2.58157 12.2977C2.38064 12.5454 2.2715 12.8414 2.25488 13.1417C2.26526 13.3772 2.3096 13.6117 2.38802 13.8373C2.43215 13.9326 2.48709 14.0243 2.55287 14.1108L5.79901 18.5905C6.4274 19.4312 6.81391 19.9483 7.28641 20.3564C8.00633 20.9783 8.86922 21.4112 9.79759 21.6159C10.407 21.7503 11.171 21.7502 12.2182 21.7501C13.2794 21.7501 14.1117 21.7501 14.7852 21.707Z" fill="#141B34"/>
<path d="M8.68202 3.25007C9.39205 3.25007 9.96764 3.82567 9.96764 4.5357V6.43221L7.52012 3.9847C7.72646 3.55036 8.16917 3.25007 8.68202 3.25007Z" fill="#141B34"/>
<path fill-rule="evenodd" clip-rule="evenodd" d="M1.29289 1.29289C1.68342 0.902369 2.31658 0.902369 2.70711 1.29289L22.7071 21.2929C23.0976 21.6834 23.0976 22.3166 22.7071 22.7071C22.3166 23.0976 21.6834 23.0976 21.2929 22.7071L1.29289 2.70711C0.902369 2.31658 0.902369 1.68342 1.29289 1.29289Z" fill="#141B34"/>
</svg>
