<svg width="24" height="24" viewBox="0 0 24 24" fill="none" xmlns="http://www.w3.org/2000/svg">
<path d="M7.40692 2.37014C7.37095 2.34689 7.37427 2.29328 7.413 2.27498C8.80424 1.61762 10.3592 1.25 12 1.25C14.5019 1.25 16.8042 2.10467 18.6308 3.53796C18.8541 3.71322 18.8705 4.04122 18.6764 4.24835L18.4526 4.48709C18.4446 4.4956 18.4368 4.50429 18.4292 4.51317C17.0854 6.088 15.4378 7.40573 13.5742 8.3795C13.342 8.50086 13.0579 8.41309 12.921 8.18968C11.513 5.89309 9.63726 3.91358 7.42664 2.38333C7.42014 2.37883 7.41356 2.37444 7.40692 2.37014Z" fill="#141B34"/>
<path d="M19.7182 5.33024C19.9204 5.11447 20.2656 5.11988 20.4486 5.35217C21.89 7.18149 22.75 9.49031 22.75 12C22.75 12.0664 22.7494 12.1327 22.7482 12.1989C22.7435 12.4604 22.4842 12.6349 22.2359 12.5526C22.2039 12.5419 22.1712 12.5335 22.138 12.5272C21.1659 12.3449 20.1664 12.25 19.147 12.25C17.8744 12.25 16.6347 12.3977 15.4416 12.6778C15.1776 12.7397 14.9085 12.5886 14.8253 12.3305C14.6088 11.6585 14.3563 11.0026 14.0701 10.3651C13.9577 10.1146 14.0604 9.81851 14.3034 9.69083C16.3179 8.63252 18.1011 7.20509 19.5588 5.5003L19.7182 5.33024Z" fill="#141B34"/>
<path d="M22.0952 14.0863C22.3367 14.1664 22.4807 14.4155 22.4179 14.662C21.5126 18.2157 18.8368 21.0619 15.3852 22.2062C15.3635 22.2134 15.3424 22.194 15.3476 22.1718L15.352 22.1516C15.6129 20.8881 15.7498 19.58 15.7498 18.2407C15.7498 17.0368 15.6392 15.8586 15.4277 14.7158C15.3793 14.4547 15.5364 14.1965 15.795 14.136C16.8762 13.883 17.9977 13.75 19.147 13.75C20.0558 13.75 20.9462 13.833 21.8123 13.9924L22.0952 14.0863Z" fill="#141B34"/>
<path d="M13.37 22.681C13.5713 22.6554 13.7324 22.5043 13.7789 22.3066L13.885 21.8552C14.1241 20.6929 14.2497 19.4886 14.2497 18.2543C14.2497 17.2506 14.1666 16.2663 14.0067 15.3079C13.9559 15.0028 13.6367 14.8267 13.3525 14.9481C10.678 16.0913 8.35408 18.0041 6.6142 20.4456L6.48241 20.6376C6.32271 20.8703 6.38626 21.1901 6.63048 21.3313C8.21042 22.2448 10.0442 22.7676 12 22.7676C12.4641 22.7676 12.9214 22.7381 13.37 22.681Z" fill="#141B34"/>
<path d="M4.57481 19.7886C4.79006 19.9944 5.13513 19.9491 5.30369 19.7035L5.38888 19.5794C7.35231 16.8221 10.0177 14.6649 13.1026 13.4265C13.3466 13.3286 13.4819 13.0625 13.4015 12.812C13.1963 12.1732 12.956 11.5501 12.6828 10.945C12.5754 10.707 12.2998 10.5999 12.0543 10.6885C10.1385 11.3803 8.06851 11.7578 5.90934 11.7578C4.50719 11.7578 3.14194 11.5985 1.83168 11.297C1.82367 11.2952 1.81568 11.2932 1.80773 11.2911C1.53482 11.2188 1.26257 11.4117 1.25449 11.6941C1.2515 11.7984 1.25 11.903 1.25 12.0081C1.25 15.0679 2.52615 17.8295 4.57481 19.7886Z" fill="#141B34"/>
<path d="M1.62211 9.19137C1.55202 9.4507 1.71214 9.71271 1.97162 9.78148L2.17966 9.83662C3.37674 10.1111 4.62525 10.2565 5.90934 10.2565C7.76521 10.2565 9.54817 9.95274 11.2096 9.39331C11.5043 9.29406 11.6258 8.9471 11.4581 8.68496C10.1842 6.69308 8.52403 4.97104 6.5825 3.62398L6.15528 3.34757C5.98499 3.2374 5.76441 3.24021 5.60156 3.36112C3.68744 4.78235 2.26165 6.82517 1.62211 9.19137Z" fill="#141B34"/>
</svg>
