<svg width="24" height="24" viewBox="0 0 24 24" fill="none" xmlns="http://www.w3.org/2000/svg">
<path d="M14.7719 17.0381C15.4247 16.6782 15.9999 16.1953 16.466 15.621C17.2438 15.8614 18.1051 16.1942 18.8423 16.6719C19.4452 17.0624 20.0079 17.5761 20.3656 18.2573C20.7313 18.9536 20.8532 19.7696 20.6564 20.694L20.655 20.7004C20.4207 21.7561 19.6706 22.3956 18.8394 22.6361C18.0395 22.8676 17.1204 22.7452 16.4395 22.2598C15.7615 21.7764 15.3595 21.2457 15.1634 20.6459C14.9772 20.0766 15.004 19.515 15.0301 19.0664C15.0704 18.392 15.1094 17.737 14.7719 17.0381Z" fill="#141B34"/>
<path fill-rule="evenodd" clip-rule="evenodd" d="M16.229 14.2856C17.1656 14.5418 18.4374 14.9206 19.5221 15.6233C19.9213 15.8819 20.3292 16.2007 20.6967 16.5932C21.0246 16.9434 21.1886 17.1185 21.3462 17.093C21.5039 17.0675 21.5916 16.8774 21.7669 16.4973C22.398 15.129 22.75 13.6056 22.75 12C22.75 6.06294 17.9371 1.25 12 1.25C6.06294 1.25 1.25 6.06294 1.25 12C1.25 17.9371 6.06294 22.75 12 22.75C12.6179 22.75 13.2235 22.6979 13.8129 22.5978C14.2007 22.5319 14.3945 22.499 14.4627 22.3631C14.5308 22.2273 14.4252 22.0211 14.2142 21.6087C14.1203 21.4253 14.0406 21.2342 13.9755 21.035C13.7106 20.2252 13.7556 19.454 13.7815 19.0091L13.7886 18.889C13.8157 18.4356 13.8243 18.1916 13.7825 17.9607C13.7511 17.7874 13.7354 17.7008 13.6325 17.63L13.6285 17.6273C13.5246 17.5582 13.4029 17.5831 13.1595 17.633C12.785 17.7097 12.3972 17.75 12 17.75C10.1185 17.75 8.44802 16.8454 7.40035 15.4505C7.1516 15.1192 7.21843 14.6491 7.54964 14.4003C7.88084 14.1516 8.35099 14.2184 8.59974 14.5496C9.37631 15.5836 10.6103 16.25 12 16.25C13.3898 16.25 14.6238 15.5836 15.4003 14.5496C15.5974 14.2873 15.9333 14.1908 16.229 14.2856ZM8.70711 7.75C8.05544 7.75 7.43047 8.00887 6.96967 8.46967C6.67678 8.76256 6.67678 9.23744 6.96967 9.53033C7.26256 9.82322 7.73744 9.82322 8.03033 9.53033C8.20982 9.35084 8.45327 9.25 8.70711 9.25H10C10.4142 9.25 10.75 8.91421 10.75 8.5C10.75 8.08579 10.4142 7.75 10 7.75H8.70711ZM14 7.75C13.5858 7.75 13.25 8.08579 13.25 8.5C13.25 8.91421 13.5858 9.25 14 9.25H15.2929C15.5467 9.25 15.7902 9.35084 15.9697 9.53033C16.2626 9.82322 16.7374 9.82322 17.0303 9.53033C17.3232 9.23744 17.3232 8.76256 17.0303 8.46967C16.5695 8.00887 15.9446 7.75 15.2929 7.75H14Z" fill="#141B34"/>
</svg>
