<svg width="24" height="24" viewBox="0 0 24 24" fill="none" xmlns="http://www.w3.org/2000/svg">
<path fill-rule="evenodd" clip-rule="evenodd" d="M5.62522 1.12476C6.00399 1.12476 6.35025 1.33876 6.51965 1.67754L10.0196 8.67754C10.2666 9.17152 10.0664 9.77219 9.57243 10.0192C9.07845 10.2662 8.47778 10.0659 8.23079 9.57197L7.25217 7.61473H3.99826L3.01965 9.57197C2.77266 10.0659 2.17198 10.2662 1.67801 10.0192C1.18403 9.77219 0.983803 9.17152 1.23079 8.67754L4.73079 1.67754C4.90018 1.33876 5.24645 1.12476 5.62522 1.12476ZM4.99827 5.61473H6.25217L5.62522 4.36082L4.99827 5.61473Z" fill="#141B34"/>
<path d="M17.1162 7.37488C17.0986 7.37471 17.081 7.37471 17.0634 7.37488C16.4089 7.38101 15.8676 7.65919 15.3524 8.05585C14.8627 8.43286 14.3179 8.98061 13.6615 9.64046L12.5811 10.7267C12.3826 10.9262 12.2833 11.026 12.2833 11.1498C12.2833 11.2736 12.3826 11.3734 12.5811 11.573L18.7082 17.7326C18.9086 17.9341 19.0088 18.0348 19.1335 18.0348C19.2583 18.0348 19.3585 17.9341 19.5589 17.7326L20.591 16.6949C21.258 16.0245 21.8109 15.4687 22.1912 14.9688C22.5916 14.4426 22.8688 13.8935 22.8749 13.2312C22.875 13.2133 22.875 13.1955 22.8749 13.1776C22.8688 12.5153 22.5916 11.9662 22.1912 11.44C21.8109 10.9401 21.258 10.3843 20.5911 9.7139L20.518 9.64046C19.8617 8.98062 19.3169 8.43285 18.8272 8.05585C18.3119 7.65919 17.7707 7.38101 17.1162 7.37488Z" fill="#141B34"/>
<path d="M17.6548 19.6469C17.8533 19.4473 17.9526 19.3475 17.9526 19.2237C17.9526 19.0999 17.8533 19.0002 17.6548 18.8006L11.5277 12.6409C11.3272 12.4394 11.227 12.3387 11.1023 12.3387C10.9776 12.3387 10.8773 12.4394 10.6769 12.6409L8.67623 14.6522C8.00108 15.3309 7.44138 15.8936 7.05744 16.3998C6.65309 16.9328 6.375 17.4894 6.375 18.1602C6.375 18.8309 6.65309 19.3875 7.05744 19.9205C7.44138 20.4267 8.42745 21.4182 9.1026 22.0969C9.34365 22.3406 9.59774 22.5974 9.93196 22.7369C10.2672 22.8768 10.6281 22.8758 10.9686 22.8749H13.3518C13.6924 22.8758 14.0532 22.8768 14.3885 22.7369C14.7227 22.5974 14.9768 22.3406 15.2178 22.0969L17.6548 19.6469Z" fill="#141B34"/>
</svg>
