<svg width="24" height="24" viewBox="0 0 24 24" fill="none" xmlns="http://www.w3.org/2000/svg">
<path fill-rule="evenodd" clip-rule="evenodd" d="M7.43605 22.6472C8.4183 22.75 9.6511 22.75 11.1922 22.75H12.0675C13.9605 22.75 15.4744 22.75 16.6624 22.5991C17.8869 22.4436 18.9123 22.1129 19.7311 21.3394C20.5583 20.558 20.9197 19.5662 21.0882 18.3821C21.2496 17.2484 21.2495 15.8086 21.2495 14.0298V7.88003C21.2495 7.08088 21.2495 6.43332 21.2148 5.90474C21.179 5.36012 21.1034 4.87444 20.9201 4.41028C20.3913 3.07097 19.2829 2.0367 17.9063 1.5517C17.0475 1.24911 15.5754 1.2495 14.0204 1.25005C11.1808 1.24969 9.49416 1.24947 8.11172 1.73655C5.89173 2.51873 4.11799 4.18147 3.2746 6.31753C2.99349 7.02949 2.86895 7.7942 2.8087 8.71104C2.74951 9.61176 2.74951 10.7244 2.74951 12.1427V14.7262C2.74949 16.1743 2.74947 17.3469 2.85936 18.2842C2.97347 19.2576 3.21672 20.0955 3.78655 20.8146C4.08174 21.1871 4.43028 21.5159 4.82065 21.7919C5.56541 22.3186 6.42663 22.5416 7.43605 22.6472ZM18.3964 19.9161C18.0033 20.2875 17.4472 20.5293 16.4179 20.66C15.3664 20.7936 13.9762 20.7954 11.9995 20.7954H11.2471C9.63849 20.7954 8.50736 20.7942 7.63791 20.7032C6.78399 20.6139 6.30006 20.4471 5.94223 20.1941C5.70078 20.0233 5.4884 19.8222 5.31061 19.5979C5.05505 19.2754 4.8856 18.8426 4.79337 18.0558C4.69844 17.246 4.69686 16.1887 4.69686 14.6653L4.69678 11.7651C4.69676 11.4981 4.69694 10.8595 4.97756 10.3873C5.15049 10.0963 5.3719 9.85324 5.59935 9.72942C5.96586 9.5299 6.38606 9.41654 6.83273 9.41654L7.87309 9.45302C8.25319 9.46092 8.69672 9.44891 9.12487 9.33419C9.95885 9.11073 10.6103 8.45932 10.8337 7.62535C10.9484 7.1972 10.9604 6.75366 10.9525 6.37357L10.9161 5.3332C10.9161 4.86551 11.0404 4.45838 11.2578 4.07997C11.3845 3.85938 11.6052 3.65749 11.91 3.48018C12.3721 3.21127 12.9255 3.20878 13.2637 3.20726C13.6018 3.20573 13.9586 3.20456 14.2567 3.20456C16.0908 3.20456 16.7579 3.21851 17.2613 3.39587C18.1339 3.70332 18.7996 4.34497 19.1097 5.13033C19.1873 5.32697 19.2422 5.58539 19.2716 6.03334C19.3016 6.49002 19.3021 7.07296 19.3021 7.91322V13.9545C19.3021 15.8266 19.2998 17.1263 19.1604 18.1056C19.0259 19.0505 18.7813 19.5525 18.3964 19.9161Z" fill="#141B34"/>
<path fill-rule="evenodd" clip-rule="evenodd" d="M16.998 17C16.998 17.5523 16.5503 18 15.998 18L8.99805 18C8.44576 18 7.99805 17.5523 7.99805 17C7.99805 16.4477 8.44576 16 8.99805 16L15.998 16C16.5503 16 16.998 16.4477 16.998 17Z" fill="#141B34"/>
<path fill-rule="evenodd" clip-rule="evenodd" d="M16.998 13C16.998 13.5523 16.5503 14 15.998 14L12.998 14C12.4458 14 11.998 13.5523 11.998 13C11.998 12.4477 12.4458 12 12.998 12L15.998 12C16.5503 12 16.998 12.4477 16.998 13Z" fill="#141B34"/>
</svg>
