<svg width="24" height="24" viewBox="0 0 24 24" fill="none" xmlns="http://www.w3.org/2000/svg">
<path fill-rule="evenodd" clip-rule="evenodd" d="M1.75 11.9428V12.0572C1.74999 14.2479 1.74998 15.9686 1.93059 17.312C2.11568 18.6886 2.50272 19.7809 3.36091 20.6391C4.21911 21.4973 5.31137 21.8843 6.68802 22.0694C8.03144 22.25 9.75212 22.25 11.9428 22.25H12.0572C14.2479 22.25 15.9686 22.25 17.312 22.0694C18.6886 21.8843 19.7809 21.4973 20.6391 20.6391C21.4973 19.7809 21.8843 18.6886 22.0694 17.312C22.25 15.9686 22.25 14.2479 22.25 12.0572V11.9428C22.25 9.75214 22.25 8.03143 22.0694 6.68802C21.8843 5.31137 21.4973 4.21911 20.6391 3.36091C19.7809 2.50271 18.6886 2.11568 17.312 1.93059C15.9686 1.74998 14.2479 1.74999 12.0572 1.75H12.0572H11.9428H11.9428C9.75213 1.74999 8.03144 1.74998 6.68802 1.93059C5.31137 2.11568 4.21911 2.50271 3.36091 3.36091C2.50271 4.21911 2.11568 5.31137 1.93059 6.68802C1.74998 8.03144 1.74999 9.75212 1.75 11.9428ZM16 10C16 10.4714 16 10.7071 15.8536 10.8536C15.7071 11 15.4714 11 15 11L9 11C8.5286 11 8.2929 11 8.14645 10.8536C8 10.7071 8 10.4714 8 10V4.25628C8 3.8081 8 3.58402 8.14157 3.43846C8.28313 3.2929 8.50244 3.2868 8.94106 3.2746C9.80939 3.25043 10.817 3.25 12 3.25C13.183 3.25 14.1906 3.25043 15.0589 3.27459C15.4976 3.2868 15.7169 3.2929 15.8584 3.43846C16 3.58402 16 3.8081 16 4.25627L16 10ZM12 20.75C10.817 20.75 9.80939 20.7496 8.94106 20.7254C8.50244 20.7132 8.28313 20.7071 8.14157 20.5615C8 20.416 8 20.1919 8 19.7437V14C8 13.5286 8 13.2929 8.14645 13.1464C8.2929 13 8.5286 13 9 13L15 13C15.4714 13 15.7071 13 15.8536 13.1464C16 13.2929 16 13.5286 16 14L16 19.7437C16 20.1919 16 20.416 15.8584 20.5615C15.7169 20.7071 15.4976 20.7132 15.0589 20.7254C14.1906 20.7496 13.183 20.75 12 20.75ZM3.56155 8.93901C3.50252 8.87758 3.50637 8.78141 3.51405 8.58906C3.53173 8.14661 3.55743 7.73218 3.59476 7.35404C3.61096 7.18997 3.61906 7.10793 3.67612 7.05615C3.73318 7.00437 3.81739 7.00425 3.98582 7.00401H3.98582L6.09966 7.00101C6.28847 7.00074 6.38287 7.00061 6.44155 7.05921C6.50023 7.1178 6.50023 7.2122 6.50023 7.40101V8.60044C6.50023 8.789 6.50023 8.88329 6.44165 8.94186C6.38307 9.00044 6.28879 9.00044 6.10023 9.00044H3.91166C3.7176 9.00044 3.62057 9.00044 3.56155 8.93901ZM3.56155 15.0619C3.50252 15.1233 3.50637 15.2195 3.51405 15.4118C3.53173 15.8543 3.55743 16.2687 3.59476 16.6468C3.61096 16.8109 3.61906 16.893 3.67612 16.9447C3.73318 16.9965 3.81739 16.9966 3.98582 16.9969L6.09966 16.9999C6.28847 17.0001 6.38287 17.0003 6.44155 16.9417C6.50023 16.8831 6.50023 16.7887 6.50023 16.5999V15.4004C6.50023 15.2119 6.50023 15.1176 6.44165 15.059C6.38307 15.0004 6.28879 15.0004 6.10023 15.0004H3.91166C3.7176 15.0004 3.62057 15.0004 3.56155 15.0619ZM20.4862 15.4118C20.4939 15.2195 20.4977 15.1233 20.4387 15.0619C20.3797 15.0004 20.2827 15.0004 20.0886 15.0004H17.9C17.7115 15.0004 17.6172 15.0004 17.5586 15.059C17.5 15.1176 17.5 15.2119 17.5 15.4004V16.5999C17.5 16.7887 17.5 16.8831 17.5587 16.9417C17.6174 17.0003 17.7118 17.0001 17.9006 16.9999L20.0144 16.9969C20.1829 16.9966 20.2671 16.9965 20.3241 16.9447C20.3812 16.893 20.3893 16.8109 20.4055 16.6468C20.4428 16.2687 20.4685 15.8543 20.4862 15.4118ZM20.4387 8.93901C20.4977 8.87758 20.4939 8.78141 20.4862 8.58906C20.4685 8.14661 20.4428 7.73218 20.4055 7.35404C20.3893 7.18997 20.3812 7.10793 20.3241 7.05615C20.2671 7.00437 20.1829 7.00425 20.0144 7.00401L17.9006 7.00101C17.7118 7.00074 17.6174 7.00061 17.5587 7.05921C17.5 7.1178 17.5 7.2122 17.5 7.40101V8.60044C17.5 8.789 17.5 8.88329 17.5586 8.94186C17.6172 9.00044 17.7115 9.00044 17.9 9.00044H20.0886C20.2827 9.00044 20.3797 9.00044 20.4387 8.93901Z" fill="#141B34"/>
</svg>
