<svg width="24" height="24" viewBox="0 0 24 24" fill="none" xmlns="http://www.w3.org/2000/svg">
<path fill-rule="evenodd" clip-rule="evenodd" d="M1.75 11.9428V12.0572C1.74999 14.2479 1.74998 15.9686 1.93059 17.312C2.11568 18.6886 2.50272 19.7809 3.36091 20.6391C4.21911 21.4973 5.31137 21.8843 6.68802 22.0694C8.03144 22.25 9.75212 22.25 11.9428 22.25H12.0572C14.2479 22.25 15.9686 22.25 17.312 22.0694C18.6886 21.8843 19.7809 21.4973 20.6391 20.6391C21.4973 19.7809 21.8843 18.6886 22.0694 17.312C22.25 15.9686 22.25 14.2479 22.25 12.0572V11.9428C22.25 9.75214 22.25 8.03143 22.0694 6.68802C21.8843 5.31137 21.4973 4.21911 20.6391 3.36091C19.7809 2.50271 18.6886 2.11568 17.312 1.93059C15.9686 1.74998 14.2479 1.74999 12.0572 1.75H12.0572H11.9428H11.9428C9.75213 1.74999 8.03144 1.74998 6.68802 1.93059C5.31137 2.11568 4.21911 2.50271 3.36091 3.36091C2.50271 4.21911 2.11568 5.31137 1.93059 6.68802C1.74998 8.03144 1.74999 9.75212 1.75 11.9428ZM11.0001 14.9998C11.0001 15.4713 11.0001 15.707 10.8537 15.8534C10.7072 15.9998 10.4715 15.9998 10.0001 15.9998L4.2564 15.9998H4.25639C3.80822 15.9998 3.58414 15.9998 3.43859 15.8583C3.29303 15.7167 3.28693 15.4974 3.27472 15.0588C3.25056 14.1905 3.25012 13.1829 3.25012 11.9998C3.25012 10.8168 3.25056 9.80923 3.27472 8.94091C3.28693 8.50228 3.29303 8.28297 3.43859 8.14141C3.58414 7.99985 3.80823 7.99985 4.2564 7.99985H10.0001C10.4715 7.99985 10.7072 7.99985 10.8537 8.14629C11.0001 8.29274 11.0001 8.52844 11.0001 8.99985L11.0001 14.9998ZM13.0001 8.99985V8.99984C13.0001 8.52844 13.0001 8.29274 13.1466 8.14629C13.293 7.99985 13.5287 7.99985 14.0001 7.99985H19.7438C20.192 7.99985 20.4161 7.99985 20.5617 8.14141C20.7072 8.28297 20.7133 8.50228 20.7255 8.94091C20.7497 9.80923 20.7501 10.8168 20.7501 11.9998C20.7501 13.1829 20.7497 14.1905 20.7255 15.0588C20.7133 15.4974 20.7072 15.7167 20.5617 15.8583C20.4161 15.9998 20.192 15.9998 19.7438 15.9998L14.0001 15.9998C13.5287 15.9998 13.293 15.9998 13.1466 15.8534C13.0001 15.707 13.0001 15.4713 13.0001 14.9999V14.9998L13.0001 8.99985ZM8.93876 3.56131C8.87733 3.50228 8.78115 3.50613 8.58881 3.51381C8.14635 3.53149 7.73193 3.55719 7.35378 3.59452C7.18971 3.61072 7.10767 3.61882 7.05589 3.67588C7.00412 3.73294 7.004 3.81715 7.00376 3.98558V3.98558L7.00076 6.09942C7.00049 6.28823 7.00035 6.38263 7.05895 6.44131C7.11755 6.49999 7.21195 6.49999 7.40076 6.49999H8.60019C8.78875 6.49999 8.88303 6.49999 8.94161 6.44141C9.00019 6.38283 9.00019 6.28855 9.00019 6.09999V3.91142C9.00019 3.71736 9.00019 3.62033 8.93876 3.56131ZM15.0616 3.56131C15.123 3.50228 15.2192 3.50613 15.4116 3.51381C15.854 3.53149 16.2684 3.55719 16.6466 3.59452C16.8107 3.61072 16.8927 3.61882 16.9445 3.67588C16.9963 3.73294 16.9964 3.81716 16.9966 3.98558L16.9996 6.09942C16.9999 6.28823 17 6.38263 16.9414 6.44131C16.8828 6.49999 16.7884 6.49999 16.5996 6.49999H15.4002C15.2116 6.49999 15.1173 6.49999 15.0588 6.44141C15.0002 6.38283 15.0002 6.28856 15.0002 6.1V6.09999V3.91142C15.0002 3.71736 15.0002 3.62033 15.0616 3.56131ZM8.5888 20.486C8.78115 20.4937 8.87733 20.4975 8.93876 20.4385C9.00019 20.3795 9.00019 20.2824 9.00019 20.0884V17.8998C9.00019 17.7112 9.00019 17.617 8.94161 17.5584C8.88303 17.4998 8.78875 17.4998 8.60019 17.4998H7.40076H7.40075C7.21195 17.4998 7.11754 17.4998 7.05895 17.5585C7.00035 17.6172 7.00049 17.7116 7.00076 17.9004L7.00376 20.0142C7.00399 20.1826 7.00411 20.2668 7.05589 20.3239C7.10767 20.381 7.18971 20.3891 7.35378 20.4053C7.73193 20.4426 8.14635 20.4683 8.5888 20.486ZM15.0616 20.4385C15.123 20.4975 15.2192 20.4937 15.4116 20.486C15.854 20.4683 16.2684 20.4426 16.6466 20.4053C16.8107 20.3891 16.8927 20.381 16.9445 20.3239C16.9963 20.2668 16.9964 20.1826 16.9966 20.0142L16.9996 17.9004C16.9999 17.7116 17 17.6172 16.9414 17.5585C16.8828 17.4998 16.7884 17.4998 16.5996 17.4998H16.5996H15.4002C15.2116 17.4998 15.1173 17.4998 15.0588 17.5584C15.0002 17.617 15.0002 17.7112 15.0002 17.8998V20.0884C15.0002 20.2824 15.0002 20.3795 15.0616 20.4385Z" fill="#141B34"/>
</svg>
