<svg width="24" height="24" viewBox="0 0 24 24" fill="none" xmlns="http://www.w3.org/2000/svg">
<path d="M13.6086 1.14723C14.3153 1.44842 14.7979 2.16259 14.7979 3.01681L14.7985 9.78474C14.7985 9.89519 14.8881 9.98472 14.9985 9.98472H18.1003C18.9861 9.98472 19.5964 10.5826 19.8475 11.2101C20.0984 11.8369 20.0646 12.642 19.5638 13.2849L12.5655 22.2678C12.0042 22.9883 11.1215 23.1629 10.3927 22.8523C9.68606 22.5511 9.20345 21.8369 9.20345 20.9827L9.20279 14.2148C9.20278 14.1043 9.11324 14.0148 9.00279 14.0148H5.90101C5.01519 14.0148 4.40492 13.4169 4.15378 12.7894C3.90291 12.1626 3.93672 11.3575 4.43756 10.7146L11.4358 1.73169C11.9971 1.01115 12.8798 0.83658 13.6086 1.14723Z" fill="#141B34"/>
</svg>
