<svg width="24" height="24" viewBox="0 0 24 24" fill="none" xmlns="http://www.w3.org/2000/svg">
<path fill-rule="evenodd" clip-rule="evenodd" d="M14.753 4.19962C15.2516 4.19816 15.736 4.19911 16.2157 4.21517C16.7677 4.23364 17.2305 3.81243 17.2494 3.27438C17.2684 2.73632 16.8363 2.28517 16.2843 2.2667C15.7647 2.24931 15.2485 2.24854 14.747 2.25001C14.1947 2.25162 13.7484 2.68936 13.75 3.22773C13.7517 3.7661 14.2007 4.20123 14.753 4.19962ZM18.1121 3.31025C17.8631 3.79079 18.0608 4.37713 18.5538 4.61988C19.3203 4.99736 19.9432 5.60679 20.3275 6.35575C20.5745 6.83725 21.1752 7.03234 21.6692 6.7915C22.1631 6.55066 22.3632 5.96509 22.1162 5.48359C21.5396 4.35983 20.6057 3.44607 19.4556 2.8797C18.9626 2.63695 18.3611 2.82971 18.1121 3.31025ZM21.75 8.75023C21.1977 8.75023 20.75 9.18667 20.75 9.72504V14.2741C20.75 14.8125 21.1977 15.249 21.75 15.249C22.3023 15.249 22.75 14.8125 22.75 14.2741V9.72504C22.75 9.18667 22.3023 8.75023 21.75 8.75023ZM21.6859 17.1462C21.1888 16.9115 20.5907 17.1141 20.35 17.5986C19.9678 18.368 19.3355 18.9942 18.5538 19.3791C18.0608 19.6219 17.8631 20.2082 18.1121 20.6888C18.3611 21.1693 18.9626 21.3621 19.4556 21.1193C20.6285 20.5417 21.5764 19.6029 22.15 18.4484C22.3907 17.9639 22.1829 17.3809 21.6859 17.1462ZM17.2494 20.7246C17.2305 20.1866 16.7677 19.7654 16.2157 19.7839C15.736 19.7999 15.2517 19.8009 14.753 19.7994C14.2007 19.7978 13.7517 20.2329 13.75 20.7713C13.7484 21.3097 14.1947 21.7474 14.747 21.749C15.2485 21.7505 15.7647 21.7497 16.2843 21.7323C16.8363 21.7139 17.2684 21.2627 17.2494 20.7246Z" fill="#141B34"/>
<path d="M5.49378 2.45927C4.1225 2.73834 2.81248 3.39327 1.95349 4.87994C1.57508 5.53487 1.40851 6.26811 1.32843 7.15103C1.24999 8.01581 1.24999 9.09457 1.25 10.4639V13.536C1.24999 14.9053 1.24999 15.9841 1.32843 16.8489C1.40851 17.7318 1.57508 18.465 1.95349 19.1199C2.81248 20.6066 4.1225 21.2615 5.49378 21.5406C6.60294 21.7663 7.81715 21.7559 8.89367 21.7465H8.89369H8.89387C9.10163 21.7447 9.30425 21.743 9.5 21.743C10.4531 21.743 11.3499 21.6175 11.97 21.0171C12.5962 20.4108 12.75 19.5082 12.75 18.4949V5.50496C12.75 4.49169 12.5962 3.58911 11.97 2.98283C11.3499 2.38236 10.4531 2.25689 9.5 2.25689C9.30419 2.25689 9.10151 2.25514 8.89369 2.25334C7.81717 2.24403 6.60295 2.23354 5.49378 2.45927Z" fill="#141B34"/>
</svg>
