<svg width="24" height="24" viewBox="0 0 24 24" fill="none" xmlns="http://www.w3.org/2000/svg">
<path d="M22.75 12.0477C22.75 13.0481 22.75 13.8633 22.68 14.4866C22.6101 15.1095 22.4552 15.7238 21.9892 16.1581C21.7219 16.4073 21.3999 16.5898 21.0477 16.6877C20.4207 16.8621 19.8238 16.6453 19.2859 16.3573C18.7502 16.0705 17.2356 15.0073 17.2356 15.0073L17.2356 15.0073C16.589 14.5535 16.0491 14.1745 15.6595 13.8253C15.2552 13.463 14.9135 13.0485 14.8 12.494C14.7333 12.1683 14.7333 11.8316 14.8 11.5059C14.9135 10.9514 15.2552 10.5369 15.6595 10.1746C16.0491 9.82543 16.589 9.44643 17.2356 8.99259C17.2356 8.99259 18.7502 7.92936 19.2859 7.64256C19.8238 7.35464 20.4207 7.13783 21.0477 7.31218C21.3999 7.41011 21.7219 7.59262 21.9892 7.84178C22.4552 8.27614 22.6101 8.89037 22.68 9.51329C22.75 10.1366 22.75 10.9518 22.75 11.9522L22.75 11.9523L22.75 12.0476L22.75 12.0477Z" fill="#141B34"/>
<path d="M1.25 12.0477C1.24998 13.0481 1.24997 13.8633 1.31995 14.4866C1.38989 15.1095 1.54476 15.7238 2.01076 16.1581C2.27806 16.4073 2.60012 16.5898 2.9523 16.6877C3.57932 16.8621 4.17619 16.6453 4.71405 16.3573C5.24983 16.0705 6.76442 15.0073 6.76442 15.0073L6.76443 15.0073C7.41099 14.5535 7.95093 14.1745 8.34055 13.8253C8.7448 13.463 9.08646 13.0485 9.19998 12.494C9.26668 12.1683 9.26668 11.8316 9.19998 11.5059C9.08646 10.9514 8.7448 10.5369 8.34055 10.1746C7.95092 9.82543 7.41098 9.44644 6.76441 8.99259C6.76441 8.99259 5.24984 7.92936 4.71406 7.64256C4.17619 7.35464 3.57933 7.13783 2.95231 7.31218C2.60013 7.41011 2.27806 7.59262 2.01076 7.84178C1.54476 8.27614 1.38989 8.89037 1.31995 9.51329C1.24997 10.1366 1.24998 10.9518 1.25 11.9522L1.25 11.9523L1.25 12.0476L1.25 12.0477Z" fill="#141B34"/>
<path fill-rule="evenodd" clip-rule="evenodd" d="M12 2C12.5523 2 13 2.44772 13 3L13 6.5C13 7.05228 12.5523 7.5 12 7.5C11.4477 7.5 11 7.05228 11 6.5L11 3C11 2.44772 11.4477 2 12 2ZM12 9C12.5523 9 13 9.44772 13 10L13 14C13 14.5523 12.5523 15 12 15C11.4477 15 11 14.5523 11 14L11 10C11 9.44772 11.4477 9 12 9ZM12 16.5C12.5523 16.5 13 16.9477 13 17.5L13 21C13 21.5523 12.5523 22 12 22C11.4477 22 11 21.5523 11 21L11 17.5C11 16.9477 11.4477 16.5 12 16.5Z" fill="#141B34"/>
</svg>
