<svg width="24" height="24" viewBox="0 0 24 24" fill="none" xmlns="http://www.w3.org/2000/svg">
<path d="M22.7282 17.581C22.6319 17.8054 22.5006 17.9964 22.3176 18.1615C22.1813 18.2845 22.0046 18.3938 21.912 18.4511C21.2991 18.832 20.5946 19.0717 19.8743 19.185L19.8743 21.375C19.8743 21.9273 19.4266 22.375 18.8743 22.375C18.322 22.375 17.8743 21.9273 17.8743 21.375L17.8743 19.1851C17.154 19.0717 16.4495 18.832 15.8366 18.4511C15.7441 18.3939 15.5673 18.2845 15.4309 18.1614C15.2479 17.9963 15.1167 17.8052 15.0205 17.5808C14.7029 16.8401 14.9654 16.1179 15.2005 15.6856C15.4522 15.2228 15.8128 14.8234 16.122 14.5679C16.3972 14.3406 16.5739 14.1939 16.6938 14.0832L16.3662 13.0849C16.2702 12.7647 16.1006 12.1994 16.3831 11.6079C16.5051 11.3525 16.672 11.1439 16.9011 10.9768C17.0697 10.8539 17.2882 10.7533 17.4057 10.6993C18.3402 10.2669 19.4084 10.2669 20.3428 10.6993C20.4604 10.7533 20.6789 10.8539 20.8475 10.9768C21.0766 11.1439 21.2435 11.3525 21.3655 11.6079C21.6481 12.1994 21.4784 12.7647 21.3824 13.0849L21.0514 14.0936C21.1683 14.1995 21.3398 14.3396 21.6069 14.5568C21.92 14.8114 22.2859 15.2107 22.5419 15.675C22.7814 16.1093 23.0482 16.8349 22.7282 17.581Z" fill="#141B34"/>
<path d="M9.33717 1.86384C8.6983 1.62427 7.98662 1.62458 6.95721 1.62504C6.07847 1.62503 5.19662 1.62506 4.62427 1.67552C4.03453 1.7275 3.51845 1.83746 3.04715 2.10048C2.43991 2.43935 1.93885 2.94041 1.59997 3.54766C1.33695 4.01896 1.227 4.53504 1.17501 5.12478C1.12456 5.69712 1.12456 6.40585 1.12457 7.28458V10.4325C1.12456 12.7408 1.12455 14.5499 1.31432 15.9614C1.50856 17.4061 1.9139 18.5461 2.80871 19.4409C3.70352 20.3358 4.84354 20.7411 6.28828 20.9353C7.69977 21.1251 9.5088 21.1251 11.8172 21.1251H13.1668C14.2349 21.1251 15.1596 21.1251 15.9641 21.0989C16.0778 21.0952 16.1347 21.0934 16.1819 21.0752C16.2636 21.0438 16.329 20.9763 16.3577 20.8937C16.3743 20.8458 16.3743 20.7879 16.3743 20.6721C16.3743 20.5782 16.3743 20.5313 16.3643 20.4935C16.3456 20.423 16.3114 20.3727 16.2529 20.3293C16.2214 20.306 16.1722 20.2865 16.0737 20.2473C15.3783 19.971 14.7045 19.5011 14.4259 19.275C14.069 18.9528 13.8162 18.5784 13.6419 18.1718C13.0508 16.7932 13.5723 15.5398 13.8828 14.969C14.107 14.5568 14.3857 14.1881 14.6707 13.8815C14.807 13.7349 14.8751 13.6616 14.8934 13.5849C14.9117 13.5081 14.8837 13.4104 14.8275 13.2149C14.6562 12.6188 14.5926 11.8763 15.0297 10.9613C15.2507 10.4985 15.5724 10.0893 16.0172 9.76493C16.3109 9.55067 16.6632 9.38946 16.779 9.33649C18.1124 8.71951 19.6373 8.72069 20.9708 9.33705C21.0866 9.39002 21.4377 9.55064 21.7314 9.7649C22.0137 9.97074 22.1548 10.0737 22.179 10.0854C22.4026 10.1937 22.5794 10.0965 22.6078 9.84973C22.6109 9.82296 22.6022 9.68789 22.5847 9.41774C22.5772 9.30081 22.5682 9.18958 22.5575 9.08456C22.4883 8.404 22.3414 7.8138 21.9926 7.29169C21.719 6.88223 21.3674 6.53066 20.958 6.25707C20.4359 5.90821 19.8456 5.76136 19.1651 5.69213C18.5058 5.62506 17.684 5.62507 16.665 5.62508L13.1106 5.62508C12.7945 5.62508 12.6141 5.62415 12.481 5.61039C12.379 5.60325 12.3094 5.52763 12.2873 5.49071C12.2155 5.37777 11.9584 4.86416 11.817 4.58144C11.345 3.62629 10.7326 2.38713 9.33717 1.86384Z" fill="#141B34"/>
</svg>
