<svg width="24" height="24" viewBox="0 0 24 24" fill="none" xmlns="http://www.w3.org/2000/svg">
<path fill-rule="evenodd" clip-rule="evenodd" d="M12 16C10.8954 16 10 16.8954 10 18V20L10 20.0394V20.0394C10.0001 20.2393 10.0003 20.4772 9.97278 20.6819C9.93956 20.9289 9.85065 21.2706 9.56066 21.5606C9.27067 21.8506 8.92893 21.9395 8.68188 21.9727C8.47723 22.0003 8.23927 22.0001 8.0394 22L8.03938 22L8 22H2C1.44772 22 1 21.5523 1 21C1 20.4477 1.44772 20 2 20H2.25001L2.25021 3.96556C2.25013 3.76045 2.25004 3.53866 2.27521 3.35145C2.3047 3.13214 2.38053 2.85196 2.61631 2.61616C2.8521 2.38036 3.13228 2.30452 3.35159 2.27502C3.53879 2.24985 3.7606 2.24992 3.96569 2.24999L4.69229 2.24997C4.75824 2.24996 4.86133 2.24994 4.95906 2.26232C5.06738 2.27603 5.25235 2.31347 5.42869 2.45115C5.60503 2.58883 5.68623 2.75918 5.72581 2.86094C5.76152 2.95275 5.78651 3.05276 5.8025 3.11674L6.0858 4.24995H6.91464L7.19794 3.11681C7.21393 3.05284 7.23892 2.95283 7.27463 2.86102C7.31421 2.75927 7.3954 2.58892 7.57173 2.45125C7.74806 2.31357 7.93302 2.27612 8.04133 2.26241C8.13906 2.25003 8.24214 2.25004 8.30809 2.25005L9.03469 2.25004C9.2398 2.24996 9.46158 2.24987 9.64879 2.27504C9.86811 2.30453 10.1483 2.38036 10.3841 2.61616C10.6199 2.85196 10.6957 3.13215 10.7252 3.35147C10.7504 3.53869 10.7503 3.76048 10.7502 3.9656L10.7502 8.00005V8.00237C10.7502 8.12621 10.7502 8.18813 10.7812 8.21909C10.8121 8.25005 10.8741 8.25005 10.9979 8.25005H11.0002H13.0002H13.0025C13.1264 8.25005 13.1883 8.25005 13.2193 8.21909C13.2502 8.18813 13.2502 8.1262 13.2502 8.00236V8.00004L13.2502 3.96557C13.2501 3.76047 13.25 3.53868 13.2752 3.35147C13.3047 3.13215 13.3805 2.85196 13.6163 2.61616C13.8521 2.38036 14.1323 2.30453 14.3516 2.27504C14.5389 2.24987 14.7607 2.24996 14.9658 2.25004L15.6923 2.25005C15.7583 2.25004 15.8614 2.25003 15.9591 2.26241C16.0674 2.27612 16.2524 2.31357 16.4287 2.45124C16.605 2.58892 16.6862 2.75926 16.7258 2.86102C16.7615 2.95277 16.7865 3.05284 16.8025 3.11682L17.0858 4.24995H17.9146L18.1979 3.11671C18.2139 3.05273 18.2389 2.95274 18.2746 2.86095C18.3142 2.75919 18.3954 2.58883 18.5717 2.45115C18.7481 2.31348 18.933 2.27603 19.0414 2.26232C19.1391 2.24994 19.2422 2.24996 19.3081 2.24997L20.0348 2.24999C20.2399 2.24992 20.4616 2.24985 20.6488 2.27502C20.8682 2.30452 21.1483 2.38036 21.3841 2.61616C21.6199 2.85196 21.6957 3.13214 21.7252 3.35145C21.7504 3.53866 21.7503 3.76045 21.7502 3.96556L21.7502 20H22C22.5523 20 23 20.4477 23 21C23 21.5523 22.5523 22 22 22H16L15.9606 22L15.9606 22C15.7607 22.0001 15.5228 22.0003 15.3181 21.9727C15.0711 21.9395 14.7293 21.8506 14.4393 21.5606C14.1493 21.2706 14.0604 20.9289 14.0272 20.6819C13.9997 20.4772 13.9999 20.2393 14 20.0394V20.0394L14 20V18C14 16.8954 13.1046 16 12 16ZM10.5 12C10.5 11.4477 10.9477 11 11.5 11H12.5C13.0523 11 13.5 11.4477 13.5 12C13.5 12.5523 13.0523 13 12.5 13H11.5C10.9477 13 10.5 12.5523 10.5 12ZM5 8.99997C5 8.44768 5.44772 7.99997 6 7.99997H7C7.55228 7.99997 8 8.44768 8 8.99997C8 9.55225 7.55228 9.99997 7 9.99997H6C5.44772 9.99997 5 9.55225 5 8.99997ZM17 7.99997C16.4477 7.99997 16 8.44768 16 8.99997C16 9.55225 16.4477 9.99997 17 9.99997H18C18.5523 9.99997 19 9.55225 19 8.99997C19 8.44768 18.5523 7.99997 18 7.99997H17Z" fill="#141B34"/>
</svg>
