<svg width="24" height="24" viewBox="0 0 24 24" fill="none" xmlns="http://www.w3.org/2000/svg">
<path fill-rule="evenodd" clip-rule="evenodd" d="M18 15.7337C18.3033 15.7337 18.5768 15.5514 18.6929 15.2718C18.809 14.9923 18.7448 14.6705 18.5303 14.4565L12.5 9.00024L15.75 9.00024C17.1642 9.00024 17.8713 9.00024 18.3107 8.5609C18.75 8.12156 18.75 7.41446 18.75 6.00024V4.00024C18.75 3.77718 18.7394 3.54673 18.6926 3.33404C18.6441 3.11286 18.5468 2.86588 18.3406 2.65966C18.1344 2.45344 17.8874 2.35621 17.6662 2.30762C17.4535 2.26089 17.2231 2.25024 17 2.25024H6.00002C5.69668 2.25024 5.4232 2.43298 5.30711 2.71323C5.19103 2.99349 5.25519 3.31608 5.46969 3.53057L11.5 9.00024H8.25C6.83579 9.00024 6.12868 9.00024 5.68934 9.4385C5.25 9.87677 5.25 10.5821 5.25 11.9929V14.8642C5.25 15.4187 5.48132 15.9482 5.88849 16.3256L10.2795 20.7182C11.0091 21.4743 11.3739 21.8523 11.6869 21.7264C12 21.6005 12 21.0758 12 20.0264V17.7288C12 16.7883 12 16.318 12.2929 16.0258C12.5858 15.7337 13.0572 15.7337 14 15.7337L18 15.7337Z" fill="#141B34"/>
</svg>
