<svg width="24" height="24" viewBox="0 0 24 24" fill="none" xmlns="http://www.w3.org/2000/svg">
<path fill-rule="evenodd" clip-rule="evenodd" d="M15.7951 5.89475C14.2048 6.80612 12.924 8.3529 11.9532 10.1821C11.3472 11.3238 10.7069 12.2736 10.0212 13.0668C10.0566 13.1868 10.1137 13.3213 10.1968 13.4749C10.278 13.625 10.3724 13.7736 10.4777 13.9263C11.4364 12.6745 12.5383 11.5265 14.002 10.6559C15.7797 9.59851 18.0044 9.00012 21 9.00012C21.5523 9.00012 22 9.44784 22 10.0001C22 10.5524 21.5523 11.0001 21 11.0001C18.2813 11.0001 16.4285 11.5396 15.0245 12.3748C13.6805 13.1742 12.6691 14.2899 11.6851 15.6551C11.8167 15.892 11.93 16.1419 12.0039 16.4006C12.1961 17.0731 12.1195 17.7905 11.5858 18.4653C11.5615 18.496 11.5348 18.5248 11.5059 18.5514C11.2255 18.8099 10.9006 18.9773 10.5366 19.0327C10.1821 19.0866 9.8468 19.0259 9.5507 18.9228C9.30835 18.8384 9.06423 18.7146 8.82385 18.5714C8.76281 18.6773 8.68801 18.8039 8.64455 18.8673C8.49245 19.0955 8.26432 19.4 7.95711 19.7072C7.34811 20.3162 6.35876 21.0001 5 21.0001C4.44772 21.0001 4 20.5524 4 20.0001C4 19.4478 4.44772 19.0001 5 19.0001C5.64124 19.0001 6.15189 18.684 6.54289 18.293C6.73568 18.1002 6.88255 17.9048 6.98045 17.7579C7.02884 17.6853 7.06371 17.627 7.08488 17.5899C7.09543 17.5715 7.10245 17.5585 7.10593 17.552C7.12726 17.5094 7.15122 17.469 7.17751 17.4309C6.4899 16.9548 5.78112 16.5286 4.99523 16.3211C4.09288 16.6071 3.15209 16.8101 2.17604 16.9845C1.63236 17.0816 1.11288 16.7196 1.01576 16.1759C0.918627 15.6322 1.28063 15.1128 1.8243 15.0156C3.71396 14.6781 5.22909 14.2651 6.55085 13.447C7.85511 12.6398 9.04891 11.388 10.1866 9.24451C11.2657 7.21122 12.7756 5.32005 14.8007 4.1595C16.8583 2.98032 19.3634 2.60566 22.287 3.48111C22.8161 3.63954 23.1166 4.19687 22.9581 4.72594C22.7997 5.25502 22.2424 5.55549 21.7133 5.39706C19.288 4.67081 17.3529 5.00202 15.7951 5.89475Z" fill="#141B34"/>
</svg>
