<svg width="25" height="24" viewBox="0 0 25 24" fill="none" xmlns="http://www.w3.org/2000/svg">
<path fill-rule="evenodd" clip-rule="evenodd" d="M5.74435 6.29078C5.4545 5.69914 4.97458 5.40506 4.46746 5.30177C4.15962 5.23906 3.78401 5.24858 3.57458 5.25388C3.31813 5.25374 2.86929 5.25563 2.62605 5.29178C2.33743 5.33467 1.92133 5.45427 1.6272 5.85225C1.33932 6.24176 1.34438 6.6615 1.38073 6.93728C1.4114 7.16999 1.97415 9.07115 2.01212 9.19929C2.01354 9.20409 2.01502 9.20843 2.01681 9.2131C2.15399 9.57224 2.32859 9.90947 2.61186 10.2114C2.89841 10.5169 3.22792 10.7135 3.58311 10.8727C3.90963 11.019 4.30987 11.1552 4.76069 11.3085L9.02598 12.7596C9.39979 12.8867 9.61595 13.0089 9.7764 13.1449C9.93822 13.282 10.1809 13.6312 10.3754 13.9885C11.0001 15.1372 11.4275 15.9232 12.0657 16.4959C12.5329 16.9152 13.0757 17.2417 13.666 17.4564C14.4755 17.7509 15.3682 17.7505 16.6506 17.75L20.6503 17.7499C21.2723 17.7499 21.8759 17.5624 22.3109 17.0908C22.7309 16.6354 22.8633 15.9253 22.8633 15.3975C22.8634 14.0637 22.8635 13.2479 22.724 12.5539C22.1607 9.75053 19.965 7.55469 17.1537 7.05628C16.4593 6.93316 15.6502 6.95829 14.354 6.99855L7.24658 7.21838C6.85982 7.23034 6.33789 7.33933 6.0973 6.97417C6.00772 6.83823 5.83952 6.48918 5.74435 6.29078ZM20.6211 12.2461C20.6648 12.372 20.5688 12.5 20.4356 12.5H19.1131C17.1127 12.5 15.4552 11.0316 15.1599 9.11383C15.1422 8.99892 15.2321 8.89755 15.3483 8.8951C16.0823 8.87964 16.4754 8.89001 16.8069 8.94878C18.5662 9.26068 20.0243 10.5254 20.6211 12.2461Z" fill="#141B34"/>
<path fill-rule="evenodd" clip-rule="evenodd" d="M15.4295 16.0516C15.9535 16.2262 16.2366 16.7926 16.062 17.3165L15.5007 19.0003H18.3925L19.1646 16.684C19.3392 16.1601 19.9056 15.8769 20.4295 16.0516C20.9535 16.2262 21.2366 16.7926 21.062 17.3165L20.5007 19.0003H21.1133C21.6656 19.0003 22.1133 19.448 22.1133 20.0003C22.1133 20.5526 21.6656 21.0003 21.1133 21.0003H12.1133C11.561 21.0003 11.1133 20.5526 11.1133 20.0003C11.1133 19.448 11.561 19.0003 12.1133 19.0003H13.3925L14.1646 16.684C14.3392 16.1601 14.9056 15.8769 15.4295 16.0516Z" fill="#141B34"/>
<path fill-rule="evenodd" clip-rule="evenodd" d="M10.1133 4C10.1133 3.44772 10.561 3 11.1133 3H17.1133C17.6656 3 18.1133 3.44772 18.1133 4C18.1133 4.55228 17.6656 5 17.1133 5H15.1133V8C15.1133 8.55228 14.6656 9 14.1133 9C13.561 9 13.1133 8.55228 13.1133 8L13.1133 5H11.1133C10.561 5 10.1133 4.55228 10.1133 4Z" fill="#141B34"/>
</svg>
