<svg width="24" height="24" viewBox="0 0 24 24" fill="none" xmlns="http://www.w3.org/2000/svg">
<path fill-rule="evenodd" clip-rule="evenodd" d="M10.4132 18.851C10.4941 18.4579 10.542 18.2316 10.5964 18.0719C10.6571 17.8933 10.7957 17.8713 10.96 17.8453C10.9886 17.8407 11.0181 17.8361 11.048 17.8304C11.3136 17.7804 11.6449 17.7512 11.9884 17.7493C12.3322 17.7474 12.6646 17.7729 12.933 17.8218C12.9501 17.8249 12.9675 17.8279 12.985 17.8309C13.1568 17.8604 13.3428 17.8923 13.4039 18.0719C13.4583 18.2316 13.5062 18.4579 13.5871 18.851L14.2655 22.1502C14.3367 22.4965 14.6359 22.7375 14.9742 22.7489H9.02608C9.36441 22.7375 9.66358 22.4965 9.73478 22.1502L10.4132 18.851ZM8.97576 22.7489C8.93386 22.7475 8.89152 22.7425 8.84908 22.7338C8.44336 22.6504 8.18209 22.2538 8.26552 21.8481L8.94397 18.5489L8.95186 18.5105L8.95187 18.5105C9.02196 18.1694 9.08787 17.8486 9.17629 17.5887C9.27523 17.2979 9.42727 17.0024 9.7184 16.7703C10.0155 16.5334 10.4336 16.4198 10.7702 16.3564C11.1422 16.2862 11.566 16.2516 11.9801 16.2493C12.394 16.247 12.822 16.2768 13.2018 16.346C13.5498 16.4094 13.9745 16.5252 14.2819 16.7703C14.573 17.0024 14.7251 17.2979 14.824 17.5887C14.9124 17.8486 14.9783 18.1693 15.0484 18.5104L15.0484 18.5105L15.0563 18.5489L15.7348 21.8481C15.8182 22.2538 15.5569 22.6504 15.1512 22.7338C15.1088 22.7425 15.0664 22.7475 15.0245 22.7489L20 22.7489C20.2247 22.7489 20.4376 22.6482 20.58 22.4744C20.7225 22.3006 20.7795 22.0721 20.7354 21.8518L19.2569 14.459C19.2107 14.2282 19.1876 14.1127 19.1047 14.0447C19.0217 13.9767 18.904 13.9767 18.6685 13.9767H18.6685L5.33147 13.9767C5.09601 13.9767 4.97827 13.9767 4.89533 14.0447C4.81239 14.1127 4.7893 14.2282 4.74312 14.4591L3.26457 21.8518C3.2205 22.0721 3.27755 22.3006 3.42 22.4744C3.56245 22.6482 3.77531 22.7489 4.00001 22.7489H8.97576Z" fill="#141B34"/>
<path d="M12.75 9.00012C12.75 8.58591 12.4142 8.25012 12 8.25012C11.5858 8.25012 11.25 8.58591 11.25 9.00012V12.1501C11.25 12.433 11.25 12.5744 11.1621 12.6623C11.0743 12.7501 10.9328 12.7501 10.65 12.7501H9.35C9.06716 12.7501 8.92574 12.7501 8.83787 12.6623C8.75 12.5744 8.75 12.433 8.75 12.1502V10.5001C8.75 10.0859 8.41421 9.75012 8 9.75012C7.58579 9.75012 7.25 10.0859 7.25 10.5001V12.2141C7.25 12.4353 7.25 12.5459 7.19449 12.624C7.17506 12.6513 7.15118 12.6752 7.12385 12.6946C7.04579 12.7501 6.93516 12.7501 6.7139 12.7501C5.59682 12.7502 4.67833 12.7502 4.01369 12.6597C3.39173 12.5749 2.59873 12.3641 2.32628 11.5763C2.05585 10.7943 2.53929 10.1349 2.97181 9.67563C3.43434 9.18454 4.15095 8.60309 5.02403 7.89468L10.2353 3.66606C10.5007 3.45072 10.6334 3.34306 10.6334 3.20015C10.6334 3.05724 10.5007 2.94957 10.2353 2.73424L10.0484 2.58253C9.72671 2.32154 9.67754 1.84922 9.93853 1.52758C10.1995 1.20593 10.6719 1.15676 10.9935 1.41776L11.6217 1.92753C11.8028 2.07448 11.8934 2.14796 11.9998 2.14796C12.1062 2.14796 12.1967 2.07448 12.3778 1.92753L13.0061 1.41776C13.3277 1.15676 13.8 1.20593 14.061 1.52758C14.322 1.84922 14.2729 2.32154 13.9512 2.58253L13.7643 2.73424C13.4989 2.94957 13.3662 3.05724 13.3662 3.20015C13.3662 3.34306 13.4989 3.45072 13.7643 3.66606L18.9755 7.89467C19.8486 8.60308 20.5652 9.18454 21.0278 9.67563C21.4603 10.1349 21.9437 10.7943 21.6733 11.5763C21.4008 12.3641 20.6078 12.5749 19.9859 12.6597C19.3212 12.7502 18.4028 12.7502 17.2857 12.7501C17.0648 12.7501 16.9544 12.7501 16.8764 12.6948C16.8489 12.6753 16.8249 12.6513 16.8053 12.6238C16.75 12.5458 16.75 12.4353 16.75 12.2144V10.5001C16.75 10.0859 16.4142 9.75012 16 9.75012C15.5858 9.75012 15.25 10.0859 15.25 10.5001V12.1501C15.25 12.433 15.25 12.5744 15.1621 12.6623C15.0743 12.7501 14.9328 12.7501 14.65 12.7501H13.35C13.0672 12.7501 12.9257 12.7501 12.8379 12.6623C12.75 12.5744 12.75 12.433 12.75 12.1502V9.00012Z" fill="#141B34"/>
<path fill-rule="evenodd" clip-rule="evenodd" d="M1.25 21.75C1.25 21.1977 1.68754 20.75 2.22727 20.75H21.7727C22.3125 20.75 22.75 21.1977 22.75 21.75C22.75 22.3023 22.3125 22.75 21.7727 22.75H2.22727C1.68754 22.75 1.25 22.3023 1.25 21.75Z" fill="#141B34"/>
</svg>
