<svg width="24" height="24" viewBox="0 0 24 24" fill="none" xmlns="http://www.w3.org/2000/svg">
<path fill-rule="evenodd" clip-rule="evenodd" d="M7.55464 3.26733C8.63676 2.04123 10.2659 1.25 12 1.25C13.7341 1.25 15.3632 2.04123 16.4454 3.26733C17.5088 4.47226 18.0736 6.13813 17.6377 7.90544C17.6723 7.94294 17.765 8.03417 17.8485 8.11376C17.9822 8.24035 18.1907 8.43771 18.3576 8.66533C18.5582 8.93891 18.75 9.31961 18.75 9.8061C18.75 10.2953 18.6459 10.7639 18.3761 11.1609C18.1019 11.5645 17.7228 11.7968 17.352 11.9271C17.2361 11.9678 17.1155 12 16.9925 12.0253L16.3787 14.2262C15.6458 16.8544 15.0762 18.8967 14.5066 20.2774C14.22 20.972 13.9079 21.5652 13.5308 21.9935C13.1371 22.4406 12.6314 22.75 11.9998 22.75C11.3682 22.75 10.8625 22.4406 10.4688 21.9935C10.0916 21.5652 9.77954 20.972 9.49297 20.2774C8.92333 18.8967 8.3538 16.8544 7.62085 14.2262L7.62085 14.2262L7.62084 14.2262L6.9999 11.9996C6.79505 11.9614 6.59361 11.906 6.41585 11.8253C6.08033 11.6729 5.76312 11.424 5.54292 11.04C5.33042 10.6695 5.25 10.246 5.25 9.8061C5.25 9.31961 5.44184 8.93891 5.64244 8.66533C5.80935 8.4377 6.01782 8.24035 6.15154 8.11375C6.23504 8.03417 6.32768 7.94294 6.36225 7.90544C5.92638 6.13813 6.49119 4.47226 7.55464 3.26733ZM9.00072 4.54351C8.27736 5.36312 7.9528 6.42822 8.25853 7.53419C8.39762 8.03735 8.27987 8.47916 8.07928 8.81752C7.9108 9.10172 7.67231 9.32892 7.53091 9.46362C7.35322 9.63298 7.25774 9.72406 7.19784 9.80575C7.141 9.87713 7.06459 10.0298 7.2137 10.0694C7.35161 10.1321 7.64052 10.1491 8.2023 10.161C8.63188 10.1697 9.33127 10.1838 9.91137 10.4939C10.2501 10.675 10.5482 10.952 10.7501 11.3457C10.9445 11.7249 11.0214 12.1569 11.0214 12.6158C11.0177 12.8058 11.1033 13.1858 11.4755 13.1858C11.9407 13.1858 11.9952 12.8058 12.0001 12.6158C12.0001 12.1115 12.0999 11.6361 12.3518 11.2293C12.6102 10.8122 12.9757 10.5525 13.3544 10.3985C14.0105 10.1315 14.8581 10.156 15.4025 10.1718C16.079 10.191 16.4687 10.1933 16.7129 10.1076C16.9768 10.058 16.8825 9.8857 16.8024 9.80575C16.7425 9.72406 16.647 9.63298 16.4693 9.46362C16.328 9.32892 16.0895 9.10172 15.921 8.81752C15.7204 8.47916 15.6026 8.03735 15.7417 7.53419C16.0475 6.42822 15.7229 5.36312 14.9995 4.54351C14.2663 3.71272 13.1555 3.17859 12.0001 3.17859C10.8448 3.17859 9.73396 3.71272 9.00072 4.54351Z" fill="#141B34"/>
</svg>
