<svg width="24" height="25" viewBox="0 0 24 25" fill="none" xmlns="http://www.w3.org/2000/svg">
<path fill-rule="evenodd" clip-rule="evenodd" d="M14.5028 3.75196C14.0886 3.75041 13.7516 4.08495 13.75 4.49916L14.4972 6.30011H9.5028L10.25 4.49916C10.2485 4.08495 9.91142 3.75041 9.49721 3.75196C8.18295 3.75686 7.10892 3.78117 6.24135 3.92543C5.35533 4.07276 4.61291 4.35566 4.00932 4.92749C3.32721 5.5737 3.02661 6.39489 2.88558 7.38865C2.74996 8.34429 2.74998 9.56052 2.75 11.0742V11.0742V11.0743V15.9273V15.9273V15.9273C2.74998 17.441 2.74996 18.6573 2.88558 19.6129C3.02661 20.6067 3.32721 21.4279 4.00932 22.0741C4.68571 22.7149 5.53566 22.9923 6.56479 23.1234C7.56529 23.2508 8.84201 23.2508 10.4468 23.2508H10.4468H13.5532H13.5532C15.158 23.2508 16.4347 23.2508 17.4352 23.1234C18.4643 22.9923 19.3143 22.7149 19.9907 22.0741C20.6728 21.4279 20.9734 20.6067 21.1144 19.6129C21.25 18.6573 21.25 17.441 21.25 15.9273V11.0743C21.25 9.56055 21.25 8.34431 21.1144 7.38865C20.9734 6.39489 20.6728 5.5737 19.9907 4.92749C19.3871 4.35566 18.6447 4.07276 17.7587 3.92543C16.8911 3.78117 15.8171 3.75686 14.5028 3.75196ZM11.9934 9.75C10.485 9.75 9.2962 11.0003 9.2962 12.5C9.2962 13.9997 10.485 15.25 11.9934 15.25C13.5018 15.25 14.6906 13.9997 14.6906 12.5C14.6906 11.0003 13.5018 9.75 11.9934 9.75ZM14.7767 20.25C15.5904 20.25 16.25 19.5904 16.25 18.7767C16.25 18.4232 16.1225 18.0482 15.835 17.7652C13.7319 15.6957 10.2441 15.7978 8.1819 17.7556C7.88358 18.0388 7.75 18.4208 7.75 18.7819C7.75 19.5927 8.40729 20.25 9.21809 20.25H14.7767Z" fill="#141B34"/>
<path fill-rule="evenodd" clip-rule="evenodd" d="M11.9239 1.75003C11.949 1.75005 11.9743 1.75007 12 1.75007C12.0257 1.75007 12.0511 1.75005 12.0762 1.75003C12.4715 1.74977 12.7887 1.74956 13.0768 1.81587C13.74 1.9685 14.3245 2.38211 14.6506 2.98172C14.7931 3.24368 14.8632 3.54806 14.9414 3.88803C14.9471 3.91273 14.9528 3.93761 14.9586 3.96268L15.0419 4.3228C15.0446 4.33442 15.0472 4.346 15.0499 4.35754C15.1281 4.69545 15.1998 5.00508 15.2311 5.26487C15.2648 5.54381 15.2671 5.86611 15.1211 6.18814C14.9718 6.51722 14.7235 6.7861 14.4203 6.9702C14.1352 7.14339 13.8262 7.20054 13.5374 7.22584C13.2606 7.2501 12.9198 7.25008 12.5294 7.25007H11.4706C11.0802 7.25008 10.7394 7.2501 10.4626 7.22584C10.1739 7.20054 9.86485 7.14339 9.57971 6.9702C9.27658 6.7861 9.02827 6.51722 8.87898 6.18814C8.7329 5.86611 8.7352 5.54381 8.7689 5.26487C8.80029 5.00508 8.87194 4.69545 8.95014 4.35754C8.95281 4.346 8.95549 4.33442 8.95817 4.3228L9.04147 3.96268C9.04727 3.93761 9.053 3.91273 9.05868 3.88803C9.13689 3.54806 9.20691 3.24368 9.34941 2.98172C9.67557 2.38211 10.2601 1.9685 10.9233 1.81587C11.2114 1.74956 11.5285 1.74977 11.9239 1.75003ZM12 3.25007C11.4903 3.25007 11.3591 3.25477 11.2597 3.27765C10.9776 3.34259 10.7702 3.50893 10.6671 3.69849C10.6356 3.75626 10.6092 3.84127 10.5029 4.30072L10.4196 4.66084C10.3307 5.04509 10.2786 5.27488 10.2581 5.4448C10.2486 5.52332 10.2496 5.56396 10.2509 5.58035C10.2695 5.61517 10.3034 5.65474 10.3584 5.68814L10.3597 5.68886C10.3607 5.68936 10.3626 5.69025 10.3655 5.69146C10.3714 5.69386 10.3823 5.69781 10.4 5.70246C10.4374 5.71226 10.4972 5.72312 10.5936 5.73157C10.7969 5.74939 11.0711 5.75007 11.5019 5.75007H12.4981C12.929 5.75007 13.2031 5.74939 13.4065 5.73157C13.5029 5.72312 13.5626 5.71226 13.6 5.70246C13.6178 5.69781 13.6287 5.69386 13.6345 5.69146C13.6375 5.69025 13.6393 5.68936 13.6403 5.68886L13.6414 5.68831C13.6964 5.65491 13.7305 5.61517 13.7492 5.58035C13.7505 5.56396 13.7515 5.52332 13.742 5.4448C13.7214 5.27488 13.6693 5.04509 13.5805 4.66084L13.4972 4.30072C13.3909 3.84127 13.3644 3.75626 13.333 3.69849C13.2299 3.50893 13.0225 3.34259 12.7404 3.27765C12.6409 3.25477 12.5097 3.25007 12 3.25007ZM13.7481 5.58927C13.748 5.58924 13.7481 5.5885 13.7484 5.58715L13.7481 5.58927ZM10.252 5.58927C10.252 5.5893 10.2518 5.58863 10.2516 5.58715L10.252 5.58927Z" fill="#141B34"/>
</svg>
