<svg width="24" height="24" viewBox="0 0 24 24" fill="none" xmlns="http://www.w3.org/2000/svg">
<path fill-rule="evenodd" clip-rule="evenodd" d="M16.5429 16.5429C16.9334 16.1524 17.5666 16.1524 17.9571 16.5429L22.4571 21.0429C22.8476 21.4334 22.8476 22.0666 22.4571 22.4571C22.0666 22.8476 21.4334 22.8476 21.0429 22.4571L16.5429 17.9571C16.1524 17.5666 16.1524 16.9334 16.5429 16.5429Z" fill="#141B34"/>
<path fill-rule="evenodd" clip-rule="evenodd" d="M1.25 11C1.25 5.61522 5.61522 1.25 11 1.25C16.3848 1.25 20.75 5.61522 20.75 11C20.75 16.3848 16.3848 20.75 11 20.75C5.61522 20.75 1.25 16.3848 1.25 11ZM11 3.2C6.69218 3.2 3.2 6.69218 3.2 11C3.2 15.3078 6.69218 18.8 11 18.8C15.3078 18.8 18.8 15.3078 18.8 11C18.8 6.69218 15.3078 3.2 11 3.2Z" fill="#141B34"/>
<path d="M13.7425 8.84714C13.382 9.26547 13.4288 9.8969 13.8471 10.2575L14.7086 11L13.8471 11.7426C13.4288 12.1031 13.382 12.7346 13.7425 13.1529C14.1031 13.5712 14.7345 13.6181 15.1529 13.2575L16.0728 12.4646L16.1047 12.4371C16.2692 12.2955 16.4609 12.1305 16.6038 11.9691C16.7692 11.7821 17 11.4589 17 11C17 10.5411 16.7692 10.2179 16.6038 10.031C16.4609 9.86957 16.2692 9.70453 16.1047 9.56294L16.0728 9.53545L15.1529 8.74255C14.7345 8.38198 14.1031 8.4288 13.7425 8.84714Z" fill="#141B34"/>
<path d="M8.25746 8.84714C8.61804 9.26547 8.57121 9.8969 8.15288 10.2575L7.2914 11L8.15288 11.7426C8.57121 12.1031 8.61804 12.7346 8.25746 13.1529C7.89689 13.5712 7.26546 13.6181 6.84712 13.2575L5.92722 12.4646L5.8953 12.4371C5.73083 12.2955 5.53913 12.1305 5.39624 11.9691C5.2308 11.7821 5 11.4589 5 11C5 10.5411 5.2308 10.2179 5.39624 10.031C5.53913 9.86957 5.73083 9.70453 5.8953 9.56294L5.92722 9.53545L6.84712 8.74255C7.26546 8.38198 7.89689 8.4288 8.25746 8.84714Z" fill="#141B34"/>
<path fill-rule="evenodd" clip-rule="evenodd" d="M12.3717 7.57179C12.8844 7.7769 13.1339 8.35887 12.9287 8.87166L10.9287 13.8717C10.7236 14.3844 10.1417 14.6339 9.62888 14.4287C9.11609 14.2236 8.86668 13.6417 9.07179 13.1289L11.0718 8.12888C11.2769 7.61609 11.8589 7.36668 12.3717 7.57179Z" fill="#141B34"/>
</svg>
