<svg width="24" height="24" viewBox="0 0 24 24" fill="none" xmlns="http://www.w3.org/2000/svg">
<path d="M7.61098 16.0005C7.61098 15.5863 7.27565 15.2505 6.862 15.2505C6.44835 15.2505 6.11302 15.5863 6.11302 16.0005V20.0615C6.11302 20.5814 5.95562 20.8709 5.80429 21.024C5.64927 21.1807 5.43848 21.2587 5.2096 21.2498C4.76839 21.2326 4.24796 20.8825 4.24796 20.0615C4.24796 19.6472 3.91263 19.3115 3.49898 19.3115C3.08533 19.3115 2.75 19.6472 2.75 20.0615C2.75 21.6932 3.91108 22.7004 5.15138 22.7487C5.76326 22.7725 6.39323 22.5603 6.86877 22.0793C7.348 21.5946 7.61098 20.8989 7.61098 20.0615V16.0005Z" fill="#141B34"/>
<path fill-rule="evenodd" clip-rule="evenodd" d="M11.3974 15.2505H12.1661C13.4027 15.2505 14.3564 16.2854 14.3564 17.5005C14.3564 18.7156 13.4027 19.7505 12.1661 19.7505H10.9933V22.0005C10.9933 22.4147 10.658 22.7505 10.2444 22.7505C9.8307 22.7505 9.49537 22.4147 9.49537 22.0005L9.49537 17.1639C9.4953 16.9131 9.49524 16.6583 9.52267 16.4459C9.55386 16.2045 9.63192 15.9076 9.87349 15.6562C10.119 15.4008 10.4157 15.314 10.6611 15.2797C10.871 15.2503 11.1587 15.2504 11.3974 15.2505ZM12.1659 18.2505H10.9932L10.9988 16.7549L12.1659 16.7505C12.5213 16.7505 12.8582 17.0587 12.8582 17.5005C12.8582 17.9422 12.5213 18.2505 12.1659 18.2505Z" fill="#141B34"/>
<path d="M17.3122 17.0023C17.2841 17.2134 17.2825 17.5078 17.2825 18.0003V20.0003C17.2825 20.4928 17.2841 20.7872 17.3122 20.9983C17.3284 21.0669 17.3944 21.2075 17.5294 21.2205C17.7376 21.2487 18.0284 21.2503 18.5173 21.2503C19.0061 21.2503 19.2969 21.2487 19.5051 21.2205C19.6625 21.2061 19.7155 21.0664 19.7223 20.9983C19.7455 20.8241 19.7506 20.5932 19.7517 20.2412C19.6249 20.2128 19.2742 20.2308 19.1146 20.2434C18.7049 20.2993 18.3271 20.0122 18.2711 19.6019C18.2151 19.1915 18.5019 18.8133 18.9117 18.7572C19.229 18.7138 19.5922 18.7163 19.8312 18.7401C20.0553 18.7624 20.3651 18.8167 20.6403 18.9742C20.9528 19.1532 21.2499 19.4924 21.2499 20.0003C21.25 20.4333 21.25 20.8744 21.207 21.1969C21.1598 21.5514 21.0486 21.9267 20.7419 22.2359C20.4345 22.5459 20.0601 22.6589 19.7061 22.7069C19.3852 22.7504 18.991 22.7504 18.5621 22.7503H18.4724C18.0435 22.7504 17.6493 22.7504 17.3284 22.7069C16.9744 22.6589 16.6 22.5459 16.2926 22.2359C15.9859 21.9267 15.8747 21.5514 15.8275 21.1969C15.7845 20.8744 15.7845 20.4779 15.7845 20.0449V17.9558C15.7845 17.5228 15.7845 17.1262 15.8275 16.8038C15.8747 16.4492 15.9859 16.0739 16.2926 15.7647C16.6 15.4548 16.9744 15.3417 17.3284 15.2937C17.6493 15.2502 18.6567 15.2496 18.6567 15.2496C18.6567 15.2496 19.5648 15.2426 20.0128 15.3848C20.2933 15.4738 20.5895 15.6314 20.8241 15.9126C21.0601 16.1956 21.1838 16.5439 21.2212 16.9274C21.2615 17.3396 20.9603 17.7065 20.5486 17.7468C20.1369 17.787 19.7706 17.4855 19.7304 17.0732C19.7009 16.9369 19.6046 16.844 19.5602 16.8147C19.4665 16.7849 19.3329 16.7645 19.1433 16.7555C18.5298 16.7358 17.8117 16.7637 17.5294 16.7801C17.4631 16.7864 17.3268 16.8395 17.3122 17.0023Z" fill="#141B34"/>
<path d="M3.72368 13.7495C4.26144 13.7495 4.69737 13.319 4.69737 12.788L4.69738 11.7647C4.69737 11.4977 4.69754 10.8591 4.97816 10.387C5.15109 10.096 5.37251 9.85288 5.59996 9.72906C5.96647 9.52954 6.38666 9.41618 6.83333 9.41618C6.98046 9.41618 7.13864 9.42265 7.31624 9.43089L7.38206 9.43397C7.53697 9.44125 7.70556 9.44917 7.8737 9.45267C8.25379 9.46056 8.69733 9.44855 9.12548 9.33383C9.95945 9.11037 10.6109 8.45896 10.8343 7.62499C10.949 7.19684 10.961 6.7533 10.9532 6.37321C10.9497 6.20514 10.9417 6.03644 10.9345 5.88157L10.9314 5.81575C10.9231 5.63815 10.9167 5.47997 10.9167 5.33284C10.9167 4.86515 11.0409 4.42649 11.2583 4.04808C11.385 3.82749 11.6057 3.6256 11.9105 3.44829C12.3726 3.17938 12.926 3.17689 13.2642 3.17537C13.6023 3.17384 13.9591 3.17267 14.2572 3.17267C16.0914 3.17267 16.7582 3.18643 17.2614 3.3611C18.1337 3.66392 18.7997 4.2961 19.11 5.07055C19.1878 5.26462 19.2427 5.51953 19.2721 5.96104C19.3021 6.41111 19.3026 6.98558 19.3026 7.81345V12.788C19.3026 13.319 19.7386 13.7495 20.2763 13.7495C20.8141 13.7495 21.25 13.319 21.25 12.788V7.78072C21.25 6.99325 21.25 6.35537 21.2153 5.83465C21.1795 5.29818 21.1039 4.81994 20.9208 4.36292C20.3922 3.04394 19.2841 2.02485 17.9072 1.54686C17.0482 1.24866 16.0155 1.24902 14.4607 1.24956L13.5134 1.24963L13.5 1.24951L13.4649 1.24966C10.9565 1.25136 9.40174 1.2812 8.1118 1.729C5.8915 2.49978 4.11806 4.1381 3.27491 6.24212C2.99393 6.9433 2.86942 7.69646 2.80918 8.59968C2.74999 9.48707 2.75 10.5834 2.75 11.9809V12.788C2.75 13.319 3.18593 13.7495 3.72368 13.7495Z" fill="#141B34"/>
</svg>
