<svg width="24" height="24" viewBox="0 0 24 24" fill="none" xmlns="http://www.w3.org/2000/svg">
<path fill-rule="evenodd" clip-rule="evenodd" d="M9.28868 1.27883C9.63536 1.18 10.0033 1.3418 10.1648 1.66409C10.3317 1.99718 10.5783 2.25662 10.8714 2.43828C11.0733 2.56336 11.1742 2.62591 11.2121 2.69396C11.25 2.76201 11.25 2.85539 11.25 3.04215V9C11.25 9.41421 11.5858 9.75 12 9.75C12.4142 9.75 12.75 9.41421 12.75 9V3.04198C12.75 2.85525 12.75 2.76188 12.7879 2.69383C12.8258 2.62579 12.9267 2.56325 13.1285 2.43816C13.4216 2.25652 13.668 1.9971 13.8349 1.66409C13.9964 1.3418 14.3644 1.18 14.711 1.27883L16.9005 1.90295C17.5254 2.08048 18.03 2.22381 18.4824 2.60432C18.934 2.98416 19.1313 3.39329 19.3735 3.89568L19.4025 3.95575C20.347 5.91115 21.4751 9.22091 21.721 13.3561L21.7236 13.3996C21.7432 13.7273 21.7625 14.0499 21.7387 14.3202C21.7113 14.6334 21.6203 14.9728 21.3455 15.2638C21.0662 15.5594 20.7235 15.6668 20.4115 15.7112C20.1372 15.7502 19.8042 15.7502 19.4598 15.7501L18.3174 15.7501C18.3371 16.835 18.3325 18.0403 18.3198 19.0983L18.3192 19.1477C18.3117 19.7869 18.3051 20.3416 18.2385 20.7877C18.1665 21.2697 18.0118 21.7274 17.6328 22.1011C17.2528 22.4759 16.7893 22.6236 16.304 22.6892C15.853 22.7502 15.2918 22.7501 14.6426 22.7501H9.35707C8.70794 22.7501 8.14672 22.7502 7.69568 22.6892C7.21043 22.6236 6.74695 22.4759 6.36687 22.1011C5.98789 21.7274 5.83322 21.2697 5.76126 20.7877C5.69465 20.3416 5.68806 19.7869 5.68047 19.1477L5.67988 19.0983C5.66725 18.0403 5.66263 16.835 5.68232 15.7501L4.53993 15.7501C4.19554 15.7502 3.86248 15.7502 3.58817 15.7112C3.27619 15.6668 2.93348 15.5594 2.65426 15.2638C2.37946 14.9728 2.28846 14.6334 2.26098 14.3202C2.23725 14.0499 2.25652 13.7273 2.27609 13.3996L2.27868 13.3561C2.52462 9.22091 3.65276 5.91115 4.59721 3.95575L4.62619 3.89568C4.86843 3.39329 5.0657 2.98416 5.51733 2.60432C5.96975 2.22381 6.47428 2.08048 7.09919 1.90295L9.28868 1.27883ZM5.77834 13.1743C5.7657 13.4053 5.75416 13.6362 5.74365 13.8664C5.73535 14.0483 5.7312 14.1392 5.67322 14.1946C5.61524 14.25 5.52452 14.25 5.34308 14.25H4.15347C3.97251 14.25 3.88203 14.25 3.82344 14.1913C3.76485 14.1327 3.76495 14.0457 3.76516 13.8716C3.76546 13.6195 3.77822 13.3675 3.79636 13.1158C3.80878 12.9434 3.81499 12.8572 3.87258 12.8036C3.93016 12.75 4.01767 12.75 4.1927 12.75H5.37781C5.57686 12.75 5.67639 12.75 5.73556 12.8125C5.79473 12.875 5.78927 12.9748 5.77834 13.1743ZM18.62 12.75H19.8051C19.9799 12.75 20.0672 12.75 20.1248 12.8036C20.1824 12.8572 20.1886 12.9434 20.2011 13.1158C20.2089 13.2249 20.2162 13.3347 20.2227 13.4451C20.2337 13.6287 20.2411 13.7791 20.2445 13.902C20.2484 14.044 20.2504 14.115 20.1941 14.175C20.1377 14.2351 20.0664 14.2377 19.9239 14.2429C19.7872 14.2478 19.619 14.25 19.4154 14.25H18.6547C18.4733 14.25 18.3826 14.25 18.3246 14.1946C18.2666 14.1392 18.2625 14.0483 18.2542 13.8664C18.2436 13.6362 18.2321 13.4053 18.2195 13.1743C18.2085 12.9748 18.2031 12.875 18.2622 12.8125C18.3214 12.75 18.4209 12.75 18.62 12.75Z" fill="#141B34"/>
</svg>
