<svg width="24" height="24" viewBox="0 0 24 24" fill="none" xmlns="http://www.w3.org/2000/svg">
<path fill-rule="evenodd" clip-rule="evenodd" d="M1.5 11.9255V12.0745C1.49998 14.2504 1.49996 15.9852 1.68282 17.3453C1.87164 18.7497 2.27175 19.9035 3.18414 20.8159C4.09653 21.7283 5.25033 22.1284 6.65471 22.3172C7.58626 22.4424 8.69353 22.4819 9.99792 22.4943C10.4685 22.4988 10.7037 22.501 10.8519 22.3543C11 22.2076 11 21.9709 11 21.4975V11C11 10.5286 11 10.2929 10.8536 10.1464C10.7071 10 10.4714 10 10 10H2.49623C2.02855 10 1.79471 10 1.64832 10.1461C1.50193 10.2922 1.50148 10.525 1.50058 10.9905C1.49999 11.2927 1.5 11.6043 1.5 11.9255ZM22.4994 10.9905C22.4985 10.525 22.4981 10.2922 22.3517 10.1461C22.2053 10 21.9715 10 21.5038 10H14C13.5286 10 13.2929 10 13.1464 10.1464C13 10.2929 13 10.5286 13 11V21.4975C13 21.9709 13 22.2076 13.1481 22.3543C13.2963 22.501 13.5315 22.4988 14.0021 22.4943C15.3065 22.4819 16.4137 22.4424 17.3453 22.3172C18.7497 22.1284 19.9035 21.7283 20.8159 20.8159C21.7283 19.9035 22.1284 18.7497 22.3172 17.3453C22.5 15.9851 22.5 14.2504 22.5 12.0744V11.9256C22.5 11.6043 22.5 11.2927 22.4994 10.9905Z" fill="#141B34"/>
<path fill-rule="evenodd" clip-rule="evenodd" d="M1.64615 6.94642C1.59242 7.42656 1.56556 7.66663 1.71463 7.83332C1.8637 8 2.11513 8 2.61797 8H21.3804C21.8832 8 22.1346 8 22.2837 7.83332C22.4328 7.66663 22.4059 7.42656 22.3522 6.94642C22.3411 6.84733 22.3292 6.7501 22.3163 6.65471C22.1275 5.25033 21.7274 4.09653 20.815 3.18414C19.9026 2.27175 18.7488 1.87164 17.3444 1.68282C15.9843 1.49996 14.2496 1.49998 12.0736 1.5L11.9247 1.5C9.74875 1.49998 8.01401 1.49996 6.65387 1.68282C5.24949 1.87164 4.09569 2.27175 3.1833 3.18414C2.27091 4.09653 1.8708 5.25033 1.68198 6.65471C1.66916 6.7501 1.65724 6.84733 1.64615 6.94642Z" fill="#141B34"/>
</svg>
