<svg width="24" height="25" viewBox="0 0 24 25" fill="none" xmlns="http://www.w3.org/2000/svg">
<path fill-rule="evenodd" clip-rule="evenodd" d="M12.0242 3.70455C7.15095 3.70455 3.20455 7.64468 3.20455 12.5C3.20455 17.3553 7.15095 21.2955 12.0242 21.2955C15.6407 21.2955 18.7495 19.1249 20.1107 16.017C20.3273 15.5226 20.9036 15.2974 21.398 15.5139C21.8924 15.7305 22.1176 16.3068 21.9011 16.8012C20.2388 20.5964 16.4424 23.25 12.0242 23.25C6.07605 23.25 1.25 18.4393 1.25 12.5C1.25 6.56066 6.07605 1.75 12.0242 1.75C16.7393 1.75 20.7464 4.77188 22.2073 8.98024C22.4777 9.75909 22.6608 10.5783 22.7452 11.4259C22.7759 11.7348 22.6581 12.0399 22.4278 12.248C22.1975 12.456 21.882 12.5423 21.5778 12.4804L19.177 11.9917C18.8159 11.9183 18.5269 11.648 18.4294 11.2927C18.3319 10.9374 18.4426 10.5575 18.7155 10.31L19.8123 9.31587C19.9676 9.17506 20.0453 9.10466 20.0641 9.00614C20.083 8.90761 20.0388 8.81772 19.9506 8.63793C18.5165 5.71632 15.5056 3.70455 12.0242 3.70455Z" fill="#141B34"/>
<path fill-rule="evenodd" clip-rule="evenodd" d="M9.5 10.7492V9.6875C9.5 8.31583 10.6452 7.25 12 7.25C13.3548 7.25 14.5 8.31583 14.5 9.6875V10.7492C14.5751 10.772 14.6498 10.7993 14.7239 10.8322C15.3441 11.1074 15.8211 11.6277 16.0663 12.262C16.1722 12.536 16.2129 12.8173 16.2318 13.1139C16.25 13.3994 16.25 13.7472 16.25 14.1639V14.2111C16.25 14.6278 16.25 14.9756 16.2318 15.2611C16.2129 15.5577 16.1722 15.8391 16.0663 16.113C15.8211 16.7474 15.3441 17.2676 14.7239 17.5428C14.4516 17.6637 14.1728 17.7093 13.8872 17.7302C13.6156 17.75 13.2866 17.75 12.9011 17.75H11.0989C10.7135 17.75 10.3844 17.75 10.1128 17.7302C9.82724 17.7093 9.5484 17.6637 9.27607 17.5428C8.6559 17.2676 8.17892 16.7474 7.93367 16.113C7.82777 15.8391 7.78706 15.5577 7.76817 15.2611C7.74999 14.9756 7.74999 14.6279 7.75 14.2111V14.1639C7.74999 13.7472 7.74999 13.3994 7.76817 13.1139C7.78706 12.8173 7.82777 12.536 7.93367 12.262C8.17892 11.6277 8.6559 11.1074 9.27607 10.8322C9.35023 10.7993 9.42487 10.772 9.5 10.7492ZM11 9.6875C11 9.19521 11.4218 8.75 12 8.75C12.5782 8.75 13 9.19521 13 9.6875V10.625C12.9675 10.625 12.9345 10.625 12.9011 10.625H11.0989C11.0655 10.625 11.0325 10.625 11 10.625V9.6875Z" fill="#141B34"/>
</svg>
