<svg width="24" height="24" viewBox="0 0 24 24" fill="none" xmlns="http://www.w3.org/2000/svg">
<path fill-rule="evenodd" clip-rule="evenodd" d="M9.79943 2.35789C10.5468 1.97652 11.2366 1.75 12.0005 1.75C12.7643 1.75 13.4541 1.97652 14.2015 2.35789C14.9244 2.72678 15.7567 3.27092 16.7988 3.95218L20.7224 6.5171C21.4195 6.97169 21.9751 7.33403 22.3036 7.90757C22.3467 7.98277 22.3682 8.02037 22.3766 8.07591C22.3861 8.13845 22.3688 8.22372 22.3357 8.27763C22.3063 8.3255 22.2636 8.35796 22.1783 8.42288L21.5538 8.89785L17.2955 11.9824C16.8246 12.3235 16.3972 12.633 16.0025 12.9134C15.509 13.264 15.1194 13.4628 14.7263 13.5809C14.3296 13.7 13.8862 13.7501 13.2646 13.7501H10.737C10.1155 13.7501 9.67201 13.7 9.27538 13.5809C8.88222 13.4628 8.49267 13.264 7.99916 12.9134C7.6044 12.633 7.17705 12.3235 6.70616 11.9824L2.44439 8.89534L1.83083 8.43972C1.73517 8.36869 1.68735 8.33318 1.65629 8.27945C1.62768 8.22994 1.61151 8.15258 1.61791 8.09576C1.62485 8.03409 1.64901 7.99191 1.69731 7.90757C2.02578 7.33403 2.58143 6.97169 3.27856 6.5171L7.20216 3.95218L7.20217 3.95217C8.24422 3.27091 9.07655 2.72677 9.79943 2.35789ZM18.173 13.1985C17.7042 13.538 17.2716 13.8514 16.8707 14.1362C16.2881 14.5501 15.7513 14.8389 15.1573 15.0174C14.5668 15.1948 13.9622 15.2501 13.2641 15.2501H10.7366C10.0385 15.2501 9.43394 15.1948 8.84338 15.0174C8.24936 14.8389 7.7126 14.5501 7.13001 14.1362C6.72907 13.8514 6.29643 13.538 5.82769 13.1985L2.24399 10.603C1.83276 10.3052 1.62715 10.1563 1.46415 10.2383C1.30114 10.3203 1.29813 10.5741 1.2921 11.0818L1.25 14.6264C1.2819 16.0927 1.3077 17.2782 1.47581 18.2335C1.65261 19.2382 1.99644 20.0562 2.70265 20.7563C3.41116 21.4586 4.24887 21.7981 5.2787 21.9751C6.26317 22.1443 7.49178 22.1746 9.01972 22.2123L9.07746 22.2138C11.0316 22.262 12.9684 22.262 14.9225 22.2138L14.9803 22.2123C16.5082 22.1746 17.7368 22.1443 18.7213 21.9751C19.7511 21.7981 20.5889 21.4586 21.2974 20.7563C22.0036 20.0562 22.3474 19.2382 22.5242 18.2335C22.6923 17.2782 22.7181 16.0927 22.75 14.6264L22.7079 11.0819C22.7019 10.5742 22.6989 10.3203 22.5358 10.2383C22.3728 10.1563 22.1672 10.3053 21.756 10.6032L18.173 13.1985Z" fill="#141B34"/>
</svg>
