<svg width="24" height="24" viewBox="0 0 24 24" fill="none" xmlns="http://www.w3.org/2000/svg">
<path fill-rule="evenodd" clip-rule="evenodd" d="M8.0097 4.27637H8.02344C10.7819 4.27637 12.8008 6.70888 13.1798 9.10152C13.2507 9.5492 13.2507 10.0682 13.2506 10.9202L13.251 22.0001C13.2509 22.5523 12.8032 23 12.2509 23C11.6986 23 11.2509 22.5522 11.251 21.9999L11.2512 18.75H7.34152C6.49444 18.7501 5.81123 18.7501 5.25875 18.7031C4.68969 18.6547 4.1908 18.5523 3.73226 18.3073C3.07816 17.9576 2.54242 17.4219 2.1928 16.7678C1.94771 16.3093 1.84538 15.8104 1.79698 15.2413C1.74999 14.6888 1.74999 14.0056 1.75 13.1585V13.1585V13.1585V13.09V13.09V13.09C1.75 11.6605 1.74999 10.5398 1.8265 9.64034C1.90442 8.72422 2.06578 7.96896 2.42895 7.28952C2.96505 6.28656 3.78651 5.46509 4.78947 4.929C5.66249 4.46236 6.67063 4.32543 7.99598 4.27687L8.0097 4.27637ZM6.5 8C5.94772 8 5.5 8.44772 5.5 9C5.5 9.55228 5.94772 10 6.5 10H8.5C9.05229 10 9.5 9.55228 9.5 9C9.5 8.44772 9.05229 8 8.5 8H6.5Z" fill="#141B34"/>
<path fill-rule="evenodd" clip-rule="evenodd" d="M18.5 4C18.5 3.44772 18.9477 3 19.5 3C20.0523 3 20.5 2.55228 20.5 2C20.5 1.44772 20.0523 1 19.5 1C17.8431 1 16.5 2.34315 16.5 4V4.30055C15.6656 4.24999 14.6547 4.25 13.4096 4.25H13.4096H11.6289C13.1562 5.40277 14.1442 7.20256 14.414 8.90598C14.5005 9.45238 14.5004 10.0608 14.5002 10.83V10.83L14.5004 18.75H16.6581H16.6581C17.5052 18.75 18.1884 18.75 18.7408 18.703C19.3099 18.6546 19.8088 18.5523 20.2673 18.3072C20.9214 17.9576 21.4572 17.4218 21.8068 16.7677C22.0519 16.3092 22.1542 15.8103 22.2026 15.2413C22.2496 14.6888 22.2496 14.0056 22.2496 13.1586V13.09C22.2496 11.6605 22.2496 10.5398 22.1731 9.64029C22.0952 8.72417 21.9338 7.96891 21.5706 7.28947C21.0345 6.28651 20.2131 5.46505 19.2101 4.92895C18.9829 4.80753 18.7473 4.70866 18.5 4.62794V4Z" fill="#141B34"/>
</svg>
