<svg width="24" height="24" viewBox="0 0 24 24" fill="none" xmlns="http://www.w3.org/2000/svg">
<path fill-rule="evenodd" clip-rule="evenodd" d="M7.25 3.03989C7.25 2.71236 7.25 2.54859 7.13415 2.45851C7.1208 2.44813 7.10282 2.43662 7.08779 2.42886C6.95744 2.36145 6.81999 2.42494 6.54509 2.5519C6.08426 2.76473 5.55432 3.07216 4.90724 3.44754L4.90724 3.44755L3.6187 4.19503L3.61869 4.19503C3.15062 4.46654 2.75247 4.69749 2.44084 4.92252C2.10848 5.16251 1.82705 5.42802 1.61998 5.7915C1.4134 6.15411 1.32728 6.53275 1.28746 6.94305C1.24997 7.32942 1.24999 7.79575 1.25 8.34689V8.34694V8.34697V16.586V16.586V16.5861C1.24999 17.3151 1.24998 17.918 1.29639 18.3894C1.34327 18.8655 1.44676 19.3438 1.75833 19.7304C2.09802 20.1518 2.57688 20.4384 3.11024 20.5335C3.60335 20.6215 4.0707 20.4736 4.5015 20.2791C4.92742 20.0868 5.49919 19.7551 6.11822 19.396C6.40134 19.2318 6.6546 19.0848 6.89091 18.9627C7.07195 18.8692 7.16247 18.8224 7.20624 18.7506C7.25 18.6787 7.25 18.5841 7.25 18.3949L7.25 3.03989ZM8.75 18.2663C8.75 18.4689 8.75 18.5702 8.7977 18.6443C8.84539 18.7185 8.94451 18.7636 9.14275 18.854C9.36402 18.9548 9.6448 19.0928 10.0237 19.2812L13.8376 21.1775C14.0293 21.273 14.25 21.1335 14.25 20.9194V5.16231C14.25 4.98146 14.25 4.89104 14.205 4.81844C14.16 4.74584 14.0791 4.70558 13.9171 4.62506L11.1426 3.24547L11.1425 3.24545C10.4736 2.9128 9.92553 2.6403 9.45232 2.45772C9.16028 2.34504 9.01425 2.2887 8.88544 2.37321C8.88226 2.3753 8.87831 2.37801 8.87522 2.38022C8.75 2.46998 8.75 2.63897 8.75 2.97696L8.75 18.2663ZM15.9214 5.25109C15.8268 5.25109 15.75 5.32763 15.75 5.42216L15.75 21.5584C15.75 21.6189 15.799 21.668 15.8595 21.6679L18.0529 21.6679C18.9506 21.668 19.7008 21.668 20.2966 21.5861C20.9275 21.4994 21.4955 21.3085 21.9503 20.8437C22.4028 20.3812 22.5866 19.8073 22.6704 19.1704C22.7501 18.5647 22.75 17.8008 22.75 16.8809V10.0381C22.75 9.1182 22.7501 8.35433 22.6704 7.74859C22.5866 7.11172 22.4028 6.53783 21.9503 6.0753C21.4955 5.61049 20.9275 5.4196 20.2966 5.33291C19.7008 5.25103 18.9506 5.25106 18.0529 5.25109L15.9214 5.25109Z" fill="#141B34"/>
</svg>
