<svg width="24" height="24" viewBox="0 0 24 24" fill="none" xmlns="http://www.w3.org/2000/svg">
<path d="M6.30921 11.2902C6.2967 11.2853 6.28374 11.296 6.28612 11.3092C6.31327 11.4601 6.35567 11.61 6.4139 11.7566L6.42018 11.7719L8.52707 16.754C8.85134 17.5208 8.87324 18.649 8.63946 19.5271C8.53314 19.9264 8.76992 20.3365 9.16894 20.4441L17.6228 22.724C17.8153 22.7759 18.0205 22.749 18.1931 22.6493C18.3657 22.5497 18.4916 22.3854 18.5429 22.1928L18.8205 21.1498C18.8951 20.8695 19.0853 20.611 19.3608 20.4256C19.8229 20.1144 20.536 19.5962 20.9152 19.0698C21.2283 18.6352 21.4471 18.1382 21.6504 17.5313C21.8501 16.9352 22.0495 16.1863 22.303 15.234L22.6611 13.8907C22.9311 12.8764 22.5803 11.8168 21.7436 11.1646C21.5174 10.9883 21.4044 10.9002 21.2533 10.9487C21.1023 10.9971 21.0556 11.155 20.9623 11.4706L20.4929 13.0573C20.4312 13.2818 20.1933 13.4154 19.9616 13.3556C19.7298 13.2958 19.592 13.0654 19.6537 12.8408L20.2138 10.8282C20.2395 10.7361 20.2523 10.69 20.2487 10.6383C20.245 10.5866 20.2286 10.5492 20.1959 10.4745C19.9544 9.92325 19.4863 9.41698 18.9206 9.11337C18.7049 8.99764 18.5971 8.93977 18.4656 8.99443C18.334 9.04909 18.2935 9.18481 18.2124 9.45624L17.6778 11.2449C17.6161 11.4694 17.3782 11.603 17.1465 11.5432C16.9148 11.4834 16.7769 11.253 16.8386 11.0284L17.5065 8.74563C17.5433 8.61994 17.5616 8.5571 17.5499 8.48868C17.5381 8.42026 17.505 8.37427 17.4386 8.28229C17.1024 7.81625 16.6106 7.45838 16.0127 7.29713C15.7755 7.23383 15.6569 7.20217 15.5505 7.26205C15.549 7.26291 15.5472 7.26392 15.5457 7.2648C15.4404 7.32663 15.4048 7.45671 15.3337 7.71687L15.3026 7.83079L14.8625 9.43244C14.8008 9.65696 14.5629 9.79051 14.3312 9.73074C14.0994 9.67096 13.9616 9.44049 14.0233 9.21597L15.8911 2.82251C16.0693 2.21248 15.7122 1.57495 15.0989 1.40821C14.5017 1.24582 13.8844 1.59163 13.7109 2.18578L10.8151 12.1036C10.7698 12.2685 10.6262 12.3905 10.4516 12.4125C10.277 12.4346 10.1059 12.3522 10.0186 12.2041L8.79777 10.1348C8.39079 9.44492 7.46355 9.25694 6.80882 9.72811C6.52384 9.93319 6.33909 10.2309 6.27486 10.5538C6.26056 10.6498 6.25222 10.7469 6.25 10.8444C6.2537 10.9863 6.2805 11.1291 6.33199 11.2676C6.33725 11.2818 6.32325 11.2957 6.30921 11.2902Z" fill="#141B34"/>
<path d="M8.70303 1.28557L8.6626 1.28877L7.31513 1.39523C7.02343 1.41828 6.77176 1.60887 6.67052 1.88342C6.56928 2.15796 6.63696 2.46632 6.84387 2.67323L7.55442 3.38377L6.3577 4.58049C6.06481 4.87339 6.06481 5.34826 6.3577 5.64115C6.65059 5.93405 7.12547 5.93405 7.41836 5.64115L8.61508 4.44443L9.32589 5.15524C9.5328 5.36215 9.84115 5.42983 10.1157 5.3286C10.3902 5.22736 10.5808 4.97569 10.6039 4.68399L10.7104 3.33652L10.7134 3.29776C10.7358 3.01482 10.7583 2.73161 10.7451 2.49789C10.7305 2.2392 10.6672 1.89353 10.3863 1.61257C10.1052 1.33151 9.75949 1.26837 9.50084 1.25387C9.26774 1.24081 8.98524 1.2632 8.70303 1.28557Z" fill="#141B34"/>
<path d="M5.6406 6.35846C5.34771 6.06555 4.87284 6.06554 4.57994 6.35843L3.38318 7.55512L2.67258 6.84452C2.46567 6.63761 2.15732 6.56993 1.88277 6.67117C1.60823 6.7724 1.41763 7.02407 1.39458 7.31578L1.28812 8.66325L1.28481 8.70507V8.70508C1.26248 8.98671 1.24013 9.26869 1.25308 9.50133C1.26747 9.75979 1.33037 10.1059 1.61166 10.3872C1.89285 10.6684 2.23889 10.7314 2.4974 10.7459C2.73068 10.759 3.01338 10.7366 3.29576 10.7142L3.33587 10.711L4.68334 10.6045C4.97505 10.5815 5.22671 10.3909 5.32795 10.1163C5.42919 9.8418 5.36151 9.53345 5.1546 9.32653L4.44384 8.61578L5.64057 7.41912C5.93347 7.12623 5.93348 6.65136 5.6406 6.35846Z" fill="#141B34"/>
</svg>
