<svg width="24" height="24" viewBox="0 0 24 24" fill="none" xmlns="http://www.w3.org/2000/svg">
<path fill-rule="evenodd" clip-rule="evenodd" d="M21.875 5.50586C22.4273 5.50586 22.875 5.05814 22.875 4.50586C22.875 3.95357 22.4273 3.50586 21.875 3.50586L17.375 3.50586L17.375 2.9116C17.3751 2.73596 17.3753 2.52031 17.3532 2.34387L17.3528 2.34053C17.337 2.21408 17.2652 1.63804 16.6996 1.36368C16.1327 1.08872 15.6326 1.39065 15.5244 1.45597L15.5204 1.45841C15.3674 1.55062 15.1965 1.68477 15.0559 1.79511L15.0257 1.81885C14.6498 2.11348 14.1656 2.49545 13.7746 2.87588C13.5795 3.06571 13.3783 3.28297 13.2194 3.51388C13.0782 3.71914 12.875 4.06934 12.875 4.5C12.875 4.93067 13.0782 5.28086 13.2194 5.48612C13.3783 5.71703 13.5795 5.93429 13.7746 6.12412C14.1656 6.50455 14.6498 6.88652 15.0257 7.18115L15.0559 7.20488C15.1965 7.31523 15.3673 7.44938 15.5204 7.54159L15.5244 7.54403C15.6326 7.60935 16.1328 7.91128 16.6996 7.63632C17.2652 7.36196 17.337 6.78592 17.3528 6.65947L17.3532 6.65613C17.3753 6.47969 17.3751 6.26403 17.375 6.0884L17.375 5.50586L21.875 5.50586Z" fill="#141B34"/>
<path fill-rule="evenodd" clip-rule="evenodd" d="M12.7121 7.18306C12.4872 6.96308 12.2159 6.67387 11.9836 6.33621C11.789 6.05332 11.375 5.39174 11.375 4.49994C11.375 4.07933 11.5378 3.61851 11.7303 3.21929C11.9534 2.75654 12.0649 2.52517 11.9742 2.38395C11.8835 2.24272 11.6482 2.2475 11.1776 2.25704C10.6657 2.26742 10.1563 2.28927 9.65465 2.32262C5.088 2.62618 1.46472 6.31247 1.1668 10.9222C1.11107 11.7847 1.11107 12.6767 1.1668 13.5391C1.27772 15.2555 2.02648 16.8039 2.85881 18.0603C3.10814 18.5418 2.97823 19.264 2.5119 20.1477L2.49042 20.1884C2.33374 20.4851 2.18036 20.7756 2.09188 21.0233C1.99813 21.2857 1.90123 21.7024 2.14291 22.1144C2.36496 22.493 2.71975 22.6317 3.00652 22.6872C3.24461 22.7332 3.53655 22.7402 3.81044 22.7468L3.85617 22.7479C5.27592 22.7824 6.27636 22.3725 7.0688 21.7881L7.16407 21.718C7.28359 21.6301 7.34335 21.5861 7.42104 21.5765C7.49873 21.5668 7.56703 21.5947 7.70361 21.6503C7.77126 21.6779 7.84733 21.7092 7.93339 21.7447C8.47478 21.9676 9.08972 22.1012 9.65465 22.1388C11.1119 22.2356 12.6351 22.2358 14.0954 22.1388C18.662 21.8352 22.2853 18.1489 22.5832 13.5391C22.6389 12.6767 22.6389 11.7847 22.5832 10.9222C22.4997 9.63009 22.1549 8.41049 21.6013 7.31761C21.526 7.16892 21.4883 7.09458 21.4161 7.05019C21.3438 7.0058 21.2568 7.0058 21.0827 7.0058L19.3222 7.0058C19.0939 7.0058 18.9797 7.0058 18.9021 7.06025C18.8246 7.11471 18.7791 7.2405 18.6882 7.49203C18.5149 7.97178 18.1455 8.60201 17.3542 8.98586C16.0474 9.6198 14.9227 8.93389 14.7589 8.83399L14.7493 8.82818L14.7453 8.82574C14.5243 8.69251 12.9289 7.36592 12.7457 7.21342C12.7372 7.20634 12.733 7.2028 12.7285 7.19877C12.724 7.19475 12.7201 7.19085 12.7121 7.18306ZM7.87502 11.5C7.32273 11.5 6.87502 11.9477 6.87502 12.5C6.87502 13.0523 7.32273 13.5 7.87502 13.5H7.88399C8.43628 13.5 8.88399 13.0523 8.88399 12.5C8.88399 11.9477 8.43628 11.5 7.88399 11.5H7.87502ZM11.8705 11.5C11.3182 11.5 10.8705 11.9477 10.8705 12.5C10.8705 13.0523 11.3182 13.5 11.8705 13.5H11.8795C12.4318 13.5 12.8795 13.0523 12.8795 12.5C12.8795 11.9477 12.4318 11.5 11.8795 11.5H11.8705ZM15.866 11.5C15.3138 11.5 14.866 11.9477 14.866 12.5C14.866 13.0523 15.3138 13.5 15.866 13.5H15.875C16.4273 13.5 16.875 13.0523 16.875 12.5C16.875 11.9477 16.4273 11.5 15.875 11.5H15.866Z" fill="#141B34"/>
</svg>
