<svg width="24" height="24" viewBox="0 0 24 24" fill="none" xmlns="http://www.w3.org/2000/svg">
<path fill-rule="evenodd" clip-rule="evenodd" d="M14.5654 2.45273C14.481 2.35184 14.2983 2.34312 13.933 2.32568C12.5888 2.26153 10.9877 2.24252 9.77965 2.32282C5.213 2.62638 1.58972 6.31267 1.2918 10.9225C1.23607 11.7849 1.23607 12.6769 1.2918 13.5393C1.40272 15.2557 2.15148 16.8041 2.98381 18.0605C3.23314 18.542 3.10323 19.2642 2.6369 20.1479L2.61542 20.1886C2.45874 20.4853 2.30536 20.7758 2.21688 21.0235C2.12313 21.2859 2.02623 21.7026 2.26791 22.1146C2.48996 22.4932 2.84475 22.6319 3.13152 22.6874C3.36961 22.7334 3.66155 22.7404 3.93544 22.747L3.98117 22.7481C5.40092 22.7826 6.40136 22.3727 7.1938 21.7884L7.28907 21.7182C7.40859 21.6303 7.46835 21.5863 7.54604 21.5767C7.62373 21.567 7.69203 21.5949 7.82861 21.6505C7.89626 21.6781 7.97233 21.7094 8.05839 21.7449C8.59978 21.9678 9.21472 22.1014 9.77965 22.139C11.2369 22.2358 12.7601 22.236 14.2204 22.139C18.787 21.8354 22.4103 18.1491 22.7082 13.5393C22.7106 13.5022 22.7129 13.465 22.7151 13.4277C22.7366 13.0623 22.7474 12.8796 22.6812 12.7915C22.6381 12.7343 22.5947 12.7043 22.5261 12.6841C22.4204 12.653 22.2244 12.74 21.8324 12.9139C21.3373 13.1337 20.8656 13.1993 20.4966 13.2263C20.1695 13.2502 19.7934 13.2501 19.4375 13.2501H17.5625C17.2066 13.2501 16.8305 13.2502 16.5034 13.2263C16.1344 13.1993 15.6627 13.1337 15.1676 12.9139C14.1643 12.4687 13.415 11.6379 13.0346 10.654C12.8502 10.177 12.7946 9.724 12.7712 9.35651C12.75 9.02282 12.75 8.6342 12.75 8.24591V8.12919C12.75 7.7409 12.75 7.35238 12.7712 7.01869C12.7946 6.6512 12.8502 6.19816 13.0346 5.72124C13.2913 5.05722 13.7161 4.46292 14.2735 4.00981C14.3899 3.91526 14.448 3.86798 14.4764 3.81521C14.5049 3.76245 14.5117 3.69375 14.5255 3.55636V3.55635C14.5371 3.43976 14.5527 3.29732 14.572 3.14929C14.6239 2.75219 14.6498 2.55363 14.5654 2.45273ZM8.5 15.75C8.08579 15.75 7.75 15.4142 7.75 15C7.75 14.5858 8.08579 14.25 8.5 14.25H15.5C15.9142 14.25 16.25 14.5858 16.25 15C16.25 15.4142 15.9142 15.75 15.5 15.75H8.5ZM8.5 10.75C8.08579 10.75 7.75 10.4142 7.75 10C7.75 9.58578 8.08579 9.25 8.5 9.25H11C11.4142 9.25 11.75 9.58578 11.75 10C11.75 10.4142 11.4142 10.75 11 10.75H8.5Z" fill="#141B34"/>
<path d="M15.7813 3.95232C15.7813 2.45396 17.0044 1.25 18.5 1.25C19.1725 1.25 19.7904 1.49372 20.2656 1.89733C20.5813 2.16548 20.6198 2.63879 20.3517 2.95449C20.0835 3.27019 19.6102 3.30873 19.2945 3.04058C19.0813 2.85948 18.8049 2.75 18.5 2.75C17.821 2.75 17.2813 3.29421 17.2813 3.95232V4.61162C17.4472 4.60996 17.6244 4.60996 17.8129 4.60997H19.1871C19.6715 4.60996 20.0813 4.60994 20.4167 4.63824C20.7683 4.66789 21.1063 4.73264 21.4262 4.90222C21.8618 5.13313 22.2197 5.48753 22.4536 5.92145C22.6257 6.24083 22.6914 6.57833 22.7214 6.92848C22.75 7.2619 22.75 7.66893 22.75 8.14877V8.2112C22.75 8.69104 22.75 9.09807 22.7214 9.43149C22.6914 9.78163 22.6257 10.1191 22.4536 10.4385C22.2197 10.8724 21.8618 11.2268 21.4262 11.4578C21.1063 11.6273 20.7683 11.6921 20.4167 11.7217C20.0813 11.75 19.6715 11.75 19.1871 11.75H19.1871H17.8129H17.8129C17.3285 11.75 16.9187 11.75 16.5833 11.7217C16.2317 11.6921 15.8937 11.6273 15.5738 11.4578C15.1382 11.2268 14.7803 10.8724 14.5464 10.4385C14.3743 10.1191 14.3086 9.78163 14.2786 9.43149C14.25 9.09807 14.25 8.69105 14.25 8.21122V8.21119V8.14878V8.14875C14.25 7.66892 14.25 7.2619 14.2786 6.92848C14.3086 6.57833 14.3743 6.24083 14.5464 5.92145C14.7803 5.48753 15.1382 5.13313 15.5738 4.90222C15.6421 4.86599 15.7113 4.83455 15.7813 4.80722V3.95232Z" fill="#141B34"/>
</svg>
