<svg width="24" height="24" viewBox="0 0 24 24" fill="none" xmlns="http://www.w3.org/2000/svg">
<path fill-rule="evenodd" clip-rule="evenodd" d="M13.875 5.21267C13.875 2.95619 15.7042 1.12695 17.9607 1.12695C20.2172 1.12695 22.0464 2.95619 22.0464 5.21267C22.0464 5.97921 21.8353 6.69644 21.4681 7.30941L22.581 8.41871C22.9721 8.80861 22.9731 9.44178 22.5832 9.83293C22.1933 10.2241 21.5602 10.2251 21.169 9.83519L20.053 8.72273C19.441 9.08831 18.7254 9.29838 17.9607 9.29838C15.7042 9.29838 13.875 7.46915 13.875 5.21267ZM19.4332 6.68978C19.812 6.31216 20.0464 5.78978 20.0464 5.21267C20.0464 4.06076 19.1126 3.12695 17.9607 3.12695C16.8088 3.12695 15.875 4.06076 15.875 5.21267C15.875 6.36458 16.8088 7.29838 17.9607 7.29838C18.5355 7.29838 19.056 7.06587 19.4332 6.68978Z" fill="#141B34"/>
<path fill-rule="evenodd" clip-rule="evenodd" d="M12.8645 2.50675C12.7758 2.37909 12.5617 2.37748 12.1335 2.37426C11.3016 2.36801 10.4679 2.39196 9.65465 2.44602C5.088 2.74958 1.46472 6.43587 1.1668 11.0456C1.11107 11.9081 1.11107 12.8001 1.1668 13.6625C1.27772 15.3789 2.02648 16.9273 2.85881 18.1837C3.10814 18.6652 2.97823 19.3874 2.5119 20.2711L2.49042 20.3118C2.33374 20.6085 2.18036 20.899 2.09188 21.1467C1.99813 21.4091 1.90123 21.8258 2.14291 22.2378C2.36496 22.6164 2.71975 22.7551 3.00652 22.8106C3.24461 22.8566 3.53655 22.8636 3.81044 22.8702L3.85617 22.8713C5.27592 22.9058 6.27636 22.4959 7.0688 21.9115L7.16407 21.8414C7.28359 21.7535 7.34335 21.7095 7.42104 21.6999C7.49873 21.6902 7.56703 21.7181 7.70361 21.7737C7.77126 21.8013 7.84733 21.8326 7.93339 21.8681C8.47478 22.091 9.08972 22.2246 9.65465 22.2622C11.1119 22.359 12.6351 22.3592 14.0954 22.2622C18.662 21.9586 22.2853 18.2723 22.5832 13.6625C22.6123 13.2118 22.6262 12.753 22.6249 12.2945C22.624 11.9711 22.6235 11.8094 22.5371 11.7221C22.4507 11.6348 22.2477 11.6321 21.8416 11.6267C21.2143 11.6184 20.5895 11.3754 20.1101 10.8976L19.9869 10.7748L19.9869 10.7748C19.8623 10.6506 19.8 10.5885 19.7231 10.5677C19.6462 10.5468 19.5542 10.5708 19.3703 10.6186C18.9194 10.736 18.4468 10.7984 17.9607 10.7984C14.8758 10.7984 12.375 8.29757 12.375 5.21267C12.375 4.54184 12.4933 3.89864 12.7101 3.30276C12.8722 2.85719 12.9532 2.63441 12.8645 2.50675ZM8 11.5001C7.44772 11.5001 7 11.9478 7 12.5001C7 13.0524 7.44772 13.5001 8 13.5001H8.00897C8.56126 13.5001 9.00897 13.0524 9.00897 12.5001C9.00897 11.9478 8.56126 11.5001 8.00897 11.5001H8ZM11.9955 11.5001C11.4432 11.5001 10.9955 11.9478 10.9955 12.5001C10.9955 13.0524 11.4432 13.5001 11.9955 13.5001H12.0045C12.5568 13.5001 13.0045 13.0524 13.0045 12.5001C13.0045 11.9478 12.5568 11.5001 12.0045 11.5001H11.9955ZM15.991 11.5001C15.4387 11.5001 14.991 11.9478 14.991 12.5001C14.991 13.0524 15.4387 13.5001 15.991 13.5001H16C16.5523 13.5001 17 13.0524 17 12.5001C17 11.9478 16.5523 11.5001 16 11.5001H15.991Z" fill="#141B34"/>
</svg>
