<svg width="24" height="25" viewBox="0 0 24 25" fill="none" xmlns="http://www.w3.org/2000/svg">
<path fill-rule="evenodd" clip-rule="evenodd" d="M10.9648 1.83209C10.9474 1.75734 10.9066 1.75601 10.8252 1.75337C10.7212 1.75 10.5957 1.75 10.4452 1.75H10.4452C8.84263 1.74998 7.56367 1.74997 6.56059 1.88483C5.52433 2.02415 4.67092 2.31966 3.99578 2.9948C3.32064 3.66994 3.02513 4.52335 2.88581 5.55962C2.75095 6.56269 2.75096 7.84166 2.75098 9.44423V9.44424V15.5558V15.5558C2.75096 17.1583 2.75095 18.4373 2.88581 19.4404C3.02513 20.4767 3.32064 21.3301 3.99578 22.0052C4.67092 22.6803 5.52433 22.9758 6.56059 23.1152C7.56368 23.25 8.84264 23.25 10.4452 23.25H10.5567C12.1593 23.25 13.4383 23.25 14.4414 23.1152C15.4776 22.9758 16.331 22.6803 17.0062 22.0052C17.6813 21.3301 17.9768 20.4767 18.1161 19.4404C18.251 18.4373 18.251 17.1583 18.251 15.5557V13.9224C18.251 13.6499 18.251 13.5137 18.1946 13.4352C18.1531 13.3774 18.1007 13.3407 18.0321 13.3214C17.9392 13.2953 17.8041 13.3444 17.534 13.4427C17.2137 13.5595 16.6905 13.7503 16.0018 13.7503C15.313 13.7504 14.7898 13.5595 14.4695 13.4427C10.3235 11.9345 8.69112 7.98829 9.42346 4.12835L9.42683 4.1105L9.42683 4.1105C9.44681 4.00443 9.49005 3.77483 9.54961 3.5766C9.63021 3.30834 9.79437 2.88554 10.1693 2.48971C10.3939 2.25255 10.6422 2.08845 10.8487 1.97814C10.9377 1.93061 10.9822 1.90684 10.9648 1.83209ZM9.50098 18.5C8.94869 18.5 8.50098 18.9477 8.50098 19.5C8.50098 20.0523 8.94869 20.5 9.50098 20.5H11.501C12.0533 20.5 12.501 20.0523 12.501 19.5C12.501 18.9477 12.0533 18.5 11.501 18.5H9.50098Z" fill="#141B34"/>
<path d="M13.8229 2.32275C14.409 2.03431 15.1182 1.75 15.9992 1.75C16.8802 1.75 17.5897 2.0343 18.176 2.32271C18.3705 2.41841 18.5413 2.50789 18.6981 2.59005C19.0518 2.77543 19.3345 2.92358 19.6593 3.02196C19.8632 3.08373 20.0699 3.14634 20.2144 3.2001C20.3402 3.24694 20.5675 3.33594 20.7425 3.52072C20.8975 3.6843 20.9716 3.86418 21.0147 4.00776C21.0507 4.1276 21.0813 4.28901 21.1038 4.40766C21.7239 7.67405 20.3593 10.8182 17.0203 12.0327C16.7132 12.1445 16.4234 12.25 16.0008 12.25C15.5781 12.25 15.2883 12.1445 14.9812 12.0327C11.6423 10.8183 10.2762 7.67434 10.8962 4.40771C10.9186 4.28907 10.9492 4.12769 10.9852 4.00785C11.0283 3.86428 11.1024 3.68442 11.2574 3.52085C11.4324 3.33606 11.6596 3.24702 11.7855 3.20018C11.9299 3.1464 12.1367 3.08375 12.3406 3.02195C12.6651 2.92359 12.9475 2.7755 13.301 2.59017C13.4577 2.50799 13.6284 2.41849 13.8229 2.32275Z" fill="#141B34"/>
</svg>
