<svg width="24" height="24" viewBox="0 0 24 24" fill="none" xmlns="http://www.w3.org/2000/svg">
<path fill-rule="evenodd" clip-rule="evenodd" d="M11.9981 1.25C10.3168 1.25 8.94996 1.81794 7.75783 2.43555C7.39757 2.62219 7.06291 2.8068 6.74311 2.98322L6.7431 2.98322L6.7431 2.98322L6.74309 2.98323C5.96064 3.41486 5.26717 3.7974 4.50561 4.04039L4.48019 4.0485C4.03289 4.19121 3.6621 4.30951 3.38117 4.4196C3.11675 4.52321 2.8025 4.6652 2.57954 4.91299C2.37926 5.13558 2.27636 5.38547 2.20814 5.6245C2.14621 5.84148 2.09879 6.10462 2.04801 6.38644L2.04249 6.41705C0.804551 13.2827 3.51154 19.787 10.122 22.3179L10.1549 22.3305C10.8047 22.5793 11.2503 22.75 12.0014 22.75C12.7524 22.75 13.198 22.5793 13.8478 22.3305L13.8807 22.3179C20.4909 19.7869 23.1952 13.2824 21.9569 6.417L21.9514 6.38634L21.9514 6.38632L21.9514 6.38629C21.9006 6.10446 21.8532 5.84132 21.7912 5.62433C21.723 5.38529 21.6201 5.13537 21.4197 4.91278C21.1967 4.66499 20.8825 4.52304 20.618 4.41946C20.3371 4.30942 19.9664 4.19119 19.5191 4.04857L19.5191 4.04856L19.4937 4.04044C18.7317 3.79744 18.0376 3.4148 17.2546 2.9831L17.2546 2.98309C16.9346 2.8067 16.5998 2.62213 16.2395 2.43554C15.0467 1.81795 13.6794 1.25 11.9981 1.25ZM12.7495 7C12.7495 6.58579 12.4137 6.25 11.9995 6.25C11.5853 6.25 11.2495 6.58579 11.2495 7V7.42416C10.6343 7.52886 10.0696 7.7612 9.61147 8.09711C8.9727 8.56549 8.49951 9.2746 8.49951 10.1278C8.49951 10.8783 8.76888 11.572 9.45728 12.0328C10.0815 12.4507 10.9517 12.6062 11.9995 12.6062C12.9577 12.6062 13.5275 12.7501 13.8416 12.9537C14.0875 13.1131 14.2495 13.354 14.2495 13.8726C14.2495 14.3084 14.0706 14.5775 13.7364 14.777C13.3567 15.0037 12.7603 15.1391 11.9995 15.1391C11.2997 15.1391 10.6999 14.9471 10.2966 14.676C9.88858 14.4018 9.74951 14.1036 9.74951 13.8726C9.74951 13.4584 9.41373 13.1226 8.99951 13.1226C8.5853 13.1226 8.24951 13.4584 8.24951 13.8726C8.24951 14.7554 8.78202 15.4654 9.4598 15.921C9.96041 16.2574 10.5781 16.4867 11.2495 16.585V17C11.2495 17.4142 11.5853 17.75 11.9995 17.75C12.4137 17.75 12.7495 17.4142 12.7495 17V16.6006C13.3861 16.5325 13.9969 16.3684 14.5053 16.065C15.2568 15.6163 15.7495 14.8772 15.7495 13.8726C15.7495 12.951 15.4115 12.1837 14.6574 11.6949C13.9716 11.2504 13.0413 11.1062 11.9995 11.1062C11.0473 11.1062 10.5426 10.9543 10.2917 10.7864C10.1051 10.6615 9.99951 10.4909 9.99951 10.1278C9.99951 9.86732 10.1419 9.56819 10.4985 9.30676C10.8545 9.04566 11.3828 8.86133 11.9995 8.86133C12.6162 8.86133 13.1445 9.04566 13.5006 9.30676C13.8571 9.56819 13.9995 9.86732 13.9995 10.1278C13.9995 10.542 14.3353 10.8778 14.7495 10.8778C15.1637 10.8778 15.4995 10.542 15.4995 10.1278C15.4995 9.2746 15.0263 8.56549 14.3875 8.09711C13.9294 7.7612 13.3648 7.52886 12.7495 7.42416V7Z" fill="#141B34"/>
</svg>
