<svg width="24" height="24" viewBox="0 0 24 24" fill="none" xmlns="http://www.w3.org/2000/svg">
<path fill-rule="evenodd" clip-rule="evenodd" d="M10.7458 12C10.7458 11.3096 11.3055 10.75 11.9958 10.75H12.0048C12.6952 10.75 13.2548 11.3096 13.2548 12C13.2548 12.6904 12.6952 13.25 12.0048 13.25H11.9958C11.3055 13.25 10.7458 12.6904 10.7458 12Z" fill="#141B34"/>
<path fill-rule="evenodd" clip-rule="evenodd" d="M10.7341 16C10.7341 15.3096 11.2938 14.75 11.9841 14.75H11.9931C12.6835 14.75 13.2431 15.3096 13.2431 16C13.2431 16.6904 12.6835 17.25 11.9931 17.25H11.9841C11.2938 17.25 10.7341 16.6904 10.7341 16Z" fill="#141B34"/>
<path fill-rule="evenodd" clip-rule="evenodd" d="M10.7498 8C10.7498 7.30964 11.3094 6.75 11.9998 6.75H12.0087C12.6991 6.75 13.2587 7.30964 13.2587 8C13.2587 8.69036 12.6991 9.25 12.0087 9.25H11.9998C11.3094 9.25 10.7498 8.69036 10.7498 8Z" fill="#141B34"/>
<path fill-rule="evenodd" clip-rule="evenodd" d="M12 21C7.02944 21 3 16.9706 3 12C3 7.02944 7.02944 3 12 3C16.9706 3 21 7.02944 21 12C21 16.9706 16.9706 21 12 21ZM1 12C1 18.0751 5.92487 23 12 23C18.0751 23 23 18.0751 23 12C23 5.92487 18.0751 1 12 1C5.92487 1 1 5.92487 1 12Z" fill="#141B34"/>
</svg>
