<svg width="25" height="24" viewBox="0 0 25 24" fill="none" xmlns="http://www.w3.org/2000/svg">
<path fill-rule="evenodd" clip-rule="evenodd" d="M19.6133 15.5C18.7849 15.5 18.1133 16.1716 18.1133 17C18.1133 17.8284 18.7849 18.5 19.6133 18.5C20.4417 18.5 21.1133 17.8284 21.1133 17C21.1133 16.1716 20.4417 15.5 19.6133 15.5ZM16.1133 17C16.1133 15.067 17.6803 13.5 19.6133 13.5C21.5463 13.5 23.1133 15.067 23.1133 17C23.1133 18.933 21.5463 20.5 19.6133 20.5C17.6803 20.5 16.1133 18.933 16.1133 17Z" fill="#141B34"/>
<path fill-rule="evenodd" clip-rule="evenodd" d="M11.1133 5.50028C12.0122 5.50028 12.1875 5.51724 12.3238 5.57171C12.4141 5.60779 12.4986 5.65684 12.5747 5.71732C12.6896 5.80861 12.7913 5.9524 13.2373 6.7329L13.3901 7.00028H11.9768C11.5213 7.00028 11.0794 7.15579 10.7243 7.44109L8.89618 8.90967C8.71861 9.05231 8.49767 9.13007 8.2699 9.13007H4.11328C3.561 9.13007 3.11328 9.57779 3.11328 10.1301C3.11328 10.6824 3.561 11.1301 4.11328 11.1301H6.10172L8.28724 13.5295L7.28204 14.7357C6.64004 13.9799 5.68267 13.5003 4.61328 13.5003C2.68028 13.5003 1.11328 15.0673 1.11328 17.0003C1.11328 18.9333 2.68028 20.5003 4.61328 20.5003C6.54628 20.5003 8.11328 18.9333 8.11328 17.0003C8.11328 16.9551 8.11243 16.9101 8.11073 16.8654L10.0817 14.5003H11.5196C12.2515 14.5003 12.925 14.1005 13.2754 13.458L15.1336 10.0514L15.9167 11.4218C14.2323 12.4843 13.1133 14.3616 13.1133 16.5003C13.1133 17.3518 13.2912 18.1643 13.613 18.9006C13.8341 19.4067 14.4236 19.6377 14.9297 19.4166C15.4358 19.1955 15.6668 18.606 15.4457 18.0999C15.2322 17.6113 15.1133 17.071 15.1133 16.5003C15.1133 14.2911 16.9041 12.5003 19.1133 12.5003C19.3886 12.5003 19.6563 12.5279 19.9143 12.5803C20.4556 12.6902 20.9834 12.3405 21.0933 11.7992C21.2032 11.258 20.8535 10.7301 20.3122 10.6203C19.924 10.5415 19.5229 10.5003 19.1133 10.5003C18.6546 10.5003 18.2079 10.5517 17.7787 10.6492L14.9738 5.74062L14.9041 5.61837C14.5701 5.03174 14.2752 4.514 13.8188 4.15139C13.5905 3.96998 13.3369 3.82282 13.0661 3.71458C12.5249 3.49823 11.9291 3.49912 11.254 3.50014L11.1133 3.50028C10.561 3.50028 10.1133 3.94799 10.1133 4.50028C10.1133 5.05256 10.561 5.50028 11.1133 5.50028ZM3.11328 17.0005C3.11328 16.1721 3.78485 15.5005 4.61328 15.5005C5.44171 15.5005 6.11328 16.1721 6.11328 17.0005C6.11328 17.8289 5.44171 18.5005 4.61328 18.5005C3.78485 18.5005 3.11328 17.8289 3.11328 17.0005Z" fill="#141B34"/>
</svg>
