<svg width="24" height="24" viewBox="0 0 24 24" fill="none" xmlns="http://www.w3.org/2000/svg">
<path fill-rule="evenodd" clip-rule="evenodd" d="M9.17331 1.41506C9.64994 1.35634 10.1346 1.30623 10.6261 1.27167C10.9148 1.25138 11.0591 1.24123 11.1546 1.3302C11.25 1.41916 11.25 1.56669 11.25 1.86176V4.81248C11.25 4.9627 11.25 5.03781 11.2286 5.09136C11.2095 5.13927 11.1963 5.159 11.1594 5.19501C11.1181 5.23525 11.0222 5.27498 10.8303 5.35445C10.4015 5.53206 10.0608 5.87274 9.88321 6.30154C9.80099 6.50004 9.77338 6.69538 9.76126 6.87303C9.74998 7.03835 9.74999 7.2352 9.75 7.44947V7.44948L9.75 7.47123L9.75 8.49299V8.493C9.74999 8.70727 9.74998 8.90412 9.76126 9.06944C9.77338 9.24709 9.80099 9.44243 9.88321 9.64093C10.0608 10.0697 10.4015 10.4104 10.8303 10.588C11.0222 10.6675 11.1181 10.7072 11.1594 10.7475C11.1963 10.7835 11.2095 10.8032 11.2286 10.8511C11.25 10.9047 11.25 10.9798 11.25 11.13V11.9712C11.25 12.3854 11.5858 12.7212 12 12.7212C12.4142 12.7212 12.75 12.3854 12.75 11.9712V11.13C12.75 10.9798 12.75 10.9047 12.7714 10.8511C12.7905 10.8032 12.8037 10.7835 12.8406 10.7475C12.8819 10.7072 12.9778 10.6675 13.1697 10.588C13.5985 10.4104 13.9392 10.0697 14.1168 9.64093C14.199 9.44243 14.2266 9.24709 14.2387 9.06944C14.25 8.90412 14.25 8.70727 14.25 8.493V7.44947C14.25 7.2352 14.25 7.03835 14.2387 6.87303C14.2266 6.69538 14.199 6.50004 14.1168 6.30154C13.9392 5.87274 13.5985 5.53206 13.1697 5.35445C12.9778 5.27498 12.8819 5.23525 12.8406 5.19501C12.8037 5.159 12.7905 5.13927 12.7714 5.09136C12.75 5.03781 12.75 4.9627 12.75 4.81248V1.86176C12.75 1.5667 12.75 1.41917 12.8454 1.3302C12.9409 1.24123 13.0852 1.25138 13.3739 1.27168C13.8654 1.30623 14.35 1.35634 14.8266 1.41506C17.626 1.75996 19.7892 4.08129 20.007 6.82304C20.1391 8.48634 20.25 10.2094 20.25 11.9712C20.25 13.7331 20.1391 15.4561 20.007 17.1195C19.7892 19.8612 17.626 22.1824 14.8266 22.5274C13.9112 22.6401 12.9658 22.7212 12 22.7212C11.0341 22.7212 10.0888 22.6401 9.17338 22.5274C6.37413 22.1824 4.21064 19.8612 3.99296 17.1194C3.86089 15.4561 3.75 13.7331 3.75 11.9712C3.75 10.2094 3.86089 8.48636 3.99296 6.82305C4.21063 4.08126 6.37402 1.75996 9.17331 1.41506ZM12.0024 9.22124C12.2442 9.22124 12.3885 9.2208 12.4961 9.21346C12.5191 9.21189 12.5375 9.21014 12.5521 9.20845C12.5625 9.20724 12.5676 9.20664 12.6015 9.19409C12.6353 9.18153 12.6369 9.18046 12.6401 9.17832C12.6665 9.16046 12.6892 9.13771 12.7071 9.1113C12.7092 9.10813 12.7103 9.10654 12.7229 9.0727C12.7354 9.03886 12.736 9.03368 12.7372 9.02333C12.7389 9.00873 12.7407 8.9903 12.7422 8.96734C12.7496 8.85933 12.75 8.71447 12.75 8.47123V7.47123C12.75 7.228 12.7496 7.08314 12.7422 6.97513C12.7407 6.95218 12.7389 6.93376 12.7372 6.91916C12.736 6.9088 12.7354 6.90362 12.7228 6.86976C12.7103 6.83591 12.7092 6.83432 12.7071 6.83115C12.6892 6.80475 12.6665 6.782 12.6401 6.76415C12.6369 6.762 12.6353 6.76093 12.6015 6.74838C12.5676 6.73583 12.5625 6.73523 12.5521 6.73403C12.5375 6.73233 12.5191 6.73058 12.4961 6.72901C12.3881 6.72164 12.2432 6.72123 12 6.72123C11.7568 6.72123 11.6119 6.72164 11.5039 6.72901C11.4809 6.73058 11.4625 6.73233 11.4479 6.73402C11.4376 6.73523 11.4324 6.73583 11.3985 6.74838C11.3647 6.76093 11.3631 6.762 11.3599 6.76415C11.3335 6.78201 11.3108 6.80477 11.2929 6.83118C11.2908 6.83435 11.2897 6.83593 11.2771 6.86977C11.2646 6.90361 11.264 6.90878 11.2628 6.91913C11.2611 6.93372 11.2593 6.95216 11.2578 6.97513C11.2504 7.08314 11.25 7.228 11.25 7.47123V8.47123C11.25 8.71447 11.2504 8.85933 11.2578 8.96734C11.2593 8.99031 11.2611 9.00875 11.2628 9.02335C11.264 9.03369 11.2646 9.03886 11.2771 9.0727C11.2897 9.10653 11.2908 9.10812 11.2929 9.11129C11.3108 9.1377 11.3335 9.16046 11.3599 9.17832C11.3631 9.18047 11.3647 9.18154 11.3985 9.19409C11.4324 9.20664 11.4375 9.20724 11.4479 9.20844C11.4625 9.21014 11.4809 9.21189 11.5039 9.21346C11.6117 9.22081 11.7561 9.22123 11.9983 9.22123C11.9989 9.22123 11.9994 9.22123 12 9.22123C12.0008 9.22123 12.0016 9.22123 12.0024 9.22124Z" fill="#141B34"/>
</svg>
