<svg width="24" height="24" viewBox="0 0 24 24" fill="none" xmlns="http://www.w3.org/2000/svg">
<path fill-rule="evenodd" clip-rule="evenodd" d="M11.5504 3.69576C12.0893 3.9322 12.6343 4.18846 13.1738 4.47738C12.8398 4.94312 12.496 5.56193 12.088 6.2963L12.063 6.34138L11.5301 7.30044C11.3756 7.2262 11.1997 7.15786 10.9965 7.1311C10.5363 7.07052 10.071 7.19522 9.70274 7.47776C9.53228 7.60856 9.4107 7.76392 9.31138 7.91171C9.21895 8.04924 9.12053 8.21972 9.01341 8.4053L8.49164 9.30902C8.3845 9.49458 8.28606 9.66504 8.21317 9.81386C8.13484 9.97376 8.06109 10.1567 8.03304 10.3698C7.97246 10.8299 8.09716 11.2953 8.3797 11.6635C8.5105 11.834 8.66586 11.9556 8.81365 12.0549C8.95118 12.1473 9.12166 12.2457 9.30724 12.3528L9.34493 12.3746C9.53049 12.4818 9.70096 12.5802 9.84978 12.6531C10.0097 12.7314 10.1927 12.8052 10.4057 12.8332C10.8658 12.8938 11.3312 12.7691 11.6994 12.4866C11.8699 12.3558 11.9915 12.2004 12.0908 12.0526C12.1832 11.9151 12.2816 11.7446 12.3887 11.559L12.3888 11.559L12.8996 10.6741L12.9105 10.6553L12.9106 10.6552C13.0177 10.4697 13.1161 10.2993 13.189 10.1505C13.2673 9.99055 13.3411 9.80757 13.3691 9.59455C13.4297 9.13439 13.305 8.66902 13.0225 8.3008C12.9575 8.21609 12.8864 8.14345 12.8132 8.07961L13.3742 7.06988C13.8365 6.23786 14.1483 5.67975 14.4337 5.29539C14.4459 5.27898 14.4579 5.26309 14.4697 5.24769C14.8748 5.51255 15.2644 5.78865 15.6412 6.06769C17.5396 7.47337 18.285 9.97725 17.3474 11.995C16.811 13.1495 16.2342 14.3398 15.5609 15.5109C14.8877 16.682 14.1496 17.7788 13.4222 18.8227C12.1495 20.6491 9.6135 21.2533 7.45035 20.3044C6.74582 19.9953 6.0307 19.6523 5.33115 19.2467C4.6316 18.841 3.97836 18.3907 3.35953 17.9325C1.46133 16.5268 0.715631 14.0229 1.65327 12.0052C2.18976 10.8507 2.7666 9.66038 3.43985 8.4893C4.1131 7.3182 4.85112 6.22135 5.57846 5.1775C6.85113 3.35097 9.3873 2.7468 11.5504 3.69576ZM11.8824 9.39551C11.8899 9.33192 11.8727 9.26786 11.8344 9.21655C11.829 9.21126 11.8074 9.19177 11.7518 9.15441C11.662 9.09402 11.5367 9.02124 11.3261 8.89962C11.1154 8.77801 10.9898 8.70593 10.8926 8.65831C10.8324 8.62884 10.8048 8.61992 10.7975 8.61786C10.7339 8.61034 10.6698 8.6275 10.6185 8.66581C10.6132 8.67125 10.5937 8.6928 10.5563 8.74839C10.496 8.83825 10.4232 8.9635 10.3016 9.17414L9.80156 10.0402C9.67995 10.2508 9.60787 10.3765 9.56025 10.4737C9.53078 10.5338 9.52186 10.5615 9.5198 10.5688C9.51228 10.6324 9.52944 10.6965 9.56776 10.7478C9.57319 10.7531 9.59474 10.7725 9.65033 10.8099C9.74019 10.8703 9.86544 10.9431 10.0761 11.0647C10.2867 11.1863 10.4124 11.2584 10.5096 11.306C10.5698 11.3355 10.5974 11.3444 10.6047 11.3464C10.6683 11.354 10.7324 11.3368 10.7837 11.2985C10.789 11.2931 10.8085 11.2715 10.8458 11.2159C10.9062 11.1261 10.979 11.0008 11.1006 10.7902L11.6006 9.92414C11.7222 9.7135 11.7943 9.58784 11.8419 9.49062C11.8714 9.43046 11.8803 9.40281 11.8824 9.39551Z" fill="#141B34"/>
<path d="M20.4213 5.84915L18.2997 4.57624C17.5555 4.12974 16.9313 3.75522 16.3963 3.5267C15.8299 3.28481 15.256 3.15756 14.6419 3.32855C14.0307 3.49873 13.6003 3.90306 13.2305 4.4011C13.2119 4.42605 13.1934 4.45148 13.1748 4.47738C13.3407 4.56621 13.506 4.65813 13.6705 4.75351C13.9441 4.91213 14.2106 5.07759 14.4707 5.24769C14.7247 4.91679 14.895 4.81513 15.0442 4.77358C15.1975 4.73091 15.3987 4.7317 15.8071 4.90615C16.236 5.08933 16.7717 5.4088 17.5734 5.88979L19.6496 7.13541C20.7133 7.77361 22.0598 7.38243 22.656 6.30942C22.8571 5.94733 22.7267 5.49073 22.3646 5.28956C22.0025 5.08839 21.5459 5.21883 21.3448 5.58092C21.1465 5.93775 20.7335 6.03647 20.4213 5.84915Z" fill="#141B34"/>
</svg>
