<svg width="24" height="24" viewBox="0 0 24 24" fill="none" xmlns="http://www.w3.org/2000/svg">
<path fill-rule="evenodd" clip-rule="evenodd" d="M18.068 1.51848C17.664 1.89504 17.6418 2.52781 18.0183 2.93182C18.9509 3.93237 19.5605 5.12282 19.762 6.40518C19.8477 6.95077 20.3594 7.32359 20.905 7.23789C21.4506 7.15219 21.8234 6.64043 21.7377 6.09483C21.4683 4.37945 20.6582 2.83081 19.4814 1.56819C19.1048 1.16418 18.472 1.14192 18.068 1.51848Z" fill="#141B34"/>
<path fill-rule="evenodd" clip-rule="evenodd" d="M11.25 1.54781C11.25 1.37733 11.3919 1.24093 11.5621 1.25047C12.1606 1.28404 12.7495 1.3426 13.3267 1.41381C16.126 1.75919 18.2894 4.08376 18.507 6.82942C18.6391 8.49507 18.75 10.2205 18.75 11.9849C18.75 13.7492 18.6391 15.4746 18.507 17.1403C18.2894 19.8859 16.1259 22.2104 13.3266 22.5559C12.4112 22.6688 11.4659 22.75 10.5 22.75C9.53418 22.75 8.58882 22.6688 7.67336 22.5559C4.87401 22.2104 2.71078 19.8859 2.49304 17.1403C2.36092 15.4747 2.25 13.7492 2.25 11.9849C2.25 10.2205 2.36092 8.49505 2.49304 6.82941C2.71077 4.08379 4.874 1.75919 7.6734 1.41381C8.25051 1.3426 8.83944 1.28404 9.43788 1.25048C9.6081 1.24093 9.75 1.37734 9.75 1.54782V4.98693C9.75 5.13794 9.6365 5.26166 9.49122 5.30286C9.43801 5.31795 9.38427 5.33629 9.3303 5.35868C8.9015 5.53654 8.56082 5.8777 8.38321 6.3071C8.30099 6.50589 8.27337 6.7015 8.26125 6.8794C8.24997 7.04495 8.24998 7.24208 8.25 7.45665V8.50165C8.24998 8.71623 8.24997 8.91335 8.26125 9.07891C8.27337 9.2568 8.30099 9.45242 8.38321 9.6512C8.56082 10.0806 8.9015 10.4218 9.3303 10.5996C9.38427 10.622 9.43801 10.6404 9.49122 10.6554C9.6365 10.6966 9.75 10.8204 9.75 10.9714V11.9848C9.75 12.3996 10.0858 12.7358 10.5 12.7358C10.9142 12.7358 11.25 12.3996 11.25 11.9848V10.9714C11.25 10.8204 11.3635 10.6966 11.5088 10.6554C11.562 10.6404 11.6157 10.622 11.6697 10.5996C12.0985 10.4218 12.4392 10.0806 12.6168 9.6512C12.699 9.45242 12.7266 9.2568 12.7387 9.07891C12.75 8.91335 12.75 8.71623 12.75 8.50165V8.50164V7.45666V7.45665C12.75 7.24208 12.75 7.04495 12.7387 6.8794C12.7266 6.7015 12.699 6.50589 12.6168 6.3071C12.4392 5.8777 12.0985 5.53654 11.6697 5.35868C11.6157 5.33629 11.562 5.31795 11.5088 5.30286C11.3635 5.26166 11.25 5.13794 11.25 4.98693V1.54781ZM11.2341 6.90208C11.2317 6.88656 11.2269 6.87149 11.2194 6.85771C11.1964 6.81565 11.1619 6.78106 11.1199 6.75808C11.1061 6.75052 11.091 6.74571 11.0755 6.74332C11.0591 6.7408 11.0337 6.73775 10.9961 6.73518C10.8881 6.7278 10.7432 6.72739 10.5 6.72739C10.2568 6.72739 10.1119 6.7278 10.0039 6.73518C9.96631 6.73775 9.94088 6.7408 9.92451 6.74332C9.90897 6.74571 9.89387 6.75052 9.88007 6.75807C9.83808 6.78106 9.80355 6.81566 9.7806 6.85771C9.77309 6.87149 9.76829 6.88656 9.76591 6.90207C9.7634 6.91846 9.76034 6.94395 9.75777 6.98165C9.7504 7.08981 9.75 7.23487 9.75 7.47845V8.47986C9.75 8.72343 9.7504 8.8685 9.75777 8.97666C9.76034 9.01435 9.7634 9.03983 9.76591 9.05622C9.76829 9.07174 9.77309 9.08682 9.78061 9.10061C9.80355 9.14265 9.83808 9.17724 9.88007 9.20023C9.89387 9.20778 9.90897 9.2126 9.92452 9.21499C9.94089 9.2175 9.96632 9.22056 10.0039 9.22313C10.1119 9.23051 10.2568 9.23091 10.5 9.23091C10.7432 9.23091 10.8881 9.23051 10.9961 9.22313C11.0337 9.22056 11.0591 9.2175 11.0755 9.21499C11.091 9.2126 11.1061 9.20778 11.1199 9.20023C11.1619 9.17724 11.1964 9.14265 11.2194 9.1006C11.2269 9.08681 11.2317 9.07175 11.2341 9.05623C11.2366 9.03984 11.2397 9.01435 11.2422 8.97666C11.2496 8.8685 11.25 8.72343 11.25 8.47986V7.47845C11.25 7.23487 11.2496 7.08981 11.2422 6.98165C11.2397 6.94395 11.2366 6.91847 11.2341 6.90208Z" fill="#141B34"/>
</svg>
