<svg width="24" height="24" viewBox="0 0 24 24" fill="none" xmlns="http://www.w3.org/2000/svg">
<path fill-rule="evenodd" clip-rule="evenodd" d="M12.0153 1.25C7.07313 1.25 2.85007 4.08233 2.27508 8.94328C2.1587 9.92719 2.45283 10.7792 3.0433 11.4634C3.61448 12.1252 4.43619 12.6019 5.3545 12.9422C7.18965 13.6223 9.63409 13.8396 12.0196 13.7179C14.4105 13.596 16.8359 13.1286 18.6477 12.3686C19.5501 11.9901 20.3511 11.518 20.9134 10.9366C21.4874 10.3429 21.8516 9.58681 21.7252 8.71176C21.0433 3.98874 16.8764 1.25 12.0153 1.25ZM16 5C16.8252 5 17.5668 5.40255 18.0821 5.9179C18.5975 6.43324 19 7.17477 19 8C19 8.55229 18.5523 9 18 9C17.4477 9 17 8.55229 17 8C17 7.82523 16.9025 7.56676 16.6679 7.33211C16.4332 7.09746 16.1748 7 16 7C15.4477 7 15 6.55229 15 6C15 5.44772 15.4477 5 16 5Z" fill="#141B34"/>
<path d="M14.8061 14.9381C15.0751 14.8962 15.2096 14.8753 15.3083 14.944C15.407 15.0128 15.4328 15.1401 15.4844 15.3947C15.6167 16.0476 15.7086 16.74 15.7388 17.4224C15.7799 18.35 15.7097 19.3094 15.4412 20.1567C15.1714 21.0079 14.6829 21.7978 13.8566 22.2782C11.5977 23.5915 8.77315 22.0533 8.28808 19.4101C8.15678 18.6946 8.386 18.0709 8.65508 17.5655C8.78992 17.3122 8.94719 17.0663 9.09503 16.8394L9.17299 16.7201C9.29668 16.531 9.41307 16.353 9.52331 16.1684C9.62321 16.0011 9.71102 15.8394 9.78413 15.68C9.88872 15.4521 9.94102 15.3381 10.0163 15.2905C10.0917 15.2429 10.2018 15.2445 10.4222 15.2476C10.9835 15.2555 11.5442 15.2442 12.096 15.216C12.9971 15.1701 13.9112 15.0773 14.8061 14.9381Z" fill="#141B34"/>
</svg>
