<svg width="24" height="24" viewBox="0 0 24 24" fill="none" xmlns="http://www.w3.org/2000/svg">
<path fill-rule="evenodd" clip-rule="evenodd" d="M4.35579 7.52857C4.31838 7.55156 4.28741 7.57183 4.26193 7.58942C4.21565 7.62136 4.18851 7.67353 4.1746 7.72801C4.14539 7.84243 4.17534 7.97144 4.27766 8.03039C4.61737 8.2261 5.08791 8.45441 5.73062 8.76451L8.65182 10.1739C10.5195 11.075 11.2418 11.4042 12 11.4042C12.7582 11.4042 13.4806 11.075 15.3482 10.1739L18.2694 8.76451C18.9121 8.45441 19.3826 8.2261 19.7223 8.03038C19.8247 7.97143 19.8546 7.84243 19.8254 7.72801C19.8115 7.67353 19.7844 7.62137 19.7381 7.58943C19.7126 7.57183 19.6816 7.55156 19.6442 7.52857C19.3259 7.33299 18.8178 7.10689 18.0067 6.74994L16.4513 6.0654C15.9663 5.85197 15.7629 5.32032 15.9969 4.87793C16.2309 4.43555 16.8137 4.24995 17.2987 4.46339L18.9202 5.17702C19.645 5.49592 20.2839 5.77707 20.7335 6.05324C21.1829 6.32934 21.75 6.78358 21.75 7.52547L21.75 17.3004C21.75 18.4199 20.9311 19.1633 19.9258 19.7648C18.9075 20.3741 17.1986 21.0939 15.3055 21.8912L15.3055 21.8912C13.8861 22.4895 12.9716 22.875 12 22.875C11.0284 22.875 10.1139 22.4895 8.69452 21.8912C6.80139 21.0939 5.0925 20.3741 4.07416 19.7648C3.06888 19.1633 2.25 18.4199 2.25 17.3004L2.25 7.52547C2.25 6.78358 2.81708 6.32934 3.2665 6.05324C3.71606 5.77706 4.42114 5.46683 5.14592 5.14792L6.70132 4.46339C7.1863 4.24995 7.76914 4.43555 8.00313 4.87793C8.23713 5.32032 8.03366 5.85196 7.54868 6.0654L5.99328 6.74994C5.18221 7.10689 4.67415 7.333 4.35579 7.52857ZM6.33479 12.4801C5.96409 12.2953 5.51376 12.446 5.32895 12.8167C5.14414 13.1874 5.29484 13.6377 5.66554 13.8225L7.66554 14.8196C8.03624 15.0044 8.48657 14.8537 8.67138 14.483C8.85619 14.1123 8.70549 13.662 8.33479 13.4772L6.33479 12.4801Z" fill="#141B34"/>
<path fill-rule="evenodd" clip-rule="evenodd" d="M14.7071 1.41789C15.0976 1.80842 15.0976 2.44158 14.7071 2.83211L13.4142 4.125L14.7071 5.41789C15.0976 5.80842 15.0976 6.44158 14.7071 6.83211C14.3166 7.22263 13.6834 7.22263 13.2929 6.83211L12 5.53921L10.7071 6.83211C10.3166 7.22263 9.68342 7.22263 9.29289 6.83211C8.90237 6.44158 8.90237 5.80842 9.29289 5.41789L10.5858 4.125L9.29289 2.83211C8.90237 2.44158 8.90237 1.80842 9.29289 1.41789C9.68342 1.02737 10.3166 1.02737 10.7071 1.41789L12 2.71079L13.2929 1.41789C13.6834 1.02737 14.3166 1.02737 14.7071 1.41789Z" fill="#141B34"/>
</svg>
