<svg width="24" height="24" viewBox="0 0 24 24" fill="none" xmlns="http://www.w3.org/2000/svg">
<path d="M3.75 10.25C2.36929 10.25 1.25 11.3693 1.25 12.75C1.25 14.1307 2.36929 15.25 3.75 15.25H8.74751C8.81064 17.1139 9.38616 19.819 11.4332 21.8531C12.3751 22.789 13.7529 22.8445 14.8931 22.6737C16.0699 22.4975 17.2359 22.0471 18.0131 21.6749C18.2264 21.5556 19.1202 21.0742 19.3235 20.9725C19.7563 20.7561 20.1001 20.6419 20.382 20.6419C20.6473 20.6419 20.918 20.6419 21.1214 20.6248C21.3409 20.6063 21.5809 20.564 21.8165 20.4397C22.1284 20.2752 22.3833 20.0203 22.5479 19.7084C22.6721 19.4727 22.7145 19.2328 22.7329 19.0133C22.75 18.8098 22.75 18.5662 22.75 18.3009V12.7164C22.75 12.4087 22.7501 12.1252 22.7266 11.8893C22.7012 11.6327 22.6003 11.1696 22.3382 10.9075C22.1107 10.6375 21.7789 10.4883 21.5062 10.3824C21.2149 10.2693 20.8293 10.1493 20.3655 10.0049C20.0584 9.89549 19.6676 9.6596 18.8763 9.06062L14.5465 5.78347C13.641 5.0748 12.3548 5.07179 11.4457 5.77682C10.3388 6.63524 10.1793 8.22827 11.1094 9.2802L12.1242 10.25L3.75 10.25Z" fill="#141B34"/>
<path d="M8.25391 5.50586C8.80619 5.50586 9.25391 5.05814 9.25391 4.50586C9.25391 3.95357 8.80619 3.50586 8.25391 3.50586L5.75387 3.50586L5.75389 2.9116C5.75401 2.73596 5.75417 2.52031 5.7321 2.34387L5.73168 2.34053C5.71591 2.21408 5.64407 1.63804 5.07848 1.36368C4.51165 1.08872 4.01151 1.39065 3.90331 1.45597L3.43482 1.79511C3.059 2.08975 2.54454 2.49545 2.15353 2.87588C1.95842 3.06571 1.75718 3.28297 1.59834 3.51388C1.45713 3.71914 1.25387 4.06933 1.25387 4.5C1.25387 4.93067 1.45713 5.28086 1.59834 5.48612C1.75718 5.71703 1.95842 5.93429 2.15353 6.12412C2.54454 6.50455 3.05899 6.91025 3.43482 7.20488L3.90331 7.54403C4.01152 7.60935 4.51166 7.91128 5.07848 7.63632C5.64408 7.36196 5.71591 6.78592 5.73168 6.65947L5.7321 6.65613C5.75417 6.47969 5.75401 6.26403 5.75389 6.0884L5.75387 5.50586L8.25391 5.50586Z" fill="#141B34"/>
</svg>
