<svg width="24" height="24" viewBox="0 0 24 24" fill="none" xmlns="http://www.w3.org/2000/svg">
<path fill-rule="evenodd" clip-rule="evenodd" d="M11 21.5063V22C11 22.5523 11.4477 23 12 23C12.5523 23 13 22.5523 13 22V21.5063C13.3473 21.5156 13.4577 21.5365 13.5541 21.5764C13.6951 21.6348 13.8285 21.7432 14.4643 22.379L14.7927 22.7074C15.1832 23.0979 15.8164 23.0979 16.2069 22.7074C16.5974 22.3169 16.5974 21.6837 16.2069 21.2932L15.8785 20.9647L15.7804 20.8665C15.3012 20.3858 14.8758 19.9591 14.3194 19.7286C13.9088 19.5585 13.473 19.5145 13 19.5035V17H11L11 19.5035C10.5268 19.5145 10.091 19.5585 9.68018 19.7287C9.12373 19.9592 8.69838 20.3859 8.21912 20.8667L8.21912 20.8667L8.12106 20.965L7.79285 21.2932C7.40235 21.6838 7.40239 22.3169 7.79294 22.7074C8.18349 23.0979 8.81665 23.0979 9.20715 22.7073L9.53536 22.3791C10.1711 21.7432 10.3046 21.6348 10.4456 21.5764C10.542 21.5365 10.6525 21.5156 11 21.5063Z" fill="#141B34"/>
<path d="M1.75 11.4C1.75 14.5113 1.75 16.0669 2.69805 17.0335C3.6461 18 5.17196 18 8.22368 18H15.7763C18.828 18 20.3539 18 21.302 17.0335C22.25 16.0669 22.25 14.5113 22.25 11.4V8.1C22.25 4.98873 22.25 3.4331 21.302 2.46655C20.3539 1.5 18.828 1.5 15.7763 1.5H8.22368C5.17196 1.5 3.6461 1.5 2.69805 2.46655C1.75 3.4331 1.75 4.98873 1.75 8.1V11.4Z" fill="#141B34"/>
</svg>
