<svg width="24" height="24" viewBox="0 0 24 24" fill="none" xmlns="http://www.w3.org/2000/svg">
<path d="M1.75 11.651C1.75 14.7622 1.75 16.3179 2.69805 17.2844C3.6461 18.251 5.17196 18.251 8.22368 18.251H15.7763C18.828 18.251 20.3539 18.251 21.302 17.2844C22.25 16.3179 22.25 14.7622 22.25 11.651V8.35098C22.25 5.23971 22.25 3.68407 21.302 2.71752C20.3539 1.75098 18.828 1.75098 15.7763 1.75098H8.22368C5.17196 1.75098 3.6461 1.75098 2.69805 2.71752C1.75 3.68407 1.75 5.23971 1.75 8.35098V11.651Z" fill="#141B34"/>
<path d="M11 20.7663V22C11 22.5523 11.4477 23 12 23C12.5523 23 13 22.5523 13 22V20.7661L16.4856 22.8575C16.9592 23.1416 17.5735 22.9881 17.8576 22.5145C18.1418 22.0409 17.9882 21.4267 17.5147 21.1425L13 18.4337V17H11V18.4339L6.48566 21.1425C6.01208 21.4266 5.85851 22.0409 6.14265 22.5145C6.4268 22.9881 7.04106 23.1416 7.51464 22.8575L11 20.7663Z" fill="#141B34"/>
</svg>
