<svg width="24" height="24" viewBox="0 0 24 24" fill="none" xmlns="http://www.w3.org/2000/svg">
<path fill-rule="evenodd" clip-rule="evenodd" d="M14.3717 1.755C12.9062 1.08166 11.095 1.08167 9.62951 1.755L9.11501 1.9914C7.41832 2.77096 6.25062 4.24322 6.25062 5.95612V6.1166C6.07594 6.17446 5.90467 6.23493 5.73703 6.29792C5.34929 6.4436 5.15306 6.87604 5.29874 7.26379C5.44268 7.64688 5.86651 7.84302 6.25062 7.70718V8.72517C6.25062 10.4025 6.95601 11.984 8.16212 13.0849L7.38413 15.4073L5.91797 15.8936L5.91795 15.8936C4.99195 16.2006 4.42173 16.3897 3.90905 16.6858C3.40787 16.9752 2.9533 17.3381 2.56059 17.7621C2.25094 18.0964 1.8035 18.8163 1.50777 19.8144C1.40532 20.1596 1.28351 20.57 1.25688 20.8941C1.22372 21.2976 1.30693 21.6828 1.58148 22.0482C1.87848 22.4434 2.27304 22.6155 2.68524 22.6885C3.0352 22.7504 3.46175 22.7503 3.90536 22.7502H20.0946C20.5382 22.7503 20.9648 22.7504 21.3148 22.6885C21.727 22.6155 22.1215 22.4434 22.4185 22.0482C22.6931 21.6828 22.7763 21.2976 22.7431 20.8941C22.7165 20.57 22.5947 20.1596 22.4922 19.8144C22.1965 18.8163 21.7491 18.0964 21.4394 17.7621C21.0467 17.3381 20.5921 16.9752 20.091 16.6858C19.5783 16.3897 19.008 16.2006 18.082 15.8936L16.6159 15.4073L15.8382 13.0858C17.0449 11.9848 17.7506 10.4029 17.7506 8.72517V7.70704C18.1348 7.84316 18.5589 7.64701 18.7029 7.26379C18.8486 6.87604 18.6524 6.4436 18.2646 6.29792C18.0968 6.23489 17.9254 6.17437 17.7506 6.11647V5.95612C17.7506 4.24322 16.5829 2.77096 14.8862 1.9914L14.3717 1.755ZM14.5535 13.9943L14.4504 14.0575C12.9432 14.9808 11.058 14.9808 9.55085 14.0575L9.44671 13.9937L8.85376 15.7637L9.8515 16.6307C10.4964 17.1912 10.9276 17.564 11.2881 17.8051C11.6309 18.0344 11.8298 18.0882 12 18.0882C12.1702 18.0882 12.3691 18.0344 12.7119 17.8051C13.0724 17.564 13.5036 17.1912 14.1485 16.6307L15.1462 15.7637L14.5535 13.9943ZM7.75062 8.72517V7.24458C8.98884 6.93796 10.3892 6.75973 11.878 6.75039C11.9189 6.75013 11.9598 6.75 12.0008 6.75C13.537 6.75 14.9799 6.92978 16.2506 7.24436V8.72517C16.2506 10.2623 15.4606 11.6795 14.1813 12.4633L13.6668 12.7785C12.6405 13.4072 11.3607 13.4072 10.3344 12.7785L9.81993 12.4633C8.54059 11.6795 7.75062 10.2623 7.75062 8.72517Z" fill="#141B34"/>
</svg>
