<svg width="24" height="24" viewBox="0 0 24 24" fill="none" xmlns="http://www.w3.org/2000/svg">
<path fill-rule="evenodd" clip-rule="evenodd" d="M11 2C11 1.44772 11.4477 1 12 1C18.0751 1 23 5.92487 23 12C23 18.0751 18.0751 23 12 23C5.92487 23 1 18.0751 1 12C1 11.4477 1.44772 11 2 11C2.55228 11 3 11.4477 3 12C3 16.9706 7.02944 21 12 21C16.9706 21 21 16.9706 21 12C21 7.02944 16.9706 3 12 3C11.4477 3 11 2.55228 11 2ZM9.43434 2.14361C9.63116 2.65963 9.37241 3.23751 8.85639 3.43434C8.68765 3.4987 8.52124 3.5678 8.35731 3.64149C7.85358 3.86791 7.26166 3.64311 7.03524 3.13937C6.80881 2.63564 7.03362 2.04372 7.53735 1.8173C7.73645 1.72781 7.9386 1.64386 8.14361 1.56566C8.65963 1.36883 9.23751 1.62759 9.43434 2.14361ZM5.80331 3.96469C6.1824 4.36632 6.16414 4.99922 5.76252 5.37832C5.62995 5.50345 5.50103 5.6324 5.37594 5.76499C4.99694 6.16671 4.36404 6.18514 3.96232 5.80614C3.5606 5.42715 3.54218 4.79425 3.92117 4.39253C4.07278 4.23183 4.22902 4.07555 4.38968 3.9239C4.79131 3.5448 5.42421 3.56307 5.80331 3.96469ZM3.14211 7.03001C3.64574 7.25667 3.87028 7.84868 3.64363 8.35231C3.56916 8.5178 3.49936 8.68582 3.43441 8.85621C3.23768 9.37227 2.65985 9.63114 2.14379 9.43441C1.62773 9.23768 1.36887 8.65985 1.56559 8.14379C1.64453 7.93673 1.72934 7.73257 1.81981 7.53153C2.04646 7.0279 2.63848 6.80336 3.14211 7.03001Z" fill="#141B34"/>
<path fill-rule="evenodd" clip-rule="evenodd" d="M8.29289 8.29289C8.68342 7.90237 9.31658 7.90237 9.70711 8.29289L12 10.5858L14.2929 8.29289C14.6834 7.90237 15.3166 7.90237 15.7071 8.29289C16.0976 8.68342 16.0976 9.31658 15.7071 9.70711L13.4142 12L15.7071 14.2929C16.0976 14.6834 16.0976 15.3166 15.7071 15.7071C15.3166 16.0976 14.6834 16.0976 14.2929 15.7071L12 13.4142L9.70711 15.7071C9.31658 16.0976 8.68342 16.0976 8.29289 15.7071C7.90237 15.3166 7.90237 14.6834 8.29289 14.2929L10.5858 12L8.29289 9.70711C7.90237 9.31658 7.90237 8.68342 8.29289 8.29289Z" fill="#141B34"/>
</svg>
