<svg width="24" height="24" viewBox="0 0 24 24" fill="none" xmlns="http://www.w3.org/2000/svg">
<path d="M16.11 3.88513C16.9499 4.14703 17.8163 4.68668 18.5648 5.43521C19.3133 6.18374 19.853 7.05011 20.1149 7.89005C20.1546 8.01697 20.2144 8.20823 20.237 8.38492C20.2647 8.60096 20.2473 8.80392 20.1934 9.02244C20.0712 9.51848 19.7723 9.81584 19.498 10.0887L10.0887 19.498C9.81585 19.7723 9.51849 20.0712 9.02244 20.1934C8.80392 20.2473 8.60097 20.2647 8.38492 20.237C8.20822 20.2144 8.01697 20.1546 7.89005 20.1149C7.05011 19.853 6.18374 19.3133 5.43521 18.5648C4.68668 17.8163 4.14703 16.9499 3.88513 16.11C3.84542 15.983 3.78558 15.7918 3.76298 15.6151C3.73534 15.399 3.75274 15.1961 3.80659 14.9776C3.9288 14.4815 4.22773 14.1842 4.50199 13.9113L13.9113 4.50199C14.1842 4.22773 14.4815 3.9288 14.9776 3.80659C15.1961 3.75274 15.399 3.73534 15.6151 3.76298C15.7918 3.78558 15.983 3.84542 16.11 3.88513Z" fill="#141B34"/>
<path d="M3.05195 18.0038C3.19214 17.918 3.37374 17.9668 3.46275 18.105C3.76918 18.5807 4.13635 19.0337 4.55133 19.4487C4.96628 19.8637 5.41929 20.2308 5.89492 20.5372C6.03309 20.6262 6.0819 20.8078 5.9961 20.948C5.98279 20.9698 5.96949 20.9913 5.9562 21.0127C5.69128 21.4385 5.39957 21.8389 5.1592 22.0792C4.26491 22.9735 2.815 22.9735 1.92071 22.0792C1.02643 21.1849 1.02643 19.735 1.92071 18.8407C2.16108 18.6004 2.5614 18.3087 2.98727 18.0437C3.00864 18.0304 3.0302 18.0171 3.05195 18.0038Z" fill="#141B34"/>
<path d="M18.0048 3.05218C17.919 3.19236 17.9678 3.37395 18.1059 3.46296C18.5815 3.76935 19.0344 4.13645 19.4493 4.55133C19.8643 4.96634 20.2315 5.41942 20.538 5.89513C20.627 6.0333 20.8086 6.08211 20.9488 5.99632C20.9706 5.98294 20.9923 5.96957 21.0138 5.9562C21.4396 5.69128 21.8399 5.39957 22.0803 5.1592C22.9746 4.26491 22.9746 2.815 22.0803 1.92071C21.186 1.02643 19.7361 1.02643 18.8418 1.92071C18.6015 2.16108 18.3098 2.5614 18.0448 2.98727C18.0315 3.00871 18.0181 3.03036 18.0048 3.05218Z" fill="#141B34"/>
</svg>
