<svg width="24" height="24" viewBox="0 0 24 24" fill="none" xmlns="http://www.w3.org/2000/svg">
<path fill-rule="evenodd" clip-rule="evenodd" d="M12 1.25C6.06294 1.25 1.25 6.06294 1.25 12C1.25 17.9371 6.06294 22.75 12 22.75C17.9371 22.75 22.75 17.9371 22.75 12C22.75 6.06294 17.9371 1.25 12 1.25ZM12.3554 9.49976H17.5001C18.0524 9.49976 18.5001 9.05205 18.5001 8.49976C18.5001 7.94748 18.0524 7.49976 17.5001 7.49976L12.3401 7.49976C12.0672 7.49966 11.5763 7.49948 11.1546 7.76488C10.6601 8.07606 10.4898 8.58173 10.4002 8.93726L9.22171 13.6114L8.8765 12.9083C8.78421 12.7199 8.67196 12.4909 8.5455 12.3082C8.38703 12.0793 8.1303 11.8069 7.71045 11.6924C7.20696 11.555 6.76902 11.7104 6.52029 11.827C6.31435 11.9236 6.06329 12.0897 5.95918 12.1587C5.49467 12.4575 5.36031 13.0762 5.65906 13.5407C5.95782 14.0052 6.57656 14.1396 7.04107 13.8408C7.26998 14.3073 7.863 15.3825 8.07619 15.6969C8.27207 15.9857 8.72053 16.5573 9.49618 16.4954C10.2957 16.4316 10.6326 15.7667 10.7665 15.4432C10.9102 15.096 11.0294 14.623 11.1533 14.1311L12.3554 9.49976ZM14.0112 12.4998C14.103 12.4998 14.2624 12.501 14.2624 12.501L14.4246 12.8749C14.2909 13.0526 14.1701 13.1991 14.05 13.3168C13.8951 13.4687 13.8173 13.4958 13.8003 13.4998C13.2495 13.5015 12.8036 13.9486 12.8036 14.4998C12.8036 15.052 13.2513 15.4998 13.8036 15.4998C14.471 15.4998 14.985 15.1712 15.3479 14.8415C15.4041 14.9136 15.4675 14.9831 15.5395 15.0469C15.6962 15.1856 15.8748 15.2933 16.0643 15.3687C16.4035 15.5036 16.8551 15.5012 17.1251 15.4998C17.6774 15.4998 18.1251 15.052 18.1251 14.4998C18.1251 13.9475 17.6774 13.4998 17.1251 13.4998C17.0332 13.4998 16.8738 13.4985 16.8738 13.4985L16.7117 13.1246C16.8453 12.947 16.9662 12.8004 17.0862 12.6827C17.2412 12.5308 17.319 12.5037 17.336 12.4998C17.8868 12.498 18.3327 12.051 18.3327 11.4998C18.3327 10.9475 17.885 10.4998 17.3327 10.4998C16.6652 10.4998 16.1512 10.8283 15.7883 11.158C15.7322 11.086 15.6688 11.0164 15.5968 10.9527C15.4401 10.8139 15.2615 10.7062 15.072 10.6308C14.7328 10.496 14.2812 10.4983 14.0112 10.4998C13.4589 10.4998 13.0112 10.9475 13.0112 11.4998C13.0112 12.052 13.4589 12.4998 14.0112 12.4998Z" fill="#141B34"/>
</svg>
