<svg width="24" height="24" viewBox="0 0 24 24" fill="none" xmlns="http://www.w3.org/2000/svg">
<path fill-rule="evenodd" clip-rule="evenodd" d="M12.0452 1.25C13.8818 1.24999 15.3214 1.24999 16.4635 1.37373C17.6291 1.50001 18.5734 1.76232 19.3798 2.34815C19.8679 2.70281 20.2972 3.13209 20.6518 3.62024C21.2377 4.42656 21.5 5.37094 21.6263 6.53648C21.75 7.67859 21.75 9.11816 21.75 10.9547V10.9547V13.0453V13.0453C21.75 14.8818 21.75 16.3214 21.6263 17.4635C21.5 18.6291 21.2377 19.5734 20.6518 20.3798C20.2972 20.8679 19.8679 21.2972 19.3798 21.6518C18.5734 22.2377 17.6291 22.5 16.4635 22.6263C15.3214 22.75 13.8818 22.75 12.0453 22.75H12.0453H11.9547H11.9547C10.1182 22.75 8.67859 22.75 7.53648 22.6263C6.37094 22.5 5.42656 22.2377 4.62024 21.6518C4.13209 21.2972 3.70281 20.8679 3.34815 20.3798C2.76232 19.5734 2.50001 18.6291 2.37373 17.4635C2.24999 16.3214 2.24999 14.8818 2.25 13.0452V10.9548C2.24999 9.11821 2.24999 7.67861 2.37373 6.53648C2.50001 5.37094 2.76232 4.42656 3.34815 3.62024C3.70281 3.13209 4.13209 2.70281 4.62024 2.34815C5.42656 1.76232 6.37094 1.50001 7.53648 1.37373C8.67861 1.24999 10.1182 1.24999 11.9548 1.25H12.0452ZM12 6C11.3564 6 10.7513 6.375 10.4884 6.98843L8.08087 12.6061C7.86331 13.1137 8.09846 13.7016 8.60609 13.9191C9.11372 14.1367 9.7016 13.9015 9.91916 13.3939L10.5166 12H13.4835L14.0809 13.3939C14.2984 13.9015 14.8863 14.1367 15.3939 13.9191C15.9016 13.7016 16.1367 13.1137 15.9192 12.6061L13.5116 6.98843C13.2487 6.375 12.6436 6 12 6ZM11.3737 9.99998L12 8.53857L12.6264 9.99998H11.3737ZM8 16C7.44772 16 7 16.4477 7 17C7 17.5523 7.44772 18 8 18H16C16.5523 18 17 17.5523 17 17C17 16.4477 16.5523 16 16 16H8Z" fill="#141B34"/>
</svg>
