<svg width="24" height="24" viewBox="0 0 24 24" fill="none" xmlns="http://www.w3.org/2000/svg">
<path fill-rule="evenodd" clip-rule="evenodd" d="M1.96919 11.2509C2.38306 11.2339 2.73236 11.5556 2.74938 11.9694C2.8103 13.4508 3.32636 15.6657 4.65014 17.5555C5.80638 19.2061 7.5845 20.6219 10.2762 21.0959L9.71458 20.5496C9.41764 20.2608 9.41105 19.786 9.69984 19.4891C9.98864 19.1921 10.4635 19.1855 10.7604 19.4743L12.1167 20.7934C12.1253 20.8018 12.1341 20.8104 12.1431 20.8191C12.2699 20.9422 12.4198 21.0878 12.5228 21.223C12.6179 21.3479 12.89 21.7439 12.665 22.2195C12.4475 22.6789 11.9892 22.7346 11.8309 22.7458C11.6621 22.7578 11.4554 22.7421 11.2797 22.7287C11.2675 22.7278 11.2554 22.7268 11.2435 22.7259C7.44722 22.4395 4.95874 20.6105 3.42157 18.4161C1.90381 16.2493 1.32106 13.7432 1.25065 12.0311C1.23362 11.6172 1.55533 11.2679 1.96919 11.2509Z" fill="#141B34"/>
<path fill-rule="evenodd" clip-rule="evenodd" d="M22.0308 12.7494C21.6169 12.7664 21.2676 12.4447 21.2506 12.0308C21.1897 10.5495 20.6736 8.33458 19.3499 6.44475C18.1936 4.7941 16.4155 3.37835 13.7238 2.90436L14.2854 3.45063C14.5824 3.73942 14.589 4.21425 14.3002 4.51119C14.0114 4.80812 13.5365 4.81472 13.2396 4.52592L11.8833 3.20683C11.8747 3.1984 11.8659 3.18984 11.8569 3.18118C11.7301 3.05802 11.5802 2.91245 11.4772 2.77722C11.3821 2.65239 11.11 2.25633 11.335 1.78075C11.5525 1.32138 12.0108 1.26566 12.1691 1.25442C12.3379 1.24243 12.5446 1.25818 12.7203 1.27155C12.7325 1.27249 12.7446 1.27341 12.7565 1.2743C16.5528 1.5607 19.0413 3.3897 20.5784 5.58416C22.0962 7.75092 22.6789 10.257 22.7494 11.9692C22.7664 12.383 22.4447 12.7323 22.0308 12.7494Z" fill="#141B34"/>
<path d="M8.83336 5.62077C9.3461 5.23772 9.89417 4.97717 10.5609 5.00186C11.2164 5.02614 11.7609 5.31827 12.2808 5.72276C12.7785 6.10998 13.3371 6.66866 14.0132 7.34477L14.0132 7.3448L16.6554 9.98699L16.6555 9.987C17.3316 10.6631 17.8903 11.2217 18.2775 11.7194C18.682 12.2393 18.9741 12.7838 18.9984 13.4394C19.0231 14.1061 18.7625 14.6541 18.3795 15.1669C18.0214 15.6462 17.4958 16.1717 16.8738 16.7937L16.8738 16.7937L16.7935 16.874L16.7935 16.874C16.1715 17.4961 15.6459 18.0217 15.1666 18.3797C14.6539 18.7628 14.1058 19.0233 13.4391 18.9986C12.7836 18.9743 12.2391 18.6822 11.7192 18.2777C11.2215 17.8905 10.6628 17.3318 9.98675 16.6557L7.34454 14.0135C6.66842 13.3374 6.10974 12.7787 5.72252 12.281C5.31802 11.7611 5.0259 11.2167 5.00162 10.5611C4.97692 9.89441 5.23748 9.34635 5.62052 8.8336C5.97858 8.35431 6.5042 7.82873 7.12627 7.20672L7.16637 7.16662L7.20648 7.12651L7.20648 7.12651C7.82849 6.50444 8.35407 5.97882 8.83336 5.62077Z" fill="#141B34"/>
</svg>
