<svg width="24" height="24" viewBox="0 0 24 24" fill="none" xmlns="http://www.w3.org/2000/svg">
<path d="M11.999 9.25C13.5178 9.25 14.749 10.4812 14.749 12C14.749 13.5188 13.5178 14.75 11.999 14.75C10.4802 14.75 9.24902 13.5188 9.24902 12C9.24902 10.4812 10.4802 9.25 11.999 9.25Z" fill="#141B34"/>
<path d="M16.1729 16.7326C15.9968 16.7031 15.7447 16.6176 15.5578 16.3802C15.2123 15.9411 15.2321 15.3954 15.2946 15.0203C15.3622 14.6148 15.5174 14.1883 15.6815 13.8077C15.8485 13.4202 16.4747 12.1536 16.64 11.8379C16.1738 10.9234 15.7042 9.9761 15.4869 9.41617C15.3774 9.13384 15.2876 8.84676 15.2594 8.57361C15.2306 8.29517 15.2583 7.94978 15.4812 7.64427C15.6628 7.39536 15.9178 7.3035 16.0941 7.27086C16.2694 7.2384 16.4402 7.24892 16.578 7.26807C16.8566 7.30678 17.1699 7.40625 17.4781 7.52724C18.1056 7.77361 18.8673 8.17178 19.599 8.624C20.3312 9.07644 21.0659 9.60312 21.6304 10.1186C21.9115 10.3754 22.169 10.6461 22.3633 10.9186C22.5446 11.1729 22.7369 11.5187 22.7485 11.9106C22.7603 12.3126 22.5815 12.6727 22.4067 12.9387C22.2205 13.222 21.969 13.5029 21.6934 13.7685C21.14 14.3017 20.4122 14.8464 19.6843 15.3148C18.9566 15.7831 18.1956 16.1964 17.5651 16.4542C17.2553 16.5809 16.9402 16.6855 16.6589 16.7283C16.5194 16.7495 16.3486 16.7621 16.1729 16.7326Z" fill="#141B34"/>
<path d="M7.82705 16.7326C8.0032 16.7031 8.25528 16.6176 8.44215 16.3802C8.78767 15.9411 8.76791 15.3954 8.70538 15.0203C8.63777 14.6148 8.48257 14.1883 8.31852 13.8077C8.15153 13.4202 7.52527 12.1536 7.36001 11.8379C7.82623 10.9234 8.29576 9.9761 8.51307 9.41617C8.62264 9.13384 8.71236 8.84676 8.74059 8.57361C8.76937 8.29517 8.74172 7.94978 8.51879 7.64427C8.33715 7.39536 8.08216 7.3035 7.90586 7.27086C7.73056 7.2384 7.55978 7.24891 7.42199 7.26807C7.14341 7.30678 6.83009 7.40625 6.5219 7.52724C5.89437 7.77361 5.13269 8.17178 4.40096 8.624C3.66885 9.07644 2.93409 9.60312 2.36965 10.1186C2.08848 10.3754 1.83101 10.6461 1.63669 10.9186C1.45538 11.1729 1.2631 11.5187 1.25154 11.9106C1.23967 12.3126 1.41855 12.6727 1.59332 12.9387C1.77949 13.222 2.031 13.5029 2.30661 13.7685C2.85997 14.3017 3.58783 14.8464 4.31565 15.3148C5.04342 15.7831 5.80444 16.1964 6.43487 16.4542C6.74473 16.5809 7.0598 16.6855 7.34113 16.7283C7.48055 16.7495 7.65145 16.7621 7.82705 16.7326Z" fill="#141B34"/>
</svg>
