<svg width="24" height="24" viewBox="0 0 24 24" fill="none" xmlns="http://www.w3.org/2000/svg">
<path fill-rule="evenodd" clip-rule="evenodd" d="M12.0197 2.89023C12.0803 3.43917 11.6845 3.93336 11.1356 3.99403C7.1221 4.43763 4 7.84133 4 11.9725C4 16.4059 7.59453 20.0001 12.0289 20.0001C16.1536 20.0001 19.5528 16.8896 20.0064 12.8875C20.0685 12.3387 20.5638 11.9443 21.1126 12.0064C21.6614 12.0686 22.0558 12.5639 21.9936 13.1127C21.4268 18.1145 17.1823 22.0001 12.0289 22.0001C6.49024 22.0001 2 17.5107 2 11.9725C2 6.81028 5.9005 2.56047 10.9159 2.00614C11.4648 1.94547 11.959 2.34129 12.0197 2.89023Z" fill="#141B34"/>
<path fill-rule="evenodd" clip-rule="evenodd" d="M19.6081 3.03365C20.2431 3.57396 21.1096 4.34021 21.5887 4.90786C21.8534 5.22146 22.0164 5.6244 21.9981 6.06623C21.9818 6.45914 21.8247 6.81172 21.5885 7.09154C21.1094 7.65886 20.2432 8.425 19.6084 8.96542C19.431 9.11635 19.2098 9.30832 19.0063 9.43458C18.8059 9.55886 18.3173 9.8126 17.7543 9.55248C17.1881 9.29093 17.0667 8.74933 17.0323 8.51915C16.9991 8.29741 16.9993 8.02612 16.9995 7.79902C16.9997 7.54742 16.9995 7.29582 16.9995 7.04423C16.5298 7.05965 16.1128 7.08456 15.7364 7.1242C14.7227 7.23093 14.1227 7.43514 13.6649 7.76421C13.3157 8.0152 13.0093 8.32084 12.7574 8.66938C12.4272 9.12637 12.2215 9.72583 12.1122 10.7393C12.0009 11.7712 11.9995 13.1091 11.9995 14.9996C11.9995 15.5518 11.5518 15.9996 10.9995 15.9996C10.4472 15.9996 9.9995 15.5518 9.9995 14.9996C9.99949 13.511 9.9638 12.0072 10.1237 10.5248C10.2512 9.34221 10.5192 8.35201 11.1364 7.49797C11.5142 6.97516 11.9738 6.51669 12.4976 6.14021C13.3532 5.52522 14.344 5.25975 15.527 5.13519C15.9724 5.08829 16.4617 5.06007 16.9995 5.04337C16.9995 4.76232 16.9997 4.48127 16.9995 4.20022C16.9993 3.97318 16.9991 3.70193 17.0323 3.48022C17.0667 3.25001 17.1882 2.70854 17.7542 2.44698C18.3171 2.18687 18.8057 2.44043 19.0061 2.56469C19.2096 2.69089 19.4308 2.8828 19.6081 3.03365Z" fill="#141B34"/>
</svg>
