<svg width="24" height="24" viewBox="0 0 24 24" fill="none" xmlns="http://www.w3.org/2000/svg">
<path fill-rule="evenodd" clip-rule="evenodd" d="M9.95957 4.28762C10.1183 3.75863 10.6758 3.45845 11.2047 3.61714L17.3724 5.46745C17.9014 5.62615 18.2016 6.18363 18.0429 6.71262C17.8842 7.24162 17.3267 7.5418 16.7977 7.3831L10.6301 5.5328C10.1011 5.3741 9.80088 4.81662 9.95957 4.28762ZM8.66472 4.94238C9.18483 5.12813 9.45588 5.70035 9.27013 6.22046L5.61584 16.4525C5.43009 16.9726 4.85787 17.2436 4.33776 17.0579C3.81765 16.8721 3.54661 16.2999 3.73236 15.7798L7.38665 5.54778C7.5724 5.02767 8.14462 4.75662 8.66472 4.94238ZM19.0779 7.99727C19.6286 7.95492 20.1093 8.36697 20.1517 8.91763L20.8449 17.9292C20.8873 18.4799 20.4752 18.9606 19.9245 19.003C19.3739 19.0453 18.8931 18.6333 18.8508 18.0826L18.1576 9.07102C18.1152 8.52037 18.5273 8.03963 19.0779 7.99727ZM4.99373 18.1242C5.06223 17.5762 5.56202 17.1874 6.11004 17.2559L18.1405 18.7598C18.6885 18.8283 19.0773 19.328 19.0088 19.8761C18.9403 20.4241 18.4405 20.8128 17.8924 20.7443L5.86197 19.2405C5.31395 19.172 4.92523 18.6722 4.99373 18.1242Z" fill="#141B34"/>
<path d="M6.25 4C6.25 2.48122 7.48122 1.25 9 1.25C10.5188 1.25 11.75 2.48122 11.75 4C11.75 5.51878 10.5188 6.75 9 6.75C7.48122 6.75 6.25 5.51878 6.25 4Z" fill="#141B34"/>
<path d="M16.25 7C16.25 5.48122 17.4812 4.25 19 4.25C20.5188 4.25 21.75 5.48122 21.75 7C21.75 8.51878 20.5188 9.75 19 9.75C17.4812 9.75 16.25 8.51878 16.25 7Z" fill="#141B34"/>
<path d="M17.25 20C17.25 18.4812 18.4812 17.25 20 17.25C21.5188 17.25 22.75 18.4812 22.75 20C22.75 21.5188 21.5188 22.75 20 22.75C18.4812 22.75 17.25 21.5188 17.25 20Z" fill="#141B34"/>
<path d="M1.25 18C1.25 16.4812 2.48122 15.25 4 15.25C5.51878 15.25 6.75 16.4812 6.75 18C6.75 19.5188 5.51878 20.75 4 20.75C2.48122 20.75 1.25 19.5188 1.25 18Z" fill="#141B34"/>
</svg>
