<svg width="24" height="24" viewBox="0 0 24 24" fill="none" xmlns="http://www.w3.org/2000/svg">
<path fill-rule="evenodd" clip-rule="evenodd" d="M11.1603 1.25098C5.82745 1.25098 1.25 4.84686 1.25 9.56789C1.25 11.1407 1.94189 12.9537 3.02491 14.389C4.10578 15.8215 5.68404 17.0145 7.54646 17.1097C8.32884 17.1497 9.02278 16.9034 9.61981 16.5927C9.64457 16.5799 9.65695 16.5734 9.66955 16.5652C9.68214 16.5569 9.69384 16.5475 9.71724 16.5285C10.2519 16.096 11.3253 15.2747 11.6857 15.1766C12.6711 14.8109 13.5625 15.1266 14.1288 15.3272C14.7127 15.5323 15.0619 15.6263 15.538 15.4182C15.718 15.3395 15.9064 15.2163 16.1251 15.0503L16.8202 14.5063C17.1526 14.2592 17.6224 14.3283 17.8695 14.6607C18.1167 14.9931 18.0475 15.463 17.7151 15.7101L17.0319 16.2452C16.7799 16.4365 16.4806 16.6432 16.1387 16.7926C15.0884 17.2517 14.2386 16.9556 13.6317 16.7425C13.0418 16.5353 12.7042 16.4238 12.278 16.5587C12.2488 16.5679 12.2342 16.5725 12.2141 16.5824C12.194 16.5922 12.1783 16.6031 12.1469 16.6247C11.889 16.8028 11.2312 17.2607 11.228 17.2629C11.2279 17.263 11.228 17.263 11.2279 17.263C11.2249 17.2653 11.2236 17.269 11.2244 17.2725C11.3172 17.7023 11.4322 18.1448 11.5743 18.5597C11.7687 19.1267 12.0383 19.717 12.4286 20.1395C12.7561 20.4941 13.146 20.7427 13.6109 20.9685C14.0582 21.1857 14.621 21.4026 15.3129 21.6694L15.3428 21.6809C15.4931 21.7389 15.6739 21.8155 15.8758 21.9012L15.8758 21.9012L15.8759 21.9012C16.4619 22.1498 17.2259 22.4739 17.9392 22.6342C18.9357 22.8581 20.1831 22.85 21.0391 21.7437C21.313 21.3897 21.4736 20.9862 21.5595 20.568C21.6073 20.3356 21.6312 20.2194 21.5639 20.1161C21.4966 20.0127 21.3638 19.9839 21.0982 19.9262C20.7768 19.8565 20.5013 19.7836 20.3172 19.7295C20.3026 19.7252 20.2888 19.7211 20.2652 19.7134C20.2433 19.7063 20.2322 19.7024 20.2186 19.6975C20.0735 19.6456 19.534 19.4416 18.9895 19.0758C18.6456 18.8448 18.5541 18.3788 18.7851 18.035C19.0161 17.6912 19.482 17.5997 19.8259 17.8306C20.2223 18.0969 20.63 18.2516 20.7238 18.2852L20.726 18.286L20.7296 18.2872L20.7331 18.2883L20.7343 18.2886L20.7405 18.2905C21.0737 18.3885 21.2404 18.4375 21.3617 18.3432C21.3738 18.3338 21.3875 18.3212 21.398 18.3099C21.5022 18.1971 21.4667 18.0227 21.3957 17.674C21.3639 17.5175 21.3313 17.3649 21.2997 17.2178C21.1477 16.4296 21.134 16.1653 21.1583 16.0124C21.1639 15.9775 21.1667 15.96 21.1839 15.9225C21.2012 15.885 21.2159 15.8677 21.2454 15.833C21.3549 15.7043 21.5141 15.5548 21.6835 15.418C21.9268 15.2214 22.155 15.0371 22.3195 14.8721C22.4753 14.7158 22.7275 14.4329 22.7486 14.0255C22.7686 13.6384 22.5784 13.3477 22.4377 13.1696C22.3033 12.9994 22.1144 12.8123 21.9237 12.6234L20.6166 11.3277C20.4546 11.167 20.3736 11.0867 20.3594 10.9867C20.3453 10.8867 20.4047 10.7804 20.5234 10.5677C20.8825 9.92429 21.1294 9.18282 20.9392 8.20932C20.1498 4.16857 15.9808 1.25098 11.1603 1.25098ZM7.71304 7.76801C7.58427 7.37433 7.16073 7.15957 6.76704 7.28834C6.37335 7.41712 6.15859 7.84066 6.28737 8.23434C7.03698 10.5261 8.64907 11.4684 10.0908 11.7275C10.5579 11.8114 10.9639 11.663 11.266 11.4554C11.5588 11.2542 11.7815 10.9818 11.9401 10.732C12.2171 10.2957 12.6899 10.0436 13.1727 9.90476C13.4068 9.83744 13.7617 9.77025 14.0032 9.77025C14.416 9.76864 14.7502 9.43347 14.7502 9.02025C14.7502 8.60604 14.4144 8.27025 14.0002 8.27025C13.586 8.27025 13.0934 8.36678 12.7582 8.46317C12.1022 8.65177 11.2284 9.05451 10.6738 9.92788C10.6172 10.0171 10.5605 10.1012 10.4925 10.164C10.463 10.1913 10.4483 10.205 10.3766 10.2241C10.3049 10.2433 10.2683 10.235 10.1953 10.2184C9.26707 10.0073 8.23965 9.37799 7.71304 7.76801Z" fill="#141B34"/>
</svg>
