<svg width="24" height="24" viewBox="0 0 24 24" fill="none" xmlns="http://www.w3.org/2000/svg">
<path fill-rule="evenodd" clip-rule="evenodd" d="M10.0278 6.00375C9.5183 6.01052 9.06361 6.02942 8.67146 6.08215C8.38368 6.12084 8.10113 6.18085 7.83156 6.27913C8.10749 5.61361 8.3438 4.9052 8.34366 4.19654C8.34358 3.77216 8.3435 3.35983 8.38919 3.0198C8.44068 2.63658 8.56614 2.19911 8.92945 1.8358C9.29267 1.47258 9.72994 1.34706 10.1131 1.29554C10.4531 1.24984 10.8652 1.24992 11.2893 1.25001H12.7096C13.1337 1.24992 13.5458 1.24984 13.8858 1.29554C14.269 1.34706 14.7062 1.47258 15.0694 1.8358C15.4328 2.19911 15.5582 2.63658 15.6097 3.0198C15.6554 3.35983 15.6553 3.77216 15.6552 4.19654C15.6551 4.90527 15.8915 5.61373 16.1674 6.2793C15.8977 6.18092 15.615 6.12086 15.327 6.08215C14.935 6.02944 14.4804 6.01053 13.9711 6.00376C13.8365 5.51947 13.7166 4.95359 13.6596 4.34403C13.6596 4.28658 13.6624 4.2244 13.6654 4.15984C13.6778 3.89127 13.692 3.58147 13.51 3.39939C13.3651 3.25447 13.1987 3.25323 12.8659 3.25074C12.8003 3.25025 12.7302 3.25001 12.6552 3.25001H11.3437C11.2687 3.25001 11.1987 3.25025 11.1331 3.25074C10.8002 3.25323 10.6338 3.25447 10.4889 3.39939C10.3069 3.58146 10.3211 3.89127 10.3335 4.15983V4.15984C10.3365 4.2244 10.3393 4.28658 10.3393 4.34403C10.2823 4.95359 10.1624 5.51946 10.0278 6.00375ZM13.9713 17.9962C14.4805 17.9895 14.935 17.9706 15.327 17.9179C15.6162 17.879 15.9001 17.8186 16.1708 17.7195C16.1362 17.8051 16.1038 17.8889 16.0784 17.9608C15.9082 18.4424 15.7262 19.0914 15.6552 19.7978L15.6554 19.9205V19.9206C15.6561 20.2741 15.6568 20.6302 15.6097 20.9806C15.5582 21.3639 15.4328 21.8013 15.0694 22.1646C14.7062 22.5279 14.269 22.6534 13.8858 22.7049C13.5458 22.7506 13.1337 22.7505 12.7096 22.7504H11.2893C10.8652 22.7505 10.4531 22.7506 10.1131 22.7049C9.72994 22.6534 9.29267 22.5279 8.92945 22.1646C8.56614 21.8013 8.44068 21.3639 8.38919 20.9806C8.3435 20.6406 8.34358 20.2283 8.34366 19.8039C8.34378 19.1972 8.12091 18.5278 7.92052 17.9608C7.89513 17.8889 7.86271 17.8053 7.82812 17.7196C8.09873 17.8186 8.38245 17.879 8.67146 17.9179C9.06358 17.9706 9.51823 17.9895 10.0276 17.9963C10.1623 18.4806 10.2823 19.0467 10.3393 19.6564C10.3393 19.7139 10.3365 19.7761 10.3335 19.8406C10.3211 20.1092 10.3069 20.419 10.4889 20.6011C10.6338 20.746 10.8002 20.7472 11.1331 20.7497C11.1987 20.7502 11.2687 20.7504 11.3437 20.7504H12.6552C12.7302 20.7504 12.8003 20.7502 12.8659 20.7497C13.1987 20.7472 13.3651 20.746 13.51 20.6011C13.692 20.419 13.6778 20.1092 13.6654 19.8406C13.6624 19.7761 13.6596 19.7139 13.6596 19.6564C13.7166 19.0467 13.8366 18.4806 13.9713 17.9962Z" fill="#141B34"/>
<path d="M10.9342 6L11 6H13L13.0658 6C13.9523 5.99995 14.7161 5.99991 15.3278 6.08215C15.9833 6.17028 16.6117 6.36902 17.1213 6.87868C17.631 7.38835 17.8297 8.0167 17.9179 8.67221C18.0001 9.28387 18.0001 10.0477 18 10.9342V13.0658C18.0001 13.9523 18.0001 14.7161 17.9179 15.3278C17.8297 15.9833 17.631 16.6117 17.1213 17.1213C16.6117 17.631 15.9833 17.8297 15.3278 17.9179C14.7161 18.0001 13.9523 18.0001 13.0658 18H10.9342C10.0477 18.0001 9.28387 18.0001 8.67221 17.9179C8.0167 17.8297 7.38835 17.631 6.87868 17.1213C6.36902 16.6117 6.17028 15.9833 6.08215 15.3278C5.99991 14.7161 5.99995 13.9523 6 13.0658L6 13V11L6 10.9342C5.99995 10.0477 5.99991 9.28387 6.08215 8.67221C6.17028 8.0167 6.36902 7.38835 6.87868 6.87868C7.38835 6.36902 8.0167 6.17028 8.67221 6.08215C9.28387 5.99991 10.0477 5.99995 10.9342 6Z" fill="#141B34"/>
</svg>
