<svg width="24" height="24" viewBox="0 0 24 24" fill="none" xmlns="http://www.w3.org/2000/svg">
<path fill-rule="evenodd" clip-rule="evenodd" d="M13.0729 3.32761C13.024 3.57669 13 3.94038 13 4.47332V7.125C13 7.67728 12.5523 8.125 12 8.125C11.4477 8.125 11 7.67728 11 7.125V4.47332C11 3.9124 11.0227 3.38959 11.1102 2.94286C11.197 2.50018 11.3708 2.00649 11.774 1.63433C12.1979 1.24303 12.7214 1.12494 13.2111 1.125C13.6826 1.12505 14.2088 1.23323 14.767 1.38989L18.2702 2.37315C18.802 2.5224 19.112 3.07444 18.9628 3.60618C18.8136 4.13792 18.2615 4.44799 17.7298 4.29875L14.2265 3.31549C13.7232 3.17421 13.4065 3.12502 13.2108 3.125C13.0891 3.12499 13.0951 3.21413 13.0729 3.32761Z" fill="#141B34"/>
<path fill-rule="evenodd" clip-rule="evenodd" d="M4 7.125C4 6.57272 4.44772 6.125 5 6.125H19C19.5523 6.125 20 6.57272 20 7.125C20 7.67728 19.5523 8.125 19 8.125H5C4.44772 8.125 4 7.67728 4 7.125Z" fill="#141B34"/>
<path d="M17.3263 20.4075C17.4519 19.8769 17.5203 19.2072 17.6016 18.411L17.7135 17.3156C17.7345 17.1098 17.745 17.0069 17.6854 16.941C17.6259 16.875 17.5224 16.875 17.3155 16.875H6.68507C6.47818 16.875 6.37474 16.875 6.31518 16.941C6.25561 17.0069 6.26612 17.1098 6.28714 17.3156L6.39901 18.411C6.48029 19.2072 6.54867 19.8769 6.6743 20.4075C6.80779 20.9712 7.0259 21.4733 7.47086 21.8676C7.71578 22.0846 8.0283 22.2396 8.3378 22.3552C8.65609 22.4741 9.01899 22.5687 9.4017 22.643C10.1673 22.7915 11.0654 22.8684 11.955 22.8746C12.8443 22.8808 13.7511 22.8164 14.5333 22.6707C15.2764 22.5322 16.0451 22.2971 16.5298 21.8676C16.9747 21.4733 17.1928 20.9712 17.3263 20.4075Z" fill="#141B34"/>
<path d="M6.45018 15.375C6.27848 15.375 6.19263 15.375 6.13552 15.3234C6.07842 15.2719 6.0697 15.1865 6.05225 15.0156L5.87864 13.3156C5.85762 13.1098 5.84711 13.0069 5.90667 12.941C5.96623 12.875 6.06968 12.875 6.27657 12.875H17.724C17.9309 12.875 18.0344 12.875 18.0939 12.941C18.1535 13.0069 18.143 13.1098 18.122 13.3156L17.9484 15.0156C17.9309 15.1865 17.9222 15.2719 17.8651 15.3234C17.808 15.375 17.7221 15.375 17.5504 15.375H6.45018Z" fill="#141B34"/>
<path d="M18.3569 11.0156C18.3394 11.1865 18.3307 11.2719 18.2736 11.3234C18.2165 11.375 18.1306 11.375 17.9589 11.375H6.04167C5.86997 11.375 5.78412 11.375 5.72701 11.3234C5.66991 11.2719 5.66119 11.1865 5.64374 11.0156L5.21481 6.81564C5.19379 6.60982 5.18328 6.50691 5.24284 6.44096C5.30241 6.375 5.40585 6.375 5.61274 6.375H18.3879C18.5948 6.375 18.6982 6.375 18.7578 6.44096C18.8173 6.50691 18.8068 6.60982 18.7858 6.81564L18.3569 11.0156Z" fill="#141B34"/>
</svg>
