<svg width="24" height="24" viewBox="0 0 24 24" fill="none" xmlns="http://www.w3.org/2000/svg">
<path fill-rule="evenodd" clip-rule="evenodd" d="M17.312 1.93059C15.9686 1.74998 14.2479 1.74999 12.0572 1.75H11.9428C9.75212 1.74999 8.03144 1.74998 6.68802 1.93059C5.31137 2.11568 4.21911 2.50272 3.36091 3.36091C2.50272 4.21911 2.11568 5.31137 1.93059 6.68802C1.74998 8.03144 1.74999 9.75212 1.75 11.9428V12.0572C1.74999 14.2479 1.74998 15.9686 1.93059 17.312C2.11568 18.6886 2.50272 19.7809 3.36091 20.6391C4.21911 21.4973 5.31137 21.8843 6.68802 22.0694C8.03144 22.25 9.7521 22.25 11.9428 22.25H11.9428H12.0572H12.0572C14.2479 22.25 15.9686 22.25 17.312 22.0694C18.6886 21.8843 19.7809 21.4973 20.6391 20.6391C21.4973 19.7809 21.8843 18.6886 22.0694 17.312C22.25 15.9686 22.25 14.2479 22.25 12.0572V12.0572V11.9428V11.9428C22.25 9.7521 22.25 8.03144 22.0694 6.68802C21.8843 5.31137 21.4973 4.21911 20.6391 3.36091C19.7809 2.50272 18.6886 2.11568 17.312 1.93059ZM11.3421 8C11.3421 7.62668 11.1341 7.28444 10.8028 7.11245C10.4714 6.94046 10.0719 6.96735 9.76656 7.1822L6.92446 9.1822C6.56788 9.43312 6.41499 9.88615 6.54659 10.3018C6.67818 10.7175 7.06394 11 7.49995 11H16.4999C17.0522 11 17.4999 10.5523 17.4999 10C17.4999 9.44772 17.0522 9 16.4999 9H11.3421V8ZM7.97363 13C7.42135 13 6.97363 13.4477 6.97363 14C6.97363 14.5523 7.42135 15 7.97363 15H13.1315V16C13.1315 16.3892 13.3573 16.743 13.7103 16.907C14.0633 17.0709 14.4794 17.0151 14.7767 16.764L17.1451 14.764C17.4659 14.4932 17.5833 14.0508 17.4391 13.6565C17.2949 13.2622 16.9198 13 16.4999 13H7.97363Z" fill="#141B34"/>
</svg>
