<svg width="24" height="24" viewBox="0 0 24 24" fill="none" xmlns="http://www.w3.org/2000/svg">
<path fill-rule="evenodd" clip-rule="evenodd" d="M17.312 1.93059C15.9686 1.74998 14.2479 1.74999 12.0572 1.75H11.9428C9.75212 1.74999 8.03144 1.74998 6.68802 1.93059C5.31137 2.11568 4.21911 2.50272 3.36091 3.36091C2.50272 4.21911 2.11568 5.31137 1.93059 6.68802C1.74998 8.03144 1.74999 9.75212 1.75 11.9428V12.0572C1.74999 14.2479 1.74998 15.9686 1.93059 17.312C2.11568 18.6886 2.50272 19.7809 3.36091 20.6391C4.21911 21.4973 5.31137 21.8843 6.68802 22.0694C8.03144 22.25 9.7521 22.25 11.9428 22.25H11.9428H12.0572H12.0572C14.2479 22.25 15.9686 22.25 17.312 22.0694C18.6886 21.8843 19.7809 21.4973 20.6391 20.6391C21.4973 19.7809 21.8843 18.6886 22.0694 17.312C22.25 15.9686 22.25 14.2479 22.25 12.0572V12.0572V11.9428V11.9428C22.25 9.7521 22.25 8.03144 22.0694 6.68802C21.8843 5.31137 21.4973 4.21911 20.6391 3.36091C19.7809 2.50272 18.6886 2.11568 17.312 1.93059ZM15.2071 6.29292C14.9211 6.00692 14.491 5.92137 14.1173 6.07615C13.7437 6.23093 13.5 6.59557 13.5 7.00003V8.00003H9.50001L9.44561 8.00002C9.02154 7.99994 8.60941 7.99986 8.2695 8.04556C7.88629 8.09708 7.44902 8.2226 7.0858 8.58582C6.72259 8.94903 6.59706 9.38631 6.54554 9.76951C6.49984 10.1094 6.49992 10.5216 6.50001 10.9456L6.50001 11V11.5C6.50001 12.0523 6.94773 12.5 7.50001 12.5C8.0523 12.5 8.50001 12.0523 8.50001 11.5V11C8.50001 10.5004 8.50214 10.2262 8.52771 10.036L8.52871 10.0287L8.53599 10.0277C8.72618 10.0022 9.00034 10 9.50001 10H16.5C16.9045 10 17.2691 9.75639 17.4239 9.38271C17.5787 9.00904 17.4931 8.57892 17.2071 8.29292L15.2071 6.29292ZM17.5 12C17.5 11.4477 17.0523 11 16.5 11C15.9477 11 15.5 11.4477 15.5 12V13C15.5 13.4997 15.4979 13.7739 15.4723 13.9641L15.4713 13.9713L15.464 13.9723C15.2738 13.9979 14.9997 14 14.5 14H7.50006C7.0956 14 6.73097 14.2437 6.57619 14.6173C6.42141 14.991 6.50696 15.4211 6.79295 15.7071L8.7929 17.7071C9.07889 17.9931 9.50901 18.0787 9.88269 17.9239C10.2564 17.7691 10.5 17.4045 10.5 17V16H14.5L14.5544 16H14.5544C14.9785 16.0001 15.3906 16.0002 15.7305 15.9545C16.1137 15.903 16.551 15.7775 16.9142 15.4142C17.2774 15.051 17.403 14.6138 17.4545 14.2305C17.5002 13.8906 17.5001 13.4785 17.5 13.0545V13.0544L17.5 13V12Z" fill="#141B34"/>
</svg>
