<svg width="24" height="24" viewBox="0 0 24 24" fill="none" xmlns="http://www.w3.org/2000/svg">
<path fill-rule="evenodd" clip-rule="evenodd" d="M17.312 1.93059C15.9686 1.74998 14.2479 1.74999 12.0572 1.75H11.9428C9.75212 1.74999 8.03144 1.74998 6.68802 1.93059C5.31137 2.11568 4.21911 2.50272 3.36091 3.36091C2.50272 4.21911 2.11568 5.31137 1.93059 6.68802C1.74998 8.03144 1.74999 9.75212 1.75 11.9428V12.0572C1.74999 14.2479 1.74998 15.9686 1.93059 17.312C2.11568 18.6886 2.50272 19.7809 3.36091 20.6391C4.21911 21.4973 5.31137 21.8843 6.68802 22.0694C8.03144 22.25 9.7521 22.25 11.9428 22.25H11.9428H12.0572H12.0572C14.2479 22.25 15.9686 22.25 17.312 22.0694C18.6886 21.8843 19.7809 21.4973 20.6391 20.6391C21.4973 19.7809 21.8843 18.6886 22.0694 17.312C22.25 15.9686 22.25 14.2479 22.25 12.0572V12.0572V11.9428V11.9428C22.25 9.7521 22.25 8.03144 22.0694 6.68802C21.8843 5.31137 21.4973 4.21911 20.6391 3.36091C19.7809 2.50272 18.6886 2.11568 17.312 1.93059ZM13.2301 6.36178C13.5826 5.93661 14.2131 5.8777 14.6382 6.2302C15.0634 6.58269 15.1223 7.21311 14.7698 7.63828L11.1536 12L14.7698 16.3618C15.1223 16.7869 15.0634 17.4174 14.6382 17.7699C14.2131 18.1224 13.5826 18.0634 13.2301 17.6383L9.60266 13.263L9.58131 13.2373C9.47658 13.1111 9.34752 12.9556 9.25134 12.8057C9.13411 12.6229 8.99997 12.3522 8.99997 12C8.99997 11.6479 9.13411 11.3772 9.25134 11.1944C9.34752 11.0444 9.47658 10.889 9.58131 10.7628L9.60266 10.7371L13.2301 6.36178Z" fill="#141B34"/>
</svg>
