<svg width="24" height="24" viewBox="0 0 24 24" fill="none" xmlns="http://www.w3.org/2000/svg">
<path fill-rule="evenodd" clip-rule="evenodd" d="M17.312 1.93059C15.9686 1.74998 14.2479 1.74999 12.0572 1.75H11.9428C9.75212 1.74999 8.03144 1.74998 6.68802 1.93059C5.31137 2.11568 4.21911 2.50272 3.36091 3.36091C2.50272 4.21911 2.11568 5.31137 1.93059 6.68802C1.74998 8.03144 1.74999 9.75212 1.75 11.9428V12.0572C1.74999 14.2479 1.74998 15.9686 1.93059 17.312C2.11568 18.6886 2.50272 19.7809 3.36091 20.6391C4.21911 21.4973 5.31137 21.8843 6.68802 22.0694C8.03144 22.25 9.7521 22.25 11.9428 22.25H11.9428H12.0572H12.0572C14.2479 22.25 15.9686 22.25 17.312 22.0694C18.6886 21.8843 19.7809 21.4973 20.6391 20.6391C21.4973 19.7809 21.8843 18.6886 22.0694 17.312C22.25 15.9686 22.25 14.2479 22.25 12.0572V12.0572V11.9428V11.9428C22.25 9.7521 22.25 8.03144 22.0694 6.68802C21.8843 5.31137 21.4973 4.21911 20.6391 3.36091C19.7809 2.50272 18.6886 2.11568 17.312 1.93059ZM13.5 6C13.0955 6 12.7309 6.24364 12.5761 6.61732C12.4213 6.99099 12.5069 7.42111 12.7929 7.70711L13.8358 8.75L12.2929 10.2929C11.9024 10.6834 11.9024 11.3166 12.2929 11.7071C12.6834 12.0976 13.3166 12.0976 13.7071 11.7071L15.25 10.1642L16.2929 11.2071C16.5789 11.4931 17.009 11.5787 17.3827 11.4239C17.7564 11.2691 18 10.9045 18 10.5V7C18 6.44772 17.5523 6 17 6H13.5ZM11.7071 13.7071C12.0976 13.3166 12.0976 12.6834 11.7071 12.2929C11.3166 11.9024 10.6834 11.9024 10.2929 12.2929L8.75 13.8358L7.70711 12.7929C7.42111 12.5069 6.99099 12.4213 6.61732 12.5761C6.24364 12.7309 6 13.0955 6 13.5V17C6 17.5523 6.44772 18 7 18H10.5C10.9045 18 11.2691 17.7564 11.4239 17.3827C11.5787 17.009 11.4931 16.5789 11.2071 16.2929L10.1642 15.25L11.7071 13.7071Z" fill="#141B34"/>
</svg>
