<svg width="24" height="24" viewBox="0 0 24 24" fill="none" xmlns="http://www.w3.org/2000/svg">
<path fill-rule="evenodd" clip-rule="evenodd" d="M11.9428 1.75H11.9428H12.0572H12.0572C14.2479 1.74999 15.9686 1.74998 17.312 1.93059C18.6886 2.11568 19.7809 2.50272 20.6391 3.36091C21.4973 4.21911 21.8843 5.31137 22.0694 6.68802C22.25 8.03143 22.25 9.7521 22.25 11.9428V11.9428V12.0572V12.0572C22.25 14.2479 22.25 15.9686 22.0694 17.312C21.8843 18.6886 21.4973 19.7809 20.6391 20.6391C19.7809 21.4973 18.6886 21.8843 17.312 22.0694C15.9686 22.25 14.2479 22.25 12.0572 22.25H11.9428C9.75214 22.25 8.03144 22.25 6.68802 22.0694C5.31137 21.8843 4.21911 21.4973 3.36091 20.6391C2.50271 19.7809 2.11568 18.6886 1.93059 17.312C1.74998 15.9686 1.74999 14.2479 1.75 12.0572V11.9428C1.74999 9.75214 1.74998 8.03144 1.93059 6.68802C2.11568 5.31137 2.50271 4.21911 3.36091 3.36091C4.21911 2.50272 5.31137 2.11568 6.68802 1.93059C8.03144 1.74998 9.75211 1.74999 11.9428 1.75ZM16.2929 6.29289C16.6834 5.90237 17.3166 5.90237 17.7071 6.29289C18.0976 6.68342 18.0976 7.31658 17.7071 7.70711L15.9142 9.5L16.7071 10.2929C16.9931 10.5789 17.0787 11.009 16.9239 11.3827C16.7691 11.7564 16.4045 12 16 12H13C12.4477 12 12 11.5523 12 11V8C12 7.59554 12.2436 7.2309 12.6173 7.07612C12.991 6.92134 13.4211 7.0069 13.7071 7.29289L14.5 8.08579L16.2929 6.29289ZM11 12C11.5523 12 12 12.4477 12 13V16C12 16.4045 11.7564 16.7691 11.3827 16.9239C11.009 17.0787 10.5789 16.9931 10.2929 16.7071L9.5 15.9142L7.70711 17.7071C7.31658 18.0976 6.68342 18.0976 6.29289 17.7071C5.90237 17.3166 5.90237 16.6834 6.29289 16.2929L8.08579 14.5L7.29289 13.7071C7.0069 13.4211 6.92134 12.991 7.07612 12.6173C7.2309 12.2436 7.59554 12 8 12H11Z" fill="#141B34"/>
</svg>
