<svg width="24" height="24" viewBox="0 0 24 24" fill="none" xmlns="http://www.w3.org/2000/svg">
<path d="M1.25 19C1.25 16.9289 2.92893 15.25 5 15.25C7.07107 15.25 8.75 16.9289 8.75 19C8.75 21.0711 7.07107 22.75 5 22.75C2.92893 22.75 1.25 21.0711 1.25 19Z" fill="#141B34"/>
<path d="M15.25 19C15.25 16.9289 16.9289 15.25 19 15.25C21.0711 15.25 22.75 16.9289 22.75 19C22.75 21.0711 21.0711 22.75 19 22.75C16.9289 22.75 15.25 21.0711 15.25 19Z" fill="#141B34"/>
<path fill-rule="evenodd" clip-rule="evenodd" d="M5.35472 12.7722C6.2564 12.1145 7.53141 12 8.98813 12H15.0119C16.4687 12 17.7437 12.1145 18.6454 12.7722C19.6342 13.4935 19.9158 14.6487 19.998 15.9363C20.0332 16.4874 19.6149 16.9628 19.0638 16.998C18.5126 17.0332 18.0373 16.6149 18.0021 16.0637C17.9276 14.8983 17.6936 14.5535 17.4667 14.388C17.1527 14.159 16.512 14 15.0119 14H8.98813C7.48802 14 6.84733 14.159 6.53334 14.388C6.30651 14.5535 6.07244 14.8983 5.998 16.0637C5.9628 16.6149 5.48745 17.0332 4.93629 16.998C4.38513 16.9628 3.96686 16.4874 4.00207 15.9363C4.08431 14.6487 4.36588 13.4935 5.35472 12.7722Z" fill="#141B34"/>
<path d="M11.0002 1.38178C11.7884 1.67371 12.1334 2.37046 12.338 2.78369C12.3751 2.86512 12.4881 3.02798 12.6425 3.02798L14.1728 3.02798C14.6166 3.02796 15.0042 3.02794 15.3216 3.05983C15.6594 3.09377 15.9996 3.16983 16.3131 3.37671C16.5423 3.52797 16.7397 3.72274 16.8937 3.9503C17.1051 4.26274 17.183 4.60262 17.2176 4.93909C17.25 5.25397 17.25 5.7132 17.25 6.15067C17.25 6.89744 17.25 7.515 17.1987 8.0138C17.145 8.53434 17.0292 9.0083 16.742 9.43284C16.5224 9.75745 16.2406 10.0356 15.9131 10.2517C15.4862 10.5335 15.0102 10.647 14.4859 10.6996C13.9823 10.7502 13.3583 10.7502 12.6012 10.7502H12.6011H11.9476H11.9476C10.9315 10.7502 10.0946 10.7503 9.43242 10.6623C8.73823 10.5701 8.12442 10.3693 7.63199 9.88294C7.13826 9.39532 6.93316 8.78533 6.83923 8.0953C6.74995 7.43944 6.74997 6.61125 6.75 5.60916V5.60914L6.75 4.19766C6.74998 3.82036 6.74997 3.45824 6.77436 3.18489C6.80033 2.89393 6.85841 2.59758 7.01817 2.31484C7.20905 1.97701 7.49054 1.69955 7.8301 1.5124C8.11323 1.35634 8.40965 1.29961 8.70195 1.27416C8.97747 1.25017 9.43647 1.25008 9.81926 1.2501C10.2477 1.2494 10.641 1.24875 11.0002 1.38178Z" fill="#141B34"/>
</svg>
