<svg width="24" height="24" viewBox="0 0 24 24" fill="none" xmlns="http://www.w3.org/2000/svg">
<path fill-rule="evenodd" clip-rule="evenodd" d="M17.312 1.93059C15.9686 1.74998 14.2479 1.74999 12.0572 1.75H11.9428C9.75212 1.74999 8.03144 1.74998 6.68802 1.93059C5.31137 2.11568 4.21911 2.50272 3.36091 3.36091C2.50272 4.21911 2.11568 5.31137 1.93059 6.68802C1.74998 8.03144 1.74999 9.75212 1.75 11.9428V12.0572C1.74999 14.2479 1.74998 15.9686 1.93059 17.312C2.11568 18.6886 2.50272 19.7809 3.36091 20.6391C4.21911 21.4973 5.31137 21.8843 6.68802 22.0694C8.03144 22.25 9.7521 22.25 11.9428 22.25H11.9428H12.0572H12.0572C14.2479 22.25 15.9686 22.25 17.312 22.0694C18.6886 21.8843 19.7809 21.4973 20.6391 20.6391C21.4973 19.7809 21.8843 18.6886 22.0694 17.312C22.25 15.9686 22.25 14.2479 22.25 12.0572V12.0572V11.9428V11.9428C22.25 9.7521 22.25 8.03144 22.0694 6.68802C21.8843 5.31137 21.4973 4.21911 20.6391 3.36091C19.7809 2.50272 18.6886 2.11568 17.312 1.93059ZM10.8224 9.00848L13.7322 9.00061C13.8487 9.00252 13.928 9.0093 13.9851 9.01961C13.9949 9.1158 13.9992 9.25872 13.9999 9.50467C14.0017 10.0569 14.4509 10.5032 15.0032 10.5014C15.5554 10.4997 16.0017 10.0505 15.9999 9.49823C15.9991 9.24011 15.9958 8.97836 15.9666 8.74489C15.9357 8.49732 15.8694 8.21831 15.7022 7.94642C15.3452 7.36553 14.8043 7.13756 14.3535 7.05383C14.0247 6.99276 13.6577 6.99803 13.4342 7.00124L10.734 7.00236H10.734C10.2372 7.00227 9.76206 7.00217 9.40001 7.0528C9.07906 7.09768 8.34892 7.24363 8.0794 7.98844C7.81409 8.72162 8.26449 9.30196 8.47693 9.54648C8.718 9.82396 9.07737 10.1387 9.45564 10.4701L11.2017 12L9.45565 13.5299L9.45564 13.5299C9.07736 13.8613 8.718 14.1761 8.47693 14.4535C8.26449 14.6981 7.81409 15.2784 8.0794 16.0116C8.34892 16.7564 9.07906 16.9023 9.40001 16.9472C9.76205 16.9978 10.2372 16.9977 10.734 16.9976H10.734H10.734L13.4342 16.9988C13.6577 17.002 14.0247 17.0073 14.3535 16.9462C14.8043 16.8625 15.3452 16.6345 15.7022 16.0536C15.8694 15.7817 15.9357 15.5027 15.9666 15.2551C15.9958 15.0217 15.9991 14.7599 15.9999 14.5018C16.0017 13.9495 15.5554 13.5004 15.0032 13.4986C14.4509 13.4968 14.0017 13.9431 13.9999 14.4954C13.9992 14.7413 13.9949 14.8842 13.9851 14.9804C13.928 14.9907 13.8487 14.9975 13.7322 14.9994L10.8224 14.9915L12.545 13.4821C12.7165 13.332 12.9157 13.1577 13.0637 12.9857C13.2406 12.7802 13.4567 12.4535 13.4567 12C13.4567 11.5465 13.2406 11.2198 13.0637 11.0143C12.9157 10.8424 12.7165 10.668 12.545 10.5179L12.545 10.5179L10.8224 9.00848Z" fill="#141B34"/>
</svg>
