<svg width="24" height="24" viewBox="0 0 24 24" fill="none" xmlns="http://www.w3.org/2000/svg">
<path fill-rule="evenodd" clip-rule="evenodd" d="M12 1.74805C6.36029 1.74805 1.74592 6.15682 1.27359 11.4629C1.2069 12.2121 1.24365 13.0778 1.8961 13.6651C2.20946 13.9472 2.58248 14.0853 2.92991 14.1576C3.27267 14.2289 3.64969 14.248 4.03108 14.248H19.9689C20.3503 14.248 20.7273 14.2289 21.0701 14.1576C21.4175 14.0853 21.7905 13.9472 22.1039 13.6651C22.7563 13.0778 22.7931 12.2121 22.7264 11.4629C22.2541 6.15682 17.6397 1.74805 12 1.74805ZM3.41276 12.2874C3.33691 12.2709 3.29898 12.2627 3.25502 12.2101C3.21105 12.1575 3.20952 12.1154 3.20646 12.0311C3.20283 11.9312 3.20593 11.8004 3.22103 11.6308C3.3572 10.1011 3.91595 8.66264 4.78295 7.44053C4.93593 7.22489 5.01242 7.11707 5.12798 7.12846C5.24354 7.13986 5.29691 7.25924 5.40365 7.49799C6.03241 8.90434 6.17503 10.5323 5.78099 12.0414C5.74614 12.1749 5.72871 12.2416 5.6747 12.2834C5.62069 12.3251 5.54886 12.3251 5.40518 12.3251H4.03146C3.791 12.3251 3.58614 12.3251 3.41276 12.2874ZM20.7925 12.0696C20.7888 12.1334 20.7869 12.1653 20.7446 12.216C20.7022 12.2667 20.6776 12.2726 20.6285 12.2845C20.4603 12.3251 20.2158 12.3251 19.9693 12.3251H18.5959C18.4522 12.3251 18.3804 12.3251 18.3264 12.2834C18.2724 12.2416 18.255 12.1749 18.2201 12.0414C17.8261 10.5324 17.9687 8.90457 18.5973 7.4983C18.704 7.25952 18.7574 7.14013 18.873 7.12873C18.9886 7.11734 19.065 7.22517 19.218 7.44083C20.0849 8.66287 20.6436 10.1012 20.7797 11.6308C20.7968 11.8231 20.7985 11.9655 20.7925 12.0696Z" fill="#141B34"/>
<path fill-rule="evenodd" clip-rule="evenodd" d="M10.5472 16.9555C9.73298 15.922 8.32695 15.4222 6.95496 15.9705C6.77256 16.0434 6.26431 16.2113 6.01899 16.2921C5.65758 16.4135 5.2467 16.5605 4.86279 16.7527C4.35367 17.0077 3.79163 17.3967 3.48377 17.998L2 17.998C1.44772 17.998 1 18.4458 1 18.998C1 19.5503 1.44772 19.998 2 19.998L3.48372 19.998C3.79158 20.5994 4.35365 20.9885 4.86279 21.2434C5.2467 21.4357 5.65758 21.5827 6.01899 21.7041C6.26431 21.7849 6.77256 21.9528 6.95497 22.0257C9.00977 22.8469 11.141 21.3171 11.246 19.1644C11.3035 19.0999 11.3536 19.0269 11.3941 18.9459C11.5564 18.622 11.8048 18.498 12 18.498C12.1952 18.498 12.4436 18.622 12.6059 18.9459C12.6464 19.0269 12.6965 19.0999 12.754 19.1644C12.859 21.3171 14.9902 22.8469 17.045 22.0257C17.2274 21.9528 17.7357 21.7849 17.981 21.7041C18.3424 21.5827 18.7533 21.4357 19.1372 21.2434C19.6464 20.9885 20.2084 20.5994 20.5163 19.998L22 19.998C22.5523 19.998 23 19.5503 23 18.998C23 18.4458 22.5523 17.998 22 17.998L20.5162 17.998C20.2084 17.3967 19.6463 17.0077 19.1372 16.7527C18.7533 16.5605 18.3424 16.4135 17.981 16.2921C17.7357 16.2113 17.2274 16.0434 17.045 15.9705C15.6731 15.4222 14.267 15.922 13.4528 16.9555C13.0423 16.6715 12.5487 16.498 12 16.498C11.4513 16.498 10.9577 16.6715 10.5472 16.9555Z" fill="#141B34"/>
</svg>
