<svg width="24" height="24" viewBox="0 0 24 24" fill="none" xmlns="http://www.w3.org/2000/svg">
<path d="M0.9999 4C0.9999 3.44772 1.44761 3 1.9999 3H21.9999C22.5522 3 22.9999 3.44772 22.9999 4C22.9999 4.55228 22.5522 5 21.9999 5H20.6683L22.9879 19.8456C23.0732 20.3913 22.6999 20.9028 22.1543 20.988C21.6086 21.0733 21.0971 20.7 21.0119 20.1544L19.4253 10H4.57453L2.98791 20.1544C2.90265 20.7 2.39119 21.0733 1.84552 20.988C1.29986 20.9028 0.926628 20.3913 1.01189 19.8456L3.33152 5H1.9999C1.44761 5 0.9999 4.55228 0.9999 4Z" fill="#141B34"/>
</svg>
