<svg width="25" height="24" viewBox="0 0 25 24" fill="none" xmlns="http://www.w3.org/2000/svg">
<path d="M6.61328 11.25C3.71379 11.25 1.36328 13.6005 1.36328 16.5C1.36328 19.3995 3.71379 21.75 6.61328 21.75C9.51278 21.75 11.8633 19.3995 11.8633 16.5C11.8633 13.6005 9.51278 11.25 6.61328 11.25Z" fill="#141B34"/>
<path d="M19.6133 15C17.6803 15 16.1133 16.567 16.1133 18.5C16.1133 20.433 17.6803 22 19.6133 22C21.5463 22 23.1133 20.433 23.1133 18.5C23.1133 16.567 21.5463 15 19.6133 15Z" fill="#141B34"/>
<path fill-rule="evenodd" clip-rule="evenodd" d="M13.4245 8.01979C13.1306 7.96043 12.8255 8.03615 12.5933 8.22608C12.3612 8.41601 12.2266 8.70009 12.2266 9.00001V9.2323C12.2266 9.60757 12.2266 9.79521 12.1183 9.85109C12.01 9.90697 11.8511 9.79397 11.5333 9.56798C10.1451 8.58094 8.44732 8.00001 6.61334 8.00001C4.70096 8.00001 2.93348 8.63275 1.51276 9.69989C1.07117 10.0316 0.982083 10.6584 1.31377 11.1C1.64546 11.5416 2.27233 11.6307 2.71392 11.299C3.80018 10.4831 5.1489 10 6.61334 10C9.09202 10 11.2483 11.3871 12.3454 13.4321C12.8352 14.3449 13.1133 15.3885 13.1133 16.5C13.1133 16.6364 13.1087 16.7758 13.1041 16.9132C13.0965 17.1424 13.0891 17.3661 13.1036 17.5608C13.1609 18.3247 13.6674 18.8787 14.4321 18.9733L14.4401 18.9743C14.6348 18.9977 14.7322 19.0094 14.7996 18.9489C14.867 18.8885 14.8659 18.7756 14.8635 18.5499L14.8633 18.5C14.8633 15.8766 16.9899 13.75 19.6133 13.75C20.3066 13.75 20.9652 13.8985 21.5591 14.1655C21.8767 14.3084 22.0356 14.3798 22.128 14.3172C22.2204 14.2546 22.2136 14.0944 22.2 13.7738C22.1862 13.4495 22.1653 13.1493 22.1337 12.8724C22.1257 12.8024 22.0661 12.75 21.9956 12.75L20.2266 12.75C19.8123 12.75 19.4766 12.4142 19.4766 12C19.4766 11.5858 19.8123 11.25 20.2266 11.25L21.0779 11.25C21.3685 11.25 21.5138 11.25 21.5694 11.141C21.6251 11.0319 21.5464 10.9232 21.3891 10.7058C21.369 10.678 21.3484 10.6504 21.3272 10.623C20.8205 9.96547 20.1572 9.59278 19.3767 9.32512C18.6424 9.07333 17.7102 8.88513 16.5947 8.65992L13.4245 8.01979Z" fill="#141B34"/>
<path fill-rule="evenodd" clip-rule="evenodd" d="M11.3755 2.02892C11.9119 1.89758 12.4533 2.22599 12.5846 2.76243L13.9101 8.17655C14.0449 8.63464 14.1133 9.10972 14.1133 9.58731V12.5002C14.1133 13.0525 13.6656 13.5002 13.1133 13.5002C12.561 13.5002 12.1133 13.0525 12.1133 12.5002V9.58731C12.1133 9.29533 12.0707 9.00492 11.9868 8.72527C11.9818 8.70887 11.9773 8.69235 11.9733 8.67572L10.642 3.23804C10.5106 2.7016 10.839 2.16026 11.3755 2.02892ZM4.11328 2.00023C4.66557 2.00023 5.11328 2.44795 5.11328 3.00023V9.00023C5.11328 9.55252 4.66557 10.0002 4.11328 10.0002C3.561 10.0002 3.11328 9.55252 3.11328 9.00023V3.00023C3.11328 2.44795 3.561 2.00023 4.11328 2.00023Z" fill="#141B34"/>
<path fill-rule="evenodd" clip-rule="evenodd" d="M2.11328 3C2.11328 2.44772 2.561 2 3.11328 2H13.1133C13.6656 2 14.1133 2.44772 14.1133 3C14.1133 3.55228 13.6656 4 13.1133 4H3.11328C2.561 4 2.11328 3.55228 2.11328 3Z" fill="#141B34"/>
<path fill-rule="evenodd" clip-rule="evenodd" d="M20.1133 7C19.561 7 19.1133 7.44772 19.1133 8V9.5C19.1133 10.0523 18.6656 10.5 18.1133 10.5C17.561 10.5 17.1133 10.0523 17.1133 9.5V8C17.1133 6.34315 18.4564 5 20.1133 5C20.6656 5 21.1133 5.44772 21.1133 6C21.1133 6.55228 20.6656 7 20.1133 7Z" fill="#141B34"/>
<path fill-rule="evenodd" clip-rule="evenodd" d="M7.11328 2C7.66557 2 8.11328 2.44772 8.11328 3V9C8.11328 9.55229 7.66557 10 7.11328 10C6.561 10 6.11328 9.55229 6.11328 9V3C6.11328 2.44772 6.561 2 7.11328 2Z" fill="#141B34"/>
</svg>
