<svg width="24" height="24" viewBox="0 0 24 24" fill="none" xmlns="http://www.w3.org/2000/svg">
<path fill-rule="evenodd" clip-rule="evenodd" d="M4.95063 4.25L5.00001 4.25001L19.0494 4.25H19.0494H19.0495C19.7143 4.24997 20.2871 4.24994 20.7459 4.31161C21.2375 4.37771 21.7088 4.52677 22.091 4.90902C22.4732 5.29126 22.6223 5.76253 22.6884 6.25416C22.7501 6.71291 22.75 7.28577 22.75 7.95064V8.65C22.75 8.93285 22.75 9.07427 22.6621 9.16214C22.5743 9.25 22.4328 9.25 22.15 9.25H21.5C18.3908 9.25 16.3023 10.8876 15.0228 12.8387C13.7622 14.7609 13.25 17.0308 13.25 18.5V19.15C13.25 19.4328 13.25 19.5743 13.1621 19.6621C13.0742 19.75 12.9328 19.75 12.65 19.75H11.35C11.0671 19.75 10.9257 19.75 10.8378 19.6621C10.75 19.5743 10.75 19.4328 10.75 19.15V18.5C10.75 17.0308 10.2377 14.7609 8.97712 12.8387C7.69759 10.8876 5.60917 9.25 2.49996 9.25H1.85001C1.56716 9.25 1.42574 9.25 1.33787 9.16214C1.25001 9.07427 1.25001 8.93285 1.25001 8.65V8.00001L1.25 7.95063V7.95058V7.95053C1.24997 7.28571 1.24994 6.71289 1.31161 6.25416C1.37771 5.76253 1.52677 5.29126 1.90902 4.90902C2.29126 4.52677 2.76253 4.37771 3.25416 4.31161C3.71289 4.24994 4.28571 4.24997 4.95053 4.25H4.95058H4.95063ZM21.5 10.75H21.7707C22.1436 10.75 22.33 10.75 22.4194 10.8803C22.5088 11.0107 22.4442 11.178 22.3149 11.5127C21.7883 12.8762 20.9129 14.3951 19.8057 15.7555C18.6437 17.1832 17.1799 18.4935 15.5264 19.2515C15.1928 19.4044 15.0259 19.4809 14.888 19.3924C14.75 19.3038 14.75 19.1107 14.75 18.7245V18.5C14.75 17.3025 15.1877 15.3224 16.2771 13.6613C17.3476 12.029 19.0092 10.75 21.5 10.75ZM9.24996 18.5V18.7244C9.24996 19.1107 9.24996 19.3038 9.11197 19.3923C8.97398 19.4809 8.80715 19.4044 8.4735 19.2514C6.8201 18.4935 5.35624 17.1831 4.1943 15.7555C3.08715 14.3951 2.21167 12.8762 1.68511 11.5127C1.55585 11.178 1.49121 11.0107 1.58059 10.8803C1.66997 10.75 1.8564 10.75 2.22927 10.75H2.49996C4.99076 10.75 6.65233 12.029 7.7228 13.6613C8.8122 15.3224 9.24996 17.3025 9.24996 18.5ZM10.5 7.25C10.0858 7.25 9.75 7.58579 9.75 8C9.75 8.41422 10.0858 8.75 10.5 8.75H13.5C13.9142 8.75 14.25 8.41422 14.25 8C14.25 7.58579 13.9142 7.25 13.5 7.25H10.5Z" fill="#141B34"/>
</svg>
