<svg width="24" height="24" viewBox="0 0 24 24" fill="none" xmlns="http://www.w3.org/2000/svg">
<path d="M5.05966 13.6596C5.20298 13.2637 5.57891 13 5.99993 13H17.9999C18.4209 13 18.7969 13.2637 18.9402 13.6596C19.0835 14.0554 18.9636 14.4987 18.6401 14.7682L13.2803 19.2347L13.2542 19.2565C13.1251 19.3643 12.9668 19.4963 12.8141 19.5946C12.6275 19.7146 12.3544 19.8491 11.9999 19.8491C11.6454 19.8491 11.3724 19.7146 11.1858 19.5946C11.033 19.4963 10.8748 19.3643 10.7457 19.2565L10.7196 19.2347L5.35974 14.7682C5.03631 14.4987 4.91633 14.0554 5.05966 13.6596Z" fill="#141B34"/>
<path d="M5.05966 10.3404C5.20298 10.7363 5.57891 11 5.99993 11H17.9999C18.4209 11 18.7969 10.7363 18.9402 10.3404C19.0835 9.94455 18.9636 9.50131 18.6401 9.23178L13.2803 4.76527L13.2542 4.74347C13.1251 4.63574 12.9668 4.50371 12.8141 4.40545C12.6275 4.28545 12.3544 4.15085 11.9999 4.15085C11.6454 4.15085 11.3724 4.28545 11.1858 4.40545C11.033 4.50371 10.8748 4.63574 10.7457 4.74348L10.7196 4.76527L5.35974 9.23178C5.03631 9.50131 4.91633 9.94455 5.05966 10.3404Z" fill="#141B34"/>
</svg>
