<svg width="24" height="24" viewBox="0 0 24 24" fill="none" xmlns="http://www.w3.org/2000/svg">
<g clip-path="url(#clip0_2544_4211)">
<path d="M19.2826 0.782239C19.5989 0.686466 19.9406 0.80904 20.124 1.08403C20.2099 1.21297 20.274 1.3604 20.3191 1.46937C20.3466 1.53569 20.3794 1.61931 20.4112 1.70051L20.4112 1.70056C20.4311 1.75123 20.4506 1.80095 20.4682 1.84495C20.5719 2.10433 20.6908 2.37428 20.8565 2.63303C21.1713 3.12449 21.6678 3.60102 22.6232 3.76026C23.0318 3.82836 23.3078 4.21478 23.2397 4.62336C23.1716 5.03194 22.7852 5.30795 22.3766 5.23985C21.4344 5.08282 20.7508 4.69914 20.2499 4.23386V9.00006C20.2499 10.795 18.7949 12.2501 16.9999 12.2501C15.205 12.2501 13.7499 10.795 13.7499 9.00006C13.7499 7.20513 15.205 5.75006 16.9999 5.75006C17.6443 5.75006 18.2448 5.93756 18.7499 6.26097V1.50006C18.7499 1.16956 18.9663 0.878013 19.2826 0.782239Z" fill="#141B34"/>
<path fill-rule="evenodd" clip-rule="evenodd" d="M17.2278 3.46806C17.2499 3.52245 17.2499 3.58295 17.2499 3.70395V4.00656C17.2499 4.14254 17.1359 4.25017 16.9999 4.25017C14.3766 4.25017 12.2499 6.37682 12.2499 9.00017C12.2499 9.23811 12.2674 9.47195 12.3012 9.7005C12.3483 10.0192 12.3718 10.1785 12.3718 10.2012C12.3708 10.4349 12.3479 10.4615 12.1168 10.4966C12.0944 10.5 11.8962 10.5 11.4999 10.5C10.3954 10.5 9.49994 11.3954 9.49994 12.5C9.49994 13.6046 10.3954 14.5 11.4999 14.5C12.6045 14.5 13.4999 13.6046 13.4999 12.5C13.4999 12.4063 13.6281 12.3471 13.6954 12.4123C14.5503 13.2404 15.7156 13.7502 16.9999 13.7502C18.3759 13.7502 19.6153 13.1651 20.4828 12.2301C21.4063 11.2347 21.8681 10.737 22.0576 10.8099L22.0615 10.8114C22.2499 10.8869 22.2499 11.4246 22.2499 12.5C22.2499 18.4371 17.437 23.25 11.4999 23.25C5.56288 23.25 0.749939 18.4371 0.749939 12.5C0.749939 6.56294 5.56288 1.75 11.4999 1.75C13.5116 1.75 15.3942 2.30256 17.0043 3.26417C17.1042 3.32387 17.1542 3.35372 17.1895 3.40062C17.2047 3.42081 17.2183 3.44464 17.2278 3.46806Z" fill="#141B34"/>
</g>
<defs>
<clipPath id="clip0_2544_4211">
<rect width="24" height="24" fill="white"/>
</clipPath>
</defs>
</svg>
