<svg width="24" height="24" viewBox="0 0 24 24" fill="none" xmlns="http://www.w3.org/2000/svg">
<path fill-rule="evenodd" clip-rule="evenodd" d="M2.25 5.77541C2.25 4.55527 3.01861 3.38828 4.28749 3.01172C6.23972 2.43237 9.79412 1.58181 14.6683 1.16789C15.4925 1.09569 16.9266 0.970052 17.887 2.14054C18.5913 2.99894 18.7554 4.17616 18.7499 5.16131C18.7469 5.67882 18.6965 6.19598 18.6217 6.67431C18.5772 6.95863 18.5549 7.10079 18.6163 7.19661C18.6777 7.29243 18.8205 7.33283 19.1061 7.41363C19.751 7.59607 20.3097 7.87571 20.7429 8.34293C21.2987 8.94239 21.5334 9.69041 21.6434 10.5736C21.75 11.43 21.75 12.5204 21.75 13.8792V16.0037C21.75 17.3973 21.75 18.5262 21.619 19.4153C21.4818 20.3463 21.1878 21.1212 20.5222 21.7294C19.864 22.3308 19.0973 22.5594 18.1943 22.6128C17.342 22.6632 16.2263 22.5541 14.9379 22.4282C14.3279 22.3686 13.7007 22.2985 13.0619 22.2165C12.8096 22.1841 12.6835 22.1679 12.6111 22.0954C12.5387 22.0228 12.5191 21.8686 12.4801 21.5602C12.4129 21.0293 12.1754 20.5159 11.7678 20.1082L10.9598 19.3002C10.7598 19.1002 10.6598 19.0002 10.6598 18.876C10.6598 18.7517 10.7598 18.6517 10.9598 18.4517L11.7678 17.6437C12.7441 16.6674 12.7441 15.0845 11.7678 14.1082C10.7915 13.1319 9.20854 13.1319 8.23223 14.1082L7.42426 14.9162C7.22426 15.1162 7.12426 15.2162 7 15.2162C6.87574 15.2162 6.77574 15.1162 6.57574 14.9162L5.76777 14.1082C5.1501 13.4905 4.28963 13.2636 3.49359 13.4275C2.81181 13.5679 2.47091 13.638 2.36046 13.548C2.25 13.458 2.25 13.1926 2.25 12.6619V5.77541ZM15.8415 3.02563C15.558 2.98069 15.2217 3.00267 14.7412 3.04348C10.0184 3.44455 6.69586 4.25797 4.85808 4.80336C4.77599 4.82772 4.69674 4.86568 4.6233 4.91561C4.45209 5.03202 4.36649 5.09022 4.40399 5.28418C4.44149 5.47814 4.58675 5.50988 4.87727 5.57338C7.22733 6.08699 10.8417 6.63855 15.0559 6.93057C15.4049 6.95474 15.7397 6.97794 16.0591 7.00167C16.3108 7.02037 16.4367 7.02972 16.5281 6.95826C16.6194 6.8868 16.6397 6.76805 16.6803 6.53056C16.7549 6.0938 16.8064 5.61707 16.809 5.15107C16.8139 4.28867 16.6498 3.65065 16.3657 3.30449C16.2313 3.1406 16.0784 3.06318 15.8415 3.02563ZM16.5 12.8761C17.6046 12.8761 18.5 13.7715 18.5 14.8761C18.5 15.9807 17.6046 16.8761 16.5 16.8761C15.3954 16.8761 14.5 15.9807 14.5 14.8761C14.5 13.7715 15.3954 12.8761 16.5 12.8761Z" fill="#141B34"/>
<path fill-rule="evenodd" clip-rule="evenodd" d="M3.29289 15.1691C3.68342 14.7786 4.31658 14.7786 4.70711 15.1691L7 17.462L9.29289 15.1691C9.68342 14.7786 10.3166 14.7786 10.7071 15.1691C11.0976 15.5596 11.0976 16.1928 10.7071 16.5833L8.41421 18.8762L10.7071 21.1691C11.0976 21.5596 11.0976 22.1928 10.7071 22.5833C10.3166 22.9739 9.68342 22.9739 9.29289 22.5833L7 20.2904L4.70711 22.5833C4.31658 22.9739 3.68342 22.9739 3.29289 22.5833C2.90237 22.1928 2.90237 21.5596 3.29289 21.1691L5.58579 18.8762L3.29289 16.5833C2.90237 16.1928 2.90237 15.5596 3.29289 15.1691Z" fill="#141B34"/>
</svg>
