<svg width="24" height="24" viewBox="0 0 24 24" fill="none" xmlns="http://www.w3.org/2000/svg">
<path fill-rule="evenodd" clip-rule="evenodd" d="M21.7141 8.52733C21.504 8.43341 21.2953 8.40175 21.1051 8.38787C20.9284 8.37497 20.7176 8.37499 20.4882 8.375H15.8892C15.334 8.375 14.841 8.73031 14.6654 9.25707C14.654 9.2913 14.5853 9.55357 14.5406 9.72525C14.5176 9.81348 14.438 9.875 14.3469 9.875H13.0084C12.9416 9.875 12.8791 9.84158 12.842 9.78594L12.4209 9.15428C12.0963 8.66743 11.5499 8.375 10.9648 8.375H8C4.27208 8.375 1.25 11.3971 1.25 15.125C1.25 18.8529 4.27208 21.875 8 21.875C10.9554 21.875 13.4653 19.9762 14.38 17.3342C14.5679 16.7915 14.6953 16.4249 14.8062 16.1678C14.8925 15.9524 15.0358 15.896 15.0966 15.8948C15.2944 15.8758 15.566 15.875 16 15.875H18.0126C18.8873 15.875 19.6386 15.6008 20.3526 15.1249C21.1972 14.5642 22.2524 13.8639 22.6211 12.4943C22.7504 12.0138 22.7503 11.3471 22.7501 10.6049C22.7507 10.3512 22.7516 9.97155 22.6526 9.62016C22.5302 9.18597 22.2521 8.76781 21.7141 8.52733ZM8.0001 12.375C6.48131 12.375 5.2501 13.6062 5.2501 15.125C5.2501 16.6438 6.48131 17.875 8.0001 17.875C9.51888 17.875 10.7501 16.6438 10.7501 15.125C10.7501 13.6062 9.51888 12.375 8.0001 12.375Z" fill="#141B34"/>
<path fill-rule="evenodd" clip-rule="evenodd" d="M13.5 2.125C14.0523 2.125 14.5 2.57272 14.5 3.125V5.125C14.5 5.67728 14.0523 6.125 13.5 6.125C12.9477 6.125 12.5 5.67728 12.5 5.125V3.125C12.5 2.57272 12.9477 2.125 13.5 2.125ZM8.29289 4.41789C8.68342 4.02737 9.31658 4.02737 9.70711 4.41789L10.7071 5.41789C11.0976 5.80842 11.0976 6.44158 10.7071 6.83211C10.3166 7.22263 9.68342 7.22263 9.29289 6.83211L8.29289 5.83211C7.90237 5.44158 7.90237 4.80842 8.29289 4.41789ZM17.2929 4.41789C17.6834 4.02737 18.3166 4.02737 18.7071 4.41789C19.0976 4.80842 19.0976 5.44158 18.7071 5.83211L17.7071 6.83211C17.3166 7.22263 16.6834 7.22263 16.2929 6.83211C15.9024 6.44158 15.9024 5.80842 16.2929 5.41789L17.2929 4.41789Z" fill="#141B34"/>
</svg>
