<svg width="24" height="24" viewBox="0 0 24 24" fill="none" xmlns="http://www.w3.org/2000/svg">
<path d="M12.5418 2.48138C12.4003 2.33358 12.2046 2.25 12 2.25C11.7954 2.25 11.5997 2.33358 11.4582 2.48138C11.2689 2.67911 11.0931 2.89584 10.9439 3.08373C10.646 3.45889 10.2504 3.99965 9.85463 4.66815C9.06918 5.99478 8.25 7.87988 8.25 10C8.25 12.1201 9.06918 14.0052 9.85463 15.3318C10.2504 16.0003 10.646 16.5411 10.9439 16.9163C11.0886 17.0986 11.3524 17.3984 11.4498 17.509L11.4582 17.5186C11.5997 17.6664 11.7954 17.75 12 17.75C12.2046 17.75 12.4007 17.6661 12.5421 17.5183L12.5502 17.5091C12.6472 17.3989 12.9112 17.0988 13.0561 16.9163C13.354 16.5411 13.7496 16.0003 14.1454 15.3318C14.9308 14.0052 15.75 12.1201 15.75 10C15.75 7.87988 14.9308 5.99478 14.1454 4.66815C13.7496 3.99965 13.354 3.45889 13.0561 3.08373C12.9069 2.89584 12.7274 2.6753 12.5418 2.48138Z" fill="#141B34"/>
<path d="M1.25023 7.22926C1.24441 6.9679 1.34773 6.71555 1.53624 6.53069C1.72475 6.34583 1.98209 6.24452 2.24862 6.25023C2.63283 6.25846 3.26551 6.33157 3.68772 6.39877C4.52831 6.53257 5.6687 6.7896 6.84605 7.28636C7.34184 7.49555 7.57082 8.05926 7.35749 8.54544C7.14417 9.03162 6.56932 9.25616 6.07353 9.04697C5.0845 8.62966 4.05678 8.39938 3.3227 8.28253C3.37517 8.60827 3.45041 8.98867 3.55807 9.4007C3.89628 10.6951 4.5336 12.2218 5.71052 13.3759C6.88743 14.53 8.44434 15.155 9.76431 15.4867C10.4167 15.6506 10.9913 15.7379 11.4003 15.7839C11.5737 15.8312 12.0565 15.8975 12.5997 15.7839C13.0087 15.7379 13.5833 15.6506 14.2357 15.4867C15.5557 15.155 17.1126 14.53 18.2895 13.3759C19.4664 12.2218 20.1037 10.6951 20.4419 9.4007C20.5496 8.98867 20.6248 8.60827 20.6773 8.28253C19.9432 8.39938 18.9155 8.62966 17.9265 9.04697C17.4307 9.25616 16.8558 9.03162 16.6425 8.54544C16.4292 8.05926 16.6582 7.49555 17.154 7.28636C18.3313 6.7896 19.4717 6.53257 20.3123 6.39877C20.7345 6.33157 21.1989 6.26207 21.7514 6.25023C22.0179 6.24452 22.2753 6.34583 22.4638 6.53069C22.6523 6.71555 22.7556 6.9679 22.7498 7.22926C22.7498 7.46484 22.7144 7.78011 22.6868 8.01508C22.6319 8.48402 22.5289 9.13566 22.3353 9.87643C21.9521 11.3431 21.1933 13.239 19.6716 14.7312C18.1498 16.2235 16.2165 16.9676 14.7208 17.3433C13.9654 17.5332 13.3009 17.6342 12.8227 17.6881C11.9876 17.7625 11.3778 17.7191 11.1773 17.6881C10.6991 17.6342 10.0346 17.5332 9.27917 17.3433C7.78354 16.9676 5.85019 16.2235 4.32844 14.7312C2.8067 13.239 2.04791 11.3431 1.66469 9.87643C1.47113 9.13566 1.36807 8.48402 1.31316 8.01508C1.28565 7.78011 1.25023 7.47236 1.25023 7.22926Z" fill="#141B34"/>
<path d="M11.7315 16.3085C15.6316 14.6786 18.8153 15.5921 20.0314 16.3651C21.4303 17.2303 22.3105 18.7292 22.7354 20.8534C22.793 21.1418 22.6769 21.4372 22.4382 21.6091C22.1995 21.7809 21.8825 21.7975 21.6272 21.6513C20.0317 20.7377 19.1114 20.782 18.3889 20.975C18.1012 21.0519 17.8553 21.1476 17.5742 21.2568L17.5742 21.2569C17.4387 21.3095 17.295 21.3654 17.1345 21.4239C16.6744 21.5916 16.1414 21.7505 15.5134 21.7505C13.8098 21.7505 12.6674 20.935 12.0044 19.9069C11.3679 18.9198 11.1723 17.7418 11.2764 16.9076C11.3097 16.6408 11.4833 16.4122 11.7315 16.3085Z" fill="#141B34"/>
<path d="M12.2685 16.3085C8.36843 14.6786 5.18467 15.5921 3.96861 16.3651C2.56972 17.2303 1.68949 18.7292 1.26463 20.8534C1.20695 21.1418 1.32314 21.4372 1.5618 21.6091C1.80046 21.7809 2.11754 21.7975 2.37275 21.6513C3.96826 20.7377 4.88857 20.782 5.61105 20.975C5.89883 21.0519 6.14474 21.1476 6.42579 21.2568L6.4258 21.2569C6.56131 21.3095 6.70499 21.3654 6.86547 21.4239C7.32559 21.5916 7.8586 21.7505 8.48661 21.7505C10.1902 21.7505 11.3326 20.935 11.9956 19.9069C12.6321 18.9198 12.8277 17.7418 12.7236 16.9076C12.6903 16.6408 12.5167 16.4122 12.2685 16.3085Z" fill="#141B34"/>
</svg>
