<svg width="24" height="24" viewBox="0 0 24 24" fill="none" xmlns="http://www.w3.org/2000/svg">
<path d="M14.4423 12.7423C14.2665 12.7529 14.1148 12.7596 13.9932 12.7638L5.307 22.0104C4.39998 22.9759 2.87405 22.9998 1.93732 22.063C1.00059 21.1263 1.02442 19.6004 1.98996 18.6934L11.2365 10.0072C11.2407 9.88554 11.2474 9.73382 11.258 9.55804C11.2864 9.08853 11.3432 8.44175 11.4575 7.73515C11.5714 7.03103 11.7451 6.25072 12.0128 5.52055C12.2779 4.79759 12.653 4.07428 13.1974 3.52986C14.2769 2.45034 15.8319 1.66427 17.3565 1.37397C18.8614 1.08743 20.5266 1.25634 21.6353 2.36503C22.744 3.47373 22.9129 5.139 22.6264 6.64387C22.3361 8.16849 21.55 9.72344 20.4705 10.803C19.9261 11.3474 19.2028 11.7225 18.4798 11.9876C17.7496 12.2553 16.9693 12.4289 16.2652 12.5428C15.5586 12.6571 14.9118 12.7139 14.4423 12.7423Z" fill="#141B34"/>
</svg>
