<svg width="24" height="24" viewBox="0 0 24 24" fill="none" xmlns="http://www.w3.org/2000/svg">
<path d="M22 12C22 6.47715 17.5228 2 12 2C6.47715 2 2 6.47715 2 12C2 17.5228 6.47715 22 12 22C17.5228 22 22 17.5228 22 12Z" fill="#D4D7E0"/>
<path d="M11.9981 22C8.2967 22 5.06498 19.989 3.33594 17H20.6603C18.9312 19.989 15.6995 22 11.9981 22Z" fill="white"/>
<path d="M3.33594 7H20.6603C18.9312 4.01099 15.6995 2 11.9981 2C8.2967 2 5.06498 4.01099 3.33594 7Z" fill="white"/>
<path d="M22 12C22 6.47715 17.5228 2 12 2C6.47715 2 2 6.47715 2 12C2 13.8214 2.48697 15.5291 3.33782 17C5.06687 19.989 8.29859 22 12 22C15.7014 22 18.9331 19.989 20.6622 17C21.513 15.5291 22 13.8214 22 12Z" stroke="#141B34" stroke-width="1.5"/>
<path d="M22 12L2 12" stroke="#141B34" stroke-width="1.5" stroke-linecap="round" stroke-linejoin="round"/>
<path d="M20 7L4 7" stroke="#141B34" stroke-width="1.5" stroke-linecap="round" stroke-linejoin="round"/>
<path d="M20 17L4 17" stroke="#141B34" stroke-width="1.5" stroke-linecap="round" stroke-linejoin="round"/>
<path d="M20 17L4 17" stroke="#141B34" stroke-width="1.5" stroke-linecap="round" stroke-linejoin="round"/>
</svg>
