<svg width="24" height="24" viewBox="0 0 24 24" fill="none" xmlns="http://www.w3.org/2000/svg">
<path d="M6.25 22C6.25 22.4142 6.58578 22.75 7 22.75C7.41421 22.75 7.75 22.4142 7.75 22L6.25 22ZM7.75 2C7.75 1.58579 7.41421 1.25 7 1.25C6.58579 1.25 6.25 1.58579 6.25 2L7.75 2ZM7.75 22L7.75 2L6.25 2L6.25 22L7.75 22Z" fill="#141B34"/>
<path d="M4 5C4.58984 4.39316 6.15973 2 7 2C7.84027 2 9.41016 4.39316 10 5" stroke="#141B34" stroke-width="1.5" stroke-linecap="round" stroke-linejoin="round"/>
<path opacity="0.4" d="M2 17L22 17M22 17C22 16.1597 19.6068 14.5898 19 14M22 17C22 17.8403 19.6068 19.4102 19 20" stroke="#141B34" stroke-width="1.5" stroke-linecap="round" stroke-linejoin="round"/>
</svg>
