<svg width="24" height="24" viewBox="0 0 24 24" fill="none" xmlns="http://www.w3.org/2000/svg">
<path d="M12.5 9L13.2063 8.74775L13.0285 8.25H12.5V9ZM11.5 9V8.25H10.9715L10.7937 8.74775L11.5 9ZM11.7937 9.25225L14.2937 16.2523L15.7063 15.7477L13.2063 8.74775L11.7937 9.25225ZM9.85714 14.0357H14.1429V12.5357H9.85714V14.0357ZM9.70631 16.2523L12.2063 9.25225L10.7937 8.74775L8.29369 15.7477L9.70631 16.2523ZM11.5 9.75H12.5V8.25H11.5V9.75Z" fill="#141B34"/>
<path d="M12 2C12 2 20.5 7 20.5 13.5C20.5 18.1944 16.6944 22 12 22C7.30558 22 3.5 18.1944 3.5 13.5C3.5 7 12 2 12 2Z" stroke="#141B34" stroke-width="1.5"/>
</svg>
