<svg width="24" height="24" viewBox="0 0 24 24" fill="none" xmlns="http://www.w3.org/2000/svg">
<path d="M16.993 10.2298L17.4949 9.6725L16.966 9.1961L16.4626 9.69946L16.993 10.2298ZM13.7701 7.00686L14.3004 7.53718L14.8037 7.03388L14.3274 6.50497L13.7701 7.00686ZM7.00693 13.7701L6.50502 14.3274L7.03394 14.8038L7.53726 14.3004L7.00693 13.7701ZM10.2298 16.993L9.6995 16.4627L9.19618 16.966L9.67255 17.4949L10.2298 16.993ZM13.75 5C13.75 3.75736 14.7574 2.75 16 2.75V1.25C13.9289 1.25 12.25 2.92893 12.25 5H13.75ZM16 2.75C17.2426 2.75 18.25 3.75736 18.25 5H19.75C19.75 2.92893 18.0711 1.25 16 1.25V2.75ZM21.25 8C21.25 9.24264 20.2426 10.25 19 10.25V11.75C21.0711 11.75 22.75 10.0711 22.75 8H21.25ZM19 5.75C20.2426 5.75 21.25 6.75736 21.25 8H22.75C22.75 5.92893 21.0711 4.25 19 4.25V5.75ZM17.3227 6.50019C17.7358 6.03868 18.3337 5.75 19 5.75V4.25C17.8893 4.25 16.8906 4.73383 16.205 5.49981L17.3227 6.50019ZM10.25 19C10.25 20.2426 9.24264 21.25 8 21.25V22.75C10.0711 22.75 11.75 21.0711 11.75 19H10.25ZM8 21.25C6.75736 21.25 5.75 20.2426 5.75 19H4.25C4.25 21.0711 5.92893 22.75 8 22.75V21.25ZM2.75 16C2.75 14.7574 3.75736 13.75 5 13.75V12.25C2.92893 12.25 1.25 13.9289 1.25 16H2.75ZM5 18.25C3.75736 18.25 2.75 17.2426 2.75 16H1.25C1.25 18.0711 2.92893 19.75 5 19.75V18.25ZM6.67726 17.4998C6.26419 17.9613 5.6663 18.25 5 18.25V19.75C6.1107 19.75 7.10938 19.2662 7.79496 18.5002L6.67726 17.4998ZM19 10.25C18.4207 10.25 17.8941 10.0321 17.4949 9.6725L16.491 10.7871C17.155 11.3851 18.0358 11.75 19 11.75V10.25ZM14.3274 6.50497C13.9679 6.10577 13.75 5.57922 13.75 5H12.25C12.25 5.96412 12.6148 6.8448 13.2127 7.50875L14.3274 6.50497ZM13.2397 6.47653L6.47659 13.2398L7.53726 14.3004L14.3004 7.53718L13.2397 6.47653ZM5 13.75C5.57924 13.75 6.10582 13.9679 6.50502 14.3274L7.50883 13.2128C6.84488 12.6149 5.96416 12.25 5 12.25V13.75ZM10.7602 17.5233L17.5233 10.7601L16.4626 9.69946L9.6995 16.4627L10.7602 17.5233ZM9.67255 17.4949C10.0321 17.8941 10.25 18.4207 10.25 19H11.75C11.75 18.0358 11.3851 17.1551 10.7871 16.4911L9.67255 17.4949Z" fill="#141B34"/>
</svg>
