<svg width="24" height="24" viewBox="0 0 24 24" fill="none" xmlns="http://www.w3.org/2000/svg">
<path d="M22 21V21.75C22.4142 21.75 22.75 21.4142 22.75 21H22ZM2 21H1.25C1.25 21.4142 1.58579 21.75 2 21.75V21ZM2 3L2.00002 2.25C1.8011 2.25 1.61033 2.32901 1.46968 2.46966C1.32902 2.61032 1.25 2.80108 1.25 3L2 3ZM22 3.00046H22.75C22.75 2.58626 22.4142 2.25047 22 2.25046L22 3.00046ZM2.5 14.25C2.08579 14.25 1.75 14.5858 1.75 15C1.75 15.4142 2.08579 15.75 2.5 15.75V14.25ZM21.5 15.75C21.9142 15.75 22.25 15.4142 22.25 15C22.25 14.5858 21.9142 14.25 21.5 14.25V15.75ZM22 20.25H2V21.75H22V20.25ZM1.99998 3.75L22 3.75046L22 2.25046L2.00002 2.25L1.99998 3.75ZM2.75 21V3H1.25V21H2.75ZM21.25 3.00046V21H22.75V3.00046H21.25ZM2.5 15.75H21.5V14.25H2.5V15.75Z" fill="#141B34"/>
<path d="M6.00896 18H6M10 18H9.99104" stroke="#141B34" stroke-width="2" stroke-linecap="square" stroke-linejoin="round"/>
<path d="M7 9H9L11 11L13 7L15 10L17 9.97709" stroke="#141B34" stroke-width="1.5" stroke-linejoin="round"/>
</svg>
