<svg width="24" height="24" viewBox="0 0 24 24" fill="none" xmlns="http://www.w3.org/2000/svg">
<path d="M10.1139 19.4399L10.8635 19.466L10.1139 19.4399ZM12.0002 15.5L12.0517 14.7518C12.0174 14.7494 11.983 14.7494 11.9487 14.7518L12.0002 15.5ZM7.13158 20.2396L6.47824 20.6079L6.47824 20.6079L7.13158 20.2396ZM12.6641 4.55032L13.1927 5.08237L13.1927 5.08237L12.6641 4.55032ZM19.5631 4.55032L18.977 5.01834L18.977 5.01837L19.5631 4.55032ZM13.8397 19.4399L13.0901 19.466L13.8397 19.4399ZM16.822 20.2396L16.1687 19.8712L16.1687 19.8712L16.822 20.2396ZM11.9768 5.17632L11.4985 5.75401V5.75401L11.9768 5.17632ZM11.2895 4.55032L10.761 5.08237L10.761 5.08237L11.2895 4.55032ZM5.99239 5.7L6.10322 4.95823L5.24239 4.82961V5.7H5.99239ZM3.00195 8.4L3.03944 7.65094L2.25201 7.61153L2.25195 8.39995L3.00195 8.4ZM9.00018 3L9.00018 2.25L8.25018 2.25V3H9.00018ZM16.8738 20.1478L16.2204 19.7795L16.2204 19.7795L16.8738 20.1478ZM10.8635 19.466C10.8924 18.6342 11.0148 17.7677 11.2637 17.1236C11.5238 16.4508 11.8131 16.2647 12.0517 16.2482L11.9487 14.7518C10.8123 14.83 10.1888 15.7442 9.86462 16.5828C9.52934 17.4501 9.396 18.5062 9.3644 19.4138L10.8635 19.466ZM8.48192 21.75C9.79318 21.75 10.8204 20.7024 10.8635 19.466L9.3644 19.4138C9.34894 19.8578 8.96994 20.25 8.48192 20.25V21.75ZM6.47824 20.6079C6.88303 21.3259 7.66619 21.75 8.48192 21.75V20.25C8.16977 20.25 7.90577 20.0856 7.78491 19.8712L6.47824 20.6079ZM13.1927 5.08237C15.1894 3.09859 17.8 3.54458 18.977 5.01834L20.1491 4.08229C18.3913 1.88126 14.738 1.43261 12.1355 4.01826L13.1927 5.08237ZM14.5892 19.4138C14.5579 18.5134 14.4375 17.4588 14.116 16.5923C13.8048 15.7539 13.195 14.8305 12.0517 14.7518L11.9487 16.2482C12.1803 16.2642 12.4599 16.4411 12.7097 17.1141C12.949 17.759 13.0609 18.627 13.0901 19.466L14.5892 19.4138ZM15.4717 20.25C14.9837 20.25 14.6047 19.8578 14.5892 19.4138L13.0901 19.466C13.1332 20.7024 14.1604 21.75 15.4717 21.75V20.25ZM16.1687 19.8712C16.0478 20.0856 15.7838 20.25 15.4717 20.25V21.75C16.2874 21.75 17.0706 21.3259 17.4754 20.6079L16.1687 19.8712ZM12.4551 5.75401C12.6943 5.55602 12.9404 5.333 13.1927 5.08237L12.1355 4.01826C11.9136 4.23865 11.7009 4.43102 11.4985 4.59863L12.4551 5.75401ZM14.4699 5.46967C14.4481 5.49143 14.3528 5.58105 14.0253 5.50741C13.6785 5.42945 13.1539 5.17724 12.4551 4.59863L11.4985 5.75401C12.2924 6.41137 13.0296 6.821 13.6963 6.97088C14.3822 7.12509 15.0523 7.00857 15.5305 6.53033L14.4699 5.46967ZM12.4551 4.59863C12.2527 4.43102 12.04 4.23865 11.8181 4.01826L10.761 5.08237C11.0132 5.333 11.2594 5.55602 11.4985 5.75401L12.4551 4.59863ZM5.24239 5.7C5.24239 6.46855 5.0326 6.93751 4.73603 7.21303C4.43657 7.49124 3.91689 7.69485 3.03944 7.65094L2.96447 9.14906C4.08525 9.20515 5.06078 8.95876 5.75698 8.31197C6.45608 7.66249 6.74239 6.73145 6.74239 5.7H5.24239ZM8.25018 3C8.25018 3.79166 8.03344 4.3139 7.72814 4.60881C7.43968 4.88745 6.94598 5.08416 6.10322 4.95823L5.88156 6.44177C7.0466 6.61584 8.05679 6.37687 8.77028 5.68768C9.46692 5.01475 9.75018 4.03699 9.75018 3H8.25018ZM11.8181 4.01826C11.6492 3.85037 11.4978 3.68435 11.3142 3.4914C11.14 3.30844 10.9458 3.11114 10.7324 2.93304C10.2965 2.56925 9.738 2.25 9.00018 2.25L9.00018 3.75C9.26236 3.75 9.49107 3.8508 9.7712 4.08461C9.9158 4.20531 10.0617 4.3512 10.2276 4.52551C10.384 4.68983 10.5725 4.89515 10.761 5.08237L11.8181 4.01826ZM2.25195 8.39995C2.25175 11.1828 3.16037 14.7222 6.47824 20.6079L7.78492 19.8713C4.5277 14.0932 3.75178 10.8172 3.75195 8.40005L2.25195 8.39995ZM18.977 5.01837C20.5377 6.97236 20.5141 9.53802 19.7095 12.2771C18.9075 15.007 17.3856 17.7128 16.2204 19.7795L17.5271 20.5162C18.6784 18.4741 20.2904 15.6214 21.1487 12.6999C22.0042 9.78751 22.167 6.60876 20.1491 4.08226L18.977 5.01837ZM16.2204 19.7795L16.1687 19.8712L17.4754 20.6079L17.5271 20.5161L16.2204 19.7795Z" fill="#141B34"/>
</svg>
