<svg width="24" height="24" viewBox="0 0 24 24" fill="none" xmlns="http://www.w3.org/2000/svg">
<path fill-rule="evenodd" clip-rule="evenodd" d="M12 1.25C13.8393 1.24999 15.348 1.24998 16.4854 1.39731C17.6529 1.54853 18.5995 1.86672 19.3488 2.58863C20.102 3.31431 20.4376 4.23743 20.5964 5.37525C20.6164 5.51919 20.6339 5.66833 20.6491 5.8228C20.6685 6.02004 20.6782 6.11866 20.6186 6.18433C20.5591 6.25 20.458 6.25 20.2559 6.25H3.74412C3.54199 6.25 3.44092 6.25 3.38139 6.18433C3.32185 6.11866 3.33154 6.02004 3.35092 5.8228C3.3661 5.66833 3.38356 5.51919 3.40365 5.37525C3.56243 4.23743 3.898 3.31431 4.65121 2.58863C5.40051 1.86672 6.34712 1.54853 7.51458 1.39731C8.652 1.24998 10.1607 1.24999 12 1.25ZM20.6848 7.80794C20.7433 7.86588 20.7441 7.95852 20.7458 8.1438C20.75 8.61355 20.75 9.11476 20.75 9.64905V9.64918V9.64932V9.64945V18.0458C20.75 19.1434 20.7501 20.0553 20.6447 20.7405C20.5356 21.4495 20.2814 22.1395 19.5804 22.5139C18.9553 22.8477 18.2676 22.7798 17.6846 22.6028C17.0949 22.4238 16.4955 22.0989 15.9467 21.7521C15.3926 21.402 14.8494 21.0029 14.377 20.6538C13.9142 20.3117 13.4869 19.9958 13.2031 19.8249C12.8035 19.5843 12.5513 19.4335 12.3467 19.3371C12.158 19.2482 12.0663 19.234 12 19.234C11.9337 19.234 11.842 19.2482 11.6533 19.3371C11.4488 19.4335 11.1965 19.5843 10.7969 19.8249C10.5131 19.9958 10.0858 20.3117 9.623 20.6538C9.15065 21.0029 8.60739 21.402 8.05335 21.7521C7.50454 22.0989 6.90514 22.4238 6.31544 22.6028C5.7324 22.7798 5.04476 22.8477 4.41958 22.5139C3.71857 22.1395 3.46438 21.4495 3.35533 20.7405C3.24993 20.0553 3.24996 19.1433 3.25 18.0458L3.25001 9.64943C3.25 9.115 3.24999 8.61366 3.25424 8.1438C3.25591 7.95852 3.25675 7.86588 3.31522 7.80794C3.37368 7.75 3.46674 7.75 3.65284 7.75H3.65284H20.3472C20.5333 7.75 20.6263 7.75 20.6848 7.80794ZM15.3356 11.9209C15.7061 11.7357 15.8563 11.2852 15.671 10.9147C15.4858 10.5442 15.0353 10.3941 14.6648 10.5793C13.4947 11.1644 12.5318 12.2906 11.8899 13.1892C11.6852 13.4758 11.5062 13.7492 11.3566 13.9901C11.2321 13.8844 11.1111 13.7917 11.0021 13.7128C10.8249 13.5848 10.5462 13.4033 10.347 13.2994C9.97969 13.1079 9.5267 13.2504 9.33518 13.6176C9.14387 13.9845 9.28585 14.437 9.65228 14.6288L9.65212 14.6287C9.73917 14.6809 9.98796 14.8306 10.1233 14.9285C10.4055 15.1325 10.6957 15.3904 10.8726 15.6607C11.0196 15.8854 11.2755 16.0144 11.5436 15.9989C11.8115 15.9834 12.0509 15.8255 12.1711 15.5855C12.2124 15.5081 12.3336 15.2819 12.4149 15.1415C12.5779 14.86 12.815 14.4747 13.1105 14.0611C13.7186 13.2097 14.5057 12.3359 15.3356 11.9209Z" fill="#141B34"/>
</svg>
