<svg width="25" height="24" viewBox="0 0 25 24" fill="none" xmlns="http://www.w3.org/2000/svg">
<path d="M17.0049 4.08864C18.3538 3.4977 19.5992 3.79805 20.6896 4.1026C21.1467 4.22947 21.6583 4.37153 21.9732 4.59893C22.4652 4.95425 22.7873 5.50221 22.8538 6.10628C22.9041 6.5632 22.7591 7.02222 22.647 7.45964C22.3686 8.54536 22.0076 9.76611 20.8104 10.6264C20.3605 10.9496 19.6672 11.3053 19.1128 11.5717C18.5431 11.8455 18.0588 12.0537 17.9945 12.0812L10.7877 15.1767C9.93856 15.5407 9.7505 15.6411 9.6253 15.7875C9.04241 16.469 9.05228 17.6065 8.83976 18.4354C8.73292 18.8521 8.43542 19.3095 8.09399 19.6418C7.77566 19.9517 7.19552 20.365 6.50202 20.221C5.78793 20.0727 5.5566 19.4151 5.47733 18.778L4.9889 15.7141C4.95868 15.5251 4.94357 15.4307 4.89649 15.3499C4.84941 15.2692 4.7746 15.2096 4.62497 15.0902L2.1744 13.1358C1.65847 12.752 1.19319 12.2242 1.42405 11.5279C1.64815 10.8519 2.30797 10.5637 2.73301 10.4482C3.19402 10.323 3.73985 10.2983 4.15316 10.4137C4.99273 10.6482 5.98241 11.2259 6.88014 11.0671C7.07419 11.0328 7.25705 10.9213 7.99992 10.3785L14.3201 5.76756C14.3766 5.72623 14.8015 5.41643 15.3267 5.06641C15.8379 4.72579 16.4966 4.31128 17.0049 4.08864Z" fill="#141B34"/>
<g opacity="0.4">
<path d="M13.3212 15.4496C12.928 15.6185 12.7313 15.703 12.651 15.8772C12.5706 16.0515 12.634 16.2558 12.7607 16.6646L14.0093 20.6918C14.1165 21.0375 14.3325 21.4833 14.8141 21.6714C15.2947 21.8591 15.7498 21.6764 16.0444 21.5075C16.5558 21.2143 16.9809 20.8603 17.2707 20.3718C17.5601 19.8838 17.6711 19.3346 17.6849 18.7277L17.7886 14.147C17.7949 13.8668 17.7981 13.7267 17.7076 13.6656C17.6171 13.6045 17.4883 13.6598 17.2308 13.7704L13.3212 15.4496Z" fill="#141B34"/>
<path d="M8.52069 2.73758C7.96264 2.43133 7.40964 2.24499 6.82105 2.2501C6.23131 2.25523 5.69086 2.4518 5.15734 2.7604C4.85099 2.93761 4.45634 3.24839 4.37833 3.76936C4.30046 4.28938 4.58454 4.70904 4.84088 4.98554L7.66697 7.99088C7.95491 8.2971 8.09889 8.4502 8.28719 8.46775C8.47549 8.4853 8.64527 8.36143 8.98484 8.1137L12.4826 5.56187C12.7113 5.39504 12.8256 5.31163 12.8186 5.20198C12.8115 5.09234 12.6875 5.02425 12.4393 4.88806L8.52069 2.73758Z" fill="#141B34"/>
</g>
</svg>
