<svg width="24" height="24" viewBox="0 0 24 24" fill="none" xmlns="http://www.w3.org/2000/svg">
<path opacity="0.4" d="M3.87898 6.53996C4.88521 5.28308 6.33325 4.375 8 4.375C9.61924 4.375 11.0253 5.21837 12 6.08712C12.9747 5.21837 14.3808 4.375 16 4.375C17.6667 4.375 19.1148 5.28308 20.121 6.53996C21.1281 7.79785 21.75 9.46874 21.75 11.1528C21.75 14.7733 21.2275 17.4407 19.1249 20.6092C19.1173 20.6207 19.1093 20.6321 19.101 20.6432C18.266 21.7616 17.2346 22.5356 16.0389 22.7875C14.8331 23.0415 13.5828 22.739 12.3732 21.9415C12.1619 21.8022 11.8381 21.8022 11.6268 21.9415C10.4172 22.739 9.1669 23.0415 7.96114 22.7875C6.76542 22.5356 5.73397 21.7616 4.899 20.6432C4.89072 20.6321 4.88274 20.6207 4.87508 20.6092C2.77251 17.4407 2.25 14.7733 2.25 11.1528C2.25 9.46874 2.87194 7.79785 3.87898 6.53996Z" fill="#141B34"/>
<path fill-rule="evenodd" clip-rule="evenodd" d="M8.84891 7.5966C9.14081 8.06544 8.99738 8.68214 8.52854 8.97404C7.69734 9.49155 7 10.7698 7 12.1251C7 12.6774 6.55228 13.1251 6 13.1251C5.44772 13.1251 5 12.6774 5 12.1251C5 10.2134 5.94812 8.22468 7.47146 7.27623C7.9403 6.98432 8.55701 7.12776 8.84891 7.5966Z" fill="#141B34"/>
<path fill-rule="evenodd" clip-rule="evenodd" d="M13.0836 5.27369C13.1576 4.87913 13.2846 4.46186 13.4799 4.10015C13.8055 3.49706 14.2623 3.125 15 3.125C15.5523 3.125 16 2.67728 16 2.125C16 1.57272 15.5523 1.125 15 1.125C13.3376 1.125 12.2944 2.08628 11.7201 3.14985C11.3295 3.8731 11.1308 4.67468 11.0482 5.35751C11.3982 5.58527 11.7172 5.83513 12 6.08712C12.3178 5.80382 12.6816 5.52323 13.0836 5.27369Z" fill="#141B34"/>
</svg>
