<svg width="24" height="24" viewBox="0 0 24 24" fill="none" xmlns="http://www.w3.org/2000/svg">
<path opacity="0.4" fill-rule="evenodd" clip-rule="evenodd" d="M4 7C4 7.55228 4.44772 8 5 8L20 8C20.5523 8 21 7.55228 21 7C21 6.44771 20.5523 6 20 6L5 6C4.44772 6 4 6.44772 4 7Z" fill="#141B34"/>
<path opacity="0.4" fill-rule="evenodd" clip-rule="evenodd" d="M20 17C20 16.4477 19.5523 16 19 16L4 16C3.44772 16 3 16.4477 3 17C3 17.5523 3.44772 18 4 18L19 18C19.5523 18 20 17.5523 20 17Z" fill="#141B34"/>
<path d="M3.36083 6.05993C3.20224 6.25344 3 6.5672 3 7.00002C3 7.43284 3.20224 7.7466 3.36083 7.94011C3.49446 8.10316 3.67386 8.26998 3.82589 8.41133L6.31861 10.7319C6.60989 11.0031 7.03424 11.0758 7.39913 10.9169C7.76402 10.7581 8 10.398 8 10L8 4.00002C8 3.60205 7.76402 3.24197 7.39913 3.08313C7.03424 2.92429 6.60989 2.99693 6.31861 3.2681L3.82589 5.58871C3.67387 5.73007 3.49446 5.89688 3.36083 6.05993Z" fill="#141B34"/>
<path d="M16.6009 13.0831C16.236 13.242 16 13.6021 16 14L16 20C16 20.398 16.236 20.7581 16.6009 20.9169C16.9658 21.0758 17.3901 21.0031 17.6814 20.7319L20.1741 18.4113C20.3261 18.27 20.5055 18.1032 20.6392 17.9401C20.7978 17.7466 21 17.4328 21 17C21 16.5672 20.7978 16.2534 20.6392 16.0599C20.5055 15.8969 20.3261 15.7301 20.1741 15.5887L17.6814 13.2681C17.3901 12.9969 16.9658 12.9243 16.6009 13.0831Z" fill="#141B34"/>
</svg>
