<svg width="24" height="24" viewBox="0 0 24 24" fill="none" xmlns="http://www.w3.org/2000/svg">
<path opacity="0.4" fill-rule="evenodd" clip-rule="evenodd" d="M12 21C11.4477 21 11 20.5523 11 20L11 4C11 3.44772 11.4477 3 12 3C12.5523 3 13 3.44772 13 4L13 20C13 20.5523 12.5523 21 12 21Z" fill="#141B34"/>
<path d="M8.08313 17.6009C8.24197 17.236 8.60205 17 9.00002 17L15 17C15.398 17 15.7581 17.236 15.9169 17.6009C16.0758 17.9658 16.0031 18.3901 15.7319 18.6814L13.4113 21.1741C13.27 21.3261 13.1032 21.5055 12.9401 21.6392C12.7466 21.7978 12.4328 22 12 22C11.5672 22 11.2534 21.7978 11.0599 21.6392C10.8969 21.5055 10.7301 21.3261 10.5887 21.1741L8.2681 18.6814C7.99693 18.3901 7.92429 17.9658 8.08313 17.6009Z" fill="#141B34"/>
<path d="M8.08313 6.39913C7.92429 6.03424 7.99693 5.60989 8.2681 5.31861L10.5887 2.82589L10.5887 2.82588C10.7301 2.67386 10.8969 2.49446 11.0599 2.36083C11.2534 2.20224 11.5672 2 12 2C12.4328 2 12.7466 2.20224 12.9401 2.36083C13.1032 2.49446 13.27 2.67386 13.4113 2.82588L13.4113 2.82588L15.7319 5.31861C16.0031 5.60989 16.0758 6.03424 15.9169 6.39913C15.7581 6.76402 15.398 7 15 7L9.00002 7C8.60205 7 8.24197 6.76402 8.08313 6.39913Z" fill="#141B34"/>
</svg>
