<svg width="24" height="24" viewBox="0 0 24 24" fill="none" xmlns="http://www.w3.org/2000/svg">
<path opacity="0.4" d="M15.9025 1.36447C16.6463 1.18671 17.4257 1.15915 18.0566 1.70759C18.677 2.2469 18.7819 3.02244 18.7427 3.79797C18.7041 4.56275 18.5101 5.55773 18.2727 6.77532L18.2727 6.77535L16.0568 18.1434C15.9881 18.4956 15.6795 18.7499 15.3206 18.7499H8.66899C8.31073 18.7499 8.0025 18.4965 7.93317 18.145L6.93472 13.0832C6.6115 11.4446 6.3558 10.1483 6.27637 9.09267C6.19471 8.00736 6.29026 7.08769 6.73889 6.23247C7.18892 5.37457 7.88701 4.7858 8.81816 4.26199C9.71974 3.75482 10.9119 3.27055 12.412 2.66117L12.412 2.66116L13.1487 2.36188C14.2608 1.91008 15.177 1.53788 15.9025 1.36447Z" fill="#141B34"/>
<path fill-rule="evenodd" clip-rule="evenodd" d="M8.9384 16.9993C8.28428 16.9992 7.69656 16.9992 7.22085 17.0631C6.70149 17.1329 6.16868 17.2951 5.73224 17.7315C5.2958 18.1679 5.13367 18.7008 5.06384 19.2201C5.00609 19.6497 5.00053 20.1706 5.00004 20.7493H4.44444C3.92284 20.7493 3.5 21.197 3.5 21.7493C3.5 22.3016 3.92284 22.7493 4.44444 22.7493L19.5556 22.7493C20.0772 22.7493 20.5 22.3016 20.5 21.7493C20.5 21.197 20.0772 20.7493 19.5556 20.7493H19C18.9995 20.1706 18.9939 19.6497 18.9362 19.2201C18.8663 18.7008 18.7042 18.1679 18.2678 17.7315C17.8313 17.2951 17.2985 17.1329 16.7792 17.0631C16.3035 16.9992 15.7157 16.9992 15.0616 16.9993H8.9384ZM16.9999 20.7493C16.9989 20.1586 16.9927 19.7742 16.954 19.4866C16.9154 19.1998 16.8606 19.1519 16.8541 19.1462L16.8531 19.1452C16.8474 19.1387 16.7995 19.0838 16.5127 19.0453C16.1863 19.0014 15.7354 18.9993 15 18.9993H9.00001C8.26463 18.9993 7.8137 19.0014 7.48735 19.0453C7.2005 19.0838 7.15261 19.1387 7.14692 19.1452L7.14593 19.1462C7.13942 19.1519 7.08457 19.1998 7.04601 19.4866C7.00734 19.7742 7.0011 20.1586 7.00016 20.7493L16.9999 20.7493Z" fill="#141B34"/>
</svg>
