<svg width="24" height="24" viewBox="0 0 24 24" fill="none" xmlns="http://www.w3.org/2000/svg">
<path opacity="0.4" d="M1.20996 11.96C1.20996 6.0229 6.0229 1.20996 11.96 1.20996C17.897 1.20996 22.71 6.0229 22.71 11.96C22.71 17.897 17.897 22.71 11.96 22.71C6.0229 22.71 1.20996 17.897 1.20996 11.96Z" fill="#141B34"/>
<path fill-rule="evenodd" clip-rule="evenodd" d="M22.6644 12.9566C22.6945 12.6285 22.71 12.296 22.71 11.96C22.71 11.6216 22.6943 11.2869 22.6637 10.9565L21.3574 10.9415C20.8051 10.9351 20.3523 11.3777 20.346 11.9299C20.3396 12.4822 20.7822 12.935 21.3344 12.9413L22.6644 12.9566ZM10.9628 1.2556C11.2911 1.2254 11.6237 1.20996 11.96 1.20996C12.2981 1.20996 12.6327 1.22558 12.9629 1.25613L12.9751 2.50557C12.9805 3.05783 12.5371 3.50989 11.9849 3.51527C11.4326 3.52065 10.9805 3.07732 10.9752 2.52506L10.9628 1.2556ZM1.25618 12.9634C1.22559 12.633 1.20996 12.2983 1.20996 11.96C1.20996 11.6239 1.22538 11.2915 1.25555 10.9633L2.5855 10.9786C3.13775 10.9849 3.58029 11.4377 3.57395 11.99C3.5676 12.5422 3.11477 12.9848 2.56252 12.9784L1.25618 12.9634ZM12.9571 22.6643C12.6288 22.6945 12.2962 22.71 11.96 22.71C11.6218 22.71 11.2872 22.6943 10.957 22.6638L10.9448 21.4144C10.9395 20.8621 11.3828 20.41 11.9351 20.4047C12.4873 20.3993 12.9394 20.8426 12.9448 21.3949L12.9571 22.6643ZM19.5623 11.7224C19.3778 12.243 18.8063 12.5155 18.2857 12.3311C17.9176 12.2007 17.5586 12.0512 17.2097 11.884C16.7117 11.6452 16.5016 11.048 16.7403 10.5499C16.9791 10.0519 17.5764 9.84179 18.0744 10.0806C18.3595 10.2173 18.6529 10.3394 18.9536 10.4459C19.4742 10.6303 19.7467 11.2018 19.5623 11.7224ZM16.0177 10.0653C15.6483 10.4759 15.016 10.5093 14.6054 10.14C14.3197 9.88293 14.0475 9.61112 13.7901 9.32576C13.4201 8.91568 13.4527 8.28335 13.8628 7.91341C14.2729 7.54348 14.9052 7.57602 15.2751 7.9861C15.486 8.21987 15.709 8.44254 15.943 8.6531C16.3536 9.02248 16.387 9.65476 16.0177 10.0653ZM13.3466 7.14094C12.8475 7.37746 12.2512 7.16461 12.0146 6.66553C11.8613 6.34188 11.7232 6.00949 11.6014 5.66932C11.4152 5.14938 11.6857 4.57693 12.2056 4.39072C12.7256 4.20451 13.298 4.47505 13.4843 4.995C13.5838 5.27288 13.6966 5.54448 13.822 5.80903C14.0585 6.30811 13.8456 6.90443 13.3466 7.14094ZM4.35765 12.1975C4.54209 11.6769 5.11361 11.4044 5.63419 11.5889C6.0023 11.7193 6.36136 11.8687 6.71019 12.0359C7.20819 12.2747 7.41834 12.872 7.17958 13.37C6.94081 13.868 6.34354 14.0781 5.84553 13.8394C5.5604 13.7027 5.267 13.5806 4.9663 13.474C4.44572 13.2896 4.17322 12.7181 4.35765 12.1975ZM7.90227 13.8546C8.27164 13.444 8.90392 13.4106 9.31451 13.78C9.60023 14.037 9.87241 14.3088 10.1298 14.5942C10.4998 15.0042 10.4672 15.6366 10.0571 16.0065C9.64707 16.3764 9.01474 16.3439 8.6448 15.9338C8.43392 15.7001 8.21095 15.4774 7.97689 15.2668C7.56631 14.8974 7.5329 14.2652 7.90227 13.8546ZM10.5734 16.779C11.0724 16.5425 11.6688 16.7553 11.9053 17.2544C12.0587 17.578 12.1967 17.9104 12.3186 18.2506C12.5048 18.7705 12.2342 19.343 11.7143 19.5292C11.1943 19.7154 10.6219 19.4449 10.4357 18.9249C10.3361 18.647 10.2233 18.3754 10.098 18.1109C9.86144 17.6118 10.0743 17.0155 10.5734 16.779Z" fill="#141B34"/>
</svg>
