<svg width="24" height="24" viewBox="0 0 24 24" fill="none" xmlns="http://www.w3.org/2000/svg">
<path opacity="0.4" d="M1.25 12C1.25 6.06294 6.06294 1.25 12 1.25C12.8796 1.25 13.242 2.15503 12.9902 2.7711C12.8356 3.14922 12.75 3.56368 12.75 4C12.75 5.79493 14.2051 7.25 16 7.25C16.4465 7.25 16.8701 7.16039 17.2554 6.99889C17.6386 6.83822 18.0199 6.93866 18.2728 7.1119C18.525 7.28467 18.75 7.59735 18.75 8C18.75 9.24264 19.7574 10.25 21 10.25C21.0859 10.25 21.1704 10.2452 21.2533 10.236C21.8616 10.1681 22.6886 10.5512 22.7348 11.4229C22.7449 11.614 22.75 11.8064 22.75 12C22.75 17.9371 17.9371 22.75 12 22.75C6.06294 22.75 1.25 17.9371 1.25 12Z" fill="#141B34"/>
<path fill-rule="evenodd" clip-rule="evenodd" d="M15.0078 11C15.0078 11.5523 14.5601 12 14.0078 12L13.9988 12C13.4465 12 12.9988 11.5523 12.9988 11C12.9988 10.4477 13.4465 10 13.9988 10L14.0078 10C14.5601 10 15.0078 10.4477 15.0078 11Z" fill="#141B34"/>
<path fill-rule="evenodd" clip-rule="evenodd" d="M9.00781 16C9.00781 16.5523 8.5601 17 8.00781 17L7.99883 17C7.44655 17 6.99883 16.5523 6.99883 16C6.99883 15.4477 7.44655 15 7.99883 15L8.00781 15C8.5601 15 9.00781 15.4477 9.00781 16Z" fill="#141B34"/>
<path fill-rule="evenodd" clip-rule="evenodd" d="M6.83059 7.52969C7.37551 7.22105 8.06466 7.12144 8.69214 7.47098C9.29937 7.80923 9.60898 8.43578 9.70959 9.04586C9.81178 9.66551 9.7201 10.3593 9.43729 11C9.15521 11.6391 8.70877 12.1653 8.16945 12.4708C7.62453 12.7794 6.93538 12.8791 6.30789 12.5295C5.70067 12.1913 5.39105 11.5647 5.29045 10.9546C5.18826 10.335 5.27994 9.64124 5.56275 9.00048C5.84483 8.36137 6.29127 7.83516 6.83059 7.52969ZM7.56985 8.83487C7.35698 8.95544 7.10977 9.21025 6.93503 9.60616C6.76102 10.0004 6.71919 10.3997 6.77046 10.7106C6.8233 11.031 6.95409 11.1725 7.03784 11.2191C7.10134 11.2545 7.22292 11.283 7.43019 11.1656C7.64305 11.0451 7.89027 10.7902 8.06501 10.3943C8.23902 10.0001 8.28085 9.60079 8.22958 9.28992C8.17674 8.96948 8.04595 8.82804 7.96219 8.78139C7.8987 8.74602 7.77712 8.71748 7.56985 8.83487Z" fill="#141B34"/>
<path fill-rule="evenodd" clip-rule="evenodd" d="M12.5106 15.5271C13.0717 14.4439 14.4035 13.9277 15.527 14.4609C16.6718 15.0042 17.0582 16.375 16.4893 17.4733C15.9281 18.5565 14.5963 19.0727 13.4729 18.5396C12.328 17.9962 11.9416 16.6254 12.5106 15.5271ZM14.8838 15.816C14.5454 15.6554 14.0605 15.7962 13.8425 16.2171C13.6322 16.623 13.7991 17.034 14.116 17.1844C14.4544 17.345 14.9393 17.2043 15.1574 16.7833C15.3677 16.3774 15.2007 15.9664 14.8838 15.816Z" fill="#141B34"/>
</svg>
