<svg width="24" height="24" viewBox="0 0 24 24" fill="none" xmlns="http://www.w3.org/2000/svg">
<path opacity="0.4" d="M14.3152 1.49049C14.6427 1.5596 14.8064 1.59415 14.8729 1.71365C14.9393 1.83314 14.8724 2.0177 14.7386 2.38683C14.5844 2.81228 14.5003 3.27132 14.5003 3.75C14.5003 4.64377 14.7935 5.46908 15.2889 6.13502C15.3246 6.18305 15.3425 6.20707 15.3481 6.21595C15.4446 6.36675 15.4145 6.51999 15.2681 6.62301C15.2595 6.62908 15.236 6.64323 15.1891 6.67153C14.9352 6.81648 14.159 7.2597 13.6763 7.74206C13.3618 8.05636 12.8598 8.66278 12.7655 9.54422C12.6585 10.5434 13.1217 11.3526 13.6762 11.892C14.2894 12.4885 15.3112 13.25 16.7858 13.25H20.2151C20.7141 13.25 21.1613 13.1628 21.5584 13.0243C22.1329 12.8238 22.4202 12.7235 22.5519 12.8404C22.6836 12.9572 22.6286 13.2078 22.5185 13.7089C21.4887 18.3974 17.1468 21.8834 12 21.8834C11.3041 21.8843 10.6103 21.8199 9.92698 21.6916C9.68979 21.647 9.53909 21.6189 9.42696 21.6036C9.34334 21.5907 9.25931 21.6219 9.22775 21.6391C9.11322 21.6935 8.96068 21.7744 8.72714 21.8986C7.29542 22.66 5.62504 22.93 4.01396 22.6303C3.75381 22.5819 3.5384 22.4 3.44713 22.1517C3.35586 21.9033 3.40224 21.6252 3.56917 21.4199C4.03697 20.8445 4.35863 20.1513 4.50088 19.4052C4.53937 19.2 4.45227 18.9213 4.18451 18.6494C2.36972 16.8065 1.25 14.3144 1.25 11.5667C1.25 5.83838 6.09523 1.25 12 1.25C12.794 1.25 13.5688 1.33296 14.3152 1.49049Z" fill="#141B34"/>
<path fill-rule="evenodd" clip-rule="evenodd" d="M6 12C6 11.4477 6.44772 11 7 11H7.00897C7.56126 11 8.00897 11.4477 8.00897 12C8.00897 12.5523 7.56126 13 7.00897 13H7C6.44772 13 6 12.5523 6 12ZM9.99551 12C9.99551 11.4477 10.4432 11 10.9955 11H11.0045C11.5568 11 12.0045 11.4477 12.0045 12C12.0045 12.5523 11.5568 13 11.0045 13H10.9955C10.4432 13 9.99551 12.5523 9.99551 12Z" fill="#141B34"/>
<path d="M15.9658 7.9551C17.5122 7.01497 19.4879 7.01497 21.0343 7.9551C21.3035 8.10933 21.9303 8.46968 22.2639 8.80305C22.4764 9.01542 22.7024 9.31892 22.7436 9.70389C22.7878 10.1169 22.6074 10.4968 22.2784 10.8168C21.7958 11.2863 21.1306 11.75 20.2147 11.75H16.7854C15.8695 11.75 15.2044 11.2863 14.7217 10.8168C14.3928 10.4968 14.2124 10.1169 14.2566 9.70389C14.2978 9.31892 14.5238 9.01542 14.7363 8.80305C15.0699 8.46967 15.6967 8.10933 15.9658 7.9551Z" fill="#141B34"/>
<path d="M18.5 6.25C19.8807 6.25 21 5.13071 21 3.75C21 2.36929 19.8807 1.25 18.5 1.25C17.1193 1.25 16 2.36929 16 3.75C16 5.13071 17.1193 6.25 18.5 6.25Z" fill="#141B34"/>
</svg>
