<svg width="24" height="24" viewBox="0 0 24 24" fill="none" xmlns="http://www.w3.org/2000/svg">
<path opacity="0.4" fill-rule="evenodd" clip-rule="evenodd" d="M13.0001 2.12482C13.0001 1.57253 12.5524 1.12482 12.0001 1.12482C11.4478 1.12482 11.0001 1.57253 11.0001 2.12482V3.23296C9.94691 3.46451 9.03204 4.05328 8.40185 4.85746L7.55481 4.29277C7.09528 3.98641 6.47441 4.11059 6.16806 4.57012C5.8617 5.02965 5.98588 5.65051 6.44541 5.95687L7.56573 6.70375C7.47603 7.19575 7.47385 7.71551 7.57523 8.2475L7.7937 9.3939L6.44541 10.2928C5.98588 10.5991 5.8617 11.22 6.16806 11.6795C6.47441 12.139 7.09528 12.2632 7.55481 11.9569L8.20014 11.5266L8.92152 15.312C9.0249 15.8545 9.54852 16.2105 10.091 16.1071C10.6336 16.0038 10.9895 15.4801 10.8862 14.9376L9.53988 7.8731C9.27742 6.4959 10.3864 5.12482 12.0001 5.12482C13.6138 5.12482 14.7228 6.4959 14.4603 7.87309L13.1141 14.9376C13.0107 15.4801 13.3667 16.0038 13.9092 16.1071C14.4517 16.2105 14.9753 15.8545 15.0787 15.312L15.8001 11.5266L16.4454 11.9569C16.9049 12.2632 17.5258 12.139 17.8322 11.6795C18.1385 11.22 18.0143 10.5991 17.5548 10.2928L16.2065 9.3939L16.425 8.2475C16.5264 7.71551 16.5242 7.19574 16.4345 6.70375L17.5548 5.95687C18.0143 5.65051 18.1385 5.02964 17.8322 4.57012C17.5258 4.11059 16.9049 3.98641 16.4454 4.29277L15.5984 4.85746C14.9682 4.05328 14.0533 3.46451 13.0001 3.23296V2.12482ZM13 12.1248C13 11.5725 12.5523 11.1248 12 11.1248C11.4477 11.1248 11 11.5725 11 12.1248V15.1248C11 15.6771 11.4477 16.1248 12 16.1248C12.5523 16.1248 13 15.6771 13 15.1248V12.1248Z" fill="#141B34"/>
<path d="M13.2042 14.375C14.1852 14.375 14.9949 14.375 15.6196 14.4558C16.2616 14.5389 16.8737 14.7248 17.3079 15.2364C17.7607 15.7698 17.8026 16.3975 17.7094 17.0138C17.6226 17.5872 17.3956 18.2931 17.1302 19.1184L17.1302 19.1184C16.9202 19.7717 16.6146 20.7223 16.4096 21.1609C16.1892 21.6323 15.9112 22.0316 15.4687 22.3328C15.0294 22.6228 14.5087 22.7661 13.9686 22.8217C13.4516 22.875 12.8136 22.875 12.0395 22.875H12.0395H11.9609H11.9609C11.1868 22.875 10.5488 22.875 10.0318 22.8217C9.4917 22.7661 9.00184 22.6435 8.56254 22.3535C8.12007 22.0523 7.81115 21.6323 7.59081 21.1609C7.38576 20.7223 7.08021 19.7717 6.87022 19.1185C6.60483 18.2931 6.37783 17.5872 6.29104 17.0138C6.19776 16.3975 6.23973 15.7698 6.69249 15.2364C7.12669 14.7248 7.73876 14.5389 8.38084 14.4558C9.00553 14.375 9.81522 14.375 10.7962 14.375H10.7962H13.2042H13.2042Z" fill="#141B34"/>
</svg>
