<svg width="24" height="24" viewBox="0 0 24 24" fill="none" xmlns="http://www.w3.org/2000/svg">
<path opacity="0.4" d="M7.09502 12.9936C10.221 12.1683 13.7822 12.1693 16.9045 12.9936C18.4632 13.4051 19.5648 13.9323 20.5661 14.5801C22.2303 15.6569 22.906 17.5712 22.7194 19.3548C22.6647 19.8782 22.4117 20.3411 21.9755 20.6203C21.5471 20.8947 21.0336 20.9336 20.5589 20.8022L19.1326 20.4074C18.6143 20.264 18.1677 20.1404 17.812 19.9984C17.4312 19.8465 17.0844 19.6479 16.8071 19.3149C16.5286 18.9804 16.3983 18.6044 16.3231 18.2039C16.2534 17.8327 16.2212 17.379 16.1841 16.8572L16.0692 15.2393C16.0537 15.0208 16.0459 14.9115 15.9776 14.8351C15.9093 14.7587 15.804 14.7392 15.5934 14.7002C13.2541 14.2668 10.7473 14.2664 8.40613 14.7002C8.19551 14.7392 8.0902 14.7587 8.02191 14.8351C7.95363 14.9115 7.94587 15.0208 7.93035 15.2393L7.81543 16.8572C7.77839 17.379 7.74619 17.8327 7.67645 18.2039C7.6012 18.6044 7.47095 18.9804 7.1924 19.3149C6.91513 19.6479 6.56838 19.8465 6.18759 19.9984C5.83185 20.1404 5.38528 20.2639 4.86696 20.4074L4.86693 20.4074L3.44063 20.8022C2.96597 20.9336 2.45243 20.8947 2.02401 20.6203C1.58789 20.3411 1.33489 19.8782 1.28013 19.3548C1.09352 17.5712 1.76928 15.6569 3.43349 14.5801C4.43471 13.9323 5.53637 13.4051 7.09502 12.9936Z" fill="#141B34"/>
<path fill-rule="evenodd" clip-rule="evenodd" d="M12.0002 3.125C12.5524 3.125 13.0002 3.57272 13.0002 4.125V6.98214C13.0002 7.53443 12.5524 7.98214 12.0002 7.98214C11.4479 7.98214 11.0002 7.53443 11.0002 6.98214V4.125C11.0002 3.57272 11.4479 3.125 12.0002 3.125ZM5.14087 7.18492C5.42337 6.71036 6.03709 6.55465 6.51166 6.83715L8.91153 8.26572C9.3861 8.54821 9.5418 9.16194 9.25931 9.6365C8.97681 10.1111 8.36309 10.2668 7.88852 9.98428L5.48865 8.55571C5.01408 8.27321 4.85838 7.65949 5.14087 7.18492ZM18.8594 7.18492C19.1419 7.65949 18.9862 8.27321 18.5117 8.55571L16.1118 9.98428C15.6372 10.2668 15.0235 10.1111 14.741 9.6365C14.4585 9.16194 14.6142 8.54821 15.0888 8.26572L17.4887 6.83715C17.9632 6.55465 18.5769 6.71036 18.8594 7.18492Z" fill="#141B34"/>
</svg>
