<svg width="24" height="24" viewBox="0 0 24 24" fill="none" xmlns="http://www.w3.org/2000/svg">
<path fill-rule="evenodd" clip-rule="evenodd" d="M16.113 2.57974L14.0419 2.04242C12.6949 1.69291 11.6125 1.41208 10.7314 1.30215C9.81913 1.18832 9.01412 1.2414 8.27053 1.65708C7.32475 2.1858 6.83861 3.1017 6.42968 4.29128C6.91167 4.26335 7.44957 4.25431 8.04665 4.25139C8.34804 3.52074 8.63265 3.17312 9.00246 2.96639C9.35469 2.76948 9.79309 2.6967 10.5457 2.79061C11.3184 2.88701 12.3061 3.14172 13.7169 3.50776L15.6841 4.01813C17.0952 4.38422 18.0818 4.64176 18.8002 4.93213C19.5009 5.21535 19.8361 5.48825 20.0339 5.81996C20.2295 6.14804 20.3044 6.5562 20.2087 7.27546C20.1099 8.01803 19.8483 8.96943 19.4698 10.3374L18.4156 14.1468C18.1561 15.0845 17.95 15.8262 17.75 16.4228C17.7492 17.6217 17.7395 18.6039 17.6336 19.3918C17.6316 19.4066 17.6296 19.4214 17.6275 19.4361C18.1809 19.0227 18.5507 18.4487 18.8516 17.7507C19.1954 16.9532 19.4863 15.9018 19.8464 14.6007L20.9305 10.6831L20.9305 10.6831C21.2904 9.38247 21.5814 8.33095 21.6956 7.47334C21.8144 6.5805 21.7593 5.78472 21.3223 5.05175C20.8874 4.32243 20.2107 3.88436 19.3623 3.54143C18.5421 3.20993 17.4596 2.9291 16.113 2.57974Z" fill="#141B34"/>
<path opacity="0.4" d="M11.0549 4.25C12.4225 4.24998 13.5248 4.24996 14.3918 4.36652C15.2919 4.48754 16.0497 4.74643 16.6517 5.34835C17.2536 5.95027 17.5125 6.70814 17.6335 7.60825C17.75 8.47522 17.75 9.57754 17.75 10.9451V10.9451V16.0549V16.0549C17.75 17.4225 17.75 18.5248 17.6335 19.3918C17.5125 20.2919 17.2536 21.0497 16.6517 21.6517C16.0497 22.2536 15.2919 22.5125 14.3918 22.6335C13.5248 22.75 12.4225 22.75 11.0549 22.75H8.94513C7.57754 22.75 6.47522 22.75 5.60825 22.6335C4.70814 22.5125 3.95027 22.2536 3.34835 21.6517C2.74643 21.0497 2.48754 20.2919 2.36652 19.3918C2.24996 18.5248 2.24998 17.4225 2.25 16.0549V16.0549V10.9451V10.9451C2.24998 9.57753 2.24996 8.47521 2.36652 7.60825C2.48754 6.70814 2.74643 5.95027 3.34835 5.34835C3.95027 4.74643 4.70814 4.48754 5.60825 4.36652C6.47521 4.24996 7.57753 4.24998 8.94511 4.25H8.94513H11.0549H11.0549Z" fill="#141B34"/>
<path d="M8.80607 9.76823C9.11297 9.49258 9.49641 9.25 10 9.25C10.5036 9.25 10.887 9.49258 11.1939 9.76823C11.4762 10.0217 12.2215 10.9114 12.5581 11.3133C12.8826 11.7006 13.1692 12.0426 13.3687 12.3511C13.5851 12.6858 13.75 13.0552 13.75 13.5C13.75 13.9448 13.5851 14.3142 13.3687 14.6489C13.1692 14.9575 12.8826 15.2995 12.5581 15.6868C12.2214 16.0886 11.4762 16.9783 11.1939 17.2318C10.887 17.5074 10.5036 17.75 10 17.75C9.49641 17.75 9.11297 17.5074 8.80607 17.2318C8.52382 16.9783 8.22135 16.6172 7.88471 16.2153C7.56018 15.828 6.8308 14.9574 6.63128 14.6489C6.41488 14.3142 6.25 13.9448 6.25 13.5C6.25 13.0552 6.41488 12.6858 6.63128 12.3511C6.8308 12.0426 7.56018 11.172 7.88471 10.7847C8.22135 10.3828 8.52382 10.0217 8.80607 9.76823Z" fill="#141B34"/>
</svg>
