<svg width="24" height="24" viewBox="0 0 24 24" fill="none" xmlns="http://www.w3.org/2000/svg">
<path opacity="0.4" d="M1.25 12C1.25 6.06294 6.06294 1.25 12 1.25C17.9371 1.25 22.75 6.06294 22.75 12C22.75 17.9371 17.9371 22.75 12 22.75C6.06294 22.75 1.25 17.9371 1.25 12Z" fill="#141B34"/>
<path d="M15.2668 6.82222C14.8925 6.34371 14.2012 6.25923 13.7227 6.63353C13.4411 6.8538 13.2961 7.18416 13.3005 7.51486V8.44541L9.60039 8.4454C8.69387 8.4454 7.82274 8.69158 7.31663 9.51039C6.90985 10.1685 6.90039 11.0005 6.90039 11.5909C6.90039 12.1984 7.39288 12.6909 8.00039 12.6909C8.6079 12.6909 9.10039 12.1984 9.10039 11.5909C9.10039 11.2604 9.1133 11.0371 9.13414 10.8852C9.14851 10.7804 9.16507 10.7225 9.17627 10.6928C9.22493 10.6751 9.34648 10.6454 9.60039 10.6454H14.8976C15.1336 10.6454 15.4055 10.6333 15.6571 10.5714C15.8765 10.5175 16.3649 10.3563 16.6143 9.83412C16.8615 9.31661 16.685 8.83785 16.5928 8.63518C16.486 8.40048 16.3284 8.17939 16.1822 7.99241L15.2668 6.82222Z" fill="#141B34"/>
<path d="M16.0004 11.309C15.3929 11.309 14.9004 11.8015 14.9004 12.409C14.9004 12.7394 14.8875 12.9627 14.8666 13.1147C14.8523 13.2195 14.8357 13.2773 14.8245 13.3071C14.7759 13.3248 14.6543 13.3544 14.4004 13.3544L9.10313 13.3544C8.86716 13.3544 8.59533 13.3665 8.34369 13.4284C8.12426 13.4824 7.63586 13.6436 7.38645 14.1657C7.13925 14.6832 7.31579 15.162 7.40798 15.3647C7.51474 15.5994 7.67236 15.8204 7.81863 16.0074L8.73397 17.1776C9.10827 17.6561 9.79961 17.7406 10.2781 17.3663C10.5597 17.146 10.7046 16.8157 10.7003 16.485V15.5544H14.4004C15.3069 15.5544 16.178 15.3083 16.6842 14.4894C17.0909 13.8313 17.1004 12.9993 17.1004 12.409C17.1004 11.8015 16.6079 11.309 16.0004 11.309Z" fill="#141B34"/>
</svg>
