<svg width="24" height="24" viewBox="0 0 24 24" fill="none" xmlns="http://www.w3.org/2000/svg">
<path opacity="0.4" d="M1.25 12C1.25 6.06294 6.06294 1.25 12 1.25C17.9371 1.25 22.75 6.06294 22.75 12C22.75 17.9371 17.9371 22.75 12 22.75C6.06294 22.75 1.25 17.9371 1.25 12Z" fill="#141B34"/>
<path fill-rule="evenodd" clip-rule="evenodd" d="M9.38268 9.07615C9.75636 9.23093 10 9.59557 10 10V11H14V10C14 9.59557 14.2436 9.23093 14.6173 9.07615C14.991 8.92137 15.4211 9.00692 15.7071 9.29292L17.7071 11.2929C18.0976 11.6834 18.0976 12.3166 17.7071 12.7071L15.7071 14.7071C15.4211 14.9931 14.991 15.0787 14.6173 14.9239C14.2436 14.7691 14 14.4045 14 14V13H10V14C10 14.4045 9.75636 14.7691 9.38268 14.9239C9.00901 15.0787 8.57889 14.9931 8.29289 14.7071L6.29289 12.7071C5.90237 12.3166 5.90237 11.6834 6.29289 11.2929L8.29289 9.29292C8.57889 9.00692 9.00901 8.92137 9.38268 9.07615Z" fill="#141B34"/>
</svg>
