<svg width="24" height="24" viewBox="0 0 24 24" fill="none" xmlns="http://www.w3.org/2000/svg">
<path opacity="0.4" d="M10.6558 10.7304C10.8535 10.624 10.9524 10.5708 10.9948 10.4843C11.0372 10.3978 11.0207 10.2992 10.9876 10.102C10.7201 8.50508 10.0083 6.99295 8.87016 5.86873C8.45836 5.46197 7.90378 5.4305 7.4962 5.58784C7.09463 5.74285 6.72188 6.12151 6.66259 6.6651C6.46691 8.45926 5.43707 9.66963 4.22041 10.8714C1.31992 13.7364 0.528468 18.2225 3.18122 20.8428C5.82151 23.4508 10.3418 22.6815 13.2418 19.8169C16.2319 16.8634 17.7416 16.0106 18.7794 15.4317C19.5283 15.014 19.7949 13.924 19.0931 13.2308C17.5961 11.7521 15.7717 11.192 14.0038 11.3086C12.9366 11.3789 11.4389 11.709 10.3795 12.7877C9.57197 13.61 8.98502 14.9229 8.74506 17.0825C8.69932 17.4942 8.3285 17.7908 7.91682 17.7451C7.50514 17.6993 7.20849 17.3285 7.25423 16.9168C7.51427 14.5765 8.17732 12.8893 9.30934 11.7367C9.71367 11.325 10.1649 10.9946 10.6558 10.7304Z" fill="#141B34"/>
<path fill-rule="evenodd" clip-rule="evenodd" d="M19.0142 1.56485C19.9938 1.39871 21.0792 1.51768 21.8352 2.39112C22.4577 3.11026 22.5607 4.04714 22.4724 4.90217C22.3829 5.76962 22.0815 6.72422 21.6849 7.67737C20.9724 9.38968 19.875 11.2769 18.8051 12.9611C18.2776 12.4931 17.7143 12.1315 17.1309 11.8666C18.173 10.2246 19.1929 8.46011 19.8384 6.90902C20.2015 6.03643 20.4221 5.2869 20.483 4.69681C20.5452 4.09431 20.4271 3.82025 20.323 3.70006C20.2136 3.57359 19.9823 3.42921 19.3486 3.53669C18.7089 3.6452 17.8713 3.98609 16.8817 4.53962C14.9465 5.62211 12.7079 7.35674 10.735 9.02465C10.5317 8.3567 10.2458 7.71765 9.87878 7.13209C11.7762 5.55023 13.9482 3.88887 15.9054 2.79412C16.9681 2.19968 18.0406 1.72997 19.0142 1.56485ZM2.52895 20.0655L1.79726 20.7883C1.40434 21.1764 1.40044 21.8095 1.78856 22.2025C2.17667 22.5954 2.80982 22.5993 3.20274 22.2112L3.9491 21.4739C3.67923 21.2911 3.42238 21.0811 3.18122 20.8428C2.93432 20.599 2.71726 20.3389 2.52895 20.0655Z" fill="#141B34"/>
</svg>
