<svg width="24" height="24" viewBox="0 0 24 24" fill="none" xmlns="http://www.w3.org/2000/svg">
<path d="M14 5.875C12.8954 5.875 12 4.97957 12 3.875C12 2.77043 12.8954 1.875 14 1.875C15.1046 1.875 16 2.77043 16 3.875C16 4.97957 15.1046 5.875 14 5.875Z" fill="white"/>
<path d="M11.25 3.875C11.25 2.35622 12.4812 1.125 14 1.125C15.5188 1.125 16.75 2.35622 16.75 3.875C16.75 5.39378 15.5188 6.625 14 6.625C12.4812 6.625 11.25 5.39378 11.25 3.875Z" fill="#141B34"/>
<path opacity="0.4" fill-rule="evenodd" clip-rule="evenodd" d="M5.40884 12.4626C5.91286 12.6884 6.1384 13.2801 5.9126 13.7841C5.64006 14.3924 5.5 15.0828 5.5 15.8335C5.5 18.6137 7.76538 20.8752 10.5696 20.8752C12.2669 20.8752 13.7683 20.0468 14.6895 18.7721C15.013 18.3245 15.6381 18.2239 16.0857 18.5473C16.5334 18.8708 16.634 19.496 16.3105 19.9436C15.0281 21.7181 12.9338 22.8752 10.5696 22.8752C6.66948 22.8752 3.5 19.7269 3.5 15.8335C3.5 14.8334 3.68707 13.86 4.0874 12.9664C4.31319 12.4624 4.90483 12.2368 5.40884 12.4626Z" fill="#141B34"/>
<path fill-rule="evenodd" clip-rule="evenodd" d="M12.8683 7.33796C13.3797 7.5465 13.6252 8.13013 13.4167 8.64153L12.8225 10.0987C12.4273 11.068 12.1752 11.6927 12.0598 12.1586C12.0049 12.3804 11.9965 12.5096 12.0011 12.5815C12.0045 12.636 12.0143 12.6509 12.0202 12.6598C12.0204 12.6601 12.0205 12.6604 12.0207 12.6606C12.021 12.661 12.0213 12.6615 12.0215 12.6619C12.0268 12.6701 12.0338 12.6809 12.0731 12.7008C12.1294 12.7293 12.2429 12.7698 12.4609 12.8027C12.9209 12.8723 13.5771 12.875 14.6067 12.875C14.706 12.875 14.7934 12.8709 14.9011 12.8659C14.9547 12.8634 15.0132 12.8606 15.0808 12.8581C15.2572 12.8513 15.4881 12.8465 15.727 12.8776C16.2753 12.949 16.8481 13.2128 17.2264 13.8753L20.3685 19.3792C20.6423 19.8588 20.4754 20.4696 19.9958 20.7434C19.5162 21.0173 18.9054 20.8504 18.6316 20.3708L15.4895 14.8669C15.4888 14.8658 15.4882 14.8647 15.4876 14.8636C15.4822 14.8627 15.476 14.8618 15.4688 14.8608C15.405 14.8525 15.314 14.8506 15.1573 14.8566C15.1245 14.8578 15.0858 14.8596 15.043 14.8616C14.9167 14.8675 14.7551 14.875 14.6067 14.875C14.581 14.875 14.5554 14.875 14.5299 14.875C13.5999 14.8751 12.7896 14.8751 12.162 14.7803C11.4937 14.6793 10.7922 14.4378 10.3457 13.7535C9.90336 13.0755 9.95548 12.3357 10.1185 11.6776C10.2055 11.3264 10.3418 10.9319 10.5084 10.4972L9.76121 10.1236L7.76825 12.5152C7.41468 12.9395 6.78412 12.9968 6.35984 12.6432C5.93556 12.2897 5.87824 11.6591 6.2318 11.2348L8.7318 8.23482C9.02888 7.87832 9.53218 7.77305 9.94724 7.98058L11.2589 8.63641L11.5648 7.88634C11.7733 7.37494 12.3569 7.12943 12.8683 7.33796Z" fill="#141B34"/>
</svg>
