<svg width="24" height="24" viewBox="0 0 24 24" fill="none" xmlns="http://www.w3.org/2000/svg">
<path d="M9.7497 2C9.7497 1.58579 9.41391 1.25 8.9997 1.25C8.58549 1.25 8.2497 1.58579 8.2497 2V3.40138C8.2497 3.49074 8.2497 3.53542 8.23756 3.57679C8.22768 3.61045 8.2116 3.64277 8.1907 3.67096C8.16503 3.70559 8.12965 3.73235 8.05888 3.78586L7.99749 3.83229C7.78807 3.99078 7.54368 4.17764 7.31247 4.38046C7.08308 4.58167 6.84354 4.81833 6.65202 5.08505C6.4621 5.34953 6.28704 5.68835 6.25562 6.08667C6.2035 6.74745 6.52389 7.16363 6.79629 7.51748L6.84186 7.5768C7.02511 7.81644 7.19251 8.0133 7.34158 8.18861C7.54809 8.43145 7.71943 8.63295 7.84902 8.84951C7.97765 9.06447 8.04197 9.17195 8.1108 9.21097C8.17964 9.25 8.27674 9.25 8.47094 9.25H15.5287C15.7229 9.25 15.82 9.25 15.8888 9.21097C15.9577 9.17195 16.022 9.06447 16.1506 8.84951C16.2802 8.63295 16.4515 8.43145 16.658 8.18861C16.8071 8.0133 16.9745 7.81644 17.1578 7.5768L17.2033 7.51748C17.4757 7.16363 17.7961 6.74745 17.744 6.08667C17.7126 5.68834 17.5375 5.3495 17.3476 5.08502C17.156 4.81831 16.9165 4.58165 16.6871 4.38044C16.4559 4.17762 16.2115 3.99077 16.002 3.83228L15.9407 3.78592C15.8699 3.73235 15.8344 3.70556 15.8088 3.67087C15.7879 3.64273 15.7719 3.61048 15.762 3.57689C15.7498 3.53547 15.7498 3.49073 15.7498 3.40125V2C15.7498 1.58579 15.414 1.25 14.9998 1.25C14.5856 1.25 14.2498 1.58579 14.2498 2V3.2775C14.2498 3.43469 14.2498 3.51329 14.2143 3.57961C14.1788 3.64594 14.1134 3.68954 13.9826 3.77673L12.3326 4.87674C12.1713 4.98429 12.0906 5.03806 11.9998 5.03806C11.909 5.03807 11.8283 4.98429 11.667 4.87675L10.0169 3.77672C9.88609 3.68953 9.8207 3.64593 9.7852 3.5796C9.7497 3.51328 9.7497 3.43468 9.7497 3.27749V2Z" fill="#141B34"/>
<path opacity="0.4" d="M6.65819 11.4807C5.49713 12.9752 4.04557 15.1947 3.41111 17.6181C3.16862 18.5443 3.17478 19.4053 3.60317 20.1435C4.0227 20.8663 4.76042 21.3182 5.62984 21.6347C7.12711 22.1796 9.3307 22.7498 11.9999 22.7498C14.6691 22.7498 16.8727 22.1796 18.3699 21.6347C19.2393 21.3182 19.9771 20.8663 20.3966 20.1435C20.825 19.4053 20.8311 18.5443 20.5887 17.6181C19.9542 15.1947 18.5026 12.9752 17.3416 11.4807C17.0711 11.1326 16.9359 10.9585 16.7279 10.8567C16.5198 10.7549 16.2874 10.7549 15.8225 10.7549H8.17728C7.71237 10.7549 7.47992 10.7549 7.27191 10.8567C7.0639 10.9585 6.92866 11.1326 6.65819 11.4807Z" fill="#141B34"/>
<path fill-rule="evenodd" clip-rule="evenodd" d="M17.2378 22.0044C17.1553 20.3131 16.6672 18.7769 16.1912 17.6465C15.9287 17.023 15.4845 16.1248 15.124 15.5841C14.8942 15.2394 14.4286 15.1463 14.0839 15.376C13.7396 15.6056 13.6468 16.0715 13.8759 16.4161C14.2288 16.9468 14.5713 17.6647 14.8087 18.2286C15.274 19.3336 15.7253 20.805 15.749 22.3716C16.2842 22.2626 16.7817 22.137 17.2378 22.0044ZM8.25052 22.3717C8.27416 20.8051 8.72553 19.3336 9.19077 18.2286C9.42823 17.6647 9.77074 16.9468 10.1236 16.4161C10.3527 16.0715 10.26 15.6056 9.91557 15.376C9.57093 15.1463 9.10527 15.2394 8.87551 15.5841C8.51502 16.1248 8.07087 17.023 7.80832 17.6465C7.33235 18.777 6.84421 20.3132 6.76172 22.0046C7.21778 22.1372 7.71534 22.2627 8.25052 22.3717Z" fill="#141B34"/>
</svg>
