<svg width="25" height="27" viewBox="0 0 25 27" fill="none" xmlns="http://www.w3.org/2000/svg">
<path fill-rule="evenodd" clip-rule="evenodd" d="M5.87522 2.375C6.25399 2.375 6.60025 2.589 6.76965 2.92779L10.2696 9.92779C10.5166 10.4218 10.3164 11.0224 9.82243 11.2694C9.32845 11.5164 8.72778 11.3162 8.48079 10.8222L7.50217 8.86498H4.24826L3.26965 10.8222C3.02266 11.3162 2.42198 11.5164 1.92801 11.2694C1.43403 11.0224 1.2338 10.4218 1.48079 9.92779L4.98079 2.92779C5.15018 2.589 5.49645 2.375 5.87522 2.375ZM5.24827 6.86498H6.50217L5.87522 5.61107L5.24827 6.86498Z" fill="#141B34"/>
<path opacity="0.4" d="M17.9048 20.897C18.1033 20.6975 18.2026 20.5977 18.2026 20.4739C18.2026 20.3501 18.1033 20.2503 17.9048 20.0508L11.7777 13.8911C11.5772 13.6896 11.477 13.5889 11.3523 13.5889C11.2276 13.5889 11.1273 13.6896 10.9269 13.8911L8.92623 15.9024C8.25108 16.5811 7.69138 17.1438 7.30744 17.6499C6.90309 18.183 6.625 18.7395 6.625 19.4103C6.625 20.0811 6.90309 20.6376 7.30744 21.1707C7.69138 21.6769 8.67745 22.6684 9.3526 23.3471C9.59365 23.5907 9.84774 23.8475 10.182 23.9871C10.5172 24.127 10.8781 24.126 11.2186 24.1251H13.6018C13.9424 24.126 14.3032 24.127 14.6385 23.9871C14.9727 23.8475 15.2268 23.5907 15.4678 23.3471L17.9048 20.897Z" fill="#141B34"/>
<path d="M17.3661 8.62512C17.3485 8.62496 17.3309 8.62496 17.3133 8.62512C16.6588 8.63126 16.1175 8.90944 15.6023 9.3061C15.1126 9.6831 14.5678 10.2309 13.9114 10.8907L12.831 11.9769C12.6325 12.1765 12.5332 12.2763 12.5332 12.4001C12.5332 12.5239 12.6325 12.6236 12.831 12.8232L18.9581 18.9828C19.1585 19.1843 19.2587 19.2851 19.3834 19.2851C19.5082 19.2851 19.6084 19.1843 19.8088 18.9828L20.8409 17.9452C21.5079 17.2748 22.0608 16.7189 22.4411 16.2191C22.8415 15.6928 23.1187 15.1437 23.1248 14.4814C23.1249 14.4636 23.1249 14.4457 23.1248 14.4279C23.1187 13.7656 22.8415 13.2165 22.4411 12.6902C22.0608 12.1904 21.5079 11.6346 20.841 10.9641L20.7679 10.8907C20.1116 10.2309 19.5668 9.68309 19.0771 9.3061C18.5618 8.90944 18.0206 8.63126 17.3661 8.62512Z" fill="#141B34"/>
</svg>
