<svg width="24" height="24" viewBox="0 0 24 24" fill="none" xmlns="http://www.w3.org/2000/svg">
<path opacity="0.4" d="M15.0527 5.375C16.6579 5.37499 17.9342 5.37497 18.9342 5.50102C19.9621 5.63057 20.8113 5.90463 21.4878 6.5389C22.1712 7.1796 22.4729 7.99471 22.6143 8.98061C22.75 9.92739 22.75 11.1319 22.75 12.6289V12.6289V14.6211V14.6211C22.75 16.1181 22.75 17.3226 22.6143 18.2694C22.4729 19.2553 22.1712 20.0704 21.4878 20.7111C20.8113 21.3454 19.9621 21.6194 18.9342 21.749C17.9342 21.875 16.6579 21.875 15.0527 21.875H8.94733C7.3421 21.875 6.06579 21.875 5.06576 21.749C4.03794 21.6194 3.18873 21.3454 2.51217 20.7111C1.82876 20.0704 1.52713 19.2553 1.38574 18.2694C1.24996 17.3226 1.24998 16.1181 1.25 14.6211V14.6211V12.6289V12.6289C1.24998 11.1319 1.24996 9.92739 1.38574 8.98061C1.52713 7.99471 1.82876 7.1796 2.51217 6.5389C3.18873 5.90463 4.03794 5.63057 5.06576 5.50102C6.06578 5.37497 7.34209 5.37499 8.94731 5.375H8.94732H15.0527H15.0527Z" fill="#141B34"/>
<path fill-rule="evenodd" clip-rule="evenodd" d="M12 9.625C12.5523 9.625 13 10.0727 13 10.625V12.625H15C15.5523 12.625 16 13.0727 16 13.625C16 14.1773 15.5523 14.625 15 14.625H13V16.625C13 17.1773 12.5523 17.625 12 17.625C11.4477 17.625 11 17.1773 11 16.625V14.625H9C8.44772 14.625 8 14.1773 8 13.625C8 13.0727 8.44772 12.625 9 12.625H11V10.625C11 10.0727 11.4477 9.625 12 9.625Z" fill="#141B34"/>
<path d="M8.02311 5.376C8.03923 5.15406 8.06376 4.97295 8.09655 4.82372C8.15792 4.54433 8.23384 4.44399 8.27648 4.40136C8.31911 4.35872 8.41945 4.28281 8.69884 4.22143C8.98956 4.15756 9.40126 4.125 10.0001 4.125H14.0001C14.599 4.125 15.0107 4.15756 15.3014 4.22143C15.5808 4.28281 15.6811 4.35872 15.7238 4.40136C15.7664 4.44399 15.8423 4.54433 15.9037 4.82372C15.9365 4.97295 15.961 5.15406 15.9771 5.376C16.7256 5.37855 17.3921 5.38759 17.9836 5.41956C17.9643 5.05074 17.9258 4.70741 17.8571 4.39459C17.7438 3.8788 17.5351 3.38426 17.138 2.98714C16.7409 2.59003 16.2463 2.38132 15.7305 2.26801C15.2261 2.15719 14.6423 2.125 14.0001 2.125H10.0001C9.35798 2.125 8.77418 2.15719 8.26971 2.26801C7.75392 2.38132 7.25938 2.59003 6.86226 2.98714C6.46515 3.38426 6.25644 3.8788 6.14313 4.39459C6.07441 4.70741 6.03592 5.05074 6.0166 5.41956C6.60812 5.38759 7.27467 5.37855 8.02311 5.376Z" fill="#141B34"/>
</svg>
