<svg width="24" height="24" viewBox="0 0 24 24" fill="none" xmlns="http://www.w3.org/2000/svg">
<path d="M3.85526 10.1044L9.43647 19.6697C9.95997 20.5668 10.2217 21.0155 10.5008 21.2612C11.2432 21.915 12.2546 21.9127 12.9949 21.2557C13.2149 21.0604 13.4237 20.7385 13.7588 20.1678C13.9031 19.922 13.9753 19.7991 13.9748 19.6622C13.9743 19.5253 13.9006 19.4018 13.7531 19.1547L10.4011 13.5375C10.2547 13.2922 10.1815 13.1695 10.1804 13.0339C10.1792 12.8982 10.2504 12.7744 10.3928 12.5267L11.2354 11.0608C11.6183 10.3947 11.8098 10.0616 11.6653 9.81206C11.5209 9.56247 11.1368 9.56247 10.3684 9.56247H8.59671C8.31943 9.56247 8.18079 9.56247 8.06596 9.49728C7.95113 9.43208 7.88009 9.31303 7.73799 9.07492L7.1741 8.12998C6.7738 7.45919 6.57365 7.12379 6.71737 6.87066C6.86109 6.61753 7.25167 6.61753 8.03282 6.61753L13.2109 6.61753C13.4932 6.61753 13.6344 6.61753 13.7506 6.55031C13.8668 6.48308 13.9371 6.36068 14.0778 6.11588L15.4387 3.74835C15.8216 3.08223 16.0131 2.74917 15.8686 2.49958C15.7242 2.24999 15.3401 2.25 14.5717 2.25L7.27357 2.25004C3.75742 2.25004 1.99935 2.25004 1.41472 3.59336C0.830098 4.93668 1.83849 6.65926 3.85526 10.1044Z" fill="#141B34"/>
<path opacity="0.4" d="M22.572 3.57214C23.202 4.96258 22.1153 6.74557 19.9419 10.3116L16.4705 16.0259C16.092 16.6489 15.9028 16.9604 15.6231 16.9618C15.3435 16.9632 15.1512 16.6536 14.7664 16.0344L13.3964 13.8293C13.2397 13.5771 13.1613 13.451 13.1602 13.3106C13.159 13.1702 13.2352 13.0428 13.3877 12.788L19.3769 2.78035C19.534 2.51777 19.6126 2.38649 19.747 2.32139C19.8815 2.2563 20.024 2.27492 20.309 2.31215C21.508 2.46878 22.2283 2.8135 22.572 3.57214Z" fill="#141B34"/>
</svg>
