<svg width="24" height="24" viewBox="0 0 24 24" fill="none" xmlns="http://www.w3.org/2000/svg">
<path opacity="0.4" d="M12.0574 1.25049C14.3658 1.25048 16.1748 1.25047 17.5863 1.44023C19.031 1.63447 20.1711 2.03981 21.0659 2.93462C21.9607 3.82943 22.366 4.96946 22.5603 6.41419C22.75 7.82568 22.75 9.63472 22.75 11.9431V12.0579C22.75 14.3663 22.75 16.1753 22.5603 17.5868C22.366 19.0315 21.9607 20.1715 21.0659 21.0664C20.1711 21.9612 19.031 22.3665 17.5863 22.5607C16.1748 22.7505 14.3658 22.7505 12.0574 22.7505H11.9426C9.63423 22.7505 7.82519 22.7505 6.41371 22.5607C4.96897 22.3665 3.82895 21.9612 2.93414 21.0664C2.03933 20.1715 1.63399 19.0315 1.43975 17.5868C1.24998 16.1753 1.24999 14.3663 1.25 12.0579V12.0579V11.9431V11.9431C1.24999 9.63471 1.24998 7.82568 1.43975 6.41419C1.63399 4.96946 2.03933 3.82943 2.93414 2.93462C3.82895 2.03981 4.96897 1.63447 6.41371 1.44023C7.82519 1.25047 9.63422 1.25048 11.9426 1.25049H11.9426H12.0574H12.0574Z" fill="#141B34"/>
<path d="M14 22.7454C13.3954 22.7505 12.7488 22.7505 12.0574 22.7505H12V22.0005C12 18.6868 14.6863 16.0005 18 16.0005C18.5523 16.0005 19 16.4482 19 17.0005C19 17.5528 18.5523 18.0005 18 18.0005C15.7909 18.0005 14 19.7913 14 22.0005V22.7454Z" fill="#141B34"/>
<path d="M1.25507 10.0003C1.26118 9.27458 1.27465 8.60949 1.30429 8.00028H14C14.5523 8.00028 15 8.448 15 9.00028C15 9.55257 14.5523 10.0003 14 10.0003H9.99998V22.7452C9.27428 22.7391 8.60919 22.7256 7.99998 22.696V10.0003H1.25507Z" fill="#141B34"/>
<path d="M22.6957 8.00028C22.7253 8.60949 22.7388 9.27458 22.7449 10.0003H18C17.4477 10.0003 17 9.55257 17 9.00028C17 8.448 17.4477 8.00028 18 8.00028H22.6957Z" fill="#141B34"/>
<path d="M9.99998 1.25537L9.99998 5.00028C9.99998 5.55257 9.55226 6.00028 8.99998 6.00028C8.44769 6.00028 7.99998 5.55257 7.99998 5.00028L7.99998 1.30459C8.60919 1.27496 9.27427 1.26149 9.99998 1.25537Z" fill="#141B34"/>
</svg>
