<svg width="24" height="24" viewBox="0 0 24 24" fill="none" xmlns="http://www.w3.org/2000/svg">
<path opacity="0.4" d="M9.92619 2.3485C10.5015 1.71975 11.1502 1.25 12.0001 1.25C12.85 1.25 13.4987 1.71975 14.074 2.3485C14.6323 2.95862 15.238 3.85027 15.9826 4.94639L15.9826 4.94642L20.4587 11.535L20.4587 11.5351C21.0482 12.4028 21.5332 13.1166 21.8401 13.7323C22.162 14.378 22.3413 15.0163 22.2031 15.7146C22.0644 16.4159 21.6543 16.9319 21.1086 17.3939C20.5913 17.8318 19.8735 18.2846 19.0058 18.832L14.5164 21.6641C14.0202 21.9772 13.5998 22.2424 13.2307 22.4248C12.8385 22.6187 12.4459 22.75 12.0001 22.75C11.5543 22.75 11.1617 22.6187 10.7695 22.4248C10.4004 22.2424 9.98006 21.9772 9.48385 21.6641L9.48384 21.6641L4.99436 18.8319C4.12665 18.2846 3.40893 17.8318 2.8916 17.3939C2.34594 16.9319 1.93579 16.4159 1.79707 15.7146C1.65893 15.0163 1.83824 14.378 2.16009 13.7323C2.46704 13.1166 2.95205 12.4027 3.54157 11.535L8.01759 4.9464C8.76222 3.85027 9.36794 2.95862 9.92619 2.3485Z" fill="#141B34"/>
<path d="M1.77621 14.8741L12.8544 13.1118L10.8663 1.55996C11.205 1.36604 11.5777 1.25 12.0001 1.25C12.3169 1.25 12.6058 1.31527 12.8733 1.42971L14.8846 13.1167L22.2162 14.823C22.2632 15.1124 22.2638 15.4077 22.2031 15.7146C22.1237 16.1162 21.9552 16.457 21.7233 16.7618L14.734 15.1351L12.7878 22.6125C12.5374 22.6985 12.2792 22.75 12.0001 22.75C11.5545 22.75 11.162 22.6188 10.7699 22.425L12.6588 15.168L2.31697 16.8133C2.06436 16.4955 1.88102 16.139 1.79707 15.7146C1.73994 15.4258 1.73711 15.1472 1.77621 14.8741Z" fill="#141B34"/>
</svg>
