<svg width="24" height="24" viewBox="0 0 24 24" fill="none" xmlns="http://www.w3.org/2000/svg">
<path d="M8.99112 13.7505C8.93318 13.7509 8.87246 13.7513 8.80744 13.7513C8.36206 13.7513 8.09768 13.7527 7.90865 13.7761C7.8681 13.7727 7.78485 13.7849 7.77621 13.8615C7.75285 14.0218 7.75099 14.2518 7.75099 14.6675V16.3337C7.75099 16.7493 7.75285 16.9794 7.77621 17.1396C7.78136 17.1644 7.81504 17.2162 7.90865 17.2251C8.09768 17.2485 8.36206 17.2499 8.80744 17.2499C9.25282 17.2499 9.5172 17.2485 9.70623 17.2251C9.8013 17.216 9.83413 17.1643 9.83867 17.1396C9.85523 17.026 9.86099 16.8772 9.86294 16.652L9.85659 16.6514C9.73756 16.641 9.56167 16.6255 9.35126 16.6614C9.35155 16.6614 9.35185 16.6614 9.35215 16.6613L9.35125 16.6614C9.35125 16.6614 9.35125 16.6614 9.35126 16.6614C8.94078 16.7121 8.56628 16.4209 8.51487 16.0103C8.4634 15.5993 8.75485 15.2244 9.16586 15.1729C9.44824 15.1092 9.78644 15.1388 10.0045 15.1587C10.2074 15.1772 10.4931 15.2222 10.7502 15.3569C11.0364 15.5068 11.3639 15.8211 11.3639 16.3337C11.364 16.6877 11.364 17.0743 11.323 17.356C11.2761 17.6777 11.1629 18.0258 10.8578 18.3072C10.5614 18.5806 10.2095 18.6741 9.89082 18.7137C9.59818 18.75 9.15664 18.7499 8.76632 18.7499H8.76632C8.376 18.7499 8.0167 18.75 7.72406 18.7137C7.40539 18.6741 7.05351 18.5806 6.75704 18.3072C6.45195 18.0258 6.33879 17.6777 6.2919 17.356C6.25084 17.0743 6.25091 16.7322 6.25098 16.3782L6.25098 14.623C6.25091 14.2689 6.25084 13.9269 6.2919 13.6452C6.33879 13.3235 6.45195 12.9754 6.75704 12.694C7.05351 12.4206 7.40539 12.327 7.72406 12.2875C8.0167 12.2512 8.37601 12.2513 8.76633 12.2513C9.09338 12.248 9.75216 12.2423 10.1557 12.3559C10.4122 12.4281 10.698 12.5605 10.931 12.8128C11.1701 13.0717 11.2986 13.3969 11.3367 13.7549C11.3807 14.1667 11.0824 14.5362 10.6705 14.5802C10.2586 14.6241 9.88913 14.3258 9.8452 13.9139C9.83456 13.8483 9.77684 13.8105 9.74932 13.7998C9.66426 13.7758 9.54272 13.7598 9.3705 13.7534C9.24629 13.7488 9.12627 13.7496 8.99116 13.7505H8.99115L8.99112 13.7505Z" fill="#141B34"/>
<path d="M12.251 13.0015C12.251 12.5873 12.5868 12.2515 13.001 12.2515H15.501C15.9152 12.2515 16.251 12.5873 16.251 13.0015C16.251 13.4157 15.9152 13.7515 15.501 13.7515H14.9768V17.25H15.501C15.9152 17.25 16.251 17.5858 16.251 18C16.251 18.4142 15.9152 18.75 15.501 18.75H13.001C12.5868 18.75 12.251 18.4142 12.251 18C12.251 17.5858 12.5868 17.25 13.001 17.25H13.4768V13.7515H13.001C12.5868 13.7515 12.251 13.4157 12.251 13.0015Z" fill="#141B34"/>
<path d="M21.001 12.2515C21.4152 12.2515 21.751 12.5873 21.751 13.0015C21.751 13.4157 21.4152 13.7515 21.001 13.7515H19.6462C19.2008 13.7515 18.9364 13.7528 18.7474 13.7763C18.6382 13.7862 18.6136 13.8374 18.615 13.8617C18.5916 14.022 18.5897 14.3351 18.5897 14.7508H20.0978C20.512 14.7508 20.8478 15.0865 20.8478 15.5008C20.8478 15.915 20.512 16.2508 20.0978 16.2508H18.5897V18C18.5897 18.4142 18.2539 18.75 17.8397 18.75C17.4255 18.75 17.0897 18.4142 17.0897 18L17.0897 14.6231C17.0897 14.2691 17.0896 13.927 17.1306 13.6453C17.1775 13.3237 17.2907 12.9756 17.5958 12.6942C17.8923 12.4207 18.2441 12.3272 18.5628 12.2877C18.8554 12.2514 19.2148 12.2514 19.6051 12.2515L21.001 12.2515Z" fill="#141B34"/>
<path opacity="0.4" d="M7.13744 20.7033C8.00689 20.7942 9.13801 20.7955 10.7466 20.7955H14.9069C15.4447 20.7955 15.8806 21.233 15.8806 21.7727C15.8806 22.3125 15.4447 22.75 14.9069 22.75H10.6917C9.15062 22.75 7.91782 22.75 6.93556 22.6473C5.92614 22.5417 5.06492 22.3186 4.32016 21.7919C3.92979 21.5159 3.58125 21.1871 3.28607 20.8146C2.71624 20.0956 2.47298 19.2577 2.35887 18.2843C2.24899 17.3469 2.249 16.1743 2.24902 14.7262V12.1428V12.1427C2.24902 10.7244 2.24902 9.61179 2.30821 8.71107C2.36846 7.79422 2.493 7.02952 2.77411 6.31755C3.61751 4.1815 5.39124 2.51875 7.61123 1.73658C8.99367 1.2495 10.6803 1.24971 13.5199 1.25007L13.7562 1.25009L13.9596 1.25004L13.9596 1.25004C15.5146 1.2495 16.547 1.24914 17.4058 1.55172C18.7824 2.03673 19.8908 3.071 20.4196 4.41031C20.6029 4.87447 20.6785 5.36014 20.7143 5.90477C20.749 6.43335 20.749 7.08083 20.749 7.87999V7.88006V10.0455C20.749 10.5852 20.3131 11.0228 19.7753 11.0228C19.2376 11.0228 18.8017 10.5852 18.8017 10.0455V7.91329C18.8017 7.07303 18.8012 6.49008 18.7712 6.03341C18.7417 5.58546 18.6869 5.32704 18.6092 5.1304C18.2991 4.34503 17.6334 3.70339 16.7608 3.39593C16.2574 3.21858 15.5903 3.20463 13.7562 3.20463C13.4581 3.20463 13.1013 3.2058 12.7632 3.20732C12.425 3.20885 11.8716 3.21134 11.4095 3.48025C11.1047 3.65756 10.884 3.85945 10.7573 4.08004C10.5399 4.45845 10.4156 4.89711 10.4156 5.3648C10.4156 5.51193 10.4252 5.70446 10.4334 5.88206L10.4334 5.88212C10.4407 6.03696 10.4486 6.20566 10.4521 6.3737C10.46 6.75379 10.448 7.19733 10.3333 7.62548C10.1098 8.45945 9.45843 9.11086 8.62445 9.33432C8.19631 9.44904 7.75277 9.46105 7.37267 9.45315C7.20453 9.44966 7.03595 9.44174 6.88103 9.43446C6.70343 9.42622 6.47944 9.41667 6.33231 9.41667C5.88564 9.41667 5.46545 9.53003 5.09893 9.72955C4.87148 9.85337 4.65007 10.0965 4.47714 10.3875C4.19652 10.8596 4.19634 11.4982 4.19636 11.7652L4.19639 14.6653C4.19639 16.1888 4.19797 17.2461 4.2929 18.0559C4.38513 18.8427 4.55457 19.2754 4.81013 19.5979C4.98793 19.8223 5.20031 20.0234 5.44176 20.1941C5.79959 20.4472 6.28351 20.6139 7.13744 20.7033Z" fill="#141B34"/>
</svg>
