<svg width="24" height="25" viewBox="0 0 24 25" fill="none" xmlns="http://www.w3.org/2000/svg">
<path opacity="0.4" d="M13.75 4.49916C13.7515 4.08495 14.0886 3.75041 14.5028 3.75196C15.817 3.75686 16.8911 3.78117 17.7587 3.92543C18.6447 4.07276 19.3871 4.35566 19.9907 4.92749C20.6728 5.5737 20.9734 6.39489 21.1144 7.38865C21.25 8.34431 21.25 9.56055 21.25 11.0743V15.9273C21.25 17.441 21.25 18.6573 21.1144 19.6129C20.9734 20.6067 20.6728 21.4279 19.9907 22.0741C19.3143 22.7149 18.4643 22.9923 17.4352 23.1234C16.4347 23.2508 15.158 23.2508 13.5532 23.2508H13.5532H10.4468H10.4468C8.84201 23.2508 7.56529 23.2508 6.56479 23.1234C5.53566 22.9923 4.68571 22.7149 4.00932 22.0741C3.32721 21.4279 3.02661 20.6067 2.88558 19.6129C2.74996 18.6573 2.74998 17.441 2.75 15.9273V15.9273V11.0743V11.0742C2.74998 9.56053 2.74996 8.3443 2.88558 7.38865C3.02661 6.39489 3.32721 5.5737 4.00932 4.92749C4.61291 4.35566 5.35533 4.07276 6.24135 3.92543C7.10891 3.78117 8.18295 3.75686 9.49721 3.75196C9.91142 3.75041 10.2485 4.08495 10.25 4.49916L9.5028 6.30011H14.4972L13.75 4.49916Z" fill="#141B34"/>
<path d="M9.2962 12.5C9.2962 11.0003 10.485 9.75 11.9934 9.75C13.5018 9.75 14.6906 11.0003 14.6906 12.5C14.6906 13.9997 13.5018 15.25 11.9934 15.25C10.485 15.25 9.2962 13.9997 9.2962 12.5Z" fill="#141B34"/>
<path d="M16.25 18.7767C16.25 19.5904 15.5904 20.25 14.7767 20.25H9.21809C8.40729 20.25 7.75 19.5927 7.75 18.7819C7.75 18.4208 7.88358 18.0388 8.1819 17.7556C10.2441 15.7978 13.7319 15.6957 15.835 17.7652C16.1225 18.0482 16.25 18.4232 16.25 18.7767Z" fill="#141B34"/>
<path fill-rule="evenodd" clip-rule="evenodd" d="M11.9239 1.75003C11.949 1.75005 11.9743 1.75007 12 1.75007C12.0257 1.75007 12.0511 1.75005 12.0762 1.75003C12.4715 1.74977 12.7887 1.74956 13.0768 1.81587C13.74 1.9685 14.3245 2.38211 14.6506 2.98172C14.7931 3.24368 14.8632 3.54806 14.9414 3.88803C14.9471 3.91273 14.9528 3.93761 14.9586 3.96268L15.0419 4.3228C15.0446 4.33442 15.0472 4.346 15.0499 4.35754C15.1281 4.69545 15.1998 5.00508 15.2311 5.26487C15.2648 5.54381 15.2671 5.86611 15.1211 6.18814C14.9718 6.51722 14.7235 6.7861 14.4203 6.9702C14.1352 7.14339 13.8262 7.20054 13.5374 7.22584C13.2606 7.2501 12.9198 7.25008 12.5294 7.25007H11.4706C11.0802 7.25008 10.7394 7.2501 10.4626 7.22584C10.1739 7.20054 9.86485 7.14339 9.57971 6.9702C9.27658 6.7861 9.02827 6.51722 8.87898 6.18814C8.7329 5.86611 8.7352 5.54381 8.7689 5.26487C8.80029 5.00508 8.87194 4.69545 8.95014 4.35754C8.95281 4.346 8.95549 4.33442 8.95817 4.3228L9.04147 3.96268C9.04727 3.93761 9.053 3.91273 9.05868 3.88803C9.13689 3.54806 9.20691 3.24368 9.34941 2.98172C9.67557 2.38211 10.2601 1.9685 10.9233 1.81587C11.2114 1.74956 11.5285 1.74977 11.9239 1.75003ZM12 3.25007C11.4903 3.25007 11.3591 3.25477 11.2597 3.27765C10.9776 3.34259 10.7702 3.50893 10.6671 3.69849C10.6356 3.75626 10.6092 3.84127 10.5029 4.30072L10.4196 4.66084C10.3307 5.04509 10.2786 5.27488 10.2581 5.4448C10.2486 5.52332 10.2496 5.56396 10.2509 5.58035C10.2695 5.61517 10.3034 5.65474 10.3584 5.68814L10.3597 5.68886C10.3607 5.68936 10.3626 5.69025 10.3655 5.69146C10.3714 5.69386 10.3823 5.69781 10.4 5.70246C10.4374 5.71226 10.4972 5.72312 10.5936 5.73157C10.7969 5.74939 11.0711 5.75007 11.5019 5.75007H12.4981C12.929 5.75007 13.2031 5.74939 13.4065 5.73157C13.5029 5.72312 13.5626 5.71226 13.6 5.70246C13.6178 5.69781 13.6287 5.69386 13.6345 5.69146C13.6375 5.69025 13.6393 5.68936 13.6403 5.68886L13.6414 5.68831C13.6964 5.65491 13.7305 5.61517 13.7492 5.58035C13.7505 5.56396 13.7515 5.52332 13.742 5.4448C13.7214 5.27488 13.6693 5.04509 13.5805 4.66084L13.4972 4.30072C13.3909 3.84127 13.3644 3.75626 13.333 3.69849C13.2299 3.50893 13.0225 3.34259 12.7404 3.27765C12.6409 3.25477 12.5097 3.25007 12 3.25007ZM13.7481 5.58927C13.748 5.58924 13.7481 5.5885 13.7484 5.58715L13.7481 5.58927ZM10.252 5.58927C10.252 5.5893 10.2518 5.58863 10.2516 5.58715L10.252 5.58927Z" fill="#141B34"/>
</svg>
