<svg width="24" height="24" viewBox="0 0 24 24" fill="none" xmlns="http://www.w3.org/2000/svg">
<path d="M12.8426 12.2567C12.6628 12.0769 12.4979 12.0265 12.2839 12.2081C10.7784 13.23 9.49447 14.6 8.33125 16.0452C7.56022 17.0032 6.80867 18.039 6.07819 19.0458C5.91947 19.2646 5.65236 19.8372 5.36161 19.8876C5.09174 19.9343 4.74202 19.5594 4.57681 19.3846C4.10829 18.8889 3.8167 18.1983 3.66078 16.9711C3.5019 15.7206 3.5 14.0713 3.5 11.7454C3.5 9.46379 3.50172 7.83231 3.65226 6.5884C3.75777 5.71657 3.92918 5.11116 4.17918 4.65465C4.33167 4.37621 4.40791 4.23699 4.39003 4.13369C4.37216 4.03039 4.27306 3.94222 4.07485 3.76588L3.47716 3.23413C3.26129 3.04208 3.15336 2.94606 3.0185 2.96281C2.88364 2.97957 2.80922 3.08915 2.6604 3.30833C2.08534 4.15521 1.80977 5.16629 1.66675 6.34811C1.49997 7.72618 1.49998 9.4787 1.5 11.6784V11.8164C1.49998 14.0553 1.49997 15.832 1.67673 17.2232C1.85831 18.6523 2.24173 19.8256 3.12322 20.7583C4.01225 21.6991 5.1433 22.1156 6.52004 22.3115C7.19606 22.4077 7.9664 22.4548 8.83845 22.4779C9.79817 22.5035 10.7585 22.5 11.7185 22.5C13.8373 22.5 15.5239 22.459 16.8626 22.2325C18.1379 22.0168 19.2525 21.3865 20.3279 20.6987C20.5881 20.5323 20.7182 20.4491 20.7337 20.3062C20.7492 20.1633 20.6356 20.0497 20.4084 19.8225L12.8426 12.2567Z" fill="#141B34"/>
<path opacity="0.4" d="M21.4503 17.8936C21.6839 18.1276 21.8007 18.2446 21.9329 18.2387C21.9826 18.2365 22.0405 18.218 22.0823 18.1911C22.1934 18.1193 22.2189 17.9681 22.2698 17.6656L22.2707 17.6603C22.4496 16.5619 22.4879 15.2277 22.4973 13.6255L22.4973 13.6084C22.5005 13.0474 22.5001 12.4864 22.5001 11.9253C22.5002 9.74935 22.5002 8.01461 22.3173 6.65447C22.1285 5.25009 21.7284 4.09629 20.816 3.1839C19.9036 2.27151 18.7498 1.8714 17.3454 1.68258C15.9853 1.49972 14.2506 1.49974 12.0747 1.49976C10.4906 1.49976 8.90773 1.4739 7.33939 1.72936C6.79429 1.81814 6.42437 2.33201 6.51316 2.87711C6.59143 3.35762 7.18221 3.78131 7.66092 3.70334C8.89144 3.50291 9.55536 3.49976 12.0002 3.49976C14.2676 3.49976 15.8676 3.50188 17.0789 3.66475C18.2615 3.82375 18.9229 4.11926 19.4018 4.59811C19.8807 5.07696 20.1762 5.73836 20.3352 6.92097C20.4702 7.92533 20.4947 9.19684 20.4992 10.8944C20.5003 11.3169 20.5008 11.5281 20.3728 11.618C20.2448 11.7079 20.0352 11.6316 19.6162 11.479C18.527 11.0823 17.4655 10.9451 16.4316 11.0163C16.2834 11.0265 16.1229 11.0541 15.9406 11.0812C15.461 11.1522 15.2212 11.1878 15.1632 11.3632C15.1051 11.5387 15.2799 11.7137 15.6295 12.0638L21.4503 17.8936Z" fill="#141B34"/>
<path fill-rule="evenodd" clip-rule="evenodd" d="M1.29289 1.29289C1.68342 0.902369 2.31658 0.902369 2.70711 1.29289L22.7071 21.2929C23.0976 21.6834 23.0976 22.3166 22.7071 22.7071C22.3166 23.0976 21.6834 23.0976 21.2929 22.7071L1.29289 2.70711C0.902369 2.31658 0.902369 1.68342 1.29289 1.29289Z" fill="#141B34"/>
</svg>
