<svg width="24" height="24" viewBox="0 0 24 24" fill="none" xmlns="http://www.w3.org/2000/svg">
<path d="M5.45711 19.9572L2.95711 22.4572C2.56658 22.8477 1.93342 22.8477 1.54289 22.4572C1.15237 22.0667 1.15237 21.4335 1.54289 21.043L4.04289 18.543L5.45711 19.9572Z" fill="#141B34"/>
<path opacity="0.4" d="M11.7071 5.29289C11.3166 4.90237 10.6834 4.90237 10.2929 5.29289C9.90237 5.68342 9.90237 6.31658 10.2929 6.70711L10.6091 7.02332L6.20751 11.4249C5.69844 11.934 5.27653 12.3559 4.97025 12.7315C4.65053 13.1237 4.4028 13.5281 4.30561 14.0166C4.23146 14.3894 4.23146 14.7732 4.30561 15.146C4.4028 15.6345 4.65053 16.0389 4.97025 16.4311C5.27653 16.8067 5.75324 17.2834 6.26231 17.7925C6.77137 18.3016 7.19327 18.7235 7.56892 19.0298C7.96106 19.3495 8.36547 19.5972 8.85405 19.6944C9.22683 19.7685 9.61057 19.7685 9.98336 19.6944C10.4719 19.5972 10.8764 19.3495 11.2685 19.0298C11.6441 18.7235 12.066 18.3016 12.5751 17.7925L16.9767 13.3909L17.2929 13.7071C17.6834 14.0976 18.3166 14.0976 18.7071 13.7071C19.0976 13.3166 19.0976 12.6834 18.7071 12.2929L11.7071 5.29289Z" fill="#141B34"/>
<path d="M8.42372 19.5639L7.38314 20.3072C7.17323 20.4572 6.96199 20.6082 6.76939 20.7194C6.55223 20.8448 6.28072 20.9678 5.94545 20.9942C5.9025 20.9976 5.85936 20.9982 5.81633 20.996C5.32106 20.9709 4.64098 20.6478 3.99691 20.0037C3.48478 19.4916 3.2058 18.9818 3.08298 18.5885C3.03426 18.4306 2.96549 18.0272 3.08013 17.6775C3.19484 17.3123 3.44742 16.9601 3.66013 16.6639L4.43653 15.5771C4.56279 15.8835 4.74934 16.1603 4.97025 16.4313C5.16142 16.6658 5.419 16.9396 5.7094 17.2361L5.34171 17.7509C5.21267 17.9315 5.12711 18.0518 5.06453 18.1484C5.12627 18.2574 5.23321 18.4116 5.41112 18.5895C5.58951 18.7679 5.74181 18.8756 5.84974 18.9378C5.93995 18.8795 6.06093 18.7938 6.24979 18.6589L6.76411 18.2916C7.05958 18.5816 7.32407 18.8303 7.56892 19.03C7.84006 19.251 8.11707 19.4377 8.42372 19.5639Z" fill="#141B34"/>
<path d="M17.9882 2.20238C17.9882 1.67639 17.5618 1.25 17.0358 1.25C16.5098 1.25 16.0834 1.67639 16.0834 2.20238C16.0829 2.60113 16.0823 3.05996 16.1844 3.41807C16.2399 3.61267 16.3175 3.80023 16.4159 3.97705C16.486 4.103 16.5684 4.21954 16.6594 4.33142L13.374 6.95976L14.7292 8.31491L17.9968 5.70078L18.2993 6.0032L15.6851 9.27087L17.0403 10.626L19.6686 7.3406C19.7805 7.43166 19.8971 7.51406 20.023 7.58413C20.1998 7.68251 20.3874 7.7602 20.582 7.81567C20.9401 7.91775 21.3989 7.91717 21.7977 7.91664C22.3237 7.91664 22.7501 7.49025 22.7501 6.96427C22.7501 6.43828 22.3237 6.01189 21.7977 6.01189C21.2583 6.01189 21.1726 6.0034 21.1041 5.98388C21.0501 5.96849 20.9981 5.94694 20.9491 5.91965C20.8868 5.88502 20.8202 5.83041 20.4388 5.44904L18.551 3.56121C18.1696 3.17984 18.115 3.11323 18.0804 3.05099C18.0531 3.00194 18.0316 2.94991 18.0162 2.89593C17.9966 2.82743 17.9882 2.74171 17.9882 2.20238Z" fill="#141B34"/>
</svg>
