<svg width="24" height="25" viewBox="0 0 24 25" fill="none" xmlns="http://www.w3.org/2000/svg">
<path d="M14.2208 19.3408C14.1828 19.6666 14.1951 19.9961 14.2528 20.3082C14.3188 20.665 14.3518 20.8433 14.6234 21.0693C14.8951 21.2954 15.1621 21.2954 15.6962 21.2954H16.8867C17.4264 21.2954 17.864 21.7329 17.864 22.2726C17.864 22.8124 17.4264 23.2499 16.8867 23.2499H7.11399C6.57426 23.2499 6.13672 22.8124 6.13672 22.2726C6.13672 21.7329 6.57426 21.2954 7.11399 21.2954H8.30445C8.83852 21.2954 9.10556 21.2954 9.37722 21.0693C9.64888 20.8433 9.68186 20.665 9.74783 20.3082C9.80555 19.9961 9.81785 19.6666 9.77991 19.3408H14.2208Z" fill="#141B34"/>
<path opacity="0.4" d="M9.99002 1.75H12.0046C12.5552 1.75 12.9971 2.20461 12.9815 2.75498C12.9665 3.28371 12.5335 3.70455 12.0046 3.70455H10.0455C8.42197 3.70455 7.28067 3.70582 6.40063 3.79858C5.538 3.88951 5.03966 4.05946 4.66311 4.32313C4.33627 4.55199 4.05199 4.83627 3.82313 5.16311C3.55946 5.53966 3.38951 6.038 3.29858 6.90063C3.20582 7.78067 3.20455 8.92197 3.20455 10.5455C3.20455 12.1689 3.20582 13.3102 3.29858 14.1903C3.38951 15.0529 3.55946 15.5512 3.82313 15.9278C4.05199 16.2546 4.33627 16.5389 4.66311 16.7678C5.03967 17.0314 5.538 17.2014 6.40063 17.2923C7.28067 17.3851 8.42197 17.3864 10.0455 17.3864H13.9545C15.578 17.3864 16.7193 17.3851 17.5994 17.2923C18.462 17.2014 18.9603 17.0314 19.3369 16.7678C19.6637 16.5389 19.948 16.2546 20.1769 15.9278C20.3225 15.7198 20.4396 15.4747 20.5305 15.1515C20.6767 14.6319 21.1366 14.2361 21.6733 14.2927C22.2101 14.3493 22.6102 14.8332 22.4927 15.36C22.3539 15.9813 22.1342 16.5401 21.7779 17.0489C21.4183 17.5625 20.9716 18.0092 20.458 18.3689C19.6987 18.9005 18.8279 19.1282 17.8043 19.2361C16.855 19.3362 15.6781 19.3407 14.2204 19.3409H9.77955C8.32192 19.3407 7.14496 19.3362 6.19574 19.2361C5.17207 19.1282 4.30131 18.9005 3.54203 18.3689C3.02842 18.0092 2.58169 17.5625 2.22206 17.0489C1.69041 16.2896 1.4627 15.4188 1.3548 14.3952C1.24998 13.4007 1.24999 12.1562 1.25 10.6009V10.6009V10.49V10.49C1.24999 8.93472 1.24998 7.69022 1.3548 6.69574C1.4627 5.67207 1.69041 4.80131 2.22206 4.04203C2.58169 3.52842 3.02842 3.08169 3.54203 2.72206C4.30131 2.19041 5.17207 1.9627 6.19574 1.8548C7.19022 1.74998 8.43471 1.74999 9.99001 1.75H9.99002Z" fill="#141B34"/>
<path fill-rule="evenodd" clip-rule="evenodd" d="M10 15.5C10 14.9477 10.4477 14.5 11 14.5H13C13.5523 14.5 14 14.9477 14 15.5C14 16.0523 13.5523 16.5 13 16.5H11C10.4477 16.5 10 16.0523 10 15.5Z" fill="#141B34"/>
<path fill-rule="evenodd" clip-rule="evenodd" d="M16 5.24919V4.1875C16 2.81583 17.1452 1.75 18.5 1.75C19.8548 1.75 21 2.81583 21 4.1875V5.24919C21.0751 5.27196 21.1498 5.29929 21.2239 5.3322C21.8441 5.60744 22.3211 6.12765 22.5663 6.76203C22.6722 7.03595 22.7129 7.31726 22.7318 7.61392C22.75 7.8994 22.75 8.24715 22.75 8.6639V8.71108C22.75 9.12783 22.75 9.47561 22.7318 9.76108C22.7129 10.0577 22.6722 10.3391 22.5663 10.613C22.3211 11.2474 21.8441 11.7676 21.2239 12.0428C20.9516 12.1637 20.6728 12.2093 20.3872 12.2302C20.1156 12.25 19.7866 12.25 19.4011 12.25H17.5989C17.2135 12.25 16.8844 12.25 16.6128 12.2302C16.3272 12.2093 16.0484 12.1637 15.7761 12.0428C15.1559 11.7676 14.6789 11.2474 14.4337 10.613C14.3278 10.3391 14.2871 10.0577 14.2682 9.76108C14.25 9.47561 14.25 9.12786 14.25 8.71112V8.6639C14.25 8.24716 14.25 7.89939 14.2682 7.61392C14.2871 7.31726 14.3278 7.03595 14.4337 6.76203C14.6789 6.12765 15.1559 5.60744 15.7761 5.3322C15.8502 5.29929 15.9249 5.27196 16 5.24919ZM17.5 4.1875C17.5 3.69521 17.9218 3.25 18.5 3.25C19.0782 3.25 19.5 3.69521 19.5 4.1875V5.12501C19.4675 5.125 19.4345 5.125 19.4011 5.125H17.5989C17.5655 5.125 17.5325 5.125 17.5 5.12501V4.1875Z" fill="#141B34"/>
</svg>
