<svg width="24" height="24" viewBox="0 0 24 24" fill="none" xmlns="http://www.w3.org/2000/svg">
<path opacity="0.4" d="M11.9836 6.33621C12.2159 6.67387 12.4872 6.96308 12.7121 7.18306C12.7201 7.19085 12.724 7.19475 12.7285 7.19877C12.733 7.2028 12.7372 7.20634 12.7457 7.21342C12.9289 7.36592 14.5243 8.69251 14.7453 8.82574L14.7493 8.82818L14.7589 8.83399C14.9227 8.93389 16.0474 9.6198 17.3542 8.98586C18.1455 8.60201 18.5149 7.97178 18.6882 7.49203C18.7791 7.2405 18.8246 7.11471 18.9021 7.06025C18.9797 7.0058 19.0939 7.0058 19.3222 7.0058L21.0827 7.0058C21.2568 7.0058 21.3438 7.0058 21.4161 7.05019C21.4883 7.09458 21.526 7.16892 21.6013 7.31761C22.1549 8.41049 22.4997 9.63009 22.5832 10.9222C22.6389 11.7847 22.6389 12.6767 22.5832 13.5391C22.2853 18.1489 18.662 21.8352 14.0954 22.1388C12.6351 22.2358 11.1119 22.2356 9.65465 22.1388C9.08972 22.1012 8.47478 21.9676 7.93339 21.7447C7.84733 21.7092 7.77126 21.6779 7.70361 21.6503C7.56703 21.5947 7.49873 21.5668 7.42104 21.5765C7.34335 21.5861 7.28359 21.6301 7.16407 21.718L7.0688 21.7881C6.27636 22.3725 5.27592 22.7824 3.85617 22.7479L3.81044 22.7468C3.53655 22.7402 3.24461 22.7332 3.00652 22.6872C2.71975 22.6317 2.36496 22.493 2.14291 22.1144C1.90123 21.7024 1.99813 21.2857 2.09188 21.0233C2.18036 20.7756 2.33374 20.4851 2.49042 20.1884L2.5119 20.1477C2.97823 19.264 3.10814 18.5418 2.85881 18.0603C2.02648 16.8039 1.27772 15.2555 1.1668 13.5391C1.11107 12.6767 1.11107 11.7847 1.1668 10.9222C1.46472 6.31247 5.088 2.62618 9.65465 2.32262C10.1563 2.28927 10.6657 2.26742 11.1776 2.25704C11.6482 2.2475 11.8835 2.24272 11.9742 2.38395C12.0649 2.52517 11.9534 2.75654 11.7303 3.21929C11.5378 3.61851 11.375 4.07933 11.375 4.49994C11.375 5.39174 11.789 6.05332 11.9836 6.33621Z" fill="#141B34"/>
<path fill-rule="evenodd" clip-rule="evenodd" d="M7.625 15C7.625 15.4142 7.96079 15.75 8.375 15.75H15.375C15.7892 15.75 16.125 15.4142 16.125 15C16.125 14.5858 15.7892 14.25 15.375 14.25H8.375C7.96079 14.25 7.625 14.5858 7.625 15ZM7.625 10C7.625 10.4142 7.96079 10.75 8.375 10.75H11.875C12.2892 10.75 12.625 10.4142 12.625 10C12.625 9.58579 12.2892 9.25 11.875 9.25H8.375C7.96079 9.25 7.625 9.58579 7.625 10Z" fill="#141B34"/>
<path fill-rule="evenodd" clip-rule="evenodd" d="M21.875 5.50586C22.4273 5.50586 22.875 5.05814 22.875 4.50586C22.875 3.95357 22.4273 3.50586 21.875 3.50586L17.375 3.50586L17.375 2.9116C17.3751 2.73596 17.3753 2.52031 17.3532 2.34387L17.3528 2.34053C17.337 2.21408 17.2652 1.63804 16.6996 1.36368C16.1327 1.08872 15.6326 1.39065 15.5244 1.45597L15.5204 1.45841C15.3674 1.55062 15.1965 1.68477 15.0559 1.79511L15.0257 1.81885C14.6498 2.11348 14.1656 2.49545 13.7746 2.87588C13.5795 3.06571 13.3783 3.28297 13.2194 3.51388C13.0782 3.71914 12.875 4.06934 12.875 4.5C12.875 4.93067 13.0782 5.28086 13.2194 5.48612C13.3783 5.71703 13.5795 5.93429 13.7746 6.12412C14.1656 6.50455 14.6498 6.88652 15.0257 7.18115L15.0559 7.20488C15.1965 7.31523 15.3673 7.44938 15.5204 7.54159L15.5244 7.54403C15.6326 7.60935 16.1328 7.91128 16.6996 7.63632C17.2652 7.36196 17.337 6.78592 17.3528 6.65947L17.3532 6.65613C17.3753 6.47969 17.3751 6.26403 17.375 6.0884L17.375 5.50586L21.875 5.50586Z" fill="#141B34"/>
</svg>
