<svg width="24" height="24" viewBox="0 0 24 24" fill="none" xmlns="http://www.w3.org/2000/svg">
<path opacity="0.4" d="M6.24866 7C6.24866 3.82436 8.82302 1.25 11.9987 1.25C15.1743 1.25 17.7487 3.82436 17.7487 7V11C17.7487 14.1756 15.1743 16.75 11.9987 16.75C8.82302 16.75 6.24866 14.1756 6.24866 11V7Z" fill="#141B34"/>
<path fill-rule="evenodd" clip-rule="evenodd" d="M4.22088 10.25C4.75782 10.25 5.1931 10.6805 5.1931 11.2115C5.1931 14.9288 8.24005 17.9423 11.9987 17.9423C15.7573 17.9423 18.8042 14.9288 18.8042 11.2115C18.8042 10.6805 19.2395 10.25 19.7764 10.25C20.3134 10.25 20.7487 10.6805 20.7487 11.2115C20.7487 15.6659 17.3458 19.3343 12.9709 19.8126V20.8269H14.9153C15.4523 20.8269 15.8875 21.2574 15.8875 21.7885C15.8875 22.3195 15.4523 22.75 14.9153 22.75H9.08199C8.54505 22.75 8.10977 22.3195 8.10977 21.7885C8.10977 21.2574 8.54505 20.8269 9.08199 20.8269H11.0264V19.8126C6.65148 19.3343 3.24866 15.6659 3.24866 11.2115C3.24866 10.6805 3.68394 10.25 4.22088 10.25Z" fill="#141B34"/>
</svg>
