<svg width="24" height="24" viewBox="0 0 24 24" fill="none" xmlns="http://www.w3.org/2000/svg">
<path opacity="0.4" d="M7.07253 4.80336C8.83383 3.9553 10.8681 4.03913 13.185 5.35383C15.5013 6.66819 16.6016 8.36346 16.736 10.3014C16.8653 12.1661 16.0856 14.1045 15.0153 15.9264C13.944 17.7502 12.6276 19.3784 10.9275 20.197C9.16616 21.0451 7.13189 20.9613 4.81497 19.6466C2.49864 18.3322 1.39841 16.6369 1.26403 14.699C1.13472 12.8343 1.91439 10.8959 2.98468 9.07398C4.05603 7.25023 5.37246 5.62195 7.07253 4.80336Z" fill="#141B34"/>
<path fill-rule="evenodd" clip-rule="evenodd" d="M20.4211 5.84915L18.2994 4.57624L18.2994 4.57623C17.5553 4.12974 16.9311 3.75522 16.396 3.5267C15.8297 3.28481 15.2557 3.15756 14.6416 3.32855C14.0305 3.49873 13.6001 3.90306 13.2302 4.4011C12.8786 4.87463 12.5194 5.52107 12.0888 6.29628L12.0888 6.2963L12.0637 6.34138L11.5309 7.30044C11.3763 7.2262 11.2004 7.15786 10.9972 7.1311C10.5371 7.07052 10.0717 7.19522 9.70347 7.47776C9.53301 7.60856 9.41143 7.76392 9.31211 7.91171C9.21968 8.04924 9.12127 8.21972 9.01414 8.4053L8.49238 9.30902C8.38523 9.49458 8.2868 9.66504 8.2139 9.81386C8.13558 9.97376 8.06182 10.1567 8.03378 10.3698C7.9732 10.8299 8.09789 11.2953 8.38044 11.6635C8.51123 11.834 8.6666 11.9556 8.81438 12.0549C8.95192 12.1473 9.1224 12.2457 9.30797 12.3528L9.34566 12.3746C9.53123 12.4818 9.70169 12.5802 9.85051 12.6531C10.0104 12.7314 10.1934 12.8052 10.4064 12.8332C10.8666 12.8938 11.3319 12.7691 11.7002 12.4866C11.8706 12.3558 11.9922 12.2004 12.0915 12.0526C12.184 11.9151 12.2824 11.7446 12.3895 11.559L12.9004 10.6741L12.9113 10.6553C13.0184 10.4697 13.1168 10.2993 13.1897 10.1505C13.2681 9.99055 13.3418 9.80757 13.3699 9.59455C13.4304 9.13439 13.3057 8.66902 13.0232 8.3008C12.9582 8.21609 12.8871 8.14345 12.8139 8.07961L13.3749 7.06988C13.8372 6.23786 14.1491 5.67975 14.4345 5.29539C14.7085 4.92638 14.8878 4.81707 15.044 4.77358C15.1972 4.73091 15.3984 4.7317 15.8069 4.90615C16.2358 5.08933 16.7715 5.4088 17.5732 5.88979L19.6494 7.13541C20.7131 7.77361 22.0596 7.38243 22.6557 6.30942C22.8569 5.94733 22.7265 5.49073 22.3644 5.28956C22.0023 5.08839 21.5457 5.21883 21.3445 5.58092C21.1463 5.93775 20.7333 6.03647 20.4211 5.84915ZM11.8831 9.39551C11.8906 9.33192 11.8735 9.26786 11.8351 9.21655C11.8297 9.21126 11.8082 9.19177 11.7526 9.15441C11.6627 9.09402 11.5375 9.02124 11.3268 8.89962C11.1162 8.77801 10.9905 8.70593 10.8933 8.65831C10.8331 8.62884 10.8055 8.61992 10.7982 8.61786C10.7346 8.61034 10.6705 8.6275 10.6192 8.66581C10.6139 8.67125 10.5944 8.6928 10.5571 8.74839C10.4967 8.83825 10.4239 8.9635 10.3023 9.17414L9.8023 10.0402C9.68068 10.2508 9.6086 10.3765 9.56098 10.4737C9.53152 10.5338 9.5226 10.5615 9.52054 10.5688C9.51301 10.6324 9.53018 10.6965 9.56849 10.7478C9.57393 10.7531 9.59547 10.7725 9.65107 10.8099C9.74092 10.8703 9.86617 10.9431 10.0768 11.0647C10.2875 11.1863 10.4131 11.2584 10.5103 11.306C10.5705 11.3355 10.5981 11.3444 10.6055 11.3464C10.669 11.354 10.7331 11.3368 10.7844 11.2985C10.7897 11.2931 10.8092 11.2715 10.8466 11.2159C10.9069 11.1261 10.9797 11.0008 11.1013 10.7902L11.6013 9.92414C11.723 9.7135 11.795 9.58784 11.8427 9.49062C11.8721 9.43046 11.881 9.40281 11.8831 9.39551Z" fill="#141B34"/>
</svg>
