<svg width="24" height="24" viewBox="0 0 24 24" fill="none" xmlns="http://www.w3.org/2000/svg">
<path d="M1.25 12.0332C1.25 9.82406 3.04086 8.0332 5.25 8.0332C7.45914 8.0332 9.25 9.82406 9.25 12.0332C9.25 14.2423 7.45914 16.0332 5.25 16.0332C3.04086 16.0332 1.25 14.2423 1.25 12.0332Z" fill="#141B34"/>
<path opacity="0.4" d="M10.75 12.0001C10.75 11.4478 11.1977 11.0001 11.75 11.0001L17.75 11.0001L17.75 9.66992C17.7498 9.52438 17.7495 9.31234 17.7754 9.13185C17.8038 8.93466 17.9119 8.41732 18.4273 8.15452C18.939 7.89368 19.3882 8.11953 19.5564 8.22035C19.7069 8.31058 19.864 8.442 19.9705 8.53112L19.9971 8.55335C20.4458 8.92755 21.0713 9.4708 21.5923 10.0077C21.8506 10.2739 22.1074 10.5631 22.3067 10.847C22.4064 10.989 22.5074 11.1516 22.5868 11.3272C22.6614 11.492 22.75 11.7398 22.75 12.0332C22.75 12.3266 22.6614 12.5743 22.5868 12.7392C22.5074 12.9147 22.4065 13.0773 22.3067 13.2194C22.1074 13.5032 21.8506 13.7925 21.5923 14.0587C21.0714 14.5956 20.4458 15.1388 19.9971 15.513L19.9705 15.5353C19.864 15.6244 19.7069 15.7558 19.5564 15.846C19.3882 15.9469 18.939 16.1727 18.4274 15.9119C17.9119 15.6491 17.8038 15.1318 17.7754 14.9346C17.7495 14.7541 17.7498 14.542 17.75 14.3965L17.75 13.0001H11.75C11.1977 13.0001 10.75 12.5524 10.75 12.0001Z" fill="#141B34"/>
</svg>
