<svg width="24" height="24" viewBox="0 0 24 24" fill="none" xmlns="http://www.w3.org/2000/svg">
<path d="M6.71016 1.04299C7.13191 0.915287 7.58755 1.07872 7.83199 1.44538C7.93271 1.59647 8.00465 1.76386 8.05014 1.87381C8.07817 1.94156 8.11314 2.03071 8.14588 2.11419L8.14588 2.1142C8.16547 2.16413 8.18426 2.21204 8.20029 2.25212C8.30217 2.50681 8.41409 2.75946 8.56701 2.99821C8.85062 3.44099 9.29036 3.86802 10.1643 4.01368C10.7091 4.10448 11.0771 4.61971 10.9863 5.16448C10.8955 5.70925 10.3803 6.07727 9.83554 5.98647C9.07944 5.86046 8.4786 5.59485 7.99994 5.25768V9.50008C7.99994 11.4331 6.43294 13.0001 4.49994 13.0001C2.56694 13.0001 0.999939 11.4331 0.999939 9.50008C0.999939 7.56708 2.56694 6.00008 4.49994 6.00008C5.03674 6.00008 5.54531 6.12092 5.99994 6.33689V2.00008C5.99994 1.55941 6.2884 1.17068 6.71016 1.04299Z" fill="#141B34"/>
<path opacity="0.4" d="M22.9999 6.7628V9.98445C23.0001 9.99419 23.0001 10.0039 22.9999 10.0136V17.9259C22.9999 17.935 22.9998 17.944 22.9996 17.953C22.9998 17.9686 22.9999 17.9843 22.9999 18C22.9999 19.6568 21.6568 21 19.9999 21C18.3431 21 16.9999 19.6568 16.9999 18C16.9999 16.3431 18.3431 15 19.9999 15C20.3506 15 20.6872 15.0601 20.9999 15.1707V11.8215C19.4846 12.6921 17.0911 13.7705 13.9999 13.9681V19.5C13.9999 21.433 12.4329 23 10.4999 23C8.56694 23 6.99994 21.433 6.99994 19.5C6.99994 17.567 8.56694 16 10.4999 16C11.0367 16 11.5453 16.1208 11.9999 16.3368V11L11.9999 10.9507C11.9999 10.5384 11.9998 10.1463 12.0376 9.82442C12.0787 9.4734 12.1784 9.05545 12.4932 8.69487C12.8203 8.32007 13.2517 8.16873 13.5979 8.08319C13.9316 8.00072 14.3525 7.94334 14.8114 7.88076L14.8597 7.87418C17.667 7.49113 19.7157 6.32036 20.82 5.5939L20.8477 5.57566C20.96 5.50154 21.122 5.39464 21.2734 5.32366C21.4326 5.24902 21.8826 5.06688 22.3694 5.32935C22.8529 5.58999 22.9503 6.06079 22.9763 6.23862C23.0005 6.40396 23.0002 6.59739 23 6.72997L22.9999 6.7628Z" fill="#141B34"/>
</svg>
