<svg width="24" height="24" viewBox="0 0 24 24" fill="none" xmlns="http://www.w3.org/2000/svg">
<path d="M4.86096 3.77539C3.07966 5.33589 1.80999 7.47044 1.33789 9.89186C1.24347 10.3762 1.19626 10.6183 1.34722 10.8018C1.49818 10.9854 1.76037 10.9854 2.28475 10.9854H5.99473C6.4489 10.9854 6.67599 10.9854 6.82072 10.851C6.96545 10.7167 6.98312 10.4834 7.01844 10.0168C7.11415 8.75258 7.30022 7.55823 7.56309 6.47752L4.86096 3.77539Z" fill="#141B34"/>
<path d="M9.27388 8.18831C9.17741 8.74516 9.10103 9.33244 9.04775 9.94417C9.00584 10.4252 8.98489 10.6657 9.13447 10.8292C9.28404 10.9926 9.53259 10.9926 10.0297 10.9926H12.0781L9.27388 8.18831Z" fill="#141B34"/>
<path d="M14.0938 13.0082L14.9664 13.8809C14.8334 15.5329 14.5458 17.2081 13.9249 18.7521C13.5864 19.5937 13.2087 20.2071 12.8411 20.5936C12.4756 20.9781 12.1909 21.0703 11.9996 21.0703C11.8084 21.0703 11.5237 20.9781 11.1581 20.5936C10.7906 20.2071 10.4129 19.5937 10.0744 18.7521C9.57762 17.5169 9.20811 15.8974 9.04775 14.0565C9.00584 13.5755 8.98489 13.3349 9.13447 13.1715C9.28404 13.0081 9.53259 13.0081 10.0297 13.0081C11.3844 13.0081 12.7391 13.0045 14.0938 13.0082Z" fill="#141B34"/>
<path d="M16.7858 15.7002L20.2203 19.1347C18.7223 20.8737 16.6864 22.1324 14.3723 22.65C13.9697 22.74 13.7684 22.7851 13.7322 22.7181C13.6959 22.6512 13.8543 22.4964 14.171 22.1867C14.9132 21.4611 15.4143 20.5091 15.7947 19.554C16.2327 18.4544 16.5711 17.1438 16.7858 15.7002Z" fill="#141B34"/>
<path d="M2.28479 13.0153H5.99473C6.44889 13.0153 6.67599 13.0153 6.82072 13.1496C6.96545 13.284 6.98312 13.5173 7.01844 13.9839C7.17915 16.1066 7.5946 18.0324 8.20067 19.554C8.58091 20.5086 9.08159 21.4599 9.82312 22.1855C10.1398 22.4953 10.2981 22.6502 10.2618 22.7171C10.2256 22.7841 10.0242 22.7389 9.62158 22.6486C5.43809 21.7104 2.1648 18.3496 1.33793 14.1088C1.2435 13.6245 1.19628 13.3823 1.34724 13.1988C1.4982 13.0153 1.7604 13.0153 2.28479 13.0153Z" fill="#141B34"/>
<g opacity="0.4">
<path d="M14.8 10.8856L9.83077 5.91641C9.90801 5.68299 9.9894 5.46005 10.0745 5.24839C10.413 4.4068 10.7907 3.79337 11.1583 3.40682C11.5238 3.0224 11.8085 2.93019 11.9998 2.93019C12.191 2.93019 12.4757 3.0224 12.8413 3.40682C13.2088 3.79337 13.5865 4.4068 13.925 5.24839C14.4218 6.48351 14.7913 8.10301 14.9517 9.94395C14.9936 10.425 15.0145 10.6655 14.8649 10.8289C14.8451 10.8506 14.8236 10.8693 14.8 10.8856Z" fill="#141B34"/>
<path d="M21.3961 17.4818L17.1233 13.2089C17.1384 13.1871 17.1555 13.1674 17.1748 13.1494C17.3195 13.015 17.5466 13.015 18.0008 13.015H21.7154C22.2398 13.015 22.5019 13.015 22.6529 13.1986C22.8039 13.3821 22.7566 13.6243 22.6622 14.1086C22.4268 15.3162 21.9929 16.4525 21.3961 17.4818Z" fill="#141B34"/>
<path d="M8.24687 4.33251L6.50195 2.58759C7.458 2.02319 8.50763 1.60149 9.62181 1.35162C10.0246 1.2613 10.226 1.21614 10.2622 1.28307C10.2985 1.34999 10.1401 1.50495 9.82336 1.81486C9.11096 2.51187 8.62171 3.41847 8.24687 4.33251Z" fill="#141B34"/>
<path d="M22.6529 10.8016C22.502 10.9852 22.2398 10.9852 21.7154 10.9852H18.0008C17.5466 10.9852 17.3195 10.9852 17.1748 10.8508C17.0301 10.7164 17.0124 10.4831 16.9771 10.0166C16.8164 7.89382 16.4009 5.96801 15.7949 4.44646C15.4144 3.49129 14.9133 2.5393 14.1711 1.81363C13.8543 1.5039 13.6958 1.34903 13.7321 1.28209C13.7683 1.21516 13.9697 1.26019 14.3724 1.35026C18.5589 2.28656 21.835 5.6487 22.6623 9.89164C22.7567 10.3759 22.8039 10.6181 22.6529 10.8016Z" fill="#141B34"/>
</g>
<path fill-rule="evenodd" clip-rule="evenodd" d="M1.29289 1.29289C1.68342 0.902369 2.31658 0.902369 2.70711 1.29289L22.7076 21.2933C23.0981 21.6839 23.0981 22.317 22.7076 22.7076C22.317 23.0981 21.6839 23.0981 21.2933 22.7076L1.29289 2.70711C0.902369 2.31658 0.902369 1.68342 1.29289 1.29289Z" fill="#141B34"/>
</svg>
