<svg width="24" height="24" viewBox="0 0 24 24" fill="none" xmlns="http://www.w3.org/2000/svg">
<path fill-rule="evenodd" clip-rule="evenodd" d="M2.75139 14.0791C2.75047 14.0943 2.75 14.1097 2.75 14.1252V16.18V16.1801C2.74998 17.5476 2.74996 18.6499 2.86652 19.5169C2.98754 20.417 3.24643 21.1749 3.84835 21.7768C4.45027 22.3787 5.20814 22.6376 6.10825 22.7586C6.97522 22.8752 8.07754 22.8752 9.44512 22.8752H9.44513H14.5549H14.5549C15.9225 22.8752 17.0248 22.8752 17.8918 22.7586C18.7919 22.6376 19.5497 22.3787 20.1517 21.7768C20.7536 21.1749 21.0125 20.417 21.1335 19.5169C21.25 18.6499 21.25 17.5476 21.25 16.18V14.1252C21.25 14.1097 21.2495 14.0943 21.2486 14.0791C21.2439 15.0407 21.2233 15.8487 21.1335 16.5169C21.0125 17.417 20.7536 18.1749 20.1517 18.7768C19.9993 18.9291 19.837 19.0595 19.6649 19.1712C19.6593 19.2208 19.6533 19.2694 19.6469 19.317C19.5482 20.0508 19.3678 20.4394 19.091 20.7161C18.8142 20.9929 18.4257 21.1734 17.6919 21.272C16.9365 21.3736 15.9354 21.3752 14.5 21.3752H9.5C8.06459 21.3752 7.06347 21.3736 6.30812 21.272C5.57435 21.1734 5.18577 20.9929 4.90901 20.7161C4.63225 20.4394 4.4518 20.0508 4.35315 19.317C4.34675 19.2694 4.34074 19.2208 4.33511 19.1712C4.16302 19.0595 4.00069 18.9292 3.84835 18.7768C3.24643 18.1749 2.98754 17.417 2.86652 16.5169C2.77668 15.8487 2.7561 15.0407 2.75139 14.0791Z" fill="#141B34"/>
<path opacity="0.4" d="M14.5549 2.375C15.9225 2.37498 17.0248 2.37496 17.8918 2.49152C18.7919 2.61254 19.5497 2.87143 20.1517 3.47335C20.7536 4.07527 21.0125 4.83314 21.1335 5.73325C21.25 6.60022 21.25 7.70254 21.25 9.07013V13.1799C21.25 14.5475 21.25 15.6498 21.1335 16.5168C21.0125 17.4169 20.7536 18.1747 20.1517 18.7767C19.5497 19.3786 18.7919 19.6375 17.8918 19.7585C17.0248 19.875 15.9225 19.875 14.5549 19.875H9.44513C8.07754 19.875 6.97522 19.875 6.10825 19.7585C5.20814 19.6375 4.45027 19.3786 3.84835 18.7767C3.24643 18.1747 2.98754 17.4169 2.86652 16.5168C2.74996 15.6498 2.74998 14.5475 2.75 13.1799V13.1799V9.07013V9.07011C2.74998 7.70253 2.74996 6.60021 2.86652 5.73325C2.98754 4.83314 3.24643 4.07527 3.84835 3.47335C4.45027 2.87143 5.20814 2.61254 6.10825 2.49152C6.97521 2.37496 8.07753 2.37498 9.44511 2.375H9.44513H14.5549H14.5549Z" fill="#141B34"/>
<path fill-rule="evenodd" clip-rule="evenodd" d="M7.25 10.125C7.25 9.71079 7.58579 9.375 8 9.375H16C16.4142 9.375 16.75 9.71079 16.75 10.125C16.75 10.5392 16.4142 10.875 16 10.875H8C7.58579 10.875 7.25 10.5392 7.25 10.125ZM7.25 15.125C7.25 14.7108 7.58579 14.375 8 14.375H12C12.4142 14.375 12.75 14.7108 12.75 15.125C12.75 15.5392 12.4142 15.875 12 15.875H8C7.58579 15.875 7.25 15.5392 7.25 15.125Z" fill="#141B34"/>
<path fill-rule="evenodd" clip-rule="evenodd" d="M7 1.125C7.55228 1.125 8 1.57272 8 2.125V4.125C8 4.67728 7.55228 5.125 7 5.125C6.44772 5.125 6 4.67728 6 4.125V2.125C6 1.57272 6.44772 1.125 7 1.125ZM12 1.125C12.5523 1.125 13 1.57272 13 2.125V4.125C13 4.67728 12.5523 5.125 12 5.125C11.4477 5.125 11 4.67728 11 4.125V2.125C11 1.57272 11.4477 1.125 12 1.125ZM17 1.125C17.5523 1.125 18 1.57272 18 2.125V4.125C18 4.67728 17.5523 5.125 17 5.125C16.4477 5.125 16 4.67728 16 4.125V2.125C16 1.57272 16.4477 1.125 17 1.125Z" fill="#141B34"/>
</svg>
