<svg width="24" height="24" viewBox="0 0 24 24" fill="none" xmlns="http://www.w3.org/2000/svg">
<path d="M14.7786 21.953C13.9752 22.4583 13.0197 22.7497 11.9994 22.7497C10.9792 22.7497 10.0237 22.4583 9.22032 21.953C8.50727 21.5046 8.15075 21.2804 8.27551 20.9077C8.40028 20.535 8.89223 20.5767 9.87615 20.6602C11.2833 20.7795 12.7155 20.7795 14.1227 20.6602C15.1066 20.5767 15.5986 20.535 15.7234 20.9077C15.8481 21.2804 15.4916 21.5046 14.7786 21.953Z" fill="#141B34"/>
<path opacity="0.4" d="M14.7145 5.49868C15.0338 5.18115 15.1935 5.02238 15.1844 4.88606C15.1753 4.74975 14.9521 4.58019 14.5057 4.24108C13.8429 3.73757 13.4692 2.91876 13.5217 2.08887C13.5447 1.72435 13.5562 1.54209 13.4799 1.45037C13.4037 1.35865 13.2627 1.34167 12.9809 1.30771C12.6594 1.26896 12.332 1.24902 12 1.24902C7.54419 1.24902 3.92789 4.84054 3.92786 9.27599C3.92776 10.351 3.76863 11.2634 3.13289 12.1335C2.96634 12.3615 2.77527 12.623 2.63033 12.8495C2.37452 13.2493 2.12459 13.7314 2.03868 14.2932C1.75836 16.126 3.05056 17.3127 4.33746 17.8444C8.87016 19.7172 15.1298 19.7172 19.6625 17.8444C20.9494 17.3127 22.2416 16.126 21.9613 14.2932C21.8754 13.7314 21.6255 13.2493 21.3697 12.8495C21.0787 12.3948 20.7183 11.9845 20.4651 11.5059C20.2488 11.097 20.1406 10.8925 20.0215 10.8208C19.9025 10.7491 19.7268 10.7491 19.3754 10.7491L17.3382 10.7491C16.6006 10.7495 15.8469 10.7379 15.1603 10.4343C14.7414 10.2491 14.0791 9.83475 13.7187 8.99377C13.332 8.09145 13.5313 7.26548 13.7567 6.77393C13.98 6.28712 14.3323 5.87884 14.7145 5.49868Z" fill="#141B34"/>
<path d="M19.1831 3.25003H16.0162C15.4639 3.25003 15.0162 2.80232 15.0162 2.25003C15.0162 1.69775 15.4639 1.25003 16.0162 1.25003L19.7458 1.25002C20.0812 1.24988 20.4352 1.24974 20.7149 1.29049C20.9866 1.33008 21.5982 1.46287 21.8697 2.09624C22.1375 2.72134 21.8231 3.25428 21.6698 3.47931C21.5102 3.71356 21.2707 3.97589 21.0416 4.22669L21.0416 4.22669L17.9288 7.25003H21.0002C21.5525 7.25003 22.0002 7.69775 22.0002 8.25003C22.0002 8.80232 21.5525 9.25003 21.0002 9.25003L17.378 9.25004H17.378C17.0296 9.25011 16.6505 9.25019 16.3457 9.21243C16.1853 9.19257 15.9734 9.15483 15.7665 9.06333C15.5513 8.9682 15.2561 8.77495 15.0971 8.40383C14.9278 8.00883 15.0092 7.64123 15.1197 7.40019C15.2163 7.18959 15.3572 7.02204 15.4489 6.919C15.5402 6.81641 15.6487 6.70678 15.7451 6.60945L15.7451 6.60945L19.1831 3.25003Z" fill="#141B34"/>
</svg>
