<svg width="24" height="25" viewBox="0 0 24 25" fill="none" xmlns="http://www.w3.org/2000/svg">
<path opacity="0.4" d="M6.76364 1.75029L6.87509 1.75033H13.8751L13.9865 1.75029C14.6215 1.7499 15.0968 1.74961 15.5062 1.86983C16.4695 2.15267 17.2228 2.90596 17.5056 3.86922C17.6258 4.27866 17.6255 4.75394 17.6251 5.38888L17.6251 5.50033L17.6251 5.61178C17.6255 6.24673 17.6258 6.72201 17.5056 7.13144C17.2228 8.0947 16.4695 8.848 15.5062 9.13084C15.0968 9.25106 14.6215 9.25077 13.9865 9.25038L13.8751 9.25033H6.87509L6.76364 9.25038C6.12869 9.25077 5.65341 9.25106 5.24398 9.13084C4.28072 8.848 3.52742 8.0947 3.24458 7.13144C3.12436 6.72201 3.12465 6.24673 3.12504 5.61178L3.12509 5.50033L3.12504 5.38888C3.12465 4.75394 3.12436 4.27866 3.24458 3.86922C3.52742 2.90596 4.28072 2.15267 5.24398 1.86983C5.65341 1.74961 6.12869 1.7499 6.76364 1.75029Z" fill="#141B34"/>
<path opacity="0.4" d="M13.3532 15.7502H13.375H13.3968H13.3968C13.6111 15.7502 13.8079 15.7502 13.9732 15.7615C14.1509 15.7736 14.3462 15.8012 14.5447 15.8835C14.9735 16.0611 15.3142 16.4018 15.4918 16.8305C15.574 17.0291 15.6016 17.2244 15.6137 17.402C15.625 17.5674 15.625 17.7642 15.625 17.9785V21.022C15.625 21.2363 15.625 21.4331 15.6137 21.5985C15.6016 21.7761 15.574 21.9714 15.4918 22.1699C15.3142 22.5987 14.9735 22.9394 14.5447 23.117C14.3462 23.1993 14.1509 23.2269 13.9732 23.239C13.8079 23.2503 13.611 23.2503 13.3968 23.2502H13.3532C13.139 23.2503 12.9421 23.2503 12.7768 23.239C12.5991 23.2269 12.4038 23.1993 12.2053 23.117C11.7765 22.9394 11.4358 22.5987 11.2582 22.1699C11.176 21.9714 11.1484 21.7761 11.1363 21.5985C11.125 21.4331 11.125 21.2363 11.125 21.022V21.022V18.0002V17.9785V17.9784C11.125 17.7642 11.125 17.5674 11.1363 17.402C11.1484 17.2244 11.176 17.0291 11.2582 16.8305C11.4358 16.4018 11.7765 16.0611 12.2053 15.8835C12.4038 15.8012 12.5991 15.7736 12.7768 15.7615C12.9421 15.7502 13.1389 15.7502 13.3532 15.7502H13.3532Z" fill="#141B34"/>
<path d="M17.6073 6.50185C17.7902 6.50366 17.9327 6.50769 18.0531 6.51665C18.2524 6.53148 18.313 6.55576 18.3312 6.56399C18.5714 6.67249 18.6898 6.82636 18.7697 7.11161C18.8675 7.461 18.8752 7.90098 18.8752 8.5046C18.8752 9.53434 18.8632 9.81859 18.7933 10.035C18.6969 10.3333 18.4207 10.6506 17.8331 10.9739C17.2516 11.2938 16.5028 11.5439 15.6855 11.7756C15.6224 11.7935 15.5596 11.8111 15.4971 11.8287C14.504 12.1078 13.5932 12.3637 12.9815 13.1729C12.6477 13.6145 12.5004 14.083 12.4339 14.5838C12.3855 14.9488 12.3766 15.3678 12.375 15.8251C12.5143 15.7865 12.6499 15.77 12.7765 15.7614C12.9418 15.7501 13.1386 15.7501 13.3529 15.7501H13.3964C13.6107 15.7501 13.8076 15.7501 13.9729 15.7614C14.0997 15.77 14.2356 15.7866 14.3752 15.8253C14.3771 15.3842 14.3848 15.0858 14.4165 14.8469C14.4512 14.5857 14.5062 14.4725 14.5769 14.379C14.7358 14.1688 14.9306 14.0684 16.231 13.6998C17.0689 13.4622 18.004 13.1626 18.7972 12.7262C19.5843 12.2931 20.3739 11.6475 20.6963 10.6501C20.8764 10.0932 20.8759 9.46324 20.8752 8.65196L20.8752 8.4536C20.8754 7.92114 20.8756 7.2151 20.6955 6.57215C20.4916 5.84431 20.0438 5.14291 19.1544 4.74125C18.8355 4.59723 18.5138 4.5454 18.2015 4.52216C18.0242 4.50897 17.8252 4.50376 17.6075 4.50171C17.6252 4.76201 17.625 5.05307 17.6248 5.38877V5.61167C17.625 5.94871 17.6252 6.24075 17.6073 6.50185Z" fill="#141B34"/>
</svg>
