<svg width="24" height="24" viewBox="0 0 24 24" fill="none" xmlns="http://www.w3.org/2000/svg">
<path opacity="0.4" d="M12.0572 1.75C14.2479 1.74999 15.9686 1.74998 17.312 1.93059C18.6886 2.11568 19.7809 2.50272 20.6391 3.36091C21.4973 4.21911 21.8843 5.31137 22.0694 6.68802C22.25 8.03144 22.25 9.7521 22.25 11.9428V11.9428V12.0572V12.0572C22.25 14.2479 22.25 15.9686 22.0694 17.312C21.8843 18.6886 21.4973 19.7809 20.6391 20.6391C19.7809 21.4973 18.6886 21.8843 17.312 22.0694C15.9686 22.25 14.2479 22.25 12.0572 22.25H12.0572H11.9428H11.9428C9.7521 22.25 8.03144 22.25 6.68802 22.0694C5.31137 21.8843 4.21911 21.4973 3.36091 20.6391C2.50272 19.7809 2.11568 18.6886 1.93059 17.312C1.74998 15.9686 1.74999 14.2479 1.75 12.0572V11.9428C1.74999 9.75212 1.74998 8.03144 1.93059 6.68802C2.11568 5.31137 2.50272 4.21911 3.36091 3.36091C4.21911 2.50272 5.31137 2.11568 6.68802 1.93059C8.03144 1.74998 9.75212 1.74999 11.9428 1.75H12.0572Z" fill="#141B34"/>
<path d="M6.6188 7.4837C6.74053 7.16756 6.80139 7.00949 7.00778 6.96141C7.21416 6.91333 7.36295 7.05069 7.66053 7.32542L12.0873 11.4122C12.3853 11.6874 12.5343 11.8249 12.5343 12C12.5343 12.1752 12.3853 12.3127 12.0873 12.5878L7.69486 16.643C7.40648 16.9092 7.26228 17.0423 7.0598 16.9992C6.85731 16.9561 6.79301 16.8065 6.66439 16.5073C6.5093 16.1465 6.41907 15.744 6.36222 15.3164C6.24996 14.472 6.24998 13.367 6.25 11.9964V11.8826C6.24998 10.512 6.24996 9.407 6.36222 8.56261C6.41325 8.17875 6.49119 7.81511 6.6188 7.4837Z" fill="#141B34"/>
<path d="M8.57437 6.12759C8.45304 6.01558 8.4931 5.81641 8.65283 5.77455C9.43996 5.56824 10.24 5.7586 11.0986 6.11416C11.9487 6.4662 12.9907 7.04042 14.3044 7.76429L14.3905 7.81177C14.6881 7.97575 14.9709 8.13156 15.2383 8.28056C15.6653 8.51846 15.8788 8.63741 15.9029 8.84014C15.9271 9.04288 15.7457 9.21033 15.3829 9.54525L14.3723 10.4783C14.1148 10.716 13.986 10.8349 13.8296 10.8349C13.6732 10.8349 13.5445 10.716 13.287 10.4783L8.57437 6.12759Z" fill="#141B34"/>
<path d="M16.975 10.117C17.2196 9.89117 17.3418 9.77826 17.5036 9.78203C17.6654 9.78579 17.7695 9.89129 17.9777 10.1023C18.3089 10.438 18.5579 10.8161 18.669 11.2694C18.777 11.7105 18.777 12.1684 18.669 12.6096C18.5502 13.0946 18.2734 13.4935 17.9071 13.8464C17.6949 14.0509 17.5888 14.1531 17.4299 14.1548C17.2711 14.1565 17.1505 14.0452 16.9094 13.8226L15.572 12.5878C15.274 12.3127 15.1249 12.1752 15.1249 12C15.1249 11.8249 15.274 11.6874 15.572 11.4122L16.975 10.117Z" fill="#141B34"/>
<path d="M15.1539 15.6454C15.5828 15.407 15.7972 15.2878 15.8215 15.0849C15.8457 14.8821 15.6639 14.7142 15.3001 14.3783L14.3723 13.5218C14.1148 13.2841 13.986 13.1652 13.8296 13.1652C13.6732 13.1652 13.5445 13.2841 13.287 13.5218L8.5951 17.8534C8.50896 17.9329 8.53942 18.0747 8.65283 18.1044C9.43996 18.3107 10.24 18.1204 11.0986 17.7648C11.9487 17.4128 12.9907 16.8386 14.3043 16.1147L14.3905 16.0672C14.657 15.9204 14.9116 15.7801 15.1539 15.6454Z" fill="#141B34"/>
</svg>
