<svg width="24" height="24" viewBox="0 0 24 24" fill="none" xmlns="http://www.w3.org/2000/svg">
<path opacity="0.4" d="M12.0833 1.24951H10.9167C8.96586 1.2495 7.42941 1.24949 6.22885 1.40193C4.99987 1.55799 4.00965 1.88526 3.22552 2.62583C2.43535 3.3721 2.0806 4.32419 1.91255 5.50472C1.74997 6.6468 1.74998 8.10492 1.75 9.94018V14.0588C1.74998 15.8941 1.74997 17.3522 1.91255 18.4943C2.0806 19.6748 2.43534 20.6269 3.22552 21.3732C4.00965 22.1138 4.99987 22.441 6.22885 22.5971C7.42941 22.7495 8.96586 22.7495 10.9167 22.7495H12.0833C12.4473 22.7495 12.7968 22.7495 13.1324 22.7485C13.5039 22.7474 13.6897 22.7469 13.7776 22.6566C13.8656 22.5663 13.8602 22.3343 13.8494 21.8704C13.8436 21.624 13.8713 21.3702 13.9346 21.1234L14.361 19.6331C14.4026 19.4879 14.4233 19.4153 14.4112 19.3471C14.3991 19.2788 14.3508 19.2126 14.2544 19.0803C13.6237 18.2153 13.25 17.1486 13.25 15.9946C13.25 13.0942 15.6041 10.7495 18.5 10.7495C19.1263 10.7495 19.7272 10.8592 20.2844 11.0604C20.758 11.2314 20.9948 11.3169 21.1224 11.2273C21.25 11.1377 21.25 10.9092 21.25 10.4521V9.94025C21.25 8.10498 21.25 6.64681 21.0875 5.50472C20.9194 4.32419 20.5647 3.37211 19.7745 2.62583C18.9904 1.88526 18.0001 1.55799 16.7712 1.40193C15.5706 1.24949 14.0342 1.2495 12.0833 1.24951Z" fill="#141B34"/>
<path fill-rule="evenodd" clip-rule="evenodd" d="M6.5 7C6.5 6.44772 6.94772 6 7.5 6H15.5C16.0523 6 16.5 6.44772 16.5 7C16.5 7.55228 16.0523 8 15.5 8H7.5C6.94772 8 6.5 7.55228 6.5 7ZM6.5 12C6.5 11.4477 6.94772 11 7.5 11H11.5C12.0523 11 12.5 11.4477 12.5 12C12.5 12.5523 12.0523 13 11.5 13H7.5C6.94772 13 6.5 12.5523 6.5 12Z" fill="#141B34"/>
<path fill-rule="evenodd" clip-rule="evenodd" d="M21.7337 20.7587C21.6833 20.555 21.605 20.2999 21.5121 19.9971L21.1257 18.7383C21.8177 18.0533 22.25 17.087 22.25 16.0163C22.25 13.9362 20.6204 12.25 18.6103 12.25H18.3897C16.3796 12.25 14.75 13.9362 14.75 16.0163C14.75 17.087 15.1823 18.0533 15.8743 18.7383L15.4879 19.9971C15.395 20.2998 15.3167 20.555 15.2663 20.7587C15.2184 20.9523 15.1692 21.1946 15.2019 21.4369C15.2998 22.1635 15.8841 22.7472 16.6224 22.75C16.8683 22.7509 17.0967 22.6562 17.266 22.5775C17.4465 22.4936 17.6881 22.3624 17.9495 22.2205C18.2106 22.0787 18.2648 22.0526 18.3117 22.0379C18.435 21.9994 18.565 21.9994 18.6883 22.0379C18.7352 22.0526 18.7893 22.0786 19.0504 22.2204C19.3118 22.3624 19.5535 22.4936 19.734 22.5775C19.9033 22.6562 20.1317 22.7509 20.3776 22.75C21.1159 22.7472 21.7002 22.1635 21.7981 21.4369C21.8308 21.1946 21.7816 20.9523 21.7337 20.7587ZM16.5484 21.0983C16.5882 20.9371 16.6547 20.7196 16.7553 20.392L17.0262 19.5092C17.4476 19.6855 17.908 19.7826 18.3896 19.7826H18.6102C19.0918 19.7826 19.5522 19.6855 19.9736 19.5092L20.2445 20.392C20.3451 20.7196 20.4116 20.9371 20.4514 21.0983C20.5109 21.2354 20.5592 21.4732 20.2762 21.3281C20.1373 21.2636 19.9097 21.1403 19.6245 20.9854C19.4271 20.878 19.2542 20.784 19.0703 20.7266C18.6978 20.6104 18.302 20.6104 17.9294 20.7266C17.7456 20.784 17.5727 20.878 17.3753 20.9854C17.0901 21.1403 16.8625 21.2636 16.7236 21.3281C16.4787 21.4531 16.5047 21.227 16.5484 21.0983Z" fill="#141B34"/>
</svg>
