<svg width="24" height="24" viewBox="0 0 24 24" fill="none" xmlns="http://www.w3.org/2000/svg">
<path d="M7.00257 19.1507C7.46434 18.2982 8.33856 17.75 9.30858 17.75H14.6914C15.6614 17.75 16.5357 18.2982 16.9974 19.1507L17.537 20.1468C18.1362 21.253 17.4175 22.75 16.054 22.75H7.94601C6.58247 22.75 5.86384 21.253 6.463 20.1468L7.00257 19.1507Z" fill="#141B34"/>
<path opacity="0.4" fill-rule="evenodd" clip-rule="evenodd" d="M11.9997 11C12.5523 11 13.0003 11.4477 13.0003 12V18.5C13.0003 19.0523 12.5523 19.5 11.9997 19.5C11.447 19.5 10.999 19.0523 10.999 18.5V12C10.999 11.4477 11.447 11 11.9997 11Z" fill="#141B34"/>
<path d="M8.35715 2.32865C9.34429 1.56785 10.6507 1.25 11.9995 1.25C13.3452 1.25 14.6521 1.56039 15.6406 2.3185C16.6583 3.09911 17.253 4.29027 17.253 5.84619C17.253 7.29387 16.6098 8.19404 15.9322 8.95615C15.7971 9.10816 15.6638 9.25232 15.5336 9.3932L15.5336 9.39322L15.5336 9.39322C15.0032 9.96709 14.5231 10.4866 14.1682 11.2613C14.0568 11.5048 13.9284 11.7856 13.8487 11.9068C13.7113 12.1153 13.5414 12.316 13.3009 12.4692C13.0608 12.6221 12.807 12.6916 12.5599 12.7289C12.4172 12.7504 11.9994 12.75 11.9994 12.75C11.9994 12.75 11.5815 12.7503 11.4387 12.7288C11.1914 12.6914 10.9375 12.6216 10.6975 12.4686C10.4569 12.3152 10.287 12.1143 10.1497 11.9054C10.0699 11.7841 9.94198 11.5036 9.83109 11.2605C9.47476 10.4807 8.99145 9.95576 8.45905 9.37749C8.3307 9.23807 8.19949 9.09556 8.06652 8.94564C7.39087 8.18382 6.74609 7.28473 6.74609 5.84619C6.74609 4.30059 7.34201 3.11103 8.35715 2.32865Z" fill="#141B34"/>
</svg>
