<svg width="24" height="24" viewBox="0 0 24 24" fill="none" xmlns="http://www.w3.org/2000/svg">
<path opacity="0.4" fill-rule="evenodd" clip-rule="evenodd" d="M6.25 23C4.317 23 2.75 21.433 2.75 19.5L2.75 5.5C2.75 3.15279 4.65279 1.25 7 1.25H17C19.3472 1.25 21.25 3.15279 21.25 5.5L21.25 17C21.25 17.5523 20.8023 18 20.25 18C19.4216 18 18.75 18.6716 18.75 19.5C18.75 20.3284 19.4216 21 20.25 21C20.8023 21 21.25 21.4477 21.25 22C21.25 22.5523 20.8023 23 20.25 23L6.25 23ZM16.75 19.5C16.75 18.9632 16.8708 18.4546 17.0868 18H6.25C5.42157 18 4.75 18.6716 4.75 19.5C4.75 20.3284 5.42157 21 6.25 21H17.0868C16.8708 20.5454 16.75 20.0368 16.75 19.5Z" fill="#141B34"/>
<path fill-rule="evenodd" clip-rule="evenodd" d="M11.3558 6.04947C11.6409 6.52252 11.4885 7.13707 11.0154 7.4221C10.365 7.81403 9.93359 8.52453 9.93359 9.33481C9.93359 10.5668 10.9323 11.5656 12.1644 11.5656C12.9746 11.5656 13.6851 11.1342 14.0771 10.4837C14.3621 10.0107 14.9767 9.85829 15.4497 10.1433C15.9227 10.4284 16.0752 11.0429 15.7901 11.516C15.0514 12.742 13.7045 13.5656 12.1644 13.5656C9.82777 13.5656 7.93359 11.6714 7.93359 9.33481C7.93359 7.79464 8.7572 6.4478 9.98322 5.70905C10.4563 5.42402 11.0708 5.57643 11.3558 6.04947Z" fill="#141B34"/>
<path fill-rule="evenodd" clip-rule="evenodd" d="M12.4998 7.99993C12.4998 7.44764 12.9476 6.99993 13.4998 6.99993H13.5088C14.0611 6.99993 14.5088 7.44764 14.5088 7.99993C14.5088 8.55221 14.0611 8.99993 13.5088 8.99993H13.4998C12.9476 8.99993 12.4998 8.55221 12.4998 7.99993Z" fill="#141B34"/>
</svg>
