<svg width="24" height="24" viewBox="0 0 24 24" fill="none" xmlns="http://www.w3.org/2000/svg">
<path fill-rule="evenodd" clip-rule="evenodd" d="M2 22.875C1.44772 22.875 1 22.4273 1 21.875L1 11.875C0.999999 11.3227 1.44771 10.875 2 10.875C2.55228 10.875 3 11.3227 3 11.875L3 21.875C3 22.4273 2.55228 22.875 2 22.875Z" fill="#141B34"/>
<path fill-rule="evenodd" clip-rule="evenodd" d="M22 22.875C21.4477 22.875 21 22.4273 21 21.875L21 11.875C21 11.3227 21.4477 10.875 22 10.875C22.5523 10.875 23 11.3227 23 11.875L23 21.875C23 22.4273 22.5523 22.875 22 22.875Z" fill="#141B34"/>
<path fill-rule="evenodd" clip-rule="evenodd" d="M12 22.875C11.4477 22.875 11 22.4273 11 21.875V20.875C11 20.3227 11.4477 19.875 12 19.875C12.5523 19.875 13 20.3227 13 20.875V21.875C13 22.4273 12.5523 22.875 12 22.875Z" fill="#141B34"/>
<path fill-rule="evenodd" clip-rule="evenodd" d="M12 18.375C11.4477 18.375 11 17.9273 11 17.375V16.375C11 15.8227 11.4477 15.375 12 15.375C12.5523 15.375 13 15.8227 13 16.375V17.375C13 17.9273 12.5523 18.375 12 18.375Z" fill="#141B34"/>
<path fill-rule="evenodd" clip-rule="evenodd" d="M18.5152 6.55707C18.3382 6.3511 18.1625 6.16058 18.0088 5.99406C17.9837 5.96682 17.9649 5.93773 17.9536 5.90305L17.5891 4.78441L17.8354 4.65539C18.3246 4.39912 18.929 4.58798 19.1853 5.07721C19.4415 5.56644 19.2527 6.17079 18.7634 6.42705L18.5152 6.55707ZM15.999 13.6249H16.199C16.2335 13.6249 16.2679 13.6225 16.302 13.6178L17.999 13.3825V14.375C17.999 14.9273 17.5513 15.375 16.999 15.375C16.4467 15.375 15.999 14.9273 15.999 14.375V13.6249ZM5.99902 13.3825L7.69602 13.6178C7.73015 13.6225 7.76457 13.6249 7.79902 13.6249H7.99902V14.375C7.99902 14.9273 7.55131 15.375 6.99902 15.375C6.44674 15.375 5.99902 14.9273 5.99902 14.375V13.3825ZM6.40906 4.78405L6.04447 5.90305C6.03317 5.93773 6.01432 5.96683 5.9892 5.99406L5.9892 5.99406C5.83565 6.16051 5.65999 6.35093 5.48309 6.55678L5.23542 6.42705C4.74618 6.17079 4.55733 5.56644 4.81359 5.07721C5.06985 4.58798 5.6742 4.39912 6.16343 4.65539L6.40906 4.78405Z" fill="#141B34"/>
<path opacity="0.4" d="M10.1942 1.125C9.76749 1.12495 9.36705 1.1249 9.03159 1.16408C8.65639 1.20791 8.26767 1.30904 7.90854 1.57386C7.55316 1.83591 7.34402 2.17201 7.19081 2.50893C7.05116 2.81604 6.92648 3.19884 6.79056 3.61615L6.79056 3.61615L6.04545 5.90305C6.03415 5.93773 6.0153 5.96683 5.99018 5.99406L5.99017 5.99406C5.69669 6.3122 5.32245 6.71788 5.01311 7.15163C4.62444 7.69662 4.25 8.40009 4.25 9.20796V11.753C4.25 12.4491 4.70348 13.2027 5.51521 13.3153L7.69699 13.6178C7.73113 13.6225 7.76554 13.6249 7.8 13.6249H16.2C16.2345 13.6249 16.2689 13.6225 16.303 13.6178L18.4848 13.3153C19.2965 13.2027 19.75 12.4491 19.75 11.753V9.20796C19.75 8.40009 19.3756 7.69662 18.9869 7.15163C18.6775 6.71788 18.3033 6.31219 18.0098 5.99406C17.9847 5.96682 17.9659 5.93773 17.9546 5.90305L17.2095 3.61617C17.0735 3.19886 16.9488 2.81604 16.8092 2.50893C16.656 2.172 16.4468 1.83591 16.0915 1.57386C15.7323 1.30904 15.3436 1.20791 14.9684 1.16408C14.6329 1.1249 14.2325 1.12495 13.8059 1.125H10.1942Z" fill="#141B34"/>
<path fill-rule="evenodd" clip-rule="evenodd" d="M15.2652 5.52498C15.5169 5.52498 15.6427 5.52498 15.7026 5.44247C15.7625 5.35996 15.7235 5.24033 15.6455 5.00106L15.3934 4.22707C15.239 3.75334 15.1456 3.47109 15.0542 3.26993C14.9795 3.10572 14.924 3.0473 14.7401 3.02581C14.5324 3.00155 14.2488 3 13.7582 3H10.2411C9.75049 3 9.46692 3.00155 9.25926 3.02581C9.07694 3.0471 9.02235 3.10019 8.94516 3.26993C8.8537 3.47108 8.76031 3.75334 8.60596 4.22707L8.35378 5.00106C8.27582 5.24033 8.23684 5.35996 8.29674 5.44247C8.35663 5.52498 8.48245 5.52498 8.7341 5.52498H15.2652Z" fill="#141B34"/>
<path fill-rule="evenodd" clip-rule="evenodd" d="M18.7084 8.59393C18.8449 8.98502 18.6384 9.41269 18.2474 9.54915L17.1974 9.91554C16.8063 10.052 16.3786 9.84559 16.2421 9.4545C16.1057 9.06342 16.3121 8.63575 16.7032 8.49928L17.7532 8.1329C18.1443 7.99643 18.5719 8.20284 18.7084 8.59393ZM5.38511 8.41163C5.62222 8.07199 6.08976 7.98889 6.4294 8.226L7.4794 8.95905C7.81903 9.19616 7.90214 9.66371 7.66502 10.0033C7.42791 10.343 6.96037 10.4261 6.62073 10.189L5.57073 9.45592C5.2311 9.2188 5.14799 8.75126 5.38511 8.41163ZM9.75026 10.3745C9.75026 9.96031 10.086 9.62452 10.5003 9.62452H13.5003C13.9145 9.62452 14.2503 9.96031 14.2503 10.3745C14.2503 10.7887 13.9145 11.1245 13.5003 11.1245H10.5003C10.086 11.1245 9.75026 10.7887 9.75026 10.3745Z" fill="#141B34"/>
</svg>
