<svg width="24" height="24" viewBox="0 0 24 24" fill="none" xmlns="http://www.w3.org/2000/svg">
<path d="M2.35606 5.55391C2.10839 6.04755 2.30779 6.6485 2.80143 6.89617C3.29507 7.14384 3.89602 6.94444 4.14368 6.4508C5.81699 3.11567 9.66436 2.10112 12.38 3.85243L11.5692 4.68341C11.4878 4.78504 11.4317 4.90922 11.4123 5.04754C11.3547 5.45773 11.6405 5.83696 12.0507 5.89459C12.5122 5.95944 12.9718 5.98618 13.3038 5.99442C13.6312 6.00253 14.003 5.99525 14.3424 5.94549C14.6379 5.90216 15.0851 5.80515 15.3973 5.50324C15.5708 5.33539 15.6745 5.13176 15.7398 4.96566C15.808 4.79224 15.8549 4.60625 15.8886 4.42818C15.956 4.07242 15.9842 3.67551 15.9947 3.32133C16.0053 2.96256 16.0025 2.43206 15.9668 1.9598C15.9357 1.54675 15.576 1.23708 15.163 1.26814C14.9684 1.28276 14.7968 1.37047 14.673 1.50232L13.8047 2.39227C10.0446 -0.373575 4.57588 1.12951 2.35606 5.55391Z" fill="#141B34"/>
<path opacity="0.4" d="M9.97734 22.5216C10.1868 22.4016 10.5023 22.3378 10.9506 22.3167C11.1603 22.3068 11.3745 22.3068 11.6025 22.3067C11.8306 22.3066 12.1017 22.3062 12.335 22.2912C13.1376 22.2396 14.2928 22.0733 15.3278 21.6746C16.3289 21.2889 17.4343 20.5986 17.7503 19.3681C18.4594 16.6061 17.56 14.0546 16.676 12.5177L20.5954 10.2726C21.7681 9.60077 22.0528 8.06698 21.4251 6.98835C20.754 5.83506 19.3235 5.56728 18.2328 6.19211L11.8417 9.85304L12.018 8.9189C12.265 7.60944 11.3685 6.36697 10.0553 6.16853C8.96579 6.00389 7.90258 6.6126 7.50282 7.64057L5.60007 12.3089C5.25049 13.1665 5.12919 13.4421 4.94457 13.6618C4.65987 13.9733 4.35476 14.3097 4.18492 14.517C4.02875 14.7076 3.84225 14.9535 3.76343 15.2344C3.67698 15.417 3.63892 15.9429 3.89008 16.4771L7.22132 22.2109C7.32116 22.3583 7.44327 22.5131 7.61417 22.6433C7.97995 22.9219 8.44068 23.0453 8.89675 22.987C9.10984 22.9597 9.29299 22.8866 9.45317 22.8089C9.60218 22.7365 9.79166 22.628 9.97734 22.5216Z" fill="#141B34"/>
</svg>
