<svg width="24" height="24" viewBox="0 0 24 24" fill="none" xmlns="http://www.w3.org/2000/svg">
<path fill-rule="evenodd" clip-rule="evenodd" d="M14.4845 1.42075C15.5267 1.13281 16.7206 1.13082 17.7445 2.04262C18.8593 3.03537 19.1476 4.53992 18.934 5.9415C18.7184 7.35593 17.9819 8.81736 16.8227 9.96123C16.4296 10.3492 15.7965 10.345 15.4086 9.95184C15.0206 9.55873 15.0248 8.92558 15.4179 8.53766C16.2855 7.68154 16.8093 6.6081 16.9568 5.6401C17.1063 4.65924 16.8609 3.93379 16.4144 3.53624C16.0816 3.2399 15.6848 3.16407 15.0172 3.34853C14.3468 3.53373 13.6117 3.9263 12.7385 4.3926C12.6716 4.42835 12.6038 4.46454 12.5352 4.5011C11.6427 4.97672 10.5858 5.5271 9.54048 5.7119C8.99747 5.80789 8.41675 5.8145 7.83531 5.64174C7.24612 5.46667 6.71622 5.12503 6.25721 4.61578C5.88745 4.20554 5.92026 3.57323 6.33049 3.20347C6.74073 2.83371 7.37305 2.86652 7.74281 3.27675C7.97894 3.53873 8.20058 3.66385 8.40496 3.72458C8.61711 3.78761 8.87202 3.79906 9.19231 3.74243C9.8736 3.62199 10.654 3.23731 11.5946 2.73607C11.6741 2.69374 11.7549 2.65044 11.8369 2.6065C12.6526 2.1694 13.5867 1.6688 14.4845 1.42075Z" fill="#141B34"/>
<path opacity="0.4" d="M18.1097 5.79098C18.6375 5.91777 19.1067 6.11628 19.4951 6.50472C19.8894 6.89902 20.088 7.37641 20.2144 7.91358C20.3339 8.42088 20.4044 9.05603 20.4886 9.81392L20.6572 11.3303C20.7514 12.1699 20.8248 12.8248 20.6095 13.4386C20.3942 14.0524 19.9278 14.5179 19.3297 15.1147L13.9655 20.4787L13.9655 20.4787C13.3009 21.1434 12.7491 21.6952 12.2527 22.074C11.7298 22.473 11.1811 22.7498 10.5187 22.7498C9.85625 22.7498 9.30764 22.473 8.78472 22.074C8.2883 21.6952 7.73648 21.1434 7.0719 20.4788L7.07187 20.4787L5.52109 18.928L5.52107 18.9279C4.85645 18.2634 4.3046 17.7115 3.92584 17.2151C3.52687 16.6922 3.25 16.1436 3.25 15.4812C3.25 14.8187 3.52687 14.2701 3.92584 13.7472C4.3046 13.2508 4.85647 12.6989 5.52109 12.0343L10.784 6.77146L10.8852 6.67013C11.482 6.07209 11.9475 5.60565 12.5613 5.39035C13.1751 5.17504 13.8299 5.24848 14.6696 5.34263L18.1097 5.79098Z" fill="#141B34"/>
<path fill-rule="evenodd" clip-rule="evenodd" d="M14.5308 11.4699C14.8234 11.763 14.823 12.2379 14.5299 12.5305L14.4136 12.6466C14.6379 13.1223 14.6833 13.6613 14.5463 14.1608C14.4368 14.5603 14.0241 14.7953 13.6247 14.6857C13.2252 14.5762 12.9902 14.1635 13.0998 13.7641C13.1624 13.5355 13.1032 13.2737 12.9144 13.0853C12.633 12.8043 12.1971 12.8132 11.9412 13.0687C11.7464 13.2631 11.7513 13.3531 11.7522 13.37L11.7522 13.3701C11.7544 13.4115 11.7866 13.5784 12.1018 13.8931C12.5257 14.3163 12.8817 14.829 12.9245 15.4424C12.9695 16.0864 12.6583 16.6314 12.2116 17.0774C11.7166 17.5715 11.1224 17.807 10.4978 17.7381C10.1764 17.7026 9.88173 17.5903 9.61836 17.434L9.52989 17.5223C9.23676 17.815 8.76189 17.8146 8.46923 17.5214C8.17658 17.2283 8.17697 16.7534 8.47011 16.4608L8.57566 16.3554C8.36885 15.9572 8.27843 15.514 8.31676 15.0798C8.35318 14.6672 8.71719 14.3622 9.1298 14.3986C9.54241 14.435 9.84737 14.799 9.81095 15.2117C9.79166 15.4302 9.8728 15.6941 10.0853 15.9062C10.3214 16.1419 10.524 16.2319 10.6623 16.2471C10.7664 16.2586 10.9266 16.2407 11.1518 16.0158C11.4252 15.7429 11.4318 15.5985 11.4282 15.5469C11.4224 15.4647 11.3635 15.2756 11.042 14.9546C10.6119 14.5252 10.2853 14.0271 10.2543 13.4505C10.222 12.8491 10.5197 12.3682 10.8814 12.0072C11.552 11.3376 12.5447 11.2061 13.3525 11.5864L13.4701 11.469C13.7632 11.1763 14.2381 11.1767 14.5308 11.4699Z" fill="#141B34"/>
</svg>
