<svg width="24" height="24" viewBox="0 0 24 24" fill="none" xmlns="http://www.w3.org/2000/svg">
<path fill-rule="evenodd" clip-rule="evenodd" d="M9.95192 21.7505H14.0488C15.6473 21.7505 16.9138 21.7505 17.9231 21.6308C18.9614 21.5077 19.8145 21.25 20.5456 20.6741C21.0466 20.2794 21.4782 19.7925 21.8233 19.238C22.3183 18.4427 22.5388 17.5221 22.6454 16.3842C22.6484 16.3521 22.6513 16.3198 22.6541 16.2872C22.6955 15.8123 22.7162 15.5748 22.5676 15.4126C22.419 15.2505 22.1718 15.2505 21.6774 15.2505H2.32341C1.82901 15.2505 1.58181 15.2505 1.43319 15.4126C1.28456 15.5748 1.30525 15.8123 1.34662 16.2872C1.34946 16.3198 1.35238 16.3521 1.35538 16.3842C1.462 17.5221 1.68244 18.4427 2.17746 19.238C2.52258 19.7925 2.95413 20.2794 3.45519 20.6741C4.18625 21.25 5.03935 21.5077 6.07765 21.6308C7.08692 21.7505 8.35342 21.7505 9.95192 21.7505ZM5.9991 19.2503C5.58488 19.2503 5.2491 18.9145 5.2491 18.5003C5.2491 18.0861 5.58488 17.7503 5.9991 17.7503H6.9991C7.41331 17.7503 7.7491 18.0861 7.7491 18.5003C7.7491 18.9145 7.41331 19.2503 6.9991 19.2503H5.9991ZM9.9991 19.2503C9.58488 19.2503 9.2491 18.9145 9.2491 18.5003C9.2491 18.0861 9.58488 17.7503 9.9991 17.7503H10.9991C11.4133 17.7503 11.7491 18.0861 11.7491 18.5003C11.7491 18.9145 11.4133 19.2503 10.9991 19.2503H9.9991Z" fill="#141B34"/>
<path opacity="0.4" d="M2.24634 13.7505H21.7537C22.222 13.7505 22.4561 13.7505 22.6025 13.6042C22.7489 13.458 22.7492 13.2248 22.7497 12.7583C22.75 12.5266 22.75 12.2878 22.75 12.0416V11.9611C22.75 10.1499 22.75 8.73755 22.645 7.61681C22.5384 6.47886 22.3179 5.55828 21.8229 4.76295C21.4778 4.20845 21.0463 3.72157 20.5452 3.32687C19.8141 2.75099 18.961 2.49327 17.9227 2.37015C16.9135 2.25047 15.6469 2.25048 14.0485 2.25049H9.95145C8.35299 2.25048 7.08652 2.25047 6.07727 2.37015C5.03896 2.49327 4.18587 2.75099 3.4548 3.32687C2.95374 3.72157 2.5222 4.20845 2.17708 4.76295C1.68205 5.55828 1.46162 6.47886 1.355 7.61681C1.24999 8.73754 1.24999 10.1499 1.25 11.961V12.0415C1.25 12.2877 1.25 12.5265 1.25026 12.7583C1.2508 13.2248 1.25106 13.458 1.39747 13.6042C1.54389 13.7505 1.77804 13.7505 2.24634 13.7505Z" fill="#141B34"/>
</svg>
