<svg width="24" height="24" viewBox="0 0 24 24" fill="none" xmlns="http://www.w3.org/2000/svg">
<path opacity="0.4" d="M11.1603 1.25098C5.82745 1.25098 1.25 4.84686 1.25 9.56789C1.25 11.1407 1.94189 12.9537 3.02491 14.389C4.10578 15.8215 5.68404 17.0145 7.54646 17.1097C8.35165 17.1508 9.06317 16.8887 9.67178 16.5654C10.1885 16.1446 11.3148 15.2776 11.6857 15.1766C12.6711 14.8109 13.5625 15.1266 14.1288 15.3272C14.7127 15.5323 15.0619 15.6263 15.538 15.4182C15.718 15.3395 15.9064 15.2163 16.1251 15.0503L16.8202 14.5063C17.1526 14.2592 17.6224 14.3283 17.8695 14.6607C18.1167 14.9931 18.0475 15.463 17.7151 15.7101L17.0319 16.2452C16.7799 16.4365 16.4806 16.6432 16.1387 16.7926C15.0884 17.2517 14.2386 16.9556 13.6317 16.7425C13.0097 16.524 12.6682 16.412 12.2077 16.5828C12.0169 16.7138 11.228 17.2629 11.228 17.2629L11.2231 17.2667C11.3161 17.6982 11.4315 18.1429 11.5743 18.5597C11.7687 19.1267 12.0383 19.717 12.4286 20.1395C12.7561 20.4941 13.146 20.7427 13.6109 20.9685C14.0582 21.1857 14.621 21.4026 15.3129 21.6694L15.3428 21.6809C15.4931 21.7389 15.6739 21.8155 15.8758 21.9012L15.8758 21.9012C16.4619 22.1498 17.2258 22.4739 17.9392 22.6342C18.9357 22.8581 20.1831 22.85 21.0391 21.7437C21.728 20.8534 21.6999 19.65 21.5713 18.6858C21.5036 18.1788 21.3974 17.6716 21.2997 17.2178C21.1101 16.2345 21.1356 16.0666 21.1819 15.9131C21.2867 15.7694 21.4776 15.5844 21.6835 15.418C21.9268 15.2214 22.155 15.0371 22.3195 14.8721C22.4753 14.7158 22.7275 14.4329 22.7486 14.0255C22.7686 13.6384 22.5784 13.3477 22.4377 13.1696C22.3033 12.9994 22.1144 12.8123 21.9237 12.6234L20.2703 10.9844C20.7509 10.243 21.1717 9.39958 20.9392 8.20932C20.1498 4.16857 15.9808 1.25098 11.1603 1.25098Z" fill="#141B34"/>
<path d="M21.5429 18.4869C21.226 18.422 20.9391 18.3489 20.7407 18.2905L20.7345 18.2886L20.7331 18.2883C20.7331 18.2883 20.7334 18.2883 20.7297 18.2872L20.7262 18.286L20.7239 18.2852C20.6301 18.2516 20.2224 18.0969 19.826 17.8306C19.4822 17.5997 19.0162 17.6912 18.7852 18.035C18.5542 18.3788 18.6457 18.8448 18.9896 19.0758C19.5342 19.4416 20.0736 19.6456 20.2187 19.6975C20.2323 19.7024 20.2435 19.7063 20.2653 19.7134C20.2889 19.7211 20.3027 19.7252 20.3174 19.7295C20.5973 19.8119 21.0889 19.9374 21.6318 20.0298C21.664 19.567 21.6272 19.1042 21.5714 18.6863C21.5625 18.6198 21.553 18.5533 21.5429 18.4869Z" fill="#141B34"/>
<path d="M6.76704 7.28834C7.16073 7.15957 7.58427 7.37433 7.71304 7.76801C8.27013 9.47116 9.38766 10.0769 10.3553 10.251C10.4922 10.2004 10.5831 10.0707 10.6738 9.92788C11.2284 9.05451 12.1022 8.65177 12.7582 8.46317C13.0934 8.36678 13.586 8.27025 14.0002 8.27025C14.4144 8.27025 14.7502 8.60604 14.7502 9.02025C14.7502 9.43347 14.416 9.76864 14.0032 9.77025C13.7617 9.77025 13.4068 9.83744 13.1727 9.90476C12.6899 10.0436 12.2171 10.2957 11.9401 10.732C11.7815 10.9818 11.5588 11.2542 11.266 11.4554C10.9639 11.663 10.5579 11.8114 10.0908 11.7275C8.64907 11.4684 7.03698 10.5261 6.28737 8.23434C6.15859 7.84066 6.37335 7.41712 6.76704 7.28834Z" fill="#141B34"/>
</svg>
