<svg width="24" height="24" viewBox="0 0 24 24" fill="none" xmlns="http://www.w3.org/2000/svg">
<path fill-rule="evenodd" clip-rule="evenodd" d="M9.92177 5.31358C8.97406 5.60784 8.1126 6.09803 7.38477 6.7368C7.43843 6.6134 7.4889 6.48869 7.53732 6.36384C7.76513 5.7764 7.9976 4.97859 8.0701 4.1367C8.07513 4.07837 8.07991 4.01938 8.08474 3.95991C8.14113 3.26475 8.20276 2.50504 8.71077 1.98399C9.21877 1.46296 9.87183 1.39429 10.3552 1.34345L10.3552 1.34345C10.3941 1.33936 10.4319 1.33539 10.4684 1.3313C10.9034 1.28267 11.4141 1.24988 12.0004 1.24988C12.5867 1.24988 13.0974 1.28266 13.5324 1.3313C13.5689 1.33539 13.6067 1.33936 13.6456 1.34345C14.129 1.39429 14.7821 1.46296 15.2901 1.98399C15.7981 2.50504 15.8597 3.26475 15.9161 3.95991C15.9209 4.01937 15.9257 4.07836 15.9307 4.13669C16.0032 4.97858 16.2357 5.7764 16.4635 6.36384C16.5121 6.48917 16.5628 6.61424 16.6168 6.73797C15.8888 6.09878 15.0271 5.60824 14.0791 5.31378C14.0187 5.0082 13.9708 4.68711 13.9422 4.35538C13.923 4.13273 13.8766 3.75226 13.8501 3.54129C13.8386 3.44995 13.7705 3.37629 13.6794 3.36332C13.5805 3.34924 13.4649 3.33622 13.3101 3.31891C12.9485 3.27848 12.512 3.24988 12.0004 3.24988C11.4888 3.24988 11.0523 3.27848 10.6907 3.31891C10.5359 3.33623 10.4203 3.34924 10.3214 3.36332C10.2303 3.37629 10.1622 3.44995 10.1507 3.54129C10.1243 3.75226 10.0779 4.13273 10.0587 4.35538C10.0301 4.68704 9.98215 5.00806 9.92177 5.31358ZM14.0791 18.686C15.0271 18.3915 15.8888 17.901 16.6168 17.2618C16.5628 17.3855 16.5121 17.5106 16.4635 17.6359C16.2357 18.2234 16.0032 19.0212 15.9307 19.8631C15.9257 19.9214 15.9209 19.9804 15.9161 20.0398C15.8597 20.735 15.7981 21.4947 15.2901 22.0158C14.7821 22.5368 14.129 22.6055 13.6456 22.6563C13.6067 22.6604 13.5689 22.6644 13.5324 22.6685C13.0974 22.7171 12.5867 22.7499 12.0004 22.7499C11.4141 22.7499 10.9034 22.7171 10.4684 22.6685C10.4319 22.6644 10.3941 22.6604 10.3552 22.6563C9.87183 22.6055 9.21877 22.5368 8.71077 22.0158C8.20276 21.4947 8.14113 20.735 8.08474 20.0398C8.07991 19.9804 8.07513 19.9214 8.0701 19.8631C7.9976 19.0212 7.76513 18.2234 7.53732 17.6359C7.4889 17.5111 7.43843 17.3863 7.38477 17.2629C8.1126 17.9017 8.97406 18.3919 9.92177 18.6862C9.98215 18.9917 10.0301 19.3127 10.0587 19.6444C10.0779 19.867 10.1243 20.2475 10.1507 20.4585C10.1622 20.5498 10.2303 20.6235 10.3214 20.6364C10.4203 20.6505 10.5359 20.6635 10.6907 20.6808C11.0523 20.7213 11.4888 20.7499 12.0004 20.7499C12.512 20.7499 12.9485 20.7213 13.3101 20.6808C13.4649 20.6635 13.5805 20.6505 13.6794 20.6364C13.7705 20.6235 13.8386 20.5498 13.8501 20.4585C13.8766 20.2475 13.923 19.867 13.9422 19.6444C13.9708 19.3126 14.0187 18.9916 14.0791 18.686Z" fill="#141B34"/>
<path opacity="0.4" d="M5 12C5 8.13401 8.13401 5 12 5C15.866 5 19 8.13401 19 12C19 15.866 15.866 19 12 19C8.13401 19 5 15.866 5 12Z" fill="#141B34"/>
</svg>
