<svg width="24" height="24" viewBox="0 0 24 24" fill="none" xmlns="http://www.w3.org/2000/svg">
<path opacity="0.4" d="M12.0572 1.75C14.2479 1.74999 15.9686 1.74998 17.312 1.93059C18.6886 2.11568 19.7809 2.50272 20.6391 3.36091C21.4973 4.21911 21.8843 5.31137 22.0694 6.68802C22.25 8.03144 22.25 9.7521 22.25 11.9428V11.9428V12.0572V12.0572C22.25 14.2479 22.25 15.9686 22.0694 17.312C21.8843 18.6886 21.4973 19.7809 20.6391 20.6391C19.7809 21.4973 18.6886 21.8843 17.312 22.0694C15.9686 22.25 14.2479 22.25 12.0572 22.25H12.0572H11.9428H11.9428C9.7521 22.25 8.03144 22.25 6.68802 22.0694C5.31137 21.8843 4.21911 21.4973 3.36091 20.6391C2.50272 19.7809 2.11568 18.6886 1.93059 17.312C1.74998 15.9686 1.74999 14.2479 1.75 12.0572V11.9428C1.74999 9.75212 1.74998 8.03144 1.93059 6.68802C2.11568 5.31137 2.50272 4.21911 3.36091 3.36091C4.21911 2.50272 5.31137 2.11568 6.68802 1.93059C8.03144 1.74998 9.75212 1.74999 11.9428 1.75H12.0572Z" fill="#141B34"/>
<path fill-rule="evenodd" clip-rule="evenodd" d="M14.7072 6.29289C15.0977 6.68342 15.0977 7.31658 14.7072 7.70711L8.70716 13.7071C8.39977 14.0145 7.92901 14.0881 7.54247 13.8892C7.15594 13.6903 6.94219 13.2644 7.01366 12.8356L7.51366 9.8356C7.57524 9.46611 7.83816 9.16202 8.19488 9.0477C8.55159 8.93339 8.94229 9.02802 9.20716 9.29289L9.75005 9.83579L13.2929 6.29289C13.6835 5.90237 14.3166 5.90237 14.7072 6.29289ZM16.4576 10.1108C16.8442 10.3097 17.0579 10.7356 16.9864 11.1644L16.4864 14.1644C16.4249 14.5339 16.1619 14.838 15.8052 14.9523C15.4485 15.0666 15.0578 14.972 14.7929 14.7071L14.2501 14.1642L10.7072 17.7071C10.3166 18.0976 9.68347 18.0976 9.29295 17.7071C8.90242 17.3166 8.90242 16.6834 9.29295 16.2929L15.2929 10.2929C15.6003 9.9855 16.0711 9.91192 16.4576 10.1108Z" fill="#141B34"/>
</svg>
