<svg width="24" height="24" viewBox="0 0 24 24" fill="none" xmlns="http://www.w3.org/2000/svg">
<path opacity="0.4" d="M22.25 12.0572C22.25 14.2479 22.25 15.9686 22.0694 17.312C21.8843 18.6886 21.4973 19.7809 20.6391 20.6391C19.7809 21.4973 18.6886 21.8843 17.312 22.0694C15.9686 22.25 14.2479 22.25 12.0572 22.25H11.9428C9.7521 22.25 8.03144 22.25 6.68802 22.0694C5.31137 21.8843 4.21911 21.4973 3.36091 20.6391C2.50271 19.7809 2.11568 18.6886 1.93059 17.312C1.74998 15.9686 1.74999 14.2479 1.75 12.0572L1.75 11.9428C1.74999 9.7521 1.74998 8.03144 1.93059 6.68802C2.11568 5.31137 2.50271 4.21911 3.36091 3.36091C4.21911 2.50271 5.31137 2.11568 6.68802 1.93059C8.03144 1.74998 9.75212 1.74999 11.9428 1.75L12.0572 1.75C14.2479 1.74999 15.9686 1.74998 17.312 1.93059C18.6886 2.11568 19.7809 2.50272 20.6391 3.36091C21.4973 4.21911 21.8843 5.31137 22.0694 6.68802C22.25 8.03144 22.25 9.75212 22.25 11.9428V12.0572Z" fill="#141B34"/>
<path d="M16.9394 16.3428C16.7954 16.7374 16.4201 16.9999 16 16.9999H8.00005C7.57997 16.9999 7.20468 16.7374 7.06066 16.3428C6.91664 15.9482 7.03459 15.5056 7.35591 15.235L11.0338 12.1378C11.5922 11.6676 12.4079 11.6676 12.9663 12.1378L16.6442 15.235C16.9655 15.5056 17.0835 15.9482 16.9394 16.3428Z" fill="#141B34"/>
<path d="M16.765 11.8589C16.4092 12.2813 15.7784 12.3354 15.3559 11.9797L12 9.15367L8.64419 11.9797C8.22174 12.3354 7.59089 12.2813 7.23514 11.8589C6.87939 11.4364 6.93347 10.8056 7.35591 10.4498L11.0338 7.35263C11.5922 6.88246 12.4079 6.88245 12.9663 7.35263L16.6442 10.4498C17.0666 10.8056 17.1207 11.4364 16.765 11.8589Z" fill="#141B34"/>
</svg>
