<svg width="24" height="24" viewBox="0 0 24 24" fill="none" xmlns="http://www.w3.org/2000/svg">
<path d="M2 10.875C1.44772 10.875 1 11.3227 1 11.875C1 12.4273 1.44772 12.875 2 12.875H3V21.875C3 22.4273 3.44772 22.875 4 22.875C4.55228 22.875 5 22.4273 5 21.875V12.875H11.25H19V17.625V21.875C19 22.4273 19.4477 22.875 20 22.875C20.5523 22.875 21 22.4273 21 21.875V12.875H22C22.5523 12.875 23 12.4273 23 11.875C23 11.3227 22.5523 10.875 22 10.875H2Z" fill="#141B34"/>
<path opacity="0.4" d="M11.25 12.875C11.25 13.7735 11.2499 14.5747 11.3299 15.1695C11.4143 15.7973 11.6 16.3641 12.0555 16.8195C12.5109 17.275 13.0777 17.4607 13.7055 17.5451C14.3003 17.6251 15.0495 17.625 15.948 17.625L19 17.625V12.875H11.25Z" fill="#141B34"/>
<path d="M16.1313 2.68046L16.1068 2.6915C16.5451 3.62898 16.3619 4.77184 15.5572 5.53761C15.2912 5.7907 14.9295 6.0415 14.4832 6.10311C13.994 6.17065 13.5414 5.99315 13.1757 5.64519L11.7596 4.29763C11.3922 3.94794 11.1866 3.49109 11.2671 2.98164C11.3386 2.52964 11.6162 2.17709 11.8749 1.9309C12.7431 1.10472 14.0594 0.981147 15.0616 1.56019C15.2069 1.46929 15.3672 1.37769 15.5286 1.30689C15.9213 1.13457 16.4393 1.02458 17.0014 1.25944C17.303 1.38543 17.5179 1.59052 17.693 1.80128C17.8538 1.99491 18.0217 2.24524 18.2051 2.51859L19.7402 4.80652C20.0071 5.2043 20.2353 5.54437 20.399 5.84506C20.5736 6.16565 20.7027 6.48939 20.7395 6.86307C20.7764 7.23722 20.7125 7.57929 20.6031 7.92658C20.5006 8.25157 20.3425 8.62649 20.158 9.0638L18.8495 12.1666C18.6885 12.5483 18.2486 12.7272 17.8669 12.5662C17.4853 12.4053 17.3064 11.9654 17.4673 11.5837L18.7632 8.51108C18.9639 8.03529 19.0937 7.72542 19.1725 7.47562C19.2465 7.24065 19.2569 7.11278 19.2468 7.01004C19.2366 6.90685 19.2011 6.78178 19.0817 6.56242C18.9551 6.32991 18.7664 6.04743 18.4765 5.61535L16.978 3.38194C16.77 3.07188 16.6448 2.88697 16.5391 2.75968C16.4904 2.70113 16.459 2.67126 16.4407 2.65612C16.4321 2.64905 16.427 2.64576 16.4251 2.64458L16.4232 2.64352C16.3663 2.61972 16.296 2.6082 16.1313 2.68046Z" fill="#141B34"/>
<path opacity="0.4" fill-rule="evenodd" clip-rule="evenodd" d="M3.66383 5.48114C4.19384 4.97218 4.90065 4.875 5.5 4.875C5.97974 4.875 6.52834 4.93727 7 5.22314C7.47166 4.93727 8.02026 4.875 8.5 4.875C9.09935 4.875 9.80616 4.97218 10.3362 5.48114C10.8751 5.9987 11 6.71626 11 7.375V11.875C11 12.4273 10.5523 12.875 10 12.875H4C3.44772 12.875 3 12.4273 3 11.875V7.375C3 6.71626 3.12487 5.9987 3.66383 5.48114ZM6 7.375C6 7.0939 5.96379 6.9699 5.94596 6.92635C5.90454 6.91017 5.78232 6.875 5.5 6.875C5.21768 6.875 5.09546 6.91017 5.05404 6.92635C5.03621 6.9699 5 7.0939 5 7.375V10.875H6V7.375ZM8 10.875V7.375C8 7.0939 8.03621 6.9699 8.05404 6.92635C8.09546 6.91017 8.21768 6.875 8.5 6.875C8.78232 6.875 8.90454 6.91017 8.94596 6.92635C8.96379 6.9699 9 7.0939 9 7.375V10.875H8Z" fill="#141B34"/>
</svg>
