<svg width="24" height="24" viewBox="0 0 24 24" fill="none" xmlns="http://www.w3.org/2000/svg">
<path fill-rule="evenodd" clip-rule="evenodd" d="M10.2519 8.42561L10.5446 8.92017C10.7447 9.25821 10.7461 9.26712 10.6589 9.64988L8.80437 17.7914C8.5709 19.1013 9.11588 20.1148 9.93012 21.0879L10.9357 22.2653C11.1825 22.5001 11.5281 22.7501 12 22.7501C12.4718 22.7501 12.8175 22.5001 13.0643 22.2653L14.0699 21.0879C14.8841 20.1149 15.4291 19.1013 15.1956 17.7915L13.3302 9.6337C13.2498 9.28211 13.2543 9.26329 13.4177 8.9649C13.5196 8.77895 13.6265 8.59548 13.7357 8.41332C13.5366 8.22586 13.3497 8.02144 13.1644 7.81881C13.0652 7.71036 12.9665 7.60243 12.8667 7.49789C12.7999 7.42794 12.7337 7.35868 12.6688 7.29016L12.0002 8.40583L11.3318 7.29032C11.2669 7.35878 11.2008 7.42799 11.1341 7.49789C11.0342 7.60244 10.9355 7.71037 10.8364 7.81881C10.647 8.02588 10.456 8.23481 10.2519 8.42561Z" fill="#141B34"/>
<path opacity="0.4" d="M7.50081 7.90879L5.79989 5.63109C5.63064 5.40445 5.54602 5.29113 5.42375 5.2382C5.30148 5.18527 5.15925 5.20131 4.87477 5.23339C4.55936 5.26896 4.1827 5.30852 3.93017 5.32541C2.86472 5.39669 3.037 5.62854 3.2197 6.52609L5.20411 16.275C5.43203 17.1654 5.58289 17.7453 5.75219 18.1721C5.91975 18.5946 6.15907 18.9453 6.63298 19.0089C7.18035 19.0824 7.56449 19.5857 7.49099 20.1331C7.41748 20.6805 6.91416 21.0646 6.36679 20.9911C5.172 20.8307 4.32732 20.0042 3.8931 18.9095C3.61382 18.2054 3.4003 17.4403 3.24926 16.6983L1.26485 6.94943L1.25681 6.91803C1.15403 6.51684 1.05179 6.11781 1.01555 5.77682C0.973922 5.38514 0.999107 4.91412 1.30228 4.47116C1.98611 3.47205 3.13608 3.37407 3.79666 3.32987C4.2358 3.30049 4.86759 3.36975 5.25742 3.11844C5.56831 2.91803 5.60666 2.66003 5.71701 2.32864C5.81233 2.0424 6.00026 1.61247 6.49374 1.32013C6.9209 1.06709 7.44382 1 7.99988 1C8.22392 1 8.44147 1.07523 8.61764 1.21363L10.7728 2.90672C11.0744 3.14366 11.3872 3.3756 11.6673 3.63916C11.8362 3.79808 11.9206 3.87754 11.9999 3.87754C12.0792 3.87754 12.1636 3.79809 12.3325 3.6392C12.6131 3.37522 12.9265 3.14273 13.2269 2.90672L15.3821 1.21363C15.5583 1.07523 15.7758 1 15.9999 1C16.5559 1 17.0789 1.06709 17.506 1.32013C17.9995 1.61247 18.1874 2.0424 18.2827 2.32864C18.3931 2.66003 18.4315 2.91804 18.7423 3.11845C19.1322 3.36975 19.764 3.3005 20.2031 3.32987C20.8637 3.37407 22.0137 3.47205 22.6975 4.47116C23.0007 4.91412 23.0258 5.38514 22.9842 5.77682C22.948 6.11763 22.8458 6.51642 22.7431 6.91741L22.7349 6.94944L20.7505 16.6983C20.5995 17.4403 20.386 18.2054 20.1067 18.9095C19.6724 20.0043 18.8278 20.8307 17.633 20.9911C17.0856 21.0646 16.5823 20.6805 16.5088 20.1331C16.4353 19.5857 16.8194 19.0824 17.3668 19.0089C17.8407 18.9453 18.08 18.5946 18.2476 18.1721C18.4169 17.7453 18.5677 17.1654 18.7957 16.275L20.7801 6.52609C20.9628 5.62854 21.135 5.39669 20.0696 5.32541C19.8171 5.30852 19.4404 5.26896 19.125 5.23339C18.8405 5.20131 18.6983 5.18528 18.576 5.2382C18.4537 5.29113 18.3691 5.40445 18.1999 5.63109L16.499 7.90879C16.3569 8.1072 16.1919 8.34087 16.0256 8.5156C15.8406 8.71009 15.5263 8.97196 15.0555 9.00701C14.5828 9.0422 14.2328 8.82813 14.0206 8.66084C13.5956 8.32567 13.2389 7.88819 12.8662 7.49792C12.6127 7.23249 12.3687 6.97702 12.167 6.73454C12.0869 6.63814 12.0468 6.58994 11.9999 6.58994C11.953 6.58994 11.9129 6.63814 11.8327 6.73453C11.631 6.97702 11.3871 7.2325 11.1336 7.49792C10.7608 7.88819 10.4042 8.32567 9.97915 8.66084C9.767 8.82813 9.41699 9.0422 8.9443 9.00701C8.47343 8.97196 8.15913 8.71009 7.97411 8.5156C7.80789 8.34087 7.64282 8.1072 7.50081 7.90879Z" fill="#141B34"/>
</svg>
