<svg width="25" height="24" viewBox="0 0 25 24" fill="none" xmlns="http://www.w3.org/2000/svg">
<path opacity="0.4" d="M5.12696 2.87515C5.12696 2.78652 5.05104 2.71481 4.96324 2.72692C4.06314 2.85107 3.31547 3.11638 2.72506 3.70734C2.12327 4.3097 1.86446 5.06805 1.74347 5.96879C1.62692 6.83646 1.62694 7.93974 1.62695 9.30865V15.9245C1.62694 17.2934 1.62692 18.3966 1.74347 19.2643C1.86446 20.165 2.12327 20.9234 2.72506 21.5257C3.32695 22.1282 4.08488 22.3874 4.98511 22.5085C5.85212 22.6252 6.95447 22.6252 8.32201 22.6252L12.5702 22.6252C12.7316 22.6252 12.8188 22.4308 12.7142 22.3078C12.6891 22.2783 12.6686 22.2729 12.6316 22.2613C11.6155 21.9433 10.8789 20.9959 10.8789 19.8752C10.8789 18.4945 11.9982 17.3752 13.3789 17.3752C13.8061 17.3752 14.1131 17.4659 14.2376 17.5026C14.4411 17.5608 14.6567 17.6416 14.8797 17.7507C14.9648 17.7923 15.0073 17.8131 15.0395 17.8208C15.1339 17.8435 15.2155 17.8261 15.2925 17.7668C15.3187 17.7466 15.3459 17.714 15.4004 17.6487C16.0233 16.902 16.7766 16.0787 17.6019 15.355C18.2147 14.8175 18.9492 14.2615 19.7705 13.85C19.9485 13.7608 20.0375 13.7162 20.0822 13.6437C20.127 13.5713 20.127 13.4774 20.127 13.2896V9.30871C20.127 7.93976 20.127 6.83648 20.0104 5.96879C19.8895 5.06805 19.6306 4.3097 19.0289 3.70734C18.4384 3.11638 17.6908 2.85107 16.7907 2.72692C16.7029 2.71481 16.627 2.78652 16.627 2.87515C16.627 4.53201 15.2838 5.87515 13.627 5.87515H8.12696C6.4701 5.87515 5.12696 4.53201 5.12696 2.87515Z" fill="#141B34"/>
<path fill-rule="evenodd" clip-rule="evenodd" d="M6.12891 10.875C6.12891 10.4608 6.46469 10.125 6.87891 10.125H14.8789C15.2931 10.125 15.6289 10.4608 15.6289 10.875C15.6289 11.2892 15.2931 11.625 14.8789 11.625H6.87891C6.46469 11.625 6.12891 11.2892 6.12891 10.875ZM6.12891 15.875C6.12891 15.4608 6.46469 15.125 6.87891 15.125H10.8789C11.2931 15.125 11.6289 15.4608 11.6289 15.875C11.6289 16.2892 11.2931 16.625 10.8789 16.625H6.87891C6.46469 16.625 6.12891 16.2892 6.12891 15.875Z" fill="#141B34"/>
<path d="M22.3201 15.5414C22.5044 16.062 22.2319 16.6335 21.7113 16.8179C21.1776 17.0069 20.5612 17.4138 19.9081 17.9865C19.2654 18.5501 18.6403 19.2271 18.0865 19.8909C17.5347 20.5524 17.0659 21.1861 16.7349 21.6551C16.5697 21.8891 16.3095 22.2794 16.2215 22.4115C16.0282 22.7156 15.6862 22.8924 15.3263 22.874C14.9664 22.8555 14.6442 22.6448 14.483 22.3225C14.0423 21.4411 13.647 21.0902 13.4477 20.9573C13.3634 20.9011 13.3065 20.8786 13.2838 20.8709C12.7754 20.8237 12.3774 20.396 12.3774 19.8753C12.3774 19.323 12.8252 18.8753 13.3774 18.8753C13.6118 18.8753 13.7208 18.9155 13.824 18.945C14.0319 19.0044 14.2827 19.1103 14.5571 19.2932C14.8314 19.4761 15.1191 19.7288 15.4078 20.0747C15.723 19.6439 16.1114 19.1363 16.5507 18.6097C17.144 17.8985 17.8424 17.1379 18.5894 16.4828C19.3261 15.8368 20.1655 15.2436 21.0436 14.9326C21.5642 14.7483 22.1357 15.0208 22.3201 15.5414Z" fill="#141B34"/>
<path d="M6.37598 2.875C6.37598 1.9085 7.15948 1.125 8.12598 1.125H13.626C14.5925 1.125 15.376 1.9085 15.376 2.875C15.376 3.8415 14.5925 4.625 13.626 4.625H8.12598C7.15948 4.625 6.37598 3.8415 6.37598 2.875Z" fill="#141B34"/>
</svg>
