<svg width="24" height="24" viewBox="0 0 24 24" fill="none" xmlns="http://www.w3.org/2000/svg">
<path opacity="0.4" d="M17 22C19.2091 22 21 20.2091 21 18C21 16.9335 20.5827 15.9646 19.9024 15.2475C19.3957 14.7134 19.1423 14.4463 19.0712 14.2679C19 14.0895 19 13.8535 19 13.3815V4C19 2.89543 18.1046 2 17 2C15.8954 2 15 2.89543 15 4V13.3815C15 13.8535 15 14.0895 14.9288 14.2679C14.8577 14.4463 14.6043 14.7134 14.0976 15.2475C13.4173 15.9646 13 16.9335 13 18C13 20.2091 14.7909 22 17 22Z" fill="#141B34"/>
<path fill-rule="evenodd" clip-rule="evenodd" d="M11.0013 3C11.5535 3 12.0013 3.44772 12.0013 4V5C12.0013 5.55228 11.5535 6 11.0013 6C10.449 6 10.0013 5.55228 10.0013 5V4C10.0013 3.44772 10.449 3 11.0013 3ZM4.63799 5.63604C5.02852 5.24551 5.66168 5.24551 6.05221 5.63604L6.75931 6.34315C7.14984 6.73367 7.14984 7.36684 6.75931 7.75736C6.36879 8.14788 5.73562 8.14788 5.3451 7.75736L4.63799 7.05025C4.24747 6.65973 4.24747 6.02656 4.63799 5.63604ZM2.00195 12C2.00195 11.4477 2.44967 11 3.00195 11H4.00195C4.55424 11 5.00195 11.4477 5.00195 12C5.00195 12.5523 4.55424 13 4.00195 13H3.00195C2.44967 13 2.00195 12.5523 2.00195 12ZM5.3457 16.2428C5.73623 15.8522 6.36939 15.8522 6.75992 16.2428C7.15044 16.6333 7.15044 17.2664 6.75992 17.657L6.05281 18.3641C5.66229 18.7546 5.02912 18.7546 4.6386 18.3641C4.24807 17.9736 4.24807 17.3404 4.6386 16.9499L5.3457 16.2428ZM11.002 18C11.5542 18 12.002 18.4477 12.002 19V20C12.002 20.5523 11.5542 21 11.002 21C10.4497 21 10.002 20.5523 10.002 20V19C10.002 18.4477 10.4497 18 11.002 18Z" fill="#141B34"/>
<path opacity="0.4" d="M11 7.25C8.37665 7.25 6.25 9.37665 6.25 12C6.25 14.6234 8.37665 16.75 11 16.75C11.0949 16.75 11.1891 16.7472 11.2826 16.7417C11.4602 16.7313 11.5489 16.7261 11.6221 16.6699C11.6952 16.6137 11.7276 16.5155 11.7925 16.3191C12.051 15.5366 12.4705 14.7832 13.0094 14.2151C13.1456 14.0716 13.255 13.9562 13.3439 13.8608C13.4193 13.78 13.457 13.7396 13.4779 13.6866C13.4988 13.6336 13.4988 13.5767 13.4988 13.4629L13.4994 8.294C13.4994 8.12752 13.4994 8.04428 13.4562 7.97276C13.413 7.90124 13.3452 7.86553 13.2096 7.79412C12.5495 7.44665 11.7977 7.25 11 7.25Z" fill="#141B34"/>
</svg>
