<svg width="24" height="24" viewBox="0 0 24 24" fill="none" xmlns="http://www.w3.org/2000/svg">
<path opacity="0.4" d="M1.25293 12.0039C1.25293 6.06684 6.06587 1.25391 12.0029 1.25391C17.94 1.25391 22.7529 6.06684 22.7529 12.0039C22.7529 17.941 17.94 22.7539 12.0029 22.7539C6.06587 22.7539 1.25293 17.941 1.25293 12.0039Z" fill="#141B34"/>
<path fill-rule="evenodd" clip-rule="evenodd" d="M4.75293 4.0665V5.99124C4.8297 8.31947 5.6256 10.6292 6.72542 12.5123C7.74087 14.251 8.96617 15.544 10.0278 16.1671C10.6921 15.0157 11.1153 13.5902 10.9771 11.902C9.64697 10.8553 8.74487 9.68339 8.15612 8.51553C7.01534 6.25266 7.06502 4.03467 7.39714 2.81585L7.54168 2.22039C8.08267 1.9733 8.64772 1.76976 9.23236 1.61426L8.85223 3.18032C8.85043 3.18775 8.84851 3.19516 8.84647 3.20254C8.6414 3.94718 8.55603 5.37865 9.11975 6.96279C10.3305 6.13861 12.0424 5.56774 13.8826 5.35104C16.0831 5.09191 18.5779 5.32481 20.8118 6.33427L20.8204 6.33815L20.8203 6.33821L21.2668 6.54675C21.6554 7.20499 21.9758 7.90826 22.2184 8.64684L20.1898 7.69926C18.2508 6.8242 16.0408 6.60726 14.058 6.84075C12.24 7.05484 10.7032 7.63575 9.77136 8.3408C10.2493 9.13793 10.9218 9.94034 11.856 10.6847C13.7036 10.213 15.369 9.98732 16.8393 9.98819C19.2398 9.9896 21.174 10.5972 22.4932 11.7854L22.7529 11.9997C22.7529 12.001 22.7529 12.0024 22.7529 12.0038C22.7529 12.6223 22.7007 13.2286 22.6004 13.8185L21.5256 12.9317C21.5166 12.9243 21.5078 12.9167 21.4992 12.9088C20.6785 12.1649 19.435 11.6521 17.7228 11.5212C17.8633 13.0679 17.5074 14.9759 16.7554 16.818C15.8848 18.9506 14.4425 21.0974 12.4556 22.6014L12.4494 22.6061L12.4494 22.6061L12.2537 22.751C12.1704 22.7529 12.0868 22.7538 12.0029 22.7538C11.3132 22.7538 10.6387 22.6889 9.98507 22.5648L11.5533 21.4031C13.2793 20.0955 14.5748 18.1908 15.3667 16.2511C16.0941 14.4692 16.3631 12.7423 16.2127 11.5025C15.1092 11.5526 13.868 11.7358 12.4915 12.072C12.6052 14.3119 11.889 16.1694 10.8998 17.589C9.80961 19.1533 8.37696 20.204 7.3126 20.6865C7.29899 20.6927 7.2852 20.6984 7.27125 20.7038L6.25831 21.0918C5.75847 20.7752 5.28654 20.4185 4.84705 20.0262L6.71283 19.3114C7.3914 18.9996 8.32936 18.352 9.15558 17.3928C7.82252 16.5719 6.4837 15.0727 5.43015 13.2688C4.22777 11.2101 3.33721 8.6546 3.25331 6.02734C3.25306 6.01937 3.25293 6.01139 3.25293 6.00341V5.75741C3.69285 5.14228 4.19601 4.57548 4.75293 4.0665Z" fill="#141B34"/>
</svg>
