<svg width="24" height="24" viewBox="0 0 24 24" fill="none" xmlns="http://www.w3.org/2000/svg">
<path d="M2.25 5C2.25 2.92893 3.92893 1.25 6 1.25C8.07107 1.25 9.75 2.92893 9.75 5C9.75 7.07107 8.07107 8.75 6 8.75C3.92893 8.75 2.25 7.07107 2.25 5Z" fill="#141B34"/>
<path d="M14.25 5C14.25 2.92893 15.9289 1.25 18 1.25C20.0711 1.25 21.75 2.92893 21.75 5C21.75 7.07107 20.0711 8.75 18 8.75C15.9289 8.75 14.25 7.07107 14.25 5Z" fill="#141B34"/>
<path d="M2.25 19C2.25 16.9289 3.92893 15.25 6 15.25C8.07107 15.25 9.75 16.9289 9.75 19C9.75 21.0711 8.07107 22.75 6 22.75C3.92893 22.75 2.25 21.0711 2.25 19Z" fill="#141B34"/>
<path opacity="0.4" d="M5 15.3847C5.31836 15.2968 5.6537 15.2499 6 15.2499C6.3463 15.2499 6.68164 15.2968 7 15.3847V12.9999L14.0402 12.9999C14.706 12.9999 15.2656 12.9999 15.7234 12.9625C16.2021 12.9234 16.6571 12.8384 17.089 12.6184C17.7475 12.2828 18.283 11.7474 18.6185 11.0888C18.8386 10.657 18.9235 10.202 18.9626 9.7233C18.9887 9.40396 18.9966 9.03517 18.999 8.61535C18.6809 8.70303 18.3459 8.74987 18 8.74987C17.6533 8.74987 17.3176 8.70282 16.9989 8.61475C16.9966 9.00867 16.9897 9.31028 16.9693 9.56043C16.9403 9.91547 16.889 10.0779 16.8365 10.1809C16.6927 10.4631 16.4632 10.6926 16.181 10.8364C16.0781 10.8888 15.9156 10.9401 15.5606 10.9691C15.1938 10.9991 14.7166 10.9999 14 10.9999H7V8.61506C6.68164 8.70293 6.3463 8.74987 6 8.74987C5.6537 8.74987 5.31836 8.70293 5 8.61506V15.3847Z" fill="#141B34"/>
</svg>
