<svg width="24" height="24" viewBox="0 0 24 24" fill="none" xmlns="http://www.w3.org/2000/svg">
<path d="M2.25 5C2.25 2.92893 3.92893 1.25 6 1.25C8.07107 1.25 9.75 2.92893 9.75 5C9.75 7.07107 8.07107 8.75 6 8.75C3.92893 8.75 2.25 7.07107 2.25 5Z" fill="#141B34"/>
<path d="M14.25 5C14.25 2.92893 15.9289 1.25 18 1.25C20.0711 1.25 21.75 2.92893 21.75 5C21.75 7.07107 20.0711 8.75 18 8.75C15.9289 8.75 14.25 7.07107 14.25 5Z" fill="#141B34"/>
<path d="M2.25 19C2.25 16.9289 3.92893 15.25 6 15.25C8.07107 15.25 9.75 16.9289 9.75 19C9.75 21.0711 8.07107 22.75 6 22.75C3.92893 22.75 2.25 21.0711 2.25 19Z" fill="#141B34"/>
<path opacity="0.4" d="M5 8.61498C5.31836 8.70284 5.6537 8.74979 6 8.74979C6.3463 8.74979 6.68164 8.70284 7 8.61498V12.1726C7.27761 12.0788 7.55764 12.0402 7.83762 12.0211C8.15088 11.9998 8.52937 11.9998 8.96802 11.9998L15 11.9998C15.4796 11.9998 15.7893 11.9992 16.0262 11.9831C16.2542 11.9675 16.3411 11.9409 16.3827 11.9237C16.6117 11.8288 16.7968 11.6525 16.9028 11.4298C16.9042 11.4211 16.9058 11.4105 16.9076 11.3979C16.9178 11.3245 16.9284 11.2189 16.9384 11.081C16.9581 10.8069 16.9719 10.4533 16.9813 10.0697C16.9933 9.5752 16.9976 9.05032 16.9992 8.61475C17.3178 8.70276 17.6534 8.74979 18 8.74979C18.346 8.74979 18.6811 8.70293 18.9992 8.6152C18.9976 9.06031 18.9932 9.60381 18.9807 10.1185C18.971 10.5138 18.9563 10.9038 18.9332 11.2246C18.9217 11.3841 18.9073 11.5388 18.8884 11.6742C18.8737 11.78 18.8443 11.9724 18.7716 12.1478C18.4672 12.8829 17.8831 13.4669 17.148 13.7714C16.8221 13.9064 16.4922 13.9559 16.1624 13.9784C15.8491 13.9998 15.4706 13.9998 15.032 13.9998L9 13.9998C8.52038 13.9998 8.21074 14.0003 7.97376 14.0165C7.74576 14.0321 7.65893 14.0587 7.61732 14.0759C7.37229 14.1774 7.17761 14.3721 7.07612 14.6171C7.05888 14.6587 7.03227 14.7455 7.01671 14.9735C7.00879 15.0896 7.00463 15.223 7.00243 15.3853C6.68335 15.297 6.34718 15.2498 6 15.2498C5.6537 15.2498 5.31836 15.2967 5 15.3846V8.61498Z" fill="#141B34"/>
</svg>
