<svg width="24" height="24" viewBox="0 0 24 24" fill="none" xmlns="http://www.w3.org/2000/svg">
<path fill-rule="evenodd" clip-rule="evenodd" d="M1.29289 1.29289C1.68342 0.902369 2.31658 0.902369 2.70711 1.29289L22.7071 21.2929C23.0976 21.6834 23.0976 22.3166 22.7071 22.7071C22.3166 23.0976 21.6834 23.0976 21.2929 22.7071L1.29289 2.70711C0.902369 2.31658 0.902369 1.68342 1.29289 1.29289Z" fill="#141B34"/>
<path d="M20.6447 20.7405C20.5356 21.4495 20.2814 22.1396 19.5804 22.5139C18.9553 22.8477 18.2676 22.7798 17.6846 22.6028C17.0949 22.4238 16.4955 22.0989 15.9467 21.7521C15.3926 21.402 14.7938 20.9618 14.3215 20.6127C13.8587 20.2706 13.4869 19.9958 13.2031 19.8249C12.8035 19.5843 12.5513 19.4335 12.3467 19.3371C12.158 19.2482 12.0663 19.2341 12 19.2341C11.9337 19.2341 11.842 19.2482 11.6533 19.3371C11.4488 19.4335 11.1965 19.5843 10.7969 19.8249C10.5131 19.9958 10.1414 20.2706 9.67854 20.6127C9.2062 20.9618 8.60739 21.402 8.05335 21.7521C7.50454 22.0989 6.90514 22.4238 6.31544 22.6028C5.7324 22.7798 5.04476 22.8477 4.41958 22.5139C3.71857 22.1396 3.46438 21.4495 3.35533 20.7405C3.24993 20.0553 3.24996 19.1434 3.25 18.0459L3.25001 9.64945C3.24999 7.88208 3.24997 6.47652 3.40365 5.37527C3.43882 5.12325 3.48266 4.88177 3.53779 4.65063C3.62489 4.28547 3.66844 4.1029 3.83778 4.055C4.00712 4.00711 4.15019 4.15019 4.43635 4.43634L20.5971 20.5971C20.6348 20.6347 20.6528 20.6879 20.6447 20.7405Z" fill="#141B34"/>
<path opacity="0.4" d="M12.0548 1.25C13.8941 1.24999 15.3482 1.24998 16.4856 1.39731C17.6531 1.54853 18.5997 1.86672 19.349 2.58863C20.1022 3.31431 20.4378 4.23743 20.5966 5.37525C20.7502 6.4765 20.7502 7.88207 20.7502 9.64945V15.7659C20.7502 16.3824 20.7502 16.6906 20.565 16.7673C20.3798 16.8441 20.1619 16.6261 19.7259 16.1902L6.0823 2.54654C5.81527 2.27951 5.68176 2.14599 5.72185 1.98199C5.76195 1.81799 5.92731 1.76578 6.25804 1.66136C6.64483 1.53924 7.06329 1.45579 7.51478 1.39731C8.6522 1.24998 10.1063 1.24999 11.9456 1.25H12.0548Z" fill="#141B34"/>
</svg>
