<svg width="24" height="24" viewBox="0 0 24 24" fill="none" xmlns="http://www.w3.org/2000/svg">
<path d="M11.9998 6H12.0088" stroke="#141B34" stroke-width="2" stroke-linecap="square" stroke-linejoin="round"/>
<path d="M14.9242 14.9244C14.2982 15.8738 13.2223 16.5003 12 16.5003C10.067 16.5003 8.5 14.9333 8.5 13.0003C8.5 11.7781 9.12652 10.7021 10.0759 10.0762" stroke="#141B34" stroke-width="1.5"/>
<path d="M22.0009 22.0011V22.7511C22.3043 22.7511 22.5778 22.5684 22.6939 22.2881C22.8099 22.0078 22.7458 21.6853 22.5313 21.4708L22.0009 22.0011ZM2 22.0011L1.25037 21.9777C1.24403 22.1805 1.32019 22.3773 1.46145 22.5231C1.60272 22.6688 1.79702 22.7511 2 22.7511V22.0011ZM21.5 6.00146L22.2493 5.9697C22.2323 5.5682 21.9018 5.25145 21.5 5.25146L21.5 6.00146ZM2.5 6.00161L2.49997 5.25161C2.09489 5.25163 1.76302 5.5733 1.75037 5.97818L2.5 6.00161ZM1.46967 2.53033L21.4706 22.5314L22.5313 21.4708L2.53033 1.46967L1.46967 2.53033ZM2 22.7511H22.0009V21.2511H2V22.7511ZM16.001 6.75161L21.5 6.75146L21.5 5.25146L16.0009 5.25161L16.001 6.75161ZM2.74963 22.0245L3.24963 6.02504L1.75037 5.97818L1.25037 21.9777L2.74963 22.0245ZM2.50003 6.75161L6.00147 6.75146L6.00141 5.25146L2.49997 5.25161L2.50003 6.75161ZM20.7507 6.03323L21.2516 17.852L22.7503 17.7885L22.2493 5.9697L20.7507 6.03323Z" fill="#141B34"/>
<path d="M17 8L15.5 2H8.5L8 4" stroke="#141B34" stroke-width="1.5"/>
</svg>
