<svg width="24" height="24" viewBox="0 0 24 24" fill="none" xmlns="http://www.w3.org/2000/svg">
<path opacity="0.4" d="M12 6.43872C11.6948 6.43872 11.4371 6.53074 11.2094 6.64515C11.0053 6.74768 10.7792 6.89305 10.54 7.04688L8.40342 8.4204C7.97798 8.69387 7.61565 8.92678 7.33233 9.14926C7.03042 9.38634 6.77416 9.64423 6.58629 9.98833C6.39843 10.3324 6.32008 10.6875 6.28391 11.0696C6.24997 11.4282 6.24999 11.859 6.25 12.3647V21.9999C6.25 22.4141 6.58579 22.7499 7 22.7499H9.5V18C9.5 16.6193 10.6193 15.5 12 15.5C13.3807 15.5 14.5 16.6193 14.5 18V22.7499H17C17.4142 22.7499 17.75 22.4141 17.75 21.9999V12.3647C17.75 11.859 17.75 11.4282 17.7161 11.0696C17.6799 10.6875 17.6016 10.3324 17.4137 9.98833C17.2258 9.64423 16.9696 9.38634 16.6677 9.14926C16.3844 8.92678 16.022 8.69387 15.5966 8.42039L13.46 7.04689C13.2208 6.89306 12.9947 6.74768 12.7906 6.64515C12.5629 6.53074 12.3052 6.43872 12 6.43872Z" fill="#141B34"/>
<path fill-rule="evenodd" clip-rule="evenodd" d="M16 5.73221H12.75V6.62516C12.5323 6.52021 12.2872 6.43872 12 6.43872C11.7128 6.43872 11.4677 6.5202 11.25 6.62514V2.97035L11.25 2.93591C11.2499 2.72937 11.2498 2.50682 11.2749 2.3191C11.3042 2.09978 11.3796 1.81938 11.6146 1.58297C12.0147 1.18045 12.572 1.23496 12.8489 1.28352C13.1892 1.34319 13.5552 1.4778 13.8857 1.62207C14.5559 1.91463 15.2453 2.32115 15.6135 2.54789C16.5707 3.1373 16.75 4.24525 16.75 4.98221C16.75 5.39642 16.4142 5.73221 16 5.73221ZM6.25003 12.218C5.86782 12.3134 5.5079 12.4062 5.18397 12.5024C4.65183 12.6605 4.13182 12.851 3.6852 13.1353C3.21613 13.4338 2.83222 13.833 2.58079 14.3806C2.33877 14.9077 2.25 15.5063 2.25 16.1624V21.0001C2.25 21.5524 2.69772 22.0001 3.25 22.0001C3.80228 22.0001 4.25 21.5524 4.25 21.0001V16.1624C4.25 15.6727 4.31863 15.3888 4.39834 15.2152C4.46866 15.062 4.57085 14.9423 4.75918 14.8224C4.96995 14.6883 5.27864 14.5607 5.75345 14.4196C5.90942 14.3733 6.07415 14.328 6.25 14.2819V12.3647V12.3647C6.25 12.3151 6.25 12.2662 6.25003 12.218ZM17.75 14.2818C17.9259 14.328 18.0907 14.3733 18.2468 14.4196C18.7216 14.5607 19.0303 14.6883 19.2411 14.8224C19.4294 14.9423 19.5316 15.062 19.6019 15.2152C19.6816 15.3888 19.7502 15.6727 19.7502 16.1624V21.0001C19.7502 21.5524 20.198 22.0001 20.7502 22.0001C21.3025 22.0001 21.7502 21.5524 21.7502 21.0001V16.1624C21.7502 15.5063 21.6615 14.9077 21.4194 14.3806C21.168 13.833 20.7841 13.4338 20.315 13.1353C19.8684 12.851 19.3484 12.6605 18.8163 12.5024C18.4923 12.4062 18.1323 12.3134 17.75 12.2179C17.75 12.2661 17.75 12.3151 17.75 12.3647V14.2818Z" fill="#141B34"/>
<path fill-rule="evenodd" clip-rule="evenodd" d="M1 21.75C1 21.1977 1.44772 20.75 2 20.75H22C22.5523 20.75 23 21.1977 23 21.75C23 22.3023 22.5523 22.75 22 22.75H2C1.44772 22.75 1 22.3023 1 21.75Z" fill="#141B34"/>
<path fill-rule="evenodd" clip-rule="evenodd" d="M11 12.5C11 11.9477 11.4477 11.5 12 11.5H12.009C12.5613 11.5 13.009 11.9477 13.009 12.5C13.009 13.0523 12.5613 13.5 12.009 13.5H12C11.4477 13.5 11 13.0523 11 12.5Z" fill="#141B34"/>
<path fill-rule="evenodd" clip-rule="evenodd" d="M12 17C12.5523 17 13 17.4477 13 18V21.5698C13 22.1221 12.5523 22.5698 12 22.5698C11.4477 22.5698 11 22.1221 11 21.5698V18C11 17.4477 11.4477 17 12 17Z" fill="#141B34"/>
</svg>
