<svg width="24" height="24" viewBox="0 0 24 24" fill="none" xmlns="http://www.w3.org/2000/svg">
<path d="M11.5406 1.25001L11.5781 1.25002H15.4219L15.4594 1.25001C15.698 1.24994 15.947 1.24986 16.1537 1.27548C16.3899 1.30474 16.6995 1.38068 16.9457 1.62704C17.1955 1.87694 17.246 2.16745 17.2497 2.38811C17.253 2.57665 17.2214 2.79871 17.192 3.00625L17.1871 3.04068L17.131 3.43692C17.0642 3.90892 17.0061 4.32015 16.9152 4.65166C16.8176 5.00827 16.6642 5.34685 16.355 5.63042C16.2686 5.70969 16.1752 5.78247 16.0759 5.84808C15.7231 6.08113 15.3315 6.17132 14.9264 6.21193C14.5463 6.25004 14.0803 6.25002 13.5395 6.25H13.4605C12.9196 6.25002 12.4536 6.25004 12.0735 6.21193C11.6685 6.17132 11.2769 6.08113 10.9241 5.84808C10.8248 5.78247 10.7314 5.7097 10.645 5.63042C10.3358 5.34685 10.1824 5.00827 10.0847 4.65166C9.99391 4.32015 9.93574 3.90893 9.86897 3.43694L9.86375 3.40002L9.81289 3.04068L9.80801 3.00624C9.77854 2.7987 9.74702 2.57665 9.75023 2.38811C9.75398 2.16745 9.80445 1.87694 10.0542 1.62704C10.3005 1.38068 10.6101 1.30474 10.8462 1.27548C11.0529 1.24986 11.302 1.24994 11.5406 1.25001Z" fill="#141B34"/>
<path fill-rule="evenodd" clip-rule="evenodd" d="M10.327 9.1117L10.3275 9.11114L10.3275 9.11113C10.4093 9.02169 10.4913 8.93198 10.5734 8.84201L10.9157 7.23564C10.5533 7.12195 10.359 7.06864 10.2331 7.10269C10.0916 7.14094 9.96483 7.28073 9.71134 7.56029C9.55277 7.73518 9.39156 7.91156 9.22857 8.0899C9.09701 8.23385 8.96428 8.37908 8.83084 8.52581C7.90507 9.54379 6.95233 10.6273 6.23941 11.7776L6.19771 11.8446C5.99926 12.1628 5.78502 12.5063 5.75384 12.9593C5.7228 13.4103 5.88571 13.7797 6.03752 14.1238L6.06935 14.1962C6.28929 14.6986 6.63737 15.2792 7.00209 15.7429C7.18409 15.9743 7.38819 16.1996 7.60105 16.3747C7.78168 16.5233 8.10243 16.75 8.49981 16.75C8.63606 16.75 8.76973 16.7309 8.89974 16.6971L9.34516 14.6066C9.1108 14.8613 8.91227 15.0286 8.7552 15.1306C8.6736 15.1835 8.61235 15.213 8.57025 15.2294L8.55391 15.2163C8.45493 15.1348 8.32602 14.9998 8.18109 14.8156C7.89195 14.4479 7.61052 13.9763 7.44345 13.5946C7.34677 13.3738 7.29788 13.2597 7.2695 13.1699C7.24801 13.1019 7.24909 13.0799 7.2503 13.0623C7.25145 13.0455 7.25311 13.0246 7.28337 12.9615C7.32367 12.8774 7.38768 12.7723 7.51442 12.5678C8.14653 11.5478 9.01251 10.5555 9.94057 9.53501C10.0682 9.39463 10.1973 9.25351 10.327 9.1117ZM11.8142 7.44082C11.8143 7.44078 11.8143 7.44074 11.8144 7.44069C11.5791 7.41156 11.3223 7.3641 11.0575 7.28037C11.047 7.27706 11.0367 7.2738 11.0265 7.27057C11.3022 7.36051 11.5699 7.41056 11.8142 7.44082Z" fill="#141B34"/>
<path opacity="0.4" d="M18.1496 16.9293C18.2493 17.3969 18.3069 17.8584 18.1649 18.3216C18.0236 18.783 17.7182 19.1343 17.377 19.4679L14.7321 22.0541C14.5814 22.2015 14.42 22.3595 14.2657 22.4746C14.0849 22.6095 13.832 22.7501 13.4999 22.7501C13.1679 22.7501 12.915 22.6095 12.7342 22.4746C12.5799 22.3595 12.4184 22.2015 12.2677 22.0541L9.62283 19.4679C9.28169 19.1343 8.97632 18.783 8.83493 18.3216C8.693 17.8584 8.75062 17.3969 8.85024 16.9293L10.9163 7.23254C11.2827 7.36566 11.6383 7.42467 11.9486 7.45578C12.1429 7.47055 12.7085 7.50009 13.4162 7.50009H13.5833C14.0885 7.50015 14.6078 7.50021 15.0509 7.45578C15.5644 7.40429 15.8212 7.37855 15.9596 7.45704C15.9984 7.47909 16.0189 7.49404 16.0518 7.52434C16.1687 7.63216 16.2139 7.84426 16.3043 8.26846L18.1496 16.9293Z" fill="#141B34"/>
</svg>
