<svg width="24" height="24" viewBox="0 0 24 24" fill="none" xmlns="http://www.w3.org/2000/svg">
<path opacity="0.4" d="M6.91458 10.3569C8.6263 7.8552 12.1899 7.52399 14.3334 9.66743C16.4768 11.8109 16.1456 15.3745 13.6439 17.0862L13.5246 17.1678C12.5817 17.813 12.0179 18.8818 12.0179 20.0243V20.1193C12.0179 21.5699 10.2641 22.2964 9.23834 21.2706L2.73017 14.7625C1.70443 13.7367 2.4309 11.9829 3.88151 11.9829H3.97648C5.11897 11.9829 6.18785 11.4191 6.83299 10.4762L6.91458 10.3569Z" fill="#141B34"/>
<path d="M20.8764 6.36004C21.9584 5.50579 22.0526 3.89869 21.0778 2.92386C20.103 1.94903 18.4959 2.04324 17.6416 3.12529L14.3877 7.24685C14.2571 7.41236 14.1918 7.49511 14.2047 7.5809C14.2177 7.66669 14.3089 7.72926 14.4911 7.85442C14.8084 8.07237 15.1112 8.32302 15.3949 8.60677C15.6787 8.89051 15.9293 9.19325 16.1473 9.51056C16.2724 9.69278 16.335 9.7839 16.4208 9.79689C16.5066 9.80989 16.5893 9.74456 16.7548 9.61389L20.8764 6.36004Z" fill="#141B34"/>
<path d="M3.90775 20.0934C3.19352 19.3792 3.06269 18.3025 3.51527 17.4555C3.57432 17.345 3.72224 17.3312 3.81084 17.4198L6.58141 20.1904C6.67 20.279 6.65625 20.4269 6.54574 20.4859C5.69871 20.9385 4.62199 20.8077 3.90775 20.0934Z" fill="#141B34"/>
<path fill-rule="evenodd" clip-rule="evenodd" d="M20.1819 15.0167C20.725 15.117 21.0839 15.6387 20.9836 16.1817C20.7651 17.3641 20.1937 18.4822 19.2676 19.3761C18.397 20.2164 17.3284 20.7472 16.2021 20.9795C15.6612 21.091 15.1323 20.7429 15.0208 20.202C14.9093 19.6611 15.2574 19.1322 15.7983 19.0207C16.5782 18.8599 17.2981 18.4974 17.8786 17.9371C18.4944 17.3428 18.8715 16.6052 19.0168 15.8184C19.1172 15.2753 19.6388 14.9164 20.1819 15.0167Z" fill="#141B34"/>
<path fill-rule="evenodd" clip-rule="evenodd" d="M8.97814 3.79106C9.09352 4.33116 8.74921 4.86253 8.20911 4.9779C7.42701 5.14497 6.70061 5.52232 6.11159 6.11134C5.52256 6.70037 5.14521 7.42677 4.97814 8.20886C4.86277 8.74896 4.3314 9.09327 3.79131 8.9779C3.25121 8.86253 2.9069 8.33116 3.02227 7.79106C3.26601 6.65001 3.82237 5.57214 4.69737 4.69713C5.57238 3.82212 6.65025 3.26577 7.79131 3.02203C8.33141 2.90665 8.86277 3.25096 8.97814 3.79106Z" fill="#141B34"/>
</svg>
