<svg width="24" height="24" viewBox="0 0 24 24" fill="none" xmlns="http://www.w3.org/2000/svg">
<path d="M16.4434 1.57003C17.5849 0.910674 19.0444 1.3021 19.7032 2.44377L22.4302 7.16929C23.089 8.31076 22.6982 9.77051 21.5569 10.4297C20.4154 11.0891 18.9559 10.6977 18.297 9.556L15.57 4.83048C14.9113 3.68901 15.3021 2.22927 16.4434 1.57003Z" fill="#141B34"/>
<path opacity="0.4" d="M10.4891 15.3636C9.13777 16.1623 7.41815 15.681 6.64887 14.3169L5.62206 12.4962C4.85838 11.1421 5.30479 9.40262 6.6454 8.61025L13.7974 4.38301C13.9184 4.31151 14.0739 4.38384 14.1081 4.52014C14.1884 4.8405 14.314 5.15517 14.4872 5.45539L17.2142 10.1809C17.3483 10.4133 17.5042 10.6252 17.6777 10.8157C17.7673 10.9139 17.7495 11.0723 17.6351 11.14L10.4891 15.3636Z" fill="#141B34"/>
<path d="M5.72638 12.6809L3.38348 14.0089L3.13021 13.5396C2.86791 13.0536 2.26127 12.8722 1.77525 13.1345C1.28923 13.3968 1.10787 14.0035 1.37018 14.4895L2.84652 17.225C3.10882 17.711 3.71546 17.8924 4.20148 17.6301C4.6875 17.3678 4.86885 16.7611 4.60655 16.2751L4.33356 15.7693L6.71108 14.4217C6.68971 14.3873 6.66897 14.3523 6.64887 14.3166L5.72638 12.6809Z" fill="#141B34"/>
<path d="M11.4796 14.7779L7.87602 21.2643C7.60781 21.7471 7.78176 22.3559 8.26454 22.6241C8.74732 22.8923 9.35613 22.7184 9.62434 22.2356L13.7502 14.8091L17.876 22.2356C18.1442 22.7184 18.753 22.8923 19.2358 22.6241C19.7186 22.3559 19.8926 21.7471 19.6243 21.2643L14.8982 12.7573L11.4796 14.7779Z" fill="#141B34"/>
</svg>
