<svg width="24" height="24" viewBox="0 0 24 24" fill="none" xmlns="http://www.w3.org/2000/svg">
<path d="M9.09883 19.4647C11.0393 19.5118 12.9607 19.5118 14.9012 19.4647C18.0497 19.3883 19.6239 19.3501 20.755 18.2539C21.8862 17.1576 21.9189 15.6777 21.9842 12.7179V12.7178C22.0053 11.7661 22.0053 10.8201 21.9842 9.86838C21.9392 7.82941 21.9097 6.49275 21.5259 5.5L12 10.3276L2.47411 5.5C2.09032 6.49275 2.0608 7.82941 2.01576 9.86836C1.99474 10.8201 1.99475 11.7661 2.01577 12.7178C2.08114 15.6777 2.11383 17.1576 3.24496 18.2539C4.37608 19.3501 5.95033 19.3883 9.09883 19.4647Z" fill="#D4D7E0"/>
<path d="M14.9036 2.53657C12.9631 2.48781 11.0418 2.48781 9.10128 2.53656C5.95278 2.61566 4.37854 2.65521 3.24741 3.79065C2.89549 4.14391 2.64989 4.53563 2.47656 5L12.0025 10L21.5283 5C21.355 4.53563 21.1094 4.14392 20.7575 3.79066C19.6264 2.65523 18.0521 2.61568 14.9036 2.53657Z" fill="white"/>
<path d="M15.5861 18.6482C14.9573 19.0167 13.3087 19.7693 14.3128 20.711C14.8033 21.171 15.3496 21.5 16.0365 21.5H19.9557C20.6425 21.5 21.1888 21.171 21.6794 20.711C22.6835 19.7693 21.0348 19.0167 20.4061 18.6482C18.9316 17.7839 17.0606 17.7839 15.5861 18.6482Z" fill="white"/>
<path d="M19.9961 14C19.9961 15.1046 19.1007 16 17.9961 16C16.8915 16 15.9961 15.1046 15.9961 14C15.9961 12.8954 16.8915 12 17.9961 12C19.1007 12 19.9961 12.8954 19.9961 14Z" fill="white"/>
<path d="M2 5L8.91302 8.92462C11.4387 10.3585 12.5613 10.3585 15.087 8.92462L22 5" stroke="#141B34" stroke-width="1.5" stroke-linejoin="round"/>
<path d="M21.996 10.5024C21.9933 10.1357 21.9894 9.77017 21.9842 9.5265C21.9189 6.46005 21.8862 4.92682 20.7551 3.79105C19.6239 2.65528 18.0497 2.61571 14.9012 2.53658C12.9607 2.48781 11.0393 2.48781 9.09882 2.53657C5.95033 2.6157 4.37608 2.65526 3.24495 3.79103C2.11382 4.92681 2.08114 6.46003 2.01576 9.52648C1.99474 10.5125 1.99475 11.4926 2.01577 12.4786C2.08114 15.5451 2.11383 17.0783 3.24496 18.2141C4.37608 19.3498 5.95033 19.3894 9.09883 19.4685C9.7068 19.4838 10.4957 19.4943 11 19.5" stroke="#141B34" stroke-width="1.5" stroke-linecap="round" stroke-linejoin="round"/>
<path d="M15.5861 18.6482C14.9573 19.0167 13.3087 19.7693 14.3128 20.711C14.8033 21.171 15.3496 21.5 16.0365 21.5H19.9557C20.6425 21.5 21.1888 21.171 21.6794 20.711C22.6835 19.7693 21.0348 19.0167 20.4061 18.6482C18.9316 17.7839 17.0606 17.7839 15.5861 18.6482Z" stroke="#141B34" stroke-width="1.5"/>
<path d="M19.9961 14C19.9961 15.1046 19.1007 16 17.9961 16C16.8915 16 15.9961 15.1046 15.9961 14C15.9961 12.8954 16.8915 12 17.9961 12C19.1007 12 19.9961 12.8954 19.9961 14Z" stroke="#141B34" stroke-width="1.5"/>
</svg>
