<svg width="24" height="24" viewBox="0 0 24 24" fill="none" xmlns="http://www.w3.org/2000/svg">
<path d="M9.09883 19.4647C11.0393 19.5118 12.9607 19.5118 14.9012 19.4647C18.0497 19.3883 19.6239 19.3501 20.755 18.2539C21.8862 17.1576 21.9189 15.6777 21.9842 12.7179V12.7178C22.0053 11.7661 22.0053 10.8201 21.9842 9.86838C21.9392 7.82941 21.9097 6.49275 21.5259 5.5L12 10.3276L2.47411 5.5C2.09032 6.49275 2.0608 7.82941 2.01576 9.86836C1.99474 10.8201 1.99475 11.7661 2.01577 12.7178C2.08114 15.6777 2.11383 17.1576 3.24496 18.2539C4.37608 19.3501 5.95033 19.3883 9.09883 19.4647Z" fill="#D4D7E0"/>
<path d="M19 17C19 17.8284 18.3284 18.5 17.5 18.5C16.6716 18.5 16 17.8284 16 17C16 16.1716 16.6716 15.5 17.5 15.5C18.3284 15.5 19 16.1716 19 17Z" fill="white"/>
<path d="M14.9036 2.53657C12.9631 2.48781 11.0418 2.48781 9.10128 2.53656C5.95278 2.61566 4.37854 2.65521 3.24741 3.79065C2.89549 4.14391 2.64989 4.53563 2.47656 5L12.0025 10L21.5283 5C21.355 4.53563 21.1094 4.14392 20.7575 3.79066C19.6264 2.65523 18.0521 2.61568 14.9036 2.53657Z" fill="white"/>
<path d="M2 5L8.91302 8.92462C11.4387 10.3585 12.5613 10.3585 15.087 8.92462L22 5" stroke="#141B34" stroke-width="1.5" stroke-linejoin="round"/>
<path d="M10.5 19.5C10.0337 19.4939 9.56682 19.485 9.09883 19.4732C5.95033 19.3941 4.37608 19.3545 3.24496 18.2184C2.11383 17.0823 2.08114 15.5487 2.01577 12.4814C1.99475 11.4951 1.99474 10.5147 2.01576 9.52843C2.08114 6.46113 2.11382 4.92748 3.24495 3.79139C4.37608 2.6553 5.95033 2.61573 9.09882 2.53658C11.0393 2.4878 12.9607 2.48781 14.9012 2.53659C18.0497 2.61574 19.6239 2.65532 20.755 3.79141C21.8862 4.92749 21.9189 6.46114 21.9842 9.52844C21.9939 9.98251 21.9991 10.1965 21.9999 10.5" stroke="#141B34" stroke-width="1.5" stroke-linecap="round" stroke-linejoin="round"/>
<path d="M19 17C19 17.8284 18.3284 18.5 17.5 18.5C16.6716 18.5 16 17.8284 16 17C16 16.1716 16.6716 15.5 17.5 15.5C18.3284 15.5 19 16.1716 19 17ZM19 17V17.5C19 18.3284 19.6716 19 20.5 19C21.3284 19 22 18.3284 22 17.5V17C22 14.5147 19.9853 12.5 17.5 12.5C15.0147 12.5 13 14.5147 13 17C13 19.4853 15.0147 21.5 17.5 21.5" stroke="#141B34" stroke-width="1.5" stroke-linecap="round" stroke-linejoin="round"/>
</svg>
