<svg width="24" height="25" viewBox="0 0 24 25" fill="none" xmlns="http://www.w3.org/2000/svg">
<path opacity="0.4" d="M10.5 7.75C6.21979 7.75 2.75 11.2198 2.75 15.5C2.75 19.7802 6.21979 23.25 10.5 23.25C10.7047 23.25 10.9075 23.2421 11.1082 23.2265C11.5679 23.1908 11.7977 23.173 11.8711 23.0121C11.9445 22.8512 11.7876 22.6393 11.4739 22.2155C10.7048 21.1769 10.25 19.8916 10.25 18.5C10.25 15.0482 13.0482 12.25 16.5 12.25C16.9868 12.25 17.2301 12.25 17.3191 12.1155C17.328 12.1021 17.3354 12.0886 17.3421 12.074C17.4087 11.9271 17.2956 11.7468 17.0693 11.3863C15.6986 9.20207 13.2689 7.75 10.5 7.75Z" fill="#141B34"/>
<path fill-rule="evenodd" clip-rule="evenodd" d="M16.5 13.75C13.8766 13.75 11.75 15.8766 11.75 18.5C11.75 21.1234 13.8766 23.25 16.5 23.25C19.1234 23.25 21.25 21.1234 21.25 18.5C21.25 15.8766 19.1234 13.75 16.5 13.75ZM17.2503 17.166C17.2503 16.7518 16.9145 16.416 16.5003 16.416C16.0861 16.416 15.7503 16.7518 15.7503 17.166V17.7493H15.167C14.7528 17.7493 14.417 18.0851 14.417 18.4993C14.417 18.9136 14.7528 19.2493 15.167 19.2493H15.7503V19.8327C15.7503 20.2469 16.0861 20.5827 16.5003 20.5827C16.9145 20.5827 17.2503 20.2469 17.2503 19.8327V19.2493H17.8337C18.2479 19.2493 18.5837 18.9136 18.5837 18.4993C18.5837 18.0851 18.2479 17.7493 17.8337 17.7493H17.2503V17.166Z" fill="#141B34"/>
<path d="M10.5 1.75C7.46243 1.75 5 4.21243 5 7.25V10.0399C5.58168 9.45401 6.25634 8.96054 7 8.58347V7.25C7 5.317 8.567 3.75 10.5 3.75C12.433 3.75 14 5.317 14 7.25V8.58347C14.7437 8.96054 15.4183 9.45401 16 10.0399V7.25C16 4.21243 13.5376 1.75 10.5 1.75Z" fill="#141B34"/>
</svg>
