<svg width="24" height="25" viewBox="0 0 24 25" fill="none" xmlns="http://www.w3.org/2000/svg">
<path fill-rule="evenodd" clip-rule="evenodd" d="M10.875 17.5C10.875 16.9477 11.3227 16.5 11.875 16.5H19.875C20.4273 16.5 20.875 16.9477 20.875 17.5C20.875 18.0523 20.4273 18.5 19.875 18.5H11.875C11.3227 18.5 10.875 18.0523 10.875 17.5Z" fill="#141B34"/>
<path opacity="0.4" d="M10.875 7.75C6.59479 7.75 3.125 11.2198 3.125 15.5C3.125 19.7802 6.59479 23.25 10.875 23.25C13.0583 23.25 15.0307 22.3472 16.4393 20.8946C16.7809 20.5423 16.9517 20.3661 16.8742 20.1831C16.7967 20 16.5376 20 16.0195 20H11.875C10.4943 20 9.375 18.8807 9.375 17.5C9.375 16.1193 10.4943 15 11.875 15H17.9697C18.2737 15 18.4258 15 18.5155 14.8961C18.6052 14.7922 18.5843 14.6494 18.5423 14.3639C17.9927 10.6223 14.7693 7.75 10.875 7.75Z" fill="#141B34"/>
<path d="M10.875 1.75C7.83743 1.75 5.375 4.21243 5.375 7.25V10.0399C5.95668 9.45401 6.63134 8.96054 7.375 8.58347V7.25C7.375 5.317 8.942 3.75 10.875 3.75C12.808 3.75 14.375 5.317 14.375 7.25V8.58347C15.1187 8.96054 15.7933 9.45401 16.375 10.0399V7.25C16.375 4.21243 13.9126 1.75 10.875 1.75Z" fill="#141B34"/>
</svg>
