<svg width="24" height="25" viewBox="0 0 24 25" fill="none" xmlns="http://www.w3.org/2000/svg">
<path opacity="0.4" d="M4.25 15.5C4.25 11.2198 7.71979 7.75 12 7.75C16.2802 7.75 19.75 11.2198 19.75 15.5C19.75 19.7802 16.2802 23.25 12 23.25C7.71979 23.25 4.25 19.7802 4.25 15.5Z" fill="#141B34"/>
<path d="M12 1.75C8.96243 1.75 6.5 4.21243 6.5 7.25V10.0399C7.08168 9.45401 7.75634 8.96054 8.5 8.58347V7.25C8.5 5.317 10.067 3.75 12 3.75C13.933 3.75 15.5 5.317 15.5 7.25V8.58347C16.2437 8.96054 16.9183 9.45401 17.5 10.0399V7.25C17.5 4.21243 15.0376 1.75 12 1.75Z" fill="#141B34"/>
<path fill-rule="evenodd" clip-rule="evenodd" d="M12 13.5C12.5523 13.5 13 13.9477 13 14.5V16.5C13 17.0523 12.5523 17.5 12 17.5C11.4477 17.5 11 17.0523 11 16.5V14.5C11 13.9477 11.4477 13.5 12 13.5Z" fill="#141B34"/>
</svg>
