<svg width="24" height="25" viewBox="0 0 24 25" fill="none" xmlns="http://www.w3.org/2000/svg">
<path opacity="0.4" d="M21.751 12.5C21.751 12.9142 21.4152 13.25 21.001 13.25H12.751V21.5C12.751 21.9142 12.4152 22.25 12.001 22.25C11.0431 21.9906 8.83414 21.2682 7.66114 20.4543C6.1949 19.4369 2.25098 14.4204 2.25098 12.5C2.25098 12.0858 2.58676 11.75 3.00098 11.75H11.251V3.5C11.251 3.08579 11.5868 2.75 12.001 2.75C12.6989 2.94606 14.5255 3.51175 16.2491 4.20597C18.4036 5.07374 21.3061 6.1809 21.4258 7.01875C21.5216 7.68903 21.6825 10.9522 21.751 12.5Z" fill="#141B34"/>
<path fill-rule="evenodd" clip-rule="evenodd" d="M11.9982 1.75C10.299 1.75 8.92312 2.32562 7.7461 2.93599C7.37937 3.12617 7.04467 3.311 6.72876 3.48546C5.97521 3.9016 5.32854 4.25871 4.60895 4.48853C4.178 4.62616 3.77803 4.75388 3.49627 4.8644C3.23608 4.96646 2.88059 5.12211 2.62122 5.41064C2.39138 5.66633 2.2774 5.94967 2.20536 6.20234C2.14144 6.42648 2.08667 6.73083 2.03813 7.00058C0.813658 13.7981 3.49156 20.2869 10.0793 22.8116C10.7115 23.054 11.2228 23.25 12.0015 23.25C12.7801 23.25 13.2913 23.054 13.9235 22.8115C20.5112 20.2868 23.1863 13.7977 21.9616 7.00052C21.913 6.73073 21.8582 6.42633 21.7943 6.20217C21.7222 5.94948 21.6082 5.66611 21.3783 5.41041C21.1189 5.12189 20.7634 4.96629 20.5032 4.86426C20.2214 4.75378 19.8215 4.62612 19.3906 4.48858C18.6706 4.25874 18.0233 3.90152 17.2692 3.48531C16.9531 3.31088 16.6183 3.12608 16.2515 2.93595C15.0739 2.32562 13.6974 1.75 11.9982 1.75ZM5.20293 6.35064C6.1182 6.05833 7.01856 5.56102 7.83444 5.11037C8.11552 4.95511 8.38658 4.80539 8.64477 4.6715C9.71691 4.11553 10.7613 3.70459 11.9987 3.70459C13.2362 3.70459 14.2812 4.1156 15.3541 4.67167C15.6124 4.80557 15.8836 4.95529 16.1649 5.11053C16.9813 5.5612 17.8821 6.05849 18.7977 6.35076C19.2688 6.50115 19.7015 6.65424 19.9171 6.73875C19.9509 6.85733 19.9826 7.02693 20.0404 7.3475C21.1385 13.4422 18.7426 18.8719 13.2258 20.9863C12.5777 21.2346 12.402 21.2955 12.0019 21.2955C11.6017 21.2955 11.4261 21.2347 10.7779 20.9863C5.26039 18.8718 2.86243 13.4418 3.96023 7.34745C4.01797 7.02694 4.04966 6.85737 4.08347 6.73882C4.29901 6.65428 4.7318 6.50111 5.20293 6.35064Z" fill="#141B34"/>
</svg>
