<svg width="24" height="25" viewBox="0 0 24 25" fill="none" xmlns="http://www.w3.org/2000/svg">
<path opacity="0.4" d="M11 8.75C9.40416 8.75 7.95364 8.78422 6.52522 8.84988C4.46716 8.9445 2.79609 10.5382 2.52452 12.5552C2.37636 13.6556 2.25 14.8118 2.25 16C2.25 17.1882 2.37636 18.3444 2.52452 19.4448C2.79609 21.4618 4.46716 23.0555 6.52522 23.1501C7.95364 23.2158 9.40416 23.25 11 23.25C12.5958 23.25 14.0464 23.2158 15.4748 23.1501C17.0679 23.0769 18.4291 22.1054 19.0888 20.7347C19.2344 20.4321 19.3073 20.2807 19.2191 20.1404C19.1308 20 18.9465 20 18.5778 20H12.75C11.3693 20 10.25 18.8807 10.25 17.5C10.25 16.1193 11.3693 15 12.75 15H19.0887C19.3873 15 19.5365 15 19.6257 14.9033C19.7148 14.8065 19.7028 14.6604 19.6788 14.3682C19.628 13.7503 19.5549 13.1447 19.4755 12.5552C19.2039 10.5382 17.5328 8.9445 15.4748 8.84989C14.0464 8.78422 12.5958 8.75 11 8.75Z" fill="#141B34"/>
<path fill-rule="evenodd" clip-rule="evenodd" d="M11.75 17.5C11.75 16.9477 12.1977 16.5 12.75 16.5L20.75 16.5C21.3023 16.5 21.75 16.9477 21.75 17.5C21.75 18.0523 21.3023 18.5 20.75 18.5L12.75 18.5C12.1977 18.5 11.75 18.0523 11.75 17.5Z" fill="#141B34"/>
<path d="M7.5 7.25C7.5 5.317 9.067 3.75 11 3.75C12.933 3.75 14.5 5.317 14.5 7.25V8.81016C14.827 8.82177 15.1515 8.83502 15.4748 8.84988C15.8298 8.8662 16.1732 8.92712 16.5 9.02712V7.25C16.5 4.21243 14.0376 1.75 11 1.75C7.96243 1.75 5.5 4.21243 5.5 7.25V9.02712C5.82676 8.92712 6.17023 8.8662 6.52522 8.84988C6.84854 8.83502 7.17299 8.82177 7.5 8.81016V7.25Z" fill="#141B34"/>
</svg>
