<svg width="24" height="24" viewBox="0 0 24 24" fill="none" xmlns="http://www.w3.org/2000/svg">
<path opacity="0.4" d="M18 4.75C18.4142 4.75 18.75 4.41421 18.75 4C18.75 3.58579 18.4142 3.25 18 3.25L18 4.75ZM6 3.25C5.58579 3.25 5.25 3.58579 5.25 4C5.25 4.41421 5.58579 4.75 6 4.75L6 3.25ZM18 3.25L6 3.25L6 4.75L18 4.75L18 3.25Z" fill="#141B34"/>
<path d="M12 12H9.04031C8.62106 12 8.38797 11.515 8.64988 11.1877L11.6096 7.48804C11.8097 7.23784 12.1903 7.23784 12.3904 7.48804L15.3501 11.1877C15.612 11.515 15.3789 12 14.9597 12H12ZM12 12V20" stroke="#141B34" stroke-width="1.5" stroke-linecap="round" stroke-linejoin="round"/>
</svg>
