<svg width="24" height="24" viewBox="0 0 24 24" fill="none" xmlns="http://www.w3.org/2000/svg">
<path opacity="0.4" d="M4.75 6C4.75 5.58579 4.41421 5.25 4 5.25C3.58579 5.25 3.25 5.58579 3.25 6L4.75 6ZM3.25 18C3.25 18.4142 3.58579 18.75 4 18.75C4.41421 18.75 4.75 18.4142 4.75 18L3.25 18ZM3.25 6L3.25 18L4.75 18L4.75 6L3.25 6Z" fill="#141B34"/>
<path d="M20 12H12.5M12.5 12V8.98188C12.5 8.57324 12.0364 8.33716 11.7059 8.57752L7.55601 11.5956C7.28145 11.7953 7.28145 12.2047 7.55601 12.4044L11.7059 15.4225C12.0364 15.6628 12.5 15.4268 12.5 15.0181V12Z" stroke="#141B34" stroke-width="1.5" stroke-linecap="round" stroke-linejoin="round"/>
</svg>
