<svg width="24" height="24" viewBox="0 0 24 24" fill="none" xmlns="http://www.w3.org/2000/svg">
<path d="M9.0004 21V21.75C9.32747 21.75 9.61682 21.538 9.71547 21.2262C9.81412 20.9144 9.69931 20.5746 9.43175 20.3865L9.0004 21ZM15.0004 21L14.569 20.3865C14.3015 20.5746 14.1867 20.9144 14.2853 21.2262C14.384 21.538 14.6733 21.75 15.0004 21.75V21ZM3 21L2.25 20.9998L2.24985 21.75H3V21ZM21.0004 21V21.75H21.7504V21H21.0004ZM4.74346 12.2636C4.74346 7.45529 8.0914 3.75 12.0004 3.75V2.25C7.06518 2.25 3.24346 6.83958 3.24346 12.2636H4.74346ZM12.0004 3.75C15.9094 3.75 19.2573 7.45529 19.2573 12.2636H20.7573C20.7573 6.83958 16.9356 2.25 12.0004 2.25V3.75ZM9.43175 20.3865C8.35465 19.6292 7.16951 18.3391 6.25499 16.8382C5.33745 15.3323 4.74346 13.6985 4.74346 12.2636H3.24346C3.24346 14.0742 3.9764 15.9814 4.97404 17.6187C5.97472 19.261 7.29305 20.7164 8.56904 21.6135L9.43175 20.3865ZM19.2573 12.2636C19.2573 13.6985 18.6633 15.3323 17.7458 16.8382C16.8313 18.3391 15.6462 19.6292 14.569 20.3865L15.4318 21.6135C16.7077 20.7164 18.0261 19.261 19.0268 17.6187C20.0244 15.9814 20.7573 14.0742 20.7573 12.2636H19.2573ZM3 21.75H9.0004V20.25H3V21.75ZM15.0004 21.75H21.0004V20.25H15.0004V21.75ZM2.2504 18.9999L2.25 20.9998L3.75 21.0002L3.7504 19.0002L2.2504 18.9999ZM20.2504 19V21H21.7504V19H20.2504Z" fill="#141B34"/>
</svg>
