<svg width="24" height="24" viewBox="0 0 24 24" fill="none" xmlns="http://www.w3.org/2000/svg">
<path d="M5 6V5.25H4.25V6H5ZM19 6H19.75V5.25H19V6ZM5 6.75H19V5.25H5V6.75ZM19.75 8V6H18.25V8H19.75ZM5.75 8V6H4.25V8H5.75ZM13.7304 5.82983C13.4113 4.45986 12.606 3.08896 11.3859 2.35688L10.6141 3.64312C11.394 4.11104 12.015 5.07751 12.2696 6.17017L13.7304 5.82983Z" fill="#141B34"/>
<path d="M7 14L18 14" stroke="#141B34" stroke-width="1.5" stroke-linejoin="round"/>
<path d="M15.5 9.00002L16.0253 9.53529C16.2428 9.32191 16.3095 8.99823 16.1942 8.71625C16.079 8.43427 15.8046 8.25002 15.5 8.25002L15.5 9.00002ZM12.4433 12L11.918 11.4647L11.6933 11.6852V12H12.4433ZM8.5 9.75L15.5 9.75002L15.5 8.25002L8.5 8.25L8.5 9.75ZM11.6933 12V18.075H13.1933V12H11.6933ZM14.9747 8.46474L11.918 11.4647L12.9687 12.5353L16.0253 9.53529L14.9747 8.46474ZM11.6933 18.075C11.6933 18.7689 11.4945 19.3189 11.193 19.681C10.9028 20.0294 10.4821 20.25 9.90833 20.25V21.75C10.917 21.75 11.7638 21.3395 12.3456 20.641C12.9158 19.9563 13.1933 19.0438 13.1933 18.075H11.6933Z" fill="#141B34"/>
</svg>
