<svg width="24" height="24" viewBox="0 0 24 24" fill="none" xmlns="http://www.w3.org/2000/svg">
<path d="M12.75 11.1666V9.55127H11.25V11.1666H12.75ZM6.16667 11.9166H12V10.4166H6.16667V11.9166ZM11.25 11.1666V13.7857H12.75V11.1666H11.25ZM11.25 13.7857C11.25 16.5274 9.02741 18.75 6.28571 18.75V20.25C9.85584 20.25 12.75 17.3558 12.75 13.7857H11.25ZM6.16667 10.4166C3.45127 10.4166 1.25 12.6179 1.25 15.3333H2.75C2.75 13.4463 4.27969 11.9166 6.16667 11.9166V10.4166ZM6.28571 18.75C4.35234 18.75 2.75 17.2504 2.75 15.3333H1.25C1.25 18.1448 3.59144 20.25 6.28571 20.25V18.75ZM2.75 8.99997C2.75 7.01484 4.35416 5.30127 7 5.30127V3.80127C3.64584 3.80127 1.25 6.07121 1.25 8.99997H2.75ZM12.75 9.55127C12.75 6.37563 10.1756 3.80127 7 3.80127V5.30127C9.34721 5.30127 11.25 7.20406 11.25 9.55127H12.75Z" fill="#141B34"/>
<path d="M22 11V11.75H22.75V11H22ZM21.25 15.0513C21.25 17.0364 19.6458 18.75 17 18.75V20.25C20.3542 20.25 22.75 17.98 22.75 15.0513H21.25ZM11.25 14.5C11.25 17.6756 13.8244 20.25 17 20.25V18.75C14.6528 18.75 12.75 16.8472 12.75 14.5H11.25ZM21.25 9.55127V11H22.75V9.55127H21.25ZM11.25 9.55127V11H12.75V9.55127H11.25ZM11.25 11V14.5H12.75V11H11.25ZM22 10.25H12V11.75H22V10.25ZM17 5.30127C19.3472 5.30127 21.25 7.20406 21.25 9.55127H22.75C22.75 6.37563 20.1756 3.80127 17 3.80127V5.30127ZM17 3.80127C13.8244 3.80127 11.25 6.37563 11.25 9.55127H12.75C12.75 7.20406 14.6528 5.30127 17 5.30127V3.80127Z" fill="#141B34"/>
</svg>
