<svg width="24" height="24" viewBox="0 0 24 24" fill="none" xmlns="http://www.w3.org/2000/svg">
<path d="M3 21H2.25V21.75H3V21ZM3 17L2.46967 16.4697L2.25 16.6893V17H3ZM7 21V21.75H7.31066L7.53033 21.5303L7 21ZM2.25 17V21H3.75V17H2.25ZM7 20.25H3V21.75H7V20.25ZM13.4697 5.46967L6.46967 12.4697L7.53033 13.5303L14.5303 6.53033L13.4697 5.46967ZM6.46967 12.4697L2.46967 16.4697L3.53033 17.5303L7.53033 13.5303L6.46967 12.4697ZM17.4697 9.46967L14.4697 12.4697L15.5303 13.5303L18.5303 10.5303L17.4697 9.46967ZM14.4697 12.4697L6.46967 20.4697L7.53033 21.5303L15.5303 13.5303L14.4697 12.4697ZM7 13.75H15V12.25H7V13.75Z" fill="#141B34"/>
<path d="M19.5 8.5L22 6L18 2L15.5 4.5M19.5 8.5L21 10M19.5 8.5L15.5 4.5M15.5 4.5L14 3" stroke="#141B34" stroke-width="1.5"/>
</svg>
