<svg width="24" height="24" viewBox="0 0 24 24" fill="none" xmlns="http://www.w3.org/2000/svg">
<path d="M7 2.99854L9 2.99854M7 21.0015H9M5 2.99854H2V6M2 18V21.0015L5 20.9849M2 8V11M2 13V16" stroke="#141B34" stroke-width="1.5" stroke-linejoin="round"/>
<path d="M22 3H22.75C22.75 2.58579 22.4142 2.25 22 2.25V3ZM22 20.9929L22.0005 21.7429C22.4145 21.7426 22.75 21.4069 22.75 20.9929H22ZM12 21H11.25V21.7505L12.0005 21.75L12 21ZM12 3V2.25H11.25V3H12ZM21.25 3V20.9929H22.75V3H21.25ZM12.75 21V3H11.25V21H12.75ZM12.0005 21.75L22.0005 21.7429L21.9995 20.2429L11.9995 20.25L12.0005 21.75ZM12 3.75H22V2.25H12V3.75Z" fill="#141B34"/>
</svg>
