<svg width="24" height="24" viewBox="0 0 24 24" fill="none" xmlns="http://www.w3.org/2000/svg">
<path d="M22 22V22.75C22.4142 22.75 22.75 22.4142 22.75 22H22ZM9 9V8.25H8.25V9H9ZM22 9H22.75C22.75 8.58579 22.4142 8.25 22 8.25V9ZM9 22H8.25C8.25 22.4142 8.58579 22.75 9 22.75V22ZM9 9.75H22V8.25H9V9.75ZM21.25 9V22H22.75V9H21.25ZM22 21.25H9V22.75H22V21.25ZM9.75 22V9H8.25V22H9.75Z" fill="#141B34"/>
<path d="M15 15V15.75H15.75V15H15ZM2 2V1.25C1.58579 1.25 1.25 1.58579 1.25 2H2ZM15 2H15.75C15.75 1.58579 15.4142 1.25 15 1.25V2ZM2 15H1.25C1.25 15.4142 1.58579 15.75 2 15.75V15ZM2 2.75H15V1.25H2V2.75ZM14.25 2V15H15.75V2H14.25ZM15 14.25H2V15.75H15V14.25ZM2.75 15V2H1.25V15H2.75Z" fill="#141B34"/>
</svg>
