<svg width="24" height="24" viewBox="0 0 24 24" fill="none" xmlns="http://www.w3.org/2000/svg">
<path d="M21.9979 9.00012L22.7479 9.00012C22.7479 8.58591 22.4121 8.25012 21.9979 8.25012V9.00012ZM14.9979 9.00012V8.25012L14.2479 8.25012L14.2479 9.00012L14.9979 9.00012ZM8.99805 21.9999H8.24805C8.24805 22.4142 8.58383 22.7499 8.99805 22.7499L8.99805 21.9999ZM8.99805 14.9999L8.99805 14.2499H8.24805L8.24805 14.9999H8.99805ZM21.9979 21.9999V22.7499C22.1968 22.7499 22.3876 22.6709 22.5282 22.5303C22.6689 22.3896 22.7479 22.1989 22.7479 21.9999H21.9979ZM14.9978 14.9999V15.7499H15.7478L15.7478 15L14.9978 14.9999ZM21.9979 8.25012L14.9979 8.25012V9.75012L21.9979 9.75012V8.25012ZM9.74805 21.9999L9.74805 14.9999H8.24805L8.24805 21.9999H9.74805ZM8.99805 22.7499L21.9979 22.7499V21.2499L8.99805 21.2499L8.99805 22.7499ZM22.7479 21.9999L22.7479 9.00012L21.2479 9.00012L21.2479 21.9999H22.7479ZM14.2479 9.00012L14.2478 14.9999L15.7478 15L15.7479 9.00013L14.2479 9.00012ZM8.99805 15.7499L14.9978 15.7499V14.2499L8.99805 14.2499L8.99805 15.7499Z" fill="#141B34"/>
<path d="M1.99805 12L1.99805 15H5.99807M1.99805 5L1.99805 2L4.99805 2M11.998 2L14.9981 2V6M1.99805 7L1.99805 10M9.99807 2L6.99807 2" stroke="#141B34" stroke-width="1.5" stroke-linejoin="round"/>
</svg>
