<svg width="24" height="24" viewBox="0 0 24 24" fill="none" xmlns="http://www.w3.org/2000/svg">
<path opacity="0.4" d="M20.3861 1.50508C18.272 0.965433 15.5455 1.16328 13.1177 3.26612C11.5838 2.99717 9.93618 3.24939 8.61688 4.00831C7.31942 4.75466 6.33552 5.99987 6.13461 7.68101C4.69857 8.00034 3.64923 8.865 3.01811 9.98796C2.37332 11.1352 2.17663 12.5254 2.38864 13.851C1.79084 14.5874 1.48386 15.5199 1.34632 16.4675C1.18791 17.5589 1.24283 18.7451 1.39446 19.8522C1.73964 22.3723 4.55626 23.4981 6.611 22.2115C9.64783 20.3099 12.8098 17.8109 15.8343 14.8283C18.9515 11.7541 20.6763 9.39497 22.1955 6.7395C22.7372 5.79252 22.8949 4.66809 22.6149 3.67962C22.3284 2.66786 21.58 1.80982 20.3861 1.50508Z" fill="#141B34"/>
<path d="M1.53125 15.5799C1.96699 15.405 2.76644 15.2606 3.66717 15.2776C4.6885 15.2968 5.59496 15.52 6.08794 15.9116C6.41228 16.1692 6.88406 16.1152 7.1417 15.7908C7.39935 15.4665 7.34528 14.9947 7.02094 14.7371C6.13796 14.0356 4.82316 13.7991 3.69539 13.7778C3.25779 13.7696 2.8116 13.7933 2.38801 13.8475L2.38862 13.8513C1.97971 14.3551 1.70686 14.9506 1.53125 15.5799Z" fill="#141B34"/>
<path d="M3.17033 9.73513C6.646 8.33832 10.1676 9.42479 11.7667 10.4292C12.1175 10.6496 12.5804 10.5438 12.8008 10.1931C13.0211 9.8423 12.9153 9.37935 12.5646 9.15903C11.2011 8.30263 8.83154 7.52813 6.13471 7.68033L6.13459 7.68134C4.80845 7.97623 3.8121 8.73618 3.17033 9.73513Z" fill="#141B34"/>
<path d="M7.69481 4.67447C11.5005 3.54846 15.1763 5.40853 16.2043 6.05156C16.5555 6.2712 17.0183 6.16458 17.2379 5.8134C17.4576 5.46222 17.3509 4.99947 16.9998 4.77982C16.3622 4.38105 14.9571 3.68057 13.1098 3.26507C11.5782 2.99837 9.93389 3.25103 8.61686 4.00865C8.28662 4.19861 7.97669 4.4209 7.69481 4.67447Z" fill="#141B34"/>
</svg>
