<svg width="24" height="24" viewBox="0 0 24 24" fill="none" xmlns="http://www.w3.org/2000/svg">
<path opacity="0.4" d="M17.6267 13.4404C16.6399 15.0481 15.2551 16.2116 13.6961 16.9267C14.3616 17.7441 14.75 18.7795 14.75 19.884C14.75 20.3784 14.3435 20.7516 13.8785 20.7495C12.3886 20.7429 11.2515 20.6145 10.393 20.3581C9.52456 20.0987 8.88798 19.6914 8.48738 19.0968C8.48099 19.0873 8.47482 19.0777 8.46887 19.0679L7.52591 17.5198C4.94386 16.903 2.5896 15.1913 1.31727 12.3933C1.22758 12.196 1.22758 11.9696 1.31727 11.7724C4.40672 4.97825 13.8169 4.61 17.5916 10.6676C17.8438 10.3759 18.1465 10.0683 18.4919 9.77736C19.3483 9.05601 20.5562 8.36399 22 8.36399C22.3041 8.36399 22.578 8.54757 22.6937 8.82879C22.8093 9.11001 22.7437 9.43321 22.5276 9.64709C22.2389 9.93275 21.7387 10.7832 21.4632 11.8392C21.1887 12.8913 21.195 13.9268 21.6413 14.6628C21.7817 14.8944 21.7864 15.1837 21.6535 15.4197C21.5206 15.6557 21.2708 15.8017 21 15.8017C20.4802 15.8017 19.9922 15.5615 19.6055 15.3075C19.2013 15.042 18.8078 14.6942 18.4583 14.3461C18.1558 14.0449 17.8721 13.7291 17.6267 13.4404Z" fill="#141B34"/>
<path d="M14.7502 4.28219C14.7502 4.05151 14.6693 3.83315 14.5189 3.65931C14.3808 3.49965 14.214 3.41123 14.0818 3.3607C13.8283 3.2638 13.5433 3.24659 13.3056 3.25051C12.808 3.25871 12.1865 3.36996 11.5858 3.52502C10.9776 3.68205 10.3433 3.89638 9.81219 4.13492C9.54705 4.254 9.29386 4.38524 9.07756 4.52616C8.87512 4.65806 8.64436 4.83678 8.48762 5.06944C8.48123 5.07892 8.47506 5.08855 8.46911 5.09832C8.43936 5.14717 8.47921 5.20896 8.53606 5.20263C10.3078 5.00544 12.1244 5.24388 13.7888 5.91731C14.0714 6.03165 14.2127 6.08882 14.3326 6.03065C14.4525 5.97247 14.49 5.84362 14.5649 5.58591C14.686 5.16946 14.7502 4.73154 14.7502 4.28219Z" fill="#141B34"/>
<path fill-rule="evenodd" clip-rule="evenodd" d="M7.25781 12C7.25781 12.6904 6.70017 13.25 6.01229 13.25L6.00334 13.25C5.31545 13.25 4.75781 12.6904 4.75781 12C4.75781 11.3096 5.31545 10.75 6.00334 10.75L6.01229 10.75C6.70017 10.75 7.25781 11.3096 7.25781 12Z" fill="#141B34"/>
</svg>
