<svg width="24" height="24" viewBox="0 0 24 24" fill="none" xmlns="http://www.w3.org/2000/svg">
<path d="M20.9383 1.85328C20.8573 1.3349 20.3714 0.980333 19.853 1.06133L13.353 2.07695C12.8347 2.15795 12.4801 2.64384 12.5611 3.16222C12.6421 3.6806 13.128 4.03517 13.6464 3.95418L20.1464 2.93855C20.6647 2.85756 21.0193 2.37166 20.9383 1.85328Z" fill="#141B34"/>
<path d="M6.93831 4.04078C6.85731 3.5224 6.37142 3.16783 5.85304 3.24883L3.85304 3.56133C3.33466 3.64233 2.98009 4.12822 3.06109 4.6466C3.14208 5.16498 3.62797 5.51955 4.14636 5.43855L6.14636 5.12605C6.66474 5.04506 7.01931 4.55916 6.93831 4.04078Z" fill="#141B34"/>
<path d="M20.9478 5.94068C20.9151 5.41703 20.4641 5.01906 19.9404 5.05179L13.4404 5.45804C12.9168 5.49077 12.5188 5.9418 12.5515 6.46545C12.5843 6.9891 13.0353 7.38707 13.559 7.35434L20.059 6.94809C20.5826 6.91536 20.9806 6.46433 20.9478 5.94068Z" fill="#141B34"/>
<path d="M6.94785 6.81568C6.91512 6.29203 6.46409 5.89406 5.94044 5.92679L3.94044 6.05179C3.41679 6.08452 3.01882 6.53555 3.05155 7.0592C3.08428 7.58285 3.53531 7.98082 4.05896 7.94809L6.05896 7.82309C6.58261 7.79036 6.98057 7.33933 6.94785 6.81568Z" fill="#141B34"/>
<path opacity="0.4" d="M3.73884 11.3504C4.09032 11.2736 4.48966 11.25 4.91115 11.25H19.0883C19.5097 11.25 19.9091 11.2736 20.2606 11.3504C20.6121 11.4272 20.9753 11.57 21.262 11.8537C21.8716 12.4571 21.8116 13.3359 21.6063 14.1628C21.2102 15.7588 20.439 16.7666 19.5436 17.6025C19.1717 17.9496 18.7714 18.273 18.3837 18.5864L18.3836 18.5865C17.9615 18.929 17.3568 19.4282 16.954 19.8233C17.0978 20.0582 17.3744 20.6221 17.3299 20.9986C17.3302 21.3549 17.2439 21.689 17.0493 21.9733C16.8566 22.2548 16.5966 22.4303 16.3444 22.5388C15.8749 22.7407 15.3298 22.75 14.9851 22.75H9.0143C8.66959 22.75 8.12453 22.7407 7.65505 22.5388C7.4028 22.4303 7.14282 22.2548 6.95006 21.9733C6.75547 21.689 6.66924 21.3549 6.66952 20.9986C6.69416 20.7423 6.80225 20.1469 7.03755 19.8157C6.63725 19.4237 6.03513 18.9268 5.61578 18.5865C5.22805 18.2731 4.82776 17.9496 4.45585 17.6025C3.5604 16.7666 2.78919 15.7588 2.39307 14.1628C2.18785 13.3359 2.12779 12.4571 2.73744 11.8537C3.0241 11.57 3.38726 11.4272 3.73884 11.3504Z" fill="#141B34"/>
<path fill-rule="evenodd" clip-rule="evenodd" d="M10.0498 1.9998C10.0498 1.47513 10.4751 1.0498 10.9998 1.0498C11.5245 1.0498 11.9498 1.47513 11.9498 1.9998V7.4998C11.9498 8.02448 11.5245 8.4498 10.9998 8.4498C10.4751 8.4498 10.0498 8.02448 10.0498 7.4998V1.9998ZM7.5498 2.4998C7.5498 1.97513 7.97513 1.5498 8.4998 1.5498C9.02448 1.5498 9.4498 1.97513 9.4498 2.4998V7.4998C9.4498 8.02448 9.02448 8.4498 8.4998 8.4498C7.97513 8.4498 7.5498 8.02448 7.5498 7.4998V2.4998ZM5.9998 2.0498C5.47513 2.0498 5.0498 2.47513 5.0498 2.9998V11.25H6.9498V2.9998C6.9498 2.47513 6.52448 2.0498 5.9998 2.0498ZM14.1429 11.25H12.1315C12.4739 9.70515 13.8519 8.5498 15.4998 8.5498C17.1477 8.5498 18.5257 9.70515 18.8681 11.25H16.8567C16.5925 10.7728 16.0839 10.4498 15.4998 10.4498C14.9157 10.4498 14.4071 10.7728 14.1429 11.25Z" fill="#141B34"/>
</svg>
