<svg width="24" height="24" viewBox="0 0 24 24" fill="none" xmlns="http://www.w3.org/2000/svg">
<path opacity="0.4" d="M5 4.25C4.58579 4.25 4.25 4.58579 4.25 5V19C4.25 19.4142 4.58579 19.75 5 19.75H19C19.4142 19.75 19.75 19.4142 19.75 19V5C19.75 4.58579 19.4142 4.25 19 4.25H5Z" fill="#141B34"/>
<path fill-rule="evenodd" clip-rule="evenodd" d="M8.43697 0.999686H15.5635C15.9307 0.999686 16.4298 0.977593 16.8802 1.18851C17.2925 1.38163 17.5809 1.73124 17.8071 2.00545C18.1499 2.4209 18.4965 2.83321 18.8413 3.24696C19.255 3.74334 19.628 4.16945 19.821 4.70251C20.0019 5.20195 20.0011 5.73046 20.0003 6.32656C19.9952 10.1086 19.9952 13.8908 20.0003 17.6728C20.0011 18.2689 20.0019 18.7974 19.821 19.2969C19.628 19.8299 19.255 20.256 18.8413 20.7524L17.5683 22.2801C17.4806 22.3852 17.2518 22.6944 16.9023 22.8581C16.5527 23.0218 16.1688 22.9997 16.0318 22.9997H7.96859C7.83164 22.9997 7.4477 23.0218 7.09817 22.8581C6.74865 22.6944 6.51981 22.3853 6.43215 22.2801L5.15911 20.7524C4.74546 20.256 4.3724 19.8299 4.1794 19.2969C3.99858 18.7974 3.9993 18.2689 4.00011 17.6728C4.00524 13.8908 4.00524 10.1086 4.00011 6.32656C3.9993 5.73046 3.99858 5.20195 4.1794 4.70251C4.3724 4.16945 4.74547 3.74334 5.15911 3.24696C5.50391 2.83321 5.85054 2.4209 6.19329 2.00545C6.41952 1.73124 6.70796 1.38163 7.12028 1.18851C7.57059 0.977593 8.0697 0.999686 8.43697 0.999686ZM7.97266 3.00838L7.96936 3.01171C7.9067 3.07522 7.82664 3.17003 7.66874 3.3595L6.69555 4.52733C6.1916 5.13208 6.10586 5.25653 6.05994 5.38336C6.01403 5.51019 6.00022 5.66068 6.00022 6.44789V17.5515C6.00022 18.3387 6.01403 18.4892 6.05995 18.616C6.10586 18.7428 6.1916 18.8673 6.69555 19.472L7.96859 20.9997H16.0318L17.3049 19.472C17.8088 18.8673 17.8946 18.7428 17.9405 18.616C17.9864 18.4892 18.0002 18.3387 18.0002 17.5515V6.44789C18.0002 5.66068 17.9864 5.51019 17.9405 5.38336C17.8946 5.25654 17.8088 5.13208 17.3049 4.52733L16.3317 3.3595C16.1738 3.17003 16.0937 3.07522 16.0311 3.01171L16.0278 3.00838L16.0231 3.00797C15.9342 3.0005 15.8101 2.99969 15.5635 2.99969H8.43697C8.19032 2.99969 8.06624 3.0005 7.97734 3.00797L7.97266 3.00838Z" fill="#141B34"/>
<path fill-rule="evenodd" clip-rule="evenodd" d="M5 2C5 1.44772 5.44772 1 6 1H18C18.5523 1 19 1.44772 19 2C19 2.55228 18.5523 3 18 3H6C5.44772 3 5 2.55228 5 2Z" fill="#141B34"/>
<path d="M12 8.75C10.2051 8.75 8.75 10.2051 8.75 12C8.75 13.7949 10.2051 15.25 12 15.25C13.7949 15.25 15.25 13.7949 15.25 12C15.25 10.2051 13.7949 8.75 12 8.75Z" fill="#141B34"/>
</svg>
