<svg width="24" height="24" viewBox="0 0 24 24" fill="none" xmlns="http://www.w3.org/2000/svg">
<path opacity="0.4" fill-rule="evenodd" clip-rule="evenodd" d="M22.4937 14.0021C22.4982 13.5315 22.5004 13.2963 22.3537 13.1481C22.2069 13 21.9703 13 21.4969 13L2.50205 13C2.02871 13 1.79204 13 1.64531 13.1481C1.49858 13.2963 1.50081 13.5315 1.50528 14.0021C1.51764 15.3064 1.55696 16.4138 1.6822 17.3453C1.87101 18.7497 2.27112 19.9035 3.18351 20.8159C4.0959 21.7283 5.24971 22.1284 6.65409 22.3172C8.01422 22.5 9.74895 22.5 11.9249 22.5H12.0738C14.2498 22.5 15.9845 22.5 17.3447 22.3172C18.749 22.1284 19.9028 21.7283 20.8152 20.8159C21.7276 19.9035 22.1277 18.7497 22.3166 17.3453C22.4418 16.4137 22.4813 15.3065 22.4937 14.0021Z" fill="#141B34"/>
<path fill-rule="evenodd" clip-rule="evenodd" d="M1.50528 9.99792C1.50081 10.4685 1.49858 10.7037 1.64531 10.8519C1.79204 11 2.02871 11 2.50205 11L21.4969 11C21.9703 11 22.2069 11 22.3537 10.8519C22.5004 10.7037 22.4982 10.4685 22.4937 9.99792C22.4813 8.69353 22.4418 7.58627 22.3166 6.65471C22.1277 5.25034 21.7276 4.09653 20.8152 3.18414C19.9028 2.27175 18.749 1.87164 17.3447 1.68282C15.9845 1.49996 14.2498 1.49998 12.0738 1.5H11.925C9.74896 1.49998 8.01423 1.49996 6.65409 1.68283C5.24971 1.87164 4.0959 2.27175 3.18351 3.18414C2.27112 4.09653 1.87101 5.25034 1.6822 6.65472C1.55696 7.58622 1.51764 8.69356 1.50528 9.99792Z" fill="#141B34"/>
</svg>
