<svg width="24" height="24" viewBox="0 0 24 24" fill="none" xmlns="http://www.w3.org/2000/svg">
<path d="M2 7V6.25C1.58579 6.25 1.25 6.58579 1.25 7H2ZM19 19V19.75C19.4142 19.75 19.75 19.4142 19.75 19H19ZM1.25 19V19.75H2.75V19H1.25ZM2 7.75H6V6.25H2V7.75ZM2.75 19V7H1.25V19H2.75ZM18.25 9V19H19.75V9H18.25ZM19 18.25H8V19.75H19V18.25Z" fill="#141B34"/>
<path d="M19 10.5L22 11.0067V14.9933L19 15.5" stroke="#141B34" stroke-width="1.5" stroke-linecap="round"/>
<path d="M5.03319 20C4.54502 14.6 9.00032 13.5 11.0002 11M11.0339 15.8353C13.5787 15.1243 15.2108 13.4224 15.8162 10.8483C16.502 7.93305 15.2725 3.96327 12.1026 4.00026C12.1026 4.00026 12.4253 5.25961 12.143 5.8764C11.1022 8.15057 7.50025 7.99259 6.3325 10.8769C5.63711 12.4908 6.05765 14.2938 7.36616 15.3279C8.18838 15.9778 9.81192 16.1767 11.0339 15.8353Z" stroke="#141B34" stroke-width="1.5" stroke-linejoin="round"/>
</svg>
