<svg width="24" height="24" viewBox="0 0 24 24" fill="none" xmlns="http://www.w3.org/2000/svg">
<path d="M5.99902 3V2.25H5.74867L5.54852 2.40038L5.99902 3ZM18.001 3L18.4515 2.40038L18.2513 2.25H18.001V3ZM21.25 11C21.25 16.1086 17.1086 20.25 12 20.25V21.75C17.9371 21.75 22.75 16.9371 22.75 11H21.25ZM12 20.25C6.89137 20.25 2.75 16.1086 2.75 11H1.25C1.25 16.9371 6.06294 21.75 12 21.75V20.25ZM2.75 11C2.75 7.97463 4.20163 5.28851 6.44953 3.59962L5.54852 2.40038C2.93975 4.3604 1.25 7.48298 1.25 11H2.75ZM17.5505 3.59962C19.7984 5.28851 21.25 7.97463 21.25 11H22.75C22.75 7.48298 21.0603 4.3604 18.4515 2.40038L17.5505 3.59962ZM18.001 2.25H5.99902V3.75H18.001V2.25Z" fill="#141B34"/>
<path d="M18 3C18 4.65685 15.3137 6 12 6C8.68629 6 6 4.65685 6 3" stroke="#141B34" stroke-width="1.5" stroke-linejoin="round"/>
</svg>
