<svg width="24" height="24" viewBox="0 0 24 24" fill="none" xmlns="http://www.w3.org/2000/svg">
<path d="M11.5 6L11.9983 5.43945L11.7852 5.25H11.5V6ZM2 22H1.25C1.25 22.4142 1.58579 22.75 2 22.75V22ZM16 22V22.75C16.4142 22.75 16.75 22.4142 16.75 22H16ZM16 10H16.75V9.66324L16.4983 9.43948L16 10ZM2 6V5.25C1.58579 5.25 1.25 5.58579 1.25 6H2ZM15.25 10V22H16.75V10H15.25ZM2.75 22V6H1.25V22H2.75ZM11.0017 6.56055L15.5017 10.5606L16.4983 9.43948L11.9983 5.43945L11.0017 6.56055ZM2 6.75H11.5V5.25H2V6.75ZM2 22.75H16V21.25H2V22.75Z" fill="#141B34"/>
<path d="M22 5.5H22.75V5.15967L22.4939 4.93557L22 5.5ZM22 16V16.75C22.4142 16.75 22.75 16.4142 22.75 16H22ZM10 2V1.25C9.58579 1.25 9.25 1.58579 9.25 2H10ZM18 2L18.4939 1.43557L18.2818 1.25H18V2ZM21.25 5.5V16H22.75V5.5H21.25ZM17.5061 2.56443L21.5061 6.06443L22.4939 4.93557L18.4939 1.43557L17.5061 2.56443ZM10 2.75H18V1.25H10V2.75ZM16 16.75H22V15.25H16V16.75ZM10.75 6V2H9.25V6H10.75Z" fill="#141B34"/>
</svg>
