<svg width="24" height="24" viewBox="0 0 24 24" fill="none" xmlns="http://www.w3.org/2000/svg">
<path d="M22 3.5H2V20.5H22V3.5Z" stroke="#141B34" stroke-width="1.5" stroke-linejoin="round"/>
<path d="M8.5 14.9999L7.81994 15.3162C7.94297 15.5807 8.20825 15.7499 8.5 15.7499C8.79175 15.7499 9.05703 15.5807 9.18005 15.3162L8.5 14.9999ZM16.5 9.9999V10.7499V9.9999ZM14 9.9999V9.2499L13.25 9.2499V9.9999H14ZM10.3199 9.308L7.81994 14.6836L9.18005 15.3162L11.6801 9.94054L10.3199 9.308ZM9.18005 14.6836L6.68006 9.308L5.31994 9.94054L7.81994 15.3162L9.18005 14.6836ZM14.75 15.7109V12.9999H13.25V15.7109H14.75ZM14.75 12.9999V9.9999H13.25V12.9999H14.75ZM14 10.7499L16.5 10.7499V9.2499L14 9.2499V10.7499ZM17.25 11.4999C17.25 11.9141 16.9142 12.2499 16.5 12.2499V13.7499C17.7426 13.7499 18.75 12.7425 18.75 11.4999H17.25ZM16.5 10.7499C16.9142 10.7499 17.25 11.0857 17.25 11.4999H18.75C18.75 10.2573 17.7426 9.2499 16.5 9.2499V10.7499ZM16.5 12.2499H15.7504V13.7499H16.5V12.2499ZM15.7504 12.2499H14V13.7499H15.7504V12.2499ZM18.1936 15.2928L16.373 12.5818L15.1277 13.418L16.9483 16.129L18.1936 15.2928Z" fill="#141B34"/>
</svg>
