<svg width="24" height="24" viewBox="0 0 24 24" fill="none" xmlns="http://www.w3.org/2000/svg">
<path d="M2 9V8.25C1.58579 8.25 1.25 8.58579 1.25 9H2ZM22 9H22.75C22.75 8.58579 22.4142 8.25 22 8.25V9ZM22 20V20.75C22.4142 20.75 22.75 20.4142 22.75 20H22ZM2 20H1.25C1.25 20.4142 1.58579 20.75 2 20.75V20ZM15 20L14.4698 20.5305L14.6894 20.75H15V20ZM9 20V20.75H9.31056L9.53021 20.5305L9 20ZM12 17.0014L12.5302 16.4709L12 15.9409L11.4698 16.4709L12 17.0014ZM2 9.75H22V8.25H2V9.75ZM11.4698 16.4709L8.46979 19.4695L9.53021 20.5305L12.5302 17.5318L11.4698 16.4709ZM15.5302 19.4695L12.5302 16.4709L11.4698 17.5318L14.4698 20.5305L15.5302 19.4695ZM22 19.25H15V20.75H22V19.25ZM2 20.75H9V19.25H2V20.75ZM21.25 9V20H22.75V9H21.25ZM2.75 20V9H1.25V20H2.75Z" fill="#141B34"/>
<path d="M15 13H19" stroke="#141B34" stroke-width="1.5"/>
<path d="M22 9L18 4H6L2 9" stroke="#141B34" stroke-width="1.5" stroke-linecap="round"/>
</svg>
