<svg width="24" height="24" viewBox="0 0 24 24" fill="none" xmlns="http://www.w3.org/2000/svg">
<path d="M22.8306 16.3849C22.9378 16.0874 22.847 15.7547 22.6035 15.553L20.7027 13.9781C20.0817 13.4634 19.5596 13.0308 19.0945 12.7386C18.6003 12.428 18.0898 12.2224 17.4927 12.253C16.8945 12.2837 16.4095 12.5413 15.9533 12.9024C15.5253 13.2412 15.0578 13.7254 14.5034 14.2997C14.2839 14.527 13.8785 14.9468 13.728 15.1446C13.5627 15.362 13.4017 15.6391 13.3783 15.9956C13.3718 16.0952 13.375 16.1951 13.3878 16.2941C13.4337 16.6475 13.6113 16.914 13.7893 17.1209C13.9517 17.3097 14.2354 17.5709 14.4692 17.7861C15.0885 18.3563 15.6045 18.8314 16.0629 19.1583C16.5445 19.5018 17.0486 19.7466 17.6478 19.75C17.8257 19.751 18.0035 19.7348 18.1783 19.7016C18.7692 19.5893 19.2165 19.2547 19.6191 18.8272C19.7101 18.7305 19.7557 18.6822 19.769 18.6352C19.7939 18.5473 19.7498 18.4452 19.6688 18.4031C19.6254 18.3806 19.5544 18.3806 19.4124 18.3806H17.9512C17.537 18.3806 17.2012 18.0448 17.2012 17.6306C17.2012 17.2164 17.537 16.8806 17.9512 16.8806H21.1167C21.1167 16.8806 21.1167 16.8806 21.1167 16.8806L22.125 16.8805C22.4412 16.8805 22.7234 16.6823 22.8306 16.3849Z" fill="#141B34"/>
<path fill-rule="evenodd" clip-rule="evenodd" d="M20.1373 12.5C20.6871 12.5 21.1328 12.0523 21.1328 11.5C21.1328 10.9477 20.6871 10.5 20.1373 10.5H20.1283C19.5785 10.5 19.1328 10.9477 19.1328 11.5C19.1328 12.0523 19.5785 12.5 20.1283 12.5H20.1373ZM13.1373 13C13.6871 13 14.1328 12.5523 14.1328 12C14.1328 11.4477 13.6871 11 13.1373 11H13.1283C12.5785 11 12.1328 11.4477 12.1328 12C12.1328 12.5523 12.5785 13 13.1283 13H13.1373Z" fill="#141B34"/>
<path fill-rule="evenodd" clip-rule="evenodd" d="M10.3781 2.03274C9.84377 1.89309 9.29739 2.21304 9.15774 2.74738C9.01809 3.28172 9.33804 3.82809 9.87238 3.96775C10.7328 4.19262 11.2696 4.60989 11.6152 5.07462C11.3351 5.11585 11.0585 5.17355 10.7861 5.2462C10.0293 4.50476 8.18462 3.5217 5.82596 4.26158C5.29899 4.42688 5.00581 4.98808 5.17111 5.51504C5.33641 6.04201 5.89761 6.3352 6.42457 6.16989C7.30929 5.89237 8.04986 5.997 8.57962 6.19494C7.75049 6.69255 6.99592 7.31437 6.3462 7.99927C5.26715 9.13676 4.40474 10.5246 3.9583 11.947L2.95727 10.4454C2.65092 9.98588 2.03005 9.8617 1.57052 10.1681C1.11099 10.4744 0.986816 11.0953 1.29317 11.5548L2.66481 13.6123L1.67801 14.1057C1.18403 14.3527 0.983803 14.9533 1.23079 15.4473C1.47778 15.9413 2.07845 16.1415 2.57243 15.8945L3.73812 15.3117C4.46081 19.4171 8.53177 22 12.625 22C13.1876 22 13.7452 21.9525 14.2907 21.8609C14.8353 21.7694 15.2027 21.2537 15.1112 20.709C15.0197 20.1644 14.504 19.797 13.9593 19.8885C13.522 19.962 13.0753 20 12.625 20C8.85427 20 5.625 17.4249 5.625 14C5.625 12.582 6.43096 10.8159 7.79719 9.37573C9.15645 7.94286 10.9112 7 12.625 7C13.9814 7 15.3621 7.59174 16.5479 8.54154L13.429 7.54738C12.9028 7.37965 12.3402 7.67025 12.1725 8.19645C12.0048 8.72265 12.2954 9.28519 12.8216 9.45292L17.5275 10.9529C17.8029 11.0407 18.103 11.005 18.3501 10.8549L21.6442 8.85493C22.1163 8.56831 22.2667 7.95325 21.9801 7.48117C21.6934 7.00908 21.0784 6.85874 20.6063 7.14536L19.0109 8.11397C17.6698 6.66125 15.8724 5.48104 13.8892 5.11663C13.4534 3.98195 12.512 2.59044 10.3781 2.03274Z" fill="#141B34"/>
</svg>
