<svg width="24" height="24" viewBox="0 0 24 24" fill="none" xmlns="http://www.w3.org/2000/svg">
<path d="M10.9451 2.07036C10.8997 1.81052 10.877 1.6806 10.7678 1.64091C10.6586 1.60122 10.565 1.67969 10.3777 1.83664C10.2189 1.96976 10.0669 2.11812 9.91977 2.27667C9.35766 2.88221 8.74774 3.76718 7.99796 4.85509L3.49098 11.3943C2.89737 12.2555 2.40901 12.964 2.09994 13.5752C1.98628 13.7999 1.89027 14.0238 1.81952 14.2496C1.75183 14.4656 1.71799 14.5736 1.79099 14.6579C1.864 14.7422 1.98645 14.723 2.23137 14.6846L12.2513 13.1134C12.5363 13.0687 12.6788 13.0464 12.7523 12.944C12.8258 12.8416 12.8011 12.7 12.7516 12.4168L10.9451 2.07036Z" fill="#141B34"/>
<path d="M3.00205 16.5737C2.69023 16.6226 2.53433 16.6471 2.49944 16.7708C2.46454 16.8945 2.57774 16.9903 2.80413 17.182C2.81487 17.1911 2.82566 17.2002 2.83651 17.2092C3.35742 17.6439 4.08011 18.0933 4.95382 18.6365L9.47436 21.4475C9.97395 21.7581 10.3973 22.0214 10.7689 22.2024C10.771 22.2035 10.7735 22.2023 10.7741 22.2L12.4248 15.9489C12.5308 15.5475 12.5838 15.3469 12.4744 15.2262C12.3651 15.1055 12.1594 15.1378 11.7481 15.2023L3.00205 16.5737Z" fill="#141B34"/>
<path d="M12.9276 21.9253C12.9092 21.9951 12.9 22.03 12.9019 22.062C12.9085 22.1714 13.0211 22.2634 13.13 22.2484C13.1619 22.244 13.1903 22.2302 13.2472 22.2024C13.6188 22.0214 14.0421 21.7582 14.5417 21.4475L19.0622 18.6365C19.9359 18.0933 20.6586 17.6439 21.1796 17.2092C21.2249 17.1714 21.2694 17.1332 21.3128 17.0945C21.5152 16.9143 21.6165 16.8241 21.5861 16.7061C21.5556 16.5881 21.4144 16.5557 21.1319 16.4909L15.3188 15.1573C15.0496 15.0955 14.915 15.0647 14.8105 15.1276C14.706 15.1906 14.6708 15.3237 14.6005 15.5899L12.9276 21.9253Z" fill="#141B34"/>
<path d="M21.7356 14.5913C21.9971 14.6513 22.1279 14.6813 22.207 14.5937C22.2862 14.5062 22.2462 14.3899 22.1663 14.1574C22.0993 13.9628 22.0143 13.7693 21.9161 13.5752C21.6071 12.9641 21.1188 12.2556 20.5252 11.3945L16.0181 4.85511C15.2683 3.76721 14.6584 2.88221 14.0963 2.27667C13.9042 2.06971 13.7039 1.88011 13.4909 1.71912C13.2566 1.54207 13.1394 1.45355 13.0225 1.52454C12.9056 1.59553 12.9332 1.75361 12.9884 2.06978L14.8323 12.6303C14.8656 12.8209 14.8822 12.9161 14.9448 12.982C15.0074 13.0478 15.1019 13.0695 15.2911 13.1129L21.7356 14.5913Z" fill="#141B34"/>
</svg>
