<svg width="24" height="24" viewBox="0 0 24 24" fill="none" xmlns="http://www.w3.org/2000/svg">
<path fill-rule="evenodd" clip-rule="evenodd" d="M13.4977 16.9181C13.5791 16.3718 14.088 15.995 14.6342 16.0765C16.0241 16.2838 17.2686 16.6327 18.1959 17.1086C19.0336 17.5385 20 18.2808 20 19.4266C20 20.2073 19.5371 20.8021 19.0406 21.2049C18.5359 21.6143 17.8665 21.9386 17.1278 22.1921C15.6408 22.7022 13.6511 22.9999 11.5 22.9999C9.3489 22.9999 7.35917 22.7022 5.87217 22.1921C5.13355 21.9386 4.46414 21.6143 3.95942 21.2049C3.46294 20.8021 3 20.2073 3 19.4266C3 18.4144 3.76421 17.7012 4.47741 17.2613C5.24577 16.7874 6.27597 16.4213 7.43353 16.1762C7.97383 16.0617 8.50459 16.407 8.61902 16.9473C8.73345 17.4876 8.38821 18.0183 7.84791 18.1328C6.82412 18.3496 6.03395 18.6511 5.52729 18.9636C5.13227 19.2072 5.03206 19.3745 5.00738 19.4261C5.02652 19.4621 5.07966 19.5383 5.21936 19.6516C5.47368 19.8579 5.90262 20.0881 6.52122 20.3003C7.74869 20.7214 9.50896 20.9999 11.5 20.9999C13.491 20.9999 15.2513 20.7214 16.4788 20.3003C17.0974 20.0881 17.5263 19.8579 17.7806 19.6516C17.9169 19.5411 17.9708 19.4659 17.9911 19.4288C17.9604 19.3716 17.8292 19.1683 17.2828 18.888C16.6174 18.5465 15.6053 18.2434 14.3393 18.0546C13.793 17.9732 13.4162 17.4643 13.4977 16.9181ZM18.0026 19.4022C18.0027 19.4022 18.0025 19.4036 18.0015 19.4063C18.0021 19.4035 18.0025 19.4022 18.0026 19.4022ZM4.99737 19.4022C4.99748 19.4022 4.99794 19.4035 4.99845 19.4063C4.99752 19.4036 4.99727 19.4022 4.99737 19.4022Z" fill="#141B34"/>
<path d="M16.2127 3.57992L15.3187 3.14389C13.3808 2.19884 12.4119 1.72632 11.706 2.16529C11 2.60426 11 3.67927 11 5.82929V12L16.2127 9.45783C18.7376 8.22651 20 7.61085 20 6.51887C20 5.4269 18.7376 4.81124 16.2127 3.57992Z" fill="white"/>
<path d="M15.6873 2.21102C14.7781 1.76756 13.996 1.38609 13.3523 1.18221C12.6777 0.968534 11.9021 0.865748 11.1779 1.31604C10.4526 1.76702 10.2034 2.50871 10.0992 3.20826C10.05 3.5386 10.0252 3.91851 10.0127 4.34047L10 19C10 19.5523 10.4477 20 11 20C11.5523 20 12 19.5523 12 19V12.6249L16.731 10.3176C17.9252 9.73532 18.9316 9.2446 19.6288 8.75378C20.3597 8.23931 21 7.55101 21 6.51883C21 5.48665 20.3597 4.79835 19.6288 4.28389C18.9316 3.79307 16.8815 2.79333 15.6873 2.21102Z" fill="#141B34"/>
</svg>
