<svg width="24" height="24" viewBox="0 0 24 24" fill="none" xmlns="http://www.w3.org/2000/svg">
<path d="M10.6434 2.56105C11.4622 1.97965 12.5387 1.97965 13.3574 2.56105C16.118 4.52132 20.0213 8.68977 22.1025 11.6414C22.7778 12.5991 22.7615 13.7303 22.7494 14.5716C22.7479 14.6776 22.7464 14.7791 22.7464 14.875C22.7464 15.125 22.6218 15.3586 22.4142 15.4978C22.2066 15.6371 21.9432 15.6638 21.7119 15.5689L12.4746 11.782C12.1708 11.6574 11.8301 11.6574 11.5263 11.782L2.28895 15.5689C2.05763 15.6638 1.79426 15.6371 1.58665 15.4978C1.37903 15.3586 1.25446 15.125 1.25446 14.875C1.25446 14.7791 1.253 14.6776 1.25147 14.5716C1.23936 13.7303 1.22308 12.5991 1.89833 11.6414C3.97955 8.68977 7.88289 4.52132 10.6434 2.56105Z" fill="#141B34"/>
<path d="M11.4379 11.4845C11.3362 11.755 10.6256 13.2757 10.4231 13.6998C10.174 14.2232 9.89871 14.8119 9.66482 15.3937C9.42745 15.9842 9.25245 16.5201 9.18219 16.9423C9.14445 17.1691 9.14723 17.3005 9.15387 17.3679C9.16928 17.3741 9.18706 17.3809 9.20742 17.3882C9.36099 17.4433 9.58422 17.5009 9.87324 17.5529C10.4479 17.6563 11.1889 17.7214 11.9503 17.7332C12.7128 17.7451 13.4579 17.7029 14.0439 17.6064C14.338 17.558 14.5664 17.5 14.7269 17.4405C14.7797 17.4209 14.8175 17.404 14.8434 17.3912C14.8513 17.3333 14.8605 17.1987 14.8178 16.9423C14.7475 16.5201 14.5726 15.9842 14.3352 15.3937C14.1013 14.8119 13.826 14.2232 13.5769 13.6998C13.3744 13.2757 12.7403 11.755 12.6387 11.4845L13.541 11.184C14.0325 11.0015 14.5798 11.2496 14.7634 11.7382C14.834 11.9261 15.082 12.4465 15.2944 12.892C15.5447 13.4182 15.8421 14.0524 16.0995 14.6927C16.3534 15.3244 16.5884 16.0098 16.6923 16.634C16.7847 17.1891 16.8314 18.0164 16.3053 18.6241C16.0433 18.9268 15.6841 19.1016 15.3906 19.2103C15.0764 19.3268 14.7191 19.4098 14.3543 19.4699C13.6227 19.5903 12.7575 19.6349 11.9206 19.6218C11.0825 19.6088 10.2348 19.5375 9.53481 19.4115C9.1865 19.3488 8.85091 19.2684 8.56207 19.1647C8.30983 19.0742 7.9484 18.9172 7.69465 18.6241C7.16857 18.0164 7.21529 17.1891 7.30769 16.634C7.41158 16.0098 7.64657 15.3244 7.90051 14.6927C8.15794 14.0524 8.45525 13.4182 8.70564 12.892C8.91804 12.4465 9.16604 11.9261 9.23664 11.7382C9.42022 11.2496 9.96749 11.0015 10.459 11.184L11.4379 11.4845Z" fill="#141B34"/>
<path fill-rule="evenodd" clip-rule="evenodd" d="M12 17.875C12.5523 17.875 13 18.3227 13 18.875V20.875C13 21.4273 12.5523 21.875 12 21.875C11.4477 21.875 11 21.4273 11 20.875V18.875C11 18.3227 11.4477 17.875 12 17.875Z" fill="#141B34"/>
<path fill-rule="evenodd" clip-rule="evenodd" d="M3.74076 13.2242C4.10018 12.8049 4.73148 12.7563 5.15081 13.1158L8.65081 16.1158C9.07014 16.4752 9.1187 17.1065 8.75927 17.5258C8.39985 17.9451 7.76855 17.9937 7.34923 17.6343L3.84923 14.6343C3.4299 14.2749 3.38134 13.6436 3.74076 13.2242ZM20.2593 13.2242C20.6187 13.6436 20.5701 14.2749 20.1508 14.6343L16.6508 17.6343C16.2315 17.9937 15.6002 17.9451 15.2408 17.5258C14.8813 17.1065 14.9299 16.4752 15.3492 16.1158L18.8492 13.1158C19.2686 12.7563 19.8999 12.8049 20.2593 13.2242Z" fill="#141B34"/>
</svg>
