<svg width="24" height="24" viewBox="0 0 24 24" fill="none" xmlns="http://www.w3.org/2000/svg">
<path fill-rule="evenodd" clip-rule="evenodd" d="M4 17.875C3.44772 17.875 3 18.3227 3 18.875C3 19.4273 3.44772 19.875 4 19.875C4.55228 19.875 5 19.4273 5 18.875C5 18.3227 4.55228 17.875 4 17.875ZM1 18.875C1 17.2181 2.34315 15.875 4 15.875C5.65685 15.875 7 17.2181 7 18.875C7 20.5319 5.65685 21.875 4 21.875C2.34315 21.875 1 20.5319 1 18.875Z" fill="#141B34"/>
<path fill-rule="evenodd" clip-rule="evenodd" d="M12 17.875C11.4477 17.875 11 18.3227 11 18.875C11 19.4273 11.4477 19.875 12 19.875C12.5523 19.875 13 19.4273 13 18.875C13 18.3227 12.5523 17.875 12 17.875ZM9 18.875C9 17.2181 10.3431 15.875 12 15.875C13.6569 15.875 15 17.2181 15 18.875C15 20.5319 13.6569 21.875 12 21.875C10.3431 21.875 9 20.5319 9 18.875Z" fill="#141B34"/>
<path fill-rule="evenodd" clip-rule="evenodd" d="M20 17.875C19.4477 17.875 19 18.3227 19 18.875C19 19.4273 19.4477 19.875 20 19.875C20.5523 19.875 21 19.4273 21 18.875C21 18.3227 20.5523 17.875 20 17.875ZM17 18.875C17 17.2181 18.3431 15.875 20 15.875C21.6569 15.875 23 17.2181 23 18.875C23 20.5319 21.6569 21.875 20 21.875C18.3431 21.875 17 20.5319 17 18.875Z" fill="#141B34"/>
<path fill-rule="evenodd" clip-rule="evenodd" d="M5 18.875C5 18.3227 5.44772 17.875 6 17.875H10C10.5523 17.875 11 18.3227 11 18.875C11 19.4273 10.5523 19.875 10 19.875H6C5.44772 19.875 5 19.4273 5 18.875ZM13 18.875C13 18.3227 13.4477 17.875 14 17.875H18C18.5523 17.875 19 18.3227 19 18.875C19 19.4273 18.5523 19.875 18 19.875H14C13.4477 19.875 13 19.4273 13 18.875Z" fill="#141B34"/>
<path fill-rule="evenodd" clip-rule="evenodd" d="M7.10112 2.71113C8.61583 2.22256 10.1643 2.01877 11.1175 2.17851C11.5476 2.2506 11.8774 2.59598 11.9255 3.02488C11.9535 3.27439 12.0073 3.60808 12.0893 3.99406C12.1385 4.22584 12.1632 4.34174 12.1179 4.43452C12.0727 4.5273 11.9694 4.57782 11.7626 4.67886L9.67084 5.7012C9.2987 5.88308 9.14446 6.33221 9.32634 6.70435C9.50822 7.0765 9.95735 7.23074 10.3295 7.04886L12.5069 5.98465C12.576 5.95092 12.6589 5.98463 12.6857 6.05663C12.7478 6.22373 12.813 6.38845 12.881 6.54989C12.9856 6.79804 13.0379 6.92212 13.0027 7.029C12.9674 7.13587 12.8559 7.20178 12.6331 7.33359L11.1184 8.22949C10.7618 8.44036 10.6438 8.90032 10.8546 9.25684C11.0655 9.61336 11.5255 9.73143 11.882 9.52057L13.4256 8.60757C13.6352 8.48359 13.74 8.4216 13.8428 8.43519C13.9456 8.44879 14.0401 8.5455 14.2291 8.73891C14.3215 8.8335 14.4161 8.92074 14.5129 8.99986C14.8366 9.2644 15.3873 9.5118 16.1621 9.75782C16.6851 9.92385 18.0623 10.2876 18.6371 10.4381C19.474 10.6663 20.357 10.9339 21.0665 11.3062C21.7585 11.6692 22.5112 12.2506 22.6936 13.2092C22.8628 14.0986 22.6517 14.9795 22.0558 15.6381C21.4646 16.2914 20.5882 16.6246 19.6119 16.6246L4.96048 16.6248C3.9755 16.6267 3.04337 16.6285 2.19386 15.8373C1.83393 15.502 1.57658 15.1574 1.4296 14.7289C1.30557 14.3674 1.27939 13.9424 1.261 13.6438C1.16042 12.0414 1.77196 10.6844 2.18497 9.95786C2.72341 9.01072 2.71997 7.57317 2.43762 6.20802C2.37542 5.90727 2.46133 5.59517 2.66911 5.36713C3.86008 4.06 5.56238 3.20745 7.10112 2.71113ZM4.52931 11.3315C4.30863 11.0386 4.19829 10.8921 4.02748 10.9119C3.85668 10.9318 3.78157 11.1026 3.63137 11.4443C3.35083 12.0826 3.16339 12.7546 3.21168 13.5239C3.23534 13.9008 3.24943 14.0174 3.28037 14.1076C3.29562 14.1521 3.33053 14.2405 3.53367 14.4297C3.67213 14.5587 3.78055 14.6094 3.95784 14.6426C4.19782 14.6875 4.51259 14.6913 5.10562 14.6913H5.21661C5.54502 14.6913 5.70922 14.6913 5.79931 14.5768C5.88939 14.4623 5.85279 14.3109 5.77959 14.0082C5.53726 13.0059 5.10456 12.0953 4.52931 11.3315Z" fill="#141B34"/>
</svg>
