<svg width="24" height="24" viewBox="0 0 24 24" fill="none" xmlns="http://www.w3.org/2000/svg">
<path d="M3.84355 11.25C3.86567 11.25 3.88778 11.2507 3.90985 11.2522C4.95352 11.3218 5.64089 11.889 6.01627 12.6067C6.35865 13.2613 6.43594 14.0169 6.43594 14.6042C6.43594 15.1334 5.99845 15.5625 5.45878 15.5625C4.91911 15.5625 4.48162 15.1334 4.48162 14.6042C4.48162 14.1375 4.41216 13.7392 4.27736 13.4815C4.21604 13.3642 4.15228 13.2973 4.0934 13.2569C4.04254 13.222 3.95954 13.1819 3.81194 13.1673C3.40399 13.1842 3.15889 13.5261 3.21337 13.8374L3.6259 16.1947C3.7037 16.6392 4.11942 17 4.64798 17C5.77157 17 6.49745 17.591 6.8435 18.0893L7.19106 18.5897C8.29784 19.9508 10.036 20.8333 11.9995 20.8333C13.9631 20.8333 15.7022 19.9508 16.8089 18.5897L17.1565 18.0893C17.5025 17.591 18.2284 17 19.352 17C19.8806 17 20.2963 16.6392 20.3741 16.1947L20.7866 13.8374C20.8411 13.5261 20.596 13.1842 20.1881 13.1673C20.0405 13.1819 19.9575 13.222 19.9066 13.2569C19.8477 13.2973 19.784 13.3642 19.7226 13.4815C19.5878 13.7392 19.5184 14.1375 19.5184 14.6042C19.5184 15.1334 19.0809 15.5625 18.5412 15.5625C18.0016 15.5625 17.5641 15.1334 17.5641 14.6042C17.5641 14.0169 17.6413 13.2613 17.9837 12.6067C18.3591 11.889 19.0465 11.3218 20.0901 11.2522C20.1122 11.2507 20.1343 11.25 20.1565 11.25C21.7258 11.25 22.9851 12.6057 22.7128 14.1616L22.3003 16.5189C22.0546 17.9227 20.7911 18.9167 19.352 18.9167C18.9952 18.9167 18.8272 19.0884 18.7718 19.1682L18.2142 19.9318C16.7409 21.655 14.4997 22.75 11.9995 22.75C9.4993 22.75 7.25914 21.655 5.78578 19.9318L5.22824 19.1682C5.17283 19.0884 5.0048 18.9167 4.64798 18.9167C3.20892 18.9167 1.94543 17.9227 1.69975 16.5189L1.28722 14.1616C1.01492 12.6057 2.27415 11.25 3.84355 11.25Z" fill="#141B34"/>
<path fill-rule="evenodd" clip-rule="evenodd" d="M10.0098 13C10.0098 13.5523 9.56205 14 9.00977 14L9.00078 14C8.4485 14 8.00078 13.5523 8.00078 13C8.00078 12.4477 8.4485 12 9.00078 12L9.00977 12C9.56205 12 10.0098 12.4477 10.0098 13Z" fill="#141B34"/>
<path fill-rule="evenodd" clip-rule="evenodd" d="M16.0098 13C16.0098 13.5523 15.5621 14 15.0098 14L15.0008 14C14.4485 14 14.0008 13.5523 14.0008 13C14.0008 12.4477 14.4485 12 15.0008 12L15.0098 12C15.5621 12 16.0098 12.4477 16.0098 13Z" fill="#141B34"/>
<path fill-rule="evenodd" clip-rule="evenodd" d="M8.47065 16.4697C8.76354 16.1768 9.23841 16.1768 9.53131 16.4697C9.6417 16.5801 9.97398 16.7702 10.3963 16.8171C10.7884 16.8607 11.1678 16.7725 11.4706 16.4697C11.7635 16.1768 12.2384 16.1768 12.5313 16.4697C12.8342 16.7725 13.2136 16.8607 13.6057 16.8171C14.028 16.7702 14.3602 16.5801 14.4706 16.4697C14.7635 16.1768 15.2384 16.1768 15.5313 16.4697C15.8242 16.7626 15.8242 17.2374 15.5313 17.5303C15.1417 17.9199 14.474 18.2298 13.7713 18.3079C13.2152 18.3697 12.5797 18.2914 12.001 17.9454C11.4222 18.2914 10.7868 18.3697 10.2307 18.3079C9.52798 18.2298 8.86025 17.9199 8.47065 17.5303C8.17775 17.2374 8.17775 16.7626 8.47065 16.4697Z" fill="#141B34"/>
<path d="M12.0011 1.25C7.25487 1.25 3.27481 4.52773 2.30442 8.92448C2.11371 9.78859 2.46993 10.5809 2.79706 11.1298C2.98329 11.4422 3.09811 11.7506 3.09811 12C3.09811 12.2983 3.2749 12.5683 3.54835 12.6875C3.82181 12.8067 4.13992 12.7526 4.3585 12.5495L6.48246 10.5769C6.92612 10.247 7.39965 9.95596 7.89812 9.70869C8.07328 9.62179 8.16087 9.57834 8.20592 9.5057C8.25098 9.43306 8.25098 9.33968 8.25098 9.15292V8.00001C8.25101 6.79649 8.70979 5.83873 9.44025 5.18944C10.1569 4.55242 11.0912 4.25 12.001 4.25C12.9108 4.25 13.8451 4.55243 14.5618 5.18946C15.2922 5.83875 15.751 6.7965 15.751 8.00001V9.15241C15.751 9.3392 15.751 9.43259 15.796 9.50524C15.8411 9.57788 15.9287 9.62133 16.1039 9.70821C16.6027 9.95558 17.0765 10.2467 17.5205 10.5768L19.6437 12.5495C19.8622 12.7525 20.1803 12.8067 20.4538 12.6876C20.7272 12.5684 20.9041 12.2985 20.9042 12.0002C20.9042 11.7507 21.0191 11.4422 21.2054 11.1297C21.5325 10.5809 21.8886 9.78862 21.6979 8.92465C20.7276 4.52782 16.7475 1.25 12.0011 1.25Z" fill="#141B34"/>
<path d="M13.4984 8.87063C13.8592 8.92941 14.0396 8.9588 14.1453 8.86895C14.251 8.77911 14.251 8.60512 14.251 8.25716V8.00001C14.251 7.20353 13.9598 6.66127 13.5652 6.31056C13.1569 5.94758 12.5912 5.75 12.001 5.75C11.4108 5.75 10.8451 5.94757 10.4368 6.31056C10.0422 6.66127 9.751 7.20352 9.75098 8.00001V8.25733C9.75098 8.60533 9.75098 8.77932 9.85666 8.86917C9.96234 8.95902 10.1428 8.92961 10.5036 8.87079C10.9909 8.79134 11.4912 8.75001 12.0015 8.75001C12.5114 8.75001 13.0114 8.79129 13.4984 8.87063Z" fill="#141B34"/>
</svg>
