<svg width="24" height="24" viewBox="0 0 24 24" fill="none" xmlns="http://www.w3.org/2000/svg">
<path d="M10.5 3H13.5C16.7998 3 18.4497 3 19.4749 4.02513C20.5 5.05025 20.5 6.70017 20.5 10V15C20.5 16.2026 20.5 17.1861 20.4504 18L13.5 22H10.5C7.20017 22 5.55025 22 4.52513 20.9749C3.5 19.9497 3.5 18.2998 3.5 15V10C3.5 6.70017 3.5 5.05025 4.52513 4.02513C5.55025 3 7.20017 3 10.5 3Z" fill="#D4D7E0"/>
<path d="M19.0355 20.5355C17.8927 21.6784 16.2062 21.9294 13.28 21.9845C14.5289 21.8453 15.5 20.7861 15.5 19.5C15.5 19.0007 15.4125 18.412 15.5426 17.9265C15.6582 17.4951 15.9951 17.1582 16.4265 17.0426C16.912 16.9125 17.5007 17 18 17C19.2861 17 20.3453 16.0289 20.4845 14.78C20.4294 17.7062 20.1784 19.3927 19.0355 20.5355Z" fill="white"/>
<path d="M17 2V4M12 2V4M7 2V4" stroke="#141B34" stroke-width="1.5" stroke-linecap="round" stroke-linejoin="round"/>
<path d="M3.5 16V9C3.5 6.17157 3.5 4.75736 4.37868 3.87868C5.25736 3 6.67157 3 9.5 3H14.5C17.3284 3 18.7426 3 19.6213 3.87868C20.5 4.75736 20.5 6.17157 20.5 9V12C20.5 16.714 20.5 19.0711 19.0355 20.5355C17.5711 22 15.214 22 10.5 22H9.5C6.67157 22 5.25736 22 4.37868 21.1213C3.5 20.2426 3.5 18.8284 3.5 16Z" stroke="#141B34" stroke-width="1.5"/>
<path d="M8 15H12M8 10H16" stroke="#141B34" stroke-width="1.5" stroke-linecap="round"/>
<path d="M20.5 14.5C20.5 15.8807 19.3807 17 18 17C17.5007 17 16.912 16.9125 16.4265 17.0426C15.9951 17.1582 15.6582 17.4951 15.5426 17.9265C15.4125 18.412 15.5 19.0007 15.5 19.5C15.5 20.8807 14.3807 22 13 22" stroke="#141B34" stroke-width="1.5" stroke-linecap="round" stroke-linejoin="round"/>
</svg>
