<svg width="24" height="24" viewBox="0 0 24 24" fill="none" xmlns="http://www.w3.org/2000/svg">
<path fill-rule="evenodd" clip-rule="evenodd" d="M12 1.25C6.72451 1.25 2.25 5.60954 2.25 10.9258C2.25 13.6482 3.40187 15.9241 5.01689 17.8025C6.62496 19.6728 8.71834 21.1811 10.6782 22.3944L10.6911 22.4024L10.7043 22.4098C11.0996 22.6329 11.546 22.75 12 22.75C12.454 22.75 12.9004 22.6329 13.2957 22.4098L13.3072 22.4033L13.3185 22.3964C15.2855 21.1928 17.3793 19.6796 18.9866 17.8038C20.6003 15.9206 21.75 13.6392 21.75 10.9258C21.75 5.60954 17.2755 1.25 12 1.25ZM13.5693 8.74777L12.7774 7.15086C12.35 6.28435 11.6481 6.28435 11.2161 7.15086L10.4242 8.74777C10.3162 8.97007 10.0282 9.18329 9.78977 9.22412L8.35443 9.46457C7.43653 9.61881 7.22505 10.2902 7.88198 10.9526L8.99785 12.0777C9.18683 12.2682 9.29032 12.6357 9.23183 12.8988L8.91236 14.2916C8.66039 15.3895 9.24533 15.8205 10.2082 15.2443L11.5536 14.4413C11.801 14.2961 12.2015 14.2961 12.4445 14.4413L13.7898 15.2443C14.7572 15.8205 15.3377 15.394 15.0857 14.2916L14.7662 12.8988C14.7077 12.6357 14.8112 12.2682 15.0002 12.0777L16.1161 10.9526C16.7775 10.2902 16.5615 9.61881 15.6436 9.46457L14.2083 9.22412C13.9653 9.18329 13.6773 8.97007 13.5693 8.74777Z" fill="#141B34"/>
</svg>
