<svg width="24" height="24" viewBox="0 0 24 24" fill="none" xmlns="http://www.w3.org/2000/svg">
<path fill-rule="evenodd" clip-rule="evenodd" d="M13.5 5.25C11.1811 5.25 9.25 7.20968 9.25 9.57031C9.25 12.003 11.2346 13.5789 12.7367 14.5353L12.7496 14.5436L12.7629 14.5513C12.9866 14.6811 13.2406 14.75 13.5 14.75C13.7594 14.75 14.0134 14.6811 14.2371 14.5513L14.2487 14.5446L14.26 14.5374C15.7714 13.5861 17.75 11.9949 17.75 9.57031C17.75 7.20968 15.8189 5.25 13.5 5.25ZM13.4933 8C12.6686 8 12 8.67157 12 9.5C12 10.3284 12.6686 11 13.4933 11H13.5067C14.3314 11 15 10.3284 15 9.5C15 8.67157 14.3314 8 13.5067 8H13.4933Z" fill="#141B34"/>
<path fill-rule="evenodd" clip-rule="evenodd" d="M12 1.25049C6.06294 1.25049 1.25 6.06343 1.25 12.0005C1.25 14.372 2.01792 16.5641 3.31866 18.3418C3.49543 18.5834 3.58382 18.7042 3.72141 18.7148C3.859 18.7254 3.96898 18.6154 4.18896 18.3954L8.39784 14.1865C8.59784 13.9865 8.69784 13.8865 8.69784 13.7622C8.69784 13.638 8.59784 13.538 8.39784 13.338L4.09914 9.03927C3.9623 8.90242 3.89387 8.834 3.87701 8.74208C3.86015 8.65015 3.89807 8.56583 3.9739 8.39719C5.35024 5.33636 8.4261 3.20508 11.9997 3.20508C16.8573 3.20508 20.7952 7.14294 20.7952 12.0005C20.7952 15.5742 18.6639 18.65 15.6031 20.0264C15.4344 20.1022 15.3501 20.1401 15.2582 20.1233C15.1663 20.1064 15.0979 20.038 14.961 19.9011L10.6606 15.6007C10.4606 15.4007 10.3606 15.3007 10.2363 15.3007C10.1121 15.3007 10.0121 15.4007 9.81205 15.6007L5.60288 19.8099C5.38296 20.0299 5.27299 20.1398 5.28357 20.2774C5.29415 20.415 5.41489 20.5034 5.65638 20.6802C7.43448 21.9819 9.62748 22.7505 12 22.7505C17.9371 22.7505 22.75 17.9375 22.75 12.0005C22.75 6.06343 17.9371 1.25049 12 1.25049Z" fill="#141B34"/>
</svg>
