<svg width="24" height="24" viewBox="0 0 24 24" fill="none" xmlns="http://www.w3.org/2000/svg">
<path fill-rule="evenodd" clip-rule="evenodd" d="M13.5005 5.24951C11.8272 5.24951 10.2395 6.26478 9.57473 7.86339C8.95242 9.35982 9.3 10.6445 9.98118 11.7035C10.5245 12.5481 11.3178 13.302 11.9889 13.9397C12.1143 14.0589 12.2355 14.174 12.3499 14.2849L12.3516 14.2865C12.6603 14.5838 13.0723 14.7495 13.5005 14.7495C13.9287 14.7495 14.3407 14.5838 14.6494 14.2865C14.7581 14.1817 14.8728 14.0732 14.9912 13.961C15.6689 13.3194 16.4722 12.5588 17.0211 11.7037C17.7014 10.6438 18.0477 9.35801 17.4262 7.86339C16.7614 6.26478 15.1737 5.24951 13.5005 5.24951ZM13.4952 7.99951C12.6705 7.99951 12.002 8.67108 12.002 9.49951C12.002 10.3279 12.6705 10.9995 13.4952 10.9995H13.5087C14.3334 10.9995 15.002 10.3279 15.002 9.49951C15.002 8.67108 14.3334 7.99951 13.5087 7.99951H13.4952Z" fill="#141B34"/>
<path fill-rule="evenodd" clip-rule="evenodd" d="M12 1.25C6.06294 1.25 1.25 6.06294 1.25 12C1.25 14.3715 2.01792 16.5637 3.31866 18.3413C3.49543 18.5829 3.58382 18.7037 3.72141 18.7143C3.859 18.7249 3.96898 18.6149 4.18896 18.395L8.39784 14.186C8.59784 13.986 8.69784 13.886 8.69784 13.7617C8.69784 13.6375 8.59784 13.5375 8.39784 13.3375L4.09914 9.03878C3.9623 8.90193 3.89387 8.83351 3.87701 8.74159C3.86015 8.64967 3.89807 8.56534 3.9739 8.3967C5.35024 5.33587 8.4261 3.20459 11.9997 3.20459C16.8573 3.20459 20.7952 7.14245 20.7952 12C20.7952 15.5737 18.6639 18.6495 15.6031 20.0259C15.4344 20.1017 15.3501 20.1396 15.2582 20.1228C15.1663 20.1059 15.0979 20.0375 14.961 19.9006L10.6606 15.6002C10.4606 15.4002 10.3606 15.3002 10.2363 15.3002C10.1121 15.3002 10.0121 15.4002 9.81205 15.6002L5.60288 19.8095C5.38296 20.0294 5.27299 20.1394 5.28357 20.2769C5.29415 20.4145 5.41489 20.5029 5.65638 20.6797C7.43448 21.9814 9.62748 22.75 12 22.75C17.9371 22.75 22.75 17.9371 22.75 12C22.75 6.06294 17.9371 1.25 12 1.25Z" fill="#141B34"/>
</svg>
