<svg width="24" height="24" viewBox="0 0 24 24" fill="none" xmlns="http://www.w3.org/2000/svg">
<path d="M8.5 8V7.25H7.94861L7.78414 7.77629L8.5 8ZM11.2841 16.2237L11.5078 16.9396L12.9396 16.4922L12.7159 15.7763L11.2841 16.2237ZM5.28414 15.7763L5.06043 16.4922L6.49215 16.9396L6.71586 16.2237L5.28414 15.7763ZM9.5 8L10.2159 7.77629L10.0514 7.25H9.5V8ZM6.71586 16.2237L9.21586 8.22371L7.78414 7.77629L5.28414 15.7763L6.71586 16.2237ZM8.5 8.75H9.5V7.25H8.5V8.75ZM8.78414 8.22371L11.2841 16.2237L12.7159 15.7763L10.2159 7.77629L8.78414 8.22371ZM7.5 13.75H10.5V12.25H7.5V13.75Z" fill="#141B34"/>
<path d="M18 10H18.75C18.75 9.58579 18.4142 9.25 18 9.25V10ZM14.5 16H13.75V16.75H14.5V16ZM14.5 10V9.25H13.75V10H14.5ZM18 12.8696V13.6196C18.4142 13.6196 18.75 13.2838 18.75 12.8696H18ZM18.75 15V14.25H17.25V15H18.75ZM18 16V16.75C18.4142 16.75 18.75 16.4142 18.75 16H18ZM17.25 10V12.8696H18.75V10H17.25ZM15.25 16V12.8696H13.75V16H15.25ZM15.25 12.8696V10H13.75V12.8696H15.25ZM18 12.1196H14.5V13.6196H18V12.1196ZM14.5 10.75H18V9.25H14.5V10.75ZM17.25 15V16H18.75V15H17.25ZM18 15.25H14.5V16.75H18V15.25Z" fill="#141B34"/>
<path d="M21 3V21H3V3H21Z" stroke="#141B34" stroke-width="1.5" stroke-linejoin="round"/>
</svg>
