<svg width="24" height="24" viewBox="0 0 24 24" fill="none" xmlns="http://www.w3.org/2000/svg">
<path d="M20 6V12M18 4H6M10 20H6M4 18V6" stroke="#141B34" stroke-width="1.5" stroke-linejoin="round"/>
<path d="M22 4C22 5.10457 21.1046 6 20 6C18.8954 6 18 5.10457 18 4C18 2.89543 18.8954 2 20 2C21.1046 2 22 2.89543 22 4Z" stroke="#141B34" stroke-width="1.5" stroke-linejoin="round"/>
<path d="M6 4C6 5.10457 5.10457 6 4 6C2.89543 6 2 5.10457 2 4C2 2.89543 2.89543 2 4 2C5.10457 2 6 2.89543 6 4Z" stroke="#141B34" stroke-width="1.5" stroke-linejoin="round"/>
<path d="M6 20C6 21.1046 5.10457 22 4 22C2.89543 22 2 21.1046 2 20C2 18.8954 2.89543 18 4 18C5.10457 18 6 18.8954 6 20Z" stroke="#141B34" stroke-width="1.5" stroke-linejoin="round"/>
<path d="M20 15L20.5303 14.4697C20.2375 14.1768 19.7628 14.1768 19.4698 14.4695L20 15ZM15.25 20.5C15.25 20.9142 14.9142 21.25 14.5 21.25V22.75C15.7426 22.75 16.75 21.7426 16.75 20.5H15.25ZM14.5 21.25C14.0858 21.25 13.75 20.9142 13.75 20.5H12.25C12.25 21.7426 13.2574 22.75 14.5 22.75V21.25ZM13.75 20.5C13.75 20.0858 14.0858 19.75 14.5 19.75V18.25C13.2574 18.25 12.25 19.2574 12.25 20.5H13.75ZM14.5 19.75C14.9142 19.75 15.25 20.0858 15.25 20.5H16.75C16.75 19.2574 15.7426 18.25 14.5 18.25V19.75ZM19.4697 15.5303L21.4697 17.5303L22.5303 16.4697L20.5303 14.4697L19.4697 15.5303ZM17.4791 17.5409L18.9804 18.9831L20.0196 17.9014L18.5182 16.4591L17.4791 17.5409ZM16.0893 19.9684L20.5302 15.5305L19.4698 14.4695L15.029 18.9073L16.0893 19.9684Z" fill="#141B34"/>
</svg>
