<svg width="24" height="24" viewBox="0 0 24 24" fill="none" xmlns="http://www.w3.org/2000/svg">
<path d="M19.5 4.5H20.25C20.25 4.08579 19.9142 3.75 19.5 3.75V4.5ZM19.5 19.5V20.25C19.9142 20.25 20.25 19.9142 20.25 19.5H19.5ZM12 2L12.4801 1.42383C12.202 1.19206 11.798 1.19206 11.5199 1.42383L12 2ZM22 12L22.5762 12.4801C22.8079 12.202 22.8079 11.798 22.5762 11.5199L22 12ZM12 22L11.5199 22.5762C11.798 22.8079 12.202 22.8079 12.4801 22.5762L12 22ZM4.5 4.5V3.75C4.08579 3.75 3.75 4.08579 3.75 4.5H4.5ZM2 12L1.42383 11.5199C1.19206 11.798 1.19206 12.202 1.42383 12.4801L2 12ZM4.5 19.5H3.75C3.75 19.9142 4.08579 20.25 4.5 20.25V19.5ZM19.5 9H18.75V9.27154L18.9238 9.48014L19.5 9ZM15 4.5L14.5199 5.07617L14.7285 5.25H15V4.5ZM9 4.5V5.25H9.27154L9.48014 5.07617L9 4.5ZM4.5 9L5.07617 9.48014L5.25 9.27154V9H4.5ZM4.5 15H5.25V14.7285L5.07617 14.5199L4.5 15ZM9 19.5L9.48014 18.9238L9.27154 18.75H9V19.5ZM15 19.5V18.75H14.7285L14.5199 18.9238L15 19.5ZM19.5 15L18.9238 14.5199L18.75 14.7285V15H19.5ZM18.9238 9.48014L21.4238 12.4801L22.5762 11.5199L20.0762 8.51987L18.9238 9.48014ZM18.75 4.5V9H20.25V4.5H18.75ZM11.5199 2.57617L14.5199 5.07617L15.4801 3.92383L12.4801 1.42383L11.5199 2.57617ZM19.5 3.75H15V5.25H19.5V3.75ZM9 3.75H4.5V5.25H9V3.75ZM9.48014 5.07617L12.4801 2.57617L11.5199 1.42383L8.51986 3.92383L9.48014 5.07617ZM2.57617 12.4801L5.07617 9.48014L3.92383 8.51986L1.42383 11.5199L2.57617 12.4801ZM3.75 4.5V9H5.25V4.5H3.75ZM3.75 15V19.5H5.25V15H3.75ZM5.07617 14.5199L2.57617 11.5199L1.42383 12.4801L3.92383 15.4801L5.07617 14.5199ZM12.4801 21.4238L9.48014 18.9238L8.51986 20.0762L11.5199 22.5762L12.4801 21.4238ZM9 18.75H4.5V20.25H9V18.75ZM19.5 18.75H15V20.25H19.5V18.75ZM12.4801 22.5762L15.4801 20.0762L14.5199 18.9238L11.5199 21.4238L12.4801 22.5762ZM20.0762 15.4801L22.5762 12.4801L21.4238 11.5199L18.9238 14.5199L20.0762 15.4801ZM18.75 15V19.5H20.25V15H18.75Z" fill="#141B34"/>
<path d="M17 10V16M14.5 10V14.5C14.5 15.3284 13.8284 16 13 16C12.1716 16 11.5 15.3284 11.5 14.5M11.5 8V14.5M11.5 14.5V10M11.5 14.5C11.5 15.3284 10.8284 16 10 16C9.17157 16 8.5 15.3284 8.5 14.5V10C8.5 10 6 10.5 6 13" stroke="#141B34" stroke-width="1.5" stroke-linejoin="round"/>
</svg>
