<svg width="24" height="24" viewBox="0 0 24 24" fill="none" xmlns="http://www.w3.org/2000/svg">
<path d="M10 5L12 8" stroke="#141B34" stroke-width="1.5"/>
<path d="M5 3L5.62404 2.58397C5.48494 2.37533 5.25076 2.25 5 2.25C4.74924 2.25 4.51506 2.37533 4.37596 2.58397L5 3ZM17 21L17 21.75C17.2766 21.75 17.5307 21.5978 17.6613 21.3539C17.7918 21.11 17.7775 20.8141 17.624 20.584L17 21ZM2 7.5L1.37596 7.08397L1.15712 7.41224L1.30364 7.77854L2 7.5ZM7 10L6.66459 10.6708C6.85219 10.7646 7.07049 10.7756 7.26654 10.701C7.46258 10.6265 7.61846 10.4733 7.69636 10.2785L7 10ZM3 10L2.30364 10.2785C2.38154 10.4733 2.53742 10.6265 2.73346 10.701C2.92951 10.7756 3.14781 10.7646 3.33541 10.6708L3 10ZM5 9L5.33541 8.32918L5 8.16147L4.66459 8.32918L5 9ZM4.37596 3.41603L16.376 21.416L17.624 20.584L5.62404 2.58397L4.37596 3.41603ZM17 20.25L1 20.2499L0.999996 21.7499L17 21.75L17 20.25ZM4.37596 2.58397L1.37596 7.08397L2.62404 7.91603L5.62404 3.41603L4.37596 2.58397ZM7.30364 7.22146L6.30364 9.72146L7.69636 10.2785L8.69636 7.77854L7.30364 7.22146ZM3.69636 9.72146L2.69636 7.22146L1.30364 7.77854L2.30364 10.2785L3.69636 9.72146ZM4.66459 8.32918L2.66459 9.32918L3.33541 10.6708L5.33541 9.67082L4.66459 8.32918ZM7.33541 9.32918L5.33541 8.32918L4.66459 9.67082L6.66459 10.6708L7.33541 9.32918Z" fill="#141B34"/>
<path d="M18.7267 15.0452C18.6898 15.426 18.5912 15.7902 18.4401 16.1291M18.7267 15.0452C18.936 12.8817 17.0417 11 14.762 11C13.5 11 12 11.5 11.5 12.5M18.7267 15.0452C20.5289 15.0371 22 16.3985 22 18.0791C22 19.4694 20.9961 20.6412 19.6267 21" stroke="#141B34" stroke-width="1.5" stroke-linejoin="round"/>
</svg>
