<svg width="24" height="24" viewBox="0 0 24 24" fill="none" xmlns="http://www.w3.org/2000/svg">
<path d="M21 3V21H3V3H21Z" stroke="#141B34" stroke-width="1.5" stroke-linejoin="round"/>
<path d="M6.5 8.5V7.75H5.75V8.5H6.5ZM6.5 15.5H5.75V16.25H6.5V15.5ZM17.5 13V13.75C17.9142 13.75 18.25 13.4142 18.25 13H17.5ZM6.5 9.25H9.12964V7.75H6.5V9.25ZM9.12964 9.25C9.68488 9.25 10.1327 9.69896 10.1327 10.25H11.6327C11.6327 8.86804 10.5108 7.75 9.12964 7.75V9.25ZM10.1327 10.25C10.1327 10.801 9.68488 11.25 9.12964 11.25V12.75C10.5108 12.75 11.6327 11.632 11.6327 10.25H10.1327ZM9.12964 12.75C9.68488 12.75 10.1327 13.199 10.1327 13.75H11.6327C11.6327 12.368 10.5108 11.25 9.12964 11.25V12.75ZM10.1327 13.75C10.1327 14.301 9.68488 14.75 9.12964 14.75V16.25C10.5108 16.25 11.6327 15.132 11.6327 13.75H10.1327ZM9.12964 14.75H6.5V16.25H9.12964V14.75ZM17 8.25H14V9.75H17V8.25ZM13.6042 13.75H17.5V12.25H13.6042V13.75ZM18.25 13C18.25 11.6045 17.0804 10.25 15.5521 10.25V11.75C16.1754 11.75 16.75 12.3542 16.75 13H18.25ZM15.5521 10.25C14.0238 10.25 12.8542 11.6045 12.8542 13H14.3542C14.3542 12.3542 14.9289 11.75 15.5521 11.75V10.25ZM12.8542 13V13.5H14.3542V13H12.8542ZM12.8542 13.5C12.8542 15 14.0436 16.25 15.5521 16.25V14.75C14.9091 14.75 14.3542 14.2091 14.3542 13.5H12.8542ZM15.5521 16.25C16.181 16.25 16.9885 16.0226 17.5036 15.5557L16.4964 14.4443C16.3247 14.5998 15.9112 14.75 15.5521 14.75V16.25ZM7.25 15.5V12H5.75V15.5H7.25ZM7.25 12V8.5H5.75V12H7.25ZM9.12964 11.25H6.5V12.75H9.12964V11.25Z" fill="#141B34"/>
</svg>
