<svg width="24" height="24" viewBox="0 0 24 24" fill="none" xmlns="http://www.w3.org/2000/svg">
<path d="M13.5 4.5C13.5 5.32843 12.8284 6 12 6C11.1716 6 10.5 5.32843 10.5 4.5C10.5 3.67157 12 2 12 2C12 2 13.5 3.67157 13.5 4.5Z" stroke="#141B34" stroke-width="1.5"/>
<path d="M12 6V9" stroke="#141B34" stroke-width="1.5" stroke-linecap="round" stroke-linejoin="round"/>
<path d="M14.25 12C14.25 13.2426 13.2426 14.25 12 14.25V15.75C14.0711 15.75 15.75 14.0711 15.75 12H14.25ZM12 14.25C10.7574 14.25 9.75 13.2426 9.75 12H8.25C8.25 14.0711 9.92893 15.75 12 15.75V14.25ZM8.25 12C8.25 13.2426 7.24264 14.25 6 14.25V15.75C8.07107 15.75 9.75 14.0711 9.75 12H8.25ZM6 14.25C4.75736 14.25 3.75 13.2426 3.75 12H2.25C2.25 14.0711 3.92893 15.75 6 15.75V14.25ZM20.25 12C20.25 13.2426 19.2426 14.25 18 14.25V15.75C20.0711 15.75 21.75 14.0711 21.75 12H20.25ZM18 14.25C16.7574 14.25 15.75 13.2426 15.75 12H14.25C14.25 14.0711 15.9289 15.75 18 15.75V14.25ZM18 8.25H6V9.75H18V8.25ZM6 8.25C3.92893 8.25 2.25 9.92893 2.25 12H3.75C3.75 10.7574 4.75736 9.75 6 9.75V8.25ZM21.75 12C21.75 9.92893 20.0711 8.25 18 8.25V9.75C19.2426 9.75 20.25 10.7574 20.25 12H21.75Z" fill="#141B34"/>
<path d="M5 15L6.5 22H17.5L19 15" stroke="#141B34" stroke-width="1.5" stroke-linejoin="round"/>
</svg>
