<svg width="24" height="24" viewBox="0 0 24 24" fill="none" xmlns="http://www.w3.org/2000/svg">
<path d="M12.0039 13.9999V11.5M7.00536 13.4536V11M17.0039 13.4536V11" stroke="#141B34" stroke-width="1.5" stroke-linejoin="round"/>
<path d="M12 8C15.7224 8 19.1715 7.26006 22 6V12C19.1715 13.2601 15.7224 14 12 14C8.27765 14 4.82849 13.2601 2 12V6C4.82849 7.26006 8.27765 8 12 8Z" stroke="#141B34" stroke-width="1.5" stroke-linejoin="round"/>
<path d="M6.13743 15.7132C5.98233 16.2363 5.81283 16.7039 5.65082 17.137C5.48636 17.5765 5.33552 17.9655 5.20113 18.3675C4.93962 19.15 4.75391 19.9454 4.75391 21H3.25391C3.25391 19.7435 3.48032 18.7842 3.77849 17.8921C3.92395 17.4568 4.08983 17.0285 4.24592 16.6113C4.40446 16.1876 4.55932 15.7589 4.69932 15.2868L6.13743 15.7132ZM19.3085 15.2868C19.4485 15.7589 19.6034 16.1876 19.7619 16.6113C19.918 17.0285 20.0839 17.4568 20.2293 17.8921C20.5275 18.7842 20.7539 19.7435 20.7539 21H19.2539C19.2539 19.9454 19.0682 19.15 18.8067 18.3675C18.6723 17.9655 18.5214 17.5765 18.357 17.137C18.195 16.7039 18.0255 16.2363 17.8704 15.7132L19.3085 15.2868ZM19.9154 3.23717C19.5916 4.20865 19.056 5.19681 18.8204 7.64482L17.3273 7.50113C17.5839 4.83496 18.2057 3.62288 18.4924 2.76283L19.9154 3.23717ZM5.51542 2.76283C5.8021 3.62288 6.42393 4.83496 6.68051 7.50113L5.18741 7.64482C4.95183 5.19681 4.41622 4.20865 4.09239 3.23717L5.51542 2.76283Z" fill="#141B34"/>
<path d="M19.0039 19C14.3372 20.3333 9.67057 20.3333 5.00391 19" stroke="#141B34" stroke-width="1.5" stroke-linejoin="round"/>
</svg>
