<svg width="24" height="24" viewBox="0 0 24 24" fill="none" xmlns="http://www.w3.org/2000/svg">
<path d="M11 7L19.5 7" stroke="#141B34" stroke-width="1.5" stroke-linejoin="round"/>
<path d="M2 2L22 22" stroke="#141B34" stroke-width="1.5" stroke-linejoin="round"/>
<path d="M4 22H3.25L3.25 23.2135L4.33541 22.6708L4 22ZM20 2H20.75C20.75 1.58579 20.4142 1.25 20 1.25V2ZM20 22L19.6646 22.6708L20.75 23.2135V22H20ZM12 18L12.3354 17.3292L12 17.1615L11.6646 17.3292L12 18ZM20.3354 21.3292L12.3354 17.3292L11.6646 18.6708L19.6646 22.6708L20.3354 21.3292ZM4.33541 22.6708L12.3354 18.6708L11.6646 17.3292L3.66459 21.3292L4.33541 22.6708ZM3.25001 4.00001L3.25 22H4.75L4.75001 4.00001L3.25001 4.00001ZM19.25 20V22H20.75V20H19.25ZM19.25 2V16.818H20.75V2H19.25ZM5.18198 2.75H20V1.25H5.18198V2.75Z" fill="#141B34"/>
</svg>
