<svg width="24" height="24" viewBox="0 0 24 24" fill="none" xmlns="http://www.w3.org/2000/svg">
<path d="M16.998 7.12652L16.2484 7.10323V7.10323L16.998 7.12652ZM4.15878 11.1195L4.87892 10.91L4.15878 11.1195ZM3.88592 12.3755L4.26147 13.0247L5.55988 12.2737L5.18433 11.6245L3.88592 12.3755ZM13 3.75C14.7949 3.75 16.25 5.20507 16.25 7H17.75C17.75 4.37665 15.6234 2.25 13 2.25V3.75ZM4.75 10C4.75 8.20507 6.20507 6.75 8 6.75V5.25C5.37665 5.25 3.25 7.37665 3.25 10H4.75ZM5 16.25C3.75736 16.25 2.75 15.2426 2.75 14H1.25C1.25 16.0711 2.92893 17.75 5 17.75V16.25ZM21.25 11C21.25 12.7949 19.7949 14.25 18 14.25V15.75C20.6234 15.75 22.75 13.6234 22.75 11H21.25ZM18 7.75C19.7949 7.75 21.25 9.20507 21.25 11H22.75C22.75 8.37665 20.6234 6.25 18 6.25V7.75ZM17.1854 7.85276C17.4449 7.78581 17.7177 7.75 18 7.75V6.25C17.5903 6.25 17.1916 6.30205 16.8107 6.40029L17.1854 7.85276ZM16.25 7C16.25 7.03457 16.2495 7.06898 16.2484 7.10323L17.7477 7.14982C17.7492 7.10004 17.75 7.05009 17.75 7H16.25ZM16.2484 7.10323C16.2312 7.65723 16.0758 8.1748 15.8157 8.62446L17.1141 9.37554C17.4951 8.71687 17.7226 7.95803 17.7477 7.14982L16.2484 7.10323ZM18 14.25C17.7104 14.25 17.4308 14.2123 17.1652 14.142L16.7813 15.592C17.171 15.6952 17.5797 15.75 18 15.75V14.25ZM16.25 14.5C16.25 14.588 16.2436 14.6741 16.2312 14.7578L17.7153 14.9762C17.7382 14.8204 17.75 14.6613 17.75 14.5H16.25ZM16.2312 14.7578C16.1071 15.6019 15.3786 16.25 14.5 16.25V17.75C16.1335 17.75 17.4844 16.5456 17.7153 14.9762L16.2312 14.7578ZM8 6.75C8.30835 6.75 8.60548 6.79273 8.88638 6.87214L9.29443 5.42871C8.88206 5.31214 8.44767 5.25 8 5.25V6.75ZM9.82346 6.30897C10.1399 4.84584 11.4429 3.75 13 3.75V2.25C10.7219 2.25 8.81997 3.85294 8.35736 5.99188L9.82346 6.30897ZM2.75 14C2.75 12.9775 3.43269 12.1125 4.36871 11.8396L3.94886 10.3995C2.3901 10.854 1.25 12.2929 1.25 14H2.75ZM4.87892 10.91C4.79516 10.6221 4.75 10.317 4.75 10H3.25C3.25 10.4602 3.31568 10.9064 3.43865 11.3291L4.87892 10.91ZM5.18433 11.6245C5.05535 11.4015 4.95224 11.162 4.87892 10.91L3.43865 11.3291C3.54618 11.6986 3.6973 12.0495 3.88592 12.3755L5.18433 11.6245ZM14.5 16.25H14V17.75H14.5V16.25ZM14.8508 12.785C15.6493 12.9471 16.25 13.6542 16.25 14.5H17.75C17.75 12.9268 16.633 11.6162 15.1492 11.315L14.8508 12.785ZM8.88638 6.87214C9.70629 7.10393 10.3966 7.65105 10.8157 8.37554L12.1141 7.62446C11.5031 6.56825 10.4966 5.76857 9.29443 5.42871L8.88638 6.87214ZM7.12216 14.7501C6.81293 15.625 5.97849 16.25 5 16.25V17.75C6.63395 17.75 8.02199 16.7054 8.53642 15.2499L7.12216 14.7501ZM14 16.25C11.3766 16.25 9.25 18.3766 9.25 21H10.75C10.75 19.2051 12.2051 17.75 14 17.75V16.25Z" fill="#141B34"/>
<path d="M11.8361 11.7435C11.3257 12.2353 10.453 12.3202 9.70713 11.9008C8.9612 11.4814 8.58031 10.6917 8.73535 10" stroke="#141B34" stroke-width="1.5" stroke-linejoin="round"/>
</svg>
