<svg width="24" height="24" viewBox="0 0 24 24" fill="none" xmlns="http://www.w3.org/2000/svg">
<path d="M8 20.2093L8.28756 19.5167L7.9888 19.3926L7.69356 19.5248L8 20.2093ZM4 22L3.27577 21.8051C3.20053 22.0847 3.29294 22.3826 3.51319 22.5705C3.73343 22.7585 4.04218 22.8028 4.30644 22.6845L4 22ZM5 18.284L5.72423 18.4789L5.84157 18.0429L5.51116 17.7352L5 18.284ZM12 1.25C6.10029 1.25 1.25 5.80369 1.25 11.5H2.75C2.75 6.70371 6.85527 2.75 12 2.75V1.25ZM21.25 11.5C21.25 16.2963 17.1447 20.25 12 20.25V21.75C17.8997 21.75 22.75 17.1963 22.75 11.5H21.25ZM7.71244 20.902C9.02757 21.448 10.4781 21.75 12 21.75V20.25C10.6776 20.25 9.42237 19.9878 8.28756 19.5167L7.71244 20.902ZM7.69356 19.5248L3.69356 21.3155L4.30644 22.6845L8.30644 20.8939L7.69356 19.5248ZM1.25 11.5C1.25 14.3801 2.49634 16.9771 4.48884 18.8328L5.51116 17.7352C3.80106 16.1425 2.75 13.9343 2.75 11.5H1.25ZM4.72423 22.1949L5.72423 18.4789L4.27577 18.0891L3.27577 21.8051L4.72423 22.1949ZM20.929 9.20652C21.1382 9.93683 21.25 10.7056 21.25 11.5H22.75C22.75 10.564 22.6182 9.65634 22.371 8.79348L20.929 9.20652Z" fill="#141B34"/>
<path d="M17.5 5H17.509" stroke="#141B34" stroke-width="2" stroke-linecap="round" stroke-linejoin="round"/>
<path d="M17.5 8C19.9853 8 22 5 22 5C22 5 19.9853 2 17.5 2C15.0147 2 13 5 13 5C13 5 15.0147 8 17.5 8Z" stroke="#141B34" stroke-width="1.5"/>
<path d="M11.9955 12H12.0045M8 12H8.00897M15.9955 12H16.0045" stroke="#141B34" stroke-width="2" stroke-linecap="square" stroke-linejoin="round"/>
</svg>
