<svg width="24" height="24" viewBox="0 0 24 24" fill="none" xmlns="http://www.w3.org/2000/svg">
<path d="M21.9118 7.57126L22.647 7.71962L22.647 7.71937L21.9118 7.57126ZM15.9997 8L15.3293 7.6639L15.0777 8.16582L15.4884 8.54863L15.9997 8ZM19.0074 2L19.4811 1.41855C19.3047 1.27483 19.0726 1.21896 18.8502 1.26667C18.6277 1.31438 18.4389 1.4605 18.3369 1.6639L19.0074 2ZM7.57126 21.9122L7.71937 22.6474L7.71962 22.6474L7.57126 21.9122ZM8 16.0001L8.54863 15.4887L8.16582 15.078L7.6639 15.3296L8 16.0001ZM2 19.0078L1.6639 18.3373C1.4605 18.4393 1.31438 18.6281 1.26667 18.8505C1.21896 19.073 1.27483 19.3051 1.41855 19.4815L2 19.0078ZM21.1766 7.42289C20.9161 8.71413 20.4861 9.98777 19.5788 11.5692L20.8799 12.3156C21.8694 10.5909 22.3553 9.16491 22.647 7.71962L21.1766 7.42289ZM20.7407 11.3938L16.5111 7.45137L15.4884 8.54863L19.718 12.491L20.7407 11.3938ZM16.6702 8.3361L19.6779 2.3361L18.3369 1.6639L15.3293 7.6639L16.6702 8.3361ZM18.5337 2.58145C20.1179 3.87213 21.5964 5.33917 21.1766 7.42315L22.647 7.71937C23.2631 4.66102 20.9933 2.65052 19.4811 1.41855L18.5337 2.58145ZM7.71962 22.6474C9.16491 22.3557 10.5909 21.8698 12.3156 20.8803L11.5692 19.5792C9.98777 20.4865 8.71413 20.9164 7.42289 21.177L7.71962 22.6474ZM12.491 19.7184L8.54863 15.4887L7.45137 16.5115L11.3938 20.7411L12.491 19.7184ZM7.6639 15.3296L1.6639 18.3373L2.3361 19.6783L8.3361 16.6706L7.6639 15.3296ZM1.41855 19.4815C2.65052 20.9937 4.66102 23.2635 7.71937 22.6474L7.42315 21.177C5.33917 21.5968 3.87213 20.1183 2.58145 18.5341L1.41855 19.4815ZM12.3156 20.8803C14.0516 19.8843 15.6947 18.6082 17.151 17.1509L16.0899 16.0906C14.7209 17.4606 13.1823 18.6537 11.5692 19.5792L12.3156 20.8803ZM19.5788 11.5692C19.002 12.5745 18.3211 13.5515 17.5575 14.477L18.7145 15.4316C19.5288 14.4447 20.2587 13.3984 20.8799 12.3156L19.5788 11.5692Z" fill="#141B34"/>
<path d="M2 2L22 22" stroke="#141B34" stroke-width="1.5"/>
</svg>
