<svg width="24" height="24" viewBox="0 0 24 24" fill="none" xmlns="http://www.w3.org/2000/svg">
<path d="M2 22.0003H1.25C1.25 22.4145 1.58579 22.7503 2 22.7503V22.0003ZM22.0009 22.0003V22.7503C22.4152 22.7503 22.7509 22.4145 22.7509 22.0003H22.0009ZM17 6L16.3292 6.33541L16.5365 6.75H17V6ZM22.0009 6H22.7509C22.7509 5.58579 22.4152 5.25 22.0009 5.25V6ZM2 6.00083V5.25083C1.58579 5.25083 1.25 5.58662 1.25 6.00083H2ZM7 6.00083V6.75083H7.46357L7.67085 6.33619L7 6.00083ZM15 2L15.6708 1.66459C15.5438 1.4105 15.2841 1.25 15 1.25V2ZM9 2V1.25C8.7159 1.25 8.45618 1.41053 8.32915 1.66465L9 2ZM2 22.7503H22.0009V21.2503H2V22.7503ZM17 6.75H22.0009V5.25H17V6.75ZM21.2509 6V22.0003H22.7509V6H21.2509ZM2.75 22.0003V6.00083H1.25V22.0003H2.75ZM2 6.75083H7V5.25083H2V6.75083ZM14.3292 2.33541L16.3292 6.33541L17.6708 5.66459L15.6708 1.66459L14.3292 2.33541ZM7.67085 6.33619L9.67085 2.33535L8.32915 1.66465L6.32915 5.66548L7.67085 6.33619ZM15 1.25H9V2.75H15V1.25Z" fill="#141B34"/>
<path d="M13 10.75V12.75H14.5V10.75H13ZM11 12.75V10.75H9.5V12.75H11ZM12 13.75C11.4477 13.75 11 13.3023 11 12.75H9.5C9.5 14.1307 10.6193 15.25 12 15.25V13.75ZM13 12.75C13 13.3023 12.5523 13.75 12 13.75V15.25C13.3807 15.25 14.5 14.1307 14.5 12.75H13ZM12 9.75C12.5523 9.75 13 10.1977 13 10.75H14.5C14.5 9.36929 13.3807 8.25 12 8.25V9.75ZM12 8.25C10.6193 8.25 9.5 9.36929 9.5 10.75H11C11 10.1977 11.4477 9.75 12 9.75V8.25ZM14.7921 14.2524C14.3832 15.4213 13.2832 16.25 12 16.25V17.75C13.9485 17.75 15.5979 16.4917 16.2079 14.7476L14.7921 14.2524ZM12 16.25C10.7168 16.25 9.61682 15.4213 9.20794 14.2524L7.79206 14.7476C8.40211 16.4917 10.0515 17.75 12 17.75V16.25ZM11.25 17V19H12.75V17H11.25Z" fill="#141B34"/>
</svg>
