<svg width="24" height="24" viewBox="0 0 24 24" fill="none" xmlns="http://www.w3.org/2000/svg">
<path d="M17.9998 15H5.99805L5.99958 12.002H17.9998V15Z" stroke="#141B34" stroke-width="1.5" stroke-linecap="round" stroke-linejoin="round"/>
<path d="M21 2L21.7184 2.21551L22.008 1.25H21V2ZM17 2V1.25C16.6688 1.25 16.3768 1.46725 16.2816 1.78449L17 2ZM18.7184 12.2155L21.7184 2.21551L20.2816 1.78449L17.2816 11.7845L18.7184 12.2155ZM21 1.25H17V2.75H21V1.25ZM16.2816 1.78449L13.2816 11.7845L14.7184 12.2155L17.7184 2.21551L16.2816 1.78449Z" fill="#141B34"/>
<path d="M15 8H9L9.00185 12" stroke="#141B34" stroke-width="1.5" stroke-linejoin="round"/>
<path d="M6.75 13C6.75 12.5858 6.41421 12.25 6 12.25C5.58579 12.25 5.25 12.5858 5.25 13H6.75ZM6 19V19.75C6.41421 19.75 6.75 19.4142 6.75 19H6ZM5.25 13V19H6.75V13H5.25ZM3 19.75H6V18.25H3V19.75Z" fill="#141B34"/>
<path d="M12 15V21M9 21H15" stroke="#141B34" stroke-width="1.5" stroke-linejoin="round"/>
</svg>
