<svg width="24" height="24" viewBox="0 0 24 24" fill="none" xmlns="http://www.w3.org/2000/svg">
<path d="M18 17L17.6279 17.6512L18.1661 17.9587L18.5694 17.4881L18 17ZM18.75 17C18.75 12.8334 17.426 9.85707 15.221 7.93468C13.0343 6.02822 10.0857 5.25 7 5.25V6.75C9.8561 6.75 12.4075 7.47178 14.2353 9.06532C16.0449 10.6429 17.25 13.1666 17.25 17H18.75ZM14.1279 15.6512L17.6279 17.6512L18.3721 16.3488L14.8721 14.3488L14.1279 15.6512ZM18.5694 17.4881L21.5694 13.9881L20.4306 13.0119L17.4306 16.5119L18.5694 17.4881Z" fill="#141B34"/>
<path d="M21 21H3V3" stroke="#141B34" stroke-width="1.5" stroke-linejoin="round"/>
</svg>
