<svg width="24" height="24" viewBox="0 0 24 24" fill="none" xmlns="http://www.w3.org/2000/svg">
<path d="M2.30924 17.6837C4.98797 16.476 8.34391 15.75 12.001 15.75V14.25C8.15377 14.25 4.5847 15.0124 1.69271 16.3163L2.30924 17.6837ZM22.3092 16.3163C19.4173 15.0124 15.8482 14.25 12.001 14.25V15.75C15.658 15.75 19.014 16.476 21.6927 17.6837L22.3092 16.3163Z" fill="#141B34"/>
<path d="M22.0013 11L22.7513 11.0001L22.7513 10.5155L22.3095 10.3163L22.0013 11ZM22.0007 21V21.75H22.7507L22.7507 21.0001L22.0007 21ZM16.9714 12L16.9015 12.7467L17.7134 12.8228L17.7214 12.0073L16.9714 12ZM16.9962 9.45703L17.135 8.71998L16.2549 8.55427L16.2462 9.44973L16.9962 9.45703ZM14.9457 21.75H22.0007V20.25H14.9457V21.75ZM17.0414 11.2533C15.7563 11.1329 14.407 11.0574 13.0133 11.0327L12.9867 12.5325C14.3437 12.5566 15.6552 12.63 16.9015 12.7467L17.0414 11.2533ZM16.2462 9.44973L16.2215 11.9927L17.7214 12.0073L17.7461 9.46433L16.2462 9.44973ZM22.3095 10.3163C20.7573 9.61646 19.0115 9.07335 17.135 8.71998L16.8574 10.1941C18.6273 10.5274 20.2581 11.0368 21.693 11.6838L22.3095 10.3163ZM21.2513 11L21.2507 21L22.7507 21.0001L22.7513 11.0001L21.2513 11Z" fill="#141B34"/>
<path d="M12 20.9999V17.9999" stroke="#141B34" stroke-width="1.5" stroke-linejoin="round"/>
<path d="M10 14.9999V11.9999" stroke="#141B34" stroke-width="1.5" stroke-linejoin="round"/>
<path d="M6 16V13" stroke="#141B34" stroke-width="1.5" stroke-linejoin="round"/>
<path d="M8 20.9999V17.9999" stroke="#141B34" stroke-width="1.5" stroke-linejoin="round"/>
<path d="M2.00139 4.70976L1.69312 4.02604L1.25143 4.22518L1.25139 4.70969L2.00139 4.70976ZM7.99944 3L8.71095 2.76283L8.51201 2.16601L7.88968 2.25807L7.99944 3ZM12.0014 8.99998L12.6937 8.71159L12.5014 8.24998H12.0014V8.99998ZM17 21V21.75H18.1249L17.6923 20.7116L17 21ZM2 21L1.25 20.9999L1.24994 21.75H2V21ZM2.30965 5.39348C4.00204 4.63044 5.96647 4.0589 8.10919 3.74193L7.88968 2.25807C5.62284 2.5934 3.52326 3.20089 1.69312 4.02604L2.30965 5.39348ZM2.30965 11.6837C4.98839 10.476 8.34432 9.74998 12.0014 9.74998V8.24998C8.15418 8.24998 4.58511 9.01236 1.69312 10.3163L2.30965 11.6837ZM17 20.25H2V21.75H17V20.25ZM2.75 21L2.75139 4.70982L1.25139 4.70969L1.25 20.9999L2.75 21ZM11.3091 9.28837L16.3077 21.2884L17.6923 20.7116L12.6937 8.71159L11.3091 9.28837ZM10.7109 8.76281L8.71095 2.76283L7.28792 3.23717L9.28792 9.23715L10.7109 8.76281Z" fill="#141B34"/>
</svg>
