<svg width="24" height="24" viewBox="0 0 24 24" fill="none" xmlns="http://www.w3.org/2000/svg">
<path d="M2 2L22 22" stroke="#141B34" stroke-width="1.5" stroke-linejoin="round"/>
<path d="M2 4V3.25C1.58579 3.25 1.25 3.58579 1.25 4H2ZM22 4H22.75C22.75 3.58579 22.4142 3.25 22 3.25V4ZM2 20H1.25C1.25 20.4142 1.58579 20.75 2 20.75V20ZM1.25 4V20H2.75V4H1.25ZM7.18198 4.75H22V3.25H7.18198V4.75ZM22.75 18.818V4H21.25V18.818H22.75ZM20 19.25H2V20.75H20V19.25ZM2 4.75H4.00005V3.25H2V4.75Z" fill="#141B34"/>
<path d="M2 8.25H1.25V9.75H2V8.25ZM22 9.75H22.75V8.25H22V9.75ZM12.1828 9.75H22V8.25H12.1828V9.75ZM2 9.75H9.00005V8.25H2V9.75Z" fill="#141B34"/>
</svg>
