<svg width="24" height="24" viewBox="0 0 24 24" fill="none" xmlns="http://www.w3.org/2000/svg">
<path d="M22 3L2 3" stroke="#141B34" stroke-width="1.5" stroke-linejoin="round"/>
<path d="M5 14.5C5.5985 13.7925 7 11 7 8M19 14.5C18.4015 13.7925 17 11 17 8" stroke="#141B34" stroke-width="1.5" stroke-linejoin="round"/>
<path d="M20 21V21.75C20.4142 21.75 20.75 21.4142 20.75 21H20ZM16 21H15.25V21.75H16V21ZM19.25 3V14.625H20.75V3H19.25ZM19.25 14.625V21H20.75V14.625H19.25ZM16 21.75H20V20.25H16V21.75ZM16.75 21C16.75 18.9377 16.785 16.2777 18.5283 14.5478L17.4717 13.4831C15.215 15.7223 15.25 19.0623 15.25 21H16.75ZM11.25 2.99999C11.25 5.22057 11.8055 7.72858 12.8727 9.88111C13.9362 12.026 15.5553 13.908 17.739 14.7186L18.261 13.3123C16.564 12.6824 15.183 11.1639 14.2166 9.2148C13.254 7.27335 12.75 4.99389 12.75 3.00001L11.25 2.99999ZM17.739 14.7186C18.195 14.8878 18.7163 15.0464 19.1155 15.1608C19.3168 15.2185 19.4906 15.2659 19.6143 15.2991C19.6762 15.3157 19.7258 15.3287 19.7601 15.3376C19.7772 15.3421 19.7906 15.3456 19.7999 15.3479C19.8045 15.3491 19.8081 15.3501 19.8106 15.3507C19.8118 15.351 19.8128 15.3513 19.8135 15.3514C19.8139 15.3515 19.8142 15.3516 19.8144 15.3517C19.8145 15.3517 19.8146 15.3517 19.8147 15.3517C19.8147 15.3517 19.8147 15.3518 19.8148 15.3518C19.8148 15.3518 19.8148 15.3518 20 14.625C20.1852 13.8982 20.1852 13.8982 20.1852 13.8982C20.1852 13.8982 20.1852 13.8982 20.1852 13.8982C20.1852 13.8982 20.1852 13.8982 20.1852 13.8982C20.1851 13.8982 20.185 13.8982 20.1848 13.8981C20.1844 13.898 20.1838 13.8979 20.1828 13.8976C20.181 13.8971 20.178 13.8964 20.1741 13.8954C20.1662 13.8933 20.1542 13.8902 20.1385 13.8861C20.1071 13.878 20.0608 13.8658 20.0023 13.8501C19.8852 13.8188 19.7201 13.7737 19.5288 13.7188C19.1427 13.6082 18.6639 13.4619 18.261 13.3123L17.739 14.7186Z" fill="#141B34"/>
<path d="M4 21V21.75C3.58579 21.75 3.25 21.4142 3.25 21H4ZM8 21H8.75V21.75H8V21ZM4.75 3V14.625H3.25V3H4.75ZM4.75 14.625V21H3.25V14.625H4.75ZM8 21.75H4V20.25H8V21.75ZM7.25 21C7.25 18.9377 7.21505 16.2777 5.47173 14.5478L6.52827 13.4831C8.78495 15.7223 8.75 19.0623 8.75 21H7.25ZM12.75 2.99999C12.75 5.22057 12.1945 7.72858 11.1273 9.88111C10.0638 12.026 8.44474 13.908 6.26099 14.7186L5.73901 13.3123C7.43601 12.6824 8.81697 11.1639 9.78337 9.2148C10.746 7.27335 11.25 4.99389 11.25 3.00001L12.75 2.99999ZM6.26099 14.7186C5.80496 14.8878 5.2837 15.0464 4.88452 15.1608C4.6832 15.2185 4.50943 15.2659 4.38569 15.2991C4.32377 15.3157 4.27425 15.3287 4.23992 15.3376C4.22275 15.3421 4.20937 15.3456 4.20013 15.3479C4.19552 15.3491 4.19193 15.3501 4.18942 15.3507C4.18817 15.351 4.18718 15.3513 4.18647 15.3514C4.18611 15.3515 4.18583 15.3516 4.18561 15.3517C4.1855 15.3517 4.18541 15.3517 4.18534 15.3517C4.1853 15.3517 4.18526 15.3518 4.18524 15.3518C4.1852 15.3518 4.18517 15.3518 4 14.625C3.81483 13.8982 3.81481 13.8982 3.81479 13.8982C3.81479 13.8982 3.81477 13.8982 3.81477 13.8982C3.81476 13.8982 3.81478 13.8982 3.81481 13.8982C3.81487 13.8982 3.81499 13.8982 3.81519 13.8981C3.81558 13.898 3.81625 13.8979 3.81718 13.8976C3.81904 13.8971 3.82197 13.8964 3.82591 13.8954C3.83381 13.8933 3.84578 13.8902 3.86149 13.8861C3.89292 13.878 3.93925 13.8658 3.99772 13.8501C4.11477 13.8188 4.27993 13.7737 4.47124 13.7188C4.85731 13.6082 5.33605 13.4619 5.73901 13.3123L6.26099 14.7186Z" fill="#141B34"/>
</svg>
