<svg width="24" height="24" viewBox="0 0 24 24" fill="none" xmlns="http://www.w3.org/2000/svg">
<path d="M2 5.5H8M22 5.5H16M16 5.5L14.5 2H9.5L8 5.5M16 5.5H8" stroke="#141B34" stroke-width="1.5" stroke-linejoin="round"/>
<path d="M5.5 22L4.75137 22.0454C4.77537 22.4412 5.10341 22.75 5.5 22.75V22ZM18.9583 19.4932L19.698 19.617H19.698L18.9583 19.4932ZM12 16L11.4697 15.4697L10.9393 16L11.4697 16.5303L12 16ZM3.75137 5.54537L4.75137 22.0454L6.24863 21.9546L5.24863 5.45463L3.75137 5.54537ZM19.7941 13.0454L20.2486 5.54537L18.7514 5.45463L18.2968 12.9546L19.7941 13.0454ZM5.5 22.75H12V21.25H5.5V22.75ZM15.9867 21.25H12V22.75H15.9867V21.25ZM15.9867 15.25H13.0357V16.75H15.9867V15.25ZM19.698 19.617C20.0812 17.3274 18.3082 15.25 15.9867 15.25V16.75C17.3883 16.75 18.4474 18.0018 18.2186 19.3694L19.698 19.617ZM18.2186 19.3694C18.0373 20.4523 17.0952 21.25 15.9867 21.25V22.75C17.8235 22.75 19.395 21.4272 19.698 19.617L18.2186 19.3694ZM14.4697 12.4697L11.4697 15.4697L12.5303 16.5303L15.5303 13.5303L14.4697 12.4697ZM11.4697 16.5303L14.4697 19.5303L15.5303 18.4697L12.5303 15.4697L11.4697 16.5303Z" fill="#141B34"/>
</svg>
