<svg width="24" height="24" viewBox="0 0 24 24" fill="none" xmlns="http://www.w3.org/2000/svg">
<path d="M19 12L19.5303 12.5303L20.0607 12L19.5303 11.4697L19 12ZM18.4697 11.4697L15.4697 14.4697L16.5303 15.5303L19.5303 12.5303L18.4697 11.4697ZM15.4697 9.53033L18.4697 12.5303L19.5303 11.4697L16.5303 8.46967L15.4697 9.53033Z" fill="#141B34"/>
<path d="M5 12L4.46967 11.4697L3.93934 12L4.46967 12.5303L5 12ZM4.46967 12.5303L7.46967 15.5303L8.53033 14.4697L5.53033 11.4697L4.46967 12.5303ZM7.46967 8.46967L4.46967 11.4697L5.53033 12.5303L8.53033 9.53033L7.46967 8.46967Z" fill="#141B34"/>
<path d="M13.5 12H19" stroke="#141B34" stroke-width="1.5" stroke-linejoin="round"/>
<path d="M10.5 12H5" stroke="#141B34" stroke-width="1.5" stroke-linejoin="round"/>
<path d="M12 13.5C11.1716 13.5 10.5 12.8284 10.5 12C10.5 11.1716 11.1716 10.5 12 10.5C12.8284 10.5 13.5 11.1716 13.5 12C13.5 12.8284 12.8284 13.5 12 13.5Z" stroke="#141B34" stroke-width="1.5" stroke-linejoin="round"/>
<path d="M12 22C6.47715 22 2 17.5228 2 12C2 6.47715 6.47715 2 12 2C17.5228 2 22 6.47715 22 12C22 17.5228 17.5228 22 12 22Z" stroke="#141B34" stroke-width="1.5" stroke-linejoin="round"/>
</svg>
