<svg width="24" height="24" viewBox="0 0 24 24" fill="none" xmlns="http://www.w3.org/2000/svg">
<path d="M12 2V1.25C11.5858 1.25 11.25 1.58579 11.25 2H12ZM12 7H11.25C11.25 7.41421 11.5858 7.75 12 7.75V7ZM17 2L17.5857 1.53148L17.3605 1.25H17V2ZM17 7V7.75H17.3605L17.5857 7.46852L17 7ZM19 4.5L19.5857 4.96852L19.9605 4.5L19.5857 4.03148L19 4.5ZM11.25 2V7H12.75V2H11.25ZM17 1.25H12V2.75H17V1.25ZM12 7.75H17V6.25H12V7.75ZM18.4143 4.03148L16.4143 6.53148L17.5857 7.46852L19.5857 4.96852L18.4143 4.03148ZM16.4143 2.46852L18.4143 4.96852L19.5857 4.03148L17.5857 1.53148L16.4143 2.46852Z" fill="#141B34"/>
<path d="M12 7H12.75C12.75 6.58579 12.4142 6.25 12 6.25V7ZM12 12V12.75C12.4142 12.75 12.75 12.4142 12.75 12H12ZM7 7V6.25H6.63953L6.41435 6.53148L7 7ZM7 12L6.41435 12.4685L6.63953 12.75H7V12ZM5 9.5L4.41435 9.03148L4.03953 9.5L4.41435 9.96852L5 9.5ZM11.25 7V12H12.75V7H11.25ZM7 7.75H12V6.25H7V7.75ZM12 11.25H7V12.75H12V11.25ZM4.41435 9.96852L6.41435 12.4685L7.58565 11.5315L5.58565 9.03148L4.41435 9.96852ZM6.41435 6.53148L4.41435 9.03148L5.58565 9.96852L7.58565 7.46852L6.41435 6.53148Z" fill="#141B34"/>
<path d="M12 12V11.25C11.5858 11.25 11.25 11.5858 11.25 12H12ZM12 17H11.25C11.25 17.4142 11.5858 17.75 12 17.75V17ZM17 12L17.5857 11.5315L17.3605 11.25H17V12ZM17 17V17.75H17.3605L17.5857 17.4685L17 17ZM19 14.5L19.5857 14.9685L19.9605 14.5L19.5857 14.0315L19 14.5ZM11.25 12V17H12.75V12H11.25ZM17 11.25H12V12.75H17V11.25ZM12 17.75H17V16.25H12V17.75ZM18.4143 14.0315L16.4143 16.5315L17.5857 17.4685L19.5857 14.9685L18.4143 14.0315ZM16.4143 12.4685L18.4143 14.9685L19.5857 14.0315L17.5857 11.5315L16.4143 12.4685Z" fill="#141B34"/>
<path d="M12 22L12 3" stroke="#141B34" stroke-width="1.5" stroke-linejoin="round"/>
<path d="M9 22H15" stroke="#141B34" stroke-width="1.5" stroke-linejoin="round"/>
</svg>
