<svg width="24" height="24" viewBox="0 0 24 24" fill="none" xmlns="http://www.w3.org/2000/svg">
<path d="M18.3635 12.4638L17.828 12.9889V12.9889L18.3635 12.4638ZM18.0611 17.9048L18.7392 18.2253L18.7392 18.2253L18.0611 17.9048ZM17.0236 20L16.355 19.6603L16.2736 19.8204V20H17.0236ZM8.6875 14.4001L8.14084 14.9136L9.4375 16.294V14.4001H8.6875ZM6.60945 12.1878L7.1561 11.6743L7.13399 11.6508L7.10993 11.6292L6.60945 12.1878ZM4.3539 14.4843L4.95091 14.0303L4.94606 14.024L4.3539 14.4843ZM8.54857 20H9.29857V19.7472L9.14555 19.546L8.54857 20ZM4.34639 12.4101L3.7508 11.9543L3.7508 11.9543L4.34639 12.4101ZM11.9687 10.1251H11.2187V10.9097L12.0025 10.8743L11.9687 10.1251ZM8.6875 6.64062H9.4375H8.6875ZM17.828 12.9889C18.2056 13.374 18.3365 14.0711 18.1943 15.0334C18.0576 15.9583 17.6961 16.9217 17.383 17.5844L18.7392 18.2253C19.0889 17.4851 19.5125 16.3744 19.6782 15.2527C19.8384 14.1683 19.789 12.8463 18.899 11.9387L17.828 12.9889ZM17.383 17.5844C17.2075 17.9556 16.9514 18.4729 16.7371 18.9015C16.6303 19.1149 16.5347 19.3048 16.4658 19.4413C16.4313 19.5095 16.4036 19.5644 16.3845 19.6022C16.3749 19.621 16.3675 19.6356 16.3625 19.6455C16.36 19.6504 16.3581 19.6542 16.3568 19.6566C16.3562 19.6579 16.3557 19.6588 16.3554 19.6594C16.3553 19.6598 16.3551 19.66 16.3551 19.6601C16.355 19.6602 16.355 19.6603 16.355 19.6603C16.355 19.6603 16.355 19.6603 16.355 19.6603C16.355 19.6603 16.355 19.6603 17.0236 20C17.6923 20.3397 17.6923 20.3397 17.6923 20.3396C17.6923 20.3396 17.6923 20.3396 17.6924 20.3396C17.6924 20.3395 17.6924 20.3395 17.6925 20.3394C17.6925 20.3392 17.6927 20.339 17.6928 20.3386C17.6932 20.3379 17.6937 20.3369 17.6944 20.3356C17.6957 20.333 17.6976 20.3292 17.7002 20.3241C17.7053 20.314 17.7129 20.2992 17.7225 20.28C17.7419 20.2417 17.77 20.1863 17.8048 20.1174C17.8744 19.9796 17.9709 19.788 18.0786 19.5725C18.2933 19.1432 18.556 18.6129 18.7392 18.2253L17.383 17.5844ZM9.23416 13.8866L7.1561 11.6743L6.06279 12.7013L8.14084 14.9136L9.23416 13.8866ZM3.75692 14.9383L7.95159 20.454L9.14555 19.546L4.95088 14.0303L3.75692 14.9383ZM3.7508 11.9543C3.07909 12.832 3.08344 14.0719 3.76175 14.9446L4.94606 14.024C4.68629 13.6898 4.68438 13.2025 4.94198 12.866L3.7508 11.9543ZM7.10993 11.6292C6.10077 10.725 4.57091 10.8827 3.7508 11.9543L4.94198 12.866C5.23882 12.4781 5.76057 12.4342 6.10897 12.7464L7.10993 11.6292ZM16.2736 20V22.0001H17.7736V20H16.2736ZM12.0025 10.8743C13.4968 10.807 16.0398 11.1653 17.828 12.9889L18.899 11.9387C16.6905 9.68655 13.6436 9.29886 11.935 9.37586L12.0025 10.8743ZM11.2187 6.64062V10.1251H12.7188V6.64062H11.2187ZM7.9375 6.64062L7.9375 14.4001H9.4375L9.4375 6.64062H7.9375ZM10.3281 5.75C10.82 5.75 11.2187 6.14875 11.2187 6.64062H12.7188C12.7188 5.32032 11.6484 4.25 10.3281 4.25V5.75ZM10.3281 4.25C9.00782 4.25 7.9375 5.32032 7.9375 6.64062H9.4375C9.4375 6.14875 9.83625 5.75 10.3281 5.75V4.25ZM9.29857 22.0001V20H7.79857V22.0001H9.29857Z" fill="#141B34"/>
<path d="M20 5L20.5303 5.53033L21.0607 5L20.5303 4.46967L20 5ZM20 4.25H14V5.75H20V4.25ZM19.4697 4.46967L16.9697 6.96967L18.0303 8.03033L20.5303 5.53033L19.4697 4.46967ZM16.9697 3.03033L19.4697 5.53033L20.5303 4.46967L18.0303 1.96967L16.9697 3.03033Z" fill="#141B34"/>
<path d="M8.69621 8.5C7.67979 7.88755 7 6.77316 7 5.5C7 3.567 8.567 2 10.5 2C12.433 2 14 3.567 14 5.5C14 6.77316 13.3202 7.88755 12.3038 8.5" stroke="#141B34" stroke-width="1.5"/>
</svg>
