<svg width="24" height="24" viewBox="0 0 24 24" fill="none" xmlns="http://www.w3.org/2000/svg">
<path d="M9.53345 13.6528L11.5 15.3722V6.50065C11.5 5.67186 12.1719 5 13.0006 5C13.8289 5 14.5006 5.67107 14.5013 6.49935L14.5045 12H18.5C19.8807 12 21 13.1193 21 14.5V19.4999C21 20.8806 19.8807 21.9999 18.5 21.9999H12L7.3436 15.8158C6.88822 15.2474 6.88518 14.4341 7.3363 13.8622C7.87851 13.175 8.87444 13.08 9.53345 13.6528Z" stroke="#141B34" stroke-width="1.5"/>
<path d="M3 6L2.46967 5.46967L1.93934 6L2.46967 6.53033L3 6ZM3 6.75H9V5.25H3V6.75ZM2.46967 6.53033L5.46967 9.53033L6.53033 8.46967L3.53033 5.46967L2.46967 6.53033ZM5.46967 2.46967L2.46967 5.46967L3.53033 6.53033L6.53033 3.53033L5.46967 2.46967Z" fill="#141B34"/>
<path d="M14.938 9.5C16.1677 8.81764 17 7.50601 17 6C17 3.79086 15.2091 2 13 2C10.7909 2 9 3.79086 9 6C9 7.50601 9.83229 8.81764 11.062 9.5" stroke="#141B34" stroke-width="1.5"/>
</svg>
