<svg width="24" height="24" viewBox="0 0 24 24" fill="none" xmlns="http://www.w3.org/2000/svg">
<path d="M20.3635 12.4638L19.828 12.9889V12.9889L20.3635 12.4638ZM20.0611 17.9048L20.7392 18.2253L20.7392 18.2253L20.0611 17.9048ZM19 20L18.3361 19.651L18.2478 19.8191L18.2501 20.0089L19 20ZM10.6875 14.4001L10.1408 14.9136L11.4375 16.294V14.4001H10.6875ZM8.60945 12.1878L9.1561 11.6743L9.13399 11.6508L9.10993 11.6292L8.60945 12.1878ZM6.3539 14.4843L6.95091 14.0303L6.94606 14.024L6.3539 14.4843ZM10.5486 20H11.2986V19.7472L11.1455 19.546L10.5486 20ZM6.34639 12.4101L5.7508 11.9543L5.7508 11.9543L6.34639 12.4101ZM13.9687 10.1251H13.2187V10.9097L14.0025 10.8743L13.9687 10.1251ZM10.6875 6.64062H11.4375H10.6875ZM19.828 12.9889C20.2056 13.374 20.3365 14.0711 20.1943 15.0334C20.0576 15.9583 19.6961 16.9217 19.383 17.5844L20.7392 18.2253C21.0889 17.4851 21.5125 16.3744 21.6782 15.2527C21.8384 14.1683 21.789 12.8463 20.899 11.9387L19.828 12.9889ZM19.383 17.5844C19.2095 17.9516 18.9492 18.4657 18.729 18.8942C18.6196 19.1071 18.5212 19.2966 18.4502 19.4328C18.4148 19.5009 18.3862 19.5556 18.3665 19.5932C18.3566 19.612 18.349 19.6266 18.3438 19.6364C18.3413 19.6412 18.3393 19.645 18.338 19.6474C18.3374 19.6487 18.3369 19.6496 18.3366 19.6502C18.3364 19.6505 18.3363 19.6507 18.3362 19.6508C18.3362 19.6509 18.3362 19.651 18.3361 19.651C18.3361 19.651 18.3361 19.651 18.3361 19.651C18.3361 19.651 18.3361 19.651 19 20C19.6639 20.349 19.6639 20.349 19.6639 20.3489C19.6639 20.3489 19.6639 20.3489 19.6639 20.3489C19.6639 20.3488 19.664 20.3488 19.664 20.3487C19.6641 20.3485 19.6643 20.3482 19.6644 20.3479C19.6648 20.3472 19.6653 20.3462 19.666 20.3449C19.6674 20.3422 19.6694 20.3383 19.6721 20.3333C19.6774 20.3231 19.6853 20.3082 19.6953 20.289C19.7154 20.2506 19.7445 20.195 19.7805 20.1259C19.8524 19.9879 19.9521 19.7958 20.0631 19.5798C20.2838 19.1505 20.554 18.617 20.7392 18.2253L19.383 17.5844ZM11.2342 13.8866L9.1561 11.6743L8.06279 12.7013L10.1408 14.9136L11.2342 13.8866ZM5.75692 14.9383L9.95159 20.454L11.1455 19.546L6.95088 14.0303L5.75692 14.9383ZM5.7508 11.9543C5.07909 12.832 5.08344 14.0719 5.76175 14.9446L6.94606 14.024C6.68629 13.6898 6.68438 13.2025 6.94198 12.866L5.7508 11.9543ZM9.10993 11.6292C8.10077 10.725 6.57091 10.8827 5.7508 11.9543L6.94198 12.866C7.23882 12.4781 7.76057 12.4342 8.10897 12.7464L9.10993 11.6292ZM18.2501 20.0089L18.2737 22.009L19.7736 21.9912L19.7499 19.9911L18.2501 20.0089ZM14.0025 10.8743C15.4968 10.807 18.0398 11.1653 19.828 12.9889L20.899 11.9387C18.6905 9.68655 15.6436 9.29886 13.935 9.37586L14.0025 10.8743ZM13.2187 6.64062V10.1251H14.7188V6.64062H13.2187ZM9.9375 6.64062L9.9375 14.4001H11.4375L11.4375 6.64062H9.9375ZM12.3281 5.75C12.82 5.75 13.2187 6.14875 13.2187 6.64062H14.7188C14.7188 5.32032 13.6484 4.25 12.3281 4.25V5.75ZM12.3281 4.25C11.0078 4.25 9.9375 5.32032 9.9375 6.64062H11.4375C11.4375 6.14875 11.8362 5.75 12.3281 5.75V4.25ZM11.2986 22.0001V20H9.79857V22.0001H11.2986Z" fill="#141B34"/>
<path d="M3 5L2.46967 4.46967L1.93934 5L2.46967 5.53033L3 5ZM3 5.75H9V4.25H3V5.75ZM2.46967 5.53033L4.96967 8.03033L6.03033 6.96967L3.53033 4.46967L2.46967 5.53033ZM4.96967 1.96967L2.46967 4.46967L3.53033 5.53033L6.03033 3.03033L4.96967 1.96967Z" fill="#141B34"/>
<path d="M10.6962 8.5C9.67979 7.88755 9 6.77316 9 5.5C9 3.567 10.567 2 12.5 2C14.433 2 16 3.567 16 5.5C16 6.77316 15.3202 7.88755 14.3038 8.5" stroke="#141B34" stroke-width="1.5"/>
</svg>
