<svg width="24" height="24" viewBox="0 0 24 24" fill="none" xmlns="http://www.w3.org/2000/svg">
<path d="M20.6216 6.52183L20.0463 6.04068V6.04068L20.6216 6.52183ZM17.3963 10.3783L16.821 9.89713L16.2873 10.5352L16.9771 11.0002L17.3963 10.3783ZM20.9893 16.087L20.2438 16.1696L20.9893 16.087ZM20.3554 4.33015L19.8813 4.9113L19.8813 4.9113L20.3554 4.33015ZM18.2368 4.5763L18.8121 5.05746V5.05746L18.2368 4.5763ZM17.5499 19.7433L17.8527 20.4294H17.8527L17.5499 19.7433ZM15.6765 20.5L15.4096 19.7991L15.2364 19.865L15.1139 20.004L15.6765 20.5ZM12.7678 11.1155L12.0293 11.2465L12.3105 12.8314L13.3431 11.5967L12.7678 11.1155ZM12.3398 8.70291L13.0783 8.57191V8.57191L12.3398 8.70291ZM9.29277 8.94465L8.54277 8.93977V8.94465H9.29277ZM9.29277 15.5236L9.8231 16.0539L10.0428 15.8342V15.5236H9.29277ZM10.5118 7.47571L10.3617 6.7409H10.3617L10.5118 7.47571ZM20.0463 6.04068L16.821 9.89713L17.9716 10.8594L21.1969 7.00299L20.0463 6.04068ZM16.9771 11.0002C18.1178 11.7692 19.96 13.6097 20.2438 16.1696L21.7347 16.0043C21.3834 12.8354 19.1494 10.6557 17.8155 9.75641L16.9771 11.0002ZM19.8813 4.9113C20.2492 5.21143 20.2876 5.7521 20.0463 6.04068L21.1969 7.00299C22.0398 5.99513 21.7628 4.51043 20.8295 3.74901L19.8813 4.9113ZM20.8295 3.74901C19.8311 2.93455 18.4419 3.162 17.6614 4.09514L18.8121 5.05746C19.1159 4.69416 19.5784 4.66421 19.8813 4.9113L20.8295 3.74901ZM20.2438 16.1696C20.2954 16.6353 20.009 17.1796 19.3419 17.7652C18.7022 18.3268 17.8701 18.7822 17.2471 19.0572L17.8527 20.4294C18.555 20.1195 19.5361 19.5907 20.3315 18.8924C21.0996 18.2181 21.8702 17.2266 21.7347 16.0043L20.2438 16.1696ZM17.2471 19.0572C16.9028 19.2091 16.4459 19.3938 16.0687 19.5428C15.8815 19.6167 15.7163 19.681 15.598 19.7267C15.5389 19.7495 15.4916 19.7677 15.4591 19.7801C15.4429 19.7864 15.4304 19.7911 15.422 19.7943C15.4178 19.7959 15.4147 19.7971 15.4126 19.7979C15.4115 19.7983 15.4108 19.7986 15.4103 19.7988C15.41 19.7989 15.4098 19.799 15.4097 19.799C15.4097 19.7991 15.4096 19.7991 15.4096 19.7991C15.4096 19.7991 15.4096 19.7991 15.4096 19.7991C15.4096 19.7991 15.4096 19.7991 15.6765 20.5C15.9433 21.2009 15.9433 21.2009 15.9433 21.2009C15.9434 21.2009 15.9434 21.2009 15.9434 21.2009C15.9435 21.2009 15.9435 21.2008 15.9436 21.2008C15.9438 21.2007 15.944 21.2007 15.9443 21.2005C15.9449 21.2003 15.9458 21.2 15.947 21.1995C15.9493 21.1986 15.9528 21.1973 15.9572 21.1956C15.9661 21.1922 15.9792 21.1872 15.996 21.1808C16.0296 21.1679 16.0782 21.1492 16.1387 21.1259C16.2596 21.0791 16.4284 21.0135 16.6199 20.9378C17.0002 20.7876 17.48 20.5939 17.8527 20.4294L17.2471 19.0572ZM13.5063 10.9845L13.0783 8.57191L11.6013 8.83391L12.0293 11.2465L13.5063 10.9845ZM8.54277 8.94465L8.54277 15.5236H10.0428L10.0428 8.94465H8.54277ZM10.3617 6.7409C9.3136 6.95505 8.54977 7.86618 8.54279 8.93977L10.0428 8.94953C10.045 8.59732 10.2963 8.28524 10.662 8.21053L10.3617 6.7409ZM13.0783 8.57191C12.8534 7.30414 11.6167 6.48446 10.3617 6.7409L10.662 8.21053C11.1061 8.11977 11.5266 8.41263 11.6013 8.83391L13.0783 8.57191ZM15.1139 20.004L13.7915 21.504L14.9167 22.496L16.239 20.996L15.1139 20.004ZM13.3431 11.5967L18.8121 5.05746L17.6614 4.09514L12.1925 10.6344L13.3431 11.5967ZM8.53033 17.3467L9.8231 16.0539L8.76244 14.9932L7.46967 16.286L8.53033 17.3467Z" fill="#141B34"/>
<path d="M7.51482 2.83481L6.77583 2.96284L7.0319 4.44083L7.77089 4.31279L7.51482 2.83481ZM4.3166 7.76628L4.43418 7.02555L2.95272 6.79039L2.83514 7.53112L4.3166 7.76628ZM4.08659 4.81445L3.60575 5.39003L4.75691 6.35171L5.23775 5.77613L4.08659 4.81445ZM5.77553 5.23805L6.3509 4.75696L5.38872 3.60622L4.81335 4.08731L5.77553 5.23805ZM9 2.75C8.56231 2.75 8.04082 2.74368 7.51482 2.83481L7.77089 4.31279C8.14453 4.24806 8.52716 4.25 9 4.25V2.75ZM4.25 9C4.25 8.54086 4.25609 8.14743 4.3166 7.76628L2.83514 7.53112C2.75395 8.04263 2.75 8.54436 2.75 9H4.25ZM5.23775 5.77613C5.40068 5.5811 5.5807 5.40096 5.77553 5.23805L4.81335 4.08731C4.5499 4.30759 4.30666 4.55102 4.08659 4.81445L5.23775 5.77613ZM11.25 3.5C11.25 3.91421 10.9142 4.25 10.5 4.25V5.75C11.7426 5.75 12.75 4.74264 12.75 3.5H11.25ZM10.5 4.25C10.0858 4.25 9.75 3.91421 9.75 3.5H8.25C8.25 4.74264 9.25736 5.75 10.5 5.75V4.25ZM9.75 3.5C9.75 3.08579 10.0858 2.75 10.5 2.75V1.25C9.25736 1.25 8.25 2.25736 8.25 3.5H9.75ZM10.5 2.75C10.9142 2.75 11.25 3.08579 11.25 3.5H12.75C12.75 2.25736 11.7426 1.25 10.5 1.25V2.75ZM4.25 10.5C4.25 10.9142 3.91421 11.25 3.5 11.25V12.75C4.74264 12.75 5.75 11.7426 5.75 10.5H4.25ZM3.5 11.25C3.08579 11.25 2.75 10.9142 2.75 10.5H1.25C1.25 11.7426 2.25736 12.75 3.5 12.75V11.25ZM2.75 10.5C2.75 10.0858 3.08579 9.75 3.5 9.75V8.25C2.25736 8.25 1.25 9.25736 1.25 10.5H2.75ZM3.5 9.75C3.91421 9.75 4.25 10.0858 4.25 10.5H5.75C5.75 9.25736 4.74264 8.25 3.5 8.25V9.75Z" fill="#141B34"/>
</svg>
