<svg width="24" height="24" viewBox="0 0 24 24" fill="none" xmlns="http://www.w3.org/2000/svg">
<path d="M2.3273 21.6748L2.85763 21.1444L2.85763 21.1444L2.3273 21.6748ZM3.89823 21.6748L3.3679 21.1444L3.3679 21.1444L3.89823 21.6748ZM2.3273 20.1038L2.85763 20.6342L2.85763 20.6342L2.3273 20.1038ZM9.00266 20V20.75H9.31332L9.53299 20.5303L9.00266 20ZM4.00266 15L3.47233 14.4697L3.25266 14.6893V15H4.00266ZM5.573 20L5.573 19.25H5.26234L5.04267 19.4697L5.573 20ZM4.00266 18.4285L4.53299 18.9588L4.75266 18.7391V18.4285H4.00266ZM1.79697 22.2051C2.52366 22.9318 3.70187 22.9318 4.42856 22.2051L3.3679 21.1444C3.22699 21.2853 2.99854 21.2853 2.85763 21.1444L1.79697 22.2051ZM1.79697 19.5735C1.07028 20.3002 1.07028 21.4784 1.79697 22.2051L2.85763 21.1444C2.71673 21.0035 2.71673 20.7751 2.85763 20.6342L1.79697 19.5735ZM14.9614 13.7535L13.3904 12.1826L12.3298 13.2432L13.9007 14.8141L14.9614 13.7535ZM11.855 16.8599L10.2841 15.2889L9.2234 16.3496L10.7943 17.9205L11.855 16.8599ZM16.4723 11.4697L8.47233 19.4697L9.53299 20.5303L17.533 12.5303L16.4723 11.4697ZM11.4723 6.46967L3.47233 14.4697L4.53299 15.5303L12.533 7.53033L11.4723 6.46967ZM5.573 20.75L9.00266 20.75V19.25L5.573 19.25L5.573 20.75ZM4.42856 22.2051L6.10333 20.5303L5.04267 19.4697L3.3679 21.1444L4.42856 22.2051ZM3.25266 15L3.25266 18.4285H4.75266L4.75266 15H3.25266ZM3.47233 17.8982L1.79697 19.5735L2.85763 20.6342L4.53299 18.9588L3.47233 17.8982Z" fill="#141B34"/>
<path d="M13.7575 5.69771L16.514 2.94104C17.7687 1.68632 19.803 1.68632 21.0577 2.94104C22.3124 4.19576 22.3124 6.23007 21.0577 7.48479L18.3012 10.2415M13.7575 5.69771L18.3012 10.2415M13.7575 5.69771L11.999 3.93917M18.3012 10.2415L20.0598 12" stroke="#141B34" stroke-width="1.5"/>
</svg>
