<svg width="24" height="24" viewBox="0 0 24 24" fill="none" xmlns="http://www.w3.org/2000/svg">
<path d="M12 6.5L17.5 9.5L12 12.5L6.5 9.5L12 6.5Z" stroke="#141B34" stroke-width="1.5" stroke-linecap="round" stroke-linejoin="round"/>
<path d="M6.75 15C6.75 14.5858 6.41421 14.25 6 14.25C5.58579 14.25 5.25 14.5858 5.25 15H6.75ZM6 18H5.25V18.4635L5.66459 18.6708L6 18ZM12 21L11.6646 21.6708C11.8757 21.7764 12.1243 21.7764 12.3354 21.6708L12 21ZM18 18L18.3354 18.6708L18.75 18.4635V18H18ZM18.75 15C18.75 14.5858 18.4142 14.25 18 14.25C17.5858 14.25 17.25 14.5858 17.25 15H18.75ZM5.25 15V18H6.75V15H5.25ZM5.66459 18.6708L11.6646 21.6708L12.3354 20.3292L6.33541 17.3292L5.66459 18.6708ZM12.3354 21.6708L18.3354 18.6708L17.6646 17.3292L11.6646 20.3292L12.3354 21.6708ZM18.75 18V15H17.25V18H18.75Z" fill="#141B34"/>
<path d="M16.0764 3L12 6.27096L7.92363 3L3 6.2953L6.43452 9.40899L3 12.5227L7.93705 16L12 12.547L16.0764 15.818L21 12.5227L17.5655 9.40899L21 6.2953L16.0764 3Z" stroke="#141B34" stroke-width="1.5" stroke-linecap="round" stroke-linejoin="round"/>
</svg>
