<svg width="24" height="24" viewBox="0 0 24 24" fill="none" xmlns="http://www.w3.org/2000/svg">
<path d="M16 7.5L16.5303 6.96967C16.2374 6.67678 15.7626 6.67678 15.4697 6.96967L16 7.5ZM13 21.5V22.25H13.3107L13.5303 22.0303L13 21.5ZM21.5 13L22.0303 13.5303C22.3232 13.2374 22.3232 12.7626 22.0303 12.4697L21.5 13ZM6 17.5L5.46967 16.9697C5.17678 17.2626 5.17678 17.7374 5.46967 18.0303L6 17.5ZM10 21.5L9.46967 22.0303L9.68934 22.25H10V21.5ZM11.4697 12.5303L16.4697 17.5303L17.5303 16.4697L12.5303 11.4697L11.4697 12.5303ZM13.5303 22.0303L22.0303 13.5303L20.9697 12.4697L12.4697 20.9697L13.5303 22.0303ZM22.0303 12.4697L16.5303 6.96967L15.4697 8.03033L20.9697 13.5303L22.0303 12.4697ZM15.4697 6.96967L5.46967 16.9697L6.53033 18.0303L16.5303 8.03033L15.4697 6.96967ZM5.46967 18.0303L9.46967 22.0303L10.5303 20.9697L6.53033 16.9697L5.46967 18.0303ZM13 20.75H10V22.25H13V20.75Z" fill="#141B34"/>
<path d="M9.5 9.5L6.5 2.5H5.5L2.5 9.5M4 7H8" stroke="#141B34" stroke-width="1.5"/>
</svg>
