<svg width="24" height="24" viewBox="0 0 24 24" fill="none" xmlns="http://www.w3.org/2000/svg">
<path d="M9.18311 5.04694L9.80154 5.47126C9.80501 5.4662 9.80842 5.46109 9.81177 5.45595L9.18311 5.04694ZM7.5 7.5L6.88157 7.07568C6.79587 7.20059 6.75 7.34852 6.75 7.5H7.5ZM7.5 10.25H6.75V11.75H7.5V10.25ZM7.51198 11.75H8.26198V10.25H7.51198V11.75ZM8.75 3.97802C8.75 4.22179 8.67847 4.44731 8.55446 4.63792L9.81177 5.45595C10.0888 5.03009 10.25 4.52181 10.25 3.97802H8.75ZM6.25 3.97802C6.25 3.3076 6.80181 2.75 7.5 2.75V1.25C5.98905 1.25 4.75 2.46359 4.75 3.97802H6.25ZM7.5 2.75C8.19819 2.75 8.75 3.3076 8.75 3.97802H10.25C10.25 2.46359 9.01095 1.25 7.5 1.25V2.75ZM6.75 7.5V9H8.25V7.5H6.75ZM8.56468 4.62262L6.88157 7.07568L8.11843 7.92432L9.80154 5.47126L8.56468 4.62262ZM7.5 11.75H7.51198V10.25H7.5V11.75Z" fill="#141B34"/>
<path d="M20.5 2H21.25C21.25 1.58579 20.9142 1.25 20.5 1.25V2ZM3.5 22H2.75C2.75 22.4142 3.08579 22.75 3.5 22.75V22ZM13.5 22V22.75H13.8107L14.0303 22.5303L13.5 22ZM20.5 15L21.0303 15.5303L21.25 15.3107V15H20.5ZM13.5 15V14.25H12.75V15H13.5ZM12 2.75H20.5V1.25H12V2.75ZM3.5 22.75H13.5V21.25H3.5V22.75ZM21.25 15V2H19.75V15H21.25ZM14.0303 22.5303L21.0303 15.5303L19.9697 14.4697L12.9697 21.4697L14.0303 22.5303ZM14.25 22V15H12.75V22H14.25ZM13.5 15.75H20.5V14.25H13.5V15.75ZM4.25 22V12H2.75V22H4.25Z" fill="#141B34"/>
</svg>
