<svg width="24" height="24" viewBox="0 0 24 24" fill="none" xmlns="http://www.w3.org/2000/svg">
<path d="M2 2L22 22" stroke="#141B34" stroke-width="1.5"/>
<path d="M20.5005 2H21.2505C21.2505 1.58579 20.9147 1.25 20.5005 1.25V2ZM3.50049 22H2.75049C2.75049 22.4142 3.08627 22.75 3.50049 22.75V22ZM13.5005 22V22.75H13.8111L14.0308 22.5303L13.5005 22ZM20.5005 15L21.0308 15.5303L21.2505 15.3107V15H20.5005ZM13.5005 15V14.25H12.7505V15H13.5005ZM3.50049 22.75H13.5005V21.25H3.50049V22.75ZM21.2505 15V2H19.7505V15H21.2505ZM14.2505 22V15H12.7505V22H14.2505ZM5.18247 2.75H20.5005V1.25H5.18247V2.75ZM19.8718 16.6893L21.0308 15.5303L19.9702 14.4697L18.8111 15.6287L19.8718 16.6893ZM14.0308 22.5303L18.2812 18.28L17.2205 17.2193L12.9702 21.4697L14.0308 22.5303ZM13.5005 15.75H15.0012V14.25H13.5005V15.75ZM4.25049 22V3.49927H2.75049V22H4.25049Z" fill="#141B34"/>
</svg>
