<svg width="24" height="24" viewBox="0 0 24 24" fill="none" xmlns="http://www.w3.org/2000/svg">
<path d="M16.5 13.5L17.1173 13.074C16.9773 12.8711 16.7465 12.75 16.5 12.75C16.2535 12.75 16.0227 12.8711 15.8827 13.074L16.5 13.5ZM18.1687 15.9179L17.5514 16.3439L17.7026 16.5629L17.958 16.6377L18.1687 15.9179ZM21 16.7467L21.5929 17.2061C21.7448 17.01 21.7899 16.7515 21.7135 16.5155C21.637 16.2795 21.4488 16.0966 21.2107 16.0269L21 16.7467ZM19.2 19.0699L18.6071 18.6105L18.4429 18.8225L18.4503 19.0906L19.2 19.0699ZM19.2812 22L19.0314 22.7072C19.2644 22.7895 19.523 22.7517 19.7227 22.6062C19.9224 22.4608 20.0377 22.2262 20.0309 21.9792L19.2812 22ZM16.5 21.0179L16.7497 20.3107L16.5 20.2225L16.2503 20.3107L16.5 21.0179ZM13.7188 22L12.9691 21.9792C12.9623 22.2262 13.0776 22.4608 13.2773 22.6062C13.477 22.7517 13.7356 22.7895 13.9686 22.7072L13.7188 22ZM13.8 19.0699L14.5497 19.0906L14.5571 18.8225L14.3929 18.6105L13.8 19.0699ZM12 16.7467L11.7893 16.0269C11.5512 16.0966 11.363 16.2795 11.2865 16.5155C11.2101 16.7515 11.2552 17.01 11.4071 17.2061L12 16.7467ZM14.8313 15.9179L15.042 16.6377L15.2974 16.5629L15.4486 16.3439L14.8313 15.9179ZM15.8827 13.926L17.5514 16.3439L18.786 15.4919L17.1173 13.074L15.8827 13.926ZM17.958 16.6377L20.7893 17.4665L21.2107 16.0269L18.3794 15.1981L17.958 16.6377ZM20.4071 16.2874L18.6071 18.6105L19.7929 19.5292L21.5929 17.2061L20.4071 16.2874ZM18.4503 19.0906L18.5314 22.0208L20.0309 21.9792L19.9497 19.0491L18.4503 19.0906ZM19.5309 21.2928L16.7497 20.3107L16.2503 21.7251L19.0314 22.7072L19.5309 21.2928ZM16.2503 20.3107L13.4691 21.2928L13.9686 22.7072L16.7497 21.7251L16.2503 20.3107ZM14.4686 22.0208L14.5497 19.0906L13.0503 19.0491L12.9691 21.9792L14.4686 22.0208ZM14.3929 18.6105L12.5929 16.2874L11.4071 17.2061L13.2071 19.5292L14.3929 18.6105ZM12.2107 17.4665L15.042 16.6377L14.6206 15.1981L11.7893 16.0269L12.2107 17.4665ZM15.4486 16.3439L17.1173 13.926L15.8827 13.074L14.214 15.4919L15.4486 16.3439Z" fill="#141B34"/>
<path d="M3 22H2.25C2.25 22.4142 2.58579 22.75 3 22.75V22ZM20 2H20.75C20.75 1.58579 20.4142 1.25 20 1.25V2ZM10 2V1.25H9.68934L9.46967 1.46967L10 2ZM3 9L2.46967 8.46967L2.25 8.68934V9H3ZM10 9V9.75H10.75V9H10ZM10 21.25H3V22.75H10V21.25ZM20 1.25H10V2.75H20V1.25ZM2.25 9V22H3.75V9H2.25ZM9.46967 1.46967L2.46967 8.46967L3.53033 9.53033L10.5303 2.53033L9.46967 1.46967ZM9.25 2V9H10.75V2H9.25ZM10 8.25H3V9.75H10V8.25ZM19.25 2V11H20.75V2H19.25Z" fill="#141B34"/>
</svg>
