<svg width="24" height="24" viewBox="0 0 24 24" fill="none" xmlns="http://www.w3.org/2000/svg">
<path d="M22 19V19.75C22.4142 19.75 22.75 19.4142 22.75 19H22ZM2 19H1.25C1.25 19.4142 1.58579 19.75 2 19.75V19ZM22 6H22.75C22.75 5.58579 22.4142 5.25 22 5.25V6ZM9 2.00001L9.6 1.55001L9.375 1.25001L9 1.25001L9 2.00001ZM2 2L2 1.25C1.80109 1.25 1.61032 1.32902 1.46967 1.46967C1.32902 1.61032 1.25 1.80109 1.25 2H2ZM22 18.25H2V19.75H22V18.25ZM7 6.75H22V5.25H7V6.75ZM8.4 2.45001L11.4 6.45L12.6 5.55L9.6 1.55001L8.4 2.45001ZM2.75 19V2H1.25V19H2.75ZM9 1.25001L2 1.25L2 2.75L9 2.75001L9 1.25001ZM21.25 6V19H22.75V6H21.25Z" fill="#141B34"/>
<path d="M12 19V22M21 22H3" stroke="#141B34" stroke-width="1.5"/>
</svg>
