<svg width="24" height="24" viewBox="0 0 24 24" fill="none" xmlns="http://www.w3.org/2000/svg">
<path d="M5 2V1.25C4.58579 1.25 4.25 1.58579 4.25 2H5ZM19.0003 2L19.7328 2.16105C19.7816 1.93916 19.7272 1.70711 19.5848 1.53005C19.4424 1.35299 19.2275 1.25 19.0003 1.25V2ZM16.0003 15.645V16.395H16.6033L16.7328 15.806L16.0003 15.645ZM11.0003 15.645V14.895H10.677L10.455 15.1301L11.0003 15.645ZM5 22H4.25C4.25 22.3073 4.43742 22.5835 4.72296 22.697C5.0085 22.8105 5.33438 22.7383 5.54533 22.5149L5 22ZM5 2.75H19.0003V1.25H5V2.75ZM18.2678 1.83895L15.2678 15.4839L16.7328 15.806L19.7328 2.16105L18.2678 1.83895ZM16.0003 14.895H11.0003V16.395H16.0003V14.895ZM10.455 15.1301L4.45467 21.4851L5.54533 22.5149L11.5456 16.1599L10.455 15.1301ZM5.75 22V2H4.25V22H5.75Z" fill="#141B34"/>
<path d="M17 9L12 9" stroke="#141B34" stroke-width="1.5" stroke-linejoin="round"/>
</svg>
