<svg width="24" height="24" viewBox="0 0 24 24" fill="none" xmlns="http://www.w3.org/2000/svg">
<path d="M19 21V21.75C19.3644 21.75 19.6761 21.488 19.7388 21.1291L19 21ZM20.8384 10.4762L21.5772 10.6053L21.5784 10.5979L20.8384 10.4762ZM8.25569 14L7.65279 14.4461L9.00569 16.2745V14H8.25569ZM6.72926 11.9371L7.33216 11.491V11.491L6.72926 11.9371ZM3.41438 14.4571L2.81148 14.9032H2.81148L3.41438 14.4571ZM5.88792 17.8L5.28502 18.2461L5.28583 18.2472L5.88792 17.8ZM3.60684 11.7121L4.14074 12.2389H4.14074L3.60684 11.7121ZM13.8493 3.00909L13.8912 3.75793L13.8493 3.00909ZM8.26466 8.66978L9.01356 8.71051L9.01356 8.7105L8.26466 8.66978ZM20.9673 9.62464L21.7133 9.70168L20.9673 9.62464ZM15.44 3.01111L15.3938 3.75968L15.44 3.01111ZM8.26466 21L7.66257 21.4472C7.80406 21.6377 8.02736 21.75 8.26466 21.75V21ZM19.7388 21.1291L21.5772 10.6053L20.0996 10.3472L18.2612 20.8709L19.7388 21.1291ZM7.50569 9.42066V14H9.00569V9.42066H7.50569ZM8.85859 13.5539L7.33216 11.491L6.12636 12.3832L7.65279 14.4461L8.85859 13.5539ZM2.81148 14.9032L5.28502 18.2461L6.49082 17.3539L4.01728 14.011L2.81148 14.9032ZM3.07294 11.1854C2.08365 12.1881 1.97373 13.771 2.81148 14.9032L4.01728 14.011C3.6178 13.4711 3.67192 12.7141 4.14074 12.2389L3.07294 11.1854ZM14.5901 2.25C14.2149 2.25 13.9964 2.24971 13.8075 2.26026L13.8912 3.75793C14.0278 3.75029 14.1946 3.75 14.5901 3.75V2.25ZM9.00569 9.42066C9.00569 9.0202 9.00597 8.85001 9.01356 8.71051L7.51577 8.62905C7.50541 8.81952 7.50569 9.03992 7.50569 9.42066H9.00569ZM13.8075 2.26026C10.4049 2.45037 7.70216 5.20153 7.51577 8.62906L9.01356 8.7105C9.15931 6.03029 11.2681 3.90448 13.8912 3.75793L13.8075 2.26026ZM21.5784 10.5979C21.65 10.1627 21.6917 9.9115 21.7133 9.70168L20.2213 9.54759C20.2054 9.70102 20.1736 9.89647 20.0983 10.3545L21.5784 10.5979ZM14.5901 3.75C15.0487 3.75 15.243 3.75037 15.3938 3.75968L15.4863 2.26253C15.2774 2.24963 15.025 2.25 14.5901 2.25V3.75ZM21.7133 9.70168C22.1069 5.8902 19.2856 2.49717 15.4863 2.26253L15.3938 3.75968C18.3222 3.94053 20.5294 6.56427 20.2213 9.54759L21.7133 9.70168ZM7.33216 11.491C6.30284 10.0998 4.289 9.95278 3.07293 11.1854L4.14074 12.2389C4.70771 11.6642 5.64273 11.7295 6.12636 12.3832L7.33216 11.491ZM5.28583 18.2472L7.66257 21.4472L8.86676 20.5528L6.49001 17.3528L5.28583 18.2472ZM19 20.25H8.26466V21.75H19V20.25Z" fill="#141B34"/>
<path d="M19.5 17H12" stroke="#141B34" stroke-width="1.5" stroke-linejoin="round"/>
</svg>
