<svg width="24" height="24" viewBox="0 0 24 24" fill="none" xmlns="http://www.w3.org/2000/svg">
<path d="M12 5L10 2.20004C10.6462 2.06886 11.3151 2 12 2C17.5228 2 22 6.47715 22 12C22 17.5228 17.5228 22 12 22C6.47715 22 2 17.5228 2 12C2 8.72836 3.57111 5.82368 6 3.99927" stroke="#141B34" stroke-width="1.5" stroke-linejoin="round"/>
<path d="M7 10V9.35H6.35V10L7 10ZM13.5 16H12.85C12.85 16.359 13.141 16.65 13.5 16.65V16ZM17 16V16.65C17.359 16.65 17.65 16.359 17.65 16H17ZM17 10H17.65C17.65 9.82761 17.5815 9.66228 17.4596 9.54038C17.3377 9.41848 17.1724 9.35 17 9.35V10ZM13.5 10V9.35C13.141 9.35 12.85 9.64102 12.85 10H13.5ZM10.5 10H11.15C11.15 9.64101 10.859 9.35 10.5 9.35V10ZM9.85 11C9.85 11.359 10.141 11.65 10.5 11.65C10.859 11.65 11.15 11.359 11.15 11H9.85ZM7 16H6.35V16.65H7V16ZM10.5 16V16.65C10.859 16.65 11.15 16.359 11.15 16H10.5ZM10.5 13H11.15C11.15 12.641 10.859 12.35 10.5 12.35V13ZM16.35 10V16H17.65V10H16.35ZM14.15 16V10H12.85V16H14.15ZM17 15.35H13.5V16.65H17V15.35ZM13.5 10.65L17 10.65V9.35L13.5 9.35V10.65ZM7 10.65H10.5V9.35H7V10.65ZM9.85 10V11H11.15V10H9.85ZM7 16.65H10.5V15.35H7V16.65ZM11.15 16V13H9.85V16H11.15ZM6.35 10V13H7.65V10L6.35 10ZM6.35 13V16H7.65V13H6.35ZM10.5 12.35H7V13.65H10.5V12.35Z" fill="#141B34"/>
</svg>
