<svg width="24" height="24" viewBox="0 0 24 24" fill="none" xmlns="http://www.w3.org/2000/svg">
<path d="M12 5L10 2.20004C10.6462 2.06886 11.3151 2 12 2C17.5228 2 22 6.47715 22 12C22 17.5228 17.5228 22 12 22C6.47715 22 2 17.5228 2 12C2 8.72836 3.57111 5.82368 6 3.99927" stroke="#141B34" stroke-width="1.5" stroke-linejoin="round"/>
<path d="M13.0005 16H12.3505C12.3505 16.359 12.6415 16.65 13.0005 16.65V16ZM16.5005 16V16.65C16.8595 16.65 17.1505 16.359 17.1505 16H16.5005ZM16.5005 10H17.1505C17.1505 9.82761 17.082 9.66228 16.9601 9.54038C16.8382 9.41848 16.6729 9.35 16.5005 9.35V10ZM13.0005 10V9.35C12.6415 9.35 12.3505 9.64102 12.3505 10H13.0005ZM7.50049 10V9.35C7.1415 9.35 6.85049 9.64101 6.85049 10H7.50049ZM10.5005 10H11.1505V9.35H10.5005V10ZM10.5005 16V16.65H11.1505V16H10.5005ZM7.50049 16H6.85049C6.85049 16.359 7.1415 16.65 7.50049 16.65V16ZM15.8505 10V16H17.1505V10H15.8505ZM13.6505 16V10H12.3505V16H13.6505ZM8.15049 11.1179V10H6.85049V11.1179H8.15049ZM7.50049 10.65H10.5005V9.35H7.50049V10.65ZM10.5005 15.35H7.50049V16.65H10.5005V15.35ZM8.15049 16V14.8821H6.85049V16H8.15049ZM9.85049 10V13H11.1505V10H9.85049ZM9.85049 13V16H11.1505V13H9.85049ZM10.5005 12.35H8.00049V13.65H10.5005V12.35ZM16.5005 9.35L13.0005 9.35V10.65L16.5005 10.65V9.35ZM13.0005 16.65H16.5005V15.35H13.0005V16.65Z" fill="#141B34"/>
</svg>
