<svg width="24" height="24" viewBox="0 0 24 24" fill="none" xmlns="http://www.w3.org/2000/svg">
<path d="M12.5207 14.5V13.75V14.5ZM13.0002 17.5V16.75V17.5ZM10.5002 8.5L9.96352 7.97606L8.71971 9.25004L10.5002 9.25L10.5002 8.5ZM20.5002 8.49979V7.74979H20.5002L20.5002 8.49979ZM20.5002 11.4998V12.2498V11.4998ZM10.3333 20.4996V21.2496V20.4996ZM6.20816 20.1685L6.4762 19.4681H6.4762L6.20816 20.1685ZM4.00017 18.4996L4.49103 17.9325L4.27969 17.7496H4.00017V18.4996ZM4.00017 8.5V9.25H4.24965L4.44942 9.10055L4.00017 8.5ZM12.5814 6.3683L13.118 6.89224L13.1349 6.87498L13.1506 6.85668L12.5814 6.3683ZM10.164 3.88901L10.6133 4.48956L10.6251 4.48068L10.6367 4.47133L10.164 3.88901ZM12.3473 3.88075L12.8156 3.29486L12.8156 3.29486L12.3473 3.88075ZM15.5207 11.4998V10.7498V11.4998ZM14.5002 16H15.2502H14.5002ZM13.0002 17.8327H13.7502H13.0002ZM12.3606 20.2282L11.9304 19.6139L11.9304 19.6139L12.3606 20.2282ZM12.7288 19.8601L13.3431 20.2903L13.3431 20.2903L12.7288 19.8601ZM15.0814 14.0607L15.6117 14.591V14.591L15.0814 14.0607ZM12.5207 13.75H11.5002V15.25H12.5207V13.75ZM13.0002 16.75H11.0002V18.25H13.0002V16.75ZM10.5002 9.25L20.5002 9.24979L20.5002 7.74979L10.5002 7.75L10.5002 9.25ZM21.2502 9.99979C21.2502 10.414 20.9144 10.7498 20.5002 10.7498V12.2498C21.7428 12.2498 22.7502 11.2424 22.7502 9.99979H21.2502ZM20.5002 9.24979C20.9144 9.24979 21.2502 9.58558 21.2502 9.99979H22.7502C22.7502 8.75715 21.7428 7.74979 20.5002 7.74979V9.24979ZM10.3333 19.7496C9.23714 19.7496 8.44992 19.7492 7.82772 19.7097C7.21162 19.6706 6.80843 19.5952 6.4762 19.4681L5.94012 20.869C6.47303 21.0729 7.04576 21.1631 7.73263 21.2067C8.4134 21.2499 9.2562 21.2496 10.3333 21.2496V19.7496ZM6.4762 19.4681C6.48123 19.47 6.44803 19.4562 6.3647 19.4044C6.2893 19.3576 6.19626 19.2946 6.08878 19.2174C5.87412 19.0634 5.62575 18.8703 5.38581 18.6774C5.14714 18.4856 4.92294 18.299 4.75802 18.1599C4.6757 18.0905 4.60851 18.0333 4.56208 17.9936C4.53887 17.9737 4.52087 17.9582 4.50879 17.9478C4.50275 17.9426 4.49819 17.9387 4.4952 17.9361C4.49371 17.9348 4.4926 17.9339 4.49191 17.9333C4.49156 17.933 4.49131 17.9328 4.49116 17.9326C4.49109 17.9326 4.49104 17.9325 4.49102 17.9325C4.49101 17.9325 4.49101 17.9325 4.49101 17.9325C4.49102 17.9325 4.49103 17.9325 4.00017 18.4996C3.5093 19.0666 3.50933 19.0667 3.50936 19.0667C3.50939 19.0667 3.50943 19.0667 3.50947 19.0668C3.50955 19.0669 3.50966 19.0669 3.50979 19.0671C3.51006 19.0673 3.51043 19.0676 3.5109 19.068C3.51185 19.0688 3.5132 19.07 3.51495 19.0715C3.51845 19.0745 3.52353 19.0789 3.53011 19.0846C3.54326 19.0959 3.56241 19.1124 3.58684 19.1333C3.63567 19.1751 3.70569 19.2347 3.79117 19.3068C3.96183 19.4506 4.19553 19.6452 4.44612 19.8466C4.69545 20.047 4.96772 20.2592 5.2141 20.436C5.43466 20.5943 5.71047 20.7811 5.94012 20.869L6.4762 19.4681ZM4.00017 17.7496H2V19.2496H4.00017V17.7496ZM4.00017 7.75H2.00017V9.25H4.00017V7.75ZM11.0368 9.02394L13.118 6.89224L12.0447 5.84436L9.96352 7.97606L11.0368 9.02394ZM9.71474 3.28845L3.55091 7.89944L4.44942 9.10055L10.6133 4.48956L9.71474 3.28845ZM12.8156 3.29486C11.901 2.56397 10.6003 2.56889 9.69135 3.30669L10.6367 4.47133C10.9981 4.178 11.5155 4.17603 11.8791 4.46663L12.8156 3.29486ZM13.1506 6.85668C14.0673 5.78832 13.9152 4.17365 12.8156 3.29486L11.8791 4.46663C12.3158 4.8156 12.3759 5.45606 12.0122 5.87992L13.1506 6.85668ZM20.5002 10.7498L15.5207 10.7498V12.2498L20.5002 12.2498V10.7498ZM15.5207 10.7498H12.0002V12.2498H15.5207V10.7498ZM13.7502 14.5V16H15.2502V14.5H13.7502ZM13.7502 17.8327V17.5H12.2502V17.8327H13.7502ZM13.7502 16C13.7502 16.4142 13.4144 16.75 13.0002 16.75V18.25C14.2428 18.25 15.2502 17.2426 15.2502 16H13.7502ZM10.3333 21.2496C10.8637 21.2496 11.3201 21.2506 11.6903 21.2115C12.0738 21.1711 12.4503 21.0811 12.7909 20.8426L11.9304 19.6139C11.8835 19.6467 11.793 19.6924 11.533 19.7198C11.2597 19.7486 10.8962 19.7496 10.3333 19.7496V21.2496ZM12.2502 17.8327C12.2502 18.3956 12.2492 18.7591 12.2204 19.0324C12.193 19.2924 12.1473 19.383 12.1145 19.4298L13.3431 20.2903C13.5817 19.9497 13.6717 19.5732 13.7121 19.1897C13.7511 18.8195 13.7502 18.3631 13.7502 17.8327H12.2502ZM12.7909 20.8426C13.0058 20.6921 13.1927 20.5052 13.3431 20.2903L12.1145 19.4298C12.0643 19.5014 12.002 19.5637 11.9304 19.6139L12.7909 20.8426ZM12.5207 15.25C13.2066 15.25 13.7965 15.2516 14.2666 15.1884C14.7582 15.1223 15.2295 14.9732 15.6117 14.591L14.5511 13.5303C14.494 13.5874 14.392 13.658 14.0667 13.7018C13.7198 13.7484 13.249 13.75 12.5207 13.75V15.25ZM14.7707 11.4998C14.7707 12.2282 14.7691 12.699 14.7225 13.0459C14.6788 13.3713 14.6081 13.4732 14.5511 13.5303L15.6117 14.591C15.994 14.2087 16.143 13.7374 16.2091 13.2458C16.2723 12.7757 16.2707 12.1858 16.2707 11.4998H14.7707Z" fill="#141B34"/>
</svg>
