<svg width="24" height="24" viewBox="0 0 24 24" fill="none" xmlns="http://www.w3.org/2000/svg">
<path d="M8 19.5C8 17.567 6.433 16 4.5 16C3.52066 16 2.63526 16.4022 2 17.0505L6.94949 22C7.59777 21.3647 8 20.4793 8 19.5Z" stroke="#141B34" stroke-width="1.5" stroke-linecap="round" stroke-linejoin="round"/>
<path d="M7 17L11 13" stroke="#141B34" stroke-width="1.5" stroke-linecap="round" stroke-linejoin="round"/>
<path d="M21.3046 6.55032L20.8831 5.92993L20.8831 5.92993L21.3046 6.55032ZM18.6771 9.54331L19.3509 9.8727L18.6771 9.54331ZM13.6875 13.6954L13.381 13.0109H13.381L13.6875 13.6954ZM17.4497 2.69545L16.8293 2.274V2.274L17.4497 2.69545ZM14.4567 5.32287L14.7861 5.99667L14.4567 5.32287ZM10.3046 10.3125L10.9891 10.619L10.9891 10.619L10.3046 10.3125ZM18.1051 2L18.6354 1.46967C18.3745 1.20874 17.9625 1.17638 17.664 1.39338L18.1051 2ZM12.533 14L12.0026 14.5303C12.1615 14.6892 12.3832 14.7685 12.6068 14.7464L12.533 14ZM10 11.467L9.25365 11.3932C9.23152 11.6168 9.3108 11.8385 9.46967 11.9974L10 11.467ZM22 5.89492L22.6066 6.33597C22.8236 6.0375 22.7913 5.62553 22.5303 5.36459L22 5.89492ZM20.8831 5.92993C20.0439 6.50004 18.8167 7.55016 18.0033 9.21393L19.3509 9.8727C20.0128 8.51868 21.0211 7.64955 21.726 7.17071L20.8831 5.92993ZM18.0033 9.21393C17.5942 10.0509 16.8726 10.8125 16.011 11.4701C15.1546 12.1238 14.1998 12.6442 13.381 13.0109L13.9941 14.3799C14.8898 13.9788 15.9508 13.403 16.9211 12.6625C17.8862 11.9258 18.8022 10.9953 19.3509 9.8727L18.0033 9.21393ZM16.8293 2.274C16.3505 2.97887 15.4813 3.98716 14.1273 4.64907L14.7861 5.99667C16.4498 5.18333 17.5 3.95612 18.0701 3.1169L16.8293 2.274ZM14.1273 4.64907C13.0047 5.19784 12.0742 6.1138 11.3375 7.07892C10.597 8.04917 10.0212 9.11024 9.62011 10.0059L10.9891 10.619C11.3558 9.80018 11.8762 8.84543 12.5299 7.98899C13.1875 7.12742 13.9491 6.40583 14.7861 5.99667L14.1273 4.64907ZM18.0701 3.1169C18.178 2.95796 18.3022 2.82529 18.4019 2.73132C18.4509 2.68519 18.4916 2.65056 18.5181 2.62893C18.5313 2.61817 18.5408 2.61079 18.5458 2.60698C18.5482 2.60508 18.5496 2.60408 18.5497 2.60401C18.5497 2.60397 18.5495 2.60417 18.5489 2.6046C18.5486 2.60482 18.5482 2.60509 18.5477 2.60543C18.5475 2.6056 18.5473 2.60578 18.547 2.60598C18.5469 2.60608 18.5467 2.60618 18.5466 2.60629C18.5465 2.60634 18.5464 2.60642 18.5463 2.60645C18.5462 2.60653 18.5461 2.60662 18.1051 2C17.664 1.39338 17.6639 1.39347 17.6638 1.39356C17.6638 1.39359 17.6636 1.39368 17.6635 1.39374C17.6634 1.39386 17.6632 1.39399 17.663 1.39412C17.6627 1.39438 17.6623 1.39466 17.6619 1.39495C17.6611 1.39555 17.6602 1.39621 17.6592 1.39693C17.6572 1.39839 17.6549 1.40011 17.6522 1.40211C17.6469 1.4061 17.6402 1.41117 17.6322 1.4173C17.6162 1.42955 17.5951 1.44608 17.5698 1.46672C17.5194 1.5079 17.4514 1.56602 17.3732 1.63967C17.2187 1.78527 17.0152 2.00032 16.8293 2.274L18.0701 3.1169ZM13.381 13.0109C13.1759 13.1027 12.9448 13.1653 12.7537 13.2049C12.6607 13.2241 12.5827 13.2368 12.5295 13.2445C12.5031 13.2483 12.4831 13.2508 12.4709 13.2523C12.4648 13.253 12.4606 13.2535 12.4586 13.2537C12.4576 13.2538 12.4571 13.2538 12.4572 13.2538C12.4572 13.2538 12.4574 13.2538 12.4577 13.2538C12.4579 13.2538 12.4581 13.2537 12.4583 13.2537C12.4584 13.2537 12.4586 13.2537 12.4587 13.2537C12.4588 13.2537 12.4589 13.2537 12.4589 13.2537C12.459 13.2537 12.4591 13.2536 12.533 14C12.6068 14.7464 12.6069 14.7463 12.6071 14.7463C12.6071 14.7463 12.6072 14.7463 12.6073 14.7463C12.6075 14.7463 12.6077 14.7463 12.6078 14.7463C12.6082 14.7462 12.6086 14.7462 12.6091 14.7461C12.61 14.746 12.6111 14.7459 12.6123 14.7458C12.6147 14.7456 12.6177 14.7452 12.6213 14.7448C12.6284 14.7441 12.6379 14.743 12.6495 14.7416C12.6727 14.7388 12.7046 14.7347 12.7437 14.7291C12.8218 14.7178 12.9302 14.7001 13.0576 14.6738C13.3074 14.6221 13.6535 14.5324 13.9941 14.3799L13.381 13.0109ZM9.62011 10.0059C9.46761 10.3465 9.37791 10.6926 9.32623 10.9424C9.29987 11.0698 9.28219 11.1782 9.27092 11.2563C9.26527 11.2954 9.26119 11.3273 9.2584 11.3505C9.25701 11.3621 9.25594 11.3716 9.25516 11.3787C9.25477 11.3823 9.25445 11.3853 9.2542 11.3877C9.25407 11.389 9.25396 11.39 9.25387 11.3909C9.25383 11.3914 9.25378 11.3918 9.25375 11.3922C9.25373 11.3923 9.25371 11.3925 9.25369 11.3927C9.25368 11.3928 9.25367 11.3929 9.25367 11.3929C9.25366 11.3931 9.25365 11.3932 10 11.467C10.7464 11.5409 10.7463 11.541 10.7463 11.5411C10.7463 11.5411 10.7463 11.5413 10.7463 11.5413C10.7463 11.5415 10.7463 11.5416 10.7463 11.5417C10.7463 11.5419 10.7462 11.5421 10.7462 11.5423C10.7462 11.5426 10.7462 11.5428 10.7462 11.5428C10.7462 11.5429 10.7462 11.5424 10.7463 11.5414C10.7465 11.5394 10.747 11.5352 10.7477 11.5291C10.7492 11.5169 10.7517 11.4969 10.7555 11.4705C10.7632 11.4173 10.7759 11.3393 10.7951 11.2463C10.8347 11.0552 10.8973 10.8241 10.9891 10.619L9.62011 10.0059ZM21.726 7.17071C21.9997 6.98479 22.2147 6.78129 22.3603 6.62678C22.434 6.54862 22.4921 6.48062 22.5333 6.43015C22.5539 6.40486 22.5704 6.38378 22.5827 6.36783C22.5888 6.35985 22.5939 6.35313 22.5979 6.34779C22.5999 6.34512 22.6016 6.34279 22.6031 6.34081C22.6038 6.33983 22.6045 6.33893 22.605 6.33812C22.6053 6.33771 22.6056 6.33733 22.6059 6.33697C22.606 6.33679 22.6061 6.33662 22.6063 6.33645C22.6063 6.33637 22.6064 6.33625 22.6064 6.33621C22.6065 6.33609 22.6066 6.33597 22 5.89492C21.3934 5.45388 21.3935 5.45377 21.3936 5.45365C21.3936 5.45361 21.3937 5.4535 21.3937 5.45343C21.3938 5.45328 21.3939 5.45314 21.394 5.45301C21.3942 5.45274 21.3944 5.45249 21.3946 5.45226C21.3949 5.4518 21.3952 5.45142 21.3954 5.45113C21.3958 5.45054 21.396 5.45027 21.396 5.45032C21.3959 5.45042 21.3949 5.45175 21.393 5.45423C21.3892 5.4592 21.3818 5.46866 21.3711 5.48185C21.3494 5.50835 21.3148 5.54909 21.2687 5.59805C21.1747 5.69776 21.042 5.82196 20.8831 5.92993L21.726 7.17071ZM9.46967 11.9974L12.0026 14.5303L13.0633 13.4697L10.5303 10.9367L9.46967 11.9974ZM17.5747 2.53033L21.4697 6.42525L22.5303 5.36459L18.6354 1.46967L17.5747 2.53033Z" fill="#141B34"/>
<path d="M14.4998 9.5L14.5088 9.5" stroke="#141B34" stroke-width="2" stroke-linecap="round" stroke-linejoin="round"/>
</svg>
