<svg width="24" height="24" viewBox="0 0 24 24" fill="none" xmlns="http://www.w3.org/2000/svg">
<path d="M12.0343 19.3211L11.5056 18.7891L12.0343 19.3211ZM6.3069 18.9985L5.98297 19.6749L5.98297 19.6749L6.3069 18.9985ZM3.99878 17.8919L4.32317 17.2157L4.16937 17.1419H3.99878V17.8919ZM9.99609 9L9.47901 8.45675L8.12032 9.75H9.99609V9ZM12.3248 6.78341L12.8419 7.32666L12.8653 7.30439L12.8867 7.2802L12.3248 6.78341ZM9.90747 4.3775L10.3602 4.97541L10.3659 4.9711L10.3715 4.96668L9.90747 4.3775ZM3.99878 8.85181V9.60181H4.2507L4.45154 9.44972L3.99878 8.85181ZM12.0908 4.36948L12.5504 3.77682L12.5504 3.77682L12.0908 4.36948ZM20.2461 9V9.75V9ZM20.2461 12.5V11.75V12.5ZM14.4961 12.5V11.75H13.712L13.7468 12.5333L14.4961 12.5ZM11.5056 18.7891C11.0868 19.2053 10.3392 19.3421 9.3251 19.1903C8.34752 19.0439 7.33028 18.657 6.63083 18.322L5.98297 19.6749C6.76019 20.0471 7.92624 20.4975 9.10299 20.6737C10.2432 20.8445 11.621 20.789 12.5629 19.8531L11.5056 18.7891ZM6.63083 18.322C6.23162 18.1309 5.65475 17.8543 5.17758 17.6255C4.93901 17.5111 4.72541 17.4086 4.57144 17.3348C4.49446 17.2978 4.43239 17.2681 4.38957 17.2475C4.36816 17.2372 4.35156 17.2293 4.34031 17.2239C4.33469 17.2212 4.3304 17.2191 4.32752 17.2178C4.32608 17.2171 4.325 17.2165 4.32427 17.2162C4.32391 17.216 4.32363 17.2159 4.32345 17.2158C4.32336 17.2158 4.32329 17.2157 4.32324 17.2157C4.32322 17.2157 4.3232 17.2157 4.32319 17.2157C4.32318 17.2157 4.32317 17.2157 3.99878 17.8919C3.67438 18.5681 3.67438 18.5681 3.6744 18.5681C3.67441 18.5681 3.67442 18.5681 3.67445 18.5681C3.67449 18.5681 3.67456 18.5682 3.67465 18.5682C3.67484 18.5683 3.67511 18.5684 3.67548 18.5686C3.67621 18.569 3.6773 18.5695 3.67874 18.5702C3.68162 18.5716 3.6859 18.5736 3.69153 18.5763C3.70278 18.5817 3.71939 18.5897 3.74081 18.6C3.78364 18.6205 3.84573 18.6503 3.92272 18.6872C4.07672 18.7611 4.29036 18.8636 4.52898 18.978C5.00616 19.2068 5.58335 19.4835 5.98297 19.6749L6.63083 18.322ZM10.5132 9.54325L12.8419 7.32666L11.8077 6.24016L9.47901 8.45675L10.5132 9.54325ZM9.4547 3.77958L3.54601 8.25389L4.45154 9.44972L10.3602 4.97541L9.4547 3.77958ZM12.5504 3.77682C11.6393 3.07019 10.3492 3.07482 9.4434 3.78831L10.3715 4.96668C10.7361 4.67956 11.2642 4.67752 11.6312 4.96214L12.5504 3.77682ZM12.8867 7.2802C13.8168 6.22827 13.6573 4.63524 12.5504 3.77682L11.6312 4.96214C12.0605 5.29514 12.1132 5.89049 11.763 6.28661L12.8867 7.2802ZM3.99878 17.1419H1.99609V18.6419H3.99878V17.1419ZM20.2461 8.25L9.99609 8.25V9.75L20.2461 9.75V8.25ZM20.2461 11.75H14.4961V13.25H20.2461V11.75ZM13.7468 12.5333C13.8181 14.1369 13.4391 16.8679 11.5056 18.7891L12.5629 19.8531C14.9198 17.5111 15.326 14.2796 15.2454 12.4667L13.7468 12.5333ZM20.2461 9.75C20.7984 9.75 21.2461 10.1977 21.2461 10.75H22.7461C22.7461 9.36929 21.6268 8.25 20.2461 8.25V9.75ZM21.2461 10.75C21.2461 11.3023 20.7984 11.75 20.2461 11.75V13.25C21.6268 13.25 22.7461 12.1307 22.7461 10.75H21.2461ZM1.99609 9.60181H3.99878V8.10181H1.99609V9.60181Z" fill="#141B34"/>
</svg>
