<svg width="24" height="24" viewBox="0 0 24 24" fill="none" xmlns="http://www.w3.org/2000/svg">
<path d="M18 18C17.0323 18.6667 15.6893 19.8667 16.0645 22" stroke="#141B34" stroke-width="1.5" stroke-linejoin="round"/>
<path d="M12.0008 22L11.4207 22.4753L11.6457 22.75H12.0008V22ZM17.2895 17.9403L17.0555 18.6528C17.0632 18.6553 17.0709 18.6578 17.0787 18.66L17.2895 17.9403ZM15.3525 8.90209L16.0941 9.0145L16.096 9.00054L15.3525 8.90209ZM6.5 5L6.8452 5.66584C6.9859 5.59289 7.09988 5.47724 7.17078 5.33549L6.5 5ZM3 11.0143H2.25C2.25 11.1876 2.31002 11.3556 2.41986 11.4896L3 11.0143ZM8.00045 2L8.1826 1.27246C7.84154 1.18706 7.48694 1.35006 7.32967 1.66451L8.00045 2ZM16.0012 4.00318L16.7447 4.10163C16.7947 3.72363 16.5532 3.36824 16.1833 3.27563L16.0012 4.00318ZM21 22V22.75H21.75V22H21ZM21 19.027H21.75V18.4652L21.2108 18.3073L21 19.027ZM17.5235 17.2277C16.9245 17.031 16.533 16.7691 16.2645 16.4492C15.9944 16.1275 15.8006 15.6896 15.6951 15.0602C15.4764 13.756 15.6647 11.8468 16.094 9.01448L14.6109 8.7897C14.1888 11.5752 13.9506 13.7269 14.2157 15.3082C14.3521 16.1216 14.6278 16.8326 15.1156 17.4136C15.6049 17.9966 16.2594 18.3914 17.0555 18.6528L17.5235 17.2277ZM16.096 9.00054L16.7447 4.10163L15.2576 3.90473L14.609 8.80364L16.096 9.00054ZM7.32967 1.66451L5.82922 4.66451L7.17078 5.33549L8.67123 2.33549L7.32967 1.66451ZM6.1548 4.33416C5.15557 4.85221 4.13015 5.4232 3.39013 6.45707C2.6409 7.50379 2.25 8.92308 2.25 11.0143H3.75C3.75 9.09916 4.1091 8.02975 4.60987 7.33013C5.11985 6.61765 5.84443 6.18468 6.8452 5.66584L6.1548 4.33416ZM12.0008 22.75H21V21.25H12.0008V22.75ZM21.75 22V19.027H20.25V22H21.75ZM21.2108 18.3073L17.5003 17.2205L17.0787 18.66L20.7892 19.7468L21.2108 18.3073ZM16.1833 3.27563L8.1826 1.27246L7.81829 2.72754L15.819 4.73072L16.1833 3.27563ZM12.5809 21.5247L3.58014 10.539L2.41986 11.4896L11.4207 22.4753L12.5809 21.5247Z" fill="#141B34"/>
<path d="M6.5 5L15.5 7.5" stroke="#141B34" stroke-width="1.5" stroke-linejoin="round"/>
<path d="M4 7C7 9 8 11.5 6 14.5" stroke="#141B34" stroke-width="1.5" stroke-linejoin="round"/>
</svg>
