<svg width="24" height="24" viewBox="0 0 24 24" fill="none" xmlns="http://www.w3.org/2000/svg">
<path d="M15 21C14.6917 19.8005 14.1618 18.6686 13.4412 17.6532M3 13.0351C3.31177 13.0127 3.62454 13.0019 3.93756 13.0027C6.57381 12.9466 9.14549 13.7729 11.1937 15.3342C12.0694 16.0016 12.825 16.7848 13.4412 17.6532M16.2449 16.2449C15.2871 16.5074 14.3464 16.9792 13.4412 17.6532" stroke="#141B34" stroke-width="1.5" stroke-linejoin="round"/>
<circle cx="16.5" cy="7.5" r="1.5" stroke="#141B34" stroke-width="1.5"/>
<path d="M2 2L22 22" stroke="#141B34" stroke-width="1.5" stroke-linejoin="round"/>
<path d="M21 3H21.75C21.75 2.58579 21.4142 2.25 21 2.25V3ZM3 21H2.25C2.25 21.4142 2.58579 21.75 3 21.75V21ZM2.25 3V21H3.75V3H2.25ZM21 20.25H3V21.75H21V20.25ZM6.18198 3.75H21V2.25H6.18198V3.75ZM20.25 3V17.818H21.75V3H20.25Z" fill="#141B34"/>
</svg>
