<svg width="24" height="24" viewBox="0 0 24 24" fill="none" xmlns="http://www.w3.org/2000/svg">
<path d="M3.5 6H2" stroke="#141B34" stroke-width="1.5" stroke-linecap="square" stroke-linejoin="round"/>
<path d="M22 6H20.5" stroke="#141B34" stroke-width="1.5" stroke-linecap="square" stroke-linejoin="round"/>
<path d="M3 20H2.25C2.25 20.4142 2.58579 20.75 3 20.75V20ZM3 14V13.25C2.58579 13.25 2.25 13.5858 2.25 14H3ZM3.75 20V14H2.25V20H3.75ZM21 13.25H18.5V14.75H21V13.25ZM18.5 13.25H3V14.75H18.5V13.25ZM3 20.75H18.5V19.25H3V20.75ZM18.5 20.75H21V19.25H18.5V20.75ZM17.75 14V20H19.25V14H17.75Z" fill="#141B34"/>
<path d="M13.5 10H20.5V4H13.5V10Z" stroke="#141B34" stroke-width="1.5" stroke-linecap="round" stroke-linejoin="round"/>
<path d="M3.5 10H10.5V4H3.5V10Z" stroke="#141B34" stroke-width="1.5" stroke-linecap="round" stroke-linejoin="round"/>
<path d="M13.5 5.5H10.5" stroke="#141B34" stroke-width="1.5"/>
</svg>
