<svg width="24" height="24" viewBox="0 0 24 24" fill="none" xmlns="http://www.w3.org/2000/svg">
<path d="M9.14426 2.5H2.5V9.14426M14.8557 2.5H21.5V9.14426M14.8557 21.5H21.5V14.8557M9.14426 21.5H2.5V14.8557" stroke="#141B34" stroke-width="1.5"/>
<path d="M7.5 10.5V9.75H6.75V10.5H7.5ZM16.5 10.5H17.25V9.75H16.5V10.5ZM16.5 17.5V18.25H17.25V17.5H16.5ZM7.5 17.5H6.75V18.25H7.5V17.5ZM10.25 10.5V9H8.75V10.5H10.25ZM13.75 9V10.5H15.25V9H13.75ZM15.25 9C15.25 7.20507 13.7949 5.75 12 5.75V7.25C12.9665 7.25 13.75 8.0335 13.75 9H15.25ZM10.25 9C10.25 8.0335 11.0335 7.25 12 7.25V5.75C10.2051 5.75 8.75 7.20507 8.75 9H10.25ZM7.5 11.25H16.5V9.75H7.5V11.25ZM15.75 10.5V17.5H17.25V10.5H15.75ZM6.75 10.5V17.5H8.25V10.5H6.75ZM7.5 18.25H16.5V16.75H7.5V18.25Z" fill="#141B34"/>
</svg>
