<svg width="24" height="24" viewBox="0 0 24 24" fill="none" xmlns="http://www.w3.org/2000/svg">
<path d="M21.3211 12.4637L20.8028 13.0058L21.3211 12.4637ZM20.9985 17.9047L21.6682 18.2423V18.2423L20.9985 17.9047ZM19.8919 20L19.2324 19.6427L19.1419 19.8099V20H19.8919ZM11.3355 13.925L10.9135 14.545L11.8334 15.1712L12.0686 14.0835L11.3355 13.925ZM8.78341 12.1876L8.30102 12.7619L8.33003 12.7863L8.36136 12.8076L8.78341 12.1876ZM6.3775 14.4841L6.95999 14.0116L6.95486 14.0054L6.3775 14.4841ZM10.8518 20H11.6018V19.7341L11.4343 19.5275L10.8518 20ZM6.36948 12.41L5.78849 11.9357H5.78849L6.36948 12.41ZM16.7445 4.99632L16.0097 4.84597L16.0096 4.84636L16.7445 4.99632ZM13.428 4.2472L12.7033 4.05427L12.6987 4.07139L12.695 4.0887L13.428 4.2472ZM15.6979 10.125L14.963 9.97504L14.7897 10.8244L15.6551 10.8738L15.6979 10.125ZM20.8028 13.0058C21.2047 13.3901 21.3412 14.0743 21.1911 15.0261C21.0463 15.9452 20.6625 16.9051 20.3287 17.5671L21.6682 18.2423C22.0416 17.5015 22.4951 16.3872 22.6729 15.2597C22.8454 14.1649 22.7896 12.83 21.8393 11.9215L20.8028 13.0058ZM20.3287 17.5671C20.1417 17.9381 19.8686 18.4553 19.64 18.8839C19.5261 19.0973 19.4242 19.2872 19.3507 19.4237C19.3139 19.492 19.2843 19.5468 19.2639 19.5846C19.2537 19.6034 19.2458 19.618 19.2405 19.6279C19.2378 19.6328 19.2358 19.6366 19.2344 19.639C19.2338 19.6403 19.2333 19.6412 19.2329 19.6418C19.2328 19.6421 19.2326 19.6424 19.2326 19.6425C19.2325 19.6426 19.2325 19.6427 19.2325 19.6427C19.2325 19.6427 19.2325 19.6427 19.2324 19.6427C19.2324 19.6427 19.2324 19.6427 19.8919 20C20.5513 20.3573 20.5513 20.3573 20.5513 20.3572C20.5513 20.3572 20.5513 20.3572 20.5514 20.3572C20.5514 20.3571 20.5514 20.3571 20.5515 20.357C20.5516 20.3568 20.5517 20.3566 20.5519 20.3562C20.5523 20.3555 20.5528 20.3545 20.5535 20.3532C20.5549 20.3506 20.557 20.3468 20.5597 20.3417C20.5652 20.3316 20.5732 20.3168 20.5836 20.2976C20.6043 20.2593 20.6342 20.2038 20.6713 20.1349C20.7455 19.9972 20.8485 19.8055 20.9635 19.5899C21.1925 19.1607 21.4727 18.6302 21.6682 18.2423L20.3287 17.5671ZM11.7576 13.305L9.20546 11.5676L8.36136 12.8076L10.9135 14.545L11.7576 13.305ZM5.79503 14.9566L10.2693 20.4725L11.4343 19.5275L6.95996 14.0117L5.79503 14.9566ZM5.78849 11.9357C5.06611 12.8206 5.07107 14.0835 5.80013 14.9628L6.95486 14.0054C6.68331 13.6779 6.68159 13.2136 6.95047 12.8843L5.78849 11.9357ZM9.2658 11.6133C8.22354 10.7379 6.65046 10.8798 5.78849 11.9357L6.95047 12.8843C7.27992 12.4807 7.89522 12.421 8.30102 12.7619L9.2658 11.6133ZM19.1419 20L19.1419 22H20.6419L20.6419 20H19.1419ZM12.0686 14.0835L14.1611 4.4057L12.695 4.0887L10.6025 13.7665L12.0686 14.0835ZM14.1528 4.44013C14.2586 4.0428 14.6313 3.75 15.0753 3.75V2.25C13.9699 2.25 12.9886 2.98237 12.7033 4.05427L14.1528 4.44013ZM17.4793 5.14667C17.7894 3.63074 16.6057 2.25 15.0753 2.25V3.75C15.6942 3.75 16.1221 4.29676 16.0097 4.84597L17.4793 5.14667ZM16.0096 4.84636L14.963 9.97504L16.4327 10.275L17.4793 5.14628L16.0096 4.84636ZM15.6551 10.8738C17.2411 10.9643 19.194 11.4677 20.8028 13.0058L21.8393 11.9215C19.8947 10.0623 17.5575 9.47996 15.7406 9.37622L15.6551 10.8738ZM11.6018 22V20H10.1018V22H11.6018Z" fill="#141B34"/>
<path d="M2 10H1.25V10.75H2V10ZM10 2H10.75V1.25H10V2ZM2 10.75H5V9.25H2V10.75ZM1.25 7V10H2.75V7H1.25ZM9.25 2V5H10.75V2H9.25ZM7 2.75H10V1.25H7V2.75ZM7.41848 5.6414L10.5303 2.5304L9.46974 1.4696L6.35795 4.58061L7.41848 5.6414ZM2.53038 10.5303L5.64082 7.41923L4.58006 6.35867L1.46962 9.46972L2.53038 10.5303Z" fill="#141B34"/>
</svg>
