<svg width="24" height="24" viewBox="0 0 24 24" fill="none" xmlns="http://www.w3.org/2000/svg">
<path d="M8 2V10.5" stroke="#141B34" stroke-width="1.5" stroke-linejoin="round"/>
<path d="M16 2V10.5" stroke="#141B34" stroke-width="1.5" stroke-linejoin="round"/>
<path d="M12 12L11.6922 12.6839L12 12.8224L12.3078 12.6839L12 12ZM2 7.5H1.25V7.98494L1.69223 8.18394L2 7.5ZM22 7.5L22.3078 8.18394L22.75 7.98494V7.5H22ZM22 2.00001H22.75C22.75 1.5858 22.4142 1.25001 22 1.25001V2.00001ZM2 2L2 1.25C1.80109 1.25 1.61032 1.32902 1.46967 1.46967C1.32902 1.61032 1.25 1.80109 1.25 2H2ZM2 2.75L22 2.75001V1.25001L2 1.25L2 2.75ZM21.6922 6.81606L11.6922 11.3161L12.3078 12.6839L22.3078 8.18394L21.6922 6.81606ZM12.3078 11.3161L2.30777 6.81606L1.69223 8.18394L11.6922 12.6839L12.3078 11.3161ZM2.75 7.5V2H1.25V7.5H2.75ZM21.25 2.00001V7.5H22.75V2.00001H21.25Z" fill="#141B34"/>
<path d="M16.0001 15L12.0001 13L8 15V20L12.0001 22L16.0001 20V15Z" stroke="#141B34" stroke-width="1.5" stroke-linejoin="round"/>
</svg>
