<svg width="24" height="24" viewBox="0 0 24 24" fill="none" xmlns="http://www.w3.org/2000/svg">
<path d="M18 2L18.5133 1.45321C18.296 1.24919 17.9785 1.19322 17.7046 1.31064L18 2ZM18 17L17.7046 17.6894C17.9785 17.8068 18.296 17.7508 18.5133 17.5468L18 17ZM7.5 6.5V7.25H7.65394L7.79544 7.18936L7.5 6.5ZM7.5 12.5L7.79544 11.8106L7.65394 11.75H7.5V12.5ZM3 12.5H2.25V13.25H3V12.5ZM3 6.5V5.75H2.25V6.5H3ZM17.4867 2.54679C19.1415 4.10035 20.25 6.61742 20.25 9.5H21.75C21.75 6.24883 20.5019 3.32011 18.5133 1.45321L17.4867 2.54679ZM20.25 9.5C20.25 12.3826 19.1415 14.8996 17.4867 16.4532L18.5133 17.5468C20.5019 15.6799 21.75 12.7512 21.75 9.5H20.25ZM17.7046 1.31064L7.20456 5.81064L7.79544 7.18936L18.2954 2.68936L17.7046 1.31064ZM18.2954 16.3106L7.79544 11.8106L7.20456 13.1894L17.7046 17.6894L18.2954 16.3106ZM7.5 11.75H3V13.25H7.5V11.75ZM3.75 12.5V6.5H2.25V12.5H3.75ZM3 7.25H7.5V5.75H3V7.25Z" fill="#141B34"/>
<path d="M9.96653 22L9.39439 22.4849C9.52947 22.6443 9.72489 22.7401 9.9336 22.7493C10.1423 22.7584 10.3454 22.6802 10.4939 22.5333L9.96653 22ZM12.9999 19L13.5273 19.5333C13.688 19.3743 13.7685 19.1513 13.7462 18.9263C13.724 18.7013 13.6015 18.4983 13.4127 18.3739L12.9999 19ZM7 18.5L6.25 18.4979L6.24922 18.7742L6.42786 18.9849L7 18.5ZM9.96653 17L9.29347 17.3309L9.38344 17.5139L9.55368 17.6261L9.96653 17ZM10.4939 22.5333L13.5273 19.5333L12.4725 18.4667L9.43914 21.4667L10.4939 22.5333ZM6.26563 12.9979L6.25 18.4979L7.75 18.5021L7.76562 13.0021L6.26563 12.9979ZM6.42786 18.9849L9.39439 22.4849L10.5387 21.5151L7.57214 18.0151L6.42786 18.9849ZM7.32694 13.3309L9.29347 17.3309L10.6396 16.6691L8.67306 12.6691L7.32694 13.3309ZM9.55368 17.6261L12.587 19.6261L13.4127 18.3739L10.3794 16.3739L9.55368 17.6261Z" fill="#141B34"/>
<path d="M7.5 12.5V6.5" stroke="#141B34" stroke-width="1.5" stroke-linecap="round" stroke-linejoin="round"/>
</svg>
