<svg width="24" height="24" viewBox="0 0 24 24" fill="none" xmlns="http://www.w3.org/2000/svg">
<path d="M14.9281 7.78146L15.818 8.02144C16.8009 8.28651 17.3843 9.30336 17.1209 10.2926M17.1209 10.2926L16.8824 11.1882M17.1209 10.2926C17.2526 9.79799 17.7577 9.50446 18.2492 9.63699C19.2321 9.90207 19.8155 10.9189 19.5521 11.9082M19.5521 11.9082L19.3136 12.8038M19.5521 11.9082C19.6769 11.4394 20.1901 11.1955 20.6291 11.3965L20.9202 11.5298C21.74 11.9052 22.1701 12.8221 21.937 13.6977L21.5855 15.0165C21.0673 16.963 20.8081 17.9362 20.3073 18.6316C20.0167 19.035 18.5 20 18.5 20L17.8187 22M14.451 9.57264L16.0009 3.75113C16.1985 3.00918 15.761 2.24654 15.0238 2.04774C14.2866 1.84893 13.5288 2.28924 13.3313 3.03119L10.9556 11.9537L9.90131 10.1091C9.43871 9.29977 8.3811 9.07701 7.63441 9.63163C7.06306 10.056 6.84799 10.8163 7.11154 11.48L10 17.5L9.3648 19.7202" stroke="#141B34" stroke-width="1.5"/>
<path d="M5 7H5.75V6.25H5V7ZM7 5H6.25V5.75H7V5ZM4.25 7V10H5.75V7H4.25ZM2 7.75H5V6.25H2V7.75ZM7 5.75H10V4.25H7V5.75ZM6.25 2V5H7.75V2H6.25ZM4.46967 6.46967L1.46967 9.46967L2.53033 10.5303L5.53033 7.53033L4.46967 6.46967ZM9.46967 1.46967L6.46967 4.46967L7.53033 5.53033L10.5303 2.53033L9.46967 1.46967Z" fill="#141B34"/>
</svg>
