<svg width="24" height="24" viewBox="0 0 24 24" fill="none" xmlns="http://www.w3.org/2000/svg">
<path d="M14 2.20004C13.3538 2.06886 12.6849 2 12 2C6.47715 2 2 6.47715 2 12C2 17.5228 6.47715 22 12 22C17.5228 22 22 17.5228 22 12C22 11.3151 21.9311 10.6462 21.8 10" stroke="#141B34" stroke-width="1.5" stroke-linejoin="round"/>
<path d="M17.0044 6.99585L16.2544 6.99593L16.2545 7.74585H17.0044V6.99585ZM17.5347 7.52617L22.5303 2.53032L21.4697 1.46968L16.474 6.46553L17.5347 7.52617ZM21.5002 6.24585H17.0044V7.74585H21.5002V6.24585ZM17.7544 6.99577L17.7539 2.49565L16.2539 2.49581L16.2544 6.99593L17.7544 6.99577Z" fill="#141B34"/>
<path d="M12 9C10.8954 9 10 9.67157 10 10.5C10 11.3284 10.8954 12 12 12C13.1046 12 14 12.6716 14 13.5C14 14.3284 13.1046 15 12 15M12 9C12.8708 9 13.6116 9.4174 13.8862 10M12 9V7.5M12 15C11.1292 15 10.3884 14.5826 10.1138 14M12 15V16.5" stroke="#141B34" stroke-width="1.5" stroke-linejoin="round"/>
</svg>
