<svg width="24" height="24" viewBox="0 0 24 24" fill="none" xmlns="http://www.w3.org/2000/svg">
<path d="M4.74061 17.0888C4.93047 19.4803 6.82417 21.511 9.26502 21.8118C10.1626 21.9223 11.0752 22 12 22C12.9247 22 13.8373 21.9223 14.7349 21.8118C17.1758 21.511 19.0694 19.4803 19.2593 17.0888C19.3909 15.4317 19.5 13.732 19.5 12C19.5 10.268 19.3909 8.56832 19.2593 6.91118C19.0694 4.51965 17.1758 2.48893 14.7349 2.1882C13.8373 2.07762 12.9247 2 12 2C11.0752 2 10.1626 2.07762 9.26502 2.1882C6.82417 2.48893 4.93047 4.51965 4.74061 6.91118C4.60903 8.56832 4.5 10.268 4.5 12C4.5 13.732 4.60903 15.4317 4.74061 17.0888Z" stroke="#141B34" stroke-width="1.5"/>
<path d="M12 13L11.5315 13.5857L12 13.9605L12.4685 13.5857L12 13ZM12 6L12.4685 5.41435L12 5.03953L11.5315 5.41435L12 6ZM12.75 13V6H11.25V13H12.75ZM11.5315 6.58565L14.0315 8.58565L14.9685 7.41435L12.4685 5.41435L11.5315 6.58565ZM9.96852 8.58565L12.4685 6.58565L11.5315 5.41435L9.03148 7.41435L9.96852 8.58565ZM12.4685 12.4143L9.96852 10.4143L9.03148 11.5857L11.5315 13.5857L12.4685 12.4143ZM14.0315 10.4143L11.5315 12.4143L12.4685 13.5857L14.9685 11.5857L14.0315 10.4143Z" fill="#141B34"/>
</svg>
