<svg width="24" height="24" viewBox="0 0 24 24" fill="none" xmlns="http://www.w3.org/2000/svg">
<path d="M14 12C14 13.1046 13.1046 14 12 14C10.8954 14 10 13.1046 10 12C10 10.8954 10.8954 10 12 10C13.1046 10 14 10.8954 14 12Z" stroke="#141B34" stroke-width="1.5"/>
<path d="M15 7L14.7628 7.71151C15.0615 7.81109 15.3907 7.71347 15.5868 7.46712C15.7829 7.22077 15.8042 6.87816 15.6402 6.60936L15 7ZM11.9493 2L12.5895 1.60936C12.4523 1.38446 12.2071 1.24805 11.9437 1.25002C11.6802 1.25199 11.4371 1.39204 11.3033 1.61896L11.9493 2ZM9 7L8.35401 6.61896C8.19507 6.88841 8.22007 7.2282 8.41673 7.47148C8.61339 7.71477 8.9404 7.81044 9.23717 7.71151L9 7ZM12 6L12.2372 5.28849L12 5.20943L11.7628 5.28849L12 6ZM15.6402 6.60936L12.5895 1.60936L11.309 2.39064L14.3598 7.39064L15.6402 6.60936ZM9.64599 7.38104L12.5952 2.38104L11.3033 1.61896L8.35401 6.61896L9.64599 7.38104ZM9.23717 7.71151L12.2372 6.71151L11.7628 5.28849L8.76283 6.28849L9.23717 7.71151ZM11.7628 6.71151L14.7628 7.71151L15.2372 6.28849L12.2372 5.28849L11.7628 6.71151Z" fill="#141B34"/>
<path d="M15 17L15.6402 17.3906C15.8042 17.1218 15.7829 16.7792 15.5868 16.5329C15.3907 16.2865 15.0615 16.1889 14.7628 16.2885L15 17ZM11.9493 22L11.3033 22.381C11.4371 22.608 11.6802 22.748 11.9437 22.75C12.2071 22.7519 12.4523 22.6155 12.5895 22.3906L11.9493 22ZM9 17L9.23717 16.2885C8.9404 16.1896 8.61339 16.2852 8.41673 16.5285C8.22007 16.7718 8.19507 17.1116 8.35401 17.381L9 17ZM12 18L11.7628 18.7115L12 18.7906L12.2372 18.7115L12 18ZM14.3598 16.6094L11.309 21.6094L12.5895 22.3906L15.6402 17.3906L14.3598 16.6094ZM8.35401 17.381L11.3033 22.381L12.5952 21.619L9.64599 16.619L8.35401 17.381ZM8.76283 17.7115L11.7628 18.7115L12.2372 17.2885L9.23717 16.2885L8.76283 17.7115ZM12.2372 18.7115L15.2372 17.7115L14.7628 16.2885L11.7628 17.2885L12.2372 18.7115Z" fill="#141B34"/>
<path d="M16.998 15L16.2865 14.7628C16.187 15.0615 16.2846 15.3907 16.5309 15.5868C16.7773 15.7829 17.1199 15.8042 17.3887 15.6402L16.998 15ZM21.998 11.9493L22.3887 12.5895C22.6136 12.4523 22.75 12.2071 22.748 11.9437C22.7461 11.6802 22.606 11.4371 22.3791 11.3033L21.998 11.9493ZM16.998 9L17.3791 8.35401C17.1096 8.19507 16.7698 8.22007 16.5266 8.41673C16.2833 8.61339 16.1876 8.9404 16.2865 9.23717L16.998 9ZM17.998 12L18.7096 12.2372L18.7886 12L18.7096 11.7628L17.998 12ZM17.3887 15.6402L22.3887 12.5895L21.6074 11.309L16.6074 14.3598L17.3887 15.6402ZM16.617 9.64599L21.617 12.5952L22.3791 11.3033L17.3791 8.35401L16.617 9.64599ZM16.2865 9.23717L17.2865 12.2372L18.7096 11.7628L17.7096 8.76283L16.2865 9.23717ZM17.2865 11.7628L16.2865 14.7628L17.7096 15.2372L18.7096 12.2372L17.2865 11.7628Z" fill="#141B34"/>
<path d="M6.99805 15L6.60741 15.6402C6.8762 15.8042 7.21882 15.7829 7.46517 15.5868C7.71151 15.3907 7.80913 15.0615 7.70956 14.7628L6.99805 15ZM1.99805 11.9493L1.61701 11.3033C1.39009 11.4371 1.25003 11.6802 1.24807 11.9437C1.2461 12.2071 1.38251 12.4523 1.60741 12.5895L1.99805 11.9493ZM6.99805 9L7.70956 9.23717C7.80848 8.9404 7.71282 8.61339 7.46953 8.41673C7.22625 8.22007 6.88645 8.19507 6.61701 8.35401L6.99805 9ZM5.99805 12L5.28653 11.7628L5.20748 12L5.28653 12.2372L5.99805 12ZM7.38869 14.3598L2.38869 11.309L1.60741 12.5895L6.60741 15.6402L7.38869 14.3598ZM6.61701 8.35401L1.61701 11.3033L2.37909 12.5952L7.37909 9.64599L6.61701 8.35401ZM6.28653 8.76283L5.28653 11.7628L6.70956 12.2372L7.70956 9.23717L6.28653 8.76283ZM5.28653 12.2372L6.28653 15.2372L7.70956 14.7628L6.70956 11.7628L5.28653 12.2372Z" fill="#141B34"/>
</svg>
