<svg width="24" height="24" viewBox="0 0 24 24" fill="none" xmlns="http://www.w3.org/2000/svg">
<path d="M16 2V6M11 2V6M6 2V6" stroke="#141B34" stroke-width="1.5" stroke-linejoin="round"/>
<path d="M20 11V4H2V22L11 22" stroke="#141B34" stroke-width="1.5" stroke-linejoin="round"/>
<path d="M14 21.5H13.25V22.25H14V21.5ZM14 19L13.4697 18.4697L13.25 18.6893V19H14ZM16.5 21.5V22.25H16.8107L17.0303 22.0303L16.5 21.5ZM19.5 13.5L20.0303 12.9697C19.7374 12.6768 19.2626 12.6768 18.9697 12.9697L19.5 13.5ZM22 16L22.5303 16.5303C22.8232 16.2374 22.8232 15.7626 22.5303 15.4697L22 16ZM14.75 21.5V19H13.25V21.5H14.75ZM14 22.25H16.5V20.75H14V22.25ZM14.5303 19.5303L20.0303 14.0303L18.9697 12.9697L13.4697 18.4697L14.5303 19.5303ZM18.9697 14.0303L21.4697 16.5303L22.5303 15.4697L20.0303 12.9697L18.9697 14.0303ZM21.4697 15.4697L15.9697 20.9697L17.0303 22.0303L22.5303 16.5303L21.4697 15.4697Z" fill="#141B34"/>
<path d="M7 16H11M7 11H15" stroke="#141B34" stroke-width="1.5" stroke-linejoin="round"/>
</svg>
