<svg width="24" height="24" viewBox="0 0 24 24" fill="none" xmlns="http://www.w3.org/2000/svg">
<path d="M11.0211 2L11.2376 1.28193C11.0463 1.22424 10.8398 1.2453 10.6641 1.34043C10.4884 1.43556 10.3578 1.59689 10.3015 1.78863L11.0211 2ZM22 5.31008L22.7196 5.52144C22.8357 5.12602 22.6111 4.71097 22.2165 4.592L22 5.31008ZM17.9789 19L17.7624 19.7181C17.9537 19.7758 18.1602 19.7547 18.3359 19.6596C18.5116 19.5644 18.6422 19.4031 18.6985 19.2114L17.9789 19ZM7 15.6899L6.2804 15.4786C6.16425 15.874 6.38892 16.289 6.7835 16.408L7 15.6899ZM12.6878 7.74128L17.4607 9.01296L17.8469 7.56353L13.074 6.29184L12.6878 7.74128ZM11.6647 11.5381L14.0511 12.1739L14.4373 10.7245L12.0509 10.0886L11.6647 11.5381ZM10.8046 2.71807L21.7835 6.02815L22.2165 4.592L11.2376 1.28193L10.8046 2.71807ZM18.1954 18.2819L7.2165 14.9719L6.7835 16.408L17.7624 19.7181L18.1954 18.2819ZM7.7196 15.9013L11.7407 2.21137L10.3015 1.78863L6.2804 15.4786L7.7196 15.9013ZM21.2804 5.09871L17.2593 18.7886L18.6985 19.2114L22.7196 5.52144L21.2804 5.09871Z" fill="#141B34"/>
<path d="M7 6.80261L2 8.31009L6.02113 22L13 19.8959" stroke="#141B34" stroke-width="1.5" stroke-linejoin="round"/>
</svg>
