<svg width="24" height="24" viewBox="0 0 24 24" fill="none" xmlns="http://www.w3.org/2000/svg">
<path d="M21 2C21 10.2843 16.9706 17 12 17C7.02944 17 3 10.2843 3 2" stroke="#141B34" stroke-width="1.5" stroke-linejoin="round"/>
<path d="M3 20H5M15 20H17M19 20H21M7 20H9" stroke="#141B34" stroke-width="1.5" stroke-linejoin="round"/>
<path d="M12 2L12.5303 1.46967L12 0.93934L11.4697 1.46967L12 2ZM12.75 22L12.75 2L11.25 2L11.25 22H12.75ZM11.4697 2.53033L14.4697 5.53033L15.5303 4.46967L12.5303 1.46967L11.4697 2.53033ZM9.53033 5.53033L12.5303 2.53033L11.4697 1.46967L8.46967 4.46967L9.53033 5.53033Z" fill="#141B34"/>
</svg>
