<svg width="24" height="24" viewBox="0 0 24 24" fill="none" xmlns="http://www.w3.org/2000/svg">
<path d="M2 9.94118L9 4.05881L5.50081 2V12L9 9.94118L2 4.05881" stroke="#141B34" stroke-width="1.5" stroke-linejoin="round"/>
<path d="M6 22H5.25V22.75H6V22ZM22 9L22.5303 9.53033C22.8232 9.23744 22.8232 8.76256 22.5303 8.46967L22 9ZM19 6L19.5303 5.46967C19.2374 5.17678 18.7626 5.17678 18.4697 5.46967L19 6ZM6 19L5.46967 18.4697L5.25 18.6893V19H6ZM9 22V22.75H9.31066L9.53033 22.5303L9 22ZM22.5303 8.46967L19.5303 5.46967L18.4697 6.53033L21.4697 9.53033L22.5303 8.46967ZM5.25 19V22H6.75V19H5.25ZM9 21.25H6V22.75H9V21.25ZM18.4697 5.46967L15.4697 8.46967L16.5303 9.53033L19.5303 6.53033L18.4697 5.46967ZM15.4697 8.46967L5.46967 18.4697L6.53033 19.5303L16.5303 9.53033L15.4697 8.46967ZM21.4697 8.46967L18.4697 11.4697L19.5303 12.5303L22.5303 9.53033L21.4697 8.46967ZM18.4697 11.4697L8.46967 21.4697L9.53033 22.5303L19.5303 12.5303L18.4697 11.4697ZM15.4697 9.53033L18.4697 12.5303L19.5303 11.4697L16.5303 8.46967L15.4697 9.53033Z" fill="#141B34"/>
</svg>
