<svg width="24" height="24" viewBox="0 0 24 24" fill="none" xmlns="http://www.w3.org/2000/svg">
<path d="M12.0343 21.3211L11.5056 20.7891L12.0343 21.3211ZM6.3069 20.9985L5.98297 21.6749L5.98297 21.6749L6.3069 20.9985ZM4 19.8919L4.32461 19.2158L4.17072 19.1419H4V19.8919ZM9.99609 11L9.47901 10.4567L8.12032 11.75H9.99609V11ZM12.3248 8.78341L12.8419 9.32666L12.8653 9.30439L12.8867 9.2802L12.3248 8.78341ZM9.90747 6.3775L10.3603 6.97537L10.366 6.97108L10.3715 6.96668L9.90747 6.3775ZM4 10.8518V11.6018H4.25197L4.45283 11.4497L4 10.8518ZM12.0908 6.36948L12.5504 5.77682L12.5504 5.77682L12.0908 6.36948ZM20.2461 11V11.75V11ZM20.2461 14.5V13.75V14.5ZM14.4961 14.5V13.75H13.712L13.7468 14.5333L14.4961 14.5ZM11.5056 20.7891C11.0868 21.2053 10.3392 21.3421 9.3251 21.1903C8.34752 21.0439 7.33028 20.657 6.63083 20.322L5.98297 21.6749C6.76019 22.0471 7.92624 22.4975 9.10299 22.6737C10.2432 22.8445 11.621 22.789 12.5629 21.8531L11.5056 20.7891ZM6.63083 20.322C6.23171 20.1309 5.65523 19.8544 5.17836 19.6255C4.93996 19.5111 4.72652 19.4087 4.57267 19.3349C4.49575 19.2979 4.43373 19.2682 4.39095 19.2476C4.36955 19.2373 4.35297 19.2294 4.34173 19.224C4.33611 19.2213 4.33183 19.2192 4.32896 19.2179C4.32752 19.2172 4.32643 19.2166 4.32571 19.2163C4.32534 19.2161 4.32507 19.216 4.32489 19.2159C4.32479 19.2159 4.32473 19.2158 4.32468 19.2158C4.32466 19.2158 4.32464 19.2158 4.32463 19.2158C4.32462 19.2158 4.32461 19.2158 4 19.8919C3.67539 20.568 3.67539 20.568 3.67541 20.568C3.67542 20.568 3.67543 20.568 3.67546 20.568C3.6755 20.568 3.67557 20.5681 3.67566 20.5681C3.67585 20.5682 3.67612 20.5683 3.67649 20.5685C3.67722 20.5689 3.6783 20.5694 3.67974 20.5701C3.68262 20.5715 3.68691 20.5735 3.69253 20.5762C3.70378 20.5816 3.72037 20.5896 3.74177 20.5999C3.78458 20.6204 3.84662 20.6502 3.92356 20.6871C4.07745 20.761 4.29095 20.8635 4.52942 20.9779C5.00629 21.2067 5.58326 21.4835 5.98297 21.6749L6.63083 20.322ZM10.5132 11.5433L12.8419 9.32666L11.8077 8.24016L9.47901 10.4567L10.5132 11.5433ZM9.45464 5.77963L3.54717 10.2539L4.45283 11.4497L10.3603 6.97537L9.45464 5.77963ZM12.5504 5.77682C11.6393 5.07019 10.3492 5.07482 9.4434 5.78831L10.3715 6.96668C10.7361 6.67956 11.2642 6.67752 11.6312 6.96214L12.5504 5.77682ZM12.8867 9.2802C13.8168 8.22827 13.6573 6.63524 12.5504 5.77682L11.6312 6.96214C12.0605 7.29514 12.1132 7.89049 11.763 8.28661L12.8867 9.2802ZM4 19.1419H1.99609V20.6419H4V19.1419ZM20.2461 10.25L9.99609 10.25V11.75L20.2461 11.75V10.25ZM20.2461 13.75H14.4961V15.25H20.2461V13.75ZM13.7468 14.5333C13.8181 16.1369 13.4391 18.8679 11.5056 20.7891L12.5629 21.8531C14.9198 19.5111 15.326 16.2796 15.2454 14.4667L13.7468 14.5333ZM20.2461 11.75C20.7984 11.75 21.2461 12.1977 21.2461 12.75H22.7461C22.7461 11.3693 21.6268 10.25 20.2461 10.25V11.75ZM21.2461 12.75C21.2461 13.3023 20.7984 13.75 20.2461 13.75V15.25C21.6268 15.25 22.7461 14.1307 22.7461 12.75H21.2461ZM1.99609 11.6018H4V10.1018H1.99609V11.6018Z" fill="#141B34"/>
<path d="M22 4.5L16 4.5M22 4.5L19.5 2M22 4.5L19.5 7" stroke="#141B34" stroke-width="1.5"/>
</svg>
