<svg width="24" height="24" viewBox="0 0 24 24" fill="none" xmlns="http://www.w3.org/2000/svg">
<path d="M12.5 22H2.5L2.50017 2H20.5V9" stroke="#141B34" stroke-width="1.5" stroke-linejoin="round"/>
<path d="M7.5 7H15.5" stroke="#141B34" stroke-width="1.5"/>
<path d="M7.5 12H12.5" stroke="#141B34" stroke-width="1.5"/>
<path d="M16 22H15.25C15.25 22.2702 15.3953 22.5195 15.6305 22.6526C15.8656 22.7858 16.1542 22.7821 16.3859 22.6431L16 22ZM21 22L20.6141 22.6431C20.8458 22.7821 21.1344 22.7858 21.3695 22.6526C21.6047 22.5195 21.75 22.2702 21.75 22H21ZM18.5 20.5L18.8859 19.8569L18.5 19.6254L18.1141 19.8569L18.5 20.5ZM16.25 14.9951C16.25 13.7563 17.2562 12.75 18.5 12.75V11.25C16.4301 11.25 14.75 12.9256 14.75 14.9951H16.25ZM18.5 12.75C19.7438 12.75 20.75 13.7563 20.75 14.9951H22.25C22.25 12.9256 20.5699 11.25 18.5 11.25V12.75ZM18.5 17.2402C17.2562 17.2402 16.25 16.2339 16.25 14.9951H14.75C14.75 17.0646 16.4301 18.7402 18.5 18.7402V17.2402ZM20.75 14.9951C20.75 16.2339 19.7438 17.2402 18.5 17.2402V18.7402C20.5699 18.7402 22.25 17.0646 22.25 14.9951H20.75ZM15.25 16.6513V22H16.75V16.6513H15.25ZM20.25 16.6513V22H21.75V16.6513H20.25ZM21.3859 21.3569L18.8859 19.8569L18.1141 21.1431L20.6141 22.6431L21.3859 21.3569ZM18.1141 19.8569L15.6141 21.3569L16.3859 22.6431L18.8859 21.1431L18.1141 19.8569Z" fill="#141B34"/>
</svg>
