<svg width="24" height="24" viewBox="0 0 24 24" fill="none" xmlns="http://www.w3.org/2000/svg">
<path d="M3.5 15H20.5V3H3.5V15ZM3.5 15V21" stroke="#141B34" stroke-width="1.5" stroke-linejoin="round"/>
<path d="M17 9L17.5303 9.53033L18.0607 9L17.5303 8.46967L17 9ZM7 9L6.46967 8.46967L5.93934 9L6.46967 9.53033L7 9ZM14.4697 7.53033L16.4697 9.53033L17.5303 8.46967L15.5303 6.46967L14.4697 7.53033ZM16.4697 8.46967L14.4697 10.4697L15.5303 11.5303L17.5303 9.53033L16.4697 8.46967ZM8.46967 6.46967L6.46967 8.46967L7.53033 9.53033L9.53033 7.53033L8.46967 6.46967ZM6.46967 9.53033L8.46967 11.5303L9.53033 10.4697L7.53033 8.46967L6.46967 9.53033ZM12.3036 6.22146L10.3036 11.2215L11.6964 11.7785L13.6964 6.77854L12.3036 6.22146Z" fill="#141B34"/>
</svg>
