<svg width="24" height="24" viewBox="0 0 24 24" fill="none" xmlns="http://www.w3.org/2000/svg">
<path d="M9 15H3.5V22H9V15Z" stroke="#141B34" stroke-width="1.5" stroke-linejoin="round"/>
<path d="M20.5 17H15V22H20.5V17Z" stroke="#141B34" stroke-width="1.5" stroke-linejoin="round"/>
<path d="M15 13H9V22H15V13Z" stroke="#141B34" stroke-width="1.5" stroke-linejoin="round"/>
<path d="M2 22H22" stroke="#141B34" stroke-width="1.5" stroke-linejoin="round"/>
<path d="M12 2L12.6048 1.5565C12.4635 1.36383 12.2389 1.25 12 1.25C11.7611 1.25 11.5365 1.36383 11.3952 1.5565L12 2ZM13.6687 4.27567L13.0639 4.71917L13.2181 4.92946L13.4695 4.99873L13.6687 4.27567ZM16.5 5.05573L17.079 5.53241C17.2405 5.33623 17.2917 5.07162 17.215 4.82936C17.1383 4.58711 16.9442 4.40016 16.6992 4.33267L16.5 5.05573ZM14.7 7.24223L14.121 6.76555L13.942 6.98289L13.9503 7.26429L14.7 7.24223ZM14.7812 10L14.5446 10.7117C14.777 10.7889 15.0324 10.7479 15.2289 10.6017C15.4253 10.4556 15.538 10.2227 15.5308 9.97794L14.7812 10ZM12 9.07567L12.2365 8.36395L12 8.28533L11.7635 8.36395L12 9.07567ZM9.21885 10L8.46917 9.97794C8.46197 10.2227 8.5747 10.4556 8.77115 10.6017C8.9676 10.7479 9.22303 10.7889 9.45539 10.7117L9.21885 10ZM9.3 7.24223L10.0497 7.26429L10.058 6.98289L9.87903 6.76555L9.3 7.24223ZM7.5 5.05573L7.30079 4.33267C7.05581 4.40016 6.86167 4.58711 6.78498 4.82936C6.70828 5.07162 6.75947 5.33623 6.92097 5.53241L7.5 5.05573ZM10.3313 4.27567L10.5305 4.99873L10.7819 4.92946L10.9361 4.71917L10.3313 4.27567ZM11.3952 2.4435L13.0639 4.71917L14.2735 3.83217L12.6048 1.5565L11.3952 2.4435ZM13.4695 4.99873L16.3008 5.77879L16.6992 4.33267L13.8679 3.55261L13.4695 4.99873ZM15.921 4.57905L14.121 6.76555L15.279 7.71891L17.079 5.53241L15.921 4.57905ZM13.9503 7.26429L14.0315 10.0221L15.5308 9.97794L15.4497 7.22017L13.9503 7.26429ZM15.0177 9.28828L12.2365 8.36395L11.7635 9.78739L14.5446 10.7117L15.0177 9.28828ZM11.7635 8.36395L8.9823 9.28828L9.45539 10.7117L12.2365 9.78739L11.7635 8.36395ZM9.96852 10.0221L10.0497 7.26429L8.55032 7.22017L8.46917 9.97794L9.96852 10.0221ZM9.87903 6.76555L8.07903 4.57905L6.92097 5.53241L8.72097 7.71891L9.87903 6.76555ZM7.69921 5.77879L10.5305 4.99873L10.1321 3.55261L7.30079 4.33267L7.69921 5.77879ZM10.9361 4.71917L12.6048 2.4435L11.3952 1.5565L9.72649 3.83217L10.9361 4.71917Z" fill="#141B34"/>
</svg>
