<svg width="24" height="24" viewBox="0 0 24 24" fill="none" xmlns="http://www.w3.org/2000/svg">
<path d="M10.0051 14.5L9.51704 15.0694L10.7551 16.1307V14.5H10.0051ZM7.87124 12.671L8.35934 12.1015H8.35934L7.87124 12.671ZM5.38941 15.0883L6.01333 14.6721L5.99375 14.6428L5.97149 14.6154L5.38941 15.0883ZM10 22L9.37608 22.4162C9.5152 22.6247 9.74931 22.75 10 22.75V22ZM13.5051 10.4776H12.7551V11.2276H13.5051V10.4776ZM5.38114 12.905L4.79549 12.4365H4.79549L5.38114 12.905ZM10.4932 13.9306L8.35934 12.1015L7.38315 13.2404L9.51704 15.0694L10.4932 13.9306ZM4.76549 15.5045L9.37608 22.4162L10.6239 21.5838L6.01333 14.6721L4.76549 15.5045ZM10.7551 14.5V4.75H9.25514V14.5H10.7551ZM12.7551 4.75V10.4776H14.2551V4.75H12.7551ZM13.5051 11.2276H18V9.72758H13.5051V11.2276ZM18 21.25H10V22.75H18V21.25ZM11.7551 3.75C12.3074 3.75 12.7551 4.19772 12.7551 4.75H14.2551C14.2551 3.36929 13.1358 2.25 11.7551 2.25V3.75ZM10.7551 4.75C10.7551 4.19772 11.2029 3.75 11.7551 3.75V2.25C10.3744 2.25 9.25514 3.36929 9.25514 4.75H10.7551ZM4.79549 12.4365C4.06376 13.3511 4.06869 14.6522 4.80732 15.5613L5.97149 14.6154C5.67794 14.2541 5.67598 13.737 5.96679 13.3735L4.79549 12.4365ZM8.35934 12.1015C7.29041 11.1853 5.67497 11.3371 4.79549 12.4365L5.96679 13.3735C6.31632 12.9366 6.95833 12.8763 7.38315 13.2404L8.35934 12.1015ZM21.75 19V13.4776H20.25V19H21.75ZM18 22.75C20.0711 22.75 21.75 21.0711 21.75 19H20.25C20.25 20.2426 19.2426 21.25 18 21.25V22.75ZM18 11.2276C19.2426 11.2276 20.25 12.2349 20.25 13.4776H21.75C21.75 11.4065 20.0711 9.72758 18 9.72758V11.2276Z" fill="#141B34"/>
<path d="M16 4H20.5M16 4L18 6M16 4C16 4 17.4943 2.39322 18 2" stroke="#141B34" stroke-width="1.5"/>
<path d="M7.5 4L3 4M7.5 4L5.5 2M7.5 4L5.5 6" stroke="#141B34" stroke-width="1.5"/>
</svg>
