<svg width="24" height="24" viewBox="0 0 24 24" fill="none" xmlns="http://www.w3.org/2000/svg">
<path d="M8.99805 18L8.26381 17.847L8.17526 18.2721L8.49978 18.5606L8.99805 18ZM13.4982 22L12.9999 22.5606C13.2841 22.8131 13.7123 22.8131 13.9965 22.5606L13.4982 22ZM17.9982 18L18.4965 18.5606L18.821 18.2721L18.7324 17.847L17.9982 18ZM10.7638 5.84703L8.26381 17.847L9.73228 18.153L12.2323 6.15297L10.7638 5.84703ZM8.49978 18.5606L12.9999 22.5606L13.9965 21.4394L9.49631 17.4394L8.49978 18.5606ZM14.7638 6.15297L17.264 18.153L18.7324 17.847L16.2323 5.84703L14.7638 6.15297ZM17.4999 17.4394L12.9999 21.4394L13.9965 22.5606L18.4965 18.5606L17.4999 17.4394Z" fill="#141B34"/>
<path d="M16.4961 2H10.4961L11.4961 6H15.4961L16.4961 2Z" stroke="#141B34" stroke-width="1.5" stroke-linecap="round" stroke-linejoin="round"/>
<path d="M9.5 15.5L6 12L11.5 6" stroke="#141B34" stroke-width="1.5"/>
</svg>
