<svg width="24" height="24" viewBox="0 0 24 24" fill="none" xmlns="http://www.w3.org/2000/svg">
<path d="M14 12C14 13.1046 13.1046 14 12 14C10.8954 14 10 13.1046 10 12C10 10.8954 10.8954 10 12 10C13.1046 10 14 10.8954 14 12Z" stroke="#141B34" stroke-width="1.5"/>
<path d="M16 8L15.7367 8.70225C16.0422 8.81683 16.3868 8.72069 16.5889 8.46448C16.791 8.20828 16.8042 7.8508 16.6216 7.58034L16 8ZM11.9493 2L12.5709 1.58034C12.4305 1.3725 12.1956 1.24854 11.9449 1.25001C11.6941 1.25148 11.4607 1.37818 11.3228 1.58765L11.9493 2ZM8 8L7.37353 7.58765C7.19501 7.85887 7.21129 8.21417 7.41387 8.46792C7.61645 8.72168 7.95932 8.81626 8.26334 8.70225L8 8ZM12 6.5L12.2633 5.79775L12 5.699L11.7367 5.79775L12 6.5ZM16.6216 7.58034L12.5709 1.58034L11.3277 2.41966L15.3784 8.41966L16.6216 7.58034ZM8.62647 8.41235L12.5757 2.41235L11.3228 1.58765L7.37353 7.58765L8.62647 8.41235ZM8.26334 8.70225L12.2633 7.20225L11.7367 5.79775L7.73666 7.29775L8.26334 8.70225ZM11.7367 7.20225L15.7367 8.70225L16.2633 7.29775L12.2633 5.79775L11.7367 7.20225Z" fill="#141B34"/>
<path d="M16 16L16.6216 16.4197C16.8042 16.1492 16.791 15.7917 16.5889 15.5355C16.3868 15.2793 16.0422 15.1832 15.7367 15.2978L16 16ZM11.9493 22L11.3228 22.4123C11.4607 22.6218 11.6941 22.7485 11.9449 22.75C12.1956 22.7515 12.4305 22.6275 12.5709 22.4197L11.9493 22ZM8 16L8.26334 15.2978C7.95932 15.1837 7.61645 15.2783 7.41387 15.5321C7.21129 15.7858 7.19501 16.1411 7.37353 16.4124L8 16ZM12 17.5L11.7367 18.2022L12 18.301L12.2633 18.2022L12 17.5ZM15.3784 15.5803L11.3277 21.5803L12.5709 22.4197L16.6216 16.4197L15.3784 15.5803ZM7.37353 16.4124L11.3228 22.4123L12.5757 21.5877L8.62647 15.5877L7.37353 16.4124ZM7.73666 16.7022L11.7367 18.2022L12.2633 16.7978L8.26334 15.2978L7.73666 16.7022ZM12.2633 18.2022L16.2633 16.7022L15.7367 15.2978L11.7367 16.7978L12.2633 18.2022Z" fill="#141B34"/>
</svg>
