<svg width="24" height="25" viewBox="0 0 24 25" fill="none" xmlns="http://www.w3.org/2000/svg">
<path d="M12 2.0835L12.541 1.5641C12.3996 1.41677 12.2042 1.3335 12 1.3335C11.7958 1.3335 11.6004 1.41677 11.459 1.5641L12 2.0835ZM15 5.2085L14.459 5.7279L14.6803 5.9585H15V5.2085ZM19 5.2085H19.75C19.75 4.79428 19.4142 4.4585 19 4.4585V5.2085ZM19 9.37516H18.25V9.6769L18.459 9.89456L19 9.37516ZM22 12.5002L22.541 13.0196C22.8197 12.7293 22.8197 12.271 22.541 11.9808L22 12.5002ZM19 15.6252L18.459 15.1058L18.25 15.3234V15.6252H19ZM19 19.7918V20.5418C19.4142 20.5418 19.75 20.206 19.75 19.7918H19ZM15 19.7918V19.0418H14.6803L14.459 19.2724L15 19.7918ZM12 22.9168L11.459 23.4362C11.6004 23.5836 11.7958 23.6668 12 23.6668C12.2042 23.6668 12.3996 23.5836 12.541 23.4362L12 22.9168ZM9 19.7918L9.54104 19.2724L9.31966 19.0418H9V19.7918ZM5 19.7918H4.25C4.25 20.206 4.58579 20.5418 5 20.5418V19.7918ZM5 15.6252H5.75V15.3234L5.54104 15.1058L5 15.6252ZM2 12.5002L1.45896 11.9808C1.18035 12.271 1.18035 12.7293 1.45896 13.0196L2 12.5002ZM5 9.37516L5.54104 9.89456L5.75 9.6769V9.37516H5ZM5 5.2085V4.4585C4.58579 4.4585 4.25 4.79428 4.25 5.2085H5ZM9 5.2085V5.9585H9.31966L9.54104 5.7279L9 5.2085ZM11.459 2.60289L14.459 5.7279L15.541 4.6891L12.541 1.5641L11.459 2.60289ZM15 5.9585H19V4.4585H15V5.9585ZM18.25 5.2085V9.37516H19.75V5.2085H18.25ZM18.459 9.89456L21.459 13.0196L22.541 11.9808L19.541 8.85576L18.459 9.89456ZM21.459 11.9808L18.459 15.1058L19.541 16.1446L22.541 13.0196L21.459 11.9808ZM18.25 15.6252V19.7918H19.75V15.6252H18.25ZM19 19.0418H15V20.5418H19V19.0418ZM14.459 19.2724L11.459 22.3974L12.541 23.4362L15.541 20.3112L14.459 19.2724ZM12.541 22.3974L9.54104 19.2724L8.45896 20.3112L11.459 23.4362L12.541 22.3974ZM9 19.0418H5V20.5418H9V19.0418ZM5.75 19.7918V15.6252H4.25V19.7918H5.75ZM5.54104 15.1058L2.54104 11.9808L1.45896 13.0196L4.45896 16.1446L5.54104 15.1058ZM2.54104 13.0196L5.54104 9.89456L4.45896 8.85576L1.45896 11.9808L2.54104 13.0196ZM5.75 9.37516V5.2085H4.25V9.37516H5.75ZM5 5.9585H9V4.4585H5V5.9585ZM9.54104 5.7279L12.541 2.60289L11.459 1.5641L8.45896 4.6891L9.54104 5.7279Z" fill="#141B34"/>
</svg>
