<svg width="24" height="24" viewBox="0 0 24 24" fill="none" xmlns="http://www.w3.org/2000/svg">
<path d="M16.5 18.5L16.0146 19.0718L16.5917 19.5616L17.0762 18.9801L16.5 18.5ZM21.25 17C21.25 19.3472 19.3472 21.25 17 21.25V22.75C20.1756 22.75 22.75 20.1756 22.75 17H21.25ZM17 21.25C14.6528 21.25 12.75 19.3472 12.75 17H11.25C11.25 20.1756 13.8244 22.75 17 22.75V21.25ZM12.75 17C12.75 14.6528 14.6528 12.75 17 12.75V11.25C13.8244 11.25 11.25 13.8244 11.25 17H12.75ZM17 12.75C19.3472 12.75 21.25 14.6528 21.25 17H22.75C22.75 13.8244 20.1756 11.25 17 11.25V12.75ZM14.5146 17.7984L16.0146 19.0718L16.9854 17.9282L15.4854 16.6549L14.5146 17.7984ZM17.0762 18.9801L19.5756 15.9801L18.4231 15.0199L15.9238 18.0199L17.0762 18.9801Z" fill="#141B34"/>
<path d="M20.3475 10.5674L22 9.59808L19.0473 4.40192L16.8453 5.69363L14.9527 4.58152V2H9.04738V4.58152L7.15473 5.69367L4.95267 4.40192L2 9.59808L4.20152 10.8895L4.20153 13.1106L2.0001 14.4019L4.95277 19.5981L7.15477 18.3064L9.04738 19.4185V22H11.75M14.9106 10.0556C14.2828 9.11758 13.2135 8.5 12 8.5C10.067 8.5 8.5 10.067 8.5 12C8.5 13.2135 9.11758 14.2828 10.0556 14.9106" stroke="#141B34" stroke-width="1.5" stroke-linejoin="round"/>
</svg>
