<svg width="24" height="24" viewBox="0 0 24 24" fill="none" xmlns="http://www.w3.org/2000/svg">
<path d="M12.333 6.28839L10.5039 8.36071C11.8936 8.36071 12.5884 8.36071 13.1172 8.56242C14.0392 8.91416 14.723 9.68527 14.9445 10.623C15.0714 11.1607 14.9684 11.828 14.7622 13.1627L14.0039 17.101L19.2539 17.101C20.2204 17.101 21.0039 17.8619 21.0039 18.8005C21.0039 19.7391 20.2204 20.5 19.2539 20.5H7.00391C4.79477 20.5 3.00391 18.7091 3.00391 16.5L3.00391 11.0144C3.00391 9.74728 3.6043 8.55508 4.62237 7.80065L9.91557 3.87817C10.5508 3.37697 11.4598 3.37363 12.0989 3.87014C12.867 4.46692 12.9731 5.56307 12.333 6.28839Z" stroke="#141B34" stroke-width="1.5" stroke-linecap="round"/>
</svg>
