<svg width="24" height="24" viewBox="0 0 24 24" fill="none" xmlns="http://www.w3.org/2000/svg">
<path d="M21 12C21 16.9706 16.9706 21 12 21C7.02944 21 3 16.9706 3 12C3 7.02944 7.02944 3 12 3" stroke="#141B34" stroke-width="1.5"/>
<path d="M21 7L21.5303 7.53033L22.0607 7L21.5303 6.46967L21 7ZM11 7.02276L10.9983 6.27277C10.5847 6.27371 10.25 6.60922 10.25 7.02276H11ZM20.9983 6.25L10.9983 6.27277L11.0017 7.77276L21.0017 7.75L20.9983 6.25ZM21.5303 6.46967L18.5303 3.46967L17.4697 4.53033L20.4697 7.53033L21.5303 6.46967ZM18.5303 10.5303L21.5303 7.53033L20.4697 6.46967L17.4697 9.46967L18.5303 10.5303ZM11.75 15V7.02276H10.25V15H11.75Z" fill="#141B34"/>
</svg>
