<svg width="24" height="24" viewBox="0 0 24 24" fill="none" xmlns="http://www.w3.org/2000/svg">
<path d="M8 6V19M5.00018 9.87917V18.9079M2 11.6296V17.1574" stroke="#141B34" stroke-width="1.5" stroke-linejoin="round"/>
<path d="M11 5V4.25H10.25V5H11ZM12 5.75C14.6729 5.75 16.75 7.76038 16.75 10.1333H18.25C18.25 6.83616 15.4022 4.25 12 4.25V5.75ZM21.25 14.8C21.25 16.6575 19.6206 18.25 17.5 18.25V19.75C20.3499 19.75 22.75 17.5817 22.75 14.8H21.25ZM17.5 11.35C19.6206 11.35 21.25 12.9425 21.25 14.8H22.75C22.75 12.0183 20.3499 9.85 17.5 9.85V11.35ZM17.481 11.35C17.4874 11.35 17.4937 11.35 17.5 11.35V9.85C17.4914 9.85 17.4827 9.85002 17.4742 9.85006L17.481 11.35ZM16.75 10.1333C16.75 10.2665 16.7436 10.3982 16.731 10.528L18.2241 10.6721C18.2413 10.4945 18.25 10.3148 18.25 10.1333H16.75ZM16.731 10.528C16.645 11.4193 16.2688 12.2389 15.6812 12.903L16.8045 13.897C17.5884 13.0111 18.1057 11.8984 18.2241 10.6721L16.731 10.528ZM14 19.75H17.5V18.25H14V19.75ZM12 4.25H11V5.75H12V4.25ZM10.25 5V19H11.75V5H10.25Z" fill="#141B34"/>
</svg>
