<svg width="24" height="24" viewBox="0 0 24 24" fill="none" xmlns="http://www.w3.org/2000/svg">
<path d="M3 10.5V21.5H21V10.5" stroke="#141B34" stroke-width="1.5" stroke-linejoin="round"/>
<path d="M15 17C14.3159 17.6072 13.2268 18 12 18C10.7732 18 9.68409 17.6072 9 17" stroke="#141B34" stroke-width="1.5"/>
<path d="M4.00195 2.5L4.00196 1.75L3.44802 1.75L3.28512 2.27944L4.00195 2.5ZM2.00195 9.00006L1.28512 8.7795C1.21595 9.0043 1.25624 9.24852 1.39395 9.43919L2.00195 9.00006ZM20.002 2.50008L20.7188 2.27968L20.556 1.75008L20.002 1.75008L20.002 2.50008ZM22.0003 9.00006L22.6083 9.43919C22.746 9.24857 22.7863 9.00442 22.7172 8.77966L22.0003 9.00006ZM10.873 8.68824L11.0612 7.96224L9.60914 7.58587L9.42096 8.31188L10.873 8.68824ZM16.627 8.68824L16.8152 7.96224L15.3632 7.58587L15.175 8.31188L16.627 8.68824ZM3.28512 2.27944L1.28512 8.7795L2.71879 9.22062L4.71879 2.72056L3.28512 2.27944ZM19.2851 2.72047L21.2834 9.22046L22.7172 8.77966L20.7188 2.27968L19.2851 2.72047ZM4.00195 3.25L20.0019 3.25008L20.002 1.75008L4.00196 1.75L4.00195 3.25ZM11.9996 10.7501C11.0807 10.7501 10.252 10.3763 9.65664 9.77322L8.58923 10.8271C9.45603 11.705 10.6649 12.2501 11.9996 12.2501V10.7501ZM17.755 10.7501C16.8358 10.7501 16.0069 10.376 15.4115 9.77267L14.3438 10.8263C15.2107 11.7047 16.4199 12.2501 17.755 12.2501V10.7501ZM6.24558 10.7501C4.43185 10.7501 3.4093 9.66768 2.60995 8.56093L1.39395 9.43919C2.26571 10.6462 3.67886 12.2501 6.24558 12.2501V10.7501ZM9.42096 8.31188C9.05824 9.71122 7.77581 10.7501 6.24558 10.7501V12.2501C8.4694 12.2501 10.3413 10.7394 10.873 8.68824L9.42096 8.31188ZM15.175 8.31188C14.8123 9.71122 13.5298 10.7501 11.9996 10.7501V12.2501C14.2234 12.2501 16.0953 10.7394 16.627 8.68824L15.175 8.31188ZM21.3923 8.56093C20.5932 9.66735 19.5689 10.7501 17.755 10.7501V12.2501C20.3215 12.2501 21.7363 10.6465 22.6083 9.43919L21.3923 8.56093Z" fill="#141B34"/>
</svg>
