<svg width="24" height="24" viewBox="0 0 24 24" fill="none" xmlns="http://www.w3.org/2000/svg">
<path d="M8 19C8 20.6569 6.65685 22 5 22C3.34315 22 2 20.6569 2 19C2 17.3431 3.34315 16 5 16C6.65685 16 8 17.3431 8 19Z" stroke="#141B34" stroke-width="1.5"/>
<path d="M22 19C22 20.6569 20.6569 22 19 22C17.3431 22 16 20.6569 16 19C16 17.3431 17.3431 16 19 16C20.6569 16 22 17.3431 22 19Z" stroke="#141B34" stroke-width="1.5"/>
<path d="M19 16L19 13H5.00138L5 16" stroke="#141B34" stroke-width="1.5" stroke-linejoin="round"/>
<path d="M7.5 2V1.25C7.08579 1.25 6.75 1.58579 6.75 2H7.5ZM7.5 10H6.75C6.75 10.4142 7.08579 10.75 7.5 10.75V10ZM16.5 10V10.75C16.9142 10.75 17.25 10.4142 17.25 10H16.5ZM16.5 4H17.25C17.25 3.58579 16.9142 3.25 16.5 3.25V4ZM12.5 4L11.9697 4.53033L12.1893 4.75H12.5V4ZM10.5 2L11.0303 1.46967L10.8107 1.25H10.5V2ZM6.75 2V10H8.25V2H6.75ZM7.5 10.75H16.5V9.25H7.5V10.75ZM17.25 10V4H15.75V10H17.25ZM16.5 3.25H12.5V4.75H16.5V3.25ZM13.0303 3.46967L11.0303 1.46967L9.96967 2.53033L11.9697 4.53033L13.0303 3.46967ZM10.5 1.25H7.5V2.75H10.5V1.25Z" fill="#141B34"/>
</svg>
