<svg width="24" height="24" viewBox="0 0 24 24" fill="none" xmlns="http://www.w3.org/2000/svg">
<path d="M7.0019 4V3.25C6.58787 3.25 6.25216 3.5855 6.2519 3.99953L7.0019 4ZM7.00192 20L6.25192 20.0005C6.25218 20.4145 6.58789 20.75 7.00192 20.75V20ZM12 3.25H7.0019V4.75H12V3.25ZM7.00192 20.75H12V19.25H7.00192V20.75ZM7.75 7.00047L7.7519 4.00047L6.2519 3.99953L6.25 6.99953L7.75 7.00047ZM7.75192 19.9995L7.75 16.9995L6.25 17.0005L6.25192 20.0005L7.75192 19.9995Z" fill="#141B34"/>
<path d="M22 22V16H15V22H22Z" stroke="#141B34" stroke-width="1.5" stroke-linejoin="round"/>
<path d="M22 8V2H15V8H22Z" stroke="#141B34" stroke-width="1.5" stroke-linejoin="round"/>
<path d="M8.5 10.5L7 12M7 12L5.5 13.5M7 12L8.5 13.5M7 12L5.5 10.5M12 12C12 14.7614 9.76142 17 7 17C4.23858 17 2 14.7614 2 12C2 9.23858 4.23858 7 7 7C9.76142 7 12 9.23858 12 12Z" stroke="#141B34" stroke-width="1.5" stroke-linejoin="round"/>
</svg>
