<svg width="24" height="24" viewBox="0 0 24 24" fill="none" xmlns="http://www.w3.org/2000/svg">
<path d="M22 5L22.7354 5.14709C22.8139 4.75452 22.5703 4.36949 22.1819 4.27239L22 5ZM19 20V20.75H19.6149L19.7354 20.1471L19 20ZM15 8.00977L14.472 8.54242C14.6261 8.69519 14.8388 8.77372 15.0552 8.75773C15.2717 8.74175 15.4705 8.63282 15.6005 8.45907L15 8.00977ZM16 2L16.5303 1.46967C16.2653 1.2046 15.8452 1.17595 15.5466 1.40259L16 2ZM2 5L1.8181 4.27239C1.42971 4.36949 1.18605 4.75452 1.26456 5.14709L2 5ZM5 20L4.26456 20.1471L4.38515 20.75H5V20ZM9 8.00977L8.39947 8.45907C8.52947 8.63282 8.72835 8.74175 8.94476 8.75773C9.16116 8.77372 9.37389 8.69519 9.528 8.54242L9 8.00977ZM8 2L8.45343 1.40259C8.15483 1.17595 7.73474 1.2046 7.46967 1.46967L8 2ZM21.2646 4.85291L18.2646 19.8529L19.7354 20.1471L22.7354 5.14709L21.2646 4.85291ZM17.3995 3.5507L14.3995 7.56047L15.6005 8.45907L18.6005 4.4493L17.3995 3.5507ZM15.528 7.47712L12.528 4.50332L11.472 5.56862L14.472 8.54242L15.528 7.47712ZM12.4534 5.63338L16.4534 2.59741L15.5466 1.40259L11.5466 4.43856L12.4534 5.63338ZM15.4697 2.53033L17.4697 4.53033L18.5303 3.46967L16.5303 1.46967L15.4697 2.53033ZM22.1819 4.27239L18.1819 3.27239L17.8181 4.72761L21.8181 5.72761L22.1819 4.27239ZM16.5 20.75H19V19.25H16.5V20.75ZM1.26456 5.14709L4.26456 20.1471L5.73544 19.8529L2.73544 4.85291L1.26456 5.14709ZM5.39947 4.4493L8.39947 8.45907L9.60053 7.56047L6.60053 3.5507L5.39947 4.4493ZM9.528 8.54242L12.528 5.56862L11.472 4.50332L8.472 7.47712L9.528 8.54242ZM12.4534 4.43856L8.45343 1.40259L7.54657 2.59741L11.5466 5.63338L12.4534 4.43856ZM7.46967 1.46967L5.46967 3.46967L6.53033 4.53033L8.53033 2.53033L7.46967 1.46967ZM2.1819 5.72761L6.1819 4.72761L5.8181 3.27239L1.8181 4.27239L2.1819 5.72761ZM7.5 19.25H5V20.75H7.5V19.25Z" fill="#141B34"/>
<path d="M10 7L11.5711 9.5L9 18L11.9993 22L14.9993 18L12.428 9.5L14 7" stroke="#141B34" stroke-width="1.5" stroke-linejoin="round"/>
</svg>
