<svg width="24" height="24" viewBox="0 0 24 24" fill="none" xmlns="http://www.w3.org/2000/svg">
<path d="M6 11L6 22H18V11" stroke="#141B34" stroke-width="1.5"/>
<path d="M20.5 7L21.2184 6.78449C21.1589 6.58641 21.0204 6.42166 20.8354 6.32918L20.5 7ZM17.5 5.5L16.8569 5.88587C16.9303 6.00818 17.037 6.10703 17.1646 6.17082L17.5 5.5ZM16 3L16.6431 2.61413L16.5563 2.46951L16.416 2.37596L16 3ZM22 12L22.3354 12.6708C22.6615 12.5078 22.8231 12.1337 22.7184 11.7845L22 12ZM3.5 7L3.16459 6.32918C2.97962 6.42166 2.84105 6.58641 2.78163 6.78449L3.5 7ZM6.5 5.5L6.83541 6.17082C6.96299 6.10703 7.06973 6.00818 7.14312 5.88587L6.5 5.5ZM8 3L7.58398 2.37596L7.44365 2.46951L7.35688 2.61413L8 3ZM2 12L1.28163 11.7845C1.17685 12.1337 1.33845 12.5078 1.66459 12.6708L2 12ZM20.8354 6.32918L17.8354 4.82918L17.1646 6.17082L20.1646 7.67082L20.8354 6.32918ZM18.1431 5.11413L16.6431 2.61413L15.3569 3.38587L16.8569 5.88587L18.1431 5.11413ZM21.6646 11.3292L17.6646 13.3292L18.3354 14.6708L22.3354 12.6708L21.6646 11.3292ZM19.7816 7.21551L21.2816 12.2155L22.7184 11.7845L21.2184 6.78449L19.7816 7.21551ZM12 2.75C13.1491 2.75 14.0621 2.97973 14.6812 3.20485C14.9908 3.31742 15.2262 3.42861 15.3796 3.50869C15.4563 3.5487 15.5124 3.58084 15.5468 3.60136C15.564 3.61161 15.5758 3.61894 15.582 3.62289C15.5852 3.62486 15.5869 3.62598 15.5872 3.62619C15.5874 3.6263 15.5872 3.62617 15.5867 3.62582C15.5864 3.62564 15.586 3.6254 15.5856 3.62511C15.5854 3.62496 15.5851 3.6248 15.5848 3.62462C15.5847 3.62453 15.5845 3.62438 15.5844 3.62434C15.5842 3.62419 15.584 3.62404 16 3C16.416 2.37596 16.4158 2.3758 16.4155 2.37564C16.4154 2.37558 16.4152 2.37541 16.415 2.37529C16.4147 2.37505 16.4143 2.3748 16.4139 2.37453C16.4131 2.37399 16.4121 2.37339 16.4111 2.37273C16.4091 2.37141 16.4068 2.36986 16.404 2.36807C16.3985 2.3645 16.3915 2.36001 16.383 2.35465C16.3661 2.34395 16.3432 2.3298 16.3145 2.31271C16.2572 2.27853 16.1765 2.23255 16.0735 2.17881C15.8676 2.07139 15.5717 1.93258 15.1938 1.79515C14.4379 1.52027 13.3509 1.25 12 1.25V2.75ZM3.83541 7.67082L6.83541 6.17082L6.16459 4.82918L3.16459 6.32918L3.83541 7.67082ZM7.14312 5.88587L8.64312 3.38587L7.35688 2.61413L5.85688 5.11413L7.14312 5.88587ZM1.66459 12.6708L5.66459 14.6708L6.33541 13.3292L2.33541 11.3292L1.66459 12.6708ZM2.78163 6.78449L1.28163 11.7845L2.71837 12.2155L4.21837 7.21551L2.78163 6.78449ZM12 1.25C10.6491 1.25 9.56212 1.52027 8.80619 1.79515C8.42828 1.93258 8.1324 2.07139 7.92651 2.17881C7.82351 2.23255 7.74284 2.27853 7.68548 2.3127C7.65679 2.3298 7.63391 2.34395 7.61696 2.35465C7.60848 2.36001 7.60149 2.3645 7.59599 2.36807C7.59323 2.36986 7.59086 2.37141 7.58885 2.37273C7.58785 2.37339 7.58695 2.37399 7.58613 2.37453C7.58573 2.3748 7.58534 2.37505 7.58498 2.37529C7.5848 2.37541 7.58455 2.37558 7.58446 2.37564C7.58422 2.3758 7.58398 2.37596 8 3C8.41602 3.62404 8.4158 3.62419 8.41557 3.62434C8.41551 3.62438 8.41529 3.62453 8.41515 3.62462C8.41489 3.6248 8.41464 3.62496 8.41442 3.62511C8.41397 3.6254 8.41361 3.62564 8.41334 3.62582C8.4128 3.62617 8.41261 3.6263 8.41277 3.62619C8.4131 3.62598 8.41483 3.62486 8.41795 3.62289C8.42419 3.61894 8.43598 3.61161 8.45319 3.60136C8.48763 3.58084 8.54367 3.5487 8.62036 3.50869C8.77385 3.42861 9.00923 3.31742 9.31881 3.20485C9.93788 2.97973 10.8509 2.75 12 2.75V1.25Z" fill="#141B34"/>
<path d="M6.5 5.5L12 9.5L17.5 5.5" stroke="#141B34" stroke-width="1.5" stroke-linecap="round"/>
<path d="M9.5 2.5L10.5 8.5M14.5 2.5L13.5 8.5" stroke="#141B34" stroke-width="1.5" stroke-linejoin="round"/>
</svg>
