<svg width="24" height="24" viewBox="0 0 24 24" fill="none" xmlns="http://www.w3.org/2000/svg">
<path d="M2 3L2 21L22 21V3L2 3Z" stroke="#141B34" stroke-width="1.5" stroke-linejoin="round"/>
<path d="M10.5 16H9.75V16.75H10.5V16ZM10.5 13.5L9.96967 12.9697L9.75 13.1893V13.5H10.5ZM13 16V16.75H13.3107L13.5303 16.5303L13 16ZM16 8L16.5303 7.46967C16.2374 7.17678 15.7626 7.17678 15.4697 7.46967L16 8ZM18.5 10.5L19.0303 11.0303C19.3232 10.7374 19.3232 10.2626 19.0303 9.96967L18.5 10.5ZM11.25 16V13.5H9.75V16H11.25ZM10.5 16.75H13V15.25H10.5V16.75ZM11.0303 14.0303L16.5303 8.53033L15.4697 7.46967L9.96967 12.9697L11.0303 14.0303ZM15.4697 8.53033L17.9697 11.0303L19.0303 9.96967L16.5303 7.46967L15.4697 8.53033ZM17.9697 9.96967L12.4697 15.4697L13.5303 16.5303L19.0303 11.0303L17.9697 9.96967Z" fill="#141B34"/>
<path d="M6.5 3V21" stroke="#141B34" stroke-width="1.5" stroke-linejoin="round"/>
</svg>
