<svg width="24" height="24" viewBox="0 0 24 24" fill="none" xmlns="http://www.w3.org/2000/svg">
<path d="M21.9992 3.5H22.7492C22.7492 3.08579 22.4134 2.75 21.9992 2.75V3.5ZM2 3.5V2.75C1.58579 2.75 1.25 3.08579 1.25 3.5H2ZM2 20.5H1.25C1.25 20.9142 1.58579 21.25 2 21.25V20.5ZM21.9992 20.5V21.25C22.4134 21.25 22.7492 20.9142 22.7492 20.5H21.9992ZM2 9.5H1.25V10.25H2V9.5ZM2 14.5V13.75H1.25V14.5H2ZM21.9992 2.75H2V4.25H21.9992V2.75ZM2 21.25H21.9992V19.75H2V21.25ZM1.25 3.5V9.5H2.75V3.5H1.25ZM2 10.25H2.4731V8.75H2V10.25ZM2.4731 13.75H2V15.25H2.4731V13.75ZM1.25 14.5V20.5H2.75V14.5H1.25ZM2.4731 10.25C3.4396 10.25 4.2231 11.0335 4.2231 12H5.7231C5.7231 10.2051 4.26803 8.75 2.4731 8.75V10.25ZM4.2231 12C4.2231 12.9665 3.4396 13.75 2.4731 13.75V15.25C4.26803 15.25 5.7231 13.7949 5.7231 12H4.2231ZM21.2492 3.5V20.5H22.7492V3.5H21.2492Z" fill="#141B34"/>
<path d="M13 12L18 12" stroke="#141B34" stroke-width="1.5" stroke-linejoin="round"/>
<path d="M9 16L18 16" stroke="#141B34" stroke-width="1.5" stroke-linejoin="round"/>
</svg>
