<svg width="24" height="24" viewBox="0 0 24 24" fill="none" xmlns="http://www.w3.org/2000/svg">
<path d="M10 8L9.34882 8.3721C9.48235 8.60579 9.73086 8.75 10 8.75V8ZM12 2L12.3975 1.364C12.1543 1.212 11.8457 1.212 11.6025 1.364L12 2ZM16 4.5L16.6512 4.8721L17.0089 4.24612L16.3975 3.864L16 4.5ZM8 4.5L7.6025 3.864L6.99111 4.24612L7.34882 4.8721L8 4.5ZM14 8V8.75C14.2691 8.75 14.5177 8.60579 14.6512 8.3721L14 8ZM11.6025 2.636L15.6025 5.136L16.3975 3.864L12.3975 1.364L11.6025 2.636ZM11.6025 1.364L7.6025 3.864L8.3975 5.136L12.3975 2.636L11.6025 1.364ZM15.3488 4.1279L13.3488 7.6279L14.6512 8.3721L16.6512 4.8721L15.3488 4.1279ZM14 7.25L10 7.25L10 8.75L14 8.75V7.25ZM7.34882 4.8721L9.34882 8.3721L10.6512 7.6279L8.65118 4.1279L7.34882 4.8721Z" fill="#141B34"/>
<path d="M10.8058 8.18727L10.9931 7.46102L9.5406 7.08649L9.35333 7.81273L10.8058 8.18727ZM7.50098 18L6.77473 17.8127L6.66037 18.2563L7.0027 18.5606L7.50098 18ZM14.6472 7.81268L14.4599 7.08645L13.0074 7.46109L13.1947 8.18732L14.6472 7.81268ZM16.5003 18L16.9986 18.5605L17.3409 18.2562L17.2265 17.8127L16.5003 18ZM12.001 22L11.5027 22.5606C11.7869 22.8132 12.2151 22.8131 12.4993 22.5605L12.001 22ZM9.35333 7.81273L6.77473 17.8127L8.22722 18.1873L10.8058 8.18727L9.35333 7.81273ZM13.1947 8.18732L15.774 18.1873L17.2265 17.8127L14.6472 7.81268L13.1947 8.18732ZM7.0027 18.5606L11.5027 22.5606L12.4992 21.4394L7.99925 17.4394L7.0027 18.5606ZM12.4993 22.5605L16.9986 18.5605L16.0019 17.4395L11.5027 21.4395L12.4993 22.5605Z" fill="#141B34"/>
</svg>
