<svg width="24" height="24" viewBox="0 0 24 24" fill="none" xmlns="http://www.w3.org/2000/svg">
<path d="M21 3V21H3V3H21Z" stroke="#141B34" stroke-width="1.5" stroke-linejoin="round"/>
<path d="M16.3239 9.89945L15.6465 10.2214C15.6494 10.2275 15.6523 10.2334 15.6554 10.2394L16.3239 9.89945ZM12.9613 17.8739L12.838 17.1341C12.825 17.1363 12.812 17.1388 12.7992 17.1416L12.9613 17.8739ZM8.55235 9.5186L9.07262 10.059L9.082 10.0496L8.55235 9.5186ZM9.49988 8.66658L10.2158 8.44289L9.90494 7.44822L9.06045 8.0588L9.49988 8.66658ZM10.1249 10.6668L9.40904 10.8905C9.50688 11.2036 9.79686 11.4168 10.1249 11.4168V10.6668ZM12.3669 6L12.7171 5.3368C12.4694 5.20599 12.1694 5.22412 11.9393 5.38382C11.7091 5.54353 11.5872 5.81817 11.623 6.09599L12.3669 6ZM15.6554 10.2394C16.3605 11.6262 16.4251 13.2462 15.9203 14.5696C15.4222 15.8753 14.3821 16.8768 12.838 17.1341L13.0846 18.6137C15.2162 18.2584 16.6574 16.8459 17.3218 15.1042C17.9793 13.3802 17.8873 11.3193 16.9924 9.55949L15.6554 10.2394ZM12.7992 17.1416C8.7333 18.0416 5.99549 13.0215 9.07254 10.0589L8.03215 8.97832C3.87643 12.9796 7.56136 19.8373 13.1233 18.6062L12.7992 17.1416ZM9.082 10.0496C9.27724 9.85486 9.77154 9.39566 9.93932 9.27436L9.06045 8.0588C8.78446 8.25834 8.21372 8.79706 8.0227 8.98758L9.082 10.0496ZM8.78402 8.89027L9.40904 10.8905L10.8408 10.4431L10.2158 8.44289L8.78402 8.89027ZM10.1249 11.4168C11.567 11.4168 12.4019 10.4256 12.8032 9.34451C13.1984 8.28014 13.2499 6.98303 13.1107 5.90401L11.623 6.09599C11.7419 7.01722 11.6825 8.05352 11.397 8.8225C11.1178 9.57478 10.7026 9.91683 10.1249 9.91683V11.4168ZM12.0166 6.6632C13.6054 7.50219 14.8947 8.6397 15.6465 10.2214L17.0013 9.57746C16.0731 7.62481 14.5035 6.28016 12.7171 5.3368L12.0166 6.6632Z" fill="#141B34"/>
</svg>
