<svg width="24" height="24" viewBox="0 0 24 24" fill="none" xmlns="http://www.w3.org/2000/svg">
<path d="M21.4484 13.9694L20.9205 14.5022L21.4484 13.9694ZM21.1863 18.5514L21.8607 18.8794L21.8607 18.8794L21.1863 18.5514ZM20.2872 20L19.6804 19.5591L19.5372 19.7563V20H20.2872ZM13 15.258L12.5062 15.8225L13.75 16.9107V15.258H13ZM11.2615 13.737L11.7554 13.1725L11.754 13.1713L11.2615 13.737ZM9.30671 15.6709L8.72105 16.1394L8.72663 16.1464L8.73237 16.1532L9.30671 15.6709ZM12.9421 20H13.6921V19.7269L13.5164 19.5177L12.9421 20ZM9.3002 13.9242L8.71102 13.4602L8.71102 13.4602L9.3002 13.9242ZM16 11.9796H15.25V12.7632L16.0328 12.7289L16 11.9796ZM20.9205 14.5022C21.2056 14.7847 21.3244 15.3167 21.2033 16.1129C21.0876 16.8736 20.7801 17.6717 20.5118 18.2233L21.8607 18.8794C22.167 18.2497 22.5398 17.3011 22.6862 16.3384C22.8272 15.4112 22.7898 14.2428 21.9763 13.4367L20.9205 14.5022ZM20.5118 18.2233C20.3781 18.4983 20.1747 18.8281 19.9938 19.1028C19.9054 19.237 19.8261 19.3524 19.7691 19.4339C19.7407 19.4746 19.718 19.5067 19.7026 19.5282C19.6949 19.539 19.6891 19.5471 19.6853 19.5523C19.6834 19.5549 19.6821 19.5568 19.6812 19.558C19.6808 19.5585 19.6806 19.5589 19.6804 19.5591C19.6803 19.5592 19.6803 19.5593 19.6803 19.5593C19.6803 19.5593 19.6803 19.5592 19.6803 19.5592C19.6804 19.5592 19.6804 19.5592 19.6804 19.5592C19.6804 19.5591 19.6804 19.5591 20.2872 20C20.8939 20.4409 20.8939 20.4408 20.8939 20.4408C20.894 20.4408 20.894 20.4407 20.894 20.4407C20.8941 20.4406 20.8941 20.4405 20.8942 20.4404C20.8943 20.4402 20.8945 20.44 20.8947 20.4397C20.8952 20.4391 20.8957 20.4383 20.8964 20.4373C20.8979 20.4354 20.8998 20.4327 20.9023 20.4292C20.9073 20.4222 20.9145 20.4123 20.9235 20.3997C20.9415 20.3745 20.9671 20.3383 20.9987 20.2931C21.0618 20.2028 21.149 20.0759 21.2465 19.9279C21.4374 19.638 21.6836 19.2435 21.8607 18.8794L20.5118 18.2233ZM13.4938 14.6935L11.7554 13.1725L10.7677 14.3015L12.5062 15.8225L13.4938 14.6935ZM8.73237 16.1532L12.3677 20.4823L13.5164 19.5177L9.88106 15.1886L8.73237 16.1532ZM8.71102 13.4602C8.09263 14.2453 8.09672 15.359 8.72105 16.1394L9.89238 15.2024C9.70371 14.9665 9.70238 14.6257 9.88939 14.3883L8.71102 13.4602ZM11.754 13.1713C10.8407 12.3763 9.45892 12.5106 8.71102 13.4602L9.88939 14.3883C10.1095 14.1088 10.5058 14.0735 10.7691 14.3027L11.754 13.1713ZM19.5372 20V22H21.0372V20H19.5372ZM12.25 7.5V15.258H13.75V7.5H12.25ZM15.25 7.5V11.9796H16.75V7.5H15.25ZM16.0328 12.7289C17.3045 12.6732 19.3922 12.9879 20.9205 14.5022L21.9763 13.4367C20.0407 11.5188 17.4714 11.1645 15.9672 11.2304L16.0328 12.7289ZM13.75 7.5C13.75 7.08579 14.0858 6.75 14.5 6.75V5.25C13.2574 5.25 12.25 6.25736 12.25 7.5H13.75ZM14.5 6.75C14.9142 6.75 15.25 7.08579 15.25 7.5H16.75C16.75 6.25736 15.7426 5.25 14.5 5.25V6.75ZM13.6921 22V20H12.1921V22H13.6921Z" fill="#141B34"/>
<path d="M22 10V2H2V17.9977H7" stroke="#141B34" stroke-width="1.5" stroke-linejoin="round"/>
</svg>
