<svg width="24" height="24" viewBox="0 0 24 24" fill="none" xmlns="http://www.w3.org/2000/svg">
<path d="M16.1694 6.73664L15.7688 6.10261L15.0436 6.56082L15.5946 7.21833L16.1694 6.73664ZM17.3069 8.09414L16.732 8.57583L16.7349 8.57928L17.3069 8.09414ZM18.6548 10.767L19.386 10.6003V10.6003L18.6548 10.767ZM18.5854 13.7036L17.8631 13.5015L17.8597 13.5141L18.5854 13.7036ZM18.5738 13.7482L17.8481 13.5587C17.8463 13.5656 17.8446 13.5726 17.843 13.5796L18.5738 13.7482ZM18.5663 13.7805L17.8355 13.6119L17.8354 13.6125L18.5663 13.7805ZM4 19.6807L3.59938 19.0467C3.33491 19.2138 3.20194 19.5275 3.26578 19.8338C3.32962 20.1401 3.57686 20.3745 3.88607 20.422L4 19.6807ZM7.83384 17.2583L8.23446 17.8924L8.95963 17.4342L8.40873 16.7767L7.83384 17.2583ZM6.69649 15.9009L7.27138 15.4192L7.26842 15.4157L6.69649 15.9009ZM5.34841 13.228L6.07965 13.0613L5.34841 13.228ZM5.4177 10.2913L6.14006 10.4935L6.14336 10.4808L5.4177 10.2913ZM5.42933 10.2468L6.15499 10.4363C6.15681 10.4293 6.15853 10.4223 6.16015 10.4153L5.42933 10.2468ZM5.43679 10.2145L6.16761 10.383L6.16775 10.3824L5.43679 10.2145ZM20 4.3162L20.4006 4.95023C20.6652 4.78305 20.7982 4.46916 20.7341 4.16281C20.6701 3.85646 20.4226 3.62206 20.1133 3.5748L20 4.3162ZM15.5946 7.21833L16.732 8.57582L17.8818 7.61245L16.7443 6.25496L15.5946 7.21833ZM16.7349 8.57928C17.3234 9.27306 17.729 10.08 17.9236 10.9337L19.386 10.6003C19.1365 9.50531 18.6187 8.48121 17.8788 7.609L16.7349 8.57928ZM17.9236 10.9337C18.1181 11.787 18.097 12.6661 17.8632 13.5015L19.3077 13.9058C19.6092 12.8283 19.6357 11.6957 19.386 10.6003L17.9236 10.9337ZM17.8597 13.5141L17.8481 13.5587L19.2994 13.9377L19.3111 13.8932L17.8597 13.5141ZM17.843 13.5796L17.8355 13.6119L19.2971 13.9491L19.3046 13.9167L17.843 13.5796ZM17.8354 13.6125C17.8169 13.6931 17.3858 15.4721 15.5083 17.0019C13.6535 18.5132 10.26 19.884 4.11393 18.9394L3.88607 20.422C10.3477 21.4151 14.1986 20.0039 16.4558 18.1648C18.6902 16.3441 19.2385 14.2042 19.2973 13.9485L17.8354 13.6125ZM8.40873 16.7767L7.27137 15.4192L6.1216 16.3825L7.25896 17.74L8.40873 16.7767ZM7.26842 15.4157C6.6799 14.7219 6.27425 13.9149 6.07965 13.0613L4.61717 13.3947C4.86681 14.4897 5.38467 15.5138 6.12455 16.386L7.26842 15.4157ZM6.07965 13.0613C5.88512 12.2079 5.90616 11.3288 6.13995 10.4934L4.69546 10.0892C4.39391 11.1667 4.36748 12.2994 4.61717 13.3947L6.07965 13.0613ZM6.14336 10.4808L6.15499 10.4363L4.70368 10.0572L4.69205 10.1018L6.14336 10.4808ZM6.16015 10.4153L6.1676 10.383L4.70597 10.0459L4.69852 10.0782L6.16015 10.4153ZM6.16775 10.3824C6.18612 10.3024 6.61623 8.52679 8.4929 6.99878C10.3471 5.4891 13.7402 4.11862 19.8867 5.0576L20.1133 3.5748C13.6519 2.58772 9.80202 3.99854 7.54581 5.83558C5.31212 7.65429 4.76457 9.79083 4.70583 10.0465L6.16775 10.3824ZM19.5994 3.68217L15.7688 6.10261L16.5701 7.37067L20.4006 4.95023L19.5994 3.68217ZM4.40062 20.3148L8.23446 17.8924L7.43323 16.6243L3.59938 19.0467L4.40062 20.3148Z" fill="#141B34"/>
<circle cx="12" cy="12" r="3" stroke="#141B34" stroke-width="1.5"/>
</svg>
