<svg width="24" height="24" viewBox="0 0 24 24" fill="none" xmlns="http://www.w3.org/2000/svg">
<path d="M12.4494 13L13.9996 15.5M13.9996 15.5L15.5498 18M13.9996 15.5L15.5498 13M13.9996 15.5L12.4494 18M17.8997 13H19.4498M19.4498 13H21M19.4498 13V18M7 13H8.55017M8.55017 13H10.1003M8.55017 13V18" stroke="#141B34" stroke-width="1.5" stroke-linejoin="round"/>
<path d="M3 22H2.25C2.25 22.4142 2.58579 22.75 3 22.75V22ZM20 2H20.75C20.75 1.58579 20.4142 1.25 20 1.25V2ZM10 2V1.25H9.68934L9.46967 1.46967L10 2ZM3 9L2.46967 8.46967L2.25 8.68934V9H3ZM10 9V9.75H10.75V9H10ZM20 21.25H3V22.75H20V21.25ZM19.25 2V10H20.75V2H19.25ZM20 1.25L10 1.25V2.75L20 2.75V1.25ZM2.25 9L2.25 22H3.75L3.75 9H2.25ZM9.46967 1.46967L2.46967 8.46967L3.53033 9.53033L10.5303 2.53033L9.46967 1.46967ZM9.25 2L9.25 9H10.75L10.75 2L9.25 2ZM10 8.25L3 8.25L3 9.75L10 9.75V8.25Z" fill="#141B34"/>
</svg>
