<svg width="24" height="24" viewBox="0 0 24 24" fill="none" xmlns="http://www.w3.org/2000/svg">
<path d="M17 13.4V14.15C17.4142 14.15 17.75 13.8142 17.75 13.4H17ZM14.9167 13.4V12.65H14.3283L14.1882 13.2215L14.9167 13.4ZM9.08333 13.4L9.81177 13.2215L9.67171 12.65H9.08333V13.4ZM7 13.4H6.25C6.25 13.8142 6.58579 14.15 7 14.15V13.4ZM13.6667 18.5V19.25C14.0121 19.25 14.3129 19.0141 14.3951 18.6785L13.6667 18.5ZM10.3333 18.5L9.60489 18.6785C9.68713 19.0141 9.98789 19.25 10.3333 19.25V18.5ZM16.25 11.7V13.4H17.75V11.7H16.25ZM17 12.65H14.9167V14.15H17V12.65ZM9.08333 12.65H7V14.15H9.08333V12.65ZM7.75 13.4V11.7H6.25V13.4H7.75ZM12 7.35C14.3333 7.35 16.25 9.28349 16.25 11.7H17.75C17.75 8.48321 15.1896 5.85 12 5.85V7.35ZM12 5.85C8.81043 5.85 6.25 8.48321 6.25 11.7H7.75C7.75 9.28349 9.66672 7.35 12 7.35V5.85ZM14.1882 13.2215L12.9382 18.3215L14.3951 18.6785L15.6451 13.5785L14.1882 13.2215ZM13.6667 17.75H10.3333V19.25H13.6667V17.75ZM11.0618 18.3215L9.81177 13.2215L8.35489 13.5785L9.60489 18.6785L11.0618 18.3215ZM13.75 4.05C13.75 5.05818 12.9526 5.85 12 5.85V7.35C13.8089 7.35 15.25 5.85847 15.25 4.05H13.75ZM12 5.85C11.0474 5.85 10.25 5.05818 10.25 4.05H8.75C8.75 5.85847 10.1911 7.35 12 7.35V5.85ZM10.25 4.05C10.25 3.04182 11.0474 2.25 12 2.25V0.75C10.1911 0.75 8.75 2.24153 8.75 4.05H10.25ZM12 2.25C12.9526 2.25 13.75 3.04182 13.75 4.05H15.25C15.25 2.24153 13.8089 0.75 12 0.75V2.25Z" fill="#141B34"/>
<path d="M7 16.5L5.5 16.5" stroke="#141B34" stroke-width="1.5" stroke-linejoin="round"/>
<path d="M12 21L12 23" stroke="#141B34" stroke-width="1.5" stroke-linejoin="round"/>
<path d="M18.5 16.5L17 16.5" stroke="#141B34" stroke-width="1.5" stroke-linejoin="round"/>
</svg>
