<svg width="24" height="24" viewBox="0 0 24 24" fill="none" xmlns="http://www.w3.org/2000/svg">
<path d="M14.501 19L13.9706 19.5303L14.501 20.0607L15.0313 19.5303L14.501 19ZM18.251 18C18.251 19.7949 16.7959 21.25 15.001 21.25V22.75C17.6243 22.75 19.751 20.6234 19.751 18H18.251ZM15.001 21.25C13.2061 21.25 11.751 19.7949 11.751 18H10.251C10.251 20.6234 12.3776 22.75 15.001 22.75V21.25ZM11.751 18C11.751 16.2051 13.2061 14.75 15.001 14.75V13.25C12.3776 13.25 10.251 15.3766 10.251 18H11.751ZM15.001 14.75C16.7959 14.75 18.251 16.2051 18.251 18H19.751C19.751 15.3766 17.6243 13.25 15.001 13.25V14.75ZM12.6992 18.2589L13.9706 19.5303L15.0313 18.4697L13.7599 17.1983L12.6992 18.2589ZM15.0313 19.5303L17.3559 17.2058L16.2952 16.1451L13.9706 18.4697L15.0313 19.5303Z" fill="#141B34"/>
<path d="M8.50067 18.5L8.88654 19.1431C9.08458 19.0243 9.21683 18.8209 9.24505 18.5916C9.27327 18.3624 9.1943 18.133 9.031 17.9697L8.50067 18.5ZM4.50067 14.5L3.97034 13.9697C3.67744 14.2626 3.67744 14.7374 3.97034 15.0303L4.50067 14.5ZM6.00067 20L5.47034 20.5303C5.71369 20.7737 6.09143 20.8202 6.38654 20.6431L6.00067 20ZM4.00067 18L3.38086 17.5777C3.17795 17.8755 3.21553 18.2755 3.47034 18.5303L4.00067 18ZM19.8654 6.11612L20.3958 5.58579L20.3958 5.58579L19.8654 6.11612ZM17.8844 4.13502L18.4147 3.60469V3.60469L17.8844 4.13502ZM17.3328 3.52705L16.7077 3.94135L16.7077 3.94135L17.3328 3.52705ZM17.0399 2.81988L17.775 2.67077L17.775 2.67076L17.0399 2.81988ZM20.4724 6.66681L20.8869 6.04175L20.8869 6.04175L20.4724 6.66681ZM21.1807 6.9602L21.3296 6.22512L21.1807 6.9602ZM9.031 17.9697L5.031 13.9697L3.97034 15.0303L7.97034 19.0303L9.031 17.9697ZM5.031 15.0303L12.5307 7.53066L11.47 6.47L3.97034 13.9697L5.031 15.0303ZM8.1148 17.8569L5.6148 19.3569L6.38654 20.6431L8.88654 19.1431L8.1148 17.8569ZM4.62048 18.4223L5.98315 16.4223L4.74353 15.5777L3.38086 17.5777L4.62048 18.4223ZM3.47034 18.5303L5.47034 20.5303L6.531 19.4697L4.531 17.4697L3.47034 18.5303ZM20.3958 5.58579L20.1967 5.38671L19.136 6.44737L19.3351 6.64645L20.3958 5.58579ZM20.1967 5.38671L18.6133 3.8033L17.5526 4.86396L19.136 6.44737L20.1967 5.38671ZM18.6133 3.8033L18.4147 3.60469L17.354 4.66535L17.5526 4.86396L18.6133 3.8033ZM18.4147 3.60469C18.0996 3.28963 18.0177 3.20277 17.958 3.11274L16.7077 3.94135C16.8699 4.18613 17.0817 4.39299 17.354 4.66535L18.4147 3.60469ZM16.25 2C16.25 2.38519 16.2465 2.68121 16.3049 2.969L17.775 2.67076C17.7535 2.56492 17.75 2.44557 17.75 2H16.25ZM17.958 3.11274C17.8691 2.97858 17.807 2.8285 17.775 2.67077L16.3049 2.969C16.3753 3.31602 16.5121 3.64618 16.7077 3.94135L17.958 3.11274ZM19.3351 6.64645C19.607 6.91836 19.8136 7.12983 20.0579 7.29186L20.8869 6.04175C20.7971 5.98217 20.7103 5.90033 20.3958 5.58579L19.3351 6.64645ZM21.9993 6.25C21.5545 6.25 21.4353 6.24653 21.3296 6.22512L21.0319 7.69527C21.3192 7.75347 21.6148 7.75 21.9993 7.75V6.25ZM20.0579 7.29186C20.3535 7.48788 20.6842 7.62486 21.0319 7.69527L21.3296 6.22512C21.1716 6.19312 21.0213 6.13085 20.8869 6.04175L20.0579 7.29186ZM9.96967 6.03033L11.47 7.53066L12.5307 6.47L11.0303 4.96967L9.96967 6.03033ZM11.47 7.53066L16.4697 12.5303L17.5303 11.4697L12.5307 6.47L11.47 7.53066ZM13.9685 8.58565L18.5515 4.91928L17.6144 3.74798L13.0315 7.41435L13.9685 8.58565ZM18.5515 4.91928L18.9685 4.58565L18.0315 3.41435L17.6144 3.74798L18.5515 4.91928ZM16.5857 10.9685L20.252 6.38556L19.0807 5.44852L15.4143 10.0315L16.5857 10.9685ZM20.252 6.38556L20.5857 5.96852L19.4143 5.03148L19.0807 5.44852L20.252 6.38556ZM4.46967 18.4697L1.46967 21.4697L2.53033 22.5303L5.53033 19.5303L4.46967 18.4697Z" fill="#141B34"/>
</svg>
