<svg width="24" height="24" viewBox="0 0 24 24" fill="none" xmlns="http://www.w3.org/2000/svg">
<path d="M16.0039 10C16.0039 12.2091 14.213 14 12.0039 14C9.79477 14 8.00391 12.2091 8.00391 10C8.00391 7.79086 9.79477 6 12.0039 6C14.213 6 16.0039 7.79086 16.0039 10Z" stroke="#141B34" stroke-width="1.5"/>
<path d="M15.4688 4L14.8196 4.37554L15.0362 4.75H15.4688V4ZM8.53906 4V4.75H8.97166L9.18827 4.37554L8.53906 4ZM18 4H18.75C18.75 3.58579 18.4142 3.25 18 3.25V4ZM6 4V3.25C5.58579 3.25 5.25 3.58579 5.25 4H6ZM12.0039 2.75C13.2059 2.75 14.2565 3.40216 14.8196 4.37554L16.118 3.62446C15.2978 2.20663 13.763 1.25 12.0039 1.25V2.75ZM9.18827 4.37554C9.75134 3.40216 10.8019 2.75 12.0039 2.75V1.25C10.2448 1.25 8.71002 2.20663 7.88986 3.62446L9.18827 4.37554ZM15.4688 4.75H18V3.25H15.4688V4.75ZM20 6.75H21V5.25H20V6.75ZM8.53906 3.25H6V4.75H8.53906V3.25ZM4 5.25H3V6.75H4V5.25ZM5.25 4C5.25 4.69036 4.69036 5.25 4 5.25V6.75C5.51878 6.75 6.75 5.51878 6.75 4H5.25ZM17.25 4C17.25 5.51878 18.4812 6.75 20 6.75V5.25C19.3096 5.25 18.75 4.69036 18.75 4H17.25Z" fill="#141B34"/>
<path d="M15.4688 20V19.25H15.0362L14.8196 19.6245L15.4688 20ZM8.53906 20L9.18827 19.6245L8.97166 19.25H8.53906V20ZM18 20V20.75C18.4142 20.75 18.75 20.4142 18.75 20H18ZM6 20H5.25C5.25 20.4142 5.58579 20.75 6 20.75V20ZM12.0039 22.75C13.763 22.75 15.2978 21.7934 16.118 20.3755L14.8196 19.6245C14.2565 20.5978 13.2059 21.25 12.0039 21.25V22.75ZM7.88986 20.3755C8.71002 21.7934 10.2448 22.75 12.0039 22.75V21.25C10.8019 21.25 9.75134 20.5978 9.18827 19.6245L7.88986 20.3755ZM15.4688 20.75H18V19.25H15.4688V20.75ZM20 18.75H21V17.25H20V18.75ZM8.53906 19.25H6V20.75H8.53906V19.25ZM4 17.25H3V18.75H4V17.25ZM6.75 20C6.75 18.4812 5.51878 17.25 4 17.25V18.75C4.69036 18.75 5.25 19.3096 5.25 20H6.75ZM18.75 20C18.75 19.3096 19.3096 18.75 20 18.75V17.25C18.4812 17.25 17.25 18.4812 17.25 20H18.75Z" fill="#141B34"/>
<path d="M19.0039 6V18M5.00391 6V18" stroke="#141B34" stroke-width="1.5" stroke-linejoin="round"/>
<path d="M12.0039 10L13.0039 9" stroke="#141B34" stroke-width="1.5" stroke-linecap="square" stroke-linejoin="round"/>
<path d="M12.0039 14V18M10.0039 18H14.0039" stroke="#141B34" stroke-width="1.5" stroke-linejoin="round"/>
</svg>
