<svg width="24" height="24" viewBox="0 0 24 24" fill="none" xmlns="http://www.w3.org/2000/svg">
<path d="M3 2V1.25C2.58579 1.25 2.25 1.58579 2.25 2H3ZM3 20H2.25C2.25 20.4142 2.58579 20.75 3 20.75V20ZM21 20V20.75C21.4142 20.75 21.75 20.4142 21.75 20H21ZM21 2H21.75C21.75 1.58579 21.4142 1.25 21 1.25V2ZM2.25 2V20H3.75V2H2.25ZM20.25 2V20H21.75V2H20.25ZM21 1.25H3V2.75H21V1.25ZM18 20.75H21V19.25H18V20.75ZM3 20.75H6V19.25H3V20.75Z" fill="#141B34"/>
<path d="M3 8H21" stroke="#141B34" stroke-width="1.5" stroke-linejoin="round"/>
<path d="M6.99981 5H7.00879" stroke="#141B34" stroke-width="1.5" stroke-linecap="square" stroke-linejoin="round"/>
<path d="M10.9998 5H11.0088" stroke="#141B34" stroke-width="1.5" stroke-linecap="square" stroke-linejoin="round"/>
<path d="M8.21646 15.2V14.45H7.62932L7.48839 15.02L8.21646 15.2ZM12 22L11.8502 22.7349L12 22.7654L12.1498 22.7349L12 22ZM15.7836 15.2L16.5117 15.02L16.3707 14.45H15.7836V15.2ZM12 13.25C11.056 13.25 10.3234 13.6426 9.76123 13.9343C9.16628 14.243 8.74281 14.45 8.21646 14.45V15.95C9.1587 15.95 9.89058 15.557 10.452 15.2657C11.0463 14.9574 11.4712 14.75 12 14.75V13.25ZM12.1498 21.2651C10.8842 21.0071 9.91414 20.2857 9.34108 19.279C8.76563 18.268 8.56388 16.9194 8.94453 15.38L7.48839 15.02C7.02831 16.8806 7.24677 18.6319 8.03748 20.021C8.83058 21.4143 10.1727 22.3929 11.8502 22.7349L12.1498 21.2651ZM12 14.75C12.532 14.75 12.9578 14.9578 13.5506 15.2656C14.1111 15.5567 14.8418 15.95 15.7836 15.95V14.45C15.2584 14.45 14.8367 14.2433 14.2419 13.9344C13.6793 13.6422 12.9468 13.25 12 13.25V14.75ZM12.1498 22.7349C13.8273 22.3929 15.1694 21.4143 15.9625 20.021C16.7533 18.6319 16.9717 16.8806 16.5117 15.02L15.0555 15.38C15.4362 16.9194 15.2344 18.268 14.6589 19.279C14.0859 20.2857 13.1158 21.0071 11.8502 21.2651L12.1498 22.7349Z" fill="#141B34"/>
</svg>
