<svg width="24" height="24" viewBox="0 0 24 24" fill="none" xmlns="http://www.w3.org/2000/svg">
<path d="M14 4L14.2372 3.28849L13.7048 3.11105L13.3844 3.57164L14 4ZM8 10.8832L7.46459 10.358L7.15314 10.6755L7.28235 11.1011L8 10.8832ZM13.3844 3.57164C12.3438 5.06707 9.98605 7.78749 7.46459 10.358L8.53541 11.4084C11.0762 8.81822 13.5031 6.02726 14.6156 4.42836L13.3844 3.57164ZM7.28235 11.1011C7.80773 12.8315 8.54349 14.2217 9.84006 15.3206C11.12 16.4056 12.8769 17.1469 15.3264 17.7296L15.6736 16.2703C13.3231 15.7112 11.83 15.041 10.8099 14.1764C9.80651 13.3259 9.19227 12.2286 8.71765 10.6653L7.28235 11.1011ZM17.2372 4.28849L14.2372 3.28849L13.7628 4.71151L16.7628 5.71151L17.2372 4.28849ZM7.46967 11.4135C8.64816 12.592 10.6078 13.149 12.248 13.4308C13.9319 13.7201 15.479 13.75 16 13.75V12.25C15.521 12.25 14.0681 12.2215 12.502 11.9524C10.8922 11.6758 9.35184 11.1744 8.53033 10.3529L7.46967 11.4135Z" fill="#141B34"/>
<path d="M8 21L7 22" stroke="#141B34" stroke-width="1.5" stroke-linejoin="round"/>
<path d="M22 19H2C7 20.7143 12.9751 22 17 22C20 22 22 19.7347 22 19Z" stroke="#141B34" stroke-width="1.5" stroke-linejoin="round"/>
<path d="M16.0103 2C18.1781 7 16.2964 16.3438 15 19" stroke="#141B34" stroke-width="1.5" stroke-linejoin="round"/>
</svg>
