<svg width="24" height="24" viewBox="0 0 24 24" fill="none" xmlns="http://www.w3.org/2000/svg">
<path d="M9 4.5C9 5.32843 8.32843 6 7.5 6C6.67157 6 6 5.32843 6 4.5C6 3.67157 6.67157 3 7.5 3C8.32843 3 9 3.67157 9 4.5Z" stroke="#141B34" stroke-width="1.5" stroke-linejoin="round"/>
<path d="M13 7L9.99985 8.5L7.83445 8.28346M6.49985 21V16.5L3 13L4.99985 8L7.83445 8.28346M7.83445 8.28346L5.18934 15.1852" stroke="#141B34" stroke-width="1.5" stroke-linejoin="round"/>
<path d="M20 9C19.4165 9 18.867 8.72945 18.5168 8.26974L17.4901 6.9216C17.354 6.74297 17.286 6.65366 17.2198 6.58344C16.6504 5.97966 15.741 5.82625 15 6.20901" stroke="#141B34" stroke-width="1.5" stroke-linejoin="round"/>
<path d="M21 17C19.7147 17 18.4907 16.4474 17.6367 15.4816L16.9585 14.7145C15.9773 13.6047 14.6715 12.8574 13.2478 12.5659M11.5 12.4081H10L7.5 10" stroke="#141B34" stroke-width="1.5" stroke-linejoin="round"/>
</svg>
