<svg width="24" height="24" viewBox="0 0 24 24" fill="none" xmlns="http://www.w3.org/2000/svg">
<path d="M15 21.9999L15 22.7499C15.1989 22.7499 15.3897 22.6709 15.5303 22.5302C15.671 22.3896 15.75 22.1988 15.75 21.9999H15ZM9 21.9999H8.25C8.25 22.4141 8.58579 22.7499 9 22.7499L9 21.9999ZM15 12.8559L14.6245 12.2067L14.25 12.4233V12.8559H15ZM9 12.8559H9.75V12.4233L9.37554 12.2067L9 12.8559ZM14 6.65859H13.25H14ZM12 8.65859L12 9.40859L12 8.65859ZM14 2L14.2499 1.29287L13.25 0.939444V2L14 2ZM10 2H10.75V0.939444L9.75007 1.29287L10 2ZM15 21.2499L9 21.2499L9 22.7499L15 22.7499L15 21.2499ZM14.25 12.8559L14.25 21.9999H15.75L15.75 12.8559H14.25ZM17.25 7.65859C17.25 9.60089 16.1956 11.2978 14.6245 12.2067L15.3755 13.5051C17.3912 12.3391 18.75 10.158 18.75 7.65859H17.25ZM9.75 21.9999L9.75 12.8559H8.25L8.25 21.9999H9.75ZM9.37554 12.2067C7.80436 11.2978 6.75 9.60089 6.75 7.65859H5.25C5.25 10.158 6.60883 12.3391 8.62446 13.5051L9.37554 12.2067ZM12 7.90859C11.3096 7.90859 10.75 7.34894 10.75 6.65859H9.25C9.25 8.17737 10.4812 9.40859 12 9.40859L12 7.90859ZM12 9.40859C13.5188 9.40859 14.75 8.17737 14.75 6.65859H13.25C13.25 7.34894 12.6904 7.90859 12 7.90859L12 9.40859ZM13.25 2L13.25 6.65859H14.75L14.75 2L13.25 2ZM13.7501 2.70713C15.7902 3.4282 17.25 5.37388 17.25 7.65859H18.75C18.75 4.71842 16.8706 2.21914 14.2499 1.29287L13.7501 2.70713ZM10.75 6.65859V2H9.25V6.65859H10.75ZM6.75 7.65859C6.75 5.37388 8.20984 3.4282 10.2499 2.70713L9.75007 1.29287C7.12939 2.21914 5.25 4.71842 5.25 7.65859H6.75Z" fill="#141B34"/>
<path d="M12.009 19H12" stroke="#141B34" stroke-width="1.5" stroke-linecap="square" stroke-linejoin="round"/>
</svg>
