<svg width="24" height="24" viewBox="0 0 24 24" fill="none" xmlns="http://www.w3.org/2000/svg">
<path d="M10 13.7798L10.3098 14.4628L11.6168 13.8699L10.3838 13.1355L10 13.7798ZM4.5 10.5034L4.88384 9.85908C4.66162 9.7267 4.38687 9.71818 4.15687 9.83651C3.92687 9.95485 3.77408 10.1834 3.75259 10.4411L4.5 10.5034ZM4 16.5016L3.25259 16.4393C3.2305 16.7044 3.35046 16.9614 3.56787 17.1146C3.78528 17.2679 4.0676 17.2945 4.30984 17.1846L4 16.5016ZM10.3838 13.1355L4.88384 9.85908L4.11616 11.1478L9.61617 14.4241L10.3838 13.1355ZM9.69016 13.0968L3.69016 15.8186L4.30984 17.1846L10.3098 14.4628L9.69016 13.0968ZM3.75259 10.4411L3.25259 16.4393L4.74741 16.5639L5.24741 10.5657L3.75259 10.4411Z" fill="#141B34"/>
<path d="M14 12.6775L13.3537 12.297L12.5923 13.5905L14.0838 13.4228L14 12.6775ZM20 12.0029L20.0838 12.7482C20.3474 12.7186 20.5757 12.5519 20.6843 12.3099C20.7929 12.0678 20.7655 11.7865 20.6124 11.5699L20 12.0029ZM16.9423 7.67896L17.5546 7.24592C17.4077 7.03809 17.1653 6.91898 16.911 6.92961C16.6566 6.94023 16.4251 7.07913 16.2959 7.2985L16.9423 7.67896ZM14.0838 13.4228L20.0838 12.7482L19.9162 11.2576L13.9162 11.9322L14.0838 13.4228ZM14.6463 13.058L17.5886 8.05941L16.2959 7.2985L13.3537 12.297L14.6463 13.058ZM16.3299 8.11199L19.3876 12.436L20.6124 11.5699L17.5546 7.24592L16.3299 8.11199Z" fill="#141B34"/>
<path d="M14 15.3372L14.1553 14.6034L12.6528 14.2853L13.3258 15.6658L14 15.3372ZM19.5 16.5015L20.086 16.9696C20.2484 16.7664 20.2938 16.4935 20.206 16.2485C20.1183 16.0036 19.9099 15.8217 19.6553 15.7678L19.5 16.5015ZM16.4369 20.3357L15.7628 20.6644C15.8755 20.8956 16.0988 21.0529 16.3544 21.0812C16.61 21.1094 16.8623 21.0048 17.0229 20.8038L16.4369 20.3357ZM13.8447 16.0709L19.3447 17.2353L19.6553 15.7678L14.1553 14.6034L13.8447 16.0709ZM17.1111 20.007L14.6742 15.0085L13.3258 15.6658L15.7628 20.6644L17.1111 20.007ZM18.914 16.0334L15.8509 19.8676L17.0229 20.8038L20.086 16.9696L18.914 16.0334Z" fill="#141B34"/>
<path d="M11.5743 16.0017L12.3208 15.9289L12.1763 14.4474L11.0716 15.4451L11.5743 16.0017ZM12.1595 22L11.8795 22.6958C12.1227 22.7936 12.3993 22.7574 12.609 22.6003C12.8188 22.4432 12.9314 22.188 12.9059 21.9271L12.1595 22ZM7.16016 19.9887L6.65744 19.4321C6.46553 19.6054 6.37646 19.8654 6.42175 20.12C6.46704 20.3746 6.64031 20.588 6.88023 20.6845L7.16016 19.9887ZM10.8279 16.0745L11.413 22.0728L12.9059 21.9271L12.3208 15.9289L10.8279 16.0745ZM7.66287 20.5453L12.077 16.5583L11.0716 15.4451L6.65744 19.4321L7.66287 20.5453ZM6.88023 20.6845L11.8795 22.6958L12.4394 21.3042L7.44009 19.2929L6.88023 20.6845Z" fill="#141B34"/>
<path d="M11.2226 10.9974L10.66 11.4933L11.8189 12.8081L11.9698 11.062L11.2226 10.9974ZM12.0001 2L12.7474 2.06457C12.7696 1.80688 12.6575 1.5559 12.4508 1.40049C12.244 1.24507 11.9718 1.20716 11.7304 1.30017L12.0001 2ZM5.5 4.50502L5.2303 3.80519C5.00128 3.89345 4.82994 4.08818 4.77154 4.32657C4.71314 4.56495 4.77508 4.81683 4.93737 5.00095L5.5 4.50502ZM11.9698 11.062L12.7474 2.06457L11.2529 1.93543L10.4754 10.9328L11.9698 11.062ZM11.7852 10.5015L6.06263 4.0091L4.93737 5.00095L10.66 11.4933L11.7852 10.5015ZM11.7304 1.30017L5.2303 3.80519L5.7697 5.20485L12.2698 2.69983L11.7304 1.30017Z" fill="#141B34"/>
</svg>
