<svg width="24" height="24" viewBox="0 0 24 24" fill="none" xmlns="http://www.w3.org/2000/svg">
<path d="M11.9997 12.5L11.6643 13.1708L11.9997 13.3385L12.3351 13.1708L11.9997 12.5ZM3 8H2.25V8.46352L2.66458 8.67082L3 8ZM20.9997 8L21.3351 8.67082L21.7497 8.46353V8H20.9997ZM20.9997 2H21.7497C21.7497 1.58579 21.4139 1.25 20.9997 1.25V2ZM3 2V1.25C2.58579 1.25 2.25 1.58579 2.25 2H3ZM20.6643 7.32918L11.6643 11.8292L12.3351 13.1708L21.3351 8.67082L20.6643 7.32918ZM12.3351 11.8292L3.33542 7.32918L2.66458 8.67082L11.6643 13.1708L12.3351 11.8292ZM3 2.75H20.9997V1.25H3V2.75ZM21.7497 8V2H20.2497V8H21.7497ZM2.25 2V8H3.75V2H2.25Z" fill="#141B34"/>
<path d="M12 13L12.6179 12.5749C12.4779 12.3715 12.2469 12.25 12 12.25C11.7531 12.25 11.5221 12.3715 11.3821 12.5749L12 13ZM13.7614 15.5601L13.1435 15.9852L13.2945 16.2047L13.5501 16.2797L13.7614 15.5601ZM16.75 16.4377L17.3436 16.8962C17.495 16.7001 17.5398 16.4419 17.4634 16.2062C17.3869 15.9706 17.199 15.7879 16.9613 15.7181L16.75 16.4377ZM14.85 18.8975L14.2564 18.439L14.0929 18.6508L14.1003 18.9182L14.85 18.8975ZM14.9357 22L14.6852 22.707C14.9183 22.7895 15.177 22.7519 15.3769 22.6065C15.5768 22.461 15.6922 22.2264 15.6854 21.9793L14.9357 22ZM12 20.9601L12.2504 20.2532L12 20.1645L11.7496 20.2532L12 20.9601ZM9.06434 22L8.31462 21.9793C8.3078 22.2264 8.42319 22.461 8.6231 22.6065C8.823 22.7519 9.08173 22.7895 9.31476 22.707L9.06434 22ZM9.15 18.8975L9.89971 18.9182L9.9071 18.6508L9.74355 18.439L9.15 18.8975ZM7.25 16.4377L7.03869 15.7181C6.80098 15.7879 6.61307 15.9706 6.53661 16.2062C6.46015 16.4419 6.505 16.7001 6.65645 16.8962L7.25 16.4377ZM10.2386 15.5601L10.4499 16.2797L10.7055 16.2047L10.8565 15.9852L10.2386 15.5601ZM11.3821 13.4251L13.1435 15.9852L14.3793 15.135L12.6179 12.5749L11.3821 13.4251ZM13.5501 16.2797L16.5387 17.1573L16.9613 15.7181L13.9727 14.8405L13.5501 16.2797ZM16.1564 15.9792L14.2564 18.439L15.4436 19.356L17.3436 16.8962L16.1564 15.9792ZM14.1003 18.9182L14.1859 22.0207L15.6854 21.9793L15.5997 18.8768L14.1003 18.9182ZM15.1861 21.293L12.2504 20.2532L11.7496 21.6671L14.6852 22.707L15.1861 21.293ZM11.7496 20.2532L8.81392 21.293L9.31476 22.707L12.2504 21.6671L11.7496 20.2532ZM9.81405 22.0207L9.89971 18.9182L8.40029 18.8768L8.31462 21.9793L9.81405 22.0207ZM9.74355 18.439L7.84355 15.9792L6.65645 16.8962L8.55645 19.356L9.74355 18.439ZM7.46131 17.1573L10.4499 16.2797L10.0273 14.8405L7.03869 15.7181L7.46131 17.1573ZM10.8565 15.9852L12.6179 13.4251L11.3821 12.5749L9.62072 15.135L10.8565 15.9852Z" fill="#141B34"/>
<path d="M8 5V7M12 5V8M16 5V7" stroke="#141B34" stroke-width="1.5" stroke-linejoin="round"/>
</svg>
