<svg width="24" height="24" viewBox="0 0 24 24" fill="none" xmlns="http://www.w3.org/2000/svg">
<path d="M5 15C5 11.134 8.02208 8 11.75 8H12.25C15.9779 8 19 11.134 19 15C19 18.866 15.9779 22 12.25 22H11.75C8.02208 22 5 18.866 5 15Z" stroke="#141B34" stroke-width="1.5" stroke-linejoin="round"/>
<path d="M13.5594 2L11 8M17.9993 2L15.1779 8.5" stroke="#141B34" stroke-width="1.5" stroke-linejoin="round"/>
<path d="M10.4391 2L12 5.5M5.99919 2L8.82063 8.5" stroke="#141B34" stroke-width="1.5" stroke-linejoin="round"/>
<path d="M10.5 18H9.75V18.75H10.5V18ZM10.5 17L9.98265 16.457L9.75 16.6787V17H10.5ZM13 14.6181L12.4998 14.0592C12.494 14.0644 12.4883 14.0697 12.4826 14.0751L13 14.6181ZM11.25 13.5C11.25 13.0858 11.5858 12.75 12 12.75V11.25C10.7574 11.25 9.75 12.2574 9.75 13.5H11.25ZM12 12.75C12.4142 12.75 12.75 13.0858 12.75 13.5H14.25C14.25 12.2574 13.2426 11.25 12 11.25V12.75ZM10.5 18.75H14.5V17.25H10.5V18.75ZM11.25 18V17H9.75V18H11.25ZM12.75 13.5C12.75 13.7221 12.6545 13.9208 12.4998 14.0592L13.5002 15.1769C13.9593 14.766 14.25 14.1664 14.25 13.5H12.75ZM11.0174 17.543L13.5174 15.161L12.4826 14.0751L9.98265 16.457L11.0174 17.543Z" fill="#141B34"/>
</svg>
