<svg width="24" height="24" viewBox="0 0 24 24" fill="none" xmlns="http://www.w3.org/2000/svg">
<path opacity="0.4" d="M12.0572 1.75C14.2479 1.74999 15.9686 1.74998 17.312 1.93059C18.6886 2.11568 19.7809 2.50272 20.6391 3.36091C21.4973 4.21911 21.8843 5.31137 22.0694 6.68802C22.25 8.03144 22.25 9.7521 22.25 11.9428V11.9428V12.0572V12.0572C22.25 14.2479 22.25 15.9686 22.0694 17.312C21.8843 18.6886 21.4973 19.7809 20.6391 20.6391C19.7809 21.4973 18.6886 21.8843 17.312 22.0694C15.9686 22.25 14.2479 22.25 12.0572 22.25H12.0572H11.9428H11.9428C9.7521 22.25 8.03144 22.25 6.68802 22.0694C5.31137 21.8843 4.21911 21.4973 3.36091 20.6391C2.50272 19.7809 2.11568 18.6886 1.93059 17.312C1.74998 15.9686 1.74999 14.2479 1.75 12.0572V11.9428C1.74999 9.75212 1.74998 8.03144 1.93059 6.68802C2.11568 5.31137 2.50272 4.21911 3.36091 3.36091C4.21911 2.50272 5.31137 2.11568 6.68802 1.93059C8.03144 1.74998 9.75212 1.74999 11.9428 1.75H12.0572Z" fill="#141B34"/>
<path fill-rule="evenodd" clip-rule="evenodd" d="M8.5 7.24805C8.91421 7.24805 9.25 7.58383 9.25 7.99805V15.998C9.25 16.4123 8.91421 16.748 8.5 16.748C8.08579 16.748 7.75 16.4123 7.75 15.998V7.99805C7.75 7.58383 8.08579 7.24805 8.5 7.24805ZM15.5 7.24805C15.9142 7.24805 16.25 7.58383 16.25 7.99805V14.998C16.25 15.3181 16.2148 15.638 16.0906 15.9209C15.9518 16.2372 15.7204 16.4647 15.4235 16.5968C15.1635 16.7124 14.8897 16.7377 14.6796 16.7462C14.5349 16.7521 14.3632 16.7506 14.2002 16.7492C14.131 16.7486 14.0633 16.748 14 16.748C12.2051 16.748 10.75 15.293 10.75 13.498C10.75 11.7031 12.2051 10.248 14 10.248H14.75V7.99805C14.75 7.58383 15.0858 7.24805 15.5 7.24805ZM14.75 11.748H14C13.0335 11.748 12.25 12.5315 12.25 13.498C12.25 14.4645 13.0335 15.248 14 15.248C14.0997 15.248 14.1857 15.2488 14.2628 15.2496C14.4015 15.2508 14.511 15.2519 14.6185 15.2475C14.6681 15.2455 14.7063 15.2424 14.7353 15.2392C14.7436 15.1844 14.75 15.1064 14.75 14.998L14.75 11.748Z" fill="#141B34"/>
</svg>
