<svg width="24" height="24" viewBox="0 0 24 24" fill="none" xmlns="http://www.w3.org/2000/svg">
<path opacity="0.4" d="M6.00011 4.86591C5.68076 5.04991 5.27144 5.04965 4.94431 4.83095C4.48518 4.52399 4.36183 3.90296 4.66879 3.44383L4.83108 3.21868C4.92457 3.09565 5.06069 2.92639 5.22224 2.75746C5.37649 2.59616 5.59163 2.39499 5.84651 2.24342C6.07607 2.10691 6.53348 1.89514 7.06603 2.06038C7.3255 2.14088 7.55548 2.30077 7.72022 2.53446C7.86742 2.74326 7.92592 2.95946 7.95395 3.10795C8.00082 3.35624 8.00044 3.65881 8.00015 3.89527L8.00011 8.49997C8.00011 8.68689 8.00011 8.78035 8.0403 8.84997C8.06663 8.89558 8.1045 8.93345 8.15011 8.95978C8.21972 8.99997 8.31318 8.99997 8.5001 8.99997C9.05239 8.99997 9.5001 9.44768 9.5001 9.99997C9.5001 10.5523 9.05239 11 8.5001 11H5.50011C4.94782 11 4.50011 10.5523 4.50011 9.99997C4.50011 9.44768 4.94782 8.99997 5.50011 8.99997C5.68703 8.99997 5.78049 8.99997 5.85011 8.95978C5.89571 8.93345 5.93358 8.89558 5.95991 8.84997C6.00011 8.78035 6.00011 8.68689 6.00011 8.49997V4.86591Z" fill="#141B34"/>
<path opacity="0.4" fill-rule="evenodd" clip-rule="evenodd" d="M6.95005 12.9998C6.96667 12.9998 6.98333 12.9998 7.00003 12.9998C7.01672 12.9998 7.03338 12.9998 7.05 12.9998C7.47814 12.9997 7.88259 12.9996 8.21413 13.0386C8.57513 13.0811 8.99995 13.1835 9.36564 13.5035C9.75054 13.8403 9.89409 14.2621 9.95182 14.6378C10.0003 14.9533 10.0002 15.3306 10 15.694C10 15.7127 10 15.7312 10 15.7498V18.3748C10 18.3964 10 18.4181 10 18.4397C10.0001 19.0022 10.0002 19.5326 9.93351 19.9668C9.85748 20.4616 9.67732 20.9671 9.21919 21.3679C8.78028 21.752 8.25992 21.8864 7.76277 21.9449C7.29536 21.9998 6.7151 21.9998 6.05591 21.9998L5.00003 21.9998C4.44774 21.9998 4.00003 21.552 4.00003 20.9998C4.00003 20.4475 4.44774 19.9998 5.00003 19.9998H6.00003C6.73195 19.9998 7.19273 19.9981 7.5291 19.9586C7.84435 19.9215 7.9002 19.8648 7.90213 19.8628L7.90356 19.8616C7.90539 19.8602 7.90584 19.8598 7.90972 19.8516C7.91833 19.8333 7.9386 19.7809 7.95671 19.6631C7.97901 19.5179 7.98989 19.3396 7.99516 19.1003C8.00132 18.8202 8.00441 18.6802 7.91615 18.59C7.8279 18.4998 7.68509 18.4998 7.39948 18.4998H7.00003C6.98333 18.4998 6.96667 18.4998 6.95005 18.4998C6.52191 18.4998 6.11746 18.4999 5.78592 18.4609C5.42493 18.4184 5.00011 18.316 4.63441 17.9961C4.24951 17.6593 4.10596 17.2374 4.04824 16.8617C3.99975 16.5462 3.99989 16.1689 4.00001 15.8055C4.00002 15.7869 4.00003 15.7683 4.00003 15.7498C4.00003 15.7312 4.00002 15.7127 4.00001 15.694C3.99989 15.3306 3.99975 14.9533 4.04824 14.6378C4.10596 14.2621 4.24951 13.8403 4.63441 13.5035C5.00011 13.1835 5.42492 13.0811 5.78592 13.0386C6.11746 12.9996 6.52192 12.9997 6.95005 12.9998ZM7.40003 16.4998C7.68287 16.4998 7.82429 16.4998 7.91216 16.4119C8.00003 16.324 8.00003 16.1826 8.00003 15.8998V15.7498C8.00003 15.5393 7.99994 15.3745 7.99587 15.2332C7.99342 15.1485 7.98974 15.0822 7.9852 15.0298C7.98498 15.0273 7.983 15.0253 7.98046 15.025C7.78025 15.0014 7.49624 14.9998 7.00003 14.9998C6.50381 14.9998 6.2198 15.0014 6.01959 15.025C6.01705 15.0253 6.01507 15.0273 6.01485 15.0298C6.01032 15.0822 6.00663 15.1485 6.00419 15.2332C6.00011 15.3745 6.00003 15.5393 6.00003 15.7498C6.00003 15.9603 6.00011 16.125 6.00419 16.2663C6.00663 16.3511 6.01032 16.4173 6.01485 16.4697C6.01507 16.4722 6.01705 16.4743 6.01959 16.4746C6.2198 16.4981 6.50381 16.4998 7.00003 16.4998H7.40003Z" fill="#141B34"/>
<path fill-rule="evenodd" clip-rule="evenodd" d="M17.7559 3.99976C17.7559 3.44747 17.3081 2.99976 16.7559 2.99976C16.2036 2.99976 15.7559 3.44747 15.7559 3.99976L15.7559 16.4998L15.1616 16.4998C14.986 16.4996 14.7703 16.4995 14.5939 16.5216L14.5905 16.522C14.4641 16.5378 13.888 16.6096 13.6137 17.1752C13.3387 17.742 13.6407 18.2421 13.706 18.3504L13.7084 18.3544C13.8006 18.5074 13.9348 18.6783 14.0451 18.8188L14.0688 18.8491C14.3635 19.2249 14.7454 19.7091 15.1259 20.1001C15.3157 20.2952 15.533 20.4965 15.7639 20.6553C15.9691 20.7965 16.3193 20.9998 16.75 20.9998C17.1807 20.9998 17.5309 20.7965 17.7361 20.6553C17.967 20.4965 18.1843 20.2952 18.3741 20.1001C18.7546 19.7091 19.1365 19.2249 19.4312 18.8491L19.4549 18.8188C19.5652 18.6783 19.6994 18.5074 19.7916 18.3544L19.794 18.3504C19.8593 18.2421 20.1613 17.742 19.8863 17.1752C19.612 16.6096 19.0359 16.5378 18.9095 16.522L18.9061 16.5216C18.7297 16.4995 18.514 16.4996 18.3384 16.4998L17.7559 16.4998L17.7559 3.99976Z" fill="#141B34"/>
</svg>
