<svg width="24" height="24" viewBox="0 0 24 24" fill="none" xmlns="http://www.w3.org/2000/svg">
<path opacity="0.4" fill-rule="evenodd" clip-rule="evenodd" d="M12 22C7.6224 22 4.5 18.7552 4.5 14.5L4.5 3.5C4.5 2.94772 4.94771 2.5 5.5 2.5C6.05228 2.5 6.5 2.94772 6.5 3.5L6.5 14.5C6.5 17.6714 8.74767 20 12 20C12.5523 20 13 20.4477 13 21C13 21.5523 12.5523 22 12 22Z" fill="#141B34"/>
<path opacity="0.4" fill-rule="evenodd" clip-rule="evenodd" d="M12 2C16.3776 2 19.5 5.24485 19.5 9.5L19.5 20.5C19.5 21.0523 19.0523 21.5 18.5 21.5C17.9477 21.5 17.5 21.0523 17.5 20.5L17.5 9.5C17.5 6.3286 15.2523 4 12 4C11.4477 4 11 3.55229 11 3C11 2.44772 11.4477 2 12 2Z" fill="#141B34"/>
<path d="M2.08462 5.90254C1.92496 5.53948 1.99497 5.11637 2.26305 4.82408L4.08362 2.83903L4.08362 2.83903C4.22501 2.68468 4.39151 2.50293 4.55427 2.36752C4.74663 2.2075 5.06228 2 5.50002 2C5.93776 2 6.25341 2.2075 6.44577 2.36752C6.60853 2.50293 6.77503 2.68468 6.91642 2.83903L8.73699 4.82408C9.00507 5.11637 9.07508 5.53948 8.91542 5.90254C8.75577 6.2656 8.39664 6.5 8.00002 6.5L3.00002 6.5C2.6034 6.5 2.24427 6.2656 2.08462 5.90254Z" fill="#141B34"/>
<path d="M15.0846 18.0975C15.2443 17.7344 15.6034 17.5 16 17.5L21 17.5C21.3966 17.5 21.7558 17.7344 21.9154 18.0975C22.0751 18.4605 22.0051 18.8836 21.737 19.1759L19.9164 21.161C19.775 21.3153 19.6085 21.4971 19.4458 21.6325C19.2534 21.7925 18.9378 22 18.5 22C18.0623 22 17.7466 21.7925 17.5543 21.6325C17.3915 21.4971 17.225 21.3153 17.0836 21.161L17.0836 21.161L15.263 19.1759C14.995 18.8836 14.925 18.4605 15.0846 18.0975Z" fill="#141B34"/>
</svg>
