<svg width="24" height="24" viewBox="0 0 24 24" fill="none" xmlns="http://www.w3.org/2000/svg">
<path opacity="0.4" fill-rule="evenodd" clip-rule="evenodd" d="M3.99995 12.9997L19 13C19.5523 13 20 12.5523 20 12C20 11.4477 19.5523 11 19 11L3.99998 10.9997C3.4477 10.9997 2.99998 11.4474 2.99997 11.9997C2.99996 12.552 3.44767 12.9997 3.99995 12.9997Z" fill="#141B34"/>
<path d="M14.2781 6.308C13.8959 6.7067 13.9093 7.33972 14.308 7.7219L18.771 12L14.308 16.2781C13.9093 16.6603 13.8959 17.2933 14.2781 17.692C14.6603 18.0907 15.2933 18.1041 15.692 17.7219L20.1994 13.4012C20.347 13.2599 20.5218 13.0925 20.652 12.929C20.8077 12.7334 21 12.4234 21 12C21 11.5766 20.8077 11.2666 20.652 11.071C20.5218 10.9075 20.347 10.7401 20.1994 10.5988L15.692 6.2781C15.2933 5.89592 14.6603 5.90931 14.2781 6.308Z" fill="#141B34"/>
</svg>
