<svg width="24" height="24" viewBox="0 0 24 24" fill="none" xmlns="http://www.w3.org/2000/svg">
<path opacity="0.4" d="M1.24805 11.96C1.24805 6.0229 6.06099 1.20996 11.998 1.20996C17.9351 1.20996 22.748 6.0229 22.748 11.96C22.748 17.897 17.9351 22.71 11.998 22.71C6.06099 22.71 1.24805 17.897 1.24805 11.96Z" fill="#141B34"/>
<path fill-rule="evenodd" clip-rule="evenodd" d="M12.998 1.25586C12.6688 1.22548 12.3352 1.20996 11.998 1.20996C11.6609 1.20996 11.3273 1.22548 10.998 1.25586L10.998 14.9263C10.3107 14.8798 9.64214 14.7859 8.99713 14.6493L8.9973 14.6397C9.02606 12.9482 8.21721 11.4769 7.35924 10.3526C6.65275 9.42671 6.17934 8.55965 5.95438 7.49938C5.72686 6.42708 5.73632 5.07486 6.13282 3.16217C6.14858 3.08617 6.15526 3.0104 6.1536 2.93598C5.29164 3.49538 4.51486 4.17493 3.847 4.9509C3.75698 6.05711 3.80981 7.02787 3.99793 7.9145C4.30373 9.35573 4.94961 10.4917 5.76927 11.5658C6.38138 12.368 6.82723 13.204 6.95833 14.0482C5.26855 13.3997 3.81906 12.4388 2.72684 11.2754L2.70202 11.249L1.41485 10.0632C1.30524 10.6789 1.24805 11.3128 1.24805 11.96C1.24805 12.1914 1.25536 12.4211 1.26977 12.6489L1.29416 12.6714C2.6877 14.1462 4.5206 15.3134 6.62177 16.0553C6.2927 16.7046 5.71258 17.4152 4.74904 18.1733C4.71791 18.1978 4.68826 18.2241 4.66026 18.2521L3.8917 19.0206C4.33058 19.5241 4.8156 19.9863 5.34016 20.4006L6.03327 19.7075C7.2954 18.7049 8.1206 17.6632 8.57248 16.6034C9.35695 16.7701 10.1679 16.8807 10.998 16.9302V22.6641C11.3273 22.6944 11.6609 22.71 11.998 22.71C12.3352 22.71 12.6688 22.6944 12.998 22.6641V16.9302C13.8282 16.8808 14.6392 16.7702 15.4236 16.6034C15.8755 17.6632 16.7007 18.7049 17.9628 19.7075L18.6559 20.4006C19.1805 19.9863 19.6655 19.5241 20.1044 19.0206L19.3358 18.2521C19.3078 18.2241 19.2782 18.1978 19.2471 18.1733C18.2835 17.4152 17.7034 16.7046 17.3743 16.0553C19.4754 15.3134 21.3082 14.1462 22.7018 12.6714L22.7263 12.6487C22.7407 12.421 22.748 12.1913 22.748 11.96C22.748 11.3127 22.6908 10.6788 22.5812 10.0631L21.2939 11.249L21.2691 11.2754C20.1769 12.4388 18.7275 13.3997 17.0378 14.0482C17.1689 13.204 17.6147 12.368 18.2268 11.5658C19.0465 10.4917 19.6924 9.35573 19.9982 7.9145C20.1863 7.02787 20.2391 6.05711 20.1491 4.9509C19.4812 4.17493 18.7045 3.49538 17.8425 2.93598C17.8408 3.0104 17.8475 3.08617 17.8633 3.16217C18.2598 5.07486 18.2692 6.42708 18.0417 7.49938C17.8168 8.55965 17.3433 9.42671 16.6369 10.3526C15.7789 11.4769 14.97 12.9482 14.9988 14.6397L14.999 14.6493C14.354 14.786 13.6854 14.8798 12.998 14.9263L12.998 1.25586Z" fill="#141B34"/>
</svg>
