<svg width="24" height="24" viewBox="0 0 24 24" fill="none" xmlns="http://www.w3.org/2000/svg">
<path opacity="0.4" d="M5.19226 1.2862C5.75895 1.40333 6.21024 1.78406 6.49064 2.2871L7.38385 3.88954C7.71286 4.47975 7.98973 4.97643 8.17054 5.4082C8.36235 5.86622 8.47626 6.31788 8.42419 6.81724C8.37211 7.3166 8.16746 7.73504 7.88529 8.14362C7.61928 8.5288 7.24588 8.95768 6.80218 9.4673L5.48917 10.9755C5.25389 11.2458 5.13624 11.3809 5.12549 11.5498C5.11474 11.7187 5.21116 11.8629 5.404 12.1515C7.04759 14.6105 9.26273 16.8265 11.7238 18.4714C12.0124 18.6643 12.1566 18.7607 12.3255 18.75C12.4944 18.7392 12.6296 18.6216 12.8998 18.3863L14.4081 17.0732C14.9177 16.6295 15.3466 16.2561 15.7318 15.9901C16.1403 15.7079 16.5588 15.5033 17.0581 15.4512C17.5575 15.3991 18.0092 15.513 18.4672 15.7048C18.8989 15.8856 19.3956 16.1625 19.9857 16.4915L19.9859 16.4915L21.5883 17.3848C22.0913 17.6651 22.4721 18.1164 22.5892 18.6831C22.7075 19.2557 22.533 19.8313 22.1474 20.3043C20.7485 22.0207 18.5072 23.1135 16.156 22.6392C14.7108 22.3477 13.2848 21.862 11.5601 20.8728C8.0947 18.8855 4.98763 15.7767 3.00255 12.3153C2.01343 10.5906 1.52772 9.16464 1.23618 7.71937C0.76188 5.36815 1.85471 3.12687 3.57108 1.72797C4.04411 1.34243 4.61966 1.16785 5.19226 1.2862Z" fill="#141B34"/>
<path d="M19.4559 2.25667C19.8664 1.88717 20.4987 1.92037 20.8682 2.33083C20.9126 2.38018 21.0185 2.47825 21.2158 2.65534L21.2584 2.69356C21.427 2.84484 21.6321 3.02881 21.8284 3.21891C22.0381 3.42193 22.2688 3.66137 22.4532 3.9088C22.6022 4.10872 22.875 4.50886 22.875 4.99989C22.875 5.49091 22.6022 5.89105 22.4532 6.09097C22.2688 6.33841 22.0381 6.57785 21.8284 6.78086C21.6321 6.97098 21.427 7.15497 21.2583 7.30627L21.2158 7.34443C21.0185 7.52152 20.9126 7.61959 20.8682 7.66894C20.4987 8.07941 19.8664 8.11261 19.4559 7.7431C19.2367 7.54572 19.1251 7.27336 19.125 6.99988V5.99989H14.625V6.99988C14.6249 7.27336 14.5133 7.54572 14.2941 7.7431C13.8836 8.11261 13.2513 8.07941 12.8818 7.66894C12.8374 7.61959 12.7315 7.52152 12.5342 7.34443L12.4917 7.30625C12.323 7.15495 12.1179 6.97097 11.9216 6.78086C11.7119 6.57785 11.4812 6.33841 11.2968 6.09097C11.1478 5.89105 10.875 5.49091 10.875 4.99989C10.875 4.50886 11.1478 4.10872 11.2968 3.9088C11.4812 3.66137 11.7119 3.42193 11.9216 3.21891C12.1179 3.0288 12.323 2.84482 12.4917 2.69353L12.5342 2.65534C12.7315 2.47825 12.8374 2.38018 12.8818 2.33083C13.2513 1.92037 13.8836 1.88717 14.2941 2.25668C14.5135 2.45421 14.6251 2.72684 14.625 3.00054V3.99989L19.125 3.99989V2.99988C19.1251 2.7264 19.2367 2.45405 19.4559 2.25667Z" fill="#141B34"/>
</svg>
