<svg width="24" height="24" viewBox="0 0 24 24" fill="none" xmlns="http://www.w3.org/2000/svg">
<path opacity="0.4" d="M5.31726 1.28608C5.88395 1.4032 6.33524 1.78394 6.61564 2.28697L7.50885 3.88942C7.83786 4.47962 8.11473 4.97631 8.29554 5.40808C8.48735 5.8661 8.60126 6.31775 8.54919 6.81712C8.49711 7.31648 8.29246 7.73491 8.01029 8.1435C7.74428 8.52868 7.37088 8.95755 6.92718 9.46718L5.61417 10.9754C5.37889 11.2456 5.26124 11.3808 5.25049 11.5497C5.23974 11.7186 5.33616 11.8628 5.529 12.1513C7.17259 14.6104 9.38773 16.8263 11.8488 18.4713C12.1374 18.6642 12.2816 18.7606 12.4505 18.7498C12.6194 18.7391 12.7546 18.6214 13.0248 18.3862L14.5331 17.0731C15.0427 16.6294 15.4716 16.256 15.8568 15.99C16.2653 15.7078 16.6838 15.5031 17.1831 15.4511C17.6825 15.399 18.1342 15.5129 18.5922 15.7047C19.0239 15.8855 19.5206 16.1624 20.1107 16.4913L20.1109 16.4914L21.7133 17.3846C22.2163 17.665 22.5971 18.1163 22.7142 18.683C22.8325 19.2556 22.658 19.8312 22.2724 20.3042C20.8735 22.0205 18.6322 23.1134 16.281 22.6391C14.8358 22.3475 13.4098 21.8618 11.6851 20.8727C8.2197 18.8853 5.11263 15.7765 3.12755 12.3152C2.13843 10.5905 1.65272 9.16452 1.36118 7.71925C0.88688 5.36803 1.97971 3.12675 3.69608 1.72785C4.16911 1.3423 4.74466 1.16773 5.31726 1.28608Z" fill="#141B34"/>
<path fill-rule="evenodd" clip-rule="evenodd" d="M14 1.99976C14.5523 1.99976 15 2.44747 15 2.99976V5.79976C15 6.35204 14.5523 6.79976 14 6.79976C13.4477 6.79976 13 6.35204 13 5.79976V2.99976C13 2.44747 13.4477 1.99976 14 1.99976ZM19.6573 4.34343C20.0478 4.73395 20.0478 5.36712 19.6573 5.75764L17.6774 7.73754C17.2869 8.12807 16.6537 8.12807 16.2632 7.73754C15.8727 7.34702 15.8727 6.71385 16.2632 6.32333L18.2431 4.34343C18.6336 3.95291 19.2668 3.95291 19.6573 4.34343ZM17.2 9.99976C17.2 9.44747 17.6477 8.99976 18.2 8.99976H21C21.5523 8.99976 22 9.44747 22 9.99976C22 10.552 21.5523 10.9998 21 10.9998H18.2C17.6477 10.9998 17.2 10.552 17.2 9.99976Z" fill="#141B34"/>
</svg>
