<svg width="24" height="24" viewBox="0 0 24 24" fill="none" xmlns="http://www.w3.org/2000/svg">
<path opacity="0.4" d="M1.25 12C1.25 6.06294 6.06294 1.25 12 1.25C17.9371 1.25 22.75 6.06294 22.75 12C22.75 17.9371 17.9371 22.75 12 22.75C6.06294 22.75 1.25 17.9371 1.25 12Z" fill="#141B34"/>
<path fill-rule="evenodd" clip-rule="evenodd" d="M14.9298 7.00154C15.4812 6.9712 15.9529 7.39365 15.9832 7.9451C16.1492 10.9631 15.0625 12.936 13.4934 14.0945C12.861 14.5614 12.1728 14.8796 11.4962 15.0861V16C11.4962 16.4106 11.2452 16.7795 10.8633 16.9302C10.4814 17.0809 10.0462 16.9829 9.76577 16.683L8.26959 15.083C7.91014 14.6986 7.91014 14.1014 8.26959 13.717L9.76577 12.117C10.0462 11.8171 10.4814 11.7191 10.8633 11.8699C11.2452 12.0206 11.4962 12.3895 11.4962 12.8V12.9547C11.7763 12.8293 12.0497 12.6743 12.3054 12.4855C13.2736 11.7707 14.1194 10.477 13.9862 8.05495C13.9559 7.5035 14.3783 7.03187 14.9298 7.00154Z" fill="#141B34"/>
</svg>
