<svg width="24" height="24" viewBox="0 0 24 24" fill="none" xmlns="http://www.w3.org/2000/svg">
<path opacity="0.4" d="M1.25 12C1.25 6.06294 6.06294 1.25 12 1.25C17.9371 1.25 22.75 6.06294 22.75 12C22.75 17.9371 17.9371 22.75 12 22.75C6.06294 22.75 1.25 17.9371 1.25 12Z" fill="#141B34"/>
<path fill-rule="evenodd" clip-rule="evenodd" d="M12.5761 7.11732C12.7309 6.74364 13.0955 6.5 13.5 6.5H16.5C17.0523 6.5 17.5 6.94772 17.5 7.5V10.5C17.5 10.9045 17.2564 11.2691 16.8827 11.4239C16.509 11.5787 16.0789 11.4931 15.7929 11.2071L15 10.4142L13.7071 11.7071C13.3166 12.0976 12.6834 12.0976 12.2929 11.7071C11.9024 11.3166 11.9024 10.6834 12.2929 10.2929L13.5858 9L12.7929 8.20711C12.5069 7.92111 12.4213 7.49099 12.5761 7.11732ZM11.7071 12.2929C12.0976 12.6834 12.0976 13.3166 11.7071 13.7071L10.4142 15L11.2071 15.7929C11.4931 16.0789 11.5787 16.509 11.4239 16.8827C11.2691 17.2564 10.9045 17.5 10.5 17.5H7.5C6.94772 17.5 6.5 17.0523 6.5 16.5V13.5C6.5 13.0955 6.74364 12.7309 7.11732 12.5761C7.49099 12.4213 7.92111 12.5069 8.20711 12.7929L9 13.5858L10.2929 12.2929C10.6834 11.9024 11.3166 11.9024 11.7071 12.2929Z" fill="#141B34"/>
</svg>
