<svg width="24" height="24" viewBox="0 0 24 24" fill="none" xmlns="http://www.w3.org/2000/svg">
<path opacity="0.4" d="M1.25 12C1.25 6.06294 6.06294 1.25 12 1.25C17.9371 1.25 22.75 6.06294 22.75 12C22.75 17.9371 17.9371 22.75 12 22.75C6.06294 22.75 1.25 17.9371 1.25 12Z" fill="#141B34"/>
<path fill-rule="evenodd" clip-rule="evenodd" d="M7 8C7 7.44772 7.44772 7 8 7H11C11.4045 7 11.7691 7.24364 11.9239 7.61732C12.0787 7.99099 11.9931 8.42111 11.7071 8.70711L10.9142 9.5L14.5 13.0858L15.2929 12.2929C15.5789 12.0069 16.009 11.9213 16.3827 12.0761C16.7564 12.2309 17 12.5955 17 13V16C17 16.5523 16.5523 17 16 17H13C12.5955 17 12.2309 16.7564 12.0761 16.3827C11.9213 16.009 12.0069 15.5789 12.2929 15.2929L13.0858 14.5L9.5 10.9142L8.70711 11.7071C8.42111 11.9931 7.99099 12.0787 7.61732 11.9239C7.24364 11.7691 7 11.4045 7 11V8Z" fill="#141B34"/>
</svg>
