<svg width="24" height="24" viewBox="0 0 24 24" fill="none" xmlns="http://www.w3.org/2000/svg">
<path fill-rule="evenodd" clip-rule="evenodd" d="M12.4639 2.89453C12.4639 2.89457 12.4639 2.8945 12.4639 2.89453L7.48005 7.79916C7.26442 8.01136 6.94241 8.07323 6.6635 7.95606C6.38458 7.83888 6.20337 7.5656 6.20399 7.26307L6.20781 5.38011C6.2082 5.01657 5.88291 4.70888 5.48018 4.75351C5.17602 4.78722 4.945 5.01514 4.90121 5.29213L4.31363 10.034C4.1757 11.1479 3.49528 12.2982 2.74665 13.0346C2.45136 13.3251 1.97651 13.3212 1.68603 13.0259C1.39556 12.7306 1.39946 12.2557 1.69475 11.9653C2.26202 11.4073 2.73792 10.553 2.825 9.84971L3.41384 5.09766L3.4161 5.08096C3.55849 4.11093 4.34581 3.37004 5.31495 3.26264C6.57938 3.12251 7.70986 4.09629 7.70781 5.3825L7.70763 5.47066L11.4119 1.8253C12.1916 1.05831 13.4508 1.0582 14.2305 1.82519C14.3815 1.97365 14.5034 2.14001 14.5964 2.31739C15.3401 1.95914 16.2616 2.08454 16.8808 2.69361C17.2725 3.07897 17.4708 3.58812 17.4707 4.0974C17.4707 4.51161 17.1348 4.84736 16.7206 4.84732C16.3064 4.84728 15.9707 4.51146 15.9707 4.09725C15.9707 3.97747 15.925 3.85755 15.8289 3.76296C15.6329 3.5702 15.3102 3.57017 15.1142 3.76288C15.1142 3.76291 15.1142 3.76286 15.1142 3.76288L11.7467 7.07573C11.4514 7.36621 10.9765 7.3623 10.686 7.06701C10.3956 6.77172 10.3995 6.29686 10.6948 6.00639L13.1788 3.56287C13.3676 3.37683 13.3677 3.08047 13.1786 2.89453C12.9827 2.70179 12.6599 2.70186 12.4639 2.89453Z" fill="#141B34"/>
<path opacity="0.4" d="M10.9878 11.9858C11.1498 12.0548 11.3374 12.0203 11.4642 11.8981L17.0759 6.43541C17.4414 6.07966 18.0272 6.09171 18.3778 6.46218C18.7184 6.82217 18.7101 7.388 18.3592 7.73794L15.1153 10.9727C14.9409 11.1408 14.9357 11.4185 15.1039 11.593C15.272 11.7674 15.5497 11.7726 15.7242 11.6044L19.9513 7.55703C20.3183 7.20558 20.9003 7.21642 21.254 7.5813C21.61 7.94855 21.6 8.53509 21.2317 8.89L16.4335 13.5138C16.259 13.682 16.2539 13.9597 16.4221 14.1341C16.5902 14.3086 16.8679 14.3137 17.0424 14.1456L20.3971 10.837C20.7769 10.4623 21.3905 10.4731 21.757 10.8609C22.1147 11.2394 22.1017 11.835 21.728 12.1976L17.7518 16.0551C17.5774 16.2233 17.5723 16.501 17.7404 16.6754C17.9085 16.8499 18.1863 16.855 18.3607 16.6869L20.7043 14.3812C21.1301 13.9623 21.8161 13.972 22.2299 14.4026C22.6392 14.8285 22.6271 15.5052 22.2029 15.9162L18.7922 19.2206C17.6877 20.2857 16.9829 20.9654 16.1815 21.3103C15.6554 21.5367 14.8849 21.6112 14.4068 21.6417C14.1347 21.6591 13.904 21.7597 13.7502 21.9079L13.094 22.5404C12.8035 22.8204 12.3435 22.8204 12.053 22.5404L6.70023 17.3812C6.55356 17.2398 6.4707 17.0449 6.4707 16.8412C6.4707 16.6375 6.55356 16.4425 6.70023 16.3012C7.23867 15.7822 7.68581 14.9914 7.767 14.3489L8.32961 9.89689L8.33197 9.8798C8.41684 9.31329 8.73171 8.83348 9.17251 8.51949C9.26401 8.485 9.3617 8.46131 9.46403 8.4502C10.1554 8.37512 10.7255 8.8938 10.7244 9.51943L10.7211 11.5815C10.7208 11.7576 10.8258 11.9168 10.9878 11.9858Z" fill="#141B34"/>
</svg>
