<svg width="24" height="24" viewBox="0 0 24 24" fill="none" xmlns="http://www.w3.org/2000/svg">
<g opacity="0.4">
<path d="M21.5863 12.7016C21.7765 12.6066 22.001 12.7437 22.001 12.9548V15.9276C22.001 16.2268 22.001 16.5053 21.9773 16.7412C21.9186 17.3238 21.6412 17.7934 21.1594 18.1314C20.9639 18.2684 20.7188 18.4069 20.4532 18.5569L17.8986 20.0001V15.5914C17.8986 15.2448 17.8995 15.0388 17.9143 14.8847C17.9277 14.7447 17.9434 14.697 18.0583 14.6183C18.1736 14.5393 18.3379 14.4498 18.628 14.2936L21.5863 12.7016Z" fill="#141B34"/>
<path d="M2.4163 12.7016C2.22597 12.6065 2.00134 12.7437 2.00134 12.955V15.9276C2.00128 16.4707 1.98029 17.0495 2.26663 17.5348C2.55294 18.0201 3.07287 18.2879 3.54895 18.5568L6.10399 20.0002V15.5914C6.10399 15.2448 6.10317 15.0388 6.08837 14.8847C6.07492 14.7448 6.05935 14.6971 5.94431 14.6183C5.82901 14.5393 5.66473 14.4498 5.37462 14.2936L2.4163 12.7016Z" fill="#141B34"/>
<path d="M12.0012 1.00024C11.436 1.00024 10.9403 1.30592 10.4655 1.57423L8.60521 2.62516C8.31468 2.78929 8.16941 2.87136 8.17211 2.99257C8.17481 3.11378 8.3236 3.1894 8.62116 3.34064L11.2043 4.73234C11.5007 4.89265 11.6769 4.98703 11.8167 5.04633C11.9634 5.10859 12.0393 5.10859 12.186 5.04633C12.3257 4.98703 12.5019 4.89265 12.7984 4.73234L15.3813 3.34072C15.6789 3.18948 15.8276 3.11386 15.8304 2.99265C15.8331 2.87144 15.6878 2.78938 15.3973 2.62524L13.5369 1.57424C13.062 1.30593 12.5663 1.00024 12.0012 1.00024Z" fill="#141B34"/>
</g>
<path d="M3.75954 5.66313C3.52033 5.79938 3.40073 5.86751 3.39781 5.98029C3.3978 5.98077 3.39779 5.98128 3.39778 5.98176C3.3957 6.09456 3.51387 6.169 3.75022 6.31788L3.87864 6.39878L11.0404 10.3182C11.5101 10.5752 11.7449 10.7037 12.0006 10.7037C12.2563 10.7037 12.4911 10.5752 12.9608 10.3182L20.1286 6.39549L20.2485 6.32294C20.4918 6.17584 20.6134 6.10229 20.6119 5.98779C20.6104 5.87329 20.4874 5.80323 20.2414 5.66311L17.9916 4.38131C17.7617 4.25035 17.6468 4.18488 17.5203 4.18206C17.3938 4.17925 17.2761 4.23955 17.0407 4.36016L15.8491 4.97051L13.4658 6.27017C13.0101 6.51872 12.5361 6.80005 12.0007 6.80005C11.4653 6.80005 10.9913 6.51872 10.5356 6.27017L8.15225 4.97051L6.9605 4.36007C6.72505 4.23947 6.60732 4.17917 6.48084 4.18198C6.35437 4.18479 6.23944 4.25027 6.00958 4.38123L3.75954 5.66313Z" fill="#141B34"/>
<path d="M21.7485 7.78082C21.7423 7.53843 21.7392 7.41724 21.6382 7.36197C21.5372 7.3067 21.4261 7.37389 21.2039 7.50826L20.8865 7.70023L20.8751 7.707L20.8585 7.71634L13.7904 11.5844C13.2835 11.8618 13.0301 12.0005 12.8903 12.2363C12.7506 12.4721 12.7506 12.761 12.7506 13.3389V22.1439C12.7506 22.419 12.7506 22.5565 12.8497 22.6144C12.9488 22.6723 13.0644 22.6072 13.2954 22.4769C13.3631 22.4387 13.4304 22.4001 13.4978 22.3617L15.7457 21.0811C15.9921 20.9407 16.1153 20.8705 16.183 20.754C16.2507 20.6375 16.2507 20.4958 16.2507 20.2122L16.2507 15.5734C16.2506 15.2732 16.2506 14.997 16.2728 14.7645C16.327 14.1953 16.5857 13.7264 17.0585 13.3999C17.2452 13.2709 17.4778 13.1447 17.7226 13.0119L20.6451 11.4259C20.6488 11.4239 20.6524 11.4219 20.6562 11.42C20.8363 11.3261 21.0178 11.2346 21.1996 11.1437C21.4673 11.0099 21.6011 10.9431 21.6758 10.8222C21.7505 10.7014 21.7505 10.5518 21.7505 10.2526V8.24839C21.7505 8.09339 21.7524 7.93696 21.7485 7.78082Z" fill="#141B34"/>
<path d="M10.2069 11.5915C10.7121 11.8598 10.9647 11.9939 11.1076 12.2317C11.2506 12.4695 11.2506 12.7593 11.2506 13.3389V22.144C11.2506 22.4191 11.2506 22.5566 11.1515 22.6145C11.0524 22.6724 10.9368 22.6073 10.7058 22.477C10.638 22.4388 10.5706 22.4002 10.5031 22.3617L8.25564 21.0813C8.00926 20.9409 7.88608 20.8707 7.81837 20.7542C7.75066 20.6377 7.75066 20.4959 7.75066 20.2124L7.75067 15.5734C7.75069 15.2732 7.75071 14.997 7.72856 14.7645C7.67434 14.1953 7.41566 13.7264 6.94286 13.3999C6.7561 13.2709 6.52351 13.1447 6.27868 13.0119L3.35624 11.4259C3.17412 11.327 2.98866 11.2335 2.80249 11.1414C2.53479 11.0089 2.40093 10.9427 2.32572 10.8215C2.2505 10.7004 2.2505 10.5511 2.2505 10.2524V8.24841C2.25049 8.08932 2.24842 7.92863 2.2528 7.76827C2.25946 7.52435 2.26279 7.40239 2.36529 7.34763C2.4678 7.29286 2.57859 7.36265 2.80017 7.50223L3.1031 7.69305C5.37221 9.12232 7.82653 10.3273 10.2069 11.5915Z" fill="#141B34"/>
</svg>
