<svg width="24" height="24" viewBox="0 0 24 24" fill="none" xmlns="http://www.w3.org/2000/svg">
<path opacity="0.4" fill-rule="evenodd" clip-rule="evenodd" d="M7 10C7 9.44772 7.44772 9 8 9H15C15.5523 9 16 9.44772 16 10C16 10.5523 15.5523 11 15 11H8C7.44772 11 7 10.5523 7 10Z" fill="#141B34"/>
<path opacity="0.4" d="M20.9896 8.95393C20.9991 9.53049 21 9.23732 21 10C21 11.6612 20.9987 12.8291 20.9038 13.7296C20.8107 14.6123 20.6368 15.1222 20.367 15.5075C20.1329 15.842 19.842 16.1329 19.5075 16.367C19.1222 16.6368 18.6123 16.8107 17.7296 16.9038C16.8291 16.9987 15.6612 17 14 17H10C8.33876 17 7.17091 16.9987 6.27041 16.9038C5.38772 16.8107 4.8778 16.6368 4.49248 16.367C4.15804 16.1329 3.86715 15.842 3.63297 15.5075C3.36317 15.1222 3.18926 14.6123 3.09622 13.7296C3.0013 12.8291 3 11.6612 3 10C3 8.33876 3.0013 7.17091 3.09622 6.27041C3.18926 5.38772 3.36317 4.8778 3.63297 4.49248C3.86715 4.15804 4.15804 3.86715 4.49248 3.63297C4.8778 3.36317 5.38772 3.18926 6.27041 3.09622C7.17091 3.0013 8.33876 3 10 3H14C14.4206 3 14.8096 3.00008 15.1707 3.00175C15.1927 3.00185 15.2037 3.0019 15.2129 3.00178C15.4826 2.99807 15.7349 2.88829 15.9214 2.69343C15.9278 2.6868 15.9347 2.67934 15.9484 2.66441C15.9505 2.66221 15.9515 2.66111 15.9678 2.64147C16.4758 2.03125 16.0482 1.04796 15.2555 1.00329C15.23 1.00185 15.2609 1.00201 15.2485 1.00195C14.8726 0.999993 14.4758 0.999996 14.0569 1H14.0567H9.94328H9.94326C8.35178 0.999986 7.07837 0.999974 6.06076 1.10724C5.01328 1.21765 4.12227 1.45065 3.34533 1.99466C2.81978 2.36266 2.36266 2.81978 1.99466 3.34533C1.45065 4.12227 1.21765 5.01328 1.10724 6.06076C0.999974 7.07837 0.999986 8.35178 1 9.94326V9.94328V10.0567V10.0567C0.999986 11.6482 0.999974 12.9216 1.10724 13.9392C1.21765 14.9867 1.45065 15.8777 1.99466 16.6547C2.36266 17.1802 2.81978 17.6373 3.34533 18.0053C4.12227 18.5494 5.01328 18.7824 6.06076 18.8928C7.07837 19 8.35178 19 9.94327 19H14.0567C15.6482 19 16.9216 19 17.9392 18.8928C18.9867 18.7824 19.8777 18.5494 20.6547 18.0053C21.1802 17.6373 21.6373 17.1802 22.0053 16.6547C22.5494 15.8777 22.7824 14.9867 22.8928 13.9392C23 12.9216 23 11.6482 23 10.0567V9.94327C23 9.23763 22.9913 9.54791 22.9731 8.88909C22.9103 8.10411 21.9128 7.69761 21.3192 8.21511C21.1304 8.40486 20.9902 8.68626 20.9896 8.95393Z" fill="#141B34"/>
<path d="M19.0513 1.77998C19.6626 1.41637 20.4178 1.40489 21.0398 1.75023C21.2998 1.89456 21.6463 2.24928 21.8924 2.5014C22.1402 2.75377 22.3682 2.98602 22.5082 3.24913C22.84 3.87292 22.8293 4.62671 22.4794 5.24067C22.3318 5.49963 22.0971 5.72507 21.8422 5.96985L17.9316 9.73634C17.4202 10.2298 17.0168 10.6192 16.4997 10.8211C15.9812 11.0237 15.4233 11.0085 14.72 10.9895H14.72C14.6177 10.9869 14.2169 10.9765 14.0914 10.9556C13.9325 10.9291 13.6902 10.8591 13.4944 10.6369C13.3008 10.4172 13.2607 10.1709 13.252 10.0147C13.2449 9.88847 13.2761 9.48033 13.2844 9.37546C13.3321 8.75773 13.3698 8.2781 13.5613 7.83745C13.7532 7.39558 14.0782 7.04399 14.4947 6.59343L18.3356 2.43199C18.5743 2.17255 18.7957 1.93195 19.0513 1.77998Z" fill="#141B34"/>
<path d="M9.72791 19C9.79904 19 9.87083 19 9.94327 19H14.0567C14.1292 19 14.2009 19 14.272 19C14.2332 19.3334 14.2458 19.6705 14.3049 19.9899C14.3724 20.3549 14.4061 20.5374 14.6841 20.7687C14.9621 21 15.2353 21 15.7818 21H17C17.5523 21 18 21.4477 18 22C18 22.5523 17.5523 23 17 23H7C6.44772 23 6 22.5523 6 22C6 21.4477 6.44772 21 7 21H8.21814C8.76464 21 9.03788 21 9.31586 20.7687C9.59384 20.5374 9.62759 20.3549 9.69509 19.9899C9.75416 19.6705 9.76674 19.3334 9.72791 19Z" fill="#141B34"/>
</svg>
