<svg width="24" height="24" viewBox="0 0 24 24" fill="none" xmlns="http://www.w3.org/2000/svg">
<path opacity="0.4" d="M20.2317 2.25C20.578 2.24997 20.8919 2.24995 21.15 2.27593C21.4268 2.3038 21.7283 2.36808 22.0063 2.5577C22.2302 2.71048 22.4162 2.91299 22.5488 3.14997C22.7142 3.44548 22.7495 3.75255 22.75 4.03017C22.7505 4.28782 22.7191 4.59746 22.6847 4.93696V4.93698C22.6254 5.52264 22.5687 6.08311 22.4897 6.48104C22.4067 6.89932 22.2796 7.28401 22.0242 7.62846C21.8006 7.92989 21.5177 8.18253 21.193 8.37142C20.8231 8.58661 20.4263 8.67251 19.9991 8.71218C19.5915 8.75003 19.0924 8.75002 18.4954 8.75H5.50459H5.50457C4.90758 8.75002 4.40847 8.75003 4.00093 8.71218C3.57375 8.67251 3.17685 8.58661 2.80698 8.37142C2.48232 8.18253 2.19938 7.92989 1.97582 7.62846C1.72037 7.28401 1.59326 6.89932 1.51028 6.48104C1.43134 6.0831 1.3746 5.52267 1.3153 4.93699C1.28089 4.59748 1.2495 4.28782 1.25001 4.03017C1.25055 3.75255 1.28581 3.44548 1.45121 3.14997C1.58385 2.91299 1.76976 2.71048 1.9937 2.5577C2.27165 2.36808 2.57318 2.3038 2.85005 2.27593C3.10814 2.24995 3.42197 2.24997 3.76831 2.25H3.76838H20.2316H20.2317Z" fill="#141B34"/>
<path fill-rule="evenodd" clip-rule="evenodd" d="M9 11C9 10.4477 9.44772 10 10 10H14C14.5523 10 15 10.4477 15 11C15 11.5523 14.5523 12 14 12H10C9.44772 12 9 11.5523 9 11Z" fill="#141B34"/>
<path d="M2.28077 7.97485C2.26069 8.05216 2.25 8.13321 2.25 8.21674V13.1605C2.24997 14.9137 2.24995 16.3277 2.40157 17.4401C2.55909 18.5958 2.89625 19.5692 3.67962 20.3419C4.46231 21.114 5.44714 21.4456 6.61638 21.6007C7.74311 21.7501 9.17585 21.7501 10.954 21.7501H13.046C14.8242 21.7501 16.2569 21.7501 17.3836 21.6007C18.5529 21.4456 19.5377 21.114 20.3204 20.3419C21.1038 19.5692 21.4409 18.5958 21.5984 17.4401C21.75 16.3277 21.75 14.9137 21.75 13.1605V8.21674C21.75 8.13321 21.7393 8.05216 21.7192 7.97486C21.5607 8.12711 21.3841 8.26034 21.193 8.37149C20.8231 8.58668 20.4263 8.67258 19.9991 8.71225C19.935 8.7182 19.8686 8.72322 19.8 8.72745V13.0895C19.8 14.9305 19.7979 16.2134 19.666 17.1812C19.5379 18.1207 19.304 18.6173 18.9451 18.9714C18.5855 19.3261 18.0799 19.5578 17.1251 19.6844C16.1427 19.8147 14.8409 19.8167 12.975 19.8167H11.025C9.1591 19.8167 7.85726 19.8147 6.87491 19.6844C5.92009 19.5578 5.41455 19.3261 5.05495 18.9714C4.69604 18.6173 4.46206 18.1207 4.334 17.1812C4.20209 16.2134 4.2 14.9305 4.2 13.0895V8.72744C4.13137 8.72322 4.06502 8.7182 4.00093 8.71225C3.57375 8.67258 3.17685 8.58668 2.80698 8.37149C2.61593 8.26034 2.43933 8.12711 2.28077 7.97485Z" fill="#141B34"/>
</svg>
