<svg width="24" height="24" viewBox="0 0 24 24" fill="none" xmlns="http://www.w3.org/2000/svg">
<path opacity="0.4" fill-rule="evenodd" clip-rule="evenodd" d="M6.63123 6.09752C6.61628 5.68958 6.2778 5.36851 5.86963 5.3751C5.46146 5.38169 5.13352 5.71352 5.13174 6.12174C5.12934 6.6737 4.69181 8.28028 2.80142 10.5475C2.79485 10.5553 2.78844 10.5633 2.7822 10.5715C1.75964 11.9055 1.12488 13.5301 1.12488 15.125C1.12488 18.9479 4.69453 21.8592 8.85296 21.8749L8.86288 21.875L8.87488 21.875L8.88688 21.875L8.8968 21.8749C13.0552 21.8592 16.6249 18.9479 16.6249 15.125C16.6249 14.5524 16.5431 13.976 16.3909 13.4106L8.37119 17.9932C7.89167 18.2672 7.28082 18.1006 7.00681 17.6211C6.7328 17.1416 6.89939 16.5308 7.37891 16.2567L15.6171 11.5492C15.4238 11.2102 15.2063 10.8829 14.9676 10.5715C14.9613 10.5633 14.9549 10.5553 14.9483 10.5475C13.058 8.28028 12.6204 6.6737 12.618 6.12174C12.6162 5.71352 12.2883 5.38169 11.8801 5.3751C11.472 5.36851 11.1335 5.68958 11.1185 6.09752C11.1004 6.59158 10.7939 6.94994 10.449 7.07988C10.1751 7.18304 9.85177 7.15615 9.57533 6.82724C9.52 6.69897 9.42822 6.58465 9.3034 6.50129C9.17164 6.4133 9.02214 6.37254 8.87488 6.37503C8.72761 6.37254 8.57812 6.4133 8.44636 6.50129C8.32153 6.58465 8.22976 6.69897 8.17442 6.82724C7.89798 7.15615 7.57469 7.18304 7.3008 7.07988C6.95585 6.94994 6.64934 6.59158 6.63123 6.09752Z" fill="#141B34"/>
<path d="M22.4182 3.96469C22.8819 3.66466 23.0145 3.04555 22.7145 2.58187C22.4145 2.11819 21.7954 1.98552 21.3317 2.28555L13.0529 7.64244C13.2736 8.13209 13.5953 8.71491 14.0539 9.37689L22.4182 3.96469Z" fill="#141B34"/>
<path fill-rule="evenodd" clip-rule="evenodd" d="M22.7433 8.62903C23.0173 9.10855 22.8507 9.7194 22.3712 9.99341L8.37119 17.9934C7.89167 18.2674 7.28082 18.1008 7.00681 17.6213C6.7328 17.1418 6.89939 16.5309 7.37891 16.2569L21.3789 8.25693C21.8584 7.98292 22.4693 8.14951 22.7433 8.62903Z" fill="#141B34"/>
<path fill-rule="evenodd" clip-rule="evenodd" d="M7.71045 9.95434C8.08094 10.1396 8.2311 10.5901 8.04586 10.9606L7.54586 11.9606C7.36062 12.3311 6.91012 12.4812 6.53963 12.296C6.16915 12.1107 6.01898 11.6602 6.20422 11.2898L6.70422 10.2898C6.88946 9.91927 7.33997 9.7691 7.71045 9.95434ZM10.0396 9.95434C10.4101 9.7691 10.8606 9.91927 11.0459 10.2898L11.5459 11.2898C11.7311 11.6602 11.5809 12.1107 11.2105 12.296C10.84 12.4812 10.3895 12.3311 10.2042 11.9606L9.70422 10.9606C9.51898 10.5901 9.66915 10.1396 10.0396 9.95434Z" fill="#141B34"/>
</svg>
