<svg width="24" height="24" viewBox="0 0 24 24" fill="none" xmlns="http://www.w3.org/2000/svg">
<path opacity="0.4" d="M18.1607 4.49433C18.9411 3.56119 20.3304 3.33373 21.3287 4.14819C22.2621 4.90961 22.5391 6.39431 21.6962 7.40217L18.9765 10.6541C20.285 11.7412 21.9362 13.7168 22.234 16.4035C22.3695 17.6258 21.5989 18.6173 20.8308 19.2916C20.0354 19.9899 19.0542 20.5187 18.352 20.8286C18.1472 20.919 17.9244 21.001 17.7205 21.0758L17.7202 21.0759C17.5162 21.1508 17.3051 21.2282 17.1218 21.3054C16.7287 21.4708 16.476 21.6281 16.3363 21.7951C16.1372 22.0343 15.8762 22.348 15.6161 22.503C15.1652 22.7718 14.6175 22.824 14.1239 22.6452C13.8392 22.5421 13.5872 22.3353 13.3465 22.138L9.29214 18.8303C9.12099 18.6907 8.96378 18.5624 8.8394 18.4455C8.70571 18.3198 8.56839 18.17 8.46575 17.9737C8.41179 17.8706 8.35332 17.7484 8.31521 17.6002C8.2771 17.452 8.26936 17.3167 8.26686 17.2003C8.26139 16.9461 8.34457 16.6849 8.41676 16.4794C8.49625 16.2531 8.64763 15.8731 8.79026 15.5192C8.87813 15.2715 8.89389 14.9947 8.91697 14.1131L9.04214 9.33084C9.05291 8.26078 9.81553 7.35369 10.861 7.14008C12.1159 6.88364 13.3527 7.70332 13.5775 8.97109L13.7244 9.79884L18.1607 4.49433Z" fill="#141B34"/>
<path d="M8.75 3.5C8.75 2.25736 9.75736 1.25 11 1.25C12.2426 1.25 13.25 2.25736 13.25 3.5C13.25 4.74264 12.2426 5.75 11 5.75C9.75736 5.75 8.75 4.74264 8.75 3.5Z" fill="#141B34"/>
<path d="M1.75 10.5C1.75 9.25736 2.75736 8.25 4 8.25C5.24264 8.25 6.25 9.25736 6.25 10.5C6.25 11.7426 5.24264 12.75 4 12.75C2.75736 12.75 1.75 11.7426 1.75 10.5Z" fill="#141B34"/>
<path fill-rule="evenodd" clip-rule="evenodd" d="M9.41663 2.50006C9.44485 2.50009 9.47265 2.50012 9.5 2.50012C10.0523 2.50012 10.5 2.94783 10.5 3.50012C10.5 4.0524 10.0523 4.50012 9.5 4.50012L9.47221 4.50012C9.00732 4.50009 8.65505 4.50008 8.31356 4.55924C7.76939 4.65352 7.25181 4.28881 7.15753 3.74463C7.06325 3.20045 7.42796 2.68288 7.97214 2.5886C8.48861 2.49912 8.99916 2.49963 9.41663 2.50006ZM6.5616 4.02135C6.91587 4.44504 6.85959 5.0757 6.43589 5.42996C6.2525 5.58331 6.08302 5.7529 5.92961 5.93653C5.57553 6.36038 4.94489 6.41693 4.52105 6.06285C4.0972 5.70877 4.04065 5.07813 4.39473 4.65429C4.62432 4.37946 4.8781 4.12548 5.15299 3.89564C5.57668 3.54137 6.20734 3.59765 6.5616 4.02135ZM4.23264 6.66118C4.7781 6.74777 5.15009 7.26014 5.0635 7.80559C5.00645 8.16501 5 8.5404 5 9.00012C5 9.5524 4.55228 10.0001 4 10.0001C3.44772 10.0001 3 9.5524 3 9.00012C3 8.54506 3.00359 8.02528 3.08824 7.49204C3.17482 6.94659 3.68719 6.5746 4.23264 6.66118Z" fill="#141B34"/>
</svg>
