<svg width="25" height="24" viewBox="0 0 25 24" fill="none" xmlns="http://www.w3.org/2000/svg">
<path fill-rule="evenodd" clip-rule="evenodd" d="M9.56733 20.6796C10.2348 19.727 11.1481 19.0369 12.2499 19.0369C13.268 19.0369 14.1253 19.6263 14.7762 20.4675C15.0795 20.7363 15.2106 21.1467 15.5667 20.6438C16.2258 19.691 17.1346 19 18.2352 19C19.1787 19 19.9847 19.508 20.6159 20.2532C20.7883 20.4672 21.0779 21.2112 21.403 20.883C21.7918 20.4907 22.4249 20.4878 22.8172 20.8765C23.2095 21.2652 23.2124 21.8984 22.8237 22.2907C22.341 22.7779 21.683 23.0948 20.9387 22.9751C20.2614 22.8661 19.7301 22.4288 19.3453 21.8992C19.0448 21.5492 18.7681 21 18.2352 21C18.0466 21 17.6697 21.1178 17.2093 21.7847L17.2036 21.7929C16.7556 22.4283 16.0937 22.9631 15.2436 22.9631C14.4583 22.9631 13.7346 22.4556 13.2944 21.8273C12.8253 21.1578 12.4434 21.0369 12.2499 21.0369C12.0567 21.0369 11.6755 21.1574 11.2074 21.8243C10.7633 22.4677 10.1002 23 9.24987 23C8.43281 23 7.78862 22.5085 7.34552 21.8994C7.04485 21.5494 6.76826 21 6.23524 21C6.04659 21 5.66968 21.1178 5.20932 21.7847C4.75954 22.4363 4.06441 22.9631 3.2436 22.9631C2.38978 22.9631 1.73061 22.4241 1.28968 21.7836C0.976516 21.3287 1.09143 20.7061 1.54634 20.3929C2.00125 20.0797 2.6239 20.1946 2.93707 20.6496C3.18744 21.0133 3.31252 21.0027 3.56664 20.6438C4.2258 19.691 5.13462 19 6.23524 19C7.17872 19 7.98472 19.508 8.61587 20.2532C8.93158 20.6451 9.15238 21.2824 9.56733 20.6796Z" fill="#141B34"/>
<path opacity="0.4" d="M9.74807 6.95964C10.7035 6.54506 11.3835 6.25 12.1133 6.25C12.8431 6.25 13.5231 6.54506 14.4786 6.95964L17.5176 8.27625C18.3026 8.61631 18.9592 8.90072 19.4539 9.19766C19.9778 9.51207 20.409 9.89068 20.6538 10.4618C20.6948 10.5573 20.7305 10.655 20.7609 10.7544C20.9411 11.344 20.8641 11.918 20.6807 12.5116C20.584 12.8244 20.4486 13.1698 20.2851 13.5534H17.593C17.1788 13.5534 16.843 13.8892 16.843 14.3034C16.843 14.7177 17.1788 15.0534 17.593 15.0534H19.6371L18.755 17.1966C18.7125 17.2998 18.6913 17.3514 18.6667 17.3833C18.6181 17.4462 18.585 17.4684 18.5084 17.4894C18.4695 17.5 18.3914 17.5 18.2354 17.5C17.2155 17.5 16.352 17.866 15.6487 18.3965C15.4337 18.5587 15.3262 18.6397 15.2269 18.6404C15.1275 18.6411 15.019 18.5614 14.8018 18.4021C14.1036 17.8898 13.2499 17.5369 12.25 17.5369C11.2489 17.5369 10.3971 17.8889 9.69854 18.4027C9.48221 18.5618 9.37404 18.6413 9.2751 18.641C9.17615 18.6407 9.06829 18.5604 8.85257 18.3997C8.14151 17.87 7.25581 17.5 6.23535 17.5C5.88316 17.5 5.70707 17.5 5.63175 17.4501L5.6292 17.4484C5.55439 17.3977 5.50807 17.2852 5.41545 17.0602L4.58952 15.0534H6.63362C7.04783 15.0534 7.38362 14.7177 7.38362 14.3034C7.38362 13.8892 7.04783 13.5534 6.63362 13.5534H3.94149C3.77807 13.1698 3.64264 12.8244 3.54597 12.5116C3.36249 11.918 3.28555 11.344 3.46571 10.7544C3.4961 10.655 3.53184 10.5573 3.57279 10.4618C3.81767 9.89068 4.24882 9.51208 4.7727 9.19766C5.26747 8.90072 5.92406 8.6163 6.70908 8.27625L9.74807 6.95964Z" fill="#141B34"/>
<path fill-rule="evenodd" clip-rule="evenodd" d="M13.1133 2C13.1133 1.44772 12.6656 1 12.1133 1C11.561 1 11.1133 1.44772 11.1133 2V3H10.1133C10.0913 3 10.0693 3 10.0475 3C9.16096 2.99995 8.39716 2.9999 7.78549 3.08214C7.12998 3.17027 6.50163 3.36902 5.99197 3.87868C5.4823 4.38834 5.28356 5.01669 5.19543 5.67221C5.11319 6.28387 5.11323 7.04768 5.11328 7.93417L5.11329 9.00754C5.55521 8.77608 6.09253 8.54332 6.70907 8.27625L6.70908 8.27625L7.11329 8.10113V8C7.11329 7.02892 7.11541 6.40121 7.17759 5.9387C7.23591 5.50496 7.33006 5.36902 7.40618 5.29289C7.4823 5.21677 7.61825 5.12262 8.05199 5.06431C8.5145 5.00212 9.14221 5 10.1133 5H14.1133C15.0844 5 15.7121 5.00212 16.1746 5.06431C16.6083 5.12262 16.7443 5.21677 16.8204 5.29289C16.8965 5.36902 16.9907 5.50496 17.049 5.9387C17.1112 6.40121 17.1133 7.02892 17.1133 8V8.10111L17.5176 8.27625C18.1341 8.54331 18.6714 8.77606 19.1133 9.00751L19.1133 7.93417C19.1133 7.04768 19.1134 6.28387 19.0311 5.67221C18.943 5.01669 18.7443 4.38834 18.2346 3.87868C17.7249 3.36902 17.0966 3.17027 16.4411 3.08214C15.8294 2.9999 15.0656 2.99995 14.1791 3L13.1133 3V2Z" fill="#141B34"/>
<path d="M20.285 13.5527H17.593C17.1787 13.5527 16.843 13.8885 16.843 14.3027C16.843 14.7169 17.1787 15.0527 17.593 15.0527H19.637L19.8373 14.5661C20.0012 14.2011 20.1523 13.8643 20.285 13.5527Z" fill="#141B34"/>
<path d="M4.58943 15.0527H6.63353C7.04775 15.0527 7.38353 14.7169 7.38353 14.3027C7.38353 13.8885 7.04775 13.5527 6.63353 13.5527H3.94141C4.07412 13.8643 4.22529 14.2011 4.38916 14.5661L4.58943 15.0527Z" fill="#141B34"/>
</svg>
