<svg width="24" height="24" viewBox="0 0 24 24" fill="none" xmlns="http://www.w3.org/2000/svg">
<g opacity="0.4">
<path d="M7.31442 3.00098C7.26503 3.30354 7.25 3.63995 7.25 3.99985C7.25 4.36077 7.26511 4.69805 7.31484 5.00127C6.71648 5.00494 6.28207 5.018 5.93871 5.06416C5.50497 5.12248 5.36902 5.21663 5.2929 5.29275C5.21677 5.36888 5.12263 5.50482 5.06431 5.93856C5.00213 6.40107 5 7.02878 5 7.99986C5 8.97094 5.00213 9.59865 5.06431 10.0612C5.12263 10.4949 5.21677 10.6308 5.2929 10.707C5.36902 10.7831 5.50497 10.8772 5.93871 10.9356C6.40122 10.9977 7.02893 10.9999 8 10.9999H8.5C8.53554 10.9999 8.57064 11.0017 8.60522 11.0053C8.41048 11.2737 8.25 11.5969 8.25 11.9999C8.25 12.4028 8.41048 12.726 8.60523 12.9944C8.57065 12.998 8.53554 12.9999 8.5 12.9999L7.93417 12.9999C7.04769 12.9999 6.28387 13 5.67221 12.9177C5.0167 12.8296 4.38835 12.6308 3.87868 12.1212C3.36902 11.6115 3.17028 10.9832 3.08215 10.3276C2.99991 9.71599 2.99995 8.95218 3 8.06569V7.93403C2.99995 7.04754 2.99991 6.28373 3.08215 5.67207C3.17028 5.01655 3.36902 4.3882 3.87868 3.87854C4.38835 3.36888 5.0167 3.17013 5.67221 3.082C6.13631 3.0196 6.68801 3.00457 7.31442 3.00098Z" fill="#141B34"/>
<path d="M15.3948 12.9944C15.4294 12.998 15.4645 12.9999 15.5 12.9999H16C16.9711 12.9999 17.5988 13.002 18.0613 13.0642C18.495 13.1225 18.631 13.2166 18.7071 13.2928C18.7832 13.3689 18.8774 13.5048 18.9357 13.9386C18.9979 14.4011 19 15.0288 19 15.9999C19 16.9709 18.9979 17.5986 18.9357 18.0612C18.8774 18.4949 18.7832 18.6308 18.7071 18.707C18.631 18.7831 18.495 18.8772 18.0613 18.9356C17.7179 18.9817 17.2835 18.9948 16.6852 18.9984C16.7349 19.3017 16.75 19.6389 16.75 19.9999C16.75 20.3598 16.735 20.6962 16.6856 20.9987C17.312 20.9951 17.8637 20.9801 18.3278 20.9177C18.9833 20.8296 19.6117 20.6308 20.1213 20.1212C20.631 19.6115 20.8297 18.9832 20.9179 18.3277C21.0001 17.716 21.0001 16.9522 21 16.0657V15.934C21.0001 15.0475 21.0001 14.2837 20.9179 13.6721C20.8297 13.0166 20.631 12.3882 20.1213 11.8785C19.6117 11.3689 18.9833 11.1701 18.3278 11.082C17.7161 10.9998 16.9523 10.9998 16.0658 10.9999L15.5 10.9999C15.4645 10.9999 15.4294 11.0017 15.3948 11.0053C15.5895 11.2737 15.75 11.5969 15.75 11.9999C15.75 12.4028 15.5895 12.726 15.3948 12.9944Z" fill="#141B34"/>
</g>
<g opacity="0.4">
<path d="M11 6.75H13V8.5C13 8.53554 12.9981 8.57064 12.9945 8.60523C12.7262 8.41048 12.4029 8.25 12 8.25C11.5971 8.25 11.2738 8.41048 11.0055 8.60523C11.0019 8.57064 11 8.53554 11 8.5V6.75Z" fill="#141B34"/>
<path d="M11.0055 15.3948C11.0019 15.4294 11 15.4645 11 15.5V17.25H13V15.5C13 15.4645 12.9981 15.4294 12.9945 15.3948C12.7262 15.5895 12.4029 15.75 12 15.75C11.5971 15.75 11.2738 15.5895 11.0055 15.3948Z" fill="#141B34"/>
</g>
<path d="M10.9497 8.64678C11.2287 8.43385 11.5687 8.25 12 8.25C12.4313 8.25 12.7713 8.43385 13.0503 8.64678C13.3032 8.83973 13.5769 9.11346 13.8738 9.41048L14.5895 10.1262L14.5895 10.1262C14.8866 10.4231 15.1603 10.6968 15.3532 10.9497C15.5662 11.2287 15.75 11.5687 15.75 12C15.75 12.4313 15.5662 12.7713 15.3532 13.0503C15.1603 13.3032 14.8865 13.5769 14.5895 13.8738L14.5895 13.8738L13.8738 14.5895L13.8738 14.5895C13.5769 14.8865 13.3032 15.1603 13.0503 15.3532C12.7713 15.5662 12.4313 15.75 12 15.75C11.5687 15.75 11.2287 15.5662 10.9497 15.3532C10.6968 15.1603 10.4231 14.8865 10.1262 14.5895L10.1262 14.5895L9.41049 13.8739C9.11347 13.5769 8.83974 13.3032 8.64678 13.0503C8.43385 12.7713 8.25 12.4313 8.25 12C8.25 11.5687 8.43385 11.2287 8.64678 10.9497C8.83973 10.6968 9.11346 10.4231 9.41048 10.1262L9.41048 10.1262L10.1262 9.41048L10.1262 9.41048C10.4231 9.11346 10.6968 8.83973 10.9497 8.64678Z" fill="#141B34"/>
<path d="M8.82851 1.34728C9.17373 1.27144 9.5701 1.25 10 1.25H14C14.4299 1.25 14.8263 1.27144 15.1715 1.34728C15.5252 1.42498 15.8713 1.56966 16.1508 1.84917C16.4303 2.12868 16.575 2.4748 16.6527 2.82851C16.7286 3.17373 16.75 3.5701 16.75 4C16.75 4.4299 16.7286 4.82627 16.6527 5.17149C16.575 5.5252 16.4303 5.87132 16.1508 6.15083C15.8713 6.43034 15.5252 6.57502 15.1715 6.65272C14.8263 6.72856 14.4299 6.75 14 6.75H10C9.5701 6.75 9.17373 6.72856 8.82851 6.65272C8.4748 6.57502 8.12868 6.43034 7.84917 6.15083C7.56966 5.87132 7.42498 5.5252 7.34728 5.17149C7.27144 4.82627 7.25 4.4299 7.25 4C7.25 3.5701 7.27144 3.17373 7.34728 2.82851C7.42498 2.4748 7.56966 2.12868 7.84917 1.84917C8.12868 1.56966 8.4748 1.42498 8.82851 1.34728Z" fill="#141B34"/>
<path d="M8.82851 17.3473C9.17373 17.2714 9.5701 17.25 10 17.25H14C14.4299 17.25 14.8263 17.2714 15.1715 17.3473C15.5252 17.425 15.8713 17.5697 16.1508 17.8492C16.4303 18.1287 16.575 18.4748 16.6527 18.8285C16.7286 19.1737 16.75 19.5701 16.75 20C16.75 20.4299 16.7286 20.8263 16.6527 21.1715C16.575 21.5252 16.4303 21.8713 16.1508 22.1508C15.8713 22.4303 15.5252 22.575 15.1715 22.6527C14.8263 22.7286 14.4299 22.75 14 22.75H10C9.5701 22.75 9.17373 22.7286 8.82851 22.6527C8.4748 22.575 8.12868 22.4303 7.84917 22.1508C7.56966 21.8713 7.42498 21.5252 7.34728 21.1715C7.27144 20.8263 7.25 20.4299 7.25 20C7.25 19.5701 7.27144 19.1737 7.34728 18.8285C7.42498 18.4748 7.56966 18.1287 7.84917 17.8492C8.12868 17.5697 8.4748 17.425 8.82851 17.3473Z" fill="#141B34"/>
</svg>
