<svg width="24" height="24" viewBox="0 0 24 24" fill="none" xmlns="http://www.w3.org/2000/svg">
<path d="M13.875 19.6309C13.3227 19.6309 12.875 19.1831 12.875 18.6309C12.875 18.0786 13.3227 17.6309 13.875 17.6309L18.375 17.6309L18.375 17.0366C18.3749 16.861 18.3747 16.6453 18.3968 16.4689L18.3972 16.4655C18.413 16.3391 18.4848 15.763 19.0504 15.4887C19.6173 15.2137 20.1174 15.5157 20.2256 15.581L20.6941 15.9201C21.0699 16.2147 21.5844 16.6204 21.9754 17.0009C22.1705 17.1907 22.3717 17.408 22.5306 17.6389C22.6718 17.8441 22.875 18.1943 22.875 18.625C22.875 19.0557 22.6718 19.4059 22.5306 19.6111C22.3717 19.842 22.1705 20.0593 21.9754 20.2491C21.5844 20.6296 21.0699 21.0352 20.6941 21.3299L20.2256 21.669C20.1174 21.7343 19.6172 22.0363 19.0504 21.7613C18.4848 21.487 18.413 20.9109 18.3972 20.7845L18.3968 20.7811C18.3747 20.6047 18.3749 20.389 18.375 20.2134L18.375 19.6309L13.875 19.6309Z" fill="#141B34"/>
<path opacity="0.4" d="M9.3376 2.36384C8.69873 2.12427 7.98705 2.12458 6.95764 2.12504C6.0789 2.12503 5.19705 2.12506 4.6247 2.17552C4.03496 2.2275 3.51888 2.33746 3.04758 2.60048C2.44033 2.93935 1.93928 3.44041 1.6004 4.04766C1.33738 4.51896 1.22742 5.03504 1.17544 5.62478C1.12499 6.19712 1.12499 6.90585 1.125 7.78458V10.9325C1.12499 13.2408 1.12498 15.0499 1.31475 16.4614C1.50899 17.9061 1.91433 19.0461 2.80914 19.9409C3.70395 20.8358 4.84397 21.2411 6.28871 21.4353C7.70019 21.6251 9.50923 21.6251 11.8176 21.6251H12.8261C12.8643 21.6251 12.8834 21.6251 12.8995 21.6233C13.0397 21.6082 13.1504 21.4975 13.1655 21.3573C13.1673 21.3412 13.1673 21.3221 13.1673 21.2839C13.1673 21.2493 13.1673 21.232 13.1663 21.2199C13.1571 21.1065 13.1046 21.0283 13.0032 20.9767C12.9924 20.9712 12.9705 20.9622 12.9266 20.9443C12.0162 20.5707 11.375 19.6754 11.375 18.6304C11.375 17.2497 12.4943 16.1304 13.875 16.1304L16.4235 16.1304C16.6528 16.1304 16.7674 16.1304 16.8451 16.0757C16.9228 16.0209 16.9681 15.8945 17.0585 15.6416C17.2304 15.1607 17.5994 14.5249 18.3958 14.1386C19.7026 13.5047 20.8274 14.1906 20.9912 14.2905C21.1443 14.3844 21.3773 14.5549 21.6231 14.7444C22.0534 15.0761 22.2685 15.2419 22.4353 15.1616C22.602 15.0812 22.6063 14.818 22.6147 14.2916C22.625 13.6543 22.625 12.9492 22.625 12.1673C22.625 11.1483 22.625 10.2439 22.558 9.58456C22.4887 8.904 22.3419 8.3138 21.993 7.79169C21.7194 7.38223 21.3679 7.03066 20.9584 6.75707C20.4363 6.40821 19.8461 6.26136 19.1655 6.19213C18.5062 6.12506 17.6845 6.12507 16.6655 6.12508L13.1111 6.12508C12.795 6.12508 12.6146 6.12415 12.4814 6.11039C12.3794 6.10325 12.3098 6.02763 12.2878 5.99071C12.2159 5.87777 11.9588 5.36416 11.8175 5.08144C11.3454 4.12629 10.7331 2.88713 9.3376 2.36384Z" fill="#141B34"/>
</svg>
