<svg width="24" height="24" viewBox="0 0 24 24" fill="none" xmlns="http://www.w3.org/2000/svg">
<path fill-rule="evenodd" clip-rule="evenodd" d="M1.29289 1.29289C1.68342 0.902369 2.31658 0.902369 2.70711 1.29289L22.7071 21.2929C23.0976 21.6834 23.0976 22.3166 22.7071 22.7071C22.3166 23.0976 21.6834 23.0976 21.2929 22.7071L1.29289 2.70711C0.902369 2.31658 0.902369 1.68342 1.29289 1.29289Z" fill="#141B34"/>
<path opacity="0.4" d="M7.08263 2.25004C8.11203 2.24958 8.82372 2.24927 9.46258 2.48884C10.858 3.01213 11.4704 4.25129 11.9424 5.20644C12.0838 5.48916 12.3409 6.00277 12.4128 6.11571C12.4348 6.15263 12.5044 6.22825 12.6064 6.23539C12.7395 6.24915 12.92 6.25008 13.2361 6.25008L16.7905 6.25008C17.8095 6.25007 18.6312 6.25006 19.2905 6.31713C19.9711 6.38636 20.5613 6.53321 21.0834 6.88207C21.4928 7.15566 21.8444 7.50723 22.118 7.91669C22.4669 8.4388 22.6137 9.029 22.6829 9.70956C22.75 10.3689 22.75 11.2733 22.75 12.2923C22.75 14.0121 22.75 15.3603 22.6408 16.4337C22.5916 16.9169 22.5192 17.3606 22.409 17.7721C22.3137 18.1283 22.266 18.3064 22.0987 18.3513C21.9314 18.3961 21.7908 18.2555 21.5096 17.9744L6.70456 3.16932C6.35866 2.82342 6.18571 2.65046 6.2146 2.49516C6.22221 2.45425 6.23864 2.41459 6.26219 2.38028C6.35157 2.25003 6.59526 2.25003 7.08263 2.25004Z" fill="#141B34"/>
<path d="M20.1945 20.7811C19.4202 21.2985 18.5283 21.5296 17.4336 21.6409C16.3602 21.7501 15.012 21.7501 13.2923 21.7501H11.9426C9.63423 21.7501 7.82519 21.7501 6.41371 21.5604C4.96897 21.3661 3.82895 20.9608 2.93414 20.066C2.03933 19.1712 1.63399 18.0311 1.43975 16.5864C1.24998 15.1749 1.24999 13.3659 1.25 11.0575V7.90961C1.24999 7.03087 1.24999 6.32215 1.30044 5.74981C1.35242 5.16007 1.46238 4.64399 1.7254 4.17269C1.93016 3.80576 2.19414 3.47761 2.50498 3.20058C2.66845 3.05489 2.75019 2.98204 2.86938 2.98547C2.98858 2.98889 3.07451 3.07482 3.24636 3.24667L20.2379 20.2382C20.2858 20.2861 20.3098 20.3101 20.3269 20.3365C20.3999 20.4489 20.3837 20.6133 20.2902 20.7092C20.2682 20.7318 20.2437 20.7482 20.1945 20.7811Z" fill="#141B34"/>
</svg>
