<svg width="24" height="24" viewBox="0 0 24 24" fill="none" xmlns="http://www.w3.org/2000/svg">
<path fill-rule="evenodd" clip-rule="evenodd" d="M10.4091 3.62083C9.89788 3.25723 9.3063 3.25068 8.25 3.25068H3.25C2.69772 3.25068 2.25 2.80296 2.25 2.25068C2.25 1.69839 2.69772 1.25068 3.25 1.25068L8.25 1.25068C8.3084 1.25068 8.36863 1.2504 8.43053 1.25012C9.3055 1.24611 10.5131 1.24058 11.5683 1.99098C12.2401 2.46882 12.6948 3.13144 13.0398 3.63427C13.0514 3.65119 13.0629 3.66793 13.0743 3.68447C13.4608 4.24718 13.7341 4.62677 14.0909 4.88053C14.6021 5.24412 15.1937 5.25068 16.25 5.25068H20.75C21.3023 5.25068 21.75 5.69839 21.75 6.25068C21.75 6.80296 21.3023 7.25068 20.75 7.25068H16.25C16.1916 7.25068 16.1314 7.25095 16.0695 7.25124C15.1945 7.25524 13.9869 7.26077 12.9317 6.51038C12.2599 6.03254 11.8052 5.36992 11.4602 4.86709C11.4486 4.85017 11.4371 4.83343 11.4257 4.81688C11.0392 4.25418 10.7659 3.87458 10.4091 3.62083Z" fill="#141B34"/>
<path opacity="0.4" d="M7.58222 5.25053C8.50075 5.25006 9.15301 5.24972 9.73981 5.46705C11.0246 5.94288 11.5891 7.07201 12.0127 7.91919C12.0127 7.91919 12.3378 8.56089 12.4098 8.67288C12.4227 8.70913 12.4795 8.78362 12.6029 8.79157C12.7354 8.80522 12.9147 8.80613 13.2292 8.80613L16.3145 8.80613C17.229 8.80612 17.9714 8.80611 18.5681 8.86607C19.1855 8.9281 19.7294 9.06034 20.2131 9.37957C20.5898 9.62811 20.9137 9.94788 21.1662 10.321C21.4913 10.8016 21.6261 11.3426 21.6892 11.9552C21.75 12.546 21.75 13.2804 21.75 14.1824V14.1825V14.2652V14.2653C21.75 15.7898 21.75 16.9921 21.6513 17.9509C21.5502 18.9317 21.3396 19.7408 20.8628 20.4456C20.479 21.0128 19.9863 21.4993 19.4132 21.8775C18.7024 22.3466 17.8871 22.5537 16.8969 22.6532C15.9275 22.7506 14.7114 22.7506 13.1665 22.7506H11.9437H11.9436C9.87009 22.7506 8.23829 22.7506 6.96355 22.5813C5.65666 22.4078 4.61293 22.0442 3.79099 21.2324C2.96777 20.4194 2.59791 19.3848 2.42161 18.0896C2.24997 16.8288 2.24999 15.2156 2.25 13.1692V13.1692V10.3608V10.3608C2.24999 9.75347 2.24999 9.23417 2.27177 8.79157C2.27789 8.66729 2.28572 8.54906 2.29576 8.43662C2.34312 7.90597 2.44398 7.43298 2.68931 6.99879C3.00219 6.44506 3.46406 5.98945 4.02223 5.6818C4.4587 5.44123 4.93396 5.34224 5.46895 5.29566C5.98698 5.25056 6.79365 5.25052 7.58222 5.25053Z" fill="#141B34"/>
</svg>
