<svg width="24" height="24" viewBox="0 0 24 24" fill="none" xmlns="http://www.w3.org/2000/svg">
<path opacity="0.4" d="M18.6929 15.2718C18.5768 15.5514 18.3033 15.7337 18 15.7337H14C13.0572 15.7337 12.5858 15.7337 12.2929 16.0258C12 16.318 12 16.7883 12 17.7288V20.0264C12 21.0758 12 21.6005 11.6869 21.7264C11.3739 21.8523 11.0091 21.4743 10.2795 20.7182L5.88849 16.3256C5.48132 15.9482 5.25 15.4187 5.25 14.8642V11.9929C5.25 10.5821 5.25 9.87677 5.68934 9.4385C6.12868 9.00024 6.83579 9.00024 8.25 9.00024H12.5L18.5303 14.4565C18.7448 14.6705 18.809 14.9923 18.6929 15.2718Z" fill="#141B34"/>
<path d="M5.30711 2.71323C5.4232 2.43298 5.69668 2.25024 6.00002 2.25024H17C17.2231 2.25024 17.4535 2.26089 17.6662 2.30762C17.8874 2.35621 18.1344 2.45344 18.3406 2.65966C18.5468 2.86588 18.6441 3.11286 18.6926 3.33404C18.7394 3.54673 18.75 3.77718 18.75 4.00024V6.00024C18.75 7.41446 18.75 8.12156 18.3107 8.5609C17.8713 9.00024 17.1642 9.00024 15.75 9.00024H11.5L5.46969 3.53057C5.25519 3.31608 5.19103 2.99349 5.30711 2.71323Z" fill="#141B34"/>
</svg>
