<svg width="24" height="24" viewBox="0 0 24 24" fill="none" xmlns="http://www.w3.org/2000/svg">
<path d="M19.4952 7.26952C19.3962 6.87621 19.3467 6.67956 19.1783 6.63306C19.0098 6.58656 18.8591 6.73728 18.5577 7.03872L8.9079 16.6885C8.61223 16.9842 8.4644 17.132 8.44943 17.3149C8.43446 17.4979 8.56122 17.6747 8.81474 18.0282C9.60327 19.1279 10.2253 20.2747 10.5869 21.5464C10.5916 21.5628 10.5968 21.579 10.6026 21.5951C10.7004 21.8671 10.8359 22.1782 11.0825 22.4089C11.3746 22.682 11.7145 22.7503 12.0101 22.7503C12.398 22.7503 12.7379 22.6092 12.9954 22.3391C13.2198 22.1037 13.3397 21.8123 13.4169 21.5848C13.4209 21.5731 13.4246 21.5612 13.428 21.5493C13.9729 19.6364 15.1313 17.9694 16.4903 16.3644C17.4071 15.2938 18.2182 14.1386 18.9122 12.9148C18.92 12.9009 18.9274 12.8868 18.9344 12.8725C19.8145 11.0611 19.9503 9.07724 19.4952 7.26952Z" fill="#141B34"/>
<g opacity="0.4">
<path d="M5.80722 12.718C5.54915 12.9761 5.42011 13.1052 5.40092 13.2798C5.38174 13.4545 5.47418 13.5998 5.65906 13.8905C5.94348 14.3375 6.2533 14.7621 6.56268 15.1626C6.59071 15.1989 6.61881 15.2351 6.64695 15.2712C6.96236 15.6754 7.12007 15.8775 7.34497 15.8913C7.56987 15.9051 7.75424 15.7208 8.12297 15.352L10.7838 12.6912C11.0023 12.4727 11.1115 12.3635 11.0938 12.2613C11.0761 12.1591 10.9209 12.0855 10.6104 11.9384C9.9322 11.6171 9.38302 11.0679 9.06168 10.3898C8.91456 10.0793 8.841 9.92406 8.7388 9.90636C8.6366 9.88867 8.52736 9.9979 8.3089 10.2164L5.80722 12.718Z" fill="#141B34"/>
<path d="M13.2169 5.30841C12.9984 5.52687 12.8892 5.63611 12.9068 5.73831C12.9245 5.84051 13.0798 5.91407 13.3903 6.06119C14.0684 6.38253 14.6176 6.93171 14.9389 7.60987C15.086 7.92037 15.1596 8.07562 15.2618 8.09331C15.364 8.11101 15.4732 8.00177 15.6917 7.7833L17.9695 5.50548C18.2418 5.23326 18.3779 5.09715 18.3911 4.91104C18.4044 4.72492 18.2979 4.58289 18.085 4.29884C17.6978 3.78244 17.2494 3.31313 16.7462 2.90591C16.4648 2.67815 16.3241 2.56427 16.1325 2.57434C15.9408 2.58441 15.8012 2.72408 15.5219 3.0034L13.2169 5.30841Z" fill="#141B34"/>
</g>
<g opacity="0.4">
<path d="M14.0208 2.38272C14.3224 2.08111 14.4732 1.93031 14.425 1.76076C14.3768 1.5912 14.1806 1.54502 13.7883 1.45266C13.22 1.31888 12.6201 1.24818 11.9926 1.24978C10.3146 1.24764 8.82593 1.77236 7.61347 2.64239C7.37623 2.81263 7.25762 2.89774 7.24632 3.03612C7.23501 3.1745 7.34396 3.28344 7.56185 3.50134L9.80776 5.74725C10.0078 5.94725 10.1078 6.04724 10.232 6.04724C10.3563 6.04724 10.4563 5.94724 10.6563 5.74724L14.0208 2.38272Z" fill="#141B34"/>
<path d="M6.53614 4.59694C6.31159 4.3724 6.19932 4.26012 6.05826 4.27389C5.9172 4.28766 5.8331 4.41304 5.66491 4.66382C4.48544 6.42233 3.9779 8.64838 4.39313 10.8172C4.47261 11.2324 4.51235 11.44 4.68494 11.493C4.85752 11.546 5.01505 11.3885 5.33011 11.0734L8.7471 7.65643C8.9471 7.45643 9.0471 7.35643 9.0471 7.23217C9.0471 7.1079 8.9471 7.0079 8.7471 6.8079L6.53614 4.59694Z" fill="#141B34"/>
</g>
</svg>
