<svg width="24" height="24" viewBox="0 0 24 24" fill="none" xmlns="http://www.w3.org/2000/svg">
<path opacity="0.4" d="M10.3867 1.6503C10.928 1.40283 11.4371 1.25 12 1.25C12.5629 1.25 13.072 1.40283 13.6133 1.6503C14.1321 1.88741 14.7296 2.23554 15.4628 2.66274L18.2921 4.31107L18.5428 4.4572L4.21413 18.7859C4.10855 18.716 4.00859 18.6472 3.91423 18.5789C3.43112 18.2295 3.04681 17.862 2.76671 17.3725C2.48682 16.8833 2.36393 16.3647 2.30577 15.7693C2.24998 15.1982 2.24999 14.5027 2.25 13.6477V13.6477V10.3523V10.3523C2.24999 9.49731 2.24998 8.80175 2.30577 8.23069C2.36393 7.63527 2.48682 7.11674 2.76671 6.62754C3.04681 6.13799 3.43112 5.77048 3.91423 5.42109C4.377 5.0864 4.9745 4.73831 5.70787 4.31107L8.53715 2.66275C9.27041 2.23554 9.86793 1.88742 10.3867 1.6503Z" fill="#141B34"/>
<path d="M20.0858 5.42091C20.5689 5.77031 20.9532 6.13781 21.2333 6.62737C21.5132 7.11656 21.6361 7.6351 21.6942 8.23052C21.75 8.80158 21.75 9.49715 21.75 10.3522V13.6475C21.75 14.5025 21.75 15.1981 21.6942 15.7691C21.6361 16.3646 21.5132 16.8831 21.2333 17.3723C20.9532 17.8618 20.5689 18.2293 20.0858 18.5787C19.623 18.9134 19.0255 19.2615 18.2922 19.6887L15.4629 21.337C14.7296 21.7643 14.1321 22.1124 13.6133 22.3495C13.0719 22.597 12.5629 22.7498 12 22.7498C11.437 22.7498 10.928 22.597 10.3866 22.3495C9.86791 22.1124 9.27037 21.7643 8.53709 21.3371L5.70782 19.6887L5.70775 19.6887C5.12396 19.3486 4.62627 19.0587 4.21411 18.7857L18.5428 4.45703C19.1628 4.81902 19.6769 5.1252 20.0858 5.42091Z" fill="#141B34"/>
</svg>
