<svg width="24" height="24" viewBox="0 0 24 24" fill="none" xmlns="http://www.w3.org/2000/svg">
<g opacity="0.4">
<path d="M18.2852 3.67893C18.5375 3.20353 18.3551 2.6144 17.878 2.36308C17.4008 2.11176 16.8095 2.29341 16.5573 2.76881L11.5013 12.2977C11.3565 12.5706 11.2527 12.7309 11.1727 12.8275C11.1377 12.8729 11.0629 12.8932 11.0123 12.9002C11.0039 12.9013 10.9998 12.9019 10.9869 12.902C10.9741 12.9021 10.9677 12.9014 10.9551 12.8999C10.8272 12.8845 10.6429 12.8432 10.3646 12.7586C10.0053 12.6493 9.54321 12.4687 8.97607 12.247L8.95402 12.2384C8.39466 12.0198 7.75624 11.7712 7.1124 11.5617C6.47182 11.3533 5.78795 11.1708 5.1324 11.0968C4.48903 11.0242 3.77239 11.0438 3.13267 11.3397C2.37079 11.6921 1.93548 12.4498 1.68662 13.1237C1.42334 13.8366 1.28672 14.6739 1.25651 15.488C1.22623 16.3037 1.30073 17.1511 1.49803 17.8901C1.68476 18.5896 2.02911 19.3711 2.67842 19.8279C3.27014 20.2442 4.0567 20.4642 4.82501 20.5882C5.61661 20.7159 6.50172 20.7584 7.37411 20.7487C9.11392 20.7294 10.9137 20.5009 12.0189 20.2486C12.545 20.1285 12.8738 19.6062 12.7532 19.082C12.6327 18.5579 12.1085 18.2303 11.5824 18.3505C10.6262 18.5687 8.96654 18.7835 7.35235 18.8015C7.23719 18.8027 7.15409 18.6925 7.18573 18.5817L8.33533 14.5582C8.39161 14.3612 8.41976 14.2627 8.49841 14.2233C8.57706 14.184 8.67334 14.2207 8.8659 14.2942C9.19654 14.4204 9.51414 14.536 9.79412 14.6211C10.4237 14.8125 11.1532 14.9885 11.842 14.7061C12.534 14.4224 12.9235 13.784 13.2292 13.2078L18.2852 3.67893Z" fill="#141B34"/>
<path d="M22.6307 3.68978C22.8889 3.21759 22.7141 2.62621 22.2402 2.3689C21.7662 2.11159 21.1727 2.28578 20.9144 2.75796L13.716 15.919C13.4578 16.3911 13.6326 16.9825 14.1065 17.2398C14.5804 17.4971 15.174 17.323 15.4323 16.8508L22.6307 3.68978Z" fill="#141B34"/>
</g>
<path d="M12.8285 16.3473C13.1737 16.2714 13.5701 16.25 14 16.25H18C18.4299 16.25 18.8263 16.2714 19.1715 16.3473C19.5252 16.425 19.8713 16.5697 20.1508 16.8492C20.4303 17.1287 20.575 17.4748 20.6527 17.8285C20.7286 18.1737 20.75 18.5701 20.75 19C20.75 19.4299 20.7286 19.8263 20.6527 20.1715C20.575 20.5252 20.4303 20.8713 20.1508 21.1508C19.8713 21.4303 19.5252 21.575 19.1715 21.6527C18.8263 21.7286 18.4299 21.75 18 21.75H14C13.5701 21.75 13.1737 21.7286 12.8285 21.6527C12.4748 21.575 12.1287 21.4303 11.8492 21.1508C11.5697 20.8713 11.425 20.5252 11.3473 20.1715C11.2714 19.8263 11.25 19.4299 11.25 19C11.25 18.5701 11.2714 18.1737 11.3473 17.8285C11.425 17.4748 11.5697 17.1287 11.8492 16.8492C12.1287 16.5697 12.4748 16.425 12.8285 16.3473Z" fill="#141B34"/>
</svg>
