<svg width="24" height="24" viewBox="0 0 24 24" fill="none" xmlns="http://www.w3.org/2000/svg">
<path d="M8.32295 3.03771C8.12492 2.83085 7.86369 2.70522 7.64827 2.62378C7.41665 2.53621 7.15253 2.46875 6.87963 2.41667C6.3325 2.31226 5.68286 2.25713 5.04291 2.25065C4.40347 2.24417 3.74471 2.28595 3.18085 2.38761C2.89926 2.43838 2.62413 2.50711 2.37972 2.60068C2.14634 2.69001 1.88158 2.82406 1.67705 3.03771C1.33111 3.39909 1.24921 3.83451 1.25001 4.23559C1.25071 4.59338 1.31939 5.02848 1.39353 5.49821L1.85964 8.45425C1.97431 9.18144 2.16335 9.8768 2.73864 10.3074C3.02625 10.5227 3.36494 10.6341 3.7259 10.6913C3.87925 10.7156 3.99805 10.8435 3.99805 10.9988L3.99805 20.75C3.99805 21.3023 4.44576 21.75 4.99805 21.75C5.55033 21.75 5.99805 21.3023 5.99805 20.75L5.99805 10.9994C5.99805 10.844 6.11698 10.716 6.27045 10.6919C6.63277 10.6349 6.97278 10.5234 7.26136 10.3074C7.83665 9.8768 8.02569 9.18144 8.14036 8.45425L8.60647 5.49821C8.68061 5.02848 8.74928 4.59338 8.74999 4.23559C8.75079 3.83451 8.66889 3.39909 8.32295 3.03771Z" fill="#141B34"/>
<path opacity="0.4" d="M13 3.25C13 2.69772 12.5523 2.25 12 2.25C11.4477 2.25 11 2.69772 11 3.25L11 13.1627C11 13.2969 10.9104 13.4137 10.7836 13.4578C10.2383 13.648 9.75578 13.9546 9.36648 14.3186C8.71976 14.9232 8.25 15.765 8.25 16.625C8.25 17.6613 8.63706 18.8902 9.24138 19.8642C9.82379 20.8029 10.7698 21.75 12 21.75C13.2302 21.75 14.1762 20.8029 14.7586 19.8642C15.3629 18.8902 15.75 17.6613 15.75 16.625C15.75 15.765 15.2802 14.9232 14.6335 14.3186C14.2442 13.9546 13.7617 13.648 13.2164 13.4578C13.0896 13.4137 13 13.2969 13 13.1627L13 3.25Z" fill="#141B34"/>
<path d="M18.2477 2.29209C18.0183 2.21182 17.7642 2.24769 17.566 2.38834C17.3678 2.52898 17.25 2.75696 17.25 3.00001V20.75C17.25 21.3023 17.6977 21.75 18.25 21.75C18.8023 21.75 19.25 21.3023 19.25 20.75L19.25 15.0849C19.25 14.9071 19.25 14.8182 19.2872 14.7506C19.3143 14.7014 19.3552 14.6603 19.4043 14.6331C19.4717 14.5956 19.5603 14.5953 19.7374 14.5946C20.0798 14.5933 20.44 14.5919 20.7682 14.5621C21.0942 14.5325 21.4545 14.4703 21.7799 14.3107C22.1295 14.1393 22.4245 13.8618 22.5945 13.4522C22.7542 13.0676 22.7775 12.6291 22.7244 12.1655L22.1023 6.73552C21.8425 4.46802 20.2743 3.00118 18.2477 2.29209Z" fill="#141B34"/>
</svg>
