<svg width="24" height="24" viewBox="0 0 24 24" fill="none" xmlns="http://www.w3.org/2000/svg">
<path opacity="0.4" d="M14.2204 1.82273C12.7601 1.72566 11.2369 1.72586 9.77965 1.82273C5.213 2.12629 1.58972 5.81258 1.2918 10.4224C1.23607 11.2848 1.23607 12.1768 1.2918 13.0392C1.40272 14.7556 2.15148 16.304 2.98381 17.5604C3.23314 18.0419 3.10323 18.7641 2.6369 19.6478L2.61542 19.6885C2.45874 19.9852 2.30536 20.2757 2.21688 20.5234C2.12313 20.7858 2.02623 21.2025 2.26791 21.6145C2.48996 21.9931 2.84475 22.1318 3.13152 22.1873C3.36961 22.2334 3.66155 22.2403 3.93544 22.2469L3.98117 22.248C5.40092 22.2825 6.40136 21.8726 7.1938 21.2883C7.35108 21.1723 7.45909 21.0929 7.54041 21.037C7.65868 21.0804 7.8203 21.1467 8.05839 21.2448C8.59978 21.4677 9.21472 21.6013 9.77965 21.6389C11.2369 21.7357 12.7601 21.7359 14.2204 21.6389C18.787 21.3353 22.4103 17.649 22.7082 13.0392C22.7639 12.1768 22.7639 11.2848 22.7082 10.4224C22.4103 5.81258 18.787 2.12629 14.2204 1.82273Z" fill="#141B34"/>
<path fill-rule="evenodd" clip-rule="evenodd" d="M7 12C7 11.4477 7.44772 11 8 11H8.00897C8.56126 11 9.00897 11.4477 9.00897 12C9.00897 12.5523 8.56126 13 8.00897 13H8C7.44772 13 7 12.5523 7 12ZM10.9955 12C10.9955 11.4477 11.4432 11 11.9955 11H12.0045C12.5568 11 13.0045 11.4477 13.0045 12C13.0045 12.5523 12.5568 13 12.0045 13H11.9955C11.4432 13 10.9955 12.5523 10.9955 12ZM14.991 12C14.991 11.4477 15.4387 11 15.991 11H16C16.5523 11 17 11.4477 17 12C17 12.5523 16.5523 13 16 13H15.991C15.4387 13 14.991 12.5523 14.991 12Z" fill="#141B34"/>
</svg>
