<svg width="24" height="24" viewBox="0 0 24 24" fill="none" xmlns="http://www.w3.org/2000/svg">
<path opacity="0.4" d="M22.2147 8.85732C22.4113 9.51749 22.5371 10.2089 22.5832 10.9224C22.6389 11.7848 22.6389 12.6769 22.5832 13.5393C22.2853 18.1491 18.662 21.8354 14.0954 22.139C12.6351 22.236 11.1119 22.2358 9.65465 22.139C9.08972 22.1014 8.47478 21.9678 7.93339 21.7448C7.84733 21.7094 7.77126 21.6781 7.70361 21.6505C7.56703 21.5949 7.49873 21.567 7.42104 21.5767C7.34335 21.5863 7.28359 21.6303 7.16407 21.7182L7.0688 21.7883C6.27636 22.3727 5.27592 22.7826 3.85617 22.748L3.81044 22.7469C3.53655 22.7404 3.24461 22.7334 3.00652 22.6874C2.71975 22.6319 2.36496 22.4932 2.14291 22.1146C1.90123 21.7026 1.99813 21.2859 2.09188 21.0235C2.18036 20.7758 2.33374 20.4853 2.49042 20.1886L2.5119 20.1479C2.97823 19.2642 3.10814 18.542 2.85881 18.0605C2.02648 16.8041 1.27772 15.2557 1.1668 13.5393C1.11107 12.6769 1.11107 11.7848 1.1668 10.9224C1.46472 6.31265 5.088 2.62636 9.65465 2.3228C9.88187 2.3077 10.1107 2.29494 10.3406 2.28454C11.081 2.25105 11.4512 2.2343 11.546 2.33852C11.6408 2.44274 11.5604 3.01313 11.3996 4.15392C11.3834 4.26894 11.375 4.38648 11.375 4.50598C11.375 5.88669 12.4943 7.00598 13.875 7.00598L16.4278 7.00598C16.6561 7.00598 16.7703 7.00598 16.8479 7.06043C16.9254 7.11489 16.9709 7.24066 17.0618 7.49221C17.2351 7.97196 17.6045 8.60219 18.3958 8.98604C19.7026 9.61999 20.8273 8.93407 20.9911 8.83417L21.3304 8.58309C21.6232 8.36637 21.7696 8.25801 21.9176 8.3074C22.0656 8.35679 22.1153 8.52363 22.2147 8.85732Z" fill="#141B34"/>
<path fill-rule="evenodd" clip-rule="evenodd" d="M7.625 15C7.625 15.4142 7.96079 15.75 8.375 15.75H15.375C15.7892 15.75 16.125 15.4142 16.125 15C16.125 14.5858 15.7892 14.25 15.375 14.25H8.375C7.96079 14.25 7.625 14.5858 7.625 15ZM7.625 10C7.625 10.4142 7.96079 10.75 8.375 10.75H11.875C12.2892 10.75 12.625 10.4142 12.625 10C12.625 9.58579 12.2892 9.25 11.875 9.25H8.375C7.96079 9.25 7.625 9.58579 7.625 10Z" fill="#141B34"/>
<path fill-rule="evenodd" clip-rule="evenodd" d="M13.875 5.50586C13.3227 5.50586 12.875 5.05814 12.875 4.50586C12.875 3.95357 13.3227 3.50586 13.875 3.50586L18.375 3.50586L18.375 2.9116C18.3749 2.73596 18.3747 2.52031 18.3968 2.34387L18.3972 2.34053C18.413 2.21408 18.4848 1.63804 19.0504 1.36368C19.6173 1.08872 20.1174 1.39065 20.2256 1.45597L20.2296 1.45841C20.3826 1.55062 20.5535 1.68477 20.6941 1.79511L20.7243 1.81885C21.1002 2.11348 21.5844 2.49545 21.9754 2.87588C22.1705 3.06571 22.3717 3.28297 22.5306 3.51388C22.6718 3.71914 22.875 4.06934 22.875 4.5C22.875 4.93067 22.6718 5.28086 22.5306 5.48612C22.3717 5.71703 22.1705 5.93429 21.9754 6.12412C21.5844 6.50455 21.1002 6.88652 20.7243 7.18115L20.6941 7.20488C20.5535 7.31523 20.3827 7.44938 20.2296 7.54159L20.2256 7.54403C20.1174 7.60935 19.6172 7.91128 19.0504 7.63632C18.4848 7.36196 18.413 6.78592 18.3972 6.65947L18.3968 6.65613C18.3747 6.47969 18.3749 6.26403 18.375 6.0884L18.375 5.50586L13.875 5.50586Z" fill="#141B34"/>
</svg>
