<svg width="24" height="24" viewBox="0 0 24 24" fill="none" xmlns="http://www.w3.org/2000/svg">
<path fill-rule="evenodd" clip-rule="evenodd" d="M12.875 17.475C12.875 14.9345 14.9345 12.875 17.475 12.875C20.0155 12.875 22.075 14.9345 22.075 17.475C22.075 18.3833 21.8118 19.23 21.3574 19.9432L22.5821 21.1679C22.9726 21.5584 22.9726 22.1916 22.5821 22.5821C22.1916 22.9726 21.5584 22.9726 21.1679 22.5821L19.9432 21.3574C19.23 21.8118 18.3833 22.075 17.475 22.075C14.9345 22.075 12.875 20.0155 12.875 17.475ZM17.475 14.875C16.0391 14.875 14.875 16.0391 14.875 17.475C14.875 18.9109 16.0391 20.075 17.475 20.075C18.9109 20.075 20.075 18.9109 20.075 17.475C20.075 16.0391 18.9109 14.875 17.475 14.875Z" fill="#141B34"/>
<path opacity="0.4" fill-rule="evenodd" clip-rule="evenodd" d="M11.375 17.4751C11.375 14.1061 14.1061 11.3751 17.475 11.3751C18.2493 11.3751 18.9899 11.5194 19.6714 11.7825C20.1334 11.9608 20.3644 12.05 20.4947 11.9606C20.625 11.8713 20.625 11.6431 20.625 11.1868L20.625 6.37512C20.625 6.3751 20.625 6.37508 20.625 6.37505C20.625 5.57925 20.0597 5.09102 19.6096 4.79334C19.16 4.49604 18.521 4.19339 17.7963 3.85012L17.7962 3.85009L14.8819 2.46949L14.6841 2.37572C13.1195 1.63355 12.0475 1.12505 10.875 1.12505C9.70254 1.12505 8.63051 1.63355 7.06588 2.37572L6.86809 2.4695L4.01991 3.81878L3.95378 3.85011C3.22902 4.19337 2.59 4.49604 2.14041 4.79334C1.69027 5.09101 1.125 5.57925 1.125 6.37505C1.125 6.37508 1.125 6.3751 1.125 6.37512L1.125 17.0364C1.125 18.1568 1.94234 18.902 2.94833 19.5056C3.96672 20.1167 5.67603 20.8388 7.56913 21.6385C8.98817 22.2384 9.90296 22.6251 10.875 22.6251C11.3964 22.6251 11.9012 22.5139 12.4763 22.3181C12.8616 22.187 13.0542 22.1214 13.0978 21.9716C13.1414 21.8217 12.9991 21.6443 12.7145 21.2895C11.8764 20.2449 11.375 18.9186 11.375 17.4751ZM7.71745 4.18797C9.5597 3.31523 10.2053 3.03414 10.875 3.03414C11.488 3.03414 12.0809 3.26967 13.5898 3.97892L5.94362 7.7218L4.86928 7.21285C4.05859 6.82879 3.5507 6.58548 3.23235 6.37505C3.5507 6.16462 4.05859 5.92131 4.86928 5.53725L7.71745 4.18797ZM8.1602 8.77119L15.8064 5.0283L16.8807 5.53725C17.6914 5.92131 18.1993 6.16462 18.5177 6.37505C18.1993 6.58548 17.6914 6.8288 16.8807 7.21285L14.0325 8.56214C12.1903 9.43488 11.5447 9.71596 10.875 9.71596C10.262 9.71596 9.66915 9.48044 8.1602 8.77119Z" fill="#141B34"/>
<path fill-rule="evenodd" clip-rule="evenodd" d="M4.20434 11.5396C4.38959 11.1691 4.84009 11.019 5.21057 11.2042L7.21057 12.2042C7.58106 12.3895 7.73123 12.84 7.54598 13.2105C7.36074 13.5809 6.91024 13.7311 6.53975 13.5459L4.53975 12.5459C4.16927 12.3606 4.0191 11.9101 4.20434 11.5396Z" fill="#141B34"/>
<path d="M5.94336 7.72177L13.5895 3.97888L15.8061 5.02827L8.15995 8.77115L5.94336 7.72177Z" fill="#141B34"/>
</svg>
