<svg width="24" height="24" viewBox="0 0 24 24" fill="none" xmlns="http://www.w3.org/2000/svg">
<path opacity="0.4" fill-rule="evenodd" clip-rule="evenodd" d="M11.75 18C11.75 14.5482 14.5482 11.75 18 11.75C18.6464 11.75 19.2698 11.8481 19.8563 12.0303C20.2893 12.1648 20.5058 12.232 20.6279 12.1421C20.75 12.0522 20.75 11.8425 20.75 11.4231L20.75 6.5C20.75 6.49999 20.75 6.49998 20.75 6.49996C20.75 5.70416 20.1847 5.21593 19.7346 4.91825C19.285 4.62095 18.646 4.3183 17.9213 3.97503L17.9212 3.975L15.0069 2.5944L14.8091 2.50063C13.2445 1.75846 12.1725 1.24996 11 1.24996C9.82754 1.24996 8.75551 1.75846 7.19088 2.50063L6.99309 2.5944L4.14491 3.94369L4.07878 3.97501C3.35402 4.31828 2.715 4.62094 2.26541 4.91825C1.81527 5.21592 1.25 5.70416 1.25 6.49996C1.25 6.49998 1.25 6.49999 1.25 6.5L1.25 17.1613C1.25 18.2817 2.06734 19.0268 3.07333 19.6305C4.09172 20.2416 5.80103 20.9637 7.69413 21.7633C9.11317 22.3633 10.028 22.75 11 22.75C11.5024 22.75 11.9895 22.6467 12.5388 22.464C12.8908 22.347 13.0669 22.2885 13.1149 22.1475C13.1629 22.0065 13.0469 21.8346 12.8151 21.491C12.1426 20.4941 11.75 19.2929 11.75 18ZM7.84245 4.31288C9.6847 3.44014 10.3303 3.15905 11 3.15905C11.613 3.15905 12.2059 3.39458 13.7148 4.10383L6.06862 7.84671L4.99428 7.33776C4.18359 6.9537 3.6757 6.71039 3.35735 6.49996C3.6757 6.28953 4.18359 6.04622 4.99428 5.66216L7.84245 4.31288ZM8.2852 8.8961L15.9314 5.15321L17.0057 5.66216C17.8164 6.04622 18.3243 6.28953 18.6427 6.49996C18.3243 6.71039 17.8164 6.9537 17.0057 7.33776L14.1575 8.68705C12.3153 9.55979 11.6697 9.84087 11 9.84087C10.387 9.84087 9.79415 9.60535 8.2852 8.8961Z" fill="#141B34"/>
<path fill-rule="evenodd" clip-rule="evenodd" d="M4.32934 11.6645C4.51459 11.294 4.96509 11.1439 5.33557 11.3291L7.33557 12.3291C7.70606 12.5143 7.85623 12.9648 7.67098 13.3353C7.48574 13.7058 7.03524 13.856 6.66475 13.6707L4.66475 12.6707C4.29427 12.4855 4.1441 12.035 4.32934 11.6645Z" fill="#141B34"/>
<path fill-rule="evenodd" clip-rule="evenodd" d="M18 13.25C15.3766 13.25 13.25 15.3766 13.25 18C13.25 20.6234 15.3766 22.75 18 22.75C20.6234 22.75 22.75 20.6234 22.75 18C22.75 15.3766 20.6234 13.25 18 13.25ZM19.6128 17.802C20.0033 17.4114 20.0033 16.7783 19.6128 16.3877C19.2222 15.9972 18.5891 15.9972 18.1985 16.3877L17.2929 17.2934C16.9024 17.6839 16.9024 18.3171 17.2929 18.7076C17.6834 19.0981 18.3166 19.0981 18.7071 18.7076L19.6128 17.802Z" fill="#141B34"/>
<path d="M6.06836 7.84664L13.7145 4.10376L15.9311 5.15315L8.28495 8.89603L6.06836 7.84664Z" fill="#141B34"/>
</svg>
