<svg width="24" height="24" viewBox="0 0 24 24" fill="none" xmlns="http://www.w3.org/2000/svg">
<path opacity="0.4" d="M3.98732 8.04264C4.1703 7.90412 4.32174 7.79101 4.35044 7.77406C4.66899 7.58595 5.17738 7.36848 5.98838 7.02539C6.47466 6.81968 6.68137 6.3023 6.45008 5.8698C6.21879 5.43729 5.63709 5.25344 5.15082 5.45915L5.08479 5.48708L5.08478 5.48708C4.35993 5.79365 3.72124 6.06378 3.27186 6.32915C2.826 6.59243 2.25 7.03223 2.25 7.75769V17.2104C2.25 18.336 3.05921 19.0902 4.0689 19.7056C5.08751 20.3264 6.79913 21.0608 8.69202 21.8729C10.1092 22.4815 11.0257 22.8751 12 22.8751C12.9743 22.8751 13.8908 22.4815 15.308 21.8729C17.2009 21.0608 18.9125 20.3264 19.9311 19.7056C20.9408 19.0902 21.75 18.336 21.75 17.2104V7.75769C21.75 7.03223 21.174 6.59243 20.7281 6.32915C20.2788 6.06379 19.6401 5.79367 18.9153 5.4871L18.8492 5.45915C18.3629 5.25344 17.7812 5.43729 17.5499 5.86979C17.3186 6.3023 17.5253 6.81968 18.0116 7.02539C18.8226 7.36848 19.331 7.58595 19.6496 7.77406C19.6783 7.79101 19.8297 7.90412 20.0127 8.04264C19.6674 8.27186 19.0974 8.55073 18.2731 8.94277L15.3519 10.3322C13.4853 11.22 12.761 11.5457 12 11.5457C11.239 11.5457 10.5147 11.22 8.64806 10.3322L5.72686 8.94276C4.90262 8.55073 4.33255 8.27186 3.98732 8.04264Z" fill="#141B34"/>
<path fill-rule="evenodd" clip-rule="evenodd" d="M5.65491 13.1138C5.83283 12.7398 6.28029 12.5808 6.65435 12.7587L8.64823 13.707C9.02229 13.8849 9.1813 14.3324 9.00338 14.7065C8.82547 15.0805 8.37801 15.2395 8.00395 15.0616L6.01007 14.1133C5.63601 13.9353 5.477 13.4879 5.65491 13.1138Z" fill="#141B34"/>
<path fill-rule="evenodd" clip-rule="evenodd" d="M12.0001 1.125C12.5523 1.125 13.0001 1.57272 13.0001 2.125V4.125C13.0001 4.67728 12.5523 5.125 12.0001 5.125C11.4478 5.125 11.0001 4.67728 11.0001 4.125V2.125C11.0001 1.57272 11.4478 1.125 12.0001 1.125ZM7.40006 2.325C7.84189 1.99363 8.46869 2.08317 8.80006 2.525L10.3001 4.525C10.6314 4.96683 10.5419 5.59363 10.1001 5.925C9.65823 6.25637 9.03143 6.16683 8.70006 5.725L7.20006 3.725C6.86869 3.28317 6.95823 2.65637 7.40006 2.325ZM16.6001 2.325C17.0419 2.65637 17.1314 3.28317 16.8001 3.725L15.3001 5.725C14.9687 6.16683 14.3419 6.25637 13.9001 5.925C13.4582 5.59363 13.3687 4.96683 13.7001 4.525L15.2001 2.525C15.5314 2.08317 16.1582 1.99363 16.6001 2.325Z" fill="#141B34"/>
</svg>
