<svg width="24" height="25" viewBox="0 0 24 25" fill="none" xmlns="http://www.w3.org/2000/svg">
<path opacity="0.4" d="M9.01904 19.6493C9.03808 19.6302 9.03808 19.5994 9.01904 19.5803L4.92006 15.4813C4.90102 15.4623 4.87014 15.4623 4.8511 15.4813C3.96886 16.3632 3.40327 16.9285 3.04751 17.64C2.69175 18.3516 2.57883 19.1432 2.40269 20.3781L2.25755 21.3943C2.22416 21.628 2.30275 21.8638 2.46968 22.0307C2.6366 22.1976 2.87238 22.2762 3.10607 22.2428L4.1223 22.0977C5.35715 21.9215 6.14882 21.8086 6.86033 21.4529C7.57185 21.0971 8.13719 20.5315 9.01904 19.6493Z" fill="#141B34"/>
<path opacity="0.4" d="M19.559 2.98978C18.9145 2.6704 18.1578 2.6704 17.5133 2.98978C17.1711 3.15933 16.8749 3.45629 16.5273 3.80474L8.87031 11.4618C8.67031 11.6618 8.57031 11.7618 8.57031 11.8861C8.57031 12.0103 8.67031 12.1103 8.87031 12.3103L12.1897 15.6298C12.3897 15.8298 12.4897 15.9298 12.614 15.9298C12.7383 15.9298 12.8383 15.8298 13.0383 15.6298L20.6953 7.97278C21.0438 7.62519 21.3407 7.32897 21.5103 6.98681C21.8297 6.34231 21.8297 5.58562 21.5103 4.94112C21.3407 4.59897 20.9685 4.2276 20.6201 3.88001C20.2725 3.53156 19.9011 3.15933 19.559 2.98978Z" fill="#141B34"/>
<path d="M11.1291 17.539C11.3291 17.339 11.4291 17.239 11.4291 17.1148C11.4291 16.9905 11.3291 16.8905 11.1291 16.6905L7.80965 13.371C7.60965 13.171 7.50965 13.071 7.38538 13.071C7.26112 13.071 7.16112 13.171 6.96112 13.371L6.37031 13.9619C6.17031 14.1619 6.07031 14.2619 6.07031 14.3861C6.07031 14.5104 6.17031 14.6104 6.37031 14.8104L9.68973 18.1298C9.88973 18.3298 9.98973 18.4298 10.114 18.4298C10.2383 18.4298 10.3383 18.3298 10.5383 18.1298L11.1291 17.539Z" fill="#141B34"/>
</svg>
