<svg width="24" height="24" viewBox="0 0 24 24" fill="none" xmlns="http://www.w3.org/2000/svg">
<path opacity="0.4" d="M1.75 11.4C1.75 14.5113 1.75 16.0669 2.69805 17.0335C3.6461 18 5.17196 18 8.22368 18H15.7763C18.828 18 20.3539 18 21.302 17.0335C22.25 16.0669 22.25 14.5113 22.25 11.4V8.1C22.25 4.98873 22.25 3.4331 21.302 2.46655C20.3539 1.5 18.828 1.5 15.7763 1.5H8.22368C5.17196 1.5 3.6461 1.5 2.69805 2.46655C1.75 3.4331 1.75 4.98873 1.75 8.1V11.4Z" fill="#141B34"/>
<path fill-rule="evenodd" clip-rule="evenodd" d="M11 18H13V19.5035C13.473 19.5145 13.9088 19.5585 14.3194 19.7286C14.8758 19.9591 15.3012 20.3858 15.7804 20.8665L15.8785 20.9647L16.2069 21.2932C16.5974 21.6837 16.5974 22.3169 16.2069 22.7074C15.8164 23.0979 15.1832 23.0979 14.7927 22.7074L14.4643 22.379C13.8285 21.7432 13.6951 21.6348 13.5541 21.5764C13.4577 21.5365 13.3473 21.5156 13 21.5063V22C13 22.5523 12.5523 23 12 23C11.4477 23 11 22.5523 11 22V21.5063C10.6525 21.5156 10.542 21.5365 10.4456 21.5764C10.3046 21.6348 10.1711 21.7432 9.53536 22.3791L9.20715 22.7073C8.81665 23.0979 8.18349 23.0979 7.79294 22.7074C7.40239 22.3169 7.40235 21.6838 7.79285 21.2932L8.12106 20.965L8.21912 20.8667L8.21912 20.8667L8.21913 20.8667C8.69839 20.3859 9.12373 19.9592 9.68018 19.7287C10.091 19.5585 10.5268 19.5145 11 19.5035L11 18Z" fill="#141B34"/>
</svg>
