<svg width="24" height="24" viewBox="0 0 24 24" fill="none" xmlns="http://www.w3.org/2000/svg">
<path fill-rule="evenodd" clip-rule="evenodd" d="M16.5 19.8566C17.0523 19.8566 17.5 20.3043 17.5 20.8566L17.5 22.15C17.5 22.4328 17.5 22.5742 17.5879 22.6621C17.6757 22.75 17.8172 22.75 18.1 22.75L19.8355 22.75C20.0635 22.7501 20.3015 22.7501 20.5009 22.724C20.7303 22.694 21.0184 22.6178 21.2622 22.3803C21.5088 22.1402 21.5907 21.8516 21.6228 21.6189C21.6502 21.4207 21.6501 21.1852 21.65 20.9646L21.65 16.6714C21.65 16.625 21.65 16.6018 21.6526 16.5823C21.6703 16.4476 21.7762 16.3417 21.9108 16.324C21.9303 16.3214 21.9536 16.3214 22 16.3214C22.4142 16.3214 22.75 15.9856 22.75 15.5714C22.75 15.1572 22.4142 14.8214 22 14.8214H21.9442C22.1648 14.1912 22.2422 13.5674 22.18 12.9501C22.0639 11.7976 21.478 10.8573 20.8317 10.1059C20.2403 9.41832 19.5191 8.80152 18.9011 8.273L18.9011 8.27299L18.7421 8.13686C18.0414 7.53596 17.5487 7.08727 17.2908 6.6898C17.1121 6.41453 16.8165 6.24999 16.5007 6.25C16.1848 6.25001 15.8892 6.41456 15.7106 6.68984C15.4527 7.08729 14.96 7.53598 14.2593 8.13687L14.1003 8.27304C13.4824 8.80155 12.7612 9.41834 12.1698 10.1059C11.5235 10.8573 10.9376 11.7976 10.8215 12.9501C10.7593 13.5674 10.8368 14.1912 11.0574 14.8214H11C10.5858 14.8214 10.25 15.1572 10.25 15.5714C10.25 15.9856 10.5858 16.3214 11 16.3214C11.0464 16.3214 11.0697 16.3214 11.0892 16.324C11.2238 16.3417 11.3297 16.4476 11.3474 16.5823C11.35 16.6018 11.35 16.625 11.35 16.6714L11.35 20.9646C11.3499 21.1852 11.3498 21.4207 11.3772 21.6189C11.4093 21.8516 11.4912 22.1402 11.7378 22.3803C11.9816 22.6178 12.2697 22.694 12.4991 22.724C12.6985 22.7501 12.9365 22.7501 13.1645 22.75L13.1645 22.75L14.9 22.75C15.1828 22.75 15.3243 22.75 15.4121 22.6621C15.5 22.5742 15.5 22.4328 15.5 22.15L15.5 20.8566C15.5 20.3043 15.9477 19.8566 16.5 19.8566ZM13.1926 14.8214C12.7692 14.1232 12.6845 13.5835 12.7267 13.1644C12.7813 12.6225 13.0681 12.0715 13.5877 11.4674C14.0757 10.9 14.6855 10.3778 15.3281 9.82741L15.4668 9.70861C15.8044 9.4191 16.1674 9.10631 16.5007 8.77504C16.834 9.10631 17.1971 9.41911 17.5347 9.70862L17.6733 9.82737C18.316 10.3778 18.9258 10.9 19.4138 11.4674C19.9335 12.0716 20.2203 12.6225 20.2749 13.1644C20.3171 13.5835 20.2324 14.1232 19.809 14.8214H13.1926Z" fill="#141B34"/>
<g opacity="0.4">
<path fill-rule="evenodd" clip-rule="evenodd" d="M8.98329 3.18749C5.78006 3.18749 3.18332 5.78983 3.18332 8.99998C3.18332 12.0732 5.56216 14.6023 8.56801 14.8149C9.10056 14.8525 9.5018 15.3157 9.46422 15.8494C9.42664 16.3831 8.96445 16.7852 8.43191 16.7476C4.4147 16.4634 1.25 13.0914 1.25 8.99998C1.25 4.71978 4.71231 1.25 8.98329 1.25C11.5745 1.25 14.1591 2.53491 15.5761 4.57077C15.8815 5.00959 15.7742 5.61346 15.3363 5.91954C14.8984 6.22563 14.2958 6.11803 13.9904 5.67921C12.9619 4.20145 10.991 3.18749 8.98329 3.18749Z" fill="#141B34"/>
<path fill-rule="evenodd" clip-rule="evenodd" d="M9 5.99998C9.55228 5.99998 10 6.4477 10 6.99998V9.49998C10 9.83434 9.8329 10.1466 9.5547 10.332L8.0547 11.332C7.59517 11.6384 6.9743 11.5142 6.66795 11.0547C6.3616 10.5952 6.48577 9.97429 6.9453 9.66793L8 8.9648V6.99998C8 6.4477 8.44772 5.99998 9 5.99998Z" fill="#141B34"/>
</g>
</svg>
