<svg width="24" height="24" viewBox="0 0 24 24" fill="none" xmlns="http://www.w3.org/2000/svg">
<path opacity="0.4" d="M5.03918 6.75C4.54569 6.74994 4.09347 6.74988 3.73122 6.80485C3.32906 6.86589 2.90613 7.01213 2.59554 7.40759C2.29245 7.79348 2.2384 8.2371 2.25186 8.64362C2.26442 9.02282 2.34242 9.48822 2.43027 10.0123L3.43315 15.9991C3.47323 16.2384 3.49326 16.358 3.57716 16.429C3.66106 16.5 3.78234 16.5 4.02491 16.5H19.9751C20.2177 16.5 20.3389 16.5 20.4228 16.429C20.5067 16.358 20.5268 16.2384 20.5668 15.9991L21.5697 10.0124C21.6576 9.48825 21.7356 9.02281 21.7481 8.64362C21.7616 8.2371 21.7075 7.79348 21.4045 7.40759C21.0939 7.01213 20.6709 6.86589 20.2688 6.80485C19.9065 6.74988 19.4543 6.74994 18.9608 6.75H5.03918Z" fill="#141B34"/>
<path fill-rule="evenodd" clip-rule="evenodd" d="M12 3.25C9.79086 3.25 8 5.04086 8 7.25V7.75C8 8.30228 7.55228 8.75 7 8.75C6.44772 8.75 6 8.30228 6 7.75V7.25C6 3.93629 8.68629 1.25 12 1.25C15.3137 1.25 18 3.93629 18 7.25V7.75C18 8.30228 17.5523 8.75 17 8.75C16.4477 8.75 16 8.30228 16 7.75V7.25C16 5.04086 14.2091 3.25 12 3.25Z" fill="#141B34"/>
<path d="M19.997 19.2079C20.0677 18.8852 20.1031 18.7239 20.013 18.6119C19.9229 18.5 19.7543 18.5 19.417 18.5H4.5814C4.24413 18.5 4.07549 18.5 3.98543 18.6119C3.89536 18.7239 3.93071 18.8852 4.00142 19.2079C4.0585 19.4683 4.11808 19.7096 4.18271 19.9321C4.40655 20.703 4.71472 21.3411 5.2679 21.8348C5.82618 22.3331 6.48447 22.5511 7.25435 22.6529C7.9884 22.7501 8.90463 22.75 10.0272 22.75H13.9712C15.0938 22.75 16.01 22.7501 16.7441 22.6529C17.514 22.5511 18.1723 22.3331 18.7305 21.8348C19.2837 21.3411 19.5919 20.703 19.8157 19.9321C19.8804 19.7096 19.9399 19.4683 19.997 19.2079Z" fill="#141B34"/>
</svg>
