<svg width="24" height="24" viewBox="0 0 24 24" fill="none" xmlns="http://www.w3.org/2000/svg">
<path opacity="0.4" fill-rule="evenodd" clip-rule="evenodd" d="M5.75079 13.6894C5.75111 13.8014 5.7514 13.9053 5.75138 14.0001C5.75131 14.4143 5.41547 14.7501 5.00126 14.75C4.58704 14.7499 4.25131 14.4141 4.25138 13.9999C4.2514 13.9073 4.25105 13.804 4.25068 13.691C4.24666 12.4755 4.23892 10.1382 4.63206 8.02922C4.84617 6.88066 5.1914 5.72496 5.77253 4.83873C6.37068 3.92657 7.26018 3.25 8.50169 3.25C9.23302 3.25 9.87056 3.59204 10.385 4.08955C10.8958 4.58357 11.3216 5.26222 11.6629 6.04261C12.3466 7.60563 12.7506 9.71246 12.7506 12C12.7506 14.1307 13.1298 16.0239 13.7126 17.3563C14.0044 18.0236 14.3326 18.5166 14.659 18.8322C14.9817 19.1443 15.2646 19.25 15.4995 19.25C16.1011 19.25 16.5707 18.9543 16.9744 18.3387C17.3951 17.6972 17.6945 16.7695 17.8947 15.6959C18.2605 13.7339 18.2541 11.5341 18.2505 10.3078C18.2502 10.197 18.2499 10.0941 18.2499 10C18.2499 9.58579 18.5857 9.25 18.9999 9.25C19.4141 9.25 19.7499 9.58579 19.7499 10C19.7499 10.0919 19.7503 10.1943 19.7506 10.3064C19.7548 11.5212 19.7628 13.8603 19.3693 15.9708C19.1552 17.1194 18.8099 18.2751 18.2287 19.1613C17.6305 20.0734 16.741 20.75 15.4995 20.75C14.7682 20.75 14.1306 20.408 13.6162 19.9104C13.1054 19.4164 12.6796 18.7378 12.3383 17.9574C11.6546 16.3944 11.2506 14.2875 11.2506 12C11.2506 9.86926 10.8714 7.97609 10.2886 6.64368C9.99678 5.97636 9.6686 5.48343 9.34224 5.16781C9.01948 4.85568 8.73656 4.75 8.50169 4.75C7.90011 4.75 7.43058 5.04565 7.0269 5.66127C6.6062 6.30282 6.30681 7.23045 6.10666 8.30411C5.74119 10.2646 5.74735 12.4625 5.75079 13.6894Z" fill="#141B34"/>
<path fill-rule="evenodd" clip-rule="evenodd" d="M1.25 12C1.25 11.5858 1.58579 11.25 2 11.25H5C5.41421 11.25 5.75 11.5858 5.75 12C5.75 12.4142 5.41421 12.75 5 12.75H2C1.58579 12.75 1.25 12.4142 1.25 12Z" fill="#141B34"/>
<path fill-rule="evenodd" clip-rule="evenodd" d="M18.25 12C18.25 11.5858 18.5858 11.25 19 11.25H22C22.4142 11.25 22.75 11.5858 22.75 12C22.75 12.4142 22.4142 12.75 22 12.75H19C18.5858 12.75 18.25 12.4142 18.25 12Z" fill="#141B34"/>
<path fill-rule="evenodd" clip-rule="evenodd" d="M7.25 12C7.25 11.5858 7.58579 11.25 8 11.25H16C16.4142 11.25 16.75 11.5858 16.75 12C16.75 12.4142 16.4142 12.75 16 12.75H8C7.58579 12.75 7.25 12.4142 7.25 12Z" fill="#141B34"/>
<path fill-rule="evenodd" clip-rule="evenodd" d="M17.25 3.25C17.25 2.0232 18.3912 1.25 19.5 1.25C20.3987 1.25 21.2614 1.73009 21.6051 2.54048C21.7668 2.92181 21.5888 3.36206 21.2075 3.5238C20.8262 3.68553 20.3859 3.50752 20.2242 3.12619C20.1561 2.96559 19.9076 2.75 19.5 2.75C18.9519 2.75 18.75 3.09609 18.75 3.25C18.75 3.40391 18.9519 3.75 19.5 3.75C20.6088 3.75 21.75 4.5232 21.75 5.75C21.75 6.9768 20.6088 7.75 19.5 7.75C18.6013 7.75 17.7386 7.26991 17.3949 6.45952C17.2332 6.07819 17.4112 5.63794 17.7925 5.4762C18.1738 5.31447 18.6141 5.49248 18.7758 5.87381C18.8439 6.03441 19.0924 6.25 19.5 6.25C20.0481 6.25 20.25 5.90391 20.25 5.75C20.25 5.59609 20.0481 5.25 19.5 5.25C18.3912 5.25 17.25 4.4768 17.25 3.25Z" fill="#141B34"/>
<path d="M4.75 18.5V20.5C4.75 20.6941 4.83127 20.8789 4.9686 21.0166C5.11103 21.1582 5.31325 21.25 5.54393 21.25C5.90196 21.25 6.19144 21.0288 6.29519 20.7436C6.4368 20.3543 6.86715 20.1536 7.25641 20.2952C7.64566 20.4368 7.84642 20.8672 7.70481 21.2564C7.38466 22.1364 6.53036 22.75 5.54393 22.75C4.29758 22.75 3.25 21.7629 3.25 20.5V18.5C3.25 17.2371 4.29758 16.25 5.54393 16.25C6.53036 16.25 7.38466 16.8636 7.70481 17.7436C7.84642 18.1328 7.64566 18.5632 7.25641 18.7048C6.86715 18.8464 6.4368 18.6457 6.29519 18.2564C6.19144 17.9712 5.90196 17.75 5.54393 17.75C5.31325 17.75 5.11103 17.8418 4.9686 17.9834C4.83127 18.1211 4.75 18.3059 4.75 18.5Z" fill="#141B34"/>
</svg>
