<svg width="24" height="24" viewBox="0 0 24 24" fill="none" xmlns="http://www.w3.org/2000/svg">
<path opacity="0.4" d="M12.0572 1.75C14.2479 1.74999 15.9686 1.74998 17.312 1.93059C18.6886 2.11568 19.7809 2.50272 20.6391 3.36091C21.4973 4.21911 21.8843 5.31137 22.0694 6.68802C22.25 8.03144 22.25 9.7521 22.25 11.9428V11.9428V12.0572V12.0572C22.25 14.2479 22.25 15.9686 22.0694 17.312C21.8843 18.6886 21.4973 19.7809 20.6391 20.6391C19.7809 21.4973 18.6886 21.8843 17.312 22.0694C15.9686 22.25 14.2479 22.25 12.0572 22.25H12.0572H11.9428H11.9428C9.7521 22.25 8.03144 22.25 6.68802 22.0694C5.31137 21.8843 4.21911 21.4973 3.36091 20.6391C2.50272 19.7809 2.11568 18.6886 1.93059 17.312C1.74998 15.9686 1.74999 14.2479 1.75 12.0572V11.9428C1.74999 9.75212 1.74998 8.03144 1.93059 6.68802C2.11568 5.31137 2.50272 4.21911 3.36091 3.36091C4.21911 2.50272 5.31137 2.11568 6.68802 1.93059C8.03144 1.74998 9.75212 1.74999 11.9428 1.75H12.0572Z" fill="#141B34"/>
<path fill-rule="evenodd" clip-rule="evenodd" d="M8.00391 9C8.00391 8.44772 8.45162 8 9.00391 8H12.7381C13.1405 8 13.5036 8.2411 13.6598 8.61187C13.8159 8.98265 13.7346 9.4109 13.4535 9.69871L12.2982 10.8816L15.7078 14.2931C16.0982 14.6837 16.098 15.3169 15.7074 15.7073C15.3168 16.0977 14.6836 16.0975 14.2932 15.7069L10.9007 12.3125L9.71931 13.5221C9.4352 13.813 9.00325 13.9029 8.62668 13.7495C8.25011 13.5962 8.00391 13.23 8.00391 12.8234V9Z" fill="#141B34"/>
</svg>
