<svg width="24" height="24" viewBox="0 0 24 24" fill="none" xmlns="http://www.w3.org/2000/svg">
<path opacity="0.4" d="M12.0572 1.75C14.2479 1.74999 15.9686 1.74998 17.312 1.93059C18.6886 2.11568 19.7809 2.50272 20.6391 3.36091C21.4973 4.21911 21.8843 5.31137 22.0694 6.68802C22.25 8.03144 22.25 9.7521 22.25 11.9428V11.9428V12.0572V12.0572C22.25 14.2479 22.25 15.9686 22.0694 17.312C21.8843 18.6886 21.4973 19.7809 20.6391 20.6391C19.7809 21.4973 18.6886 21.8843 17.312 22.0694C15.9686 22.25 14.2479 22.25 12.0572 22.25H12.0572H11.9428H11.9428C9.7521 22.25 8.03144 22.25 6.68802 22.0694C5.31137 21.8843 4.21911 21.4973 3.36091 20.6391C2.50272 19.7809 2.11568 18.6886 1.93059 17.312C1.74998 15.9686 1.74999 14.2479 1.75 12.0572V11.9428C1.74999 9.75212 1.74998 8.03144 1.93059 6.68802C2.11568 5.31137 2.50272 4.21911 3.36091 3.36091C4.21911 2.50272 5.31137 2.11568 6.68802 1.93059C8.03144 1.74998 9.75212 1.74999 11.9428 1.75H12.0572Z" fill="#141B34"/>
<path fill-rule="evenodd" clip-rule="evenodd" d="M11.5761 7.61732C11.7309 7.24364 12.0955 7 12.5 7H16C16.5523 7 17 7.44772 17 8V11.5C17 11.9045 16.7564 12.2691 16.3827 12.4239C16.009 12.5787 15.5789 12.4931 15.2929 12.2071L14.25 11.1642L11.1642 14.25L12.2071 15.2929C12.4931 15.5789 12.5787 16.009 12.4239 16.3827C12.2691 16.7564 11.9045 17 11.5 17H8C7.44772 17 7 16.5523 7 16V12.5C7 12.0955 7.24364 11.7309 7.61732 11.5761C7.99099 11.4213 8.42111 11.5069 8.70711 11.7929L9.75 12.8358L12.8358 9.75L11.7929 8.70711C11.5069 8.42111 11.4213 7.99099 11.5761 7.61732Z" fill="#141B34"/>
</svg>
