<svg width="24" height="24" viewBox="0 0 24 24" fill="none" xmlns="http://www.w3.org/2000/svg">
<path opacity="0.4" d="M12.0572 1.75C14.2479 1.74999 15.9686 1.74998 17.312 1.93059C18.6886 2.11568 19.7809 2.50272 20.6391 3.36091C21.4973 4.21911 21.8843 5.31137 22.0694 6.68802C22.25 8.03144 22.25 9.7521 22.25 11.9428V11.9428V12.0572V12.0572C22.25 14.2479 22.25 15.9686 22.0694 17.312C21.8843 18.6886 21.4973 19.7809 20.6391 20.6391C19.7809 21.4973 18.6886 21.8843 17.312 22.0694C15.9686 22.25 14.2479 22.25 12.0572 22.25H12.0572H11.9428H11.9428C9.7521 22.25 8.03144 22.25 6.68802 22.0694C5.31137 21.8843 4.21911 21.4973 3.36091 20.6391C2.50272 19.7809 2.11568 18.6886 1.93059 17.312C1.74998 15.9686 1.74999 14.2479 1.75 12.0572V11.9428C1.74999 9.75212 1.74998 8.03144 1.93059 6.68802C2.11568 5.31137 2.50272 4.21911 3.36091 3.36091C4.21911 2.50272 5.31137 2.11568 6.68802 1.93059C8.03144 1.74998 9.75212 1.74999 11.9428 1.75H12.0572Z" fill="#141B34"/>
<path fill-rule="evenodd" clip-rule="evenodd" d="M9.36178 6.2302C9.78694 5.8777 10.4174 5.93661 10.7699 6.36178L14.3973 10.7371C14.4043 10.7455 14.4114 10.7541 14.4187 10.7628C14.5234 10.889 14.6525 11.0444 14.7487 11.1944C14.8659 11.3772 15 11.6479 15 12C15 12.3522 14.8659 12.6229 14.7487 12.8057C14.6525 12.9556 14.5234 13.1111 14.4187 13.2373C14.4114 13.246 14.4043 13.2545 14.3973 13.263L10.7699 17.6383C10.4174 18.0634 9.78694 18.1224 9.36178 17.7699C8.93661 17.4174 8.8777 16.7869 9.2302 16.3618L12.8464 12L9.2302 7.63828C8.8777 7.21311 8.93661 6.58269 9.36178 6.2302Z" fill="#141B34"/>
</svg>
