<svg width="24" height="24" viewBox="0 0 24 24" fill="none" xmlns="http://www.w3.org/2000/svg">
<path opacity="0.4" d="M12.0572 1.75C14.2479 1.74999 15.9686 1.74998 17.312 1.93059C18.6886 2.11568 19.7809 2.50272 20.6391 3.36091C21.4973 4.21911 21.8843 5.31137 22.0694 6.68802C22.25 8.03144 22.25 9.7521 22.25 11.9428V11.9428V12.0572V12.0572C22.25 14.2479 22.25 15.9686 22.0694 17.312C21.8843 18.6886 21.4973 19.7809 20.6391 20.6391C19.7809 21.4973 18.6886 21.8843 17.312 22.0694C15.9686 22.25 14.2479 22.25 12.0572 22.25H12.0572H11.9428H11.9428C9.7521 22.25 8.03144 22.25 6.68802 22.0694C5.31137 21.8843 4.21911 21.4973 3.36091 20.6391C2.50272 19.7809 2.11568 18.6886 1.93059 17.312C1.74998 15.9686 1.74999 14.2479 1.75 12.0572V11.9428C1.74999 9.75212 1.74998 8.03144 1.93059 6.68802C2.11568 5.31137 2.50272 4.21911 3.36091 3.36091C4.21911 2.50272 5.31137 2.11568 6.68802 1.93059C8.03144 1.74998 9.75212 1.74999 11.9428 1.75H12.0572Z" fill="#141B34"/>
<path d="M14.75 16.5C14.75 16.9142 14.4142 17.25 14 17.25C13.5858 17.25 13.25 16.9142 13.25 16.5L13.25 8.4214C13.25 8.16182 13.2499 7.91213 13.2692 7.72005C13.2793 7.61875 13.2989 7.48307 13.3497 7.34744C13.4021 7.2074 13.5126 7.00256 13.745 6.86673C14.0094 6.71223 14.2968 6.72544 14.5217 6.82342C14.6987 6.90055 14.8218 7.02202 14.8863 7.09056C15.0114 7.22331 15.1473 7.41519 15.2711 7.59004L16.6119 9.48191C16.8514 9.81985 16.7716 10.288 16.4337 10.5275C16.3019 10.6209 16.1502 10.6658 16.0001 10.6656L14.75 10.6656L14.75 16.5Z" fill="#141B34"/>
<path d="M7.3881 14.5181C7.14858 14.1802 7.22838 13.712 7.56632 13.4725C7.69818 13.3791 7.84987 13.3342 8.00006 13.3344L9.25 13.3344L9.25 7.5C9.25 7.08579 9.58579 6.75 10 6.75C10.4142 6.75 10.75 7.08579 10.75 7.5L10.75 15.5786L10.75 15.5786C10.75 15.8382 10.7501 16.0879 10.7308 16.2799C10.7207 16.3813 10.7011 16.5169 10.6503 16.6526C10.5979 16.7926 10.4874 16.9974 10.255 17.1333C9.99062 17.2878 9.70317 17.2746 9.47831 17.1766C9.3013 17.0994 9.17824 16.978 9.11366 16.9094C8.98858 16.7767 8.85272 16.5848 8.72892 16.4099L7.3881 14.5181Z" fill="#141B34"/>
</svg>
