<svg width="24" height="24" viewBox="0 0 24 24" fill="none" xmlns="http://www.w3.org/2000/svg">
<path opacity="0.4" d="M11.9428 1.75C9.75212 1.74999 8.03144 1.74998 6.68802 1.93059C5.31137 2.11568 4.21911 2.50272 3.36091 3.36091C2.50271 4.21911 2.11568 5.31137 1.93059 6.68802C1.74998 8.03144 1.74999 9.75214 1.75 11.9428V12.0572C1.74999 14.2479 1.74998 15.9686 1.93059 17.312C2.11568 18.6886 2.50271 19.7809 3.36091 20.6391C4.21911 21.4973 5.31137 21.8843 6.68802 22.0694C8.03144 22.25 9.75214 22.25 11.9428 22.25H12.0572C14.2479 22.25 15.9686 22.25 17.312 22.0694C18.6886 21.8843 19.7809 21.4973 20.6391 20.6391C21.4973 19.7809 21.8843 18.6886 22.0694 17.312C22.25 15.9686 22.25 14.2479 22.25 12.0572V11.9428C22.25 9.75212 22.25 8.03144 22.0694 6.68802C21.8843 5.31137 21.4973 4.21911 20.6391 3.36091C19.7809 2.50272 18.6886 2.11568 17.312 1.93059C15.9686 1.74998 14.2479 1.74999 12.0572 1.75H11.9428Z" fill="#141B34"/>
<path fill-rule="evenodd" clip-rule="evenodd" d="M9.88271 6.07615C9.50904 5.92137 9.07892 6.00692 8.79292 6.29292L6.79292 8.29292C6.50692 8.57892 6.42137 9.00904 6.57615 9.38271C6.73093 9.75639 7.09557 10 7.50003 10H14.5C14.9997 10 15.2739 10.0022 15.4641 10.0277C15.4665 10.0281 15.469 10.0284 15.4713 10.0287C15.4717 10.0311 15.472 10.0335 15.4723 10.036C15.4979 10.2262 15.5 10.5004 15.5 11V11.5C15.5 12.0523 15.9477 12.5 16.5 12.5C17.0523 12.5 17.5 12.0523 17.5 11.5V11C17.5 10.9819 17.5 10.9637 17.5 10.9456C17.5001 10.5216 17.5002 10.1094 17.4545 9.76951C17.403 9.38631 17.2775 8.94903 16.9142 8.58582C16.551 8.2226 16.1138 8.09708 15.7305 8.04556C15.3906 7.99986 14.9785 7.99994 14.5544 8.00002C14.5363 8.00003 14.5182 8.00003 14.5 8.00003H10.5V7.00003C10.5 6.59557 10.2564 6.23093 9.88271 6.07615ZM7.50003 11C6.94774 11 6.50003 11.4477 6.50003 12V13C6.50003 13.0182 6.50003 13.0363 6.50002 13.0544C6.49994 13.4785 6.49986 13.8906 6.54556 14.2305C6.59708 14.6138 6.7226 15.051 7.08582 15.4142C7.44903 15.7775 7.88631 15.903 8.26951 15.9545C8.60942 16.0002 9.02155 16.0001 9.44562 16C9.46374 16 9.48187 16 9.50003 16H13.5V17C13.5 17.4045 13.7437 17.7691 14.1174 17.9239C14.491 18.0787 14.9211 17.9931 15.2071 17.7071L17.2071 15.7071C17.4931 15.4211 17.5786 14.991 17.4239 14.6173C17.2691 14.2437 16.9044 14 16.5 14H9.50003C9.00036 14 8.7262 13.9979 8.53601 13.9723C8.53353 13.972 8.5311 13.9717 8.52872 13.9713C8.52839 13.969 8.52806 13.9665 8.52772 13.9641C8.50215 13.7739 8.50003 13.4997 8.50003 13V12C8.50003 11.4477 8.05231 11 7.50003 11Z" fill="#141B34"/>
</svg>
