<svg width="24" height="25" viewBox="0 0 24 25" fill="none" xmlns="http://www.w3.org/2000/svg">
<path fill-rule="evenodd" clip-rule="evenodd" d="M17 13.75C14.3766 13.75 12.25 15.8766 12.25 18.5C12.25 21.1234 14.3766 23.25 17 23.25C19.6234 23.25 21.75 21.1234 21.75 18.5C21.75 15.8766 19.6234 13.75 17 13.75ZM16.5306 16.97C16.2379 16.6769 15.763 16.6766 15.47 16.9694C15.1769 17.2621 15.1766 17.737 15.4694 18.03L15.9388 18.5L15.4694 18.97C15.1766 19.263 15.1769 19.7379 15.47 20.0306C15.763 20.3234 16.2379 20.3231 16.5306 20.03L16.9995 19.5606L17.47 20.0306C17.763 20.3234 18.2379 20.3231 18.5306 20.03C18.8234 19.737 18.8231 19.2621 18.53 18.9694L18.0601 18.5L18.53 18.0306C18.8231 17.7379 18.8234 17.263 18.5306 16.97C18.2379 16.6769 17.763 16.6766 17.47 16.9694L16.9995 17.4393L16.5306 16.97Z" fill="#141B34"/>
<path opacity="0.4" d="M6.52522 8.84988C7.95364 8.78422 9.40416 8.75 11 8.75C12.5958 8.75 14.0464 8.78422 15.4748 8.84989C17.5328 8.9445 19.2039 10.5382 19.4755 12.5552C19.4883 12.6504 19.3918 12.7232 19.3025 12.6878C18.5899 12.4053 17.8131 12.25 17 12.25C13.5482 12.25 10.75 15.0482 10.75 18.5C10.75 19.8277 11.164 21.0588 11.87 22.071C12.2667 22.6399 12.4651 22.9243 12.3813 23.0854C12.2976 23.2464 11.9816 23.2474 11.3495 23.2494C11.2337 23.2498 11.1173 23.25 11 23.25C9.40416 23.25 7.95364 23.2158 6.52522 23.1501C4.46716 23.0555 2.79609 21.4618 2.52452 19.4448C2.37636 18.3444 2.25 17.1882 2.25 16C2.25 14.8118 2.37636 13.6556 2.52452 12.5552C2.79609 10.5382 4.46716 8.9445 6.52522 8.84988Z" fill="#141B34"/>
<path d="M7.5 7.25C7.5 5.317 9.067 3.75 11 3.75C12.933 3.75 14.5 5.317 14.5 7.25V8.81016C14.827 8.82177 15.1515 8.83502 15.4748 8.84988C15.8298 8.8662 16.1732 8.92712 16.5 9.02712V7.25C16.5 4.21243 14.0376 1.75 11 1.75C7.96243 1.75 5.5 4.21243 5.5 7.25V9.02712C5.82676 8.92712 6.17023 8.8662 6.52522 8.84988C6.84854 8.83502 7.17299 8.82177 7.5 8.81016V7.25Z" fill="#141B34"/>
</svg>
