<svg width="24" height="24" viewBox="0 0 24 24" fill="none" xmlns="http://www.w3.org/2000/svg">
<path opacity="0.4" d="M11.9428 1.75C9.75212 1.74999 8.03144 1.74998 6.68802 1.93059C5.31137 2.11568 4.21911 2.50272 3.36091 3.36091C2.50271 4.21911 2.11568 5.31137 1.93059 6.68802C1.74998 8.03144 1.74999 9.75214 1.75 11.9428V12.0572C1.74999 14.2479 1.74998 15.9686 1.93059 17.312C2.11568 18.6886 2.50271 19.7809 3.36091 20.6391C4.21911 21.4973 5.31137 21.8843 6.68802 22.0694C8.03144 22.25 9.75214 22.25 11.9428 22.25H12.0572C14.2479 22.25 15.9686 22.25 17.312 22.0694C18.6886 21.8843 19.7809 21.4973 20.6391 20.6391C21.4973 19.7809 21.8843 18.6886 22.0694 17.312C22.25 15.9686 22.25 14.2479 22.25 12.0572V11.9428C22.25 9.75212 22.25 8.03144 22.0694 6.68802C21.8843 5.31137 21.4973 4.21911 20.6391 3.36091C19.7809 2.50272 18.6886 2.11568 17.312 1.93059C15.9686 1.74998 14.2479 1.74999 12.0572 1.75H11.9428Z" fill="#141B34"/>
<path fill-rule="evenodd" clip-rule="evenodd" d="M17.7071 6.29289C17.3166 5.90237 16.6834 5.90237 16.2929 6.29289L14.5 8.08579L13.7071 7.29289C13.4211 7.0069 12.991 6.92134 12.6173 7.07612C12.2436 7.2309 12 7.59554 12 8V11C12 11.5523 12.4477 12 13 12H16C16.4045 12 16.7691 11.7564 16.9239 11.3827C17.0787 11.009 16.9931 10.5789 16.7071 10.2929L15.9142 9.5L17.7071 7.70711C18.0976 7.31658 18.0976 6.68342 17.7071 6.29289ZM12 13C12 12.4477 11.5523 12 11 12H8C7.59554 12 7.2309 12.2436 7.07612 12.6173C6.92134 12.991 7.0069 13.4211 7.29289 13.7071L8.08579 14.5L6.29289 16.2929C5.90237 16.6834 5.90237 17.3166 6.29289 17.7071C6.68342 18.0976 7.31658 18.0976 7.70711 17.7071L9.5 15.9142L10.2929 16.7071C10.5789 16.9931 11.009 17.0787 11.3827 16.9239C11.7564 16.7691 12 16.4045 12 16V13Z" fill="#141B34"/>
</svg>
