<svg width="24" height="24" viewBox="0 0 24 24" fill="none" xmlns="http://www.w3.org/2000/svg">
<path d="M14.5599 8.60662L14.5588 8.60578L14.5566 8.60419L14.5501 8.59941L14.5288 8.58354C14.511 8.57022 14.4862 8.55142 14.4554 8.52752C14.3938 8.47977 14.3079 8.41138 14.2056 8.32535C14.0022 8.15422 13.7287 7.90863 13.4527 7.61282C13.1787 7.31931 12.8874 6.96063 12.6612 6.56208C12.4376 6.16803 12.251 5.68839 12.251 5.16667C12.251 4.30954 12.5324 3.56954 13.0513 3.04045C13.5681 2.51336 14.268 2.25 15.001 2.25C15.734 2.25 16.4338 2.51336 16.9507 3.04045C17.4695 3.56954 17.751 4.30954 17.751 5.16667C17.751 5.68839 17.5644 6.16803 17.3407 6.56208C17.1145 6.96063 16.8232 7.31931 16.5493 7.61282C16.2732 7.90863 15.9997 8.15422 15.7963 8.32535C15.6941 8.41138 15.6081 8.47977 15.5466 8.52752C15.5158 8.55142 15.491 8.57022 15.4732 8.58354L15.4518 8.59941L15.4453 8.60419L15.4432 8.60578L15.4424 8.60637C15.1795 8.79727 14.8228 8.79751 14.5599 8.60662Z" fill="#141B34"/>
<path opacity="0.4" d="M10.6799 10.0527L10.6814 10.0558L10.682 10.0573C10.8319 10.383 10.7298 10.77 10.4391 10.9799L10.4381 10.9806L10.4353 10.9826L10.4264 10.9889L10.396 11.0104C10.3701 11.0284 10.3333 11.0538 10.2864 11.0852C10.1928 11.1481 10.0587 11.2355 9.89157 11.3376C9.55858 11.5411 9.08871 11.8065 8.54281 12.0516C7.49476 12.5223 5.98519 13.0024 4.6177 12.5983C2.14169 11.8665 0.860772 9.89704 1.35317 7.85523C1.59176 6.86589 2.21415 6.05878 3.13654 5.61582C4.04965 5.17732 5.18228 5.12928 6.40964 5.492C7.76506 5.89256 8.84215 7.12494 9.53155 8.10083C9.89109 8.60978 10.1765 9.09486 10.372 9.45208C10.47 9.63125 10.5462 9.77964 10.5985 9.88456C10.6246 9.93706 10.6448 9.97877 10.6589 10.0081L10.6752 10.0427L10.6799 10.0527Z" fill="#141B34"/>
<path d="M16.7624 9.82877C16.7515 9.56094 16.746 9.42702 16.8376 9.33425C16.9291 9.24149 17.059 9.2451 17.3188 9.25232C17.6053 9.26028 17.8858 9.28656 18.1595 9.33084C19.8294 9.60103 21.1943 10.5363 22.02 11.9563C22.846 13.3767 22.9806 15.0212 22.3795 16.5967C22.238 16.9679 22.0568 17.3324 21.8366 17.6876C21.7001 17.9078 21.6319 18.0179 21.5046 18.0436C21.3774 18.0693 21.2689 17.9922 21.0519 17.8381C18.3129 15.8931 16.902 13.2375 16.7624 9.82877Z" fill="#141B34"/>
<path d="M20.3174 19.4592C20.4147 19.3727 20.4008 19.2182 20.2905 19.149C20.0457 18.9953 19.7981 18.8435 19.5641 18.6758C16.9827 16.8261 15.2509 13.8038 15.2509 10.4998V9.7509C15.2509 9.62053 15.1282 9.52496 15.0027 9.56006C13.9965 9.84131 12.998 10.2829 12.1409 10.8907C11.8913 11.0676 11.7563 11.3623 11.7661 11.6681C11.8258 13.5239 12.1048 15.1144 13.3191 16.7984C14.2081 18.0312 15.35 19.1237 16.4284 19.8835L17.5679 20.6618C17.8587 20.8604 18.2347 20.8953 18.5431 20.7254C19.1794 20.3751 19.7774 19.9398 20.3174 19.4592Z" fill="#141B34"/>
<path opacity="0.4" d="M15.433 20.9935C15.7647 21.2432 15.9306 21.368 15.8937 21.4996C15.8567 21.6313 15.6588 21.6507 15.2628 21.6896C13.9876 21.815 12.6982 21.7276 11.5889 21.5753C10.5141 21.4277 9.5615 21.2122 8.87786 21.0338C8.50308 20.936 8.12848 20.8323 7.76129 20.7085C7.40928 20.5891 7.19279 20.2172 7.26475 19.8522C7.33991 19.4734 7.4376 19.0984 7.53995 18.7263C7.72628 18.0489 8.01472 17.1214 8.42365 16.1228C8.73339 15.3665 9.12222 14.5441 9.60264 13.7511C9.83921 13.3605 9.95749 13.1653 10.0927 13.1895C10.2278 13.2137 10.2742 13.4543 10.3668 13.9355C10.9221 16.8193 13.1096 19.2449 15.433 20.9935Z" fill="#141B34"/>
</svg>
