<svg width="24" height="24" viewBox="0 0 24 24" fill="none" xmlns="http://www.w3.org/2000/svg">
<path d="M6.375 2.875C6.375 1.9085 7.1585 1.125 8.125 1.125H13.625C14.5915 1.125 15.375 1.9085 15.375 2.875C15.375 3.8415 14.5915 4.625 13.625 4.625H8.125C7.1585 4.625 6.375 3.8415 6.375 2.875Z" fill="#141B34"/>
<path opacity="0.4" d="M5.125 2.87515C5.125 2.78652 5.04909 2.71481 4.96129 2.72692C4.06119 2.85107 3.31352 3.11638 2.72311 3.70734C2.12131 4.3097 1.8625 5.06805 1.74151 5.96879C1.62497 6.83646 1.62498 7.93974 1.625 9.30865V15.9245C1.62498 17.2934 1.62497 18.3966 1.74151 19.2643C1.8625 20.165 2.12131 20.9234 2.72311 21.5257C3.325 22.1282 4.08293 22.3874 4.98316 22.5085C5.85017 22.6252 6.95252 22.6252 8.32006 22.6252L12.1727 22.6252C12.5154 22.6252 12.6868 22.6252 12.7742 22.5396C12.8617 22.454 12.8663 22.2426 12.8756 21.8198C12.8892 21.1985 13.1331 20.5814 13.6072 20.1072L14.4152 19.2993C14.6152 19.0993 14.7152 18.9993 14.7152 18.875C14.7152 18.7507 14.6152 18.6507 14.4152 18.4507L13.6072 17.6428C12.6309 16.6665 12.6309 15.0835 13.6072 14.1072C14.5835 13.1309 16.1665 13.1309 17.1428 14.1072L17.9507 14.9152C18.1507 15.1152 18.2507 15.2152 18.375 15.2152C18.4993 15.2152 18.5993 15.1152 18.7993 14.9152L19.6072 14.1072C19.681 14.0335 19.7581 13.9653 19.8383 13.9028C19.9889 13.7851 20.0643 13.7262 20.0946 13.6639C20.125 13.6017 20.125 13.5221 20.125 13.363V9.30871C20.125 7.93976 20.125 6.83648 20.0085 5.96879C19.8875 5.06805 19.6287 4.3097 19.0269 3.70734C18.4365 3.11638 17.6888 2.85107 16.7887 2.72692C16.7009 2.71481 16.625 2.78652 16.625 2.87515C16.625 4.53201 15.2819 5.87515 13.625 5.87515H8.125C6.46815 5.87515 5.125 4.53201 5.125 2.87515Z" fill="#141B34"/>
<path fill-rule="evenodd" clip-rule="evenodd" d="M6.125 10.875C6.125 10.4608 6.46079 10.125 6.875 10.125H14.875C15.2892 10.125 15.625 10.4608 15.625 10.875C15.625 11.2892 15.2892 11.625 14.875 11.625H6.875C6.46079 11.625 6.125 11.2892 6.125 10.875ZM6.125 15.875C6.125 15.4608 6.46079 15.125 6.875 15.125H10.875C11.2892 15.125 11.625 15.4608 11.625 15.875C11.625 16.2892 11.2892 16.625 10.875 16.625H6.875C6.46079 16.625 6.125 16.2892 6.125 15.875Z" fill="#141B34"/>
<path fill-rule="evenodd" clip-rule="evenodd" d="M14.6679 15.1679C15.0584 14.7774 15.6916 14.7774 16.0821 15.1679L18.375 17.4608L20.6679 15.1679C21.0584 14.7774 21.6916 14.7774 22.0821 15.1679C22.4726 15.5584 22.4726 16.1916 22.0821 16.5821L19.7892 18.875L22.0821 21.1679C22.4726 21.5584 22.4726 22.1916 22.0821 22.5821C21.6916 22.9726 21.0584 22.9726 20.6679 22.5821L18.375 20.2892L16.0821 22.5821C15.6916 22.9726 15.0584 22.9726 14.6679 22.5821C14.2774 22.1916 14.2774 21.5584 14.6679 21.1679L16.9608 18.875L14.6679 16.5821C14.2774 16.1916 14.2774 15.5584 14.6679 15.1679Z" fill="#141B34"/>
</svg>
