<svg width="24" height="24" viewBox="0 0 24 24" fill="none" xmlns="http://www.w3.org/2000/svg">
<path opacity="0.4" d="M9.75 21.0532C9.75 21.1619 9.8381 21.25 9.94678 21.25H14.0533C15.66 21.25 16.9289 21.25 17.9391 21.1373C18.9748 21.0217 19.8256 20.7804 20.5575 20.2378C21.0606 19.8649 21.4961 19.4032 21.8456 18.8749C22.4908 17.8995 22.6811 16.7169 22.749 15.1541C22.7814 14.4075 22.1524 13.9062 21.5352 13.9062C20.6033 13.9062 19.776 13.0936 19.776 12C19.776 10.9064 20.6033 10.0938 21.5352 10.0938C22.1524 10.0938 22.7814 9.59249 22.749 8.8459C22.6811 7.28307 22.4908 6.10053 21.8456 5.12508C21.4961 4.5968 21.0606 4.13512 20.5575 3.76216C19.8256 3.21963 18.9748 2.97828 17.9391 2.86271C16.9289 2.74998 15.6601 2.74999 14.0534 2.75H9.94683C9.83813 2.75 9.75 2.83812 9.75 2.94683L9.75 21.0532Z" fill="#141B34"/>
<path d="M8.25 3.36351C8.25 3.07653 8.25 2.93304 8.15941 2.84473C8.06881 2.75642 7.92681 2.76004 7.64281 2.7673C7.05458 2.78232 6.52998 2.81035 6.06107 2.86268C5.02537 2.97824 4.17461 3.21959 3.44269 3.76212C2.93954 4.13508 2.50404 4.59677 2.15462 5.12504C1.50935 6.1006 1.31903 7.2833 1.2512 8.8464C1.21882 9.59257 1.84739 10.0937 2.46441 10.0937C3.39631 10.0937 4.2236 10.9063 4.2236 12C4.2236 13.0936 3.39631 13.9062 2.46441 13.9062C1.84739 13.9062 1.21882 14.4074 1.2512 15.1535C1.31903 16.7166 1.50935 17.8993 2.15462 18.8749C2.50404 19.4032 2.93955 19.8648 3.44269 20.2378C4.17461 20.7803 5.02537 21.0217 6.06107 21.1373C6.52998 21.1896 7.05458 21.2176 7.64281 21.2326C7.92681 21.2399 8.06881 21.2435 8.15941 21.1552C8.25 21.0669 8.25 20.9234 8.25 20.6364L8.25 3.36351Z" fill="#141B34"/>
</svg>
