<svg width="24" height="24" viewBox="0 0 24 24" fill="none" xmlns="http://www.w3.org/2000/svg">
<path d="M22.75 17.9683C22.75 17.295 22.75 16.7442 22.7134 16.2967C22.6756 15.8334 22.5949 15.415 22.3958 15.0243C22.0842 14.4128 21.587 13.9156 20.9755 13.604C20.5847 13.4049 20.1663 13.3242 19.7031 13.2863C19.2555 13.2497 18.7048 13.2497 18.0315 13.2498L18.0314 13.2498L5.96857 13.2498L5.96853 13.2498C5.29518 13.2497 4.74448 13.2497 4.29693 13.2863C3.83367 13.3242 3.41527 13.4049 3.02453 13.604C2.41301 13.9156 1.91582 14.4128 1.60423 15.0243C1.40514 15.415 1.3244 15.8334 1.28655 16.2967C1.24999 16.7442 1.24999 17.2949 1.25 17.9683L1.25 18.0312C1.24999 18.7046 1.24998 19.2553 1.28655 19.7028C1.3244 20.1661 1.40514 20.5845 1.60423 20.9752C1.91582 21.5868 2.41301 22.0839 3.02453 22.3955C3.41527 22.5946 3.83367 22.6754 4.29693 22.7132C4.7445 22.7498 5.2952 22.7498 5.96858 22.7498L18.0314 22.7498L18.0314 22.7498C18.7048 22.7498 19.2555 22.7498 19.7031 22.7132C20.1663 22.6754 20.5847 22.5946 20.9755 22.3955C21.587 22.0839 22.0842 21.5868 22.3958 20.9752C22.5949 20.5845 22.6756 20.1661 22.7134 19.7028C22.75 19.2553 22.75 18.7046 22.75 18.0312L22.75 18.0312L22.75 17.9683L22.75 17.9683Z" fill="#141B34"/>
<path opacity="0.4" d="M20.6876 5.60831C20.7489 6.24029 20.75 7.06054 20.75 8.24976C20.75 8.80204 21.1977 9.24976 21.75 9.24976C22.3023 9.24976 22.75 8.80204 22.75 8.24976L22.75 8.19928L22.75 8.19926C22.75 7.07271 22.75 6.15514 22.6783 5.41525C22.604 4.64895 22.4453 3.96846 22.0603 3.35561C21.7006 2.78319 21.2166 2.29917 20.6441 1.9395C20.0313 1.55442 19.3508 1.3958 18.5845 1.32148C17.8446 1.24973 16.927 1.24974 15.8005 1.24976L8.19952 1.24976C7.07296 1.24974 6.1554 1.24973 5.4155 1.32148C4.64919 1.3958 3.96871 1.55442 3.35586 1.9395C2.78344 2.29917 2.29942 2.78319 1.93974 3.35561C1.55466 3.96846 1.39605 4.64895 1.32173 5.41525C1.24997 6.15514 1.24998 7.0727 1.25 8.19924L1.25 8.19928L1.25 8.24975C1.25 8.80204 1.69772 9.24975 2.25 9.24975C2.80228 9.24975 3.25 8.80204 3.25 8.24976C3.25 7.06054 3.2511 6.24028 3.31239 5.60831C3.37219 4.99173 3.4818 4.6606 3.63319 4.41967C3.83301 4.10167 4.10191 3.83276 4.41992 3.63294C4.66085 3.48156 4.99198 3.37194 5.60856 3.31214C6.24053 3.25085 7.06078 3.24976 8.25 3.24976L15.75 3.24976C16.9392 3.24976 17.7595 3.25085 18.3914 3.31214C19.008 3.37194 19.3392 3.48156 19.5801 3.63294C19.8981 3.83276 20.167 4.10167 20.3668 4.41968C20.5182 4.6606 20.6278 4.99173 20.6876 5.60831Z" fill="#141B34"/>
<path opacity="0.4" d="M12 14.9998C12.5523 14.9998 13 14.552 13 13.9998L13 8.99969L13.8038 8.99969L13.8225 8.99972C13.8927 8.99988 14.0179 9.00016 14.1271 8.9861L14.1308 8.98564C14.2097 8.97564 14.6792 8.9161 14.9057 8.44543C15.1332 7.97265 14.8828 7.56697 14.8424 7.50153L14.8401 7.49778C14.7828 7.4042 14.7043 7.30661 14.6592 7.25062L14.6592 7.25062L14.6472 7.23573C14.5907 7.16523 14.5261 7.08296 14.4554 6.99302C14.2215 6.69529 13.9211 6.313 13.6287 5.9912C13.4361 5.77915 13.2167 5.55865 12.9884 5.38482C12.7951 5.23761 12.44 4.99976 12 4.99976C11.56 4.99976 11.2049 5.23761 11.0116 5.38482C10.7834 5.55865 10.5639 5.77915 10.3713 5.9912C10.0789 6.313 9.77851 6.69529 9.54457 6.99302C9.47388 7.08298 9.40926 7.16521 9.35276 7.23573L9.3408 7.25062C9.29575 7.3066 9.21722 7.4042 9.1599 7.49778L9.15759 7.50153C9.1172 7.56698 8.86682 7.97265 9.0943 8.44543C9.32077 8.9161 9.79033 8.97564 9.86923 8.98564L9.87285 8.9861C9.98207 9.00016 10.1073 8.99988 10.1775 8.99972L10.1962 8.99969L11 8.99969L11 13.9998C11 14.552 11.4477 14.9998 12 14.9998Z" fill="#141B34"/>
</svg>
