<svg width="24" height="24" viewBox="0 0 24 24" fill="none" xmlns="http://www.w3.org/2000/svg">
<path d="M20.6917 9.41643C20.876 9.93702 20.6035 10.5085 20.0829 10.6929C19.5492 10.8819 18.9328 11.2888 18.2797 11.8615C17.637 12.4251 17.0118 13.1021 16.4581 13.7659C15.9062 14.4274 15.4375 15.0611 15.1064 15.5301C14.9413 15.7641 14.8113 15.9558 14.7233 16.0879L14.5931 16.2865C14.3998 16.5906 14.0577 16.7674 13.6979 16.749C13.3379 16.7305 13.0158 16.5198 12.8546 16.1975C12.4139 15.3161 12.0186 14.9652 11.8193 14.8323C11.735 14.7761 11.678 14.7536 11.6554 14.7459C11.147 14.6987 10.749 14.271 10.749 13.7503C10.749 13.198 11.1967 12.7503 11.749 12.7503C11.8314 12.7511 12.0361 12.7661 12.1956 12.82C12.4035 12.8794 12.6543 12.9853 12.9287 13.1682C13.203 13.3511 13.4907 13.6038 13.7794 13.9497C14.0946 13.5189 14.483 13.0113 14.9223 12.4847C15.5156 11.7735 16.214 11.0129 16.961 10.3578C17.6976 9.71179 18.5371 9.11865 19.4152 8.80765C19.9358 8.62327 20.5073 8.89583 20.6917 9.41643Z" fill="#141B34"/>
<path opacity="0.4" fill-rule="evenodd" clip-rule="evenodd" d="M9.95071 1.25H10.0479H10.0479C10.7086 1.24998 11.2784 1.24996 11.7436 1.29727C12.2368 1.34745 12.7221 1.45898 13.166 1.7556C13.4936 1.97447 13.7748 2.25573 13.9937 2.5833C14.2903 3.02722 14.4018 3.51249 14.452 4.00573C14.4574 4.05912 14.4622 4.1139 14.4665 4.17004C14.4863 4.43072 14.4961 4.56106 14.5571 4.63461C14.6181 4.70816 14.7677 4.74823 15.0667 4.82838C16.0869 5.10178 16.8285 6.05745 16.7424 7.1711L16.6455 8.42559V8.42561C16.6355 8.55551 16.6304 8.62047 16.6015 8.67535C16.5726 8.73023 16.5202 8.77248 16.4153 8.85697C16.2614 8.98091 16.1136 9.10585 15.9722 9.22981C15.2814 9.83562 14.488 10.697 13.8824 11.3996L13.8824 11.3996C13.7274 11.5793 13.65 11.6692 13.5535 11.691C13.4571 11.7129 13.3376 11.6603 13.0987 11.5553L13.0987 11.5553C12.9399 11.4854 12.7856 11.4297 12.6375 11.3861C12.2759 11.2709 11.9127 11.2516 11.7639 11.2501L11.7493 11.25C10.3686 11.25 9.24927 12.3693 9.24927 13.75C9.24927 14.8184 9.9187 15.7293 10.8616 16.0875L10.8616 16.0875C10.9712 16.1292 11.026 16.15 11.0619 16.1782C11.0979 16.2064 11.1247 16.2453 11.1783 16.3232C11.2727 16.4603 11.387 16.6322 11.4889 16.7987C11.4878 16.797 11.4874 16.7962 11.4877 16.7969C11.578 16.9598 11.4467 17.2174 11.2618 17.2401C11.2578 17.2405 11.3015 17.2369 11.3147 17.2358C11.3202 17.2353 11.3204 17.2353 11.3099 17.2362L11.3096 17.2362C11.2829 17.2385 11.2696 17.2396 11.2655 17.2401C11.108 17.2577 11.0035 17.3715 10.9991 17.53L10.999 17.5597V21.75C10.999 22.3023 10.5513 22.75 9.99902 22.75C9.44674 22.75 8.99902 22.3023 8.99902 21.75V17.8474C8.99902 17.5771 8.99902 17.4419 8.92729 17.3578C8.85557 17.2737 8.70507 17.2496 8.40408 17.2015C7.37232 17.0364 6.44126 16.4582 5.84743 15.5835L5.24665 14.6986C4.2046 13.1637 3.58188 11.3907 3.43963 9.54976L3.25581 7.1711C3.16975 6.05738 3.91141 5.10165 4.93172 4.82832C5.23084 4.74819 5.3804 4.70813 5.4414 4.63458C5.50239 4.56103 5.51228 4.43067 5.53205 4.16996C5.5363 4.11385 5.54111 4.0591 5.54654 4.00573C5.59671 3.51249 5.70824 3.02722 6.00486 2.5833C6.22374 2.25573 6.50499 1.97447 6.83256 1.7556C7.27648 1.45898 7.76175 1.34745 8.25499 1.29727C8.72012 1.24996 9.29 1.24998 9.95067 1.25H9.95071ZM11.5137 16.8396C11.5101 16.8335 11.5012 16.8188 11.4947 16.8082C11.5003 16.8173 11.5058 16.8264 11.5112 16.8354C11.5162 16.8437 11.5162 16.8437 11.5137 16.8396ZM12.0972 4.74907C12.0541 4.75 12.0052 4.75 11.9495 4.75C11.9494 4.75 11.9493 4.75 11.9492 4.75H8.04893C8.0097 4.75 7.9739 4.75 7.94113 4.74968C7.78714 4.74817 7.69963 4.73958 7.63389 4.69066C7.60376 4.66823 7.57472 4.63609 7.55546 4.60384C7.50449 4.51852 7.51502 4.41506 7.53607 4.20813C7.57016 3.87303 7.62716 3.75496 7.6676 3.69443C7.74056 3.58524 7.83431 3.49149 7.9435 3.41853C8.00403 3.37809 8.1221 3.32109 8.4572 3.287C8.63311 3.26911 8.83781 3.25986 9.08892 3.25508C9.34004 3.2503 9.63755 3.25 9.99907 3.25C9.99915 3.25 9.99923 3.25 9.99931 3.25C10.0444 3.25 10.0885 3.25001 10.1317 3.25002C10.3475 3.25011 10.5392 3.25052 10.7112 3.25226C11.0559 3.25576 11.3211 3.26461 11.5412 3.287C11.8763 3.32109 11.9944 3.37809 12.0549 3.41853C12.1641 3.49149 12.2578 3.58524 12.3308 3.69443C12.3712 3.75496 12.4282 3.87303 12.4623 4.20813C12.4834 4.41505 12.4939 4.51851 12.4429 4.60384C12.4237 4.63609 12.3946 4.66823 12.3645 4.69066C12.3047 4.73519 12.2268 4.7463 12.0972 4.74907ZM8.99907 7C8.44678 7 7.99907 7.44771 7.99907 8C7.99907 8.55228 8.44678 9 8.99907 9H10.9991C11.5514 9 11.9991 8.55228 11.9991 8C11.9991 7.44771 11.5514 7 10.9991 7H8.99907Z" fill="#141B34"/>
<path fill-rule="evenodd" clip-rule="evenodd" d="M7.99902 8C7.99902 7.44772 8.44674 7 8.99902 7H10.999C11.5513 7 11.999 7.44772 11.999 8C11.999 8.55228 11.5513 9 10.999 9H8.99902C8.44674 9 7.99902 8.55228 7.99902 8Z" fill="#141B34"/>
</svg>
