<svg width="24" height="24" viewBox="0 0 24 24" fill="none" xmlns="http://www.w3.org/2000/svg">
<path d="M5.25 4.375C5.25 3.13236 6.25736 2.125 7.5 2.125C8.74264 2.125 9.75 3.13236 9.75 4.375C9.75 5.61764 8.74264 6.625 7.5 6.625C6.25736 6.625 5.25 5.61764 5.25 4.375Z" fill="#141B34"/>
<path opacity="0.4" d="M11.8286 6.30626C12.3322 6.07942 12.9243 6.30375 13.1511 6.80731C13.3779 7.31086 13.1536 7.90295 12.6501 8.12978L10.9572 8.89464C10.7326 9.02299 10.457 9.18045 10.1387 9.24785C9.82263 9.31478 9.50637 9.2839 9.24571 9.25845L8.51078 9.18884L6.38322 14.7402C6.65028 14.9543 6.99221 15.2323 7.184 15.6265C7.38278 16.0351 7.38023 16.4842 7.37834 16.8185L7.37799 20.8754C7.37799 21.4277 6.93027 21.8754 6.37799 21.8754C5.8257 21.8754 5.37799 21.4277 5.37799 20.8754L5.37184 16.5043L3.22165 14.7532C2.99062 14.5661 2.75838 14.378 2.57912 14.1965C2.37538 13.9903 2.16531 13.7213 2.06201 13.3493C1.95789 12.9744 2.00099 12.6348 2.07365 12.3515C2.1366 12.1061 2.24263 11.8307 2.34607 11.5619L3.3916 8.84405C3.50731 8.54305 3.62437 8.23853 3.75605 7.99196C3.90844 7.70662 4.12464 7.40939 4.48368 7.19605C4.83765 6.98572 5.20009 6.93469 5.51927 6.92893C5.80279 6.92382 6.13585 6.95536 6.47645 6.98762L9.73988 7.28061L11.8286 6.30626Z" fill="#141B34"/>
<path fill-rule="evenodd" clip-rule="evenodd" d="M16.4924 7.14448C16.2313 6.86754 15.8065 6.79303 15.4592 6.97245C14.9685 7.22592 14.3652 7.03363 14.1117 6.54294C13.8583 6.05226 14.0506 5.449 14.5413 5.19553C15.6758 4.60945 17.07 4.84176 17.9475 5.77236C18.0511 5.88214 18.15 6.01215 18.2605 6.15746C18.2689 6.16845 18.2773 6.17952 18.2858 6.19068L19.3126 7.53882C19.4714 7.74734 19.7252 7.87498 20.0002 7.87498C20.5525 7.87498 21.0002 8.3227 21.0002 8.87498C21.0002 9.42727 20.5525 9.87498 20.0002 9.87498C19.1081 9.87498 18.263 9.46153 17.7215 8.75063L16.6947 7.40249C16.5436 7.204 16.5135 7.16684 16.4924 7.14448Z" fill="#141B34"/>
<path fill-rule="evenodd" clip-rule="evenodd" d="M8.42929 9.40137L7.6074 11.5459C7.72635 11.6916 7.85312 11.8426 7.98422 11.9872C8.46025 12.5121 9.14631 13.1314 10.121 13.2728C10.6676 13.3521 11.175 12.9733 11.2543 12.4268C11.3336 11.8802 10.9548 11.3728 10.4082 11.2935C10.1434 11.2551 9.8572 11.0753 9.46579 10.6437C9.29943 10.4602 9.14169 10.2636 8.9649 10.0432L8.88289 9.94108C8.74525 9.76991 8.5929 9.58248 8.42929 9.40137ZM13.4484 11.4613C12.9074 11.3505 12.3789 11.6993 12.2681 12.2403C12.1573 12.7814 12.5061 13.3098 13.0472 13.4206C14.2596 13.6689 15.3725 14.3055 16.2093 15.2519L16.8875 16.019C17.9306 17.1988 19.4271 17.875 21 17.875C21.5523 17.875 22 17.4273 22 16.875C22 16.3228 21.5523 15.875 21 15.875C20.0022 15.875 19.0507 15.4461 18.3859 14.6942L17.7076 13.9271C16.582 12.6541 15.0833 11.7961 13.4484 11.4613Z" fill="#141B34"/>
</svg>
