<svg width="24" height="24" viewBox="0 0 24 24" fill="none" xmlns="http://www.w3.org/2000/svg">
<path d="M11.5323 2.25C11.972 2.24998 12.3514 2.24997 12.6627 2.27818C12.9918 2.30802 13.3178 2.37407 13.625 2.55144C13.967 2.74892 14.2511 3.03296 14.4486 3.375C14.6259 3.68221 14.692 4.00817 14.7218 4.33735C14.75 4.64864 14.75 5.02798 14.75 5.46776V5.53225C14.75 5.97203 14.75 6.35136 14.7218 6.66265C14.692 6.99183 14.6259 7.31779 14.4486 7.625C14.2511 7.96704 13.967 8.25108 13.625 8.44856C13.3178 8.62593 12.9918 8.69198 12.6627 8.72182C12.3514 8.75003 11.972 8.75002 11.5322 8.75H8.46778C8.02799 8.75002 7.64864 8.75003 7.33735 8.72182C7.00817 8.69198 6.68221 8.62593 6.375 8.44856C6.03296 8.25108 5.74892 7.96704 5.55144 7.625C5.37407 7.31779 5.30802 6.99183 5.27818 6.66265C5.24997 6.35137 5.24998 5.97204 5.25 5.53226V5.53223V5.46778V5.46774C5.24998 5.02797 5.24997 4.64864 5.27818 4.33735C5.30802 4.00817 5.37407 3.68221 5.55144 3.375C5.74892 3.03296 6.03296 2.74892 6.375 2.55144C6.68221 2.37407 7.00817 2.30802 7.33735 2.27818C7.64864 2.24997 8.02797 2.24998 8.46774 2.25H8.46778H11.5322H11.5323Z" fill="#141B34"/>
<path d="M11.5323 12.25C11.972 12.25 12.3514 12.25 12.6627 12.2782C12.9918 12.308 13.3178 12.3741 13.625 12.5514C13.967 12.7489 14.2511 13.033 14.4486 13.375C14.6259 13.6822 14.692 14.0082 14.7218 14.3374C14.75 14.6486 14.75 15.028 14.75 15.4678V15.5322C14.75 15.972 14.75 16.3514 14.7218 16.6627C14.692 16.9918 14.6259 17.3178 14.4486 17.625C14.2511 17.967 13.967 18.2511 13.625 18.4486C13.3178 18.6259 12.9918 18.692 12.6627 18.7218C12.3514 18.75 11.972 18.75 11.5322 18.75H8.46778C8.02799 18.75 7.64864 18.75 7.33735 18.7218C7.00817 18.692 6.68221 18.6259 6.375 18.4486C6.03296 18.2511 5.74892 17.967 5.55144 17.625C5.37407 17.3178 5.30802 16.9918 5.27818 16.6627C5.24997 16.3514 5.24998 15.972 5.25 15.5323V15.5322V15.4678V15.4677C5.24998 15.028 5.24997 14.6486 5.27818 14.3374C5.30802 14.0082 5.37407 13.6822 5.55144 13.375C5.74892 13.033 6.03296 12.7489 6.375 12.5514C6.68221 12.3741 7.00817 12.308 7.33735 12.2782C7.64864 12.25 8.02797 12.25 8.46774 12.25H8.46778H11.5322H11.5323Z" fill="#141B34"/>
<path d="M17.8345 12.1938C18.1547 11.9495 18.5298 11.75 19 11.75C19.4702 11.75 19.8453 11.9495 20.1655 12.1938C20.4593 12.418 20.7798 12.7385 21.1382 13.0969L21.1382 13.0969L21.4031 13.3618C21.7615 13.7202 22.082 14.0407 22.3062 14.3345C22.5505 14.6547 22.75 15.0298 22.75 15.5C22.75 15.9702 22.5505 16.3453 22.3062 16.6655C22.082 16.9593 21.7615 17.2798 21.4031 17.6381L21.4031 17.6382L21.1382 17.9031L21.1382 17.9031C20.7798 18.2615 20.4593 18.582 20.1655 18.8062C19.8453 19.0505 19.4702 19.25 19 19.25C18.5298 19.25 18.1547 19.0505 17.8345 18.8062C17.5407 18.582 17.2202 18.2615 16.8618 17.9031L16.5969 17.6382C16.2385 17.2798 15.918 16.9594 15.6938 16.6655C15.4495 16.3453 15.25 15.9702 15.25 15.5C15.25 15.0298 15.4495 14.6547 15.6938 14.3345C15.918 14.0407 16.2385 13.7202 16.5969 13.3618L16.5969 13.3618L16.8618 13.0969C17.2202 12.7385 17.5406 12.418 17.8345 12.1938Z" fill="#141B34"/>
<g opacity="0.4">
<path d="M3.00796 2C3.00796 1.44772 2.56024 1 2.00796 1C1.45567 1 1.00796 1.44772 1.00796 2V12C1.00796 12.092 1.00629 12.1959 1.00448 12.3085C0.997205 12.7618 0.987645 13.3573 1.07528 13.8954C1.19336 14.6206 1.50898 15.4383 2.34067 15.9943C2.7845 16.291 3.26969 16.4025 3.76279 16.4527C4.18222 16.4954 4.68672 16.4996 5.26622 16.5C5.24998 16.2221 5.24999 15.8981 5.25 15.5322V15.4677C5.24999 15.1018 5.24998 14.7777 5.26623 14.4999C4.67747 14.4993 4.27633 14.4947 3.96529 14.463C3.63043 14.4289 3.51255 14.372 3.45216 14.3316C3.24409 14.1925 3.11549 13.9806 3.04928 13.574C2.99305 13.2287 2.99797 12.8761 3.00391 12.4503C3.00588 12.3091 3.00796 12.1598 3.00796 12V6.5H5.26622C5.24998 6.22217 5.24999 5.8981 5.25 5.53223V5.46774C5.24999 5.10187 5.24998 4.77783 5.26622 4.5H3.00796V2Z" fill="#141B34"/>
<path d="M14.7338 6.5C14.75 6.22217 14.75 5.89813 14.75 5.53225V5.46776C14.75 5.10187 14.75 4.77783 14.7338 4.5L15.0679 4.5C15.954 4.49995 16.7175 4.4999 17.3289 4.58215C17.9843 4.6703 18.6125 4.8691 19.122 5.37884C19.6315 5.88852 19.8301 6.51683 19.9182 7.17227C20.0004 7.78389 20.0003 8.54767 20.0003 9.43416L20.0003 12.0759C19.7174 11.8884 19.3917 11.75 19 11.75C18.6086 11.75 18.2831 11.8883 18.0003 12.0755V9.5C18.0003 8.52893 17.9981 7.90119 17.936 7.43864C17.8777 7.00482 17.7836 6.86884 17.7075 6.79273C17.6315 6.71669 17.4957 6.62259 17.0623 6.5643C16.6001 6.50213 15.9727 6.5 15.0021 6.5H14.7338Z" fill="#141B34"/>
<path d="M15.5757 14.5H14.7338C14.75 14.7778 14.75 15.1019 14.75 15.4678V15.5322C14.75 15.8981 14.75 16.2222 14.7338 16.5H15.5757C15.3883 16.2172 15.25 15.8915 15.25 15.5C15.25 15.1085 15.3883 14.7828 15.5757 14.5Z" fill="#141B34"/>
<path d="M18.0029 18.9263C18.0012 18.9506 18.0003 18.9752 18.0003 19V19.4633C18.0002 19.8329 18.0002 20.1667 18.0225 20.4459C18.0464 20.7464 18.1004 21.0628 18.2521 21.3769C18.5832 22.062 19.1933 22.5609 19.9003 22.8119C20.2114 22.9223 20.5262 22.9632 20.8476 22.982C21.1559 23 21.5301 23 21.9719 23H22.0003C22.5526 23 23.0003 22.5523 23.0003 22C23.0003 21.4477 22.5526 21 22.0003 21C21.5226 21 21.2073 20.9996 20.9643 20.9854C20.7279 20.9716 20.6259 20.9472 20.5695 20.9271C20.2964 20.8302 20.1277 20.6615 20.0528 20.5065C20.0516 20.5042 20.03 20.4617 20.0161 20.2872C20.001 20.097 20.0003 19.8439 20.0003 19.4286V19C20.0003 18.9751 19.9994 18.9504 19.9976 18.9259C19.7153 19.1124 19.3904 19.25 19 19.25C18.6098 19.25 18.2851 19.1126 18.0029 18.9263Z" fill="#141B34"/>
</g>
</svg>
