<svg width="24" height="24" viewBox="0 0 24 24" fill="none" xmlns="http://www.w3.org/2000/svg">
<path fill-rule="evenodd" clip-rule="evenodd" d="M13.3473 1.28191C13.9124 1.33245 14.4435 1.5049 14.8996 1.84506C15.2369 2.09662 15.4712 2.40457 15.6714 2.73807C15.8569 3.04712 16.0437 3.43244 16.2555 3.86955L16.6823 4.74985H21C21.5523 4.74985 22 5.19757 22 5.74985C22 6.30213 21.5523 6.74985 21 6.74985C14.9998 6.74985 9.00019 6.74985 3 6.74985C2.44772 6.74985 2 6.30213 2 5.74985C2 5.19757 2.44772 4.74985 3 4.74985H7.40976L7.76556 3.96931C7.97212 3.5161 8.15403 3.11697 8.33676 2.79669C8.53387 2.45121 8.76721 2.13151 9.10861 1.8696C9.57032 1.5154 10.1121 1.33583 10.6899 1.28323C11.1249 1.24363 11.5634 1.24908 12 1.24978C12.5108 1.25061 12.97 1.24817 13.3473 1.28191ZM9.60776 4.74985H14.4597C14.233 4.28245 14.088 3.98621 13.9566 3.76735C13.7643 3.44702 13.5339 3.30659 13.1691 3.27396C12.9098 3.25077 12.5719 3.24985 12.0345 3.24985C11.4837 3.24985 11.137 3.25081 10.8712 3.275C10.4971 3.30905 10.2639 3.45483 10.0739 3.78781C9.94941 4.00602 9.81387 4.29812 9.60776 4.74985Z" fill="#141B34"/>
<path d="M19.5262 16.5554C19.48 17.26 19.457 17.6123 19.3256 17.653C19.1941 17.6937 18.951 17.3843 18.4646 16.7655C17.6548 15.7353 16.4288 15.0553 15 15.045L15 13.8388C15.0009 13.3485 14.8715 12.8551 14.3955 12.6138C13.7187 12.2707 13.2059 12.7477 12.7217 13.1486C12.0856 13.6753 11.4059 14.2064 10.9179 14.8816C10.7505 15.1132 10.5 15.5141 10.5 15.9993C10.5 16.4845 10.7505 16.8854 10.9179 17.117C11.4059 17.7922 12.0856 18.3233 12.7217 18.85C13.2025 19.2481 13.7306 19.7219 14.3955 19.3848C14.8824 19.138 15.0006 18.6353 15 18.1376V17.0451C16.4914 17.0661 17.7342 18.5136 17.4633 20.2289C17.2399 21.6437 16.4446 22.6144 15.0531 22.7491L8.92739 22.749C8.1135 22.6701 7.42972 22.5052 6.8176 22.1282C6.25763 21.7832 5.77494 21.3242 5.40028 20.7805C4.99073 20.1861 4.78656 19.5066 4.65957 18.6908C4.53574 17.8953 4.47623 16.8995 4.40122 15.6445L3.75 4.74915H20.25L19.5825 15.6555C19.5631 15.9716 19.5448 16.2713 19.5262 16.5554Z" fill="#141B34"/>
</svg>
