<svg width="24" height="24" viewBox="0 0 24 24" fill="none" xmlns="http://www.w3.org/2000/svg">
<path d="M5 13L4.31605 12.6922C4.21162 12.9243 4.232 13.1935 4.37019 13.4072C4.50837 13.6209 4.74551 13.75 5 13.75V13ZM10 13L10.7276 13.1819C10.7836 12.9578 10.7333 12.7205 10.5912 12.5384C10.449 12.3564 10.231 12.25 10 12.25V13ZM8 21L7.27239 20.8181L6.61567 23.445L8.53033 21.5303L8 21ZM19 10L19.5303 10.5303C19.7448 10.3158 19.809 9.99324 19.6929 9.71299C19.5768 9.43273 19.3033 9.25 19 9.25V10ZM17.9998 3L18.652 3.37038L19.2883 2.25H17.9998V3ZM9.49985 3V2.25H9.0149L8.8159 2.69224L9.49985 3ZM14.0244 10L13.3722 9.62962C13.2404 9.86179 13.2419 10.1466 13.3762 10.3773C13.5105 10.6081 13.7574 10.75 14.0244 10.75V10ZM5 13.75H10V12.25H5V13.75ZM9.27239 12.8181L7.27239 20.8181L8.72761 21.1819L10.7276 13.1819L9.27239 12.8181ZM8.53033 21.5303L19.5303 10.5303L18.4697 9.46967L7.46967 20.4697L8.53033 21.5303ZM17.9998 2.25H9.49985V3.75H17.9998V2.25ZM8.8159 2.69224L4.31605 12.6922L5.68395 13.3078L10.1838 3.30776L8.8159 2.69224ZM17.3477 2.62962L13.3722 9.62962L14.6766 10.3704L18.652 3.37038L17.3477 2.62962ZM14.0244 10.75H19V9.25H14.0244V10.75Z" fill="#141B34"/>
</svg>
