<svg width="24" height="24" viewBox="0 0 24 24" fill="none" xmlns="http://www.w3.org/2000/svg">
<path d="M12.4416 6.16948C12.4334 6.17436 12.4251 6.17909 12.4168 6.18368C12.1763 6.32294 11.9493 6.4882 11.7404 6.67792L8.81496 9.33458C8.05043 10.0289 8.02311 11.2122 8.7523 11.9406C9.38366 12.5713 10.3862 12.656 11.1167 12.1347L13.0515 10.7542C13.5181 10.4213 14.099 10.2976 14.6572 10.4091L15.0448 10.4865C16.1519 10.7077 17.2994 10.4467 18.1989 9.77278L18.8852 9.25862C19.2728 8.96825 19.8184 9.05241 20.1039 9.44661C20.3894 9.84081 20.3067 10.3958 19.9191 10.6861L19.2328 11.2003C18.4489 11.7876 17.5371 12.1556 16.5883 12.2847C16.2621 12.329 16.0989 12.3512 16.0423 12.4553C15.9857 12.5593 16.0489 12.7007 16.1753 12.9834C16.3395 13.3508 16.5207 13.7322 16.7215 14.1092C17.2801 15.1581 17.9959 16.1924 18.9739 16.9926C19.0585 17.0619 19.1009 17.0965 19.1567 17.1079C19.2126 17.1192 19.2659 17.1034 19.3723 17.0717C19.6423 16.9914 19.9927 16.8782 20.3307 16.7459C21.0681 16.4575 21.8995 16.0424 22.5875 15.4795C22.6654 15.4158 22.7044 15.3839 22.7272 15.3355C22.75 15.2871 22.75 15.2333 22.75 15.1259V4.05719C22.75 3.67165 22.75 3.47888 22.6281 3.41186C22.5062 3.34484 22.3476 3.45044 22.0305 3.66164L20.1356 4.92354C19.0216 5.66544 17.6835 5.99005 16.3561 5.84273L14.8417 5.67463C14.0006 5.58128 13.1613 5.75971 12.4416 6.16948Z" fill="#141B34"/>
<path d="M9.5044 5.39556C8.36808 5.10003 6.84864 4.84725 5.04155 4.80056C4.5048 4.7867 3.96379 4.6472 3.47757 4.36461L1.9455 3.47419C1.63619 3.29443 1.48154 3.20454 1.36577 3.27287C1.25 3.3412 1.25 3.52237 1.25 3.8847V15.4244C1.25 15.4308 1.25207 15.437 1.25589 15.4421C1.69831 15.9715 2.84345 17.31 3.63782 18.0125C5.25105 19.4393 7.37464 20.75 9.67568 20.75C11.6369 20.75 13.5088 20.2872 15.0504 19.6358C15.8829 19.2841 16.5982 18.8864 17.1694 18.493C17.3766 18.3502 17.4802 18.2789 17.4903 18.1675C17.5003 18.056 17.4042 17.9596 17.2118 17.7669C16.3376 16.8906 15.6887 15.8927 15.1887 14.9537C14.8287 14.2778 14.54 13.6211 14.3001 13.0521C14.2773 12.9978 14.2388 12.9059 14.1956 12.8027C14.0915 12.5537 14.0395 12.4292 13.9329 12.3982C13.8263 12.3672 13.7175 12.4448 13.4999 12.6L12.1179 13.5862C10.7021 14.5963 8.76451 14.438 7.53078 13.2055C6.08156 11.7579 6.13889 9.38787 7.65392 8.01203L9.67878 6.1732C9.94916 5.92767 10.0843 5.8049 10.0513 5.66704C10.0182 5.52919 9.84695 5.48465 9.5044 5.39556Z" fill="#141B34"/>
</svg>
