<svg width="24" height="24" viewBox="0 0 24 24" fill="none" xmlns="http://www.w3.org/2000/svg">
<path fill-rule="evenodd" clip-rule="evenodd" d="M2.25195 20C2.25195 19.0335 3.03545 18.25 4.00195 18.25H20.002C20.9685 18.25 21.752 19.0335 21.752 20V21C21.752 21.9665 20.9685 22.75 20.002 22.75H4.00195C3.03546 22.75 2.25195 21.9665 2.25195 21V20ZM4.00195 19.75C3.86388 19.75 3.75195 19.8619 3.75195 20V21C3.75195 21.1381 3.86388 21.25 4.00195 21.25H20.002C20.14 21.25 20.252 21.1381 20.252 21V20C20.252 19.8619 20.14 19.75 20.002 19.75H4.00195Z" fill="#141B34"/>
<path fill-rule="evenodd" clip-rule="evenodd" d="M19.7506 19.75V14.35C19.7506 14.0672 19.7506 13.9257 19.6627 13.8379C19.5748 13.75 19.4334 13.75 19.1506 13.75H19.0003C18.0286 13.75 17.0865 13.461 16.3778 12.8246C15.6572 12.1774 15.2503 11.2352 15.2503 10.0833C15.2503 9.52311 15.4207 8.94385 15.8084 8.49214C16.2091 8.02519 16.7963 7.75 17.5003 7.75C17.9191 7.75 18.4597 7.9112 18.9063 8.26852C19.383 8.64984 19.7503 9.25511 19.7503 10.0833C19.7503 10.4975 19.4145 10.8333 19.0003 10.8333C18.5861 10.8333 18.2503 10.4975 18.2503 10.0833C18.2503 9.74489 18.1176 9.55849 17.9693 9.43982C17.7909 9.29713 17.5815 9.25 17.5003 9.25C17.2101 9.25 17.0473 9.35173 16.9466 9.46906C16.8328 9.60165 16.7503 9.81405 16.7503 10.0833C16.7503 10.8644 17.015 11.3806 17.3801 11.7085C17.7572 12.0472 18.3151 12.25 19.0003 12.25C22.0592 12.25 22.7506 9.76033 22.7506 8.5C22.7506 6.26542 21.1759 4.25 19.0006 4.25L5 4.25C2.82463 4.25 1.25 6.26542 1.25 8.5C1.25 9.76033 1.94135 12.25 5.00028 12.25C5.68541 12.25 6.24339 12.0472 6.62048 11.7085C6.9856 11.3806 7.25028 10.8644 7.25028 10.0833C7.25028 9.81405 7.16774 9.60165 7.05394 9.46906C6.95324 9.35173 6.79043 9.25 6.50028 9.25C6.41909 9.25 6.20966 9.29713 6.0313 9.43982C5.88296 9.55849 5.75028 9.74489 5.75028 10.0833C5.75028 10.4975 5.41449 10.8333 5.00028 10.8333C4.58607 10.8333 4.25028 10.4975 4.25028 10.0833C4.25028 9.25511 4.6176 8.64984 5.09426 8.26852C5.5409 7.9112 6.08146 7.75 6.50028 7.75C7.20424 7.75 7.79143 8.02519 8.1922 8.49214C8.57988 8.94385 8.75028 9.52311 8.75028 10.0833C8.75028 11.2352 8.34339 12.1774 7.62272 12.8246C6.91402 13.461 5.972 13.75 5.00028 13.75L4.85 13.75C4.56716 13.75 4.42574 13.75 4.33787 13.8379C4.25 13.9257 4.25 14.0672 4.25 14.35L4.25 19.75H9.50195L14.502 19.75L19.7506 19.75ZM14.502 19.75C14.9162 19.75 15.252 19.4142 15.252 19V16C15.252 15.5858 14.9162 15.25 14.502 15.25C14.0877 15.25 13.752 15.5858 13.752 16V19C13.752 19.4142 14.0877 19.75 14.502 19.75ZM10.252 9C10.252 8.58579 10.5877 8.25 11.002 8.25L13.002 8.25C13.4162 8.25 13.752 8.58579 13.752 9C13.752 9.41421 13.4162 9.75 13.002 9.75H11.002C10.5877 9.75 10.252 9.41421 10.252 9ZM10.252 16C10.252 15.5858 9.91617 15.25 9.50195 15.25C9.08774 15.25 8.75195 15.5858 8.75195 16L8.75195 19C8.75195 19.4142 9.08774 19.75 9.50195 19.75C9.91617 19.75 10.252 19.4142 10.252 19V16Z" fill="#141B34"/>
<path fill-rule="evenodd" clip-rule="evenodd" d="M7.95258 1.25C7.96899 1.25 7.98544 1.25 8.00196 1.25L16.0513 1.25C16.7162 1.24996 17.2891 1.24993 17.7478 1.31161C18.2394 1.37771 18.7107 1.52677 19.0929 1.90901C19.4752 2.29126 19.6243 2.76252 19.6904 3.25416C19.752 3.71291 19.752 4.28577 19.752 4.95064L19.752 5C19.752 5.41422 19.4162 5.75 19.002 5.75C18.5877 5.75 18.252 5.41422 18.252 5C18.252 4.27169 18.2504 3.80091 18.2037 3.45403C18.16 3.12873 18.0894 3.02677 18.0323 2.96967C17.9752 2.91258 17.8732 2.84197 17.5479 2.79823C17.201 2.7516 16.7303 2.75 16.002 2.75H8.00196C7.27365 2.75 6.80286 2.7516 6.45598 2.79823C6.13068 2.84197 6.02872 2.91258 5.97163 2.96967C5.91453 3.02677 5.84392 3.12873 5.80019 3.45403C5.75355 3.80091 5.75196 4.27169 5.75196 5C5.75196 5.41422 5.41617 5.75 5.00196 5.75C4.58774 5.75 4.25196 5.41422 4.25196 5C4.25196 4.98349 4.25196 4.96703 4.25195 4.95063C4.25192 4.28577 4.25189 3.71291 4.31356 3.25416C4.37966 2.76252 4.52872 2.29126 4.91097 1.90901C5.29321 1.52677 5.76448 1.37771 6.25611 1.31161C6.71486 1.24993 7.28772 1.24996 7.95258 1.25Z" fill="#141B34"/>
</svg>
