<svg width="24" height="24" viewBox="0 0 24 24" fill="none" xmlns="http://www.w3.org/2000/svg">
<path d="M19.8113 12.8143C19.3488 12.7521 18.7211 12.75 17.75 12.75C17.1977 12.75 16.75 12.3023 16.75 11.75C16.75 11.1977 17.1977 10.75 17.75 10.75L17.8158 10.75C18.7023 10.75 19.4661 10.7499 20.0778 10.8321C20.7333 10.9203 21.3617 11.119 21.8713 11.6287C22.381 12.1383 22.5797 12.7667 22.6679 13.4222C22.7501 14.0339 22.7501 14.7977 22.75 15.6842V15.6842L22.75 20.7894C22.7501 20.9893 22.7503 21.2272 22.7228 21.4319C22.6896 21.6789 22.6007 22.0207 22.3107 22.3107C22.0207 22.6007 21.6789 22.6896 21.4319 22.7228C21.2272 22.7503 20.9893 22.7501 20.7894 22.75H20.7894L17.75 22.75C17.1977 22.75 16.75 22.3023 16.75 21.75C16.75 21.1977 17.1977 20.75 17.75 20.75H20.75V15.75C20.75 14.7789 20.7479 14.1512 20.6857 13.6887C20.6274 13.255 20.5332 13.119 20.4571 13.0429C20.381 12.9668 20.245 12.8726 19.8113 12.8143Z" fill="#141B34"/>
<path d="M4.1887 12.8133C4.65121 12.7512 5.27892 12.749 6.25 12.749C6.80228 12.749 7.25 12.3013 7.25 11.749C7.25 11.1967 6.80228 10.749 6.25 10.749L6.18417 10.749C5.29768 10.749 4.53387 10.7489 3.92221 10.8312C3.26669 10.9193 2.63834 11.118 2.12868 11.6277C1.61902 12.1374 1.42027 12.7657 1.33214 13.4212C1.24991 14.0329 1.24995 14.7967 1.25 15.6832V15.6832L1.24998 20.7884C1.24986 20.9883 1.24971 21.2263 1.27722 21.4309C1.31044 21.678 1.39935 22.0197 1.68934 22.3097C1.97933 22.5997 2.32107 22.6886 2.56812 22.7218C2.77276 22.7493 3.01071 22.7492 3.21057 22.749H3.21062L6.25 22.749C6.80228 22.749 7.25 22.3013 7.25 21.749C7.25 21.1967 6.80228 20.749 6.25 20.749H3.25V15.749C3.25 14.7779 3.25212 14.1502 3.31431 13.6877C3.37262 13.254 3.46677 13.118 3.54289 13.0419C3.61902 12.9658 3.75496 12.8716 4.1887 12.8133Z" fill="#141B34"/>
<path d="M12 18.249C12.5523 18.249 13 18.6967 13 19.249V22.549C13 22.6595 12.9105 22.749 12.8 22.749H11.2C11.0895 22.749 11 22.6595 11 22.549L11 19.249C11 18.6967 11.4477 18.249 12 18.249Z" fill="#141B34"/>
<path d="M12.0004 1.25C12.2347 1.25004 12.4496 1.3821 12.5589 1.59277C12.5589 1.59277 12.6305 1.70874 12.6775 1.77161C12.7717 1.89769 12.9223 2.07219 13.1382 2.24837C13.5627 2.59466 14.2591 2.96429 15.3329 2.96429C15.6505 2.96429 15.9187 3.20437 15.9593 3.525C16.0636 4.34895 15.9897 5.67274 15.4733 6.95881C14.95 8.26223 13.9575 9.55617 12.2193 10.2101C12.078 10.2633 11.9226 10.2633 11.7813 10.2101C10.0431 9.55618 9.05046 8.26227 8.52699 6.95888C8.01049 5.67284 7.93635 4.34902 8.04065 3.525C8.08124 3.20437 8.34944 2.96429 8.66706 2.96429C9.7409 2.96429 10.4375 2.59465 10.8621 2.24831C11.0782 2.07211 11.2288 1.89758 11.3231 1.77148C11.3701 1.70861 11.4418 1.59259 11.4418 1.59259C11.5511 1.38196 11.7661 1.24996 12.0004 1.25Z" fill="#141B34"/>
<path fill-rule="evenodd" clip-rule="evenodd" d="M12 16.9985C10.7574 16.9985 9.75 18.0059 9.75 19.2485V22.1485C9.75 22.4314 9.75 22.5728 9.66213 22.6607C9.57427 22.7485 9.43285 22.7485 9.15 22.7485H6C5.58579 22.7485 5.25 22.4127 5.25 21.9985L5.25 12.8457V12.8457C5.24998 11.4623 5.24997 10.3488 5.36638 9.47348C5.48708 8.56592 5.74501 7.80244 6.34548 7.19541C6.39411 7.14625 6.44378 7.09933 6.4945 7.05455C6.71952 6.85586 6.83204 6.75652 6.98416 6.79353C7.13629 6.83054 7.20159 6.99883 7.3322 7.33541C7.3436 7.36479 7.35519 7.39416 7.36698 7.42352C7.98903 8.97236 9.20222 10.5742 11.3411 11.3789C11.7662 11.5388 12.2343 11.5388 12.6594 11.3789C14.7984 10.5741 16.0114 8.97223 16.6333 7.42331C16.645 7.39407 16.6566 7.36482 16.6679 7.33555C16.7985 6.99893 16.8638 6.83062 17.0159 6.7936C17.1681 6.75659 17.2806 6.85595 17.5056 7.05467C17.5563 7.09941 17.6059 7.14629 17.6545 7.19541C18.255 7.80244 18.5129 8.56592 18.6336 9.47348C18.75 10.3488 18.75 11.4623 18.75 12.8457V21.9985C18.75 22.4127 18.4142 22.7485 18 22.7485H14.85C14.5672 22.7485 14.4257 22.7485 14.3379 22.6607C14.25 22.5728 14.25 22.4314 14.25 22.1485V19.2485C14.25 18.0059 13.2426 16.9985 12 16.9985ZM9 13.2488C8.58579 13.2488 8.25 13.5846 8.25 13.9988C8.25 14.413 8.58579 14.7488 9 14.7488H10.2C10.6142 14.7488 10.95 14.413 10.95 13.9988C10.95 13.5846 10.6142 13.2488 10.2 13.2488H9ZM13.8 13.2488C13.3858 13.2488 13.05 13.5846 13.05 13.9988C13.05 14.413 13.3858 14.7488 13.8 14.7488H15C15.4142 14.7488 15.75 14.413 15.75 13.9988C15.75 13.5846 15.4142 13.2488 15 13.2488H13.8Z" fill="#141B34"/>
</svg>
