<svg width="24" height="24" viewBox="0 0 24 24" fill="none" xmlns="http://www.w3.org/2000/svg">
<path d="M13.4624 4C15.9685 4 18 6.01472 18 8.5C18 10.9853 15.9685 13 13.4624 13C11.2388 13 9.38874 11.4138 9 9.32009" stroke="#141B34" stroke-width="1.5" stroke-linecap="round"/>
<path d="M1.72146 3.8034C1.33687 3.95723 1.14981 4.39371 1.30364 4.7783C1.45748 5.16289 1.89396 5.34995 2.27854 5.19611L1.72146 3.8034ZM11.5777 2.77828L11.9154 2.10853L11.9053 2.1036L11.5777 2.77828ZM14 3.99976L14.0002 4.74976C14.3475 4.74966 14.6493 4.51111 14.7297 4.17321C14.81 3.83531 14.6478 3.48646 14.3377 3.33008L14 3.99976ZM8.28515 5.74966C7.87094 5.74966 7.53515 6.08544 7.53515 6.49966C7.53515 6.91387 7.87094 7.24966 8.28515 7.24966V5.74966ZM12.2693 8.68828L12.1384 7.94979L12.2693 8.68828ZM10.2234 9.05096L10.3543 9.78945H10.3543L10.2234 9.05096ZM6.89876 10.1397L7.16837 10.8395L6.89876 10.1397ZM2 10.2497C1.58579 10.2497 1.25 10.5854 1.25 10.9997C1.25 11.4139 1.58579 11.7497 2 11.7497V10.2497ZM9.30601 9.23243L9.10527 8.50979L9.10527 8.50979L9.30601 9.23243ZM11.5909 6.5311L11.7212 5.79249L11.7212 5.79249L11.5909 6.5311ZM13.0414 7.81678L13.7732 7.65256V7.65256L13.0414 7.81678ZM11.24 3.44796L13.6623 4.66943L14.3377 3.33008L11.9154 2.10861L11.24 3.44796ZM11.9053 2.1036C10.9732 1.65107 10.244 1.43016 9.6018 1.32855C8.97161 1.22885 8.44193 1.24966 8 1.24966V2.74966C8.50235 2.74966 8.8837 2.7336 9.3674 2.81012C9.83905 2.88474 10.4266 3.05315 11.2501 3.45297L11.9053 2.1036ZM12.1384 7.94979L10.0925 8.31248L10.3543 9.78945L12.4002 9.42677L12.1384 7.94979ZM6.62914 9.43979C5.60696 9.83357 4.0441 10.2497 2 10.2497V11.7497C4.25136 11.7497 5.99687 11.2908 7.16837 10.8395L6.62914 9.43979ZM10.0925 8.31248C9.62453 8.39543 9.33627 8.44563 9.10527 8.50979L9.50674 9.95507C9.65063 9.9151 9.849 9.87903 10.3543 9.78945L10.0925 8.31248ZM7.16837 10.8395C7.90923 10.5541 8.46178 10.3412 8.85273 10.1931C9.04832 10.119 9.20041 10.0623 9.31382 10.0213C9.37051 10.0008 9.41534 9.98508 9.44979 9.97343C9.46691 9.96763 9.48036 9.96323 9.4906 9.95999C9.49566 9.95839 9.49955 9.9572 9.50242 9.95634C9.50383 9.95591 9.5049 9.9556 9.50565 9.95538C9.50641 9.95516 9.50676 9.95506 9.50674 9.95507L9.10527 8.50979C8.87149 8.57473 8.07393 8.8832 6.62914 9.43979L7.16837 10.8395ZM10.7692 7.24966C11.2302 7.24966 11.3633 7.25253 11.4607 7.26971L11.7212 5.79249C11.4619 5.74678 11.1661 5.74966 10.7692 5.74966V7.24966ZM11.4607 7.26971C11.9401 7.35422 12.2397 7.6694 12.3097 7.98101L13.7732 7.65256C13.5518 6.6659 12.7065 5.96622 11.7212 5.79249L11.4607 7.26971ZM12.4002 9.42677C12.7783 9.35974 13.1458 9.17547 13.4131 8.89095C13.6866 8.59986 13.8868 8.15861 13.7732 7.65256L12.3097 7.98101C12.3018 7.94602 12.305 7.90919 12.3142 7.8814C12.3221 7.85742 12.3299 7.85329 12.3199 7.86391C12.3099 7.87451 12.2888 7.89259 12.2542 7.91065C12.2201 7.92845 12.1801 7.9424 12.1384 7.94979L12.4002 9.42677ZM8.28515 7.24966H10.0355V5.74966H8.28515V7.24966ZM10.0355 7.24966H10.7692V5.74966H10.0355V7.24966ZM13.9998 3.24976C12.0634 3.25029 10.3444 4.46798 9.3863 6.12409L10.6847 6.87523C11.4346 5.579 12.7088 4.75011 14.0002 4.74976L13.9998 3.24976ZM2.27854 5.19611C3.58013 4.67548 4.65127 4.00643 5.52989 3.53585C6.43882 3.04904 7.1772 2.74966 8 2.74966V1.24966C6.79156 1.24966 5.77995 1.70032 4.82168 2.21356C3.83311 2.74303 2.91987 3.32403 1.72146 3.8034L2.27854 5.19611Z" fill="#141B34"/>
<path d="M22 14H19.6052C19.311 14 19.0209 14.0663 18.7578 14.1936L16.7159 15.1816C16.4528 15.3089 16.1627 15.3751 15.8685 15.3751H14.8259C13.8175 15.3751 13 16.1662 13 17.142C13 17.1814 13.027 17.2161 13.0662 17.2269L15.6071 17.9295C16.0629 18.0555 16.551 18.0116 16.975 17.8064L19.1579 16.7503M13 16.5L8.40723 15.0889C7.59304 14.8352 6.71292 15.136 6.2029 15.8423C5.83414 16.3529 5.98428 17.0842 6.52154 17.3942L14.0371 21.7305C14.5151 22.0063 15.0791 22.0736 15.6048 21.9176L22 20.0199" stroke="#141B34" stroke-width="1.5" stroke-linecap="round" stroke-linejoin="round"/>
</svg>
