<svg width="24" height="24" viewBox="0 0 24 24" fill="none" xmlns="http://www.w3.org/2000/svg">
<path d="M11.0002 7.5C10.5441 6.89278 9.81791 6.5 9 6.5C7.61929 6.5 6.5 7.61929 6.5 9C6.5 10.2095 7.35888 11.2184 8.5 11.45M8.94478 18C8.69396 18 8.44745 17.9329 8.22947 17.8054C5.2439 15.8892 2 13.1309 2 9.14061C2 5.22638 5.18645 2 8.94478 2C10.9113 2 12.7212 2.88329 14 4.28624" stroke="#141B34" stroke-width="1.5" stroke-linecap="round"/>
<path d="M11 14.8213C10.5858 14.8213 10.25 15.1571 10.25 15.5713C10.25 15.9855 10.5858 16.3213 11 16.3213V14.8213ZM22 16.3213C22.4142 16.3213 22.75 15.9855 22.75 15.5713C22.75 15.1571 22.4142 14.8213 22 14.8213V16.3213ZM15.75 21.9999C15.75 22.4141 16.0858 22.7499 16.5 22.7499C16.9142 22.7499 17.25 22.4141 17.25 21.9999H15.75ZM17.25 19.857C17.25 19.4428 16.9142 19.107 16.5 19.107C16.0858 19.107 15.75 19.4428 15.75 19.857H17.25ZM12.1 15.5713V14.8213C11.6858 14.8213 11.35 15.1571 11.35 15.5713H12.1ZM20.9 15.5713H21.65C21.65 15.1571 21.3142 14.8213 20.9 14.8213V15.5713ZM11 16.3213H22V14.8213H11V16.3213ZM17.25 21.9999L17.25 19.857H15.75L15.75 21.9999H17.25ZM11.35 15.5713V20.9284H12.85V15.5713H11.35ZM12.1 16.3213H20.9V14.8213H12.1V16.3213ZM20.15 15.5713V20.9284H21.65V15.5713H20.15ZM19.8 21.2499H13.2V22.7499H19.8V21.2499ZM20.15 20.9284C20.15 21.0576 20.1499 21.1575 20.1477 21.2429C20.1455 21.3287 20.1414 21.3809 20.1369 21.4137C20.1325 21.4459 20.1302 21.4391 20.1411 21.4131C20.1547 21.381 20.1794 21.341 20.2156 21.3057L21.2622 22.3802C21.5088 22.14 21.5907 21.8515 21.6228 21.6188C21.6517 21.4097 21.65 21.1592 21.65 20.9284H20.15ZM19.8 22.7499C20.0386 22.7499 20.2911 22.7514 20.5009 22.7239C20.7303 22.6939 21.0184 22.6177 21.2622 22.3802L20.2156 21.3057C20.2983 21.2251 20.3763 21.2274 20.3061 21.2366C20.2694 21.2414 20.2134 21.2454 20.1244 21.2476C20.0357 21.2498 19.9324 21.2499 19.8 21.2499V22.7499ZM11.35 20.9284C11.35 21.1592 11.3483 21.4097 11.3772 21.6188C11.4093 21.8515 11.4912 22.14 11.7378 22.3802L12.7844 21.3057C12.8206 21.341 12.8453 21.381 12.8589 21.4131C12.8698 21.4391 12.8675 21.4459 12.8631 21.4137C12.8586 21.3809 12.8545 21.3287 12.8523 21.2429C12.8501 21.1575 12.85 21.0576 12.85 20.9284H11.35ZM13.2 21.2499C13.0676 21.2499 12.9643 21.2498 12.8756 21.2476C12.7866 21.2454 12.7306 21.2414 12.6939 21.2366C12.6237 21.2274 12.7017 21.2251 12.7844 21.3057L11.7378 22.3802C11.9816 22.6177 12.2697 22.6939 12.4991 22.7239C12.7089 22.7514 12.9614 22.7499 13.2 22.7499V21.2499Z" fill="#141B34"/>
<path d="M16.5006 7L17.1192 6.57589C16.9793 6.37191 16.7479 6.24999 16.5006 6.25C16.2533 6.25001 16.0219 6.37194 15.882 6.57592L16.5006 7ZM12.6119 15.5714L12.0262 16.0399C12.1685 16.2178 12.384 16.3214 12.6119 16.3214V15.5714ZM20.3896 15.5714V16.3214C20.6174 16.3214 20.8329 16.2178 20.9752 16.0399L20.3896 15.5714ZM15.882 6.57592C15.5883 7.00435 15.0424 7.47075 14.3185 8.05831C13.6341 8.61385 12.8203 9.25642 12.1648 9.97774C11.5067 10.7019 10.9341 11.5828 10.8209 12.6461C10.7053 13.732 11.083 14.8607 12.0262 16.0399L13.1976 15.1029C12.4267 14.1393 12.2498 13.393 12.3125 12.8048C12.3775 12.194 12.7159 11.6016 13.2749 10.9865C13.8364 10.3686 14.5458 9.80579 15.2638 9.22294C15.9425 8.67211 16.6784 8.06708 17.1192 7.42408L15.882 6.57592ZM15.882 7.42411C16.3229 8.06709 17.0589 8.67212 17.7375 9.22295C18.4556 9.8058 19.165 10.3686 19.7266 10.9866C20.2855 11.6016 20.624 12.194 20.689 12.8048C20.7516 13.393 20.5747 14.1393 19.8039 15.1029L20.9752 16.0399C21.9185 14.8607 22.2962 13.732 22.1806 12.6461C22.0674 11.5828 21.4948 10.7019 20.8367 9.97773C20.1811 9.25641 19.3673 8.61385 18.6828 8.0583C17.9589 7.47074 17.4129 7.00434 17.1192 6.57589L15.882 7.42411ZM20.3896 14.8214H12.6119V16.3214H20.3896V14.8214Z" fill="#141B34"/>
</svg>
