<svg width="24" height="24" viewBox="0 0 24 24" fill="none" xmlns="http://www.w3.org/2000/svg">
<path d="M7.25457 20.0355L6.58375 19.7001V19.7001L7.25457 20.0355ZM3.96095 16.7419L3.62554 16.071L3.96095 16.7419ZM2.00693 18.2283L2.74724 18.3485L2.74724 18.3485L2.00693 18.2283ZM5.76809 21.9895L5.64796 21.2492H5.64796L5.76809 21.9895ZM2.90588 20.0428C2.61411 20.3368 2.61592 20.8116 2.90993 21.1034C3.20394 21.3952 3.67881 21.3934 3.97058 21.0994L2.90588 20.0428ZM5.6494 19.4077C5.94117 19.1137 5.93936 18.6388 5.64535 18.347C5.35135 18.0553 4.87648 18.0571 4.5847 18.3511L5.6494 19.4077ZM8.32562 16.2163L6.58375 19.7001L7.92539 20.3709L9.66726 16.8872L8.32562 16.2163ZM4.29636 17.4127L7.78009 15.6708L7.10927 14.3292L3.62554 16.071L4.29636 17.4127ZM3.62554 16.071C3.02587 16.3709 2.50015 16.6316 2.12247 16.8951C1.73033 17.1688 1.35901 17.5388 1.26661 18.1082L2.74724 18.3485C2.74803 18.3436 2.74819 18.3349 2.76875 18.3083C2.79601 18.2731 2.85517 18.213 2.98086 18.1252C3.24703 17.9395 3.65332 17.7342 4.29636 17.4127L3.62554 16.071ZM6.58375 19.7001C6.26223 20.3431 6.05693 20.7494 5.87119 21.0156C5.78348 21.1413 5.72335 21.2004 5.6881 21.2277C5.66151 21.2482 5.65283 21.2484 5.64796 21.2492L5.88823 22.7298C6.45764 22.6374 6.82766 22.2661 7.1013 21.874C7.36485 21.4963 7.62556 20.9706 7.92539 20.3709L6.58375 19.7001ZM3.97058 21.0994L5.6494 19.4077L4.5847 18.3511L2.90588 20.0428L3.97058 21.0994ZM1.26661 18.1082C1.21646 18.4172 1.28809 18.7153 1.37218 18.9467C1.46071 19.1903 1.59161 19.4367 1.7401 19.672C2.0377 20.1435 2.45051 20.6403 2.89206 21.0855C3.33346 21.5305 3.82875 21.9492 4.30346 22.2514C4.54046 22.4023 4.78983 22.5354 5.03813 22.625C5.2762 22.711 5.57668 22.7804 5.88823 22.7298L5.64796 21.2492C5.69233 21.242 5.66972 21.2583 5.54756 21.2142C5.43564 21.1738 5.28766 21.0998 5.109 20.9861C4.75238 20.759 4.34307 20.4183 3.95702 20.0291C3.57113 19.6401 3.23367 19.228 3.00858 18.8714C2.89573 18.6926 2.82219 18.5451 2.78198 18.4344C2.73733 18.3115 2.75592 18.295 2.74724 18.3485L1.26661 18.1082Z" fill="#141B34"/>
<path d="M19.1226 6.23711C18.746 6.61372 18.1354 6.61372 17.7588 6.23711L16.6981 7.29774C17.6605 8.26018 19.2209 8.26018 20.1833 7.29774L19.1226 6.23711ZM17.7588 6.23711C17.3822 5.86047 17.3822 5.24981 17.7588 4.87317L16.6981 3.81254C15.7358 4.77495 15.7358 6.33532 16.6981 7.29774L17.7588 6.23711ZM17.7588 4.87317C18.1354 4.49655 18.746 4.49655 19.1226 4.87317L20.1833 3.81254C19.2209 2.8501 17.6605 2.8501 16.6981 3.81254L17.7588 4.87317ZM19.1226 4.87317C19.4992 5.24981 19.4992 5.86047 19.1226 6.23711L20.1833 7.29774C21.1456 6.33532 21.1456 4.77495 20.1833 3.81254L19.1226 4.87317ZM10.2329 15.1272C9.85634 15.5038 9.24577 15.5038 8.86918 15.1272L7.80849 16.1878C8.77088 17.1503 10.3312 17.1503 11.2936 16.1878L10.2329 15.1272ZM8.86918 15.1272C8.49256 14.7506 8.49256 14.1399 8.86918 13.7633L7.80849 12.7026C6.84612 13.665 6.84612 15.2254 7.80849 16.1878L8.86918 15.1272ZM8.86918 13.7633C9.24577 13.3866 9.85634 13.3866 10.2329 13.7633L11.2936 12.7026C10.3312 11.7402 8.77088 11.7402 7.80849 12.7026L8.86918 13.7633ZM10.2329 13.7633C10.6096 14.1399 10.6096 14.7506 10.2329 15.1272L11.2936 16.1878C12.256 15.2254 12.256 13.665 11.2936 12.7026L10.2329 13.7633ZM17.7588 15.1272C17.3822 14.7506 17.3822 14.1399 17.7588 13.7633L16.6981 12.7026C15.7358 13.665 15.7358 15.2254 16.6981 16.1878L17.7588 15.1272ZM17.7588 13.7633C18.1354 13.3866 18.746 13.3866 19.1226 13.7633L20.1833 12.7026C19.2209 11.7402 17.6605 11.7402 16.6981 12.7026L17.7588 13.7633ZM19.1226 13.7633C19.4992 14.1399 19.4992 14.7506 19.1226 15.1272L20.1833 16.1878C21.1456 15.2254 21.1456 13.665 20.1833 12.7026L19.1226 13.7633ZM19.1226 15.1272C18.746 15.5038 18.1354 15.5038 17.7588 15.1272L16.6981 16.1878C17.6605 17.1503 19.2209 17.1503 20.1833 16.1878L19.1226 15.1272ZM8.86918 6.23711C8.49256 5.86047 8.49256 5.24981 8.86918 4.87317L7.80849 3.81254C6.84612 4.77495 6.84612 6.33532 7.80849 7.29774L8.86918 6.23711ZM8.86918 4.87317C9.24577 4.49655 9.85634 4.49655 10.2329 4.87317L11.2936 3.81254C10.3312 2.8501 8.77088 2.8501 7.80849 3.81254L8.86918 4.87317ZM10.2329 4.87317C10.6096 5.24981 10.6096 5.86047 10.2329 6.23711L11.2936 7.29774C12.256 6.33532 12.256 4.77495 11.2936 3.81254L10.2329 4.87317ZM10.2329 6.23711C9.85634 6.61372 9.24577 6.61372 8.86918 6.23711L7.80849 7.29774C8.77088 8.26018 10.3312 8.26018 11.2936 7.29774L10.2329 6.23711ZM20.2817 10.964C19.7492 10.964 19.3174 10.5323 19.3174 9.99958H17.8174C17.8174 11.3606 18.9207 12.464 20.2817 12.464V10.964ZM19.3174 9.99958C19.3174 9.4669 19.7492 9.03515 20.2817 9.03515V7.53515C18.9207 7.53515 17.8174 8.63855 17.8174 9.99958H19.3174ZM20.2817 9.03515C20.8143 9.03515 21.2461 9.4669 21.2461 9.99958H22.7461C22.7461 8.63855 21.6428 7.53515 20.2817 7.53515V9.03515ZM21.2461 9.99958C21.2461 10.5323 20.8143 10.964 20.2817 10.964V12.464C21.6428 12.464 22.7461 11.3606 22.7461 9.99958H21.2461ZM7.71044 10.9648C7.17788 10.9648 6.74609 10.533 6.74609 10.0004H5.24609C5.24609 11.3614 6.34938 12.4648 7.71044 12.4648V10.9648ZM6.74609 10.0004C6.74609 9.46769 7.17788 9.03594 7.71044 9.03594V7.53594C6.34938 7.53594 5.24609 8.63933 5.24609 10.0004H6.74609ZM7.71044 9.03594C8.243 9.03594 8.67478 9.46769 8.67478 10.0004H10.1748C10.1748 8.63934 9.07149 7.53594 7.71044 7.53594V9.03594ZM8.67478 10.0004C8.67478 10.533 8.243 10.9648 7.71044 10.9648V12.4648C9.07149 12.4648 10.1748 11.3614 10.1748 10.0004H8.67478ZM13.0314 16.2856C13.0314 15.7529 13.4631 15.3211 13.9957 15.3211L13.9957 13.8211C12.6346 13.8211 11.5314 14.9245 11.5314 16.2856H13.0314ZM13.9957 15.3211C14.5283 15.3211 14.96 15.7529 14.96 16.2856H16.46C16.46 14.9245 15.3568 13.8211 13.9957 13.8211L13.9957 15.3211ZM14.96 16.2856C14.96 16.8182 14.5283 17.25 13.9957 17.25L13.9957 18.75C15.3568 18.75 16.46 17.6466 16.46 16.2856H14.96ZM13.9957 17.25C13.4631 17.25 13.0314 16.8182 13.0314 16.2856H11.5314C11.5314 17.6466 12.6346 18.75 13.9957 18.75L13.9957 17.25ZM13.0314 3.71443C13.0314 3.18175 13.4631 2.75 13.9957 2.75L13.9957 1.25C12.6346 1.25 11.5314 2.3534 11.5314 3.71443L13.0314 3.71443ZM13.9957 2.75C14.5283 2.75 14.96 3.18176 14.96 3.71443L16.46 3.71443C16.46 2.3534 15.3568 1.25 13.9957 1.25L13.9957 2.75ZM14.96 3.71443C14.96 4.2471 14.5283 4.67886 13.9957 4.67886L13.9957 6.17886C15.3568 6.17886 16.46 5.07546 16.46 3.71443L14.96 3.71443ZM13.9957 4.67886C13.4631 4.67886 13.0314 4.2471 13.0314 3.71443L11.5314 3.71443C11.5314 5.07546 12.6346 6.17886 13.9957 6.17886L13.9957 4.67886Z" fill="#141B34"/>
</svg>
