<svg width="24" height="24" viewBox="0 0 24 24" fill="none" xmlns="http://www.w3.org/2000/svg">
<path opacity="0.4" d="M1.125 15.125C1.125 10.8448 4.59479 7.375 8.875 7.375C13.1552 7.375 16.625 10.8448 16.625 15.125C16.625 19.4052 13.1552 22.875 8.875 22.875C4.59479 22.875 1.125 19.4052 1.125 15.125Z" fill="#141B34"/>
<path d="M8.9501 4.62504C9.30413 4.62476 9.61335 4.62452 9.90548 4.68252L8.9501 4.62504Z" fill="#141B34"/>
<path d="M7.84513 4.68252C8.13725 4.62452 8.44647 4.62476 8.80051 4.62504H8.9501C9.30413 4.62476 9.61335 4.62452 9.90548 4.68252C10.699 4.84008 11.3953 5.31149 11.8364 5.98979C11.9987 6.23947 12.1133 6.52667 12.2445 6.85549L12.8038 8.25369C12.8335 8.32793 12.8536 8.40363 12.8649 8.47942C12.1034 8.02131 11.2568 7.69037 10.3544 7.51598C10.2301 7.20818 10.1951 7.13454 10.1596 7.07998C10.0126 6.85388 9.78051 6.69674 9.51598 6.64422C9.44277 6.62969 9.34647 6.62508 8.8753 6.62508C8.40414 6.62508 8.30784 6.62969 8.23462 6.64422C7.9701 6.69674 7.738 6.85388 7.591 7.07998C7.55553 7.13453 7.52055 7.20817 7.39624 7.51597C6.49381 7.69036 5.64719 8.02129 4.88574 8.47939C4.89696 8.40361 4.91713 8.32792 4.94683 8.25369L5.50607 6.85548C5.63729 6.52667 5.75191 6.23947 5.91425 5.98979C6.35527 5.31149 7.05156 4.84008 7.84513 4.68252Z" fill="#141B34"/>
<path opacity="0.4" fill-rule="evenodd" clip-rule="evenodd" d="M22.5821 3.91789C22.9726 4.30842 22.9726 4.94158 22.5821 5.33211L21.7892 6.125L22.5821 6.91789C22.9726 7.30842 22.9726 7.94158 22.5821 8.33211C22.1916 8.72263 21.5584 8.72263 21.1679 8.33211L20.375 7.53921L19.5821 8.33211C19.1916 8.72263 18.5584 8.72263 18.1679 8.33211C17.7774 7.94158 17.7774 7.30842 18.1679 6.91789L18.9608 6.125L18.1679 5.33211C17.7774 4.94158 17.7774 4.30842 18.1679 3.91789C18.5584 3.52737 19.1916 3.52737 19.5821 3.91789L20.375 4.71079L21.1679 3.91789C21.5584 3.52737 22.1916 3.52737 22.5821 3.91789Z" fill="#141B34"/>
<path fill-rule="evenodd" clip-rule="evenodd" d="M10.1867 3.3731C9.9372 3.7076 9.80463 4.34684 9.91137 4.95122C10.0074 5.49509 9.64438 6.01385 9.10051 6.10989C8.55664 6.20594 8.03789 5.84291 7.94184 5.29904C7.76736 4.311 7.91868 3.06877 8.58342 2.17744C8.93313 1.70852 9.43857 1.3249 10.1019 1.18295C10.7561 1.04295 11.4519 1.16175 12.1522 1.48383C13.4957 2.10169 14.1863 3.06184 14.6916 3.76442C14.737 3.82749 14.7809 3.88849 14.8236 3.94697C15.0932 4.31614 15.2974 4.5651 15.5325 4.74747C15.7449 4.9122 16.0132 5.04492 16.4371 5.09916C16.9849 5.16928 17.3721 5.6702 17.302 6.21802C17.2319 6.76584 16.731 7.15309 16.1832 7.08298C15.4102 6.98406 14.8053 6.7145 14.3067 6.32782C13.8309 5.95877 13.4865 5.50717 13.2085 5.1266C13.1686 5.07196 13.1295 5.01815 13.0911 4.96517C12.5737 4.25273 12.1664 3.6917 11.3166 3.30088C10.8969 3.10787 10.6465 3.11168 10.5204 3.13867C10.4033 3.16373 10.294 3.22911 10.1867 3.3731Z" fill="#141B34"/>
</svg>
