<svg width="24" height="24" viewBox="0 0 24 24" fill="none" xmlns="http://www.w3.org/2000/svg">
<path opacity="0.4" fill-rule="evenodd" clip-rule="evenodd" d="M12 3C7.02944 3 3 7.02944 3 12C3 16.9706 7.02944 21 12 21C16.9706 21 21 16.9706 21 12C21 7.02944 16.9706 3 12 3Z" fill="#141B34"/>
<path fill-rule="evenodd" clip-rule="evenodd" d="M12 3C7.02944 3 3 7.02944 3 12C3 16.9706 7.02944 21 12 21C16.9706 21 21 16.9706 21 12C21 7.02944 16.9706 3 12 3ZM1 12C1 5.92487 5.92487 1 12 1C18.0751 1 23 5.92487 23 12C23 18.0751 18.0751 23 12 23C5.92487 23 1 18.0751 1 12Z" fill="#141B34"/>
<path fill-rule="evenodd" clip-rule="evenodd" d="M8.49138 3.06727L8.93728 2.43114L8.72234 1.75904C9.75662 1.42827 10.8582 1.25 12 1.25C13.1449 1.25 14.2494 1.42924 15.2861 1.76175C15.5569 1.8486 15.7553 2.08113 15.7984 2.36223C15.8415 2.64332 15.7219 2.92461 15.4896 3.08862L12.9896 4.85354C12.9966 4.90135 13.0002 4.95025 13.0002 5V8.63077L14.8124 10.0024L18.2655 8.70751L19.3897 5.84367C19.4897 5.58881 19.7207 5.40872 19.9922 5.37382C20.2638 5.33893 20.5328 5.45478 20.694 5.67607C21.9368 7.38197 22.6902 9.46865 22.7466 11.7268C22.7537 12.0131 22.5972 12.2785 22.3432 12.4107C22.0892 12.543 21.7821 12.5191 21.5516 12.3491L19.0911 10.5339L15.7147 11.8001C15.7051 11.844 15.6936 11.8876 15.6801 11.9309L14.8744 14.5143C14.8814 14.5269 14.8881 14.5398 14.8947 14.5528L16.3845 17.5324L19.4434 18.0861C19.7134 18.1349 19.9353 18.3274 20.0217 18.588C20.1081 18.8485 20.0452 19.1354 19.8579 19.336C18.4507 20.8427 16.6139 21.9453 14.5409 22.4478C14.2737 22.5125 13.9925 22.4259 13.8081 22.2221C13.6236 22.0182 13.5655 21.7297 13.6566 21.4703L14.6764 18.567C14.6505 18.5293 14.6269 18.4893 14.6058 18.4472L13.2572 15.75H10.6076C10.5039 15.75 10.4029 15.7394 10.3055 15.7192L8.79716 17.6046L8.76216 21.1806C8.7597 21.4321 8.63129 21.6657 8.42021 21.8025C8.20913 21.9394 7.9435 21.9613 7.71284 21.8609C5.66039 20.9674 3.94219 19.4528 2.79451 17.5546C2.65448 17.323 2.6501 17.0339 2.78305 16.7981C2.91601 16.5624 3.16567 16.4165 3.43633 16.4165H7.18806C7.19809 16.4026 7.20852 16.3889 7.21937 16.3753L9.00829 14.1392L8.46492 12.3969L4.98553 11.5271L2.47538 13.3811C2.25599 13.5431 1.96592 13.5733 1.71788 13.4598C1.46983 13.3464 1.30293 13.1072 1.28201 12.8353C1.26079 12.5595 1.25 12.2809 1.25 12C1.25 9.88885 1.85933 7.91772 2.912 6.25557C3.06047 6.02114 3.32625 5.88785 3.60293 5.90905C3.87961 5.93025 4.12197 6.10249 4.23298 6.35681L5.66407 9.63518L8.69487 10.3929C8.74326 10.3445 8.79544 10.299 8.85132 10.2567L11.0002 8.63017V5C11.0002 4.94393 11.0049 4.88893 11.0137 4.83537L8.49138 3.06727Z" fill="#141B34"/>
</svg>
