<svg width="24" height="24" viewBox="0 0 24 24" fill="none" xmlns="http://www.w3.org/2000/svg">
<path opacity="0.4" d="M20.8367 3.16197C18.9932 1.32116 16.2691 0.98022 13.7345 1.4277C11.1902 1.87689 8.65544 3.14511 7.01597 4.78247C6.08084 5.71641 5.59026 6.89207 5.45927 8.12668C5.43537 8.35195 5.51457 8.57595 5.67475 8.73614L15.245 18.3064C15.4048 18.4662 15.628 18.5454 15.8528 18.5221C17.0933 18.3933 18.2752 17.9033 19.2139 16.966C20.8537 15.3285 22.1229 12.796 22.5724 10.2545C23.0201 7.72265 22.6787 5.00139 20.8367 3.16197Z" fill="#141B34"/>
<path fill-rule="evenodd" clip-rule="evenodd" d="M13.6913 1.18133C16.2674 0.726525 19.0893 1.06333 21.0136 2.98489C22.9367 4.9052 23.2739 7.72447 22.8188 10.2979C22.3615 12.8841 21.0709 15.465 19.3908 17.1427C17.2291 19.3014 13.9637 19.151 11.3897 17.8749C11.1744 17.7682 10.7904 17.4937 10.5297 17.5549C10.0328 17.6717 9.37046 18.2023 8.60442 19.1462C7.87585 20.044 7.20802 21.1148 6.6378 22.0194C6.37061 22.4432 5.99279 22.7495 5.53235 22.899C5.0884 23.0431 4.64383 23.0174 4.25841 22.9213C3.50787 22.7343 2.80453 22.24 2.27407 21.7002C1.74236 21.1591 1.26408 20.45 1.08001 19.7065C0.985972 19.3267 0.957023 18.8875 1.09195 18.4487C1.2329 17.9904 1.53061 17.6077 1.95587 17.3404C2.8619 16.7709 3.93443 16.1041 4.83371 15.3766C5.77956 14.6114 6.3104 13.9504 6.42706 13.4555C6.48808 13.1966 6.21307 12.813 6.10697 12.5995C4.82904 10.0287 4.67726 6.76499 6.83962 4.6054C8.51928 2.92789 11.1024 1.6384 13.6913 1.18133ZM14.039 3.15087C11.8074 3.54485 9.61102 4.66417 8.25293 6.02052C6.70552 7.56595 7.04213 10.0042 7.93719 11.7878C8.27042 12.4519 8.5518 13.1588 8.37371 13.9144C8.08898 15.1222 7.05561 16.1516 6.0916 16.9315C5.13328 17.7067 4.01993 18.4058 3.15874 18.9466C3.02231 19.0323 2.97945 19.0564 3.0214 19.2259C3.09238 19.5126 3.32715 19.9184 3.70057 20.2984C4.07525 20.6797 4.46916 20.9127 4.74208 20.9807C4.92679 21.0267 4.93788 20.9656 5.03137 20.8172C5.5732 19.9568 6.2741 18.8438 7.05147 17.8859C7.83291 16.9231 8.86363 15.892 10.0721 15.608C10.8277 15.4304 11.5349 15.7112 12.1994 16.0438C13.9864 16.9381 16.4285 17.2744 17.9776 15.7275C19.3356 14.3715 20.4554 12.1778 20.8494 9.94958C21.2457 7.70848 20.8754 5.67327 19.6004 4.40011C18.323 3.12451 16.2835 2.75461 14.039 3.15087Z" fill="#141B34"/>
</svg>
