<svg width="24" height="24" viewBox="0 0 24 24" fill="none" xmlns="http://www.w3.org/2000/svg">
<path d="M14 2H10C6.72077 2 5.08116 2 3.91891 2.81382C3.48891 3.1149 3.1149 3.48891 2.81382 3.91891C2 5.08116 2 6.72077 2 10C2 13.2792 2 14.9188 2.81382 16.0811C3.1149 16.5111 3.48891 16.8851 3.91891 17.1862C5.08116 18 6.72077 18 10 18H14C17.2792 18 18.9188 18 20.0811 17.1862C20.5111 16.8851 20.8851 16.5111 21.1862 16.0811C22 14.9188 22 13.2792 22 10" stroke="#141B34" stroke-width="1.5" stroke-linecap="round"/>
<path d="M14.6557 22L14.2369 21.5811C13.2926 20.6369 13.0585 19.1944 13.6557 18" stroke="#141B34" stroke-width="1.5" stroke-linecap="round"/>
<path d="M9.00051 22L9.41937 21.5811C10.3636 20.6369 10.5977 19.1944 10.0005 18" stroke="#141B34" stroke-width="1.5" stroke-linecap="round"/>
<path d="M7 22H17" stroke="#141B34" stroke-width="1.5" stroke-linecap="round"/>
<path opacity="0.4" d="M14.5062 9.9845L14.5258 9.23476L14.5258 9.23476L14.5062 9.9845ZM14.0144 9.42647L14.7622 9.48472V9.48472L14.0144 9.42647ZM15.1158 6.7778L14.5646 6.26912L15.1158 6.7778ZM14.0252 9.28786L13.2775 9.22961V9.22961L14.0252 9.28786ZM17.5003 8.86172L18.0205 9.4019L17.5003 8.86172ZM14.6181 9.98743L14.5985 10.7372H14.5985L14.6181 9.98743ZM21.8464 3.35237L22.5085 3.00011L21.8464 3.35237ZM21.2617 5.2388L21.782 5.77899L21.2617 5.2388ZM21.8281 4.62028L21.1765 4.24892L21.8281 4.62028ZM20.6761 2.15693L21.0402 1.50121L20.6761 2.15693ZM18.8295 2.75418L18.2784 2.2455L18.8295 2.75418ZM19.435 2.17557L19.8183 2.82018L19.435 2.17557ZM8 9.25C7.58579 9.25 7.25 9.58579 7.25 10C7.25 10.4142 7.58579 10.75 8 10.75V9.25ZM15 10.75C15.4142 10.75 15.75 10.4142 15.75 10C15.75 9.58579 15.4142 9.25 15 9.25V10.75ZM20.7414 4.69862L16.98 8.32153L18.0205 9.4019L21.782 5.77899L20.7414 4.69862ZM15.6669 7.28648L19.3806 3.26286L18.2784 2.2455L14.5646 6.26912L15.6669 7.28648ZM14.6378 9.23769L14.5258 9.23476L14.4865 10.7342L14.5985 10.7372L14.6378 9.23769ZM14.7622 9.48472L14.773 9.34612L13.2775 9.22961L13.2667 9.36822L14.7622 9.48472ZM14.5258 9.23476C14.4602 9.23305 14.4161 9.23184 14.3798 9.22994C14.343 9.22801 14.3338 9.22623 14.3386 9.22702C14.3438 9.2279 14.384 9.23468 14.439 9.26022C14.5005 9.28878 14.565 9.3336 14.6201 9.39618L13.4947 10.3879C13.6905 10.6101 13.9328 10.6801 14.0917 10.7066C14.2273 10.7292 14.3835 10.7316 14.4865 10.7342L14.5258 9.23476ZM13.2667 9.36821C13.2584 9.47458 13.2447 9.62957 13.2523 9.76571C13.261 9.9219 13.3011 10.1682 13.4947 10.3879L14.6201 9.39618C14.6751 9.45857 14.7103 9.52672 14.7302 9.58763C14.7479 9.64199 14.7499 9.67959 14.75 9.68224C14.7501 9.68461 14.7495 9.67302 14.7515 9.63475C14.7535 9.59693 14.757 9.55131 14.7622 9.48472L13.2667 9.36821ZM14.5646 6.26912C14.1147 6.75656 13.7641 7.12225 13.5616 7.58842L14.9374 8.18615C15.0154 8.00651 15.1488 7.84782 15.6669 7.28648L14.5646 6.26912ZM14.773 9.34612C14.8329 8.57726 14.8588 8.36708 14.9374 8.18615L13.5616 7.58842C13.3596 8.05331 13.3295 8.56157 13.2775 9.22961L14.773 9.34612ZM16.98 8.32153C16.3361 8.9417 16.1566 9.0959 15.9544 9.17489L16.5001 10.5721C17.0466 10.3586 17.4662 9.9358 18.0205 9.4019L16.98 8.32153ZM14.5985 10.7372C15.3598 10.7571 15.9519 10.7862 16.5001 10.5721L15.9544 9.17489C15.7538 9.25323 15.5228 9.26083 14.6378 9.23769L14.5985 10.7372ZM20.7621 3.24175C21.1064 3.5935 21.1602 3.65946 21.1843 3.70463L22.5085 3.00011C22.3575 2.71631 22.1041 2.46842 21.834 2.19245L20.7621 3.24175ZM21.782 5.77899C22.0599 5.51132 22.3205 5.27098 22.4797 4.99164L21.1765 4.24892C21.1513 4.29314 21.0958 4.3573 20.7414 4.69862L21.782 5.77899ZM21.1843 3.70463C21.2747 3.8746 21.2716 4.08215 21.1765 4.24892L22.4797 4.99164C22.8296 4.37769 22.8404 3.6239 22.5085 3.00011L21.1843 3.70463ZM21.834 2.19245C21.5648 1.91754 21.3209 1.65708 21.0402 1.50121L20.3121 2.81265C20.3534 2.83556 20.4167 2.88896 20.7621 3.24175L21.834 2.19245ZM19.3806 3.26286C19.7156 2.89992 19.7775 2.84445 19.8183 2.82018L19.0516 1.53096C18.7756 1.69507 18.5395 1.96255 18.2784 2.2455L19.3806 3.26286ZM21.0402 1.50121C20.4182 1.15587 19.663 1.16734 19.0516 1.53096L19.8183 2.82018C19.9712 2.72926 20.1571 2.72661 20.3121 2.81265L21.0402 1.50121ZM8 10.75H15V9.25H8V10.75Z" fill="#141B34"/>
</svg>
