<svg width="24" height="24" viewBox="0 0 24 24" fill="none" xmlns="http://www.w3.org/2000/svg">
<path d="M9 6C9.5 6.5 10.5033 6.41228 12 5.17632M12 5.17632C11.7786 4.99352 11.5486 4.78582 11.311 4.55032C9.0053 2.2656 5.86519 2.71292 4.39399 4.55032C3.37784 5.8194 0.777521 8.97857 7.14215 20.2396C7.40566 20.7058 7.9306 21 8.49601 21C9.398 21 10.103 20.2801 10.1323 19.4399C10.1945 17.6579 10.5397 15.6035 12 15.6035C13.4603 15.6035 13.8055 17.6579 13.8677 19.4399C13.897 20.2801 14.602 21 15.504 21C16.0694 21 16.5943 20.7058 16.8578 20.2396C23.2225 8.97857 20.6222 5.8194 19.606 4.55032C18.1348 2.71292 14.9947 2.2656 12.689 4.55032C12.4514 4.78582 12.2214 4.99352 12 5.17632Z" stroke="#141B34" stroke-width="1.5" stroke-linecap="round" stroke-linejoin="round"/>
<path opacity="0.4" d="M10.387 9.38704L9.85671 8.85671L10.387 9.38704ZM10 11.75C10.4142 11.75 10.75 11.4142 10.75 11C10.75 10.5858 10.4142 10.25 10 10.25V11.75ZM4 10.25C3.58579 10.25 3.25 10.5858 3.25 11C3.25 11.4142 3.58579 11.75 4 11.75V10.25ZM20 11.75C20.4142 11.75 20.75 11.4142 20.75 11C20.75 10.5858 20.4142 10.25 20 10.25V11.75ZM14 10.25C13.5858 10.25 13.25 10.5858 13.25 11C13.25 11.4142 13.5858 11.75 14 11.75V10.25ZM10.9174 12.0826C10.9448 12.11 10.8856 12.0528 10.8284 11.7989C10.7786 11.5779 10.75 11.2961 10.75 11C10.75 10.7039 10.7786 10.4221 10.8284 10.2011C10.8856 9.94715 10.9448 9.88996 10.9174 9.91737L9.85671 8.85671C9.57127 9.14215 9.4369 9.5527 9.3651 9.87138C9.28588 10.223 9.25 10.6186 9.25 11C9.25 11.3814 9.28588 11.777 9.3651 12.1286C9.4369 12.4473 9.57127 12.8579 9.85671 13.1433L10.9174 12.0826ZM13.0826 9.91737C13.0552 9.88996 13.1144 9.94715 13.1716 10.2011C13.2214 10.4221 13.25 10.7039 13.25 11C13.25 11.2961 13.2214 11.5779 13.1716 11.7989C13.1144 12.0528 13.0552 12.11 13.0826 12.0826L14.1433 13.1433C14.4287 12.8579 14.5631 12.4473 14.6349 12.1286C14.7141 11.777 14.75 11.3814 14.75 11C14.75 10.6186 14.7141 10.223 14.6349 9.87138C14.5631 9.5527 14.4287 9.14215 14.1433 8.85671L13.0826 9.91737ZM14.1433 8.85671C13.8579 8.57127 13.4473 8.4369 13.1286 8.3651C12.777 8.28588 12.3814 8.25 12 8.25C11.6186 8.25 11.223 8.28588 10.8714 8.3651C10.5527 8.4369 10.1421 8.57127 9.85671 8.85671L10.9174 9.91737C10.89 9.94478 10.9472 9.88563 11.2011 9.82842C11.4221 9.77863 11.7039 9.75 12 9.75C12.2961 9.75 12.5779 9.77863 12.7989 9.82842C13.0528 9.88563 13.11 9.94478 13.0826 9.91737L14.1433 8.85671ZM13.0826 12.0826C13.11 12.0552 13.0528 12.1144 12.7989 12.1716C12.5779 12.2214 12.2961 12.25 12 12.25C11.7039 12.25 11.4221 12.2214 11.2011 12.1716C10.9472 12.1144 10.89 12.0552 10.9174 12.0826L9.85671 13.1433C10.1421 13.4287 10.5527 13.5631 10.8714 13.6349C11.223 13.7141 11.6186 13.75 12 13.75C12.3814 13.75 12.777 13.7141 13.1286 13.6349C13.4473 13.5631 13.8579 13.4287 14.1433 13.1433L13.0826 12.0826ZM10 10.25H4V11.75H10V10.25ZM20 10.25H14V11.75H20V10.25Z" fill="#141B34"/>
</svg>
