<svg width="24" height="24" viewBox="0 0 24 24" fill="none" xmlns="http://www.w3.org/2000/svg">
<path d="M7.03345 13.6528L9 15.3722V6.50065C9 5.67186 9.67186 5 10.5006 5C11.3289 5 12.0006 5.67107 12.0013 6.49935L12.0045 11.263L14.6409 11.6903C16.3426 11.9492 17.1935 12.0786 17.7928 12.4427C18.7828 13.0441 19.5 14 19.5 15.2657C19.5 16.1841 19.2762 16.8002 18.732 18.4556C18.3867 19.5059 18.2141 20.0311 17.9326 20.4469C17.4691 21.1313 16.7853 21.6311 15.9984 21.8605C15.5204 21.9999 14.9745 21.9999 13.8826 21.9999H12.9571C11.5054 21.9999 10.7796 21.9999 10.1335 21.7298C10.0176 21.6814 9.90436 21.6267 9.79422 21.566C9.18004 21.2278 8.72235 20.6566 7.80698 19.5142L4.8436 15.8158C4.38822 15.2474 4.38518 14.4341 4.8363 13.8622C5.37851 13.175 6.37444 13.08 7.03345 13.6528Z" stroke="#141B34" stroke-width="1.5" stroke-linecap="round" stroke-linejoin="round"/>
<path opacity="0.4" d="M18.6716 7L19.1585 7.57045L18.6716 7ZM17.0131 7.42955C16.698 7.69846 16.6606 8.17186 16.9295 8.48691C17.1985 8.80196 17.6719 8.83937 17.9869 8.57045L17.0131 7.42955ZM17.9869 3.42955C17.6719 3.16063 17.1985 3.19804 16.9295 3.51309C16.6606 3.82814 16.698 4.30154 17.0131 4.57045L17.9869 3.42955ZM18.6716 5L19.1585 4.42955L19.1585 4.42955L18.6716 5ZM12.0741 8.8442C11.7119 9.04518 11.5812 9.50171 11.7822 9.8639C11.9832 10.2261 12.4397 10.3568 12.8019 10.1558L12.0741 8.8442ZM8.19809 10.1558C8.56028 10.3568 9.01682 10.2261 9.2178 9.8639C9.41878 9.50171 9.28809 9.04518 8.9259 8.8442L8.19809 10.1558ZM19.5 5.25H14.5V6.75H19.5V5.25ZM18.1847 6.42955L17.0131 7.42955L17.9869 8.57045L19.1585 7.57045L18.1847 6.42955ZM17.0131 4.57045L18.1847 5.57045L19.1585 4.42955L17.9869 3.42955L17.0131 4.57045ZM19.1585 7.57045C19.4178 7.3491 19.6721 7.13421 19.8521 6.93289C20.0416 6.72088 20.25 6.41551 20.25 6H18.75C18.75 5.87739 18.8204 5.83631 18.7337 5.93323C18.6375 6.04083 18.4776 6.1795 18.1847 6.42955L19.1585 7.57045ZM18.1847 5.57045C18.4776 5.8205 18.6375 5.95917 18.7337 6.06677C18.8204 6.16369 18.75 6.12261 18.75 6H20.25C20.25 5.58449 20.0416 5.27912 19.8521 5.06711C19.6721 4.86579 19.4178 4.6509 19.1585 4.42955L18.1847 5.57045ZM7.25 6C7.25 4.20507 8.70507 2.75 10.5 2.75V1.25C7.87665 1.25 5.75 3.37665 5.75 6H7.25ZM10.5 2.75C12.2949 2.75 13.75 4.20507 13.75 6H15.25C15.25 3.37665 13.1234 1.25 10.5 1.25V2.75ZM13.75 6C13.75 7.22264 13.0752 8.2887 12.0741 8.8442L12.8019 10.1558C14.2602 9.34657 15.25 7.78939 15.25 6H13.75ZM8.9259 8.8442C7.92482 8.2887 7.25 7.22264 7.25 6H5.75C5.75 7.78939 6.73975 9.34657 8.19809 10.1558L8.9259 8.8442Z" fill="#141B34"/>
</svg>
