<svg width="24" height="24" viewBox="0 0 24 24" fill="none" xmlns="http://www.w3.org/2000/svg">
<path d="M13.2687 12.4971C14.6095 11.6746 15.7798 12.0061 16.4828 12.534C16.7711 12.7505 16.9152 12.8587 17 12.8587C17.0848 12.8587 17.2289 12.7505 17.5172 12.534C18.2202 12.0061 19.3905 11.6746 20.7313 12.4971C22.491 13.5765 22.8891 17.1374 18.8302 20.1417C18.0571 20.7139 17.6706 21 17 21C16.3294 21 15.9429 20.7139 15.1698 20.1417C11.1109 17.1374 11.509 13.5765 13.2687 12.4971Z" stroke="#141B34" stroke-width="1.5" stroke-linecap="round"/>
<path d="M15.5 7.5C15.5 6.67157 16.1716 6 17 6C17.8284 6 18.5 6.67157 18.5 7.5C18.5 8.64806 17 8.65873 17 9.5V12.5" stroke="#141B34" stroke-width="1.5" stroke-linecap="round"/>
<path opacity="0.4" d="M6.41636 9.53401L6.87103 8.93754L6.87103 8.93754L6.41636 9.53401ZM3.24991 9.49708L3.64632 10.1338L3.24991 9.49708ZM5.12277 17.1417L5.57327 16.5421H5.57326L5.12277 17.1417ZM7.43537 9.53401L7.89004 10.1305V10.1305L7.43537 9.53401ZM10.6018 9.49708L10.9982 8.8604L10.9982 8.8604L10.6018 9.49708ZM8.72896 17.1417L9.17946 17.7413H9.17946L8.72896 17.1417ZM10.8318 10.8407C11.02 11.2097 11.4717 11.3563 11.8407 11.1682C12.2097 10.98 12.3563 10.5283 12.1682 10.1593L10.8318 10.8407ZM9.8829 17.1713C10.1945 16.8985 10.2259 16.4246 9.95303 16.113C9.68014 15.8014 9.20631 15.77 8.89469 16.0429L9.8829 17.1713ZM4.75 4.5C4.75 4.91421 5.08579 5.25 5.5 5.25C5.91421 5.25 6.25 4.91421 6.25 4.5H4.75ZM6.25 9.5C6.25 9.91421 6.58579 10.25 7 10.25C7.41421 10.25 7.75 9.91421 7.75 9.5H6.25ZM6.87103 8.93754C5.96823 8.24935 4.47692 7.8496 2.85349 8.8604L3.64632 10.1338C4.66478 9.49963 5.4793 9.76276 5.96168 10.1305L6.87103 8.93754ZM2.85349 8.8604C1.68583 9.58742 1.07807 11.0678 1.29318 12.6958C1.51053 14.3407 2.55173 16.1481 4.67227 17.7413L5.57326 16.5421C3.69508 15.131 2.93306 13.6558 2.78026 12.4993C2.62522 11.3259 3.08039 10.4861 3.64632 10.1338L2.85349 8.8604ZM7.89004 10.1305C8.37242 9.76276 9.18694 9.49963 10.2054 10.1338L10.9982 8.8604C9.3748 7.8496 7.8835 8.24935 6.98069 8.93754L7.89004 10.1305ZM4.67227 17.7413C5.39663 18.2855 5.97482 18.75 6.92586 18.75V17.25C6.5556 17.25 6.37216 17.1423 5.57327 16.5421L4.67227 17.7413ZM8.27846 16.5421C7.47957 17.1423 7.29612 17.25 6.92586 17.25V18.75C7.8769 18.75 8.45509 18.2855 9.17946 17.7413L8.27846 16.5421ZM5.96168 10.1305C6.09475 10.2319 6.22448 10.3313 6.33117 10.4022C6.38575 10.4385 6.45735 10.483 6.53826 10.5201C6.61333 10.5546 6.75127 10.6087 6.92586 10.6087V9.10871C6.99576 9.10871 7.05166 9.11992 7.08852 9.12995C7.12525 9.13994 7.15112 9.15098 7.16363 9.15671C7.18555 9.16676 7.18823 9.17073 7.16138 9.15289C7.13715 9.13679 7.10258 9.11219 7.05172 9.07435C7.0014 9.03691 6.94307 8.99246 6.87103 8.93754L5.96168 10.1305ZM6.98069 8.93754C6.90865 8.99246 6.85032 9.03691 6.8 9.07435C6.74915 9.11219 6.71458 9.13679 6.69035 9.15289C6.6635 9.17073 6.66618 9.16676 6.6881 9.15671C6.7006 9.15098 6.72648 9.13994 6.7632 9.12995C6.80006 9.11992 6.85596 9.10871 6.92586 9.10871V10.6087C7.10046 10.6087 7.23839 10.5546 7.31347 10.5201C7.39438 10.483 7.46597 10.4385 7.52056 10.4022C7.62724 10.3313 7.75698 10.2319 7.89004 10.1305L6.98069 8.93754ZM10.2054 10.1338C10.45 10.286 10.6699 10.523 10.8318 10.8407L12.1682 10.1593C11.8937 9.62108 11.495 9.16968 10.9982 8.8604L10.2054 10.1338ZM8.89469 16.0429C8.70404 16.2098 8.49888 16.3764 8.27846 16.5421L9.17946 17.7413C9.42882 17.554 9.66314 17.3638 9.8829 17.1713L8.89469 16.0429ZM6.25 4.5C6.25 4.08579 6.58579 3.75 7 3.75V2.25C5.75736 2.25 4.75 3.25736 4.75 4.5H6.25ZM7 3.75C7.41421 3.75 7.75 4.08579 7.75 4.5H9.25C9.25 3.25736 8.24264 2.25 7 2.25V3.75ZM6.25 6.5V9.5H7.75V6.5H6.25ZM7.75 4.5C7.75 4.6516 7.70311 4.74361 7.33244 4.99204C7.18522 5.09071 6.91466 5.25808 6.71054 5.45729C6.47515 5.68702 6.25 6.0272 6.25 6.5H7.75C7.75 6.55216 7.71235 6.57554 7.75821 6.53078C7.83534 6.45551 7.93978 6.39072 8.16756 6.23806C8.54689 5.98382 9.25 5.49647 9.25 4.5H7.75Z" fill="#141B34"/>
</svg>
