<svg width="24" height="24" viewBox="0 0 24 24" fill="none" xmlns="http://www.w3.org/2000/svg">
<path d="M15 15L10.7506 19.068C9.25288 20.5543 8.504 21.2975 7.56806 21.6741C6.63212 22.0508 5.6032 22.0231 3.54536 21.9676L3.26538 21.9601C2.63891 21.9432 2.32567 21.9348 2.14359 21.7219C1.9615 21.509 1.98636 21.1802 2.03608 20.5227L2.06308 20.1657C2.20301 18.3151 2.27297 17.3898 2.62371 16.5581C2.97444 15.7263 3.57944 15.051 4.78943 13.7003L9 9" stroke="#141B34" stroke-width="1.5" stroke-linecap="round" stroke-linejoin="round"/>
<path opacity="0.4" d="M20.245 3.79276L20.781 3.26811L20.781 3.26811L20.245 3.79276ZM21.6159 5.38093L22.2781 5.02866V5.02866L21.6159 5.38093ZM20.1543 10.097L20.6577 10.653C20.6634 10.6478 20.669 10.6426 20.6746 10.6372L20.1543 10.097ZM21.5703 8.5507L22.2219 8.92206H22.2219L21.5703 8.5507ZM18.6904 2.39232L18.3263 3.04804L18.6904 2.39232ZM14.0737 3.88545L13.5226 3.37677L13.5226 3.37677L14.0737 3.88545ZM15.5874 2.43893L15.204 1.79431V1.79431L15.5874 2.43893ZM10.9489 6.16525C10.6679 6.46963 10.6869 6.94413 10.9913 7.22506C11.2957 7.506 11.7702 7.48699 12.0511 7.18261L10.9489 6.16525ZM16.9966 11.944C16.6896 12.222 16.666 12.6963 16.944 13.0034C17.222 13.3104 17.6963 13.334 18.0034 13.056L16.9966 11.944ZM19.7091 4.31741C20.5143 5.13993 20.7985 5.4413 20.9538 5.73319L22.2781 5.02866C21.9958 4.49815 21.512 4.01485 20.781 3.26811L19.7091 4.31741ZM20.6746 10.6372C21.4267 9.91278 21.9244 9.44408 22.2219 8.92206L20.9187 8.17934C20.7552 8.46624 20.4626 8.75877 19.634 9.55682L20.6746 10.6372ZM20.9538 5.73319C21.361 6.49847 21.3475 7.42702 20.9187 8.17934L22.2219 8.92206C22.9056 7.72256 22.9267 6.24777 22.2781 5.02866L20.9538 5.73319ZM20.781 3.26811C20.051 2.52242 19.5767 2.02656 19.0544 1.7366L18.3263 3.04804C18.6091 3.20504 18.9029 3.49384 19.7091 4.31741L20.781 3.26811ZM14.6248 4.39413C15.4069 3.54677 15.6924 3.24908 15.9708 3.08354L15.204 1.79431C14.6905 2.09971 14.2308 2.6094 13.5226 3.37677L14.6248 4.39413ZM19.0544 1.7366C17.8496 1.06772 16.3886 1.0898 15.204 1.79431L15.9708 3.08354C16.6969 2.65172 17.5886 2.63846 18.3263 3.04804L19.0544 1.7366ZM12.0511 7.18261L14.6248 4.39413L13.5226 3.37677L10.9489 6.16525L12.0511 7.18261ZM19.6509 9.54101L16.9966 11.944L18.0034 13.056L20.6577 10.653L19.6509 9.54101ZM12.4697 4.53033L19.4697 11.5303L20.5303 10.4697L13.5303 3.46967L12.4697 4.53033Z" fill="#141B34"/>
<path d="M2 2L22 22" stroke="#141B34" stroke-width="1.5" stroke-linecap="round" stroke-linejoin="round"/>
</svg>
