<svg width="24" height="24" viewBox="0 0 24 24" fill="none" xmlns="http://www.w3.org/2000/svg">
<path d="M11.6931 7L6.76525 11.9278C5.70048 12.9926 5.1681 13.525 5.0412 14.163C4.98627 14.4391 4.98627 14.7234 5.0412 14.9996C5.1681 15.6376 5.70049 16.17 6.76525 17.2348C7.83001 18.2995 8.3624 18.8319 9.00037 18.9588C9.27655 19.0137 9.56085 19.0137 9.83704 18.9588C10.475 18.8319 11.0074 18.2995 12.0722 17.2348L17 12.3069" stroke="#141B34" stroke-width="1.5" stroke-linecap="round" stroke-linejoin="round"/>
<path d="M11 6L18 13" stroke="#141B34" stroke-width="1.5" stroke-linecap="round" stroke-linejoin="round"/>
<path d="M8 18.6372L6.83054 19.4725C6.35987 19.8087 6.12454 19.9768 5.86646 19.9971C5.76637 20.005 5.66567 19.9967 5.56824 19.9724C5.31702 19.91 5.11252 19.7055 4.70352 19.2965C4.29453 18.8875 4.09003 18.683 4.02756 18.4318C4.00333 18.3343 3.995 18.2336 4.00288 18.1335C4.0232 17.8755 4.1913 17.6401 4.52749 17.1695L5.36282 16" stroke="#141B34" stroke-width="1.5" stroke-linecap="round" stroke-linejoin="round"/>
<path opacity="0.4" d="M19.8661 6.11612L20.3964 5.58579L19.8661 6.11612ZM17.8839 4.13388L17.3536 4.66421L17.3536 4.66421L17.8839 4.13388ZM17.223 3.37723L17.8784 3.01259V3.01259L17.223 3.37723ZM17.75 2C17.75 1.58579 17.4142 1.25 17 1.25C16.5858 1.25 16.25 1.58579 16.25 2H17.75ZM17.0677 3.00236L17.789 2.79676V2.79676L17.0677 3.00236ZM22 7.75C22.4142 7.75 22.75 7.41421 22.75 7C22.75 6.58579 22.4142 6.25 22 6.25V7.75ZM20.9976 6.93228L21.2032 6.21101L21.2032 6.21101L20.9976 6.93228ZM20.6228 6.77701L20.2581 7.4324L20.2581 7.4324L20.6228 6.77701ZM20.3964 5.58579L18.4142 3.60355L17.3536 4.66421L19.3358 6.64645L20.3964 5.58579ZM18.4142 3.60355C18.0238 3.21309 17.9357 3.11557 17.8784 3.01259L16.5676 3.74187C16.7505 4.07062 17.023 4.33362 17.3536 4.66421L18.4142 3.60355ZM16.25 2C16.25 2.46753 16.2433 2.84616 16.3464 3.20795L17.789 2.79676C17.7567 2.68343 17.75 2.55219 17.75 2H16.25ZM17.8784 3.01259C17.8404 2.94432 17.8104 2.8719 17.789 2.79676L16.3464 3.20795C16.3994 3.39382 16.4736 3.57297 16.5676 3.74187L17.8784 3.01259ZM22 6.25C21.4478 6.25 21.3166 6.24332 21.2032 6.21101L20.792 7.65355C21.1538 7.75668 21.5325 7.75 22 7.75V6.25ZM19.3358 6.64645C19.6664 6.97704 19.9294 7.24949 20.2581 7.4324L20.9874 6.12162C20.8844 6.06432 20.7869 5.97625 20.3964 5.58579L19.3358 6.64645ZM21.2032 6.21101C21.1281 6.1896 21.0557 6.1596 20.9874 6.12161L20.2581 7.4324C20.427 7.52637 20.6062 7.60057 20.7921 7.65355L21.2032 6.21101ZM13.9685 8.58565L18.9685 4.58565L18.0315 3.41435L13.0315 7.41435L13.9685 8.58565ZM16.5857 10.9685L20.5857 5.96852L19.4143 5.03148L15.4143 10.0315L16.5857 10.9685Z" fill="#141B34"/>
<path opacity="0.4" d="M4.5 19.5L2 22" stroke="#141B34" stroke-width="1.5" stroke-linecap="round" stroke-linejoin="round"/>
</svg>
