<svg width="24" height="24" viewBox="0 0 24 24" fill="none" xmlns="http://www.w3.org/2000/svg">
<path d="M12 13C10.7319 13 9.39109 13.2193 8.34002 13.5128C7.54859 13.7338 6.91195 14.7415 7.00999 15.5596C7.04632 15.8627 7.30731 16 7.58173 16H16.4183C16.6927 16 16.9537 15.8627 16.99 15.5596C17.0881 14.7415 16.4514 13.7338 15.66 13.5128C14.6089 13.2193 13.2681 13 12 13Z" stroke="#141B34" stroke-width="1.5" stroke-linecap="round"/>
<path d="M21 10C19.8954 10 19 10.8954 19 12V13C19 14.1046 18.1046 15 17 15" stroke="#141B34" stroke-width="1.5" stroke-linecap="round" stroke-linejoin="round"/>
<path d="M3 10C4.10457 10 5 10.8954 5 12V13C5 14.1046 5.89543 15 7 15" stroke="#141B34" stroke-width="1.5" stroke-linecap="round" stroke-linejoin="round"/>
<path opacity="0.4" d="M15.4304 22.4879C15.6998 22.8025 16.1733 22.8391 16.4879 22.5696C16.8025 22.3002 16.8391 21.8267 16.5696 21.5121L15.4304 22.4879ZM7.43036 21.5121C7.16092 21.8267 7.19753 22.3002 7.51214 22.5696C7.82674 22.8391 8.3002 22.8025 8.56964 22.4879L7.43036 21.5121ZM12.75 16C12.75 15.5858 12.4142 15.25 12 15.25C11.5858 15.25 11.25 15.5858 11.25 16H12.75ZM11.25 22C11.25 22.4142 11.5858 22.75 12 22.75C12.4142 22.75 12.75 22.4142 12.75 22H11.25ZM16.5696 21.5121C15.3914 20.1364 13.7953 19.25 12 19.25V20.75C13.272 20.75 14.4766 21.3742 15.4304 22.4879L16.5696 21.5121ZM12 19.25C10.2047 19.25 8.60862 20.1364 7.43036 21.5121L8.56964 22.4879C9.52345 21.3742 10.728 20.75 12 20.75V19.25ZM11.25 16V22H12.75V16H11.25Z" fill="#141B34"/>
<path d="M12.8197 10H11.1803C9.77811 10 9.07704 10 8.56988 9.57641C8.06272 9.15282 7.89268 8.42526 7.55261 6.97014C7.01792 4.68228 6.75058 3.53835 7.31199 2.76918C7.87341 2 8.97569 2 11.1803 2H12.8197C15.0243 2 16.1266 2 16.688 2.76918C17.2494 3.53835 16.9821 4.68228 16.4474 6.97014C16.1073 8.42526 15.9373 9.15282 15.4301 9.57641C14.923 10 14.2219 10 12.8197 10Z" stroke="#141B34" stroke-width="1.5" stroke-linecap="round" stroke-linejoin="round"/>
<path opacity="0.4" d="M12 10V13" stroke="#141B34" stroke-width="1.5" stroke-linecap="round" stroke-linejoin="round"/>
</svg>
