<svg width="24" height="24" viewBox="0 0 24 24" fill="none" xmlns="http://www.w3.org/2000/svg">
<path fill-rule="evenodd" clip-rule="evenodd" d="M7.25058 4.75C6.92775 4.75 6.64115 4.95657 6.53906 5.26283L5.56686 8.17944C3.14499 9.49002 1.5 12.0529 1.5 15C1.5 19.2802 4.96979 22.75 9.25 22.75C13.5302 22.75 17 19.2802 17 15C17 12.0535 15.3556 9.49101 12.9345 8.18019L11.9621 5.26283C11.86 4.95657 11.5734 4.75 11.2506 4.75H7.25058ZM11.119 7.47685L10.71 6.25H7.79114L7.3823 7.47654C7.98049 7.32853 8.60607 7.25 9.25 7.25C9.89438 7.25 10.5204 7.32864 11.119 7.47685Z" fill="#141B34"/>
<path fill-rule="evenodd" clip-rule="evenodd" d="M19.409 5.99908L18.4393 6.96875L19.5 8.02941L20.4697 7.05974L21.4393 8.02941L22.5 6.96875L21.5303 5.99908L22.5 5.02941L21.4393 3.96875L20.4697 4.93842L19.5 3.96875L18.4393 5.02941L19.409 5.99908Z" fill="#141B34"/>
<path fill-rule="evenodd" clip-rule="evenodd" d="M10.4159 3.26965C10.0605 3.83654 9.9258 4.71958 10.0384 5.36701L8.56056 5.62399C8.39363 4.66405 8.5665 3.39561 9.14509 2.47283C9.44245 1.99857 9.8786 1.56803 10.48 1.36642C11.0926 1.16109 11.7669 1.2299 12.4583 1.55284C13.7396 2.15126 14.4024 3.08881 14.9052 3.80002C14.9836 3.91085 15.0581 4.01618 15.1304 4.11388C15.4088 4.48993 15.6481 4.75629 15.9451 4.94036C16.2287 5.11612 16.6205 5.25012 17.2498 5.25012V6.75012C16.3883 6.75012 15.7128 6.56111 15.1549 6.21536C14.6105 5.87792 14.2341 5.42427 13.9248 5.00633C13.831 4.87965 13.7422 4.75565 13.6556 4.6347C13.1518 3.93141 12.7223 3.33167 11.8236 2.91192C11.4018 2.71494 11.1294 2.73077 10.9568 2.78864C10.7731 2.85022 10.5856 2.99907 10.4159 3.26965Z" fill="#141B34"/>
</svg>
