<svg width="24" height="24" viewBox="0 0 24 24" fill="none" xmlns="http://www.w3.org/2000/svg">
<path fill-rule="evenodd" clip-rule="evenodd" d="M9.16519 3.58146C9.03478 3.4546 8.87643 3.3105 8.69617 3.16554C8.19887 2.76563 7.4021 2.25 6.49953 2.25C5.5969 2.25 4.80034 2.76569 4.30322 3.16566C4.12314 3.31054 3.96494 3.45458 3.83464 3.5814L1.8597 2.60424L1.6428 3.52241C1.18258 5.47049 1.12641 8.60263 1.47619 11.7361C1.82556 14.8659 2.59555 18.1429 3.88209 20.3421C4.45165 21.3158 5.51783 21.75 6.50032 21.75C7.48282 21.75 8.54903 21.3158 9.11853 20.342C10.4047 18.1427 11.1745 14.8658 11.5238 11.736C11.8735 8.60252 11.8173 5.47042 11.3571 3.52241L11.1401 2.6042L9.16519 3.58146ZM7.25 17V15H5.75V17H7.25Z" fill="#141B34"/>
<path fill-rule="evenodd" clip-rule="evenodd" d="M14.8347 20.4185C14.9651 20.5454 15.1234 20.6895 15.3037 20.8345C15.801 21.2344 16.5978 21.75 17.5003 21.75C18.403 21.75 19.1995 21.2343 19.6966 20.8343C19.8767 20.6895 20.0349 20.5454 20.1652 20.4186L22.1402 21.3958L22.3571 20.4776C22.8173 18.5295 22.8735 15.3974 22.5237 12.2639C22.1743 9.13406 21.4043 5.85714 20.1178 3.65787C19.5482 2.68424 18.482 2.25002 17.4996 2.25C16.5171 2.24998 15.4508 2.68416 14.8813 3.65795C13.5951 5.85728 12.8254 9.1342 12.4761 12.264C12.1264 15.3975 12.1826 18.5296 12.6428 20.4776L12.8597 21.3958L14.8347 20.4185ZM18.2499 9V7H16.7499V9H18.2499Z" fill="#141B34"/>
</svg>
