<svg width="24" height="24" viewBox="0 0 24 24" fill="none" xmlns="http://www.w3.org/2000/svg">
<path d="M12.75 2.74805V8.12894H13.262C13.3808 7.93359 13.5432 7.68237 13.7394 7.41905C13.9539 7.13114 14.2188 6.81522 14.5216 6.53992C14.8191 6.26944 15.1905 6.0037 15.6212 5.86747C16.9795 5.43789 18.3514 6.22223 19.4069 7.34095C20.5006 8.50021 21.4662 10.2185 22.0869 12.214C22.7077 14.2098 22.8881 16.1755 22.6471 17.7556C22.4146 19.28 21.7343 20.7096 20.3788 21.1383C19.3766 21.4553 18.0865 21.0855 16.9326 20.2303C16.2732 19.7415 15.6241 19.073 15.0413 18.2119C15.1904 18.237 15.3437 18.25 15.5 18.25C17.0188 18.25 18.25 17.0188 18.25 15.5C18.25 13.9812 17.0188 12.75 15.5 12.75C13.9812 12.75 12.75 13.9812 12.75 15.5C12.75 15.7614 12.7865 16.0142 12.8546 16.2537H11.1454C11.2135 16.0142 11.25 15.7614 11.25 15.5C11.25 13.9812 10.0188 12.75 8.5 12.75C6.98122 12.75 5.75 13.9812 5.75 15.5C5.75 17.0188 6.98122 18.25 8.5 18.25C8.65631 18.25 8.80957 18.237 8.95876 18.2119C8.37596 19.073 7.72684 19.7415 7.0674 20.2303C5.91353 21.0855 4.62342 21.4553 3.6212 21.1383C2.26567 20.7096 1.58546 19.28 1.35294 17.7556C1.11194 16.1755 1.29229 14.2098 1.91308 12.214C2.53383 10.2185 3.49939 8.50021 4.59314 7.34095C5.64865 6.22223 7.02056 5.43789 8.37882 5.86747C8.80955 6.0037 9.18097 6.26944 9.47845 6.53992C9.78123 6.81522 10.0461 7.13114 10.2607 7.41905C10.4568 7.68237 10.6193 7.93359 10.738 8.12894H11.25V2.74805H12.75Z" fill="#141B34"/>
<path d="M15.5 14.25C14.8096 14.25 14.25 14.8096 14.25 15.5C14.25 16.1904 14.8096 16.75 15.5 16.75C16.1904 16.75 16.75 16.1904 16.75 15.5C16.75 14.8096 16.1904 14.25 15.5 14.25Z" fill="#141B34"/>
<path d="M7.25 15.5C7.25 14.8096 7.80964 14.25 8.5 14.25C9.19036 14.25 9.75 14.8096 9.75 15.5C9.75 16.1904 9.19036 16.75 8.5 16.75C7.80964 16.75 7.25 16.1904 7.25 15.5Z" fill="#141B34"/>
</svg>
