<svg width="24" height="24" viewBox="0 0 24 24" fill="none" xmlns="http://www.w3.org/2000/svg">
<path d="M8.54086 6.82901C8.3308 6.61713 8.01653 6.55028 7.73952 6.65856C7.46251 6.76684 7.27497 7.0301 7.26132 7.32944L7.26117 7.33528C7.25817 7.45662 7.24967 7.80057 7.25003 7.99832C7.25078 8.39916 7.27323 9.05492 7.32331 9.64499L6.53136 8.84619L5.4707 9.91603L14.4707 18.9939L15.5314 17.9241L14.7379 17.1237C15.3229 17.1744 15.9736 17.1974 16.371 17.1983C16.5668 17.1987 16.9076 17.1902 17.0282 17.1873L17.0344 17.1871C17.3312 17.1734 17.5921 16.9843 17.6995 16.7049C17.8069 16.4255 17.7406 16.1084 17.5305 15.8965L8.54086 6.82901Z" fill="#141B34"/>
<path d="M6.78506 13.0176L1.39233 20.5372C1.17645 20.8383 1.20923 21.2528 1.46968 21.5155L2.96968 23.0285C3.23012 23.2912 3.64112 23.3243 3.93955 23.1066L11.395 17.6674L6.78506 13.0176Z" fill="#141B34"/>
<path d="M21.4442 1.90889L20.6992 0.75L20.1322 2.00718C19.7488 2.85723 19.257 3.2833 18.7147 3.52439C18.1365 3.7814 17.4425 3.85551 16.6025 3.87826C16.4041 3.88364 16.1944 3.88597 15.9774 3.88838C15.3273 3.89562 14.6112 3.90358 13.9339 3.9962C12.998 4.12417 12.0326 4.42076 11.1761 5.14168C10.6912 5.54979 10.3056 6.02642 10.0107 6.53629L18.3319 14.9295C19.0939 14.6999 19.7303 14.3309 20.2514 13.8986C21.3908 12.9532 21.9287 11.7494 22.0833 11.2064L22.4587 9.88862L21.1533 10.2711C20.5695 10.4421 20.0114 10.443 19.6458 10.3243C19.4692 10.2669 19.3719 10.1935 19.3225 10.1348C19.2817 10.0864 19.2454 10.017 19.2454 9.88534C19.2454 9.61858 19.3787 9.38227 19.8238 9.04365C20.018 8.89587 20.2349 8.7558 20.4855 8.59389L20.599 8.52049C20.8855 8.33494 21.2073 8.12215 21.5046 7.8742C22.1129 7.36701 22.6813 6.65906 22.7442 5.59342C22.8042 4.57714 22.3927 3.38447 21.4442 1.90889Z" fill="#141B34"/>
</svg>
