<svg width="24" height="24" viewBox="0 0 24 24" fill="none" xmlns="http://www.w3.org/2000/svg">
<path fill-rule="evenodd" clip-rule="evenodd" d="M21.7071 2.29289C22.0976 2.68342 22.0976 3.31658 21.7071 3.70711L14.2071 11.2071C13.8166 11.5976 13.1834 11.5976 12.7929 11.2071C12.4024 10.8166 12.4024 10.1834 12.7929 9.79289L20.2929 2.29289C20.6834 1.90237 21.3166 1.90237 21.7071 2.29289Z" fill="#141B34"/>
<path fill-rule="evenodd" clip-rule="evenodd" d="M11.2071 12.7929C11.5976 13.1834 11.5976 13.8166 11.2071 14.2071L3.70711 21.7071C3.31658 22.0976 2.68342 22.0976 2.29289 21.7071C1.90237 21.3166 1.90237 20.6834 2.29289 20.2929L9.79289 12.7929C10.1834 12.4024 10.8166 12.4024 11.2071 12.7929Z" fill="#141B34"/>
<path d="M10.6614 12.0082C10.9129 12.029 11.2815 12.1053 11.5899 12.4159C11.8968 12.725 11.9713 13.0926 11.9918 13.3419C12.0089 13.5494 11.9953 13.7903 11.984 13.9904L11.8132 17.0557C11.7912 17.4493 11.5402 17.7932 11.172 17.9341C10.8038 18.0749 10.3873 17.9863 10.1083 17.7079L6.2936 13.9005C6.01463 13.6221 5.92523 13.2057 6.06532 12.8373C6.2054 12.4689 6.54883 12.2171 6.94232 12.1944L10.0152 12.0167C10.2131 12.0052 10.4537 11.9911 10.6614 12.0082Z" fill="#141B34"/>
<path d="M12.8656 6.06367C13.2339 5.92557 13.649 6.01627 13.9262 6.29541L17.7096 10.1056C17.9869 10.3848 18.0746 10.8007 17.9338 11.1681C17.793 11.5355 17.4498 11.7862 17.0569 11.8086L13.9844 11.9835C13.7853 11.995 13.5456 12.0088 13.3391 11.9922C13.092 11.9724 12.724 11.8995 12.4142 11.5931C12.1017 11.2839 12.0265 10.9135 12.007 10.6619C11.991 10.4551 12.0067 10.216 12.0194 10.0211L12.2187 6.93558C12.244 6.54301 12.4972 6.20177 12.8656 6.06367Z" fill="#141B34"/>
</svg>
