<svg width="24" height="24" viewBox="0 0 24 24" fill="none" xmlns="http://www.w3.org/2000/svg">
<path d="M18.7585 11.6517C18.3986 12.0706 17.7672 12.1184 17.3483 11.7585L12 7.16291L6.65176 11.7585C6.23287 12.1184 5.60151 12.0706 5.24158 11.6517C4.88165 11.2328 4.92944 10.6015 5.34833 10.2415L10.7343 5.61358L10.7343 5.61357C10.8634 5.50253 11.0214 5.36655 11.1742 5.26524C11.3601 5.14197 11.6373 5 12 5C12.3628 5 12.64 5.14197 12.8259 5.26524C12.9787 5.36655 13.1367 5.50254 13.2658 5.61358L18.6518 10.2415C19.0706 10.6015 19.1184 11.2328 18.7585 11.6517Z" fill="#141B34"/>
<path d="M18.9377 18.3475C18.7923 18.7397 18.4183 19 18 19L6.00001 19C5.58176 19 5.20769 18.7397 5.06234 18.3475C4.91699 17.9553 5.03107 17.5141 5.3483 17.2415L10.7343 12.6136C10.8633 12.5025 11.0214 12.3666 11.1741 12.2652C11.36 12.142 11.6372 12 12 12C12.3628 12 12.64 12.142 12.8259 12.2652C12.9787 12.3666 13.1367 12.5025 13.2658 12.6136L18.6517 17.2415C18.969 17.5141 19.083 17.9553 18.9377 18.3475Z" fill="#141B34"/>
</svg>
