<svg width="24" height="24" viewBox="0 0 24 24" fill="none" xmlns="http://www.w3.org/2000/svg">
<path fill-rule="evenodd" clip-rule="evenodd" d="M20.7081 3.29289C21.0986 3.68342 21.0986 4.31658 20.7081 4.70711L4.70808 20.7071C4.31756 21.0976 3.68439 21.0976 3.29387 20.7071C2.90335 20.3166 2.90335 19.6834 3.29387 19.2929L19.2939 3.29289C19.6844 2.90237 20.3176 2.90237 20.7081 3.29289Z" fill="#141B34"/>
<path d="M21.5892 2.41189C21.9002 2.72328 21.9739 3.09485 21.993 3.34609C22.0089 3.5546 21.9933 3.79634 21.9805 3.99619L21.7855 7.06337C21.7606 7.45562 21.5082 7.79689 21.1404 7.9356C20.7727 8.0743 20.3578 7.98473 20.08 7.70665L16.2924 3.91478C16.0146 3.63669 15.9255 3.22166 16.0647 2.85405C16.2038 2.48645 16.5454 2.23445 16.9377 2.21L20.0053 2.0188C20.2053 2.0062 20.447 1.99096 20.6555 2.00709C20.9067 2.02651 21.2781 2.10053 21.5892 2.41189Z" fill="#141B34"/>
<path d="M2.84462 16.0646C3.21333 15.9251 3.62956 16.0153 3.9075 16.2948L7.70906 20.1181C7.98709 20.3977 8.07484 20.8146 7.93314 21.1826C7.79143 21.5505 7.44671 21.8009 7.05296 21.8218L3.97503 21.9852C3.77767 21.9958 3.53833 22.0087 3.33189 21.991C3.08284 21.9695 2.71605 21.8933 2.40894 21.5846C2.10167 21.2757 2.02747 20.9083 2.00756 20.6589C1.99107 20.4523 2.00546 20.2131 2.01732 20.016L2.20015 16.9406C2.22354 16.5471 2.47592 16.204 2.84462 16.0646Z" fill="#141B34"/>
</svg>
