<svg width="24" height="24" viewBox="0 0 24 24" fill="none" xmlns="http://www.w3.org/2000/svg">
<path fill-rule="evenodd" clip-rule="evenodd" d="M11.0001 20L10.9999 5.00003C10.9999 4.44775 11.4476 4.00003 11.9999 4.00002C12.5522 4.00001 12.9999 4.44772 12.9999 5L13.0001 20C13.0001 20.5523 12.5524 21 12.0002 21C11.4479 21 11.0001 20.5523 11.0001 20Z" fill="#141B34"/>
<path d="M17.692 9.7219C17.2933 10.1041 16.6603 10.0907 16.2781 9.692L12 5.22904L7.7219 9.692C7.33972 10.0907 6.7067 10.1041 6.308 9.7219C5.90931 9.33972 5.89592 8.7067 6.2781 8.308L10.5988 3.80061C10.7401 3.65302 10.9075 3.47817 11.071 3.34799C11.2666 3.19231 11.5766 3 12 3C12.4234 3 12.7334 3.19231 12.929 3.34799C13.0925 3.47817 13.2599 3.65302 13.4012 3.8006L17.7219 8.308C18.1041 8.7067 18.0907 9.33972 17.692 9.7219Z" fill="#141B34"/>
</svg>
