<svg width="24" height="24" viewBox="0 0 24 24" fill="none" xmlns="http://www.w3.org/2000/svg">
<path fill-rule="evenodd" clip-rule="evenodd" d="M4.00006 19C4.55235 19 5.00006 18.5523 5.00006 18L5.00006 6C5.00006 5.44771 4.55235 5 4.00006 5C3.44778 5 3.00006 5.44771 3.00006 6L3.00006 18C3.00006 18.5523 3.44778 19 4.00006 19Z" fill="#141B34"/>
<path fill-rule="evenodd" clip-rule="evenodd" d="M10.2895 12.9999L12.6881 15.2744C13.0889 15.6544 13.1057 16.2873 12.7257 16.6881C12.3457 17.0888 11.7128 17.1057 11.312 16.7256L7.80999 13.405C7.66078 13.2637 7.48424 13.0965 7.35278 12.9331C7.19601 12.7383 7.00006 12.4269 7.00006 12C7.00006 11.5732 7.19601 11.2617 7.35278 11.0669C7.48424 10.9035 7.66078 10.7363 7.80999 10.595L11.312 7.27436C11.7128 6.89435 12.3457 6.91117 12.7257 7.31193C13.1057 7.71269 13.0889 8.34563 12.6881 8.72565L10.2897 10.9999L19.9999 10.9995C20.5522 10.9994 21 11.4471 21 11.9994C21 12.5517 20.5523 12.9994 20 12.9995L10.2895 12.9999Z" fill="#141B34"/>
</svg>
