<svg width="24" height="24" viewBox="0 0 24 24" fill="none" xmlns="http://www.w3.org/2000/svg">
<path fill-rule="evenodd" clip-rule="evenodd" d="M3 12C3 11.4477 3.44772 11 4 11L20 11C20.5523 11 21 11.4477 21 12C21 12.5523 20.5523 13 20 13L4 13C3.44772 13 3 12.5523 3 12Z" fill="#141B34"/>
<path d="M6.39925 8.08313C6.76415 8.24197 7.00012 8.60205 7.00012 9.00002V15C7.00012 15.398 6.76415 15.7581 6.39925 15.9169C6.03436 16.0758 5.61001 16.0031 5.31873 15.7319L2.82601 13.4113C2.67399 13.27 2.49458 13.1032 2.36095 12.9401C2.20236 12.7466 2.00012 12.4328 2.00012 12C2.00012 11.5672 2.20236 11.2534 2.36095 11.0599C2.49458 10.8969 2.67399 10.7301 2.82601 10.5887L5.31873 8.2681C5.61001 7.99693 6.03436 7.92429 6.39925 8.08313Z" fill="#141B34"/>
<path d="M17.6009 8.08313C17.9658 7.92429 18.3901 7.99693 18.6814 8.2681L21.1741 10.5887L21.1741 10.5887C21.3261 10.7301 21.5055 10.8969 21.6392 11.0599C21.7978 11.2534 22 11.5672 22 12C22 12.4328 21.7978 12.7466 21.6392 12.9401C21.5055 13.1032 21.3261 13.27 21.1741 13.4113L21.1741 13.4113L18.6814 15.7319C18.3901 16.0031 17.9658 16.0758 17.6009 15.9169C17.236 15.7581 17 15.398 17 15V9.00002C17 8.60205 17.236 8.24197 17.6009 8.08313Z" fill="#141B34"/>
</svg>
