<svg width="24" height="24" viewBox="0 0 24 24" fill="none" xmlns="http://www.w3.org/2000/svg">
<path fill-rule="evenodd" clip-rule="evenodd" d="M12 1.25C6.06294 1.25 1.25 6.06294 1.25 12C1.25 17.9371 6.06294 22.75 12 22.75C17.9371 22.75 22.75 17.9371 22.75 12C22.75 6.06294 17.9371 1.25 12 1.25ZM10.0136 8.05837C10.0458 7.50703 9.62495 7.03396 9.0736 7.00173C8.52226 6.96951 8.04918 7.39034 8.01696 7.94169C7.8484 10.8258 8.95502 12.7505 10.4971 13.9174C11.1316 14.3976 11.8239 14.7382 12.5038 14.9708L12.5038 16C12.5038 16.4106 12.7547 16.7794 13.1366 16.9302C13.5185 17.0809 13.9538 16.9829 14.2342 16.683L15.7304 15.083C16.0898 14.6986 16.0898 14.1014 15.7304 13.717L14.2342 12.117C13.9538 11.8171 13.5186 11.7191 13.1367 11.8699C12.7548 12.0206 12.5038 12.3894 12.5038 12.8V12.8113C12.2273 12.6761 11.9573 12.5143 11.704 12.3226C10.7088 11.5696 9.88288 10.2943 10.0136 8.05837Z" fill="#141B34"/>
</svg>
