<svg width="24" height="24" viewBox="0 0 24 24" fill="none" xmlns="http://www.w3.org/2000/svg">
<path fill-rule="evenodd" clip-rule="evenodd" d="M12 1.25C6.06294 1.25 1.25 6.06294 1.25 12C1.25 17.9371 6.06294 22.75 12 22.75C17.9371 22.75 22.75 17.9371 22.75 12C22.75 6.06294 17.9371 1.25 12 1.25ZM7.75 8C7.75 7.58579 7.41421 7.25 7 7.25C6.58579 7.25 6.25 7.58579 6.25 8V16C6.25 16.4142 6.58579 16.75 7 16.75C7.41421 16.75 7.75 16.4142 7.75 16V8ZM13.25 9.5C13.25 9.19665 13.0673 8.92318 12.787 8.80709C12.5068 8.691 12.1842 8.75517 11.9697 8.96967L9.46967 11.4697C9.17678 11.7626 9.17678 12.2374 9.46967 12.5303L11.9697 15.0303C12.1842 15.2448 12.5068 15.309 12.787 15.1929C13.0673 15.0768 13.25 14.8033 13.25 14.5V12.75H17C17.4142 12.75 17.75 12.4142 17.75 12C17.75 11.5858 17.4142 11.25 17 11.25H13.25V9.5Z" fill="#141B34"/>
</svg>
