<svg width="24" height="24" viewBox="0 0 24 24" fill="none" xmlns="http://www.w3.org/2000/svg">
<path fill-rule="evenodd" clip-rule="evenodd" d="M12 1.25C6.06294 1.25 1.25 6.06294 1.25 12C1.25 17.9371 6.06294 22.75 12 22.75C17.9371 22.75 22.75 17.9371 22.75 12C22.75 6.06294 17.9371 1.25 12 1.25ZM12.7071 16.7071C12.3166 17.0976 11.6834 17.0976 11.2929 16.7071L8.79292 14.2071C8.50692 13.9211 8.42137 13.491 8.57615 13.1173C8.73093 12.7436 9.09557 12.5 9.50003 12.5H11V8C11 7.44771 11.4477 7 12 7C12.5523 7 13 7.44771 13 8V12.5H14.5C14.9045 12.5 15.2691 12.7436 15.4239 13.1173C15.5787 13.491 15.4931 13.9211 15.2071 14.2071L12.7071 16.7071Z" fill="#141B34"/>
</svg>
