<svg width="24" height="24" viewBox="0 0 24 24" fill="none" xmlns="http://www.w3.org/2000/svg">
<path fill-rule="evenodd" clip-rule="evenodd" d="M12 1.25C6.06294 1.25 1.25 6.06294 1.25 12C1.25 17.9371 6.06294 22.75 12 22.75C17.9371 22.75 22.75 17.9371 22.75 12C22.75 6.06294 17.9371 1.25 12 1.25ZM12.75 7C12.75 6.58579 12.4142 6.25 12 6.25C11.5858 6.25 11.25 6.58579 11.25 7V10.75H9.5C9.19665 10.75 8.92318 10.9327 8.80709 11.213C8.691 11.4932 8.75517 11.8158 8.96967 12.0303L11.4697 14.5303C11.7626 14.8232 12.2374 14.8232 12.5303 14.5303L15.0303 12.0303C15.2448 11.8158 15.309 11.4932 15.1929 11.213C15.0768 10.9327 14.8033 10.75 14.5 10.75H12.75V7ZM8 16.25C7.58579 16.25 7.25 16.5858 7.25 17C7.25 17.4142 7.58579 17.75 8 17.75H16C16.4142 17.75 16.75 17.4142 16.75 17C16.75 16.5858 16.4142 16.25 16 16.25H8Z" fill="#141B34"/>
</svg>
