<svg width="24" height="24" viewBox="0 0 24 24" fill="none" xmlns="http://www.w3.org/2000/svg">
<path fill-rule="evenodd" clip-rule="evenodd" d="M12 1.25C6.06294 1.25 1.25 6.06294 1.25 12C1.25 17.9371 6.06294 22.75 12 22.75C17.9371 22.75 22.75 17.9371 22.75 12C22.75 6.06294 17.9371 1.25 12 1.25ZM8.61635 9.71254C8.18143 9.37216 7.55292 9.44881 7.21254 9.88374C6.87216 10.3187 6.94881 10.9472 7.38374 11.2875L11.0837 14.1832C11.6235 14.6057 12.3765 14.6057 12.9164 14.1832L16.6164 11.2875C17.0513 10.9472 17.1279 10.3187 16.7875 9.88374C16.4472 9.44881 15.8187 9.37216 15.3837 9.71254L12 12.3606L8.61635 9.71254Z" fill="#141B34"/>
</svg>
