<svg width="24" height="24" viewBox="0 0 24 24" fill="none" xmlns="http://www.w3.org/2000/svg">
<path fill-rule="evenodd" clip-rule="evenodd" d="M12 1.25C6.06294 1.25 1.25 6.06294 1.25 12C1.25 17.9371 6.06294 22.75 12 22.75C17.9371 22.75 22.75 17.9371 22.75 12C22.75 6.06294 17.9371 1.25 12 1.25ZM8 7C7.44772 7 7 7.44772 7 8V11C7 11.4045 7.24364 11.7691 7.61732 11.9239C7.99099 12.0787 8.42111 11.9931 8.70711 11.7071L9.5 10.9142L13.0858 14.5L12.2929 15.2929C12.0069 15.5789 11.9213 16.009 12.0761 16.3827C12.2309 16.7564 12.5955 17 13 17H16C16.5523 17 17 16.5523 17 16V13C17 12.5955 16.7564 12.2309 16.3827 12.0761C16.009 11.9213 15.5789 12.0069 15.2929 12.2929L14.5 13.0858L10.9142 9.5L11.7071 8.70711C11.9931 8.42111 12.0787 7.99099 11.9239 7.61732C11.7691 7.24364 11.4045 7 11 7H8Z" fill="#141B34"/>
</svg>
