<svg width="24" height="24" viewBox="0 0 24 24" fill="none" xmlns="http://www.w3.org/2000/svg">
<path fill-rule="evenodd" clip-rule="evenodd" d="M12 1.25C6.06294 1.25 1.25 6.06294 1.25 12C1.25 17.9371 6.06294 22.75 12 22.75C17.9371 22.75 22.75 17.9371 22.75 12C22.75 6.06294 17.9371 1.25 12 1.25ZM7.5 6.5C6.94772 6.5 6.5 6.94772 6.5 7.5V10.5C6.5 10.9045 6.74364 11.2691 7.11732 11.4239C7.49099 11.5787 7.92111 11.4931 8.20711 11.2071L9 10.4142L10.2929 11.7071C10.6834 12.0976 11.3166 12.0976 11.7071 11.7071C12.0976 11.3166 12.0976 10.6834 11.7071 10.2929L10.4142 9L11.2071 8.20711C11.4931 7.92111 11.5787 7.49099 11.4239 7.11732C11.2691 6.74364 10.9045 6.5 10.5 6.5H7.5ZM13.7071 12.2929C13.3166 11.9024 12.6834 11.9024 12.2929 12.2929C11.9024 12.6834 11.9024 13.3166 12.2929 13.7071L13.5858 15L12.7929 15.7929C12.5069 16.0789 12.4213 16.509 12.5761 16.8827C12.7309 17.2564 13.0955 17.5 13.5 17.5H16.5C17.0523 17.5 17.5 17.0523 17.5 16.5V13.5C17.5 13.0955 17.2564 12.7309 16.8827 12.5761C16.509 12.4213 16.0789 12.5069 15.7929 12.7929L15 13.5858L13.7071 12.2929Z" fill="#141B34"/>
</svg>
