<svg width="24" height="24" viewBox="0 0 24 24" fill="none" xmlns="http://www.w3.org/2000/svg">
<path fill-rule="evenodd" clip-rule="evenodd" d="M12 1.25C6.06294 1.25 1.25 6.06294 1.25 12C1.25 17.9371 6.06294 22.75 12 22.75C17.9371 22.75 22.75 17.9371 22.75 12C22.75 6.06294 17.9371 1.25 12 1.25ZM14.7809 6.87536C14.5156 6.54374 14.0698 6.41585 13.669 6.55643C13.2683 6.697 13 7.07537 13 7.50006V16.5001C13 17.0523 13.4477 17.5001 14 17.5001C14.5523 17.5001 15 17.0523 15 16.5001V11.0001H16C16.3844 11.0001 16.7348 10.7797 16.9013 10.4332C17.0678 10.0868 17.021 9.67553 16.7809 9.37536L14.7809 6.87536ZM11 7.50006C11 6.94777 10.5523 6.50006 10 6.50006C9.44772 6.50006 9.00001 6.94777 9.00001 7.50006V13.0001H8.00001C7.6156 13.0001 7.26523 13.2204 7.09871 13.5669C6.93219 13.9133 6.979 14.3246 7.21914 14.6248L9.21914 17.1248C9.48444 17.4564 9.93027 17.5843 10.331 17.4437C10.7318 17.3031 11 16.9247 11 16.5001V7.50006Z" fill="#141B34"/>
</svg>
