<svg width="24" height="24" viewBox="0 0 24 24" fill="none" xmlns="http://www.w3.org/2000/svg">
<path fill-rule="evenodd" clip-rule="evenodd" d="M12 1.25C6.06294 1.25 1.25 6.06294 1.25 12C1.25 17.9371 6.06294 22.75 12 22.75C17.9371 22.75 22.75 17.9371 22.75 12C22.75 6.06294 17.9371 1.25 12 1.25ZM8.20711 6.79289C7.81658 6.40237 7.18342 6.40237 6.79289 6.79289C6.40237 7.18342 6.40237 7.81658 6.79289 8.20711L8.08579 9.5L7.29289 10.2929C7.0069 10.5789 6.92134 11.009 7.07612 11.3827C7.2309 11.7564 7.59554 12 8 12H11C11.5523 12 12 11.5523 12 11V8C12 7.59554 11.7564 7.2309 11.3827 7.07612C11.009 6.92134 10.5789 7.0069 10.2929 7.29289L9.5 8.08579L8.20711 6.79289ZM13 12C12.4477 12 12 12.4477 12 13V16C12 16.4045 12.2436 16.7691 12.6173 16.9239C12.991 17.0787 13.4211 16.9931 13.7071 16.7071L14.5 15.9142L15.7929 17.2071C16.1834 17.5976 16.8166 17.5976 17.2071 17.2071C17.5976 16.8166 17.5976 16.1834 17.2071 15.7929L15.9142 14.5L16.7071 13.7071C16.9931 13.4211 17.0787 12.991 16.9239 12.6173C16.7691 12.2436 16.4045 12 16 12H13Z" fill="#141B34"/>
</svg>
