<svg width="24" height="24" viewBox="0 0 24 24" fill="none" xmlns="http://www.w3.org/2000/svg">
<path fill-rule="evenodd" clip-rule="evenodd" d="M17.312 1.93059C15.9686 1.74998 14.2479 1.74999 12.0572 1.75H11.9428C9.75212 1.74999 8.03144 1.74998 6.68802 1.93059C5.31137 2.11568 4.21911 2.50272 3.36091 3.36091C2.50272 4.21911 2.11568 5.31137 1.93059 6.68802C1.74998 8.03144 1.74999 9.75212 1.75 11.9428V12.0572C1.74999 14.2479 1.74998 15.9686 1.93059 17.312C2.11568 18.6886 2.50272 19.7809 3.36091 20.6391C4.21911 21.4973 5.31137 21.8843 6.68802 22.0694C8.03144 22.25 9.7521 22.25 11.9428 22.25H11.9428H12.0572H12.0572C14.2479 22.25 15.9686 22.25 17.312 22.0694C18.6886 21.8843 19.7809 21.4973 20.6391 20.6391C21.4973 19.7809 21.8843 18.6886 22.0694 17.312C22.25 15.9686 22.25 14.2479 22.25 12.0572V12.0572V11.9428V11.9428C22.25 9.7521 22.25 8.03144 22.0694 6.68802C21.8843 5.31137 21.4973 4.21911 20.6391 3.36091C19.7809 2.50272 18.6886 2.11568 17.312 1.93059ZM13 16C13.4045 16 13.7691 15.7564 13.9239 15.3827C14.0787 15.009 13.9931 14.5789 13.7071 14.2929L12.4147 13.0005L15.7072 9.70699C16.0977 9.31641 16.0976 8.68324 15.707 8.29278C15.3164 7.90232 14.6832 7.90242 14.2928 8.29301L11.0005 11.5863L9.70711 10.2929C9.42105 10.0068 8.99081 9.92131 8.61709 10.0762C8.24338 10.2311 7.99981 10.5959 8 11.0005L8.00192 15.0005C8.00218 15.5526 8.44982 16 9.00192 16L13 16Z" fill="#141B34"/>
</svg>
