<svg width="24" height="24" viewBox="0 0 24 24" fill="none" xmlns="http://www.w3.org/2000/svg">
<path fill-rule="evenodd" clip-rule="evenodd" d="M17.312 1.93059C15.9686 1.74998 14.2479 1.74999 12.0572 1.75H11.9428C9.75212 1.74999 8.03144 1.74998 6.68802 1.93059C5.31137 2.11568 4.21911 2.50272 3.36091 3.36091C2.50272 4.21911 2.11568 5.31137 1.93059 6.68802C1.74998 8.03144 1.74999 9.75212 1.75 11.9428V12.0572C1.74999 14.2479 1.74998 15.9686 1.93059 17.312C2.11568 18.6886 2.50272 19.7809 3.36091 20.6391C4.21911 21.4973 5.31137 21.8843 6.68802 22.0694C8.03144 22.25 9.7521 22.25 11.9428 22.25H11.9428H12.0572H12.0572C14.2479 22.25 15.9686 22.25 17.312 22.0694C18.6886 21.8843 19.7809 21.4973 20.6391 20.6391C21.4973 19.7809 21.8843 18.6886 22.0694 17.312C22.25 15.9686 22.25 14.2479 22.25 12.0572V12.0572V11.9428V11.9428C22.25 9.7521 22.25 8.03144 22.0694 6.68802C21.8843 5.31137 21.4973 4.21911 20.6391 3.36091C19.7809 2.50272 18.6886 2.11568 17.312 1.93059ZM7.70711 6.29289C7.31658 5.90237 6.68342 5.90237 6.29289 6.29289C5.90237 6.68342 5.90237 7.31658 6.29289 7.70711L8.08579 9.5L7.29289 10.2929C7.0069 10.5789 6.92134 11.009 7.07612 11.3827C7.2309 11.7564 7.59554 12 8 12H11C11.5523 12 12 11.5523 12 11V8C12 7.59554 11.7564 7.2309 11.3827 7.07612C11.009 6.92134 10.5789 7.0069 10.2929 7.29289L9.5 8.08579L7.70711 6.29289ZM13 12C12.4477 12 12 12.4477 12 13V16C12 16.4045 12.2436 16.7691 12.6173 16.9239C12.991 17.0787 13.4211 16.9931 13.7071 16.7071L14.5 15.9142L16.2929 17.7071C16.6834 18.0976 17.3166 18.0976 17.7071 17.7071C18.0976 17.3166 18.0976 16.6834 17.7071 16.2929L15.9142 14.5L16.7071 13.7071C16.9931 13.4211 17.0787 12.991 16.9239 12.6173C16.7691 12.2436 16.4045 12 16 12H13Z" fill="#141B34"/>
</svg>
