<svg width="24" height="24" viewBox="0 0 24 24" fill="none" xmlns="http://www.w3.org/2000/svg">
<path fill-rule="evenodd" clip-rule="evenodd" d="M12.0572 22.25H12.0572H11.9428H11.9428C9.7521 22.25 8.03143 22.25 6.68802 22.0694C5.31137 21.8843 4.21911 21.4973 3.36091 20.6391C2.50272 19.7809 2.11568 18.6886 1.93059 17.312C1.74998 15.9686 1.74999 14.2479 1.75 12.0572V12.0572V11.9428V11.9428C1.74999 9.75211 1.74998 8.03144 1.93059 6.68802C2.11568 5.31137 2.50272 4.21911 3.36091 3.36091C4.21911 2.50271 5.31137 2.11568 6.68802 1.93059C8.03144 1.74998 9.7521 1.74999 11.9428 1.75H12.0572C14.2479 1.74999 15.9686 1.74998 17.312 1.93059C18.6886 2.11568 19.7809 2.50271 20.6391 3.36091C21.4973 4.21911 21.8843 5.31137 22.0694 6.68802C22.25 8.03144 22.25 9.7521 22.25 11.9428V12.0572C22.25 14.2479 22.25 15.9686 22.0694 17.312C21.8843 18.6886 21.4973 19.7809 20.6391 20.6391C19.7809 21.4973 18.6886 21.8843 17.312 22.0694C15.9686 22.25 14.2479 22.25 12.0572 22.25ZM14.7132 17.7062C14.4274 17.9928 13.997 18.0788 13.6231 17.9242C13.2491 17.7695 13.0052 17.4047 13.0052 17V15.6833C12.0698 15.439 11.1082 15.0415 10.2317 14.4348C8.23602 13.0534 6.8035 10.6684 7.02217 6.94146C7.05452 6.39012 7.52769 5.9694 8.07902 6.00175C8.63036 6.0341 9.05108 6.50727 9.01873 7.0586C8.83843 10.1317 9.98265 11.83 11.37 12.7903C11.8806 13.1438 12.4399 13.4073 13.0052 13.5975V13C13.0052 12.5953 13.2491 12.2305 13.6231 12.0759C13.997 11.9213 14.4274 12.0073 14.7132 12.2938L16.7081 14.2938C17.0974 14.6841 17.0974 15.3159 16.7081 15.7062L14.7132 17.7062Z" fill="#141B34"/>
</svg>
