<svg width="24" height="24" viewBox="0 0 24 24" fill="none" xmlns="http://www.w3.org/2000/svg">
<path fill-rule="evenodd" clip-rule="evenodd" d="M17.312 1.93059C15.9686 1.74998 14.2479 1.74999 12.0572 1.75H11.9428C9.75212 1.74999 8.03144 1.74998 6.68802 1.93059C5.31137 2.11568 4.21911 2.50272 3.36091 3.36091C2.50272 4.21911 2.11568 5.31137 1.93059 6.68802C1.74998 8.03144 1.74999 9.75212 1.75 11.9428V12.0572C1.74999 14.2479 1.74998 15.9686 1.93059 17.312C2.11568 18.6886 2.50272 19.7809 3.36091 20.6391C4.21911 21.4973 5.31137 21.8843 6.68802 22.0694C8.03144 22.25 9.7521 22.25 11.9428 22.25H11.9428H12.0572H12.0572C14.2479 22.25 15.9686 22.25 17.312 22.0694C18.6886 21.8843 19.7809 21.4973 20.6391 20.6391C21.4973 19.7809 21.8843 18.6886 22.0694 17.312C22.25 15.9686 22.25 14.2479 22.25 12.0572V12.0572V11.9428V11.9428C22.25 9.7521 22.25 8.03144 22.0694 6.68802C21.8843 5.31137 21.4973 4.21911 20.6391 3.36091C19.7809 2.50272 18.6886 2.11568 17.312 1.93059ZM9.5 9.50006C9.5 9.07537 9.23176 8.697 8.83101 8.55643C8.43026 8.41585 7.98443 8.54374 7.71913 8.87536L5.71913 11.3754C5.42696 11.7406 5.42696 12.2595 5.71913 12.6248L7.71913 15.1248C7.98443 15.4564 8.43026 15.5843 8.83101 15.4437C9.23176 15.3031 9.5 14.9247 9.5 14.5001V13.0001H14.5V14.5001C14.5 14.9247 14.7682 15.3031 15.169 15.4437C15.5697 15.5843 16.0156 15.4564 16.2809 15.1248L18.2809 12.6248C18.573 12.2595 18.573 11.7406 18.2809 11.3754L16.2809 8.87536C16.0156 8.54374 15.5697 8.41585 15.169 8.55643C14.7682 8.697 14.5 9.07537 14.5 9.50006V11.0001H9.5V9.50006Z" fill="#141B34"/>
</svg>
