<svg width="24" height="24" viewBox="0 0 24 24" fill="none" xmlns="http://www.w3.org/2000/svg">
<path fill-rule="evenodd" clip-rule="evenodd" d="M11.9428 1.75H11.9428H12.0572H12.0572C14.2479 1.74999 15.9686 1.74998 17.312 1.93059C18.6886 2.11568 19.7809 2.50272 20.6391 3.36091C21.4973 4.21911 21.8843 5.31137 22.0694 6.68802C22.25 8.03143 22.25 9.7521 22.25 11.9428V11.9428V12.0572V12.0572C22.25 14.2479 22.25 15.9686 22.0694 17.312C21.8843 18.6886 21.4973 19.7809 20.6391 20.6391C19.7809 21.4973 18.6886 21.8843 17.312 22.0694C15.9686 22.25 14.2479 22.25 12.0572 22.25H11.9428C9.75214 22.25 8.03144 22.25 6.68802 22.0694C5.31137 21.8843 4.21911 21.4973 3.36091 20.6391C2.50271 19.7809 2.11568 18.6886 1.93059 17.312C1.74998 15.9686 1.74999 14.2479 1.75 12.0572V11.9428C1.74999 9.75214 1.74998 8.03144 1.93059 6.68802C2.11568 5.31137 2.50271 4.21911 3.36091 3.36091C4.21911 2.50272 5.31137 2.11568 6.68802 1.93059C8.03144 1.74998 9.75211 1.74999 11.9428 1.75ZM8.79292 6.29292C9.07892 6.00692 9.50904 5.92137 9.88271 6.07615C10.2564 6.23093 10.5 6.59557 10.5 7.00003V8.00003H14.5L14.5544 8.00002C14.9785 7.99994 15.3906 7.99986 15.7305 8.04556C16.1138 8.09708 16.551 8.2226 16.9142 8.58582C17.2775 8.94903 17.403 9.38631 17.4545 9.76951C17.5002 10.1094 17.5001 10.5215 17.5 10.9456V10.9456L17.5 11V11.5C17.5 12.0523 17.0523 12.5 16.5 12.5C15.9477 12.5 15.5 12.0523 15.5 11.5V11C15.5 10.5004 15.4979 10.2262 15.4723 10.036L15.4713 10.0287L15.4641 10.0277C15.2739 10.0022 14.9997 10 14.5 10H7.50003C7.09557 10 6.73093 9.75639 6.57615 9.38271C6.42137 9.00904 6.50692 8.57892 6.79292 8.29292L8.79292 6.29292ZM6.50003 12C6.50003 11.4477 6.94774 11 7.50003 11C8.05231 11 8.50003 11.4477 8.50003 12V13C8.50003 13.4997 8.50215 13.7739 8.52772 13.9641L8.52872 13.9713L8.53601 13.9723C8.7262 13.9979 9.00036 14 9.50003 14H16.5C16.9044 14 17.2691 14.2437 17.4239 14.6173C17.5786 14.991 17.4931 15.4211 17.2071 15.7071L15.2071 17.7071C14.9211 17.9931 14.491 18.0787 14.1174 17.9239C13.7437 17.7691 13.5 17.4045 13.5 17V16H9.50003L9.44562 16H9.44561C9.02154 16.0001 8.60942 16.0002 8.26951 15.9545C7.88631 15.903 7.44903 15.7775 7.08582 15.4142C6.7226 15.051 6.59708 14.6138 6.54556 14.2305C6.49986 13.8906 6.49994 13.4785 6.50002 13.0545V13.0544L6.50003 13V12Z" fill="#141B34"/>
</svg>
