<svg width="24" height="24" viewBox="0 0 24 24" fill="none" xmlns="http://www.w3.org/2000/svg">
<path d="M11.1498 2.28512C11.3368 2.15473 11.6221 2 12 2C12.378 2 12.6633 2.15473 12.8503 2.28512C13.0048 2.39288 13.1644 2.53741 13.2954 2.65612L13.2954 2.65613L13.3218 2.6801L16.171 5.25854C16.4777 5.53603 16.5819 5.97364 16.4332 6.35954C16.2845 6.74544 15.9136 7 15.5 7H8.50004C8.08649 7 7.7156 6.74544 7.56691 6.35954C7.41822 5.97364 7.52241 5.53603 7.82904 5.25854L10.6783 2.6801L10.7047 2.65613C10.8357 2.53742 10.9952 2.39288 11.1498 2.28512Z" fill="#141B34"/>
<path d="M9 12C9 10.3431 10.3431 9 12 9C13.6569 9 15 10.3431 15 12C15 13.6569 13.6569 15 12 15C10.3431 15 9 13.6569 9 12Z" fill="#141B34"/>
<path d="M7.56691 17.6407C7.7156 17.2548 8.08649 17.0002 8.50004 17.0002H15.5C15.9136 17.0002 16.2845 17.2548 16.4332 17.6407C16.5819 18.0266 16.4777 18.4642 16.171 18.7417L13.2954 21.3441C13.1644 21.4628 13.0049 21.6074 12.8503 21.7151C12.6633 21.8455 12.378 22.0002 12 22.0002C11.6221 22.0002 11.3368 21.8455 11.1498 21.7151C10.9952 21.6074 10.8357 21.4628 10.7047 21.3441L10.7047 21.3441L7.82904 18.7417C7.52241 18.4642 7.41822 18.0266 7.56691 17.6407Z" fill="#141B34"/>
</svg>
