<svg width="24" height="24" viewBox="0 0 24 24" fill="none" xmlns="http://www.w3.org/2000/svg">
<path fill-rule="evenodd" clip-rule="evenodd" d="M4 17C3.44772 17 3 17.4477 3 18C3 18.5523 3.44772 19 4 19C4.55228 19 5 18.5523 5 18C5 17.4477 4.55228 17 4 17ZM1 18C1 16.3431 2.34315 15 4 15C5.65685 15 7 16.3431 7 18C7 19.6569 5.65685 21 4 21C2.34315 21 1 19.6569 1 18Z" fill="#141B34"/>
<path fill-rule="evenodd" clip-rule="evenodd" d="M20 17C19.4477 17 19 17.4477 19 18C19 18.5523 19.4477 19 20 19C20.5523 19 21 18.5523 21 18C21 17.4477 20.5523 17 20 17ZM17 18C17 16.3431 18.3431 15 20 15C21.6569 15 23 16.3431 23 18C23 19.6569 21.6569 21 20 21C18.3431 21 17 19.6569 17 18Z" fill="#141B34"/>
<path d="M16.2783 5H13.9991V3H16.9991C17.4295 3 17.8116 3.27543 17.9478 3.68377L20.9478 12.6838C21.0494 12.9887 20.9983 13.3239 20.8103 13.5847C20.6224 13.8455 20.3205 14 19.9991 14C17.7899 14 15.9991 15.7909 15.9991 18C15.9991 18.5523 15.5514 19 14.9991 19L6.51294 19.0002L3.91602 15.0037L15.4925 14.0388C16.3105 13.1088 17.4118 12.4342 18.6615 12.1496L16.2783 5Z" fill="#141B34"/>
<path fill-rule="evenodd" clip-rule="evenodd" d="M10.1303 5.50391L11.8668 6.49618L10.7218 8.50005H13.7218L10.8668 13.4962L9.13033 12.5039L10.2754 10.5H7.27539L10.1303 5.50391Z" fill="#141B34"/>
</svg>
