<svg width="24" height="24" viewBox="0 0 24 24" fill="none" xmlns="http://www.w3.org/2000/svg">
<path fill-rule="evenodd" clip-rule="evenodd" d="M17.9537 7.93142C19.1464 8.20394 20.1847 8.56251 20.98 8.99629C21.8937 9.49465 22.75 10.2432 22.75 11.285C22.75 12.0691 22.2561 12.6865 21.668 13.1335C21.0681 13.5895 20.2475 13.968 19.3006 14.2724C17.3984 14.884 14.8174 15.2501 12 15.2501C9.18262 15.2501 6.60156 14.884 4.69938 14.2724C3.75252 13.968 2.93185 13.5895 2.33199 13.1335C1.74387 12.6865 1.25 12.0691 1.25 11.285C1.25 10.2432 2.10629 9.49465 3.02 8.99629C3.81529 8.56252 4.85353 8.20397 6.04618 7.93145C6.08015 7.72321 6.12769 7.52369 6.17066 7.34341L6.18523 7.28214C6.80343 4.67516 9.09177 2.5 11.9999 2.5C14.9081 2.5 17.1964 4.67516 17.8146 7.28214L17.8292 7.34341C17.8722 7.52368 17.9197 7.7232 17.9537 7.93142ZM12.0001 4.5C10.1486 4.5 8.56725 5.90558 8.13139 7.74361C8.02641 8.18633 7.99665 8.34376 8.00029 8.46139L8.00035 8.4634C8.0016 8.50471 8.00364 8.57256 8.1297 8.74986C8.1297 8.74986 8.19011 8.80976 8.38397 8.90098C8.59468 9.00011 8.88935 9.09988 9.26194 9.18896C10.0052 9.36665 10.9554 9.47759 11.9318 9.49696C12.9096 9.51636 13.8656 9.44295 14.6247 9.27675C15.0042 9.19364 15.3076 9.09311 15.5304 8.98565C15.7613 8.8743 15.8455 8.78457 15.8654 8.75691C15.9964 8.57435 15.9985 8.50525 15.9998 8.4634L15.9998 8.46139C16.0035 8.34376 15.9737 8.18633 15.8687 7.74361C15.4329 5.90558 13.8515 4.5 12.0001 4.5Z" fill="#141B34"/>
<path fill-rule="evenodd" clip-rule="evenodd" d="M4.03906 20.9512L6.03906 13.9512L7.96211 14.5006L5.96211 21.5006L4.03906 20.9512ZM18.0391 21.5006L16.0391 14.5006L17.9621 13.9512L19.9621 20.9512L18.0391 21.5006Z" fill="#141B34"/>
<path fill-rule="evenodd" clip-rule="evenodd" d="M10.5 19.5C10.5 18.6716 11.1716 18 12 18H12.009C12.8374 18 13.509 18.6716 13.509 19.5C13.509 20.3284 12.8374 21 12.009 21H12C11.1716 21 10.5 20.3284 10.5 19.5Z" fill="#141B34"/>
</svg>
