<svg width="24" height="24" viewBox="0 0 24 24" fill="none" xmlns="http://www.w3.org/2000/svg">
<path d="M3.14831 19.8361L3.6822 19.3094H3.6822L3.14831 19.8361ZM3.92209 4.59859C4.25269 4.34903 4.31837 3.87872 4.06881 3.54813C3.81925 3.21753 3.34894 3.15185 3.01835 3.40141L3.92209 4.59859ZM20.2931 21.3153C20.6743 21.1535 20.8522 20.7132 20.6904 20.3319C20.5285 19.9506 20.0882 19.7728 19.7069 19.9346L20.2931 21.3153ZM15.7221 20.25H9.84118V21.75H15.7221V20.25ZM2.75 13.0526V11.0658H1.25V13.0526H2.75ZM9.84118 20.25C7.97152 20.25 6.64572 20.2484 5.64049 20.1114C4.65788 19.9775 4.0942 19.727 3.6822 19.3094L2.61443 20.3629C3.35074 21.1092 4.28531 21.4406 5.43796 21.5977C6.568 21.7516 8.01448 21.75 9.84118 21.75V20.25ZM1.25 13.0526C1.25 14.9049 1.24845 16.3686 1.40005 17.5115C1.55438 18.6749 1.8795 19.618 2.61443 20.3629L3.6822 19.3094C3.26882 18.8904 3.01978 18.315 2.88703 17.3142C2.75155 16.2929 2.75 14.9468 2.75 13.0526H1.25ZM2.75 11.0658C2.75 9.17166 2.75155 7.82552 2.88703 6.80422C3.01978 5.80347 3.26882 5.22804 3.6822 4.80906L2.61443 3.75555C1.8795 4.50044 1.55438 5.44354 1.40005 6.60697C1.24845 7.74985 1.25 9.21352 1.25 11.0658H2.75ZM3.01835 3.40141C2.87558 3.50919 2.74118 3.62709 2.61443 3.75555L3.6822 4.80906C3.75858 4.73165 3.83825 4.66188 3.92209 4.59859L3.01835 3.40141ZM15.7221 21.75C16.7589 21.75 17.6362 21.7504 18.3645 21.7014C19.0909 21.6526 19.7362 21.5518 20.2931 21.3153L19.7069 19.9346C19.3804 20.0732 18.9327 20.1599 18.2639 20.2048C17.5971 20.2496 16.7771 20.25 15.7221 20.25V21.75Z" fill="#141B34"/>
<path d="M18.865 14.5C18.9518 14.2848 18.9998 14.0483 18.9998 13.8C18.9998 12.8059 18.2303 12 17.281 12C16.9998 12 16.7343 12.0707 16.5 12.1961" stroke="#141B34" stroke-width="1.5" stroke-linecap="round"/>
<path d="M15.7763 3.10222L15.5821 3.82667V3.82667L15.7763 3.10222ZM17.2498 7C17.2498 7.41421 17.5856 7.75 17.9998 7.75C18.414 7.75 18.7498 7.41421 18.7498 7H17.2498ZM17.8976 5.22354L18.622 5.02943V5.02943L17.8976 5.22354ZM11.2424 6.25C10.8282 6.25 10.4924 6.58579 10.4924 7C10.4924 7.41421 10.8282 7.75 11.2424 7.75V6.25ZM21.2126 17.458C21.1894 17.8716 21.5059 18.2256 21.9194 18.2488C22.333 18.272 22.6871 17.9556 22.7103 17.542L21.2126 17.458ZM7.48095 2.26872C7.06687 2.27924 6.73972 2.62345 6.75024 3.03752C6.76076 3.4516 7.10497 3.77875 7.51905 3.76823L7.48095 2.26872ZM21.2498 13V15H22.7498V13H21.2498ZM22.7498 13C22.7498 11.607 22.7514 10.4868 22.6333 9.60825C22.5123 8.70814 22.2534 7.95027 21.6514 7.34835L20.5908 8.40901C20.8676 8.68577 21.048 9.07434 21.1467 9.80812C21.2482 10.5635 21.2498 11.5646 21.2498 13H22.7498ZM15.9998 7.75C17.4352 7.75 18.4363 7.75159 19.1917 7.85315C19.9255 7.9518 20.314 8.13225 20.5908 8.40901L21.6514 7.34835C21.0495 6.74643 20.2917 6.48754 19.3915 6.36652C18.513 6.24841 17.3928 6.25 15.9998 6.25V7.75ZM9.9998 3.75H13.9998V2.25H9.9998V3.75ZM13.9998 3.75C14.9781 3.75 15.3201 3.75644 15.5821 3.82667L15.9704 2.37778C15.4695 2.24356 14.8815 2.25 13.9998 2.25V3.75ZM18.7498 7C18.7498 6.11831 18.7562 5.53034 18.622 5.02943L17.1731 5.41766C17.2434 5.67974 17.2498 6.02174 17.2498 7H18.7498ZM15.5821 3.82667C16.3586 4.03472 16.9651 4.6412 17.1731 5.41766L18.622 5.02943C18.2753 3.73533 17.2645 2.72453 15.9704 2.37778L15.5821 3.82667ZM11.2424 7.75H15.9998V6.25H11.2424V7.75ZM21.2498 15C21.2498 16.0032 21.2495 16.8 21.2126 17.458L22.7103 17.542C22.7501 16.8328 22.7498 15.9886 22.7498 15H21.2498ZM9.9998 2.25C9.05693 2.25 8.21945 2.24995 7.48095 2.26872L7.51905 3.76823C8.23458 3.75005 9.05131 3.75 9.9998 3.75V2.25Z" fill="#141B34"/>
<path d="M2 2L22 22" stroke="#141B34" stroke-width="1.5" stroke-linecap="round"/>
</svg>
