<svg width="24" height="24" viewBox="0 0 24 24" fill="none" xmlns="http://www.w3.org/2000/svg">
<path opacity="0.4" d="M9.7373 17.8479C9.75015 18.1778 9.75014 18.5476 9.75012 18.9534V19.047C9.75013 19.3514 9.75015 19.6355 9.74473 19.8978C10.6775 19.7189 11.4696 19.3827 12.0492 18.788C12.775 18.0431 13.0001 17.0683 13.0001 16.0483L13.0001 13.0011H14.2599C14.2501 12.7098 14.2501 12.3931 14.2501 12.0556V11.9448C14.2501 11.6081 14.2501 11.292 14.2598 11.0011L13.0001 11.0011L13.0001 7.954C13.0001 6.85714 12.7284 5.87359 11.977 5.1456C11.3922 4.579 10.6175 4.26802 9.74471 4.10156C9.75015 4.36412 9.75013 4.64861 9.75012 4.95339V5.047C9.75014 5.45226 9.75015 5.82166 9.73735 6.15131C10.158 6.26881 10.4197 6.42147 10.5853 6.58198C10.8133 6.80282 11.0001 7.17695 11.0001 7.954L11.0001 16.0483C11.0001 16.7956 10.8357 17.1675 10.6168 17.3921C10.4582 17.5549 10.1938 17.7204 9.7373 17.8479Z" fill="#141B34"/>
<path d="M18.5449 15.75C19.3316 15.75 19.9864 15.75 20.5061 15.6901C21.0469 15.6278 21.5549 15.4906 21.9755 15.1301C22.4129 14.7553 22.5961 14.277 22.6769 13.7621C22.7501 13.2952 22.7501 12.715 22.75 12.0554L22.75 12L22.75 11.9446C22.7501 11.285 22.7501 10.7048 22.6769 10.2379C22.5961 9.72301 22.4129 9.24474 21.9755 8.8699C21.5549 8.50935 21.0469 8.37217 20.5061 8.30985C19.9864 8.24996 19.3316 8.24998 18.5449 8.25H18.4551C17.6684 8.24998 17.0136 8.24996 16.4939 8.30985C15.9532 8.37217 15.4451 8.50935 15.0245 8.8699C14.5872 9.24474 14.4039 9.72301 14.3231 10.2379C14.2499 10.7048 14.2499 11.285 14.25 11.9446L14.25 11.9446L14.25 12L14.25 12.0554L14.25 12.0554C14.2499 12.715 14.2499 13.2952 14.3231 13.7621C14.4039 14.277 14.5872 14.7553 15.0245 15.1301C15.4451 15.4906 15.9532 15.6278 16.4939 15.6901C17.0136 15.75 17.6684 15.75 18.4551 15.75H18.4551H18.5449H18.5449Z" fill="#141B34"/>
<path d="M4.74877 22.75L4.8 22.75H6.2L6.25124 22.75C6.86726 22.75 7.40805 22.7501 7.84312 22.6874C8.31739 22.6191 8.77325 22.4635 9.13824 22.0724C9.49639 21.6887 9.63235 21.2219 9.69291 20.7393C9.75006 20.2838 9.75003 19.7139 9.75 19.0468V19.0468V18.9532V18.9532C9.75003 18.2861 9.75006 17.7162 9.69291 17.2607C9.63235 16.7781 9.49639 16.3113 9.13824 15.9276C8.77325 15.5365 8.31739 15.3809 7.84312 15.3126C7.40805 15.2499 6.86727 15.2499 6.25125 15.25H6.25123L6.2 15.25H4.8L4.74877 15.25H4.74876C4.13274 15.2499 3.59196 15.2499 3.15689 15.3126C2.68262 15.3809 2.22675 15.5365 1.86176 15.9276C1.50362 16.3113 1.36766 16.7781 1.3071 17.2607C1.24995 17.7161 1.24997 18.2861 1.25 18.9531V18.9532L1.25 19L1.25 19.0468V19.0468C1.24997 19.7139 1.24995 20.2838 1.3071 20.7393C1.36766 21.2219 1.50362 21.6887 1.86176 22.0724C2.22675 22.4635 2.68262 22.6191 3.15689 22.6874C3.59196 22.7501 4.13274 22.75 4.74877 22.75Z" fill="#141B34"/>
<path d="M4.74877 8.75L4.8 8.74999H6.2L6.25124 8.75C6.86726 8.75004 7.40805 8.75009 7.84312 8.68741C8.31739 8.6191 8.77325 8.46345 9.13824 8.07239C9.49639 7.68867 9.63235 7.22192 9.69291 6.73928C9.75006 6.28384 9.75003 5.71392 9.75 5.04681V5.04679V4.9532V4.95318C9.75003 4.28607 9.75006 3.71615 9.69291 3.26071C9.63235 2.77807 9.49639 2.31132 9.13824 1.9276C8.77325 1.53654 8.31739 1.38089 7.84312 1.31257C7.40805 1.2499 6.86727 1.24994 6.25125 1.24999H6.25123L6.2 1.24999L4.8 1.24999L4.74877 1.24999H4.74876C4.13274 1.24994 3.59196 1.2499 3.15689 1.31257C2.68262 1.38089 2.22675 1.53654 1.86176 1.9276C1.50362 2.31132 1.36766 2.77807 1.3071 3.26071C1.24995 3.71614 1.24997 4.28606 1.25 4.95315V4.95319L1.25 4.99999L1.25 5.0468V5.04684C1.24997 5.71393 1.24995 6.28385 1.3071 6.73928C1.36766 7.22192 1.50362 7.68867 1.86176 8.07239C2.22675 8.46345 2.68262 8.6191 3.15689 8.68741C3.59196 8.75009 4.13274 8.75004 4.74877 8.75Z" fill="#141B34"/>
</svg>
