<svg width="24" height="24" viewBox="0 0 24 24" fill="none" xmlns="http://www.w3.org/2000/svg">
<path d="M5 15.25C7.07107 15.25 8.75 16.9289 8.75 19C8.75 21.0711 7.07107 22.75 5 22.75C2.92893 22.75 1.25 21.0711 1.25 19C1.25 16.9289 2.92893 15.25 5 15.25Z" fill="#141B34"/>
<path d="M19 15.25C21.0711 15.25 22.75 16.9289 22.75 19C22.75 21.0711 21.0711 22.75 19 22.75C16.9289 22.75 15.25 21.0711 15.25 19C15.25 16.9289 16.9289 15.25 19 15.25Z" fill="#141B34"/>
<path d="M12 1.25C14.6234 1.25 16.75 3.37665 16.75 6C16.75 8.62335 14.6234 10.75 12 10.75C9.37665 10.75 7.25 8.62335 7.25 6C7.25 3.37665 9.37665 1.25 12 1.25Z" fill="#141B34"/>
<path opacity="0.4" d="M9.65245 12C7.95485 12 6.55493 12.1169 5.57086 12.7322C4.61086 13.3324 4.21685 14.2725 4.06152 15.3683C4.36135 15.2911 4.67569 15.25 4.99962 15.25C5.37576 15.25 5.73895 15.3054 6.08151 15.4084C6.20069 14.8034 6.40201 14.5713 6.63114 14.428C7.06534 14.1566 7.90042 14 9.65245 14L14.3469 14C16.0989 14 16.934 14.1566 17.3682 14.428C17.5973 14.5713 17.7986 14.8034 17.9178 15.4084C18.2604 15.3054 18.6235 15.25 18.9996 15.25C19.3236 15.25 19.638 15.2911 19.9378 15.3683C19.7825 14.2725 19.3885 13.3324 18.4285 12.7322C17.4444 12.1169 16.0445 12 14.3469 12H9.65245Z" fill="#141B34"/>
</svg>
