<svg width="24" height="24" viewBox="0 0 24 24" fill="none" xmlns="http://www.w3.org/2000/svg">
<path d="M8.75 16.375C8.75 14.5801 10.2051 13.125 12 13.125C13.7949 13.125 15.25 14.5801 15.25 16.375C15.25 18.1699 13.7949 19.625 12 19.625C10.2051 19.625 8.75 18.1699 8.75 16.375Z" fill="#141B34"/>
<path d="M7.75887 2.09252C8.28551 1.37015 9.16897 1.125 10.2857 1.125H13.7143C14.831 1.125 15.7145 1.37015 16.2411 2.09252C16.7171 2.74538 16.75 3.61777 16.75 4.375C16.75 5.13223 16.7171 6.00462 16.2411 6.65748C15.7145 7.37985 14.831 7.625 13.7143 7.625H10.2857C9.16897 7.625 8.28551 7.37985 7.75887 6.65748C7.28291 6.00462 7.25 5.13223 7.25 4.375C7.25 3.61777 7.28291 2.74538 7.75887 2.09252Z" fill="#141B34"/>
<path d="M3.95526 12.125L4.00001 12.125L4.04476 12.125C4.47757 12.125 4.8744 12.1249 5.19721 12.1683C5.55269 12.2161 5.92842 12.3285 6.23744 12.6376C6.54647 12.9466 6.65891 13.3223 6.70671 13.6778C6.75011 14.0006 6.75006 14.3974 6.75001 14.8302V14.8303L6.75001 14.875L6.75001 14.9198V14.9198C6.75006 15.3526 6.75011 15.7494 6.70671 16.0722C6.65891 16.4277 6.54647 16.8034 6.23744 17.1124C5.92842 17.4215 5.55269 17.5339 5.19721 17.5817C4.8744 17.6251 4.47758 17.6251 4.04476 17.625H4.04475L4.00001 17.625L3.95526 17.625H3.95525C3.52244 17.6251 3.12561 17.6251 2.8028 17.5817C2.44732 17.5339 2.07159 17.4215 1.76257 17.1124C1.45355 16.8034 1.3411 16.4277 1.29331 16.0722C1.24991 15.7494 1.24995 15.3526 1.25 14.9198L1.25001 14.875L1.25 14.8303C1.24995 14.3974 1.24991 14.0006 1.29331 13.6778C1.3411 13.3223 1.45355 12.9466 1.76257 12.6376C2.07159 12.3285 2.44732 12.2161 2.8028 12.1683C3.12561 12.1249 3.52244 12.125 3.95526 12.125Z" fill="#141B34"/>
<path d="M19.9553 12.125L20 12.125L20.0448 12.125C20.4776 12.125 20.8744 12.1249 21.1972 12.1683C21.5527 12.2161 21.9284 12.3285 22.2374 12.6376C22.5465 12.9466 22.6589 13.3223 22.7067 13.6778C22.7501 14.0006 22.7501 14.3974 22.75 14.8302V14.8303L22.75 14.875L22.75 14.9198V14.9198C22.7501 15.3526 22.7501 15.7494 22.7067 16.0722C22.6589 16.4277 22.5465 16.8034 22.2374 17.1124C21.9284 17.4215 21.5527 17.5339 21.1972 17.5817C20.8744 17.6251 20.4776 17.6251 20.0448 17.625H20.0448L20 17.625L19.9553 17.625H19.9553C19.5224 17.6251 19.1256 17.6251 18.8028 17.5817C18.4473 17.5339 18.0716 17.4215 17.7626 17.1124C17.4535 16.8034 17.3411 16.4277 17.2933 16.0722C17.2499 15.7494 17.25 15.3526 17.25 14.9198L17.25 14.875L17.25 14.8303C17.25 14.3974 17.2499 14.0006 17.2933 13.6778C17.3411 13.3223 17.4535 12.9466 17.7626 12.6376C18.0716 12.3285 18.4473 12.2161 18.8028 12.1683C19.1256 12.1249 19.5224 12.125 19.9553 12.125Z" fill="#141B34"/>
<g opacity="0.4">
<path d="M11 7.625V9.875H7.9876C6.62895 9.875 5.47937 9.95759 4.62766 10.3637C4.16674 10.5835 3.78461 10.8997 3.50313 11.3332C3.34014 11.5842 3.22334 11.8554 3.13965 12.1383C3.38728 12.1249 3.663 12.125 3.95512 12.125H4.04463C4.47744 12.125 4.87428 12.1249 5.19708 12.1683C5.26949 12.178 5.34274 12.1905 5.4161 12.2067C5.43839 12.194 5.46245 12.1814 5.48851 12.169C5.88295 11.9809 6.60335 11.875 7.9876 11.875H11V13.2817C11.315 13.18 11.651 13.125 11.9999 13.125C12.3488 13.125 12.6849 13.18 13 13.2818V11.875H16.0154C17.3997 11.875 18.1191 11.9809 18.5126 12.1688C18.5386 12.1812 18.5626 12.1937 18.5848 12.2064C18.6578 12.1903 18.7306 12.178 18.8027 12.1683C19.1255 12.1249 19.5223 12.125 19.9551 12.125H20.0446C20.3369 12.125 20.6127 12.1249 20.8605 12.1383C20.7769 11.8556 20.6604 11.5847 20.4977 11.3338C20.2167 10.9003 19.835 10.5839 19.3742 10.3639C18.523 9.95754 17.3739 9.875 16.0154 9.875H13V7.625H11Z" fill="#141B34"/>
<path d="M11 19.4683C11.315 19.57 11.651 19.625 11.9999 19.625C12.3488 19.625 12.6849 19.57 13 19.4682V21.875C13 22.4273 12.5523 22.875 12 22.875C11.4477 22.875 11 22.4273 11 21.875V19.4683Z" fill="#141B34"/>
</g>
</svg>
