<svg width="24" height="24" viewBox="0 0 24 24" fill="none" xmlns="http://www.w3.org/2000/svg">
<path fill-rule="evenodd" clip-rule="evenodd" d="M1.25 12C1.25 6.06294 6.06294 1.25 12 1.25C17.9371 1.25 22.75 6.06294 22.75 12C22.75 12.1575 22.7466 12.3142 22.7399 12.47C22.5643 12.3127 22.3809 12.1729 22.197 12.0488C21.14 11.3355 19.825 10.9851 19.0603 10.7892C18.5464 10.6575 18.0054 10.8646 17.7107 11.3056C17.416 11.7467 17.4318 12.3257 17.7501 12.7501C18.1919 13.3393 18.1689 13.7467 18.1287 14.4596L18.1252 14.5224C18.1045 14.8917 18.0729 15.4611 18.2585 16.0523C18.4602 16.6946 18.8714 17.2413 19.5048 17.7117C19.88 17.9902 20.3178 18.1586 20.7678 18.2215C18.8196 20.9621 15.6186 22.75 12 22.75C8.38143 22.75 5.18044 20.9621 3.23223 18.2215C3.68217 18.1586 4.12003 17.9902 4.49517 17.7117C5.12862 17.2413 5.53982 16.6946 5.74148 16.0523C5.92708 15.4611 5.89546 14.8917 5.87482 14.5224L5.87128 14.4596C5.83105 13.7467 5.80805 13.3393 6.24994 12.7501C6.56821 12.3257 6.58398 11.7467 6.28928 11.3056C5.99457 10.8646 5.45357 10.6575 4.93971 10.7892C4.17503 10.9851 2.86001 11.3355 1.80298 12.0488C1.61906 12.1729 1.43569 12.3127 1.26009 12.47C1.25339 12.3142 1.25 12.1575 1.25 12ZM12 18C14.2091 18 16 16.2091 16 14L8 14C8 16.2091 9.79086 18 12 18ZM7.75 9.5C7.75 9.08579 8.08579 8.75 8.5 8.75C8.91421 8.75 9.25 9.08579 9.25 9.5H10.75C10.75 8.25736 9.74264 7.25 8.5 7.25C7.25736 7.25 6.25 8.25736 6.25 9.5H7.75ZM14.75 9.5C14.75 9.08579 15.0858 8.75 15.5 8.75C15.9142 8.75 16.25 9.08579 16.25 9.5H17.75C17.75 8.25736 16.7426 7.25 15.5 7.25C14.2574 7.25 13.25 8.25736 13.25 9.5H14.75Z" fill="#141B34"/>
<path d="M5.25 12C3.69452 12.3985 0.79103 13.2338 1.31165 15.782C1.58013 17.0421 2.98652 17.275 3.75 16.708C5.58821 15.343 3.75 14 5.25 12Z" fill="#141B34"/>
<path d="M18.75 12C20.3055 12.3985 23.209 13.2338 22.6883 15.782C22.4199 17.0421 21.0135 17.275 20.25 16.708C18.4118 15.343 20.25 14 18.75 12Z" fill="#141B34"/>
</svg>
