<svg width="24" height="24" viewBox="0 0 24 24" fill="none" xmlns="http://www.w3.org/2000/svg">
<path d="M10 4C10 5.10457 10.8954 6 12 6C13.1046 6 14 5.10457 14 4C14 2.89543 13.1046 2 12 2C10.8954 2 10 2.89543 10 4Z" fill="white"/>
<path d="M10 4C10 5.10457 10.8954 6 12 6C13.1046 6 14 5.10457 14 4C14 2.89543 13.1046 2 12 2C10.8954 2 10 2.89543 10 4Z" stroke="#141B34" stroke-width="1.5"/>
<path d="M7.88598 10C8.57173 11.3968 9.30442 12.7049 9.1352 14.3142C8.86468 16.8869 5.74512 17.8552 3.75022 19.0404C2.44325 19.8169 2.9319 22 4.53582 22C6.48047 22 8.21607 21.8448 9.9706 21.0201L11.9057 19.8293L13.8817 21.0201C15.6734 21.8448 17.4458 22 19.4316 22C21.0695 22 21.5685 19.8169 20.2339 19.0404C18.1967 17.8552 15.0111 16.8869 14.7348 14.3142C14.562 12.7049 15.3102 11.3968 16.0105 10L16.1796 9.69528C15.0992 8.64603 13.625 8 12 8C10.3501 8 8.85575 8.66594 7.77106 9.7437L7.88598 10Z" fill="#D4D7E0"/>
<path d="M9.9706 21.0201L10.2897 21.6988C10.3151 21.6869 10.3398 21.6735 10.3637 21.6588L9.9706 21.0201ZM13.4111 18.9028L13.0921 18.2241C13.0666 18.236 13.0419 18.2494 13.018 18.2641L13.4111 18.9028ZM9.1352 14.3142L9.88108 14.3927V14.3927L9.1352 14.3142ZM7.88598 10L7.20162 10.3068C7.20518 10.3148 7.20889 10.3227 7.21273 10.3305L7.88598 10ZM3.75022 19.0404L4.13329 19.6852H4.13329L3.75022 19.0404ZM14.6955 19.6854C15.074 19.8536 15.5172 19.683 15.6854 19.3045C15.8536 18.926 15.683 18.4828 15.3045 18.3146L14.6955 19.6854ZM13.8817 21.0201L13.4946 21.6625C13.5184 21.6768 13.5429 21.6898 13.5681 21.7014L13.8817 21.0201ZM10.3683 18.9028L10.7554 18.2604C10.7317 18.2461 10.7071 18.2331 10.6819 18.2215L10.3683 18.9028ZM14.7348 14.3142L13.9891 14.3943V14.3943L14.7348 14.3142ZM16.0105 10L15.3548 9.63601C15.3497 9.6452 15.3447 9.65449 15.34 9.66388L16.0105 10ZM20.2339 19.0404L19.8567 19.6887H19.8567L20.2339 19.0404ZM8.76484 18.1906C8.37151 18.3205 8.15794 18.7447 8.28782 19.138C8.4177 19.5313 8.84184 19.7449 9.23516 19.615L8.76484 18.1906ZM7.45625 10.0814L6.88851 9.59131L6.88851 9.59131L7.45625 10.0814ZM6.89335 11.4291L6.15618 11.291V11.291L6.89335 11.4291ZM3 15.25C2.58579 15.25 2.25 15.5858 2.25 16C2.25 16.4142 2.58579 16.75 3 16.75V15.25ZM16.5437 10.0814L15.976 10.5715V10.5715L16.5437 10.0814ZM17.1067 11.4291L17.8438 11.291L17.1067 11.4291ZM21 16.75C21.4142 16.75 21.75 16.4142 21.75 16C21.75 15.5858 21.4142 15.25 21 15.25V16.75ZM7.77106 9.7437L7.24243 9.21168V9.21168L7.77106 9.7437ZM9.88108 14.3927C10.0777 12.5225 9.21161 10.9984 8.55922 9.66948L7.21273 10.3305C7.93185 11.7953 8.5311 12.8873 8.38931 14.2358L9.88108 14.3927ZM3.36714 18.3956C2.37706 18.9839 2.10028 20.0911 2.32345 20.9918C2.55036 21.9075 3.32939 22.75 4.53582 22.75V21.25C4.13833 21.25 3.87108 21.0009 3.77942 20.631C3.68403 20.246 3.81641 19.8735 4.13329 19.6852L3.36714 18.3956ZM9.65154 20.3413C8.04678 21.0957 6.44341 21.25 4.53582 21.25V22.75C6.51754 22.75 8.38536 22.594 10.2897 21.6988L9.65154 20.3413ZM8.38931 14.2358C8.28868 15.1927 7.66501 15.9096 6.67207 16.5744C6.17892 16.9046 5.62655 17.2006 5.05144 17.4972C4.49024 17.7865 3.89109 18.0844 3.36714 18.3956L4.13329 19.6852C4.6068 19.4039 5.14568 19.1362 5.73892 18.8303C6.31825 18.5316 6.93672 18.2024 7.50664 17.8208C8.63983 17.0621 9.71119 16.0084 9.88108 14.3927L8.38931 14.2358ZM13.7302 19.5816C13.9234 19.4907 14.2763 19.4992 14.6955 19.6854L15.3045 18.3146C14.7062 18.0488 13.8539 17.8659 13.0921 18.2241L13.7302 19.5816ZM15.4805 14.2342C15.3363 12.891 15.9457 11.8028 16.681 10.3361L15.34 9.66388C14.6748 10.9909 13.7877 12.5188 13.9891 14.3943L15.4805 14.2342ZM19.8567 19.6887C20.1866 19.8806 20.3155 20.2516 20.2204 20.6274C20.129 20.9887 19.857 21.25 19.4316 21.25V22.75C20.6441 22.75 21.4407 21.9198 21.6746 20.9954C21.9048 20.0856 21.6158 18.9767 20.611 18.3922L19.8567 19.6887ZM13.5681 21.7014C15.5076 22.5941 17.4098 22.75 19.4316 22.75V21.25C17.4818 21.25 15.8393 21.0955 14.1953 20.3388L13.5681 21.7014ZM13.9891 14.3943C14.1632 16.0157 15.2599 17.0689 16.4128 17.8248C16.9938 18.2058 17.6245 18.5345 18.216 18.8332C18.8214 19.1389 19.3725 19.407 19.8567 19.6887L20.611 18.3922C20.0767 18.0813 19.4657 17.7839 18.8921 17.4943C18.3047 17.1976 17.7398 16.9013 17.2353 16.5704C16.217 15.9027 15.5827 15.1854 15.4805 14.2342L13.9891 14.3943ZM10.6819 18.2215C10.0321 17.9224 9.31744 18.0082 8.76484 18.1906L9.23516 19.615C9.5981 19.4952 9.88427 19.5057 10.0547 19.5841L10.6819 18.2215ZM6.15618 11.291C5.99235 12.1651 5.65824 13.197 5.11427 13.99C4.57972 14.7692 3.89809 15.25 3 15.25V16.75C4.54777 16.75 5.63798 15.8782 6.35122 14.8385C7.05504 13.8125 7.44467 12.5589 7.63051 11.5673L6.15618 11.291ZM6.88851 9.59131C6.43265 10.1194 6.25464 10.7656 6.15618 11.291L7.63051 11.5673C7.71461 11.1185 7.83227 10.7936 8.024 10.5715L6.88851 9.59131ZM16.3695 11.5673C16.5553 12.5589 16.945 13.8125 17.6488 14.8385C18.362 15.8782 19.4522 16.75 21 16.75V15.25C20.1019 15.25 19.4203 14.7692 18.8857 13.99C18.3418 13.197 18.0076 12.1651 17.8438 11.291L16.3695 11.5673ZM15.976 10.5715C16.1677 10.7936 16.2854 11.1185 16.3695 11.5673L17.8438 11.291C17.7454 10.7656 17.5674 10.1194 17.1115 9.59131L15.976 10.5715ZM12 8.75C13.4222 8.75 14.711 9.31451 15.6571 10.2333L16.7021 9.15724C15.4874 7.97756 13.8279 7.25 12 7.25V8.75ZM15.6571 10.2333C15.7683 10.3413 15.8747 10.4541 15.976 10.5715L17.1115 9.59131C16.9814 9.44065 16.8448 9.29582 16.7021 9.15724L15.6571 10.2333ZM16.6663 10.364L16.8354 10.0593L15.5239 9.33129L15.3548 9.63601L16.6663 10.364ZM12 7.25C10.1441 7.25 8.4619 8 7.24243 9.21168L8.29969 10.2757C9.24959 9.33189 10.5561 8.75 12 8.75V7.25ZM7.24243 9.21168C7.1197 9.33362 7.00163 9.46026 6.88851 9.59131L8.024 10.5715C8.1121 10.4694 8.20408 10.3707 8.29969 10.2757L7.24243 9.21168ZM8.57034 9.69316L8.45542 9.43686L7.0867 10.0505L7.20162 10.3068L8.57034 9.69316ZM14.2688 20.3777L12.2928 19.1869L11.5185 20.4716L13.4946 21.6625L14.2688 20.3777ZM12.2928 19.1869L10.7554 18.2604L9.9812 19.5452L11.5185 20.4716L12.2928 19.1869ZM10.3637 21.6588L12.2987 20.468L11.5126 19.1905L9.57752 20.3813L10.3637 21.6588ZM12.2987 20.468L13.8042 19.5416L13.018 18.2641L11.5126 19.1905L12.2987 20.468Z" fill="#141B34"/>
</svg>
