<svg width="24" height="24" viewBox="0 0 24 24" fill="none" xmlns="http://www.w3.org/2000/svg">
<path opacity="0.4" d="M15.904 2.81517C16.3081 2.495 16.7601 2.25 17.3204 2.25C17.9206 2.25 18.55 2.59336 19.0615 2.94961C19.6118 3.33282 20.183 3.84484 20.699 4.3855C21.2158 4.92699 21.6961 5.51713 22.0578 6.06724C22.2386 6.34216 22.397 6.61807 22.5154 6.88136C22.6295 7.13496 22.7281 7.42332 22.7458 7.71158C22.775 8.18841 22.6507 8.59065 22.4412 8.97893C22.254 9.3261 21.9771 9.69797 21.6695 10.1113L21.6695 10.1113C20.4405 11.7626 18.4214 14.2474 15.6192 17.2905L15.6192 17.2906C15.1485 17.8017 14.7433 18.2419 14.3707 18.548C13.9705 18.8769 13.5209 19.1262 12.9564 19.1328C12.1219 19.1425 11.4623 18.6396 11.0089 18.2051C10.7701 17.9762 10.5508 17.7285 10.3602 17.5088C10.2113 17.3363 9.97403 17.0617 9.85424 16.9373C9.29927 16.361 9.08217 16.3399 9.04674 16.3428C9.01913 16.345 8.80125 16.3923 8.34277 17.0882L6.05291 20.5639C5.12842 21.9671 3.17892 22.1635 2.00959 20.9491C0.996803 19.8973 0.996804 18.2033 2.00959 17.1515L14.6199 4.05549L14.6199 4.05548C15.1074 3.54917 15.525 3.11547 15.904 2.81517Z" fill="#141B34"/>
<path fill-rule="evenodd" clip-rule="evenodd" d="M17 8C17 7.44772 17.4457 7 17.9955 7H18.0045C18.5543 7 19 7.44772 19 8C19 8.55228 18.5543 9 18.0045 9H17.9955C17.4457 9 17 8.55228 17 8Z" fill="#141B34"/>
</svg>
