<svg width="24" height="24" viewBox="0 0 24 24" fill="none" xmlns="http://www.w3.org/2000/svg">
<path d="M15.3056 4.32152L15.3217 4.36171L15.6608 5.07839C15.7104 5.18322 15.816 5.25008 15.932 5.25008H20C20.5523 5.25008 21 5.69779 21 6.25008C21 6.80236 20.5523 7.25008 20 7.25008H15.0225C15.0072 7.25043 14.992 7.25043 14.9767 7.25008H9.02326C9.00804 7.25043 8.99277 7.25043 8.97747 7.25008H4C3.44772 7.25008 3 6.80236 3 6.25008C3 5.69779 3.44772 5.25008 4 5.25008H8.068C8.18398 5.25008 8.28958 5.18322 8.33918 5.07839L8.67828 4.36171L8.69436 4.32152C9.07402 3.37238 9.99329 2.75 11.0155 2.75H12.9845C14.0067 2.75 14.926 3.37238 15.3056 4.32152Z" fill="#141B34"/>
<path opacity="0.4" fill-rule="evenodd" clip-rule="evenodd" d="M3.3378 10.5L3.7617 15.1629C3.87548 16.4147 3.96745 17.4266 4.14434 18.22C4.32833 19.0453 4.62348 19.7327 5.21086 20.2691C5.79824 20.8055 6.50955 21.0372 7.34809 21.1457C8.15426 21.25 9.17033 21.25 10.4273 21.25H10.4273H10.4273H13.5727H13.5727H13.5727C14.8296 21.25 15.8457 21.25 16.6519 21.1457C17.4904 21.0372 18.2017 20.8055 18.7891 20.2691C19.3765 19.7327 19.6716 19.0453 19.8556 18.22C20.0325 17.4266 20.1245 16.4148 20.2382 15.1631L20.2383 15.163L20.2383 15.1629L20.6622 10.5H21.5C22.0523 10.5 22.5 10.0523 22.5 9.5C22.5 8.94771 22.0523 8.5 21.5 8.5L2.5 8.5C1.94772 8.5 1.5 8.94771 1.5 9.5C1.5 10.0523 1.94772 10.5 2.5 10.5H3.3378Z" fill="#141B34"/>
</svg>
