<svg width="24" height="24" viewBox="0 0 24 24" fill="none" xmlns="http://www.w3.org/2000/svg">
<path d="M13.3635 1.25C12.858 1.25003 12.4482 1.67522 12.4482 2.19972V10.9254C12.5848 10.7764 12.7425 10.6455 12.9241 10.5377C13.2952 10.3172 13.7401 10.2079 14.2584 10.2079C14.4382 10.2079 14.5978 10.3273 14.6547 10.5043L16.3256 15.7057C16.3985 15.9328 16.2802 16.1783 16.0614 16.254C15.8425 16.3297 15.6059 16.207 15.533 15.9799L13.9627 11.0915C13.7046 11.1223 13.5014 11.1937 13.3392 11.29C13.1212 11.4195 12.9518 11.6092 12.82 11.8627C12.5462 12.3893 12.4482 13.1624 12.4482 14.1088V17.8519C12.4482 19.4803 13.5654 20.8594 15.0881 21.231C15.533 21.3396 16.0285 21.2569 16.7769 21.1991C18.6033 21.0582 20.1577 21.6625 21.3733 22.3297C21.9994 22.6733 22.3124 22.8451 22.522 22.696C22.7316 22.5469 22.7327 22.1667 22.7349 21.4065L22.748 16.9339C22.7492 16.5122 22.7498 16.3013 22.6572 16.1635C22.6514 16.155 22.6477 16.1497 22.6415 16.1416C22.5423 16.0098 22.3256 15.9583 21.8922 15.8553C21.4625 15.7532 21.0312 15.5524 20.4676 15.1876C19.8736 14.7431 19.1582 13.9154 18.7194 13.0404C18.2844 12.1732 17.8333 11.029 17.2469 9.54148L14.2106 1.84012C14.0699 1.48318 13.7351 1.24998 13.3635 1.25Z" fill="#141B34"/>
<path d="M10.6356 1.25C11.141 1.25003 11.5508 1.67522 11.5508 2.19972V10.9254C11.4143 10.7764 11.2565 10.6455 11.0749 10.5377C10.7038 10.3172 10.2589 10.2079 9.74062 10.2079C9.56083 10.2079 9.40121 10.3273 9.34435 10.5043L7.67345 15.7057C7.6005 15.9328 7.71878 16.1783 7.93765 16.254C8.15651 16.3297 8.39308 16.207 8.46603 15.9799L10.0364 11.0915C10.2944 11.1223 10.4977 11.1937 10.6598 11.29C10.8779 11.4195 11.0472 11.6092 11.179 11.8627C11.4528 12.3893 11.5508 13.1624 11.5508 14.1088V17.8519C11.5508 19.4803 10.4336 20.8594 8.91095 21.231C8.46603 21.3396 7.97056 21.2569 7.22214 21.1991C5.39575 21.0582 3.8413 21.6625 2.62569 22.3297C1.99963 22.6733 1.6866 22.8451 1.47703 22.696C1.26745 22.5469 1.26634 22.1667 1.26412 21.4065L1.25104 16.9339C1.24981 16.5122 1.24919 16.3013 1.34186 16.1635C1.34758 16.155 1.35136 16.1497 1.35748 16.1416C1.45672 16.0098 1.67344 15.9583 2.10684 15.8553C2.53657 15.7532 2.96782 15.5524 3.53143 15.1876C4.12541 14.7431 4.84078 13.9154 5.27966 13.0404C5.71462 12.1732 6.16571 11.029 6.75216 9.54148L9.78841 1.84012C9.92913 1.48318 10.2639 1.24998 10.6356 1.25Z" fill="#141B34"/>
</svg>
