<svg width="24" height="24" viewBox="0 0 24 24" fill="none" xmlns="http://www.w3.org/2000/svg">
<path d="M11.9441 4.09597C12.2278 3.00867 13.2098 2.25 14.3334 2.25C15.9262 2.25 17.1023 3.73562 16.7368 5.28586L15.721 9.59476L16.6078 9.73652L16.6306 9.73993C17.5726 9.88123 18.3158 9.99271 18.9068 10.1211C19.5075 10.2516 20.0095 10.4109 20.4506 10.6752C21.7281 11.4405 22.75 12.6634 22.75 14.4737C22.75 15.5607 22.4875 16.3447 21.9726 17.8826C21.6188 18.9449 21.2216 20.136 20.8418 20.689C20.218 21.5974 19.2978 22.2606 18.2388 22.5651C17.5941 22.7505 16.8759 22.7504 15.7561 22.7501L14.4266 22.7501H14.4265C12.9341 22.7506 11.9702 22.7508 11.0988 22.3916C10.9429 22.3274 10.7904 22.2548 10.6422 22.1743C9.81393 21.7245 9.20629 20.9762 8.26549 19.8176L4.80732 15.5614C4.06869 14.6523 4.06376 13.3512 4.79549 12.4366C5.67497 11.3372 7.29041 11.1854 8.35934 12.1016L9.58227 13.1498L11.9441 4.09597Z" fill="#141B34"/>
<path d="M10.5303 1.46967C10.2374 1.17678 9.76256 1.17678 9.46967 1.46967L8.25595 2.68339L7.57256 2C7.44797 1.83096 7.25348 1.7149 7.02771 1.69707C6.61478 1.66444 6.25359 1.97274 6.22097 2.38566L6.1068 3.83054L6.1068 3.83055C6.08342 4.12564 6.06024 4.4181 6.07373 4.65884C6.08865 4.92503 6.15337 5.27615 6.43831 5.56109C6.72324 5.84602 7.07436 5.91074 7.34055 5.92566C7.5813 5.93915 7.87377 5.91597 8.16887 5.89259L9.61375 5.77842C10.0267 5.7458 10.335 5.38461 10.3023 4.97168C10.2845 4.74588 10.1684 4.55136 9.99933 4.42677L9.31661 3.74405L10.5303 2.53033C10.8232 2.23744 10.8232 1.76256 10.5303 1.46967Z" fill="#141B34"/>
<path d="M3.83187 6.10782L2.38537 6.22212C1.97245 6.25474 1.66415 6.61593 1.69677 7.02886C1.71462 7.25476 1.83081 7.44934 2 7.57393L2.6827 8.25663L1.46967 9.46967C1.17678 9.76256 1.17678 10.2374 1.46967 10.5303C1.76256 10.8232 2.23744 10.8232 2.53033 10.5303L3.74337 9.31729L4.4264 10.0003C4.55098 10.1695 4.74554 10.2856 4.97141 10.3035C5.38434 10.3361 5.74553 10.0278 5.77815 9.61488L5.89231 8.17016C5.9157 7.87499 5.93888 7.58242 5.92539 7.34157C5.91048 7.07545 5.84581 6.72417 5.56081 6.43918C5.27571 6.15408 4.92437 6.08954 4.6583 6.07473C4.4181 6.06136 4.12627 6.08449 3.83187 6.10782Z" fill="#141B34"/>
</svg>
