<svg width="24" height="24" viewBox="0 0 24 24" fill="none" xmlns="http://www.w3.org/2000/svg">
<path d="M16.0919 2.07151C16.0966 2.15078 16.1094 2.36845 16.114 2.49138C16.1235 2.74224 16.1306 3.0868 16.1197 3.45294C16.109 3.81295 16.0803 4.22463 16.0094 4.59889C15.9739 4.78628 15.9234 4.98858 15.8476 5.18134C15.7757 5.36433 15.6557 5.60457 15.4462 5.80713C15.0728 6.16821 14.5548 6.27291 14.2538 6.31704C13.8944 6.36974 13.5066 6.3768 13.1728 6.36853C12.8327 6.36009 12.5149 6.33469 12.2844 6.31186C12.1717 6.3007 11.9715 6.27621 11.8977 6.26717L11.8913 6.26639C11.5179 6.21392 11.2054 5.9558 11.0837 5.59888C10.962 5.24196 11.0514 4.84691 11.3149 4.57719L12.0324 3.84294C9.32782 2.27889 5.6469 3.33035 4.01903 6.57493C3.77136 7.06857 3.17041 7.26797 2.67677 7.0203C2.18314 6.77263 1.98374 6.17168 2.23141 5.67805C4.41127 1.33327 9.72925 -0.191054 13.4741 2.36753L14.3791 1.44133C14.6537 1.16029 15.0675 1.06612 15.4367 1.20063C15.8058 1.33515 16.0621 1.67366 16.0915 2.06549L16.0919 2.07151Z" fill="#141B34"/>
<path d="M20.2216 8.45332C20.7366 8.15578 21.4119 8.33864 21.7228 8.8779C22.0314 9.41334 21.8539 10.0803 21.3431 10.3755L14.7507 14.1846C14.5403 14.3062 14.4667 14.5782 14.5862 14.7922C14.7058 15.0062 14.9733 15.0811 15.1837 14.9595L20.0181 12.1661C20.5331 11.8686 21.2085 12.0514 21.5193 12.5907C21.8279 13.1262 21.6504 13.7932 21.1396 14.0883L15.4262 17.3896C15.2158 17.5112 15.1422 17.7832 15.2617 17.9972C15.3813 18.2111 15.6488 18.286 15.8592 18.1645L19.8146 15.879C20.3296 15.5814 21.005 15.7643 21.3158 16.3035C21.6244 16.839 21.4469 17.506 20.9361 17.8011L15.5156 20.9332C14.5555 21.4879 13.8533 21.8934 13.2749 22.1794C12.6998 22.4637 12.2734 22.616 11.8697 22.6774C11.4164 22.7464 10.6638 22.6349 10.0409 22.5042C9.41862 22.3737 8.75043 22.4454 8.17805 22.7761C7.82056 22.9827 7.36304 22.8601 7.15701 22.5027L3.51117 16.1771C3.24635 15.7176 3.38538 15.1369 3.77619 14.7781C4.40792 14.1981 4.95662 13.4767 5.2521 12.7203L7.42666 7.15378C7.65126 6.62007 8.2088 6.3066 8.79088 6.40078C9.55846 6.52496 10.0503 7.29256 9.85908 8.0333L9.26996 10.3155C9.22521 10.4889 9.28697 10.6727 9.42672 10.7819C9.56647 10.8912 9.75699 10.9046 9.91026 10.8161L17.3481 6.51862C17.8632 6.22104 18.5385 6.40392 18.8493 6.9432C19.1578 7.47845 18.9806 8.14515 18.4702 8.44047L14.0753 10.9799C13.8649 11.1015 13.7913 11.3735 13.9108 11.5875C14.0304 11.8015 14.2979 11.8764 14.5083 11.7548L20.2216 8.45332Z" fill="#141B34"/>
</svg>
