<svg width="24" height="24" viewBox="0 0 24 24" fill="none" xmlns="http://www.w3.org/2000/svg">
<path d="M21.0372 20.7051C21.0375 20.9193 21.038 21.1992 20.9906 21.4006C20.8385 22.0465 20.3341 22.5509 19.6882 22.7029C19.4868 22.7503 19.2636 22.75 19.0494 22.7496H19.0494L14.3786 22.7496C14.0732 22.7504 13.7542 22.7512 13.4757 22.6566C13.3281 22.6065 13.1604 22.54 12.9971 22.4204C12.8339 22.3007 12.7199 22.1609 12.6276 22.0353C12.505 21.8683 12.4241 21.6547 12.3636 21.4844C12.296 21.2942 12.1897 20.9625 12.0917 20.6526C12.0128 20.4347 11.8705 20.2362 11.378 19.5955L8.71607 16.1327C8.09671 15.3525 8.09428 14.2427 8.71102 13.4597C9.45892 12.5101 10.8407 12.3758 11.754 13.1708L11.7554 13.1721L12.25 13.6048V7.49951C12.25 6.25687 13.2574 5.24951 14.5 5.24951C15.7426 5.24951 16.75 6.25687 16.75 7.49951V11.2345C18.2645 11.3143 20.3454 11.8202 21.9763 13.4362C22.7898 14.2423 22.8272 15.4107 22.6862 16.3379C22.5398 17.3006 22.167 18.2492 21.8607 18.8789C21.7708 19.0638 21.3858 19.7589 21.2889 19.9295C21.1154 20.2711 21.0372 20.5185 21.0372 20.7051Z" fill="#141B34"/>
<path d="M14.0261 1.24951C15.8081 1.24949 17.2444 1.24946 18.3741 1.40058C19.547 1.55747 20.5345 1.89312 21.3188 2.67348C22.1031 3.45385 22.4405 4.43641 22.5982 5.60336C22.75 6.72736 22.75 8.15649 22.75 9.92953V10.0006C22.75 10.5377 22.3125 10.973 21.7727 10.973C21.233 10.973 20.7955 10.5377 20.7955 10.0006C20.7955 8.13968 20.7934 6.84178 20.6611 5.86249C20.5325 4.91118 20.2974 4.40741 19.9367 4.04859C19.5761 3.68978 19.0698 3.45584 18.1137 3.32794C17.1294 3.19627 15.8249 3.19421 13.9545 3.19421H10.0455C8.17507 3.19421 6.87058 3.19627 5.88634 3.32794C4.93021 3.45584 4.42389 3.68978 4.06326 4.04859C3.70263 4.40741 3.4675 4.91118 3.33895 5.86249C3.20662 6.84178 3.20455 8.13968 3.20455 10.0006V11.9453C3.20455 12.8648 3.20508 13.5056 3.23948 14.0073C3.27328 14.5002 3.33648 14.7872 3.42772 15.0063C3.72528 15.7211 4.29603 16.289 5.01441 16.585C5.38829 16.7391 5.89873 16.7954 7.12123 16.8048C7.66095 16.809 8.09508 17.2477 8.09088 17.7847C8.08668 18.3217 7.64576 18.7537 7.10604 18.7495C5.93651 18.7404 5.04583 18.7029 4.26643 18.3817C3.06914 17.8883 2.11789 16.9418 1.62195 15.7506C1.41563 15.2549 1.33005 14.7315 1.28946 14.1396C1.24999 13.564 1.24999 12.8567 1.25 11.9799V11.9799V9.92951V9.92949C1.24997 8.15647 1.24995 6.72735 1.40183 5.60336C1.55952 4.43641 1.89687 3.45385 2.68118 2.67348C3.4655 1.89312 4.45303 1.55747 5.6259 1.40058C6.75558 1.24946 8.19193 1.24949 9.97393 1.24951H9.97395H14.026H14.0261Z" fill="#141B34"/>
</svg>
