<svg width="24" height="24" viewBox="0 0 24 24" fill="none" xmlns="http://www.w3.org/2000/svg">
<path d="M18 19H22V3H2V19H6" stroke="#141B34" stroke-width="1.5" stroke-linejoin="round"/>
<path d="M17 7L7 7" stroke="#141B34" stroke-width="1.5" stroke-linejoin="round"/>
<path d="M15 14C15 15.6569 13.6569 17 12 17C10.3431 17 9 15.6569 9 14C9 12.3431 10.3431 11 12 11C13.6569 11 15 12.3431 15 14Z" stroke="#141B34" stroke-width="1.5"/>
<path d="M9 21H8.25C8.25 21.2599 8.38459 21.5013 8.6057 21.638C8.82681 21.7746 9.10292 21.7871 9.33541 21.6708L9 21ZM15 21L14.6646 21.6708C14.8971 21.7871 15.1732 21.7746 15.3943 21.638C15.6154 21.5013 15.75 21.2599 15.75 21H15ZM12 19.5L12.3354 18.8292L12 18.6615L11.6646 18.8292L12 19.5ZM8.25 14V21H9.75V14H8.25ZM15.75 21V14H14.25V21H15.75ZM15.3354 20.3292L12.3354 18.8292L11.6646 20.1708L14.6646 21.6708L15.3354 20.3292ZM11.6646 18.8292L8.66459 20.3292L9.33541 21.6708L12.3354 20.1708L11.6646 18.8292Z" fill="#141B34"/>
</svg>
