<svg width="24" height="24" viewBox="0 0 24 24" fill="none" xmlns="http://www.w3.org/2000/svg">
<path d="M21 20V20.75C21.4142 20.75 21.75 20.4142 21.75 20H21ZM13.5 20H12.75C12.75 20.4142 13.0858 20.75 13.5 20.75V20ZM13.5 14V13.25C13.0858 13.25 12.75 13.5858 12.75 14H13.5ZM22 14L22.6708 14.3354C22.7871 14.1029 22.7746 13.8268 22.638 13.6057C22.5013 13.3846 22.2599 13.25 22 13.25V14ZM21 16L20.3292 15.6646L20.25 15.8229V16H21ZM21 19.25H13.5V20.75H21V19.25ZM13.5 14.75H22V13.25H13.5V14.75ZM21.3292 13.6646L20.3292 15.6646L21.6708 16.3354L22.6708 14.3354L21.3292 13.6646ZM21.75 20V16H20.25V20H21.75ZM12.75 14V20H14.25V14H12.75Z" fill="#141B34"/>
<path d="M3 20H2.25C2.25 20.4142 2.58579 20.75 3 20.75V20ZM10.5 20V20.75C10.9142 20.75 11.25 20.4142 11.25 20H10.5ZM10.5 14H11.25C11.25 13.5858 10.9142 13.25 10.5 13.25V14ZM2 14V13.25C1.74007 13.25 1.49867 13.3846 1.36201 13.6057C1.22536 13.8268 1.21293 14.1029 1.32918 14.3354L2 14ZM3 16H3.75V15.8229L3.67082 15.6646L3 16ZM3 20.75H10.5V19.25H3V20.75ZM10.5 13.25H2V14.75H10.5V13.25ZM1.32918 14.3354L2.32918 16.3354L3.67082 15.6646L2.67082 13.6646L1.32918 14.3354ZM3.75 20V16H2.25V20H3.75ZM9.75 14V20H11.25V14H9.75Z" fill="#141B34"/>
<path d="M22 13.9999L17.5 4L16 5.5" stroke="#141B34" stroke-width="1.5" stroke-linejoin="round"/>
<path d="M2 13.9999L6.5 4L8 5.5" stroke="#141B34" stroke-width="1.5" stroke-linejoin="round"/>
<path d="M10.5 15.5H13.5" stroke="#141B34" stroke-width="1.5" stroke-linejoin="round"/>
</svg>
