<svg width="24" height="24" viewBox="0 0 24 24" fill="none" xmlns="http://www.w3.org/2000/svg">
<path d="M2 5V4.25H1.25V5H2ZM2 11H1.25V11.75H2V11ZM19.5 5V5.75H19.7077L19.8859 5.64312L19.5 5ZM22 11V11.75C22.4142 11.75 22.75 11.4142 22.75 11H22ZM3.96647 13.0841L4.69151 13.2763L4.69435 13.2649L3.96647 13.0841ZM2 20.5L1.27505 20.3078C1.21538 20.5328 1.2636 20.7728 1.40558 20.9573C1.54755 21.1419 1.76717 21.25 2 21.25V20.5ZM8.5 18.5L7.77532 18.3068L7.68149 18.6586L7.9 18.95L8.5 18.5ZM10 20.5V21.25C10.2841 21.25 10.5438 21.0895 10.6708 20.8354C10.7979 20.5813 10.7704 20.2773 10.6 20.05L10 20.5ZM22 3.5H22.75C22.75 3.2298 22.6047 2.98048 22.3695 2.84735C22.1344 2.71422 21.8458 2.71786 21.6141 2.85688L22 3.5ZM1.25 5V11H2.75V5H1.25ZM19.5 4.25H2V5.75H19.5V4.25ZM3.24153 12.8918L1.27505 20.3078L2.72495 20.6922L4.69142 13.2763L3.24153 12.8918ZM9.22468 18.6932L11.2247 11.1932L9.77532 10.8068L7.77532 18.3068L9.22468 18.6932ZM22 10.25H10.5V11.75H22V10.25ZM10.5 10.25H8V11.75H10.5V10.25ZM4.69435 13.2649C4.90673 12.41 4.50598 11.6326 4.0026 11.1283C3.49684 10.6216 2.75895 10.25 2 10.25V11.75C2.28956 11.75 2.66205 11.9086 2.94097 12.188C3.22228 12.4698 3.28051 12.7345 3.23859 12.9033L4.69435 13.2649ZM2 21.25H10V19.75H2V21.25ZM22.75 11V3.5H21.25V11H22.75ZM21.6141 2.85688L19.1141 4.35688L19.8859 5.64312L22.3859 4.14312L21.6141 2.85688ZM7.9 18.95L9.4 20.95L10.6 20.05L9.1 18.05L7.9 18.95Z" fill="#141B34"/>
<path d="M9 15H9.87689C10.8276 15 11.303 15 11.7196 14.9102C12.9146 14.6527 13.9263 13.8628 14.466 12.7659C14.6541 12.3835 14.7694 11.9224 15 11" stroke="#141B34" stroke-width="1.5" stroke-linejoin="round"/>
<path d="M2 8H6L8 5" stroke="#141B34" stroke-width="1.5"/>
<path d="M22 8L19 8" stroke="#141B34" stroke-width="1.5" stroke-linejoin="round"/>
</svg>
