<svg width="24" height="24" viewBox="0 0 24 24" fill="none" xmlns="http://www.w3.org/2000/svg">
<path d="M2 21H17C17 16.9066 13.6421 13.5882 9.5 13.5882C5.35786 13.5882 2 16.9066 2 21Z" stroke="#141B34" stroke-width="1.5"/>
<path d="M13.25 6.70588C13.25 8.75258 11.5711 10.4118 9.5 10.4118C7.42893 10.4118 5.75 8.75258 5.75 6.70588C5.75 4.65918 7.42893 3 9.5 3C11.5711 3 13.25 4.65918 13.25 6.70588Z" stroke="#141B34" stroke-width="1.5"/>
<path d="M16 12H15.25V12.75H16V12ZM16 10.125L15.4697 9.59467L15.25 9.81434V10.125H16ZM17.875 12V12.75H18.1857L18.4053 12.5303L17.875 12ZM20.125 6L20.6553 5.46967C20.5147 5.32902 20.3239 5.25 20.125 5.25C19.9261 5.25 19.7353 5.32902 19.5947 5.46967L20.125 6ZM22 7.875L22.5303 8.40533C22.8232 8.11244 22.8232 7.63756 22.5303 7.34467L22 7.875ZM16.75 12V10.125H15.25V12H16.75ZM16 12.75H17.875V11.25H16V12.75ZM16.5303 10.6553L20.6553 6.53033L19.5947 5.46967L15.4697 9.59467L16.5303 10.6553ZM19.5947 6.53033L21.4697 8.40533L22.5303 7.34467L20.6553 5.46967L19.5947 6.53033ZM21.4697 7.34467L17.3447 11.4697L18.4053 12.5303L22.5303 8.40533L21.4697 7.34467Z" fill="#141B34"/>
</svg>
