<svg width="24" height="24" viewBox="0 0 24 24" fill="none" xmlns="http://www.w3.org/2000/svg">
<path d="M2 21H17C17 16.9066 13.6421 13.5882 9.5 13.5882C5.35786 13.5882 2 16.9066 2 21Z" stroke="#141B34" stroke-width="1.5"/>
<path d="M13.25 6.70588C13.25 8.75258 11.5711 10.4118 9.5 10.4118C7.42893 10.4118 5.75 8.75258 5.75 6.70588C5.75 4.65918 7.42893 3 9.5 3C11.5711 3 13.25 4.65918 13.25 6.70588Z" stroke="#141B34" stroke-width="1.5"/>
<path d="M16 8V7.25H15.25V8H16ZM22 8H22.75V7.25H22V8ZM16 13H15.25V13.75H16V13ZM22 13V13.75H22.75V13H22ZM18.0625 7.98664V6.73539H16.5625V7.98664H18.0625ZM19 4.25C17.6342 4.25 16.5625 5.38267 16.5625 6.73539H18.0625C18.0625 6.17125 18.5019 5.75 19 5.75V4.25ZM19 5.75C19.2272 5.75 19.4363 5.8342 19.6015 5.97964L20.5929 4.85405C20.168 4.47975 19.6106 4.25 19 4.25V5.75ZM16 8.75H22V7.25H16V8.75ZM16 13.75H22V12.25H16V13.75ZM21.25 8V13H22.75V8H21.25ZM16.75 13V8H15.25V13H16.75Z" fill="#141B34"/>
</svg>
