<svg width="24" height="24" viewBox="0 0 24 24" fill="none" xmlns="http://www.w3.org/2000/svg">
<path d="M7 5H15.5C16.3284 5 17 5.67157 17 6.5V8" stroke="#141B34" stroke-width="1.5" stroke-linecap="round" stroke-linejoin="round"/>
<path d="M19.25 10C19.25 10.4142 19.5858 10.75 20 10.75C20.4142 10.75 20.75 10.4142 20.75 10H19.25ZM12 22.75C12.4142 22.75 12.75 22.4142 12.75 22C12.75 21.5858 12.4142 21.25 12 21.25V22.75ZM18 2.75C18.4142 2.75 18.75 2.41421 18.75 2C18.75 1.58579 18.4142 1.25 18 1.25V2.75ZM12 21.25H11V22.75H12V21.25ZM3.75 14V5H2.25V14H3.75ZM11 21.25C9.09318 21.25 7.73851 21.2484 6.71085 21.1102C5.70476 20.975 5.12511 20.7213 4.7019 20.2981L3.64124 21.3588C4.38961 22.1071 5.33855 22.4392 6.51098 22.5969C7.66182 22.7516 9.13558 22.75 11 22.75V21.25ZM2.25 14C2.25 15.8644 2.24841 17.3382 2.40313 18.489C2.56076 19.6614 2.89288 20.6104 3.64124 21.3588L4.7019 20.2981C4.27869 19.8749 4.02502 19.2952 3.88976 18.2892C3.75159 17.2615 3.75 15.9068 3.75 14H2.25ZM18 1.25H6V2.75H18V1.25ZM6 8.75H18V7.25H6V8.75ZM2.25 5C2.25 7.07107 3.92893 8.75 6 8.75V7.25C4.75736 7.25 3.75 6.24264 3.75 5H2.25ZM6 1.25C3.92893 1.25 2.25 2.92893 2.25 5H3.75C3.75 3.75736 4.75736 2.75 6 2.75V1.25ZM20.75 10C20.75 8.48122 19.5188 7.25 18 7.25V8.75C18.6904 8.75 19.25 9.30964 19.25 10H20.75Z" fill="#141B34"/>
<path d="M21.0002 19.0826V15.9174C21.0002 14.1482 21.0002 13.2636 20.4601 13.0435C19.9199 12.8233 19.2842 13.4488 18.0128 14.6998C17.3509 15.351 16.9662 15.4911 16.0419 15.4911C15.2226 15.4911 14.813 15.4911 14.5187 15.6846C13.9152 16.0814 14.0002 16.8627 14.0002 17.5C14.0002 18.1373 13.9152 18.9186 14.5187 19.3154C14.813 19.5089 15.2226 19.5089 16.0419 19.5089C16.9662 19.5089 17.3509 19.649 18.0128 20.3002C19.2842 21.5512 19.9199 22.1767 20.4601 21.9565C21.0002 21.7364 21.0002 20.8518 21.0002 19.0826Z" stroke="#141B34" stroke-width="1.5" stroke-linecap="round" stroke-linejoin="round"/>
</svg>
