<svg width="24" height="24" viewBox="0 0 24 24" fill="none" xmlns="http://www.w3.org/2000/svg">
<path d="M20.3635 12.4638L19.828 12.9889V12.9889L20.3635 12.4638ZM20.0611 17.9048L20.7392 18.2253L20.7392 18.2253L20.0611 17.9048ZM10.6875 14.4001L10.1408 14.9136C10.3515 15.1378 10.6776 15.2107 10.9636 15.0974C11.2497 14.9841 11.4375 14.7077 11.4375 14.4001H10.6875ZM8.60945 12.1878L9.1561 11.6743C9.14136 11.6586 9.12596 11.6436 9.10993 11.6292L8.60945 12.1878ZM6.3539 14.4843L6.95478 14.0355C6.95191 14.0316 6.949 14.0278 6.94606 14.024L6.3539 14.4843ZM9.42997 18.6025L8.82909 19.0514V19.0514L9.42997 18.6025ZM6.34639 12.4101L5.7508 11.9543L5.7508 11.9543L6.34639 12.4101ZM18.2736 22.0001C18.2736 22.4143 18.6094 22.7501 19.0236 22.7501C19.4378 22.7501 19.7736 22.4143 19.7736 22.0001H18.2736ZM9.79857 22.0001C9.79857 22.4143 10.1344 22.7501 10.5486 22.7501C10.9628 22.7501 11.2986 22.4143 11.2986 22.0001H9.79857ZM10.4181 20.2099L11.135 19.9897L11.135 19.9897L10.4181 20.2099ZM10.3811 20.0976L11.0886 19.8487L11.0886 19.8487L10.3811 20.0976ZM13.9687 10.1251H13.2187C13.2187 10.3299 13.3025 10.5257 13.4505 10.6672C13.5985 10.8087 13.7979 10.8836 14.0025 10.8743L13.9687 10.1251ZM10.6875 6.64062H11.4375H10.6875ZM19.828 12.9889C20.2056 13.374 20.3365 14.0711 20.1943 15.0334C20.0576 15.9583 19.6961 16.9217 19.383 17.5844L20.7392 18.2253C21.0889 17.4851 21.5125 16.3744 21.6782 15.2527C21.8384 14.1683 21.789 12.8463 20.899 11.9387L19.828 12.9889ZM19.383 17.5844C19.305 17.7493 19.207 17.9286 19.091 18.1387C18.9791 18.3415 18.8517 18.571 18.7353 18.8069C18.5084 19.2666 18.2736 19.8447 18.2736 20.463H19.7736C19.7736 20.2019 19.8782 19.8804 20.0804 19.4706C20.1786 19.2717 20.2881 19.074 20.4043 18.8634C20.5165 18.6601 20.6378 18.4398 20.7392 18.2253L19.383 17.5844ZM11.2342 13.8866L9.1561 11.6743L8.06279 12.7013L10.1408 14.9136L11.2342 13.8866ZM5.75302 14.9331L8.82909 19.0514L10.0309 18.1537L6.95478 14.0355L5.75302 14.9331ZM5.7508 11.9543C5.07909 12.832 5.08344 14.0719 5.76175 14.9446L6.94606 14.024C6.68629 13.6898 6.68438 13.2025 6.94198 12.866L5.7508 11.9543ZM9.10993 11.6292C8.10077 10.725 6.57091 10.8827 5.7508 11.9543L6.94198 12.866C7.23882 12.4781 7.76057 12.4342 8.10897 12.7464L9.10993 11.6292ZM18.2736 20.463V22.0001H19.7736V20.463H18.2736ZM11.2986 22.0001C11.2986 21.1349 11.3062 20.5471 11.135 19.9897L9.70114 20.43C9.79092 20.7224 9.79857 21.0448 9.79857 22.0001H11.2986ZM8.82909 19.0514C9.39174 19.8046 9.57305 20.0605 9.6736 20.3464L11.0886 19.8487C10.8946 19.297 10.54 18.8353 10.0309 18.1537L8.82909 19.0514ZM11.135 19.9897C11.1205 19.9424 11.1051 19.8954 11.0886 19.8487L9.6736 20.3464C9.68333 20.374 9.69251 20.4019 9.70114 20.43L11.135 19.9897ZM14.0025 10.8743C15.4968 10.807 18.0398 11.1653 19.828 12.9889L20.899 11.9387C18.6905 9.68655 15.6436 9.29886 13.935 9.37586L14.0025 10.8743ZM13.2187 6.64062V10.1251H14.7188V6.64062H13.2187ZM9.9375 6.64062L9.9375 14.4001H11.4375L11.4375 6.64062H9.9375ZM12.3281 5.75C12.82 5.75 13.2187 6.14875 13.2187 6.64062H14.7188C14.7188 5.32032 13.6484 4.25 12.3281 4.25V5.75ZM12.3281 4.25C11.0078 4.25 9.9375 5.32032 9.9375 6.64062H11.4375C11.4375 6.14875 11.8362 5.75 12.3281 5.75V4.25Z" fill="#141B34"/>
<path d="M9 5.75C9.41421 5.75 9.75 5.41421 9.75 5C9.75 4.58579 9.41421 4.25 9 4.25V5.75ZM3.82843 6L3.34151 6.57045H3.34151L3.82843 6ZM4.51309 7.57045C4.82814 7.83937 5.30154 7.80196 5.57045 7.48691C5.83937 7.17186 5.80196 6.69846 5.48691 6.42955L4.51309 7.57045ZM5.48691 3.57045C5.80196 3.30154 5.83937 2.82814 5.57045 2.51309C5.30154 2.19804 4.82814 2.16063 4.51309 2.42955L5.48691 3.57045ZM3.82843 4L3.34151 3.42955L3.34151 3.42955L3.82843 4ZM3 5.75H9V4.25H3V5.75ZM3.34151 6.57045L4.51309 7.57045L5.48691 6.42955L4.31534 5.42955L3.34151 6.57045ZM4.51309 2.42955L3.34151 3.42955L4.31534 4.57045L5.48691 3.57045L4.51309 2.42955ZM4.31534 5.42955C4.02239 5.1795 3.86246 5.04083 3.76628 4.93323C3.67964 4.83631 3.75 4.87739 3.75 5H2.25C2.25 5.41551 2.45843 5.72088 2.64794 5.93289C2.8279 6.13422 3.08218 6.3491 3.34151 6.57045L4.31534 5.42955ZM3.34151 3.42955C3.08218 3.6509 2.8279 3.86579 2.64794 4.06711C2.45843 4.27912 2.25 4.5845 2.25 5H3.75C3.75 5.12261 3.67964 5.16369 3.76628 5.06677C3.86246 4.95917 4.02239 4.8205 4.31534 4.57045L3.34151 3.42955Z" fill="#141B34"/>
<path d="M10.6962 8.5C9.67979 7.88755 9 6.77316 9 5.5C9 3.567 10.567 2 12.5 2C14.433 2 16 3.567 16 5.5C16 6.77316 15.3202 7.88755 14.3038 8.5" stroke="#141B34" stroke-width="1.5"/>
</svg>
