<svg width="24" height="24" viewBox="0 0 24 24" fill="none" xmlns="http://www.w3.org/2000/svg">
<path d="M12.0972 8.41441L12.3086 11.1009L19.0701 4.49139C19.7404 3.8362 20.8271 3.8362 21.4973 4.49139C22.1676 5.14657 22.1676 6.20884 21.4973 6.86402L17.8565 10.423L19.5974 12.7722C20.7342 14.2757 21.3027 15.0275 21.4915 15.7638C21.8035 16.98 21.6671 18.2153 20.6452 19.2143C19.9334 19.91 19.2799 20.2049 17.5692 21.041C16.4837 21.5715 15.941 21.8368 15.3975 21.9355C14.5027 22.098 13.5779 21.9513 12.7816 21.5205C12.2979 21.2589 11.8689 20.8395 11.0107 20.0006L10.2833 19.2895C9.14237 18.1743 8.57192 17.6167 8.27341 16.9156C8.21988 16.7899 8.17324 16.6615 8.13368 16.5309C7.9131 15.8028 7.99612 15.0184 8.16214 13.4495L8.69962 8.37072C8.78222 7.59027 9.41025 6.97169 10.208 6.88504C11.1669 6.7809 12.0232 7.47413 12.0972 8.41441Z" stroke="#141B34" stroke-width="1.5" stroke-linecap="round" stroke-linejoin="round"/>
<path d="M7.51482 2.83481C7.10669 2.90552 6.83315 3.2937 6.90386 3.70184C6.97457 4.10997 7.36275 4.3835 7.77089 4.31279L7.51482 2.83481ZM4.3166 7.76628C4.38153 7.35719 4.10254 6.97291 3.69345 6.90797C3.28436 6.84304 2.90008 7.12203 2.83514 7.53112L4.3166 7.76628ZM4.08659 4.81445C3.82103 5.13234 3.86344 5.60531 4.18133 5.87087C4.49921 6.13643 4.97219 6.09402 5.23775 5.77613L4.08659 4.81445ZM5.77553 5.23805C6.0933 4.97235 6.13551 4.49936 5.86981 4.18159C5.60411 3.86382 5.13112 3.82161 4.81335 4.08731L5.77553 5.23805ZM9 2.75C8.56231 2.75 8.04082 2.74368 7.51482 2.83481L7.77089 4.31279C8.14453 4.24806 8.52716 4.25 9 4.25V2.75ZM4.25 9C4.25 8.54086 4.25609 8.14743 4.3166 7.76628L2.83514 7.53112C2.75395 8.04263 2.75 8.54436 2.75 9H4.25ZM5.23775 5.77613C5.40068 5.5811 5.5807 5.40096 5.77553 5.23805L4.81335 4.08731C4.5499 4.30759 4.30666 4.55102 4.08659 4.81445L5.23775 5.77613ZM11.25 3.5C11.25 3.91421 10.9142 4.25 10.5 4.25V5.75C11.7426 5.75 12.75 4.74264 12.75 3.5H11.25ZM10.5 4.25C10.0858 4.25 9.75 3.91421 9.75 3.5H8.25C8.25 4.74264 9.25736 5.75 10.5 5.75V4.25ZM9.75 3.5C9.75 3.08579 10.0858 2.75 10.5 2.75V1.25C9.25736 1.25 8.25 2.25736 8.25 3.5H9.75ZM10.5 2.75C10.9142 2.75 11.25 3.08579 11.25 3.5H12.75C12.75 2.25736 11.7426 1.25 10.5 1.25V2.75ZM4.25 10.5C4.25 10.9142 3.91421 11.25 3.5 11.25V12.75C4.74264 12.75 5.75 11.7426 5.75 10.5H4.25ZM3.5 11.25C3.08579 11.25 2.75 10.9142 2.75 10.5H1.25C1.25 11.7426 2.25736 12.75 3.5 12.75V11.25ZM2.75 10.5C2.75 10.0858 3.08579 9.75 3.5 9.75V8.25C2.25736 8.25 1.25 9.25736 1.25 10.5H2.75ZM3.5 9.75C3.91421 9.75 4.25 10.0858 4.25 10.5H5.75C5.75 9.25736 4.74264 8.25 3.5 8.25V9.75Z" fill="#141B34"/>
</svg>
