<svg width="24" height="24" viewBox="0 0 24 24" fill="none" xmlns="http://www.w3.org/2000/svg">
<path d="M20 9.5V7.81818C20 6.12494 20 5.27832 19.732 4.60214C19.3012 3.5151 18.3902 2.65765 17.2352 2.2522C16.5168 2 15.6173 2 13.8182 2C10.6698 2 9.09563 2 7.83836 2.44135C5.81714 3.15089 4.22281 4.65142 3.46894 6.55375C3 7.73706 3 9.21865 3 12.1818V14.7273C3 17.7966 3 19.3313 3.8477 20.3971C4.09058 20.7025 4.37862 20.9736 4.70307 21.2022C5.83546 22 7.46607 22 10.7273 22H11.5C12.0347 22 13 22 13.5 21.9972" stroke="#141B34" stroke-width="1.5" stroke-linecap="round" stroke-linejoin="round"/>
<path d="M12 17L7 17" stroke="#141B34" stroke-width="1.5" stroke-linecap="round" stroke-linejoin="round"/>
<path d="M13 13H10" stroke="#141B34" stroke-width="1.5" stroke-linecap="round" stroke-linejoin="round"/>
<path d="M17.2498 22C17.2498 22.4142 17.5855 22.75 17.9998 22.75C18.414 22.75 18.7498 22.4142 18.7498 22H17.2498ZM18.7498 18.8878C18.7498 18.4736 18.414 18.1378 17.9998 18.1378C17.5855 18.1378 17.2498 18.4736 17.2498 18.8878H18.7498ZM15.49 18.2268L15.8859 17.5898L15.8859 17.5898L15.49 18.2268ZM20.5095 18.2268L20.1136 17.5898H20.1136L20.5095 18.2268ZM16.4755 13.5104L15.7547 13.7178L15.7547 13.7178L16.4755 13.5104ZM19.524 13.5104L20.2448 13.7178V13.7178L19.524 13.5104ZM15.8845 15.9638L16.3622 16.5419H16.3622L15.8845 15.9638ZM20.1015 15.9577L19.6283 16.5396L20.1015 15.9577ZM16.9511 12.2318L16.6362 11.5512H16.6362L16.9511 12.2318ZM19.0484 12.2318L19.3633 11.5512V11.5512L19.0484 12.2318ZM19.5886 12.6639L18.9118 12.9872V12.9872L19.5886 12.6639ZM16.4109 12.6639L17.0877 12.9872L16.4109 12.6639ZM19.1946 15.0749L18.4811 15.3059L18.4811 15.3059L19.1946 15.0749ZM16.8025 15.0608L17.517 15.2888V15.2888L16.8025 15.0608ZM15.065 17.8117L15.7544 17.5162L15.7544 17.5162L15.065 17.8117ZM20.9346 17.8117L21.6239 18.1074L21.6239 18.1074L20.9346 17.8117ZM18.7498 22L18.7498 18.8878H17.2498L17.2498 22H18.7498ZM15.094 18.8638C15.9431 19.3915 16.9867 19.6378 17.9997 19.6378C19.0128 19.6378 20.0564 19.3915 20.9054 18.8637L20.1136 17.5898C19.5447 17.9434 18.7875 18.1378 17.9997 18.1378C17.212 18.1378 16.4548 17.9434 15.8859 17.5898L15.094 18.8638ZM17.2661 12.9125C17.7344 12.6958 18.2651 12.6958 18.7334 12.9125L19.3633 11.5512C18.4954 11.1496 17.5041 11.1496 16.6362 11.5512L17.2661 12.9125ZM20.2448 13.7178C20.3389 13.3906 20.5234 12.8809 20.2653 12.3406L18.9118 12.9872C18.9091 12.9814 18.9028 12.9652 18.8997 12.9437C18.8969 12.9242 18.8993 12.9177 18.8974 12.9342C18.8951 12.9538 18.8888 12.9895 18.8723 13.0549C18.8556 13.1209 18.8336 13.1976 18.8033 13.303L20.2448 13.7178ZM18.7334 12.9125C18.8088 12.9474 18.856 12.9694 18.8947 12.9892C18.9313 13.0081 18.9422 13.016 18.9418 13.0157C18.9382 13.0131 18.9273 13.0042 18.9161 12.9904C18.9058 12.9778 18.9052 12.9732 18.9118 12.9872L20.2653 12.3406C20.1599 12.1199 20.0188 11.9447 19.8257 11.8038C19.6677 11.6886 19.4841 11.607 19.3633 11.5512L18.7334 12.9125ZM17.1963 13.303C17.1659 13.1976 17.1439 13.1209 17.1272 13.0549C17.1107 12.9895 17.1044 12.9538 17.1021 12.9343C17.1002 12.9177 17.1026 12.9243 17.0998 12.9437C17.0967 12.9652 17.0904 12.9815 17.0877 12.9872L15.7342 12.3406C15.4761 12.8809 15.6606 13.3906 15.7547 13.7178L17.1963 13.303ZM16.6362 11.5512C16.5154 11.6071 16.3318 11.6886 16.1738 11.8038C15.9807 11.9447 15.8396 12.1199 15.7342 12.3406L17.0877 12.9872C17.0944 12.9732 17.0937 12.9778 17.0834 12.9905C17.0723 13.0042 17.0613 13.0131 17.0577 13.0157C17.0573 13.016 17.0682 13.0081 17.1048 12.9892C17.1435 12.9694 17.1908 12.9474 17.2661 12.9125L16.6362 11.5512ZM20.5746 15.3758C20.2846 15.14 20.0985 14.988 19.9736 14.8712C19.9133 14.8148 19.8854 14.783 19.8747 14.7694C19.8637 14.7554 19.8881 14.7821 19.9081 14.8439L18.4811 15.3059C18.5775 15.6037 18.796 15.8236 18.9489 15.9666C19.121 16.1277 19.3563 16.3184 19.6283 16.5396L20.5746 15.3758ZM16.3622 16.5419C16.6387 16.3135 16.8762 16.1177 17.0494 15.9538C17.2013 15.8101 17.4217 15.5873 17.517 15.2888L16.088 14.8327C16.1084 14.7687 16.1336 14.7414 16.1213 14.7573C16.1095 14.7724 16.0802 14.8058 16.0183 14.8644C15.8907 14.9851 15.7006 15.1428 15.4067 15.3856L16.3622 16.5419ZM15.8859 17.5898C15.8264 17.5529 15.7905 17.5304 15.7612 17.5106C15.7339 17.4922 15.7271 17.4857 15.7289 17.4873C15.7331 17.4911 15.7422 17.5004 15.7509 17.5129C15.759 17.5243 15.7595 17.5282 15.7544 17.5162L14.3757 18.1073C14.4589 18.3013 14.5698 18.4618 14.7239 18.6009C14.8512 18.7158 14.9997 18.8051 15.094 18.8638L15.8859 17.5898ZM20.9054 18.8637C20.9999 18.8051 21.1483 18.7157 21.2756 18.6009C21.4296 18.4619 21.5406 18.3014 21.6239 18.1074L20.2454 17.516C20.2402 17.528 20.2408 17.5241 20.2488 17.5126C20.2576 17.5001 20.2666 17.4909 20.2708 17.4872C20.2725 17.4856 20.2657 17.4921 20.2383 17.5105C20.2091 17.5303 20.173 17.5528 20.1136 17.5898L20.9054 18.8637ZM15.4067 15.3856C15.1188 15.6236 14.7801 15.9989 14.5456 16.4301C14.3235 16.8384 14.1035 17.4723 14.3757 18.1073L15.7544 17.5162C15.7541 17.5157 15.7196 17.4109 15.8633 17.1467C15.9946 16.9054 16.2018 16.6745 16.3622 16.5419L15.4067 15.3856ZM21.6239 18.1074C21.8983 17.4677 21.6745 16.8307 21.4484 16.4207C21.21 15.9882 20.8662 15.6129 20.5746 15.3758L19.6283 16.5396C19.7912 16.672 20.0015 16.9031 20.1348 17.1449C20.2805 17.4091 20.246 17.5144 20.2454 17.516L21.6239 18.1074ZM17.517 15.2888C17.664 14.828 17.5449 14.3531 17.4578 14.0657C17.409 13.9042 17.3514 13.7467 17.3048 13.6188C17.2545 13.4807 17.2193 13.3831 17.1963 13.303L15.7547 13.7178C15.795 13.8579 15.8502 14.0083 15.8954 14.1323C15.9443 14.2665 15.9873 14.3852 16.0222 14.5004C16.1027 14.7662 16.0837 14.8463 16.088 14.8327L17.517 15.2888ZM19.9081 14.8439C19.9127 14.858 19.8932 14.777 19.9748 14.5075C20.01 14.3909 20.0536 14.2708 20.1029 14.1354C20.1486 14.0103 20.2042 13.8587 20.2448 13.7178L18.8033 13.303C18.7801 13.3836 18.7445 13.4822 18.6937 13.6217C18.6466 13.7508 18.5884 13.9098 18.5391 14.0729C18.4514 14.3624 18.3309 14.8421 18.4811 15.3059L19.9081 14.8439Z" fill="#141B34"/>
<path d="M3 12C3 10.1591 4.49238 8.66667 6.33333 8.66667C6.99912 8.66667 7.78404 8.78333 8.43137 8.60988C9.00652 8.45576 9.45576 8.00652 9.60988 7.43136C9.78333 6.78404 9.66667 5.99912 9.66667 5.33333C9.66667 3.49238 11.1591 2 13 2" stroke="#141B34" stroke-width="1.5" stroke-linecap="round" stroke-linejoin="round"/>
</svg>
