<svg width="24" height="24" viewBox="0 0 24 24" fill="none" xmlns="http://www.w3.org/2000/svg">
<path d="M19.5 7.5H18.75V7.5L19.5 7.5ZM15.75 7.5C15.75 7.91421 16.0858 8.25 16.5 8.25C16.9142 8.25 17.25 7.91421 17.25 7.5H15.75ZM5.56729 14.9792L4.94679 15.4005C4.9577 15.4166 4.96923 15.4322 4.98135 15.4474L5.56729 14.9792ZM7.56252 17.4764L8.14846 17.0083L7.56252 17.4764ZM6.0343 8.37473L5.51704 7.83164C5.50364 7.8444 5.49071 7.85766 5.47829 7.87138L6.0343 8.37473ZM7.99493 7.54309C8.29487 7.25741 8.30643 6.78268 8.02076 6.48274C7.73508 6.1828 7.26035 6.17124 6.96041 6.45691L7.99493 7.54309ZM4.00519 11.9372L3.25651 11.9817L4.00519 11.9372ZM4.05904 11.1756L3.32406 11.0262L4.05904 11.1756ZM19.5 11.8347H20.25H20.25H19.5ZM19.2083 15.668L19.9139 15.9223V15.9223L19.2083 15.668ZM7.25 20C7.25 20.4142 7.58579 20.75 8 20.75C8.41421 20.75 8.75 20.4142 8.75 20H7.25ZM18.1916 17.3462L17.6389 16.8392L17.6389 16.8392L18.1916 17.3462ZM16.6804 20C16.6804 20.4142 17.0161 20.75 17.4304 20.75C17.8446 20.75 18.1804 20.4142 18.1804 20H16.6804ZM12.7498 8.37473C12.7498 8.78894 13.0856 9.12473 13.4998 9.12473C13.914 9.12473 14.2498 8.78894 14.2498 8.37473H12.7498ZM10.4998 5.5H9.74979V5.50031L10.4998 5.5ZM6.74979 11.4624C6.74978 11.8766 7.08555 12.2124 7.49976 12.2124C7.91398 12.2125 8.24978 11.8767 8.24979 11.4625L6.74979 11.4624ZM7.5 6.00064L8.25 6.00067V6.00064H7.5ZM10.5 6H11.25V5.99969L10.5 6ZM9.75 8C9.75 8.41421 10.0858 8.75 10.5 8.75C10.9142 8.75 11.25 8.41421 11.25 8H9.75ZM15.7498 9C15.7498 9.41421 16.0856 9.75 16.4998 9.75C16.914 9.75 17.2498 9.41421 17.2498 9H15.7498ZM18 6.75C18.4142 6.75 18.75 7.08579 18.75 7.5H20.25C20.25 6.25736 19.2426 5.25 18 5.25V6.75ZM17.25 7.5C17.25 7.08579 17.5858 6.75 18 6.75V5.25C16.7574 5.25 15.75 6.25736 15.75 7.5H17.25ZM4.98135 15.4474L6.97657 17.9446L8.14846 17.0083L6.15323 14.511L4.98135 15.4474ZM6.55156 8.91781L7.99493 7.54309L6.96041 6.45691L5.51704 7.83164L6.55156 8.91781ZM6.18779 14.5579C5.67498 13.8026 5.32104 13.2799 5.08415 12.846C4.85404 12.4245 4.76895 12.1465 4.75387 11.8927L3.25651 11.9817C3.28969 12.5402 3.48104 13.04 3.76761 13.5648C4.0474 14.0773 4.45038 14.6693 4.94679 15.4005L6.18779 14.5579ZM5.47829 7.87138C4.88366 8.52823 4.40143 9.05972 4.05239 9.52902C3.69502 10.0095 3.43545 10.478 3.32406 11.0262L4.79403 11.3249C4.84477 11.0751 4.96846 10.8108 5.25599 10.4242C5.55186 10.0264 5.97619 9.55645 6.59031 8.87807L5.47829 7.87138ZM4.75387 11.8927C4.74257 11.7026 4.75605 11.5118 4.79403 11.3249L3.32406 11.0262C3.2602 11.3405 3.23749 11.6616 3.25651 11.9817L4.75387 11.8927ZM18.75 11.8347C18.75 13.9151 18.7388 14.7586 18.5027 15.4137L19.9139 15.9223C20.2612 14.9586 20.25 13.7862 20.25 11.8347H18.75ZM7.25 18.7248V20H8.75V18.7248H7.25ZM18.5027 15.4137C18.311 15.9458 18.0156 16.4286 17.6389 16.8392L18.7442 17.8532C19.2529 17.2987 19.6535 16.6449 19.9139 15.9223L18.5027 15.4137ZM16.6804 19.0449V20H18.1804V19.0449H16.6804ZM17.6389 16.8392C17.137 17.3863 16.6804 18.1443 16.6804 19.0449H18.1804C18.1804 18.663 18.3791 18.2512 18.7442 17.8532L17.6389 16.8392ZM6.97657 17.9446C7.15358 18.1661 7.25 18.4413 7.25 18.7248H8.75C8.75 18.101 8.53788 17.4957 8.14846 17.0083L6.97657 17.9446ZM12.7498 5.5V6.5H14.2498V5.5H12.7498ZM12.7498 6.5V8.37473H14.2498V6.5H12.7498ZM11.9998 4.75C12.414 4.75 12.7498 5.08579 12.7498 5.5H14.2498C14.2498 4.25736 13.2424 3.25 11.9998 3.25V4.75ZM11.2498 5.5C11.2498 5.08579 11.5856 4.75 11.9998 4.75V3.25C10.7572 3.25 9.74979 4.25736 9.74979 5.5H11.2498ZM8.24979 11.4625L8.25 6.00067L6.75 6.00061L6.74979 11.4624L8.24979 11.4625ZM9 5.25064C9.4141 5.25064 9.74983 5.58625 9.75 6.00031L11.25 5.99969C11.2495 4.75748 10.2423 3.75064 9 3.75064V5.25064ZM8.25 6.00064C8.25 5.58643 8.58579 5.25064 9 5.25064V3.75064C7.75736 3.75064 6.75 4.758 6.75 6.00064H8.25ZM9.75 6V8H11.25V6H9.75ZM9.74979 5.50031L9.75 6.00031L11.25 5.99969L11.2498 5.49969L9.74979 5.50031ZM14.9998 5.75C15.414 5.75 15.7498 6.08579 15.7498 6.5H17.2498C17.2498 5.25736 16.2424 4.25 14.9998 4.25V5.75ZM14.2498 6.5C14.2498 6.08579 14.5856 5.75 14.9998 5.75V4.25C13.7572 4.25 12.7498 5.25736 12.7498 6.5H14.2498ZM17.2498 9V6.5H15.7498V9H17.2498ZM18.75 7.5L18.75 11.8347H20.25V7.5L18.75 7.5Z" fill="#141B34"/>
</svg>
