<svg width="24" height="24" viewBox="0 0 24 24" fill="none" xmlns="http://www.w3.org/2000/svg">
<path d="M18.6715 1.96589L18.1462 2.50122V2.50123L18.6715 1.96589ZM17.3285 1.96589L17.8538 2.50122L17.3285 1.96589ZM18.6715 9.03412L19.1968 9.56945L18.6715 9.03412ZM17.3285 9.03411L16.8032 9.56945L17.3285 9.03411ZM21.5341 4.82851L22.0695 4.30324L21.5341 4.82851ZM21.5341 6.17149L22.0695 6.69676L21.5341 6.17149ZM14.4659 6.17149L15.0012 5.64621L15.0012 5.64621L14.4659 6.17149ZM14.4659 4.82851L15.0012 5.35379V5.35379L14.4659 4.82851ZM21.6357 3.8612C21.3456 3.56555 20.8708 3.56104 20.5751 3.85114C20.2795 4.14124 20.275 4.61609 20.5651 4.91175L21.6357 3.8612ZM20.5651 6.08825C20.275 6.38391 20.2795 6.85876 20.5751 7.14886C20.8708 7.43896 21.3456 7.43445 21.6357 7.1388L20.5651 6.08825ZM18.5882 2.93495C18.8839 3.22505 19.3588 3.22054 19.6489 2.92488C19.939 2.62922 19.9345 2.15437 19.6388 1.86427L18.5882 2.93495ZM16.3612 1.86427C16.0655 2.15437 16.061 2.62922 16.3511 2.92488C16.6412 3.22054 17.1161 3.22505 17.4118 2.93495L16.3612 1.86427ZM19.6388 9.13573C19.9345 8.84563 19.939 8.37078 19.6489 8.07512C19.3588 7.77946 18.8839 7.77495 18.5882 8.06505L19.6388 9.13573ZM17.4118 8.06505C17.1161 7.77495 16.6412 7.77946 16.3511 8.07512C16.061 8.37078 16.0655 8.84563 16.3612 9.13573L17.4118 8.06505ZM14.3643 7.13879C14.6544 7.43445 15.1292 7.43896 15.4249 7.14886C15.7205 6.85876 15.725 6.38391 15.4349 6.08825L14.3643 7.13879ZM15.4349 4.91175C15.725 4.61609 15.7205 4.14124 15.4249 3.85114C15.1292 3.56104 14.6544 3.56555 14.3643 3.8612L15.4349 4.91175ZM14 6.25H22V4.75H14V6.25ZM18.75 9.5V1.5H17.25V9.5H18.75ZM19.1968 1.43055C19.0535 1.29 18.8936 1.13086 18.7403 1.01608C18.5691 0.887919 18.3239 0.75 18 0.75V2.25C17.9445 2.25 17.8951 2.2379 17.8594 2.22326C17.8293 2.21098 17.8214 2.20194 17.8413 2.21687C17.8617 2.23213 17.8947 2.25978 17.9491 2.31047C18.0032 2.36093 18.0651 2.42163 18.1462 2.50122L19.1968 1.43055ZM17.8538 2.50122C17.9349 2.42163 17.9968 2.36093 18.0509 2.31047C18.1053 2.25978 18.1383 2.23213 18.1587 2.21687C18.1786 2.20194 18.1707 2.21098 18.1406 2.22326C18.1049 2.2379 18.0555 2.25 18 2.25V0.75C17.6761 0.75 17.4309 0.887918 17.2597 1.01608C17.1064 1.13086 16.9465 1.29 16.8032 1.43055L17.8538 2.50122ZM18.1462 8.49878C18.0651 8.57837 18.0032 8.63907 17.9491 8.68953C17.8947 8.74022 17.8617 8.76787 17.8413 8.78313C17.8214 8.79806 17.8293 8.78902 17.8594 8.77674C17.8951 8.7621 17.9445 8.75 18 8.75V10.25C18.3239 10.25 18.5691 10.1121 18.7403 9.98392C18.8936 9.86915 19.0535 9.71 19.1968 9.56945L18.1462 8.49878ZM16.8032 9.56945C16.9465 9.71 17.1064 9.86915 17.2597 9.98392C17.4309 10.1121 17.6761 10.25 18 10.25V8.75C18.0555 8.75 18.1049 8.7621 18.1406 8.77674C18.1707 8.78902 18.1786 8.79806 18.1587 8.78313C18.1383 8.76787 18.1053 8.74022 18.0509 8.68953C17.9968 8.63907 17.9349 8.57837 17.8538 8.49878L16.8032 9.56945ZM20.9988 5.35379C21.0784 5.43491 21.1391 5.49684 21.1895 5.55093C21.2402 5.60526 21.2679 5.63829 21.2831 5.65868C21.2981 5.67861 21.289 5.67065 21.2767 5.64065C21.2621 5.60487 21.25 5.55545 21.25 5.5H22.75C22.75 5.17609 22.6121 4.93093 22.4839 4.75973C22.3691 4.60642 22.21 4.44648 22.0695 4.30324L20.9988 5.35379ZM22.0695 6.69676C22.21 6.55352 22.3691 6.39359 22.4839 6.24027C22.6121 6.06907 22.75 5.82391 22.75 5.5H21.25C21.25 5.44455 21.2621 5.39513 21.2767 5.35935C21.289 5.32935 21.2981 5.32139 21.2831 5.34132C21.2679 5.36171 21.2402 5.39474 21.1895 5.44907C21.1391 5.50316 21.0784 5.56509 20.9988 5.64621L22.0695 6.69676ZM15.0012 5.64621C14.9216 5.56509 14.8609 5.50316 14.8105 5.44907C14.7598 5.39474 14.7321 5.36171 14.7169 5.34132C14.7019 5.32139 14.711 5.32934 14.7233 5.35935C14.7379 5.39513 14.75 5.44455 14.75 5.5H13.25C13.25 5.82392 13.3879 6.06908 13.5161 6.24027C13.6309 6.39359 13.79 6.55352 13.9305 6.69676L15.0012 5.64621ZM13.9305 4.30324C13.79 4.44648 13.6309 4.60641 13.5161 4.75973C13.3879 4.93092 13.25 5.17608 13.25 5.5H14.75C14.75 5.55545 14.7379 5.60487 14.7233 5.64065C14.711 5.67066 14.7019 5.67861 14.7169 5.65868C14.7321 5.63829 14.7598 5.60526 14.8105 5.55093C14.8609 5.49684 14.9216 5.43491 15.0012 5.35379L13.9305 4.30324ZM20.5651 4.91175L20.9988 5.35379L22.0695 4.30324L21.6357 3.8612L20.5651 4.91175ZM20.9988 5.64621L20.5651 6.08825L21.6357 7.1388L22.0695 6.69676L20.9988 5.64621ZM18.1462 2.50123L18.5882 2.93495L19.6388 1.86427L19.1968 1.43055L18.1462 2.50123ZM17.4118 2.93495L17.8538 2.50122L16.8032 1.43055L16.3612 1.86427L17.4118 2.93495ZM18.5882 8.06505L18.1462 8.49878L19.1968 9.56945L19.6388 9.13573L18.5882 8.06505ZM17.8538 8.49878L17.4118 8.06505L16.3612 9.13573L16.8032 9.56945L17.8538 8.49878ZM15.4349 6.08825L15.0012 5.64621L13.9305 6.69676L14.3643 7.13879L15.4349 6.08825ZM15.0012 5.35379L15.4349 4.91175L14.3643 3.8612L13.9305 4.30324L15.0012 5.35379Z" fill="#141B34"/>
<path d="M17.3211 11.9618L16.7891 12.4905L17.3211 11.9618ZM16.9985 17.6892L17.6749 18.0131L17.6749 18.0131L16.9985 17.6892ZM15.8919 20.382H16.6419H15.8919ZM7 14L6.45675 14.5171C6.66822 14.7393 6.99365 14.8103 7.27844 14.6964C7.56324 14.5825 7.75 14.3067 7.75 14H7ZM4.78341 11.6713L5.32666 11.1542C5.31182 11.1386 5.29632 11.1236 5.2802 11.1094L4.78341 11.6713ZM2.3775 14.0886L2.97551 13.636C2.9726 13.6322 2.96966 13.6283 2.96668 13.6246L2.3775 14.0886ZM5.65864 18.4236L5.06062 18.8763H5.06062L5.65864 18.4236ZM2.36948 11.9053L1.77682 11.4457L1.77682 11.4457L2.36948 11.9053ZM15.1419 22C15.1419 22.4142 15.4777 22.75 15.8919 22.75C16.3061 22.75 16.6419 22.4142 16.6419 22H15.1419ZM6.10181 22C6.10181 22.4142 6.43759 22.75 6.85181 22.75C7.26602 22.75 7.60181 22.4142 7.60181 22H6.10181ZM6.71263 20.1155L7.42876 19.8927L6.71263 20.1155ZM6.6732 19.9973L7.37968 19.7456L7.37967 19.7455L6.6732 19.9973ZM7 3.75H7.75H7ZM10.5 3.75H11.25H10.5ZM10.5 9.5H9.75C9.75 9.70469 9.83366 9.90049 9.98158 10.042C10.1295 10.1835 10.3288 10.2584 10.5333 10.2493L10.5 9.5ZM16.7891 12.4905C17.2053 12.9093 17.3421 13.6569 17.1903 14.671C17.0439 15.6486 16.657 16.6658 16.322 17.3653L17.6749 18.0131C18.0471 17.2359 18.4975 16.0699 18.6737 14.8931C18.8445 13.7529 18.789 12.3751 17.8531 11.4332L16.7891 12.4905ZM16.322 17.3653C16.2383 17.54 16.1332 17.7297 16.0096 17.9507C15.8901 18.1644 15.7546 18.4053 15.6309 18.6526C15.3897 19.1351 15.1419 19.7383 15.1419 20.382H16.6419C16.6419 20.1001 16.7561 19.7563 16.9725 19.3235C17.0777 19.1132 17.1949 18.9043 17.3188 18.6828C17.4385 18.4687 17.5673 18.2378 17.6749 18.0131L16.322 17.3653ZM7.54325 13.4829L5.32666 11.1542L4.24016 12.1883L6.45675 14.5171L7.54325 13.4829ZM1.77948 14.5413L5.06062 18.8763L6.25665 17.971L2.97551 13.636L1.77948 14.5413ZM1.77682 11.4457C1.07019 12.3568 1.07482 13.6468 1.78831 14.5527L2.96668 13.6246C2.67956 13.26 2.67752 12.7319 2.96214 12.3649L1.77682 11.4457ZM5.2802 11.1094C4.22827 10.1793 2.63524 10.3388 1.77682 11.4457L2.96214 12.3649C3.29514 11.9355 3.89049 11.8829 4.28661 12.2331L5.2802 11.1094ZM15.1419 20.382V22H16.6419V20.382H15.1419ZM7.60181 22C7.60181 21.0874 7.60964 20.4739 7.42876 19.8927L5.99651 20.3384C6.09397 20.6516 6.10181 20.9963 6.10181 22H7.60181ZM5.06062 18.8763C5.6596 19.6676 5.85727 19.942 5.96672 20.2491L7.37967 19.7455C7.1749 19.1709 6.80091 18.69 6.25665 17.971L5.06062 18.8763ZM7.42876 19.8927C7.4134 19.8433 7.39703 19.7943 7.37968 19.7456L5.96672 20.2491C5.97724 20.2786 5.98717 20.3084 5.99651 20.3384L7.42876 19.8927ZM6.25 3.75V14H7.75V3.75H6.25ZM9.75 3.75V9.5H11.25V3.75H9.75ZM10.5333 10.2493C12.1369 10.1779 14.8679 10.557 16.7891 12.4905L17.8531 11.4332C15.5111 9.07631 12.2796 8.67013 10.4667 8.75074L10.5333 10.2493ZM7.75 3.75C7.75 3.19772 8.19772 2.75 8.75 2.75V1.25C7.36929 1.25 6.25 2.36929 6.25 3.75H7.75ZM8.75 2.75C9.30228 2.75 9.75 3.19772 9.75 3.75H11.25C11.25 2.36929 10.1307 1.25 8.75 1.25V2.75Z" fill="#141B34"/>
</svg>
