<svg width="24" height="24" viewBox="0 0 24 24" fill="none" xmlns="http://www.w3.org/2000/svg">
<path d="M11.8077 22L11.8077 22.75L11.8084 22.75L11.8077 22ZM7.0208 8.06729L6.59951 7.4468C6.58345 7.4577 6.56781 7.46923 6.55265 7.48135L7.0208 8.06729ZM4.52358 10.0625L4.99174 10.6485L4.52358 10.0625ZM13.6253 8.5343L14.1684 8.01704C14.1556 8.00364 14.1423 7.99071 14.1286 7.97829L13.6253 8.5343ZM14.4569 10.4949C14.7426 10.7949 15.2173 10.8064 15.5173 10.5208C15.8172 10.2351 15.8288 9.76035 15.5431 9.46041L14.4569 10.4949ZM10.0628 6.50519L10.0183 5.75651L10.0628 6.50519ZM10.8244 6.55904L10.9738 5.82406L10.8244 6.55904ZM6.332 21.7083L6.07772 22.4139L6.07772 22.4139L6.332 21.7083ZM10.5 9.25C10.0858 9.25 9.75 9.58579 9.75 10C9.75 10.4142 10.0858 10.75 10.5 10.75L10.5 9.25ZM13 15.25C12.5858 15.25 12.25 15.5858 12.25 16C12.25 16.4142 12.5858 16.75 13 16.75L13 15.25ZM15 16L15.75 16C15.75 15.5858 15.4142 15.25 15 15.25L15 16ZM12 18.25C11.5858 18.25 11.25 18.5858 11.25 19C11.25 19.4142 11.5858 19.75 12 19.75L12 18.25ZM14 19L14.7398 19.1233C14.776 18.9058 14.7148 18.6834 14.5723 18.5152C14.4298 18.347 14.2205 18.25 14 18.25L14 19ZM13.7785 20.3288L14.5183 20.4521L14.5183 20.4521L13.7785 20.3288ZM13 12.25C12.5858 12.25 12.25 12.5858 12.25 13C12.25 13.4142 12.5858 13.75 13 13.75L13 12.25ZM2 9.75C1.58579 9.75 1.25 10.0858 1.25 10.5C1.25 10.9142 1.58579 11.25 2 11.25L2 9.75ZM4.6538 20.6916L5.16079 20.1389L5.16079 20.1389L4.6538 20.6916ZM2 19.1804C1.58579 19.1804 1.25 19.5161 1.25 19.9304C1.25 20.3446 1.58579 20.6804 2 20.6804L2 19.1804ZM6.55265 7.48135L4.05543 9.47657L4.99174 10.6485L7.48896 8.65323L6.55265 7.48135ZM13.0822 9.05156L14.4569 10.4949L15.5431 9.46041L14.1684 8.01704L13.0822 9.05156ZM7.44209 8.68779C8.19738 8.17498 8.72014 7.82104 9.154 7.58415C9.57545 7.35404 9.85346 7.26895 10.1073 7.25387L10.0183 5.75651C9.45978 5.78969 8.96002 5.98104 8.43517 6.26761C7.92273 6.5474 7.33066 6.95038 6.59951 7.4468L7.44209 8.68779ZM14.1286 7.97829C13.4718 7.38366 12.9403 6.90143 12.471 6.55239C11.9905 6.19502 11.522 5.93545 10.9738 5.82406L10.6751 7.29403C10.9249 7.34477 11.1892 7.46846 11.5758 7.75599C11.9736 8.05186 12.4436 8.47619 13.1219 9.09031L14.1286 7.97829ZM10.1073 7.25387C10.2974 7.24257 10.4882 7.25605 10.6751 7.29403L10.9738 5.82406C10.6595 5.7602 10.3384 5.73749 10.0183 5.75651L10.1073 7.25387ZM10.1653 21.25C8.08491 21.25 7.24139 21.2388 6.58629 21.0027L6.07772 22.4139C7.04143 22.7612 8.21382 22.75 10.1653 22.75L10.1653 21.25ZM10.5 10.75L20.5 10.75L20.5 9.25L10.5 9.25L10.5 10.75ZM20.5 12.25L16 12.25L16 13.75L20.5 13.75L20.5 12.25ZM21.25 11.5C21.25 11.9142 20.9142 12.25 20.5 12.25L20.5 13.75C21.7426 13.75 22.75 12.7426 22.75 11.5L21.25 11.5ZM20.5 10.75C20.9142 10.75 21.25 11.0858 21.25 11.5L22.75 11.5C22.75 10.2574 21.7426 9.25 20.5 9.25L20.5 10.75ZM15.25 13L15.25 14L16.75 14L16.75 13L15.25 13ZM14 15.25L13 15.25L13 16.75L14 16.75L14 15.25ZM15.25 14C15.25 14.6904 14.6904 15.25 14 15.25L14 16.75C15.5188 16.75 16.75 15.5188 16.75 14L15.25 14ZM14 16.75L15 16.75L15 15.25L14 15.25L14 16.75ZM14.25 16L14.25 17L15.75 17L15.75 16L14.25 16ZM13 18.25L12 18.25L12 19.75L13 19.75L13 18.25ZM14.25 17C14.25 17.6904 13.6904 18.25 13 18.25L13 19.75C14.5188 19.75 15.75 18.5188 15.75 17L14.25 17ZM13 19.75L14 19.75L14 18.25L13 18.25L13 19.75ZM13.2602 18.8767L13.0387 20.2055L14.5183 20.4521L14.7398 19.1233L13.2602 18.8767ZM13.0387 20.2055C12.9384 20.8078 12.4175 21.2494 11.807 21.25L11.8084 22.75C13.1516 22.7487 14.2975 21.7772 14.5183 20.4521L13.0387 20.2055ZM16 12.25L13 12.25L13 13.75L16 13.75L16 12.25ZM3.27517 9.75L2 9.75L2 11.25L3.27517 11.25L3.27517 9.75ZM6.58629 21.0027C6.05421 20.811 5.57143 20.5156 5.16079 20.1389L4.14681 21.2442C4.70127 21.7529 5.35513 22.1535 6.07772 22.4139L6.58629 21.0027ZM2.9551 19.1804L2 19.1804L2 20.6804L2.9551 20.6804L2.9551 19.1804ZM5.16079 20.1389C4.61373 19.637 3.85571 19.1804 2.9551 19.1804L2.9551 20.6804C3.33701 20.6804 3.74877 20.8791 4.14681 21.2442L5.16079 20.1389ZM4.05543 9.47657C3.83388 9.65358 3.55874 9.75 3.27517 9.75L3.27517 11.25C3.89903 11.25 4.50434 11.0379 4.99174 10.6485L4.05543 9.47657ZM11.8077 21.25L10.1653 21.25L10.1653 22.75L11.8077 22.75L11.8077 21.25Z" fill="#141B34"/>
<path d="M22 4.5L16 4.5M22 4.5C22 3.79977 20.0057 2.49153 19.5 2M22 4.5C22 5.20023 20.0057 6.50847 19.5 7" stroke="#141B34" stroke-width="1.5" stroke-linecap="round" stroke-linejoin="round"/>
</svg>
