<svg width="24" height="24" viewBox="0 0 24 24" fill="none" xmlns="http://www.w3.org/2000/svg">
<path d="M2 22L2 12" stroke="#141B34" stroke-width="1.5" stroke-linecap="round" stroke-linejoin="round"/>
<path d="M22 22L22 12" stroke="#141B34" stroke-width="1.5" stroke-linecap="round" stroke-linejoin="round"/>
<path d="M12 22V21" stroke="#141B34" stroke-width="1.5" stroke-linecap="round" stroke-linejoin="round"/>
<path d="M12 18V17" stroke="#141B34" stroke-width="1.5" stroke-linecap="round" stroke-linejoin="round"/>
<path d="M17.75 13C17.75 12.5858 17.4142 12.25 17 12.25C16.5858 12.25 16.25 12.5858 16.25 13H17.75ZM16.25 14.5C16.25 14.9142 16.5858 15.25 17 15.25C17.4142 15.25 17.75 14.9142 17.75 14.5H16.25ZM7.75 13C7.75 12.5858 7.41421 12.25 7 12.25C6.58579 12.25 6.25 12.5858 6.25 13H7.75ZM6.25 14.5C6.25 14.9142 6.58579 15.25 7 15.25C7.41421 15.25 7.75 14.9142 7.75 14.5H6.25ZM5.77933 7.98504C5.4397 7.74793 4.97215 7.83104 4.73504 8.17067C4.49793 8.5103 4.58104 8.97785 4.92067 9.21496L5.77933 7.98504ZM5.97067 9.94801C6.3103 10.1851 6.77785 10.102 7.01496 9.76238C7.25207 9.42275 7.16896 8.95521 6.82933 8.71809L5.97067 9.94801ZM18.8971 9.67479C19.2882 9.53833 19.4946 9.11066 19.3581 8.71957C19.2217 8.32849 18.794 8.12207 18.4029 8.25854L18.8971 9.67479ZM17.3529 8.62493C16.9618 8.76139 16.7554 9.18906 16.8919 9.58015C17.0283 9.97123 17.456 10.1776 17.8471 10.0412L17.3529 8.62493ZM13.5 11.25C13.9142 11.25 14.25 10.9142 14.25 10.5C14.25 10.0858 13.9142 9.75 13.5 9.75V11.25ZM10.5 9.75C10.0858 9.75 9.75 10.0858 9.75 10.5C9.75 10.9142 10.0858 11.25 10.5 11.25V9.75ZM17.252 5.36896C16.8851 5.56116 16.7434 6.01441 16.9356 6.38134C17.1278 6.74826 17.5811 6.8899 17.948 6.69771L17.252 5.36896ZM18.648 6.33104C19.0149 6.13884 19.1566 5.68559 18.9644 5.31866C18.7722 4.95174 18.3189 4.8101 17.952 5.00229L18.648 6.33104ZM6.05199 6.69771C6.41892 6.8899 6.87218 6.74826 7.06437 6.38134C7.25657 6.01441 7.11493 5.56116 6.74801 5.36896L6.05199 6.69771ZM6.04801 5.00229C5.68108 4.8101 5.22782 4.95174 5.03563 5.31866C4.84343 5.68559 4.98507 6.13884 5.35199 6.33104L6.04801 5.00229ZM7.51181 4.00573L6.79712 3.77833V3.77833L7.51181 4.00573ZM16.4882 4.00573L17.2029 3.77833V3.77833L16.4882 4.00573ZM8.34047 2.27684L7.88852 1.67831L7.88852 1.67831L8.34047 2.27684ZM5.61821 12.6975L5.72122 11.9546H5.72122L5.61821 12.6975ZM7.8 13L7.69699 13.7429C7.73113 13.7476 7.76554 13.75 7.8 13.75V13ZM18.3818 12.6975L18.2788 11.9546H18.2788L18.3818 12.6975ZM16.2 13V13.75C16.2345 13.75 16.2689 13.7476 16.303 13.7429L16.2 13ZM16.25 13V14.5H17.75V13H16.25ZM6.25 13V14.5H7.75V13H6.25ZM4.92067 9.21496L5.97067 9.94801L6.82933 8.71809L5.77933 7.98504L4.92067 9.21496ZM18.4029 8.25854L17.3529 8.62493L17.8471 10.0412L18.8971 9.67479L18.4029 8.25854ZM17.948 6.69771L18.648 6.33104L17.952 5.00229L17.252 5.36896L17.948 6.69771ZM6.74801 5.36896L6.04801 5.00229L5.35199 6.33104L6.05199 6.69771L6.74801 5.36896ZM7.46469 6.6274L8.22651 4.23313L6.79712 3.77833L6.03531 6.1726L7.46469 6.6274ZM17.9647 6.1726L17.2029 3.77833L15.7735 4.23313L16.5353 6.6274L17.9647 6.1726ZM10.1681 2.75H13.8319V1.25H10.1681V2.75ZM17.2029 3.77833C17.054 3.31031 16.9248 2.90085 16.7813 2.57771C16.6309 2.239 16.435 1.92256 16.1115 1.67831L15.2076 2.87538C15.2507 2.90797 15.3151 2.97196 15.4104 3.18648C15.5126 3.41656 15.6144 3.73313 15.7735 4.23313L17.2029 3.77833ZM13.8319 2.75C14.337 2.75 14.6498 2.75124 14.8844 2.7793C15.0976 2.8048 15.1674 2.84501 15.2076 2.87538L16.1115 1.67831C15.7851 1.43184 15.428 1.33363 15.0625 1.28991C14.7184 1.24876 14.3008 1.25 13.8319 1.25V2.75ZM8.22651 4.23313C8.3856 3.73313 8.48744 3.41656 8.58961 3.18648C8.68487 2.97196 8.74925 2.90797 8.79241 2.87538L7.88852 1.67831C7.56504 1.92256 7.3691 2.239 7.2187 2.57771C7.0752 2.90085 6.94603 3.31031 6.79712 3.77833L8.22651 4.23313ZM10.1681 1.25C9.6992 1.25 9.28156 1.24876 8.93747 1.28991C8.572 1.33363 8.21494 1.43184 7.88852 1.67831L8.79241 2.87538C8.83264 2.84501 8.90241 2.8048 9.1156 2.7793C9.35018 2.75124 9.66304 2.75 10.1681 2.75V1.25ZM4.25 9.33305V11.8781H5.75V9.33305H4.25ZM5.51521 13.4404L7.69699 13.7429L7.90301 12.2571L5.72122 11.9546L5.51521 13.4404ZM18.25 9.33305V11.8781H19.75V9.33305H18.25ZM18.2788 11.9546L16.097 12.2571L16.303 13.7429L18.4848 13.4404L18.2788 11.9546ZM7.8 13.75H16.2V12.25H7.8V13.75ZM6.75 7.15H17.25V5.65H6.75V7.15ZM18.25 11.8781C18.25 11.9305 18.233 11.9632 18.2244 11.9746C18.2206 11.9797 18.2214 11.9768 18.2304 11.9712C18.2402 11.9651 18.2568 11.9576 18.2788 11.9546L18.4848 13.4404C19.2965 13.3278 19.75 12.5742 19.75 11.8781H18.25ZM4.25 11.8781C4.25 12.5742 4.70348 13.3278 5.51521 13.4404L5.72122 11.9546C5.74316 11.9576 5.75983 11.9651 5.7696 11.9712C5.77865 11.9768 5.77942 11.9797 5.77561 11.9746C5.76699 11.9632 5.75 11.9305 5.75 11.8781H4.25ZM6.19295 5.89781C5.88795 6.23612 5.39982 6.73449 5.01311 7.27673C4.62444 7.82172 4.25 8.52519 4.25 9.33305H5.75C5.75 8.98616 5.91554 8.59473 6.23435 8.14769C6.55513 7.69791 6.942 7.30712 7.30705 6.90219L6.19295 5.89781ZM16.6929 6.90219C17.058 7.30712 17.4449 7.69791 17.7656 8.14769C18.0845 8.59473 18.25 8.98616 18.25 9.33305H19.75C19.75 8.52519 19.3756 7.82172 18.9869 7.27673C18.6002 6.73449 18.112 6.23612 17.8071 5.89781L16.6929 6.90219ZM10.5 11.25H13.5V9.75H10.5V11.25Z" fill="#141B34"/>
</svg>
