<svg width="24" height="24" viewBox="0 0 24 24" fill="none" xmlns="http://www.w3.org/2000/svg">
<path d="M16.9523 16.5361L17.4533 15.978C17.1681 15.7219 16.7356 15.7222 16.4506 15.9786L16.9523 16.5361ZM3.34514 19.7827L2.84413 20.3408L2.84413 20.3408L3.34514 19.7827ZM6.99398 7.49988L7.49568 8.05737L6.99398 7.49988ZM20.6549 4.20497L21.1559 3.64686V3.64686L20.6549 4.20497ZM19.7259 12.1129C19.5104 12.4666 19.6224 12.9281 19.9762 13.1436C20.3299 13.3591 20.7914 13.2471 21.0069 12.8934L19.7259 12.1129ZM15.9271 20.1346C15.79 20.5255 15.9957 20.9535 16.3866 21.0906C16.7774 21.2277 17.2054 21.022 17.3426 20.6311L15.9271 20.1346ZM16.4506 15.9786C14.1412 18.057 11.5406 19.4221 9.21966 19.9736C6.87148 20.5315 4.96519 20.2291 3.84616 19.2246L2.84413 20.3408C4.48985 21.8182 6.99717 22.0434 9.5664 21.4329C12.1629 20.816 14.9835 19.3169 17.454 17.0936L16.4506 15.9786ZM3.84616 19.2246C2.76341 18.2526 2.44351 16.61 3.05925 14.5373C3.67177 12.4754 5.1839 10.1378 7.49568 8.05737L6.49227 6.9424C4.02411 9.1636 2.32945 11.7265 1.62135 14.1101C0.916476 16.4829 1.16213 18.8308 2.84413 20.3408L3.84616 19.2246ZM7.49568 8.05737C9.80524 5.97891 12.4201 4.60106 14.756 4.03767C17.1212 3.4672 19.0378 3.76116 20.1538 4.76307L21.1559 3.64686C19.5072 2.16684 16.9833 1.95742 14.4043 2.57948C11.7959 3.20861 8.96266 4.71919 6.49227 6.9424L7.49568 8.05737ZM20.1538 4.76307C20.9275 5.45762 21.3027 6.4733 21.2441 7.74706C21.1849 9.03286 20.68 10.5471 19.7259 12.1129L21.0069 12.8934C22.0521 11.1779 22.6687 9.42036 22.7425 7.81602C22.8169 6.19964 22.3367 4.70686 21.1559 3.64686L20.1538 4.76307ZM16.4513 17.0942C16.3957 17.0443 16.4774 17.0809 16.4839 17.4478C16.4895 17.762 16.4372 18.1595 16.3529 18.5744C16.27 18.9823 16.1632 19.3742 16.076 19.6667C16.0327 19.8121 15.9948 19.9311 15.968 20.0129C15.9546 20.0538 15.944 20.0853 15.9369 20.1061C15.9334 20.1164 15.9308 20.1241 15.9291 20.1289C15.9283 20.1313 15.9277 20.133 15.9273 20.134C15.9272 20.1345 15.9271 20.1348 15.927 20.1349C15.927 20.1349 15.927 20.1349 15.927 20.1349C15.927 20.1349 15.927 20.1348 15.9271 20.1348C15.9271 20.1347 15.9271 20.1346 16.6348 20.3829C17.3426 20.6311 17.3426 20.631 17.3426 20.6309C17.3427 20.6309 17.3427 20.6307 17.3427 20.6306C17.3428 20.6304 17.3429 20.6301 17.343 20.6298C17.3433 20.6291 17.3436 20.6283 17.3439 20.6272C17.3446 20.6252 17.3456 20.6223 17.3469 20.6188C17.3493 20.6117 17.3528 20.6016 17.3571 20.5888C17.3658 20.5632 17.3782 20.5265 17.3934 20.48C17.4238 20.3873 17.4658 20.2553 17.5136 20.0951C17.6085 19.7764 17.7282 19.3387 17.8229 18.873C17.9161 18.4142 17.9921 17.8941 17.9837 17.421C17.9762 17.0005 17.9013 16.3802 17.4533 15.978L16.4513 17.0942Z" fill="#141B34"/>
</svg>
