<svg width="24" height="24" viewBox="0 0 24 24" fill="none" xmlns="http://www.w3.org/2000/svg">
<path d="M11.5 21.9989C11.3349 21.9996 11.1683 22 11 22C9.4153 22 7.97627 21.966 6.55966 21.9009C4.87613 21.8235 3.49269 20.515 3.26781 18.8447C3.12105 17.7547 3 16.6376 3 15.5C3 14.3624 3.12105 13.2453 3.26781 12.1553C3.49269 10.485 4.87613 9.17649 6.55966 9.09909C7.97627 9.03397 9.4153 9 11 9C12.5847 9 14.0237 9.03397 15.4403 9.09909C16.8963 9.16603 18.0482 10.1538 18.5 11.5" stroke="#141B34" stroke-width="1.5" stroke-linecap="round"/>
<path d="M6.5 9V6.5C6.5 4.01472 8.51472 2 11 2C13.4853 2 15.5 4.01472 15.5 6.5V9" stroke="#141B34" stroke-width="1.5" stroke-linecap="round" stroke-linejoin="round"/>
<path d="M15.9896 17.7675C15.6157 17.5892 15.1681 17.7477 14.9898 18.1215C14.8114 18.4954 14.9699 18.943 15.3437 19.1214L15.9896 17.7675ZM16.5556 19.3333L15.9094 19.7141C16.05 19.9528 16.3109 20.0945 16.5877 20.0826C16.8645 20.0708 17.1123 19.9072 17.232 19.6573L16.5556 19.3333ZM18.6888 17.7715C19.0536 17.5752 19.1901 17.1203 18.9937 16.7556C18.7974 16.3909 18.3425 16.2544 17.9778 16.4507L18.6888 17.7715ZM20.25 18C20.25 19.7949 18.7949 21.25 17 21.25V22.75C19.6234 22.75 21.75 20.6234 21.75 18H20.25ZM17 21.25C15.2051 21.25 13.75 19.7949 13.75 18H12.25C12.25 20.6234 14.3766 22.75 17 22.75V21.25ZM13.75 18C13.75 16.2051 15.2051 14.75 17 14.75V13.25C14.3766 13.25 12.25 15.3766 12.25 18H13.75ZM17 14.75C18.7949 14.75 20.25 16.2051 20.25 18H21.75C21.75 15.3766 19.6234 13.25 17 13.25V14.75ZM15.6667 18.4444C15.3437 19.1214 15.3435 19.1212 15.3432 19.1211C15.3432 19.1211 15.3429 19.121 15.3428 19.1209C15.3425 19.1207 15.3422 19.1206 15.3419 19.1205C15.3413 19.1202 15.3407 19.1199 15.3401 19.1196C15.3391 19.1191 15.3381 19.1186 15.3372 19.1182C15.3355 19.1174 15.3342 19.1167 15.3334 19.1163C15.3317 19.1155 15.3318 19.1154 15.3333 19.1163C15.3365 19.118 15.3458 19.1231 15.3602 19.1319C15.389 19.1496 15.4372 19.1814 15.4962 19.2293C15.6146 19.3251 15.7724 19.4816 15.9094 19.7141L17.2017 18.9526C16.9577 18.5385 16.6711 18.2505 16.4403 18.0636C16.3247 17.97 16.2221 17.9008 16.1438 17.8529C16.1046 17.8289 16.0712 17.81 16.0451 17.7959C16.0321 17.7889 16.0208 17.7831 16.0115 17.7783C16.0069 17.776 16.0027 17.7739 15.999 17.7721C15.9972 17.7712 15.9955 17.7704 15.9939 17.7696C15.9931 17.7692 15.9924 17.7689 15.9917 17.7685C15.9913 17.7683 15.991 17.7682 15.9906 17.768C15.9904 17.7679 15.9902 17.7678 15.9901 17.7678C15.9898 17.7676 15.9896 17.7675 15.6667 18.4444ZM16.5556 19.3333C17.232 19.6573 17.2319 19.6574 17.2319 19.6575C17.2319 19.6575 17.2318 19.6576 17.2318 19.6577C17.2317 19.6578 17.2317 19.6579 17.2317 19.6579C17.2316 19.658 17.2316 19.658 17.2317 19.6579C17.2318 19.6577 17.2321 19.6571 17.2326 19.6561C17.2335 19.6541 17.2353 19.6506 17.2377 19.6456C17.2426 19.6356 17.2505 19.6198 17.2611 19.5989C17.2824 19.557 17.3147 19.4949 17.3566 19.418C17.4409 19.2635 17.5621 19.0532 17.7097 18.8297C18.0274 18.3488 18.3854 17.9348 18.6888 17.7715L17.9778 16.4507C17.32 16.8049 16.7891 17.502 16.4582 18.0029C16.2815 18.2703 16.1386 18.5185 16.0397 18.6998C15.9901 18.7908 15.951 18.8659 15.9239 18.9193C15.9103 18.946 15.8997 18.9673 15.8922 18.9826C15.8884 18.9902 15.8855 18.9963 15.8833 19.0008C15.8822 19.003 15.8813 19.0049 15.8806 19.0063C15.8803 19.007 15.88 19.0076 15.8797 19.0081C15.8796 19.0084 15.8795 19.0086 15.8794 19.0088C15.8793 19.0089 15.8793 19.0091 15.8793 19.0091C15.8792 19.0092 15.8791 19.0094 16.5556 19.3333Z" fill="#141B34"/>
</svg>
