<svg width="24" height="24" viewBox="0 0 24 24" fill="none" xmlns="http://www.w3.org/2000/svg">
<path d="M2 20.25C1.58579 20.25 1.25 20.5858 1.25 21C1.25 21.4142 1.58579 21.75 2 21.75V20.25ZM15 7.75C15.4142 7.75 15.75 7.41421 15.75 7C15.75 6.58579 15.4142 6.25 15 6.25V7.75ZM7.31129 10.518L8.02107 10.2757L7.31129 10.518ZM9.68871 17.482L10.3985 17.2397L9.68871 17.482ZM10.8361 20.0589L11.3959 19.5598L11.3959 19.5598L10.8361 20.0589ZM14.2353 21.75C14.6495 21.75 14.9853 21.4142 14.9853 21C14.9853 20.5858 14.6495 20.25 14.2353 20.25V21.75ZM11.6886 20.7186L11.3512 21.3884H11.3512L11.6886 20.7186ZM2.76471 6.25C2.35049 6.25 2.01471 6.58579 2.01471 7C2.01471 7.41421 2.35049 7.75 2.76471 7.75V6.25ZM5.31138 7.28143L4.97395 7.95124V7.95124L5.31138 7.28143ZM6.16394 7.94111L5.60414 8.44024L5.60414 8.44024L6.16394 7.94111ZM2 21.75C3.65143 21.75 4.98111 20.6354 6.0704 19.2829C7.17532 17.911 8.1855 16.0996 9.15465 14.366C10.1421 12.5996 11.0886 10.911 12.0978 9.65794C13.1227 8.38543 14.0647 7.75 15 7.75V6.25C13.3486 6.25 12.0189 7.36457 10.9296 8.71706C9.82468 10.089 8.8145 11.9004 7.84535 13.634C6.85786 15.4004 5.91142 17.089 4.90218 18.3421C3.87731 19.6146 2.9353 20.25 2 20.25V21.75ZM6.60151 10.7603L8.97893 17.7243L10.3985 17.2397L8.02107 10.2757L6.60151 10.7603ZM8.97893 17.7243C9.21338 18.4111 9.40145 18.9633 9.58746 19.4029C9.77682 19.8504 9.98306 20.2292 10.2763 20.558L11.3959 19.5598C11.2554 19.4022 11.1258 19.1893 10.9689 18.8184C10.8086 18.4396 10.6398 17.9466 10.3985 17.2397L8.97893 17.7243ZM14.2353 20.25C13.5597 20.25 13.1009 20.2493 12.74 20.2177C12.3929 20.1873 12.1904 20.1315 12.0261 20.0488L11.3512 21.3884C11.7455 21.587 12.1537 21.672 12.6089 21.712C13.0504 21.7507 13.5855 21.75 14.2353 21.75V20.25ZM10.2763 20.558C10.5827 20.9017 10.9462 21.1843 11.3512 21.3884L12.0261 20.0488C11.7964 19.9331 11.5821 19.7687 11.3959 19.5598L10.2763 20.558ZM2.76471 7.75C3.44029 7.75 3.89914 7.75066 4.26005 7.78231C4.60715 7.81275 4.80965 7.86846 4.97395 7.95124L5.64882 6.61163C5.25448 6.41297 4.84632 6.32797 4.39108 6.28805C3.94965 6.24934 3.41448 6.25 2.76471 6.25V7.75ZM8.02107 10.2757C7.78662 9.58893 7.59855 9.03665 7.41254 8.59706C7.22318 8.14955 7.01694 7.77082 6.72373 7.44198L5.60414 8.44024C5.74463 8.5978 5.87417 8.81068 6.03112 9.1816C6.19143 9.56044 6.36019 10.0534 6.60151 10.7603L8.02107 10.2757ZM4.97395 7.95124C5.20358 8.06692 5.41787 8.23132 5.60414 8.44024L6.72373 7.44198C6.41731 7.09832 6.05383 6.81566 5.64882 6.61163L4.97395 7.95124Z" fill="#141B34"/>
<path d="M22.0002 8.99985H18.0002L21.2003 6.59981C21.7039 6.22212 22.0002 5.62938 22.0002 4.9999C22.0002 3.89538 21.1047 2.99999 20.0001 3C18.8956 3.00001 18 3.89543 18 4.99998" stroke="#141B34" stroke-width="1.5" stroke-linecap="round" stroke-linejoin="round"/>
</svg>
