<svg width="24" height="24" viewBox="0 0 24 24" fill="none" xmlns="http://www.w3.org/2000/svg">
<path d="M3 11L3 15.5C3 18.3284 3 19.7426 3.87868 20.6213C4.75736 21.5 6.17157 21.5 9 21.5H15C17.8284 21.5 19.2426 21.5 20.1213 20.6213C21 19.7426 21 18.3284 21 15.5V11" stroke="#141B34" stroke-width="1.5"/>
<path d="M15 17C14.3159 17.6072 13.2268 18 12 18C10.7732 18 9.68409 17.6072 9 17" stroke="#141B34" stroke-width="1.5" stroke-linecap="round"/>
<path d="M7.97071 9L8.6952 8.80605C8.59787 8.44245 8.2461 8.20732 7.87291 8.2564C7.49971 8.30549 7.22071 8.62359 7.22071 9H7.97071ZM2.11347 10.0405L2.8163 9.77865L2.8163 9.77865L2.11347 10.0405ZM21.8865 10.0405L21.1837 9.77865L21.1837 9.77866L21.8865 10.0405ZM16.0293 9H16.7793C16.7793 8.62359 16.5003 8.30549 16.1271 8.2564C15.7539 8.20732 15.4021 8.44245 15.3048 8.80605L16.0293 9ZM2.45767 8.0777L3.10768 8.45185L3.10768 8.45185L2.45767 8.0777ZM3.42134 6.40355L2.77133 6.02939H2.77133L3.42134 6.40355ZM21.5423 8.0777L20.8923 8.45185V8.45185L21.5423 8.0777ZM20.5787 6.40355L21.2287 6.02939V6.02939L20.5787 6.40355ZM21.9873 9.22893L21.2398 9.29116V9.29117L21.9873 9.22893ZM2.01274 9.22893L1.26533 9.16669L2.01274 9.22893ZM7.22071 9C7.22071 10.2375 6.20869 11.25 4.94875 11.25V12.75C7.02678 12.75 8.72071 11.0762 8.72071 9H7.22071ZM4.94875 11.25C3.96882 11.25 3.13568 10.6361 2.8163 9.77865L1.41065 10.3022C1.94354 11.7329 3.32767 12.75 4.94875 12.75V11.25ZM21.1837 9.77866C20.8643 10.6361 20.0312 11.25 19.0513 11.25V12.75C20.6723 12.75 22.0565 11.7329 22.5894 10.3022L21.1837 9.77866ZM19.0513 11.25C17.7913 11.25 16.7793 10.2375 16.7793 9H15.2793C15.2793 11.0762 16.9732 12.75 19.0513 12.75V11.25ZM12 11.25C10.3913 11.25 9.06678 10.1941 8.6952 8.80605L7.24623 9.19395C7.79833 11.2564 9.73155 12.75 12 12.75V11.25ZM15.3048 8.80605C14.9332 10.1941 13.6087 11.25 12 11.25V12.75C14.2685 12.75 16.2017 11.2564 16.7538 9.19395L15.3048 8.80605ZM3.10768 8.45185L4.07134 6.7777L2.77133 6.02939L1.80766 7.70355L3.10768 8.45185ZM22.1923 7.70355L21.2287 6.02939L19.9287 6.7777L20.8923 8.45185L22.1923 7.70355ZM5.91511 3.25H18.0849V1.75H5.91511V3.25ZM20.8086 4.45934C20.8086 2.95786 19.584 1.75 18.0849 1.75V3.25C18.7659 3.25 19.3086 3.79659 19.3086 4.45934H20.8086ZM21.2287 6.02939C20.9532 5.55089 20.8086 5.00972 20.8086 4.45934H19.3086C19.3086 5.27286 19.5224 6.072 19.9287 6.7777L21.2287 6.02939ZM4.69143 4.45934C4.69143 3.79659 5.23412 3.25 5.91511 3.25V1.75C4.41603 1.75 3.19143 2.95786 3.19143 4.45934H4.69143ZM22.5893 10.3023C22.6322 10.1872 22.6943 10.0269 22.726 9.82441C22.7576 9.62312 22.7553 9.41456 22.7347 9.16669L21.2398 9.29117C21.256 9.48553 21.2492 9.55963 21.2442 9.592C21.2393 9.62315 21.2325 9.64756 21.1837 9.77865L22.5893 10.3023ZM20.8923 8.45185C21.1674 8.92967 21.2185 9.03434 21.2398 9.29116L22.7347 9.16669C22.6824 8.53904 22.4614 8.17106 22.1923 7.70355L20.8923 8.45185ZM4.07134 6.7777C4.47755 6.072 4.69143 5.27286 4.69143 4.45934H3.19143C3.19143 5.00972 3.04676 5.55089 2.77133 6.02939L4.07134 6.7777ZM2.8163 9.77865C2.76747 9.64756 2.76074 9.62315 2.75585 9.592C2.75078 9.55963 2.74397 9.48552 2.76016 9.29116L1.26533 9.16669C1.24469 9.41457 1.2424 9.62312 1.27397 9.82441C1.30573 10.0269 1.36778 10.1872 1.41065 10.3022L2.8163 9.77865ZM1.80766 7.70355C1.53856 8.17106 1.31759 8.53904 1.26533 9.16669L2.76016 9.29116C2.78154 9.03434 2.83264 8.92967 3.10768 8.45185L1.80766 7.70355Z" fill="#141B34"/>
</svg>
