<svg width="24" height="24" viewBox="0 0 24 24" fill="none" xmlns="http://www.w3.org/2000/svg">
<path d="M20 18L20 6M6 20H18M18 4H6M4 6V18" stroke="#141B34" stroke-width="1.5" stroke-linecap="round" stroke-linejoin="round"/>
<path d="M14.9049 8.33106L15.075 7.60061V7.60061L14.9049 8.33106ZM9.09513 8.33106L9.26526 9.06151L9.09513 8.33106ZM8.28394 8.6405L8.79437 9.19002H8.79437L8.28394 8.6405ZM7.25 9.77778C7.25 10.192 7.58579 10.5278 8 10.5278C8.41421 10.5278 8.75 10.192 8.75 9.77778H7.25ZM8.11737 8.85033L7.46639 8.47786L7.46639 8.47786L8.11737 8.85033ZM15.7161 8.6405L16.2265 8.09099L16.2265 8.09099L15.7161 8.6405ZM15.25 9.77778C15.25 10.192 15.5858 10.5278 16 10.5278C16.4142 10.5278 16.75 10.192 16.75 9.77778H15.25ZM15.8826 8.85033L15.2317 9.2228L15.2317 9.2228L15.8826 8.85033ZM11.25 16C11.25 16.4142 11.5858 16.75 12 16.75C12.4142 16.75 12.75 16.4142 12.75 16H11.25ZM13.3333 16.75C13.7475 16.75 14.0833 16.4142 14.0833 16C14.0833 15.5858 13.7475 15.25 13.3333 15.25V16.75ZM10.6667 15.25C10.2525 15.25 9.91667 15.5858 9.91667 16C9.91667 16.4142 10.2525 16.75 10.6667 16.75V15.25ZM12 8.75C12.9464 8.75 13.8629 8.85844 14.7347 9.06151L15.075 7.60061C14.0918 7.37161 13.0611 7.25 12 7.25V8.75ZM9.26526 9.06151C10.1371 8.85844 11.0536 8.75 12 8.75V7.25C10.9389 7.25 9.90823 7.37161 8.925 7.60061L9.26526 9.06151ZM8.925 7.60061C8.56785 7.6838 8.12414 7.7653 7.77351 8.09099L8.79437 9.19002C8.79478 9.18963 8.79426 9.19014 8.79313 9.19096C8.79202 9.19177 8.79178 9.19182 8.79316 9.19104C8.79615 9.18935 8.80958 9.18213 8.8431 9.17038C8.92394 9.14204 9.03756 9.11454 9.26526 9.06151L8.925 7.60061ZM8.75 9.77778C8.75 9.52229 8.75087 9.38537 8.76091 9.28536C8.76916 9.20331 8.77905 9.20408 8.76834 9.2228L7.46639 8.47786C7.33832 8.7017 7.28953 8.92542 7.26843 9.13542C7.24913 9.32748 7.25 9.55172 7.25 9.77778H8.75ZM7.77351 8.09099C7.6567 8.19949 7.54557 8.33948 7.46639 8.47786L8.76834 9.2228C8.76748 9.2243 8.76819 9.22294 8.77081 9.21913C8.77334 9.21544 8.7767 9.21084 8.78066 9.20586C8.78461 9.20087 8.78833 9.19655 8.79135 9.19325C8.79447 9.18984 8.79563 9.18884 8.79437 9.19002L7.77351 8.09099ZM14.7347 9.06151C14.9624 9.11454 15.0761 9.14204 15.1569 9.17038C15.1904 9.18213 15.2039 9.18935 15.2068 9.19104C15.2082 9.19182 15.208 9.19177 15.2069 9.19096C15.2057 9.19014 15.2052 9.18963 15.2056 9.19002L16.2265 8.09099C15.8759 7.7653 15.4322 7.6838 15.075 7.60061L14.7347 9.06151ZM16.75 9.77778C16.75 9.55172 16.7509 9.32748 16.7316 9.13542C16.7105 8.92542 16.6617 8.7017 16.5336 8.47786L15.2317 9.2228C15.221 9.20408 15.2308 9.20331 15.2391 9.28536C15.2491 9.38537 15.25 9.52229 15.25 9.77778H16.75ZM15.2056 9.19001C15.2044 9.18884 15.2055 9.18984 15.2087 9.19325C15.2117 9.19655 15.2154 9.20087 15.2193 9.20586C15.2233 9.21084 15.2267 9.21544 15.2292 9.21913C15.2318 9.22294 15.2325 9.2243 15.2317 9.2228L16.5336 8.47786C16.4544 8.33948 16.3433 8.19949 16.2265 8.09099L15.2056 9.19001ZM11.25 8V16H12.75V8H11.25ZM13.3333 15.25H10.6667V16.75H13.3333V15.25Z" fill="#141B34"/>
<rect x="18" y="2" width="4" height="4" rx="1" stroke="#141B34" stroke-width="1.5"/>
<rect x="2" y="2" width="4" height="4" rx="1" stroke="#141B34" stroke-width="1.5"/>
<rect x="18" y="18" width="4" height="4" rx="1" stroke="#141B34" stroke-width="1.5"/>
<rect x="2" y="18" width="4" height="4" rx="1" stroke="#141B34" stroke-width="1.5"/>
</svg>
