<svg width="24" height="24" viewBox="0 0 24 24" fill="none" xmlns="http://www.w3.org/2000/svg">
<path d="M18.3209 11.9618L17.7889 12.4905L18.3209 11.9618ZM17.9983 17.6892L18.6748 18.0131L18.6748 18.0131L17.9983 17.6892ZM16.1417 22C16.1417 22.4142 16.4775 22.75 16.8917 22.75C17.3059 22.75 17.6417 22.4142 17.6417 22H16.1417ZM7.24986 14C7.24986 14.4142 7.58564 14.75 7.99986 14.75C8.41407 14.75 8.74986 14.4142 8.74986 14H7.24986ZM11.4999 9.5H10.7499C10.7499 9.70469 10.8335 9.90049 10.9814 10.042C11.1294 10.1835 11.3287 10.2584 11.5332 10.2493L11.4999 9.5ZM7.25 22C7.25 22.4142 7.58579 22.75 8 22.75C8.41421 22.75 8.75 22.4142 8.75 22H7.25ZM5.67457 17.0914L5.0335 17.4807L5.0335 17.4807L5.67457 17.0914ZM4.62367 13.6086L5.33213 13.8547H5.33213L4.62367 13.6086ZM8.45162 10.5988C8.78232 10.3494 8.84821 9.87908 8.59878 9.54838C8.34936 9.21768 7.87908 9.15179 7.54838 9.40122L8.45162 10.5988ZM17.7889 12.4905C18.2051 12.9093 18.342 13.6569 18.1901 14.671C18.0438 15.6486 17.6568 16.6658 17.3219 17.3653L18.6748 18.0131C19.0469 17.2359 19.4974 16.0699 19.6736 14.8931C19.8443 13.7529 19.7889 12.3751 18.8529 11.4332L17.7889 12.4905ZM17.3219 17.3653C17.2382 17.54 17.133 17.7297 17.0094 17.9507C16.8899 18.1644 16.7544 18.4053 16.6308 18.6526C16.3895 19.1351 16.1417 19.7383 16.1417 20.382H17.6417C17.6417 20.1001 17.756 19.7563 17.9724 19.3235C18.0775 19.1132 18.1948 18.9043 18.3186 18.6828C18.4384 18.4687 18.5672 18.2378 18.6748 18.0131L17.3219 17.3653ZM16.1417 20.382V22H17.6417V20.382H16.1417ZM7.24986 3.75V14H8.74986V3.75H7.24986ZM10.7499 3.75V9.5H12.2499V3.75H10.7499ZM11.5332 10.2493C13.1368 10.1779 15.8677 10.557 17.7889 12.4905L18.8529 11.4332C16.511 9.07631 13.2794 8.67013 11.4665 8.75074L11.5332 10.2493ZM8.74986 3.75C8.74986 3.19772 9.19757 2.75 9.74986 2.75V1.25C8.36914 1.25 7.24986 2.36929 7.24986 3.75H8.74986ZM9.74986 2.75C10.3021 2.75 10.7499 3.19772 10.7499 3.75H12.2499C12.2499 2.36929 11.1306 1.25 9.74986 1.25V2.75ZM7.25 21.0049V22H8.75V21.0049H7.25ZM5.0335 17.4807C5.18109 17.7237 5.4139 18.036 5.64796 18.3478C5.89257 18.6736 6.15864 19.0247 6.40933 19.3828C6.66099 19.7424 6.88197 20.088 7.03771 20.395C7.20348 20.7219 7.25 20.919 7.25 21.0049H8.75C8.75 20.5542 8.56801 20.0961 8.37547 19.7165C8.1729 19.3171 7.90577 18.905 7.63824 18.5227C7.36974 18.1391 7.08554 17.7642 6.84751 17.4472C6.59892 17.1161 6.41672 16.8686 6.31564 16.7021L5.0335 17.4807ZM5.33213 13.8547C5.41172 13.6256 5.61441 13.3043 5.93705 12.9192C6.24908 12.5468 6.6305 12.1646 7.00835 11.8154C7.38448 11.4678 7.7471 11.1622 8.01624 10.9431C8.1505 10.8338 8.26074 10.7467 8.33681 10.6873C8.37482 10.6577 8.40425 10.635 8.42382 10.62C8.43361 10.6125 8.44092 10.6069 8.44561 10.6033C8.44795 10.6016 8.44964 10.6003 8.45065 10.5995C8.45115 10.5991 8.45148 10.5989 8.45165 10.5988C8.45173 10.5987 8.45177 10.5987 8.45176 10.5987C8.45176 10.5987 8.45172 10.5987 8.45172 10.5987C8.45168 10.5987 8.45162 10.5988 8 10C7.54838 9.40122 7.5483 9.40128 7.54821 9.40135C7.54817 9.40138 7.54806 9.40146 7.54798 9.40152C7.5478 9.40166 7.54757 9.40183 7.5473 9.40203C7.54677 9.40243 7.54606 9.40297 7.54518 9.40364C7.54342 9.40497 7.54097 9.40683 7.53786 9.40919C7.53163 9.41393 7.52273 9.42071 7.51133 9.42945C7.48852 9.44693 7.45567 9.47226 7.41406 9.50473C7.33087 9.56964 7.21249 9.66323 7.06928 9.77981C6.78349 10.0124 6.39578 10.3391 5.99033 10.7138C5.5866 11.0868 5.15518 11.5168 4.78728 11.9559C4.42998 12.3824 4.08563 12.8719 3.91521 13.3624L5.33213 13.8547ZM6.31564 16.7022C5.96505 16.1248 5.64346 15.6558 5.43458 15.1488C5.239 14.674 5.18935 14.2657 5.33213 13.8547L3.91521 13.3624C3.61226 14.2344 3.76691 15.0386 4.04765 15.7201C4.31509 16.3693 4.74181 17.0003 5.0335 17.4807L6.31564 16.7022Z" fill="#141B34"/>
</svg>
