<svg width="24" height="24" viewBox="0 0 24 24" fill="none" xmlns="http://www.w3.org/2000/svg">
<path d="M19 13.0526V13.2264M19 13.2264C19 12.3517 18.3574 11.6051 17.4807 11.4613L16.2727 11.2632V12.1579M19 13.2264V15.4386C19 17.3832 19 18.3555 18.699 19.1296C18.2388 20.3132 17.2915 21.2485 16.0926 21.7029C15.3086 22 14.3238 22 12.3542 22C11.3213 22 10.8048 22 10.3242 21.8957C9.59086 21.7366 8.9091 21.4 8.34017 20.9163C7.96726 20.5992 7.65737 20.1913 7.03761 19.3755L4.30671 15.7805C3.88709 15.2281 3.89916 14.4654 4.33605 13.9262C4.90702 13.2215 5.97161 13.1633 6.61791 13.8014L8 15.2557V6.5C8 5.67157 8.67157 5 9.5 5C10.3284 5 11 5.67157 11 6.5V9.4737M11 9.4737H11.7273C12.7314 9.4737 13.5455 10.2749 13.5455 11.2632M11 9.4737V12.1579M13.5455 11.2632V12.1579M13.5455 11.2632V10.3684H14.4545C15.4587 10.3684 16.2727 11.1696 16.2727 12.1579M16.2727 12.1579V13.0526" stroke="#141B34" stroke-width="1.5" stroke-linecap="round" stroke-linejoin="round"/>
<path opacity="0.4" d="M19.1716 7L19.6585 7.57045L19.1716 7ZM17.5131 7.42955C17.198 7.69846 17.1606 8.17186 17.4295 8.48691C17.6985 8.80196 18.1719 8.83937 18.4869 8.57045L17.5131 7.42955ZM18.4869 3.42955C18.1719 3.16063 17.6985 3.19804 17.4295 3.51309C17.1606 3.82814 17.198 4.30154 17.5131 4.57045L18.4869 3.42955ZM19.1716 5L19.6585 4.42955L19.6585 4.42955L19.1716 5ZM11.0741 8.8442C10.7119 9.04518 10.5812 9.50171 10.7822 9.8639C10.9832 10.2261 11.4397 10.3568 11.8019 10.1558L11.0741 8.8442ZM7.19809 10.1558C7.56028 10.3568 8.01682 10.2261 8.2178 9.8639C8.41878 9.50171 8.28809 9.04518 7.9259 8.8442L7.19809 10.1558ZM20 5.25H13.5V6.75H20V5.25ZM18.6847 6.42955L17.5131 7.42955L18.4869 8.57045L19.6585 7.57045L18.6847 6.42955ZM17.5131 4.57045L18.6847 5.57045L19.6585 4.42955L18.4869 3.42955L17.5131 4.57045ZM19.6585 7.57045C19.9178 7.3491 20.1721 7.13422 20.3521 6.93289C20.5416 6.72088 20.75 6.41551 20.75 6H19.25C19.25 5.87739 19.3204 5.83631 19.2337 5.93323C19.1375 6.04083 18.9776 6.1795 18.6847 6.42955L19.6585 7.57045ZM18.6847 5.57045C18.9776 5.8205 19.1375 5.95917 19.2337 6.06677C19.3204 6.16369 19.25 6.12261 19.25 6H20.75C20.75 5.5845 20.5416 5.27912 20.3521 5.06711C20.1721 4.86579 19.9178 4.6509 19.6585 4.42955L18.6847 5.57045ZM6.25 6C6.25 4.20507 7.70507 2.75 9.5 2.75V1.25C6.87665 1.25 4.75 3.37665 4.75 6H6.25ZM9.5 2.75C11.2949 2.75 12.75 4.20508 12.75 6H14.25C14.25 3.37665 12.1234 1.25 9.5 1.25V2.75ZM12.75 6C12.75 7.22264 12.0752 8.2887 11.0741 8.8442L11.8019 10.1558C13.2602 9.34657 14.25 7.78939 14.25 6H12.75ZM7.9259 8.8442C6.92482 8.2887 6.25 7.22264 6.25 6H4.75C4.75 7.78939 5.73975 9.34657 7.19809 10.1558L7.9259 8.8442Z" fill="#141B34"/>
</svg>
