<svg width="24" height="24" viewBox="0 0 24 24" fill="none" xmlns="http://www.w3.org/2000/svg">
<path fill-rule="evenodd" clip-rule="evenodd" d="M19.3914 6.98242L22.3914 9.48978C22.6191 9.6801 22.7505 9.96174 22.7501 10.2585C22.7497 10.5553 22.6174 10.8366 22.3892 11.0262L19.3892 13.5189L18.111 11.9806L18.9818 11.2571H9.8677L5.78424 19.4189L7.39897 18.8134L8.10122 20.686L4.10122 22.186C3.83981 22.2841 3.54932 22.2684 3.30001 22.1427C3.0507 22.017 2.86527 21.7929 2.78857 21.5244L1.78857 18.0244L3.71162 17.475L4.00563 18.504L8.35553 9.80964C8.52496 9.47097 8.87116 9.25707 9.24984 9.25707H18.9943L18.1088 8.51701L19.3914 6.98242Z" fill="#141B34"/>
<path d="M9.33806 10.4004L5.67587 16.6766C3.04946 15.4202 1.24951 12.6483 1.24951 9.54873C1.24951 5.24652 4.71441 1.75 8.99951 1.75C13.2846 1.75 16.7495 5.24652 16.7495 9.54873C16.7495 9.90474 16.7258 10.2556 16.6797 10.5996L9.33806 10.4004Z" fill="#141B34"/>
</svg>
