<svg width="24" height="24" viewBox="0 0 24 24" fill="none" xmlns="http://www.w3.org/2000/svg">
<path d="M22 12C22 17.5228 17.5228 22 12 22C6.47715 22 2 17.5228 2 12C2 6.47715 6.47715 2 12 2C17.5228 2 22 6.47715 22 12Z" stroke="#141B34" stroke-width="1.5"/>
<path opacity="0.4" d="M12.75 2C12.75 1.58579 12.4142 1.25 12 1.25C11.5858 1.25 11.25 1.58579 11.25 2H12.75ZM11.25 22C11.25 22.4142 11.5858 22.75 12 22.75C12.4142 22.75 12.75 22.4142 12.75 22H11.25ZM5.88243 5.18497C5.98459 4.78355 5.74199 4.37532 5.34057 4.27317C4.93915 4.17101 4.53092 4.41361 4.42877 4.81503L5.88243 5.18497ZM6.56621 11L5.96997 11.455L6.56621 11ZM4.90558 18.4106C4.58004 18.6667 4.52376 19.1382 4.77988 19.4637C5.036 19.7893 5.50753 19.8456 5.83307 19.5894L4.90558 18.4106ZM19.5712 4.81503C19.4691 4.41361 19.0609 4.17101 18.6594 4.27317C18.258 4.37532 18.0154 4.78355 18.1176 5.18497L19.5712 4.81503ZM17.4338 11L18.03 11.455L17.4338 11ZM18.1669 19.5894C18.4925 19.8456 18.964 19.7893 19.2201 19.4637C19.4762 19.1382 19.42 18.6667 19.0944 18.4106L18.1669 19.5894ZM12 15.25C8.09512 15.25 4.67043 13.7487 2.54679 11.4867L1.45321 12.5133C3.89018 15.1091 7.72653 16.75 12 16.75V15.25ZM21.4532 11.4867C19.3296 13.7487 15.9049 15.25 12 15.25V16.75C16.2735 16.75 20.1098 15.1091 22.5468 12.5133L21.4532 11.4867ZM11.25 2V22H12.75V2H11.25ZM4.42877 4.81503C3.99234 6.53001 4.30045 9.26707 5.96997 11.455L7.16245 10.545C5.77969 8.73293 5.55542 6.46999 5.88243 5.18497L4.42877 4.81503ZM5.96997 11.455C6.73051 12.4516 7.26847 13.5357 7.24951 14.6508C7.23124 15.7254 6.69023 17.0065 4.90558 18.4106L5.83307 19.5894C7.86152 17.9935 8.72125 16.326 8.7493 14.6763C8.77665 13.0671 8.0065 11.6512 7.16245 10.545L5.96997 11.455ZM18.1176 5.18497C18.4446 6.46999 18.2203 8.73293 16.8375 10.545L18.03 11.455C19.6996 9.26707 20.0077 6.53001 19.5712 4.81503L18.1176 5.18497ZM16.8375 10.545C15.9935 11.6512 15.2233 13.0671 15.2507 14.6763C15.2788 16.326 16.1385 17.9935 18.1669 19.5894L19.0944 18.4106C17.3098 17.0065 16.7688 15.7254 16.7505 14.6508C16.7315 13.5357 17.2695 12.4516 18.03 11.455L16.8375 10.545Z" fill="#141B34"/>
</svg>
