<svg width="24" height="24" viewBox="0 0 24 24" fill="none" xmlns="http://www.w3.org/2000/svg">
<path d="M12 2C7.71429 4.40741 4 8 2 14C5 12 9 11 12 14C15 11 19 12 22 14C20 8 16.2857 4.40741 12 2Z" stroke="#141B34" stroke-width="1.5" stroke-linecap="round" stroke-linejoin="round"/>
<path d="M11.9999 14C10.3912 14.7327 7.69631 15.8188 8.02333 18" stroke="#141B34" stroke-width="1.5" stroke-linecap="round" stroke-linejoin="round"/>
<path opacity="0.4" d="M11.6716 14C13.0709 17.203 9.38762 19.5 11.9053 22" stroke="#141B34" stroke-width="1.5" stroke-linecap="round" stroke-linejoin="round"/>
<path d="M12 14C14 14 13.5 18.5 15 19" stroke="#141B34" stroke-width="1.5" stroke-linecap="round" stroke-linejoin="round"/>
<path opacity="0.4" d="M11.25 14C11.25 14.4142 11.5858 14.75 12 14.75C12.4142 14.75 12.75 14.4142 12.75 14H11.25ZM12.75 2C12.75 1.58579 12.4142 1.25 12 1.25C11.5858 1.25 11.25 1.58579 11.25 2H12.75ZM9.4955 6.44541C9.189 6.72404 9.16641 7.19837 9.44504 7.50486C9.72368 7.81136 10.198 7.83395 10.5045 7.55532L9.4955 6.44541ZM11.0134 6.36376L11.327 7.04504L11.0134 6.36376ZM12.9866 6.36376L13.3002 5.68248L12.9866 6.36376ZM13.4955 7.55531C13.802 7.83394 14.2763 7.81136 14.555 7.50487C14.8336 7.19837 14.811 6.72404 14.5045 6.44541L13.4955 7.55531ZM12.75 14V2H11.25V14H12.75ZM10.5045 7.55532C10.7152 7.36381 11.013 7.18958 11.327 7.04504L10.6998 5.68248C10.3203 5.85718 9.86736 6.10734 9.4955 6.44541L10.5045 7.55532ZM12.673 7.04504C12.987 7.18958 13.2848 7.36381 13.4955 7.55531L14.5045 6.44541C14.1326 6.10734 13.6797 5.85718 13.3002 5.68248L12.673 7.04504ZM11.327 7.04504C11.5223 6.95516 11.6057 6.91856 11.6869 6.89518C11.7508 6.87679 11.8337 6.86133 12 6.86133V5.36133C11.7281 5.36133 11.5005 5.38794 11.272 5.4537C11.0609 5.51446 10.8701 5.60407 10.6998 5.68248L11.327 7.04504ZM13.3002 5.68248C13.1299 5.60407 12.9391 5.51446 12.728 5.45369C12.4995 5.38794 12.2719 5.36133 12 5.36133V6.86133C12.1663 6.86133 12.2492 6.87679 12.3131 6.89518C12.3943 6.91856 12.4777 6.95516 12.673 7.04504L13.3002 5.68248Z" fill="#141B34"/>
</svg>
