<svg width="24" height="24" viewBox="0 0 24 24" fill="none" xmlns="http://www.w3.org/2000/svg">
<path d="M2 7C2 5.13077 2 4.19615 2.40192 3.5C2.66523 3.04394 3.04394 2.66523 3.5 2.40192C4.19615 2 5.13077 2 7 2C8.86923 2 9.80385 2 10.5 2.40192C10.9561 2.66523 11.3348 3.04394 11.5981 3.5C12 4.19615 12 5.13077 12 7C12 8.86923 12 9.80385 11.5981 10.5C11.3348 10.9561 10.9561 11.3348 10.5 11.5981C9.80385 12 8.86923 12 7 12C5.13077 12 4.19615 12 3.5 11.5981C3.04394 11.3348 2.66523 10.9561 2.40192 10.5C2 9.80385 2 8.86923 2 7Z" fill="white"/>
<path d="M7 12C7 10.1308 7 9.19615 7.40192 8.5C7.66523 8.04394 8.04394 7.66523 8.5 7.40192C9.19615 7 10.1308 7 12 7C13.8692 7 14.8038 7 15.5 7.40192C15.9561 7.66523 16.3348 8.04394 16.5981 8.5C17 9.19615 17 10.1308 17 12C17 13.8692 17 14.8038 16.5981 15.5C16.3348 15.9561 15.9561 16.3348 15.5 16.5981C14.8038 17 13.8692 17 12 17C10.1308 17 9.19615 17 8.5 16.5981C8.04394 16.3348 7.66523 15.9561 7.40192 15.5C7 14.8038 7 13.8692 7 12Z" fill="white"/>
<path d="M12 17C12 15.1308 12 14.1962 12.4019 13.5C12.6652 13.0439 13.0439 12.6652 13.5 12.4019C14.1962 12 15.1308 12 17 12C18.8692 12 19.8038 12 20.5 12.4019C20.9561 12.6652 21.3348 13.0439 21.5981 13.5C22 14.1962 22 15.1308 22 17C22 18.8692 22 19.8038 21.5981 20.5C21.3348 20.9561 20.9561 21.3348 20.5 21.5981C19.8038 22 18.8692 22 17 22C15.1308 22 14.1962 22 13.5 21.5981C13.0439 21.3348 12.6652 20.9561 12.4019 20.5C12 19.8038 12 18.8692 12 17Z" fill="#D4D7E0"/>
<path d="M4.51311 12C4.1118 11.9416 3.79336 11.8443 3.51321 11.6826C3.05313 11.417 2.67109 11.0349 2.40546 10.5748C2 9.87256 2 8.92972 2 7.04403C2 5.15834 2 4.21549 2.40546 3.51321C2.67109 3.05313 3.05313 2.67109 3.51321 2.40546C4.21549 2 5.15834 2 7.04403 2C8.92972 2 9.87256 2 10.5748 2.40546C11.0349 2.67109 11.417 3.05313 11.6826 3.51321C11.8443 3.79336 11.9416 4.1118 12 4.51311" stroke="#141B34" stroke-width="1.5" stroke-linecap="round"/>
<path d="M9.52169 17C9.11624 16.9417 8.7952 16.8443 8.51301 16.6813C8.053 16.4158 7.671 16.0338 7.40541 15.5737C7 14.8715 7 13.9288 7 12.0434C7 10.1579 7 9.2152 7.40541 8.51301C7.671 8.053 8.053 7.671 8.51301 7.40541C9.2152 7 10.1579 7 12.0434 7C13.9288 7 14.8715 7 15.5737 7.40541C16.0338 7.671 16.4158 8.053 16.6813 8.51301C16.8443 8.7952 16.9417 9.11624 17 9.52169" stroke="#141B34" stroke-width="1.5" stroke-linecap="round"/>
<path d="M12 17C12 15.1308 12 14.1962 12.4019 13.5C12.6652 13.0439 13.0439 12.6652 13.5 12.4019C14.1962 12 15.1308 12 17 12C18.8692 12 19.8038 12 20.5 12.4019C20.9561 12.6652 21.3348 13.0439 21.5981 13.5C22 14.1962 22 15.1308 22 17C22 18.8692 22 19.8038 21.5981 20.5C21.3348 20.9561 20.9561 21.3348 20.5 21.5981C19.8038 22 18.8692 22 17 22C15.1308 22 14.1962 22 13.5 21.5981C13.0439 21.3348 12.6652 20.9561 12.4019 20.5C12 19.8038 12 18.8692 12 17Z" stroke="#141B34" stroke-width="1.5"/>
</svg>
