<svg width="24" height="24" viewBox="0 0 24 24" fill="none" xmlns="http://www.w3.org/2000/svg">
<path d="M12 5L14 2.20004C13.3538 2.06886 12.6849 2 12 2C6.47715 2 2 6.47715 2 12C2 17.5228 6.47715 22 12 22C17.5228 22 22 17.5228 22 12C22 8.72836 20.4289 5.82368 18 3.99927" stroke="#141B34" stroke-width="1.5" stroke-linejoin="round"/>
<path d="M13 16H12.35C12.35 16.359 12.641 16.65 13 16.65V16ZM16.5 16V16.65C16.859 16.65 17.15 16.359 17.15 16H16.5ZM16.5 10H17.15C17.15 9.82761 17.0815 9.66228 16.9596 9.54038C16.8377 9.41848 16.6724 9.35 16.5 9.35V10ZM13 10V9.35C12.641 9.35 12.35 9.64102 12.35 10H13ZM7.5 10V9.35C7.14101 9.35 6.85 9.64101 6.85 10H7.5ZM10.5 10H11.15V9.35H10.5V10ZM10.5 16V16.65H11.15V16H10.5ZM7.5 16H6.85C6.85 16.359 7.14101 16.65 7.5 16.65V16ZM15.85 10V16H17.15V10H15.85ZM13.65 16V10H12.35V16H13.65ZM8.15 11.1179V10H6.85V11.1179H8.15ZM7.5 10.65H10.5V9.35H7.5V10.65ZM10.5 15.35H7.5V16.65H10.5V15.35ZM8.15 16V14.8821H6.85V16H8.15ZM9.85 10V13H11.15V10H9.85ZM9.85 13V16H11.15V13H9.85ZM10.5 12.35H8V13.65H10.5V12.35ZM16.5 9.35L13 9.35V10.65L16.5 10.65V9.35ZM13 16.65H16.5V15.35H13V16.65Z" fill="#141B34"/>
</svg>
