<svg width="24" height="24" viewBox="0 0 24 24" fill="none" xmlns="http://www.w3.org/2000/svg">
<path d="M18 5V5.75H18.75V5H18ZM18 4.5H18.75V4.14872L18.4801 3.92383L18 4.5ZM9.19422 5.75H18V4.25H9.19422V5.75ZM2.75 12C2.75 8.56744 5.61569 5.75 9.19422 5.75V4.25C4.82623 4.25 1.25 7.70058 1.25 12H2.75ZM3.89905 15.563C3.17369 14.5512 2.75 13.324 2.75 12H1.25C1.25 13.6505 1.77968 15.1812 2.67995 16.437L3.89905 15.563ZM18.75 5V4.5H17.25V5H18.75ZM18.4801 3.92383L15.4801 1.42383L14.5199 2.57617L17.5199 5.07617L18.4801 3.92383Z" fill="#141B34"/>
<path d="M6 19V18.25H5.25V19H6ZM6 19.5H5.25V19.8513L5.51986 20.0762L6 19.5ZM14.8058 18.25H6V19.75H14.8058V18.25ZM21.25 12C21.25 15.4326 18.3843 18.25 14.8058 18.25V19.75C19.1738 19.75 22.75 16.2994 22.75 12H21.25ZM20.1009 8.43697C20.8263 9.44882 21.25 10.676 21.25 12H22.75C22.75 10.3495 22.2203 8.81885 21.3201 7.56303L20.1009 8.43697ZM5.25 19V19.5H6.75V19H5.25ZM5.51986 20.0762L8.51986 22.5762L9.48014 21.4238L6.48014 18.9238L5.51986 20.0762Z" fill="#141B34"/>
<path d="M8 12H16" stroke="#141B34" stroke-width="1.5" stroke-linejoin="round"/>
</svg>
