<svg width="24" height="24" viewBox="0 0 24 24" fill="none" xmlns="http://www.w3.org/2000/svg">
<path d="M19 9C19.6254 9.81968 20 10.8634 20 12C20 13.1366 19.6254 14.1803 19 15" stroke="#141B34" stroke-width="1.5" stroke-linejoin="round"/>
<path d="M15.9993 4H16.7493C16.7493 3.72564 16.5995 3.47317 16.3587 3.34171C16.1179 3.21024 15.8245 3.22076 15.5937 3.36913L15.9993 4ZM15.9993 20L15.5937 20.6309C15.8245 20.7792 16.1179 20.7898 16.3587 20.6583C16.5995 20.5268 16.7493 20.2744 16.7493 20H15.9993ZM4 8.5V7.75C3.58579 7.75 3.25 8.08579 3.25 8.5H4ZM4 15.5H3.25C3.25 15.9142 3.58579 16.25 4 16.25V15.5ZM9 8.5V9.25H9.2203L9.4056 9.13087L9 8.5ZM9 15.5L9.4056 14.8691L9.2203 14.75H9V15.5ZM15.2493 4V20H16.7493V4H15.2493ZM3.25 8.5V15.5H4.75V8.5H3.25ZM4 9.25H9V7.75H4V9.25ZM4 16.25H9V14.75H4V16.25ZM9.4056 9.13087L16.4049 4.63087L15.5937 3.36913L8.5944 7.86913L9.4056 9.13087ZM8.5944 16.1309L15.5937 20.6309L16.4049 19.3691L9.4056 14.8691L8.5944 16.1309Z" fill="#141B34"/>
</svg>
