<svg width="24" height="24" viewBox="0 0 24 24" fill="none" xmlns="http://www.w3.org/2000/svg">
<path opacity="0.4" d="M5.125 2.87515C5.125 2.78652 5.04909 2.71481 4.96129 2.72692C4.06119 2.85107 3.31352 3.11638 2.72311 3.70734C2.12131 4.3097 1.8625 5.06805 1.74151 5.96879C1.62497 6.83646 1.62498 7.93974 1.625 9.30865V15.9245C1.62498 17.2934 1.62497 18.3966 1.74151 19.2643C1.8625 20.165 2.12131 20.9234 2.72311 21.5257C3.325 22.1282 4.08293 22.3874 4.98316 22.5085C5.85017 22.6252 6.95252 22.6252 8.32006 22.6252L13.4299 22.6252C13.8984 22.6252 14.3357 22.6252 14.743 22.6205C15.0393 22.6171 15.1874 22.6154 15.2701 22.5445C15.285 22.5318 15.2926 22.5241 15.3051 22.5091C15.375 22.4256 15.375 22.2421 15.375 21.875V21.475C15.375 21.1922 15.375 21.0507 15.2871 20.9629C15.1993 20.875 15.0578 20.875 14.775 20.875H14.375C12.9943 20.875 11.875 19.7557 11.875 18.375C11.875 16.9943 12.9943 15.875 14.375 15.875H14.775C15.0578 15.875 15.1993 15.875 15.2871 15.7871C15.375 15.6993 15.375 15.5578 15.375 15.275V14.875C15.375 13.4943 16.4943 12.375 17.875 12.375C18.5529 12.375 19.1678 12.6448 19.6181 13.0829C19.8746 13.3324 20.0028 13.4572 20.0639 13.4314C20.125 13.4056 20.125 13.2419 20.125 12.9146V9.30871C20.125 7.93976 20.125 6.83648 20.0085 5.96879C19.8875 5.06805 19.6287 4.3097 19.0269 3.70734C18.4365 3.11638 17.6888 2.85107 16.7887 2.72692C16.7009 2.71481 16.625 2.78652 16.625 2.87515C16.625 4.53201 15.2819 5.87515 13.625 5.87515H8.125C6.46815 5.87515 5.125 4.53201 5.125 2.87515Z" fill="#141B34"/>
<path fill-rule="evenodd" clip-rule="evenodd" d="M6.125 10.875C6.125 10.4608 6.46079 10.125 6.875 10.125H14.875C15.2892 10.125 15.625 10.4608 15.625 10.875C15.625 11.2892 15.2892 11.625 14.875 11.625H6.875C6.46079 11.625 6.125 11.2892 6.125 10.875ZM6.125 15.875C6.125 15.4608 6.46079 15.125 6.875 15.125H10.875C11.2892 15.125 11.625 15.4608 11.625 15.875C11.625 16.2892 11.2892 16.625 10.875 16.625H6.875C6.46079 16.625 6.125 16.2892 6.125 15.875Z" fill="#141B34"/>
<path d="M6.375 2.875C6.375 1.9085 7.1585 1.125 8.125 1.125H13.625C14.5915 1.125 15.375 1.9085 15.375 2.875C15.375 3.8415 14.5915 4.625 13.625 4.625H8.125C7.1585 4.625 6.375 3.8415 6.375 2.875Z" fill="#141B34"/>
<path fill-rule="evenodd" clip-rule="evenodd" d="M17.875 13.875C18.4273 13.875 18.875 14.3227 18.875 14.875V17.375L21.375 17.375C21.9273 17.375 22.375 17.8227 22.375 18.375C22.375 18.9273 21.9273 19.375 21.375 19.375L18.875 19.375V21.875C18.875 22.4273 18.4273 22.875 17.875 22.875C17.3227 22.875 16.875 22.4273 16.875 21.875V19.375L14.375 19.375C13.8227 19.375 13.375 18.9273 13.375 18.375C13.375 17.8227 13.8227 17.375 14.375 17.375L16.875 17.375V14.875C16.875 14.3227 17.3227 13.875 17.875 13.875Z" fill="#141B34"/>
</svg>
