<svg width="24" height="24" viewBox="0 0 24 24" fill="none" xmlns="http://www.w3.org/2000/svg">
<path d="M21.3358 22.75L1.25 2.66421L2.66421 1.25L22.75 21.3358L21.3358 22.75Z" fill="#141B34"/>
<path d="M12 1.25C17.8997 1.25 22.75 5.80369 22.75 11.5C22.75 13.6672 22.0479 15.669 20.8531 17.3176L6.32806 2.79253C7.97844 1.8137 9.92427 1.25 12 1.25Z" fill="#141B34"/>
<path d="M12 21.75C10.5948 21.75 9.25046 21.4925 8.01735 21.0233L3.25001 22.75L4.16134 18.5143C2.36071 16.6855 1.25 14.2189 1.25 11.5C1.25 8.69525 2.4259 6.16751 4.32398 4.32398L19.152 19.152C17.2465 20.7706 14.7361 21.75 12 21.75Z" fill="#141B34"/>
</svg>
