<svg width="24" height="24" viewBox="0 0 24 24" fill="none" xmlns="http://www.w3.org/2000/svg">
<path fill-rule="evenodd" clip-rule="evenodd" d="M3.25 2C3.25 1.58579 3.58579 1.25 4 1.25H21.5C21.9142 1.25 22.25 1.58579 22.25 2V22C22.25 22.4142 21.9142 22.75 21.5 22.75H4C3.58579 22.75 3.25 22.4142 3.25 22V19H1.75V17H3.25V13H1.75V11H3.25V7H1.75V5H3.25V2ZM12.75 5.75C11.2312 5.75 10 6.98122 10 8.5C10 10.0188 11.2312 11.25 12.75 11.25C14.2688 11.25 15.5 10.0188 15.5 8.5C15.5 6.98122 14.2688 5.75 12.75 5.75ZM12.75 12.75C10.1266 12.75 8 14.8766 8 17.5V18.25H17.5V17.5C17.5 14.8766 15.3734 12.75 12.75 12.75Z" fill="#141B34"/>
</svg>
