<svg width="24" height="24" viewBox="0 0 24 24" fill="none" xmlns="http://www.w3.org/2000/svg">
<path fill-rule="evenodd" clip-rule="evenodd" d="M14.1405 1.7722C13.8204 1.74999 13.4486 1.74999 12.7895 1.75H12.7895H11.2105H11.2105C10.5514 1.74999 10.1796 1.74999 9.85949 1.7722C5.25571 2.09176 1.59176 5.75571 1.2722 10.3595C1.24999 10.6796 1.24999 11.0514 1.25 11.7105V11.7105V11.7895V11.7895C1.24999 12.4486 1.24999 12.8204 1.2722 13.1405C1.38603 14.7804 1.92471 16.3022 2.77921 17.5954L1.47482 22.25L6.43709 20.8113C7.48219 21.3226 8.63831 21.643 9.85949 21.7278C10.1796 21.75 10.5514 21.75 11.2105 21.75H12.7895C13.4486 21.75 13.8204 21.75 14.1405 21.7278C18.7443 21.4082 22.4082 17.7443 22.7278 13.1405C22.75 12.8204 22.75 12.4486 22.75 11.7895V11.7105C22.75 11.0514 22.75 10.6796 22.7278 10.3595C22.4082 5.75571 18.7443 2.09176 14.1405 1.7722ZM8 8.24138H11V7.5H13V8.24138H16V10.2414H15.3028C14.8343 11.5527 14.1153 12.7796 13.3114 13.8827L14.4393 15.0699L12.9893 16.4474L12.0477 15.4562C11.2948 16.3156 10.5216 17.0826 9.82428 17.7319L8.46144 16.2681C9.18066 15.5985 9.96631 14.814 10.7114 13.9443C10.5567 13.7426 10.4019 13.5336 10.2569 13.3299C9.95755 12.9096 9.64946 12.4429 9.49162 12.1L11.3084 11.2637C11.3791 11.4173 11.5853 11.7476 11.886 12.1697C11.917 12.2133 11.9486 12.2572 11.9804 12.3011C12.437 11.6348 12.8369 10.9449 13.1495 10.2414H8V8.24138Z" fill="#141B34"/>
</svg>
