<svg width="24" height="24" viewBox="0 0 24 24" fill="none" xmlns="http://www.w3.org/2000/svg">
<path d="M10.655 2H5.24561C4.34936 2 3.6228 2.67157 3.6228 3.5C3.6228 4.15311 4.07438 4.70873 4.70467 4.91465C3.09757 7.88562 2 10.3773 2 13.7771V18C2 21.3093 2.74721 22 6.32748 22H10.428C11.9011 22 12.6377 22 13.1577 21.6309C13.3409 21.5008 13.5008 21.3409 13.6309 21.1577C14 20.6377 14 19.9011 14 18.428V13.7771L13.5 10.4229C13.465 10.281 13.4279 10.1401 13.3888 10C12.9095 8.28337 12.1247 6.68943 11.1693 4.92311C11.8134 4.7243 12.2778 4.16227 12.2778 3.5C12.2778 2.67157 11.5512 2 10.655 2Z" fill="#D4D7E0"/>
<path d="M12 17.3809C12 20.15 14.4896 21.9964 17 21.9964C19.5104 21.9964 22 20.15 22 17.3809C22 14.6118 20.1818 12.7656 18.8182 12.7656C17.9091 12.7656 17 13.2272 17 13.2272C17 13.2272 16.0909 12.7656 15.1818 12.7656C13.8182 12.7656 12 14.6118 12 17.3809Z" fill="white"/>
<path d="M10.655 5C11.5512 5 12.2778 4.32843 12.2778 3.5C12.2778 2.67157 11.5512 2 10.655 2H5.24561C4.34936 2 3.6228 2.67157 3.6228 3.5C3.6228 4.32843 4.34936 5 5.24561 5M11.1693 4.92311C12.1247 6.68943 12.9095 8.28337 13.3888 10C13.4279 10.1401 13.465 10.281 13.5 10.4229M10.428 22H6.32748C2.74721 22 2 21.3093 2 18V13.7771C2 10.3773 3.09757 7.88562 4.70467 4.91465" stroke="#141B34" stroke-width="1.5" stroke-linecap="round" stroke-linejoin="round"/>
<path d="M17 13.2308C17 13.2308 16.0909 12.7693 15.1818 12.7693C13.8182 12.7693 12 14.6154 12 17.3846C12 20.1537 14.4896 22 17 22C19.5104 22 22 20.1537 22 17.3846C22 14.6154 20.1818 12.7693 18.8182 12.7693C17.9091 12.7693 17 13.2308 17 13.2308ZM17 13.2308C17 11.8462 17.9091 10 19.7273 10" stroke="#141B34" stroke-width="1.5" stroke-linecap="round" stroke-linejoin="round"/>
</svg>
